<?xml version="1.0" encoding="UTF-8"?>
<svg xmlns="http://www.w3.org/2000/svg" viewBox="0 0 500 500">
<defs>
<path d="M 259.62 57.38 C 257.08 55.08 254.33 53.02 250.50 51.12 C 246.67 49.23 239.83 46.90 236.62 46.00 C 233.42 45.10 232.54 45.73 231.25 45.75 C 229.96 45.77 229.52 45.90 228.88 46.12 C 228.23 46.35 227.83 46.40 227.38 47.12 C 226.92 47.85 226.29 49.21 226.12 50.50 C 225.96 51.79 226.42 52.88 226.38 54.88 C 226.33 56.88 226.15 60.15 225.88 62.50 C 225.60 64.85 225.44 66.10 224.75 69.00 C 224.06 71.90 222.94 76.35 221.75 79.88 C 220.56 83.40 219.62 85.88 217.62 90.12 C 215.62 94.38 212.21 101.02 209.75 105.38 C 207.29 109.73 205.40 112.46 202.88 116.25 C 200.35 120.04 198.19 123.38 194.62 128.12 C 191.06 132.88 185.21 140.19 181.50 144.75 C 177.79 149.31 176.83 150.54 172.38 155.50 C 167.92 160.46 159.56 169.46 154.75 174.50 C 149.94 179.54 145.73 183.67 143.50 185.75 C 141.27 187.83 142.73 185.79 141.38 187.00 C 140.02 188.21 139.71 189.21 135.38 193.00 C 131.04 196.79 121.92 204.48 115.38 209.75 C 108.83 215.02 104.33 218.46 96.12 224.62 C 87.92 230.79 73.50 241.38 66.12 246.75 C 58.75 252.12 54.23 254.98 51.88 256.88 C 49.52 258.77 51.58 257.69 52.00 258.12 C 52.42 258.56 53.40 259.27 54.38 259.50 C 55.35 259.73 55.54 259.79 57.88 259.50 C 60.21 259.21 64.31 258.88 68.38 257.75 C 72.44 256.62 77.96 254.56 82.25 252.75 C 86.54 250.94 90.12 249.02 94.12 246.88 C 98.12 244.73 101.38 242.92 106.25 239.88 C 111.12 236.83 116.40 233.58 123.38 228.62 C 130.35 223.67 141.46 215.33 148.12 210.12 C 154.79 204.92 156.23 204.38 163.38 197.38 C 170.52 190.38 183.52 176.19 191.00 168.12 C 198.48 160.06 201.44 156.81 208.25 149.00 C 215.06 141.19 224.92 129.60 231.88 121.25 C 238.83 112.90 245.73 104.33 250.00 98.88 C 254.27 93.42 255.12 91.42 257.50 88.50 C 259.88 85.58 262.58 83.00 264.25 81.38 C 265.92 79.75 266.75 79.71 267.50 78.75 C 268.25 77.79 268.58 77.06 268.75 75.62 C 268.92 74.19 269.00 71.92 268.50 70.12 C 268.00 68.33 267.23 67.00 265.75 64.88 C 264.27 62.75 262.17 59.67 259.62 57.38 Z" id="s-0-f-0"/>
<clipPath id="c-s-0"><use href="#s-0-f-0"/></clipPath>
<path d="M 243.62 87.75 C 243.29 88.31 242.88 88.96 242.88 90.00 C 242.88 91.04 242.88 92.48 243.62 94.00 C 244.38 95.52 246.40 98.04 247.38 99.12 C 248.35 100.21 245.21 96.29 249.50 100.50 C 253.79 104.71 263.88 115.25 273.12 124.38 C 282.38 133.50 295.42 146.15 305.00 155.25 C 314.58 164.35 323.54 172.58 330.62 179.00 C 337.71 185.42 340.73 188.17 347.50 193.75 C 354.27 199.33 365.21 208.00 371.25 212.50 C 377.29 217.00 379.94 218.54 383.75 220.75 C 387.56 222.96 391.79 224.85 394.12 225.75 C 396.46 226.65 393.88 226.06 397.75 226.12 C 401.62 226.19 410.44 226.35 417.38 226.12 C 424.31 225.90 433.33 225.31 439.38 224.75 C 445.42 224.19 448.02 223.75 453.62 222.75 C 459.23 221.75 469.29 219.60 473.00 218.75 C 476.71 217.90 475.17 218.02 475.88 217.62 C 476.58 217.23 476.98 216.79 477.25 216.38 C 477.52 215.96 477.62 215.60 477.50 215.12 C 477.38 214.65 477.35 214.19 476.50 213.50 C 475.65 212.81 478.10 213.25 472.38 211.00 C 466.65 208.75 452.12 203.42 442.12 200.00 C 432.12 196.58 420.38 193.25 412.38 190.50 C 404.38 187.75 400.48 186.15 394.12 183.50 C 387.77 180.85 381.06 177.92 374.25 174.62 C 367.44 171.33 360.54 167.88 353.25 163.75 C 345.96 159.62 336.81 153.88 330.50 149.88 C 324.19 145.88 320.50 143.35 315.38 139.75 C 310.25 136.15 306.44 133.46 299.75 128.25 C 293.06 123.04 281.69 113.92 275.25 108.50 C 268.81 103.08 264.33 98.54 261.12 95.75 C 257.92 92.96 257.35 92.94 256.00 91.75 C 254.65 90.56 254.04 89.38 253.00 88.62 C 251.96 87.88 250.38 87.58 249.75 87.25 C 249.12 86.92 249.52 86.75 249.25 86.62 C 248.98 86.50 248.85 86.50 248.12 86.50 C 247.40 86.50 245.62 86.42 244.88 86.62 C 244.12 86.83 243.96 87.19 243.62 87.75 Z" id="s-1-f-0"/>
<clipPath id="c-s-1"><use href="#s-1-f-0"/></clipPath>
<path d="M 232.25 174.88 C 230.44 175.04 229.71 175.50 228.75 176.00 C 227.79 176.50 226.98 177.31 226.50 177.88 C 226.02 178.44 225.98 178.71 225.88 179.38 C 225.77 180.04 225.71 180.92 225.88 181.88 C 226.04 182.83 225.71 183.06 226.88 185.12 C 228.04 187.19 231.27 191.48 232.88 194.25 C 234.48 197.02 235.52 199.19 236.50 201.75 C 237.48 204.31 238.25 207.29 238.75 209.62 C 239.25 211.96 239.35 206.90 239.50 215.75 C 239.65 224.60 239.79 232.38 239.62 262.75 C 239.46 293.12 238.81 374.81 238.50 398.00 C 238.19 421.19 238.06 400.83 237.75 401.88 C 237.44 402.92 237.17 403.44 236.62 404.25 C 236.08 405.06 235.40 406.08 234.50 406.75 C 233.60 407.42 232.27 407.90 231.25 408.25 C 230.23 408.60 229.98 408.83 228.38 408.88 C 226.77 408.92 229.15 409.65 221.62 408.50 C 214.10 407.35 190.83 403.10 183.25 402.00 C 175.67 400.90 177.46 401.83 176.12 401.88 C 174.79 401.92 175.44 401.96 175.25 402.25 C 175.06 402.54 174.83 403.04 175.00 403.62 C 175.17 404.21 175.50 404.90 176.25 405.75 C 177.00 406.60 175.21 405.92 179.50 408.75 C 183.79 411.58 195.17 418.15 202.00 422.75 C 208.83 427.35 216.25 433.00 220.50 436.38 C 224.75 439.75 224.96 440.29 227.50 443.00 C 230.04 445.71 233.40 450.15 235.75 452.62 C 238.10 455.10 239.77 456.54 241.62 457.88 C 243.48 459.21 245.40 460.12 246.88 460.62 C 248.35 461.12 249.40 461.02 250.50 460.88 C 251.60 460.73 252.56 460.33 253.50 459.75 C 254.44 459.17 255.23 458.48 256.12 457.38 C 257.02 456.27 257.94 454.85 258.88 453.12 C 259.81 451.40 260.79 449.77 261.75 447.00 C 262.71 444.23 263.79 440.96 264.62 436.50 C 265.46 432.04 266.31 426.50 266.75 420.25 C 267.19 414.00 267.25 404.44 267.25 399.00 C 267.25 393.56 267.12 392.81 266.75 387.62 C 266.38 382.44 265.62 377.60 265.00 367.88 C 264.38 358.15 263.48 341.40 263.00 329.25 C 262.52 317.10 262.25 304.75 262.12 295.00 C 262.00 285.25 262.06 278.06 262.25 270.75 C 262.44 263.44 262.65 258.33 263.25 251.12 C 263.85 243.92 265.08 233.40 265.88 227.50 C 266.67 221.60 267.17 219.60 268.00 215.75 C 268.83 211.90 270.10 206.96 270.88 204.38 C 271.65 201.79 272.31 201.48 272.62 200.25 C 272.94 199.02 272.88 198.06 272.75 197.00 C 272.62 195.94 272.48 195.02 271.88 193.88 C 271.27 192.73 270.69 191.60 269.12 190.12 C 267.56 188.65 264.94 186.44 262.50 185.00 C 260.06 183.56 256.77 182.65 254.50 181.50 C 252.23 180.35 250.60 179.02 248.88 178.12 C 247.15 177.23 245.67 176.65 244.12 176.12 C 242.58 175.60 241.60 175.21 239.62 175.00 C 237.65 174.79 234.06 174.71 232.25 174.88 Z" id="s-2-f-0"/>
<clipPath id="c-s-2"><use href="#s-2-f-0"/></clipPath>
<path d="M 218.38 286.38 C 217.08 285.08 215.08 283.38 213.00 282.00 C 210.92 280.62 208.67 279.46 205.88 278.12 C 203.08 276.79 198.88 274.73 196.25 274.00 C 193.62 273.27 191.83 273.75 190.12 273.75 C 188.42 273.75 187.60 273.77 186.00 274.00 C 184.40 274.23 182.48 274.62 180.50 275.12 C 178.52 275.62 176.29 276.23 174.12 277.00 C 171.96 277.77 171.19 278.79 167.50 279.75 C 163.81 280.71 159.69 281.60 152.00 282.75 C 144.31 283.90 130.10 285.71 121.38 286.62 C 112.65 287.54 103.77 287.88 99.62 288.25 C 95.48 288.62 97.29 288.48 96.50 288.88 C 95.71 289.27 95.17 289.88 94.88 290.62 C 94.58 291.38 94.29 292.38 94.75 293.38 C 95.21 294.38 94.94 294.92 97.62 296.62 C 100.31 298.33 107.62 302.10 110.88 303.62 C 114.12 305.15 115.50 305.29 117.12 305.75 C 118.75 306.21 118.73 306.21 120.62 306.38 C 122.52 306.54 123.69 307.65 128.50 306.75 C 133.31 305.85 141.62 302.96 149.50 301.00 C 157.38 299.04 171.15 295.94 175.75 295.00 C 180.35 294.06 176.67 295.06 177.12 295.38 C 177.58 295.69 178.21 296.06 178.50 296.88 C 178.79 297.69 179.00 298.98 178.88 300.25 C 178.75 301.52 178.27 303.04 177.75 304.50 C 177.23 305.96 178.58 303.50 175.75 309.00 C 172.92 314.50 165.06 329.83 160.75 337.50 C 156.44 345.17 153.50 349.65 149.88 355.00 C 146.25 360.35 142.88 364.83 139.00 369.62 C 135.12 374.42 130.75 379.33 126.62 383.75 C 122.50 388.17 119.98 391.02 114.25 396.12 C 108.52 401.23 99.23 409.00 92.25 414.38 C 85.27 419.75 76.23 425.52 72.38 428.38 C 68.52 431.23 69.62 430.69 69.12 431.50 C 68.62 432.31 69.17 432.85 69.38 433.25 C 69.58 433.65 69.17 433.79 70.38 433.88 C 71.58 433.96 74.38 434.15 76.62 433.75 C 78.88 433.35 79.60 433.33 83.88 431.50 C 88.15 429.67 96.83 425.56 102.25 422.75 C 107.67 419.94 111.60 417.67 116.38 414.62 C 121.15 411.58 124.96 409.17 130.88 404.50 C 136.79 399.83 146.54 391.54 151.88 386.62 C 157.21 381.71 159.10 379.35 162.88 375.00 C 166.65 370.65 169.69 367.12 174.50 360.50 C 179.31 353.88 186.02 344.29 191.75 335.25 C 197.48 326.21 205.17 312.21 208.88 306.25 C 212.58 300.29 212.19 301.54 214.00 299.50 C 215.81 297.46 218.62 295.23 219.75 294.00 C 220.88 292.77 220.58 292.83 220.75 292.12 C 220.92 291.42 221.15 290.71 220.75 289.75 C 220.35 288.79 219.67 287.67 218.38 286.38 Z" id="s-3-f-0"/>
<clipPath id="c-s-3"><use href="#s-3-f-0"/></clipPath>
<path d="M 362.50 235.88 C 360.77 233.67 358.96 231.94 357.50 230.50 C 356.04 229.06 355.54 228.50 353.75 227.25 C 351.96 226.00 348.48 223.90 346.75 223.00 C 345.02 222.10 344.81 222.17 343.38 221.88 C 341.94 221.58 339.52 221.25 338.12 221.25 C 336.73 221.25 335.79 221.56 335.00 221.88 C 334.21 222.19 333.88 222.50 333.38 223.12 C 332.88 223.75 332.44 223.27 332.00 225.62 C 331.56 227.98 331.44 234.10 330.75 237.25 C 330.06 240.40 329.54 241.77 327.88 244.50 C 326.21 247.23 324.50 249.12 320.75 253.62 C 317.00 258.12 311.69 264.46 305.38 271.50 C 299.06 278.54 287.15 291.02 282.88 295.88 C 278.60 300.73 280.38 299.42 279.75 300.62 C 279.12 301.83 279.19 302.42 279.12 303.12 C 279.06 303.83 279.19 304.44 279.38 304.88 C 279.56 305.31 279.50 305.58 280.25 305.75 C 281.00 305.92 282.25 306.35 283.88 305.88 C 285.50 305.40 285.23 306.00 290.00 302.88 C 294.77 299.75 303.60 293.10 312.50 287.12 C 321.40 281.15 335.50 271.98 343.38 267.00 C 351.25 262.02 356.31 259.21 359.75 257.25 C 363.19 255.29 362.90 255.67 364.00 255.25 C 365.10 254.83 365.67 255.04 366.38 254.75 C 367.08 254.46 367.75 253.94 368.25 253.50 C 368.75 253.06 369.12 252.92 369.38 252.12 C 369.62 251.33 370.00 250.15 369.75 248.75 C 369.50 247.35 369.08 245.90 367.88 243.75 C 366.67 241.60 364.23 238.08 362.50 235.88 Z" id="s-4-f-0"/>
<clipPath id="c-s-4"><use href="#s-4-f-0"/></clipPath>
<path d="M 252.75 284.75 C 252.44 285.17 252.19 285.52 252.62 286.25 C 253.06 286.98 254.56 288.67 255.38 289.12 C 256.19 289.58 257.15 288.79 257.50 289.00 C 257.85 289.21 257.23 289.85 257.50 290.38 C 257.77 290.90 258.21 291.50 259.12 292.12 C 260.04 292.75 261.42 293.12 263.00 294.12 C 264.58 295.12 266.81 296.65 268.62 298.12 C 270.44 299.60 272.33 301.44 273.88 303.00 C 275.42 304.56 272.52 300.29 277.88 307.50 C 283.23 314.71 295.60 332.42 306.00 346.25 C 316.40 360.08 331.44 379.54 340.25 390.50 C 349.06 401.46 354.50 407.15 358.88 412.00 C 363.25 416.85 363.96 417.33 366.50 419.62 C 369.04 421.92 372.35 424.54 374.12 425.75 C 375.90 426.96 374.25 426.71 377.12 426.88 C 380.00 427.04 385.79 427.12 391.38 426.75 C 396.96 426.38 402.40 425.96 410.62 424.62 C 418.85 423.29 435.12 420.04 440.75 418.75 C 446.38 417.46 443.48 417.50 444.38 416.88 C 445.27 416.25 445.79 415.65 446.12 415.00 C 446.46 414.35 446.60 413.62 446.38 413.00 C 446.15 412.38 448.48 413.15 444.75 411.25 C 441.02 409.35 432.62 405.92 424.00 401.62 C 415.38 397.33 401.12 389.96 393.00 385.50 C 384.88 381.04 380.19 377.96 375.25 374.88 C 370.31 371.79 367.62 369.96 363.38 367.00 C 359.12 364.04 353.79 360.21 349.75 357.12 C 345.71 354.04 342.94 351.77 339.12 348.50 C 335.31 345.23 333.19 343.60 326.88 337.50 C 320.56 331.40 307.08 317.79 301.25 311.88 C 295.42 305.96 293.54 303.88 291.88 302.00 C 290.21 300.12 292.25 301.81 291.25 300.62 C 290.25 299.44 287.17 296.08 285.88 294.88 C 284.58 293.67 284.71 294.35 283.50 293.38 C 282.29 292.40 280.23 290.23 278.62 289.00 C 277.02 287.77 275.48 286.83 273.88 286.00 C 272.27 285.17 271.54 284.42 269.00 284.00 C 266.46 283.58 261.04 283.54 258.62 283.50 C 256.21 283.46 255.48 283.54 254.50 283.75 C 253.52 283.96 253.06 284.33 252.75 284.75 Z" id="s-5-f-0"/>
<clipPath id="c-s-5"><use href="#s-5-f-0"/></clipPath>
</defs>
<g id="s-0" clip-path="url(#c-s-0)">
<use href="#s-0-f-0"/>
<path d="M 259.38 57.12 C 256.83 54.83 254.19 52.96 250.50 51.12 C 246.81 49.29 240.67 47.00 237.25 46.12 C 233.83 45.25 231.67 45.69 230.00 45.88 C 228.33 46.06 227.90 46.48 227.25 47.25 C 226.60 48.02 226.27 49.23 226.12 50.50 C 225.98 51.77 226.42 52.88 226.38 54.88 C 226.33 56.88 226.15 60.15 225.88 62.50 C 225.60 64.85 225.44 66.10 224.75 69.00 C 224.06 71.90 222.75 76.79 221.75 79.88 C 220.75 82.96 220.75 83.25 218.75 87.50 C 216.75 91.75 213.77 98.60 209.75 105.38 C 205.73 112.15 198.62 122.42 194.62 128.12 C 190.62 133.83 189.46 135.06 185.75 139.62 C 182.04 144.19 177.54 149.69 172.38 155.50 C 167.21 161.31 159.56 169.46 154.75 174.50 C 149.94 179.54 145.73 183.67 143.50 185.75 C 141.27 187.83 142.73 185.79 141.38 187.00 C 140.02 188.21 139.71 189.21 135.38 193.00 C 131.04 196.79 125.73 201.65 115.38 209.75 C 105.02 217.85 80.33 236.08 73.25 241.62 C 66.17 247.17 71.90 241.17 72.88 243.00 C 73.85 244.83 77.96 250.94 79.12 252.62 C 80.29 254.31 79.35 253.10 79.88 253.12 C 80.40 253.15 78.62 254.48 82.25 252.75 C 85.88 251.02 95.04 246.58 101.62 242.75 C 108.21 238.92 115.62 233.94 121.75 229.75 C 127.88 225.56 131.88 222.60 138.38 217.62 C 144.88 212.65 151.98 208.12 160.75 199.88 C 169.52 191.62 183.08 176.60 191.00 168.12 C 198.92 159.65 202.08 156.02 208.25 149.00 C 214.42 141.98 221.04 134.35 228.00 126.00 C 234.96 117.65 245.48 104.65 250.00 98.88 C 254.52 93.10 253.65 93.38 255.12 91.38 C 256.60 89.38 256.77 89.04 258.88 86.88 C 260.98 84.71 266.10 80.25 267.75 78.38 C 269.40 76.50 268.62 77.00 268.75 75.62 C 268.88 74.25 269.00 71.92 268.50 70.12 C 268.00 68.33 267.27 67.04 265.75 64.88 C 264.23 62.71 261.92 59.42 259.38 57.12 Z" id="s-0-f-1"/>
<path d="M 259.38 57.12 C 256.83 54.83 254.19 52.96 250.50 51.12 C 246.81 49.29 240.67 47.00 237.25 46.12 C 233.83 45.25 231.67 45.69 230.00 45.88 C 228.33 46.06 227.90 46.48 227.25 47.25 C 226.60 48.02 226.27 49.23 226.12 50.50 C 225.98 51.77 226.42 52.88 226.38 54.88 C 226.33 56.88 226.15 60.15 225.88 62.50 C 225.60 64.85 225.44 66.10 224.75 69.00 C 224.06 71.90 222.75 76.79 221.75 79.88 C 220.75 82.96 220.75 83.25 218.75 87.50 C 216.75 91.75 213.77 98.60 209.75 105.38 C 205.73 112.15 198.62 122.42 194.62 128.12 C 190.62 133.83 189.46 135.06 185.75 139.62 C 182.04 144.19 177.54 149.69 172.38 155.50 C 167.21 161.31 159.56 169.46 154.75 174.50 C 149.94 179.54 145.73 183.67 143.50 185.75 C 141.27 187.83 142.73 185.79 141.38 187.00 C 140.02 188.21 138.25 190.40 135.38 193.00 C 132.50 195.60 129.06 198.58 124.12 202.62 C 119.19 206.67 108.79 214.50 105.75 217.25 C 102.71 220.00 105.71 218.48 105.88 219.12 C 106.04 219.77 105.96 219.79 106.75 221.12 C 107.54 222.46 109.08 225.23 110.62 227.12 C 112.17 229.02 114.90 231.58 116.00 232.50 C 117.10 233.42 114.83 234.12 117.25 232.62 C 119.67 231.12 124.85 227.65 130.50 223.50 C 136.15 219.35 145.65 212.10 151.12 207.75 C 156.60 203.40 156.73 203.98 163.38 197.38 C 170.02 190.77 183.52 176.19 191.00 168.12 C 198.48 160.06 201.44 156.81 208.25 149.00 C 215.06 141.19 224.92 129.60 231.88 121.25 C 238.83 112.90 245.73 104.33 250.00 98.88 C 254.27 93.42 255.12 91.42 257.50 88.50 C 259.88 85.58 262.58 83.00 264.25 81.38 C 265.92 79.75 266.75 79.71 267.50 78.75 C 268.25 77.79 268.58 77.06 268.75 75.62 C 268.92 74.19 269.00 71.92 268.50 70.12 C 268.00 68.33 267.27 67.04 265.75 64.88 C 264.23 62.71 261.92 59.42 259.38 57.12 Z" id="s-0-f-2"/>
<path d="M 255.25 54.00 C 253.77 53.00 253.50 52.44 250.50 51.12 C 247.50 49.81 240.67 47.00 237.25 46.12 C 233.83 45.25 231.67 45.69 230.00 45.88 C 228.33 46.06 227.90 46.48 227.25 47.25 C 226.60 48.02 226.27 49.23 226.12 50.50 C 225.98 51.77 226.46 52.56 226.38 54.88 C 226.29 57.19 226.06 61.31 225.62 64.38 C 225.19 67.44 224.40 70.67 223.75 73.25 C 223.10 75.83 223.25 76.06 221.75 79.88 C 220.25 83.69 217.25 91.04 214.75 96.12 C 212.25 101.21 210.60 104.38 206.75 110.38 C 202.90 116.38 197.35 124.60 191.62 132.12 C 185.90 139.65 178.52 148.44 172.38 155.50 C 166.23 162.56 159.56 169.46 154.75 174.50 C 149.94 179.54 145.73 183.67 143.50 185.75 C 141.27 187.83 142.08 186.38 141.38 187.00 C 140.67 187.62 141.29 187.65 139.25 189.50 C 137.21 191.35 130.77 196.38 129.12 198.12 C 127.48 199.88 128.94 198.96 129.38 200.00 C 129.81 201.04 130.52 202.73 131.75 204.38 C 132.98 206.02 135.12 208.33 136.75 209.88 C 138.38 211.42 140.38 212.98 141.50 213.62 C 142.62 214.27 140.29 216.04 143.50 213.75 C 146.71 211.46 153.69 206.56 160.75 199.88 C 167.81 193.19 177.96 182.10 185.88 173.62 C 193.79 165.15 201.23 156.94 208.25 149.00 C 215.27 141.06 221.04 134.35 228.00 126.00 C 234.96 117.65 245.48 104.65 250.00 98.88 C 254.52 93.10 253.65 93.38 255.12 91.38 C 256.60 89.38 257.35 88.54 258.88 86.88 C 260.40 85.21 262.81 82.73 264.25 81.38 C 265.69 80.02 266.77 79.60 267.50 78.75 C 268.23 77.90 268.42 77.52 268.62 76.25 C 268.83 74.98 268.88 72.40 268.75 71.12 C 268.62 69.85 268.38 69.67 267.88 68.62 C 267.38 67.58 267.17 66.79 265.75 64.88 C 264.33 62.96 261.12 58.94 259.38 57.12 C 257.62 55.31 256.73 55.00 255.25 54.00 Z" id="s-0-f-3"/>
<path d="M 252.38 52.12 C 249.60 50.56 245.62 49.02 243.00 48.00 C 240.38 46.98 238.79 46.35 236.62 46.00 C 234.46 45.65 231.56 45.67 230.00 45.88 C 228.44 46.08 227.88 46.65 227.25 47.25 C 226.62 47.85 226.48 46.96 226.25 49.50 C 226.02 52.04 226.29 58.54 225.88 62.50 C 225.46 66.46 224.94 69.08 223.75 73.25 C 222.56 77.42 220.75 82.75 218.75 87.50 C 216.75 92.25 214.40 96.96 211.75 101.75 C 209.10 106.54 206.23 111.19 202.88 116.25 C 199.52 121.31 196.71 125.58 191.62 132.12 C 186.54 138.67 177.19 149.88 172.38 155.50 C 167.56 161.12 164.33 163.88 162.75 165.88 C 161.17 167.88 162.27 166.42 162.88 167.50 C 163.48 168.58 164.92 170.77 166.38 172.38 C 167.83 173.98 169.77 175.71 171.62 177.12 C 173.48 178.54 176.27 180.27 177.50 180.88 C 178.73 181.48 173.88 186.06 179.00 180.75 C 184.12 175.44 199.44 158.92 208.25 149.00 C 217.06 139.08 224.92 129.60 231.88 121.25 C 238.83 112.90 245.73 104.33 250.00 98.88 C 254.27 93.42 255.12 91.42 257.50 88.50 C 259.88 85.58 262.54 83.06 264.25 81.38 C 265.96 79.69 267.00 79.33 267.75 78.38 C 268.50 77.42 268.56 76.67 268.75 75.62 C 268.94 74.58 268.92 73.04 268.88 72.12 C 268.83 71.21 268.83 71.04 268.50 70.12 C 268.17 69.21 268.35 68.75 266.88 66.62 C 265.40 64.50 262.04 59.79 259.62 57.38 C 257.21 54.96 255.15 53.69 252.38 52.12 Z" id="s-0-f-4"/>
<path d="M 237.25 46.12 C 233.83 45.25 231.67 45.69 230.00 45.88 C 228.33 46.06 227.90 46.48 227.25 47.25 C 226.60 48.02 226.27 49.23 226.12 50.50 C 225.98 51.77 226.42 52.88 226.38 54.88 C 226.33 56.88 226.15 60.15 225.88 62.50 C 225.60 64.85 225.44 66.10 224.75 69.00 C 224.06 71.90 222.75 76.79 221.75 79.88 C 220.75 82.96 219.92 84.79 218.75 87.50 C 217.58 90.21 216.75 92.31 214.75 96.12 C 212.75 99.94 210.75 104.19 206.75 110.38 C 202.75 116.56 193.40 129.19 190.75 133.25 C 188.10 137.31 189.60 133.17 190.88 134.75 C 192.15 136.33 196.33 140.90 198.38 142.75 C 200.42 144.60 201.52 145.02 203.12 145.88 C 204.73 146.73 206.90 147.65 208.00 147.88 C 209.10 148.10 206.42 150.90 209.75 147.25 C 213.08 143.60 221.29 134.06 228.00 126.00 C 234.71 117.94 245.40 104.75 250.00 98.88 C 254.60 93.00 253.79 93.12 255.62 90.75 C 257.46 88.38 259.02 86.62 261.00 84.62 C 262.98 82.62 266.23 80.15 267.50 78.75 C 268.77 77.35 268.40 77.35 268.62 76.25 C 268.85 75.15 269.00 73.40 268.88 72.12 C 268.75 70.85 268.56 70.06 267.88 68.62 C 267.19 67.19 266.17 65.42 264.75 63.50 C 263.33 61.58 261.75 59.19 259.38 57.12 C 257.00 55.06 254.19 52.96 250.50 51.12 C 246.81 49.29 240.67 47.00 237.25 46.12 Z" id="s-0-f-5"/>
<path d="M 236.62 46.00 C 234.33 45.67 230.79 45.81 229.25 46.00 C 227.71 46.19 227.90 46.38 227.38 47.12 C 226.85 47.88 226.29 49.21 226.12 50.50 C 225.96 51.79 226.46 52.56 226.38 54.88 C 226.29 57.19 226.06 61.31 225.62 64.38 C 225.19 67.44 224.40 70.67 223.75 73.25 C 223.10 75.83 223.25 76.06 221.75 79.88 C 220.25 83.69 217.69 90.35 214.75 96.12 C 211.81 101.90 205.15 110.56 204.12 114.50 C 203.10 118.44 207.19 118.33 208.62 119.75 C 210.06 121.17 210.83 121.81 212.75 123.00 C 214.67 124.19 218.21 126.04 220.12 126.88 C 222.04 127.71 223.21 127.85 224.25 128.00 C 225.29 128.15 222.08 132.60 226.38 127.75 C 230.67 122.90 244.81 105.42 250.00 98.88 C 255.19 92.33 255.12 91.42 257.50 88.50 C 259.88 85.58 262.58 83.00 264.25 81.38 C 265.92 79.75 266.75 79.71 267.50 78.75 C 268.25 77.79 268.56 77.00 268.75 75.62 C 268.94 74.25 268.94 72.00 268.62 70.50 C 268.31 69.00 268.42 68.85 266.88 66.62 C 265.33 64.40 262.10 59.71 259.38 57.12 C 256.65 54.54 253.23 52.65 250.50 51.12 C 247.77 49.60 245.31 48.85 243.00 48.00 C 240.69 47.15 238.92 46.33 236.62 46.00 Z" id="s-0-f-6"/>
<path d="M 229.25 46.00 C 228.19 46.25 227.75 46.67 227.25 47.25 C 226.75 47.83 226.48 46.96 226.25 49.50 C 226.02 52.04 226.29 58.54 225.88 62.50 C 225.46 66.46 224.44 70.35 223.75 73.25 C 223.06 76.15 223.04 76.46 221.75 79.88 C 220.46 83.29 216.00 90.56 216.00 93.75 C 216.00 96.94 219.96 97.65 221.75 99.00 C 223.54 100.35 224.42 100.90 226.75 101.88 C 229.08 102.85 232.85 104.33 235.75 104.88 C 238.65 105.42 242.56 105.17 244.12 105.12 C 245.69 105.08 244.23 105.56 245.12 104.62 C 246.02 103.69 247.83 101.71 249.50 99.50 C 251.17 97.29 253.56 93.48 255.12 91.38 C 256.69 89.27 257.35 88.54 258.88 86.88 C 260.40 85.21 262.81 82.73 264.25 81.38 C 265.69 80.02 266.75 79.71 267.50 78.75 C 268.25 77.79 268.56 77.00 268.75 75.62 C 268.94 74.25 269.12 72.29 268.62 70.50 C 268.12 68.71 267.25 67.06 265.75 64.88 C 264.25 62.69 261.85 59.50 259.62 57.38 C 257.40 55.25 255.15 53.69 252.38 52.12 C 249.60 50.56 245.52 49.00 243.00 48.00 C 240.48 47.00 238.81 46.50 237.25 46.12 C 235.69 45.75 234.96 45.77 233.62 45.75 C 232.29 45.73 230.31 45.75 229.25 46.00 Z" id="s-0-f-7"/>
<path d="M 230.00 45.88 C 228.35 46.04 228.00 46.52 227.38 47.12 C 226.75 47.73 226.50 46.94 226.25 49.50 C 226.00 52.06 226.10 59.35 225.88 62.50 C 225.65 65.65 225.56 65.48 224.88 68.38 C 224.19 71.27 222.75 76.83 221.75 79.88 C 220.75 82.92 219.38 85.17 218.88 86.62 C 218.38 88.08 217.75 87.92 218.75 88.62 C 219.75 89.33 222.75 90.33 224.88 90.88 C 227.00 91.42 229.38 91.75 231.50 91.88 C 233.62 92.00 235.90 91.79 237.62 91.62 C 239.35 91.46 240.15 91.31 241.88 90.88 C 243.60 90.44 245.98 89.83 248.00 89.00 C 250.02 88.17 251.73 87.56 254.00 85.88 C 256.27 84.19 259.83 80.69 261.62 78.88 C 263.42 77.06 263.85 76.31 264.75 75.00 C 265.65 73.69 266.54 72.10 267.00 71.00 C 267.46 69.90 267.52 69.10 267.50 68.38 C 267.48 67.65 268.19 68.46 266.88 66.62 C 265.56 64.79 262.04 59.79 259.62 57.38 C 257.21 54.96 255.15 53.69 252.38 52.12 C 249.60 50.56 245.52 49.00 243.00 48.00 C 240.48 47.00 239.42 46.48 237.25 46.12 C 235.08 45.77 231.65 45.71 230.00 45.88 Z" id="s-0-f-8"/>
<path d="M 259.38 57.12 C 257.31 55.23 255.10 53.65 252.38 52.12 C 249.65 50.60 245.81 49.04 243.00 48.00 C 240.19 46.96 237.46 46.25 235.50 45.88 C 233.54 45.50 232.46 45.65 231.25 45.75 C 230.04 45.85 228.92 46.25 228.25 46.50 C 227.58 46.75 227.58 46.75 227.25 47.25 C 226.92 47.75 226.48 46.96 226.25 49.50 C 226.02 52.04 226.12 59.25 225.88 62.50 C 225.62 65.75 225.44 66.10 224.75 69.00 C 224.06 71.90 222.60 77.12 221.75 79.88 C 220.90 82.62 219.52 84.33 219.62 85.50 C 219.73 86.67 220.92 86.48 222.38 86.88 C 223.83 87.27 226.23 87.71 228.38 87.88 C 230.52 88.04 233.29 88.04 235.25 87.88 C 237.21 87.71 238.33 87.38 240.12 86.88 C 241.92 86.38 244.08 85.73 246.00 84.88 C 247.92 84.02 249.60 83.19 251.62 81.75 C 253.65 80.31 256.42 77.96 258.12 76.25 C 259.83 74.54 260.75 73.23 261.88 71.50 C 263.00 69.77 264.40 67.21 264.88 65.88 C 265.35 64.54 265.67 64.96 264.75 63.50 C 263.83 62.04 261.44 59.02 259.38 57.12 Z" id="s-0-f-9"/>
</g>
<g id="s-1" clip-path="url(#c-s-1)">
<use href="#s-1-f-0"/>
<path d="M 243.62 87.75 C 243.29 88.31 242.88 88.96 242.88 90.00 C 242.88 91.04 242.88 92.48 243.62 94.00 C 244.38 95.52 246.40 98.04 247.38 99.12 C 248.35 100.21 241.71 92.88 249.50 100.50 C 257.29 108.12 282.44 133.46 294.12 144.88 C 305.81 156.29 310.73 160.85 319.62 169.00 C 328.52 177.15 340.23 187.50 347.50 193.75 C 354.77 200.00 358.25 202.65 363.25 206.50 C 368.25 210.35 373.42 214.15 377.50 216.88 C 381.58 219.60 384.98 221.40 387.75 222.88 C 390.52 224.35 392.75 225.23 394.12 225.75 C 395.50 226.27 390.83 226.00 396.00 226.00 C 401.17 226.00 416.56 226.12 425.12 225.75 C 433.69 225.38 443.29 224.17 447.38 223.75 C 451.46 223.33 449.04 223.50 449.62 223.25 C 450.21 223.00 450.48 222.85 450.88 222.25 C 451.27 221.65 451.54 221.65 452.00 219.62 C 452.46 217.60 453.42 212.54 453.62 210.12 C 453.83 207.71 453.44 206.17 453.25 205.12 C 453.06 204.08 454.35 204.73 452.50 203.88 C 450.65 203.02 448.81 202.23 442.12 200.00 C 435.44 197.77 420.69 193.38 412.38 190.50 C 404.06 187.62 399.25 185.71 392.25 182.75 C 385.25 179.79 376.88 175.92 370.38 172.75 C 363.88 169.58 359.90 167.56 353.25 163.75 C 346.60 159.94 336.81 153.88 330.50 149.88 C 324.19 145.88 320.50 143.35 315.38 139.75 C 310.25 136.15 306.44 133.46 299.75 128.25 C 293.06 123.04 281.69 113.92 275.25 108.50 C 268.81 103.08 264.33 98.54 261.12 95.75 C 257.92 92.96 257.35 92.94 256.00 91.75 C 254.65 90.56 254.04 89.38 253.00 88.62 C 251.96 87.88 250.38 87.58 249.75 87.25 C 249.12 86.92 249.52 86.75 249.25 86.62 C 248.98 86.50 248.85 86.50 248.12 86.50 C 247.40 86.50 245.62 86.42 244.88 86.62 C 244.12 86.83 243.96 87.19 243.62 87.75 Z" id="s-1-f-1"/>
<path d="M 244.00 87.25 C 243.58 87.83 242.94 88.88 242.88 90.00 C 242.81 91.12 242.88 92.48 243.62 94.00 C 244.38 95.52 246.40 98.04 247.38 99.12 C 248.35 100.21 245.21 96.29 249.50 100.50 C 253.79 104.71 261.44 112.96 273.12 124.38 C 284.81 135.79 308.81 158.81 319.62 169.00 C 330.44 179.19 331.77 180.08 338.00 185.50 C 344.23 190.92 350.42 196.27 357.00 201.50 C 363.58 206.73 373.04 213.67 377.50 216.88 C 381.96 220.08 380.98 219.27 383.75 220.75 C 386.52 222.23 391.90 224.85 394.12 225.75 C 396.35 226.65 396.00 226.10 397.12 226.12 C 398.25 226.15 399.52 226.52 400.88 225.88 C 402.23 225.23 403.60 223.98 405.25 222.25 C 406.90 220.52 409.31 217.69 410.75 215.50 C 412.19 213.31 413.00 211.73 413.88 209.12 C 414.75 206.52 415.65 202.69 416.00 199.88 C 416.35 197.06 416.08 193.62 416.00 192.25 C 415.92 190.88 419.46 193.21 415.50 191.62 C 411.54 190.04 399.12 185.58 392.25 182.75 C 385.38 179.92 380.75 177.79 374.25 174.62 C 367.75 171.46 359.81 167.40 353.25 163.75 C 346.69 160.10 341.19 156.75 334.88 152.75 C 328.56 148.75 321.98 144.40 315.38 139.75 C 308.77 135.10 301.94 130.08 295.25 124.88 C 288.56 119.67 280.94 113.35 275.25 108.50 C 269.56 103.65 264.33 98.54 261.12 95.75 C 257.92 92.96 257.15 92.79 256.00 91.75 C 254.85 90.71 255.38 90.35 254.25 89.50 C 253.12 88.65 250.73 87.12 249.25 86.62 C 247.77 86.12 246.25 86.40 245.38 86.50 C 244.50 86.60 244.42 86.67 244.00 87.25 Z" id="s-1-f-2"/>
<path d="M 244.00 87.25 C 243.58 87.83 242.94 88.88 242.88 90.00 C 242.81 91.12 242.88 92.48 243.62 94.00 C 244.38 95.52 246.40 98.04 247.38 99.12 C 248.35 100.21 245.21 96.29 249.50 100.50 C 253.79 104.71 263.88 115.25 273.12 124.38 C 282.38 133.50 295.42 146.15 305.00 155.25 C 314.58 164.35 323.54 172.58 330.62 179.00 C 337.71 185.42 342.06 189.17 347.50 193.75 C 352.94 198.33 359.27 203.42 363.25 206.50 C 367.23 209.58 369.44 211.52 371.38 212.25 C 373.31 212.98 373.19 212.10 374.88 210.88 C 376.56 209.65 379.67 206.83 381.50 204.88 C 383.33 202.92 384.65 201.17 385.88 199.12 C 387.10 197.08 388.04 195.25 388.88 192.62 C 389.71 190.00 390.67 185.19 390.88 183.38 C 391.08 181.56 392.90 183.21 390.12 181.75 C 387.35 180.29 379.77 177.29 374.25 174.62 C 368.73 171.96 363.56 169.40 357.00 165.75 C 350.44 162.10 341.81 157.08 334.88 152.75 C 327.94 148.42 321.98 144.40 315.38 139.75 C 308.77 135.10 301.94 130.08 295.25 124.88 C 288.56 119.67 280.94 113.35 275.25 108.50 C 269.56 103.65 264.33 98.54 261.12 95.75 C 257.92 92.96 257.15 92.79 256.00 91.75 C 254.85 90.71 255.38 90.35 254.25 89.50 C 253.12 88.65 250.73 87.12 249.25 86.62 C 247.77 86.12 246.25 86.40 245.38 86.50 C 244.50 86.60 244.42 86.67 244.00 87.25 Z" id="s-1-f-3"/>
<path d="M 244.00 87.25 C 243.58 87.83 242.94 88.88 242.88 90.00 C 242.81 91.12 242.88 92.48 243.62 94.00 C 244.38 95.52 246.40 98.04 247.38 99.12 C 248.35 100.21 245.21 96.29 249.50 100.50 C 253.79 104.71 263.88 115.25 273.12 124.38 C 282.38 133.50 294.31 145.19 305.00 155.25 C 315.69 165.31 331.60 179.85 337.25 184.75 C 342.90 189.65 337.83 185.23 338.88 184.62 C 339.92 184.02 342.02 182.50 343.50 181.12 C 344.98 179.75 346.35 178.35 347.75 176.38 C 349.15 174.40 350.92 171.19 351.88 169.25 C 352.83 167.31 353.40 165.79 353.50 164.75 C 353.60 163.71 356.33 165.48 352.50 163.00 C 348.67 160.52 336.69 153.75 330.50 149.88 C 324.31 146.00 320.50 143.35 315.38 139.75 C 310.25 136.15 306.44 133.46 299.75 128.25 C 293.06 123.04 281.69 113.92 275.25 108.50 C 268.81 103.08 264.33 98.54 261.12 95.75 C 257.92 92.96 257.35 92.94 256.00 91.75 C 254.65 90.56 254.04 89.38 253.00 88.62 C 251.96 87.88 250.38 87.58 249.75 87.25 C 249.12 86.92 249.98 86.75 249.25 86.62 C 248.52 86.50 246.25 86.40 245.38 86.50 C 244.50 86.60 244.42 86.67 244.00 87.25 Z" id="s-1-f-4"/>
<path d="M 244.00 87.25 C 243.58 87.83 242.94 88.88 242.88 90.00 C 242.81 91.12 242.88 92.48 243.62 94.00 C 244.38 95.52 246.40 98.04 247.38 99.12 C 248.35 100.21 245.21 96.29 249.50 100.50 C 253.79 104.71 261.73 113.27 273.12 124.38 C 284.52 135.48 310.23 159.94 317.88 167.12 C 325.52 174.31 317.85 168.27 319.00 167.50 C 320.15 166.73 322.94 164.58 324.75 162.50 C 326.56 160.42 328.79 156.79 329.88 155.00 C 330.96 153.21 331.04 152.56 331.25 151.75 C 331.46 150.94 333.77 152.12 331.12 150.12 C 328.48 148.12 321.35 143.96 315.38 139.75 C 309.40 135.54 301.94 130.08 295.25 124.88 C 288.56 119.67 280.94 113.35 275.25 108.50 C 269.56 103.65 264.33 98.54 261.12 95.75 C 257.92 92.96 257.15 92.79 256.00 91.75 C 254.85 90.71 255.38 90.35 254.25 89.50 C 253.12 88.65 250.73 87.12 249.25 86.62 C 247.77 86.12 246.25 86.40 245.38 86.50 C 244.50 86.60 244.42 86.67 244.00 87.25 Z" id="s-1-f-5"/>
<path d="M 244.50 86.75 C 243.56 86.94 243.90 87.08 243.62 87.75 C 243.35 88.42 242.88 89.71 242.88 90.75 C 242.88 91.79 242.77 92.50 243.62 94.00 C 244.48 95.50 247.02 98.67 248.00 99.75 C 248.98 100.83 241.81 92.98 249.50 100.50 C 257.19 108.02 286.46 137.33 294.12 144.88 C 301.79 152.42 294.33 146.44 295.50 145.75 C 296.67 145.06 299.42 142.75 301.12 140.75 C 302.83 138.75 305.08 135.21 305.75 133.75 C 306.42 132.29 306.88 133.48 305.12 132.00 C 303.38 130.52 299.56 128.23 295.25 124.88 C 290.94 121.52 284.94 116.73 279.25 111.88 C 273.56 107.02 265.00 99.10 261.12 95.75 C 257.25 92.40 257.15 92.79 256.00 91.75 C 254.85 90.71 255.38 90.35 254.25 89.50 C 253.12 88.65 250.88 87.08 249.25 86.62 C 247.62 86.17 245.44 86.56 244.50 86.75 Z" id="s-1-f-6"/>
<path d="M 244.50 86.75 C 243.56 86.94 243.90 87.08 243.62 87.75 C 243.35 88.42 242.88 89.71 242.88 90.75 C 242.88 91.79 242.77 92.50 243.62 94.00 C 244.48 95.50 247.02 98.67 248.00 99.75 C 248.98 100.83 243.48 94.62 249.50 100.50 C 255.52 106.38 278.02 129.38 284.12 135.00 C 290.23 140.62 284.98 135.15 286.12 134.25 C 287.27 133.35 289.60 131.19 291.00 129.62 C 292.40 128.06 293.92 125.79 294.50 124.88 C 295.08 123.96 297.71 126.85 294.50 124.12 C 291.29 121.40 280.81 113.23 275.25 108.50 C 269.69 103.77 264.33 98.54 261.12 95.75 C 257.92 92.96 257.15 92.79 256.00 91.75 C 254.85 90.71 255.38 90.35 254.25 89.50 C 253.12 88.65 250.88 87.08 249.25 86.62 C 247.62 86.17 245.44 86.56 244.50 86.75 Z" id="s-1-f-7"/>
<path d="M 244.00 87.25 C 243.58 87.96 242.94 89.62 242.88 90.75 C 242.81 91.88 242.77 92.50 243.62 94.00 C 244.48 95.50 247.02 98.67 248.00 99.75 C 248.98 100.83 245.31 96.40 249.50 100.50 C 253.69 104.60 268.79 120.06 273.12 124.38 C 277.46 128.69 274.96 126.02 275.50 126.38 C 276.04 126.73 275.33 127.21 276.38 126.50 C 277.42 125.79 280.31 123.54 281.75 122.12 C 283.19 120.71 284.44 118.88 285.00 118.00 C 285.56 117.12 285.23 117.23 285.12 116.88 C 285.02 116.52 289.23 120.06 284.38 115.88 C 279.52 111.69 261.02 96.15 256.00 91.75 C 250.98 87.35 255.38 90.35 254.25 89.50 C 253.12 88.65 250.73 87.12 249.25 86.62 C 247.77 86.12 246.25 86.40 245.38 86.50 C 244.50 86.60 244.42 86.54 244.00 87.25 Z" id="s-1-f-8"/>
<path d="M 244.00 87.25 C 243.58 87.96 242.94 89.62 242.88 90.75 C 242.81 91.88 242.77 92.50 243.62 94.00 C 244.48 95.50 247.02 98.67 248.00 99.75 C 248.98 100.83 245.25 96.35 249.50 100.50 C 253.75 104.65 269.29 120.60 273.50 124.62 C 277.71 128.65 274.29 124.77 274.75 124.62 C 275.21 124.48 275.12 124.71 276.25 123.75 C 277.38 122.79 280.29 120.17 281.50 118.88 C 282.71 117.58 283.19 116.65 283.50 116.00 C 283.81 115.35 287.96 119.04 283.38 115.00 C 278.79 110.96 260.85 96.00 256.00 91.75 C 251.15 87.50 255.38 90.35 254.25 89.50 C 253.12 88.65 250.73 87.12 249.25 86.62 C 247.77 86.12 246.25 86.40 245.38 86.50 C 244.50 86.60 244.42 86.54 244.00 87.25 Z" id="s-1-f-9"/>
</g>
<g id="s-2" clip-path="url(#c-s-2)">
<use href="#s-2-f-0"/>
<path d="M 232.25 174.88 C 230.44 175.04 229.71 175.50 228.75 176.00 C 227.79 176.50 226.98 177.31 226.50 177.88 C 226.02 178.44 225.98 178.71 225.88 179.38 C 225.77 180.04 225.71 180.92 225.88 181.88 C 226.04 182.83 225.71 183.06 226.88 185.12 C 228.04 187.19 231.27 191.48 232.88 194.25 C 234.48 197.02 235.52 199.19 236.50 201.75 C 237.48 204.31 238.25 207.29 238.75 209.62 C 239.25 211.96 239.38 202.42 239.50 215.75 C 239.62 229.08 239.67 259.25 239.50 289.62 C 239.33 320.00 238.81 379.23 238.50 398.00 C 238.19 416.77 238.04 401.06 237.62 402.25 C 237.21 403.44 236.52 404.38 236.00 405.12 C 235.48 405.88 235.35 406.21 234.50 406.75 C 233.65 407.29 232.54 408.02 230.88 408.38 C 229.21 408.73 228.31 409.27 224.50 408.88 C 220.69 408.48 210.94 406.44 208.00 406.00 C 205.06 405.56 207.38 405.81 206.88 406.25 C 206.38 406.69 205.67 407.40 205.00 408.62 C 204.33 409.85 203.50 411.48 202.88 413.62 C 202.25 415.77 201.40 419.96 201.25 421.50 C 201.10 423.04 200.12 421.44 202.00 422.88 C 203.88 424.31 209.42 427.88 212.50 430.12 C 215.58 432.38 218.00 434.23 220.50 436.38 C 223.00 438.52 225.23 440.58 227.50 443.00 C 229.77 445.42 231.96 448.54 234.12 450.88 C 236.29 453.21 238.79 455.54 240.50 457.00 C 242.21 458.46 243.31 459.02 244.38 459.62 C 245.44 460.23 245.85 460.42 246.88 460.62 C 247.90 460.83 249.40 461.02 250.50 460.88 C 251.60 460.73 252.56 460.33 253.50 459.75 C 254.44 459.17 255.23 458.48 256.12 457.38 C 257.02 456.27 257.94 454.85 258.88 453.12 C 259.81 451.40 260.79 449.77 261.75 447.00 C 262.71 444.23 263.79 440.96 264.62 436.50 C 265.46 432.04 266.31 426.50 266.75 420.25 C 267.19 414.00 267.25 404.44 267.25 399.00 C 267.25 393.56 267.12 392.81 266.75 387.62 C 266.38 382.44 265.62 377.60 265.00 367.88 C 264.38 358.15 263.48 341.40 263.00 329.25 C 262.52 317.10 262.25 304.75 262.12 295.00 C 262.00 285.25 262.06 278.06 262.25 270.75 C 262.44 263.44 262.65 258.33 263.25 251.12 C 263.85 243.92 265.08 233.40 265.88 227.50 C 266.67 221.60 267.17 219.60 268.00 215.75 C 268.83 211.90 270.10 206.96 270.88 204.38 C 271.65 201.79 272.31 201.48 272.62 200.25 C 272.94 199.02 272.88 198.06 272.75 197.00 C 272.62 195.94 272.48 195.02 271.88 193.88 C 271.27 192.73 270.69 191.60 269.12 190.12 C 267.56 188.65 264.94 186.44 262.50 185.00 C 260.06 183.56 256.77 182.65 254.50 181.50 C 252.23 180.35 250.60 179.02 248.88 178.12 C 247.15 177.23 245.67 176.65 244.12 176.12 C 242.58 175.60 241.60 175.21 239.62 175.00 C 237.65 174.79 234.06 174.71 232.25 174.88 Z" id="s-2-f-1"/>
<path d="M 232.25 174.88 C 230.44 175.04 229.71 175.50 228.75 176.00 C 227.79 176.50 226.98 177.31 226.50 177.88 C 226.02 178.44 225.98 178.71 225.88 179.38 C 225.77 180.04 225.71 180.92 225.88 181.88 C 226.04 182.83 225.71 183.06 226.88 185.12 C 228.04 187.19 231.27 191.48 232.88 194.25 C 234.48 197.02 235.52 199.19 236.50 201.75 C 237.48 204.31 238.25 207.29 238.75 209.62 C 239.25 211.96 239.38 202.42 239.50 215.75 C 239.62 229.08 239.67 259.25 239.50 289.62 C 239.33 320.00 238.85 379.12 238.50 398.00 C 238.15 416.88 238.04 401.42 237.38 402.88 C 236.71 404.33 235.52 405.85 234.50 406.75 C 233.48 407.65 232.27 407.90 231.25 408.25 C 230.23 408.60 229.50 408.77 228.38 408.88 C 227.25 408.98 225.75 409.00 224.50 408.88 C 223.25 408.75 221.75 408.17 220.88 408.12 C 220.00 408.08 219.08 407.75 219.25 408.62 C 219.42 409.50 220.56 411.58 221.88 413.38 C 223.19 415.17 225.27 417.65 227.12 419.38 C 228.98 421.10 230.88 422.50 233.00 423.75 C 235.12 425.00 237.75 426.08 239.88 426.88 C 242.00 427.67 243.21 428.15 245.75 428.50 C 248.29 428.85 252.46 429.10 255.12 429.00 C 257.79 428.90 260.06 428.27 261.75 427.88 C 263.44 427.48 264.52 427.02 265.25 426.62 C 265.98 426.23 265.90 426.21 266.12 425.50 C 266.35 424.79 266.44 426.79 266.62 422.38 C 266.81 417.96 267.23 404.79 267.25 399.00 C 267.27 393.21 267.12 392.81 266.75 387.62 C 266.38 382.44 265.62 377.60 265.00 367.88 C 264.38 358.15 263.48 341.40 263.00 329.25 C 262.52 317.10 262.25 304.75 262.12 295.00 C 262.00 285.25 262.06 278.06 262.25 270.75 C 262.44 263.44 262.65 258.33 263.25 251.12 C 263.85 243.92 265.08 233.40 265.88 227.50 C 266.67 221.60 267.17 219.60 268.00 215.75 C 268.83 211.90 270.10 206.96 270.88 204.38 C 271.65 201.79 272.31 201.48 272.62 200.25 C 272.94 199.02 272.88 198.06 272.75 197.00 C 272.62 195.94 272.48 195.02 271.88 193.88 C 271.27 192.73 270.69 191.60 269.12 190.12 C 267.56 188.65 264.94 186.44 262.50 185.00 C 260.06 183.56 256.77 182.65 254.50 181.50 C 252.23 180.35 250.60 179.02 248.88 178.12 C 247.15 177.23 245.67 176.65 244.12 176.12 C 242.58 175.60 241.60 175.21 239.62 175.00 C 237.65 174.79 234.06 174.71 232.25 174.88 Z" id="s-2-f-2"/>
<path d="M 231.12 175.00 C 229.12 175.29 228.46 176.19 227.62 176.75 C 226.79 177.31 226.40 177.35 226.12 178.38 C 225.85 179.40 225.65 181.35 226.00 182.88 C 226.35 184.40 227.10 185.60 228.25 187.50 C 229.40 189.40 231.50 191.88 232.88 194.25 C 234.25 196.62 235.52 199.19 236.50 201.75 C 237.48 204.31 238.25 207.29 238.75 209.62 C 239.25 211.96 239.48 187.88 239.50 215.75 C 239.52 243.62 238.90 349.83 238.88 376.88 C 238.85 403.92 238.42 377.52 239.38 378.00 C 240.33 378.48 241.79 379.44 244.62 379.75 C 247.46 380.06 253.12 380.19 256.38 379.88 C 259.62 379.56 262.62 378.33 264.12 377.88 C 265.62 377.42 265.10 377.42 265.38 377.12 C 265.65 376.83 265.98 380.42 265.75 376.12 C 265.52 371.83 264.48 359.81 264.00 351.38 C 263.52 342.94 263.19 334.90 262.88 325.50 C 262.56 316.10 262.23 304.12 262.12 295.00 C 262.02 285.88 262.06 278.06 262.25 270.75 C 262.44 263.44 262.65 258.33 263.25 251.12 C 263.85 243.92 265.08 233.40 265.88 227.50 C 266.67 221.60 267.17 219.60 268.00 215.75 C 268.83 211.90 270.10 206.96 270.88 204.38 C 271.65 201.79 272.31 201.48 272.62 200.25 C 272.94 199.02 272.88 198.06 272.75 197.00 C 272.62 195.94 272.48 195.02 271.88 193.88 C 271.27 192.73 270.40 191.44 269.12 190.12 C 267.85 188.81 265.62 187.00 264.25 186.00 C 262.88 185.00 262.50 184.88 260.88 184.12 C 259.25 183.38 256.50 182.50 254.50 181.50 C 252.50 180.50 250.60 179.02 248.88 178.12 C 247.15 177.23 245.67 176.65 244.12 176.12 C 242.58 175.60 241.79 175.19 239.62 175.00 C 237.46 174.81 233.12 174.71 231.12 175.00 Z" id="s-2-f-3"/>
<path d="M 231.12 175.00 C 229.12 175.29 228.46 176.19 227.62 176.75 C 226.79 177.31 226.40 177.35 226.12 178.38 C 225.85 179.40 225.65 181.35 226.00 182.88 C 226.35 184.40 227.10 185.60 228.25 187.50 C 229.40 189.40 231.50 191.88 232.88 194.25 C 234.25 196.62 235.52 199.19 236.50 201.75 C 237.48 204.31 238.25 207.29 238.75 209.62 C 239.25 211.96 239.42 196.02 239.50 215.75 C 239.58 235.48 239.15 309.15 239.25 328.00 C 239.35 346.85 239.46 328.56 240.12 328.88 C 240.79 329.19 241.29 329.65 243.25 329.88 C 245.21 330.10 249.48 330.27 251.88 330.25 C 254.27 330.23 255.98 330.00 257.62 329.75 C 259.27 329.50 260.92 329.06 261.75 328.75 C 262.58 328.44 262.44 328.23 262.62 327.88 C 262.81 327.52 262.96 334.38 262.88 326.62 C 262.79 318.88 262.08 293.69 262.12 281.38 C 262.17 269.06 262.48 261.88 263.12 252.75 C 263.77 243.62 264.85 234.12 266.00 226.62 C 267.15 219.12 268.90 212.15 270.00 207.75 C 271.10 203.35 272.19 202.17 272.62 200.25 C 273.06 198.33 272.75 197.31 272.62 196.25 C 272.50 195.19 272.46 194.90 271.88 193.88 C 271.29 192.85 270.40 191.44 269.12 190.12 C 267.85 188.81 265.62 187.00 264.25 186.00 C 262.88 185.00 262.50 184.88 260.88 184.12 C 259.25 183.38 256.50 182.50 254.50 181.50 C 252.50 180.50 250.60 179.02 248.88 178.12 C 247.15 177.23 245.67 176.65 244.12 176.12 C 242.58 175.60 241.79 175.19 239.62 175.00 C 237.46 174.81 233.12 174.71 231.12 175.00 Z" id="s-2-f-4"/>
<path d="M 231.12 175.00 C 229.31 175.17 229.52 175.52 228.75 176.00 C 227.98 176.48 226.98 177.31 226.50 177.88 C 226.02 178.44 225.98 178.71 225.88 179.38 C 225.77 180.04 225.71 180.92 225.88 181.88 C 226.04 182.83 225.71 183.06 226.88 185.12 C 228.04 187.19 231.40 191.77 232.88 194.25 C 234.35 196.73 234.75 197.29 235.75 200.00 C 236.75 202.71 238.23 207.25 238.88 210.50 C 239.52 213.75 239.50 207.54 239.62 219.50 C 239.75 231.46 239.46 271.54 239.62 282.25 C 239.79 292.96 238.46 283.17 240.62 283.75 C 242.79 284.33 249.38 285.58 252.62 285.75 C 255.88 285.92 258.65 285.00 260.12 284.75 C 261.60 284.50 261.17 284.54 261.50 284.25 C 261.83 283.96 261.85 288.25 262.12 283.00 C 262.40 277.75 262.50 262.00 263.12 252.75 C 263.75 243.50 265.06 233.67 265.88 227.50 C 266.69 221.33 267.17 219.60 268.00 215.75 C 268.83 211.90 270.10 206.96 270.88 204.38 C 271.65 201.79 272.33 201.60 272.62 200.25 C 272.92 198.90 272.75 197.31 272.62 196.25 C 272.50 195.19 272.46 194.90 271.88 193.88 C 271.29 192.85 270.40 191.44 269.12 190.12 C 267.85 188.81 265.62 187.00 264.25 186.00 C 262.88 185.00 262.50 184.88 260.88 184.12 C 259.25 183.38 256.50 182.50 254.50 181.50 C 252.50 180.50 250.60 179.02 248.88 178.12 C 247.15 177.23 245.67 176.65 244.12 176.12 C 242.58 175.60 241.79 175.19 239.62 175.00 C 237.46 174.81 232.94 174.83 231.12 175.00 Z" id="s-2-f-5"/>
<path d="M 228.75 176.00 C 227.73 176.58 226.58 177.23 226.12 178.38 C 225.67 179.52 225.71 181.46 226.00 182.88 C 226.29 184.29 226.73 184.98 227.88 186.88 C 229.02 188.77 231.44 191.77 232.88 194.25 C 234.31 196.73 235.52 199.19 236.50 201.75 C 237.48 204.31 238.25 207.29 238.75 209.62 C 239.25 211.96 239.31 210.98 239.50 215.75 C 239.69 220.52 239.67 233.04 239.88 238.25 C 240.08 243.46 239.92 245.23 240.75 247.00 C 241.58 248.77 243.17 248.40 244.88 248.88 C 246.58 249.35 249.19 249.71 251.00 249.88 C 252.81 250.04 253.83 250.06 255.75 249.88 C 257.67 249.69 261.17 249.17 262.50 248.75 C 263.83 248.33 263.19 250.92 263.75 247.38 C 264.31 243.83 265.17 232.77 265.88 227.50 C 266.58 222.23 267.17 219.60 268.00 215.75 C 268.83 211.90 270.10 206.96 270.88 204.38 C 271.65 201.79 272.31 201.48 272.62 200.25 C 272.94 199.02 272.88 198.06 272.75 197.00 C 272.62 195.94 272.48 195.02 271.88 193.88 C 271.27 192.73 270.40 191.44 269.12 190.12 C 267.85 188.81 265.96 187.17 264.25 186.00 C 262.54 184.83 260.71 183.98 258.88 183.12 C 257.04 182.27 255.25 181.85 253.25 180.88 C 251.25 179.90 249.15 178.23 246.88 177.25 C 244.60 176.27 242.06 175.40 239.62 175.00 C 237.19 174.60 234.06 174.71 232.25 174.88 C 230.44 175.04 229.77 175.42 228.75 176.00 Z" id="s-2-f-6"/>
<path d="M 227.62 176.75 C 226.58 177.40 226.27 177.73 226.00 178.75 C 225.73 179.77 225.62 181.42 226.00 182.88 C 226.38 184.33 227.10 185.60 228.25 187.50 C 229.40 189.40 231.46 191.75 232.88 194.25 C 234.29 196.75 235.75 199.79 236.75 202.50 C 237.75 205.21 238.33 206.42 238.88 210.50 C 239.42 214.58 239.44 224.10 240.00 227.00 C 240.56 229.90 240.40 227.75 242.25 227.88 C 244.10 228.00 248.44 228.08 251.12 227.75 C 253.81 227.42 255.85 226.85 258.38 225.88 C 260.90 224.90 264.71 222.98 266.25 221.88 C 267.79 220.77 267.33 220.27 267.62 219.25 C 267.92 218.23 267.60 217.67 268.00 215.75 C 268.40 213.83 269.21 210.48 270.00 207.75 C 270.79 205.02 272.29 201.17 272.75 199.38 C 273.21 197.58 272.90 197.92 272.75 197.00 C 272.60 196.08 272.48 195.02 271.88 193.88 C 271.27 192.73 270.69 191.60 269.12 190.12 C 267.56 188.65 264.94 186.44 262.50 185.00 C 260.06 183.56 256.77 182.65 254.50 181.50 C 252.23 180.35 250.60 179.02 248.88 178.12 C 247.15 177.23 245.67 176.65 244.12 176.12 C 242.58 175.60 241.60 175.21 239.62 175.00 C 237.65 174.79 234.25 174.58 232.25 174.88 C 230.25 175.17 228.67 176.10 227.62 176.75 Z" id="s-2-f-7"/>
<path d="M 231.12 175.00 C 229.12 175.29 228.46 176.19 227.62 176.75 C 226.79 177.31 226.40 177.35 226.12 178.38 C 225.85 179.40 225.65 181.35 226.00 182.88 C 226.35 184.40 227.10 185.60 228.25 187.50 C 229.40 189.40 231.50 191.88 232.88 194.25 C 234.25 196.62 235.52 199.19 236.50 201.75 C 237.48 204.31 238.23 206.67 238.75 209.62 C 239.27 212.58 239.38 217.75 239.62 219.50 C 239.88 221.25 239.52 220.08 240.25 220.12 C 240.98 220.17 242.10 220.29 244.00 219.75 C 245.90 219.21 249.42 217.94 251.62 216.88 C 253.83 215.81 255.40 214.83 257.25 213.38 C 259.10 211.92 261.15 209.92 262.75 208.12 C 264.35 206.33 265.69 204.62 266.88 202.62 C 268.06 200.62 269.27 197.90 269.88 196.12 C 270.48 194.35 270.85 193.23 270.50 192.00 C 270.15 190.77 268.79 189.75 267.75 188.75 C 266.71 187.75 265.73 186.94 264.25 186.00 C 262.77 185.06 260.71 183.98 258.88 183.12 C 257.04 182.27 255.25 181.85 253.25 180.88 C 251.25 179.90 249.15 178.23 246.88 177.25 C 244.60 176.27 242.25 175.38 239.62 175.00 C 237.00 174.62 233.12 174.71 231.12 175.00 Z" id="s-2-f-8"/>
<path d="M 231.12 175.00 C 229.12 175.29 228.46 176.19 227.62 176.75 C 226.79 177.31 226.40 177.35 226.12 178.38 C 225.85 179.40 225.65 181.35 226.00 182.88 C 226.35 184.40 227.10 185.60 228.25 187.50 C 229.40 189.40 231.50 191.88 232.88 194.25 C 234.25 196.62 235.52 199.19 236.50 201.75 C 237.48 204.31 238.23 207.00 238.75 209.62 C 239.27 212.25 239.29 216.00 239.62 217.50 C 239.96 219.00 239.25 218.90 240.75 218.62 C 242.25 218.35 246.25 217.02 248.62 215.88 C 251.00 214.73 252.96 213.33 255.00 211.75 C 257.04 210.17 259.06 208.56 260.88 206.38 C 262.69 204.19 264.71 200.69 265.88 198.62 C 267.04 196.56 267.42 195.40 267.88 194.00 C 268.33 192.60 268.71 191.17 268.62 190.25 C 268.54 189.33 268.10 189.21 267.38 188.50 C 266.65 187.79 268.12 188.06 264.25 186.00 C 260.38 183.94 248.23 177.96 244.12 176.12 C 240.02 174.29 241.79 175.19 239.62 175.00 C 237.46 174.81 233.12 174.71 231.12 175.00 Z" id="s-2-f-9"/>
</g>
<g id="s-3" clip-path="url(#c-s-3)">
<use href="#s-3-f-0"/>
<path d="M 215.62 283.88 C 213.50 282.19 211.10 280.77 207.88 279.12 C 204.65 277.48 199.21 274.90 196.25 274.00 C 193.29 273.10 191.83 273.75 190.12 273.75 C 188.42 273.75 187.60 273.77 186.00 274.00 C 184.40 274.23 182.48 274.62 180.50 275.12 C 178.52 275.62 176.29 276.23 174.12 277.00 C 171.96 277.77 171.19 278.79 167.50 279.75 C 163.81 280.71 159.69 281.60 152.00 282.75 C 144.31 283.90 130.10 285.71 121.38 286.62 C 112.65 287.54 103.77 287.88 99.62 288.25 C 95.48 288.62 97.29 288.48 96.50 288.88 C 95.71 289.27 95.17 289.88 94.88 290.62 C 94.58 291.38 94.29 292.38 94.75 293.38 C 95.21 294.38 94.94 294.92 97.62 296.62 C 100.31 298.33 107.62 302.10 110.88 303.62 C 114.12 305.15 115.50 305.29 117.12 305.75 C 118.75 306.21 118.73 306.21 120.62 306.38 C 122.52 306.54 123.69 307.65 128.50 306.75 C 133.31 305.85 141.62 302.96 149.50 301.00 C 157.38 299.04 171.15 295.94 175.75 295.00 C 180.35 294.06 176.67 295.06 177.12 295.38 C 177.58 295.69 178.21 296.06 178.50 296.88 C 178.79 297.69 179.17 298.58 178.88 300.25 C 178.58 301.92 178.77 302.46 176.75 306.88 C 174.73 311.29 170.58 319.71 166.75 326.75 C 162.92 333.79 157.42 343.19 153.75 349.12 C 150.08 355.06 148.85 357.06 144.75 362.38 C 140.65 367.69 134.21 375.38 129.12 381.00 C 124.04 386.62 119.02 391.65 114.25 396.12 C 109.48 400.60 104.52 404.58 100.50 407.88 C 96.48 411.17 91.90 414.31 90.12 415.88 C 88.35 417.44 89.06 415.81 89.88 417.25 C 90.69 418.69 93.81 423.19 95.00 424.50 C 96.19 425.81 95.79 425.42 97.00 425.12 C 98.21 424.83 99.02 424.50 102.25 422.75 C 105.48 421.00 111.60 417.67 116.38 414.62 C 121.15 411.58 124.96 409.17 130.88 404.50 C 136.79 399.83 146.54 391.54 151.88 386.62 C 157.21 381.71 159.10 379.35 162.88 375.00 C 166.65 370.65 171.00 365.12 174.50 360.50 C 178.00 355.88 181.00 351.46 183.88 347.25 C 186.75 343.04 187.25 342.56 191.75 335.25 C 196.25 327.94 207.17 309.33 210.88 303.38 C 214.58 297.42 212.69 300.85 214.00 299.50 C 215.31 298.15 217.65 296.40 218.75 295.25 C 219.85 294.10 220.31 293.62 220.62 292.62 C 220.94 291.62 221.46 290.71 220.62 289.25 C 219.79 287.79 217.75 285.56 215.62 283.88 Z" id="s-3-f-1"/>
<path d="M 214.12 282.75 C 212.04 281.38 208.85 279.58 205.88 278.12 C 202.90 276.67 199.25 274.71 196.25 274.00 C 193.25 273.29 191.08 273.52 187.88 273.88 C 184.67 274.23 180.48 275.12 177.00 276.12 C 173.52 277.12 171.17 278.77 167.00 279.88 C 162.83 280.98 159.60 281.62 152.00 282.75 C 144.40 283.88 130.10 285.71 121.38 286.62 C 112.65 287.54 103.77 287.88 99.62 288.25 C 95.48 288.62 97.17 288.67 96.50 288.88 C 95.83 289.08 95.94 289.00 95.62 289.50 C 95.31 290.00 94.75 291.17 94.62 291.88 C 94.50 292.58 94.58 293.12 94.88 293.75 C 95.17 294.38 95.69 295.00 96.38 295.62 C 97.06 296.25 97.27 296.48 99.00 297.50 C 100.73 298.52 104.38 300.56 106.75 301.75 C 109.12 302.94 111.52 303.96 113.25 304.62 C 114.98 305.29 115.40 305.40 117.12 305.75 C 118.85 306.10 121.73 306.58 123.62 306.75 C 125.52 306.92 124.19 307.71 128.50 306.75 C 132.81 305.79 141.62 302.96 149.50 301.00 C 157.38 299.04 171.15 295.94 175.75 295.00 C 180.35 294.06 176.62 294.96 177.12 295.38 C 177.62 295.79 178.52 296.38 178.75 297.50 C 178.98 298.62 179.00 300.21 178.50 302.12 C 178.00 304.04 177.71 304.90 175.75 309.00 C 173.79 313.10 170.42 320.06 166.75 326.75 C 163.08 333.44 157.42 343.19 153.75 349.12 C 150.08 355.06 147.21 358.96 144.75 362.38 C 142.29 365.79 143.04 365.00 139.00 369.62 C 134.96 374.25 123.62 386.58 120.50 390.12 C 117.38 393.67 120.19 390.54 120.25 390.88 C 120.31 391.21 120.27 391.29 120.88 392.12 C 121.48 392.96 122.48 394.46 123.88 395.88 C 125.27 397.29 127.83 399.52 129.25 400.62 C 130.67 401.73 131.60 402.25 132.38 402.50 C 133.15 402.75 131.60 403.88 133.88 402.12 C 136.15 400.38 141.83 395.77 146.00 392.00 C 150.17 388.23 154.12 384.75 158.88 379.50 C 163.62 374.25 169.02 367.88 174.50 360.50 C 179.98 353.12 186.02 344.29 191.75 335.25 C 197.48 326.21 205.48 311.85 208.88 306.25 C 212.27 300.65 210.48 303.46 212.12 301.62 C 213.77 299.79 217.33 296.75 218.75 295.25 C 220.17 293.75 220.31 293.62 220.62 292.62 C 220.94 291.62 221.00 290.29 220.62 289.25 C 220.25 288.21 219.46 287.46 218.38 286.38 C 217.29 285.29 216.21 284.12 214.12 282.75 Z" id="s-3-f-2"/>
<path d="M 196.25 274.00 C 192.60 273.15 189.21 273.65 186.00 274.00 C 182.79 274.35 180.08 275.17 177.00 276.12 C 173.92 277.08 169.81 278.98 167.50 279.75 C 165.19 280.52 168.00 279.92 163.12 280.75 C 158.25 281.58 145.21 283.77 138.25 284.75 C 131.29 285.73 127.98 286.02 121.38 286.62 C 114.77 287.23 102.81 287.98 98.62 288.38 C 94.44 288.77 96.88 288.62 96.25 289.00 C 95.62 289.38 95.15 289.98 94.88 290.62 C 94.60 291.27 94.60 292.31 94.62 292.88 C 94.65 293.44 94.71 293.54 95.00 294.00 C 95.29 294.46 95.60 294.98 96.38 295.62 C 97.15 296.27 96.81 296.38 99.62 297.88 C 102.44 299.38 110.33 303.31 113.25 304.62 C 116.17 305.94 115.40 305.40 117.12 305.75 C 118.85 306.10 121.73 306.58 123.62 306.75 C 125.52 306.92 124.19 307.71 128.50 306.75 C 132.81 305.79 141.62 302.96 149.50 301.00 C 157.38 299.04 171.15 295.94 175.75 295.00 C 180.35 294.06 176.67 295.06 177.12 295.38 C 177.58 295.69 178.21 296.06 178.50 296.88 C 178.79 297.69 179.00 298.98 178.88 300.25 C 178.75 301.52 179.77 300.08 177.75 304.50 C 175.73 308.92 170.90 319.08 166.75 326.75 C 162.60 334.42 156.54 344.56 152.88 350.50 C 149.21 356.44 146.90 359.40 144.75 362.38 C 142.60 365.35 140.50 366.94 140.00 368.38 C 139.50 369.81 140.52 369.75 141.75 371.00 C 142.98 372.25 145.21 374.40 147.38 375.88 C 149.54 377.35 153.15 379.08 154.75 379.88 C 156.35 380.67 156.42 380.60 157.00 380.62 C 157.58 380.65 156.71 381.60 158.25 380.00 C 159.79 378.40 163.54 374.25 166.25 371.00 C 168.96 367.75 170.25 366.46 174.50 360.50 C 178.75 354.54 186.02 344.29 191.75 335.25 C 197.48 326.21 205.48 311.85 208.88 306.25 C 212.27 300.65 210.48 303.46 212.12 301.62 C 213.77 299.79 217.33 296.75 218.75 295.25 C 220.17 293.75 220.31 293.62 220.62 292.62 C 220.94 291.62 221.46 290.71 220.62 289.25 C 219.79 287.79 217.75 285.56 215.62 283.88 C 213.50 282.19 211.10 280.77 207.88 279.12 C 204.65 277.48 199.90 274.85 196.25 274.00 Z" id="s-3-f-3"/>
<path d="M 220.75 289.75 C 220.54 289.00 220.35 288.60 219.50 287.62 C 218.65 286.65 217.56 285.29 215.62 283.88 C 213.69 282.46 211.10 280.77 207.88 279.12 C 204.65 277.48 199.21 274.90 196.25 274.00 C 193.29 273.10 191.83 273.75 190.12 273.75 C 188.42 273.75 187.60 273.77 186.00 274.00 C 184.40 274.23 182.48 274.62 180.50 275.12 C 178.52 275.62 176.29 276.23 174.12 277.00 C 171.96 277.77 171.31 278.77 167.50 279.75 C 163.69 280.73 158.94 281.73 151.25 282.88 C 143.56 284.02 130.25 285.69 121.38 286.62 C 112.50 287.56 102.29 288.02 98.00 288.50 C 93.71 288.98 96.15 289.15 95.62 289.50 C 95.10 289.85 95.04 290.06 94.88 290.62 C 94.71 291.19 94.56 292.25 94.62 292.88 C 94.69 293.50 94.75 293.75 95.25 294.38 C 95.75 295.00 95.71 295.40 97.62 296.62 C 99.54 297.85 104.08 300.40 106.75 301.75 C 109.42 303.10 110.81 303.92 113.62 304.75 C 116.44 305.58 121.15 306.42 123.62 306.75 C 126.10 307.08 122.81 308.04 128.50 306.75 C 134.19 305.46 150.77 300.79 157.75 299.00 C 164.73 297.21 167.21 296.65 170.38 296.00 C 173.54 295.35 175.40 294.98 176.75 295.12 C 178.10 295.27 178.15 296.38 178.50 296.88 C 178.85 297.38 178.83 297.44 178.88 298.12 C 178.92 298.81 178.94 299.94 178.75 301.00 C 178.56 302.06 178.94 301.77 177.75 304.50 C 176.56 307.23 173.73 313.25 171.62 317.38 C 169.52 321.50 166.23 327.10 165.12 329.25 C 164.02 331.40 164.17 329.29 165.00 330.25 C 165.83 331.21 168.42 333.73 170.12 335.00 C 171.83 336.27 173.50 337.06 175.25 337.88 C 177.00 338.69 178.62 339.35 180.62 339.88 C 182.62 340.40 185.96 340.94 187.25 341.00 C 188.54 341.06 187.62 341.21 188.38 340.25 C 189.12 339.29 188.33 340.92 191.75 335.25 C 195.17 329.58 205.17 312.21 208.88 306.25 C 212.58 300.29 212.19 301.54 214.00 299.50 C 215.81 297.46 218.62 295.23 219.75 294.00 C 220.88 292.77 220.58 292.83 220.75 292.12 C 220.92 291.42 220.96 290.50 220.75 289.75 Z" id="s-3-f-4"/>
<path d="M 204.75 286.75 C 204.75 284.04 204.29 281.79 203.88 280.12 C 203.46 278.46 203.52 277.77 202.25 276.75 C 200.98 275.73 198.65 274.48 196.25 274.00 C 193.85 273.52 191.08 273.52 187.88 273.88 C 184.67 274.23 180.48 275.12 177.00 276.12 C 173.52 277.12 171.29 278.75 167.00 279.88 C 162.71 281.00 158.85 281.75 151.25 282.88 C 143.65 284.00 130.25 285.69 121.38 286.62 C 112.50 287.56 102.29 288.02 98.00 288.50 C 93.71 288.98 96.15 289.15 95.62 289.50 C 95.10 289.85 95.04 290.06 94.88 290.62 C 94.71 291.19 94.56 292.25 94.62 292.88 C 94.69 293.50 94.75 293.75 95.25 294.38 C 95.75 295.00 95.71 295.40 97.62 296.62 C 99.54 297.85 104.08 300.40 106.75 301.75 C 109.42 303.10 110.81 303.92 113.62 304.75 C 116.44 305.58 121.15 306.42 123.62 306.75 C 126.10 307.08 124.19 307.71 128.50 306.75 C 132.81 305.79 142.52 302.79 149.50 301.00 C 156.48 299.21 165.88 297.00 170.38 296.00 C 174.88 295.00 175.10 294.75 176.50 295.00 C 177.90 295.25 178.44 296.27 178.75 297.50 C 179.06 298.73 178.88 300.46 178.38 302.38 C 177.88 304.29 177.58 305.17 175.75 309.00 C 173.92 312.83 168.56 322.58 167.38 325.38 C 166.19 328.17 167.58 325.85 168.62 325.75 C 169.67 325.65 171.21 325.40 173.62 324.75 C 176.04 324.10 180.69 322.83 183.12 321.88 C 185.56 320.92 186.29 320.46 188.25 319.00 C 190.21 317.54 193.21 314.81 194.88 313.12 C 196.54 311.44 197.08 310.62 198.25 308.88 C 199.42 307.12 200.94 304.71 201.88 302.62 C 202.81 300.54 203.40 299.02 203.88 296.38 C 204.35 293.73 204.75 289.46 204.75 286.75 Z" id="s-3-f-5"/>
<path d="M 181.12 294.38 C 181.10 292.29 181.12 288.54 180.75 286.12 C 180.38 283.71 179.38 281.33 178.88 279.88 C 178.38 278.42 178.15 277.94 177.75 277.38 C 177.35 276.81 177.10 276.56 176.50 276.50 C 175.90 276.44 175.62 276.46 174.12 277.00 C 172.62 277.54 171.31 278.77 167.50 279.75 C 163.69 280.73 158.94 281.73 151.25 282.88 C 143.56 284.02 130.15 285.71 121.38 286.62 C 112.60 287.54 102.92 287.90 98.62 288.38 C 94.33 288.85 96.29 288.92 95.62 289.50 C 94.96 290.08 94.75 291.17 94.62 291.88 C 94.50 292.58 94.58 293.12 94.88 293.75 C 95.17 294.38 94.40 294.29 96.38 295.62 C 98.35 296.96 103.88 300.23 106.75 301.75 C 109.62 303.27 110.81 303.92 113.62 304.75 C 116.44 305.58 121.15 306.42 123.62 306.75 C 126.10 307.08 124.19 307.71 128.50 306.75 C 132.81 305.79 142.52 302.79 149.50 301.00 C 156.48 299.21 165.88 297.00 170.38 296.00 C 174.88 295.00 175.10 294.75 176.50 295.00 C 177.90 295.25 178.42 296.33 178.75 297.50 C 179.08 298.67 178.83 300.44 178.50 302.00 C 178.17 303.56 177.65 304.94 176.75 306.88 C 175.85 308.81 173.81 312.04 173.12 313.62 C 172.44 315.21 172.65 316.08 172.62 316.38 C 172.60 316.67 172.62 315.81 173.00 315.38 C 173.38 314.94 173.90 315.31 174.88 313.75 C 175.85 312.19 177.88 308.52 178.88 306.00 C 179.88 303.48 180.50 300.56 180.88 298.62 C 181.25 296.69 181.15 296.46 181.12 294.38 Z" id="s-3-f-6"/>
<path d="M 155.00 297.38 C 155.04 295.88 155.10 292.96 154.75 290.62 C 154.40 288.29 153.29 284.67 152.88 283.38 C 152.46 282.08 157.50 282.33 152.25 282.88 C 147.00 283.42 130.31 285.71 121.38 286.62 C 112.44 287.54 102.92 287.90 98.62 288.38 C 94.33 288.85 96.29 288.92 95.62 289.50 C 94.96 290.08 94.75 291.17 94.62 291.88 C 94.50 292.58 94.58 293.12 94.88 293.75 C 95.17 294.38 94.40 294.29 96.38 295.62 C 98.35 296.96 103.88 300.23 106.75 301.75 C 109.62 303.27 110.81 303.92 113.62 304.75 C 116.44 305.58 121.15 306.42 123.62 306.75 C 126.10 307.08 123.83 307.75 128.50 306.75 C 133.17 305.75 147.29 301.94 151.62 300.75 C 155.96 299.56 153.94 300.19 154.50 299.62 C 155.06 299.06 154.96 298.88 155.00 297.38 Z" id="s-3-f-7"/>
<path d="M 139.88 287.88 C 139.77 285.88 139.48 285.90 139.25 285.38 C 139.02 284.85 141.48 284.54 138.50 284.75 C 135.52 284.96 127.85 286.04 121.38 286.62 C 114.90 287.21 103.77 287.88 99.62 288.25 C 95.48 288.62 97.29 288.48 96.50 288.88 C 95.71 289.27 95.19 289.96 94.88 290.62 C 94.56 291.29 94.42 292.08 94.62 292.88 C 94.83 293.67 95.40 294.60 96.12 295.38 C 96.85 296.15 97.23 296.44 99.00 297.50 C 100.77 298.56 104.38 300.56 106.75 301.75 C 109.12 302.94 110.94 303.85 113.25 304.62 C 115.56 305.40 118.08 306.02 120.62 306.38 C 123.17 306.73 125.85 307.04 128.50 306.75 C 131.15 306.46 134.92 305.15 136.50 304.62 C 138.08 304.10 137.60 304.08 138.00 303.62 C 138.40 303.17 138.56 302.92 138.88 301.88 C 139.19 300.83 139.71 299.71 139.88 297.38 C 140.04 295.04 139.98 289.88 139.88 287.88 Z" id="s-3-f-8"/>
<path d="M 135.75 285.62 C 135.42 283.67 136.27 284.83 133.88 285.00 C 131.48 285.17 127.25 286.06 121.38 286.62 C 115.50 287.19 102.92 287.90 98.62 288.38 C 94.33 288.85 96.25 289.12 95.62 289.50 C 95.00 289.88 95.04 290.06 94.88 290.62 C 94.71 291.19 94.42 292.08 94.62 292.88 C 94.83 293.67 95.40 294.60 96.12 295.38 C 96.85 296.15 97.23 296.44 99.00 297.50 C 100.77 298.56 104.38 300.56 106.75 301.75 C 109.12 302.94 110.94 303.85 113.25 304.62 C 115.56 305.40 118.08 306.02 120.62 306.38 C 123.17 306.73 126.54 306.88 128.50 306.75 C 130.46 306.62 131.48 306.00 132.38 305.62 C 133.27 305.25 133.29 305.98 133.88 304.50 C 134.46 303.02 135.56 299.90 135.88 296.75 C 136.19 293.60 136.08 287.58 135.75 285.62 Z" id="s-3-f-9"/>
</g>
<g id="s-4" clip-path="url(#c-s-4)">
<use href="#s-4-f-0"/>
<path d="M 357.50 230.50 C 355.10 228.19 352.69 226.40 350.50 225.00 C 348.31 223.60 346.44 222.75 344.38 222.12 C 342.31 221.50 339.69 221.29 338.12 221.25 C 336.56 221.21 335.79 221.56 335.00 221.88 C 334.21 222.19 333.88 222.50 333.38 223.12 C 332.88 223.75 332.44 223.27 332.00 225.62 C 331.56 227.98 331.44 234.10 330.75 237.25 C 330.06 240.40 330.94 240.12 327.88 244.50 C 324.81 248.88 319.15 255.71 312.38 263.50 C 305.60 271.29 291.46 286.40 287.25 291.25 C 283.04 296.10 286.75 291.85 287.12 292.62 C 287.50 293.40 288.50 294.75 289.50 295.88 C 290.50 297.00 292.25 298.77 293.12 299.38 C 294.00 299.98 291.52 301.54 294.75 299.50 C 297.98 297.46 304.40 292.54 312.50 287.12 C 320.60 281.71 335.50 271.98 343.38 267.00 C 351.25 262.02 356.31 259.21 359.75 257.25 C 363.19 255.29 362.90 255.67 364.00 255.25 C 365.10 254.83 365.67 255.04 366.38 254.75 C 367.08 254.46 367.75 253.94 368.25 253.50 C 368.75 253.06 369.12 252.92 369.38 252.12 C 369.62 251.33 370.00 250.15 369.75 248.75 C 369.50 247.35 368.69 245.40 367.88 243.75 C 367.06 242.10 366.60 241.08 364.88 238.88 C 363.15 236.67 359.90 232.81 357.50 230.50 Z" id="s-4-f-1"/>
<path d="M 353.75 227.25 C 351.65 225.46 350.73 225.02 349.00 224.12 C 347.27 223.23 345.19 222.35 343.38 221.88 C 341.56 221.40 339.52 221.25 338.12 221.25 C 336.73 221.25 335.81 221.54 335.00 221.88 C 334.19 222.21 333.75 222.62 333.25 223.25 C 332.75 223.88 332.42 223.29 332.00 225.62 C 331.58 227.96 331.44 234.10 330.75 237.25 C 330.06 240.40 330.94 240.12 327.88 244.50 C 324.81 248.88 318.19 256.71 312.38 263.50 C 306.56 270.29 295.65 280.79 293.00 285.25 C 290.35 289.71 295.21 288.77 296.50 290.25 C 297.79 291.73 299.69 293.52 300.75 294.12 C 301.81 294.73 299.10 296.25 302.88 293.88 C 306.65 291.50 316.62 284.35 323.38 279.88 C 330.12 275.40 337.00 270.94 343.38 267.00 C 349.75 263.06 357.75 258.31 361.62 256.25 C 365.50 254.19 365.40 255.23 366.62 254.62 C 367.85 254.02 368.48 253.29 369.00 252.62 C 369.52 251.96 369.62 251.27 369.75 250.62 C 369.88 249.98 370.25 250.21 369.75 248.75 C 369.25 247.29 368.10 244.19 366.75 241.88 C 365.40 239.56 363.79 237.31 361.62 234.88 C 359.46 232.44 355.85 229.04 353.75 227.25 Z" id="s-4-f-2"/>
<path d="M 352.38 226.25 C 350.25 224.67 348.90 223.83 346.75 223.00 C 344.60 222.17 341.33 221.48 339.50 221.25 C 337.67 221.02 336.79 221.29 335.75 221.62 C 334.71 221.96 333.88 222.58 333.25 223.25 C 332.62 223.92 332.42 223.29 332.00 225.62 C 331.58 227.96 331.44 234.10 330.75 237.25 C 330.06 240.40 329.54 241.77 327.88 244.50 C 326.21 247.23 325.50 248.02 320.75 253.62 C 316.00 259.23 302.92 273.79 299.38 278.12 C 295.83 282.46 299.25 279.06 299.50 279.62 C 299.75 280.19 299.42 279.96 300.88 281.50 C 302.33 283.04 306.69 287.65 308.25 288.88 C 309.81 290.10 304.40 292.52 310.25 288.88 C 316.10 285.23 334.81 272.44 343.38 267.00 C 351.94 261.56 357.75 258.31 361.62 256.25 C 365.50 254.19 365.33 255.31 366.62 254.62 C 367.92 253.94 368.85 253.10 369.38 252.12 C 369.90 251.15 370.00 250.15 369.75 248.75 C 369.50 247.35 368.65 245.33 367.88 243.75 C 367.10 242.17 366.52 241.12 365.12 239.25 C 363.73 237.38 361.62 234.67 359.50 232.50 C 357.38 230.33 354.50 227.83 352.38 226.25 Z" id="s-4-f-3"/>
<path d="M 346.75 223.00 C 345.25 222.27 344.81 222.17 343.38 221.88 C 341.94 221.58 339.52 221.25 338.12 221.25 C 336.73 221.25 335.81 221.54 335.00 221.88 C 334.19 222.21 333.75 222.62 333.25 223.25 C 332.75 223.88 332.42 223.29 332.00 225.62 C 331.58 227.96 331.35 234.25 330.75 237.25 C 330.15 240.25 330.04 240.90 328.38 243.62 C 326.71 246.35 323.69 250.00 320.75 253.62 C 317.81 257.25 312.38 263.15 310.75 265.38 C 309.12 267.60 310.35 265.88 311.00 267.00 C 311.65 268.12 312.75 270.12 314.62 272.12 C 316.50 274.12 320.65 277.81 322.25 279.00 C 323.85 280.19 323.71 279.29 324.25 279.25 C 324.79 279.21 322.31 280.79 325.50 278.75 C 328.69 276.71 337.35 270.75 343.38 267.00 C 349.40 263.25 357.75 258.31 361.62 256.25 C 365.50 254.19 365.33 255.31 366.62 254.62 C 367.92 253.94 368.88 253.17 369.38 252.12 C 369.88 251.08 369.88 249.77 369.62 248.38 C 369.38 246.98 368.67 245.33 367.88 243.75 C 367.08 242.17 366.60 241.08 364.88 238.88 C 363.15 236.67 359.58 232.60 357.50 230.50 C 355.42 228.40 354.17 227.50 352.38 226.25 C 350.58 225.00 348.25 223.73 346.75 223.00 Z" id="s-4-f-4"/>
<path d="M 344.38 222.12 C 342.56 221.65 339.69 221.29 338.12 221.25 C 336.56 221.21 335.81 221.54 335.00 221.88 C 334.19 222.21 333.75 222.62 333.25 223.25 C 332.75 223.88 332.42 223.29 332.00 225.62 C 331.58 227.96 331.29 234.38 330.75 237.25 C 330.21 240.12 329.46 241.33 328.75 242.88 C 328.04 244.42 328.81 243.56 326.50 246.50 C 324.19 249.44 316.77 257.98 314.88 260.50 C 312.98 263.02 314.31 260.29 315.12 261.62 C 315.94 262.96 318.25 266.60 319.75 268.50 C 321.25 270.40 322.73 271.77 324.12 273.00 C 325.52 274.23 327.15 275.42 328.12 275.88 C 329.10 276.33 327.46 277.23 330.00 275.75 C 332.54 274.27 337.98 270.31 343.38 267.00 C 348.77 263.69 358.50 257.94 362.38 255.88 C 366.25 253.81 365.46 255.25 366.62 254.62 C 367.79 254.00 368.85 253.10 369.38 252.12 C 369.90 251.15 369.92 249.96 369.75 248.75 C 369.58 247.54 369.15 246.46 368.38 244.88 C 367.60 243.29 366.10 240.75 365.12 239.25 C 364.15 237.75 363.77 237.33 362.50 235.88 C 361.23 234.42 358.96 231.94 357.50 230.50 C 356.04 229.06 355.17 228.31 353.75 227.25 C 352.33 226.19 350.56 224.98 349.00 224.12 C 347.44 223.27 346.19 222.60 344.38 222.12 Z" id="s-4-f-5"/>
<path d="M 344.38 222.12 C 342.56 221.65 339.69 221.29 338.12 221.25 C 336.56 221.21 335.81 221.54 335.00 221.88 C 334.19 222.21 333.75 222.62 333.25 223.25 C 332.75 223.88 332.42 223.29 332.00 225.62 C 331.58 227.96 331.29 234.38 330.75 237.25 C 330.21 240.12 329.46 241.33 328.75 242.88 C 328.04 244.42 328.19 244.33 326.50 246.50 C 324.81 248.67 319.92 253.83 318.62 255.88 C 317.33 257.92 318.38 257.42 318.75 258.75 C 319.12 260.08 319.88 262.06 320.88 263.88 C 321.88 265.69 323.23 267.77 324.75 269.62 C 326.27 271.48 328.96 274.10 330.00 275.00 C 331.04 275.90 328.77 276.33 331.00 275.00 C 333.23 273.67 338.15 270.19 343.38 267.00 C 348.60 263.81 358.50 257.94 362.38 255.88 C 366.25 253.81 365.46 255.25 366.62 254.62 C 367.79 254.00 368.85 253.10 369.38 252.12 C 369.90 251.15 369.92 249.96 369.75 248.75 C 369.58 247.54 369.15 246.46 368.38 244.88 C 367.60 243.29 366.10 240.75 365.12 239.25 C 364.15 237.75 363.77 237.33 362.50 235.88 C 361.23 234.42 358.96 231.94 357.50 230.50 C 356.04 229.06 355.17 228.31 353.75 227.25 C 352.33 226.19 350.56 224.98 349.00 224.12 C 347.44 223.27 346.19 222.60 344.38 222.12 Z" id="s-4-f-6"/>
<path d="M 339.50 221.25 C 338.10 221.23 337.25 221.06 336.00 222.00 C 334.75 222.94 332.77 225.62 332.00 226.88 C 331.23 228.12 331.56 227.88 331.38 229.50 C 331.19 231.12 331.15 234.79 330.88 236.62 C 330.60 238.46 330.25 239.19 329.75 240.50 C 329.25 241.81 328.69 243.17 327.88 244.50 C 327.06 245.83 325.50 247.48 324.88 248.50 C 324.25 249.52 324.12 249.31 324.12 250.62 C 324.12 251.94 324.42 254.33 324.88 256.38 C 325.33 258.42 326.06 260.88 326.88 262.88 C 327.69 264.88 328.75 266.73 329.75 268.38 C 330.75 270.02 332.25 271.98 332.88 272.75 C 333.50 273.52 333.19 273.00 333.50 273.00 C 333.81 273.00 330.60 275.25 334.75 272.75 C 338.90 270.25 353.77 260.81 358.38 258.00 C 362.98 255.19 361.00 256.44 362.38 255.88 C 363.75 255.31 365.52 255.17 366.62 254.62 C 367.73 254.08 368.48 253.29 369.00 252.62 C 369.52 251.96 369.65 251.33 369.75 250.62 C 369.85 249.92 370.12 249.83 369.62 248.38 C 369.12 246.92 367.94 243.96 366.75 241.88 C 365.56 239.79 364.04 237.77 362.50 235.88 C 360.96 233.98 358.96 231.94 357.50 230.50 C 356.04 229.06 355.17 228.31 353.75 227.25 C 352.33 226.19 350.56 224.98 349.00 224.12 C 347.44 223.27 345.96 222.60 344.38 222.12 C 342.79 221.65 340.90 221.27 339.50 221.25 Z" id="s-4-f-7"/>
<path d="M 341.00 221.50 C 339.71 221.29 339.52 221.58 339.00 221.75 C 338.48 221.92 338.73 221.65 337.88 222.50 C 337.02 223.35 334.83 225.67 333.88 226.88 C 332.92 228.08 332.79 227.54 332.12 229.75 C 331.46 231.96 330.75 237.44 329.88 240.12 C 329.00 242.81 327.54 244.40 326.88 245.88 C 326.21 247.35 326.02 247.88 325.88 249.00 C 325.73 250.12 325.67 250.52 326.00 252.62 C 326.33 254.73 327.19 259.29 327.88 261.62 C 328.56 263.96 329.17 264.88 330.12 266.62 C 331.08 268.38 332.92 271.12 333.62 272.12 C 334.33 273.12 330.25 274.98 334.38 272.62 C 338.50 270.27 353.71 260.79 358.38 258.00 C 363.04 255.21 361.00 256.44 362.38 255.88 C 363.75 255.31 365.52 255.17 366.62 254.62 C 367.73 254.08 368.48 253.29 369.00 252.62 C 369.52 251.96 369.62 251.27 369.75 250.62 C 369.88 249.98 370.06 249.90 369.75 248.75 C 369.44 247.60 368.69 245.40 367.88 243.75 C 367.06 242.10 366.27 240.75 364.88 238.88 C 363.48 237.00 361.35 234.44 359.50 232.50 C 357.65 230.56 355.25 228.50 353.75 227.25 C 352.25 226.00 351.67 225.71 350.50 225.00 C 349.33 224.29 348.33 223.58 346.75 223.00 C 345.17 222.42 342.29 221.71 341.00 221.50 Z" id="s-4-f-8"/>
<path d="M 343.38 221.88 C 342.31 221.67 341.06 221.69 340.38 221.75 C 339.69 221.81 339.90 221.73 339.25 222.25 C 338.60 222.77 337.58 223.62 336.50 224.88 C 335.42 226.12 333.62 228.31 332.75 229.75 C 331.88 231.19 331.75 231.71 331.25 233.50 C 330.75 235.29 330.48 238.25 329.75 240.50 C 329.02 242.75 327.35 244.71 326.88 247.00 C 326.40 249.29 326.69 252.15 326.88 254.25 C 327.06 256.35 327.31 257.48 328.00 259.62 C 328.69 261.77 329.92 265.04 331.00 267.12 C 332.08 269.21 333.69 271.31 334.50 272.12 C 335.31 272.94 331.67 274.48 335.88 272.00 C 340.08 269.52 355.06 260.04 359.75 257.25 C 364.44 254.46 362.85 255.69 364.00 255.25 C 365.15 254.81 365.79 255.06 366.62 254.62 C 367.46 254.19 368.48 253.29 369.00 252.62 C 369.52 251.96 369.62 251.27 369.75 250.62 C 369.88 249.98 370.06 249.90 369.75 248.75 C 369.44 247.60 368.69 245.40 367.88 243.75 C 367.06 242.10 366.27 240.75 364.88 238.88 C 363.48 237.00 361.35 234.44 359.50 232.50 C 357.65 230.56 355.25 228.50 353.75 227.25 C 352.25 226.00 351.67 225.71 350.50 225.00 C 349.33 224.29 347.94 223.52 346.75 223.00 C 345.56 222.48 344.44 222.08 343.38 221.88 Z" id="s-4-f-9"/>
</g>
<g id="s-5" clip-path="url(#c-s-5)">
<use href="#s-5-f-0"/>
<path d="M 252.75 284.75 C 252.44 285.17 252.19 285.52 252.62 286.25 C 253.06 286.98 254.56 288.67 255.38 289.12 C 256.19 289.58 257.15 288.79 257.50 289.00 C 257.85 289.21 257.23 289.85 257.50 290.38 C 257.77 290.90 258.21 291.50 259.12 292.12 C 260.04 292.75 261.42 293.12 263.00 294.12 C 264.58 295.12 266.81 296.65 268.62 298.12 C 270.44 299.60 272.33 301.44 273.88 303.00 C 275.42 304.56 272.52 300.29 277.88 307.50 C 283.23 314.71 296.73 333.81 306.00 346.25 C 315.27 358.69 325.75 372.33 333.50 382.12 C 341.25 391.92 347.75 399.48 352.50 405.00 C 357.25 410.52 359.33 412.52 362.00 415.25 C 364.67 417.98 366.48 419.62 368.50 421.38 C 370.52 423.12 372.69 424.83 374.12 425.75 C 375.56 426.67 373.98 426.73 377.12 426.88 C 380.27 427.02 387.42 427.00 393.00 426.62 C 398.58 426.25 406.73 425.12 410.62 424.62 C 414.52 424.12 415.25 423.92 416.38 423.62 C 417.50 423.33 416.79 423.81 417.38 422.88 C 417.96 421.94 419.12 420.15 419.88 418.00 C 420.62 415.85 421.54 412.79 421.88 410.00 C 422.21 407.21 422.00 402.90 421.88 401.25 C 421.75 399.60 425.94 402.75 421.12 400.12 C 416.31 397.50 400.15 389.40 393.00 385.50 C 385.85 381.60 383.19 379.83 378.25 376.75 C 373.31 373.67 368.12 370.27 363.38 367.00 C 358.62 363.73 353.79 360.21 349.75 357.12 C 345.71 354.04 342.94 351.77 339.12 348.50 C 335.31 345.23 333.19 343.60 326.88 337.50 C 320.56 331.40 307.08 317.79 301.25 311.88 C 295.42 305.96 293.54 303.88 291.88 302.00 C 290.21 300.12 292.25 301.81 291.25 300.62 C 290.25 299.44 287.17 296.08 285.88 294.88 C 284.58 293.67 284.71 294.35 283.50 293.38 C 282.29 292.40 280.23 290.23 278.62 289.00 C 277.02 287.77 275.48 286.83 273.88 286.00 C 272.27 285.17 271.54 284.42 269.00 284.00 C 266.46 283.58 261.04 283.54 258.62 283.50 C 256.21 283.46 255.48 283.54 254.50 283.75 C 253.52 283.96 253.06 284.33 252.75 284.75 Z" id="s-5-f-1"/>
<path d="M 252.75 284.75 C 252.44 285.17 252.19 285.52 252.62 286.25 C 253.06 286.98 254.56 288.67 255.38 289.12 C 256.19 289.58 257.15 288.79 257.50 289.00 C 257.85 289.21 257.23 289.85 257.50 290.38 C 257.77 290.90 258.21 291.50 259.12 292.12 C 260.04 292.75 261.42 293.12 263.00 294.12 C 264.58 295.12 266.81 296.65 268.62 298.12 C 270.44 299.60 272.33 301.44 273.88 303.00 C 275.42 304.56 272.52 300.29 277.88 307.50 C 283.23 314.71 297.60 334.92 306.00 346.25 C 314.40 357.58 320.92 366.19 328.25 375.50 C 335.58 384.81 344.90 396.04 350.00 402.12 C 355.10 408.21 356.12 409.08 358.88 412.00 C 361.62 414.92 364.25 417.54 366.50 419.62 C 368.75 421.71 370.96 423.52 372.38 424.50 C 373.79 425.48 373.73 425.60 375.00 425.50 C 376.27 425.40 378.60 424.46 380.00 423.88 C 381.40 423.29 382.06 422.83 383.38 422.00 C 384.69 421.17 386.35 420.10 387.88 418.88 C 389.40 417.65 391.00 416.27 392.50 414.62 C 394.00 412.98 395.67 410.92 396.88 409.00 C 398.08 407.08 398.92 405.42 399.75 403.12 C 400.58 400.83 401.50 397.25 401.88 395.25 C 402.25 393.25 402.08 392.02 402.00 391.12 C 401.92 390.23 402.88 390.81 401.38 389.88 C 399.88 388.94 397.35 388.00 393.00 385.50 C 388.65 383.00 381.19 378.67 375.25 374.88 C 369.31 371.08 362.98 366.79 357.38 362.75 C 351.77 358.71 346.71 354.83 341.62 350.62 C 336.54 346.42 333.60 343.96 326.88 337.50 C 320.15 331.04 307.08 317.79 301.25 311.88 C 295.42 305.96 293.54 303.88 291.88 302.00 C 290.21 300.12 292.25 301.81 291.25 300.62 C 290.25 299.44 287.17 296.08 285.88 294.88 C 284.58 293.67 284.71 294.35 283.50 293.38 C 282.29 292.40 280.23 290.23 278.62 289.00 C 277.02 287.77 275.48 286.83 273.88 286.00 C 272.27 285.17 271.54 284.42 269.00 284.00 C 266.46 283.58 261.04 283.54 258.62 283.50 C 256.21 283.46 255.48 283.54 254.50 283.75 C 253.52 283.96 253.06 284.33 252.75 284.75 Z" id="s-5-f-2"/>
<path d="M 252.75 284.75 C 252.44 285.17 252.19 285.52 252.62 286.25 C 253.06 286.98 254.56 288.67 255.38 289.12 C 256.19 289.58 257.15 288.79 257.50 289.00 C 257.85 289.21 257.23 289.85 257.50 290.38 C 257.77 290.90 258.21 291.50 259.12 292.12 C 260.04 292.75 261.42 293.12 263.00 294.12 C 264.58 295.12 266.81 296.65 268.62 298.12 C 270.44 299.60 272.33 301.44 273.88 303.00 C 275.42 304.56 270.48 297.58 277.88 307.50 C 285.27 317.42 307.85 348.67 318.25 362.50 C 328.65 376.33 334.29 383.15 340.25 390.50 C 346.21 397.85 351.48 403.90 354.00 406.62 C 356.52 409.35 354.27 407.17 355.38 406.88 C 356.48 406.58 358.73 405.88 360.62 404.88 C 362.52 403.88 364.88 402.31 366.75 400.88 C 368.62 399.44 370.19 398.15 371.88 396.25 C 373.56 394.35 375.69 391.38 376.88 389.50 C 378.06 387.62 378.35 386.65 379.00 385.00 C 379.65 383.35 380.46 380.75 380.75 379.62 C 381.04 378.50 381.67 379.04 380.75 378.25 C 379.83 377.46 379.15 377.46 375.25 374.88 C 371.35 372.29 363.40 367.15 357.38 362.75 C 351.35 358.35 344.21 352.71 339.12 348.50 C 334.04 344.29 333.19 343.60 326.88 337.50 C 320.56 331.40 307.08 317.79 301.25 311.88 C 295.42 305.96 293.54 303.88 291.88 302.00 C 290.21 300.12 292.27 301.83 291.25 300.62 C 290.23 299.42 287.04 295.96 285.75 294.75 C 284.46 293.54 284.69 294.33 283.50 293.38 C 282.31 292.42 280.23 290.23 278.62 289.00 C 277.02 287.77 275.48 286.83 273.88 286.00 C 272.27 285.17 271.54 284.42 269.00 284.00 C 266.46 283.58 261.04 283.54 258.62 283.50 C 256.21 283.46 255.48 283.54 254.50 283.75 C 253.52 283.96 253.06 284.33 252.75 284.75 Z" id="s-5-f-3"/>
<path d="M 252.75 284.75 C 252.44 285.17 252.19 285.52 252.62 286.25 C 253.06 286.98 254.56 288.67 255.38 289.12 C 256.19 289.58 257.15 288.79 257.50 289.00 C 257.85 289.21 257.23 289.85 257.50 290.38 C 257.77 290.90 258.21 291.50 259.12 292.12 C 260.04 292.75 261.42 293.12 263.00 294.12 C 264.58 295.12 266.81 296.65 268.62 298.12 C 270.44 299.60 272.33 301.44 273.88 303.00 C 275.42 304.56 272.52 300.29 277.88 307.50 C 283.23 314.71 297.58 334.90 306.00 346.25 C 314.42 357.60 324.38 370.65 328.38 375.62 C 332.38 380.60 328.94 376.42 330.00 376.12 C 331.06 375.83 333.04 374.96 334.75 373.88 C 336.46 372.79 338.56 371.15 340.25 369.62 C 341.94 368.10 343.44 366.58 344.88 364.75 C 346.31 362.92 348.21 360.02 348.88 358.62 C 349.54 357.23 350.50 358.06 348.88 356.38 C 347.25 354.69 342.79 351.65 339.12 348.50 C 335.46 345.35 333.19 343.60 326.88 337.50 C 320.56 331.40 307.08 317.79 301.25 311.88 C 295.42 305.96 293.54 303.88 291.88 302.00 C 290.21 300.12 292.27 301.83 291.25 300.62 C 290.23 299.42 287.04 295.96 285.75 294.75 C 284.46 293.54 284.69 294.33 283.50 293.38 C 282.31 292.42 280.23 290.23 278.62 289.00 C 277.02 287.77 275.40 286.81 273.88 286.00 C 272.35 285.19 272.04 284.54 269.50 284.12 C 266.96 283.71 261.12 283.56 258.62 283.50 C 256.12 283.44 255.48 283.54 254.50 283.75 C 253.52 283.96 253.06 284.33 252.75 284.75 Z" id="s-5-f-4"/>
<path d="M 252.75 284.75 C 252.44 285.17 252.19 285.52 252.62 286.25 C 253.06 286.98 254.56 288.67 255.38 289.12 C 256.19 289.58 257.15 288.79 257.50 289.00 C 257.85 289.21 257.23 289.85 257.50 290.38 C 257.77 290.90 258.21 291.50 259.12 292.12 C 260.04 292.75 261.42 293.12 263.00 294.12 C 264.58 295.12 266.81 296.65 268.62 298.12 C 270.44 299.60 272.33 301.44 273.88 303.00 C 275.42 304.56 271.15 298.50 277.88 307.50 C 284.60 316.50 307.90 348.75 314.25 357.00 C 320.60 365.25 315.31 357.21 316.00 357.00 C 316.69 356.79 316.94 356.75 318.38 355.75 C 319.81 354.75 322.90 352.58 324.62 351.00 C 326.35 349.42 327.67 347.69 328.75 346.25 C 329.83 344.81 330.73 343.19 331.12 342.38 C 331.52 341.56 336.10 346.46 331.12 341.38 C 326.15 336.29 307.79 318.44 301.25 311.88 C 294.71 305.31 293.54 303.88 291.88 302.00 C 290.21 300.12 292.25 301.81 291.25 300.62 C 290.25 299.44 287.17 296.08 285.88 294.88 C 284.58 293.67 284.52 294.21 283.50 293.38 C 282.48 292.54 281.35 291.10 279.75 289.88 C 278.15 288.65 275.67 286.98 273.88 286.00 C 272.08 285.02 271.54 284.42 269.00 284.00 C 266.46 283.58 261.04 283.54 258.62 283.50 C 256.21 283.46 255.48 283.54 254.50 283.75 C 253.52 283.96 253.06 284.33 252.75 284.75 Z" id="s-5-f-5"/>
<path d="M 252.75 284.75 C 252.44 285.17 252.19 285.52 252.62 286.25 C 253.06 286.98 254.56 288.67 255.38 289.12 C 256.19 289.58 257.15 288.79 257.50 289.00 C 257.85 289.21 257.23 289.85 257.50 290.38 C 257.77 290.90 258.21 291.50 259.12 292.12 C 260.04 292.75 261.42 293.12 263.00 294.12 C 264.58 295.12 266.81 296.65 268.62 298.12 C 270.44 299.60 272.33 301.44 273.88 303.00 C 275.42 304.56 273.12 301.17 277.88 307.50 C 282.62 313.83 298.00 335.44 302.38 341.00 C 306.75 346.56 302.98 341.42 304.12 340.88 C 305.27 340.33 307.65 338.92 309.25 337.75 C 310.85 336.58 312.42 335.21 313.75 333.88 C 315.08 332.54 316.60 330.65 317.25 329.75 C 317.90 328.85 321.31 332.54 317.62 328.50 C 313.94 324.46 300.42 311.10 295.12 305.50 C 289.83 299.90 287.81 296.90 285.88 294.88 C 283.94 292.85 284.71 294.35 283.50 293.38 C 282.29 292.40 280.23 290.23 278.62 289.00 C 277.02 287.77 275.48 286.83 273.88 286.00 C 272.27 285.17 271.54 284.42 269.00 284.00 C 266.46 283.58 261.04 283.54 258.62 283.50 C 256.21 283.46 255.48 283.54 254.50 283.75 C 253.52 283.96 253.06 284.33 252.75 284.75 Z" id="s-5-f-6"/>
<path d="M 252.75 284.75 C 252.44 285.17 252.19 285.52 252.62 286.25 C 253.06 286.98 254.56 288.67 255.38 289.12 C 256.19 289.58 257.15 288.79 257.50 289.00 C 257.85 289.21 257.23 289.85 257.50 290.38 C 257.77 290.90 257.52 291.02 259.12 292.12 C 260.73 293.23 264.67 295.19 267.12 297.00 C 269.58 298.81 271.94 301.06 273.88 303.00 C 275.81 304.94 276.04 305.02 278.75 308.62 C 281.46 312.23 288.00 321.92 290.12 324.62 C 292.25 327.33 290.73 325.21 291.50 324.88 C 292.27 324.54 293.44 323.69 294.75 322.62 C 296.06 321.56 298.06 319.92 299.38 318.50 C 300.69 317.08 302.06 314.98 302.62 314.12 C 303.19 313.27 304.54 315.40 302.75 313.38 C 300.96 311.35 293.79 304.12 291.88 302.00 C 289.96 299.88 292.27 301.83 291.25 300.62 C 290.23 299.42 287.04 295.96 285.75 294.75 C 284.46 293.54 284.69 294.33 283.50 293.38 C 282.31 292.42 280.23 290.23 278.62 289.00 C 277.02 287.77 275.40 286.81 273.88 286.00 C 272.35 285.19 270.73 284.50 269.50 284.12 C 268.27 283.75 268.73 283.83 266.50 283.75 C 264.27 283.67 258.12 283.62 256.12 283.62 C 254.12 283.62 255.06 283.56 254.50 283.75 C 253.94 283.94 253.06 284.33 252.75 284.75 Z" id="s-5-f-7"/>
<path d="M 252.75 284.75 C 252.44 285.17 252.19 285.52 252.62 286.25 C 253.06 286.98 254.56 288.67 255.38 289.12 C 256.19 289.58 257.15 288.79 257.50 289.00 C 257.85 289.21 257.23 289.85 257.50 290.38 C 257.77 290.90 257.52 291.02 259.12 292.12 C 260.73 293.23 264.67 295.19 267.12 297.00 C 269.58 298.81 272.08 301.25 273.88 303.00 C 275.67 304.75 275.81 304.85 277.88 307.50 C 279.94 310.15 284.69 316.98 286.25 318.88 C 287.81 320.77 286.10 319.71 287.25 318.88 C 288.40 318.04 291.44 315.56 293.12 313.88 C 294.81 312.19 296.75 309.88 297.38 308.75 C 298.00 307.62 298.81 309.46 296.88 307.12 C 294.94 304.79 287.98 297.04 285.75 294.75 C 283.52 292.46 284.69 294.33 283.50 293.38 C 282.31 292.42 280.23 290.23 278.62 289.00 C 277.02 287.77 275.40 286.81 273.88 286.00 C 272.35 285.19 270.73 284.50 269.50 284.12 C 268.27 283.75 268.73 283.83 266.50 283.75 C 264.27 283.67 258.12 283.62 256.12 283.62 C 254.12 283.62 255.06 283.56 254.50 283.75 C 253.94 283.94 253.06 284.33 252.75 284.75 Z" id="s-5-f-8"/>
<path d="M 252.75 284.75 C 252.44 285.17 252.19 285.52 252.62 286.25 C 253.06 286.98 254.56 288.67 255.38 289.12 C 256.19 289.58 257.15 288.79 257.50 289.00 C 257.85 289.21 257.23 289.85 257.50 290.38 C 257.77 290.90 257.52 291.02 259.12 292.12 C 260.73 293.23 264.67 295.19 267.12 297.00 C 269.58 298.81 271.94 301.06 273.88 303.00 C 275.81 304.94 277.02 306.38 278.75 308.62 C 280.48 310.88 283.17 315.15 284.25 316.50 C 285.33 317.85 284.83 316.85 285.25 316.75 C 285.67 316.65 285.67 316.77 286.75 315.88 C 287.83 314.98 290.35 312.83 291.75 311.38 C 293.15 309.92 294.52 308.00 295.12 307.12 C 295.73 306.25 295.42 306.46 295.38 306.12 C 295.33 305.79 296.48 307.02 294.88 305.12 C 293.27 303.23 287.65 296.71 285.75 294.75 C 283.85 292.79 284.69 294.33 283.50 293.38 C 282.31 292.42 280.23 290.23 278.62 289.00 C 277.02 287.77 275.40 286.81 273.88 286.00 C 272.35 285.19 270.73 284.50 269.50 284.12 C 268.27 283.75 268.73 283.83 266.50 283.75 C 264.27 283.67 258.12 283.62 256.12 283.62 C 254.12 283.62 255.06 283.56 254.50 283.75 C 253.94 283.94 253.06 284.33 252.75 284.75 Z" id="s-5-f-9"/>
</g>
</svg>