<?xml version="1.0" encoding="UTF-8"?>
<svg xmlns="http://www.w3.org/2000/svg" viewBox="0 0 500 500">
<defs>
<path d="M 82.25 151.38 C 81.40 151.38 80.27 151.73 79.62 152.00 C 78.98 152.27 78.96 152.23 78.38 153.00 C 77.79 153.77 76.92 153.73 76.12 156.62 C 75.33 159.52 74.52 166.10 73.62 170.38 C 72.73 174.65 72.06 177.29 70.75 182.25 C 69.44 187.21 67.38 194.79 65.75 200.12 C 64.12 205.46 61.96 210.92 61.00 214.25 C 60.04 217.58 60.17 218.60 60.00 220.12 C 59.83 221.65 59.83 221.71 60.00 223.38 C 60.17 225.04 60.65 228.38 61.00 230.12 C 61.35 231.88 61.60 232.56 62.12 233.88 C 62.65 235.19 62.98 236.08 64.12 238.00 C 65.27 239.92 67.71 243.75 69.00 245.38 C 70.29 247.00 70.98 247.19 71.88 247.75 C 72.77 248.31 73.44 248.62 74.38 248.75 C 75.31 248.88 76.40 248.83 77.50 248.50 C 78.60 248.17 80.10 247.29 81.00 246.75 C 81.90 246.21 81.92 246.31 82.88 245.25 C 83.83 244.19 85.60 242.02 86.75 240.38 C 87.90 238.73 88.75 237.25 89.75 235.38 C 90.75 233.50 91.92 231.08 92.75 229.12 C 93.58 227.17 94.10 225.77 94.75 223.62 C 95.40 221.48 96.12 218.79 96.62 216.25 C 97.12 213.71 97.58 212.29 97.75 208.38 C 97.92 204.46 97.98 197.81 97.62 192.75 C 97.27 187.69 96.27 182.04 95.62 178.00 C 94.98 173.96 94.58 171.52 93.75 168.50 C 92.92 165.48 91.65 162.23 90.62 159.88 C 89.60 157.52 88.60 155.69 87.62 154.38 C 86.65 153.06 85.65 152.50 84.75 152.00 C 83.85 151.50 83.10 151.38 82.25 151.38 Z" id="s-0-f-0"/>
<clipPath id="c-s-0"><use href="#s-0-f-0"/></clipPath>
<path d="M 233.12 115.75 C 231.00 113.15 229.21 111.52 226.88 109.75 C 224.54 107.98 220.98 106.08 219.12 105.12 C 217.27 104.17 217.02 104.17 215.75 104.00 C 214.48 103.83 212.52 103.90 211.50 104.12 C 210.48 104.35 210.17 104.88 209.62 105.38 C 209.08 105.88 208.67 106.40 208.25 107.12 C 207.83 107.85 207.38 108.31 207.12 109.75 C 206.88 111.19 206.96 114.17 206.75 115.75 C 206.54 117.33 206.71 117.44 205.88 119.25 C 205.04 121.06 205.60 122.12 201.75 126.62 C 197.90 131.12 190.06 138.96 182.75 146.25 C 175.44 153.54 162.67 165.46 157.88 170.38 C 153.08 175.29 154.65 174.17 154.00 175.75 C 153.35 177.33 153.40 179.15 154.00 179.88 C 154.60 180.60 156.44 180.27 157.62 180.12 C 158.81 179.98 157.38 181.00 161.12 179.00 C 164.88 177.00 172.10 172.46 180.12 168.12 C 188.15 163.79 200.04 157.52 209.25 153.00 C 218.46 148.48 230.60 143.06 235.38 141.00 C 240.15 138.94 236.90 140.92 237.88 140.62 C 238.85 140.33 240.42 139.79 241.25 139.25 C 242.08 138.71 242.56 138.12 242.88 137.38 C 243.19 136.62 243.15 135.54 243.12 134.75 C 243.10 133.96 243.33 134.19 242.75 132.62 C 242.17 131.06 241.23 128.19 239.62 125.38 C 238.02 122.56 235.25 118.35 233.12 115.75 Z" id="s-1-f-0"/>
<clipPath id="c-s-1"><use href="#s-1-f-0"/></clipPath>
<path d="M 142.62 50.12 C 138.23 48.96 133.33 48.29 130.62 48.00 C 127.92 47.71 127.62 48.06 126.38 48.38 C 125.12 48.69 124.02 49.25 123.12 49.88 C 122.23 50.50 121.46 51.38 121.00 52.12 C 120.54 52.88 120.35 53.42 120.38 54.38 C 120.40 55.33 120.10 55.71 121.12 57.88 C 122.15 60.04 125.06 64.46 126.50 67.38 C 127.94 70.29 128.54 71.69 129.75 75.38 C 130.96 79.06 132.75 85.54 133.75 89.50 C 134.75 93.46 135.12 95.44 135.75 99.12 C 136.38 102.81 137.00 107.48 137.50 111.62 C 138.00 115.77 138.44 119.81 138.75 124.00 C 139.06 128.19 139.21 130.15 139.38 136.75 C 139.54 143.35 140.02 152.02 139.75 163.62 C 139.48 175.23 138.56 193.92 137.75 206.38 C 136.94 218.83 135.85 228.69 134.88 238.38 C 133.90 248.06 132.92 257.56 131.88 264.50 C 130.83 271.44 129.96 274.50 128.62 280.00 C 127.29 285.50 125.52 292.06 123.88 297.50 C 122.23 302.94 120.79 307.33 118.75 312.62 C 116.71 317.92 113.50 325.12 111.62 329.25 C 109.75 333.38 109.19 334.33 107.50 337.38 C 105.81 340.42 103.67 344.17 101.50 347.50 C 99.33 350.83 97.15 354.08 94.50 357.38 C 91.85 360.67 90.23 362.77 85.62 367.25 C 81.02 371.73 72.85 379.06 66.88 384.25 C 60.90 389.44 52.75 395.83 49.75 398.38 C 46.75 400.92 49.02 399.02 48.88 399.50 C 48.73 399.98 48.69 400.81 48.88 401.25 C 49.06 401.69 48.35 401.92 50.00 402.12 C 51.65 402.33 56.31 402.56 58.75 402.50 C 61.19 402.44 61.42 402.73 64.62 401.75 C 67.83 400.77 74.06 398.29 78.00 396.62 C 81.94 394.96 85.44 393.23 88.25 391.75 C 91.06 390.27 92.40 389.42 94.88 387.75 C 97.35 386.08 100.67 383.73 103.12 381.75 C 105.58 379.77 106.67 378.94 109.62 375.88 C 112.58 372.81 118.17 366.62 120.88 363.38 C 123.58 360.12 124.06 359.17 125.88 356.38 C 127.69 353.58 129.79 350.19 131.75 346.62 C 133.71 343.06 135.96 338.60 137.62 335.00 C 139.29 331.40 139.92 330.21 141.75 325.00 C 143.58 319.79 146.98 309.31 148.62 303.75 C 150.27 298.19 150.90 294.98 151.62 291.62 C 152.35 288.27 152.60 285.33 153.00 283.62 C 153.40 281.92 153.52 283.79 154.00 281.38 C 154.48 278.96 155.56 271.98 155.88 269.12 C 156.19 266.27 155.52 269.73 155.88 264.25 C 156.23 258.77 156.77 250.85 158.00 236.25 C 159.23 221.65 162.44 188.12 163.25 176.62 C 164.06 165.12 163.04 168.88 162.88 167.25 C 162.71 165.62 162.40 167.54 162.25 166.88 C 162.10 166.21 161.88 168.35 162.00 163.25 C 162.12 158.15 162.50 144.42 163.00 136.25 C 163.50 128.08 164.00 121.62 165.00 114.25 C 166.00 106.88 168.00 96.92 169.00 92.00 C 170.00 87.08 170.04 87.67 171.00 84.75 C 171.96 81.83 174.10 76.96 174.75 74.50 C 175.40 72.04 174.92 71.10 174.88 70.00 C 174.83 68.90 175.02 68.90 174.50 67.88 C 173.98 66.85 173.08 65.21 171.75 63.88 C 170.42 62.54 168.96 61.35 166.50 59.88 C 164.04 58.40 160.98 56.62 157.00 55.00 C 153.02 53.38 147.02 51.29 142.62 50.12 Z" id="s-2-f-0"/>
<clipPath id="c-s-2"><use href="#s-2-f-0"/></clipPath>
<path d="M 146.62 268.38 C 146.52 269.17 145.79 270.27 146.75 272.38 C 147.71 274.48 146.88 275.15 152.38 281.00 C 157.88 286.85 171.65 299.38 179.75 307.50 C 187.85 315.62 196.98 325.71 201.00 329.75 C 205.02 333.79 202.60 331.23 203.88 331.75 C 205.15 332.27 207.21 332.71 208.62 332.88 C 210.04 333.04 211.21 333.17 212.38 332.75 C 213.54 332.33 214.73 331.44 215.62 330.38 C 216.52 329.31 217.27 327.92 217.75 326.38 C 218.23 324.83 218.54 323.98 218.50 321.12 C 218.46 318.27 217.96 312.17 217.50 309.25 C 217.04 306.33 216.54 305.33 215.75 303.62 C 214.96 301.92 214.17 300.73 212.75 299.00 C 211.33 297.27 209.04 294.90 207.25 293.25 C 205.46 291.60 204.19 290.67 202.00 289.12 C 199.81 287.58 197.00 285.69 194.12 284.00 C 191.25 282.31 188.50 280.81 184.75 279.00 C 181.00 277.19 176.00 274.96 171.62 273.12 C 167.25 271.29 161.31 268.94 158.50 268.00 C 155.69 267.06 156.60 267.56 154.75 267.50 C 152.90 267.44 148.73 267.48 147.38 267.62 C 146.02 267.77 146.73 267.58 146.62 268.38 Z" id="s-3-f-0"/>
<clipPath id="c-s-3"><use href="#s-3-f-0"/></clipPath>
<path d="M 461.88 145.00 C 461.71 143.90 461.56 143.04 460.75 141.88 C 459.94 140.71 459.04 139.65 457.00 138.00 C 454.96 136.35 451.44 133.83 448.50 132.00 C 445.56 130.17 442.15 128.33 439.38 127.00 C 436.60 125.67 434.48 124.81 431.88 124.00 C 429.27 123.19 426.06 122.50 423.75 122.12 C 421.44 121.75 420.44 121.77 418.00 121.75 C 415.56 121.73 412.73 121.35 409.12 122.00 C 405.52 122.65 407.92 123.00 396.38 125.62 C 384.83 128.25 366.69 132.35 339.88 137.75 C 313.06 143.15 253.58 154.33 235.50 158.00 C 217.42 161.67 232.29 159.15 231.38 159.75 C 230.46 160.35 230.23 161.15 230.00 161.62 C 229.77 162.10 229.81 162.02 230.00 162.62 C 230.19 163.23 230.54 164.31 231.12 165.25 C 231.71 166.19 232.27 167.12 233.50 168.25 C 234.73 169.38 236.92 170.94 238.50 172.00 C 240.08 173.06 240.90 173.69 243.00 174.62 C 245.10 175.56 248.77 176.98 251.12 177.62 C 253.48 178.27 254.94 178.40 257.12 178.50 C 259.31 178.60 261.81 178.56 264.25 178.25 C 266.69 177.94 267.92 177.67 271.75 176.62 C 275.58 175.58 280.83 173.60 287.25 172.00 C 293.67 170.40 297.38 169.12 310.25 167.00 C 323.12 164.88 351.04 160.92 364.50 159.25 C 377.96 157.58 377.96 157.71 391.00 157.00 C 404.04 156.29 432.31 155.54 442.75 155.00 C 453.19 154.46 450.96 154.29 453.62 153.75 C 456.29 153.21 457.58 152.33 458.75 151.75 C 459.92 151.17 460.12 150.79 460.62 150.25 C 461.12 149.71 461.54 149.38 461.75 148.50 C 461.96 147.62 462.04 146.10 461.88 145.00 Z" id="s-4-f-0"/>
<clipPath id="c-s-4"><use href="#s-4-f-0"/></clipPath>
<path d="M 329.50 154.88 C 327.85 154.90 326.77 155.44 326.00 155.75 C 325.23 156.06 325.25 156.00 324.88 156.75 C 324.50 157.50 323.83 159.56 323.75 160.25 C 323.67 160.94 324.21 160.40 324.38 160.88 C 324.54 161.35 324.42 162.31 324.75 163.12 C 325.08 163.94 325.83 164.58 326.38 165.75 C 326.92 166.92 327.27 168.69 328.00 170.12 C 328.73 171.56 329.96 172.79 330.75 174.38 C 331.54 175.96 332.06 177.31 332.75 179.62 C 333.44 181.94 334.35 185.42 334.88 188.25 C 335.40 191.08 335.40 186.04 335.88 196.62 C 336.35 207.21 337.12 224.92 337.75 251.75 C 338.38 278.58 339.44 337.33 339.62 357.62 C 339.81 377.92 339.19 369.88 338.88 373.50 C 338.56 377.12 338.23 377.58 337.75 379.38 C 337.27 381.17 336.71 382.81 336.00 384.25 C 335.29 385.69 334.54 387.15 333.50 388.00 C 332.46 388.85 330.85 389.08 329.75 389.38 C 328.65 389.67 329.12 389.85 326.88 389.75 C 324.62 389.65 320.29 389.52 316.25 388.75 C 312.21 387.98 308.73 386.56 302.62 385.12 C 296.52 383.69 283.94 380.92 279.62 380.12 C 275.31 379.33 277.38 380.15 276.75 380.38 C 276.12 380.60 276.02 380.98 275.88 381.50 C 275.73 382.02 275.69 382.67 275.88 383.50 C 276.06 384.33 276.04 385.17 277.00 386.50 C 277.96 387.83 278.06 388.71 281.62 391.50 C 285.19 394.29 292.62 399.04 298.38 403.25 C 304.12 407.46 311.31 413.00 316.12 416.75 C 320.94 420.50 322.71 421.94 327.25 425.75 C 331.79 429.56 340.17 437.27 343.38 439.62 C 346.58 441.98 345.33 440.04 346.50 439.88 C 347.67 439.71 349.00 439.50 350.38 438.62 C 351.75 437.75 353.25 436.46 354.75 434.62 C 356.25 432.79 358.06 429.81 359.38 427.62 C 360.69 425.44 361.56 423.75 362.62 421.50 C 363.69 419.25 364.73 416.98 365.75 414.12 C 366.77 411.27 367.94 407.52 368.75 404.38 C 369.56 401.23 370.15 398.23 370.62 395.25 C 371.10 392.27 371.44 390.94 371.62 386.50 C 371.81 382.06 372.04 375.48 371.75 368.62 C 371.46 361.77 370.50 354.73 369.88 345.38 C 369.25 336.02 368.50 324.90 368.00 312.50 C 367.50 300.10 367.02 286.15 366.88 271.00 C 366.73 255.85 366.94 234.25 367.12 221.62 C 367.31 209.00 367.73 200.15 368.00 195.25 C 368.27 190.35 368.50 194.25 368.75 192.25 C 369.00 190.25 369.48 185.44 369.50 183.25 C 369.52 181.06 369.17 180.29 368.88 179.12 C 368.58 177.96 368.56 177.44 367.75 176.25 C 366.94 175.06 365.46 173.38 364.00 172.00 C 362.54 170.62 361.35 169.54 359.00 168.00 C 356.65 166.46 351.85 163.98 349.88 162.75 C 347.90 161.52 348.46 161.35 347.12 160.62 C 345.79 159.90 342.88 158.88 341.88 158.38 C 340.88 157.88 341.54 157.77 341.12 157.62 C 340.71 157.48 339.75 157.62 339.38 157.50 C 339.00 157.38 339.46 157.19 338.88 156.88 C 338.29 156.56 337.44 155.96 335.88 155.62 C 334.31 155.29 331.15 154.85 329.50 154.88 Z" id="s-5-f-0"/>
<clipPath id="c-s-5"><use href="#s-5-f-0"/></clipPath>
</defs>
<g id="s-0" clip-path="url(#c-s-0)">
<use href="#s-0-f-0"/>
<path d="M 81.25 151.38 C 80.44 151.40 80.23 151.60 79.62 152.00 C 79.02 152.40 78.21 152.98 77.62 153.75 C 77.04 154.52 76.79 153.85 76.12 156.62 C 75.46 159.40 74.69 165.46 73.62 170.38 C 72.56 175.29 71.06 181.17 69.75 186.12 C 68.44 191.08 67.21 195.44 65.75 200.12 C 64.29 204.81 61.94 211.15 61.00 214.25 C 60.06 217.35 60.29 217.23 60.12 218.75 C 59.96 220.27 59.96 221.98 60.00 223.38 C 60.04 224.77 60.17 226.19 60.38 227.12 C 60.58 228.06 60.73 228.38 61.25 229.00 C 61.77 229.62 62.10 230.06 63.50 230.88 C 64.90 231.69 67.23 233.04 69.62 233.88 C 72.02 234.71 74.83 235.54 77.88 235.88 C 80.92 236.21 85.88 236.08 87.88 235.88 C 89.88 235.67 89.23 235.38 89.88 234.62 C 90.52 233.88 90.77 233.79 91.75 231.38 C 92.73 228.96 94.75 223.96 95.75 220.12 C 96.75 216.29 97.44 212.94 97.75 208.38 C 98.06 203.81 98.12 198.62 97.62 192.75 C 97.12 186.88 95.73 178.15 94.75 173.12 C 93.77 168.10 92.94 165.75 91.75 162.62 C 90.56 159.50 88.83 156.17 87.62 154.38 C 86.42 152.58 85.56 152.38 84.50 151.88 C 83.44 151.38 82.06 151.35 81.25 151.38 Z" id="s-0-f-1"/>
<path d="M 81.25 151.38 C 80.44 151.40 80.23 151.60 79.62 152.00 C 79.02 152.40 78.21 152.98 77.62 153.75 C 77.04 154.52 76.79 153.85 76.12 156.62 C 75.46 159.40 74.52 166.10 73.62 170.38 C 72.73 174.65 72.06 177.29 70.75 182.25 C 69.44 187.21 67.21 195.38 65.75 200.12 C 64.29 204.88 62.94 207.58 62.00 210.75 C 61.06 213.92 60.21 217.40 60.12 219.12 C 60.04 220.85 60.83 220.50 61.50 221.12 C 62.17 221.75 62.62 222.08 64.12 222.88 C 65.62 223.67 68.21 225.06 70.50 225.88 C 72.79 226.69 75.50 227.40 77.88 227.75 C 80.25 228.10 82.29 228.19 84.75 228.00 C 87.21 227.81 91.12 227.00 92.62 226.62 C 94.12 226.25 93.42 226.19 93.75 225.75 C 94.08 225.31 94.15 225.58 94.62 224.00 C 95.10 222.42 96.12 218.62 96.62 216.25 C 97.12 213.88 97.44 213.29 97.62 209.75 C 97.81 206.21 98.23 201.10 97.75 195.00 C 97.27 188.90 95.75 178.52 94.75 173.12 C 93.75 167.73 92.94 165.75 91.75 162.62 C 90.56 159.50 88.83 156.17 87.62 154.38 C 86.42 152.58 85.56 152.38 84.50 151.88 C 83.44 151.38 82.06 151.35 81.25 151.38 Z" id="s-0-f-2"/>
<path d="M 81.25 151.38 C 80.44 151.40 80.23 151.60 79.62 152.00 C 79.02 152.40 78.21 152.98 77.62 153.75 C 77.04 154.52 76.79 153.85 76.12 156.62 C 75.46 159.40 74.52 166.10 73.62 170.38 C 72.73 174.65 72.06 177.29 70.75 182.25 C 69.44 187.21 67.21 195.38 65.75 200.12 C 64.29 204.88 62.67 208.52 62.00 210.75 C 61.33 212.98 61.54 212.81 61.75 213.50 C 61.96 214.19 61.96 214.15 63.25 214.88 C 64.54 215.60 67.38 217.06 69.50 217.88 C 71.62 218.69 73.62 219.35 76.00 219.75 C 78.38 220.15 80.92 220.40 83.75 220.25 C 86.58 220.10 91.06 219.27 93.00 218.88 C 94.94 218.48 94.79 218.27 95.38 217.88 C 95.96 217.48 96.10 218.08 96.50 216.50 C 96.90 214.92 97.54 211.96 97.75 208.38 C 97.96 204.79 98.25 200.88 97.75 195.00 C 97.25 189.12 95.75 178.52 94.75 173.12 C 93.75 167.73 92.94 165.75 91.75 162.62 C 90.56 159.50 88.83 156.17 87.62 154.38 C 86.42 152.58 85.56 152.38 84.50 151.88 C 83.44 151.38 82.06 151.35 81.25 151.38 Z" id="s-0-f-3"/>
<path d="M 81.25 151.38 C 80.44 151.40 80.23 151.60 79.62 152.00 C 79.02 152.40 78.21 152.98 77.62 153.75 C 77.04 154.52 76.79 153.85 76.12 156.62 C 75.46 159.40 74.52 166.10 73.62 170.38 C 72.73 174.65 72.46 176.08 70.75 182.25 C 69.04 188.42 64.33 202.96 63.38 207.38 C 62.42 211.79 64.04 208.19 65.00 208.75 C 65.96 209.31 67.33 210.08 69.12 210.75 C 70.92 211.42 73.31 212.33 75.75 212.75 C 78.19 213.17 80.90 213.40 83.75 213.25 C 86.60 213.10 90.83 212.27 92.88 211.88 C 94.92 211.48 95.25 211.23 96.00 210.88 C 96.75 210.52 97.06 210.92 97.38 209.75 C 97.69 208.58 97.81 206.33 97.88 203.88 C 97.94 201.42 98.27 200.12 97.75 195.00 C 97.23 189.88 95.75 178.52 94.75 173.12 C 93.75 167.73 92.94 165.75 91.75 162.62 C 90.56 159.50 88.83 156.17 87.62 154.38 C 86.42 152.58 85.56 152.38 84.50 151.88 C 83.44 151.38 82.06 151.35 81.25 151.38 Z" id="s-0-f-4"/>
<path d="M 81.25 151.38 C 80.44 151.40 80.23 151.60 79.62 152.00 C 79.02 152.40 78.21 152.98 77.62 153.75 C 77.04 154.52 76.79 153.85 76.12 156.62 C 75.46 159.40 74.52 166.10 73.62 170.38 C 72.73 174.65 72.19 176.94 70.75 182.25 C 69.31 187.56 65.90 198.81 65.00 202.25 C 64.10 205.69 64.71 202.46 65.38 202.88 C 66.04 203.29 67.27 204.10 69.00 204.75 C 70.73 205.40 73.17 206.38 75.75 206.75 C 78.33 207.12 81.79 207.15 84.50 207.00 C 87.21 206.85 89.85 206.38 92.00 205.88 C 94.15 205.38 96.40 204.44 97.38 204.00 C 98.35 203.56 97.83 205.12 97.88 203.25 C 97.92 201.38 98.15 197.77 97.62 192.75 C 97.10 187.73 95.73 178.15 94.75 173.12 C 93.77 168.10 92.94 165.75 91.75 162.62 C 90.56 159.50 88.83 156.17 87.62 154.38 C 86.42 152.58 85.56 152.38 84.50 151.88 C 83.44 151.38 82.06 151.35 81.25 151.38 Z" id="s-0-f-5"/>
<path d="M 82.25 151.38 C 81.40 151.38 80.27 151.73 79.62 152.00 C 78.98 152.27 78.96 152.23 78.38 153.00 C 77.79 153.77 76.92 153.73 76.12 156.62 C 75.33 159.52 75.23 163.62 73.62 170.38 C 72.02 177.12 67.62 192.42 66.50 197.12 C 65.38 201.83 66.42 198.17 66.88 198.62 C 67.33 199.08 67.60 199.33 69.25 199.88 C 70.90 200.42 74.21 201.52 76.75 201.88 C 79.29 202.23 81.98 202.17 84.50 202.00 C 87.02 201.83 89.75 201.38 91.88 200.88 C 94.00 200.38 96.27 199.54 97.25 199.00 C 98.23 198.46 97.69 198.67 97.75 197.62 C 97.81 196.58 97.98 196.02 97.62 192.75 C 97.27 189.48 96.31 182.19 95.62 178.00 C 94.94 173.81 94.33 170.65 93.50 167.62 C 92.67 164.60 91.60 162.08 90.62 159.88 C 89.65 157.67 88.60 155.69 87.62 154.38 C 86.65 153.06 85.65 152.50 84.75 152.00 C 83.85 151.50 83.10 151.38 82.25 151.38 Z" id="s-0-f-6"/>
<path d="M 81.25 151.38 C 80.44 151.40 80.23 151.60 79.62 152.00 C 79.02 152.40 78.21 152.98 77.62 153.75 C 77.04 154.52 76.79 153.85 76.12 156.62 C 75.46 159.40 75.08 164.08 73.62 170.38 C 72.17 176.67 68.21 190.17 67.38 194.38 C 66.54 198.58 67.23 195.06 68.62 195.62 C 70.02 196.19 73.29 197.31 75.75 197.75 C 78.21 198.19 80.56 198.40 83.38 198.25 C 86.19 198.10 90.50 197.29 92.62 196.88 C 94.75 196.46 95.31 196.12 96.12 195.75 C 96.94 195.38 97.25 195.15 97.50 194.62 C 97.75 194.10 98.08 196.21 97.62 192.62 C 97.17 189.04 95.73 178.12 94.75 173.12 C 93.77 168.12 92.94 165.75 91.75 162.62 C 90.56 159.50 88.83 156.17 87.62 154.38 C 86.42 152.58 85.56 152.38 84.50 151.88 C 83.44 151.38 82.06 151.35 81.25 151.38 Z" id="s-0-f-7"/>
<path d="M 81.25 151.38 C 80.44 151.40 80.23 151.60 79.62 152.00 C 79.02 152.40 78.21 152.98 77.62 153.75 C 77.04 154.52 76.79 153.85 76.12 156.62 C 75.46 159.40 74.96 164.46 73.62 170.38 C 72.29 176.29 68.94 188.35 68.12 192.12 C 67.31 195.90 67.42 192.52 68.75 193.00 C 70.08 193.48 73.60 194.56 76.12 195.00 C 78.65 195.44 81.52 195.65 83.88 195.62 C 86.23 195.60 88.17 195.33 90.25 194.88 C 92.33 194.42 95.19 193.46 96.38 192.88 C 97.56 192.29 97.67 194.77 97.38 191.38 C 97.08 187.98 95.56 177.29 94.62 172.50 C 93.69 167.71 92.92 165.65 91.75 162.62 C 90.58 159.60 88.83 156.17 87.62 154.38 C 86.42 152.58 85.56 152.38 84.50 151.88 C 83.44 151.38 82.06 151.35 81.25 151.38 Z" id="s-0-f-8"/>
<path d="M 81.25 151.38 C 80.44 151.40 80.23 151.60 79.62 152.00 C 79.02 152.40 78.21 152.98 77.62 153.75 C 77.04 154.52 76.79 153.85 76.12 156.62 C 75.46 159.40 74.90 164.71 73.62 170.38 C 72.35 176.04 69.12 187.06 68.50 190.62 C 67.88 194.19 69.06 191.38 69.88 191.75 C 70.69 192.12 71.92 192.54 73.38 192.88 C 74.83 193.21 76.81 193.58 78.62 193.75 C 80.44 193.92 82.00 194.04 84.25 193.88 C 86.50 193.71 90.29 193.10 92.12 192.75 C 93.96 192.40 94.44 192.12 95.25 191.75 C 96.06 191.38 96.94 192.79 97.00 190.50 C 97.06 188.21 96.17 181.67 95.62 178.00 C 95.08 174.33 94.58 171.52 93.75 168.50 C 92.92 165.48 91.65 162.23 90.62 159.88 C 89.60 157.52 88.65 155.71 87.62 154.38 C 86.60 153.04 85.56 152.38 84.50 151.88 C 83.44 151.38 82.06 151.35 81.25 151.38 Z" id="s-0-f-9"/>
</g>
<g id="s-1" clip-path="url(#c-s-1)">
<use href="#s-1-f-0"/>
<path d="M 233.12 115.75 C 231.00 113.15 229.21 111.52 226.88 109.75 C 224.54 107.98 220.98 106.08 219.12 105.12 C 217.27 104.17 217.02 104.17 215.75 104.00 C 214.48 103.83 212.52 103.90 211.50 104.12 C 210.48 104.35 210.17 104.88 209.62 105.38 C 209.08 105.88 208.67 106.40 208.25 107.12 C 207.83 107.85 207.38 108.31 207.12 109.75 C 206.88 111.19 206.96 114.17 206.75 115.75 C 206.54 117.33 206.54 117.67 205.88 119.25 C 205.21 120.83 206.04 121.31 202.75 125.25 C 199.46 129.19 193.00 135.98 186.12 142.88 C 179.25 149.77 165.67 162.52 161.50 166.62 C 157.33 170.73 160.73 166.62 161.12 167.50 C 161.52 168.38 162.90 170.62 163.88 171.88 C 164.85 173.12 166.23 174.52 167.00 175.00 C 167.77 175.48 166.31 175.90 168.50 174.75 C 170.69 173.60 173.33 171.75 180.12 168.12 C 186.92 164.50 200.04 157.52 209.25 153.00 C 218.46 148.48 230.60 143.06 235.38 141.00 C 240.15 138.94 236.90 140.92 237.88 140.62 C 238.85 140.33 240.42 139.79 241.25 139.25 C 242.08 138.71 242.56 138.12 242.88 137.38 C 243.19 136.62 243.15 135.54 243.12 134.75 C 243.10 133.96 243.33 134.19 242.75 132.62 C 242.17 131.06 241.23 128.19 239.62 125.38 C 238.02 122.56 235.25 118.35 233.12 115.75 Z" id="s-1-f-1"/>
<path d="M 229.25 111.75 C 227.77 110.44 225.94 108.98 224.25 107.88 C 222.56 106.77 220.54 105.77 219.12 105.12 C 217.71 104.48 217.02 104.17 215.75 104.00 C 214.48 103.83 212.65 103.77 211.50 104.12 C 210.35 104.48 209.60 105.19 208.88 106.12 C 208.15 107.06 207.48 108.15 207.12 109.75 C 206.77 111.35 206.96 114.17 206.75 115.75 C 206.54 117.33 206.71 117.44 205.88 119.25 C 205.04 121.06 205.04 122.69 201.75 126.62 C 198.46 130.56 191.77 137.23 186.12 142.88 C 180.48 148.52 170.92 157.25 167.88 160.50 C 164.83 163.75 167.35 161.27 167.88 162.38 C 168.40 163.48 169.96 165.75 171.00 167.12 C 172.04 168.50 173.29 170.04 174.12 170.62 C 174.96 171.21 170.15 173.56 176.00 170.62 C 181.85 167.69 199.35 157.94 209.25 153.00 C 219.15 148.06 230.15 143.23 235.38 141.00 C 240.60 138.77 239.40 140.17 240.62 139.62 C 241.85 139.08 242.33 138.35 242.75 137.75 C 243.17 137.15 243.12 136.85 243.12 136.00 C 243.12 135.15 243.33 134.40 242.75 132.62 C 242.17 130.85 241.23 128.19 239.62 125.38 C 238.02 122.56 234.85 118.02 233.12 115.75 C 231.40 113.48 230.73 113.06 229.25 111.75 Z" id="s-1-f-2"/>
<path d="M 226.88 109.75 C 224.83 108.12 222.73 106.96 220.88 106.00 C 219.02 105.04 217.31 104.31 215.75 104.00 C 214.19 103.69 212.65 103.77 211.50 104.12 C 210.35 104.48 209.60 105.19 208.88 106.12 C 208.15 107.06 207.48 108.15 207.12 109.75 C 206.77 111.35 206.96 114.17 206.75 115.75 C 206.54 117.33 206.54 117.67 205.88 119.25 C 205.21 120.83 204.71 122.67 202.75 125.25 C 200.79 127.83 198.83 129.92 194.12 134.75 C 189.42 139.58 177.88 150.81 174.50 154.25 C 171.12 157.69 173.98 155.06 173.88 155.38 C 173.77 155.69 173.38 155.21 173.88 156.12 C 174.38 157.04 175.56 159.19 176.88 160.88 C 178.19 162.56 180.65 165.29 181.75 166.25 C 182.85 167.21 178.92 168.83 183.50 166.62 C 188.08 164.42 200.60 157.27 209.25 153.00 C 217.90 148.73 230.15 143.23 235.38 141.00 C 240.60 138.77 239.40 140.17 240.62 139.62 C 241.85 139.08 242.33 138.35 242.75 137.75 C 243.17 137.15 243.12 136.85 243.12 136.00 C 243.12 135.15 243.33 134.40 242.75 132.62 C 242.17 130.85 241.23 128.19 239.62 125.38 C 238.02 122.56 235.25 118.35 233.12 115.75 C 231.00 113.15 228.92 111.38 226.88 109.75 Z" id="s-1-f-3"/>
<path d="M 219.12 105.12 C 217.71 104.48 216.73 104.21 215.75 104.00 C 214.77 103.79 214.00 103.83 213.25 103.88 C 212.50 103.92 211.98 103.88 211.25 104.25 C 210.52 104.62 209.56 105.21 208.88 106.12 C 208.19 107.04 207.48 108.15 207.12 109.75 C 206.77 111.35 206.96 114.17 206.75 115.75 C 206.54 117.33 206.54 117.67 205.88 119.25 C 205.21 120.83 206.17 121.15 202.75 125.25 C 199.33 129.35 188.17 140.27 185.38 143.88 C 182.58 147.48 185.44 145.65 186.00 146.88 C 186.56 148.10 187.08 149.25 188.75 151.25 C 190.42 153.25 194.44 157.60 196.00 158.88 C 197.56 160.15 195.92 159.85 198.12 158.88 C 200.33 157.90 203.04 155.98 209.25 153.00 C 215.46 150.02 230.15 143.23 235.38 141.00 C 240.60 138.77 239.40 140.17 240.62 139.62 C 241.85 139.08 242.33 138.56 242.75 137.75 C 243.17 136.94 243.29 136.08 243.12 134.75 C 242.96 133.42 242.33 131.31 241.75 129.75 C 241.17 128.19 241.06 127.71 239.62 125.38 C 238.19 123.04 235.02 118.17 233.12 115.75 C 231.23 113.33 229.73 112.19 228.25 110.88 C 226.77 109.56 225.77 108.83 224.25 107.88 C 222.73 106.92 220.54 105.77 219.12 105.12 Z" id="s-1-f-4"/>
<path d="M 215.75 104.00 C 214.48 103.83 212.65 103.77 211.50 104.12 C 210.35 104.48 209.60 105.19 208.88 106.12 C 208.15 107.06 207.48 108.15 207.12 109.75 C 206.77 111.35 206.96 114.17 206.75 115.75 C 206.54 117.33 206.38 117.94 205.88 119.25 C 205.38 120.56 204.44 122.40 203.75 123.62 C 203.06 124.85 204.44 123.62 201.75 126.62 C 199.06 129.62 189.98 138.92 187.62 141.62 C 185.27 144.33 187.40 142.25 187.62 142.88 C 187.85 143.50 188.08 144.10 189.00 145.38 C 189.92 146.65 191.60 148.92 193.12 150.50 C 194.65 152.08 196.71 153.83 198.12 154.88 C 199.54 155.92 200.92 156.44 201.62 156.75 C 202.33 157.06 201.10 157.38 202.38 156.75 C 203.65 156.12 203.75 155.62 209.25 153.00 C 214.75 150.38 230.15 143.23 235.38 141.00 C 240.60 138.77 239.38 140.23 240.62 139.62 C 241.88 139.02 242.46 138.19 242.88 137.38 C 243.29 136.56 243.31 136.02 243.12 134.75 C 242.94 133.48 242.62 131.79 241.75 129.75 C 240.88 127.71 239.31 124.83 237.88 122.50 C 236.44 120.17 234.56 117.54 233.12 115.75 C 231.69 113.96 230.73 113.06 229.25 111.75 C 227.77 110.44 225.94 108.98 224.25 107.88 C 222.56 106.77 220.54 105.77 219.12 105.12 C 217.71 104.48 217.02 104.17 215.75 104.00 Z" id="s-1-f-5"/>
<path d="M 215.75 104.00 C 214.48 103.83 212.65 103.77 211.50 104.12 C 210.35 104.48 209.60 105.19 208.88 106.12 C 208.15 107.06 207.48 108.15 207.12 109.75 C 206.77 111.35 206.96 114.17 206.75 115.75 C 206.54 117.33 206.38 117.94 205.88 119.25 C 205.38 120.56 204.44 122.40 203.75 123.62 C 203.06 124.85 204.38 123.73 201.75 126.62 C 199.12 129.52 189.77 137.85 188.00 141.00 C 186.23 144.15 189.77 144.02 191.12 145.50 C 192.48 146.98 194.15 148.46 196.12 149.88 C 198.10 151.29 201.46 153.19 203.00 154.00 C 204.54 154.81 204.48 154.79 205.38 154.75 C 206.27 154.71 203.38 156.04 208.38 153.75 C 213.38 151.46 230.00 143.35 235.38 141.00 C 240.75 138.65 239.38 140.23 240.62 139.62 C 241.88 139.02 242.46 138.19 242.88 137.38 C 243.29 136.56 243.31 136.02 243.12 134.75 C 242.94 133.48 242.62 131.79 241.75 129.75 C 240.88 127.71 239.31 124.83 237.88 122.50 C 236.44 120.17 234.56 117.54 233.12 115.75 C 231.69 113.96 230.73 113.06 229.25 111.75 C 227.77 110.44 225.94 108.98 224.25 107.88 C 222.56 106.77 220.54 105.77 219.12 105.12 C 217.71 104.48 217.02 104.17 215.75 104.00 Z" id="s-1-f-6"/>
<path d="M 213.25 103.88 C 212.40 103.98 211.35 104.25 210.62 104.62 C 209.90 105.00 209.46 105.27 208.88 106.12 C 208.29 106.98 207.48 108.15 207.12 109.75 C 206.77 111.35 206.96 114.17 206.75 115.75 C 206.54 117.33 206.54 117.67 205.88 119.25 C 205.21 120.83 205.33 122.04 202.75 125.25 C 200.17 128.46 192.54 136.06 190.38 138.50 C 188.21 140.94 188.85 138.81 189.75 139.88 C 190.65 140.94 193.73 143.54 195.75 144.88 C 197.77 146.21 199.56 147.06 201.88 147.88 C 204.19 148.69 207.42 149.38 209.62 149.75 C 211.83 150.12 211.19 151.44 215.12 150.12 C 219.06 148.81 229.06 143.60 233.25 141.88 C 237.44 140.15 238.65 140.50 240.25 139.75 C 241.85 139.00 242.40 138.21 242.88 137.38 C 243.35 136.54 243.31 136.02 243.12 134.75 C 242.94 133.48 242.33 131.31 241.75 129.75 C 241.17 128.19 240.62 127.12 239.62 125.38 C 238.62 123.62 237.29 121.33 235.75 119.25 C 234.21 117.17 231.85 114.46 230.38 112.88 C 228.90 111.29 228.46 110.90 226.88 109.75 C 225.29 108.60 222.73 106.96 220.88 106.00 C 219.02 105.04 217.02 104.35 215.75 104.00 C 214.48 103.65 214.10 103.77 213.25 103.88 Z" id="s-1-f-7"/>
<path d="M 213.25 103.88 C 212.40 103.98 211.35 104.25 210.62 104.62 C 209.90 105.00 209.46 105.27 208.88 106.12 C 208.29 106.98 207.48 108.15 207.12 109.75 C 206.77 111.35 206.96 114.17 206.75 115.75 C 206.54 117.33 206.54 117.67 205.88 119.25 C 205.21 120.83 205.27 122.10 202.75 125.25 C 200.23 128.40 192.79 135.77 190.75 138.12 C 188.71 140.48 190.04 138.71 190.50 139.38 C 190.96 140.04 191.94 141.04 193.50 142.12 C 195.06 143.21 197.81 144.92 199.88 145.88 C 201.94 146.83 203.73 147.38 205.88 147.88 C 208.02 148.38 211.04 148.71 212.75 148.88 C 214.46 149.04 214.75 149.08 216.12 148.88 C 217.50 148.67 218.62 148.58 221.00 147.62 C 223.38 146.67 227.75 144.27 230.38 143.12 C 233.00 141.98 235.08 141.58 236.75 140.75 C 238.42 139.92 239.40 138.96 240.38 138.12 C 241.35 137.29 242.21 136.54 242.62 135.75 C 243.04 134.96 243.02 134.38 242.88 133.38 C 242.73 132.38 242.58 131.56 241.75 129.75 C 240.92 127.94 239.31 124.83 237.88 122.50 C 236.44 120.17 234.56 117.54 233.12 115.75 C 231.69 113.96 230.73 113.06 229.25 111.75 C 227.77 110.44 225.94 108.98 224.25 107.88 C 222.56 106.77 220.54 105.77 219.12 105.12 C 217.71 104.48 216.73 104.21 215.75 104.00 C 214.77 103.79 214.10 103.77 213.25 103.88 Z" id="s-1-f-8"/>
<path d="M 213.25 103.88 C 212.40 103.98 211.35 104.25 210.62 104.62 C 209.90 105.00 209.46 105.27 208.88 106.12 C 208.29 106.98 207.48 108.15 207.12 109.75 C 206.77 111.35 206.96 114.17 206.75 115.75 C 206.54 117.33 206.54 117.67 205.88 119.25 C 205.21 120.83 205.29 122.10 202.75 125.25 C 200.21 128.40 192.65 135.81 190.62 138.12 C 188.60 140.44 189.88 138.33 190.62 139.12 C 191.38 139.92 193.29 141.75 195.12 142.88 C 196.96 144.00 199.00 145.04 201.62 145.88 C 204.25 146.71 208.15 147.54 210.88 147.88 C 213.60 148.21 216.04 148.06 218.00 147.88 C 219.96 147.69 219.69 147.92 222.62 146.75 C 225.56 145.58 232.94 142.23 235.62 140.88 C 238.31 139.52 237.62 139.62 238.75 138.62 C 239.88 137.62 241.71 135.88 242.38 134.88 C 243.04 133.88 243.04 133.88 242.75 132.62 C 242.46 131.38 241.44 129.06 240.62 127.38 C 239.81 125.69 239.12 124.44 237.88 122.50 C 236.62 120.56 234.56 117.54 233.12 115.75 C 231.69 113.96 230.73 113.06 229.25 111.75 C 227.77 110.44 225.94 108.98 224.25 107.88 C 222.56 106.77 220.54 105.77 219.12 105.12 C 217.71 104.48 216.73 104.21 215.75 104.00 C 214.77 103.79 214.10 103.77 213.25 103.88 Z" id="s-1-f-9"/>
</g>
<g id="s-2" clip-path="url(#c-s-2)">
<use href="#s-2-f-0"/>
<path d="M 131.75 48.12 C 129.46 47.77 130.04 47.88 128.88 48.00 C 127.71 48.12 126.06 48.19 124.75 48.88 C 123.44 49.56 121.73 51.21 121.00 52.12 C 120.27 53.04 120.35 53.42 120.38 54.38 C 120.40 55.33 119.90 55.21 121.12 57.88 C 122.35 60.54 125.81 65.81 127.75 70.38 C 129.69 74.94 131.25 79.35 132.75 85.25 C 134.25 91.15 135.73 98.92 136.75 105.75 C 137.77 112.58 138.38 118.92 138.88 126.25 C 139.38 133.58 139.60 143.52 139.75 149.75 C 139.90 155.98 139.90 157.17 139.75 163.62 C 139.60 170.08 139.52 177.71 138.88 188.50 C 138.23 199.29 137.06 215.54 135.88 228.38 C 134.69 241.21 132.96 256.90 131.75 265.50 C 130.54 274.10 129.94 274.67 128.62 280.00 C 127.31 285.33 125.52 292.06 123.88 297.50 C 122.23 302.94 120.48 307.98 118.75 312.62 C 117.02 317.27 115.19 321.60 113.50 325.38 C 111.81 329.15 110.62 331.56 108.62 335.25 C 106.62 338.94 103.85 343.81 101.50 347.50 C 99.15 351.19 97.06 354.17 94.50 357.38 C 91.94 360.58 89.23 363.60 86.12 366.75 C 83.02 369.90 77.79 374.38 75.88 376.25 C 73.96 378.12 74.81 377.52 74.62 378.00 C 74.44 378.48 74.54 378.62 74.75 379.12 C 74.96 379.62 75.02 379.88 75.88 381.00 C 76.73 382.12 78.29 384.25 79.88 385.88 C 81.46 387.50 84.17 389.77 85.38 390.75 C 86.58 391.73 86.60 391.60 87.12 391.75 C 87.65 391.90 86.83 392.54 88.50 391.62 C 90.17 390.71 94.69 387.90 97.12 386.25 C 99.56 384.60 101.04 383.48 103.12 381.75 C 105.21 380.02 106.67 378.94 109.62 375.88 C 112.58 372.81 117.52 367.65 120.88 363.38 C 124.23 359.10 126.96 354.98 129.75 350.25 C 132.54 345.52 135.12 340.60 137.62 335.00 C 140.12 329.40 142.58 323.10 144.75 316.62 C 146.92 310.15 149.25 301.62 150.62 296.12 C 152.00 290.62 152.44 286.08 153.00 283.62 C 153.56 281.17 153.52 283.79 154.00 281.38 C 154.48 278.96 155.56 271.98 155.88 269.12 C 156.19 266.27 155.52 269.73 155.88 264.25 C 156.23 258.77 156.77 250.85 158.00 236.25 C 159.23 221.65 162.44 188.12 163.25 176.62 C 164.06 165.12 163.04 168.88 162.88 167.25 C 162.71 165.62 162.40 167.54 162.25 166.88 C 162.10 166.21 161.90 168.00 162.00 163.25 C 162.10 158.50 162.54 144.96 162.88 138.38 C 163.21 131.79 163.31 129.90 164.00 123.75 C 164.69 117.60 165.83 108.00 167.00 101.50 C 168.17 95.00 169.71 89.25 171.00 84.75 C 172.29 80.25 174.12 77.21 174.75 74.50 C 175.38 71.79 175.04 70.00 174.75 68.50 C 174.46 67.00 173.67 66.42 173.00 65.50 C 172.33 64.58 171.83 63.94 170.75 63.00 C 169.67 62.06 168.40 61.04 166.50 59.88 C 164.60 58.71 163.35 57.62 159.38 56.00 C 155.40 54.38 147.23 51.44 142.62 50.12 C 138.02 48.81 134.04 48.48 131.75 48.12 Z" id="s-2-f-1"/>
<path d="M 130.62 48.00 C 128.58 47.88 127.62 48.06 126.38 48.38 C 125.12 48.69 124.02 49.25 123.12 49.88 C 122.23 50.50 121.46 51.19 121.00 52.12 C 120.54 53.06 120.35 54.54 120.38 55.50 C 120.40 56.46 120.04 55.75 121.12 57.88 C 122.21 60.00 125.44 65.33 126.88 68.25 C 128.31 71.17 128.77 72.54 129.75 75.38 C 130.73 78.21 131.75 81.29 132.75 85.25 C 133.75 89.21 134.75 92.67 135.75 99.12 C 136.75 105.58 138.08 115.56 138.75 124.00 C 139.42 132.44 139.60 142.29 139.75 149.75 C 139.90 157.21 139.79 161.92 139.62 168.75 C 139.46 175.58 139.38 180.81 138.75 190.75 C 138.12 200.69 137.04 215.92 135.88 228.38 C 134.71 240.83 132.96 256.90 131.75 265.50 C 130.54 274.10 129.94 274.67 128.62 280.00 C 127.31 285.33 125.52 292.06 123.88 297.50 C 122.23 302.94 120.48 307.98 118.75 312.62 C 117.02 317.27 115.38 321.25 113.50 325.38 C 111.62 329.50 109.62 333.52 107.50 337.38 C 105.38 341.23 101.85 346.48 100.75 348.50 C 99.65 350.52 100.38 348.85 100.88 349.50 C 101.38 350.15 102.23 351.15 103.75 352.38 C 105.27 353.60 107.83 355.62 110.00 356.88 C 112.17 358.12 115.00 359.21 116.75 359.88 C 118.50 360.54 119.52 360.73 120.50 360.88 C 121.48 361.02 121.73 361.50 122.62 360.75 C 123.52 360.00 124.35 358.73 125.88 356.38 C 127.40 354.02 129.79 350.19 131.75 346.62 C 133.71 343.06 135.83 338.94 137.62 335.00 C 139.42 331.06 140.98 327.10 142.50 323.00 C 144.02 318.90 145.40 314.85 146.75 310.38 C 148.10 305.90 149.58 300.58 150.62 296.12 C 151.67 291.67 152.44 286.08 153.00 283.62 C 153.56 281.17 153.52 283.79 154.00 281.38 C 154.48 278.96 155.56 271.98 155.88 269.12 C 156.19 266.27 155.52 269.73 155.88 264.25 C 156.23 258.77 156.77 250.85 158.00 236.25 C 159.23 221.65 162.44 188.12 163.25 176.62 C 164.06 165.12 163.04 168.88 162.88 167.25 C 162.71 165.62 162.40 167.54 162.25 166.88 C 162.10 166.21 161.90 168.00 162.00 163.25 C 162.10 158.50 162.54 144.96 162.88 138.38 C 163.21 131.79 163.46 129.06 164.00 123.75 C 164.54 118.44 165.29 111.79 166.12 106.50 C 166.96 101.21 167.54 97.52 169.00 92.00 C 170.46 86.48 173.92 77.29 174.88 73.38 C 175.83 69.46 175.06 69.81 174.75 68.50 C 174.44 67.19 173.67 66.42 173.00 65.50 C 172.33 64.58 172.08 64.08 170.75 63.00 C 169.42 61.92 167.29 60.33 165.00 59.00 C 162.71 57.67 160.15 56.31 157.00 55.00 C 153.85 53.69 149.19 52.10 146.12 51.12 C 143.06 50.15 141.21 49.65 138.62 49.12 C 136.04 48.60 132.67 48.12 130.62 48.00 Z" id="s-2-f-2"/>
<path d="M 128.88 48.00 C 126.56 47.96 125.71 48.56 124.75 48.88 C 123.79 49.19 123.75 49.33 123.12 49.88 C 122.50 50.42 121.46 51.19 121.00 52.12 C 120.54 53.06 120.35 54.54 120.38 55.50 C 120.40 56.46 120.10 55.90 121.12 57.88 C 122.15 59.85 125.06 64.46 126.50 67.38 C 127.94 70.29 128.71 72.40 129.75 75.38 C 130.79 78.35 131.75 81.29 132.75 85.25 C 133.75 89.21 134.75 92.67 135.75 99.12 C 136.75 105.58 138.10 116.52 138.75 124.00 C 139.40 131.48 139.46 137.40 139.62 144.00 C 139.79 150.60 140.04 153.52 139.75 163.62 C 139.46 173.73 138.88 190.48 137.88 204.62 C 136.88 218.77 134.77 238.35 133.75 248.50 C 132.73 258.65 132.60 260.25 131.75 265.50 C 130.90 270.75 129.67 275.65 128.62 280.00 C 127.58 284.35 125.92 289.50 125.50 291.62 C 125.08 293.75 124.73 292.02 126.12 292.75 C 127.52 293.48 131.12 295.25 133.88 296.00 C 136.62 296.75 140.06 297.08 142.62 297.25 C 145.19 297.42 147.90 297.31 149.25 297.00 C 150.60 296.69 150.12 297.60 150.75 295.38 C 151.38 293.15 152.46 285.96 153.00 283.62 C 153.54 281.29 153.52 283.79 154.00 281.38 C 154.48 278.96 155.56 271.98 155.88 269.12 C 156.19 266.27 155.52 269.73 155.88 264.25 C 156.23 258.77 156.77 250.85 158.00 236.25 C 159.23 221.65 162.44 188.12 163.25 176.62 C 164.06 165.12 163.04 168.88 162.88 167.25 C 162.71 165.62 162.40 167.54 162.25 166.88 C 162.10 166.21 161.88 168.35 162.00 163.25 C 162.12 158.15 162.50 144.42 163.00 136.25 C 163.50 128.08 164.00 121.62 165.00 114.25 C 166.00 106.88 168.00 96.92 169.00 92.00 C 170.00 87.08 170.04 87.67 171.00 84.75 C 171.96 81.83 174.10 76.96 174.75 74.50 C 175.40 72.04 174.92 71.10 174.88 70.00 C 174.83 68.90 175.02 68.90 174.50 67.88 C 173.98 66.85 173.08 65.21 171.75 63.88 C 170.42 62.54 168.56 61.19 166.50 59.88 C 164.44 58.56 163.35 57.62 159.38 56.00 C 155.40 54.38 146.08 51.27 142.62 50.12 C 139.17 48.98 140.92 49.48 138.62 49.12 C 136.33 48.77 131.19 48.04 128.88 48.00 Z" id="s-2-f-3"/>
<path d="M 128.88 48.00 C 126.56 47.96 125.71 48.56 124.75 48.88 C 123.79 49.19 123.75 49.33 123.12 49.88 C 122.50 50.42 121.46 51.19 121.00 52.12 C 120.54 53.06 120.35 54.54 120.38 55.50 C 120.40 56.46 120.04 55.75 121.12 57.88 C 122.21 60.00 125.44 65.33 126.88 68.25 C 128.31 71.17 128.77 72.54 129.75 75.38 C 130.73 78.21 131.75 81.29 132.75 85.25 C 133.75 89.21 134.75 92.67 135.75 99.12 C 136.75 105.58 138.08 115.56 138.75 124.00 C 139.42 132.44 139.62 141.71 139.75 149.75 C 139.88 157.79 139.83 162.81 139.50 172.25 C 139.17 181.69 138.58 194.88 137.75 206.38 C 136.92 217.88 134.81 235.19 134.50 241.25 C 134.19 247.31 134.17 242.15 135.88 242.75 C 137.58 243.35 141.73 244.54 144.75 244.88 C 147.77 245.21 151.96 244.92 154.00 244.75 C 156.04 244.58 156.38 244.27 157.00 243.88 C 157.62 243.48 156.71 253.58 157.75 242.38 C 158.79 231.17 162.40 189.15 163.25 176.62 C 164.10 164.10 163.04 168.88 162.88 167.25 C 162.71 165.62 162.40 167.54 162.25 166.88 C 162.10 166.21 161.88 168.35 162.00 163.25 C 162.12 158.15 162.50 144.42 163.00 136.25 C 163.50 128.08 164.00 121.62 165.00 114.25 C 166.00 106.88 168.00 96.92 169.00 92.00 C 170.00 87.08 170.04 87.67 171.00 84.75 C 171.96 81.83 174.12 77.21 174.75 74.50 C 175.38 71.79 175.04 70.00 174.75 68.50 C 174.46 67.00 173.67 66.42 173.00 65.50 C 172.33 64.58 171.83 63.94 170.75 63.00 C 169.67 62.06 168.40 61.04 166.50 59.88 C 164.60 58.71 163.35 57.62 159.38 56.00 C 155.40 54.38 146.08 51.27 142.62 50.12 C 139.17 48.98 140.92 49.48 138.62 49.12 C 136.33 48.77 131.19 48.04 128.88 48.00 Z" id="s-2-f-4"/>
<path d="M 126.38 48.38 C 125.12 48.69 124.04 49.19 123.12 49.88 C 122.21 50.56 121.33 51.56 120.88 52.50 C 120.42 53.44 120.33 54.60 120.38 55.50 C 120.42 56.40 120.10 55.90 121.12 57.88 C 122.15 59.85 125.06 64.46 126.50 67.38 C 127.94 70.29 128.71 72.40 129.75 75.38 C 130.79 78.35 131.75 81.29 132.75 85.25 C 133.75 89.21 134.75 92.67 135.75 99.12 C 136.75 105.58 138.15 117.73 138.75 124.00 C 139.35 130.27 139.21 130.15 139.38 136.75 C 139.54 143.35 139.77 156.92 139.75 163.62 C 139.73 170.33 139.25 174.62 139.25 177.00 C 139.25 179.38 139.42 177.58 139.75 177.88 C 140.08 178.17 139.90 178.42 141.25 178.75 C 142.60 179.08 145.65 179.67 147.88 179.88 C 150.10 180.08 152.52 180.12 154.62 180.00 C 156.73 179.88 159.19 179.44 160.50 179.12 C 161.81 178.81 162.04 178.54 162.50 178.12 C 162.96 177.71 163.19 178.44 163.25 176.62 C 163.31 174.81 163.04 168.88 162.88 167.25 C 162.71 165.62 162.40 167.54 162.25 166.88 C 162.10 166.21 161.88 168.35 162.00 163.25 C 162.12 158.15 162.50 144.42 163.00 136.25 C 163.50 128.08 164.00 121.62 165.00 114.25 C 166.00 106.88 168.00 96.92 169.00 92.00 C 170.00 87.08 170.04 87.67 171.00 84.75 C 171.96 81.83 174.12 77.21 174.75 74.50 C 175.38 71.79 175.25 70.27 174.75 68.50 C 174.25 66.73 173.38 65.46 171.75 63.88 C 170.12 62.29 167.46 60.48 165.00 59.00 C 162.54 57.52 160.15 56.31 157.00 55.00 C 153.85 53.69 149.19 52.10 146.12 51.12 C 143.06 50.15 141.21 49.65 138.62 49.12 C 136.04 48.60 132.67 48.12 130.62 48.00 C 128.58 47.88 127.62 48.06 126.38 48.38 Z" id="s-2-f-5"/>
<path d="M 124.75 48.88 C 123.15 49.56 121.73 51.02 121.00 52.12 C 120.27 53.23 120.35 54.54 120.38 55.50 C 120.40 56.46 120.10 55.90 121.12 57.88 C 122.15 59.85 125.06 64.46 126.50 67.38 C 127.94 70.29 128.54 71.69 129.75 75.38 C 130.96 79.06 132.75 85.54 133.75 89.50 C 134.75 93.46 135.12 95.44 135.75 99.12 C 136.38 102.81 137.00 107.48 137.50 111.62 C 138.00 115.77 138.44 119.75 138.75 124.00 C 139.06 128.25 138.88 134.65 139.38 137.12 C 139.88 139.60 140.04 138.40 141.75 138.88 C 143.46 139.35 147.44 139.83 149.62 140.00 C 151.81 140.17 152.88 140.10 154.88 139.88 C 156.88 139.65 160.29 139.00 161.62 138.62 C 162.96 138.25 162.31 141.69 162.88 137.62 C 163.44 133.56 164.31 120.27 165.00 114.25 C 165.69 108.23 166.00 106.42 167.00 101.50 C 168.00 96.58 169.71 89.25 171.00 84.75 C 172.29 80.25 174.17 77.31 174.75 74.50 C 175.33 71.69 175.00 69.65 174.50 67.88 C 174.00 66.10 173.33 65.35 171.75 63.88 C 170.17 62.40 167.46 60.48 165.00 59.00 C 162.54 57.52 160.15 56.31 157.00 55.00 C 153.85 53.69 149.19 52.10 146.12 51.12 C 143.06 50.15 141.21 49.65 138.62 49.12 C 136.04 48.60 132.94 48.04 130.62 48.00 C 128.31 47.96 126.35 48.19 124.75 48.88 Z" id="s-2-f-6"/>
<path d="M 123.12 49.88 C 122.23 50.50 121.46 51.19 121.00 52.12 C 120.54 53.06 120.35 54.54 120.38 55.50 C 120.40 56.46 120.10 55.90 121.12 57.88 C 122.15 59.85 125.06 64.46 126.50 67.38 C 127.94 70.29 128.54 71.69 129.75 75.38 C 130.96 79.06 132.75 85.54 133.75 89.50 C 134.75 93.46 135.35 96.83 135.75 99.12 C 136.15 101.42 135.81 102.38 136.12 103.25 C 136.44 104.12 136.92 104.10 137.62 104.38 C 138.33 104.65 138.21 104.81 140.38 104.88 C 142.54 104.94 147.75 105.10 150.62 104.75 C 153.50 104.40 155.73 103.42 157.62 102.75 C 159.52 102.08 160.40 101.71 162.00 100.75 C 163.60 99.79 166.17 97.92 167.25 97.00 C 168.33 96.08 167.88 97.29 168.50 95.25 C 169.12 93.21 169.96 88.21 171.00 84.75 C 172.04 81.29 174.12 77.21 174.75 74.50 C 175.38 71.79 175.25 70.27 174.75 68.50 C 174.25 66.73 173.12 65.31 171.75 63.88 C 170.38 62.44 168.56 61.19 166.50 59.88 C 164.44 58.56 162.77 57.46 159.38 56.00 C 155.98 54.54 149.58 52.27 146.12 51.12 C 142.67 49.98 141.21 49.65 138.62 49.12 C 136.04 48.60 132.67 48.12 130.62 48.00 C 128.58 47.88 127.62 48.06 126.38 48.38 C 125.12 48.69 124.02 49.25 123.12 49.88 Z" id="s-2-f-7"/>
<path d="M 126.38 48.38 C 125.12 48.69 124.04 49.19 123.12 49.88 C 122.21 50.56 121.33 51.56 120.88 52.50 C 120.42 53.44 120.33 54.60 120.38 55.50 C 120.42 56.40 120.10 55.90 121.12 57.88 C 122.15 59.85 125.06 64.46 126.50 67.38 C 127.94 70.29 128.71 72.40 129.75 75.38 C 130.79 78.35 131.90 82.04 132.75 85.25 C 133.60 88.46 133.98 93.02 134.88 94.62 C 135.77 96.23 136.10 95.31 138.12 94.88 C 140.15 94.44 144.60 93.00 147.00 92.00 C 149.40 91.00 150.44 90.44 152.50 88.88 C 154.56 87.31 157.67 84.40 159.38 82.62 C 161.08 80.85 161.52 80.33 162.75 78.25 C 163.98 76.17 165.88 72.29 166.75 70.12 C 167.62 67.96 167.77 66.69 168.00 65.25 C 168.23 63.81 168.38 62.40 168.12 61.50 C 167.88 60.60 167.96 60.79 166.50 59.88 C 165.04 58.96 162.77 57.46 159.38 56.00 C 155.98 54.54 149.58 52.27 146.12 51.12 C 142.67 49.98 141.21 49.65 138.62 49.12 C 136.04 48.60 132.67 48.12 130.62 48.00 C 128.58 47.88 127.62 48.06 126.38 48.38 Z" id="s-2-f-8"/>
<path d="M 126.38 48.38 C 125.12 48.69 124.04 49.19 123.12 49.88 C 122.21 50.56 121.33 51.56 120.88 52.50 C 120.42 53.44 120.33 54.60 120.38 55.50 C 120.42 56.40 120.10 55.90 121.12 57.88 C 122.15 59.85 125.06 64.46 126.50 67.38 C 127.94 70.29 128.52 71.52 129.75 75.38 C 130.98 79.23 133.06 87.90 133.88 90.50 C 134.69 93.10 134.25 90.94 134.62 91.00 C 135.00 91.06 134.94 91.25 136.12 90.88 C 137.31 90.50 139.98 89.58 141.75 88.75 C 143.52 87.92 144.65 87.50 146.75 85.88 C 148.85 84.25 152.52 80.92 154.38 79.00 C 156.23 77.08 156.77 76.19 157.88 74.38 C 158.98 72.56 160.17 70.29 161.00 68.12 C 161.83 65.96 162.54 62.96 162.88 61.38 C 163.21 59.79 163.25 59.35 163.00 58.62 C 162.75 57.90 162.38 57.60 161.38 57.00 C 160.38 56.40 160.12 56.15 157.00 55.00 C 153.88 53.85 147.02 51.29 142.62 50.12 C 138.23 48.96 133.33 48.29 130.62 48.00 C 127.92 47.71 127.62 48.06 126.38 48.38 Z" id="s-2-f-9"/>
</g>
<g id="s-3" clip-path="url(#c-s-3)">
<use href="#s-3-f-0"/>
<path d="M 146.62 268.38 C 146.52 269.17 145.79 270.27 146.75 272.38 C 147.71 274.48 146.88 275.15 152.38 281.00 C 157.88 286.85 172.62 300.38 179.75 307.50 C 186.88 314.62 191.33 319.85 195.12 323.75 C 198.92 327.65 200.83 329.69 202.50 330.88 C 204.17 332.06 203.42 331.71 205.12 330.88 C 206.83 330.04 210.67 327.54 212.75 325.88 C 214.83 324.21 216.69 321.98 217.62 320.88 C 218.56 319.77 218.29 320.46 218.38 319.25 C 218.46 318.04 218.27 315.29 218.12 313.62 C 217.98 311.96 217.90 310.92 217.50 309.25 C 217.10 307.58 216.54 305.33 215.75 303.62 C 214.96 301.92 213.81 300.40 212.75 299.00 C 211.69 297.60 211.02 296.79 209.38 295.25 C 207.73 293.71 205.42 291.62 202.88 289.75 C 200.33 287.88 197.15 285.79 194.12 284.00 C 191.10 282.21 190.60 281.65 184.75 279.00 C 178.90 276.35 164.00 270.04 159.00 268.12 C 154.00 266.21 156.69 267.58 154.75 267.50 C 152.81 267.42 148.73 267.48 147.38 267.62 C 146.02 267.77 146.73 267.58 146.62 268.38 Z" id="s-3-f-1"/>
<path d="M 146.62 268.38 C 146.52 269.17 145.79 270.27 146.75 272.38 C 147.71 274.48 146.88 275.15 152.38 281.00 C 157.88 286.85 172.25 300.02 179.75 307.50 C 187.25 314.98 194.21 322.79 197.38 325.88 C 200.54 328.96 198.12 326.17 198.75 326.00 C 199.38 325.83 199.96 325.56 201.12 324.88 C 202.29 324.19 203.94 323.40 205.75 321.88 C 207.56 320.35 210.44 317.52 212.00 315.75 C 213.56 313.98 214.35 312.54 215.12 311.25 C 215.90 309.96 216.35 308.79 216.62 308.00 C 216.90 307.21 216.90 307.23 216.75 306.50 C 216.60 305.77 216.42 304.88 215.75 303.62 C 215.08 302.38 214.17 300.73 212.75 299.00 C 211.33 297.27 209.85 295.44 207.25 293.25 C 204.65 291.06 200.88 288.25 197.12 285.88 C 193.38 283.50 191.10 281.96 184.75 279.00 C 178.40 276.04 164.00 270.04 159.00 268.12 C 154.00 266.21 156.69 267.58 154.75 267.50 C 152.81 267.42 148.73 267.48 147.38 267.62 C 146.02 267.77 146.73 267.58 146.62 268.38 Z" id="s-3-f-2"/>
<path d="M 146.62 268.38 C 146.52 269.17 145.79 270.27 146.75 272.38 C 147.71 274.48 146.88 275.15 152.38 281.00 C 157.88 286.85 173.08 300.88 179.75 307.50 C 186.42 314.12 189.94 318.52 192.38 320.75 C 194.81 322.98 193.04 321.54 194.38 320.88 C 195.71 320.21 198.31 318.50 200.38 316.75 C 202.44 315.00 205.04 312.48 206.75 310.38 C 208.46 308.27 209.71 305.90 210.62 304.12 C 211.54 302.35 212.00 300.67 212.25 299.75 C 212.50 298.83 212.75 299.52 212.12 298.62 C 211.50 297.73 210.40 296.10 208.50 294.38 C 206.60 292.65 203.15 289.98 200.75 288.25 C 198.35 286.52 196.79 285.54 194.12 284.00 C 191.46 282.46 190.60 281.65 184.75 279.00 C 178.90 276.35 164.00 270.04 159.00 268.12 C 154.00 266.21 156.69 267.58 154.75 267.50 C 152.81 267.42 148.73 267.48 147.38 267.62 C 146.02 267.77 146.73 267.58 146.62 268.38 Z" id="s-3-f-3"/>
<path d="M 146.62 268.38 C 146.52 269.17 145.79 270.27 146.75 272.38 C 147.71 274.48 146.88 275.15 152.38 281.00 C 157.88 286.85 173.83 301.67 179.75 307.50 C 185.67 313.33 186.17 314.60 187.88 316.00 C 189.58 317.40 188.79 316.46 190.00 315.88 C 191.21 315.29 193.27 314.06 195.12 312.50 C 196.98 310.94 199.50 308.44 201.12 306.50 C 202.75 304.56 203.85 302.81 204.88 300.88 C 205.90 298.94 206.88 296.12 207.25 294.88 C 207.62 293.62 207.85 294.23 207.12 293.38 C 206.40 292.52 205.04 291.31 202.88 289.75 C 200.71 288.19 197.83 286.10 194.12 284.00 C 190.42 281.90 186.48 279.77 180.62 277.12 C 174.77 274.48 163.31 269.73 159.00 268.12 C 154.69 266.52 156.69 267.58 154.75 267.50 C 152.81 267.42 148.73 267.48 147.38 267.62 C 146.02 267.77 146.73 267.58 146.62 268.38 Z" id="s-3-f-4"/>
<path d="M 146.62 268.38 C 146.52 269.17 145.79 270.27 146.75 272.38 C 147.71 274.48 146.15 274.38 152.38 281.00 C 158.60 287.62 178.50 306.98 184.12 312.12 C 189.75 317.27 184.90 312.56 186.12 311.88 C 187.35 311.19 189.75 309.54 191.50 308.00 C 193.25 306.46 195.08 304.60 196.62 302.62 C 198.17 300.65 199.71 298.08 200.75 296.12 C 201.79 294.17 202.69 292.06 202.88 290.88 C 203.06 289.69 203.33 290.15 201.88 289.00 C 200.42 287.85 196.98 285.67 194.12 284.00 C 191.27 282.33 190.60 281.65 184.75 279.00 C 178.90 276.35 164.00 270.04 159.00 268.12 C 154.00 266.21 156.69 267.58 154.75 267.50 C 152.81 267.42 148.73 267.48 147.38 267.62 C 146.02 267.77 146.73 267.58 146.62 268.38 Z" id="s-3-f-5"/>
<path d="M 146.62 268.38 C 146.52 269.17 145.79 270.27 146.75 272.38 C 147.71 274.48 146.65 274.92 152.38 281.00 C 158.10 287.08 176.19 304.23 181.12 308.88 C 186.06 313.52 180.90 309.54 182.00 308.88 C 183.10 308.21 185.94 306.42 187.75 304.88 C 189.56 303.33 191.35 301.56 192.88 299.62 C 194.40 297.69 195.88 295.15 196.88 293.25 C 197.88 291.35 198.56 289.27 198.88 288.25 C 199.19 287.23 199.54 287.83 198.75 287.12 C 197.96 286.42 196.46 285.35 194.12 284.00 C 191.79 282.65 190.60 281.65 184.75 279.00 C 178.90 276.35 164.00 270.04 159.00 268.12 C 154.00 266.21 156.69 267.58 154.75 267.50 C 152.81 267.42 148.73 267.48 147.38 267.62 C 146.02 267.77 146.73 267.58 146.62 268.38 Z" id="s-3-f-6"/>
<path d="M 146.62 268.38 C 146.52 269.17 145.79 270.27 146.75 272.38 C 147.71 274.48 150.10 278.21 152.38 281.00 C 154.65 283.79 156.00 284.94 160.38 289.12 C 164.75 293.31 175.31 303.33 178.62 306.12 C 181.94 308.92 179.48 306.23 180.25 305.88 C 181.02 305.52 181.75 305.27 183.25 304.00 C 184.75 302.73 187.48 300.38 189.25 298.25 C 191.02 296.12 192.77 293.40 193.88 291.25 C 194.98 289.10 195.83 286.58 195.88 285.38 C 195.92 284.17 195.98 285.06 194.12 284.00 C 192.27 282.94 190.60 281.65 184.75 279.00 C 178.90 276.35 164.00 270.04 159.00 268.12 C 154.00 266.21 156.69 267.58 154.75 267.50 C 152.81 267.42 148.73 267.48 147.38 267.62 C 146.02 267.77 146.73 267.58 146.62 268.38 Z" id="s-3-f-7"/>
<path d="M 146.62 268.38 C 146.52 269.17 145.79 270.27 146.75 272.38 C 147.71 274.48 147.35 275.60 152.38 281.00 C 157.40 286.40 172.46 300.94 176.88 304.75 C 181.29 308.56 177.90 304.50 178.88 303.88 C 179.85 303.25 181.29 302.31 182.75 301.00 C 184.21 299.69 186.10 297.85 187.62 296.00 C 189.15 294.15 190.83 291.83 191.88 289.88 C 192.92 287.92 195.06 286.06 193.88 284.25 C 192.69 282.44 190.56 281.69 184.75 279.00 C 178.94 276.31 164.00 270.04 159.00 268.12 C 154.00 266.21 156.69 267.58 154.75 267.50 C 152.81 267.42 148.73 267.48 147.38 267.62 C 146.02 267.77 146.73 267.58 146.62 268.38 Z" id="s-3-f-8"/>
<path d="M 146.62 268.38 C 146.52 269.17 145.79 270.27 146.75 272.38 C 147.71 274.48 147.54 275.79 152.38 281.00 C 157.21 286.21 171.69 299.88 175.75 303.62 C 179.81 307.38 175.98 303.92 176.75 303.50 C 177.52 303.08 178.81 302.42 180.38 301.12 C 181.94 299.83 184.52 297.58 186.12 295.75 C 187.73 293.92 189.04 291.73 190.00 290.12 C 190.96 288.52 191.48 287.27 191.88 286.12 C 192.27 284.98 194.25 284.75 192.38 283.25 C 190.50 281.75 186.19 279.65 180.62 277.12 C 175.06 274.60 163.31 269.73 159.00 268.12 C 154.69 266.52 156.69 267.58 154.75 267.50 C 152.81 267.42 148.73 267.48 147.38 267.62 C 146.02 267.77 146.73 267.58 146.62 268.38 Z" id="s-3-f-9"/>
</g>
<g id="s-4" clip-path="url(#c-s-4)">
<use href="#s-4-f-0"/>
<path d="M 435.88 136.88 C 435.56 133.92 434.40 130.31 433.88 128.50 C 433.35 126.69 433.27 126.79 432.75 126.00 C 432.23 125.21 432.71 124.44 430.75 123.75 C 428.79 123.06 424.81 122.15 421.00 121.88 C 417.19 121.60 411.98 121.50 407.88 122.12 C 403.77 122.75 407.71 123.02 396.38 125.62 C 385.04 128.23 366.69 132.35 339.88 137.75 C 313.06 143.15 253.58 154.33 235.50 158.00 C 217.42 161.67 232.29 159.15 231.38 159.75 C 230.46 160.35 230.23 161.15 230.00 161.62 C 229.77 162.10 229.81 162.02 230.00 162.62 C 230.19 163.23 230.54 164.31 231.12 165.25 C 231.71 166.19 232.27 167.12 233.50 168.25 C 234.73 169.38 236.92 170.94 238.50 172.00 C 240.08 173.06 240.90 173.69 243.00 174.62 C 245.10 175.56 248.77 176.98 251.12 177.62 C 253.48 178.27 254.94 178.40 257.12 178.50 C 259.31 178.60 261.81 178.56 264.25 178.25 C 266.69 177.94 267.92 177.67 271.75 176.62 C 275.58 175.58 280.83 173.60 287.25 172.00 C 293.67 170.40 297.38 169.12 310.25 167.00 C 323.12 164.88 351.04 160.92 364.50 159.25 C 377.96 157.58 379.73 157.67 391.00 157.00 C 402.27 156.33 425.02 155.75 432.12 155.25 C 439.23 154.75 433.02 155.50 433.62 154.00 C 434.23 152.50 435.38 149.10 435.75 146.25 C 436.12 143.40 436.19 139.83 435.88 136.88 Z" id="s-4-f-1"/>
<path d="M 412.00 139.25 C 411.62 136.94 410.71 133.71 410.00 131.62 C 409.29 129.54 408.50 128.10 407.75 126.75 C 407.00 125.40 406.15 124.08 405.50 123.50 C 404.85 122.92 405.40 122.90 403.88 123.25 C 402.35 123.60 407.04 123.21 396.38 125.62 C 385.71 128.04 366.69 132.35 339.88 137.75 C 313.06 143.15 253.58 154.33 235.50 158.00 C 217.42 161.67 232.29 159.15 231.38 159.75 C 230.46 160.35 230.23 161.15 230.00 161.62 C 229.77 162.10 229.81 162.02 230.00 162.62 C 230.19 163.23 230.54 164.31 231.12 165.25 C 231.71 166.19 232.27 167.12 233.50 168.25 C 234.73 169.38 236.92 170.94 238.50 172.00 C 240.08 173.06 240.90 173.69 243.00 174.62 C 245.10 175.56 248.77 176.98 251.12 177.62 C 253.48 178.27 254.94 178.40 257.12 178.50 C 259.31 178.60 261.81 178.56 264.25 178.25 C 266.69 177.94 268.56 177.50 271.75 176.62 C 274.94 175.75 279.42 174.10 283.38 173.00 C 287.33 171.90 289.04 171.33 295.50 170.00 C 301.96 168.67 310.62 166.79 322.12 165.00 C 333.62 163.21 353.02 160.58 364.50 159.25 C 375.98 157.92 383.46 157.54 391.00 157.00 C 398.54 156.46 406.44 156.35 409.75 156.00 C 413.06 155.65 410.52 155.75 410.88 154.88 C 411.23 154.00 411.65 152.31 411.88 150.75 C 412.10 149.19 412.23 147.42 412.25 145.50 C 412.27 143.58 412.38 141.56 412.00 139.25 Z" id="s-4-f-2"/>
<path d="M 386.62 146.12 C 386.62 143.65 386.33 143.31 385.88 141.38 C 385.42 139.44 384.60 136.42 383.88 134.50 C 383.15 132.58 382.02 130.77 381.50 129.88 C 380.98 128.98 381.06 129.27 380.75 129.12 C 380.44 128.98 382.46 128.40 379.62 129.00 C 376.79 129.60 373.69 130.62 363.75 132.75 C 353.81 134.88 341.38 137.54 320.00 141.75 C 298.62 145.96 250.27 155.00 235.50 158.00 C 220.73 161.00 232.29 159.15 231.38 159.75 C 230.46 160.35 230.23 161.15 230.00 161.62 C 229.77 162.10 229.81 162.02 230.00 162.62 C 230.19 163.23 230.54 164.31 231.12 165.25 C 231.71 166.19 232.27 167.12 233.50 168.25 C 234.73 169.38 236.92 170.94 238.50 172.00 C 240.08 173.06 240.90 173.69 243.00 174.62 C 245.10 175.56 248.77 176.98 251.12 177.62 C 253.48 178.27 254.94 178.40 257.12 178.50 C 259.31 178.60 261.81 178.56 264.25 178.25 C 266.69 177.94 268.56 177.50 271.75 176.62 C 274.94 175.75 279.42 174.10 283.38 173.00 C 287.33 171.90 290.29 171.12 295.50 170.00 C 300.71 168.88 303.12 168.04 314.62 166.25 C 326.12 164.46 352.83 160.69 364.50 159.25 C 376.17 157.81 381.06 158.12 384.62 157.62 C 388.19 157.12 385.54 158.17 385.88 156.25 C 386.21 154.33 386.62 148.60 386.62 146.12 Z" id="s-4-f-3"/>
<path d="M 347.88 150.12 C 347.71 147.73 347.38 147.23 346.88 145.50 C 346.38 143.77 345.48 141.10 344.88 139.75 C 344.27 138.40 343.81 137.81 343.25 137.38 C 342.69 136.94 350.40 135.40 341.50 137.12 C 332.60 138.85 307.54 144.27 289.88 147.75 C 272.21 151.23 245.25 156.00 235.50 158.00 C 225.75 160.00 232.29 159.15 231.38 159.75 C 230.46 160.35 230.23 161.15 230.00 161.62 C 229.77 162.10 229.81 162.02 230.00 162.62 C 230.19 163.23 230.54 164.31 231.12 165.25 C 231.71 166.19 232.27 167.12 233.50 168.25 C 234.73 169.38 236.92 170.94 238.50 172.00 C 240.08 173.06 240.90 173.69 243.00 174.62 C 245.10 175.56 248.77 176.98 251.12 177.62 C 253.48 178.27 254.94 178.40 257.12 178.50 C 259.31 178.60 261.81 178.56 264.25 178.25 C 266.69 177.94 267.92 177.67 271.75 176.62 C 275.58 175.58 280.83 173.60 287.25 172.00 C 293.67 170.40 304.29 168.19 310.25 167.00 C 316.21 165.81 316.96 165.73 323.00 164.88 C 329.04 164.02 342.35 162.71 346.50 161.88 C 350.65 161.04 347.65 161.83 347.88 159.88 C 348.10 157.92 348.04 152.52 347.88 150.12 Z" id="s-4-f-4"/>
<path d="M 324.88 154.38 C 324.38 151.31 322.71 146.88 322.00 144.88 C 321.29 142.88 321.21 142.88 320.62 142.38 C 320.04 141.88 323.62 140.98 318.50 141.88 C 313.38 142.77 300.31 145.73 289.88 147.75 C 279.44 149.77 261.88 152.83 255.88 154.00 C 249.88 155.17 257.27 154.08 253.88 154.75 C 250.48 155.42 239.25 157.17 235.50 158.00 C 231.75 158.83 232.29 159.15 231.38 159.75 C 230.46 160.35 230.23 161.15 230.00 161.62 C 229.77 162.10 229.81 162.02 230.00 162.62 C 230.19 163.23 230.54 164.31 231.12 165.25 C 231.71 166.19 232.27 167.12 233.50 168.25 C 234.73 169.38 236.92 170.94 238.50 172.00 C 240.08 173.06 240.90 173.69 243.00 174.62 C 245.10 175.56 248.77 176.98 251.12 177.62 C 253.48 178.27 254.94 178.40 257.12 178.50 C 259.31 178.60 261.81 178.56 264.25 178.25 C 266.69 177.94 268.56 177.50 271.75 176.62 C 274.94 175.75 279.42 174.10 283.38 173.00 C 287.33 171.90 288.79 171.35 295.50 170.00 C 302.21 168.65 318.77 165.81 323.62 164.88 C 328.48 163.94 324.40 164.65 324.62 164.38 C 324.85 164.10 324.96 164.92 325.00 163.25 C 325.04 161.58 325.38 157.44 324.88 154.38 Z" id="s-4-f-5"/>
<path d="M 305.88 166.75 C 305.90 165.40 305.92 161.29 305.75 159.38 C 305.58 157.46 305.35 156.94 304.88 155.25 C 304.40 153.56 303.50 150.73 302.88 149.25 C 302.25 147.77 301.56 146.96 301.12 146.38 C 300.69 145.79 311.19 143.81 300.25 145.75 C 289.31 147.69 246.81 155.79 235.50 158.00 C 224.19 160.21 233.29 158.40 232.38 159.00 C 231.46 159.60 230.38 160.92 230.00 161.62 C 229.62 162.33 229.73 162.35 230.12 163.25 C 230.52 164.15 230.92 165.50 232.38 167.00 C 233.83 168.50 236.33 170.65 238.88 172.25 C 241.42 173.85 244.58 175.58 247.62 176.62 C 250.67 177.67 253.85 178.31 257.12 178.50 C 260.40 178.69 262.23 178.83 267.25 177.75 C 272.27 176.67 281.08 173.56 287.25 172.00 C 293.42 170.44 301.19 169.12 304.25 168.38 C 307.31 167.62 305.35 167.77 305.62 167.50 C 305.90 167.23 305.85 168.10 305.88 166.75 Z" id="s-4-f-6"/>
<path d="M 284.88 166.88 C 284.98 165.02 284.81 163.00 284.62 161.12 C 284.44 159.25 284.19 157.35 283.75 155.62 C 283.31 153.90 282.52 151.77 282.00 150.75 C 281.48 149.73 288.38 148.29 280.62 149.50 C 272.88 150.71 243.54 156.42 235.50 158.00 C 227.46 159.58 233.29 158.40 232.38 159.00 C 231.46 159.60 230.38 160.92 230.00 161.62 C 229.62 162.33 229.73 162.35 230.12 163.25 C 230.52 164.15 230.92 165.50 232.38 167.00 C 233.83 168.50 236.33 170.65 238.88 172.25 C 241.42 173.85 244.58 175.58 247.62 176.62 C 250.67 177.67 253.85 178.31 257.12 178.50 C 260.40 178.69 263.02 178.58 267.25 177.75 C 271.48 176.92 279.71 174.42 282.50 173.50 C 285.29 172.58 283.60 173.35 284.00 172.25 C 284.40 171.15 284.77 168.73 284.88 166.88 Z" id="s-4-f-7"/>
<path d="M 275.88 170.62 C 276.19 169.02 276.38 167.88 276.38 165.62 C 276.38 163.38 276.15 159.27 275.88 157.12 C 275.60 154.98 275.04 153.69 274.75 152.75 C 274.46 151.81 274.40 151.79 274.12 151.50 C 273.85 151.21 279.56 149.92 273.12 151.00 C 266.69 152.08 242.29 156.67 235.50 158.00 C 228.71 159.33 233.29 158.40 232.38 159.00 C 231.46 159.60 230.38 160.92 230.00 161.62 C 229.62 162.33 229.94 162.65 230.12 163.25 C 230.31 163.85 230.62 164.48 231.12 165.25 C 231.62 166.02 232.40 167.10 233.12 167.88 C 233.85 168.65 233.85 168.75 235.50 169.88 C 237.15 171.00 240.40 173.33 243.00 174.62 C 245.60 175.92 248.77 176.98 251.12 177.62 C 253.48 178.27 254.94 178.40 257.12 178.50 C 259.31 178.60 261.81 178.56 264.25 178.25 C 266.69 177.94 270.04 177.12 271.75 176.62 C 273.46 176.12 273.81 176.25 274.50 175.25 C 275.19 174.25 275.56 172.23 275.88 170.62 Z" id="s-4-f-8"/>
<path d="M 272.50 164.62 C 272.50 162.29 272.12 158.31 271.88 156.38 C 271.62 154.44 271.35 153.77 271.00 153.00 C 270.65 152.23 270.62 151.90 269.75 151.75 C 268.88 151.60 268.17 151.73 265.75 152.12 C 263.33 152.52 257.23 153.69 255.25 154.12 C 253.27 154.56 257.17 154.10 253.88 154.75 C 250.58 155.40 239.08 157.29 235.50 158.00 C 231.92 158.71 233.29 158.40 232.38 159.00 C 231.46 159.60 230.38 160.92 230.00 161.62 C 229.62 162.33 229.73 162.35 230.12 163.25 C 230.52 164.15 230.92 165.50 232.38 167.00 C 233.83 168.50 236.33 170.65 238.88 172.25 C 241.42 173.85 244.58 175.58 247.62 176.62 C 250.67 177.67 254.35 178.23 257.12 178.50 C 259.90 178.77 262.21 178.50 264.25 178.25 C 266.29 178.00 268.27 177.62 269.38 177.00 C 270.48 176.38 270.46 175.60 270.88 174.50 C 271.29 173.40 271.60 172.02 271.88 170.38 C 272.15 168.73 272.50 166.96 272.50 164.62 Z" id="s-4-f-9"/>
</g>
<g id="s-5" clip-path="url(#c-s-5)">
<use href="#s-5-f-0"/>
<path d="M 329.50 154.88 C 327.85 154.90 326.77 155.44 326.00 155.75 C 325.23 156.06 325.25 156.00 324.88 156.75 C 324.50 157.50 323.83 159.56 323.75 160.25 C 323.67 160.94 324.21 160.40 324.38 160.88 C 324.54 161.35 324.42 162.31 324.75 163.12 C 325.08 163.94 325.83 164.58 326.38 165.75 C 326.92 166.92 327.27 168.69 328.00 170.12 C 328.73 171.56 329.96 172.79 330.75 174.38 C 331.54 175.96 332.06 177.31 332.75 179.62 C 333.44 181.94 334.35 185.42 334.88 188.25 C 335.40 191.08 335.40 186.04 335.88 196.62 C 336.35 207.21 337.12 224.92 337.75 251.75 C 338.38 278.58 339.44 337.33 339.62 357.62 C 339.81 377.92 339.19 369.88 338.88 373.50 C 338.56 377.12 338.15 377.77 337.75 379.38 C 337.35 380.98 337.00 381.94 336.50 383.12 C 336.00 384.31 335.35 385.60 334.75 386.50 C 334.15 387.40 333.81 388.00 332.88 388.50 C 331.94 389.00 330.56 389.29 329.12 389.50 C 327.69 389.71 326.40 389.88 324.25 389.75 C 322.10 389.62 319.29 389.38 316.25 388.75 C 313.21 388.12 308.19 386.46 306.00 386.00 C 303.81 385.54 304.15 385.08 303.12 386.00 C 302.10 386.92 300.75 389.67 299.88 391.50 C 299.00 393.33 298.35 395.27 297.88 397.00 C 297.40 398.73 296.40 400.40 297.00 401.88 C 297.60 403.35 298.50 403.54 301.50 405.88 C 304.50 408.21 310.71 412.56 315.00 415.88 C 319.29 419.19 322.52 421.79 327.25 425.75 C 331.98 429.71 340.17 437.27 343.38 439.62 C 346.58 441.98 345.33 440.04 346.50 439.88 C 347.67 439.71 349.00 439.50 350.38 438.62 C 351.75 437.75 353.25 436.46 354.75 434.62 C 356.25 432.79 358.06 429.81 359.38 427.62 C 360.69 425.44 361.56 423.75 362.62 421.50 C 363.69 419.25 364.73 416.98 365.75 414.12 C 366.77 411.27 367.94 407.52 368.75 404.38 C 369.56 401.23 370.15 398.23 370.62 395.25 C 371.10 392.27 371.44 390.94 371.62 386.50 C 371.81 382.06 372.04 375.48 371.75 368.62 C 371.46 361.77 370.50 354.73 369.88 345.38 C 369.25 336.02 368.50 324.90 368.00 312.50 C 367.50 300.10 367.02 286.15 366.88 271.00 C 366.73 255.85 366.94 234.25 367.12 221.62 C 367.31 209.00 367.73 200.15 368.00 195.25 C 368.27 190.35 368.50 194.25 368.75 192.25 C 369.00 190.25 369.48 185.44 369.50 183.25 C 369.52 181.06 369.17 180.29 368.88 179.12 C 368.58 177.96 368.56 177.44 367.75 176.25 C 366.94 175.06 365.46 173.38 364.00 172.00 C 362.54 170.62 361.35 169.54 359.00 168.00 C 356.65 166.46 351.85 163.98 349.88 162.75 C 347.90 161.52 348.46 161.35 347.12 160.62 C 345.79 159.90 342.88 158.88 341.88 158.38 C 340.88 157.88 341.54 157.77 341.12 157.62 C 340.71 157.48 339.75 157.62 339.38 157.50 C 339.00 157.38 339.46 157.19 338.88 156.88 C 338.29 156.56 337.44 155.96 335.88 155.62 C 334.31 155.29 331.15 154.85 329.50 154.88 Z" id="s-5-f-1"/>
<path d="M 329.50 154.88 C 327.85 154.90 326.77 155.44 326.00 155.75 C 325.23 156.06 325.25 156.00 324.88 156.75 C 324.50 157.50 323.83 159.56 323.75 160.25 C 323.67 160.94 324.21 160.40 324.38 160.88 C 324.54 161.35 324.42 162.31 324.75 163.12 C 325.08 163.94 325.83 164.58 326.38 165.75 C 326.92 166.92 327.27 168.69 328.00 170.12 C 328.73 171.56 329.96 172.79 330.75 174.38 C 331.54 175.96 332.06 177.31 332.75 179.62 C 333.44 181.94 334.35 185.42 334.88 188.25 C 335.40 191.08 335.40 186.04 335.88 196.62 C 336.35 207.21 337.12 223.88 337.75 251.75 C 338.38 279.62 339.44 343.58 339.62 363.88 C 339.81 384.17 339.19 370.92 338.88 373.50 C 338.56 376.08 338.44 377.21 337.75 379.38 C 337.06 381.54 335.56 384.98 334.75 386.50 C 333.94 388.02 333.71 388.02 332.88 388.50 C 332.04 388.98 331.19 389.17 329.75 389.38 C 328.31 389.58 326.15 389.79 324.25 389.75 C 322.35 389.71 319.44 389.04 318.38 389.12 C 317.31 389.21 317.56 388.90 317.88 390.25 C 318.19 391.60 319.27 395.06 320.25 397.25 C 321.23 399.44 322.27 401.35 323.75 403.38 C 325.23 405.40 327.29 407.65 329.12 409.38 C 330.96 411.10 332.79 412.50 334.75 413.75 C 336.71 415.00 338.69 416.02 340.88 416.88 C 343.06 417.73 345.81 418.48 347.88 418.88 C 349.94 419.27 351.12 419.25 353.25 419.25 C 355.38 419.25 358.94 419.06 360.62 418.88 C 362.31 418.69 362.71 418.48 363.38 418.12 C 364.04 417.77 363.90 418.42 364.62 416.75 C 365.35 415.08 366.75 411.71 367.75 408.12 C 368.75 404.54 369.96 399.21 370.62 395.25 C 371.29 391.29 371.58 389.29 371.75 384.38 C 371.92 379.46 372.10 374.85 371.62 365.75 C 371.15 356.65 369.65 343.67 368.88 329.75 C 368.10 315.83 367.31 299.52 367.00 282.25 C 366.69 264.98 366.83 240.62 367.00 226.12 C 367.17 211.62 367.71 200.90 368.00 195.25 C 368.29 189.60 368.50 194.25 368.75 192.25 C 369.00 190.25 369.48 185.44 369.50 183.25 C 369.52 181.06 369.17 180.29 368.88 179.12 C 368.58 177.96 368.56 177.44 367.75 176.25 C 366.94 175.06 365.46 173.38 364.00 172.00 C 362.54 170.62 361.35 169.54 359.00 168.00 C 356.65 166.46 351.85 163.98 349.88 162.75 C 347.90 161.52 348.46 161.35 347.12 160.62 C 345.79 159.90 342.88 158.88 341.88 158.38 C 340.88 157.88 341.54 157.77 341.12 157.62 C 340.71 157.48 339.75 157.62 339.38 157.50 C 339.00 157.38 339.46 157.19 338.88 156.88 C 338.29 156.56 337.44 155.96 335.88 155.62 C 334.31 155.29 331.15 154.85 329.50 154.88 Z" id="s-5-f-2"/>
<path d="M 329.50 154.88 C 327.85 154.90 326.77 155.44 326.00 155.75 C 325.23 156.06 325.25 156.00 324.88 156.75 C 324.50 157.50 323.83 159.56 323.75 160.25 C 323.67 160.94 324.21 160.40 324.38 160.88 C 324.54 161.35 324.42 162.31 324.75 163.12 C 325.08 163.94 325.83 164.58 326.38 165.75 C 326.92 166.92 327.27 168.69 328.00 170.12 C 328.73 171.56 329.96 172.79 330.75 174.38 C 331.54 175.96 332.06 177.31 332.75 179.62 C 333.44 181.94 334.35 185.42 334.88 188.25 C 335.40 191.08 335.40 186.04 335.88 196.62 C 336.35 207.21 337.12 224.92 337.75 251.75 C 338.38 278.58 339.40 338.19 339.62 357.62 C 339.85 377.06 339.15 366.38 339.12 368.38 C 339.10 370.38 339.23 369.21 339.50 369.62 C 339.77 370.04 339.31 370.27 340.75 370.88 C 342.19 371.48 345.42 372.75 348.12 373.25 C 350.83 373.75 354.44 373.92 357.00 373.88 C 359.56 373.83 361.40 373.48 363.50 373.00 C 365.60 372.52 368.25 371.60 369.62 371.00 C 371.00 370.40 371.88 376.25 371.75 369.38 C 371.62 362.50 369.67 344.27 368.88 329.75 C 368.08 315.23 367.31 299.52 367.00 282.25 C 366.69 264.98 366.83 240.62 367.00 226.12 C 367.17 211.62 367.58 202.04 368.00 195.25 C 368.42 188.46 369.31 187.85 369.50 185.38 C 369.69 182.90 369.42 181.90 369.12 180.38 C 368.83 178.85 368.29 177.33 367.75 176.25 C 367.21 175.17 367.65 175.46 365.88 173.88 C 364.10 172.29 359.79 168.60 357.12 166.75 C 354.46 164.90 351.54 163.77 349.88 162.75 C 348.21 161.73 348.46 161.35 347.12 160.62 C 345.79 159.90 342.88 158.88 341.88 158.38 C 340.88 157.88 341.54 157.77 341.12 157.62 C 340.71 157.48 339.75 157.62 339.38 157.50 C 339.00 157.38 339.46 157.19 338.88 156.88 C 338.29 156.56 337.44 155.96 335.88 155.62 C 334.31 155.29 331.15 154.85 329.50 154.88 Z" id="s-5-f-3"/>
<path d="M 328.25 155.12 C 327.38 155.27 326.58 155.46 326.00 155.75 C 325.42 156.04 325.12 156.12 324.75 156.88 C 324.38 157.62 323.81 159.58 323.75 160.25 C 323.69 160.92 324.21 160.40 324.38 160.88 C 324.54 161.35 324.42 162.31 324.75 163.12 C 325.08 163.94 325.83 164.58 326.38 165.75 C 326.92 166.92 327.27 168.69 328.00 170.12 C 328.73 171.56 329.96 172.79 330.75 174.38 C 331.54 175.96 332.06 177.31 332.75 179.62 C 333.44 181.94 334.35 185.42 334.88 188.25 C 335.40 191.08 335.40 186.04 335.88 196.62 C 336.35 207.21 337.19 230.77 337.75 251.75 C 338.31 272.73 338.65 310.48 339.25 322.50 C 339.85 334.52 339.77 323.31 341.38 323.88 C 342.98 324.44 346.40 325.52 348.88 325.88 C 351.35 326.23 353.71 326.17 356.25 326.00 C 358.79 325.83 362.69 325.17 364.12 324.88 C 365.56 324.58 364.33 324.44 364.88 324.25 C 365.42 324.06 366.77 324.00 367.38 323.75 C 367.98 323.50 368.56 329.67 368.50 322.75 C 368.44 315.83 367.27 296.52 367.00 282.25 C 366.73 267.98 366.71 251.62 366.88 237.12 C 367.04 222.62 367.56 203.88 368.00 195.25 C 368.44 186.62 369.35 188.06 369.50 185.38 C 369.65 182.69 369.17 180.65 368.88 179.12 C 368.58 177.60 368.56 177.44 367.75 176.25 C 366.94 175.06 365.46 173.38 364.00 172.00 C 362.54 170.62 361.35 169.54 359.00 168.00 C 356.65 166.46 351.85 163.98 349.88 162.75 C 347.90 161.52 349.46 161.81 347.12 160.62 C 344.79 159.44 338.52 156.58 335.88 155.62 C 333.23 154.67 332.52 154.96 331.25 154.88 C 329.98 154.79 329.12 154.98 328.25 155.12 Z" id="s-5-f-4"/>
<path d="M 326.38 155.62 C 325.29 155.96 325.19 156.10 324.75 156.88 C 324.31 157.65 323.81 159.58 323.75 160.25 C 323.69 160.92 324.21 160.40 324.38 160.88 C 324.54 161.35 324.42 162.31 324.75 163.12 C 325.08 163.94 325.83 164.58 326.38 165.75 C 326.92 166.92 327.27 168.69 328.00 170.12 C 328.73 171.56 329.96 172.79 330.75 174.38 C 331.54 175.96 332.06 177.31 332.75 179.62 C 333.44 181.94 334.38 185.65 334.88 188.25 C 335.38 190.85 335.19 180.42 335.75 195.25 C 336.31 210.08 337.50 263.29 338.25 277.25 C 339.00 291.21 338.92 278.40 340.25 279.00 C 341.58 279.60 343.83 280.50 346.25 280.88 C 348.67 281.25 351.81 281.42 354.75 281.25 C 357.69 281.08 361.94 280.25 363.88 279.88 C 365.81 279.50 365.88 279.35 366.38 279.00 C 366.88 278.65 366.75 287.31 366.88 277.75 C 367.00 268.19 366.94 235.38 367.12 221.62 C 367.31 207.88 367.60 201.29 368.00 195.25 C 368.40 189.21 369.38 188.15 369.50 185.38 C 369.62 182.60 369.04 180.15 368.75 178.62 C 368.46 177.10 368.54 177.35 367.75 176.25 C 366.96 175.15 365.46 173.38 364.00 172.00 C 362.54 170.62 361.35 169.54 359.00 168.00 C 356.65 166.46 351.85 163.98 349.88 162.75 C 347.90 161.52 349.46 161.81 347.12 160.62 C 344.79 159.44 338.52 156.58 335.88 155.62 C 333.23 154.67 332.83 154.88 331.25 154.88 C 329.67 154.88 327.46 155.29 326.38 155.62 Z" id="s-5-f-5"/>
<path d="M 326.00 155.75 C 325.21 156.08 325.12 156.12 324.75 156.88 C 324.38 157.62 323.81 159.58 323.75 160.25 C 323.69 160.92 324.21 160.40 324.38 160.88 C 324.54 161.35 324.42 162.31 324.75 163.12 C 325.08 163.94 325.83 164.58 326.38 165.75 C 326.92 166.92 327.27 168.69 328.00 170.12 C 328.73 171.56 329.96 172.79 330.75 174.38 C 331.54 175.96 332.06 177.31 332.75 179.62 C 333.44 181.94 334.35 185.42 334.88 188.25 C 335.40 191.08 335.44 187.98 335.88 196.62 C 336.31 205.27 336.92 232.60 337.50 240.12 C 338.08 247.65 337.73 241.12 339.38 241.75 C 341.02 242.38 344.52 243.52 347.38 243.88 C 350.23 244.23 353.98 244.04 356.50 243.88 C 359.02 243.71 361.00 243.21 362.50 242.88 C 364.00 242.54 364.77 242.27 365.50 241.88 C 366.23 241.48 366.46 248.27 366.88 240.50 C 367.29 232.73 367.56 204.44 368.00 195.25 C 368.44 186.06 369.31 187.85 369.50 185.38 C 369.69 182.90 369.42 181.90 369.12 180.38 C 368.83 178.85 368.60 177.65 367.75 176.25 C 366.90 174.85 365.46 173.38 364.00 172.00 C 362.54 170.62 362.42 170.21 359.00 168.00 C 355.58 165.79 346.35 160.35 343.50 158.75 C 340.65 157.15 342.27 158.56 341.88 158.38 C 341.48 158.19 341.54 157.77 341.12 157.62 C 340.71 157.48 339.75 157.62 339.38 157.50 C 339.00 157.38 339.46 157.19 338.88 156.88 C 338.29 156.56 337.44 155.96 335.88 155.62 C 334.31 155.29 331.15 154.85 329.50 154.88 C 327.85 154.90 326.79 155.42 326.00 155.75 Z" id="s-5-f-6"/>
<path d="M 326.00 155.75 C 325.21 156.08 325.12 156.12 324.75 156.88 C 324.38 157.62 323.81 159.58 323.75 160.25 C 323.69 160.92 324.21 160.40 324.38 160.88 C 324.54 161.35 324.42 162.31 324.75 163.12 C 325.08 163.94 325.83 164.58 326.38 165.75 C 326.92 166.92 327.27 168.69 328.00 170.12 C 328.73 171.56 329.96 172.79 330.75 174.38 C 331.54 175.96 332.08 177.42 332.75 179.62 C 333.42 181.83 334.23 184.79 334.75 187.62 C 335.27 190.46 335.56 192.08 335.88 196.62 C 336.19 201.17 336.35 211.67 336.62 214.88 C 336.90 218.08 336.71 215.54 337.50 215.88 C 338.29 216.21 339.23 216.58 341.38 216.88 C 343.52 217.17 347.40 217.79 350.38 217.62 C 353.35 217.46 356.58 216.67 359.25 215.88 C 361.92 215.08 365.06 213.50 366.38 212.88 C 367.69 212.25 366.90 212.62 367.12 212.12 C 367.35 211.62 367.60 212.69 367.75 209.88 C 367.90 207.06 367.71 199.33 368.00 195.25 C 368.29 191.17 369.31 187.85 369.50 185.38 C 369.69 182.90 369.42 181.90 369.12 180.38 C 368.83 178.85 368.60 177.65 367.75 176.25 C 366.90 174.85 365.46 173.38 364.00 172.00 C 362.54 170.62 362.42 170.21 359.00 168.00 C 355.58 165.79 346.35 160.35 343.50 158.75 C 340.65 157.15 342.27 158.56 341.88 158.38 C 341.48 158.19 341.54 157.77 341.12 157.62 C 340.71 157.48 339.75 157.62 339.38 157.50 C 339.00 157.38 339.46 157.19 338.88 156.88 C 338.29 156.56 337.44 155.96 335.88 155.62 C 334.31 155.29 331.15 154.85 329.50 154.88 C 327.85 154.90 326.79 155.42 326.00 155.75 Z" id="s-5-f-7"/>
<path d="M 326.00 155.75 C 325.21 156.08 325.12 156.12 324.75 156.88 C 324.38 157.62 323.81 159.58 323.75 160.25 C 323.69 160.92 324.21 160.40 324.38 160.88 C 324.54 161.35 324.42 162.31 324.75 163.12 C 325.08 163.94 325.83 164.58 326.38 165.75 C 326.92 166.92 327.27 168.69 328.00 170.12 C 328.73 171.56 329.96 172.79 330.75 174.38 C 331.54 175.96 332.06 177.31 332.75 179.62 C 333.44 181.94 334.35 185.42 334.88 188.25 C 335.40 191.08 335.67 193.75 335.88 196.62 C 336.08 199.50 335.94 203.94 336.12 205.50 C 336.31 207.06 336.12 205.94 337.00 206.00 C 337.88 206.06 339.88 206.06 341.38 205.88 C 342.88 205.69 344.29 205.38 346.00 204.88 C 347.71 204.38 349.81 203.73 351.62 202.88 C 353.44 202.02 354.81 201.33 356.88 199.75 C 358.94 198.17 362.19 195.25 364.00 193.38 C 365.81 191.50 366.94 189.69 367.75 188.50 C 368.56 187.31 368.58 187.17 368.88 186.25 C 369.17 185.33 369.52 184.27 369.50 183.00 C 369.48 181.73 369.04 179.75 368.75 178.62 C 368.46 177.50 368.54 177.35 367.75 176.25 C 366.96 175.15 365.46 173.38 364.00 172.00 C 362.54 170.62 362.42 170.21 359.00 168.00 C 355.58 165.79 346.35 160.35 343.50 158.75 C 340.65 157.15 342.27 158.56 341.88 158.38 C 341.48 158.19 341.54 157.77 341.12 157.62 C 340.71 157.48 339.75 157.62 339.38 157.50 C 339.00 157.38 339.46 157.19 338.88 156.88 C 338.29 156.56 337.44 155.96 335.88 155.62 C 334.31 155.29 331.15 154.85 329.50 154.88 C 327.85 154.90 326.79 155.42 326.00 155.75 Z" id="s-5-f-8"/>
<path d="M 329.50 154.88 C 327.85 154.90 326.77 155.44 326.00 155.75 C 325.23 156.06 325.25 156.00 324.88 156.75 C 324.50 157.50 323.83 159.56 323.75 160.25 C 323.67 160.94 324.21 160.40 324.38 160.88 C 324.54 161.35 324.42 162.31 324.75 163.12 C 325.08 163.94 325.83 164.58 326.38 165.75 C 326.92 166.92 327.27 168.69 328.00 170.12 C 328.73 171.56 329.96 172.79 330.75 174.38 C 331.54 175.96 332.06 177.31 332.75 179.62 C 333.44 181.94 334.27 184.60 334.88 188.25 C 335.48 191.90 335.94 199.25 336.38 201.50 C 336.81 203.75 335.90 202.19 337.50 201.75 C 339.10 201.31 343.65 199.92 346.00 198.88 C 348.35 197.83 349.81 196.85 351.62 195.50 C 353.44 194.15 355.17 192.58 356.88 190.75 C 358.58 188.92 360.54 186.58 361.88 184.50 C 363.21 182.42 364.23 180.00 364.88 178.25 C 365.52 176.50 366.73 175.71 365.75 174.00 C 364.77 172.29 362.38 170.38 359.00 168.00 C 355.62 165.62 348.35 161.35 345.50 159.75 C 342.65 158.15 342.60 158.73 341.88 158.38 C 341.15 158.02 341.54 157.77 341.12 157.62 C 340.71 157.48 339.75 157.62 339.38 157.50 C 339.00 157.38 339.46 157.19 338.88 156.88 C 338.29 156.56 337.44 155.96 335.88 155.62 C 334.31 155.29 331.15 154.85 329.50 154.88 Z" id="s-5-f-9"/>
</g>
</svg>