<?xml version="1.0" encoding="UTF-8"?>
<svg xmlns="http://www.w3.org/2000/svg" viewBox="0 0 500 500">
<defs>
<path d="M 255.88 36.12 C 254.69 36.31 255.17 36.71 255.00 37.25 C 254.83 37.79 254.69 38.42 254.88 39.38 C 255.06 40.33 255.15 41.33 256.12 43.00 C 257.10 44.67 257.48 43.77 260.75 49.38 C 264.02 54.98 272.21 69.94 275.75 76.62 C 279.29 83.31 280.21 86.19 282.00 89.50 C 283.79 92.81 285.46 95.25 286.50 96.50 C 287.54 97.75 284.69 97.44 288.25 97.00 C 291.81 96.56 303.96 94.56 307.88 93.88 C 311.79 93.19 310.94 93.31 311.75 92.88 C 312.56 92.44 312.25 92.52 312.75 91.25 C 313.25 89.98 314.25 87.12 314.75 85.25 C 315.25 83.38 315.56 82.00 315.75 80.00 C 315.94 78.00 316.04 75.42 315.88 73.25 C 315.71 71.08 315.46 69.15 314.75 67.00 C 314.04 64.85 312.52 61.85 311.62 60.38 C 310.73 58.90 310.96 59.38 309.38 58.12 C 307.79 56.88 305.08 54.73 302.12 52.88 C 299.17 51.02 294.75 48.62 291.62 47.00 C 288.50 45.38 287.48 44.79 283.38 43.12 C 279.27 41.46 270.54 38.17 267.00 37.00 C 263.46 35.83 263.98 36.27 262.12 36.12 C 260.27 35.98 257.06 35.94 255.88 36.12 Z" id="s-0-f-0"/>
<clipPath id="c-s-0"><use href="#s-0-f-0"/></clipPath>
<path d="M 436.75 98.25 C 436.46 97.38 435.85 96.40 435.00 95.38 C 434.15 94.35 434.21 94.02 431.62 92.12 C 429.04 90.23 424.15 86.19 419.50 84.00 C 414.85 81.81 407.44 79.83 403.75 79.00 C 400.06 78.17 399.79 78.81 397.38 79.00 C 394.96 79.19 394.54 79.17 389.25 80.12 C 383.96 81.08 378.25 82.67 365.62 84.75 C 353.00 86.83 323.00 91.31 313.50 92.62 C 304.00 93.94 310.83 92.33 308.62 92.62 C 306.42 92.92 302.40 94.04 300.25 94.38 C 298.10 94.71 296.75 94.46 295.75 94.62 C 294.75 94.79 295.35 95.19 294.25 95.38 C 293.15 95.56 290.40 95.52 289.12 95.75 C 287.85 95.98 297.42 95.08 286.62 96.75 C 275.83 98.42 247.77 102.54 224.38 105.75 C 200.98 108.96 160.42 113.94 146.25 116.00 C 132.08 118.06 140.77 117.54 139.38 118.12 C 137.98 118.71 138.12 119.10 137.88 119.50 C 137.62 119.90 137.69 119.98 137.88 120.50 C 138.06 121.02 138.40 121.88 139.00 122.62 C 139.60 123.38 139.73 123.79 141.50 125.00 C 143.27 126.21 141.27 128.88 149.62 129.88 C 157.98 130.88 175.67 132.31 191.62 131.00 C 207.58 129.69 228.33 124.67 245.38 122.00 C 262.42 119.33 274.06 117.17 293.88 115.00 C 313.69 112.83 342.35 110.56 364.25 109.00 C 386.15 107.44 414.17 106.35 425.25 105.62 C 436.33 104.90 429.17 105.08 430.75 104.62 C 432.33 104.17 433.75 103.54 434.75 102.88 C 435.75 102.21 436.42 101.40 436.75 100.62 C 437.08 99.85 437.04 99.12 436.75 98.25 Z" id="s-1-f-0"/>
<clipPath id="c-s-1"><use href="#s-1-f-0"/></clipPath>
<path d="M 191.75 130.62 C 188.60 130.04 180.77 129.81 173.88 129.62 C 166.98 129.44 154.35 129.46 150.38 129.50 C 146.40 129.54 150.06 129.67 150.00 129.88 C 149.94 130.08 149.38 129.29 150.00 130.75 C 150.62 132.21 152.79 136.38 153.75 138.62 C 154.71 140.88 155.10 141.65 155.75 144.25 C 156.40 146.85 157.29 149.73 157.62 154.25 C 157.96 158.77 157.92 164.54 157.75 171.38 C 157.58 178.21 157.12 187.69 156.62 195.25 C 156.12 202.81 155.71 208.38 154.75 216.75 C 153.79 225.12 152.71 234.40 150.88 245.50 C 149.04 256.60 145.65 274.10 143.75 283.38 C 141.85 292.65 141.83 292.88 139.50 301.12 C 137.17 309.38 132.77 323.92 129.75 332.88 C 126.73 341.83 124.06 348.21 121.38 354.88 C 118.69 361.54 115.90 367.83 113.62 372.88 C 111.35 377.92 110.23 380.31 107.75 385.12 C 105.27 389.94 101.75 396.50 98.75 401.75 C 95.75 407.00 92.92 411.65 89.75 416.62 C 86.58 421.60 83.38 426.48 79.75 431.62 C 76.12 436.77 69.98 444.54 68.00 447.50 C 66.02 450.46 67.81 448.98 67.88 449.38 C 67.94 449.77 67.62 449.83 68.38 449.88 C 69.12 449.92 70.90 449.98 72.38 449.62 C 73.85 449.27 74.19 449.92 77.25 447.75 C 80.31 445.58 86.48 440.48 90.75 436.62 C 95.02 432.77 98.35 429.50 102.88 424.62 C 107.40 419.75 113.25 413.15 117.88 407.38 C 122.50 401.60 126.83 396.23 130.62 390.00 C 134.42 383.77 137.62 376.44 140.62 370.00 C 143.62 363.56 146.46 356.73 148.62 351.38 C 150.79 346.02 151.46 344.29 153.62 337.88 C 155.79 331.46 159.12 321.44 161.62 312.88 C 164.12 304.31 166.12 297.00 168.62 286.50 C 171.12 276.00 174.29 262.04 176.62 249.88 C 178.96 237.71 181.10 223.46 182.62 213.50 C 184.15 203.54 184.50 201.33 185.75 190.12 C 187.00 178.92 188.96 155.25 190.12 146.25 C 191.29 137.25 192.31 138.31 192.75 136.12 C 193.19 133.94 192.92 134.04 192.75 133.12 C 192.58 132.21 194.90 131.21 191.75 130.62 Z" id="s-2-f-0"/>
<clipPath id="c-s-2"><use href="#s-2-f-0"/></clipPath>
<path d="M 63.50 172.75 C 62.94 173.27 62.23 174.21 62.00 175.00 C 61.77 175.79 61.50 176.27 62.12 177.50 C 62.75 178.73 63.94 179.40 65.75 182.38 C 67.56 185.35 70.44 191.10 73.00 195.38 C 75.56 199.65 78.58 204.27 81.12 208.00 C 83.67 211.73 85.56 214.48 88.25 217.75 C 90.94 221.02 95.25 225.62 97.25 227.62 C 99.25 229.62 99.35 229.23 100.25 229.75 C 101.15 230.27 101.21 230.60 102.62 230.75 C 104.04 230.90 106.83 231.10 108.75 230.62 C 110.67 230.15 112.77 228.96 114.12 227.88 C 115.48 226.79 116.12 225.71 116.88 224.12 C 117.62 222.54 118.33 221.23 118.62 218.38 C 118.92 215.52 118.77 209.60 118.62 207.00 C 118.48 204.40 118.23 204.31 117.75 202.75 C 117.27 201.19 116.40 199.02 115.75 197.62 C 115.10 196.23 114.79 195.65 113.88 194.38 C 112.96 193.10 111.23 191.06 110.25 190.00 C 109.27 188.94 109.48 189.02 108.00 188.00 C 106.52 186.98 104.19 185.38 101.38 183.88 C 98.56 182.38 95.48 180.79 91.12 179.00 C 86.77 177.21 78.77 174.29 75.25 173.12 C 71.73 171.96 71.65 172.21 70.00 172.00 C 68.35 171.79 66.46 171.75 65.38 171.88 C 64.29 172.00 64.06 172.23 63.50 172.75 Z" id="s-3-f-0"/>
<clipPath id="c-s-3"><use href="#s-3-f-0"/></clipPath>
<path d="M 122.88 254.00 C 122.46 253.81 122.54 253.27 121.38 254.12 C 120.21 254.98 119.23 256.50 115.88 259.12 C 112.52 261.75 105.96 266.60 101.25 269.88 C 96.54 273.15 92.46 275.77 87.62 278.75 C 82.79 281.73 76.48 285.40 72.25 287.75 C 68.02 290.10 65.29 291.44 62.25 292.88 C 59.21 294.31 56.67 295.40 54.00 296.38 C 51.33 297.35 49.10 298.12 46.25 298.75 C 43.40 299.38 38.73 299.48 36.88 300.12 C 35.02 300.77 35.46 301.38 35.12 302.62 C 34.79 303.88 34.56 305.98 34.88 307.62 C 35.19 309.27 35.31 310.08 37.00 312.50 C 38.69 314.92 42.25 319.42 45.00 322.12 C 47.75 324.83 51.69 327.48 53.50 328.75 C 55.31 330.02 54.77 329.58 55.88 329.75 C 56.98 329.92 58.90 329.96 60.12 329.75 C 61.35 329.54 62.12 329.08 63.25 328.50 C 64.38 327.92 65.44 327.33 66.88 326.25 C 68.31 325.17 67.29 326.96 71.88 322.00 C 76.46 317.04 89.23 302.10 94.38 296.50 C 99.52 290.90 99.21 292.19 102.75 288.38 C 106.29 284.56 112.46 277.46 115.62 273.62 C 118.79 269.79 120.42 267.75 121.75 265.38 C 123.08 263.00 123.27 261.06 123.62 259.38 C 123.98 257.69 124.00 256.15 123.88 255.25 C 123.75 254.35 123.29 254.19 122.88 254.00 Z" id="s-4-f-0"/>
<clipPath id="c-s-4"><use href="#s-4-f-0"/></clipPath>
<path d="M 420.88 153.75 C 420.73 153.02 420.54 152.71 419.88 151.88 C 419.21 151.04 418.25 149.90 416.88 148.75 C 415.50 147.60 413.38 146.12 411.62 145.00 C 409.88 143.88 409.31 143.31 406.38 142.00 C 403.44 140.69 397.08 137.96 394.00 137.12 C 390.92 136.29 393.27 136.23 387.88 137.00 C 382.48 137.77 376.31 139.31 361.62 141.75 C 346.94 144.19 323.23 148.12 299.75 151.62 C 276.27 155.12 235.21 160.83 220.75 162.75 C 206.29 164.67 214.44 163.00 213.00 163.12 C 211.56 163.25 212.31 163.19 212.12 163.50 C 211.94 163.81 211.73 164.40 211.88 165.00 C 212.02 165.60 212.33 166.35 213.00 167.12 C 213.67 167.90 213.60 168.35 215.88 169.62 C 218.15 170.90 223.96 173.58 226.62 174.75 C 229.29 175.92 230.21 176.15 231.88 176.62 C 233.54 177.10 234.81 177.42 236.62 177.62 C 238.44 177.83 236.35 178.79 242.75 177.88 C 249.15 176.96 261.79 174.10 275.00 172.12 C 288.21 170.15 311.96 167.04 322.00 166.00 C 332.04 164.96 326.08 166.54 335.25 165.88 C 344.42 165.21 364.44 162.85 377.00 162.00 C 389.56 161.15 404.08 161.15 410.62 160.75 C 417.17 160.35 414.83 160.06 416.25 159.62 C 417.67 159.19 418.38 158.69 419.12 158.12 C 419.88 157.56 420.46 156.98 420.75 156.25 C 421.04 155.52 421.02 154.48 420.88 153.75 Z" id="s-5-f-0"/>
<clipPath id="c-s-5"><use href="#s-5-f-0"/></clipPath>
<path d="M 298.50 168.50 C 296.58 168.52 289.96 169.31 287.75 169.62 C 285.54 169.94 286.48 170.21 285.25 170.38 C 284.02 170.54 281.75 170.38 280.38 170.62 C 279.00 170.88 277.10 169.94 277.00 171.88 C 276.90 173.81 279.12 179.35 279.75 182.25 C 280.38 185.15 280.73 184.88 280.75 189.25 C 280.77 193.62 280.21 204.69 279.88 208.50 C 279.54 212.31 278.38 208.96 278.75 212.12 C 279.12 215.29 280.98 224.17 282.12 227.50 C 283.27 230.83 284.50 230.92 285.62 232.12 C 286.75 233.33 287.85 234.33 288.88 234.75 C 289.90 235.17 291.04 234.79 291.75 234.62 C 292.46 234.46 292.62 234.23 293.12 233.75 C 293.62 233.27 293.81 233.50 294.75 231.75 C 295.69 230.00 297.92 225.25 298.75 223.25 C 299.58 221.25 299.56 228.21 299.75 219.75 C 299.94 211.29 299.96 180.88 299.88 172.50 C 299.79 164.12 299.48 170.17 299.25 169.50 C 299.02 168.83 300.42 168.48 298.50 168.50 Z" id="s-6-f-0"/>
<clipPath id="c-s-6"><use href="#s-6-f-0"/></clipPath>
<path d="M 282.25 225.25 C 281.96 223.15 280.60 215.58 280.12 213.25 C 279.65 210.92 280.48 211.96 279.38 211.25 C 278.27 210.54 275.46 209.35 273.50 209.00 C 271.54 208.65 269.83 208.67 267.62 209.12 C 265.42 209.58 264.27 210.81 260.25 211.75 C 256.23 212.69 248.31 214.02 243.50 214.75 C 238.69 215.48 233.92 215.71 231.38 216.12 C 228.83 216.54 228.71 216.94 228.25 217.25 C 227.79 217.56 226.02 215.73 228.62 218.00 C 231.23 220.27 236.27 229.54 243.88 230.88 C 251.48 232.21 267.92 226.83 274.25 226.00 C 280.58 225.17 280.54 226.00 281.88 225.88 C 283.21 225.75 282.54 227.35 282.25 225.25 Z" id="s-7-f-0"/>
<clipPath id="c-s-7"><use href="#s-7-f-0"/></clipPath>
<path d="M 213.25 215.88 C 212.65 216.44 212.08 217.23 212.00 218.25 C 211.92 219.27 211.88 220.81 212.75 222.00 C 213.62 223.19 216.10 224.40 217.25 225.38 C 218.40 226.35 218.88 226.71 219.62 227.88 C 220.38 229.04 221.06 230.48 221.75 232.38 C 222.44 234.27 223.00 235.75 223.75 239.25 C 224.50 242.75 225.25 248.71 226.25 253.38 C 227.25 258.04 229.10 264.12 229.75 267.25 C 230.40 270.38 229.75 270.46 230.12 272.12 C 230.50 273.79 230.83 275.02 232.00 277.25 C 233.17 279.48 235.79 283.77 237.12 285.50 C 238.46 287.23 239.17 287.23 240.00 287.62 C 240.83 288.02 241.65 287.90 242.12 287.88 C 242.60 287.85 242.54 287.85 242.88 287.50 C 243.21 287.15 243.77 286.56 244.12 285.75 C 244.48 284.94 244.48 283.67 245.00 282.62 C 245.52 281.58 246.67 279.96 247.25 279.50 C 247.83 279.04 247.58 279.83 248.50 279.88 C 249.42 279.92 249.96 280.23 252.75 279.75 C 255.54 279.27 261.92 277.60 265.25 277.00 C 268.58 276.40 270.62 276.29 272.75 276.12 C 274.88 275.96 276.98 275.96 278.00 276.00 C 279.02 276.04 278.48 276.06 278.88 276.38 C 279.27 276.69 280.06 277.17 280.38 277.88 C 280.69 278.58 280.62 274.46 280.75 280.62 C 280.88 286.79 278.00 309.48 281.12 314.88 C 284.25 320.27 296.27 313.65 299.50 313.00 C 302.73 312.35 299.92 313.44 300.50 311.00 C 301.08 308.56 302.06 302.12 303.00 298.38 C 303.94 294.62 305.10 291.31 306.12 288.50 C 307.15 285.69 308.21 283.42 309.12 281.50 C 310.04 279.58 311.19 278.60 311.62 277.00 C 312.06 275.40 312.02 273.23 311.75 271.88 C 311.48 270.52 311.08 270.04 310.00 268.88 C 308.92 267.71 307.04 266.02 305.25 264.88 C 303.46 263.73 301.54 262.98 299.25 262.00 C 296.96 261.02 293.77 259.69 291.50 259.00 C 289.23 258.31 287.12 258.02 285.62 257.88 C 284.12 257.73 284.38 257.38 282.50 258.12 C 280.62 258.88 277.21 261.10 274.38 262.38 C 271.54 263.65 269.88 264.69 265.50 265.75 C 261.12 266.81 251.19 268.29 248.12 268.75 C 245.06 269.21 247.42 270.46 247.12 268.50 C 246.83 266.54 246.90 262.15 246.38 257.00 C 245.85 251.85 244.44 242.12 244.00 237.62 C 243.56 233.12 245.96 233.17 243.75 230.00 C 241.54 226.83 233.35 220.81 230.75 218.62 C 228.15 216.44 229.73 217.48 228.12 216.88 C 226.52 216.27 223.21 215.33 221.12 215.00 C 219.04 214.67 216.94 214.73 215.62 214.88 C 214.31 215.02 213.85 215.31 213.25 215.88 Z" id="s-8-f-0"/>
<clipPath id="c-s-8"><use href="#s-8-f-0"/></clipPath>
<path d="M 331.00 165.75 C 330.56 167.54 332.31 169.71 332.62 175.50 C 332.94 181.29 333.12 195.42 332.88 200.50 C 332.62 205.58 331.44 204.25 331.12 206.00 C 330.81 207.75 330.69 209.31 331.00 211.00 C 331.31 212.69 331.85 213.98 333.00 216.12 C 334.15 218.27 336.48 222.10 337.88 223.88 C 339.27 225.65 340.27 226.27 341.38 226.75 C 342.48 227.23 343.71 226.92 344.50 226.75 C 345.29 226.58 345.58 226.25 346.12 225.75 C 346.67 225.25 347.06 225.02 347.75 223.75 C 348.44 222.48 349.65 219.27 350.25 218.12 C 350.85 216.98 350.56 217.10 351.38 216.88 C 352.19 216.65 353.65 216.94 355.12 216.75 C 356.60 216.56 358.50 216.21 360.25 215.75 C 362.00 215.29 361.60 214.96 365.62 214.00 C 369.65 213.04 380.17 210.83 384.38 210.00 C 388.58 209.17 389.33 209.12 390.88 209.00 C 392.42 208.88 392.85 208.90 393.62 209.25 C 394.40 209.60 395.15 210.25 395.50 211.12 C 395.85 212.00 395.90 212.50 395.75 214.50 C 395.60 216.50 395.42 218.54 394.62 223.12 C 393.83 227.71 391.62 237.79 391.00 242.00 C 390.38 246.21 390.81 247.17 390.88 248.38 C 390.94 249.58 390.79 248.94 391.38 249.25 C 391.96 249.56 393.77 249.98 394.38 250.25 C 394.98 250.52 393.42 250.29 395.00 250.88 C 396.58 251.46 400.19 257.48 403.88 253.75 C 407.56 250.02 414.31 233.58 417.12 228.50 C 419.94 223.42 419.52 225.25 420.75 223.25 C 421.98 221.25 423.31 218.31 424.50 216.50 C 425.69 214.69 427.17 213.38 427.88 212.38 C 428.58 211.38 428.62 211.40 428.75 210.50 C 428.88 209.60 428.92 208.02 428.62 207.00 C 428.33 205.98 428.27 205.75 427.00 204.38 C 425.73 203.00 423.44 200.65 421.00 198.75 C 418.56 196.85 414.73 194.46 412.38 193.00 C 410.02 191.54 408.31 190.48 406.88 190.00 C 405.44 189.52 406.75 189.33 403.75 190.12 C 400.75 190.92 393.25 193.50 388.88 194.75 C 384.50 196.00 383.42 196.29 377.50 197.62 C 371.58 198.96 357.46 202.15 353.38 202.75 C 349.29 203.35 352.94 202.73 353.00 201.25 C 353.06 199.77 353.46 200.12 353.75 193.88 C 354.04 187.62 355.56 168.79 354.75 163.75 C 353.94 158.71 350.58 163.52 348.88 163.62 C 347.17 163.73 346.77 164.19 344.50 164.38 C 342.23 164.56 337.50 164.52 335.25 164.75 C 333.00 164.98 331.44 163.96 331.00 165.75 Z" id="s-9-f-0"/>
<clipPath id="c-s-9"><use href="#s-9-f-0"/></clipPath>
<path d="M 412.75 262.38 C 412.33 261.29 411.46 259.85 410.25 258.50 C 409.04 257.15 406.62 255.08 405.50 254.25 C 404.38 253.42 403.96 253.77 403.50 253.50 C 403.04 253.23 403.15 252.79 402.75 252.62 C 402.35 252.46 401.58 252.67 401.12 252.50 C 400.67 252.33 401.35 252.15 400.00 251.62 C 398.65 251.10 394.29 249.88 393.00 249.38 C 391.71 248.88 392.85 248.85 392.25 248.62 C 391.65 248.40 390.65 248.08 389.38 248.00 C 388.10 247.92 386.67 247.65 384.62 248.12 C 382.58 248.60 381.38 249.90 377.12 250.88 C 372.88 251.85 362.69 253.25 359.12 254.00 C 355.56 254.75 355.79 252.83 355.75 255.38 C 355.71 257.92 358.15 266.52 358.88 269.25 C 359.60 271.98 358.19 271.50 360.12 271.75 C 362.06 272.00 365.19 271.54 370.50 270.75 C 375.81 269.96 385.08 267.83 392.00 267.00 C 398.92 266.17 408.54 266.08 412.00 265.75 C 415.46 265.42 412.62 265.56 412.75 265.00 C 412.88 264.44 413.17 263.46 412.75 262.38 Z" id="s-10-f-0"/>
<clipPath id="c-s-10"><use href="#s-10-f-0"/></clipPath>
<path d="M 333.12 250.12 C 331.46 250.33 331.58 250.83 331.00 251.25 C 330.42 251.67 329.96 252.15 329.62 252.62 C 329.29 253.10 329.10 253.38 329.00 254.12 C 328.90 254.88 328.58 256.08 329.00 257.12 C 329.42 258.17 330.85 259.31 331.50 260.38 C 332.15 261.44 332.35 261.77 332.88 263.50 C 333.40 265.23 334.25 264.94 334.62 270.75 C 335.00 276.56 334.92 292.23 335.12 298.38 C 335.33 304.52 335.54 305.71 335.88 307.62 C 336.21 309.54 334.02 309.65 337.12 309.88 C 340.23 310.10 351.42 309.73 354.50 309.00 C 357.58 308.27 354.69 311.73 355.62 305.50 C 356.56 299.27 359.38 277.60 360.12 271.62 C 360.88 265.65 360.25 270.19 360.12 269.62 C 360.00 269.06 359.56 269.06 359.38 268.25 C 359.19 267.44 359.17 265.44 359.00 264.75 C 358.83 264.06 358.71 265.48 358.38 264.12 C 358.04 262.77 357.54 258.31 357.00 256.62 C 356.46 254.94 356.85 254.92 355.12 254.00 C 353.40 253.08 348.98 251.79 346.62 251.12 C 344.27 250.46 343.25 250.17 341.00 250.00 C 338.75 249.83 334.79 249.92 333.12 250.12 Z" id="s-11-f-0"/>
<clipPath id="c-s-11"><use href="#s-11-f-0"/></clipPath>
<path d="M 463.88 323.75 C 463.71 322.77 463.46 321.54 462.75 320.38 C 462.04 319.21 460.69 317.81 459.62 316.75 C 458.56 315.69 457.75 314.96 456.38 314.00 C 455.00 313.04 453.25 312.00 451.38 311.00 C 449.50 310.00 449.48 309.65 445.12 308.00 C 440.77 306.35 429.08 302.31 425.25 301.12 C 421.42 299.94 426.52 300.31 422.12 300.88 C 417.73 301.44 409.81 303.19 398.88 304.50 C 387.94 305.81 365.71 308.06 356.50 308.75 C 347.29 309.44 350.40 308.12 343.62 308.62 C 336.85 309.12 322.88 311.06 315.88 311.75 C 308.88 312.44 305.10 312.60 301.62 312.75 C 298.15 312.90 296.67 312.52 295.00 312.62 C 293.33 312.73 293.29 313.21 291.62 313.38 C 289.96 313.54 286.88 313.38 285.00 313.62 C 283.12 313.88 284.00 314.46 280.38 314.88 C 276.75 315.29 270.15 315.48 263.25 316.12 C 256.35 316.77 251.44 317.94 239.00 318.75 C 226.56 319.56 197.50 320.46 188.62 321.00 C 179.75 321.54 186.50 321.62 185.75 322.00 C 185.00 322.38 184.58 322.75 184.12 323.25 C 183.67 323.75 183.21 324.31 183.00 325.00 C 182.79 325.69 182.71 326.65 182.88 327.38 C 183.04 328.10 183.31 328.65 184.00 329.38 C 184.69 330.10 185.71 330.85 187.00 331.75 C 188.29 332.65 189.94 333.77 191.75 334.75 C 193.56 335.73 194.46 336.31 197.88 337.62 C 201.29 338.94 209.08 341.62 212.25 342.62 C 215.42 343.62 215.10 343.42 216.88 343.62 C 218.65 343.83 213.33 345.15 222.88 343.88 C 232.42 342.60 262.44 337.65 274.12 336.00 C 285.81 334.35 284.85 334.67 293.00 334.00 C 301.15 333.33 309.44 332.67 323.00 332.00 C 336.56 331.33 361.38 330.33 374.38 330.00 C 387.38 329.67 392.38 329.85 401.00 330.00 C 409.62 330.15 420.33 330.58 426.12 330.88 C 431.92 331.17 431.69 331.60 435.75 331.75 C 439.81 331.90 446.92 331.94 450.50 331.75 C 454.08 331.56 455.46 331.08 457.25 330.62 C 459.04 330.17 460.17 329.73 461.25 329.00 C 462.33 328.27 463.31 327.12 463.75 326.25 C 464.19 325.38 464.04 324.73 463.88 323.75 Z" id="s-12-f-0"/>
<clipPath id="c-s-12"><use href="#s-12-f-0"/></clipPath>
<path d="M 216.25 365.88 C 215.56 365.50 215.31 365.75 214.75 366.12 C 214.19 366.50 213.56 366.69 212.88 368.12 C 212.19 369.56 211.81 372.08 210.62 374.75 C 209.44 377.42 207.77 380.56 205.75 384.12 C 203.73 387.69 201.29 391.75 198.50 396.12 C 195.71 400.50 190.90 406.94 189.00 410.38 C 187.10 413.81 187.48 415.08 187.12 416.75 C 186.77 418.42 186.88 418.42 186.88 420.38 C 186.88 422.33 186.92 426.38 187.12 428.50 C 187.33 430.62 187.52 431.50 188.12 433.12 C 188.73 434.75 189.85 437.00 190.75 438.25 C 191.65 439.50 192.69 440.06 193.50 440.62 C 194.31 441.19 194.42 441.44 195.62 441.62 C 196.83 441.81 199.50 441.90 200.75 441.75 C 202.00 441.60 202.12 441.35 203.12 440.75 C 204.12 440.15 205.44 439.33 206.75 438.12 C 208.06 436.92 209.50 435.50 211.00 433.50 C 212.50 431.50 214.12 429.21 215.75 426.12 C 217.38 423.04 219.42 418.27 220.75 415.00 C 222.08 411.73 222.92 409.58 223.75 406.50 C 224.58 403.42 225.44 399.85 225.75 396.50 C 226.06 393.15 225.79 388.71 225.62 386.38 C 225.46 384.04 225.40 384.50 224.75 382.50 C 224.10 380.50 222.73 376.73 221.75 374.38 C 220.77 372.02 219.79 369.79 218.88 368.38 C 217.96 366.96 216.94 366.25 216.25 365.88 Z" id="s-13-f-0"/>
<clipPath id="c-s-13"><use href="#s-13-f-0"/></clipPath>
<path d="M 244.00 370.38 C 243.62 371.08 243.54 371.17 244.00 372.38 C 244.46 373.58 244.75 372.19 246.75 377.62 C 248.75 383.06 253.60 398.60 256.00 405.00 C 258.40 411.40 259.27 412.58 261.12 416.00 C 262.98 419.42 265.06 422.54 267.12 425.50 C 269.19 428.46 271.06 431.17 273.50 433.75 C 275.94 436.33 278.96 438.83 281.75 441.00 C 284.54 443.17 286.33 444.62 290.25 446.75 C 294.17 448.88 300.73 451.92 305.25 453.75 C 309.77 455.58 312.00 456.42 317.38 457.75 C 322.75 459.08 331.71 460.90 337.50 461.75 C 343.29 462.60 346.81 462.71 352.12 462.88 C 357.44 463.04 364.62 462.94 369.38 462.75 C 374.12 462.56 376.69 462.27 380.62 461.75 C 384.56 461.23 389.06 460.50 393.00 459.62 C 396.94 458.75 401.23 457.46 404.25 456.50 C 407.27 455.54 408.58 455.00 411.12 453.88 C 413.67 452.75 417.25 450.98 419.50 449.75 C 421.75 448.52 423.02 447.75 424.62 446.50 C 426.23 445.25 428.12 443.38 429.12 442.25 C 430.12 441.12 430.35 440.90 430.62 439.75 C 430.90 438.60 430.90 436.54 430.75 435.38 C 430.60 434.21 430.65 434.00 429.75 432.75 C 428.85 431.50 426.90 429.17 425.38 427.88 C 423.85 426.58 423.29 426.40 420.62 425.00 C 417.96 423.60 413.08 421.52 409.38 419.50 C 405.67 417.48 402.71 415.71 398.38 412.88 C 394.04 410.04 388.06 406.00 383.38 402.50 C 378.69 399.00 372.81 393.81 370.25 391.88 C 367.69 389.94 368.56 390.96 368.00 390.88 C 367.44 390.79 367.02 390.73 366.88 391.38 C 366.73 392.02 365.98 392.44 367.12 394.75 C 368.27 397.06 371.81 401.98 373.75 405.25 C 375.69 408.52 377.44 411.56 378.75 414.38 C 380.06 417.19 381.17 420.21 381.62 422.12 C 382.08 424.04 381.67 424.96 381.50 425.88 C 381.33 426.79 381.10 427.02 380.62 427.62 C 380.15 428.23 380.17 428.65 378.62 429.50 C 377.08 430.35 374.29 431.71 371.38 432.75 C 368.46 433.79 363.90 435.06 361.12 435.75 C 358.35 436.44 357.52 436.54 354.75 436.88 C 351.98 437.21 347.75 437.60 344.50 437.75 C 341.25 437.90 338.58 437.92 335.25 437.75 C 331.92 437.58 327.88 437.25 324.50 436.75 C 321.12 436.25 317.71 435.44 315.00 434.75 C 312.29 434.06 310.96 433.65 308.25 432.62 C 305.54 431.60 301.58 429.94 298.75 428.62 C 295.92 427.31 293.52 426.12 291.25 424.75 C 288.98 423.38 287.29 422.27 285.12 420.38 C 282.96 418.48 280.46 416.04 278.25 413.38 C 276.04 410.71 273.58 407.10 271.88 404.38 C 270.17 401.65 269.44 400.35 268.00 397.00 C 266.56 393.65 264.31 387.71 263.25 384.25 C 262.19 380.79 262.04 377.90 261.62 376.25 C 261.21 374.60 261.19 375.02 260.75 374.38 C 260.31 373.73 260.06 373.25 259.00 372.38 C 257.94 371.50 255.67 369.85 254.38 369.12 C 253.08 368.40 252.60 368.17 251.25 368.00 C 249.90 367.83 247.46 367.73 246.25 368.12 C 245.04 368.52 244.38 369.67 244.00 370.38 Z" id="s-14-f-0"/>
<clipPath id="c-s-14"><use href="#s-14-f-0"/></clipPath>
<path d="M 292.00 353.50 C 291.71 353.96 291.69 354.06 292.12 354.75 C 292.56 355.44 292.83 354.85 294.62 357.62 C 296.42 360.40 300.31 367.31 302.88 371.38 C 305.44 375.44 307.67 378.75 310.00 382.00 C 312.33 385.25 314.75 388.40 316.88 390.88 C 319.00 393.35 321.12 395.40 322.75 396.88 C 324.38 398.35 325.42 399.08 326.62 399.75 C 327.83 400.42 328.58 400.77 330.00 400.88 C 331.42 400.98 333.58 400.90 335.12 400.38 C 336.67 399.85 338.19 398.75 339.25 397.75 C 340.31 396.75 340.94 395.62 341.50 394.38 C 342.06 393.12 342.42 392.60 342.62 390.25 C 342.83 387.90 342.92 382.69 342.75 380.25 C 342.58 377.81 342.12 377.10 341.62 375.62 C 341.12 374.15 340.73 372.90 339.75 371.38 C 338.77 369.85 337.23 367.90 335.75 366.50 C 334.27 365.10 332.65 364.08 330.88 363.00 C 329.10 361.92 328.62 361.50 325.12 360.00 C 321.62 358.50 313.77 355.31 309.88 354.00 C 305.98 352.69 304.42 352.46 301.75 352.12 C 299.08 351.79 295.50 351.77 293.88 352.00 C 292.25 352.23 292.29 353.04 292.00 353.50 Z" id="s-15-f-0"/>
<clipPath id="c-s-15"><use href="#s-15-f-0"/></clipPath>
<path d="M 386.00 346.75 C 385.77 347.29 385.77 348.42 386.00 349.12 C 386.23 349.83 386.15 349.92 387.38 351.00 C 388.60 352.08 388.19 350.35 393.38 355.62 C 398.56 360.90 413.56 377.19 418.50 382.62 C 423.44 388.06 420.58 385.60 423.00 388.25 C 425.42 390.90 429.94 395.73 433.00 398.50 C 436.06 401.27 439.35 403.50 441.38 404.88 C 443.40 406.25 443.85 406.44 445.12 406.75 C 446.40 407.06 448.02 406.92 449.00 406.75 C 449.98 406.58 450.38 406.19 451.00 405.75 C 451.62 405.31 451.96 405.19 452.75 404.12 C 453.54 403.06 454.96 401.04 455.75 399.38 C 456.54 397.71 457.17 396.46 457.50 394.12 C 457.83 391.79 457.88 387.48 457.75 385.38 C 457.62 383.27 457.25 382.92 456.75 381.50 C 456.25 380.08 455.40 378.19 454.75 376.88 C 454.10 375.56 453.58 374.60 452.88 373.62 C 452.17 372.65 452.25 372.46 450.50 371.00 C 448.75 369.54 446.21 367.19 442.38 364.88 C 438.54 362.56 432.31 359.27 427.50 357.12 C 422.69 354.98 418.06 353.52 413.50 352.00 C 408.94 350.48 403.92 349.00 400.12 348.00 C 396.33 347.00 392.88 346.35 390.75 346.00 C 388.62 345.65 388.17 345.75 387.38 345.88 C 386.58 346.00 386.23 346.21 386.00 346.75 Z" id="s-16-f-0"/>
<clipPath id="c-s-16"><use href="#s-16-f-0"/></clipPath>
</defs>
<g id="s-0" clip-path="url(#c-s-0)">
<use href="#s-0-f-0"/>
<path d="M 255.25 36.88 C 255.02 37.62 254.85 39.35 255.00 40.38 C 255.15 41.40 255.17 41.50 256.12 43.00 C 257.08 44.50 258.98 46.56 260.75 49.38 C 262.52 52.19 263.67 54.15 266.75 59.88 C 269.83 65.60 272.58 79.73 279.25 83.75 C 285.92 87.77 300.81 84.02 306.75 84.00 C 312.69 83.98 313.38 84.29 314.88 83.62 C 316.38 82.96 315.62 82.23 315.75 80.00 C 315.88 77.77 316.15 73.25 315.62 70.25 C 315.10 67.25 313.67 64.02 312.62 62.00 C 311.58 59.98 310.83 59.46 309.38 58.12 C 307.92 56.79 305.90 55.35 303.88 54.00 C 301.85 52.65 301.52 52.17 297.25 50.00 C 292.98 47.83 283.29 43.17 278.25 41.00 C 273.21 38.83 269.69 37.81 267.00 37.00 C 264.31 36.19 263.90 36.31 262.12 36.12 C 260.35 35.94 257.52 35.75 256.38 35.88 C 255.23 36.00 255.48 36.12 255.25 36.88 Z" id="s-0-f-1"/>
</g>
<g id="s-1" clip-path="url(#c-s-1)">
<use href="#s-1-f-0"/>
<path d="M 426.00 89.38 C 425.96 86.75 426.04 88.42 425.75 88.00 C 425.46 87.58 425.67 87.69 424.25 86.88 C 422.83 86.06 420.67 84.44 417.25 83.12 C 413.83 81.81 407.06 79.69 403.75 79.00 C 400.44 78.31 399.79 78.81 397.38 79.00 C 394.96 79.19 394.54 79.17 389.25 80.12 C 383.96 81.08 378.25 82.67 365.62 84.75 C 353.00 86.83 323.00 91.31 313.50 92.62 C 304.00 93.94 310.83 92.33 308.62 92.62 C 306.42 92.92 302.40 94.04 300.25 94.38 C 298.10 94.71 296.75 94.46 295.75 94.62 C 294.75 94.79 295.35 95.19 294.25 95.38 C 293.15 95.56 290.40 95.52 289.12 95.75 C 287.85 95.98 297.42 95.08 286.62 96.75 C 275.83 98.42 247.77 102.54 224.38 105.75 C 200.98 108.96 160.42 113.94 146.25 116.00 C 132.08 118.06 140.77 117.54 139.38 118.12 C 137.98 118.71 138.12 119.10 137.88 119.50 C 137.62 119.90 137.69 119.98 137.88 120.50 C 138.06 121.02 138.40 121.88 139.00 122.62 C 139.60 123.38 139.73 123.79 141.50 125.00 C 143.27 126.21 143.60 128.90 149.62 129.88 C 155.65 130.85 170.42 130.71 177.62 130.88 C 184.83 131.04 181.58 132.35 192.88 130.88 C 204.17 129.40 228.54 124.65 245.38 122.00 C 262.21 119.35 274.06 117.17 293.88 115.00 C 313.69 112.83 342.35 110.56 364.25 109.00 C 386.15 107.44 415.00 106.25 425.25 105.62 C 435.50 105.00 425.62 105.56 425.75 105.25 C 425.88 104.94 425.96 106.40 426.00 103.75 C 426.04 101.10 426.04 92.00 426.00 89.38 Z" id="s-1-f-1"/>
<path d="M 378.00 84.50 C 377.96 80.65 377.94 83.33 377.75 83.00 C 377.56 82.67 378.90 82.21 376.88 82.50 C 374.85 82.79 376.19 83.06 365.62 84.75 C 355.06 86.44 323.00 91.31 313.50 92.62 C 304.00 93.94 310.83 92.33 308.62 92.62 C 306.42 92.92 302.40 94.04 300.25 94.38 C 298.10 94.71 296.75 94.46 295.75 94.62 C 294.75 94.79 295.35 95.19 294.25 95.38 C 293.15 95.56 290.40 95.52 289.12 95.75 C 287.85 95.98 298.65 94.92 286.62 96.75 C 274.60 98.58 240.50 103.52 217.00 106.75 C 193.50 109.98 158.56 114.23 145.62 116.12 C 132.69 118.02 140.67 117.56 139.38 118.12 C 138.08 118.69 138.12 119.10 137.88 119.50 C 137.62 119.90 137.69 119.98 137.88 120.50 C 138.06 121.02 138.40 121.88 139.00 122.62 C 139.60 123.38 139.73 123.79 141.50 125.00 C 143.27 126.21 141.27 128.88 149.62 129.88 C 157.98 130.88 175.67 132.31 191.62 131.00 C 207.58 129.69 228.33 124.67 245.38 122.00 C 262.42 119.33 280.71 116.65 293.88 115.00 C 307.04 113.35 310.46 113.25 324.38 112.12 C 338.29 111.00 368.44 109.25 377.38 108.25 C 386.31 107.25 377.90 110.08 378.00 106.12 C 378.10 102.17 378.04 88.35 378.00 84.50 Z" id="s-1-f-2"/>
<path d="M 329.88 90.62 C 329.69 87.31 331.60 89.79 328.88 90.12 C 326.15 90.46 316.88 92.21 313.50 92.62 C 310.12 93.04 310.83 92.33 308.62 92.62 C 306.42 92.92 302.40 94.04 300.25 94.38 C 298.10 94.71 296.75 94.46 295.75 94.62 C 294.75 94.79 295.35 95.19 294.25 95.38 C 293.15 95.56 290.40 95.52 289.12 95.75 C 287.85 95.98 297.42 95.08 286.62 96.75 C 275.83 98.42 247.77 102.54 224.38 105.75 C 200.98 108.96 160.42 113.94 146.25 116.00 C 132.08 118.06 140.77 117.54 139.38 118.12 C 137.98 118.71 138.12 119.10 137.88 119.50 C 137.62 119.90 137.69 119.98 137.88 120.50 C 138.06 121.02 138.40 121.88 139.00 122.62 C 139.60 123.38 139.73 123.79 141.50 125.00 C 143.27 126.21 141.27 128.88 149.62 129.88 C 157.98 130.88 175.67 132.31 191.62 131.00 C 207.58 129.69 228.33 124.67 245.38 122.00 C 262.42 119.33 279.98 116.69 293.88 115.00 C 307.77 113.31 322.75 112.48 328.75 111.88 C 334.75 111.27 329.67 111.69 329.88 111.38 C 330.08 111.06 330.00 113.46 330.00 110.00 C 330.00 106.54 330.06 93.94 329.88 90.62 Z" id="s-1-f-3"/>
<path d="M 281.88 98.12 C 281.81 95.17 282.27 97.65 281.50 97.62 C 280.73 97.60 286.77 96.65 277.25 98.00 C 267.73 99.35 246.21 102.75 224.38 105.75 C 202.54 108.75 160.42 113.94 146.25 116.00 C 132.08 118.06 140.77 117.54 139.38 118.12 C 137.98 118.71 138.12 119.10 137.88 119.50 C 137.62 119.90 137.73 120.04 137.88 120.50 C 138.02 120.96 138.15 121.50 138.75 122.25 C 139.35 123.00 139.69 123.73 141.50 125.00 C 143.31 126.27 143.60 128.90 149.62 129.88 C 155.65 130.85 170.23 130.73 177.62 130.88 C 185.02 131.02 182.71 132.23 194.00 130.75 C 205.29 129.27 230.77 124.35 245.38 122.00 C 259.98 119.65 275.54 117.73 281.62 116.62 C 287.71 115.52 281.83 118.46 281.88 115.38 C 281.92 112.29 281.94 101.08 281.88 98.12 Z" id="s-1-f-4"/>
<path d="M 233.88 104.88 C 233.67 101.73 247.35 102.52 232.75 104.38 C 218.15 106.23 161.81 113.71 146.25 116.00 C 130.69 118.29 140.77 117.54 139.38 118.12 C 137.98 118.71 138.12 119.10 137.88 119.50 C 137.62 119.90 137.73 120.04 137.88 120.50 C 138.02 120.96 138.15 121.50 138.75 122.25 C 139.35 123.00 139.69 123.73 141.50 125.00 C 143.31 126.27 143.60 128.90 149.62 129.88 C 155.65 130.85 170.23 130.73 177.62 130.88 C 185.02 131.02 184.71 131.90 194.00 130.75 C 203.29 129.60 226.71 125.25 233.38 124.00 C 240.04 122.75 233.92 126.44 234.00 123.25 C 234.08 120.06 234.08 108.02 233.88 104.88 Z" id="s-1-f-5"/>
<path d="M 185.88 130.38 C 185.98 128.02 186.06 120.12 186.00 116.88 C 185.94 113.62 192.12 111.02 185.50 110.88 C 178.88 110.73 153.94 114.79 146.25 116.00 C 138.56 117.21 140.77 117.54 139.38 118.12 C 137.98 118.71 138.06 118.96 137.88 119.50 C 137.69 120.04 137.81 120.60 138.25 121.38 C 138.69 122.15 139.29 123.06 140.50 124.12 C 141.71 125.19 143.98 126.79 145.50 127.75 C 147.02 128.71 142.98 129.33 149.62 129.88 C 156.27 130.42 179.33 130.92 185.38 131.00 C 191.42 131.08 185.77 132.73 185.88 130.38 Z" id="s-1-f-6"/>
</g>
<g id="s-2" clip-path="url(#c-s-2)">
<use href="#s-2-f-0"/>
<path d="M 191.75 130.62 C 188.60 130.04 180.77 129.81 173.88 129.62 C 166.98 129.44 154.35 129.46 150.38 129.50 C 146.40 129.54 150.06 129.67 150.00 129.88 C 149.94 130.08 149.25 128.96 150.00 130.75 C 150.75 132.54 153.38 137.71 154.50 140.62 C 155.62 143.54 156.21 145.56 156.75 148.25 C 157.29 150.94 157.60 152.15 157.75 156.75 C 157.90 161.35 157.81 169.46 157.62 175.88 C 157.44 182.29 157.29 186.85 156.62 195.25 C 155.96 203.65 154.77 216.73 153.62 226.25 C 152.48 235.77 151.40 242.85 149.75 252.38 C 148.10 261.90 145.46 275.25 143.75 283.38 C 142.04 291.50 141.15 294.96 139.50 301.12 C 137.85 307.29 135.85 314.10 133.88 320.38 C 131.90 326.65 129.71 333.00 127.62 338.75 C 125.54 344.50 123.71 349.19 121.38 354.88 C 119.04 360.56 115.90 367.83 113.62 372.88 C 111.35 377.92 110.23 380.31 107.75 385.12 C 105.27 389.94 101.85 396.40 98.75 401.75 C 95.65 407.10 90.67 414.54 89.12 417.25 C 87.58 419.96 86.17 417.92 89.50 418.00 C 92.83 418.08 104.40 419.52 109.12 417.75 C 113.85 415.98 114.46 411.75 117.88 407.38 C 121.29 403.00 126.31 396.71 129.62 391.50 C 132.94 386.29 135.23 381.25 137.75 376.12 C 140.27 371.00 142.27 366.65 144.75 360.75 C 147.23 354.85 150.29 347.15 152.62 340.75 C 154.96 334.35 156.58 329.50 158.75 322.38 C 160.92 315.25 163.48 306.10 165.62 298.00 C 167.77 289.90 169.79 281.77 171.62 273.75 C 173.46 265.73 174.79 259.92 176.62 249.88 C 178.46 239.83 181.10 223.46 182.62 213.50 C 184.15 203.54 184.50 201.33 185.75 190.12 C 187.00 178.92 188.96 155.25 190.12 146.25 C 191.29 137.25 192.31 138.31 192.75 136.12 C 193.19 133.94 192.92 134.04 192.75 133.12 C 192.58 132.21 194.90 131.21 191.75 130.62 Z" id="s-2-f-1"/>
<path d="M 173.88 129.62 C 166.96 129.42 154.35 129.46 150.38 129.50 C 146.40 129.54 150.06 129.67 150.00 129.88 C 149.94 130.08 149.38 129.29 150.00 130.75 C 150.62 132.21 152.79 136.38 153.75 138.62 C 154.71 140.88 155.25 142.65 155.75 144.25 C 156.25 145.85 156.42 146.17 156.75 148.25 C 157.08 150.33 157.60 152.15 157.75 156.75 C 157.90 161.35 157.81 169.46 157.62 175.88 C 157.44 182.29 157.10 188.44 156.62 195.25 C 156.15 202.06 155.56 209.33 154.75 216.75 C 153.94 224.17 152.75 232.85 151.75 239.75 C 150.75 246.65 150.08 250.85 148.75 258.12 C 147.42 265.40 145.42 275.75 143.75 283.38 C 142.08 291.00 140.98 295.92 138.75 303.88 C 136.52 311.83 133.27 322.62 130.38 331.12 C 127.48 339.62 123.94 348.56 121.38 354.88 C 118.81 361.19 115.98 366.48 115.00 369.00 C 114.02 371.52 111.60 369.83 115.50 370.00 C 119.40 370.17 134.17 370.08 138.38 370.00 C 142.58 369.92 139.04 372.60 140.75 369.50 C 142.46 366.40 145.62 359.23 148.62 351.38 C 151.62 343.52 155.92 331.27 158.75 322.38 C 161.58 313.48 163.48 306.10 165.62 298.00 C 167.77 289.90 169.79 281.77 171.62 273.75 C 173.46 265.73 175.29 256.73 176.62 249.88 C 177.96 243.02 178.10 242.58 179.62 232.62 C 181.15 222.67 184.00 204.52 185.75 190.12 C 187.50 175.73 188.96 155.25 190.12 146.25 C 191.29 137.25 192.31 138.31 192.75 136.12 C 193.19 133.94 192.90 134.02 192.75 133.12 C 192.60 132.23 195.02 131.33 191.88 130.75 C 188.73 130.17 180.79 129.83 173.88 129.62 Z" id="s-2-f-2"/>
<path d="M 173.88 129.62 C 166.96 129.42 154.35 129.46 150.38 129.50 C 146.40 129.54 150.06 129.67 150.00 129.88 C 149.94 130.08 149.38 129.29 150.00 130.75 C 150.62 132.21 152.79 136.38 153.75 138.62 C 154.71 140.88 155.10 141.65 155.75 144.25 C 156.40 146.85 157.31 148.98 157.62 154.25 C 157.94 159.52 157.92 167.50 157.62 175.88 C 157.33 184.25 156.54 196.10 155.88 204.50 C 155.21 212.90 154.81 217.31 153.62 226.25 C 152.44 235.19 150.56 247.85 148.75 258.12 C 146.94 268.40 144.42 280.25 142.75 287.88 C 141.08 295.50 140.29 298.33 138.75 303.88 C 137.21 309.42 134.31 318.12 133.50 321.12 C 132.69 324.12 129.71 321.75 133.88 321.88 C 138.04 322.00 153.88 323.38 158.50 321.88 C 163.12 320.38 159.94 318.77 161.62 312.88 C 163.31 306.98 166.77 293.85 168.62 286.50 C 170.48 279.15 170.90 277.85 172.75 268.75 C 174.60 259.65 177.58 244.98 179.75 231.88 C 181.92 218.77 184.02 204.40 185.75 190.12 C 187.48 175.85 188.94 155.38 190.12 146.25 C 191.31 137.12 192.44 137.58 192.88 135.38 C 193.31 133.17 192.92 133.77 192.75 133.00 C 192.58 132.23 195.02 131.31 191.88 130.75 C 188.73 130.19 180.79 129.83 173.88 129.62 Z" id="s-2-f-3"/>
<path d="M 150.38 129.50 C 146.40 129.69 149.44 129.23 150.00 130.75 C 150.56 132.27 152.62 135.71 153.75 138.62 C 154.88 141.54 156.08 145.23 156.75 148.25 C 157.42 151.27 157.60 152.15 157.75 156.75 C 157.90 161.35 157.81 169.46 157.62 175.88 C 157.44 182.29 157.29 186.85 156.62 195.25 C 155.96 203.65 154.77 216.73 153.62 226.25 C 152.48 235.77 151.06 244.54 149.75 252.38 C 148.44 260.21 145.12 269.67 145.75 273.25 C 146.38 276.83 149.29 273.77 153.50 273.88 C 157.71 273.98 167.96 274.00 171.00 273.88 C 174.04 273.75 171.15 275.44 171.75 273.12 C 172.35 270.81 173.15 267.77 174.62 260.00 C 176.10 252.23 178.77 238.15 180.62 226.50 C 182.48 214.85 184.17 203.50 185.75 190.12 C 187.33 176.75 188.96 155.23 190.12 146.25 C 191.29 137.27 192.31 138.46 192.75 136.25 C 193.19 134.04 192.90 133.92 192.75 133.00 C 192.60 132.08 195.02 131.31 191.88 130.75 C 188.73 130.19 180.79 129.83 173.88 129.62 C 166.96 129.42 154.35 129.31 150.38 129.50 Z" id="s-2-f-4"/>
<path d="M 150.38 129.50 C 146.40 129.69 149.44 129.23 150.00 130.75 C 150.56 132.27 152.79 136.38 153.75 138.62 C 154.71 140.88 155.25 142.65 155.75 144.25 C 156.25 145.85 156.42 146.17 156.75 148.25 C 157.08 150.33 157.58 152.90 157.75 156.75 C 157.92 160.60 157.94 164.96 157.75 171.38 C 157.56 177.79 157.29 186.27 156.62 195.25 C 155.96 204.23 154.17 220.17 153.75 225.25 C 153.33 230.33 149.71 225.65 154.12 225.75 C 158.54 225.85 175.83 225.90 180.25 225.88 C 184.67 225.85 180.23 227.69 180.62 225.62 C 181.02 223.56 181.77 219.42 182.62 213.50 C 183.48 207.58 184.50 201.33 185.75 190.12 C 187.00 178.92 188.96 155.23 190.12 146.25 C 191.29 137.27 192.31 138.46 192.75 136.25 C 193.19 134.04 192.92 133.94 192.75 133.00 C 192.58 132.06 194.90 131.19 191.75 130.62 C 188.60 130.06 180.77 129.81 173.88 129.62 C 166.98 129.44 154.35 129.31 150.38 129.50 Z" id="s-2-f-5"/>
<path d="M 150.38 129.50 C 146.40 129.69 149.44 129.23 150.00 130.75 C 150.56 132.27 152.79 136.38 153.75 138.62 C 154.71 140.88 155.15 141.94 155.75 144.25 C 156.35 146.56 157.04 150.42 157.38 152.50 C 157.71 154.58 157.75 152.60 157.75 156.75 C 157.75 160.90 157.27 173.83 157.38 177.38 C 157.48 180.92 153.48 177.96 158.38 178.00 C 163.27 178.04 181.88 178.29 186.75 177.62 C 191.62 176.96 187.06 179.23 187.62 174.00 C 188.19 168.77 189.25 152.69 190.12 146.25 C 191.00 139.81 192.44 137.58 192.88 135.38 C 193.31 133.17 192.92 133.77 192.75 133.00 C 192.58 132.23 195.02 131.31 191.88 130.75 C 188.73 130.19 180.79 129.83 173.88 129.62 C 166.96 129.42 154.35 129.31 150.38 129.50 Z" id="s-2-f-6"/>
</g>
<g id="s-3" clip-path="url(#c-s-3)">
<use href="#s-3-f-0"/>
<path d="M 62.75 173.62 C 62.33 174.12 62.10 174.35 62.00 175.00 C 61.90 175.65 61.50 176.27 62.12 177.50 C 62.75 178.73 63.94 179.40 65.75 182.38 C 67.56 185.35 70.44 191.10 73.00 195.38 C 75.56 199.65 78.33 204.00 81.12 208.00 C 83.92 212.00 87.38 217.38 89.75 219.38 C 92.12 221.38 90.85 219.90 95.38 220.00 C 99.90 220.10 113.08 220.06 116.88 220.00 C 120.67 219.94 117.81 220.02 118.12 219.62 C 118.44 219.23 118.62 219.17 118.75 217.62 C 118.88 216.08 119.04 212.85 118.88 210.38 C 118.71 207.90 118.10 204.52 117.75 202.75 C 117.40 200.98 117.40 201.15 116.75 199.75 C 116.10 198.35 115.10 196.15 113.88 194.38 C 112.65 192.60 111.12 190.69 109.38 189.12 C 107.62 187.56 105.67 186.35 103.38 185.00 C 101.08 183.65 98.06 182.17 95.62 181.00 C 93.19 179.83 92.15 179.31 88.75 178.00 C 85.35 176.69 78.38 174.12 75.25 173.12 C 72.12 172.12 71.65 172.21 70.00 172.00 C 68.35 171.79 66.29 171.88 65.38 171.88 C 64.46 171.88 64.94 171.71 64.50 172.00 C 64.06 172.29 63.17 173.12 62.75 173.62 Z" id="s-3-f-1"/>
</g>
<g id="s-4" clip-path="url(#c-s-4)">
<use href="#s-4-f-0"/>
<path d="M 82.75 282.00 C 82.58 277.88 83.44 281.08 82.00 281.88 C 80.56 282.67 78.10 284.60 74.12 286.75 C 70.15 288.90 62.77 292.75 58.12 294.75 C 53.48 296.75 49.69 297.90 46.25 298.75 C 42.81 299.60 39.25 299.46 37.50 299.88 C 35.75 300.29 36.17 300.69 35.75 301.25 C 35.33 301.81 35.15 302.19 35.00 303.25 C 34.85 304.31 34.54 306.08 34.88 307.62 C 35.21 309.17 35.60 310.38 37.00 312.50 C 38.40 314.62 40.96 317.96 43.25 320.38 C 45.54 322.79 49.04 325.60 50.75 327.00 C 52.46 328.40 52.48 328.27 53.50 328.75 C 54.52 329.23 55.77 329.71 56.88 329.88 C 57.98 330.04 59.06 329.98 60.12 329.75 C 61.19 329.52 62.12 329.08 63.25 328.50 C 64.38 327.92 65.50 327.27 66.88 326.25 C 68.25 325.23 68.90 325.15 71.50 322.38 C 74.10 319.60 80.58 312.25 82.50 309.62 C 84.42 307.00 82.96 311.23 83.00 306.62 C 83.04 302.02 82.92 286.12 82.75 282.00 Z" id="s-4-f-1"/>
</g>
<g id="s-5" clip-path="url(#c-s-5)">
<use href="#s-5-f-0"/>
<path d="M 404.00 142.12 C 403.92 138.90 405.17 141.71 403.50 140.88 C 401.83 140.04 396.60 137.77 394.00 137.12 C 391.40 136.48 393.27 136.23 387.88 137.00 C 382.48 137.77 376.31 139.31 361.62 141.75 C 346.94 144.19 323.23 148.12 299.75 151.62 C 276.27 155.12 235.21 160.83 220.75 162.75 C 206.29 164.67 214.44 163.00 213.00 163.12 C 211.56 163.25 212.31 163.19 212.12 163.50 C 211.94 163.81 211.73 164.40 211.88 165.00 C 212.02 165.60 212.33 166.35 213.00 167.12 C 213.67 167.90 213.60 168.35 215.88 169.62 C 218.15 170.90 223.96 173.58 226.62 174.75 C 229.29 175.92 230.21 176.15 231.88 176.62 C 233.54 177.10 234.81 177.42 236.62 177.62 C 238.44 177.83 236.35 178.79 242.75 177.88 C 249.15 176.96 266.42 173.46 275.00 172.12 C 283.58 170.79 288.02 170.73 294.25 169.88 C 300.48 169.02 307.75 167.65 312.38 167.00 C 317.00 166.35 318.19 166.19 322.00 166.00 C 325.81 165.81 326.08 166.54 335.25 165.88 C 344.42 165.21 366.02 162.81 377.00 162.00 C 387.98 161.19 396.62 161.29 401.12 161.00 C 405.62 160.71 403.52 163.40 404.00 160.25 C 404.48 157.10 404.08 145.35 404.00 142.12 Z" id="s-5-f-1"/>
<path d="M 355.88 143.25 C 355.77 140.02 356.04 142.90 355.38 142.88 C 354.71 142.85 356.81 142.33 351.88 143.12 C 346.94 143.92 340.17 145.38 325.75 147.62 C 311.33 149.88 282.88 154.10 265.38 156.62 C 247.88 159.15 229.48 161.67 220.75 162.75 C 212.02 163.83 214.44 163.00 213.00 163.12 C 211.56 163.25 212.31 163.19 212.12 163.50 C 211.94 163.81 211.73 164.40 211.88 165.00 C 212.02 165.60 212.33 166.35 213.00 167.12 C 213.67 167.90 213.60 168.35 215.88 169.62 C 218.15 170.90 223.96 173.58 226.62 174.75 C 229.29 175.92 230.21 176.15 231.88 176.62 C 233.54 177.10 234.81 177.42 236.62 177.62 C 238.44 177.83 236.35 178.79 242.75 177.88 C 249.15 176.96 266.42 173.46 275.00 172.12 C 283.58 170.79 288.02 170.73 294.25 169.88 C 300.48 169.02 307.75 167.65 312.38 167.00 C 317.00 166.35 318.19 166.19 322.00 166.00 C 325.81 165.81 329.79 166.21 335.25 165.88 C 340.71 165.54 351.31 164.40 354.75 164.00 C 358.19 163.60 355.67 163.79 355.88 163.50 C 356.08 163.21 356.00 165.62 356.00 162.25 C 356.00 158.88 355.98 146.48 355.88 143.25 Z" id="s-5-f-2"/>
<path d="M 307.88 150.75 C 307.71 148.08 314.08 149.27 307.00 150.25 C 299.92 151.23 279.75 154.54 265.38 156.62 C 251.00 158.71 229.48 161.67 220.75 162.75 C 212.02 163.83 214.44 163.00 213.00 163.12 C 211.56 163.25 212.31 163.19 212.12 163.50 C 211.94 163.81 211.73 164.40 211.88 165.00 C 212.02 165.60 212.33 166.35 213.00 167.12 C 213.67 167.90 214.81 168.88 215.88 169.62 C 216.94 170.38 217.21 170.62 219.38 171.62 C 221.54 172.62 226.00 174.62 228.88 175.62 C 231.75 176.62 234.02 177.29 236.62 177.62 C 239.23 177.96 238.10 178.54 244.50 177.62 C 250.90 176.71 266.71 173.42 275.00 172.12 C 283.29 170.83 288.81 170.62 294.25 169.88 C 299.69 169.12 305.33 168.23 307.62 167.62 C 309.92 167.02 307.96 169.06 308.00 166.25 C 308.04 163.44 308.04 153.42 307.88 150.75 Z" id="s-5-f-3"/>
<path d="M 259.62 174.62 C 262.38 171.29 259.94 160.65 259.88 157.75 C 259.81 154.85 265.77 156.42 259.25 157.25 C 252.73 158.08 228.58 161.73 220.75 162.75 C 212.92 163.77 213.73 163.12 212.25 163.38 C 210.77 163.62 211.75 163.62 211.88 164.25 C 212.00 164.88 212.17 166.12 213.00 167.12 C 213.83 168.12 214.60 168.98 216.88 170.25 C 219.15 171.52 224.06 173.67 226.62 174.75 C 229.19 175.83 230.38 176.25 232.25 176.75 C 234.12 177.25 236.02 177.58 237.88 177.75 C 239.73 177.92 239.75 178.27 243.38 177.75 C 247.00 177.23 256.88 177.96 259.62 174.62 Z" id="s-5-f-4"/>
</g>
<g id="s-6" clip-path="url(#c-s-6)">
<use href="#s-6-f-0"/>
<path d="M 298.50 168.50 C 296.58 168.52 289.96 169.31 287.75 169.62 C 285.54 169.94 286.48 170.21 285.25 170.38 C 284.02 170.54 281.75 170.38 280.38 170.62 C 279.00 170.88 277.10 169.94 277.00 171.88 C 276.90 173.81 279.12 179.35 279.75 182.25 C 280.38 185.15 280.73 184.88 280.75 189.25 C 280.77 193.62 280.21 204.83 279.88 208.50 C 279.54 212.17 278.71 209.85 278.75 211.25 C 278.79 212.65 276.65 215.94 280.12 216.88 C 283.60 217.81 296.33 224.27 299.62 216.88 C 302.92 209.48 299.94 180.40 299.88 172.50 C 299.81 164.60 299.48 170.17 299.25 169.50 C 299.02 168.83 300.42 168.48 298.50 168.50 Z" id="s-6-f-1"/>
</g>
<g id="s-7" clip-path="url(#c-s-7)">
<use href="#s-7-f-0"/>
<path d="M 276.00 225.25 C 276.10 222.65 276.29 212.94 276.00 210.25 C 275.71 207.56 275.65 209.31 274.25 209.12 C 272.85 208.94 269.96 208.69 267.62 209.12 C 265.29 209.56 264.27 210.81 260.25 211.75 C 256.23 212.69 248.31 214.02 243.50 214.75 C 238.69 215.48 233.92 215.71 231.38 216.12 C 228.83 216.54 228.71 216.94 228.25 217.25 C 227.79 217.56 226.02 215.73 228.62 218.00 C 231.23 220.27 236.08 229.56 243.88 230.88 C 251.67 232.19 270.02 226.81 275.38 225.88 C 280.73 224.94 275.90 227.85 276.00 225.25 Z" id="s-7-f-1"/>
</g>
<g id="s-8" clip-path="url(#c-s-8)">
<use href="#s-8-f-0"/>
<path d="M 212.88 216.25 C 212.54 216.75 212.02 217.29 212.00 218.25 C 211.98 219.21 211.88 220.81 212.75 222.00 C 213.62 223.19 216.10 224.40 217.25 225.38 C 218.40 226.35 219.04 227.17 219.62 227.88 C 220.21 228.58 220.23 228.35 220.75 229.62 C 221.27 230.90 221.83 231.54 222.75 235.50 C 223.67 239.46 225.08 248.08 226.25 253.38 C 227.42 258.67 229.12 264.25 229.75 267.25 C 230.38 270.25 229.79 270.06 230.00 271.38 C 230.21 272.69 230.00 273.00 231.00 275.12 C 232.00 277.25 234.73 282.17 236.00 284.12 C 237.27 286.08 237.90 286.27 238.62 286.88 C 239.35 287.48 239.67 287.65 240.38 287.75 C 241.08 287.85 242.25 287.83 242.88 287.50 C 243.50 287.17 243.60 286.85 244.12 285.75 C 244.65 284.65 245.48 281.92 246.00 280.88 C 246.52 279.83 246.83 279.67 247.25 279.50 C 247.67 279.33 247.58 279.83 248.50 279.88 C 249.42 279.92 249.96 280.23 252.75 279.75 C 255.54 279.27 261.92 277.60 265.25 277.00 C 268.58 276.40 266.69 276.48 272.75 276.12 C 278.81 275.77 295.12 275.27 301.62 274.88 C 308.12 274.48 310.08 274.33 311.75 273.75 C 313.42 273.17 311.90 272.17 311.62 271.38 C 311.35 270.58 311.19 270.08 310.12 269.00 C 309.06 267.92 307.88 266.38 305.25 264.88 C 302.62 263.38 297.33 261.15 294.38 260.00 C 291.42 258.85 289.48 258.31 287.50 258.00 C 285.52 257.69 284.79 257.35 282.50 258.12 C 280.21 258.90 276.58 261.35 273.75 262.62 C 270.92 263.90 269.77 264.73 265.50 265.75 C 261.23 266.77 251.19 268.29 248.12 268.75 C 245.06 269.21 247.42 270.46 247.12 268.50 C 246.83 266.54 246.90 262.15 246.38 257.00 C 245.85 251.85 244.44 242.12 244.00 237.62 C 243.56 233.12 245.96 233.17 243.75 230.00 C 241.54 226.83 233.35 220.81 230.75 218.62 C 228.15 216.44 229.73 217.48 228.12 216.88 C 226.52 216.27 223.21 215.33 221.12 215.00 C 219.04 214.67 216.81 214.83 215.62 214.88 C 214.44 214.92 214.46 215.02 214.00 215.25 C 213.54 215.48 213.21 215.75 212.88 216.25 Z" id="s-8-f-1"/>
<path d="M 212.88 216.25 C 212.54 216.75 212.02 217.29 212.00 218.25 C 211.98 219.21 211.88 220.81 212.75 222.00 C 213.62 223.19 216.10 224.40 217.25 225.38 C 218.40 226.35 219.04 227.17 219.62 227.88 C 220.21 228.58 220.23 228.35 220.75 229.62 C 221.27 230.90 221.83 231.54 222.75 235.50 C 223.67 239.46 225.08 248.08 226.25 253.38 C 227.42 258.67 229.12 264.25 229.75 267.25 C 230.38 270.25 229.79 270.06 230.00 271.38 C 230.21 272.69 230.00 273.00 231.00 275.12 C 232.00 277.25 234.73 282.17 236.00 284.12 C 237.27 286.08 237.90 286.27 238.62 286.88 C 239.35 287.48 239.67 287.65 240.38 287.75 C 241.08 287.85 242.25 287.83 242.88 287.50 C 243.50 287.17 243.77 286.56 244.12 285.75 C 244.48 284.94 244.48 283.67 245.00 282.62 C 245.52 281.58 246.67 279.96 247.25 279.50 C 247.83 279.04 247.58 279.83 248.50 279.88 C 249.42 279.92 249.96 280.23 252.75 279.75 C 255.54 279.27 261.92 277.60 265.25 277.00 C 268.58 276.40 269.29 276.33 272.75 276.12 C 276.21 275.92 282.33 275.96 286.00 275.75 C 289.67 275.54 293.29 277.44 294.75 274.88 C 296.21 272.31 295.96 263.19 294.75 260.38 C 293.54 257.56 289.54 258.38 287.50 258.00 C 285.46 257.62 284.69 257.40 282.50 258.12 C 280.31 258.85 277.21 261.10 274.38 262.38 C 271.54 263.65 269.88 264.69 265.50 265.75 C 261.12 266.81 251.19 268.29 248.12 268.75 C 245.06 269.21 247.42 270.46 247.12 268.50 C 246.83 266.54 246.90 262.15 246.38 257.00 C 245.85 251.85 244.44 242.12 244.00 237.62 C 243.56 233.12 245.96 233.17 243.75 230.00 C 241.54 226.83 233.35 220.81 230.75 218.62 C 228.15 216.44 229.73 217.48 228.12 216.88 C 226.52 216.27 223.21 215.33 221.12 215.00 C 219.04 214.67 216.81 214.83 215.62 214.88 C 214.44 214.92 214.46 215.02 214.00 215.25 C 213.54 215.48 213.21 215.75 212.88 216.25 Z" id="s-8-f-2"/>
<path d="M 214.00 215.25 C 213.44 215.73 212.42 216.83 212.12 217.75 C 211.83 218.67 212.02 219.90 212.25 220.75 C 212.48 221.60 212.67 222.10 213.50 222.88 C 214.33 223.65 216.23 224.54 217.25 225.38 C 218.27 226.21 218.88 226.71 219.62 227.88 C 220.38 229.04 221.06 230.48 221.75 232.38 C 222.44 234.27 223.00 235.75 223.75 239.25 C 224.50 242.75 225.25 248.69 226.25 253.38 C 227.25 258.06 229.10 264.25 229.75 267.38 C 230.40 270.50 229.90 270.81 230.12 272.12 C 230.35 273.44 230.60 274.00 231.12 275.25 C 231.65 276.50 232.31 277.98 233.25 279.62 C 234.19 281.27 235.67 283.81 236.75 285.12 C 237.83 286.44 238.88 287.04 239.75 287.50 C 240.62 287.96 241.33 288.04 242.00 287.88 C 242.67 287.71 243.25 287.38 243.75 286.50 C 244.25 285.62 244.50 283.73 245.00 282.62 C 245.50 281.52 246.42 280.60 246.75 279.88 C 247.08 279.15 247.00 281.33 247.00 278.25 C 247.00 275.17 247.25 268.15 246.75 261.38 C 246.25 254.60 244.46 242.77 244.00 237.62 C 243.54 232.48 246.48 233.88 244.00 230.50 C 241.52 227.12 232.75 219.94 229.12 217.38 C 225.50 214.81 224.52 215.54 222.25 215.12 C 219.98 214.71 216.88 214.85 215.50 214.88 C 214.12 214.90 214.56 214.77 214.00 215.25 Z" id="s-8-f-3"/>
<path d="M 214.00 215.25 C 213.44 215.73 212.42 216.83 212.12 217.75 C 211.83 218.67 212.08 219.96 212.25 220.75 C 212.42 221.54 212.29 221.73 213.12 222.50 C 213.96 223.27 215.98 224.19 217.25 225.38 C 218.52 226.56 219.67 227.31 220.75 229.62 C 221.83 231.94 222.83 235.29 223.75 239.25 C 224.67 243.21 225.46 249.52 226.25 253.38 C 227.04 257.23 228.00 260.77 228.50 262.38 C 229.00 263.98 226.25 262.94 229.25 263.00 C 232.25 263.06 243.58 263.08 246.50 262.75 C 249.42 262.42 247.17 265.19 246.75 261.00 C 246.33 256.81 244.50 242.79 244.00 237.62 C 243.50 232.46 245.96 233.17 243.75 230.00 C 241.54 226.83 233.35 220.81 230.75 218.62 C 228.15 216.44 229.54 217.46 228.12 216.88 C 226.71 216.29 224.35 215.46 222.25 215.12 C 220.15 214.79 216.88 214.85 215.50 214.88 C 214.12 214.90 214.56 214.77 214.00 215.25 Z" id="s-8-f-4"/>
</g>
<g id="s-9" clip-path="url(#c-s-9)">
<use href="#s-9-f-0"/>
<path d="M 331.00 165.62 C 330.56 167.42 332.31 169.69 332.62 175.50 C 332.94 181.31 333.12 195.42 332.88 200.50 C 332.62 205.58 331.44 204.25 331.12 206.00 C 330.81 207.75 330.69 209.31 331.00 211.00 C 331.31 212.69 331.85 213.98 333.00 216.12 C 334.15 218.27 336.48 222.10 337.88 223.88 C 339.27 225.65 340.27 226.27 341.38 226.75 C 342.48 227.23 343.71 226.92 344.50 226.75 C 345.29 226.58 345.58 226.25 346.12 225.75 C 346.67 225.25 347.06 225.02 347.75 223.75 C 348.44 222.48 349.65 219.27 350.25 218.12 C 350.85 216.98 350.56 217.10 351.38 216.88 C 352.19 216.65 353.65 216.94 355.12 216.75 C 356.60 216.56 358.50 216.21 360.25 215.75 C 362.00 215.29 361.60 214.96 365.62 214.00 C 369.65 213.04 379.83 210.83 384.38 210.00 C 388.92 209.17 391.19 209.02 392.88 209.00 C 394.56 208.98 394.06 209.52 394.50 209.88 C 394.94 210.23 395.29 210.35 395.50 211.12 C 395.71 211.90 395.90 212.50 395.75 214.50 C 395.60 216.50 395.42 218.54 394.62 223.12 C 393.83 227.71 391.60 238.06 391.00 242.00 C 390.40 245.94 388.23 245.96 391.00 246.75 C 393.77 247.54 403.27 249.79 407.62 246.75 C 411.98 243.71 414.94 232.42 417.12 228.50 C 419.31 224.58 419.52 225.25 420.75 223.25 C 421.98 221.25 423.33 218.27 424.50 216.50 C 425.67 214.73 427.04 213.62 427.75 212.62 C 428.46 211.62 428.60 211.44 428.75 210.50 C 428.90 209.56 429.25 208.38 428.62 207.00 C 428.00 205.62 426.27 203.62 425.00 202.25 C 423.73 200.88 423.38 200.46 421.00 198.75 C 418.62 197.04 413.10 193.46 410.75 192.00 C 408.40 190.54 407.94 190.33 406.88 190.00 C 405.81 189.67 407.38 189.21 404.38 190.00 C 401.38 190.79 393.27 193.50 388.88 194.75 C 384.48 196.00 383.92 196.17 378.00 197.50 C 372.08 198.83 357.54 202.12 353.38 202.75 C 349.21 203.38 352.94 202.73 353.00 201.25 C 353.06 199.77 353.46 200.12 353.75 193.88 C 354.04 187.62 355.83 168.77 354.75 163.75 C 353.67 158.73 348.96 163.65 347.25 163.75 C 345.54 163.85 346.50 164.21 344.50 164.38 C 342.50 164.54 337.50 164.54 335.25 164.75 C 333.00 164.96 331.44 163.83 331.00 165.62 Z" id="s-9-f-1"/>
<path d="M 331.00 165.75 C 330.56 167.56 332.31 169.83 332.62 175.62 C 332.94 181.42 333.12 195.44 332.88 200.50 C 332.62 205.56 331.44 204.25 331.12 206.00 C 330.81 207.75 330.85 209.65 331.00 211.00 C 331.15 212.35 331.19 212.46 332.00 214.12 C 332.81 215.79 334.90 219.38 335.88 221.00 C 336.85 222.62 336.96 222.92 337.88 223.88 C 338.79 224.83 340.29 226.27 341.38 226.75 C 342.46 227.23 343.58 226.92 344.38 226.75 C 345.17 226.58 345.44 226.50 346.12 225.75 C 346.81 225.00 347.79 223.56 348.50 222.25 C 349.21 220.94 349.90 218.77 350.38 217.88 C 350.85 216.98 350.58 217.06 351.38 216.88 C 352.17 216.69 353.65 216.94 355.12 216.75 C 356.60 216.56 358.50 216.21 360.25 215.75 C 362.00 215.29 362.46 214.79 365.62 214.00 C 368.79 213.21 374.62 211.90 379.25 211.00 C 383.88 210.10 386.73 210.48 393.38 208.62 C 400.02 206.77 414.65 201.46 419.12 199.88 C 423.60 198.29 420.08 199.42 420.25 199.12 C 420.42 198.83 421.71 199.31 420.12 198.12 C 418.54 196.94 412.96 193.35 410.75 192.00 C 408.54 190.65 407.94 190.33 406.88 190.00 C 405.81 189.67 407.38 189.21 404.38 190.00 C 401.38 190.79 394.92 193.12 388.88 194.75 C 382.83 196.38 374.04 198.42 368.12 199.75 C 362.21 201.08 355.90 202.50 353.38 202.75 C 350.85 203.00 352.94 202.73 353.00 201.25 C 353.06 199.77 353.44 200.10 353.75 193.88 C 354.06 187.65 354.77 168.94 354.88 163.88 C 354.98 158.81 355.65 163.52 354.38 163.50 C 353.10 163.48 348.90 163.60 347.25 163.75 C 345.60 163.90 346.50 164.21 344.50 164.38 C 342.50 164.54 337.50 164.52 335.25 164.75 C 333.00 164.98 331.44 163.94 331.00 165.75 Z" id="s-9-f-2"/>
<path d="M 399.00 192.25 C 398.77 190.00 400.65 191.25 397.62 192.00 C 394.60 192.75 388.25 194.96 380.88 196.75 C 373.50 198.54 358.02 202.00 353.38 202.75 C 348.73 203.50 352.94 202.73 353.00 201.25 C 353.06 199.77 353.44 200.10 353.75 193.88 C 354.06 187.65 354.77 168.94 354.88 163.88 C 354.98 158.81 355.65 163.52 354.38 163.50 C 353.10 163.48 348.90 163.60 347.25 163.75 C 345.60 163.90 346.50 164.21 344.50 164.38 C 342.50 164.54 337.50 164.52 335.25 164.75 C 333.00 164.98 331.44 163.94 331.00 165.75 C 330.56 167.56 332.31 169.83 332.62 175.62 C 332.94 181.42 333.12 195.42 332.88 200.50 C 332.62 205.58 331.44 204.38 331.12 206.12 C 330.81 207.88 330.85 209.67 331.00 211.00 C 331.15 212.33 331.19 212.46 332.00 214.12 C 332.81 215.79 334.90 219.38 335.88 221.00 C 336.85 222.62 336.96 222.92 337.88 223.88 C 338.79 224.83 340.29 226.27 341.38 226.75 C 342.46 227.23 343.58 226.92 344.38 226.75 C 345.17 226.58 345.44 226.50 346.12 225.75 C 346.81 225.00 347.83 223.50 348.50 222.25 C 349.17 221.00 349.65 219.15 350.12 218.25 C 350.60 217.35 349.69 217.29 351.38 216.88 C 353.06 216.46 357.88 216.23 360.25 215.75 C 362.62 215.27 362.46 214.79 365.62 214.00 C 368.79 213.21 374.71 211.88 379.25 211.00 C 383.79 210.12 389.67 209.44 392.88 208.75 C 396.08 208.06 397.48 207.42 398.50 206.88 C 399.52 206.33 398.92 207.94 399.00 205.50 C 399.08 203.06 399.23 194.50 399.00 192.25 Z" id="s-9-f-3"/>
<path d="M 354.38 163.50 C 351.10 163.54 339.08 164.42 335.25 164.75 C 331.42 165.08 332.10 165.27 331.38 165.50 C 330.65 165.73 330.79 165.50 330.88 166.12 C 330.96 166.75 331.58 167.69 331.88 169.25 C 332.17 170.81 332.46 170.29 332.62 175.50 C 332.79 180.71 333.12 195.40 332.88 200.50 C 332.62 205.60 331.44 204.38 331.12 206.12 C 330.81 207.88 330.85 209.67 331.00 211.00 C 331.15 212.33 331.19 212.46 332.00 214.12 C 332.81 215.79 334.79 219.25 335.88 221.00 C 336.96 222.75 337.58 223.67 338.50 224.62 C 339.42 225.58 340.40 226.40 341.38 226.75 C 342.35 227.10 343.46 227.04 344.38 226.75 C 345.29 226.46 345.79 226.58 346.88 225.00 C 347.96 223.42 350.06 219.17 350.88 217.25 C 351.69 215.33 351.40 215.62 351.75 213.50 C 352.10 211.38 352.48 212.25 353.00 204.50 C 353.52 196.75 354.56 173.67 354.88 167.00 C 355.19 160.33 354.96 165.08 354.88 164.50 C 354.79 163.92 357.65 163.46 354.38 163.50 Z" id="s-9-f-4"/>
<path d="M 354.38 163.50 C 351.10 163.54 339.15 164.38 335.25 164.75 C 331.35 165.12 331.71 165.33 331.00 165.75 C 330.29 166.17 330.85 166.67 331.00 167.25 C 331.15 167.83 331.58 167.02 331.88 169.25 C 332.17 171.48 332.58 175.42 332.75 180.62 C 332.92 185.83 333.17 196.12 332.88 200.50 C 332.58 204.88 331.31 205.10 331.00 206.88 C 330.69 208.65 330.90 210.29 331.00 211.12 C 331.10 211.96 328.40 211.73 331.62 211.88 C 334.85 212.02 347.00 212.06 350.38 212.00 C 353.75 211.94 351.44 212.75 351.88 211.50 C 352.31 210.25 352.50 211.92 353.00 204.50 C 353.50 197.08 354.56 173.67 354.88 167.00 C 355.19 160.33 354.96 165.08 354.88 164.50 C 354.79 163.92 357.65 163.46 354.38 163.50 Z" id="s-9-f-5"/>
</g>
<g id="s-10" clip-path="url(#c-s-10)">
<use href="#s-10-f-0"/>
<path d="M 403.75 253.88 C 403.52 251.83 403.06 252.85 402.62 252.62 C 402.19 252.40 401.56 252.67 401.12 252.50 C 400.69 252.33 401.35 252.15 400.00 251.62 C 398.65 251.10 394.29 249.88 393.00 249.38 C 391.71 248.88 392.85 248.85 392.25 248.62 C 391.65 248.40 390.52 248.10 389.38 248.00 C 388.23 247.90 387.42 247.52 385.38 248.00 C 383.33 248.48 381.58 249.85 377.12 250.88 C 372.67 251.90 362.10 253.46 358.62 254.12 C 355.15 254.79 356.73 254.58 356.25 254.88 C 355.77 255.17 355.19 253.12 355.75 255.88 C 356.31 258.62 358.65 268.73 359.62 271.38 C 360.60 274.02 360.92 271.79 361.62 271.75 C 362.33 271.71 362.40 271.29 363.88 271.12 C 365.35 270.96 365.81 271.44 370.50 270.75 C 375.19 270.06 386.52 267.77 392.00 267.00 C 397.48 266.23 401.38 266.48 403.38 266.12 C 405.38 265.77 403.94 266.92 404.00 264.88 C 404.06 262.83 403.98 255.92 403.75 253.88 Z" id="s-10-f-1"/>
</g>
<g id="s-11" clip-path="url(#c-s-11)">
<use href="#s-11-f-0"/>
<path d="M 330.00 252.12 C 329.33 252.69 329.29 252.67 329.12 253.50 C 328.96 254.33 328.60 255.98 329.00 257.12 C 329.40 258.27 330.85 259.31 331.50 260.38 C 332.15 261.44 332.35 261.77 332.88 263.50 C 333.40 265.23 334.25 265.02 334.62 270.75 C 335.00 276.48 331.50 293.38 335.12 297.88 C 338.75 302.38 352.46 299.85 356.38 297.75 C 360.29 295.65 358.17 288.56 358.62 285.25 C 359.08 281.94 358.85 280.31 359.12 277.88 C 359.40 275.44 360.71 274.38 360.25 270.62 C 359.79 266.88 357.23 258.15 356.38 255.38 C 355.52 252.60 355.65 254.38 355.12 254.00 C 354.60 253.62 355.48 253.77 353.25 253.12 C 351.02 252.48 344.75 250.67 341.75 250.12 C 338.75 249.58 336.69 249.88 335.25 249.88 C 333.81 249.88 334.00 249.75 333.12 250.12 C 332.25 250.50 330.67 251.56 330.00 252.12 Z" id="s-11-f-1"/>
</g>
<g id="s-12" clip-path="url(#c-s-12)">
<use href="#s-12-f-0"/>
<path d="M 422.62 301.12 C 422.17 297.67 423.15 300.56 420.12 301.00 C 417.10 301.44 415.10 302.46 404.50 303.75 C 393.90 305.04 366.92 307.92 356.50 308.75 C 346.08 309.58 349.06 308.23 342.00 308.75 C 334.94 309.27 320.85 311.21 314.12 311.88 C 307.40 312.54 304.81 312.62 301.62 312.75 C 298.44 312.88 296.67 312.52 295.00 312.62 C 293.33 312.73 293.29 313.21 291.62 313.38 C 289.96 313.54 286.88 313.38 285.00 313.62 C 283.12 313.88 284.00 314.46 280.38 314.88 C 276.75 315.29 270.15 315.48 263.25 316.12 C 256.35 316.77 251.44 317.94 239.00 318.75 C 226.56 319.56 197.52 320.46 188.62 321.00 C 179.73 321.54 186.38 321.62 185.62 322.00 C 184.88 322.38 184.56 322.75 184.12 323.25 C 183.69 323.75 183.21 324.31 183.00 325.00 C 182.79 325.69 182.62 326.56 182.88 327.38 C 183.12 328.19 183.58 328.98 184.50 329.88 C 185.42 330.77 186.15 331.46 188.38 332.75 C 190.60 334.04 193.90 335.98 197.88 337.62 C 201.85 339.27 208.50 341.58 212.25 342.62 C 216.00 343.67 218.02 343.71 220.38 343.88 C 222.73 344.04 222.08 344.27 226.38 343.62 C 230.67 342.98 238.17 341.27 246.12 340.00 C 254.08 338.73 264.12 337.17 274.12 336.00 C 284.12 334.83 294.60 333.83 306.12 333.00 C 317.65 332.17 331.88 331.50 343.25 331.00 C 354.62 330.50 364.69 330.17 374.38 330.00 C 384.06 329.83 393.35 329.85 401.38 330.00 C 409.40 330.15 418.92 332.25 422.50 330.88 C 426.08 329.50 422.85 326.71 422.88 321.75 C 422.90 316.79 423.08 304.58 422.62 301.12 Z" id="s-12-f-1"/>
<path d="M 374.75 313.88 C 374.65 310.52 374.38 309.50 374.12 308.38 C 373.88 307.25 376.19 307.06 373.25 307.12 C 370.31 307.19 361.44 308.50 356.50 308.75 C 351.56 309.00 350.40 308.12 343.62 308.62 C 336.85 309.12 322.85 311.06 315.88 311.75 C 308.90 312.44 305.23 312.60 301.75 312.75 C 298.27 312.90 296.69 312.52 295.00 312.62 C 293.31 312.73 293.29 313.21 291.62 313.38 C 289.96 313.54 286.88 313.38 285.00 313.62 C 283.12 313.88 284.00 314.46 280.38 314.88 C 276.75 315.29 270.15 315.48 263.25 316.12 C 256.35 316.77 251.44 317.94 239.00 318.75 C 226.56 319.56 197.50 320.46 188.62 321.00 C 179.75 321.54 186.50 321.62 185.75 322.00 C 185.00 322.38 184.58 322.75 184.12 323.25 C 183.67 323.75 183.21 324.31 183.00 325.00 C 182.79 325.69 182.62 326.56 182.88 327.38 C 183.12 328.19 183.58 328.98 184.50 329.88 C 185.42 330.77 186.83 331.77 188.38 332.75 C 189.92 333.73 191.33 334.60 193.75 335.75 C 196.17 336.90 199.02 338.31 202.88 339.62 C 206.73 340.94 213.10 342.94 216.88 343.62 C 220.65 344.31 218.42 344.69 225.50 343.75 C 232.58 342.81 248.10 339.62 259.38 338.00 C 270.65 336.38 282.08 335.02 293.12 334.00 C 304.17 332.98 312.10 332.54 325.62 331.88 C 339.15 331.21 366.06 330.56 374.25 330.00 C 382.44 329.44 374.67 331.19 374.75 328.50 C 374.83 325.81 374.85 317.23 374.75 313.88 Z" id="s-12-f-2"/>
<path d="M 326.50 310.75 C 322.31 307.62 307.00 312.44 301.75 312.75 C 296.50 313.06 296.69 312.52 295.00 312.62 C 293.31 312.73 293.29 313.21 291.62 313.38 C 289.96 313.54 286.88 313.38 285.00 313.62 C 283.12 313.88 284.00 314.46 280.38 314.88 C 276.75 315.29 270.15 315.48 263.25 316.12 C 256.35 316.77 251.44 317.94 239.00 318.75 C 226.56 319.56 197.52 320.46 188.62 321.00 C 179.73 321.54 186.38 321.62 185.62 322.00 C 184.88 322.38 184.56 322.75 184.12 323.25 C 183.69 323.75 183.21 324.31 183.00 325.00 C 182.79 325.69 182.62 326.56 182.88 327.38 C 183.12 328.19 183.58 328.98 184.50 329.88 C 185.42 330.77 186.83 331.77 188.38 332.75 C 189.92 333.73 191.71 334.75 193.75 335.75 C 195.79 336.75 198.10 337.77 200.62 338.75 C 203.15 339.73 206.17 340.81 208.88 341.62 C 211.58 342.44 214.10 343.27 216.88 343.62 C 219.65 343.98 220.62 344.35 225.50 343.75 C 230.38 343.15 238.02 341.29 246.12 340.00 C 254.23 338.71 266.29 337.00 274.12 336.00 C 281.96 335.00 284.42 334.69 293.12 334.00 C 301.83 333.31 320.75 332.29 326.38 331.88 C 332.00 331.46 326.85 335.02 326.88 331.50 C 326.90 327.98 330.69 313.88 326.50 310.75 Z" id="s-12-f-3"/>
<path d="M 278.88 315.38 C 278.75 312.25 286.77 314.31 278.25 315.00 C 269.73 315.69 242.67 318.50 227.75 319.50 C 212.83 320.50 195.75 320.58 188.75 321.00 C 181.75 321.42 186.52 321.62 185.75 322.00 C 184.98 322.38 184.58 322.75 184.12 323.25 C 183.67 323.75 183.21 324.31 183.00 325.00 C 182.79 325.69 182.62 326.56 182.88 327.38 C 183.12 328.19 183.58 328.98 184.50 329.88 C 185.42 330.77 186.83 331.77 188.38 332.75 C 189.92 333.73 191.71 334.75 193.75 335.75 C 195.79 336.75 198.12 337.77 200.62 338.75 C 203.12 339.73 206.12 340.83 208.75 341.62 C 211.38 342.42 214.40 343.12 216.38 343.50 C 218.35 343.88 218.98 343.85 220.62 343.88 C 222.27 343.90 220.92 344.44 226.25 343.62 C 231.58 342.81 243.92 340.33 252.62 339.00 C 261.33 337.67 274.10 336.50 278.50 335.62 C 282.90 334.75 278.94 337.12 279.00 333.75 C 279.06 330.38 279.00 318.50 278.88 315.38 Z" id="s-12-f-4"/>
<path d="M 230.88 342.25 C 231.00 338.67 231.00 325.10 231.00 321.38 C 231.00 317.65 231.00 320.23 230.88 319.88 C 230.75 319.52 237.21 319.06 230.25 319.25 C 223.29 319.44 196.56 320.54 189.12 321.00 C 181.69 321.46 186.62 321.38 185.62 322.00 C 184.62 322.62 183.56 323.75 183.12 324.75 C 182.69 325.75 182.56 326.98 183.00 328.00 C 183.44 329.02 184.29 329.75 185.75 330.88 C 187.21 332.00 188.90 333.29 191.75 334.75 C 194.60 336.21 198.69 338.15 202.88 339.62 C 207.06 341.10 213.17 342.94 216.88 343.62 C 220.58 344.31 222.90 343.88 225.12 343.75 C 227.35 343.62 229.29 343.12 230.25 342.88 C 231.21 342.62 230.75 345.83 230.88 342.25 Z" id="s-12-f-5"/>
</g>
<g id="s-13" clip-path="url(#c-s-13)">
<use href="#s-13-f-0"/>
<path d="M 216.62 366.00 C 215.96 365.67 215.38 365.77 214.75 366.12 C 214.12 366.48 213.38 367.12 212.88 368.12 C 212.38 369.12 212.60 370.06 211.75 372.12 C 210.90 374.19 209.77 376.81 207.75 380.50 C 205.73 384.19 202.75 389.27 199.62 394.25 C 196.50 399.23 190.94 407.23 189.00 410.38 C 187.06 413.52 188.12 412.56 188.00 413.12 C 187.88 413.69 182.81 413.62 188.25 413.75 C 193.69 413.88 215.10 413.94 220.62 413.88 C 226.15 413.81 220.85 414.62 221.38 413.38 C 221.90 412.12 223.06 408.85 223.75 406.38 C 224.44 403.90 225.17 401.69 225.50 398.50 C 225.83 395.31 225.88 389.92 225.75 387.25 C 225.62 384.58 225.27 384.31 224.75 382.50 C 224.23 380.69 223.62 378.77 222.62 376.38 C 221.62 373.98 219.75 369.85 218.75 368.12 C 217.75 366.40 217.29 366.33 216.62 366.00 Z" id="s-13-f-1"/>
</g>
<g id="s-14" clip-path="url(#c-s-14)">
<use href="#s-14-f-0"/>
<path d="M 244.00 370.38 C 243.62 371.08 243.54 371.17 244.00 372.38 C 244.46 373.58 244.58 371.79 246.75 377.62 C 248.92 383.46 254.60 400.98 257.00 407.38 C 259.40 413.77 259.15 412.58 261.12 416.00 C 263.10 419.42 266.69 424.79 268.88 427.88 C 271.06 430.96 271.54 431.90 274.25 434.50 C 276.96 437.10 281.58 441.00 285.12 443.50 C 288.67 446.00 292.15 447.79 295.50 449.50 C 298.85 451.21 300.92 452.21 305.25 453.75 C 309.58 455.29 316.12 457.42 321.50 458.75 C 326.88 460.08 332.46 461.06 337.50 461.75 C 342.54 462.44 346.42 462.71 351.75 462.88 C 357.08 463.04 364.69 462.94 369.50 462.75 C 374.31 462.56 376.04 462.44 380.62 461.75 C 385.21 461.06 391.79 459.98 397.00 458.62 C 402.21 457.27 408.12 455.10 411.88 453.62 C 415.62 452.15 417.38 450.94 419.50 449.75 C 421.62 448.56 423.04 447.71 424.62 446.50 C 426.21 445.29 427.98 443.67 429.00 442.50 C 430.02 441.33 430.46 440.71 430.75 439.50 C 431.04 438.29 431.08 436.62 430.75 435.25 C 430.42 433.88 429.65 432.48 428.75 431.25 C 427.85 430.02 426.83 428.94 425.38 427.88 C 423.92 426.81 421.42 425.38 420.00 424.88 C 418.58 424.38 420.38 424.42 416.88 424.88 C 413.38 425.33 405.17 426.79 399.00 427.62 C 392.83 428.46 383.85 429.31 379.88 429.88 C 375.90 430.44 377.56 430.19 375.12 431.00 C 372.69 431.81 368.48 433.79 365.25 434.75 C 362.02 435.71 358.46 436.29 355.75 436.75 C 353.04 437.21 352.42 437.33 349.00 437.50 C 345.58 437.67 339.17 437.85 335.25 437.75 C 331.33 437.65 328.21 437.21 325.50 436.88 C 322.79 436.54 321.88 436.46 319.00 435.75 C 316.12 435.04 311.67 433.83 308.25 432.62 C 304.83 431.42 301.33 429.81 298.50 428.50 C 295.67 427.19 293.42 426.04 291.25 424.75 C 289.08 423.46 287.67 422.65 285.50 420.75 C 283.33 418.85 280.52 416.10 278.25 413.38 C 275.98 410.65 273.58 407.10 271.88 404.38 C 270.17 401.65 269.48 400.52 268.00 397.00 C 266.52 393.48 264.06 386.73 263.00 383.25 C 261.94 379.77 262.29 377.94 261.62 376.12 C 260.96 374.31 260.21 373.54 259.00 372.38 C 257.79 371.21 255.67 369.85 254.38 369.12 C 253.08 368.40 252.60 368.17 251.25 368.00 C 249.90 367.83 247.46 367.73 246.25 368.12 C 245.04 368.52 244.38 369.67 244.00 370.38 Z" id="s-14-f-1"/>
<path d="M 244.12 370.12 C 243.75 370.83 243.56 371.12 244.00 372.38 C 244.44 373.62 244.75 372.19 246.75 377.62 C 248.75 383.06 253.60 398.60 256.00 405.00 C 258.40 411.40 259.38 412.73 261.12 416.00 C 262.88 419.27 264.44 421.67 266.50 424.62 C 268.56 427.58 271.04 431.08 273.50 433.75 C 275.96 436.42 278.73 438.62 281.25 440.62 C 283.77 442.62 285.54 443.94 288.62 445.75 C 291.71 447.56 296.04 449.83 299.75 451.50 C 303.46 453.17 306.67 454.40 310.88 455.75 C 315.08 457.10 320.73 458.65 325.00 459.62 C 329.27 460.60 332.04 461.08 336.50 461.62 C 340.96 462.17 346.25 462.69 351.75 462.88 C 357.25 463.06 364.40 462.98 369.50 462.75 C 374.60 462.52 379.33 461.90 382.38 461.50 C 385.42 461.10 386.85 465.77 387.75 460.38 C 388.65 454.98 389.02 434.21 387.75 429.12 C 386.48 424.04 382.15 429.58 380.12 429.88 C 378.10 430.17 377.56 430.23 375.62 430.88 C 373.69 431.52 370.92 432.94 368.50 433.75 C 366.08 434.56 363.25 435.25 361.12 435.75 C 359.00 436.25 358.52 436.42 355.75 436.75 C 352.98 437.08 347.92 437.58 344.50 437.75 C 341.08 437.92 338.58 437.92 335.25 437.75 C 331.92 437.58 327.88 437.25 324.50 436.75 C 321.12 436.25 318.08 435.58 315.00 434.75 C 311.92 433.92 309.96 433.42 306.00 431.75 C 302.04 430.08 294.67 426.58 291.25 424.75 C 287.83 422.92 287.67 422.65 285.50 420.75 C 283.33 418.85 280.52 416.10 278.25 413.38 C 275.98 410.65 273.58 407.10 271.88 404.38 C 270.17 401.65 269.48 400.52 268.00 397.00 C 266.52 393.48 264.06 386.73 263.00 383.25 C 261.94 379.77 262.29 377.94 261.62 376.12 C 260.96 374.31 260.25 373.56 259.00 372.38 C 257.75 371.19 255.42 369.73 254.12 369.00 C 252.83 368.27 252.56 368.15 251.25 368.00 C 249.94 367.85 247.44 367.77 246.25 368.12 C 245.06 368.48 244.50 369.42 244.12 370.12 Z" id="s-14-f-2"/>
<path d="M 244.75 369.25 C 244.27 369.65 244.12 369.85 244.00 370.38 C 243.88 370.90 243.54 371.17 244.00 372.38 C 244.46 373.58 244.92 372.65 246.75 377.62 C 248.58 382.60 253.10 396.83 255.00 402.25 C 256.90 407.67 256.46 406.77 258.12 410.12 C 259.79 413.48 262.25 418.25 265.00 422.38 C 267.75 426.50 271.92 431.83 274.62 434.88 C 277.33 437.92 278.92 438.81 281.25 440.62 C 283.58 442.44 286.21 444.25 288.62 445.75 C 291.04 447.25 293.04 448.31 295.75 449.62 C 298.46 450.94 301.92 452.46 304.88 453.62 C 307.83 454.79 310.04 455.60 313.50 456.62 C 316.96 457.65 321.62 458.90 325.62 459.75 C 329.62 460.60 335.10 461.48 337.50 461.75 C 339.90 462.02 339.62 465.33 340.00 461.38 C 340.38 457.42 342.33 442.10 339.75 438.00 C 337.17 433.90 329.19 437.46 324.50 436.75 C 319.81 436.04 316.27 435.27 311.62 433.75 C 306.98 432.23 300.02 429.12 296.62 427.62 C 293.23 426.12 293.10 425.90 291.25 424.75 C 289.40 423.60 287.67 422.65 285.50 420.75 C 283.33 418.85 280.00 415.31 278.25 413.38 C 276.50 411.44 276.38 411.17 275.00 409.12 C 273.62 407.08 271.69 404.44 270.00 401.12 C 268.31 397.81 266.21 392.88 264.88 389.25 C 263.54 385.62 262.52 381.50 262.00 379.38 C 261.48 377.25 262.08 377.50 261.75 376.50 C 261.42 375.50 260.98 374.46 260.00 373.38 C 259.02 372.29 257.21 370.88 255.88 370.00 C 254.54 369.12 253.50 368.46 252.00 368.12 C 250.50 367.79 248.08 367.81 246.88 368.00 C 245.67 368.19 245.23 368.85 244.75 369.25 Z" id="s-14-f-3"/>
<path d="M 246.25 368.12 C 244.94 368.46 244.50 369.42 244.12 370.12 C 243.75 370.83 243.56 371.12 244.00 372.38 C 244.44 373.62 244.75 372.19 246.75 377.62 C 248.75 383.06 253.60 398.60 256.00 405.00 C 258.40 411.40 259.38 412.73 261.12 416.00 C 262.88 419.27 264.44 421.67 266.50 424.62 C 268.56 427.58 270.77 430.88 273.50 433.75 C 276.23 436.62 280.08 439.71 282.88 441.88 C 285.67 444.04 288.81 445.88 290.25 446.75 C 291.69 447.62 291.21 447.33 291.50 447.12 C 291.79 446.92 291.94 449.15 292.00 445.50 C 292.06 441.85 292.96 429.38 291.88 425.25 C 290.79 421.12 287.27 422.17 285.50 420.75 C 283.73 419.33 283.00 418.69 281.25 416.75 C 279.50 414.81 276.67 411.35 275.00 409.12 C 273.33 406.90 272.73 406.15 271.25 403.38 C 269.77 400.60 267.50 395.85 266.12 392.50 C 264.75 389.15 263.73 385.92 263.00 383.25 C 262.27 380.58 262.25 378.15 261.75 376.50 C 261.25 374.85 261.02 374.48 260.00 373.38 C 258.98 372.27 256.96 370.75 255.62 369.88 C 254.29 369.00 253.56 368.42 252.00 368.12 C 250.44 367.83 247.56 367.79 246.25 368.12 Z" id="s-14-f-4"/>
</g>
<g id="s-15" clip-path="url(#c-s-15)">
<use href="#s-15-f-0"/>
<path d="M 292.00 353.50 C 291.69 353.96 291.69 354.06 292.12 354.75 C 292.56 355.44 292.83 354.85 294.62 357.62 C 296.42 360.40 300.31 367.31 302.88 371.38 C 305.44 375.44 307.67 378.75 310.00 382.00 C 312.33 385.25 314.75 388.40 316.88 390.88 C 319.00 393.35 321.12 395.40 322.75 396.88 C 324.38 398.35 325.44 399.08 326.62 399.75 C 327.81 400.42 328.58 400.73 329.88 400.88 C 331.17 401.02 333.21 400.83 334.38 400.62 C 335.54 400.42 336.06 400.10 336.88 399.62 C 337.69 399.15 338.75 398.23 339.25 397.75 C 339.75 397.27 339.75 397.23 339.88 396.75 C 340.00 396.27 340.00 399.00 340.00 394.88 C 340.00 390.75 340.58 376.73 339.88 372.00 C 339.17 367.27 337.25 368.00 335.75 366.50 C 334.25 365.00 332.67 364.08 330.88 363.00 C 329.08 361.92 328.50 361.50 325.00 360.00 C 321.50 358.50 313.75 355.31 309.88 354.00 C 306.00 352.69 304.40 352.46 301.75 352.12 C 299.10 351.79 295.62 351.77 294.00 352.00 C 292.38 352.23 292.31 353.04 292.00 353.50 Z" id="s-15-f-1"/>
</g>
<g id="s-16" clip-path="url(#c-s-16)">
<use href="#s-16-f-0"/>
<path d="M 386.75 346.00 C 385.65 346.17 386.00 346.73 385.88 347.25 C 385.75 347.77 385.67 348.42 386.00 349.12 C 386.33 349.83 386.44 350.21 387.88 351.50 C 389.31 352.79 389.54 351.71 394.62 356.88 C 399.71 362.04 413.50 377.10 418.38 382.50 C 423.25 387.90 421.38 386.54 423.88 389.25 C 426.38 391.96 431.73 397.19 433.38 398.75 C 435.02 400.31 433.65 404.54 433.75 398.62 C 433.85 392.71 434.02 369.67 434.00 363.25 C 433.98 356.83 434.77 361.17 433.62 360.12 C 432.48 359.08 431.54 358.69 427.12 357.00 C 422.71 355.31 412.90 351.79 407.12 350.00 C 401.35 348.21 395.90 346.92 392.50 346.25 C 389.10 345.58 387.85 345.83 386.75 346.00 Z" id="s-16-f-1"/>
</g>
</svg>