<?xml version="1.0" encoding="UTF-8"?>
<svg xmlns="http://www.w3.org/2000/svg" viewBox="0 0 500 500">
<defs>
<path d="M 191.00 61.12 C 188.15 59.25 185.52 58.02 183.00 57.00 C 180.48 55.98 178.12 55.29 175.88 55.00 C 173.62 54.71 171.15 54.69 169.50 55.25 C 167.85 55.81 166.75 57.35 166.00 58.38 C 165.25 59.40 165.23 59.17 165.00 61.38 C 164.77 63.58 165.00 67.67 164.62 71.62 C 164.25 75.58 163.75 80.29 162.75 85.12 C 161.75 89.96 160.02 96.15 158.62 100.62 C 157.23 105.10 156.38 107.29 154.38 112.00 C 152.38 116.71 149.10 123.67 146.62 128.88 C 144.15 134.08 141.98 138.50 139.50 143.25 C 137.02 148.00 134.88 151.96 131.75 157.38 C 128.62 162.79 123.96 170.58 120.75 175.75 C 117.54 180.92 116.38 182.83 112.50 188.38 C 108.62 193.92 102.33 202.50 97.50 209.00 C 92.67 215.50 88.15 221.46 83.50 227.38 C 78.85 233.29 74.27 239.00 69.62 244.50 C 64.98 250.00 60.12 255.52 55.62 260.38 C 51.12 265.23 45.88 270.19 42.62 273.62 C 39.38 277.06 37.42 279.38 36.12 281.00 C 34.83 282.62 35.08 282.81 34.88 283.38 C 34.67 283.94 34.71 284.02 34.88 284.38 C 35.04 284.73 34.96 285.27 35.88 285.50 C 36.79 285.73 38.98 285.92 40.38 285.75 C 41.77 285.58 42.65 285.17 44.25 284.50 C 45.85 283.83 47.90 282.90 50.00 281.75 C 52.10 280.60 52.65 280.48 56.88 277.62 C 61.10 274.77 69.44 269.15 75.38 264.62 C 81.31 260.10 87.38 255.04 92.50 250.50 C 97.62 245.96 102.12 241.50 106.12 237.38 C 110.12 233.25 113.17 229.71 116.50 225.75 C 119.83 221.79 123.56 216.69 126.12 213.62 C 128.69 210.56 127.88 212.58 131.88 207.38 C 135.88 202.17 143.67 191.75 150.12 182.38 C 156.58 173.00 164.02 161.79 170.62 151.12 C 177.23 140.46 185.31 126.17 189.75 118.38 C 194.19 110.58 195.08 108.02 197.25 104.38 C 199.42 100.73 200.98 98.85 202.75 96.50 C 204.52 94.15 206.73 91.90 207.88 90.25 C 209.02 88.60 209.31 88.12 209.62 86.62 C 209.94 85.12 210.21 83.10 209.75 81.25 C 209.29 79.40 208.48 77.67 206.88 75.50 C 205.27 73.33 202.77 70.65 200.12 68.25 C 197.48 65.85 193.85 63.00 191.00 61.12 Z" id="s-0-f-0"/>
<clipPath id="c-s-0"><use href="#s-0-f-0"/></clipPath>
<path d="M 150.12 180.62 C 149.38 181.25 149.33 182.44 147.25 185.38 C 145.17 188.31 138.77 193.77 137.62 198.25 C 136.48 202.73 139.69 207.04 140.38 212.25 C 141.06 217.46 141.54 220.71 141.75 229.50 C 141.96 238.29 141.79 254.08 141.62 265.00 C 141.46 275.92 141.17 285.27 140.75 295.00 C 140.33 304.73 139.79 314.56 139.12 323.38 C 138.46 332.19 137.48 341.54 136.75 347.88 C 136.02 354.21 135.58 356.75 134.75 361.38 C 133.92 366.00 132.69 371.90 131.75 375.62 C 130.81 379.35 130.44 378.96 129.12 383.75 C 127.81 388.54 124.73 400.27 123.88 404.38 C 123.02 408.48 123.62 406.40 124.00 408.38 C 124.38 410.35 124.10 410.92 126.12 416.25 C 128.15 421.58 133.75 435.27 136.12 440.38 C 138.50 445.48 139.35 445.50 140.38 446.88 C 141.40 448.25 141.44 448.12 142.25 448.62 C 143.06 449.12 144.38 449.71 145.25 449.88 C 146.12 450.04 146.85 449.85 147.50 449.62 C 148.15 449.40 148.56 449.02 149.12 448.50 C 149.69 447.98 150.29 447.35 150.88 446.50 C 151.46 445.65 151.50 446.33 152.62 443.38 C 153.75 440.42 156.46 432.54 157.62 428.75 C 158.79 424.96 159.10 423.21 159.62 420.62 C 160.15 418.04 159.90 428.50 160.75 413.25 C 161.60 398.00 164.02 350.56 164.75 329.12 C 165.48 307.69 164.92 297.27 165.12 284.62 C 165.33 271.98 165.67 261.33 166.00 253.25 C 166.33 245.17 166.31 242.71 167.12 236.12 C 167.94 229.54 170.27 218.00 170.88 213.75 C 171.48 209.50 170.92 211.58 170.75 210.62 C 170.58 209.67 170.69 209.71 169.88 208.00 C 169.06 206.29 168.04 203.77 165.88 200.38 C 163.71 196.98 159.23 190.75 156.88 187.62 C 154.52 184.50 152.88 182.79 151.75 181.62 C 150.62 180.46 150.88 180.00 150.12 180.62 Z" id="s-1-f-0"/>
<clipPath id="c-s-1"><use href="#s-1-f-0"/></clipPath>
<path d="M 463.88 149.75 C 463.73 148.98 463.75 148.60 462.88 147.50 C 462.00 146.40 461.35 145.21 458.62 143.12 C 455.90 141.04 451.08 137.33 446.50 135.00 C 441.92 132.67 434.58 130.12 431.12 129.12 C 427.67 128.12 429.27 128.50 425.75 129.00 C 422.23 129.50 414.90 131.00 410.00 132.12 C 405.10 133.25 406.98 133.67 396.38 135.75 C 385.77 137.83 355.56 143.06 346.38 144.62 C 337.19 146.19 344.48 144.60 341.25 145.12 C 338.02 145.65 329.98 147.29 327.00 147.75 C 324.02 148.21 329.42 146.90 323.38 147.88 C 317.33 148.85 311.44 150.60 290.75 153.62 C 270.06 156.65 215.62 163.58 199.25 166.00 C 182.88 168.42 193.90 167.54 192.50 168.12 C 191.10 168.71 191.15 169.06 190.88 169.50 C 190.60 169.94 190.65 170.08 190.88 170.75 C 191.10 171.42 191.31 172.48 192.25 173.50 C 193.19 174.52 193.77 175.35 196.50 176.88 C 199.23 178.40 204.71 181.17 208.62 182.62 C 212.54 184.08 217.04 185.08 220.00 185.62 C 222.96 186.17 223.96 186.06 226.38 185.88 C 228.79 185.69 226.77 186.15 234.50 184.50 C 242.23 182.85 262.71 178.08 272.75 176.00 C 282.79 173.92 290.35 172.71 294.75 172.00 C 299.15 171.29 294.40 172.46 299.12 171.75 C 303.85 171.04 317.96 168.69 323.12 167.75 C 328.29 166.81 327.67 166.46 330.12 166.12 C 332.58 165.79 331.54 166.42 337.88 165.75 C 344.21 165.08 358.92 163.10 368.12 162.12 C 377.33 161.15 384.40 160.56 393.12 159.88 C 401.85 159.19 410.54 158.54 420.50 158.00 C 430.46 157.46 446.65 157.00 452.88 156.62 C 459.10 156.25 456.29 156.21 457.88 155.75 C 459.46 155.29 461.40 154.48 462.38 153.88 C 463.35 153.27 463.50 152.81 463.75 152.12 C 464.00 151.44 464.02 150.52 463.88 149.75 Z" id="s-2-f-0"/>
<clipPath id="c-s-2"><use href="#s-2-f-0"/></clipPath>
<path d="M 214.62 219.00 C 212.50 219.12 213.00 219.50 212.38 219.88 C 211.75 220.25 211.27 220.75 210.88 221.25 C 210.48 221.75 210.17 222.17 210.00 222.88 C 209.83 223.58 209.71 224.58 209.88 225.50 C 210.04 226.42 210.35 227.27 211.00 228.38 C 211.65 229.48 212.79 230.58 213.75 232.12 C 214.71 233.67 215.81 235.35 216.75 237.62 C 217.69 239.90 218.71 243.21 219.38 245.75 C 220.04 248.29 220.35 249.60 220.75 252.88 C 221.15 256.15 221.58 257.98 221.75 265.38 C 221.92 272.77 221.92 285.21 221.75 297.25 C 221.58 309.29 221.06 328.75 220.75 337.62 C 220.44 346.50 220.71 343.48 219.88 350.50 C 219.04 357.52 216.75 373.40 215.75 379.75 C 214.75 386.10 214.48 386.19 213.88 388.62 C 213.27 391.06 212.42 391.56 212.12 394.38 C 211.83 397.19 211.96 402.81 212.12 405.50 C 212.29 408.19 212.65 408.73 213.12 410.50 C 213.60 412.27 213.52 413.10 215.00 416.12 C 216.48 419.15 220.29 425.88 222.00 428.62 C 223.71 431.38 224.29 431.60 225.25 432.62 C 226.21 433.65 226.98 434.23 227.75 434.75 C 228.52 435.27 228.96 435.60 229.88 435.75 C 230.79 435.90 232.40 435.96 233.25 435.62 C 234.10 435.29 234.42 434.73 235.00 433.75 C 235.58 432.77 236.00 432.96 236.75 429.75 C 237.50 426.54 238.83 419.40 239.50 414.50 C 240.17 409.60 240.21 409.35 240.75 400.38 C 241.29 391.40 242.38 371.46 242.75 360.62 C 243.12 349.79 242.83 341.90 243.00 335.38 C 243.17 328.85 243.60 328.02 243.75 321.50 C 243.90 314.98 243.67 302.02 243.88 296.25 C 244.08 290.48 244.83 296.12 245.00 286.88 C 245.17 277.62 245.02 248.65 244.88 240.75 C 244.73 232.85 244.98 242.04 244.12 239.50 C 243.27 236.96 240.73 228.25 239.75 225.50 C 238.77 222.75 239.25 223.75 238.25 223.00 C 237.25 222.25 235.94 221.65 233.75 221.00 C 231.56 220.35 228.31 219.46 225.12 219.12 C 221.94 218.79 216.75 218.88 214.62 219.00 Z" id="s-3-f-0"/>
<clipPath id="c-s-3"><use href="#s-3-f-0"/></clipPath>
<path d="M 238.88 224.00 C 229.38 225.21 238.44 224.79 238.50 225.12 C 238.56 225.46 239.06 225.46 239.25 226.00 C 239.44 226.54 239.46 227.88 239.62 228.38 C 239.79 228.88 240.08 228.50 240.25 229.00 C 240.42 229.50 240.46 230.88 240.62 231.38 C 240.79 231.88 240.73 230.48 241.25 232.00 C 241.77 233.52 243.17 238.88 243.75 240.50 C 244.33 242.12 244.02 241.54 244.75 241.75 C 245.48 241.96 245.40 242.35 248.12 241.75 C 250.85 241.15 255.42 239.40 261.12 238.12 C 266.83 236.85 277.15 235.02 282.38 234.12 C 287.60 233.23 290.44 233.10 292.50 232.75 C 294.56 232.40 293.67 232.15 294.75 232.00 C 295.83 231.85 291.48 232.88 299.00 231.88 C 306.52 230.88 328.69 227.31 339.88 226.00 C 351.06 224.69 358.19 224.50 366.12 224.00 C 374.06 223.50 383.33 223.02 387.50 223.00 C 391.67 222.98 390.12 223.54 391.12 223.88 C 392.12 224.21 392.73 224.44 393.50 225.00 C 394.27 225.56 395.21 226.35 395.75 227.25 C 396.29 228.15 396.40 228.56 396.75 230.38 C 397.10 232.19 397.40 226.15 397.88 238.12 C 398.35 250.10 399.29 286.40 399.62 302.25 C 399.96 318.10 399.88 324.23 399.88 333.25 C 399.88 342.27 399.81 349.29 399.62 356.38 C 399.44 363.46 399.06 370.58 398.75 375.75 C 398.44 380.92 398.25 383.35 397.75 387.38 C 397.25 391.40 396.58 396.44 395.75 399.88 C 394.92 403.31 393.81 406.02 392.75 408.00 C 391.69 409.98 390.31 410.96 389.38 411.75 C 388.44 412.54 387.79 412.58 387.12 412.75 C 386.46 412.92 386.83 413.08 385.38 412.75 C 383.92 412.42 383.29 412.54 378.38 410.75 C 373.46 408.96 360.90 403.65 355.88 402.00 C 350.85 400.35 349.73 400.92 348.25 400.88 C 346.77 400.83 347.23 401.38 347.00 401.75 C 346.77 402.12 346.58 402.40 346.88 403.12 C 347.17 403.85 347.10 404.29 348.75 406.12 C 350.40 407.96 353.10 410.25 356.75 414.12 C 360.40 418.00 364.44 422.12 370.62 429.38 C 376.81 436.62 389.60 452.56 393.88 457.62 C 398.15 462.69 395.33 459.21 396.25 459.75 C 397.17 460.29 398.31 460.73 399.38 460.88 C 400.44 461.02 401.29 461.08 402.62 460.62 C 403.96 460.17 405.69 459.38 407.38 458.12 C 409.06 456.88 410.71 455.46 412.75 453.12 C 414.79 450.79 417.94 446.58 419.62 444.12 C 421.31 441.67 421.71 441.04 422.88 438.38 C 424.04 435.71 425.48 432.33 426.62 428.12 C 427.77 423.92 429.06 417.58 429.75 413.12 C 430.44 408.67 430.58 407.40 430.75 401.38 C 430.92 395.35 431.21 386.79 430.75 377.00 C 430.29 367.21 428.62 353.62 428.00 342.62 C 427.38 331.62 427.17 321.69 427.00 311.00 C 426.83 300.31 426.85 286.62 427.00 278.50 C 427.15 270.38 427.38 267.56 427.88 262.25 C 428.38 256.94 429.15 251.00 430.00 246.62 C 430.85 242.25 432.33 238.15 433.00 236.00 C 433.67 233.85 433.23 235.00 434.00 233.75 C 434.77 232.50 436.83 229.90 437.62 228.50 C 438.42 227.10 438.56 226.60 438.75 225.38 C 438.94 224.15 439.12 222.48 438.75 221.12 C 438.38 219.77 438.12 219.04 436.50 217.25 C 434.88 215.46 431.02 212.08 429.00 210.38 C 426.98 208.67 426.60 208.40 424.38 207.00 C 422.15 205.60 418.46 203.50 415.62 202.00 C 412.79 200.50 409.58 198.98 407.38 198.00 C 405.17 197.02 404.00 196.46 402.38 196.12 C 400.75 195.79 400.92 195.52 397.62 196.00 C 394.33 196.48 386.48 198.04 382.62 199.00 C 378.77 199.96 378.38 200.62 374.50 201.75 C 370.62 202.88 367.38 203.92 359.38 205.75 C 351.38 207.58 332.62 211.54 326.50 212.75 C 320.38 213.96 327.79 212.15 322.62 213.00 C 317.46 213.85 309.46 216.04 295.50 217.88 C 281.54 219.71 248.38 222.79 238.88 224.00 Z" id="s-4-f-0"/>
<clipPath id="c-s-4"><use href="#s-4-f-0"/></clipPath>
<path d="M 399.25 267.25 C 398.92 265.33 398.81 266.54 397.25 266.00 C 395.69 265.46 392.83 264.67 389.88 264.00 C 386.92 263.33 381.94 262.35 379.50 262.00 C 377.06 261.65 378.58 261.25 375.25 261.88 C 371.92 262.50 367.56 264.10 359.50 265.75 C 351.44 267.40 333.02 270.71 326.88 271.75 C 320.73 272.79 331.98 270.50 322.62 272.00 C 313.27 273.50 283.69 278.77 270.75 280.75 C 257.81 282.73 249.38 283.27 245.00 283.88 C 240.62 284.48 244.71 283.62 244.50 284.38 C 244.29 285.12 243.92 286.52 243.75 288.38 C 243.58 290.23 242.77 294.12 243.50 295.50 C 244.23 296.88 244.60 296.42 248.12 296.62 C 251.65 296.83 260.04 296.90 264.62 296.75 C 269.21 296.60 261.29 297.58 275.62 295.75 C 289.96 293.92 336.71 287.71 350.62 285.75 C 364.54 283.79 352.04 285.00 359.12 284.00 C 366.21 283.00 386.73 280.67 393.12 279.75 C 399.52 278.83 396.48 278.88 397.50 278.50 C 398.52 278.12 398.96 279.38 399.25 277.50 C 399.54 275.62 399.58 269.17 399.25 267.25 Z" id="s-5-f-0"/>
<clipPath id="c-s-5"><use href="#s-5-f-0"/></clipPath>
<path d="M 400.25 321.25 C 399.50 319.00 398.81 319.71 395.75 319.00 C 392.69 318.29 385.19 317.33 381.88 317.00 C 378.56 316.67 379.65 316.50 375.88 317.00 C 372.10 317.50 364.79 318.88 359.25 320.00 C 353.71 321.12 348.21 322.62 342.62 323.75 C 337.04 324.88 330.10 326.06 325.75 326.75 C 321.40 327.44 322.40 326.88 316.50 327.88 C 310.60 328.88 299.65 331.29 290.38 332.75 C 281.10 334.21 268.42 335.75 260.88 336.62 C 253.33 337.50 248.19 337.56 245.12 338.00 C 242.06 338.44 242.94 337.33 242.50 339.25 C 242.06 341.17 242.17 347.60 242.50 349.50 C 242.83 351.40 242.75 350.23 244.50 350.62 C 246.25 351.02 249.65 351.69 253.00 351.88 C 256.35 352.06 260.85 351.94 264.62 351.75 C 268.40 351.56 267.48 351.73 275.62 350.75 C 283.77 349.77 304.48 347.12 313.50 345.88 C 322.52 344.62 324.48 343.96 329.75 343.25 C 335.02 342.54 334.60 343.17 345.12 341.62 C 355.65 340.08 384.21 335.31 392.88 334.00 C 401.54 332.69 395.90 334.00 397.12 333.75 C 398.35 333.50 399.73 334.58 400.25 332.50 C 400.77 330.42 401.00 323.50 400.25 321.25 Z" id="s-6-f-0"/>
<clipPath id="c-s-6"><use href="#s-6-f-0"/></clipPath>
<path d="M 289.12 37.88 C 286.94 37.88 288.08 37.92 287.62 38.12 C 287.17 38.33 286.79 38.56 286.38 39.12 C 285.96 39.69 285.35 40.19 285.12 41.50 C 284.90 42.81 284.29 44.15 285.00 47.00 C 285.71 49.85 288.08 54.38 289.38 58.62 C 290.67 62.88 291.85 67.77 292.75 72.50 C 293.65 77.23 294.25 81.98 294.75 87.00 C 295.25 92.02 295.62 88.54 295.75 102.62 C 295.88 116.71 295.48 159.88 295.50 171.50 C 295.52 183.12 295.81 164.71 295.88 172.38 C 295.94 180.04 295.94 209.83 295.88 217.50 C 295.81 225.17 295.50 208.54 295.50 218.38 C 295.50 228.21 295.88 266.69 295.88 276.50 C 295.88 286.31 295.56 274.58 295.50 277.25 C 295.44 279.92 295.44 289.79 295.50 292.50 C 295.56 295.21 295.81 287.00 295.88 293.50 C 295.94 300.00 295.94 325.04 295.88 331.50 C 295.81 337.96 295.56 329.58 295.50 332.25 C 295.44 334.92 295.44 344.81 295.50 347.50 C 295.56 350.19 295.79 337.92 295.88 348.38 C 295.96 358.83 295.79 397.44 296.00 410.25 C 296.21 423.06 296.62 420.94 297.12 425.25 C 297.62 429.56 298.19 432.96 299.00 436.12 C 299.81 439.29 301.25 442.62 302.00 444.25 C 302.75 445.88 303.08 445.60 303.50 445.88 C 303.92 446.15 303.83 446.25 304.50 445.88 C 305.17 445.50 306.44 444.71 307.50 443.62 C 308.56 442.54 309.83 440.92 310.88 439.38 C 311.92 437.83 312.94 436.04 313.75 434.38 C 314.56 432.71 314.96 431.90 315.75 429.38 C 316.54 426.85 317.67 423.02 318.50 419.25 C 319.33 415.48 319.88 413.15 320.75 406.75 C 321.62 400.35 323.08 388.21 323.75 380.88 C 324.42 373.54 324.56 368.83 324.75 362.75 C 324.94 356.67 324.79 347.58 324.88 344.38 C 324.96 341.17 325.25 352.69 325.25 343.50 C 325.25 334.31 324.79 299.00 324.88 289.25 C 324.96 279.50 325.67 285.77 325.75 285.00 C 325.83 284.23 325.31 284.94 325.38 284.62 C 325.44 284.31 326.04 287.21 326.12 283.12 C 326.21 279.04 325.92 269.27 325.88 260.12 C 325.83 250.98 325.79 233.71 325.88 228.25 C 325.96 222.79 326.38 237.54 326.38 227.38 C 326.38 217.21 325.90 177.42 325.88 167.25 C 325.85 157.08 326.21 177.67 326.25 166.38 C 326.29 155.08 326.00 113.65 326.12 99.50 C 326.25 85.35 326.67 86.31 327.00 81.50 C 327.33 76.69 327.52 74.77 328.12 70.62 C 328.73 66.48 330.17 60.04 330.62 56.62 C 331.08 53.21 331.00 51.62 330.88 50.12 C 330.75 48.62 330.54 48.50 329.88 47.62 C 329.21 46.75 327.90 45.62 326.88 44.88 C 325.85 44.12 325.19 43.75 323.75 43.12 C 322.31 42.50 320.62 41.79 318.25 41.12 C 315.88 40.46 312.42 39.62 309.50 39.12 C 306.58 38.62 304.15 38.33 300.75 38.12 C 297.35 37.92 291.31 37.88 289.12 37.88 Z" id="s-7-f-0"/>
<clipPath id="c-s-7"><use href="#s-7-f-0"/></clipPath>
<path d="M 367.25 62.38 C 366.85 63.15 366.77 64.60 367.00 65.50 C 367.23 66.40 366.35 65.44 368.62 67.75 C 370.90 70.06 375.79 75.02 380.62 79.38 C 385.46 83.73 392.81 90.17 397.62 93.88 C 402.44 97.58 406.58 100.00 409.50 101.62 C 412.42 103.25 412.85 103.29 415.12 103.62 C 417.40 103.96 421.00 103.94 423.12 103.62 C 425.25 103.31 426.58 102.52 427.88 101.75 C 429.17 100.98 430.08 99.90 430.88 99.00 C 431.67 98.10 432.15 97.27 432.62 96.38 C 433.10 95.48 433.40 94.88 433.75 93.62 C 434.10 92.38 434.60 91.02 434.75 88.88 C 434.90 86.73 434.79 82.44 434.62 80.75 C 434.46 79.06 434.23 79.52 433.75 78.75 C 433.27 77.98 432.48 76.94 431.75 76.12 C 431.02 75.31 430.27 74.56 429.38 73.88 C 428.48 73.19 428.52 72.98 426.38 72.00 C 424.23 71.02 419.31 68.98 416.50 68.00 C 413.69 67.02 412.42 66.77 409.50 66.12 C 406.58 65.48 404.50 64.98 399.00 64.12 C 393.50 63.27 381.44 61.54 376.50 61.00 C 371.56 60.46 370.92 60.65 369.38 60.88 C 367.83 61.10 367.65 61.60 367.25 62.38 Z" id="s-8-f-0"/>
<clipPath id="c-s-8"><use href="#s-8-f-0"/></clipPath>
</defs>
<g id="s-0" clip-path="url(#c-s-0)">
<use href="#s-0-f-0"/>
<path d="M 189.12 59.88 C 186.27 58.00 185.21 57.81 183.00 57.00 C 180.79 56.19 178.12 55.29 175.88 55.00 C 173.62 54.71 171.15 54.69 169.50 55.25 C 167.85 55.81 166.75 57.35 166.00 58.38 C 165.25 59.40 165.23 59.17 165.00 61.38 C 164.77 63.58 165.00 67.67 164.62 71.62 C 164.25 75.58 163.75 80.29 162.75 85.12 C 161.75 89.96 160.17 95.81 158.62 100.62 C 157.08 105.44 156.69 106.90 153.50 114.00 C 150.31 121.10 143.96 134.58 139.50 143.25 C 135.04 151.92 131.25 158.48 126.75 166.00 C 122.25 173.52 118.69 179.46 112.50 188.38 C 106.31 197.29 97.00 209.94 89.62 219.50 C 82.25 229.06 71.88 241.21 68.25 245.75 C 64.62 250.29 63.58 246.54 67.88 246.75 C 72.17 246.96 89.21 247.02 94.00 247.00 C 98.79 246.98 94.60 248.23 96.62 246.62 C 98.65 245.02 103.29 240.29 106.12 237.38 C 108.96 234.46 110.29 233.08 113.62 229.12 C 116.96 225.17 123.08 217.25 126.12 213.62 C 129.17 210.00 127.88 212.58 131.88 207.38 C 135.88 202.17 145.31 189.17 150.12 182.38 C 154.94 175.58 155.65 174.67 160.75 166.62 C 165.85 158.58 174.67 144.50 180.75 134.12 C 186.83 123.75 193.58 110.65 197.25 104.38 C 200.92 98.10 200.98 98.85 202.75 96.50 C 204.52 94.15 206.73 91.90 207.88 90.25 C 209.02 88.60 209.31 88.12 209.62 86.62 C 209.94 85.12 210.21 83.10 209.75 81.25 C 209.29 79.40 208.48 77.67 206.88 75.50 C 205.27 73.33 203.08 70.85 200.12 68.25 C 197.17 65.65 191.98 61.75 189.12 59.88 Z" id="s-0-f-1"/>
<path d="M 189.12 59.88 C 186.27 58.00 185.21 57.81 183.00 57.00 C 180.79 56.19 178.12 55.29 175.88 55.00 C 173.62 54.71 171.15 54.69 169.50 55.25 C 167.85 55.81 166.75 57.35 166.00 58.38 C 165.25 59.40 165.23 59.17 165.00 61.38 C 164.77 63.58 165.00 67.67 164.62 71.62 C 164.25 75.58 163.75 80.29 162.75 85.12 C 161.75 89.96 160.02 96.15 158.62 100.62 C 157.23 105.10 156.73 106.56 154.38 112.00 C 152.02 117.44 148.27 125.69 144.50 133.25 C 140.73 140.81 135.71 150.29 131.75 157.38 C 127.79 164.46 125.15 168.94 120.75 175.75 C 116.35 182.56 107.92 194.42 105.38 198.25 C 102.83 202.08 100.50 198.62 105.50 198.75 C 110.50 198.88 129.98 199.00 135.38 199.00 C 140.77 199.00 137.33 198.90 137.88 198.75 C 138.42 198.60 136.58 200.85 138.62 198.12 C 140.67 195.40 145.94 188.40 150.12 182.38 C 154.31 176.35 158.65 170.04 163.75 162.00 C 168.85 153.96 175.17 143.73 180.75 134.12 C 186.33 124.52 193.58 110.65 197.25 104.38 C 200.92 98.10 200.98 98.85 202.75 96.50 C 204.52 94.15 206.73 91.90 207.88 90.25 C 209.02 88.60 209.29 87.94 209.62 86.62 C 209.96 85.31 209.90 83.40 209.88 82.38 C 209.85 81.35 209.85 81.42 209.50 80.50 C 209.15 79.58 208.60 78.23 207.75 76.88 C 206.90 75.52 205.65 73.81 204.38 72.38 C 203.10 70.94 202.67 70.33 200.12 68.25 C 197.58 66.17 191.98 61.75 189.12 59.88 Z" id="s-0-f-2"/>
<path d="M 189.12 59.88 C 186.27 58.00 185.21 57.81 183.00 57.00 C 180.79 56.19 178.12 55.29 175.88 55.00 C 173.62 54.71 171.15 54.69 169.50 55.25 C 167.85 55.81 166.75 57.35 166.00 58.38 C 165.25 59.40 165.23 59.17 165.00 61.38 C 164.77 63.58 165.00 67.67 164.62 71.62 C 164.25 75.58 163.75 80.29 162.75 85.12 C 161.75 89.96 160.02 96.15 158.62 100.62 C 157.23 105.10 157.56 104.90 154.38 112.00 C 151.19 119.10 142.56 137.06 139.50 143.25 C 136.44 149.44 136.62 147.88 136.00 149.12 C 135.38 150.38 129.98 150.48 135.75 150.75 C 141.52 151.02 162.65 154.35 170.62 150.75 C 178.60 147.15 179.19 136.85 183.62 129.12 C 188.06 121.40 193.08 111.06 197.25 104.38 C 201.42 97.69 206.54 92.04 208.62 89.00 C 210.71 85.96 209.56 87.42 209.75 86.12 C 209.94 84.83 210.23 83.02 209.75 81.25 C 209.27 79.48 208.48 77.67 206.88 75.50 C 205.27 73.33 203.08 70.85 200.12 68.25 C 197.17 65.65 191.98 61.75 189.12 59.88 Z" id="s-0-f-3"/>
<path d="M 168.38 55.88 C 167.62 56.44 166.56 57.46 166.00 58.38 C 165.44 59.29 165.23 59.17 165.00 61.38 C 164.77 63.58 164.83 68.62 164.62 71.62 C 164.42 74.62 164.31 76.06 163.75 79.38 C 163.19 82.69 162.23 87.62 161.25 91.50 C 160.27 95.38 156.46 100.71 157.88 102.62 C 159.29 104.54 163.00 102.98 169.75 103.00 C 176.50 103.02 192.02 104.88 198.38 102.75 C 204.73 100.62 206.00 92.94 207.88 90.25 C 209.75 87.56 209.31 88.12 209.62 86.62 C 209.94 85.12 210.21 83.10 209.75 81.25 C 209.29 79.40 207.77 76.98 206.88 75.50 C 205.98 74.02 205.96 73.98 204.38 72.38 C 202.79 70.77 200.15 68.08 197.38 65.88 C 194.60 63.67 190.15 60.60 187.75 59.12 C 185.35 57.65 184.83 57.67 183.00 57.00 C 181.17 56.33 178.83 55.46 176.75 55.12 C 174.67 54.79 171.90 54.88 170.50 55.00 C 169.10 55.12 169.12 55.31 168.38 55.88 Z" id="s-0-f-4"/>
</g>
<g id="s-1" clip-path="url(#c-s-1)">
<use href="#s-1-f-0"/>
<path d="M 150.12 180.62 C 149.38 181.25 149.33 182.44 147.25 185.38 C 145.17 188.31 138.77 193.77 137.62 198.25 C 136.48 202.73 139.71 207.77 140.38 212.25 C 141.04 216.73 141.40 217.50 141.62 225.12 C 141.85 232.75 141.90 246.35 141.75 258.00 C 141.60 269.65 141.25 283.23 140.75 295.00 C 140.25 306.77 139.58 318.62 138.75 328.62 C 137.92 338.62 136.75 347.83 135.75 355.00 C 134.75 362.17 134.69 363.60 132.75 371.62 C 130.81 379.65 125.56 396.92 124.12 403.12 C 122.69 409.33 123.79 406.69 124.12 408.88 C 124.46 411.06 125.44 414.25 126.12 416.25 C 126.81 418.25 122.77 420.10 128.25 420.88 C 133.73 421.65 153.75 421.00 159.00 420.88 C 164.25 420.75 159.46 421.40 159.75 420.12 C 160.04 418.85 159.92 428.42 160.75 413.25 C 161.58 398.08 164.02 350.56 164.75 329.12 C 165.48 307.69 164.92 297.25 165.12 284.62 C 165.33 272.00 165.67 261.46 166.00 253.38 C 166.33 245.29 166.77 240.29 167.12 236.12 C 167.48 231.96 167.54 231.65 168.12 228.38 C 168.71 225.10 170.17 219.21 170.62 216.50 C 171.08 213.79 170.90 213.25 170.88 212.12 C 170.85 211.00 171.02 211.21 170.50 209.75 C 169.98 208.29 169.02 205.71 167.75 203.38 C 166.48 201.04 164.69 198.38 162.88 195.75 C 161.06 193.12 158.73 189.98 156.88 187.62 C 155.02 185.27 152.88 182.79 151.75 181.62 C 150.62 180.46 150.88 180.00 150.12 180.62 Z" id="s-1-f-1"/>
<path d="M 150.12 180.62 C 149.38 181.25 149.33 182.44 147.25 185.38 C 145.17 188.31 138.77 193.77 137.62 198.25 C 136.48 202.73 139.71 207.77 140.38 212.25 C 141.04 216.73 141.42 216.33 141.62 225.12 C 141.83 233.92 141.77 253.35 141.62 265.00 C 141.48 276.65 141.23 284.40 140.75 295.00 C 140.27 305.60 139.58 318.62 138.75 328.62 C 137.92 338.62 136.79 347.75 135.75 355.00 C 134.71 362.25 132.96 369.15 132.50 372.12 C 132.04 375.10 128.42 372.73 133.00 372.88 C 137.58 373.02 155.15 373.00 160.00 373.00 C 164.85 373.00 161.67 373.04 162.12 372.88 C 162.58 372.71 162.31 379.29 162.75 372.00 C 163.19 364.71 164.35 343.69 164.75 329.12 C 165.15 314.56 164.92 297.25 165.12 284.62 C 165.33 272.00 165.67 261.46 166.00 253.38 C 166.33 245.29 166.77 240.29 167.12 236.12 C 167.48 231.96 167.54 231.65 168.12 228.38 C 168.71 225.10 170.17 219.21 170.62 216.50 C 171.08 213.79 170.90 213.25 170.88 212.12 C 170.85 211.00 171.02 211.21 170.50 209.75 C 169.98 208.29 169.02 205.71 167.75 203.38 C 166.48 201.04 164.69 198.38 162.88 195.75 C 161.06 193.12 158.73 189.98 156.88 187.62 C 155.02 185.27 152.88 182.79 151.75 181.62 C 150.62 180.46 150.88 180.00 150.12 180.62 Z" id="s-1-f-2"/>
<path d="M 150.00 180.62 C 149.60 180.75 151.44 179.44 149.38 182.38 C 147.31 185.31 139.12 193.27 137.62 198.25 C 136.12 203.23 139.69 207.04 140.38 212.25 C 141.06 217.46 141.54 220.71 141.75 229.50 C 141.96 238.29 141.79 254.08 141.62 265.00 C 141.46 275.92 141.19 285.12 140.75 295.00 C 140.31 304.88 139.23 319.27 139.00 324.25 C 138.77 329.23 139.06 324.75 139.38 324.88 C 139.69 325.00 136.71 325.00 140.88 325.00 C 145.04 325.00 160.38 325.17 164.38 324.88 C 168.38 324.58 164.75 329.96 164.88 323.25 C 165.00 316.54 164.94 296.27 165.12 284.62 C 165.31 272.98 165.69 261.27 166.00 253.38 C 166.31 245.48 166.65 241.42 167.00 237.25 C 167.35 233.08 167.52 231.83 168.12 228.38 C 168.73 224.92 170.19 219.46 170.62 216.50 C 171.06 213.54 171.23 212.81 170.75 210.62 C 170.27 208.44 169.06 205.85 167.75 203.38 C 166.44 200.90 164.69 198.38 162.88 195.75 C 161.06 193.12 158.73 189.98 156.88 187.62 C 155.02 185.27 152.90 182.79 151.75 181.62 C 150.60 180.46 150.40 180.50 150.00 180.62 Z" id="s-1-f-3"/>
<path d="M 150.00 180.62 C 149.60 180.75 151.44 179.44 149.38 182.38 C 147.31 185.31 139.12 193.25 137.62 198.25 C 136.12 203.25 139.71 207.90 140.38 212.38 C 141.04 216.85 141.40 217.69 141.62 225.12 C 141.85 232.56 141.83 248.46 141.75 257.00 C 141.67 265.54 141.15 273.06 141.12 276.38 C 141.10 279.69 141.27 276.77 141.62 276.88 C 141.98 276.98 139.35 277.00 143.25 277.00 C 147.15 277.00 161.27 277.46 165.00 276.88 C 168.73 276.29 165.46 277.42 165.62 273.50 C 165.79 269.58 165.77 259.42 166.00 253.38 C 166.23 247.33 166.65 241.42 167.00 237.25 C 167.35 233.08 167.52 231.83 168.12 228.38 C 168.73 224.92 170.19 219.46 170.62 216.50 C 171.06 213.54 171.23 212.81 170.75 210.62 C 170.27 208.44 169.06 205.85 167.75 203.38 C 166.44 200.90 164.69 198.38 162.88 195.75 C 161.06 193.12 158.73 189.98 156.88 187.62 C 155.02 185.27 152.90 182.79 151.75 181.62 C 150.60 180.46 150.40 180.50 150.00 180.62 Z" id="s-1-f-4"/>
<path d="M 150.00 180.62 C 149.60 180.75 151.44 179.44 149.38 182.38 C 147.31 185.31 139.10 193.12 137.62 198.25 C 136.15 203.38 139.81 208.08 140.50 213.12 C 141.19 218.17 140.21 225.85 141.75 228.50 C 143.29 231.15 145.44 228.96 149.75 229.00 C 154.06 229.04 164.48 229.00 167.62 228.75 C 170.77 228.50 168.10 229.71 168.62 227.50 C 169.15 225.29 170.40 218.31 170.75 215.50 C 171.10 212.69 171.25 212.65 170.75 210.62 C 170.25 208.60 169.06 205.85 167.75 203.38 C 166.44 200.90 164.69 198.38 162.88 195.75 C 161.06 193.12 158.73 189.98 156.88 187.62 C 155.02 185.27 152.90 182.79 151.75 181.62 C 150.60 180.46 150.40 180.50 150.00 180.62 Z" id="s-1-f-5"/>
</g>
<g id="s-2" clip-path="url(#c-s-2)">
<use href="#s-2-f-0"/>
<path d="M 430.88 129.50 C 430.75 125.10 431.10 129.08 430.25 129.00 C 429.40 128.92 427.52 128.83 425.75 129.00 C 423.98 129.17 424.52 128.88 419.62 130.00 C 414.73 131.12 411.81 132.79 396.38 135.75 C 380.94 138.71 339.17 145.73 327.00 147.75 C 314.83 149.77 329.42 146.90 323.38 147.88 C 317.33 148.85 311.44 150.60 290.75 153.62 C 270.06 156.65 215.62 163.58 199.25 166.00 C 182.88 168.42 193.90 167.54 192.50 168.12 C 191.10 168.71 191.15 169.06 190.88 169.50 C 190.60 169.94 190.65 170.08 190.88 170.75 C 191.10 171.42 191.31 172.48 192.25 173.50 C 193.19 174.52 193.77 175.35 196.50 176.88 C 199.23 178.40 204.71 181.17 208.62 182.62 C 212.54 184.08 217.04 185.08 220.00 185.62 C 222.96 186.17 223.96 186.06 226.38 185.88 C 228.79 185.69 226.77 186.15 234.50 184.50 C 242.23 182.85 262.71 178.08 272.75 176.00 C 282.79 173.92 290.35 172.71 294.75 172.00 C 299.15 171.29 294.40 172.46 299.12 171.75 C 303.85 171.04 317.96 168.69 323.12 167.75 C 328.29 166.81 327.46 166.48 330.12 166.12 C 332.79 165.77 332.79 166.29 339.12 165.62 C 345.46 164.96 359.65 163.04 368.12 162.12 C 376.60 161.21 381.27 160.81 390.00 160.12 C 398.73 159.44 413.81 158.40 420.50 158.00 C 427.19 157.60 428.42 157.85 430.12 157.75 C 431.83 157.65 430.60 157.77 430.75 157.38 C 430.90 156.98 430.98 160.02 431.00 155.38 C 431.02 150.73 431.00 133.90 430.88 129.50 Z" id="s-2-f-1"/>
<path d="M 382.88 138.62 C 382.75 134.88 385.21 137.60 382.00 138.12 C 378.79 138.65 372.79 140.15 363.62 141.75 C 354.46 143.35 333.71 146.73 327.00 147.75 C 320.29 148.77 329.42 146.90 323.38 147.88 C 317.33 148.85 311.44 150.60 290.75 153.62 C 270.06 156.65 215.62 163.58 199.25 166.00 C 182.88 168.42 193.90 167.54 192.50 168.12 C 191.10 168.71 191.15 169.06 190.88 169.50 C 190.60 169.94 190.65 170.08 190.88 170.75 C 191.10 171.42 191.31 172.48 192.25 173.50 C 193.19 174.52 193.77 175.35 196.50 176.88 C 199.23 178.40 204.71 181.17 208.62 182.62 C 212.54 184.08 217.04 185.08 220.00 185.62 C 222.96 186.17 223.96 186.06 226.38 185.88 C 228.79 185.69 226.77 186.15 234.50 184.50 C 242.23 182.85 262.71 178.08 272.75 176.00 C 282.79 173.92 290.35 172.71 294.75 172.00 C 299.15 171.29 294.40 172.46 299.12 171.75 C 303.85 171.04 317.96 168.69 323.12 167.75 C 328.29 166.81 327.46 166.48 330.12 166.12 C 332.79 165.77 332.79 166.29 339.12 165.62 C 345.46 164.96 360.85 162.96 368.12 162.12 C 375.40 161.29 380.29 164.54 382.75 160.62 C 385.21 156.71 383.00 142.38 382.88 138.62 Z" id="s-2-f-2"/>
<path d="M 334.88 146.88 C 334.69 143.69 341.23 145.25 333.88 146.38 C 326.52 147.50 313.19 150.35 290.75 153.62 C 268.31 156.90 215.62 163.58 199.25 166.00 C 182.88 168.42 193.90 167.54 192.50 168.12 C 191.10 168.71 191.15 169.06 190.88 169.50 C 190.60 169.94 190.65 170.08 190.88 170.75 C 191.10 171.42 191.31 172.48 192.25 173.50 C 193.19 174.52 193.77 175.35 196.50 176.88 C 199.23 178.40 204.71 181.17 208.62 182.62 C 212.54 184.08 216.65 185.12 220.00 185.62 C 223.35 186.12 222.38 186.73 228.75 185.62 C 235.12 184.52 249.15 180.94 258.25 179.00 C 267.35 177.06 272.56 175.88 283.38 174.00 C 294.19 172.12 315.33 169.06 323.12 167.75 C 330.92 166.44 328.23 166.44 330.12 166.12 C 332.02 165.81 333.69 165.98 334.50 165.88 C 335.31 165.77 334.94 168.67 335.00 165.50 C 335.06 162.33 335.06 150.06 334.88 146.88 Z" id="s-2-f-3"/>
<path d="M 286.88 154.50 C 286.69 151.54 300.48 152.08 285.88 154.00 C 271.27 155.92 214.81 163.65 199.25 166.00 C 183.69 168.35 193.90 167.54 192.50 168.12 C 191.10 168.71 191.15 169.06 190.88 169.50 C 190.60 169.94 190.65 170.08 190.88 170.75 C 191.10 171.42 191.31 172.48 192.25 173.50 C 193.19 174.52 193.77 175.35 196.50 176.88 C 199.23 178.40 204.71 181.17 208.62 182.62 C 212.54 184.08 216.65 185.12 220.00 185.62 C 223.35 186.12 220.79 187.06 228.75 185.62 C 236.71 184.19 258.12 179.00 267.75 177.00 C 277.38 175.00 283.29 174.50 286.50 173.62 C 289.71 172.75 286.94 174.94 287.00 171.75 C 287.06 168.56 287.06 157.46 286.88 154.50 Z" id="s-2-f-4"/>
<path d="M 238.88 182.88 C 239.04 180.19 239.06 171.31 239.00 167.62 C 238.94 163.94 245.12 161.02 238.50 160.75 C 231.88 160.48 206.88 164.79 199.25 166.00 C 191.62 167.21 194.15 167.42 192.75 168.00 C 191.35 168.58 191.15 168.88 190.88 169.50 C 190.60 170.12 190.90 171.08 191.12 171.75 C 191.35 172.42 191.12 172.50 192.25 173.50 C 193.38 174.50 195.15 176.23 197.88 177.75 C 200.60 179.27 205.77 181.48 208.62 182.62 C 211.48 183.77 212.92 184.10 215.00 184.62 C 217.08 185.15 219.23 185.54 221.12 185.75 C 223.02 185.96 223.56 186.21 226.38 185.88 C 229.19 185.54 235.92 184.25 238.00 183.75 C 240.08 183.25 238.71 185.56 238.88 182.88 Z" id="s-2-f-5"/>
</g>
<g id="s-3" clip-path="url(#c-s-3)">
<use href="#s-3-f-0"/>
<path d="M 214.62 219.00 C 212.50 219.12 213.00 219.50 212.38 219.88 C 211.75 220.25 211.27 220.75 210.88 221.25 C 210.48 221.75 210.17 222.17 210.00 222.88 C 209.83 223.58 209.71 224.58 209.88 225.50 C 210.04 226.42 210.35 227.27 211.00 228.38 C 211.65 229.48 212.79 230.58 213.75 232.12 C 214.71 233.67 215.81 235.35 216.75 237.62 C 217.69 239.90 218.71 243.21 219.38 245.75 C 220.04 248.29 220.35 249.60 220.75 252.88 C 221.15 256.15 221.58 257.98 221.75 265.38 C 221.92 272.77 221.92 285.21 221.75 297.25 C 221.58 309.29 221.06 328.75 220.75 337.62 C 220.44 346.50 220.71 343.48 219.88 350.50 C 219.04 357.52 216.75 373.40 215.75 379.75 C 214.75 386.10 214.48 386.19 213.88 388.62 C 213.27 391.06 212.42 391.58 212.12 394.38 C 211.83 397.17 211.98 402.77 212.12 405.38 C 212.27 407.98 212.71 409.08 213.00 410.00 C 213.29 410.92 209.50 410.73 213.88 410.88 C 218.25 411.02 234.94 411.02 239.25 410.88 C 243.56 410.73 239.50 411.75 239.75 410.00 C 240.00 408.25 240.25 408.60 240.75 400.38 C 241.25 392.15 242.38 371.46 242.75 360.62 C 243.12 349.79 242.83 341.90 243.00 335.38 C 243.17 328.85 243.60 328.02 243.75 321.50 C 243.90 314.98 243.67 302.02 243.88 296.25 C 244.08 290.48 244.83 296.12 245.00 286.88 C 245.17 277.62 245.02 248.65 244.88 240.75 C 244.73 232.85 244.98 242.04 244.12 239.50 C 243.27 236.96 240.73 228.25 239.75 225.50 C 238.77 222.75 239.25 223.75 238.25 223.00 C 237.25 222.25 235.94 221.65 233.75 221.00 C 231.56 220.35 228.31 219.46 225.12 219.12 C 221.94 218.79 216.75 218.88 214.62 219.00 Z" id="s-3-f-1"/>
<path d="M 214.62 219.00 C 212.50 219.12 213.00 219.50 212.38 219.88 C 211.75 220.25 211.27 220.75 210.88 221.25 C 210.48 221.75 210.15 222.02 210.00 222.88 C 209.85 223.73 208.88 223.92 210.00 226.38 C 211.12 228.83 215.29 234.79 216.75 237.62 C 218.21 240.46 218.06 240.69 218.75 243.38 C 219.44 246.06 220.38 250.08 220.88 253.75 C 221.38 257.42 221.60 258.12 221.75 265.38 C 221.90 272.62 221.92 285.21 221.75 297.25 C 221.58 309.29 221.08 328.54 220.75 337.62 C 220.42 346.71 220.19 347.67 219.75 351.75 C 219.31 355.83 218.29 360.27 218.12 362.12 C 217.96 363.98 218.40 362.73 218.75 362.88 C 219.10 363.02 216.38 363.00 220.25 363.00 C 224.12 363.00 238.27 362.98 242.00 362.88 C 245.73 362.77 242.46 366.96 242.62 362.38 C 242.79 357.79 242.81 342.19 243.00 335.38 C 243.19 328.56 243.60 328.02 243.75 321.50 C 243.90 314.98 243.67 302.02 243.88 296.25 C 244.08 290.48 244.83 296.12 245.00 286.88 C 245.17 277.62 245.02 248.65 244.88 240.75 C 244.73 232.85 244.98 242.04 244.12 239.50 C 243.27 236.96 240.73 228.25 239.75 225.50 C 238.77 222.75 239.25 223.75 238.25 223.00 C 237.25 222.25 235.94 221.65 233.75 221.00 C 231.56 220.35 228.31 219.46 225.12 219.12 C 221.94 218.79 216.75 218.88 214.62 219.00 Z" id="s-3-f-2"/>
<path d="M 213.75 219.25 C 213.02 219.46 212.58 219.60 212.00 220.12 C 211.42 220.65 210.58 221.33 210.25 222.38 C 209.92 223.42 208.92 223.83 210.00 226.38 C 211.08 228.92 215.29 234.79 216.75 237.62 C 218.21 240.46 218.08 240.83 218.75 243.38 C 219.42 245.92 220.27 249.73 220.75 252.88 C 221.23 256.02 221.52 252.02 221.62 262.25 C 221.73 272.48 221.08 305.46 221.38 314.25 C 221.67 323.04 219.69 314.90 223.38 315.00 C 227.06 315.10 240.08 318.00 243.50 314.88 C 246.92 311.75 243.62 300.94 243.88 296.25 C 244.12 291.56 244.83 296.00 245.00 286.75 C 245.17 277.50 245.02 248.62 244.88 240.75 C 244.73 232.88 244.98 242.04 244.12 239.50 C 243.27 236.96 240.73 228.25 239.75 225.50 C 238.77 222.75 239.25 223.75 238.25 223.00 C 237.25 222.25 235.94 221.65 233.75 221.00 C 231.56 220.35 228.02 219.48 225.12 219.12 C 222.23 218.77 218.27 218.85 216.38 218.88 C 214.48 218.90 214.48 219.04 213.75 219.25 Z" id="s-3-f-3"/>
<path d="M 212.00 220.12 C 211.23 220.77 210.33 221.83 210.00 222.88 C 209.67 223.92 208.88 223.92 210.00 226.38 C 211.12 228.83 215.29 234.79 216.75 237.62 C 218.21 240.46 218.06 240.69 218.75 243.38 C 219.44 246.06 220.38 249.90 220.88 253.75 C 221.38 257.60 221.50 264.29 221.75 266.50 C 222.00 268.71 218.54 266.96 222.38 267.00 C 226.21 267.04 241.00 271.12 244.75 266.75 C 248.50 262.38 244.98 245.29 244.88 240.75 C 244.77 236.21 244.98 242.04 244.12 239.50 C 243.27 236.96 240.69 228.21 239.75 225.50 C 238.81 222.79 239.50 224.00 238.50 223.25 C 237.50 222.50 235.98 221.69 233.75 221.00 C 231.52 220.31 228.31 219.46 225.12 219.12 C 221.94 218.79 216.81 218.83 214.62 219.00 C 212.44 219.17 212.77 219.48 212.00 220.12 Z" id="s-3-f-4"/>
</g>
<g id="s-4" clip-path="url(#c-s-4)">
<use href="#s-4-f-0"/>
<path d="M 238.88 224.00 C 229.38 225.21 238.44 224.79 238.50 225.12 C 238.56 225.46 239.06 225.46 239.25 226.00 C 239.44 226.54 239.46 227.88 239.62 228.38 C 239.79 228.88 240.08 228.50 240.25 229.00 C 240.42 229.50 240.46 230.88 240.62 231.38 C 240.79 231.88 240.73 230.48 241.25 232.00 C 241.77 233.52 243.17 238.88 243.75 240.50 C 244.33 242.12 244.02 241.54 244.75 241.75 C 245.48 241.96 245.40 242.35 248.12 241.75 C 250.85 241.15 255.42 239.40 261.12 238.12 C 266.83 236.85 277.15 235.02 282.38 234.12 C 287.60 233.23 290.44 233.10 292.50 232.75 C 294.56 232.40 293.67 232.15 294.75 232.00 C 295.83 231.85 291.48 232.88 299.00 231.88 C 306.52 230.88 328.69 227.31 339.88 226.00 C 351.06 224.69 358.19 224.50 366.12 224.00 C 374.06 223.50 383.33 223.02 387.50 223.00 C 391.67 222.98 390.12 223.54 391.12 223.88 C 392.12 224.21 392.73 224.44 393.50 225.00 C 394.27 225.56 395.21 226.35 395.75 227.25 C 396.29 228.15 396.40 228.56 396.75 230.38 C 397.10 232.19 397.67 234.25 397.88 238.12 C 398.08 242.00 397.85 249.25 398.00 253.62 C 398.15 258.00 398.46 255.04 398.75 264.38 C 399.04 273.71 399.58 295.33 399.75 309.62 C 399.92 323.92 399.90 339.46 399.75 350.12 C 399.60 360.79 399.21 367.42 398.88 373.62 C 398.54 379.83 398.27 383.00 397.75 387.38 C 397.23 391.75 396.42 396.73 395.75 399.88 C 395.08 403.02 394.21 403.81 393.75 406.25 C 393.29 408.69 392.67 413.04 393.00 414.50 C 393.33 415.96 390.15 414.92 395.75 415.00 C 401.35 415.08 421.04 415.06 426.62 415.00 C 432.21 414.94 428.58 416.42 429.25 414.62 C 429.92 412.83 430.35 409.31 430.62 404.25 C 430.90 399.19 430.88 389.46 430.88 384.25 C 430.88 379.04 431.10 379.96 430.62 373.00 C 430.15 366.04 428.60 352.83 428.00 342.50 C 427.40 332.17 427.17 321.67 427.00 311.00 C 426.83 300.33 426.85 286.62 427.00 278.50 C 427.15 270.38 427.38 267.56 427.88 262.25 C 428.38 256.94 429.15 251.00 430.00 246.62 C 430.85 242.25 432.33 238.15 433.00 236.00 C 433.67 233.85 433.23 235.00 434.00 233.75 C 434.77 232.50 436.83 229.90 437.62 228.50 C 438.42 227.10 438.58 226.67 438.75 225.38 C 438.92 224.08 439.00 222.10 438.62 220.75 C 438.25 219.40 437.27 218.27 436.50 217.25 C 435.73 216.23 436.02 216.33 434.00 214.62 C 431.98 212.92 427.44 209.10 424.38 207.00 C 421.31 204.90 418.46 203.50 415.62 202.00 C 412.79 200.50 409.58 198.98 407.38 198.00 C 405.17 197.02 404.00 196.46 402.38 196.12 C 400.75 195.79 400.92 195.52 397.62 196.00 C 394.33 196.48 386.48 198.04 382.62 199.00 C 378.77 199.96 378.38 200.62 374.50 201.75 C 370.62 202.88 367.38 203.92 359.38 205.75 C 351.38 207.58 332.62 211.54 326.50 212.75 C 320.38 213.96 327.79 212.15 322.62 213.00 C 317.46 213.85 309.46 216.04 295.50 217.88 C 281.54 219.71 248.38 222.79 238.88 224.00 Z" id="s-4-f-1"/>
<path d="M 238.50 224.38 C 238.04 225.21 239.31 227.54 239.62 228.38 C 239.94 229.21 240.21 228.88 240.38 229.38 C 240.54 229.88 240.46 230.88 240.62 231.38 C 240.79 231.88 241.21 231.88 241.38 232.38 C 241.54 232.88 241.46 233.88 241.62 234.38 C 241.79 234.88 242.21 234.88 242.38 235.38 C 242.54 235.88 242.48 236.94 242.62 237.38 C 242.77 237.81 243.06 237.48 243.25 238.00 C 243.44 238.52 243.50 239.88 243.75 240.50 C 244.00 241.12 244.02 241.54 244.75 241.75 C 245.48 241.96 245.40 242.35 248.12 241.75 C 250.85 241.15 255.42 239.40 261.12 238.12 C 266.83 236.85 277.15 235.02 282.38 234.12 C 287.60 233.23 290.44 233.10 292.50 232.75 C 294.56 232.40 293.67 232.15 294.75 232.00 C 295.83 231.85 291.48 232.88 299.00 231.88 C 306.52 230.88 325.79 227.48 339.88 226.00 C 353.96 224.52 375.42 223.48 383.50 223.00 C 391.58 222.52 386.71 222.79 388.38 223.12 C 390.04 223.46 392.27 224.31 393.50 225.00 C 394.73 225.69 395.21 226.35 395.75 227.25 C 396.29 228.15 396.40 228.56 396.75 230.38 C 397.10 232.19 397.38 224.92 397.88 238.12 C 398.38 251.33 399.42 293.00 399.75 309.62 C 400.08 326.25 399.96 328.38 399.88 337.88 C 399.79 347.38 398.96 361.77 399.25 366.62 C 399.54 371.48 396.83 366.98 401.62 367.00 C 406.42 367.02 423.31 366.90 428.00 366.75 C 432.69 366.60 429.46 367.04 429.75 366.12 C 430.04 365.21 430.04 365.19 429.75 361.25 C 429.46 357.31 428.44 349.69 428.00 342.50 C 427.56 335.31 427.29 328.79 427.12 318.12 C 426.96 307.46 426.71 289.31 427.00 278.50 C 427.29 267.69 428.21 259.29 428.88 253.25 C 429.54 247.21 430.15 245.50 431.00 242.25 C 431.85 239.00 432.88 236.08 434.00 233.75 C 435.12 231.42 436.96 229.65 437.75 228.25 C 438.54 226.85 438.60 226.62 438.75 225.38 C 438.90 224.12 438.96 222.06 438.62 220.75 C 438.29 219.44 438.35 219.23 436.75 217.50 C 435.15 215.77 431.06 212.12 429.00 210.38 C 426.94 208.62 427.56 208.88 424.38 207.00 C 421.19 205.12 413.54 200.94 409.88 199.12 C 406.21 197.31 404.42 196.65 402.38 196.12 C 400.33 195.60 400.92 195.52 397.62 196.00 C 394.33 196.48 386.90 197.92 382.62 199.00 C 378.35 200.08 375.88 201.38 372.00 202.50 C 368.12 203.62 366.96 204.04 359.38 205.75 C 351.79 207.46 332.50 211.56 326.50 212.75 C 320.50 213.94 328.54 212.02 323.38 212.88 C 318.21 213.73 305.71 216.40 295.50 217.88 C 285.29 219.35 270.98 220.83 262.12 221.75 C 253.27 222.67 246.31 222.94 242.38 223.38 C 238.44 223.81 238.96 223.54 238.50 224.38 Z" id="s-4-f-2"/>
<path d="M 427.25 318.00 C 427.31 311.29 426.73 289.29 427.00 278.50 C 427.27 267.71 428.04 259.88 428.88 253.25 C 429.71 246.62 431.15 242.00 432.00 238.75 C 432.85 235.50 433.25 235.12 434.00 233.75 C 434.75 232.38 435.73 231.81 436.50 230.50 C 437.27 229.19 438.25 227.44 438.62 225.88 C 439.00 224.31 439.06 222.52 438.75 221.12 C 438.44 219.73 438.38 219.29 436.75 217.50 C 435.12 215.71 431.06 212.12 429.00 210.38 C 426.94 208.62 427.56 208.88 424.38 207.00 C 421.19 205.12 413.54 200.94 409.88 199.12 C 406.21 197.31 404.42 196.65 402.38 196.12 C 400.33 195.60 400.92 195.52 397.62 196.00 C 394.33 196.48 386.90 197.92 382.62 199.00 C 378.35 200.08 375.88 201.38 372.00 202.50 C 368.12 203.62 366.96 204.04 359.38 205.75 C 351.79 207.46 332.50 211.56 326.50 212.75 C 320.50 213.94 328.54 212.02 323.38 212.88 C 318.21 213.73 305.71 216.40 295.50 217.88 C 285.29 219.35 270.98 220.83 262.12 221.75 C 253.27 222.67 246.31 222.94 242.38 223.38 C 238.44 223.81 238.27 221.52 238.50 224.38 C 238.73 227.23 242.71 237.60 243.75 240.50 C 244.79 243.40 244.02 241.54 244.75 241.75 C 245.48 241.96 245.40 242.35 248.12 241.75 C 250.85 241.15 255.42 239.40 261.12 238.12 C 266.83 236.85 277.15 235.02 282.38 234.12 C 287.60 233.23 290.44 233.10 292.50 232.75 C 294.56 232.40 293.67 232.15 294.75 232.00 C 295.83 231.85 291.48 232.88 299.00 231.88 C 306.52 230.88 325.79 227.48 339.88 226.00 C 353.96 224.52 375.56 223.50 383.50 223.00 C 391.44 222.50 386.12 222.81 387.50 223.00 C 388.88 223.19 390.75 223.79 391.75 224.12 C 392.75 224.46 392.83 224.48 393.50 225.00 C 394.17 225.52 395.21 226.35 395.75 227.25 C 396.29 228.15 396.40 228.56 396.75 230.38 C 397.10 232.19 397.35 223.44 397.88 238.12 C 398.40 252.81 399.46 305.02 399.88 318.50 C 400.29 331.98 396.17 318.92 400.38 319.00 C 404.58 319.08 420.75 319.04 425.12 319.00 C 429.50 318.96 426.27 318.92 426.62 318.75 C 426.98 318.58 427.19 324.71 427.25 318.00 Z" id="s-4-f-3"/>
<path d="M 438.62 220.75 C 438.29 219.44 438.04 218.98 436.75 217.50 C 435.46 216.02 432.94 213.62 430.88 211.88 C 428.81 210.12 426.92 208.65 424.38 207.00 C 421.83 205.35 418.46 203.50 415.62 202.00 C 412.79 200.50 409.58 198.98 407.38 198.00 C 405.17 197.02 404.00 196.46 402.38 196.12 C 400.75 195.79 400.92 195.52 397.62 196.00 C 394.33 196.48 386.90 197.92 382.62 199.00 C 378.35 200.08 375.88 201.38 372.00 202.50 C 368.12 203.62 366.96 204.04 359.38 205.75 C 351.79 207.46 332.50 211.56 326.50 212.75 C 320.50 213.94 328.54 212.02 323.38 212.88 C 318.21 213.73 305.69 216.40 295.50 217.88 C 285.31 219.35 271.10 220.83 262.25 221.75 C 253.40 222.67 246.27 223.00 242.38 223.38 C 238.48 223.75 239.52 223.71 238.88 224.00 C 238.23 224.29 238.44 224.79 238.50 225.12 C 238.56 225.46 239.06 225.46 239.25 226.00 C 239.44 226.54 239.46 227.88 239.62 228.38 C 239.79 228.88 240.08 228.50 240.25 229.00 C 240.42 229.50 240.46 230.88 240.62 231.38 C 240.79 231.88 240.73 230.48 241.25 232.00 C 241.77 233.52 243.17 238.88 243.75 240.50 C 244.33 242.12 244.02 241.54 244.75 241.75 C 245.48 241.96 245.40 242.35 248.12 241.75 C 250.85 241.15 255.42 239.40 261.12 238.12 C 266.83 236.85 277.15 235.02 282.38 234.12 C 287.60 233.23 290.44 233.10 292.50 232.75 C 294.56 232.40 293.67 232.15 294.75 232.00 C 295.83 231.85 291.48 232.88 299.00 231.88 C 306.52 230.88 328.35 227.33 339.88 226.00 C 351.40 224.67 360.04 224.35 368.12 223.88 C 376.21 223.40 384.15 222.94 388.38 223.12 C 392.60 223.31 392.27 224.31 393.50 225.00 C 394.73 225.69 395.21 226.35 395.75 227.25 C 396.29 228.15 396.40 228.56 396.75 230.38 C 397.10 232.19 397.67 234.25 397.88 238.12 C 398.08 242.00 397.83 248.19 398.00 253.62 C 398.17 259.06 394.38 267.85 398.88 270.75 C 403.38 273.65 420.25 271.04 425.00 271.00 C 429.75 270.96 426.73 273.46 427.38 270.50 C 428.02 267.54 428.27 257.96 428.88 253.25 C 429.48 248.54 430.15 245.50 431.00 242.25 C 431.85 239.00 432.88 236.08 434.00 233.75 C 435.12 231.42 436.96 229.65 437.75 228.25 C 438.54 226.85 438.60 226.62 438.75 225.38 C 438.90 224.12 438.96 222.06 438.62 220.75 Z" id="s-4-f-4"/>
<path d="M 438.75 221.12 C 438.48 220.21 437.54 218.58 436.75 217.50 C 435.96 216.42 436.06 216.38 434.00 214.62 C 431.94 212.88 427.44 209.10 424.38 207.00 C 421.31 204.90 418.46 203.50 415.62 202.00 C 412.79 200.50 409.58 198.98 407.38 198.00 C 405.17 197.02 404.00 196.46 402.38 196.12 C 400.75 195.79 400.92 195.52 397.62 196.00 C 394.33 196.48 386.48 198.04 382.62 199.00 C 378.77 199.96 378.38 200.62 374.50 201.75 C 370.62 202.88 367.38 203.92 359.38 205.75 C 351.38 207.58 332.50 211.56 326.50 212.75 C 320.50 213.94 328.54 212.02 323.38 212.88 C 318.21 213.73 305.69 216.40 295.50 217.88 C 285.31 219.35 271.10 220.83 262.25 221.75 C 253.40 222.67 246.27 223.00 242.38 223.38 C 238.48 223.75 239.52 223.71 238.88 224.00 C 238.23 224.29 238.44 224.79 238.50 225.12 C 238.56 225.46 239.06 225.46 239.25 226.00 C 239.44 226.54 239.46 227.88 239.62 228.38 C 239.79 228.88 240.08 228.50 240.25 229.00 C 240.42 229.50 240.46 230.88 240.62 231.38 C 240.79 231.88 240.73 230.48 241.25 232.00 C 241.77 233.52 243.17 238.88 243.75 240.50 C 244.33 242.12 244.02 241.54 244.75 241.75 C 245.48 241.96 245.40 242.35 248.12 241.75 C 250.85 241.15 255.42 239.40 261.12 238.12 C 266.83 236.85 277.15 235.02 282.38 234.12 C 287.60 233.23 290.44 233.10 292.50 232.75 C 294.56 232.40 293.67 232.15 294.75 232.00 C 295.83 231.85 291.48 232.88 299.00 231.88 C 306.52 230.88 325.77 227.48 339.88 226.00 C 353.98 224.52 367.21 223.50 383.62 223.00 C 400.04 222.50 429.19 223.31 438.38 223.00 C 447.56 222.69 439.02 222.04 438.75 221.12 Z" id="s-4-f-5"/>
<path d="M 430.75 212.00 C 430.56 210.17 430.73 211.69 429.88 211.00 C 429.02 210.31 428.00 209.38 425.62 207.88 C 423.25 206.38 418.67 203.65 415.62 202.00 C 412.58 200.35 409.58 198.98 407.38 198.00 C 405.17 197.02 404.00 196.46 402.38 196.12 C 400.75 195.79 400.92 195.52 397.62 196.00 C 394.33 196.48 386.48 198.04 382.62 199.00 C 378.77 199.96 378.38 200.62 374.50 201.75 C 370.62 202.88 367.38 203.92 359.38 205.75 C 351.38 207.58 332.50 211.56 326.50 212.75 C 320.50 213.94 328.54 212.02 323.38 212.88 C 318.21 213.73 305.69 216.40 295.50 217.88 C 285.31 219.35 271.10 220.83 262.25 221.75 C 253.40 222.67 246.27 223.00 242.38 223.38 C 238.48 223.75 239.52 223.71 238.88 224.00 C 238.23 224.29 238.44 224.79 238.50 225.12 C 238.56 225.46 239.06 225.46 239.25 226.00 C 239.44 226.54 239.46 227.88 239.62 228.38 C 239.79 228.88 240.08 228.50 240.25 229.00 C 240.42 229.50 240.46 230.88 240.62 231.38 C 240.79 231.88 240.73 230.48 241.25 232.00 C 241.77 233.52 243.17 238.88 243.75 240.50 C 244.33 242.12 244.02 241.54 244.75 241.75 C 245.48 241.96 245.40 242.35 248.12 241.75 C 250.85 241.15 255.42 239.40 261.12 238.12 C 266.83 236.85 277.15 235.02 282.38 234.12 C 287.60 233.23 290.44 233.10 292.50 232.75 C 294.56 232.40 293.67 232.15 294.75 232.00 C 295.83 231.85 291.48 232.88 299.00 231.88 C 306.52 230.88 325.77 227.48 339.88 226.00 C 353.98 224.52 368.52 223.52 383.62 223.00 C 398.73 222.48 422.60 223.04 430.50 222.88 C 438.40 222.71 430.96 223.81 431.00 222.00 C 431.04 220.19 430.94 213.83 430.75 212.00 Z" id="s-4-f-6"/>
<path d="M 382.88 199.62 C 382.79 195.90 384.23 198.60 382.25 199.12 C 380.27 199.65 376.15 201.33 371.00 202.75 C 365.85 204.17 358.79 205.96 351.38 207.62 C 343.96 209.29 331.17 211.88 326.50 212.75 C 321.83 213.62 328.54 212.02 323.38 212.88 C 318.21 213.73 305.69 216.40 295.50 217.88 C 285.31 219.35 270.81 220.88 262.25 221.75 C 253.69 222.62 248.02 222.75 244.12 223.12 C 240.23 223.50 239.81 223.67 238.88 224.00 C 237.94 224.33 238.44 224.79 238.50 225.12 C 238.56 225.46 239.06 225.46 239.25 226.00 C 239.44 226.54 239.46 227.88 239.62 228.38 C 239.79 228.88 240.08 228.50 240.25 229.00 C 240.42 229.50 240.46 230.88 240.62 231.38 C 240.79 231.88 240.73 230.48 241.25 232.00 C 241.77 233.52 243.17 238.88 243.75 240.50 C 244.33 242.12 244.02 241.54 244.75 241.75 C 245.48 241.96 245.40 242.35 248.12 241.75 C 250.85 241.15 255.42 239.40 261.12 238.12 C 266.83 236.85 277.15 235.02 282.38 234.12 C 287.60 233.23 290.44 233.10 292.50 232.75 C 294.56 232.40 293.67 232.15 294.75 232.00 C 295.83 231.85 291.48 232.88 299.00 231.88 C 306.52 230.88 326.00 227.46 339.88 226.00 C 353.75 224.54 375.10 223.88 382.25 223.12 C 389.40 222.38 382.65 225.42 382.75 221.50 C 382.85 217.58 382.96 203.35 382.88 199.62 Z" id="s-4-f-7"/>
<path d="M 335.00 212.38 C 334.96 210.02 334.92 211.48 334.75 211.25 C 334.58 211.02 335.23 210.77 334.00 211.00 C 332.77 211.23 329.15 212.31 327.38 212.62 C 325.60 212.94 328.69 212.00 323.38 212.88 C 318.06 213.75 305.69 216.40 295.50 217.88 C 285.31 219.35 271.54 220.77 262.25 221.75 C 252.96 222.73 243.71 223.31 239.75 223.75 C 235.79 224.19 238.71 224.15 238.50 224.38 C 238.29 224.60 238.38 224.85 238.50 225.12 C 238.62 225.40 239.06 225.46 239.25 226.00 C 239.44 226.54 239.46 227.88 239.62 228.38 C 239.79 228.88 240.08 228.50 240.25 229.00 C 240.42 229.50 240.46 230.88 240.62 231.38 C 240.79 231.88 240.73 230.48 241.25 232.00 C 241.77 233.52 243.17 238.88 243.75 240.50 C 244.33 242.12 244.02 241.54 244.75 241.75 C 245.48 241.96 245.40 242.35 248.12 241.75 C 250.85 241.15 255.42 239.40 261.12 238.12 C 266.83 236.85 277.15 235.02 282.38 234.12 C 287.60 233.23 290.44 233.10 292.50 232.75 C 294.56 232.40 293.67 232.15 294.75 232.00 C 295.83 231.85 292.35 232.75 299.00 231.88 C 305.65 231.00 328.62 227.83 334.62 226.75 C 340.62 225.67 334.94 227.77 335.00 225.38 C 335.06 222.98 335.04 214.73 335.00 212.38 Z" id="s-4-f-8"/>
<path d="M 286.88 233.12 C 286.98 230.69 287.35 221.46 286.75 219.12 C 286.15 216.79 287.08 218.71 283.25 219.12 C 279.42 219.54 270.27 220.96 263.75 221.62 C 257.23 222.29 248.12 222.77 244.12 223.12 C 240.12 223.48 240.69 223.54 239.75 223.75 C 238.81 223.96 238.52 223.60 238.50 224.38 C 238.48 225.15 239.31 227.54 239.62 228.38 C 239.94 229.21 240.21 228.88 240.38 229.38 C 240.54 229.88 240.46 230.88 240.62 231.38 C 240.79 231.88 241.21 231.88 241.38 232.38 C 241.54 232.88 241.46 233.88 241.62 234.38 C 241.79 234.88 242.21 234.88 242.38 235.38 C 242.54 235.88 242.48 236.94 242.62 237.38 C 242.77 237.81 243.06 237.48 243.25 238.00 C 243.44 238.52 243.50 239.88 243.75 240.50 C 244.00 241.12 243.92 241.56 244.75 241.75 C 245.58 241.94 246.02 242.23 248.75 241.62 C 251.48 241.02 254.90 239.44 261.12 238.12 C 267.35 236.81 281.83 234.58 286.12 233.75 C 290.42 232.92 286.77 235.56 286.88 233.12 Z" id="s-4-f-9"/>
</g>
<g id="s-5" clip-path="url(#c-s-5)">
<use href="#s-5-f-0"/>
<path d="M 388.00 264.25 C 387.69 261.46 387.42 263.62 386.00 263.25 C 384.58 262.88 381.46 262.21 379.50 262.00 C 377.54 261.79 377.58 261.38 374.25 262.00 C 370.92 262.62 367.40 264.12 359.50 265.75 C 351.60 267.38 333.02 270.71 326.88 271.75 C 320.73 272.79 331.98 270.50 322.62 272.00 C 313.27 273.50 283.69 278.77 270.75 280.75 C 257.81 282.73 249.38 283.27 245.00 283.88 C 240.62 284.48 244.71 283.62 244.50 284.38 C 244.29 285.12 243.92 286.54 243.75 288.38 C 243.58 290.21 242.92 294.02 243.50 295.38 C 244.08 296.73 245.60 296.25 247.25 296.50 C 248.90 296.75 250.48 296.83 253.38 296.88 C 256.27 296.92 260.92 296.94 264.62 296.75 C 268.33 296.56 267.48 296.73 275.62 295.75 C 283.77 294.77 304.15 292.17 313.50 290.88 C 322.85 289.58 326.73 288.69 331.75 288.00 C 336.77 287.31 336.69 287.75 343.62 286.75 C 350.56 285.75 366.12 283.02 373.38 282.00 C 380.62 280.98 384.71 280.96 387.12 280.62 C 389.54 280.29 387.73 282.73 387.88 280.00 C 388.02 277.27 388.31 267.04 388.00 264.25 Z" id="s-5-f-1"/>
<path d="M 339.88 269.75 C 339.73 267.69 341.29 268.92 339.12 269.25 C 336.96 269.58 329.62 271.29 326.88 271.75 C 324.12 272.21 331.98 270.50 322.62 272.00 C 313.27 273.50 283.69 278.77 270.75 280.75 C 257.81 282.73 249.38 283.27 245.00 283.88 C 240.62 284.48 244.71 283.62 244.50 284.38 C 244.29 285.12 243.92 286.54 243.75 288.38 C 243.58 290.21 243.48 294.12 243.50 295.38 C 243.52 296.62 242.92 295.65 243.88 295.88 C 244.83 296.10 245.48 296.62 249.25 296.75 C 253.02 296.88 260.69 296.96 266.50 296.62 C 272.31 296.29 279.42 295.35 284.12 294.75 C 288.83 294.15 292.29 293.31 294.75 293.00 C 297.21 292.69 291.46 293.85 298.88 292.88 C 306.29 291.90 332.46 288.15 339.25 287.12 C 346.04 286.10 339.50 287.67 339.62 286.75 C 339.75 285.83 339.96 284.46 340.00 281.62 C 340.04 278.79 340.02 271.81 339.88 269.75 Z" id="s-5-f-2"/>
<path d="M 291.88 277.88 C 291.69 275.48 294.40 277.02 290.88 277.50 C 287.35 277.98 278.40 279.69 270.75 280.75 C 263.10 281.81 249.38 283.27 245.00 283.88 C 240.62 284.48 244.71 283.62 244.50 284.38 C 244.29 285.12 243.92 286.54 243.75 288.38 C 243.58 290.21 243.48 294.12 243.50 295.38 C 243.52 296.62 242.92 295.65 243.88 295.88 C 244.83 296.10 245.79 296.60 249.25 296.75 C 252.71 296.90 257.62 297.25 264.62 296.75 C 271.62 296.25 286.71 294.35 291.25 293.75 C 295.79 293.15 291.75 293.44 291.88 293.12 C 292.00 292.81 292.00 294.42 292.00 291.88 C 292.00 289.33 292.06 280.27 291.88 277.88 Z" id="s-5-f-3"/>
</g>
<g id="s-6" clip-path="url(#c-s-6)">
<use href="#s-6-f-0"/>
<path d="M 386.62 317.88 C 385.77 314.96 383.67 317.15 381.88 317.00 C 380.08 316.85 379.65 316.50 375.88 317.00 C 372.10 317.50 364.79 318.88 359.25 320.00 C 353.71 321.12 348.21 322.62 342.62 323.75 C 337.04 324.88 330.10 326.06 325.75 326.75 C 321.40 327.44 322.40 326.88 316.50 327.88 C 310.60 328.88 299.65 331.29 290.38 332.75 C 281.10 334.21 268.42 335.75 260.88 336.62 C 253.33 337.50 248.19 337.56 245.12 338.00 C 242.06 338.44 242.94 337.33 242.50 339.25 C 242.06 341.17 242.17 347.60 242.50 349.50 C 242.83 351.40 242.75 350.23 244.50 350.62 C 246.25 351.02 249.65 351.69 253.00 351.88 C 256.35 352.06 260.92 351.94 264.62 351.75 C 268.33 351.56 268.31 351.56 275.25 350.75 C 282.19 349.94 297.17 348.12 306.25 346.88 C 315.33 345.62 323.27 344.12 329.75 343.25 C 336.23 342.38 335.90 342.94 345.12 341.62 C 354.35 340.31 378.15 336.56 385.12 335.38 C 392.10 334.19 386.75 337.42 387.00 334.50 C 387.25 331.58 387.48 320.79 386.62 317.88 Z" id="s-6-f-1"/>
<path d="M 338.88 324.88 C 338.71 322.17 347.19 322.90 338.00 324.38 C 328.81 325.85 299.31 331.46 283.75 333.75 C 268.19 336.04 251.50 337.21 244.62 338.12 C 237.75 339.04 242.85 337.35 242.50 339.25 C 242.15 341.15 242.17 347.60 242.50 349.50 C 242.83 351.40 243.38 350.27 244.50 350.62 C 245.62 350.98 245.60 351.46 249.25 351.62 C 252.90 351.79 260.56 351.94 266.38 351.62 C 272.19 351.31 279.40 350.35 284.12 349.75 C 288.85 349.15 292.29 348.31 294.75 348.00 C 297.21 347.69 293.79 348.56 298.88 347.88 C 303.96 347.19 318.67 344.79 325.25 343.88 C 331.83 342.96 336.08 342.92 338.38 342.38 C 340.67 341.83 338.92 343.54 339.00 340.62 C 339.08 337.71 339.04 327.58 338.88 324.88 Z" id="s-6-f-2"/>
<path d="M 290.75 333.00 C 290.10 330.62 290.85 332.54 287.12 333.00 C 283.40 333.46 275.38 334.92 268.38 335.75 C 261.38 336.58 249.44 337.42 245.12 338.00 C 240.81 338.58 242.94 337.33 242.50 339.25 C 242.06 341.17 242.17 347.60 242.50 349.50 C 242.83 351.40 243.35 350.27 244.50 350.62 C 245.65 350.98 246.75 351.42 249.38 351.62 C 252.00 351.83 255.73 352.04 260.25 351.88 C 264.77 351.71 271.58 351.12 276.50 350.62 C 281.42 350.12 287.38 349.27 289.75 348.88 C 292.12 348.48 290.54 348.52 290.75 348.25 C 290.96 347.98 291.00 349.79 291.00 347.25 C 291.00 344.71 291.40 335.38 290.75 333.00 Z" id="s-6-f-3"/>
</g>
<g id="s-7" clip-path="url(#c-s-7)">
<use href="#s-7-f-0"/>
<path d="M 289.12 37.88 C 286.94 37.88 288.08 37.92 287.62 38.12 C 287.17 38.33 286.79 38.56 286.38 39.12 C 285.96 39.69 285.35 40.19 285.12 41.50 C 284.90 42.81 284.29 44.15 285.00 47.00 C 285.71 49.85 288.08 54.38 289.38 58.62 C 290.67 62.88 291.85 67.77 292.75 72.50 C 293.65 77.23 294.25 81.98 294.75 87.00 C 295.25 92.02 295.62 88.54 295.75 102.62 C 295.88 116.71 295.48 159.88 295.50 171.50 C 295.52 183.12 295.81 164.71 295.88 172.38 C 295.94 180.04 295.94 209.83 295.88 217.50 C 295.81 225.17 295.50 208.54 295.50 218.38 C 295.50 228.21 295.88 266.69 295.88 276.50 C 295.88 286.31 295.56 274.58 295.50 277.25 C 295.44 279.92 295.44 289.79 295.50 292.50 C 295.56 295.21 295.81 287.00 295.88 293.50 C 295.94 300.00 295.94 325.04 295.88 331.50 C 295.81 337.96 295.56 329.58 295.50 332.25 C 295.44 334.92 295.44 344.81 295.50 347.50 C 295.56 350.19 295.75 337.33 295.88 348.38 C 296.00 359.42 296.04 401.56 296.25 413.75 C 296.46 425.94 295.96 420.12 297.12 421.50 C 298.29 422.88 300.08 421.92 303.25 422.00 C 306.42 422.08 313.69 422.08 316.12 422.00 C 318.56 421.92 317.10 424.04 317.88 421.50 C 318.65 418.96 319.79 413.25 320.75 406.75 C 321.71 400.25 322.98 389.23 323.62 382.50 C 324.27 375.77 324.42 372.73 324.62 366.38 C 324.83 360.02 324.77 348.19 324.88 344.38 C 324.98 340.56 325.25 352.69 325.25 343.50 C 325.25 334.31 324.79 299.00 324.88 289.25 C 324.96 279.50 325.67 285.77 325.75 285.00 C 325.83 284.23 325.31 284.94 325.38 284.62 C 325.44 284.31 326.04 287.21 326.12 283.12 C 326.21 279.04 325.92 269.27 325.88 260.12 C 325.83 250.98 325.79 233.71 325.88 228.25 C 325.96 222.79 326.38 237.54 326.38 227.38 C 326.38 217.21 325.90 177.42 325.88 167.25 C 325.85 157.08 326.21 177.67 326.25 166.38 C 326.29 155.08 326.00 113.65 326.12 99.50 C 326.25 85.35 326.67 86.31 327.00 81.50 C 327.33 76.69 327.52 74.77 328.12 70.62 C 328.73 66.48 330.17 60.04 330.62 56.62 C 331.08 53.21 331.00 51.62 330.88 50.12 C 330.75 48.62 330.54 48.50 329.88 47.62 C 329.21 46.75 327.96 45.65 326.88 44.88 C 325.79 44.10 324.81 43.62 323.38 43.00 C 321.94 42.38 320.56 41.77 318.25 41.12 C 315.94 40.48 312.42 39.62 309.50 39.12 C 306.58 38.62 304.15 38.33 300.75 38.12 C 297.35 37.92 291.31 37.88 289.12 37.88 Z" id="s-7-f-1"/>
<path d="M 289.12 37.88 C 287.29 37.90 288.08 37.92 287.62 38.12 C 287.17 38.33 286.79 38.56 286.38 39.12 C 285.96 39.69 285.35 40.19 285.12 41.50 C 284.90 42.81 284.29 44.15 285.00 47.00 C 285.71 49.85 288.08 54.38 289.38 58.62 C 290.67 62.88 291.85 67.77 292.75 72.50 C 293.65 77.23 294.25 81.52 294.75 87.00 C 295.25 92.48 295.62 91.29 295.75 105.38 C 295.88 119.46 295.48 160.33 295.50 171.50 C 295.52 182.67 295.81 164.71 295.88 172.38 C 295.94 180.04 295.94 209.83 295.88 217.50 C 295.81 225.17 295.50 208.54 295.50 218.38 C 295.50 228.21 295.88 266.69 295.88 276.50 C 295.88 286.31 295.56 274.58 295.50 277.25 C 295.44 279.92 295.44 289.79 295.50 292.50 C 295.56 295.21 295.81 287.00 295.88 293.50 C 295.94 300.00 295.94 325.04 295.88 331.50 C 295.81 337.96 295.56 329.58 295.50 332.25 C 295.44 334.92 295.44 344.81 295.50 347.50 C 295.56 350.19 295.79 344.02 295.88 348.38 C 295.96 352.73 295.92 369.35 296.00 373.62 C 296.08 377.90 291.73 373.98 296.38 374.00 C 301.02 374.02 319.17 375.02 323.88 373.75 C 328.58 372.48 324.46 371.27 324.62 366.38 C 324.79 361.48 324.77 348.19 324.88 344.38 C 324.98 340.56 325.25 352.69 325.25 343.50 C 325.25 334.31 324.79 299.00 324.88 289.25 C 324.96 279.50 325.67 285.77 325.75 285.00 C 325.83 284.23 325.31 284.94 325.38 284.62 C 325.44 284.31 326.04 287.21 326.12 283.12 C 326.21 279.04 325.92 269.27 325.88 260.12 C 325.83 250.98 325.79 233.71 325.88 228.25 C 325.96 222.79 326.38 237.54 326.38 227.38 C 326.38 217.21 325.90 177.42 325.88 167.25 C 325.85 157.08 326.21 177.67 326.25 166.38 C 326.29 155.08 326.00 113.65 326.12 99.50 C 326.25 85.35 326.67 86.31 327.00 81.50 C 327.33 76.69 327.52 74.77 328.12 70.62 C 328.73 66.48 330.17 60.04 330.62 56.62 C 331.08 53.21 331.02 51.67 330.88 50.12 C 330.73 48.58 330.21 48.10 329.75 47.38 C 329.29 46.65 329.12 46.46 328.12 45.75 C 327.12 45.04 325.40 43.90 323.75 43.12 C 322.10 42.35 320.77 41.81 318.25 41.12 C 315.73 40.44 311.90 39.52 308.62 39.00 C 305.35 38.48 301.88 38.19 298.62 38.00 C 295.38 37.81 290.96 37.85 289.12 37.88 Z" id="s-7-f-2"/>
<path d="M 289.00 37.88 C 286.60 38.04 287.02 38.52 286.38 39.12 C 285.73 39.73 285.35 40.19 285.12 41.50 C 284.90 42.81 284.21 43.88 285.00 47.00 C 285.79 50.12 288.58 56.00 289.88 60.25 C 291.17 64.50 291.94 68.04 292.75 72.50 C 293.56 76.96 294.25 81.52 294.75 87.00 C 295.25 92.48 295.62 91.29 295.75 105.38 C 295.88 119.46 295.48 160.33 295.50 171.50 C 295.52 182.67 295.81 164.71 295.88 172.38 C 295.94 180.04 295.94 209.85 295.88 217.50 C 295.81 225.15 295.50 208.42 295.50 218.25 C 295.50 228.08 295.88 266.67 295.88 276.50 C 295.88 286.33 295.56 274.58 295.50 277.25 C 295.44 279.92 295.44 289.79 295.50 292.50 C 295.56 295.21 295.79 287.98 295.88 293.50 C 295.96 299.02 295.92 320.21 296.00 325.62 C 296.08 331.04 291.69 325.96 296.38 326.00 C 301.06 326.04 319.42 325.96 324.12 325.88 C 328.83 325.79 324.50 325.90 324.62 325.50 C 324.75 325.10 324.83 329.54 324.88 323.50 C 324.92 317.46 324.73 295.67 324.88 289.25 C 325.02 282.83 325.67 285.77 325.75 285.00 C 325.83 284.23 325.31 284.94 325.38 284.62 C 325.44 284.31 326.04 287.21 326.12 283.12 C 326.21 279.04 325.92 269.27 325.88 260.12 C 325.83 250.98 325.81 233.69 325.88 228.25 C 325.94 222.81 326.25 237.67 326.25 227.50 C 326.25 217.33 325.88 177.56 325.88 167.25 C 325.88 156.94 326.21 176.92 326.25 165.62 C 326.29 154.33 326.00 113.52 326.12 99.50 C 326.25 85.48 326.67 86.31 327.00 81.50 C 327.33 76.69 327.52 74.77 328.12 70.62 C 328.73 66.48 330.17 60.04 330.62 56.62 C 331.08 53.21 331.00 51.62 330.88 50.12 C 330.75 48.62 330.54 48.50 329.88 47.62 C 329.21 46.75 327.90 45.62 326.88 44.88 C 325.85 44.12 325.25 43.77 323.75 43.12 C 322.25 42.48 320.25 41.67 317.88 41.00 C 315.50 40.33 312.35 39.60 309.50 39.12 C 306.65 38.65 304.17 38.33 300.75 38.12 C 297.33 37.92 291.40 37.71 289.00 37.88 Z" id="s-7-f-3"/>
<path d="M 288.12 38.00 C 285.71 38.19 286.75 38.67 286.25 39.25 C 285.75 39.83 285.33 40.21 285.12 41.50 C 284.92 42.79 284.21 43.88 285.00 47.00 C 285.79 50.12 288.58 56.00 289.88 60.25 C 291.17 64.50 291.94 68.04 292.75 72.50 C 293.56 76.96 294.27 82.33 294.75 87.00 C 295.23 91.67 295.44 68.92 295.62 100.50 C 295.81 132.08 295.90 246.92 295.88 276.50 C 295.85 306.08 290.67 277.73 295.50 278.00 C 300.33 278.27 319.85 278.15 324.88 278.12 C 329.90 278.10 325.40 278.46 325.62 277.88 C 325.85 277.29 326.21 277.58 326.25 274.62 C 326.29 271.67 325.94 267.85 325.88 260.12 C 325.81 252.40 325.81 233.69 325.88 228.25 C 325.94 222.81 326.25 237.67 326.25 227.50 C 326.25 217.33 325.88 177.56 325.88 167.25 C 325.88 156.94 326.21 176.92 326.25 165.62 C 326.29 154.33 326.00 113.52 326.12 99.50 C 326.25 85.48 326.67 86.31 327.00 81.50 C 327.33 76.69 327.52 74.77 328.12 70.62 C 328.73 66.48 330.19 60.19 330.62 56.62 C 331.06 53.06 330.98 50.88 330.75 49.25 C 330.52 47.62 329.90 47.60 329.25 46.88 C 328.60 46.15 327.79 45.50 326.88 44.88 C 325.96 44.25 325.25 43.77 323.75 43.12 C 322.25 42.48 320.25 41.67 317.88 41.00 C 315.50 40.33 312.35 39.60 309.50 39.12 C 306.65 38.65 304.31 38.31 300.75 38.12 C 297.19 37.94 290.54 37.81 288.12 38.00 Z" id="s-7-f-4"/>
<path d="M 288.12 38.00 C 285.71 38.19 286.75 38.67 286.25 39.25 C 285.75 39.83 285.33 40.21 285.12 41.50 C 284.92 42.79 284.21 43.88 285.00 47.00 C 285.79 50.12 288.58 56.00 289.88 60.25 C 291.17 64.50 291.94 68.04 292.75 72.50 C 293.56 76.96 294.27 82.33 294.75 87.00 C 295.23 91.67 295.44 78.75 295.62 100.50 C 295.81 122.25 295.90 197.88 295.88 217.50 C 295.85 237.12 295.56 216.25 295.50 218.25 C 295.44 220.25 295.38 227.50 295.50 229.50 C 295.62 231.50 294.67 230.08 296.25 230.25 C 297.83 230.42 300.15 230.54 305.00 230.50 C 309.85 230.46 321.83 230.50 325.38 230.00 C 328.92 229.50 326.17 237.96 326.25 227.50 C 326.33 217.04 325.88 177.56 325.88 167.25 C 325.88 156.94 326.21 176.92 326.25 165.62 C 326.29 154.33 326.00 113.52 326.12 99.50 C 326.25 85.48 326.67 86.31 327.00 81.50 C 327.33 76.69 327.52 74.77 328.12 70.62 C 328.73 66.48 330.19 60.19 330.62 56.62 C 331.06 53.06 330.98 50.88 330.75 49.25 C 330.52 47.62 329.90 47.60 329.25 46.88 C 328.60 46.15 327.79 45.50 326.88 44.88 C 325.96 44.25 325.25 43.77 323.75 43.12 C 322.25 42.48 320.25 41.67 317.88 41.00 C 315.50 40.33 312.35 39.60 309.50 39.12 C 306.65 38.65 304.31 38.31 300.75 38.12 C 297.19 37.94 290.54 37.81 288.12 38.00 Z" id="s-7-f-5"/>
<path d="M 288.12 38.00 C 285.71 38.19 286.75 38.67 286.25 39.25 C 285.75 39.83 285.33 40.21 285.12 41.50 C 284.92 42.79 284.21 43.88 285.00 47.00 C 285.79 50.12 288.58 56.00 289.88 60.25 C 291.17 64.50 291.94 68.04 292.75 72.50 C 293.56 76.96 294.31 83.17 294.75 87.00 C 295.19 90.83 295.19 87.15 295.38 95.50 C 295.56 103.85 295.85 124.46 295.88 137.12 C 295.90 149.79 295.50 165.62 295.50 171.50 C 295.50 177.38 295.79 170.69 295.88 172.38 C 295.96 174.06 295.65 180.02 296.00 181.62 C 296.35 183.23 293.06 182.00 298.00 182.00 C 302.94 182.00 320.92 184.35 325.62 181.62 C 330.33 178.90 326.17 179.31 326.25 165.62 C 326.33 151.94 326.00 113.52 326.12 99.50 C 326.25 85.48 326.67 86.31 327.00 81.50 C 327.33 76.69 327.52 74.77 328.12 70.62 C 328.73 66.48 330.19 60.19 330.62 56.62 C 331.06 53.06 330.98 50.88 330.75 49.25 C 330.52 47.62 329.90 47.60 329.25 46.88 C 328.60 46.15 327.79 45.50 326.88 44.88 C 325.96 44.25 325.25 43.77 323.75 43.12 C 322.25 42.48 320.25 41.67 317.88 41.00 C 315.50 40.33 312.35 39.60 309.50 39.12 C 306.65 38.65 304.31 38.31 300.75 38.12 C 297.19 37.94 290.54 37.81 288.12 38.00 Z" id="s-7-f-6"/>
<path d="M 288.12 38.00 C 285.71 38.19 286.75 38.67 286.25 39.25 C 285.75 39.83 285.33 40.21 285.12 41.50 C 284.92 42.79 284.21 43.88 285.00 47.00 C 285.79 50.12 288.58 56.00 289.88 60.25 C 291.17 64.50 292.10 69.40 292.75 72.50 C 293.40 75.60 293.27 74.21 293.75 78.88 C 294.23 83.54 295.25 91.38 295.62 100.50 C 296.00 109.62 295.88 128.04 296.00 133.62 C 296.12 139.21 291.48 133.94 296.38 134.00 C 301.27 134.06 320.46 134.23 325.38 134.00 C 330.29 133.77 325.75 138.38 325.88 132.62 C 326.00 126.88 325.94 108.02 326.12 99.50 C 326.31 90.98 326.67 86.31 327.00 81.50 C 327.33 76.69 327.52 74.77 328.12 70.62 C 328.73 66.48 330.19 60.19 330.62 56.62 C 331.06 53.06 330.98 50.88 330.75 49.25 C 330.52 47.62 329.90 47.60 329.25 46.88 C 328.60 46.15 327.79 45.50 326.88 44.88 C 325.96 44.25 325.25 43.77 323.75 43.12 C 322.25 42.48 320.25 41.67 317.88 41.00 C 315.50 40.33 312.35 39.60 309.50 39.12 C 306.65 38.65 304.31 38.31 300.75 38.12 C 297.19 37.94 290.54 37.81 288.12 38.00 Z" id="s-7-f-7"/>
<path d="M 286.38 39.12 C 285.85 39.81 285.23 40.81 285.00 42.12 C 284.77 43.44 284.56 45.15 285.00 47.00 C 285.44 48.85 286.67 50.48 287.62 53.25 C 288.58 56.02 289.90 60.42 290.75 63.62 C 291.60 66.83 292.15 68.92 292.75 72.50 C 293.35 76.08 293.98 82.92 294.38 85.12 C 294.77 87.33 294.69 85.60 295.12 85.75 C 295.56 85.90 291.75 86.00 297.00 86.00 C 302.25 86.00 321.46 88.17 326.62 85.75 C 331.79 83.33 327.31 76.54 328.00 71.50 C 328.69 66.46 330.29 59.21 330.75 55.50 C 331.21 51.79 331.00 50.69 330.75 49.25 C 330.50 47.81 330.44 47.92 329.25 46.88 C 328.06 45.83 325.52 43.98 323.62 43.00 C 321.73 42.02 320.27 41.65 317.88 41.00 C 315.48 40.35 312.10 39.60 309.25 39.12 C 306.40 38.65 304.27 38.31 300.75 38.12 C 297.23 37.94 290.52 37.83 288.12 38.00 C 285.73 38.17 286.90 38.44 286.38 39.12 Z" id="s-7-f-8"/>
</g>
<g id="s-8" clip-path="url(#c-s-8)">
<use href="#s-8-f-0"/>
<path d="M 367.25 62.38 C 366.85 63.15 366.71 64.54 367.00 65.50 C 367.29 66.46 365.29 64.52 369.00 68.12 C 372.71 71.73 384.48 82.83 389.25 87.12 C 394.02 91.42 394.75 91.75 397.62 93.88 C 400.50 96.00 404.15 98.42 406.50 99.88 C 408.85 101.33 410.52 102.06 411.75 102.62 C 412.98 103.19 413.35 103.21 413.88 103.25 C 414.40 103.29 414.69 107.00 414.88 102.88 C 415.06 98.75 415.06 84.38 415.00 78.50 C 414.94 72.62 416.92 69.98 414.50 67.62 C 412.08 65.27 406.31 65.44 400.50 64.38 C 394.69 63.31 384.81 61.83 379.62 61.25 C 374.44 60.67 371.44 60.69 369.38 60.88 C 367.31 61.06 367.65 61.60 367.25 62.38 Z" id="s-8-f-1"/>
</g>
</svg>