<?xml version="1.0" encoding="UTF-8"?>
<svg xmlns="http://www.w3.org/2000/svg" viewBox="0 0 500 500">
<defs>
<path d="M 227.88 99.12 C 227.75 98.46 227.56 97.88 226.88 97.00 C 226.19 96.12 225.23 95.04 223.75 93.88 C 222.27 92.71 219.92 91.17 218.00 90.00 C 216.08 88.83 215.40 88.19 212.25 86.88 C 209.10 85.56 202.17 82.94 199.12 82.12 C 196.08 81.31 197.96 81.23 194.00 82.00 C 190.04 82.77 183.35 84.96 175.38 86.75 C 167.40 88.54 157.25 90.60 146.12 92.75 C 135.00 94.90 125.50 96.75 108.62 99.62 C 91.75 102.50 56.33 107.90 44.88 110.00 C 33.42 112.10 40.88 111.67 39.88 112.25 C 38.88 112.83 39.04 113.10 38.88 113.50 C 38.71 113.90 38.60 114.04 38.88 114.62 C 39.15 115.21 39.58 116.15 40.50 117.00 C 41.42 117.85 41.81 118.48 44.38 119.75 C 46.94 121.02 52.56 123.48 55.88 124.62 C 59.19 125.77 61.58 126.23 64.25 126.62 C 66.92 127.02 65.81 128.10 71.88 127.00 C 77.94 125.90 90.77 122.15 100.62 120.00 C 110.48 117.85 121.98 115.62 131.00 114.12 C 140.02 112.62 146.83 111.88 154.75 111.00 C 162.67 110.12 172.25 109.54 178.50 108.88 C 184.75 108.21 185.62 107.56 192.25 107.00 C 198.88 106.44 212.85 106.04 218.25 105.50 C 223.65 104.96 223.06 104.50 224.62 103.75 C 226.19 103.00 227.08 101.77 227.62 101.00 C 228.17 100.23 228.00 99.79 227.88 99.12 Z" id="s-0-f-0"/>
<clipPath id="c-s-0"><use href="#s-0-f-0"/></clipPath>
<path d="M 97.12 120.62 C 95.71 119.90 96.73 120.17 94.62 120.62 C 92.52 121.08 86.69 122.88 84.50 123.38 C 82.31 123.88 82.25 123.46 81.50 123.62 C 80.75 123.79 81.48 124.02 80.00 124.38 C 78.52 124.73 74.15 125.35 72.62 125.75 C 71.10 126.15 70.69 125.56 70.88 126.75 C 71.06 127.94 72.92 130.46 73.75 132.88 C 74.58 135.29 74.81 111.62 75.88 141.25 C 76.94 170.88 79.29 279.48 80.12 310.62 C 80.96 341.77 80.69 325.08 80.88 328.12 C 81.06 331.17 78.00 330.02 81.25 328.88 C 84.50 327.73 97.10 322.69 100.38 321.25 C 103.65 319.81 100.44 341.88 100.88 320.25 C 101.31 298.62 102.65 220.25 103.00 191.50 C 103.35 162.75 102.83 157.00 103.00 147.75 C 103.17 138.50 103.71 138.40 104.00 136.00 C 104.29 133.60 104.60 134.71 104.75 133.38 C 104.90 132.04 105.15 129.40 104.88 128.00 C 104.60 126.60 104.42 126.23 103.12 125.00 C 101.83 123.77 98.54 121.35 97.12 120.62 Z" id="s-1-f-0"/>
<clipPath id="c-s-1"><use href="#s-1-f-0"/></clipPath>
<path d="M 179.00 107.62 C 177.71 107.71 179.00 108.08 177.50 108.25 C 176.00 108.42 171.69 108.44 170.00 108.62 C 168.31 108.81 169.04 109.21 167.38 109.38 C 165.71 109.54 161.92 109.40 160.00 109.62 C 158.08 109.85 156.52 110.15 155.88 110.75 C 155.23 111.35 155.67 111.52 156.12 113.25 C 156.58 114.98 158.04 118.94 158.62 121.12 C 159.21 123.31 159.17 121.79 159.62 126.38 C 160.08 130.96 161.00 128.98 161.38 148.62 C 161.75 168.27 161.81 214.46 161.88 244.25 C 161.94 274.04 161.92 307.10 161.75 327.38 C 161.58 347.65 161.21 356.52 160.88 365.88 C 160.54 375.23 160.54 376.19 159.75 383.50 C 158.96 390.81 156.77 404.12 156.12 409.75 C 155.48 415.38 155.88 415.46 155.88 417.25 C 155.88 419.04 155.90 419.19 156.12 420.50 C 156.35 421.81 156.60 423.17 157.25 425.12 C 157.90 427.08 159.04 430.04 160.00 432.25 C 160.96 434.46 161.71 436.23 163.00 438.38 C 164.29 440.52 166.60 443.69 167.75 445.12 C 168.90 446.56 169.17 446.54 169.88 447.00 C 170.58 447.46 171.23 447.75 172.00 447.88 C 172.77 448.00 173.83 447.90 174.50 447.75 C 175.17 447.60 174.96 447.98 176.00 447.00 C 177.04 446.02 179.29 444.12 180.75 441.88 C 182.21 439.62 183.75 436.52 184.75 433.50 C 185.75 430.48 186.42 429.10 186.75 423.75 C 187.08 418.40 186.88 407.40 186.75 401.38 C 186.62 395.35 186.27 397.40 186.00 387.62 C 185.73 377.85 185.29 379.54 185.12 342.75 C 184.96 305.96 184.71 201.31 185.00 166.88 C 185.29 132.44 186.38 142.71 186.88 136.12 C 187.38 129.54 187.35 130.31 188.00 127.38 C 188.65 124.44 190.31 120.85 190.75 118.50 C 191.19 116.15 190.92 114.54 190.62 113.25 C 190.33 111.96 189.90 111.67 189.00 110.75 C 188.10 109.83 186.92 108.27 185.25 107.75 C 183.58 107.23 180.29 107.54 179.00 107.62 Z" id="s-2-f-0"/>
<clipPath id="c-s-2"><use href="#s-2-f-0"/></clipPath>
<path d="M 162.25 173.25 C 161.92 171.46 163.58 172.88 160.12 172.00 C 156.67 171.12 145.31 168.67 141.50 168.00 C 137.69 167.33 139.19 167.40 137.25 168.00 C 135.31 168.60 133.17 170.21 129.88 171.62 C 126.58 173.04 121.27 175.15 117.50 176.50 C 113.73 177.85 109.75 179.12 107.25 179.75 C 104.75 180.38 103.29 178.29 102.50 180.25 C 101.71 182.21 102.15 189.42 102.50 191.50 C 102.85 193.58 103.60 192.40 104.62 192.75 C 105.65 193.10 106.12 193.46 108.62 193.62 C 111.12 193.79 111.90 195.06 119.62 193.75 C 127.35 192.44 147.92 187.58 155.00 185.75 C 162.08 183.92 160.92 184.83 162.12 182.75 C 163.33 180.67 162.58 175.04 162.25 173.25 Z" id="s-3-f-0"/>
<clipPath id="c-s-3"><use href="#s-3-f-0"/></clipPath>
<path d="M 162.25 234.25 C 161.06 232.15 158.25 231.73 155.12 230.88 C 152.00 230.02 146.69 229.42 143.50 229.12 C 140.31 228.83 137.71 228.98 136.00 229.12 C 134.29 229.27 135.56 228.94 133.25 230.00 C 130.94 231.06 125.40 234.04 122.12 235.50 C 118.85 236.96 116.10 237.88 113.62 238.75 C 111.15 239.62 109.27 240.33 107.25 240.75 C 105.23 241.17 102.46 239.46 101.50 241.25 C 100.54 243.04 101.15 249.60 101.50 251.50 C 101.85 253.40 102.44 252.27 103.62 252.62 C 104.81 252.98 105.83 253.46 108.62 253.62 C 111.42 253.79 117.44 253.90 120.38 253.62 C 123.31 253.35 123.02 252.65 126.25 252.00 C 129.48 251.35 136.71 250.42 139.75 249.75 C 142.79 249.08 143.08 248.35 144.50 248.00 C 145.92 247.65 145.77 248.17 148.25 247.62 C 150.73 247.08 157.04 245.44 159.38 244.75 C 161.71 244.06 161.77 245.25 162.25 243.50 C 162.73 241.75 163.44 236.35 162.25 234.25 Z" id="s-4-f-0"/>
<clipPath id="c-s-4"><use href="#s-4-f-0"/></clipPath>
<path d="M 162.25 296.25 C 162.23 294.06 162.29 295.92 161.88 295.88 C 161.46 295.83 165.31 293.69 159.75 296.00 C 154.19 298.31 138.23 305.65 128.50 309.75 C 118.77 313.85 106.19 318.81 101.38 320.62 C 96.56 322.44 100.04 320.50 99.62 320.62 C 99.21 320.75 99.29 321.21 98.88 321.38 C 98.46 321.54 97.56 321.46 97.12 321.62 C 96.69 321.79 96.71 322.19 96.25 322.38 C 95.79 322.56 94.77 322.58 94.38 322.75 C 93.98 322.92 94.25 323.23 93.88 323.38 C 93.50 323.52 92.56 323.46 92.12 323.62 C 91.69 323.79 91.71 324.19 91.25 324.38 C 90.79 324.56 89.77 324.58 89.38 324.75 C 88.98 324.92 89.25 325.23 88.88 325.38 C 88.50 325.52 87.56 325.46 87.12 325.62 C 86.69 325.79 87.08 326.02 86.25 326.38 C 85.42 326.73 83.06 327.33 82.12 327.75 C 81.19 328.17 87.19 326.38 80.62 328.88 C 74.06 331.38 50.33 340.10 42.75 342.75 C 35.17 345.40 37.88 344.21 35.12 344.75 C 32.38 345.29 27.96 345.54 26.25 346.00 C 24.54 346.46 25.06 346.77 24.88 347.50 C 24.69 348.23 24.73 349.19 25.12 350.38 C 25.52 351.56 26.15 353.02 27.25 354.62 C 28.35 356.23 30.33 358.46 31.75 360.00 C 33.17 361.54 33.98 362.42 35.75 363.88 C 37.52 365.33 40.42 367.46 42.38 368.75 C 44.33 370.04 45.73 370.77 47.50 371.62 C 49.27 372.48 51.15 373.33 53.00 373.88 C 54.85 374.42 57.15 374.75 58.62 374.88 C 60.10 375.00 56.06 378.29 61.88 374.62 C 67.69 370.96 76.81 363.81 93.50 352.88 C 110.19 341.94 150.54 318.44 162.00 309.00 C 173.46 299.56 162.27 298.44 162.25 296.25 Z" id="s-5-f-0"/>
<clipPath id="c-s-5"><use href="#s-5-f-0"/></clipPath>
<path d="M 332.75 67.75 C 331.58 66.38 330.12 64.85 327.75 62.88 C 325.38 60.90 320.73 57.46 318.50 55.88 C 316.27 54.29 316.23 54.21 314.38 53.38 C 312.52 52.54 308.88 51.27 307.38 50.88 C 305.88 50.48 306.04 50.75 305.38 51.00 C 304.71 51.25 304.23 51.60 303.38 52.38 C 302.52 53.15 301.56 53.48 300.25 55.62 C 298.94 57.77 297.40 61.79 295.50 65.25 C 293.60 68.71 291.31 72.56 288.88 76.38 C 286.44 80.19 283.58 84.33 280.88 88.12 C 278.17 91.92 277.08 93.92 272.62 99.12 C 268.17 104.33 259.67 113.69 254.12 119.38 C 248.58 125.06 241.83 130.73 239.38 133.25 C 236.92 135.77 238.17 133.08 239.38 134.50 C 240.58 135.92 245.19 140.56 246.62 141.75 C 248.06 142.94 246.35 142.29 248.00 141.62 C 249.65 140.96 252.69 140.04 256.50 137.75 C 260.31 135.46 265.73 131.79 270.88 127.88 C 276.02 123.96 281.96 118.52 287.38 114.25 C 292.79 109.98 298.58 105.62 303.38 102.25 C 308.17 98.88 312.10 96.29 316.12 94.00 C 320.15 91.71 325.00 90.02 327.50 88.50 C 330.00 86.98 330.25 85.88 331.12 84.88 C 332.00 83.88 332.17 83.77 332.75 82.50 C 333.33 81.23 334.29 79.15 334.62 77.25 C 334.96 75.35 335.06 72.71 334.75 71.12 C 334.44 69.54 333.92 69.12 332.75 67.75 Z" id="s-6-f-0"/>
<clipPath id="c-s-6"><use href="#s-6-f-0"/></clipPath>
<path d="M 214.00 129.00 C 211.94 129.08 212.40 129.56 211.88 129.88 C 211.35 130.19 211.21 130.29 210.88 130.88 C 210.54 131.46 210.02 132.60 209.88 133.38 C 209.73 134.15 209.35 134.33 210.00 135.50 C 210.65 136.67 212.65 138.67 213.75 140.38 C 214.85 142.08 215.62 143.60 216.62 145.75 C 217.62 147.90 218.90 150.85 219.75 153.25 C 220.60 155.65 221.19 157.65 221.75 160.12 C 222.31 162.60 222.62 165.79 223.12 168.12 C 223.62 170.46 224.00 169.42 224.75 174.12 C 225.50 178.83 226.90 189.04 227.62 196.38 C 228.35 203.71 228.29 209.77 229.12 218.12 C 229.96 226.48 231.81 239.21 232.62 246.50 C 233.44 253.79 233.42 258.12 234.00 261.88 C 234.58 265.62 235.12 266.62 236.12 269.00 C 237.12 271.38 238.98 274.52 240.00 276.12 C 241.02 277.73 241.62 278.06 242.25 278.62 C 242.88 279.19 243.00 279.31 243.75 279.50 C 244.50 279.69 246.02 279.88 246.75 279.75 C 247.48 279.62 247.44 279.52 248.12 278.75 C 248.81 277.98 250.10 276.73 250.88 275.12 C 251.65 273.52 252.40 270.50 252.75 269.12 C 253.10 267.75 253.02 272.69 253.00 266.88 C 252.98 261.06 252.98 244.88 252.62 234.25 C 252.27 223.62 251.67 214.42 250.88 203.12 C 250.08 191.83 248.40 176.38 247.88 166.50 C 247.35 156.62 248.00 148.19 247.75 143.88 C 247.50 139.56 247.77 142.27 246.38 140.62 C 244.98 138.98 243.06 135.88 239.38 134.00 C 235.69 132.12 228.48 130.21 224.25 129.38 C 220.02 128.54 216.06 128.92 214.00 129.00 Z" id="s-7-f-0"/>
<clipPath id="c-s-7"><use href="#s-7-f-0"/></clipPath>
<path d="M 307.88 193.12 C 307.67 192.48 307.23 191.92 306.50 191.25 C 305.77 190.58 305.27 190.00 303.50 189.12 C 301.73 188.25 299.29 186.83 295.88 186.00 C 292.46 185.17 286.48 184.44 283.00 184.12 C 279.52 183.81 276.83 183.96 275.00 184.12 C 273.17 184.29 273.23 184.52 272.00 185.12 C 270.77 185.73 269.46 186.83 267.62 187.75 C 265.79 188.67 263.98 189.56 261.00 190.62 C 258.02 191.69 251.65 192.27 249.75 194.12 C 247.85 195.98 249.48 199.48 249.62 201.75 C 249.77 204.02 249.75 206.58 250.62 207.75 C 251.50 208.92 252.29 208.60 254.88 208.75 C 257.46 208.90 263.44 208.79 266.12 208.62 C 268.81 208.46 268.48 208.40 271.00 207.75 C 273.52 207.10 278.96 205.54 281.25 204.75 C 283.54 203.96 283.62 203.35 284.75 203.00 C 285.88 202.65 286.85 202.96 288.00 202.62 C 289.15 202.29 289.71 201.48 291.62 201.00 C 293.54 200.52 297.58 200.15 299.50 199.75 C 301.42 199.35 302.10 199.02 303.12 198.62 C 304.15 198.23 304.85 197.96 305.62 197.38 C 306.40 196.79 307.38 195.83 307.75 195.12 C 308.12 194.42 308.08 193.77 307.88 193.12 Z" id="s-8-f-0"/>
<clipPath id="c-s-8"><use href="#s-8-f-0"/></clipPath>
<path d="M 403.38 106.00 C 400.38 105.17 400.71 105.81 399.12 106.00 C 397.54 106.19 396.40 106.46 393.88 107.12 C 391.35 107.79 388.17 108.56 384.00 110.00 C 379.83 111.44 374.62 113.96 368.88 115.75 C 363.12 117.54 355.90 119.44 349.50 120.75 C 343.10 122.06 336.44 122.96 330.50 123.62 C 324.56 124.29 316.98 124.46 313.88 124.75 C 310.77 125.04 312.17 124.62 311.88 125.38 C 311.58 126.12 311.92 128.08 312.12 129.25 C 312.33 130.42 312.77 131.56 313.12 132.38 C 313.48 133.19 313.38 133.25 314.25 134.12 C 315.12 135.00 317.04 136.85 318.38 137.62 C 319.71 138.40 319.44 138.56 322.25 138.75 C 325.06 138.94 331.19 138.92 335.25 138.75 C 339.31 138.58 337.35 139.04 346.62 137.75 C 355.90 136.46 383.10 132.12 390.88 131.00 C 398.65 129.88 392.46 130.85 393.25 131.00 C 394.04 131.15 394.73 131.15 395.62 131.88 C 396.52 132.60 397.94 133.94 398.62 135.38 C 399.31 136.81 399.58 137.85 399.75 140.50 C 399.92 143.15 399.96 146.67 399.62 151.25 C 399.29 155.83 398.71 161.90 397.75 168.00 C 396.79 174.10 394.58 183.67 393.88 187.88 C 393.17 192.08 394.33 188.98 393.50 193.25 C 392.67 197.52 390.33 207.62 388.88 213.50 C 387.42 219.38 386.25 223.69 384.75 228.50 C 383.25 233.31 381.35 238.67 379.88 242.38 C 378.40 246.08 376.75 248.56 375.88 250.75 C 375.00 252.94 375.12 254.00 374.62 255.50 C 374.12 257.00 373.15 258.69 372.88 259.75 C 372.60 260.81 372.46 260.15 373.00 261.88 C 373.54 263.60 375.10 268.12 376.12 270.12 C 377.15 272.12 378.12 272.94 379.12 273.88 C 380.12 274.81 380.67 275.46 382.12 275.75 C 383.58 276.04 386.15 275.96 387.88 275.62 C 389.60 275.29 391.17 274.50 392.50 273.75 C 393.83 273.00 394.67 272.48 395.88 271.12 C 397.08 269.77 398.46 268.27 399.75 265.62 C 401.04 262.98 402.71 258.06 403.62 255.25 C 404.54 252.44 402.23 258.54 405.25 248.75 C 408.27 238.96 417.42 210.52 421.75 196.50 C 426.08 182.48 428.83 171.98 431.25 164.62 C 433.67 157.27 434.81 155.40 436.25 152.38 C 437.69 149.35 438.46 148.44 439.88 146.50 C 441.29 144.56 443.60 142.35 444.75 140.75 C 445.90 139.15 446.42 138.17 446.75 136.88 C 447.08 135.58 447.04 134.21 446.75 133.00 C 446.46 131.79 445.94 130.90 445.00 129.62 C 444.06 128.35 443.10 127.17 441.12 125.38 C 439.15 123.58 435.25 120.44 433.12 118.88 C 431.00 117.31 431.04 117.31 428.38 116.00 C 425.71 114.69 421.29 112.67 417.12 111.00 C 412.96 109.33 406.38 106.83 403.38 106.00 Z" id="s-9-f-0"/>
<clipPath id="c-s-9"><use href="#s-9-f-0"/></clipPath>
<path d="M 396.25 179.25 C 396.40 177.85 396.75 179.12 396.00 178.75 C 395.25 178.38 395.00 177.79 391.75 177.00 C 388.50 176.21 379.73 174.52 376.50 174.00 C 373.27 173.48 374.73 173.25 372.38 173.88 C 370.02 174.50 365.73 176.60 362.38 177.75 C 359.02 178.90 356.06 179.75 352.25 180.75 C 348.44 181.75 343.31 183.02 339.50 183.75 C 335.69 184.48 331.71 184.60 329.38 185.12 C 327.04 185.65 326.40 186.29 325.50 186.88 C 324.60 187.46 324.27 188.04 324.00 188.62 C 323.73 189.21 323.69 189.75 323.88 190.38 C 324.06 191.00 324.40 191.65 325.12 192.38 C 325.85 193.10 326.56 193.85 328.25 194.75 C 329.94 195.65 332.58 197.06 335.25 197.75 C 337.92 198.44 341.17 198.71 344.25 198.88 C 347.33 199.04 350.88 198.94 353.75 198.75 C 356.62 198.56 355.60 198.92 361.50 197.75 C 367.40 196.58 383.69 193.06 389.12 191.75 C 394.56 190.44 393.12 190.65 394.12 189.88 C 395.12 189.10 394.77 188.90 395.12 187.12 C 395.48 185.35 396.10 180.65 396.25 179.25 Z" id="s-10-f-0"/>
<clipPath id="c-s-10"><use href="#s-10-f-0"/></clipPath>
<path d="M 377.25 249.25 C 376.96 248.19 376.42 248.04 374.38 247.00 C 372.33 245.96 367.73 244.00 365.00 243.00 C 362.27 242.00 360.06 241.35 358.00 241.00 C 355.94 240.65 355.52 240.71 352.62 240.88 C 349.73 241.04 351.40 240.69 340.62 242.00 C 329.85 243.31 302.48 247.12 288.00 248.75 C 273.52 250.38 259.67 251.17 253.75 251.75 C 247.83 252.33 252.71 249.62 252.50 252.25 C 252.29 254.88 252.17 264.75 252.50 267.50 C 252.83 270.25 253.52 268.40 254.50 268.75 C 255.48 269.10 255.83 269.46 258.38 269.62 C 260.92 269.79 267.19 269.85 269.75 269.75 C 272.31 269.65 268.83 269.35 273.75 269.00 C 278.67 268.65 291.60 268.29 299.25 267.62 C 306.90 266.96 313.65 265.62 319.62 265.00 C 325.60 264.38 330.06 264.35 335.12 263.88 C 340.19 263.40 345.31 262.48 350.00 262.12 C 354.69 261.77 359.44 261.96 363.25 261.75 C 367.06 261.54 370.90 261.77 372.88 260.88 C 374.85 259.98 374.71 257.46 375.12 256.38 C 375.54 255.29 375.21 254.88 375.38 254.38 C 375.54 253.88 375.81 254.23 376.12 253.38 C 376.44 252.52 377.54 250.31 377.25 249.25 Z" id="s-11-f-0"/>
<clipPath id="c-s-11"><use href="#s-11-f-0"/></clipPath>
<path d="M 295.38 267.75 C 293.29 267.54 286.81 267.52 283.62 267.62 C 280.44 267.73 277.67 268.15 276.25 268.38 C 274.83 268.60 275.69 265.17 275.12 269.00 C 274.56 272.83 273.94 284.58 272.88 291.38 C 271.81 298.17 270.60 303.27 268.75 309.75 C 266.90 316.23 264.58 323.02 261.75 330.25 C 258.92 337.48 255.62 345.21 251.75 353.12 C 247.88 361.04 242.31 371.23 238.50 377.75 C 234.69 384.27 233.08 386.42 228.88 392.25 C 224.67 398.08 216.96 408.06 213.25 412.75 C 209.54 417.44 209.00 417.88 206.62 420.38 C 204.25 422.88 200.60 426.08 199.00 427.75 C 197.40 429.42 197.31 429.71 197.00 430.38 C 196.69 431.04 195.75 431.54 197.12 431.75 C 198.50 431.96 202.40 432.12 205.25 431.62 C 208.10 431.12 211.00 430.23 214.25 428.75 C 217.50 427.27 221.46 424.88 224.75 422.75 C 228.04 420.62 230.69 418.81 234.00 416.00 C 237.31 413.19 241.42 409.17 244.62 405.88 C 247.83 402.58 250.23 399.92 253.25 396.25 C 256.27 392.58 259.81 388.04 262.75 383.88 C 265.69 379.71 268.21 375.79 270.88 371.25 C 273.54 366.71 276.29 361.52 278.75 356.62 C 281.21 351.73 283.29 347.29 285.62 341.88 C 287.96 336.46 290.35 330.56 292.75 324.12 C 295.15 317.69 298.04 308.29 300.00 303.25 C 301.96 298.21 303.56 296.10 304.50 293.88 C 305.44 291.65 305.40 291.56 305.62 289.88 C 305.85 288.19 306.02 285.52 305.88 283.75 C 305.73 281.98 305.52 280.96 304.75 279.25 C 303.98 277.54 302.38 275.06 301.25 273.50 C 300.12 271.94 298.85 270.65 298.00 269.88 C 297.15 269.10 296.56 269.23 296.12 268.88 C 295.69 268.52 297.46 267.96 295.38 267.75 Z" id="s-12-f-0"/>
<clipPath id="c-s-12"><use href="#s-12-f-0"/></clipPath>
<path d="M 321.25 264.50 C 320.40 264.79 320.44 264.29 320.88 265.38 C 321.31 266.46 323.06 269.21 323.88 271.00 C 324.69 272.79 325.27 274.58 325.75 276.12 C 326.23 277.67 326.42 277.96 326.75 280.25 C 327.08 282.54 327.90 276.69 327.75 289.88 C 327.60 303.06 326.17 344.54 325.88 359.38 C 325.58 374.21 325.81 373.85 326.00 378.88 C 326.19 383.90 326.50 386.02 327.00 389.50 C 327.50 392.98 328.15 396.35 329.00 399.75 C 329.85 403.15 330.94 406.75 332.12 409.88 C 333.31 413.00 334.75 416.00 336.12 418.50 C 337.50 421.00 338.27 422.33 340.38 424.88 C 342.48 427.42 346.48 431.60 348.75 433.75 C 351.02 435.90 352.17 436.56 354.00 437.75 C 355.83 438.94 357.67 439.90 359.75 440.88 C 361.83 441.85 364.17 442.83 366.50 443.62 C 368.83 444.42 369.92 444.94 373.75 445.62 C 377.58 446.31 383.73 447.40 389.50 447.75 C 395.27 448.10 403.60 447.92 408.38 447.75 C 413.15 447.58 414.77 447.25 418.12 446.75 C 421.48 446.25 425.06 445.60 428.50 444.75 C 431.94 443.90 435.94 442.62 438.75 441.62 C 441.56 440.62 443.06 439.90 445.38 438.75 C 447.69 437.60 450.50 436.06 452.62 434.75 C 454.75 433.44 455.58 433.10 458.12 430.88 C 460.67 428.65 465.60 423.92 467.88 421.38 C 470.15 418.83 470.79 417.46 471.75 415.62 C 472.71 413.79 473.29 412.25 473.62 410.38 C 473.96 408.50 474.06 406.44 473.75 404.38 C 473.44 402.31 472.85 400.54 471.75 398.00 C 470.65 395.46 468.54 392.12 467.12 389.12 C 465.71 386.12 464.60 383.56 463.25 380.00 C 461.90 376.44 460.35 372.02 459.00 367.75 C 457.65 363.48 456.50 359.79 455.12 354.38 C 453.75 348.96 451.65 338.92 450.75 335.25 C 449.85 331.58 450.31 333.27 449.75 332.38 C 449.19 331.48 448.02 330.21 447.38 329.88 C 446.73 329.54 446.27 329.90 445.88 330.38 C 445.48 330.85 445.52 327.71 445.00 332.75 C 444.48 337.79 443.44 353.69 442.75 360.62 C 442.06 367.56 441.54 370.29 440.88 374.38 C 440.21 378.46 439.48 382.00 438.75 385.12 C 438.02 388.25 437.35 390.65 436.50 393.12 C 435.65 395.60 434.46 398.29 433.62 400.00 C 432.79 401.71 432.65 402.10 431.50 403.38 C 430.35 404.65 428.65 406.25 426.75 407.62 C 424.85 409.00 422.10 410.65 420.12 411.62 C 418.15 412.60 416.69 412.98 414.88 413.50 C 413.06 414.02 411.75 414.38 409.25 414.75 C 406.75 415.12 403.42 415.60 399.88 415.75 C 396.33 415.90 391.48 415.83 388.00 415.62 C 384.52 415.42 382.08 415.15 379.00 414.50 C 375.92 413.85 372.33 412.90 369.50 411.75 C 366.67 410.60 364.08 409.15 362.00 407.62 C 359.92 406.10 358.50 404.56 357.00 402.62 C 355.50 400.69 354.00 398.06 353.00 396.00 C 352.00 393.94 351.52 392.15 351.00 390.25 C 350.48 388.35 350.21 386.98 349.88 384.62 C 349.54 382.27 349.15 379.69 349.00 376.12 C 348.85 372.56 348.85 368.40 349.00 363.25 C 349.15 358.10 349.21 352.58 349.88 345.25 C 350.54 337.92 351.48 327.98 353.00 319.25 C 354.52 310.52 357.67 298.31 359.00 292.88 C 360.33 287.44 360.04 289.02 361.00 286.62 C 361.96 284.23 364.15 280.46 364.75 278.50 C 365.35 276.54 364.94 276.06 364.62 274.88 C 364.31 273.69 363.69 272.58 362.88 271.38 C 362.06 270.17 361.54 269.23 359.75 267.62 C 357.96 266.02 354.33 262.75 352.12 261.75 C 349.92 260.75 348.25 261.50 346.50 261.62 C 344.75 261.75 345.04 262.17 341.62 262.50 C 338.21 262.83 329.40 263.29 326.00 263.62 C 322.60 263.96 322.10 264.21 321.25 264.50 Z" id="s-13-f-0"/>
<clipPath id="c-s-13"><use href="#s-13-f-0"/></clipPath>
</defs>
<g id="s-0" clip-path="url(#c-s-0)">
<use href="#s-0-f-0"/>
<path d="M 182.50 85.00 C 178.04 82.17 166.67 88.62 156.12 90.75 C 145.58 92.88 131.21 95.58 119.25 97.75 C 107.29 99.92 96.17 101.83 84.38 103.75 C 72.58 105.67 55.62 108.02 48.50 109.25 C 41.38 110.48 43.19 110.48 41.62 111.12 C 40.06 111.77 39.58 112.54 39.12 113.12 C 38.67 113.71 38.65 113.98 38.88 114.62 C 39.10 115.27 39.58 116.15 40.50 117.00 C 41.42 117.85 41.81 118.48 44.38 119.75 C 46.94 121.02 52.56 123.48 55.88 124.62 C 59.19 125.77 61.58 126.23 64.25 126.62 C 66.92 127.02 65.81 128.10 71.88 127.00 C 77.94 125.90 91.77 121.98 100.62 120.00 C 109.48 118.02 115.98 116.62 125.00 115.12 C 134.02 113.62 149.04 111.71 154.75 111.00 C 160.46 110.29 154.65 111.33 159.25 110.88 C 163.85 110.42 178.44 108.77 182.38 108.25 C 186.31 107.73 182.85 111.62 182.88 107.75 C 182.90 103.88 186.96 87.83 182.50 85.00 Z" id="s-0-f-1"/>
<path d="M 134.75 95.12 C 134.35 92.25 135.21 94.56 132.62 95.00 C 130.04 95.44 127.29 96.29 119.25 97.75 C 111.21 99.21 96.17 101.83 84.38 103.75 C 72.58 105.67 55.62 108.02 48.50 109.25 C 41.38 110.48 43.19 110.48 41.62 111.12 C 40.06 111.77 39.58 112.54 39.12 113.12 C 38.67 113.71 38.65 113.98 38.88 114.62 C 39.10 115.27 39.58 116.15 40.50 117.00 C 41.42 117.85 41.81 118.48 44.38 119.75 C 46.94 121.02 52.56 123.48 55.88 124.62 C 59.19 125.77 61.48 126.25 64.25 126.62 C 67.02 127.00 64.88 128.31 72.50 126.88 C 80.12 125.44 99.65 120.19 110.00 118.00 C 120.35 115.81 130.46 114.71 134.62 113.75 C 138.79 112.79 134.98 115.35 135.00 112.25 C 135.02 109.15 135.15 98.00 134.75 95.12 Z" id="s-0-f-2"/>
<path d="M 86.75 103.75 C 86.58 100.46 92.73 102.21 85.75 103.25 C 78.77 104.29 52.52 108.50 44.88 110.00 C 37.23 111.50 40.88 111.67 39.88 112.25 C 38.88 112.83 39.04 113.10 38.88 113.50 C 38.71 113.90 38.60 114.04 38.88 114.62 C 39.15 115.21 39.58 116.15 40.50 117.00 C 41.42 117.85 41.81 118.48 44.38 119.75 C 46.94 121.02 52.56 123.48 55.88 124.62 C 59.19 125.77 61.48 126.25 64.25 126.62 C 67.02 127.00 68.98 127.33 72.50 126.88 C 76.02 126.42 83.00 124.52 85.38 123.88 C 87.75 123.23 86.52 126.35 86.75 123.00 C 86.98 119.65 86.92 107.04 86.75 103.75 Z" id="s-0-f-3"/>
</g>
<g id="s-1" clip-path="url(#c-s-1)">
<use href="#s-1-f-0"/>
<path d="M 97.12 120.62 C 95.71 119.90 95.31 120.46 94.62 120.62 C 93.94 120.79 93.71 121.46 93.00 121.62 C 92.29 121.79 91.79 121.33 90.38 121.62 C 88.96 121.92 85.98 123.04 84.50 123.38 C 83.02 123.71 82.33 123.42 81.50 123.62 C 80.67 123.83 80.19 124.46 79.50 124.62 C 78.81 124.79 78.00 124.50 77.38 124.62 C 76.75 124.75 76.54 125.19 75.75 125.38 C 74.96 125.56 73.44 125.52 72.62 125.75 C 71.81 125.98 70.69 125.56 70.88 126.75 C 71.06 127.94 72.92 130.46 73.75 132.88 C 74.58 135.29 74.81 111.62 75.88 141.25 C 76.94 170.88 79.35 282.06 80.12 310.62 C 80.90 339.19 80.15 312.23 80.50 312.62 C 80.85 313.02 79.88 312.94 82.25 313.00 C 84.62 313.06 91.67 313.06 94.75 313.00 C 97.83 312.94 99.71 312.75 100.75 312.62 C 101.79 312.50 100.62 332.44 101.00 312.25 C 101.38 292.06 102.67 218.92 103.00 191.50 C 103.33 164.08 102.83 157.00 103.00 147.75 C 103.17 138.50 103.71 138.40 104.00 136.00 C 104.29 133.60 104.60 134.71 104.75 133.38 C 104.90 132.04 105.15 129.40 104.88 128.00 C 104.60 126.60 104.42 126.23 103.12 125.00 C 101.83 123.77 98.54 121.35 97.12 120.62 Z" id="s-1-f-1"/>
<path d="M 97.12 120.62 C 95.71 119.90 95.31 120.46 94.62 120.62 C 93.94 120.79 93.71 121.46 93.00 121.62 C 92.29 121.79 91.79 121.33 90.38 121.62 C 88.96 121.92 85.98 123.04 84.50 123.38 C 83.02 123.71 82.33 123.42 81.50 123.62 C 80.67 123.83 80.19 124.46 79.50 124.62 C 78.81 124.79 78.00 124.50 77.38 124.62 C 76.75 124.75 76.54 125.19 75.75 125.38 C 74.96 125.56 73.44 125.52 72.62 125.75 C 71.81 125.98 70.69 125.56 70.88 126.75 C 71.06 127.94 72.92 130.46 73.75 132.88 C 74.58 135.29 75.00 119.40 75.88 141.25 C 76.75 163.10 78.38 243.40 79.00 264.00 C 79.62 284.60 76.12 264.71 79.62 264.88 C 83.12 265.04 96.40 265.00 100.00 265.00 C 103.60 265.00 100.98 264.98 101.25 264.88 C 101.52 264.77 101.33 276.60 101.62 264.38 C 101.92 252.15 102.77 210.94 103.00 191.50 C 103.23 172.06 102.83 157.00 103.00 147.75 C 103.17 138.50 103.71 138.40 104.00 136.00 C 104.29 133.60 104.60 134.71 104.75 133.38 C 104.90 132.04 105.15 129.40 104.88 128.00 C 104.60 126.60 104.42 126.23 103.12 125.00 C 101.83 123.77 98.54 121.35 97.12 120.62 Z" id="s-1-f-2"/>
<path d="M 97.12 120.62 C 95.77 119.96 95.31 120.46 94.62 120.62 C 93.94 120.79 93.71 121.46 93.00 121.62 C 92.29 121.79 91.79 121.33 90.38 121.62 C 88.96 121.92 85.98 123.04 84.50 123.38 C 83.02 123.71 82.33 123.42 81.50 123.62 C 80.67 123.83 80.19 124.46 79.50 124.62 C 78.81 124.79 78.00 124.50 77.38 124.62 C 76.75 124.75 76.54 125.19 75.75 125.38 C 74.96 125.56 73.44 125.52 72.62 125.75 C 71.81 125.98 70.69 125.56 70.88 126.75 C 71.06 127.94 72.92 130.48 73.75 132.88 C 74.58 135.27 75.19 127.23 75.88 141.12 C 76.56 155.02 77.46 203.60 77.88 216.25 C 78.29 228.90 74.35 216.90 78.38 217.00 C 82.40 217.10 97.96 217.00 102.00 216.88 C 106.04 216.75 102.46 227.77 102.62 216.25 C 102.79 204.73 102.77 161.12 103.00 147.75 C 103.23 134.38 103.71 138.40 104.00 136.00 C 104.29 133.60 104.60 134.69 104.75 133.38 C 104.90 132.06 105.02 129.38 104.88 128.12 C 104.73 126.88 104.23 126.46 103.88 125.88 C 103.52 125.29 103.88 125.50 102.75 124.62 C 101.62 123.75 98.48 121.29 97.12 120.62 Z" id="s-1-f-3"/>
<path d="M 97.12 120.62 C 95.77 119.96 95.31 120.46 94.62 120.62 C 93.94 120.79 93.71 121.46 93.00 121.62 C 92.29 121.79 91.79 121.33 90.38 121.62 C 88.96 121.92 85.98 123.04 84.50 123.38 C 83.02 123.71 82.33 123.42 81.50 123.62 C 80.67 123.83 80.19 124.46 79.50 124.62 C 78.81 124.79 78.00 124.50 77.38 124.62 C 76.75 124.75 76.54 125.19 75.75 125.38 C 74.96 125.56 73.44 125.52 72.62 125.75 C 71.81 125.98 70.69 125.56 70.88 126.75 C 71.06 127.94 72.92 130.48 73.75 132.88 C 74.58 135.27 75.42 135.21 75.88 141.12 C 76.33 147.04 76.29 163.75 76.50 168.38 C 76.71 173.00 72.75 168.81 77.12 168.88 C 81.50 168.94 98.42 172.73 102.75 168.75 C 107.08 164.77 102.92 150.46 103.12 145.00 C 103.33 139.54 103.73 137.94 104.00 136.00 C 104.27 134.06 104.60 134.69 104.75 133.38 C 104.90 132.06 105.02 129.38 104.88 128.12 C 104.73 126.88 104.23 126.46 103.88 125.88 C 103.52 125.29 103.88 125.50 102.75 124.62 C 101.62 123.75 98.48 121.29 97.12 120.62 Z" id="s-1-f-4"/>
</g>
<g id="s-2" clip-path="url(#c-s-2)">
<use href="#s-2-f-0"/>
<path d="M 179.00 107.62 C 177.71 107.71 179.00 108.08 177.50 108.25 C 176.00 108.42 171.69 108.44 170.00 108.62 C 168.31 108.81 169.04 109.21 167.38 109.38 C 165.71 109.54 161.92 109.40 160.00 109.62 C 158.08 109.85 156.52 110.15 155.88 110.75 C 155.23 111.35 155.67 111.52 156.12 113.25 C 156.58 114.98 158.04 118.94 158.62 121.12 C 159.21 123.31 159.17 121.79 159.62 126.38 C 160.08 130.96 161.00 128.98 161.38 148.62 C 161.75 168.27 161.81 214.46 161.88 244.25 C 161.94 274.04 161.92 307.10 161.75 327.38 C 161.58 347.65 161.21 356.52 160.88 365.88 C 160.54 375.23 160.54 376.19 159.75 383.50 C 158.96 390.81 156.77 404.12 156.12 409.75 C 155.48 415.38 155.88 415.46 155.88 417.25 C 155.88 419.04 155.90 419.19 156.12 420.50 C 156.35 421.81 156.42 422.75 157.25 425.12 C 158.08 427.50 159.81 431.98 161.12 434.75 C 162.44 437.52 164.19 440.25 165.12 441.75 C 166.06 443.25 166.27 443.38 166.75 443.75 C 167.23 444.12 166.12 443.96 168.00 444.00 C 169.88 444.04 176.02 444.12 178.00 444.00 C 179.98 443.88 179.08 444.19 179.88 443.25 C 180.67 442.31 181.96 439.94 182.75 438.38 C 183.54 436.81 183.96 436.31 184.62 433.88 C 185.29 431.44 186.40 429.17 186.75 423.75 C 187.10 418.33 186.88 407.40 186.75 401.38 C 186.62 395.35 186.27 397.40 186.00 387.62 C 185.73 377.85 185.29 379.54 185.12 342.75 C 184.96 305.96 184.71 201.31 185.00 166.88 C 185.29 132.44 186.38 142.71 186.88 136.12 C 187.38 129.54 187.35 130.31 188.00 127.38 C 188.65 124.44 190.31 120.85 190.75 118.50 C 191.19 116.15 190.92 114.54 190.62 113.25 C 190.33 111.96 189.90 111.67 189.00 110.75 C 188.10 109.83 186.92 108.27 185.25 107.75 C 183.58 107.23 180.29 107.54 179.00 107.62 Z" id="s-2-f-1"/>
<path d="M 179.00 107.62 C 177.71 107.71 179.00 108.08 177.50 108.25 C 176.00 108.42 171.69 108.44 170.00 108.62 C 168.31 108.81 169.04 109.21 167.38 109.38 C 165.71 109.54 161.92 109.40 160.00 109.62 C 158.08 109.85 156.52 110.15 155.88 110.75 C 155.23 111.35 155.67 111.52 156.12 113.25 C 156.58 114.98 158.04 118.94 158.62 121.12 C 159.21 123.31 159.27 123.77 159.62 126.38 C 159.98 128.98 160.42 131.96 160.75 136.75 C 161.08 141.54 161.48 121.15 161.62 155.12 C 161.77 189.10 161.77 305.00 161.62 340.62 C 161.48 376.25 161.06 361.73 160.75 368.88 C 160.44 376.02 160.10 379.35 159.75 383.50 C 159.40 387.65 158.90 391.88 158.62 393.75 C 158.35 395.62 158.12 394.42 158.12 394.75 C 158.12 395.08 158.27 395.54 158.62 395.75 C 158.98 395.96 155.73 395.98 160.25 396.00 C 164.77 396.02 181.40 396.06 185.75 395.88 C 190.10 395.69 186.50 405.98 186.38 394.88 C 186.25 383.77 185.23 367.25 185.00 329.25 C 184.77 291.25 184.69 199.06 185.00 166.88 C 185.31 134.69 186.38 142.71 186.88 136.12 C 187.38 129.54 187.35 130.31 188.00 127.38 C 188.65 124.44 190.31 120.85 190.75 118.50 C 191.19 116.15 190.92 114.54 190.62 113.25 C 190.33 111.96 189.90 111.67 189.00 110.75 C 188.10 109.83 186.92 108.27 185.25 107.75 C 183.58 107.23 180.29 107.54 179.00 107.62 Z" id="s-2-f-2"/>
<path d="M 179.00 107.62 C 177.71 107.71 179.00 108.08 177.50 108.25 C 176.00 108.42 171.69 108.44 170.00 108.62 C 168.31 108.81 169.04 109.21 167.38 109.38 C 165.71 109.54 161.92 109.40 160.00 109.62 C 158.08 109.85 156.52 110.15 155.88 110.75 C 155.23 111.35 155.67 111.52 156.12 113.25 C 156.58 114.98 158.04 118.94 158.62 121.12 C 159.21 123.31 159.27 123.77 159.62 126.38 C 159.98 128.98 160.42 131.96 160.75 136.75 C 161.08 141.54 161.44 128.67 161.62 155.12 C 161.81 181.58 161.94 263.50 161.88 295.50 C 161.81 327.50 161.27 338.40 161.25 347.12 C 161.23 355.85 158.06 347.73 161.75 347.88 C 165.44 348.02 179.54 348.00 183.38 348.00 C 187.21 348.00 184.44 348.00 184.75 347.88 C 185.06 347.75 185.21 377.42 185.25 347.25 C 185.29 317.08 184.73 202.06 185.00 166.88 C 185.27 131.69 186.38 142.71 186.88 136.12 C 187.38 129.54 187.35 130.31 188.00 127.38 C 188.65 124.44 190.27 120.58 190.75 118.50 C 191.23 116.42 190.88 115.67 190.88 114.88 C 190.88 114.08 191.08 114.46 190.75 113.75 C 190.42 113.04 189.79 111.62 188.88 110.62 C 187.96 109.62 186.90 108.25 185.25 107.75 C 183.60 107.25 180.29 107.54 179.00 107.62 Z" id="s-2-f-3"/>
<path d="M 185.25 107.75 C 183.46 107.06 180.29 107.54 179.00 107.62 C 177.71 107.71 179.00 108.08 177.50 108.25 C 176.00 108.42 171.69 108.44 170.00 108.62 C 168.31 108.81 169.04 109.21 167.38 109.38 C 165.71 109.54 161.92 109.40 160.00 109.62 C 158.08 109.85 156.52 110.15 155.88 110.75 C 155.23 111.35 155.67 111.52 156.12 113.25 C 156.58 114.98 158.04 118.94 158.62 121.12 C 159.21 123.31 159.27 123.77 159.62 126.38 C 159.98 128.98 160.42 131.96 160.75 136.75 C 161.08 141.54 161.46 128.02 161.62 155.12 C 161.79 182.23 161.67 275.25 161.75 299.38 C 161.83 323.50 158.52 299.83 162.12 299.88 C 165.73 299.92 179.60 300.06 183.38 299.62 C 187.15 299.19 184.46 320.23 184.75 297.25 C 185.04 274.27 184.92 186.94 185.12 161.75 C 185.33 136.56 185.54 151.71 186.00 146.12 C 186.46 140.54 187.06 133.08 187.88 128.25 C 188.69 123.42 190.40 119.54 190.88 117.12 C 191.35 114.71 190.94 114.65 190.75 113.75 C 190.56 112.85 190.67 112.75 189.75 111.75 C 188.83 110.75 187.04 108.44 185.25 107.75 Z" id="s-2-f-4"/>
<path d="M 185.25 107.75 C 183.46 107.06 180.29 107.54 179.00 107.62 C 177.71 107.71 179.00 108.08 177.50 108.25 C 176.00 108.42 171.69 108.44 170.00 108.62 C 168.31 108.81 169.04 109.21 167.38 109.38 C 165.71 109.54 161.92 109.40 160.00 109.62 C 158.08 109.85 156.52 110.15 155.88 110.75 C 155.23 111.35 155.67 111.52 156.12 113.25 C 156.58 114.98 158.04 118.94 158.62 121.12 C 159.21 123.31 159.17 121.79 159.62 126.38 C 160.08 130.96 161.00 128.04 161.38 148.62 C 161.75 169.21 161.71 232.65 161.88 249.88 C 162.04 267.10 158.77 251.69 162.38 252.00 C 165.98 252.31 179.75 251.88 183.50 251.75 C 187.25 251.62 184.60 266.25 184.88 251.25 C 185.15 236.25 184.94 179.27 185.12 161.75 C 185.31 144.23 185.54 151.71 186.00 146.12 C 186.46 140.54 187.06 133.08 187.88 128.25 C 188.69 123.42 190.40 119.54 190.88 117.12 C 191.35 114.71 190.94 114.65 190.75 113.75 C 190.56 112.85 190.67 112.75 189.75 111.75 C 188.83 110.75 187.04 108.44 185.25 107.75 Z" id="s-2-f-5"/>
<path d="M 185.25 107.75 C 183.46 107.06 180.29 107.54 179.00 107.62 C 177.71 107.71 179.00 108.08 177.50 108.25 C 176.00 108.42 171.69 108.44 170.00 108.62 C 168.31 108.81 169.04 109.21 167.38 109.38 C 165.71 109.54 161.92 109.40 160.00 109.62 C 158.08 109.85 156.52 110.15 155.88 110.75 C 155.23 111.35 155.67 111.52 156.12 113.25 C 156.58 114.98 158.04 118.94 158.62 121.12 C 159.21 123.31 159.27 123.77 159.62 126.38 C 159.98 128.98 160.42 131.96 160.75 136.75 C 161.08 141.54 161.44 144.21 161.62 155.12 C 161.81 166.04 161.75 194.10 161.88 202.25 C 162.00 210.40 158.65 203.71 162.38 204.00 C 166.10 204.29 180.50 204.08 184.25 204.00 C 188.00 203.92 184.75 209.69 184.88 203.50 C 185.00 197.31 184.81 176.44 185.00 166.88 C 185.19 157.31 185.50 152.71 186.00 146.12 C 186.50 139.54 187.38 131.33 188.00 127.38 C 188.62 123.42 189.27 124.08 189.75 122.38 C 190.23 120.67 190.71 118.56 190.88 117.12 C 191.04 115.69 190.94 114.65 190.75 113.75 C 190.56 112.85 190.67 112.75 189.75 111.75 C 188.83 110.75 187.04 108.44 185.25 107.75 Z" id="s-2-f-6"/>
<path d="M 185.25 107.75 C 183.60 107.25 180.29 107.54 179.00 107.62 C 177.71 107.71 179.00 108.08 177.50 108.25 C 176.00 108.42 171.69 108.44 170.00 108.62 C 168.31 108.81 169.04 109.21 167.38 109.38 C 165.71 109.54 161.92 109.40 160.00 109.62 C 158.08 109.85 156.52 110.15 155.88 110.75 C 155.23 111.35 155.67 111.52 156.12 113.25 C 156.58 114.98 158.04 118.94 158.62 121.12 C 159.21 123.31 159.25 123.46 159.62 126.38 C 160.00 129.29 160.56 133.79 160.88 138.62 C 161.19 143.46 161.29 152.50 161.50 155.38 C 161.71 158.25 158.48 155.77 162.12 155.88 C 165.77 155.98 179.56 156.00 183.38 156.00 C 187.19 156.00 184.62 155.98 185.00 155.88 C 185.38 155.77 185.46 157.00 185.62 155.38 C 185.79 153.75 185.62 150.65 186.00 146.12 C 186.38 141.60 187.08 132.85 187.88 128.25 C 188.67 123.65 190.25 120.73 190.75 118.50 C 191.25 116.27 190.88 115.67 190.88 114.88 C 190.88 114.08 191.08 114.46 190.75 113.75 C 190.42 113.04 189.79 111.62 188.88 110.62 C 187.96 109.62 186.90 108.25 185.25 107.75 Z" id="s-2-f-7"/>
</g>
<g id="s-3" clip-path="url(#c-s-3)">
<use href="#s-3-f-0"/>
<path d="M 150.62 170.00 C 149.04 167.19 143.73 168.33 141.50 168.00 C 139.27 167.67 139.19 167.40 137.25 168.00 C 135.31 168.60 133.17 170.21 129.88 171.62 C 126.58 173.04 121.27 175.15 117.50 176.50 C 113.73 177.85 109.71 179.15 107.25 179.75 C 104.79 180.35 103.54 178.17 102.75 180.12 C 101.96 182.08 102.19 189.40 102.50 191.50 C 102.81 193.60 103.60 192.40 104.62 192.75 C 105.65 193.10 106.12 193.46 108.62 193.62 C 111.12 193.79 112.67 194.90 119.62 193.75 C 126.58 192.60 145.15 188.23 150.38 186.75 C 155.60 185.27 150.96 187.67 151.00 184.88 C 151.04 182.08 152.21 172.81 150.62 170.00 Z" id="s-3-f-1"/>
</g>
<g id="s-4" clip-path="url(#c-s-4)">
<use href="#s-4-f-0"/>
<path d="M 149.88 230.50 C 149.79 227.73 150.56 230.23 149.50 230.00 C 148.44 229.77 145.67 229.29 143.50 229.12 C 141.33 228.96 138.21 228.85 136.50 229.00 C 134.79 229.15 135.65 228.92 133.25 230.00 C 130.85 231.08 125.40 234.04 122.12 235.50 C 118.85 236.96 116.10 237.88 113.62 238.75 C 111.15 239.62 109.27 240.33 107.25 240.75 C 105.23 241.17 102.46 239.46 101.50 241.25 C 100.54 243.04 101.15 249.60 101.50 251.50 C 101.85 253.40 102.44 252.27 103.62 252.62 C 104.81 252.98 106.06 253.44 108.62 253.62 C 111.19 253.81 116.06 254.02 119.00 253.75 C 121.94 253.48 122.79 252.67 126.25 252.00 C 129.71 251.33 136.71 250.42 139.75 249.75 C 142.79 249.08 142.92 248.40 144.50 248.00 C 146.08 247.60 148.33 247.60 149.25 247.38 C 150.17 247.15 149.90 249.44 150.00 246.62 C 150.10 243.81 149.96 233.27 149.88 230.50 Z" id="s-4-f-1"/>
</g>
<g id="s-5" clip-path="url(#c-s-5)">
<use href="#s-5-f-0"/>
<path d="M 120.50 314.25 C 120.29 310.62 122.94 311.94 119.75 313.00 C 116.56 314.06 104.73 319.35 101.38 320.62 C 98.02 321.90 100.04 320.50 99.62 320.62 C 99.21 320.75 99.29 321.21 98.88 321.38 C 98.46 321.54 97.56 321.46 97.12 321.62 C 96.69 321.79 96.71 322.19 96.25 322.38 C 95.79 322.56 94.77 322.58 94.38 322.75 C 93.98 322.92 94.25 323.23 93.88 323.38 C 93.50 323.52 92.56 323.46 92.12 323.62 C 91.69 323.79 91.71 324.19 91.25 324.38 C 90.79 324.56 89.77 324.58 89.38 324.75 C 88.98 324.92 89.25 325.23 88.88 325.38 C 88.50 325.52 88.75 324.94 87.12 325.62 C 85.50 326.31 86.46 326.67 79.12 329.50 C 71.79 332.33 50.46 340.08 43.12 342.62 C 35.79 345.17 37.94 344.19 35.12 344.75 C 32.31 345.31 27.96 345.54 26.25 346.00 C 24.54 346.46 25.06 346.77 24.88 347.50 C 24.69 348.23 24.73 349.19 25.12 350.38 C 25.52 351.56 26.15 353.02 27.25 354.62 C 28.35 356.23 30.33 358.46 31.75 360.00 C 33.17 361.54 33.98 362.42 35.75 363.88 C 37.52 365.33 40.42 367.46 42.38 368.75 C 44.33 370.04 45.73 370.77 47.50 371.62 C 49.27 372.48 51.15 373.33 53.00 373.88 C 54.85 374.42 57.15 374.75 58.62 374.88 C 60.10 375.00 56.06 378.29 61.88 374.62 C 67.69 370.96 83.75 359.33 93.50 352.88 C 103.25 346.42 115.79 338.90 120.38 335.88 C 124.96 332.85 120.98 338.35 121.00 334.75 C 121.02 331.15 120.71 317.88 120.50 314.25 Z" id="s-5-f-1"/>
<path d="M 73.00 332.38 C 72.94 326.62 78.10 329.98 72.50 331.88 C 66.90 333.77 47.08 341.40 39.38 343.75 C 31.67 346.10 28.67 345.38 26.25 346.00 C 23.83 346.62 25.06 346.77 24.88 347.50 C 24.69 348.23 24.73 349.19 25.12 350.38 C 25.52 351.56 26.15 353.02 27.25 354.62 C 28.35 356.23 30.33 358.46 31.75 360.00 C 33.17 361.54 33.98 362.42 35.75 363.88 C 37.52 365.33 40.42 367.46 42.38 368.75 C 44.33 370.04 45.73 370.77 47.50 371.62 C 49.27 372.48 51.15 373.33 53.00 373.88 C 54.85 374.42 57.15 374.75 58.62 374.88 C 60.10 375.00 59.60 375.88 61.88 374.62 C 64.15 373.38 70.42 368.75 72.25 367.38 C 74.08 366.00 72.75 372.21 72.88 366.38 C 73.00 360.54 73.06 338.12 73.00 332.38 Z" id="s-5-f-2"/>
</g>
<g id="s-6" clip-path="url(#c-s-6)">
<use href="#s-6-f-0"/>
<path d="M 334.38 70.25 C 334.02 69.52 333.65 68.81 332.75 67.75 C 331.85 66.69 331.38 65.85 329.00 63.88 C 326.62 61.90 321.44 57.85 318.50 55.88 C 315.56 53.90 313.04 52.81 311.38 52.00 C 309.71 51.19 309.50 51.17 308.50 51.00 C 307.50 50.83 306.23 50.77 305.38 51.00 C 304.52 51.23 304.23 51.60 303.38 52.38 C 302.52 53.15 301.56 53.48 300.25 55.62 C 298.94 57.77 297.40 61.79 295.50 65.25 C 293.60 68.71 292.60 70.81 288.88 76.38 C 285.15 81.94 275.38 94.85 273.12 98.62 C 270.88 102.40 269.40 98.98 275.38 99.00 C 281.35 99.02 302.21 99.58 309.00 98.75 C 315.79 97.92 313.17 95.62 316.12 94.00 C 319.08 92.38 324.42 90.33 326.75 89.00 C 329.08 87.67 329.12 87.08 330.12 86.00 C 331.12 84.92 332.00 83.96 332.75 82.50 C 333.50 81.04 334.27 78.98 334.62 77.25 C 334.98 75.52 334.92 73.29 334.88 72.12 C 334.83 70.96 334.73 70.98 334.38 70.25 Z" id="s-6-f-1"/>
</g>
<g id="s-7" clip-path="url(#c-s-7)">
<use href="#s-7-f-0"/>
<path d="M 214.00 129.00 C 211.94 129.08 212.40 129.56 211.88 129.88 C 211.35 130.19 211.21 130.29 210.88 130.88 C 210.54 131.46 210.02 132.60 209.88 133.38 C 209.73 134.15 209.35 134.33 210.00 135.50 C 210.65 136.67 212.65 138.67 213.75 140.38 C 214.85 142.08 215.62 143.60 216.62 145.75 C 217.62 147.90 218.90 150.85 219.75 153.25 C 220.60 155.65 221.19 157.65 221.75 160.12 C 222.31 162.60 222.62 165.79 223.12 168.12 C 223.62 170.46 224.00 169.42 224.75 174.12 C 225.50 178.83 226.90 189.04 227.62 196.38 C 228.35 203.71 228.29 209.77 229.12 218.12 C 229.96 226.48 231.81 239.21 232.62 246.50 C 233.44 253.79 233.60 258.60 234.00 261.88 C 234.40 265.15 234.48 264.58 235.00 266.12 C 235.52 267.67 236.56 270.00 237.12 271.12 C 237.69 272.25 236.04 272.58 238.38 272.88 C 240.71 273.17 248.90 272.96 251.12 272.88 C 253.35 272.79 251.44 273.38 251.75 272.38 C 252.06 271.38 252.85 273.23 253.00 266.88 C 253.15 260.52 252.98 244.88 252.62 234.25 C 252.27 223.62 251.67 214.42 250.88 203.12 C 250.08 191.83 248.40 176.38 247.88 166.50 C 247.35 156.62 248.00 148.19 247.75 143.88 C 247.50 139.56 247.77 142.27 246.38 140.62 C 244.98 138.98 243.06 135.88 239.38 134.00 C 235.69 132.12 228.48 130.21 224.25 129.38 C 220.02 128.54 216.06 128.92 214.00 129.00 Z" id="s-7-f-1"/>
<path d="M 212.88 129.38 C 211.96 129.54 212.29 129.46 211.88 129.88 C 211.46 130.29 210.71 131.29 210.38 131.88 C 210.04 132.46 209.94 132.77 209.88 133.38 C 209.81 133.98 209.54 134.62 210.00 135.50 C 210.46 136.38 211.52 136.92 212.62 138.62 C 213.73 140.33 215.44 143.31 216.62 145.75 C 217.81 148.19 218.90 150.85 219.75 153.25 C 220.60 155.65 221.19 157.65 221.75 160.12 C 222.31 162.60 222.62 165.79 223.12 168.12 C 223.62 170.46 224.17 171.00 224.75 174.12 C 225.33 177.25 225.92 179.77 226.62 186.88 C 227.33 193.98 228.44 210.52 229.00 216.75 C 229.56 222.98 229.56 222.88 230.00 224.25 C 230.44 225.62 228.06 224.88 231.62 225.00 C 235.19 225.12 248.00 225.06 251.38 225.00 C 254.75 224.94 251.96 228.27 251.88 224.62 C 251.79 220.98 251.54 212.81 250.88 203.12 C 250.21 193.44 248.38 176.25 247.88 166.50 C 247.38 156.75 248.02 148.81 247.88 144.62 C 247.73 140.44 248.31 143.08 247.00 141.38 C 245.69 139.67 241.65 135.75 240.00 134.38 C 238.35 133.00 239.75 133.96 237.12 133.12 C 234.50 132.29 227.54 130.08 224.25 129.38 C 220.96 128.67 219.27 128.88 217.38 128.88 C 215.48 128.88 213.79 129.21 212.88 129.38 Z" id="s-7-f-2"/>
<path d="M 211.88 129.88 C 211.04 130.52 210.31 131.81 210.00 132.75 C 209.69 133.69 209.56 134.52 210.00 135.50 C 210.44 136.48 211.83 137.50 212.62 138.62 C 213.42 139.75 213.56 139.81 214.75 142.25 C 215.94 144.69 218.58 150.27 219.75 153.25 C 220.92 156.23 220.85 156.29 221.75 160.12 C 222.65 163.96 224.48 173.48 225.12 176.25 C 225.77 179.02 225.25 176.62 225.62 176.75 C 226.00 176.88 223.83 176.96 227.38 177.00 C 230.92 177.04 243.33 177.08 246.88 177.00 C 250.42 176.92 248.46 178.25 248.62 176.50 C 248.79 174.75 248.00 171.79 247.88 166.50 C 247.75 161.21 248.02 148.94 247.88 144.75 C 247.73 140.56 248.31 143.10 247.00 141.38 C 245.69 139.65 241.65 135.75 240.00 134.38 C 238.35 133.00 238.52 133.56 237.12 133.12 C 235.73 132.69 233.27 132.27 231.62 131.75 C 229.98 131.23 228.75 130.44 227.25 130.00 C 225.75 129.56 224.67 129.31 222.62 129.12 C 220.58 128.94 216.79 128.75 215.00 128.88 C 213.21 129.00 212.71 129.23 211.88 129.88 Z" id="s-7-f-3"/>
</g>
<g id="s-8" clip-path="url(#c-s-8)">
<use href="#s-8-f-0"/>
<path d="M 297.38 186.88 C 297.02 184.67 298.52 186.48 295.88 186.00 C 293.23 185.52 284.90 184.33 281.50 184.00 C 278.10 183.67 277.08 183.81 275.50 184.00 C 273.92 184.19 273.31 184.50 272.00 185.12 C 270.69 185.75 269.46 186.83 267.62 187.75 C 265.79 188.67 263.12 189.79 261.00 190.62 C 258.88 191.46 256.73 192.21 254.88 192.75 C 253.02 193.29 250.77 193.60 249.88 193.88 C 248.98 194.15 249.54 193.06 249.50 194.38 C 249.46 195.69 249.44 199.52 249.62 201.75 C 249.81 203.98 249.75 206.58 250.62 207.75 C 251.50 208.92 252.29 208.60 254.88 208.75 C 257.46 208.90 262.23 209.12 266.12 208.62 C 270.02 208.12 275.21 206.67 278.25 205.75 C 281.29 204.83 282.75 203.65 284.38 203.12 C 286.00 202.60 286.79 202.98 288.00 202.62 C 289.21 202.27 290.02 201.46 291.62 201.00 C 293.23 200.54 296.56 200.17 297.62 199.88 C 298.69 199.58 298.04 201.42 298.00 199.25 C 297.96 197.08 297.73 189.08 297.38 186.88 Z" id="s-8-f-1"/>
</g>
<g id="s-9" clip-path="url(#c-s-9)">
<use href="#s-9-f-0"/>
<path d="M 404.12 106.12 C 400.69 105.10 400.83 105.83 399.12 106.00 C 397.42 106.17 396.40 106.46 393.88 107.12 C 391.35 107.79 388.17 108.56 384.00 110.00 C 379.83 111.44 374.62 113.96 368.88 115.75 C 363.12 117.54 355.90 119.44 349.50 120.75 C 343.10 122.06 336.44 122.96 330.50 123.62 C 324.56 124.29 316.98 124.46 313.88 124.75 C 310.77 125.04 312.17 124.60 311.88 125.38 C 311.58 126.15 311.73 127.92 312.12 129.38 C 312.52 130.83 313.21 132.75 314.25 134.12 C 315.29 135.50 317.04 136.85 318.38 137.62 C 319.71 138.40 319.44 138.56 322.25 138.75 C 325.06 138.94 331.19 138.92 335.25 138.75 C 339.31 138.58 337.35 139.04 346.62 137.75 C 355.90 136.46 383.10 132.12 390.88 131.00 C 398.65 129.88 392.46 130.85 393.25 131.00 C 394.04 131.15 394.71 131.10 395.62 131.88 C 396.54 132.65 398.06 134.19 398.75 135.62 C 399.44 137.06 399.60 137.90 399.75 140.50 C 399.90 143.10 399.96 146.67 399.62 151.25 C 399.29 155.83 398.71 161.90 397.75 168.00 C 396.79 174.10 394.58 183.67 393.88 187.88 C 393.17 192.08 394.33 188.98 393.50 193.25 C 392.67 197.52 390.33 207.62 388.88 213.50 C 387.42 219.38 386.25 223.69 384.75 228.50 C 383.25 233.31 381.35 238.67 379.88 242.38 C 378.40 246.08 376.92 248.06 375.88 250.75 C 374.83 253.44 374.15 256.98 373.62 258.50 C 373.10 260.02 372.81 259.48 372.75 259.88 C 372.69 260.27 368.81 260.69 373.25 260.88 C 377.69 261.06 394.62 261.04 399.38 261.00 C 404.12 260.96 396.44 276.69 401.75 260.62 C 407.06 244.56 425.50 182.67 431.25 164.62 C 437.00 146.58 434.81 155.40 436.25 152.38 C 437.69 149.35 438.46 148.44 439.88 146.50 C 441.29 144.56 443.60 142.35 444.75 140.75 C 445.90 139.15 446.42 138.17 446.75 136.88 C 447.08 135.58 447.04 134.21 446.75 133.00 C 446.46 131.79 445.94 130.90 445.00 129.62 C 444.06 128.35 443.10 127.17 441.12 125.38 C 439.15 123.58 435.15 120.40 433.12 118.88 C 431.10 117.35 431.23 117.38 429.00 116.25 C 426.77 115.12 423.90 113.81 419.75 112.12 C 415.60 110.44 407.56 107.15 404.12 106.12 Z" id="s-9-f-1"/>
<path d="M 311.88 125.38 C 311.58 126.15 311.73 127.92 312.12 129.38 C 312.52 130.83 313.21 132.75 314.25 134.12 C 315.29 135.50 317.04 136.85 318.38 137.62 C 319.71 138.40 319.44 138.56 322.25 138.75 C 325.06 138.94 331.19 138.92 335.25 138.75 C 339.31 138.58 337.35 139.04 346.62 137.75 C 355.90 136.46 383.02 132.10 390.88 131.00 C 398.73 129.90 392.85 130.90 393.75 131.12 C 394.65 131.35 395.42 131.62 396.25 132.38 C 397.08 133.12 398.19 134.46 398.75 135.62 C 399.31 136.79 399.48 136.77 399.62 139.38 C 399.77 141.98 399.94 146.48 399.62 151.25 C 399.31 156.02 398.71 161.90 397.75 168.00 C 396.79 174.10 394.58 183.67 393.88 187.88 C 393.17 192.08 394.31 189.15 393.50 193.25 C 392.69 197.35 389.67 209.21 389.00 212.50 C 388.33 215.79 384.98 212.94 389.50 213.00 C 394.02 213.06 411.58 212.98 416.12 212.88 C 420.67 212.77 414.27 220.29 416.75 212.38 C 419.23 204.46 428.12 174.54 431.00 165.38 C 433.88 156.21 432.83 160.06 434.00 157.38 C 435.17 154.69 436.21 152.02 438.00 149.25 C 439.79 146.48 443.29 142.81 444.75 140.75 C 446.21 138.69 446.42 138.17 446.75 136.88 C 447.08 135.58 446.92 134.02 446.75 133.00 C 446.58 131.98 446.38 131.71 445.75 130.75 C 445.12 129.79 444.19 128.52 443.00 127.25 C 441.81 125.98 440.77 124.85 438.62 123.12 C 436.48 121.40 433.27 118.71 430.12 116.88 C 426.98 115.04 424.08 113.92 419.75 112.12 C 415.42 110.33 407.56 107.15 404.12 106.12 C 400.69 105.10 402.48 105.35 399.12 106.00 C 395.77 106.65 387.65 108.85 384.00 110.00 C 380.35 111.15 380.19 111.79 377.25 112.88 C 374.31 113.96 371.00 115.19 366.38 116.50 C 361.75 117.81 355.12 119.60 349.50 120.75 C 343.88 121.90 338.56 122.71 332.62 123.38 C 326.69 124.04 317.33 124.42 313.88 124.75 C 310.42 125.08 312.17 124.60 311.88 125.38 Z" id="s-9-f-2"/>
<path d="M 446.75 133.00 C 446.48 131.71 445.81 130.67 445.00 129.50 C 444.19 128.33 443.83 127.75 441.88 126.00 C 439.92 124.25 435.40 120.62 433.25 119.00 C 431.10 117.38 432.85 118.06 429.00 116.25 C 425.15 114.44 414.40 109.83 410.12 108.12 C 405.85 106.42 405.21 106.35 403.38 106.00 C 401.54 105.65 400.65 105.83 399.12 106.00 C 397.60 106.17 396.77 106.33 394.25 107.00 C 391.73 107.67 388.23 108.54 384.00 110.00 C 379.77 111.46 374.62 113.96 368.88 115.75 C 363.12 117.54 355.90 119.44 349.50 120.75 C 343.10 122.06 336.44 122.96 330.50 123.62 C 324.56 124.29 316.98 124.46 313.88 124.75 C 310.77 125.04 312.17 124.62 311.88 125.38 C 311.58 126.12 311.92 128.08 312.12 129.25 C 312.33 130.42 312.56 131.31 313.12 132.38 C 313.69 133.44 314.62 134.75 315.50 135.62 C 316.38 136.50 317.27 137.10 318.38 137.62 C 319.48 138.15 319.29 138.56 322.12 138.75 C 324.96 138.94 331.29 138.92 335.38 138.75 C 339.46 138.58 337.38 139.04 346.62 137.75 C 355.88 136.46 383.10 132.12 390.88 131.00 C 398.65 129.88 392.42 130.83 393.25 131.00 C 394.08 131.17 395.19 131.60 395.88 132.00 C 396.56 132.40 396.90 132.77 397.38 133.38 C 397.85 133.98 398.35 134.44 398.75 135.62 C 399.15 136.81 399.60 137.90 399.75 140.50 C 399.90 143.10 399.92 147.35 399.62 151.25 C 399.33 155.15 398.19 161.60 398.00 163.88 C 397.81 166.15 393.02 164.71 398.50 164.88 C 403.98 165.04 425.33 165.04 430.88 164.88 C 436.42 164.71 431.21 165.19 431.75 163.88 C 432.29 162.56 433.23 159.17 434.12 157.00 C 435.02 154.83 436.17 152.62 437.12 150.88 C 438.08 149.12 438.60 148.19 439.88 146.50 C 441.15 144.81 443.62 142.29 444.75 140.75 C 445.88 139.21 446.29 138.54 446.62 137.25 C 446.96 135.96 447.02 134.29 446.75 133.00 Z" id="s-9-f-3"/>
<path d="M 429.12 116.75 C 429.15 116.44 431.67 117.44 428.50 116.00 C 425.33 114.56 414.19 109.77 410.12 108.12 C 406.06 106.48 405.96 106.48 404.12 106.12 C 402.29 105.77 402.48 105.35 399.12 106.00 C 395.77 106.65 387.65 108.85 384.00 110.00 C 380.35 111.15 380.19 111.79 377.25 112.88 C 374.31 113.96 371.00 115.19 366.38 116.50 C 361.75 117.81 355.48 119.56 349.50 120.75 C 343.52 121.94 336.60 122.94 330.50 123.62 C 324.40 124.31 315.98 124.58 312.88 124.88 C 309.77 125.17 312.02 124.75 311.88 125.38 C 311.73 126.00 311.79 127.46 312.00 128.62 C 312.21 129.79 312.60 131.27 313.12 132.38 C 313.65 133.48 314.25 134.38 315.12 135.25 C 316.00 136.12 317.31 137.06 318.38 137.62 C 319.44 138.19 318.67 138.44 321.50 138.62 C 324.33 138.81 331.19 138.90 335.38 138.75 C 339.56 138.60 338.90 138.88 346.62 137.75 C 354.35 136.62 374.04 133.17 381.75 132.00 C 389.46 130.83 385.38 133.06 392.88 130.75 C 400.38 128.44 420.83 120.27 426.75 118.12 C 432.67 115.98 427.98 118.10 428.38 117.88 C 428.77 117.65 429.10 117.06 429.12 116.75 Z" id="s-9-f-4"/>
<path d="M 407.88 108.00 C 407.77 105.00 407.75 107.44 407.12 107.12 C 406.50 106.81 405.58 106.29 404.12 106.12 C 402.67 105.96 401.73 105.48 398.38 106.12 C 395.02 106.77 387.52 108.88 384.00 110.00 C 380.48 111.12 380.19 111.79 377.25 112.88 C 374.31 113.96 371.00 115.19 366.38 116.50 C 361.75 117.81 355.48 119.56 349.50 120.75 C 343.52 121.94 336.60 122.94 330.50 123.62 C 324.40 124.31 315.98 124.58 312.88 124.88 C 309.77 125.17 312.00 124.65 311.88 125.38 C 311.75 126.10 311.92 128.08 312.12 129.25 C 312.33 130.42 312.56 131.31 313.12 132.38 C 313.69 133.44 314.62 134.75 315.50 135.62 C 316.38 136.50 317.38 137.12 318.38 137.62 C 319.38 138.12 320.52 138.42 321.50 138.62 C 322.48 138.83 321.94 138.85 324.25 138.88 C 326.56 138.90 331.65 138.94 335.38 138.75 C 339.10 138.56 338.90 138.88 346.62 137.75 C 354.35 136.62 374.04 133.17 381.75 132.00 C 389.46 130.83 388.54 131.90 392.88 130.75 C 397.21 129.60 405.25 128.92 407.75 125.12 C 410.25 121.33 407.98 111.00 407.88 108.00 Z" id="s-9-f-5"/>
<path d="M 359.88 118.75 C 359.73 116.15 360.85 118.04 359.12 118.38 C 357.40 118.71 352.90 120.04 349.50 120.75 C 346.10 121.46 344.85 121.94 338.75 122.62 C 332.65 123.31 317.35 124.42 312.88 124.88 C 308.40 125.33 312.00 124.65 311.88 125.38 C 311.75 126.10 311.92 128.08 312.12 129.25 C 312.33 130.42 312.48 131.25 313.12 132.38 C 313.77 133.50 315.12 135.12 316.00 136.00 C 316.88 136.88 317.33 137.17 318.38 137.62 C 319.42 138.08 319.06 138.58 322.25 138.75 C 325.44 138.92 333.44 138.79 337.50 138.62 C 341.56 138.46 342.96 138.23 346.62 137.75 C 350.29 137.27 357.27 136.38 359.50 135.75 C 361.73 135.12 359.94 136.83 360.00 134.00 C 360.06 131.17 360.02 121.35 359.88 118.75 Z" id="s-9-f-6"/>
</g>
<g id="s-10" clip-path="url(#c-s-10)">
<use href="#s-10-f-0"/>
<path d="M 371.88 174.62 C 371.75 171.38 372.83 173.60 371.25 174.12 C 369.67 174.65 366.19 176.48 362.38 177.75 C 358.56 179.02 352.19 180.75 348.38 181.75 C 344.56 182.75 342.60 183.21 339.50 183.75 C 336.40 184.29 332.08 184.48 329.75 185.00 C 327.42 185.52 326.46 186.27 325.50 186.88 C 324.54 187.48 324.27 188.04 324.00 188.62 C 323.73 189.21 323.65 189.71 323.88 190.38 C 324.10 191.04 324.42 191.77 325.38 192.62 C 326.33 193.48 328.06 194.67 329.62 195.50 C 331.19 196.33 332.98 197.10 334.75 197.62 C 336.52 198.15 336.85 198.46 340.25 198.62 C 343.65 198.79 350.00 199.10 355.12 198.62 C 360.25 198.15 368.21 196.33 371.00 195.75 C 373.79 195.17 371.71 195.48 371.88 195.12 C 372.04 194.77 372.00 197.04 372.00 193.62 C 372.00 190.21 372.00 177.88 371.88 174.62 Z" id="s-10-f-1"/>
</g>
<g id="s-11" clip-path="url(#c-s-11)">
<use href="#s-11-f-0"/>
<path d="M 348.88 241.62 C 348.67 238.40 354.94 240.27 347.75 241.12 C 340.56 241.98 321.52 244.96 305.75 246.75 C 289.98 248.54 262.00 250.96 253.12 251.88 C 244.25 252.79 252.60 249.65 252.50 252.25 C 252.40 254.85 252.17 264.75 252.50 267.50 C 252.83 270.25 253.52 268.40 254.50 268.75 C 255.48 269.10 255.83 269.46 258.38 269.62 C 260.92 269.79 267.19 269.85 269.75 269.75 C 272.31 269.65 268.83 269.35 273.75 269.00 C 278.67 268.65 291.60 268.29 299.25 267.62 C 306.90 266.96 311.46 265.88 319.62 265.00 C 327.79 264.12 343.38 262.90 348.25 262.38 C 353.12 261.85 348.75 262.19 348.88 261.88 C 349.00 261.56 349.00 263.88 349.00 260.50 C 349.00 257.12 349.08 244.85 348.88 241.62 Z" id="s-11-f-1"/>
<path d="M 300.88 247.75 C 300.62 244.71 301.65 247.08 299.50 247.25 C 297.35 247.42 295.73 247.98 288.00 248.75 C 280.27 249.52 259.04 251.29 253.12 251.88 C 247.21 252.46 252.60 249.65 252.50 252.25 C 252.40 254.85 252.17 264.75 252.50 267.50 C 252.83 270.25 253.52 268.40 254.50 268.75 C 255.48 269.10 256.33 269.44 258.38 269.62 C 260.42 269.81 264.19 269.98 266.75 269.88 C 269.31 269.77 271.25 269.17 273.75 269.00 C 276.25 268.83 277.31 269.15 281.75 268.88 C 286.19 268.60 297.17 267.94 300.38 267.38 C 303.58 266.81 300.92 268.77 301.00 265.50 C 301.08 262.23 301.12 250.79 300.88 247.75 Z" id="s-11-f-2"/>
</g>
<g id="s-12" clip-path="url(#c-s-12)">
<use href="#s-12-f-0"/>
<path d="M 295.38 267.75 C 293.29 267.54 286.81 267.52 283.62 267.62 C 280.44 267.73 277.67 268.15 276.25 268.38 C 274.83 268.60 275.54 266.17 275.12 269.00 C 274.71 271.83 274.48 279.88 273.75 285.38 C 273.02 290.88 272.12 296.21 270.75 302.00 C 269.38 307.79 267.52 314.12 265.50 320.12 C 263.48 326.12 261.73 330.88 258.62 338.00 C 255.52 345.12 249.15 358.29 246.88 362.88 C 244.60 367.46 245.52 364.56 245.00 365.50 C 244.48 366.44 244.96 366.25 243.75 368.50 C 242.54 370.75 240.71 374.38 237.75 379.00 C 234.79 383.62 229.88 390.90 226.00 396.25 C 222.12 401.60 216.42 408.52 214.50 411.12 C 212.58 413.73 210.50 411.77 214.50 411.88 C 218.50 411.98 232.81 413.46 238.50 411.75 C 244.19 410.04 245.83 404.60 248.62 401.62 C 251.42 398.65 252.90 396.83 255.25 393.88 C 257.60 390.92 260.15 387.65 262.75 383.88 C 265.35 380.10 268.21 375.79 270.88 371.25 C 273.54 366.71 276.29 361.52 278.75 356.62 C 281.21 351.73 283.29 347.29 285.62 341.88 C 287.96 336.46 290.35 330.56 292.75 324.12 C 295.15 317.69 298.04 308.29 300.00 303.25 C 301.96 298.21 303.56 296.08 304.50 293.88 C 305.44 291.67 305.40 291.69 305.62 290.00 C 305.85 288.31 306.02 285.54 305.88 283.75 C 305.73 281.96 305.52 280.96 304.75 279.25 C 303.98 277.54 302.38 275.06 301.25 273.50 C 300.12 271.94 298.85 270.65 298.00 269.88 C 297.15 269.10 296.56 269.23 296.12 268.88 C 295.69 268.52 297.46 267.96 295.38 267.75 Z" id="s-12-f-1"/>
<path d="M 295.25 267.75 C 293.17 267.54 286.79 267.52 283.62 267.62 C 280.46 267.73 277.67 268.15 276.25 268.38 C 274.83 268.60 275.69 265.17 275.12 269.00 C 274.56 272.83 273.62 285.77 272.88 291.38 C 272.12 296.98 271.48 298.98 270.62 302.62 C 269.77 306.27 268.90 309.52 267.75 313.25 C 266.60 316.98 265.25 320.94 263.75 325.00 C 262.25 329.06 260.75 332.94 258.75 337.62 C 256.75 342.31 253.69 349.08 251.75 353.12 C 249.81 357.17 247.98 360.10 247.12 361.88 C 246.27 363.65 242.06 363.42 246.62 363.75 C 251.19 364.08 269.15 365.06 274.50 363.88 C 279.85 362.69 276.56 361.08 278.75 356.62 C 280.94 352.17 285.29 342.54 287.62 337.12 C 289.96 331.71 290.54 330.15 292.75 324.12 C 294.96 318.10 298.88 306.15 300.88 301.00 C 302.88 295.85 303.94 295.21 304.75 293.25 C 305.56 291.29 305.58 291.08 305.75 289.25 C 305.92 287.42 306.08 284.27 305.75 282.25 C 305.42 280.23 304.92 279.06 303.75 277.12 C 302.58 275.19 300.02 272.00 298.75 270.62 C 297.48 269.25 296.71 269.35 296.12 268.88 C 295.54 268.40 297.33 267.96 295.25 267.75 Z" id="s-12-f-2"/>
<path d="M 295.38 267.75 C 293.29 267.54 286.81 267.52 283.62 267.62 C 280.44 267.73 277.67 268.15 276.25 268.38 C 274.83 268.60 275.69 265.17 275.12 269.00 C 274.56 272.83 273.62 285.77 272.88 291.38 C 272.12 296.98 271.60 298.73 270.62 302.62 C 269.65 306.52 267.54 312.52 267.00 314.75 C 266.46 316.98 262.69 315.81 267.38 316.00 C 272.06 316.19 290.40 315.98 295.12 315.88 C 299.85 315.77 294.79 317.85 295.75 315.38 C 296.71 312.90 299.38 304.69 300.88 301.00 C 302.38 297.31 303.94 295.21 304.75 293.25 C 305.56 291.29 305.60 291.21 305.75 289.25 C 305.90 287.29 306.12 283.79 305.62 281.50 C 305.12 279.21 303.90 277.31 302.75 275.50 C 301.60 273.69 299.85 271.73 298.75 270.62 C 297.65 269.52 296.69 269.35 296.12 268.88 C 295.56 268.40 297.46 267.96 295.38 267.75 Z" id="s-12-f-3"/>
</g>
<g id="s-13" clip-path="url(#c-s-13)">
<use href="#s-13-f-0"/>
<path d="M 321.25 264.50 C 320.40 264.79 320.46 264.33 320.88 265.38 C 321.29 266.42 322.94 268.96 323.75 270.75 C 324.56 272.54 325.25 274.54 325.75 276.12 C 326.25 277.71 326.42 277.96 326.75 280.25 C 327.08 282.54 327.90 276.75 327.75 289.88 C 327.60 303.00 326.17 344.10 325.88 359.00 C 325.58 373.90 325.81 374.17 326.00 379.25 C 326.19 384.33 326.50 386.08 327.00 389.50 C 327.50 392.92 328.15 396.35 329.00 399.75 C 329.85 403.15 330.96 406.77 332.12 409.88 C 333.29 412.98 334.62 415.88 336.00 418.38 C 337.38 420.88 338.15 422.21 340.38 424.88 C 342.60 427.54 347.10 432.23 349.38 434.38 C 351.65 436.52 352.27 436.67 354.00 437.75 C 355.73 438.83 357.67 439.90 359.75 440.88 C 361.83 441.85 364.17 442.83 366.50 443.62 C 368.83 444.42 369.94 444.94 373.75 445.62 C 377.56 446.31 383.60 447.40 389.38 447.75 C 395.15 448.10 403.58 447.92 408.38 447.75 C 413.17 447.58 414.77 447.25 418.12 446.75 C 421.48 446.25 425.06 445.60 428.50 444.75 C 431.94 443.90 435.94 442.62 438.75 441.62 C 441.56 440.62 443.06 439.90 445.38 438.75 C 447.69 437.60 450.50 436.06 452.62 434.75 C 454.75 433.44 455.58 433.10 458.12 430.88 C 460.67 428.65 465.77 423.65 467.88 421.38 C 469.98 419.10 469.81 419.00 470.75 417.25 C 471.69 415.50 472.98 412.79 473.50 410.88 C 474.02 408.96 474.00 407.50 473.88 405.75 C 473.75 404.00 474.38 404.31 472.75 400.38 C 471.12 396.44 466.42 387.56 464.12 382.12 C 461.83 376.69 460.23 371.54 459.00 367.75 C 457.77 363.96 457.23 360.85 456.75 359.38 C 456.27 357.90 458.25 358.98 456.12 358.88 C 454.00 358.77 446.21 358.69 444.00 358.75 C 441.79 358.81 443.42 356.52 442.88 359.25 C 442.33 361.98 441.44 370.81 440.75 375.12 C 440.06 379.44 439.42 382.25 438.75 385.12 C 438.08 388.00 437.44 390.25 436.75 392.38 C 436.06 394.50 435.27 396.38 434.62 397.88 C 433.98 399.38 433.62 400.23 432.88 401.38 C 432.12 402.52 431.42 403.50 430.12 404.75 C 428.83 406.00 426.79 407.73 425.12 408.88 C 423.46 410.02 421.98 410.81 420.12 411.62 C 418.27 412.44 417.06 413.08 414.00 413.75 C 410.94 414.42 405.69 415.29 401.75 415.62 C 397.81 415.96 393.94 415.90 390.38 415.75 C 386.81 415.60 383.40 415.25 380.38 414.75 C 377.35 414.25 374.56 413.48 372.25 412.75 C 369.94 412.02 368.25 411.27 366.50 410.38 C 364.75 409.48 363.33 408.67 361.75 407.38 C 360.17 406.08 358.46 404.52 357.00 402.62 C 355.54 400.73 354.00 398.06 353.00 396.00 C 352.00 393.94 351.50 392.00 351.00 390.25 C 350.50 388.50 350.33 387.85 350.00 385.50 C 349.67 383.15 349.12 381.06 349.00 376.12 C 348.88 371.19 348.92 362.98 349.25 355.88 C 349.58 348.77 350.38 339.60 351.00 333.50 C 351.62 327.40 351.67 326.02 353.00 319.25 C 354.33 312.48 357.67 298.31 359.00 292.88 C 360.33 287.44 360.04 289.00 361.00 286.62 C 361.96 284.25 364.15 280.58 364.75 278.62 C 365.35 276.67 364.85 275.96 364.62 274.88 C 364.40 273.79 364.10 273.23 363.38 272.12 C 362.65 271.02 362.12 269.98 360.25 268.25 C 358.38 266.52 354.42 262.85 352.12 261.75 C 349.83 260.65 349.75 261.35 346.50 261.62 C 343.25 261.90 336.04 263.04 332.62 263.38 C 329.21 263.71 327.90 263.44 326.00 263.62 C 324.10 263.81 322.10 264.21 321.25 264.50 Z" id="s-13-f-1"/>
<path d="M 321.12 264.62 C 320.29 264.98 320.58 264.79 321.00 265.75 C 321.42 266.71 322.83 268.65 323.62 270.38 C 324.42 272.10 325.23 274.48 325.75 276.12 C 326.27 277.77 326.42 277.96 326.75 280.25 C 327.08 282.54 327.90 276.77 327.75 289.88 C 327.60 302.98 326.17 343.96 325.88 358.88 C 325.58 373.79 325.81 374.27 326.00 379.38 C 326.19 384.48 326.50 386.10 327.00 389.50 C 327.50 392.90 328.17 396.42 329.00 399.75 C 329.83 403.08 330.83 406.40 332.00 409.50 C 333.17 412.60 334.69 415.92 336.00 418.38 C 337.31 420.83 338.50 422.42 339.88 424.25 C 341.25 426.08 342.56 427.60 344.25 429.38 C 345.94 431.15 348.38 433.48 350.00 434.88 C 351.62 436.27 352.38 436.75 354.00 437.75 C 355.62 438.75 357.67 439.90 359.75 440.88 C 361.83 441.85 364.17 442.83 366.50 443.62 C 368.83 444.42 369.96 444.94 373.75 445.62 C 377.54 446.31 383.48 447.40 389.25 447.75 C 395.02 448.10 403.56 447.92 408.38 447.75 C 413.19 447.58 414.77 447.25 418.12 446.75 C 421.48 446.25 425.06 445.60 428.50 444.75 C 431.94 443.90 435.90 442.65 438.75 441.62 C 441.60 440.60 443.31 439.77 445.62 438.62 C 447.94 437.48 450.54 436.04 452.62 434.75 C 454.71 433.46 455.58 433.10 458.12 430.88 C 460.67 428.65 465.60 423.94 467.88 421.38 C 470.15 418.81 470.77 417.42 471.75 415.50 C 472.73 413.58 473.42 411.75 473.75 409.88 C 474.08 408.00 473.92 405.83 473.75 404.25 C 473.58 402.67 473.65 402.50 472.75 400.38 C 471.85 398.25 469.25 393.08 468.38 391.50 C 467.50 389.92 472.10 389.31 467.50 390.88 C 462.90 392.44 446.19 398.77 440.75 400.88 C 435.31 402.98 436.19 403.00 434.88 403.50 C 433.56 404.00 433.90 403.48 432.88 403.88 C 431.85 404.27 430.04 405.04 428.75 405.88 C 427.46 406.71 426.67 407.88 425.12 408.88 C 423.58 409.88 421.90 410.94 419.50 411.88 C 417.10 412.81 413.33 413.92 410.75 414.50 C 408.17 415.08 407.40 415.17 404.00 415.38 C 400.60 415.58 394.31 415.85 390.38 415.75 C 386.44 415.65 382.83 415.08 380.38 414.75 C 377.92 414.42 377.44 414.25 375.62 413.75 C 373.81 413.25 371.21 412.42 369.50 411.75 C 367.79 411.08 366.65 410.46 365.38 409.75 C 364.10 409.04 363.27 408.69 361.88 407.50 C 360.48 406.31 358.48 404.54 357.00 402.62 C 355.52 400.71 354.00 398.06 353.00 396.00 C 352.00 393.94 351.50 392.00 351.00 390.25 C 350.50 388.50 350.33 387.85 350.00 385.50 C 349.67 383.15 349.12 381.06 349.00 376.12 C 348.88 371.19 348.92 362.98 349.25 355.88 C 349.58 348.77 350.38 339.60 351.00 333.50 C 351.62 327.40 351.67 326.02 353.00 319.25 C 354.33 312.48 357.67 298.31 359.00 292.88 C 360.33 287.44 360.04 289.00 361.00 286.62 C 361.96 284.25 364.15 280.56 364.75 278.62 C 365.35 276.69 364.85 276.08 364.62 275.00 C 364.40 273.92 364.02 273.17 363.38 272.12 C 362.73 271.08 361.79 269.88 360.75 268.75 C 359.71 267.62 358.56 266.54 357.12 265.38 C 355.69 264.21 353.90 262.38 352.12 261.75 C 350.35 261.12 349.75 261.35 346.50 261.62 C 343.25 261.90 336.04 263.04 332.62 263.38 C 329.21 263.71 327.92 263.42 326.00 263.62 C 324.08 263.83 321.96 264.27 321.12 264.62 Z" id="s-13-f-2"/>
<path d="M 321.12 264.62 C 320.29 264.98 320.58 264.79 321.00 265.75 C 321.42 266.71 322.83 268.65 323.62 270.38 C 324.42 272.10 325.23 274.48 325.75 276.12 C 326.27 277.77 326.42 277.96 326.75 280.25 C 327.08 282.54 327.90 276.77 327.75 289.88 C 327.60 302.98 326.17 343.96 325.88 358.88 C 325.58 373.79 325.81 374.27 326.00 379.38 C 326.19 384.48 326.50 386.10 327.00 389.50 C 327.50 392.90 328.31 396.81 329.00 399.75 C 329.69 402.69 330.29 404.69 331.12 407.12 C 331.96 409.56 332.69 411.73 334.00 414.38 C 335.31 417.02 336.77 419.98 339.00 423.00 C 341.23 426.02 344.88 430.04 347.38 432.50 C 349.88 434.96 351.94 436.35 354.00 437.75 C 356.06 439.15 357.67 439.90 359.75 440.88 C 361.83 441.85 363.35 442.69 366.50 443.62 C 369.65 444.56 374.83 445.81 378.62 446.50 C 382.42 447.19 384.29 447.54 389.25 447.75 C 394.21 447.96 402.46 448.10 408.38 447.75 C 414.29 447.40 420.73 446.29 424.75 445.62 C 428.77 444.96 429.90 444.54 432.50 443.75 C 435.10 442.96 438.98 441.48 440.38 440.88 C 441.77 440.27 440.77 446.29 440.88 440.12 C 440.98 433.96 441.00 410.29 441.00 403.88 C 441.00 397.46 440.98 402.08 440.88 401.62 C 440.77 401.17 441.38 400.81 440.38 401.12 C 439.38 401.44 436.21 403.02 434.88 403.50 C 433.54 403.98 433.40 403.60 432.38 404.00 C 431.35 404.40 430.44 404.77 428.75 405.88 C 427.06 406.98 424.71 409.31 422.25 410.62 C 419.79 411.94 417.46 412.92 414.00 413.75 C 410.54 414.58 405.44 415.29 401.50 415.62 C 397.56 415.96 394.12 415.94 390.38 415.75 C 386.62 415.56 382.90 415.33 379.00 414.50 C 375.10 413.67 369.88 411.94 367.00 410.75 C 364.12 409.56 363.42 408.73 361.75 407.38 C 360.08 406.02 358.12 403.88 357.00 402.62 C 355.88 401.38 355.67 400.98 355.00 399.88 C 354.33 398.77 353.67 397.60 353.00 396.00 C 352.33 394.40 351.65 393.29 351.00 390.25 C 350.35 387.21 349.46 382.25 349.12 377.75 C 348.79 373.25 348.85 368.90 349.00 363.25 C 349.15 357.60 349.33 351.21 350.00 343.88 C 350.67 336.54 351.50 327.75 353.00 319.25 C 354.50 310.75 357.67 298.31 359.00 292.88 C 360.33 287.44 360.04 289.00 361.00 286.62 C 361.96 284.25 364.15 280.56 364.75 278.62 C 365.35 276.69 364.85 276.08 364.62 275.00 C 364.40 273.92 364.02 273.17 363.38 272.12 C 362.73 271.08 361.79 269.88 360.75 268.75 C 359.71 267.62 358.56 266.54 357.12 265.38 C 355.69 264.21 353.90 262.38 352.12 261.75 C 350.35 261.12 349.75 261.35 346.50 261.62 C 343.25 261.90 336.04 263.04 332.62 263.38 C 329.21 263.71 327.92 263.42 326.00 263.62 C 324.08 263.83 321.96 264.27 321.12 264.62 Z" id="s-13-f-3"/>
<path d="M 321.25 264.50 C 320.40 264.79 320.46 264.33 320.88 265.38 C 321.29 266.42 322.94 268.96 323.75 270.75 C 324.56 272.54 325.10 273.38 325.75 276.12 C 326.40 278.88 327.31 282.38 327.62 287.25 C 327.94 292.12 327.90 295.90 327.62 305.38 C 327.35 314.85 326.27 331.79 326.00 344.12 C 325.73 356.46 325.65 370.75 326.00 379.38 C 326.35 388.00 327.44 391.75 328.12 395.88 C 328.81 400.00 329.31 401.42 330.12 404.12 C 330.94 406.83 332.02 409.75 333.00 412.12 C 333.98 414.50 334.85 416.35 336.00 418.38 C 337.15 420.40 337.98 421.90 339.88 424.25 C 341.77 426.60 345.02 430.25 347.38 432.50 C 349.73 434.75 351.19 436.04 354.00 437.75 C 356.81 439.46 360.96 441.44 364.25 442.75 C 367.54 444.06 369.60 444.79 373.75 445.62 C 377.90 446.46 386.00 447.42 389.12 447.75 C 392.25 448.08 391.85 448.02 392.50 447.62 C 393.15 447.23 392.98 450.33 393.00 445.38 C 393.02 440.42 392.79 422.77 392.62 417.88 C 392.46 412.98 394.21 416.54 392.00 416.00 C 389.79 415.46 382.10 415.00 379.38 414.62 C 376.65 414.25 377.69 414.40 375.62 413.75 C 373.56 413.10 369.31 411.81 367.00 410.75 C 364.69 409.69 363.42 408.73 361.75 407.38 C 360.08 406.02 358.27 404.15 357.00 402.62 C 355.73 401.10 355.12 400.31 354.12 398.25 C 353.12 396.19 351.69 392.38 351.00 390.25 C 350.31 388.12 350.33 387.85 350.00 385.50 C 349.67 383.15 349.17 379.83 349.00 376.12 C 348.83 372.42 348.67 370.35 349.00 363.25 C 349.33 356.15 350.33 340.83 351.00 333.50 C 351.67 326.17 352.00 324.73 353.00 319.25 C 354.00 313.77 355.67 306.06 357.00 300.62 C 358.33 295.19 359.71 290.29 361.00 286.62 C 362.29 282.96 364.15 280.58 364.75 278.62 C 365.35 276.67 364.94 276.08 364.62 274.88 C 364.31 273.67 363.69 272.58 362.88 271.38 C 362.06 270.17 361.54 269.23 359.75 267.62 C 357.96 266.02 354.33 262.75 352.12 261.75 C 349.92 260.75 348.25 261.50 346.50 261.62 C 344.75 261.75 345.04 262.17 341.62 262.50 C 338.21 262.83 329.40 263.29 326.00 263.62 C 322.60 263.96 322.10 264.21 321.25 264.50 Z" id="s-13-f-4"/>
<path d="M 346.50 261.62 C 343.19 261.88 336.04 263.04 332.62 263.38 C 329.21 263.71 327.96 263.38 326.00 263.62 C 324.04 263.88 321.23 263.65 320.88 264.88 C 320.52 266.10 323.06 269.12 323.88 271.00 C 324.69 272.88 325.12 273.42 325.75 276.12 C 326.38 278.83 327.29 283.19 327.62 287.25 C 327.96 291.31 328.00 291.90 327.75 300.50 C 327.50 309.10 326.42 325.75 326.12 338.88 C 325.83 352.00 325.85 370.81 326.00 379.25 C 326.15 387.69 326.48 386.00 327.00 389.50 C 327.52 393.00 328.12 396.48 329.12 400.25 C 330.12 404.02 331.54 408.60 333.00 412.12 C 334.46 415.65 336.00 418.50 337.88 421.38 C 339.75 424.25 342.94 428.08 344.25 429.38 C 345.56 430.67 343.17 432.98 345.75 429.12 C 348.33 425.27 357.44 410.19 359.75 406.25 C 362.06 402.31 360.04 406.00 359.62 405.50 C 359.21 405.00 358.19 404.44 357.25 403.25 C 356.31 402.06 355.04 400.54 354.00 398.38 C 352.96 396.21 351.69 392.54 351.00 390.25 C 350.31 387.96 350.21 386.98 349.88 384.62 C 349.54 382.27 349.12 380.42 349.00 376.12 C 348.88 371.83 348.79 365.98 349.12 358.88 C 349.46 351.77 350.35 340.10 351.00 333.50 C 351.65 326.90 351.67 326.02 353.00 319.25 C 354.33 312.48 357.67 298.31 359.00 292.88 C 360.33 287.44 360.04 289.02 361.00 286.62 C 361.96 284.23 364.17 280.52 364.75 278.50 C 365.33 276.48 364.98 275.92 364.50 274.50 C 364.02 273.08 362.81 271.27 361.88 270.00 C 360.94 268.73 360.31 268.06 358.88 266.88 C 357.44 265.69 354.31 263.71 353.25 262.88 C 352.19 262.04 353.62 262.08 352.50 261.88 C 351.38 261.67 349.81 261.38 346.50 261.62 Z" id="s-13-f-5"/>
<path d="M 352.12 261.75 C 350.25 261.04 348.25 261.50 346.50 261.62 C 344.75 261.75 345.04 262.17 341.62 262.50 C 338.21 262.83 329.46 263.23 326.00 263.62 C 322.54 264.02 321.23 263.65 320.88 264.88 C 320.52 266.10 323.06 269.12 323.88 271.00 C 324.69 272.88 325.12 273.42 325.75 276.12 C 326.38 278.83 327.31 282.35 327.62 287.25 C 327.94 292.15 327.90 295.94 327.62 305.50 C 327.35 315.06 326.27 332.38 326.00 344.62 C 325.73 356.88 325.67 370.56 326.00 379.00 C 326.33 387.44 327.25 390.90 328.00 395.25 C 328.75 399.60 329.96 403.35 330.50 405.12 C 331.04 406.90 326.44 405.77 331.25 405.88 C 336.06 405.98 354.69 405.88 359.38 405.75 C 364.06 405.62 359.73 405.54 359.38 405.12 C 359.02 404.71 357.96 404.04 357.25 403.25 C 356.54 402.46 355.83 401.54 355.12 400.38 C 354.42 399.21 353.69 397.94 353.00 396.25 C 352.31 394.56 351.52 392.19 351.00 390.25 C 350.48 388.31 350.21 386.98 349.88 384.62 C 349.54 382.27 349.12 380.44 349.00 376.12 C 348.88 371.81 348.79 365.85 349.12 358.75 C 349.46 351.65 350.35 340.08 351.00 333.50 C 351.65 326.92 351.67 326.02 353.00 319.25 C 354.33 312.48 357.67 298.31 359.00 292.88 C 360.33 287.44 360.04 289.00 361.00 286.62 C 361.96 284.25 364.10 280.29 364.75 278.62 C 365.40 276.96 365.04 277.60 364.88 276.62 C 364.71 275.65 364.31 273.92 363.75 272.75 C 363.19 271.58 362.50 270.77 361.50 269.62 C 360.50 268.48 359.31 267.19 357.75 265.88 C 356.19 264.56 354.00 262.46 352.12 261.75 Z" id="s-13-f-6"/>
<path d="M 352.12 261.75 C 350.35 261.12 348.25 261.50 346.50 261.62 C 344.75 261.75 345.04 262.17 341.62 262.50 C 338.21 262.83 329.46 263.23 326.00 263.62 C 322.54 264.02 320.92 262.79 320.88 264.88 C 320.83 266.96 324.62 272.40 325.75 276.12 C 326.88 279.85 327.31 282.42 327.62 287.25 C 327.94 292.08 327.90 295.65 327.62 305.12 C 327.35 314.60 326.25 335.40 326.00 344.12 C 325.75 352.85 324.98 355.19 326.12 357.50 C 327.27 359.81 329.35 357.92 332.88 358.00 C 336.40 358.08 344.52 358.10 347.25 358.00 C 349.98 357.90 348.62 361.46 349.25 357.38 C 349.88 353.29 350.38 339.85 351.00 333.50 C 351.62 327.15 351.67 326.02 353.00 319.25 C 354.33 312.48 357.67 298.31 359.00 292.88 C 360.33 287.44 360.02 289.10 361.00 286.62 C 361.98 284.15 364.27 279.96 364.88 278.00 C 365.48 276.04 365.12 276.21 364.62 274.88 C 364.12 273.54 363.12 271.58 361.88 270.00 C 360.62 268.42 358.75 266.75 357.12 265.38 C 355.50 264.00 353.90 262.38 352.12 261.75 Z" id="s-13-f-7"/>
<path d="M 352.50 261.88 C 351.38 261.67 348.31 261.52 346.50 261.62 C 344.69 261.73 345.04 262.17 341.62 262.50 C 338.21 262.83 329.42 263.27 326.00 263.62 C 322.58 263.98 321.96 264.27 321.12 264.62 C 320.29 264.98 320.44 264.44 321.00 265.75 C 321.56 267.06 323.54 270.08 324.50 272.50 C 325.46 274.92 326.21 277.35 326.75 280.25 C 327.29 283.15 327.65 285.06 327.75 289.88 C 327.85 294.69 327.35 305.79 327.38 309.12 C 327.40 312.46 323.35 309.73 327.88 309.88 C 332.40 310.02 349.96 310.06 354.50 310.00 C 359.04 309.94 354.38 312.35 355.12 309.50 C 355.88 306.65 358.02 296.69 359.00 292.88 C 359.98 289.06 360.04 289.00 361.00 286.62 C 361.96 284.25 364.10 280.29 364.75 278.62 C 365.40 276.96 365.04 277.60 364.88 276.62 C 364.71 275.65 364.25 273.85 363.75 272.75 C 363.25 271.65 362.69 270.98 361.88 270.00 C 361.06 269.02 360.31 268.06 358.88 266.88 C 357.44 265.69 354.31 263.71 353.25 262.88 C 352.19 262.04 353.62 262.08 352.50 261.88 Z" id="s-13-f-8"/>
</g>
</svg>