<?xml version="1.0" encoding="UTF-8"?>
<svg xmlns="http://www.w3.org/2000/svg" viewBox="0 0 500 500">
<defs>
<path d="M 264.50 41.75 C 263.94 42.25 263.23 43.21 263.00 43.88 C 262.77 44.54 262.69 44.96 263.12 45.75 C 263.56 46.54 264.31 46.38 265.62 48.62 C 266.94 50.88 268.90 55.42 271.00 59.25 C 273.10 63.08 276.21 68.38 278.25 71.62 C 280.29 74.88 281.54 76.56 283.25 78.75 C 284.96 80.94 287.35 83.71 288.50 84.75 C 289.65 85.79 287.27 85.48 290.12 85.00 C 292.98 84.52 302.50 82.58 305.62 81.88 C 308.75 81.17 308.19 81.50 308.88 80.75 C 309.56 80.00 309.60 79.62 309.75 77.38 C 309.90 75.12 310.08 70.12 309.75 67.25 C 309.42 64.38 308.73 62.23 307.75 60.12 C 306.77 58.02 305.33 56.12 303.88 54.62 C 302.42 53.12 300.75 52.21 299.00 51.12 C 297.25 50.04 296.56 49.48 293.38 48.12 C 290.19 46.77 283.52 44.19 279.88 43.00 C 276.23 41.81 273.75 41.35 271.50 41.00 C 269.25 40.65 267.54 40.75 266.38 40.88 C 265.21 41.00 265.06 41.25 264.50 41.75 Z" id="s-0-f-0"/>
<clipPath id="c-s-0"><use href="#s-0-f-0"/></clipPath>
<path d="M 424.88 82.75 C 424.73 82.02 424.52 81.69 423.88 80.88 C 423.23 80.06 423.23 79.52 421.00 77.88 C 418.77 76.23 414.65 72.98 410.50 71.00 C 406.35 69.02 399.46 66.83 396.12 66.00 C 392.79 65.17 392.65 65.81 390.50 66.00 C 388.35 66.19 388.54 66.02 383.25 67.12 C 377.96 68.23 370.83 70.38 358.75 72.62 C 346.67 74.88 319.50 79.29 310.75 80.62 C 302.00 81.96 307.31 80.50 306.25 80.62 C 305.19 80.75 306.98 80.85 304.38 81.38 C 301.77 81.90 293.27 83.19 290.62 83.75 C 287.98 84.31 307.21 82.02 288.50 84.75 C 269.79 87.48 197.33 97.33 178.38 100.12 C 159.42 102.92 175.48 101.10 174.75 101.50 C 174.02 101.90 174.15 102.12 174.00 102.50 C 173.85 102.88 173.71 103.15 173.88 103.75 C 174.04 104.35 174.31 105.29 175.00 106.12 C 175.69 106.96 175.73 107.48 178.00 108.75 C 180.27 110.02 185.85 112.58 188.62 113.75 C 191.40 114.92 192.88 115.27 194.62 115.75 C 196.38 116.23 197.31 116.44 199.12 116.62 C 200.94 116.81 197.54 118.33 205.50 116.88 C 213.46 115.42 233.10 110.52 246.88 107.88 C 260.65 105.23 269.40 103.48 288.12 101.00 C 306.85 98.52 343.00 94.67 359.25 93.00 C 375.50 91.33 376.25 91.56 385.62 91.00 C 395.00 90.44 409.73 90.02 415.50 89.62 C 421.27 89.23 418.98 89.04 420.25 88.62 C 421.52 88.21 422.38 87.69 423.12 87.12 C 423.88 86.56 424.46 85.98 424.75 85.25 C 425.04 84.52 425.02 83.48 424.88 82.75 Z" id="s-1-f-0"/>
<clipPath id="c-s-1"><use href="#s-1-f-0"/></clipPath>
<path d="M 195.62 133.38 C 194.88 133.88 193.81 134.96 193.38 135.88 C 192.94 136.79 192.00 137.44 193.00 138.88 C 194.00 140.31 197.58 142.60 199.38 144.50 C 201.17 146.40 202.69 148.60 203.75 150.25 C 204.81 151.90 204.92 152.02 205.75 154.38 C 206.58 156.73 207.44 158.88 208.75 164.38 C 210.06 169.88 212.04 178.04 213.62 187.38 C 215.21 196.71 217.15 213.73 218.25 220.38 C 219.35 227.02 219.50 225.19 220.25 227.25 C 221.00 229.31 221.85 231.29 222.75 232.75 C 223.65 234.21 224.67 235.17 225.62 236.00 C 226.58 236.83 227.52 237.50 228.50 237.75 C 229.48 238.00 230.77 237.67 231.50 237.50 C 232.23 237.33 232.19 237.42 232.88 236.75 C 233.56 236.08 234.77 236.60 235.62 233.50 C 236.48 230.40 237.81 223.77 238.00 218.12 C 238.19 212.48 237.46 206.29 236.75 199.62 C 236.04 192.96 234.69 184.10 233.75 178.12 C 232.81 172.15 231.79 168.81 231.12 163.75 C 230.46 158.69 231.96 152.40 229.75 147.75 C 227.54 143.10 220.71 138.15 217.88 135.88 C 215.04 133.60 214.54 134.58 212.75 134.12 C 210.96 133.67 209.60 133.33 207.12 133.12 C 204.65 132.92 199.79 132.83 197.88 132.88 C 195.96 132.92 196.38 132.88 195.62 133.38 Z" id="s-2-f-0"/>
<clipPath id="c-s-2"><use href="#s-2-f-0"/></clipPath>
<path d="M 413.88 130.00 C 413.69 129.10 413.25 128.02 412.50 127.00 C 411.75 125.98 410.56 124.90 409.38 123.88 C 408.19 122.85 406.88 121.85 405.38 120.88 C 403.88 119.90 404.48 119.98 400.38 118.00 C 396.27 116.02 384.94 110.81 380.75 109.00 C 376.56 107.19 376.77 107.48 375.25 107.12 C 373.73 106.77 372.83 106.88 371.62 106.88 C 370.42 106.88 370.19 106.75 368.00 107.12 C 365.81 107.50 367.06 106.71 358.50 109.12 C 349.94 111.54 328.19 118.52 316.62 121.62 C 305.06 124.73 296.50 126.25 289.12 127.75 C 281.75 129.25 277.83 129.79 272.38 130.62 C 266.92 131.46 262.62 132.04 256.38 132.75 C 250.12 133.46 240.23 134.46 234.88 134.88 C 229.52 135.29 226.96 135.08 224.25 135.25 C 221.54 135.42 219.73 135.67 218.62 135.88 C 217.52 136.08 215.83 134.46 217.62 136.50 C 219.42 138.54 224.06 146.44 229.38 148.12 C 234.69 149.81 242.48 147.38 249.50 146.62 C 256.52 145.88 259.96 145.73 271.50 143.62 C 283.04 141.52 305.21 136.60 318.75 134.00 C 332.29 131.40 345.17 129.17 352.75 128.00 C 360.33 126.83 361.79 126.96 364.25 127.00 C 366.71 127.04 366.58 127.60 367.50 128.25 C 368.42 128.90 369.21 129.77 369.75 130.88 C 370.29 131.98 370.62 132.56 370.75 134.88 C 370.88 137.19 370.67 141.98 370.50 144.75 C 370.33 147.52 370.25 148.31 369.75 151.50 C 369.25 154.69 368.52 159.19 367.50 163.88 C 366.48 168.56 365.10 174.31 363.62 179.62 C 362.15 184.94 360.06 191.69 358.62 195.75 C 357.19 199.81 355.65 202.29 355.00 204.00 C 354.35 205.71 354.77 203.12 354.75 206.00 C 354.73 208.88 354.58 218.23 354.88 221.25 C 355.17 224.27 355.73 223.17 356.50 224.12 C 357.27 225.08 358.75 226.40 359.50 227.00 C 360.25 227.60 360.12 227.60 361.00 227.75 C 361.88 227.90 363.69 227.94 364.75 227.88 C 365.81 227.81 366.40 227.71 367.38 227.38 C 368.35 227.04 369.71 226.42 370.62 225.88 C 371.54 225.33 372.00 225.08 372.88 224.12 C 373.75 223.17 374.23 223.75 375.88 220.12 C 377.52 216.50 380.69 207.98 382.75 202.38 C 384.81 196.77 386.94 190.04 388.25 186.50 C 389.56 182.96 389.98 182.88 390.62 181.12 C 391.27 179.38 390.38 180.90 392.12 176.00 C 393.88 171.10 399.15 156.83 401.12 151.75 C 403.10 146.67 403.02 147.38 404.00 145.50 C 404.98 143.62 405.40 142.69 407.00 140.50 C 408.60 138.31 412.48 134.12 413.62 132.38 C 414.77 130.62 414.06 130.90 413.88 130.00 Z" id="s-3-f-0"/>
<clipPath id="c-s-3"><use href="#s-3-f-0"/></clipPath>
<path d="M 249.88 156.12 C 248.35 156.35 248.71 157.00 248.38 157.50 C 248.04 158.00 247.88 158.69 247.88 159.12 C 247.88 159.56 247.65 159.46 248.38 160.12 C 249.10 160.79 251.35 162.27 252.25 163.12 C 253.15 163.98 253.00 163.65 253.75 165.25 C 254.50 166.85 255.92 170.23 256.75 172.75 C 257.58 175.27 258.04 176.58 258.75 180.38 C 259.46 184.17 260.48 192.52 261.00 195.50 C 261.52 198.48 260.96 196.50 261.88 198.25 C 262.79 200.00 265.44 204.56 266.50 206.00 C 267.56 207.44 267.54 206.77 268.25 206.88 C 268.96 206.98 270.00 207.00 270.75 206.62 C 271.50 206.25 272.23 205.58 272.75 204.62 C 273.27 203.67 273.71 204.94 273.88 200.88 C 274.04 196.81 273.92 185.67 273.75 180.25 C 273.58 174.83 273.73 171.65 272.88 168.38 C 272.02 165.10 269.67 162.17 268.62 160.62 C 267.58 159.08 268.48 159.88 266.62 159.12 C 264.77 158.38 260.29 156.62 257.50 156.12 C 254.71 155.62 251.40 155.90 249.88 156.12 Z" id="s-4-f-0"/>
<clipPath id="c-s-4"><use href="#s-4-f-0"/></clipPath>
<path d="M 342.75 161.88 C 342.94 161.40 343.38 161.56 342.75 160.75 C 342.12 159.94 342.58 159.12 339.00 157.00 C 335.42 154.88 324.60 149.50 321.25 148.00 C 317.90 146.50 320.71 147.54 318.88 148.00 C 317.04 148.46 314.54 149.62 310.25 150.75 C 305.96 151.88 299.79 153.35 293.12 154.75 C 286.46 156.15 274.50 158.21 270.25 159.12 C 266.00 160.04 267.54 159.04 267.62 160.25 C 267.71 161.46 269.92 164.94 270.75 166.38 C 271.58 167.81 270.54 168.94 272.62 168.88 C 274.71 168.81 279.15 166.98 283.25 166.00 C 287.35 165.02 293.38 163.67 297.25 163.00 C 301.12 162.33 304.35 162.15 306.50 162.00 C 308.65 161.85 309.19 161.98 310.12 162.12 C 311.06 162.27 311.54 162.46 312.12 162.88 C 312.71 163.29 313.35 163.98 313.62 164.62 C 313.90 165.27 314.19 164.92 313.75 166.75 C 313.31 168.58 311.62 173.15 311.00 175.62 C 310.38 178.10 309.60 180.44 310.00 181.62 C 310.40 182.81 311.21 182.31 313.38 182.75 C 315.54 183.19 321.25 184.04 323.00 184.25 C 324.75 184.46 321.73 186.48 323.88 184.00 C 326.02 181.52 333.31 172.46 335.88 169.38 C 338.44 166.29 338.29 166.46 339.25 165.50 C 340.21 164.54 341.04 164.23 341.62 163.62 C 342.21 163.02 342.56 162.35 342.75 161.88 Z" id="s-5-f-0"/>
<clipPath id="c-s-5"><use href="#s-5-f-0"/></clipPath>
<path d="M 329.88 190.38 C 329.77 189.88 330.04 189.88 329.12 189.00 C 328.21 188.12 325.38 186.04 324.38 185.12 C 323.38 184.21 323.94 183.92 323.12 183.50 C 322.31 183.08 320.83 182.81 319.50 182.62 C 318.17 182.44 316.15 182.54 315.12 182.38 C 314.10 182.21 314.21 181.75 313.38 181.62 C 312.54 181.50 314.23 180.81 310.12 181.62 C 306.02 182.44 294.77 185.29 288.75 186.50 C 282.73 187.71 276.54 188.42 274.00 188.88 C 271.46 189.33 273.58 187.65 273.50 189.25 C 273.42 190.85 273.25 196.90 273.50 198.50 C 273.75 200.10 273.44 198.85 275.00 198.88 C 276.56 198.90 277.31 199.21 282.88 198.62 C 288.44 198.04 302.94 196.17 308.38 195.38 C 313.81 194.58 312.19 194.29 315.50 193.88 C 318.81 193.46 325.88 193.19 328.25 192.88 C 330.62 192.56 329.48 192.42 329.75 192.00 C 330.02 191.58 329.98 190.88 329.88 190.38 Z" id="s-6-f-0"/>
<clipPath id="c-s-6"><use href="#s-6-f-0"/></clipPath>
<path d="M 355.25 205.25 C 354.96 202.56 354.62 204.62 353.50 204.25 C 352.38 203.88 350.83 203.19 348.50 203.00 C 346.17 202.81 345.17 202.44 339.50 203.12 C 333.83 203.81 321.35 205.88 314.50 207.12 C 307.65 208.38 304.44 209.52 298.38 210.62 C 292.31 211.73 288.25 212.54 278.12 213.75 C 268.00 214.96 244.54 216.62 237.62 217.88 C 230.71 219.12 236.83 219.96 236.62 221.25 C 236.42 222.54 236.54 224.58 236.38 225.62 C 236.21 226.67 235.73 226.67 235.62 227.50 C 235.52 228.33 235.31 229.94 235.75 230.62 C 236.19 231.31 237.35 231.42 238.25 231.62 C 239.15 231.83 238.60 231.88 241.12 231.88 C 243.65 231.88 236.88 233.27 253.38 231.62 C 269.88 229.98 323.23 223.79 340.12 222.00 C 357.02 220.21 352.23 221.15 354.75 220.88 C 357.27 220.60 355.17 222.98 355.25 220.38 C 355.33 217.77 355.54 207.94 355.25 205.25 Z" id="s-7-f-0"/>
<clipPath id="c-s-7"><use href="#s-7-f-0"/></clipPath>
<path d="M 220.50 250.00 C 218.62 250.19 219.27 250.92 218.88 251.38 C 218.48 251.83 218.29 252.08 218.12 252.75 C 217.96 253.42 217.00 253.98 217.88 255.38 C 218.75 256.77 222.10 259.56 223.38 261.12 C 224.65 262.69 224.46 262.08 225.50 264.75 C 226.54 267.42 228.56 273.04 229.62 277.12 C 230.69 281.21 230.85 282.29 231.88 289.25 C 232.90 296.21 235.06 313.08 235.75 318.88 C 236.44 324.67 235.77 322.46 236.00 324.00 C 236.23 325.54 236.58 326.69 237.12 328.12 C 237.67 329.56 238.29 331.04 239.25 332.62 C 240.21 334.21 241.77 336.46 242.88 337.62 C 243.98 338.79 244.85 339.29 245.88 339.62 C 246.90 339.96 248.02 340.15 249.00 339.62 C 249.98 339.10 251.08 337.77 251.75 336.50 C 252.42 335.23 252.83 336.79 253.00 332.00 C 253.17 327.21 253.25 317.12 252.75 307.75 C 252.25 298.38 250.48 282.79 250.00 275.75 C 249.52 268.71 250.92 268.85 249.88 265.50 C 248.83 262.15 245.10 257.50 243.75 255.62 C 242.40 253.75 243.35 255.00 241.75 254.25 C 240.15 253.50 236.06 251.79 234.12 251.12 C 232.19 250.46 232.40 250.44 230.12 250.25 C 227.85 250.06 222.38 249.81 220.50 250.00 Z" id="s-8-f-0"/>
<clipPath id="c-s-8"><use href="#s-8-f-0"/></clipPath>
<path d="M 387.75 256.00 C 387.58 255.00 387.73 254.94 386.62 253.62 C 385.52 252.31 382.85 249.58 381.12 248.12 C 379.40 246.67 379.48 246.56 376.25 244.88 C 373.02 243.19 365.08 239.48 361.75 238.00 C 358.42 236.52 357.92 236.33 356.25 236.00 C 354.58 235.67 353.46 235.81 351.75 236.00 C 350.04 236.19 350.90 235.83 346.00 237.12 C 341.10 238.42 330.15 241.81 322.38 243.75 C 314.60 245.69 306.52 247.40 299.38 248.75 C 292.23 250.10 286.08 251.02 279.50 251.88 C 272.92 252.73 265.85 253.38 259.88 253.88 C 253.90 254.38 246.50 254.62 243.62 254.88 C 240.75 255.12 242.67 255.21 242.62 255.38 C 242.58 255.54 243.19 255.54 243.38 255.88 C 243.56 256.21 243.25 256.54 243.75 257.38 C 244.25 258.21 245.56 259.60 246.38 260.88 C 247.19 262.15 248.06 264.17 248.62 265.00 C 249.19 265.83 245.17 266.10 249.75 265.88 C 254.33 265.65 261.92 265.44 276.12 263.62 C 290.33 261.81 323.40 256.62 335.00 255.00 C 346.60 253.38 343.54 254.04 345.75 253.88 C 347.96 253.71 347.56 253.83 348.25 254.00 C 348.94 254.17 349.27 254.29 349.88 254.88 C 350.48 255.46 351.42 256.56 351.88 257.50 C 352.33 258.44 352.48 258.92 352.62 260.50 C 352.77 262.08 353.04 263.04 352.75 267.00 C 352.46 270.96 351.21 280.21 350.88 284.25 C 350.54 288.29 350.94 288.40 350.75 291.25 C 350.56 294.10 350.23 297.92 349.75 301.38 C 349.27 304.83 348.38 308.10 347.88 312.00 C 347.38 315.90 346.81 321.98 346.75 324.75 C 346.69 327.52 347.12 327.44 347.50 328.62 C 347.88 329.81 348.54 331.12 349.00 331.88 C 349.46 332.62 349.75 332.79 350.25 333.12 C 350.75 333.46 351.06 333.77 352.00 333.88 C 352.94 333.98 354.69 333.96 355.88 333.75 C 357.06 333.54 358.00 333.29 359.12 332.62 C 360.25 331.96 361.52 331.00 362.62 329.75 C 363.73 328.50 364.58 327.94 365.75 325.12 C 366.92 322.31 367.25 321.38 369.62 312.88 C 372.00 304.38 377.75 281.88 380.00 274.12 C 382.25 266.38 381.85 268.79 383.12 266.38 C 384.40 263.96 386.85 261.35 387.62 259.62 C 388.40 257.90 387.92 257.00 387.75 256.00 Z" id="s-9-f-0"/>
<clipPath id="c-s-9"><use href="#s-9-f-0"/></clipPath>
<path d="M 352.25 278.25 C 351.75 277.27 351.42 277.52 349.12 277.00 C 346.83 276.48 341.31 275.46 338.50 275.12 C 335.69 274.79 337.65 274.23 332.25 275.00 C 326.85 275.77 313.62 278.48 306.12 279.75 C 298.62 281.02 295.56 281.54 287.25 282.62 C 278.94 283.71 262.08 285.52 256.25 286.25 C 250.42 286.98 253.15 286.75 252.25 287.00 C 251.35 287.25 251.12 286.60 250.88 287.75 C 250.62 288.90 250.65 292.25 250.75 293.88 C 250.85 295.50 251.23 296.81 251.50 297.50 C 251.77 298.19 251.54 297.79 252.38 298.00 C 253.21 298.21 253.60 298.62 256.50 298.75 C 259.40 298.88 261.79 299.42 269.75 298.75 C 277.71 298.08 296.06 295.77 304.25 294.75 C 312.44 293.73 315.21 293.25 318.88 292.62 C 322.54 292.00 321.38 291.65 326.25 291.00 C 331.12 290.35 343.96 289.33 348.12 288.75 C 352.29 288.17 350.58 288.48 351.25 287.50 C 351.92 286.52 351.96 284.42 352.12 282.88 C 352.29 281.33 352.75 279.23 352.25 278.25 Z" id="s-10-f-0"/>
<clipPath id="c-s-10"><use href="#s-10-f-0"/></clipPath>
<path d="M 348.25 313.38 C 348.25 311.94 349.71 313.46 347.88 312.75 C 346.04 312.04 340.40 309.75 337.25 309.12 C 334.10 308.50 337.27 307.90 329.00 309.00 C 320.73 310.10 300.31 313.94 287.62 315.75 C 274.94 317.56 258.73 319.10 252.88 319.88 C 247.02 320.65 252.56 318.27 252.50 320.38 C 252.44 322.48 252.19 330.27 252.50 332.50 C 252.81 334.73 252.54 333.54 254.38 333.75 C 256.21 333.96 252.60 334.88 263.50 333.75 C 274.40 332.62 305.79 328.52 319.75 327.00 C 333.71 325.48 342.56 325.56 347.25 324.62 C 351.94 323.69 347.71 323.25 347.88 321.38 C 348.04 319.50 348.25 314.81 348.25 313.38 Z" id="s-11-f-0"/>
<clipPath id="c-s-11"><use href="#s-11-f-0"/></clipPath>
<path d="M 440.88 353.88 C 440.71 353.08 440.46 352.33 439.75 351.38 C 439.04 350.42 437.85 349.19 436.62 348.12 C 435.40 347.06 434.04 346.02 432.38 345.00 C 430.71 343.98 429.98 343.29 426.62 342.00 C 423.27 340.71 415.44 338.25 412.25 337.25 C 409.06 336.25 408.77 336.23 407.50 336.00 C 406.23 335.77 407.08 335.71 404.62 335.88 C 402.17 336.04 396.25 336.52 392.75 337.00 C 389.25 337.48 387.77 338.12 383.62 338.75 C 379.48 339.38 373.88 340.08 367.88 340.75 C 361.88 341.42 359.62 341.88 347.62 342.75 C 335.62 343.62 308.73 345.10 295.88 346.00 C 283.02 346.90 280.35 347.17 270.50 348.12 C 260.65 349.08 249.29 350.94 236.75 351.75 C 224.21 352.56 202.94 352.48 195.25 353.00 C 187.56 353.52 191.67 354.19 190.62 354.88 C 189.58 355.56 189.29 356.40 189.00 357.12 C 188.71 357.85 188.65 358.56 188.88 359.25 C 189.10 359.94 189.73 360.62 190.38 361.25 C 191.02 361.88 190.38 361.75 192.75 363.00 C 195.12 364.25 200.48 367.15 204.62 368.75 C 208.77 370.35 214.52 371.94 217.62 372.62 C 220.73 373.31 217.46 373.62 223.25 372.88 C 229.04 372.12 242.38 369.46 252.38 368.12 C 262.38 366.79 269.35 365.92 283.25 364.88 C 297.15 363.83 322.81 362.52 335.75 361.88 C 348.69 361.23 345.12 361.21 360.88 361.00 C 376.62 360.79 417.38 361.00 430.25 360.62 C 443.12 360.25 436.38 359.50 438.12 358.75 C 439.88 358.00 440.29 356.94 440.75 356.12 C 441.21 355.31 441.04 354.67 440.88 353.88 Z" id="s-12-f-0"/>
<clipPath id="c-s-12"><use href="#s-12-f-0"/></clipPath>
<path d="M 69.50 90.75 C 68.94 91.27 68.25 92.27 68.00 93.00 C 67.75 93.73 67.21 93.75 68.00 95.12 C 68.79 96.50 70.25 97.44 72.75 101.25 C 75.25 105.06 79.79 113.00 83.00 118.00 C 86.21 123.00 89.10 127.25 92.00 131.25 C 94.90 135.25 97.96 139.08 100.38 142.00 C 102.79 144.92 104.42 146.81 106.50 148.75 C 108.58 150.69 111.04 152.48 112.88 153.62 C 114.71 154.77 115.54 155.27 117.50 155.62 C 119.46 155.98 122.83 155.90 124.62 155.75 C 126.42 155.60 127.12 155.23 128.25 154.75 C 129.38 154.27 130.42 153.62 131.38 152.88 C 132.33 152.12 133.25 151.21 134.00 150.25 C 134.75 149.29 135.27 148.67 135.88 147.12 C 136.48 145.58 137.33 144.15 137.62 141.00 C 137.92 137.85 137.77 131.10 137.62 128.25 C 137.48 125.40 137.40 125.88 136.75 123.88 C 136.10 121.88 135.25 118.81 133.75 116.25 C 132.25 113.69 129.94 110.54 127.75 108.50 C 125.56 106.46 123.19 105.40 120.62 104.00 C 118.06 102.60 115.54 101.46 112.38 100.12 C 109.21 98.79 105.02 97.19 101.62 96.00 C 98.23 94.81 95.85 93.98 92.00 93.00 C 88.15 92.02 81.94 90.65 78.50 90.12 C 75.06 89.60 72.88 89.77 71.38 89.88 C 69.88 89.98 70.06 90.23 69.50 90.75 Z" id="s-13-f-0"/>
<clipPath id="c-s-13"><use href="#s-13-f-0"/></clipPath>
<path d="M 147.38 203.00 C 144.71 201.02 139.29 197.69 136.25 195.88 C 133.21 194.06 131.71 193.25 129.12 192.12 C 126.54 191.00 122.90 189.65 120.75 189.12 C 118.60 188.60 117.44 188.83 116.25 189.00 C 115.06 189.17 115.31 189.17 113.62 190.12 C 111.94 191.08 110.04 192.65 106.12 194.75 C 102.21 196.85 95.06 200.44 90.12 202.75 C 85.19 205.06 81.58 206.62 76.50 208.62 C 71.42 210.62 65.21 213.00 59.62 214.75 C 54.04 216.50 46.65 218.08 43.00 219.12 C 39.35 220.17 39.04 220.31 37.75 221.00 C 36.46 221.69 35.73 222.50 35.25 223.25 C 34.77 224.00 34.35 224.60 34.88 225.50 C 35.40 226.40 36.94 227.77 38.38 228.62 C 39.81 229.48 41.96 230.12 43.50 230.62 C 45.04 231.12 44.29 231.44 47.62 231.62 C 50.96 231.81 59.58 231.90 63.50 231.75 C 67.42 231.60 67.81 231.35 71.12 230.75 C 74.44 230.15 80.71 228.62 83.38 228.12 C 86.04 227.62 86.23 227.94 87.12 227.75 C 88.02 227.56 86.88 227.46 88.75 227.00 C 90.62 226.54 96.25 225.31 98.38 225.00 C 100.50 224.69 100.60 224.94 101.50 225.12 C 102.40 225.31 103.21 225.73 103.75 226.12 C 104.29 226.52 104.58 227.06 104.75 227.50 C 104.92 227.94 104.94 227.96 104.75 228.75 C 104.56 229.54 106.92 224.71 103.62 232.25 C 100.33 239.79 88.08 266.92 85.00 274.00 C 81.92 281.08 84.88 274.58 85.12 274.75 C 85.38 274.92 84.06 274.96 86.50 275.00 C 88.94 275.04 97.31 275.06 99.75 275.00 C 102.19 274.94 100.35 275.42 101.12 274.62 C 101.90 273.83 99.21 276.25 104.38 270.25 C 109.54 264.25 124.50 246.83 132.12 238.62 C 139.75 230.42 146.81 224.35 150.12 221.00 C 153.44 217.65 151.40 219.50 152.00 218.50 C 152.60 217.50 153.46 216.31 153.75 215.00 C 154.04 213.69 154.00 211.83 153.75 210.62 C 153.50 209.42 153.31 209.02 152.25 207.75 C 151.19 206.48 150.04 204.98 147.38 203.00 Z" id="s-14-f-0"/>
<clipPath id="c-s-14"><use href="#s-14-f-0"/></clipPath>
<path d="M 85.25 274.62 C 82.65 274.92 84.79 275.65 84.88 276.25 C 84.96 276.85 85.12 277.42 85.75 278.25 C 86.38 279.08 87.69 280.50 88.62 281.25 C 89.56 282.00 90.60 282.17 91.38 282.75 C 92.15 283.33 91.52 282.38 93.25 284.75 C 94.98 287.12 99.50 293.46 101.75 297.00 C 104.00 300.54 105.27 302.98 106.75 306.00 C 108.23 309.02 109.60 312.40 110.62 315.12 C 111.65 317.85 112.23 319.67 112.88 322.38 C 113.52 325.08 114.19 328.21 114.50 331.38 C 114.81 334.54 114.85 338.04 114.75 341.38 C 114.65 344.71 114.10 349.48 113.88 351.38 C 113.65 353.27 112.27 352.33 113.38 352.75 C 114.48 353.17 118.65 353.69 120.50 353.88 C 122.35 354.06 123.17 354.67 124.50 353.88 C 125.83 353.08 127.31 350.92 128.50 349.12 C 129.69 347.33 130.75 345.06 131.62 343.12 C 132.50 341.19 133.08 339.90 133.75 337.50 C 134.42 335.10 135.31 332.40 135.62 328.75 C 135.94 325.10 136.12 319.48 135.62 315.62 C 135.12 311.77 133.60 308.15 132.62 305.62 C 131.65 303.10 130.73 302.04 129.75 300.50 C 128.77 298.96 128.17 298.02 126.75 296.38 C 125.33 294.73 123.10 292.35 121.25 290.62 C 119.40 288.90 118.40 287.98 115.62 286.00 C 112.85 284.02 106.90 280.33 104.62 278.75 C 102.35 277.17 102.69 277.21 102.00 276.50 C 101.31 275.79 103.29 274.81 100.50 274.50 C 97.71 274.19 87.85 274.33 85.25 274.62 Z" id="s-15-f-0"/>
<clipPath id="c-s-15"><use href="#s-15-f-0"/></clipPath>
<path d="M 26.88 358.50 C 26.73 359.42 26.81 360.71 27.00 361.75 C 27.19 362.79 27.19 363.23 28.00 364.75 C 28.81 366.27 29.67 368.35 31.88 370.88 C 34.08 373.40 38.96 377.90 41.25 379.88 C 43.54 381.85 44.04 381.96 45.62 382.75 C 47.21 383.54 48.85 384.29 50.75 384.62 C 52.65 384.96 55.40 384.92 57.00 384.75 C 58.60 384.58 58.77 384.42 60.38 383.62 C 61.98 382.83 64.46 380.94 66.62 380.00 C 68.79 379.06 70.75 378.67 73.38 378.00 C 76.00 377.33 78.56 376.67 82.38 376.00 C 86.19 375.33 91.52 374.50 96.25 374.00 C 100.98 373.50 106.33 373.17 110.75 373.00 C 115.17 372.83 119.31 372.83 122.75 373.00 C 126.19 373.17 128.27 373.50 131.38 374.00 C 134.48 374.50 137.35 374.98 141.38 376.00 C 145.40 377.02 146.38 376.77 155.50 380.12 C 164.62 383.48 180.75 389.79 196.12 396.12 C 211.50 402.46 230.15 410.35 247.75 418.12 C 265.35 425.90 289.56 437.33 301.75 442.75 C 313.94 448.17 315.27 448.46 320.88 450.62 C 326.48 452.79 330.88 454.40 335.38 455.75 C 339.88 457.10 344.35 458.25 347.88 458.75 C 351.40 459.25 353.12 459.10 356.50 458.75 C 359.88 458.40 363.19 457.79 368.12 456.62 C 373.06 455.46 378.92 453.94 386.12 451.75 C 393.33 449.56 404.44 445.92 411.38 443.50 C 418.31 441.08 422.79 439.04 427.75 437.25 C 432.71 435.46 436.42 434.50 441.12 432.75 C 445.83 431.00 451.71 428.73 456.00 426.75 C 460.29 424.77 464.54 422.27 466.88 420.88 C 469.21 419.48 469.17 419.25 470.00 418.38 C 470.83 417.50 471.56 416.29 471.88 415.62 C 472.19 414.96 472.17 414.81 471.88 414.38 C 471.58 413.94 471.35 413.40 470.12 413.00 C 468.90 412.60 475.35 412.54 464.50 412.00 C 453.65 411.46 423.06 410.62 405.00 409.75 C 386.94 408.88 371.54 407.94 356.12 406.75 C 340.71 405.56 325.15 404.12 312.50 402.62 C 299.85 401.12 290.81 399.73 280.25 397.75 C 269.69 395.77 258.92 393.25 249.12 390.75 C 239.33 388.25 232.06 386.08 221.50 382.75 C 210.94 379.42 196.50 374.54 185.75 370.75 C 175.00 366.96 163.44 362.27 157.00 360.00 C 150.56 357.73 150.38 357.96 147.12 357.12 C 143.88 356.29 141.19 355.56 137.50 355.00 C 133.81 354.44 127.83 354.12 125.00 353.75 C 122.17 353.38 122.31 352.96 120.50 352.75 C 118.69 352.54 123.88 351.83 114.12 352.50 C 104.38 353.17 72.81 356.06 62.00 356.75 C 51.19 357.44 53.40 356.92 49.25 356.62 C 45.10 356.33 40.29 355.27 37.12 355.00 C 33.96 354.73 31.79 354.79 30.25 355.00 C 28.71 355.21 28.44 355.67 27.88 356.25 C 27.31 356.83 27.02 357.58 26.88 358.50 Z" id="s-16-f-0"/>
<clipPath id="c-s-16"><use href="#s-16-f-0"/></clipPath>
</defs>
<g id="s-0" clip-path="url(#c-s-0)">
<use href="#s-0-f-0"/>
</g>
<g id="s-1" clip-path="url(#c-s-1)">
<use href="#s-1-f-0"/>
<path d="M 413.88 73.25 C 413.29 70.38 413.46 72.21 410.50 71.00 C 407.54 69.79 399.46 66.83 396.12 66.00 C 392.79 65.17 392.65 65.81 390.50 66.00 C 388.35 66.19 388.54 66.02 383.25 67.12 C 377.96 68.23 370.83 70.38 358.75 72.62 C 346.67 74.88 319.50 79.29 310.75 80.62 C 302.00 81.96 307.31 80.50 306.25 80.62 C 305.19 80.75 306.98 80.85 304.38 81.38 C 301.77 81.90 293.27 83.19 290.62 83.75 C 287.98 84.31 307.21 82.02 288.50 84.75 C 269.79 87.48 197.33 97.33 178.38 100.12 C 159.42 102.92 175.48 101.10 174.75 101.50 C 174.02 101.90 174.15 102.12 174.00 102.50 C 173.85 102.88 173.71 103.15 173.88 103.75 C 174.04 104.35 174.31 105.29 175.00 106.12 C 175.69 106.96 175.73 107.48 178.00 108.75 C 180.27 110.02 185.85 112.58 188.62 113.75 C 191.40 114.92 192.75 115.25 194.62 115.75 C 196.50 116.25 197.85 116.58 199.88 116.75 C 201.90 116.92 203.83 117.21 206.75 116.75 C 209.67 116.29 210.69 115.48 217.38 114.00 C 224.06 112.52 235.08 110.04 246.88 107.88 C 258.67 105.71 269.40 103.48 288.12 101.00 C 306.85 98.52 343.00 94.67 359.25 93.00 C 375.50 91.33 376.58 91.54 385.62 91.00 C 394.67 90.46 408.77 90.21 413.50 89.75 C 418.23 89.29 413.94 91.00 414.00 88.25 C 414.06 85.50 414.46 76.12 413.88 73.25 Z" id="s-1-f-1"/>
<path d="M 365.88 71.75 C 365.73 68.50 366.31 70.98 365.12 71.12 C 363.94 71.27 367.81 71.04 358.75 72.62 C 349.69 74.21 319.50 79.29 310.75 80.62 C 302.00 81.96 307.31 80.50 306.25 80.62 C 305.19 80.75 306.98 80.85 304.38 81.38 C 301.77 81.90 293.27 83.19 290.62 83.75 C 287.98 84.31 307.08 82.04 288.50 84.75 C 269.92 87.46 197.98 97.29 179.12 100.00 C 160.27 102.71 176.21 100.62 175.38 101.00 C 174.54 101.38 174.38 101.79 174.12 102.25 C 173.88 102.71 173.73 103.10 173.88 103.75 C 174.02 104.40 174.31 105.29 175.00 106.12 C 175.69 106.96 175.73 107.48 178.00 108.75 C 180.27 110.02 185.85 112.58 188.62 113.75 C 191.40 114.92 192.88 115.27 194.62 115.75 C 196.38 116.23 197.31 116.44 199.12 116.62 C 200.94 116.81 197.54 118.33 205.50 116.88 C 213.46 115.42 234.23 110.35 246.88 107.88 C 259.52 105.40 266.00 104.15 281.38 102.00 C 296.75 99.85 325.27 96.54 339.12 95.00 C 352.98 93.46 360.06 93.21 364.50 92.75 C 368.94 92.29 365.50 92.60 365.75 92.25 C 366.00 91.90 365.98 94.04 366.00 90.62 C 366.02 87.21 366.02 75.00 365.88 71.75 Z" id="s-1-f-2"/>
<path d="M 318.00 81.00 C 317.98 78.10 317.90 80.15 317.75 79.88 C 317.60 79.60 318.29 79.25 317.12 79.38 C 315.96 79.50 312.56 80.42 310.75 80.62 C 308.94 80.83 307.31 80.50 306.25 80.62 C 305.19 80.75 306.98 80.85 304.38 81.38 C 301.77 81.90 293.27 83.19 290.62 83.75 C 287.98 84.31 306.17 82.19 288.50 84.75 C 270.83 87.31 203.48 96.42 184.62 99.12 C 165.77 101.83 177.12 100.48 175.38 101.00 C 173.62 101.52 174.38 101.79 174.12 102.25 C 173.88 102.71 173.73 103.10 173.88 103.75 C 174.02 104.40 174.31 105.29 175.00 106.12 C 175.69 106.96 175.35 107.33 178.00 108.75 C 180.65 110.17 187.23 113.29 190.88 114.62 C 194.52 115.96 197.08 116.42 199.88 116.75 C 202.67 117.08 204.71 117.08 207.62 116.62 C 210.54 116.17 212.58 115.10 217.38 114.00 C 222.17 112.90 227.88 111.67 236.38 110.00 C 244.88 108.33 259.75 105.50 268.38 104.00 C 277.00 102.50 279.96 102.04 288.12 101.00 C 296.29 99.96 312.42 98.38 317.38 97.75 C 322.33 97.12 317.77 100.04 317.88 97.25 C 317.98 94.46 318.02 83.90 318.00 81.00 Z" id="s-1-f-3"/>
<path d="M 269.88 88.00 C 269.77 85.50 274.06 87.02 269.38 87.62 C 264.69 88.23 256.79 89.56 241.75 91.62 C 226.71 93.69 190.19 98.44 179.12 100.00 C 168.06 101.56 176.21 100.62 175.38 101.00 C 174.54 101.38 174.38 101.79 174.12 102.25 C 173.88 102.71 173.73 103.10 173.88 103.75 C 174.02 104.40 174.31 105.29 175.00 106.12 C 175.69 106.96 175.35 107.33 178.00 108.75 C 180.65 110.17 187.23 113.29 190.88 114.62 C 194.52 115.96 197.08 116.42 199.88 116.75 C 202.67 117.08 204.71 117.08 207.62 116.62 C 210.54 116.17 212.58 115.10 217.38 114.00 C 222.17 112.90 227.69 111.69 236.38 110.00 C 245.06 108.31 263.90 105.10 269.50 103.88 C 275.10 102.65 269.94 105.27 270.00 102.62 C 270.06 99.98 269.98 90.50 269.88 88.00 Z" id="s-1-f-4"/>
<path d="M 222.00 96.00 C 222.00 92.98 221.94 95.04 221.75 94.75 C 221.56 94.46 227.98 93.38 220.88 94.25 C 213.77 95.12 186.71 98.88 179.12 100.00 C 171.54 101.12 176.21 100.62 175.38 101.00 C 174.54 101.38 174.38 101.79 174.12 102.25 C 173.88 102.71 173.73 103.10 173.88 103.75 C 174.02 104.40 174.31 105.29 175.00 106.12 C 175.69 106.96 175.35 107.33 178.00 108.75 C 180.65 110.17 187.23 113.29 190.88 114.62 C 194.52 115.96 197.08 116.42 199.88 116.75 C 202.67 117.08 204.23 117.15 207.62 116.62 C 211.02 116.10 217.90 114.25 220.25 113.62 C 222.60 113.00 221.46 115.81 221.75 112.88 C 222.04 109.94 222.00 99.02 222.00 96.00 Z" id="s-1-f-5"/>
</g>
<g id="s-2" clip-path="url(#c-s-2)">
<use href="#s-2-f-0"/>
<path d="M 195.62 133.38 C 194.88 133.88 193.81 134.96 193.38 135.88 C 192.94 136.79 192.00 137.44 193.00 138.88 C 194.00 140.31 197.58 142.60 199.38 144.50 C 201.17 146.40 202.69 148.60 203.75 150.25 C 204.81 151.90 204.92 152.02 205.75 154.38 C 206.58 156.73 207.44 158.88 208.75 164.38 C 210.06 169.88 212.04 178.04 213.62 187.38 C 215.21 196.71 217.15 213.73 218.25 220.38 C 219.35 227.02 219.75 225.83 220.25 227.25 C 220.75 228.67 220.92 228.58 221.25 228.88 C 221.58 229.17 219.79 229.00 222.25 229.00 C 224.71 229.00 233.58 229.15 236.00 228.88 C 238.42 228.60 236.42 228.94 236.75 227.38 C 237.08 225.81 237.85 222.60 238.00 219.50 C 238.15 216.40 238.19 214.71 237.62 208.75 C 237.06 202.79 235.71 191.25 234.62 183.75 C 233.54 176.25 231.94 169.75 231.12 163.75 C 230.31 157.75 231.96 152.40 229.75 147.75 C 227.54 143.10 220.71 138.15 217.88 135.88 C 215.04 133.60 214.54 134.58 212.75 134.12 C 210.96 133.67 209.60 133.33 207.12 133.12 C 204.65 132.92 199.79 132.83 197.88 132.88 C 195.96 132.92 196.38 132.88 195.62 133.38 Z" id="s-2-f-1"/>
<path d="M 194.88 133.88 C 194.06 134.52 193.31 135.92 193.00 136.75 C 192.69 137.58 192.46 138.10 193.00 138.88 C 193.54 139.65 194.77 139.94 196.25 141.38 C 197.73 142.81 200.29 145.33 201.88 147.50 C 203.46 149.67 204.44 150.88 205.75 154.38 C 207.06 157.88 208.71 164.17 209.75 168.50 C 210.79 172.83 211.27 178.29 212.00 180.38 C 212.73 182.46 210.71 180.94 214.12 181.00 C 217.54 181.06 229.23 180.85 232.50 180.75 C 235.77 180.65 233.54 180.81 233.75 180.38 C 233.96 179.94 234.19 180.90 233.75 178.12 C 233.31 175.35 231.77 168.75 231.12 163.75 C 230.48 158.75 230.19 150.92 229.88 148.12 C 229.56 145.33 231.08 148.94 229.25 147.00 C 227.42 145.06 221.15 138.50 218.88 136.50 C 216.60 134.50 217.83 135.58 215.62 135.00 C 213.42 134.42 208.58 133.35 205.62 133.00 C 202.67 132.65 199.67 132.73 197.88 132.88 C 196.08 133.02 195.69 133.23 194.88 133.88 Z" id="s-2-f-2"/>
</g>
<g id="s-3" clip-path="url(#c-s-3)">
<use href="#s-3-f-0"/>
<path d="M 413.88 130.00 C 413.69 129.10 413.25 128.02 412.50 127.00 C 411.75 125.98 410.56 124.90 409.38 123.88 C 408.19 122.85 406.88 121.85 405.38 120.88 C 403.88 119.90 404.48 119.98 400.38 118.00 C 396.27 116.02 384.94 110.81 380.75 109.00 C 376.56 107.19 376.77 107.48 375.25 107.12 C 373.73 106.77 372.83 106.88 371.62 106.88 C 370.42 106.88 370.19 106.75 368.00 107.12 C 365.81 107.50 367.06 106.71 358.50 109.12 C 349.94 111.54 328.19 118.52 316.62 121.62 C 305.06 124.73 296.50 126.25 289.12 127.75 C 281.75 129.25 277.83 129.79 272.38 130.62 C 266.92 131.46 262.62 132.04 256.38 132.75 C 250.12 133.46 240.23 134.46 234.88 134.88 C 229.52 135.29 226.96 135.08 224.25 135.25 C 221.54 135.42 219.73 135.67 218.62 135.88 C 217.52 136.08 215.85 134.46 217.62 136.50 C 219.40 138.54 222.58 146.58 229.25 148.12 C 235.92 149.67 250.58 146.50 257.62 145.75 C 264.67 145.00 261.31 145.58 271.50 143.62 C 281.69 141.67 305.21 136.60 318.75 134.00 C 332.29 131.40 345.60 129.17 352.75 128.00 C 359.90 126.83 359.71 127.17 361.62 127.00 C 363.54 126.83 363.38 126.85 364.25 127.00 C 365.12 127.15 366.10 127.46 366.88 127.88 C 367.65 128.29 368.40 129.00 368.88 129.50 C 369.35 130.00 369.44 129.98 369.75 130.88 C 370.06 131.77 370.62 132.56 370.75 134.88 C 370.88 137.19 370.67 141.98 370.50 144.75 C 370.33 147.52 370.25 148.31 369.75 151.50 C 369.25 154.69 368.67 158.67 367.50 163.88 C 366.33 169.08 364.40 176.98 362.75 182.75 C 361.10 188.52 358.94 194.90 357.62 198.50 C 356.31 202.10 355.35 202.10 354.88 204.38 C 354.40 206.65 354.71 210.71 354.75 212.12 C 354.79 213.54 351.42 212.73 355.12 212.88 C 358.83 213.02 373.10 213.00 377.00 213.00 C 380.90 213.00 378.06 213.25 378.50 212.88 C 378.94 212.50 375.71 221.27 379.62 210.75 C 383.54 200.23 397.40 161.52 402.00 149.75 C 406.60 137.98 405.31 143.02 407.25 140.12 C 409.19 137.23 412.52 134.06 413.62 132.38 C 414.73 130.69 414.06 130.90 413.88 130.00 Z" id="s-3-f-1"/>
<path d="M 413.88 130.00 C 413.69 129.10 413.25 128.02 412.50 127.00 C 411.75 125.98 410.56 124.90 409.38 123.88 C 408.19 122.85 406.88 121.85 405.38 120.88 C 403.88 119.90 404.48 119.98 400.38 118.00 C 396.27 116.02 384.94 110.81 380.75 109.00 C 376.56 107.19 376.77 107.48 375.25 107.12 C 373.73 106.77 372.83 106.88 371.62 106.88 C 370.42 106.88 370.19 106.75 368.00 107.12 C 365.81 107.50 367.06 106.71 358.50 109.12 C 349.94 111.54 328.19 118.52 316.62 121.62 C 305.06 124.73 296.50 126.25 289.12 127.75 C 281.75 129.25 277.83 129.79 272.38 130.62 C 266.92 131.46 262.62 132.04 256.38 132.75 C 250.12 133.46 240.23 134.46 234.88 134.88 C 229.52 135.29 226.96 135.08 224.25 135.25 C 221.54 135.42 219.73 135.67 218.62 135.88 C 217.52 136.08 215.85 134.46 217.62 136.50 C 219.40 138.54 225.88 146.27 229.25 148.12 C 232.62 149.98 233.15 148.02 237.88 147.62 C 242.60 147.23 252.02 146.42 257.62 145.75 C 263.23 145.08 265.71 144.73 271.50 143.62 C 277.29 142.52 280.85 141.40 292.38 139.12 C 303.90 136.85 330.56 131.85 340.62 130.00 C 350.69 128.15 348.81 128.50 352.75 128.00 C 356.69 127.50 361.90 127.02 364.25 127.00 C 366.60 126.98 366.10 127.46 366.88 127.88 C 367.65 128.29 368.40 129.00 368.88 129.50 C 369.35 130.00 369.44 129.98 369.75 130.88 C 370.06 131.77 370.62 132.56 370.75 134.88 C 370.88 137.19 370.83 140.98 370.50 144.75 C 370.17 148.52 369.29 154.31 368.75 157.50 C 368.21 160.69 367.46 162.67 367.25 163.88 C 367.04 165.08 363.04 164.56 367.50 164.75 C 371.96 164.94 389.15 165.04 394.00 165.00 C 398.85 164.96 395.46 166.65 396.62 164.50 C 397.79 162.35 399.79 155.25 401.00 152.12 C 402.21 149.00 402.83 147.75 403.88 145.75 C 404.92 143.75 405.62 142.35 407.25 140.12 C 408.88 137.90 412.52 134.06 413.62 132.38 C 414.73 130.69 414.06 130.90 413.88 130.00 Z" id="s-3-f-2"/>
<path d="M 397.12 116.38 C 395.58 115.52 391.52 113.54 387.88 112.00 C 384.23 110.46 378.56 107.94 375.25 107.12 C 371.94 106.31 371.44 106.62 368.00 107.12 C 364.56 107.62 359.69 108.71 354.62 110.12 C 349.56 111.54 343.96 113.71 337.62 115.62 C 331.29 117.54 324.71 119.60 316.62 121.62 C 308.54 123.65 296.50 126.25 289.12 127.75 C 281.75 129.25 277.83 129.79 272.38 130.62 C 266.92 131.46 262.62 132.04 256.38 132.75 C 250.12 133.46 240.23 134.46 234.88 134.88 C 229.52 135.29 226.96 135.08 224.25 135.25 C 221.54 135.42 219.73 135.67 218.62 135.88 C 217.52 136.08 215.85 134.46 217.62 136.50 C 219.40 138.54 222.58 146.58 229.25 148.12 C 235.92 149.67 249.81 146.65 257.62 145.75 C 265.44 144.85 271.17 143.69 276.12 142.75 C 281.08 141.81 278.62 141.90 287.38 140.12 C 296.12 138.35 317.73 134.15 328.62 132.12 C 339.52 130.10 346.85 128.90 352.75 128.00 C 358.65 127.10 356.73 128.46 364.00 126.75 C 371.27 125.04 390.85 119.35 396.38 117.75 C 401.90 116.15 397.00 117.35 397.12 117.12 C 397.25 116.90 398.67 117.23 397.12 116.38 Z" id="s-3-f-3"/>
<path d="M 361.88 109.12 C 361.71 106.17 362.21 108.46 361.00 108.62 C 359.79 108.79 358.52 108.96 354.62 110.12 C 350.73 111.29 343.96 113.71 337.62 115.62 C 331.29 117.54 324.71 119.60 316.62 121.62 C 308.54 123.65 296.50 126.25 289.12 127.75 C 281.75 129.25 277.83 129.79 272.38 130.62 C 266.92 131.46 262.65 132.04 256.38 132.75 C 250.10 133.46 240.10 134.46 234.75 134.88 C 229.40 135.29 226.94 135.08 224.25 135.25 C 221.56 135.42 219.73 135.67 218.62 135.88 C 217.52 136.08 215.88 134.48 217.62 136.50 C 219.38 138.52 225.75 146.15 229.12 148.00 C 232.50 149.85 233.12 148.00 237.88 147.62 C 242.62 147.25 252.06 146.42 257.62 145.75 C 263.19 145.08 262.90 145.23 271.25 143.62 C 279.60 142.02 298.33 137.96 307.75 136.12 C 317.17 134.29 324.27 133.29 327.75 132.62 C 331.23 131.96 324.46 132.90 328.62 132.12 C 332.79 131.35 347.29 128.85 352.75 128.00 C 358.21 127.15 359.83 127.27 361.38 127.00 C 362.92 126.73 361.92 129.35 362.00 126.38 C 362.08 123.40 362.04 112.08 361.88 109.12 Z" id="s-3-f-4"/>
<path d="M 313.88 122.75 C 313.69 120.73 317.00 121.54 312.88 122.38 C 308.75 123.21 297.21 126.19 289.12 127.75 C 281.04 129.31 273.19 130.58 264.38 131.75 C 255.56 132.92 242.94 134.17 236.25 134.75 C 229.56 135.33 227.19 135.06 224.25 135.25 C 221.31 135.44 219.73 135.67 218.62 135.88 C 217.52 136.08 215.88 134.48 217.62 136.50 C 219.38 138.52 225.48 146.17 229.12 148.00 C 232.77 149.83 234.75 147.88 239.50 147.50 C 244.25 147.12 251.52 146.54 257.62 145.75 C 263.73 144.96 271.17 143.69 276.12 142.75 C 281.08 141.81 281.23 141.38 287.38 140.12 C 293.52 138.88 308.56 136.19 313.00 135.25 C 317.44 134.31 313.85 136.58 314.00 134.50 C 314.15 132.42 314.06 124.77 313.88 122.75 Z" id="s-3-f-5"/>
<path d="M 265.88 143.88 C 266.00 141.92 266.08 134.92 266.00 132.88 C 265.92 130.83 270.33 131.31 265.38 131.62 C 260.42 131.94 243.10 134.15 236.25 134.75 C 229.40 135.35 227.19 135.06 224.25 135.25 C 221.31 135.44 219.73 135.67 218.62 135.88 C 217.52 136.08 215.88 134.48 217.62 136.50 C 219.38 138.52 225.48 146.17 229.12 148.00 C 232.77 149.83 234.75 147.88 239.50 147.50 C 244.25 147.12 253.33 146.23 257.62 145.75 C 261.92 145.27 263.88 144.94 265.25 144.62 C 266.62 144.31 265.75 145.83 265.88 143.88 Z" id="s-3-f-6"/>
</g>
<g id="s-4" clip-path="url(#c-s-4)">
<use href="#s-4-f-0"/>
<path d="M 249.88 156.12 C 248.35 156.35 248.71 157.00 248.38 157.50 C 248.04 158.00 247.88 158.69 247.88 159.12 C 247.88 159.56 247.81 159.62 248.38 160.12 C 248.94 160.62 250.44 161.40 251.25 162.12 C 252.06 162.85 252.48 163.12 253.25 164.50 C 254.02 165.88 254.96 167.73 255.88 170.38 C 256.79 173.02 257.90 176.19 258.75 180.38 C 259.60 184.56 260.48 192.52 261.00 195.50 C 261.52 198.48 261.17 196.88 261.88 198.25 C 262.58 199.62 263.46 202.81 265.25 203.75 C 267.04 204.69 271.21 204.19 272.62 203.88 C 274.04 203.56 273.52 202.75 273.75 201.88 C 273.98 201.00 274.00 202.25 274.00 198.62 C 274.00 195.00 273.94 185.17 273.75 180.12 C 273.56 175.08 273.73 171.62 272.88 168.38 C 272.02 165.12 269.67 162.17 268.62 160.62 C 267.58 159.08 268.48 159.88 266.62 159.12 C 264.77 158.38 260.29 156.62 257.50 156.12 C 254.71 155.62 251.40 155.90 249.88 156.12 Z" id="s-4-f-1"/>
</g>
<g id="s-5" clip-path="url(#c-s-5)">
<use href="#s-5-f-0"/>
<path d="M 334.25 154.38 C 332.12 153.19 323.81 149.06 321.25 148.00 C 318.69 146.94 320.71 147.54 318.88 148.00 C 317.04 148.46 314.54 149.62 310.25 150.75 C 305.96 151.88 299.75 153.35 293.12 154.75 C 286.50 156.15 274.75 158.19 270.50 159.12 C 266.25 160.06 267.40 158.85 267.62 160.38 C 267.85 161.90 271.04 166.83 271.88 168.25 C 272.71 169.67 272.35 168.77 272.62 168.88 C 272.90 168.98 271.73 169.35 273.50 168.88 C 275.27 168.40 279.29 166.98 283.25 166.00 C 287.21 165.02 293.06 163.69 297.25 163.00 C 301.44 162.31 302.48 163.06 308.38 161.88 C 314.27 160.69 328.35 157.00 332.62 155.88 C 336.90 154.75 333.73 155.38 334.00 155.12 C 334.27 154.88 336.38 155.56 334.25 154.38 Z" id="s-5-f-1"/>
<path d="M 315.88 149.62 C 315.75 147.88 318.92 148.40 315.12 149.25 C 311.33 150.10 300.60 153.10 293.12 154.75 C 285.65 156.40 274.50 158.19 270.25 159.12 C 266.00 160.06 267.40 158.92 267.62 160.38 C 267.85 161.83 270.79 166.46 271.62 167.88 C 272.46 169.29 270.69 169.19 272.62 168.88 C 274.56 168.56 279.15 166.98 283.25 166.00 C 287.35 165.02 293.06 163.69 297.25 163.00 C 301.44 162.31 305.69 162.23 308.38 161.88 C 311.06 161.52 312.12 161.23 313.38 160.88 C 314.62 160.52 315.46 161.62 315.88 159.75 C 316.29 157.88 316.00 151.38 315.88 149.62 Z" id="s-5-f-2"/>
</g>
<g id="s-6" clip-path="url(#c-s-6)">
<use href="#s-6-f-0"/>
<path d="M 322.00 183.50 C 321.71 181.94 321.40 182.94 320.25 182.75 C 319.10 182.56 316.27 182.56 315.12 182.38 C 313.98 182.19 314.21 181.75 313.38 181.62 C 312.54 181.50 314.29 180.79 310.12 181.62 C 305.96 182.46 294.33 185.44 288.38 186.62 C 282.42 187.81 276.85 188.31 274.38 188.75 C 271.90 189.19 273.65 187.62 273.50 189.25 C 273.35 190.88 273.23 196.90 273.50 198.50 C 273.77 200.10 273.56 198.85 275.12 198.88 C 276.69 198.90 277.46 199.19 282.88 198.62 C 288.29 198.06 302.21 196.29 307.62 195.50 C 313.04 194.71 313.08 194.25 315.38 193.88 C 317.67 193.50 320.27 193.54 321.38 193.25 C 322.48 192.96 321.90 193.75 322.00 192.12 C 322.10 190.50 322.29 185.06 322.00 183.50 Z" id="s-6-f-1"/>
</g>
<g id="s-7" clip-path="url(#c-s-7)">
<use href="#s-7-f-0"/>
<path d="M 331.88 204.75 C 331.69 202.58 332.81 204.15 330.88 204.38 C 328.94 204.60 325.67 205.08 320.25 206.12 C 314.83 207.17 305.40 209.35 298.38 210.62 C 291.35 211.90 288.25 212.54 278.12 213.75 C 268.00 214.96 244.54 216.62 237.62 217.88 C 230.71 219.12 236.83 219.96 236.62 221.25 C 236.42 222.54 236.54 224.58 236.38 225.62 C 236.21 226.67 235.73 226.67 235.62 227.50 C 235.52 228.33 235.19 229.92 235.75 230.62 C 236.31 231.33 236.04 231.58 239.00 231.75 C 241.96 231.92 238.10 233.08 253.50 231.62 C 268.90 230.17 318.29 225.38 331.38 223.00 C 344.46 220.62 331.92 220.42 332.00 217.38 C 332.08 214.33 332.06 206.92 331.88 204.75 Z" id="s-7-f-1"/>
<path d="M 284.00 213.38 C 283.77 211.06 286.38 212.48 282.62 212.88 C 278.88 213.27 269.00 214.92 261.50 215.75 C 254.00 216.58 241.77 216.96 237.62 217.88 C 233.48 218.79 236.83 219.96 236.62 221.25 C 236.42 222.54 236.54 224.58 236.38 225.62 C 236.21 226.67 235.73 226.67 235.62 227.50 C 235.52 228.33 235.19 229.92 235.75 230.62 C 236.31 231.33 236.42 231.56 239.00 231.75 C 241.58 231.94 243.85 232.31 251.25 231.75 C 258.65 231.19 277.92 229.21 283.38 228.38 C 288.83 227.54 283.90 229.25 284.00 226.75 C 284.10 224.25 284.23 215.69 284.00 213.38 Z" id="s-7-f-2"/>
</g>
<g id="s-8" clip-path="url(#c-s-8)">
<use href="#s-8-f-0"/>
<path d="M 220.50 250.00 C 218.94 250.23 219.27 250.92 218.88 251.38 C 218.48 251.83 218.29 252.08 218.12 252.75 C 217.96 253.42 217.04 254.02 217.88 255.38 C 218.71 256.73 221.67 258.90 223.12 260.88 C 224.58 262.85 225.38 263.83 226.62 267.25 C 227.88 270.67 229.58 276.35 230.62 281.38 C 231.67 286.40 231.52 294.60 232.88 297.38 C 234.23 300.15 235.62 297.92 238.75 298.00 C 241.88 298.08 249.42 298.19 251.62 297.88 C 253.83 297.56 252.27 299.81 252.00 296.12 C 251.73 292.44 250.35 280.85 250.00 275.75 C 249.65 270.65 250.90 268.81 249.88 265.50 C 248.85 262.19 245.23 257.75 243.88 255.88 C 242.52 254.00 243.38 255.04 241.75 254.25 C 240.12 253.46 236.38 251.83 234.12 251.12 C 231.88 250.42 230.52 250.19 228.25 250.00 C 225.98 249.81 222.06 249.77 220.50 250.00 Z" id="s-8-f-1"/>
</g>
<g id="s-9" clip-path="url(#c-s-9)">
<use href="#s-9-f-0"/>
<path d="M 387.88 258.75 C 388.81 256.67 387.98 256.75 387.75 255.88 C 387.52 255.00 387.58 254.77 386.50 253.50 C 385.42 252.23 382.96 249.69 381.25 248.25 C 379.54 246.81 379.50 246.58 376.25 244.88 C 373.00 243.17 365.08 239.48 361.75 238.00 C 358.42 236.52 357.92 236.33 356.25 236.00 C 354.58 235.67 353.46 235.81 351.75 236.00 C 350.04 236.19 350.90 235.83 346.00 237.12 C 341.10 238.42 330.15 241.81 322.38 243.75 C 314.60 245.69 306.48 247.40 299.38 248.75 C 292.27 250.10 286.33 251.02 279.75 251.88 C 273.17 252.73 265.90 253.38 259.88 253.88 C 253.85 254.38 246.50 254.62 243.62 254.88 C 240.75 255.12 242.67 255.21 242.62 255.38 C 242.58 255.54 243.19 255.54 243.38 255.88 C 243.56 256.21 243.25 256.54 243.75 257.38 C 244.25 258.21 245.56 259.60 246.38 260.88 C 247.19 262.15 248.06 264.17 248.62 265.00 C 249.19 265.83 245.33 266.08 249.75 265.88 C 254.17 265.67 262.23 265.40 275.12 263.75 C 288.02 262.10 315.83 257.60 327.12 256.00 C 338.42 254.40 339.35 254.46 342.88 254.12 C 346.40 253.79 347.00 253.81 348.25 254.00 C 349.50 254.19 349.83 254.79 350.38 255.25 C 350.92 255.71 351.10 255.71 351.50 256.75 C 351.90 257.79 352.56 259.35 352.75 261.50 C 352.94 263.65 352.94 265.83 352.62 269.62 C 352.31 273.42 351.21 280.58 350.88 284.25 C 350.54 287.92 350.62 290.21 350.62 291.62 C 350.62 293.04 350.56 292.52 350.88 292.75 C 351.19 292.98 349.73 292.96 352.50 293.00 C 355.27 293.04 363.77 293.08 367.50 293.00 C 371.23 292.92 372.96 295.10 374.88 292.50 C 376.79 289.90 377.79 281.40 379.00 277.38 C 380.21 273.35 380.65 271.48 382.12 268.38 C 383.60 265.27 386.94 260.83 387.88 258.75 Z" id="s-9-f-1"/>
<path d="M 375.00 244.38 C 372.02 242.81 360.88 237.52 357.00 236.12 C 353.12 234.73 353.58 235.83 351.75 236.00 C 349.92 236.17 350.90 235.83 346.00 237.12 C 341.10 238.42 330.15 241.81 322.38 243.75 C 314.60 245.69 306.50 247.40 299.38 248.75 C 292.25 250.10 286.21 251.02 279.62 251.88 C 273.04 252.73 265.88 253.38 259.88 253.88 C 253.88 254.38 246.50 254.62 243.62 254.88 C 240.75 255.12 242.67 255.21 242.62 255.38 C 242.58 255.54 243.19 255.54 243.38 255.88 C 243.56 256.21 242.73 255.73 243.75 257.38 C 244.77 259.02 247.08 264.40 249.50 265.75 C 251.92 267.10 253.81 265.85 258.25 265.50 C 262.69 265.15 264.65 265.21 276.12 263.62 C 287.60 262.04 315.08 257.67 327.12 256.00 C 339.17 254.33 340.42 255.38 348.38 253.62 C 356.33 251.88 370.44 247.04 374.88 245.50 C 379.31 243.96 377.98 245.94 375.00 244.38 Z" id="s-9-f-2"/>
<path d="M 338.88 239.75 C 338.73 237.42 340.88 238.58 338.12 239.25 C 335.38 239.92 327.15 242.50 322.38 243.75 C 317.60 245.00 315.31 245.58 309.50 246.75 C 303.69 247.92 293.98 249.73 287.50 250.75 C 281.02 251.77 277.94 252.19 270.62 252.88 C 263.31 253.56 248.29 254.46 243.62 254.88 C 238.96 255.29 242.67 255.21 242.62 255.38 C 242.58 255.54 243.19 255.54 243.38 255.88 C 243.56 256.21 243.25 256.54 243.75 257.38 C 244.25 258.21 245.54 259.56 246.38 260.88 C 247.21 262.19 248.21 264.42 248.75 265.25 C 249.29 266.08 245.04 266.15 249.62 265.88 C 254.21 265.60 268.02 264.60 276.25 263.62 C 284.48 262.65 288.62 261.48 299.00 260.00 C 309.38 258.52 331.83 255.88 338.50 254.75 C 345.17 253.62 338.94 255.75 339.00 253.25 C 339.06 250.75 339.02 242.08 338.88 239.75 Z" id="s-9-f-3"/>
<path d="M 291.00 260.00 C 291.12 258.31 291.10 253.02 291.00 251.38 C 290.90 249.73 293.77 249.88 290.38 250.12 C 286.98 250.38 278.44 252.08 270.62 252.88 C 262.81 253.67 248.17 254.46 243.50 254.88 C 238.83 255.29 241.75 253.65 242.62 255.38 C 243.50 257.10 247.58 263.50 248.75 265.25 C 249.92 267.00 246.65 265.96 249.62 265.88 C 252.60 265.79 259.85 265.48 266.62 264.75 C 273.40 264.02 286.19 262.29 290.25 261.50 C 294.31 260.71 290.88 261.69 291.00 260.00 Z" id="s-9-f-4"/>
</g>
<g id="s-10" clip-path="url(#c-s-10)">
<use href="#s-10-f-0"/>
<path d="M 347.00 277.38 C 346.94 275.31 347.67 276.88 346.25 276.50 C 344.83 276.12 340.83 275.38 338.50 275.12 C 336.17 274.88 337.65 274.23 332.25 275.00 C 326.85 275.77 313.62 278.48 306.12 279.75 C 298.62 281.02 295.56 281.54 287.25 282.62 C 278.94 283.71 262.08 285.52 256.25 286.25 C 250.42 286.98 253.15 286.75 252.25 287.00 C 251.35 287.25 251.12 286.60 250.88 287.75 C 250.62 288.90 250.65 292.25 250.75 293.88 C 250.85 295.50 251.23 296.81 251.50 297.50 C 251.77 298.19 251.54 297.79 252.38 298.00 C 253.21 298.21 253.60 298.62 256.50 298.75 C 259.40 298.88 264.25 299.08 269.75 298.75 C 275.25 298.42 281.44 297.75 289.50 296.75 C 297.56 295.75 312.00 293.71 318.12 292.75 C 324.25 291.79 321.50 291.65 326.25 291.00 C 331.00 290.35 343.17 291.15 346.62 288.88 C 350.08 286.60 347.06 279.44 347.00 277.38 Z" id="s-10-f-1"/>
<path d="M 298.38 281.00 C 290.58 279.85 260.17 285.88 252.25 287.00 C 244.33 288.12 251.15 286.77 250.88 287.75 C 250.60 288.73 250.52 291.25 250.62 292.88 C 250.73 294.50 250.54 296.52 251.50 297.50 C 252.46 298.48 253.44 298.54 256.38 298.75 C 259.31 298.96 262.12 299.29 269.12 298.75 C 276.12 298.21 293.40 296.31 298.38 295.50 C 303.35 294.69 299.00 296.29 299.00 293.88 C 299.00 291.46 306.17 282.15 298.38 281.00 Z" id="s-10-f-2"/>
</g>
<g id="s-11" clip-path="url(#c-s-11)">
<use href="#s-11-f-0"/>
<path d="M 300.88 314.12 C 300.77 311.79 303.79 313.31 300.38 313.75 C 296.96 314.19 288.29 315.73 280.38 316.75 C 272.46 317.77 257.52 319.27 252.88 319.88 C 248.23 320.48 252.56 318.27 252.50 320.38 C 252.44 322.48 252.17 330.27 252.50 332.50 C 252.83 334.73 252.65 333.54 254.50 333.75 C 256.35 333.96 256.00 334.50 263.62 333.75 C 271.25 333.00 294.02 330.25 300.25 329.25 C 306.48 328.25 300.90 330.27 301.00 327.75 C 301.10 325.23 300.98 316.46 300.88 314.12 Z" id="s-11-f-1"/>
</g>
<g id="s-12" clip-path="url(#c-s-12)">
<use href="#s-12-f-0"/>
<path d="M 429.00 344.88 C 428.92 342.00 429.17 343.62 428.38 343.00 C 427.58 342.38 427.73 342.29 424.25 341.12 C 420.77 339.96 411.19 336.85 407.50 336.00 C 403.81 335.15 404.73 335.81 402.12 336.00 C 399.52 336.19 396.23 336.50 391.88 337.12 C 387.52 337.75 383.38 338.81 376.00 339.75 C 368.62 340.69 360.98 341.71 347.62 342.75 C 334.27 343.79 308.73 345.10 295.88 346.00 C 283.02 346.90 280.35 347.17 270.50 348.12 C 260.65 349.08 249.29 350.94 236.75 351.75 C 224.21 352.56 202.73 352.60 195.25 353.00 C 187.77 353.40 192.73 353.73 191.88 354.12 C 191.02 354.52 190.60 354.88 190.12 355.38 C 189.65 355.88 189.21 356.48 189.00 357.12 C 188.79 357.77 188.65 358.56 188.88 359.25 C 189.10 359.94 189.73 360.62 190.38 361.25 C 191.02 361.88 190.79 361.92 192.75 363.00 C 194.71 364.08 198.60 366.29 202.12 367.75 C 205.65 369.21 210.77 370.90 213.88 371.75 C 216.98 372.60 218.83 372.71 220.75 372.88 C 222.67 373.04 220.10 373.54 225.38 372.75 C 230.65 371.96 245.19 369.23 252.38 368.12 C 259.56 367.02 258.02 366.98 268.50 366.12 C 278.98 365.27 299.85 363.85 315.25 363.00 C 330.65 362.15 342.04 361.38 360.88 361.00 C 379.71 360.62 416.92 360.88 428.25 360.75 C 439.58 360.62 428.75 362.90 428.88 360.25 C 429.00 357.60 429.08 347.75 429.00 344.88 Z" id="s-12-f-1"/>
<path d="M 381.00 340.75 C 380.96 337.23 380.94 339.54 380.75 339.25 C 380.56 338.96 382.02 338.75 379.88 339.00 C 377.73 339.25 373.25 340.12 367.88 340.75 C 362.50 341.38 359.62 341.88 347.62 342.75 C 335.62 343.62 308.73 345.10 295.88 346.00 C 283.02 346.90 280.35 347.17 270.50 348.12 C 260.65 349.08 249.29 350.94 236.75 351.75 C 224.21 352.56 202.94 352.48 195.25 353.00 C 187.56 353.52 191.67 354.19 190.62 354.88 C 189.58 355.56 189.29 356.40 189.00 357.12 C 188.71 357.85 188.65 358.56 188.88 359.25 C 189.10 359.94 189.73 360.62 190.38 361.25 C 191.02 361.88 190.79 361.92 192.75 363.00 C 194.71 364.08 198.60 366.29 202.12 367.75 C 205.65 369.21 210.77 370.90 213.88 371.75 C 216.98 372.60 218.54 372.75 220.75 372.88 C 222.96 373.00 221.85 373.29 227.12 372.50 C 232.40 371.71 243.02 369.40 252.38 368.12 C 261.73 366.85 269.15 365.92 283.25 364.88 C 297.35 363.83 324.06 362.52 337.00 361.88 C 349.94 361.23 353.77 361.17 360.88 361.00 C 367.98 360.83 376.27 360.98 379.62 360.88 C 382.98 360.77 380.77 363.73 381.00 360.38 C 381.23 357.02 381.04 344.27 381.00 340.75 Z" id="s-12-f-2"/>
<path d="M 333.00 344.38 C 332.94 341.54 338.56 343.60 332.38 343.88 C 326.19 344.15 312.15 344.67 295.88 346.00 C 279.60 347.33 251.52 350.71 234.75 351.88 C 217.98 353.04 202.40 352.62 195.25 353.00 C 188.10 353.38 192.73 353.73 191.88 354.12 C 191.02 354.52 190.60 354.85 190.12 355.38 C 189.65 355.90 189.21 356.60 189.00 357.25 C 188.79 357.90 188.65 358.58 188.88 359.25 C 189.10 359.92 189.73 360.62 190.38 361.25 C 191.02 361.88 190.79 361.92 192.75 363.00 C 194.71 364.08 198.60 366.29 202.12 367.75 C 205.65 369.21 210.75 370.90 213.88 371.75 C 217.00 372.60 218.67 372.75 220.88 372.88 C 223.08 373.00 224.04 372.96 227.12 372.50 C 230.21 372.04 232.48 371.19 239.38 370.12 C 246.27 369.06 261.19 367.00 268.50 366.12 C 275.81 365.25 272.65 365.54 283.25 364.88 C 293.85 364.21 323.88 362.79 332.12 362.12 C 340.38 361.46 332.60 363.83 332.75 360.88 C 332.90 357.92 333.06 347.21 333.00 344.38 Z" id="s-12-f-3"/>
<path d="M 284.88 347.38 C 284.62 344.65 291.88 346.25 283.50 347.00 C 275.12 347.75 249.33 350.88 234.62 351.88 C 219.92 352.88 202.38 352.62 195.25 353.00 C 188.12 353.38 192.73 353.73 191.88 354.12 C 191.02 354.52 190.60 354.85 190.12 355.38 C 189.65 355.90 189.21 356.60 189.00 357.25 C 188.79 357.90 188.79 358.73 188.88 359.25 C 188.96 359.77 188.90 359.77 189.50 360.38 C 190.10 360.98 189.98 361.48 192.50 362.88 C 195.02 364.27 200.44 367.12 204.62 368.75 C 208.81 370.38 214.21 371.96 217.62 372.62 C 221.04 373.29 219.33 373.50 225.12 372.75 C 230.92 372.00 242.46 369.46 252.38 368.12 C 262.29 366.79 279.19 365.54 284.62 364.75 C 290.06 363.96 284.96 366.27 285.00 363.38 C 285.04 360.48 285.12 350.10 284.88 347.38 Z" id="s-12-f-4"/>
<path d="M 236.75 370.12 C 236.96 367.88 237.04 360.44 237.00 357.38 C 236.96 354.31 243.46 352.48 236.50 351.75 C 229.54 351.02 202.88 352.48 195.25 353.00 C 187.62 353.52 191.79 354.17 190.75 354.88 C 189.71 355.58 189.27 356.42 189.00 357.25 C 188.73 358.08 188.54 358.94 189.12 359.88 C 189.71 360.81 190.29 361.54 192.50 362.88 C 194.71 364.21 198.88 366.42 202.38 367.88 C 205.88 369.33 210.83 370.81 213.50 371.62 C 216.17 372.44 216.75 372.54 218.38 372.75 C 220.00 372.96 220.35 373.19 223.25 372.88 C 226.15 372.56 233.50 371.33 235.75 370.88 C 238.00 370.42 236.54 372.38 236.75 370.12 Z" id="s-12-f-5"/>
</g>
<g id="s-13" clip-path="url(#c-s-13)">
<use href="#s-13-f-0"/>
<path d="M 68.75 91.62 C 68.33 92.12 68.10 92.38 68.00 93.00 C 67.90 93.62 67.33 94.00 68.12 95.38 C 68.92 96.75 70.27 97.48 72.75 101.25 C 75.23 105.02 79.79 113.00 83.00 118.00 C 86.21 123.00 89.60 127.94 92.00 131.25 C 94.40 134.56 90.19 136.75 97.38 137.88 C 104.56 139.00 128.40 138.04 135.12 138.00 C 141.85 137.96 137.35 139.33 137.75 137.62 C 138.15 135.92 137.85 130.60 137.50 127.75 C 137.15 124.90 136.54 122.88 135.62 120.50 C 134.71 118.12 133.31 115.50 132.00 113.50 C 130.69 111.50 128.75 109.56 127.75 108.50 C 126.75 107.44 127.19 107.88 126.00 107.12 C 124.81 106.38 122.94 105.19 120.62 104.00 C 118.31 102.81 115.29 101.33 112.12 100.00 C 108.96 98.67 106.10 97.46 101.62 96.00 C 97.15 94.54 89.35 92.25 85.25 91.25 C 81.15 90.25 79.46 90.21 77.00 90.00 C 74.54 89.79 71.88 89.73 70.50 90.00 C 69.12 90.27 69.17 91.12 68.75 91.62 Z" id="s-13-f-1"/>
</g>
<g id="s-14" clip-path="url(#c-s-14)">
<use href="#s-14-f-0"/>
<path d="M 153.75 210.62 C 153.52 209.33 153.31 209.02 152.25 207.75 C 151.19 206.48 150.04 204.98 147.38 203.00 C 144.71 201.02 140.10 198.02 136.25 195.88 C 132.40 193.73 126.83 191.25 124.25 190.12 C 121.67 189.00 121.96 189.33 120.75 189.12 C 119.54 188.92 118.19 188.71 117.00 188.88 C 115.81 189.04 115.44 189.15 113.62 190.12 C 111.81 191.10 110.04 192.65 106.12 194.75 C 102.21 196.85 95.06 200.44 90.12 202.75 C 85.19 205.06 81.58 206.62 76.50 208.62 C 71.42 210.62 65.21 213.00 59.62 214.75 C 54.04 216.50 46.65 218.08 43.00 219.12 C 39.35 220.17 39.04 220.31 37.75 221.00 C 36.46 221.69 35.73 222.50 35.25 223.25 C 34.77 224.00 34.35 224.60 34.88 225.50 C 35.40 226.40 36.94 227.77 38.38 228.62 C 39.81 229.48 41.96 230.12 43.50 230.62 C 45.04 231.12 44.29 231.44 47.62 231.62 C 50.96 231.81 59.58 231.90 63.50 231.75 C 67.42 231.60 67.81 231.35 71.12 230.75 C 74.44 230.15 80.71 228.62 83.38 228.12 C 86.04 227.62 86.23 227.94 87.12 227.75 C 88.02 227.56 86.88 227.46 88.75 227.00 C 90.62 226.54 96.25 225.31 98.38 225.00 C 100.50 224.69 100.71 225.00 101.50 225.12 C 102.29 225.25 102.58 225.35 103.12 225.75 C 103.67 226.15 104.67 226.42 104.75 227.50 C 104.83 228.58 105.92 226.75 103.62 232.25 C 101.33 237.75 93.04 255.71 91.00 260.50 C 88.96 265.29 87.88 260.92 91.38 261.00 C 94.88 261.08 108.33 261.15 112.00 261.00 C 115.67 260.85 110.02 263.85 113.38 260.12 C 116.73 256.40 126.00 245.15 132.12 238.62 C 138.25 232.10 146.54 224.85 150.12 221.00 C 153.71 217.15 153.02 217.23 153.62 215.50 C 154.23 213.77 153.98 211.92 153.75 210.62 Z" id="s-14-f-1"/>
<path d="M 153.88 211.38 C 153.77 210.58 153.52 209.50 152.75 208.38 C 151.98 207.25 151.69 206.52 149.25 204.62 C 146.81 202.73 141.48 199.08 138.12 197.00 C 134.77 194.92 131.44 193.27 129.12 192.12 C 126.81 190.98 125.65 190.62 124.25 190.12 C 122.85 189.62 121.96 189.33 120.75 189.12 C 119.54 188.92 118.19 188.71 117.00 188.88 C 115.81 189.04 115.44 189.15 113.62 190.12 C 111.81 191.10 110.04 192.65 106.12 194.75 C 102.21 196.85 95.06 200.44 90.12 202.75 C 85.19 205.06 81.58 206.62 76.50 208.62 C 71.42 210.62 65.71 212.85 59.62 214.75 C 53.54 216.65 43.90 218.77 40.00 220.00 C 36.10 221.23 37.04 221.58 36.25 222.12 C 35.46 222.67 35.48 222.71 35.25 223.25 C 35.02 223.79 34.75 224.77 34.88 225.38 C 35.00 225.98 35.42 226.33 36.00 226.88 C 36.58 227.42 36.56 227.85 38.38 228.62 C 40.19 229.40 44.38 230.96 46.88 231.50 C 49.38 232.04 50.42 231.85 53.38 231.88 C 56.33 231.90 60.71 231.98 64.62 231.62 C 68.54 231.27 72.21 230.69 76.88 229.75 C 81.54 228.81 87.90 226.98 92.62 226.00 C 97.35 225.02 95.48 225.90 105.25 223.88 C 115.02 221.85 143.23 215.67 151.25 213.88 C 159.27 212.08 152.94 213.54 153.38 213.12 C 153.81 212.71 153.98 212.17 153.88 211.38 Z" id="s-14-f-2"/>
<path d="M 130.88 193.25 C 129.75 188.88 126.06 190.83 124.25 190.12 C 122.44 189.42 121.33 189.19 120.00 189.00 C 118.67 188.81 117.31 188.81 116.25 189.00 C 115.19 189.19 115.31 189.17 113.62 190.12 C 111.94 191.08 110.04 192.65 106.12 194.75 C 102.21 196.85 95.06 200.44 90.12 202.75 C 85.19 205.06 81.58 206.62 76.50 208.62 C 71.42 210.62 65.71 212.85 59.62 214.75 C 53.54 216.65 43.94 218.73 40.00 220.00 C 36.06 221.27 36.83 221.77 36.00 222.38 C 35.17 222.98 35.17 223.06 35.00 223.62 C 34.83 224.19 34.44 224.92 35.00 225.75 C 35.56 226.58 36.40 227.67 38.38 228.62 C 40.35 229.58 42.69 230.98 46.88 231.50 C 51.06 232.02 58.50 232.04 63.50 231.75 C 68.50 231.46 72.02 230.71 76.88 229.75 C 81.73 228.79 87.88 226.98 92.62 226.00 C 97.38 225.02 99.35 225.08 105.38 223.88 C 111.40 222.67 124.52 219.73 128.75 218.75 C 132.98 217.77 130.38 218.40 130.75 218.00 C 131.12 217.60 130.98 220.50 131.00 216.38 C 131.02 212.25 132.00 197.62 130.88 193.25 Z" id="s-14-f-3"/>
<path d="M 83.00 206.38 C 82.90 202.71 83.75 205.46 82.25 206.00 C 80.75 206.54 77.77 208.17 74.00 209.62 C 70.23 211.08 65.29 213.02 59.62 214.75 C 53.96 216.48 43.94 218.73 40.00 220.00 C 36.06 221.27 36.83 221.77 36.00 222.38 C 35.17 222.98 35.19 223.12 35.00 223.62 C 34.81 224.12 34.31 224.54 34.88 225.38 C 35.44 226.21 36.88 227.73 38.38 228.62 C 39.88 229.52 42.06 230.23 43.88 230.75 C 45.69 231.27 45.98 231.58 49.25 231.75 C 52.52 231.92 58.00 232.27 63.50 231.75 C 69.00 231.23 79.02 229.25 82.25 228.62 C 85.48 228.00 82.75 231.71 82.88 228.00 C 83.00 224.29 83.10 210.04 83.00 206.38 Z" id="s-14-f-4"/>
</g>
<g id="s-15" clip-path="url(#c-s-15)">
<use href="#s-15-f-0"/>
<path d="M 85.00 274.88 C 84.79 275.27 84.85 276.27 85.00 276.88 C 85.15 277.48 85.38 277.85 85.88 278.50 C 86.38 279.15 86.92 279.88 88.00 280.75 C 89.08 281.62 90.88 282.25 92.38 283.75 C 93.88 285.25 95.27 287.27 97.00 289.75 C 98.73 292.23 100.81 295.25 102.75 298.62 C 104.69 302.00 106.92 305.98 108.62 310.00 C 110.33 314.02 108.75 320.58 113.00 322.75 C 117.25 324.92 130.33 323.02 134.12 323.00 C 137.92 322.98 135.52 323.96 135.75 322.62 C 135.98 321.29 136.00 317.75 135.50 315.00 C 135.00 312.25 134.04 309.00 132.75 306.12 C 131.46 303.25 129.67 300.33 127.75 297.75 C 125.83 295.17 123.50 292.75 121.25 290.62 C 119.00 288.50 117.02 286.98 114.25 285.00 C 111.48 283.02 106.67 280.17 104.62 278.75 C 102.58 277.33 102.69 277.21 102.00 276.50 C 101.31 275.79 103.12 274.83 100.50 274.50 C 97.88 274.17 88.83 274.44 86.25 274.50 C 83.67 274.56 85.21 274.48 85.00 274.88 Z" id="s-15-f-1"/>
</g>
<g id="s-16" clip-path="url(#c-s-16)">
<use href="#s-16-f-0"/>
<path d="M 26.88 358.50 C 26.83 359.29 26.81 360.71 27.00 361.75 C 27.19 362.79 27.19 363.23 28.00 364.75 C 28.81 366.27 29.67 368.35 31.88 370.88 C 34.08 373.40 38.96 377.90 41.25 379.88 C 43.54 381.85 44.04 381.96 45.62 382.75 C 47.21 383.54 48.85 384.29 50.75 384.62 C 52.65 384.96 55.40 384.92 57.00 384.75 C 58.60 384.58 58.77 384.42 60.38 383.62 C 61.98 382.83 64.46 380.94 66.62 380.00 C 68.79 379.06 70.75 378.67 73.38 378.00 C 76.00 377.33 78.56 376.67 82.38 376.00 C 86.19 375.33 91.52 374.50 96.25 374.00 C 100.98 373.50 106.33 373.17 110.75 373.00 C 115.17 372.83 119.31 372.83 122.75 373.00 C 126.19 373.17 128.27 373.50 131.38 374.00 C 134.48 374.50 137.35 374.98 141.38 376.00 C 145.40 377.02 146.38 376.77 155.50 380.12 C 164.62 383.48 180.75 389.79 196.12 396.12 C 211.50 402.46 230.15 410.35 247.75 418.12 C 265.35 425.90 289.56 437.33 301.75 442.75 C 313.94 448.17 315.27 448.46 320.88 450.62 C 326.48 452.79 330.88 454.40 335.38 455.75 C 339.88 457.10 344.33 458.25 347.88 458.75 C 351.42 459.25 354.12 458.92 356.62 458.75 C 359.12 458.58 357.96 458.92 362.88 457.75 C 367.79 456.58 378.04 454.12 386.12 451.75 C 394.21 449.38 404.44 445.92 411.38 443.50 C 418.31 441.08 422.79 439.04 427.75 437.25 C 432.71 435.46 436.02 434.69 441.12 432.75 C 446.23 430.81 455.42 426.96 458.38 425.62 C 461.33 424.29 458.77 426.85 458.88 424.75 C 458.98 422.65 459.00 415.10 459.00 413.00 C 459.00 410.90 459.00 412.31 458.88 412.12 C 458.75 411.94 467.23 412.27 458.25 411.88 C 449.27 411.48 422.38 410.62 405.00 409.75 C 387.62 408.88 369.42 407.81 354.00 406.62 C 338.58 405.44 324.79 404.10 312.50 402.62 C 300.21 401.15 288.79 399.23 280.25 397.75 C 271.71 396.27 268.83 395.58 261.25 393.75 C 253.67 391.92 244.46 389.58 234.75 386.75 C 225.04 383.92 215.96 381.21 203.00 376.75 C 190.04 372.29 166.31 363.27 157.00 360.00 C 147.69 356.73 150.38 357.96 147.12 357.12 C 143.88 356.29 142.67 355.77 137.50 355.00 C 132.33 354.23 128.71 352.21 116.12 352.50 C 103.54 352.79 73.15 356.06 62.00 356.75 C 50.85 357.44 53.40 356.92 49.25 356.62 C 45.10 356.33 39.90 355.29 37.12 355.00 C 34.35 354.71 33.77 354.88 32.62 354.88 C 31.48 354.88 30.98 354.83 30.25 355.00 C 29.52 355.17 28.75 355.54 28.25 355.88 C 27.75 356.21 27.48 356.56 27.25 357.00 C 27.02 357.44 26.92 357.71 26.88 358.50 Z" id="s-16-f-1"/>
<path d="M 27.00 357.88 C 26.79 358.85 26.83 360.60 27.00 361.75 C 27.17 362.90 27.19 363.23 28.00 364.75 C 28.81 366.27 29.67 368.35 31.88 370.88 C 34.08 373.40 38.96 377.90 41.25 379.88 C 43.54 381.85 43.90 381.94 45.62 382.75 C 47.35 383.56 49.73 384.42 51.62 384.75 C 53.52 385.08 55.54 384.94 57.00 384.75 C 58.46 384.56 58.77 384.42 60.38 383.62 C 61.98 382.83 64.46 380.94 66.62 380.00 C 68.79 379.06 69.75 378.83 73.38 378.00 C 77.00 377.17 83.42 375.75 88.38 375.00 C 93.33 374.25 97.40 373.83 103.12 373.50 C 108.85 373.17 117.08 372.75 122.75 373.00 C 128.42 373.25 133.35 374.33 137.12 375.00 C 140.90 375.67 142.31 376.15 145.38 377.00 C 148.44 377.85 151.58 378.75 155.50 380.12 C 159.42 381.50 158.10 380.92 168.88 385.25 C 179.65 389.58 195.98 395.71 220.12 406.12 C 244.27 416.54 295.06 439.65 313.75 447.75 C 332.44 455.85 327.42 453.08 332.25 454.75 C 337.08 456.42 340.15 457.08 342.75 457.75 C 345.35 458.42 346.00 458.56 347.88 458.75 C 349.75 458.94 350.62 459.23 354.00 458.88 C 357.38 458.52 361.71 458.15 368.12 456.62 C 374.54 455.10 385.44 451.90 392.50 449.75 C 399.56 447.60 407.44 444.88 410.50 443.75 C 413.56 442.62 410.79 448.25 410.88 443.00 C 410.96 437.75 411.00 417.69 411.00 412.25 C 411.00 406.81 410.98 410.77 410.88 410.38 C 410.77 409.98 417.10 410.31 410.38 409.88 C 403.65 409.44 383.50 408.60 370.50 407.75 C 357.50 406.90 344.23 405.90 332.38 404.75 C 320.52 403.60 308.96 402.21 299.38 400.88 C 289.79 399.54 283.25 398.44 274.88 396.75 C 266.50 395.06 258.02 393.08 249.12 390.75 C 240.23 388.42 232.06 386.08 221.50 382.75 C 210.94 379.42 196.50 374.54 185.75 370.75 C 175.00 366.96 163.44 362.27 157.00 360.00 C 150.56 357.73 150.38 357.96 147.12 357.12 C 143.88 356.29 141.19 355.56 137.50 355.00 C 133.81 354.44 127.83 354.12 125.00 353.75 C 122.17 353.38 122.31 352.96 120.50 352.75 C 118.69 352.54 123.88 351.83 114.12 352.50 C 104.38 353.17 72.81 356.06 62.00 356.75 C 51.19 357.44 53.40 356.92 49.25 356.62 C 45.10 356.33 40.29 355.27 37.12 355.00 C 33.96 354.73 31.73 354.85 30.25 355.00 C 28.77 355.15 28.79 355.40 28.25 355.88 C 27.71 356.35 27.21 356.90 27.00 357.88 Z" id="s-16-f-2"/>
<path d="M 27.12 357.38 C 26.90 358.10 26.85 359.38 26.88 360.25 C 26.90 361.12 26.88 361.50 27.25 362.62 C 27.62 363.75 28.35 365.62 29.12 367.00 C 29.90 368.38 29.85 368.73 31.88 370.88 C 33.90 373.02 38.96 377.90 41.25 379.88 C 43.54 381.85 44.10 381.98 45.62 382.75 C 47.15 383.52 48.48 384.17 50.38 384.50 C 52.27 384.83 55.33 384.90 57.00 384.75 C 58.67 384.60 58.77 384.42 60.38 383.62 C 61.98 382.83 64.46 380.94 66.62 380.00 C 68.79 379.06 70.75 378.67 73.38 378.00 C 76.00 377.33 78.56 376.67 82.38 376.00 C 86.19 375.33 91.52 374.50 96.25 374.00 C 100.98 373.50 106.33 373.17 110.75 373.00 C 115.17 372.83 118.35 372.67 122.75 373.00 C 127.15 373.33 131.67 373.81 137.12 375.00 C 142.58 376.19 145.67 376.60 155.50 380.12 C 165.33 383.65 180.75 389.79 196.12 396.12 C 211.50 402.46 230.15 410.35 247.75 418.12 C 265.35 425.90 289.56 437.33 301.75 442.75 C 313.94 448.17 315.35 448.48 320.88 450.62 C 326.40 452.77 330.38 454.27 334.88 455.62 C 339.38 456.98 344.25 458.23 347.88 458.75 C 351.50 459.27 354.19 458.92 356.62 458.75 C 359.06 458.58 361.46 458.00 362.50 457.75 C 363.54 457.50 362.79 465.08 362.88 457.25 C 362.96 449.42 363.00 418.98 363.00 410.75 C 363.00 402.52 363.00 408.50 362.88 407.88 C 362.75 407.25 367.33 407.52 362.25 407.00 C 357.17 406.48 341.77 405.62 332.38 404.75 C 322.98 403.88 314.56 402.92 305.88 401.75 C 297.19 400.58 287.69 399.08 280.25 397.75 C 272.81 396.42 266.98 395.06 261.25 393.75 C 255.52 392.44 252.50 391.71 245.88 389.88 C 239.25 388.04 231.52 385.94 221.50 382.75 C 211.48 379.56 196.50 374.54 185.75 370.75 C 175.00 366.96 163.44 362.27 157.00 360.00 C 150.56 357.73 150.38 357.96 147.12 357.12 C 143.88 356.29 141.19 355.56 137.50 355.00 C 133.81 354.44 127.83 354.12 125.00 353.75 C 122.17 353.38 122.31 352.96 120.50 352.75 C 118.69 352.54 123.88 351.83 114.12 352.50 C 104.38 353.17 72.81 356.06 62.00 356.75 C 51.19 357.44 53.40 356.92 49.25 356.62 C 45.10 356.33 40.29 355.27 37.12 355.00 C 33.96 354.73 31.73 354.85 30.25 355.00 C 28.77 355.15 28.77 355.48 28.25 355.88 C 27.73 356.27 27.35 356.65 27.12 357.38 Z" id="s-16-f-3"/>
<path d="M 27.12 357.38 C 26.90 358.10 26.85 359.38 26.88 360.25 C 26.90 361.12 26.88 361.50 27.25 362.62 C 27.62 363.75 28.35 365.62 29.12 367.00 C 29.90 368.38 29.85 368.73 31.88 370.88 C 33.90 373.02 38.96 377.90 41.25 379.88 C 43.54 381.85 44.10 381.98 45.62 382.75 C 47.15 383.52 48.48 384.17 50.38 384.50 C 52.27 384.83 55.33 384.90 57.00 384.75 C 58.67 384.60 58.77 384.42 60.38 383.62 C 61.98 382.83 64.46 380.94 66.62 380.00 C 68.79 379.06 70.75 378.67 73.38 378.00 C 76.00 377.33 78.56 376.67 82.38 376.00 C 86.19 375.33 91.52 374.50 96.25 374.00 C 100.98 373.50 106.31 373.17 110.75 373.00 C 115.19 372.83 119.44 372.83 122.88 373.00 C 126.31 373.17 128.29 373.50 131.38 374.00 C 134.46 374.50 137.35 374.98 141.38 376.00 C 145.40 377.02 146.38 376.77 155.50 380.12 C 164.62 383.48 179.23 389.12 196.12 396.12 C 213.02 403.12 239.27 414.35 256.88 422.12 C 274.48 429.90 292.27 438.48 301.75 442.75 C 311.23 447.02 311.60 446.94 313.75 447.75 C 315.90 448.56 314.44 452.83 314.62 447.62 C 314.81 442.42 314.90 423.52 314.88 416.50 C 314.85 409.48 314.62 407.75 314.50 405.50 C 314.38 403.25 314.31 403.48 314.12 403.00 C 313.94 402.52 315.83 402.98 313.38 402.62 C 310.92 402.27 305.79 401.85 299.38 400.88 C 292.96 399.90 283.79 398.58 274.88 396.75 C 265.96 394.92 254.77 392.21 245.88 389.88 C 236.98 387.54 228.65 384.94 221.50 382.75 C 214.35 380.56 213.75 380.54 203.00 376.75 C 192.25 372.96 166.31 363.27 157.00 360.00 C 147.69 356.73 150.38 357.96 147.12 357.12 C 143.88 356.29 141.19 355.56 137.50 355.00 C 133.81 354.44 127.83 354.12 125.00 353.75 C 122.17 353.38 122.31 352.96 120.50 352.75 C 118.69 352.54 123.88 351.83 114.12 352.50 C 104.38 353.17 72.81 356.06 62.00 356.75 C 51.19 357.44 53.40 356.92 49.25 356.62 C 45.10 356.33 40.29 355.27 37.12 355.00 C 33.96 354.73 31.73 354.85 30.25 355.00 C 28.77 355.15 28.77 355.48 28.25 355.88 C 27.73 356.27 27.35 356.65 27.12 357.38 Z" id="s-16-f-4"/>
<path d="M 27.12 357.38 C 26.90 358.10 26.85 359.38 26.88 360.25 C 26.90 361.12 26.88 361.50 27.25 362.62 C 27.62 363.75 28.35 365.62 29.12 367.00 C 29.90 368.38 29.85 368.73 31.88 370.88 C 33.90 373.02 38.96 377.90 41.25 379.88 C 43.54 381.85 44.10 381.98 45.62 382.75 C 47.15 383.52 49.19 384.15 50.38 384.50 C 51.56 384.85 51.54 384.85 52.75 384.88 C 53.96 384.90 55.73 385.15 57.62 384.62 C 59.52 384.10 62.62 382.52 64.12 381.75 C 65.62 380.98 65.08 380.62 66.62 380.00 C 68.17 379.38 70.75 378.67 73.38 378.00 C 76.00 377.33 78.56 376.67 82.38 376.00 C 86.19 375.33 91.52 374.50 96.25 374.00 C 100.98 373.50 106.31 373.17 110.75 373.00 C 115.19 372.83 118.48 372.67 122.88 373.00 C 127.27 373.33 131.69 373.81 137.12 375.00 C 142.56 376.19 147.27 377.27 155.50 380.12 C 163.73 382.98 175.73 387.79 186.50 392.12 C 197.27 396.46 207.62 400.79 220.12 406.12 C 232.62 411.46 253.85 420.73 261.50 424.12 C 269.15 427.52 265.10 426.17 266.00 426.50 C 266.90 426.83 266.71 429.77 266.88 426.12 C 267.04 422.48 267.06 409.83 267.00 404.62 C 266.94 399.42 270.02 397.33 266.50 394.88 C 262.98 392.42 253.38 391.90 245.88 389.88 C 238.38 387.85 231.52 385.94 221.50 382.75 C 211.48 379.56 196.98 374.69 185.75 370.75 C 174.52 366.81 162.17 361.75 154.12 359.12 C 146.08 356.50 143.83 356.10 137.50 355.00 C 131.17 353.90 128.71 352.21 116.12 352.50 C 103.54 352.79 73.15 356.06 62.00 356.75 C 50.85 357.44 53.40 356.92 49.25 356.62 C 45.10 356.33 40.29 355.27 37.12 355.00 C 33.96 354.73 31.73 354.85 30.25 355.00 C 28.77 355.15 28.77 355.48 28.25 355.88 C 27.73 356.27 27.35 356.65 27.12 357.38 Z" id="s-16-f-5"/>
<path d="M 27.00 357.88 C 26.79 358.85 26.83 360.60 27.00 361.75 C 27.17 362.90 27.19 363.23 28.00 364.75 C 28.81 366.27 29.67 368.35 31.88 370.88 C 34.08 373.40 38.96 377.90 41.25 379.88 C 43.54 381.85 44.02 381.96 45.62 382.75 C 47.23 383.54 48.88 384.31 50.88 384.62 C 52.88 384.94 55.42 385.10 57.62 384.62 C 59.83 384.15 62.62 382.52 64.12 381.75 C 65.62 380.98 64.40 380.79 66.62 380.00 C 68.85 379.21 73.88 377.83 77.50 377.00 C 81.12 376.17 82.83 375.67 88.38 375.00 C 93.92 374.33 104.69 373.31 110.75 373.00 C 116.81 372.69 120.35 372.79 124.75 373.12 C 129.15 373.46 132.00 373.83 137.12 375.00 C 142.25 376.17 147.29 377.27 155.50 380.12 C 163.71 382.98 175.96 387.90 186.38 392.12 C 196.79 396.35 212.58 403.31 218.00 405.50 C 223.42 407.69 218.71 408.90 218.88 405.25 C 219.04 401.60 219.04 387.52 219.00 383.62 C 218.96 379.73 224.17 384.02 218.62 381.88 C 213.08 379.73 196.02 374.40 185.75 370.75 C 175.48 367.10 163.44 362.27 157.00 360.00 C 150.56 357.73 150.38 357.96 147.12 357.12 C 143.88 356.29 141.19 355.56 137.50 355.00 C 133.81 354.44 127.83 354.12 125.00 353.75 C 122.17 353.38 122.31 352.96 120.50 352.75 C 118.69 352.54 123.88 351.83 114.12 352.50 C 104.38 353.17 72.81 356.06 62.00 356.75 C 51.19 357.44 53.40 356.92 49.25 356.62 C 45.10 356.33 40.29 355.27 37.12 355.00 C 33.96 354.73 31.73 354.85 30.25 355.00 C 28.77 355.15 28.79 355.40 28.25 355.88 C 27.71 356.35 27.21 356.90 27.00 357.88 Z" id="s-16-f-6"/>
<path d="M 171.00 367.12 C 170.98 363.67 173.19 366.33 170.38 365.00 C 167.56 363.67 159.60 360.79 154.12 359.12 C 148.65 357.46 143.83 356.10 137.50 355.00 C 131.17 353.90 128.71 352.21 116.12 352.50 C 103.54 352.79 73.15 356.06 62.00 356.75 C 50.85 357.44 53.40 356.92 49.25 356.62 C 45.10 356.33 39.90 355.29 37.12 355.00 C 34.35 354.71 33.77 354.88 32.62 354.88 C 31.48 354.88 30.98 354.83 30.25 355.00 C 29.52 355.17 28.75 355.54 28.25 355.88 C 27.75 356.21 27.48 356.56 27.25 357.00 C 27.02 357.44 26.92 357.71 26.88 358.50 C 26.83 359.29 26.81 360.71 27.00 361.75 C 27.19 362.79 27.19 363.23 28.00 364.75 C 28.81 366.27 29.67 368.35 31.88 370.88 C 34.08 373.40 38.96 377.90 41.25 379.88 C 43.54 381.85 44.02 381.96 45.62 382.75 C 47.23 383.54 48.88 384.31 50.88 384.62 C 52.88 384.94 55.42 385.10 57.62 384.62 C 59.83 384.15 62.62 382.52 64.12 381.75 C 65.62 380.98 63.58 380.96 66.62 380.00 C 69.67 379.04 77.65 376.98 82.38 376.00 C 87.10 375.02 90.27 374.62 95.00 374.12 C 99.73 373.62 105.79 373.17 110.75 373.00 C 115.71 372.83 120.35 372.79 124.75 373.12 C 129.15 373.46 132.44 373.98 137.12 375.00 C 141.81 376.02 147.42 377.44 152.88 379.25 C 158.33 381.06 166.94 384.79 169.88 385.88 C 172.81 386.96 170.31 388.88 170.50 385.75 C 170.69 382.62 171.02 370.58 171.00 367.12 Z" id="s-16-f-7"/>
<path d="M 122.75 371.62 C 122.83 368.40 123.25 356.77 122.88 353.62 C 122.50 350.48 121.96 352.94 120.50 352.75 C 119.04 352.56 123.88 351.83 114.12 352.50 C 104.38 353.17 72.81 356.06 62.00 356.75 C 51.19 357.44 53.42 356.92 49.25 356.62 C 45.08 356.33 40.17 355.27 37.00 355.00 C 33.83 354.73 31.77 354.79 30.25 355.00 C 28.73 355.21 28.44 355.67 27.88 356.25 C 27.31 356.83 27.02 357.58 26.88 358.50 C 26.73 359.42 26.81 360.71 27.00 361.75 C 27.19 362.79 27.46 363.60 28.00 364.75 C 28.54 365.90 29.31 367.29 30.25 368.62 C 31.19 369.96 31.58 370.73 33.62 372.75 C 35.67 374.77 40.48 379.08 42.50 380.75 C 44.52 382.42 44.25 382.08 45.75 382.75 C 47.25 383.42 49.52 384.44 51.50 384.75 C 53.48 385.06 55.81 384.98 57.62 384.62 C 59.44 384.27 60.88 383.40 62.38 382.62 C 63.88 381.85 63.29 381.10 66.62 380.00 C 69.96 378.90 77.44 377.00 82.38 376.00 C 87.31 375.00 92.56 374.44 96.25 374.00 C 99.94 373.56 100.15 373.54 104.50 373.38 C 108.85 373.21 119.33 373.29 122.38 373.00 C 125.42 372.71 122.67 374.85 122.75 371.62 Z" id="s-16-f-8"/>
<path d="M 27.25 357.00 C 26.83 357.54 26.90 357.62 26.88 358.50 C 26.85 359.38 26.77 360.88 27.12 362.25 C 27.48 363.62 28.21 365.31 29.00 366.75 C 29.79 368.19 29.83 368.69 31.88 370.88 C 33.92 373.06 38.56 377.73 41.25 379.88 C 43.94 382.02 46.29 382.94 48.00 383.75 C 49.71 384.56 49.98 384.58 51.50 384.75 C 53.02 384.92 55.65 384.94 57.12 384.75 C 58.60 384.56 58.79 384.42 60.38 383.62 C 61.96 382.83 64.21 381.02 66.62 380.00 C 69.04 378.98 73.48 381.46 74.88 377.50 C 76.27 373.54 75.08 359.85 75.00 356.25 C 74.92 352.65 76.48 355.79 74.38 355.88 C 72.27 355.96 66.12 356.60 62.38 356.75 C 58.62 356.90 56.83 357.06 51.88 356.75 C 46.92 356.44 36.38 355.12 32.62 354.88 C 28.88 354.62 30.27 354.90 29.38 355.25 C 28.48 355.60 27.67 356.46 27.25 357.00 Z" id="s-16-f-9"/>
</g>
</svg>