<?xml version="1.0" encoding="UTF-8"?>
<svg xmlns="http://www.w3.org/2000/svg" viewBox="0 0 500 500">
<defs>
<path d="M 268.88 35.88 C 267.48 35.92 267.33 35.83 266.50 36.25 C 265.67 36.67 264.46 37.69 263.88 38.38 C 263.29 39.06 263.17 39.48 263.00 40.38 C 262.83 41.27 262.69 42.35 262.88 43.75 C 263.06 45.15 263.48 47.17 264.12 48.75 C 264.77 50.33 266.00 51.75 266.75 53.25 C 267.50 54.75 268.12 56.06 268.62 57.75 C 269.12 59.44 269.27 51.25 269.75 63.38 C 270.23 75.50 271.12 118.15 271.50 130.50 C 271.88 142.85 271.85 136.15 272.00 137.50 C 272.15 138.85 272.19 138.38 272.38 138.62 C 272.56 138.88 269.98 139.46 273.12 139.00 C 276.27 138.54 287.62 136.60 291.25 135.88 C 294.88 135.15 293.58 143.98 294.88 134.62 C 296.17 125.27 298.19 89.35 299.00 79.75 C 299.81 70.15 299.42 79.67 299.75 77.00 C 300.08 74.33 300.35 67.44 301.00 63.75 C 301.65 60.06 303.15 57.15 303.62 54.88 C 304.10 52.60 304.00 51.33 303.88 50.12 C 303.75 48.92 303.38 48.42 302.88 47.62 C 302.38 46.83 302.27 46.48 300.88 45.38 C 299.48 44.27 297.77 42.40 294.50 41.00 C 291.23 39.60 284.52 37.83 281.25 37.00 C 277.98 36.17 276.94 36.19 274.88 36.00 C 272.81 35.81 270.27 35.83 268.88 35.88 Z" id="s-0-f-0"/>
<clipPath id="c-s-0"><use href="#s-0-f-0"/></clipPath>
<path d="M 385.88 80.00 C 385.71 79.29 385.27 78.35 384.75 77.62 C 384.23 76.90 383.69 76.40 382.75 75.62 C 381.81 74.85 380.65 73.94 379.12 73.00 C 377.60 72.06 376.40 70.98 373.62 70.00 C 370.85 69.02 365.06 67.62 362.50 67.12 C 359.94 66.62 368.75 64.75 358.25 67.00 C 347.75 69.25 309.48 78.10 299.50 80.62 C 289.52 83.15 298.67 81.21 298.38 82.12 C 298.08 83.04 297.90 84.08 297.75 86.12 C 297.60 88.17 297.48 92.92 297.50 94.38 C 297.52 95.83 296.92 94.65 297.88 94.88 C 298.83 95.10 299.46 95.62 303.25 95.75 C 307.04 95.88 312.67 96.40 320.62 95.62 C 328.58 94.85 342.56 92.25 351.00 91.12 C 359.44 90.00 366.71 89.60 371.25 88.88 C 375.79 88.15 376.35 87.44 378.25 86.75 C 380.15 86.06 381.38 85.56 382.62 84.75 C 383.88 83.94 385.21 82.67 385.75 81.88 C 386.29 81.08 386.04 80.71 385.88 80.00 Z" id="s-1-f-0"/>
<clipPath id="c-s-1"><use href="#s-1-f-0"/></clipPath>
<path d="M 200.25 139.00 C 198.12 139.12 198.44 139.48 197.75 139.88 C 197.06 140.27 196.44 140.77 196.12 141.38 C 195.81 141.98 195.77 142.83 195.88 143.50 C 195.98 144.17 195.60 143.77 196.75 145.38 C 197.90 146.98 201.27 150.65 202.75 153.12 C 204.23 155.60 204.96 158.21 205.62 160.25 C 206.29 162.29 206.40 162.77 206.75 165.38 C 207.10 167.98 207.58 169.54 207.75 175.88 C 207.92 182.21 207.90 194.17 207.75 203.38 C 207.60 212.58 207.19 224.23 206.88 231.12 C 206.56 238.02 206.42 239.52 205.88 244.75 C 205.33 249.98 204.60 256.73 203.62 262.50 C 202.65 268.27 200.60 274.98 200.00 279.38 C 199.40 283.77 199.83 286.48 200.00 288.88 C 200.17 291.27 200.48 291.88 201.00 293.75 C 201.52 295.62 201.79 297.27 203.12 300.12 C 204.46 302.98 207.29 308.31 209.00 310.88 C 210.71 313.44 212.23 314.52 213.38 315.50 C 214.52 316.48 215.02 316.52 215.88 316.75 C 216.73 316.98 217.69 317.10 218.50 316.88 C 219.31 316.65 220.12 316.29 220.75 315.38 C 221.38 314.46 221.88 312.85 222.25 311.38 C 222.62 309.90 222.75 307.58 223.00 306.50 C 223.25 305.42 223.44 307.21 223.75 304.88 C 224.06 302.54 224.38 300.46 224.88 292.50 C 225.38 284.54 226.25 271.83 226.75 257.12 C 227.25 242.42 227.50 214.75 227.88 204.25 C 228.25 193.75 228.83 201.62 229.00 194.12 C 229.17 186.62 229.58 167.19 228.88 159.25 C 228.17 151.31 225.60 148.98 224.75 146.50 C 223.90 144.02 224.15 144.96 223.75 144.38 C 223.35 143.79 223.29 143.56 222.38 143.00 C 221.46 142.44 220.23 141.65 218.25 141.00 C 216.27 140.35 213.50 139.46 210.50 139.12 C 207.50 138.79 202.38 138.88 200.25 139.00 Z" id="s-2-f-0"/>
<clipPath id="c-s-2"><use href="#s-2-f-0"/></clipPath>
<path d="M 223.88 144.88 C 215.92 146.12 223.56 146.02 223.62 146.38 C 223.69 146.73 224.08 146.50 224.25 147.00 C 224.42 147.50 224.46 148.88 224.62 149.38 C 224.79 149.88 224.73 148.48 225.25 150.00 C 225.77 151.52 227.17 156.85 227.75 158.50 C 228.33 160.15 227.77 159.48 228.75 159.88 C 229.73 160.27 231.65 160.73 233.62 160.88 C 235.60 161.02 235.81 161.27 240.62 160.75 C 245.44 160.23 253.38 159.35 262.50 157.75 C 271.62 156.15 287.58 152.58 295.38 151.12 C 303.17 149.67 303.46 149.69 309.25 149.00 C 315.04 148.31 325.19 147.29 330.12 147.00 C 335.06 146.71 336.56 146.94 338.88 147.25 C 341.19 147.56 342.69 148.23 344.00 148.88 C 345.31 149.52 346.12 150.27 346.75 151.12 C 347.38 151.98 347.42 152.56 347.75 154.00 C 348.08 155.44 348.25 155.69 348.75 159.75 C 349.25 163.81 350.42 173.12 350.75 178.38 C 351.08 183.62 350.58 185.04 350.75 191.25 C 350.92 197.46 351.58 203.42 351.75 215.62 C 351.92 227.83 351.92 255.12 351.75 264.50 C 351.58 273.88 351.25 269.27 350.75 271.88 C 350.25 274.48 348.94 276.46 348.75 280.12 C 348.56 283.79 349.23 290.71 349.62 293.88 C 350.02 297.04 350.56 297.71 351.12 299.12 C 351.69 300.54 351.56 300.46 353.00 302.38 C 354.44 304.29 358.02 308.88 359.75 310.62 C 361.48 312.38 362.44 312.52 363.38 312.88 C 364.31 313.23 364.71 312.94 365.38 312.75 C 366.04 312.56 366.65 312.31 367.38 311.75 C 368.10 311.19 368.85 310.46 369.75 309.38 C 370.65 308.29 371.79 306.83 372.75 305.25 C 373.71 303.67 374.69 301.67 375.50 299.88 C 376.31 298.08 376.92 297.06 377.62 294.50 C 378.33 291.94 379.40 289.38 379.75 284.50 C 380.10 279.62 379.90 270.27 379.75 265.25 C 379.60 260.23 379.15 260.71 378.88 254.38 C 378.60 248.04 378.25 238.75 378.12 227.25 C 378.00 215.75 378.00 194.33 378.12 185.38 C 378.25 176.42 378.56 176.71 378.88 173.50 C 379.19 170.29 379.04 169.17 380.00 166.12 C 380.96 163.08 383.65 157.94 384.62 155.25 C 385.60 152.56 385.71 151.48 385.88 150.00 C 386.04 148.52 385.81 147.31 385.62 146.38 C 385.44 145.44 385.31 145.23 384.75 144.38 C 384.19 143.52 384.02 143.00 382.25 141.25 C 380.48 139.50 376.29 135.56 374.12 133.88 C 371.96 132.19 372.19 132.60 369.25 131.12 C 366.31 129.65 359.15 126.19 356.50 125.00 C 353.85 123.81 354.52 124.17 353.38 124.00 C 352.23 123.83 353.21 123.48 349.62 124.00 C 346.04 124.52 340.88 125.33 331.88 127.12 C 322.88 128.92 302.29 133.50 295.62 134.75 C 288.96 136.00 292.81 134.52 291.88 134.62 C 290.94 134.73 290.94 135.21 290.00 135.38 C 289.06 135.54 287.17 135.46 286.25 135.62 C 285.33 135.79 286.46 136.04 284.50 136.38 C 282.54 136.71 276.69 137.21 274.50 137.62 C 272.31 138.04 279.81 137.67 271.38 138.88 C 262.94 140.08 231.83 143.62 223.88 144.88 Z" id="s-3-f-0"/>
<clipPath id="c-s-3"><use href="#s-3-f-0"/></clipPath>
<path d="M 351.25 180.25 C 349.02 177.83 341.02 177.71 337.88 177.00 C 334.73 176.29 333.96 176.19 332.38 176.00 C 330.79 175.81 331.88 175.25 328.38 175.88 C 324.88 176.50 319.88 178.10 311.38 179.75 C 302.88 181.40 287.69 184.06 277.38 185.75 C 267.06 187.44 257.38 188.83 249.50 189.88 C 241.62 190.92 233.65 191.50 230.12 192.00 C 226.60 192.50 228.77 192.17 228.38 192.88 C 227.98 193.58 227.90 194.50 227.75 196.25 C 227.60 198.00 227.04 201.98 227.50 203.38 C 227.96 204.77 229.21 204.25 230.50 204.62 C 231.79 205.00 232.08 205.44 235.25 205.62 C 238.42 205.81 231.06 207.73 249.50 205.75 C 267.94 203.77 328.92 196.12 345.88 193.75 C 362.83 191.38 350.35 193.75 351.25 191.50 C 352.15 189.25 353.48 182.67 351.25 180.25 Z" id="s-4-f-0"/>
<clipPath id="c-s-4"><use href="#s-4-f-0"/></clipPath>
<path d="M 352.25 227.25 C 351.73 225.17 352.10 226.71 349.12 226.00 C 346.15 225.29 337.54 223.52 334.38 223.00 C 331.21 222.48 339.71 221.42 330.12 222.88 C 320.54 224.33 289.65 229.77 276.88 231.75 C 264.10 233.73 261.81 233.85 253.50 234.75 C 245.19 235.65 231.50 236.65 227.00 237.12 C 222.50 237.60 226.58 235.90 226.50 237.62 C 226.42 239.35 226.19 245.65 226.50 247.50 C 226.81 249.35 227.06 248.38 228.38 248.75 C 229.69 249.12 230.33 249.60 234.38 249.75 C 238.42 249.90 241.73 250.29 252.62 249.62 C 263.52 248.96 288.35 246.85 299.75 245.75 C 311.15 244.65 313.10 243.81 321.00 243.00 C 328.90 242.19 341.92 241.62 347.12 240.88 C 352.33 240.12 351.40 240.77 352.25 238.50 C 353.10 236.23 352.77 229.33 352.25 227.25 Z" id="s-5-f-0"/>
<clipPath id="c-s-5"><use href="#s-5-f-0"/></clipPath>
<path d="M 349.12 279.88 C 348.60 277.35 349.17 279.62 347.12 279.00 C 345.08 278.38 340.23 276.62 336.88 276.12 C 333.52 275.62 338.23 274.73 327.00 276.00 C 315.77 277.27 286.54 281.77 269.50 283.75 C 252.46 285.73 232.38 286.31 224.75 287.88 C 217.12 289.44 223.96 290.85 223.75 293.12 C 223.54 295.40 222.73 299.90 223.50 301.50 C 224.27 303.10 224.33 302.52 228.38 302.75 C 232.42 302.98 242.19 303.00 247.75 302.88 C 253.31 302.75 258.40 302.31 261.75 302.00 C 265.10 301.69 259.85 301.75 267.88 301.00 C 275.90 300.25 300.73 298.33 309.88 297.50 C 319.02 296.67 316.12 296.48 322.75 296.00 C 329.38 295.52 345.04 294.94 349.62 294.62 C 354.21 294.31 350.33 296.58 350.25 294.12 C 350.17 291.67 349.65 282.40 349.12 279.88 Z" id="s-6-f-0"/>
<clipPath id="c-s-6"><use href="#s-6-f-0"/></clipPath>
<path d="M 272.00 309.25 C 271.12 307.94 270.33 307.17 268.62 305.88 C 266.92 304.58 264.92 302.21 261.75 301.50 C 258.58 300.79 253.02 301.46 249.62 301.62 C 246.23 301.79 243.06 301.06 241.38 302.50 C 239.69 303.94 240.77 307.38 239.50 310.25 C 238.23 313.12 236.08 316.23 233.75 319.75 C 231.42 323.27 228.42 327.67 225.50 331.38 C 222.58 335.08 220.38 337.56 216.25 342.00 C 212.12 346.44 205.38 353.44 200.75 358.00 C 196.12 362.56 192.44 365.94 188.50 369.38 C 184.56 372.81 179.04 376.92 177.12 378.62 C 175.21 380.33 176.77 379.27 177.00 379.62 C 177.23 379.98 177.50 380.56 178.50 380.75 C 179.50 380.94 179.52 381.92 183.00 380.75 C 186.48 379.58 193.15 377.06 199.38 373.75 C 205.60 370.44 214.98 364.35 220.38 360.88 C 225.77 357.40 228.21 355.56 231.75 352.88 C 235.29 350.19 237.02 348.88 241.62 344.75 C 246.23 340.62 254.62 332.10 259.38 328.12 C 264.12 324.15 268.00 322.40 270.12 320.88 C 272.25 319.35 271.52 319.75 272.12 319.00 C 272.73 318.25 273.46 317.25 273.75 316.38 C 274.04 315.50 274.17 314.94 273.88 313.75 C 273.58 312.56 272.88 310.56 272.00 309.25 Z" id="s-7-f-0"/>
<clipPath id="c-s-7"><use href="#s-7-f-0"/></clipPath>
<path d="M 302.00 313.75 C 301.79 314.29 301.62 315.17 302.00 316.12 C 302.38 317.08 302.21 317.33 304.25 319.50 C 306.29 321.67 311.27 326.10 314.25 329.12 C 317.23 332.15 316.79 331.38 322.12 337.62 C 327.46 343.88 339.90 359.29 346.25 366.62 C 352.60 373.96 356.85 378.25 360.25 381.62 C 363.65 385.00 364.33 385.35 366.62 386.88 C 368.92 388.40 372.02 390.12 374.00 390.75 C 375.98 391.38 377.44 390.79 378.50 390.62 C 379.56 390.46 379.65 390.27 380.38 389.75 C 381.10 389.23 381.98 388.67 382.88 387.50 C 383.77 386.33 384.94 384.54 385.75 382.75 C 386.56 380.96 387.44 379.17 387.75 376.75 C 388.06 374.33 387.98 370.81 387.62 368.25 C 387.27 365.69 386.27 363.21 385.62 361.38 C 384.98 359.54 384.75 359.02 383.75 357.25 C 382.75 355.48 381.19 352.77 379.62 350.75 C 378.06 348.73 376.77 347.25 374.38 345.12 C 371.98 343.00 368.60 340.35 365.25 338.00 C 361.90 335.65 359.10 333.65 354.25 331.00 C 349.40 328.35 342.35 324.79 336.12 322.12 C 329.90 319.46 321.75 316.52 316.88 315.00 C 312.00 313.48 309.15 313.35 306.88 313.00 C 304.60 312.65 304.06 312.75 303.25 312.88 C 302.44 313.00 302.21 313.21 302.00 313.75 Z" id="s-8-f-0"/>
<clipPath id="c-s-8"><use href="#s-8-f-0"/></clipPath>
<path d="M 59.75 105.62 C 59.33 106.12 59.12 106.44 59.00 107.00 C 58.88 107.56 58.31 107.94 59.00 109.00 C 59.69 110.06 61.00 110.69 63.12 113.38 C 65.25 116.06 68.56 120.98 71.75 125.12 C 74.94 129.27 78.60 134.02 82.25 138.25 C 85.90 142.48 90.27 147.25 93.62 150.50 C 96.98 153.75 99.90 156.06 102.38 157.75 C 104.85 159.44 106.31 160.12 108.50 160.62 C 110.69 161.12 113.67 160.90 115.50 160.75 C 117.33 160.60 118.50 160.08 119.50 159.75 C 120.50 159.42 120.46 159.54 121.50 158.75 C 122.54 157.96 124.71 156.17 125.75 155.00 C 126.79 153.83 127.10 153.40 127.75 151.75 C 128.40 150.10 129.29 147.92 129.62 145.12 C 129.96 142.33 129.92 137.42 129.75 135.00 C 129.58 132.58 129.12 132.00 128.62 130.62 C 128.12 129.25 127.96 128.35 126.75 126.75 C 125.54 125.15 123.02 122.46 121.38 121.00 C 119.73 119.54 118.65 119.00 116.88 118.00 C 115.10 117.00 113.08 116.00 110.75 115.00 C 108.42 114.00 105.85 112.98 102.88 112.00 C 99.90 111.02 96.46 110.00 92.88 109.12 C 89.29 108.25 84.17 107.42 81.38 106.75 C 78.58 106.08 78.27 105.58 76.12 105.12 C 73.98 104.67 70.94 104.19 68.50 104.00 C 66.06 103.81 62.96 103.73 61.50 104.00 C 60.04 104.27 60.17 105.12 59.75 105.62 Z" id="s-9-f-0"/>
<clipPath id="c-s-9"><use href="#s-9-f-0"/></clipPath>
<path d="M 144.88 236.00 C 144.77 235.00 144.65 234.54 144.00 233.50 C 143.35 232.46 143.29 231.67 141.00 229.75 C 138.71 227.83 133.56 224.10 130.25 222.00 C 126.94 219.90 123.69 218.29 121.12 217.12 C 118.56 215.96 116.40 215.38 114.88 215.00 C 113.35 214.62 113.02 214.71 112.00 214.88 C 110.98 215.04 112.73 214.02 108.75 216.00 C 104.77 217.98 94.33 223.77 88.12 226.75 C 81.92 229.73 77.17 231.71 71.50 233.88 C 65.83 236.04 59.98 238.02 54.12 239.75 C 48.27 241.48 39.60 243.38 36.38 244.25 C 33.15 245.12 35.44 244.50 34.75 245.00 C 34.06 245.50 32.73 246.52 32.25 247.25 C 31.77 247.98 31.54 248.60 31.88 249.38 C 32.21 250.15 33.27 251.17 34.25 251.88 C 35.23 252.58 36.21 253.02 37.75 253.62 C 39.29 254.23 41.44 255.12 43.50 255.50 C 45.56 255.88 47.48 255.83 50.12 255.88 C 52.77 255.92 56.62 255.94 59.38 255.75 C 62.12 255.56 60.77 255.88 66.62 254.75 C 72.48 253.62 89.40 249.94 94.50 249.00 C 99.60 248.06 96.58 249.00 97.25 249.12 C 97.92 249.25 98.08 249.40 98.50 249.75 C 98.92 250.10 99.71 250.12 99.75 251.25 C 99.79 252.38 101.21 249.69 98.75 256.50 C 96.29 263.31 87.12 286.08 85.00 292.12 C 82.88 298.17 83.71 292.60 86.00 292.75 C 88.29 292.90 96.42 293.02 98.75 293.00 C 101.08 292.98 95.25 298.23 100.00 292.62 C 104.75 287.02 120.27 267.46 127.25 259.38 C 134.23 251.29 138.98 247.44 141.88 244.12 C 144.77 240.81 144.12 240.85 144.62 239.50 C 145.12 238.15 144.98 237.00 144.88 236.00 Z" id="s-10-f-0"/>
<clipPath id="c-s-10"><use href="#s-10-f-0"/></clipPath>
<path d="M 85.25 292.75 C 82.83 292.88 84.92 292.88 84.88 293.25 C 84.83 293.62 84.75 294.31 85.00 295.00 C 85.25 295.69 85.31 296.27 86.38 297.38 C 87.44 298.48 88.81 298.33 91.38 301.62 C 93.94 304.92 99.04 312.56 101.75 317.12 C 104.46 321.69 106.12 325.58 107.62 329.00 C 109.12 332.42 109.92 334.94 110.75 337.62 C 111.58 340.31 112.12 342.15 112.62 345.12 C 113.12 348.10 113.58 352.27 113.75 355.50 C 113.92 358.73 113.77 362.02 113.62 364.50 C 113.48 366.98 113.31 368.88 112.88 370.38 C 112.44 371.88 111.17 372.90 111.00 373.50 C 110.83 374.10 110.08 373.94 111.88 374.00 C 113.67 374.06 118.79 375.85 121.75 373.88 C 124.71 371.90 127.79 365.52 129.62 362.12 C 131.46 358.73 132.06 355.92 132.75 353.50 C 133.44 351.08 133.58 350.35 133.75 347.62 C 133.92 344.90 133.94 339.98 133.75 337.12 C 133.56 334.27 133.12 332.54 132.62 330.50 C 132.12 328.46 131.85 327.21 130.75 324.88 C 129.65 322.54 127.65 318.94 126.00 316.50 C 124.35 314.06 122.62 312.17 120.88 310.25 C 119.12 308.33 118.38 307.25 115.50 305.00 C 112.62 302.75 106.31 298.83 103.62 296.75 C 100.94 294.67 102.44 293.17 99.38 292.50 C 96.31 291.83 87.67 292.62 85.25 292.75 Z" id="s-11-f-0"/>
<clipPath id="c-s-11"><use href="#s-11-f-0"/></clipPath>
<path d="M 25.88 376.62 C 25.60 377.35 25.81 378.56 26.00 379.50 C 26.19 380.44 26.12 380.77 27.00 382.25 C 27.88 383.73 29.06 385.96 31.25 388.38 C 33.44 390.79 38.06 395.00 40.12 396.75 C 42.19 398.50 42.29 398.23 43.62 398.88 C 44.96 399.52 46.33 400.31 48.12 400.62 C 49.92 400.94 52.40 401.08 54.38 400.75 C 56.35 400.42 58.60 399.25 60.00 398.62 C 61.40 398.00 60.31 397.77 62.75 397.00 C 65.19 396.23 70.42 394.83 74.62 394.00 C 78.83 393.17 84.19 392.46 88.00 392.00 C 91.81 391.54 93.44 391.42 97.50 391.25 C 101.56 391.08 108.83 390.98 112.38 391.00 C 115.92 391.02 114.81 390.88 118.75 391.38 C 122.69 391.88 131.06 393.06 136.00 394.00 C 140.94 394.94 143.15 395.50 148.38 397.00 C 153.60 398.50 156.15 399.29 167.38 403.00 C 178.60 406.71 200.35 413.88 215.75 419.25 C 231.15 424.62 245.23 429.83 259.75 435.25 C 274.27 440.67 291.21 447.69 302.88 451.75 C 314.54 455.81 322.69 457.79 329.75 459.62 C 336.81 461.46 341.08 462.23 345.25 462.75 C 349.42 463.27 351.79 462.94 354.75 462.75 C 357.71 462.56 357.96 462.65 363.00 461.62 C 368.04 460.60 377.79 458.46 385.00 456.62 C 392.21 454.79 396.88 453.46 406.25 450.62 C 415.62 447.79 433.10 442.27 441.25 439.62 C 449.40 436.98 450.62 436.56 455.12 434.75 C 459.62 432.94 465.48 430.19 468.25 428.75 C 471.02 427.31 471.00 426.81 471.75 426.12 C 472.50 425.44 472.58 425.10 472.75 424.62 C 472.92 424.15 472.98 423.67 472.75 423.25 C 472.52 422.83 472.58 422.50 471.38 422.12 C 470.17 421.75 478.83 421.56 465.50 421.00 C 452.17 420.44 411.04 419.48 391.38 418.75 C 371.71 418.02 361.23 417.46 347.50 416.62 C 333.77 415.79 320.08 414.75 309.00 413.75 C 297.92 412.75 289.62 411.79 281.00 410.62 C 272.38 409.46 265.90 408.40 257.25 406.75 C 248.60 405.10 239.67 403.25 229.12 400.75 C 218.58 398.25 206.98 395.33 194.00 391.75 C 181.02 388.17 160.67 381.85 151.25 379.25 C 141.83 376.65 142.46 377.08 137.50 376.12 C 132.54 375.17 131.17 373.88 121.50 373.50 C 111.83 373.12 89.71 373.67 79.50 373.88 C 69.29 374.08 68.50 374.58 60.25 374.75 C 52.00 374.92 35.44 374.81 30.00 374.88 C 24.56 374.94 28.31 374.83 27.62 375.12 C 26.94 375.42 26.15 375.90 25.88 376.62 Z" id="s-12-f-0"/>
<clipPath id="c-s-12"><use href="#s-12-f-0"/></clipPath>
</defs>
<g id="s-0" clip-path="url(#c-s-0)">
<use href="#s-0-f-0"/>
<path d="M 266.88 36.12 C 265.02 36.33 265.35 36.81 264.75 37.38 C 264.15 37.94 263.56 38.44 263.25 39.50 C 262.94 40.56 262.73 42.21 262.88 43.75 C 263.02 45.29 263.48 47.17 264.12 48.75 C 264.77 50.33 266.00 51.75 266.75 53.25 C 267.50 54.75 268.12 56.06 268.62 57.75 C 269.12 59.44 269.25 51.10 269.75 63.38 C 270.25 75.65 270.88 119.94 271.62 131.38 C 272.38 142.81 270.40 131.92 274.25 132.00 C 278.10 132.08 291.25 131.96 294.75 131.88 C 298.25 131.79 294.54 140.19 295.25 131.50 C 295.96 122.81 298.25 88.83 299.00 79.75 C 299.75 70.67 299.42 79.67 299.75 77.00 C 300.08 74.33 300.35 67.44 301.00 63.75 C 301.65 60.06 303.17 57.29 303.62 54.88 C 304.08 52.46 303.98 50.60 303.75 49.25 C 303.52 47.90 302.98 47.62 302.25 46.75 C 301.52 45.88 301.04 45.10 299.38 44.00 C 297.71 42.90 295.27 41.29 292.25 40.12 C 289.23 38.96 283.98 37.67 281.25 37.00 C 278.52 36.33 278.27 36.27 275.88 36.12 C 273.48 35.98 268.73 35.92 266.88 36.12 Z" id="s-0-f-1"/>
<path d="M 265.38 36.88 C 264.67 37.52 263.52 38.46 263.12 39.88 C 262.73 41.29 262.83 43.90 263.00 45.38 C 263.17 46.85 263.50 47.44 264.12 48.75 C 264.75 50.06 266.00 51.75 266.75 53.25 C 267.50 54.75 268.17 56.38 268.62 57.75 C 269.08 59.12 269.21 57.19 269.50 61.50 C 269.79 65.81 270.04 79.88 270.38 83.62 C 270.71 87.38 266.79 83.98 271.50 84.00 C 276.21 84.02 293.92 84.92 298.62 83.75 C 303.33 82.58 299.35 80.33 299.75 77.00 C 300.15 73.67 300.35 67.44 301.00 63.75 C 301.65 60.06 303.17 57.29 303.62 54.88 C 304.08 52.46 303.92 50.52 303.75 49.25 C 303.58 47.98 303.35 48.12 302.62 47.25 C 301.90 46.38 300.73 45.04 299.38 44.00 C 298.02 42.96 296.77 41.98 294.50 41.00 C 292.23 40.02 289.02 38.96 285.75 38.12 C 282.48 37.29 277.94 36.35 274.88 36.00 C 271.81 35.65 268.96 35.85 267.38 36.00 C 265.79 36.15 266.08 36.23 265.38 36.88 Z" id="s-0-f-2"/>
</g>
<g id="s-1" clip-path="url(#c-s-1)">
<use href="#s-1-f-0"/>
<path d="M 345.50 71.38 C 345.27 67.83 352.29 68.58 344.62 70.12 C 336.96 71.67 307.21 78.62 299.50 80.62 C 291.79 82.62 298.67 81.21 298.38 82.12 C 298.08 83.04 297.90 84.08 297.75 86.12 C 297.60 88.17 297.48 92.92 297.50 94.38 C 297.52 95.83 296.92 94.65 297.88 94.88 C 298.83 95.10 299.83 95.60 303.25 95.75 C 306.67 95.90 311.40 96.38 318.38 95.75 C 325.35 95.12 340.52 92.73 345.12 92.00 C 349.73 91.27 345.94 94.81 346.00 91.38 C 346.06 87.94 345.73 74.92 345.50 71.38 Z" id="s-1-f-1"/>
</g>
<g id="s-2" clip-path="url(#c-s-2)">
<use href="#s-2-f-0"/>
<path d="M 200.25 139.00 C 198.12 139.12 198.44 139.48 197.75 139.88 C 197.06 140.27 196.44 140.77 196.12 141.38 C 195.81 141.98 195.73 142.77 195.88 143.50 C 196.02 144.23 196.12 144.54 197.00 145.75 C 197.88 146.96 200.04 149.27 201.12 150.75 C 202.21 152.23 202.75 153.04 203.50 154.62 C 204.25 156.21 205.08 158.46 205.62 160.25 C 206.17 162.04 206.40 162.77 206.75 165.38 C 207.10 167.98 207.58 169.54 207.75 175.88 C 207.92 182.21 207.90 194.17 207.75 203.38 C 207.60 212.58 207.21 224.00 206.88 231.12 C 206.54 238.25 206.25 241.15 205.75 246.12 C 205.25 251.10 204.81 255.60 203.88 261.00 C 202.94 266.40 200.79 274.94 200.12 278.50 C 199.46 282.06 199.83 281.62 199.88 282.38 C 199.92 283.12 196.42 282.90 200.38 283.00 C 204.33 283.10 219.56 283.04 223.62 283.00 C 227.69 282.96 224.44 283.00 224.75 282.75 C 225.06 282.50 225.17 285.77 225.50 281.50 C 225.83 277.23 226.35 270.00 226.75 257.12 C 227.15 244.25 227.50 214.75 227.88 204.25 C 228.25 193.75 228.83 201.62 229.00 194.12 C 229.17 186.62 229.58 167.19 228.88 159.25 C 228.17 151.31 225.60 148.98 224.75 146.50 C 223.90 144.02 224.17 144.98 223.75 144.38 C 223.33 143.77 223.69 143.60 222.25 142.88 C 220.81 142.15 217.08 140.62 215.12 140.00 C 213.17 139.38 212.98 139.29 210.50 139.12 C 208.02 138.96 202.38 138.88 200.25 139.00 Z" id="s-2-f-1"/>
<path d="M 199.62 139.12 C 197.50 139.25 198.33 139.50 197.75 139.88 C 197.17 140.25 196.42 140.65 196.12 141.38 C 195.83 142.10 195.17 142.69 196.00 144.25 C 196.83 145.81 199.88 149.02 201.12 150.75 C 202.38 152.48 202.75 153.04 203.50 154.62 C 204.25 156.21 204.94 157.25 205.62 160.25 C 206.31 163.25 207.27 165.44 207.62 172.62 C 207.98 179.81 207.88 193.02 207.75 203.38 C 207.62 213.73 204.33 229.48 206.88 234.75 C 209.42 240.02 219.67 235.02 223.00 235.00 C 226.33 234.98 226.08 236.50 226.88 234.62 C 227.67 232.75 227.58 228.81 227.75 223.75 C 227.92 218.69 227.67 209.19 227.88 204.25 C 228.08 199.31 228.85 201.71 229.00 194.12 C 229.15 186.54 229.46 166.69 228.75 158.75 C 228.04 150.81 225.58 148.90 224.75 146.50 C 223.92 144.10 224.17 144.98 223.75 144.38 C 223.33 143.77 223.69 143.60 222.25 142.88 C 220.81 142.15 217.08 140.62 215.12 140.00 C 213.17 139.38 213.08 139.27 210.50 139.12 C 207.92 138.98 201.75 139.00 199.62 139.12 Z" id="s-2-f-2"/>
<path d="M 197.75 139.88 C 197.06 140.27 196.42 140.65 196.12 141.38 C 195.83 142.10 194.90 142.29 196.00 144.25 C 197.10 146.21 201.15 150.46 202.75 153.12 C 204.35 155.79 204.81 157.00 205.62 160.25 C 206.44 163.50 207.23 168.35 207.62 172.62 C 208.02 176.90 207.75 183.52 208.00 185.88 C 208.25 188.23 205.69 186.58 209.12 186.75 C 212.56 186.92 225.33 191.46 228.62 186.88 C 231.92 182.29 229.69 166.33 228.88 159.25 C 228.06 152.17 224.85 147.10 223.75 144.38 C 222.65 141.65 223.10 143.42 222.25 142.88 C 221.40 142.33 220.58 141.75 218.62 141.12 C 216.67 140.50 213.56 139.48 210.50 139.12 C 207.44 138.77 202.38 138.88 200.25 139.00 C 198.12 139.12 198.44 139.48 197.75 139.88 Z" id="s-2-f-3"/>
</g>
<g id="s-3" clip-path="url(#c-s-3)">
<use href="#s-3-f-0"/>
<path d="M 223.62 145.12 C 222.69 145.52 223.52 146.06 223.62 146.38 C 223.73 146.69 224.08 146.50 224.25 147.00 C 224.42 147.50 224.46 148.88 224.62 149.38 C 224.79 149.88 225.08 149.50 225.25 150.00 C 225.42 150.50 225.46 151.88 225.62 152.38 C 225.79 152.88 226.08 152.50 226.25 153.00 C 226.42 153.50 226.46 154.88 226.62 155.38 C 226.79 155.88 226.96 155.31 227.25 156.00 C 227.54 156.69 227.75 158.73 228.38 159.50 C 229.00 160.27 230.10 160.40 231.00 160.62 C 231.90 160.85 231.71 160.90 233.75 160.88 C 235.79 160.85 239.38 160.88 243.25 160.50 C 247.12 160.12 248.31 160.19 257.00 158.62 C 265.69 157.06 285.27 152.90 295.38 151.12 C 305.48 149.35 311.85 148.69 317.62 148.00 C 323.40 147.31 326.56 147.15 330.00 147.00 C 333.44 146.85 336.23 146.96 338.25 147.12 C 340.27 147.29 340.81 147.46 342.12 148.00 C 343.44 148.54 345.19 149.38 346.12 150.38 C 347.06 151.38 347.12 150.88 347.75 154.00 C 348.38 157.12 349.38 165.06 349.88 169.12 C 350.38 173.19 350.60 174.65 350.75 178.38 C 350.90 182.10 350.60 186.60 350.75 191.50 C 350.90 196.40 351.46 195.58 351.62 207.75 C 351.79 219.92 351.90 253.81 351.75 264.50 C 351.60 275.19 351.04 270.25 350.75 271.88 C 350.46 273.50 350.15 273.33 350.00 274.25 C 349.85 275.17 349.67 276.75 349.88 277.38 C 350.08 278.00 346.27 277.94 351.25 278.00 C 356.23 278.06 375.00 279.90 379.75 277.75 C 384.50 275.60 379.90 269.02 379.75 265.12 C 379.60 261.23 379.15 260.25 378.88 254.38 C 378.60 248.50 378.25 241.35 378.12 229.88 C 378.00 218.40 378.00 194.90 378.12 185.50 C 378.25 176.10 378.56 176.73 378.88 173.50 C 379.19 170.27 379.04 169.17 380.00 166.12 C 380.96 163.08 383.67 157.71 384.62 155.25 C 385.58 152.79 385.54 152.58 385.75 151.38 C 385.96 150.17 386.04 149.17 385.88 148.00 C 385.71 146.83 386.12 146.25 384.75 144.38 C 383.38 142.50 379.58 138.62 377.62 136.75 C 375.67 134.88 376.04 134.90 373.00 133.12 C 369.96 131.35 362.52 127.62 359.38 126.12 C 356.23 124.62 355.75 124.48 354.12 124.12 C 352.50 123.77 353.35 123.50 349.62 124.00 C 345.90 124.50 338.12 125.83 331.75 127.12 C 325.38 128.42 317.40 130.48 311.38 131.75 C 305.35 133.02 298.88 134.27 295.62 134.75 C 292.38 135.23 292.81 134.52 291.88 134.62 C 290.94 134.73 290.94 135.21 290.00 135.38 C 289.06 135.54 287.17 135.46 286.25 135.62 C 285.33 135.79 286.46 136.04 284.50 136.38 C 282.54 136.71 276.67 137.21 274.50 137.62 C 272.33 138.04 279.04 137.81 271.50 138.88 C 263.96 139.94 237.23 142.96 229.25 144.00 C 221.27 145.04 224.56 144.73 223.62 145.12 Z" id="s-3-f-1"/>
<path d="M 377.88 229.75 C 382.06 223.31 377.83 200.75 378.00 191.38 C 378.17 182.00 378.54 177.71 378.88 173.50 C 379.21 169.29 379.04 169.17 380.00 166.12 C 380.96 163.08 383.67 157.71 384.62 155.25 C 385.58 152.79 385.54 152.58 385.75 151.38 C 385.96 150.17 386.04 149.17 385.88 148.00 C 385.71 146.83 385.79 145.96 384.75 144.38 C 383.71 142.79 381.58 140.38 379.62 138.50 C 377.67 136.62 376.38 135.19 373.00 133.12 C 369.62 131.06 362.52 127.62 359.38 126.12 C 356.23 124.62 355.75 124.48 354.12 124.12 C 352.50 123.77 353.35 123.50 349.62 124.00 C 345.90 124.50 338.12 125.83 331.75 127.12 C 325.38 128.42 317.40 130.48 311.38 131.75 C 305.35 133.02 298.88 134.27 295.62 134.75 C 292.38 135.23 292.81 134.52 291.88 134.62 C 290.94 134.73 290.94 135.21 290.00 135.38 C 289.06 135.54 287.17 135.46 286.25 135.62 C 285.33 135.79 286.46 136.04 284.50 136.38 C 282.54 136.71 276.67 137.21 274.50 137.62 C 272.33 138.04 279.04 137.81 271.50 138.88 C 263.96 139.94 237.23 142.96 229.25 144.00 C 221.27 145.04 224.56 144.73 223.62 145.12 C 222.69 145.52 223.52 146.06 223.62 146.38 C 223.73 146.69 224.08 146.50 224.25 147.00 C 224.42 147.50 224.46 148.88 224.62 149.38 C 224.79 149.88 225.08 149.50 225.25 150.00 C 225.42 150.50 225.46 151.88 225.62 152.38 C 225.79 152.88 226.08 152.50 226.25 153.00 C 226.42 153.50 226.46 154.88 226.62 155.38 C 226.79 155.88 226.96 155.31 227.25 156.00 C 227.54 156.69 227.75 158.73 228.38 159.50 C 229.00 160.27 230.10 160.40 231.00 160.62 C 231.90 160.85 231.71 160.90 233.75 160.88 C 235.79 160.85 239.38 160.88 243.25 160.50 C 247.12 160.12 248.31 160.19 257.00 158.62 C 265.69 157.06 285.27 152.90 295.38 151.12 C 305.48 149.35 311.85 148.69 317.62 148.00 C 323.40 147.31 326.83 147.17 330.00 147.00 C 333.17 146.83 334.60 146.83 336.62 147.00 C 338.65 147.17 340.90 147.69 342.12 148.00 C 343.35 148.31 343.23 148.35 344.00 148.88 C 344.77 149.40 346.12 150.27 346.75 151.12 C 347.38 151.98 347.23 151.00 347.75 154.00 C 348.27 157.00 349.38 165.06 349.88 169.12 C 350.38 173.19 350.44 168.31 350.75 178.38 C 351.06 188.44 351.40 220.90 351.75 229.50 C 352.10 238.10 348.52 229.96 352.88 230.00 C 357.23 230.04 373.69 236.19 377.88 229.75 Z" id="s-3-f-2"/>
<path d="M 385.88 150.00 C 386.06 148.60 386.10 148.02 385.75 146.88 C 385.40 145.73 384.77 144.52 383.75 143.12 C 382.73 141.73 381.23 140.04 379.62 138.50 C 378.02 136.96 377.50 135.94 374.12 133.88 C 370.75 131.81 362.83 127.77 359.38 126.12 C 355.92 124.48 355.00 124.35 353.38 124.00 C 351.75 123.65 351.44 123.81 349.62 124.00 C 347.81 124.19 351.50 123.33 342.50 125.12 C 333.50 126.92 304.06 133.17 295.62 134.75 C 287.19 136.33 292.81 134.52 291.88 134.62 C 290.94 134.73 290.94 135.21 290.00 135.38 C 289.06 135.54 287.17 135.46 286.25 135.62 C 285.33 135.79 286.46 136.04 284.50 136.38 C 282.54 136.71 276.67 137.21 274.50 137.62 C 272.33 138.04 279.94 137.67 271.50 138.88 C 263.06 140.08 231.88 143.79 223.88 144.88 C 215.88 145.96 222.75 142.94 223.50 145.38 C 224.25 147.81 227.12 156.96 228.38 159.50 C 229.62 162.04 230.17 160.40 231.00 160.62 C 231.83 160.85 231.33 160.90 233.38 160.88 C 235.42 160.85 239.31 160.88 243.25 160.50 C 247.19 160.12 248.31 160.19 257.00 158.62 C 265.69 157.06 285.27 152.90 295.38 151.12 C 305.48 149.35 311.85 148.69 317.62 148.00 C 323.40 147.31 326.56 147.15 330.00 147.00 C 333.44 146.85 336.23 146.96 338.25 147.12 C 340.27 147.29 340.77 147.42 342.12 148.00 C 343.48 148.58 345.44 149.62 346.38 150.62 C 347.31 151.62 347.17 150.92 347.75 154.00 C 348.33 157.08 349.38 164.54 349.88 169.12 C 350.38 173.71 350.35 179.35 350.75 181.50 C 351.15 183.65 347.71 181.94 352.25 182.00 C 356.79 182.06 373.62 181.98 378.00 181.88 C 382.38 181.77 378.35 182.77 378.50 181.38 C 378.65 179.98 378.62 176.04 378.88 173.50 C 379.12 170.96 379.04 169.17 380.00 166.12 C 380.96 163.08 383.65 157.94 384.62 155.25 C 385.60 152.56 385.69 151.40 385.88 150.00 Z" id="s-3-f-3"/>
<path d="M 373.12 133.38 C 370.88 131.98 362.67 127.69 359.38 126.12 C 356.08 124.56 355.00 124.35 353.38 124.00 C 351.75 123.65 353.21 123.48 349.62 124.00 C 346.04 124.52 340.88 125.33 331.88 127.12 C 322.88 128.92 302.29 133.50 295.62 134.75 C 288.96 136.00 292.81 134.52 291.88 134.62 C 290.94 134.73 290.94 135.21 290.00 135.38 C 289.06 135.54 287.17 135.46 286.25 135.62 C 285.33 135.79 286.46 136.04 284.50 136.38 C 282.54 136.71 276.67 137.21 274.50 137.62 C 272.33 138.04 279.33 137.77 271.50 138.88 C 263.67 139.98 235.44 143.25 227.50 144.25 C 219.56 145.25 224.54 144.60 223.88 144.88 C 223.21 145.15 223.44 145.52 223.50 145.88 C 223.56 146.23 224.06 146.42 224.25 147.00 C 224.44 147.58 224.46 148.88 224.62 149.38 C 224.79 149.88 224.73 148.48 225.25 150.00 C 225.77 151.52 227.17 156.85 227.75 158.50 C 228.33 160.15 227.81 159.48 228.75 159.88 C 229.69 160.27 231.25 160.75 233.38 160.88 C 235.50 161.00 236.71 161.15 241.50 160.62 C 246.29 160.10 255.81 158.83 262.12 157.75 C 268.44 156.67 272.62 155.42 279.38 154.12 C 286.12 152.83 296.25 151.02 302.62 150.00 C 309.00 148.98 312.08 148.54 317.62 148.00 C 323.17 147.46 326.67 149.00 335.88 146.75 C 345.08 144.50 366.67 136.73 372.88 134.50 C 379.08 132.27 375.38 134.77 373.12 133.38 Z" id="s-3-f-4"/>
<path d="M 368.00 131.12 C 367.90 130.23 368.81 130.96 367.38 130.12 C 365.94 129.29 361.71 127.15 359.38 126.12 C 357.04 125.10 355.00 124.35 353.38 124.00 C 351.75 123.65 353.21 123.48 349.62 124.00 C 346.04 124.52 340.88 125.33 331.88 127.12 C 322.88 128.92 302.29 133.50 295.62 134.75 C 288.96 136.00 292.81 134.52 291.88 134.62 C 290.94 134.73 290.94 135.21 290.00 135.38 C 289.06 135.54 287.17 135.46 286.25 135.62 C 285.33 135.79 286.46 136.04 284.50 136.38 C 282.54 136.71 276.67 137.21 274.50 137.62 C 272.33 138.04 279.33 137.77 271.50 138.88 C 263.67 139.98 235.44 143.25 227.50 144.25 C 219.56 145.25 224.54 144.60 223.88 144.88 C 223.21 145.15 223.44 145.52 223.50 145.88 C 223.56 146.23 224.06 146.42 224.25 147.00 C 224.44 147.58 224.46 148.88 224.62 149.38 C 224.79 149.88 224.73 148.48 225.25 150.00 C 225.77 151.52 227.17 156.85 227.75 158.50 C 228.33 160.15 227.81 159.48 228.75 159.88 C 229.69 160.27 230.77 160.79 233.38 160.88 C 235.98 160.96 239.58 160.90 244.38 160.38 C 249.17 159.85 256.29 158.79 262.12 157.75 C 267.96 156.71 272.62 155.42 279.38 154.12 C 286.12 152.83 296.25 151.02 302.62 150.00 C 309.00 148.98 312.08 148.54 317.62 148.00 C 323.17 147.46 327.79 148.60 335.88 146.75 C 343.96 144.90 360.77 138.75 366.12 136.88 C 371.48 135.00 367.69 136.46 368.00 135.50 C 368.31 134.54 368.10 132.02 368.00 131.12 Z" id="s-3-f-5"/>
<path d="M 320.00 130.25 C 319.71 127.48 322.31 129.25 318.25 130.00 C 314.19 130.75 300.02 133.98 295.62 134.75 C 291.23 135.52 292.81 134.52 291.88 134.62 C 290.94 134.73 290.94 135.21 290.00 135.38 C 289.06 135.54 287.17 135.46 286.25 135.62 C 285.33 135.79 286.46 136.04 284.50 136.38 C 282.54 136.71 276.67 137.21 274.50 137.62 C 272.33 138.04 279.94 137.67 271.50 138.88 C 263.06 140.08 231.88 143.71 223.88 144.88 C 215.88 146.04 223.44 145.52 223.50 145.88 C 223.56 146.23 224.06 146.42 224.25 147.00 C 224.44 147.58 224.46 148.88 224.62 149.38 C 224.79 149.88 224.73 148.48 225.25 150.00 C 225.77 151.52 227.17 156.85 227.75 158.50 C 228.33 160.15 228.08 159.50 228.75 159.88 C 229.42 160.25 229.90 160.60 231.75 160.75 C 233.60 160.90 235.67 161.10 239.88 160.75 C 244.08 160.40 247.75 160.23 257.00 158.62 C 266.25 157.02 284.98 152.92 295.38 151.12 C 305.77 149.33 315.27 148.62 319.38 147.88 C 323.48 147.12 319.90 149.56 320.00 146.62 C 320.10 143.69 320.29 133.02 320.00 130.25 Z" id="s-3-f-6"/>
<path d="M 271.75 155.62 C 273.40 152.69 272.02 142.90 272.00 140.12 C 271.98 137.35 278.94 138.33 271.62 139.00 C 264.31 139.67 236.08 143.15 228.12 144.12 C 220.17 145.10 224.65 144.67 223.88 144.88 C 223.10 145.08 222.85 143.10 223.50 145.38 C 224.15 147.65 226.88 156.08 227.75 158.50 C 228.62 160.92 228.21 159.52 228.75 159.88 C 229.29 160.23 229.71 160.46 231.00 160.62 C 232.29 160.79 234.27 160.92 236.50 160.88 C 238.73 160.83 240.10 160.90 244.38 160.38 C 248.65 159.85 257.56 158.54 262.12 157.75 C 266.69 156.96 270.10 158.56 271.75 155.62 Z" id="s-3-f-7"/>
</g>
<g id="s-4" clip-path="url(#c-s-4)">
<use href="#s-4-f-0"/>
<path d="M 324.00 177.50 C 323.77 174.31 324.60 176.62 322.50 177.00 C 320.40 177.38 318.90 178.29 311.38 179.75 C 303.85 181.21 287.69 184.06 277.38 185.75 C 267.06 187.44 257.38 188.83 249.50 189.88 C 241.62 190.92 233.65 191.50 230.12 192.00 C 226.60 192.50 228.77 192.17 228.38 192.88 C 227.98 193.58 227.90 194.50 227.75 196.25 C 227.60 198.00 226.98 201.96 227.50 203.38 C 228.02 204.79 229.58 204.38 230.88 204.75 C 232.17 205.12 232.15 205.46 235.25 205.62 C 238.35 205.79 234.94 207.23 249.50 205.75 C 264.06 204.27 310.23 198.35 322.62 196.75 C 335.02 195.15 323.65 199.33 323.88 196.12 C 324.10 192.92 324.23 180.69 324.00 177.50 Z" id="s-4-f-1"/>
<path d="M 275.50 187.00 C 275.23 184.52 278.71 185.52 274.38 186.00 C 270.04 186.48 257.08 188.81 249.50 189.88 C 241.92 190.94 232.50 191.31 228.88 192.38 C 225.25 193.44 227.98 194.42 227.75 196.25 C 227.52 198.08 226.98 201.96 227.50 203.38 C 228.02 204.79 229.58 204.38 230.88 204.75 C 232.17 205.12 232.81 205.44 235.25 205.62 C 237.69 205.81 241.44 206.02 245.50 205.88 C 249.56 205.73 254.65 205.27 259.62 204.75 C 264.60 204.23 272.65 203.40 275.38 202.75 C 278.10 202.10 275.98 203.50 276.00 200.88 C 276.02 198.25 275.77 189.48 275.50 187.00 Z" id="s-4-f-2"/>
</g>
<g id="s-5" clip-path="url(#c-s-5)">
<use href="#s-5-f-0"/>
<path d="M 323.00 225.00 C 322.92 221.94 325.98 223.54 322.50 224.00 C 319.02 224.46 309.73 226.46 302.12 227.75 C 294.52 229.04 284.98 230.58 276.88 231.75 C 268.77 232.92 261.81 233.85 253.50 234.75 C 245.19 235.65 231.50 236.65 227.00 237.12 C 222.50 237.60 226.58 235.90 226.50 237.62 C 226.42 239.35 226.19 245.65 226.50 247.50 C 226.81 249.35 227.06 248.38 228.38 248.75 C 229.69 249.12 230.33 249.60 234.38 249.75 C 238.42 249.90 241.31 250.33 252.62 249.62 C 263.94 248.92 290.62 246.62 302.25 245.50 C 313.88 244.38 318.92 243.40 322.38 242.88 C 325.83 242.35 322.90 245.35 323.00 242.38 C 323.10 239.40 323.08 228.06 323.00 225.00 Z" id="s-5-f-1"/>
<path d="M 274.38 232.62 C 274.02 232.10 276.23 231.77 272.75 232.12 C 269.27 232.48 261.12 233.92 253.50 234.75 C 245.88 235.58 231.50 236.65 227.00 237.12 C 222.50 237.60 226.58 235.90 226.50 237.62 C 226.42 239.35 226.19 245.65 226.50 247.50 C 226.81 249.35 227.40 248.42 228.38 248.75 C 229.35 249.08 230.29 249.31 232.38 249.50 C 234.46 249.69 237.52 249.85 240.88 249.88 C 244.23 249.90 246.94 249.96 252.50 249.62 C 258.06 249.29 270.50 248.29 274.25 247.88 C 278.00 247.46 274.90 249.23 275.00 247.12 C 275.10 245.02 274.98 237.67 274.88 235.25 C 274.77 232.83 274.73 233.15 274.38 232.62 Z" id="s-5-f-2"/>
</g>
<g id="s-6" clip-path="url(#c-s-6)">
<use href="#s-6-f-0"/>
<path d="M 320.00 277.38 C 319.46 274.25 325.04 276.06 316.62 277.12 C 308.21 278.19 284.81 281.96 269.50 283.75 C 254.19 285.54 232.40 286.17 224.75 287.88 C 217.10 289.58 223.83 291.73 223.62 294.00 C 223.42 296.27 222.73 300.04 223.50 301.50 C 224.27 302.96 224.21 302.52 228.25 302.75 C 232.29 302.98 242.15 303.00 247.75 302.88 C 253.35 302.75 256.79 302.48 261.88 302.00 C 266.96 301.52 268.69 300.90 278.25 300.00 C 287.81 299.10 312.31 297.31 319.25 296.62 C 326.19 295.94 319.75 299.08 319.88 295.88 C 320.00 292.67 320.54 280.50 320.00 277.38 Z" id="s-6-f-1"/>
<path d="M 271.88 283.88 C 271.71 281.23 274.73 283.04 271.00 283.38 C 267.27 283.71 257.21 285.12 249.50 285.88 C 241.79 286.62 229.06 286.52 224.75 287.88 C 220.44 289.23 223.83 291.73 223.62 294.00 C 223.42 296.27 222.69 300.04 223.50 301.50 C 224.31 302.96 225.00 302.50 228.50 302.75 C 232.00 303.00 238.94 303.12 244.50 303.00 C 250.06 302.88 257.33 302.44 261.88 302.00 C 266.42 301.56 270.06 300.83 271.75 300.38 C 273.44 299.92 271.98 302.00 272.00 299.25 C 272.02 296.50 272.04 286.52 271.88 283.88 Z" id="s-6-f-2"/>
</g>
<g id="s-7" clip-path="url(#c-s-7)">
<use href="#s-7-f-0"/>
<path d="M 272.88 310.62 C 272.02 309.48 270.23 307.19 268.62 305.88 C 267.02 304.56 264.31 303.46 263.25 302.75 C 262.19 302.04 264.52 301.81 262.25 301.62 C 259.98 301.44 253.10 301.48 249.62 301.62 C 246.15 301.77 243.02 301.15 241.38 302.50 C 239.73 303.85 241.35 306.38 239.75 309.75 C 238.15 313.12 234.25 319.00 231.75 322.75 C 229.25 326.50 227.08 329.31 224.75 332.25 C 222.42 335.19 220.31 337.58 217.75 340.38 C 215.19 343.17 210.79 347.46 209.38 349.00 C 207.96 350.54 208.98 349.46 209.25 349.62 C 209.52 349.79 206.62 349.98 211.00 350.00 C 215.38 350.02 230.31 350.71 235.50 349.75 C 240.69 348.79 238.33 347.69 242.12 344.25 C 245.92 340.81 254.77 332.27 258.25 329.12 C 261.73 325.98 260.96 326.81 263.00 325.38 C 265.04 323.94 268.85 321.71 270.50 320.50 C 272.15 319.29 272.31 318.94 272.88 318.12 C 273.44 317.31 273.73 316.52 273.88 315.62 C 274.02 314.73 273.92 313.58 273.75 312.75 C 273.58 311.92 273.73 311.77 272.88 310.62 Z" id="s-7-f-1"/>
</g>
<g id="s-8" clip-path="url(#c-s-8)">
<use href="#s-8-f-0"/>
<path d="M 302.75 313.00 C 301.71 313.19 302.00 313.73 301.88 314.25 C 301.75 314.77 301.60 315.25 302.00 316.12 C 302.40 317.00 300.90 315.92 304.25 319.50 C 307.60 323.08 317.73 332.98 322.12 337.62 C 326.52 342.27 326.67 342.60 330.62 347.38 C 334.58 352.15 342.71 362.46 345.88 366.25 C 349.04 370.04 348.94 369.94 349.62 370.12 C 350.31 370.31 349.94 373.79 350.00 367.38 C 350.06 360.96 350.06 338.04 350.00 331.62 C 349.94 325.21 351.94 330.46 349.62 328.88 C 347.31 327.29 341.02 324.25 336.12 322.12 C 331.23 320.00 324.92 317.62 320.25 316.12 C 315.58 314.62 311.04 313.65 308.12 313.12 C 305.21 312.60 303.79 312.81 302.75 313.00 Z" id="s-8-f-1"/>
</g>
<g id="s-9" clip-path="url(#c-s-9)">
<use href="#s-9-f-0"/>
<path d="M 60.50 104.75 C 60.10 105.19 59.38 105.92 59.12 106.62 C 58.88 107.33 58.33 107.88 59.00 109.00 C 59.67 110.12 61.00 110.69 63.12 113.38 C 65.25 116.06 68.46 120.85 71.75 125.12 C 75.04 129.40 79.62 135.17 82.88 139.00 C 86.12 142.83 88.71 145.54 91.25 148.12 C 93.79 150.71 96.27 152.90 98.12 154.50 C 99.98 156.10 101.12 156.90 102.38 157.75 C 103.62 158.60 104.94 159.31 105.62 159.62 C 106.31 159.94 106.29 159.71 106.50 159.62 C 106.71 159.54 106.79 166.27 106.88 159.12 C 106.96 151.98 107.04 124.33 107.00 116.75 C 106.96 109.17 107.25 114.40 106.62 113.62 C 106.00 112.85 105.02 112.73 103.25 112.12 C 101.48 111.52 100.62 111.19 96.00 110.00 C 91.38 108.81 80.71 106.02 75.50 105.00 C 70.29 103.98 67.08 104.04 64.75 103.88 C 62.42 103.71 62.21 103.85 61.50 104.00 C 60.79 104.15 60.90 104.31 60.50 104.75 Z" id="s-9-f-1"/>
</g>
<g id="s-10" clip-path="url(#c-s-10)">
<use href="#s-10-f-0"/>
<path d="M 144.88 236.00 C 144.77 235.00 144.65 234.54 144.00 233.50 C 143.35 232.46 143.29 231.67 141.00 229.75 C 138.71 227.83 133.56 224.10 130.25 222.00 C 126.94 219.90 123.69 218.29 121.12 217.12 C 118.56 215.96 116.40 215.38 114.88 215.00 C 113.35 214.62 113.02 214.71 112.00 214.88 C 110.98 215.04 112.73 214.02 108.75 216.00 C 104.77 217.98 94.33 223.77 88.12 226.75 C 81.92 229.73 77.17 231.71 71.50 233.88 C 65.83 236.04 59.98 238.02 54.12 239.75 C 48.27 241.48 39.60 243.38 36.38 244.25 C 33.15 245.12 35.44 244.50 34.75 245.00 C 34.06 245.50 32.73 246.52 32.25 247.25 C 31.77 247.98 31.73 248.75 31.88 249.38 C 32.02 250.00 32.50 250.44 33.12 251.00 C 33.75 251.56 33.90 252.00 35.62 252.75 C 37.35 253.50 40.27 254.98 43.50 255.50 C 46.73 256.02 52.15 255.85 55.00 255.88 C 57.85 255.90 58.56 255.83 60.62 255.62 C 62.69 255.42 61.73 255.73 67.38 254.62 C 73.02 253.52 89.46 249.90 94.50 249.00 C 99.54 248.10 96.75 248.88 97.62 249.25 C 98.50 249.62 99.56 250.04 99.75 251.25 C 99.94 252.46 100.73 251.00 98.75 256.50 C 96.77 262.00 89.25 279.52 87.88 284.25 C 86.50 288.98 87.62 284.75 90.50 284.88 C 93.38 285.00 102.52 285.00 105.12 285.00 C 107.73 285.00 105.77 285.06 106.12 284.88 C 106.48 284.69 103.73 288.12 107.25 283.88 C 110.77 279.62 121.48 266.00 127.25 259.38 C 133.02 252.75 138.98 247.44 141.88 244.12 C 144.77 240.81 144.12 240.85 144.62 239.50 C 145.12 238.15 144.98 237.00 144.88 236.00 Z" id="s-10-f-1"/>
<path d="M 144.88 235.62 C 144.52 234.69 143.29 232.35 142.50 231.25 C 141.71 230.15 142.44 230.71 140.12 229.00 C 137.81 227.29 132.29 223.17 128.62 221.00 C 124.96 218.83 120.42 217.00 118.12 216.00 C 115.83 215.00 115.90 215.19 114.88 215.00 C 113.85 214.81 113.02 214.71 112.00 214.88 C 110.98 215.04 112.73 214.02 108.75 216.00 C 104.77 217.98 94.33 223.77 88.12 226.75 C 81.92 229.73 77.17 231.71 71.50 233.88 C 65.83 236.04 59.98 238.02 54.12 239.75 C 48.27 241.48 39.94 243.10 36.38 244.25 C 32.81 245.40 33.48 246.06 32.75 246.62 C 32.02 247.19 32.15 247.17 32.00 247.62 C 31.85 248.08 31.75 248.88 31.88 249.38 C 32.00 249.88 32.17 250.08 32.75 250.62 C 33.33 251.17 33.58 251.81 35.38 252.62 C 37.17 253.44 41.04 254.96 43.50 255.50 C 45.96 256.04 47.27 255.85 50.12 255.88 C 52.98 255.90 56.85 256.00 60.62 255.62 C 64.40 255.25 68.04 254.58 72.75 253.62 C 77.46 252.67 83.50 251.00 88.88 249.88 C 94.25 248.75 96.08 248.88 105.00 246.88 C 113.92 244.88 135.77 239.54 142.38 237.88 C 148.98 236.21 144.21 237.25 144.62 236.88 C 145.04 236.50 145.23 236.56 144.88 235.62 Z" id="s-10-f-2"/>
<path d="M 127.88 221.12 C 127.75 217.79 128.06 220.77 127.25 220.25 C 126.44 219.73 125.06 218.88 123.00 218.00 C 120.94 217.12 116.85 215.50 114.88 215.00 C 112.90 214.50 114.88 213.38 111.12 215.00 C 107.38 216.62 98.98 221.60 92.38 224.75 C 85.77 227.90 77.88 231.38 71.50 233.88 C 65.12 236.38 59.98 238.02 54.12 239.75 C 48.27 241.48 39.98 243.06 36.38 244.25 C 32.77 245.44 33.25 246.02 32.50 246.88 C 31.75 247.73 31.83 248.75 31.88 249.38 C 31.92 250.00 32.19 250.10 32.75 250.62 C 33.31 251.15 33.46 251.69 35.25 252.50 C 37.04 253.31 39.48 254.96 43.50 255.50 C 47.52 256.04 55.40 255.90 59.38 255.75 C 63.35 255.60 62.54 255.58 67.38 254.62 C 72.21 253.67 82.81 251.12 88.38 250.00 C 93.94 248.88 94.23 249.33 100.75 247.88 C 107.27 246.42 122.96 242.52 127.50 241.25 C 132.04 239.98 127.94 243.60 128.00 240.25 C 128.06 236.90 128.00 224.46 127.88 221.12 Z" id="s-10-f-3"/>
<path d="M 79.88 231.00 C 79.71 227.52 80.15 230.27 78.75 230.75 C 77.35 231.23 75.04 232.54 71.50 233.88 C 67.96 235.21 63.35 237.02 57.50 238.75 C 51.65 240.48 40.54 242.90 36.38 244.25 C 32.21 245.60 33.25 246.21 32.50 246.88 C 31.75 247.54 31.96 247.77 31.88 248.25 C 31.79 248.73 31.42 249.02 32.00 249.75 C 32.58 250.48 33.88 251.79 35.38 252.62 C 36.88 253.46 39.31 254.23 41.00 254.75 C 42.69 255.27 42.23 255.60 45.50 255.75 C 48.77 255.90 55.02 256.23 60.62 255.62 C 66.23 255.02 75.94 252.79 79.12 252.12 C 82.31 251.46 79.62 255.15 79.75 251.62 C 79.88 248.10 80.04 234.48 79.88 231.00 Z" id="s-10-f-4"/>
</g>
<g id="s-11" clip-path="url(#c-s-11)">
<use href="#s-11-f-0"/>
<path d="M 85.00 293.00 C 84.81 293.42 84.77 294.27 85.00 295.00 C 85.23 295.73 85.25 296.19 86.38 297.38 C 87.50 298.56 89.19 298.83 91.75 302.12 C 94.31 305.42 99.10 312.65 101.75 317.12 C 104.40 321.60 106.00 325.08 107.62 329.00 C 109.25 332.92 110.54 338.62 111.50 340.62 C 112.46 342.62 109.73 340.94 113.38 341.00 C 117.02 341.06 129.96 341.06 133.38 341.00 C 136.79 340.94 133.83 341.54 133.88 340.62 C 133.92 339.71 133.83 337.19 133.62 335.50 C 133.42 333.81 133.10 332.27 132.62 330.50 C 132.15 328.73 132.04 327.48 130.75 324.88 C 129.46 322.27 127.02 317.81 124.88 314.88 C 122.73 311.94 120.25 309.52 117.88 307.25 C 115.50 304.98 113.19 303.15 110.62 301.25 C 108.06 299.35 104.38 297.33 102.50 295.88 C 100.62 294.42 102.10 293.06 99.38 292.50 C 96.65 291.94 88.52 292.42 86.12 292.50 C 83.73 292.58 85.19 292.58 85.00 293.00 Z" id="s-11-f-1"/>
</g>
<g id="s-12" clip-path="url(#c-s-12)">
<use href="#s-12-f-0"/>
<path d="M 25.88 376.62 C 25.60 377.35 25.81 378.56 26.00 379.50 C 26.19 380.44 26.12 380.77 27.00 382.25 C 27.88 383.73 29.06 385.96 31.25 388.38 C 33.44 390.79 38.06 395.00 40.12 396.75 C 42.19 398.50 42.29 398.23 43.62 398.88 C 44.96 399.52 46.33 400.31 48.12 400.62 C 49.92 400.94 52.40 401.08 54.38 400.75 C 56.35 400.42 58.60 399.25 60.00 398.62 C 61.40 398.00 60.31 397.77 62.75 397.00 C 65.19 396.23 70.42 394.83 74.62 394.00 C 78.83 393.17 84.23 392.46 88.00 392.00 C 91.77 391.54 93.19 391.42 97.25 391.25 C 101.31 391.08 108.79 390.98 112.38 391.00 C 115.96 391.02 114.81 390.88 118.75 391.38 C 122.69 391.88 131.06 393.06 136.00 394.00 C 140.94 394.94 143.15 395.50 148.38 397.00 C 153.60 398.50 156.15 399.29 167.38 403.00 C 178.60 406.71 200.35 413.88 215.75 419.25 C 231.15 424.62 245.23 429.83 259.75 435.25 C 274.27 440.67 291.21 447.69 302.88 451.75 C 314.54 455.81 322.69 457.79 329.75 459.62 C 336.81 461.46 341.08 462.23 345.25 462.75 C 349.42 463.27 351.92 462.92 354.75 462.75 C 357.58 462.58 357.21 462.77 362.25 461.75 C 367.29 460.73 377.04 458.67 385.00 456.62 C 392.96 454.58 400.62 452.33 410.00 449.50 C 419.38 446.67 433.73 442.08 441.25 439.62 C 448.77 437.17 452.35 435.83 455.12 434.75 C 457.90 433.67 457.40 435.33 457.88 433.12 C 458.35 430.92 458.08 423.54 458.00 421.50 C 457.92 419.46 468.48 421.33 457.38 420.88 C 446.27 420.42 409.69 419.46 391.38 418.75 C 373.06 418.04 361.23 417.46 347.50 416.62 C 333.77 415.79 320.08 414.75 309.00 413.75 C 297.92 412.75 289.62 411.79 281.00 410.62 C 272.38 409.46 265.90 408.40 257.25 406.75 C 248.60 405.10 239.06 403.08 229.12 400.75 C 219.19 398.42 210.77 396.38 197.62 392.75 C 184.48 389.12 160.27 381.77 150.25 379.00 C 140.23 376.23 142.29 377.04 137.50 376.12 C 132.71 375.21 131.17 373.88 121.50 373.50 C 111.83 373.12 89.71 373.67 79.50 373.88 C 69.29 374.08 68.50 374.58 60.25 374.75 C 52.00 374.92 35.44 374.81 30.00 374.88 C 24.56 374.94 28.31 374.83 27.62 375.12 C 26.94 375.42 26.15 375.90 25.88 376.62 Z" id="s-12-f-1"/>
<path d="M 25.88 376.62 C 25.60 377.35 25.81 378.56 26.00 379.50 C 26.19 380.44 26.12 380.77 27.00 382.25 C 27.88 383.73 29.06 385.96 31.25 388.38 C 33.44 390.79 38.06 395.00 40.12 396.75 C 42.19 398.50 42.29 398.23 43.62 398.88 C 44.96 399.52 46.33 400.31 48.12 400.62 C 49.92 400.94 52.40 401.08 54.38 400.75 C 56.35 400.42 58.60 399.25 60.00 398.62 C 61.40 398.00 60.31 397.77 62.75 397.00 C 65.19 396.23 70.42 394.83 74.62 394.00 C 78.83 393.17 84.23 392.46 88.00 392.00 C 91.77 391.54 93.19 391.42 97.25 391.25 C 101.31 391.08 108.79 390.98 112.38 391.00 C 115.96 391.02 114.81 390.88 118.75 391.38 C 122.69 391.88 131.06 393.06 136.00 394.00 C 140.94 394.94 143.15 395.50 148.38 397.00 C 153.60 398.50 156.15 399.29 167.38 403.00 C 178.60 406.71 200.35 413.88 215.75 419.25 C 231.15 424.62 245.29 429.85 259.75 435.25 C 274.21 440.65 292.67 448.06 302.50 451.62 C 312.33 455.19 312.62 454.94 318.75 456.62 C 324.88 458.31 334.83 460.73 339.25 461.75 C 343.67 462.77 343.15 462.56 345.25 462.75 C 347.35 462.94 348.92 463.06 351.88 462.88 C 354.83 462.69 357.48 462.67 363.00 461.62 C 368.52 460.58 377.29 458.60 385.00 456.62 C 392.71 454.65 405.10 451.02 409.25 449.75 C 413.40 448.48 409.75 453.67 409.88 449.00 C 410.00 444.33 410.00 426.60 410.00 421.75 C 410.00 416.90 409.98 420.29 409.88 419.88 C 409.77 419.46 416.19 419.60 409.38 419.25 C 402.56 418.90 383.79 418.50 369.00 417.75 C 354.21 417.00 332.35 415.58 320.62 414.75 C 308.90 413.92 307.17 413.73 298.62 412.75 C 290.08 411.77 277.96 410.21 269.38 408.88 C 260.79 407.54 253.83 406.10 247.12 404.75 C 240.42 403.40 237.38 402.75 229.12 400.75 C 220.88 398.75 210.77 396.38 197.62 392.75 C 184.48 389.12 160.27 381.77 150.25 379.00 C 140.23 376.23 142.29 377.04 137.50 376.12 C 132.71 375.21 131.17 373.88 121.50 373.50 C 111.83 373.12 89.71 373.67 79.50 373.88 C 69.29 374.08 68.50 374.58 60.25 374.75 C 52.00 374.92 35.44 374.81 30.00 374.88 C 24.56 374.94 28.31 374.83 27.62 375.12 C 26.94 375.42 26.15 375.90 25.88 376.62 Z" id="s-12-f-2"/>
<path d="M 25.88 376.62 C 25.60 377.35 25.81 378.56 26.00 379.50 C 26.19 380.44 26.12 380.77 27.00 382.25 C 27.88 383.73 29.06 385.96 31.25 388.38 C 33.44 390.79 38.06 395.00 40.12 396.75 C 42.19 398.50 42.29 398.23 43.62 398.88 C 44.96 399.52 46.33 400.31 48.12 400.62 C 49.92 400.94 52.40 401.08 54.38 400.75 C 56.35 400.42 58.60 399.25 60.00 398.62 C 61.40 398.00 60.31 397.77 62.75 397.00 C 65.19 396.23 70.42 394.83 74.62 394.00 C 78.83 393.17 84.46 392.44 88.00 392.00 C 91.54 391.56 91.25 391.52 95.88 391.38 C 100.50 391.23 110.98 391.02 115.75 391.12 C 120.52 391.23 121.12 391.52 124.50 392.00 C 127.88 392.48 132.02 393.17 136.00 394.00 C 139.98 394.83 141.04 394.83 148.38 397.00 C 155.71 399.17 168.79 403.31 180.00 407.00 C 191.21 410.69 202.35 414.44 215.62 419.12 C 228.90 423.81 245.62 429.88 259.62 435.12 C 273.62 440.38 289.77 447.04 299.62 450.62 C 309.48 454.21 313.65 455.10 318.75 456.62 C 323.85 458.15 325.83 458.73 330.25 459.75 C 334.67 460.77 340.92 462.27 345.25 462.75 C 349.58 463.23 353.58 462.79 356.25 462.62 C 358.92 462.46 360.31 462.00 361.25 461.75 C 362.19 461.50 361.75 468.00 361.88 461.12 C 362.00 454.25 362.00 427.73 362.00 420.50 C 362.00 413.27 361.98 418.29 361.88 417.75 C 361.77 417.21 366.35 417.60 361.38 417.25 C 356.40 416.90 342.46 416.38 332.00 415.62 C 321.54 414.88 308.29 413.75 298.62 412.75 C 288.96 411.75 280.90 410.62 274.00 409.62 C 267.10 408.62 262.52 407.73 257.25 406.75 C 251.98 405.77 249.81 405.42 242.38 403.75 C 234.94 402.08 228.65 401.04 212.62 396.75 C 196.60 392.46 159.65 381.60 146.25 378.00 C 132.85 374.40 136.38 375.88 132.25 375.12 C 128.12 374.38 130.29 373.71 121.50 373.50 C 112.71 373.29 89.71 373.67 79.50 373.88 C 69.29 374.08 68.52 374.58 60.25 374.75 C 51.98 374.92 35.31 374.81 29.88 374.88 C 24.44 374.94 28.29 374.83 27.62 375.12 C 26.96 375.42 26.15 375.90 25.88 376.62 Z" id="s-12-f-3"/>
<path d="M 25.88 376.62 C 25.60 377.35 25.81 378.56 26.00 379.50 C 26.19 380.44 26.12 380.77 27.00 382.25 C 27.88 383.73 29.06 385.96 31.25 388.38 C 33.44 390.79 38.06 395.00 40.12 396.75 C 42.19 398.50 42.29 398.23 43.62 398.88 C 44.96 399.52 46.33 400.31 48.12 400.62 C 49.92 400.94 52.40 401.08 54.38 400.75 C 56.35 400.42 58.60 399.25 60.00 398.62 C 61.40 398.00 60.31 397.77 62.75 397.00 C 65.19 396.23 70.42 394.83 74.62 394.00 C 78.83 393.17 84.46 392.44 88.00 392.00 C 91.54 391.56 91.25 391.52 95.88 391.38 C 100.50 391.23 110.98 391.02 115.75 391.12 C 120.52 391.23 121.12 391.52 124.50 392.00 C 127.88 392.48 132.02 393.17 136.00 394.00 C 139.98 394.83 140.04 394.50 148.38 397.00 C 156.71 399.50 175.62 405.54 186.00 409.00 C 196.38 412.46 205.69 416.06 210.62 417.75 C 215.56 419.44 207.46 416.23 215.62 419.12 C 223.79 422.02 245.62 429.88 259.62 435.12 C 273.62 440.38 290.79 447.35 299.62 450.62 C 308.46 453.90 310.23 454.15 312.62 454.75 C 315.02 455.35 313.79 460.92 314.00 454.25 C 314.21 447.58 313.98 421.46 313.88 414.75 C 313.77 408.04 315.92 414.33 313.38 414.00 C 310.83 413.67 305.19 413.48 298.62 412.75 C 292.06 412.02 283.38 411.12 274.00 409.62 C 264.62 408.12 255.10 406.56 242.38 403.75 C 229.65 400.94 212.81 396.83 197.62 392.75 C 182.44 388.67 161.27 382.02 151.25 379.25 C 141.23 376.48 142.46 377.08 137.50 376.12 C 132.54 375.17 132.21 373.85 121.50 373.50 C 110.79 373.15 83.46 373.79 73.25 374.00 C 63.04 374.21 67.48 374.60 60.25 374.75 C 53.02 374.90 35.31 374.81 29.88 374.88 C 24.44 374.94 28.29 374.83 27.62 375.12 C 26.96 375.42 26.15 375.90 25.88 376.62 Z" id="s-12-f-4"/>
<path d="M 25.88 376.62 C 25.60 377.35 25.81 378.56 26.00 379.50 C 26.19 380.44 26.12 380.77 27.00 382.25 C 27.88 383.73 29.06 385.96 31.25 388.38 C 33.44 390.79 38.06 395.00 40.12 396.75 C 42.19 398.50 42.29 398.23 43.62 398.88 C 44.96 399.52 46.33 400.31 48.12 400.62 C 49.92 400.94 51.40 401.52 54.38 400.75 C 57.35 399.98 61.69 397.29 66.00 396.00 C 70.31 394.71 76.38 393.69 80.25 393.00 C 84.12 392.31 85.52 392.21 89.25 391.88 C 92.98 391.54 98.77 391.15 102.62 391.00 C 106.48 390.85 108.73 390.83 112.38 391.00 C 116.02 391.17 121.44 391.67 124.50 392.00 C 127.56 392.33 126.77 392.17 130.75 393.00 C 134.73 393.83 139.67 394.50 148.38 397.00 C 157.08 399.50 171.79 404.31 183.00 408.00 C 194.21 411.69 202.85 414.60 215.62 419.12 C 228.40 423.65 251.40 432.06 259.62 435.12 C 267.85 438.19 263.96 437.19 265.00 437.50 C 266.04 437.81 265.71 441.50 265.88 437.00 C 266.04 432.50 266.08 415.33 266.00 410.50 C 265.92 405.67 269.31 409.12 265.38 408.00 C 261.44 406.88 251.17 405.62 242.38 403.75 C 233.58 401.88 222.04 399.12 212.62 396.75 C 203.21 394.38 196.10 392.42 185.88 389.50 C 175.65 386.58 159.31 381.48 151.25 379.25 C 143.19 377.02 142.46 377.08 137.50 376.12 C 132.54 375.17 132.21 373.85 121.50 373.50 C 110.79 373.15 83.46 373.79 73.25 374.00 C 63.04 374.21 67.48 374.60 60.25 374.75 C 53.02 374.90 35.31 374.81 29.88 374.88 C 24.44 374.94 28.29 374.83 27.62 375.12 C 26.96 375.42 26.15 375.90 25.88 376.62 Z" id="s-12-f-5"/>
<path d="M 25.88 376.62 C 25.60 377.35 25.81 378.56 26.00 379.50 C 26.19 380.44 26.12 380.77 27.00 382.25 C 27.88 383.73 29.06 385.96 31.25 388.38 C 33.44 390.79 38.06 395.00 40.12 396.75 C 42.19 398.50 42.21 398.21 43.62 398.88 C 45.04 399.54 46.83 400.44 48.62 400.75 C 50.42 401.06 51.48 401.54 54.38 400.75 C 57.27 399.96 61.69 397.29 66.00 396.00 C 70.31 394.71 76.38 393.69 80.25 393.00 C 84.12 392.31 85.52 392.21 89.25 391.88 C 92.98 391.54 97.88 391.10 102.62 391.00 C 107.38 390.90 113.06 390.92 117.75 391.25 C 122.44 391.58 125.65 392.04 130.75 393.00 C 135.85 393.96 139.17 394.33 148.38 397.00 C 157.58 399.67 174.58 405.19 186.00 409.00 C 197.42 412.81 211.62 418.29 216.88 419.88 C 222.12 421.46 217.31 421.02 217.50 418.50 C 217.69 415.98 217.96 408.17 218.00 404.75 C 218.04 401.33 223.10 400.54 217.75 398.00 C 212.40 395.46 195.81 392.31 185.88 389.50 C 175.94 386.69 165.25 383.17 158.12 381.12 C 151.00 379.08 149.23 378.52 143.12 377.25 C 137.02 375.98 132.10 374.06 121.50 373.50 C 110.90 372.94 89.71 373.67 79.50 373.88 C 69.29 374.08 68.52 374.58 60.25 374.75 C 51.98 374.92 35.31 374.81 29.88 374.88 C 24.44 374.94 28.29 374.83 27.62 375.12 C 26.96 375.42 26.15 375.90 25.88 376.62 Z" id="s-12-f-6"/>
<path d="M 170.00 403.12 C 170.21 400.23 170.12 389.48 170.00 386.38 C 169.88 383.27 172.54 385.73 169.25 384.50 C 165.96 383.27 156.42 380.56 150.25 379.00 C 144.08 377.44 137.04 376.04 132.25 375.12 C 127.46 374.21 130.23 373.71 121.50 373.50 C 112.77 373.29 90.08 373.67 79.88 373.88 C 69.67 374.08 68.56 374.58 60.25 374.75 C 51.94 374.92 35.44 374.81 30.00 374.88 C 24.56 374.94 28.31 374.83 27.62 375.12 C 26.94 375.42 26.15 375.90 25.88 376.62 C 25.60 377.35 25.81 378.56 26.00 379.50 C 26.19 380.44 26.12 380.77 27.00 382.25 C 27.88 383.73 29.06 385.96 31.25 388.38 C 33.44 390.79 38.06 395.00 40.12 396.75 C 42.19 398.50 42.21 398.21 43.62 398.88 C 45.04 399.54 46.83 400.44 48.62 400.75 C 50.42 401.06 51.48 401.54 54.38 400.75 C 57.27 399.96 61.69 397.29 66.00 396.00 C 70.31 394.71 75.00 393.79 80.25 393.00 C 85.50 392.21 92.15 391.58 97.50 391.25 C 102.85 390.92 107.67 390.85 112.38 391.00 C 117.08 391.15 121.81 391.62 125.75 392.12 C 129.69 392.62 132.23 393.19 136.00 394.00 C 139.77 394.81 142.92 395.38 148.38 397.00 C 153.83 398.62 165.15 402.73 168.75 403.75 C 172.35 404.77 169.79 406.02 170.00 403.12 Z" id="s-12-f-7"/>
<path d="M 121.88 391.38 C 122.08 388.60 122.06 378.10 122.00 375.12 C 121.94 372.15 137.12 373.52 121.50 373.50 C 105.88 373.48 44.08 374.62 28.25 375.00 C 12.42 375.38 26.90 375.48 26.50 375.75 C 26.10 376.02 25.96 376.00 25.88 376.62 C 25.79 377.25 25.81 378.56 26.00 379.50 C 26.19 380.44 26.12 380.77 27.00 382.25 C 27.88 383.73 29.06 385.96 31.25 388.38 C 33.44 390.79 38.06 395.00 40.12 396.75 C 42.19 398.50 42.21 398.21 43.62 398.88 C 45.04 399.54 46.83 400.44 48.62 400.75 C 50.42 401.06 51.48 401.54 54.38 400.75 C 57.27 399.96 62.62 397.12 66.00 396.00 C 69.38 394.88 70.96 394.67 74.62 394.00 C 78.29 393.33 83.33 392.50 88.00 392.00 C 92.67 391.50 97.98 391.15 102.62 391.00 C 107.27 390.85 112.85 391.00 115.88 391.12 C 118.90 391.25 119.75 391.71 120.75 391.75 C 121.75 391.79 121.67 394.15 121.88 391.38 Z" id="s-12-f-8"/>
<path d="M 73.88 393.62 C 74.02 390.50 74.06 379.02 74.00 375.75 C 73.94 372.48 75.79 374.17 73.50 374.00 C 71.21 373.83 67.77 374.58 60.25 374.75 C 52.73 374.92 34.00 374.83 28.38 375.00 C 22.75 375.17 26.92 375.48 26.50 375.75 C 26.08 376.02 25.96 376.00 25.88 376.62 C 25.79 377.25 25.81 378.56 26.00 379.50 C 26.19 380.44 26.00 380.62 27.00 382.25 C 28.00 383.88 29.81 386.83 32.00 389.25 C 34.19 391.67 37.92 395.02 40.12 396.75 C 42.33 398.48 43.83 398.96 45.25 399.62 C 46.67 400.29 47.15 400.56 48.62 400.75 C 50.10 400.94 52.56 400.96 54.12 400.75 C 55.69 400.54 56.56 400.12 58.00 399.50 C 59.44 398.88 60.23 397.83 62.75 397.00 C 65.27 396.17 71.27 395.06 73.12 394.50 C 74.98 393.94 73.73 396.75 73.88 393.62 Z" id="s-12-f-9"/>
</g>
</svg>