<?xml version="1.0" encoding="UTF-8"?>
<svg xmlns="http://www.w3.org/2000/svg" viewBox="0 0 500 500">
<defs>
<path d="M 68.50 88.00 C 65.60 87.71 61.69 87.88 59.75 88.25 C 57.81 88.62 57.52 89.46 56.88 90.25 C 56.23 91.04 55.98 92.00 55.88 93.00 C 55.77 94.00 55.27 93.69 56.25 96.25 C 57.23 98.81 60.65 105.65 61.75 108.38 C 62.85 111.10 62.21 107.50 62.88 112.62 C 63.54 117.75 65.10 131.29 65.75 139.12 C 66.40 146.96 66.58 147.50 66.75 159.62 C 66.92 171.75 66.92 198.15 66.75 211.88 C 66.58 225.60 66.27 232.60 65.75 242.00 C 65.23 251.40 64.08 263.52 63.62 268.25 C 63.17 272.98 63.48 266.88 63.00 270.38 C 62.52 273.88 61.62 283.50 60.75 289.25 C 59.88 295.00 58.92 299.54 57.75 304.88 C 56.58 310.21 55.29 315.73 53.75 321.25 C 52.21 326.77 50.67 331.94 48.50 338.00 C 46.33 344.06 43.04 352.35 40.75 357.62 C 38.46 362.90 37.10 365.25 34.75 369.62 C 32.40 374.00 29.58 379.10 26.62 383.88 C 23.67 388.65 18.60 395.56 17.00 398.25 C 15.40 400.94 16.79 399.56 17.00 400.00 C 17.21 400.44 17.60 400.77 18.25 400.88 C 18.90 400.98 19.50 401.19 20.88 400.62 C 22.25 400.06 24.12 399.10 26.50 397.50 C 28.88 395.90 32.58 393.08 35.12 391.00 C 37.67 388.92 38.73 388.35 41.75 385.00 C 44.77 381.65 50.56 374.29 53.25 370.88 C 55.94 367.46 56.15 367.15 57.88 364.50 C 59.60 361.85 61.81 358.29 63.62 355.00 C 65.44 351.71 66.90 349.38 68.75 344.75 C 70.60 340.12 72.77 333.96 74.75 327.25 C 76.73 320.54 78.81 312.73 80.62 304.50 C 82.44 296.27 84.44 284.77 85.62 277.88 C 86.81 270.98 87.08 268.58 87.75 263.12 C 88.42 257.67 89.23 250.81 89.62 245.12 C 90.02 239.44 89.77 234.90 90.12 229.00 C 90.48 223.10 91.42 224.06 91.75 209.75 C 92.08 195.44 91.75 157.10 92.12 143.12 C 92.50 129.15 93.38 130.52 94.00 125.88 C 94.62 121.23 95.42 117.29 95.88 115.25 C 96.33 113.21 96.58 114.33 96.75 113.62 C 96.92 112.92 97.67 113.62 96.88 111.00 C 96.08 108.38 93.15 100.50 92.00 97.88 C 90.85 95.25 90.79 95.79 90.00 95.25 C 89.21 94.71 88.12 94.98 87.25 94.62 C 86.38 94.27 86.44 93.90 84.75 93.12 C 83.06 92.35 79.83 90.85 77.12 90.00 C 74.42 89.15 71.40 88.29 68.50 88.00 Z" id="s-0-f-0"/>
<clipPath id="c-s-0"><use href="#s-0-f-0"/></clipPath>
<path d="M 90.50 96.38 C 90.60 97.04 91.31 99.15 91.62 99.88 C 91.94 100.60 92.04 99.85 92.38 100.75 C 92.71 101.65 93.29 104.35 93.62 105.25 C 93.96 106.15 94.21 105.69 94.38 106.12 C 94.54 106.56 94.46 107.44 94.62 107.88 C 94.79 108.31 95.10 108.02 95.38 108.75 C 95.65 109.48 96.06 111.73 96.25 112.25 C 96.44 112.77 95.02 111.96 96.50 111.88 C 97.98 111.79 102.46 111.94 105.12 111.75 C 107.79 111.56 108.58 111.54 112.50 110.75 C 116.42 109.96 113.12 109.94 128.62 107.00 C 144.12 104.06 191.21 95.60 205.50 93.12 C 219.79 90.65 211.48 92.31 214.38 92.12 C 217.27 91.94 221.02 91.83 222.88 92.00 C 224.73 92.17 224.83 92.73 225.50 93.12 C 226.17 93.52 226.33 93.54 226.88 94.38 C 227.42 95.21 228.27 96.44 228.75 98.12 C 229.23 99.81 229.88 92.17 229.75 104.50 C 229.62 116.83 228.27 148.40 228.00 172.12 C 227.73 195.85 227.79 229.62 228.12 246.88 C 228.46 264.12 229.35 268.02 230.00 275.62 C 230.65 283.23 231.17 286.90 232.00 292.50 C 232.83 298.10 234.00 304.33 235.00 309.25 C 236.00 314.17 236.81 317.69 238.00 322.00 C 239.19 326.31 240.77 331.31 242.12 335.12 C 243.48 338.94 244.48 341.31 246.12 344.88 C 247.77 348.44 250.04 352.92 252.00 356.50 C 253.96 360.08 255.17 362.35 257.88 366.38 C 260.58 370.40 264.77 376.33 268.25 380.62 C 271.73 384.92 275.33 388.69 278.75 392.12 C 282.17 395.56 285.40 398.50 288.75 401.25 C 292.10 404.00 295.79 406.54 298.88 408.62 C 301.96 410.71 304.17 412.06 307.25 413.75 C 310.33 415.44 314.46 417.42 317.38 418.75 C 320.29 420.08 321.54 420.60 324.75 421.75 C 327.96 422.90 332.60 424.48 336.62 425.62 C 340.65 426.77 345.00 427.79 348.88 428.62 C 352.75 429.46 355.65 429.98 359.88 430.62 C 364.10 431.27 367.46 431.96 374.25 432.50 C 381.04 433.04 391.98 433.67 400.62 433.88 C 409.27 434.08 419.31 433.96 426.12 433.75 C 432.94 433.54 436.60 433.12 441.50 432.62 C 446.40 432.12 451.04 431.58 455.50 430.75 C 459.96 429.92 465.10 428.65 468.25 427.62 C 471.40 426.60 472.77 425.67 474.38 424.62 C 475.98 423.58 477.00 422.48 477.88 421.38 C 478.75 420.27 479.31 419.48 479.62 418.00 C 479.94 416.52 480.29 415.08 479.75 412.50 C 479.21 409.92 477.33 405.06 476.38 402.50 C 475.42 399.94 474.90 399.98 474.00 397.12 C 473.10 394.27 471.98 390.02 471.00 385.38 C 470.02 380.73 469.19 377.29 468.12 369.25 C 467.06 361.21 465.40 342.98 464.62 337.12 C 463.85 331.27 463.90 334.83 463.50 334.12 C 463.10 333.42 462.69 333.06 462.25 332.88 C 461.81 332.69 461.42 332.54 460.88 333.00 C 460.33 333.46 459.52 334.06 459.00 335.62 C 458.48 337.19 459.62 335.54 457.75 342.38 C 455.88 349.21 449.77 369.94 447.75 376.62 C 445.73 383.31 446.65 380.25 445.62 382.50 C 444.60 384.75 443.10 387.98 441.62 390.12 C 440.15 392.27 437.92 394.27 436.75 395.38 C 435.58 396.48 435.83 396.17 434.62 396.75 C 433.42 397.33 431.38 398.23 429.50 398.88 C 427.62 399.52 427.21 400.02 423.38 400.62 C 419.54 401.23 412.46 402.15 406.50 402.50 C 400.54 402.85 393.71 402.90 387.62 402.75 C 381.54 402.60 374.85 402.10 370.00 401.62 C 365.15 401.15 362.02 400.52 358.50 399.88 C 354.98 399.23 352.17 398.60 348.88 397.75 C 345.58 396.90 342.23 395.94 338.75 394.75 C 335.27 393.56 330.88 391.81 328.00 390.62 C 325.12 389.44 324.10 388.98 321.50 387.62 C 318.90 386.27 315.92 384.98 312.38 382.50 C 308.83 380.02 304.62 376.81 300.25 372.75 C 295.88 368.69 290.17 362.81 286.12 358.12 C 282.08 353.44 278.54 348.23 276.00 344.62 C 273.46 341.02 273.38 341.08 270.88 336.50 C 268.38 331.92 262.96 321.44 261.00 317.12 C 259.04 312.81 259.79 313.44 259.12 310.62 C 258.46 307.81 257.83 305.56 257.00 300.25 C 256.17 294.94 254.79 284.79 254.12 278.75 C 253.46 272.71 253.35 271.00 253.00 264.00 C 252.65 257.00 252.15 246.46 252.00 236.75 C 251.85 227.04 251.79 217.23 252.12 205.75 C 252.46 194.27 253.35 178.50 254.00 167.88 C 254.65 157.25 255.33 148.35 256.00 142.00 C 256.67 135.65 256.83 135.56 258.00 129.75 C 259.17 123.94 261.54 112.71 263.00 107.12 C 264.46 101.54 266.10 98.65 266.75 96.25 C 267.40 93.85 267.02 93.88 266.88 92.75 C 266.73 91.62 266.54 90.88 265.88 89.50 C 265.21 88.12 264.17 86.25 262.88 84.50 C 261.58 82.75 259.69 80.60 258.12 79.00 C 256.56 77.40 255.85 76.69 253.50 74.88 C 251.15 73.06 246.25 69.58 244.00 68.12 C 241.75 66.67 241.29 66.65 240.00 66.12 C 238.71 65.60 237.83 65.17 236.25 65.00 C 234.67 64.83 234.27 64.46 230.50 65.12 C 226.73 65.79 222.48 66.73 213.62 69.00 C 204.77 71.27 188.38 75.96 177.38 78.75 C 166.38 81.54 157.58 83.58 147.62 85.75 C 137.67 87.92 126.50 90.19 117.62 91.75 C 108.75 93.31 98.81 94.44 94.38 95.12 C 89.94 95.81 91.65 95.67 91.00 95.88 C 90.35 96.08 90.40 95.71 90.50 96.38 Z" id="s-1-f-0"/>
<clipPath id="c-s-1"><use href="#s-1-f-0"/></clipPath>
<path d="M 213.88 164.12 C 213.44 163.23 212.10 161.85 211.00 161.00 C 209.90 160.15 208.77 159.67 207.25 159.00 C 205.73 158.33 204.83 157.65 201.88 157.00 C 198.92 156.35 192.75 155.48 189.50 155.12 C 186.25 154.77 187.23 153.75 182.38 154.88 C 177.52 156.00 166.58 160.06 160.38 161.88 C 154.17 163.69 150.62 164.46 145.12 165.75 C 139.62 167.04 132.29 168.62 127.38 169.62 C 122.46 170.62 119.42 171.17 115.62 171.75 C 111.83 172.33 107.17 172.58 104.62 173.12 C 102.08 173.67 101.29 174.46 100.38 175.00 C 99.46 175.54 99.38 175.79 99.12 176.38 C 98.88 176.96 98.83 177.92 98.88 178.50 C 98.92 179.08 98.79 179.17 99.38 179.88 C 99.96 180.58 100.50 181.62 102.38 182.75 C 104.25 183.88 108.02 185.79 110.62 186.62 C 113.23 187.46 114.52 187.58 118.00 187.75 C 121.48 187.92 128.27 187.77 131.50 187.62 C 134.73 187.48 133.17 187.67 137.38 186.88 C 141.58 186.08 149.27 184.56 156.75 182.88 C 164.23 181.19 175.31 178.56 182.25 176.75 C 189.19 174.94 194.44 173.00 198.38 172.00 C 202.31 171.00 203.67 171.33 205.88 170.75 C 208.08 170.17 210.33 169.23 211.62 168.50 C 212.92 167.77 213.25 167.10 213.62 166.38 C 214.00 165.65 214.31 165.02 213.88 164.12 Z" id="s-2-f-0"/>
<clipPath id="c-s-2"><use href="#s-2-f-0"/></clipPath>
<path d="M 90.25 232.88 C 88.83 232.90 89.60 232.06 89.50 233.25 C 89.40 234.44 89.06 238.29 89.62 240.00 C 90.19 241.71 92.08 242.50 92.88 243.50 C 93.67 244.50 93.56 244.29 94.38 246.00 C 95.19 247.71 96.85 251.42 97.75 253.75 C 98.65 256.08 98.92 256.75 99.75 260.00 C 100.58 263.25 101.58 267.54 102.75 273.25 C 103.92 278.96 106.02 290.00 106.75 294.25 C 107.48 298.50 106.92 297.50 107.12 298.75 C 107.33 300.00 107.50 300.54 108.00 301.75 C 108.50 302.96 109.31 304.75 110.12 306.00 C 110.94 307.25 112.00 308.46 112.88 309.25 C 113.75 310.04 114.56 310.50 115.38 310.75 C 116.19 311.00 117.00 311.06 117.75 310.75 C 118.50 310.44 119.19 309.79 119.88 308.88 C 120.56 307.96 121.40 306.31 121.88 305.25 C 122.35 304.19 122.56 303.92 122.75 302.50 C 122.94 301.08 123.33 301.40 123.00 296.75 C 122.67 292.10 121.77 281.62 120.75 274.62 C 119.73 267.62 117.54 259.29 116.88 254.75 C 116.21 250.21 118.08 250.38 116.75 247.38 C 115.42 244.38 110.38 238.67 108.88 236.75 C 107.38 234.83 109.56 236.48 107.75 235.88 C 105.94 235.27 100.92 233.62 98.00 233.12 C 95.08 232.62 91.67 232.85 90.25 232.88 Z" id="s-3-f-0"/>
<clipPath id="c-s-3"><use href="#s-3-f-0"/></clipPath>
<path d="M 225.75 241.88 C 226.08 240.77 225.81 239.62 225.62 238.75 C 225.44 237.88 225.94 238.48 224.62 236.62 C 223.31 234.77 220.29 230.40 217.75 227.62 C 215.21 224.85 211.31 221.62 209.38 220.00 C 207.44 218.38 207.10 218.40 206.12 217.88 C 205.15 217.35 204.60 217.00 203.50 216.88 C 202.40 216.75 202.52 216.31 199.50 217.12 C 196.48 217.94 190.38 220.31 185.38 221.75 C 180.38 223.19 172.60 225.06 169.50 225.75 C 166.40 226.44 173.08 224.71 166.75 225.88 C 160.42 227.04 140.65 231.21 131.50 232.75 C 122.35 234.29 115.83 234.52 111.88 235.12 C 107.92 235.73 107.04 234.25 107.75 236.38 C 108.46 238.50 110.40 246.77 116.12 247.88 C 121.85 248.98 137.33 243.83 142.12 243.00 C 146.92 242.17 139.65 243.88 144.88 242.88 C 150.10 241.88 166.33 238.31 173.50 237.00 C 180.67 235.69 185.06 235.33 187.88 235.00 C 190.69 234.67 189.73 234.92 190.38 235.00 C 191.02 235.08 191.23 235.21 191.75 235.50 C 192.27 235.79 193.02 236.19 193.50 236.75 C 193.98 237.31 194.44 237.35 194.62 238.88 C 194.81 240.40 194.92 243.17 194.62 245.88 C 194.33 248.58 193.48 252.67 192.88 255.12 C 192.27 257.58 191.81 257.52 191.00 260.62 C 190.19 263.73 188.17 271.38 188.00 273.75 C 187.83 276.12 187.56 274.02 190.00 274.88 C 192.44 275.73 200.27 278.23 202.62 278.88 C 204.98 279.52 203.62 279.10 204.12 278.75 C 204.62 278.40 203.62 280.62 205.62 276.75 C 207.62 272.88 213.90 259.81 216.12 255.50 C 218.35 251.19 217.75 252.56 219.00 250.88 C 220.25 249.19 222.50 246.88 223.62 245.38 C 224.75 243.88 225.42 242.98 225.75 241.88 Z" id="s-4-f-0"/>
<clipPath id="c-s-4"><use href="#s-4-f-0"/></clipPath>
<path d="M 209.88 287.00 C 209.62 286.06 209.44 284.79 208.25 283.25 C 207.06 281.71 204.60 278.90 202.75 277.75 C 200.90 276.60 198.31 276.75 197.12 276.38 C 195.94 276.00 196.21 275.67 195.62 275.50 C 195.04 275.33 194.06 275.50 193.62 275.38 C 193.19 275.25 193.50 274.92 193.00 274.75 C 192.50 274.58 191.21 274.56 190.62 274.38 C 190.04 274.19 190.73 273.69 189.50 273.62 C 188.27 273.56 186.77 273.46 183.25 274.00 C 179.73 274.54 171.19 276.25 168.38 276.88 C 165.56 277.50 170.17 277.06 166.38 277.75 C 162.58 278.44 151.42 280.00 145.62 281.00 C 139.83 282.00 135.56 283.12 131.62 283.75 C 127.69 284.38 123.71 284.69 122.00 284.75 C 120.29 284.81 121.44 282.79 121.38 284.12 C 121.31 285.46 121.46 290.42 121.62 292.75 C 121.79 295.08 122.15 297.12 122.38 298.12 C 122.60 299.12 122.60 298.62 123.00 298.75 C 123.40 298.88 122.85 298.88 124.75 298.88 C 126.65 298.88 130.85 298.92 134.38 298.75 C 137.90 298.58 137.10 299.00 145.88 297.88 C 154.65 296.75 176.73 293.19 187.00 292.00 C 197.27 290.81 203.71 291.27 207.50 290.75 C 211.29 290.23 209.35 289.50 209.75 288.88 C 210.15 288.25 210.12 287.94 209.88 287.00 Z" id="s-5-f-0"/>
<clipPath id="c-s-5"><use href="#s-5-f-0"/></clipPath>
<path d="M 160.50 181.50 C 158.98 180.96 158.12 181.48 157.38 181.62 C 156.62 181.77 156.79 182.21 156.00 182.38 C 155.21 182.54 153.52 182.46 152.62 182.62 C 151.73 182.79 151.46 183.21 150.62 183.38 C 149.79 183.54 148.35 183.46 147.62 183.62 C 146.90 183.79 147.04 184.21 146.25 184.38 C 145.46 184.54 143.71 184.46 142.88 184.62 C 142.04 184.79 142.02 185.21 141.25 185.38 C 140.48 185.54 139.15 185.40 138.25 185.62 C 137.35 185.85 136.25 186.35 135.88 186.75 C 135.50 187.15 135.42 186.81 136.00 188.00 C 136.58 189.19 138.60 192.38 139.38 193.88 C 140.15 195.38 140.21 195.25 140.62 197.00 C 141.04 198.75 141.52 199.33 141.88 204.38 C 142.23 209.42 142.65 220.90 142.75 227.25 C 142.85 233.60 142.48 239.67 142.50 242.50 C 142.52 245.33 142.88 235.08 142.88 244.25 C 142.88 253.42 142.50 288.46 142.50 297.50 C 142.50 306.54 142.67 289.98 142.88 298.50 C 143.08 307.02 143.50 339.54 143.75 348.62 C 144.00 357.71 141.38 353.12 144.38 353.00 C 147.38 352.88 158.54 348.90 161.75 347.88 C 164.96 346.85 163.25 347.42 163.62 346.88 C 164.00 346.33 163.62 353.23 164.00 344.62 C 164.38 336.02 165.35 304.48 165.88 295.25 C 166.40 286.02 166.94 293.06 167.12 289.25 C 167.31 285.44 166.88 280.88 167.00 272.38 C 167.12 263.88 167.54 244.60 167.88 238.25 C 168.21 231.90 168.77 235.79 169.00 234.25 C 169.23 232.71 169.23 233.62 169.25 229.00 C 169.27 224.38 169.00 211.48 169.12 206.50 C 169.25 201.52 169.73 200.79 170.00 199.12 C 170.27 197.46 170.60 197.85 170.75 196.50 C 170.90 195.15 171.04 192.40 170.88 191.00 C 170.71 189.60 170.48 189.15 169.75 188.12 C 169.02 187.10 168.04 185.98 166.50 184.88 C 164.96 183.77 162.02 182.04 160.50 181.50 Z" id="s-6-f-0"/>
<clipPath id="c-s-6"><use href="#s-6-f-0"/></clipPath>
<path d="M 205.75 346.50 C 205.21 344.65 202.23 338.27 201.38 336.50 C 200.52 334.73 201.19 335.96 200.62 335.88 C 200.06 335.79 200.90 335.08 198.00 336.00 C 195.10 336.92 188.79 339.60 183.25 341.38 C 177.71 343.15 168.21 345.77 164.75 346.62 C 161.29 347.48 163.10 346.38 162.50 346.50 C 161.90 346.62 161.73 347.19 161.12 347.38 C 160.52 347.56 159.42 347.46 158.88 347.62 C 158.33 347.79 158.44 348.21 157.88 348.38 C 157.31 348.54 156.10 348.46 155.50 348.62 C 154.90 348.79 154.81 349.21 154.25 349.38 C 153.69 349.54 152.65 349.46 152.12 349.62 C 151.60 349.79 151.67 350.21 151.12 350.38 C 150.58 350.54 149.42 350.46 148.88 350.62 C 148.33 350.79 148.50 351.19 147.88 351.38 C 147.25 351.56 145.85 351.50 145.12 351.75 C 144.40 352.00 148.12 351.71 143.50 352.88 C 138.88 354.04 122.62 357.62 117.38 358.75 C 112.12 359.88 113.81 359.46 112.00 359.62 C 110.19 359.79 109.92 360.02 106.50 359.75 C 103.08 359.48 95.06 358.29 91.50 358.00 C 87.94 357.71 86.46 357.85 85.12 358.00 C 83.79 358.15 83.98 358.42 83.50 358.88 C 83.02 359.33 82.52 359.81 82.25 360.75 C 81.98 361.69 81.75 363.42 81.88 364.50 C 82.00 365.58 82.00 365.81 83.00 367.25 C 84.00 368.69 86.23 371.29 87.88 373.12 C 89.52 374.96 91.31 376.81 92.88 378.25 C 94.44 379.69 95.10 380.33 97.25 381.75 C 99.40 383.17 103.52 385.62 105.75 386.75 C 107.98 387.88 108.96 388.15 110.62 388.50 C 112.29 388.85 114.35 389.02 115.75 388.88 C 117.15 388.73 116.85 388.94 119.00 387.62 C 121.15 386.31 125.12 383.10 128.62 381.00 C 132.12 378.90 127.33 380.56 140.00 375.00 C 152.67 369.44 193.67 352.38 204.62 347.62 C 215.58 342.88 206.29 348.35 205.75 346.50 Z" id="s-7-f-0"/>
<clipPath id="c-s-7"><use href="#s-7-f-0"/></clipPath>
<path d="M 191.75 309.00 C 190.94 309.21 190.98 309.54 190.88 310.25 C 190.77 310.96 189.50 309.06 191.12 313.25 C 192.75 317.44 199.04 331.44 200.62 335.38 C 202.21 339.31 200.48 336.48 200.62 336.88 C 200.77 337.27 201.33 337.38 201.50 337.75 C 201.67 338.12 201.31 338.40 201.62 339.12 C 201.94 339.85 202.88 340.98 203.38 342.12 C 203.88 343.27 204.25 345.25 204.62 346.00 C 205.00 346.75 204.23 344.17 205.62 346.62 C 207.02 349.08 211.12 357.31 213.00 360.75 C 214.88 364.19 215.71 365.44 216.88 367.25 C 218.04 369.06 218.77 370.21 220.00 371.62 C 221.23 373.04 223.00 374.88 224.25 375.75 C 225.50 376.62 226.40 376.71 227.50 376.88 C 228.60 377.04 229.88 376.94 230.88 376.75 C 231.88 376.56 232.65 376.29 233.50 375.75 C 234.35 375.21 235.31 374.44 236.00 373.50 C 236.69 372.56 237.35 372.98 237.62 370.12 C 237.90 367.27 237.81 359.85 237.62 356.38 C 237.44 352.90 237.17 352.08 236.50 349.25 C 235.83 346.42 234.73 342.15 233.62 339.38 C 232.52 336.60 231.02 334.38 229.88 332.62 C 228.73 330.88 228.33 330.48 226.75 328.88 C 225.17 327.27 222.65 324.81 220.38 323.00 C 218.10 321.19 215.77 319.56 213.12 318.00 C 210.48 316.44 206.79 314.94 204.50 313.62 C 202.21 312.31 200.83 310.90 199.38 310.12 C 197.92 309.35 197.02 309.19 195.75 309.00 C 194.48 308.81 192.56 308.79 191.75 309.00 Z" id="s-8-f-0"/>
<clipPath id="c-s-8"><use href="#s-8-f-0"/></clipPath>
<path d="M 279.38 85.00 C 277.52 85.40 277.40 86.48 277.00 87.50 C 276.60 88.52 276.44 89.92 277.00 91.12 C 277.56 92.33 279.40 93.52 280.38 94.75 C 281.35 95.98 281.85 96.67 282.88 98.50 C 283.90 100.33 285.56 103.58 286.50 105.75 C 287.44 107.92 287.62 107.92 288.50 111.50 C 289.38 115.08 290.73 121.15 291.75 127.25 C 292.77 133.35 293.23 135.62 294.62 148.12 C 296.02 160.62 298.73 191.83 300.12 202.25 C 301.52 212.67 302.04 208.42 303.00 210.62 C 303.96 212.83 304.81 214.19 305.88 215.50 C 306.94 216.81 308.29 217.94 309.38 218.50 C 310.46 219.06 311.46 219.15 312.38 218.88 C 313.29 218.60 314.15 217.94 314.88 216.88 C 315.60 215.81 316.40 216.35 316.75 212.50 C 317.10 208.65 317.19 199.96 317.00 193.75 C 316.81 187.54 316.29 182.31 315.62 175.25 C 314.96 168.19 313.50 157.42 313.00 151.38 C 312.50 145.33 313.48 147.35 312.62 139.00 C 311.77 130.65 309.67 109.27 307.88 101.25 C 306.08 93.23 303.44 93.08 301.88 90.88 C 300.31 88.67 299.96 88.79 298.50 88.00 C 297.04 87.21 294.85 86.60 293.12 86.12 C 291.40 85.65 290.42 85.31 288.12 85.12 C 285.83 84.94 281.23 84.60 279.38 85.00 Z" id="s-9-f-0"/>
<clipPath id="c-s-9"><use href="#s-9-f-0"/></clipPath>
<path d="M 300.88 90.12 C 299.90 90.42 300.42 90.77 300.50 91.00 C 300.58 91.23 300.23 89.67 301.38 91.50 C 302.52 93.33 304.35 100.31 307.38 102.00 C 310.40 103.69 315.46 101.90 319.50 101.62 C 323.54 101.35 320.12 102.15 331.62 100.38 C 343.12 98.60 376.96 92.73 388.50 91.00 C 400.04 89.27 398.38 89.94 400.88 90.00 C 403.38 90.06 402.83 90.79 403.50 91.38 C 404.17 91.96 404.52 92.67 404.88 93.50 C 405.23 94.33 405.48 94.25 405.62 96.38 C 405.77 98.50 405.88 102.35 405.75 106.25 C 405.62 110.15 405.50 113.77 404.88 119.75 C 404.25 125.73 402.52 137.44 402.00 142.12 C 401.48 146.81 402.33 143.38 401.75 147.88 C 401.17 152.38 399.50 163.21 398.50 169.12 C 397.50 175.04 397.21 177.65 395.75 183.38 C 394.29 189.10 390.38 199.23 389.75 203.50 C 389.12 207.77 391.31 207.58 392.00 209.00 C 392.69 210.42 393.10 211.02 393.88 212.00 C 394.65 212.98 395.69 214.10 396.62 214.88 C 397.56 215.65 398.02 216.33 399.50 216.62 C 400.98 216.92 404.02 216.79 405.50 216.62 C 406.98 216.46 407.35 216.21 408.38 215.62 C 409.40 215.04 410.56 214.25 411.62 213.12 C 412.69 212.00 413.90 210.56 414.75 208.88 C 415.60 207.19 414.21 214.71 416.75 203.00 C 419.29 191.29 427.12 152.15 430.00 138.62 C 432.88 125.10 432.48 127.10 434.00 121.88 C 435.52 116.65 437.35 111.40 439.12 107.25 C 440.90 103.10 443.71 99.58 444.62 97.00 C 445.54 94.42 445.08 93.29 444.62 91.75 C 444.17 90.21 443.27 89.21 441.88 87.75 C 440.48 86.29 438.25 84.42 436.25 83.00 C 434.25 81.58 433.69 81.04 429.88 79.25 C 426.06 77.46 416.77 73.62 413.38 72.25 C 409.98 70.88 410.71 71.23 409.50 71.00 C 408.29 70.77 407.94 70.71 406.12 70.88 C 404.31 71.04 401.54 71.44 398.62 72.00 C 395.71 72.56 394.04 72.83 388.62 74.25 C 383.21 75.67 373.38 78.75 366.12 80.50 C 358.88 82.25 352.27 83.52 345.12 84.75 C 337.98 85.98 329.71 87.12 323.25 87.88 C 316.79 88.62 310.10 88.88 306.38 89.25 C 302.65 89.62 301.85 89.83 300.88 90.12 Z" id="s-10-f-0"/>
<clipPath id="c-s-10"><use href="#s-10-f-0"/></clipPath>
<path d="M 403.25 137.25 C 402.62 136.10 401.04 135.81 399.38 135.12 C 397.71 134.44 396.00 133.79 393.25 133.12 C 390.50 132.46 385.50 131.50 382.88 131.12 C 380.25 130.75 379.44 130.60 377.50 130.88 C 375.56 131.15 373.04 132.44 371.25 132.75 C 369.46 133.06 371.04 131.90 366.75 132.75 C 362.46 133.60 353.75 136.33 345.50 137.88 C 337.25 139.42 322.73 140.98 317.25 142.00 C 311.77 143.02 313.42 142.75 312.62 144.00 C 311.83 145.25 312.23 148.38 312.50 149.50 C 312.77 150.62 312.90 150.06 314.25 150.75 C 315.60 151.44 318.75 152.98 320.62 153.62 C 322.50 154.27 322.81 154.42 325.50 154.62 C 328.19 154.83 330.71 155.19 336.75 154.88 C 342.79 154.56 355.19 153.44 361.75 152.75 C 368.31 152.06 373.35 151.21 376.12 150.75 C 378.90 150.29 376.58 150.17 378.38 150.00 C 380.17 149.83 384.21 149.94 386.88 149.75 C 389.54 149.56 391.83 149.38 394.38 148.88 C 396.92 148.38 400.67 147.90 402.12 146.75 C 403.58 145.60 402.94 143.58 403.12 142.00 C 403.31 140.42 403.88 138.40 403.25 137.25 Z" id="s-11-f-0"/>
<clipPath id="c-s-11"><use href="#s-11-f-0"/></clipPath>
<path d="M 366.88 93.75 C 366.52 93.65 365.46 93.52 364.88 93.62 C 364.29 93.73 365.40 94.04 363.38 94.38 C 361.35 94.71 354.71 95.29 352.75 95.62 C 350.79 95.96 352.52 96.21 351.62 96.38 C 350.73 96.54 348.42 96.44 347.38 96.62 C 346.33 96.81 346.33 97.33 345.38 97.50 C 344.42 97.67 342.54 97.44 341.62 97.62 C 340.71 97.81 340.15 98.17 339.88 98.62 C 339.60 99.08 339.69 99.69 340.00 100.38 C 340.31 101.06 341.27 101.90 341.75 102.75 C 342.23 103.60 342.38 103.69 342.88 105.50 C 343.38 107.31 344.27 108.73 344.75 113.62 C 345.23 118.52 345.62 128.25 345.75 134.88 C 345.88 141.50 345.48 150.15 345.50 153.38 C 345.52 156.60 345.62 148.35 345.88 154.25 C 346.12 160.15 346.65 182.79 347.00 188.75 C 347.35 194.71 345.08 190.12 348.00 190.00 C 350.92 189.88 361.69 188.48 364.50 188.00 C 367.31 187.52 364.48 193.08 364.88 187.12 C 365.27 181.17 366.35 159.02 366.88 152.25 C 367.40 145.48 367.81 149.96 368.00 146.50 C 368.19 143.04 367.83 135.73 368.00 131.50 C 368.17 127.27 368.67 123.94 369.00 121.12 C 369.33 118.31 369.35 117.27 370.00 114.62 C 370.65 111.98 372.42 107.29 372.88 105.25 C 373.33 103.21 372.94 103.12 372.75 102.38 C 372.56 101.62 372.31 101.40 371.75 100.75 C 371.19 100.10 370.69 99.44 369.38 98.50 C 368.06 97.56 364.71 95.79 363.88 95.12 C 363.04 94.46 363.85 94.65 364.38 94.50 C 364.90 94.35 366.58 94.38 367.00 94.25 C 367.42 94.12 367.23 93.85 366.88 93.75 Z" id="s-12-f-0"/>
<clipPath id="c-s-12"><use href="#s-12-f-0"/></clipPath>
<path d="M 394.12 191.38 C 394.12 189.85 393.62 190.60 392.12 189.88 C 390.62 189.15 387.00 187.65 385.12 187.00 C 383.25 186.35 382.60 186.17 380.88 186.00 C 379.15 185.83 377.29 185.71 374.75 186.00 C 372.21 186.29 368.06 187.48 365.62 187.75 C 363.19 188.02 361.48 187.52 360.12 187.62 C 358.77 187.73 359.15 188.19 357.50 188.38 C 355.85 188.56 352.81 188.35 350.25 188.75 C 347.69 189.15 344.60 190.25 342.12 190.75 C 339.65 191.25 339.65 191.33 335.38 191.75 C 331.10 192.17 319.65 190.46 316.50 193.25 C 313.35 196.04 315.81 205.75 316.50 208.50 C 317.19 211.25 317.94 209.54 320.62 209.75 C 323.31 209.96 322.60 210.65 332.62 209.75 C 342.65 208.85 371.21 205.35 380.75 204.38 C 390.29 203.40 388.15 204.23 389.88 203.88 C 391.60 203.52 390.88 202.90 391.12 202.25 C 391.38 201.60 391.21 200.54 391.38 200.00 C 391.54 199.46 391.67 200.44 392.12 199.00 C 392.58 197.56 394.12 192.90 394.12 191.38 Z" id="s-13-f-0"/>
<clipPath id="c-s-13"><use href="#s-13-f-0"/></clipPath>
<path d="M 289.25 246.88 C 288.62 246.71 287.79 247.00 287.25 247.25 C 286.71 247.50 286.92 246.08 286.00 248.38 C 285.08 250.67 283.44 256.67 281.75 261.00 C 280.06 265.33 277.98 269.90 275.88 274.38 C 273.77 278.85 270.58 284.56 269.12 287.88 C 267.67 291.19 267.48 291.56 267.12 294.25 C 266.77 296.94 266.81 301.29 267.00 304.00 C 267.19 306.71 267.62 308.62 268.25 310.50 C 268.88 312.38 269.85 314.04 270.75 315.25 C 271.65 316.46 272.71 317.17 273.62 317.75 C 274.54 318.33 275.15 318.58 276.25 318.75 C 277.35 318.92 279.31 318.92 280.25 318.75 C 281.19 318.58 280.60 319.15 281.88 317.75 C 283.15 316.35 286.56 312.10 287.88 310.38 C 289.19 308.65 288.79 309.56 289.75 307.38 C 290.71 305.19 292.46 300.90 293.62 297.25 C 294.79 293.60 296.06 288.65 296.75 285.50 C 297.44 282.35 297.60 281.48 297.75 278.38 C 297.90 275.27 297.98 270.15 297.62 266.88 C 297.27 263.60 296.48 261.46 295.62 258.75 C 294.77 256.04 293.27 252.38 292.50 250.62 C 291.73 248.88 291.54 248.88 291.00 248.25 C 290.46 247.62 289.88 247.04 289.25 246.88 Z" id="s-14-f-0"/>
<clipPath id="c-s-14"><use href="#s-14-f-0"/></clipPath>
<path d="M 304.25 233.00 C 303.79 233.71 303.75 234.42 304.00 235.38 C 304.25 236.33 305.12 237.17 305.75 238.75 C 306.38 240.33 306.00 238.62 307.75 244.88 C 309.50 251.12 314.02 268.83 316.25 276.25 C 318.48 283.67 319.15 284.90 321.12 289.38 C 323.10 293.85 325.33 299.00 328.12 303.12 C 330.92 307.25 334.54 310.90 337.88 314.12 C 341.21 317.35 345.04 320.23 348.12 322.50 C 351.21 324.77 353.56 326.21 356.38 327.75 C 359.19 329.29 361.90 330.60 365.00 331.75 C 368.10 332.90 371.69 333.81 375.00 334.62 C 378.31 335.44 381.50 336.10 384.88 336.62 C 388.25 337.15 390.06 337.60 395.25 337.75 C 400.44 337.90 411.38 337.69 416.00 337.50 C 420.62 337.31 420.31 337.08 423.00 336.62 C 425.69 336.17 428.17 335.92 432.12 334.75 C 436.08 333.58 442.58 331.58 446.75 329.62 C 450.92 327.67 454.46 325.08 457.12 323.00 C 459.79 320.92 461.62 318.75 462.75 317.12 C 463.88 315.50 463.75 314.69 463.88 313.25 C 464.00 311.81 463.85 309.92 463.50 308.50 C 463.15 307.08 462.48 305.88 461.75 304.75 C 461.02 303.62 460.17 302.71 459.12 301.75 C 458.08 300.79 458.12 300.54 455.50 299.00 C 452.88 297.46 447.04 294.69 443.38 292.50 C 439.71 290.31 437.21 288.60 433.50 285.88 C 429.79 283.15 424.42 278.83 421.12 276.12 C 417.83 273.42 415.58 271.35 413.75 269.62 C 411.92 267.90 411.23 266.71 410.12 265.75 C 409.02 264.79 407.83 264.10 407.12 263.88 C 406.42 263.65 406.04 263.62 405.88 264.38 C 405.71 265.12 404.83 264.35 406.12 268.38 C 407.42 272.40 412.02 283.58 413.62 288.50 C 415.23 293.42 415.44 295.81 415.75 297.88 C 416.06 299.94 415.67 300.08 415.50 300.88 C 415.33 301.67 415.12 302.06 414.75 302.62 C 414.38 303.19 414.73 303.25 413.25 304.25 C 411.77 305.25 408.06 307.54 405.88 308.62 C 403.69 309.71 401.73 310.23 400.12 310.75 C 398.52 311.27 398.21 311.42 396.25 311.75 C 394.29 312.08 390.85 312.58 388.38 312.75 C 385.90 312.92 383.88 312.92 381.38 312.75 C 378.88 312.58 375.90 312.25 373.38 311.75 C 370.85 311.25 368.60 310.62 366.25 309.75 C 363.90 308.88 362.15 308.15 359.25 306.50 C 356.35 304.85 351.60 301.85 348.88 299.88 C 346.15 297.90 344.71 296.42 342.88 294.62 C 341.04 292.83 339.35 291.04 337.88 289.12 C 336.40 287.21 335.46 285.67 334.00 283.12 C 332.54 280.58 330.44 276.71 329.12 273.88 C 327.81 271.04 327.17 269.33 326.12 266.12 C 325.08 262.92 323.60 257.92 322.88 254.62 C 322.15 251.33 322.15 248.58 321.75 246.38 C 321.35 244.17 321.19 243.06 320.50 241.38 C 319.81 239.69 318.85 237.83 317.62 236.25 C 316.40 234.67 314.19 232.75 313.12 231.88 C 312.06 231.00 312.31 231.12 311.25 231.00 C 310.19 230.88 307.92 230.79 306.75 231.12 C 305.58 231.46 304.71 232.29 304.25 233.00 Z" id="s-15-f-0"/>
<clipPath id="c-s-15"><use href="#s-15-f-0"/></clipPath>
<path d="M 347.75 229.00 C 346.54 229.10 347.12 229.27 347.00 229.75 C 346.88 230.23 345.81 229.48 347.00 231.88 C 348.19 234.27 351.65 240.04 354.12 244.12 C 356.60 248.21 359.06 252.38 361.88 256.38 C 364.69 260.38 368.69 265.46 371.00 268.12 C 373.31 270.79 374.52 271.44 375.75 272.38 C 376.98 273.31 377.27 273.52 378.38 273.75 C 379.48 273.98 381.10 274.04 382.38 273.75 C 383.65 273.46 384.96 272.88 386.00 272.00 C 387.04 271.12 388.02 269.67 388.62 268.50 C 389.23 267.33 389.44 267.19 389.62 265.00 C 389.81 262.81 389.92 257.75 389.75 255.38 C 389.58 253.00 389.12 252.21 388.62 250.75 C 388.12 249.29 387.60 248.02 386.75 246.62 C 385.90 245.23 385.31 243.98 383.50 242.38 C 381.69 240.77 378.92 238.69 375.88 237.00 C 372.83 235.31 368.85 233.56 365.25 232.25 C 361.65 230.94 357.17 229.67 354.25 229.12 C 351.33 228.58 348.96 228.90 347.75 229.00 Z" id="s-16-f-0"/>
<clipPath id="c-s-16"><use href="#s-16-f-0"/></clipPath>
<path d="M 419.00 223.75 C 418.79 224.25 418.88 225.33 419.00 225.88 C 419.12 226.42 417.50 224.69 419.75 227.00 C 422.00 229.31 427.27 233.83 432.50 239.75 C 437.73 245.67 446.48 257.10 451.12 262.50 C 455.77 267.90 458.27 270.04 460.38 272.12 C 462.48 274.21 462.31 274.04 463.75 275.00 C 465.19 275.96 467.44 277.44 469.00 277.88 C 470.56 278.31 472.08 277.81 473.12 277.62 C 474.17 277.44 474.50 277.23 475.25 276.75 C 476.00 276.27 476.88 275.69 477.62 274.75 C 478.38 273.81 479.08 272.83 479.75 271.12 C 480.42 269.42 481.29 266.92 481.62 264.50 C 481.96 262.08 481.90 258.52 481.75 256.62 C 481.60 254.73 481.27 254.44 480.75 253.12 C 480.23 251.81 479.71 250.29 478.62 248.75 C 477.54 247.21 475.62 245.17 474.25 243.88 C 472.88 242.58 472.17 242.15 470.38 241.00 C 468.58 239.85 468.15 239.17 463.50 237.00 C 458.85 234.83 449.00 230.31 442.50 228.00 C 436.00 225.69 428.21 223.98 424.50 223.12 C 420.79 222.27 421.17 222.77 420.25 222.88 C 419.33 222.98 419.21 223.25 419.00 223.75 Z" id="s-17-f-0"/>
<clipPath id="c-s-17"><use href="#s-17-f-0"/></clipPath>
</defs>
<g id="s-0" clip-path="url(#c-s-0)">
<use href="#s-0-f-0"/>
<path d="M 68.50 88.00 C 65.60 87.71 61.69 87.88 59.75 88.25 C 57.81 88.62 57.52 89.46 56.88 90.25 C 56.23 91.04 55.98 92.00 55.88 93.00 C 55.77 94.00 55.27 93.69 56.25 96.25 C 57.23 98.81 60.65 105.65 61.75 108.38 C 62.85 111.10 62.21 107.50 62.88 112.62 C 63.54 117.75 65.12 132.00 65.75 139.12 C 66.38 146.25 66.48 141.75 66.62 155.38 C 66.77 169.00 66.79 206.08 66.62 220.88 C 66.46 235.67 66.12 236.23 65.62 244.12 C 65.12 252.02 64.06 263.88 63.62 268.25 C 63.19 272.62 63.48 266.88 63.00 270.38 C 62.52 273.88 61.96 282.02 60.75 289.25 C 59.54 296.48 57.27 307.19 55.75 313.75 C 54.23 320.31 53.60 322.54 51.62 328.62 C 49.65 334.71 46.35 344.04 43.88 350.25 C 41.40 356.46 38.83 361.73 36.75 365.88 C 34.67 370.02 32.21 373.46 31.38 375.12 C 30.54 376.79 28.85 375.73 31.75 375.88 C 34.65 376.02 45.75 376.06 48.75 376.00 C 51.75 375.94 48.23 377.42 49.75 375.50 C 51.27 373.58 55.56 367.92 57.88 364.50 C 60.19 361.08 61.98 357.94 63.62 355.00 C 65.27 352.06 66.06 350.96 67.75 346.88 C 69.44 342.79 72.08 335.54 73.75 330.50 C 75.42 325.46 76.08 323.60 77.75 316.62 C 79.42 309.65 82.08 297.54 83.75 288.62 C 85.42 279.71 86.75 270.62 87.75 263.12 C 88.75 255.62 89.35 249.31 89.75 243.62 C 90.15 237.94 89.79 234.65 90.12 229.00 C 90.46 223.35 91.42 224.06 91.75 209.75 C 92.08 195.44 91.75 157.10 92.12 143.12 C 92.50 129.15 93.38 130.52 94.00 125.88 C 94.62 121.23 95.42 117.29 95.88 115.25 C 96.33 113.21 96.58 114.33 96.75 113.62 C 96.92 112.92 97.67 113.62 96.88 111.00 C 96.08 108.38 93.15 100.50 92.00 97.88 C 90.85 95.25 90.79 95.79 90.00 95.25 C 89.21 94.71 88.12 94.98 87.25 94.62 C 86.38 94.27 86.44 93.90 84.75 93.12 C 83.06 92.35 79.83 90.85 77.12 90.00 C 74.42 89.15 71.40 88.29 68.50 88.00 Z" id="s-0-f-1"/>
<path d="M 62.38 87.88 C 60.92 87.92 60.67 87.85 59.75 88.25 C 58.83 88.65 57.50 89.65 56.88 90.25 C 56.25 90.85 56.17 91.17 56.00 91.88 C 55.83 92.58 55.71 93.46 55.88 94.50 C 56.04 95.54 56.02 95.81 57.00 98.12 C 57.98 100.44 60.77 105.96 61.75 108.38 C 62.73 110.79 62.19 107.23 62.88 112.62 C 63.56 118.02 65.23 132.92 65.88 140.75 C 66.52 148.58 66.62 146.27 66.75 159.62 C 66.88 172.98 66.79 207.15 66.62 220.88 C 66.46 234.60 66.25 234.10 65.75 242.00 C 65.25 249.90 64.08 263.52 63.62 268.25 C 63.17 272.98 63.48 266.88 63.00 270.38 C 62.52 273.88 61.96 282.02 60.75 289.25 C 59.54 296.48 57.23 307.40 55.75 313.75 C 54.27 320.10 52.29 325.04 51.88 327.38 C 51.46 329.71 49.56 327.67 53.25 327.75 C 56.94 327.83 70.42 327.96 74.00 327.88 C 77.58 327.79 73.65 331.15 74.75 327.25 C 75.85 323.35 78.96 311.88 80.62 304.50 C 82.29 297.12 83.56 289.90 84.75 283.00 C 85.94 276.10 86.92 269.69 87.75 263.12 C 88.58 256.56 89.35 249.31 89.75 243.62 C 90.15 237.94 89.79 234.65 90.12 229.00 C 90.46 223.35 91.42 224.06 91.75 209.75 C 92.08 195.44 91.75 157.10 92.12 143.12 C 92.50 129.15 93.38 130.52 94.00 125.88 C 94.62 121.23 95.42 117.29 95.88 115.25 C 96.33 113.21 96.58 114.33 96.75 113.62 C 96.92 112.92 97.67 113.62 96.88 111.00 C 96.08 108.38 93.15 100.50 92.00 97.88 C 90.85 95.25 90.79 95.79 90.00 95.25 C 89.21 94.71 88.92 95.33 87.25 94.62 C 85.58 93.92 82.19 91.92 80.00 91.00 C 77.81 90.08 76.04 89.62 74.12 89.12 C 72.21 88.62 70.46 88.21 68.50 88.00 C 66.54 87.79 63.83 87.83 62.38 87.88 Z" id="s-0-f-2"/>
<path d="M 60.62 88.00 C 58.94 88.15 59.00 88.50 58.38 88.88 C 57.75 89.25 57.27 89.75 56.88 90.25 C 56.48 90.75 56.17 91.17 56.00 91.88 C 55.83 92.58 55.71 93.46 55.88 94.50 C 56.04 95.54 56.02 95.81 57.00 98.12 C 57.98 100.44 60.77 105.96 61.75 108.38 C 62.73 110.79 62.19 107.23 62.88 112.62 C 63.56 118.02 65.21 131.56 65.88 140.75 C 66.54 149.94 66.75 154.40 66.88 167.75 C 67.00 181.10 66.81 208.50 66.62 220.88 C 66.44 233.25 66.25 234.10 65.75 242.00 C 65.25 249.90 64.06 263.67 63.62 268.25 C 63.19 272.83 63.40 267.62 63.12 269.50 C 62.85 271.38 61.88 277.75 62.00 279.50 C 62.12 281.25 60.06 279.98 63.88 280.00 C 67.69 280.02 81.25 279.98 84.88 279.62 C 88.50 279.27 85.15 280.62 85.62 277.88 C 86.10 275.12 87.08 268.58 87.75 263.12 C 88.42 257.67 89.23 250.81 89.62 245.12 C 90.02 239.44 89.77 234.90 90.12 229.00 C 90.48 223.10 91.42 224.06 91.75 209.75 C 92.08 195.44 91.75 157.10 92.12 143.12 C 92.50 129.15 93.38 130.52 94.00 125.88 C 94.62 121.23 95.42 117.29 95.88 115.25 C 96.33 113.21 96.58 114.33 96.75 113.62 C 96.92 112.92 97.77 113.83 96.88 111.00 C 95.98 108.17 92.58 99.29 91.38 96.62 C 90.17 93.96 90.31 95.33 89.62 95.00 C 88.94 94.67 88.85 95.29 87.25 94.62 C 85.65 93.96 82.19 91.92 80.00 91.00 C 77.81 90.08 76.04 89.62 74.12 89.12 C 72.21 88.62 70.75 88.19 68.50 88.00 C 66.25 87.81 62.31 87.85 60.62 88.00 Z" id="s-0-f-3"/>
<path d="M 60.62 88.00 C 58.94 88.15 59.00 88.50 58.38 88.88 C 57.75 89.25 57.27 89.75 56.88 90.25 C 56.48 90.75 56.17 91.17 56.00 91.88 C 55.83 92.58 55.71 93.46 55.88 94.50 C 56.04 95.54 56.02 95.81 57.00 98.12 C 57.98 100.44 60.77 105.96 61.75 108.38 C 62.73 110.79 62.19 107.23 62.88 112.62 C 63.56 118.02 65.21 131.56 65.88 140.75 C 66.54 149.94 66.73 155.90 66.88 167.75 C 67.02 179.60 66.90 201.25 66.75 211.88 C 66.60 222.50 65.77 228.15 66.00 231.50 C 66.23 234.85 64.15 232.02 68.12 232.00 C 72.10 231.98 85.94 235.08 89.88 231.38 C 93.81 227.67 91.38 224.46 91.75 209.75 C 92.12 195.04 91.75 157.10 92.12 143.12 C 92.50 129.15 93.38 130.52 94.00 125.88 C 94.62 121.23 95.42 117.29 95.88 115.25 C 96.33 113.21 96.58 114.33 96.75 113.62 C 96.92 112.92 97.77 113.83 96.88 111.00 C 95.98 108.17 92.58 99.29 91.38 96.62 C 90.17 93.96 90.31 95.33 89.62 95.00 C 88.94 94.67 88.85 95.29 87.25 94.62 C 85.65 93.96 82.19 91.92 80.00 91.00 C 77.81 90.08 76.04 89.62 74.12 89.12 C 72.21 88.62 70.75 88.19 68.50 88.00 C 66.25 87.81 62.31 87.85 60.62 88.00 Z" id="s-0-f-4"/>
<path d="M 59.75 88.25 C 58.15 88.65 57.50 89.65 56.88 90.25 C 56.25 90.85 56.17 91.17 56.00 91.88 C 55.83 92.58 55.71 93.46 55.88 94.50 C 56.04 95.54 56.02 95.81 57.00 98.12 C 57.98 100.44 60.65 105.04 61.75 108.38 C 62.85 111.71 63.25 115.27 63.62 118.12 C 64.00 120.98 63.62 121.73 64.00 125.50 C 64.38 129.27 65.42 135.06 65.88 140.75 C 66.33 146.44 66.56 152.46 66.75 159.62 C 66.94 166.79 63.06 179.75 67.00 183.75 C 70.94 187.75 86.25 184.04 90.38 183.62 C 94.50 183.21 91.46 188.00 91.75 181.25 C 92.04 174.50 91.75 152.35 92.12 143.12 C 92.50 133.90 93.38 130.52 94.00 125.88 C 94.62 121.23 95.42 117.29 95.88 115.25 C 96.33 113.21 96.58 114.33 96.75 113.62 C 96.92 112.92 97.77 113.83 96.88 111.00 C 95.98 108.17 92.58 99.29 91.38 96.62 C 90.17 93.96 90.31 95.33 89.62 95.00 C 88.94 94.67 88.85 95.29 87.25 94.62 C 85.65 93.96 82.19 91.92 80.00 91.00 C 77.81 90.08 76.38 89.65 74.12 89.12 C 71.88 88.60 68.90 88.02 66.50 87.88 C 64.10 87.73 61.35 87.85 59.75 88.25 Z" id="s-0-f-5"/>
<path d="M 58.00 89.12 C 57.23 89.77 56.33 90.81 56.00 91.88 C 55.67 92.94 55.04 92.75 56.00 95.50 C 56.96 98.25 60.60 105.52 61.75 108.38 C 62.90 111.23 62.29 108.15 62.88 112.62 C 63.46 117.10 64.73 131.38 65.25 135.25 C 65.77 139.12 61.42 135.79 66.00 135.88 C 70.58 135.96 87.77 139.19 92.75 135.75 C 97.73 132.31 95.21 118.94 95.88 115.25 C 96.54 111.56 96.58 114.33 96.75 113.62 C 96.92 112.92 97.77 113.83 96.88 111.00 C 95.98 108.17 92.58 99.29 91.38 96.62 C 90.17 93.96 90.31 95.33 89.62 95.00 C 88.94 94.67 88.85 95.29 87.25 94.62 C 85.65 93.96 82.19 91.92 80.00 91.00 C 77.81 90.08 76.38 89.65 74.12 89.12 C 71.88 88.60 68.75 88.06 66.50 87.88 C 64.25 87.69 62.04 87.79 60.62 88.00 C 59.21 88.21 58.77 88.48 58.00 89.12 Z" id="s-0-f-6"/>
</g>
<g id="s-1" clip-path="url(#c-s-1)">
<use href="#s-1-f-0"/>
<path d="M 90.50 96.50 C 90.54 96.88 91.19 97.56 91.38 98.12 C 91.56 98.69 91.46 99.44 91.62 99.88 C 91.79 100.31 92.04 99.85 92.38 100.75 C 92.71 101.65 93.29 104.35 93.62 105.25 C 93.96 106.15 94.21 105.69 94.38 106.12 C 94.54 106.56 94.46 107.44 94.62 107.88 C 94.79 108.31 95.10 108.02 95.38 108.75 C 95.65 109.48 96.06 111.73 96.25 112.25 C 96.44 112.77 95.02 111.96 96.50 111.88 C 97.98 111.79 102.46 111.94 105.12 111.75 C 107.79 111.56 108.58 111.54 112.50 110.75 C 116.42 109.96 112.94 109.96 128.62 107.00 C 144.31 104.04 192.17 95.48 206.62 93.00 C 221.08 90.52 212.67 92.29 215.38 92.12 C 218.08 91.96 221.19 91.83 222.88 92.00 C 224.56 92.17 224.83 92.73 225.50 93.12 C 226.17 93.52 226.33 93.54 226.88 94.38 C 227.42 95.21 228.27 96.44 228.75 98.12 C 229.23 99.81 229.88 92.17 229.75 104.50 C 229.62 116.83 228.27 148.40 228.00 172.12 C 227.73 195.85 227.79 229.62 228.12 246.88 C 228.46 264.12 229.35 268.02 230.00 275.62 C 230.65 283.23 231.17 286.90 232.00 292.50 C 232.83 298.10 234.00 304.33 235.00 309.25 C 236.00 314.17 236.81 317.69 238.00 322.00 C 239.19 326.31 240.77 331.31 242.12 335.12 C 243.48 338.94 244.48 341.31 246.12 344.88 C 247.77 348.44 250.04 352.92 252.00 356.50 C 253.96 360.08 255.17 362.35 257.88 366.38 C 260.58 370.40 264.77 376.33 268.25 380.62 C 271.73 384.92 275.33 388.69 278.75 392.12 C 282.17 395.56 285.40 398.50 288.75 401.25 C 292.10 404.00 295.79 406.54 298.88 408.62 C 301.96 410.71 304.23 412.08 307.25 413.75 C 310.27 415.42 314.08 417.29 317.00 418.62 C 319.92 419.96 321.48 420.58 324.75 421.75 C 328.02 422.92 332.60 424.48 336.62 425.62 C 340.65 426.77 345.00 427.79 348.88 428.62 C 352.75 429.46 355.65 429.98 359.88 430.62 C 364.10 431.27 369.25 432.00 374.25 432.50 C 379.25 433.00 381.23 433.42 389.88 433.62 C 398.52 433.83 417.52 433.92 426.12 433.75 C 434.73 433.58 436.60 433.12 441.50 432.62 C 446.40 432.12 451.04 431.58 455.50 430.75 C 459.96 429.92 465.10 428.65 468.25 427.62 C 471.40 426.60 472.77 425.67 474.38 424.62 C 475.98 423.58 477.00 422.48 477.88 421.38 C 478.75 420.27 479.31 419.48 479.62 418.00 C 479.94 416.52 480.31 415.08 479.75 412.50 C 479.19 409.92 477.02 404.31 476.25 402.50 C 475.48 400.69 482.27 402.42 475.12 401.62 C 467.98 400.83 440.73 398.35 433.38 397.75 C 426.02 397.15 431.65 397.81 431.00 398.00 C 430.35 398.19 430.73 398.46 429.50 398.88 C 428.27 399.29 425.88 400.02 423.62 400.50 C 421.38 400.98 420.27 401.38 416.00 401.75 C 411.73 402.12 403.67 402.62 398.00 402.75 C 392.33 402.88 386.60 402.69 382.00 402.50 C 377.40 402.31 374.40 402.08 370.38 401.62 C 366.35 401.17 362.04 400.56 357.88 399.75 C 353.71 398.94 349.92 398.08 345.38 396.75 C 340.83 395.42 334.60 393.27 330.62 391.75 C 326.65 390.23 324.44 389.10 321.50 387.62 C 318.56 386.15 315.83 384.73 313.00 382.88 C 310.17 381.02 307.46 378.98 304.50 376.50 C 301.54 374.02 297.71 370.38 295.25 368.00 C 292.79 365.62 291.92 364.69 289.75 362.25 C 287.58 359.81 284.54 356.31 282.25 353.38 C 279.96 350.44 278.67 348.85 276.00 344.62 C 273.33 340.40 268.75 332.60 266.25 328.00 C 263.75 323.40 262.19 319.90 261.00 317.00 C 259.81 314.10 259.79 313.42 259.12 310.62 C 258.46 307.83 257.85 305.85 257.00 300.25 C 256.15 294.65 254.67 283.02 254.00 277.00 C 253.33 270.98 253.33 270.83 253.00 264.12 C 252.67 257.42 252.15 246.29 252.00 236.75 C 251.85 227.21 251.79 218.35 252.12 206.88 C 252.46 195.40 253.35 178.69 254.00 167.88 C 254.65 157.06 255.33 148.35 256.00 142.00 C 256.67 135.65 256.83 135.56 258.00 129.75 C 259.17 123.94 261.54 112.71 263.00 107.12 C 264.46 101.54 266.10 98.65 266.75 96.25 C 267.40 93.85 267.02 93.88 266.88 92.75 C 266.73 91.62 266.54 90.88 265.88 89.50 C 265.21 88.12 264.17 86.25 262.88 84.50 C 261.58 82.75 259.69 80.60 258.12 79.00 C 256.56 77.40 255.85 76.69 253.50 74.88 C 251.15 73.06 246.25 69.58 244.00 68.12 C 241.75 66.67 241.29 66.65 240.00 66.12 C 238.71 65.60 237.71 65.19 236.25 65.00 C 234.79 64.81 235.02 64.33 231.25 65.00 C 227.48 65.67 222.60 66.71 213.62 69.00 C 204.65 71.29 188.38 75.96 177.38 78.75 C 166.38 81.54 157.58 83.58 147.62 85.75 C 137.67 87.92 126.50 90.19 117.62 91.75 C 108.75 93.31 98.79 94.44 94.38 95.12 C 89.96 95.81 91.77 95.65 91.12 95.88 C 90.48 96.10 90.46 96.12 90.50 96.50 Z" id="s-1-f-1"/>
<path d="M 91.00 95.88 C 86.48 96.77 90.44 96.75 90.50 97.12 C 90.56 97.50 91.19 97.67 91.38 98.12 C 91.56 98.58 91.46 99.44 91.62 99.88 C 91.79 100.31 92.19 100.25 92.38 100.75 C 92.56 101.25 92.42 101.98 92.75 102.88 C 93.08 103.77 94.06 105.29 94.38 106.12 C 94.69 106.96 94.46 107.44 94.62 107.88 C 94.79 108.31 95.10 108.02 95.38 108.75 C 95.65 109.48 96.06 111.73 96.25 112.25 C 96.44 112.77 95.02 111.96 96.50 111.88 C 97.98 111.79 102.46 111.94 105.12 111.75 C 107.79 111.56 108.58 111.54 112.50 110.75 C 116.42 109.96 113.12 109.94 128.62 107.00 C 144.12 104.06 191.21 95.60 205.50 93.12 C 219.79 90.65 211.48 92.31 214.38 92.12 C 217.27 91.94 221.02 91.83 222.88 92.00 C 224.73 92.17 224.83 92.73 225.50 93.12 C 226.17 93.52 226.33 93.54 226.88 94.38 C 227.42 95.21 228.27 96.44 228.75 98.12 C 229.23 99.81 229.83 95.15 229.75 104.50 C 229.67 113.85 228.56 139.50 228.25 154.25 C 227.94 169.00 227.92 178.19 227.88 193.00 C 227.83 207.81 227.81 231.38 228.00 243.12 C 228.19 254.88 228.33 255.27 229.00 263.50 C 229.67 271.73 231.00 284.88 232.00 292.50 C 233.00 300.12 234.00 304.33 235.00 309.25 C 236.00 314.17 236.98 318.17 238.00 322.00 C 239.02 325.83 239.77 328.44 241.12 332.25 C 242.48 336.06 244.31 340.83 246.12 344.88 C 247.94 348.92 250.04 352.92 252.00 356.50 C 253.96 360.08 255.75 363.08 257.88 366.38 C 260.00 369.67 262.42 373.15 264.75 376.25 C 267.08 379.35 269.12 381.94 271.88 385.00 C 274.62 388.06 278.44 391.92 281.25 394.62 C 284.06 397.33 285.21 398.54 288.75 401.25 C 292.29 403.96 297.79 407.98 302.50 410.88 C 307.21 413.77 312.42 416.50 317.00 418.62 C 321.58 420.75 326.21 422.31 330.00 423.62 C 333.79 424.94 335.77 425.50 339.75 426.50 C 343.73 427.50 347.92 428.60 353.88 429.62 C 359.83 430.65 369.54 432.00 375.50 432.62 C 381.46 433.25 387.21 433.65 389.62 433.38 C 392.04 433.10 389.98 436.02 390.00 431.00 C 390.02 425.98 390.04 407.96 389.75 403.25 C 389.46 398.54 391.54 403.02 388.25 402.75 C 384.96 402.48 374.96 402.10 370.00 401.62 C 365.04 401.15 362.02 400.52 358.50 399.88 C 354.98 399.23 351.73 398.46 348.88 397.75 C 346.02 397.04 344.42 396.62 341.38 395.62 C 338.33 394.62 333.94 393.08 330.62 391.75 C 327.31 390.42 324.54 389.17 321.50 387.62 C 318.46 386.08 315.21 384.35 312.38 382.50 C 309.54 380.65 306.85 378.44 304.50 376.50 C 302.15 374.56 300.71 373.25 298.25 370.88 C 295.79 368.50 292.19 364.88 289.75 362.25 C 287.31 359.62 285.73 357.77 283.62 355.12 C 281.52 352.48 279.35 349.67 277.12 346.38 C 274.90 343.08 272.94 340.25 270.25 335.38 C 267.56 330.50 262.85 321.25 261.00 317.12 C 259.15 313.00 259.77 313.33 259.12 310.62 C 258.48 307.92 257.96 306.19 257.12 300.88 C 256.29 295.56 254.96 288.46 254.12 278.75 C 253.29 269.04 252.48 253.54 252.12 242.62 C 251.77 231.71 251.85 222.92 252.00 213.25 C 252.15 203.58 252.33 196.50 253.00 184.62 C 253.67 172.75 254.67 153.56 256.00 142.00 C 257.33 130.44 259.67 121.65 261.00 115.25 C 262.33 108.85 263.21 106.25 264.00 103.62 C 264.79 101.00 265.27 100.94 265.75 99.50 C 266.23 98.06 266.71 96.31 266.88 95.00 C 267.04 93.69 267.25 93.15 266.75 91.62 C 266.25 90.10 264.79 87.40 263.88 85.88 C 262.96 84.35 262.98 84.33 261.25 82.50 C 259.52 80.67 256.38 77.27 253.50 74.88 C 250.62 72.48 246.77 69.75 244.00 68.12 C 241.23 66.50 238.96 65.65 236.88 65.12 C 234.79 64.60 234.71 64.52 231.50 65.00 C 228.29 65.48 225.98 65.88 217.62 68.00 C 209.27 70.12 193.04 74.79 181.38 77.75 C 169.71 80.71 158.25 83.42 147.62 85.75 C 137.00 88.08 127.06 90.06 117.62 91.75 C 108.19 93.44 95.52 94.98 91.00 95.88 Z" id="s-1-f-2"/>
<path d="M 91.00 95.88 C 86.48 96.77 90.44 96.75 90.50 97.12 C 90.56 97.50 91.19 97.67 91.38 98.12 C 91.56 98.58 91.46 99.44 91.62 99.88 C 91.79 100.31 92.19 100.25 92.38 100.75 C 92.56 101.25 92.42 101.98 92.75 102.88 C 93.08 103.77 94.06 105.29 94.38 106.12 C 94.69 106.96 94.46 107.44 94.62 107.88 C 94.79 108.31 95.10 108.02 95.38 108.75 C 95.65 109.48 96.06 111.73 96.25 112.25 C 96.44 112.77 95.02 111.96 96.50 111.88 C 97.98 111.79 102.46 111.94 105.12 111.75 C 107.79 111.56 108.58 111.54 112.50 110.75 C 116.42 109.96 113.12 109.94 128.62 107.00 C 144.12 104.06 191.21 95.60 205.50 93.12 C 219.79 90.65 211.48 92.31 214.38 92.12 C 217.27 91.94 221.02 91.83 222.88 92.00 C 224.73 92.17 224.83 92.73 225.50 93.12 C 226.17 93.52 226.33 93.54 226.88 94.38 C 227.42 95.21 228.27 96.44 228.75 98.12 C 229.23 99.81 229.88 92.10 229.75 104.50 C 229.62 116.90 228.27 148.77 228.00 172.50 C 227.73 196.23 227.79 229.69 228.12 246.88 C 228.46 264.06 229.35 268.02 230.00 275.62 C 230.65 283.23 231.17 286.90 232.00 292.50 C 232.83 298.10 234.00 304.33 235.00 309.25 C 236.00 314.17 236.50 316.88 238.00 322.00 C 239.50 327.12 241.81 334.52 244.00 340.00 C 246.19 345.48 248.81 350.48 251.12 354.88 C 253.44 359.27 255.60 362.81 257.88 366.38 C 260.15 369.94 262.42 373.15 264.75 376.25 C 267.08 379.35 269.12 381.94 271.88 385.00 C 274.62 388.06 278.31 391.81 281.25 394.62 C 284.19 397.44 287.46 400.19 289.50 401.88 C 291.54 403.56 292.75 404.35 293.50 404.75 C 294.25 405.15 293.94 410.60 294.00 404.25 C 294.06 397.90 295.60 374.81 293.88 366.62 C 292.15 358.44 286.42 358.50 283.62 355.12 C 280.83 351.75 279.35 349.67 277.12 346.38 C 274.90 343.08 272.94 340.25 270.25 335.38 C 267.56 330.50 262.85 321.25 261.00 317.12 C 259.15 313.00 259.77 313.33 259.12 310.62 C 258.48 307.92 257.96 306.19 257.12 300.88 C 256.29 295.56 254.81 284.90 254.12 278.75 C 253.44 272.60 253.35 271.00 253.00 264.00 C 252.65 257.00 252.15 246.46 252.00 236.75 C 251.85 227.04 251.96 214.44 252.12 205.75 C 252.29 197.06 252.35 195.25 253.00 184.62 C 253.65 174.00 254.67 153.56 256.00 142.00 C 257.33 130.44 259.67 121.65 261.00 115.25 C 262.33 108.85 263.04 106.79 264.00 103.62 C 264.96 100.46 266.29 98.25 266.75 96.25 C 267.21 94.25 267.23 93.35 266.75 91.62 C 266.27 89.90 265.67 88.31 263.88 85.88 C 262.08 83.44 259.31 79.96 256.00 77.00 C 252.69 74.04 247.19 70.10 244.00 68.12 C 240.81 66.15 238.96 65.65 236.88 65.12 C 234.79 64.60 234.71 64.52 231.50 65.00 C 228.29 65.48 225.98 65.88 217.62 68.00 C 209.27 70.12 193.04 74.79 181.38 77.75 C 169.71 80.71 158.25 83.42 147.62 85.75 C 137.00 88.08 127.06 90.06 117.62 91.75 C 108.19 93.44 95.52 94.98 91.00 95.88 Z" id="s-1-f-3"/>
<path d="M 91.12 95.88 C 86.60 96.77 90.46 96.75 90.50 97.12 C 90.54 97.50 91.19 97.67 91.38 98.12 C 91.56 98.58 91.46 99.44 91.62 99.88 C 91.79 100.31 92.19 100.25 92.38 100.75 C 92.56 101.25 92.42 101.98 92.75 102.88 C 93.08 103.77 94.06 105.29 94.38 106.12 C 94.69 106.96 94.46 107.44 94.62 107.88 C 94.79 108.31 95.10 108.02 95.38 108.75 C 95.65 109.48 96.06 111.73 96.25 112.25 C 96.44 112.77 95.02 111.96 96.50 111.88 C 97.98 111.79 102.46 111.94 105.12 111.75 C 107.79 111.56 108.58 111.54 112.50 110.75 C 116.42 109.96 113.12 109.94 128.62 107.00 C 144.12 104.06 191.21 95.60 205.50 93.12 C 219.79 90.65 211.48 92.31 214.38 92.12 C 217.27 91.94 221.02 91.83 222.88 92.00 C 224.73 92.17 224.83 92.73 225.50 93.12 C 226.17 93.52 226.33 93.54 226.88 94.38 C 227.42 95.21 228.27 96.44 228.75 98.12 C 229.23 99.81 229.85 93.77 229.75 104.50 C 229.65 115.23 228.44 141.77 228.12 162.50 C 227.81 183.23 227.88 214.81 227.88 228.88 C 227.88 242.94 227.77 239.08 228.12 246.88 C 228.48 254.67 229.17 266.90 230.00 275.62 C 230.83 284.35 231.96 292.27 233.12 299.25 C 234.29 306.23 236.15 314.38 237.00 317.50 C 237.85 320.62 236.58 317.94 238.25 318.00 C 239.92 318.06 245.42 318.42 247.00 317.88 C 248.58 317.33 247.10 325.83 247.75 314.75 C 248.40 303.67 250.35 263.88 250.88 251.38 C 251.40 238.88 250.73 243.23 250.88 239.75 C 251.02 236.27 251.42 239.35 251.75 230.50 C 252.08 221.65 252.17 201.38 252.88 186.62 C 253.58 171.88 255.15 151.48 256.00 142.00 C 256.85 132.52 256.83 135.56 258.00 129.75 C 259.17 123.94 261.54 112.71 263.00 107.12 C 264.46 101.54 266.12 98.83 266.75 96.25 C 267.38 93.67 267.23 93.35 266.75 91.62 C 266.27 89.90 265.67 88.31 263.88 85.88 C 262.08 83.44 259.31 79.96 256.00 77.00 C 252.69 74.04 247.17 70.10 244.00 68.12 C 240.83 66.15 239.08 65.65 237.00 65.12 C 234.92 64.60 234.73 64.52 231.50 65.00 C 228.27 65.48 225.98 65.88 217.62 68.00 C 209.27 70.12 193.04 74.79 181.38 77.75 C 169.71 80.71 158.25 83.42 147.62 85.75 C 137.00 88.08 127.04 90.06 117.62 91.75 C 108.21 93.44 95.65 94.98 91.12 95.88 Z" id="s-1-f-4"/>
<path d="M 91.12 95.88 C 86.60 96.77 90.46 96.75 90.50 97.12 C 90.54 97.50 91.19 97.67 91.38 98.12 C 91.56 98.58 91.46 99.44 91.62 99.88 C 91.79 100.31 92.19 100.25 92.38 100.75 C 92.56 101.25 92.42 101.98 92.75 102.88 C 93.08 103.77 94.06 105.29 94.38 106.12 C 94.69 106.96 94.46 107.44 94.62 107.88 C 94.79 108.31 95.10 108.02 95.38 108.75 C 95.65 109.48 96.06 111.73 96.25 112.25 C 96.44 112.77 95.02 111.96 96.50 111.88 C 97.98 111.79 102.48 111.94 105.12 111.75 C 107.77 111.56 108.48 111.54 112.38 110.75 C 116.27 109.96 112.98 109.94 128.50 107.00 C 144.02 104.06 191.19 95.60 205.50 93.12 C 219.81 90.65 211.48 92.31 214.38 92.12 C 217.27 91.94 221.02 91.83 222.88 92.00 C 224.73 92.17 224.83 92.73 225.50 93.12 C 226.17 93.52 226.33 93.54 226.88 94.38 C 227.42 95.21 228.27 96.44 228.75 98.12 C 229.23 99.81 229.85 93.83 229.75 104.50 C 229.65 115.17 228.42 139.04 228.12 162.12 C 227.83 185.21 227.73 225.10 228.00 243.00 C 228.27 260.90 229.23 265.04 229.75 269.50 C 230.27 273.96 227.83 269.69 231.12 269.75 C 234.42 269.81 246.38 269.94 249.50 269.88 C 252.62 269.81 249.67 271.94 249.88 269.38 C 250.08 266.81 250.58 259.44 250.75 254.50 C 250.92 249.56 250.71 243.77 250.88 239.75 C 251.04 235.73 251.42 239.23 251.75 230.38 C 252.08 221.52 252.17 201.35 252.88 186.62 C 253.58 171.90 254.65 153.90 256.00 142.00 C 257.35 130.10 259.67 121.65 261.00 115.25 C 262.33 108.85 263.21 106.25 264.00 103.62 C 264.79 101.00 265.27 100.94 265.75 99.50 C 266.23 98.06 266.71 96.31 266.88 95.00 C 267.04 93.69 267.10 92.92 266.75 91.62 C 266.40 90.33 266.19 89.35 264.75 87.25 C 263.31 85.15 260.40 81.38 258.12 79.00 C 255.85 76.62 253.83 75.00 251.12 73.00 C 248.42 71.00 244.35 68.33 241.88 67.00 C 239.40 65.67 237.98 65.33 236.25 65.00 C 234.52 64.67 234.60 64.50 231.50 65.00 C 228.40 65.50 225.98 65.88 217.62 68.00 C 209.27 70.12 193.04 74.79 181.38 77.75 C 169.71 80.71 158.25 83.42 147.62 85.75 C 137.00 88.08 127.04 90.06 117.62 91.75 C 108.21 93.44 95.65 94.98 91.12 95.88 Z" id="s-1-f-5"/>
<path d="M 253.75 173.62 C 254.44 168.29 255.46 148.33 256.00 142.00 C 256.54 135.67 256.00 140.77 257.00 135.62 C 258.00 130.48 260.83 116.46 262.00 111.12 C 263.17 105.79 263.21 106.10 264.00 103.62 C 264.79 101.15 266.29 98.25 266.75 96.25 C 267.21 94.25 267.23 93.35 266.75 91.62 C 266.27 89.90 265.31 87.98 263.88 85.88 C 262.44 83.77 260.31 81.19 258.12 79.00 C 255.94 76.81 253.46 74.75 250.75 72.75 C 248.04 70.75 244.29 68.29 241.88 67.00 C 239.46 65.71 238.15 65.31 236.25 65.00 C 234.35 64.69 234.27 64.46 230.50 65.12 C 226.73 65.79 221.81 66.90 213.62 69.00 C 205.44 71.10 191.62 75.12 181.38 77.75 C 171.12 80.38 162.75 82.42 152.12 84.75 C 141.50 87.08 127.27 90.02 117.62 91.75 C 107.98 93.48 98.69 94.44 94.25 95.12 C 89.81 95.81 91.62 95.67 91.00 95.88 C 90.38 96.08 90.40 95.71 90.50 96.38 C 90.60 97.04 91.31 99.15 91.62 99.88 C 91.94 100.60 92.04 99.85 92.38 100.75 C 92.71 101.65 93.29 104.35 93.62 105.25 C 93.96 106.15 94.21 105.69 94.38 106.12 C 94.54 106.56 94.46 107.44 94.62 107.88 C 94.79 108.31 95.10 108.02 95.38 108.75 C 95.65 109.48 96.06 111.73 96.25 112.25 C 96.44 112.77 95.02 111.96 96.50 111.88 C 97.98 111.79 102.48 111.94 105.12 111.75 C 107.77 111.56 108.46 111.54 112.38 110.75 C 116.29 109.96 113.10 109.94 128.62 107.00 C 144.15 104.06 191.21 95.60 205.50 93.12 C 219.79 90.65 211.48 92.31 214.38 92.12 C 217.27 91.94 221.27 91.96 222.88 92.00 C 224.48 92.04 223.38 92.02 224.00 92.38 C 224.62 92.73 226.00 93.56 226.62 94.12 C 227.25 94.69 227.40 95.08 227.75 95.75 C 228.10 96.42 228.42 96.67 228.75 98.12 C 229.08 99.58 229.88 91.96 229.75 104.50 C 229.62 117.04 228.21 161.81 228.00 173.38 C 227.79 184.94 224.52 173.77 228.50 173.88 C 232.48 173.98 247.67 174.04 251.88 174.00 C 256.08 173.96 253.06 178.96 253.75 173.62 Z" id="s-1-f-6"/>
<path d="M 256.38 77.38 C 255.15 76.08 250.79 72.73 248.38 71.00 C 245.96 69.27 243.90 68.00 241.88 67.00 C 239.85 66.00 237.98 65.33 236.25 65.00 C 234.52 64.67 234.60 64.50 231.50 65.00 C 228.40 65.50 225.98 65.88 217.62 68.00 C 209.27 70.12 192.29 74.96 181.38 77.75 C 170.46 80.54 162.75 82.42 152.12 84.75 C 141.50 87.08 127.27 90.02 117.62 91.75 C 107.98 93.48 98.69 94.44 94.25 95.12 C 89.81 95.81 91.62 95.54 91.00 95.88 C 90.38 96.21 90.44 96.75 90.50 97.12 C 90.56 97.50 91.19 97.67 91.38 98.12 C 91.56 98.58 91.46 99.44 91.62 99.88 C 91.79 100.31 92.04 99.85 92.38 100.75 C 92.71 101.65 93.29 104.35 93.62 105.25 C 93.96 106.15 94.21 105.69 94.38 106.12 C 94.54 106.56 94.31 107.02 94.62 107.88 C 94.94 108.73 96.00 110.54 96.25 111.25 C 96.50 111.96 94.65 112.04 96.12 112.12 C 97.60 112.21 101.56 112.15 105.12 111.75 C 108.69 111.35 113.58 110.54 117.50 109.75 C 121.42 108.96 113.96 109.77 128.62 107.00 C 143.29 104.23 189.81 95.67 205.50 93.12 C 221.19 90.58 214.38 94.15 222.75 91.75 C 231.12 89.35 250.15 81.15 255.75 78.75 C 261.35 76.35 257.60 78.67 256.38 77.38 Z" id="s-1-f-7"/>
<path d="M 186.75 76.75 C 186.60 73.46 189.48 75.54 185.88 76.38 C 182.27 77.21 173.88 79.69 165.12 81.75 C 156.38 83.81 143.29 86.75 133.38 88.75 C 123.46 90.75 112.15 92.69 105.62 93.75 C 99.10 94.81 96.69 94.77 94.25 95.12 C 91.81 95.48 91.62 95.54 91.00 95.88 C 90.38 96.21 90.44 96.75 90.50 97.12 C 90.56 97.50 91.19 97.67 91.38 98.12 C 91.56 98.58 91.46 99.44 91.62 99.88 C 91.79 100.31 92.19 100.25 92.38 100.75 C 92.56 101.25 92.42 101.98 92.75 102.88 C 93.08 103.77 94.06 105.29 94.38 106.12 C 94.69 106.96 94.46 107.44 94.62 107.88 C 94.79 108.31 95.10 108.02 95.38 108.75 C 95.65 109.48 96.06 111.73 96.25 112.25 C 96.44 112.77 95.02 111.96 96.50 111.88 C 97.98 111.79 102.48 111.94 105.12 111.75 C 107.77 111.56 108.46 111.54 112.38 110.75 C 116.29 109.96 117.02 109.19 128.62 107.00 C 140.23 104.81 172.31 99.44 182.00 97.62 C 191.69 95.81 185.96 99.60 186.75 96.12 C 187.54 92.65 186.90 80.04 186.75 76.75 Z" id="s-1-f-8"/>
<path d="M 138.75 88.12 C 138.62 85.27 141.65 87.15 138.12 87.75 C 134.60 88.35 124.94 90.52 117.62 91.75 C 110.31 92.98 98.69 94.44 94.25 95.12 C 89.81 95.81 91.62 95.54 91.00 95.88 C 90.38 96.21 90.44 96.75 90.50 97.12 C 90.56 97.50 91.19 97.67 91.38 98.12 C 91.56 98.58 91.46 99.44 91.62 99.88 C 91.79 100.31 92.19 100.25 92.38 100.75 C 92.56 101.25 92.42 101.98 92.75 102.88 C 93.08 103.77 94.06 105.29 94.38 106.12 C 94.69 106.96 94.46 107.44 94.62 107.88 C 94.79 108.31 95.10 108.02 95.38 108.75 C 95.65 109.48 96.06 111.73 96.25 112.25 C 96.44 112.77 95.02 111.96 96.50 111.88 C 97.98 111.79 102.48 111.94 105.12 111.75 C 107.77 111.56 109.33 111.38 112.38 110.75 C 115.42 110.12 119.06 108.88 123.38 108.00 C 127.69 107.12 135.67 106.02 138.25 105.50 C 140.83 104.98 138.79 107.77 138.88 104.88 C 138.96 101.98 138.88 90.98 138.75 88.12 Z" id="s-1-f-9"/>
</g>
<g id="s-2" clip-path="url(#c-s-2)">
<use href="#s-2-f-0"/>
<path d="M 194.62 156.12 C 193.73 154.02 191.67 155.31 189.50 155.12 C 187.33 154.94 184.17 154.56 181.62 155.00 C 179.08 155.44 177.79 156.60 174.25 157.75 C 170.71 158.90 165.23 160.54 160.38 161.88 C 155.52 163.21 151.67 164.27 145.12 165.75 C 138.58 167.23 127.88 169.52 121.12 170.75 C 114.38 171.98 107.83 172.56 104.62 173.12 C 101.42 173.69 102.67 173.73 101.88 174.12 C 101.08 174.52 100.38 174.98 99.88 175.50 C 99.38 176.02 99.02 176.62 98.88 177.25 C 98.73 177.88 98.42 178.33 99.00 179.25 C 99.58 180.17 100.85 181.67 102.38 182.75 C 103.90 183.83 106.75 185.10 108.12 185.75 C 109.50 186.40 109.02 186.29 110.62 186.62 C 112.23 186.96 114.46 187.56 117.75 187.75 C 121.04 187.94 127.10 187.90 130.38 187.75 C 133.65 187.60 132.25 187.85 137.38 186.88 C 142.50 185.90 153.65 183.56 161.12 181.88 C 168.60 180.19 176.71 178.19 182.25 176.75 C 187.79 175.31 192.27 174.75 194.38 173.25 C 196.48 171.75 194.83 170.60 194.88 167.75 C 194.92 164.90 195.52 158.23 194.62 156.12 Z" id="s-2-f-1"/>
<path d="M 146.88 165.75 C 146.69 162.81 148.44 164.88 145.88 165.38 C 143.31 165.88 136.54 167.69 131.50 168.75 C 126.46 169.81 120.04 171.04 115.62 171.75 C 111.21 172.46 107.54 172.46 105.00 173.00 C 102.46 173.54 101.38 174.38 100.38 175.00 C 99.38 175.62 99.23 176.04 99.00 176.75 C 98.77 177.46 98.44 178.25 99.00 179.25 C 99.56 180.25 100.85 181.67 102.38 182.75 C 103.90 183.83 106.75 185.10 108.12 185.75 C 109.50 186.40 109.02 186.29 110.62 186.62 C 112.23 186.96 114.44 187.56 117.75 187.75 C 121.06 187.94 127.23 187.90 130.50 187.75 C 133.77 187.60 134.75 187.33 137.38 186.88 C 140.00 186.42 144.67 185.40 146.25 185.00 C 147.83 184.60 146.75 184.83 146.88 184.50 C 147.00 184.17 147.00 186.12 147.00 183.00 C 147.00 179.88 147.06 168.69 146.88 165.75 Z" id="s-2-f-2"/>
</g>
<g id="s-3" clip-path="url(#c-s-3)">
<use href="#s-3-f-0"/>
<path d="M 89.50 233.25 C 89.40 234.44 88.92 238.06 89.62 240.00 C 90.33 241.94 92.27 242.23 93.75 244.88 C 95.23 247.52 97.17 251.98 98.50 255.88 C 99.83 259.77 100.83 264.15 101.75 268.25 C 102.67 272.35 103.35 278.38 104.00 280.50 C 104.65 282.62 102.98 280.92 105.62 281.00 C 108.27 281.08 117.25 281.06 119.88 281.00 C 122.50 280.94 121.40 282.73 121.38 280.62 C 121.35 278.52 120.48 272.54 119.75 268.38 C 119.02 264.21 117.48 259.04 117.00 255.62 C 116.52 252.21 116.98 249.35 116.88 247.88 C 116.77 246.40 117.71 248.60 116.38 246.75 C 115.04 244.90 110.31 238.56 108.88 236.75 C 107.44 234.94 109.56 236.48 107.75 235.88 C 105.94 235.27 100.92 233.62 98.00 233.12 C 95.08 232.62 91.67 232.85 90.25 232.88 C 88.83 232.90 89.60 232.06 89.50 233.25 Z" id="s-3-f-1"/>
</g>
<g id="s-4" clip-path="url(#c-s-4)">
<use href="#s-4-f-0"/>
<path d="M 225.75 241.88 C 226.08 240.77 225.81 239.62 225.62 238.75 C 225.44 237.88 225.94 238.48 224.62 236.62 C 223.31 234.77 220.29 230.40 217.75 227.62 C 215.21 224.85 211.31 221.62 209.38 220.00 C 207.44 218.38 207.10 218.40 206.12 217.88 C 205.15 217.35 204.60 217.00 203.50 216.88 C 202.40 216.75 202.52 216.31 199.50 217.12 C 196.48 217.94 190.38 220.31 185.38 221.75 C 180.38 223.19 172.60 225.06 169.50 225.75 C 166.40 226.44 173.08 224.71 166.75 225.88 C 160.42 227.04 140.65 231.21 131.50 232.75 C 122.35 234.29 115.83 234.52 111.88 235.12 C 107.92 235.73 107.04 234.25 107.75 236.38 C 108.46 238.50 110.40 246.77 116.12 247.88 C 121.85 248.98 137.33 243.83 142.12 243.00 C 146.92 242.17 139.65 243.88 144.88 242.88 C 150.10 241.88 166.33 238.31 173.50 237.00 C 180.67 235.69 185.06 235.33 187.88 235.00 C 190.69 234.67 189.73 234.92 190.38 235.00 C 191.02 235.08 191.23 235.21 191.75 235.50 C 192.27 235.79 193.02 236.19 193.50 236.75 C 193.98 237.31 194.44 237.38 194.62 238.88 C 194.81 240.38 194.92 243.04 194.62 245.75 C 194.33 248.46 193.48 252.65 192.88 255.12 C 192.27 257.60 191.81 257.52 191.00 260.62 C 190.19 263.73 188.17 271.38 188.00 273.75 C 187.83 276.12 189.04 274.50 190.00 274.88 C 190.96 275.25 191.25 275.81 193.75 276.00 C 196.25 276.19 202.94 276.10 205.00 276.00 C 207.06 275.90 204.27 278.79 206.12 275.38 C 207.98 271.96 213.98 259.58 216.12 255.50 C 218.27 251.42 217.75 252.56 219.00 250.88 C 220.25 249.19 222.50 246.88 223.62 245.38 C 224.75 243.88 225.42 242.98 225.75 241.88 Z" id="s-4-f-1"/>
<path d="M 217.50 227.50 C 216.94 226.73 215.23 225.04 213.62 223.62 C 212.02 222.21 209.42 220.10 207.88 219.00 C 206.33 217.90 205.77 217.31 204.38 217.00 C 202.98 216.69 202.67 216.33 199.50 217.12 C 196.33 217.92 190.38 220.31 185.38 221.75 C 180.38 223.19 172.60 225.06 169.50 225.75 C 166.40 226.44 173.08 224.71 166.75 225.88 C 160.42 227.04 140.65 231.21 131.50 232.75 C 122.35 234.29 115.83 234.52 111.88 235.12 C 107.92 235.73 107.04 234.25 107.75 236.38 C 108.46 238.50 110.40 246.77 116.12 247.88 C 121.85 248.98 137.35 243.83 142.12 243.00 C 146.90 242.17 140.54 243.71 144.75 242.88 C 148.96 242.04 159.04 239.50 167.38 238.00 C 175.71 236.50 186.48 235.50 194.75 233.88 C 203.02 232.25 213.21 229.31 217.00 228.25 C 220.79 227.19 218.06 228.27 217.50 227.50 Z" id="s-4-f-2"/>
<path d="M 203.88 217.38 C 203.81 214.96 204.10 216.92 203.38 216.88 C 202.65 216.83 202.50 216.31 199.50 217.12 C 196.50 217.94 190.38 220.31 185.38 221.75 C 180.38 223.19 172.60 225.06 169.50 225.75 C 166.40 226.44 173.08 224.71 166.75 225.88 C 160.42 227.04 140.65 231.21 131.50 232.75 C 122.35 234.29 115.83 234.52 111.88 235.12 C 107.92 235.73 107.04 234.25 107.75 236.38 C 108.46 238.50 110.40 246.77 116.12 247.88 C 121.85 248.98 137.35 243.83 142.12 243.00 C 146.90 242.17 140.50 243.71 144.75 242.88 C 149.00 242.04 160.04 239.35 167.62 238.00 C 175.21 236.65 184.23 235.85 190.25 234.75 C 196.27 233.65 201.48 234.27 203.75 231.38 C 206.02 228.48 203.94 219.79 203.88 217.38 Z" id="s-4-f-3"/>
<path d="M 155.88 228.62 C 155.69 226.79 156.54 228.04 154.88 228.25 C 153.21 228.46 147.77 229.46 145.88 229.88 C 143.98 230.29 146.83 230.12 143.50 230.75 C 140.17 231.38 131.17 232.90 125.88 233.62 C 120.58 234.35 114.77 234.67 111.75 235.12 C 108.73 235.58 107.02 234.25 107.75 236.38 C 108.48 238.50 114.31 245.98 116.12 247.88 C 117.94 249.77 112.06 248.96 118.62 247.75 C 125.19 246.54 149.27 242.04 155.50 240.62 C 161.73 239.21 155.94 241.25 156.00 239.25 C 156.06 237.25 156.06 230.46 155.88 228.62 Z" id="s-4-f-4"/>
</g>
<g id="s-5" clip-path="url(#c-s-5)">
<use href="#s-5-f-0"/>
<path d="M 169.62 277.00 C 169.46 274.35 169.44 276.65 169.00 276.75 C 168.56 276.85 170.90 276.92 167.00 277.62 C 163.10 278.33 151.23 280.02 145.62 281.00 C 140.02 281.98 137.12 282.88 133.38 283.50 C 129.62 284.12 125.12 284.58 123.12 284.75 C 121.12 284.92 121.62 283.17 121.38 284.50 C 121.12 285.83 121.44 290.42 121.62 292.75 C 121.81 295.08 121.00 297.48 122.50 298.50 C 124.00 299.52 126.96 298.96 130.62 298.88 C 134.29 298.79 138.02 298.73 144.50 298.00 C 150.98 297.27 165.25 295.40 169.50 294.50 C 173.75 293.60 169.98 295.54 170.00 292.62 C 170.02 289.71 169.79 279.65 169.62 277.00 Z" id="s-5-f-1"/>
</g>
<g id="s-6" clip-path="url(#c-s-6)">
<use href="#s-6-f-0"/>
<path d="M 160.50 181.50 C 158.98 180.96 158.12 181.48 157.38 181.62 C 156.62 181.77 156.79 182.21 156.00 182.38 C 155.21 182.54 153.52 182.46 152.62 182.62 C 151.73 182.79 151.46 183.21 150.62 183.38 C 149.79 183.54 148.35 183.46 147.62 183.62 C 146.90 183.79 147.04 184.21 146.25 184.38 C 145.46 184.54 143.71 184.46 142.88 184.62 C 142.04 184.79 142.02 185.21 141.25 185.38 C 140.48 185.54 139.15 185.40 138.25 185.62 C 137.35 185.85 136.25 186.35 135.88 186.75 C 135.50 187.15 135.38 186.75 136.00 188.00 C 136.62 189.25 138.85 192.75 139.62 194.25 C 140.40 195.75 140.25 195.31 140.62 197.00 C 141.00 198.69 141.52 199.33 141.88 204.38 C 142.23 209.42 142.65 220.90 142.75 227.25 C 142.85 233.60 142.48 239.67 142.50 242.50 C 142.52 245.33 142.88 235.08 142.88 244.25 C 142.88 253.42 142.50 288.46 142.50 297.50 C 142.50 306.54 142.75 293.88 142.88 298.50 C 143.00 303.12 143.10 320.69 143.25 325.25 C 143.40 329.81 140.44 325.75 143.75 325.88 C 147.06 326.00 159.69 326.00 163.12 326.00 C 166.56 326.00 164.08 326.00 164.38 325.88 C 164.67 325.75 164.62 330.35 164.88 325.25 C 165.12 320.15 165.50 301.25 165.88 295.25 C 166.25 289.25 166.94 293.00 167.12 289.25 C 167.31 285.50 166.88 281.25 167.00 272.75 C 167.12 264.25 167.54 244.67 167.88 238.25 C 168.21 231.83 168.77 235.79 169.00 234.25 C 169.23 232.71 169.23 233.62 169.25 229.00 C 169.27 224.38 169.00 211.48 169.12 206.50 C 169.25 201.52 169.73 200.79 170.00 199.12 C 170.27 197.46 170.60 197.85 170.75 196.50 C 170.90 195.15 171.04 192.40 170.88 191.00 C 170.71 189.60 170.48 189.15 169.75 188.12 C 169.02 187.10 168.04 185.98 166.50 184.88 C 164.96 183.77 162.02 182.04 160.50 181.50 Z" id="s-6-f-1"/>
<path d="M 160.50 181.50 C 158.98 180.96 158.12 181.48 157.38 181.62 C 156.62 181.77 156.79 182.21 156.00 182.38 C 155.21 182.54 153.52 182.46 152.62 182.62 C 151.73 182.79 151.46 183.21 150.62 183.38 C 149.79 183.54 148.35 183.46 147.62 183.62 C 146.90 183.79 147.04 184.21 146.25 184.38 C 145.46 184.54 143.71 184.46 142.88 184.62 C 142.04 184.79 142.02 185.21 141.25 185.38 C 140.48 185.54 139.15 185.40 138.25 185.62 C 137.35 185.85 136.25 186.35 135.88 186.75 C 135.50 187.15 135.42 186.81 136.00 188.00 C 136.58 189.19 138.60 192.38 139.38 193.88 C 140.15 195.38 140.23 195.60 140.62 197.00 C 141.02 198.40 141.40 197.21 141.75 202.25 C 142.10 207.29 142.62 220.54 142.75 227.25 C 142.88 233.96 142.48 239.67 142.50 242.50 C 142.52 245.33 142.81 238.65 142.88 244.25 C 142.94 249.85 142.81 270.52 142.88 276.12 C 142.94 281.73 139.42 277.54 143.25 277.88 C 147.08 278.21 161.92 278.15 165.88 278.12 C 169.83 278.10 166.67 284.40 167.00 277.75 C 167.33 271.10 167.54 245.50 167.88 238.25 C 168.21 231.00 168.77 235.79 169.00 234.25 C 169.23 232.71 169.23 233.62 169.25 229.00 C 169.27 224.38 169.00 211.48 169.12 206.50 C 169.25 201.52 169.73 200.79 170.00 199.12 C 170.27 197.46 170.60 197.85 170.75 196.50 C 170.90 195.15 171.04 192.40 170.88 191.00 C 170.71 189.60 170.48 189.15 169.75 188.12 C 169.02 187.10 168.04 185.98 166.50 184.88 C 164.96 183.77 162.02 182.04 160.50 181.50 Z" id="s-6-f-2"/>
<path d="M 161.12 181.62 C 159.50 181.10 157.60 181.62 156.75 181.75 C 155.90 181.88 156.69 182.23 156.00 182.38 C 155.31 182.52 153.52 182.46 152.62 182.62 C 151.73 182.79 151.46 183.21 150.62 183.38 C 149.79 183.54 148.35 183.46 147.62 183.62 C 146.90 183.79 147.81 184.04 146.25 184.38 C 144.69 184.71 139.98 185.23 138.25 185.62 C 136.52 186.02 136.25 186.35 135.88 186.75 C 135.50 187.15 135.38 186.75 136.00 188.00 C 136.62 189.25 138.69 192.04 139.62 194.25 C 140.56 196.46 141.10 195.58 141.62 201.25 C 142.15 206.92 142.48 223.48 142.75 228.25 C 143.02 233.02 142.85 229.48 143.25 229.88 C 143.65 230.27 144.31 230.56 145.12 230.62 C 145.94 230.69 144.33 230.31 148.12 230.25 C 151.92 230.19 164.38 230.33 167.88 230.25 C 171.38 230.17 168.92 233.69 169.12 229.75 C 169.33 225.81 168.85 212.21 169.12 206.62 C 169.40 201.04 170.48 199.02 170.75 196.25 C 171.02 193.48 171.04 191.52 170.75 190.00 C 170.46 188.48 169.71 187.98 169.00 187.12 C 168.29 186.27 167.81 185.79 166.50 184.88 C 165.19 183.96 162.75 182.15 161.12 181.62 Z" id="s-6-f-3"/>
</g>
<g id="s-7" clip-path="url(#c-s-7)">
<use href="#s-7-f-0"/>
<path d="M 178.00 343.50 C 177.81 341.65 179.08 342.48 176.88 343.00 C 174.67 343.52 167.15 346.04 164.75 346.62 C 162.35 347.21 163.10 346.38 162.50 346.50 C 161.90 346.62 162.85 346.85 161.12 347.38 C 159.40 347.90 153.79 349.12 152.12 349.62 C 150.46 350.12 151.67 350.21 151.12 350.38 C 150.58 350.54 149.42 350.46 148.88 350.62 C 148.33 350.79 148.44 351.21 147.88 351.38 C 147.31 351.54 146.23 351.38 145.50 351.62 C 144.77 351.88 149.08 351.54 143.50 352.88 C 137.92 354.21 118.17 358.48 112.00 359.62 C 105.83 360.77 109.92 360.02 106.50 359.75 C 103.08 359.48 95.06 358.29 91.50 358.00 C 87.94 357.71 86.54 357.77 85.12 358.00 C 83.71 358.23 83.52 358.81 83.00 359.38 C 82.48 359.94 82.17 360.40 82.00 361.38 C 81.83 362.35 81.52 363.85 82.00 365.25 C 82.48 366.65 83.71 368.23 84.88 369.75 C 86.04 371.27 86.94 372.38 89.00 374.38 C 91.06 376.38 95.15 380.04 97.25 381.75 C 99.35 383.46 99.81 383.65 101.62 384.62 C 103.44 385.60 106.42 386.94 108.12 387.62 C 109.83 388.31 110.48 388.56 111.88 388.75 C 113.27 388.94 115.08 389.08 116.50 388.75 C 117.92 388.42 119.23 387.50 120.38 386.75 C 121.52 386.00 122.00 385.21 123.38 384.25 C 124.75 383.29 125.85 382.54 128.62 381.00 C 131.40 379.46 131.85 378.67 140.00 375.00 C 148.15 371.33 171.17 362.48 177.50 359.00 C 183.83 355.52 177.92 356.71 178.00 354.12 C 178.08 351.54 178.19 345.35 178.00 343.50 Z" id="s-7-f-1"/>
<path d="M 130.00 379.75 C 130.12 376.83 130.08 367.31 130.00 363.38 C 129.92 359.44 132.73 356.73 129.50 356.12 C 126.27 355.52 114.71 359.17 110.62 359.75 C 106.54 360.33 108.19 359.92 105.00 359.62 C 101.81 359.33 94.81 358.27 91.50 358.00 C 88.19 357.73 86.54 357.77 85.12 358.00 C 83.71 358.23 83.52 358.81 83.00 359.38 C 82.48 359.94 82.17 360.40 82.00 361.38 C 81.83 362.35 81.83 364.27 82.00 365.25 C 82.17 366.23 81.83 365.73 83.00 367.25 C 84.17 368.77 86.94 372.19 89.00 374.38 C 91.06 376.56 93.48 378.79 95.38 380.38 C 97.27 381.96 98.65 382.81 100.38 383.88 C 102.10 384.94 103.83 385.94 105.75 386.75 C 107.67 387.56 110.10 388.42 111.88 388.75 C 113.65 389.08 114.96 389.08 116.38 388.75 C 117.79 388.42 119.21 387.50 120.38 386.75 C 121.54 386.00 121.90 385.23 123.38 384.25 C 124.85 383.27 128.15 381.62 129.25 380.88 C 130.35 380.12 129.88 382.67 130.00 379.75 Z" id="s-7-f-2"/>
</g>
<g id="s-8" clip-path="url(#c-s-8)">
<use href="#s-8-f-0"/>
<path d="M 191.75 309.00 C 190.83 309.21 190.98 309.67 190.88 310.38 C 190.77 311.08 189.50 309.08 191.12 313.25 C 192.75 317.42 199.04 331.44 200.62 335.38 C 202.21 339.31 200.48 336.48 200.62 336.88 C 200.77 337.27 201.33 337.38 201.50 337.75 C 201.67 338.12 201.31 338.40 201.62 339.12 C 201.94 339.85 202.88 340.98 203.38 342.12 C 203.88 343.27 204.25 345.25 204.62 346.00 C 205.00 346.75 204.60 344.90 205.62 346.62 C 206.65 348.35 209.81 354.67 210.75 356.38 C 211.69 358.08 210.88 356.77 211.25 356.88 C 211.62 356.98 208.69 357.00 213.00 357.00 C 217.31 357.00 233.02 357.08 237.12 356.88 C 241.23 356.67 237.69 356.81 237.62 355.75 C 237.56 354.69 237.42 353.23 236.75 350.50 C 236.08 347.77 234.77 342.35 233.62 339.38 C 232.48 336.40 231.10 334.46 229.88 332.62 C 228.65 330.79 228.04 330.15 226.25 328.38 C 224.46 326.60 221.31 323.73 219.12 322.00 C 216.94 320.27 215.56 319.40 213.12 318.00 C 210.69 316.60 206.50 314.79 204.50 313.62 C 202.50 312.46 202.48 311.75 201.12 311.00 C 199.77 310.25 197.94 309.46 196.38 309.12 C 194.81 308.79 192.67 308.79 191.75 309.00 Z" id="s-8-f-1"/>
</g>
<g id="s-9" clip-path="url(#c-s-9)">
<use href="#s-9-f-0"/>
<path d="M 279.38 85.00 C 277.52 85.40 277.40 86.48 277.00 87.50 C 276.60 88.52 276.44 89.92 277.00 91.12 C 277.56 92.33 279.40 93.52 280.38 94.75 C 281.35 95.98 281.85 96.67 282.88 98.50 C 283.90 100.33 285.52 103.40 286.50 105.75 C 287.48 108.10 288.04 109.92 288.75 112.62 C 289.46 115.33 289.77 116.08 290.75 122.00 C 291.73 127.92 293.44 138.40 294.62 148.12 C 295.81 157.85 296.44 174.90 297.88 180.38 C 299.31 185.85 300.33 180.90 303.25 181.00 C 306.17 181.10 313.27 181.08 315.38 181.00 C 317.48 180.92 316.27 185.44 315.88 180.50 C 315.48 175.56 313.54 158.29 313.00 151.38 C 312.46 144.46 313.48 147.35 312.62 139.00 C 311.77 130.65 309.67 109.27 307.88 101.25 C 306.08 93.23 303.44 93.08 301.88 90.88 C 300.31 88.67 299.96 88.79 298.50 88.00 C 297.04 87.21 294.85 86.60 293.12 86.12 C 291.40 85.65 290.42 85.31 288.12 85.12 C 285.83 84.94 281.23 84.60 279.38 85.00 Z" id="s-9-f-1"/>
<path d="M 279.00 85.12 C 277.35 85.54 277.33 86.50 277.00 87.50 C 276.67 88.50 276.44 89.92 277.00 91.12 C 277.56 92.33 279.40 93.52 280.38 94.75 C 281.35 95.98 281.81 96.56 282.88 98.50 C 283.94 100.44 285.77 104.02 286.75 106.38 C 287.73 108.73 287.81 108.31 288.75 112.62 C 289.69 116.94 291.67 128.88 292.38 132.25 C 293.08 135.62 291.94 132.75 293.00 132.88 C 294.06 133.00 295.81 133.12 298.75 133.00 C 301.69 132.88 308.46 132.56 310.62 132.12 C 312.79 131.69 312.21 135.52 311.75 130.38 C 311.29 125.23 309.52 107.83 307.88 101.25 C 306.23 94.67 303.44 93.08 301.88 90.88 C 300.31 88.67 299.96 88.79 298.50 88.00 C 297.04 87.21 295.06 86.62 293.12 86.12 C 291.19 85.62 289.23 85.17 286.88 85.00 C 284.52 84.83 280.65 84.71 279.00 85.12 Z" id="s-9-f-2"/>
</g>
<g id="s-10" clip-path="url(#c-s-10)">
<use href="#s-10-f-0"/>
<path d="M 422.50 175.25 C 423.85 169.04 428.08 147.52 430.00 138.62 C 431.92 129.73 432.48 127.10 434.00 121.88 C 435.52 116.65 437.52 111.00 439.12 107.25 C 440.73 103.50 442.69 101.19 443.62 99.38 C 444.56 97.56 444.56 97.60 444.75 96.38 C 444.94 95.15 444.92 93.04 444.75 92.00 C 444.58 90.96 444.31 90.92 443.75 90.12 C 443.19 89.33 442.62 88.44 441.38 87.25 C 440.12 86.06 438.17 84.33 436.25 83.00 C 434.33 81.67 433.27 80.88 429.88 79.25 C 426.48 77.62 419.17 74.60 415.88 73.25 C 412.58 71.90 411.75 71.52 410.12 71.12 C 408.50 70.73 408.04 70.73 406.12 70.88 C 404.21 71.02 401.54 71.44 398.62 72.00 C 395.71 72.56 394.12 72.81 388.62 74.25 C 383.12 75.69 372.88 78.88 365.62 80.62 C 358.38 82.38 352.19 83.54 345.12 84.75 C 338.06 85.96 330.42 87.04 323.25 87.88 C 316.08 88.71 305.90 89.33 302.12 89.75 C 298.35 90.17 300.83 90.21 300.62 90.38 C 300.42 90.54 300.90 90.65 300.88 90.75 C 300.85 90.85 300.42 90.88 300.50 91.00 C 300.58 91.12 300.23 89.67 301.38 91.50 C 302.52 93.33 304.67 100.29 307.38 102.00 C 310.08 103.71 313.75 102.00 317.62 101.75 C 321.50 101.50 318.81 102.29 330.62 100.50 C 342.44 98.71 376.79 92.75 388.50 91.00 C 400.21 89.25 398.48 90.02 400.88 90.00 C 403.27 89.98 402.25 90.38 402.88 90.88 C 403.50 91.38 404.17 92.08 404.62 93.00 C 405.08 93.92 405.48 93.42 405.62 96.38 C 405.77 99.33 405.81 105.12 405.50 110.75 C 405.19 116.38 404.35 124.71 403.75 130.12 C 403.15 135.54 402.21 140.29 401.88 143.25 C 401.54 146.21 402.12 144.62 401.75 147.88 C 401.38 151.12 400.38 158.23 399.62 162.75 C 398.88 167.27 397.58 172.81 397.25 175.00 C 396.92 177.19 393.79 175.71 397.62 175.88 C 401.46 176.04 416.21 176.00 420.25 176.00 C 424.29 176.00 421.50 176.00 421.88 175.88 C 422.25 175.75 421.15 181.46 422.50 175.25 Z" id="s-10-f-1"/>
<path d="M 444.88 95.12 C 445.04 93.92 444.94 92.83 444.75 92.00 C 444.56 91.17 444.44 91.02 443.75 90.12 C 443.06 89.23 441.88 87.81 440.62 86.62 C 439.38 85.44 437.79 84.10 436.25 83.00 C 434.71 81.90 435.19 81.79 431.38 80.00 C 427.56 78.21 417.23 73.77 413.38 72.25 C 409.52 70.73 409.77 71.08 408.25 70.88 C 406.73 70.67 408.02 70.31 404.25 71.00 C 400.48 71.69 392.06 73.40 385.62 75.00 C 379.19 76.60 372.38 79.00 365.62 80.62 C 358.88 82.25 352.19 83.54 345.12 84.75 C 338.06 85.96 330.42 87.04 323.25 87.88 C 316.08 88.71 305.85 89.38 302.12 89.75 C 298.40 90.12 301.08 89.94 300.88 90.12 C 300.67 90.31 300.94 90.75 300.88 90.88 C 300.81 91.00 300.42 90.77 300.50 90.88 C 300.58 90.98 300.25 89.67 301.38 91.50 C 302.50 93.33 304.54 100.17 307.25 101.88 C 309.96 103.58 314.04 101.94 317.62 101.75 C 321.21 101.56 317.06 102.52 328.75 100.75 C 340.44 98.98 376.10 92.92 387.75 91.12 C 399.40 89.33 396.29 90.15 398.62 90.00 C 400.96 89.85 400.96 90.04 401.75 90.25 C 402.54 90.46 402.90 90.79 403.38 91.25 C 403.85 91.71 404.23 91.96 404.62 93.00 C 405.02 94.04 405.56 95.06 405.75 97.50 C 405.94 99.94 406.04 102.67 405.75 107.62 C 405.46 112.58 404.25 123.90 404.00 127.25 C 403.75 130.60 403.94 127.65 404.25 127.75 C 404.56 127.85 401.19 127.88 405.88 127.88 C 410.56 127.88 427.17 130.35 432.38 127.75 C 437.58 125.15 435.69 116.29 437.12 112.25 C 438.56 108.21 439.90 105.67 441.00 103.50 C 442.10 101.33 443.10 100.65 443.75 99.25 C 444.40 97.85 444.71 96.33 444.88 95.12 Z" id="s-10-f-2"/>
<path d="M 430.12 79.88 C 430.08 79.58 432.27 80.31 429.38 79.00 C 426.48 77.69 416.10 73.33 412.75 72.00 C 409.40 70.67 410.65 71.17 409.25 71.00 C 407.85 70.83 408.31 70.33 404.38 71.00 C 400.44 71.67 390.27 73.85 385.62 75.00 C 380.98 76.15 381.46 76.58 376.50 77.88 C 371.54 79.17 363.29 81.27 355.88 82.75 C 348.46 84.23 340.96 85.58 332.00 86.75 C 323.04 87.92 307.31 89.19 302.12 89.75 C 296.94 90.31 301.15 89.92 300.88 90.12 C 300.60 90.33 300.42 90.77 300.50 91.00 C 300.58 91.23 300.23 89.67 301.38 91.50 C 302.52 93.33 304.29 100.31 307.38 102.00 C 310.46 103.69 314.25 102.12 319.88 101.62 C 325.50 101.12 333.29 100.23 341.12 99.00 C 348.96 97.77 358.98 95.58 366.88 94.25 C 374.77 92.92 382.92 91.73 388.50 91.00 C 394.08 90.27 393.52 91.58 400.38 89.88 C 407.23 88.17 424.67 82.42 429.62 80.75 C 434.58 79.08 430.17 80.17 430.12 79.88 Z" id="s-10-f-3"/>
<path d="M 396.88 73.12 C 396.81 70.29 396.92 72.75 396.38 72.75 C 395.83 72.75 398.83 71.79 393.62 73.12 C 388.42 74.46 373.21 78.81 365.12 80.75 C 357.04 82.69 352.12 83.56 345.12 84.75 C 338.12 85.94 330.29 87.04 323.12 87.88 C 315.96 88.71 305.83 89.38 302.12 89.75 C 298.42 90.12 301.15 89.92 300.88 90.12 C 300.60 90.33 300.42 90.77 300.50 91.00 C 300.58 91.23 300.25 89.69 301.38 91.50 C 302.50 93.31 304.56 100.17 307.25 101.88 C 309.94 103.58 313.60 101.98 317.50 101.75 C 321.40 101.52 322.10 101.79 330.62 100.50 C 339.15 99.21 357.71 95.71 368.62 94.00 C 379.54 92.29 391.44 90.96 396.12 90.25 C 400.81 89.54 396.62 92.60 396.75 89.75 C 396.88 86.90 396.94 75.96 396.88 73.12 Z" id="s-10-f-4"/>
<path d="M 349.00 85.12 C 348.94 83.15 348.83 84.31 348.62 84.12 C 348.42 83.94 349.38 83.73 347.75 84.00 C 346.12 84.27 342.81 85.12 338.88 85.75 C 334.94 86.38 330.25 87.08 324.12 87.75 C 318.00 88.42 306.00 89.35 302.12 89.75 C 298.25 90.15 301.15 89.92 300.88 90.12 C 300.60 90.33 300.42 90.77 300.50 91.00 C 300.58 91.23 300.21 89.67 301.38 91.50 C 302.54 93.33 304.77 100.29 307.50 102.00 C 310.23 103.71 314.21 101.96 317.75 101.75 C 321.29 101.54 325.23 101.21 328.75 100.75 C 332.27 100.29 336.79 99.29 338.88 99.00 C 340.96 98.71 339.62 99.27 341.25 99.00 C 342.88 98.73 347.33 97.88 348.62 97.38 C 349.92 96.88 348.94 98.04 349.00 96.00 C 349.06 93.96 349.06 87.10 349.00 85.12 Z" id="s-10-f-5"/>
</g>
<g id="s-11" clip-path="url(#c-s-11)">
<use href="#s-11-f-0"/>
<path d="M 360.88 134.75 C 360.25 132.04 360.67 134.21 357.25 134.88 C 353.83 135.54 347.04 137.56 340.38 138.75 C 333.71 139.94 321.88 141.12 317.25 142.00 C 312.62 142.88 313.42 142.75 312.62 144.00 C 311.83 145.25 311.52 148.02 312.50 149.50 C 313.48 150.98 316.12 152.00 318.50 152.88 C 320.88 153.75 323.23 154.44 326.75 154.75 C 330.27 155.06 334.02 155.06 339.62 154.75 C 345.23 154.44 356.81 153.48 360.38 152.88 C 363.94 152.27 360.92 154.15 361.00 151.12 C 361.08 148.10 361.50 137.46 360.88 134.75 Z" id="s-11-f-1"/>
</g>
<g id="s-12" clip-path="url(#c-s-12)">
<use href="#s-12-f-0"/>
<path d="M 367.00 93.88 C 366.67 93.77 365.48 93.54 364.88 93.62 C 364.27 93.71 364.44 94.21 363.38 94.38 C 362.31 94.54 359.58 94.44 358.50 94.62 C 357.42 94.81 357.83 95.33 356.88 95.50 C 355.92 95.67 353.71 95.46 352.75 95.62 C 351.79 95.79 352.02 96.33 351.12 96.50 C 350.23 96.67 348.33 96.46 347.38 96.62 C 346.42 96.79 346.33 97.33 345.38 97.50 C 344.42 97.67 342.54 97.44 341.62 97.62 C 340.71 97.81 340.15 98.17 339.88 98.62 C 339.60 99.08 339.50 99.23 340.00 100.38 C 340.50 101.52 342.08 103.29 342.88 105.50 C 343.67 107.71 344.27 108.73 344.75 113.62 C 345.23 118.52 345.62 130.06 345.75 134.88 C 345.88 139.69 345.48 141.12 345.50 142.50 C 345.52 143.88 342.12 143.06 345.88 143.12 C 349.62 143.19 364.31 144.81 368.00 142.88 C 371.69 140.94 367.81 135.33 368.00 131.50 C 368.19 127.67 368.62 123.35 369.12 119.88 C 369.62 116.40 370.40 112.85 371.00 110.62 C 371.60 108.40 372.44 107.75 372.75 106.50 C 373.06 105.25 373.04 104.08 372.88 103.12 C 372.71 102.17 372.25 101.46 371.75 100.75 C 371.25 100.04 371.19 99.79 369.88 98.88 C 368.56 97.96 364.79 95.98 363.88 95.25 C 362.96 94.52 363.88 94.67 364.38 94.50 C 364.88 94.33 366.44 94.35 366.88 94.25 C 367.31 94.15 367.33 93.98 367.00 93.88 Z" id="s-12-f-1"/>
</g>
<g id="s-13" clip-path="url(#c-s-13)">
<use href="#s-13-f-0"/>
<path d="M 364.75 188.00 C 364.60 185.15 364.90 187.56 364.12 187.50 C 363.35 187.44 361.23 187.48 360.12 187.62 C 359.02 187.77 359.15 188.19 357.50 188.38 C 355.85 188.56 352.58 188.40 350.25 188.75 C 347.92 189.10 345.98 190.00 343.50 190.50 C 341.02 191.00 339.88 191.29 335.38 191.75 C 330.88 192.21 319.65 190.46 316.50 193.25 C 313.35 196.04 315.81 205.75 316.50 208.50 C 317.19 211.25 317.94 209.54 320.62 209.75 C 323.31 209.96 325.35 210.33 332.62 209.75 C 339.90 209.17 358.85 207.10 364.25 206.25 C 369.65 205.40 364.92 207.67 365.00 204.62 C 365.08 201.58 364.90 190.85 364.75 188.00 Z" id="s-13-f-1"/>
</g>
<g id="s-14" clip-path="url(#c-s-14)">
<use href="#s-14-f-0"/>
<path d="M 289.62 247.00 C 288.88 246.67 287.85 247.02 287.25 247.25 C 286.65 247.48 286.33 247.92 286.00 248.38 C 285.67 248.83 285.65 248.73 285.25 250.00 C 284.85 251.27 284.56 253.31 283.62 256.00 C 282.69 258.69 282.23 260.35 279.62 266.12 C 277.02 271.90 270.08 286.00 268.00 290.62 C 265.92 295.25 267.19 293.17 267.12 293.88 C 267.06 294.58 263.21 294.69 267.62 294.88 C 272.04 295.06 289.12 295.15 293.62 295.00 C 298.12 294.85 294.10 295.58 294.62 294.00 C 295.15 292.42 296.23 288.10 296.75 285.50 C 297.27 282.90 297.58 281.31 297.75 278.38 C 297.92 275.44 297.92 270.52 297.75 267.88 C 297.58 265.23 297.25 264.44 296.75 262.50 C 296.25 260.56 295.58 258.46 294.75 256.25 C 293.92 254.04 292.60 250.79 291.75 249.25 C 290.90 247.71 290.38 247.33 289.62 247.00 Z" id="s-14-f-1"/>
</g>
<g id="s-15" clip-path="url(#c-s-15)">
<use href="#s-15-f-0"/>
<path d="M 304.25 233.00 C 303.79 233.71 303.75 234.42 304.00 235.38 C 304.25 236.33 305.12 237.17 305.75 238.75 C 306.38 240.33 306.00 238.62 307.75 244.88 C 309.50 251.12 314.02 268.83 316.25 276.25 C 318.48 283.67 319.15 284.90 321.12 289.38 C 323.10 293.85 325.88 299.54 328.12 303.12 C 330.38 306.71 332.50 308.60 334.62 310.88 C 336.75 313.15 338.62 314.81 340.88 316.75 C 343.12 318.69 345.54 320.67 348.12 322.50 C 350.71 324.33 353.62 326.23 356.38 327.75 C 359.12 329.27 361.52 330.48 364.62 331.62 C 367.73 332.77 371.62 333.79 375.00 334.62 C 378.38 335.46 381.06 336.08 384.88 336.62 C 388.69 337.17 392.69 337.73 397.88 337.88 C 403.06 338.02 410.19 338.04 416.00 337.50 C 421.81 336.96 427.62 335.94 432.75 334.62 C 437.88 333.31 442.69 331.56 446.75 329.62 C 450.81 327.69 454.46 325.08 457.12 323.00 C 459.79 320.92 461.62 318.73 462.75 317.12 C 463.88 315.52 463.71 314.62 463.88 313.38 C 464.04 312.12 463.94 310.77 463.75 309.62 C 463.56 308.48 463.21 307.48 462.75 306.50 C 462.29 305.52 461.77 304.69 461.00 303.75 C 460.23 302.81 459.12 301.69 458.12 300.88 C 457.12 300.06 456.00 299.21 455.00 298.88 C 454.00 298.54 454.21 298.56 452.12 298.88 C 450.04 299.19 448.79 299.75 442.50 300.75 C 436.21 301.75 419.77 304.00 414.38 304.88 C 408.98 305.75 411.60 305.35 410.12 306.00 C 408.65 306.65 407.17 307.96 405.50 308.75 C 403.83 309.54 401.67 310.25 400.12 310.75 C 398.58 311.25 398.21 311.42 396.25 311.75 C 394.29 312.08 390.85 312.58 388.38 312.75 C 385.90 312.92 383.88 312.92 381.38 312.75 C 378.88 312.58 375.90 312.25 373.38 311.75 C 370.85 311.25 368.60 310.62 366.25 309.75 C 363.90 308.88 361.88 307.96 359.25 306.50 C 356.62 305.04 352.67 302.46 350.50 301.00 C 348.33 299.54 348.21 299.54 346.25 297.75 C 344.29 295.96 340.79 292.69 338.75 290.25 C 336.71 287.81 335.60 285.85 334.00 283.12 C 332.40 280.40 330.44 276.71 329.12 273.88 C 327.81 271.04 327.17 269.35 326.12 266.12 C 325.08 262.90 323.60 257.79 322.88 254.50 C 322.15 251.21 322.15 248.56 321.75 246.38 C 321.35 244.19 321.19 243.06 320.50 241.38 C 319.81 239.69 318.73 237.73 317.62 236.25 C 316.52 234.77 314.94 233.38 313.88 232.50 C 312.81 231.62 312.44 231.23 311.25 231.00 C 310.06 230.77 307.92 230.79 306.75 231.12 C 305.58 231.46 304.71 232.29 304.25 233.00 Z" id="s-15-f-1"/>
<path d="M 304.88 232.25 C 304.35 232.65 304.27 232.85 304.12 233.38 C 303.98 233.90 303.56 234.00 304.00 235.38 C 304.44 236.75 305.06 235.98 306.75 241.62 C 308.44 247.27 312.06 262.12 314.12 269.25 C 316.19 276.38 317.50 280.04 319.12 284.38 C 320.75 288.71 322.33 292.06 323.88 295.25 C 325.42 298.44 326.23 300.54 328.38 303.50 C 330.52 306.46 334.12 310.33 336.75 313.00 C 339.38 315.67 341.15 317.21 344.12 319.50 C 347.10 321.79 351.56 324.85 354.62 326.75 C 357.69 328.65 359.69 329.71 362.50 330.88 C 365.31 332.04 367.81 332.79 371.50 333.75 C 375.19 334.71 380.71 335.96 384.62 336.62 C 388.54 337.29 389.73 337.60 395.00 337.75 C 400.27 337.90 412.60 337.65 416.25 337.50 C 419.90 337.35 416.75 341.96 416.88 336.88 C 417.00 331.79 417.06 312.35 417.00 307.00 C 416.94 301.65 417.65 304.92 416.50 304.75 C 415.35 304.58 411.90 305.35 410.12 306.00 C 408.35 306.65 407.54 307.83 405.88 308.62 C 404.21 309.42 401.73 310.23 400.12 310.75 C 398.52 311.27 398.21 311.42 396.25 311.75 C 394.29 312.08 390.85 312.58 388.38 312.75 C 385.90 312.92 383.88 312.92 381.38 312.75 C 378.88 312.58 375.90 312.25 373.38 311.75 C 370.85 311.25 368.92 310.79 366.25 309.75 C 363.58 308.71 360.27 307.15 357.38 305.50 C 354.48 303.85 351.35 301.73 348.88 299.88 C 346.40 298.02 344.33 296.17 342.50 294.38 C 340.67 292.58 339.62 291.56 337.88 289.12 C 336.12 286.69 333.65 282.73 332.00 279.75 C 330.35 276.77 329.02 273.65 328.00 271.25 C 326.98 268.85 326.73 268.17 325.88 265.38 C 325.02 262.58 323.56 257.67 322.88 254.50 C 322.19 251.33 322.15 248.56 321.75 246.38 C 321.35 244.19 321.02 242.83 320.50 241.38 C 319.98 239.92 319.71 239.08 318.62 237.62 C 317.54 236.17 315.10 233.69 314.00 232.62 C 312.90 231.56 313.12 231.52 312.00 231.25 C 310.88 230.98 308.44 230.83 307.25 231.00 C 306.06 231.17 305.40 231.85 304.88 232.25 Z" id="s-15-f-2"/>
<path d="M 305.25 231.88 C 304.75 232.21 304.46 232.42 304.25 233.00 C 304.04 233.58 303.75 234.42 304.00 235.38 C 304.25 236.33 305.12 237.17 305.75 238.75 C 306.38 240.33 306.04 238.75 307.75 244.88 C 309.46 251.00 313.77 268.08 316.00 275.50 C 318.23 282.92 319.06 284.71 321.12 289.38 C 323.19 294.04 325.67 299.46 328.38 303.50 C 331.08 307.54 334.23 310.56 337.38 313.62 C 340.52 316.69 344.38 319.69 347.25 321.88 C 350.12 324.06 352.19 325.29 354.62 326.75 C 357.06 328.21 359.67 329.65 361.88 330.62 C 364.08 331.60 366.73 332.31 367.88 332.62 C 369.02 332.94 368.58 336.12 368.75 332.50 C 368.92 328.88 368.98 314.60 368.88 310.88 C 368.77 307.15 369.04 310.50 368.12 310.12 C 367.21 309.75 365.17 309.40 363.38 308.62 C 361.58 307.85 359.79 306.96 357.38 305.50 C 354.96 304.04 351.19 301.58 348.88 299.88 C 346.56 298.17 345.19 296.85 343.50 295.25 C 341.81 293.65 340.67 292.83 338.75 290.25 C 336.83 287.67 333.98 283.40 332.00 279.75 C 330.02 276.10 328.40 272.58 326.88 268.38 C 325.35 264.17 323.75 258.27 322.88 254.50 C 322.00 250.73 322.17 248.29 321.62 245.75 C 321.08 243.21 320.25 240.77 319.62 239.25 C 319.00 237.73 318.94 237.83 317.88 236.62 C 316.81 235.42 314.25 232.90 313.25 232.00 C 312.25 231.10 312.88 231.42 311.88 231.25 C 310.88 231.08 308.35 230.90 307.25 231.00 C 306.15 231.10 305.75 231.54 305.25 231.88 Z" id="s-15-f-3"/>
<path d="M 306.75 231.12 C 305.58 231.46 304.71 232.29 304.25 233.00 C 303.79 233.71 303.75 234.42 304.00 235.38 C 304.25 236.33 305.19 237.38 305.75 238.75 C 306.31 240.12 305.67 237.50 307.38 243.62 C 309.08 249.75 314.04 268.71 316.00 275.50 C 317.96 282.29 317.79 281.06 319.12 284.38 C 320.46 287.69 322.44 292.27 324.00 295.38 C 325.56 298.48 327.69 301.79 328.50 303.00 C 329.31 304.21 328.81 303.04 328.88 302.62 C 328.94 302.21 329.00 301.33 328.88 300.50 C 328.75 299.67 328.79 302.65 328.12 297.62 C 327.46 292.60 325.54 275.35 324.88 270.38 C 324.21 265.40 324.29 268.94 324.12 267.75 C 323.96 266.56 324.48 267.60 323.88 263.25 C 323.27 258.90 321.54 246.12 320.50 241.62 C 319.46 237.12 318.83 237.85 317.62 236.25 C 316.42 234.65 314.31 232.88 313.25 232.00 C 312.19 231.12 312.33 231.15 311.25 231.00 C 310.17 230.85 307.92 230.79 306.75 231.12 Z" id="s-15-f-4"/>
<path d="M 306.38 231.25 C 305.21 231.58 304.65 232.31 304.25 233.00 C 303.85 233.69 303.75 234.42 304.00 235.38 C 304.25 236.33 305.19 237.38 305.75 238.75 C 306.31 240.12 306.17 239.21 307.38 243.62 C 308.58 248.04 311.40 259.46 313.00 265.25 C 314.60 271.04 316.10 276.08 317.00 278.38 C 317.90 280.67 316.96 278.92 318.38 279.00 C 319.79 279.08 324.25 279.08 325.50 278.88 C 326.75 278.67 326.71 284.00 325.88 277.75 C 325.04 271.50 321.71 248.06 320.50 241.38 C 319.29 234.69 319.83 239.19 318.62 237.62 C 317.42 236.06 314.48 233.10 313.25 232.00 C 312.02 230.90 312.40 231.12 311.25 231.00 C 310.10 230.88 307.54 230.92 306.38 231.25 Z" id="s-15-f-5"/>
</g>
<g id="s-16" clip-path="url(#c-s-16)">
<use href="#s-16-f-0"/>
</g>
<g id="s-17" clip-path="url(#c-s-17)">
<use href="#s-17-f-0"/>
<path d="M 419.75 223.00 C 418.71 223.17 419.00 223.77 418.88 224.25 C 418.75 224.73 418.85 225.42 419.00 225.88 C 419.15 226.33 418.38 225.62 419.75 227.00 C 421.12 228.38 424.60 231.42 427.25 234.12 C 429.90 236.83 431.31 238.15 435.62 243.25 C 439.94 248.35 449.00 259.94 453.12 264.75 C 457.25 269.56 458.60 270.42 460.38 272.12 C 462.15 273.83 462.71 274.25 463.75 275.00 C 464.79 275.75 466.08 276.79 466.62 276.62 C 467.17 276.46 466.98 280.25 467.00 274.00 C 467.02 267.75 467.33 245.29 466.75 239.12 C 466.17 232.96 467.54 238.85 463.50 237.00 C 459.46 235.15 448.90 230.29 442.50 228.00 C 436.10 225.71 428.92 224.08 425.12 223.25 C 421.33 222.42 420.79 222.83 419.75 223.00 Z" id="s-17-f-1"/>
</g>
</svg>