<?xml version="1.0" encoding="UTF-8"?>
<svg xmlns="http://www.w3.org/2000/svg" viewBox="0 0 500 500">
<defs>
<path d="M 115.50 82.00 C 112.85 80.69 109.46 79.65 107.50 79.12 C 105.54 78.60 104.79 78.88 103.75 78.88 C 102.71 78.88 101.98 78.85 101.25 79.12 C 100.52 79.40 99.90 79.92 99.38 80.50 C 98.85 81.08 98.56 79.40 98.12 82.62 C 97.69 85.85 97.31 95.25 96.75 99.88 C 96.19 104.50 95.58 106.81 94.75 110.38 C 93.92 113.94 93.77 115.02 91.75 121.25 C 89.73 127.48 85.15 140.85 82.62 147.75 C 80.10 154.65 79.27 156.56 76.62 162.62 C 73.98 168.69 70.40 176.71 66.75 184.12 C 63.10 191.54 58.02 201.23 54.75 207.12 C 51.48 213.02 48.35 217.21 47.12 219.50 C 45.90 221.79 46.85 220.67 47.38 220.88 C 47.90 221.08 49.33 220.94 50.25 220.75 C 51.17 220.56 50.58 221.21 52.88 219.75 C 55.17 218.29 60.02 215.38 64.00 212.00 C 67.98 208.62 72.62 204.02 76.75 199.50 C 80.88 194.98 85.75 188.73 88.75 184.88 C 91.75 181.02 93.71 178.06 94.75 176.38 C 95.79 174.69 93.38 177.10 95.00 174.75 C 96.62 172.40 99.35 171.17 104.50 162.25 C 109.65 153.33 121.79 129.48 125.88 121.25 C 129.96 113.02 127.54 115.73 129.00 112.88 C 130.46 110.02 133.67 106.31 134.62 104.12 C 135.58 101.94 134.90 100.88 134.75 99.75 C 134.60 98.62 134.33 98.35 133.75 97.38 C 133.17 96.40 132.23 95.02 131.25 93.88 C 130.27 92.73 129.19 91.65 127.88 90.50 C 126.56 89.35 125.44 88.42 123.38 87.00 C 121.31 85.58 118.15 83.31 115.50 82.00 Z" id="s-0-f-0"/>
<clipPath id="c-s-0"><use href="#s-0-f-0"/></clipPath>
<path d="M 194.88 158.00 C 194.83 157.38 194.88 157.46 194.25 156.75 C 193.62 156.04 192.79 154.90 191.12 153.75 C 189.46 152.60 186.92 150.96 184.25 149.88 C 181.58 148.79 177.46 147.73 175.12 147.25 C 172.79 146.77 173.50 146.54 170.25 147.00 C 167.00 147.46 161.56 148.56 155.62 150.00 C 149.69 151.44 143.31 153.50 134.62 155.62 C 125.94 157.75 110.17 159.62 103.50 162.75 C 96.83 165.88 95.38 172.23 94.62 174.38 C 93.88 176.52 96.44 175.35 99.00 175.62 C 101.56 175.90 102.96 176.44 110.00 176.00 C 117.04 175.56 132.79 174.00 141.25 173.00 C 149.71 172.00 154.40 170.85 160.75 170.00 C 167.10 169.15 175.08 168.58 179.38 167.88 C 183.67 167.17 184.54 166.44 186.50 165.75 C 188.46 165.06 189.79 164.62 191.12 163.75 C 192.46 162.88 193.88 161.46 194.50 160.50 C 195.12 159.54 194.92 158.62 194.88 158.00 Z" id="s-1-f-0"/>
<clipPath id="c-s-1"><use href="#s-1-f-0"/></clipPath>
<path d="M 214.88 236.00 C 214.83 235.33 214.92 234.81 214.50 233.88 C 214.08 232.94 213.15 231.38 212.38 230.38 C 211.60 229.38 210.94 228.73 209.88 227.88 C 208.81 227.02 207.46 226.04 206.00 225.25 C 204.54 224.46 203.08 223.81 201.12 223.12 C 199.17 222.44 196.75 221.48 194.25 221.12 C 191.75 220.77 191.04 220.42 186.12 221.00 C 181.21 221.58 170.48 223.77 164.75 224.62 C 159.02 225.48 155.08 225.60 151.75 226.12 C 148.42 226.65 146.54 227.46 144.75 227.75 C 142.96 228.04 145.10 227.35 141.00 227.88 C 136.90 228.40 125.25 230.06 120.12 230.88 C 115.00 231.69 119.73 231.29 110.25 232.75 C 100.77 234.21 75.42 237.94 63.25 239.62 C 51.08 241.31 43.83 242.15 37.25 242.88 C 30.67 243.60 26.50 243.62 23.75 244.00 C 21.00 244.38 21.38 244.81 20.75 245.12 C 20.12 245.44 20.15 245.46 20.00 245.88 C 19.85 246.29 19.50 246.71 19.88 247.62 C 20.25 248.54 20.46 249.67 22.25 251.38 C 24.04 253.08 26.75 256.00 30.62 257.88 C 34.50 259.75 42.02 261.65 45.50 262.62 C 48.98 263.60 49.42 263.56 51.50 263.75 C 53.58 263.94 47.25 265.71 58.00 263.75 C 68.75 261.79 105.75 253.98 116.00 252.00 C 126.25 250.02 115.67 252.40 119.50 251.88 C 123.33 251.35 133.35 249.83 139.00 248.88 C 144.65 247.92 145.85 247.27 153.38 246.12 C 160.90 244.98 174.40 243.08 184.12 242.00 C 193.85 240.92 206.65 240.31 211.75 239.62 C 216.85 238.94 214.23 238.48 214.75 237.88 C 215.27 237.27 214.92 236.67 214.88 236.00 Z" id="s-2-f-0"/>
<clipPath id="c-s-2"><use href="#s-2-f-0"/></clipPath>
<path d="M 141.25 172.50 C 137.75 172.12 127.75 173.29 124.12 173.62 C 120.50 173.96 121.33 174.33 119.50 174.50 C 117.67 174.67 115.06 174.40 113.12 174.62 C 111.19 174.85 108.73 175.42 107.88 175.88 C 107.02 176.33 107.35 176.15 108.00 177.38 C 108.65 178.60 110.83 181.54 111.75 183.25 C 112.67 184.96 112.98 185.50 113.50 187.62 C 114.02 189.75 114.50 189.38 114.88 196.00 C 115.25 202.62 115.62 219.50 115.75 227.38 C 115.88 235.25 115.56 240.42 115.62 243.25 C 115.69 246.08 116.10 243.90 116.12 244.38 C 116.15 244.85 115.62 244.73 115.75 246.12 C 115.88 247.52 116.69 238.04 116.88 252.75 C 117.06 267.46 116.83 320.56 116.88 334.38 C 116.92 348.19 116.98 335.35 117.12 335.62 C 117.27 335.90 114.62 336.48 117.75 336.00 C 120.88 335.52 132.35 333.48 135.88 332.75 C 139.40 332.02 137.71 345.54 138.88 331.62 C 140.04 317.71 142.02 264.06 142.88 249.25 C 143.73 234.44 143.81 246.79 144.00 242.75 C 144.19 238.71 143.83 231.69 144.00 225.00 C 144.17 218.31 144.35 209.40 145.00 202.62 C 145.65 195.85 147.44 188.25 147.88 184.38 C 148.31 180.50 148.08 180.79 147.62 179.38 C 147.17 177.96 146.19 177.02 145.12 175.88 C 144.06 174.73 144.75 172.88 141.25 172.50 Z" id="s-3-f-0"/>
<clipPath id="c-s-3"><use href="#s-3-f-0"/></clipPath>
<path d="M 49.25 282.00 C 48.81 282.98 48.52 283.94 49.12 286.00 C 49.73 288.06 51.96 291.48 52.88 294.38 C 53.79 297.27 54.31 300.71 54.62 303.38 C 54.94 306.04 54.90 307.79 54.75 310.38 C 54.60 312.96 54.25 316.06 53.75 318.88 C 53.25 321.69 52.42 324.94 51.75 327.25 C 51.08 329.56 50.58 330.77 49.75 332.75 C 48.92 334.73 48.38 336.29 46.75 339.12 C 45.12 341.96 41.29 347.56 40.00 349.75 C 38.71 351.94 39.19 351.31 39.00 352.25 C 38.81 353.19 38.52 353.75 38.88 355.38 C 39.23 357.00 39.92 359.54 41.12 362.00 C 42.33 364.46 44.50 367.85 46.12 370.12 C 47.75 372.40 49.40 374.21 50.88 375.62 C 52.35 377.04 53.88 378.08 55.00 378.62 C 56.12 379.17 56.71 379.02 57.62 378.88 C 58.54 378.73 57.90 379.40 60.50 377.75 C 63.10 376.10 69.54 371.27 73.25 369.00 C 76.96 366.73 77.81 366.12 82.75 364.12 C 87.69 362.12 95.23 359.35 102.88 357.00 C 110.52 354.65 120.65 352.00 128.62 350.00 C 136.60 348.00 143.15 346.56 150.75 345.00 C 158.35 343.44 169.88 341.52 174.25 340.62 C 178.62 339.73 176.38 341.67 177.00 339.62 C 177.62 337.58 177.90 330.38 178.00 328.38 C 178.10 326.38 177.96 327.83 177.62 327.62 C 177.29 327.42 176.98 327.23 176.00 327.12 C 175.02 327.02 175.29 326.69 171.75 327.00 C 168.21 327.31 160.10 328.21 154.75 329.00 C 149.40 329.79 142.77 331.31 139.62 331.75 C 136.48 332.19 136.79 331.52 135.88 331.62 C 134.96 331.73 136.96 331.85 134.12 332.38 C 131.29 332.90 121.73 334.19 118.88 334.75 C 116.02 335.31 119.98 335.04 117.00 335.75 C 114.02 336.46 105.94 337.83 101.00 339.00 C 96.06 340.17 90.96 341.96 87.38 342.75 C 83.79 343.54 81.46 343.60 79.50 343.75 C 77.54 343.90 76.60 343.77 75.62 343.62 C 74.65 343.48 74.23 343.42 73.62 342.88 C 73.02 342.33 72.10 341.77 72.00 340.38 C 71.90 338.98 71.38 339.92 73.00 334.50 C 74.62 329.08 79.96 313.58 81.75 307.88 C 83.54 302.17 83.42 302.00 83.75 300.25 C 84.08 298.50 84.08 298.35 83.75 297.38 C 83.42 296.40 82.88 295.60 81.75 294.38 C 80.62 293.15 78.75 291.40 77.00 290.00 C 75.25 288.60 73.44 287.33 71.25 286.00 C 69.06 284.67 66.00 282.98 63.88 282.00 C 61.75 281.02 59.75 280.48 58.50 280.12 C 57.25 279.77 57.50 279.88 56.38 279.88 C 55.25 279.88 52.94 279.77 51.75 280.12 C 50.56 280.48 49.69 281.02 49.25 282.00 Z" id="s-4-f-0"/>
<clipPath id="c-s-4"><use href="#s-4-f-0"/></clipPath>
<path d="M 180.62 264.00 C 179.33 264.17 178.38 264.40 177.25 265.00 C 176.12 265.60 174.40 266.83 173.88 267.62 C 173.35 268.42 173.62 268.67 174.12 269.75 C 174.62 270.83 176.10 272.35 176.88 274.12 C 177.65 275.90 178.25 278.35 178.75 280.38 C 179.25 282.40 179.88 280.06 179.88 286.25 C 179.88 292.44 179.08 310.81 178.75 317.50 C 178.42 324.19 178.21 323.98 177.88 326.38 C 177.54 328.77 176.96 329.44 176.75 331.88 C 176.54 334.31 177.08 337.60 176.62 341.00 C 176.17 344.40 174.44 349.94 174.00 352.25 C 173.56 354.56 173.15 352.54 174.00 354.88 C 174.85 357.21 177.98 364.10 179.12 366.25 C 180.27 368.40 180.08 367.50 180.88 367.75 C 181.67 368.00 182.96 367.96 183.88 367.75 C 184.79 367.54 185.40 367.29 186.38 366.50 C 187.35 365.71 188.85 364.06 189.75 363.00 C 190.65 361.94 191.08 361.38 191.75 360.12 C 192.42 358.88 192.75 359.60 193.75 355.50 C 194.75 351.40 196.21 345.33 197.75 335.50 C 199.29 325.67 201.77 304.33 203.00 296.50 C 204.23 288.67 204.19 291.02 205.12 288.50 C 206.06 285.98 208.00 282.92 208.62 281.38 C 209.25 279.83 208.98 280.02 208.88 279.25 C 208.77 278.48 208.54 277.62 208.00 276.75 C 207.46 275.88 207.21 275.29 205.62 274.00 C 204.04 272.71 201.27 270.50 198.50 269.00 C 195.73 267.50 191.25 265.83 189.00 265.00 C 186.75 264.17 186.40 264.17 185.00 264.00 C 183.60 263.83 181.92 263.83 180.62 264.00 Z" id="s-5-f-0"/>
<clipPath id="c-s-5"><use href="#s-5-f-0"/></clipPath>
<path d="M 260.00 48.50 C 259.56 49.27 259.23 48.98 260.25 51.62 C 261.27 54.27 263.38 59.29 266.12 64.38 C 268.88 69.46 274.29 78.31 276.75 82.12 C 279.21 85.94 279.48 85.79 280.88 87.25 C 282.27 88.71 283.90 90.10 285.12 90.88 C 286.35 91.65 286.85 91.75 288.25 91.88 C 289.65 92.00 292.08 91.83 293.50 91.62 C 294.92 91.42 295.71 91.10 296.75 90.62 C 297.79 90.15 298.79 89.58 299.75 88.75 C 300.71 87.92 301.83 86.56 302.50 85.62 C 303.17 84.69 303.40 84.12 303.75 83.12 C 304.10 82.12 304.44 81.21 304.62 79.62 C 304.81 78.04 304.88 75.06 304.88 73.62 C 304.88 72.19 304.98 72.29 304.62 71.00 C 304.27 69.71 303.44 67.35 302.75 65.88 C 302.06 64.40 301.27 63.17 300.50 62.12 C 299.73 61.08 299.67 60.83 298.12 59.62 C 296.58 58.42 293.40 56.17 291.25 54.88 C 289.10 53.58 288.21 53.02 285.25 51.88 C 282.29 50.73 276.75 48.83 273.50 48.00 C 270.25 47.17 267.52 47.04 265.75 46.88 C 263.98 46.71 263.83 46.73 262.88 47.00 C 261.92 47.27 260.44 47.73 260.00 48.50 Z" id="s-6-f-0"/>
<clipPath id="c-s-6"><use href="#s-6-f-0"/></clipPath>
<path d="M 394.88 42.50 C 393.56 40.75 391.42 38.25 388.88 36.00 C 386.33 33.75 382.42 30.83 379.62 29.00 C 376.83 27.17 373.85 25.83 372.12 25.00 C 370.40 24.17 370.25 24.17 369.25 24.00 C 368.25 23.83 367.00 23.65 366.12 24.00 C 365.25 24.35 365.77 22.10 364.00 26.12 C 362.23 30.15 357.88 42.48 355.50 48.12 C 353.12 53.77 352.42 55.79 349.75 60.00 C 347.08 64.21 343.08 69.19 339.50 73.38 C 335.92 77.56 330.17 82.85 328.25 85.12 C 326.33 87.40 327.81 86.54 328.00 87.00 C 328.19 87.46 328.71 87.75 329.38 87.88 C 330.04 88.00 330.23 88.29 332.00 87.75 C 333.77 87.21 336.77 86.12 340.00 84.62 C 343.23 83.12 345.23 82.19 351.38 78.75 C 357.52 75.31 370.04 67.67 376.88 64.00 C 383.71 60.33 389.21 58.56 392.38 56.75 C 395.54 54.94 395.15 54.04 395.88 53.12 C 396.60 52.21 396.60 52.35 396.75 51.25 C 396.90 50.15 397.06 47.96 396.75 46.50 C 396.44 45.04 396.19 44.25 394.88 42.50 Z" id="s-7-f-0"/>
<clipPath id="c-s-7"><use href="#s-7-f-0"/></clipPath>
<path d="M 446.75 96.88 C 446.17 95.67 444.65 94.17 443.12 93.00 C 441.60 91.83 439.60 90.85 437.62 89.88 C 435.65 88.90 434.81 88.25 431.25 87.12 C 427.69 86.00 419.88 83.81 416.25 83.12 C 412.62 82.44 417.08 81.56 409.50 83.00 C 401.92 84.44 387.58 88.12 370.75 91.75 C 353.92 95.38 333.33 100.08 308.50 104.75 C 283.67 109.42 237.02 117.19 221.75 119.75 C 206.48 122.31 218.10 119.90 216.88 120.12 C 215.65 120.35 215.00 120.75 214.38 121.12 C 213.75 121.50 213.38 121.88 213.12 122.38 C 212.88 122.88 212.67 123.50 212.88 124.12 C 213.08 124.75 213.52 125.35 214.38 126.12 C 215.23 126.90 215.81 127.48 218.00 128.75 C 220.19 130.02 224.56 132.42 227.50 133.75 C 230.44 135.08 233.44 136.25 235.62 136.75 C 237.81 137.25 237.85 137.38 240.62 136.75 C 243.40 136.12 245.31 134.79 252.25 133.00 C 259.19 131.21 276.90 127.19 282.25 126.00 C 287.60 124.81 280.90 126.73 284.38 125.88 C 287.85 125.02 295.15 122.56 303.12 120.88 C 311.10 119.19 327.17 116.73 332.25 115.75 C 337.33 114.77 330.04 115.62 333.62 115.00 C 337.21 114.38 347.48 112.83 353.75 112.00 C 360.02 111.17 363.23 110.65 371.25 110.00 C 379.27 109.35 392.15 108.52 401.88 108.12 C 411.60 107.73 424.02 107.85 429.62 107.62 C 435.23 107.40 433.44 107.25 435.50 106.75 C 437.56 106.25 440.46 105.27 442.00 104.62 C 443.54 103.98 443.98 103.60 444.75 102.88 C 445.52 102.15 446.29 101.25 446.62 100.25 C 446.96 99.25 447.33 98.08 446.75 96.88 Z" id="s-8-f-0"/>
<clipPath id="c-s-8"><use href="#s-8-f-0"/></clipPath>
<path d="M 238.38 163.00 C 236.67 163.42 236.40 164.50 236.00 165.62 C 235.60 166.75 235.38 167.65 236.00 169.75 C 236.62 171.85 238.79 175.56 239.75 178.25 C 240.71 180.94 241.12 182.12 241.75 185.88 C 242.38 189.62 243.17 191.25 243.50 200.75 C 243.83 210.25 243.88 234.33 243.75 242.88 C 243.62 251.42 243.38 248.10 242.75 252.00 C 242.12 255.90 240.44 262.85 240.00 266.25 C 239.56 269.65 239.62 269.71 240.12 272.38 C 240.62 275.04 242.02 279.42 243.00 282.25 C 243.98 285.08 244.67 287.06 246.00 289.38 C 247.33 291.69 249.58 294.56 251.00 296.12 C 252.42 297.69 253.62 298.29 254.50 298.75 C 255.38 299.21 255.54 299.12 256.25 298.88 C 256.96 298.62 258.00 298.25 258.75 297.25 C 259.50 296.25 260.04 296.02 260.75 292.88 C 261.46 289.73 262.60 282.96 263.00 278.38 C 263.40 273.79 262.85 272.23 263.12 265.38 C 263.40 258.52 264.33 250.06 264.62 237.25 C 264.92 224.44 264.67 198.08 264.88 188.50 C 265.08 178.92 267.54 183.52 265.88 179.75 C 264.21 175.98 257.38 168.48 254.88 165.88 C 252.38 163.27 252.31 164.58 250.88 164.12 C 249.44 163.67 248.33 163.31 246.25 163.12 C 244.17 162.94 240.08 162.58 238.38 163.00 Z" id="s-9-f-0"/>
<clipPath id="c-s-9"><use href="#s-9-f-0"/></clipPath>
<path d="M 254.62 166.50 C 256.33 168.85 262.12 177.81 265.50 180.00 C 268.88 182.19 270.98 179.96 274.88 179.62 C 278.77 179.29 284.27 178.92 288.88 178.00 C 293.48 177.08 299.75 174.83 302.50 174.12 C 305.25 173.42 304.67 173.94 305.38 173.75 C 306.08 173.56 305.62 173.21 306.75 173.00 C 307.88 172.79 310.50 172.83 312.12 172.50 C 313.75 172.17 309.62 172.27 316.50 171.00 C 323.38 169.73 343.96 166.21 353.38 164.88 C 362.79 163.54 367.94 163.29 373.00 163.00 C 378.06 162.71 381.17 162.98 383.75 163.12 C 386.33 163.27 387.40 163.60 388.50 163.88 C 389.60 164.15 389.83 164.29 390.38 164.75 C 390.92 165.21 391.19 164.46 391.75 166.62 C 392.31 168.79 392.92 167.73 393.75 177.75 C 394.58 187.77 396.27 216.65 396.75 226.75 C 397.23 236.85 396.96 234.58 396.62 238.38 C 396.29 242.17 395.33 246.67 394.75 249.50 C 394.17 252.33 393.44 253.15 393.12 255.38 C 392.81 257.60 391.92 258.92 392.88 262.88 C 393.83 266.83 397.52 275.88 398.88 279.12 C 400.23 282.38 400.15 281.33 401.00 282.38 C 401.85 283.42 402.88 284.81 404.00 285.38 C 405.12 285.94 406.77 285.85 407.75 285.75 C 408.73 285.65 409.12 285.23 409.88 284.75 C 410.62 284.27 411.25 283.88 412.25 282.88 C 413.25 281.88 414.79 280.17 415.88 278.75 C 416.96 277.33 417.94 275.83 418.75 274.38 C 419.56 272.92 420.10 271.73 420.75 270.00 C 421.40 268.27 422.12 266.10 422.62 264.00 C 423.12 261.90 423.56 260.88 423.75 257.38 C 423.94 253.88 423.88 246.35 423.75 243.00 C 423.62 239.65 423.27 241.21 423.00 237.25 C 422.73 233.29 422.27 226.92 422.12 219.25 C 421.98 211.58 422.00 197.42 422.12 191.25 C 422.25 185.08 422.56 184.67 422.88 182.25 C 423.19 179.83 423.02 179.04 424.00 176.75 C 424.98 174.46 427.77 170.40 428.75 168.50 C 429.73 166.60 429.71 166.31 429.88 165.38 C 430.04 164.44 430.10 163.94 429.75 162.88 C 429.40 161.81 428.73 160.33 427.75 159.00 C 426.77 157.67 425.31 156.23 423.88 154.88 C 422.44 153.52 421.40 152.35 419.12 150.88 C 416.85 149.40 413.19 147.48 410.25 146.00 C 407.31 144.52 403.48 142.83 401.50 142.00 C 399.52 141.17 399.56 141.17 398.38 141.00 C 397.19 140.83 399.62 139.88 394.38 141.00 C 389.12 142.12 374.04 146.25 366.88 147.75 C 359.71 149.25 359.96 148.35 351.38 150.00 C 342.79 151.65 323.06 156.15 315.38 157.62 C 307.69 159.10 309.73 158.17 305.25 158.88 C 300.77 159.58 296.17 160.83 288.50 161.88 C 280.83 162.92 264.79 164.46 259.25 165.12 C 253.71 165.79 256.02 165.65 255.25 165.88 C 254.48 166.10 252.92 164.15 254.62 166.50 Z" id="s-10-f-0"/>
<clipPath id="c-s-10"><use href="#s-10-f-0"/></clipPath>
<path d="M 303.00 120.75 C 302.44 120.52 302.15 120.35 300.88 120.62 C 299.60 120.90 296.73 122.04 295.38 122.38 C 294.02 122.71 293.42 122.46 292.75 122.62 C 292.08 122.79 292.04 123.21 291.38 123.38 C 290.71 123.54 289.42 123.46 288.75 123.62 C 288.08 123.79 288.31 124.17 287.38 124.38 C 286.44 124.58 283.88 124.71 283.12 124.88 C 282.38 125.04 282.81 125.06 282.88 125.38 C 282.94 125.69 283.10 126.27 283.50 126.75 C 283.90 127.23 284.71 127.60 285.25 128.25 C 285.79 128.90 286.33 129.65 286.75 130.62 C 287.17 131.60 287.44 132.38 287.75 134.12 C 288.06 135.88 288.44 136.56 288.62 141.12 C 288.81 145.69 289.02 157.27 288.88 161.50 C 288.73 165.73 287.96 163.60 287.75 166.50 C 287.54 169.40 287.90 175.71 287.62 178.88 C 287.35 182.04 286.60 182.73 286.12 185.50 C 285.65 188.27 285.48 192.23 284.75 195.50 C 284.02 198.77 283.08 201.83 281.75 205.12 C 280.42 208.42 278.54 212.08 276.75 215.25 C 274.96 218.42 272.75 221.65 271.00 224.12 C 269.25 226.60 266.98 229.00 266.25 230.12 C 265.52 231.25 266.08 230.77 266.62 230.88 C 267.17 230.98 267.31 231.46 269.50 230.75 C 271.69 230.04 277.04 228.10 279.75 226.62 C 282.46 225.15 283.73 223.75 285.75 221.88 C 287.77 220.00 289.85 217.81 291.88 215.38 C 293.90 212.94 296.40 209.44 297.88 207.25 C 299.35 205.06 299.94 203.92 300.75 202.25 C 301.56 200.58 301.94 199.92 302.75 197.25 C 303.56 194.58 304.98 189.08 305.62 186.25 C 306.27 183.42 306.42 182.38 306.62 180.25 C 306.83 178.12 306.62 175.50 306.88 173.50 C 307.12 171.50 307.94 171.21 308.12 168.25 C 308.31 165.29 307.85 160.38 308.00 155.75 C 308.15 151.12 308.67 143.90 309.00 140.50 C 309.33 137.10 309.52 137.17 310.00 135.38 C 310.48 133.58 311.58 131.08 311.88 129.75 C 312.17 128.42 312.02 128.10 311.75 127.38 C 311.48 126.65 311.06 126.10 310.25 125.38 C 309.44 124.65 307.88 123.56 306.88 123.00 C 305.88 122.44 304.90 122.38 304.25 122.00 C 303.60 121.62 303.56 120.98 303.00 120.75 Z" id="s-11-f-0"/>
<clipPath id="c-s-11"><use href="#s-11-f-0"/></clipPath>
<path d="M 333.88 114.62 C 333.27 123.58 333.50 158.27 333.50 167.38 C 333.50 176.48 333.79 165.92 333.88 169.25 C 333.96 172.58 333.81 183.50 334.00 187.38 C 334.19 191.25 334.65 191.08 335.00 192.50 C 335.35 193.92 335.62 194.73 336.12 195.88 C 336.62 197.02 337.25 198.19 338.00 199.38 C 338.75 200.56 339.21 201.58 340.62 203.00 C 342.04 204.42 344.85 206.73 346.50 207.88 C 348.15 209.02 348.83 209.27 350.50 209.88 C 352.17 210.48 354.02 211.02 356.50 211.50 C 358.98 211.98 361.27 212.54 365.38 212.75 C 369.48 212.96 377.04 212.94 381.12 212.75 C 385.21 212.56 387.40 212.10 389.88 211.62 C 392.35 211.15 394.96 211.67 396.00 209.88 C 397.04 208.08 396.25 203.46 396.12 200.88 C 396.00 198.29 395.77 195.79 395.25 194.38 C 394.73 192.96 393.65 192.79 393.00 192.38 C 392.35 191.96 393.00 191.94 391.38 191.88 C 389.75 191.81 387.31 191.69 383.25 192.00 C 379.19 192.31 370.33 193.46 367.00 193.75 C 363.67 194.04 364.67 193.94 363.25 193.75 C 361.83 193.56 359.81 193.17 358.50 192.62 C 357.19 192.08 356.15 191.19 355.38 190.50 C 354.60 189.81 354.40 189.58 353.88 188.50 C 353.35 187.42 352.56 185.85 352.25 184.00 C 351.94 182.15 351.90 180.46 352.00 177.38 C 352.10 174.29 352.52 168.56 352.88 165.50 C 353.23 162.44 353.94 162.58 354.12 159.00 C 354.31 155.42 353.69 148.75 354.00 144.00 C 354.31 139.25 355.21 134.25 356.00 130.50 C 356.79 126.75 358.31 123.73 358.75 121.50 C 359.19 119.27 358.98 118.38 358.62 117.12 C 358.27 115.88 357.33 114.88 356.62 114.00 C 355.92 113.12 355.42 112.27 354.38 111.88 C 353.33 111.48 351.38 111.54 350.38 111.62 C 349.38 111.71 350.58 112.04 348.38 112.38 C 346.17 112.71 339.54 113.25 337.12 113.62 C 334.71 114.00 334.48 105.67 333.88 114.62 Z" id="s-12-f-0"/>
<clipPath id="c-s-12"><use href="#s-12-f-0"/></clipPath>
<path d="M 364.88 234.38 C 364.50 233.62 363.85 232.65 362.38 231.75 C 360.90 230.85 358.85 229.77 356.00 229.00 C 353.15 228.23 348.02 227.48 345.25 227.12 C 342.48 226.77 341.77 226.44 339.38 226.88 C 336.98 227.31 335.33 228.46 330.88 229.75 C 326.42 231.04 318.85 233.12 312.62 234.62 C 306.40 236.12 298.02 237.85 293.50 238.75 C 288.98 239.65 287.21 239.62 285.50 240.00 C 283.79 240.38 284.00 240.42 283.25 241.00 C 282.50 241.58 281.38 242.77 281.00 243.50 C 280.62 244.23 280.77 244.85 281.00 245.38 C 281.23 245.90 281.77 246.25 282.38 246.62 C 282.98 247.00 282.50 246.98 284.62 247.62 C 286.75 248.27 292.52 249.96 295.12 250.50 C 297.73 251.04 298.31 250.85 300.25 250.88 C 302.19 250.90 304.06 251.10 306.75 250.62 C 309.44 250.15 311.56 248.98 316.38 248.00 C 321.19 247.02 331.58 245.58 335.62 244.75 C 339.67 243.92 336.69 243.83 340.62 243.00 C 344.56 242.17 355.54 240.58 359.25 239.75 C 362.96 238.92 361.98 238.58 362.88 238.00 C 363.77 237.42 364.29 236.85 364.62 236.25 C 364.96 235.65 365.25 235.12 364.88 234.38 Z" id="s-13-f-0"/>
<clipPath id="c-s-13"><use href="#s-13-f-0"/></clipPath>
<path d="M 399.25 277.75 C 399.19 277.42 398.69 277.29 398.50 276.75 C 398.31 276.21 398.29 274.98 398.12 274.50 C 397.96 274.02 398.17 275.73 397.50 273.88 C 396.83 272.02 394.85 265.38 394.12 263.38 C 393.40 261.38 394.81 262.75 393.12 261.88 C 391.44 261.00 386.92 258.75 384.00 258.12 C 381.08 257.50 384.44 256.52 375.62 258.12 C 366.81 259.73 342.50 265.48 331.12 267.75 C 319.75 270.02 315.21 270.58 307.38 271.75 C 299.54 272.92 291.54 273.90 284.12 274.75 C 276.71 275.60 266.62 275.94 262.88 276.88 C 259.12 277.81 262.02 277.96 261.62 280.38 C 261.23 282.79 260.62 289.46 260.50 291.38 C 260.38 293.29 260.23 291.65 260.88 291.88 C 261.52 292.10 261.10 292.62 264.38 292.75 C 267.65 292.88 274.65 292.98 280.50 292.62 C 286.35 292.27 288.44 292.06 299.50 290.62 C 310.56 289.19 338.29 285.12 346.88 284.00 C 355.46 282.88 346.31 284.40 351.00 283.88 C 355.69 283.35 370.33 281.52 375.00 280.88 C 379.67 280.23 375.02 280.35 379.00 280.00 C 382.98 279.65 395.50 279.12 398.88 278.75 C 402.25 278.38 399.31 278.08 399.25 277.75 Z" id="s-14-f-0"/>
<clipPath id="c-s-14"><use href="#s-14-f-0"/></clipPath>
<path d="M 478.88 316.25 C 478.75 315.54 478.71 315.48 478.00 314.75 C 477.29 314.02 476.79 313.15 474.62 311.88 C 472.46 310.60 468.90 308.75 465.00 307.12 C 461.10 305.50 454.35 303.15 451.25 302.12 C 448.15 301.10 448.00 301.19 446.38 301.00 C 444.75 300.81 444.00 300.54 441.50 301.00 C 439.00 301.46 435.69 302.92 431.38 303.75 C 427.06 304.58 423.71 304.67 415.62 306.00 C 407.54 307.33 388.96 310.77 382.88 311.75 C 376.79 312.73 383.23 311.33 379.12 311.88 C 375.02 312.42 367.04 313.52 358.25 315.00 C 349.46 316.48 342.00 318.29 326.38 320.75 C 310.75 323.21 283.52 327.19 264.50 329.75 C 245.48 332.31 221.44 334.92 212.25 336.12 C 203.06 337.33 210.25 336.52 209.38 337.00 C 208.50 337.48 207.42 338.44 207.00 339.00 C 206.58 339.56 206.69 339.81 206.88 340.38 C 207.06 340.94 207.35 341.60 208.12 342.38 C 208.90 343.15 209.17 343.60 211.50 345.00 C 213.83 346.40 219.10 349.31 222.12 350.75 C 225.15 352.19 227.35 353.12 229.62 353.62 C 231.90 354.12 233.21 354.21 235.75 353.75 C 238.29 353.29 240.50 351.96 244.88 350.88 C 249.25 349.79 255.19 348.56 262.00 347.25 C 268.81 345.94 272.25 345.21 285.75 343.00 C 299.25 340.79 332.19 335.65 343.00 334.00 C 353.81 332.35 347.75 333.31 350.62 333.12 C 353.50 332.94 355.12 333.42 360.25 332.88 C 365.38 332.33 376.08 330.52 381.38 329.88 C 386.67 329.23 384.56 329.44 392.00 329.00 C 399.44 328.56 415.31 327.62 426.00 327.25 C 436.69 326.88 449.62 327.02 456.12 326.75 C 462.62 326.48 462.77 326.08 465.00 325.62 C 467.23 325.17 468.15 324.38 469.50 324.00 C 470.85 323.62 471.96 323.73 473.12 323.38 C 474.29 323.02 475.56 322.60 476.50 321.88 C 477.44 321.15 478.35 319.94 478.75 319.00 C 479.15 318.06 479.00 316.96 478.88 316.25 Z" id="s-15-f-0"/>
<clipPath id="c-s-15"><use href="#s-15-f-0"/></clipPath>
<path d="M 373.62 280.50 C 371.96 280.25 369.56 280.48 368.25 280.62 C 366.94 280.77 368.60 281.02 365.75 281.38 C 362.90 281.73 354.10 282.35 351.12 282.75 C 348.15 283.15 347.77 281.52 347.88 283.75 C 347.98 285.98 350.77 292.40 351.75 296.12 C 352.73 299.85 353.25 303.10 353.75 306.12 C 354.25 309.15 354.60 311.75 354.75 314.25 C 354.90 316.75 354.52 319.58 354.62 321.12 C 354.73 322.67 355.19 321.92 355.38 323.50 C 355.56 325.08 355.50 328.98 355.75 330.62 C 356.00 332.27 356.52 330.48 356.88 333.38 C 357.23 336.27 357.88 337.62 357.88 348.00 C 357.88 358.38 357.27 385.17 356.88 395.62 C 356.48 406.08 356.19 406.08 355.50 410.75 C 354.81 415.42 353.62 420.92 352.75 423.62 C 351.88 426.33 350.92 426.31 350.25 427.00 C 349.58 427.69 349.46 427.62 348.75 427.75 C 348.04 427.88 347.88 427.92 346.00 427.75 C 344.12 427.58 343.08 427.71 337.50 426.75 C 331.92 425.79 317.38 422.81 312.50 422.00 C 307.62 421.19 309.17 421.75 308.25 421.88 C 307.33 422.00 307.19 422.10 307.00 422.75 C 306.81 423.40 306.71 424.67 307.12 425.75 C 307.54 426.83 306.81 426.56 309.50 429.25 C 312.19 431.94 319.25 438.02 323.25 441.88 C 327.25 445.73 330.62 449.27 333.50 452.38 C 336.38 455.48 338.25 457.67 340.50 460.50 C 342.75 463.33 345.04 467.17 347.00 469.38 C 348.96 471.58 350.58 472.81 352.25 473.75 C 353.92 474.69 355.69 474.83 357.00 475.00 C 358.31 475.17 358.65 475.38 360.12 474.75 C 361.60 474.12 363.85 472.90 365.88 471.25 C 367.90 469.60 370.29 467.10 372.25 464.88 C 374.21 462.65 376.38 459.83 377.62 457.88 C 378.88 455.92 379.06 455.04 379.75 453.12 C 380.44 451.21 381.06 449.50 381.75 446.38 C 382.44 443.25 383.40 437.77 383.88 434.38 C 384.35 430.98 384.48 432.27 384.62 426.00 C 384.77 419.73 385.21 406.92 384.75 396.75 C 384.29 386.58 382.50 373.44 381.88 365.00 C 381.25 356.56 381.17 351.90 381.00 346.12 C 380.83 340.35 380.69 334.25 380.88 330.38 C 381.06 326.50 381.94 326.40 382.12 322.88 C 382.31 319.35 381.85 312.27 382.00 309.25 C 382.15 306.23 382.69 305.77 383.00 304.75 C 383.31 303.73 383.60 304.15 383.88 303.12 C 384.15 302.10 384.46 300.69 384.62 298.62 C 384.79 296.56 385.02 292.73 384.88 290.75 C 384.73 288.77 384.25 287.81 383.75 286.75 C 383.25 285.69 382.79 285.15 381.88 284.38 C 380.96 283.60 379.62 282.77 378.25 282.12 C 376.88 281.48 375.29 280.75 373.62 280.50 Z" id="s-16-f-0"/>
<clipPath id="c-s-16"><use href="#s-16-f-0"/></clipPath>
<path d="M 264.25 357.75 C 263.88 358.56 262.50 358.00 264.12 360.88 C 265.75 363.75 270.79 370.69 274.00 375.00 C 277.21 379.31 280.58 383.62 283.38 386.75 C 286.17 389.88 288.54 392.08 290.75 393.75 C 292.96 395.42 294.69 396.25 296.62 396.75 C 298.56 397.25 300.69 397.06 302.38 396.75 C 304.06 396.44 305.52 395.65 306.75 394.88 C 307.98 394.10 308.92 393.25 309.75 392.12 C 310.58 391.00 311.27 389.40 311.75 388.12 C 312.23 386.85 312.46 386.54 312.62 384.50 C 312.79 382.46 313.04 378.04 312.75 375.88 C 312.46 373.71 311.62 372.75 310.88 371.50 C 310.12 370.25 309.12 369.25 308.25 368.38 C 307.38 367.50 306.69 366.98 305.62 366.25 C 304.56 365.52 303.75 364.88 301.88 364.00 C 300.00 363.12 296.81 361.83 294.38 361.00 C 291.94 360.17 290.62 359.79 287.25 359.00 C 283.88 358.21 277.60 356.75 274.12 356.25 C 270.65 355.75 268.02 355.75 266.38 356.00 C 264.73 356.25 264.62 356.94 264.25 357.75 Z" id="s-17-f-0"/>
<clipPath id="c-s-17"><use href="#s-17-f-0"/></clipPath>
</defs>
<g id="s-0" clip-path="url(#c-s-0)">
<use href="#s-0-f-0"/>
<path d="M 115.50 82.00 C 112.85 80.69 109.46 79.65 107.50 79.12 C 105.54 78.60 104.79 78.88 103.75 78.88 C 102.71 78.88 101.98 78.85 101.25 79.12 C 100.52 79.40 99.90 79.92 99.38 80.50 C 98.85 81.08 98.56 79.40 98.12 82.62 C 97.69 85.85 97.31 95.25 96.75 99.88 C 96.19 104.50 95.42 107.38 94.75 110.38 C 94.08 113.38 94.77 111.65 92.75 117.88 C 90.73 124.10 85.31 140.29 82.62 147.75 C 79.94 155.21 78.52 158.29 76.62 162.62 C 74.73 166.96 72.15 171.75 71.25 173.75 C 70.35 175.75 67.35 174.44 71.25 174.62 C 75.15 174.81 90.50 175.00 94.62 174.88 C 98.75 174.75 94.35 175.98 96.00 173.88 C 97.65 171.77 99.52 171.02 104.50 162.25 C 109.48 153.48 121.79 129.48 125.88 121.25 C 129.96 113.02 127.54 115.73 129.00 112.88 C 130.46 110.02 133.67 106.31 134.62 104.12 C 135.58 101.94 134.90 100.88 134.75 99.75 C 134.60 98.62 134.33 98.35 133.75 97.38 C 133.17 96.40 132.23 95.02 131.25 93.88 C 130.27 92.73 129.19 91.65 127.88 90.50 C 126.56 89.35 125.44 88.42 123.38 87.00 C 121.31 85.58 118.15 83.31 115.50 82.00 Z" id="s-0-f-1"/>
<path d="M 101.25 79.12 C 99.90 79.35 99.92 79.83 99.38 80.50 C 98.83 81.17 98.29 81.19 98.00 83.12 C 97.71 85.06 98.00 88.35 97.62 92.12 C 97.25 95.90 96.42 101.96 95.75 105.75 C 95.08 109.54 94.58 111.56 93.62 114.88 C 92.67 118.19 90.58 123.65 90.00 125.62 C 89.42 127.60 84.69 126.54 90.12 126.75 C 95.56 126.96 116.67 127.79 122.62 126.88 C 128.58 125.96 124.98 123.25 125.88 121.25 C 126.77 119.25 127.27 116.67 128.00 114.88 C 128.73 113.08 129.15 112.29 130.25 110.50 C 131.35 108.71 133.85 105.75 134.62 104.12 C 135.40 102.50 135.00 101.83 134.88 100.75 C 134.75 99.67 134.48 98.77 133.88 97.62 C 133.27 96.48 132.25 95.06 131.25 93.88 C 130.25 92.69 130.19 92.31 127.88 90.50 C 125.56 88.69 119.81 84.58 117.38 83.00 C 114.94 81.42 114.90 81.65 113.25 81.00 C 111.60 80.35 109.50 79.44 107.50 79.12 C 105.50 78.81 102.60 78.90 101.25 79.12 Z" id="s-0-f-2"/>
</g>
<g id="s-1" clip-path="url(#c-s-1)">
<use href="#s-1-f-0"/>
<path d="M 190.88 153.88 C 190.50 151.92 189.60 152.67 188.50 152.00 C 187.40 151.33 186.58 150.69 184.25 149.88 C 181.92 149.06 176.83 147.60 174.50 147.12 C 172.17 146.65 172.75 146.67 170.25 147.00 C 167.75 147.33 165.44 147.69 159.50 149.12 C 153.56 150.56 143.96 153.35 134.62 155.62 C 125.29 157.90 110.17 159.62 103.50 162.75 C 96.83 165.88 95.81 172.31 94.62 174.38 C 93.44 176.44 95.44 174.90 96.38 175.12 C 97.31 175.35 97.71 175.62 100.25 175.75 C 102.79 175.88 104.79 176.33 111.62 175.88 C 118.46 175.42 133.06 173.98 141.25 173.00 C 149.44 172.02 154.27 170.88 160.75 170.00 C 167.23 169.12 175.83 168.46 180.12 167.75 C 184.42 167.04 184.73 166.42 186.50 165.75 C 188.27 165.08 190.02 165.73 190.75 163.75 C 191.48 161.77 191.25 155.83 190.88 153.88 Z" id="s-1-f-1"/>
<path d="M 142.88 154.12 C 142.71 151.21 148.56 152.19 142.00 153.62 C 135.44 155.06 111.40 159.29 103.50 162.75 C 95.60 166.21 95.38 172.23 94.62 174.38 C 93.88 176.52 96.44 175.35 99.00 175.62 C 101.56 175.90 102.75 176.48 110.00 176.00 C 117.25 175.52 137.00 173.56 142.50 172.75 C 148.00 171.94 142.94 174.23 143.00 171.12 C 143.06 168.02 143.04 157.04 142.88 154.12 Z" id="s-1-f-2"/>
</g>
<g id="s-2" clip-path="url(#c-s-2)">
<use href="#s-2-f-0"/>
<path d="M 211.75 229.88 C 211.40 228.12 210.83 228.65 209.88 227.88 C 208.92 227.10 207.46 226.04 206.00 225.25 C 204.54 224.46 203.23 223.83 201.12 223.12 C 199.02 222.42 195.88 221.35 193.38 221.00 C 190.88 220.65 190.90 220.40 186.12 221.00 C 181.35 221.60 170.48 223.77 164.75 224.62 C 159.02 225.48 155.08 225.60 151.75 226.12 C 148.42 226.65 146.54 227.46 144.75 227.75 C 142.96 228.04 145.10 227.35 141.00 227.88 C 136.90 228.40 125.25 230.06 120.12 230.88 C 115.00 231.69 119.73 231.29 110.25 232.75 C 100.77 234.21 75.42 237.94 63.25 239.62 C 51.08 241.31 43.83 242.15 37.25 242.88 C 30.67 243.60 26.50 243.62 23.75 244.00 C 21.00 244.38 21.38 244.81 20.75 245.12 C 20.12 245.44 20.15 245.46 20.00 245.88 C 19.85 246.29 19.50 246.71 19.88 247.62 C 20.25 248.54 20.46 249.67 22.25 251.38 C 24.04 253.08 27.85 256.31 30.62 257.88 C 33.40 259.44 35.60 259.79 38.88 260.75 C 42.15 261.71 46.81 263.15 50.25 263.62 C 53.69 264.10 55.33 264.23 59.50 263.62 C 63.67 263.02 65.83 261.94 75.25 260.00 C 84.67 258.06 108.62 253.35 116.00 252.00 C 123.38 250.65 113.27 252.85 119.50 251.88 C 125.73 250.90 144.06 247.60 153.38 246.12 C 162.69 244.65 168.73 243.85 175.38 243.00 C 182.02 242.15 187.29 241.54 193.25 241.00 C 199.21 240.46 208.00 240.19 211.12 239.75 C 214.25 239.31 211.90 240.02 212.00 238.38 C 212.10 236.73 212.10 231.62 211.75 229.88 Z" id="s-2-f-1"/>
<path d="M 163.75 226.12 C 163.65 223.12 164.15 225.17 163.38 225.00 C 162.60 224.83 161.06 224.94 159.12 225.12 C 157.19 225.31 154.15 225.69 151.75 226.12 C 149.35 226.56 146.54 227.46 144.75 227.75 C 142.96 228.04 145.10 227.35 141.00 227.88 C 136.90 228.40 125.25 230.06 120.12 230.88 C 115.00 231.69 119.73 231.29 110.25 232.75 C 100.77 234.21 75.42 237.94 63.25 239.62 C 51.08 241.31 43.83 242.15 37.25 242.88 C 30.67 243.60 26.50 243.62 23.75 244.00 C 21.00 244.38 21.38 244.81 20.75 245.12 C 20.12 245.44 20.15 245.46 20.00 245.88 C 19.85 246.29 19.50 246.71 19.88 247.62 C 20.25 248.54 20.46 249.67 22.25 251.38 C 24.04 253.08 27.85 256.31 30.62 257.88 C 33.40 259.44 35.60 259.79 38.88 260.75 C 42.15 261.71 46.81 263.15 50.25 263.62 C 53.69 264.10 55.33 264.23 59.50 263.62 C 63.67 263.02 65.83 261.94 75.25 260.00 C 84.67 258.06 108.62 253.35 116.00 252.00 C 123.38 250.65 111.71 253.06 119.50 251.88 C 127.29 250.69 155.38 246.15 162.75 244.88 C 170.12 243.60 163.54 244.56 163.75 244.25 C 163.96 243.94 164.00 246.02 164.00 243.00 C 164.00 239.98 163.85 229.12 163.75 226.12 Z" id="s-2-f-2"/>
<path d="M 115.62 232.12 C 115.21 229.83 122.23 230.75 113.50 232.00 C 104.77 233.25 75.96 237.81 63.25 239.62 C 50.54 241.44 43.83 242.15 37.25 242.88 C 30.67 243.60 26.50 243.62 23.75 244.00 C 21.00 244.38 21.38 244.81 20.75 245.12 C 20.12 245.44 20.15 245.46 20.00 245.88 C 19.85 246.29 19.50 246.71 19.88 247.62 C 20.25 248.54 20.46 249.67 22.25 251.38 C 24.04 253.08 27.85 256.31 30.62 257.88 C 33.40 259.44 35.60 259.79 38.88 260.75 C 42.15 261.71 46.81 263.15 50.25 263.62 C 53.69 264.10 55.33 264.23 59.50 263.62 C 63.67 263.02 65.92 261.92 75.25 260.00 C 84.58 258.08 108.71 254.50 115.50 252.12 C 122.29 249.75 115.98 249.08 116.00 245.75 C 116.02 242.42 116.04 234.42 115.62 232.12 Z" id="s-2-f-3"/>
<path d="M 67.75 261.62 C 69.15 257.58 67.96 243.15 67.88 239.38 C 67.79 235.60 72.35 238.42 67.25 239.00 C 62.15 239.58 44.50 242.04 37.25 242.88 C 30.00 243.71 26.46 243.65 23.75 244.00 C 21.04 244.35 21.62 244.69 21.00 245.00 C 20.38 245.31 20.17 245.33 20.00 245.88 C 19.83 246.42 19.62 247.33 20.00 248.25 C 20.38 249.17 21.17 250.25 22.25 251.38 C 23.33 252.50 25.10 253.92 26.50 255.00 C 27.90 256.08 28.56 256.92 30.62 257.88 C 32.69 258.83 35.40 259.77 38.88 260.75 C 42.35 261.73 48.06 263.27 51.50 263.75 C 54.94 264.23 56.79 263.98 59.50 263.62 C 62.21 263.27 66.35 265.67 67.75 261.62 Z" id="s-2-f-4"/>
</g>
<g id="s-3" clip-path="url(#c-s-3)">
<use href="#s-3-f-0"/>
<path d="M 141.25 172.50 C 137.75 172.12 127.75 173.29 124.12 173.62 C 120.50 173.96 121.33 174.33 119.50 174.50 C 117.67 174.67 115.06 174.40 113.12 174.62 C 111.19 174.85 108.73 175.42 107.88 175.88 C 107.02 176.33 107.38 176.17 108.00 177.38 C 108.62 178.58 110.67 181.29 111.62 183.12 C 112.58 184.96 113.21 186.23 113.75 188.38 C 114.29 190.52 114.54 189.52 114.88 196.00 C 115.21 202.48 115.62 219.38 115.75 227.25 C 115.88 235.12 115.56 240.40 115.62 243.25 C 115.69 246.10 116.10 243.90 116.12 244.38 C 116.15 244.85 115.62 244.73 115.75 246.12 C 115.88 247.52 116.69 241.02 116.88 252.75 C 117.06 264.48 116.79 305.79 116.88 316.50 C 116.96 327.21 113.90 316.92 117.38 317.00 C 120.85 317.08 134.06 317.04 137.75 317.00 C 141.44 316.96 139.17 316.88 139.50 316.75 C 139.83 316.62 139.19 327.50 139.75 316.25 C 140.31 305.00 142.17 261.50 142.88 249.25 C 143.58 237.00 143.81 246.79 144.00 242.75 C 144.19 238.71 143.83 231.69 144.00 225.00 C 144.17 218.31 144.35 209.40 145.00 202.62 C 145.65 195.85 147.44 188.25 147.88 184.38 C 148.31 180.50 148.08 180.79 147.62 179.38 C 147.17 177.96 146.19 177.02 145.12 175.88 C 144.06 174.73 144.75 172.88 141.25 172.50 Z" id="s-3-f-1"/>
<path d="M 141.25 172.50 C 137.52 171.85 127.75 173.29 124.12 173.62 C 120.50 173.96 121.33 174.33 119.50 174.50 C 117.67 174.67 115.06 174.40 113.12 174.62 C 111.19 174.85 108.71 175.38 107.88 175.88 C 107.04 176.38 107.83 177.02 108.12 177.62 C 108.42 178.23 108.88 178.23 109.62 179.50 C 110.38 180.77 111.94 183.77 112.62 185.25 C 113.31 186.73 113.40 186.88 113.75 188.38 C 114.10 189.88 114.42 187.77 114.75 194.25 C 115.08 200.73 115.60 219.08 115.75 227.25 C 115.90 235.42 115.56 240.40 115.62 243.25 C 115.69 246.10 116.10 243.90 116.12 244.38 C 116.15 244.85 115.62 244.73 115.75 246.12 C 115.88 247.52 116.69 249.06 116.88 252.75 C 117.06 256.44 116.79 265.54 116.88 268.25 C 116.96 270.96 113.46 268.92 117.38 269.00 C 121.29 269.08 136.31 268.83 140.38 268.75 C 144.44 268.67 141.33 271.75 141.75 268.50 C 142.17 265.25 142.50 253.54 142.88 249.25 C 143.25 244.96 143.81 246.79 144.00 242.75 C 144.19 238.71 143.83 231.69 144.00 225.00 C 144.17 218.31 144.67 207.67 145.00 202.62 C 145.33 197.58 145.54 197.42 146.00 194.75 C 146.46 192.08 147.44 188.94 147.75 186.62 C 148.06 184.31 147.90 182.08 147.88 180.88 C 147.85 179.67 147.85 179.94 147.62 179.38 C 147.40 178.81 147.56 178.65 146.50 177.50 C 145.44 176.35 144.98 173.15 141.25 172.50 Z" id="s-3-f-2"/>
<path d="M 141.25 172.50 C 137.62 171.98 127.75 173.29 124.12 173.62 C 120.50 173.96 121.33 174.33 119.50 174.50 C 117.67 174.67 115.06 174.40 113.12 174.62 C 111.19 174.85 108.71 175.38 107.88 175.88 C 107.04 176.38 107.83 177.02 108.12 177.62 C 108.42 178.23 108.88 178.23 109.62 179.50 C 110.38 180.77 111.81 183.21 112.62 185.25 C 113.44 187.29 114.04 185.94 114.50 191.75 C 114.96 197.56 115.10 215.27 115.38 220.12 C 115.65 224.98 111.69 220.73 116.12 220.88 C 120.56 221.02 137.31 221.04 142.00 221.00 C 146.69 220.96 143.75 223.69 144.25 220.62 C 144.75 217.56 144.71 206.94 145.00 202.62 C 145.29 198.31 145.54 197.42 146.00 194.75 C 146.46 192.08 147.44 188.96 147.75 186.62 C 148.06 184.29 147.90 181.96 147.88 180.75 C 147.85 179.54 147.96 180.04 147.62 179.38 C 147.29 178.71 146.94 177.90 145.88 176.75 C 144.81 175.60 144.88 173.02 141.25 172.50 Z" id="s-3-f-3"/>
</g>
<g id="s-4" clip-path="url(#c-s-4)">
<use href="#s-4-f-0"/>
<path d="M 49.25 282.00 C 48.81 282.98 48.52 283.94 49.12 286.00 C 49.73 288.06 51.96 291.48 52.88 294.38 C 53.79 297.27 54.31 300.71 54.62 303.38 C 54.94 306.04 54.90 307.79 54.75 310.38 C 54.60 312.96 54.46 315.44 53.75 318.88 C 53.04 322.31 51.67 327.62 50.50 331.00 C 49.33 334.38 48.50 336.00 46.75 339.12 C 45.00 342.25 41.29 347.56 40.00 349.75 C 38.71 351.94 39.19 351.31 39.00 352.25 C 38.81 353.19 38.69 354.12 38.88 355.38 C 39.06 356.62 39.27 357.81 40.12 359.75 C 40.98 361.69 42.42 364.56 44.00 367.00 C 45.58 369.44 48.06 372.58 49.62 374.38 C 51.19 376.17 52.27 377.00 53.38 377.75 C 54.48 378.50 55.46 378.71 56.25 378.88 C 57.04 379.04 57.42 378.94 58.12 378.75 C 58.83 378.56 57.44 379.69 60.50 377.75 C 63.56 375.81 72.79 369.40 76.50 367.12 C 80.21 364.85 78.88 365.65 82.75 364.12 C 86.62 362.60 92.81 360.19 99.75 358.00 C 106.69 355.81 116.77 352.98 124.38 351.00 C 131.98 349.02 139.62 347.35 145.38 346.12 C 151.12 344.90 156.31 344.17 158.88 343.62 C 161.44 343.08 160.40 345.17 160.75 342.88 C 161.10 340.58 161.00 332.21 161.00 329.88 C 161.00 327.54 160.92 329.12 160.75 328.88 C 160.58 328.62 162.25 328.17 160.00 328.38 C 157.75 328.58 150.65 329.56 147.25 330.12 C 143.85 330.69 141.52 331.50 139.62 331.75 C 137.73 332.00 136.79 331.52 135.88 331.62 C 134.96 331.73 136.96 331.85 134.12 332.38 C 131.29 332.90 121.73 334.19 118.88 334.75 C 116.02 335.31 119.98 335.04 117.00 335.75 C 114.02 336.46 105.94 337.83 101.00 339.00 C 96.06 340.17 90.96 341.96 87.38 342.75 C 83.79 343.54 81.46 343.60 79.50 343.75 C 77.54 343.90 76.60 343.77 75.62 343.62 C 74.65 343.48 74.23 343.42 73.62 342.88 C 73.02 342.33 72.10 341.77 72.00 340.38 C 71.90 338.98 71.38 339.92 73.00 334.50 C 74.62 329.08 79.96 313.58 81.75 307.88 C 83.54 302.17 83.42 302.00 83.75 300.25 C 84.08 298.50 84.08 298.35 83.75 297.38 C 83.42 296.40 82.88 295.60 81.75 294.38 C 80.62 293.15 79.06 291.58 77.00 290.00 C 74.94 288.42 71.56 286.21 69.38 284.88 C 67.19 283.54 65.69 282.79 63.88 282.00 C 62.06 281.21 59.75 280.48 58.50 280.12 C 57.25 279.77 57.50 279.88 56.38 279.88 C 55.25 279.88 52.94 279.77 51.75 280.12 C 50.56 280.48 49.69 281.02 49.25 282.00 Z" id="s-4-f-1"/>
<path d="M 54.62 279.88 C 53.69 279.88 52.98 279.83 52.25 280.00 C 51.52 280.17 50.75 280.54 50.25 280.88 C 49.75 281.21 49.44 281.15 49.25 282.00 C 49.06 282.85 48.40 283.52 49.12 286.00 C 49.85 288.48 52.71 293.98 53.62 296.88 C 54.54 299.77 54.44 301.12 54.62 303.38 C 54.81 305.62 54.90 307.79 54.75 310.38 C 54.60 312.96 54.46 315.44 53.75 318.88 C 53.04 322.31 51.67 327.62 50.50 331.00 C 49.33 334.38 48.50 336.00 46.75 339.12 C 45.00 342.25 41.29 347.56 40.00 349.75 C 38.71 351.94 39.19 351.31 39.00 352.25 C 38.81 353.19 38.52 353.75 38.88 355.38 C 39.23 357.00 39.81 359.40 41.12 362.00 C 42.44 364.60 44.71 368.38 46.75 371.00 C 48.79 373.62 51.94 376.46 53.38 377.75 C 54.81 379.04 54.67 378.56 55.38 378.75 C 56.08 378.94 56.23 379.38 57.62 378.88 C 59.02 378.38 60.94 377.52 63.75 375.75 C 66.56 373.98 71.33 370.19 74.50 368.25 C 77.67 366.31 78.54 365.83 82.75 364.12 C 86.96 362.42 94.81 359.62 99.75 358.00 C 104.69 356.38 110.17 355.10 112.38 354.38 C 114.58 353.65 112.94 356.38 113.00 353.62 C 113.06 350.88 112.85 340.65 112.75 337.88 C 112.65 335.10 112.60 337.17 112.38 337.00 C 112.15 336.83 113.27 336.54 111.38 336.88 C 109.48 337.21 105.15 338.00 101.00 339.00 C 96.85 340.00 90.58 342.08 86.50 342.88 C 82.42 343.67 78.77 343.85 76.50 343.75 C 74.23 343.65 73.60 342.71 72.88 342.25 C 72.15 341.79 72.27 341.48 72.12 341.00 C 71.98 340.52 71.85 340.46 72.00 339.38 C 72.15 338.29 71.38 339.75 73.00 334.50 C 74.62 329.25 79.96 313.58 81.75 307.88 C 83.54 302.17 83.42 302.00 83.75 300.25 C 84.08 298.50 84.08 298.35 83.75 297.38 C 83.42 296.40 82.69 295.46 81.75 294.38 C 80.81 293.29 80.19 292.46 78.12 290.88 C 76.06 289.29 72.19 286.52 69.38 284.88 C 66.56 283.23 63.17 281.81 61.25 281.00 C 59.33 280.19 58.98 280.19 57.88 280.00 C 56.77 279.81 55.56 279.88 54.62 279.88 Z" id="s-4-f-2"/>
<path d="M 52.38 280.00 C 51.00 280.12 50.77 280.54 50.25 280.88 C 49.73 281.21 49.46 281.23 49.25 282.00 C 49.04 282.77 48.40 283.44 49.00 285.50 C 49.60 287.56 51.94 291.40 52.88 294.38 C 53.81 297.35 54.31 300.71 54.62 303.38 C 54.94 306.04 54.90 307.79 54.75 310.38 C 54.60 312.96 54.27 315.98 53.75 318.88 C 53.23 321.77 52.79 324.38 51.62 327.75 C 50.46 331.12 48.38 336.00 46.75 339.12 C 45.12 342.25 43.15 344.40 41.88 346.50 C 40.60 348.60 39.60 350.10 39.12 351.75 C 38.65 353.40 38.50 354.35 39.00 356.38 C 39.50 358.40 40.75 361.33 42.12 363.88 C 43.50 366.42 45.38 369.31 47.25 371.62 C 49.12 373.94 52.02 376.56 53.38 377.75 C 54.73 378.94 54.69 378.56 55.38 378.75 C 56.06 378.94 56.65 379.04 57.50 378.88 C 58.35 378.71 59.27 378.42 60.50 377.75 C 61.73 377.08 64.00 375.75 64.88 374.88 C 65.75 374.00 64.60 377.92 65.75 372.50 C 66.90 367.08 70.65 348.33 71.75 342.38 C 72.85 336.42 70.71 342.50 72.38 336.75 C 74.04 331.00 79.85 313.96 81.75 307.88 C 83.65 301.79 83.40 301.90 83.75 300.25 C 84.10 298.60 84.21 298.98 83.88 298.00 C 83.54 297.02 82.71 295.56 81.75 294.38 C 80.79 293.19 80.44 292.60 78.12 290.88 C 75.81 289.15 70.25 285.48 67.88 284.00 C 65.50 282.52 65.44 282.65 63.88 282.00 C 62.31 281.35 60.42 280.46 58.50 280.12 C 56.58 279.79 53.75 279.88 52.38 280.00 Z" id="s-4-f-3"/>
<path d="M 52.38 280.00 C 51.00 280.12 50.77 280.54 50.25 280.88 C 49.73 281.21 49.46 281.23 49.25 282.00 C 49.04 282.77 48.40 283.44 49.00 285.50 C 49.60 287.56 51.94 291.40 52.88 294.38 C 53.81 297.35 54.31 300.71 54.62 303.38 C 54.94 306.04 54.90 307.79 54.75 310.38 C 54.60 312.96 54.27 315.98 53.75 318.88 C 53.23 321.77 52.79 324.38 51.62 327.75 C 50.46 331.12 48.38 336.00 46.75 339.12 C 45.12 342.25 43.15 344.40 41.88 346.50 C 40.60 348.60 39.60 350.10 39.12 351.75 C 38.65 353.40 38.67 354.67 39.00 356.38 C 39.33 358.08 40.29 360.23 41.12 362.00 C 41.96 363.77 42.98 365.40 44.00 367.00 C 45.02 368.60 46.06 370.17 47.25 371.62 C 48.44 373.08 48.60 375.02 51.12 375.75 C 53.65 376.48 60.27 376.00 62.38 376.00 C 64.48 376.00 63.33 375.94 63.75 375.75 C 64.17 375.56 64.54 375.42 64.88 374.88 C 65.21 374.33 64.60 377.92 65.75 372.50 C 66.90 367.08 70.65 348.33 71.75 342.38 C 72.85 336.42 70.71 342.50 72.38 336.75 C 74.04 331.00 79.85 313.96 81.75 307.88 C 83.65 301.79 83.40 301.90 83.75 300.25 C 84.10 298.60 84.21 298.98 83.88 298.00 C 83.54 297.02 82.71 295.56 81.75 294.38 C 80.79 293.19 80.44 292.60 78.12 290.88 C 75.81 289.15 70.25 285.48 67.88 284.00 C 65.50 282.52 65.44 282.65 63.88 282.00 C 62.31 281.35 60.42 280.46 58.50 280.12 C 56.58 279.79 53.75 279.88 52.38 280.00 Z" id="s-4-f-4"/>
<path d="M 51.38 280.25 C 49.83 280.56 49.65 281.12 49.25 282.00 C 48.85 282.88 48.27 283.02 49.00 285.50 C 49.73 287.98 52.67 293.54 53.62 296.88 C 54.58 300.21 54.56 303.25 54.75 305.50 C 54.94 307.75 54.90 308.29 54.75 310.38 C 54.60 312.46 54.38 315.15 53.88 318.00 C 53.38 320.85 51.81 325.83 51.75 327.50 C 51.69 329.17 49.60 327.96 53.50 328.00 C 57.40 328.04 70.42 331.10 75.12 327.75 C 79.83 324.40 80.31 312.46 81.75 307.88 C 83.19 303.29 83.42 302.00 83.75 300.25 C 84.08 298.50 84.08 298.35 83.75 297.38 C 83.42 296.40 82.69 295.46 81.75 294.38 C 80.81 293.29 80.44 292.60 78.12 290.88 C 75.81 289.15 70.25 285.48 67.88 284.00 C 65.50 282.52 65.44 282.65 63.88 282.00 C 62.31 281.35 60.58 280.42 58.50 280.12 C 56.42 279.83 52.92 279.94 51.38 280.25 Z" id="s-4-f-5"/>
</g>
<g id="s-5" clip-path="url(#c-s-5)">
<use href="#s-5-f-0"/>
<path d="M 180.75 264.00 C 179.48 264.17 178.40 264.40 177.25 265.00 C 176.10 265.60 174.40 266.83 173.88 267.62 C 173.35 268.42 173.62 268.67 174.12 269.75 C 174.62 270.83 176.10 272.35 176.88 274.12 C 177.65 275.90 178.25 278.35 178.75 280.38 C 179.25 282.40 179.88 280.06 179.88 286.25 C 179.88 292.44 179.08 310.81 178.75 317.50 C 178.42 324.19 178.21 323.98 177.88 326.38 C 177.54 328.77 176.96 329.44 176.75 331.88 C 176.54 334.31 177.08 337.60 176.62 341.00 C 176.17 344.40 174.44 349.94 174.00 352.25 C 173.56 354.56 173.69 353.73 174.00 354.88 C 174.31 356.02 175.42 358.29 175.88 359.12 C 176.33 359.96 174.15 359.75 176.75 359.88 C 179.35 360.00 188.83 360.15 191.50 359.88 C 194.17 359.60 192.38 358.98 192.75 358.25 C 193.12 357.52 193.10 358.15 193.75 355.50 C 194.40 352.85 195.08 352.19 196.62 342.38 C 198.17 332.56 201.58 305.60 203.00 296.62 C 204.42 287.65 204.17 291.10 205.12 288.50 C 206.08 285.90 208.15 282.71 208.75 281.00 C 209.35 279.29 209.27 279.42 208.75 278.25 C 208.23 277.08 207.33 275.54 205.62 274.00 C 203.92 272.46 201.27 270.50 198.50 269.00 C 195.73 267.50 191.27 265.83 189.00 265.00 C 186.73 264.17 186.25 264.17 184.88 264.00 C 183.50 263.83 182.02 263.83 180.75 264.00 Z" id="s-5-f-1"/>
<path d="M 177.25 265.00 C 176.17 265.50 174.81 266.44 174.25 267.00 C 173.69 267.56 173.90 267.92 173.88 268.38 C 173.85 268.83 173.62 268.79 174.12 269.75 C 174.62 270.71 176.10 272.35 176.88 274.12 C 177.65 275.90 178.25 278.35 178.75 280.38 C 179.25 282.40 179.81 281.10 179.88 286.25 C 179.94 291.40 179.21 307.00 179.12 311.25 C 179.04 315.50 179.10 311.62 179.38 311.75 C 179.65 311.88 177.25 311.96 180.75 312.00 C 184.25 312.04 197.00 312.15 200.38 312.00 C 203.75 311.85 200.73 312.71 201.00 311.12 C 201.27 309.54 201.50 305.62 202.00 302.50 C 202.50 299.38 203.48 294.71 204.00 292.38 C 204.52 290.04 204.35 290.33 205.12 288.50 C 205.90 286.67 208.02 283.08 208.62 281.38 C 209.23 279.67 209.15 279.38 208.75 278.25 C 208.35 277.12 207.17 275.67 206.25 274.62 C 205.33 273.58 204.54 272.94 203.25 272.00 C 201.96 271.06 200.00 269.83 198.50 269.00 C 197.00 268.17 196.52 267.83 194.25 267.00 C 191.98 266.17 187.12 264.50 184.88 264.00 C 182.62 263.50 182.02 263.83 180.75 264.00 C 179.48 264.17 178.33 264.50 177.25 265.00 Z" id="s-5-f-2"/>
</g>
<g id="s-6" clip-path="url(#c-s-6)">
<use href="#s-6-f-0"/>
</g>
<g id="s-7" clip-path="url(#c-s-7)">
<use href="#s-7-f-0"/>
<path d="M 394.50 42.00 C 393.40 40.44 391.71 38.67 390.12 37.12 C 388.54 35.58 386.75 34.10 385.00 32.75 C 383.25 31.40 381.42 30.15 379.62 29.00 C 377.83 27.85 375.90 26.69 374.25 25.88 C 372.60 25.06 371.15 24.42 369.75 24.12 C 368.35 23.83 366.83 23.79 365.88 24.12 C 364.92 24.46 365.54 22.58 364.00 26.12 C 362.46 29.67 358.85 40.00 356.62 45.38 C 354.40 50.75 353.21 54.00 350.62 58.38 C 348.04 62.75 342.46 69.35 341.12 71.62 C 339.79 73.90 338.92 71.98 342.62 72.00 C 346.33 72.02 357.75 73.04 363.38 71.75 C 369.00 70.46 371.54 66.75 376.38 64.25 C 381.21 61.75 389.42 58.25 392.38 56.75 C 395.33 55.25 393.40 56.17 394.12 55.25 C 394.85 54.33 396.31 52.71 396.75 51.25 C 397.19 49.79 397.12 48.04 396.75 46.50 C 396.38 44.96 395.60 43.56 394.50 42.00 Z" id="s-7-f-1"/>
</g>
<g id="s-8" clip-path="url(#c-s-8)">
<use href="#s-8-f-0"/>
<path d="M 404.88 84.62 C 404.73 80.67 408.79 83.10 403.88 84.12 C 398.96 85.15 391.27 87.31 375.38 90.75 C 359.48 94.19 334.10 99.92 308.50 104.75 C 282.90 109.58 237.04 117.19 221.75 119.75 C 206.46 122.31 217.92 119.94 216.75 120.12 C 215.58 120.31 215.35 120.50 214.75 120.88 C 214.15 121.25 213.44 121.83 213.12 122.38 C 212.81 122.92 212.67 123.50 212.88 124.12 C 213.08 124.75 213.52 125.35 214.38 126.12 C 215.23 126.90 215.81 127.48 218.00 128.75 C 220.19 130.02 224.56 132.42 227.50 133.75 C 230.44 135.08 233.42 136.25 235.62 136.75 C 237.83 137.25 237.98 137.38 240.75 136.75 C 243.52 136.12 245.33 134.79 252.25 133.00 C 259.17 131.21 276.90 127.19 282.25 126.00 C 287.60 124.81 280.98 126.71 284.38 125.88 C 287.77 125.04 294.65 122.69 302.62 121.00 C 310.60 119.31 327.08 116.75 332.25 115.75 C 337.42 114.75 330.04 115.62 333.62 115.00 C 337.21 114.38 347.48 112.83 353.75 112.00 C 360.02 111.17 362.81 110.65 371.25 110.00 C 379.69 109.35 398.79 108.48 404.38 108.12 C 409.96 107.77 404.67 111.79 404.75 107.88 C 404.83 103.96 405.02 88.58 404.88 84.62 Z" id="s-8-f-1"/>
<path d="M 356.62 94.88 C 356.06 92.38 362.56 93.31 353.62 95.12 C 344.69 96.94 324.98 101.65 303.00 105.75 C 281.02 109.85 236.12 117.35 221.75 119.75 C 207.38 122.15 217.92 119.94 216.75 120.12 C 215.58 120.31 215.35 120.50 214.75 120.88 C 214.15 121.25 213.44 121.83 213.12 122.38 C 212.81 122.92 212.67 123.50 212.88 124.12 C 213.08 124.75 213.52 125.35 214.38 126.12 C 215.23 126.90 215.81 127.48 218.00 128.75 C 220.19 130.02 224.56 132.42 227.50 133.75 C 230.44 135.08 233.42 136.25 235.62 136.75 C 237.83 137.25 237.98 137.38 240.75 136.75 C 243.52 136.12 245.33 134.79 252.25 133.00 C 259.17 131.21 276.90 127.19 282.25 126.00 C 287.60 124.81 280.98 126.71 284.38 125.88 C 287.77 125.04 294.65 122.69 302.62 121.00 C 310.60 119.31 327.08 116.75 332.25 115.75 C 337.42 114.75 329.60 115.67 333.62 115.00 C 337.65 114.33 352.48 112.56 356.38 111.75 C 360.27 110.94 356.96 112.94 357.00 110.12 C 357.04 107.31 357.19 97.38 356.62 94.88 Z" id="s-8-f-2"/>
<path d="M 308.62 104.88 C 308.02 103.19 315.79 103.29 305.25 105.12 C 294.71 106.96 259.12 113.46 245.38 115.88 C 231.62 118.29 227.54 118.92 222.75 119.62 C 217.96 120.33 217.96 119.92 216.62 120.12 C 215.29 120.33 215.33 120.50 214.75 120.88 C 214.17 121.25 213.44 121.83 213.12 122.38 C 212.81 122.92 212.52 123.38 212.88 124.12 C 213.23 124.88 214.17 125.96 215.25 126.88 C 216.33 127.79 216.96 128.31 219.38 129.62 C 221.79 130.94 227.04 133.56 229.75 134.75 C 232.46 135.94 233.69 136.44 235.62 136.75 C 237.56 137.06 239.17 137.10 241.38 136.62 C 243.58 136.15 242.06 135.65 248.88 133.88 C 255.69 132.10 276.33 127.33 282.25 126.00 C 288.17 124.67 280.00 126.90 284.38 125.88 C 288.75 124.85 304.42 121.65 308.50 119.88 C 312.58 118.10 308.85 117.75 308.88 115.25 C 308.90 112.75 309.23 106.56 308.62 104.88 Z" id="s-8-f-3"/>
<path d="M 260.88 113.62 C 260.69 110.75 266.40 112.10 259.88 113.12 C 253.35 114.15 228.94 118.58 221.75 119.75 C 214.56 120.92 217.92 119.94 216.75 120.12 C 215.58 120.31 215.35 120.50 214.75 120.88 C 214.15 121.25 213.44 121.83 213.12 122.38 C 212.81 122.92 212.67 123.50 212.88 124.12 C 213.08 124.75 213.52 125.35 214.38 126.12 C 215.23 126.90 215.44 127.31 218.00 128.75 C 220.56 130.19 226.81 133.42 229.75 134.75 C 232.69 136.08 233.71 136.44 235.62 136.75 C 237.54 137.06 239.04 137.10 241.25 136.62 C 243.46 136.15 245.67 134.81 248.88 133.88 C 252.08 132.94 258.48 131.58 260.50 131.00 C 262.52 130.42 260.94 133.27 261.00 130.38 C 261.06 127.48 261.06 116.50 260.88 113.62 Z" id="s-8-f-4"/>
</g>
<g id="s-9" clip-path="url(#c-s-9)">
<use href="#s-9-f-0"/>
<path d="M 238.38 163.00 C 236.90 163.08 237.77 163.19 237.38 163.62 C 236.98 164.06 236.23 164.60 236.00 165.62 C 235.77 166.65 235.81 168.54 236.00 169.75 C 236.19 170.96 236.67 171.92 237.12 172.88 C 237.58 173.83 238.17 174.17 238.75 175.50 C 239.33 176.83 240.00 178.42 240.62 180.88 C 241.25 183.33 242.02 186.94 242.50 190.25 C 242.98 193.56 243.29 192.00 243.50 200.75 C 243.71 209.50 244.06 233.15 243.75 242.75 C 243.44 252.35 241.69 255.67 241.62 258.38 C 241.56 261.08 239.77 258.92 243.38 259.00 C 246.98 259.08 259.85 259.04 263.25 258.88 C 266.65 258.71 263.50 262.21 263.75 258.00 C 264.00 253.79 264.56 245.21 264.75 233.62 C 264.94 222.04 264.69 197.42 264.88 188.50 C 265.06 179.58 266.21 182.29 265.88 180.12 C 265.54 177.96 264.52 177.71 262.88 175.50 C 261.23 173.29 257.50 168.58 256.00 166.88 C 254.50 165.17 255.50 165.88 253.88 165.25 C 252.25 164.62 248.83 163.50 246.25 163.12 C 243.67 162.75 239.85 162.92 238.38 163.00 Z" id="s-9-f-1"/>
<path d="M 238.12 163.12 C 236.42 163.54 236.35 164.52 236.00 165.62 C 235.65 166.73 235.38 167.65 236.00 169.75 C 236.62 171.85 238.79 175.56 239.75 178.25 C 240.71 180.94 241.12 182.12 241.75 185.88 C 242.38 189.62 243.17 196.69 243.50 200.75 C 243.83 204.81 243.56 208.54 243.75 210.25 C 243.94 211.96 241.15 210.90 244.62 211.00 C 248.10 211.10 261.25 214.62 264.62 210.88 C 268.00 207.12 264.67 193.69 264.88 188.50 C 265.08 183.31 267.35 183.35 265.88 179.75 C 264.40 176.15 258.00 169.29 256.00 166.88 C 254.00 164.46 255.50 165.88 253.88 165.25 C 252.25 164.62 248.88 163.48 246.25 163.12 C 243.62 162.77 239.83 162.71 238.12 163.12 Z" id="s-9-f-2"/>
</g>
<g id="s-10" clip-path="url(#c-s-10)">
<use href="#s-10-f-0"/>
<path d="M 423.38 246.62 C 423.71 245.96 423.81 244.56 423.75 243.00 C 423.69 241.44 423.29 242.27 423.00 237.25 C 422.71 232.23 422.10 221.10 422.00 212.88 C 421.90 204.65 422.21 193.12 422.38 187.88 C 422.54 182.62 422.73 183.23 423.00 181.38 C 423.27 179.52 422.90 179.21 424.00 176.75 C 425.10 174.29 428.67 168.94 429.62 166.62 C 430.58 164.31 429.92 163.94 429.75 162.88 C 429.58 161.81 429.08 161.04 428.62 160.25 C 428.17 159.46 428.58 159.69 427.00 158.12 C 425.42 156.56 422.96 153.40 419.12 150.88 C 415.29 148.35 407.33 144.62 404.00 143.00 C 400.67 141.38 400.73 141.46 399.12 141.12 C 397.52 140.79 399.75 139.90 394.38 141.00 C 389.00 142.10 374.04 146.25 366.88 147.75 C 359.71 149.25 359.17 148.50 351.38 150.00 C 343.58 151.50 329.92 154.94 320.12 156.75 C 310.33 158.56 297.90 160.02 292.62 160.88 C 287.35 161.73 294.04 161.17 288.50 161.88 C 282.96 162.58 264.92 164.46 259.38 165.12 C 253.83 165.79 256.04 165.65 255.25 165.88 C 254.46 166.10 252.92 164.15 254.62 166.50 C 256.33 168.85 262.12 177.81 265.50 180.00 C 268.88 182.19 270.96 179.96 274.88 179.62 C 278.79 179.29 284.40 178.92 289.00 178.00 C 293.60 177.08 299.77 174.83 302.50 174.12 C 305.23 173.42 304.67 173.94 305.38 173.75 C 306.08 173.56 305.65 173.21 306.75 173.00 C 307.85 172.79 310.38 172.83 312.00 172.50 C 313.62 172.17 309.60 172.27 316.50 171.00 C 323.40 169.73 343.96 166.21 353.38 164.88 C 362.79 163.54 368.17 163.31 373.00 163.00 C 377.83 162.69 379.67 162.81 382.38 163.00 C 385.08 163.19 387.73 163.60 389.25 164.12 C 390.77 164.65 390.92 165.04 391.50 166.12 C 392.08 167.21 392.25 167.04 392.75 170.62 C 393.25 174.21 394.15 182.79 394.50 187.62 C 394.85 192.46 394.50 193.10 394.88 199.62 C 395.25 206.15 396.44 220.69 396.75 226.75 C 397.06 232.81 397.02 232.73 396.75 236.00 C 396.48 239.27 395.29 244.56 395.12 246.38 C 394.96 248.19 391.31 246.77 395.75 246.88 C 400.19 246.98 417.15 247.04 421.75 247.00 C 426.35 246.96 423.04 247.29 423.38 246.62 Z" id="s-10-f-1"/>
<path d="M 429.88 163.75 C 429.73 162.81 429.23 161.42 428.88 160.62 C 428.52 159.83 429.38 160.62 427.75 159.00 C 426.12 157.38 422.04 153.04 419.12 150.88 C 416.21 148.71 413.19 147.48 410.25 146.00 C 407.31 144.52 403.48 142.83 401.50 142.00 C 399.52 141.17 399.56 141.17 398.38 141.00 C 397.19 140.83 399.62 139.88 394.38 141.00 C 389.12 142.12 374.04 146.25 366.88 147.75 C 359.71 149.25 359.17 148.50 351.38 150.00 C 343.58 151.50 329.92 154.94 320.12 156.75 C 310.33 158.56 297.90 160.02 292.62 160.88 C 287.35 161.73 294.06 161.17 288.50 161.88 C 282.94 162.58 264.79 164.46 259.25 165.12 C 253.71 165.79 256.02 165.65 255.25 165.88 C 254.48 166.10 252.92 164.15 254.62 166.50 C 256.33 168.85 262.23 177.81 265.50 180.00 C 268.77 182.19 270.33 179.96 274.25 179.62 C 278.17 179.29 284.29 178.92 289.00 178.00 C 293.71 177.08 299.77 174.83 302.50 174.12 C 305.23 173.42 304.67 173.94 305.38 173.75 C 306.08 173.56 305.75 173.19 306.75 173.00 C 307.75 172.81 309.75 172.96 311.38 172.62 C 313.00 172.29 309.52 172.29 316.50 171.00 C 323.48 169.71 343.83 166.21 353.25 164.88 C 362.67 163.54 368.15 163.31 373.00 163.00 C 377.85 162.69 379.79 162.85 382.38 163.00 C 384.96 163.15 387.04 163.46 388.50 163.88 C 389.96 164.29 390.42 164.35 391.12 165.50 C 391.83 166.65 392.29 168.50 392.75 170.75 C 393.21 173.00 393.50 174.35 393.88 179.00 C 394.25 183.65 394.44 195.29 395.00 198.62 C 395.56 201.96 392.90 198.94 397.25 199.00 C 401.60 199.06 417.00 199.21 421.12 199.00 C 425.25 198.79 421.71 200.54 422.00 197.75 C 422.29 194.96 422.54 185.75 422.88 182.25 C 423.21 178.75 422.85 179.42 424.00 176.75 C 425.15 174.08 428.77 168.42 429.75 166.25 C 430.73 164.08 430.02 164.69 429.88 163.75 Z" id="s-10-f-2"/>
<path d="M 418.25 150.75 C 418.35 150.48 420.38 151.42 418.00 150.12 C 415.62 148.83 407.15 144.50 404.00 143.00 C 400.85 141.50 400.73 141.46 399.12 141.12 C 397.52 140.79 399.75 139.90 394.38 141.00 C 389.00 142.10 373.44 146.29 366.88 147.75 C 360.31 149.21 357.40 149.42 355.00 149.75 C 352.60 150.08 358.29 148.58 352.50 149.75 C 346.71 150.92 330.23 154.90 320.25 156.75 C 310.27 158.60 297.92 160.02 292.62 160.88 C 287.33 161.73 294.73 161.04 288.50 161.88 C 282.27 162.71 260.90 165.10 255.25 165.88 C 249.60 166.65 252.94 164.15 254.62 166.50 C 256.31 168.85 262.10 177.81 265.38 180.00 C 268.65 182.19 270.33 179.96 274.25 179.62 C 278.17 179.29 284.17 178.92 288.88 178.00 C 293.58 177.08 299.75 174.83 302.50 174.12 C 305.25 173.42 304.67 173.94 305.38 173.75 C 306.08 173.56 305.77 173.19 306.75 173.00 C 307.73 172.81 309.62 172.96 311.25 172.62 C 312.88 172.29 314.00 171.50 316.50 171.00 C 319.00 170.50 323.46 170.12 326.25 169.62 C 329.04 169.12 331.52 168.29 333.25 168.00 C 334.98 167.71 333.29 168.40 336.62 167.88 C 339.96 167.35 349.19 165.52 353.25 164.88 C 357.31 164.23 356.52 164.35 361.00 164.00 C 365.48 163.65 371.12 164.73 380.12 162.75 C 389.12 160.77 408.79 153.96 415.00 152.12 C 421.21 150.29 416.83 151.98 417.38 151.75 C 417.92 151.52 418.15 151.02 418.25 150.75 Z" id="s-10-f-3"/>
<path d="M 398.88 141.62 C 398.79 138.96 399.00 141.10 398.25 141.00 C 397.50 140.90 399.60 139.88 394.38 141.00 C 389.15 142.12 373.44 146.29 366.88 147.75 C 360.31 149.21 357.40 149.42 355.00 149.75 C 352.60 150.08 357.48 148.75 352.50 149.75 C 347.52 150.75 332.42 154.25 325.12 155.75 C 317.83 157.25 312.06 158.23 308.75 158.75 C 305.44 159.27 308.62 158.35 305.25 158.88 C 301.88 159.40 296.12 160.83 288.50 161.88 C 280.88 162.92 265.04 164.46 259.50 165.12 C 253.96 165.79 256.06 165.65 255.25 165.88 C 254.44 166.10 252.92 164.15 254.62 166.50 C 256.33 168.85 262.23 177.81 265.50 180.00 C 268.77 182.19 270.35 179.96 274.25 179.62 C 278.15 179.29 284.17 178.92 288.88 178.00 C 293.58 177.08 299.75 174.83 302.50 174.12 C 305.25 173.42 304.67 173.94 305.38 173.75 C 306.08 173.56 305.77 173.19 306.75 173.00 C 307.73 172.81 309.62 172.96 311.25 172.62 C 312.88 172.29 309.50 172.29 316.50 171.00 C 323.50 169.71 344.69 166.15 353.25 164.88 C 361.81 163.60 363.40 163.73 367.88 163.38 C 372.35 163.02 374.98 163.81 380.12 162.75 C 385.27 161.69 395.62 160.52 398.75 157.00 C 401.88 153.48 398.96 144.29 398.88 141.62 Z" id="s-10-f-4"/>
<path d="M 351.00 151.75 C 350.98 149.38 350.94 150.98 350.75 150.75 C 350.56 150.52 354.96 149.38 349.88 150.38 C 344.79 151.38 327.10 155.35 320.25 156.75 C 313.40 158.15 311.40 158.38 308.75 158.75 C 306.10 159.12 307.75 158.48 304.38 159.00 C 301.00 159.52 295.98 160.85 288.50 161.88 C 281.02 162.90 265.04 164.46 259.50 165.12 C 253.96 165.79 256.06 165.65 255.25 165.88 C 254.44 166.10 252.94 164.15 254.62 166.50 C 256.31 168.85 262.08 177.81 265.38 180.00 C 268.67 182.19 270.46 179.96 274.38 179.62 C 278.29 179.29 284.88 178.73 288.88 178.00 C 292.88 177.27 296.25 175.79 298.38 175.25 C 300.50 174.71 300.94 174.94 301.62 174.75 C 302.31 174.56 301.88 174.29 302.50 174.12 C 303.12 173.96 304.67 173.94 305.38 173.75 C 306.08 173.56 305.65 173.21 306.75 173.00 C 307.85 172.79 310.38 172.83 312.00 172.50 C 313.62 172.17 314.12 171.48 316.50 171.00 C 318.88 170.52 323.46 170.12 326.25 169.62 C 329.04 169.12 331.52 168.29 333.25 168.00 C 334.98 167.71 333.81 168.27 336.62 167.88 C 339.44 167.48 347.75 166.10 350.12 165.62 C 352.50 165.15 350.73 167.31 350.88 165.00 C 351.02 162.69 351.02 154.12 351.00 151.75 Z" id="s-10-f-5"/>
<path d="M 303.00 172.88 C 303.06 170.67 303.08 163.08 303.00 160.88 C 302.92 158.67 304.23 159.62 302.50 159.62 C 300.77 159.62 294.96 160.50 292.62 160.88 C 290.29 161.25 294.08 161.17 288.50 161.88 C 282.92 162.58 264.67 164.46 259.12 165.12 C 253.58 165.79 256.00 165.65 255.25 165.88 C 254.50 166.10 252.94 164.15 254.62 166.50 C 256.31 168.85 262.10 177.81 265.38 180.00 C 268.65 182.19 270.33 179.96 274.25 179.62 C 278.17 179.29 284.15 178.92 288.88 178.00 C 293.60 177.08 300.27 174.98 302.62 174.12 C 304.98 173.27 302.94 175.08 303.00 172.88 Z" id="s-10-f-6"/>
</g>
<g id="s-11" clip-path="url(#c-s-11)">
<use href="#s-11-f-0"/>
<path d="M 303.00 120.75 C 302.46 120.54 302.15 120.35 300.88 120.62 C 299.60 120.90 296.73 122.04 295.38 122.38 C 294.02 122.71 293.42 122.46 292.75 122.62 C 292.08 122.79 292.04 123.21 291.38 123.38 C 290.71 123.54 289.42 123.46 288.75 123.62 C 288.08 123.79 288.31 124.17 287.38 124.38 C 286.44 124.58 283.88 124.71 283.12 124.88 C 282.38 125.04 282.81 125.06 282.88 125.38 C 282.94 125.69 283.10 126.27 283.50 126.75 C 283.90 127.23 284.71 127.60 285.25 128.25 C 285.79 128.90 286.33 129.65 286.75 130.62 C 287.17 131.60 287.44 132.38 287.75 134.12 C 288.06 135.88 288.44 136.56 288.62 141.12 C 288.81 145.69 289.02 157.27 288.88 161.50 C 288.73 165.73 287.96 163.60 287.75 166.50 C 287.54 169.40 288.29 173.35 287.62 178.88 C 286.96 184.40 284.73 195.25 283.75 199.62 C 282.77 204.00 283.04 202.40 281.75 205.12 C 280.46 207.85 276.94 214.08 276.00 216.00 C 275.06 217.92 275.46 216.46 276.12 216.62 C 276.79 216.79 277.62 216.98 280.00 217.00 C 282.38 217.02 288.27 217.19 290.38 216.75 C 292.48 216.31 291.25 216.15 292.62 214.38 C 294.00 212.60 296.94 208.98 298.62 206.12 C 300.31 203.27 301.58 200.54 302.75 197.25 C 303.92 193.96 304.98 189.21 305.62 186.38 C 306.27 183.54 306.42 182.44 306.62 180.25 C 306.83 178.06 306.62 175.25 306.88 173.25 C 307.12 171.25 307.94 171.17 308.12 168.25 C 308.31 165.33 307.85 160.38 308.00 155.75 C 308.15 151.12 308.67 143.90 309.00 140.50 C 309.33 137.10 309.52 137.23 310.00 135.38 C 310.48 133.52 311.58 130.71 311.88 129.38 C 312.17 128.04 312.17 128.17 311.75 127.38 C 311.33 126.58 310.65 125.54 309.38 124.62 C 308.10 123.71 305.19 122.52 304.12 121.88 C 303.06 121.23 303.54 120.96 303.00 120.75 Z" id="s-11-f-1"/>
<path d="M 303.00 120.75 C 302.44 120.52 302.15 120.35 300.88 120.62 C 299.60 120.90 296.73 122.04 295.38 122.38 C 294.02 122.71 293.42 122.46 292.75 122.62 C 292.08 122.79 292.04 123.21 291.38 123.38 C 290.71 123.54 289.42 123.46 288.75 123.62 C 288.08 123.79 288.33 124.17 287.38 124.38 C 286.42 124.58 283.67 124.50 283.00 124.88 C 282.33 125.25 283.00 126.06 283.38 126.62 C 283.75 127.19 284.69 127.58 285.25 128.25 C 285.81 128.92 286.23 128.92 286.75 130.62 C 287.27 132.33 288.02 133.35 288.38 138.50 C 288.73 143.65 289.00 156.50 288.88 161.50 C 288.75 166.50 287.73 167.23 287.62 168.50 C 287.52 169.77 285.06 169.00 288.25 169.12 C 291.44 169.25 303.46 169.35 306.75 169.25 C 310.04 169.15 307.79 170.77 308.00 168.50 C 308.21 166.23 307.83 160.29 308.00 155.62 C 308.17 150.96 308.67 143.88 309.00 140.50 C 309.33 137.12 309.54 137.00 310.00 135.38 C 310.46 133.75 311.44 131.98 311.75 130.75 C 312.06 129.52 311.94 128.67 311.88 128.00 C 311.81 127.33 311.96 127.44 311.38 126.75 C 310.79 126.06 309.56 124.67 308.38 123.88 C 307.19 123.08 305.15 122.52 304.25 122.00 C 303.35 121.48 303.56 120.98 303.00 120.75 Z" id="s-11-f-2"/>
</g>
<g id="s-12" clip-path="url(#c-s-12)">
<use href="#s-12-f-0"/>
<path d="M 350.38 111.62 C 349.33 111.71 350.46 112.02 348.12 112.38 C 345.79 112.73 338.71 113.38 336.38 113.75 C 334.04 114.12 334.54 114.12 334.12 114.62 C 333.71 115.12 333.98 107.96 333.88 116.75 C 333.77 125.54 333.50 158.62 333.50 167.38 C 333.50 176.12 333.77 165.77 333.88 169.25 C 333.98 172.73 333.77 183.88 334.12 188.25 C 334.48 192.62 335.35 193.62 336.00 195.50 C 336.65 197.38 336.88 197.90 338.00 199.50 C 339.12 201.10 340.75 203.42 342.75 205.12 C 344.75 206.83 348.65 209.04 350.00 209.75 C 351.35 210.46 350.56 212.06 350.88 209.38 C 351.19 206.69 351.67 199.58 351.88 193.62 C 352.08 187.67 351.96 178.31 352.12 173.62 C 352.29 168.94 352.54 167.94 352.88 165.50 C 353.21 163.06 353.94 162.56 354.12 159.00 C 354.31 155.44 353.69 148.88 354.00 144.12 C 354.31 139.38 355.21 134.27 356.00 130.50 C 356.79 126.73 358.29 123.65 358.75 121.50 C 359.21 119.35 358.92 118.65 358.75 117.62 C 358.58 116.60 358.48 116.33 357.75 115.38 C 357.02 114.42 355.60 112.50 354.38 111.88 C 353.15 111.25 351.42 111.54 350.38 111.62 Z" id="s-12-f-1"/>
<path d="M 350.38 111.62 C 349.33 111.71 350.46 112.02 348.12 112.38 C 345.79 112.73 338.71 113.38 336.38 113.75 C 334.04 114.12 334.54 114.12 334.12 114.62 C 333.71 115.12 333.98 107.96 333.88 116.75 C 333.77 125.54 333.50 158.62 333.50 167.38 C 333.50 176.12 333.77 165.77 333.88 169.25 C 333.98 172.73 333.77 183.88 334.12 188.25 C 334.48 192.62 335.35 193.62 336.00 195.50 C 336.65 197.38 336.88 197.90 338.00 199.50 C 339.12 201.10 341.38 203.77 342.75 205.12 C 344.12 206.48 345.40 207.15 346.25 207.62 C 347.10 208.10 347.15 207.94 347.88 208.00 C 348.60 208.06 350.08 208.12 350.62 208.00 C 351.17 207.88 350.92 209.65 351.12 207.25 C 351.33 204.85 351.71 199.23 351.88 193.62 C 352.04 188.02 351.96 178.31 352.12 173.62 C 352.29 168.94 352.54 167.94 352.88 165.50 C 353.21 163.06 353.94 162.56 354.12 159.00 C 354.31 155.44 353.69 148.88 354.00 144.12 C 354.31 139.38 355.21 134.27 356.00 130.50 C 356.79 126.73 358.29 123.65 358.75 121.50 C 359.21 119.35 358.92 118.65 358.75 117.62 C 358.58 116.60 358.48 116.33 357.75 115.38 C 357.02 114.42 355.60 112.50 354.38 111.88 C 353.15 111.25 351.42 111.54 350.38 111.62 Z" id="s-12-f-2"/>
<path d="M 354.12 111.75 C 352.90 111.12 351.38 111.52 350.38 111.62 C 349.38 111.73 350.46 112.02 348.12 112.38 C 345.79 112.73 338.71 113.38 336.38 113.75 C 334.04 114.12 334.54 108.00 334.12 114.62 C 333.71 121.25 334.02 146.88 333.88 153.50 C 333.73 160.12 333.77 154.17 333.25 154.38 C 332.73 154.58 330.92 154.62 330.75 154.75 C 330.58 154.88 332.08 155.10 332.25 155.12 C 332.42 155.15 331.54 154.96 331.75 154.88 C 331.96 154.79 333.21 153.85 333.50 154.62 C 333.79 155.40 333.44 158.58 333.50 159.50 C 333.56 160.42 330.69 160.00 333.88 160.12 C 337.06 160.25 349.27 160.33 352.62 160.25 C 355.98 160.17 353.77 162.31 354.00 159.62 C 354.23 156.94 353.67 148.98 354.00 144.12 C 354.33 139.27 355.19 134.42 356.00 130.50 C 356.81 126.58 358.42 122.79 358.88 120.62 C 359.33 118.46 358.94 118.38 358.75 117.50 C 358.56 116.62 358.52 116.33 357.75 115.38 C 356.98 114.42 355.35 112.38 354.12 111.75 Z" id="s-12-f-3"/>
</g>
<g id="s-13" clip-path="url(#c-s-13)">
<use href="#s-13-f-0"/>
<path d="M 328.88 230.75 C 328.75 228.35 329.62 229.94 328.25 230.25 C 326.88 230.56 324.77 231.54 320.62 232.62 C 316.48 233.71 309.23 235.52 303.38 236.75 C 297.52 237.98 289.08 239.08 285.50 240.00 C 281.92 240.92 282.62 241.67 281.88 242.25 C 281.12 242.83 281.15 242.98 281.00 243.50 C 280.85 244.02 280.77 244.85 281.00 245.38 C 281.23 245.90 281.77 246.25 282.38 246.62 C 282.98 247.00 283.08 247.10 284.62 247.62 C 286.17 248.15 289.75 249.25 291.62 249.75 C 293.50 250.25 294.44 250.44 295.88 250.62 C 297.31 250.81 298.44 250.88 300.25 250.88 C 302.06 250.88 304.06 251.10 306.75 250.62 C 309.44 250.15 312.75 248.79 316.38 248.00 C 320.00 247.21 326.40 246.44 328.50 245.88 C 330.60 245.31 328.94 247.15 329.00 244.62 C 329.06 242.10 329.00 233.15 328.88 230.75 Z" id="s-13-f-1"/>
</g>
<g id="s-14" clip-path="url(#c-s-14)">
<use href="#s-14-f-0"/>
<path d="M 356.88 262.62 C 356.73 259.42 357.19 261.94 356.12 262.12 C 355.06 262.31 354.67 262.81 350.50 263.75 C 346.33 264.69 338.31 266.42 331.12 267.75 C 323.94 269.08 315.21 270.58 307.38 271.75 C 299.54 272.92 291.54 273.90 284.12 274.75 C 276.71 275.60 266.50 276.46 262.88 276.88 C 259.25 277.29 262.58 276.67 262.38 277.25 C 262.17 277.83 261.94 278.00 261.62 280.38 C 261.31 282.75 260.04 289.44 260.50 291.50 C 260.96 293.56 261.04 292.56 264.38 292.75 C 267.71 292.94 274.65 292.98 280.50 292.62 C 286.35 292.27 286.83 292.23 299.50 290.62 C 312.17 289.02 346.92 284.54 356.50 283.00 C 366.08 281.46 356.94 284.77 357.00 281.38 C 357.06 277.98 357.02 265.83 356.88 262.62 Z" id="s-14-f-1"/>
<path d="M 308.88 272.00 C 308.79 269.33 309.38 271.62 308.50 271.62 C 307.62 271.62 307.69 271.48 303.62 272.00 C 299.56 272.52 290.92 273.94 284.12 274.75 C 277.33 275.56 266.50 276.46 262.88 276.88 C 259.25 277.29 262.58 276.67 262.38 277.25 C 262.17 277.83 261.94 278.02 261.62 280.38 C 261.31 282.73 260.62 289.46 260.50 291.38 C 260.38 293.29 260.23 291.65 260.88 291.88 C 261.52 292.10 261.52 292.60 264.38 292.75 C 267.23 292.90 272.25 293.08 278.00 292.75 C 283.75 292.42 293.83 291.33 298.88 290.75 C 303.92 290.17 306.56 289.77 308.25 289.25 C 309.94 288.73 308.90 290.50 309.00 287.62 C 309.10 284.75 308.96 274.67 308.88 272.00 Z" id="s-14-f-2"/>
</g>
<g id="s-15" clip-path="url(#c-s-15)">
<use href="#s-15-f-0"/>
<path d="M 446.88 301.62 C 446.73 297.40 447.19 301.08 446.12 301.00 C 445.06 300.92 442.96 300.67 440.50 301.12 C 438.04 301.58 435.52 302.94 431.38 303.75 C 427.23 304.56 423.71 304.67 415.62 306.00 C 407.54 307.33 388.96 310.77 382.88 311.75 C 376.79 312.73 383.23 311.33 379.12 311.88 C 375.02 312.42 364.92 313.85 358.25 315.00 C 351.58 316.15 350.02 316.96 339.12 318.75 C 328.23 320.54 307.85 323.58 292.88 325.75 C 277.90 327.92 262.69 330.02 249.25 331.75 C 235.81 333.48 218.90 335.25 212.25 336.12 C 205.60 337.00 210.25 336.52 209.38 337.00 C 208.50 337.48 207.42 338.44 207.00 339.00 C 206.58 339.56 206.69 339.81 206.88 340.38 C 207.06 340.94 207.42 341.65 208.12 342.38 C 208.83 343.10 208.79 343.35 211.12 344.75 C 213.46 346.15 219.04 349.27 222.12 350.75 C 225.21 352.23 227.62 353.10 229.62 353.62 C 231.62 354.15 232.83 353.90 234.12 353.88 C 235.42 353.85 235.58 354.00 237.38 353.50 C 239.17 353.00 240.77 351.92 244.88 350.88 C 248.98 349.83 255.19 348.56 262.00 347.25 C 268.81 345.94 272.25 345.21 285.75 343.00 C 299.25 340.79 332.19 335.65 343.00 334.00 C 353.81 332.35 347.75 333.31 350.62 333.12 C 353.50 332.94 355.12 333.42 360.25 332.88 C 365.38 332.33 376.08 330.52 381.38 329.88 C 386.67 329.23 384.56 329.44 392.00 329.00 C 399.44 328.56 416.98 327.60 426.00 327.25 C 435.02 326.90 442.62 327.02 446.12 326.88 C 449.62 326.73 446.88 330.58 447.00 326.38 C 447.12 322.17 447.02 305.85 446.88 301.62 Z" id="s-15-f-1"/>
<path d="M 398.75 309.25 C 398.52 306.06 400.15 308.58 397.50 309.00 C 394.85 309.42 385.94 311.27 382.88 311.75 C 379.81 312.23 382.17 311.50 379.12 311.88 C 376.08 312.25 371.29 312.85 364.62 314.00 C 357.96 315.15 351.08 316.79 339.12 318.75 C 327.17 320.71 307.85 323.58 292.88 325.75 C 277.90 327.92 262.56 330.04 249.25 331.75 C 235.94 333.46 219.75 335.06 213.00 336.00 C 206.25 336.94 209.75 336.88 208.75 337.38 C 207.75 337.88 207.31 338.50 207.00 339.00 C 206.69 339.50 206.69 339.81 206.88 340.38 C 207.06 340.94 207.42 341.65 208.12 342.38 C 208.83 343.10 208.79 343.35 211.12 344.75 C 213.46 346.15 219.04 349.27 222.12 350.75 C 225.21 352.23 227.62 353.10 229.62 353.62 C 231.62 354.15 232.83 353.90 234.12 353.88 C 235.42 353.85 235.58 354.00 237.38 353.50 C 239.17 353.00 240.54 351.96 244.88 350.88 C 249.21 349.79 252.46 348.98 263.38 347.00 C 274.29 345.02 297.10 341.17 310.38 339.00 C 323.65 336.83 336.29 334.98 343.00 334.00 C 349.71 333.02 347.75 333.31 350.62 333.12 C 353.50 332.94 355.12 333.42 360.25 332.88 C 365.38 332.33 375.04 330.58 381.38 329.88 C 387.71 329.17 395.33 328.92 398.25 328.62 C 401.17 328.33 398.79 331.35 398.88 328.12 C 398.96 324.90 398.98 312.44 398.75 309.25 Z" id="s-15-f-2"/>
<path d="M 350.88 317.12 C 350.79 314.62 351.04 316.77 350.50 316.75 C 349.96 316.73 351.48 316.35 347.62 317.00 C 343.77 317.65 341.23 318.50 327.38 320.62 C 313.52 322.75 283.56 327.19 264.50 329.75 C 245.44 332.31 222.29 334.73 213.00 336.00 C 203.71 337.27 209.73 336.90 208.75 337.38 C 207.77 337.85 207.44 338.38 207.12 338.88 C 206.81 339.38 206.71 339.79 206.88 340.38 C 207.04 340.96 207.35 341.60 208.12 342.38 C 208.90 343.15 209.17 343.60 211.50 345.00 C 213.83 346.40 219.00 349.29 222.12 350.75 C 225.25 352.21 227.83 353.27 230.25 353.75 C 232.67 354.23 234.19 354.10 236.62 353.62 C 239.06 353.15 238.58 352.31 244.88 350.88 C 251.17 349.44 263.46 346.98 274.38 345.00 C 285.29 343.02 297.73 340.96 310.38 339.00 C 323.02 337.04 343.48 334.46 350.25 333.25 C 357.02 332.04 350.90 334.44 351.00 331.75 C 351.10 329.06 350.96 319.62 350.88 317.12 Z" id="s-15-f-3"/>
<path d="M 302.88 324.62 C 302.71 322.19 308.40 323.27 302.00 324.12 C 295.60 324.98 279.33 327.77 264.50 329.75 C 249.67 331.73 222.29 334.73 213.00 336.00 C 203.71 337.27 209.73 336.90 208.75 337.38 C 207.77 337.85 207.44 338.38 207.12 338.88 C 206.81 339.38 206.71 339.79 206.88 340.38 C 207.04 340.96 207.35 341.60 208.12 342.38 C 208.90 343.15 209.17 343.60 211.50 345.00 C 213.83 346.40 219.00 349.29 222.12 350.75 C 225.25 352.21 227.83 353.27 230.25 353.75 C 232.67 354.23 234.19 354.10 236.62 353.62 C 239.06 353.15 240.42 351.98 244.88 350.88 C 249.33 349.77 253.79 348.73 263.38 347.00 C 272.96 345.27 295.77 341.88 302.38 340.50 C 308.98 339.12 302.92 341.40 303.00 338.75 C 303.08 336.10 303.04 327.06 302.88 324.62 Z" id="s-15-f-4"/>
<path d="M 254.88 348.50 C 255.29 346.31 254.96 339.10 254.88 336.38 C 254.79 333.65 254.58 333.00 254.38 332.12 C 254.17 331.25 260.52 330.48 253.62 331.12 C 246.73 331.77 220.42 335.00 213.00 336.00 C 205.58 337.00 210.15 336.56 209.12 337.12 C 208.10 337.69 207.23 338.75 206.88 339.38 C 206.52 340.00 206.79 340.38 207.00 340.88 C 207.21 341.38 207.21 341.56 208.12 342.38 C 209.04 343.19 210.17 344.35 212.50 345.75 C 214.83 347.15 219.29 349.44 222.12 350.75 C 224.96 352.06 227.50 353.10 229.50 353.62 C 231.50 354.15 232.85 353.90 234.12 353.88 C 235.40 353.85 235.33 354.00 237.12 353.50 C 238.92 353.00 242.33 351.54 244.88 350.88 C 247.42 350.21 250.71 349.90 252.38 349.50 C 254.04 349.10 254.46 350.69 254.88 348.50 Z" id="s-15-f-5"/>
</g>
<g id="s-16" clip-path="url(#c-s-16)">
<use href="#s-16-f-0"/>
<path d="M 368.25 280.62 C 366.67 280.73 368.60 281.02 365.75 281.38 C 362.90 281.73 354.10 282.38 351.12 282.75 C 348.15 283.12 347.77 281.40 347.88 283.62 C 347.98 285.85 350.77 292.38 351.75 296.12 C 352.73 299.88 353.25 303.10 353.75 306.12 C 354.25 309.15 354.60 311.75 354.75 314.25 C 354.90 316.75 354.52 319.58 354.62 321.12 C 354.73 322.67 355.19 321.92 355.38 323.50 C 355.56 325.08 355.50 328.98 355.75 330.62 C 356.00 332.27 356.56 331.62 356.88 333.38 C 357.19 335.12 357.46 337.92 357.62 341.12 C 357.79 344.33 358.00 343.54 357.88 352.62 C 357.75 361.71 357.23 386.23 356.88 395.62 C 356.52 405.02 356.56 403.38 355.75 409.00 C 354.94 414.62 353.48 419.88 352.00 429.38 C 350.52 438.88 347.73 459.44 346.88 466.00 C 346.02 472.56 346.44 467.79 346.88 468.75 C 347.31 469.71 348.60 470.92 349.50 471.75 C 350.40 472.58 350.98 473.21 352.25 473.75 C 353.52 474.29 355.81 474.83 357.12 475.00 C 358.44 475.17 358.67 475.38 360.12 474.75 C 361.58 474.12 364.17 472.56 365.88 471.25 C 367.58 469.94 368.56 468.85 370.38 466.88 C 372.19 464.90 375.19 461.69 376.75 459.38 C 378.31 457.06 378.92 455.19 379.75 453.00 C 380.58 450.81 381.10 449.06 381.75 446.25 C 382.40 443.44 383.17 439.27 383.62 436.12 C 384.08 432.98 384.31 434.00 384.50 427.38 C 384.69 420.75 385.19 406.77 384.75 396.38 C 384.31 385.98 382.50 373.38 381.88 365.00 C 381.25 356.62 381.17 351.90 381.00 346.12 C 380.83 340.35 380.69 334.25 380.88 330.38 C 381.06 326.50 381.94 326.40 382.12 322.88 C 382.31 319.35 381.85 312.27 382.00 309.25 C 382.15 306.23 382.69 305.77 383.00 304.75 C 383.31 303.73 383.60 304.15 383.88 303.12 C 384.15 302.10 384.46 300.67 384.62 298.62 C 384.79 296.58 385.02 292.85 384.88 290.88 C 384.73 288.90 384.25 287.83 383.75 286.75 C 383.25 285.67 382.46 285.00 381.88 284.38 C 381.29 283.75 381.12 283.44 380.25 283.00 C 379.38 282.56 377.46 282.12 376.62 281.75 C 375.79 281.38 376.65 280.94 375.25 280.75 C 373.85 280.56 369.83 280.52 368.25 280.62 Z" id="s-16-f-1"/>
<path d="M 368.25 280.62 C 366.67 280.73 368.60 281.02 365.75 281.38 C 362.90 281.73 354.10 282.38 351.12 282.75 C 348.15 283.12 347.77 281.40 347.88 283.62 C 347.98 285.85 350.77 292.38 351.75 296.12 C 352.73 299.88 353.25 303.10 353.75 306.12 C 354.25 309.15 354.60 311.75 354.75 314.25 C 354.90 316.75 354.52 319.58 354.62 321.12 C 354.73 322.67 355.19 321.92 355.38 323.50 C 355.56 325.08 355.50 328.98 355.75 330.62 C 356.00 332.27 356.52 330.50 356.88 333.38 C 357.23 336.25 357.88 337.50 357.88 347.88 C 357.88 358.25 357.23 385.44 356.88 395.62 C 356.52 405.81 356.56 403.38 355.75 409.00 C 354.94 414.62 353.48 419.88 352.00 429.38 C 350.52 438.88 347.69 459.33 346.88 466.00 C 346.06 472.67 346.38 468.21 347.12 469.38 C 347.88 470.54 348.62 472.42 351.38 473.00 C 354.12 473.58 360.98 473.38 363.62 472.88 C 366.27 472.38 365.75 471.42 367.25 470.00 C 368.75 468.58 371.04 466.15 372.62 464.38 C 374.21 462.60 375.56 461.27 376.75 459.38 C 377.94 457.48 378.92 455.17 379.75 453.00 C 380.58 450.83 381.08 449.33 381.75 446.38 C 382.42 443.42 383.23 439.71 383.75 435.25 C 384.27 430.79 384.71 426.10 384.88 419.62 C 385.04 413.15 385.25 405.48 384.75 396.38 C 384.25 387.27 382.50 373.38 381.88 365.00 C 381.25 356.62 381.17 351.90 381.00 346.12 C 380.83 340.35 380.69 334.25 380.88 330.38 C 381.06 326.50 381.94 326.40 382.12 322.88 C 382.31 319.35 381.85 312.27 382.00 309.25 C 382.15 306.23 382.69 305.77 383.00 304.75 C 383.31 303.73 383.60 304.15 383.88 303.12 C 384.15 302.10 384.46 300.67 384.62 298.62 C 384.79 296.58 385.02 292.85 384.88 290.88 C 384.73 288.90 384.25 287.83 383.75 286.75 C 383.25 285.67 382.46 285.00 381.88 284.38 C 381.29 283.75 381.12 283.44 380.25 283.00 C 379.38 282.56 377.46 282.12 376.62 281.75 C 375.79 281.38 376.65 280.94 375.25 280.75 C 373.85 280.56 369.83 280.52 368.25 280.62 Z" id="s-16-f-2"/>
<path d="M 374.62 280.62 C 372.48 280.10 369.73 280.50 368.25 280.62 C 366.77 280.75 368.60 281.02 365.75 281.38 C 362.90 281.73 354.08 282.33 351.12 282.75 C 348.17 283.17 348.52 283.50 348.00 283.88 C 347.48 284.25 347.38 282.96 348.00 285.00 C 348.62 287.04 350.83 292.85 351.75 296.12 C 352.67 299.40 353.00 301.60 353.50 304.62 C 354.00 307.65 354.56 311.50 354.75 314.25 C 354.94 317.00 354.52 319.58 354.62 321.12 C 354.73 322.67 355.19 321.92 355.38 323.50 C 355.56 325.08 355.50 328.98 355.75 330.62 C 356.00 332.27 356.56 331.62 356.88 333.38 C 357.19 335.12 357.50 334.35 357.62 341.12 C 357.75 347.90 357.77 364.62 357.62 374.00 C 357.48 383.38 357.08 391.31 356.75 397.38 C 356.42 403.44 356.23 406.23 355.62 410.38 C 355.02 414.52 353.52 419.83 353.12 422.25 C 352.73 424.67 348.46 424.42 353.25 424.88 C 358.04 425.33 376.75 425.00 381.88 425.00 C 387.00 425.00 383.52 425.04 384.00 424.88 C 384.48 424.71 384.65 429.17 384.75 424.00 C 384.85 418.83 385.10 403.69 384.62 393.88 C 384.15 384.06 382.48 373.08 381.88 365.12 C 381.27 357.17 381.17 351.92 381.00 346.12 C 380.83 340.33 380.69 334.25 380.88 330.38 C 381.06 326.50 381.94 326.40 382.12 322.88 C 382.31 319.35 381.85 312.27 382.00 309.25 C 382.15 306.23 382.69 305.77 383.00 304.75 C 383.31 303.73 383.60 304.15 383.88 303.12 C 384.15 302.10 384.46 300.69 384.62 298.62 C 384.79 296.56 385.04 292.77 384.88 290.75 C 384.71 288.73 384.25 287.67 383.62 286.50 C 383.00 285.33 382.62 284.73 381.12 283.75 C 379.62 282.77 376.77 281.15 374.62 280.62 Z" id="s-16-f-3"/>
<path d="M 374.62 280.62 C 372.48 280.10 369.73 280.50 368.25 280.62 C 366.77 280.75 368.60 281.02 365.75 281.38 C 362.90 281.73 354.08 282.33 351.12 282.75 C 348.17 283.17 348.52 283.50 348.00 283.88 C 347.48 284.25 347.38 282.96 348.00 285.00 C 348.62 287.04 350.83 292.85 351.75 296.12 C 352.67 299.40 353.00 301.60 353.50 304.62 C 354.00 307.65 354.56 311.50 354.75 314.25 C 354.94 317.00 354.52 319.58 354.62 321.12 C 354.73 322.67 355.19 321.92 355.38 323.50 C 355.56 325.08 355.50 328.98 355.75 330.62 C 356.00 332.27 356.52 330.50 356.88 333.38 C 357.23 336.25 357.77 340.71 357.88 347.88 C 357.98 355.04 357.46 371.54 357.50 376.38 C 357.54 381.21 355.15 376.79 358.12 376.88 C 361.10 376.96 371.50 376.96 375.38 376.88 C 379.25 376.79 380.15 376.60 381.38 376.38 C 382.60 376.15 382.77 379.42 382.75 375.50 C 382.73 371.58 381.56 360.40 381.25 352.88 C 380.94 345.35 380.73 335.38 380.88 330.38 C 381.02 325.38 381.94 326.40 382.12 322.88 C 382.31 319.35 381.85 312.27 382.00 309.25 C 382.15 306.23 382.69 305.77 383.00 304.75 C 383.31 303.73 383.60 304.17 383.88 303.12 C 384.15 302.08 384.46 300.56 384.62 298.50 C 384.79 296.44 385.02 292.71 384.88 290.75 C 384.73 288.79 384.38 287.92 383.75 286.75 C 383.12 285.58 382.65 284.77 381.12 283.75 C 379.60 282.73 376.77 281.15 374.62 280.62 Z" id="s-16-f-4"/>
<path d="M 380.25 283.00 C 379.06 282.17 377.46 282.12 376.62 281.75 C 375.79 281.38 376.10 280.96 375.25 280.75 C 374.40 280.54 374.02 280.35 371.50 280.50 C 368.98 280.65 362.62 281.29 360.12 281.62 C 357.62 281.96 358.00 282.31 356.50 282.50 C 355.00 282.69 352.54 282.52 351.12 282.75 C 349.71 282.98 348.52 283.50 348.00 283.88 C 347.48 284.25 347.38 282.96 348.00 285.00 C 348.62 287.04 350.83 292.85 351.75 296.12 C 352.67 299.40 353.00 301.60 353.50 304.62 C 354.00 307.65 354.56 311.50 354.75 314.25 C 354.94 317.00 354.52 319.58 354.62 321.12 C 354.73 322.67 355.19 322.21 355.38 323.50 C 355.56 324.79 351.67 327.92 355.75 328.88 C 359.83 329.83 375.62 329.29 379.88 329.25 C 384.12 329.21 380.88 329.69 381.25 328.62 C 381.62 327.56 382.00 326.10 382.12 322.88 C 382.25 319.65 381.85 312.27 382.00 309.25 C 382.15 306.23 382.69 305.77 383.00 304.75 C 383.31 303.73 383.60 304.15 383.88 303.12 C 384.15 302.10 384.46 300.69 384.62 298.62 C 384.79 296.56 385.02 292.73 384.88 290.75 C 384.73 288.77 384.52 288.04 383.75 286.75 C 382.98 285.46 381.44 283.83 380.25 283.00 Z" id="s-16-f-5"/>
</g>
<g id="s-17" clip-path="url(#c-s-17)">
<use href="#s-17-f-0"/>
<path d="M 264.50 357.38 C 264.12 357.75 264.06 357.67 264.00 358.25 C 263.94 358.83 262.79 358.54 264.12 360.88 C 265.46 363.21 268.73 367.85 272.00 372.25 C 275.27 376.65 280.62 383.67 283.75 387.25 C 286.88 390.83 288.60 392.17 290.75 393.75 C 292.90 395.33 294.69 396.25 296.62 396.75 C 298.56 397.25 300.69 397.06 302.38 396.75 C 304.06 396.44 305.52 395.65 306.75 394.88 C 307.98 394.10 308.90 393.40 309.75 392.12 C 310.60 390.85 311.52 390.35 311.88 387.25 C 312.23 384.15 312.27 376.42 311.88 373.50 C 311.48 370.58 310.54 370.96 309.50 369.75 C 308.46 368.54 307.69 367.54 305.62 366.25 C 303.56 364.96 300.19 363.21 297.12 362.00 C 294.06 360.79 291.60 360.02 287.25 359.00 C 282.90 357.98 274.50 356.38 271.00 355.88 C 267.50 355.38 267.33 355.75 266.25 356.00 C 265.17 356.25 264.88 357.00 264.50 357.38 Z" id="s-17-f-1"/>
</g>
</svg>