<?xml version="1.0" encoding="UTF-8"?>
<svg xmlns="http://www.w3.org/2000/svg" viewBox="0 0 500 500">
<defs>
<path d="M 240.88 98.00 C 240.75 97.21 240.56 96.44 240.00 95.62 C 239.44 94.81 239.29 94.23 237.50 93.12 C 235.71 92.02 231.88 90.17 229.25 89.00 C 226.62 87.83 223.71 86.77 221.75 86.12 C 219.79 85.48 219.31 85.31 217.50 85.12 C 215.69 84.94 213.44 84.44 210.88 85.00 C 208.31 85.56 205.27 87.38 202.12 88.50 C 198.98 89.62 197.71 90.21 192.00 91.75 C 186.29 93.29 181.88 94.92 167.88 97.75 C 153.88 100.58 121.19 106.44 108.00 108.75 C 94.81 111.06 97.00 110.56 88.75 111.62 C 80.50 112.69 64.25 114.27 58.50 115.12 C 52.75 115.98 55.15 116.29 54.25 116.75 C 53.35 117.21 53.35 117.44 53.12 117.88 C 52.90 118.31 52.79 118.83 52.88 119.38 C 52.96 119.92 53.15 120.42 53.62 121.12 C 54.10 121.83 54.77 122.69 55.75 123.62 C 56.73 124.56 57.98 125.92 59.50 126.75 C 61.02 127.58 62.81 128.15 64.88 128.62 C 66.94 129.10 67.75 129.40 71.88 129.62 C 76.00 129.85 82.71 130.31 89.62 130.00 C 96.54 129.69 103.00 128.98 113.38 127.75 C 123.75 126.52 142.27 124.08 151.88 122.62 C 161.48 121.17 167.46 119.60 171.00 119.00 C 174.54 118.40 168.67 119.71 173.12 119.00 C 177.58 118.29 189.15 116.46 197.75 114.75 C 206.35 113.04 218.38 110.42 224.75 108.75 C 231.12 107.08 233.48 105.90 236.00 104.75 C 238.52 103.60 239.08 102.60 239.88 101.88 C 240.67 101.15 240.58 101.02 240.75 100.38 C 240.92 99.73 241.00 98.79 240.88 98.00 Z" id="s-0-f-0"/>
<clipPath id="c-s-0"><use href="#s-0-f-0"/></clipPath>
<path d="M 118.62 126.75 C 117.33 126.15 114.46 126.52 113.00 126.62 C 111.54 126.73 113.21 127.04 109.88 127.38 C 106.54 127.71 96.60 128.27 93.00 128.62 C 89.40 128.98 89.10 129.27 88.25 129.50 C 87.40 129.73 87.92 129.67 87.88 130.00 C 87.83 130.33 87.52 130.27 88.00 131.50 C 88.48 132.73 90.10 135.10 90.75 137.38 C 91.40 139.65 91.38 113.56 91.88 145.12 C 92.38 176.69 93.42 295.81 93.75 326.75 C 94.08 357.69 93.77 329.90 93.88 330.75 C 93.98 331.60 91.35 332.69 94.38 331.88 C 97.40 331.06 108.75 327.10 112.00 325.88 C 115.25 324.65 113.25 333.23 113.88 324.50 C 114.50 315.77 115.40 286.54 115.75 273.50 C 116.10 260.46 115.67 257.35 116.00 246.25 C 116.33 235.15 117.27 222.35 117.75 206.88 C 118.23 191.40 118.52 164.48 118.88 153.38 C 119.23 142.27 119.54 143.42 119.88 140.25 C 120.21 137.08 120.73 136.04 120.88 134.38 C 121.02 132.71 121.12 131.52 120.75 130.25 C 120.38 128.98 119.92 127.35 118.62 126.75 Z" id="s-1-f-0"/>
<clipPath id="c-s-1"><use href="#s-1-f-0"/></clipPath>
<path d="M 200.38 113.50 C 198.92 113.65 193.81 114.31 192.12 114.62 C 190.44 114.94 191.35 115.19 190.25 115.38 C 189.15 115.56 186.48 115.58 185.50 115.75 C 184.52 115.92 185.35 116.21 184.38 116.38 C 183.40 116.54 180.62 116.58 179.62 116.75 C 178.62 116.92 179.23 117.23 178.38 117.38 C 177.52 117.52 175.58 117.35 174.50 117.62 C 173.42 117.90 172.00 117.85 171.88 119.00 C 171.75 120.15 173.10 122.06 173.75 124.50 C 174.40 126.94 175.23 130.69 175.75 133.62 C 176.27 136.56 176.54 138.23 176.88 142.12 C 177.21 146.02 177.60 146.04 177.75 157.00 C 177.90 167.96 177.92 193.06 177.75 207.88 C 177.58 222.69 176.92 231.98 176.75 245.88 C 176.58 259.77 176.92 281.62 176.75 291.25 C 176.58 300.88 175.92 299.35 175.75 303.62 C 175.58 307.90 175.92 311.65 175.75 316.88 C 175.58 322.10 175.40 327.08 174.75 335.00 C 174.10 342.92 172.67 357.50 171.88 364.38 C 171.08 371.25 170.65 371.27 170.00 376.25 C 169.35 381.23 168.33 389.60 168.00 394.25 C 167.67 398.90 167.65 400.96 168.00 404.12 C 168.35 407.29 168.94 409.46 170.12 413.25 C 171.31 417.04 173.73 423.60 175.12 426.88 C 176.52 430.15 177.56 431.38 178.50 432.88 C 179.44 434.38 180.02 435.04 180.75 435.88 C 181.48 436.71 182.17 437.38 182.88 437.88 C 183.58 438.38 184.25 438.75 185.00 438.88 C 185.75 439.00 186.50 439.08 187.38 438.62 C 188.25 438.17 189.19 437.35 190.25 436.12 C 191.31 434.90 192.81 432.77 193.75 431.25 C 194.69 429.73 195.23 430.50 195.88 427.00 C 196.52 423.50 197.17 416.15 197.62 410.25 C 198.08 404.35 198.12 405.79 198.62 391.62 C 199.12 377.46 200.12 346.08 200.62 325.25 C 201.12 304.42 201.44 294.77 201.62 266.62 C 201.81 238.48 201.54 180.38 201.75 156.38 C 201.96 132.38 202.73 129.06 202.88 122.62 C 203.02 116.19 202.96 119.23 202.62 117.75 C 202.29 116.27 201.25 114.46 200.88 113.75 C 200.50 113.04 201.83 113.35 200.38 113.50 Z" id="s-2-f-0"/>
<clipPath id="c-s-2"><use href="#s-2-f-0"/></clipPath>
<path d="M 178.25 183.12 C 178.17 182.25 178.19 182.62 177.75 182.25 C 177.31 181.88 177.12 181.58 175.62 180.88 C 174.12 180.17 172.29 178.98 168.75 178.00 C 165.21 177.02 157.50 175.50 154.38 175.00 C 151.25 174.50 151.19 174.73 150.00 175.00 C 148.81 175.27 149.19 175.83 147.25 176.62 C 145.31 177.42 142.29 178.56 138.38 179.75 C 134.46 180.94 127.19 182.90 123.75 183.75 C 120.31 184.60 118.79 182.58 117.75 184.88 C 116.71 187.17 116.75 195.19 117.50 197.50 C 118.25 199.81 119.90 198.54 122.25 198.75 C 124.60 198.96 125.96 199.54 131.62 198.75 C 137.29 197.96 151.27 194.83 156.25 194.00 C 161.23 193.17 159.67 193.96 161.50 193.75 C 163.33 193.54 165.29 193.23 167.25 192.75 C 169.21 192.27 171.48 191.65 173.25 190.88 C 175.02 190.10 177.04 188.69 177.88 188.12 C 178.71 187.56 178.19 188.33 178.25 187.50 C 178.31 186.67 178.33 184.00 178.25 183.12 Z" id="s-3-f-0"/>
<clipPath id="c-s-3"><use href="#s-3-f-0"/></clipPath>
<path d="M 177.25 246.25 C 176.98 244.92 176.90 245.73 175.38 245.00 C 173.85 244.27 171.27 242.69 168.12 241.88 C 164.98 241.06 159.67 240.44 156.50 240.12 C 153.33 239.81 153.00 239.06 149.12 240.00 C 145.25 240.94 137.23 244.46 133.25 245.75 C 129.27 247.04 127.75 247.23 125.25 247.75 C 122.75 248.27 119.83 248.52 118.25 248.88 C 116.67 249.23 116.21 247.77 115.75 249.88 C 115.29 251.98 114.73 259.35 115.50 261.50 C 116.27 263.65 117.38 262.54 120.38 262.75 C 123.38 262.96 129.85 262.94 133.50 262.75 C 137.15 262.56 136.46 262.65 142.25 261.62 C 148.04 260.60 162.94 257.77 168.25 256.62 C 173.56 255.48 172.67 255.35 174.12 254.75 C 175.58 254.15 176.48 254.42 177.00 253.00 C 177.52 251.58 177.52 247.58 177.25 246.25 Z" id="s-4-f-0"/>
<clipPath id="c-s-4"><use href="#s-4-f-0"/></clipPath>
<path d="M 176.25 303.38 C 176.06 301.54 181.31 300.77 174.88 303.00 C 168.44 305.23 147.58 313.17 137.62 316.75 C 127.67 320.33 119.33 323.19 115.12 324.50 C 110.92 325.81 113.46 324.31 112.38 324.62 C 111.29 324.94 110.50 325.71 108.62 326.38 C 106.75 327.04 102.65 328.08 101.12 328.62 C 99.60 329.17 100.50 329.29 99.50 329.62 C 98.50 329.96 95.94 330.33 95.12 330.62 C 94.31 330.92 95.12 331.06 94.62 331.38 C 94.12 331.69 96.29 331.10 92.12 332.50 C 87.96 333.90 77.10 337.44 69.62 339.75 C 62.15 342.06 53.50 344.83 47.25 346.38 C 41.00 347.92 34.94 348.42 32.12 349.00 C 29.31 349.58 30.75 349.60 30.38 349.88 C 30.00 350.15 29.92 350.04 29.88 350.62 C 29.83 351.21 29.77 352.29 30.12 353.38 C 30.48 354.46 31.06 355.69 32.00 357.12 C 32.94 358.56 34.29 360.38 35.75 362.00 C 37.21 363.62 38.81 365.25 40.75 366.88 C 42.69 368.50 45.44 370.46 47.38 371.75 C 49.31 373.04 50.69 373.79 52.38 374.62 C 54.06 375.46 56.04 376.23 57.50 376.75 C 58.96 377.27 59.56 377.60 61.12 377.75 C 62.69 377.90 65.02 378.10 66.88 377.62 C 68.73 377.15 69.15 376.79 72.25 374.88 C 75.35 372.96 80.25 369.44 85.50 366.12 C 90.75 362.81 92.60 361.38 103.75 355.00 C 114.90 348.62 140.33 334.71 152.38 327.88 C 164.42 321.04 172.02 318.08 176.00 314.00 C 179.98 309.92 176.44 305.21 176.25 303.38 Z" id="s-5-f-0"/>
<clipPath id="c-s-5"><use href="#s-5-f-0"/></clipPath>
<path d="M 293.38 62.25 C 290.31 60.96 288.60 60.52 286.75 60.12 C 284.90 59.73 283.29 59.73 282.25 59.88 C 281.21 60.02 280.88 60.67 280.50 61.00 C 280.12 61.33 280.29 58.83 280.00 61.88 C 279.71 64.92 279.29 73.31 278.75 79.25 C 278.21 85.19 277.44 92.29 276.75 97.50 C 276.06 102.71 275.81 104.85 274.62 110.50 C 273.44 116.15 271.60 124.60 269.62 131.38 C 267.65 138.15 265.44 144.02 262.75 151.12 C 260.06 158.23 257.21 165.33 253.50 174.00 C 249.79 182.67 244.58 194.27 240.50 203.12 C 236.42 211.98 230.92 222.90 229.00 227.12 C 227.08 231.35 228.81 228.08 229.00 228.50 C 229.19 228.92 229.17 229.42 230.12 229.62 C 231.08 229.83 233.60 229.92 234.75 229.75 C 235.90 229.58 235.33 230.04 237.00 228.62 C 238.67 227.21 242.29 223.77 244.75 221.25 C 247.21 218.73 249.73 215.92 251.75 213.50 C 253.77 211.08 254.19 210.60 256.88 206.75 C 259.56 202.90 264.38 196.23 267.88 190.38 C 271.38 184.52 274.92 177.54 277.88 171.62 C 280.83 165.71 282.94 161.15 285.62 154.88 C 288.31 148.60 292.48 137.62 294.00 134.00 C 295.52 130.38 293.21 136.50 294.75 133.12 C 296.29 129.75 299.90 120.90 303.25 113.75 C 306.60 106.60 312.65 95.04 314.88 90.25 C 317.10 85.46 316.31 86.83 316.62 85.00 C 316.94 83.17 317.00 80.67 316.75 79.25 C 316.50 77.83 316.21 77.77 315.12 76.50 C 314.04 75.23 311.92 73.06 310.25 71.62 C 308.58 70.19 307.94 69.44 305.12 67.88 C 302.31 66.31 296.44 63.54 293.38 62.25 Z" id="s-6-f-0"/>
<clipPath id="c-s-6"><use href="#s-6-f-0"/></clipPath>
<path d="M 431.88 155.00 C 431.38 153.92 430.71 152.56 428.75 150.88 C 426.79 149.19 423.38 146.33 420.12 144.88 C 416.88 143.42 411.81 142.60 409.25 142.12 C 406.69 141.65 409.71 141.19 404.75 142.00 C 399.79 142.81 386.06 145.56 379.50 147.00 C 372.94 148.44 372.44 149.00 365.38 150.62 C 358.31 152.25 351.15 153.83 337.12 156.75 C 323.10 159.67 290.98 166.10 281.25 168.12 C 271.52 170.15 279.33 168.60 278.75 168.88 C 278.17 169.15 278.79 167.83 277.75 169.75 C 276.71 171.67 272.58 178.38 272.50 180.38 C 272.42 182.38 274.65 181.33 277.25 181.75 C 279.85 182.17 283.50 182.71 288.12 182.88 C 292.75 183.04 298.50 183.08 305.00 182.75 C 311.50 182.42 316.23 182.31 327.12 180.88 C 338.02 179.44 357.19 175.98 370.38 174.12 C 383.56 172.27 398.44 170.98 406.25 169.75 C 414.06 168.52 414.10 167.77 417.25 166.75 C 420.40 165.73 423.02 164.71 425.12 163.62 C 427.23 162.54 428.77 161.29 429.88 160.25 C 430.98 159.21 431.42 158.25 431.75 157.38 C 432.08 156.50 432.38 156.08 431.88 155.00 Z" id="s-7-f-0"/>
<clipPath id="c-s-7"><use href="#s-7-f-0"/></clipPath>
<path d="M 468.75 258.88 C 468.46 257.60 467.96 256.85 467.00 255.62 C 466.04 254.40 465.08 253.10 463.00 251.50 C 460.92 249.90 457.46 247.58 454.50 246.00 C 451.54 244.42 448.15 243.15 445.25 242.00 C 442.35 240.85 439.27 239.79 437.12 239.12 C 434.98 238.46 433.88 238.19 432.38 238.00 C 430.88 237.81 433.44 237.04 428.12 238.00 C 422.81 238.96 412.69 241.62 400.50 243.75 C 388.31 245.88 363.25 249.56 355.00 250.75 C 346.75 251.94 359.46 249.67 351.00 250.88 C 342.54 252.08 317.10 255.96 304.25 258.00 C 291.40 260.04 283.56 261.33 273.88 263.12 C 264.19 264.92 253.67 267.50 246.12 268.75 C 238.58 270.00 233.15 270.25 228.62 270.62 C 224.10 271.00 221.02 270.71 219.00 271.00 C 216.98 271.29 217.15 271.83 216.50 272.38 C 215.85 272.92 215.40 273.42 215.12 274.25 C 214.85 275.08 214.40 276.23 214.88 277.38 C 215.35 278.52 216.75 279.90 218.00 281.12 C 219.25 282.35 219.58 282.83 222.38 284.75 C 225.17 286.67 231.21 290.62 234.75 292.62 C 238.29 294.62 241.54 295.90 243.62 296.75 C 245.71 297.60 246.15 297.56 247.25 297.75 C 248.35 297.94 249.06 298.06 250.25 297.88 C 251.44 297.69 252.15 297.60 254.38 296.62 C 256.60 295.65 260.00 293.58 263.62 292.00 C 267.25 290.42 271.33 288.77 276.12 287.12 C 280.92 285.48 284.83 284.15 292.38 282.12 C 299.92 280.10 312.50 276.71 321.38 275.00 C 330.25 273.29 338.79 272.88 345.62 271.88 C 352.46 270.88 356.17 269.79 362.38 269.00 C 368.58 268.21 375.62 267.46 382.88 267.12 C 390.12 266.79 395.77 266.73 405.88 267.00 C 415.98 267.27 434.31 268.46 443.50 268.75 C 452.69 269.04 457.44 268.94 461.00 268.75 C 464.56 268.56 463.81 268.15 464.88 267.62 C 465.94 267.10 466.73 266.35 467.38 265.62 C 468.02 264.90 468.52 264.38 468.75 263.25 C 468.98 262.12 469.04 260.15 468.75 258.88 Z" id="s-8-f-0"/>
<clipPath id="c-s-8"><use href="#s-8-f-0"/></clipPath>
<path d="M 351.25 176.50 C 348.96 175.12 348.44 176.48 347.50 176.62 C 346.56 176.77 346.67 177.21 345.62 177.38 C 344.58 177.54 342.44 177.46 341.25 177.62 C 340.06 177.79 339.75 178.19 338.50 178.38 C 337.25 178.56 334.73 178.58 333.75 178.75 C 332.77 178.92 333.54 179.23 332.62 179.38 C 331.71 179.52 329.54 179.40 328.25 179.62 C 326.96 179.85 324.94 179.50 324.88 180.75 C 324.81 182.00 327.12 184.81 327.88 187.12 C 328.62 189.44 329.06 192.58 329.38 194.62 C 329.69 196.67 329.71 195.77 329.75 199.38 C 329.79 202.98 329.79 211.21 329.62 216.25 C 329.46 221.29 329.38 223.27 328.75 229.62 C 328.12 235.98 326.44 249.98 325.88 254.38 C 325.31 258.77 325.58 255.62 325.38 256.00 C 325.17 256.38 324.79 255.92 324.62 256.62 C 324.46 257.33 324.54 259.42 324.38 260.25 C 324.21 261.08 323.79 260.79 323.62 261.62 C 323.46 262.46 323.54 264.40 323.38 265.25 C 323.21 266.10 322.79 265.92 322.62 266.75 C 322.46 267.58 322.54 269.42 322.38 270.25 C 322.21 271.08 321.79 270.31 321.62 271.75 C 321.46 273.19 321.79 276.50 321.38 278.88 C 320.96 281.25 319.90 283.02 319.12 286.00 C 318.35 288.98 317.65 293.25 316.75 296.75 C 315.85 300.25 315.10 302.85 313.75 307.00 C 312.40 311.15 310.46 316.98 308.62 321.62 C 306.79 326.27 305.06 330.15 302.75 334.88 C 300.44 339.60 297.60 345.00 294.75 350.00 C 291.90 355.00 288.15 360.96 285.62 364.88 C 283.10 368.79 281.81 370.58 279.62 373.50 C 277.44 376.42 275.23 379.23 272.50 382.38 C 269.77 385.52 266.23 389.31 263.25 392.38 C 260.27 395.44 258.92 397.06 254.62 400.75 C 250.33 404.44 240.94 411.62 237.50 414.50 C 234.06 417.38 234.75 417.15 234.00 418.00 C 233.25 418.85 233.19 419.10 233.00 419.62 C 232.81 420.15 232.62 420.60 232.88 421.12 C 233.12 421.65 232.67 422.50 234.50 422.75 C 236.33 423.00 241.31 422.81 243.88 422.62 C 246.44 422.44 247.62 422.15 249.88 421.62 C 252.12 421.10 254.98 420.31 257.38 419.50 C 259.77 418.69 261.81 417.85 264.25 416.75 C 266.69 415.65 268.67 414.83 272.00 412.88 C 275.33 410.92 281.00 407.25 284.25 405.00 C 287.50 402.75 289.75 400.85 291.50 399.38 C 293.25 397.90 292.38 398.81 294.75 396.12 C 297.12 393.44 302.58 387.35 305.75 383.25 C 308.92 379.15 310.92 376.12 313.75 371.50 C 316.58 366.88 319.77 361.50 322.75 355.50 C 325.73 349.50 328.98 342.06 331.62 335.50 C 334.27 328.94 336.46 322.85 338.62 316.12 C 340.79 309.40 342.71 302.81 344.62 295.12 C 346.54 287.44 349.04 274.33 350.12 270.00 C 351.21 265.67 350.94 269.75 351.12 269.12 C 351.31 268.50 351.08 267.10 351.25 266.25 C 351.42 265.40 351.94 264.96 352.12 264.00 C 352.31 263.04 352.21 261.33 352.38 260.50 C 352.54 259.67 352.96 259.83 353.12 259.00 C 353.29 258.17 353.21 256.27 353.38 255.50 C 353.54 254.73 354.02 255.33 354.12 254.38 C 354.23 253.42 353.73 252.46 354.00 249.75 C 354.27 247.04 355.08 243.73 355.75 238.12 C 356.42 232.52 357.29 221.38 358.00 216.12 C 358.71 210.88 359.23 209.60 360.00 206.62 C 360.77 203.65 361.98 201.04 362.62 198.25 C 363.27 195.46 363.88 191.81 363.88 189.88 C 363.88 187.94 363.06 187.46 362.62 186.62 C 362.19 185.79 363.15 186.56 361.25 184.88 C 359.35 183.19 353.54 177.88 351.25 176.50 Z" id="s-9-f-0"/>
<clipPath id="c-s-9"><use href="#s-9-f-0"/></clipPath>
<path d="M 367.12 304.00 C 366.50 304.54 366.71 306.23 367.00 307.38 C 367.29 308.52 366.46 307.88 368.88 310.88 C 371.29 313.88 377.88 320.94 381.50 325.38 C 385.12 329.81 385.58 330.19 390.62 337.50 C 395.67 344.81 407.17 362.15 411.75 369.25 C 416.33 376.35 415.90 376.60 418.12 380.12 C 420.35 383.65 422.85 387.25 425.12 390.38 C 427.40 393.50 429.50 396.29 431.75 398.88 C 434.00 401.46 436.31 403.92 438.62 405.88 C 440.94 407.83 443.98 409.65 445.62 410.62 C 447.27 411.60 447.52 411.56 448.50 411.75 C 449.48 411.94 450.60 411.96 451.50 411.75 C 452.40 411.54 452.98 411.27 453.88 410.50 C 454.77 409.73 456.06 408.88 456.88 407.12 C 457.69 405.38 458.44 402.96 458.75 400.00 C 459.06 397.04 458.94 392.67 458.75 389.38 C 458.56 386.08 458.12 383.04 457.62 380.25 C 457.12 377.46 456.54 375.23 455.75 372.62 C 454.96 370.02 453.71 366.62 452.88 364.62 C 452.04 362.62 452.15 362.69 450.75 360.62 C 449.35 358.56 446.52 354.71 444.50 352.25 C 442.48 349.79 440.90 348.15 438.62 345.88 C 436.35 343.60 433.90 341.25 430.88 338.62 C 427.85 336.00 423.77 332.58 420.50 330.12 C 417.23 327.67 415.60 326.56 411.25 323.88 C 406.90 321.19 399.48 316.79 394.38 314.00 C 389.27 311.21 384.56 308.77 380.62 307.12 C 376.69 305.48 373.00 304.65 370.75 304.12 C 368.50 303.60 367.75 303.46 367.12 304.00 Z" id="s-10-f-0"/>
<clipPath id="c-s-10"><use href="#s-10-f-0"/></clipPath>
</defs>
<g id="s-0" clip-path="url(#c-s-0)">
<use href="#s-0-f-0"/>
<path d="M 196.88 90.62 C 196.73 86.90 198.79 89.56 196.12 90.25 C 193.46 90.94 185.58 93.50 180.88 94.75 C 176.17 96.00 177.02 95.92 167.88 97.75 C 158.73 99.58 139.19 103.44 126.00 105.75 C 112.81 108.06 100.00 110.06 88.75 111.62 C 77.50 113.19 64.25 114.27 58.50 115.12 C 52.75 115.98 55.15 116.29 54.25 116.75 C 53.35 117.21 53.35 117.44 53.12 117.88 C 52.90 118.31 52.79 118.83 52.88 119.38 C 52.96 119.92 53.10 120.38 53.62 121.12 C 54.15 121.88 55.08 122.98 56.00 123.88 C 56.92 124.77 58.17 125.85 59.12 126.50 C 60.08 127.15 59.62 127.23 61.75 127.75 C 63.88 128.27 67.23 129.25 71.88 129.62 C 76.52 130.00 79.67 130.67 89.62 130.00 C 99.58 129.33 121.25 126.85 131.62 125.62 C 142.00 124.40 141.17 124.40 151.88 122.62 C 162.58 120.85 188.38 116.38 195.88 115.00 C 203.38 113.62 196.69 114.77 196.88 114.38 C 197.06 113.98 197.00 116.58 197.00 112.62 C 197.00 108.67 197.02 94.35 196.88 90.62 Z" id="s-0-f-1"/>
<path d="M 148.88 101.88 C 148.71 98.35 151.69 100.85 147.88 101.50 C 144.06 102.15 135.85 104.06 126.00 105.75 C 116.15 107.44 100.00 110.06 88.75 111.62 C 77.50 113.19 64.25 114.27 58.50 115.12 C 52.75 115.98 55.15 116.29 54.25 116.75 C 53.35 117.21 53.35 117.44 53.12 117.88 C 52.90 118.31 52.79 118.83 52.88 119.38 C 52.96 119.92 53.15 120.42 53.62 121.12 C 54.10 121.83 54.77 122.69 55.75 123.62 C 56.73 124.56 57.98 125.92 59.50 126.75 C 61.02 127.58 62.52 128.12 64.88 128.62 C 67.23 129.12 69.21 129.54 73.62 129.75 C 78.04 129.96 84.75 130.21 91.38 129.88 C 98.00 129.54 104.35 128.79 113.38 127.75 C 122.40 126.71 139.58 124.48 145.50 123.62 C 151.42 122.77 148.31 126.25 148.88 122.62 C 149.44 119.00 149.04 105.40 148.88 101.88 Z" id="s-0-f-2"/>
<path d="M 100.88 128.50 C 101.02 125.54 101.06 114.35 101.00 111.25 C 100.94 108.15 107.58 109.23 100.50 109.88 C 93.42 110.52 66.00 114.10 58.50 115.12 C 51.00 116.15 56.31 115.65 55.50 116.00 C 54.69 116.35 54.06 116.85 53.62 117.25 C 53.19 117.65 52.88 117.73 52.88 118.38 C 52.88 119.02 52.88 120.00 53.62 121.12 C 54.38 122.25 56.35 124.17 57.38 125.12 C 58.40 126.08 58.50 126.29 59.75 126.88 C 61.00 127.46 62.56 128.15 64.88 128.62 C 67.19 129.10 69.50 129.52 73.62 129.75 C 77.75 129.98 85.21 130.12 89.62 130.00 C 94.04 129.88 98.25 129.25 100.12 129.00 C 102.00 128.75 100.73 131.46 100.88 128.50 Z" id="s-0-f-3"/>
</g>
<g id="s-1" clip-path="url(#c-s-1)">
<use href="#s-1-f-0"/>
<path d="M 118.62 126.75 C 117.33 126.15 114.46 126.52 113.00 126.62 C 111.54 126.73 113.21 127.04 109.88 127.38 C 106.54 127.71 96.60 128.27 93.00 128.62 C 89.40 128.98 89.10 129.27 88.25 129.50 C 87.40 129.73 87.92 129.67 87.88 130.00 C 87.83 130.33 87.52 130.27 88.00 131.50 C 88.48 132.73 90.10 135.10 90.75 137.38 C 91.40 139.65 91.48 120.06 91.88 145.12 C 92.27 170.19 92.77 258.83 93.12 287.75 C 93.48 316.67 90.77 313.42 94.00 318.62 C 97.23 323.83 109.19 318.98 112.50 319.00 C 115.81 319.02 113.58 319.04 113.88 318.75 C 114.17 318.46 113.94 324.79 114.25 317.25 C 114.56 309.71 115.46 285.33 115.75 273.50 C 116.04 261.67 115.67 257.35 116.00 246.25 C 116.33 235.15 117.27 222.35 117.75 206.88 C 118.23 191.40 118.52 164.48 118.88 153.38 C 119.23 142.27 119.54 143.42 119.88 140.25 C 120.21 137.08 120.73 136.04 120.88 134.38 C 121.02 132.71 121.12 131.52 120.75 130.25 C 120.38 128.98 119.92 127.35 118.62 126.75 Z" id="s-1-f-1"/>
<path d="M 118.62 126.75 C 117.35 126.21 114.46 126.52 113.00 126.62 C 111.54 126.73 113.21 127.04 109.88 127.38 C 106.54 127.71 96.60 128.27 93.00 128.62 C 89.40 128.98 89.10 129.27 88.25 129.50 C 87.40 129.73 87.92 129.67 87.88 130.00 C 87.83 130.33 87.52 130.27 88.00 131.50 C 88.48 132.73 90.10 135.10 90.75 137.38 C 91.40 139.65 91.50 122.96 91.88 145.12 C 92.25 167.29 92.65 249.40 93.00 270.38 C 93.35 291.35 90.29 270.92 94.00 271.00 C 97.71 271.08 111.62 271.00 115.25 270.88 C 118.88 270.75 115.62 274.35 115.75 270.25 C 115.88 266.15 115.67 256.81 116.00 246.25 C 116.33 235.69 117.27 222.35 117.75 206.88 C 118.23 191.40 118.52 164.48 118.88 153.38 C 119.23 142.27 119.54 143.42 119.88 140.25 C 120.21 137.08 120.75 136.10 120.88 134.38 C 121.00 132.65 121.00 131.15 120.62 129.88 C 120.25 128.60 119.90 127.29 118.62 126.75 Z" id="s-1-f-2"/>
<path d="M 118.62 126.75 C 117.33 126.15 114.46 126.52 113.00 126.62 C 111.54 126.73 113.21 127.04 109.88 127.38 C 106.54 127.71 96.60 128.27 93.00 128.62 C 89.40 128.98 89.10 129.27 88.25 129.50 C 87.40 129.73 87.92 129.67 87.88 130.00 C 87.83 130.33 87.52 130.27 88.00 131.50 C 88.48 132.73 90.12 135.58 90.75 137.38 C 91.38 139.17 91.44 128.10 91.75 142.25 C 92.06 156.40 92.40 208.81 92.62 222.25 C 92.85 235.69 89.21 222.75 93.12 222.88 C 97.04 223.00 112.19 223.10 116.12 223.00 C 120.06 222.90 116.48 224.94 116.75 222.25 C 117.02 219.56 117.54 213.79 117.75 206.88 C 117.96 199.96 117.79 190.17 118.00 180.75 C 118.21 171.33 118.67 157.31 119.00 150.38 C 119.33 143.44 119.69 141.79 120.00 139.12 C 120.31 136.46 120.75 135.85 120.88 134.38 C 121.00 132.90 121.12 131.52 120.75 130.25 C 120.38 128.98 119.92 127.35 118.62 126.75 Z" id="s-1-f-3"/>
<path d="M 119.00 126.88 C 117.71 126.27 114.52 126.54 113.00 126.62 C 111.48 126.71 113.21 127.04 109.88 127.38 C 106.54 127.71 96.65 128.23 93.00 128.62 C 89.35 129.02 88.83 129.27 88.00 129.75 C 87.17 130.23 87.56 130.29 88.00 131.50 C 88.44 132.71 90.00 135.19 90.62 137.00 C 91.25 138.81 91.48 136.08 91.75 142.38 C 92.02 148.67 88.19 169.31 92.25 174.75 C 96.31 180.19 111.79 175.04 116.12 175.00 C 120.46 174.96 117.75 178.98 118.25 174.50 C 118.75 170.02 118.69 154.81 119.12 148.12 C 119.56 141.44 120.60 137.35 120.88 134.38 C 121.15 131.40 121.06 131.50 120.75 130.25 C 120.44 129.00 120.29 127.48 119.00 126.88 Z" id="s-1-f-4"/>
</g>
<g id="s-2" clip-path="url(#c-s-2)">
<use href="#s-2-f-0"/>
<path d="M 200.38 113.50 C 198.92 113.65 193.81 114.31 192.12 114.62 C 190.44 114.94 191.35 115.19 190.25 115.38 C 189.15 115.56 186.48 115.58 185.50 115.75 C 184.52 115.92 185.35 116.21 184.38 116.38 C 183.40 116.54 180.62 116.58 179.62 116.75 C 178.62 116.92 179.23 117.23 178.38 117.38 C 177.52 117.52 175.58 117.35 174.50 117.62 C 173.42 117.90 172.00 117.85 171.88 119.00 C 171.75 120.15 173.10 122.06 173.75 124.50 C 174.40 126.94 175.23 130.69 175.75 133.62 C 176.27 136.56 176.54 138.23 176.88 142.12 C 177.21 146.02 177.60 146.04 177.75 157.00 C 177.90 167.96 177.92 193.06 177.75 207.88 C 177.58 222.69 176.92 231.96 176.75 245.88 C 176.58 259.79 176.92 281.75 176.75 291.38 C 176.58 301.00 175.92 299.33 175.75 303.62 C 175.58 307.92 175.92 311.90 175.75 317.12 C 175.58 322.35 175.40 327.12 174.75 335.00 C 174.10 342.88 172.67 357.50 171.88 364.38 C 171.08 371.25 170.65 371.27 170.00 376.25 C 169.35 381.23 168.35 390.06 168.00 394.25 C 167.65 398.44 167.81 400.10 167.88 401.38 C 167.94 402.65 163.46 401.77 168.38 401.88 C 173.29 401.98 192.44 402.33 197.38 402.00 C 202.31 401.67 197.79 401.60 198.00 399.88 C 198.21 398.15 198.17 405.04 198.62 391.62 C 199.08 378.21 200.23 342.46 200.75 319.38 C 201.27 296.29 201.58 280.29 201.75 253.12 C 201.92 225.96 201.56 178.12 201.75 156.38 C 201.94 134.62 202.73 129.06 202.88 122.62 C 203.02 116.19 202.96 119.23 202.62 117.75 C 202.29 116.27 201.25 114.46 200.88 113.75 C 200.50 113.04 201.83 113.35 200.38 113.50 Z" id="s-2-f-1"/>
<path d="M 200.38 113.50 C 198.92 113.65 193.81 114.31 192.12 114.62 C 190.44 114.94 191.35 115.19 190.25 115.38 C 189.15 115.56 186.48 115.58 185.50 115.75 C 184.52 115.92 185.35 116.21 184.38 116.38 C 183.40 116.54 180.62 116.58 179.62 116.75 C 178.62 116.92 179.23 117.23 178.38 117.38 C 177.52 117.52 175.58 117.35 174.50 117.62 C 173.42 117.90 171.83 117.21 171.88 119.00 C 171.92 120.79 173.92 124.52 174.75 128.38 C 175.58 132.23 176.38 137.35 176.88 142.12 C 177.38 146.90 177.62 144.69 177.75 157.00 C 177.88 169.31 177.79 201.19 177.62 216.00 C 177.46 230.81 176.90 233.31 176.75 245.88 C 176.60 258.44 176.92 281.75 176.75 291.38 C 176.58 301.00 175.92 299.33 175.75 303.62 C 175.58 307.92 175.92 311.90 175.75 317.12 C 175.58 322.35 175.21 329.15 174.75 335.00 C 174.29 340.85 173.23 349.10 173.00 352.25 C 172.77 355.40 169.29 353.58 173.38 353.88 C 177.46 354.17 193.15 354.02 197.50 354.00 C 201.85 353.98 199.12 353.92 199.50 353.75 C 199.88 353.58 199.40 367.52 199.75 353.00 C 200.10 338.48 201.29 299.38 201.62 266.62 C 201.96 233.88 201.54 180.50 201.75 156.50 C 201.96 132.50 202.73 129.08 202.88 122.62 C 203.02 116.17 202.96 119.23 202.62 117.75 C 202.29 116.27 201.25 114.46 200.88 113.75 C 200.50 113.04 201.83 113.35 200.38 113.50 Z" id="s-2-f-2"/>
<path d="M 200.38 113.50 C 198.77 113.35 193.81 114.31 192.12 114.62 C 190.44 114.94 191.35 115.19 190.25 115.38 C 189.15 115.56 186.48 115.58 185.50 115.75 C 184.52 115.92 185.35 116.21 184.38 116.38 C 183.40 116.54 180.62 116.58 179.62 116.75 C 178.62 116.92 179.23 117.23 178.38 117.38 C 177.52 117.52 175.58 117.35 174.50 117.62 C 173.42 117.90 172.00 117.85 171.88 119.00 C 171.75 120.15 173.10 122.08 173.75 124.50 C 174.40 126.92 175.23 130.56 175.75 133.50 C 176.27 136.44 176.54 138.21 176.88 142.12 C 177.21 146.04 177.60 146.04 177.75 157.00 C 177.90 167.96 177.92 193.06 177.75 207.88 C 177.58 222.69 176.92 231.96 176.75 245.88 C 176.58 259.79 176.92 281.44 176.75 291.38 C 176.58 301.31 175.85 303.08 175.75 305.50 C 175.65 307.92 172.21 305.83 176.12 305.88 C 180.04 305.92 195.12 305.85 199.25 305.75 C 203.38 305.65 200.46 313.73 200.88 305.25 C 201.29 296.77 201.60 279.62 201.75 254.88 C 201.90 230.12 201.56 179.38 201.75 156.75 C 201.94 134.12 202.88 126.00 202.88 119.12 C 202.88 112.25 202.17 116.44 201.75 115.50 C 201.33 114.56 201.98 113.65 200.38 113.50 Z" id="s-2-f-3"/>
<path d="M 200.38 113.50 C 198.77 113.35 193.81 114.31 192.12 114.62 C 190.44 114.94 191.35 115.19 190.25 115.38 C 189.15 115.56 186.48 115.58 185.50 115.75 C 184.52 115.92 185.35 116.21 184.38 116.38 C 183.40 116.54 180.62 116.58 179.62 116.75 C 178.62 116.92 179.23 117.23 178.38 117.38 C 177.52 117.52 175.58 117.35 174.50 117.62 C 173.42 117.90 172.00 117.85 171.88 119.00 C 171.75 120.15 173.10 122.08 173.75 124.50 C 174.40 126.92 175.23 130.56 175.75 133.50 C 176.27 136.44 176.56 138.79 176.88 142.12 C 177.19 145.46 177.48 142.54 177.62 153.50 C 177.77 164.46 177.90 192.48 177.75 207.88 C 177.60 223.27 176.85 237.56 176.75 245.88 C 176.65 254.19 173.08 255.75 177.12 257.75 C 181.17 259.75 196.94 257.94 201.00 257.88 C 205.06 257.81 201.38 274.23 201.50 257.38 C 201.62 240.52 201.52 179.79 201.75 156.75 C 201.98 133.71 202.88 126.00 202.88 119.12 C 202.88 112.25 202.17 116.44 201.75 115.50 C 201.33 114.56 201.98 113.65 200.38 113.50 Z" id="s-2-f-4"/>
<path d="M 200.38 113.50 C 198.77 113.35 193.81 114.31 192.12 114.62 C 190.44 114.94 191.35 115.19 190.25 115.38 C 189.15 115.56 186.48 115.58 185.50 115.75 C 184.52 115.92 185.35 116.21 184.38 116.38 C 183.40 116.54 180.62 116.58 179.62 116.75 C 178.62 116.92 179.23 117.23 178.38 117.38 C 177.52 117.52 175.58 117.35 174.50 117.62 C 173.42 117.90 172.00 117.85 171.88 119.00 C 171.75 120.15 173.10 122.08 173.75 124.50 C 174.40 126.92 175.12 129.15 175.75 133.50 C 176.38 137.85 177.17 137.98 177.50 150.62 C 177.83 163.27 177.65 199.50 177.75 209.38 C 177.85 219.25 174.40 209.77 178.12 209.88 C 181.85 209.98 196.19 210.04 200.12 210.00 C 204.06 209.96 201.46 220.17 201.75 209.62 C 202.04 199.08 201.69 161.83 201.88 146.75 C 202.06 131.67 202.90 124.33 202.88 119.12 C 202.85 113.92 202.17 116.44 201.75 115.50 C 201.33 114.56 201.98 113.65 200.38 113.50 Z" id="s-2-f-5"/>
<path d="M 200.38 113.50 C 198.77 113.35 193.81 114.31 192.12 114.62 C 190.44 114.94 191.35 115.19 190.25 115.38 C 189.15 115.56 186.58 115.54 185.50 115.75 C 184.42 115.96 184.60 116.48 183.75 116.62 C 182.90 116.77 181.27 116.50 180.38 116.62 C 179.48 116.75 179.35 117.21 178.38 117.38 C 177.40 117.54 175.58 117.35 174.50 117.62 C 173.42 117.90 171.85 117.35 171.88 119.00 C 171.90 120.65 173.79 123.65 174.62 127.50 C 175.46 131.35 176.33 136.50 176.88 142.12 C 177.42 147.75 177.60 157.94 177.88 161.25 C 178.15 164.56 174.81 161.88 178.50 162.00 C 182.19 162.12 196.17 162.06 200.00 162.00 C 203.83 161.94 201.02 168.77 201.50 161.62 C 201.98 154.48 202.83 126.81 202.88 119.12 C 202.92 111.44 202.17 116.44 201.75 115.50 C 201.33 114.56 201.98 113.65 200.38 113.50 Z" id="s-2-f-6"/>
</g>
<g id="s-3" clip-path="url(#c-s-3)">
<use href="#s-3-f-0"/>
<path d="M 165.88 177.88 C 165.69 175.31 166.79 177.48 164.88 177.00 C 162.96 176.52 156.85 175.33 154.38 175.00 C 151.90 174.67 151.19 174.73 150.00 175.00 C 148.81 175.27 149.19 175.83 147.25 176.62 C 145.31 177.42 142.29 178.56 138.38 179.75 C 134.46 180.94 127.19 182.90 123.75 183.75 C 120.31 184.60 118.79 182.58 117.75 184.88 C 116.71 187.17 116.75 195.19 117.50 197.50 C 118.25 199.81 119.90 198.54 122.25 198.75 C 124.60 198.96 125.96 199.54 131.62 198.75 C 137.29 197.96 151.27 194.83 156.25 194.00 C 161.23 193.17 159.98 193.92 161.50 193.75 C 163.02 193.58 164.62 193.23 165.38 193.00 C 166.12 192.77 165.92 194.90 166.00 192.38 C 166.08 189.85 166.06 180.44 165.88 177.88 Z" id="s-3-f-1"/>
</g>
<g id="s-4" clip-path="url(#c-s-4)">
<use href="#s-4-f-0"/>
<path d="M 163.88 241.62 C 163.75 239.15 164.48 241.25 163.25 241.00 C 162.02 240.75 158.85 240.29 156.50 240.12 C 154.15 239.96 153.00 239.06 149.12 240.00 C 145.25 240.94 137.23 244.46 133.25 245.75 C 129.27 247.04 127.83 247.21 125.25 247.75 C 122.67 248.29 119.38 248.58 117.75 249.00 C 116.12 249.42 115.88 248.17 115.50 250.25 C 115.12 252.33 114.69 259.42 115.50 261.50 C 116.31 263.58 117.38 262.54 120.38 262.75 C 123.38 262.96 129.85 262.94 133.50 262.75 C 137.15 262.56 139.62 262.08 142.25 261.62 C 144.88 261.17 145.75 260.65 149.25 260.00 C 152.75 259.35 160.83 258.19 163.25 257.75 C 165.67 257.31 163.62 257.69 163.75 257.38 C 163.88 257.06 163.98 258.50 164.00 255.88 C 164.02 253.25 164.00 244.10 163.88 241.62 Z" id="s-4-f-1"/>
</g>
<g id="s-5" clip-path="url(#c-s-5)">
<use href="#s-5-f-0"/>
<path d="M 173.88 304.12 C 173.79 302.31 173.79 303.77 173.50 303.75 C 173.21 303.73 178.10 301.83 172.12 304.00 C 166.15 306.17 147.12 313.33 137.62 316.75 C 128.12 320.17 119.33 323.19 115.12 324.50 C 110.92 325.81 113.46 324.31 112.38 324.62 C 111.29 324.94 110.50 325.71 108.62 326.38 C 106.75 327.04 102.65 328.08 101.12 328.62 C 99.60 329.17 100.50 329.29 99.50 329.62 C 98.50 329.96 95.94 330.33 95.12 330.62 C 94.31 330.92 95.12 331.06 94.62 331.38 C 94.12 331.69 96.29 331.10 92.12 332.50 C 87.96 333.90 77.10 337.44 69.62 339.75 C 62.15 342.06 53.50 344.83 47.25 346.38 C 41.00 347.92 34.94 348.42 32.12 349.00 C 29.31 349.58 30.75 349.60 30.38 349.88 C 30.00 350.15 29.92 350.04 29.88 350.62 C 29.83 351.21 29.77 352.29 30.12 353.38 C 30.48 354.46 31.06 355.69 32.00 357.12 C 32.94 358.56 34.29 360.38 35.75 362.00 C 37.21 363.62 38.81 365.25 40.75 366.88 C 42.69 368.50 45.44 370.46 47.38 371.75 C 49.31 373.04 50.69 373.79 52.38 374.62 C 54.06 375.46 56.04 376.23 57.50 376.75 C 58.96 377.27 59.56 377.60 61.12 377.75 C 62.69 377.90 65.02 378.10 66.88 377.62 C 68.73 377.15 69.15 376.79 72.25 374.88 C 75.35 372.96 80.25 369.44 85.50 366.12 C 90.75 362.81 96.65 359.08 103.75 355.00 C 110.85 350.92 116.58 348.17 128.12 341.62 C 139.67 335.08 165.35 320.25 173.00 315.75 C 180.65 311.25 173.85 316.56 174.00 314.62 C 174.15 312.69 173.96 305.94 173.88 304.12 Z" id="s-5-f-1"/>
<path d="M 125.62 321.00 C 125.42 317.38 126.25 320.42 124.50 321.00 C 122.75 321.58 117.15 323.90 115.12 324.50 C 113.10 325.10 113.46 324.31 112.38 324.62 C 111.29 324.94 110.50 325.71 108.62 326.38 C 106.75 327.04 102.65 328.08 101.12 328.62 C 99.60 329.17 100.50 329.29 99.50 329.62 C 98.50 329.96 95.94 330.33 95.12 330.62 C 94.31 330.92 95.12 331.06 94.62 331.38 C 94.12 331.69 99.00 330.27 92.12 332.50 C 85.25 334.73 61.69 342.25 53.38 344.75 C 45.06 347.25 45.79 346.79 42.25 347.50 C 38.71 348.21 34.10 348.60 32.12 349.00 C 30.15 349.40 30.75 349.60 30.38 349.88 C 30.00 350.15 29.92 350.04 29.88 350.62 C 29.83 351.21 29.77 352.29 30.12 353.38 C 30.48 354.46 31.06 355.69 32.00 357.12 C 32.94 358.56 34.29 360.38 35.75 362.00 C 37.21 363.62 38.81 365.25 40.75 366.88 C 42.69 368.50 45.44 370.46 47.38 371.75 C 49.31 373.04 50.69 373.79 52.38 374.62 C 54.06 375.46 56.04 376.23 57.50 376.75 C 58.96 377.27 59.56 377.60 61.12 377.75 C 62.69 377.90 65.02 378.10 66.88 377.62 C 68.73 377.15 69.15 376.79 72.25 374.88 C 75.35 372.96 80.25 369.44 85.50 366.12 C 90.75 362.81 97.04 358.90 103.75 355.00 C 110.46 351.10 122.10 348.42 125.75 342.75 C 129.40 337.08 125.83 324.62 125.62 321.00 Z" id="s-5-f-2"/>
<path d="M 77.75 370.88 C 78.69 366.27 77.92 352.54 77.88 347.25 C 77.83 341.96 77.65 340.81 77.50 339.12 C 77.35 337.44 81.62 336.02 77.00 337.12 C 72.38 338.23 55.65 344.00 49.75 345.75 C 43.85 347.50 44.56 347.08 41.62 347.62 C 38.69 348.17 34.00 348.62 32.12 349.00 C 30.25 349.38 30.75 349.60 30.38 349.88 C 30.00 350.15 29.94 350.12 29.88 350.62 C 29.81 351.12 29.81 352.08 30.00 352.88 C 30.19 353.67 30.04 353.85 31.00 355.38 C 31.96 356.90 33.60 359.69 35.75 362.00 C 37.90 364.31 41.94 367.62 43.88 369.25 C 45.81 370.88 45.54 370.67 47.38 371.75 C 49.21 372.83 52.58 374.75 54.88 375.75 C 57.17 376.75 59.19 377.42 61.12 377.75 C 63.06 378.08 64.65 378.23 66.50 377.75 C 68.35 377.27 70.38 376.02 72.25 374.88 C 74.12 373.73 76.81 375.48 77.75 370.88 Z" id="s-5-f-3"/>
</g>
<g id="s-6" clip-path="url(#c-s-6)">
<use href="#s-6-f-0"/>
<path d="M 293.38 62.25 C 290.31 60.96 288.60 60.52 286.75 60.12 C 284.90 59.73 283.29 59.73 282.25 59.88 C 281.21 60.02 280.88 60.67 280.50 61.00 C 280.12 61.33 280.29 58.83 280.00 61.88 C 279.71 64.92 279.29 73.31 278.75 79.25 C 278.21 85.19 277.44 92.29 276.75 97.50 C 276.06 102.71 275.81 104.85 274.62 110.50 C 273.44 116.15 271.98 123.62 269.62 131.38 C 267.27 139.12 263.83 148.40 260.50 157.00 C 257.17 165.60 253.00 175.31 249.62 183.00 C 246.25 190.69 241.77 199.65 240.25 203.12 C 238.73 206.60 237.46 203.75 240.50 203.88 C 243.54 204.00 253.94 206.12 258.50 203.88 C 263.06 201.62 264.65 195.75 267.88 190.38 C 271.10 185.00 274.92 177.54 277.88 171.62 C 280.83 165.71 282.94 161.15 285.62 154.88 C 288.31 148.60 289.00 145.10 294.00 134.00 C 299.00 122.90 311.83 96.56 315.62 88.25 C 319.42 79.94 316.56 85.62 316.75 84.12 C 316.94 82.62 317.19 80.73 316.75 79.25 C 316.31 77.77 315.21 76.52 314.12 75.25 C 313.04 73.98 311.75 72.85 310.25 71.62 C 308.75 70.40 307.94 69.44 305.12 67.88 C 302.31 66.31 296.44 63.54 293.38 62.25 Z" id="s-6-f-1"/>
<path d="M 286.75 60.12 C 284.90 59.73 283.29 59.73 282.25 59.88 C 281.21 60.02 280.88 60.67 280.50 61.00 C 280.12 61.33 280.46 57.17 280.00 61.88 C 279.54 66.58 278.62 81.25 277.75 89.25 C 276.88 97.25 276.10 102.85 274.75 109.88 C 273.40 116.90 271.15 125.77 269.62 131.38 C 268.10 136.98 267.06 139.58 265.62 143.50 C 264.19 147.42 261.67 152.79 261.00 154.88 C 260.33 156.96 257.88 155.81 261.62 156.00 C 265.38 156.19 279.52 156.15 283.50 156.00 C 287.48 155.85 283.75 158.79 285.50 155.12 C 287.25 151.46 292.46 137.67 294.00 134.00 C 295.54 130.33 293.21 136.50 294.75 133.12 C 296.29 129.75 299.94 120.79 303.25 113.75 C 306.56 106.71 312.40 95.67 314.62 90.88 C 316.85 86.08 316.27 86.94 316.62 85.00 C 316.98 83.06 317.17 80.88 316.75 79.25 C 316.33 77.62 315.21 76.52 314.12 75.25 C 313.04 73.98 311.75 72.85 310.25 71.62 C 308.75 70.40 307.94 69.44 305.12 67.88 C 302.31 66.31 296.44 63.54 293.38 62.25 C 290.31 60.96 288.60 60.52 286.75 60.12 Z" id="s-6-f-2"/>
<path d="M 281.25 60.38 C 280.88 60.71 280.58 57.06 280.00 61.88 C 279.42 66.69 278.56 81.60 277.75 89.25 C 276.94 96.90 270.50 104.62 275.12 107.75 C 279.75 110.88 300.29 108.02 305.50 108.00 C 310.71 107.98 304.69 110.92 306.38 107.62 C 308.06 104.33 313.88 92.38 315.62 88.25 C 317.38 84.12 316.69 84.38 316.88 82.88 C 317.06 81.38 316.92 80.15 316.75 79.25 C 316.58 78.35 316.31 78.17 315.88 77.50 C 315.44 76.83 315.25 76.38 314.12 75.25 C 313.00 74.12 310.62 71.98 309.12 70.75 C 307.62 69.52 307.75 69.29 305.12 67.88 C 302.50 66.46 296.44 63.54 293.38 62.25 C 290.31 60.96 288.60 60.52 286.75 60.12 C 284.90 59.73 283.17 59.83 282.25 59.88 C 281.33 59.92 281.62 60.04 281.25 60.38 Z" id="s-6-f-3"/>
</g>
<g id="s-7" clip-path="url(#c-s-7)">
<use href="#s-7-f-0"/>
<path d="M 416.88 144.38 C 416.44 140.50 415.83 143.67 414.25 143.25 C 412.67 142.83 410.04 141.90 407.38 141.88 C 404.71 141.85 402.90 142.27 398.25 143.12 C 393.60 143.98 388.12 145.06 379.50 147.00 C 370.88 148.94 362.88 151.23 346.50 154.75 C 330.12 158.27 292.54 165.77 281.25 168.12 C 269.96 170.48 279.33 168.60 278.75 168.88 C 278.17 169.15 278.79 167.83 277.75 169.75 C 276.71 171.67 272.58 178.38 272.50 180.38 C 272.42 182.38 274.65 181.33 277.25 181.75 C 279.85 182.17 283.50 182.71 288.12 182.88 C 292.75 183.04 298.50 183.08 305.00 182.75 C 311.50 182.42 316.23 182.31 327.12 180.88 C 338.02 179.44 358.12 175.83 370.38 174.12 C 382.62 172.42 393.94 171.52 400.62 170.62 C 407.31 169.73 407.79 169.44 410.50 168.75 C 413.21 168.06 415.81 170.56 416.88 166.50 C 417.94 162.44 417.31 148.25 416.88 144.38 Z" id="s-7-f-1"/>
<path d="M 368.75 150.12 C 368.31 146.15 369.96 149.35 366.25 150.12 C 362.54 150.90 361.08 151.62 346.50 154.75 C 331.92 157.88 290.21 166.38 278.75 168.88 C 267.29 171.38 278.79 167.83 277.75 169.75 C 276.71 171.67 272.58 178.38 272.50 180.38 C 272.42 182.38 275.44 181.38 277.25 181.75 C 279.06 182.12 278.40 182.48 283.38 182.62 C 288.35 182.77 299.98 182.90 307.12 182.62 C 314.27 182.35 318.33 182.04 326.25 181.00 C 334.17 179.96 347.60 177.44 354.62 176.38 C 361.65 175.31 366.00 175.02 368.38 174.62 C 370.75 174.23 368.81 178.08 368.88 174.00 C 368.94 169.92 369.19 154.10 368.75 150.12 Z" id="s-7-f-2"/>
<path d="M 320.50 161.38 C 320.33 158.17 326.96 159.00 320.00 160.25 C 313.04 161.50 285.79 167.29 278.75 168.88 C 271.71 170.46 278.79 167.83 277.75 169.75 C 276.71 171.67 272.58 178.38 272.50 180.38 C 272.42 182.38 274.65 181.33 277.25 181.75 C 279.85 182.17 283.50 182.71 288.12 182.88 C 292.75 183.04 299.60 182.98 305.00 182.75 C 310.40 182.52 317.83 182.04 320.50 181.50 C 323.17 180.96 321.00 182.85 321.00 179.50 C 321.00 176.15 320.67 164.58 320.50 161.38 Z" id="s-7-f-3"/>
</g>
<g id="s-8" clip-path="url(#c-s-8)">
<use href="#s-8-f-0"/>
<path d="M 455.00 247.00 C 454.88 243.23 457.23 247.19 454.25 245.88 C 451.27 244.56 440.77 240.44 437.12 239.12 C 433.48 237.81 433.88 238.19 432.38 238.00 C 430.88 237.81 433.44 237.04 428.12 238.00 C 422.81 238.96 412.69 241.62 400.50 243.75 C 388.31 245.88 363.25 249.56 355.00 250.75 C 346.75 251.94 359.46 249.67 351.00 250.88 C 342.54 252.08 317.10 255.96 304.25 258.00 C 291.40 260.04 283.56 261.33 273.88 263.12 C 264.19 264.92 253.67 267.50 246.12 268.75 C 238.58 270.00 233.15 270.25 228.62 270.62 C 224.10 271.00 221.02 270.71 219.00 271.00 C 216.98 271.29 217.15 271.83 216.50 272.38 C 215.85 272.92 215.40 273.42 215.12 274.25 C 214.85 275.08 214.40 276.23 214.88 277.38 C 215.35 278.52 216.75 279.90 218.00 281.12 C 219.25 282.35 219.58 282.83 222.38 284.75 C 225.17 286.67 231.21 290.62 234.75 292.62 C 238.29 294.62 241.54 295.90 243.62 296.75 C 245.71 297.60 245.98 297.58 247.25 297.75 C 248.52 297.92 248.52 298.71 251.25 297.75 C 253.98 296.79 259.48 293.77 263.62 292.00 C 267.77 290.23 269.38 289.29 276.12 287.12 C 282.88 284.96 296.58 281.02 304.12 279.00 C 311.67 276.98 314.46 276.19 321.38 275.00 C 328.29 273.81 338.79 272.88 345.62 271.88 C 352.46 270.88 355.33 269.81 362.38 269.00 C 369.42 268.19 379.67 267.31 387.88 267.00 C 396.08 266.69 402.38 266.83 411.62 267.12 C 420.88 267.42 436.25 268.46 443.38 268.75 C 450.50 269.04 452.44 268.92 454.38 268.88 C 456.31 268.83 454.90 272.15 455.00 268.50 C 455.10 264.85 455.12 250.77 455.00 247.00 Z" id="s-8-f-1"/>
<path d="M 406.88 242.88 C 406.69 239.00 411.06 241.69 405.88 242.50 C 400.69 243.31 388.40 245.85 375.75 247.75 C 363.10 249.65 339.06 252.56 330.00 253.88 C 320.94 255.19 325.67 254.94 321.38 255.62 C 317.08 256.31 312.17 256.75 304.25 258.00 C 296.33 259.25 283.56 261.33 273.88 263.12 C 264.19 264.92 253.67 267.50 246.12 268.75 C 238.58 270.00 233.15 270.25 228.62 270.62 C 224.10 271.00 221.02 270.71 219.00 271.00 C 216.98 271.29 217.15 271.83 216.50 272.38 C 215.85 272.92 215.40 273.42 215.12 274.25 C 214.85 275.08 214.40 276.23 214.88 277.38 C 215.35 278.52 216.75 279.90 218.00 281.12 C 219.25 282.35 219.58 282.83 222.38 284.75 C 225.17 286.67 231.21 290.62 234.75 292.62 C 238.29 294.62 241.54 295.90 243.62 296.75 C 245.71 297.60 245.98 297.58 247.25 297.75 C 248.52 297.92 248.52 298.71 251.25 297.75 C 253.98 296.79 259.48 293.77 263.62 292.00 C 267.77 290.23 271.33 288.77 276.12 287.12 C 280.92 285.48 284.83 284.15 292.38 282.12 C 299.92 280.10 316.00 276.21 321.38 275.00 C 326.75 273.79 317.79 275.88 324.62 274.88 C 331.46 273.88 352.67 270.29 362.38 269.00 C 372.08 267.71 375.52 267.46 382.88 267.12 C 390.23 266.79 402.48 267.23 406.50 267.00 C 410.52 266.77 406.94 269.77 407.00 265.75 C 407.06 261.73 407.06 246.75 406.88 242.88 Z" id="s-8-f-2"/>
<path d="M 358.88 250.62 C 358.62 247.67 358.15 250.10 357.50 250.12 C 356.85 250.15 356.08 250.62 355.00 250.75 C 353.92 250.88 359.46 249.67 351.00 250.88 C 342.54 252.08 317.88 255.81 304.25 258.00 C 290.62 260.19 277.04 262.54 269.25 264.00 C 261.46 265.46 261.35 265.96 257.50 266.75 C 253.65 267.54 250.94 268.10 246.12 268.75 C 241.31 269.40 233.15 270.25 228.62 270.62 C 224.10 271.00 221.02 270.71 219.00 271.00 C 216.98 271.29 217.15 271.83 216.50 272.38 C 215.85 272.92 215.40 273.42 215.12 274.25 C 214.85 275.08 214.40 276.23 214.88 277.38 C 215.35 278.52 216.75 279.90 218.00 281.12 C 219.25 282.35 219.58 282.83 222.38 284.75 C 225.17 286.67 231.21 290.62 234.75 292.62 C 238.29 294.62 241.54 295.90 243.62 296.75 C 245.71 297.60 246.15 297.56 247.25 297.75 C 248.35 297.94 249.06 298.06 250.25 297.88 C 251.44 297.69 252.15 297.60 254.38 296.62 C 256.60 295.65 260.00 293.58 263.62 292.00 C 267.25 290.42 269.38 289.29 276.12 287.12 C 282.88 284.96 296.58 281.02 304.12 279.00 C 311.67 276.98 317.96 275.69 321.38 275.00 C 324.79 274.31 318.46 275.75 324.62 274.88 C 330.79 274.00 352.65 270.92 358.38 269.75 C 364.10 268.58 358.92 271.06 359.00 267.88 C 359.08 264.69 359.12 253.58 358.88 250.62 Z" id="s-8-f-3"/>
<path d="M 311.00 258.88 C 310.96 255.88 310.92 257.92 310.75 257.62 C 310.58 257.33 316.15 256.21 310.00 257.12 C 303.85 258.04 284.52 261.19 273.88 263.12 C 263.23 265.06 253.67 267.50 246.12 268.75 C 238.58 270.00 233.15 270.25 228.62 270.62 C 224.10 271.00 221.02 270.71 219.00 271.00 C 216.98 271.29 217.15 271.83 216.50 272.38 C 215.85 272.92 215.40 273.42 215.12 274.25 C 214.85 275.08 214.40 276.23 214.88 277.38 C 215.35 278.52 216.75 279.90 218.00 281.12 C 219.25 282.35 219.58 282.83 222.38 284.75 C 225.17 286.67 231.21 290.62 234.75 292.62 C 238.29 294.62 241.67 295.92 243.62 296.75 C 245.58 297.58 245.38 297.44 246.50 297.62 C 247.62 297.81 249.06 298.04 250.38 297.88 C 251.69 297.71 252.17 297.60 254.38 296.62 C 256.58 295.65 260.00 293.58 263.62 292.00 C 267.25 290.42 271.33 288.77 276.12 287.12 C 280.92 285.48 286.67 283.69 292.38 282.12 C 298.08 280.56 307.27 278.83 310.38 277.75 C 313.48 276.67 310.90 278.77 311.00 275.62 C 311.10 272.48 311.04 261.88 311.00 258.88 Z" id="s-8-f-4"/>
<path d="M 262.88 292.00 C 262.98 287.81 263.06 272.00 263.00 267.62 C 262.94 263.25 266.62 265.40 262.50 265.75 C 258.38 266.10 245.50 268.88 238.25 269.75 C 231.00 270.62 222.62 270.56 219.00 271.00 C 215.38 271.44 217.17 271.79 216.50 272.38 C 215.83 272.96 215.23 273.54 215.00 274.50 C 214.77 275.46 214.46 276.88 215.12 278.12 C 215.79 279.38 216.77 280.21 219.00 282.00 C 221.23 283.79 224.85 286.58 228.50 288.88 C 232.15 291.17 237.88 294.29 240.88 295.75 C 243.88 297.21 244.92 297.27 246.50 297.62 C 248.08 297.98 248.75 298.19 250.38 297.88 C 252.00 297.56 254.25 296.60 256.25 295.75 C 258.25 294.90 261.27 293.38 262.38 292.75 C 263.48 292.12 262.77 296.19 262.88 292.00 Z" id="s-8-f-5"/>
</g>
<g id="s-9" clip-path="url(#c-s-9)">
<use href="#s-9-f-0"/>
<path d="M 351.25 176.50 C 348.96 175.12 348.44 176.48 347.50 176.62 C 346.56 176.77 346.67 177.21 345.62 177.38 C 344.58 177.54 342.44 177.46 341.25 177.62 C 340.06 177.79 339.75 178.19 338.50 178.38 C 337.25 178.56 334.73 178.58 333.75 178.75 C 332.77 178.92 333.54 179.23 332.62 179.38 C 331.71 179.52 329.54 179.40 328.25 179.62 C 326.96 179.85 325.42 180.40 324.88 180.75 C 324.33 181.10 324.50 180.69 325.00 181.75 C 325.50 182.81 327.25 185.67 327.88 187.12 C 328.50 188.58 328.44 188.46 328.75 190.50 C 329.06 192.54 329.60 195.08 329.75 199.38 C 329.90 203.67 329.79 211.21 329.62 216.25 C 329.46 221.29 329.38 223.27 328.75 229.62 C 328.12 235.98 326.44 249.98 325.88 254.38 C 325.31 258.77 325.58 255.62 325.38 256.00 C 325.17 256.38 324.79 255.92 324.62 256.62 C 324.46 257.33 324.54 259.42 324.38 260.25 C 324.21 261.08 323.79 260.79 323.62 261.62 C 323.46 262.46 323.54 264.40 323.38 265.25 C 323.21 266.10 322.79 265.92 322.62 266.75 C 322.46 267.58 322.54 269.42 322.38 270.25 C 322.21 271.08 321.79 270.31 321.62 271.75 C 321.46 273.19 321.79 276.50 321.38 278.88 C 320.96 281.25 319.90 283.02 319.12 286.00 C 318.35 288.98 318.02 292.12 316.75 296.75 C 315.48 301.38 312.98 309.31 311.50 313.75 C 310.02 318.19 309.33 319.85 307.88 323.38 C 306.42 326.90 304.60 331.02 302.75 334.88 C 300.90 338.73 299.60 341.50 296.75 346.50 C 293.90 351.50 289.67 358.90 285.62 364.88 C 281.58 370.85 276.19 377.83 272.50 382.38 C 268.81 386.92 266.48 389.06 263.50 392.12 C 260.52 395.19 259.25 396.77 254.62 400.75 C 250.00 404.73 238.94 413.35 235.75 416.00 C 232.56 418.65 235.48 416.48 235.50 416.62 C 235.52 416.77 231.08 416.85 235.88 416.88 C 240.67 416.90 257.90 417.60 264.25 416.75 C 270.60 415.90 270.67 413.71 274.00 411.75 C 277.33 409.79 281.33 407.06 284.25 405.00 C 287.17 402.94 289.06 401.58 291.50 399.38 C 293.94 397.17 296.60 394.29 298.88 391.75 C 301.15 389.21 302.65 387.50 305.12 384.12 C 307.60 380.75 310.81 376.27 313.75 371.50 C 316.69 366.73 319.77 361.50 322.75 355.50 C 325.73 349.50 328.98 342.06 331.62 335.50 C 334.27 328.94 336.44 322.96 338.62 316.12 C 340.81 309.29 342.83 302.19 344.75 294.50 C 346.67 286.81 349.06 274.23 350.12 270.00 C 351.19 265.77 350.94 269.75 351.12 269.12 C 351.31 268.50 351.08 267.10 351.25 266.25 C 351.42 265.40 351.94 264.96 352.12 264.00 C 352.31 263.04 352.21 261.33 352.38 260.50 C 352.54 259.67 352.96 259.83 353.12 259.00 C 353.29 258.17 353.21 256.27 353.38 255.50 C 353.54 254.73 354.02 255.33 354.12 254.38 C 354.23 253.42 353.73 252.46 354.00 249.75 C 354.27 247.04 355.08 243.73 355.75 238.12 C 356.42 232.52 357.29 221.38 358.00 216.12 C 358.71 210.88 359.23 209.60 360.00 206.62 C 360.77 203.65 361.98 201.02 362.62 198.25 C 363.27 195.48 363.88 191.94 363.88 190.00 C 363.88 188.06 363.06 187.48 362.62 186.62 C 362.19 185.77 363.15 186.56 361.25 184.88 C 359.35 183.19 353.54 177.88 351.25 176.50 Z" id="s-9-f-1"/>
<path d="M 351.25 176.50 C 348.96 175.12 348.44 176.48 347.50 176.62 C 346.56 176.77 346.67 177.21 345.62 177.38 C 344.58 177.54 342.44 177.46 341.25 177.62 C 340.06 177.79 339.75 178.19 338.50 178.38 C 337.25 178.56 334.73 178.58 333.75 178.75 C 332.77 178.92 333.54 179.23 332.62 179.38 C 331.71 179.52 329.54 179.40 328.25 179.62 C 326.96 179.85 324.94 179.50 324.88 180.75 C 324.81 182.00 327.12 184.81 327.88 187.12 C 328.62 189.44 329.06 192.60 329.38 194.62 C 329.69 196.65 329.71 195.65 329.75 199.25 C 329.79 202.85 329.79 211.19 329.62 216.25 C 329.46 221.31 329.38 223.27 328.75 229.62 C 328.12 235.98 326.44 249.98 325.88 254.38 C 325.31 258.77 325.58 255.62 325.38 256.00 C 325.17 256.38 324.79 255.92 324.62 256.62 C 324.46 257.33 324.54 259.42 324.38 260.25 C 324.21 261.08 323.79 260.79 323.62 261.62 C 323.46 262.46 323.54 264.40 323.38 265.25 C 323.21 266.10 322.79 265.92 322.62 266.75 C 322.46 267.58 322.54 269.42 322.38 270.25 C 322.21 271.08 321.79 270.31 321.62 271.75 C 321.46 273.19 321.65 277.06 321.38 278.88 C 321.10 280.69 321.10 278.46 320.00 282.62 C 318.90 286.79 316.65 297.38 314.75 303.88 C 312.85 310.38 311.12 315.44 308.62 321.62 C 306.12 327.81 302.06 336.27 299.75 341.00 C 297.44 345.73 297.10 346.02 294.75 350.00 C 292.40 353.98 287.58 361.81 285.62 364.88 C 283.67 367.94 283.38 367.71 283.00 368.38 C 282.62 369.04 278.10 368.77 283.38 368.88 C 288.65 368.98 309.29 369.06 314.62 369.00 C 319.96 368.94 314.35 370.10 315.38 368.50 C 316.40 366.90 318.85 362.96 320.75 359.38 C 322.65 355.79 324.12 353.17 326.75 347.00 C 329.38 340.83 333.54 330.96 336.50 322.38 C 339.46 313.79 342.23 304.23 344.50 295.50 C 346.77 286.77 349.02 274.40 350.12 270.00 C 351.23 265.60 350.94 269.75 351.12 269.12 C 351.31 268.50 351.08 267.10 351.25 266.25 C 351.42 265.40 351.94 264.96 352.12 264.00 C 352.31 263.04 352.21 261.33 352.38 260.50 C 352.54 259.67 352.96 259.83 353.12 259.00 C 353.29 258.17 353.21 256.27 353.38 255.50 C 353.54 254.73 354.02 255.33 354.12 254.38 C 354.23 253.42 353.73 252.46 354.00 249.75 C 354.27 247.04 355.08 243.73 355.75 238.12 C 356.42 232.52 357.46 220.71 358.00 216.12 C 358.54 211.54 358.40 212.94 359.00 210.62 C 359.60 208.31 360.81 205.40 361.62 202.25 C 362.44 199.10 363.54 194.02 363.88 191.75 C 364.21 189.48 364.06 189.77 363.62 188.62 C 363.19 187.48 363.31 186.90 361.25 184.88 C 359.19 182.85 353.54 177.88 351.25 176.50 Z" id="s-9-f-2"/>
<path d="M 351.25 176.50 C 348.96 175.12 348.44 176.48 347.50 176.62 C 346.56 176.77 346.67 177.21 345.62 177.38 C 344.58 177.54 342.44 177.46 341.25 177.62 C 340.06 177.79 339.75 178.19 338.50 178.38 C 337.25 178.56 334.73 178.58 333.75 178.75 C 332.77 178.92 333.54 179.23 332.62 179.38 C 331.71 179.52 329.54 179.40 328.25 179.62 C 326.96 179.85 324.94 179.50 324.88 180.75 C 324.81 182.00 327.23 185.50 327.88 187.12 C 328.52 188.75 328.44 188.48 328.75 190.50 C 329.06 192.52 329.60 194.96 329.75 199.25 C 329.90 203.54 329.98 209.19 329.62 216.25 C 329.27 223.31 328.31 235.02 327.62 241.62 C 326.94 248.23 326.00 253.38 325.50 255.88 C 325.00 258.38 324.81 255.90 324.62 256.62 C 324.44 257.35 324.54 259.42 324.38 260.25 C 324.21 261.08 323.79 260.79 323.62 261.62 C 323.46 262.46 323.54 264.40 323.38 265.25 C 323.21 266.10 322.79 265.92 322.62 266.75 C 322.46 267.58 322.54 269.42 322.38 270.25 C 322.21 271.08 321.79 270.31 321.62 271.75 C 321.46 273.19 321.65 277.06 321.38 278.88 C 321.10 280.69 321.10 278.46 320.00 282.62 C 318.90 286.79 316.58 297.69 314.75 303.88 C 312.92 310.06 309.69 316.98 309.00 319.75 C 308.31 322.52 306.02 320.31 310.62 320.50 C 315.23 320.69 332.10 321.17 336.62 320.88 C 341.15 320.58 336.75 321.81 337.75 318.75 C 338.75 315.69 341.12 307.92 342.62 302.50 C 344.12 297.08 345.50 291.67 346.75 286.25 C 348.00 280.83 349.40 272.85 350.12 270.00 C 350.85 267.15 350.94 269.75 351.12 269.12 C 351.31 268.50 351.08 267.10 351.25 266.25 C 351.42 265.40 351.94 264.96 352.12 264.00 C 352.31 263.04 352.21 261.33 352.38 260.50 C 352.54 259.67 352.96 259.83 353.12 259.00 C 353.29 258.17 353.21 256.27 353.38 255.50 C 353.54 254.73 354.02 255.33 354.12 254.38 C 354.23 253.42 353.73 252.46 354.00 249.75 C 354.27 247.04 355.08 243.73 355.75 238.12 C 356.42 232.52 357.46 220.71 358.00 216.12 C 358.54 211.54 358.40 212.94 359.00 210.62 C 359.60 208.31 360.81 205.40 361.62 202.25 C 362.44 199.10 363.54 194.02 363.88 191.75 C 364.21 189.48 364.06 189.77 363.62 188.62 C 363.19 187.48 363.31 186.90 361.25 184.88 C 359.19 182.85 353.54 177.88 351.25 176.50 Z" id="s-9-f-3"/>
<path d="M 351.25 176.50 C 350.31 176.21 348.44 176.48 347.50 176.62 C 346.56 176.77 346.67 177.21 345.62 177.38 C 344.58 177.54 342.44 177.46 341.25 177.62 C 340.06 177.79 339.75 178.19 338.50 178.38 C 337.25 178.56 334.73 178.58 333.75 178.75 C 332.77 178.92 333.54 179.23 332.62 179.38 C 331.71 179.52 329.54 179.40 328.25 179.62 C 326.96 179.85 325.42 180.40 324.88 180.75 C 324.33 181.10 324.50 180.69 325.00 181.75 C 325.50 182.81 327.15 184.98 327.88 187.12 C 328.60 189.27 329.06 192.60 329.38 194.62 C 329.69 196.65 329.71 195.65 329.75 199.25 C 329.79 202.85 329.79 211.19 329.62 216.25 C 329.46 221.31 329.38 223.27 328.75 229.62 C 328.12 235.98 326.44 249.98 325.88 254.38 C 325.31 258.77 325.58 255.62 325.38 256.00 C 325.17 256.38 324.79 255.92 324.62 256.62 C 324.46 257.33 324.54 259.42 324.38 260.25 C 324.21 261.08 323.79 260.79 323.62 261.62 C 323.46 262.46 323.54 264.40 323.38 265.25 C 323.21 266.10 322.79 265.92 322.62 266.75 C 322.46 267.58 322.54 269.44 322.38 270.25 C 322.21 271.06 321.69 271.15 321.62 271.62 C 321.56 272.10 317.52 272.90 322.00 273.12 C 326.48 273.35 343.88 273.12 348.50 273.00 C 353.12 272.88 349.48 272.88 349.75 272.38 C 350.02 271.88 349.90 270.54 350.12 270.00 C 350.35 269.46 350.94 269.75 351.12 269.12 C 351.31 268.50 351.08 267.10 351.25 266.25 C 351.42 265.40 351.94 264.96 352.12 264.00 C 352.31 263.04 352.21 261.33 352.38 260.50 C 352.54 259.67 352.96 259.83 353.12 259.00 C 353.29 258.17 353.21 256.27 353.38 255.50 C 353.54 254.73 354.02 255.33 354.12 254.38 C 354.23 253.42 353.73 252.46 354.00 249.75 C 354.27 247.04 355.08 243.73 355.75 238.12 C 356.42 232.52 357.29 221.38 358.00 216.12 C 358.71 210.88 359.23 209.60 360.00 206.62 C 360.77 203.65 361.98 200.77 362.62 198.25 C 363.27 195.73 363.71 193.10 363.88 191.50 C 364.04 189.90 364.00 189.65 363.62 188.62 C 363.25 187.60 362.75 186.67 361.62 185.38 C 360.50 184.08 358.29 182.04 356.88 180.88 C 355.46 179.71 354.06 179.10 353.12 178.38 C 352.19 177.65 352.19 176.79 351.25 176.50 Z" id="s-9-f-4"/>
<path d="M 351.25 176.50 C 349.06 175.23 348.44 176.48 347.50 176.62 C 346.56 176.77 346.67 177.21 345.62 177.38 C 344.58 177.54 342.44 177.46 341.25 177.62 C 340.06 177.79 339.75 178.19 338.50 178.38 C 337.25 178.56 334.73 178.58 333.75 178.75 C 332.77 178.92 333.54 179.23 332.62 179.38 C 331.71 179.52 329.54 179.40 328.25 179.62 C 326.96 179.85 325.42 180.40 324.88 180.75 C 324.33 181.10 324.50 180.69 325.00 181.75 C 325.50 182.81 327.15 184.98 327.88 187.12 C 328.60 189.27 329.06 192.60 329.38 194.62 C 329.69 196.65 329.71 195.65 329.75 199.25 C 329.79 202.85 329.75 212.40 329.62 216.25 C 329.50 220.10 329.04 220.94 329.00 222.38 C 328.96 223.81 324.75 224.48 329.38 224.88 C 334.00 225.27 351.81 227.12 356.75 224.75 C 361.69 222.38 358.02 215.04 359.00 210.62 C 359.98 206.21 361.81 201.69 362.62 198.25 C 363.44 194.81 363.85 191.92 363.88 190.00 C 363.90 188.08 363.29 187.71 362.75 186.75 C 362.21 185.79 362.54 185.96 360.62 184.25 C 358.71 182.54 353.44 177.77 351.25 176.50 Z" id="s-9-f-5"/>
</g>
<g id="s-10" clip-path="url(#c-s-10)">
<use href="#s-10-f-0"/>
<path d="M 367.12 304.00 C 366.50 304.54 366.71 306.23 367.00 307.38 C 367.29 308.52 366.46 307.88 368.88 310.88 C 371.29 313.88 377.88 320.94 381.50 325.38 C 385.12 329.81 385.58 330.19 390.62 337.50 C 395.67 344.81 407.17 362.15 411.75 369.25 C 416.33 376.35 415.90 376.60 418.12 380.12 C 420.35 383.65 422.85 387.25 425.12 390.38 C 427.40 393.50 430.44 397.29 431.75 398.88 C 433.06 400.46 428.54 399.73 433.00 399.88 C 437.46 400.02 454.19 400.04 458.50 399.75 C 462.81 399.46 458.85 400.21 458.88 398.12 C 458.90 396.04 458.83 390.23 458.62 387.25 C 458.42 384.27 458.27 383.19 457.62 380.25 C 456.98 377.31 455.54 372.23 454.75 369.62 C 453.96 367.02 453.54 366.12 452.88 364.62 C 452.21 363.12 452.69 363.29 450.75 360.62 C 448.81 357.96 444.40 352.15 441.25 348.62 C 438.10 345.10 435.33 342.58 431.88 339.50 C 428.42 336.42 424.75 333.23 420.50 330.12 C 416.25 327.02 410.73 323.56 406.38 320.88 C 402.02 318.19 398.67 316.29 394.38 314.00 C 390.08 311.71 384.56 308.77 380.62 307.12 C 376.69 305.48 373.00 304.65 370.75 304.12 C 368.50 303.60 367.75 303.46 367.12 304.00 Z" id="s-10-f-1"/>
<path d="M 367.00 304.12 C 366.38 304.67 366.69 306.25 367.00 307.38 C 367.31 308.50 366.46 307.88 368.88 310.88 C 371.29 313.88 377.88 320.94 381.50 325.38 C 385.12 329.81 387.48 333.10 390.62 337.50 C 393.77 341.90 391.56 349.38 400.38 351.75 C 409.19 354.12 436.40 351.94 443.50 351.75 C 450.60 351.56 443.81 351.60 443.00 350.62 C 442.19 349.65 440.65 347.88 438.62 345.88 C 436.60 343.88 433.90 341.25 430.88 338.62 C 427.85 336.00 423.77 332.58 420.50 330.12 C 417.23 327.67 415.60 326.56 411.25 323.88 C 406.90 321.19 399.48 316.79 394.38 314.00 C 389.27 311.21 384.56 308.77 380.62 307.12 C 376.69 305.48 373.02 304.62 370.75 304.12 C 368.48 303.62 367.62 303.58 367.00 304.12 Z" id="s-10-f-2"/>
</g>
</svg>