<?xml version="1.0" encoding="UTF-8"?>
<svg xmlns="http://www.w3.org/2000/svg" viewBox="0 0 500 500">
<defs>
<path d="M 236.00 46.12 C 233.65 44.48 228.94 42.02 227.00 41.00 C 225.06 39.98 225.46 40.17 224.38 40.00 C 223.29 39.83 221.65 39.69 220.50 40.00 C 219.35 40.31 218.42 40.88 217.50 41.88 C 216.58 42.88 215.79 43.85 215.00 46.00 C 214.21 48.15 213.96 51.38 212.75 54.75 C 211.54 58.12 209.29 63.02 207.75 66.25 C 206.21 69.48 205.69 70.58 203.50 74.12 C 201.31 77.67 197.62 83.46 194.62 87.50 C 191.62 91.54 189.04 94.54 185.50 98.38 C 181.96 102.21 176.83 107.44 173.38 110.50 C 169.92 113.56 167.27 115.17 164.75 116.75 C 162.23 118.33 159.88 118.98 158.25 120.00 C 156.62 121.02 155.71 122.12 155.00 122.88 C 154.29 123.62 154.17 123.58 154.00 124.50 C 153.83 125.42 153.83 127.17 154.00 128.38 C 154.17 129.58 154.00 129.60 155.00 131.75 C 156.00 133.90 158.46 138.92 160.00 141.25 C 161.54 143.58 163.08 144.81 164.25 145.75 C 165.42 146.69 165.65 146.75 167.00 146.88 C 168.35 147.00 170.40 146.88 172.38 146.50 C 174.35 146.12 176.75 145.35 178.88 144.62 C 181.00 143.90 182.23 143.00 185.12 142.12 C 188.02 141.25 191.75 140.25 196.25 139.38 C 200.75 138.50 207.48 137.75 212.12 136.88 C 216.77 136.00 215.85 135.62 224.12 134.12 C 232.40 132.62 255.10 129.33 261.75 127.88 C 268.40 126.42 262.88 126.90 264.00 125.38 C 265.12 123.85 267.79 119.98 268.50 118.75 C 269.21 117.52 270.79 118.06 268.25 118.00 C 265.71 117.94 266.15 117.42 253.25 118.38 C 240.35 119.33 201.90 122.90 190.88 123.75 C 179.85 124.60 188.10 123.96 187.12 123.50 C 186.15 123.04 185.35 121.58 185.00 121.00 C 184.65 120.42 184.85 120.44 185.00 120.00 C 185.15 119.56 185.31 119.12 185.88 118.38 C 186.44 117.62 184.46 119.35 188.38 115.50 C 192.29 111.65 203.71 100.40 209.38 95.25 C 215.04 90.10 218.69 87.88 222.38 84.62 C 226.06 81.38 228.48 78.52 231.50 75.75 C 234.52 72.98 238.27 70.06 240.50 68.00 C 242.73 65.94 244.00 64.44 244.88 63.38 C 245.75 62.31 245.60 62.42 245.75 61.62 C 245.90 60.83 246.08 59.83 245.75 58.62 C 245.42 57.42 244.52 55.67 243.75 54.38 C 242.98 53.08 242.42 52.25 241.12 50.88 C 239.83 49.50 238.35 47.77 236.00 46.12 Z" id="s-0-f-0"/>
<clipPath id="c-s-0"><use href="#s-0-f-0"/></clipPath>
<path d="M 336.50 76.25 C 335.79 75.31 334.58 74.12 333.50 73.25 C 332.42 72.38 332.40 72.19 330.00 71.00 C 327.60 69.81 322.31 67.44 319.12 66.12 C 315.94 64.81 313.12 63.65 310.88 63.12 C 308.62 62.60 307.77 62.69 305.62 63.00 C 303.48 63.31 303.60 63.21 298.00 65.00 C 292.40 66.79 278.81 71.62 272.00 73.75 C 265.19 75.88 262.90 76.42 257.12 77.75 C 251.35 79.08 242.77 80.77 237.38 81.75 C 231.98 82.73 227.15 83.40 224.75 83.62 C 222.35 83.85 225.31 81.60 223.00 83.12 C 220.69 84.65 212.81 91.10 210.88 92.75 C 208.94 94.40 211.42 92.92 211.38 93.00 C 211.33 93.08 210.88 93.02 210.62 93.25 C 210.38 93.48 209.75 94.29 209.88 94.38 C 210.00 94.46 210.85 93.69 211.38 93.75 C 211.90 93.81 212.04 94.44 213.00 94.75 C 213.96 95.06 212.54 95.46 217.12 95.62 C 221.71 95.79 234.04 95.92 240.50 95.75 C 246.96 95.58 252.60 94.94 255.88 94.62 C 259.15 94.31 258.46 94.02 260.12 93.88 C 261.79 93.73 264.04 93.92 265.88 93.75 C 267.71 93.58 268.92 93.06 271.12 92.88 C 273.33 92.69 277.31 92.77 279.12 92.62 C 280.94 92.48 281.02 92.08 282.00 92.00 C 282.98 91.92 284.25 91.92 285.00 92.12 C 285.75 92.33 286.23 92.94 286.50 93.25 C 286.77 93.56 288.58 91.17 286.62 94.00 C 284.67 96.83 278.08 105.92 274.75 110.25 C 271.42 114.58 269.04 116.75 266.62 120.00 C 264.21 123.25 265.67 122.98 260.25 129.75 C 254.83 136.52 238.40 155.42 234.12 160.62 C 229.85 165.83 233.73 160.96 234.62 161.00 C 235.52 161.04 236.88 161.08 239.50 160.88 C 242.12 160.67 244.92 163.12 250.38 159.75 C 255.83 156.38 265.15 147.19 272.25 140.62 C 279.35 134.06 286.98 126.10 293.00 120.38 C 299.02 114.65 302.98 110.94 308.38 106.25 C 313.77 101.56 321.71 95.02 325.38 92.25 C 329.04 89.48 328.88 90.54 330.38 89.62 C 331.88 88.71 333.33 87.60 334.38 86.75 C 335.42 85.90 336.06 85.25 336.62 84.50 C 337.19 83.75 337.56 83.19 337.75 82.25 C 337.94 81.31 337.96 79.88 337.75 78.88 C 337.54 77.88 337.21 77.19 336.50 76.25 Z" id="s-1-f-0"/>
<clipPath id="c-s-1"><use href="#s-1-f-0"/></clipPath>
<path d="M 407.88 165.88 C 407.52 164.85 406.65 162.65 405.75 161.38 C 404.85 160.10 403.77 159.29 402.50 158.25 C 401.23 157.21 399.79 156.17 398.12 155.12 C 396.46 154.08 396.62 153.67 392.50 152.00 C 388.38 150.33 377.46 146.29 373.38 145.12 C 369.29 143.96 373.17 144.25 368.00 145.00 C 362.83 145.75 350.10 148.33 342.38 149.62 C 334.65 150.92 332.48 151.40 321.62 152.75 C 310.77 154.10 288.85 156.58 277.25 157.75 C 265.65 158.92 258.06 159.44 252.00 159.75 C 245.94 160.06 243.98 159.44 240.88 159.62 C 237.77 159.81 243.83 159.79 233.38 160.88 C 222.92 161.96 190.71 164.81 178.12 166.12 C 165.54 167.44 163.25 168.15 157.88 168.75 C 152.50 169.35 156.52 169.21 145.88 169.75 C 135.23 170.29 103.62 171.31 94.00 172.00 C 84.38 172.69 89.44 173.21 88.12 173.88 C 86.81 174.54 86.50 175.25 86.12 176.00 C 85.75 176.75 85.88 177.81 85.88 178.38 C 85.88 178.94 85.50 178.65 86.12 179.38 C 86.75 180.10 87.17 181.23 89.62 182.75 C 92.08 184.27 97.08 186.85 100.88 188.50 C 104.67 190.15 109.58 191.75 112.38 192.62 C 115.17 193.50 116.00 193.54 117.62 193.75 C 119.25 193.96 120.08 194.04 122.12 193.88 C 124.17 193.71 123.46 194.06 129.88 192.75 C 136.29 191.44 151.75 187.79 160.62 186.00 C 169.50 184.21 174.15 183.35 183.12 182.00 C 192.10 180.65 199.69 179.23 214.50 177.88 C 229.31 176.52 256.29 174.83 272.00 173.88 C 287.71 172.92 287.81 172.50 308.75 172.12 C 329.69 171.75 381.96 171.85 397.62 171.62 C 413.29 171.40 401.33 171.10 402.75 170.75 C 404.17 170.40 405.27 170.04 406.12 169.50 C 406.98 168.96 407.58 168.10 407.88 167.50 C 408.17 166.90 408.23 166.90 407.88 165.88 Z" id="s-2-f-0"/>
<clipPath id="c-s-2"><use href="#s-2-f-0"/></clipPath>
<path d="M 256.62 174.50 C 252.06 174.31 236.38 175.38 231.25 175.75 C 226.12 176.12 226.75 176.29 225.88 176.75 C 225.00 177.21 225.52 177.21 226.00 178.50 C 226.48 179.79 227.96 182.31 228.75 184.50 C 229.54 186.69 230.06 188.27 230.75 191.62 C 231.44 194.98 232.40 200.69 232.88 204.62 C 233.35 208.56 233.48 208.60 233.62 215.25 C 233.77 221.90 233.88 235.69 233.75 244.50 C 233.62 253.31 233.19 262.79 232.88 268.12 C 232.56 273.46 232.23 274.54 231.88 276.50 C 231.52 278.46 231.35 278.81 230.75 279.88 C 230.15 280.94 229.02 282.21 228.25 282.88 C 227.48 283.54 228.12 283.88 226.12 283.88 C 224.12 283.88 221.44 283.69 216.25 282.88 C 211.06 282.06 199.31 279.67 195.00 279.00 C 190.69 278.33 191.38 278.65 190.38 278.88 C 189.38 279.10 189.23 279.67 189.00 280.38 C 188.77 281.08 188.81 282.35 189.00 283.12 C 189.19 283.90 187.85 282.83 190.12 285.00 C 192.40 287.17 198.96 292.67 202.62 296.12 C 206.29 299.58 209.17 302.58 212.12 305.75 C 215.08 308.92 217.94 312.19 220.38 315.12 C 222.81 318.06 225.25 321.60 226.75 323.38 C 228.25 325.15 228.54 325.19 229.38 325.75 C 230.21 326.31 230.69 326.58 231.75 326.75 C 232.81 326.92 234.67 326.92 235.75 326.75 C 236.83 326.58 237.25 326.35 238.25 325.75 C 239.25 325.15 240.35 324.44 241.75 323.12 C 243.15 321.81 244.96 319.96 246.62 317.88 C 248.29 315.79 250.56 312.65 251.75 310.62 C 252.94 308.60 253.08 307.77 253.75 305.75 C 254.42 303.73 255.08 302.52 255.75 298.50 C 256.42 294.48 257.40 285.25 257.75 281.62 C 258.10 278.00 257.88 281.04 257.88 276.75 C 257.88 272.46 258.04 263.19 257.75 255.88 C 257.46 248.56 256.42 240.58 256.12 232.88 C 255.83 225.17 255.85 215.83 256.00 209.62 C 256.15 203.42 256.35 200.02 257.00 195.62 C 257.65 191.23 259.44 186.02 259.88 183.25 C 260.31 180.48 259.83 180.06 259.62 179.00 C 259.42 177.94 259.12 177.62 258.62 176.88 C 258.12 176.12 261.19 174.69 256.62 174.50 Z" id="s-3-f-0"/>
<clipPath id="c-s-3"><use href="#s-3-f-0"/></clipPath>
<path d="M 139.00 203.12 C 138.83 203.54 138.85 204.15 139.00 204.62 C 139.15 205.10 137.46 203.40 139.88 206.00 C 142.29 208.60 149.35 216.17 153.50 220.25 C 157.65 224.33 161.44 227.75 164.75 230.50 C 168.06 233.25 171.06 235.38 173.38 236.75 C 175.69 238.12 176.75 238.42 178.62 238.75 C 180.50 239.08 183.19 238.92 184.62 238.75 C 186.06 238.58 186.23 238.52 187.25 237.75 C 188.27 236.98 189.83 235.79 190.75 234.12 C 191.67 232.46 192.42 230.12 192.75 227.75 C 193.08 225.38 193.12 221.98 192.75 219.88 C 192.38 217.77 191.23 216.27 190.50 215.12 C 189.77 213.98 189.23 213.69 188.38 213.00 C 187.52 212.31 187.69 212.00 185.38 211.00 C 183.06 210.00 178.98 208.33 174.50 207.00 C 170.02 205.67 162.62 203.83 158.50 203.00 C 154.38 202.17 152.62 202.19 149.75 202.00 C 146.88 201.81 142.88 201.85 141.25 201.88 C 139.62 201.90 140.38 201.92 140.00 202.12 C 139.62 202.33 139.17 202.71 139.00 203.12 Z" id="s-4-f-0"/>
<clipPath id="c-s-4"><use href="#s-4-f-0"/></clipPath>
<path d="M 212.75 246.50 C 212.48 245.75 211.81 245.12 211.12 244.88 C 210.44 244.62 209.62 244.81 208.62 245.00 C 207.62 245.19 211.46 243.56 205.12 246.00 C 198.79 248.44 176.71 257.29 170.62 259.62 C 164.54 261.96 174.12 258.00 168.62 260.00 C 163.12 262.00 147.54 268.17 137.62 271.62 C 127.71 275.08 115.52 279.00 109.12 280.75 C 102.73 282.50 101.12 281.60 99.25 282.12 C 97.38 282.65 98.06 283.21 97.88 283.88 C 97.69 284.54 97.79 285.21 98.12 286.12 C 98.46 287.04 98.90 288.00 99.88 289.38 C 100.85 290.75 102.75 293.00 104.00 294.38 C 105.25 295.75 105.62 296.21 107.38 297.62 C 109.12 299.04 111.79 301.21 114.50 302.88 C 117.21 304.54 121.42 306.65 123.62 307.62 C 125.83 308.60 126.44 308.56 127.75 308.75 C 129.06 308.94 127.35 311.40 131.50 308.75 C 135.65 306.10 143.69 299.21 152.62 292.88 C 161.56 286.54 177.02 276.40 185.12 270.75 C 193.23 265.10 196.65 262.56 201.25 259.00 C 205.85 255.44 210.83 251.46 212.75 249.38 C 214.67 247.29 213.02 247.25 212.75 246.50 Z" id="s-5-f-0"/>
<clipPath id="c-s-5"><use href="#s-5-f-0"/></clipPath>
<path d="M 352.62 205.00 C 352.40 203.71 351.81 202.77 351.12 201.62 C 350.44 200.48 350.19 199.90 348.50 198.12 C 346.81 196.35 343.98 193.35 341.00 191.00 C 338.02 188.65 333.17 185.50 330.62 184.00 C 328.08 182.50 327.12 182.33 325.75 182.00 C 324.38 181.67 323.17 181.85 322.38 182.00 C 321.58 182.15 321.56 182.33 321.00 182.88 C 320.44 183.42 320.38 183.02 319.00 185.25 C 317.62 187.48 315.15 192.65 312.75 196.25 C 310.35 199.85 307.90 203.23 304.62 206.88 C 301.35 210.52 297.31 214.65 293.12 218.12 C 288.94 221.60 281.88 225.96 279.50 227.75 C 277.12 229.54 278.96 228.50 278.88 228.88 C 278.79 229.25 278.85 229.69 279.00 230.00 C 279.15 230.31 279.29 230.60 279.75 230.75 C 280.21 230.90 280.35 231.04 281.75 230.88 C 283.15 230.71 284.67 230.60 288.12 229.75 C 291.58 228.90 295.23 228.04 302.50 225.75 C 309.77 223.46 324.29 218.19 331.75 216.00 C 339.21 213.81 344.02 213.50 347.25 212.62 C 350.48 211.75 350.25 211.29 351.12 210.75 C 352.00 210.21 352.25 210.33 352.50 209.38 C 352.75 208.42 352.85 206.29 352.62 205.00 Z" id="s-6-f-0"/>
<clipPath id="c-s-6"><use href="#s-6-f-0"/></clipPath>
<path d="M 277.00 243.12 C 276.08 243.52 276.40 244.52 277.00 245.50 C 277.60 246.48 277.94 247.08 280.62 249.00 C 283.31 250.92 289.69 254.65 293.12 257.00 C 296.56 259.35 295.31 258.15 301.25 263.12 C 307.19 268.10 322.21 281.42 328.75 286.88 C 335.29 292.33 337.31 293.56 340.50 295.88 C 343.69 298.19 345.38 299.29 347.88 300.75 C 350.38 302.21 353.23 303.65 355.50 304.62 C 357.77 305.60 359.60 306.27 361.50 306.62 C 363.40 306.98 365.60 306.90 366.88 306.75 C 368.15 306.60 368.42 306.21 369.12 305.75 C 369.83 305.29 370.54 304.67 371.12 304.00 C 371.71 303.33 372.06 303.04 372.62 301.75 C 373.19 300.46 374.12 297.67 374.50 296.25 C 374.88 294.83 374.83 294.58 374.88 293.25 C 374.92 291.92 374.96 289.79 374.75 288.25 C 374.54 286.71 374.29 285.65 373.62 284.00 C 372.96 282.35 371.69 279.90 370.75 278.38 C 369.81 276.85 369.48 276.27 368.00 274.88 C 366.52 273.48 363.98 271.46 361.88 270.00 C 359.77 268.54 358.23 267.60 355.38 266.12 C 352.52 264.65 348.12 262.62 344.75 261.12 C 341.38 259.62 338.31 258.31 335.12 257.12 C 331.94 255.94 332.60 256.02 325.62 254.00 C 318.65 251.98 300.44 246.81 293.25 245.00 C 286.06 243.19 285.21 243.44 282.50 243.12 C 279.79 242.81 277.92 242.73 277.00 243.12 Z" id="s-7-f-0"/>
<clipPath id="c-s-7"><use href="#s-7-f-0"/></clipPath>
<path d="M 107.88 345.00 C 107.29 345.46 106.46 346.29 106.00 346.88 C 105.54 347.46 105.27 347.56 105.12 348.50 C 104.98 349.44 104.27 351.44 105.12 352.50 C 105.98 353.56 108.60 353.88 110.25 354.88 C 111.90 355.88 113.65 357.33 115.00 358.50 C 116.35 359.67 117.40 360.77 118.38 361.88 C 119.35 362.98 119.79 363.29 120.88 365.12 C 121.96 366.96 123.73 370.02 124.88 372.88 C 126.02 375.73 126.90 378.71 127.75 382.25 C 128.60 385.79 128.50 388.60 130.00 394.12 C 131.50 399.65 135.58 411.12 136.75 415.38 C 137.92 419.62 136.79 418.17 137.00 419.62 C 137.21 421.08 137.33 422.29 138.00 424.12 C 138.67 425.96 140.31 429.31 141.00 430.62 C 141.69 431.94 139.21 432.10 142.12 432.00 C 145.04 431.90 155.56 430.90 158.50 430.00 C 161.44 429.10 159.58 429.44 159.75 426.62 C 159.92 423.81 160.02 418.50 159.50 413.12 C 158.98 407.75 157.77 400.69 156.62 394.38 C 155.48 388.06 153.56 379.25 152.62 375.25 C 151.69 371.25 151.48 372.44 151.00 370.38 C 150.52 368.31 150.35 364.46 149.75 362.88 C 149.15 361.29 152.00 363.88 147.38 360.88 C 142.75 357.88 126.90 347.69 122.00 344.88 C 117.10 342.06 120.08 344.12 118.00 344.00 C 115.92 343.88 111.19 343.96 109.50 344.12 C 107.81 344.29 108.46 344.54 107.88 345.00 Z" id="s-8-f-0"/>
<clipPath id="c-s-8"><use href="#s-8-f-0"/></clipPath>
<path d="M 384.75 350.25 C 385.06 348.75 384.94 346.94 384.62 345.62 C 384.31 344.31 384.58 344.31 382.88 342.38 C 381.17 340.44 376.96 336.23 374.38 334.00 C 371.79 331.77 370.92 331.15 367.38 329.00 C 363.83 326.85 356.33 322.77 353.12 321.12 C 349.92 319.48 349.27 319.50 348.12 319.12 C 346.98 318.75 348.83 318.73 346.25 318.88 C 343.67 319.02 336.48 319.35 332.62 320.00 C 328.77 320.65 326.81 321.98 323.12 322.75 C 319.44 323.52 335.27 321.90 310.50 324.62 C 285.73 327.35 200.52 336.27 174.50 339.12 C 148.48 341.98 162.79 340.94 154.38 341.75 C 145.96 342.56 129.42 343.40 124.00 344.00 C 118.58 344.60 122.15 345.02 121.88 345.38 C 121.60 345.73 121.81 345.79 122.38 346.12 C 122.94 346.46 123.40 346.21 125.25 347.38 C 127.10 348.54 131.17 351.62 133.50 353.12 C 135.83 354.62 136.73 354.75 139.25 356.38 C 141.77 358.00 146.90 361.75 148.62 362.88 C 150.35 364.00 147.67 363.60 149.62 363.12 C 151.58 362.65 156.25 360.90 160.38 360.00 C 164.50 359.10 169.90 358.58 174.38 357.75 C 178.85 356.92 183.23 355.67 187.25 355.00 C 191.27 354.33 191.50 354.75 198.50 353.75 C 205.50 352.75 220.40 350.10 229.25 349.00 C 238.10 347.90 246.27 347.48 251.62 347.12 C 256.98 346.77 255.50 347.40 261.38 346.88 C 267.25 346.35 278.48 344.79 286.88 344.00 C 295.27 343.21 305.46 342.46 311.75 342.12 C 318.04 341.79 321.54 341.85 324.62 342.00 C 327.71 342.15 328.92 342.65 330.25 343.00 C 331.58 343.35 331.85 343.56 332.62 344.12 C 333.40 344.69 334.35 345.62 334.88 346.38 C 335.40 347.12 335.62 347.42 335.75 348.62 C 335.88 349.83 335.81 351.50 335.62 353.62 C 335.44 355.75 335.77 354.79 334.62 361.38 C 333.48 367.96 330.52 384.31 328.75 393.12 C 326.98 401.94 324.83 410.25 324.00 414.25 C 323.17 418.25 323.92 416.35 323.75 417.12 C 323.58 417.90 323.06 418.40 323.00 418.88 C 322.94 419.35 320.33 420.00 323.38 420.00 C 326.42 420.00 336.85 419.25 341.25 418.88 C 345.65 418.50 348.04 418.42 349.75 417.75 C 351.46 417.08 349.88 418.60 351.50 414.88 C 353.12 411.15 357.73 399.92 359.50 395.38 C 361.27 390.83 361.02 390.40 362.12 387.62 C 363.23 384.85 364.33 382.12 366.12 378.75 C 367.92 375.38 370.10 371.40 372.88 367.38 C 375.65 363.35 380.77 357.48 382.75 354.62 C 384.73 351.77 384.44 351.75 384.75 350.25 Z" id="s-9-f-0"/>
<clipPath id="c-s-9"><use href="#s-9-f-0"/></clipPath>
<path d="M 212.00 350.62 C 211.21 350.71 209.77 351.33 208.38 351.50 C 206.98 351.67 204.62 351.48 203.62 351.62 C 202.62 351.77 203.52 352.21 202.38 352.38 C 201.23 352.54 197.94 352.44 196.75 352.62 C 195.56 352.81 196.42 353.33 195.25 353.50 C 194.08 353.67 191.00 353.38 189.75 353.62 C 188.50 353.88 187.25 353.71 187.75 355.00 C 188.25 356.29 191.60 359.67 192.75 361.38 C 193.90 363.08 193.79 362.38 194.62 365.25 C 195.46 368.12 196.35 369.31 197.75 378.62 C 199.15 387.94 201.94 413.35 203.00 421.12 C 204.06 428.90 203.75 424.27 204.12 425.25 C 204.50 426.23 202.60 426.88 205.25 427.00 C 207.90 427.12 217.42 426.23 220.00 426.00 C 222.58 425.77 220.65 428.79 220.75 425.62 C 220.85 422.46 220.92 415.27 220.62 407.00 C 220.33 398.73 219.31 383.96 219.00 376.00 C 218.69 368.04 219.19 362.58 218.75 359.25 C 218.31 355.92 217.23 356.88 216.38 356.00 C 215.52 355.12 214.65 354.60 213.62 354.00 C 212.60 353.40 210.79 352.77 210.25 352.38 C 209.71 351.98 209.90 351.85 210.38 351.62 C 210.85 351.40 212.85 351.17 213.12 351.00 C 213.40 350.83 212.79 350.54 212.00 350.62 Z" id="s-10-f-0"/>
<clipPath id="c-s-10"><use href="#s-10-f-0"/></clipPath>
<path d="M 285.62 344.12 C 285.79 343.98 281.81 343.60 281.00 343.62 C 280.19 343.65 280.96 344.17 280.75 344.25 C 280.54 344.33 279.90 344.21 279.75 344.12 C 279.60 344.04 280.15 343.69 279.88 343.75 C 279.60 343.81 279.69 344.35 278.12 344.50 C 276.56 344.65 272.10 344.48 270.50 344.62 C 268.90 344.77 270.17 345.21 268.50 345.38 C 266.83 345.54 262.27 345.42 260.50 345.62 C 258.73 345.83 258.00 344.73 257.88 346.62 C 257.75 348.52 259.44 354.02 259.75 357.00 C 260.06 359.98 260.08 357.27 259.75 364.50 C 259.42 371.73 258.38 391.31 257.75 400.38 C 257.12 409.44 256.27 415.12 256.00 418.88 C 255.73 422.62 254.31 422.23 256.12 422.88 C 257.94 423.52 264.29 424.33 266.88 422.75 C 269.46 421.17 270.15 416.67 271.62 413.38 C 273.10 410.08 274.08 407.52 275.75 403.00 C 277.42 398.48 280.25 390.42 281.62 386.25 C 283.00 382.08 282.50 382.40 284.00 378.00 C 285.50 373.60 289.50 363.54 290.62 359.88 C 291.75 356.21 291.06 357.19 290.75 356.00 C 290.44 354.81 289.92 354.10 288.75 352.75 C 287.58 351.40 285.35 349.15 283.75 347.88 C 282.15 346.60 279.75 345.69 279.12 345.12 C 278.50 344.56 278.92 344.67 280.00 344.50 C 281.08 344.33 285.46 344.27 285.62 344.12 Z" id="s-11-f-0"/>
<clipPath id="c-s-11"><use href="#s-11-f-0"/></clipPath>
<path d="M 458.88 432.50 C 458.73 431.46 458.40 430.56 457.75 429.50 C 457.10 428.44 456.06 427.21 455.00 426.12 C 453.94 425.04 453.44 424.35 451.38 423.00 C 449.31 421.65 446.25 419.65 442.62 418.00 C 439.00 416.35 433.35 414.44 429.62 413.12 C 425.90 411.81 422.44 410.67 420.25 410.12 C 418.06 409.58 419.33 409.71 416.50 409.88 C 413.67 410.04 409.65 410.31 403.25 411.12 C 396.85 411.94 386.81 413.65 378.12 414.75 C 369.44 415.85 357.00 417.27 351.12 417.75 C 345.25 418.23 345.35 417.50 342.88 417.62 C 340.40 417.75 338.58 418.33 336.25 418.50 C 333.92 418.67 331.21 418.40 328.88 418.62 C 326.54 418.85 328.12 419.35 322.25 419.88 C 316.38 420.40 300.96 421.40 293.62 421.75 C 286.29 422.10 282.29 421.83 278.25 422.00 C 274.21 422.17 273.04 422.67 269.38 422.75 C 265.71 422.83 264.06 422.00 256.25 422.50 C 248.44 423.00 229.90 425.23 222.50 425.75 C 215.10 426.27 214.96 425.44 211.88 425.62 C 208.79 425.81 209.54 426.46 204.00 426.88 C 198.46 427.29 185.83 427.65 178.62 428.12 C 171.42 428.60 164.77 429.50 160.75 429.75 C 156.73 430.00 156.04 429.52 154.50 429.62 C 152.96 429.73 153.06 430.19 151.50 430.38 C 149.94 430.56 146.73 430.52 145.12 430.75 C 143.52 430.98 147.29 431.23 141.88 431.75 C 136.46 432.27 128.48 433.17 112.62 433.88 C 96.77 434.58 58.25 435.48 46.75 436.00 C 35.25 436.52 44.40 436.62 43.62 437.00 C 42.85 437.38 42.56 437.75 42.12 438.25 C 41.69 438.75 41.21 439.31 41.00 440.00 C 40.79 440.69 40.81 441.77 40.88 442.38 C 40.94 442.98 40.46 442.73 41.38 443.62 C 42.29 444.52 43.50 446.06 46.38 447.75 C 49.25 449.44 54.65 452.10 58.62 453.75 C 62.60 455.40 67.33 456.79 70.25 457.62 C 73.17 458.46 73.58 458.58 76.12 458.75 C 78.67 458.92 76.52 459.75 85.50 458.62 C 94.48 457.50 118.40 453.60 130.00 452.00 C 141.60 450.40 145.19 450.02 155.12 449.00 C 165.06 447.98 178.48 446.71 189.62 445.88 C 200.77 445.04 204.44 444.81 222.00 444.00 C 239.56 443.19 275.33 441.67 295.00 441.00 C 314.67 440.33 326.21 440.17 340.00 440.00 C 353.79 439.83 364.96 439.83 377.75 440.00 C 390.54 440.17 408.42 440.71 416.75 441.00 C 425.08 441.29 423.08 441.65 427.75 441.75 C 432.42 441.85 440.81 441.83 444.75 441.62 C 448.69 441.42 449.52 441.00 451.38 440.50 C 453.23 440.00 454.81 439.19 455.88 438.62 C 456.94 438.06 457.29 437.60 457.75 437.12 C 458.21 436.65 458.44 436.52 458.62 435.75 C 458.81 434.98 459.02 433.54 458.88 432.50 Z" id="s-12-f-0"/>
<clipPath id="c-s-12"><use href="#s-12-f-0"/></clipPath>
</defs>
<g id="s-0" clip-path="url(#c-s-0)">
<use href="#s-0-f-0"/>
<path d="M 236.00 46.12 C 233.65 44.48 228.94 42.02 227.00 41.00 C 225.06 39.98 225.46 40.17 224.38 40.00 C 223.29 39.83 221.65 39.69 220.50 40.00 C 219.35 40.31 218.42 40.88 217.50 41.88 C 216.58 42.88 215.79 43.85 215.00 46.00 C 214.21 48.15 213.96 51.38 212.75 54.75 C 211.54 58.12 209.29 63.02 207.75 66.25 C 206.21 69.48 205.69 70.58 203.50 74.12 C 201.31 77.67 197.62 83.46 194.62 87.50 C 191.62 91.54 189.04 94.54 185.50 98.38 C 181.96 102.21 176.83 107.44 173.38 110.50 C 169.92 113.56 167.27 115.17 164.75 116.75 C 162.23 118.33 159.88 118.98 158.25 120.00 C 156.62 121.02 155.71 122.12 155.00 122.88 C 154.29 123.62 154.17 123.58 154.00 124.50 C 153.83 125.42 153.83 127.17 154.00 128.38 C 154.17 129.58 154.00 129.60 155.00 131.75 C 156.00 133.90 158.46 138.92 160.00 141.25 C 161.54 143.58 163.08 144.81 164.25 145.75 C 165.42 146.69 165.75 146.73 167.00 146.88 C 168.25 147.02 169.77 147.00 171.75 146.62 C 173.73 146.25 176.65 145.38 178.88 144.62 C 181.10 143.88 182.23 143.00 185.12 142.12 C 188.02 141.25 191.75 140.25 196.25 139.38 C 200.75 138.50 207.48 137.75 212.12 136.88 C 216.77 136.00 216.48 135.48 224.12 134.12 C 231.77 132.77 251.73 129.79 258.00 128.75 C 264.27 127.71 260.98 128.15 261.75 127.88 C 262.52 127.60 262.25 127.75 262.62 127.12 C 263.00 126.50 263.77 125.54 264.00 124.12 C 264.23 122.71 264.27 119.65 264.00 118.62 C 263.73 117.60 264.17 118.04 262.38 118.00 C 260.58 117.96 265.17 117.42 253.25 118.38 C 241.33 119.33 201.90 122.90 190.88 123.75 C 179.85 124.60 188.10 123.96 187.12 123.50 C 186.15 123.04 185.35 121.58 185.00 121.00 C 184.65 120.42 184.85 120.44 185.00 120.00 C 185.15 119.56 185.31 119.12 185.88 118.38 C 186.44 117.62 184.46 119.35 188.38 115.50 C 192.29 111.65 203.71 100.40 209.38 95.25 C 215.04 90.10 218.69 87.88 222.38 84.62 C 226.06 81.38 228.48 78.52 231.50 75.75 C 234.52 72.98 238.27 70.06 240.50 68.00 C 242.73 65.94 244.00 64.44 244.88 63.38 C 245.75 62.31 245.60 62.42 245.75 61.62 C 245.90 60.83 246.08 59.83 245.75 58.62 C 245.42 57.42 244.52 55.67 243.75 54.38 C 242.98 53.08 242.42 52.25 241.12 50.88 C 239.83 49.50 238.35 47.77 236.00 46.12 Z" id="s-0-f-1"/>
<path d="M 236.00 46.12 C 233.65 44.48 228.94 42.02 227.00 41.00 C 225.06 39.98 225.46 40.17 224.38 40.00 C 223.29 39.83 221.65 39.69 220.50 40.00 C 219.35 40.31 218.42 40.88 217.50 41.88 C 216.58 42.88 215.79 43.85 215.00 46.00 C 214.21 48.15 213.96 51.38 212.75 54.75 C 211.54 58.12 209.29 63.02 207.75 66.25 C 206.21 69.48 205.69 70.58 203.50 74.12 C 201.31 77.67 197.62 83.46 194.62 87.50 C 191.62 91.54 189.04 94.54 185.50 98.38 C 181.96 102.21 176.83 107.44 173.38 110.50 C 169.92 113.56 167.27 115.17 164.75 116.75 C 162.23 118.33 159.88 118.98 158.25 120.00 C 156.62 121.02 155.71 122.12 155.00 122.88 C 154.29 123.62 154.17 123.58 154.00 124.50 C 153.83 125.42 153.83 127.17 154.00 128.38 C 154.17 129.58 154.00 129.60 155.00 131.75 C 156.00 133.90 158.46 138.92 160.00 141.25 C 161.54 143.58 163.08 144.81 164.25 145.75 C 165.42 146.69 165.75 146.73 167.00 146.88 C 168.25 147.02 168.06 147.60 171.75 146.62 C 175.44 145.65 184.73 142.27 189.12 141.00 C 193.52 139.73 194.29 139.69 198.12 139.00 C 201.96 138.31 209.21 137.42 212.12 136.88 C 215.04 136.33 214.98 136.60 215.62 135.75 C 216.27 134.90 215.98 134.04 216.00 131.75 C 216.02 129.46 220.42 123.33 215.75 122.00 C 211.08 120.67 192.98 123.67 188.00 123.75 C 183.02 123.83 186.38 122.96 185.88 122.50 C 185.38 122.04 185.15 121.42 185.00 121.00 C 184.85 120.58 184.44 120.92 185.00 120.00 C 185.56 119.08 184.31 119.62 188.38 115.50 C 192.44 111.38 203.71 100.40 209.38 95.25 C 215.04 90.10 218.69 87.88 222.38 84.62 C 226.06 81.38 228.48 78.52 231.50 75.75 C 234.52 72.98 238.27 70.06 240.50 68.00 C 242.73 65.94 244.00 64.44 244.88 63.38 C 245.75 62.31 245.60 62.42 245.75 61.62 C 245.90 60.83 246.08 59.83 245.75 58.62 C 245.42 57.42 244.52 55.67 243.75 54.38 C 242.98 53.08 242.42 52.25 241.12 50.88 C 239.83 49.50 238.35 47.77 236.00 46.12 Z" id="s-0-f-2"/>
<path d="M 236.00 46.12 C 233.65 44.48 228.94 42.02 227.00 41.00 C 225.06 39.98 225.46 40.17 224.38 40.00 C 223.29 39.83 221.65 39.69 220.50 40.00 C 219.35 40.31 218.42 40.88 217.50 41.88 C 216.58 42.88 215.79 43.85 215.00 46.00 C 214.21 48.15 213.96 51.38 212.75 54.75 C 211.54 58.12 209.29 63.02 207.75 66.25 C 206.21 69.48 205.69 70.58 203.50 74.12 C 201.31 77.67 197.62 83.46 194.62 87.50 C 191.62 91.54 189.04 94.54 185.50 98.38 C 181.96 102.21 176.83 107.44 173.38 110.50 C 169.92 113.56 167.27 115.17 164.75 116.75 C 162.23 118.33 159.88 118.98 158.25 120.00 C 156.62 121.02 155.71 122.12 155.00 122.88 C 154.29 123.62 154.17 123.58 154.00 124.50 C 153.83 125.42 153.83 127.17 154.00 128.38 C 154.17 129.58 154.00 129.60 155.00 131.75 C 156.00 133.90 158.46 138.92 160.00 141.25 C 161.54 143.58 163.31 144.85 164.25 145.75 C 165.19 146.65 165.08 146.44 165.62 146.62 C 166.17 146.81 166.94 147.04 167.50 146.88 C 168.06 146.71 166.27 149.75 169.00 145.62 C 171.73 141.50 181.21 126.48 183.88 122.12 C 186.54 117.77 184.25 120.60 185.00 119.50 C 185.75 118.40 184.31 119.54 188.38 115.50 C 192.44 111.46 203.71 100.40 209.38 95.25 C 215.04 90.10 218.69 87.88 222.38 84.62 C 226.06 81.38 228.48 78.52 231.50 75.75 C 234.52 72.98 238.27 70.06 240.50 68.00 C 242.73 65.94 244.00 64.44 244.88 63.38 C 245.75 62.31 245.60 62.42 245.75 61.62 C 245.90 60.83 246.08 59.83 245.75 58.62 C 245.42 57.42 244.52 55.67 243.75 54.38 C 242.98 53.08 242.42 52.25 241.12 50.88 C 239.83 49.50 238.35 47.77 236.00 46.12 Z" id="s-0-f-3"/>
<path d="M 237.50 47.25 C 235.46 45.77 230.98 43.19 228.88 42.00 C 226.77 40.81 226.27 40.46 224.88 40.12 C 223.48 39.79 221.73 39.71 220.50 40.00 C 219.27 40.29 218.42 40.88 217.50 41.88 C 216.58 42.88 215.79 43.85 215.00 46.00 C 214.21 48.15 213.96 51.38 212.75 54.75 C 211.54 58.12 209.29 63.02 207.75 66.25 C 206.21 69.48 205.69 70.58 203.50 74.12 C 201.31 77.67 197.62 83.46 194.62 87.50 C 191.62 91.54 189.04 94.54 185.50 98.38 C 181.96 102.21 176.83 107.44 173.38 110.50 C 169.92 113.56 167.48 115.02 164.75 116.75 C 162.02 118.48 158.77 119.65 157.00 120.88 C 155.23 122.10 154.60 122.79 154.12 124.12 C 153.65 125.46 153.98 127.60 154.12 128.88 C 154.27 130.15 154.50 130.58 155.00 131.75 C 155.50 132.92 153.81 135.21 157.12 135.88 C 160.44 136.54 171.73 135.96 174.88 135.75 C 178.02 135.54 174.50 136.90 176.00 134.62 C 177.50 132.35 182.38 124.65 183.88 122.12 C 185.38 119.60 184.25 120.60 185.00 119.50 C 185.75 118.40 184.31 119.54 188.38 115.50 C 192.44 111.46 203.71 100.40 209.38 95.25 C 215.04 90.10 216.58 89.77 222.38 84.62 C 228.17 79.48 240.25 68.10 244.12 64.38 C 248.00 60.65 245.38 63.27 245.62 62.25 C 245.88 61.23 245.94 59.56 245.62 58.25 C 245.31 56.94 244.50 55.60 243.75 54.38 C 243.00 53.15 242.17 52.06 241.12 50.88 C 240.08 49.69 239.54 48.73 237.50 47.25 Z" id="s-0-f-4"/>
<path d="M 243.75 54.38 C 242.98 53.08 242.17 52.06 241.12 50.88 C 240.08 49.69 239.85 48.90 237.50 47.25 C 235.15 45.60 229.19 42.21 227.00 41.00 C 224.81 39.79 225.27 40.19 224.38 40.00 C 223.48 39.81 222.27 39.88 221.62 39.88 C 220.98 39.88 221.04 39.77 220.50 40.00 C 219.96 40.23 219.04 40.73 218.38 41.25 C 217.71 41.77 217.06 42.33 216.50 43.12 C 215.94 43.92 215.62 44.06 215.00 46.00 C 214.38 47.94 213.96 51.38 212.75 54.75 C 211.54 58.12 209.29 63.02 207.75 66.25 C 206.21 69.48 205.69 70.65 203.50 74.12 C 201.31 77.60 196.08 84.85 194.62 87.12 C 193.17 89.40 191.15 87.62 194.75 87.75 C 198.35 87.88 212.33 87.90 216.25 87.88 C 220.17 87.85 217.67 87.81 218.25 87.62 C 218.83 87.44 216.04 90.02 219.75 86.75 C 223.46 83.48 236.31 71.90 240.50 68.00 C 244.69 64.10 244.00 64.44 244.88 63.38 C 245.75 62.31 245.60 62.42 245.75 61.62 C 245.90 60.83 246.08 59.83 245.75 58.62 C 245.42 57.42 244.52 55.67 243.75 54.38 Z" id="s-0-f-5"/>
</g>
<g id="s-1" clip-path="url(#c-s-1)">
<use href="#s-1-f-0"/>
<path d="M 337.88 79.88 C 337.71 78.75 337.23 77.35 336.50 76.25 C 335.77 75.15 334.54 74.10 333.50 73.25 C 332.46 72.40 333.56 72.67 330.25 71.12 C 326.94 69.58 316.98 65.35 313.62 64.00 C 310.27 62.65 311.46 63.17 310.12 63.00 C 308.79 62.83 307.65 62.67 305.62 63.00 C 303.60 63.33 303.60 63.21 298.00 65.00 C 292.40 66.79 278.81 71.62 272.00 73.75 C 265.19 75.88 262.90 76.42 257.12 77.75 C 251.35 79.08 242.77 80.77 237.38 81.75 C 231.98 82.73 227.15 83.40 224.75 83.62 C 222.35 83.85 225.31 81.60 223.00 83.12 C 220.69 84.65 212.81 91.10 210.88 92.75 C 208.94 94.40 211.56 92.73 211.38 93.00 C 211.19 93.27 209.77 94.25 209.75 94.38 C 209.73 94.50 210.71 93.69 211.25 93.75 C 211.79 93.81 211.77 94.42 213.00 94.75 C 214.23 95.08 214.58 95.56 218.62 95.75 C 222.67 95.94 229.38 96.21 237.25 95.88 C 245.12 95.54 260.23 94.25 265.88 93.75 C 271.52 93.25 268.92 93.06 271.12 92.88 C 273.33 92.69 277.31 92.77 279.12 92.62 C 280.94 92.48 281.12 92.10 282.00 92.00 C 282.88 91.90 283.67 91.88 284.38 92.00 C 285.08 92.12 285.90 92.38 286.25 92.75 C 286.60 93.12 289.06 90.50 286.50 94.25 C 283.94 98.00 274.19 110.96 270.88 115.25 C 267.56 119.54 268.40 117.58 266.62 120.00 C 264.85 122.42 262.67 126.54 260.25 129.75 C 257.83 132.96 252.48 137.56 252.12 139.25 C 251.77 140.94 254.67 139.77 258.12 139.88 C 261.58 139.98 267.42 142.79 272.88 139.88 C 278.33 136.96 284.96 127.98 290.88 122.38 C 296.79 116.77 302.62 111.27 308.38 106.25 C 314.12 101.23 321.04 95.50 325.38 92.25 C 329.71 89.00 332.35 88.29 334.38 86.75 C 336.40 85.21 336.92 84.15 337.50 83.00 C 338.08 81.85 338.04 81.00 337.88 79.88 Z" id="s-1-f-1"/>
<path d="M 337.88 79.88 C 337.67 78.85 337.23 77.35 336.50 76.25 C 335.77 75.15 334.58 74.12 333.50 73.25 C 332.42 72.38 333.31 72.54 330.00 71.00 C 326.69 69.46 316.94 65.33 313.62 64.00 C 310.31 62.67 311.46 63.17 310.12 63.00 C 308.79 62.83 307.62 62.67 305.62 63.00 C 303.62 63.33 303.73 63.21 298.12 65.00 C 292.52 66.79 278.83 71.62 272.00 73.75 C 265.17 75.88 262.90 76.42 257.12 77.75 C 251.35 79.08 242.77 80.77 237.38 81.75 C 231.98 82.73 227.15 83.40 224.75 83.62 C 222.35 83.85 225.29 81.62 223.00 83.12 C 220.71 84.62 213.21 90.75 211.00 92.62 C 208.79 94.50 209.69 94.19 209.75 94.38 C 209.81 94.56 210.81 93.69 211.38 93.75 C 211.94 93.81 211.92 94.42 213.12 94.75 C 214.33 95.08 215.50 95.56 218.62 95.75 C 221.75 95.94 226.06 96.06 231.88 95.88 C 237.69 95.69 245.23 95.27 253.50 94.62 C 261.77 93.98 269.40 92.46 281.50 92.00 C 293.60 91.54 317.56 92.56 326.12 91.88 C 334.69 91.19 331.12 89.10 332.88 87.88 C 334.62 86.65 335.81 85.42 336.62 84.50 C 337.44 83.58 337.54 83.15 337.75 82.38 C 337.96 81.60 338.08 80.90 337.88 79.88 Z" id="s-1-f-2"/>
<path d="M 307.00 63.75 C 306.75 59.25 306.44 62.96 305.50 63.00 C 304.56 63.04 306.96 62.21 301.38 64.00 C 295.79 65.79 280.08 71.29 272.00 73.75 C 263.92 76.21 260.75 77.10 252.88 78.75 C 245.00 80.40 229.73 82.90 224.75 83.62 C 219.77 84.35 225.02 81.81 223.00 83.12 C 220.98 84.44 214.60 89.81 212.62 91.50 C 210.65 93.19 211.46 93.00 211.12 93.25 C 210.79 93.50 210.85 92.83 210.62 93.00 C 210.40 93.17 209.65 94.10 209.75 94.25 C 209.85 94.40 210.69 93.79 211.25 93.88 C 211.81 93.96 211.90 94.44 213.12 94.75 C 214.35 95.06 214.56 95.58 218.62 95.75 C 222.69 95.92 227.02 96.38 237.50 95.75 C 247.98 95.12 269.98 92.65 281.50 92.00 C 293.02 91.35 302.38 92.21 306.62 91.88 C 310.88 91.54 306.94 94.69 307.00 90.00 C 307.06 85.31 307.25 68.25 307.00 63.75 Z" id="s-1-f-3"/>
<path d="M 258.88 77.75 C 258.73 75.04 259.12 77.08 258.12 77.25 C 257.12 77.42 256.33 78.00 252.88 78.75 C 249.42 79.50 242.06 80.94 237.38 81.75 C 232.69 82.56 227.15 83.40 224.75 83.62 C 222.35 83.85 225.02 81.81 223.00 83.12 C 220.98 84.44 214.60 89.81 212.62 91.50 C 210.65 93.19 211.46 93.00 211.12 93.25 C 210.79 93.50 210.85 92.83 210.62 93.00 C 210.40 93.17 209.65 94.10 209.75 94.25 C 209.85 94.40 210.69 93.79 211.25 93.88 C 211.81 93.96 211.90 94.44 213.12 94.75 C 214.35 95.06 215.52 95.56 218.62 95.75 C 221.73 95.94 225.12 96.17 231.75 95.88 C 238.38 95.58 253.83 94.40 258.38 94.00 C 262.92 93.60 258.92 96.21 259.00 93.50 C 259.08 90.79 259.02 80.46 258.88 77.75 Z" id="s-1-f-4"/>
</g>
<g id="s-2" clip-path="url(#c-s-2)">
<use href="#s-2-f-0"/>
<path d="M 373.88 145.88 C 373.69 141.48 374.08 145.12 372.88 145.00 C 371.67 144.88 371.71 144.35 366.62 145.12 C 361.54 145.90 349.88 148.35 342.38 149.62 C 334.88 150.90 332.48 151.40 321.62 152.75 C 310.77 154.10 288.85 156.58 277.25 157.75 C 265.65 158.92 258.06 159.44 252.00 159.75 C 245.94 160.06 243.98 159.44 240.88 159.62 C 237.77 159.81 243.83 159.79 233.38 160.88 C 222.92 161.96 190.69 164.81 178.12 166.12 C 165.56 167.44 163.38 168.15 158.00 168.75 C 152.62 169.35 156.54 169.21 145.88 169.75 C 135.21 170.29 103.62 171.31 94.00 172.00 C 84.38 172.69 89.44 173.21 88.12 173.88 C 86.81 174.54 86.50 175.25 86.12 176.00 C 85.75 176.75 85.88 177.81 85.88 178.38 C 85.88 178.94 85.50 178.65 86.12 179.38 C 86.75 180.10 87.17 181.23 89.62 182.75 C 92.08 184.27 97.08 186.85 100.88 188.50 C 104.67 190.15 109.58 191.75 112.38 192.62 C 115.17 193.50 116.00 193.54 117.62 193.75 C 119.25 193.96 120.08 194.04 122.12 193.88 C 124.17 193.71 123.46 194.06 129.88 192.75 C 136.29 191.44 151.75 187.79 160.62 186.00 C 169.50 184.21 175.83 183.17 183.12 182.00 C 190.42 180.83 197.50 179.83 204.38 179.00 C 211.25 178.17 217.31 177.52 224.38 177.00 C 231.44 176.48 238.94 176.40 246.75 175.88 C 254.56 175.35 260.92 174.50 271.25 173.88 C 281.58 173.25 291.71 172.48 308.75 172.12 C 325.79 171.77 362.62 171.88 373.50 171.75 C 384.38 171.62 373.94 175.69 374.00 171.38 C 374.06 167.06 374.06 150.27 373.88 145.88 Z" id="s-2-f-1"/>
<path d="M 325.88 152.50 C 325.71 149.27 328.40 151.62 325.00 152.00 C 321.60 152.38 313.46 153.79 305.50 154.75 C 297.54 155.71 286.17 156.92 277.25 157.75 C 268.33 158.58 258.06 159.44 252.00 159.75 C 245.94 160.06 243.98 159.44 240.88 159.62 C 237.77 159.81 243.83 159.79 233.38 160.88 C 222.92 161.96 190.71 164.81 178.12 166.12 C 165.54 167.44 163.25 168.15 157.88 168.75 C 152.50 169.35 156.52 169.21 145.88 169.75 C 135.23 170.29 103.62 171.31 94.00 172.00 C 84.38 172.69 89.44 173.21 88.12 173.88 C 86.81 174.54 86.50 175.25 86.12 176.00 C 85.75 176.75 85.69 177.60 85.88 178.38 C 86.06 179.15 86.35 179.73 87.25 180.62 C 88.15 181.52 89.31 182.58 91.25 183.75 C 93.19 184.92 96.33 186.46 98.88 187.62 C 101.42 188.79 103.65 189.77 106.50 190.75 C 109.35 191.73 113.02 193.00 116.00 193.50 C 118.98 194.00 116.94 195.00 124.38 193.75 C 131.81 192.50 151.79 187.79 160.62 186.00 C 169.46 184.21 168.60 184.33 177.38 183.00 C 186.15 181.67 195.02 179.67 213.25 178.00 C 231.48 176.33 268.12 174.02 286.75 173.00 C 305.38 171.98 318.46 172.15 325.00 171.88 C 331.54 171.60 325.85 174.60 326.00 171.38 C 326.15 168.15 326.04 155.73 325.88 152.50 Z" id="s-2-f-2"/>
<path d="M 277.50 157.75 C 273.19 155.52 258.10 159.44 252.00 159.75 C 245.90 160.06 243.98 159.44 240.88 159.62 C 237.77 159.81 243.83 159.79 233.38 160.88 C 222.92 161.96 190.71 164.81 178.12 166.12 C 165.54 167.44 166.44 167.96 157.88 168.75 C 149.31 169.54 137.40 170.33 126.75 170.88 C 116.10 171.42 100.44 171.50 94.00 172.00 C 87.56 172.50 89.44 173.21 88.12 173.88 C 86.81 174.54 86.50 175.25 86.12 176.00 C 85.75 176.75 85.69 177.60 85.88 178.38 C 86.06 179.15 86.35 179.73 87.25 180.62 C 88.15 181.52 89.31 182.58 91.25 183.75 C 93.19 184.92 96.33 186.46 98.88 187.62 C 101.42 188.79 103.65 189.77 106.50 190.75 C 109.35 191.73 113.02 193.00 116.00 193.50 C 118.98 194.00 116.94 195.00 124.38 193.75 C 131.81 192.50 150.83 187.96 160.62 186.00 C 170.42 184.04 175.83 183.17 183.12 182.00 C 190.42 180.83 197.50 179.83 204.38 179.00 C 211.25 178.17 212.23 177.88 224.38 177.00 C 236.52 176.12 268.33 174.40 277.25 173.75 C 286.17 173.10 277.83 175.79 277.88 173.12 C 277.92 170.46 281.81 159.98 277.50 157.75 Z" id="s-2-f-3"/>
<path d="M 229.88 161.62 C 229.67 159.23 242.75 159.77 228.75 161.12 C 214.75 162.48 168.33 167.94 145.88 169.75 C 123.42 171.56 103.62 171.31 94.00 172.00 C 84.38 172.69 89.44 173.21 88.12 173.88 C 86.81 174.54 86.50 175.25 86.12 176.00 C 85.75 176.75 85.88 177.81 85.88 178.38 C 85.88 178.94 85.50 178.65 86.12 179.38 C 86.75 180.10 87.17 181.23 89.62 182.75 C 92.08 184.27 97.56 187.00 100.88 188.50 C 104.19 190.00 106.98 190.92 109.50 191.75 C 112.02 192.58 113.54 193.17 116.00 193.50 C 118.46 193.83 116.79 195.00 124.25 193.75 C 131.71 192.50 150.94 187.96 160.75 186.00 C 170.56 184.04 174.35 183.33 183.12 182.00 C 191.90 180.67 205.81 178.83 213.38 178.00 C 220.94 177.17 225.77 177.25 228.50 177.00 C 231.23 176.75 229.50 176.75 229.75 176.50 C 230.00 176.25 229.98 177.98 230.00 175.50 C 230.02 173.02 230.08 164.02 229.88 161.62 Z" id="s-2-f-4"/>
<path d="M 181.75 167.00 C 181.60 164.56 181.50 166.29 181.12 166.12 C 180.75 165.96 183.38 165.56 179.50 166.00 C 175.62 166.44 163.77 168.10 157.88 168.75 C 151.98 169.40 154.77 169.33 144.12 169.88 C 133.48 170.42 103.02 171.48 94.00 172.00 C 84.98 172.52 91.02 172.65 90.00 173.00 C 88.98 173.35 88.52 173.62 87.88 174.12 C 87.23 174.62 86.46 175.29 86.12 176.00 C 85.79 176.71 85.88 177.81 85.88 178.38 C 85.88 178.94 85.50 178.65 86.12 179.38 C 86.75 180.10 87.17 181.23 89.62 182.75 C 92.08 184.27 97.56 187.00 100.88 188.50 C 104.19 190.00 106.88 190.90 109.50 191.75 C 112.12 192.60 114.17 193.29 116.62 193.62 C 119.08 193.96 116.90 195.02 124.25 193.75 C 131.60 192.48 151.23 187.88 160.75 186.00 C 170.27 184.12 177.83 183.38 181.38 182.50 C 184.92 181.62 181.94 183.33 182.00 180.75 C 182.06 178.17 181.90 169.44 181.75 167.00 Z" id="s-2-f-5"/>
<path d="M 133.88 191.50 C 134.38 188.15 134.00 175.81 134.00 172.38 C 134.00 168.94 133.98 171.21 133.88 170.88 C 133.77 170.54 140.02 170.19 133.38 170.38 C 126.73 170.56 101.48 171.44 94.00 172.00 C 86.52 172.56 89.69 173.25 88.50 173.75 C 87.31 174.25 87.29 174.56 86.88 175.00 C 86.46 175.44 86.12 175.65 86.00 176.38 C 85.88 177.10 85.50 178.31 86.12 179.38 C 86.75 180.44 87.62 181.38 89.75 182.75 C 91.88 184.12 95.58 186.12 98.88 187.62 C 102.17 189.12 106.46 190.73 109.50 191.75 C 112.54 192.77 114.67 193.42 117.12 193.75 C 119.58 194.08 121.94 193.96 124.25 193.75 C 126.56 193.54 129.40 192.88 131.00 192.50 C 132.60 192.12 133.38 194.85 133.88 191.50 Z" id="s-2-f-6"/>
</g>
<g id="s-3" clip-path="url(#c-s-3)">
<use href="#s-3-f-0"/>
<path d="M 256.62 174.50 C 252.06 174.31 236.38 175.38 231.25 175.75 C 226.12 176.12 226.73 176.23 225.88 176.75 C 225.02 177.27 225.69 177.71 226.12 178.88 C 226.56 180.04 227.73 181.62 228.50 183.75 C 229.27 185.88 230.02 188.15 230.75 191.62 C 231.48 195.10 232.38 200.10 232.88 204.62 C 233.38 209.15 233.60 212.10 233.75 218.75 C 233.90 225.40 233.92 235.94 233.75 244.50 C 233.58 253.06 234.25 257.56 232.75 270.12 C 231.25 282.69 226.02 311.33 224.75 319.88 C 223.48 328.42 224.50 320.52 225.12 321.38 C 225.75 322.23 227.40 324.10 228.50 325.00 C 229.60 325.90 230.52 326.46 231.75 326.75 C 232.98 327.04 234.77 326.92 235.88 326.75 C 236.98 326.58 237.40 326.35 238.38 325.75 C 239.35 325.15 240.46 324.33 241.75 323.12 C 243.04 321.92 244.46 320.58 246.12 318.50 C 247.79 316.42 250.48 312.75 251.75 310.62 C 253.02 308.50 253.08 307.77 253.75 305.75 C 254.42 303.73 255.10 302.25 255.75 298.50 C 256.40 294.75 257.27 286.73 257.62 283.25 C 257.98 279.77 257.85 282.21 257.88 277.62 C 257.90 273.04 258.04 263.15 257.75 255.75 C 257.46 248.35 256.42 240.94 256.12 233.25 C 255.83 225.56 255.85 215.90 256.00 209.62 C 256.15 203.35 256.35 200.04 257.00 195.62 C 257.65 191.21 259.44 185.90 259.88 183.12 C 260.31 180.35 259.83 180.04 259.62 179.00 C 259.42 177.96 259.12 177.62 258.62 176.88 C 258.12 176.12 261.19 174.69 256.62 174.50 Z" id="s-3-f-1"/>
<path d="M 256.62 174.50 C 252.06 174.31 236.38 175.38 231.25 175.75 C 226.12 176.12 226.75 176.29 225.88 176.75 C 225.00 177.21 225.56 177.33 226.00 178.50 C 226.44 179.67 227.71 181.56 228.50 183.75 C 229.29 185.94 230.02 188.15 230.75 191.62 C 231.48 195.10 232.38 200.10 232.88 204.62 C 233.38 209.15 233.60 212.10 233.75 218.75 C 233.90 225.40 233.92 235.94 233.75 244.50 C 233.58 253.06 233.71 261.10 232.75 270.12 C 231.79 279.15 228.83 293.23 228.00 298.62 C 227.17 304.02 228.27 299.29 227.75 302.50 C 227.23 305.71 225.29 315.15 224.88 317.88 C 224.46 320.60 221.88 318.69 225.25 318.88 C 228.62 319.06 241.69 319.04 245.12 319.00 C 248.56 318.96 244.77 320.02 245.88 318.62 C 246.98 317.23 250.44 312.77 251.75 310.62 C 253.06 308.48 253.08 307.77 253.75 305.75 C 254.42 303.73 255.10 302.25 255.75 298.50 C 256.40 294.75 257.27 286.75 257.62 283.25 C 257.98 279.75 257.85 282.08 257.88 277.50 C 257.90 272.92 258.04 263.12 257.75 255.75 C 257.46 248.38 256.42 240.94 256.12 233.25 C 255.83 225.56 255.85 215.90 256.00 209.62 C 256.15 203.35 256.35 200.02 257.00 195.62 C 257.65 191.23 259.44 186.02 259.88 183.25 C 260.31 180.48 259.83 180.06 259.62 179.00 C 259.42 177.94 259.12 177.62 258.62 176.88 C 258.12 176.12 261.19 174.69 256.62 174.50 Z" id="s-3-f-2"/>
<path d="M 256.62 174.50 C 251.94 174.06 236.38 175.38 231.25 175.75 C 226.12 176.12 226.73 176.23 225.88 176.75 C 225.02 177.27 225.69 177.71 226.12 178.88 C 226.56 180.04 227.73 181.62 228.50 183.75 C 229.27 185.88 230.02 188.08 230.75 191.62 C 231.48 195.17 232.38 200.48 232.88 205.00 C 233.38 209.52 233.60 212.17 233.75 218.75 C 233.90 225.33 233.92 236.12 233.75 244.50 C 233.58 252.88 232.85 264.60 232.75 269.00 C 232.65 273.40 230.21 270.54 233.12 270.88 C 236.04 271.21 246.17 271.04 250.25 271.00 C 254.33 270.96 256.35 270.75 257.62 270.62 C 258.90 270.50 257.85 272.81 257.88 270.25 C 257.90 267.69 258.04 261.25 257.75 255.25 C 257.46 249.25 256.42 241.85 256.12 234.25 C 255.83 226.65 255.85 216.04 256.00 209.62 C 256.15 203.21 256.67 198.96 257.00 195.75 C 257.33 192.54 257.54 192.23 258.00 190.38 C 258.46 188.52 259.44 186.19 259.75 184.62 C 260.06 183.06 259.94 182.04 259.88 181.00 C 259.81 179.96 259.92 179.46 259.38 178.38 C 258.83 177.29 261.31 174.94 256.62 174.50 Z" id="s-3-f-3"/>
<path d="M 256.62 174.50 C 251.94 174.06 236.38 175.38 231.25 175.75 C 226.12 176.12 226.73 176.23 225.88 176.75 C 225.02 177.27 225.81 178.04 226.12 178.88 C 226.44 179.71 227.19 180.42 227.75 181.75 C 228.31 183.08 228.83 184.38 229.50 186.88 C 230.17 189.38 231.19 193.73 231.75 196.75 C 232.31 199.77 232.50 200.73 232.88 205.00 C 233.25 209.27 233.60 219.42 234.00 222.38 C 234.40 225.33 231.73 222.65 235.25 222.75 C 238.77 222.85 251.75 223.04 255.12 223.00 C 258.50 222.96 255.19 227.04 255.50 222.50 C 255.81 217.96 256.27 202.29 257.00 195.75 C 257.73 189.21 259.48 186.15 259.88 183.25 C 260.27 180.35 259.92 179.83 259.38 178.38 C 258.83 176.92 261.31 174.94 256.62 174.50 Z" id="s-3-f-4"/>
</g>
<g id="s-4" clip-path="url(#c-s-4)">
<use href="#s-4-f-0"/>
<path d="M 138.88 203.38 C 138.69 203.85 138.25 203.67 139.12 204.88 C 140.00 206.08 140.67 207.04 144.12 210.62 C 147.58 214.21 155.96 222.69 159.88 226.38 C 163.79 230.06 165.38 231.02 167.62 232.75 C 169.88 234.48 171.62 235.77 173.38 236.75 C 175.12 237.73 176.25 238.29 178.12 238.62 C 180.00 238.96 183.17 238.92 184.62 238.75 C 186.08 238.58 186.48 241.73 186.88 237.62 C 187.27 233.52 187.06 218.44 187.00 214.12 C 186.94 209.81 187.12 212.44 186.50 211.75 C 185.88 211.06 184.65 210.60 183.25 210.00 C 181.85 209.40 182.25 209.29 178.12 208.12 C 174.00 206.96 162.92 204.00 158.50 203.00 C 154.08 202.00 154.67 202.29 151.62 202.12 C 148.58 201.96 142.38 201.79 140.25 202.00 C 138.12 202.21 139.06 202.90 138.88 203.38 Z" id="s-4-f-1"/>
</g>
<g id="s-5" clip-path="url(#c-s-5)">
<use href="#s-5-f-0"/>
<path d="M 193.88 251.00 C 193.73 248.81 197.00 249.19 193.12 250.62 C 189.25 252.06 174.71 258.06 170.62 259.62 C 166.54 261.19 171.00 259.12 168.62 260.00 C 166.25 260.88 162.60 262.58 156.38 264.88 C 150.15 267.17 139.12 271.10 131.25 273.75 C 123.38 276.40 114.46 279.35 109.12 280.75 C 103.79 282.15 101.12 281.60 99.25 282.12 C 97.38 282.65 98.06 283.21 97.88 283.88 C 97.69 284.54 97.79 285.21 98.12 286.12 C 98.46 287.04 98.94 288.04 99.88 289.38 C 100.81 290.71 102.48 292.73 103.75 294.12 C 105.02 295.52 105.71 296.29 107.50 297.75 C 109.29 299.21 111.77 301.21 114.50 302.88 C 117.23 304.54 121.67 306.77 123.88 307.75 C 126.08 308.73 126.48 308.58 127.75 308.75 C 129.02 308.92 127.35 311.40 131.50 308.75 C 135.65 306.10 142.31 300.19 152.62 292.88 C 162.94 285.56 186.48 269.73 193.38 264.88 C 200.27 260.02 193.92 266.06 194.00 263.75 C 194.08 261.44 194.02 253.19 193.88 251.00 Z" id="s-5-f-1"/>
<path d="M 145.12 269.00 C 139.00 269.54 116.71 278.58 109.12 280.75 C 101.54 282.92 101.44 281.50 99.62 282.00 C 97.81 282.50 98.50 283.06 98.25 283.75 C 98.00 284.44 97.85 285.19 98.12 286.12 C 98.40 287.06 98.94 288.04 99.88 289.38 C 100.81 290.71 102.48 292.73 103.75 294.12 C 105.02 295.52 105.71 296.29 107.50 297.75 C 109.29 299.21 111.81 301.23 114.50 302.88 C 117.19 304.52 121.44 306.65 123.62 307.62 C 125.81 308.60 126.31 308.56 127.62 308.75 C 128.94 308.94 128.48 310.60 131.50 308.75 C 134.52 306.90 143.35 302.83 145.75 297.62 C 148.15 292.42 145.98 282.27 145.88 277.50 C 145.77 272.73 151.25 268.46 145.12 269.00 Z" id="s-5-f-2"/>
</g>
<g id="s-6" clip-path="url(#c-s-6)">
<use href="#s-6-f-0"/>
<path d="M 351.75 202.75 C 350.79 201.23 349.27 198.81 347.00 196.50 C 344.73 194.19 340.85 190.96 338.12 188.88 C 335.40 186.79 332.69 185.15 330.62 184.00 C 328.56 182.85 327.12 182.33 325.75 182.00 C 324.38 181.67 323.17 181.85 322.38 182.00 C 321.58 182.15 321.56 182.33 321.00 182.88 C 320.44 183.42 320.38 183.02 319.00 185.25 C 317.62 187.48 314.92 192.90 312.75 196.25 C 310.58 199.60 307.15 200.77 306.00 205.38 C 304.85 209.98 305.77 220.71 305.88 223.88 C 305.98 227.04 302.31 225.69 306.62 224.38 C 310.94 223.06 325.04 217.94 331.75 216.00 C 338.46 214.06 343.92 213.46 346.88 212.75 C 349.83 212.04 348.73 212.12 349.50 211.75 C 350.27 211.38 350.96 211.02 351.50 210.50 C 352.04 209.98 352.54 209.44 352.75 208.62 C 352.96 207.81 352.92 206.60 352.75 205.62 C 352.58 204.65 352.71 204.27 351.75 202.75 Z" id="s-6-f-1"/>
</g>
<g id="s-7" clip-path="url(#c-s-7)">
<use href="#s-7-f-0"/>
<path d="M 277.00 243.12 C 276.08 243.52 276.40 244.52 277.00 245.50 C 277.60 246.48 277.94 247.08 280.62 249.00 C 283.31 250.92 289.69 254.65 293.12 257.00 C 296.56 259.35 295.31 258.15 301.25 263.12 C 307.19 268.10 322.21 281.42 328.75 286.88 C 335.29 292.33 337.31 293.56 340.50 295.88 C 343.69 298.19 345.38 299.29 347.88 300.75 C 350.38 302.21 353.23 303.65 355.50 304.62 C 357.77 305.60 359.60 306.27 361.50 306.62 C 363.40 306.98 365.67 306.88 366.88 306.75 C 368.08 306.62 368.15 306.25 368.75 305.88 C 369.35 305.50 369.85 305.19 370.50 304.50 C 371.15 303.81 372.21 302.60 372.62 301.75 C 373.04 300.90 372.98 302.67 373.00 299.38 C 373.02 296.08 373.58 286.08 372.75 282.00 C 371.92 277.92 369.81 276.88 368.00 274.88 C 366.19 272.88 364.31 271.62 361.88 270.00 C 359.44 268.38 357.83 267.27 353.38 265.12 C 348.92 262.98 339.75 258.98 335.12 257.12 C 330.50 255.27 332.60 256.02 325.62 254.00 C 318.65 251.98 300.44 246.81 293.25 245.00 C 286.06 243.19 285.21 243.44 282.50 243.12 C 279.79 242.81 277.92 242.73 277.00 243.12 Z" id="s-7-f-1"/>
<path d="M 277.00 243.12 C 276.08 243.52 276.52 244.62 277.00 245.50 C 277.48 246.38 276.52 245.96 279.88 248.38 C 283.23 250.79 291.83 256.08 297.12 260.00 C 302.42 263.92 307.21 268.08 311.62 271.88 C 316.04 275.67 321.44 280.90 323.62 282.75 C 325.81 284.60 324.52 287.46 324.75 283.00 C 324.98 278.54 325.04 260.85 325.00 256.00 C 324.96 251.15 326.54 254.85 324.50 253.88 C 322.46 252.90 317.96 251.60 312.75 250.12 C 307.54 248.65 298.29 246.17 293.25 245.00 C 288.21 243.83 285.21 243.44 282.50 243.12 C 279.79 242.81 277.92 242.73 277.00 243.12 Z" id="s-7-f-2"/>
</g>
<g id="s-8" clip-path="url(#c-s-8)">
<use href="#s-8-f-0"/>
<path d="M 106.62 346.00 C 105.77 346.83 105.25 347.92 105.00 349.00 C 104.75 350.08 104.48 351.67 105.12 352.50 C 105.77 353.33 107.23 353.00 108.88 354.00 C 110.52 355.00 113.00 356.65 115.00 358.50 C 117.00 360.35 119.08 362.33 120.88 365.12 C 122.67 367.92 124.60 372.40 125.75 375.25 C 126.90 378.10 127.15 379.60 127.75 382.25 C 128.35 384.90 129.02 389.54 129.38 391.12 C 129.73 392.71 126.08 391.60 129.88 391.75 C 133.67 391.90 147.79 392.06 152.12 392.00 C 156.46 391.94 155.79 394.17 155.88 391.38 C 155.96 388.58 153.44 378.75 152.62 375.25 C 151.81 371.75 151.48 372.44 151.00 370.38 C 150.52 368.31 150.06 364.25 149.75 362.88 C 149.44 361.50 153.75 365.12 149.12 362.12 C 144.50 359.12 127.19 347.90 122.00 344.88 C 116.81 341.85 119.98 344.15 118.00 344.00 C 116.02 343.85 112.02 343.67 110.12 344.00 C 108.23 344.33 107.48 345.17 106.62 346.00 Z" id="s-8-f-1"/>
</g>
<g id="s-9" clip-path="url(#c-s-9)">
<use href="#s-9-f-0"/>
<path d="M 384.75 346.00 C 384.46 344.60 384.60 344.38 382.88 342.38 C 381.15 340.38 376.96 336.23 374.38 334.00 C 371.79 331.77 370.92 331.15 367.38 329.00 C 363.83 326.85 356.33 322.77 353.12 321.12 C 349.92 319.48 349.27 319.50 348.12 319.12 C 346.98 318.75 348.83 318.73 346.25 318.88 C 343.67 319.02 336.48 319.35 332.62 320.00 C 328.77 320.65 326.81 321.98 323.12 322.75 C 319.44 323.52 335.27 321.90 310.50 324.62 C 285.73 327.35 200.54 336.27 174.50 339.12 C 148.46 341.98 162.67 340.94 154.25 341.75 C 145.83 342.56 129.40 343.40 124.00 344.00 C 118.60 344.60 122.15 345.02 121.88 345.38 C 121.60 345.73 122.12 345.98 122.38 346.12 C 122.62 346.27 119.00 343.46 123.38 346.25 C 127.75 349.04 144.25 360.06 148.62 362.88 C 153.00 365.69 147.67 363.60 149.62 363.12 C 151.58 362.65 156.10 360.92 160.38 360.00 C 164.65 359.08 170.77 358.46 175.25 357.62 C 179.73 356.79 184.83 355.44 187.25 355.00 C 189.67 354.56 182.75 356.00 189.75 355.00 C 196.75 354.00 218.94 350.31 229.25 349.00 C 239.56 347.69 246.23 347.48 251.62 347.12 C 257.02 346.77 253.50 347.58 261.62 346.88 C 269.75 346.17 291.40 343.69 300.38 342.88 C 309.35 342.06 310.98 342.08 315.50 342.00 C 320.02 341.92 325.04 342.21 327.50 342.38 C 329.96 342.54 329.31 342.65 330.25 343.00 C 331.19 343.35 332.35 343.94 333.12 344.50 C 333.90 345.06 334.44 345.69 334.88 346.38 C 335.31 347.06 335.62 347.42 335.75 348.62 C 335.88 349.83 335.81 351.50 335.62 353.62 C 335.44 355.75 335.25 357.58 334.62 361.38 C 334.00 365.17 332.17 373.81 331.88 376.38 C 331.58 378.94 327.04 376.67 332.88 376.75 C 338.71 376.83 359.88 378.92 366.88 376.88 C 373.88 374.83 372.23 368.21 374.88 364.50 C 377.52 360.79 381.12 356.92 382.75 354.62 C 384.38 352.33 384.29 352.19 384.62 350.75 C 384.96 349.31 385.04 347.40 384.75 346.00 Z" id="s-9-f-1"/>
<path d="M 366.12 328.38 C 364.96 327.56 361.75 325.65 359.12 324.25 C 356.50 322.85 352.31 320.88 350.38 320.00 C 348.44 319.12 348.92 319.17 347.50 319.00 C 346.08 318.83 344.35 318.83 341.88 319.00 C 339.40 319.17 335.04 319.54 332.62 320.00 C 330.21 320.46 330.02 321.10 327.38 321.75 C 324.73 322.40 342.04 321.00 316.75 323.88 C 291.46 326.75 202.69 336.02 175.62 339.00 C 148.56 341.98 162.98 340.92 154.38 341.75 C 145.77 342.58 129.25 343.56 124.00 344.00 C 118.75 344.44 123.23 344.12 122.88 344.38 C 122.52 344.62 119.15 343.50 121.88 345.50 C 124.60 347.50 134.79 353.48 139.25 356.38 C 143.71 359.27 146.90 361.75 148.62 362.88 C 150.35 364.00 148.48 363.31 149.62 363.12 C 150.77 362.94 153.71 362.27 155.50 361.75 C 157.29 361.23 157.21 360.67 160.38 360.00 C 163.54 359.33 170.02 358.58 174.50 357.75 C 178.98 356.92 182.25 355.81 187.25 355.00 C 192.25 354.19 198.90 353.71 204.50 352.88 C 210.10 352.04 214.77 350.83 220.88 350.00 C 226.98 349.17 234.33 348.40 241.12 347.88 C 247.92 347.35 251.79 347.71 261.62 346.88 C 271.46 346.04 290.06 343.71 300.12 342.88 C 310.19 342.04 317.56 342.21 322.00 341.88 C 326.44 341.54 321.08 342.50 326.75 340.88 C 332.42 339.25 349.56 333.98 356.00 332.12 C 362.44 330.27 363.69 330.25 365.38 329.75 C 367.06 329.25 366.00 329.35 366.12 329.12 C 366.25 328.90 367.29 329.19 366.12 328.38 Z" id="s-9-f-2"/>
<path d="M 362.00 326.62 C 361.77 325.75 362.75 326.23 360.50 325.00 C 358.25 323.77 351.60 320.25 348.50 319.25 C 345.40 318.25 344.52 318.88 341.88 319.00 C 339.23 319.12 335.04 319.54 332.62 320.00 C 330.21 320.46 330.02 321.10 327.38 321.75 C 324.73 322.40 342.04 321.00 316.75 323.88 C 291.46 326.75 202.69 336.02 175.62 339.00 C 148.56 341.98 162.98 340.92 154.38 341.75 C 145.77 342.58 129.25 343.56 124.00 344.00 C 118.75 344.44 123.23 344.12 122.88 344.38 C 122.52 344.62 119.15 343.50 121.88 345.50 C 124.60 347.50 134.79 353.48 139.25 356.38 C 143.71 359.27 146.90 361.75 148.62 362.88 C 150.35 364.00 148.48 363.31 149.62 363.12 C 150.77 362.94 153.71 362.27 155.50 361.75 C 157.29 361.23 157.21 360.67 160.38 360.00 C 163.54 359.33 170.02 358.58 174.50 357.75 C 178.98 356.92 182.25 355.81 187.25 355.00 C 192.25 354.19 198.90 353.71 204.50 352.88 C 210.10 352.04 214.77 350.83 220.88 350.00 C 226.98 349.17 234.33 348.40 241.12 347.88 C 247.92 347.35 251.79 347.71 261.62 346.88 C 271.46 346.04 290.06 343.71 300.12 342.88 C 310.19 342.04 317.56 342.21 322.00 341.88 C 326.44 341.54 320.21 342.71 326.75 340.88 C 333.29 339.04 355.40 332.65 361.25 330.88 C 367.10 329.10 361.75 330.96 361.88 330.25 C 362.00 329.54 362.23 327.50 362.00 326.62 Z" id="s-9-f-3"/>
<path d="M 313.88 324.62 C 313.69 321.88 336.10 321.71 312.88 324.12 C 289.65 326.54 200.96 336.19 174.50 339.12 C 148.04 342.06 162.54 340.94 154.12 341.75 C 145.71 342.56 129.21 343.56 124.00 344.00 C 118.79 344.44 123.23 344.12 122.88 344.38 C 122.52 344.62 117.42 342.38 121.88 345.50 C 126.33 348.62 143.21 360.71 149.62 363.12 C 156.04 365.54 155.96 360.94 160.38 360.00 C 164.79 359.06 171.65 358.33 176.12 357.50 C 180.60 356.67 182.52 355.77 187.25 355.00 C 191.98 354.23 198.85 353.71 204.50 352.88 C 210.15 352.04 215.52 350.79 221.12 350.00 C 226.73 349.21 231.38 348.65 238.12 348.12 C 244.88 347.60 253.50 347.56 261.62 346.88 C 269.75 346.19 278.25 344.79 286.88 344.00 C 295.50 343.21 308.85 342.69 313.38 342.12 C 317.90 341.56 313.92 343.54 314.00 340.62 C 314.08 337.71 314.06 327.38 313.88 324.62 Z" id="s-9-f-4"/>
<path d="M 266.00 331.00 C 265.94 328.44 280.88 328.15 265.62 329.50 C 250.38 330.85 193.08 337.08 174.50 339.12 C 155.92 341.17 162.54 340.94 154.12 341.75 C 145.71 342.56 129.21 343.56 124.00 344.00 C 118.79 344.44 123.23 344.12 122.88 344.38 C 122.52 344.62 117.42 342.38 121.88 345.50 C 126.33 348.62 143.21 360.71 149.62 363.12 C 156.04 365.54 155.96 360.94 160.38 360.00 C 164.79 359.06 171.65 358.33 176.12 357.50 C 180.60 356.67 182.56 355.77 187.25 355.00 C 191.94 354.23 198.60 353.71 204.25 352.88 C 209.90 352.04 215.48 350.79 221.12 350.00 C 226.77 349.21 232.27 348.65 238.12 348.12 C 243.98 347.60 252.60 347.06 256.25 346.88 C 259.90 346.69 258.48 347.10 260.00 347.00 C 261.52 346.90 264.38 346.60 265.38 346.25 C 266.38 345.90 265.90 347.42 266.00 344.88 C 266.10 342.33 266.06 333.56 266.00 331.00 Z" id="s-9-f-5"/>
<path d="M 218.00 336.00 C 217.90 333.62 218.27 334.92 217.38 334.75 C 216.48 334.58 223.17 333.83 212.62 335.00 C 202.08 336.17 168.90 340.25 154.12 341.75 C 139.35 343.25 129.21 343.56 124.00 344.00 C 118.79 344.44 123.23 344.12 122.88 344.38 C 122.52 344.62 117.42 342.38 121.88 345.50 C 126.33 348.62 143.21 360.71 149.62 363.12 C 156.04 365.54 156.10 360.92 160.38 360.00 C 164.65 359.08 170.77 358.46 175.25 357.62 C 179.73 356.79 180.23 356.15 187.25 355.00 C 194.27 353.85 212.25 351.75 217.38 350.75 C 222.50 349.75 217.90 351.46 218.00 349.00 C 218.10 346.54 218.10 338.38 218.00 336.00 Z" id="s-9-f-6"/>
<path d="M 169.88 357.88 C 170.02 354.98 170.08 344.25 170.00 341.25 C 169.92 338.25 173.77 339.62 169.38 339.88 C 164.98 340.12 151.19 342.06 143.62 342.75 C 136.06 343.44 127.62 343.56 124.00 344.00 C 120.38 344.44 122.15 345.02 121.88 345.38 C 121.60 345.73 121.79 345.77 122.38 346.12 C 122.96 346.48 120.88 344.67 125.38 347.50 C 129.88 350.33 144.29 360.77 149.38 363.12 C 154.46 365.48 154.04 362.15 155.88 361.62 C 157.71 361.10 158.17 360.50 160.38 360.00 C 162.58 359.50 167.54 358.98 169.12 358.62 C 170.71 358.27 169.73 360.77 169.88 357.88 Z" id="s-9-f-7"/>
</g>
<g id="s-10" clip-path="url(#c-s-10)">
<use href="#s-10-f-0"/>
<path d="M 212.75 350.75 C 212.31 350.67 210.98 350.62 210.25 350.75 C 209.52 350.88 209.48 351.35 208.38 351.50 C 207.27 351.65 204.79 351.46 203.62 351.62 C 202.46 351.79 202.52 352.33 201.38 352.50 C 200.23 352.67 197.77 352.46 196.75 352.62 C 195.73 352.79 196.42 353.33 195.25 353.50 C 194.08 353.67 191.00 353.38 189.75 353.62 C 188.50 353.88 187.42 353.98 187.75 355.00 C 188.08 356.02 190.56 357.92 191.75 359.75 C 192.94 361.58 193.88 362.85 194.88 366.00 C 195.88 369.15 196.88 373.19 197.75 378.62 C 198.62 384.06 199.60 395.08 200.12 398.62 C 200.65 402.17 197.81 399.65 200.88 399.88 C 203.94 400.10 215.33 400.02 218.50 400.00 C 221.67 399.98 219.60 399.90 219.88 399.75 C 220.15 399.60 220.27 403.08 220.12 399.12 C 219.98 395.17 219.23 382.65 219.00 376.00 C 218.77 369.35 219.19 362.58 218.75 359.25 C 218.31 355.92 217.23 356.88 216.38 356.00 C 215.52 355.12 214.65 354.60 213.62 354.00 C 212.60 353.40 210.83 352.75 210.25 352.38 C 209.67 352.00 209.69 351.94 210.12 351.75 C 210.56 351.56 212.44 351.42 212.88 351.25 C 213.31 351.08 213.19 350.83 212.75 350.75 Z" id="s-10-f-1"/>
</g>
<g id="s-11" clip-path="url(#c-s-11)">
<use href="#s-11-f-0"/>
<path d="M 285.62 344.12 C 285.79 343.98 281.81 343.60 281.00 343.62 C 280.19 343.65 280.96 344.17 280.75 344.25 C 280.54 344.33 279.90 344.21 279.75 344.12 C 279.60 344.04 280.15 343.69 279.88 343.75 C 279.60 343.81 279.69 344.35 278.12 344.50 C 276.56 344.65 272.10 344.48 270.50 344.62 C 268.90 344.77 270.17 345.21 268.50 345.38 C 266.83 345.54 262.27 345.42 260.50 345.62 C 258.73 345.83 258.00 344.73 257.88 346.62 C 257.75 348.52 259.46 353.06 259.75 357.00 C 260.04 360.94 259.90 364.52 259.62 370.25 C 259.35 375.98 258.29 387.60 258.12 391.38 C 257.96 395.15 255.21 392.60 258.62 392.88 C 262.04 393.15 275.15 393.06 278.62 393.00 C 282.10 392.94 278.77 394.50 279.50 392.50 C 280.23 390.50 281.17 386.33 283.00 381.00 C 284.83 375.67 289.19 364.27 290.50 360.50 C 291.81 356.73 290.83 359.12 290.88 358.38 C 290.92 357.62 291.33 357.21 290.75 356.00 C 290.17 354.79 288.88 352.73 287.38 351.12 C 285.88 349.52 283.12 347.38 281.75 346.38 C 280.38 345.38 279.42 345.44 279.12 345.12 C 278.83 344.81 278.92 344.67 280.00 344.50 C 281.08 344.33 285.46 344.27 285.62 344.12 Z" id="s-11-f-1"/>
</g>
<g id="s-12" clip-path="url(#c-s-12)">
<use href="#s-12-f-0"/>
<path d="M 424.75 411.75 C 423.85 406.67 421.44 410.29 419.62 410.00 C 417.81 409.71 417.94 409.65 413.88 410.00 C 409.81 410.35 401.21 411.33 395.25 412.12 C 389.29 412.92 385.48 413.81 378.12 414.75 C 370.77 415.69 357.00 417.27 351.12 417.75 C 345.25 418.23 345.35 417.50 342.88 417.62 C 340.40 417.75 338.58 418.33 336.25 418.50 C 333.92 418.67 331.21 418.40 328.88 418.62 C 326.54 418.85 328.12 419.35 322.25 419.88 C 316.38 420.40 300.98 421.40 293.62 421.75 C 286.27 422.10 282.17 421.83 278.12 422.00 C 274.08 422.17 273.02 422.67 269.38 422.75 C 265.73 422.83 264.06 422.00 256.25 422.50 C 248.44 423.00 229.90 425.23 222.50 425.75 C 215.10 426.27 214.96 425.44 211.88 425.62 C 208.79 425.81 209.54 426.46 204.00 426.88 C 198.46 427.29 185.83 427.65 178.62 428.12 C 171.42 428.60 164.77 429.50 160.75 429.75 C 156.73 430.00 156.04 429.52 154.50 429.62 C 152.96 429.73 153.06 430.19 151.50 430.38 C 149.94 430.56 146.92 430.50 145.12 430.75 C 143.33 431.00 145.81 431.38 140.75 431.88 C 135.69 432.38 130.44 433.06 114.75 433.75 C 99.06 434.44 58.48 435.46 46.62 436.00 C 34.77 436.54 44.38 436.62 43.62 437.00 C 42.88 437.38 42.56 437.75 42.12 438.25 C 41.69 438.75 41.21 439.31 41.00 440.00 C 40.79 440.69 40.62 441.56 40.88 442.38 C 41.12 443.19 41.58 443.98 42.50 444.88 C 43.42 445.77 43.69 446.27 46.38 447.75 C 49.06 449.23 54.65 452.10 58.62 453.75 C 62.60 455.40 67.54 456.81 70.25 457.62 C 72.96 458.44 72.96 458.42 74.88 458.62 C 76.79 458.83 70.23 460.27 81.75 458.88 C 93.27 457.48 128.08 452.25 144.00 450.25 C 159.92 448.25 167.17 447.77 177.25 446.88 C 187.33 445.98 189.54 445.69 204.50 444.88 C 219.46 444.06 245.94 442.79 267.00 442.00 C 288.06 441.21 312.42 440.46 330.88 440.12 C 349.33 439.79 362.23 439.77 377.75 440.00 C 393.27 440.23 416.12 441.42 424.00 441.50 C 431.88 441.58 424.88 445.46 425.00 440.50 C 425.12 435.54 425.65 416.83 424.75 411.75 Z" id="s-12-f-1"/>
<path d="M 377.00 415.50 C 376.90 412.56 380.69 414.50 376.38 414.88 C 372.06 415.25 356.71 417.29 351.12 417.75 C 345.54 418.21 345.35 417.50 342.88 417.62 C 340.40 417.75 338.58 418.33 336.25 418.50 C 333.92 418.67 331.21 418.40 328.88 418.62 C 326.54 418.85 328.12 419.35 322.25 419.88 C 316.38 420.40 300.98 421.40 293.62 421.75 C 286.27 422.10 282.17 421.83 278.12 422.00 C 274.08 422.17 273.02 422.67 269.38 422.75 C 265.73 422.83 264.06 422.00 256.25 422.50 C 248.44 423.00 229.90 425.23 222.50 425.75 C 215.10 426.27 214.96 425.44 211.88 425.62 C 208.79 425.81 209.54 426.46 204.00 426.88 C 198.46 427.29 185.83 427.65 178.62 428.12 C 171.42 428.60 164.77 429.50 160.75 429.75 C 156.73 430.00 156.04 429.52 154.50 429.62 C 152.96 429.73 153.06 430.19 151.50 430.38 C 149.94 430.56 146.92 430.50 145.12 430.75 C 143.33 431.00 145.04 431.42 140.75 431.88 C 136.46 432.33 127.29 433.02 119.38 433.50 C 111.46 433.98 105.38 434.33 93.25 434.75 C 81.12 435.17 54.88 435.62 46.62 436.00 C 38.38 436.38 44.50 436.62 43.75 437.00 C 43.00 437.38 42.58 437.75 42.12 438.25 C 41.67 438.75 41.21 439.31 41.00 440.00 C 40.79 440.69 40.71 441.65 40.88 442.38 C 41.04 443.10 41.31 443.62 42.00 444.38 C 42.69 445.12 43.71 445.98 45.00 446.88 C 46.29 447.77 47.48 448.60 49.75 449.75 C 52.02 450.90 55.21 452.44 58.62 453.75 C 62.04 455.06 67.54 456.81 70.25 457.62 C 72.96 458.44 72.94 458.42 74.88 458.62 C 76.81 458.83 69.98 460.31 81.88 458.88 C 93.77 457.44 130.35 452.00 146.25 450.00 C 162.15 448.00 167.92 447.71 177.25 446.88 C 186.58 446.04 182.60 445.98 202.25 445.00 C 221.90 444.02 272.17 441.83 295.12 441.00 C 318.08 440.17 326.44 440.17 340.00 440.00 C 353.56 439.83 370.33 441.25 376.50 440.00 C 382.67 438.75 376.92 436.58 377.00 432.50 C 377.08 428.42 377.10 418.44 377.00 415.50 Z" id="s-12-f-2"/>
<path d="M 328.88 419.38 C 328.81 416.10 328.83 418.98 328.62 418.88 C 328.42 418.77 328.69 418.58 327.62 418.75 C 326.56 418.92 328.35 419.35 322.25 419.88 C 316.15 420.40 298.35 421.52 291.00 421.88 C 283.65 422.23 281.73 421.85 278.12 422.00 C 274.52 422.15 273.02 422.67 269.38 422.75 C 265.73 422.83 264.06 422.00 256.25 422.50 C 248.44 423.00 229.90 425.23 222.50 425.75 C 215.10 426.27 214.96 425.44 211.88 425.62 C 208.79 425.81 209.17 426.48 204.00 426.88 C 198.83 427.27 188.06 427.52 180.88 428.00 C 173.69 428.48 165.27 429.48 160.88 429.75 C 156.48 430.02 156.04 429.52 154.50 429.62 C 152.96 429.73 153.19 430.19 151.62 430.38 C 150.06 430.56 146.94 430.50 145.12 430.75 C 143.31 431.00 145.79 431.38 140.75 431.88 C 135.71 432.38 130.56 433.06 114.88 433.75 C 99.19 434.44 58.48 435.46 46.62 436.00 C 34.77 436.54 44.50 436.62 43.75 437.00 C 43.00 437.38 42.58 437.75 42.12 438.25 C 41.67 438.75 41.21 439.31 41.00 440.00 C 40.79 440.69 40.71 441.65 40.88 442.38 C 41.04 443.10 41.31 443.62 42.00 444.38 C 42.69 445.12 43.71 445.98 45.00 446.88 C 46.29 447.77 47.48 448.60 49.75 449.75 C 52.02 450.90 55.21 452.44 58.62 453.75 C 62.04 455.06 67.54 456.81 70.25 457.62 C 72.96 458.44 72.94 458.42 74.88 458.62 C 76.81 458.83 71.40 460.15 81.88 458.88 C 92.35 457.60 123.92 452.81 137.75 451.00 C 151.58 449.19 156.23 448.85 164.88 448.00 C 173.52 447.15 172.60 446.88 189.62 445.88 C 206.65 444.88 243.90 442.94 267.00 442.00 C 290.10 441.06 317.94 440.65 328.25 440.25 C 338.56 439.85 328.75 439.92 328.88 439.62 C 329.00 439.33 329.00 441.88 329.00 438.50 C 329.00 435.12 328.94 422.65 328.88 419.38 Z" id="s-12-f-3"/>
<path d="M 281.00 423.75 C 280.92 420.75 282.44 422.17 280.50 422.00 C 278.56 421.83 273.42 422.67 269.38 422.75 C 265.33 422.83 264.06 422.00 256.25 422.50 C 248.44 423.00 229.90 425.23 222.50 425.75 C 215.10 426.27 215.06 425.44 211.88 425.62 C 208.69 425.81 208.58 426.48 203.38 426.88 C 198.17 427.27 187.71 427.52 180.62 428.00 C 173.54 428.48 165.23 429.48 160.88 429.75 C 156.52 430.02 156.04 429.52 154.50 429.62 C 152.96 429.73 153.19 430.19 151.62 430.38 C 150.06 430.56 146.77 430.52 145.12 430.75 C 143.48 430.98 144.44 431.40 141.75 431.75 C 139.06 432.10 137.08 432.38 129.00 432.88 C 120.92 433.38 106.98 434.23 93.25 434.75 C 79.52 435.27 54.88 435.62 46.62 436.00 C 38.38 436.38 44.50 436.62 43.75 437.00 C 43.00 437.38 42.58 437.75 42.12 438.25 C 41.67 438.75 41.21 439.31 41.00 440.00 C 40.79 440.69 40.62 441.56 40.88 442.38 C 41.12 443.19 41.58 443.98 42.50 444.88 C 43.42 445.77 45.17 446.94 46.38 447.75 C 47.58 448.56 47.33 448.60 49.75 449.75 C 52.17 450.90 56.69 453.15 60.88 454.62 C 65.06 456.10 70.90 457.94 74.88 458.62 C 78.85 459.31 80.38 459.19 84.75 458.75 C 89.12 458.31 92.29 457.29 101.12 456.00 C 109.96 454.71 125.06 452.52 137.75 451.00 C 150.44 449.48 163.71 448.02 177.25 446.88 C 190.79 445.73 201.79 444.98 219.00 444.12 C 236.21 443.27 270.17 442.44 280.50 441.75 C 290.83 441.06 280.92 443.00 281.00 440.00 C 281.08 437.00 281.08 426.75 281.00 423.75 Z" id="s-12-f-4"/>
<path d="M 233.00 425.50 C 232.94 422.42 234.25 424.71 232.50 424.75 C 230.75 424.79 225.94 425.60 222.50 425.75 C 219.06 425.90 214.96 425.44 211.88 425.62 C 208.79 425.81 209.15 426.48 204.00 426.88 C 198.85 427.27 188.23 427.52 181.00 428.00 C 173.77 428.48 165.04 429.48 160.62 429.75 C 156.21 430.02 156.00 429.52 154.50 429.62 C 153.00 429.73 153.19 430.19 151.62 430.38 C 150.06 430.56 146.94 430.50 145.12 430.75 C 143.31 431.00 145.79 431.38 140.75 431.88 C 135.71 432.38 130.56 433.06 114.88 433.75 C 99.19 434.44 58.50 435.46 46.62 436.00 C 34.75 436.54 44.38 436.62 43.62 437.00 C 42.88 437.38 42.56 437.75 42.12 438.25 C 41.69 438.75 41.21 439.31 41.00 440.00 C 40.79 440.69 40.62 441.56 40.88 442.38 C 41.12 443.19 41.58 443.98 42.50 444.88 C 43.42 445.77 45.17 446.94 46.38 447.75 C 47.58 448.56 47.33 448.60 49.75 449.75 C 52.17 450.90 56.69 453.15 60.88 454.62 C 65.06 456.10 70.96 457.94 74.88 458.62 C 78.79 459.31 74.12 460.00 84.38 458.75 C 94.62 457.50 122.96 452.92 136.38 451.12 C 149.79 449.33 154.35 449.00 164.88 448.00 C 175.40 447.00 188.27 445.83 199.50 445.12 C 210.73 444.42 226.69 444.06 232.25 443.75 C 237.81 443.44 232.75 446.29 232.88 443.25 C 233.00 440.21 233.06 428.58 233.00 425.50 Z" id="s-12-f-5"/>
<path d="M 184.62 428.75 C 184.42 425.88 187.75 427.83 183.75 428.00 C 179.75 428.17 165.50 429.48 160.62 429.75 C 155.75 430.02 156.00 429.52 154.50 429.62 C 153.00 429.73 153.19 430.19 151.62 430.38 C 150.06 430.56 146.94 430.50 145.12 430.75 C 143.31 431.00 145.00 431.42 140.75 431.88 C 136.50 432.33 127.54 433.02 119.62 433.50 C 111.71 433.98 105.42 434.33 93.25 434.75 C 81.08 435.17 54.88 435.62 46.62 436.00 C 38.38 436.38 44.50 436.62 43.75 437.00 C 43.00 437.38 42.58 437.75 42.12 438.25 C 41.67 438.75 41.21 439.31 41.00 440.00 C 40.79 440.69 40.62 441.56 40.88 442.38 C 41.12 443.19 41.58 443.98 42.50 444.88 C 43.42 445.77 45.17 446.94 46.38 447.75 C 47.58 448.56 47.33 448.60 49.75 449.75 C 52.17 450.90 56.69 453.15 60.88 454.62 C 65.06 456.10 70.96 457.94 74.88 458.62 C 78.79 459.31 74.12 460.00 84.38 458.75 C 94.62 457.50 122.96 452.92 136.38 451.12 C 149.79 449.33 156.92 448.77 164.88 448.00 C 172.83 447.23 180.77 446.96 184.12 446.50 C 187.48 446.04 184.92 448.21 185.00 445.25 C 185.08 442.29 184.83 431.62 184.62 428.75 Z" id="s-12-f-6"/>
<path d="M 137.00 433.00 C 136.88 430.08 137.56 432.15 136.25 432.12 C 134.94 432.10 135.25 432.48 129.12 432.88 C 123.00 433.27 113.25 433.98 99.50 434.50 C 85.75 435.02 55.92 435.58 46.62 436.00 C 37.33 436.42 44.50 436.62 43.75 437.00 C 43.00 437.38 42.58 437.75 42.12 438.25 C 41.67 438.75 41.21 439.31 41.00 440.00 C 40.79 440.69 40.62 441.56 40.88 442.38 C 41.12 443.19 41.58 443.98 42.50 444.88 C 43.42 445.77 45.17 446.94 46.38 447.75 C 47.58 448.56 47.33 448.60 49.75 449.75 C 52.17 450.90 57.52 453.33 60.88 454.62 C 64.23 455.92 67.52 456.83 69.88 457.50 C 72.23 458.17 72.62 458.42 75.00 458.62 C 77.38 458.83 78.92 459.31 84.12 458.75 C 89.33 458.19 97.56 456.50 106.25 455.25 C 114.94 454.00 131.12 452.19 136.25 451.25 C 141.38 450.31 136.88 452.67 137.00 449.62 C 137.12 446.58 137.12 435.92 137.00 433.00 Z" id="s-12-f-7"/>
<path d="M 89.00 457.50 C 89.12 453.71 89.10 439.15 89.00 435.38 C 88.90 431.60 95.44 434.77 88.38 434.88 C 81.31 434.98 54.19 435.56 46.62 436.00 C 39.06 436.44 43.94 436.83 43.00 437.50 C 42.06 438.17 41.33 439.08 41.00 440.00 C 40.67 440.92 40.35 441.88 41.00 443.00 C 41.65 444.12 43.42 445.62 44.88 446.75 C 46.33 447.88 47.08 448.44 49.75 449.75 C 52.42 451.06 57.46 453.31 60.88 454.62 C 64.29 455.94 67.90 456.96 70.25 457.62 C 72.60 458.29 72.58 458.44 75.00 458.62 C 77.42 458.81 82.54 458.83 84.75 458.75 C 86.96 458.67 87.54 458.33 88.25 458.12 C 88.96 457.92 88.88 461.29 89.00 457.50 Z" id="s-12-f-8"/>
</g>
</svg>