<?xml version="1.0" encoding="UTF-8"?>
<svg xmlns="http://www.w3.org/2000/svg" viewBox="0 0 500 500">
<defs>
<path d="M 230.88 98.75 C 230.69 97.98 230.15 97.10 229.62 96.50 C 229.10 95.90 228.77 95.54 227.75 95.12 C 226.73 94.71 225.19 94.21 223.50 94.00 C 221.81 93.79 223.54 93.25 217.62 93.88 C 211.71 94.50 193.58 97.08 188.00 97.75 C 182.42 98.42 188.90 97.19 184.12 97.88 C 179.35 98.56 171.08 100.52 159.38 101.88 C 147.67 103.23 123.21 105.08 113.88 106.00 C 104.54 106.92 106.62 107.08 103.38 107.38 C 100.12 107.67 98.42 107.96 94.38 107.75 C 90.33 107.54 82.85 106.44 79.12 106.12 C 75.40 105.81 73.54 105.83 72.00 105.88 C 70.46 105.92 70.56 106.04 69.88 106.38 C 69.19 106.71 68.35 107.27 67.88 107.88 C 67.40 108.48 67.17 109.21 67.00 110.00 C 66.83 110.79 66.38 111.27 66.88 112.62 C 67.38 113.98 68.90 116.52 70.00 118.12 C 71.10 119.73 71.54 120.15 73.50 122.25 C 75.46 124.35 79.71 128.81 81.75 130.75 C 83.79 132.69 84.06 132.69 85.75 133.88 C 87.44 135.06 90.21 136.90 91.88 137.88 C 93.54 138.85 94.54 139.27 95.75 139.75 C 96.96 140.23 97.90 140.56 99.12 140.75 C 100.35 140.94 101.62 141.06 103.12 140.88 C 104.62 140.69 106.38 140.27 108.12 139.62 C 109.88 138.98 110.98 138.08 113.62 137.00 C 116.27 135.92 119.19 134.79 124.00 133.12 C 128.81 131.46 135.15 129.04 142.50 127.00 C 149.85 124.96 159.67 123.21 168.12 120.88 C 176.58 118.54 187.31 114.71 193.25 113.00 C 199.19 111.29 198.42 112.00 203.75 110.62 C 209.08 109.25 221.19 105.94 225.25 104.75 C 229.31 103.56 227.21 104.10 228.12 103.50 C 229.04 102.90 230.29 101.92 230.75 101.12 C 231.21 100.33 231.06 99.52 230.88 98.75 Z" id="s-0-f-0"/>
<clipPath id="c-s-0"><use href="#s-0-f-0"/></clipPath>
<path d="M 142.38 48.00 C 141.38 48.75 139.83 50.52 139.25 51.50 C 138.67 52.48 138.90 52.92 138.88 53.88 C 138.85 54.83 138.79 56.08 139.12 57.25 C 139.46 58.42 139.27 58.27 140.88 60.88 C 142.48 63.48 146.94 69.75 148.75 72.88 C 150.56 76.00 149.94 74.92 151.75 79.62 C 153.56 84.33 158.33 97.19 159.62 101.12 C 160.92 105.06 159.38 102.69 159.50 103.25 C 159.62 103.81 160.19 104.00 160.38 104.50 C 160.56 105.00 160.44 105.85 160.62 106.25 C 160.81 106.65 161.33 106.42 161.50 106.88 C 161.67 107.33 161.48 108.50 161.62 109.00 C 161.77 109.50 162.19 109.40 162.38 109.88 C 162.56 110.35 162.56 111.44 162.75 111.88 C 162.94 112.31 163.35 112.08 163.50 112.50 C 163.65 112.92 162.92 112.52 163.62 114.38 C 164.33 116.23 165.67 117.48 167.75 123.62 C 169.83 129.77 174.25 145.56 176.12 151.25 C 178.00 156.94 178.04 156.02 179.00 157.75 C 179.96 159.48 180.96 160.60 181.88 161.62 C 182.79 162.65 183.77 163.38 184.50 163.88 C 185.23 164.38 185.44 164.50 186.25 164.62 C 187.06 164.75 188.33 165.10 189.38 164.62 C 190.42 164.15 191.77 162.60 192.50 161.75 C 193.23 160.90 193.21 161.04 193.75 159.50 C 194.29 157.96 195.40 154.23 195.75 152.50 C 196.10 150.77 196.21 152.10 195.88 149.12 C 195.54 146.15 194.73 140.33 193.75 134.62 C 192.77 128.92 190.60 118.90 190.00 114.88 C 189.40 110.85 190.21 111.33 190.12 110.50 C 190.04 109.67 189.69 110.85 189.50 109.88 C 189.31 108.90 189.23 105.69 189.00 104.62 C 188.77 103.56 188.27 104.27 188.12 103.50 C 187.98 102.73 188.31 100.96 188.12 100.00 C 187.94 99.04 187.52 99.81 187.00 97.75 C 186.48 95.69 185.48 91.10 185.00 87.62 C 184.52 84.15 184.35 81.42 184.12 76.88 C 183.90 72.33 184.00 63.58 183.62 60.38 C 183.25 57.17 182.92 58.69 181.88 57.62 C 180.83 56.56 179.81 55.25 177.38 54.00 C 174.94 52.75 171.19 51.29 167.25 50.12 C 163.31 48.96 157.42 47.52 153.75 47.00 C 150.08 46.48 147.15 46.83 145.25 47.00 C 143.35 47.17 143.38 47.25 142.38 48.00 Z" id="s-1-f-0"/>
<clipPath id="c-s-1"><use href="#s-1-f-0"/></clipPath>
<path d="M 433.88 91.62 C 433.88 90.88 433.83 91.00 433.25 90.38 C 432.67 89.75 432.71 89.29 430.38 87.88 C 428.04 86.46 422.44 83.33 419.25 81.88 C 416.06 80.42 413.92 79.92 411.25 79.12 C 408.58 78.33 405.75 77.48 403.25 77.12 C 400.75 76.77 398.58 76.85 396.25 77.00 C 393.92 77.15 394.04 77.04 389.25 78.00 C 384.46 78.96 380.67 80.25 367.50 82.75 C 354.33 85.25 320.25 91.15 310.25 93.00 C 300.25 94.85 315.54 92.71 307.50 93.88 C 299.46 95.04 270.19 98.81 262.00 100.00 C 253.81 101.19 259.21 100.69 258.38 101.00 C 257.54 101.31 257.42 101.48 257.00 101.88 C 256.58 102.27 256.06 102.94 255.88 103.38 C 255.69 103.81 255.71 104.04 255.88 104.50 C 256.04 104.96 256.15 105.40 256.88 106.12 C 257.60 106.85 258.58 107.79 260.25 108.88 C 261.92 109.96 264.33 111.33 266.88 112.62 C 269.42 113.92 273.44 115.77 275.50 116.62 C 277.56 117.48 277.75 117.58 279.25 117.75 C 280.75 117.92 282.96 117.92 284.50 117.62 C 286.04 117.33 285.52 116.77 288.50 116.00 C 291.48 115.23 296.02 114.04 302.38 113.00 C 308.73 111.96 320.81 110.62 326.62 109.75 C 332.44 108.88 334.46 108.38 337.25 107.75 C 340.04 107.12 337.50 106.79 343.38 106.00 C 349.25 105.21 364.75 103.65 372.50 103.00 C 380.25 102.35 383.04 102.33 389.88 102.12 C 396.71 101.92 408.10 101.98 413.50 101.75 C 418.90 101.52 419.69 101.25 422.25 100.75 C 424.81 100.25 427.48 99.25 428.88 98.75 C 430.27 98.25 429.90 98.40 430.62 97.75 C 431.35 97.10 432.71 95.90 433.25 94.88 C 433.79 93.85 433.88 92.38 433.88 91.62 Z" id="s-2-f-0"/>
<clipPath id="c-s-2"><use href="#s-2-f-0"/></clipPath>
<path d="M 329.00 27.25 C 327.15 26.60 326.71 26.33 324.88 26.12 C 323.04 25.92 319.73 25.73 318.00 26.00 C 316.27 26.27 315.50 27.02 314.50 27.75 C 313.50 28.48 312.56 29.58 312.00 30.38 C 311.44 31.17 311.29 31.75 311.12 32.50 C 310.96 33.25 310.58 33.27 311.00 34.88 C 311.42 36.48 313.00 40.04 313.62 42.12 C 314.25 44.21 314.71 44.00 314.75 47.38 C 314.79 50.75 314.38 57.67 313.88 62.38 C 313.38 67.08 312.56 71.48 311.75 75.62 C 310.94 79.77 309.56 84.52 309.00 87.25 C 308.44 89.98 308.58 90.90 308.38 92.00 C 308.17 93.10 308.04 93.38 307.75 93.88 C 307.46 94.38 306.85 94.31 306.62 95.00 C 306.40 95.69 306.71 96.67 306.38 98.00 C 306.04 99.33 304.96 101.71 304.62 103.00 C 304.29 104.29 304.54 105.12 304.38 105.75 C 304.21 106.38 303.79 106.15 303.62 106.75 C 303.46 107.35 303.54 108.75 303.38 109.38 C 303.21 110.00 302.77 109.71 302.62 110.50 C 302.48 111.29 304.17 108.75 302.50 114.12 C 300.83 119.50 295.71 134.44 292.62 142.75 C 289.54 151.06 285.35 160.19 284.00 164.00 C 282.65 167.81 283.65 165.33 284.50 165.62 C 285.35 165.92 287.25 166.54 289.12 165.75 C 291.00 164.96 293.46 162.85 295.75 160.88 C 298.04 158.90 300.21 157.12 302.88 153.88 C 305.54 150.62 308.62 146.23 311.75 141.38 C 314.88 136.52 318.73 129.92 321.62 124.75 C 324.52 119.58 327.54 113.23 329.12 110.38 C 330.71 107.52 330.77 108.25 331.12 107.62 C 331.48 107.00 331.10 106.90 331.25 106.62 C 331.40 106.35 331.83 106.33 332.00 106.00 C 332.17 105.67 332.08 104.96 332.25 104.62 C 332.42 104.29 332.83 104.33 333.00 104.00 C 333.17 103.67 332.73 103.71 333.25 102.62 C 333.77 101.54 335.44 98.96 336.12 97.50 C 336.81 96.04 337.04 94.56 337.38 93.88 C 337.71 93.19 337.96 93.69 338.12 93.38 C 338.29 93.06 338.04 92.71 338.38 92.00 C 338.71 91.29 339.71 90.17 340.12 89.12 C 340.54 88.08 339.21 89.69 340.88 85.75 C 342.54 81.81 347.81 70.06 350.12 65.50 C 352.44 60.94 353.48 60.56 354.75 58.38 C 356.02 56.19 357.25 54.02 357.75 52.38 C 358.25 50.73 357.92 49.54 357.75 48.50 C 357.58 47.46 357.31 47.08 356.75 46.12 C 356.19 45.17 355.46 43.98 354.38 42.75 C 353.29 41.52 352.29 40.33 350.25 38.75 C 348.21 37.17 344.50 34.71 342.12 33.25 C 339.75 31.79 338.19 31.00 336.00 30.00 C 333.81 29.00 330.85 27.90 329.00 27.25 Z" id="s-3-f-0"/>
<clipPath id="c-s-3"><use href="#s-3-f-0"/></clipPath>
<path d="M 258.00 160.00 C 256.50 158.46 254.67 156.50 252.00 154.38 C 249.33 152.25 244.52 148.81 242.00 147.25 C 239.48 145.69 238.75 145.69 236.88 145.00 C 235.00 144.31 232.62 143.48 230.75 143.12 C 228.88 142.77 226.83 142.85 225.62 142.88 C 224.42 142.90 224.33 142.81 223.50 143.25 C 222.67 143.69 221.38 144.48 220.62 145.50 C 219.88 146.52 219.33 147.38 219.00 149.38 C 218.67 151.38 218.98 154.33 218.62 157.50 C 218.27 160.67 217.52 165.40 216.88 168.38 C 216.23 171.35 215.62 172.92 214.75 175.38 C 213.88 177.83 213.12 179.96 211.62 183.12 C 210.12 186.29 207.90 190.62 205.75 194.38 C 203.60 198.12 202.46 200.15 198.75 205.62 C 195.04 211.10 188.69 220.44 183.50 227.25 C 178.31 234.06 174.98 238.42 167.62 246.50 C 160.27 254.58 147.77 267.42 139.38 275.75 C 130.98 284.08 122.96 291.31 117.25 296.50 C 111.54 301.69 110.54 302.48 105.12 306.88 C 99.71 311.27 88.27 320.02 84.75 322.88 C 81.23 325.73 84.10 323.54 84.00 324.00 C 83.90 324.46 83.88 325.17 84.12 325.62 C 84.38 326.08 84.40 326.56 85.50 326.75 C 86.60 326.94 88.38 327.25 90.75 326.75 C 93.12 326.25 96.85 324.90 99.75 323.75 C 102.65 322.60 104.67 321.67 108.12 319.88 C 111.58 318.08 116.98 314.85 120.50 313.00 C 124.02 311.15 126.10 310.46 129.25 308.75 C 132.40 307.04 135.75 305.08 139.38 302.75 C 143.00 300.42 145.92 298.54 151.00 294.75 C 156.08 290.96 165.10 284.06 169.88 280.00 C 174.65 275.94 176.54 273.25 179.62 270.38 C 182.71 267.50 184.71 266.27 188.38 262.75 C 192.04 259.23 196.85 254.42 201.62 249.25 C 206.40 244.08 212.67 236.85 217.00 231.75 C 221.33 226.65 222.35 225.48 227.62 218.62 C 232.90 211.77 242.79 197.73 248.62 190.62 C 254.46 183.52 260.10 178.88 262.62 176.00 C 265.15 173.12 263.58 174.54 263.75 173.38 C 263.92 172.21 264.08 170.62 263.62 169.00 C 263.17 167.38 261.94 165.12 261.00 163.62 C 260.06 162.12 259.50 161.54 258.00 160.00 Z" id="s-4-f-0"/>
<clipPath id="c-s-4"><use href="#s-4-f-0"/></clipPath>
<path d="M 390.62 217.25 C 389.50 215.85 388.56 214.56 386.00 212.50 C 383.44 210.44 378.73 206.94 375.25 204.88 C 371.77 202.81 368.21 201.44 365.12 200.12 C 362.04 198.81 358.81 197.69 356.75 197.00 C 354.69 196.31 354.21 196.19 352.75 196.00 C 351.29 195.81 350.25 195.71 348.00 195.88 C 345.75 196.04 342.50 196.46 339.25 197.00 C 336.00 197.54 333.56 197.83 328.50 199.12 C 323.44 200.42 316.04 202.98 308.88 204.75 C 301.71 206.52 293.48 208.25 285.50 209.75 C 277.52 211.25 270.71 212.40 261.00 213.75 C 251.29 215.10 235.00 214.69 227.25 217.88 C 219.50 221.06 216.54 230.21 214.50 232.88 C 212.46 235.54 214.56 233.58 215.00 233.88 C 215.44 234.17 213.88 234.46 217.12 234.62 C 220.38 234.79 228.33 235.02 234.50 234.88 C 240.67 234.73 250.15 234.06 254.12 233.75 C 258.10 233.44 254.90 233.33 258.38 233.00 C 261.85 232.67 271.52 232.10 275.00 231.75 C 278.48 231.40 277.75 231.04 279.25 230.88 C 280.75 230.71 282.02 230.94 284.00 230.75 C 285.98 230.56 289.60 230.04 291.12 229.75 C 292.65 229.46 292.12 229.17 293.12 229.00 C 294.12 228.83 296.15 228.92 297.12 228.75 C 298.10 228.58 298.00 228.17 299.00 228.00 C 300.00 227.83 300.58 228.10 303.12 227.75 C 305.67 227.40 310.29 226.33 314.25 225.88 C 318.21 225.42 324.10 225.10 326.88 225.00 C 329.65 224.90 329.98 225.04 330.88 225.25 C 331.77 225.46 331.81 225.71 332.25 226.25 C 332.69 226.79 333.25 227.58 333.50 228.50 C 333.75 229.42 333.88 230.50 333.75 231.75 C 333.62 233.00 333.42 234.15 332.75 236.00 C 332.08 237.85 331.40 239.75 329.75 242.88 C 328.10 246.00 325.19 251.00 322.88 254.75 C 320.56 258.50 320.79 258.52 315.88 265.38 C 310.96 272.23 299.42 288.04 293.38 295.88 C 287.33 303.71 284.46 306.88 279.62 312.38 C 274.79 317.88 269.21 323.79 264.38 328.88 C 259.54 333.96 256.96 336.75 250.62 342.88 C 244.29 349.00 233.65 359.04 226.38 365.62 C 219.10 372.21 212.35 377.90 207.00 382.38 C 201.65 386.85 199.40 388.56 194.25 392.50 C 189.10 396.44 181.77 401.94 176.12 406.00 C 170.48 410.06 166.35 412.92 160.38 416.88 C 154.40 420.83 148.54 424.77 140.25 429.75 C 131.96 434.73 118.81 442.25 110.62 446.75 C 102.44 451.25 98.33 453.21 91.12 456.75 C 83.92 460.29 71.71 465.77 67.38 468.00 C 63.04 470.23 65.52 469.46 65.12 470.12 C 64.73 470.79 64.79 471.54 65.00 472.00 C 65.21 472.46 64.79 472.77 66.38 472.88 C 67.96 472.98 71.19 473.00 74.50 472.62 C 77.81 472.25 82.42 471.44 86.25 470.62 C 90.08 469.81 92.19 469.40 97.50 467.75 C 102.81 466.10 111.06 463.42 118.12 460.75 C 125.19 458.08 132.42 455.10 139.88 451.75 C 147.33 448.40 155.00 444.79 162.88 440.62 C 170.75 436.46 179.56 431.38 187.12 426.75 C 194.69 422.12 200.88 418.04 208.25 412.88 C 215.62 407.71 225.92 399.90 231.38 395.75 C 236.83 391.60 237.42 391.04 241.00 388.00 C 244.58 384.96 248.56 381.44 252.88 377.50 C 257.19 373.56 261.88 369.23 266.88 364.38 C 271.88 359.52 276.19 355.42 282.88 348.38 C 289.56 341.33 300.85 328.98 307.00 322.12 C 313.15 315.27 314.65 313.38 319.75 307.25 C 324.85 301.12 331.27 293.38 337.62 285.38 C 343.98 277.38 352.19 265.90 357.88 259.25 C 363.56 252.60 367.33 249.58 371.75 245.50 C 376.17 241.42 381.35 237.44 384.38 234.75 C 387.40 232.06 388.65 230.71 389.88 229.38 C 391.10 228.04 391.25 227.67 391.75 226.75 C 392.25 225.83 392.71 224.85 392.88 223.88 C 393.04 222.90 393.12 221.98 392.75 220.88 C 392.38 219.77 391.75 218.65 390.62 217.25 Z" id="s-5-f-0"/>
<clipPath id="c-s-5"><use href="#s-5-f-0"/></clipPath>
<path d="M 169.88 278.75 C 168.52 279.71 164.48 283.46 163.12 284.50 C 161.77 285.54 161.96 284.65 161.75 285.00 C 161.54 285.35 160.50 284.71 161.88 286.62 C 163.25 288.54 167.71 293.54 170.00 296.50 C 172.29 299.46 173.17 300.75 175.62 304.38 C 178.08 308.00 181.21 312.60 184.75 318.25 C 188.29 323.90 193.67 333.19 196.88 338.25 C 200.08 343.31 201.77 345.60 204.00 348.62 C 206.23 351.65 208.42 354.29 210.25 356.38 C 212.08 358.46 213.10 359.56 215.00 361.12 C 216.90 362.69 219.88 364.98 221.62 365.75 C 223.38 366.52 224.40 365.88 225.50 365.75 C 226.60 365.62 227.33 365.56 228.25 365.00 C 229.17 364.44 230.08 364.00 231.00 362.38 C 231.92 360.75 233.10 357.50 233.75 355.25 C 234.40 353.00 234.71 351.40 234.88 348.88 C 235.04 346.35 234.94 342.69 234.75 340.12 C 234.56 337.56 234.42 336.25 233.75 333.50 C 233.08 330.75 231.60 325.94 230.75 323.62 C 229.90 321.31 229.65 321.15 228.62 319.62 C 227.60 318.10 226.17 316.27 224.62 314.50 C 223.08 312.73 221.48 311.00 219.38 309.00 C 217.27 307.00 214.71 304.69 212.00 302.50 C 209.29 300.31 208.08 298.96 203.12 295.88 C 198.17 292.79 187.56 286.85 182.25 284.00 C 176.94 281.15 173.31 279.62 171.25 278.75 C 169.19 277.88 171.23 277.79 169.88 278.75 Z" id="s-6-f-0"/>
<clipPath id="c-s-6"><use href="#s-6-f-0"/></clipPath>
</defs>
<g id="s-0" clip-path="url(#c-s-0)">
<use href="#s-0-f-0"/>
<path d="M 210.88 98.88 C 210.77 97.00 210.56 96.42 210.38 95.75 C 210.19 95.08 213.48 94.54 209.75 94.88 C 206.02 95.21 192.27 97.25 188.00 97.75 C 183.73 98.25 188.90 97.19 184.12 97.88 C 179.35 98.56 171.08 100.52 159.38 101.88 C 147.67 103.23 123.21 105.08 113.88 106.00 C 104.54 106.92 106.62 107.08 103.38 107.38 C 100.12 107.67 98.42 107.96 94.38 107.75 C 90.33 107.54 82.85 106.44 79.12 106.12 C 75.40 105.81 73.54 105.83 72.00 105.88 C 70.46 105.92 70.56 106.04 69.88 106.38 C 69.19 106.71 68.35 107.27 67.88 107.88 C 67.40 108.48 67.17 109.21 67.00 110.00 C 66.83 110.79 66.38 111.27 66.88 112.62 C 67.38 113.98 68.90 116.52 70.00 118.12 C 71.10 119.73 71.54 120.15 73.50 122.25 C 75.46 124.35 79.71 128.81 81.75 130.75 C 83.79 132.69 84.06 132.69 85.75 133.88 C 87.44 135.06 90.21 136.90 91.88 137.88 C 93.54 138.85 94.54 139.27 95.75 139.75 C 96.96 140.23 97.90 140.56 99.12 140.75 C 100.35 140.94 101.62 141.06 103.12 140.88 C 104.62 140.69 106.38 140.27 108.12 139.62 C 109.88 138.98 110.98 138.08 113.62 137.00 C 116.27 135.92 119.19 134.79 124.00 133.12 C 128.81 131.46 135.15 129.04 142.50 127.00 C 149.85 124.96 160.25 123.04 168.12 120.88 C 176.00 118.71 182.71 116.02 189.75 114.00 C 196.79 111.98 206.83 109.92 210.38 108.75 C 213.92 107.58 210.92 108.65 211.00 107.00 C 211.08 105.35 210.98 100.75 210.88 98.88 Z" id="s-0-f-1"/>
<path d="M 163.00 103.00 C 162.96 99.73 162.98 102.02 162.75 101.75 C 162.52 101.48 163.56 101.21 161.62 101.38 C 159.69 101.54 161.75 101.69 151.12 102.75 C 140.50 103.81 111.06 107.23 97.88 107.75 C 84.69 108.27 76.67 106.10 72.00 105.88 C 67.33 105.65 70.56 106.04 69.88 106.38 C 69.19 106.71 68.35 107.27 67.88 107.88 C 67.40 108.48 67.17 109.21 67.00 110.00 C 66.83 110.79 66.38 111.27 66.88 112.62 C 67.38 113.98 68.90 116.52 70.00 118.12 C 71.10 119.73 71.54 120.15 73.50 122.25 C 75.46 124.35 79.71 128.81 81.75 130.75 C 83.79 132.69 84.06 132.69 85.75 133.88 C 87.44 135.06 90.21 136.90 91.88 137.88 C 93.54 138.85 94.54 139.27 95.75 139.75 C 96.96 140.23 97.69 140.58 99.12 140.75 C 100.56 140.92 100.23 142.02 104.38 140.75 C 108.52 139.48 118.17 135.25 124.00 133.12 C 129.83 131.00 132.96 129.85 139.38 128.00 C 145.79 126.15 158.56 123.10 162.50 122.00 C 166.44 120.90 162.92 124.54 163.00 121.38 C 163.08 118.21 163.04 106.27 163.00 103.00 Z" id="s-0-f-2"/>
<path d="M 67.88 107.88 C 67.40 108.48 67.15 109.10 67.00 110.00 C 66.85 110.90 66.44 111.81 67.00 113.25 C 67.56 114.69 67.92 115.71 70.38 118.62 C 72.83 121.54 78.17 127.54 81.75 130.75 C 85.33 133.96 89.08 136.23 91.88 137.88 C 94.67 139.52 96.62 140.12 98.50 140.62 C 100.38 141.12 101.52 141.04 103.12 140.88 C 104.73 140.71 106.17 140.38 108.12 139.62 C 110.08 138.88 113.81 141.96 114.88 136.38 C 115.94 130.79 116.42 110.96 114.50 106.12 C 112.58 101.29 106.73 107.10 103.38 107.38 C 100.02 107.65 98.42 107.96 94.38 107.75 C 90.33 107.54 82.85 106.44 79.12 106.12 C 75.40 105.81 73.54 105.83 72.00 105.88 C 70.46 105.92 70.56 106.04 69.88 106.38 C 69.19 106.71 68.35 107.27 67.88 107.88 Z" id="s-0-f-3"/>
</g>
<g id="s-1" clip-path="url(#c-s-1)">
<use href="#s-1-f-0"/>
<path d="M 142.38 48.00 C 141.38 48.75 139.83 50.52 139.25 51.50 C 138.67 52.48 138.90 52.92 138.88 53.88 C 138.85 54.83 138.79 56.08 139.12 57.25 C 139.46 58.42 139.27 58.27 140.88 60.88 C 142.48 63.48 146.94 69.75 148.75 72.88 C 150.56 76.00 149.94 74.92 151.75 79.62 C 153.56 84.33 158.33 97.19 159.62 101.12 C 160.92 105.06 159.38 102.69 159.50 103.25 C 159.62 103.81 160.19 104.00 160.38 104.50 C 160.56 105.00 160.44 105.85 160.62 106.25 C 160.81 106.65 161.33 106.42 161.50 106.88 C 161.67 107.33 161.48 108.50 161.62 109.00 C 161.77 109.50 162.19 109.40 162.38 109.88 C 162.56 110.35 162.56 111.44 162.75 111.88 C 162.94 112.31 163.35 112.08 163.50 112.50 C 163.65 112.92 162.92 112.52 163.62 114.38 C 164.33 116.23 166.10 119.00 167.75 123.62 C 169.40 128.25 172.46 138.96 173.50 142.12 C 174.54 145.29 172.92 142.48 174.00 142.62 C 175.08 142.77 176.60 142.94 180.00 143.00 C 183.40 143.06 191.90 143.27 194.38 143.00 C 196.85 142.73 195.60 146.06 194.88 141.38 C 194.15 136.69 190.79 120.02 190.00 114.88 C 189.21 109.73 190.21 111.33 190.12 110.50 C 190.04 109.67 189.69 110.85 189.50 109.88 C 189.31 108.90 189.23 105.69 189.00 104.62 C 188.77 103.56 188.27 104.27 188.12 103.50 C 187.98 102.73 188.31 100.96 188.12 100.00 C 187.94 99.04 187.52 99.81 187.00 97.75 C 186.48 95.69 185.48 91.10 185.00 87.62 C 184.52 84.15 184.35 81.42 184.12 76.88 C 183.90 72.33 184.00 63.58 183.62 60.38 C 183.25 57.17 182.92 58.69 181.88 57.62 C 180.83 56.56 179.81 55.25 177.38 54.00 C 174.94 52.75 171.19 51.29 167.25 50.12 C 163.31 48.96 157.42 47.52 153.75 47.00 C 150.08 46.48 147.15 46.83 145.25 47.00 C 143.35 47.17 143.38 47.25 142.38 48.00 Z" id="s-1-f-1"/>
<path d="M 141.38 48.75 C 140.35 49.56 139.50 50.46 139.12 51.88 C 138.75 53.29 138.83 55.75 139.12 57.25 C 139.42 58.75 139.27 58.27 140.88 60.88 C 142.48 63.48 146.60 68.90 148.75 72.88 C 150.90 76.85 152.38 81.19 153.75 84.75 C 155.12 88.31 156.33 92.56 157.00 94.25 C 157.67 95.94 152.96 94.79 157.75 94.88 C 162.54 94.96 181.00 94.94 185.75 94.75 C 190.50 94.56 186.38 94.94 186.25 93.75 C 186.12 92.56 185.35 90.44 185.00 87.62 C 184.65 84.81 184.35 81.42 184.12 76.88 C 183.90 72.33 184.00 63.58 183.62 60.38 C 183.25 57.17 182.67 58.52 181.88 57.62 C 181.08 56.73 179.94 55.75 178.88 55.00 C 177.81 54.25 177.44 53.94 175.50 53.12 C 173.56 52.31 169.85 50.96 167.25 50.12 C 164.65 49.29 162.12 48.65 159.88 48.12 C 157.62 47.60 155.88 47.21 153.75 47.00 C 151.62 46.79 148.54 46.88 147.12 46.88 C 145.71 46.88 146.21 46.69 145.25 47.00 C 144.29 47.31 142.40 47.94 141.38 48.75 Z" id="s-1-f-2"/>
</g>
<g id="s-2" clip-path="url(#c-s-2)">
<use href="#s-2-f-0"/>
<path d="M 399.88 77.25 C 399.52 73.17 399.65 76.75 397.88 76.88 C 396.10 77.00 393.54 77.17 389.25 78.00 C 384.96 78.83 380.15 80.27 372.12 81.88 C 364.10 83.48 346.88 86.62 341.12 87.62 C 335.38 88.62 342.77 86.98 337.62 87.88 C 332.48 88.77 315.27 92.00 310.25 93.00 C 305.23 94.00 315.54 92.71 307.50 93.88 C 299.46 95.04 270.19 98.81 262.00 100.00 C 253.81 101.19 259.21 100.69 258.38 101.00 C 257.54 101.31 257.42 101.48 257.00 101.88 C 256.58 102.27 256.06 102.94 255.88 103.38 C 255.69 103.81 255.71 104.04 255.88 104.50 C 256.04 104.96 256.15 105.40 256.88 106.12 C 257.60 106.85 258.58 107.79 260.25 108.88 C 261.92 109.96 264.33 111.33 266.88 112.62 C 269.42 113.92 273.44 115.77 275.50 116.62 C 277.56 117.48 277.75 117.58 279.25 117.75 C 280.75 117.92 282.96 117.92 284.50 117.62 C 286.04 117.33 285.52 116.77 288.50 116.00 C 291.48 115.23 296.02 114.04 302.38 113.00 C 308.73 111.96 320.81 110.62 326.62 109.75 C 332.44 108.88 334.31 108.40 337.25 107.75 C 340.19 107.10 338.38 106.67 344.25 105.88 C 350.12 105.08 363.29 103.67 372.50 103.00 C 381.71 102.33 394.92 102.15 399.50 101.88 C 404.08 101.60 399.94 105.48 400.00 101.38 C 400.06 97.27 400.23 81.33 399.88 77.25 Z" id="s-2-f-1"/>
<path d="M 351.75 86.12 C 351.69 83.15 351.90 85.77 351.38 85.75 C 350.85 85.73 350.33 85.69 348.62 86.00 C 346.92 86.31 342.96 87.31 341.12 87.62 C 339.29 87.94 342.77 86.98 337.62 87.88 C 332.48 88.77 315.27 92.00 310.25 93.00 C 305.23 94.00 315.54 92.71 307.50 93.88 C 299.46 95.04 270.19 98.81 262.00 100.00 C 253.81 101.19 259.21 100.69 258.38 101.00 C 257.54 101.31 257.42 101.48 257.00 101.88 C 256.58 102.27 256.06 102.94 255.88 103.38 C 255.69 103.81 255.58 103.92 255.88 104.50 C 256.17 105.08 256.69 106.00 257.62 106.88 C 258.56 107.75 258.52 108.12 261.50 109.75 C 264.48 111.38 272.31 115.27 275.50 116.62 C 278.69 117.98 279.12 117.71 280.62 117.88 C 282.12 118.04 283.19 117.94 284.50 117.62 C 285.81 117.31 285.52 116.77 288.50 116.00 C 291.48 115.23 296.02 114.04 302.38 113.00 C 308.73 111.96 320.81 110.62 326.62 109.75 C 332.44 108.88 334.46 108.38 337.25 107.75 C 340.04 107.12 341.00 106.46 343.38 106.00 C 345.75 105.54 350.10 105.40 351.50 105.00 C 352.90 104.60 351.71 106.77 351.75 103.62 C 351.79 100.48 351.81 89.10 351.75 86.12 Z" id="s-2-f-2"/>
<path d="M 303.88 94.88 C 303.69 91.81 309.83 93.50 302.75 94.38 C 295.67 95.25 269.00 98.88 261.38 100.12 C 253.75 101.38 257.92 101.33 257.00 101.88 C 256.08 102.42 256.06 102.94 255.88 103.38 C 255.69 103.81 255.58 103.92 255.88 104.50 C 256.17 105.08 256.69 106.00 257.62 106.88 C 258.56 107.75 259.25 108.44 261.50 109.75 C 263.75 111.06 268.27 113.44 271.12 114.75 C 273.98 116.06 276.40 117.15 278.62 117.62 C 280.85 118.10 282.85 117.90 284.50 117.62 C 286.15 117.35 285.27 116.81 288.50 116.00 C 291.73 115.19 301.31 116.27 303.88 112.75 C 306.44 109.23 304.06 97.94 303.88 94.88 Z" id="s-2-f-3"/>
</g>
<g id="s-3" clip-path="url(#c-s-3)">
<use href="#s-3-f-0"/>
<path d="M 329.00 27.25 C 327.15 26.60 326.71 26.33 324.88 26.12 C 323.04 25.92 319.73 25.73 318.00 26.00 C 316.27 26.27 315.50 27.02 314.50 27.75 C 313.50 28.48 312.56 29.58 312.00 30.38 C 311.44 31.17 311.29 31.75 311.12 32.50 C 310.96 33.25 310.58 33.27 311.00 34.88 C 311.42 36.48 313.00 40.04 313.62 42.12 C 314.25 44.21 314.71 44.00 314.75 47.38 C 314.79 50.75 314.38 57.67 313.88 62.38 C 313.38 67.08 312.56 71.48 311.75 75.62 C 310.94 79.77 309.56 84.52 309.00 87.25 C 308.44 89.98 308.77 90.65 308.38 92.00 C 307.98 93.35 306.96 94.38 306.62 95.38 C 306.29 96.38 306.71 96.73 306.38 98.00 C 306.04 99.27 304.96 101.71 304.62 103.00 C 304.29 104.29 304.54 105.12 304.38 105.75 C 304.21 106.38 303.79 106.15 303.62 106.75 C 303.46 107.35 303.54 108.75 303.38 109.38 C 303.21 110.00 302.77 109.71 302.62 110.50 C 302.48 111.29 302.94 112.40 302.50 114.12 C 302.06 115.85 300.38 119.58 300.00 120.88 C 299.62 122.17 296.71 121.69 300.25 121.88 C 303.79 122.06 317.50 122.00 321.25 122.00 C 325.00 122.00 322.35 122.02 322.75 121.88 C 323.15 121.73 322.56 123.04 323.62 121.12 C 324.69 119.21 327.73 112.90 329.12 110.38 C 330.52 107.85 331.48 106.96 332.00 106.00 C 332.52 105.04 332.08 104.96 332.25 104.62 C 332.42 104.29 332.83 104.33 333.00 104.00 C 333.17 103.67 332.73 103.71 333.25 102.62 C 333.77 101.54 335.44 98.96 336.12 97.50 C 336.81 96.04 337.04 94.56 337.38 93.88 C 337.71 93.19 337.96 93.69 338.12 93.38 C 338.29 93.06 338.04 92.71 338.38 92.00 C 338.71 91.29 339.71 90.17 340.12 89.12 C 340.54 88.08 339.21 89.69 340.88 85.75 C 342.54 81.81 347.81 70.06 350.12 65.50 C 352.44 60.94 353.48 60.56 354.75 58.38 C 356.02 56.19 357.25 54.02 357.75 52.38 C 358.25 50.73 357.92 49.54 357.75 48.50 C 357.58 47.46 357.31 47.08 356.75 46.12 C 356.19 45.17 355.46 43.98 354.38 42.75 C 353.29 41.52 352.29 40.33 350.25 38.75 C 348.21 37.17 344.50 34.71 342.12 33.25 C 339.75 31.79 338.19 31.00 336.00 30.00 C 333.81 29.00 330.85 27.90 329.00 27.25 Z" id="s-3-f-1"/>
<path d="M 315.62 26.88 C 314.62 27.60 312.77 29.29 312.00 30.38 C 311.23 31.46 311.17 32.62 311.00 33.38 C 310.83 34.12 310.56 33.42 311.00 34.88 C 311.44 36.33 313.00 40.04 313.62 42.12 C 314.25 44.21 314.71 44.00 314.75 47.38 C 314.79 50.75 314.31 58.00 313.88 62.38 C 313.44 66.75 310.71 71.69 312.12 73.62 C 313.54 75.56 316.69 73.98 322.38 74.00 C 328.06 74.02 341.46 75.50 346.25 73.75 C 351.04 72.00 349.71 66.06 351.12 63.50 C 352.54 60.94 353.65 60.23 354.75 58.38 C 355.85 56.52 357.25 54.02 357.75 52.38 C 358.25 50.73 358.08 49.81 357.75 48.50 C 357.42 47.19 357.19 46.27 355.75 44.50 C 354.31 42.73 351.21 39.65 349.12 37.88 C 347.04 36.10 345.44 35.19 343.25 33.88 C 341.06 32.56 339.06 31.29 336.00 30.00 C 332.94 28.71 327.88 26.79 324.88 26.12 C 321.88 25.46 319.54 25.88 318.00 26.00 C 316.46 26.12 316.62 26.15 315.62 26.88 Z" id="s-3-f-2"/>
</g>
<g id="s-4" clip-path="url(#c-s-4)">
<use href="#s-4-f-0"/>
<path d="M 258.38 160.38 C 257.38 159.27 256.77 158.54 255.00 157.00 C 253.23 155.46 249.73 152.65 247.75 151.12 C 245.77 149.60 244.94 148.90 243.12 147.88 C 241.31 146.85 238.94 145.79 236.88 145.00 C 234.81 144.21 232.62 143.48 230.75 143.12 C 228.88 142.77 226.83 142.85 225.62 142.88 C 224.42 142.90 224.33 142.81 223.50 143.25 C 222.67 143.69 221.38 144.48 220.62 145.50 C 219.88 146.52 219.48 146.23 219.00 149.38 C 218.52 152.52 218.46 160.04 217.75 164.38 C 217.04 168.71 216.25 171.27 214.75 175.38 C 213.25 179.48 211.42 183.96 208.75 189.00 C 206.08 194.04 202.96 199.25 198.75 205.62 C 194.54 212.00 188.69 220.44 183.50 227.25 C 178.31 234.06 174.92 238.48 167.62 246.50 C 160.33 254.52 146.31 268.75 139.75 275.38 C 133.19 282.00 130.17 284.35 128.25 286.25 C 126.33 288.15 122.81 286.67 128.25 286.75 C 133.69 286.83 153.94 287.88 160.88 286.75 C 167.81 285.62 166.75 282.73 169.88 280.00 C 173.00 277.27 176.54 273.25 179.62 270.38 C 182.71 267.50 184.71 266.27 188.38 262.75 C 192.04 259.23 196.85 254.42 201.62 249.25 C 206.40 244.08 212.67 236.85 217.00 231.75 C 221.33 226.65 222.35 225.48 227.62 218.62 C 232.90 211.77 242.79 197.73 248.62 190.62 C 254.46 183.52 260.10 178.88 262.62 176.00 C 265.15 173.12 263.58 174.54 263.75 173.38 C 263.92 172.21 264.08 170.62 263.62 169.00 C 263.17 167.38 261.88 165.06 261.00 163.62 C 260.12 162.19 259.38 161.48 258.38 160.38 Z" id="s-4-f-1"/>
<path d="M 258.38 160.38 C 256.04 158.08 250.29 153.21 247.75 151.12 C 245.21 149.04 244.94 148.90 243.12 147.88 C 241.31 146.85 238.94 145.79 236.88 145.00 C 234.81 144.21 232.81 143.46 230.75 143.12 C 228.69 142.79 225.90 142.88 224.50 143.00 C 223.10 143.12 223.02 143.46 222.38 143.88 C 221.73 144.29 221.19 144.58 220.62 145.50 C 220.06 146.42 219.33 147.38 219.00 149.38 C 218.67 151.38 218.98 154.33 218.62 157.50 C 218.27 160.67 217.52 165.40 216.88 168.38 C 216.23 171.35 215.77 172.60 214.75 175.38 C 213.73 178.15 212.25 181.83 210.75 185.00 C 209.25 188.17 208.73 189.48 205.75 194.38 C 202.77 199.27 198.08 207.00 192.88 214.38 C 187.67 221.75 177.17 234.52 174.50 238.62 C 171.83 242.73 170.98 238.94 176.88 239.00 C 182.77 239.06 204.10 239.17 209.88 239.00 C 215.65 238.83 208.54 241.40 211.50 238.00 C 214.46 234.60 221.44 226.52 227.62 218.62 C 233.81 210.73 242.79 197.73 248.62 190.62 C 254.46 183.52 260.10 178.83 262.62 176.00 C 265.15 173.17 263.56 174.73 263.75 173.62 C 263.94 172.52 264.08 170.83 263.75 169.38 C 263.42 167.92 262.65 166.38 261.75 164.88 C 260.85 163.38 260.71 162.67 258.38 160.38 Z" id="s-4-f-2"/>
<path d="M 223.50 143.25 C 221.81 143.65 221.35 144.56 220.62 145.50 C 219.90 146.44 219.46 146.88 219.12 148.88 C 218.79 150.88 219.02 154.17 218.62 157.50 C 218.23 160.83 217.56 165.46 216.75 168.88 C 215.94 172.29 215.21 174.38 213.75 178.00 C 212.29 181.62 208.52 188.46 208.00 190.62 C 207.48 192.79 204.40 190.94 210.62 191.00 C 216.85 191.06 239.02 191.06 245.38 191.00 C 251.73 190.94 247.79 191.19 248.75 190.62 C 249.71 190.06 249.38 189.42 251.12 187.62 C 252.88 185.83 257.33 181.81 259.25 179.88 C 261.17 177.94 261.85 177.19 262.62 176.00 C 263.40 174.81 263.69 173.85 263.88 172.75 C 264.06 171.65 263.96 170.44 263.75 169.38 C 263.54 168.31 263.08 167.33 262.62 166.38 C 262.17 165.42 262.15 165.06 261.00 163.62 C 259.85 162.19 257.52 159.50 255.75 157.75 C 253.98 156.00 252.48 154.77 250.38 153.12 C 248.27 151.48 245.38 149.23 243.12 147.88 C 240.88 146.52 238.94 145.79 236.88 145.00 C 234.81 144.21 232.98 143.42 230.75 143.12 C 228.52 142.83 225.19 142.85 223.50 143.25 Z" id="s-4-f-3"/>
</g>
<g id="s-5" clip-path="url(#c-s-5)">
<use href="#s-5-f-0"/>
<path d="M 390.62 217.25 C 389.50 215.85 388.56 214.56 386.00 212.50 C 383.44 210.44 378.73 206.94 375.25 204.88 C 371.77 202.81 368.21 201.44 365.12 200.12 C 362.04 198.81 358.81 197.69 356.75 197.00 C 354.69 196.31 354.21 196.19 352.75 196.00 C 351.29 195.81 350.25 195.71 348.00 195.88 C 345.75 196.04 342.50 196.46 339.25 197.00 C 336.00 197.54 333.56 197.83 328.50 199.12 C 323.44 200.42 316.04 202.98 308.88 204.75 C 301.71 206.52 293.48 208.25 285.50 209.75 C 277.52 211.25 270.71 212.40 261.00 213.75 C 251.29 215.10 235.00 214.69 227.25 217.88 C 219.50 221.06 216.54 230.21 214.50 232.88 C 212.46 235.54 214.56 233.58 215.00 233.88 C 215.44 234.17 213.88 234.46 217.12 234.62 C 220.38 234.79 228.33 235.02 234.50 234.88 C 240.67 234.73 250.15 234.06 254.12 233.75 C 258.10 233.44 254.90 233.33 258.38 233.00 C 261.85 232.67 271.52 232.10 275.00 231.75 C 278.48 231.40 277.75 231.04 279.25 230.88 C 280.75 230.71 282.02 230.94 284.00 230.75 C 285.98 230.56 289.60 230.04 291.12 229.75 C 292.65 229.46 292.12 229.17 293.12 229.00 C 294.12 228.83 296.15 228.92 297.12 228.75 C 298.10 228.58 298.00 228.17 299.00 228.00 C 300.00 227.83 300.58 228.10 303.12 227.75 C 305.67 227.40 310.29 226.33 314.25 225.88 C 318.21 225.42 324.10 225.10 326.88 225.00 C 329.65 224.90 329.98 225.04 330.88 225.25 C 331.77 225.46 331.81 225.71 332.25 226.25 C 332.69 226.79 333.25 227.58 333.50 228.50 C 333.75 229.42 333.88 230.50 333.75 231.75 C 333.62 233.00 333.42 234.15 332.75 236.00 C 332.08 237.85 331.40 239.75 329.75 242.88 C 328.10 246.00 325.19 251.00 322.88 254.75 C 320.56 258.50 320.79 258.52 315.88 265.38 C 310.96 272.23 299.42 288.04 293.38 295.88 C 287.33 303.71 284.46 306.88 279.62 312.38 C 274.79 317.88 269.21 323.79 264.38 328.88 C 259.54 333.96 256.96 336.75 250.62 342.88 C 244.29 349.00 233.65 359.04 226.38 365.62 C 219.10 372.21 212.35 377.90 207.00 382.38 C 201.65 386.85 199.40 388.56 194.25 392.50 C 189.10 396.44 181.77 401.94 176.12 406.00 C 170.48 410.06 168.33 411.73 160.38 416.88 C 152.42 422.02 139.25 430.56 128.38 436.88 C 117.50 443.19 102.73 450.77 95.12 454.75 C 87.52 458.73 85.40 459.54 82.75 460.75 C 80.10 461.96 79.85 461.67 79.25 462.00 C 78.65 462.33 73.56 462.62 79.12 462.75 C 84.69 462.88 102.88 464.42 112.62 462.75 C 122.38 461.08 129.25 456.44 137.62 452.75 C 146.00 449.06 154.62 444.96 162.88 440.62 C 171.12 436.29 179.56 431.38 187.12 426.75 C 194.69 422.12 200.88 418.04 208.25 412.88 C 215.62 407.71 225.92 399.90 231.38 395.75 C 236.83 391.60 237.42 391.04 241.00 388.00 C 244.58 384.96 248.56 381.44 252.88 377.50 C 257.19 373.56 261.88 369.23 266.88 364.38 C 271.88 359.52 276.19 355.42 282.88 348.38 C 289.56 341.33 300.85 328.98 307.00 322.12 C 313.15 315.27 314.65 313.38 319.75 307.25 C 324.85 301.12 331.27 293.38 337.62 285.38 C 343.98 277.38 352.19 265.90 357.88 259.25 C 363.56 252.60 367.33 249.58 371.75 245.50 C 376.17 241.42 381.35 237.44 384.38 234.75 C 387.40 232.06 388.65 230.71 389.88 229.38 C 391.10 228.04 391.25 227.67 391.75 226.75 C 392.25 225.83 392.71 224.85 392.88 223.88 C 393.04 222.90 393.12 221.98 392.75 220.88 C 392.38 219.77 391.75 218.65 390.62 217.25 Z" id="s-5-f-1"/>
<path d="M 389.75 216.25 C 388.46 214.94 386.54 212.77 383.88 210.75 C 381.21 208.73 376.88 205.90 373.75 204.12 C 370.62 202.35 367.96 201.31 365.12 200.12 C 362.29 198.94 358.81 197.69 356.75 197.00 C 354.69 196.31 354.15 196.19 352.75 196.00 C 351.35 195.81 350.62 195.71 348.38 195.88 C 346.12 196.04 342.56 196.46 339.25 197.00 C 335.94 197.54 333.56 197.83 328.50 199.12 C 323.44 200.42 316.04 202.98 308.88 204.75 C 301.71 206.52 293.48 208.25 285.50 209.75 C 277.52 211.25 270.71 212.40 261.00 213.75 C 251.29 215.10 235.00 214.69 227.25 217.88 C 219.50 221.06 216.54 230.21 214.50 232.88 C 212.46 235.54 214.56 233.58 215.00 233.88 C 215.44 234.17 213.88 234.46 217.12 234.62 C 220.38 234.79 228.33 235.02 234.50 234.88 C 240.67 234.73 250.15 234.06 254.12 233.75 C 258.10 233.44 254.90 233.33 258.38 233.00 C 261.85 232.67 271.52 232.10 275.00 231.75 C 278.48 231.40 277.75 231.04 279.25 230.88 C 280.75 230.71 282.02 230.94 284.00 230.75 C 285.98 230.56 289.60 230.04 291.12 229.75 C 292.65 229.46 292.12 229.17 293.12 229.00 C 294.12 228.83 296.15 228.92 297.12 228.75 C 298.10 228.58 298.00 228.17 299.00 228.00 C 300.00 227.83 300.58 228.10 303.12 227.75 C 305.67 227.40 310.29 226.33 314.25 225.88 C 318.21 225.42 324.10 225.10 326.88 225.00 C 329.65 224.90 329.98 225.04 330.88 225.25 C 331.77 225.46 331.81 225.71 332.25 226.25 C 332.69 226.79 333.25 227.58 333.50 228.50 C 333.75 229.42 333.88 230.50 333.75 231.75 C 333.62 233.00 333.42 234.15 332.75 236.00 C 332.08 237.85 331.08 240.25 329.75 242.88 C 328.42 245.50 327.06 248.00 324.75 251.75 C 322.44 255.50 320.94 258.23 315.88 265.38 C 310.81 272.52 300.42 286.79 294.38 294.62 C 288.33 302.46 283.60 307.75 279.62 312.38 C 275.65 317.00 275.33 317.29 270.50 322.38 C 265.67 327.46 259.19 334.60 250.62 342.88 C 242.06 351.15 228.52 363.73 219.12 372.00 C 209.73 380.27 201.42 386.83 194.25 392.50 C 187.08 398.17 181.08 402.46 176.12 406.00 C 171.17 409.54 166.54 412.31 164.50 413.75 C 162.46 415.19 163.54 414.42 163.88 414.62 C 164.21 414.83 159.65 414.96 166.50 415.00 C 173.35 415.04 196.73 416.17 205.00 414.88 C 213.27 413.58 210.12 411.73 216.12 407.25 C 222.12 402.77 233.54 394.19 241.00 388.00 C 248.46 381.81 253.90 376.73 260.88 370.12 C 267.85 363.52 276.62 354.77 282.88 348.38 C 289.12 341.98 292.23 338.60 298.38 331.75 C 304.52 324.90 313.21 314.98 319.75 307.25 C 326.29 299.52 331.27 293.38 337.62 285.38 C 343.98 277.38 352.19 265.90 357.88 259.25 C 363.56 252.60 367.33 249.58 371.75 245.50 C 376.17 241.42 381.35 237.44 384.38 234.75 C 387.40 232.06 388.48 231.02 389.88 229.38 C 391.27 227.73 392.25 226.21 392.75 224.88 C 393.25 223.54 393.06 222.42 392.88 221.38 C 392.69 220.33 392.15 219.48 391.62 218.62 C 391.10 217.77 391.04 217.56 389.75 216.25 Z" id="s-5-f-2"/>
<path d="M 388.75 215.12 C 387.02 213.50 383.50 210.58 381.25 208.88 C 379.00 207.17 379.33 206.85 375.25 204.88 C 371.17 202.90 360.50 198.48 356.75 197.00 C 353.00 195.52 354.21 196.19 352.75 196.00 C 351.29 195.81 350.25 195.71 348.00 195.88 C 345.75 196.04 342.50 196.46 339.25 197.00 C 336.00 197.54 333.56 197.83 328.50 199.12 C 323.44 200.42 316.04 202.98 308.88 204.75 C 301.71 206.52 293.48 208.25 285.50 209.75 C 277.52 211.25 270.71 212.40 261.00 213.75 C 251.29 215.10 234.96 214.71 227.25 217.88 C 219.54 221.04 216.81 230.08 214.75 232.75 C 212.69 235.42 214.48 233.56 214.88 233.88 C 215.27 234.19 213.50 234.46 217.12 234.62 C 220.75 234.79 231.62 235.00 236.62 234.88 C 241.62 234.75 244.21 234.06 247.12 233.88 C 250.04 233.69 252.25 233.90 254.12 233.75 C 256.00 233.60 254.90 233.33 258.38 233.00 C 261.85 232.67 271.52 232.10 275.00 231.75 C 278.48 231.40 277.75 231.04 279.25 230.88 C 280.75 230.71 282.02 230.94 284.00 230.75 C 285.98 230.56 289.60 230.04 291.12 229.75 C 292.65 229.46 292.12 229.17 293.12 229.00 C 294.12 228.83 296.15 228.92 297.12 228.75 C 298.10 228.58 298.00 228.17 299.00 228.00 C 300.00 227.83 300.58 228.10 303.12 227.75 C 305.67 227.40 310.29 226.33 314.25 225.88 C 318.21 225.42 324.10 225.10 326.88 225.00 C 329.65 224.90 329.98 225.04 330.88 225.25 C 331.77 225.46 331.81 225.71 332.25 226.25 C 332.69 226.79 333.25 227.58 333.50 228.50 C 333.75 229.42 333.88 230.50 333.75 231.75 C 333.62 233.00 333.42 234.15 332.75 236.00 C 332.08 237.85 331.40 239.75 329.75 242.88 C 328.10 246.00 326.35 249.38 322.88 254.75 C 319.40 260.12 313.79 268.27 308.88 275.12 C 303.96 281.98 298.25 289.67 293.38 295.88 C 288.50 302.08 284.46 306.88 279.62 312.38 C 274.79 317.88 269.21 323.79 264.38 328.88 C 259.54 333.96 257.12 336.60 250.62 342.88 C 244.12 349.15 229.15 362.48 225.38 366.50 C 221.60 370.52 222.04 366.92 228.00 367.00 C 233.96 367.08 255.02 367.08 261.12 367.00 C 267.23 366.92 261.00 369.60 264.62 366.50 C 268.25 363.40 275.81 355.77 282.88 348.38 C 289.94 340.98 299.35 330.79 307.00 322.12 C 314.65 313.46 320.27 306.85 328.75 296.38 C 337.23 285.90 350.71 267.73 357.88 259.25 C 365.04 250.77 367.12 249.77 371.75 245.50 C 376.38 241.23 382.48 236.46 385.62 233.62 C 388.77 230.79 389.44 229.96 390.62 228.50 C 391.81 227.04 392.38 226.06 392.75 224.88 C 393.12 223.69 393.06 222.42 392.88 221.38 C 392.69 220.33 392.31 219.67 391.62 218.62 C 390.94 217.58 390.48 216.75 388.75 215.12 Z" id="s-5-f-3"/>
<path d="M 388.75 215.12 C 387.46 213.81 386.12 212.46 383.88 210.75 C 381.62 209.04 378.04 206.50 375.25 204.88 C 372.46 203.25 370.58 202.42 367.12 201.00 C 363.67 199.58 357.19 197.23 354.50 196.38 C 351.81 195.52 352.48 195.94 351.00 195.88 C 349.52 195.81 349.38 195.46 345.62 196.00 C 341.88 196.54 334.62 197.67 328.50 199.12 C 322.38 200.58 316.04 202.98 308.88 204.75 C 301.71 206.52 293.48 208.25 285.50 209.75 C 277.52 211.25 270.65 212.42 261.00 213.75 C 251.35 215.08 234.02 216.19 227.62 217.75 C 221.23 219.31 224.77 220.62 222.62 223.12 C 220.48 225.62 216.08 231.02 214.75 232.75 C 213.42 234.48 214.31 233.21 214.62 233.50 C 214.94 233.79 215.71 234.27 216.62 234.50 C 217.54 234.73 216.21 234.83 220.12 234.88 C 224.04 234.92 232.40 235.12 240.12 234.75 C 247.85 234.38 260.00 233.27 266.50 232.62 C 273.00 231.98 276.21 231.19 279.12 230.88 C 282.04 230.56 282.00 230.94 284.00 230.75 C 286.00 230.56 289.60 230.04 291.12 229.75 C 292.65 229.46 292.12 229.17 293.12 229.00 C 294.12 228.83 296.15 228.92 297.12 228.75 C 298.10 228.58 298.00 228.17 299.00 228.00 C 300.00 227.83 300.60 228.10 303.12 227.75 C 305.65 227.40 309.71 226.33 314.12 225.88 C 318.54 225.42 326.60 224.94 329.62 225.00 C 332.65 225.06 331.56 225.46 332.25 226.25 C 332.94 227.04 333.50 228.83 333.75 229.75 C 334.00 230.67 333.92 230.71 333.75 231.75 C 333.58 232.79 333.58 233.83 332.75 236.00 C 331.92 238.17 330.40 241.62 328.75 244.75 C 327.10 247.88 327.42 247.98 322.88 254.75 C 318.33 261.52 307.71 276.94 301.50 285.38 C 295.29 293.81 290.19 299.90 285.62 305.38 C 281.06 310.85 275.98 316.00 274.12 318.25 C 272.27 320.50 274.12 318.75 274.50 318.88 C 274.88 319.00 270.54 319.00 276.38 319.00 C 282.21 319.00 300.77 322.65 309.50 318.88 C 318.23 315.10 320.69 306.31 328.75 296.38 C 336.81 286.44 350.71 267.73 357.88 259.25 C 365.04 250.77 367.12 249.77 371.75 245.50 C 376.38 241.23 382.48 236.46 385.62 233.62 C 388.77 230.79 389.44 229.96 390.62 228.50 C 391.81 227.04 392.38 226.06 392.75 224.88 C 393.12 223.69 393.06 222.42 392.88 221.38 C 392.69 220.33 392.31 219.67 391.62 218.62 C 390.94 217.58 390.04 216.44 388.75 215.12 Z" id="s-5-f-4"/>
<path d="M 392.88 221.38 C 392.69 220.33 392.50 219.85 391.62 218.62 C 390.75 217.40 388.92 215.31 387.62 214.00 C 386.33 212.69 385.94 212.27 383.88 210.75 C 381.81 209.23 378.38 206.65 375.25 204.88 C 372.12 203.10 368.21 201.44 365.12 200.12 C 362.04 198.81 358.81 197.69 356.75 197.00 C 354.69 196.31 354.60 196.17 352.75 196.00 C 350.90 195.83 349.67 195.48 345.62 196.00 C 341.58 196.52 334.62 197.67 328.50 199.12 C 322.38 200.58 316.04 202.98 308.88 204.75 C 301.71 206.52 293.48 208.25 285.50 209.75 C 277.52 211.25 270.65 212.42 261.00 213.75 C 251.35 215.08 234.02 216.19 227.62 217.75 C 221.23 219.31 224.77 220.62 222.62 223.12 C 220.48 225.62 216.08 231.02 214.75 232.75 C 213.42 234.48 214.31 233.21 214.62 233.50 C 214.94 233.79 215.71 234.27 216.62 234.50 C 217.54 234.73 216.79 234.81 220.12 234.88 C 223.46 234.94 232.12 235.04 236.62 234.88 C 241.12 234.71 244.21 234.06 247.12 233.88 C 250.04 233.69 252.23 233.90 254.12 233.75 C 256.02 233.60 256.44 233.19 258.50 233.00 C 260.56 232.81 264.56 232.81 266.50 232.62 C 268.44 232.44 268.71 232.02 270.12 231.88 C 271.54 231.73 273.50 231.92 275.00 231.75 C 276.50 231.58 277.62 231.04 279.12 230.88 C 280.62 230.71 282.00 230.94 284.00 230.75 C 286.00 230.56 289.60 230.04 291.12 229.75 C 292.65 229.46 292.12 229.17 293.12 229.00 C 294.12 228.83 296.15 228.92 297.12 228.75 C 298.10 228.58 298.00 228.17 299.00 228.00 C 300.00 227.83 300.60 228.10 303.12 227.75 C 305.65 227.40 309.60 226.31 314.12 225.88 C 318.65 225.44 327.15 224.98 330.25 225.12 C 333.35 225.27 332.17 225.98 332.75 226.75 C 333.33 227.52 333.60 228.81 333.75 229.75 C 333.90 230.69 333.94 230.96 333.62 232.38 C 333.31 233.79 333.35 235.02 331.88 238.25 C 330.40 241.48 327.06 247.75 324.75 251.75 C 322.44 255.75 320.08 259.19 318.00 262.25 C 315.92 265.31 313.21 268.71 312.25 270.12 C 311.29 271.54 306.19 270.62 312.25 270.75 C 318.31 270.88 341.17 272.62 348.62 270.88 C 356.08 269.12 354.60 263.08 357.00 260.25 C 359.40 257.42 357.52 259.02 363.00 253.88 C 368.48 248.73 384.92 234.21 389.88 229.38 C 394.83 224.54 392.25 226.21 392.75 224.88 C 393.25 223.54 393.06 222.42 392.88 221.38 Z" id="s-5-f-5"/>
<path d="M 392.88 221.25 C 392.71 220.58 392.52 219.85 391.75 218.75 C 390.98 217.65 389.69 216.04 388.25 214.62 C 386.81 213.21 385.29 211.88 383.12 210.25 C 380.96 208.62 378.25 206.56 375.25 204.88 C 372.25 203.19 368.15 201.42 365.12 200.12 C 362.10 198.83 359.19 197.81 357.12 197.12 C 355.06 196.44 354.67 196.19 352.75 196.00 C 350.83 195.81 349.67 195.48 345.62 196.00 C 341.58 196.52 334.73 197.65 328.50 199.12 C 322.27 200.60 315.42 203.10 308.25 204.88 C 301.08 206.65 293.38 208.27 285.50 209.75 C 277.62 211.23 270.65 212.42 261.00 213.75 C 251.35 215.08 235.35 214.48 227.62 217.75 C 219.90 221.02 216.15 230.56 214.62 233.38 C 213.10 236.19 217.23 234.38 218.50 234.62 C 219.77 234.88 219.35 234.85 222.25 234.88 C 225.15 234.90 230.94 234.94 235.88 234.75 C 240.81 234.56 243.98 234.44 251.88 233.75 C 259.77 233.06 274.33 231.75 283.25 230.62 C 292.17 229.50 299.08 227.90 305.38 227.00 C 311.67 226.10 306.81 225.90 321.00 225.25 C 335.19 224.60 378.54 223.54 390.50 223.12 C 402.46 222.71 392.35 223.06 392.75 222.75 C 393.15 222.44 393.04 221.92 392.88 221.25 Z" id="s-5-f-6"/>
<path d="M 358.62 198.00 C 358.33 193.56 358.10 197.46 357.12 197.12 C 356.15 196.79 354.83 196.17 352.75 196.00 C 350.67 195.83 348.67 195.60 344.62 196.12 C 340.58 196.65 334.56 197.67 328.50 199.12 C 322.44 200.58 315.42 203.10 308.25 204.88 C 301.08 206.65 293.38 208.27 285.50 209.75 C 277.62 211.23 270.65 212.42 261.00 213.75 C 251.35 215.08 235.35 214.48 227.62 217.75 C 219.90 221.02 216.00 230.54 214.62 233.38 C 213.25 236.21 215.08 234.56 219.38 234.75 C 223.67 234.94 234.67 234.69 240.38 234.50 C 246.08 234.31 246.48 234.27 253.62 233.62 C 260.77 232.98 274.62 231.73 283.25 230.62 C 291.88 229.52 298.79 227.92 305.38 227.00 C 311.96 226.08 313.94 225.60 322.75 225.12 C 331.56 224.65 352.23 224.35 358.25 224.12 C 364.27 223.90 358.81 228.10 358.88 223.75 C 358.94 219.40 358.92 202.44 358.62 198.00 Z" id="s-5-f-7"/>
<path d="M 310.88 204.62 C 310.73 201.25 312.65 203.60 310.12 204.12 C 307.60 204.65 301.79 206.48 295.75 207.75 C 289.71 209.02 282.10 210.42 273.88 211.75 C 265.65 213.08 254.10 214.75 246.38 215.75 C 238.65 216.75 232.79 214.81 227.50 217.75 C 222.21 220.69 216.12 230.56 214.62 233.38 C 213.12 236.19 214.90 234.40 218.50 234.62 C 222.10 234.85 230.69 234.90 236.25 234.75 C 241.81 234.60 243.94 234.46 251.88 233.75 C 259.81 233.04 274.08 231.75 283.88 230.50 C 293.67 229.25 306.10 227.27 310.62 226.25 C 315.15 225.23 310.96 227.98 311.00 224.38 C 311.04 220.77 311.02 208.00 310.88 204.62 Z" id="s-5-f-8"/>
<path d="M 262.88 213.88 C 262.67 210.98 264.38 213.19 261.62 213.50 C 258.88 213.81 252.06 215.04 246.38 215.75 C 240.69 216.46 232.79 214.81 227.50 217.75 C 222.21 220.69 215.98 230.54 214.62 233.38 C 213.27 236.21 216.65 234.50 219.38 234.75 C 222.10 235.00 225.58 235.04 231.00 234.88 C 236.42 234.71 246.71 234.12 251.88 233.75 C 257.04 233.38 260.21 232.90 262.00 232.62 C 263.79 232.35 262.48 232.42 262.62 232.12 C 262.77 231.83 262.83 233.92 262.88 230.88 C 262.92 227.83 263.08 216.77 262.88 213.88 Z" id="s-5-f-9"/>
</g>
<g id="s-6" clip-path="url(#c-s-6)">
<use href="#s-6-f-0"/>
<path d="M 169.88 278.75 C 168.52 279.71 164.48 283.46 163.12 284.50 C 161.77 285.54 161.96 284.65 161.75 285.00 C 161.54 285.35 160.50 284.71 161.88 286.62 C 163.25 288.54 167.71 293.54 170.00 296.50 C 172.29 299.46 173.17 300.75 175.62 304.38 C 178.08 308.00 180.88 312.10 184.75 318.25 C 188.62 324.40 195.67 336.19 198.88 341.25 C 202.08 346.31 202.21 346.29 204.00 348.62 C 205.79 350.96 208.62 354.73 209.62 355.25 C 210.62 355.77 209.98 360.73 210.00 351.75 C 210.02 342.77 210.90 310.69 209.75 301.38 C 208.60 292.06 206.15 297.94 203.12 295.88 C 200.10 293.81 196.94 291.85 191.62 289.00 C 186.31 286.15 174.88 280.46 171.25 278.75 C 167.62 277.04 171.23 277.79 169.88 278.75 Z" id="s-6-f-1"/>
</g>
</svg>