<?xml version="1.0" encoding="UTF-8"?>
<svg xmlns="http://www.w3.org/2000/svg" viewBox="0 0 500 500">
<defs>
<path d="M 114.00 36.88 C 112.88 36.90 112.54 37.00 112.00 37.25 C 111.46 37.50 111.08 37.90 110.75 38.38 C 110.42 38.85 110.15 39.29 110.00 40.12 C 109.85 40.96 109.83 42.52 109.88 43.38 C 109.92 44.23 109.77 44.21 110.25 45.25 C 110.73 46.29 112.17 48.35 112.75 49.62 C 113.33 50.90 113.23 50.19 113.75 52.88 C 114.27 55.56 115.40 61.94 115.88 65.75 C 116.35 69.56 116.48 67.21 116.62 75.75 C 116.77 84.29 116.96 108.17 116.75 117.00 C 116.54 125.83 116.17 124.54 115.38 128.75 C 114.58 132.96 112.56 139.10 112.00 142.25 C 111.44 145.40 111.81 145.77 112.00 147.62 C 112.19 149.48 112.12 150.21 113.12 153.38 C 114.12 156.54 116.71 163.65 118.00 166.62 C 119.29 169.60 119.96 169.98 120.88 171.25 C 121.79 172.52 122.73 173.50 123.50 174.25 C 124.27 175.00 124.83 175.48 125.50 175.75 C 126.17 176.02 126.62 176.46 127.50 175.88 C 128.38 175.29 129.83 174.00 130.75 172.25 C 131.67 170.50 132.48 166.75 133.00 165.38 C 133.52 164.00 133.38 166.33 133.88 164.00 C 134.38 161.67 135.67 157.69 136.00 151.38 C 136.33 145.06 135.71 131.85 135.88 126.12 C 136.04 120.40 136.81 126.10 137.00 117.00 C 137.19 107.90 136.85 81.83 137.00 71.50 C 137.15 61.17 138.48 59.50 137.88 55.00 C 137.27 50.50 134.56 46.69 133.38 44.50 C 132.19 42.31 131.98 42.75 130.75 41.88 C 129.52 41.00 127.35 39.90 126.00 39.25 C 124.65 38.60 123.83 38.35 122.62 38.00 C 121.42 37.65 120.19 37.31 118.75 37.12 C 117.31 36.94 115.12 36.85 114.00 36.88 Z" id="s-0-f-0"/>
<clipPath id="c-s-0"><use href="#s-0-f-0"/></clipPath>
<path d="M 132.88 44.00 C 126.56 45.73 132.42 44.79 132.50 45.12 C 132.58 45.46 132.56 44.21 133.38 46.00 C 134.19 47.79 134.94 54.58 137.38 55.88 C 139.81 57.17 142.85 55.06 148.00 53.75 C 153.15 52.44 162.35 49.44 168.25 48.00 C 174.15 46.56 179.62 45.60 183.38 45.12 C 187.12 44.65 189.04 45.00 190.75 45.12 C 192.46 45.25 192.65 45.42 193.62 45.88 C 194.60 46.33 195.94 47.08 196.62 47.88 C 197.31 48.67 197.40 49.12 197.75 50.62 C 198.10 52.12 198.40 52.83 198.75 56.88 C 199.10 60.92 199.52 70.83 199.88 74.88 C 200.23 78.92 200.73 71.44 200.88 81.12 C 201.02 90.81 200.94 122.35 200.75 133.00 C 200.56 143.65 199.73 141.44 199.75 145.00 C 199.77 148.56 200.48 151.88 200.88 154.38 C 201.27 156.88 201.25 158.19 202.12 160.00 C 203.00 161.81 204.52 163.46 206.12 165.25 C 207.73 167.04 210.52 169.67 211.75 170.75 C 212.98 171.83 212.79 171.60 213.50 171.75 C 214.21 171.90 215.12 172.10 216.00 171.62 C 216.88 171.15 217.81 170.17 218.75 168.88 C 219.69 167.58 220.81 165.77 221.62 163.88 C 222.44 161.98 223.10 159.73 223.62 157.50 C 224.15 155.27 224.56 154.33 224.75 150.50 C 224.94 146.67 224.90 138.58 224.75 134.50 C 224.60 130.42 224.15 130.88 223.88 126.00 C 223.60 121.12 223.25 114.40 223.12 105.25 C 223.00 96.10 222.98 78.79 223.12 71.12 C 223.27 63.46 223.69 61.83 224.00 59.25 C 224.31 56.67 224.21 57.69 225.00 55.62 C 225.79 53.56 228.10 48.81 228.75 46.88 C 229.40 44.94 229.02 44.90 228.88 44.00 C 228.73 43.10 228.23 42.19 227.88 41.50 C 227.52 40.81 227.56 40.71 226.75 39.88 C 225.94 39.04 224.73 37.81 223.00 36.50 C 221.27 35.19 219.27 33.73 216.38 32.00 C 213.48 30.27 207.94 27.29 205.62 26.12 C 203.31 24.96 203.48 25.19 202.50 25.00 C 201.52 24.81 202.38 24.19 199.75 25.00 C 197.12 25.81 191.65 28.25 186.75 29.88 C 181.85 31.50 179.35 32.40 170.38 34.75 C 161.40 37.10 139.19 42.27 132.88 44.00 Z" id="s-1-f-0"/>
<clipPath id="c-s-1"><use href="#s-1-f-0"/></clipPath>
<path d="M 200.25 71.25 C 199.67 70.29 199.79 70.52 197.62 70.00 C 195.46 69.48 189.96 68.48 187.25 68.12 C 184.54 67.77 184.90 67.10 181.38 67.88 C 177.85 68.65 170.00 71.60 166.12 72.75 C 162.25 73.90 162.98 73.73 158.12 74.75 C 153.27 75.77 140.60 78.12 137.00 78.88 C 133.40 79.62 136.58 77.31 136.50 79.25 C 136.42 81.19 135.98 88.42 136.50 90.50 C 137.02 92.58 138.02 91.54 139.62 91.75 C 141.23 91.96 143.19 92.21 146.12 91.75 C 149.06 91.29 152.04 90.02 157.25 89.00 C 162.46 87.98 173.19 86.46 177.38 85.62 C 181.56 84.79 178.46 84.79 182.38 84.00 C 186.29 83.21 197.73 81.48 200.88 80.88 C 204.02 80.27 201.21 81.23 201.25 80.38 C 201.29 79.52 201.29 77.27 201.12 75.75 C 200.96 74.23 200.83 72.21 200.25 71.25 Z" id="s-2-f-0"/>
<clipPath id="c-s-2"><use href="#s-2-f-0"/></clipPath>
<path d="M 201.25 108.25 C 200.94 106.50 201.38 107.52 199.38 107.00 C 197.38 106.48 191.92 105.48 189.25 105.12 C 186.58 104.77 185.23 104.60 183.38 104.88 C 181.52 105.15 181.10 105.94 178.12 106.75 C 175.15 107.56 172.35 108.40 165.50 109.75 C 158.65 111.10 141.83 113.96 137.00 114.88 C 132.17 115.79 136.71 114.54 136.50 115.25 C 136.29 115.96 135.92 117.46 135.75 119.12 C 135.58 120.79 135.50 124.12 135.50 125.25 C 135.50 126.38 135.10 125.62 135.75 125.88 C 136.40 126.12 137.04 126.62 139.38 126.75 C 141.71 126.88 139.77 127.96 149.75 126.62 C 159.73 125.29 190.67 120.27 199.25 118.75 C 207.83 117.23 200.92 119.25 201.25 117.50 C 201.58 115.75 201.56 110.00 201.25 108.25 Z" id="s-3-f-0"/>
<clipPath id="c-s-3"><use href="#s-3-f-0"/></clipPath>
<path d="M 201.00 147.62 C 200.77 146.42 200.65 145.50 199.88 144.75 C 199.10 144.00 198.31 143.85 196.38 143.12 C 194.44 142.40 190.35 140.92 188.25 140.38 C 186.15 139.83 185.19 139.90 183.75 139.88 C 182.31 139.85 182.15 139.73 179.62 140.25 C 177.10 140.77 171.27 142.25 168.62 143.00 C 165.98 143.75 166.62 143.98 163.75 144.75 C 160.88 145.52 156.02 146.77 151.38 147.62 C 146.73 148.48 138.65 149.08 135.88 149.88 C 133.10 150.67 135.15 150.10 134.75 152.38 C 134.35 154.65 133.38 161.44 133.50 163.50 C 133.62 165.56 134.58 164.40 135.50 164.75 C 136.42 165.10 136.52 165.46 139.00 165.62 C 141.48 165.79 143.08 166.42 150.38 165.75 C 157.67 165.08 175.23 162.71 182.75 161.62 C 190.27 160.54 192.33 159.71 195.50 159.25 C 198.67 158.79 200.62 159.00 201.75 158.88 C 202.88 158.75 202.33 159.65 202.25 158.50 C 202.17 157.35 201.46 153.81 201.25 152.00 C 201.04 150.19 201.23 148.83 201.00 147.62 Z" id="s-4-f-0"/>
<clipPath id="c-s-4"><use href="#s-4-f-0"/></clipPath>
<path d="M 262.12 28.88 C 261.15 28.88 261.17 28.81 260.62 29.12 C 260.08 29.44 259.31 30.19 258.88 30.75 C 258.44 31.31 258.12 31.48 258.00 32.50 C 257.88 33.52 257.67 35.33 258.12 36.88 C 258.58 38.42 259.96 39.88 260.75 41.75 C 261.54 43.62 262.21 45.29 262.88 48.12 C 263.54 50.96 264.31 55.54 264.75 58.75 C 265.19 61.96 265.33 62.35 265.50 67.38 C 265.67 72.40 265.88 81.19 265.75 88.88 C 265.62 96.56 265.08 107.67 264.75 113.50 C 264.42 119.33 264.21 120.62 263.75 123.88 C 263.29 127.12 262.29 130.60 262.00 133.00 C 261.71 135.40 261.50 135.54 262.00 138.25 C 262.50 140.96 263.83 145.92 265.00 149.25 C 266.17 152.58 267.73 155.92 269.00 158.25 C 270.27 160.58 271.48 162.02 272.62 163.25 C 273.77 164.48 275.00 165.19 275.88 165.62 C 276.75 166.06 277.23 166.08 277.88 165.88 C 278.52 165.67 278.94 165.85 279.75 164.38 C 280.56 162.90 282.02 159.02 282.75 157.00 C 283.48 154.98 283.77 154.46 284.12 152.25 C 284.48 150.04 284.71 148.12 284.88 143.75 C 285.04 139.38 284.94 131.10 285.12 126.00 C 285.31 120.90 285.85 124.04 286.00 113.12 C 286.15 102.21 285.88 72.23 286.00 60.50 C 286.12 48.77 286.75 45.98 286.75 42.75 C 286.75 39.52 286.35 41.62 286.00 41.12 C 285.65 40.62 286.75 41.35 284.62 39.75 C 282.50 38.15 275.67 33.12 273.25 31.50 C 270.83 29.88 271.25 30.40 270.12 30.00 C 269.00 29.60 267.83 29.31 266.50 29.12 C 265.17 28.94 263.10 28.88 262.12 28.88 Z" id="s-5-f-0"/>
<clipPath id="c-s-5"><use href="#s-5-f-0"/></clipPath>
<path d="M 271.75 31.38 C 271.04 31.71 271.85 31.96 272.12 32.12 C 272.40 32.29 271.19 30.88 273.38 32.38 C 275.56 33.88 281.06 39.90 285.25 41.12 C 289.44 42.35 292.31 40.60 298.50 39.75 C 304.69 38.90 316.46 36.79 322.38 36.00 C 328.29 35.21 330.88 35.15 334.00 35.00 C 337.12 34.85 339.33 34.92 341.12 35.12 C 342.92 35.33 343.79 35.75 344.75 36.25 C 345.71 36.75 346.21 36.73 346.88 38.12 C 347.54 39.52 348.10 40.88 348.75 44.62 C 349.40 48.38 350.42 56.33 350.75 60.62 C 351.08 64.92 350.56 64.71 350.75 70.38 C 350.94 76.04 351.69 87.58 351.88 94.62 C 352.06 101.67 351.94 107.85 351.88 112.62 C 351.81 117.40 351.69 120.17 351.50 123.25 C 351.31 126.33 351.02 129.44 350.75 131.12 C 350.48 132.81 350.04 132.62 349.88 133.38 C 349.71 134.12 349.60 134.35 349.75 135.62 C 349.90 136.90 350.56 139.48 350.75 141.00 C 350.94 142.52 350.69 143.19 350.88 144.75 C 351.06 146.31 350.98 148.23 351.88 150.38 C 352.77 152.52 354.67 155.52 356.25 157.62 C 357.83 159.73 360.19 161.96 361.38 163.00 C 362.56 164.04 362.69 163.77 363.38 163.88 C 364.06 163.98 364.58 164.17 365.50 163.62 C 366.42 163.08 367.65 162.21 368.88 160.62 C 370.10 159.04 371.90 156.04 372.88 154.12 C 373.85 152.21 374.10 151.65 374.75 149.12 C 375.40 146.60 376.35 153.23 376.75 139.00 C 377.15 124.77 376.92 78.06 377.12 63.75 C 377.33 49.44 377.69 55.75 378.00 53.12 C 378.31 50.50 378.23 50.54 379.00 48.00 C 379.77 45.46 381.98 40.21 382.62 37.88 C 383.27 35.54 383.02 35.10 382.88 34.00 C 382.73 32.90 382.73 32.50 381.75 31.25 C 380.77 30.00 378.60 27.83 377.00 26.50 C 375.40 25.17 375.29 25.00 372.12 23.25 C 368.96 21.50 360.81 17.38 358.00 16.00 C 355.19 14.62 356.19 15.17 355.25 15.00 C 354.31 14.83 355.02 14.38 352.38 15.00 C 349.73 15.62 344.71 17.46 339.38 18.75 C 334.04 20.04 329.08 21.08 320.38 22.75 C 311.67 24.42 294.46 27.52 287.12 28.75 C 279.79 29.98 278.94 29.69 276.38 30.12 C 273.81 30.56 272.46 31.04 271.75 31.38 Z" id="s-6-f-0"/>
<clipPath id="c-s-6"><use href="#s-6-f-0"/></clipPath>
<path d="M 351.25 62.25 C 350.56 60.48 349.46 60.56 347.12 59.88 C 344.79 59.19 339.79 58.46 337.25 58.12 C 334.71 57.79 333.81 57.58 331.88 57.88 C 329.94 58.17 333.31 58.54 325.62 59.88 C 317.94 61.21 292.42 62.94 285.75 65.88 C 279.08 68.81 285.19 75.50 285.62 77.50 C 286.06 79.50 285.60 77.85 288.38 77.88 C 291.15 77.90 292.19 78.65 302.25 77.62 C 312.31 76.60 340.58 72.94 348.75 71.75 C 356.92 70.56 350.83 72.08 351.25 70.50 C 351.67 68.92 351.94 64.02 351.25 62.25 Z" id="s-7-f-0"/>
<clipPath id="c-s-7"><use href="#s-7-f-0"/></clipPath>
<path d="M 352.25 97.38 C 352.19 95.46 353.17 97.10 351.88 96.88 C 350.58 96.65 346.98 96.17 344.50 96.00 C 342.02 95.83 342.08 95.25 337.00 95.88 C 331.92 96.50 322.44 98.58 314.00 99.75 C 305.56 100.92 291.12 102.29 286.38 102.88 C 281.62 103.46 285.65 101.48 285.50 103.25 C 285.35 105.02 284.69 111.58 285.50 113.50 C 286.31 115.42 287.21 114.54 290.38 114.75 C 293.54 114.96 296.10 115.42 304.50 114.75 C 312.90 114.08 332.85 111.73 340.75 110.75 C 348.65 109.77 349.96 109.27 351.88 108.88 C 353.79 108.48 352.19 110.29 352.25 108.38 C 352.31 106.46 352.31 99.29 352.25 97.38 Z" id="s-8-f-0"/>
<clipPath id="c-s-8"><use href="#s-8-f-0"/></clipPath>
<path d="M 351.00 137.00 C 350.77 135.52 350.83 134.54 350.00 133.88 C 349.17 133.21 348.83 133.12 346.00 133.00 C 343.17 132.88 338.90 132.65 333.00 133.12 C 327.10 133.60 318.67 135.08 310.62 135.88 C 302.58 136.67 289.23 136.65 284.75 137.88 C 280.27 139.10 283.96 140.81 283.75 143.25 C 283.54 145.69 282.90 150.75 283.50 152.50 C 284.10 154.25 284.56 153.54 287.38 153.75 C 290.19 153.96 297.21 153.88 300.38 153.75 C 303.54 153.62 299.29 153.48 306.38 153.00 C 313.46 152.52 335.27 151.42 342.88 150.88 C 350.48 150.33 350.46 150.60 352.00 149.75 C 353.54 148.90 352.23 146.92 352.12 145.75 C 352.02 144.58 351.56 144.21 351.38 142.75 C 351.19 141.29 351.23 138.48 351.00 137.00 Z" id="s-9-f-0"/>
<clipPath id="c-s-9"><use href="#s-9-f-0"/></clipPath>
<path d="M 81.38 168.00 C 80.42 167.56 79.75 167.58 79.00 168.00 C 78.25 168.42 78.42 165.71 76.88 170.50 C 75.33 175.29 71.60 190.27 69.75 196.75 C 67.90 203.23 67.42 204.52 65.75 209.38 C 64.08 214.23 61.69 221.15 59.75 225.88 C 57.81 230.60 55.23 235.02 54.12 237.75 C 53.02 240.48 53.31 239.96 53.12 242.25 C 52.94 244.54 52.69 248.94 53.00 251.50 C 53.31 254.06 54.08 255.92 55.00 257.62 C 55.92 259.33 57.42 260.73 58.50 261.75 C 59.58 262.77 60.52 263.25 61.50 263.75 C 62.48 264.25 63.23 264.58 64.38 264.75 C 65.52 264.92 67.12 265.06 68.38 264.75 C 69.62 264.44 70.92 263.54 71.88 262.88 C 72.83 262.21 73.17 261.92 74.12 260.75 C 75.08 259.58 75.88 259.17 77.62 255.88 C 79.38 252.58 82.62 245.98 84.62 241.00 C 86.62 236.02 88.29 230.73 89.62 226.00 C 90.96 221.27 92.06 215.69 92.62 212.62 C 93.19 209.56 92.94 211.38 93.00 207.62 C 93.06 203.88 93.06 193.52 93.00 190.12 C 92.94 186.73 93.00 188.67 92.62 187.25 C 92.25 185.83 91.58 183.71 90.75 181.62 C 89.92 179.54 88.62 176.58 87.62 174.75 C 86.62 172.92 85.79 171.75 84.75 170.62 C 83.71 169.50 82.33 168.44 81.38 168.00 Z" id="s-10-f-0"/>
<clipPath id="c-s-10"><use href="#s-10-f-0"/></clipPath>
<path d="M 445.88 203.75 C 445.73 202.54 445.42 201.58 444.88 200.38 C 444.33 199.17 443.77 198.04 442.62 196.50 C 441.48 194.96 439.77 192.98 438.00 191.12 C 436.23 189.27 435.79 188.58 432.00 185.38 C 428.21 182.17 419.02 174.79 415.25 171.88 C 411.48 168.96 411.25 169.02 409.38 167.88 C 407.50 166.73 405.60 165.67 404.00 165.00 C 402.40 164.33 401.60 164.02 399.75 163.88 C 397.90 163.73 398.23 163.48 392.88 164.12 C 387.52 164.77 383.50 165.81 367.62 167.75 C 351.75 169.69 320.08 173.42 297.62 175.75 C 275.17 178.08 250.31 180.25 232.88 181.75 C 215.44 183.25 205.40 183.92 193.00 184.75 C 180.60 185.58 175.25 186.00 158.50 186.75 C 141.75 187.50 103.48 185.56 92.50 189.25 C 81.52 192.94 91.38 205.31 92.62 208.88 C 93.88 212.44 97.21 210.29 100.00 210.62 C 102.79 210.96 104.67 211.04 109.38 210.88 C 114.08 210.71 118.67 210.77 128.25 209.62 C 137.83 208.48 152.65 205.94 166.88 204.00 C 181.10 202.06 205.02 199.02 213.62 198.00 C 222.23 196.98 208.27 198.90 218.50 197.88 C 228.73 196.85 259.75 193.38 275.00 191.88 C 290.25 190.38 297.00 189.85 310.00 188.88 C 323.00 187.90 343.42 186.52 353.00 186.00 C 362.58 185.48 363.79 185.92 367.50 185.75 C 371.21 185.58 373.27 185.12 375.25 185.00 C 377.23 184.88 377.98 184.83 379.38 185.00 C 380.77 185.17 382.60 185.60 383.62 186.00 C 384.65 186.40 384.98 186.75 385.50 187.38 C 386.02 188.00 386.56 188.90 386.75 189.75 C 386.94 190.60 386.81 191.52 386.62 192.50 C 386.44 193.48 386.27 194.04 385.62 195.62 C 384.98 197.21 384.19 199.21 382.75 202.00 C 381.31 204.79 380.12 207.17 377.00 212.38 C 373.88 217.58 366.17 229.48 364.00 233.25 C 361.83 237.02 363.79 234.56 364.00 235.00 C 364.21 235.44 364.77 235.75 365.25 235.88 C 365.73 236.00 363.62 236.90 366.88 235.75 C 370.12 234.60 379.10 230.96 384.75 229.00 C 390.40 227.04 395.46 225.50 400.75 224.00 C 406.04 222.50 411.48 221.06 416.50 220.00 C 421.52 218.94 427.33 218.33 430.88 217.62 C 434.42 216.92 436.02 216.38 437.75 215.75 C 439.48 215.12 440.08 214.79 441.25 213.88 C 442.42 212.96 444.00 211.29 444.75 210.25 C 445.50 209.21 445.56 208.71 445.75 207.62 C 445.94 206.54 446.02 204.96 445.88 203.75 Z" id="s-11-f-0"/>
<clipPath id="c-s-11"><use href="#s-11-f-0"/></clipPath>
<path d="M 241.50 195.00 C 241.04 194.85 238.42 194.56 237.50 194.62 C 236.58 194.69 237.73 195.21 236.00 195.38 C 234.27 195.54 229.10 195.44 227.12 195.62 C 225.15 195.81 225.81 196.33 224.12 196.50 C 222.44 196.67 218.50 196.46 217.00 196.62 C 215.50 196.79 215.85 196.02 215.12 197.50 C 214.40 198.98 213.69 202.73 212.62 205.50 C 211.56 208.27 210.54 210.65 208.75 214.12 C 206.96 217.60 204.48 222.12 201.88 226.38 C 199.27 230.62 194.52 237.35 193.12 239.62 C 191.73 241.90 191.10 240.31 193.50 240.00 C 195.90 239.69 202.88 239.62 207.50 237.75 C 212.12 235.88 216.06 232.40 221.25 228.75 C 226.44 225.10 234.44 218.85 238.62 215.88 C 242.81 212.90 244.85 212.06 246.38 210.88 C 247.90 209.69 247.52 209.35 247.75 208.75 C 247.98 208.15 247.90 207.79 247.75 207.25 C 247.60 206.71 247.44 206.29 246.88 205.50 C 246.31 204.71 246.06 204.00 244.38 202.50 C 242.69 201.00 237.96 197.67 236.75 196.50 C 235.54 195.33 236.54 195.67 237.12 195.50 C 237.71 195.33 239.52 195.58 240.25 195.50 C 240.98 195.42 241.96 195.15 241.50 195.00 Z" id="s-12-f-0"/>
<clipPath id="c-s-12"><use href="#s-12-f-0"/></clipPath>
<path d="M 160.25 233.88 C 159.00 233.88 159.29 233.83 158.62 234.12 C 157.96 234.42 156.85 235.06 156.25 235.62 C 155.65 236.19 155.23 236.69 155.00 237.50 C 154.77 238.31 154.83 239.69 154.88 240.50 C 154.92 241.31 154.60 241.17 155.25 242.38 C 155.90 243.58 157.83 246.08 158.75 247.75 C 159.67 249.42 160.10 250.46 160.75 252.38 C 161.40 254.29 162.17 256.96 162.62 259.25 C 163.08 261.54 163.31 262.96 163.50 266.12 C 163.69 269.29 163.92 269.31 163.75 278.25 C 163.58 287.19 162.83 311.40 162.50 319.75 C 162.17 328.10 162.21 325.10 161.75 328.38 C 161.29 331.65 160.60 335.83 159.75 339.38 C 158.90 342.92 158.04 345.88 156.62 349.62 C 155.21 353.38 152.19 359.21 151.25 361.88 C 150.31 364.54 150.85 364.33 151.00 365.62 C 151.15 366.92 151.31 367.71 152.12 369.62 C 152.94 371.54 154.83 375.38 155.88 377.12 C 156.92 378.88 157.29 379.02 158.38 380.12 C 159.46 381.23 161.38 382.98 162.38 383.75 C 163.38 384.52 163.62 384.56 164.38 384.75 C 165.12 384.94 165.71 385.06 166.88 384.88 C 168.04 384.69 169.73 384.31 171.38 383.62 C 173.02 382.94 175.67 381.44 176.75 380.75 C 177.83 380.06 177.67 384.29 177.88 379.50 C 178.08 374.71 177.65 359.94 178.00 352.00 C 178.35 344.06 179.52 338.83 180.00 331.88 C 180.48 324.92 180.56 315.19 180.88 310.25 C 181.19 305.31 181.69 304.52 181.88 302.25 C 182.06 299.98 181.50 301.58 182.00 296.62 C 182.50 291.67 184.31 278.23 184.88 272.50 C 185.44 266.77 185.19 264.56 185.38 262.25 C 185.56 259.94 185.46 260.10 186.00 258.62 C 186.54 257.15 188.15 254.69 188.62 253.38 C 189.10 252.06 189.85 252.71 188.88 250.75 C 187.90 248.79 184.65 243.75 182.75 241.62 C 180.85 239.50 179.10 238.92 177.50 238.00 C 175.90 237.08 175.02 236.77 173.12 236.12 C 171.23 235.48 168.27 234.50 166.12 234.12 C 163.98 233.75 161.50 233.88 160.25 233.88 Z" id="s-13-f-0"/>
<clipPath id="c-s-13"><use href="#s-13-f-0"/></clipPath>
<path d="M 322.88 242.62 C 322.96 242.06 322.92 241.12 322.75 240.50 C 322.58 239.88 322.50 239.65 321.88 238.88 C 321.25 238.10 321.23 237.52 319.00 235.88 C 316.77 234.23 312.21 230.96 308.50 229.00 C 304.79 227.04 300.56 225.48 296.75 224.12 C 292.94 222.77 288.38 221.38 285.62 220.88 C 282.88 220.38 283.48 220.58 280.25 221.12 C 277.02 221.67 271.60 222.69 266.25 224.12 C 260.90 225.56 254.81 227.98 248.12 229.75 C 241.44 231.52 232.79 233.44 226.12 234.75 C 219.46 236.06 211.92 237.15 208.12 237.62 C 204.33 238.10 204.69 237.48 203.38 237.62 C 202.06 237.77 201.62 238.33 200.25 238.50 C 198.88 238.67 196.44 238.40 195.12 238.62 C 193.81 238.85 194.46 239.50 192.38 239.88 C 190.29 240.25 184.44 240.62 182.62 240.88 C 180.81 241.12 180.65 239.83 181.50 241.38 C 182.35 242.92 186.56 248.54 187.75 250.12 C 188.94 251.71 185.35 250.98 188.62 250.88 C 191.90 250.77 201.90 250.04 207.38 249.50 C 212.85 248.96 211.21 249.40 221.50 247.62 C 231.79 245.85 260.52 240.35 269.12 238.88 C 277.73 237.40 271.81 238.90 273.12 238.75 C 274.44 238.60 276.06 238.12 277.00 238.00 C 277.94 237.88 278.21 237.88 278.75 238.00 C 279.29 238.12 279.75 238.29 280.25 238.75 C 280.75 239.21 281.33 239.50 281.75 240.75 C 282.17 242.00 282.60 244.29 282.75 246.25 C 282.90 248.21 282.96 249.17 282.62 252.50 C 282.29 255.83 281.52 262.90 280.75 266.25 C 279.98 269.60 278.85 270.23 278.00 272.62 C 277.15 275.02 276.35 278.48 275.62 280.62 C 274.90 282.77 274.23 284.25 273.62 285.50 C 273.02 286.75 272.31 287.31 272.00 288.12 C 271.69 288.94 271.44 288.04 271.75 290.38 C 272.06 292.71 272.92 299.54 273.88 302.12 C 274.83 304.71 276.35 305.08 277.50 305.88 C 278.65 306.67 279.58 306.73 280.75 306.88 C 281.92 307.02 283.40 306.94 284.50 306.75 C 285.60 306.56 286.33 306.40 287.38 305.75 C 288.42 305.10 289.85 303.81 290.75 302.88 C 291.65 301.94 289.04 308.19 292.75 300.12 C 296.46 292.06 308.92 263.12 313.00 254.50 C 317.08 245.88 315.71 250.15 317.25 248.38 C 318.79 246.60 321.31 244.83 322.25 243.88 C 323.19 242.92 322.79 243.19 322.88 242.62 Z" id="s-14-f-0"/>
<clipPath id="c-s-14"><use href="#s-14-f-0"/></clipPath>
<path d="M 282.12 259.88 C 282.06 259.10 282.06 258.98 281.50 258.50 C 280.94 258.02 280.69 257.42 278.75 257.00 C 276.81 256.58 272.48 256.19 269.88 256.00 C 267.27 255.81 271.19 254.58 263.12 255.88 C 255.06 257.17 234.42 261.60 221.50 263.75 C 208.58 265.90 191.79 267.83 185.62 268.75 C 179.46 269.67 184.83 268.35 184.50 269.25 C 184.17 270.15 183.79 272.42 183.62 274.12 C 183.46 275.83 182.85 278.40 183.50 279.50 C 184.15 280.60 184.83 280.54 187.50 280.75 C 190.17 280.96 194.94 281.10 199.50 280.75 C 204.06 280.40 205.56 280.15 214.88 278.62 C 224.19 277.10 244.40 273.71 255.38 271.62 C 266.35 269.54 276.33 267.54 280.75 266.12 C 285.17 264.71 281.65 264.17 281.88 263.12 C 282.10 262.08 282.19 260.65 282.12 259.88 Z" id="s-15-f-0"/>
<clipPath id="c-s-15"><use href="#s-15-f-0"/></clipPath>
<path d="M 274.12 298.50 C 273.98 297.62 273.54 297.31 273.38 296.25 C 273.21 295.19 273.33 293.35 273.12 292.12 C 272.92 290.90 273.40 289.73 272.12 288.88 C 270.85 288.02 268.17 287.29 265.50 287.00 C 262.83 286.71 264.92 285.83 256.12 287.12 C 247.33 288.42 225.12 292.96 212.75 294.75 C 200.38 296.54 187.19 296.77 181.88 297.88 C 176.56 298.98 181.10 299.44 180.88 301.38 C 180.65 303.31 180.27 308.08 180.50 309.50 C 180.73 310.92 180.27 309.83 182.25 309.88 C 184.23 309.92 188.46 309.94 192.38 309.75 C 196.29 309.56 197.27 309.60 205.75 308.75 C 214.23 307.90 235.27 305.58 243.25 304.62 C 251.23 303.67 248.56 303.46 253.62 303.00 C 258.69 302.54 270.19 302.12 273.62 301.88 C 277.06 301.62 274.17 302.06 274.25 301.50 C 274.33 300.94 274.27 299.38 274.12 298.50 Z" id="s-16-f-0"/>
<clipPath id="c-s-16"><use href="#s-16-f-0"/></clipPath>
<path d="M 318.88 321.50 C 318.79 321.06 318.67 320.81 318.25 320.38 C 317.83 319.94 317.92 319.60 316.38 318.88 C 314.83 318.15 312.02 316.79 309.00 316.00 C 305.98 315.21 301.17 314.46 298.25 314.12 C 295.33 313.79 294.62 313.56 291.50 314.00 C 288.38 314.44 285.60 315.62 279.50 316.75 C 273.40 317.88 266.40 319.08 254.88 320.75 C 243.35 322.42 222.90 325.21 210.38 326.75 C 197.85 328.29 185.04 328.65 179.75 330.00 C 174.46 331.35 178.79 333.29 178.62 334.88 C 178.46 336.46 178.42 338.52 178.75 339.50 C 179.08 340.48 179.52 340.38 180.62 340.75 C 181.73 341.12 182.38 341.58 185.38 341.75 C 188.38 341.92 193.54 342.10 198.62 341.75 C 203.71 341.40 211.81 340.23 215.88 339.62 C 219.94 339.02 212.08 339.44 223.00 338.12 C 233.92 336.81 270.04 333.10 281.38 331.75 C 292.71 330.40 286.48 330.67 291.00 330.00 C 295.52 329.33 304.88 328.29 308.50 327.75 C 312.12 327.21 311.54 327.10 312.75 326.75 C 313.96 326.40 314.75 326.25 315.75 325.62 C 316.75 325.00 318.23 323.69 318.75 323.00 C 319.27 322.31 318.96 321.94 318.88 321.50 Z" id="s-17-f-0"/>
<clipPath id="c-s-17"><use href="#s-17-f-0"/></clipPath>
<path d="M 400.88 360.38 C 400.73 359.54 400.38 359.15 399.62 358.38 C 398.88 357.60 399.00 357.29 396.38 355.75 C 393.75 354.21 389.67 351.42 383.88 349.12 C 378.08 346.83 366.42 343.17 361.62 342.00 C 356.83 340.83 357.94 341.83 355.12 342.12 C 352.31 342.42 350.17 343.15 344.75 343.75 C 339.33 344.35 332.73 345.02 322.62 345.75 C 312.52 346.48 295.54 347.23 284.12 348.12 C 272.71 349.02 265.62 349.81 254.12 351.12 C 242.62 352.44 227.00 354.40 215.12 356.00 C 203.25 357.60 188.65 360.00 182.88 360.75 C 177.10 361.50 181.15 360.83 180.50 360.50 C 179.85 360.17 179.38 359.40 179.00 358.75 C 178.62 358.10 178.48 356.90 178.25 356.62 C 178.02 356.35 177.75 353.40 177.62 357.12 C 177.50 360.85 177.48 375.25 177.50 379.00 C 177.52 382.75 177.52 379.50 177.75 379.62 C 177.98 379.75 177.60 380.19 178.88 379.75 C 180.15 379.31 182.46 377.96 185.38 377.00 C 188.29 376.04 190.10 375.33 196.38 374.00 C 202.65 372.67 211.00 370.67 223.00 369.00 C 235.00 367.33 255.81 365.17 268.38 364.00 C 280.94 362.83 288.42 362.50 298.38 362.00 C 308.33 361.50 320.17 361.17 328.12 361.00 C 336.08 360.83 342.15 360.83 346.12 361.00 C 350.10 361.17 350.62 361.67 352.00 362.00 C 353.38 362.33 353.52 362.48 354.38 363.00 C 355.23 363.52 356.40 364.40 357.12 365.12 C 357.85 365.85 358.31 366.31 358.75 367.38 C 359.19 368.44 359.92 365.48 359.75 371.50 C 359.58 377.52 358.42 395.81 357.75 403.50 C 357.08 411.19 356.42 414.02 355.75 417.62 C 355.08 421.23 354.42 423.04 353.75 425.12 C 353.08 427.21 352.75 428.25 351.75 430.12 C 350.75 432.00 348.79 434.92 347.75 436.38 C 346.71 437.83 346.25 438.19 345.50 438.88 C 344.75 439.56 344.00 440.19 343.25 440.50 C 342.50 440.81 343.27 441.21 341.00 440.75 C 338.73 440.29 334.81 439.38 329.62 437.75 C 324.44 436.12 313.52 432.04 309.88 431.00 C 306.23 429.96 308.25 431.12 307.75 431.50 C 307.25 431.88 307.02 432.71 306.88 433.25 C 306.73 433.79 306.71 434.19 306.88 434.75 C 307.04 435.31 304.54 431.81 307.88 436.62 C 311.21 441.44 323.58 458.77 326.88 463.62 C 330.17 468.48 327.02 464.92 327.62 465.75 C 328.23 466.58 329.83 467.75 330.50 468.62 C 331.17 469.50 331.44 470.42 331.62 471.00 C 331.81 471.58 331.42 471.88 331.62 472.12 C 331.83 472.38 332.15 471.62 332.88 472.50 C 333.60 473.38 334.62 475.62 336.00 477.38 C 337.38 479.12 339.98 481.92 341.12 483.00 C 342.27 484.08 342.15 483.73 342.88 483.88 C 343.60 484.02 344.40 484.06 345.50 483.88 C 346.60 483.69 348.12 483.29 349.50 482.75 C 350.88 482.21 351.81 481.77 353.75 480.62 C 355.69 479.48 359.27 477.17 361.12 475.88 C 362.98 474.58 363.54 474.06 364.88 472.88 C 366.21 471.69 367.77 470.25 369.12 468.75 C 370.48 467.25 371.75 465.65 373.00 463.88 C 374.25 462.10 375.67 459.85 376.62 458.12 C 377.58 456.40 377.90 455.65 378.75 453.50 C 379.60 451.35 380.60 449.10 381.75 445.25 C 382.90 441.40 384.48 435.94 385.62 430.38 C 386.77 424.81 387.75 418.92 388.62 411.88 C 389.50 404.83 390.31 393.21 390.88 388.12 C 391.44 383.04 391.29 384.06 392.00 381.38 C 392.71 378.69 393.71 375.00 395.12 372.00 C 396.54 369.00 399.54 365.31 400.50 363.38 C 401.46 361.44 401.02 361.21 400.88 360.38 Z" id="s-18-f-0"/>
<clipPath id="c-s-18"><use href="#s-18-f-0"/></clipPath>
<path d="M 118.25 383.00 C 117.46 382.60 116.81 382.73 116.12 383.12 C 115.44 383.52 114.90 383.71 114.12 385.38 C 113.35 387.04 112.73 390.17 111.50 393.12 C 110.27 396.08 108.56 399.60 106.75 403.12 C 104.94 406.65 103.08 410.06 100.62 414.25 C 98.17 418.44 93.60 425.44 92.00 428.25 C 90.40 431.06 91.33 429.79 91.00 431.12 C 90.67 432.46 90.15 433.52 90.00 436.25 C 89.85 438.98 89.94 444.75 90.12 447.50 C 90.31 450.25 90.81 451.44 91.12 452.75 C 91.44 454.06 91.58 454.58 92.00 455.38 C 92.42 456.17 92.75 456.65 93.62 457.50 C 94.50 458.35 96.19 459.81 97.25 460.50 C 98.31 461.19 98.75 461.40 100.00 461.62 C 101.25 461.85 103.42 462.02 104.75 461.88 C 106.08 461.73 106.77 461.58 108.00 460.75 C 109.23 459.92 110.81 458.29 112.12 456.88 C 113.44 455.46 114.62 454.10 115.88 452.25 C 117.12 450.40 118.15 448.94 119.62 445.75 C 121.10 442.56 123.44 436.83 124.75 433.12 C 126.06 429.42 126.83 426.40 127.50 423.50 C 128.17 420.60 128.56 418.83 128.75 415.75 C 128.94 412.67 128.96 407.92 128.62 405.00 C 128.29 402.08 127.42 400.25 126.75 398.25 C 126.08 396.25 125.60 395.12 124.62 393.00 C 123.65 390.88 121.94 387.17 120.88 385.50 C 119.81 383.83 119.04 383.40 118.25 383.00 Z" id="s-19-f-0"/>
<clipPath id="c-s-19"><use href="#s-19-f-0"/></clipPath>
<path d="M 161.25 394.38 C 160.85 394.62 160.33 394.94 160.12 395.38 C 159.92 395.81 159.60 395.98 160.00 397.00 C 160.40 398.02 161.33 398.65 162.50 401.50 C 163.67 404.35 164.94 409.15 167.00 414.12 C 169.06 419.10 172.94 427.52 174.88 431.38 C 176.81 435.23 177.40 435.71 178.62 437.25 C 179.85 438.79 180.94 440.04 182.25 440.62 C 183.56 441.21 185.42 440.88 186.50 440.75 C 187.58 440.62 187.88 440.50 188.75 439.88 C 189.62 439.25 191.08 437.79 191.75 437.00 C 192.42 436.21 192.42 436.08 192.75 435.12 C 193.08 434.17 193.60 433.62 193.75 431.25 C 193.90 428.88 193.81 423.33 193.62 420.88 C 193.44 418.42 193.10 418.00 192.62 416.50 C 192.15 415.00 191.40 413.17 190.75 411.88 C 190.10 410.58 189.92 410.17 188.75 408.75 C 187.58 407.33 185.60 405.00 183.75 403.38 C 181.90 401.75 179.60 400.21 177.62 399.00 C 175.65 397.79 173.75 396.92 171.88 396.12 C 170.00 395.33 167.94 394.62 166.38 394.25 C 164.81 393.88 163.35 393.85 162.50 393.88 C 161.65 393.90 161.65 394.12 161.25 394.38 Z" id="s-20-f-0"/>
<clipPath id="c-s-20"><use href="#s-20-f-0"/></clipPath>
<path d="M 215.75 387.00 C 214.71 387.10 215.12 387.27 215.00 387.75 C 214.88 388.23 214.56 388.75 215.00 389.88 C 215.44 391.00 215.81 390.79 217.62 394.50 C 219.44 398.21 223.33 407.19 225.88 412.12 C 228.42 417.06 230.85 421.00 232.88 424.12 C 234.90 427.25 236.73 429.44 238.00 430.88 C 239.27 432.31 239.42 432.44 240.50 432.75 C 241.58 433.06 243.35 432.96 244.50 432.75 C 245.65 432.54 246.62 431.96 247.38 431.50 C 248.12 431.04 248.44 430.73 249.00 430.00 C 249.56 429.27 250.29 428.27 250.75 427.12 C 251.21 425.98 251.56 424.90 251.75 423.12 C 251.94 421.35 252.04 418.90 251.88 416.50 C 251.71 414.10 251.31 410.94 250.75 408.75 C 250.19 406.56 249.17 404.69 248.50 403.38 C 247.83 402.06 247.96 402.12 246.75 400.88 C 245.54 399.62 243.58 397.50 241.25 395.88 C 238.92 394.25 235.00 392.27 232.75 391.12 C 230.50 389.98 229.67 389.67 227.75 389.00 C 225.83 388.33 223.25 387.46 221.25 387.12 C 219.25 386.79 216.79 386.90 215.75 387.00 Z" id="s-21-f-0"/>
<clipPath id="c-s-21"><use href="#s-21-f-0"/></clipPath>
<path d="M 268.00 378.50 C 267.71 378.98 267.48 378.90 268.12 379.88 C 268.77 380.85 270.23 382.02 271.88 384.38 C 273.52 386.73 275.62 390.50 278.00 394.00 C 280.38 397.50 283.56 401.98 286.12 405.38 C 288.69 408.77 291.17 411.85 293.38 414.38 C 295.58 416.90 297.65 418.94 299.38 420.50 C 301.10 422.06 302.33 423.02 303.75 423.75 C 305.17 424.48 306.35 424.75 307.88 424.88 C 309.40 425.00 311.52 424.81 312.88 424.50 C 314.23 424.19 315.23 423.48 316.00 423.00 C 316.77 422.52 316.88 422.44 317.50 421.62 C 318.12 420.81 319.23 419.25 319.75 418.12 C 320.27 417.00 320.46 417.00 320.62 414.88 C 320.79 412.75 320.90 407.71 320.75 405.38 C 320.60 403.04 320.25 402.40 319.75 400.88 C 319.25 399.35 318.44 397.52 317.75 396.25 C 317.06 394.98 316.44 394.21 315.62 393.25 C 314.81 392.29 314.21 391.54 312.88 390.50 C 311.54 389.46 309.60 388.10 307.62 387.00 C 305.65 385.90 304.58 385.21 301.00 383.88 C 297.42 382.54 289.90 380.10 286.12 379.00 C 282.35 377.90 280.38 377.60 278.38 377.25 C 276.38 376.90 275.54 376.92 274.12 376.88 C 272.71 376.83 270.90 376.73 269.88 377.00 C 268.85 377.27 268.29 378.02 268.00 378.50 Z" id="s-22-f-0"/>
<clipPath id="c-s-22"><use href="#s-22-f-0"/></clipPath>
</defs>
<g id="s-0" clip-path="url(#c-s-0)">
<use href="#s-0-f-0"/>
<path d="M 112.38 37.12 C 111.04 37.33 111.10 38.00 110.75 38.38 C 110.40 38.75 110.40 38.54 110.25 39.38 C 110.10 40.21 109.88 42.40 109.88 43.38 C 109.88 44.35 109.77 44.21 110.25 45.25 C 110.73 46.29 112.00 47.58 112.75 49.62 C 113.50 51.67 114.10 53.15 114.75 57.50 C 115.40 61.85 116.29 65.83 116.62 75.75 C 116.96 85.67 116.90 108.56 116.75 117.00 C 116.60 125.44 116.12 123.83 115.75 126.38 C 115.38 128.92 114.65 131.17 114.50 132.25 C 114.35 133.33 111.40 132.75 114.88 132.88 C 118.35 133.00 131.88 133.10 135.38 133.00 C 138.88 132.90 135.79 133.40 135.88 132.25 C 135.96 131.10 135.69 128.67 135.88 126.12 C 136.06 123.58 136.81 126.10 137.00 117.00 C 137.19 107.90 136.85 81.83 137.00 71.50 C 137.15 61.17 138.48 59.50 137.88 55.00 C 137.27 50.50 134.56 46.69 133.38 44.50 C 132.19 42.31 131.98 42.75 130.75 41.88 C 129.52 41.00 127.35 39.90 126.00 39.25 C 124.65 38.60 123.83 38.35 122.62 38.00 C 121.42 37.65 120.46 37.27 118.75 37.12 C 117.04 36.98 113.71 36.92 112.38 37.12 Z" id="s-0-f-1"/>
<path d="M 112.00 37.25 C 111.38 37.67 110.60 38.35 110.25 39.38 C 109.90 40.40 109.88 42.40 109.88 43.38 C 109.88 44.35 109.77 44.21 110.25 45.25 C 110.73 46.29 112.00 47.58 112.75 49.62 C 113.50 51.67 114.23 54.81 114.75 57.50 C 115.27 60.19 115.52 61.23 115.88 65.75 C 116.23 70.27 116.62 81.42 116.88 84.62 C 117.12 87.83 114.04 84.98 117.38 85.00 C 120.71 85.02 133.60 87.00 136.88 84.75 C 140.15 82.50 136.83 76.46 137.00 71.50 C 137.17 66.54 138.48 59.50 137.88 55.00 C 137.27 50.50 134.35 46.52 133.38 44.50 C 132.40 42.48 132.67 43.46 132.00 42.88 C 131.33 42.29 130.81 41.77 129.38 41.00 C 127.94 40.23 125.15 38.90 123.38 38.25 C 121.60 37.60 120.31 37.35 118.75 37.12 C 117.19 36.90 115.12 36.85 114.00 36.88 C 112.88 36.90 112.62 36.83 112.00 37.25 Z" id="s-0-f-2"/>
</g>
<g id="s-1" clip-path="url(#c-s-1)">
<use href="#s-1-f-0"/>
<path d="M 132.50 44.38 C 132.90 46.50 134.06 54.50 137.38 55.88 C 140.69 57.25 147.23 53.94 152.38 52.62 C 157.52 51.31 163.08 49.25 168.25 48.00 C 173.42 46.75 179.62 45.60 183.38 45.12 C 187.12 44.65 189.04 45.00 190.75 45.12 C 192.46 45.25 192.65 45.42 193.62 45.88 C 194.60 46.33 195.94 47.08 196.62 47.88 C 197.31 48.67 197.40 49.12 197.75 50.62 C 198.10 52.12 198.40 52.83 198.75 56.88 C 199.10 60.92 199.52 70.83 199.88 74.88 C 200.23 78.92 200.69 72.00 200.88 81.12 C 201.06 90.25 200.92 121.48 201.00 129.62 C 201.08 137.77 197.81 129.94 201.38 130.00 C 204.94 130.06 218.56 130.10 222.38 130.00 C 226.19 129.90 224.12 133.50 224.25 129.38 C 224.38 125.25 223.31 114.96 223.12 105.25 C 222.94 95.54 222.98 78.79 223.12 71.12 C 223.27 63.46 223.69 61.83 224.00 59.25 C 224.31 56.67 224.38 57.17 225.00 55.62 C 225.62 54.08 227.10 51.67 227.75 50.00 C 228.40 48.33 228.73 46.81 228.88 45.62 C 229.02 44.44 229.19 44.04 228.62 42.88 C 228.06 41.71 227.06 40.12 225.50 38.62 C 223.94 37.12 222.23 35.81 219.25 33.88 C 216.27 31.94 210.42 28.48 207.62 27.00 C 204.83 25.52 203.81 25.33 202.50 25.00 C 201.19 24.67 202.31 24.21 199.75 25.00 C 197.19 25.79 191.44 28.29 187.12 29.75 C 182.81 31.21 180.52 31.92 173.88 33.75 C 167.23 35.58 153.73 39.19 147.25 40.75 C 140.77 42.31 137.46 42.52 135.00 43.12 C 132.54 43.73 132.10 42.25 132.50 44.38 Z" id="s-1-f-1"/>
<path d="M 222.75 81.75 C 226.52 77.96 223.62 63.60 224.00 59.25 C 224.38 54.90 224.23 57.60 225.00 55.62 C 225.77 53.65 228.00 49.44 228.62 47.38 C 229.25 45.31 229.21 44.65 228.75 43.25 C 228.29 41.85 226.83 40.12 225.88 39.00 C 224.92 37.88 225.44 38.17 223.00 36.50 C 220.56 34.83 214.15 30.73 211.25 29.00 C 208.35 27.27 207.08 26.79 205.62 26.12 C 204.17 25.46 203.48 25.19 202.50 25.00 C 201.52 24.81 202.31 24.21 199.75 25.00 C 197.19 25.79 191.44 28.29 187.12 29.75 C 182.81 31.21 180.52 31.92 173.88 33.75 C 167.23 35.58 153.73 39.19 147.25 40.75 C 140.77 42.31 137.46 42.52 135.00 43.12 C 132.54 43.73 132.10 42.25 132.50 44.38 C 132.90 46.50 134.90 54.29 137.38 55.88 C 139.85 57.46 141.02 55.46 147.38 53.88 C 153.73 52.29 169.04 47.85 175.50 46.38 C 181.96 44.90 183.58 45.21 186.12 45.00 C 188.67 44.79 189.50 44.98 190.75 45.12 C 192.00 45.27 192.65 45.42 193.62 45.88 C 194.60 46.33 195.94 47.08 196.62 47.88 C 197.31 48.67 197.40 49.12 197.75 50.62 C 198.10 52.12 198.40 52.83 198.75 56.88 C 199.10 60.92 199.52 70.77 199.88 74.88 C 200.23 78.98 200.62 80.31 200.88 81.50 C 201.12 82.69 197.73 81.96 201.38 82.00 C 205.02 82.04 218.98 85.54 222.75 81.75 Z" id="s-1-f-2"/>
<path d="M 218.25 33.62 C 218.29 33.33 219.65 34.10 217.88 33.00 C 216.10 31.90 210.08 28.31 207.62 27.00 C 205.17 25.69 204.44 25.46 203.12 25.12 C 201.81 24.79 202.48 24.21 199.75 25.00 C 197.02 25.79 191.65 28.25 186.75 29.88 C 181.85 31.50 176.96 32.94 170.38 34.75 C 163.79 36.56 153.10 39.35 147.25 40.75 C 141.40 42.15 137.65 42.58 135.25 43.12 C 132.85 43.67 133.33 43.67 132.88 44.00 C 132.42 44.33 132.42 44.79 132.50 45.12 C 132.58 45.46 132.56 44.21 133.38 46.00 C 134.19 47.79 134.94 54.58 137.38 55.88 C 139.81 57.17 142.12 55.23 148.00 53.75 C 153.88 52.27 166.73 48.44 172.62 47.00 C 178.52 45.56 180.62 45.52 183.38 45.12 C 186.12 44.73 183.42 46.35 189.12 44.62 C 194.83 42.90 212.77 36.58 217.62 34.75 C 222.48 32.92 218.21 33.92 218.25 33.62 Z" id="s-1-f-3"/>
<path d="M 181.00 32.88 C 180.92 30.85 180.92 32.00 180.50 31.88 C 180.08 31.75 182.02 31.15 178.50 32.12 C 174.98 33.10 165.31 36.15 159.38 37.75 C 153.44 39.35 146.94 40.85 142.88 41.75 C 138.81 42.65 136.67 42.75 135.00 43.12 C 133.33 43.50 133.29 43.67 132.88 44.00 C 132.46 44.33 132.42 44.79 132.50 45.12 C 132.58 45.46 132.56 44.21 133.38 46.00 C 134.19 47.79 135.04 54.56 137.38 55.88 C 139.71 57.19 142.23 55.19 147.38 53.88 C 152.52 52.56 162.75 49.35 168.25 48.00 C 173.75 46.65 178.25 46.42 180.38 45.75 C 182.50 45.08 180.90 46.15 181.00 44.00 C 181.10 41.85 181.08 34.90 181.00 32.88 Z" id="s-1-f-4"/>
</g>
<g id="s-2" clip-path="url(#c-s-2)">
<use href="#s-2-f-0"/>
<path d="M 184.62 68.38 C 184.27 65.98 183.56 67.94 182.88 67.88 C 182.19 67.81 183.29 67.19 180.50 68.00 C 177.71 68.81 170.58 71.46 166.12 72.75 C 161.67 74.04 158.60 74.73 153.75 75.75 C 148.90 76.77 139.88 78.29 137.00 78.88 C 134.12 79.46 136.58 77.31 136.50 79.25 C 136.42 81.19 135.98 88.42 136.50 90.50 C 137.02 92.58 138.02 91.54 139.62 91.75 C 141.23 91.96 143.19 92.21 146.12 91.75 C 149.06 91.29 153.00 89.83 157.25 89.00 C 161.50 88.17 167.08 87.62 171.62 86.75 C 176.17 85.88 182.27 84.50 184.50 83.75 C 186.73 83.00 184.98 84.81 185.00 82.25 C 185.02 79.69 184.98 70.77 184.62 68.38 Z" id="s-2-f-1"/>
</g>
<g id="s-3" clip-path="url(#c-s-3)">
<use href="#s-3-f-0"/>
<path d="M 184.00 105.38 C 183.77 102.90 183.48 104.77 182.50 105.00 C 181.52 105.23 180.96 105.96 178.12 106.75 C 175.29 107.54 172.35 108.40 165.50 109.75 C 158.65 111.10 141.83 113.96 137.00 114.88 C 132.17 115.79 136.71 114.54 136.50 115.25 C 136.29 115.96 135.90 117.40 135.75 119.12 C 135.60 120.85 135.02 124.35 135.62 125.62 C 136.23 126.90 137.23 126.56 139.38 126.75 C 141.52 126.94 141.19 127.67 148.50 126.75 C 155.81 125.83 177.35 122.40 183.25 121.25 C 189.15 120.10 183.75 122.52 183.88 119.88 C 184.00 117.23 184.23 107.85 184.00 105.38 Z" id="s-3-f-1"/>
</g>
<g id="s-4" clip-path="url(#c-s-4)">
<use href="#s-4-f-0"/>
<path d="M 181.62 140.25 C 181.42 136.94 183.73 139.25 180.75 140.00 C 177.77 140.75 168.65 143.48 163.75 144.75 C 158.85 146.02 156.02 146.77 151.38 147.62 C 146.73 148.48 138.65 149.08 135.88 149.88 C 133.10 150.67 135.15 150.10 134.75 152.38 C 134.35 154.65 133.38 161.44 133.50 163.50 C 133.62 165.56 134.58 164.40 135.50 164.75 C 136.42 165.10 136.52 165.46 139.00 165.62 C 141.48 165.79 143.27 166.42 150.38 165.75 C 157.48 165.08 176.35 162.60 181.62 161.62 C 186.90 160.65 182.00 163.44 182.00 159.88 C 182.00 156.31 181.83 143.56 181.62 140.25 Z" id="s-4-f-1"/>
</g>
<g id="s-5" clip-path="url(#c-s-5)">
<use href="#s-5-f-0"/>
<path d="M 260.62 29.12 C 259.35 29.40 259.31 30.19 258.88 30.75 C 258.44 31.31 258.15 31.54 258.00 32.50 C 257.85 33.46 257.40 34.58 258.00 36.50 C 258.60 38.42 260.67 41.42 261.62 44.00 C 262.58 46.58 263.23 49.54 263.75 52.00 C 264.27 54.46 264.44 55.60 264.75 58.75 C 265.06 61.90 265.48 64.90 265.62 70.88 C 265.77 76.85 265.77 87.50 265.62 94.62 C 265.48 101.75 265.08 108.71 264.75 113.62 C 264.42 118.54 263.75 122.27 263.62 124.12 C 263.50 125.98 263.71 124.60 264.00 124.75 C 264.29 124.90 261.90 124.98 265.38 125.00 C 268.85 125.02 281.52 125.10 284.88 124.88 C 288.23 124.65 285.31 125.58 285.50 123.62 C 285.69 121.67 285.92 123.65 286.00 113.12 C 286.08 102.60 285.88 72.23 286.00 60.50 C 286.12 48.77 286.75 45.98 286.75 42.75 C 286.75 39.52 286.48 41.73 286.00 41.12 C 285.52 40.52 286.19 40.83 283.88 39.12 C 281.56 37.42 275.02 32.54 272.12 30.88 C 269.23 29.21 268.42 29.42 266.50 29.12 C 264.58 28.83 261.90 28.85 260.62 29.12 Z" id="s-5-f-1"/>
<path d="M 260.38 29.38 C 259.73 29.88 258.65 30.69 258.25 31.88 C 257.85 33.06 257.46 34.54 258.00 36.50 C 258.54 38.46 260.52 40.94 261.50 43.62 C 262.48 46.31 263.31 49.88 263.88 52.62 C 264.44 55.38 264.54 56.12 264.88 60.12 C 265.21 64.12 265.62 73.81 265.88 76.62 C 266.12 79.44 263.06 76.96 266.38 77.00 C 269.69 77.04 282.46 80.23 285.75 76.88 C 289.04 73.52 285.94 61.90 286.12 56.88 C 286.31 51.85 286.77 49.10 286.88 46.75 C 286.98 44.40 286.90 43.69 286.75 42.75 C 286.60 41.81 286.58 41.81 286.00 41.12 C 285.42 40.44 285.56 40.33 283.25 38.62 C 280.94 36.92 275.06 32.48 272.12 30.88 C 269.19 29.27 267.29 29.33 265.62 29.00 C 263.96 28.67 263.00 28.81 262.12 28.88 C 261.25 28.94 261.02 28.88 260.38 29.38 Z" id="s-5-f-2"/>
</g>
<g id="s-6" clip-path="url(#c-s-6)">
<use href="#s-6-f-0"/>
<path d="M 271.75 31.38 C 271.04 31.71 271.85 31.96 272.12 32.12 C 272.40 32.29 271.19 30.88 273.38 32.38 C 275.56 33.88 281.06 39.90 285.25 41.12 C 289.44 42.35 292.31 40.60 298.50 39.75 C 304.69 38.90 316.46 36.79 322.38 36.00 C 328.29 35.21 330.88 35.15 334.00 35.00 C 337.12 34.85 339.46 34.98 341.12 35.12 C 342.79 35.27 343.15 35.50 344.00 35.88 C 344.85 36.25 345.62 36.65 346.25 37.38 C 346.88 38.10 347.33 39.04 347.75 40.25 C 348.17 41.46 348.25 41.23 348.75 44.62 C 349.25 48.02 350.42 56.33 350.75 60.62 C 351.08 64.92 350.56 64.71 350.75 70.38 C 350.94 76.04 351.71 86.44 351.88 94.62 C 352.04 102.81 350.52 115.27 351.75 119.50 C 352.98 123.73 355.10 119.94 359.25 120.00 C 363.40 120.06 373.65 129.25 376.62 119.88 C 379.60 110.50 376.90 74.88 377.12 63.75 C 377.35 52.62 377.69 55.75 378.00 53.12 C 378.31 50.50 378.38 50.02 379.00 48.00 C 379.62 45.98 381.10 43.00 381.75 41.00 C 382.40 39.00 382.71 37.31 382.88 36.00 C 383.04 34.69 382.94 33.92 382.75 33.12 C 382.56 32.33 382.58 32.25 381.75 31.25 C 380.92 30.25 379.17 28.35 377.75 27.12 C 376.33 25.90 376.15 25.56 373.25 23.88 C 370.35 22.19 363.29 18.46 360.38 17.00 C 357.46 15.54 357.08 15.46 355.75 15.12 C 354.42 14.79 355.10 14.40 352.38 15.00 C 349.65 15.60 344.71 17.46 339.38 18.75 C 334.04 20.04 329.08 21.08 320.38 22.75 C 311.67 24.42 294.46 27.52 287.12 28.75 C 279.79 29.98 278.94 29.69 276.38 30.12 C 273.81 30.56 272.46 31.04 271.75 31.38 Z" id="s-6-f-1"/>
<path d="M 376.88 69.12 C 377.31 66.19 377.65 56.65 378.00 53.12 C 378.35 49.60 378.25 50.46 379.00 48.00 C 379.75 45.54 381.88 40.85 382.50 38.38 C 383.12 35.90 382.94 34.40 382.75 33.12 C 382.56 31.85 381.96 31.52 381.38 30.75 C 380.79 29.98 380.60 29.65 379.25 28.50 C 377.90 27.35 376.06 25.62 373.25 23.88 C 370.44 22.12 365.23 19.44 362.38 18.00 C 359.52 16.56 357.92 15.73 356.12 15.25 C 354.33 14.77 354.42 14.54 351.62 15.12 C 348.83 15.71 344.58 17.48 339.38 18.75 C 334.17 20.02 329.08 21.08 320.38 22.75 C 311.67 24.42 294.46 27.52 287.12 28.75 C 279.79 29.98 278.94 29.69 276.38 30.12 C 273.81 30.56 272.46 31.04 271.75 31.38 C 271.04 31.71 271.85 31.96 272.12 32.12 C 272.40 32.29 271.19 30.88 273.38 32.38 C 275.56 33.88 282.12 39.75 285.25 41.12 C 288.38 42.50 287.19 41.31 292.12 40.62 C 297.06 39.94 308.23 37.92 314.88 37.00 C 321.52 36.08 327.81 35.46 332.00 35.12 C 336.19 34.79 338.00 34.88 340.00 35.00 C 342.00 35.12 342.85 35.35 344.00 35.88 C 345.15 36.40 346.08 36.67 346.88 38.12 C 347.67 39.58 348.10 40.88 348.75 44.62 C 349.40 48.38 350.40 56.15 350.75 60.62 C 351.10 65.10 350.75 69.60 350.88 71.50 C 351.00 73.40 348.42 71.96 351.50 72.00 C 354.58 72.04 365.40 71.96 369.38 71.75 C 373.35 71.54 374.12 71.19 375.38 70.75 C 376.62 70.31 376.44 72.06 376.88 69.12 Z" id="s-6-f-2"/>
<path d="M 372.25 23.38 C 370.08 21.94 361.23 17.52 358.38 16.12 C 355.52 14.73 356.12 15.19 355.12 15.00 C 354.12 14.81 355.00 14.38 352.38 15.00 C 349.75 15.62 344.71 17.46 339.38 18.75 C 334.04 20.04 328.10 21.25 320.38 22.75 C 312.65 24.25 300.46 26.50 293.00 27.75 C 285.54 29.00 279.17 29.62 275.62 30.25 C 272.08 30.88 270.48 29.98 271.75 31.50 C 273.02 33.02 281.06 37.79 283.25 39.38 C 285.44 40.96 283.62 40.77 284.88 41.00 C 286.12 41.23 284.50 41.58 290.75 40.75 C 297.00 39.92 314.33 37.00 322.38 36.00 C 330.42 35.00 330.83 36.62 339.00 34.75 C 347.17 32.88 365.83 26.65 371.38 24.75 C 376.92 22.85 374.42 24.81 372.25 23.38 Z" id="s-6-f-3"/>
<path d="M 368.00 21.88 C 367.92 21.19 368.77 21.69 367.50 20.88 C 366.23 20.06 362.33 17.96 360.38 17.00 C 358.42 16.04 357.08 15.46 355.75 15.12 C 354.42 14.79 355.10 14.40 352.38 15.00 C 349.65 15.60 344.71 17.46 339.38 18.75 C 334.04 20.04 328.10 21.25 320.38 22.75 C 312.65 24.25 300.46 26.50 293.00 27.75 C 285.54 29.00 279.17 29.62 275.62 30.25 C 272.08 30.88 270.48 29.98 271.75 31.50 C 273.02 33.02 281.06 37.79 283.25 39.38 C 285.44 40.96 283.60 40.77 284.88 41.00 C 286.15 41.23 284.62 41.58 290.88 40.75 C 297.12 39.92 314.35 37.00 322.38 36.00 C 330.40 35.00 331.52 36.42 339.00 34.75 C 346.48 33.08 362.42 27.62 367.25 26.00 C 372.08 24.38 367.88 25.69 368.00 25.00 C 368.12 24.31 368.08 22.56 368.00 21.88 Z" id="s-6-f-4"/>
<path d="M 319.75 23.00 C 319.35 21.00 323.08 22.04 317.62 23.00 C 312.17 23.96 293.88 27.56 287.00 28.75 C 280.12 29.94 278.92 29.67 276.38 30.12 C 273.83 30.58 270.27 29.67 271.75 31.50 C 273.23 33.33 281.73 39.62 285.25 41.12 C 288.77 42.62 287.23 41.25 292.88 40.50 C 298.52 39.75 314.60 37.54 319.12 36.62 C 323.65 35.71 319.90 37.27 320.00 35.00 C 320.10 32.73 320.15 25.00 319.75 23.00 Z" id="s-6-f-5"/>
</g>
<g id="s-7" clip-path="url(#c-s-7)">
<use href="#s-7-f-0"/>
<path d="M 333.88 58.25 C 333.81 55.62 333.88 57.92 333.38 57.88 C 332.88 57.83 332.17 57.67 330.88 58.00 C 329.58 58.33 333.15 58.56 325.62 59.88 C 318.10 61.19 292.42 62.94 285.75 65.88 C 279.08 68.81 285.19 75.50 285.62 77.50 C 286.06 79.50 285.60 77.85 288.38 77.88 C 291.15 77.90 294.69 78.33 302.25 77.62 C 309.81 76.92 328.48 76.85 333.75 73.62 C 339.02 70.40 333.94 60.88 333.88 58.25 Z" id="s-7-f-1"/>
</g>
<g id="s-8" clip-path="url(#c-s-8)">
<use href="#s-8-f-0"/>
<path d="M 333.75 97.00 C 333.62 94.81 336.54 96.17 333.25 96.62 C 329.96 97.08 321.92 98.67 314.00 99.75 C 306.08 100.83 290.50 100.83 285.75 103.12 C 281.00 105.42 284.73 111.56 285.50 113.50 C 286.27 115.44 287.21 114.54 290.38 114.75 C 293.54 114.96 297.33 115.31 304.50 114.75 C 311.67 114.19 328.46 112.21 333.38 111.38 C 338.29 110.54 333.94 112.15 334.00 109.75 C 334.06 107.35 333.88 99.19 333.75 97.00 Z" id="s-8-f-1"/>
</g>
<g id="s-9" clip-path="url(#c-s-9)">
<use href="#s-9-f-0"/>
<path d="M 331.88 133.88 C 331.58 131.12 333.79 133.04 330.25 133.38 C 326.71 133.71 318.21 135.12 310.62 135.88 C 303.04 136.62 289.23 136.65 284.75 137.88 C 280.27 139.10 283.96 140.81 283.75 143.25 C 283.54 145.69 282.88 150.75 283.50 152.50 C 284.12 154.25 285.35 153.52 287.50 153.75 C 289.65 153.98 289.10 154.21 296.38 153.88 C 303.65 153.54 325.21 152.21 331.12 151.75 C 337.04 151.29 331.73 151.44 331.88 151.12 C 332.02 150.81 332.00 152.75 332.00 149.88 C 332.00 147.00 332.17 136.62 331.88 133.88 Z" id="s-9-f-1"/>
</g>
<g id="s-10" clip-path="url(#c-s-10)">
<use href="#s-10-f-0"/>
<path d="M 81.38 168.00 C 80.42 167.56 79.75 167.58 79.00 168.00 C 78.25 168.42 78.42 165.71 76.88 170.50 C 75.33 175.29 71.60 190.27 69.75 196.75 C 67.90 203.23 67.42 204.52 65.75 209.38 C 64.08 214.23 61.69 221.15 59.75 225.88 C 57.81 230.60 55.21 235.12 54.12 237.75 C 53.04 240.38 53.44 239.33 53.25 241.62 C 53.06 243.92 52.85 249.17 53.00 251.50 C 53.15 253.83 53.60 254.31 54.12 255.62 C 54.65 256.94 55.40 258.35 56.12 259.38 C 56.85 260.40 57.60 261.02 58.50 261.75 C 59.40 262.48 59.48 263.42 61.50 263.75 C 63.52 264.08 68.52 264.25 70.62 263.75 C 72.73 263.25 73.10 261.83 74.12 260.75 C 75.15 259.67 75.62 259.10 76.75 257.25 C 77.88 255.40 79.56 252.33 80.88 249.62 C 82.19 246.92 83.17 244.94 84.62 241.00 C 86.08 237.06 88.46 229.83 89.62 226.00 C 90.79 222.17 91.06 221.06 91.62 218.00 C 92.19 214.94 92.79 212.56 93.00 207.62 C 93.21 202.69 93.25 192.71 92.88 188.38 C 92.50 184.04 91.62 183.90 90.75 181.62 C 89.88 179.35 88.62 176.58 87.62 174.75 C 86.62 172.92 85.79 171.75 84.75 170.62 C 83.71 169.50 82.33 168.44 81.38 168.00 Z" id="s-10-f-1"/>
<path d="M 81.75 168.12 C 80.90 167.67 80.15 167.85 79.62 167.88 C 79.10 167.90 79.02 167.96 78.62 168.25 C 78.23 168.54 77.65 168.98 77.25 169.62 C 76.85 170.27 76.50 171.17 76.25 172.12 C 76.00 173.08 76.83 171.27 75.75 175.38 C 74.67 179.48 71.75 190.19 69.75 196.75 C 67.75 203.31 64.71 211.56 63.75 214.75 C 62.79 217.94 59.65 215.67 64.00 215.88 C 68.35 216.08 85.29 216.00 89.88 216.00 C 94.46 216.00 91.15 216.00 91.50 215.88 C 91.85 215.75 91.75 216.62 92.00 215.25 C 92.25 213.88 92.85 212.10 93.00 207.62 C 93.15 203.15 93.25 192.71 92.88 188.38 C 92.50 184.04 91.62 183.90 90.75 181.62 C 89.88 179.35 88.62 176.58 87.62 174.75 C 86.62 172.92 85.73 171.73 84.75 170.62 C 83.77 169.52 82.60 168.58 81.75 168.12 Z" id="s-10-f-2"/>
</g>
<g id="s-11" clip-path="url(#c-s-11)">
<use href="#s-11-f-0"/>
<path d="M 445.88 203.75 C 445.73 202.54 445.42 201.58 444.88 200.38 C 444.33 199.17 443.77 198.04 442.62 196.50 C 441.48 194.96 439.77 192.98 438.00 191.12 C 436.23 189.27 435.79 188.58 432.00 185.38 C 428.21 182.17 419.02 174.79 415.25 171.88 C 411.48 168.96 411.25 169.02 409.38 167.88 C 407.50 166.73 405.60 165.67 404.00 165.00 C 402.40 164.33 401.60 164.02 399.75 163.88 C 397.90 163.73 398.23 163.48 392.88 164.12 C 387.52 164.77 383.50 165.81 367.62 167.75 C 351.75 169.69 320.08 173.42 297.62 175.75 C 275.17 178.08 250.31 180.25 232.88 181.75 C 215.44 183.25 205.40 183.92 193.00 184.75 C 180.60 185.58 175.25 186.00 158.50 186.75 C 141.75 187.50 103.48 185.56 92.50 189.25 C 81.52 192.94 91.38 205.31 92.62 208.88 C 93.88 212.44 97.21 210.29 100.00 210.62 C 102.79 210.96 104.67 211.04 109.38 210.88 C 114.08 210.71 118.67 210.77 128.25 209.62 C 137.83 208.48 152.65 205.94 166.88 204.00 C 181.10 202.06 205.02 199.02 213.62 198.00 C 222.23 196.98 208.27 198.90 218.50 197.88 C 228.73 196.85 253.67 193.79 275.00 191.88 C 296.33 189.96 331.08 187.40 346.50 186.38 C 361.92 185.35 362.71 185.98 367.50 185.75 C 372.29 185.52 372.98 185.08 375.25 185.00 C 377.52 184.92 379.73 185.08 381.12 185.25 C 382.52 185.42 382.83 185.56 383.62 186.00 C 384.42 186.44 385.35 187.25 385.88 187.88 C 386.40 188.50 386.65 188.90 386.75 189.75 C 386.85 190.60 387.02 191.25 386.50 193.00 C 385.98 194.75 385.75 196.08 383.62 200.25 C 381.50 204.42 376.23 213.77 373.75 218.00 C 371.27 222.23 369.62 224.19 368.75 225.62 C 367.88 227.06 368.29 226.40 368.50 226.62 C 368.71 226.85 366.10 226.96 370.00 227.00 C 373.90 227.04 386.75 227.38 391.88 226.88 C 397.00 226.38 396.65 225.15 400.75 224.00 C 404.85 222.85 410.77 221.21 416.50 220.00 C 422.23 218.79 431.00 217.77 435.12 216.75 C 439.25 215.73 439.65 214.96 441.25 213.88 C 442.85 212.79 444.00 211.29 444.75 210.25 C 445.50 209.21 445.56 208.71 445.75 207.62 C 445.94 206.54 446.02 204.96 445.88 203.75 Z" id="s-11-f-1"/>
<path d="M 423.38 178.50 C 422.08 177.29 418.08 173.94 415.25 171.88 C 412.42 169.81 408.73 167.44 406.38 166.12 C 404.02 164.81 402.69 164.38 401.12 164.00 C 399.56 163.62 403.96 163.08 397.00 163.88 C 390.04 164.67 375.94 166.77 359.38 168.75 C 342.81 170.73 318.71 173.58 297.62 175.75 C 276.54 177.92 256.00 179.92 232.88 181.75 C 209.75 183.58 182.23 185.54 158.88 186.75 C 135.52 187.96 103.81 185.38 92.75 189.00 C 81.69 192.62 92.50 205.17 92.50 208.50 C 92.50 211.83 92.29 208.79 92.75 209.00 C 93.21 209.21 93.31 209.44 95.25 209.75 C 97.19 210.06 99.27 210.85 104.38 210.88 C 109.48 210.90 114.23 211.19 125.88 209.88 C 137.52 208.56 159.62 204.98 174.25 203.00 C 188.88 201.02 206.25 198.85 213.62 198.00 C 221.00 197.15 210.19 198.71 218.50 197.88 C 226.81 197.04 248.52 194.48 263.50 193.00 C 278.48 191.52 294.54 190.10 308.38 189.00 C 322.21 187.90 334.42 187.10 346.50 186.38 C 358.58 185.65 368.60 185.73 380.88 184.62 C 393.15 183.52 413.10 180.67 420.12 179.75 C 427.15 178.83 422.46 179.33 423.00 179.12 C 423.54 178.92 424.67 179.71 423.38 178.50 Z" id="s-11-f-2"/>
<path d="M 380.38 167.12 C 380.10 166.21 384.12 165.56 379.25 166.00 C 374.38 166.44 364.73 168.12 351.12 169.75 C 337.52 171.38 319.40 173.58 297.62 175.75 C 275.85 177.92 243.65 180.92 220.50 182.75 C 197.35 184.58 180.04 185.71 158.75 186.75 C 137.46 187.79 103.79 185.38 92.75 189.00 C 81.71 192.62 92.50 205.17 92.50 208.50 C 92.50 211.83 91.25 208.62 92.75 209.00 C 94.25 209.38 98.12 210.46 101.50 210.75 C 104.88 211.04 108.94 210.90 113.00 210.75 C 117.06 210.60 115.67 211.17 125.88 209.88 C 136.08 208.58 159.62 204.98 174.25 203.00 C 188.88 201.02 204.58 199.02 213.62 198.00 C 222.67 196.98 220.19 197.71 228.50 196.88 C 236.81 196.04 247.92 194.48 263.50 193.00 C 279.08 191.52 302.65 189.38 322.00 188.00 C 341.35 186.62 369.81 185.38 379.62 184.75 C 389.44 184.12 380.65 184.52 380.88 184.25 C 381.10 183.98 381.00 185.25 381.00 183.12 C 381.00 181.00 380.98 174.17 380.88 171.50 C 380.77 168.83 380.65 168.04 380.38 167.12 Z" id="s-11-f-3"/>
<path d="M 333.00 172.25 C 332.90 169.92 338.27 171.29 332.38 171.88 C 326.48 172.46 310.29 174.44 297.62 175.75 C 284.96 177.06 273.81 178.25 256.38 179.75 C 238.94 181.25 213.58 183.40 193.00 184.75 C 172.42 186.10 149.58 187.17 132.88 187.88 C 116.17 188.58 99.48 185.56 92.75 189.00 C 86.02 192.44 92.50 205.17 92.50 208.50 C 92.50 211.83 92.29 208.79 92.75 209.00 C 93.21 209.21 93.79 209.46 95.25 209.75 C 96.71 210.04 98.38 210.58 101.50 210.75 C 104.62 210.92 109.94 210.90 114.00 210.75 C 118.06 210.60 115.83 211.17 125.88 209.88 C 135.92 208.58 159.62 204.98 174.25 203.00 C 188.88 201.02 206.25 198.85 213.62 198.00 C 221.00 197.15 208.25 198.90 218.50 197.88 C 228.75 196.85 260.15 193.35 275.12 191.88 C 290.10 190.40 298.88 189.73 308.38 189.00 C 317.88 188.27 328.02 188.02 332.12 187.50 C 336.23 186.98 332.85 188.42 333.00 185.88 C 333.15 183.33 333.10 174.58 333.00 172.25 Z" id="s-11-f-4"/>
<path d="M 284.75 177.88 C 284.65 175.73 284.50 177.27 284.12 177.12 C 283.75 176.98 291.04 176.23 282.50 177.00 C 273.96 177.77 250.60 180.29 232.88 181.75 C 215.15 183.21 192.81 184.73 176.12 185.75 C 159.44 186.77 146.65 187.33 132.75 187.88 C 118.85 188.42 99.46 185.56 92.75 189.00 C 86.04 192.44 92.50 205.17 92.50 208.50 C 92.50 211.83 92.31 208.79 92.75 209.00 C 93.19 209.21 93.67 209.46 95.12 209.75 C 96.58 210.04 98.35 210.58 101.50 210.75 C 104.65 210.92 109.94 210.90 114.00 210.75 C 118.06 210.60 115.83 211.17 125.88 209.88 C 135.92 208.58 159.62 204.98 174.25 203.00 C 188.88 201.02 206.25 198.85 213.62 198.00 C 221.00 197.15 213.54 198.38 218.50 197.88 C 223.46 197.38 232.38 196.15 243.38 195.00 C 254.38 193.85 277.60 191.83 284.50 191.00 C 291.40 190.17 284.71 192.19 284.75 190.00 C 284.79 187.81 284.85 180.02 284.75 177.88 Z" id="s-11-f-5"/>
<path d="M 236.88 181.88 C 236.67 179.69 243.08 180.90 235.75 181.38 C 228.42 181.85 205.71 183.85 192.88 184.75 C 180.04 185.65 175.44 186.04 158.75 186.75 C 142.06 187.46 103.79 185.38 92.75 189.00 C 81.71 192.62 92.50 205.17 92.50 208.50 C 92.50 211.83 91.25 208.62 92.75 209.00 C 94.25 209.38 98.02 210.46 101.50 210.75 C 104.98 211.04 109.56 210.90 113.62 210.75 C 117.69 210.60 115.77 211.17 125.88 209.88 C 135.98 208.58 159.62 204.98 174.25 203.00 C 188.88 201.02 203.35 199.17 213.62 198.00 C 223.90 196.83 232.00 196.44 235.88 196.00 C 239.75 195.56 236.69 195.62 236.88 195.38 C 237.06 195.12 237.00 196.75 237.00 194.50 C 237.00 192.25 237.08 184.06 236.88 181.88 Z" id="s-11-f-6"/>
<path d="M 189.00 186.25 C 188.94 183.85 189.29 185.58 188.62 185.38 C 187.96 185.17 193.81 184.60 185.00 185.00 C 176.19 185.40 151.12 187.08 135.75 187.75 C 120.38 188.42 99.96 185.54 92.75 189.00 C 85.54 192.46 92.50 205.17 92.50 208.50 C 92.50 211.83 92.29 208.79 92.75 209.00 C 93.21 209.21 93.31 209.44 95.25 209.75 C 97.19 210.06 99.27 210.85 104.38 210.88 C 109.48 210.90 111.90 211.46 125.88 209.88 C 139.85 208.29 177.73 203.06 188.25 201.38 C 198.77 199.69 188.88 202.27 189.00 199.75 C 189.12 197.23 189.06 188.65 189.00 186.25 Z" id="s-11-f-7"/>
<path d="M 140.88 188.00 C 140.75 184.90 148.27 187.33 140.25 187.50 C 132.23 187.67 100.69 185.44 92.75 189.00 C 84.81 192.56 92.21 205.42 92.62 208.88 C 93.04 212.33 93.77 209.44 95.25 209.75 C 96.73 210.06 98.92 210.56 101.50 210.75 C 104.08 210.94 106.69 211.02 110.75 210.88 C 114.81 210.73 120.90 210.40 125.88 209.88 C 130.85 209.35 138.10 208.38 140.62 207.75 C 143.15 207.12 140.96 209.42 141.00 206.12 C 141.04 202.83 141.00 191.10 140.88 188.00 Z" id="s-11-f-8"/>
</g>
<g id="s-12" clip-path="url(#c-s-12)">
<use href="#s-12-f-0"/>
</g>
<g id="s-13" clip-path="url(#c-s-13)">
<use href="#s-13-f-0"/>
<path d="M 159.00 234.00 C 157.42 234.19 157.27 234.71 156.62 235.25 C 155.98 235.79 155.42 236.38 155.12 237.25 C 154.83 238.12 154.85 239.65 154.88 240.50 C 154.90 241.35 154.60 241.17 155.25 242.38 C 155.90 243.58 157.83 246.08 158.75 247.75 C 159.67 249.42 160.10 250.46 160.75 252.38 C 161.40 254.29 162.17 256.96 162.62 259.25 C 163.08 261.54 163.31 262.96 163.50 266.12 C 163.69 269.29 163.90 269.65 163.75 278.25 C 163.60 286.85 162.96 309.42 162.62 317.75 C 162.29 326.08 162.23 324.65 161.75 328.25 C 161.27 331.85 160.60 335.81 159.75 339.38 C 158.90 342.94 158.04 345.88 156.62 349.62 C 155.21 353.38 152.19 359.21 151.25 361.88 C 150.31 364.54 150.85 364.33 151.00 365.62 C 151.15 366.92 151.42 367.88 152.12 369.62 C 152.83 371.38 154.52 374.77 155.25 376.12 C 155.98 377.48 152.75 377.46 156.50 377.75 C 160.25 378.04 174.17 382.17 177.75 377.88 C 181.33 373.58 177.62 359.67 178.00 352.00 C 178.38 344.33 179.52 338.83 180.00 331.88 C 180.48 324.92 180.56 315.19 180.88 310.25 C 181.19 305.31 181.69 304.52 181.88 302.25 C 182.06 299.98 181.50 301.58 182.00 296.62 C 182.50 291.67 184.31 278.23 184.88 272.50 C 185.44 266.77 185.19 264.56 185.38 262.25 C 185.56 259.94 185.46 260.10 186.00 258.62 C 186.54 257.15 188.15 254.69 188.62 253.38 C 189.10 252.06 189.85 252.71 188.88 250.75 C 187.90 248.79 184.65 243.75 182.75 241.62 C 180.85 239.50 179.10 238.92 177.50 238.00 C 175.90 237.08 175.02 236.77 173.12 236.12 C 171.23 235.48 168.48 234.48 166.12 234.12 C 163.77 233.77 160.58 233.81 159.00 234.00 Z" id="s-13-f-1"/>
<path d="M 159.00 234.00 C 157.42 234.19 157.27 234.71 156.62 235.25 C 155.98 235.79 155.42 236.38 155.12 237.25 C 154.83 238.12 154.85 239.65 154.88 240.50 C 154.90 241.35 154.60 241.17 155.25 242.38 C 155.90 243.58 157.83 246.08 158.75 247.75 C 159.67 249.42 160.10 250.46 160.75 252.38 C 161.40 254.29 162.17 256.96 162.62 259.25 C 163.08 261.54 163.31 262.96 163.50 266.12 C 163.69 269.29 163.88 270.02 163.75 278.25 C 163.62 286.48 163.12 306.98 162.75 315.50 C 162.38 324.02 161.65 326.98 161.50 329.38 C 161.35 331.77 159.00 329.85 161.88 329.88 C 164.75 329.90 175.75 329.65 178.75 329.50 C 181.75 329.35 179.62 329.46 179.88 329.00 C 180.12 328.54 180.08 329.88 180.25 326.75 C 180.42 323.62 180.60 314.33 180.88 310.25 C 181.15 306.17 181.69 304.52 181.88 302.25 C 182.06 299.98 181.50 301.56 182.00 296.62 C 182.50 291.69 184.33 278.21 184.88 272.62 C 185.42 267.04 185.06 265.44 185.25 263.12 C 185.44 260.81 185.44 260.38 186.00 258.75 C 186.56 257.12 188.15 254.71 188.62 253.38 C 189.10 252.04 189.85 252.71 188.88 250.75 C 187.90 248.79 184.65 243.75 182.75 241.62 C 180.85 239.50 179.10 238.92 177.50 238.00 C 175.90 237.08 175.02 236.77 173.12 236.12 C 171.23 235.48 168.48 234.48 166.12 234.12 C 163.77 233.77 160.58 233.81 159.00 234.00 Z" id="s-13-f-2"/>
<path d="M 157.12 234.88 C 156.46 235.46 155.35 236.38 155.00 237.50 C 154.65 238.62 154.23 239.58 155.00 241.62 C 155.77 243.67 158.35 246.81 159.62 249.75 C 160.90 252.69 161.94 255.85 162.62 259.25 C 163.31 262.65 163.56 266.40 163.75 270.12 C 163.94 273.85 163.50 279.65 163.75 281.62 C 164.00 283.60 161.96 281.98 165.25 282.00 C 168.54 282.02 180.23 283.33 183.50 281.75 C 186.77 280.17 184.65 274.88 184.88 272.50 C 185.10 270.12 184.71 269.71 184.88 267.50 C 185.04 265.29 185.25 261.60 185.88 259.25 C 186.50 256.90 188.15 254.85 188.62 253.38 C 189.10 251.90 189.73 252.33 188.75 250.38 C 187.77 248.42 184.62 243.69 182.75 241.62 C 180.88 239.56 179.10 238.92 177.50 238.00 C 175.90 237.08 175.12 236.79 173.12 236.12 C 171.12 235.46 167.85 234.35 165.50 234.00 C 163.15 233.65 160.40 233.85 159.00 234.00 C 157.60 234.15 157.79 234.29 157.12 234.88 Z" id="s-13-f-3"/>
</g>
<g id="s-14" clip-path="url(#c-s-14)">
<use href="#s-14-f-0"/>
<path d="M 322.88 242.62 C 322.96 242.06 322.92 241.12 322.75 240.50 C 322.58 239.88 322.50 239.65 321.88 238.88 C 321.25 238.10 321.23 237.52 319.00 235.88 C 316.77 234.23 312.21 230.96 308.50 229.00 C 304.79 227.04 300.56 225.48 296.75 224.12 C 292.94 222.77 288.38 221.38 285.62 220.88 C 282.88 220.38 283.48 220.58 280.25 221.12 C 277.02 221.67 271.60 222.69 266.25 224.12 C 260.90 225.56 254.81 227.98 248.12 229.75 C 241.44 231.52 232.79 233.44 226.12 234.75 C 219.46 236.06 211.92 237.15 208.12 237.62 C 204.33 238.10 204.69 237.48 203.38 237.62 C 202.06 237.77 201.62 238.33 200.25 238.50 C 198.88 238.67 196.44 238.40 195.12 238.62 C 193.81 238.85 194.46 239.50 192.38 239.88 C 190.29 240.25 184.44 240.62 182.62 240.88 C 180.81 241.12 180.65 239.83 181.50 241.38 C 182.35 242.92 186.56 248.54 187.75 250.12 C 188.94 251.71 184.12 251.12 188.62 250.88 C 193.12 250.62 206.46 249.67 214.75 248.62 C 223.04 247.58 230.52 246.06 238.38 244.62 C 246.23 243.19 255.15 241.10 261.88 240.00 C 268.60 238.90 275.69 238.21 278.75 238.00 C 281.81 237.79 279.75 238.29 280.25 238.75 C 280.75 239.21 281.33 239.50 281.75 240.75 C 282.17 242.00 282.60 244.29 282.75 246.25 C 282.90 248.21 282.96 249.17 282.62 252.50 C 282.29 255.83 281.69 262.40 280.75 266.25 C 279.81 270.10 277.58 273.88 277.00 275.62 C 276.42 277.38 276.96 276.52 277.25 276.75 C 277.54 276.98 274.50 277.00 278.75 277.00 C 283.00 277.00 298.60 276.96 302.75 276.75 C 306.90 276.54 301.92 279.46 303.62 275.75 C 305.33 272.04 310.73 259.06 313.00 254.50 C 315.27 249.94 315.71 250.15 317.25 248.38 C 318.79 246.60 321.31 244.83 322.25 243.88 C 323.19 242.92 322.79 243.19 322.88 242.62 Z" id="s-14-f-1"/>
<path d="M 307.00 228.38 C 304.42 227.10 294.33 223.35 291.00 222.12 C 287.67 220.90 288.62 221.19 287.00 221.00 C 285.38 220.81 284.81 220.46 281.25 221.00 C 277.69 221.54 270.56 222.96 265.62 224.25 C 260.69 225.54 256.56 227.33 251.62 228.75 C 246.69 230.17 241.12 231.58 236.00 232.75 C 230.88 233.92 225.50 234.94 220.88 235.75 C 216.25 236.56 211.17 237.31 208.25 237.62 C 205.33 237.94 204.71 237.48 203.38 237.62 C 202.04 237.77 201.73 238.31 200.25 238.50 C 198.77 238.69 195.50 238.62 194.50 238.75 C 193.50 238.88 194.60 239.06 194.25 239.25 C 193.90 239.44 194.31 239.60 192.38 239.88 C 190.44 240.15 184.44 240.62 182.62 240.88 C 180.81 241.12 180.50 239.71 181.50 241.38 C 182.50 243.04 184.31 249.52 188.62 250.88 C 192.94 252.23 201.02 250.19 207.38 249.50 C 213.73 248.81 217.69 248.33 226.75 246.75 C 235.81 245.17 252.94 241.52 261.75 240.00 C 270.56 238.48 272.67 239.25 279.62 237.62 C 286.58 236.00 299.02 231.56 303.50 230.25 C 307.98 228.94 305.92 230.06 306.50 229.75 C 307.08 229.44 309.58 229.65 307.00 228.38 Z" id="s-14-f-2"/>
<path d="M 277.50 222.00 C 277.25 219.46 278.48 221.50 276.50 221.88 C 274.52 222.25 270.35 222.94 265.62 224.25 C 260.90 225.56 254.71 228.00 248.12 229.75 C 241.54 231.50 232.77 233.44 226.12 234.75 C 219.48 236.06 212.04 237.15 208.25 237.62 C 204.46 238.10 204.71 237.48 203.38 237.62 C 202.04 237.77 201.73 238.31 200.25 238.50 C 198.77 238.69 195.50 238.62 194.50 238.75 C 193.50 238.88 194.60 239.06 194.25 239.25 C 193.90 239.44 194.31 239.60 192.38 239.88 C 190.44 240.15 184.44 240.62 182.62 240.88 C 180.81 241.12 180.65 239.83 181.50 241.38 C 182.35 242.92 186.56 248.54 187.75 250.12 C 188.94 251.71 185.54 250.96 188.62 250.88 C 191.71 250.79 200.77 250.17 206.25 249.62 C 211.73 249.08 212.23 249.23 221.50 247.62 C 230.77 246.02 252.62 241.60 261.88 240.00 C 271.12 238.40 274.31 238.48 277.00 238.00 C 279.69 237.52 277.92 239.79 278.00 237.12 C 278.08 234.46 277.75 224.54 277.50 222.00 Z" id="s-14-f-3"/>
<path d="M 230.00 234.38 C 229.81 232.40 230.02 233.77 228.50 234.00 C 226.98 234.23 224.25 235.15 220.88 235.75 C 217.50 236.35 211.17 237.31 208.25 237.62 C 205.33 237.94 204.71 237.48 203.38 237.62 C 202.04 237.77 201.69 238.31 200.25 238.50 C 198.81 238.69 196.06 238.52 194.75 238.75 C 193.44 238.98 194.58 239.44 192.38 239.88 C 190.17 240.31 182.12 239.54 181.50 241.38 C 180.88 243.21 184.50 249.50 188.62 250.88 C 192.75 252.25 200.77 250.17 206.25 249.62 C 211.73 249.08 217.60 248.25 221.50 247.62 C 225.40 247.00 228.21 248.08 229.62 245.88 C 231.04 243.67 230.19 236.35 230.00 234.38 Z" id="s-14-f-4"/>
</g>
<g id="s-15" clip-path="url(#c-s-15)">
<use href="#s-15-f-0"/>
<path d="M 280.00 258.12 C 279.81 256.67 279.77 257.29 278.75 257.00 C 277.73 256.71 276.69 256.54 273.88 256.38 C 271.06 256.21 270.60 254.77 261.88 256.00 C 253.15 257.23 234.21 261.62 221.50 263.75 C 208.79 265.88 191.79 267.83 185.62 268.75 C 179.46 269.67 184.83 268.35 184.50 269.25 C 184.17 270.15 183.79 272.42 183.62 274.12 C 183.46 275.83 182.85 278.40 183.50 279.50 C 184.15 280.60 184.65 280.56 187.50 280.75 C 190.35 280.94 191.06 281.81 200.62 280.62 C 210.19 279.44 233.92 275.56 244.88 273.62 C 255.83 271.69 260.65 270.15 266.38 269.00 C 272.10 267.85 277.00 267.29 279.25 266.75 C 281.50 266.21 279.75 267.19 279.88 265.75 C 280.00 264.31 280.19 259.58 280.00 258.12 Z" id="s-15-f-1"/>
<path d="M 232.00 262.50 C 231.71 260.44 233.02 261.62 230.25 262.00 C 227.48 262.38 222.92 263.60 215.38 264.75 C 207.83 265.90 190.15 268.12 185.00 268.88 C 179.85 269.62 184.73 268.38 184.50 269.25 C 184.27 270.12 183.79 272.42 183.62 274.12 C 183.46 275.83 182.85 278.40 183.50 279.50 C 184.15 280.60 184.90 280.54 187.50 280.75 C 190.10 280.96 191.94 281.56 199.12 280.75 C 206.31 279.94 225.19 276.79 230.62 275.88 C 236.06 274.96 231.52 275.50 231.75 275.25 C 231.98 275.00 231.96 276.50 232.00 274.38 C 232.04 272.25 232.29 264.56 232.00 262.50 Z" id="s-15-f-2"/>
</g>
<g id="s-16" clip-path="url(#c-s-16)">
<use href="#s-16-f-0"/>
<path d="M 228.75 292.38 C 228.56 290.75 228.27 291.96 227.88 292.00 C 227.48 292.04 230.27 292.00 226.38 292.62 C 222.48 293.25 211.94 294.88 204.50 295.75 C 197.06 296.62 185.71 296.79 181.75 297.88 C 177.79 298.96 180.96 300.31 180.75 302.25 C 180.54 304.19 180.25 308.23 180.50 309.50 C 180.75 310.77 179.88 309.85 182.25 309.88 C 184.62 309.90 187.02 310.29 194.75 309.62 C 202.48 308.96 222.92 307.19 228.62 305.88 C 234.33 304.56 228.98 304.00 229.00 301.75 C 229.02 299.50 228.94 294.00 228.75 292.38 Z" id="s-16-f-1"/>
</g>
<g id="s-17" clip-path="url(#c-s-17)">
<use href="#s-17-f-0"/>
<path d="M 274.88 318.00 C 274.79 315.79 275.23 317.62 274.50 317.62 C 273.77 317.62 273.77 317.48 270.50 318.00 C 267.23 318.52 262.23 319.62 254.88 320.75 C 247.52 321.88 238.90 323.21 226.38 324.75 C 213.85 326.29 187.71 328.31 179.75 330.00 C 171.79 331.69 178.79 333.29 178.62 334.88 C 178.46 336.46 178.48 338.54 178.75 339.50 C 179.02 340.46 179.27 340.27 180.25 340.62 C 181.23 340.98 181.56 341.44 184.62 341.62 C 187.69 341.81 193.42 342.08 198.62 341.75 C 203.83 341.42 211.81 340.23 215.88 339.62 C 219.94 339.02 213.27 339.29 223.00 338.12 C 232.73 336.96 265.58 333.83 274.25 332.62 C 282.92 331.42 274.90 333.31 275.00 330.88 C 275.10 328.44 274.96 320.21 274.88 318.00 Z" id="s-17-f-1"/>
<path d="M 226.75 325.00 C 225.96 323.08 224.98 324.71 222.25 325.00 C 219.52 325.29 217.46 325.92 210.38 326.75 C 203.29 327.58 185.04 328.65 179.75 330.00 C 174.46 331.35 178.79 333.23 178.62 334.88 C 178.46 336.52 178.42 338.90 178.75 339.88 C 179.08 340.85 179.40 340.44 180.62 340.75 C 181.85 341.06 183.12 341.58 186.12 341.75 C 189.12 341.92 193.88 342.08 198.62 341.75 C 203.38 341.42 210.02 340.42 214.62 339.75 C 219.23 339.08 224.19 338.29 226.25 337.75 C 228.31 337.21 226.92 338.62 227.00 336.50 C 227.08 334.38 227.54 326.92 226.75 325.00 Z" id="s-17-f-2"/>
</g>
<g id="s-18" clip-path="url(#c-s-18)">
<use href="#s-18-f-0"/>
<path d="M 400.88 360.38 C 400.73 359.54 400.38 359.15 399.62 358.38 C 398.88 357.60 399.00 357.29 396.38 355.75 C 393.75 354.21 389.67 351.42 383.88 349.12 C 378.08 346.83 366.42 343.17 361.62 342.00 C 356.83 340.83 357.94 341.83 355.12 342.12 C 352.31 342.42 350.17 343.15 344.75 343.75 C 339.33 344.35 332.73 345.02 322.62 345.75 C 312.52 346.48 295.54 347.23 284.12 348.12 C 272.71 349.02 265.62 349.81 254.12 351.12 C 242.62 352.44 227.00 354.40 215.12 356.00 C 203.25 357.60 188.65 360.00 182.88 360.75 C 177.10 361.50 181.15 360.83 180.50 360.50 C 179.85 360.17 179.40 359.42 179.00 358.75 C 178.60 358.08 178.38 356.52 178.12 356.50 C 177.88 356.48 177.60 354.88 177.50 358.62 C 177.40 362.38 177.46 375.50 177.50 379.00 C 177.54 382.50 177.52 379.50 177.75 379.62 C 177.98 379.75 177.60 380.19 178.88 379.75 C 180.15 379.31 182.46 377.96 185.38 377.00 C 188.29 376.04 190.10 375.33 196.38 374.00 C 202.65 372.67 211.00 370.67 223.00 369.00 C 235.00 367.33 255.81 365.17 268.38 364.00 C 280.94 362.83 288.42 362.50 298.38 362.00 C 308.33 361.50 320.17 361.17 328.12 361.00 C 336.08 360.83 342.15 360.83 346.12 361.00 C 350.10 361.17 350.62 361.67 352.00 362.00 C 353.38 362.33 353.52 362.48 354.38 363.00 C 355.23 363.52 356.40 364.40 357.12 365.12 C 357.85 365.85 358.31 366.31 358.75 367.38 C 359.19 368.44 359.77 367.12 359.75 371.50 C 359.73 375.88 359.29 385.94 358.62 393.62 C 357.96 401.31 356.56 412.38 355.75 417.62 C 354.94 422.88 354.42 423.04 353.75 425.12 C 353.08 427.21 352.71 428.29 351.75 430.12 C 350.79 431.96 351.04 429.94 348.00 436.12 C 344.96 442.31 336.21 461.62 333.50 467.25 C 330.79 472.88 332.06 469.06 331.75 469.88 C 331.44 470.69 331.46 471.69 331.62 472.12 C 331.79 472.56 331.50 471.00 332.75 472.50 C 334.00 474.00 337.60 479.29 339.12 481.12 C 340.65 482.96 340.79 483.04 341.88 483.50 C 342.96 483.96 344.35 484.00 345.62 483.88 C 346.90 483.75 348.15 483.29 349.50 482.75 C 350.85 482.21 351.81 481.77 353.75 480.62 C 355.69 479.48 359.27 477.17 361.12 475.88 C 362.98 474.58 363.54 474.06 364.88 472.88 C 366.21 471.69 367.77 470.25 369.12 468.75 C 370.48 467.25 371.75 465.65 373.00 463.88 C 374.25 462.10 375.67 459.85 376.62 458.12 C 377.58 456.40 377.90 455.65 378.75 453.50 C 379.60 451.35 380.60 449.10 381.75 445.25 C 382.90 441.40 384.48 435.94 385.62 430.38 C 386.77 424.81 387.75 418.92 388.62 411.88 C 389.50 404.83 390.31 393.21 390.88 388.12 C 391.44 383.04 391.29 384.06 392.00 381.38 C 392.71 378.69 393.71 375.00 395.12 372.00 C 396.54 369.00 399.54 365.31 400.50 363.38 C 401.46 361.44 401.02 361.21 400.88 360.38 Z" id="s-18-f-1"/>
<path d="M 400.88 360.38 C 400.73 359.54 400.38 359.15 399.62 358.38 C 398.88 357.60 399.00 357.29 396.38 355.75 C 393.75 354.21 389.67 351.42 383.88 349.12 C 378.08 346.83 366.42 343.17 361.62 342.00 C 356.83 340.83 357.94 341.83 355.12 342.12 C 352.31 342.42 350.15 343.15 344.75 343.75 C 339.35 344.35 332.85 345.02 322.75 345.75 C 312.65 346.48 295.56 347.23 284.12 348.12 C 272.69 349.02 265.62 349.81 254.12 351.12 C 242.62 352.44 227.00 354.40 215.12 356.00 C 203.25 357.60 188.65 360.00 182.88 360.75 C 177.10 361.50 181.15 360.83 180.50 360.50 C 179.85 360.17 179.40 359.42 179.00 358.75 C 178.60 358.08 178.38 356.52 178.12 356.50 C 177.88 356.48 177.60 354.83 177.50 358.62 C 177.40 362.42 177.27 375.73 177.50 379.25 C 177.73 382.77 177.56 380.12 178.88 379.75 C 180.19 379.38 183.08 377.79 185.38 377.00 C 187.67 376.21 188.31 376.00 192.62 375.00 C 196.94 374.00 204.92 372.17 211.25 371.00 C 217.58 369.83 222.94 369.00 230.62 368.00 C 238.31 367.00 248.90 365.83 257.38 365.00 C 265.85 364.17 271.10 363.62 281.50 363.00 C 291.90 362.38 308.98 361.58 319.75 361.25 C 330.52 360.92 340.75 360.88 346.12 361.00 C 351.50 361.12 350.62 361.67 352.00 362.00 C 353.38 362.33 353.46 362.42 354.38 363.00 C 355.29 363.58 356.77 364.77 357.50 365.50 C 358.23 366.23 358.38 366.38 358.75 367.38 C 359.12 368.38 359.77 367.12 359.75 371.50 C 359.73 375.88 359.12 386.94 358.62 393.62 C 358.12 400.31 357.23 407.62 356.75 411.62 C 356.27 415.62 356.27 415.31 355.75 417.62 C 355.23 419.94 354.29 423.42 353.62 425.50 C 352.96 427.58 352.90 427.94 351.75 430.12 C 350.60 432.31 348.94 434.23 346.75 438.62 C 344.56 443.02 339.56 453.44 338.62 456.50 C 337.69 459.56 334.81 456.94 341.12 457.00 C 347.44 457.06 370.42 457.06 376.50 456.88 C 382.58 456.69 377.08 456.83 377.62 455.88 C 378.17 454.92 378.77 453.88 379.75 451.12 C 380.73 448.38 382.52 442.83 383.50 439.38 C 384.48 435.92 384.75 435.15 385.62 430.38 C 386.50 425.60 387.88 417.79 388.75 410.75 C 389.62 403.71 390.33 393.02 390.88 388.12 C 391.42 383.23 391.29 384.06 392.00 381.38 C 392.71 378.69 393.71 375.00 395.12 372.00 C 396.54 369.00 399.54 365.31 400.50 363.38 C 401.46 361.44 401.02 361.21 400.88 360.38 Z" id="s-18-f-2"/>
<path d="M 400.88 360.38 C 400.73 359.54 400.38 359.15 399.62 358.38 C 398.88 357.60 399.00 357.29 396.38 355.75 C 393.75 354.21 389.67 351.42 383.88 349.12 C 378.08 346.83 366.42 343.17 361.62 342.00 C 356.83 340.83 357.94 341.83 355.12 342.12 C 352.31 342.42 350.15 343.15 344.75 343.75 C 339.35 344.35 332.83 345.02 322.75 345.75 C 312.67 346.48 295.69 347.23 284.25 348.12 C 272.81 349.02 265.79 349.79 254.12 351.12 C 242.46 352.46 226.12 354.52 214.25 356.12 C 202.38 357.73 188.50 360.02 182.88 360.75 C 177.25 361.48 181.15 360.83 180.50 360.50 C 179.85 360.17 179.40 359.42 179.00 358.75 C 178.60 358.08 178.38 356.52 178.12 356.50 C 177.88 356.48 177.60 354.92 177.50 358.62 C 177.40 362.33 177.46 375.25 177.50 378.75 C 177.54 382.25 177.54 379.46 177.75 379.62 C 177.96 379.79 177.48 380.19 178.75 379.75 C 180.02 379.31 183.06 377.79 185.38 377.00 C 187.69 376.21 188.31 376.00 192.62 375.00 C 196.94 374.00 206.19 372.00 211.25 371.00 C 216.31 370.00 216.77 369.85 223.00 369.00 C 229.23 368.15 241.06 366.71 248.62 365.88 C 256.19 365.04 260.10 364.65 268.38 364.00 C 276.65 363.35 288.12 362.50 298.25 362.00 C 308.38 361.50 320.88 361.15 329.12 361.00 C 337.38 360.85 343.94 360.96 347.75 361.12 C 351.56 361.29 350.60 361.48 352.00 362.00 C 353.40 362.52 355.00 363.35 356.12 364.25 C 357.25 365.15 358.17 366.33 358.75 367.38 C 359.33 368.42 359.46 369.21 359.62 370.50 C 359.79 371.79 359.90 371.56 359.75 375.12 C 359.60 378.69 359.19 386.29 358.75 391.88 C 358.31 397.46 357.02 405.77 357.12 408.62 C 357.23 411.48 354.15 408.96 359.38 409.00 C 364.60 409.04 383.48 409.62 388.50 408.88 C 393.52 408.12 389.08 408.15 389.50 404.50 C 389.92 400.85 390.58 390.85 391.00 387.00 C 391.42 383.15 391.31 383.88 392.00 381.38 C 392.69 378.88 393.71 375.00 395.12 372.00 C 396.54 369.00 399.54 365.31 400.50 363.38 C 401.46 361.44 401.02 361.21 400.88 360.38 Z" id="s-18-f-3"/>
<path d="M 400.62 359.88 C 400.88 359.46 400.31 358.96 399.38 358.12 C 398.44 357.29 397.58 356.38 395.00 354.88 C 392.42 353.38 389.44 351.27 383.88 349.12 C 378.31 346.98 366.42 343.17 361.62 342.00 C 356.83 340.83 357.94 341.83 355.12 342.12 C 352.31 342.42 350.15 343.15 344.75 343.75 C 339.35 344.35 332.83 345.02 322.75 345.75 C 312.67 346.48 295.69 347.23 284.25 348.12 C 272.81 349.02 265.79 349.79 254.12 351.12 C 242.46 352.46 226.12 354.52 214.25 356.12 C 202.38 357.73 188.50 360.02 182.88 360.75 C 177.25 361.48 181.15 360.83 180.50 360.50 C 179.85 360.17 179.40 359.42 179.00 358.75 C 178.60 358.08 178.38 356.52 178.12 356.50 C 177.88 356.48 177.60 354.92 177.50 358.62 C 177.40 362.33 177.46 375.25 177.50 378.75 C 177.54 382.25 177.54 379.46 177.75 379.62 C 177.96 379.79 177.48 380.19 178.75 379.75 C 180.02 379.31 182.44 377.96 185.38 377.00 C 188.31 376.04 190.10 375.33 196.38 374.00 C 202.65 372.67 211.00 370.67 223.00 369.00 C 235.00 367.33 255.83 365.17 268.38 364.00 C 280.92 362.83 289.65 362.46 298.25 362.00 C 306.85 361.54 303.40 361.48 320.00 361.25 C 336.60 361.02 384.44 360.85 397.88 360.62 C 411.31 360.40 400.38 360.29 400.62 359.88 Z" id="s-18-f-4"/>
<path d="M 369.88 344.88 C 369.75 342.27 370.48 344.58 369.25 344.12 C 368.02 343.67 364.58 342.48 362.50 342.12 C 360.42 341.77 359.71 341.73 356.75 342.00 C 353.79 342.27 350.15 343.15 344.75 343.75 C 339.35 344.35 334.46 344.90 324.38 345.62 C 314.29 346.35 298.71 346.88 284.25 348.12 C 269.79 349.38 254.52 351.02 237.62 353.12 C 220.73 355.23 192.40 359.52 182.88 360.75 C 173.35 361.98 181.15 360.83 180.50 360.50 C 179.85 360.17 179.40 359.42 179.00 358.75 C 178.60 358.08 178.38 356.52 178.12 356.50 C 177.88 356.48 177.60 354.92 177.50 358.62 C 177.40 362.33 177.46 375.25 177.50 378.75 C 177.54 382.25 177.54 379.46 177.75 379.62 C 177.96 379.79 177.48 380.19 178.75 379.75 C 180.02 379.31 183.06 377.79 185.38 377.00 C 187.69 376.21 188.31 376.00 192.62 375.00 C 196.94 374.00 206.19 372.00 211.25 371.00 C 216.31 370.00 215.31 370.00 223.00 369.00 C 230.69 368.00 244.81 366.17 257.38 365.00 C 269.94 363.83 286.44 362.67 298.38 362.00 C 310.31 361.33 317.12 361.19 329.00 361.00 C 340.88 360.81 362.79 361.08 369.62 360.88 C 376.46 360.67 369.96 362.42 370.00 359.75 C 370.04 357.08 370.00 347.48 369.88 344.88 Z" id="s-18-f-5"/>
<path d="M 321.25 346.75 C 321.02 346.02 324.42 345.94 320.50 346.00 C 316.58 346.06 308.81 346.27 297.75 347.12 C 286.69 347.98 267.88 349.65 254.12 351.12 C 240.38 352.60 227.12 354.40 215.25 356.00 C 203.38 357.60 188.67 360.00 182.88 360.75 C 177.08 361.50 181.15 360.83 180.50 360.50 C 179.85 360.17 179.40 359.42 179.00 358.75 C 178.60 358.08 178.38 356.52 178.12 356.50 C 177.88 356.48 177.58 354.81 177.50 358.62 C 177.42 362.44 177.42 375.85 177.62 379.38 C 177.83 382.90 177.46 380.15 178.75 379.75 C 180.04 379.35 180.85 378.29 185.38 377.00 C 189.90 375.71 199.60 373.33 205.88 372.00 C 212.15 370.67 217.54 369.83 223.00 369.00 C 228.46 368.17 228.88 368.00 238.62 367.00 C 248.38 366.00 267.73 363.94 281.50 363.00 C 295.27 362.06 314.50 361.92 321.25 361.38 C 328.00 360.83 321.90 361.58 322.00 359.75 C 322.10 357.92 322.00 352.54 321.88 350.38 C 321.75 348.21 321.48 347.48 321.25 346.75 Z" id="s-18-f-6"/>
<path d="M 273.88 349.75 C 273.69 347.56 276.04 349.02 272.75 349.25 C 269.46 349.48 262.65 350.15 254.12 351.12 C 245.60 352.10 233.50 353.52 221.62 355.12 C 209.75 356.73 189.73 359.85 182.88 360.75 C 176.02 361.65 181.15 360.83 180.50 360.50 C 179.85 360.17 179.40 359.42 179.00 358.75 C 178.60 358.08 178.38 356.52 178.12 356.50 C 177.88 356.48 177.58 354.81 177.50 358.62 C 177.42 362.44 177.42 375.85 177.62 379.38 C 177.83 382.90 177.46 380.15 178.75 379.75 C 180.04 379.35 182.44 377.96 185.38 377.00 C 188.31 376.04 190.10 375.33 196.38 374.00 C 202.65 372.67 214.27 370.35 223.00 369.00 C 231.73 367.65 240.31 366.81 248.75 365.88 C 257.19 364.94 269.44 363.96 273.62 363.38 C 277.81 362.79 273.83 364.65 273.88 362.38 C 273.92 360.10 274.06 351.94 273.88 349.75 Z" id="s-18-f-7"/>
<path d="M 225.50 355.00 C 223.69 353.65 222.23 355.04 215.12 356.00 C 208.02 356.96 188.65 360.00 182.88 360.75 C 177.10 361.50 181.15 360.83 180.50 360.50 C 179.85 360.17 179.33 359.38 179.00 358.75 C 178.67 358.12 178.69 357.08 178.50 356.75 C 178.31 356.42 178.04 356.44 177.88 356.75 C 177.71 357.06 177.54 354.85 177.50 358.62 C 177.46 362.40 177.42 375.85 177.62 379.38 C 177.83 382.90 177.46 380.15 178.75 379.75 C 180.04 379.35 182.44 377.96 185.38 377.00 C 188.31 376.04 189.67 375.40 196.38 374.00 C 203.08 372.60 220.69 370.27 225.62 368.62 C 230.56 366.98 226.02 366.40 226.00 364.12 C 225.98 361.85 227.31 356.35 225.50 355.00 Z" id="s-18-f-8"/>
</g>
<g id="s-19" clip-path="url(#c-s-19)">
<use href="#s-19-f-0"/>
<path d="M 118.25 383.00 C 117.46 382.60 116.81 382.73 116.12 383.12 C 115.44 383.52 114.90 383.71 114.12 385.38 C 113.35 387.04 112.56 390.50 111.50 393.12 C 110.44 395.75 109.56 397.60 107.75 401.12 C 105.94 404.65 103.25 409.73 100.62 414.25 C 98.00 418.77 93.56 425.58 92.00 428.25 C 90.44 430.92 91.33 429.83 91.25 430.25 C 91.17 430.67 85.90 430.65 91.50 430.75 C 97.10 430.85 119.19 430.94 124.88 430.88 C 130.56 430.81 125.19 431.60 125.62 430.38 C 126.06 429.15 127.00 425.73 127.50 423.50 C 128.00 421.27 128.44 420.08 128.62 417.00 C 128.81 413.92 128.77 407.62 128.62 405.00 C 128.48 402.38 128.42 403.25 127.75 401.25 C 127.08 399.25 125.77 395.62 124.62 393.00 C 123.48 390.38 121.94 387.17 120.88 385.50 C 119.81 383.83 119.04 383.40 118.25 383.00 Z" id="s-19-f-1"/>
</g>
<g id="s-20" clip-path="url(#c-s-20)">
<use href="#s-20-f-0"/>
</g>
<g id="s-21" clip-path="url(#c-s-21)">
<use href="#s-21-f-0"/>
</g>
<g id="s-22" clip-path="url(#c-s-22)">
<use href="#s-22-f-0"/>
</g>
</svg>