<?xml version="1.0" encoding="UTF-8"?>
<svg xmlns="http://www.w3.org/2000/svg" viewBox="0 0 500 500">
<defs>
<path d="M 34.75 179.25 C 33.67 179.60 33.27 180.00 33.00 181.12 C 32.73 182.25 30.62 178.83 33.12 186.00 C 35.62 193.17 44.69 215.94 48.00 224.12 C 51.31 232.31 51.33 231.73 53.00 235.12 C 54.67 238.52 56.65 242.17 58.00 244.50 C 59.35 246.83 60.04 247.92 61.12 249.12 C 62.21 250.33 63.15 251.31 64.50 251.75 C 65.85 252.19 67.65 252.08 69.25 251.75 C 70.85 251.42 72.88 250.54 74.12 249.75 C 75.38 248.96 75.98 248.10 76.75 247.00 C 77.52 245.90 78.25 244.50 78.75 243.12 C 79.25 241.75 79.56 240.96 79.75 238.75 C 79.94 236.54 80.04 233.25 79.88 229.88 C 79.71 226.50 79.29 221.71 78.75 218.50 C 78.21 215.29 77.46 212.96 76.62 210.62 C 75.79 208.29 75.17 206.75 73.75 204.50 C 72.33 202.25 70.40 199.54 68.12 197.12 C 65.85 194.71 63.27 192.38 60.12 190.00 C 56.98 187.62 52.06 184.54 49.25 182.88 C 46.44 181.21 44.88 180.65 43.25 180.00 C 41.62 179.35 40.92 179.12 39.50 179.00 C 38.08 178.88 35.83 178.90 34.75 179.25 Z" id="s-0-f-0"/>
<clipPath id="c-s-0"><use href="#s-0-f-0"/></clipPath>
<path d="M 195.38 150.88 C 192.73 148.60 185.85 143.25 183.00 141.12 C 180.15 139.00 179.90 138.98 178.25 138.12 C 176.60 137.27 174.42 136.38 173.12 136.00 C 171.83 135.62 171.23 135.73 170.50 135.88 C 169.77 136.02 169.35 136.25 168.75 136.88 C 168.15 137.50 168.06 136.75 166.88 139.62 C 165.69 142.50 163.98 148.40 161.62 154.12 C 159.27 159.85 155.54 168.46 152.75 174.00 C 149.96 179.54 147.52 183.44 144.88 187.38 C 142.23 191.31 138.17 193.75 136.88 197.62 C 135.58 201.50 135.40 209.58 137.12 210.62 C 138.85 211.67 141.08 208.27 147.25 203.88 C 153.42 199.48 168.23 188.40 174.12 184.25 C 180.02 180.10 179.40 180.75 182.62 179.00 C 185.85 177.25 190.96 175.21 193.50 173.75 C 196.04 172.29 196.69 171.73 197.88 170.25 C 199.06 168.77 200.15 166.81 200.62 164.88 C 201.10 162.94 201.04 160.31 200.75 158.62 C 200.46 156.94 199.77 156.04 198.88 154.75 C 197.98 153.46 198.02 153.15 195.38 150.88 Z" id="s-1-f-0"/>
<clipPath id="c-s-1"><use href="#s-1-f-0"/></clipPath>
<path d="M 118.75 59.00 C 116.33 58.33 115.88 58.17 113.62 58.00 C 111.38 57.83 107.29 57.71 105.25 58.00 C 103.21 58.29 102.38 59.00 101.38 59.75 C 100.38 60.50 99.67 61.67 99.25 62.50 C 98.83 63.33 98.90 63.83 98.88 64.75 C 98.85 65.67 98.50 66.08 99.12 68.00 C 99.75 69.92 101.52 73.21 102.62 76.25 C 103.73 79.29 104.90 82.52 105.75 86.25 C 106.60 89.98 107.10 93.50 107.75 98.62 C 108.40 103.75 109.15 110.48 109.62 117.00 C 110.10 123.52 110.44 123.27 110.62 137.75 C 110.81 152.23 110.94 188.38 110.75 203.88 C 110.56 219.38 110.17 221.94 109.50 230.75 C 108.83 239.56 107.88 248.58 106.75 256.75 C 105.62 264.92 103.71 274.83 102.75 279.75 C 101.79 284.67 102.04 281.38 101.00 286.25 C 99.96 291.12 98.21 301.98 96.50 309.00 C 94.79 316.02 92.38 323.38 90.75 328.38 C 89.12 333.38 88.60 334.58 86.75 339.00 C 84.90 343.42 81.62 350.69 79.62 354.88 C 77.62 359.06 76.94 360.38 74.75 364.12 C 72.56 367.88 69.88 372.48 66.50 377.38 C 63.12 382.27 58.31 388.65 54.50 393.50 C 50.69 398.35 48.46 401.08 43.62 406.50 C 38.79 411.92 28.60 422.40 25.50 426.00 C 22.40 429.60 24.94 427.67 25.00 428.12 C 25.06 428.58 25.10 428.67 25.88 428.75 C 26.65 428.83 27.50 429.29 29.62 428.62 C 31.75 427.96 33.58 427.56 38.62 424.75 C 43.67 421.94 53.83 416.19 59.88 411.75 C 65.92 407.31 70.71 402.21 74.88 398.12 C 79.04 394.04 81.56 391.25 84.88 387.25 C 88.19 383.25 92.10 377.94 94.75 374.12 C 97.40 370.31 98.92 367.56 100.75 364.38 C 102.58 361.19 103.92 358.79 105.75 355.00 C 107.58 351.21 109.60 347.06 111.75 341.62 C 113.90 336.19 116.31 329.79 118.62 322.38 C 120.94 314.96 124.08 303.00 125.62 297.12 C 127.17 291.25 126.90 292.21 127.88 287.12 C 128.85 282.04 130.21 275.69 131.50 266.62 C 132.79 257.56 134.67 242.27 135.62 232.75 C 136.58 223.23 137.02 216.52 137.25 209.50 C 137.48 202.48 136.71 204.65 137.00 190.62 C 137.29 176.60 138.50 138.02 139.00 125.38 C 139.50 112.73 139.33 119.31 140.00 114.75 C 140.67 110.19 141.77 103.15 143.00 98.00 C 144.23 92.85 146.56 87.25 147.38 83.88 C 148.19 80.50 148.06 79.46 147.88 77.75 C 147.69 76.04 147.38 75.12 146.25 73.62 C 145.12 72.12 144.15 70.69 141.12 68.75 C 138.10 66.81 131.85 63.62 128.12 62.00 C 124.40 60.38 121.17 59.67 118.75 59.00 Z" id="s-2-f-0"/>
<clipPath id="c-s-2"><use href="#s-2-f-0"/></clipPath>
<path d="M 127.75 285.88 C 125.19 284.96 126.98 286.81 126.75 287.62 C 126.52 288.44 126.56 289.96 126.38 290.75 C 126.19 291.54 125.75 291.67 125.62 292.38 C 125.50 293.08 125.79 294.31 125.62 295.00 C 125.46 295.69 124.79 295.83 124.62 296.50 C 124.46 297.17 123.25 296.85 124.62 299.00 C 126.00 301.15 128.81 303.52 132.88 309.38 C 136.94 315.23 145.08 328.52 149.00 334.12 C 152.92 339.73 153.65 340.25 156.38 343.00 C 159.10 345.75 163.21 349.33 165.38 350.62 C 167.54 351.92 168.02 351.08 169.38 350.75 C 170.73 350.42 172.52 349.42 173.50 348.62 C 174.48 347.83 174.73 347.35 175.25 346.00 C 175.77 344.65 176.38 343.12 176.62 340.50 C 176.88 337.88 177.08 333.33 176.75 330.25 C 176.42 327.17 175.46 324.31 174.62 322.00 C 173.79 319.69 173.33 318.58 171.75 316.38 C 170.17 314.17 167.35 310.98 165.12 308.75 C 162.90 306.52 160.52 304.65 158.38 303.00 C 156.23 301.35 154.96 300.52 152.25 298.88 C 149.54 297.23 146.21 295.29 142.12 293.12 C 138.04 290.96 130.31 286.79 127.75 285.88 Z" id="s-3-f-0"/>
<clipPath id="c-s-3"><use href="#s-3-f-0"/></clipPath>
<path d="M 284.12 45.12 C 282.50 45.38 283.19 45.71 283.00 46.50 C 282.81 47.29 281.54 46.81 283.00 49.88 C 284.46 52.94 288.08 57.77 291.75 64.88 C 295.42 71.98 302.02 86.71 305.00 92.50 C 307.98 98.29 308.56 98.38 309.62 99.62 C 310.69 100.88 308.06 100.44 311.38 100.00 C 314.69 99.56 325.98 98.79 329.50 97.00 C 333.02 95.21 331.62 92.29 332.50 89.25 C 333.38 86.21 334.38 81.85 334.75 78.75 C 335.12 75.65 334.94 72.58 334.75 70.62 C 334.56 68.67 334.10 68.15 333.62 67.00 C 333.15 65.85 333.12 65.10 331.88 63.75 C 330.62 62.40 327.94 60.17 326.12 58.88 C 324.31 57.58 323.33 57.15 321.00 56.00 C 318.67 54.85 316.83 53.83 312.12 52.00 C 307.42 50.17 297.42 46.15 292.75 45.00 C 288.08 43.85 285.75 44.88 284.12 45.12 Z" id="s-4-f-0"/>
<clipPath id="c-s-4"><use href="#s-4-f-0"/></clipPath>
<path d="M 432.88 101.88 C 432.73 101.12 432.52 100.71 431.88 99.88 C 431.23 99.04 430.10 97.85 429.00 96.88 C 427.90 95.90 427.00 95.15 425.25 94.00 C 423.50 92.85 421.71 91.48 418.50 90.00 C 415.29 88.52 409.15 85.96 406.00 85.12 C 402.85 84.29 404.88 84.23 399.62 85.00 C 394.38 85.77 385.94 87.79 374.50 89.75 C 363.06 91.71 339.02 95.60 331.00 96.75 C 322.98 97.90 327.48 96.52 326.38 96.62 C 325.27 96.73 326.58 97.04 324.38 97.38 C 322.17 97.71 315.69 98.21 313.12 98.62 C 310.56 99.04 320.25 98.33 309.00 99.88 C 297.75 101.42 263.67 105.69 245.62 107.88 C 227.58 110.06 209.04 111.98 200.75 113.00 C 192.46 114.02 196.83 113.71 195.88 114.00 C 194.92 114.29 195.15 114.38 195.00 114.75 C 194.85 115.12 194.44 115.42 195.00 116.25 C 195.56 117.08 196.81 118.65 198.38 119.75 C 199.94 120.85 197.17 121.83 204.38 122.88 C 211.58 123.92 229.12 126.48 241.62 126.00 C 254.12 125.52 269.44 121.50 279.38 120.00 C 289.31 118.50 295.23 117.73 301.25 117.00 C 307.27 116.27 311.46 116.12 315.50 115.62 C 319.54 115.12 321.98 114.31 325.50 114.00 C 329.02 113.69 326.12 114.40 336.62 113.75 C 347.12 113.10 373.69 110.98 388.50 110.12 C 403.31 109.27 418.77 109.02 425.50 108.62 C 432.23 108.23 427.90 108.15 428.88 107.75 C 429.85 107.35 430.73 106.81 431.38 106.25 C 432.02 105.69 432.50 105.10 432.75 104.38 C 433.00 103.65 433.02 102.62 432.88 101.88 Z" id="s-5-f-0"/>
<clipPath id="c-s-5"><use href="#s-5-f-0"/></clipPath>
<path d="M 241.75 125.50 C 240.46 124.88 240.29 124.98 235.88 124.62 C 231.46 124.27 219.33 123.71 215.25 123.38 C 211.17 123.04 213.04 122.77 211.38 122.62 C 209.71 122.48 206.33 122.46 205.25 122.50 C 204.17 122.54 204.92 122.33 204.88 122.88 C 204.83 123.42 204.38 124.00 205.00 125.75 C 205.62 127.50 207.65 130.83 208.62 133.38 C 209.60 135.92 210.35 138.60 210.88 141.00 C 211.40 143.40 211.60 143.71 211.75 147.75 C 211.90 151.79 211.92 157.75 211.75 165.25 C 211.58 172.75 211.40 181.79 210.75 192.75 C 210.10 203.71 209.04 218.83 207.88 231.00 C 206.71 243.17 204.94 257.02 203.75 265.75 C 202.56 274.48 202.08 276.44 200.75 283.38 C 199.42 290.31 197.25 300.67 195.75 307.38 C 194.25 314.08 193.75 316.29 191.75 323.62 C 189.75 330.96 186.77 341.90 183.75 351.38 C 180.73 360.85 176.33 373.19 173.62 380.50 C 170.92 387.81 170.81 388.08 167.50 395.25 C 164.19 402.42 157.67 415.98 153.75 423.50 C 149.83 431.02 145.65 437.23 144.00 440.38 C 142.35 443.52 143.81 441.96 143.88 442.38 C 143.94 442.79 143.79 442.83 144.38 442.88 C 144.96 442.92 146.21 442.98 147.38 442.62 C 148.54 442.27 149.79 441.94 151.38 440.75 C 152.96 439.56 153.79 438.75 156.88 435.50 C 159.96 432.25 165.73 426.31 169.88 421.25 C 174.02 416.19 177.65 411.35 181.75 405.12 C 185.85 398.90 191.00 390.88 194.50 383.88 C 198.00 376.88 200.38 369.56 202.75 363.12 C 205.12 356.69 206.77 351.58 208.75 345.25 C 210.73 338.92 212.46 333.38 214.62 325.12 C 216.79 316.88 219.90 304.12 221.75 295.75 C 223.60 287.38 223.92 286.10 225.75 274.88 C 227.58 263.65 231.54 236.90 232.75 228.38 C 233.96 219.85 232.50 227.40 233.00 223.75 C 233.50 220.10 234.96 212.44 235.75 206.50 C 236.54 200.56 236.90 198.50 237.75 188.12 C 238.60 177.75 239.85 153.79 240.88 144.25 C 241.90 134.71 243.42 133.52 243.88 130.88 C 244.33 128.23 243.98 129.27 243.62 128.38 C 243.27 127.48 243.04 126.12 241.75 125.50 Z" id="s-6-f-0"/>
<clipPath id="c-s-6"><use href="#s-6-f-0"/></clipPath>
<path d="M 428.88 174.25 C 428.83 173.60 429.02 173.35 428.50 172.38 C 427.98 171.40 426.96 169.73 425.75 168.38 C 424.54 167.02 423.19 165.77 421.25 164.25 C 419.31 162.73 416.65 160.77 414.12 159.25 C 411.60 157.73 409.44 156.65 406.12 155.12 C 402.81 153.60 397.44 150.98 394.25 150.12 C 391.06 149.27 391.44 149.48 387.00 150.00 C 382.56 150.52 373.23 152.12 367.62 153.25 C 362.02 154.38 356.23 156.15 353.38 156.75 C 350.52 157.35 357.31 155.71 350.50 156.88 C 343.69 158.04 321.42 162.27 312.50 163.75 C 303.58 165.23 302.75 165.21 297.00 165.75 C 291.25 166.29 283.40 166.50 278.00 167.00 C 272.60 167.50 271.08 168.25 264.62 168.75 C 258.17 169.25 243.60 169.71 239.25 170.00 C 234.90 170.29 238.75 169.62 238.50 170.50 C 238.25 171.38 237.92 172.92 237.75 175.25 C 237.58 177.58 237.46 182.90 237.50 184.50 C 237.54 186.10 235.27 184.83 238.00 184.88 C 240.73 184.92 248.15 185.06 253.88 184.75 C 259.60 184.44 265.56 183.46 272.38 183.00 C 279.19 182.54 289.31 182.48 294.75 182.00 C 300.19 181.52 301.04 180.67 305.00 180.12 C 308.96 179.58 314.69 179.27 318.50 178.75 C 322.31 178.23 325.69 177.31 327.88 177.00 C 330.06 176.69 327.88 177.40 331.62 176.88 C 335.38 176.35 344.23 174.69 350.38 173.88 C 356.52 173.06 362.69 172.46 368.50 172.00 C 374.31 171.54 382.10 171.02 385.25 171.12 C 388.40 171.23 386.77 171.94 387.38 172.62 C 387.98 173.31 388.48 174.04 388.88 175.25 C 389.27 176.46 389.60 178.12 389.75 179.88 C 389.90 181.62 389.92 183.58 389.75 185.75 C 389.58 187.92 389.42 189.77 388.75 192.88 C 388.08 195.98 386.94 200.77 385.75 204.38 C 384.56 207.98 382.46 210.48 381.62 214.50 C 380.79 218.52 380.54 225.58 380.75 228.50 C 380.96 231.42 382.08 231.00 382.88 232.00 C 383.67 233.00 384.67 233.88 385.50 234.50 C 386.33 235.12 386.54 235.56 387.88 235.75 C 389.21 235.94 392.12 235.81 393.50 235.62 C 394.88 235.44 395.12 235.25 396.12 234.62 C 397.12 234.00 398.56 232.79 399.50 231.88 C 400.44 230.96 399.52 233.90 401.75 229.12 C 403.98 224.35 411.00 207.77 412.88 203.25 C 414.75 198.73 412.85 202.35 413.00 202.00 C 413.15 201.65 412.58 203.71 413.75 201.12 C 414.92 198.54 418.35 189.81 420.00 186.50 C 421.65 183.19 422.17 182.96 423.62 181.25 C 425.08 179.54 427.88 177.42 428.75 176.25 C 429.62 175.08 428.92 174.90 428.88 174.25 Z" id="s-7-f-0"/>
<clipPath id="c-s-7"><use href="#s-7-f-0"/></clipPath>
<path d="M 273.25 127.88 C 271.92 127.92 271.88 127.81 271.00 128.25 C 270.12 128.69 268.67 129.79 268.00 130.50 C 267.33 131.21 267.19 131.75 267.00 132.50 C 266.81 133.25 266.25 133.10 266.88 135.00 C 267.50 136.90 269.75 141.02 270.75 143.88 C 271.75 146.73 272.52 148.19 272.88 152.12 C 273.23 156.06 272.96 164.79 272.88 167.50 C 272.79 170.21 272.40 166.48 272.38 168.38 C 272.35 170.27 272.50 176.35 272.75 178.88 C 273.00 181.40 273.54 176.90 273.88 183.50 C 274.21 190.10 274.48 212.15 274.75 218.50 C 275.02 224.85 275.17 221.04 275.50 221.62 C 275.83 222.21 273.94 222.29 276.75 222.00 C 279.56 221.71 289.67 220.48 292.38 219.88 C 295.08 219.27 292.58 224.65 293.00 218.38 C 293.42 212.10 294.35 189.38 294.88 182.25 C 295.40 175.12 295.92 180.00 296.12 175.62 C 296.33 171.25 295.98 160.10 296.12 156.00 C 296.27 151.90 296.40 153.15 297.00 151.00 C 297.60 148.85 299.27 145.02 299.75 143.12 C 300.23 141.23 299.88 140.42 299.88 139.62 C 299.88 138.83 300.06 139.04 299.75 138.38 C 299.44 137.71 299.10 136.71 298.00 135.62 C 296.90 134.54 295.42 132.98 293.12 131.88 C 290.83 130.77 286.60 129.65 284.25 129.00 C 281.90 128.35 280.83 128.19 279.00 128.00 C 277.17 127.81 274.58 127.83 273.25 127.88 Z" id="s-8-f-0"/>
<clipPath id="c-s-8"><use href="#s-8-f-0"/></clipPath>
<path d="M 346.75 112.50 C 344.06 112.12 338.19 112.58 335.12 112.75 C 332.06 112.92 329.58 113.27 328.38 113.50 C 327.17 113.73 327.52 111.73 327.88 114.12 C 328.23 116.52 330.02 123.60 330.50 127.88 C 330.98 132.15 330.85 134.38 330.75 139.75 C 330.65 145.12 330.23 155.52 329.88 160.12 C 329.52 164.73 328.83 163.92 328.62 167.38 C 328.42 170.83 329.06 173.46 328.62 180.88 C 328.19 188.29 326.44 206.10 326.00 211.88 C 325.56 217.65 325.94 214.81 326.00 215.50 C 326.06 216.19 323.65 216.40 326.38 216.00 C 329.10 215.60 339.60 213.73 342.38 213.12 C 345.15 212.52 341.71 219.04 343.00 212.38 C 344.29 205.71 348.75 179.75 350.12 173.12 C 351.50 166.50 351.06 173.44 351.25 172.62 C 351.44 171.81 351.10 169.35 351.25 168.25 C 351.40 167.15 351.96 167.00 352.12 166.00 C 352.29 165.00 352.08 163.19 352.25 162.25 C 352.42 161.31 352.98 161.56 353.12 160.38 C 353.27 159.19 352.81 157.85 353.12 155.12 C 353.44 152.40 354.29 147.42 355.00 144.00 C 355.71 140.58 356.42 137.31 357.38 134.62 C 358.33 131.94 360.19 129.48 360.75 127.88 C 361.31 126.27 361.31 126.29 360.75 125.00 C 360.19 123.71 358.96 121.79 357.38 120.12 C 355.79 118.46 353.02 116.27 351.25 115.00 C 349.48 113.73 349.44 112.88 346.75 112.50 Z" id="s-9-f-0"/>
<clipPath id="c-s-9"><use href="#s-9-f-0"/></clipPath>
<path d="M 382.25 214.25 C 381.96 212.50 381.94 213.69 380.25 213.00 C 378.56 212.31 374.98 210.62 372.12 210.12 C 369.27 209.62 367.81 209.56 363.12 210.00 C 358.44 210.44 347.85 212.31 344.00 212.75 C 340.15 213.19 341.04 212.52 340.00 212.62 C 338.96 212.73 338.83 213.19 337.75 213.38 C 336.67 213.56 334.42 213.58 333.50 213.75 C 332.58 213.92 333.08 214.23 332.25 214.38 C 331.42 214.52 329.65 214.38 328.50 214.62 C 327.35 214.88 330.92 215.04 325.38 215.88 C 319.83 216.71 301.42 219.00 295.25 219.62 C 289.08 220.25 290.00 219.50 288.38 219.62 C 286.75 219.75 287.19 220.19 285.50 220.38 C 283.81 220.56 280.12 220.50 278.25 220.75 C 276.38 221.00 278.50 221.50 274.25 221.88 C 270.00 222.25 259.46 222.52 252.75 223.00 C 246.04 223.48 237.38 224.38 234.00 224.75 C 230.62 225.12 232.88 224.79 232.50 225.25 C 232.12 225.71 232.08 225.15 231.75 227.50 C 231.42 229.85 230.46 237.31 230.50 239.38 C 230.54 241.44 230.42 239.81 232.00 239.88 C 233.58 239.94 237.90 239.90 240.00 239.75 C 242.10 239.60 240.04 239.33 244.62 239.00 C 249.21 238.67 252.88 239.08 267.50 237.75 C 282.12 236.42 316.15 232.44 332.38 231.00 C 348.60 229.56 356.83 229.48 364.88 229.12 C 372.92 228.77 377.88 229.02 380.62 228.88 C 383.38 228.73 381.15 229.15 381.38 228.25 C 381.60 227.35 381.85 225.83 382.00 223.50 C 382.15 221.17 382.54 216.00 382.25 214.25 Z" id="s-10-f-0"/>
<clipPath id="c-s-10"><use href="#s-10-f-0"/></clipPath>
<path d="M 327.75 275.50 C 327.23 274.40 325.90 273.08 324.38 272.00 C 322.85 270.92 320.81 269.81 318.62 269.00 C 316.44 268.19 313.21 267.46 311.25 267.12 C 309.29 266.79 308.73 266.69 306.88 267.00 C 305.02 267.31 301.77 268.40 300.12 269.00 C 298.48 269.60 298.52 270.00 297.00 270.62 C 295.48 271.25 294.98 271.54 291.00 272.75 C 287.02 273.96 276.17 276.90 273.12 277.88 C 270.08 278.85 272.81 277.25 272.75 278.62 C 272.69 280.00 272.67 284.73 272.75 286.12 C 272.83 287.52 272.96 286.75 273.25 287.00 C 273.54 287.25 273.62 287.35 274.50 287.62 C 275.38 287.90 275.92 288.46 278.50 288.62 C 281.08 288.79 287.19 288.90 290.00 288.62 C 292.81 288.35 291.06 287.83 295.38 287.00 C 299.69 286.17 311.23 284.50 315.88 283.62 C 320.52 282.75 321.67 282.25 323.25 281.75 C 324.83 281.25 324.67 281.15 325.38 280.62 C 326.08 280.10 327.10 279.48 327.50 278.62 C 327.90 277.77 328.27 276.60 327.75 275.50 Z" id="s-11-f-0"/>
<clipPath id="c-s-11"><use href="#s-11-f-0"/></clipPath>
<path d="M 262.62 237.50 C 260.12 237.25 253.44 237.71 250.75 237.88 C 248.06 238.04 247.31 238.31 246.50 238.50 C 245.69 238.69 245.94 238.44 245.88 239.00 C 245.81 239.56 245.79 240.73 246.12 241.88 C 246.46 243.02 247.27 243.85 247.88 245.88 C 248.48 247.90 249.27 250.54 249.75 254.00 C 250.23 257.46 250.62 258.06 250.75 266.62 C 250.88 275.19 250.67 294.71 250.50 305.38 C 250.33 316.04 250.17 324.50 249.75 330.62 C 249.33 336.75 248.27 338.96 248.00 342.12 C 247.73 345.29 247.62 346.73 248.12 349.62 C 248.62 352.52 250.23 357.44 251.00 359.50 C 251.77 361.56 252.15 361.31 252.75 362.00 C 253.35 362.69 253.96 363.17 254.62 363.62 C 255.29 364.08 255.60 364.58 256.75 364.75 C 257.90 364.92 260.21 364.92 261.50 364.62 C 262.79 364.33 261.50 365.40 264.50 363.00 C 267.50 360.60 269.35 358.04 279.50 350.25 C 289.65 342.46 317.33 322.42 325.38 316.25 C 333.42 310.08 327.40 313.96 327.75 313.25 C 328.10 312.54 327.96 312.19 327.50 312.00 C 327.04 311.81 326.19 311.83 325.00 312.12 C 323.81 312.42 326.96 311.98 320.38 313.75 C 313.79 315.52 292.92 320.92 285.50 322.75 C 278.08 324.58 277.73 324.42 275.88 324.75 C 274.02 325.08 274.75 324.85 274.38 324.75 C 274.00 324.65 273.85 324.75 273.62 324.12 C 273.40 323.50 273.06 328.62 273.00 321.00 C 272.94 313.38 273.29 290.42 273.25 278.38 C 273.21 266.33 273.00 254.12 272.75 248.75 C 272.50 243.38 272.33 247.15 271.75 246.12 C 271.17 245.10 270.25 243.75 269.25 242.62 C 268.25 241.50 266.85 240.23 265.75 239.38 C 264.65 238.52 265.12 237.75 262.62 237.50 Z" id="s-12-f-0"/>
<clipPath id="c-s-12"><use href="#s-12-f-0"/></clipPath>
<path d="M 430.75 271.50 C 430.25 270.35 429.17 269.12 427.62 267.88 C 426.08 266.62 424.10 265.12 421.50 264.00 C 418.90 262.88 414.12 261.62 412.00 261.12 C 409.88 260.62 412.65 259.77 408.75 261.00 C 404.85 262.23 397.00 265.73 388.62 268.50 C 380.25 271.27 363.65 275.94 358.50 277.62 C 353.35 279.31 357.88 277.21 357.75 278.62 C 357.62 280.04 357.71 284.77 357.75 286.12 C 357.79 287.48 357.54 286.48 358.00 286.75 C 358.46 287.02 359.21 287.44 360.50 287.75 C 361.79 288.06 362.81 288.46 365.75 288.62 C 368.69 288.79 374.79 288.92 378.12 288.75 C 381.46 288.58 381.33 288.54 385.75 287.62 C 390.17 286.71 398.77 284.40 404.62 283.25 C 410.48 282.10 417.65 281.33 420.88 280.75 C 424.10 280.17 422.67 280.40 424.00 279.75 C 425.33 279.10 427.77 277.71 428.88 276.88 C 429.98 276.04 430.31 275.65 430.62 274.75 C 430.94 273.85 431.25 272.65 430.75 271.50 Z" id="s-13-f-0"/>
<clipPath id="c-s-13"><use href="#s-13-f-0"/></clipPath>
<path d="M 333.88 230.75 C 333.04 231.33 333.92 232.31 334.25 233.25 C 334.58 234.19 335.46 234.00 335.88 236.38 C 336.29 238.75 336.58 234.29 336.75 247.50 C 336.92 260.71 336.79 302.94 336.88 315.62 C 336.96 328.31 336.88 320.75 337.25 323.62 C 337.62 326.50 338.50 330.54 339.12 332.88 C 339.75 335.21 340.29 336.12 341.00 337.62 C 341.71 339.12 342.08 340.17 343.38 341.88 C 344.67 343.58 346.46 345.90 348.75 347.88 C 351.04 349.85 354.65 352.29 357.12 353.75 C 359.60 355.21 361.48 355.81 363.62 356.62 C 365.77 357.44 366.31 357.77 370.00 358.62 C 373.69 359.48 381.54 361.06 385.75 361.75 C 389.96 362.44 390.62 362.60 395.25 362.75 C 399.88 362.90 409.21 362.81 413.50 362.62 C 417.79 362.44 417.90 362.27 421.00 361.62 C 424.10 360.98 429.31 359.58 432.12 358.75 C 434.94 357.92 435.96 357.46 437.88 356.62 C 439.79 355.79 441.85 354.75 443.62 353.75 C 445.40 352.75 446.98 351.77 448.50 350.62 C 450.02 349.48 451.52 348.12 452.75 346.88 C 453.98 345.62 454.71 344.98 455.88 343.12 C 457.04 341.27 459.10 337.69 459.75 335.75 C 460.40 333.81 460.06 332.90 459.75 331.50 C 459.44 330.10 459.00 329.19 457.88 327.38 C 456.75 325.56 454.10 322.50 453.00 320.62 C 451.90 318.75 452.48 320.15 451.25 316.12 C 450.02 312.10 446.96 300.69 445.62 296.50 C 444.29 292.31 443.96 291.79 443.25 291.00 C 442.54 290.21 441.92 291.27 441.38 291.75 C 440.83 292.23 440.94 289.77 440.00 293.88 C 439.06 297.98 436.81 311.69 435.75 316.38 C 434.69 321.06 434.33 320.50 433.62 322.00 C 432.92 323.50 432.33 324.29 431.50 325.38 C 430.67 326.46 429.54 327.60 428.62 328.50 C 427.71 329.40 427.25 329.88 426.00 330.75 C 424.75 331.62 422.79 332.92 421.12 333.75 C 419.46 334.58 417.73 335.23 416.00 335.75 C 414.27 336.27 413.12 336.54 410.75 336.88 C 408.38 337.21 405.17 337.62 401.75 337.75 C 398.33 337.88 393.54 337.79 390.25 337.62 C 386.96 337.46 385.42 337.40 382.00 336.75 C 378.58 336.10 372.77 334.77 369.75 333.75 C 366.73 332.73 365.50 331.85 363.88 330.62 C 362.25 329.40 360.98 327.79 360.00 326.38 C 359.02 324.96 358.48 323.46 358.00 322.12 C 357.52 320.79 357.29 321.08 357.12 318.38 C 356.96 315.67 356.81 311.21 357.00 305.88 C 357.19 300.54 358.06 291.27 358.25 286.38 C 358.44 281.48 357.52 282.06 358.12 276.50 C 358.73 270.94 360.79 257.88 361.88 253.00 C 362.96 248.12 364.17 248.85 364.62 247.25 C 365.08 245.65 364.92 244.58 364.62 243.38 C 364.33 242.17 363.92 241.33 362.88 240.00 C 361.83 238.67 360.10 236.85 358.38 235.38 C 356.65 233.90 353.83 231.94 352.50 231.12 C 351.17 230.31 350.85 230.75 350.38 230.50 C 349.90 230.25 351.48 229.75 349.62 229.62 C 347.77 229.50 341.88 229.56 339.25 229.75 C 336.62 229.94 334.71 230.17 333.88 230.75 Z" id="s-14-f-0"/>
<clipPath id="c-s-14"><use href="#s-14-f-0"/></clipPath>
<path d="M 238.38 375.00 C 237.85 374.88 237.10 374.67 236.38 375.12 C 235.65 375.58 234.96 375.90 234.00 377.75 C 233.04 379.60 232.00 383.35 230.62 386.25 C 229.25 389.15 228.04 391.31 225.75 395.12 C 223.46 398.94 220.02 404.38 216.88 409.12 C 213.73 413.88 208.85 419.79 206.88 423.62 C 204.90 427.46 205.29 428.71 205.00 432.12 C 204.71 435.54 204.94 441.42 205.12 444.12 C 205.31 446.83 205.21 446.94 206.12 448.38 C 207.04 449.81 209.50 451.88 210.62 452.75 C 211.75 453.62 211.58 453.46 212.88 453.62 C 214.17 453.79 217.00 453.90 218.38 453.75 C 219.75 453.60 220.02 453.40 221.12 452.75 C 222.23 452.10 223.54 451.27 225.00 449.88 C 226.46 448.48 228.25 446.71 229.88 444.38 C 231.50 442.04 232.60 440.58 234.75 435.88 C 236.90 431.17 241.10 420.58 242.75 416.12 C 244.40 411.67 244.15 411.29 244.62 409.12 C 245.10 406.96 245.44 405.81 245.62 403.12 C 245.81 400.44 245.92 395.58 245.75 393.00 C 245.58 390.42 245.33 389.98 244.62 387.62 C 243.92 385.27 242.35 380.83 241.50 378.88 C 240.65 376.92 240.02 376.52 239.50 375.88 C 238.98 375.23 238.90 375.12 238.38 375.00 Z" id="s-15-f-0"/>
<clipPath id="c-s-15"><use href="#s-15-f-0"/></clipPath>
<path d="M 282.62 385.12 C 281.44 385.38 281.23 385.58 281.00 386.62 C 280.77 387.67 279.58 385.79 281.25 391.38 C 282.92 396.96 288.38 413.02 291.00 420.12 C 293.62 427.23 295.17 430.25 297.00 434.00 C 298.83 437.75 300.73 440.83 302.00 442.62 C 303.27 444.42 303.40 444.40 304.62 444.75 C 305.85 445.10 308.00 444.94 309.38 444.75 C 310.75 444.56 311.96 444.02 312.88 443.62 C 313.79 443.23 314.06 443.12 314.88 442.38 C 315.69 441.62 317.10 440.00 317.75 439.12 C 318.40 438.25 318.42 438.12 318.75 437.12 C 319.08 436.12 319.62 436.08 319.75 433.12 C 319.88 430.17 319.69 422.56 319.50 419.38 C 319.31 416.19 319.25 416.27 318.62 414.00 C 318.00 411.73 316.67 407.81 315.75 405.75 C 314.83 403.69 314.12 402.94 313.12 401.62 C 312.12 400.31 310.90 399.02 309.75 397.88 C 308.60 396.73 307.77 395.90 306.25 394.75 C 304.73 393.60 303.65 392.60 300.62 391.00 C 297.60 389.40 291.12 386.10 288.12 385.12 C 285.12 384.15 283.81 384.88 282.62 385.12 Z" id="s-16-f-0"/>
<clipPath id="c-s-16"><use href="#s-16-f-0"/></clipPath>
<path d="M 347.00 382.12 C 345.94 382.42 345.58 383.08 345.25 383.75 C 344.92 384.42 342.88 381.19 345.00 386.12 C 347.12 391.06 354.33 406.17 358.00 413.38 C 361.67 420.58 364.38 425.10 367.00 429.38 C 369.62 433.65 372.12 436.92 373.75 439.00 C 375.38 441.08 375.98 441.25 376.75 441.88 C 377.52 442.50 377.67 442.58 378.38 442.75 C 379.08 442.92 379.79 443.04 381.00 442.88 C 382.21 442.71 384.42 442.27 385.62 441.75 C 386.83 441.23 387.58 440.38 388.25 439.75 C 388.92 439.12 389.21 438.67 389.62 438.00 C 390.04 437.33 390.38 437.21 390.75 435.75 C 391.12 434.29 391.71 431.81 391.88 429.25 C 392.04 426.69 391.94 423.00 391.75 420.38 C 391.56 417.75 391.10 415.29 390.75 413.50 C 390.40 411.71 390.27 411.31 389.62 409.62 C 388.98 407.94 388.29 405.46 386.88 403.38 C 385.46 401.29 383.21 399.02 381.12 397.12 C 379.04 395.23 378.69 394.35 374.38 392.00 C 370.06 389.65 359.04 384.67 355.25 383.00 C 351.46 381.33 353.00 382.15 351.62 382.00 C 350.25 381.85 348.06 381.83 347.00 382.12 Z" id="s-17-f-0"/>
<clipPath id="c-s-17"><use href="#s-17-f-0"/></clipPath>
<path d="M 414.25 375.12 C 413.50 375.67 413.85 377.40 414.00 378.38 C 414.15 379.35 413.65 378.85 415.12 381.00 C 416.60 383.15 420.77 388.29 422.88 391.25 C 424.98 394.21 425.06 394.04 427.75 398.75 C 430.44 403.46 435.15 412.94 439.00 419.50 C 442.85 426.06 448.02 433.98 450.88 438.12 C 453.73 442.27 454.48 442.60 456.12 444.38 C 457.77 446.15 459.38 448.02 460.75 448.75 C 462.12 449.48 463.35 448.94 464.38 448.75 C 465.40 448.56 465.96 448.29 466.88 447.62 C 467.79 446.96 469.06 445.79 469.88 444.75 C 470.69 443.71 471.15 442.83 471.75 441.38 C 472.35 439.92 473.15 437.38 473.50 436.00 C 473.85 434.62 473.83 434.90 473.88 433.12 C 473.92 431.35 473.94 427.65 473.75 425.38 C 473.56 423.10 473.42 421.88 472.75 419.50 C 472.08 417.12 470.73 413.25 469.75 411.12 C 468.77 409.00 468.08 408.33 466.88 406.75 C 465.67 405.17 464.27 403.48 462.50 401.62 C 460.73 399.77 458.48 397.58 456.25 395.62 C 454.02 393.67 452.44 392.12 449.12 389.88 C 445.81 387.62 440.29 384.27 436.38 382.12 C 432.46 379.98 428.60 378.17 425.62 377.00 C 422.65 375.83 420.40 375.44 418.50 375.12 C 416.60 374.81 415.00 374.58 414.25 375.12 Z" id="s-18-f-0"/>
<clipPath id="c-s-18"><use href="#s-18-f-0"/></clipPath>
</defs>
<g id="s-0" clip-path="url(#c-s-0)">
<use href="#s-0-f-0"/>
<path d="M 34.12 179.75 C 33.73 180.10 33.17 180.08 33.00 181.12 C 32.83 182.17 31.79 181.71 33.12 186.00 C 34.46 190.29 38.33 200.12 41.00 206.88 C 43.67 213.62 47.33 223.15 49.12 226.50 C 50.92 229.85 47.02 226.92 51.75 227.00 C 56.48 227.08 72.85 227.06 77.50 227.00 C 82.15 226.94 79.42 228.04 79.62 226.62 C 79.83 225.21 79.25 221.17 78.75 218.50 C 78.25 215.83 77.62 213.23 76.62 210.62 C 75.62 208.02 74.17 205.12 72.75 202.88 C 71.33 200.62 70.23 199.27 68.12 197.12 C 66.02 194.98 63.54 192.52 60.12 190.00 C 56.71 187.48 50.44 183.67 47.62 182.00 C 44.81 180.33 44.60 180.50 43.25 180.00 C 41.90 179.50 40.81 179.17 39.50 179.00 C 38.19 178.83 36.27 178.88 35.38 179.00 C 34.48 179.12 34.52 179.40 34.12 179.75 Z" id="s-0-f-1"/>
</g>
<g id="s-1" clip-path="url(#c-s-1)">
<use href="#s-1-f-0"/>
<path d="M 199.75 156.12 C 199.29 155.15 199.06 154.81 198.12 153.75 C 197.19 152.69 196.65 151.85 194.12 149.75 C 191.60 147.65 185.65 143.06 183.00 141.12 C 180.35 139.19 179.79 138.96 178.25 138.12 C 176.71 137.29 175.19 136.46 173.75 136.12 C 172.31 135.79 170.77 135.54 169.62 136.12 C 168.48 136.71 168.90 134.98 166.88 139.62 C 164.85 144.27 159.85 158.27 157.50 164.00 C 155.15 169.73 154.46 170.73 152.75 174.00 C 151.04 177.27 147.85 181.96 147.25 183.62 C 146.65 185.29 144.46 183.98 149.12 184.00 C 153.79 184.02 169.67 184.58 175.25 183.75 C 180.83 182.92 179.58 180.67 182.62 179.00 C 185.67 177.33 190.96 175.21 193.50 173.75 C 196.04 172.29 196.81 171.40 197.88 170.25 C 198.94 169.10 199.40 167.90 199.88 166.88 C 200.35 165.85 200.58 165.33 200.75 164.12 C 200.92 162.92 201.04 160.96 200.88 159.62 C 200.71 158.29 200.21 157.10 199.75 156.12 Z" id="s-1-f-1"/>
</g>
<g id="s-2" clip-path="url(#c-s-2)">
<use href="#s-2-f-0"/>
<path d="M 115.00 58.12 C 111.19 57.46 107.35 57.85 105.25 58.00 C 103.15 58.15 103.27 58.44 102.38 59.00 C 101.48 59.56 100.46 60.42 99.88 61.38 C 99.29 62.33 99.00 63.65 98.88 64.75 C 98.75 65.85 98.15 65.08 99.12 68.00 C 100.10 70.92 103.48 78.40 104.75 82.25 C 106.02 86.10 105.94 85.33 106.75 91.12 C 107.56 96.92 108.98 109.23 109.62 117.00 C 110.27 124.77 110.44 123.27 110.62 137.75 C 110.81 152.23 110.83 190.10 110.75 203.88 C 110.67 217.65 110.60 213.08 110.12 220.38 C 109.65 227.67 108.77 239.46 107.88 247.62 C 106.98 255.79 106.65 259.15 104.75 269.38 C 102.85 279.60 98.83 299.17 96.50 309.00 C 94.17 318.83 92.38 323.38 90.75 328.38 C 89.12 333.38 88.60 334.58 86.75 339.00 C 84.90 343.42 81.62 350.69 79.62 354.88 C 77.62 359.06 76.94 360.38 74.75 364.12 C 72.56 367.88 69.85 372.54 66.50 377.38 C 63.15 382.21 56.56 390.38 54.62 393.12 C 52.69 395.88 50.85 393.77 54.88 393.88 C 58.90 393.98 73.17 395.58 78.75 393.75 C 84.33 391.92 85.06 387.15 88.38 382.88 C 91.69 378.60 95.23 373.83 98.62 368.12 C 102.02 362.42 105.73 355.29 108.75 348.62 C 111.77 341.96 114.75 333.65 116.75 328.12 C 118.75 322.60 119.52 319.94 120.75 315.50 C 121.98 311.06 123.31 304.56 124.12 301.50 C 124.94 298.44 124.69 301.21 125.62 297.12 C 126.56 293.04 128.25 286.06 129.75 277.00 C 131.25 267.94 133.38 254.00 134.62 242.75 C 135.88 231.50 136.88 217.44 137.25 209.50 C 137.62 201.56 136.52 209.88 136.88 195.12 C 137.23 180.38 138.50 136.54 139.38 121.00 C 140.25 105.46 141.19 106.94 142.12 101.88 C 143.06 96.81 144.23 93.19 145.00 90.62 C 145.77 88.06 146.29 88.02 146.75 86.50 C 147.21 84.98 147.56 82.96 147.75 81.50 C 147.94 80.04 148.02 78.90 147.88 77.75 C 147.73 76.60 147.60 75.81 146.88 74.62 C 146.15 73.44 144.94 71.90 143.50 70.62 C 142.06 69.35 140.81 68.44 138.25 67.00 C 135.69 65.56 132.00 63.48 128.12 62.00 C 124.25 60.52 118.81 58.79 115.00 58.12 Z" id="s-2-f-1"/>
<path d="M 115.00 58.12 C 111.19 57.46 107.52 57.73 105.25 58.00 C 102.98 58.27 102.27 59.19 101.38 59.75 C 100.48 60.31 100.27 60.77 99.88 61.38 C 99.48 61.98 99.12 62.27 99.00 63.38 C 98.88 64.48 98.17 64.85 99.12 68.00 C 100.08 71.15 103.48 78.40 104.75 82.25 C 106.02 86.10 105.94 85.33 106.75 91.12 C 107.56 96.92 108.96 107.50 109.62 117.00 C 110.29 126.50 110.56 133.65 110.75 148.12 C 110.94 162.60 110.85 191.83 110.75 203.88 C 110.65 215.92 110.46 214.44 110.12 220.38 C 109.79 226.31 109.31 233.44 108.75 239.50 C 108.19 245.56 107.75 250.04 106.75 256.75 C 105.75 263.46 103.71 274.83 102.75 279.75 C 101.79 284.67 102.04 281.38 101.00 286.25 C 99.96 291.12 98.23 301.92 96.50 309.00 C 94.77 316.08 92.71 322.77 90.62 328.75 C 88.54 334.73 84.98 342.00 84.00 344.88 C 83.02 347.75 80.50 345.83 84.75 346.00 C 89.00 346.17 105.23 346.08 109.50 345.88 C 113.77 345.67 109.00 348.21 110.38 344.75 C 111.75 341.29 115.17 333.23 117.75 325.12 C 120.33 317.02 123.73 304.98 125.88 296.12 C 128.02 287.27 129.17 280.90 130.62 272.00 C 132.08 263.10 133.52 253.17 134.62 242.75 C 135.73 232.33 136.88 217.44 137.25 209.50 C 137.62 201.56 136.58 209.15 136.88 195.12 C 137.17 181.10 138.31 139.94 139.00 125.38 C 139.69 110.81 140.17 112.96 141.00 107.75 C 141.83 102.54 142.94 98.10 144.00 94.12 C 145.06 90.15 146.73 86.60 147.38 83.88 C 148.02 81.15 147.96 79.29 147.88 77.75 C 147.79 76.21 147.60 75.81 146.88 74.62 C 146.15 73.44 144.94 71.90 143.50 70.62 C 142.06 69.35 140.81 68.44 138.25 67.00 C 135.69 65.56 132.00 63.48 128.12 62.00 C 124.25 60.52 118.81 58.79 115.00 58.12 Z" id="s-2-f-2"/>
<path d="M 105.25 58.00 C 103.15 58.15 103.27 58.44 102.38 59.00 C 101.48 59.56 100.44 60.65 99.88 61.38 C 99.31 62.10 99.17 62.54 99.00 63.38 C 98.83 64.21 98.69 65.15 98.88 66.38 C 99.06 67.60 99.15 68.10 100.12 70.75 C 101.10 73.40 103.81 79.67 104.75 82.25 C 105.69 84.83 105.25 83.52 105.75 86.25 C 106.25 88.98 107.10 93.50 107.75 98.62 C 108.40 103.75 109.15 110.48 109.62 117.00 C 110.10 123.52 110.44 123.27 110.62 137.75 C 110.81 152.23 110.94 188.38 110.75 203.88 C 110.56 219.38 110.17 221.94 109.50 230.75 C 108.83 239.56 107.71 249.44 106.75 256.75 C 105.79 264.06 105.04 267.98 103.75 274.62 C 102.46 281.27 99.52 292.81 99.00 296.62 C 98.48 300.44 99.31 297.29 100.62 297.50 C 101.94 297.71 102.81 297.81 106.88 297.88 C 110.94 297.94 121.88 298.00 125.00 297.88 C 128.12 297.75 124.69 301.44 125.62 297.12 C 126.56 292.81 129.29 279.60 130.62 272.00 C 131.96 264.40 132.79 258.04 133.62 251.50 C 134.46 244.96 135.02 239.75 135.62 232.75 C 136.23 225.75 137.02 216.52 137.25 209.50 C 137.48 202.48 136.71 204.65 137.00 190.62 C 137.29 176.60 138.50 138.02 139.00 125.38 C 139.50 112.73 139.33 119.31 140.00 114.75 C 140.67 110.19 141.77 103.15 143.00 98.00 C 144.23 92.85 146.56 87.25 147.38 83.88 C 148.19 80.50 147.96 79.29 147.88 77.75 C 147.79 76.21 147.60 75.81 146.88 74.62 C 146.15 73.44 145.23 72.06 143.50 70.62 C 141.77 69.19 139.06 67.44 136.50 66.00 C 133.94 64.56 131.71 63.31 128.12 62.00 C 124.54 60.69 118.81 58.79 115.00 58.12 C 111.19 57.46 107.35 57.85 105.25 58.00 Z" id="s-2-f-3"/>
<path d="M 105.25 58.00 C 103.15 58.15 103.27 58.44 102.38 59.00 C 101.48 59.56 100.44 60.65 99.88 61.38 C 99.31 62.10 99.17 62.54 99.00 63.38 C 98.83 64.21 98.69 65.15 98.88 66.38 C 99.06 67.60 99.15 68.10 100.12 70.75 C 101.10 73.40 103.65 78.85 104.75 82.25 C 105.85 85.65 105.90 84.73 106.75 91.12 C 107.60 97.52 109.21 111.12 109.88 120.62 C 110.54 130.12 110.60 134.25 110.75 148.12 C 110.90 162.00 110.96 190.10 110.75 203.88 C 110.54 217.65 110.02 223.15 109.50 230.75 C 108.98 238.35 107.60 246.29 107.62 249.50 C 107.65 252.71 105.31 249.94 109.62 250.00 C 113.94 250.06 129.17 252.75 133.50 249.88 C 137.83 247.00 135.00 239.48 135.62 232.75 C 136.25 226.02 137.04 215.77 137.25 209.50 C 137.46 203.23 136.58 209.15 136.88 195.12 C 137.17 181.10 138.31 139.94 139.00 125.38 C 139.69 110.81 140.17 112.96 141.00 107.75 C 141.83 102.54 142.94 98.10 144.00 94.12 C 145.06 90.15 146.73 86.17 147.38 83.88 C 148.02 81.58 147.81 81.56 147.88 80.38 C 147.94 79.19 148.08 77.96 147.75 76.75 C 147.42 75.54 146.98 74.46 145.88 73.12 C 144.77 71.79 144.08 70.60 141.12 68.75 C 138.17 66.90 132.48 63.77 128.12 62.00 C 123.77 60.23 118.81 58.79 115.00 58.12 C 111.19 57.46 107.35 57.85 105.25 58.00 Z" id="s-2-f-4"/>
<path d="M 105.25 58.00 C 103.15 58.15 103.27 58.44 102.38 59.00 C 101.48 59.56 100.44 60.65 99.88 61.38 C 99.31 62.10 99.17 62.54 99.00 63.38 C 98.83 64.21 98.69 65.15 98.88 66.38 C 99.06 67.60 99.15 68.10 100.12 70.75 C 101.10 73.40 103.81 79.67 104.75 82.25 C 105.69 84.83 105.25 83.52 105.75 86.25 C 106.25 88.98 107.10 93.50 107.75 98.62 C 108.40 103.75 109.15 110.48 109.62 117.00 C 110.10 123.52 110.44 123.67 110.62 137.75 C 110.81 151.83 109.42 190.79 110.75 201.50 C 112.08 212.21 114.31 201.92 118.62 202.00 C 122.94 202.08 133.52 202.08 136.62 202.00 C 139.73 201.92 137.21 202.65 137.25 201.50 C 137.29 200.35 136.52 208.54 136.88 195.12 C 137.23 181.71 138.50 136.54 139.38 121.00 C 140.25 105.46 141.19 106.94 142.12 101.88 C 143.06 96.81 144.12 93.62 145.00 90.62 C 145.88 87.62 146.90 85.58 147.38 83.88 C 147.85 82.17 147.81 81.56 147.88 80.38 C 147.94 79.19 148.08 77.96 147.75 76.75 C 147.42 75.54 146.98 74.46 145.88 73.12 C 144.77 71.79 144.08 70.60 141.12 68.75 C 138.17 66.90 132.48 63.77 128.12 62.00 C 123.77 60.23 118.81 58.79 115.00 58.12 C 111.19 57.46 107.35 57.85 105.25 58.00 Z" id="s-2-f-5"/>
<path d="M 102.38 59.00 C 101.38 59.75 99.83 61.27 99.25 62.50 C 98.67 63.73 98.73 65.00 98.88 66.38 C 99.02 67.75 99.15 68.10 100.12 70.75 C 101.10 73.40 103.62 78.71 104.75 82.25 C 105.88 85.79 106.06 86.21 106.88 92.00 C 107.69 97.79 108.90 106.75 109.62 117.00 C 110.35 127.25 109.65 147.33 111.25 153.50 C 112.85 159.67 114.85 153.94 119.25 154.00 C 123.65 154.06 134.48 154.02 137.62 153.88 C 140.77 153.73 137.90 157.88 138.12 153.12 C 138.35 148.38 138.69 131.77 139.00 125.38 C 139.31 118.98 139.33 119.31 140.00 114.75 C 140.67 110.19 141.77 103.15 143.00 98.00 C 144.23 92.85 146.56 86.81 147.38 83.88 C 148.19 80.94 147.83 81.62 147.88 80.38 C 147.92 79.12 147.96 77.58 147.62 76.38 C 147.29 75.17 146.96 74.40 145.88 73.12 C 144.79 71.85 144.08 70.60 141.12 68.75 C 138.17 66.90 132.48 63.77 128.12 62.00 C 123.77 60.23 118.81 58.79 115.00 58.12 C 111.19 57.46 107.35 57.85 105.25 58.00 C 103.15 58.15 103.38 58.25 102.38 59.00 Z" id="s-2-f-6"/>
<path d="M 101.38 59.75 C 100.35 60.56 99.52 61.58 99.12 62.88 C 98.73 64.17 98.42 65.27 99.00 67.50 C 99.58 69.73 101.50 73.12 102.62 76.25 C 103.75 79.38 105.04 83.62 105.75 86.25 C 106.46 88.88 106.44 88.81 106.88 92.00 C 107.31 95.19 108.00 103.06 108.38 105.38 C 108.75 107.69 108.69 105.77 109.12 105.88 C 109.56 105.98 105.67 106.00 111.00 106.00 C 116.33 106.00 136.00 106.02 141.12 105.88 C 146.25 105.73 141.42 106.52 141.75 105.12 C 142.08 103.73 142.58 99.92 143.12 97.50 C 143.67 95.08 144.40 92.46 145.00 90.62 C 145.60 88.79 146.29 88.02 146.75 86.50 C 147.21 84.98 147.58 83.12 147.75 81.50 C 147.92 79.88 148.06 78.15 147.75 76.75 C 147.44 75.35 146.98 74.46 145.88 73.12 C 144.77 71.79 142.69 69.94 141.12 68.75 C 139.56 67.56 138.67 67.12 136.50 66.00 C 134.33 64.88 130.54 63.02 128.12 62.00 C 125.71 60.98 124.19 60.52 122.00 59.88 C 119.81 59.23 117.79 58.44 115.00 58.12 C 112.21 57.81 107.52 57.73 105.25 58.00 C 102.98 58.27 102.40 58.94 101.38 59.75 Z" id="s-2-f-7"/>
</g>
<g id="s-3" clip-path="url(#c-s-3)">
<use href="#s-3-f-0"/>
<path d="M 127.75 285.88 C 125.19 284.96 126.98 286.81 126.75 287.62 C 126.52 288.44 126.56 289.96 126.38 290.75 C 126.19 291.54 125.75 291.67 125.62 292.38 C 125.50 293.08 125.79 294.31 125.62 295.00 C 125.46 295.69 124.77 295.79 124.62 296.50 C 124.48 297.21 124.38 298.44 124.75 299.25 C 125.12 300.06 125.52 299.69 126.88 301.38 C 128.23 303.06 129.52 304.38 132.88 309.38 C 136.23 314.38 143.08 325.77 147.00 331.38 C 150.92 336.98 153.27 339.77 156.38 343.00 C 159.48 346.23 163.46 349.46 165.62 350.75 C 167.79 352.04 168.33 350.92 169.38 350.75 C 170.42 350.58 171.29 350.10 171.88 349.75 C 172.46 349.40 172.69 353.52 172.88 348.62 C 173.06 343.73 173.02 325.42 173.00 320.38 C 172.98 315.33 172.96 319.04 172.75 318.38 C 172.54 317.71 173.02 317.98 171.75 316.38 C 170.48 314.77 167.35 310.98 165.12 308.75 C 162.90 306.52 160.52 304.65 158.38 303.00 C 156.23 301.35 154.96 300.52 152.25 298.88 C 149.54 297.23 146.21 295.29 142.12 293.12 C 138.04 290.96 130.31 286.79 127.75 285.88 Z" id="s-3-f-1"/>
</g>
<g id="s-4" clip-path="url(#c-s-4)">
<use href="#s-4-f-0"/>
<path d="M 283.50 45.75 C 283.29 46.12 282.96 46.69 282.88 47.38 C 282.79 48.06 281.52 46.96 283.00 49.88 C 284.48 52.79 288.10 57.79 291.75 64.88 C 295.40 71.96 302.52 87.69 304.88 92.38 C 307.23 97.06 301.58 92.90 305.88 93.00 C 310.17 93.10 326.42 93.06 330.62 93.00 C 334.83 92.94 330.60 94.00 331.12 92.62 C 331.65 91.25 333.15 87.06 333.75 84.75 C 334.35 82.44 334.56 80.79 334.75 78.75 C 334.94 76.71 335.06 74.46 334.88 72.50 C 334.69 70.54 334.02 68.31 333.62 67.00 C 333.23 65.69 333.12 65.50 332.50 64.62 C 331.88 63.75 331.44 63.00 329.88 61.75 C 328.31 60.50 325.67 58.58 323.12 57.12 C 320.58 55.67 319.62 55.00 314.62 53.00 C 309.62 51.00 297.79 46.48 293.12 45.12 C 288.46 43.77 288.12 44.88 286.62 44.88 C 285.12 44.88 284.65 44.98 284.12 45.12 C 283.60 45.27 283.71 45.38 283.50 45.75 Z" id="s-4-f-1"/>
</g>
<g id="s-5" clip-path="url(#c-s-5)">
<use href="#s-5-f-0"/>
<path d="M 386.88 87.88 C 386.69 84.38 388.96 86.90 385.88 87.38 C 382.79 87.85 377.52 89.19 368.38 90.75 C 359.23 92.31 338.00 95.77 331.00 96.75 C 324.00 97.73 327.48 96.52 326.38 96.62 C 325.27 96.73 325.50 97.21 324.38 97.38 C 323.25 97.54 320.79 97.46 319.62 97.62 C 318.46 97.79 318.46 98.21 317.38 98.38 C 316.29 98.54 314.21 98.44 313.12 98.62 C 312.04 98.81 312.60 99.15 310.88 99.50 C 309.15 99.85 321.10 98.50 302.75 100.75 C 284.40 103.00 218.62 110.77 200.75 113.00 C 182.88 115.23 196.48 113.67 195.50 114.12 C 194.52 114.58 194.90 115.29 194.88 115.75 C 194.85 116.21 194.88 116.27 195.38 116.88 C 195.88 117.48 196.38 118.38 197.88 119.38 C 199.38 120.38 197.04 121.77 204.38 122.88 C 211.71 123.98 229.38 126.48 241.88 126.00 C 254.38 125.52 269.48 121.50 279.38 120.00 C 289.27 118.50 295.25 117.73 301.25 117.00 C 307.25 116.27 311.54 116.10 315.38 115.62 C 319.21 115.15 321.06 114.42 324.25 114.12 C 327.44 113.83 324.19 114.48 334.50 113.88 C 344.81 113.27 377.44 111.12 386.12 110.50 C 394.81 109.88 386.48 110.48 386.62 110.12 C 386.77 109.77 386.96 112.08 387.00 108.38 C 387.04 104.67 387.06 91.38 386.88 87.88 Z" id="s-5-f-1"/>
<path d="M 339.00 97.00 C 338.98 94.17 338.92 96.25 338.75 96.00 C 338.58 95.75 339.29 95.38 338.00 95.50 C 336.71 95.62 332.94 96.56 331.00 96.75 C 329.06 96.94 327.48 96.52 326.38 96.62 C 325.27 96.73 326.58 97.04 324.38 97.38 C 322.17 97.71 315.38 98.27 313.12 98.62 C 310.88 98.98 322.12 97.96 310.88 99.50 C 299.62 101.04 262.90 105.77 245.62 107.88 C 228.35 109.98 215.54 111.10 207.25 112.12 C 198.96 113.15 197.92 113.56 195.88 114.00 C 193.83 114.44 195.15 114.38 195.00 114.75 C 194.85 115.12 194.44 115.42 195.00 116.25 C 195.56 117.08 196.81 118.65 198.38 119.75 C 199.94 120.85 197.17 121.83 204.38 122.88 C 211.58 123.92 231.38 126.15 241.62 126.00 C 251.88 125.85 255.94 123.50 265.88 122.00 C 275.81 120.50 293.21 118.04 301.25 117.00 C 309.29 115.96 310.08 116.25 314.12 115.75 C 318.17 115.25 321.46 114.38 325.50 114.00 C 329.54 113.62 336.15 113.67 338.38 113.50 C 340.60 113.33 338.77 115.75 338.88 113.00 C 338.98 110.25 339.02 99.83 339.00 97.00 Z" id="s-5-f-2"/>
<path d="M 290.88 102.62 C 290.71 100.17 297.54 101.25 290.00 102.12 C 282.46 103.00 260.44 106.06 245.62 107.88 C 230.81 109.69 209.46 111.96 201.12 113.00 C 192.79 114.04 196.65 113.83 195.62 114.12 C 194.60 114.42 195.10 114.40 195.00 114.75 C 194.90 115.10 194.44 115.42 195.00 116.25 C 195.56 117.08 196.81 118.65 198.38 119.75 C 199.94 120.85 197.85 121.85 204.38 122.88 C 210.90 123.90 230.90 125.40 237.50 125.88 C 244.10 126.35 239.27 126.40 244.00 125.75 C 248.73 125.10 258.12 123.19 265.88 122.00 C 273.62 120.81 286.31 119.48 290.50 118.62 C 294.69 117.77 290.94 119.54 291.00 116.88 C 291.06 114.21 291.04 105.08 290.88 102.62 Z" id="s-5-f-3"/>
<path d="M 242.88 125.38 C 243.08 122.62 243.06 112.40 243.00 109.50 C 242.94 106.60 249.48 107.42 242.50 108.00 C 235.52 108.58 208.90 112.00 201.12 113.00 C 193.35 114.00 196.90 113.71 195.88 114.00 C 194.85 114.29 195.08 114.27 195.00 114.75 C 194.92 115.23 194.92 116.12 195.38 116.88 C 195.83 117.62 196.25 118.25 197.75 119.25 C 199.25 120.25 197.75 121.77 204.38 122.88 C 211.00 123.98 231.27 125.35 237.50 125.88 C 243.73 126.40 240.85 126.08 241.75 126.00 C 242.65 125.92 242.67 128.12 242.88 125.38 Z" id="s-5-f-4"/>
</g>
<g id="s-6" clip-path="url(#c-s-6)">
<use href="#s-6-f-0"/>
<path d="M 241.75 125.50 C 240.46 124.88 240.29 124.98 235.88 124.62 C 231.46 124.27 219.33 123.71 215.25 123.38 C 211.17 123.04 213.04 122.77 211.38 122.62 C 209.71 122.48 206.33 122.46 205.25 122.50 C 204.17 122.54 204.92 122.33 204.88 122.88 C 204.83 123.42 204.38 124.00 205.00 125.75 C 205.62 127.50 207.65 130.83 208.62 133.38 C 209.60 135.92 210.35 138.60 210.88 141.00 C 211.40 143.40 211.60 143.71 211.75 147.75 C 211.90 151.79 211.92 157.75 211.75 165.25 C 211.58 172.75 211.25 183.38 210.75 192.75 C 210.25 202.12 209.92 209.33 208.75 221.50 C 207.58 233.67 205.58 252.94 203.75 265.75 C 201.92 278.56 199.75 288.73 197.75 298.38 C 195.75 308.02 194.08 314.79 191.75 323.62 C 189.42 332.46 186.77 341.90 183.75 351.38 C 180.73 360.85 176.33 373.19 173.62 380.50 C 170.92 387.81 169.71 390.31 167.50 395.25 C 165.29 400.19 161.50 407.52 160.38 410.12 C 159.25 412.73 157.90 410.75 160.75 410.88 C 163.60 411.00 174.00 411.83 177.50 410.88 C 181.00 409.92 179.38 408.77 181.75 405.12 C 184.12 401.48 189.42 393.02 191.75 389.00 C 194.08 384.98 193.44 386.69 195.75 381.00 C 198.06 375.31 202.79 363.06 205.62 354.88 C 208.46 346.69 210.56 339.56 212.75 331.88 C 214.94 324.19 216.92 316.44 218.75 308.75 C 220.58 301.06 221.56 298.04 223.75 285.75 C 225.94 273.46 229.54 251.27 231.88 235.00 C 234.21 218.73 236.25 203.25 237.75 188.12 C 239.25 173.00 239.85 153.79 240.88 144.25 C 241.90 134.71 243.42 133.52 243.88 130.88 C 244.33 128.23 243.98 129.27 243.62 128.38 C 243.27 127.48 243.04 126.12 241.75 125.50 Z" id="s-6-f-1"/>
<path d="M 241.75 125.50 C 240.46 124.88 240.29 124.98 235.88 124.62 C 231.46 124.27 219.33 123.71 215.25 123.38 C 211.17 123.04 213.04 122.77 211.38 122.62 C 209.71 122.48 206.33 122.46 205.25 122.50 C 204.17 122.54 204.90 122.27 204.88 122.88 C 204.85 123.48 204.50 124.38 205.12 126.12 C 205.75 127.88 207.75 131.27 208.62 133.38 C 209.50 135.48 209.85 136.35 210.38 138.75 C 210.90 141.15 211.52 143.33 211.75 147.75 C 211.98 152.17 211.92 157.75 211.75 165.25 C 211.58 172.75 211.40 181.79 210.75 192.75 C 210.10 203.71 209.04 218.83 207.88 231.00 C 206.71 243.17 205.29 255.23 203.75 265.75 C 202.21 276.27 200.29 285.81 198.62 294.12 C 196.96 302.44 195.40 308.88 193.75 315.62 C 192.10 322.38 190.42 328.67 188.75 334.62 C 187.08 340.58 185.21 346.85 183.75 351.38 C 182.29 355.90 180.40 359.90 180.00 361.75 C 179.60 363.60 178.79 362.29 181.38 362.50 C 183.96 362.71 191.94 362.98 195.50 363.00 C 199.06 363.02 200.21 366.67 202.75 362.62 C 205.29 358.58 208.44 346.29 210.75 338.75 C 213.06 331.21 214.79 324.54 216.62 317.38 C 218.46 310.21 220.23 302.83 221.75 295.75 C 223.27 288.67 223.42 289.75 225.75 274.88 C 228.08 260.00 233.58 222.73 235.75 206.50 C 237.92 190.27 238.21 183.90 238.75 177.50 C 239.29 171.10 238.65 173.67 239.00 168.12 C 239.35 162.58 240.06 150.46 240.88 144.25 C 241.69 138.04 243.42 133.52 243.88 130.88 C 244.33 128.23 243.98 129.27 243.62 128.38 C 243.27 127.48 243.04 126.12 241.75 125.50 Z" id="s-6-f-2"/>
<path d="M 241.75 125.50 C 240.46 124.88 240.29 124.98 235.88 124.62 C 231.46 124.27 219.33 123.71 215.25 123.38 C 211.17 123.04 213.04 122.77 211.38 122.62 C 209.71 122.48 206.33 122.46 205.25 122.50 C 204.17 122.54 204.90 122.27 204.88 122.88 C 204.85 123.48 204.31 123.85 205.12 126.12 C 205.94 128.40 208.67 133.25 209.75 136.50 C 210.83 139.75 211.29 140.83 211.62 145.62 C 211.96 150.42 211.90 157.40 211.75 165.25 C 211.60 173.10 211.25 183.38 210.75 192.75 C 210.25 202.12 209.58 211.85 208.75 221.50 C 207.92 231.15 207.08 240.31 205.75 250.62 C 204.42 260.94 202.42 273.90 200.75 283.38 C 199.08 292.85 196.88 302.48 195.75 307.50 C 194.62 312.52 194.27 312.29 194.00 313.50 C 193.73 314.71 194.02 314.50 194.12 314.75 C 194.23 315.00 190.88 314.96 194.62 315.00 C 198.38 315.04 212.83 315.15 216.62 315.00 C 220.42 314.85 216.19 319.00 217.38 314.12 C 218.56 309.25 222.04 294.17 223.75 285.75 C 225.46 277.33 225.62 276.83 227.62 263.62 C 229.62 250.42 233.90 220.85 235.75 206.50 C 237.60 192.15 238.21 183.90 238.75 177.50 C 239.29 171.10 238.65 173.67 239.00 168.12 C 239.35 162.58 240.06 150.46 240.88 144.25 C 241.69 138.04 243.42 133.52 243.88 130.88 C 244.33 128.23 243.98 129.27 243.62 128.38 C 243.27 127.48 243.04 126.12 241.75 125.50 Z" id="s-6-f-3"/>
<path d="M 205.25 122.50 C 202.19 122.38 204.92 122.33 204.88 122.88 C 204.83 123.42 204.19 123.48 205.00 125.75 C 205.81 128.02 208.65 133.19 209.75 136.50 C 210.85 139.81 211.29 141.06 211.62 145.62 C 211.96 150.19 211.90 156.02 211.75 163.88 C 211.60 171.73 211.25 183.15 210.75 192.75 C 210.25 202.35 209.58 211.85 208.75 221.50 C 207.92 231.15 206.60 243.19 205.75 250.62 C 204.90 258.06 203.92 263.44 203.62 266.12 C 203.33 268.81 203.71 266.60 204.00 266.75 C 204.29 266.90 201.62 266.96 205.38 267.00 C 209.12 267.04 222.77 267.65 226.50 267.00 C 230.23 266.35 226.21 273.21 227.75 263.12 C 229.29 253.04 233.92 220.77 235.75 206.50 C 237.58 192.23 238.21 183.90 238.75 177.50 C 239.29 171.10 238.65 173.67 239.00 168.12 C 239.35 162.58 240.10 150.10 240.88 144.25 C 241.65 138.40 243.12 135.50 243.62 133.00 C 244.12 130.50 244.19 130.50 243.88 129.25 C 243.56 128.00 243.08 126.27 241.75 125.50 C 240.42 124.73 238.29 124.81 235.88 124.62 C 233.46 124.44 229.35 124.54 227.25 124.38 C 225.15 124.21 226.92 123.94 223.25 123.62 C 219.58 123.31 208.31 122.62 205.25 122.50 Z" id="s-6-f-4"/>
<path d="M 205.25 122.50 C 204.10 122.60 204.92 122.71 204.88 123.25 C 204.83 123.79 204.19 123.54 205.00 125.75 C 205.81 127.96 208.79 134.08 209.75 136.50 C 210.71 138.92 210.42 138.38 210.75 140.25 C 211.08 142.12 211.58 143.81 211.75 147.75 C 211.92 151.69 211.90 156.88 211.75 163.88 C 211.60 170.88 211.31 180.60 210.88 189.75 C 210.44 198.90 205.35 213.90 209.12 218.75 C 212.90 223.60 229.08 220.73 233.50 218.88 C 237.92 217.02 234.92 212.75 235.62 207.62 C 236.33 202.50 236.88 198.69 237.75 188.12 C 238.62 177.56 239.90 153.42 240.88 144.25 C 241.85 135.08 243.15 135.73 243.62 133.12 C 244.10 130.52 244.02 129.88 243.75 128.62 C 243.48 127.38 243.06 126.27 242.00 125.62 C 240.94 124.98 239.83 124.96 237.38 124.75 C 234.92 124.54 229.60 124.56 227.25 124.38 C 224.90 124.19 225.25 123.79 223.25 123.62 C 221.25 123.46 217.17 123.54 215.25 123.38 C 213.33 123.21 213.42 122.77 211.75 122.62 C 210.08 122.48 206.40 122.40 205.25 122.50 Z" id="s-6-f-5"/>
<path d="M 205.25 122.50 C 204.10 122.60 204.92 122.71 204.88 123.25 C 204.83 123.79 204.23 123.67 205.00 125.75 C 205.77 127.83 208.40 132.44 209.50 135.75 C 210.60 139.06 211.29 139.85 211.62 145.62 C 211.96 151.40 211.42 166.17 211.50 170.38 C 211.58 174.58 207.56 170.81 212.12 170.88 C 216.69 170.94 234.06 175.33 238.88 170.75 C 243.69 166.17 240.17 150.00 241.00 143.38 C 241.83 136.75 243.42 133.44 243.88 131.00 C 244.33 128.56 244.04 129.62 243.75 128.75 C 243.46 127.88 243.19 126.42 242.12 125.75 C 241.06 125.08 239.85 124.98 237.38 124.75 C 234.90 124.52 229.60 124.56 227.25 124.38 C 224.90 124.19 225.25 123.79 223.25 123.62 C 221.25 123.46 217.17 123.54 215.25 123.38 C 213.33 123.21 213.42 122.77 211.75 122.62 C 210.08 122.48 206.40 122.40 205.25 122.50 Z" id="s-6-f-6"/>
</g>
<g id="s-7" clip-path="url(#c-s-7)">
<use href="#s-7-f-0"/>
<path d="M 428.88 174.00 C 428.69 173.08 428.15 171.69 427.62 170.75 C 427.10 169.81 426.81 169.46 425.75 168.38 C 424.69 167.29 423.19 165.77 421.25 164.25 C 419.31 162.73 416.65 160.77 414.12 159.25 C 411.60 157.73 409.44 156.65 406.12 155.12 C 402.81 153.60 397.44 150.98 394.25 150.12 C 391.06 149.27 392.17 149.33 387.00 150.00 C 381.83 150.67 368.85 153.00 363.25 154.12 C 357.65 155.25 355.50 156.29 353.38 156.75 C 351.25 157.21 357.31 155.71 350.50 156.88 C 343.69 158.04 321.42 162.27 312.50 163.75 C 303.58 165.23 302.75 165.21 297.00 165.75 C 291.25 166.29 283.40 166.50 278.00 167.00 C 272.60 167.50 271.19 168.25 264.62 168.75 C 258.06 169.25 243.10 168.92 238.62 170.00 C 234.15 171.08 237.94 172.83 237.75 175.25 C 237.56 177.67 237.40 182.90 237.50 184.50 C 237.60 186.10 235.65 184.83 238.38 184.88 C 241.10 184.92 248.21 185.06 253.88 184.75 C 259.54 184.44 265.56 183.46 272.38 183.00 C 279.19 182.54 289.31 182.48 294.75 182.00 C 300.19 181.52 301.04 180.67 305.00 180.12 C 308.96 179.58 314.69 179.27 318.50 178.75 C 322.31 178.23 325.69 177.31 327.88 177.00 C 330.06 176.69 327.88 177.40 331.62 176.88 C 335.38 176.35 344.23 174.69 350.38 173.88 C 356.52 173.06 362.75 172.48 368.50 172.00 C 374.25 171.52 381.85 171.02 384.88 171.00 C 387.90 170.98 386.04 171.35 386.62 171.88 C 387.21 172.40 387.85 172.77 388.38 174.12 C 388.90 175.48 389.52 178.08 389.75 180.00 C 389.98 181.92 389.92 183.48 389.75 185.62 C 389.58 187.77 389.56 189.23 388.75 192.88 C 387.94 196.52 385.23 204.98 384.88 207.50 C 384.52 210.02 382.65 207.92 386.62 208.00 C 390.60 208.08 404.71 208.08 408.75 208.00 C 412.79 207.92 409.00 211.08 410.88 207.50 C 412.75 203.92 417.88 190.88 420.00 186.50 C 422.12 182.12 422.17 182.96 423.62 181.25 C 425.08 179.54 427.88 177.46 428.75 176.25 C 429.62 175.04 429.06 174.92 428.88 174.00 Z" id="s-7-f-1"/>
<path d="M 414.25 159.50 C 412.98 158.56 409.46 156.69 406.12 155.12 C 402.79 153.56 397.44 150.98 394.25 150.12 C 391.06 149.27 391.33 149.50 387.00 150.00 C 382.67 150.50 373.85 152.00 368.25 153.12 C 362.65 154.25 356.33 156.12 353.38 156.75 C 350.42 157.38 357.31 155.71 350.50 156.88 C 343.69 158.04 321.42 162.27 312.50 163.75 C 303.58 165.23 302.50 165.23 297.00 165.75 C 291.50 166.27 284.90 166.38 279.50 166.88 C 274.10 167.38 271.46 168.21 264.62 168.75 C 257.79 169.29 242.98 169.04 238.50 170.12 C 234.02 171.21 237.92 172.85 237.75 175.25 C 237.58 177.65 237.40 182.90 237.50 184.50 C 237.60 186.10 235.48 184.85 238.38 184.88 C 241.27 184.90 249.21 184.94 254.88 184.62 C 260.54 184.31 265.73 183.44 272.38 183.00 C 279.02 182.56 289.31 182.48 294.75 182.00 C 300.19 181.52 301.04 180.67 305.00 180.12 C 308.96 179.58 314.69 179.27 318.50 178.75 C 322.31 178.23 325.69 177.31 327.88 177.00 C 330.06 176.69 327.88 177.40 331.62 176.88 C 335.38 176.35 341.67 174.88 350.38 173.88 C 359.08 172.88 375.27 172.38 383.88 170.88 C 392.48 169.38 397.38 166.50 402.00 164.88 C 406.62 163.25 409.67 161.81 411.62 161.12 C 413.58 160.44 413.31 161.02 413.75 160.75 C 414.19 160.48 415.52 160.44 414.25 159.50 Z" id="s-7-f-2"/>
<path d="M 382.00 151.25 C 381.77 148.90 382.08 150.73 380.62 150.88 C 379.17 151.02 377.79 151.15 373.25 152.12 C 368.71 153.10 357.17 155.96 353.38 156.75 C 349.58 157.54 357.31 155.71 350.50 156.88 C 343.69 158.04 321.42 162.27 312.50 163.75 C 303.58 165.23 302.50 165.23 297.00 165.75 C 291.50 166.27 284.90 166.38 279.50 166.88 C 274.10 167.38 271.44 168.23 264.62 168.75 C 257.81 169.27 243.10 168.92 238.62 170.00 C 234.15 171.08 237.94 172.83 237.75 175.25 C 237.56 177.67 237.40 182.90 237.50 184.50 C 237.60 186.10 235.48 184.85 238.38 184.88 C 241.27 184.90 249.21 184.94 254.88 184.62 C 260.54 184.31 265.73 183.44 272.38 183.00 C 279.02 182.56 289.31 182.48 294.75 182.00 C 300.19 181.52 301.04 180.67 305.00 180.12 C 308.96 179.58 314.69 179.27 318.50 178.75 C 322.31 178.23 325.69 177.31 327.88 177.00 C 330.06 176.69 327.88 177.40 331.62 176.88 C 335.38 176.35 342.04 174.88 350.38 173.88 C 358.71 172.88 376.35 172.35 381.62 170.88 C 386.90 169.40 381.94 168.27 382.00 165.00 C 382.06 161.73 382.23 153.60 382.00 151.25 Z" id="s-7-f-3"/>
<path d="M 333.88 160.38 C 333.71 157.88 335.52 159.48 333.00 159.88 C 330.48 160.27 324.75 161.77 318.75 162.75 C 312.75 163.73 303.75 165.04 297.00 165.75 C 290.25 166.46 283.65 166.50 278.25 167.00 C 272.85 167.50 271.23 168.25 264.62 168.75 C 258.02 169.25 243.10 168.92 238.62 170.00 C 234.15 171.08 237.94 172.83 237.75 175.25 C 237.56 177.67 237.35 182.90 237.50 184.50 C 237.65 186.10 236.27 184.83 238.62 184.88 C 240.98 184.92 246.00 185.06 251.62 184.75 C 257.25 184.44 265.19 183.46 272.38 183.00 C 279.56 182.54 289.31 182.48 294.75 182.00 C 300.19 181.52 301.04 180.67 305.00 180.12 C 308.96 179.58 314.69 179.27 318.50 178.75 C 322.31 178.23 325.48 177.35 327.88 177.00 C 330.27 176.65 331.90 176.79 332.88 176.62 C 333.85 176.46 333.56 176.29 333.75 176.00 C 333.94 175.71 333.98 177.48 334.00 174.88 C 334.02 172.27 334.04 162.88 333.88 160.38 Z" id="s-7-f-4"/>
<path d="M 285.88 167.00 C 285.79 164.60 286.54 166.65 285.50 166.62 C 284.46 166.60 283.10 166.52 279.62 166.88 C 276.15 167.23 271.46 168.23 264.62 168.75 C 257.79 169.27 243.10 168.92 238.62 170.00 C 234.15 171.08 237.94 172.83 237.75 175.25 C 237.56 177.67 237.42 182.90 237.50 184.50 C 237.58 186.10 235.90 184.83 238.25 184.88 C 240.60 184.92 245.94 185.06 251.62 184.75 C 257.31 184.44 266.77 183.33 272.38 183.00 C 277.98 182.67 283.00 182.90 285.25 182.75 C 287.50 182.60 285.75 182.42 285.88 182.12 C 286.00 181.83 286.00 183.52 286.00 181.00 C 286.00 178.48 285.96 169.40 285.88 167.00 Z" id="s-7-f-5"/>
</g>
<g id="s-8" clip-path="url(#c-s-8)">
<use href="#s-8-f-0"/>
<path d="M 269.50 129.00 C 268.75 129.65 267.69 130.88 267.25 131.88 C 266.81 132.88 266.29 133.00 266.88 135.00 C 267.46 137.00 269.75 141.02 270.75 143.88 C 271.75 146.73 272.52 148.19 272.88 152.12 C 273.23 156.06 272.96 164.81 272.88 167.50 C 272.79 170.19 272.40 166.85 272.38 168.25 C 272.35 169.65 268.83 174.58 272.75 175.88 C 276.67 177.17 291.98 179.31 295.88 176.00 C 299.77 172.69 295.94 160.17 296.12 156.00 C 296.31 151.83 296.40 153.12 297.00 151.00 C 297.60 148.88 299.31 145.40 299.75 143.25 C 300.19 141.10 299.81 139.27 299.62 138.12 C 299.44 136.98 299.23 137.10 298.62 136.38 C 298.02 135.65 296.92 134.50 296.00 133.75 C 295.08 133.00 294.48 132.50 293.12 131.88 C 291.77 131.25 290.54 130.67 287.88 130.00 C 285.21 129.33 279.81 128.21 277.12 127.88 C 274.44 127.54 273.02 127.81 271.75 128.00 C 270.48 128.19 270.25 128.35 269.50 129.00 Z" id="s-8-f-1"/>
</g>
<g id="s-9" clip-path="url(#c-s-9)">
<use href="#s-9-f-0"/>
<path d="M 346.75 112.50 C 344.06 112.12 338.19 112.58 335.12 112.75 C 332.06 112.92 329.58 113.27 328.38 113.50 C 327.17 113.73 327.54 111.90 327.88 114.12 C 328.21 116.35 329.90 122.60 330.38 126.88 C 330.85 131.15 330.83 134.21 330.75 139.75 C 330.67 145.29 330.23 155.52 329.88 160.12 C 329.52 164.73 328.81 164.27 328.62 167.38 C 328.44 170.48 329.12 172.00 328.75 178.75 C 328.38 185.50 326.69 202.85 326.38 207.88 C 326.06 212.90 324.25 208.69 326.88 208.88 C 329.50 209.06 339.31 209.06 342.12 209.00 C 344.94 208.94 342.42 214.48 343.75 208.50 C 345.08 202.52 348.88 179.10 350.12 173.12 C 351.38 167.15 351.06 173.44 351.25 172.62 C 351.44 171.81 351.10 169.35 351.25 168.25 C 351.40 167.15 351.96 167.00 352.12 166.00 C 352.29 165.00 352.08 163.19 352.25 162.25 C 352.42 161.31 352.98 161.56 353.12 160.38 C 353.27 159.19 352.81 157.85 353.12 155.12 C 353.44 152.40 354.29 147.42 355.00 144.00 C 355.71 140.58 356.42 137.31 357.38 134.62 C 358.33 131.94 360.19 129.48 360.75 127.88 C 361.31 126.27 361.31 126.29 360.75 125.00 C 360.19 123.71 358.96 121.79 357.38 120.12 C 355.79 118.46 353.02 116.27 351.25 115.00 C 349.48 113.73 349.44 112.88 346.75 112.50 Z" id="s-9-f-1"/>
<path d="M 347.62 112.75 C 345.46 112.62 338.42 112.56 335.12 112.75 C 331.83 112.94 329.06 113.29 327.88 113.88 C 326.69 114.46 327.69 114.81 328.00 116.25 C 328.31 117.69 329.29 119.98 329.75 122.50 C 330.21 125.02 330.73 125.00 330.75 131.38 C 330.77 137.75 329.94 155.77 329.88 160.75 C 329.81 165.73 326.77 161.17 330.38 161.25 C 333.98 161.33 347.71 161.38 351.50 161.25 C 355.29 161.12 352.85 161.52 353.12 160.50 C 353.40 159.48 352.65 158.65 353.12 155.12 C 353.60 151.60 355.19 143.04 356.00 139.38 C 356.81 135.71 357.23 135.00 358.00 133.12 C 358.77 131.25 360.15 129.35 360.62 128.12 C 361.10 126.90 361.00 126.54 360.88 125.75 C 360.75 124.96 360.46 124.31 359.88 123.38 C 359.29 122.44 358.75 121.48 357.38 120.12 C 356.00 118.77 353.17 116.35 351.62 115.25 C 350.08 114.15 348.79 113.92 348.12 113.50 C 347.46 113.08 349.79 112.88 347.62 112.75 Z" id="s-9-f-2"/>
</g>
<g id="s-10" clip-path="url(#c-s-10)">
<use href="#s-10-f-0"/>
<path d="M 374.88 211.25 C 374.27 208.17 373.58 210.19 371.38 210.00 C 369.17 209.81 366.19 209.67 361.62 210.12 C 357.06 210.58 347.60 212.33 344.00 212.75 C 340.40 213.17 341.04 212.52 340.00 212.62 C 338.96 212.73 338.83 213.19 337.75 213.38 C 336.67 213.56 334.42 213.58 333.50 213.75 C 332.58 213.92 333.17 214.21 332.25 214.38 C 331.33 214.54 329.15 214.50 328.00 214.75 C 326.85 215.00 330.83 215.06 325.38 215.88 C 319.92 216.69 301.44 219.00 295.25 219.62 C 289.06 220.25 289.88 219.50 288.25 219.62 C 286.62 219.75 287.19 220.19 285.50 220.38 C 283.81 220.56 280.00 220.50 278.12 220.75 C 276.25 221.00 278.48 221.50 274.25 221.88 C 270.02 222.25 259.58 222.50 252.75 223.00 C 245.92 223.50 236.62 224.50 233.25 224.88 C 229.88 225.25 232.75 224.81 232.50 225.25 C 232.25 225.69 232.08 225.15 231.75 227.50 C 231.42 229.85 230.65 237.31 230.50 239.38 C 230.35 241.44 229.25 239.81 230.88 239.88 C 232.50 239.94 237.96 239.90 240.25 239.75 C 242.54 239.60 240.08 239.33 244.62 239.00 C 249.17 238.67 252.88 239.08 267.50 237.75 C 282.12 236.42 316.15 232.44 332.38 231.00 C 348.60 229.56 357.92 229.46 364.88 229.12 C 371.83 228.79 372.44 229.10 374.12 229.00 C 375.81 228.90 374.88 231.46 375.00 228.50 C 375.12 225.54 375.48 214.33 374.88 211.25 Z" id="s-10-f-1"/>
<path d="M 327.00 215.88 C 326.88 213.35 331.73 214.85 326.25 215.50 C 320.77 216.15 300.44 219.06 294.12 219.75 C 287.81 220.44 289.83 219.52 288.38 219.62 C 286.92 219.73 287.06 220.19 285.38 220.38 C 283.69 220.56 280.10 220.50 278.25 220.75 C 276.40 221.00 278.50 221.50 274.25 221.88 C 270.00 222.25 259.58 222.50 252.75 223.00 C 245.92 223.50 236.62 224.50 233.25 224.88 C 229.88 225.25 232.75 224.81 232.50 225.25 C 232.25 225.69 232.08 225.15 231.75 227.50 C 231.42 229.85 230.65 237.31 230.50 239.38 C 230.35 241.44 229.29 239.81 230.88 239.88 C 232.46 239.94 237.71 239.90 240.00 239.75 C 242.29 239.60 239.85 239.35 244.62 239.00 C 249.40 238.65 254.98 238.83 268.62 237.62 C 282.27 236.42 316.77 232.92 326.50 231.75 C 336.23 230.58 326.92 233.27 327.00 230.62 C 327.08 227.98 327.12 218.40 327.00 215.88 Z" id="s-10-f-2"/>
<path d="M 278.88 221.25 C 278.69 218.92 278.65 220.77 277.88 220.88 C 277.10 220.98 278.35 221.52 274.25 221.88 C 270.15 222.23 260.08 222.50 253.25 223.00 C 246.42 223.50 236.71 224.50 233.25 224.88 C 229.79 225.25 232.75 224.81 232.50 225.25 C 232.25 225.69 231.94 226.17 231.75 227.50 C 231.56 228.83 231.56 231.81 231.38 233.25 C 231.19 234.69 230.75 235.04 230.62 236.12 C 230.50 237.21 229.02 239.15 230.62 239.75 C 232.23 240.35 237.92 239.88 240.25 239.75 C 242.58 239.62 242.52 239.15 244.62 239.00 C 246.73 238.85 247.25 239.27 252.88 238.88 C 258.50 238.48 274.02 237.29 278.38 236.62 C 282.73 235.96 278.92 237.44 279.00 234.88 C 279.08 232.31 279.06 223.58 278.88 221.25 Z" id="s-10-f-3"/>
</g>
<g id="s-11" clip-path="url(#c-s-11)">
<use href="#s-11-f-0"/>
<path d="M 320.88 270.38 C 320.48 268.35 320.23 269.54 318.62 269.00 C 317.02 268.46 313.21 267.46 311.25 267.12 C 309.29 266.79 308.73 266.69 306.88 267.00 C 305.02 267.31 301.77 268.40 300.12 269.00 C 298.48 269.60 298.52 270.00 297.00 270.62 C 295.48 271.25 294.73 271.67 291.00 272.75 C 287.27 273.83 277.60 276.27 274.62 277.12 C 271.65 277.98 273.44 277.62 273.12 277.88 C 272.81 278.12 272.79 277.17 272.75 278.62 C 272.71 280.08 272.58 285.12 272.88 286.62 C 273.17 288.12 273.56 287.29 274.50 287.62 C 275.44 287.96 276.12 288.44 278.50 288.62 C 280.88 288.81 285.94 289.02 288.75 288.75 C 291.56 288.48 290.12 288.02 295.38 287.00 C 300.62 285.98 315.98 283.60 320.25 282.62 C 324.52 281.65 320.90 283.17 321.00 281.12 C 321.10 279.08 321.27 272.40 320.88 270.38 Z" id="s-11-f-1"/>
</g>
<g id="s-12" clip-path="url(#c-s-12)">
<use href="#s-12-f-0"/>
<path d="M 262.62 237.50 C 260.12 237.25 253.44 237.71 250.75 237.88 C 248.06 238.04 247.31 238.31 246.50 238.50 C 245.69 238.69 245.94 238.44 245.88 239.00 C 245.81 239.56 245.79 240.73 246.12 241.88 C 246.46 243.02 247.27 243.85 247.88 245.88 C 248.48 247.90 249.27 250.54 249.75 254.00 C 250.23 257.46 250.62 258.06 250.75 266.62 C 250.88 275.19 250.67 294.71 250.50 305.38 C 250.33 316.04 250.17 324.52 249.75 330.62 C 249.33 336.73 248.27 338.83 248.00 342.00 C 247.73 345.17 247.62 346.71 248.12 349.62 C 248.62 352.54 250.23 357.44 251.00 359.50 C 251.77 361.56 252.15 361.31 252.75 362.00 C 253.35 362.69 253.96 363.17 254.62 363.62 C 255.29 364.08 255.60 364.58 256.75 364.75 C 257.90 364.92 260.21 364.92 261.50 364.62 C 262.79 364.33 261.50 365.40 264.50 363.00 C 267.50 360.60 270.79 356.94 279.50 350.25 C 288.21 343.56 310.33 327.77 316.75 322.88 C 323.17 317.98 317.81 322.21 318.00 320.88 C 318.19 319.54 318.04 315.94 317.88 314.88 C 317.71 313.81 323.12 313.02 317.00 314.50 C 310.88 315.98 288.23 322.04 281.12 323.75 C 274.02 325.46 275.62 324.69 274.38 324.75 C 273.12 324.81 273.85 324.75 273.62 324.12 C 273.40 323.50 273.06 328.62 273.00 321.00 C 272.94 313.38 273.29 290.42 273.25 278.38 C 273.21 266.33 273.00 254.12 272.75 248.75 C 272.50 243.38 272.33 247.15 271.75 246.12 C 271.17 245.10 270.25 243.75 269.25 242.62 C 268.25 241.50 266.85 240.23 265.75 239.38 C 264.65 238.52 265.12 237.75 262.62 237.50 Z" id="s-12-f-1"/>
<path d="M 262.62 237.50 C 260.12 237.25 253.44 237.71 250.75 237.88 C 248.06 238.04 247.31 238.31 246.50 238.50 C 245.69 238.69 245.94 238.44 245.88 239.00 C 245.81 239.56 245.79 240.73 246.12 241.88 C 246.46 243.02 247.25 243.75 247.88 245.88 C 248.50 248.00 249.40 251.17 249.88 254.62 C 250.35 258.08 250.62 258.73 250.75 266.62 C 250.88 274.52 250.79 291.35 250.62 302.00 C 250.46 312.65 250.17 324.04 249.75 330.50 C 249.33 336.96 248.42 337.75 248.12 340.75 C 247.83 343.75 247.52 345.40 248.00 348.50 C 248.48 351.60 249.90 356.85 251.00 359.38 C 252.10 361.90 253.48 362.71 254.62 363.62 C 255.77 364.54 256.81 364.69 257.88 364.88 C 258.94 365.06 260.08 364.94 261.00 364.75 C 261.92 364.56 262.25 364.48 263.38 363.75 C 264.50 363.02 266.67 361.38 267.75 360.38 C 268.83 359.38 269.35 359.21 269.88 357.75 C 270.40 356.29 270.67 353.83 270.88 351.62 C 271.08 349.42 270.77 348.88 271.12 344.50 C 271.48 340.12 272.65 336.40 273.00 325.38 C 273.35 314.35 273.29 291.15 273.25 278.38 C 273.21 265.60 273.00 254.12 272.75 248.75 C 272.50 243.38 272.33 247.15 271.75 246.12 C 271.17 245.10 270.25 243.75 269.25 242.62 C 268.25 241.50 266.85 240.23 265.75 239.38 C 264.65 238.52 265.12 237.75 262.62 237.50 Z" id="s-12-f-2"/>
<path d="M 262.62 237.50 C 260.12 237.25 253.44 237.71 250.75 237.88 C 248.06 238.04 247.31 238.31 246.50 238.50 C 245.69 238.69 245.94 238.44 245.88 239.00 C 245.81 239.56 245.79 240.73 246.12 241.88 C 246.46 243.02 247.31 244.08 247.88 245.88 C 248.44 247.67 249.04 249.73 249.50 252.62 C 249.96 255.52 250.44 255.02 250.62 263.25 C 250.81 271.48 250.81 290.31 250.62 302.00 C 250.44 313.69 249.58 328.06 249.50 333.38 C 249.42 338.69 246.62 333.77 250.12 333.88 C 253.62 333.98 266.83 334.06 270.50 334.00 C 274.17 333.94 271.71 334.94 272.12 333.50 C 272.54 332.06 272.81 334.56 273.00 325.38 C 273.19 316.19 273.29 291.15 273.25 278.38 C 273.21 265.60 273.00 254.12 272.75 248.75 C 272.50 243.38 272.33 247.15 271.75 246.12 C 271.17 245.10 270.25 243.75 269.25 242.62 C 268.25 241.50 266.85 240.23 265.75 239.38 C 264.65 238.52 265.12 237.75 262.62 237.50 Z" id="s-12-f-3"/>
<path d="M 246.00 238.75 C 244.58 239.46 245.81 240.69 246.12 241.88 C 246.44 243.06 247.25 243.73 247.88 245.88 C 248.50 248.02 249.40 251.29 249.88 254.75 C 250.35 258.21 250.60 261.52 250.75 266.62 C 250.90 271.73 249.65 282.15 250.75 285.38 C 251.85 288.60 253.67 285.92 257.38 286.00 C 261.08 286.08 270.42 291.79 273.00 285.88 C 275.58 279.96 272.94 256.75 272.88 250.50 C 272.81 244.25 272.98 249.40 272.62 248.38 C 272.27 247.35 271.90 245.88 270.75 244.38 C 269.60 242.88 267.06 240.48 265.75 239.38 C 264.44 238.27 264.73 238.04 262.88 237.75 C 261.02 237.46 257.44 237.46 254.62 237.62 C 251.81 237.79 247.42 238.04 246.00 238.75 Z" id="s-12-f-4"/>
</g>
<g id="s-13" clip-path="url(#c-s-13)">
<use href="#s-13-f-0"/>
<path d="M 405.88 262.62 C 405.75 259.19 407.88 261.27 405.00 262.25 C 402.12 263.23 396.38 265.94 388.62 268.50 C 380.88 271.06 363.65 275.94 358.50 277.62 C 353.35 279.31 357.85 277.12 357.75 278.62 C 357.65 280.12 357.42 285.10 357.88 286.62 C 358.33 288.15 359.19 287.42 360.50 287.75 C 361.81 288.08 362.77 288.46 365.75 288.62 C 368.73 288.79 375.19 288.90 378.38 288.75 C 381.56 288.60 381.98 288.38 384.88 287.75 C 387.77 287.12 392.35 285.75 395.75 285.00 C 399.15 284.25 403.58 283.60 405.25 283.25 C 406.92 282.90 405.65 286.31 405.75 282.88 C 405.85 279.44 406.00 266.06 405.88 262.62 Z" id="s-13-f-1"/>
</g>
<g id="s-14" clip-path="url(#c-s-14)">
<use href="#s-14-f-0"/>
<path d="M 333.88 230.75 C 333.02 231.27 333.79 231.94 334.12 232.88 C 334.46 233.81 335.44 233.94 335.88 236.38 C 336.31 238.81 336.58 234.29 336.75 247.50 C 336.92 260.71 336.79 302.96 336.88 315.62 C 336.96 328.29 337.04 321.25 337.25 323.50 C 337.46 325.75 337.50 326.77 338.12 329.12 C 338.75 331.48 340.12 335.50 341.00 337.62 C 341.88 339.75 342.08 340.17 343.38 341.88 C 344.67 343.58 346.46 345.90 348.75 347.88 C 351.04 349.85 354.65 352.29 357.12 353.75 C 359.60 355.21 361.48 355.81 363.62 356.62 C 365.77 357.44 366.31 357.77 370.00 358.62 C 373.69 359.48 381.56 361.06 385.75 361.75 C 389.94 362.44 390.50 362.60 395.12 362.75 C 399.75 362.90 409.19 362.81 413.50 362.62 C 417.81 362.44 417.90 362.27 421.00 361.62 C 424.10 360.98 429.31 359.58 432.12 358.75 C 434.94 357.92 435.96 357.46 437.88 356.62 C 439.79 355.79 441.85 354.75 443.62 353.75 C 445.40 352.75 446.98 351.77 448.50 350.62 C 450.02 349.48 451.21 348.62 452.75 346.88 C 454.29 345.12 456.56 342.15 457.75 340.12 C 458.94 338.10 459.54 336.19 459.88 334.75 C 460.21 333.31 460.27 333.00 459.75 331.50 C 459.23 330.00 457.48 326.85 456.75 325.75 C 456.02 324.65 460.73 323.69 455.38 324.88 C 450.02 326.06 431.19 331.06 424.62 332.88 C 418.06 334.69 419.38 334.96 416.00 335.75 C 412.62 336.54 408.23 337.29 404.38 337.62 C 400.52 337.96 396.60 337.90 392.88 337.75 C 389.15 337.60 385.85 337.42 382.00 336.75 C 378.15 336.08 372.77 334.77 369.75 333.75 C 366.73 332.73 365.50 331.85 363.88 330.62 C 362.25 329.40 360.98 327.79 360.00 326.38 C 359.02 324.96 358.50 323.88 358.00 322.12 C 357.50 320.38 357.17 318.58 357.00 315.88 C 356.83 313.17 356.79 310.79 357.00 305.88 C 357.21 300.96 358.06 291.27 358.25 286.38 C 358.44 281.48 357.52 282.06 358.12 276.50 C 358.73 270.94 360.79 257.88 361.88 253.00 C 362.96 248.12 364.17 248.85 364.62 247.25 C 365.08 245.65 364.92 244.58 364.62 243.38 C 364.33 242.17 363.92 241.33 362.88 240.00 C 361.83 238.67 360.10 236.85 358.38 235.38 C 356.65 233.90 353.83 231.94 352.50 231.12 C 351.17 230.31 350.85 230.75 350.38 230.50 C 349.90 230.25 351.48 229.75 349.62 229.62 C 347.77 229.50 341.88 229.56 339.25 229.75 C 336.62 229.94 334.73 230.23 333.88 230.75 Z" id="s-14-f-1"/>
<path d="M 333.88 230.75 C 333.02 231.27 333.79 231.94 334.12 232.88 C 334.46 233.81 335.44 233.94 335.88 236.38 C 336.31 238.81 336.54 233.15 336.75 247.50 C 336.96 261.85 336.90 308.90 337.12 322.50 C 337.35 336.10 337.65 327.00 338.12 329.12 C 338.60 331.25 339.19 333.21 340.00 335.25 C 340.81 337.29 342.06 339.79 343.00 341.38 C 343.94 342.96 344.48 343.50 345.62 344.75 C 346.77 346.00 348.25 347.54 349.88 348.88 C 351.50 350.21 353.08 351.46 355.38 352.75 C 357.67 354.04 359.73 355.31 363.62 356.62 C 367.52 357.94 373.98 359.65 378.75 360.62 C 383.52 361.60 386.79 362.15 392.25 362.50 C 397.71 362.85 406.71 362.90 411.50 362.75 C 416.29 362.60 417.56 362.29 421.00 361.62 C 424.44 360.96 428.71 359.90 432.12 358.75 C 435.54 357.60 439.85 355.65 441.50 354.75 C 443.15 353.85 441.92 357.54 442.00 353.38 C 442.08 349.21 442.08 333.88 442.00 329.75 C 441.92 325.62 446.56 327.46 441.50 328.62 C 436.44 329.79 417.94 335.23 411.62 336.75 C 405.31 338.27 406.75 337.58 403.62 337.75 C 400.50 337.92 396.48 337.92 392.88 337.75 C 389.27 337.58 385.85 337.42 382.00 336.75 C 378.15 336.08 372.56 334.62 369.75 333.75 C 366.94 332.88 366.56 332.48 365.12 331.50 C 363.69 330.52 362.31 329.44 361.12 327.88 C 359.94 326.31 358.69 324.12 358.00 322.12 C 357.31 320.12 357.15 319.42 357.00 315.88 C 356.85 312.33 356.92 305.79 357.12 300.88 C 357.33 295.96 358.08 290.44 358.25 286.38 C 358.42 282.31 357.52 282.06 358.12 276.50 C 358.73 270.94 360.79 257.88 361.88 253.00 C 362.96 248.12 364.17 248.85 364.62 247.25 C 365.08 245.65 364.92 244.58 364.62 243.38 C 364.33 242.17 363.92 241.33 362.88 240.00 C 361.83 238.67 360.10 236.85 358.38 235.38 C 356.65 233.90 353.83 231.94 352.50 231.12 C 351.17 230.31 350.85 230.75 350.38 230.50 C 349.90 230.25 351.48 229.75 349.62 229.62 C 347.77 229.50 341.88 229.56 339.25 229.75 C 336.62 229.94 334.73 230.23 333.88 230.75 Z" id="s-14-f-2"/>
<path d="M 334.12 230.62 C 333.25 231.08 333.71 231.54 334.00 232.50 C 334.29 233.46 335.42 233.88 335.88 236.38 C 336.33 238.88 336.56 233.40 336.75 247.50 C 336.94 261.60 336.77 307.40 337.00 321.00 C 337.23 334.60 337.46 326.35 338.12 329.12 C 338.79 331.90 340.19 335.58 341.00 337.62 C 341.81 339.67 342.17 340.10 343.00 341.38 C 343.83 342.65 344.58 343.79 346.00 345.25 C 347.42 346.71 349.65 348.71 351.50 350.12 C 353.35 351.54 355.10 352.67 357.12 353.75 C 359.15 354.83 360.71 355.62 363.62 356.62 C 366.54 357.62 370.96 358.90 374.62 359.75 C 378.29 360.60 382.48 361.31 385.62 361.75 C 388.77 362.19 392.10 362.42 393.50 362.38 C 394.90 362.33 393.92 365.52 394.00 361.50 C 394.08 357.48 394.12 342.21 394.00 338.25 C 393.88 334.29 395.35 338.02 393.25 337.75 C 391.15 337.48 385.73 337.46 381.38 336.62 C 377.02 335.79 370.02 333.73 367.12 332.75 C 364.23 331.77 365.00 331.56 364.00 330.75 C 363.00 329.94 361.94 328.88 361.12 327.88 C 360.31 326.88 359.67 325.79 359.12 324.75 C 358.58 323.71 358.23 323.10 357.88 321.62 C 357.52 320.15 357.15 318.50 357.00 315.88 C 356.85 313.25 356.79 310.79 357.00 305.88 C 357.21 300.96 358.06 291.29 358.25 286.38 C 358.44 281.46 357.52 281.94 358.12 276.38 C 358.73 270.81 360.77 257.94 361.88 253.00 C 362.98 248.06 364.27 248.27 364.75 246.75 C 365.23 245.23 364.92 244.79 364.75 243.88 C 364.58 242.96 364.81 242.67 363.75 241.25 C 362.69 239.83 360.25 237.06 358.38 235.38 C 356.50 233.69 353.83 231.94 352.50 231.12 C 351.17 230.31 350.85 230.75 350.38 230.50 C 349.90 230.25 351.48 229.75 349.62 229.62 C 347.77 229.50 341.83 229.58 339.25 229.75 C 336.67 229.92 335.00 230.17 334.12 230.62 Z" id="s-14-f-3"/>
<path d="M 348.75 229.50 C 346.29 229.10 341.73 229.54 339.25 229.75 C 336.77 229.96 334.71 230.17 333.88 230.75 C 333.04 231.33 333.92 232.31 334.25 233.25 C 334.58 234.19 335.46 234.00 335.88 236.38 C 336.29 238.75 336.58 234.29 336.75 247.50 C 336.92 260.71 336.79 302.96 336.88 315.62 C 336.96 328.29 337.04 321.25 337.25 323.50 C 337.46 325.75 337.67 327.17 338.12 329.12 C 338.58 331.08 339.19 333.21 340.00 335.25 C 340.81 337.29 342.04 339.83 343.00 341.38 C 343.96 342.92 345.06 344.08 345.75 344.50 C 346.44 344.92 345.00 346.12 347.12 343.88 C 349.25 341.62 356.23 333.67 358.50 331.00 C 360.77 328.33 360.83 329.31 360.75 327.88 C 360.67 326.44 358.62 324.38 358.00 322.38 C 357.38 320.38 357.15 319.46 357.00 315.88 C 356.85 312.29 356.92 305.79 357.12 300.88 C 357.33 295.96 358.08 290.46 358.25 286.38 C 358.42 282.29 357.52 281.94 358.12 276.38 C 358.73 270.81 360.77 257.94 361.88 253.00 C 362.98 248.06 364.29 248.35 364.75 246.75 C 365.21 245.15 364.79 244.29 364.62 243.38 C 364.46 242.46 364.21 242.02 363.75 241.25 C 363.29 240.48 362.77 239.73 361.88 238.75 C 360.98 237.77 359.69 236.48 358.38 235.38 C 357.06 234.27 355.60 233.10 354.00 232.12 C 352.40 231.15 351.21 229.90 348.75 229.50 Z" id="s-14-f-4"/>
<path d="M 333.88 230.75 C 332.62 231.08 333.54 230.69 333.88 231.62 C 334.21 232.56 335.40 233.73 335.88 236.38 C 336.35 239.02 336.58 234.33 336.75 247.50 C 336.92 260.67 336.73 302.42 336.88 315.38 C 337.02 328.33 337.44 323.54 337.62 325.25 C 337.81 326.96 336.90 325.50 338.00 325.62 C 339.10 325.75 340.77 325.96 344.25 326.00 C 347.73 326.04 356.35 325.98 358.88 325.88 C 361.40 325.77 359.52 325.96 359.38 325.38 C 359.23 324.79 358.40 323.96 358.00 322.38 C 357.60 320.79 357.15 319.48 357.00 315.88 C 356.85 312.27 356.92 305.67 357.12 300.75 C 357.33 295.83 358.08 290.42 358.25 286.38 C 358.42 282.33 357.52 282.06 358.12 276.50 C 358.73 270.94 360.79 257.88 361.88 253.00 C 362.96 248.12 364.17 248.85 364.62 247.25 C 365.08 245.65 364.92 244.58 364.62 243.38 C 364.33 242.17 363.92 241.33 362.88 240.00 C 361.83 238.67 360.10 236.85 358.38 235.38 C 356.65 233.90 353.81 231.94 352.50 231.12 C 351.19 230.31 350.98 230.75 350.50 230.50 C 350.02 230.25 351.15 229.77 349.62 229.62 C 348.10 229.48 344.00 229.44 341.38 229.62 C 338.75 229.81 335.12 230.42 333.88 230.75 Z" id="s-14-f-5"/>
<path d="M 349.62 229.62 C 347.77 229.50 341.88 229.56 339.25 229.75 C 336.62 229.94 334.71 230.17 333.88 230.75 C 333.04 231.33 333.94 232.42 334.25 233.25 C 334.56 234.08 335.38 234.10 335.75 235.75 C 336.12 237.40 336.31 236.25 336.50 243.12 C 336.69 250.00 336.73 271.19 336.88 277.00 C 337.02 282.81 334.10 277.83 337.38 278.00 C 340.65 278.17 353.06 278.08 356.50 278.00 C 359.94 277.92 357.10 281.65 358.00 277.50 C 358.90 273.35 360.75 258.21 361.88 253.12 C 363.00 248.04 364.27 248.56 364.75 247.00 C 365.23 245.44 364.92 244.71 364.75 243.75 C 364.58 242.79 364.50 242.35 363.75 241.25 C 363.00 240.15 361.52 238.40 360.25 237.12 C 358.98 235.85 357.42 234.62 356.12 233.62 C 354.83 232.62 353.46 231.65 352.50 231.12 C 351.54 230.60 350.85 230.75 350.38 230.50 C 349.90 230.25 351.48 229.75 349.62 229.62 Z" id="s-14-f-6"/>
</g>
<g id="s-15" clip-path="url(#c-s-15)">
<use href="#s-15-f-0"/>
<path d="M 238.38 375.00 C 237.65 374.60 237.10 374.67 236.38 375.12 C 235.65 375.58 234.96 375.90 234.00 377.75 C 233.04 379.60 232.00 383.35 230.62 386.25 C 229.25 389.15 228.04 391.31 225.75 395.12 C 223.46 398.94 219.83 404.67 216.88 409.12 C 213.92 413.58 209.46 419.58 208.00 421.88 C 206.54 424.17 203.10 422.69 208.12 422.88 C 213.15 423.06 232.83 423.02 238.12 423.00 C 243.42 422.98 239.44 422.98 239.88 422.75 C 240.31 422.52 240.27 422.73 240.75 421.62 C 241.23 420.52 242.10 418.27 242.75 416.12 C 243.40 413.98 244.15 410.98 244.62 408.75 C 245.10 406.52 245.42 405.10 245.62 402.75 C 245.83 400.40 246.04 397.15 245.88 394.62 C 245.71 392.10 245.17 389.79 244.62 387.62 C 244.08 385.46 243.27 383.31 242.62 381.62 C 241.98 379.94 241.46 378.60 240.75 377.50 C 240.04 376.40 239.10 375.40 238.38 375.00 Z" id="s-15-f-1"/>
</g>
<g id="s-16" clip-path="url(#c-s-16)">
<use href="#s-16-f-0"/>
<path d="M 281.00 386.62 C 280.67 387.25 280.71 387.54 280.88 388.75 C 281.04 389.96 280.31 388.65 282.00 393.88 C 283.69 399.10 288.60 413.69 291.00 420.12 C 293.40 426.56 295.12 430.35 296.38 432.50 C 297.62 434.65 294.65 432.96 298.50 433.00 C 302.35 433.04 315.94 434.31 319.50 432.75 C 323.06 431.19 320.02 426.73 319.88 423.62 C 319.73 420.52 319.15 416.73 318.62 414.12 C 318.10 411.52 317.67 410.08 316.75 408.00 C 315.83 405.92 314.29 403.31 313.12 401.62 C 311.96 399.94 311.02 399.10 309.75 397.88 C 308.48 396.65 307.02 395.40 305.50 394.25 C 303.98 393.10 303.10 392.38 300.62 391.00 C 298.15 389.62 293.04 387.02 290.62 386.00 C 288.21 384.98 287.42 385.04 286.12 384.88 C 284.83 384.71 283.73 384.71 282.88 385.00 C 282.02 385.29 281.33 386.00 281.00 386.62 Z" id="s-16-f-1"/>
</g>
<g id="s-17" clip-path="url(#c-s-17)">
<use href="#s-17-f-0"/>
<path d="M 346.62 382.38 C 345.52 382.75 345.27 383.62 345.00 384.25 C 344.73 384.88 342.83 381.27 345.00 386.12 C 347.17 390.98 354.33 406.17 358.00 413.38 C 361.67 420.58 365.08 426.60 367.00 429.38 C 368.92 432.15 365.40 429.94 369.50 430.00 C 373.60 430.06 387.90 430.98 391.62 429.75 C 395.35 428.52 392.02 425.31 391.88 422.62 C 391.73 419.94 391.44 416.54 390.75 413.62 C 390.06 410.71 388.75 407.29 387.75 405.12 C 386.75 402.96 386.31 402.33 384.75 400.62 C 383.19 398.92 380.10 396.31 378.38 394.88 C 376.65 393.44 376.00 392.98 374.38 392.00 C 372.75 391.02 370.60 389.90 368.62 389.00 C 366.65 388.10 364.73 387.62 362.50 386.62 C 360.27 385.62 357.06 383.77 355.25 383.00 C 353.44 382.23 353.06 382.10 351.62 382.00 C 350.19 381.90 347.73 382.00 346.62 382.38 Z" id="s-17-f-1"/>
</g>
<g id="s-18" clip-path="url(#c-s-18)">
<use href="#s-18-f-0"/>
<path d="M 414.00 375.38 C 413.92 375.94 413.81 377.44 414.00 378.38 C 414.19 379.31 413.65 378.85 415.12 381.00 C 416.60 383.15 420.77 388.29 422.88 391.25 C 424.98 394.21 425.06 394.04 427.75 398.75 C 430.44 403.46 436.73 415.48 439.00 419.50 C 441.27 423.52 435.75 422.33 441.38 422.88 C 447.00 423.42 467.52 423.31 472.75 422.75 C 477.98 422.19 473.10 421.10 472.75 419.50 C 472.40 417.90 471.29 414.81 470.62 413.12 C 469.96 411.44 470.10 411.29 468.75 409.38 C 467.40 407.46 464.90 404.19 462.50 401.62 C 460.10 399.06 456.60 395.96 454.38 394.00 C 452.15 392.04 450.98 391.19 449.12 389.88 C 447.27 388.56 446.77 388.10 443.25 386.12 C 439.73 384.15 432.12 379.83 428.00 378.00 C 423.88 376.17 420.75 375.62 418.50 375.12 C 416.25 374.62 415.25 374.96 414.50 375.00 C 413.75 375.04 414.08 374.81 414.00 375.38 Z" id="s-18-f-1"/>
</g>
</svg>