<?xml version="1.0" encoding="UTF-8"?>
<svg xmlns="http://www.w3.org/2000/svg" viewBox="0 0 500 500">
<defs>
<path d="M 147.00 53.00 C 145.02 53.08 145.40 53.56 144.88 53.88 C 144.35 54.19 144.21 54.29 143.88 54.88 C 143.54 55.46 143.02 56.62 142.88 57.38 C 142.73 58.12 142.00 58.10 143.00 59.38 C 144.00 60.65 147.21 63.17 148.88 65.00 C 150.54 66.83 151.85 68.54 153.00 70.38 C 154.15 72.21 154.98 74.00 155.75 76.00 C 156.52 78.00 156.96 79.73 157.62 82.38 C 158.29 85.02 158.85 86.44 159.75 91.88 C 160.65 97.31 161.62 106.15 163.00 115.00 C 164.38 123.85 166.98 139.29 168.00 145.00 C 169.02 150.71 168.62 147.75 169.12 149.25 C 169.62 150.75 170.02 152.00 171.00 154.00 C 171.98 156.00 173.85 159.65 175.00 161.25 C 176.15 162.85 176.81 163.21 177.88 163.62 C 178.94 164.04 180.44 164.00 181.38 163.75 C 182.31 163.50 182.77 162.98 183.50 162.12 C 184.23 161.27 185.00 161.83 185.75 158.62 C 186.50 155.42 188.12 149.62 188.00 142.88 C 187.88 136.12 185.71 125.08 185.00 118.12 C 184.29 111.17 184.40 106.52 183.75 101.12 C 183.10 95.73 181.77 90.81 181.12 85.75 C 180.48 80.69 181.27 75.10 179.88 70.75 C 178.48 66.40 174.48 61.90 172.75 59.62 C 171.02 57.35 172.17 58.17 169.50 57.12 C 166.83 56.08 160.50 54.06 156.75 53.38 C 153.00 52.69 148.98 52.92 147.00 53.00 Z" id="s-0-f-0"/>
<clipPath id="c-s-0"><use href="#s-0-f-0"/></clipPath>
<path d="M 371.88 58.00 C 371.73 57.17 371.58 56.42 370.88 55.38 C 370.17 54.33 370.06 53.67 367.62 51.75 C 365.19 49.83 361.12 46.50 356.25 43.88 C 351.38 41.25 342.33 37.62 338.38 36.00 C 334.42 34.38 334.25 34.48 332.50 34.12 C 330.75 33.77 330.27 33.73 327.88 33.88 C 325.48 34.02 322.50 34.29 318.12 35.00 C 313.75 35.71 309.50 36.33 301.62 38.12 C 293.75 39.92 280.35 43.65 270.88 45.75 C 261.40 47.85 254.85 49.10 244.75 50.75 C 234.65 52.40 222.17 54.29 210.25 55.62 C 198.33 56.96 179.65 58.17 173.25 58.75 C 166.85 59.33 172.17 58.96 171.88 59.12 C 171.58 59.29 171.40 59.52 171.50 59.75 C 171.60 59.98 171.19 58.60 172.50 60.50 C 173.81 62.40 174.31 69.60 179.38 71.12 C 184.44 72.65 195.92 70.19 202.88 69.62 C 209.83 69.06 203.65 70.02 221.12 67.75 C 238.60 65.48 290.90 58.12 307.75 56.00 C 324.60 53.88 319.29 54.96 322.25 55.00 C 325.21 55.04 324.60 55.65 325.50 56.25 C 326.40 56.85 327.06 57.31 327.62 58.62 C 328.19 59.94 328.85 60.33 328.88 64.12 C 328.90 67.92 328.27 76.40 327.75 81.38 C 327.23 86.35 326.56 90.46 325.75 94.00 C 324.94 97.54 324.04 97.98 322.88 102.62 C 321.71 107.27 320.08 116.75 318.75 121.88 C 317.42 127.00 315.88 129.12 314.88 133.38 C 313.88 137.62 313.08 144.71 312.75 147.38 C 312.42 150.04 312.67 148.67 312.88 149.38 C 313.08 150.08 313.19 150.38 314.00 151.62 C 314.81 152.88 316.69 155.71 317.75 156.88 C 318.81 158.04 319.27 158.29 320.38 158.62 C 321.48 158.96 322.96 159.02 324.38 158.88 C 325.79 158.73 327.62 158.27 328.88 157.75 C 330.12 157.23 330.88 156.67 331.88 155.75 C 332.88 154.83 334.06 153.42 334.88 152.25 C 335.69 151.08 333.10 158.96 336.75 148.75 C 340.40 138.54 352.71 102.98 356.75 91.00 C 360.79 79.02 359.58 80.67 361.00 76.88 C 362.42 73.08 363.62 70.69 365.25 68.25 C 366.88 65.81 369.67 63.56 370.75 62.25 C 371.83 60.94 371.56 61.08 371.75 60.38 C 371.94 59.67 372.02 58.83 371.88 58.00 Z" id="s-1-f-0"/>
<clipPath id="c-s-1"><use href="#s-1-f-0"/></clipPath>
<path d="M 326.12 94.38 C 325.98 93.38 325.40 93.44 324.25 92.88 C 323.10 92.31 322.42 91.79 319.25 91.00 C 316.08 90.21 308.42 88.65 305.25 88.12 C 302.08 87.60 304.23 87.29 300.25 87.88 C 296.27 88.46 288.00 90.62 281.38 91.62 C 274.75 92.62 267.67 92.83 260.50 93.88 C 253.33 94.92 251.10 96.21 238.38 97.88 C 225.65 99.54 193.27 102.79 184.12 103.88 C 174.98 104.96 183.56 103.04 183.50 104.38 C 183.44 105.71 183.58 109.90 183.75 111.88 C 183.92 113.85 184.23 115.40 184.50 116.25 C 184.77 117.10 184.52 116.75 185.38 117.00 C 186.23 117.25 186.62 117.62 189.62 117.75 C 192.62 117.88 197.33 118.10 203.38 117.75 C 209.42 117.40 220.40 116.25 225.88 115.62 C 231.35 115.00 233.33 114.29 236.25 114.00 C 239.17 113.71 240.35 114.06 243.38 113.88 C 246.40 113.69 247.38 113.67 254.38 112.88 C 261.38 112.08 275.75 110.17 285.38 109.12 C 295.00 108.08 306.71 107.19 312.12 106.62 C 317.54 106.06 316.04 106.21 317.88 105.75 C 319.71 105.29 322.08 104.46 323.12 103.88 C 324.17 103.29 323.92 102.92 324.12 102.25 C 324.33 101.58 324.21 100.44 324.38 99.88 C 324.54 99.31 324.83 99.79 325.12 98.88 C 325.42 97.96 326.27 95.38 326.12 94.38 Z" id="s-2-f-0"/>
<clipPath id="c-s-2"><use href="#s-2-f-0"/></clipPath>
<path d="M 315.12 134.00 C 314.02 132.90 310.60 131.81 308.50 131.00 C 306.40 130.19 304.96 129.46 302.50 129.12 C 300.04 128.79 298.52 128.52 293.75 129.00 C 288.98 129.48 279.40 131.04 273.88 132.00 C 268.35 132.96 263.44 134.27 260.62 134.75 C 257.81 135.23 260.69 134.35 257.00 134.88 C 253.31 135.40 245.88 136.90 238.50 137.88 C 231.12 138.85 221.19 139.92 212.75 140.75 C 204.31 141.58 192.21 142.10 187.88 142.88 C 183.54 143.65 187.02 143.98 186.75 145.38 C 186.48 146.77 186.44 149.92 186.25 151.25 C 186.06 152.58 185.71 152.46 185.62 153.38 C 185.54 154.29 185.44 156.02 185.75 156.75 C 186.06 157.48 186.50 157.42 187.50 157.75 C 188.50 158.08 189.12 158.58 191.75 158.75 C 194.38 158.92 195.79 159.38 203.25 158.75 C 210.71 158.12 227.94 155.83 236.50 155.00 C 245.06 154.17 246.33 154.58 254.62 153.75 C 262.92 152.92 276.60 150.81 286.25 150.00 C 295.90 149.19 308.00 149.12 312.50 148.88 C 317.00 148.62 313.00 148.96 313.25 148.50 C 313.50 148.04 313.81 147.46 314.00 146.12 C 314.19 144.79 314.19 141.92 314.38 140.50 C 314.56 139.08 315.00 138.71 315.12 137.62 C 315.25 136.54 316.23 135.10 315.12 134.00 Z" id="s-3-f-0"/>
<clipPath id="c-s-3"><use href="#s-3-f-0"/></clipPath>
<path d="M 406.88 186.50 C 406.71 185.54 406.40 184.92 405.75 184.00 C 405.10 183.08 404.04 181.98 403.00 181.00 C 401.96 180.02 400.92 179.12 399.50 178.12 C 398.08 177.12 397.54 176.50 394.50 175.00 C 391.46 173.50 384.02 170.27 381.25 169.12 C 378.48 167.98 379.08 168.33 377.88 168.12 C 376.67 167.92 380.73 167.08 374.00 167.88 C 367.27 168.67 353.10 171.23 337.50 172.88 C 321.90 174.52 292.15 176.88 280.38 177.75 C 268.60 178.62 272.88 177.77 266.88 178.12 C 260.88 178.48 258.44 178.54 244.38 179.88 C 230.31 181.21 196.15 184.65 182.50 186.12 C 168.85 187.60 168.81 188.02 162.50 188.75 C 156.19 189.48 152.92 189.96 144.62 190.50 C 136.33 191.04 118.60 191.56 112.75 192.00 C 106.90 192.44 110.27 192.71 109.50 193.12 C 108.73 193.54 108.40 193.96 108.12 194.50 C 107.85 195.04 107.73 195.77 107.88 196.38 C 108.02 196.98 108.29 197.38 109.00 198.12 C 109.71 198.88 109.48 199.10 112.12 200.88 C 114.77 202.65 121.29 206.79 124.88 208.75 C 128.46 210.71 131.46 211.94 133.62 212.62 C 135.79 213.31 131.42 213.98 137.88 212.88 C 144.33 211.77 162.00 207.81 172.38 206.00 C 182.75 204.19 183.29 203.85 200.12 202.00 C 216.96 200.15 256.06 196.38 273.38 194.88 C 290.69 193.38 293.67 193.48 304.00 193.00 C 314.33 192.52 325.94 192.15 335.38 192.00 C 344.81 191.85 352.29 191.83 360.62 192.12 C 368.96 192.42 378.65 193.48 385.38 193.75 C 392.10 194.02 397.90 193.92 401.00 193.75 C 404.10 193.58 403.23 193.12 404.00 192.75 C 404.77 192.38 405.17 192.00 405.62 191.50 C 406.08 191.00 406.54 190.58 406.75 189.75 C 406.96 188.92 407.04 187.46 406.88 186.50 Z" id="s-4-f-0"/>
<clipPath id="c-s-4"><use href="#s-4-f-0"/></clipPath>
<path d="M 258.38 61.62 C 257.92 61.65 259.23 62.08 257.88 62.25 C 256.52 62.42 251.85 62.42 250.25 62.62 C 248.65 62.83 249.52 63.31 248.25 63.50 C 246.98 63.69 243.90 63.58 242.62 63.75 C 241.35 63.92 241.81 64.35 240.62 64.50 C 239.44 64.65 236.62 64.42 235.50 64.62 C 234.38 64.83 233.67 63.83 233.88 65.75 C 234.08 67.67 235.94 71.08 236.75 76.12 C 237.56 81.17 238.40 85.77 238.75 96.00 C 239.10 106.23 239.04 129.65 238.88 137.50 C 238.71 145.35 237.98 140.92 237.75 143.12 C 237.52 145.33 237.48 148.67 237.50 150.75 C 237.52 152.83 237.81 150.67 237.88 155.62 C 237.94 160.58 237.96 176.21 237.88 180.50 C 237.79 184.79 237.58 180.19 237.38 181.38 C 237.17 182.56 236.75 184.42 236.62 187.62 C 236.50 190.83 236.75 197.15 236.62 200.62 C 236.50 204.10 236.15 203.10 235.88 208.50 C 235.60 213.90 235.15 225.08 235.00 233.00 C 234.85 240.92 234.65 250.65 235.00 256.00 C 235.35 261.35 236.31 262.48 237.12 265.12 C 237.94 267.77 239.06 270.19 239.88 271.88 C 240.69 273.56 241.40 274.44 242.00 275.25 C 242.60 276.06 242.92 276.33 243.50 276.75 C 244.08 277.17 244.65 277.58 245.50 277.75 C 246.35 277.92 247.81 277.90 248.62 277.75 C 249.44 277.60 249.35 277.79 250.38 276.88 C 251.40 275.96 253.52 274.10 254.75 272.25 C 255.98 270.40 256.92 268.44 257.75 265.75 C 258.58 263.06 259.40 267.71 259.75 256.12 C 260.10 244.54 259.79 206.50 259.88 196.25 C 259.96 186.00 260.19 197.27 260.25 194.62 C 260.31 191.98 260.31 183.08 260.25 180.38 C 260.19 177.67 259.94 182.90 259.88 178.38 C 259.81 173.85 259.81 157.56 259.88 153.25 C 259.94 148.94 260.23 157.10 260.25 152.50 C 260.27 147.90 259.85 132.58 260.00 125.62 C 260.15 118.67 260.79 113.50 261.12 110.75 C 261.46 108.00 261.79 110.62 262.00 109.12 C 262.21 107.62 262.19 103.38 262.38 101.75 C 262.56 100.12 263.02 100.96 263.12 99.38 C 263.23 97.79 262.58 95.56 263.00 92.25 C 263.42 88.94 265.15 82.56 265.62 79.50 C 266.10 76.44 265.88 75.06 265.88 73.88 C 265.88 72.69 265.94 73.10 265.62 72.38 C 265.31 71.65 265.04 70.73 264.00 69.50 C 262.96 68.27 260.58 66.04 259.38 65.00 C 258.17 63.96 257.15 63.67 256.75 63.25 C 256.35 62.83 256.35 62.69 257.00 62.50 C 257.65 62.31 260.40 62.27 260.62 62.12 C 260.85 61.98 258.83 61.60 258.38 61.62 Z" id="s-5-f-0"/>
<clipPath id="c-s-5"><use href="#s-5-f-0"/></clipPath>
<path d="M 238.00 181.25 C 237.83 179.48 237.54 180.94 237.12 181.12 C 236.71 181.31 238.38 179.54 235.50 182.38 C 232.62 185.21 223.56 194.21 219.88 198.12 C 216.19 202.04 215.44 203.67 213.38 205.88 C 211.31 208.08 212.40 207.35 207.50 211.38 C 202.60 215.40 190.02 225.42 184.00 230.00 C 177.98 234.58 176.67 235.40 171.38 238.88 C 166.08 242.35 157.23 247.88 152.25 250.88 C 147.27 253.88 144.46 255.06 141.50 256.88 C 138.54 258.69 137.71 259.77 134.50 261.75 C 131.29 263.73 126.58 266.42 122.25 268.75 C 117.92 271.08 112.00 274.06 108.50 275.75 C 105.00 277.44 102.54 278.25 101.25 278.88 C 99.96 279.50 100.71 279.33 100.75 279.50 C 100.79 279.67 100.54 279.83 101.50 279.88 C 102.46 279.92 102.23 280.60 106.50 279.75 C 110.77 278.90 120.85 276.42 127.12 274.75 C 133.40 273.08 139.00 271.42 144.12 269.75 C 149.25 268.08 153.92 266.27 157.88 264.75 C 161.83 263.23 164.00 262.46 167.88 260.62 C 171.75 258.79 176.90 256.06 181.12 253.75 C 185.35 251.44 188.44 249.75 193.25 246.75 C 198.06 243.75 202.88 241.04 210.00 235.75 C 217.12 230.46 231.50 219.56 236.00 215.00 C 240.50 210.44 236.79 211.27 237.00 208.38 C 237.21 205.48 237.06 200.40 237.25 197.62 C 237.44 194.85 238.00 194.48 238.12 191.75 C 238.25 189.02 238.17 183.02 238.00 181.25 Z" id="s-6-f-0"/>
<clipPath id="c-s-6"><use href="#s-6-f-0"/></clipPath>
<path d="M 259.62 205.12 C 259.38 206.88 259.46 213.69 259.50 215.50 C 259.54 217.31 251.23 211.42 259.88 216.00 C 268.52 220.58 295.75 234.38 311.38 243.00 C 327.00 251.62 344.98 262.98 353.62 267.75 C 362.27 272.52 360.46 270.96 363.25 271.62 C 366.04 272.29 368.75 271.94 370.38 271.75 C 372.00 271.56 372.29 270.94 373.00 270.50 C 373.71 270.06 374.00 269.88 374.62 269.12 C 375.25 268.38 376.08 267.69 376.75 266.00 C 377.42 264.31 378.31 261.65 378.62 259.00 C 378.94 256.35 379.19 252.25 378.62 250.12 C 378.06 248.00 377.04 247.75 375.25 246.25 C 373.46 244.75 371.56 243.17 367.88 241.12 C 364.19 239.08 358.92 236.50 353.12 234.00 C 347.33 231.50 348.48 230.96 333.12 226.12 C 317.77 221.29 273.25 208.50 261.00 205.00 C 248.75 201.50 259.88 203.38 259.62 205.12 Z" id="s-7-f-0"/>
<clipPath id="c-s-7"><use href="#s-7-f-0"/></clipPath>
<path d="M 228.88 285.25 C 227.79 283.77 226.62 282.08 224.25 279.88 C 221.88 277.67 216.94 273.65 214.62 272.00 C 212.31 270.35 211.62 270.33 210.38 270.00 C 209.12 269.67 207.92 269.88 207.12 270.00 C 206.33 270.12 206.15 270.25 205.62 270.75 C 205.10 271.25 204.50 271.90 204.00 273.00 C 203.50 274.10 203.33 275.73 202.62 277.38 C 201.92 279.02 202.12 279.52 199.75 282.88 C 197.38 286.23 191.29 293.96 188.38 297.50 C 185.46 301.04 185.42 300.96 182.25 304.12 C 179.08 307.29 175.75 310.88 169.38 316.50 C 163.00 322.12 152.19 331.31 144.00 337.88 C 135.81 344.44 126.88 351.08 120.25 355.88 C 113.62 360.67 110.79 362.67 104.25 366.62 C 97.71 370.58 87.67 376.08 81.00 379.62 C 74.33 383.17 69.46 385.44 64.25 387.88 C 59.04 390.31 52.21 393.00 49.75 394.25 C 47.29 395.50 48.12 394.96 49.50 395.38 C 50.88 395.79 55.17 396.52 58.00 396.75 C 60.83 396.98 63.12 397.10 66.50 396.75 C 69.88 396.40 73.92 395.62 78.25 394.62 C 82.58 393.62 87.85 392.23 92.50 390.75 C 97.15 389.27 102.35 387.27 106.12 385.75 C 109.90 384.23 111.73 383.29 115.12 381.62 C 118.52 379.96 122.02 378.25 126.50 375.75 C 130.98 373.25 134.73 371.58 142.00 366.62 C 149.27 361.67 162.56 351.83 170.12 346.00 C 177.69 340.17 181.31 337.04 187.38 331.62 C 193.44 326.21 199.98 318.96 206.50 313.50 C 213.02 308.04 222.65 301.88 226.50 298.88 C 230.35 295.88 228.90 296.56 229.62 295.50 C 230.35 294.44 230.69 293.62 230.88 292.50 C 231.06 291.38 231.08 289.96 230.75 288.75 C 230.42 287.54 229.96 286.73 228.88 285.25 Z" id="s-8-f-0"/>
<clipPath id="c-s-8"><use href="#s-8-f-0"/></clipPath>
<path d="M 187.75 330.62 C 186.50 329.92 187.29 330.42 186.88 330.75 C 186.46 331.08 188.12 330.21 185.25 332.62 C 182.38 335.04 171.92 342.21 169.62 345.25 C 167.33 348.29 170.98 348.96 171.50 350.88 C 172.02 352.79 172.40 354.38 172.75 356.75 C 173.10 359.12 173.46 359.96 173.62 365.12 C 173.79 370.29 173.88 380.33 173.75 387.75 C 173.62 395.17 173.38 403.04 172.88 409.62 C 172.38 416.21 171.42 423.46 170.75 427.25 C 170.08 431.04 169.75 430.94 168.88 432.38 C 168.00 433.81 166.31 434.88 165.50 435.88 C 164.69 436.88 164.25 437.21 164.00 438.38 C 163.75 439.54 163.50 440.58 164.00 442.88 C 164.50 445.17 165.81 449.27 167.00 452.12 C 168.19 454.98 169.77 458.06 171.12 460.00 C 172.48 461.94 173.90 462.94 175.12 463.75 C 176.35 464.56 177.35 464.71 178.50 464.88 C 179.65 465.04 181.02 464.94 182.00 464.75 C 182.98 464.56 183.06 464.62 184.38 463.75 C 185.69 462.88 184.92 464.56 189.88 459.50 C 194.83 454.44 202.71 445.02 214.12 433.38 C 225.54 421.73 250.10 398.06 258.38 389.62 C 266.65 381.19 262.50 384.73 263.75 382.75 C 265.00 380.77 265.54 378.92 265.88 377.75 C 266.21 376.58 265.90 376.21 265.75 375.75 C 265.60 375.29 265.44 375.12 265.00 375.00 C 264.56 374.88 268.44 371.42 263.12 375.00 C 257.81 378.58 242.10 390.21 233.12 396.50 C 224.15 402.79 214.67 409.23 209.25 412.75 C 203.83 416.27 202.35 416.79 200.62 417.62 C 198.90 418.46 199.40 417.85 198.88 417.75 C 198.35 417.65 197.98 417.65 197.50 417.00 C 197.02 416.35 196.08 421.35 196.00 413.88 C 195.92 406.40 196.50 381.79 197.00 372.12 C 197.50 362.46 198.21 360.06 199.00 355.88 C 199.79 351.69 201.29 348.92 201.75 347.00 C 202.21 345.08 202.12 345.52 201.75 344.38 C 201.38 343.23 200.73 341.69 199.50 340.12 C 198.27 338.56 196.33 336.58 194.38 335.00 C 192.42 333.42 189.00 331.33 187.75 330.62 Z" id="s-9-f-0"/>
<clipPath id="c-s-9"><use href="#s-9-f-0"/></clipPath>
<path d="M 368.88 300.12 C 367.56 298.67 364.08 295.23 362.00 293.38 C 359.92 291.52 357.92 290.08 356.38 289.00 C 354.83 287.92 355.08 288.02 352.75 286.88 C 350.42 285.73 344.79 282.90 342.38 282.12 C 339.96 281.35 339.15 282.04 338.25 282.25 C 337.35 282.46 337.94 281.42 337.00 283.38 C 336.06 285.33 334.67 290.06 332.62 294.00 C 330.58 297.94 328.85 301.00 324.75 307.00 C 320.65 313.00 311.94 324.81 308.00 330.00 C 304.06 335.19 303.56 335.42 301.12 338.12 C 298.69 340.83 294.67 344.67 293.38 346.25 C 292.08 347.83 292.58 346.85 293.38 347.62 C 294.17 348.40 292.60 353.02 298.12 350.88 C 303.65 348.73 317.67 339.94 326.50 334.75 C 335.33 329.56 344.52 323.94 351.12 319.75 C 357.73 315.56 363.31 311.60 366.12 309.62 C 368.94 307.65 367.40 308.65 368.00 307.88 C 368.60 307.10 369.44 305.96 369.75 305.00 C 370.06 304.04 370.02 302.94 369.88 302.12 C 369.73 301.31 370.19 301.58 368.88 300.12 Z" id="s-10-f-0"/>
<clipPath id="c-s-10"><use href="#s-10-f-0"/></clipPath>
<path d="M 241.75 314.50 C 241.19 315.44 240.94 317.52 241.00 318.62 C 241.06 319.73 241.65 320.35 242.12 321.12 C 242.60 321.90 229.21 308.27 243.88 323.25 C 258.54 338.23 312.79 393.52 330.12 411.00 C 347.46 428.48 343.62 424.15 347.88 428.12 C 352.12 432.10 353.60 433.27 355.62 434.88 C 357.65 436.48 358.54 436.96 360.00 437.75 C 361.46 438.54 363.00 439.15 364.38 439.62 C 365.75 440.10 366.06 440.27 368.25 440.62 C 370.44 440.98 372.62 441.58 377.50 441.75 C 382.38 441.92 391.58 441.98 397.50 441.62 C 403.42 441.27 405.38 441.10 413.00 439.62 C 420.62 438.15 437.46 434.21 443.25 432.75 C 449.04 431.29 446.67 431.50 447.75 430.88 C 448.83 430.25 449.40 429.48 449.75 429.00 C 450.10 428.52 449.96 428.31 449.88 428.00 C 449.79 427.69 450.02 427.60 449.25 427.12 C 448.48 426.65 453.83 428.23 445.25 425.12 C 436.67 422.02 410.02 413.10 397.75 408.50 C 385.48 403.90 378.21 400.46 371.62 397.50 C 365.04 394.54 361.77 392.67 358.25 390.75 C 354.73 388.83 352.60 387.17 350.50 386.00 C 348.40 384.83 348.17 385.12 345.62 383.75 C 343.08 382.38 340.62 381.23 335.25 377.75 C 329.88 374.27 319.40 367.21 313.38 362.88 C 307.35 358.54 302.21 354.27 299.12 351.75 C 296.04 349.23 296.06 348.69 294.88 347.75 C 293.69 346.81 298.67 351.60 292.00 346.12 C 285.33 340.65 261.85 320.40 254.88 314.88 C 247.90 309.35 251.88 313.31 250.12 313.00 C 248.38 312.69 245.77 312.75 244.38 313.00 C 242.98 313.25 242.31 313.56 241.75 314.50 Z" id="s-11-f-0"/>
<clipPath id="c-s-11"><use href="#s-11-f-0"/></clipPath>
</defs>
<g id="s-0" clip-path="url(#c-s-0)">
<use href="#s-0-f-0"/>
<path d="M 144.88 53.88 C 144.10 54.38 143.71 55.29 143.38 55.88 C 143.04 56.46 142.94 56.79 142.88 57.38 C 142.81 57.96 142.00 58.10 143.00 59.38 C 144.00 60.65 147.10 63.00 148.88 65.00 C 150.65 67.00 152.48 69.54 153.62 71.38 C 154.77 73.21 154.92 73.50 155.75 76.00 C 156.58 78.50 157.79 82.75 158.62 86.38 C 159.46 90.00 160.02 92.98 160.75 97.75 C 161.48 102.52 161.65 106.58 163.00 115.00 C 164.35 123.42 167.79 142.60 168.88 148.25 C 169.96 153.90 166.52 148.79 169.50 148.88 C 172.48 148.96 183.79 148.85 186.75 148.75 C 189.71 148.65 187.04 149.00 187.25 148.25 C 187.46 147.50 187.92 145.69 188.00 144.25 C 188.08 142.81 188.25 143.98 187.75 139.62 C 187.25 135.27 185.67 124.54 185.00 118.12 C 184.33 111.71 184.40 106.52 183.75 101.12 C 183.10 95.73 181.79 90.88 181.12 85.75 C 180.46 80.62 181.15 74.73 179.75 70.38 C 178.35 66.02 174.46 61.83 172.75 59.62 C 171.04 57.42 171.58 58.04 169.50 57.12 C 167.42 56.21 162.60 54.79 160.25 54.12 C 157.90 53.46 157.42 53.33 155.38 53.12 C 153.33 52.92 149.75 52.75 148.00 52.88 C 146.25 53.00 145.65 53.38 144.88 53.88 Z" id="s-0-f-1"/>
<path d="M 144.88 53.88 C 144.04 54.52 143.31 55.83 143.00 56.75 C 142.69 57.67 141.71 57.65 143.00 59.38 C 144.29 61.10 148.79 64.75 150.75 67.12 C 152.71 69.50 153.44 70.42 154.75 73.62 C 156.06 76.83 157.58 81.92 158.62 86.38 C 159.67 90.83 160.27 97.94 161.00 100.38 C 161.73 102.81 159.31 100.92 163.00 101.00 C 166.69 101.08 179.69 101.04 183.12 100.88 C 186.56 100.71 183.96 102.52 183.62 100.00 C 183.29 97.48 181.75 90.62 181.12 85.75 C 180.50 80.88 181.27 75.10 179.88 70.75 C 178.48 66.40 174.52 61.92 172.75 59.62 C 170.98 57.33 171.92 58.04 169.25 57.00 C 166.58 55.96 160.29 54.06 156.75 53.38 C 153.21 52.69 149.98 52.79 148.00 52.88 C 146.02 52.96 145.71 53.23 144.88 53.88 Z" id="s-0-f-2"/>
</g>
<g id="s-1" clip-path="url(#c-s-1)">
<use href="#s-1-f-0"/>
<path d="M 371.88 58.00 C 371.73 57.17 371.58 56.42 370.88 55.38 C 370.17 54.33 368.98 52.98 367.62 51.75 C 366.27 50.52 364.62 49.29 362.75 48.00 C 360.88 46.71 360.38 45.98 356.38 44.00 C 352.38 42.02 342.73 37.77 338.75 36.12 C 334.77 34.48 334.31 34.50 332.50 34.12 C 330.69 33.75 330.27 33.73 327.88 33.88 C 325.48 34.02 322.50 34.29 318.12 35.00 C 313.75 35.71 309.38 36.35 301.62 38.12 C 293.88 39.90 280.96 43.54 271.62 45.62 C 262.29 47.71 255.85 48.96 245.62 50.62 C 235.40 52.29 222.31 54.27 210.25 55.62 C 198.19 56.98 179.65 58.17 173.25 58.75 C 166.85 59.33 172.17 58.96 171.88 59.12 C 171.58 59.29 171.40 59.52 171.50 59.75 C 171.60 59.98 171.19 58.60 172.50 60.50 C 173.81 62.40 174.31 69.60 179.38 71.12 C 184.44 72.65 195.92 70.19 202.88 69.62 C 209.83 69.06 203.65 70.02 221.12 67.75 C 238.60 65.48 292.19 58.00 307.75 56.00 C 323.31 54.00 312.52 55.92 314.50 55.75 C 316.48 55.58 318.33 55.12 319.62 55.00 C 320.92 54.88 321.38 54.85 322.25 55.00 C 323.12 55.15 323.98 55.27 324.88 55.88 C 325.77 56.48 326.98 57.46 327.62 58.62 C 328.27 59.79 328.58 60.73 328.75 62.88 C 328.92 65.02 328.79 68.42 328.62 71.50 C 328.46 74.58 328.23 77.62 327.75 81.38 C 327.27 85.12 326.56 90.46 325.75 94.00 C 324.94 97.54 323.71 99.31 322.88 102.62 C 322.04 105.94 321.77 109.54 320.75 113.88 C 319.73 118.21 317.71 125.46 316.75 128.62 C 315.79 131.79 315.48 131.17 315.00 132.88 C 314.52 134.58 313.90 137.69 313.88 138.88 C 313.85 140.06 310.81 139.81 314.88 140.00 C 318.94 140.19 334.10 140.06 338.25 140.00 C 342.40 139.94 336.67 147.79 339.75 139.62 C 342.83 131.46 353.38 101.00 356.75 91.00 C 360.12 81.00 359.10 82.46 360.00 79.62 C 360.90 76.79 361.27 75.85 362.12 74.00 C 362.98 72.15 363.69 70.46 365.12 68.50 C 366.56 66.54 369.65 63.60 370.75 62.25 C 371.85 60.90 371.56 61.08 371.75 60.38 C 371.94 59.67 372.02 58.83 371.88 58.00 Z" id="s-1-f-1"/>
<path d="M 371.88 58.00 C 371.73 57.17 371.58 56.42 370.88 55.38 C 370.17 54.33 368.98 52.98 367.62 51.75 C 366.27 50.52 364.62 49.29 362.75 48.00 C 360.88 46.71 360.38 45.98 356.38 44.00 C 352.38 42.02 342.62 37.75 338.75 36.12 C 334.88 34.50 334.94 34.62 333.12 34.25 C 331.31 33.88 330.35 33.75 327.88 33.88 C 325.40 34.00 322.62 34.29 318.25 35.00 C 313.88 35.71 309.40 36.35 301.62 38.12 C 293.85 39.90 280.96 43.54 271.62 45.62 C 262.29 47.71 255.85 48.96 245.62 50.62 C 235.40 52.29 222.31 54.27 210.25 55.62 C 198.19 56.98 179.65 58.17 173.25 58.75 C 166.85 59.33 172.17 58.96 171.88 59.12 C 171.58 59.29 171.40 59.52 171.50 59.75 C 171.60 59.98 171.19 58.60 172.50 60.50 C 173.81 62.40 174.10 69.62 179.38 71.12 C 184.65 72.62 197.17 70.06 204.12 69.50 C 211.08 68.94 205.29 69.83 221.12 67.75 C 236.96 65.67 282.71 59.12 299.12 57.00 C 315.54 54.88 315.65 55.31 319.62 55.00 C 323.60 54.69 322.02 54.92 323.00 55.12 C 323.98 55.33 324.73 55.67 325.50 56.25 C 326.27 56.83 327.06 57.31 327.62 58.62 C 328.19 59.94 328.85 60.33 328.88 64.12 C 328.90 67.92 328.19 76.79 327.75 81.38 C 327.31 85.96 326.15 89.85 326.25 91.62 C 326.35 93.40 323.77 91.94 328.38 92.00 C 332.98 92.06 349.19 92.08 353.88 92.00 C 358.56 91.92 355.12 94.50 356.50 91.50 C 357.88 88.50 360.69 77.83 362.12 74.00 C 363.56 70.17 363.69 70.46 365.12 68.50 C 366.56 66.54 369.65 63.60 370.75 62.25 C 371.85 60.90 371.56 61.08 371.75 60.38 C 371.94 59.67 372.02 58.83 371.88 58.00 Z" id="s-1-f-2"/>
<path d="M 355.25 43.50 C 354.08 42.77 351.29 41.42 348.00 40.00 C 344.71 38.58 338.15 36.00 335.50 35.00 C 332.85 34.00 333.81 34.17 332.12 34.00 C 330.44 33.83 330.46 33.31 325.38 34.00 C 320.29 34.69 310.71 36.17 301.62 38.12 C 292.54 40.08 280.35 43.65 270.88 45.75 C 261.40 47.85 254.85 49.10 244.75 50.75 C 234.65 52.40 222.19 54.29 210.25 55.62 C 198.31 56.96 179.52 58.17 173.12 58.75 C 166.73 59.33 172.15 58.96 171.88 59.12 C 171.60 59.29 171.40 59.52 171.50 59.75 C 171.60 59.98 171.19 58.60 172.50 60.50 C 173.81 62.40 174.10 69.62 179.38 71.12 C 184.65 72.62 194.60 70.38 204.12 69.50 C 213.65 68.62 220.98 67.92 236.50 65.88 C 252.02 63.83 283.02 59.10 297.25 57.25 C 311.48 55.40 312.25 56.90 321.88 54.75 C 331.50 52.60 349.44 46.25 355.00 44.38 C 360.56 42.50 356.42 44.23 355.25 43.50 Z" id="s-1-f-3"/>
<path d="M 315.88 36.12 C 315.69 33.06 317.15 35.44 314.88 35.75 C 312.60 36.06 307.38 36.83 302.25 38.00 C 297.12 39.17 290.12 41.29 284.12 42.75 C 278.12 44.21 273.83 45.25 266.25 46.75 C 258.67 48.25 247.96 50.27 238.62 51.75 C 229.29 53.23 221.15 54.46 210.25 55.62 C 199.35 56.79 179.65 58.17 173.25 58.75 C 166.85 59.33 172.17 58.96 171.88 59.12 C 171.58 59.29 171.40 59.52 171.50 59.75 C 171.60 59.98 171.19 58.60 172.50 60.50 C 173.81 62.40 174.33 69.60 179.38 71.12 C 184.42 72.65 195.75 70.19 202.75 69.62 C 209.75 69.06 205.31 69.85 221.38 67.75 C 237.44 65.65 283.42 59.10 299.12 57.00 C 314.83 54.90 312.81 55.60 315.62 55.12 C 318.44 54.65 315.96 57.29 316.00 54.12 C 316.04 50.96 316.06 39.19 315.88 36.12 Z" id="s-1-f-4"/>
<path d="M 267.88 46.88 C 267.71 44.62 270.71 45.75 267.00 46.38 C 263.29 47.00 253.65 49.25 245.62 50.62 C 237.60 52.00 228.19 53.46 218.88 54.62 C 209.56 55.79 197.54 56.90 189.75 57.62 C 181.96 58.35 175.17 58.65 172.12 59.00 C 169.08 59.35 171.44 59.50 171.50 59.75 C 171.56 60.00 171.19 58.60 172.50 60.50 C 173.81 62.40 174.33 69.60 179.38 71.12 C 184.42 72.65 193.23 70.50 202.75 69.62 C 212.27 68.75 225.69 67.27 236.50 65.88 C 247.31 64.48 262.38 62.25 267.62 61.25 C 272.88 60.25 267.96 62.27 268.00 59.88 C 268.04 57.48 268.04 49.12 267.88 46.88 Z" id="s-1-f-5"/>
<path d="M 219.88 67.50 C 222.75 65.21 220.08 58.04 220.00 55.88 C 219.92 53.71 224.42 54.21 219.38 54.50 C 214.33 54.79 197.25 56.94 189.75 57.62 C 182.25 58.31 177.42 58.31 174.38 58.62 C 171.33 58.94 170.67 57.42 171.50 59.50 C 172.33 61.58 174.17 69.44 179.38 71.12 C 184.58 72.81 196.00 70.23 202.75 69.62 C 209.50 69.02 217.00 69.79 219.88 67.50 Z" id="s-1-f-6"/>
</g>
<g id="s-2" clip-path="url(#c-s-2)">
<use href="#s-2-f-0"/>
<path d="M 279.88 92.25 C 279.69 89.44 279.42 91.79 278.38 91.88 C 277.33 91.96 276.46 92.44 273.62 92.75 C 270.79 93.06 267.23 92.90 261.38 93.75 C 255.52 94.60 251.38 96.19 238.50 97.88 C 225.62 99.56 193.29 102.79 184.12 103.88 C 174.96 104.96 183.44 102.31 183.50 104.38 C 183.56 106.44 184.19 114.15 184.50 116.25 C 184.81 118.35 184.56 116.75 185.38 117.00 C 186.19 117.25 186.33 117.62 189.38 117.75 C 192.42 117.88 197.54 118.10 203.62 117.75 C 209.71 117.40 220.44 116.25 225.88 115.62 C 231.31 115.00 233.33 114.29 236.25 114.00 C 239.17 113.71 236.40 114.52 243.38 113.88 C 250.35 113.23 272.21 110.79 278.12 110.12 C 284.04 109.46 278.65 110.10 278.88 109.88 C 279.10 109.65 279.33 111.69 279.50 108.75 C 279.67 105.81 280.06 95.06 279.88 92.25 Z" id="s-2-f-1"/>
<path d="M 231.75 99.00 C 230.92 97.19 234.94 98.19 227.00 99.00 C 219.06 99.81 191.38 102.98 184.12 103.88 C 176.88 104.77 183.44 102.31 183.50 104.38 C 183.56 106.44 184.19 114.15 184.50 116.25 C 184.81 118.35 184.56 116.75 185.38 117.00 C 186.19 117.25 186.33 117.62 189.38 117.75 C 192.42 117.88 196.56 118.27 203.62 117.75 C 210.69 117.23 227.02 115.94 231.75 114.62 C 236.48 113.31 232.00 112.48 232.00 109.88 C 232.00 107.27 232.58 100.81 231.75 99.00 Z" id="s-2-f-2"/>
</g>
<g id="s-3" clip-path="url(#c-s-3)">
<use href="#s-3-f-0"/>
<path d="M 282.00 131.38 C 281.69 128.19 283.56 130.44 280.00 131.00 C 276.44 131.56 264.46 134.10 260.62 134.75 C 256.79 135.40 260.69 134.35 257.00 134.88 C 253.31 135.40 245.88 136.90 238.50 137.88 C 231.12 138.85 221.19 139.92 212.75 140.75 C 204.31 141.58 192.21 142.10 187.88 142.88 C 183.54 143.65 187.12 143.60 186.75 145.38 C 186.38 147.15 185.79 151.60 185.62 153.50 C 185.46 155.40 185.44 156.04 185.75 156.75 C 186.06 157.46 186.48 157.42 187.50 157.75 C 188.52 158.08 188.88 158.60 191.88 158.75 C 194.88 158.90 198.06 159.25 205.50 158.62 C 212.94 158.00 228.52 155.79 236.50 155.00 C 244.48 154.21 245.94 154.58 253.38 153.88 C 260.81 153.17 276.38 151.38 281.12 150.75 C 285.88 150.12 281.73 153.35 281.88 150.12 C 282.02 146.90 282.31 134.56 282.00 131.38 Z" id="s-3-f-1"/>
<path d="M 233.88 138.88 C 233.67 136.31 236.29 138.06 232.75 138.38 C 229.21 138.69 220.10 140.00 212.62 140.75 C 205.15 141.50 192.19 142.10 187.88 142.88 C 183.56 143.65 186.98 144.17 186.75 145.38 C 186.52 146.58 186.69 148.77 186.50 150.12 C 186.31 151.48 185.75 152.40 185.62 153.50 C 185.50 154.60 185.44 156.04 185.75 156.75 C 186.06 157.46 186.46 157.42 187.50 157.75 C 188.54 158.08 189.94 158.56 192.00 158.75 C 194.06 158.94 193.00 159.40 199.88 158.88 C 206.75 158.35 227.56 156.48 233.25 155.62 C 238.94 154.77 233.90 156.54 234.00 153.75 C 234.10 150.96 234.08 141.44 233.88 138.88 Z" id="s-3-f-2"/>
</g>
<g id="s-4" clip-path="url(#c-s-4)">
<use href="#s-4-f-0"/>
<path d="M 396.00 177.50 C 395.96 174.58 396.00 176.42 395.75 176.00 C 395.50 175.58 395.73 175.67 394.50 175.00 C 393.27 174.33 391.00 173.10 388.38 172.00 C 385.75 170.90 381.15 169.06 378.75 168.38 C 376.35 167.69 380.88 167.12 374.00 167.88 C 367.12 168.62 353.10 171.23 337.50 172.88 C 321.90 174.52 292.15 176.88 280.38 177.75 C 268.60 178.62 272.88 177.77 266.88 178.12 C 260.88 178.48 258.44 178.54 244.38 179.88 C 230.31 181.21 196.15 184.65 182.50 186.12 C 168.85 187.60 168.81 188.02 162.50 188.75 C 156.19 189.48 152.92 189.96 144.62 190.50 C 136.33 191.04 118.60 191.56 112.75 192.00 C 106.90 192.44 110.27 192.71 109.50 193.12 C 108.73 193.54 108.40 193.96 108.12 194.50 C 107.85 195.04 107.73 195.77 107.88 196.38 C 108.02 196.98 108.29 197.38 109.00 198.12 C 109.71 198.88 109.48 199.10 112.12 200.88 C 114.77 202.65 121.29 206.79 124.88 208.75 C 128.46 210.71 131.46 211.94 133.62 212.62 C 135.79 213.31 131.42 213.98 137.88 212.88 C 144.33 211.77 162.00 207.81 172.38 206.00 C 182.75 204.19 183.29 203.85 200.12 202.00 C 216.96 200.15 256.06 196.38 273.38 194.88 C 290.69 193.38 293.67 193.48 304.00 193.00 C 314.33 192.52 325.94 192.15 335.38 192.00 C 344.81 191.85 352.29 191.83 360.62 192.12 C 368.96 192.42 379.58 193.46 385.38 193.75 C 391.17 194.04 393.60 193.92 395.38 193.88 C 397.15 193.83 395.90 196.23 396.00 193.50 C 396.10 190.77 396.04 180.42 396.00 177.50 Z" id="s-4-f-1"/>
<path d="M 347.88 172.00 C 347.65 168.69 348.35 171.35 346.62 171.50 C 344.90 171.65 348.54 171.83 337.50 172.88 C 326.46 173.92 292.15 176.88 280.38 177.75 C 268.60 178.62 272.88 177.77 266.88 178.12 C 260.88 178.48 258.44 178.54 244.38 179.88 C 230.31 181.21 199.08 184.35 182.50 186.12 C 165.92 187.90 156.50 189.52 144.88 190.50 C 133.25 191.48 118.65 191.56 112.75 192.00 C 106.85 192.44 110.27 192.71 109.50 193.12 C 108.73 193.54 108.40 193.94 108.12 194.50 C 107.85 195.06 107.46 195.62 107.88 196.50 C 108.29 197.38 109.69 198.85 110.62 199.75 C 111.56 200.65 110.54 200.06 113.50 201.88 C 116.46 203.69 124.92 208.81 128.38 210.62 C 131.83 212.44 132.38 212.40 134.25 212.75 C 136.12 213.10 135.96 213.38 139.62 212.75 C 143.29 212.12 150.79 210.12 156.25 209.00 C 161.71 207.88 165.06 207.17 172.38 206.00 C 179.69 204.83 192.73 202.98 200.12 202.00 C 207.52 201.02 212.71 200.50 216.75 200.12 C 220.79 199.75 217.10 200.46 224.38 199.75 C 231.65 199.04 250.08 196.83 260.38 195.88 C 270.67 194.92 275.35 194.60 286.12 194.00 C 296.90 193.40 314.85 192.60 325.00 192.25 C 335.15 191.90 343.17 192.02 347.00 191.88 C 350.83 191.73 347.85 194.69 348.00 191.38 C 348.15 188.06 348.10 175.31 347.88 172.00 Z" id="s-4-f-2"/>
<path d="M 299.62 177.12 C 299.48 174.52 299.48 176.31 299.12 176.12 C 298.77 175.94 300.62 175.73 297.50 176.00 C 294.38 176.27 287.60 177.25 280.38 177.75 C 273.15 178.25 267.27 177.94 254.12 179.00 C 240.98 180.06 219.71 182.21 201.50 184.12 C 183.29 186.04 159.67 189.19 144.88 190.50 C 130.08 191.81 118.65 191.56 112.75 192.00 C 106.85 192.44 110.27 192.71 109.50 193.12 C 108.73 193.54 108.40 193.94 108.12 194.50 C 107.85 195.06 107.46 195.62 107.88 196.50 C 108.29 197.38 109.69 198.85 110.62 199.75 C 111.56 200.65 110.81 200.21 113.50 201.88 C 116.19 203.54 123.40 207.96 126.75 209.75 C 130.10 211.54 131.48 212.12 133.62 212.62 C 135.77 213.12 134.00 213.71 139.62 212.75 C 145.25 211.79 157.29 208.67 167.38 206.88 C 177.46 205.08 185.54 203.69 200.12 202.00 C 214.71 200.31 244.83 197.77 254.88 196.75 C 264.92 195.73 252.96 196.44 260.38 195.88 C 267.79 195.31 292.77 194.06 299.38 193.38 C 305.98 192.69 299.96 194.46 300.00 191.75 C 300.04 189.04 299.77 179.73 299.62 177.12 Z" id="s-4-f-3"/>
<path d="M 251.88 179.88 C 251.79 177.21 252.75 179.50 251.50 179.50 C 250.25 179.50 248.40 179.48 244.38 179.88 C 240.35 180.27 232.73 181.35 227.38 181.88 C 222.02 182.40 226.00 181.56 212.25 183.00 C 198.50 184.44 161.46 189.00 144.88 190.50 C 128.29 192.00 118.65 191.56 112.75 192.00 C 106.85 192.44 110.27 192.71 109.50 193.12 C 108.73 193.54 108.40 193.94 108.12 194.50 C 107.85 195.06 107.46 195.62 107.88 196.50 C 108.29 197.38 109.69 198.85 110.62 199.75 C 111.56 200.65 110.81 200.21 113.50 201.88 C 116.19 203.54 123.40 207.96 126.75 209.75 C 130.10 211.54 131.48 212.12 133.62 212.62 C 135.77 213.12 135.21 213.48 139.62 212.75 C 144.04 212.02 152.54 209.71 160.12 208.25 C 167.71 206.79 175.69 205.35 185.12 204.00 C 194.56 202.65 210.21 200.83 216.75 200.12 C 223.29 199.42 218.62 200.27 224.38 199.75 C 230.12 199.23 246.67 197.54 251.25 197.00 C 255.83 196.46 251.75 196.75 251.88 196.50 C 252.00 196.25 252.00 198.27 252.00 195.50 C 252.00 192.73 251.96 182.54 251.88 179.88 Z" id="s-4-f-4"/>
<path d="M 204.00 185.50 C 203.96 182.85 204.00 184.50 203.75 184.25 C 203.50 184.00 212.35 182.96 202.50 184.00 C 192.65 185.04 159.52 189.17 144.62 190.50 C 129.73 191.83 118.98 191.56 113.12 192.00 C 107.27 192.44 110.33 192.71 109.50 193.12 C 108.67 193.54 108.40 193.94 108.12 194.50 C 107.85 195.06 107.46 195.62 107.88 196.50 C 108.29 197.38 109.69 198.85 110.62 199.75 C 111.56 200.65 110.81 200.21 113.50 201.88 C 116.19 203.54 123.40 207.96 126.75 209.75 C 130.10 211.54 131.48 212.12 133.62 212.62 C 135.77 213.12 135.85 213.35 139.62 212.75 C 143.40 212.15 150.79 210.12 156.25 209.00 C 161.71 207.88 164.50 207.21 172.38 206.00 C 180.25 204.79 198.23 202.73 203.50 201.75 C 208.77 200.77 203.92 202.83 204.00 200.12 C 204.08 197.42 204.04 188.15 204.00 185.50 Z" id="s-4-f-5"/>
<path d="M 155.88 208.62 C 156.04 205.58 156.00 194.38 156.00 191.25 C 156.00 188.12 156.00 190.19 155.88 189.88 C 155.75 189.56 157.96 189.21 155.25 189.38 C 152.54 189.54 146.65 190.44 139.62 190.88 C 132.60 191.31 118.08 191.67 113.12 192.00 C 108.17 192.33 110.75 192.33 109.88 192.88 C 109.00 193.42 108.15 194.52 107.88 195.25 C 107.60 195.98 107.31 196.15 108.25 197.25 C 109.19 198.35 110.46 199.81 113.50 201.88 C 116.54 203.94 123.15 207.83 126.50 209.62 C 129.85 211.42 131.29 212.12 133.62 212.62 C 135.96 213.12 136.94 213.15 140.50 212.62 C 144.06 212.10 152.44 210.17 155.00 209.50 C 157.56 208.83 155.71 211.67 155.88 208.62 Z" id="s-4-f-6"/>
</g>
<g id="s-5" clip-path="url(#c-s-5)">
<use href="#s-5-f-0"/>
<path d="M 260.38 61.75 C 260.00 61.67 258.79 61.54 258.38 61.62 C 257.96 61.71 259.23 62.08 257.88 62.25 C 256.52 62.42 251.73 62.44 250.25 62.62 C 248.77 62.81 250.12 63.21 249.00 63.38 C 247.88 63.54 244.90 63.44 243.50 63.62 C 242.10 63.81 241.96 64.33 240.62 64.50 C 239.29 64.67 236.62 64.42 235.50 64.62 C 234.38 64.83 233.67 63.83 233.88 65.75 C 234.08 67.67 235.94 71.08 236.75 76.12 C 237.56 81.17 238.40 85.77 238.75 96.00 C 239.10 106.23 239.06 129.40 238.88 137.50 C 238.69 145.60 237.79 137.46 237.62 144.62 C 237.46 151.79 237.92 174.38 237.88 180.50 C 237.83 186.62 237.58 180.19 237.38 181.38 C 237.17 182.56 236.75 184.42 236.62 187.62 C 236.50 190.83 236.75 197.15 236.62 200.62 C 236.50 204.10 236.12 203.77 235.88 208.50 C 235.62 213.23 235.29 221.88 235.12 229.00 C 234.96 236.12 234.83 246.94 234.88 251.25 C 234.92 255.56 231.52 254.25 235.38 254.88 C 239.23 255.50 254.00 255.00 258.00 255.00 C 262.00 255.00 259.08 255.00 259.38 254.88 C 259.67 254.75 259.67 264.02 259.75 254.25 C 259.83 244.48 259.79 206.19 259.88 196.25 C 259.96 186.31 260.19 197.27 260.25 194.62 C 260.31 191.98 260.31 183.08 260.25 180.38 C 260.19 177.67 259.94 182.90 259.88 178.38 C 259.81 173.85 259.81 157.56 259.88 153.25 C 259.94 148.94 260.23 157.10 260.25 152.50 C 260.27 147.90 259.85 132.58 260.00 125.62 C 260.15 118.67 260.79 113.50 261.12 110.75 C 261.46 108.00 261.79 110.62 262.00 109.12 C 262.21 107.62 262.19 103.38 262.38 101.75 C 262.56 100.12 263.02 100.96 263.12 99.38 C 263.23 97.79 262.73 94.73 263.00 92.25 C 263.27 89.77 264.27 87.15 264.75 84.50 C 265.23 81.85 265.71 78.33 265.88 76.38 C 266.04 74.42 265.94 73.73 265.75 72.75 C 265.56 71.77 265.81 71.79 264.75 70.50 C 263.69 69.21 260.73 66.25 259.38 65.00 C 258.02 63.75 257.02 63.42 256.62 63.00 C 256.23 62.58 256.33 62.65 257.00 62.50 C 257.67 62.35 260.06 62.25 260.62 62.12 C 261.19 62.00 260.75 61.83 260.38 61.75 Z" id="s-5-f-1"/>
<path d="M 260.38 61.75 C 260.00 61.67 258.79 61.54 258.38 61.62 C 257.96 61.71 259.23 62.08 257.88 62.25 C 256.52 62.42 251.73 62.44 250.25 62.62 C 248.77 62.81 250.12 63.21 249.00 63.38 C 247.88 63.54 244.90 63.44 243.50 63.62 C 242.10 63.81 241.96 64.33 240.62 64.50 C 239.29 64.67 236.62 64.42 235.50 64.62 C 234.38 64.83 233.67 63.83 233.88 65.75 C 234.08 67.67 235.94 71.08 236.75 76.12 C 237.56 81.17 238.40 85.77 238.75 96.00 C 239.10 106.23 239.06 129.40 238.88 137.50 C 238.69 145.60 237.79 137.46 237.62 144.62 C 237.46 151.79 237.92 174.38 237.88 180.50 C 237.83 186.62 237.58 180.19 237.38 181.38 C 237.17 182.56 236.75 184.42 236.62 187.62 C 236.50 190.83 236.71 197.52 236.62 200.62 C 236.54 203.73 236.10 205.21 236.12 206.25 C 236.15 207.29 232.83 206.75 236.75 206.88 C 240.67 207.00 255.75 207.04 259.62 207.00 C 263.50 206.96 259.94 220.19 260.00 206.62 C 260.06 193.06 259.81 141.60 260.00 125.62 C 260.19 109.65 260.79 113.50 261.12 110.75 C 261.46 108.00 261.79 110.62 262.00 109.12 C 262.21 107.62 262.19 103.38 262.38 101.75 C 262.56 100.12 263.02 100.96 263.12 99.38 C 263.23 97.79 262.73 94.73 263.00 92.25 C 263.27 89.77 264.27 87.15 264.75 84.50 C 265.23 81.85 265.71 78.33 265.88 76.38 C 266.04 74.42 266.06 73.90 265.75 72.75 C 265.44 71.60 265.06 70.79 264.00 69.50 C 262.94 68.21 260.60 66.08 259.38 65.00 C 258.15 63.92 257.02 63.42 256.62 63.00 C 256.23 62.58 256.46 62.58 257.00 62.50 C 257.54 62.42 259.27 62.56 259.88 62.50 C 260.48 62.44 260.54 62.25 260.62 62.12 C 260.71 62.00 260.75 61.83 260.38 61.75 Z" id="s-5-f-2"/>
<path d="M 260.38 61.75 C 260.00 61.67 258.79 61.54 258.38 61.62 C 257.96 61.71 258.10 62.17 257.88 62.25 C 257.65 62.33 257.15 62.21 257.00 62.12 C 256.85 62.04 257.23 61.69 257.00 61.75 C 256.77 61.81 256.75 62.35 255.62 62.50 C 254.50 62.65 251.35 62.48 250.25 62.62 C 249.15 62.77 250.12 63.21 249.00 63.38 C 247.88 63.54 244.90 63.44 243.50 63.62 C 242.10 63.81 241.96 64.33 240.62 64.50 C 239.29 64.67 236.62 64.42 235.50 64.62 C 234.38 64.83 233.67 63.83 233.88 65.75 C 234.08 67.67 235.94 71.08 236.75 76.12 C 237.56 81.17 238.40 85.77 238.75 96.00 C 239.10 106.23 239.04 129.65 238.88 137.50 C 238.71 145.35 237.98 140.92 237.75 143.12 C 237.52 145.33 237.48 148.21 237.50 150.75 C 237.52 153.29 237.73 157.00 237.88 158.38 C 238.02 159.75 234.81 158.90 238.38 159.00 C 241.94 159.10 255.67 159.12 259.25 159.00 C 262.83 158.88 259.77 159.21 259.88 158.25 C 259.98 157.29 259.81 154.21 259.88 153.25 C 259.94 152.29 260.19 158.00 260.25 152.50 C 260.31 147.00 260.15 126.92 260.25 120.25 C 260.35 113.58 260.58 114.35 260.88 112.50 C 261.17 110.65 261.75 110.92 262.00 109.12 C 262.25 107.33 262.19 103.38 262.38 101.75 C 262.56 100.12 263.02 100.96 263.12 99.38 C 263.23 97.79 262.73 94.73 263.00 92.25 C 263.27 89.77 264.27 87.15 264.75 84.50 C 265.23 81.85 265.71 78.33 265.88 76.38 C 266.04 74.42 266.06 73.90 265.75 72.75 C 265.44 71.60 265.06 70.79 264.00 69.50 C 262.94 68.21 260.58 66.04 259.38 65.00 C 258.17 63.96 257.15 63.67 256.75 63.25 C 256.35 62.83 256.35 62.69 257.00 62.50 C 257.65 62.31 260.06 62.25 260.62 62.12 C 261.19 62.00 260.75 61.83 260.38 61.75 Z" id="s-5-f-3"/>
<path d="M 258.38 61.62 C 257.92 61.67 258.10 62.17 257.88 62.25 C 257.65 62.33 257.15 62.21 257.00 62.12 C 256.85 62.04 257.23 61.69 257.00 61.75 C 256.77 61.81 256.75 62.35 255.62 62.50 C 254.50 62.65 251.35 62.48 250.25 62.62 C 249.15 62.77 250.12 63.21 249.00 63.38 C 247.88 63.54 244.90 63.44 243.50 63.62 C 242.10 63.81 241.96 64.33 240.62 64.50 C 239.29 64.67 236.62 64.42 235.50 64.62 C 234.38 64.83 233.83 64.62 233.88 65.75 C 233.92 66.88 235.10 68.42 235.75 71.38 C 236.40 74.33 237.25 79.40 237.75 83.50 C 238.25 87.60 238.62 91.50 238.75 96.00 C 238.88 100.50 238.48 107.98 238.50 110.50 C 238.52 113.02 235.17 111.00 238.88 111.12 C 242.58 111.25 256.96 111.44 260.75 111.25 C 264.54 111.06 261.40 110.48 261.62 110.00 C 261.85 109.52 262.00 109.75 262.12 108.38 C 262.25 107.00 262.21 103.25 262.38 101.75 C 262.54 100.25 263.02 100.96 263.12 99.38 C 263.23 97.79 262.58 95.56 263.00 92.25 C 263.42 88.94 265.15 82.56 265.62 79.50 C 266.10 76.44 265.88 75.06 265.88 73.88 C 265.88 72.69 265.94 73.10 265.62 72.38 C 265.31 71.65 265.04 70.73 264.00 69.50 C 262.96 68.27 260.58 66.04 259.38 65.00 C 258.17 63.96 257.15 63.67 256.75 63.25 C 256.35 62.83 256.48 62.62 257.00 62.50 C 257.52 62.38 259.27 62.58 259.88 62.50 C 260.48 62.42 260.88 62.15 260.62 62.00 C 260.38 61.85 258.83 61.58 258.38 61.62 Z" id="s-5-f-4"/>
</g>
<g id="s-6" clip-path="url(#c-s-6)">
<use href="#s-6-f-0"/>
<path d="M 238.00 181.25 C 237.83 179.48 237.54 180.94 237.12 181.12 C 236.71 181.31 238.38 179.54 235.50 182.38 C 232.62 185.21 222.98 194.83 219.88 198.12 C 216.77 201.42 218.44 200.38 216.88 202.12 C 215.31 203.88 213.92 205.56 210.50 208.62 C 207.08 211.69 200.79 216.94 196.38 220.50 C 191.96 224.06 188.17 226.94 184.00 230.00 C 179.83 233.06 176.67 235.40 171.38 238.88 C 166.08 242.35 156.94 248.04 152.25 250.88 C 147.56 253.71 144.83 254.75 143.25 255.88 C 141.67 257.00 142.81 255.96 142.75 257.62 C 142.69 259.29 142.79 263.98 142.88 265.88 C 142.96 267.77 143.10 268.35 143.25 269.00 C 143.40 269.65 141.58 270.35 143.75 269.75 C 145.92 269.15 152.23 266.90 156.25 265.38 C 160.27 263.85 162.02 263.54 167.88 260.62 C 173.73 257.71 184.35 252.02 191.38 247.88 C 198.40 243.73 202.58 241.21 210.00 235.75 C 217.42 230.29 231.38 219.69 235.88 215.12 C 240.38 210.56 236.75 211.52 237.00 208.38 C 237.25 205.23 237.19 199.02 237.38 196.25 C 237.56 193.48 238.02 194.25 238.12 191.75 C 238.23 189.25 238.17 183.02 238.00 181.25 Z" id="s-6-f-1"/>
<path d="M 237.88 181.12 C 237.60 181.00 239.62 178.54 236.62 181.38 C 233.62 184.21 223.17 194.67 219.88 198.12 C 216.58 201.58 218.58 200.23 216.88 202.12 C 215.17 204.02 213.92 205.77 209.62 209.50 C 205.33 213.23 194.27 221.73 191.12 224.50 C 187.98 227.27 190.77 222.27 190.75 226.12 C 190.73 229.98 190.81 244.06 191.00 247.62 C 191.19 251.19 190.44 248.31 191.88 247.50 C 193.31 246.69 196.60 244.71 199.62 242.75 C 202.65 240.79 203.94 240.38 210.00 235.75 C 216.06 231.12 231.50 219.56 236.00 215.00 C 240.50 210.44 236.79 211.25 237.00 208.38 C 237.21 205.50 237.06 200.52 237.25 197.75 C 237.44 194.98 237.96 194.35 238.12 191.75 C 238.29 189.15 238.29 183.90 238.25 182.12 C 238.21 180.35 238.15 181.25 237.88 181.12 Z" id="s-6-f-2"/>
</g>
<g id="s-7" clip-path="url(#c-s-7)">
<use href="#s-7-f-0"/>
<path d="M 259.62 205.12 C 259.38 206.88 259.46 213.69 259.50 215.50 C 259.54 217.31 251.23 211.42 259.88 216.00 C 268.52 220.58 299.56 236.67 311.38 243.00 C 323.19 249.33 324.38 250.23 330.75 254.00 C 337.12 257.77 345.54 263.23 349.62 265.62 C 353.71 268.02 354.21 268.00 355.25 268.38 C 356.29 268.75 355.75 272.94 355.88 267.88 C 356.00 262.81 356.00 243.33 356.00 238.00 C 356.00 232.67 355.98 236.35 355.88 235.88 C 355.77 235.40 359.17 236.75 355.38 235.12 C 351.58 233.50 348.85 231.15 333.12 226.12 C 317.40 221.10 273.25 208.50 261.00 205.00 C 248.75 201.50 259.88 203.38 259.62 205.12 Z" id="s-7-f-1"/>
<path d="M 259.62 205.12 C 259.38 206.88 259.46 213.69 259.50 215.50 C 259.54 217.31 254.94 213.42 259.88 216.00 C 264.81 218.58 281.33 226.88 289.12 231.00 C 296.92 235.12 303.54 239.12 306.62 240.75 C 309.71 242.38 307.40 244.31 307.62 240.75 C 307.85 237.19 308.06 223.10 308.00 219.38 C 307.94 215.65 315.08 220.77 307.25 218.38 C 299.42 215.98 268.94 207.21 261.00 205.00 C 253.06 202.79 259.88 203.38 259.62 205.12 Z" id="s-7-f-2"/>
</g>
<g id="s-8" clip-path="url(#c-s-8)">
<use href="#s-8-f-0"/>
<path d="M 228.88 285.25 C 227.94 283.92 227.50 282.96 225.12 280.75 C 222.75 278.54 217.08 273.79 214.62 272.00 C 212.17 270.21 211.62 270.33 210.38 270.00 C 209.12 269.67 207.92 269.88 207.12 270.00 C 206.33 270.12 206.15 270.25 205.62 270.75 C 205.10 271.25 204.50 271.90 204.00 273.00 C 203.50 274.10 203.17 276.00 202.62 277.38 C 202.08 278.75 201.77 279.58 200.75 281.25 C 199.73 282.92 199.27 283.90 196.50 287.38 C 193.73 290.85 188.65 297.27 184.12 302.12 C 179.60 306.98 175.04 311.38 169.38 316.50 C 163.71 321.62 156.48 327.65 150.12 332.88 C 143.77 338.10 136.67 343.73 131.25 347.88 C 125.83 352.02 122.12 354.62 117.62 357.75 C 113.12 360.88 109.21 363.56 104.25 366.62 C 99.29 369.69 90.62 372.00 87.88 376.12 C 85.12 380.25 87.54 388.77 87.75 391.38 C 87.96 393.98 86.90 392.35 89.12 391.75 C 91.35 391.15 95.79 389.94 101.12 387.75 C 106.46 385.56 114.31 382.15 121.12 378.62 C 127.94 375.10 136.00 370.42 142.00 366.62 C 148.00 362.83 152.44 359.31 157.12 355.88 C 161.81 352.44 165.08 350.04 170.12 346.00 C 175.17 341.96 181.31 337.04 187.38 331.62 C 193.44 326.21 199.98 318.96 206.50 313.50 C 213.02 308.04 222.65 301.88 226.50 298.88 C 230.35 295.88 228.90 296.56 229.62 295.50 C 230.35 294.44 230.69 293.62 230.88 292.50 C 231.06 291.38 231.08 289.96 230.75 288.75 C 230.42 287.54 229.81 286.58 228.88 285.25 Z" id="s-8-f-1"/>
<path d="M 226.12 281.75 C 224.35 279.98 220.46 276.42 218.25 274.62 C 216.04 272.83 214.19 271.77 212.88 271.00 C 211.56 270.23 211.33 270.17 210.38 270.00 C 209.42 269.83 207.92 269.88 207.12 270.00 C 206.33 270.12 206.10 270.33 205.62 270.75 C 205.15 271.17 204.75 271.40 204.25 272.50 C 203.75 273.60 203.54 275.40 202.62 277.38 C 201.71 279.35 201.12 281.02 198.75 284.38 C 196.38 287.73 191.12 294.21 188.38 297.50 C 185.62 300.79 185.42 300.96 182.25 304.12 C 179.08 307.29 177.04 309.85 169.38 316.50 C 161.71 323.15 141.85 339.29 136.25 344.00 C 130.65 348.71 135.77 340.48 135.75 344.75 C 135.73 349.02 135.96 365.46 136.12 369.62 C 136.29 373.79 135.54 370.40 136.75 369.75 C 137.96 369.10 137.81 369.71 143.38 365.75 C 148.94 361.79 162.79 351.69 170.12 346.00 C 177.46 340.31 181.31 337.04 187.38 331.62 C 193.44 326.21 199.98 318.96 206.50 313.50 C 213.02 308.04 222.65 301.88 226.50 298.88 C 230.35 295.88 228.94 296.40 229.62 295.50 C 230.31 294.60 230.42 294.50 230.62 293.50 C 230.83 292.50 231.17 290.88 230.88 289.50 C 230.58 288.12 229.67 286.54 228.88 285.25 C 228.08 283.96 227.90 283.52 226.12 281.75 Z" id="s-8-f-2"/>
<path d="M 211.00 270.12 C 209.33 269.50 208.10 269.81 207.12 270.00 C 206.15 270.19 205.65 270.75 205.12 271.25 C 204.60 271.75 204.56 271.67 204.00 273.00 C 203.44 274.33 202.62 277.35 201.75 279.25 C 200.88 281.15 200.98 281.33 198.75 284.38 C 196.52 287.42 190.83 294.52 188.38 297.50 C 185.92 300.48 184.77 296.54 184.00 302.25 C 183.23 307.96 183.71 326.48 183.75 331.75 C 183.79 337.02 183.65 333.90 184.25 333.88 C 184.85 333.85 183.67 335.02 187.38 331.62 C 191.08 328.23 200.81 318.42 206.50 313.50 C 212.19 308.58 218.17 304.56 221.50 302.12 C 224.83 299.69 225.15 299.98 226.50 298.88 C 227.85 297.77 228.94 296.40 229.62 295.50 C 230.31 294.60 230.44 294.62 230.62 293.50 C 230.81 292.38 231.04 290.12 230.75 288.75 C 230.46 287.38 229.65 286.42 228.88 285.25 C 228.10 284.08 228.08 283.67 226.12 281.75 C 224.17 279.83 219.65 275.69 217.12 273.75 C 214.60 271.81 212.67 270.75 211.00 270.12 Z" id="s-8-f-3"/>
</g>
<g id="s-9" clip-path="url(#c-s-9)">
<use href="#s-9-f-0"/>
<path d="M 187.75 330.62 C 186.50 329.92 187.29 330.42 186.88 330.75 C 186.46 331.08 188.12 330.21 185.25 332.62 C 182.38 335.04 171.90 342.17 169.62 345.25 C 167.35 348.33 171.10 349.21 171.62 351.12 C 172.15 353.04 172.42 354.42 172.75 356.75 C 173.08 359.08 173.46 359.96 173.62 365.12 C 173.79 370.29 173.88 380.33 173.75 387.75 C 173.62 395.17 173.38 403.04 172.88 409.62 C 172.38 416.21 171.42 423.46 170.75 427.25 C 170.08 431.04 169.75 430.94 168.88 432.38 C 168.00 433.81 166.31 434.88 165.50 435.88 C 164.69 436.88 164.25 437.21 164.00 438.38 C 163.75 439.54 163.50 440.58 164.00 442.88 C 164.50 445.17 165.81 449.27 167.00 452.12 C 168.19 454.98 169.77 458.06 171.12 460.00 C 172.48 461.94 173.90 462.94 175.12 463.75 C 176.35 464.56 177.35 464.71 178.50 464.88 C 179.65 465.04 181.02 464.94 182.00 464.75 C 182.98 464.56 183.06 464.62 184.38 463.75 C 185.69 462.88 184.92 464.54 189.88 459.50 C 194.83 454.46 205.65 442.23 214.12 433.50 C 222.60 424.77 236.10 411.88 240.75 407.12 C 245.40 402.38 241.81 407.73 242.00 405.00 C 242.19 402.27 242.02 393.17 241.88 390.75 C 241.73 388.33 244.56 388.17 241.12 390.50 C 237.69 392.83 227.35 400.54 221.25 404.75 C 215.15 408.96 208.02 413.58 204.50 415.75 C 200.98 417.92 201.06 417.42 200.12 417.75 C 199.19 418.08 199.44 418.02 198.88 417.75 C 198.31 417.48 197.23 416.77 196.75 416.12 C 196.27 415.48 195.96 421.21 196.00 413.88 C 196.04 406.54 196.50 381.79 197.00 372.12 C 197.50 362.46 198.21 360.06 199.00 355.88 C 199.79 351.69 201.29 348.92 201.75 347.00 C 202.21 345.08 202.10 345.48 201.75 344.38 C 201.40 343.27 200.85 341.94 199.62 340.38 C 198.40 338.81 196.35 336.62 194.38 335.00 C 192.40 333.38 189.00 331.33 187.75 330.62 Z" id="s-9-f-1"/>
<path d="M 187.75 330.62 C 186.50 329.92 187.29 330.42 186.88 330.75 C 186.46 331.08 188.12 330.21 185.25 332.62 C 182.38 335.04 171.92 342.21 169.62 345.25 C 167.33 348.29 170.98 348.96 171.50 350.88 C 172.02 352.79 172.40 354.38 172.75 356.75 C 173.10 359.12 173.46 359.96 173.62 365.12 C 173.79 370.29 173.88 380.33 173.75 387.75 C 173.62 395.17 173.38 403.04 172.88 409.62 C 172.38 416.21 171.42 423.46 170.75 427.25 C 170.08 431.04 169.75 430.94 168.88 432.38 C 168.00 433.81 166.31 434.88 165.50 435.88 C 164.69 436.88 164.25 437.12 164.00 438.38 C 163.75 439.62 163.50 441.08 164.00 443.38 C 164.50 445.67 165.81 449.35 167.00 452.12 C 168.19 454.90 169.77 458.06 171.12 460.00 C 172.48 461.94 173.90 462.94 175.12 463.75 C 176.35 464.56 177.35 464.71 178.50 464.88 C 179.65 465.04 180.73 465.10 182.00 464.75 C 183.27 464.40 184.50 463.96 186.12 462.75 C 187.75 461.54 190.44 458.92 191.75 457.50 C 193.06 456.08 193.29 460.69 194.00 454.25 C 194.71 447.81 195.65 429.17 196.00 418.88 C 196.35 408.58 195.96 400.35 196.12 392.50 C 196.29 384.65 196.52 377.85 197.00 371.75 C 197.48 365.65 198.21 360.00 199.00 355.88 C 199.79 351.75 201.31 348.98 201.75 347.00 C 202.19 345.02 202.08 345.27 201.62 344.00 C 201.17 342.73 200.21 340.88 199.00 339.38 C 197.79 337.88 196.25 336.46 194.38 335.00 C 192.50 333.54 189.00 331.33 187.75 330.62 Z" id="s-9-f-2"/>
<path d="M 187.75 330.62 C 186.17 329.62 187.29 330.42 186.88 330.75 C 186.46 331.08 188.12 330.21 185.25 332.62 C 182.38 335.04 171.92 342.21 169.62 345.25 C 167.33 348.29 170.98 348.96 171.50 350.88 C 172.02 352.79 172.38 353.83 172.75 356.75 C 173.12 359.67 173.58 363.21 173.75 368.38 C 173.92 373.54 173.90 380.88 173.75 387.75 C 173.60 394.62 173.35 403.31 172.88 409.62 C 172.40 415.94 171.17 422.79 170.88 425.62 C 170.58 428.46 170.85 426.42 171.12 426.62 C 171.40 426.83 168.77 426.81 172.50 426.88 C 176.23 426.94 189.73 427.00 193.50 427.00 C 197.27 427.00 194.77 427.17 195.12 426.88 C 195.48 426.58 195.46 430.98 195.62 425.25 C 195.79 419.52 195.90 401.42 196.12 392.50 C 196.35 383.58 196.65 377.17 197.00 371.75 C 197.35 366.33 197.92 362.65 198.25 360.00 C 198.58 357.35 198.42 358.04 199.00 355.88 C 199.58 353.71 201.29 348.92 201.75 347.00 C 202.21 345.08 202.21 345.65 201.75 344.38 C 201.29 343.10 199.90 340.65 199.00 339.38 C 198.10 338.10 198.25 338.21 196.38 336.75 C 194.50 335.29 189.33 331.62 187.75 330.62 Z" id="s-9-f-3"/>
<path d="M 187.75 330.62 C 186.12 329.58 187.29 330.42 186.88 330.75 C 186.46 331.08 188.12 330.21 185.25 332.62 C 182.38 335.04 171.92 342.21 169.62 345.25 C 167.33 348.29 170.98 348.96 171.50 350.88 C 172.02 352.79 172.40 354.38 172.75 356.75 C 173.10 359.12 173.42 361.46 173.62 365.12 C 173.83 368.79 173.83 376.44 174.00 378.75 C 174.17 381.06 171.12 378.96 174.62 379.00 C 178.12 379.04 191.33 379.06 195.00 379.00 C 198.67 378.94 196.12 381.50 196.62 378.62 C 197.12 375.75 197.60 365.54 198.00 361.75 C 198.40 357.96 198.38 358.33 199.00 355.88 C 199.62 353.42 201.29 348.92 201.75 347.00 C 202.21 345.08 202.19 345.60 201.75 344.38 C 201.31 343.15 199.98 340.85 199.12 339.62 C 198.27 338.40 198.52 338.50 196.62 337.00 C 194.73 335.50 189.38 331.67 187.75 330.62 Z" id="s-9-f-4"/>
</g>
<g id="s-10" clip-path="url(#c-s-10)">
<use href="#s-10-f-0"/>
<path d="M 369.75 301.62 C 369.42 300.58 368.54 299.69 367.75 298.75 C 366.96 297.81 366.90 297.62 365.00 296.00 C 363.10 294.38 359.69 291.15 356.38 289.00 C 353.06 286.85 347.54 284.29 345.12 283.12 C 342.71 281.96 343.02 282.15 341.88 282.00 C 340.73 281.85 339.06 282.02 338.25 282.25 C 337.44 282.48 337.92 281.46 337.00 283.38 C 336.08 285.29 334.27 290.60 332.75 293.75 C 331.23 296.90 331.92 296.27 327.88 302.25 C 323.83 308.23 311.44 325.00 308.50 329.62 C 305.56 334.25 305.85 329.98 310.25 330.00 C 314.65 330.02 328.06 331.46 334.88 329.75 C 341.69 328.04 345.77 323.21 351.12 319.75 C 356.48 316.29 363.90 311.46 367.00 309.00 C 370.10 306.54 369.29 306.23 369.75 305.00 C 370.21 303.77 370.08 302.67 369.75 301.62 Z" id="s-10-f-1"/>
</g>
<g id="s-11" clip-path="url(#c-s-11)">
<use href="#s-11-f-0"/>
<path d="M 241.75 314.50 C 241.19 315.44 240.94 317.52 241.00 318.62 C 241.06 319.73 241.65 320.35 242.12 321.12 C 242.60 321.90 229.21 308.27 243.88 323.25 C 258.54 338.23 312.79 393.52 330.12 411.00 C 347.46 428.48 343.15 423.81 347.88 428.12 C 352.60 432.44 356.15 435.10 358.50 436.88 C 360.85 438.65 360.27 438.10 362.00 438.75 C 363.73 439.40 366.31 440.25 368.88 440.75 C 371.44 441.25 372.92 441.58 377.38 441.75 C 381.83 441.92 389.71 442.10 395.62 441.75 C 401.54 441.40 408.40 440.29 412.88 439.62 C 417.35 438.96 419.48 438.42 422.50 437.75 C 425.52 437.08 429.27 436.15 431.00 435.62 C 432.73 435.10 432.54 436.90 432.88 434.62 C 433.21 432.35 433.10 424.33 433.00 422.00 C 432.90 419.67 436.23 422.17 432.25 420.62 C 428.27 419.08 416.90 415.58 409.12 412.75 C 401.35 409.92 392.92 406.67 385.62 403.62 C 378.33 400.58 371.23 397.44 365.38 394.50 C 359.52 391.56 354.40 388.12 350.50 386.00 C 346.60 383.88 345.85 383.96 342.00 381.75 C 338.15 379.54 333.31 376.79 327.38 372.75 C 321.44 368.71 311.79 361.67 306.38 357.50 C 300.96 353.33 297.17 349.56 294.88 347.75 C 292.58 345.94 299.17 352.02 292.62 346.62 C 286.08 341.23 262.21 320.83 255.62 315.38 C 249.04 309.92 254.04 314.27 253.12 313.88 C 252.21 313.48 251.58 313.15 250.12 313.00 C 248.67 312.85 245.77 312.75 244.38 313.00 C 242.98 313.25 242.31 313.56 241.75 314.50 Z" id="s-11-f-1"/>
<path d="M 241.75 314.50 C 241.21 315.04 241.23 315.48 241.12 316.25 C 241.02 317.02 240.62 317.92 241.12 319.12 C 241.62 320.33 234.15 313.06 244.12 323.50 C 254.10 333.94 283.71 364.31 301.00 381.75 C 318.29 399.19 338.85 419.33 347.88 428.12 C 356.90 436.92 352.77 432.73 355.12 434.50 C 357.48 436.27 359.71 437.71 362.00 438.75 C 364.29 439.79 366.31 440.25 368.88 440.75 C 371.44 441.25 374.71 441.60 377.38 441.75 C 380.04 441.90 383.60 447.58 384.88 441.62 C 386.15 435.67 385.06 412.44 385.00 406.00 C 384.94 399.56 387.08 404.58 384.50 403.00 C 381.92 401.42 373.56 398.38 369.50 396.50 C 365.44 394.62 363.29 393.50 360.12 391.75 C 356.96 390.00 354.10 388.00 350.50 386.00 C 346.90 384.00 342.35 381.96 338.50 379.75 C 334.65 377.54 331.60 375.60 327.38 372.75 C 323.15 369.90 317.83 366.12 313.12 362.62 C 308.42 359.12 302.17 354.23 299.12 351.75 C 296.08 349.27 296.00 348.65 294.88 347.75 C 293.75 346.85 299.04 351.85 292.38 346.38 C 285.71 340.90 261.92 320.44 254.88 314.88 C 247.83 309.31 251.88 313.31 250.12 313.00 C 248.38 312.69 245.77 312.75 244.38 313.00 C 242.98 313.25 242.29 313.96 241.75 314.50 Z" id="s-11-f-2"/>
<path d="M 242.38 313.88 C 241.83 314.42 241.35 315.46 241.12 316.25 C 240.90 317.04 240.83 317.81 241.00 318.62 C 241.17 319.44 233.58 312.08 242.12 321.12 C 250.67 330.17 277.58 357.90 292.25 372.88 C 306.92 387.85 322.73 403.65 330.12 411.00 C 337.52 418.35 335.48 416.42 336.62 417.00 C 337.77 417.58 336.94 420.44 337.00 414.50 C 337.06 408.56 337.08 387.40 337.00 381.38 C 336.92 375.35 338.35 379.98 336.50 378.38 C 334.65 376.77 330.90 375.23 325.88 371.75 C 320.85 368.27 310.83 360.83 306.38 357.50 C 301.92 354.17 300.85 353.23 299.12 351.75 C 297.40 350.27 297.12 349.52 296.00 348.62 C 294.88 347.73 299.10 351.92 292.38 346.38 C 285.65 340.83 262.17 320.79 255.62 315.38 C 249.08 309.96 254.04 314.27 253.12 313.88 C 252.21 313.48 251.58 313.15 250.12 313.00 C 248.67 312.85 245.67 312.85 244.38 313.00 C 243.08 313.15 242.92 313.33 242.38 313.88 Z" id="s-11-f-3"/>
<path d="M 242.38 313.88 C 241.83 314.42 241.35 315.46 241.12 316.25 C 240.90 317.04 240.77 317.73 241.00 318.62 C 241.23 319.52 234.62 313.27 242.50 321.62 C 250.38 329.98 280.52 362.15 288.25 368.75 C 295.98 375.35 288.77 365.48 288.88 361.25 C 288.98 357.02 294.54 351.10 288.88 343.38 C 283.21 335.65 261.33 319.94 254.88 314.88 C 248.42 309.81 251.88 313.31 250.12 313.00 C 248.38 312.69 245.67 312.85 244.38 313.00 C 243.08 313.15 242.92 313.33 242.38 313.88 Z" id="s-11-f-4"/>
</g>
</svg>