<?xml version="1.0" encoding="UTF-8"?>
<svg xmlns="http://www.w3.org/2000/svg" viewBox="0 0 500 500">
<defs>
<path d="M 205.88 95.00 C 205.67 94.04 205.42 92.79 204.38 91.62 C 203.33 90.46 202.17 89.27 199.62 88.00 C 197.08 86.73 191.69 84.83 189.12 84.00 C 186.56 83.17 186.06 83.17 184.25 83.00 C 182.44 82.83 181.94 82.21 178.25 83.00 C 174.56 83.79 166.88 86.46 162.12 87.75 C 157.38 89.04 158.58 88.92 149.75 90.75 C 140.92 92.58 120.46 96.75 109.12 98.75 C 97.79 100.75 86.44 101.90 81.75 102.75 C 77.06 103.60 80.48 102.15 81.00 103.88 C 81.52 105.60 83.90 110.98 84.88 113.12 C 85.85 115.27 85.79 115.98 86.88 116.75 C 87.96 117.52 88.27 117.58 91.38 117.75 C 94.48 117.92 96.85 118.56 105.50 117.75 C 114.15 116.94 135.50 114.00 143.25 112.88 C 151.00 111.75 146.17 112.02 152.00 111.00 C 157.83 109.98 171.46 107.96 178.25 106.75 C 185.04 105.54 188.85 104.75 192.75 103.75 C 196.65 102.75 199.48 101.81 201.62 100.75 C 203.77 99.69 204.92 98.33 205.62 97.38 C 206.33 96.42 206.08 95.96 205.88 95.00 Z" id="s-0-f-0"/>
<clipPath id="c-s-0"><use href="#s-0-f-0"/></clipPath>
<path d="M 53.38 96.00 C 51.94 96.15 51.77 96.54 51.25 96.88 C 50.73 97.21 50.46 97.29 50.25 98.00 C 50.04 98.71 49.42 99.67 50.00 101.12 C 50.58 102.58 52.77 104.90 53.75 106.75 C 54.73 108.60 54.88 109.12 55.88 112.25 C 56.88 115.38 58.60 120.35 59.75 125.50 C 60.90 130.65 62.08 137.90 62.75 143.12 C 63.42 148.35 63.60 149.21 63.75 156.88 C 63.90 164.54 63.85 178.71 63.62 189.12 C 63.40 199.54 62.96 210.02 62.38 219.38 C 61.79 228.73 60.73 239.23 60.12 245.25 C 59.52 251.27 59.44 251.52 58.75 255.50 C 58.06 259.48 56.46 265.94 56.00 269.12 C 55.54 272.31 55.65 272.83 56.00 274.62 C 56.35 276.42 56.54 277.21 58.12 279.88 C 59.71 282.54 63.79 288.48 65.50 290.62 C 67.21 292.77 67.21 292.40 68.38 292.75 C 69.54 293.10 70.83 293.10 72.50 292.75 C 74.17 292.40 76.67 291.46 78.38 290.62 C 80.08 289.79 81.85 289.38 82.75 287.75 C 83.65 286.12 83.38 284.58 83.75 280.88 C 84.12 277.17 84.65 275.31 85.00 265.50 C 85.35 255.69 85.54 230.75 85.88 222.00 C 86.21 213.25 86.77 230.71 87.00 213.00 C 87.23 195.29 87.52 132.48 87.25 115.75 C 86.98 99.02 85.90 113.79 85.38 112.62 C 84.85 111.46 84.62 109.92 84.12 108.75 C 83.62 107.58 82.73 106.48 82.38 105.62 C 82.02 104.77 82.40 104.21 82.00 103.62 C 81.60 103.04 82.65 103.21 80.00 102.12 C 77.35 101.04 69.48 98.15 66.12 97.12 C 62.77 96.10 62.00 96.19 59.88 96.00 C 57.75 95.81 54.81 95.85 53.38 96.00 Z" id="s-1-f-0"/>
<clipPath id="c-s-1"><use href="#s-1-f-0"/></clipPath>
<path d="M 194.88 152.50 C 194.60 151.83 193.58 150.90 193.00 150.38 C 192.42 149.85 193.06 150.10 191.38 149.38 C 189.69 148.65 186.69 147.04 182.88 146.00 C 179.06 144.96 171.90 143.62 168.50 143.12 C 165.10 142.62 165.44 142.40 162.50 143.00 C 159.56 143.60 153.73 145.94 150.88 146.75 C 148.02 147.56 150.83 146.38 145.38 147.88 C 139.92 149.38 126.44 153.60 118.12 155.75 C 109.81 157.90 100.17 159.88 95.50 160.75 C 90.83 161.62 91.58 160.81 90.12 161.00 C 88.67 161.19 87.35 159.96 86.75 161.88 C 86.15 163.79 86.21 170.50 86.50 172.50 C 86.79 174.50 87.79 173.52 88.50 173.88 C 89.21 174.23 89.17 174.31 90.75 174.62 C 92.33 174.94 94.96 175.56 98.00 175.75 C 101.04 175.94 104.69 176.06 109.00 175.75 C 113.31 175.44 118.21 174.85 123.88 173.88 C 129.54 172.90 136.90 171.35 143.00 169.88 C 149.10 168.40 153.46 166.71 160.50 165.00 C 167.54 163.29 179.90 161.04 185.25 159.62 C 190.60 158.21 191.06 157.38 192.62 156.50 C 194.19 155.62 194.25 155.04 194.62 154.38 C 195.00 153.71 195.15 153.17 194.88 152.50 Z" id="s-2-f-0"/>
<clipPath id="c-s-2"><use href="#s-2-f-0"/></clipPath>
<path d="M 196.88 203.12 C 196.42 202.27 195.10 200.85 194.00 200.00 C 192.90 199.15 191.77 198.67 190.25 198.00 C 188.73 197.33 187.79 196.62 184.88 196.00 C 181.96 195.38 176.35 194.58 172.75 194.25 C 169.15 193.92 166.23 193.71 163.25 194.00 C 160.27 194.29 157.65 195.21 154.88 196.00 C 152.10 196.79 148.44 198.27 146.62 198.75 C 144.81 199.23 144.75 198.73 144.00 198.88 C 143.25 199.02 142.90 199.46 142.12 199.62 C 141.35 199.79 144.10 198.85 139.38 199.88 C 134.65 200.90 121.44 204.23 113.75 205.75 C 106.06 207.27 97.50 208.25 93.25 209.00 C 89.00 209.75 89.38 209.88 88.25 210.25 C 87.12 210.62 86.94 210.31 86.50 211.25 C 86.06 212.19 85.75 214.29 85.62 215.88 C 85.50 217.46 85.33 219.62 85.75 220.75 C 86.17 221.88 87.31 222.15 88.12 222.62 C 88.94 223.10 88.96 223.27 90.62 223.62 C 92.29 223.98 94.81 224.56 98.12 224.75 C 101.44 224.94 106.17 225.04 110.50 224.75 C 114.83 224.46 118.60 224.00 124.12 223.00 C 129.65 222.00 140.17 219.56 143.62 218.75 C 147.08 217.94 142.17 218.65 144.88 218.12 C 147.58 217.60 155.62 216.48 159.88 215.62 C 164.12 214.77 165.62 213.98 170.38 213.00 C 175.12 212.02 184.79 210.46 188.38 209.75 C 191.96 209.04 190.75 209.21 191.88 208.75 C 193.00 208.29 194.31 207.60 195.12 207.00 C 195.94 206.40 196.46 205.77 196.75 205.12 C 197.04 204.48 197.33 203.98 196.88 203.12 Z" id="s-3-f-0"/>
<clipPath id="c-s-3"><use href="#s-3-f-0"/></clipPath>
<path d="M 147.50 111.50 C 145.58 110.96 138.60 112.42 136.38 112.75 C 134.15 113.08 135.29 113.33 134.12 113.50 C 132.96 113.67 130.54 113.58 129.38 113.75 C 128.21 113.92 128.29 114.33 127.12 114.50 C 125.96 114.67 123.58 114.52 122.38 114.75 C 121.17 114.98 119.98 109.60 119.88 115.88 C 119.77 122.15 121.48 142.77 121.75 152.38 C 122.02 161.98 121.33 166.42 121.50 173.50 C 121.67 180.58 122.54 185.94 122.75 194.88 C 122.96 203.81 123.04 216.92 122.75 227.12 C 122.46 237.33 121.29 250.56 121.00 256.12 C 120.71 261.69 120.92 259.69 121.00 260.50 C 121.08 261.31 117.48 261.40 121.50 261.00 C 125.52 260.60 141.08 258.69 145.12 258.12 C 149.17 257.56 145.62 264.27 145.75 257.62 C 145.88 250.98 145.79 224.96 145.88 218.25 C 145.96 211.54 146.25 225.54 146.25 217.38 C 146.25 209.21 145.73 178.73 145.88 169.25 C 146.02 159.77 146.94 165.71 147.12 160.50 C 147.31 155.29 146.88 145.42 147.00 138.00 C 147.12 130.58 147.79 120.42 147.88 116.00 C 147.96 111.58 149.42 112.04 147.50 111.50 Z" id="s-4-f-0"/>
<clipPath id="c-s-4"><use href="#s-4-f-0"/></clipPath>
<path d="M 182.25 252.12 C 180.00 251.79 176.38 252.10 174.62 252.25 C 172.88 252.40 172.83 252.58 171.75 253.00 C 170.67 253.42 170.19 254.15 168.12 254.75 C 166.06 255.35 162.60 256.10 159.38 256.62 C 156.15 257.15 151.75 257.71 148.75 257.88 C 145.75 258.04 142.90 257.56 141.38 257.62 C 139.85 257.69 141.15 258.06 139.62 258.25 C 138.10 258.44 133.94 258.54 132.25 258.75 C 130.56 258.96 130.90 259.33 129.50 259.50 C 128.10 259.67 125.90 259.40 123.88 259.75 C 121.85 260.10 120.12 260.98 117.38 261.62 C 114.62 262.27 111.15 262.98 107.38 263.62 C 103.60 264.27 97.88 265.17 94.75 265.50 C 91.62 265.83 89.98 265.73 88.62 265.62 C 87.27 265.52 87.35 265.35 86.62 264.88 C 85.90 264.40 84.71 263.02 84.25 262.75 C 83.79 262.48 83.88 262.85 83.88 263.25 C 83.88 263.65 84.27 264.52 84.25 265.12 C 84.23 265.73 84.04 263.23 83.75 266.88 C 83.46 270.52 82.60 283.52 82.50 287.00 C 82.40 290.48 82.04 288.06 83.12 287.75 C 84.21 287.44 86.50 286.08 89.00 285.12 C 91.50 284.17 94.71 283.02 98.12 282.00 C 101.54 280.98 105.31 280.00 109.50 279.00 C 113.69 278.00 118.77 276.83 123.25 276.00 C 127.73 275.17 132.38 274.52 136.38 274.00 C 140.38 273.48 141.54 273.21 147.25 272.88 C 152.96 272.54 166.23 271.98 170.62 272.00 C 175.02 272.02 172.75 272.44 173.62 273.00 C 174.50 273.56 175.38 273.46 175.88 275.38 C 176.38 277.29 176.48 278.52 176.62 284.50 C 176.77 290.48 177.06 302.17 176.75 311.25 C 176.44 320.33 175.42 332.10 174.75 339.00 C 174.08 345.90 173.62 347.69 172.75 352.62 C 171.88 357.56 170.67 363.69 169.50 368.62 C 168.33 373.56 166.88 378.52 165.75 382.25 C 164.62 385.98 163.75 388.52 162.75 391.00 C 161.75 393.48 160.92 395.19 159.75 397.12 C 158.58 399.06 157.04 401.19 155.75 402.62 C 154.46 404.06 153.10 405.06 152.00 405.75 C 150.90 406.44 149.90 406.58 149.12 406.75 C 148.35 406.92 148.25 406.92 147.38 406.75 C 146.50 406.58 148.00 407.38 143.88 405.75 C 139.75 404.12 126.65 398.46 122.62 397.00 C 118.60 395.54 120.38 396.79 119.75 397.00 C 119.12 397.21 119.00 397.71 118.88 398.25 C 118.75 398.79 118.65 399.25 119.00 400.25 C 119.35 401.25 118.38 400.38 121.00 404.25 C 123.62 408.12 131.62 418.96 134.75 423.50 C 137.88 428.04 137.88 428.23 139.75 431.50 C 141.62 434.77 144.19 440.42 146.00 443.12 C 147.81 445.83 149.08 447.00 150.62 447.75 C 152.17 448.50 153.46 448.10 155.25 447.62 C 157.04 447.15 159.73 445.79 161.38 444.88 C 163.02 443.96 163.33 443.75 165.12 442.12 C 166.92 440.50 170.17 437.29 172.12 435.12 C 174.08 432.96 175.44 431.17 176.88 429.12 C 178.31 427.08 179.44 425.29 180.75 422.88 C 182.06 420.46 183.58 417.29 184.75 414.62 C 185.92 411.96 186.58 410.50 187.75 406.88 C 188.92 403.25 190.58 397.85 191.75 392.88 C 192.92 387.90 192.71 392.81 194.75 377.00 C 196.79 361.19 201.96 313.27 204.00 298.00 C 206.04 282.73 205.71 289.08 207.00 285.38 C 208.29 281.67 210.96 277.98 211.75 275.75 C 212.54 273.52 212.04 273.06 211.75 272.00 C 211.46 270.94 211.00 270.50 210.00 269.38 C 209.00 268.25 208.52 267.31 205.75 265.25 C 202.98 263.19 196.31 258.83 193.38 257.00 C 190.44 255.17 189.98 255.06 188.12 254.25 C 186.27 253.44 184.50 252.46 182.25 252.12 Z" id="s-5-f-0"/>
<clipPath id="c-s-5"><use href="#s-5-f-0"/></clipPath>
<path d="M 44.25 316.88 C 43.81 316.85 43.38 316.90 43.00 317.12 C 42.62 317.35 42.56 316.54 42.00 318.25 C 41.44 319.96 40.50 324.52 39.62 327.38 C 38.75 330.23 39.02 329.75 36.75 335.38 C 34.48 341.00 27.94 356.00 26.00 361.12 C 24.06 366.25 25.31 363.31 25.12 366.12 C 24.94 368.94 24.71 374.83 24.88 378.00 C 25.04 381.17 25.77 383.54 26.12 385.12 C 26.48 386.71 26.42 386.50 27.00 387.50 C 27.58 388.50 28.85 390.23 29.62 391.12 C 30.40 392.02 30.67 392.29 31.62 392.88 C 32.58 393.46 34.02 394.31 35.38 394.62 C 36.73 394.94 38.79 394.90 39.75 394.75 C 40.71 394.60 39.96 395.19 41.12 393.75 C 42.29 392.31 45.48 388.08 46.75 386.12 C 48.02 384.17 47.60 385.65 48.75 382.00 C 49.90 378.35 52.46 369.42 53.62 364.25 C 54.79 359.08 55.42 355.12 55.75 351.00 C 56.08 346.88 55.96 342.54 55.62 339.50 C 55.29 336.46 55.04 336.08 53.75 332.75 C 52.46 329.42 49.23 322.08 47.88 319.50 C 46.52 316.92 46.23 317.69 45.62 317.25 C 45.02 316.81 44.69 316.90 44.25 316.88 Z" id="s-6-f-0"/>
<clipPath id="c-s-6"><use href="#s-6-f-0"/></clipPath>
<path d="M 64.75 317.00 C 64.00 317.12 64.15 317.31 64.00 317.75 C 63.85 318.19 63.67 318.52 63.88 319.62 C 64.08 320.73 63.40 319.77 65.25 324.38 C 67.10 328.98 72.69 342.02 75.00 347.25 C 77.31 352.48 77.65 352.96 79.12 355.75 C 80.60 358.54 82.79 362.25 83.88 364.00 C 84.96 365.75 84.98 365.62 85.62 366.25 C 86.27 366.88 86.79 367.50 87.75 367.75 C 88.71 368.00 90.35 367.92 91.38 367.75 C 92.40 367.58 93.02 367.31 93.88 366.75 C 94.73 366.19 95.85 365.15 96.50 364.38 C 97.15 363.60 97.35 363.50 97.75 362.12 C 98.15 360.75 98.71 358.60 98.88 356.12 C 99.04 353.65 98.96 349.69 98.75 347.25 C 98.54 344.81 98.29 343.65 97.62 341.50 C 96.96 339.35 95.94 336.46 94.75 334.38 C 93.56 332.29 92.27 330.71 90.50 329.00 C 88.73 327.29 87.27 325.96 84.12 324.12 C 80.98 322.29 74.23 319.19 71.62 318.00 C 69.02 316.81 69.65 317.17 68.50 317.00 C 67.35 316.83 65.50 316.88 64.75 317.00 Z" id="s-7-f-0"/>
<clipPath id="c-s-7"><use href="#s-7-f-0"/></clipPath>
<path d="M 97.75 309.00 C 97.00 309.12 97.12 309.19 97.00 309.75 C 96.88 310.31 96.73 311.58 97.00 312.38 C 97.27 313.17 96.62 310.62 98.62 314.50 C 100.62 318.38 106.44 330.71 109.00 335.62 C 111.56 340.54 112.29 341.44 114.00 344.00 C 115.71 346.56 117.88 349.40 119.25 351.00 C 120.62 352.60 121.02 353.17 122.25 353.62 C 123.48 354.08 125.48 353.88 126.62 353.75 C 127.77 353.62 128.33 353.33 129.12 352.88 C 129.92 352.42 130.77 351.65 131.38 351.00 C 131.98 350.35 132.35 349.92 132.75 349.00 C 133.15 348.08 133.60 347.71 133.75 345.50 C 133.90 343.29 133.79 338.04 133.62 335.75 C 133.46 333.46 133.23 333.23 132.75 331.75 C 132.27 330.27 131.46 328.25 130.75 326.88 C 130.04 325.50 129.75 324.83 128.50 323.50 C 127.25 322.17 125.50 320.42 123.25 318.88 C 121.00 317.33 118.02 315.73 115.00 314.25 C 111.98 312.77 107.38 310.88 105.12 310.00 C 102.88 309.12 102.73 309.17 101.50 309.00 C 100.27 308.83 98.50 308.88 97.75 309.00 Z" id="s-8-f-0"/>
<clipPath id="c-s-8"><use href="#s-8-f-0"/></clipPath>
<path d="M 130.12 300.25 C 129.81 300.83 129.73 301.62 130.00 302.38 C 130.27 303.12 129.92 301.23 131.75 304.75 C 133.58 308.27 138.60 319.04 141.00 323.50 C 143.40 327.96 144.65 329.40 146.12 331.50 C 147.60 333.60 148.81 334.92 149.88 336.12 C 150.94 337.33 151.75 338.15 152.50 338.75 C 153.25 339.35 153.38 339.58 154.38 339.75 C 155.38 339.92 157.42 339.92 158.50 339.75 C 159.58 339.58 160.00 339.44 160.88 338.75 C 161.75 338.06 163.12 336.54 163.75 335.62 C 164.38 334.71 164.44 334.81 164.62 333.25 C 164.81 331.69 165.02 328.62 164.88 326.25 C 164.73 323.88 164.15 320.75 163.75 319.00 C 163.35 317.25 163.04 316.81 162.50 315.75 C 161.96 314.69 161.69 313.92 160.50 312.62 C 159.31 311.33 157.46 309.44 155.38 308.00 C 153.29 306.56 151.35 305.48 148.00 304.00 C 144.65 302.52 137.94 299.98 135.25 299.12 C 132.56 298.27 132.73 298.69 131.88 298.88 C 131.02 299.06 130.44 299.67 130.12 300.25 Z" id="s-9-f-0"/>
<clipPath id="c-s-9"><use href="#s-9-f-0"/></clipPath>
<path d="M 424.75 108.00 C 424.56 107.12 424.40 106.94 423.62 106.12 C 422.85 105.31 422.21 104.31 420.12 103.12 C 418.04 101.94 414.12 100.17 411.12 99.00 C 408.12 97.83 404.67 96.62 402.12 96.12 C 399.58 95.62 398.04 95.56 395.88 96.00 C 393.71 96.44 392.40 97.67 389.12 98.75 C 385.85 99.83 382.85 100.83 376.25 102.50 C 369.65 104.17 354.48 107.69 349.50 108.75 C 344.52 109.81 351.02 108.17 346.38 108.88 C 341.73 109.58 327.08 112.00 321.62 113.00 C 316.17 114.00 319.81 113.73 313.62 114.88 C 307.44 116.02 295.10 118.23 284.50 119.88 C 273.90 121.52 257.90 123.73 250.00 124.75 C 242.10 125.77 239.85 125.62 237.12 126.00 C 234.40 126.38 234.50 126.58 233.62 127.00 C 232.75 127.42 232.17 128.10 231.88 128.50 C 231.58 128.90 231.71 128.79 231.88 129.38 C 232.04 129.96 232.23 131.06 232.88 132.00 C 233.52 132.94 234.58 134.06 235.75 135.00 C 236.92 135.94 238.15 136.85 239.88 137.62 C 241.60 138.40 244.00 139.12 246.12 139.62 C 248.25 140.12 248.42 140.44 252.62 140.62 C 256.83 140.81 266.27 140.90 271.38 140.75 C 276.48 140.60 271.21 141.23 283.25 139.75 C 295.29 138.27 332.29 133.48 343.62 131.88 C 354.96 130.27 349.15 130.48 351.25 130.12 C 353.35 129.77 349.46 130.83 356.25 129.75 C 363.04 128.67 383.83 125.15 392.00 123.62 C 400.17 122.10 400.88 121.79 405.25 120.62 C 409.62 119.46 415.46 117.62 418.25 116.62 C 421.04 115.62 421.06 115.25 422.00 114.62 C 422.94 114.00 423.42 113.42 423.88 112.88 C 424.33 112.33 424.60 112.19 424.75 111.38 C 424.90 110.56 424.94 108.88 424.75 108.00 Z" id="s-10-f-0"/>
<clipPath id="c-s-10"><use href="#s-10-f-0"/></clipPath>
<path d="M 287.38 163.00 C 286.12 162.17 286.23 161.98 283.62 161.00 C 281.02 160.02 274.60 157.79 271.75 157.12 C 268.90 156.46 267.60 156.83 266.50 157.00 C 265.40 157.17 265.58 155.48 265.12 158.12 C 264.67 160.77 265.12 167.10 263.75 172.88 C 262.38 178.65 258.69 188.31 256.88 192.75 C 255.06 197.19 254.35 196.75 252.88 199.50 C 251.40 202.25 249.02 207.04 248.00 209.25 C 246.98 211.46 248.12 210.06 246.75 212.75 C 245.38 215.44 242.46 220.81 239.75 225.38 C 237.04 229.94 233.44 235.79 230.50 240.12 C 227.56 244.46 223.46 249.21 222.12 251.38 C 220.79 253.54 222.23 252.73 222.50 253.12 C 222.77 253.52 222.88 253.67 223.75 253.75 C 224.62 253.83 225.77 254.50 227.75 253.62 C 229.73 252.75 232.98 250.60 235.62 248.50 C 238.27 246.40 239.08 245.75 243.62 241.00 C 248.17 236.25 257.50 226.75 262.88 220.00 C 268.25 213.25 273.52 204.21 275.88 200.50 C 278.23 196.79 275.56 200.00 277.00 197.75 C 278.44 195.50 281.85 190.48 284.50 187.00 C 287.15 183.52 291.33 178.92 292.88 176.88 C 294.42 174.83 293.60 175.92 293.75 174.75 C 293.90 173.58 294.19 171.33 293.75 169.88 C 293.31 168.42 292.19 167.15 291.12 166.00 C 290.06 164.85 288.62 163.83 287.38 163.00 Z" id="s-11-f-0"/>
<clipPath id="c-s-11"><use href="#s-11-f-0"/></clipPath>
<path d="M 220.75 174.00 C 220.15 174.23 220.00 174.71 219.88 175.38 C 219.75 176.04 219.56 176.94 220.00 178.00 C 220.44 179.06 217.98 177.04 222.50 181.75 C 227.02 186.46 242.65 201.67 247.12 206.25 C 251.60 210.83 246.79 206.65 249.38 209.25 C 251.96 211.85 256.85 215.56 262.62 221.88 C 268.40 228.19 279.98 242.65 284.00 247.12 C 288.02 251.60 285.52 248.50 286.75 248.75 C 287.98 249.00 290.10 249.06 291.38 248.62 C 292.65 248.19 293.65 246.88 294.38 246.12 C 295.10 245.38 295.23 245.56 295.75 244.12 C 296.27 242.69 297.17 240.40 297.50 237.50 C 297.83 234.60 297.88 228.96 297.75 226.75 C 297.62 224.54 297.23 225.12 296.75 224.25 C 296.27 223.38 296.52 223.35 294.88 221.50 C 293.23 219.65 288.98 215.23 286.88 213.12 C 284.77 211.02 284.79 210.94 282.25 208.88 C 279.71 206.81 275.69 203.44 271.62 200.75 C 267.56 198.06 260.42 194.12 257.88 192.75 C 255.33 191.38 258.88 193.94 256.38 192.50 C 253.88 191.06 248.35 187.21 242.88 184.12 C 237.40 181.04 227.19 175.69 223.50 174.00 C 219.81 172.31 221.35 173.77 220.75 174.00 Z" id="s-12-f-0"/>
<clipPath id="c-s-12"><use href="#s-12-f-0"/></clipPath>
<path d="M 287.62 264.50 C 286.73 263.69 286.31 262.58 283.38 261.00 C 280.44 259.42 272.96 256.19 270.00 255.00 C 267.04 253.81 266.98 253.98 265.62 253.88 C 264.27 253.77 262.67 254.08 261.88 254.38 C 261.08 254.67 261.23 253.46 260.88 255.62 C 260.52 257.79 261.42 262.17 259.75 267.38 C 258.08 272.58 253.00 282.73 250.88 286.88 C 248.75 291.02 249.00 289.17 247.00 292.25 C 245.00 295.33 242.10 300.67 238.88 305.38 C 235.65 310.08 231.71 315.44 227.62 320.50 C 223.54 325.56 217.90 331.98 214.38 335.75 C 210.85 339.52 207.90 341.65 206.50 343.12 C 205.10 344.60 205.83 344.19 206.00 344.62 C 206.17 345.06 206.50 345.56 207.50 345.75 C 208.50 345.94 209.85 346.42 212.00 345.75 C 214.15 345.08 217.54 343.42 220.38 341.75 C 223.21 340.08 225.02 338.90 229.00 335.75 C 232.98 332.60 239.58 327.19 244.25 322.88 C 248.92 318.56 253.08 314.10 257.00 309.88 C 260.92 305.65 265.52 300.25 267.75 297.50 C 269.98 294.75 268.62 295.56 270.38 293.38 C 272.12 291.19 275.17 287.60 278.25 284.38 C 281.33 281.15 286.96 276.02 288.88 274.00 C 290.79 271.98 289.58 273.12 289.75 272.25 C 289.92 271.38 290.04 269.81 289.88 268.75 C 289.71 267.69 289.12 266.58 288.75 265.88 C 288.38 265.17 288.52 265.31 287.62 264.50 Z" id="s-13-f-0"/>
<clipPath id="c-s-13"><use href="#s-13-f-0"/></clipPath>
<path d="M 216.00 270.75 C 215.88 271.31 215.65 272.44 216.00 273.38 C 216.35 274.31 214.04 272.02 218.12 276.38 C 222.21 280.73 236.48 295.21 240.50 299.50 C 244.52 303.79 239.90 299.75 242.25 302.12 C 244.60 304.50 249.77 308.52 254.62 313.75 C 259.48 318.98 267.35 328.98 271.38 333.50 C 275.40 338.02 277.25 339.50 278.75 340.88 C 280.25 342.25 279.38 341.60 280.38 341.75 C 281.38 341.90 283.71 341.90 284.75 341.75 C 285.79 341.60 286.02 341.29 286.62 340.88 C 287.23 340.46 287.73 340.17 288.38 339.25 C 289.02 338.33 289.98 336.73 290.50 335.38 C 291.02 334.02 291.29 333.62 291.50 331.12 C 291.71 328.62 291.90 322.67 291.75 320.38 C 291.60 318.08 291.06 318.23 290.62 317.38 C 290.19 316.52 290.52 316.83 289.12 315.25 C 287.73 313.67 284.23 309.81 282.25 307.88 C 280.27 305.94 279.38 305.25 277.25 303.62 C 275.12 302.00 271.17 299.44 269.50 298.12 C 267.83 296.81 269.81 297.38 267.25 295.75 C 264.69 294.12 256.69 289.90 254.12 288.38 C 251.56 286.85 252.46 286.92 251.88 286.62 C 251.29 286.33 255.42 289.25 250.62 286.62 C 245.83 284.00 228.50 273.67 223.12 270.88 C 217.75 268.08 219.44 270.02 218.38 269.88 C 217.31 269.73 217.15 269.85 216.75 270.00 C 216.35 270.15 216.12 270.19 216.00 270.75 Z" id="s-14-f-0"/>
<clipPath id="c-s-14"><use href="#s-14-f-0"/></clipPath>
<path d="M 430.75 146.88 C 429.15 145.60 427.46 144.19 424.25 142.88 C 421.04 141.56 414.33 139.62 411.50 139.00 C 408.67 138.38 408.15 138.94 407.25 139.12 C 406.35 139.31 406.52 137.98 406.12 140.12 C 405.73 142.27 405.27 149.38 404.88 152.00 C 404.48 154.62 404.94 153.02 403.75 155.88 C 402.56 158.73 399.92 164.77 397.75 169.12 C 395.58 173.48 392.92 178.40 390.75 182.00 C 388.58 185.60 386.75 187.58 384.75 190.75 C 382.75 193.92 382.25 196.08 378.75 201.00 C 375.25 205.92 368.35 214.67 363.75 220.25 C 359.15 225.83 353.21 231.88 351.12 234.50 C 349.04 237.12 350.85 235.60 351.25 236.00 C 351.65 236.40 352.56 236.77 353.50 236.88 C 354.44 236.98 355.23 237.42 356.88 236.62 C 358.52 235.83 361.29 233.44 363.38 232.12 C 365.46 230.81 366.96 230.46 369.38 228.75 C 371.79 227.04 373.94 225.33 377.88 221.88 C 381.81 218.42 387.33 214.10 393.00 208.00 C 398.67 201.90 407.71 190.50 411.88 185.25 C 416.04 180.00 415.94 179.25 418.00 176.50 C 420.06 173.75 421.62 171.65 424.25 168.75 C 426.88 165.85 431.98 161.23 433.75 159.12 C 435.52 157.02 434.71 157.21 434.88 156.12 C 435.04 155.04 434.92 153.56 434.75 152.62 C 434.58 151.69 434.54 151.46 433.88 150.50 C 433.21 149.54 432.35 148.15 430.75 146.88 Z" id="s-15-f-0"/>
<clipPath id="c-s-15"><use href="#s-15-f-0"/></clipPath>
<path d="M 355.75 163.00 C 355.15 163.21 355.00 163.69 354.88 164.25 C 354.75 164.81 354.67 165.56 355.00 166.38 C 355.33 167.19 352.44 164.25 356.88 169.12 C 361.31 174.00 377.15 190.58 381.62 195.62 C 386.10 200.67 382.27 197.29 383.75 199.38 C 385.23 201.46 389.00 206.35 390.50 208.12 C 392.00 209.90 391.02 208.15 392.75 210.00 C 394.48 211.85 397.77 215.44 400.88 219.25 C 403.98 223.06 408.83 229.94 411.38 232.88 C 413.92 235.81 414.65 236.25 416.12 236.88 C 417.60 237.50 419.23 236.81 420.25 236.62 C 421.27 236.44 421.58 236.17 422.25 235.75 C 422.92 235.33 423.48 235.06 424.25 234.12 C 425.02 233.19 426.19 231.62 426.88 230.12 C 427.56 228.62 428.04 226.75 428.38 225.12 C 428.71 223.50 428.81 222.17 428.88 220.38 C 428.94 218.58 429.10 216.08 428.75 214.38 C 428.40 212.67 428.00 211.88 426.75 210.12 C 425.50 208.38 422.98 205.67 421.25 203.88 C 419.52 202.08 418.79 201.29 416.38 199.38 C 413.96 197.46 408.58 193.79 406.75 192.38 C 404.92 190.96 407.60 192.48 405.38 190.88 C 403.15 189.27 395.90 184.31 393.38 182.75 C 390.85 181.19 395.40 184.62 390.25 181.50 C 385.10 178.38 367.79 167.08 362.50 164.00 C 357.21 160.92 359.62 163.17 358.50 163.00 C 357.38 162.83 356.35 162.79 355.75 163.00 Z" id="s-16-f-0"/>
<clipPath id="c-s-16"><use href="#s-16-f-0"/></clipPath>
<path d="M 442.25 255.62 C 441.25 254.67 439.48 253.10 437.88 252.00 C 436.27 250.90 436.00 250.17 432.62 249.00 C 429.25 247.83 420.83 245.67 417.62 245.00 C 414.42 244.33 414.27 244.88 413.38 245.00 C 412.48 245.12 412.67 243.92 412.25 245.75 C 411.83 247.58 411.29 253.73 410.88 256.00 C 410.46 258.27 412.27 255.04 409.75 259.38 C 407.23 263.71 401.94 273.46 395.75 282.00 C 389.56 290.54 379.06 303.21 372.62 310.62 C 366.19 318.04 359.73 323.67 357.12 326.50 C 354.52 329.33 356.79 327.25 357.00 327.62 C 357.21 328.00 357.38 328.56 358.38 328.75 C 359.38 328.94 360.75 329.42 363.00 328.75 C 365.25 328.08 369.54 325.90 371.88 324.75 C 374.21 323.60 375.15 323.04 377.00 321.88 C 378.85 320.71 381.10 319.19 383.00 317.75 C 384.90 316.31 386.73 314.42 388.38 313.25 C 390.02 312.08 391.08 311.92 392.88 310.75 C 394.67 309.58 395.60 309.04 399.12 306.25 C 402.65 303.46 408.98 298.81 414.00 294.00 C 419.02 289.19 425.67 281.08 429.25 277.38 C 432.83 273.67 433.50 273.33 435.50 271.75 C 437.50 270.17 439.81 269.00 441.25 267.88 C 442.69 266.75 443.54 265.69 444.12 265.00 C 444.71 264.31 444.65 264.60 444.75 263.75 C 444.85 262.90 444.90 260.88 444.75 259.88 C 444.60 258.88 444.29 258.46 443.88 257.75 C 443.46 257.04 443.25 256.58 442.25 255.62 Z" id="s-17-f-0"/>
<clipPath id="c-s-17"><use href="#s-17-f-0"/></clipPath>
<path d="M 359.00 264.75 C 358.88 265.42 358.73 267.00 359.00 268.00 C 359.27 269.00 356.33 266.44 360.62 270.75 C 364.92 275.06 380.44 289.62 384.75 293.88 C 389.06 298.12 384.58 294.23 386.50 296.25 C 388.42 298.27 394.25 304.10 396.25 306.00 C 398.25 307.90 394.54 303.19 398.50 307.62 C 402.46 312.06 415.79 328.00 420.00 332.62 C 424.21 337.25 422.44 334.83 423.75 335.38 C 425.06 335.92 426.44 335.98 427.88 335.88 C 429.31 335.77 431.12 335.40 432.38 334.75 C 433.62 334.10 434.54 333.06 435.38 332.00 C 436.21 330.94 436.88 329.62 437.38 328.38 C 437.88 327.12 438.12 325.92 438.38 324.50 C 438.62 323.08 438.83 321.58 438.88 319.88 C 438.92 318.17 439.17 316.02 438.62 314.25 C 438.08 312.48 437.83 311.62 435.62 309.25 C 433.42 306.88 428.67 302.62 425.38 300.00 C 422.08 297.38 417.75 294.90 415.88 293.50 C 414.00 292.10 414.90 292.15 414.12 291.62 C 413.35 291.10 411.83 290.71 411.25 290.38 C 410.67 290.04 411.77 290.29 410.62 289.62 C 409.48 288.96 406.35 287.52 404.38 286.38 C 402.40 285.23 400.27 283.56 398.75 282.75 C 397.23 281.94 398.02 282.96 395.25 281.50 C 392.48 280.04 387.21 276.73 382.12 274.00 C 377.04 271.27 368.23 266.81 364.75 265.12 C 361.27 263.44 362.08 264.06 361.25 263.88 C 360.42 263.69 360.12 263.85 359.75 264.00 C 359.38 264.15 359.12 264.08 359.00 264.75 Z" id="s-18-f-0"/>
<clipPath id="c-s-18"><use href="#s-18-f-0"/></clipPath>
<path d="M 333.00 45.12 C 330.15 44.27 326.85 43.35 323.62 43.00 C 320.40 42.65 315.79 42.83 313.62 43.00 C 311.46 43.17 311.56 43.33 310.62 44.00 C 309.69 44.67 308.42 45.48 308.00 47.00 C 307.58 48.52 307.79 50.98 308.12 53.12 C 308.46 55.27 309.21 57.52 310.00 59.88 C 310.79 62.23 312.08 64.60 312.88 67.25 C 313.67 69.90 313.94 70.56 314.75 75.75 C 315.56 80.94 317.08 92.31 317.75 98.38 C 318.42 104.44 318.60 107.33 318.75 112.12 C 318.90 116.92 318.44 123.23 318.62 127.12 C 318.81 131.02 319.71 127.23 319.88 135.50 C 320.04 143.77 320.02 161.02 319.62 176.75 C 319.23 192.48 318.12 217.46 317.50 229.88 C 316.88 242.29 316.50 244.50 315.88 251.25 C 315.25 258.00 314.77 262.85 313.75 270.38 C 312.73 277.90 311.08 289.40 309.75 296.38 C 308.42 303.35 307.25 306.85 305.75 312.25 C 304.25 317.65 302.40 323.75 300.75 328.75 C 299.10 333.75 297.52 338.02 295.88 342.25 C 294.23 346.48 292.60 350.38 290.88 354.12 C 289.15 357.88 287.52 361.10 285.50 364.75 C 283.48 368.40 281.02 372.58 278.75 376.00 C 276.48 379.42 274.35 382.27 271.88 385.25 C 269.40 388.23 266.08 391.25 263.88 393.88 C 261.67 396.50 260.71 398.40 258.62 401.00 C 256.54 403.60 254.21 406.42 251.38 409.50 C 248.54 412.58 246.46 415.00 241.62 419.50 C 236.79 424.00 227.75 432.00 222.38 436.50 C 217.00 441.00 213.15 443.75 209.38 446.50 C 205.60 449.25 201.48 451.65 199.75 453.00 C 198.02 454.35 198.88 454.17 199.00 454.62 C 199.12 455.08 198.94 455.56 200.50 455.75 C 202.06 455.94 205.23 456.12 208.38 455.75 C 211.52 455.38 216.21 454.35 219.38 453.50 C 222.54 452.65 224.25 451.96 227.38 450.62 C 230.50 449.29 234.21 447.65 238.12 445.50 C 242.04 443.35 247.35 440.04 250.88 437.75 C 254.40 435.46 256.65 433.73 259.25 431.75 C 261.85 429.77 263.60 428.46 266.50 425.88 C 269.40 423.29 273.75 419.17 276.62 416.25 C 279.50 413.33 281.38 411.21 283.75 408.38 C 286.12 405.54 288.71 402.25 290.88 399.25 C 293.04 396.25 294.60 393.90 296.75 390.38 C 298.90 386.85 301.60 382.06 303.75 378.12 C 305.90 374.19 308.56 368.98 309.62 366.75 C 310.69 364.52 309.60 365.90 310.12 364.75 C 310.65 363.60 311.65 362.25 312.75 359.88 C 313.85 357.50 314.44 356.62 316.75 350.50 C 319.06 344.38 324.46 329.42 326.62 323.12 C 328.79 316.83 328.88 316.00 329.75 312.75 C 330.62 309.50 330.73 309.17 331.88 303.62 C 333.02 298.08 335.31 286.96 336.62 279.50 C 337.94 272.04 338.73 266.88 339.75 258.88 C 340.77 250.88 341.75 243.04 342.75 231.50 C 343.75 219.96 344.90 206.25 345.75 189.62 C 346.60 173.00 347.35 142.15 347.88 131.75 C 348.40 121.35 348.67 128.77 348.88 127.25 C 349.08 125.73 349.08 130.08 349.12 122.62 C 349.17 115.17 348.98 90.85 349.12 82.50 C 349.27 74.15 349.38 76.02 350.00 72.50 C 350.62 68.98 352.42 63.69 352.88 61.38 C 353.33 59.06 352.94 59.48 352.75 58.62 C 352.56 57.77 352.50 57.27 351.75 56.25 C 351.00 55.23 350.08 53.85 348.25 52.50 C 346.42 51.15 343.29 49.35 340.75 48.12 C 338.21 46.90 335.85 45.98 333.00 45.12 Z" id="s-19-f-0"/>
<clipPath id="c-s-19"><use href="#s-19-f-0"/></clipPath>
<path d="M 332.62 298.62 C 332.35 298.79 331.94 298.81 331.75 299.50 C 331.56 300.19 331.67 301.96 331.50 302.75 C 331.33 303.54 330.94 303.54 330.75 304.25 C 330.56 304.96 330.54 306.42 330.38 307.00 C 330.21 307.58 329.92 307.06 329.75 307.75 C 329.58 308.44 329.56 310.29 329.38 311.12 C 329.19 311.96 328.73 312.04 328.62 312.75 C 328.52 313.46 328.56 314.71 328.75 315.38 C 328.94 316.04 327.19 310.92 329.75 316.75 C 332.31 322.58 340.25 341.60 344.12 350.38 C 348.00 359.15 349.52 362.40 353.00 369.38 C 356.48 376.35 359.50 382.44 365.00 392.25 C 370.50 402.06 380.50 419.21 386.00 428.25 C 391.50 437.29 395.42 442.90 398.00 446.50 C 400.58 450.10 400.19 448.85 401.50 449.88 C 402.81 450.90 404.21 451.81 405.88 452.62 C 407.54 453.44 409.58 454.23 411.50 454.75 C 413.42 455.27 413.15 455.58 417.38 455.75 C 421.60 455.92 431.50 455.92 436.88 455.75 C 442.25 455.58 445.50 455.25 449.62 454.75 C 453.75 454.25 458.35 453.42 461.62 452.75 C 464.90 452.08 467.52 451.29 469.25 450.75 C 470.98 450.21 471.25 450.06 472.00 449.50 C 472.75 448.94 473.44 448.06 473.75 447.38 C 474.06 446.69 474.29 446.15 473.88 445.38 C 473.46 444.60 472.56 443.65 471.25 442.75 C 469.94 441.85 467.92 440.83 466.00 440.00 C 464.08 439.17 464.54 440.60 459.75 437.75 C 454.96 434.90 442.27 426.04 437.25 422.88 C 432.23 419.71 432.10 420.25 429.62 418.75 C 427.15 417.25 425.40 416.06 422.38 413.88 C 419.35 411.69 416.02 409.54 411.50 405.62 C 406.98 401.71 399.48 394.60 395.25 390.38 C 391.02 386.15 390.67 385.90 386.12 380.25 C 381.58 374.60 374.02 365.12 368.00 356.50 C 361.98 347.88 354.67 336.08 350.00 328.50 C 345.33 320.92 342.77 316.00 340.00 311.00 C 337.23 306.00 334.60 300.56 333.38 298.50 C 332.15 296.44 332.90 298.46 332.62 298.62 Z" id="s-20-f-0"/>
<clipPath id="c-s-20"><use href="#s-20-f-0"/></clipPath>
</defs>
<g id="s-0" clip-path="url(#c-s-0)">
<use href="#s-0-f-0"/>
<path d="M 176.88 83.88 C 176.73 80.04 177.62 83.08 176.00 83.50 C 174.38 83.92 171.50 85.17 167.12 86.38 C 162.75 87.58 159.42 88.69 149.75 90.75 C 140.08 92.81 120.46 96.75 109.12 98.75 C 97.79 100.75 86.44 101.90 81.75 102.75 C 77.06 103.60 80.21 101.60 81.00 103.88 C 81.79 106.15 84.77 114.06 86.50 116.38 C 88.23 118.69 88.21 117.52 91.38 117.75 C 94.54 117.98 100.98 118.04 105.50 117.75 C 110.02 117.46 115.85 116.29 118.50 116.00 C 121.15 115.71 117.25 116.52 121.38 116.00 C 125.50 115.48 138.15 113.71 143.25 112.88 C 148.35 112.04 146.96 111.88 152.00 111.00 C 157.04 110.12 169.35 108.38 173.50 107.62 C 177.65 106.88 176.31 110.46 176.88 106.50 C 177.44 102.54 177.02 87.71 176.88 83.88 Z" id="s-0-f-1"/>
<path d="M 128.88 114.38 C 129.00 111.10 129.08 98.60 129.00 95.38 C 128.92 92.15 133.58 94.12 128.38 95.00 C 123.17 95.88 105.25 99.40 97.75 100.62 C 90.25 101.85 86.17 101.92 83.38 102.38 C 80.58 102.83 80.54 101.15 81.00 103.38 C 81.46 105.60 85.15 113.52 86.12 115.75 C 87.10 117.98 86.38 116.48 86.88 116.75 C 87.38 117.02 87.83 117.19 89.12 117.38 C 90.42 117.56 91.90 117.81 94.62 117.88 C 97.35 117.94 99.90 118.23 105.50 117.75 C 111.10 117.27 124.35 115.56 128.25 115.00 C 132.15 114.44 128.75 117.65 128.88 114.38 Z" id="s-0-f-2"/>
</g>
<g id="s-1" clip-path="url(#c-s-1)">
<use href="#s-1-f-0"/>
<path d="M 53.38 96.00 C 51.94 96.15 51.77 96.54 51.25 96.88 C 50.73 97.21 50.46 97.29 50.25 98.00 C 50.04 98.71 49.42 99.67 50.00 101.12 C 50.58 102.58 52.77 104.90 53.75 106.75 C 54.73 108.60 54.88 109.12 55.88 112.25 C 56.88 115.38 58.60 120.35 59.75 125.50 C 60.90 130.65 62.08 137.90 62.75 143.12 C 63.42 148.35 63.60 149.21 63.75 156.88 C 63.90 164.54 63.85 178.71 63.62 189.12 C 63.40 199.54 62.96 210.02 62.38 219.38 C 61.79 228.73 60.73 239.23 60.12 245.25 C 59.52 251.27 59.44 251.52 58.75 255.50 C 58.06 259.48 56.46 265.94 56.00 269.12 C 55.54 272.31 55.65 272.83 56.00 274.62 C 56.35 276.42 56.85 277.67 58.12 279.88 C 59.40 282.08 59.54 286.54 63.62 287.88 C 67.71 289.21 79.38 288.00 82.62 287.88 C 85.88 287.75 82.73 290.85 83.12 287.12 C 83.52 283.40 84.54 276.35 85.00 265.50 C 85.46 254.65 85.54 230.75 85.88 222.00 C 86.21 213.25 86.77 230.71 87.00 213.00 C 87.23 195.29 87.52 132.48 87.25 115.75 C 86.98 99.02 85.90 113.79 85.38 112.62 C 84.85 111.46 84.62 109.92 84.12 108.75 C 83.62 107.58 82.73 106.48 82.38 105.62 C 82.02 104.77 82.40 104.21 82.00 103.62 C 81.60 103.04 82.65 103.21 80.00 102.12 C 77.35 101.04 69.48 98.15 66.12 97.12 C 62.77 96.10 62.00 96.19 59.88 96.00 C 57.75 95.81 54.81 95.85 53.38 96.00 Z" id="s-1-f-1"/>
<path d="M 52.75 96.12 C 51.15 96.46 50.71 97.17 50.25 98.00 C 49.79 98.83 49.42 99.67 50.00 101.12 C 50.58 102.58 52.77 104.90 53.75 106.75 C 54.73 108.60 54.88 109.12 55.88 112.25 C 56.88 115.38 58.77 121.58 59.75 125.50 C 60.73 129.42 61.10 131.00 61.75 135.75 C 62.40 140.50 63.31 145.10 63.62 154.00 C 63.94 162.90 63.77 179.19 63.62 189.12 C 63.48 199.06 63.23 205.23 62.75 213.62 C 62.27 222.02 59.83 235.10 60.75 239.50 C 61.67 243.90 64.19 239.94 68.25 240.00 C 72.31 240.06 82.21 240.29 85.12 239.88 C 88.04 239.46 85.62 240.48 85.75 237.50 C 85.88 234.52 85.67 226.08 85.88 222.00 C 86.08 217.92 86.77 230.71 87.00 213.00 C 87.23 195.29 87.52 132.48 87.25 115.75 C 86.98 99.02 85.90 113.79 85.38 112.62 C 84.85 111.46 84.62 109.92 84.12 108.75 C 83.62 107.58 82.73 106.48 82.38 105.62 C 82.02 104.77 82.40 104.21 82.00 103.62 C 81.60 103.04 82.65 103.21 80.00 102.12 C 77.35 101.04 69.48 98.15 66.12 97.12 C 62.77 96.10 62.10 96.17 59.88 96.00 C 57.65 95.83 54.35 95.79 52.75 96.12 Z" id="s-1-f-2"/>
<path d="M 52.38 96.25 C 50.77 96.58 50.65 97.19 50.25 98.00 C 49.85 98.81 49.42 99.67 50.00 101.12 C 50.58 102.58 52.46 103.90 53.75 106.75 C 55.04 109.60 56.65 114.62 57.75 118.25 C 58.85 121.88 59.54 124.35 60.38 128.50 C 61.21 132.65 62.19 138.40 62.75 143.12 C 63.31 147.85 63.60 148.79 63.75 156.88 C 63.90 164.96 63.35 185.77 63.62 191.62 C 63.90 197.48 61.58 191.94 65.38 192.00 C 69.17 192.06 82.79 192.25 86.38 192.00 C 89.96 191.75 86.73 203.21 86.88 190.50 C 87.02 177.79 87.50 128.73 87.25 115.75 C 87.00 102.77 85.90 113.79 85.38 112.62 C 84.85 111.46 84.62 109.92 84.12 108.75 C 83.62 107.58 82.73 106.48 82.38 105.62 C 82.02 104.77 82.40 104.21 82.00 103.62 C 81.60 103.04 82.65 103.21 80.00 102.12 C 77.35 101.04 69.48 98.15 66.12 97.12 C 62.77 96.10 62.17 96.15 59.88 96.00 C 57.58 95.85 53.98 95.92 52.38 96.25 Z" id="s-1-f-3"/>
<path d="M 51.25 96.88 C 50.71 97.27 50.33 97.67 50.12 98.38 C 49.92 99.08 49.40 99.73 50.00 101.12 C 50.60 102.52 52.46 103.90 53.75 106.75 C 55.04 109.60 56.65 114.62 57.75 118.25 C 58.85 121.88 59.52 124.27 60.38 128.50 C 61.23 132.73 62.38 141.04 62.88 143.62 C 63.38 146.21 59.42 143.96 63.38 144.00 C 67.33 144.04 82.65 148.58 86.62 143.88 C 90.60 139.17 87.46 120.96 87.25 115.75 C 87.04 110.54 85.90 113.79 85.38 112.62 C 84.85 111.46 84.62 109.92 84.12 108.75 C 83.62 107.58 82.73 106.48 82.38 105.62 C 82.02 104.77 82.44 104.23 82.00 103.62 C 81.56 103.02 82.40 103.08 79.75 102.00 C 77.10 100.92 69.44 98.12 66.12 97.12 C 62.81 96.12 62.00 96.19 59.88 96.00 C 57.75 95.81 54.81 95.85 53.38 96.00 C 51.94 96.15 51.79 96.48 51.25 96.88 Z" id="s-1-f-4"/>
</g>
<g id="s-2" clip-path="url(#c-s-2)">
<use href="#s-2-f-0"/>
<path d="M 182.88 146.38 C 182.27 143.98 181.77 145.67 179.38 145.12 C 176.98 144.58 171.31 143.48 168.50 143.12 C 165.69 142.77 165.44 142.40 162.50 143.00 C 159.56 143.60 153.73 145.94 150.88 146.75 C 148.02 147.56 150.83 146.38 145.38 147.88 C 139.92 149.38 126.44 153.60 118.12 155.75 C 109.81 157.90 100.40 159.83 95.50 160.75 C 90.60 161.67 90.25 161.00 88.75 161.25 C 87.25 161.50 86.88 160.38 86.50 162.25 C 86.12 164.12 86.17 170.56 86.50 172.50 C 86.83 174.44 86.88 173.35 88.50 173.88 C 90.12 174.40 93.27 175.29 96.25 175.62 C 99.23 175.96 103.79 175.90 106.38 175.88 C 108.96 175.85 108.83 175.83 111.75 175.50 C 114.67 175.17 119.44 174.65 123.88 173.88 C 128.31 173.10 131.58 172.52 138.38 170.88 C 145.17 169.23 157.46 165.73 164.62 164.00 C 171.79 162.27 178.31 161.25 181.38 160.50 C 184.44 159.75 182.75 161.85 183.00 159.50 C 183.25 157.15 183.48 148.77 182.88 146.38 Z" id="s-2-f-1"/>
<path d="M 134.88 151.38 C 134.73 148.29 136.33 150.54 134.12 151.12 C 131.92 151.71 128.21 153.25 121.62 154.88 C 115.04 156.50 99.90 159.85 94.62 160.88 C 89.35 161.90 91.31 160.83 90.00 161.00 C 88.69 161.17 87.33 159.96 86.75 161.88 C 86.17 163.79 86.21 170.50 86.50 172.50 C 86.79 174.50 86.88 173.35 88.50 173.88 C 90.12 174.40 93.27 175.29 96.25 175.62 C 99.23 175.96 101.90 176.15 106.38 175.88 C 110.85 175.60 118.54 174.69 123.12 174.00 C 127.71 173.31 131.94 172.21 133.88 171.75 C 135.81 171.29 134.56 171.60 134.75 171.25 C 134.94 170.90 134.98 172.94 135.00 169.62 C 135.02 166.31 135.02 154.46 134.88 151.38 Z" id="s-2-f-2"/>
</g>
<g id="s-3" clip-path="url(#c-s-3)">
<use href="#s-3-f-0"/>
<path d="M 181.88 196.00 C 181.75 194.21 182.77 195.67 181.25 195.38 C 179.73 195.08 175.75 194.48 172.75 194.25 C 169.75 194.02 166.23 193.71 163.25 194.00 C 160.27 194.29 157.65 195.21 154.88 196.00 C 152.10 196.79 148.44 198.27 146.62 198.75 C 144.81 199.23 144.75 198.73 144.00 198.88 C 143.25 199.02 142.90 199.46 142.12 199.62 C 141.35 199.79 144.10 198.85 139.38 199.88 C 134.65 200.90 120.60 204.38 113.75 205.75 C 106.90 207.12 102.42 207.40 98.25 208.12 C 94.08 208.85 90.71 209.60 88.75 210.12 C 86.79 210.65 87.02 210.29 86.50 211.25 C 85.98 212.21 85.75 214.29 85.62 215.88 C 85.50 217.46 85.33 219.62 85.75 220.75 C 86.17 221.88 87.31 222.15 88.12 222.62 C 88.94 223.10 89.27 223.29 90.62 223.62 C 91.98 223.96 92.67 224.46 96.25 224.62 C 99.83 224.79 107.88 224.90 112.12 224.62 C 116.38 224.35 119.75 223.27 121.75 223.00 C 123.75 222.73 120.48 223.71 124.12 223.00 C 127.77 222.29 140.17 219.56 143.62 218.75 C 147.08 217.94 142.17 218.65 144.88 218.12 C 147.58 217.60 153.79 216.83 159.88 215.62 C 165.96 214.42 177.71 211.85 181.38 210.88 C 185.04 209.90 181.77 210.54 181.88 209.75 C 181.98 208.96 182.00 208.42 182.00 206.12 C 182.00 203.83 182.00 197.79 181.88 196.00 Z" id="s-3-f-1"/>
<path d="M 133.88 201.75 C 133.25 198.88 133.60 201.21 130.25 201.88 C 126.90 202.54 119.08 204.71 113.75 205.75 C 108.42 206.79 102.44 207.40 98.25 208.12 C 94.06 208.85 90.58 209.60 88.62 210.12 C 86.67 210.65 87.00 210.29 86.50 211.25 C 86.00 212.21 85.73 214.23 85.62 215.88 C 85.52 217.52 85.04 219.83 85.88 221.12 C 86.71 222.42 88.90 223.04 90.62 223.62 C 92.35 224.21 93.42 224.42 96.25 224.62 C 99.08 224.83 103.00 225.15 107.62 224.88 C 112.25 224.60 119.69 223.67 124.00 223.00 C 128.31 222.33 131.83 221.52 133.50 220.88 C 135.17 220.23 133.94 222.31 134.00 219.12 C 134.06 215.94 134.50 204.62 133.88 201.75 Z" id="s-3-f-2"/>
</g>
<g id="s-4" clip-path="url(#c-s-4)">
<use href="#s-4-f-0"/>
<path d="M 147.50 111.50 C 145.58 110.96 138.60 112.42 136.38 112.75 C 134.15 113.08 135.29 113.33 134.12 113.50 C 132.96 113.67 130.54 113.58 129.38 113.75 C 128.21 113.92 128.29 114.33 127.12 114.50 C 125.96 114.67 123.46 114.60 122.38 114.75 C 121.29 114.90 121.02 115.15 120.62 115.38 C 120.23 115.60 119.81 109.96 120.00 116.12 C 120.19 122.29 121.50 142.83 121.75 152.38 C 122.00 161.92 121.33 166.29 121.50 173.38 C 121.67 180.46 122.54 185.92 122.75 194.88 C 122.96 203.83 123.00 217.04 122.75 227.12 C 122.50 237.21 121.42 250.60 121.25 255.38 C 121.08 260.15 117.73 255.65 121.75 255.75 C 125.77 255.85 141.35 256.04 145.38 256.00 C 149.40 255.96 145.79 261.79 145.88 255.50 C 145.96 249.21 145.81 224.60 145.88 218.25 C 145.94 211.90 146.25 225.54 146.25 217.38 C 146.25 209.21 145.73 178.73 145.88 169.25 C 146.02 159.77 146.92 167.08 147.12 160.50 C 147.33 153.92 147.00 137.17 147.12 129.75 C 147.25 122.33 147.81 119.04 147.88 116.00 C 147.94 112.96 149.42 112.04 147.50 111.50 Z" id="s-4-f-1"/>
<path d="M 147.50 111.50 C 145.58 110.96 138.60 112.42 136.38 112.75 C 134.15 113.08 135.29 113.33 134.12 113.50 C 132.96 113.67 130.54 113.58 129.38 113.75 C 128.21 113.92 128.29 114.33 127.12 114.50 C 125.96 114.67 123.58 114.52 122.38 114.75 C 121.17 114.98 119.98 109.60 119.88 115.88 C 119.77 122.15 121.48 142.77 121.75 152.38 C 122.02 161.98 121.35 167.33 121.50 173.50 C 121.65 179.67 122.46 183.67 122.62 189.38 C 122.79 195.08 122.40 204.60 122.50 207.75 C 122.60 210.90 119.42 208.17 123.25 208.25 C 127.08 208.33 141.67 208.38 145.50 208.25 C 149.33 208.12 146.19 214.00 146.25 207.50 C 146.31 201.00 145.73 177.08 145.88 169.25 C 146.02 161.42 146.94 165.71 147.12 160.50 C 147.31 155.29 146.88 145.42 147.00 138.00 C 147.12 130.58 147.79 120.42 147.88 116.00 C 147.96 111.58 149.42 112.04 147.50 111.50 Z" id="s-4-f-2"/>
<path d="M 147.50 111.50 C 145.58 110.96 138.60 112.42 136.38 112.75 C 134.15 113.08 135.29 113.33 134.12 113.50 C 132.96 113.67 130.54 113.58 129.38 113.75 C 128.21 113.92 128.29 114.33 127.12 114.50 C 125.96 114.67 123.56 114.56 122.38 114.75 C 121.19 114.94 120.40 114.33 120.00 115.62 C 119.60 116.92 119.71 116.38 120.00 122.50 C 120.29 128.62 121.50 146.21 121.75 152.38 C 122.00 158.54 121.48 158.21 121.50 159.50 C 121.52 160.79 117.88 160.00 121.88 160.12 C 125.88 160.25 141.31 160.31 145.50 160.25 C 149.69 160.19 146.73 164.65 147.00 159.75 C 147.27 154.85 146.98 138.17 147.12 130.88 C 147.27 123.58 147.81 119.23 147.88 116.00 C 147.94 112.77 149.42 112.04 147.50 111.50 Z" id="s-4-f-3"/>
</g>
<g id="s-5" clip-path="url(#c-s-5)">
<use href="#s-5-f-0"/>
<path d="M 182.25 252.12 C 180.06 251.77 176.75 251.98 175.00 252.12 C 173.25 252.27 172.96 252.54 171.75 253.00 C 170.54 253.46 169.81 254.27 167.75 254.88 C 165.69 255.48 162.54 256.12 159.38 256.62 C 156.21 257.12 151.75 257.71 148.75 257.88 C 145.75 258.04 142.90 257.56 141.38 257.62 C 139.85 257.69 141.12 258.06 139.62 258.25 C 138.12 258.44 134.04 258.54 132.38 258.75 C 130.71 258.96 131.04 259.33 129.62 259.50 C 128.21 259.67 125.96 259.40 123.88 259.75 C 121.79 260.10 120.02 260.96 117.12 261.62 C 114.23 262.29 110.23 263.10 106.50 263.75 C 102.77 264.40 97.73 265.19 94.75 265.50 C 91.77 265.81 89.98 265.73 88.62 265.62 C 87.27 265.52 87.35 265.35 86.62 264.88 C 85.90 264.40 84.71 263.02 84.25 262.75 C 83.79 262.48 83.88 262.88 83.88 263.25 C 83.88 263.62 84.27 264.40 84.25 265.00 C 84.23 265.60 84.04 263.21 83.75 266.88 C 83.46 270.54 82.60 283.52 82.50 287.00 C 82.40 290.48 82.04 288.06 83.12 287.75 C 84.21 287.44 86.50 286.08 89.00 285.12 C 91.50 284.17 94.71 283.02 98.12 282.00 C 101.54 280.98 105.31 280.00 109.50 279.00 C 113.69 278.00 118.77 276.83 123.25 276.00 C 127.73 275.17 132.54 274.50 136.38 274.00 C 140.21 273.50 140.54 273.33 146.25 273.00 C 151.96 272.67 166.06 272.00 170.62 272.00 C 175.19 272.00 172.75 272.44 173.62 273.00 C 174.50 273.56 175.38 273.46 175.88 275.38 C 176.38 277.29 176.48 278.52 176.62 284.50 C 176.77 290.48 176.88 304.08 176.75 311.25 C 176.62 318.42 176.38 321.69 175.88 327.50 C 175.38 333.31 174.60 340.19 173.75 346.12 C 172.90 352.06 172.08 357.10 170.75 363.12 C 169.42 369.15 170.04 369.52 165.75 382.25 C 161.46 394.98 148.46 429.65 145.00 439.50 C 141.54 449.35 144.83 440.77 145.00 441.38 C 145.17 441.98 145.06 442.06 146.00 443.12 C 146.94 444.19 149.08 447.00 150.62 447.75 C 152.17 448.50 153.46 448.10 155.25 447.62 C 157.04 447.15 159.73 445.79 161.38 444.88 C 163.02 443.96 163.33 443.75 165.12 442.12 C 166.92 440.50 170.15 437.31 172.12 435.12 C 174.10 432.94 175.40 431.33 177.00 429.00 C 178.60 426.67 179.96 424.81 181.75 421.12 C 183.54 417.44 186.08 411.58 187.75 406.88 C 189.42 402.17 190.58 397.85 191.75 392.88 C 192.92 387.90 192.71 392.81 194.75 377.00 C 196.79 361.19 201.96 313.27 204.00 298.00 C 206.04 282.73 205.71 289.08 207.00 285.38 C 208.29 281.67 210.96 277.98 211.75 275.75 C 212.54 273.52 211.98 273.00 211.75 272.00 C 211.52 271.00 211.38 270.88 210.38 269.75 C 209.38 268.62 208.58 267.38 205.75 265.25 C 202.92 263.12 196.31 258.83 193.38 257.00 C 190.44 255.17 189.98 255.06 188.12 254.25 C 186.27 253.44 184.44 252.48 182.25 252.12 Z" id="s-5-f-1"/>
<path d="M 84.25 262.88 C 83.79 262.60 83.88 262.88 83.88 263.25 C 83.88 263.62 84.27 264.50 84.25 265.12 C 84.23 265.75 83.90 265.06 83.75 267.00 C 83.60 268.94 83.56 274.35 83.38 276.75 C 83.19 279.15 82.77 279.67 82.62 281.38 C 82.48 283.08 82.42 285.94 82.50 287.00 C 82.58 288.06 82.04 288.06 83.12 287.75 C 84.21 287.44 86.50 286.08 89.00 285.12 C 91.50 284.17 93.98 283.19 98.12 282.00 C 102.27 280.81 108.67 279.17 113.88 278.00 C 119.08 276.83 123.98 275.83 129.38 275.00 C 134.77 274.17 140.31 273.50 146.25 273.00 C 152.19 272.50 160.83 272.15 165.00 272.00 C 169.17 271.85 169.81 271.96 171.25 272.12 C 172.69 272.29 172.94 272.60 173.62 273.00 C 174.31 273.40 175.00 274.10 175.38 274.50 C 175.75 274.90 175.67 273.71 175.88 275.38 C 176.08 277.04 176.48 278.52 176.62 284.50 C 176.77 290.48 176.88 304.08 176.75 311.25 C 176.62 318.42 176.35 321.83 175.88 327.50 C 175.40 333.17 174.56 340.15 173.88 345.25 C 173.19 350.35 172.60 353.73 171.75 358.12 C 170.90 362.52 170.27 366.02 168.75 371.62 C 167.23 377.23 164.12 387.29 162.62 391.75 C 161.12 396.21 160.69 395.90 159.75 398.38 C 158.81 400.85 157.08 405.19 157.00 406.62 C 156.92 408.06 154.19 406.96 159.25 407.00 C 164.31 407.04 182.29 407.96 187.38 406.88 C 192.46 405.79 188.69 404.44 189.75 400.50 C 190.81 396.56 192.77 388.25 193.75 383.25 C 194.73 378.25 193.92 384.71 195.62 370.50 C 197.33 356.29 202.10 312.19 204.00 298.00 C 205.90 283.81 205.71 289.08 207.00 285.38 C 208.29 281.67 210.94 277.88 211.75 275.75 C 212.56 273.62 212.04 273.54 211.88 272.62 C 211.71 271.71 211.77 271.48 210.75 270.25 C 209.73 269.02 208.35 267.29 205.75 265.25 C 203.15 263.21 198.06 259.83 195.12 258.00 C 192.19 256.17 190.42 255.25 188.12 254.25 C 185.83 253.25 183.54 252.35 181.38 252.00 C 179.21 251.65 176.73 251.96 175.12 252.12 C 173.52 252.29 172.98 252.54 171.75 253.00 C 170.52 253.46 170.02 254.25 167.75 254.88 C 165.48 255.50 161.29 256.25 158.12 256.75 C 154.96 257.25 151.54 257.73 148.75 257.88 C 145.96 258.02 142.90 257.56 141.38 257.62 C 139.85 257.69 141.15 258.06 139.62 258.25 C 138.10 258.44 133.92 258.54 132.25 258.75 C 130.58 258.96 131.02 259.33 129.62 259.50 C 128.23 259.67 127.73 259.04 123.88 259.75 C 120.02 260.46 111.35 262.79 106.50 263.75 C 101.65 264.71 97.73 265.19 94.75 265.50 C 91.77 265.81 89.98 265.73 88.62 265.62 C 87.27 265.52 87.35 265.33 86.62 264.88 C 85.90 264.42 84.71 263.15 84.25 262.88 Z" id="s-5-f-2"/>
<path d="M 84.25 262.75 C 83.79 262.48 83.88 262.85 83.88 263.25 C 83.88 263.65 84.27 264.50 84.25 265.12 C 84.23 265.75 83.90 265.06 83.75 267.00 C 83.60 268.94 83.56 274.35 83.38 276.75 C 83.19 279.15 82.77 279.75 82.62 281.38 C 82.48 283.00 82.42 285.44 82.50 286.50 C 82.58 287.56 82.04 287.98 83.12 287.75 C 84.21 287.52 86.50 286.08 89.00 285.12 C 91.50 284.17 93.98 283.19 98.12 282.00 C 102.27 280.81 108.83 279.15 113.88 278.00 C 118.92 276.85 123.00 275.96 128.38 275.12 C 133.75 274.29 140.02 273.52 146.12 273.00 C 152.23 272.48 160.96 272.17 165.00 272.00 C 169.04 271.83 168.88 271.79 170.38 272.00 C 171.88 272.21 173.08 272.69 174.00 273.25 C 174.92 273.81 175.48 274.25 175.88 275.38 C 176.27 276.50 176.23 274.02 176.38 280.00 C 176.52 285.98 177.00 301.62 176.75 311.25 C 176.50 320.88 175.71 329.90 174.88 337.75 C 174.04 345.60 172.21 354.85 171.75 358.38 C 171.29 361.90 168.27 358.77 172.12 358.88 C 175.98 358.98 190.75 359.06 194.88 359.00 C 199.00 358.94 195.35 368.67 196.88 358.50 C 198.40 348.33 202.31 310.19 204.00 298.00 C 205.69 285.81 206.17 288.23 207.00 285.38 C 207.83 282.52 208.38 282.06 209.00 280.88 C 209.62 279.69 210.27 279.27 210.75 278.25 C 211.23 277.23 211.71 275.79 211.88 274.75 C 212.04 273.71 211.94 272.75 211.75 272.00 C 211.56 271.25 211.75 271.38 210.75 270.25 C 209.75 269.12 208.35 267.29 205.75 265.25 C 203.15 263.21 197.73 259.67 195.12 258.00 C 192.52 256.33 191.77 256.06 190.12 255.25 C 188.48 254.44 186.73 253.67 185.25 253.12 C 183.77 252.58 183.02 252.15 181.25 252.00 C 179.48 251.85 176.21 252.08 174.62 252.25 C 173.04 252.42 172.90 252.56 171.75 253.00 C 170.60 253.44 169.81 254.27 167.75 254.88 C 165.69 255.48 162.54 256.12 159.38 256.62 C 156.21 257.12 151.75 257.71 148.75 257.88 C 145.75 258.04 142.90 257.56 141.38 257.62 C 139.85 257.69 141.15 258.06 139.62 258.25 C 138.10 258.44 133.94 258.54 132.25 258.75 C 130.56 258.96 130.90 259.33 129.50 259.50 C 128.10 259.67 125.90 259.40 123.88 259.75 C 121.85 260.10 120.12 260.98 117.38 261.62 C 114.62 262.27 111.62 262.94 107.38 263.62 C 103.12 264.31 95.12 265.46 91.88 265.75 C 88.62 266.04 88.75 265.52 87.88 265.38 C 87.00 265.23 87.23 265.31 86.62 264.88 C 86.02 264.44 84.71 263.02 84.25 262.75 Z" id="s-5-f-3"/>
<path d="M 211.88 272.62 C 211.62 271.52 211.15 270.73 210.12 269.50 C 209.10 268.27 208.25 267.17 205.75 265.25 C 203.25 263.33 198.06 259.83 195.12 258.00 C 192.19 256.17 190.12 255.19 188.12 254.25 C 186.12 253.31 185.15 252.75 183.12 252.38 C 181.10 252.00 177.90 251.90 176.00 252.00 C 174.10 252.10 173.12 252.52 171.75 253.00 C 170.38 253.48 169.81 254.27 167.75 254.88 C 165.69 255.48 162.54 256.12 159.38 256.62 C 156.21 257.12 151.75 257.71 148.75 257.88 C 145.75 258.04 142.90 257.56 141.38 257.62 C 139.85 257.69 141.15 258.06 139.62 258.25 C 138.10 258.44 133.94 258.54 132.25 258.75 C 130.56 258.96 130.90 259.33 129.50 259.50 C 128.10 259.67 125.90 259.40 123.88 259.75 C 121.85 260.10 120.12 260.98 117.38 261.62 C 114.62 262.27 111.62 262.94 107.38 263.62 C 103.12 264.31 95.12 265.46 91.88 265.75 C 88.62 266.04 88.75 265.52 87.88 265.38 C 87.00 265.23 87.23 265.31 86.62 264.88 C 86.02 264.44 84.71 263.02 84.25 262.75 C 83.79 262.48 83.88 262.85 83.88 263.25 C 83.88 263.65 84.27 264.50 84.25 265.12 C 84.23 265.75 84.04 263.44 83.75 267.00 C 83.46 270.56 82.67 283.06 82.50 286.50 C 82.33 289.94 82.56 287.42 82.75 287.62 C 82.94 287.83 82.58 288.17 83.62 287.75 C 84.67 287.33 86.58 286.08 89.00 285.12 C 91.42 284.17 93.98 283.19 98.12 282.00 C 102.27 280.81 108.83 279.15 113.88 278.00 C 118.92 276.85 123.00 275.96 128.38 275.12 C 133.75 274.29 140.02 273.52 146.12 273.00 C 152.23 272.48 160.81 272.15 165.00 272.00 C 169.19 271.85 169.75 271.92 171.25 272.12 C 172.75 272.33 173.23 272.71 174.00 273.25 C 174.77 273.79 175.42 272.73 175.88 275.38 C 176.33 278.02 176.60 283.29 176.75 289.12 C 176.90 294.96 175.46 306.73 176.75 310.38 C 178.04 314.02 180.29 310.92 184.50 311.00 C 188.71 311.08 198.98 311.04 202.00 310.88 C 205.02 310.71 202.29 312.15 202.62 310.00 C 202.96 307.85 203.44 301.56 204.00 298.00 C 204.56 294.44 205.35 291.10 206.00 288.62 C 206.65 286.15 206.94 285.21 207.88 283.12 C 208.81 281.04 210.96 277.88 211.62 276.12 C 212.29 274.38 212.12 273.73 211.88 272.62 Z" id="s-5-f-4"/>
<path d="M 201.25 262.25 C 200.29 261.35 197.31 259.33 195.12 258.00 C 192.94 256.67 190.27 255.23 188.12 254.25 C 185.98 253.27 184.27 252.50 182.25 252.12 C 180.23 251.75 177.75 251.85 176.00 252.00 C 174.25 252.15 173.12 252.52 171.75 253.00 C 170.38 253.48 169.81 254.27 167.75 254.88 C 165.69 255.48 162.54 256.12 159.38 256.62 C 156.21 257.12 151.75 257.71 148.75 257.88 C 145.75 258.04 142.90 257.56 141.38 257.62 C 139.85 257.69 141.15 258.06 139.62 258.25 C 138.10 258.44 133.94 258.54 132.25 258.75 C 130.56 258.96 130.90 259.33 129.50 259.50 C 128.10 259.67 125.90 259.40 123.88 259.75 C 121.85 260.10 120.12 260.98 117.38 261.62 C 114.62 262.27 111.62 262.94 107.38 263.62 C 103.12 264.31 95.12 265.46 91.88 265.75 C 88.62 266.04 88.75 265.52 87.88 265.38 C 87.00 265.23 87.23 265.31 86.62 264.88 C 86.02 264.44 84.71 263.02 84.25 262.75 C 83.79 262.48 83.88 262.85 83.88 263.25 C 83.88 263.65 84.27 264.50 84.25 265.12 C 84.23 265.75 83.90 265.06 83.75 267.00 C 83.60 268.94 83.56 274.35 83.38 276.75 C 83.19 279.15 82.75 279.60 82.62 281.38 C 82.50 283.15 82.46 286.31 82.62 287.38 C 82.79 288.44 82.56 288.12 83.62 287.75 C 84.69 287.38 86.58 286.08 89.00 285.12 C 91.42 284.17 92.42 283.52 98.12 282.00 C 103.83 280.48 115.38 277.50 123.25 276.00 C 131.12 274.50 137.56 273.71 145.38 273.00 C 153.19 272.29 160.88 273.35 170.12 271.75 C 179.38 270.15 195.69 264.96 200.88 263.38 C 206.06 261.79 202.21 263.15 201.25 262.25 Z" id="s-5-f-5"/>
<path d="M 179.00 252.50 C 178.81 249.85 178.54 252.06 177.88 252.00 C 177.21 251.94 176.02 251.96 175.00 252.12 C 173.98 252.29 172.96 252.54 171.75 253.00 C 170.54 253.46 169.81 254.27 167.75 254.88 C 165.69 255.48 162.54 256.12 159.38 256.62 C 156.21 257.12 151.75 257.71 148.75 257.88 C 145.75 258.04 142.90 257.56 141.38 257.62 C 139.85 257.69 141.15 258.06 139.62 258.25 C 138.10 258.44 133.94 258.54 132.25 258.75 C 130.56 258.96 130.90 259.33 129.50 259.50 C 128.10 259.67 125.90 259.40 123.88 259.75 C 121.85 260.10 120.12 260.98 117.38 261.62 C 114.62 262.27 111.17 262.98 107.38 263.62 C 103.58 264.27 97.75 265.17 94.62 265.50 C 91.50 265.83 89.96 265.73 88.62 265.62 C 87.29 265.52 87.35 265.35 86.62 264.88 C 85.90 264.40 84.71 263.02 84.25 262.75 C 83.79 262.48 83.88 262.85 83.88 263.25 C 83.88 263.65 84.27 264.50 84.25 265.12 C 84.23 265.75 83.90 265.06 83.75 267.00 C 83.60 268.94 83.56 274.35 83.38 276.75 C 83.19 279.15 82.75 279.60 82.62 281.38 C 82.50 283.15 82.46 286.31 82.62 287.38 C 82.79 288.44 82.56 288.12 83.62 287.75 C 84.69 287.38 86.58 286.08 89.00 285.12 C 91.42 284.17 92.42 283.52 98.12 282.00 C 103.83 280.48 115.35 277.50 123.25 276.00 C 131.15 274.50 137.69 273.71 145.50 273.00 C 153.31 272.29 164.71 272.29 170.12 271.75 C 175.54 271.21 176.56 270.17 178.00 269.75 C 179.44 269.33 178.58 269.56 178.75 269.25 C 178.92 268.94 178.96 270.67 179.00 267.88 C 179.04 265.08 179.19 255.15 179.00 252.50 Z" id="s-5-f-6"/>
<path d="M 130.88 259.62 C 129.71 257.88 126.12 259.42 123.88 259.75 C 121.62 260.08 120.12 260.98 117.38 261.62 C 114.62 262.27 111.62 262.94 107.38 263.62 C 103.12 264.31 95.12 265.46 91.88 265.75 C 88.62 266.04 89.17 265.88 87.88 265.38 C 86.58 264.88 84.85 261.10 84.12 262.75 C 83.40 264.40 83.75 272.15 83.50 275.25 C 83.25 278.35 82.75 279.31 82.62 281.38 C 82.50 283.44 82.58 286.56 82.75 287.62 C 82.92 288.69 82.58 288.17 83.62 287.75 C 84.67 287.33 86.58 286.08 89.00 285.12 C 91.42 284.17 94.71 283.02 98.12 282.00 C 101.54 280.98 104.21 280.19 109.50 279.00 C 114.79 277.81 126.38 275.71 129.88 274.88 C 133.38 274.04 130.33 274.77 130.50 274.00 C 130.67 273.23 130.81 272.65 130.88 270.25 C 130.94 267.85 132.04 261.38 130.88 259.62 Z" id="s-5-f-7"/>
</g>
<g id="s-6" clip-path="url(#c-s-6)">
<use href="#s-6-f-0"/>
<path d="M 45.25 317.00 C 44.48 316.58 43.79 316.79 43.25 317.00 C 42.71 317.21 42.60 316.52 42.00 318.25 C 41.40 319.98 40.54 324.40 39.62 327.38 C 38.71 330.35 37.58 333.35 36.50 336.12 C 35.42 338.90 33.75 342.38 33.12 344.00 C 32.50 345.62 32.94 345.42 32.75 345.88 C 32.56 346.33 33.12 344.23 32.00 346.75 C 30.88 349.27 27.08 358.15 26.00 361.00 C 24.92 363.85 25.50 363.23 25.50 363.88 C 25.50 364.52 21.73 364.69 26.00 364.88 C 30.27 365.06 46.62 365.00 51.12 365.00 C 55.62 365.00 52.58 365.00 53.00 364.88 C 53.42 364.75 53.17 366.56 53.62 364.25 C 54.08 361.94 55.42 355.12 55.75 351.00 C 56.08 346.88 55.96 342.54 55.62 339.50 C 55.29 336.46 54.75 335.52 53.75 332.75 C 52.75 329.98 50.60 325.08 49.62 322.88 C 48.65 320.67 48.60 320.48 47.88 319.50 C 47.15 318.52 46.02 317.42 45.25 317.00 Z" id="s-6-f-1"/>
</g>
<g id="s-7" clip-path="url(#c-s-7)">
<use href="#s-7-f-0"/>
<path d="M 64.75 317.00 C 64.00 317.12 64.15 317.31 64.00 317.75 C 63.85 318.19 63.67 318.52 63.88 319.62 C 64.08 320.73 63.40 319.77 65.25 324.38 C 67.10 328.98 72.69 342.02 75.00 347.25 C 77.31 352.48 77.65 352.96 79.12 355.75 C 80.60 358.54 82.85 362.46 83.88 364.00 C 84.90 365.54 83.27 364.85 85.25 365.00 C 87.23 365.15 93.67 365.35 95.75 364.88 C 97.83 364.40 97.25 363.23 97.75 362.12 C 98.25 361.02 98.58 360.73 98.75 358.25 C 98.92 355.77 98.94 350.04 98.75 347.25 C 98.56 344.46 98.29 343.65 97.62 341.50 C 96.96 339.35 95.94 336.46 94.75 334.38 C 93.56 332.29 92.27 330.71 90.50 329.00 C 88.73 327.29 87.27 325.96 84.12 324.12 C 80.98 322.29 74.23 319.19 71.62 318.00 C 69.02 316.81 69.65 317.17 68.50 317.00 C 67.35 316.83 65.50 316.88 64.75 317.00 Z" id="s-7-f-1"/>
</g>
<g id="s-8" clip-path="url(#c-s-8)">
<use href="#s-8-f-0"/>
</g>
<g id="s-9" clip-path="url(#c-s-9)">
<use href="#s-9-f-0"/>
</g>
<g id="s-10" clip-path="url(#c-s-10)">
<use href="#s-10-f-0"/>
<path d="M 424.00 107.75 C 423.96 106.69 424.08 106.90 423.62 106.25 C 423.17 105.60 423.33 105.08 421.25 103.88 C 419.17 102.67 414.31 100.29 411.12 99.00 C 407.94 97.71 404.67 96.62 402.12 96.12 C 399.58 95.62 397.98 95.58 395.88 96.00 C 393.77 96.42 392.40 97.65 389.50 98.62 C 386.60 99.60 385.17 100.19 378.50 101.88 C 371.83 103.56 354.85 107.58 349.50 108.75 C 344.15 109.92 351.02 108.17 346.38 108.88 C 341.73 109.58 327.08 112.00 321.62 113.00 C 316.17 114.00 319.81 113.73 313.62 114.88 C 307.44 116.02 295.10 118.23 284.50 119.88 C 273.90 121.52 257.90 123.73 250.00 124.75 C 242.10 125.77 239.85 125.62 237.12 126.00 C 234.40 126.38 234.50 126.58 233.62 127.00 C 232.75 127.42 232.17 128.10 231.88 128.50 C 231.58 128.90 231.71 128.79 231.88 129.38 C 232.04 129.96 232.23 131.06 232.88 132.00 C 233.52 132.94 234.58 134.06 235.75 135.00 C 236.92 135.94 238.15 136.85 239.88 137.62 C 241.60 138.40 244.00 139.12 246.12 139.62 C 248.25 140.12 248.52 140.44 252.62 140.62 C 256.73 140.81 265.65 140.90 270.75 140.75 C 275.85 140.60 271.10 141.23 283.25 139.75 C 295.40 138.27 332.29 133.48 343.62 131.88 C 354.96 130.27 349.15 130.48 351.25 130.12 C 353.35 129.77 349.56 130.81 356.25 129.75 C 362.94 128.69 383.29 125.25 391.38 123.75 C 399.46 122.25 400.27 121.94 404.75 120.75 C 409.23 119.56 415.38 117.65 418.25 116.62 C 421.12 115.60 421.06 115.29 422.00 114.62 C 422.94 113.96 423.54 113.77 423.88 112.62 C 424.21 111.48 424.04 108.81 424.00 107.75 Z" id="s-10-f-1"/>
<path d="M 375.75 103.12 C 375.60 99.54 379.52 101.81 375.12 102.75 C 370.73 103.69 354.17 107.73 349.38 108.75 C 344.58 109.77 351.00 108.17 346.38 108.88 C 341.75 109.58 326.98 112.02 321.62 113.00 C 316.27 113.98 320.44 113.60 314.25 114.75 C 308.06 115.90 295.21 118.21 284.50 119.88 C 273.79 121.54 257.90 123.73 250.00 124.75 C 242.10 125.77 239.85 125.62 237.12 126.00 C 234.40 126.38 234.50 126.58 233.62 127.00 C 232.75 127.42 232.15 127.94 231.88 128.50 C 231.60 129.06 231.83 129.79 232.00 130.38 C 232.17 130.96 232.25 131.23 232.88 132.00 C 233.50 132.77 234.15 133.88 235.75 135.00 C 237.35 136.12 239.42 137.79 242.50 138.75 C 245.58 139.71 249.44 140.42 254.25 140.75 C 259.06 141.08 265.08 141.08 271.38 140.75 C 277.67 140.42 284.10 139.71 292.00 138.75 C 299.90 137.79 313.65 135.65 318.75 135.00 C 323.85 134.35 313.19 136.27 322.62 134.88 C 332.06 133.48 366.48 128.40 375.38 126.62 C 384.27 124.85 375.94 128.17 376.00 124.25 C 376.06 120.33 375.90 106.71 375.75 103.12 Z" id="s-10-f-2"/>
<path d="M 327.88 112.62 C 327.71 109.25 331.10 111.44 327.00 112.12 C 322.90 112.81 313.52 114.98 303.25 116.75 C 292.98 118.52 276.52 121.19 265.38 122.75 C 254.23 124.31 241.79 125.33 236.38 126.12 C 230.96 126.92 233.62 127.10 232.88 127.50 C 232.12 127.90 232.02 128.02 231.88 128.50 C 231.73 128.98 231.50 129.42 232.00 130.38 C 232.50 131.33 233.56 133.04 234.88 134.25 C 236.19 135.46 237.98 136.73 239.88 137.62 C 241.77 138.52 243.90 139.10 246.25 139.62 C 248.60 140.15 249.83 140.56 254.00 140.75 C 258.17 140.94 266.17 140.94 271.25 140.75 C 276.33 140.56 275.12 140.75 284.50 139.62 C 293.88 138.50 320.25 135.21 327.50 134.00 C 334.75 132.79 327.94 135.94 328.00 132.38 C 328.06 128.81 328.04 116.00 327.88 112.62 Z" id="s-10-f-3"/>
<path d="M 279.88 139.62 C 281.29 136.54 280.08 125.42 280.00 122.25 C 279.92 119.08 284.38 120.21 279.38 120.62 C 274.38 121.04 256.06 124.00 250.00 124.75 C 243.94 125.50 245.27 124.90 243.00 125.12 C 240.73 125.35 237.94 125.81 236.38 126.12 C 234.81 126.44 234.29 126.71 233.62 127.00 C 232.96 127.29 232.67 127.56 232.38 127.88 C 232.08 128.19 231.94 128.46 231.88 128.88 C 231.81 129.29 231.83 129.85 232.00 130.38 C 232.17 130.90 232.25 131.23 232.88 132.00 C 233.50 132.77 234.58 134.06 235.75 135.00 C 236.92 135.94 238.12 136.85 239.88 137.62 C 241.62 138.40 244.12 139.12 246.25 139.62 C 248.38 140.12 248.42 140.44 252.62 140.62 C 256.83 140.81 266.96 140.92 271.50 140.75 C 276.04 140.58 278.46 142.71 279.88 139.62 Z" id="s-10-f-4"/>
</g>
<g id="s-11" clip-path="url(#c-s-11)">
<use href="#s-11-f-0"/>
<path d="M 287.38 163.00 C 286.12 162.17 286.23 161.98 283.62 161.00 C 281.02 160.02 274.60 157.79 271.75 157.12 C 268.90 156.46 267.60 156.83 266.50 157.00 C 265.40 157.17 265.58 155.48 265.12 158.12 C 264.67 160.77 265.12 167.10 263.75 172.88 C 262.38 178.65 259.19 187.35 256.88 192.75 C 254.56 198.15 251.77 201.52 249.88 205.25 C 247.98 208.98 247.35 211.48 245.50 215.12 C 243.65 218.77 241.25 222.96 238.75 227.12 C 236.25 231.29 233.27 236.08 230.50 240.12 C 227.73 244.17 223.48 249.25 222.12 251.38 C 220.77 253.50 221.27 252.62 222.38 252.88 C 223.48 253.12 226.54 253.60 228.75 252.88 C 230.96 252.15 233.15 250.48 235.62 248.50 C 238.10 246.52 239.08 245.75 243.62 241.00 C 248.17 236.25 257.50 226.75 262.88 220.00 C 268.25 213.25 273.52 204.21 275.88 200.50 C 278.23 196.79 275.12 200.56 277.00 197.75 C 278.88 194.94 284.48 187.10 287.12 183.62 C 289.77 180.15 291.77 178.35 292.88 176.88 C 293.98 175.40 293.60 175.92 293.75 174.75 C 293.90 173.58 294.19 171.33 293.75 169.88 C 293.31 168.42 292.19 167.15 291.12 166.00 C 290.06 164.85 288.62 163.83 287.38 163.00 Z" id="s-11-f-1"/>
<path d="M 291.75 166.62 C 290.71 165.52 289.12 164.08 287.38 163.00 C 285.62 161.92 283.96 161.12 281.25 160.12 C 278.54 159.12 273.40 157.54 271.12 157.00 C 268.85 156.46 268.52 156.79 267.62 156.88 C 266.73 156.96 266.21 157.21 265.75 157.50 C 265.29 157.79 265.10 156.81 264.88 158.62 C 264.65 160.44 264.73 165.44 264.38 168.38 C 264.02 171.31 264.00 172.19 262.75 176.25 C 261.50 180.31 258.85 188.23 256.88 192.75 C 254.90 197.27 251.92 201.40 250.88 203.38 C 249.83 205.35 250.40 204.35 250.62 204.62 C 250.85 204.90 248.79 204.94 252.25 205.00 C 255.71 205.06 267.92 205.06 271.38 205.00 C 274.83 204.94 272.25 205.38 273.00 204.62 C 273.75 203.88 275.21 201.65 275.88 200.50 C 276.54 199.35 275.62 199.92 277.00 197.75 C 278.38 195.58 281.48 190.98 284.12 187.50 C 286.77 184.02 291.27 179.02 292.88 176.88 C 294.48 174.73 293.62 175.83 293.75 174.62 C 293.88 173.42 293.96 170.96 293.62 169.62 C 293.29 168.29 292.79 167.73 291.75 166.62 Z" id="s-11-f-2"/>
</g>
<g id="s-12" clip-path="url(#c-s-12)">
<use href="#s-12-f-0"/>
<path d="M 220.75 174.00 C 220.06 174.21 220.00 174.71 219.88 175.38 C 219.75 176.04 219.69 177.08 220.00 178.00 C 220.31 178.92 217.23 176.17 221.75 180.88 C 226.27 185.58 242.52 201.52 247.12 206.25 C 251.73 210.98 246.77 206.62 249.38 209.25 C 251.98 211.88 259.73 218.94 262.75 222.00 C 265.77 225.06 266.58 229.50 267.50 227.62 C 268.42 225.75 268.21 215.56 268.25 210.75 C 268.29 205.94 269.35 201.62 267.75 198.75 C 266.15 195.88 260.23 194.50 258.62 193.50 C 257.02 192.50 258.50 192.92 258.12 192.75 C 257.75 192.58 258.38 193.62 256.38 192.50 C 254.38 191.38 251.52 189.06 246.12 186.00 C 240.73 182.94 228.23 176.12 224.00 174.12 C 219.77 172.12 221.44 173.79 220.75 174.00 Z" id="s-12-f-1"/>
</g>
<g id="s-13" clip-path="url(#c-s-13)">
<use href="#s-13-f-0"/>
<path d="M 288.00 264.88 C 286.60 263.42 284.50 261.65 281.50 260.00 C 278.50 258.35 272.65 256.02 270.00 255.00 C 267.35 253.98 266.98 253.98 265.62 253.88 C 264.27 253.77 262.67 254.08 261.88 254.38 C 261.08 254.67 261.10 254.21 260.88 255.62 C 260.65 257.04 260.85 260.44 260.50 262.88 C 260.15 265.31 260.38 266.23 258.75 270.25 C 257.12 274.27 252.73 283.31 250.75 287.00 C 248.77 290.69 248.42 289.96 246.88 292.38 C 245.33 294.79 242.12 299.90 241.50 301.50 C 240.88 303.10 239.40 301.96 243.12 302.00 C 246.85 302.04 259.73 302.56 263.88 301.75 C 268.02 300.94 266.92 298.52 268.00 297.12 C 269.08 295.73 268.67 295.50 270.38 293.38 C 272.08 291.25 275.17 287.60 278.25 284.38 C 281.33 281.15 286.96 276.04 288.88 274.00 C 290.79 271.96 289.58 273.00 289.75 272.12 C 289.92 271.25 290.17 269.96 289.88 268.75 C 289.58 267.54 289.40 266.33 288.00 264.88 Z" id="s-13-f-1"/>
</g>
<g id="s-14" clip-path="url(#c-s-14)">
<use href="#s-14-f-0"/>
<path d="M 216.75 270.00 C 216.17 270.12 216.12 270.19 216.00 270.75 C 215.88 271.31 215.56 272.35 216.00 273.38 C 216.44 274.40 214.54 272.52 218.62 276.88 C 222.71 281.23 236.56 295.29 240.50 299.50 C 244.44 303.71 239.90 299.75 242.25 302.12 C 244.60 304.50 251.15 310.19 254.62 313.75 C 258.10 317.31 261.58 321.88 263.12 323.50 C 264.67 325.12 263.73 328.44 263.88 323.50 C 264.02 318.56 265.62 299.73 264.00 293.88 C 262.38 288.02 256.15 289.58 254.12 288.38 C 252.10 287.17 252.46 286.92 251.88 286.62 C 251.29 286.33 255.33 289.21 250.62 286.62 C 245.92 284.04 228.81 273.90 223.62 271.12 C 218.44 268.35 220.65 270.19 219.50 270.00 C 218.35 269.81 217.33 269.88 216.75 270.00 Z" id="s-14-f-1"/>
</g>
<g id="s-15" clip-path="url(#c-s-15)">
<use href="#s-15-f-0"/>
<path d="M 431.75 147.88 C 430.79 146.96 429.38 145.83 428.12 145.00 C 426.88 144.17 427.02 143.88 424.25 142.88 C 421.48 141.88 414.33 139.62 411.50 139.00 C 408.67 138.38 408.15 138.94 407.25 139.12 C 406.35 139.31 406.52 137.98 406.12 140.12 C 405.73 142.27 405.29 149.31 404.88 152.00 C 404.46 154.69 404.81 153.40 403.62 156.25 C 402.44 159.10 399.90 164.83 397.75 169.12 C 395.60 173.42 392.92 178.40 390.75 182.00 C 388.58 185.60 386.75 187.58 384.75 190.75 C 382.75 193.92 380.40 198.42 378.75 201.00 C 377.10 203.58 378.27 201.98 374.88 206.25 C 371.48 210.52 362.33 221.96 358.38 226.62 C 354.42 231.29 352.29 232.88 351.12 234.25 C 349.96 235.62 349.96 234.77 351.38 234.88 C 352.79 234.98 357.62 235.33 359.62 234.88 C 361.62 234.42 362.25 232.81 363.38 232.12 C 364.50 231.44 364.27 232.19 366.38 230.75 C 368.48 229.31 371.56 227.29 376.00 223.50 C 380.44 219.71 387.02 214.38 393.00 208.00 C 398.98 201.62 406.92 191.50 411.88 185.25 C 416.83 179.00 419.10 174.85 422.75 170.50 C 426.40 166.15 431.73 161.52 433.75 159.12 C 435.77 156.73 434.71 157.21 434.88 156.12 C 435.04 155.04 434.92 153.56 434.75 152.62 C 434.58 151.69 434.38 151.29 433.88 150.50 C 433.38 149.71 432.71 148.79 431.75 147.88 Z" id="s-15-f-1"/>
<path d="M 433.00 149.25 C 431.94 148.06 430.04 146.19 428.25 145.00 C 426.46 143.81 425.04 143.12 422.25 142.12 C 419.46 141.12 413.81 139.54 411.50 139.00 C 409.19 138.46 409.17 138.79 408.38 138.88 C 407.58 138.96 407.17 139.21 406.75 139.50 C 406.33 139.79 406.19 138.54 405.88 140.62 C 405.56 142.71 405.25 149.40 404.88 152.00 C 404.50 154.60 404.81 153.40 403.62 156.25 C 402.44 159.10 400.40 164.06 397.75 169.12 C 395.10 174.19 389.17 183.65 387.75 186.62 C 386.33 189.60 385.50 186.98 389.25 187.00 C 393.00 187.02 406.65 186.85 410.25 186.75 C 413.85 186.65 408.79 189.08 410.88 186.38 C 412.96 183.67 418.94 175.04 422.75 170.50 C 426.56 165.96 431.75 161.40 433.75 159.12 C 435.75 156.85 434.60 158.04 434.75 156.88 C 434.90 155.71 434.92 153.40 434.62 152.12 C 434.33 150.85 434.06 150.44 433.00 149.25 Z" id="s-15-f-2"/>
</g>
<g id="s-16" clip-path="url(#c-s-16)">
<use href="#s-16-f-0"/>
<path d="M 355.75 163.00 C 355.17 163.12 355.12 163.19 355.00 163.75 C 354.88 164.31 354.69 165.48 355.00 166.38 C 355.31 167.27 352.44 164.25 356.88 169.12 C 361.31 174.00 377.15 190.58 381.62 195.62 C 386.10 200.67 382.27 197.29 383.75 199.38 C 385.23 201.46 389.00 206.35 390.50 208.12 C 392.00 209.90 390.73 207.81 392.75 210.00 C 394.77 212.19 400.92 219.69 402.62 221.25 C 404.33 222.81 402.92 224.65 403.00 219.38 C 403.08 214.10 404.73 195.73 403.12 189.62 C 401.52 183.52 395.52 184.10 393.38 182.75 C 391.23 181.40 395.40 184.62 390.25 181.50 C 385.10 178.38 367.79 167.08 362.50 164.00 C 357.21 160.92 359.62 163.17 358.50 163.00 C 357.38 162.83 356.33 162.88 355.75 163.00 Z" id="s-16-f-1"/>
</g>
<g id="s-17" clip-path="url(#c-s-17)">
<use href="#s-17-f-0"/>
<path d="M 443.88 257.75 C 442.96 256.46 441.25 254.46 439.38 253.00 C 437.50 251.54 436.10 250.31 432.62 249.00 C 429.15 247.69 421.77 245.77 418.50 245.12 C 415.23 244.48 414.10 244.88 413.00 245.12 C 411.90 245.38 412.12 245.40 411.88 246.62 C 411.62 247.85 411.85 250.38 411.50 252.50 C 411.15 254.62 412.08 254.90 409.75 259.38 C 407.42 263.85 401.19 273.83 397.50 279.38 C 393.81 284.92 388.96 290.35 387.62 292.62 C 386.29 294.90 384.92 292.98 389.50 293.00 C 394.08 293.02 408.50 295.35 415.12 292.75 C 421.75 290.15 425.85 280.88 429.25 277.38 C 432.65 273.88 433.35 273.44 435.50 271.75 C 437.65 270.06 440.71 268.31 442.12 267.25 C 443.54 266.19 443.56 265.96 444.00 265.38 C 444.44 264.79 444.60 264.52 444.75 263.75 C 444.90 262.98 445.02 261.75 444.88 260.75 C 444.73 259.75 444.79 259.04 443.88 257.75 Z" id="s-17-f-1"/>
</g>
<g id="s-18" clip-path="url(#c-s-18)">
<use href="#s-18-f-0"/>
<path d="M 359.75 264.00 C 359.23 264.12 359.15 264.25 359.00 264.75 C 358.85 265.25 358.71 266.12 358.88 267.00 C 359.04 267.88 355.69 265.52 360.00 270.00 C 364.31 274.48 380.33 289.50 384.75 293.88 C 389.17 298.25 384.58 294.23 386.50 296.25 C 388.42 298.27 394.25 304.10 396.25 306.00 C 398.25 307.90 396.77 305.85 398.50 307.62 C 400.23 309.40 405.21 315.35 406.62 316.62 C 408.04 317.90 406.90 318.25 407.00 315.25 C 407.10 312.25 407.29 303.21 407.25 298.62 C 407.21 294.04 407.00 289.73 406.75 287.75 C 406.50 285.77 406.15 286.98 405.75 286.75 C 405.35 286.52 405.54 287.04 404.38 286.38 C 403.21 285.71 400.27 283.56 398.75 282.75 C 397.23 281.94 397.98 282.94 395.25 281.50 C 392.52 280.06 386.81 276.54 382.38 274.12 C 377.94 271.71 372.00 268.69 368.62 267.00 C 365.25 265.31 363.60 264.50 362.12 264.00 C 360.65 263.50 360.27 263.88 359.75 264.00 Z" id="s-18-f-1"/>
</g>
<g id="s-19" clip-path="url(#c-s-19)">
<use href="#s-19-f-0"/>
<path d="M 329.75 44.12 C 327.62 43.58 326.31 43.19 323.62 43.00 C 320.94 42.81 315.79 42.83 313.62 43.00 C 311.46 43.17 311.33 43.67 310.62 44.00 C 309.92 44.33 309.81 44.50 309.38 45.00 C 308.94 45.50 308.21 45.65 308.00 47.00 C 307.79 48.35 307.79 50.98 308.12 53.12 C 308.46 55.27 309.21 57.52 310.00 59.88 C 310.79 62.23 311.90 63.50 312.88 67.25 C 313.85 71.00 315.04 76.92 315.88 82.38 C 316.71 87.83 317.40 95.06 317.88 100.00 C 318.35 104.94 318.62 107.48 318.75 112.00 C 318.88 116.52 318.44 123.21 318.62 127.12 C 318.81 131.04 319.71 127.23 319.88 135.50 C 320.04 143.77 319.98 161.69 319.62 176.75 C 319.27 191.81 318.60 211.35 317.75 225.88 C 316.90 240.40 315.83 252.12 314.50 263.88 C 313.17 275.62 311.21 288.31 309.75 296.38 C 308.29 304.44 307.25 306.85 305.75 312.25 C 304.25 317.65 302.40 323.75 300.75 328.75 C 299.10 333.75 297.52 338.02 295.88 342.25 C 294.23 346.48 292.75 350.10 290.88 354.12 C 289.00 358.15 286.65 362.73 284.62 366.38 C 282.60 370.02 280.88 372.85 278.75 376.00 C 276.62 379.15 274.35 382.27 271.88 385.25 C 269.40 388.23 266.08 391.25 263.88 393.88 C 261.67 396.50 260.83 398.25 258.62 401.00 C 256.42 403.75 254.69 406.17 250.62 410.38 C 246.56 414.58 236.96 423.50 234.25 426.25 C 231.54 429.00 229.21 426.77 234.38 426.88 C 239.54 426.98 258.92 427.94 265.25 426.88 C 271.58 425.81 269.29 423.58 272.38 420.50 C 275.46 417.42 280.67 411.92 283.75 408.38 C 286.83 404.83 288.71 402.25 290.88 399.25 C 293.04 396.25 293.62 395.79 296.75 390.38 C 299.88 384.96 307.40 371.02 309.62 366.75 C 311.85 362.48 309.60 365.90 310.12 364.75 C 310.65 363.60 311.15 363.50 312.75 359.88 C 314.35 356.25 317.44 349.12 319.75 343.00 C 322.06 336.88 324.94 328.25 326.62 323.12 C 328.31 318.00 328.69 316.90 329.88 312.25 C 331.06 307.60 333.06 298.73 333.75 295.25 C 334.44 291.77 333.35 295.02 334.00 291.38 C 334.65 287.73 336.67 278.79 337.62 273.38 C 338.58 267.96 338.90 265.85 339.75 258.88 C 340.60 251.90 341.75 243.04 342.75 231.50 C 343.75 219.96 344.90 206.25 345.75 189.62 C 346.60 173.00 347.35 142.15 347.88 131.75 C 348.40 121.35 348.67 128.77 348.88 127.25 C 349.08 125.73 349.08 130.08 349.12 122.62 C 349.17 115.17 348.94 91.10 349.12 82.50 C 349.31 73.90 349.94 73.50 350.25 71.00 C 350.56 68.50 350.60 68.75 351.00 67.50 C 351.40 66.25 352.31 64.71 352.62 63.50 C 352.94 62.29 352.88 61.15 352.88 60.25 C 352.88 59.35 352.81 58.79 352.62 58.12 C 352.44 57.46 352.31 57.04 351.75 56.25 C 351.19 55.46 350.17 54.25 349.25 53.38 C 348.33 52.50 348.40 52.19 346.25 51.00 C 344.10 49.81 339.12 47.40 336.38 46.25 C 333.62 45.10 331.88 44.67 329.75 44.12 Z" id="s-19-f-1"/>
<path d="M 323.62 43.00 C 320.83 42.83 315.17 42.96 313.00 43.12 C 310.83 43.29 311.23 43.69 310.62 44.00 C 310.02 44.31 309.81 44.50 309.38 45.00 C 308.94 45.50 308.21 45.65 308.00 47.00 C 307.79 48.35 307.79 50.98 308.12 53.12 C 308.46 55.27 309.21 57.52 310.00 59.88 C 310.79 62.23 311.90 63.50 312.88 67.25 C 313.85 71.00 315.04 76.92 315.88 82.38 C 316.71 87.83 317.40 95.06 317.88 100.00 C 318.35 104.94 318.62 107.48 318.75 112.00 C 318.88 116.52 318.44 123.21 318.62 127.12 C 318.81 131.04 319.71 127.23 319.88 135.50 C 320.04 143.77 319.85 164.02 319.62 176.75 C 319.40 189.48 319.12 199.46 318.50 211.88 C 317.88 224.29 316.83 240.27 315.88 251.25 C 314.92 262.23 313.77 270.23 312.75 277.75 C 311.73 285.27 310.92 290.62 309.75 296.38 C 308.58 302.12 307.25 306.85 305.75 312.25 C 304.25 317.65 302.40 323.75 300.75 328.75 C 299.10 333.75 297.52 338.02 295.88 342.25 C 294.23 346.48 292.75 350.10 290.88 354.12 C 289.00 358.15 286.94 362.31 284.62 366.38 C 282.31 370.44 278.23 376.42 277.00 378.50 C 275.77 380.58 272.96 378.81 277.25 378.88 C 281.54 378.94 298.35 378.98 302.75 378.88 C 307.15 378.77 302.48 380.27 303.62 378.25 C 304.77 376.23 308.54 369.00 309.62 366.75 C 310.71 364.50 309.60 365.90 310.12 364.75 C 310.65 363.60 311.65 362.25 312.75 359.88 C 313.85 357.50 314.44 356.62 316.75 350.50 C 319.06 344.38 324.46 329.42 326.62 323.12 C 328.79 316.83 328.58 317.29 329.75 312.75 C 330.92 308.21 332.92 299.44 333.62 295.88 C 334.33 292.31 333.50 294.10 334.00 291.38 C 334.50 288.65 335.83 283.69 336.62 279.50 C 337.42 275.31 337.73 274.25 338.75 266.25 C 339.77 258.25 341.58 244.27 342.75 231.50 C 343.92 218.73 344.90 206.25 345.75 189.62 C 346.60 173.00 347.35 142.15 347.88 131.75 C 348.40 121.35 348.67 128.77 348.88 127.25 C 349.08 125.73 349.08 130.08 349.12 122.62 C 349.17 115.17 348.94 91.10 349.12 82.50 C 349.31 73.90 349.94 73.50 350.25 71.00 C 350.56 68.50 350.60 68.75 351.00 67.50 C 351.40 66.25 352.31 64.71 352.62 63.50 C 352.94 62.29 352.88 61.15 352.88 60.25 C 352.88 59.35 352.81 58.79 352.62 58.12 C 352.44 57.46 352.31 57.04 351.75 56.25 C 351.19 55.46 350.17 54.25 349.25 53.38 C 348.33 52.50 348.40 52.19 346.25 51.00 C 344.10 49.81 339.12 47.40 336.38 46.25 C 333.62 45.10 331.88 44.67 329.75 44.12 C 327.62 43.58 326.42 43.17 323.62 43.00 Z" id="s-19-f-2"/>
<path d="M 323.62 43.00 C 320.83 42.83 315.17 42.96 313.00 43.12 C 310.83 43.29 311.23 43.69 310.62 44.00 C 310.02 44.31 309.81 44.50 309.38 45.00 C 308.94 45.50 308.25 46.46 308.00 47.00 C 307.75 47.54 307.88 47.33 307.88 48.25 C 307.88 49.17 307.81 51.08 308.00 52.50 C 308.19 53.92 308.40 54.96 309.00 56.75 C 309.60 58.54 310.83 60.94 311.62 63.25 C 312.42 65.56 313.04 67.44 313.75 70.62 C 314.46 73.81 315.21 77.75 315.88 82.38 C 316.54 87.00 317.27 93.44 317.75 98.38 C 318.23 103.31 318.60 107.21 318.75 112.00 C 318.90 116.79 318.44 123.21 318.62 127.12 C 318.81 131.04 319.75 125.65 319.88 135.50 C 320.00 145.35 319.75 170.85 319.38 186.25 C 319.00 201.65 318.21 217.04 317.62 227.88 C 317.04 238.71 316.52 244.17 315.88 251.25 C 315.23 258.33 314.77 262.85 313.75 270.38 C 312.73 277.90 311.08 289.40 309.75 296.38 C 308.42 303.35 307.25 306.85 305.75 312.25 C 304.25 317.65 301.71 325.79 300.75 328.75 C 299.79 331.71 300.04 329.62 300.00 330.00 C 299.96 330.38 296.56 330.85 300.50 331.00 C 304.44 331.15 319.60 331.19 323.62 330.88 C 327.65 330.56 323.58 332.23 324.62 329.12 C 325.67 326.02 328.38 317.79 329.88 312.25 C 331.38 306.71 332.94 299.38 333.62 295.88 C 334.31 292.38 333.50 294.00 334.00 291.25 C 334.50 288.50 335.67 284.77 336.62 279.38 C 337.58 273.98 338.60 268.40 339.75 258.88 C 340.90 249.35 342.35 236.73 343.50 222.25 C 344.65 207.77 345.90 187.08 346.62 172.00 C 347.35 156.92 347.50 139.21 347.88 131.75 C 348.25 124.29 348.67 128.77 348.88 127.25 C 349.08 125.73 349.08 130.08 349.12 122.62 C 349.17 115.17 348.98 90.85 349.12 82.50 C 349.27 74.15 349.69 75.00 350.00 72.50 C 350.31 70.00 350.56 69.02 351.00 67.50 C 351.44 65.98 352.33 64.85 352.62 63.38 C 352.92 61.90 352.90 59.81 352.75 58.62 C 352.60 57.44 352.21 57.00 351.75 56.25 C 351.29 55.50 350.92 55.00 350.00 54.12 C 349.08 53.25 348.52 52.31 346.25 51.00 C 343.98 49.69 339.12 47.40 336.38 46.25 C 333.62 45.10 331.88 44.67 329.75 44.12 C 327.62 43.58 326.42 43.17 323.62 43.00 Z" id="s-19-f-3"/>
<path d="M 313.62 43.00 C 311.33 43.15 311.50 43.62 310.75 44.00 C 310.00 44.38 309.58 44.75 309.12 45.25 C 308.67 45.75 308.21 46.12 308.00 47.00 C 307.79 47.88 307.71 48.88 307.88 50.50 C 308.04 52.12 308.38 54.62 309.00 56.75 C 309.62 58.88 310.83 60.94 311.62 63.25 C 312.42 65.56 313.04 67.44 313.75 70.62 C 314.46 73.81 315.25 78.17 315.88 82.38 C 316.50 86.58 317.02 90.94 317.50 95.88 C 317.98 100.81 318.56 106.79 318.75 112.00 C 318.94 117.21 318.44 123.21 318.62 127.12 C 318.81 131.04 319.75 125.65 319.88 135.50 C 320.00 145.35 319.73 171.19 319.38 186.25 C 319.02 201.31 318.35 214.83 317.75 225.88 C 317.15 236.92 316.71 243.10 315.75 252.50 C 314.79 261.90 312.56 277.19 312.00 282.25 C 311.44 287.31 312.08 282.75 312.38 282.88 C 312.67 283.00 310.10 283.00 313.75 283.00 C 317.40 283.00 330.56 282.98 334.25 282.88 C 337.94 282.77 335.31 283.96 335.88 282.38 C 336.44 280.79 336.98 277.29 337.62 273.38 C 338.27 269.46 338.90 265.85 339.75 258.88 C 340.60 251.90 341.75 243.04 342.75 231.50 C 343.75 219.96 344.90 206.25 345.75 189.62 C 346.60 173.00 347.35 142.15 347.88 131.75 C 348.40 121.35 348.67 128.73 348.88 127.25 C 349.08 125.77 349.08 130.33 349.12 122.88 C 349.17 115.42 348.98 90.90 349.12 82.50 C 349.27 74.10 349.69 75.00 350.00 72.50 C 350.31 70.00 350.56 69.00 351.00 67.50 C 351.44 66.00 352.33 64.98 352.62 63.50 C 352.92 62.02 352.90 59.83 352.75 58.62 C 352.60 57.42 352.50 57.27 351.75 56.25 C 351.00 55.23 349.83 53.73 348.25 52.50 C 346.67 51.27 344.23 49.92 342.25 48.88 C 340.27 47.83 338.46 47.04 336.38 46.25 C 334.29 45.46 331.73 44.65 329.75 44.12 C 327.77 43.60 327.19 43.31 324.50 43.12 C 321.81 42.94 315.92 42.85 313.62 43.00 Z" id="s-19-f-4"/>
<path d="M 313.62 43.00 C 311.33 43.15 311.50 43.62 310.75 44.00 C 310.00 44.38 309.58 44.75 309.12 45.25 C 308.67 45.75 308.21 46.12 308.00 47.00 C 307.79 47.88 307.71 48.88 307.88 50.50 C 308.04 52.12 308.17 53.96 309.00 56.75 C 309.83 59.54 311.92 64.08 312.88 67.25 C 313.83 70.42 313.98 70.98 314.75 75.75 C 315.52 80.52 316.83 89.83 317.50 95.88 C 318.17 101.92 318.56 106.79 318.75 112.00 C 318.94 117.21 318.44 123.21 318.62 127.12 C 318.81 131.04 319.69 128.52 319.88 135.50 C 320.06 142.48 319.96 156.62 319.75 169.00 C 319.54 181.38 319.06 198.94 318.62 209.75 C 318.19 220.56 317.29 229.69 317.12 233.88 C 316.96 238.06 317.27 234.69 317.62 234.88 C 317.98 235.06 315.25 235.00 319.25 235.00 C 323.25 235.00 337.77 235.02 341.62 234.88 C 345.48 234.73 341.85 238.90 342.38 234.12 C 342.90 229.35 344.02 217.04 344.75 206.25 C 345.48 195.46 346.23 181.79 346.75 169.38 C 347.27 156.96 347.52 138.77 347.88 131.75 C 348.23 124.73 348.67 128.73 348.88 127.25 C 349.08 125.77 349.08 130.33 349.12 122.88 C 349.17 115.42 348.98 90.92 349.12 82.50 C 349.27 74.08 349.69 74.88 350.00 72.38 C 350.31 69.88 350.56 68.98 351.00 67.50 C 351.44 66.02 352.33 64.98 352.62 63.50 C 352.92 62.02 352.90 59.83 352.75 58.62 C 352.60 57.42 352.50 57.27 351.75 56.25 C 351.00 55.23 349.83 53.73 348.25 52.50 C 346.67 51.27 344.23 49.92 342.25 48.88 C 340.27 47.83 338.46 47.04 336.38 46.25 C 334.29 45.46 331.73 44.65 329.75 44.12 C 327.77 43.60 327.19 43.31 324.50 43.12 C 321.81 42.94 315.92 42.85 313.62 43.00 Z" id="s-19-f-5"/>
<path d="M 313.00 43.12 C 310.83 43.29 311.33 43.56 310.62 44.00 C 309.92 44.44 309.19 45.25 308.75 45.75 C 308.31 46.25 308.15 46.21 308.00 47.00 C 307.85 47.79 307.71 48.88 307.88 50.50 C 308.04 52.12 308.38 54.62 309.00 56.75 C 309.62 58.88 310.83 60.94 311.62 63.25 C 312.42 65.56 313.04 67.44 313.75 70.62 C 314.46 73.81 315.21 77.75 315.88 82.38 C 316.54 87.00 317.27 93.44 317.75 98.38 C 318.23 103.31 318.60 107.21 318.75 112.00 C 318.90 116.79 318.44 123.21 318.62 127.12 C 318.81 131.04 319.75 125.60 319.88 135.50 C 320.00 145.40 319.08 177.92 319.38 186.50 C 319.67 195.08 317.29 186.94 321.62 187.00 C 325.96 187.06 341.33 187.21 345.38 186.88 C 349.42 186.54 345.65 187.92 345.88 185.00 C 346.10 182.08 346.42 178.25 346.75 169.38 C 347.08 160.50 347.52 138.77 347.88 131.75 C 348.23 124.73 348.67 128.73 348.88 127.25 C 349.08 125.77 349.08 130.33 349.12 122.88 C 349.17 115.42 348.98 90.92 349.12 82.50 C 349.27 74.08 349.69 74.88 350.00 72.38 C 350.31 69.88 350.56 69.00 351.00 67.50 C 351.44 66.00 352.33 64.85 352.62 63.38 C 352.92 61.90 352.96 59.90 352.75 58.62 C 352.54 57.35 352.27 56.90 351.38 55.75 C 350.48 54.60 349.98 53.38 347.38 51.75 C 344.77 50.12 338.69 47.27 335.75 46.00 C 332.81 44.73 331.77 44.62 329.75 44.12 C 327.73 43.62 326.42 43.17 323.62 43.00 C 320.83 42.83 315.17 42.96 313.00 43.12 Z" id="s-19-f-6"/>
<path d="M 310.62 44.00 C 309.67 44.67 308.44 45.58 308.00 47.00 C 307.56 48.42 307.67 50.35 308.00 52.50 C 308.33 54.65 309.19 57.42 310.00 59.88 C 310.81 62.33 311.90 63.50 312.88 67.25 C 313.85 71.00 315.04 76.92 315.88 82.38 C 316.71 87.83 317.40 95.06 317.88 100.00 C 318.35 104.94 318.62 107.48 318.75 112.00 C 318.88 116.52 318.42 122.67 318.62 127.12 C 318.83 131.58 315.23 136.79 320.00 138.75 C 324.77 140.71 342.62 138.96 347.25 138.88 C 351.88 138.79 347.65 139.52 347.75 138.25 C 347.85 136.98 347.69 133.08 347.88 131.25 C 348.06 129.42 348.67 128.65 348.88 127.25 C 349.08 125.85 349.08 130.33 349.12 122.88 C 349.17 115.42 348.98 90.92 349.12 82.50 C 349.27 74.08 349.69 74.88 350.00 72.38 C 350.31 69.88 350.54 69.10 351.00 67.50 C 351.46 65.90 352.48 64.31 352.75 62.75 C 353.02 61.19 352.85 59.29 352.62 58.12 C 352.40 56.96 352.25 56.81 351.38 55.75 C 350.50 54.69 349.98 53.38 347.38 51.75 C 344.77 50.12 338.75 47.29 335.75 46.00 C 332.75 44.71 331.40 44.50 329.38 44.00 C 327.35 43.50 326.23 43.17 323.62 43.00 C 321.02 42.83 315.92 42.83 313.75 43.00 C 311.58 43.17 311.58 43.33 310.62 44.00 Z" id="s-19-f-7"/>
<path d="M 309.38 45.00 C 308.94 45.50 308.23 45.77 308.00 47.00 C 307.77 48.23 307.83 50.75 308.00 52.38 C 308.17 54.00 308.40 54.94 309.00 56.75 C 309.60 58.56 310.83 60.94 311.62 63.25 C 312.42 65.56 312.88 66.10 313.75 70.62 C 314.62 75.15 314.73 87.00 316.88 90.38 C 319.02 93.75 321.33 90.85 326.62 90.88 C 331.92 90.90 344.73 93.56 348.62 90.50 C 352.52 87.44 349.60 76.33 350.00 72.50 C 350.40 68.67 350.52 69.29 351.00 67.50 C 351.48 65.71 352.58 63.25 352.88 61.75 C 353.17 60.25 353.12 59.65 352.75 58.50 C 352.38 57.35 351.56 56.02 350.62 54.88 C 349.69 53.73 348.52 52.62 347.12 51.62 C 345.73 50.62 344.15 49.81 342.25 48.88 C 340.35 47.94 337.90 46.81 335.75 46.00 C 333.60 45.19 331.44 44.50 329.38 44.00 C 327.31 43.50 325.96 43.17 323.38 43.00 C 320.79 42.83 316.00 42.83 313.88 43.00 C 311.75 43.17 311.38 43.67 310.62 44.00 C 309.88 44.33 309.81 44.50 309.38 45.00 Z" id="s-19-f-8"/>
</g>
<g id="s-20" clip-path="url(#c-s-20)">
<use href="#s-20-f-0"/>
<path d="M 332.62 298.62 C 332.35 298.79 331.94 298.81 331.75 299.50 C 331.56 300.19 331.67 301.96 331.50 302.75 C 331.33 303.54 330.94 303.54 330.75 304.25 C 330.56 304.96 330.54 306.42 330.38 307.00 C 330.21 307.58 329.92 307.06 329.75 307.75 C 329.58 308.44 329.56 310.29 329.38 311.12 C 329.19 311.96 328.73 312.04 328.62 312.75 C 328.52 313.46 328.56 314.71 328.75 315.38 C 328.94 316.04 327.19 310.92 329.75 316.75 C 332.31 322.58 340.25 341.60 344.12 350.38 C 348.00 359.15 349.52 362.40 353.00 369.38 C 356.48 376.35 359.50 382.44 365.00 392.25 C 370.50 402.06 380.50 419.21 386.00 428.25 C 391.50 437.29 395.42 442.90 398.00 446.50 C 400.58 450.10 399.75 448.67 401.50 449.88 C 403.25 451.08 406.21 452.81 408.50 453.75 C 410.79 454.69 413.33 455.15 415.25 455.50 C 417.17 455.85 416.38 455.83 420.00 455.88 C 423.62 455.92 431.90 455.96 437.00 455.75 C 442.10 455.54 445.83 455.29 450.62 454.62 C 455.42 453.96 462.65 452.40 465.75 451.75 C 468.85 451.10 468.17 451.17 469.25 450.75 C 470.33 450.33 471.65 449.65 472.25 449.25 C 472.85 448.85 472.77 449.21 472.88 448.38 C 472.98 447.54 473.15 445.19 472.88 444.25 C 472.60 443.31 472.40 443.46 471.25 442.75 C 470.10 442.04 467.96 440.85 466.00 440.00 C 464.04 439.15 464.29 440.48 459.50 437.62 C 454.71 434.77 442.23 426.02 437.25 422.88 C 432.27 419.73 432.42 420.46 429.62 418.75 C 426.83 417.04 424.21 415.42 420.50 412.62 C 416.79 409.83 411.58 405.71 407.38 402.00 C 403.17 398.29 398.79 394.00 395.25 390.38 C 391.71 386.75 390.67 385.90 386.12 380.25 C 381.58 374.60 374.02 365.12 368.00 356.50 C 361.98 347.88 354.67 336.08 350.00 328.50 C 345.33 320.92 342.77 316.00 340.00 311.00 C 337.23 306.00 334.60 300.56 333.38 298.50 C 332.15 296.44 332.90 298.46 332.62 298.62 Z" id="s-20-f-1"/>
<path d="M 332.62 298.62 C 332.35 298.79 331.94 298.81 331.75 299.50 C 331.56 300.19 331.67 301.98 331.50 302.75 C 331.33 303.52 330.94 303.42 330.75 304.12 C 330.56 304.83 330.54 306.40 330.38 307.00 C 330.21 307.60 329.92 307.06 329.75 307.75 C 329.58 308.44 329.56 310.29 329.38 311.12 C 329.19 311.96 328.73 312.00 328.62 312.75 C 328.52 313.50 328.54 314.90 328.75 315.62 C 328.96 316.35 328.00 312.90 329.88 317.12 C 331.75 321.35 336.15 332.29 340.00 341.00 C 343.85 349.71 349.00 361.12 353.00 369.38 C 357.00 377.62 358.50 380.69 364.00 390.50 C 369.50 400.31 380.67 419.35 386.00 428.25 C 391.33 437.15 393.79 440.62 396.00 443.88 C 398.21 447.12 397.88 446.44 399.25 447.75 C 400.62 449.06 402.21 450.58 404.25 451.75 C 406.29 452.92 409.33 454.08 411.50 454.75 C 413.67 455.42 415.06 455.58 417.25 455.75 C 419.44 455.92 423.33 456.19 424.62 455.75 C 425.92 455.31 424.98 459.83 425.00 453.12 C 425.02 446.42 426.48 423.00 424.75 415.50 C 423.02 408.00 419.19 411.94 414.62 408.12 C 410.06 404.31 401.88 397.00 397.38 392.62 C 392.88 388.25 390.77 385.52 387.62 381.88 C 384.48 378.23 381.77 374.98 378.50 370.75 C 375.23 366.52 371.10 360.90 368.00 356.50 C 364.90 352.10 364.04 351.06 359.88 344.38 C 355.71 337.69 347.42 324.02 343.00 316.38 C 338.58 308.73 335.10 301.46 333.38 298.50 C 331.65 295.54 332.90 298.46 332.62 298.62 Z" id="s-20-f-2"/>
<path d="M 332.62 298.62 C 332.35 298.79 331.94 298.81 331.75 299.50 C 331.56 300.19 331.67 301.98 331.50 302.75 C 331.33 303.52 330.94 303.42 330.75 304.12 C 330.56 304.83 330.54 306.40 330.38 307.00 C 330.21 307.60 329.92 307.06 329.75 307.75 C 329.58 308.44 329.56 310.29 329.38 311.12 C 329.19 311.96 328.73 312.00 328.62 312.75 C 328.52 313.50 328.54 314.90 328.75 315.62 C 328.96 316.35 328.00 312.90 329.88 317.12 C 331.75 321.35 336.15 332.29 340.00 341.00 C 343.85 349.71 349.17 361.42 353.00 369.38 C 356.83 377.33 359.17 381.75 363.00 388.75 C 366.83 395.75 373.73 407.56 376.00 411.38 C 378.27 415.19 376.46 412.02 376.62 411.62 C 376.79 411.23 376.96 416.21 377.00 409.00 C 377.04 401.79 378.19 376.88 376.88 368.38 C 375.56 359.88 372.27 362.50 369.12 358.00 C 365.98 353.50 362.35 348.29 358.00 341.38 C 353.65 334.46 347.10 323.65 343.00 316.50 C 338.90 309.35 335.10 301.48 333.38 298.50 C 331.65 295.52 332.90 298.46 332.62 298.62 Z" id="s-20-f-3"/>
</g>
</svg>