<?xml version="1.0" encoding="UTF-8"?>
<svg xmlns="http://www.w3.org/2000/svg" viewBox="0 0 500 500">
<defs>
<path d="M 148.12 48.00 C 146.58 48.17 146.56 48.52 145.88 49.00 C 145.19 49.48 144.48 50.21 144.00 50.88 C 143.52 51.54 143.15 51.85 143.00 53.00 C 142.85 54.15 142.67 56.29 143.12 57.75 C 143.58 59.21 145.00 60.42 145.75 61.75 C 146.50 63.08 146.79 63.21 147.62 65.75 C 148.46 68.29 149.73 62.69 150.75 77.00 C 151.77 91.31 153.19 138.98 153.75 151.62 C 154.31 164.27 153.90 152.65 154.12 152.88 C 154.35 153.10 151.42 153.62 155.12 153.00 C 158.83 152.38 172.77 149.85 176.38 149.12 C 179.98 148.40 176.54 150.23 176.75 148.62 C 176.96 147.02 177.27 145.73 177.62 139.50 C 177.98 133.27 178.48 117.79 178.88 111.25 C 179.27 104.71 179.79 104.98 180.00 100.25 C 180.21 95.52 179.79 87.67 180.12 82.88 C 180.46 78.08 181.40 74.12 182.00 71.50 C 182.60 68.88 183.48 68.79 183.75 67.12 C 184.02 65.46 183.96 62.92 183.62 61.50 C 183.29 60.08 182.67 59.58 181.75 58.62 C 180.83 57.67 179.71 56.69 178.12 55.75 C 176.54 54.81 175.08 54.10 172.25 53.00 C 169.42 51.90 163.98 49.96 161.12 49.12 C 158.27 48.29 157.29 48.19 155.12 48.00 C 152.96 47.81 149.67 47.83 148.12 48.00 Z" id="s-0-f-0"/>
<clipPath id="c-s-0"><use href="#s-0-f-0"/></clipPath>
<path d="M 250.88 96.12 C 250.75 95.38 250.19 94.77 249.62 94.12 C 249.06 93.48 249.17 93.27 247.50 92.25 C 245.83 91.23 242.52 89.17 239.62 88.00 C 236.73 86.83 232.48 85.75 230.12 85.25 C 227.77 84.75 228.75 84.27 225.50 85.00 C 222.25 85.73 213.62 88.77 210.62 89.62 C 207.62 90.48 212.65 88.75 207.50 90.12 C 202.35 91.50 184.54 95.85 179.75 97.88 C 174.96 99.90 178.96 100.33 178.75 102.25 C 178.54 104.17 178.35 108.08 178.50 109.38 C 178.65 110.67 178.65 109.77 179.62 110.00 C 180.60 110.23 181.33 110.62 184.38 110.75 C 187.42 110.88 191.21 111.54 197.88 110.75 C 204.54 109.96 218.27 107.00 224.38 106.00 C 230.48 105.00 231.81 105.15 234.50 104.75 C 237.19 104.35 238.52 104.17 240.50 103.62 C 242.48 103.08 244.73 102.33 246.38 101.50 C 248.02 100.67 249.62 99.52 250.38 98.62 C 251.12 97.73 251.00 96.88 250.88 96.12 Z" id="s-1-f-0"/>
<clipPath id="c-s-1"><use href="#s-1-f-0"/></clipPath>
<path d="M 283.88 164.88 C 283.71 163.96 283.88 163.58 282.62 162.12 C 281.38 160.67 279.73 158.48 276.38 156.12 C 273.02 153.77 266.69 150.19 262.50 148.00 C 258.31 145.81 254.90 144.50 251.25 143.00 C 247.60 141.50 243.06 139.83 240.62 139.00 C 238.19 138.17 238.00 138.17 236.62 138.00 C 235.25 137.83 238.06 136.88 232.38 138.00 C 226.69 139.12 211.58 142.96 202.50 144.75 C 193.42 146.54 182.65 148.10 177.88 148.75 C 173.10 149.40 174.85 148.52 173.88 148.62 C 172.90 148.73 172.94 149.21 172.00 149.38 C 171.06 149.54 169.17 149.46 168.25 149.62 C 167.33 149.79 168.56 150.02 166.50 150.38 C 164.44 150.73 158.06 151.33 155.88 151.75 C 153.69 152.17 160.40 151.71 153.38 152.88 C 146.35 154.04 127.17 156.88 113.75 158.75 C 100.33 160.62 80.85 162.92 72.88 164.12 C 64.90 165.33 67.19 165.54 65.88 166.00 C 64.56 166.46 65.15 166.48 65.00 166.88 C 64.85 167.27 64.83 167.77 65.00 168.38 C 65.17 168.98 65.52 169.79 66.00 170.50 C 66.48 171.21 66.75 171.60 67.88 172.62 C 69.00 173.65 71.65 175.90 72.75 176.62 C 73.85 177.35 67.96 177.31 74.50 177.00 C 81.04 176.69 100.40 176.06 112.00 174.75 C 123.60 173.44 136.71 170.25 144.12 169.12 C 151.54 168.00 151.17 168.69 156.50 168.00 C 161.83 167.31 166.77 166.17 176.12 165.00 C 185.48 163.83 203.94 161.83 212.62 161.00 C 221.31 160.17 225.27 160.02 228.25 160.00 C 231.23 159.98 229.90 160.50 230.50 160.88 C 231.10 161.25 231.52 161.75 231.88 162.25 C 232.23 162.75 232.48 163.19 232.62 163.88 C 232.77 164.56 233.42 163.75 232.75 166.38 C 232.08 169.00 230.25 175.33 228.62 179.62 C 227.00 183.92 223.90 189.67 223.00 192.12 C 222.10 194.58 222.90 193.92 223.25 194.38 C 223.60 194.83 219.71 197.25 225.12 194.88 C 230.54 192.50 249.23 183.12 255.75 180.12 C 262.27 177.12 261.88 177.92 264.25 176.88 C 266.62 175.83 267.15 175.04 270.00 173.88 C 272.85 172.71 279.10 170.92 281.38 169.88 C 283.65 168.83 283.21 168.46 283.62 167.62 C 284.04 166.79 284.04 165.79 283.88 164.88 Z" id="s-2-f-0"/>
<clipPath id="c-s-2"><use href="#s-2-f-0"/></clipPath>
<path d="M 111.75 173.62 C 111.48 173.62 112.40 173.90 112.25 174.00 C 112.10 174.10 111.15 174.29 110.88 174.25 C 110.60 174.21 110.77 173.71 110.62 173.75 C 110.48 173.79 112.50 174.35 110.00 174.50 C 107.50 174.65 98.56 174.46 95.62 174.62 C 92.69 174.79 95.40 175.33 92.38 175.50 C 89.35 175.67 80.58 175.42 77.50 175.62 C 74.42 175.83 73.85 175.40 73.88 176.75 C 73.90 178.10 76.65 181.52 77.62 183.75 C 78.60 185.98 79.23 187.92 79.75 190.12 C 80.27 192.33 80.58 193.38 80.75 197.00 C 80.92 200.62 80.92 205.67 80.75 211.88 C 80.58 218.08 80.25 226.50 79.75 234.25 C 79.25 242.00 78.75 249.17 77.75 258.38 C 76.75 267.58 74.75 282.52 73.75 289.50 C 72.75 296.48 73.42 292.98 71.75 300.25 C 70.08 307.52 66.77 322.50 63.75 333.12 C 60.73 343.75 57.12 354.23 53.62 364.00 C 50.12 373.77 45.42 385.27 42.75 391.75 C 40.08 398.23 39.46 399.19 37.62 402.88 C 35.79 406.56 34.02 409.96 31.75 413.88 C 29.48 417.79 25.31 423.96 24.00 426.38 C 22.69 428.79 23.81 427.96 23.88 428.38 C 23.94 428.79 23.73 428.83 24.38 428.88 C 25.02 428.92 26.77 428.83 27.75 428.62 C 28.73 428.42 28.77 428.71 30.25 427.62 C 31.73 426.54 33.65 425.04 36.62 422.12 C 39.60 419.21 44.77 413.96 48.12 410.12 C 51.48 406.29 53.48 403.75 56.75 399.12 C 60.02 394.50 64.77 387.67 67.75 382.38 C 70.73 377.08 72.46 372.50 74.62 367.38 C 76.79 362.25 78.90 356.77 80.75 351.62 C 82.60 346.48 83.92 342.56 85.75 336.50 C 87.58 330.44 89.77 323.35 91.75 315.25 C 93.73 307.15 95.79 297.90 97.62 287.88 C 99.46 277.85 101.35 265.33 102.75 255.12 C 104.15 244.92 105.29 231.98 106.00 226.62 C 106.71 221.27 106.67 226.15 107.00 223.00 C 107.33 219.85 107.50 213.46 108.00 207.75 C 108.50 202.04 109.38 193.31 110.00 188.75 C 110.62 184.19 111.46 182.19 111.75 180.38 C 112.04 178.56 112.02 178.77 111.75 177.88 C 111.48 176.98 110.25 175.56 110.12 175.00 C 110.00 174.44 110.50 174.58 111.00 174.50 C 111.50 174.42 112.65 174.58 113.12 174.50 C 113.60 174.42 114.10 174.15 113.88 174.00 C 113.65 173.85 112.02 173.62 111.75 173.62 Z" id="s-3-f-0"/>
<clipPath id="c-s-3"><use href="#s-3-f-0"/></clipPath>
<path d="M 222.75 201.00 C 222.62 200.29 222.50 200.12 222.00 199.62 C 221.50 199.12 221.17 198.44 219.75 198.00 C 218.33 197.56 216.62 197.17 213.50 197.00 C 210.38 196.83 204.21 196.83 201.00 197.00 C 197.79 197.17 199.94 196.56 194.25 198.00 C 188.56 199.44 171.88 204.31 166.88 205.62 C 161.88 206.94 169.60 204.52 164.25 205.88 C 158.90 207.23 143.83 211.42 134.75 213.75 C 125.67 216.08 114.48 218.50 109.75 219.88 C 105.02 221.25 107.06 221.25 106.38 222.00 C 105.69 222.75 105.73 223.58 105.62 224.38 C 105.52 225.17 105.12 226.04 105.75 226.75 C 106.38 227.46 108.17 228.15 109.38 228.62 C 110.58 229.10 110.98 229.44 113.00 229.62 C 115.02 229.81 112.81 230.92 121.50 229.75 C 130.19 228.58 153.67 224.79 165.12 222.62 C 176.58 220.46 181.92 218.88 190.25 216.75 C 198.58 214.62 210.38 211.35 215.12 209.88 C 219.88 208.40 217.69 208.58 218.75 207.88 C 219.81 207.17 220.83 206.29 221.50 205.62 C 222.17 204.96 222.54 204.65 222.75 203.88 C 222.96 203.10 222.88 201.71 222.75 201.00 Z" id="s-4-f-0"/>
<clipPath id="c-s-4"><use href="#s-4-f-0"/></clipPath>
<path d="M 145.12 169.25 C 144.58 170.79 144.77 173.56 145.00 176.88 C 145.23 180.19 146.21 185.06 146.50 189.12 C 146.79 193.19 146.85 197.71 146.75 201.25 C 146.65 204.79 146.21 208.40 145.88 210.38 C 145.54 212.35 144.98 211.79 144.75 213.12 C 144.52 214.46 144.69 217.02 144.50 218.38 C 144.31 219.73 143.92 217.90 143.62 221.25 C 143.33 224.60 142.83 235.00 142.75 238.50 C 142.67 242.00 142.75 240.77 143.12 242.25 C 143.50 243.73 143.81 245.44 145.00 247.38 C 146.19 249.31 148.58 252.17 150.25 253.88 C 151.92 255.58 152.90 256.31 155.00 257.62 C 157.10 258.94 159.23 260.58 162.88 261.75 C 166.52 262.92 171.54 263.79 176.88 264.62 C 182.21 265.46 188.00 266.38 194.88 266.75 C 201.75 267.12 212.19 267.04 218.12 266.88 C 224.06 266.71 227.67 266.12 230.50 265.75 C 233.33 265.38 233.08 265.29 235.12 264.62 C 237.17 263.96 240.73 262.69 242.75 261.75 C 244.77 260.81 246.25 259.90 247.25 259.00 C 248.25 258.10 248.50 257.42 248.75 256.38 C 249.00 255.33 248.94 253.90 248.75 252.75 C 248.56 251.60 248.42 250.81 247.62 249.50 C 246.83 248.19 245.73 246.10 244.00 244.88 C 242.27 243.65 239.88 242.58 237.25 242.12 C 234.62 241.67 233.02 241.52 228.25 242.12 C 223.48 242.73 213.81 245.17 208.62 245.75 C 203.44 246.33 201.94 245.96 197.12 245.62 C 192.31 245.29 183.90 244.42 179.75 243.75 C 175.60 243.08 174.40 242.44 172.25 241.62 C 170.10 240.81 168.25 239.85 166.88 238.88 C 165.50 237.90 164.62 236.65 164.00 235.75 C 163.38 234.85 163.31 235.58 163.12 233.50 C 162.94 231.42 162.85 225.19 162.88 223.25 C 162.90 221.31 163.04 222.23 163.25 221.88 C 163.46 221.52 163.96 221.90 164.12 221.12 C 164.29 220.35 164.08 218.27 164.25 217.25 C 164.42 216.23 164.96 216.00 165.12 215.00 C 165.29 214.00 165.08 212.17 165.25 211.25 C 165.42 210.33 166.02 211.02 166.12 209.50 C 166.23 207.98 165.71 204.31 165.88 202.12 C 166.04 199.94 166.44 198.75 167.12 196.38 C 167.81 194.00 168.92 190.25 170.00 187.88 C 171.08 185.50 173.02 183.73 173.62 182.12 C 174.23 180.52 173.96 179.35 173.62 178.25 C 173.29 177.15 172.50 176.35 171.62 175.50 C 170.75 174.65 170.73 174.33 168.38 173.12 C 166.02 171.92 159.27 169.17 157.50 168.25 C 155.73 167.33 157.29 167.77 157.75 167.62 C 158.21 167.48 159.83 167.50 160.25 167.38 C 160.67 167.25 162.25 166.83 160.25 166.88 C 158.25 166.92 150.77 167.23 148.25 167.62 C 145.73 168.02 145.67 167.71 145.12 169.25 Z" id="s-5-f-0"/>
<clipPath id="c-s-5"><use href="#s-5-f-0"/></clipPath>
<path d="M 141.75 280.88 C 140.35 280.92 139.54 281.04 138.75 281.25 C 137.96 281.46 137.60 281.60 137.00 282.12 C 136.40 282.65 135.48 283.60 135.12 284.38 C 134.77 285.15 134.25 285.23 134.88 286.75 C 135.50 288.27 137.90 291.04 138.88 293.50 C 139.85 295.96 139.88 286.02 140.75 301.50 C 141.62 316.98 143.44 370.25 144.12 386.38 C 144.81 402.50 144.67 396.15 144.88 398.25 C 145.08 400.35 144.31 399.19 145.38 399.00 C 146.44 398.81 148.71 397.81 151.25 397.12 C 153.79 396.44 158.69 395.48 160.62 394.88 C 162.56 394.27 162.15 407.75 162.88 393.50 C 163.60 379.25 164.31 325.02 165.00 309.38 C 165.69 293.73 166.38 302.00 167.00 299.62 C 167.62 297.25 168.44 296.54 168.75 295.12 C 169.06 293.71 168.94 292.02 168.88 291.12 C 168.81 290.23 168.96 290.46 168.38 289.75 C 167.79 289.04 166.50 287.67 165.38 286.88 C 164.25 286.08 163.81 285.81 161.62 285.00 C 159.44 284.19 154.67 282.67 152.25 282.00 C 149.83 281.33 148.88 281.19 147.12 281.00 C 145.38 280.81 143.15 280.83 141.75 280.88 Z" id="s-6-f-0"/>
<clipPath id="c-s-6"><use href="#s-6-f-0"/></clipPath>
<path d="M 186.75 280.88 C 185.35 280.92 184.73 280.85 183.75 281.25 C 182.77 281.65 181.50 282.65 180.88 283.25 C 180.25 283.85 180.15 284.12 180.00 284.88 C 179.85 285.62 179.40 286.17 180.00 287.75 C 180.60 289.33 182.67 291.96 183.62 294.38 C 184.58 296.79 185.02 286.88 185.75 302.25 C 186.48 317.62 187.46 372.52 188.00 386.62 C 188.54 400.73 188.62 386.96 189.00 386.88 C 189.38 386.79 187.77 386.96 190.25 386.12 C 192.73 385.29 201.27 382.79 203.88 381.88 C 206.48 380.96 204.83 393.10 205.88 380.62 C 206.92 368.15 209.27 320.52 210.12 307.00 C 210.98 293.48 210.56 301.48 211.00 299.50 C 211.44 297.52 212.44 296.46 212.75 295.12 C 213.06 293.79 213.02 292.54 212.88 291.50 C 212.73 290.46 212.40 289.65 211.88 288.88 C 211.35 288.10 210.58 287.50 209.75 286.88 C 208.92 286.25 208.96 285.94 206.88 285.12 C 204.79 284.31 199.71 282.69 197.25 282.00 C 194.79 281.31 193.88 281.19 192.12 281.00 C 190.38 280.81 188.15 280.83 186.75 280.88 Z" id="s-7-f-0"/>
<clipPath id="c-s-7"><use href="#s-7-f-0"/></clipPath>
<path d="M 93.62 326.00 C 92.48 326.21 92.40 326.88 92.12 327.38 C 91.85 327.88 91.56 327.94 92.00 329.00 C 92.44 330.06 93.25 330.69 94.75 333.75 C 96.25 336.81 98.46 342.48 101.00 347.38 C 103.54 352.27 107.40 359.02 110.00 363.12 C 112.60 367.23 115.19 370.21 116.62 372.00 C 118.06 373.79 118.00 373.42 118.62 373.88 C 119.25 374.33 119.56 374.58 120.38 374.75 C 121.19 374.92 122.52 375.02 123.50 374.88 C 124.48 374.73 125.48 374.31 126.25 373.88 C 127.02 373.44 127.54 373.00 128.12 372.25 C 128.71 371.50 129.31 370.50 129.75 369.38 C 130.19 368.25 130.60 368.02 130.75 365.50 C 130.90 362.98 130.81 356.94 130.62 354.25 C 130.44 351.56 130.10 351.02 129.62 349.38 C 129.15 347.73 128.40 345.77 127.75 344.38 C 127.10 342.98 126.40 341.92 125.75 341.00 C 125.10 340.08 125.33 340.04 123.88 338.88 C 122.42 337.71 120.00 335.79 117.00 334.00 C 114.00 332.21 108.88 329.44 105.88 328.12 C 102.88 326.81 101.04 326.48 99.00 326.12 C 96.96 325.77 94.77 325.79 93.62 326.00 Z" id="s-8-f-0"/>
<clipPath id="c-s-8"><use href="#s-8-f-0"/></clipPath>
<path d="M 267.88 301.88 C 266.04 300.35 262.58 297.65 260.12 296.00 C 257.67 294.35 254.73 292.83 253.12 292.00 C 251.52 291.17 251.31 291.17 250.50 291.00 C 249.69 290.83 248.83 290.83 248.25 291.00 C 247.67 291.17 247.54 291.31 247.00 292.00 C 246.46 292.69 245.88 292.77 245.00 295.12 C 244.12 297.48 242.98 302.40 241.75 306.12 C 240.52 309.85 239.62 312.71 237.62 317.50 C 235.62 322.29 231.73 330.73 229.75 334.88 C 227.77 339.02 227.21 339.96 225.75 342.38 C 224.29 344.79 222.40 347.44 221.00 349.38 C 219.60 351.31 218.38 352.94 217.38 354.00 C 216.38 355.06 215.42 355.17 215.00 355.75 C 214.58 356.33 214.75 357.00 214.88 357.50 C 215.00 358.00 215.17 358.54 215.75 358.75 C 216.33 358.96 216.77 359.42 218.38 358.75 C 219.98 358.08 222.83 356.46 225.38 354.75 C 227.92 353.04 228.94 352.29 233.62 348.50 C 238.31 344.71 247.29 336.79 253.50 332.00 C 259.71 327.21 267.67 322.17 270.88 319.75 C 274.08 317.33 272.29 318.25 272.75 317.50 C 273.21 316.75 273.46 316.54 273.62 315.25 C 273.79 313.96 274.17 311.44 273.75 309.75 C 273.33 308.06 272.10 306.44 271.12 305.12 C 270.15 303.81 269.71 303.40 267.88 301.88 Z" id="s-9-f-0"/>
<clipPath id="c-s-9"><use href="#s-9-f-0"/></clipPath>
<path d="M 273.75 365.12 C 273.35 364.35 272.48 363.35 271.38 363.00 C 270.27 362.65 270.08 362.48 267.12 363.00 C 264.17 363.52 263.71 363.19 253.62 366.12 C 243.54 369.06 214.83 378.21 206.62 380.62 C 198.42 383.04 204.85 380.52 204.38 380.62 C 203.90 380.73 204.25 381.08 203.75 381.25 C 203.25 381.42 201.88 381.46 201.38 381.62 C 200.88 381.79 201.25 382.08 200.75 382.25 C 200.25 382.42 198.88 382.46 198.38 382.62 C 197.88 382.79 198.25 383.08 197.75 383.25 C 197.25 383.42 195.88 383.46 195.38 383.62 C 194.88 383.79 195.25 384.08 194.75 384.25 C 194.25 384.42 192.94 384.44 192.38 384.62 C 191.81 384.81 191.92 385.21 191.38 385.38 C 190.83 385.54 189.77 385.38 189.12 385.62 C 188.48 385.88 189.88 386.15 187.50 386.88 C 185.12 387.60 178.83 388.88 174.88 390.00 C 170.92 391.12 165.98 393.04 163.75 393.62 C 161.52 394.21 162.15 393.38 161.50 393.50 C 160.85 393.62 160.56 394.19 159.88 394.38 C 159.19 394.56 157.98 394.46 157.38 394.62 C 156.77 394.79 157.50 395.02 156.25 395.38 C 155.00 395.73 151.06 396.42 149.88 396.75 C 148.69 397.08 149.75 397.23 149.12 397.38 C 148.50 397.52 146.79 397.42 146.12 397.62 C 145.46 397.83 145.90 398.27 145.12 398.62 C 144.35 398.98 147.94 398.19 141.50 399.75 C 135.06 401.31 114.54 406.00 106.50 408.00 C 98.46 410.00 98.25 410.75 93.25 411.75 C 88.25 412.75 79.54 413.40 76.50 414.00 C 73.46 414.60 75.25 414.75 75.00 415.38 C 74.75 416.00 74.67 416.73 75.00 417.75 C 75.33 418.77 76.00 420.06 77.00 421.50 C 78.00 422.94 79.35 424.65 81.00 426.38 C 82.65 428.10 84.81 430.12 86.88 431.88 C 88.94 433.62 91.48 435.56 93.38 436.88 C 95.27 438.19 96.67 438.94 98.25 439.75 C 99.83 440.56 101.48 441.25 102.88 441.75 C 104.27 442.25 105.08 442.58 106.62 442.75 C 108.17 442.92 110.50 443.06 112.12 442.75 C 113.75 442.44 114.94 441.67 116.38 440.88 C 117.81 440.08 110.77 442.79 120.75 438.00 C 130.73 433.21 159.38 419.67 176.25 412.12 C 193.12 404.58 209.19 398.33 222.00 392.75 C 234.81 387.17 246.19 381.92 253.12 378.62 C 260.06 375.33 260.62 374.48 263.62 373.00 C 266.62 371.52 269.44 370.65 271.12 369.75 C 272.81 368.85 273.31 368.40 273.75 367.62 C 274.19 366.85 274.15 365.90 273.75 365.12 Z" id="s-10-f-0"/>
<clipPath id="c-s-10"><use href="#s-10-f-0"/></clipPath>
<path d="M 419.75 178.75 C 419.60 177.88 419.44 177.73 418.88 177.12 C 418.31 176.52 418.33 175.79 416.38 175.12 C 414.42 174.46 410.88 173.48 407.12 173.12 C 403.38 172.77 397.90 172.69 393.88 173.00 C 389.85 173.31 388.65 173.06 383.00 175.00 C 377.35 176.94 367.35 181.71 360.00 184.62 C 352.65 187.54 342.83 191.10 338.88 192.50 C 334.92 193.90 337.71 192.50 336.25 193.00 C 334.79 193.50 337.62 192.88 330.12 195.50 C 322.62 198.12 302.35 205.15 291.25 208.75 C 280.15 212.35 269.23 215.10 263.50 217.12 C 257.77 219.15 258.12 220.08 256.88 220.88 C 255.62 221.67 256.15 221.46 256.00 221.88 C 255.85 222.29 255.75 222.75 256.00 223.38 C 256.25 224.00 256.71 224.90 257.50 225.62 C 258.29 226.35 259.77 227.23 260.75 227.75 C 261.73 228.27 261.96 228.40 263.38 228.75 C 264.79 229.10 267.10 229.71 269.25 229.88 C 271.40 230.04 273.58 229.96 276.25 229.75 C 278.92 229.54 280.44 229.46 285.25 228.62 C 290.06 227.79 299.83 226.00 305.12 224.75 C 310.42 223.50 314.65 221.77 317.00 221.12 C 319.35 220.48 309.62 223.77 319.25 220.88 C 328.88 217.98 359.77 208.60 374.75 203.75 C 389.73 198.90 402.56 194.25 409.12 191.75 C 415.69 189.25 412.67 189.83 414.12 188.75 C 415.58 187.67 416.94 186.31 417.88 185.25 C 418.81 184.19 419.44 183.46 419.75 182.38 C 420.06 181.29 419.90 179.62 419.75 178.75 Z" id="s-11-f-0"/>
<clipPath id="c-s-11"><use href="#s-11-f-0"/></clipPath>
<path d="M 289.12 39.88 C 288.08 40.31 287.52 40.90 287.00 41.50 C 286.48 42.10 286.17 42.23 286.00 43.50 C 285.83 44.77 285.67 46.96 286.00 49.12 C 286.33 51.29 286.71 52.75 288.00 56.50 C 289.29 60.25 291.96 65.62 293.75 71.62 C 295.54 77.62 297.58 86.92 298.75 92.50 C 299.92 98.08 299.35 94.62 300.75 105.12 C 302.15 115.62 305.42 143.00 307.12 155.50 C 308.83 168.00 309.73 172.73 311.00 180.12 C 312.27 187.52 314.15 195.75 314.75 199.88 C 315.35 204.00 314.50 203.62 314.62 204.88 C 314.75 206.12 315.33 206.25 315.50 207.38 C 315.67 208.50 315.48 210.60 315.62 211.62 C 315.77 212.65 316.19 212.25 316.38 213.50 C 316.56 214.75 316.50 217.81 316.75 219.12 C 317.00 220.44 316.48 214.98 317.88 221.38 C 319.27 227.77 322.44 245.42 325.12 257.50 C 327.81 269.58 331.33 283.94 334.00 293.88 C 336.67 303.81 337.46 306.67 341.12 317.12 C 344.79 327.58 352.19 347.46 356.00 356.62 C 359.81 365.79 361.50 367.52 364.00 372.12 C 366.50 376.73 368.19 379.75 371.00 384.25 C 373.81 388.75 377.25 394.10 380.88 399.12 C 384.50 404.15 388.52 409.38 392.75 414.38 C 396.98 419.38 402.29 425.02 406.25 429.12 C 410.21 433.23 412.42 435.54 416.50 439.00 C 420.58 442.46 426.92 447.25 430.75 449.88 C 434.58 452.50 436.88 453.46 439.50 454.75 C 442.12 456.04 443.92 456.81 446.50 457.62 C 449.08 458.44 451.90 459.27 455.00 459.62 C 458.10 459.98 462.75 459.92 465.12 459.75 C 467.50 459.58 468.12 459.12 469.25 458.62 C 470.38 458.12 471.12 457.44 471.88 456.75 C 472.62 456.06 473.27 455.33 473.75 454.50 C 474.23 453.67 474.56 452.81 474.75 451.75 C 474.94 450.69 475.04 449.29 474.88 448.12 C 474.71 446.96 474.90 447.00 473.75 444.75 C 472.60 442.50 469.62 438.73 468.00 434.62 C 466.38 430.52 465.50 427.90 464.00 420.12 C 462.50 412.35 460.38 398.79 459.00 388.00 C 457.62 377.21 456.48 361.31 455.75 355.38 C 455.02 349.44 455.10 353.10 454.62 352.38 C 454.15 351.65 453.38 351.21 452.88 351.00 C 452.38 350.79 451.94 350.96 451.62 351.12 C 451.31 351.29 452.48 342.10 451.00 352.00 C 449.52 361.90 444.46 399.96 442.75 410.50 C 441.04 421.04 441.21 414.38 440.75 415.25 C 440.29 416.12 440.48 415.69 440.00 415.75 C 439.52 415.81 439.04 415.94 437.88 415.62 C 436.71 415.31 434.40 414.52 433.00 413.88 C 431.60 413.23 431.46 413.27 429.50 411.75 C 427.54 410.23 424.46 407.98 421.25 404.75 C 418.04 401.52 413.79 396.79 410.25 392.38 C 406.71 387.96 403.21 383.06 400.00 378.25 C 396.79 373.44 393.67 368.17 391.00 363.50 C 388.33 358.83 388.15 359.17 384.00 350.25 C 379.85 341.33 370.46 320.85 366.12 310.00 C 361.79 299.15 360.38 292.90 358.00 285.12 C 355.62 277.35 353.88 271.06 351.88 263.38 C 349.88 255.69 347.81 247.15 346.00 239.00 C 344.19 230.85 341.81 219.40 341.00 214.50 C 340.19 209.60 341.23 210.77 341.12 209.62 C 341.02 208.48 340.71 209.96 340.38 207.62 C 340.04 205.29 339.69 198.46 339.12 195.62 C 338.56 192.79 338.02 198.46 337.00 190.62 C 335.98 182.79 333.96 161.04 333.00 148.62 C 332.04 136.21 331.58 128.79 331.25 116.12 C 330.92 103.46 330.88 81.38 331.00 72.62 C 331.12 63.88 331.71 65.48 332.00 63.62 C 332.29 61.77 332.65 62.67 332.75 61.50 C 332.85 60.33 332.79 57.81 332.62 56.62 C 332.46 55.44 332.35 55.33 331.75 54.38 C 331.15 53.42 330.10 51.94 329.00 50.88 C 327.90 49.81 326.44 48.81 325.12 48.00 C 323.81 47.19 323.10 46.83 321.12 46.00 C 319.15 45.17 316.85 44.15 313.25 43.00 C 309.65 41.85 302.83 39.81 299.50 39.12 C 296.17 38.44 294.98 38.75 293.25 38.88 C 291.52 39.00 290.17 39.44 289.12 39.88 Z" id="s-12-f-0"/>
<clipPath id="c-s-12"><use href="#s-12-f-0"/></clipPath>
<path d="M 418.75 252.25 C 416.92 250.54 414.71 248.71 411.62 247.00 C 408.54 245.29 403.27 243.15 400.25 242.00 C 397.23 240.85 395.10 240.48 393.50 240.12 C 391.90 239.77 391.65 239.88 390.62 239.88 C 389.60 239.88 388.17 239.90 387.38 240.12 C 386.58 240.35 386.27 240.73 385.88 241.25 C 385.48 241.77 385.15 242.19 385.00 243.25 C 384.85 244.31 384.71 245.46 385.00 247.62 C 385.29 249.79 386.48 253.90 386.75 256.25 C 387.02 258.60 386.96 258.92 386.62 261.75 C 386.29 264.58 385.56 269.73 384.75 273.25 C 383.94 276.77 382.92 279.71 381.75 282.88 C 380.58 286.04 379.42 288.69 377.75 292.25 C 376.08 295.81 373.48 301.15 371.75 304.25 C 370.02 307.35 368.38 309.81 367.38 310.88 C 366.38 311.94 365.96 310.50 365.75 310.62 C 365.54 310.75 366.19 311.19 366.12 311.62 C 366.06 312.06 368.12 309.35 365.38 313.25 C 362.62 317.15 352.40 331.31 349.62 335.00 C 346.85 338.69 348.96 335.46 348.75 335.38 C 348.54 335.29 348.42 334.21 348.38 334.50 C 348.33 334.79 350.50 334.44 348.50 337.12 C 346.50 339.81 341.69 345.35 336.38 350.62 C 331.06 355.90 322.29 363.77 316.62 368.75 C 310.96 373.73 307.29 376.62 302.38 380.50 C 297.46 384.38 294.35 386.92 287.12 392.00 C 279.90 397.08 263.85 407.56 259.00 411.00 C 254.15 414.44 258.04 412.17 258.00 412.62 C 257.96 413.08 257.75 413.58 258.75 413.75 C 259.75 413.92 260.90 414.33 264.00 413.62 C 267.10 412.92 272.04 411.48 277.38 409.50 C 282.71 407.52 290.04 404.54 296.00 401.75 C 301.96 398.96 308.44 395.42 313.12 392.75 C 317.81 390.08 320.96 387.88 324.12 385.75 C 327.29 383.62 329.27 382.17 332.12 380.00 C 334.98 377.83 337.35 376.21 341.25 372.75 C 345.15 369.29 352.90 361.62 355.50 359.25 C 358.10 356.88 356.48 358.58 356.88 358.50 C 357.27 358.42 357.69 358.90 357.88 358.75 C 358.06 358.60 357.73 358.19 358.00 357.62 C 358.27 357.06 358.33 356.71 359.50 355.38 C 360.67 354.04 362.40 352.60 365.00 349.62 C 367.60 346.65 373.21 339.73 375.12 337.50 C 377.04 335.27 376.17 336.44 376.50 336.25 C 376.83 336.06 377.00 336.23 377.12 336.38 C 377.25 336.52 377.19 337.04 377.25 337.12 C 377.31 337.21 377.54 337.17 377.50 336.88 C 377.46 336.58 376.96 335.90 377.00 335.38 C 377.04 334.85 376.29 335.77 377.75 333.75 C 379.21 331.73 383.42 326.48 385.75 323.25 C 388.08 320.02 389.58 317.75 391.75 314.38 C 393.92 311.00 396.38 307.10 398.75 303.00 C 401.12 298.90 403.75 293.35 406.00 289.75 C 408.25 286.15 409.62 284.62 412.25 281.38 C 414.88 278.12 419.83 272.90 421.75 270.25 C 423.67 267.60 423.42 267.17 423.75 265.50 C 424.08 263.83 423.94 261.62 423.75 260.25 C 423.56 258.88 423.46 258.58 422.62 257.25 C 421.79 255.92 420.58 253.96 418.75 252.25 Z" id="s-13-f-0"/>
<clipPath id="c-s-13"><use href="#s-13-f-0"/></clipPath>
<path d="M 372.50 98.38 C 372.12 98.92 371.94 99.54 371.88 100.25 C 371.81 100.96 370.44 99.79 372.12 102.62 C 373.81 105.46 378.02 111.81 382.00 117.25 C 385.98 122.69 392.17 130.79 396.00 135.25 C 399.83 139.71 403.10 142.23 405.00 144.00 C 406.90 145.77 406.29 145.27 407.38 145.88 C 408.46 146.48 410.08 147.29 411.50 147.62 C 412.92 147.96 414.73 147.88 415.88 147.88 C 417.02 147.88 417.50 147.83 418.38 147.62 C 419.25 147.42 420.04 147.35 421.12 146.62 C 422.21 145.90 423.94 144.46 424.88 143.25 C 425.81 142.04 426.27 140.73 426.75 139.38 C 427.23 138.02 427.60 137.58 427.75 135.12 C 427.90 132.67 427.79 126.92 427.62 124.62 C 427.46 122.33 427.23 122.60 426.75 121.38 C 426.27 120.15 425.40 118.40 424.75 117.25 C 424.10 116.10 423.75 115.50 422.88 114.50 C 422.00 113.50 420.98 112.35 419.50 111.25 C 418.02 110.15 416.04 108.92 414.00 107.88 C 411.96 106.83 412.04 106.62 407.25 105.00 C 402.46 103.38 389.79 99.46 385.25 98.12 C 380.71 96.79 381.67 97.21 380.00 97.00 C 378.33 96.79 376.23 96.88 375.25 96.88 C 374.27 96.88 374.58 96.75 374.12 97.00 C 373.67 97.25 372.88 97.83 372.50 98.38 Z" id="s-14-f-0"/>
<clipPath id="c-s-14"><use href="#s-14-f-0"/></clipPath>
</defs>
<g id="s-0" clip-path="url(#c-s-0)">
<use href="#s-0-f-0"/>
<path d="M 147.50 48.12 C 145.77 48.27 146.46 48.54 145.88 49.00 C 145.29 49.46 144.48 50.21 144.00 50.88 C 143.52 51.54 143.15 51.85 143.00 53.00 C 142.85 54.15 142.67 56.29 143.12 57.75 C 143.58 59.21 145.00 60.42 145.75 61.75 C 146.50 63.08 146.79 63.21 147.62 65.75 C 148.46 68.29 149.81 64.12 150.75 77.00 C 151.69 89.88 152.73 131.85 153.25 143.00 C 153.77 154.15 153.50 143.71 153.88 143.88 C 154.25 144.04 151.71 144.00 155.50 144.00 C 159.29 144.00 173.00 143.98 176.62 143.88 C 180.25 143.77 176.88 148.81 177.25 143.38 C 177.62 137.94 178.42 118.44 178.88 111.25 C 179.33 104.06 179.79 104.98 180.00 100.25 C 180.21 95.52 179.79 87.67 180.12 82.88 C 180.46 78.08 181.40 74.12 182.00 71.50 C 182.60 68.88 183.46 68.73 183.75 67.12 C 184.04 65.52 184.08 63.29 183.75 61.88 C 183.42 60.46 182.69 59.65 181.75 58.62 C 180.81 57.60 180.56 57.02 178.12 55.75 C 175.69 54.48 170.77 52.27 167.12 51.00 C 163.48 49.73 159.52 48.60 156.25 48.12 C 152.98 47.65 149.23 47.98 147.50 48.12 Z" id="s-0-f-1"/>
<path d="M 145.88 49.00 C 145.19 49.48 144.46 50.29 144.00 50.88 C 143.54 51.46 143.31 51.56 143.12 52.50 C 142.94 53.44 142.88 55.62 142.88 56.50 C 142.88 57.38 142.65 56.88 143.12 57.75 C 143.60 58.62 145.00 60.42 145.75 61.75 C 146.50 63.08 146.94 63.92 147.62 65.75 C 148.31 67.58 149.35 70.88 149.88 72.75 C 150.40 74.62 150.54 74.08 150.75 77.00 C 150.96 79.92 150.96 87.19 151.12 90.25 C 151.29 93.31 151.31 94.42 151.75 95.38 C 152.19 96.33 149.10 95.92 153.75 96.00 C 158.40 96.08 175.19 98.42 179.62 95.88 C 184.06 93.33 179.98 84.81 180.38 80.75 C 180.77 76.69 181.46 73.69 182.00 71.50 C 182.54 69.31 183.33 69.23 183.62 67.62 C 183.92 66.02 183.94 63.23 183.75 61.88 C 183.56 60.52 183.62 60.62 182.50 59.50 C 181.38 58.38 179.56 56.54 177.00 55.12 C 174.44 53.71 169.77 52.00 167.12 51.00 C 164.48 50.00 163.46 49.65 161.12 49.12 C 158.79 48.60 155.29 48.06 153.12 47.88 C 150.96 47.69 149.33 47.81 148.12 48.00 C 146.92 48.19 146.56 48.52 145.88 49.00 Z" id="s-0-f-2"/>
</g>
<g id="s-1" clip-path="url(#c-s-1)">
<use href="#s-1-f-0"/>
<path d="M 227.00 85.50 C 226.67 82.35 227.73 84.44 225.00 85.12 C 222.27 85.81 213.54 88.79 210.62 89.62 C 207.71 90.46 212.65 88.75 207.50 90.12 C 202.35 91.50 184.54 95.85 179.75 97.88 C 174.96 99.90 178.96 100.33 178.75 102.25 C 178.54 104.17 178.35 108.08 178.50 109.38 C 178.65 110.67 178.65 109.77 179.62 110.00 C 180.60 110.23 181.33 110.62 184.38 110.75 C 187.42 110.88 190.85 111.58 197.88 110.75 C 204.90 109.92 221.65 106.88 226.50 105.75 C 231.35 104.62 226.92 107.38 227.00 104.00 C 227.08 100.62 227.33 88.65 227.00 85.50 Z" id="s-1-f-1"/>
</g>
<g id="s-2" clip-path="url(#c-s-2)">
<use href="#s-2-f-0"/>
<path d="M 261.12 147.88 C 261.15 147.56 263.35 148.29 260.50 147.00 C 257.65 145.71 247.83 141.60 244.00 140.12 C 240.17 138.65 239.44 138.48 237.50 138.12 C 235.56 137.77 238.21 136.90 232.38 138.00 C 226.54 139.10 211.58 142.96 202.50 144.75 C 193.42 146.54 182.65 148.10 177.88 148.75 C 173.10 149.40 174.85 148.52 173.88 148.62 C 172.90 148.73 172.94 149.21 172.00 149.38 C 171.06 149.54 169.17 149.46 168.25 149.62 C 167.33 149.79 168.56 150.02 166.50 150.38 C 164.44 150.73 158.06 151.33 155.88 151.75 C 153.69 152.17 160.40 151.71 153.38 152.88 C 146.35 154.04 127.17 156.88 113.75 158.75 C 100.33 160.62 80.85 162.92 72.88 164.12 C 64.90 165.33 67.19 165.54 65.88 166.00 C 64.56 166.46 65.15 166.48 65.00 166.88 C 64.85 167.27 64.83 167.77 65.00 168.38 C 65.17 168.98 65.52 169.79 66.00 170.50 C 66.48 171.21 66.65 171.56 67.88 172.62 C 69.10 173.69 71.31 176.17 73.38 176.88 C 75.44 177.58 74.19 177.19 80.25 176.88 C 86.31 176.56 99.10 176.29 109.75 175.00 C 120.40 173.71 137.31 170.17 144.12 169.12 C 150.94 168.08 145.29 169.44 150.62 168.75 C 155.96 168.06 168.96 165.96 176.12 165.00 C 183.29 164.04 184.98 163.88 193.62 163.00 C 202.27 162.12 217.67 161.90 228.00 159.75 C 238.33 157.60 250.23 151.94 255.62 150.12 C 261.02 148.31 259.46 149.25 260.38 148.88 C 261.29 148.50 261.10 148.19 261.12 147.88 Z" id="s-2-f-1"/>
<path d="M 257.00 146.12 C 256.88 145.42 258.98 146.31 256.25 145.12 C 253.52 143.94 243.90 140.19 240.62 139.00 C 237.35 137.81 238.00 138.17 236.62 138.00 C 235.25 137.83 238.06 136.88 232.38 138.00 C 226.69 139.12 211.58 142.96 202.50 144.75 C 193.42 146.54 182.65 148.10 177.88 148.75 C 173.10 149.40 174.85 148.52 173.88 148.62 C 172.90 148.73 172.94 149.21 172.00 149.38 C 171.06 149.54 169.17 149.46 168.25 149.62 C 167.33 149.79 168.56 150.02 166.50 150.38 C 164.44 150.73 158.06 151.33 155.88 151.75 C 153.69 152.17 160.40 151.71 153.38 152.88 C 146.35 154.04 127.17 156.88 113.75 158.75 C 100.33 160.62 80.85 162.92 72.88 164.12 C 64.90 165.33 67.19 165.54 65.88 166.00 C 64.56 166.46 65.15 166.48 65.00 166.88 C 64.85 167.27 64.83 167.77 65.00 168.38 C 65.17 168.98 65.52 169.79 66.00 170.50 C 66.48 171.21 66.65 171.56 67.88 172.62 C 69.10 173.69 71.31 176.17 73.38 176.88 C 75.44 177.58 73.81 177.23 80.25 176.88 C 86.69 176.52 101.35 176.04 112.00 174.75 C 122.65 173.46 137.69 170.12 144.12 169.12 C 150.56 168.12 145.29 169.44 150.62 168.75 C 155.96 168.06 168.96 165.96 176.12 165.00 C 183.29 164.04 184.98 163.88 193.62 163.00 C 202.27 162.12 217.54 161.92 228.00 159.75 C 238.46 157.58 251.54 151.73 256.38 150.00 C 261.21 148.27 256.90 150.02 257.00 149.38 C 257.10 148.73 257.12 146.83 257.00 146.12 Z" id="s-2-f-2"/>
<path d="M 208.88 143.75 C 208.75 141.00 209.33 143.08 208.25 143.25 C 207.17 143.42 207.44 143.83 202.38 144.75 C 197.31 145.67 182.62 148.10 177.88 148.75 C 173.12 149.40 174.85 148.52 173.88 148.62 C 172.90 148.73 172.94 149.21 172.00 149.38 C 171.06 149.54 169.17 149.46 168.25 149.62 C 167.33 149.79 168.46 150.04 166.50 150.38 C 164.54 150.71 158.60 151.23 156.50 151.62 C 154.40 152.02 167.81 150.67 153.88 152.75 C 139.94 154.83 87.54 161.92 72.88 164.12 C 58.21 166.33 67.19 165.54 65.88 166.00 C 64.56 166.46 65.15 166.48 65.00 166.88 C 64.85 167.27 64.85 167.81 65.00 168.38 C 65.15 168.94 65.44 169.60 65.88 170.25 C 66.31 170.90 66.48 171.19 67.62 172.25 C 68.77 173.31 71.62 175.83 72.75 176.62 C 73.88 177.42 73.12 176.96 74.38 177.00 C 75.62 177.04 73.98 177.25 80.25 176.88 C 86.52 176.50 101.33 176.04 112.00 174.75 C 122.67 173.46 137.81 170.12 144.25 169.12 C 150.69 168.12 144.08 169.58 150.62 168.75 C 157.17 167.92 173.92 165.29 183.50 164.12 C 193.08 162.96 203.90 162.27 208.12 161.75 C 212.35 161.23 208.73 161.33 208.88 161.00 C 209.02 160.67 209.00 162.62 209.00 159.75 C 209.00 156.88 209.00 146.50 208.88 143.75 Z" id="s-2-f-3"/>
<path d="M 160.88 151.75 C 160.79 149.35 161.23 151.40 160.50 151.38 C 159.77 151.35 157.60 151.40 156.50 151.62 C 155.40 151.85 167.81 150.67 153.88 152.75 C 139.94 154.83 87.54 161.92 72.88 164.12 C 58.21 166.33 67.19 165.54 65.88 166.00 C 64.56 166.46 65.15 166.48 65.00 166.88 C 64.85 167.27 64.85 167.81 65.00 168.38 C 65.15 168.94 64.75 168.98 65.88 170.25 C 67.00 171.52 70.50 174.90 71.75 176.00 C 73.00 177.10 72.44 176.71 73.38 176.88 C 74.31 177.04 70.94 177.35 77.38 177.00 C 83.81 176.65 100.69 176.08 112.00 174.75 C 123.31 173.42 137.19 170.23 145.25 169.00 C 153.31 167.77 157.75 167.92 160.38 167.38 C 163.00 166.83 160.92 168.35 161.00 165.75 C 161.08 163.15 160.96 154.15 160.88 151.75 Z" id="s-2-f-4"/>
<path d="M 112.75 159.00 C 112.10 156.69 115.77 158.27 109.12 159.12 C 102.48 159.98 80.08 162.98 72.88 164.12 C 65.67 165.27 67.19 165.54 65.88 166.00 C 64.56 166.46 65.15 166.48 65.00 166.88 C 64.85 167.27 64.85 167.81 65.00 168.38 C 65.15 168.94 65.38 169.52 65.88 170.25 C 66.38 170.98 66.75 171.65 68.00 172.75 C 69.25 173.85 71.33 176.19 73.38 176.88 C 75.42 177.56 73.79 177.23 80.25 176.88 C 86.71 176.52 106.67 175.40 112.12 174.75 C 117.58 174.10 112.90 175.62 113.00 173.00 C 113.10 170.38 113.40 161.31 112.75 159.00 Z" id="s-2-f-5"/>
</g>
<g id="s-3" clip-path="url(#c-s-3)">
<use href="#s-3-f-0"/>
<path d="M 111.75 173.62 C 111.48 173.62 112.40 173.90 112.25 174.00 C 112.10 174.10 111.15 174.29 110.88 174.25 C 110.60 174.21 110.77 173.71 110.62 173.75 C 110.48 173.79 112.50 174.35 110.00 174.50 C 107.50 174.65 98.56 174.46 95.62 174.62 C 92.69 174.79 95.40 175.33 92.38 175.50 C 89.35 175.67 80.58 175.42 77.50 175.62 C 74.42 175.83 73.85 175.40 73.88 176.75 C 73.90 178.10 76.65 181.52 77.62 183.75 C 78.60 185.98 79.23 187.92 79.75 190.12 C 80.27 192.33 80.58 193.38 80.75 197.00 C 80.92 200.62 81.08 203.44 80.75 211.88 C 80.42 220.31 79.42 238.35 78.75 247.62 C 78.08 256.90 77.58 260.52 76.75 267.50 C 75.92 274.48 74.79 283.06 73.75 289.50 C 72.71 295.94 72.17 298.85 70.50 306.12 C 68.83 313.40 66.04 324.94 63.75 333.12 C 61.46 341.31 60.12 345.77 56.75 355.25 C 53.38 364.73 46.69 382.06 43.50 390.00 C 40.31 397.94 39.65 398.85 37.62 402.88 C 35.60 406.90 32.35 412.12 31.38 414.12 C 30.40 416.12 29.69 414.77 31.75 414.88 C 33.81 414.98 40.10 416.69 43.75 414.75 C 47.40 412.81 50.96 406.56 53.62 403.25 C 56.29 399.94 57.40 398.35 59.75 394.88 C 62.10 391.40 65.27 386.96 67.75 382.38 C 70.23 377.79 72.46 372.50 74.62 367.38 C 76.79 362.25 78.90 356.77 80.75 351.62 C 82.60 346.48 83.92 342.56 85.75 336.50 C 87.58 330.44 89.77 323.35 91.75 315.25 C 93.73 307.15 95.79 297.90 97.62 287.88 C 99.46 277.85 101.35 265.33 102.75 255.12 C 104.15 244.92 105.29 231.98 106.00 226.62 C 106.71 221.27 106.67 226.15 107.00 223.00 C 107.33 219.85 107.50 213.46 108.00 207.75 C 108.50 202.04 109.38 193.31 110.00 188.75 C 110.62 184.19 111.46 182.19 111.75 180.38 C 112.04 178.56 112.02 178.77 111.75 177.88 C 111.48 176.98 110.25 175.56 110.12 175.00 C 110.00 174.44 110.50 174.58 111.00 174.50 C 111.50 174.42 112.65 174.58 113.12 174.50 C 113.60 174.42 114.10 174.15 113.88 174.00 C 113.65 173.85 112.02 173.62 111.75 173.62 Z" id="s-3-f-1"/>
<path d="M 111.75 173.62 C 111.48 173.62 112.40 173.90 112.25 174.00 C 112.10 174.10 111.15 174.29 110.88 174.25 C 110.60 174.21 110.77 173.71 110.62 173.75 C 110.48 173.79 112.50 174.35 110.00 174.50 C 107.50 174.65 98.56 174.46 95.62 174.62 C 92.69 174.79 95.40 175.33 92.38 175.50 C 89.35 175.67 80.58 175.42 77.50 175.62 C 74.42 175.83 74.02 175.77 73.88 176.75 C 73.73 177.73 75.65 179.27 76.62 181.50 C 77.60 183.73 79.06 187.54 79.75 190.12 C 80.44 192.71 80.58 193.38 80.75 197.00 C 80.92 200.62 80.90 206.02 80.75 211.88 C 80.60 217.73 80.38 224.38 79.88 232.12 C 79.38 239.88 78.77 248.81 77.75 258.38 C 76.73 267.94 75.12 280.79 73.75 289.50 C 72.38 298.21 71.17 303.35 69.50 310.62 C 67.83 317.90 65.54 326.67 63.75 333.12 C 61.96 339.58 60.56 343.98 58.75 349.38 C 56.94 354.77 53.81 362.58 52.88 365.50 C 51.94 368.42 49.52 366.65 53.12 366.88 C 56.73 367.10 69.90 369.42 74.50 366.88 C 79.10 364.33 78.88 356.69 80.75 351.62 C 82.62 346.56 83.60 343.85 85.75 336.50 C 87.90 329.15 91.31 317.54 93.62 307.50 C 95.94 297.46 97.96 286.08 99.62 276.25 C 101.29 266.42 102.58 256.62 103.62 248.50 C 104.67 240.38 105.31 231.75 105.88 227.50 C 106.44 223.25 106.65 226.29 107.00 223.00 C 107.35 219.71 107.50 213.46 108.00 207.75 C 108.50 202.04 109.38 193.31 110.00 188.75 C 110.62 184.19 111.46 182.19 111.75 180.38 C 112.04 178.56 112.02 178.77 111.75 177.88 C 111.48 176.98 110.25 175.56 110.12 175.00 C 110.00 174.44 110.50 174.58 111.00 174.50 C 111.50 174.42 112.65 174.58 113.12 174.50 C 113.60 174.42 114.10 174.15 113.88 174.00 C 113.65 173.85 112.02 173.62 111.75 173.62 Z" id="s-3-f-2"/>
<path d="M 111.75 173.62 C 111.48 173.62 112.40 173.90 112.25 174.00 C 112.10 174.10 111.15 174.29 110.88 174.25 C 110.60 174.21 110.77 173.71 110.62 173.75 C 110.48 173.79 112.50 174.35 110.00 174.50 C 107.50 174.65 98.56 174.46 95.62 174.62 C 92.69 174.79 95.40 175.33 92.38 175.50 C 89.35 175.67 80.58 175.42 77.50 175.62 C 74.42 175.83 73.81 175.29 73.88 176.75 C 73.94 178.21 76.77 181.50 77.88 184.38 C 78.98 187.25 80.02 189.42 80.50 194.00 C 80.98 198.58 81.04 202.94 80.75 211.88 C 80.46 220.81 79.42 238.35 78.75 247.62 C 78.08 256.90 77.58 260.52 76.75 267.50 C 75.92 274.48 74.79 283.06 73.75 289.50 C 72.71 295.94 71.52 301.38 70.50 306.12 C 69.48 310.88 68.04 315.90 67.62 318.00 C 67.21 320.10 64.23 318.60 68.00 318.75 C 71.77 318.90 86.44 318.96 90.25 318.88 C 94.06 318.79 89.79 322.65 90.88 318.25 C 91.96 313.85 94.77 303.02 96.75 292.50 C 98.73 281.98 101.23 265.96 102.75 255.12 C 104.27 244.29 105.17 232.85 105.88 227.50 C 106.58 222.15 106.65 226.29 107.00 223.00 C 107.35 219.71 107.50 213.46 108.00 207.75 C 108.50 202.04 109.38 193.31 110.00 188.75 C 110.62 184.19 111.46 182.19 111.75 180.38 C 112.04 178.56 112.02 178.77 111.75 177.88 C 111.48 176.98 110.25 175.56 110.12 175.00 C 110.00 174.44 110.50 174.58 111.00 174.50 C 111.50 174.42 112.65 174.58 113.12 174.50 C 113.60 174.42 114.10 174.15 113.88 174.00 C 113.65 173.85 112.02 173.62 111.75 173.62 Z" id="s-3-f-3"/>
<path d="M 111.75 173.62 C 111.48 173.62 112.40 173.90 112.25 174.00 C 112.10 174.10 111.15 174.29 110.88 174.25 C 110.60 174.21 110.77 173.71 110.62 173.75 C 110.48 173.79 112.50 174.35 110.00 174.50 C 107.50 174.65 98.56 174.46 95.62 174.62 C 92.69 174.79 95.40 175.33 92.38 175.50 C 89.35 175.67 80.58 175.42 77.50 175.62 C 74.42 175.83 74.02 175.77 73.88 176.75 C 73.73 177.73 75.65 179.27 76.62 181.50 C 77.60 183.73 79.06 187.54 79.75 190.12 C 80.44 192.71 80.58 193.38 80.75 197.00 C 80.92 200.62 80.90 206.02 80.75 211.88 C 80.60 217.73 80.38 224.38 79.88 232.12 C 79.38 239.88 78.35 252.12 77.75 258.38 C 77.15 264.62 76.44 267.54 76.25 269.62 C 76.06 271.71 72.96 270.65 76.62 270.88 C 80.29 271.10 94.27 271.08 98.25 271.00 C 102.23 270.92 99.60 274.12 100.50 270.38 C 101.40 266.62 102.73 255.65 103.62 248.50 C 104.52 241.35 105.31 231.75 105.88 227.50 C 106.44 223.25 106.65 226.27 107.00 223.00 C 107.35 219.73 107.50 213.58 108.00 207.88 C 108.50 202.17 109.38 193.33 110.00 188.75 C 110.62 184.17 111.46 182.19 111.75 180.38 C 112.04 178.56 112.02 178.77 111.75 177.88 C 111.48 176.98 110.25 175.56 110.12 175.00 C 110.00 174.44 110.50 174.58 111.00 174.50 C 111.50 174.42 112.65 174.58 113.12 174.50 C 113.60 174.42 114.10 174.15 113.88 174.00 C 113.65 173.85 112.02 173.62 111.75 173.62 Z" id="s-3-f-4"/>
<path d="M 113.75 173.88 C 113.52 173.73 111.96 173.60 111.75 173.62 C 111.54 173.65 112.65 173.90 112.50 174.00 C 112.35 174.10 111.19 174.29 110.88 174.25 C 110.56 174.21 110.77 173.71 110.62 173.75 C 110.48 173.79 112.50 174.35 110.00 174.50 C 107.50 174.65 98.56 174.46 95.62 174.62 C 92.69 174.79 95.40 175.33 92.38 175.50 C 89.35 175.67 80.56 175.42 77.50 175.62 C 74.44 175.83 74.56 176.40 74.00 176.75 C 73.44 177.10 73.69 176.96 74.12 177.75 C 74.56 178.54 75.88 180.08 76.62 181.50 C 77.38 182.92 77.98 184.17 78.62 186.25 C 79.27 188.33 80.19 187.94 80.50 194.00 C 80.81 200.06 80.17 217.79 80.50 222.62 C 80.83 227.46 78.42 222.94 82.50 223.00 C 86.58 223.06 100.92 223.06 105.00 223.00 C 109.08 222.94 106.48 225.42 107.00 222.62 C 107.52 219.83 107.62 211.90 108.12 206.25 C 108.62 200.60 109.40 193.06 110.00 188.75 C 110.60 184.44 111.46 182.19 111.75 180.38 C 112.04 178.56 112.02 178.77 111.75 177.88 C 111.48 176.98 110.25 175.56 110.12 175.00 C 110.00 174.44 110.50 174.58 111.00 174.50 C 111.50 174.42 112.67 174.60 113.12 174.50 C 113.58 174.40 113.98 174.02 113.75 173.88 Z" id="s-3-f-5"/>
</g>
<g id="s-4" clip-path="url(#c-s-4)">
<use href="#s-4-f-0"/>
<path d="M 201.88 197.50 C 201.60 195.02 201.65 196.92 200.38 197.00 C 199.10 197.08 199.83 196.56 194.25 198.00 C 188.67 199.44 171.88 204.31 166.88 205.62 C 161.88 206.94 169.60 204.52 164.25 205.88 C 158.90 207.23 143.83 211.42 134.75 213.75 C 125.67 216.08 114.48 218.50 109.75 219.88 C 105.02 221.25 107.06 221.25 106.38 222.00 C 105.69 222.75 105.73 223.58 105.62 224.38 C 105.52 225.17 105.12 226.04 105.75 226.75 C 106.38 227.46 108.17 228.15 109.38 228.62 C 110.58 229.10 110.81 229.46 113.00 229.62 C 115.19 229.79 114.71 230.60 122.50 229.62 C 130.29 228.65 149.12 225.73 159.75 223.75 C 170.38 221.77 179.29 219.42 186.25 217.75 C 193.21 216.08 198.88 214.73 201.50 213.75 C 204.12 212.77 201.94 214.58 202.00 211.88 C 202.06 209.17 202.15 199.98 201.88 197.50 Z" id="s-4-f-1"/>
<path d="M 153.88 209.12 C 153.67 206.75 155.94 207.98 152.75 208.75 C 149.56 209.52 141.60 212.00 134.75 213.75 C 127.90 215.50 116.35 217.88 111.62 219.25 C 106.90 220.62 107.38 221.15 106.38 222.00 C 105.38 222.85 105.73 223.58 105.62 224.38 C 105.52 225.17 105.12 226.04 105.75 226.75 C 106.38 227.46 108.17 228.15 109.38 228.62 C 110.58 229.10 111.44 229.42 113.00 229.62 C 114.56 229.83 116.00 230.04 118.75 229.88 C 121.50 229.71 125.73 229.15 129.50 228.62 C 133.27 228.10 139.04 227.19 141.38 226.75 C 143.71 226.31 141.50 226.33 143.50 226.00 C 145.50 225.67 151.62 225.25 153.38 224.75 C 155.12 224.25 153.92 225.60 154.00 223.00 C 154.08 220.40 154.08 211.50 153.88 209.12 Z" id="s-4-f-2"/>
</g>
<g id="s-5" clip-path="url(#c-s-5)">
<use href="#s-5-f-0"/>
<path d="M 145.62 168.75 C 145.08 169.06 145.12 168.75 145.00 169.50 C 144.88 170.25 144.60 169.69 144.88 173.25 C 145.15 176.81 146.31 186.21 146.62 190.88 C 146.94 195.54 146.88 198.00 146.75 201.25 C 146.62 204.50 146.21 208.40 145.88 210.38 C 145.54 212.35 144.98 211.79 144.75 213.12 C 144.52 214.46 144.69 217.02 144.50 218.38 C 144.31 219.73 143.92 217.90 143.62 221.25 C 143.33 224.60 142.83 235.00 142.75 238.50 C 142.67 242.00 142.75 240.77 143.12 242.25 C 143.50 243.73 144.50 246.23 145.00 247.38 C 145.50 248.52 145.25 248.04 146.12 249.12 C 147.00 250.21 149.00 252.60 150.25 253.88 C 151.50 255.15 151.44 255.42 153.62 256.75 C 155.81 258.08 159.35 260.54 163.38 261.88 C 167.40 263.21 173.00 263.98 177.75 264.75 C 182.50 265.52 186.40 266.15 191.88 266.50 C 197.35 266.85 207.44 266.88 210.62 266.88 C 213.81 266.88 210.94 269.75 211.00 266.50 C 211.06 263.25 211.06 250.83 211.00 247.38 C 210.94 243.92 212.94 246.04 210.62 245.75 C 208.31 245.46 202.27 245.96 197.12 245.62 C 191.98 245.29 184.35 244.60 179.75 243.75 C 175.15 242.90 171.73 241.38 169.50 240.50 C 167.27 239.62 167.29 239.29 166.38 238.50 C 165.46 237.71 164.56 236.73 164.00 235.75 C 163.44 234.77 163.19 234.71 163.00 232.62 C 162.81 230.54 162.83 225.04 162.88 223.25 C 162.92 221.46 163.04 222.23 163.25 221.88 C 163.46 221.52 163.96 221.90 164.12 221.12 C 164.29 220.35 164.08 218.27 164.25 217.25 C 164.42 216.23 164.96 216.00 165.12 215.00 C 165.29 214.00 165.08 212.17 165.25 211.25 C 165.42 210.33 166.00 211.15 166.12 209.50 C 166.25 207.85 165.52 204.56 166.00 201.38 C 166.48 198.19 168.31 192.67 169.00 190.38 C 169.69 188.08 169.33 189.06 170.12 187.62 C 170.92 186.19 173.17 183.31 173.75 181.75 C 174.33 180.19 173.98 179.29 173.62 178.25 C 173.27 177.21 172.50 176.35 171.62 175.50 C 170.75 174.65 170.73 174.33 168.38 173.12 C 166.02 171.92 159.27 169.17 157.50 168.25 C 155.73 167.33 157.29 167.77 157.75 167.62 C 158.21 167.48 159.83 167.50 160.25 167.38 C 160.67 167.25 162.25 166.83 160.25 166.88 C 158.25 166.92 150.69 167.31 148.25 167.62 C 145.81 167.94 146.17 168.44 145.62 168.75 Z" id="s-5-f-1"/>
<path d="M 148.25 167.62 C 146.58 167.88 145.81 168.50 145.25 169.00 C 144.69 169.50 144.92 169.38 144.88 170.62 C 144.83 171.88 144.71 173.12 145.00 176.50 C 145.29 179.88 146.33 186.75 146.62 190.88 C 146.92 195.00 146.88 198.00 146.75 201.25 C 146.62 204.50 146.21 208.40 145.88 210.38 C 145.54 212.35 144.98 211.79 144.75 213.12 C 144.52 214.46 144.69 217.02 144.50 218.38 C 144.31 219.73 143.77 219.75 143.62 221.25 C 143.48 222.75 143.73 225.96 143.62 227.38 C 143.52 228.79 143.15 228.50 143.00 229.75 C 142.85 231.00 142.75 232.92 142.75 234.88 C 142.75 236.83 142.62 239.42 143.00 241.50 C 143.38 243.58 143.77 245.29 145.00 247.38 C 146.23 249.46 148.94 252.44 150.38 254.00 C 151.81 255.56 152.25 255.79 153.62 256.75 C 155.00 257.71 157.02 258.92 158.62 259.75 C 160.23 260.58 162.38 261.67 163.25 261.75 C 164.12 261.83 163.75 261.27 163.88 260.25 C 164.00 259.23 164.17 261.79 164.00 255.62 C 163.83 249.46 163.00 228.88 162.88 223.25 C 162.75 217.62 163.04 222.23 163.25 221.88 C 163.46 221.52 163.79 222.90 164.12 221.12 C 164.46 219.35 164.92 213.19 165.25 211.25 C 165.58 209.31 166.02 211.02 166.12 209.50 C 166.23 207.98 165.73 204.19 165.88 202.12 C 166.02 200.06 166.31 199.50 167.00 197.12 C 167.69 194.75 168.90 190.38 170.00 187.88 C 171.10 185.38 173.00 183.65 173.62 182.12 C 174.25 180.60 173.98 179.75 173.75 178.75 C 173.52 177.75 173.15 177.06 172.25 176.12 C 171.35 175.19 170.83 174.44 168.38 173.12 C 165.92 171.81 159.27 169.17 157.50 168.25 C 155.73 167.33 157.29 167.79 157.75 167.62 C 158.21 167.46 159.85 167.40 160.25 167.25 C 160.65 167.10 160.56 166.83 160.12 166.75 C 159.69 166.67 158.44 166.62 157.62 166.75 C 156.81 166.88 156.81 167.35 155.25 167.50 C 153.69 167.65 149.92 167.38 148.25 167.62 Z" id="s-5-f-2"/>
<path d="M 160.12 166.75 C 159.69 166.67 158.44 166.62 157.62 166.75 C 156.81 166.88 156.81 167.35 155.25 167.50 C 153.69 167.65 149.85 167.42 148.25 167.62 C 146.65 167.83 146.17 168.44 145.62 168.75 C 145.08 169.06 145.10 168.21 145.00 169.50 C 144.90 170.79 144.73 172.94 145.00 176.50 C 145.27 180.06 146.33 186.75 146.62 190.88 C 146.92 195.00 146.88 198.00 146.75 201.25 C 146.62 204.50 146.23 208.31 145.88 210.38 C 145.52 212.44 144.79 212.71 144.62 213.62 C 144.46 214.54 141.69 215.44 144.88 215.88 C 148.06 216.31 160.46 216.23 163.75 216.25 C 167.04 216.27 164.40 216.21 164.62 216.00 C 164.85 215.79 165.02 215.79 165.12 215.00 C 165.23 214.21 165.08 212.17 165.25 211.25 C 165.42 210.33 166.02 211.02 166.12 209.50 C 166.23 207.98 165.35 205.44 165.88 202.12 C 166.40 198.81 167.94 193.00 169.25 189.62 C 170.56 186.25 173.02 183.77 173.75 181.88 C 174.48 179.98 173.88 179.21 173.62 178.25 C 173.38 177.29 173.00 176.90 172.25 176.12 C 171.50 175.35 171.58 174.94 169.12 173.62 C 166.67 172.31 159.40 169.25 157.50 168.25 C 155.60 167.25 157.29 167.79 157.75 167.62 C 158.21 167.46 159.85 167.40 160.25 167.25 C 160.65 167.10 160.56 166.83 160.12 166.75 Z" id="s-5-f-3"/>
</g>
<g id="s-6" clip-path="url(#c-s-6)">
<use href="#s-6-f-0"/>
<path d="M 139.75 281.00 C 138.12 281.15 138.15 281.31 137.38 281.88 C 136.60 282.44 135.54 283.56 135.12 284.38 C 134.71 285.19 134.25 285.23 134.88 286.75 C 135.50 288.27 137.90 291.04 138.88 293.50 C 139.85 295.96 139.92 287.71 140.75 301.50 C 141.58 315.29 143.29 363.69 143.88 376.25 C 144.46 388.81 144.00 376.75 144.25 376.88 C 144.50 377.00 142.29 377.00 145.38 377.00 C 148.46 377.00 159.73 377.02 162.75 376.88 C 165.77 376.73 163.12 387.38 163.50 376.12 C 163.88 364.88 164.42 322.12 165.00 309.38 C 165.58 296.62 166.38 302.00 167.00 299.62 C 167.62 297.25 168.46 296.67 168.75 295.12 C 169.04 293.58 169.15 291.60 168.75 290.38 C 168.35 289.15 167.19 288.48 166.38 287.75 C 165.56 287.02 165.62 286.79 163.88 286.00 C 162.12 285.21 158.67 283.83 155.88 283.00 C 153.08 282.17 149.81 281.33 147.12 281.00 C 144.44 280.67 141.38 280.85 139.75 281.00 Z" id="s-6-f-1"/>
<path d="M 137.38 281.88 C 136.60 282.46 135.54 283.69 135.12 284.50 C 134.71 285.31 134.25 285.25 134.88 286.75 C 135.50 288.25 137.92 291.17 138.88 293.50 C 139.83 295.83 140.10 294.90 140.62 300.75 C 141.15 306.60 141.52 323.92 142.00 328.62 C 142.48 333.33 139.81 328.96 143.50 329.00 C 147.19 329.04 160.58 329.29 164.12 328.88 C 167.67 328.46 164.58 329.92 164.75 326.50 C 164.92 323.08 164.75 312.85 165.12 308.38 C 165.50 303.90 166.40 301.83 167.00 299.62 C 167.60 297.42 168.46 296.67 168.75 295.12 C 169.04 293.58 169.15 291.60 168.75 290.38 C 168.35 289.15 167.19 288.48 166.38 287.75 C 165.56 287.02 166.15 286.94 163.88 286.00 C 161.60 285.06 155.90 282.98 152.75 282.12 C 149.60 281.27 147.17 281.06 145.00 280.88 C 142.83 280.69 141.02 280.83 139.75 281.00 C 138.48 281.17 138.15 281.29 137.38 281.88 Z" id="s-6-f-2"/>
</g>
<g id="s-7" clip-path="url(#c-s-7)">
<use href="#s-7-f-0"/>
<path d="M 184.75 281.00 C 183.12 281.15 183.02 281.50 182.38 281.88 C 181.73 282.25 181.27 282.75 180.88 283.25 C 180.48 283.75 180.15 284.12 180.00 284.88 C 179.85 285.62 179.40 286.17 180.00 287.75 C 180.60 289.33 182.67 291.96 183.62 294.38 C 184.58 296.79 185.10 288.65 185.75 302.25 C 186.40 315.85 187.15 363.58 187.50 376.00 C 187.85 388.42 187.60 376.58 187.88 376.75 C 188.15 376.92 186.17 376.98 189.12 377.00 C 192.08 377.02 202.77 376.98 205.62 376.88 C 208.48 376.77 205.50 388.02 206.25 376.38 C 207.00 364.73 209.33 319.81 210.12 307.00 C 210.92 294.19 210.56 301.48 211.00 299.50 C 211.44 297.52 212.46 296.65 212.75 295.12 C 213.04 293.60 213.25 291.75 212.75 290.38 C 212.25 289.00 211.17 287.92 209.75 286.88 C 208.33 285.83 206.25 284.92 204.25 284.12 C 202.25 283.33 199.77 282.65 197.75 282.12 C 195.73 281.60 194.29 281.19 192.12 281.00 C 189.96 280.81 186.38 280.85 184.75 281.00 Z" id="s-7-f-1"/>
<path d="M 182.38 281.88 C 181.60 282.44 180.52 283.40 180.12 284.38 C 179.73 285.35 179.42 286.08 180.00 287.75 C 180.58 289.42 182.69 292.12 183.62 294.38 C 184.56 296.62 185.17 295.58 185.62 301.25 C 186.08 306.92 186.17 323.77 186.38 328.38 C 186.58 332.98 183.25 328.77 186.88 328.88 C 190.50 328.98 204.44 329.25 208.12 329.00 C 211.81 328.75 208.54 332.15 209.00 327.38 C 209.46 322.60 210.25 305.75 210.88 300.38 C 211.50 295.00 212.46 296.83 212.75 295.12 C 213.04 293.42 212.77 291.17 212.62 290.12 C 212.48 289.08 212.56 289.56 211.88 288.88 C 211.19 288.19 209.71 286.77 208.50 286.00 C 207.29 285.23 206.42 284.90 204.62 284.25 C 202.83 283.60 200.19 282.69 197.75 282.12 C 195.31 281.56 192.17 281.06 190.00 280.88 C 187.83 280.69 186.02 280.83 184.75 281.00 C 183.48 281.17 183.15 281.31 182.38 281.88 Z" id="s-7-f-2"/>
</g>
<g id="s-8" clip-path="url(#c-s-8)">
<use href="#s-8-f-0"/>
<path d="M 93.62 326.00 C 92.48 326.21 92.40 326.88 92.12 327.38 C 91.85 327.88 91.56 327.94 92.00 329.00 C 92.44 330.06 93.25 330.69 94.75 333.75 C 96.25 336.81 98.46 342.48 101.00 347.38 C 103.54 352.27 107.40 359.02 110.00 363.12 C 112.60 367.23 115.21 370.23 116.62 372.00 C 118.04 373.77 117.19 373.42 118.50 373.75 C 119.81 374.08 123.17 374.02 124.50 374.00 C 125.83 373.98 125.77 374.08 126.50 373.62 C 127.23 373.17 128.19 372.46 128.88 371.25 C 129.56 370.04 130.29 368.52 130.62 366.38 C 130.96 364.23 130.88 360.40 130.88 358.38 C 130.88 356.35 130.83 355.75 130.62 354.25 C 130.42 352.75 130.10 351.02 129.62 349.38 C 129.15 347.73 128.40 345.77 127.75 344.38 C 127.10 342.98 126.40 341.92 125.75 341.00 C 125.10 340.08 125.33 340.04 123.88 338.88 C 122.42 337.71 120.00 335.79 117.00 334.00 C 114.00 332.21 108.88 329.44 105.88 328.12 C 102.88 326.81 101.04 326.48 99.00 326.12 C 96.96 325.77 94.77 325.79 93.62 326.00 Z" id="s-8-f-1"/>
</g>
<g id="s-9" clip-path="url(#c-s-9)">
<use href="#s-9-f-0"/>
<path d="M 271.00 305.00 C 269.46 303.27 266.71 300.83 264.38 299.00 C 262.04 297.17 259.21 295.31 257.00 294.00 C 254.79 292.69 252.67 291.58 251.12 291.12 C 249.58 290.67 248.77 290.58 247.75 291.25 C 246.73 291.92 246.52 291.17 245.00 295.12 C 243.48 299.08 241.17 308.38 238.62 315.00 C 236.08 321.62 231.52 331.10 229.75 334.88 C 227.98 338.65 228.29 336.98 228.00 337.62 C 227.71 338.27 225.12 338.56 228.00 338.75 C 230.88 338.94 240.12 340.54 245.25 338.75 C 250.38 336.96 254.67 331.00 258.75 328.00 C 262.83 325.00 267.42 322.50 269.75 320.75 C 272.08 319.00 272.06 318.79 272.75 317.50 C 273.44 316.21 273.73 314.35 273.88 313.00 C 274.02 311.65 274.10 310.71 273.62 309.38 C 273.15 308.04 272.54 306.73 271.00 305.00 Z" id="s-9-f-1"/>
</g>
<g id="s-10" clip-path="url(#c-s-10)">
<use href="#s-10-f-0"/>
<path d="M 266.88 363.62 C 266.75 362.23 269.35 362.40 266.00 363.12 C 262.65 363.85 256.65 365.08 246.75 368.00 C 236.85 370.92 213.69 378.52 206.62 380.62 C 199.56 382.73 204.85 380.52 204.38 380.62 C 203.90 380.73 204.25 381.08 203.75 381.25 C 203.25 381.42 201.88 381.46 201.38 381.62 C 200.88 381.79 201.25 382.08 200.75 382.25 C 200.25 382.42 198.88 382.46 198.38 382.62 C 197.88 382.79 198.25 383.08 197.75 383.25 C 197.25 383.42 195.88 383.46 195.38 383.62 C 194.88 383.79 195.25 384.08 194.75 384.25 C 194.25 384.42 192.94 384.44 192.38 384.62 C 191.81 384.81 191.92 385.21 191.38 385.38 C 190.83 385.54 189.77 385.38 189.12 385.62 C 188.48 385.88 189.88 386.15 187.50 386.88 C 185.12 387.60 178.83 388.88 174.88 390.00 C 170.92 391.12 165.98 393.04 163.75 393.62 C 161.52 394.21 162.15 393.38 161.50 393.50 C 160.85 393.62 160.56 394.19 159.88 394.38 C 159.19 394.56 157.98 394.46 157.38 394.62 C 156.77 394.79 157.50 395.02 156.25 395.38 C 155.00 395.73 151.06 396.42 149.88 396.75 C 148.69 397.08 149.75 397.23 149.12 397.38 C 148.50 397.52 146.79 397.42 146.12 397.62 C 145.46 397.83 145.90 398.27 145.12 398.62 C 144.35 398.98 147.94 398.19 141.50 399.75 C 135.06 401.31 114.54 406.00 106.50 408.00 C 98.46 410.00 98.25 410.75 93.25 411.75 C 88.25 412.75 79.54 413.40 76.50 414.00 C 73.46 414.60 75.25 414.75 75.00 415.38 C 74.75 416.00 74.67 416.73 75.00 417.75 C 75.33 418.77 76.00 420.06 77.00 421.50 C 78.00 422.94 79.35 424.65 81.00 426.38 C 82.65 428.10 84.81 430.12 86.88 431.88 C 88.94 433.62 91.48 435.56 93.38 436.88 C 95.27 438.19 96.67 438.94 98.25 439.75 C 99.83 440.56 101.48 441.25 102.88 441.75 C 104.27 442.25 105.08 442.58 106.62 442.75 C 108.17 442.92 110.50 443.06 112.12 442.75 C 113.75 442.44 114.94 441.67 116.38 440.88 C 117.81 440.08 110.35 442.98 120.75 438.00 C 131.15 433.02 159.58 419.54 178.75 411.00 C 197.92 402.46 223.02 392.31 235.75 386.75 C 248.48 381.19 249.96 380.17 255.12 377.62 C 260.29 375.08 264.79 373.83 266.75 371.50 C 268.71 369.17 267.00 365.02 266.88 363.62 Z" id="s-10-f-1"/>
<path d="M 218.75 377.25 C 218.52 374.67 219.65 376.44 217.62 377.00 C 215.60 377.56 208.83 380.02 206.62 380.62 C 204.42 381.23 204.85 380.52 204.38 380.62 C 203.90 380.73 204.25 381.08 203.75 381.25 C 203.25 381.42 201.88 381.46 201.38 381.62 C 200.88 381.79 201.25 382.08 200.75 382.25 C 200.25 382.42 198.88 382.46 198.38 382.62 C 197.88 382.79 198.25 383.08 197.75 383.25 C 197.25 383.42 195.88 383.46 195.38 383.62 C 194.88 383.79 195.25 384.08 194.75 384.25 C 194.25 384.42 192.94 384.44 192.38 384.62 C 191.81 384.81 191.92 385.21 191.38 385.38 C 190.83 385.54 189.77 385.38 189.12 385.62 C 188.48 385.88 189.88 386.15 187.50 386.88 C 185.12 387.60 178.83 388.88 174.88 390.00 C 170.92 391.12 165.98 393.04 163.75 393.62 C 161.52 394.21 162.15 393.38 161.50 393.50 C 160.85 393.62 160.56 394.19 159.88 394.38 C 159.19 394.56 157.98 394.46 157.38 394.62 C 156.77 394.79 157.50 395.02 156.25 395.38 C 155.00 395.73 151.06 396.42 149.88 396.75 C 148.69 397.08 149.75 397.23 149.12 397.38 C 148.50 397.52 146.79 397.42 146.12 397.62 C 145.46 397.83 145.90 398.27 145.12 398.62 C 144.35 398.98 147.94 398.19 141.50 399.75 C 135.06 401.31 114.54 406.00 106.50 408.00 C 98.46 410.00 98.25 410.75 93.25 411.75 C 88.25 412.75 79.54 413.40 76.50 414.00 C 73.46 414.60 75.25 414.75 75.00 415.38 C 74.75 416.00 74.67 416.73 75.00 417.75 C 75.33 418.77 76.00 420.06 77.00 421.50 C 78.00 422.94 79.35 424.65 81.00 426.38 C 82.65 428.10 84.81 430.12 86.88 431.88 C 88.94 433.62 91.48 435.56 93.38 436.88 C 95.27 438.19 96.67 438.94 98.25 439.75 C 99.83 440.56 101.48 441.25 102.88 441.75 C 104.27 442.25 105.08 442.58 106.62 442.75 C 108.17 442.92 110.50 443.06 112.12 442.75 C 113.75 442.44 114.94 441.67 116.38 440.88 C 117.81 440.08 110.77 442.79 120.75 438.00 C 130.73 433.21 160.02 419.40 176.25 412.12 C 192.48 404.85 211.00 397.65 218.12 394.38 C 225.25 391.10 218.90 395.35 219.00 392.50 C 219.10 389.65 218.98 379.83 218.75 377.25 Z" id="s-10-f-2"/>
<path d="M 170.75 392.00 C 170.56 388.44 171.04 391.35 169.88 391.62 C 168.71 391.90 165.23 393.29 163.75 393.62 C 162.27 393.96 161.65 393.50 161.00 393.62 C 160.35 393.75 161.08 394.04 159.88 394.38 C 158.67 394.71 154.96 395.29 153.75 395.62 C 152.54 395.96 153.27 396.19 152.62 396.38 C 151.98 396.56 150.46 396.58 149.88 396.75 C 149.29 396.92 149.75 397.23 149.12 397.38 C 148.50 397.52 146.79 397.42 146.12 397.62 C 145.46 397.83 145.90 398.27 145.12 398.62 C 144.35 398.98 148.02 398.17 141.50 399.75 C 134.98 401.33 113.31 406.29 106.00 408.12 C 98.69 409.96 100.65 409.98 97.62 410.75 C 94.60 411.52 91.40 412.21 87.88 412.75 C 84.35 413.29 78.65 413.56 76.50 414.00 C 74.35 414.44 75.25 414.75 75.00 415.38 C 74.75 416.00 74.67 416.73 75.00 417.75 C 75.33 418.77 76.00 420.06 77.00 421.50 C 78.00 422.94 79.35 424.65 81.00 426.38 C 82.65 428.10 84.81 430.12 86.88 431.88 C 88.94 433.62 91.48 435.56 93.38 436.88 C 95.27 438.19 96.67 438.94 98.25 439.75 C 99.83 440.56 101.48 441.25 102.88 441.75 C 104.27 442.25 105.08 442.58 106.62 442.75 C 108.17 442.92 110.50 443.06 112.12 442.75 C 113.75 442.44 114.94 441.67 116.38 440.88 C 117.81 440.08 111.73 442.33 120.75 438.00 C 129.77 433.67 162.12 419.04 170.50 414.88 C 178.88 410.71 170.96 416.81 171.00 413.00 C 171.04 409.19 170.94 395.56 170.75 392.00 Z" id="s-10-f-3"/>
<path d="M 122.75 437.00 C 123.46 431.67 123.04 412.40 123.00 407.00 C 122.96 401.60 125.25 404.46 122.50 404.62 C 119.75 404.79 111.38 406.81 106.50 408.00 C 101.62 409.19 98.25 410.75 93.25 411.75 C 88.25 412.75 79.54 413.40 76.50 414.00 C 73.46 414.60 75.21 414.65 75.00 415.38 C 74.79 416.10 74.92 417.35 75.25 418.38 C 75.58 419.40 76.04 420.17 77.00 421.50 C 77.96 422.83 79.58 424.83 81.00 426.38 C 82.42 427.92 83.44 429.00 85.50 430.75 C 87.56 432.50 90.96 435.23 93.38 436.88 C 95.79 438.52 97.90 439.67 100.00 440.62 C 102.10 441.58 103.98 442.27 106.00 442.62 C 108.02 442.98 110.62 442.92 112.12 442.75 C 113.62 442.58 113.90 442.25 115.00 441.62 C 116.10 441.00 117.46 439.77 118.75 439.00 C 120.04 438.23 122.04 442.33 122.75 437.00 Z" id="s-10-f-4"/>
</g>
<g id="s-11" clip-path="url(#c-s-11)">
<use href="#s-11-f-0"/>
<path d="M 399.88 173.25 C 399.83 169.60 400.60 172.90 399.38 172.88 C 398.15 172.85 395.23 172.77 392.50 173.12 C 389.77 173.48 388.42 173.08 383.00 175.00 C 377.58 176.92 367.42 181.69 360.00 184.62 C 352.58 187.56 342.46 191.23 338.50 192.62 C 334.54 194.02 337.65 192.52 336.25 193.00 C 334.85 193.48 337.62 192.88 330.12 195.50 C 322.62 198.12 302.35 205.15 291.25 208.75 C 280.15 212.35 269.23 215.10 263.50 217.12 C 257.77 219.15 258.12 220.08 256.88 220.88 C 255.62 221.67 256.15 221.46 256.00 221.88 C 255.85 222.29 255.75 222.75 256.00 223.38 C 256.25 224.00 256.71 224.90 257.50 225.62 C 258.29 226.35 258.79 227.04 260.75 227.75 C 262.71 228.46 266.46 229.56 269.25 229.88 C 272.04 230.19 273.88 230.00 277.50 229.62 C 281.12 229.25 286.40 228.44 291.00 227.62 C 295.60 226.81 300.79 225.83 305.12 224.75 C 309.46 223.67 314.65 221.77 317.00 221.12 C 319.35 220.48 314.77 222.23 319.25 220.88 C 323.73 219.52 337.77 214.85 343.88 213.00 C 349.98 211.15 348.27 212.12 355.88 209.75 C 363.48 207.38 382.21 201.25 389.50 198.75 C 396.79 196.25 397.90 199.00 399.62 194.75 C 401.35 190.50 399.92 176.90 399.88 173.25 Z" id="s-11-f-1"/>
<path d="M 351.50 189.25 C 351.33 185.75 351.21 188.21 351.00 188.00 C 350.79 187.79 352.27 187.25 350.25 188.00 C 348.23 188.75 341.21 191.67 338.88 192.50 C 336.54 193.33 340.62 191.48 336.25 193.00 C 331.88 194.52 321.17 198.67 312.62 201.62 C 304.08 204.58 293.19 208.17 285.00 210.75 C 276.81 213.33 268.19 215.44 263.50 217.12 C 258.81 218.81 258.12 220.08 256.88 220.88 C 255.62 221.67 256.15 221.46 256.00 221.88 C 255.85 222.29 255.75 222.75 256.00 223.38 C 256.25 224.00 256.71 224.90 257.50 225.62 C 258.29 226.35 259.08 227.08 260.75 227.75 C 262.42 228.42 264.92 229.29 267.50 229.62 C 270.08 229.96 273.29 229.92 276.25 229.75 C 279.21 229.58 280.44 229.46 285.25 228.62 C 290.06 227.79 299.83 226.00 305.12 224.75 C 310.42 223.50 314.65 221.77 317.00 221.12 C 319.35 220.48 313.50 222.58 319.25 220.88 C 325.00 219.17 346.04 212.85 351.50 210.88 C 356.96 208.90 352.00 212.60 352.00 209.00 C 352.00 205.40 351.67 192.75 351.50 189.25 Z" id="s-11-f-2"/>
<path d="M 303.75 205.12 C 303.62 202.00 306.25 203.81 303.12 204.75 C 300.00 205.69 291.60 208.69 285.00 210.75 C 278.40 212.81 268.23 215.40 263.50 217.12 C 258.77 218.85 257.88 220.33 256.62 221.12 C 255.38 221.92 256.10 221.50 256.00 221.88 C 255.90 222.25 255.73 222.73 256.00 223.38 C 256.27 224.02 256.83 225.02 257.62 225.75 C 258.42 226.48 258.81 227.06 260.75 227.75 C 262.69 228.44 266.67 229.54 269.25 229.88 C 271.83 230.21 273.58 229.96 276.25 229.75 C 278.92 229.54 280.77 229.40 285.25 228.62 C 289.73 227.85 300.04 225.79 303.12 225.12 C 306.21 224.46 303.62 224.90 303.75 224.62 C 303.88 224.35 303.88 226.75 303.88 223.50 C 303.88 220.25 303.88 208.25 303.75 205.12 Z" id="s-11-f-3"/>
</g>
<g id="s-12" clip-path="url(#c-s-12)">
<use href="#s-12-f-0"/>
<path d="M 289.12 39.88 C 288.08 40.31 287.52 40.90 287.00 41.50 C 286.48 42.10 286.17 42.23 286.00 43.50 C 285.83 44.77 285.67 46.96 286.00 49.12 C 286.33 51.29 286.71 52.75 288.00 56.50 C 289.29 60.25 291.96 65.62 293.75 71.62 C 295.54 77.62 297.58 86.92 298.75 92.50 C 299.92 98.08 299.35 94.62 300.75 105.12 C 302.15 115.62 305.42 143.00 307.12 155.50 C 308.83 168.00 309.73 172.73 311.00 180.12 C 312.27 187.52 314.15 195.75 314.75 199.88 C 315.35 204.00 314.50 203.62 314.62 204.88 C 314.75 206.12 315.33 206.25 315.50 207.38 C 315.67 208.50 315.48 210.60 315.62 211.62 C 315.77 212.65 316.19 212.25 316.38 213.50 C 316.56 214.75 316.50 217.81 316.75 219.12 C 317.00 220.44 316.81 216.48 317.88 221.38 C 318.94 226.27 321.25 239.54 323.12 248.50 C 325.00 257.46 326.81 265.81 329.12 275.12 C 331.44 284.44 335.00 297.38 337.00 304.38 C 339.00 311.38 337.92 308.35 341.12 317.12 C 344.33 325.90 352.44 347.83 356.25 357.00 C 360.06 366.17 361.54 367.58 364.00 372.12 C 366.46 376.67 368.19 379.75 371.00 384.25 C 373.81 388.75 377.25 394.10 380.88 399.12 C 384.50 404.15 388.52 409.38 392.75 414.38 C 396.98 419.38 402.29 425.02 406.25 429.12 C 410.21 433.23 412.42 435.54 416.50 439.00 C 420.58 442.46 426.92 447.25 430.75 449.88 C 434.58 452.50 436.88 453.46 439.50 454.75 C 442.12 456.04 443.92 456.81 446.50 457.62 C 449.08 458.44 451.90 459.27 455.00 459.62 C 458.10 459.98 462.75 459.92 465.12 459.75 C 467.50 459.58 468.12 459.12 469.25 458.62 C 470.38 458.12 471.12 457.44 471.88 456.75 C 472.62 456.06 473.25 455.58 473.75 454.50 C 474.25 453.42 474.75 451.58 474.88 450.25 C 475.00 448.92 475.35 448.56 474.50 446.50 C 473.65 444.44 471.25 439.96 469.75 437.88 C 468.25 435.79 470.35 437.62 465.50 434.00 C 460.65 430.38 446.04 419.48 440.62 416.12 C 435.21 412.77 435.35 414.98 433.00 413.88 C 430.65 412.77 428.67 411.23 426.50 409.50 C 424.33 407.77 422.48 406.06 420.00 403.50 C 417.52 400.94 413.92 396.81 411.62 394.12 C 409.33 391.44 408.19 390.02 406.25 387.38 C 404.31 384.73 402.54 382.23 400.00 378.25 C 397.46 374.27 394.17 369.23 391.00 363.50 C 387.83 357.77 385.15 352.79 381.00 343.88 C 376.85 334.96 369.96 319.79 366.12 310.00 C 362.29 300.21 360.38 292.90 358.00 285.12 C 355.62 277.35 353.88 271.06 351.88 263.38 C 349.88 255.69 347.81 247.15 346.00 239.00 C 344.19 230.85 341.81 219.40 341.00 214.50 C 340.19 209.60 341.23 210.77 341.12 209.62 C 341.02 208.48 340.71 209.96 340.38 207.62 C 340.04 205.29 339.69 198.46 339.12 195.62 C 338.56 192.79 338.02 198.46 337.00 190.62 C 335.98 182.79 333.96 161.04 333.00 148.62 C 332.04 136.21 331.58 128.79 331.25 116.12 C 330.92 103.46 330.88 81.38 331.00 72.62 C 331.12 63.88 331.71 65.48 332.00 63.62 C 332.29 61.77 332.65 62.67 332.75 61.50 C 332.85 60.33 332.79 57.81 332.62 56.62 C 332.46 55.44 332.35 55.33 331.75 54.38 C 331.15 53.42 330.10 51.94 329.00 50.88 C 327.90 49.81 326.44 48.81 325.12 48.00 C 323.81 47.19 323.10 46.83 321.12 46.00 C 319.15 45.17 316.85 44.15 313.25 43.00 C 309.65 41.85 302.83 39.81 299.50 39.12 C 296.17 38.44 294.98 38.75 293.25 38.88 C 291.52 39.00 290.17 39.44 289.12 39.88 Z" id="s-12-f-1"/>
<path d="M 290.62 39.25 C 289.65 39.62 288.10 40.52 287.38 41.12 C 286.65 41.73 286.48 41.54 286.25 42.88 C 286.02 44.21 285.71 46.85 286.00 49.12 C 286.29 51.40 286.71 52.75 288.00 56.50 C 289.29 60.25 291.96 65.62 293.75 71.62 C 295.54 77.62 297.58 86.92 298.75 92.50 C 299.92 98.08 299.35 94.62 300.75 105.12 C 302.15 115.62 305.42 143.00 307.12 155.50 C 308.83 168.00 309.73 172.73 311.00 180.12 C 312.27 187.52 314.15 195.75 314.75 199.88 C 315.35 204.00 314.50 203.62 314.62 204.88 C 314.75 206.12 315.33 206.25 315.50 207.38 C 315.67 208.50 315.48 210.60 315.62 211.62 C 315.77 212.65 316.19 212.25 316.38 213.50 C 316.56 214.75 316.52 217.88 316.75 219.12 C 316.98 220.38 316.69 216.10 317.75 221.00 C 318.81 225.90 321.23 239.48 323.12 248.50 C 325.02 257.52 326.81 265.81 329.12 275.12 C 331.44 284.44 335.00 297.38 337.00 304.38 C 339.00 311.38 337.94 308.38 341.12 317.12 C 344.31 325.88 351.96 347.08 356.12 356.88 C 360.29 366.67 362.48 369.52 366.12 375.88 C 369.77 382.23 374.48 389.71 378.00 395.00 C 381.52 400.29 384.44 404.00 387.25 407.62 C 390.06 411.25 392.65 414.23 394.88 416.75 C 397.10 419.27 391.67 421.73 400.62 422.75 C 409.58 423.77 440.54 422.90 448.62 422.88 C 456.71 422.85 449.08 422.79 449.12 422.62 C 449.17 422.46 449.31 422.21 448.88 421.88 C 448.44 421.54 447.85 421.56 446.50 420.62 C 445.15 419.69 443.00 417.38 440.75 416.25 C 438.50 415.12 435.38 415.00 433.00 413.88 C 430.62 412.75 428.98 411.56 426.50 409.50 C 424.02 407.44 421.50 405.19 418.12 401.50 C 414.75 397.81 409.60 391.75 406.25 387.38 C 402.90 383.00 401.04 380.15 398.00 375.25 C 394.96 370.35 390.83 363.23 388.00 358.00 C 385.17 352.77 384.65 351.88 381.00 343.88 C 377.35 335.88 369.96 319.79 366.12 310.00 C 362.29 300.21 360.38 292.90 358.00 285.12 C 355.62 277.35 353.88 271.06 351.88 263.38 C 349.88 255.69 347.81 247.15 346.00 239.00 C 344.19 230.85 341.81 219.40 341.00 214.50 C 340.19 209.60 341.23 210.77 341.12 209.62 C 341.02 208.48 340.71 209.96 340.38 207.62 C 340.04 205.29 339.69 198.46 339.12 195.62 C 338.56 192.79 338.02 198.46 337.00 190.62 C 335.98 182.79 333.96 161.04 333.00 148.62 C 332.04 136.21 331.58 128.79 331.25 116.12 C 330.92 103.46 330.88 81.38 331.00 72.62 C 331.12 63.88 331.71 65.48 332.00 63.62 C 332.29 61.77 332.65 62.67 332.75 61.50 C 332.85 60.33 332.79 57.81 332.62 56.62 C 332.46 55.44 332.35 55.33 331.75 54.38 C 331.15 53.42 330.10 51.94 329.00 50.88 C 327.90 49.81 326.44 48.81 325.12 48.00 C 323.81 47.19 323.10 46.83 321.12 46.00 C 319.15 45.17 316.85 44.15 313.25 43.00 C 309.65 41.85 302.83 39.81 299.50 39.12 C 296.17 38.44 294.73 38.85 293.25 38.88 C 291.77 38.90 291.60 38.88 290.62 39.25 Z" id="s-12-f-2"/>
<path d="M 290.62 39.25 C 289.65 39.62 288.10 40.52 287.38 41.12 C 286.65 41.73 286.48 41.54 286.25 42.88 C 286.02 44.21 285.71 46.85 286.00 49.12 C 286.29 51.40 286.71 52.75 288.00 56.50 C 289.29 60.25 291.96 65.62 293.75 71.62 C 295.54 77.62 297.58 86.92 298.75 92.50 C 299.92 98.08 299.35 94.62 300.75 105.12 C 302.15 115.62 305.42 143.00 307.12 155.50 C 308.83 168.00 309.73 172.73 311.00 180.12 C 312.27 187.52 314.15 195.75 314.75 199.88 C 315.35 204.00 314.50 203.62 314.62 204.88 C 314.75 206.12 315.17 205.10 315.50 207.38 C 315.83 209.65 316.25 216.23 316.62 218.50 C 317.00 220.77 316.67 216.00 317.75 221.00 C 318.83 226.00 321.23 239.48 323.12 248.50 C 325.02 257.52 326.46 264.67 329.12 275.12 C 331.79 285.58 334.62 297.62 339.12 311.25 C 343.62 324.88 351.79 346.40 356.12 356.88 C 360.46 367.35 363.46 371.12 365.12 374.12 C 366.79 377.12 360.77 374.73 366.12 374.88 C 371.48 375.02 392.00 375.12 397.25 375.00 C 402.50 374.88 398.67 376.04 397.62 374.12 C 396.58 372.21 393.27 367.48 391.00 363.50 C 388.73 359.52 388.15 359.17 384.00 350.25 C 379.85 341.33 370.46 320.85 366.12 310.00 C 361.79 299.15 360.19 292.19 358.00 285.12 C 355.81 278.06 355.00 275.31 353.00 267.62 C 351.00 259.94 347.40 245.15 346.00 239.00 C 344.60 232.85 345.12 233.17 344.62 230.75 C 344.12 228.33 343.60 227.21 343.00 224.50 C 342.40 221.79 341.31 216.98 341.00 214.50 C 340.69 212.02 341.23 210.77 341.12 209.62 C 341.02 208.48 340.71 209.96 340.38 207.62 C 340.04 205.29 339.69 198.46 339.12 195.62 C 338.56 192.79 337.81 195.77 337.00 190.62 C 336.19 185.48 335.00 172.81 334.25 164.75 C 333.50 156.69 333.00 150.06 332.50 142.25 C 332.00 134.44 331.50 129.48 331.25 117.88 C 331.00 106.27 330.88 81.67 331.00 72.62 C 331.12 63.58 331.71 65.48 332.00 63.62 C 332.29 61.77 332.65 62.67 332.75 61.50 C 332.85 60.33 332.79 57.81 332.62 56.62 C 332.46 55.44 332.35 55.33 331.75 54.38 C 331.15 53.42 330.10 51.94 329.00 50.88 C 327.90 49.81 326.44 48.81 325.12 48.00 C 323.81 47.19 323.10 46.83 321.12 46.00 C 319.15 45.17 316.85 44.15 313.25 43.00 C 309.65 41.85 302.83 39.81 299.50 39.12 C 296.17 38.44 294.73 38.85 293.25 38.88 C 291.77 38.90 291.60 38.88 290.62 39.25 Z" id="s-12-f-3"/>
<path d="M 290.62 39.25 C 289.04 39.62 288.10 40.52 287.38 41.12 C 286.65 41.73 286.48 41.54 286.25 42.88 C 286.02 44.21 285.71 46.85 286.00 49.12 C 286.29 51.40 286.71 52.75 288.00 56.50 C 289.29 60.25 291.96 65.62 293.75 71.62 C 295.54 77.62 297.58 86.92 298.75 92.50 C 299.92 98.08 299.38 94.79 300.75 105.12 C 302.12 115.46 305.29 142.00 307.00 154.50 C 308.71 167.00 309.71 172.56 311.00 180.12 C 312.29 187.69 314.15 195.75 314.75 199.88 C 315.35 204.00 314.50 203.62 314.62 204.88 C 314.75 206.12 315.17 205.10 315.50 207.38 C 315.83 209.65 316.23 216.17 316.62 218.50 C 317.02 220.83 316.79 216.40 317.88 221.38 C 318.96 226.35 321.27 239.48 323.12 248.38 C 324.98 257.27 327.02 266.58 329.00 274.75 C 330.98 282.92 333.15 290.79 335.00 297.38 C 336.85 303.96 338.58 309.58 340.12 314.25 C 341.67 318.92 343.40 323.27 344.25 325.38 C 345.10 327.48 340.46 326.62 345.25 326.88 C 350.04 327.12 368.31 327.00 373.00 326.88 C 377.69 326.75 374.52 328.94 373.38 326.12 C 372.23 323.31 368.69 316.83 366.12 310.00 C 363.56 303.17 360.12 291.94 358.00 285.12 C 355.88 278.31 355.38 276.81 353.38 269.12 C 351.38 261.44 348.06 248.10 346.00 239.00 C 343.94 229.90 341.81 219.40 341.00 214.50 C 340.19 209.60 341.23 210.77 341.12 209.62 C 341.02 208.48 340.71 209.96 340.38 207.62 C 340.04 205.29 339.69 198.46 339.12 195.62 C 338.56 192.79 337.81 195.77 337.00 190.62 C 336.19 185.48 335.21 176.88 334.25 164.75 C 333.29 152.62 331.79 133.23 331.25 117.88 C 330.71 102.52 330.88 81.67 331.00 72.62 C 331.12 63.58 331.71 65.48 332.00 63.62 C 332.29 61.77 332.65 62.67 332.75 61.50 C 332.85 60.33 332.79 57.81 332.62 56.62 C 332.46 55.44 332.35 55.33 331.75 54.38 C 331.15 53.42 330.10 51.94 329.00 50.88 C 327.90 49.81 326.44 48.81 325.12 48.00 C 323.81 47.19 323.10 46.83 321.12 46.00 C 319.15 45.17 316.23 44.00 313.25 43.00 C 310.27 42.00 305.98 40.69 303.25 40.00 C 300.52 39.31 298.98 39.00 296.88 38.88 C 294.77 38.75 292.21 38.88 290.62 39.25 Z" id="s-12-f-4"/>
<path d="M 291.00 39.12 C 288.98 39.46 288.17 40.50 287.38 41.12 C 286.58 41.75 286.48 41.58 286.25 42.88 C 286.02 44.17 285.71 46.60 286.00 48.88 C 286.29 51.15 286.71 52.71 288.00 56.50 C 289.29 60.29 291.96 65.62 293.75 71.62 C 295.54 77.62 297.58 86.92 298.75 92.50 C 299.92 98.08 299.35 94.62 300.75 105.12 C 302.15 115.62 304.92 140.10 307.12 155.50 C 309.33 170.90 312.73 190.10 314.00 197.50 C 315.27 204.90 314.65 198.65 314.75 199.88 C 314.85 201.10 314.50 203.62 314.62 204.88 C 314.75 206.12 315.17 205.10 315.50 207.38 C 315.83 209.65 316.10 215.67 316.62 218.50 C 317.15 221.33 317.54 219.40 318.62 224.38 C 319.71 229.35 321.23 239.40 323.12 248.38 C 325.02 257.35 328.73 273.17 330.00 278.25 C 331.27 283.33 326.48 278.77 330.75 278.88 C 335.02 278.98 351.42 278.94 355.62 278.88 C 359.83 278.81 356.92 282.25 356.00 278.50 C 355.08 274.75 352.60 266.90 350.12 256.38 C 347.65 245.85 342.62 223.17 341.12 215.38 C 339.62 207.58 341.25 210.92 341.12 209.62 C 341.00 208.33 340.71 209.96 340.38 207.62 C 340.04 205.29 339.69 198.46 339.12 195.62 C 338.56 192.79 337.69 194.58 337.00 190.62 C 336.31 186.67 335.79 180.69 335.00 171.88 C 334.21 163.06 332.90 147.35 332.25 137.75 C 331.60 128.15 331.33 125.10 331.12 114.25 C 330.92 103.40 330.85 81.06 331.00 72.62 C 331.15 64.19 331.71 65.48 332.00 63.62 C 332.29 61.77 332.65 62.67 332.75 61.50 C 332.85 60.33 332.79 57.81 332.62 56.62 C 332.46 55.44 332.35 55.33 331.75 54.38 C 331.15 53.42 330.10 51.94 329.00 50.88 C 327.90 49.81 326.44 48.81 325.12 48.00 C 323.81 47.19 323.10 46.83 321.12 46.00 C 319.15 45.17 316.85 44.15 313.25 43.00 C 309.65 41.85 303.21 39.77 299.50 39.12 C 295.79 38.48 293.02 38.79 291.00 39.12 Z" id="s-12-f-5"/>
<path d="M 291.00 39.12 C 288.98 39.46 288.17 40.50 287.38 41.12 C 286.58 41.75 286.46 41.44 286.25 42.88 C 286.04 44.31 285.83 47.48 286.12 49.75 C 286.42 52.02 286.73 52.85 288.00 56.50 C 289.27 60.15 291.96 65.62 293.75 71.62 C 295.54 77.62 297.58 86.92 298.75 92.50 C 299.92 98.08 299.38 94.79 300.75 105.12 C 302.12 115.46 305.29 142.02 307.00 154.50 C 308.71 166.98 309.71 172.44 311.00 180.00 C 312.29 187.56 314.15 195.73 314.75 199.88 C 315.35 204.02 314.50 203.62 314.62 204.88 C 314.75 206.12 315.17 205.10 315.50 207.38 C 315.83 209.65 316.23 216.17 316.62 218.50 C 317.02 220.83 317.35 219.38 317.88 221.38 C 318.40 223.38 319.29 228.90 319.75 230.50 C 320.21 232.10 316.58 230.94 320.62 231.00 C 324.67 231.06 340.02 231.00 344.00 230.88 C 347.98 230.75 345.00 232.98 344.50 230.25 C 344.00 227.52 341.56 217.94 341.00 214.50 C 340.44 211.06 341.23 210.77 341.12 209.62 C 341.02 208.48 340.71 209.96 340.38 207.62 C 340.04 205.29 339.69 198.46 339.12 195.62 C 338.56 192.79 337.85 196.31 337.00 190.62 C 336.15 184.94 334.79 170.31 334.00 161.50 C 333.21 152.69 332.73 145.62 332.25 137.75 C 331.77 129.88 331.33 125.10 331.12 114.25 C 330.92 103.40 330.85 81.06 331.00 72.62 C 331.15 64.19 331.71 65.48 332.00 63.62 C 332.29 61.77 332.65 62.67 332.75 61.50 C 332.85 60.33 332.79 57.79 332.62 56.62 C 332.46 55.46 332.35 55.46 331.75 54.50 C 331.15 53.54 330.10 51.96 329.00 50.88 C 327.90 49.79 326.44 48.81 325.12 48.00 C 323.81 47.19 323.10 46.83 321.12 46.00 C 319.15 45.17 316.85 44.15 313.25 43.00 C 309.65 41.85 303.21 39.77 299.50 39.12 C 295.79 38.48 293.02 38.79 291.00 39.12 Z" id="s-12-f-6"/>
<path d="M 290.62 39.25 C 289.04 39.62 288.10 40.52 287.38 41.12 C 286.65 41.73 286.50 42.33 286.25 42.88 C 286.00 43.42 285.92 43.33 285.88 44.38 C 285.83 45.42 285.65 47.10 286.00 49.12 C 286.35 51.15 286.71 52.75 288.00 56.50 C 289.29 60.25 291.96 65.62 293.75 71.62 C 295.54 77.62 297.58 86.92 298.75 92.50 C 299.92 98.08 299.71 97.17 300.75 105.12 C 301.79 113.08 303.25 127.50 305.00 140.25 C 306.75 153.00 310.10 174.54 311.25 181.62 C 312.40 188.71 307.81 182.54 311.88 182.75 C 315.94 182.96 331.58 183.02 335.62 182.88 C 339.67 182.73 336.40 185.44 336.12 181.88 C 335.85 178.31 334.65 168.85 334.00 161.50 C 333.35 154.15 332.75 146.96 332.25 137.75 C 331.75 128.54 331.21 117.08 331.00 106.25 C 330.79 95.42 330.83 79.85 331.00 72.75 C 331.17 65.65 331.71 65.50 332.00 63.62 C 332.29 61.75 332.65 62.67 332.75 61.50 C 332.85 60.33 332.79 57.81 332.62 56.62 C 332.46 55.44 332.35 55.33 331.75 54.38 C 331.15 53.42 330.08 51.92 329.00 50.88 C 327.92 49.83 326.56 48.94 325.25 48.12 C 323.94 47.31 323.12 46.85 321.12 46.00 C 319.12 45.15 316.23 44.00 313.25 43.00 C 310.27 42.00 305.98 40.69 303.25 40.00 C 300.52 39.31 298.98 39.00 296.88 38.88 C 294.77 38.75 292.21 38.88 290.62 39.25 Z" id="s-12-f-7"/>
<path d="M 289.12 39.88 C 288.35 40.29 287.52 40.90 287.00 41.50 C 286.48 42.10 286.17 42.23 286.00 43.50 C 285.83 44.77 285.67 46.96 286.00 49.12 C 286.33 51.29 286.71 52.75 288.00 56.50 C 289.29 60.25 292.12 66.44 293.75 71.62 C 295.38 76.81 296.58 82.04 297.75 87.62 C 298.92 93.21 299.67 97.35 300.75 105.12 C 301.83 112.90 303.54 129.29 304.25 134.25 C 304.96 139.21 304.58 134.75 305.00 134.88 C 305.42 135.00 302.31 135.00 306.75 135.00 C 311.19 135.00 327.40 134.96 331.62 134.88 C 335.85 134.79 332.23 139.27 332.12 134.50 C 332.02 129.73 331.19 116.54 331.00 106.25 C 330.81 95.96 330.83 79.85 331.00 72.75 C 331.17 65.65 331.69 65.71 332.00 63.62 C 332.31 61.54 332.75 61.31 332.88 60.25 C 333.00 59.19 332.94 58.23 332.75 57.25 C 332.56 56.27 332.38 55.44 331.75 54.38 C 331.12 53.31 330.08 51.92 329.00 50.88 C 327.92 49.83 326.56 48.94 325.25 48.12 C 323.94 47.31 323.12 46.85 321.12 46.00 C 319.12 45.15 317.00 44.17 313.25 43.00 C 309.50 41.83 302.23 39.67 298.62 39.00 C 295.02 38.33 293.21 38.85 291.62 39.00 C 290.04 39.15 289.90 39.46 289.12 39.88 Z" id="s-12-f-8"/>
<path d="M 287.38 41.12 C 286.65 41.85 286.19 42.23 286.00 43.75 C 285.81 45.27 285.92 48.12 286.25 50.25 C 286.58 52.38 286.75 52.94 288.00 56.50 C 289.25 60.06 292.48 68.02 293.75 71.62 C 295.02 75.23 295.06 75.77 295.62 78.12 C 296.19 80.48 296.75 84.29 297.12 85.75 C 297.50 87.21 292.29 86.73 297.88 86.88 C 303.46 87.02 325.08 89.42 330.62 86.62 C 336.17 83.83 330.90 73.96 331.12 70.12 C 331.35 66.29 331.73 65.06 332.00 63.62 C 332.27 62.19 332.60 62.35 332.75 61.50 C 332.90 60.65 333.04 59.69 332.88 58.50 C 332.71 57.31 332.35 55.60 331.75 54.38 C 331.15 53.15 330.10 52.02 329.25 51.12 C 328.40 50.23 327.83 49.79 326.62 49.00 C 325.42 48.21 324.23 47.38 322.00 46.38 C 319.77 45.38 316.33 44.06 313.25 43.00 C 310.17 41.94 305.96 40.67 303.50 40.00 C 301.04 39.33 300.21 39.19 298.50 39.00 C 296.79 38.81 294.60 38.81 293.25 38.88 C 291.90 38.94 291.35 39.00 290.38 39.38 C 289.40 39.75 288.10 40.40 287.38 41.12 Z" id="s-12-f-9"/>
</g>
<g id="s-13" clip-path="url(#c-s-13)">
<use href="#s-13-f-0"/>
<path d="M 418.75 252.25 C 416.92 250.54 414.71 248.71 411.62 247.00 C 408.54 245.29 403.27 243.15 400.25 242.00 C 397.23 240.85 395.10 240.48 393.50 240.12 C 391.90 239.77 391.65 239.88 390.62 239.88 C 389.60 239.88 388.17 239.90 387.38 240.12 C 386.58 240.35 386.27 240.73 385.88 241.25 C 385.48 241.77 385.15 242.19 385.00 243.25 C 384.85 244.31 384.73 245.60 385.00 247.62 C 385.27 249.65 386.33 253.33 386.62 255.38 C 386.92 257.42 387.06 256.90 386.75 259.88 C 386.44 262.85 385.42 269.88 384.75 273.25 C 384.08 276.62 383.60 277.65 382.75 280.12 C 381.90 282.60 381.46 284.10 379.62 288.12 C 377.79 292.15 373.79 300.46 371.75 304.25 C 369.71 308.04 368.38 309.81 367.38 310.88 C 366.38 311.94 365.96 310.50 365.75 310.62 C 365.54 310.75 366.19 311.19 366.12 311.62 C 366.06 312.06 368.12 309.35 365.38 313.25 C 362.62 317.15 352.40 331.31 349.62 335.00 C 346.85 338.69 348.96 335.46 348.75 335.38 C 348.54 335.29 348.42 334.21 348.38 334.50 C 348.33 334.79 349.65 335.31 348.50 337.12 C 347.35 338.94 343.54 343.10 341.50 345.38 C 339.46 347.65 340.40 346.85 336.25 350.75 C 332.10 354.65 322.85 363.38 316.62 368.75 C 310.40 374.12 301.88 380.52 298.88 383.00 C 295.88 385.48 293.98 383.50 298.62 383.62 C 303.27 383.75 319.58 385.62 326.75 383.75 C 333.92 381.88 336.83 376.46 341.62 372.38 C 346.42 368.29 352.98 361.56 355.50 359.25 C 358.02 356.94 356.35 358.58 356.75 358.50 C 357.15 358.42 357.67 358.90 357.88 358.75 C 358.08 358.60 357.73 358.19 358.00 357.62 C 358.27 357.06 358.33 356.71 359.50 355.38 C 360.67 354.04 362.40 352.60 365.00 349.62 C 367.60 346.65 373.21 339.73 375.12 337.50 C 377.04 335.27 376.17 336.44 376.50 336.25 C 376.83 336.06 377.00 336.23 377.12 336.38 C 377.25 336.52 377.19 337.04 377.25 337.12 C 377.31 337.21 377.54 337.19 377.50 336.88 C 377.46 336.56 376.96 335.77 377.00 335.25 C 377.04 334.73 376.29 335.75 377.75 333.75 C 379.21 331.75 382.25 328.38 385.75 323.25 C 389.25 318.12 395.38 308.58 398.75 303.00 C 402.12 297.42 403.75 293.35 406.00 289.75 C 408.25 286.15 409.62 284.62 412.25 281.38 C 414.88 278.12 419.83 272.90 421.75 270.25 C 423.67 267.60 423.42 267.17 423.75 265.50 C 424.08 263.83 423.94 261.62 423.75 260.25 C 423.56 258.88 423.46 258.58 422.62 257.25 C 421.79 255.92 420.58 253.96 418.75 252.25 Z" id="s-13-f-1"/>
<path d="M 417.62 251.25 C 416.06 249.96 413.67 248.21 411.62 247.00 C 409.58 245.79 407.73 244.98 405.38 244.00 C 403.02 243.02 399.48 241.77 397.50 241.12 C 395.52 240.48 394.98 240.33 393.50 240.12 C 392.02 239.92 389.71 239.85 388.62 239.88 C 387.54 239.90 387.46 240.02 387.00 240.25 C 386.54 240.48 386.21 240.75 385.88 241.25 C 385.54 241.75 385.15 242.19 385.00 243.25 C 384.85 244.31 384.71 245.46 385.00 247.62 C 385.29 249.79 386.48 253.90 386.75 256.25 C 387.02 258.60 386.96 258.92 386.62 261.75 C 386.29 264.58 385.56 269.73 384.75 273.25 C 383.94 276.77 382.92 279.69 381.75 282.88 C 380.58 286.06 378.85 290.04 377.75 292.38 C 376.65 294.71 376.12 294.90 375.12 296.88 C 374.12 298.85 373.04 301.92 371.75 304.25 C 370.46 306.58 368.38 309.81 367.38 310.88 C 366.38 311.94 365.96 310.50 365.75 310.62 C 365.54 310.75 366.19 311.19 366.12 311.62 C 366.06 312.06 367.46 310.33 365.38 313.25 C 363.29 316.17 355.98 325.83 353.62 329.12 C 351.27 332.42 351.94 332.06 351.25 333.00 C 350.56 333.94 349.79 334.27 349.50 334.75 C 349.21 335.23 345.15 335.62 349.50 335.88 C 353.85 336.12 371.10 336.10 375.62 336.25 C 380.15 336.40 376.38 336.73 376.62 336.75 C 376.88 336.77 377.02 336.31 377.12 336.38 C 377.23 336.44 377.19 337.04 377.25 337.12 C 377.31 337.21 377.54 337.17 377.50 336.88 C 377.46 336.58 376.96 335.90 377.00 335.38 C 377.04 334.85 376.62 335.31 377.75 333.75 C 378.88 332.19 381.44 329.21 383.75 326.00 C 386.06 322.79 389.12 318.33 391.62 314.50 C 394.12 310.67 396.35 307.12 398.75 303.00 C 401.15 298.88 402.04 295.44 406.00 289.75 C 409.96 284.06 419.54 272.92 422.50 268.88 C 425.46 264.83 423.56 267.04 423.75 265.50 C 423.94 263.96 424.08 261.42 423.62 259.62 C 423.17 257.83 422.00 256.15 421.00 254.75 C 420.00 253.35 419.19 252.54 417.62 251.25 Z" id="s-13-f-2"/>
<path d="M 387.25 240.12 C 386.15 240.33 386.25 240.73 385.88 241.25 C 385.50 241.77 385.15 242.19 385.00 243.25 C 384.85 244.31 384.71 245.46 385.00 247.62 C 385.29 249.79 386.48 253.90 386.75 256.25 C 387.02 258.60 386.79 259.69 386.62 261.75 C 386.46 263.81 386.23 266.08 385.75 268.62 C 385.27 271.17 384.73 273.88 383.75 277.00 C 382.77 280.12 379.17 285.56 379.88 287.38 C 380.58 289.19 383.44 287.79 388.00 287.88 C 392.56 287.96 401.48 291.06 407.25 287.88 C 413.02 284.69 419.85 272.71 422.62 268.75 C 425.40 264.79 423.69 265.54 423.88 264.12 C 424.06 262.71 423.94 261.35 423.75 260.25 C 423.56 259.15 423.48 258.73 422.75 257.50 C 422.02 256.27 421.23 254.62 419.38 252.88 C 417.52 251.12 413.90 248.46 411.62 247.00 C 409.35 245.54 408.19 245.12 405.75 244.12 C 403.31 243.12 399.21 241.69 397.00 241.00 C 394.79 240.31 394.12 240.15 392.50 240.00 C 390.88 239.85 388.35 239.92 387.25 240.12 Z" id="s-13-f-3"/>
</g>
<g id="s-14" clip-path="url(#c-s-14)">
<use href="#s-14-f-0"/>
<path d="M 373.12 97.75 C 372.58 98.12 372.21 98.71 372.00 99.12 C 371.79 99.54 371.88 99.71 371.88 100.25 C 371.88 100.79 369.35 98.25 372.00 102.38 C 374.65 106.50 383.25 118.98 387.75 125.00 C 392.25 131.02 395.88 135.12 399.00 138.50 C 402.12 141.88 404.81 143.88 406.50 145.25 C 408.19 146.62 408.17 146.33 409.12 146.75 C 410.08 147.17 410.83 147.58 412.25 147.75 C 413.67 147.92 416.44 147.83 417.62 147.75 C 418.81 147.67 418.98 149.15 419.38 147.25 C 419.77 145.35 419.90 141.88 420.00 136.38 C 420.10 130.88 420.06 118.42 420.00 114.25 C 419.94 110.08 420.62 112.44 419.62 111.38 C 418.62 110.31 417.52 109.44 414.00 107.88 C 410.48 106.31 404.04 103.79 398.50 102.00 C 392.96 100.21 384.62 97.98 380.75 97.12 C 376.88 96.27 376.52 96.77 375.25 96.88 C 373.98 96.98 373.67 97.38 373.12 97.75 Z" id="s-14-f-1"/>
</g>
</svg>