<?xml version="1.0" encoding="UTF-8"?>
<svg xmlns="http://www.w3.org/2000/svg" viewBox="0 0 500 500">
<defs>
<path d="M 205.88 159.62 C 205.60 158.50 204.54 157.04 203.75 156.12 C 202.96 155.21 203.06 155.15 201.12 154.12 C 199.19 153.10 195.17 151.17 192.12 150.00 C 189.08 148.83 185.33 147.62 182.88 147.12 C 180.42 146.62 179.33 146.56 177.38 147.00 C 175.42 147.44 173.75 148.79 171.12 149.75 C 168.50 150.71 169.12 150.75 161.62 152.75 C 154.12 154.75 138.17 159.06 126.12 161.75 C 114.08 164.44 102.67 166.67 89.38 168.88 C 76.08 171.08 54.19 173.71 46.38 175.00 C 38.56 176.29 43.25 176.06 42.50 176.62 C 41.75 177.19 41.81 177.60 41.88 178.38 C 41.94 179.15 41.90 179.94 42.88 181.25 C 43.85 182.56 46.44 185.17 47.75 186.25 C 49.06 187.33 49.60 187.33 50.75 187.75 C 51.90 188.17 52.62 188.42 54.62 188.75 C 56.62 189.08 59.33 189.56 62.75 189.75 C 66.17 189.94 70.48 190.06 75.12 189.88 C 79.77 189.69 83.48 189.60 90.62 188.62 C 97.77 187.65 112.79 184.79 118.00 184.00 C 123.21 183.21 117.33 184.42 121.88 183.88 C 126.42 183.33 135.69 182.46 145.25 180.75 C 154.81 179.04 171.85 175.29 179.25 173.62 C 186.65 171.96 186.12 171.90 189.62 170.75 C 193.12 169.60 197.92 167.75 200.25 166.75 C 202.58 165.75 202.77 165.40 203.62 164.75 C 204.48 164.10 205.00 163.73 205.38 162.88 C 205.75 162.02 206.15 160.75 205.88 159.62 Z" id="s-0-f-0"/>
<clipPath id="c-s-0"><use href="#s-0-f-0"/></clipPath>
<path d="M 120.88 41.88 C 119.77 41.88 119.38 41.77 118.50 42.12 C 117.62 42.48 116.35 43.27 115.62 44.00 C 114.90 44.73 114.42 45.46 114.12 46.50 C 113.83 47.54 113.71 48.88 113.88 50.25 C 114.04 51.62 114.31 52.54 115.12 54.75 C 115.94 56.96 117.65 59.98 118.75 63.50 C 119.85 67.02 120.92 71.27 121.75 75.88 C 122.58 80.48 123.23 85.77 123.75 91.12 C 124.27 96.48 124.52 96.27 124.88 108.00 C 125.23 119.73 125.77 152.44 125.88 161.50 C 125.98 170.56 125.62 159.25 125.50 162.38 C 125.38 165.50 125.27 177.02 125.12 180.25 C 124.98 183.48 124.58 181.25 124.62 181.75 C 124.67 182.25 125.35 173.25 125.38 183.25 C 125.40 193.25 125.17 224.85 124.75 241.75 C 124.33 258.65 124.02 267.15 122.88 284.62 C 121.73 302.10 119.23 331.73 117.88 346.62 C 116.52 361.52 116.04 365.35 114.75 374.00 C 113.46 382.65 110.94 393.02 110.12 398.50 C 109.31 403.98 109.85 404.90 109.88 406.88 C 109.90 408.85 109.90 408.69 110.25 410.38 C 110.60 412.06 110.54 412.96 112.00 417.00 C 113.46 421.04 116.96 430.27 119.00 434.62 C 121.04 438.98 122.96 441.29 124.25 443.12 C 125.54 444.96 126.02 445.17 126.75 445.62 C 127.48 446.08 128.06 445.88 128.62 445.88 C 129.19 445.88 129.56 445.85 130.12 445.62 C 130.69 445.40 131.08 445.42 132.00 444.50 C 132.92 443.58 134.46 442.08 135.62 440.12 C 136.79 438.17 138.00 434.71 139.00 432.75 C 140.00 430.79 140.85 429.94 141.62 428.38 C 142.40 426.81 142.94 425.69 143.62 423.38 C 144.31 421.06 145.23 431.85 145.75 414.50 C 146.27 397.15 146.56 350.35 146.75 319.25 C 146.94 288.15 146.67 245.17 146.88 227.88 C 147.08 210.58 147.67 223.40 148.00 215.50 C 148.33 207.60 148.65 186.56 148.88 180.50 C 149.10 174.44 149.17 180.75 149.38 179.12 C 149.58 177.50 150.02 174.94 150.12 170.75 C 150.23 166.56 149.67 162.19 150.00 154.00 C 150.33 145.81 151.40 131.06 152.12 121.62 C 152.85 112.19 153.73 103.29 154.38 97.38 C 155.02 91.46 155.29 89.98 156.00 86.12 C 156.71 82.27 158.15 77.29 158.62 74.25 C 159.10 71.21 159.02 69.62 158.88 67.88 C 158.73 66.12 158.29 65.00 157.75 63.75 C 157.21 62.50 156.67 61.65 155.62 60.38 C 154.58 59.10 153.08 57.54 151.50 56.12 C 149.92 54.71 149.58 53.88 146.12 51.88 C 142.67 49.88 134.25 45.75 130.75 44.12 C 127.25 42.50 126.77 42.50 125.12 42.12 C 123.48 41.75 121.98 41.88 120.88 41.88 Z" id="s-1-f-0"/>
<clipPath id="c-s-1"><use href="#s-1-f-0"/></clipPath>
<path d="M 126.12 162.88 C 125.90 156.75 125.04 162.71 124.75 163.12 C 124.46 163.54 124.56 164.85 124.38 165.38 C 124.19 165.90 123.79 165.73 123.62 166.25 C 123.46 166.77 123.54 167.98 123.38 168.50 C 123.21 169.02 122.77 168.90 122.62 169.38 C 122.48 169.85 122.67 170.85 122.50 171.38 C 122.33 171.90 121.98 171.42 121.62 172.50 C 121.27 173.58 120.71 176.83 120.38 177.88 C 120.04 178.92 119.77 178.31 119.62 178.75 C 119.48 179.19 119.69 179.92 119.50 180.50 C 119.31 181.08 118.65 181.58 118.50 182.25 C 118.35 182.92 120.60 178.79 118.62 184.50 C 116.65 190.21 110.62 206.67 106.62 216.50 C 102.62 226.33 98.10 236.17 94.62 243.50 C 91.15 250.83 89.02 254.71 85.75 260.50 C 82.48 266.29 79.04 271.94 75.00 278.25 C 70.96 284.56 66.81 291.08 61.50 298.38 C 56.19 305.67 47.35 316.73 43.12 322.00 C 38.90 327.27 39.69 326.21 36.12 330.00 C 32.56 333.79 24.27 342.10 21.75 344.75 C 19.23 347.40 20.96 345.40 21.00 345.88 C 21.04 346.35 20.92 347.31 22.00 347.62 C 23.08 347.94 25.83 347.92 27.50 347.75 C 29.17 347.58 29.92 347.48 32.00 346.62 C 34.08 345.77 36.15 345.06 40.00 342.62 C 43.85 340.19 50.06 335.98 55.12 332.00 C 60.19 328.02 65.69 323.27 70.38 318.75 C 75.06 314.23 79.50 309.27 83.25 304.88 C 87.00 300.48 89.48 297.19 92.88 292.38 C 96.27 287.56 100.02 281.88 103.62 276.00 C 107.23 270.12 111.27 263.04 114.50 257.12 C 117.73 251.21 121.25 243.75 123.00 240.50 C 124.75 237.25 124.62 238.33 125.00 237.62 C 125.38 236.92 125.21 238.75 125.25 236.25 C 125.29 233.75 125.10 228.69 125.25 222.62 C 125.40 216.56 125.98 209.83 126.12 199.88 C 126.27 189.92 126.35 169.00 126.12 162.88 Z" id="s-2-f-0"/>
<clipPath id="c-s-2"><use href="#s-2-f-0"/></clipPath>
<path d="M 147.75 213.00 C 147.33 213.98 146.75 216.58 146.62 219.00 C 146.50 221.42 146.06 225.04 147.00 227.50 C 147.94 229.96 149.42 230.02 152.25 233.75 C 155.08 237.48 160.65 245.67 164.00 249.88 C 167.35 254.08 169.81 256.69 172.38 259.00 C 174.94 261.31 177.58 262.96 179.38 263.75 C 181.17 264.54 182.15 263.90 183.12 263.75 C 184.10 263.60 184.31 263.60 185.25 262.88 C 186.19 262.15 187.85 260.83 188.75 259.38 C 189.65 257.92 190.12 255.85 190.62 254.12 C 191.12 252.40 191.58 251.27 191.75 249.00 C 191.92 246.73 191.85 242.58 191.62 240.50 C 191.40 238.42 190.90 237.71 190.38 236.50 C 189.85 235.29 189.23 234.25 188.50 233.25 C 187.77 232.25 187.17 231.54 186.00 230.50 C 184.83 229.46 183.10 228.08 181.50 227.00 C 179.90 225.92 179.19 225.33 176.38 224.00 C 173.56 222.67 169.17 220.81 164.62 219.00 C 160.08 217.19 151.94 214.12 149.12 213.12 C 146.31 212.12 148.17 212.02 147.75 213.00 Z" id="s-3-f-0"/>
<clipPath id="c-s-3"><use href="#s-3-f-0"/></clipPath>
<path d="M 230.00 59.00 C 228.02 59.08 228.40 59.56 227.88 59.88 C 227.35 60.19 227.19 60.40 226.88 60.88 C 226.56 61.35 226.17 62.02 226.00 62.75 C 225.83 63.48 225.19 64.12 225.88 65.25 C 226.56 66.38 228.52 67.58 230.12 69.50 C 231.73 71.42 234.06 74.52 235.50 76.75 C 236.94 78.98 237.88 80.92 238.75 82.88 C 239.62 84.83 239.92 85.46 240.75 88.50 C 241.58 91.54 242.56 95.15 243.75 101.12 C 244.94 107.10 246.38 115.04 247.88 124.38 C 249.38 133.71 251.90 150.77 252.75 157.12 C 253.60 163.48 252.77 160.81 253.00 162.50 C 253.23 164.19 253.60 165.65 254.12 167.25 C 254.65 168.85 255.31 170.54 256.12 172.12 C 256.94 173.71 257.90 175.50 259.00 176.75 C 260.10 178.00 261.52 179.12 262.75 179.62 C 263.98 180.12 265.38 180.04 266.38 179.75 C 267.38 179.46 267.83 179.10 268.75 177.88 C 269.67 176.65 271.38 177.48 271.88 172.38 C 272.38 167.27 272.25 155.90 271.75 147.25 C 271.25 138.60 270.17 129.62 268.88 120.50 C 267.58 111.38 265.00 99.98 264.00 92.50 C 263.00 85.02 264.40 80.25 262.88 75.62 C 261.35 71.00 256.52 66.79 254.88 64.75 C 253.23 62.71 255.52 64.27 253.00 63.38 C 250.48 62.48 243.58 60.10 239.75 59.38 C 235.92 58.65 231.98 58.92 230.00 59.00 Z" id="s-4-f-0"/>
<clipPath id="c-s-4"><use href="#s-4-f-0"/></clipPath>
<path d="M 254.00 64.12 C 249.65 64.67 252.75 63.15 254.12 65.12 C 255.50 67.10 258.52 74.25 262.25 76.00 C 265.98 77.75 270.96 76.00 276.50 75.62 C 282.04 75.25 284.06 75.52 295.50 73.75 C 306.94 71.98 334.21 66.79 345.12 65.00 C 356.04 63.21 357.77 63.31 361.00 63.00 C 364.23 62.69 363.38 62.77 364.50 63.12 C 365.62 63.48 367.02 64.50 367.75 65.12 C 368.48 65.75 368.54 66.02 368.88 66.88 C 369.21 67.73 369.62 68.23 369.75 70.25 C 369.88 72.27 369.96 74.65 369.62 79.00 C 369.29 83.35 368.56 91.00 367.75 96.38 C 366.94 101.75 366.46 104.48 364.75 111.25 C 363.04 118.02 359.46 130.73 357.50 137.00 C 355.54 143.27 354.12 144.48 353.00 148.88 C 351.88 153.27 351.10 160.62 350.75 163.38 C 350.40 166.12 350.50 164.33 350.88 165.38 C 351.25 166.42 352.25 168.40 353.00 169.62 C 353.75 170.85 354.60 171.94 355.38 172.75 C 356.15 173.56 357.02 174.15 357.62 174.50 C 358.23 174.85 357.98 174.85 359.00 174.88 C 360.02 174.90 362.23 174.96 363.75 174.62 C 365.27 174.29 366.77 173.69 368.12 172.88 C 369.48 172.06 370.60 171.23 371.88 169.75 C 373.15 168.27 370.94 175.98 375.75 164.00 C 380.56 152.02 396.17 110.25 400.75 97.88 C 405.33 85.50 402.04 92.73 403.25 89.75 C 404.46 86.77 406.67 82.38 408.00 80.00 C 409.33 77.62 409.96 77.06 411.25 75.50 C 412.54 73.94 414.81 71.88 415.75 70.62 C 416.69 69.38 416.71 68.90 416.88 68.00 C 417.04 67.10 416.92 66.00 416.75 65.25 C 416.58 64.50 416.65 64.44 415.88 63.50 C 415.10 62.56 413.54 60.88 412.12 59.62 C 410.71 58.38 409.31 57.27 407.38 56.00 C 405.44 54.73 403.54 53.48 400.50 52.00 C 397.46 50.52 392.92 48.62 389.12 47.12 C 385.33 45.62 380.52 43.88 377.75 43.00 C 374.98 42.12 374.25 42.02 372.50 41.88 C 370.75 41.73 369.75 41.75 367.25 42.12 C 364.75 42.50 364.35 42.23 357.50 44.12 C 350.65 46.02 335.33 51.06 326.12 53.50 C 316.92 55.94 309.90 57.35 302.25 58.75 C 294.60 60.15 288.29 60.98 280.25 61.88 C 272.21 62.77 258.35 63.58 254.00 64.12 Z" id="s-5-f-0"/>
<clipPath id="c-s-5"><use href="#s-5-f-0"/></clipPath>
<path d="M 367.12 102.50 C 367.23 101.33 368.25 102.52 366.75 101.75 C 365.25 100.98 361.48 98.81 358.12 97.88 C 354.77 96.94 349.60 96.46 346.62 96.12 C 343.65 95.79 347.83 94.44 340.25 95.88 C 332.67 97.31 310.52 102.77 301.12 104.75 C 291.73 106.73 289.54 106.90 283.88 107.75 C 278.21 108.60 270.00 109.35 267.12 109.88 C 264.25 110.40 266.71 110.31 266.62 110.88 C 266.54 111.44 266.50 112.54 266.62 113.25 C 266.75 113.96 267.21 114.08 267.38 115.12 C 267.54 116.17 267.42 118.21 267.62 119.50 C 267.83 120.79 267.79 122.17 268.62 122.88 C 269.46 123.58 270.65 123.58 272.62 123.75 C 274.60 123.92 276.81 124.04 280.50 123.88 C 284.19 123.71 287.42 123.62 294.75 122.75 C 302.08 121.88 317.42 119.75 324.50 118.62 C 331.58 117.50 331.62 116.83 337.25 116.00 C 342.88 115.17 353.58 114.50 358.25 113.62 C 362.92 112.75 363.94 111.56 365.25 110.75 C 366.56 109.94 365.81 110.12 366.12 108.75 C 366.44 107.38 367.02 103.67 367.12 102.50 Z" id="s-6-f-0"/>
<clipPath id="c-s-6"><use href="#s-6-f-0"/></clipPath>
<path d="M 353.25 150.25 C 352.79 147.90 350.77 148.71 349.25 148.00 C 347.73 147.29 345.69 146.50 344.12 146.00 C 342.56 145.50 341.58 145.17 339.88 145.00 C 338.17 144.83 337.29 144.38 333.88 145.00 C 330.46 145.62 324.29 147.62 319.38 148.75 C 314.46 149.88 308.88 150.94 304.38 151.75 C 299.88 152.56 297.75 152.94 292.38 153.62 C 287.00 154.31 275.60 155.44 272.12 155.88 C 268.65 156.31 271.60 153.67 271.50 156.25 C 271.40 158.83 271.04 168.62 271.50 171.38 C 271.96 174.12 272.06 172.54 274.25 172.75 C 276.44 172.96 281.67 172.90 284.62 172.62 C 287.58 172.35 284.48 172.21 292.00 171.12 C 299.52 170.04 321.67 167.12 329.75 166.12 C 337.83 165.12 337.00 165.33 340.50 165.12 C 344.00 164.92 348.96 164.96 350.75 164.88 C 352.54 164.79 351.04 165.08 351.25 164.62 C 351.46 164.17 351.67 164.52 352.00 162.12 C 352.33 159.73 353.71 152.60 353.25 150.25 Z" id="s-7-f-0"/>
<clipPath id="c-s-7"><use href="#s-7-f-0"/></clipPath>
<path d="M 404.88 205.62 C 404.65 205.00 403.98 204.21 403.38 203.62 C 402.77 203.04 403.17 203.06 401.25 202.12 C 399.33 201.19 395.88 199.00 391.88 198.00 C 387.88 197.00 381.19 196.46 377.25 196.12 C 373.31 195.79 375.94 194.73 368.25 196.00 C 360.56 197.27 341.98 201.62 331.12 203.75 C 320.27 205.88 312.29 207.25 303.12 208.75 C 293.96 210.25 285.77 211.50 276.12 212.75 C 266.48 214.00 251.00 215.54 245.25 216.25 C 239.50 216.96 242.90 216.60 241.62 217.00 C 240.35 217.40 238.71 217.94 237.62 218.62 C 236.54 219.31 235.58 220.31 235.12 221.12 C 234.67 221.94 234.81 222.88 234.88 223.50 C 234.94 224.12 234.88 224.21 235.50 224.88 C 236.12 225.54 237.31 226.69 238.62 227.50 C 239.94 228.31 241.56 229.04 243.38 229.75 C 245.19 230.46 247.54 231.27 249.50 231.75 C 251.46 232.23 251.44 232.46 255.12 232.62 C 258.81 232.79 267.12 232.90 271.62 232.75 C 276.12 232.60 275.12 232.71 282.12 231.75 C 289.12 230.79 306.27 227.98 313.62 227.00 C 320.98 226.02 320.90 226.56 326.25 225.88 C 331.60 225.19 339.40 224.00 345.75 222.88 C 352.10 221.75 356.92 220.29 364.38 219.12 C 371.83 217.96 385.06 216.77 390.50 215.88 C 395.94 214.98 395.29 214.44 397.00 213.75 C 398.71 213.06 399.62 212.50 400.75 211.75 C 401.88 211.00 403.08 209.98 403.75 209.25 C 404.42 208.52 404.56 207.98 404.75 207.38 C 404.94 206.77 405.10 206.25 404.88 205.62 Z" id="s-8-f-0"/>
<clipPath id="c-s-8"><use href="#s-8-f-0"/></clipPath>
<path d="M 477.88 269.38 C 477.75 268.69 477.69 268.38 477.00 267.62 C 476.31 266.88 476.10 266.29 473.75 264.88 C 471.40 263.46 467.02 260.92 462.88 259.12 C 458.73 257.33 451.92 255.12 448.88 254.12 C 445.83 253.12 446.42 253.31 444.62 253.12 C 442.83 252.94 445.60 252.06 438.12 253.00 C 430.65 253.94 412.44 256.96 399.75 258.75 C 387.06 260.54 368.96 262.90 362.00 263.75 C 355.04 264.60 364.85 262.92 358.00 263.88 C 351.15 264.83 331.00 268.12 320.88 269.50 C 310.75 270.88 310.73 270.42 297.25 272.12 C 283.77 273.83 259.02 277.44 240.00 279.75 C 220.98 282.06 193.33 284.73 183.12 286.00 C 172.92 287.27 179.77 286.88 178.75 287.38 C 177.73 287.88 177.31 288.50 177.00 289.00 C 176.69 289.50 176.71 289.81 176.88 290.38 C 177.04 290.94 177.15 291.46 178.00 292.38 C 178.85 293.29 180.60 294.81 182.00 295.88 C 183.40 296.94 184.62 297.77 186.38 298.75 C 188.12 299.73 190.02 300.75 192.50 301.75 C 194.98 302.75 198.58 304.25 201.25 304.75 C 203.92 305.25 203.17 305.54 208.50 304.75 C 213.83 303.96 224.92 301.46 233.25 300.00 C 241.58 298.54 242.85 298.17 258.50 296.00 C 274.15 293.83 314.08 288.50 327.12 287.00 C 340.17 285.50 331.21 287.52 336.75 287.00 C 342.29 286.48 349.90 284.88 360.38 283.88 C 370.85 282.88 389.38 281.62 399.62 281.00 C 409.88 280.38 412.81 280.33 421.88 280.12 C 430.94 279.92 447.00 279.98 454.00 279.75 C 461.00 279.52 460.90 279.25 463.88 278.75 C 466.85 278.25 469.96 277.40 471.88 276.75 C 473.79 276.10 474.40 275.71 475.38 274.88 C 476.35 274.04 477.33 272.67 477.75 271.75 C 478.17 270.83 478.00 270.06 477.88 269.38 Z" id="s-9-f-0"/>
<clipPath id="c-s-9"><use href="#s-9-f-0"/></clipPath>
<path d="M 350.38 221.62 C 349.40 221.44 347.46 221.50 346.50 221.62 C 345.54 221.75 345.67 222.21 344.62 222.38 C 343.58 222.54 341.44 222.46 340.25 222.62 C 339.06 222.79 338.75 223.19 337.50 223.38 C 336.25 223.56 333.73 223.58 332.75 223.75 C 331.77 223.92 332.67 224.21 331.62 224.38 C 330.58 224.54 327.71 224.56 326.50 224.75 C 325.29 224.94 324.81 225.17 324.38 225.50 C 323.94 225.83 323.90 226.00 323.88 226.75 C 323.85 227.50 323.44 227.02 324.25 230.00 C 325.06 232.98 327.67 240.69 328.75 244.62 C 329.83 248.56 330.08 249.94 330.75 253.62 C 331.42 257.31 332.44 263.40 332.75 266.75 C 333.06 270.10 332.52 272.17 332.62 273.75 C 332.73 275.33 333.19 274.69 333.38 276.25 C 333.56 277.81 333.50 281.29 333.75 283.12 C 334.00 284.96 334.73 278.27 334.88 287.25 C 335.02 296.23 334.81 323.67 334.62 337.00 C 334.44 350.33 334.23 358.33 333.75 367.25 C 333.27 376.17 332.46 385.04 331.75 390.50 C 331.04 395.96 330.17 397.88 329.50 400.00 C 328.83 402.12 328.29 402.46 327.75 403.25 C 327.21 404.04 326.88 404.33 326.25 404.75 C 325.62 405.17 326.10 405.75 324.00 405.75 C 321.90 405.75 319.94 405.88 313.62 404.75 C 307.31 403.62 291.52 399.98 286.12 399.00 C 280.73 398.02 282.27 398.75 281.25 398.88 C 280.23 399.00 280.19 399.10 280.00 399.75 C 279.81 400.40 279.85 401.88 280.12 402.75 C 280.40 403.62 280.27 403.73 281.62 405.00 C 282.98 406.27 284.10 406.31 288.25 410.38 C 292.40 414.44 302.10 424.54 306.50 429.38 C 310.90 434.21 312.06 435.88 314.62 439.38 C 317.19 442.88 319.71 447.67 321.88 450.38 C 324.04 453.08 326.29 454.58 327.62 455.62 C 328.96 456.67 329.17 456.42 329.88 456.62 C 330.58 456.83 330.92 456.88 331.88 456.88 C 332.83 456.88 334.54 456.83 335.62 456.62 C 336.71 456.42 337.31 456.17 338.38 455.62 C 339.44 455.08 340.27 454.75 342.00 453.38 C 343.73 452.00 346.31 449.96 348.75 447.38 C 351.19 444.79 354.81 440.73 356.62 437.88 C 358.44 435.02 358.94 432.27 359.62 430.25 C 360.31 428.23 360.23 428.48 360.75 425.75 C 361.27 423.02 362.27 417.48 362.75 413.88 C 363.23 410.27 363.46 412.04 363.62 404.12 C 363.79 396.21 363.90 375.92 363.75 366.38 C 363.60 356.83 363.21 353.42 362.75 346.88 C 362.29 340.33 361.48 337.56 361.00 327.12 C 360.52 316.69 359.98 291.54 359.88 284.25 C 359.77 276.96 360.17 284.77 360.38 283.38 C 360.58 281.98 361.02 279.92 361.12 275.88 C 361.23 271.83 360.85 263.40 361.00 259.12 C 361.15 254.85 361.71 252.06 362.00 250.25 C 362.29 248.44 362.46 249.69 362.75 248.25 C 363.04 246.81 363.58 244.12 363.75 241.62 C 363.92 239.12 364.06 235.46 363.75 233.25 C 363.44 231.04 362.67 229.69 361.88 228.38 C 361.08 227.06 359.88 226.10 359.00 225.38 C 358.12 224.65 357.73 224.44 356.62 224.00 C 355.52 223.56 353.42 223.15 352.38 222.75 C 351.33 222.35 351.35 221.81 350.38 221.62 Z" id="s-10-f-0"/>
<clipPath id="c-s-10"><use href="#s-10-f-0"/></clipPath>
<path d="M 234.50 315.75 C 233.94 316.25 233.25 317.15 233.00 317.88 C 232.75 318.60 232.35 319.04 233.00 320.12 C 233.65 321.21 235.06 321.85 236.88 324.38 C 238.69 326.90 241.35 331.58 243.88 335.25 C 246.40 338.92 249.71 343.42 252.00 346.38 C 254.29 349.33 255.83 351.04 257.62 353.00 C 259.42 354.96 261.06 356.65 262.75 358.12 C 264.44 359.60 266.31 360.96 267.75 361.88 C 269.19 362.79 270.48 363.29 271.38 363.62 C 272.27 363.96 271.98 363.88 273.12 363.88 C 274.27 363.88 276.73 363.96 278.25 363.62 C 279.77 363.29 281.23 362.48 282.25 361.88 C 283.27 361.27 283.62 360.94 284.38 360.00 C 285.12 359.06 286.19 357.52 286.75 356.25 C 287.31 354.98 287.60 354.73 287.75 352.38 C 287.90 350.02 287.96 344.88 287.62 342.12 C 287.29 339.38 286.44 337.52 285.75 335.88 C 285.06 334.23 284.46 333.44 283.50 332.25 C 282.54 331.06 281.52 329.94 280.00 328.75 C 278.48 327.56 276.38 326.21 274.38 325.12 C 272.38 324.04 270.06 323.06 268.00 322.25 C 265.94 321.44 266.29 321.44 262.00 320.25 C 257.71 319.06 246.52 316.02 242.25 315.12 C 237.98 314.23 237.67 314.77 236.38 314.88 C 235.08 314.98 235.06 315.25 234.50 315.75 Z" id="s-11-f-0"/>
<clipPath id="c-s-11"><use href="#s-11-f-0"/></clipPath>
</defs>
<g id="s-0" clip-path="url(#c-s-0)">
<use href="#s-0-f-0"/>
<path d="M 185.75 148.12 C 185.17 144.04 183.65 147.19 182.25 147.00 C 180.85 146.81 179.23 146.54 177.38 147.00 C 175.52 147.46 173.75 148.79 171.12 149.75 C 168.50 150.71 169.79 150.60 161.62 152.75 C 153.46 154.90 134.17 159.94 122.12 162.62 C 110.08 165.31 102.00 166.81 89.38 168.88 C 76.75 170.94 54.19 173.71 46.38 175.00 C 38.56 176.29 43.25 176.21 42.50 176.62 C 41.75 177.04 41.96 177.04 41.88 177.50 C 41.79 177.96 41.83 178.75 42.00 179.38 C 42.17 180.00 42.25 180.40 42.88 181.25 C 43.50 182.10 44.83 183.58 45.75 184.50 C 46.67 185.42 47.54 186.21 48.38 186.75 C 49.21 187.29 48.94 187.29 50.75 187.75 C 52.56 188.21 55.19 189.15 59.25 189.50 C 63.31 189.85 69.90 190.02 75.12 189.88 C 80.35 189.73 83.48 189.60 90.62 188.62 C 97.77 187.65 112.79 184.79 118.00 184.00 C 123.21 183.21 117.33 184.42 121.88 183.88 C 126.42 183.33 137.85 181.96 145.25 180.75 C 152.65 179.54 159.94 177.98 166.25 176.62 C 172.56 175.27 179.88 173.48 183.12 172.62 C 186.38 171.77 185.31 175.58 185.75 171.50 C 186.19 167.42 186.33 152.21 185.75 148.12 Z" id="s-0-f-1"/>
<path d="M 137.88 159.12 C 137.67 155.62 139.38 158.17 136.75 158.75 C 134.12 159.33 129.77 160.98 122.12 162.62 C 114.48 164.27 99.33 167.10 90.88 168.62 C 82.42 170.15 78.79 170.69 71.38 171.75 C 63.96 172.81 51.19 174.19 46.38 175.00 C 41.56 175.81 43.25 176.21 42.50 176.62 C 41.75 177.04 41.96 177.04 41.88 177.50 C 41.79 177.96 41.65 178.52 42.00 179.38 C 42.35 180.23 42.94 181.40 44.00 182.62 C 45.06 183.85 46.60 185.73 48.38 186.75 C 50.15 187.77 52.23 188.25 54.62 188.75 C 57.02 189.25 58.25 189.60 62.75 189.75 C 67.25 189.90 74.83 190.12 81.62 189.62 C 88.42 189.12 97.44 187.69 103.50 186.75 C 109.56 185.81 112.40 184.81 118.00 184.00 C 123.60 183.19 133.83 182.33 137.12 181.88 C 140.42 181.42 137.60 181.60 137.75 181.25 C 137.90 180.90 137.98 183.44 138.00 179.75 C 138.02 176.06 138.08 162.62 137.88 159.12 Z" id="s-0-f-2"/>
<path d="M 90.00 169.25 C 89.94 166.04 89.96 168.92 89.50 168.88 C 89.04 168.83 90.27 168.52 87.25 169.00 C 84.23 169.48 78.19 170.75 71.38 171.75 C 64.56 172.75 51.19 174.19 46.38 175.00 C 41.56 175.81 43.25 176.21 42.50 176.62 C 41.75 177.04 41.96 177.04 41.88 177.50 C 41.79 177.96 41.65 178.52 42.00 179.38 C 42.35 180.23 42.94 181.40 44.00 182.62 C 45.06 183.85 46.60 185.73 48.38 186.75 C 50.15 187.77 52.81 188.29 54.62 188.75 C 56.44 189.21 57.04 189.31 59.25 189.50 C 61.46 189.69 64.15 189.85 67.88 189.88 C 71.60 189.90 78.06 189.81 81.62 189.62 C 85.19 189.44 87.88 189.00 89.25 188.75 C 90.62 188.50 89.75 191.38 89.88 188.12 C 90.00 184.88 90.06 172.46 90.00 169.25 Z" id="s-0-f-3"/>
</g>
<g id="s-1" clip-path="url(#c-s-1)">
<use href="#s-1-f-0"/>
<path d="M 120.88 41.88 C 119.77 41.88 119.38 41.77 118.50 42.12 C 117.62 42.48 116.35 43.27 115.62 44.00 C 114.90 44.73 114.42 45.46 114.12 46.50 C 113.83 47.54 113.71 48.88 113.88 50.25 C 114.04 51.62 114.31 52.54 115.12 54.75 C 115.94 56.96 117.65 59.98 118.75 63.50 C 119.85 67.02 120.92 71.27 121.75 75.88 C 122.58 80.48 123.23 85.77 123.75 91.12 C 124.27 96.48 124.52 96.27 124.88 108.00 C 125.23 119.73 125.77 152.44 125.88 161.50 C 125.98 170.56 125.62 159.25 125.50 162.38 C 125.38 165.50 125.27 177.02 125.12 180.25 C 124.98 183.48 124.58 181.25 124.62 181.75 C 124.67 182.25 125.35 173.25 125.38 183.25 C 125.40 193.25 125.17 224.85 124.75 241.75 C 124.33 258.65 124.02 267.15 122.88 284.62 C 121.73 302.10 119.23 331.73 117.88 346.62 C 116.52 361.52 116.04 365.35 114.75 374.00 C 113.46 382.65 110.94 393.02 110.12 398.50 C 109.31 403.98 109.85 404.90 109.88 406.88 C 109.90 408.85 109.90 408.69 110.25 410.38 C 110.60 412.06 111.21 414.52 112.00 417.00 C 112.79 419.48 114.40 423.77 115.00 425.25 C 115.60 426.73 111.42 425.75 115.62 425.88 C 119.83 426.00 135.83 426.00 140.25 426.00 C 144.67 426.00 141.69 426.02 142.12 425.88 C 142.56 425.73 142.44 426.12 142.88 425.12 C 143.31 424.12 144.27 421.65 144.75 419.88 C 145.23 418.10 145.42 431.27 145.75 414.50 C 146.08 397.73 146.56 350.35 146.75 319.25 C 146.94 288.15 146.67 245.17 146.88 227.88 C 147.08 210.58 147.67 223.40 148.00 215.50 C 148.33 207.60 148.65 186.56 148.88 180.50 C 149.10 174.44 149.17 180.75 149.38 179.12 C 149.58 177.50 150.02 174.94 150.12 170.75 C 150.23 166.56 149.67 162.19 150.00 154.00 C 150.33 145.81 151.40 131.06 152.12 121.62 C 152.85 112.19 153.73 103.29 154.38 97.38 C 155.02 91.46 155.29 89.98 156.00 86.12 C 156.71 82.27 158.15 77.29 158.62 74.25 C 159.10 71.21 159.02 69.62 158.88 67.88 C 158.73 66.12 158.29 65.00 157.75 63.75 C 157.21 62.50 156.67 61.65 155.62 60.38 C 154.58 59.10 153.08 57.54 151.50 56.12 C 149.92 54.71 149.58 53.88 146.12 51.88 C 142.67 49.88 134.25 45.75 130.75 44.12 C 127.25 42.50 126.77 42.50 125.12 42.12 C 123.48 41.75 121.98 41.88 120.88 41.88 Z" id="s-1-f-1"/>
<path d="M 119.12 42.00 C 117.85 42.17 117.56 42.52 116.88 43.00 C 116.19 43.48 115.48 44.21 115.00 44.88 C 114.52 45.54 114.19 46.10 114.00 47.00 C 113.81 47.90 113.69 48.96 113.88 50.25 C 114.06 51.54 114.31 52.54 115.12 54.75 C 115.94 56.96 117.65 59.98 118.75 63.50 C 119.85 67.02 120.92 71.27 121.75 75.88 C 122.58 80.48 123.23 85.77 123.75 91.12 C 124.27 96.48 124.52 96.27 124.88 108.00 C 125.23 119.73 125.77 152.44 125.88 161.50 C 125.98 170.56 125.62 159.25 125.50 162.38 C 125.38 165.50 125.27 177.02 125.12 180.25 C 124.98 183.48 124.58 181.25 124.62 181.75 C 124.67 182.25 125.35 173.25 125.38 183.25 C 125.40 193.25 125.02 227.58 124.75 241.75 C 124.48 255.92 124.25 258.44 123.75 268.25 C 123.25 278.06 122.35 292.73 121.75 300.62 C 121.15 308.52 120.96 306.00 120.12 315.62 C 119.29 325.25 117.65 348.65 116.75 358.38 C 115.85 368.10 115.21 370.92 114.75 374.00 C 114.29 377.08 114.00 376.21 114.00 376.88 C 114.00 377.54 109.48 377.83 114.75 378.00 C 120.02 378.17 140.40 378.06 145.62 377.88 C 150.85 377.69 145.94 386.65 146.12 376.88 C 146.31 367.10 146.62 344.08 146.75 319.25 C 146.88 294.42 146.67 245.17 146.88 227.88 C 147.08 210.58 147.67 223.40 148.00 215.50 C 148.33 207.60 148.65 186.56 148.88 180.50 C 149.10 174.44 149.17 180.75 149.38 179.12 C 149.58 177.50 150.02 174.94 150.12 170.75 C 150.23 166.56 149.50 164.40 150.00 154.00 C 150.50 143.60 152.12 119.69 153.12 108.38 C 154.12 97.06 155.08 91.81 156.00 86.12 C 156.92 80.44 158.15 77.29 158.62 74.25 C 159.10 71.21 159.02 69.62 158.88 67.88 C 158.73 66.12 158.29 65.00 157.75 63.75 C 157.21 62.50 156.67 61.65 155.62 60.38 C 154.58 59.10 153.08 57.54 151.50 56.12 C 149.92 54.71 148.48 53.38 146.12 51.88 C 143.77 50.38 140.33 48.56 137.38 47.12 C 134.42 45.69 130.52 44.10 128.38 43.25 C 126.23 42.40 126.04 42.21 124.50 42.00 C 122.96 41.79 120.40 41.83 119.12 42.00 Z" id="s-1-f-2"/>
<path d="M 119.12 42.00 C 117.85 42.17 117.56 42.52 116.88 43.00 C 116.19 43.48 115.48 44.21 115.00 44.88 C 114.52 45.54 114.19 46.15 114.00 47.00 C 113.81 47.85 113.69 48.71 113.88 50.00 C 114.06 51.29 114.35 52.62 115.12 54.75 C 115.90 56.88 117.60 60.27 118.50 62.75 C 119.40 65.23 119.62 64.90 120.50 69.62 C 121.38 74.35 122.92 81.52 123.75 91.12 C 124.58 100.73 125.15 116.23 125.50 127.25 C 125.85 138.27 125.94 148.42 125.88 157.25 C 125.81 166.08 125.33 176.17 125.12 180.25 C 124.92 184.33 124.58 181.25 124.62 181.75 C 124.67 182.25 125.35 173.25 125.38 183.25 C 125.40 193.25 125.02 227.35 124.75 241.75 C 124.48 256.15 124.25 259.81 123.75 269.62 C 123.25 279.44 122.52 290.75 121.75 300.62 C 120.98 310.50 119.48 324.00 119.12 328.88 C 118.77 333.75 119.27 329.69 119.62 329.88 C 119.98 330.06 116.85 330.00 121.25 330.00 C 125.65 330.00 141.77 330.15 146.00 329.88 C 150.23 329.60 146.48 345.38 146.62 328.38 C 146.77 311.38 146.65 246.69 146.88 227.88 C 147.10 209.06 147.67 223.40 148.00 215.50 C 148.33 207.60 148.65 186.56 148.88 180.50 C 149.10 174.44 149.17 180.75 149.38 179.12 C 149.58 177.50 150.02 174.94 150.12 170.75 C 150.23 166.56 149.50 164.40 150.00 154.00 C 150.50 143.60 152.12 119.69 153.12 108.38 C 154.12 97.06 155.08 91.81 156.00 86.12 C 156.92 80.44 158.15 77.29 158.62 74.25 C 159.10 71.21 159.02 69.62 158.88 67.88 C 158.73 66.12 158.29 65.00 157.75 63.75 C 157.21 62.50 156.67 61.65 155.62 60.38 C 154.58 59.10 153.08 57.54 151.50 56.12 C 149.92 54.71 148.48 53.38 146.12 51.88 C 143.77 50.38 140.33 48.56 137.38 47.12 C 134.42 45.69 130.52 44.10 128.38 43.25 C 126.23 42.40 126.04 42.21 124.50 42.00 C 122.96 41.79 120.40 41.83 119.12 42.00 Z" id="s-1-f-3"/>
<path d="M 119.12 42.00 C 117.85 42.17 117.56 42.52 116.88 43.00 C 116.19 43.48 115.48 44.21 115.00 44.88 C 114.52 45.54 114.19 46.15 114.00 47.00 C 113.81 47.85 113.69 48.71 113.88 50.00 C 114.06 51.29 114.31 52.50 115.12 54.75 C 115.94 57.00 117.65 59.98 118.75 63.50 C 119.85 67.02 120.92 71.27 121.75 75.88 C 122.58 80.48 123.23 85.75 123.75 91.12 C 124.27 96.50 124.52 96.40 124.88 108.12 C 125.23 119.85 125.77 152.46 125.88 161.50 C 125.98 170.54 125.62 159.23 125.50 162.38 C 125.38 165.52 125.27 177.15 125.12 180.38 C 124.98 183.60 124.58 181.27 124.62 181.75 C 124.67 182.23 125.35 173.25 125.38 183.25 C 125.40 193.25 125.15 225.42 124.75 241.75 C 124.35 258.08 123.23 274.56 123.00 281.25 C 122.77 287.94 123.08 281.75 123.38 281.88 C 123.67 282.00 121.15 282.00 124.75 282.00 C 128.35 282.00 141.40 282.06 145.00 281.88 C 148.60 281.69 146.08 281.77 146.38 280.88 C 146.67 279.98 146.67 285.33 146.75 276.50 C 146.83 267.67 146.67 238.04 146.88 227.88 C 147.08 217.71 147.67 223.40 148.00 215.50 C 148.33 207.60 148.65 186.56 148.88 180.50 C 149.10 174.44 149.17 180.75 149.38 179.12 C 149.58 177.50 150.02 174.94 150.12 170.75 C 150.23 166.56 149.50 164.40 150.00 154.00 C 150.50 143.60 152.12 119.69 153.12 108.38 C 154.12 97.06 155.08 91.81 156.00 86.12 C 156.92 80.44 158.15 77.29 158.62 74.25 C 159.10 71.21 159.02 69.62 158.88 67.88 C 158.73 66.12 158.29 65.00 157.75 63.75 C 157.21 62.50 156.67 61.65 155.62 60.38 C 154.58 59.10 153.08 57.54 151.50 56.12 C 149.92 54.71 148.48 53.38 146.12 51.88 C 143.77 50.38 140.33 48.56 137.38 47.12 C 134.42 45.69 130.52 44.10 128.38 43.25 C 126.23 42.40 126.04 42.21 124.50 42.00 C 122.96 41.79 120.40 41.83 119.12 42.00 Z" id="s-1-f-4"/>
<path d="M 119.12 42.00 C 117.88 42.17 117.56 42.52 116.88 43.00 C 116.19 43.48 115.48 44.21 115.00 44.88 C 114.52 45.54 114.19 46.15 114.00 47.00 C 113.81 47.85 113.69 48.71 113.88 50.00 C 114.06 51.29 114.31 52.50 115.12 54.75 C 115.94 57.00 117.67 60.10 118.75 63.50 C 119.83 66.90 120.79 70.52 121.62 75.12 C 122.46 79.73 123.23 86.00 123.75 91.12 C 124.27 96.25 124.44 99.17 124.75 105.88 C 125.06 112.58 125.44 122.81 125.62 131.38 C 125.81 139.94 125.96 149.08 125.88 157.25 C 125.79 165.42 125.33 176.29 125.12 180.38 C 124.92 184.46 124.58 181.27 124.62 181.75 C 124.67 182.23 125.35 174.62 125.38 183.25 C 125.40 191.88 124.58 225.04 124.75 233.50 C 124.92 241.96 122.77 233.92 126.38 234.00 C 129.98 234.08 142.96 234.12 146.38 234.00 C 149.79 233.88 146.79 234.27 146.88 233.25 C 146.96 232.23 146.69 230.75 146.88 227.88 C 147.06 225.00 147.67 223.90 148.00 216.00 C 148.33 208.10 148.65 186.65 148.88 180.50 C 149.10 174.35 149.17 180.75 149.38 179.12 C 149.58 177.50 150.02 174.94 150.12 170.75 C 150.23 166.56 149.67 162.23 150.00 154.00 C 150.33 145.77 151.31 131.46 152.12 121.38 C 152.94 111.29 153.79 101.38 154.88 93.50 C 155.96 85.62 158.00 78.71 158.62 74.12 C 159.25 69.54 158.96 68.06 158.62 66.00 C 158.29 63.94 157.23 62.81 156.62 61.75 C 156.02 60.69 156.00 60.69 155.00 59.62 C 154.00 58.56 152.27 56.77 150.62 55.38 C 148.98 53.98 147.33 52.62 145.12 51.25 C 142.92 49.88 140.17 48.46 137.38 47.12 C 134.58 45.79 130.54 44.10 128.38 43.25 C 126.21 42.40 125.92 42.21 124.38 42.00 C 122.83 41.79 120.38 41.83 119.12 42.00 Z" id="s-1-f-5"/>
<path d="M 118.50 42.12 C 116.98 42.38 116.58 43.17 116.00 43.62 C 115.42 44.08 115.33 44.31 115.00 44.88 C 114.67 45.44 114.19 46.15 114.00 47.00 C 113.81 47.85 113.69 48.71 113.88 50.00 C 114.06 51.29 114.31 52.50 115.12 54.75 C 115.94 57.00 117.83 60.94 118.75 63.50 C 119.67 66.06 119.79 65.52 120.62 70.12 C 121.46 74.73 123.04 84.79 123.75 91.12 C 124.46 97.46 124.56 101.42 124.88 108.12 C 125.19 114.83 125.46 122.48 125.62 131.38 C 125.79 140.27 125.90 156.33 125.88 161.50 C 125.85 166.67 125.62 159.08 125.50 162.38 C 125.38 165.67 125.25 177.96 125.12 181.25 C 125.00 184.54 124.71 181.81 124.75 182.12 C 124.79 182.44 125.27 182.60 125.38 183.12 C 125.48 183.65 125.31 184.81 125.38 185.25 C 125.44 185.69 125.40 185.62 125.75 185.75 C 126.10 185.88 123.75 185.98 127.50 186.00 C 131.25 186.02 144.73 185.96 148.25 185.88 C 151.77 185.79 148.33 187.65 148.62 185.50 C 148.92 183.35 149.77 178.27 150.00 173.00 C 150.23 167.73 149.48 164.65 150.00 153.88 C 150.52 143.10 152.12 119.67 153.12 108.38 C 154.12 97.08 155.08 91.83 156.00 86.12 C 156.92 80.42 158.19 77.48 158.62 74.12 C 159.06 70.77 158.96 68.06 158.62 66.00 C 158.29 63.94 157.23 62.81 156.62 61.75 C 156.02 60.69 156.00 60.69 155.00 59.62 C 154.00 58.56 152.27 56.77 150.62 55.38 C 148.98 53.98 147.33 52.62 145.12 51.25 C 142.92 49.88 140.71 48.65 137.38 47.12 C 134.04 45.60 128.27 42.96 125.12 42.12 C 121.98 41.29 120.02 41.88 118.50 42.12 Z" id="s-1-f-6"/>
<path d="M 118.50 42.12 C 116.98 42.38 116.58 43.17 116.00 43.62 C 115.42 44.08 115.33 44.31 115.00 44.88 C 114.67 45.44 114.19 46.15 114.00 47.00 C 113.81 47.85 113.69 48.71 113.88 50.00 C 114.06 51.29 114.31 52.50 115.12 54.75 C 115.94 57.00 117.85 61.02 118.75 63.50 C 119.65 65.98 119.83 66.42 120.50 69.62 C 121.17 72.83 122.02 76.33 122.75 82.75 C 123.48 89.17 124.40 99.02 124.88 108.12 C 125.35 117.23 125.42 132.42 125.62 137.38 C 125.83 142.33 125.79 137.77 126.12 137.88 C 126.46 137.98 123.54 138.00 127.62 138.00 C 131.71 138.00 146.69 138.04 150.62 137.88 C 154.56 137.71 151.00 139.75 151.25 137.00 C 151.50 134.25 151.60 128.02 152.12 121.38 C 152.65 114.73 153.73 103.00 154.38 97.12 C 155.02 91.25 155.29 89.96 156.00 86.12 C 156.71 82.29 158.15 77.17 158.62 74.12 C 159.10 71.08 158.90 69.31 158.88 67.88 C 158.85 66.44 159.15 66.88 158.50 65.50 C 157.85 64.12 156.31 61.31 155.00 59.62 C 153.69 57.94 152.27 56.77 150.62 55.38 C 148.98 53.98 147.33 52.62 145.12 51.25 C 142.92 49.88 140.71 48.65 137.38 47.12 C 134.04 45.60 128.27 42.96 125.12 42.12 C 121.98 41.29 120.02 41.88 118.50 42.12 Z" id="s-1-f-7"/>
<path d="M 116.00 43.62 C 115.27 44.35 114.46 45.27 114.12 46.50 C 113.79 47.73 113.23 48.17 114.00 51.00 C 114.77 53.83 117.65 60.31 118.75 63.50 C 119.85 66.69 119.83 65.81 120.62 70.12 C 121.42 74.44 122.92 86.08 123.50 89.38 C 124.08 92.67 118.81 89.81 124.12 89.88 C 129.44 89.94 149.62 92.38 155.38 89.75 C 161.12 87.12 158.04 77.77 158.62 74.12 C 159.21 70.48 159.02 69.60 158.88 67.88 C 158.73 66.15 158.40 65.12 157.75 63.75 C 157.10 62.38 156.04 60.90 155.00 59.62 C 153.96 58.35 152.98 57.42 151.50 56.12 C 150.02 54.83 149.58 53.88 146.12 51.88 C 142.67 49.88 134.40 45.77 130.75 44.12 C 127.10 42.48 126.29 42.33 124.25 42.00 C 122.21 41.67 119.88 41.85 118.50 42.12 C 117.12 42.40 116.73 42.90 116.00 43.62 Z" id="s-1-f-8"/>
</g>
<g id="s-2" clip-path="url(#c-s-2)">
<use href="#s-2-f-0"/>
<path d="M 126.12 162.88 C 125.92 155.15 125.04 162.71 124.75 163.12 C 124.46 163.54 124.56 164.85 124.38 165.38 C 124.19 165.90 123.94 165.25 123.62 166.25 C 123.31 167.25 122.83 170.33 122.50 171.38 C 122.17 172.42 121.98 171.42 121.62 172.50 C 121.27 173.58 120.71 176.83 120.38 177.88 C 120.04 178.92 119.77 178.31 119.62 178.75 C 119.48 179.19 119.69 179.92 119.50 180.50 C 119.31 181.08 118.65 181.58 118.50 182.25 C 118.35 182.92 119.94 180.44 118.62 184.50 C 117.31 188.56 113.12 200.08 110.62 206.62 C 108.12 213.17 106.29 217.60 103.62 223.75 C 100.96 229.90 98.27 236.21 94.62 243.50 C 90.98 250.79 86.23 259.85 81.75 267.50 C 77.27 275.15 71.98 283.12 67.75 289.38 C 63.52 295.62 58.23 302.25 56.38 305.00 C 54.52 307.75 52.67 305.71 56.62 305.88 C 60.58 306.04 75.77 306.08 80.12 306.00 C 84.48 305.92 80.48 307.83 82.75 305.38 C 85.02 302.92 90.92 295.10 93.75 291.25 C 96.58 287.40 96.58 287.42 99.75 282.25 C 102.92 277.08 108.73 267.48 112.75 260.25 C 116.77 253.02 121.83 242.65 123.88 238.88 C 125.92 235.10 124.65 242.52 125.00 237.62 C 125.35 232.73 125.81 221.96 126.00 209.50 C 126.19 197.04 126.33 170.60 126.12 162.88 Z" id="s-2-f-1"/>
<path d="M 126.12 162.88 C 125.92 155.15 125.04 162.71 124.75 163.12 C 124.46 163.54 124.56 164.85 124.38 165.38 C 124.19 165.90 123.94 165.25 123.62 166.25 C 123.31 167.25 122.83 170.33 122.50 171.38 C 122.17 172.42 121.98 171.42 121.62 172.50 C 121.27 173.58 120.71 176.83 120.38 177.88 C 120.04 178.92 119.77 178.31 119.62 178.75 C 119.48 179.19 119.69 179.92 119.50 180.50 C 119.31 181.08 118.65 181.58 118.50 182.25 C 118.35 182.92 120.25 179.65 118.62 184.50 C 117.00 189.35 112.08 202.96 108.75 211.38 C 105.42 219.79 101.46 228.69 98.62 235.00 C 95.79 241.31 93.62 245.56 91.75 249.25 C 89.88 252.94 88.04 255.69 87.38 257.12 C 86.71 258.56 83.35 257.77 87.75 257.88 C 92.15 257.98 109.29 257.88 113.75 257.75 C 118.21 257.62 112.81 260.27 114.50 257.12 C 116.19 253.98 122.12 242.12 123.88 238.88 C 125.62 235.62 124.65 242.52 125.00 237.62 C 125.35 232.73 125.81 221.96 126.00 209.50 C 126.19 197.04 126.33 170.60 126.12 162.88 Z" id="s-2-f-2"/>
<path d="M 126.12 162.88 C 125.94 155.19 125.04 162.71 124.75 163.12 C 124.46 163.54 124.56 164.85 124.38 165.38 C 124.19 165.90 123.94 165.25 123.62 166.25 C 123.31 167.25 122.83 170.33 122.50 171.38 C 122.17 172.42 121.98 171.42 121.62 172.50 C 121.27 173.58 120.71 176.83 120.38 177.88 C 120.04 178.92 119.77 178.31 119.62 178.75 C 119.48 179.19 119.69 179.92 119.50 180.50 C 119.31 181.08 118.65 181.58 118.50 182.25 C 118.35 182.92 120.15 180.00 118.62 184.50 C 117.10 189.00 110.85 205.02 109.38 209.25 C 107.90 213.48 107.29 209.75 109.75 209.88 C 112.21 210.00 121.50 210.00 124.12 210.00 C 126.75 210.00 125.21 210.00 125.50 209.88 C 125.79 209.75 125.77 217.08 125.88 209.25 C 125.98 201.42 126.31 170.56 126.12 162.88 Z" id="s-2-f-3"/>
</g>
<g id="s-3" clip-path="url(#c-s-3)">
<use href="#s-3-f-0"/>
<path d="M 147.75 213.00 C 147.33 213.98 146.79 216.67 146.62 219.00 C 146.46 221.33 143.46 221.38 146.75 227.00 C 150.04 232.62 162.10 247.42 166.38 252.75 C 170.65 258.08 170.96 257.65 172.38 259.00 C 173.79 260.35 172.33 260.58 174.88 260.88 C 177.42 261.17 185.31 261.00 187.62 260.75 C 189.94 260.50 188.25 260.48 188.75 259.38 C 189.25 258.27 190.10 256.19 190.62 254.12 C 191.15 252.06 191.71 249.27 191.88 247.00 C 192.04 244.73 191.88 242.25 191.62 240.50 C 191.38 238.75 190.90 237.71 190.38 236.50 C 189.85 235.29 189.23 234.25 188.50 233.25 C 187.77 232.25 187.17 231.54 186.00 230.50 C 184.83 229.46 183.10 228.08 181.50 227.00 C 179.90 225.92 179.19 225.33 176.38 224.00 C 173.56 222.67 169.17 220.81 164.62 219.00 C 160.08 217.19 151.94 214.12 149.12 213.12 C 146.31 212.12 148.17 212.02 147.75 213.00 Z" id="s-3-f-1"/>
</g>
<g id="s-4" clip-path="url(#c-s-4)">
<use href="#s-4-f-0"/>
<path d="M 228.88 59.38 C 228.21 59.71 227.35 60.31 226.88 60.88 C 226.40 61.44 226.17 62.02 226.00 62.75 C 225.83 63.48 225.19 64.12 225.88 65.25 C 226.56 66.38 228.46 67.48 230.12 69.50 C 231.79 71.52 234.44 75.15 235.88 77.38 C 237.31 79.60 237.75 80.33 238.75 82.88 C 239.75 85.42 240.35 85.71 241.88 92.62 C 243.40 99.54 246.19 114.21 247.88 124.38 C 249.56 134.54 251.19 148.54 252.00 153.62 C 252.81 158.71 249.54 154.65 252.75 154.88 C 255.96 155.10 268.06 155.08 271.25 155.00 C 274.44 154.92 271.79 155.65 271.88 154.38 C 271.96 153.10 271.96 150.65 271.75 147.38 C 271.54 144.10 271.27 140.31 270.62 134.75 C 269.98 129.19 268.98 121.04 267.88 114.00 C 266.77 106.96 264.83 98.90 264.00 92.50 C 263.17 86.10 264.40 80.25 262.88 75.62 C 261.35 71.00 256.65 66.85 254.88 64.75 C 253.10 62.65 254.19 63.77 252.25 63.00 C 250.31 62.23 245.56 60.77 243.25 60.12 C 240.94 59.48 240.44 59.33 238.38 59.12 C 236.31 58.92 232.46 58.83 230.88 58.88 C 229.29 58.92 229.54 59.04 228.88 59.38 Z" id="s-4-f-1"/>
<path d="M 227.88 59.88 C 227.04 60.52 226.33 61.88 226.00 62.75 C 225.67 63.62 224.75 63.46 225.88 65.12 C 227.00 66.79 231.08 70.71 232.75 72.75 C 234.42 74.79 234.88 75.69 235.88 77.38 C 236.88 79.06 237.67 80.02 238.75 82.88 C 239.83 85.73 241.38 90.56 242.38 94.50 C 243.38 98.44 244.27 104.42 244.75 106.50 C 245.23 108.58 241.71 106.94 245.25 107.00 C 248.79 107.06 262.46 107.04 266.00 106.88 C 269.54 106.71 266.83 108.40 266.50 106.00 C 266.17 103.60 264.60 97.56 264.00 92.50 C 263.40 87.44 264.40 80.25 262.88 75.62 C 261.35 71.00 256.65 66.85 254.88 64.75 C 253.10 62.65 254.19 63.77 252.25 63.00 C 250.31 62.23 245.56 60.77 243.25 60.12 C 240.94 59.48 240.42 59.33 238.38 59.12 C 236.33 58.92 232.75 58.75 231.00 58.88 C 229.25 59.00 228.71 59.23 227.88 59.88 Z" id="s-4-f-2"/>
</g>
<g id="s-5" clip-path="url(#c-s-5)">
<use href="#s-5-f-0"/>
<path d="M 416.88 68.00 C 417.04 67.10 416.92 66.00 416.75 65.25 C 416.58 64.50 416.65 64.44 415.88 63.50 C 415.10 62.56 413.54 60.88 412.12 59.62 C 410.71 58.38 409.31 57.27 407.38 56.00 C 405.44 54.73 403.54 53.48 400.50 52.00 C 397.46 50.52 392.92 48.62 389.12 47.12 C 385.33 45.62 380.52 43.88 377.75 43.00 C 374.98 42.12 374.25 42.02 372.50 41.88 C 370.75 41.73 369.75 41.75 367.25 42.12 C 364.75 42.50 364.35 42.23 357.50 44.12 C 350.65 46.02 335.33 51.06 326.12 53.50 C 316.92 55.94 309.48 57.40 302.25 58.75 C 295.02 60.10 290.58 60.79 282.75 61.62 C 274.92 62.46 260.08 63.29 255.25 63.75 C 250.42 64.21 252.58 62.33 253.75 64.38 C 254.92 66.42 258.46 74.12 262.25 76.00 C 266.04 77.88 270.96 76.00 276.50 75.62 C 282.04 75.25 284.23 75.50 295.50 73.75 C 306.77 72.00 333.21 66.92 344.12 65.12 C 355.04 63.33 357.60 63.33 361.00 63.00 C 364.40 62.67 363.50 62.90 364.50 63.12 C 365.50 63.35 366.27 63.75 367.00 64.38 C 367.73 65.00 368.42 65.90 368.88 66.88 C 369.33 67.85 369.62 68.10 369.75 70.25 C 369.88 72.40 369.79 76.60 369.62 79.75 C 369.46 82.90 369.23 85.40 368.75 89.12 C 368.27 92.85 367.44 98.35 366.75 102.12 C 366.06 105.90 365.96 106.60 364.62 111.75 C 363.29 116.90 360.54 127.17 358.75 133.00 C 356.96 138.83 354.65 144.27 353.88 146.75 C 353.10 149.23 353.81 147.67 354.12 147.88 C 354.44 148.08 351.44 148.00 355.75 148.00 C 360.06 148.00 375.65 147.96 380.00 147.88 C 384.35 147.79 378.42 155.83 381.88 147.50 C 385.33 139.17 397.06 107.79 400.75 97.88 C 404.44 87.96 402.65 91.21 404.00 88.00 C 405.35 84.79 406.92 81.52 408.88 78.62 C 410.83 75.73 414.42 72.40 415.75 70.62 C 417.08 68.85 416.71 68.90 416.88 68.00 Z" id="s-5-f-1"/>
<path d="M 416.88 68.00 C 417.06 67.23 417.04 66.75 416.88 66.00 C 416.71 65.25 416.67 64.56 415.88 63.50 C 415.08 62.44 413.54 60.88 412.12 59.62 C 410.71 58.38 409.31 57.27 407.38 56.00 C 405.44 54.73 403.52 53.48 400.50 52.00 C 397.48 50.52 393.04 48.62 389.25 47.12 C 385.46 45.62 380.54 43.88 377.75 43.00 C 374.96 42.12 374.25 42.02 372.50 41.88 C 370.75 41.73 369.75 41.75 367.25 42.12 C 364.75 42.50 360.42 43.46 357.50 44.12 C 354.58 44.79 354.44 44.71 349.75 46.12 C 345.06 47.54 337.29 50.52 329.38 52.62 C 321.46 54.73 310.44 57.21 302.25 58.75 C 294.06 60.29 288.08 61.04 280.25 61.88 C 272.42 62.71 259.67 63.33 255.25 63.75 C 250.83 64.17 252.60 62.35 253.75 64.38 C 254.90 66.40 258.33 74.00 262.12 75.88 C 265.92 77.75 270.94 75.98 276.50 75.62 C 282.06 75.27 284.06 75.52 295.50 73.75 C 306.94 71.98 334.21 66.79 345.12 65.00 C 356.04 63.21 357.79 63.31 361.00 63.00 C 364.21 62.69 363.25 62.77 364.38 63.12 C 365.50 63.48 366.88 64.10 367.75 65.12 C 368.62 66.15 369.33 66.62 369.62 69.25 C 369.92 71.88 369.65 77.56 369.50 80.88 C 369.35 84.19 369.15 86.10 368.75 89.12 C 368.35 92.15 367.27 97.23 367.12 99.00 C 366.98 100.77 367.40 99.58 367.88 99.75 C 368.35 99.92 364.71 100.00 370.00 100.00 C 375.29 100.00 394.50 100.12 399.62 99.75 C 404.75 99.38 400.15 99.42 400.75 97.75 C 401.35 96.08 402.21 92.44 403.25 89.75 C 404.29 87.06 405.92 83.69 407.00 81.62 C 408.08 79.56 408.29 79.21 409.75 77.38 C 411.21 75.54 414.56 72.19 415.75 70.62 C 416.94 69.06 416.69 68.77 416.88 68.00 Z" id="s-5-f-2"/>
<path d="M 399.00 51.38 C 397.38 50.52 392.79 48.52 389.25 47.12 C 385.71 45.73 380.33 43.85 377.75 43.00 C 375.17 42.15 375.35 42.17 373.75 42.00 C 372.15 41.83 372.12 41.31 368.12 42.00 C 364.12 42.69 356.21 44.35 349.75 46.12 C 343.29 47.90 336.44 50.69 329.38 52.62 C 322.31 54.56 314.02 56.40 307.38 57.75 C 300.73 59.10 295.50 59.92 289.50 60.75 C 283.50 61.58 277.08 62.25 271.38 62.75 C 265.67 63.25 258.19 63.46 255.25 63.75 C 252.31 64.04 252.58 62.46 253.75 64.50 C 254.92 66.54 258.46 74.15 262.25 76.00 C 266.04 77.85 272.35 75.83 276.50 75.62 C 280.65 75.42 281.79 75.42 287.12 74.75 C 292.46 74.08 298.81 73.25 308.50 71.62 C 318.19 70.00 336.25 66.46 345.25 65.00 C 354.25 63.54 354.31 64.73 362.50 62.88 C 370.69 61.02 388.90 55.48 394.38 53.88 C 399.85 52.27 394.71 53.44 395.38 53.25 C 396.04 53.06 397.77 52.92 398.38 52.75 C 398.98 52.58 398.90 52.48 399.00 52.25 C 399.10 52.02 400.62 52.23 399.00 51.38 Z" id="s-5-f-3"/>
<path d="M 398.00 51.38 C 397.69 50.96 397.46 50.71 396.00 50.00 C 394.54 49.29 392.29 48.29 389.25 47.12 C 386.21 45.96 380.33 43.85 377.75 43.00 C 375.17 42.15 375.35 42.17 373.75 42.00 C 372.15 41.83 372.12 41.31 368.12 42.00 C 364.12 42.69 356.21 44.35 349.75 46.12 C 343.29 47.90 336.44 50.69 329.38 52.62 C 322.31 54.56 314.02 56.40 307.38 57.75 C 300.73 59.10 295.50 59.92 289.50 60.75 C 283.50 61.58 277.08 62.25 271.38 62.75 C 265.67 63.25 258.19 63.46 255.25 63.75 C 252.31 64.04 252.58 62.46 253.75 64.50 C 254.92 66.54 258.46 74.15 262.25 76.00 C 266.04 77.85 272.35 75.83 276.50 75.62 C 280.65 75.42 281.79 75.42 287.12 74.75 C 292.46 74.08 298.81 73.25 308.50 71.62 C 318.19 70.00 336.25 66.46 345.25 65.00 C 354.25 63.54 353.85 64.88 362.50 62.88 C 371.15 60.88 391.23 54.73 397.12 53.00 C 403.02 51.27 397.73 52.77 397.88 52.50 C 398.02 52.23 398.31 51.79 398.00 51.38 Z" id="s-5-f-4"/>
<path d="M 349.88 46.88 C 349.73 44.17 353.06 45.27 349.12 46.38 C 345.19 47.48 334.21 51.42 326.25 53.50 C 318.29 55.58 308.62 57.52 301.38 58.88 C 294.12 60.23 290.44 60.81 282.75 61.62 C 275.06 62.44 260.08 63.27 255.25 63.75 C 250.42 64.23 252.58 62.46 253.75 64.50 C 254.92 66.54 258.46 74.15 262.25 76.00 C 266.04 77.85 270.96 76.00 276.50 75.62 C 282.04 75.25 284.23 75.50 295.50 73.75 C 306.77 72.00 335.29 66.62 344.12 65.12 C 352.96 63.62 347.54 64.94 348.50 64.75 C 349.46 64.56 349.62 64.35 349.88 64.00 C 350.12 63.65 350.00 65.48 350.00 62.62 C 350.00 59.77 350.02 49.58 349.88 46.88 Z" id="s-5-f-5"/>
<path d="M 301.75 72.25 C 302.83 69.85 302.06 61.60 302.00 59.38 C 301.94 57.15 304.58 58.50 301.38 58.88 C 298.17 59.25 290.44 60.81 282.75 61.62 C 275.06 62.44 260.08 63.29 255.25 63.75 C 250.42 64.21 252.58 62.33 253.75 64.38 C 254.92 66.42 258.46 74.12 262.25 76.00 C 266.04 77.88 270.96 76.00 276.50 75.62 C 282.04 75.25 291.29 74.31 295.50 73.75 C 299.71 73.19 300.67 74.65 301.75 72.25 Z" id="s-5-f-6"/>
</g>
<g id="s-6" clip-path="url(#c-s-6)">
<use href="#s-6-f-0"/>
<path d="M 362.88 100.50 C 362.21 98.25 360.27 98.69 358.88 98.12 C 357.48 97.56 357.60 97.50 354.50 97.12 C 351.40 96.75 349.15 94.60 340.25 95.88 C 331.35 97.15 310.52 102.77 301.12 104.75 C 291.73 106.73 289.54 106.90 283.88 107.75 C 278.21 108.60 270.00 109.35 267.12 109.88 C 264.25 110.40 266.71 110.31 266.62 110.88 C 266.54 111.44 266.50 112.54 266.62 113.25 C 266.75 113.96 267.19 113.96 267.38 115.12 C 267.56 116.29 267.54 118.96 267.75 120.25 C 267.96 121.54 268.00 122.31 268.62 122.88 C 269.25 123.44 268.52 123.50 271.50 123.62 C 274.48 123.75 281.21 123.94 286.50 123.62 C 291.79 123.31 296.92 122.58 303.25 121.75 C 309.58 120.92 318.83 119.58 324.50 118.62 C 330.17 117.67 331.67 116.81 337.25 116.00 C 342.83 115.19 354.02 114.29 358.00 113.75 C 361.98 113.21 360.31 113.10 361.12 112.75 C 361.94 112.40 362.58 113.67 362.88 111.62 C 363.17 109.58 363.54 102.75 362.88 100.50 Z" id="s-6-f-1"/>
<path d="M 315.00 102.38 C 314.77 99.60 317.69 101.17 313.62 101.88 C 309.56 102.58 298.38 105.29 290.62 106.62 C 282.88 107.96 271.12 109.17 267.12 109.88 C 263.12 110.58 266.71 110.31 266.62 110.88 C 266.54 111.44 266.50 112.54 266.62 113.25 C 266.75 113.96 267.21 114.08 267.38 115.12 C 267.54 116.17 267.46 118.27 267.62 119.50 C 267.79 120.73 267.54 121.79 268.38 122.50 C 269.21 123.21 269.60 123.56 272.62 123.75 C 275.65 123.94 281.40 123.96 286.50 123.62 C 291.60 123.29 298.58 122.38 303.25 121.75 C 307.92 121.12 312.54 120.42 314.50 119.88 C 316.46 119.33 314.92 121.42 315.00 118.50 C 315.08 115.58 315.23 105.15 315.00 102.38 Z" id="s-6-f-2"/>
</g>
<g id="s-7" clip-path="url(#c-s-7)">
<use href="#s-7-f-0"/>
<path d="M 319.88 149.25 C 319.69 146.42 322.29 148.19 318.88 148.75 C 315.46 149.31 307.21 151.44 299.38 152.62 C 291.54 153.81 276.52 155.25 271.88 155.88 C 267.23 156.50 271.56 153.79 271.50 156.38 C 271.44 158.96 271.04 168.65 271.50 171.38 C 271.96 174.10 272.31 172.52 274.25 172.75 C 276.19 172.98 280.17 173.02 283.12 172.75 C 286.08 172.48 285.98 171.96 292.00 171.12 C 298.02 170.29 314.60 168.42 319.25 167.75 C 323.90 167.08 319.75 167.46 319.88 167.12 C 320.00 166.79 320.00 168.73 320.00 165.75 C 320.00 162.77 320.06 152.08 319.88 149.25 Z" id="s-7-f-1"/>
</g>
<g id="s-8" clip-path="url(#c-s-8)">
<use href="#s-8-f-0"/>
<path d="M 379.00 198.25 C 378.88 194.81 379.92 196.62 378.12 196.25 C 376.33 195.88 376.08 194.75 368.25 196.00 C 360.42 197.25 341.98 201.62 331.12 203.75 C 320.27 205.88 312.29 207.25 303.12 208.75 C 293.96 210.25 285.77 211.50 276.12 212.75 C 266.48 214.00 251.12 215.50 245.25 216.25 C 239.38 217.00 242.27 216.77 240.88 217.25 C 239.48 217.73 237.85 218.44 236.88 219.12 C 235.90 219.81 235.31 220.52 235.00 221.38 C 234.69 222.23 234.54 223.33 235.00 224.25 C 235.46 225.17 236.75 226.12 237.75 226.88 C 238.75 227.62 239.04 227.94 241.00 228.75 C 242.96 229.56 246.92 231.08 249.50 231.75 C 252.08 232.42 252.81 232.58 256.50 232.75 C 260.19 232.92 266.04 233.08 271.62 232.75 C 277.21 232.42 283.00 231.71 290.00 230.75 C 297.00 229.79 307.58 227.81 313.62 227.00 C 319.67 226.19 320.90 226.56 326.25 225.88 C 331.60 225.19 339.40 224.00 345.75 222.88 C 352.10 221.75 358.98 220.02 364.38 219.12 C 369.77 218.23 375.71 217.88 378.12 217.50 C 380.54 217.12 378.73 220.08 378.88 216.88 C 379.02 213.67 379.12 201.69 379.00 198.25 Z" id="s-8-f-1"/>
<path d="M 330.50 204.00 C 322.52 202.06 297.94 209.58 283.12 211.75 C 268.31 213.92 249.33 215.77 241.62 217.00 C 233.92 218.23 237.98 218.40 236.88 219.12 C 235.77 219.85 235.31 220.54 235.00 221.38 C 234.69 222.21 234.40 223.10 235.00 224.12 C 235.60 225.15 236.79 226.40 238.62 227.50 C 240.46 228.60 243.40 229.92 246.00 230.75 C 248.60 231.58 251.98 232.15 254.25 232.50 C 256.52 232.85 256.73 232.83 259.62 232.88 C 262.52 232.92 267.88 232.94 271.62 232.75 C 275.38 232.56 275.12 232.71 282.12 231.75 C 289.12 230.79 306.44 227.96 313.62 227.00 C 320.81 226.04 322.44 226.33 325.25 226.00 C 328.06 225.67 329.54 225.44 330.50 225.00 C 331.46 224.56 331.00 226.88 331.00 223.38 C 331.00 219.88 338.48 205.94 330.50 204.00 Z" id="s-8-f-2"/>
<path d="M 282.88 212.25 C 282.79 209.27 289.38 211.08 282.50 211.88 C 275.62 212.67 249.23 215.79 241.62 217.00 C 234.02 218.21 237.98 218.40 236.88 219.12 C 235.77 219.85 235.31 220.54 235.00 221.38 C 234.69 222.21 234.54 223.21 235.00 224.12 C 235.46 225.04 236.71 226.08 237.75 226.88 C 238.79 227.67 239.38 228.08 241.25 228.88 C 243.12 229.67 246.85 231.02 249.00 231.62 C 251.15 232.23 250.79 232.29 254.12 232.50 C 257.46 232.71 264.31 233.00 269.00 232.88 C 273.69 232.75 279.94 232.04 282.25 231.75 C 284.56 231.46 282.75 231.46 282.88 231.12 C 283.00 230.79 283.00 232.90 283.00 229.75 C 283.00 226.60 282.96 215.23 282.88 212.25 Z" id="s-8-f-3"/>
</g>
<g id="s-9" clip-path="url(#c-s-9)">
<use href="#s-9-f-0"/>
<path d="M 464.88 260.38 C 464.08 257.06 462.88 259.06 460.12 258.00 C 457.38 256.94 451.17 254.83 448.38 254.00 C 445.58 253.17 445.54 253.12 443.38 253.00 C 441.21 252.88 442.65 252.29 435.38 253.25 C 428.10 254.21 411.98 257.00 399.75 258.75 C 387.52 260.50 368.96 262.90 362.00 263.75 C 355.04 264.60 364.85 262.92 358.00 263.88 C 351.15 264.83 331.00 268.12 320.88 269.50 C 310.75 270.88 310.73 270.42 297.25 272.12 C 283.77 273.83 259.02 277.44 240.00 279.75 C 220.98 282.06 193.33 284.73 183.12 286.00 C 172.92 287.27 179.77 286.88 178.75 287.38 C 177.73 287.88 177.31 288.50 177.00 289.00 C 176.69 289.50 176.71 289.81 176.88 290.38 C 177.04 290.94 177.15 291.46 178.00 292.38 C 178.85 293.29 179.90 294.46 182.00 295.88 C 184.10 297.29 187.52 299.42 190.62 300.88 C 193.73 302.33 197.98 303.96 200.62 304.62 C 203.27 305.29 196.85 306.31 206.50 304.88 C 216.15 303.44 238.40 298.98 258.50 296.00 C 278.60 293.02 314.08 288.50 327.12 287.00 C 340.17 285.50 331.21 287.52 336.75 287.00 C 342.29 286.48 349.90 284.88 360.38 283.88 C 370.85 282.88 383.38 281.73 399.62 281.00 C 415.88 280.27 447.15 279.88 457.88 279.50 C 468.60 279.12 462.83 279.02 464.00 278.75 C 465.17 278.48 464.73 280.94 464.88 277.88 C 465.02 274.81 465.67 263.69 464.88 260.38 Z" id="s-9-f-1"/>
<path d="M 416.88 256.62 C 416.71 252.94 420.08 255.60 416.00 256.12 C 411.92 256.65 401.38 258.48 392.38 259.75 C 383.38 261.02 367.73 263.06 362.00 263.75 C 356.27 264.44 364.85 262.92 358.00 263.88 C 351.15 264.83 331.00 268.12 320.88 269.50 C 310.75 270.88 306.73 270.92 297.25 272.12 C 287.77 273.33 283.02 274.44 264.00 276.75 C 244.98 279.06 197.33 284.23 183.12 286.00 C 168.92 287.77 179.77 286.88 178.75 287.38 C 177.73 287.88 177.31 288.50 177.00 289.00 C 176.69 289.50 176.50 289.60 176.88 290.38 C 177.25 291.15 178.40 292.71 179.25 293.62 C 180.10 294.54 180.10 294.67 182.00 295.88 C 183.90 297.08 187.52 299.42 190.62 300.88 C 193.73 302.33 197.98 303.96 200.62 304.62 C 203.27 305.29 196.85 306.31 206.50 304.88 C 216.15 303.44 238.58 298.96 258.50 296.00 C 278.42 293.04 312.96 288.62 326.00 287.12 C 339.04 285.62 331.02 287.54 336.75 287.00 C 342.48 286.46 352.65 284.71 360.38 283.88 C 368.10 283.04 373.83 282.56 383.12 282.00 C 392.42 281.44 410.50 280.85 416.12 280.50 C 421.75 280.15 416.73 280.25 416.88 279.88 C 417.02 279.50 417.00 282.12 417.00 278.25 C 417.00 274.38 417.04 260.31 416.88 256.62 Z" id="s-9-f-2"/>
<path d="M 368.75 264.12 C 368.62 261.02 370.04 262.92 368.25 262.88 C 366.46 262.83 364.98 262.90 358.00 263.88 C 351.02 264.85 336.50 267.38 326.38 268.75 C 316.25 270.12 307.65 270.79 297.25 272.12 C 286.85 273.46 283.02 274.44 264.00 276.75 C 244.98 279.06 197.33 284.23 183.12 286.00 C 168.92 287.77 179.77 286.88 178.75 287.38 C 177.73 287.88 177.31 288.50 177.00 289.00 C 176.69 289.50 176.75 289.88 176.88 290.38 C 177.00 290.88 177.17 291.29 177.75 292.00 C 178.33 292.71 178.94 293.50 180.38 294.62 C 181.81 295.75 184.73 297.73 186.38 298.75 C 188.02 299.77 187.88 299.77 190.25 300.75 C 192.62 301.73 197.92 303.94 200.62 304.62 C 203.33 305.31 200.08 305.81 206.50 304.88 C 212.92 303.94 225.65 301.15 239.12 299.00 C 252.60 296.85 272.71 294.00 287.38 292.00 C 302.04 290.00 318.90 287.83 327.12 287.00 C 335.35 286.17 331.21 287.52 336.75 287.00 C 342.29 286.48 355.21 284.48 360.38 283.88 C 365.54 283.27 366.35 283.56 367.75 283.38 C 369.15 283.19 368.54 283.06 368.75 282.75 C 368.96 282.44 369.00 284.60 369.00 281.50 C 369.00 278.40 368.88 267.23 368.75 264.12 Z" id="s-9-f-3"/>
<path d="M 321.00 271.12 C 321.00 268.33 320.92 270.27 320.75 270.00 C 320.58 269.73 333.25 267.90 320.00 269.50 C 306.75 271.10 264.06 276.88 241.25 279.62 C 218.44 282.38 193.44 284.77 183.12 286.00 C 172.81 287.23 180.23 286.69 179.38 287.00 C 178.52 287.31 178.42 287.48 178.00 287.88 C 177.58 288.27 177.06 288.96 176.88 289.38 C 176.69 289.79 176.73 289.94 176.88 290.38 C 177.02 290.81 176.90 291.08 177.75 292.00 C 178.60 292.92 180.56 294.75 182.00 295.88 C 183.44 297.00 184.62 297.77 186.38 298.75 C 188.12 299.73 190.02 300.75 192.50 301.75 C 194.98 302.75 198.42 304.27 201.25 304.75 C 204.08 305.23 204.17 305.42 209.50 304.62 C 214.83 303.83 225.27 301.42 233.25 300.00 C 241.23 298.58 242.92 298.15 257.38 296.12 C 271.83 294.10 309.44 289.44 320.00 287.88 C 330.56 286.31 320.58 289.54 320.75 286.75 C 320.92 283.96 321.00 273.92 321.00 271.12 Z" id="s-9-f-4"/>
<path d="M 272.88 276.12 C 272.79 274.00 277.77 275.04 272.50 275.62 C 267.23 276.21 256.29 277.88 241.25 279.62 C 226.21 281.38 192.79 284.75 182.25 286.12 C 171.71 287.50 178.90 287.33 178.00 287.88 C 177.10 288.42 177.06 288.96 176.88 289.38 C 176.69 289.79 176.73 289.94 176.88 290.38 C 177.02 290.81 176.90 291.08 177.75 292.00 C 178.60 292.92 180.56 294.75 182.00 295.88 C 183.44 297.00 184.62 297.77 186.38 298.75 C 188.12 299.73 190.02 300.75 192.50 301.75 C 194.98 302.75 198.42 304.27 201.25 304.75 C 204.08 305.23 203.44 305.54 209.50 304.62 C 215.56 303.71 227.15 301.00 237.62 299.25 C 248.10 297.50 266.50 295.23 272.38 294.12 C 278.25 293.02 272.77 293.58 272.88 292.62 C 272.98 291.67 273.00 291.12 273.00 288.38 C 273.00 285.62 272.96 278.25 272.88 276.12 Z" id="s-9-f-5"/>
<path d="M 224.88 301.25 C 225.04 298.15 225.00 286.48 225.00 283.25 C 225.00 280.02 225.04 282.17 224.88 281.88 C 224.71 281.58 231.00 280.81 224.00 281.50 C 217.00 282.19 190.35 285.06 182.88 286.00 C 175.40 286.94 180.12 286.56 179.12 287.12 C 178.12 287.69 177.23 288.73 176.88 289.38 C 176.52 290.02 176.73 290.42 177.00 291.00 C 177.27 291.58 177.44 291.90 178.50 292.88 C 179.56 293.85 181.42 295.56 183.38 296.88 C 185.33 298.19 187.38 299.46 190.25 300.75 C 193.12 302.04 197.42 303.98 200.62 304.62 C 203.83 305.27 205.60 305.08 209.50 304.62 C 213.40 304.17 221.44 302.44 224.00 301.88 C 226.56 301.31 224.71 304.35 224.88 301.25 Z" id="s-9-f-6"/>
</g>
<g id="s-10" clip-path="url(#c-s-10)">
<use href="#s-10-f-0"/>
<path d="M 350.38 221.62 C 349.40 221.44 347.46 221.50 346.50 221.62 C 345.54 221.75 345.67 222.21 344.62 222.38 C 343.58 222.54 341.44 222.46 340.25 222.62 C 339.06 222.79 338.75 223.19 337.50 223.38 C 336.25 223.56 333.73 223.58 332.75 223.75 C 331.77 223.92 332.67 224.21 331.62 224.38 C 330.58 224.54 327.71 224.56 326.50 224.75 C 325.29 224.94 324.81 225.17 324.38 225.50 C 323.94 225.83 323.90 226.00 323.88 226.75 C 323.85 227.50 323.44 227.02 324.25 230.00 C 325.06 232.98 327.67 240.69 328.75 244.62 C 329.83 248.56 330.08 249.94 330.75 253.62 C 331.42 257.31 332.44 263.40 332.75 266.75 C 333.06 270.10 332.52 272.17 332.62 273.75 C 332.73 275.33 333.19 274.69 333.38 276.25 C 333.56 277.81 333.50 281.29 333.75 283.12 C 334.00 284.96 334.73 278.27 334.88 287.25 C 335.02 296.23 334.81 323.67 334.62 337.00 C 334.44 350.33 334.23 358.33 333.75 367.25 C 333.27 376.17 332.46 385.04 331.75 390.50 C 331.04 395.96 330.17 397.88 329.50 400.00 C 328.83 402.12 328.29 402.46 327.75 403.25 C 327.21 404.04 326.88 404.33 326.25 404.75 C 325.62 405.17 324.88 405.58 324.00 405.75 C 323.12 405.92 323.62 406.08 321.00 405.75 C 318.38 405.42 313.90 404.85 308.25 403.75 C 302.60 402.65 291.15 399.90 287.12 399.12 C 283.10 398.35 284.69 399.00 284.12 399.12 C 283.56 399.25 283.75 398.50 283.75 399.88 C 283.75 401.25 283.38 405.62 284.12 407.38 C 284.88 409.12 284.67 406.88 288.25 410.38 C 291.83 413.88 301.23 423.54 305.62 428.38 C 310.02 433.21 311.92 435.71 314.62 439.38 C 317.33 443.04 319.71 447.67 321.88 450.38 C 324.04 453.08 326.29 454.58 327.62 455.62 C 328.96 456.67 329.17 456.42 329.88 456.62 C 330.58 456.83 330.92 456.88 331.88 456.88 C 332.83 456.88 334.54 456.83 335.62 456.62 C 336.71 456.42 337.31 456.17 338.38 455.62 C 339.44 455.08 340.27 454.75 342.00 453.38 C 343.73 452.00 346.31 449.96 348.75 447.38 C 351.19 444.79 354.81 440.73 356.62 437.88 C 358.44 435.02 358.94 432.27 359.62 430.25 C 360.31 428.23 360.23 428.48 360.75 425.75 C 361.27 423.02 362.27 417.48 362.75 413.88 C 363.23 410.27 363.46 412.04 363.62 404.12 C 363.79 396.21 363.90 375.94 363.75 366.38 C 363.60 356.81 363.21 353.29 362.75 346.75 C 362.29 340.21 361.48 337.54 361.00 327.12 C 360.52 316.71 359.98 291.54 359.88 284.25 C 359.77 276.96 360.17 284.77 360.38 283.38 C 360.58 281.98 360.98 280.46 361.12 275.88 C 361.27 271.29 360.81 261.58 361.25 255.88 C 361.69 250.17 363.31 245.17 363.75 241.62 C 364.19 238.08 364.04 236.58 363.88 234.62 C 363.71 232.67 363.40 231.27 362.75 229.88 C 362.10 228.48 361.02 227.23 360.00 226.25 C 358.98 225.27 357.90 224.58 356.62 224.00 C 355.35 223.42 353.42 223.15 352.38 222.75 C 351.33 222.35 351.35 221.81 350.38 221.62 Z" id="s-10-f-1"/>
<path d="M 350.50 221.62 C 349.50 221.44 347.48 221.50 346.50 221.62 C 345.52 221.75 345.67 222.21 344.62 222.38 C 343.58 222.54 341.44 222.46 340.25 222.62 C 339.06 222.79 338.75 223.19 337.50 223.38 C 336.25 223.56 333.73 223.58 332.75 223.75 C 331.77 223.92 332.67 224.21 331.62 224.38 C 330.58 224.54 327.71 224.56 326.50 224.75 C 325.29 224.94 324.81 225.19 324.38 225.50 C 323.94 225.81 323.90 225.85 323.88 226.62 C 323.85 227.40 323.60 227.73 324.25 230.12 C 324.90 232.52 326.67 237.08 327.75 241.00 C 328.83 244.92 329.92 249.33 330.75 253.62 C 331.58 257.92 332.44 263.40 332.75 266.75 C 333.06 270.10 332.52 272.17 332.62 273.75 C 332.73 275.33 333.17 274.54 333.38 276.25 C 333.58 277.96 333.62 282.17 333.88 284.00 C 334.12 285.83 334.73 280.54 334.88 287.25 C 335.02 293.96 334.92 311.46 334.75 324.25 C 334.58 337.04 334.21 354.33 333.88 364.00 C 333.54 373.67 333.10 377.83 332.75 382.25 C 332.40 386.67 332.38 386.90 331.75 390.50 C 331.12 394.10 330.65 394.42 329.00 403.88 C 327.35 413.33 323.06 439.56 321.88 447.25 C 320.69 454.94 321.12 448.75 321.88 450.00 C 322.62 451.25 325.02 453.65 326.38 454.75 C 327.73 455.85 328.52 456.29 330.00 456.62 C 331.48 456.96 333.85 456.92 335.25 456.75 C 336.65 456.58 337.25 456.19 338.38 455.62 C 339.50 455.06 340.54 454.48 342.00 453.38 C 343.46 452.27 344.81 451.38 347.12 449.00 C 349.44 446.62 354.10 441.35 355.88 439.12 C 357.65 436.90 356.94 437.83 357.75 435.62 C 358.56 433.42 359.92 429.50 360.75 425.88 C 361.58 422.25 362.23 418.96 362.75 413.88 C 363.27 408.79 363.71 403.38 363.88 395.38 C 364.04 387.38 363.94 373.94 363.75 365.88 C 363.56 357.81 363.21 353.44 362.75 347.00 C 362.29 340.56 361.48 337.71 361.00 327.25 C 360.52 316.79 359.98 291.56 359.88 284.25 C 359.77 276.94 360.17 284.77 360.38 283.38 C 360.58 281.98 361.02 279.92 361.12 275.88 C 361.23 271.83 360.88 263.27 361.00 259.12 C 361.12 254.98 361.58 252.81 361.88 251.00 C 362.17 249.19 362.44 249.83 362.75 248.25 C 363.06 246.67 363.58 244.00 363.75 241.50 C 363.92 239.00 363.92 235.19 363.75 233.25 C 363.58 231.31 363.38 231.04 362.75 229.88 C 362.12 228.71 361.02 227.23 360.00 226.25 C 358.98 225.27 357.88 224.58 356.62 224.00 C 355.38 223.42 353.52 223.15 352.50 222.75 C 351.48 222.35 351.50 221.81 350.50 221.62 Z" id="s-10-f-2"/>
<path d="M 350.50 221.62 C 349.50 221.44 347.48 221.50 346.50 221.62 C 345.52 221.75 345.67 222.21 344.62 222.38 C 343.58 222.54 341.44 222.46 340.25 222.62 C 339.06 222.79 338.75 223.19 337.50 223.38 C 336.25 223.56 333.73 223.58 332.75 223.75 C 331.77 223.92 332.67 224.21 331.62 224.38 C 330.58 224.54 327.71 224.56 326.50 224.75 C 325.29 224.94 324.81 225.27 324.38 225.50 C 323.94 225.73 323.92 225.46 323.88 226.12 C 323.83 226.79 323.31 226.42 324.12 229.50 C 324.94 232.58 327.65 240.60 328.75 244.62 C 329.85 248.65 330.08 249.94 330.75 253.62 C 331.42 257.31 332.44 263.40 332.75 266.75 C 333.06 270.10 332.52 272.17 332.62 273.75 C 332.73 275.33 333.19 274.69 333.38 276.25 C 333.56 277.81 333.50 281.29 333.75 283.12 C 334.00 284.96 334.73 278.27 334.88 287.25 C 335.02 296.23 334.81 323.67 334.62 337.00 C 334.44 350.33 334.06 359.71 333.75 367.25 C 333.44 374.79 333.08 378.38 332.75 382.25 C 332.42 386.12 332.56 385.77 331.75 390.50 C 330.94 395.23 328.54 406.77 327.88 410.62 C 327.21 414.48 327.71 413.08 327.75 413.62 C 327.79 414.17 322.75 413.81 328.12 413.88 C 333.50 413.94 354.27 414.02 360.00 414.00 C 365.73 413.98 362.02 414.08 362.50 413.75 C 362.98 413.42 362.65 414.94 362.88 412.00 C 363.10 409.06 363.73 403.69 363.88 396.12 C 364.02 388.56 363.94 374.81 363.75 366.62 C 363.56 358.44 363.21 353.58 362.75 347.00 C 362.29 340.42 361.48 337.58 361.00 327.12 C 360.52 316.67 359.98 291.54 359.88 284.25 C 359.77 276.96 360.17 284.77 360.38 283.38 C 360.58 281.98 361.02 279.92 361.12 275.88 C 361.23 271.83 360.88 263.27 361.00 259.12 C 361.12 254.98 361.58 252.81 361.88 251.00 C 362.17 249.19 362.44 249.81 362.75 248.25 C 363.06 246.69 363.58 244.12 363.75 241.62 C 363.92 239.12 363.92 235.21 363.75 233.25 C 363.58 231.29 363.38 231.04 362.75 229.88 C 362.12 228.71 361.02 227.23 360.00 226.25 C 358.98 225.27 357.88 224.58 356.62 224.00 C 355.38 223.42 353.52 223.15 352.50 222.75 C 351.48 222.35 351.50 221.81 350.50 221.62 Z" id="s-10-f-3"/>
<path d="M 326.50 224.75 C 325.23 224.98 324.42 225.06 324.00 225.75 C 323.58 226.44 323.21 225.73 324.00 228.88 C 324.79 232.02 327.62 240.50 328.75 244.62 C 329.88 248.75 330.08 249.94 330.75 253.62 C 331.42 257.31 332.44 263.40 332.75 266.75 C 333.06 270.10 332.52 272.17 332.62 273.75 C 332.73 275.33 333.19 274.69 333.38 276.25 C 333.56 277.81 333.50 281.29 333.75 283.12 C 334.00 284.96 334.73 278.27 334.88 287.25 C 335.02 296.23 334.79 323.98 334.62 337.00 C 334.46 350.02 333.94 360.54 333.88 365.38 C 333.81 370.21 329.38 365.92 334.25 366.00 C 339.12 366.08 358.23 365.98 363.12 365.88 C 368.02 365.77 363.98 371.83 363.62 365.38 C 363.27 358.92 361.62 340.65 361.00 327.12 C 360.38 313.60 359.98 291.54 359.88 284.25 C 359.77 276.96 360.17 284.77 360.38 283.38 C 360.58 281.98 360.98 280.46 361.12 275.88 C 361.27 271.29 360.81 261.60 361.25 255.88 C 361.69 250.15 363.35 245.40 363.75 241.50 C 364.15 237.60 363.94 234.69 363.62 232.50 C 363.31 230.31 362.62 229.54 361.88 228.38 C 361.12 227.21 360.00 226.23 359.12 225.50 C 358.25 224.77 357.73 224.46 356.62 224.00 C 355.52 223.54 353.52 223.15 352.50 222.75 C 351.48 222.35 351.50 221.81 350.50 221.62 C 349.50 221.44 347.48 221.50 346.50 221.62 C 345.52 221.75 345.67 222.21 344.62 222.38 C 343.58 222.54 341.44 222.46 340.25 222.62 C 339.06 222.79 338.75 223.19 337.50 223.38 C 336.25 223.56 333.73 223.58 332.75 223.75 C 331.77 223.92 332.67 224.21 331.62 224.38 C 330.58 224.54 327.77 224.52 326.50 224.75 Z" id="s-10-f-4"/>
<path d="M 325.62 225.00 C 324.38 225.23 324.40 225.10 324.12 225.75 C 323.85 226.40 323.23 225.73 324.00 228.88 C 324.77 232.02 327.62 240.50 328.75 244.62 C 329.88 248.75 330.08 249.94 330.75 253.62 C 331.42 257.31 332.44 263.40 332.75 266.75 C 333.06 270.10 332.52 272.17 332.62 273.75 C 332.73 275.33 333.19 274.69 333.38 276.25 C 333.56 277.81 333.50 281.29 333.75 283.12 C 334.00 284.96 334.67 281.52 334.88 287.25 C 335.08 292.98 334.69 312.38 335.00 317.50 C 335.31 322.62 332.54 317.94 336.75 318.00 C 340.96 318.06 356.25 318.10 360.25 317.88 C 364.25 317.65 360.81 322.23 360.75 316.62 C 360.69 311.02 359.94 289.79 359.88 284.25 C 359.81 278.71 360.17 284.77 360.38 283.38 C 360.58 281.98 361.02 279.88 361.12 275.88 C 361.23 271.88 360.54 265.48 361.00 259.38 C 361.46 253.27 363.42 243.60 363.88 239.25 C 364.33 234.90 363.94 234.81 363.75 233.25 C 363.56 231.69 363.27 230.94 362.75 229.88 C 362.23 228.81 361.33 227.69 360.62 226.88 C 359.92 226.06 360.19 225.88 358.50 225.00 C 356.81 224.12 352.50 222.19 350.50 221.62 C 348.50 221.06 347.48 221.50 346.50 221.62 C 345.52 221.75 345.67 222.21 344.62 222.38 C 343.58 222.54 341.44 222.46 340.25 222.62 C 339.06 222.79 338.75 223.19 337.50 223.38 C 336.25 223.56 333.73 223.58 332.75 223.75 C 331.77 223.92 332.81 224.17 331.62 224.38 C 330.44 224.58 326.88 224.77 325.62 225.00 Z" id="s-10-f-5"/>
<path d="M 324.38 225.50 C 323.81 225.85 323.92 226.08 323.88 226.75 C 323.83 227.42 323.50 227.21 324.12 229.50 C 324.75 231.79 326.52 236.48 327.62 240.50 C 328.73 244.52 329.90 249.25 330.75 253.62 C 331.60 258.00 332.44 264.10 332.75 266.75 C 333.06 269.40 331.27 268.94 332.62 269.50 C 333.98 270.06 336.27 270.00 340.88 270.12 C 345.48 270.25 356.94 270.29 360.25 270.25 C 363.56 270.21 360.58 270.48 360.75 269.88 C 360.92 269.27 361.17 268.94 361.25 266.62 C 361.33 264.31 360.81 260.56 361.25 256.00 C 361.69 251.44 363.48 243.17 363.88 239.25 C 364.27 235.33 363.96 234.31 363.62 232.50 C 363.29 230.69 362.73 229.62 361.88 228.38 C 361.02 227.12 360.40 226.12 358.50 225.00 C 356.60 223.88 352.50 222.19 350.50 221.62 C 348.50 221.06 347.48 221.50 346.50 221.62 C 345.52 221.75 346.79 222.04 344.62 222.38 C 342.46 222.71 335.67 223.29 333.50 223.62 C 331.33 223.96 332.67 224.21 331.62 224.38 C 330.58 224.54 328.46 224.44 327.25 224.62 C 326.04 224.81 324.94 225.15 324.38 225.50 Z" id="s-10-f-6"/>
</g>
<g id="s-11" clip-path="url(#c-s-11)">
<use href="#s-11-f-0"/>
<path d="M 234.50 315.75 C 233.98 316.21 233.38 316.90 233.12 317.62 C 232.88 318.35 232.38 319.00 233.00 320.12 C 233.62 321.25 235.06 321.85 236.88 324.38 C 238.69 326.90 241.35 331.58 243.88 335.25 C 246.40 338.92 249.46 343.15 252.00 346.38 C 254.54 349.60 256.98 352.38 259.12 354.62 C 261.27 356.88 262.83 358.38 264.88 359.88 C 266.92 361.38 269.27 362.98 271.38 363.62 C 273.48 364.27 275.98 363.90 277.50 363.75 C 279.02 363.60 279.92 363.35 280.50 362.75 C 281.08 362.15 280.94 365.54 281.00 360.12 C 281.06 354.71 281.00 335.44 280.88 330.25 C 280.75 325.06 281.33 329.85 280.25 329.00 C 279.17 328.15 276.38 326.23 274.38 325.12 C 272.38 324.02 270.44 323.23 268.25 322.38 C 266.06 321.52 265.58 321.21 261.25 320.00 C 256.92 318.79 246.42 315.98 242.25 315.12 C 238.08 314.27 237.54 314.77 236.25 314.88 C 234.96 314.98 235.02 315.29 234.50 315.75 Z" id="s-11-f-1"/>
</g>
</svg>