<?xml version="1.0" encoding="UTF-8"?>
<svg xmlns="http://www.w3.org/2000/svg" viewBox="0 0 500 500">
<defs>
<path d="M 38.38 120.88 C 36.62 120.88 37.31 120.83 36.62 121.12 C 35.94 121.42 34.85 122.06 34.25 122.62 C 33.65 123.19 33.23 123.69 33.00 124.50 C 32.77 125.31 32.69 126.40 32.88 127.50 C 33.06 128.60 33.31 129.40 34.12 131.12 C 34.94 132.85 36.81 135.75 37.75 137.88 C 38.69 140.00 39.08 141.42 39.75 143.88 C 40.42 146.33 41.23 149.85 41.75 152.62 C 42.27 155.40 42.54 156.98 42.88 160.50 C 43.21 164.02 43.60 164.21 43.75 173.75 C 43.90 183.29 43.90 202.83 43.75 217.75 C 43.60 232.67 43.19 251.94 42.88 263.25 C 42.56 274.56 42.40 276.90 41.88 285.62 C 41.35 294.35 40.42 307.44 39.75 315.62 C 39.08 323.81 38.31 331.25 37.88 334.75 C 37.44 338.25 37.44 335.25 37.12 336.62 C 36.81 338.00 36.19 340.25 36.00 343.00 C 35.81 345.75 35.81 350.50 36.00 353.12 C 36.19 355.75 36.46 356.44 37.12 358.75 C 37.79 361.06 38.54 363.88 40.00 367.00 C 41.46 370.12 44.33 375.06 45.88 377.50 C 47.42 379.94 48.27 380.58 49.25 381.62 C 50.23 382.67 50.98 383.23 51.75 383.75 C 52.52 384.27 53.12 384.56 53.88 384.75 C 54.62 384.94 55.67 384.98 56.25 384.88 C 56.83 384.77 56.96 384.60 57.38 384.12 C 57.79 383.65 58.21 383.48 58.75 382.00 C 59.29 380.52 59.94 378.96 60.62 375.25 C 61.31 371.54 62.35 364.73 62.88 359.75 C 63.40 354.77 63.29 357.98 63.75 345.38 C 64.21 332.77 65.25 303.25 65.62 284.12 C 66.00 265.00 65.65 251.25 66.00 230.62 C 66.35 210.00 67.44 175.88 67.75 160.38 C 68.06 144.88 69.02 143.38 67.88 137.62 C 66.73 131.88 62.33 128.08 60.88 125.88 C 59.42 123.67 60.48 125.00 59.12 124.38 C 57.77 123.75 54.75 122.67 52.75 122.12 C 50.75 121.58 49.52 121.33 47.12 121.12 C 44.73 120.92 40.12 120.88 38.38 120.88 Z" id="s-0-f-0"/>
<clipPath id="c-s-0"><use href="#s-0-f-0"/></clipPath>
<path d="M 117.38 107.00 C 115.94 107.33 114.25 107.90 111.75 109.00 C 109.25 110.10 106.00 112.17 102.38 113.62 C 98.75 115.08 95.23 116.23 90.00 117.75 C 84.77 119.27 75.73 121.65 71.00 122.75 C 66.27 123.85 63.52 123.94 61.62 124.38 C 59.73 124.81 58.77 123.23 59.62 125.38 C 60.48 127.52 65.40 135.17 66.75 137.25 C 68.10 139.33 67.25 137.79 67.75 137.88 C 68.25 137.96 67.67 138.40 69.75 137.75 C 71.83 137.10 77.42 134.92 80.25 134.00 C 83.08 133.08 84.25 132.75 86.75 132.25 C 89.25 131.75 92.81 131.21 95.25 131.00 C 97.69 130.79 98.79 130.85 101.38 131.00 C 103.96 131.15 108.67 131.56 110.75 131.88 C 112.83 132.19 112.90 132.29 113.88 132.88 C 114.85 133.46 115.96 134.52 116.62 135.38 C 117.29 136.23 117.52 136.85 117.88 138.00 C 118.23 139.15 118.50 137.67 118.75 142.25 C 119.00 146.83 119.19 151.90 119.38 165.50 C 119.56 179.10 119.81 204.04 119.88 223.88 C 119.94 243.71 119.94 267.60 119.75 284.50 C 119.56 301.40 119.08 315.98 118.75 325.25 C 118.42 334.52 118.08 336.62 117.75 340.12 C 117.42 343.62 117.08 344.75 116.75 346.25 C 116.42 347.75 116.04 348.52 115.75 349.12 C 115.46 349.73 115.98 347.94 115.00 349.88 C 114.02 351.81 111.06 358.02 109.88 360.75 C 108.69 363.48 106.19 361.25 107.88 366.25 C 109.56 371.25 117.56 386.21 120.00 390.75 C 122.44 395.29 121.54 393.00 122.50 393.50 C 123.46 394.00 124.81 393.88 125.75 393.75 C 126.69 393.62 127.08 393.42 128.12 392.75 C 129.17 392.08 130.08 391.71 132.00 389.75 C 133.92 387.79 137.50 384.21 139.62 381.00 C 141.75 377.79 143.56 373.42 144.75 370.50 C 145.94 367.58 146.25 365.79 146.75 363.50 C 147.25 361.21 147.58 359.65 147.75 356.75 C 147.92 353.85 148.54 359.12 147.75 346.12 C 146.96 333.12 143.94 293.21 143.00 278.75 C 142.06 264.29 142.29 265.77 142.12 259.38 C 141.96 252.98 141.85 253.08 142.00 240.38 C 142.15 227.67 142.67 197.06 143.00 183.12 C 143.33 169.19 143.67 162.85 144.00 156.75 C 144.33 150.65 144.21 149.77 145.00 146.50 C 145.79 143.23 147.96 139.31 148.75 137.12 C 149.54 134.94 149.56 134.60 149.75 133.38 C 149.94 132.15 149.92 130.65 149.88 129.75 C 149.83 128.85 149.85 128.79 149.50 128.00 C 149.15 127.21 148.52 126.04 147.75 125.00 C 146.98 123.96 146.02 122.83 144.88 121.75 C 143.73 120.67 144.52 120.79 140.88 118.50 C 137.23 116.21 126.42 109.92 123.00 108.00 C 119.58 106.08 121.31 107.17 120.38 107.00 C 119.44 106.83 118.81 106.67 117.38 107.00 Z" id="s-1-f-0"/>
<clipPath id="c-s-1"><use href="#s-1-f-0"/></clipPath>
<path d="M 120.00 229.25 C 117.35 226.50 107.62 226.56 104.38 226.00 C 101.12 225.44 104.12 224.75 100.50 225.88 C 96.88 227.00 88.42 230.92 82.62 232.75 C 76.83 234.58 68.60 233.77 65.75 236.88 C 62.90 239.98 65.48 248.88 65.50 251.38 C 65.52 253.88 63.90 251.85 65.88 251.88 C 67.85 251.90 68.65 252.85 77.38 251.50 C 86.10 250.15 111.10 245.25 118.25 243.75 C 125.40 242.25 119.96 244.92 120.25 242.50 C 120.54 240.08 122.65 232.00 120.00 229.25 Z" id="s-2-f-0"/>
<clipPath id="c-s-2"><use href="#s-2-f-0"/></clipPath>
<path d="M 116.00 349.00 C 115.12 348.67 112.79 348.02 110.88 347.88 C 108.96 347.73 109.44 347.15 104.50 348.12 C 99.56 349.10 88.21 352.29 81.25 353.75 C 74.29 355.21 66.02 355.71 62.75 356.88 C 59.48 358.04 62.00 358.17 61.62 360.75 C 61.25 363.33 60.35 370.38 60.50 372.38 C 60.65 374.38 59.67 373.15 62.50 372.75 C 65.33 372.35 70.58 371.12 77.50 370.00 C 84.42 368.88 98.88 366.71 104.00 366.00 C 109.12 365.29 107.40 365.96 108.25 365.75 C 109.10 365.54 108.60 365.85 109.12 364.75 C 109.65 363.65 110.88 360.19 111.38 359.12 C 111.88 358.06 111.62 359.44 112.12 358.38 C 112.62 357.31 113.71 354.17 114.38 352.75 C 115.04 351.33 115.85 350.50 116.12 349.88 C 116.40 349.25 116.88 349.33 116.00 349.00 Z" id="s-3-f-0"/>
<clipPath id="c-s-3"><use href="#s-3-f-0"/></clipPath>
<path d="M 438.88 123.88 C 438.73 122.88 438.38 121.73 437.88 120.75 C 437.38 119.77 436.94 119.12 435.88 118.00 C 434.81 116.88 434.12 115.83 431.50 114.00 C 428.88 112.17 423.42 108.83 420.12 107.00 C 416.83 105.17 414.02 103.98 411.75 103.00 C 409.48 102.02 407.90 101.48 406.50 101.12 C 405.10 100.77 405.92 100.54 403.38 100.88 C 400.83 101.21 396.71 101.96 391.25 103.12 C 385.79 104.29 377.00 106.92 370.62 107.88 C 364.25 108.83 360.38 108.04 353.00 108.88 C 345.62 109.71 331.48 112.19 326.38 112.88 C 321.27 113.56 323.50 112.85 322.38 113.00 C 321.25 113.15 323.50 113.25 319.62 113.75 C 315.75 114.25 306.42 115.00 299.12 116.00 C 291.83 117.00 280.40 119.10 275.88 119.75 C 271.35 120.40 275.25 119.50 272.00 119.88 C 268.75 120.25 263.10 120.85 256.38 122.00 C 249.65 123.15 240.02 125.29 231.62 126.75 C 223.23 128.21 213.44 129.79 206.00 130.75 C 198.56 131.71 192.40 132.12 187.00 132.50 C 181.60 132.88 176.23 132.77 173.62 133.00 C 171.02 133.23 172.00 133.50 171.38 133.88 C 170.75 134.25 170.27 134.75 169.88 135.25 C 169.48 135.75 169.17 136.17 169.00 136.88 C 168.83 137.58 168.29 138.40 168.88 139.50 C 169.46 140.60 169.56 141.29 172.50 143.50 C 175.44 145.71 182.83 150.56 186.50 152.75 C 190.17 154.94 192.67 155.81 194.50 156.62 C 196.33 157.44 196.35 157.42 197.50 157.62 C 198.65 157.83 200.06 158.02 201.38 157.88 C 202.69 157.73 202.46 157.85 205.38 156.75 C 208.29 155.65 212.23 153.38 218.88 151.25 C 225.52 149.12 232.85 146.71 245.25 144.00 C 257.65 141.29 280.02 137.17 293.25 135.00 C 306.48 132.83 318.33 131.69 324.62 131.00 C 330.92 130.31 326.40 131.23 331.00 130.88 C 335.60 130.52 342.94 129.17 352.25 128.88 C 361.56 128.58 376.17 128.81 386.88 129.12 C 397.58 129.44 408.79 130.48 416.50 130.75 C 424.21 131.02 429.88 130.92 433.12 130.75 C 436.38 130.58 435.25 130.12 436.00 129.75 C 436.75 129.38 437.17 129.00 437.62 128.50 C 438.08 128.00 438.54 127.52 438.75 126.75 C 438.96 125.98 439.02 124.88 438.88 123.88 Z" id="s-4-f-0"/>
<clipPath id="c-s-4"><use href="#s-4-f-0"/></clipPath>
<path d="M 237.50 60.00 C 235.94 60.19 236.02 60.69 235.50 61.12 C 234.98 61.56 234.65 62.08 234.38 62.62 C 234.10 63.17 233.94 63.67 233.88 64.38 C 233.81 65.08 233.35 65.73 234.00 66.88 C 234.65 68.02 236.46 69.42 237.75 71.25 C 239.04 73.08 240.58 75.75 241.75 77.88 C 242.92 80.00 243.75 81.54 244.75 84.00 C 245.75 86.46 246.90 89.62 247.75 92.62 C 248.60 95.62 249.04 97.15 249.88 102.00 C 250.71 106.85 252.29 117.29 252.75 121.75 C 253.21 126.21 252.50 126.98 252.62 128.75 C 252.75 130.52 253.31 130.62 253.50 132.38 C 253.69 134.12 253.38 137.31 253.75 139.25 C 254.12 141.19 254.71 136.69 255.75 144.00 C 256.79 151.31 258.96 174.50 260.00 183.12 C 261.04 191.75 261.31 192.62 262.00 195.75 C 262.69 198.88 263.19 199.83 264.12 201.88 C 265.06 203.92 266.48 206.54 267.62 208.00 C 268.77 209.46 269.90 210.17 271.00 210.62 C 272.10 211.08 273.27 211.15 274.25 210.75 C 275.23 210.35 276.12 209.29 276.88 208.25 C 277.62 207.21 278.06 207.85 278.75 204.50 C 279.44 201.15 280.85 194.35 281.00 188.12 C 281.15 181.90 280.29 175.23 279.62 167.12 C 278.96 159.02 277.42 145.31 277.00 139.50 C 276.58 133.69 277.23 133.81 277.12 132.25 C 277.02 130.69 276.54 131.62 276.38 130.12 C 276.21 128.62 276.38 125.06 276.12 123.25 C 275.88 121.44 275.29 121.88 274.88 119.25 C 274.46 116.62 274.10 110.90 273.62 107.50 C 273.15 104.10 272.48 104.52 272.00 98.88 C 271.52 93.23 271.12 78.21 270.75 73.62 C 270.38 69.04 270.44 72.29 269.75 71.38 C 269.06 70.46 267.65 69.02 266.62 68.12 C 265.60 67.23 264.73 66.65 263.62 66.00 C 262.52 65.35 262.12 65.08 260.00 64.25 C 257.88 63.42 253.40 61.71 250.88 61.00 C 248.35 60.29 247.10 60.17 244.88 60.00 C 242.65 59.83 239.06 59.81 237.50 60.00 Z" id="s-5-f-0"/>
<clipPath id="c-s-5"><use href="#s-5-f-0"/></clipPath>
<path d="M 329.62 43.00 C 328.04 43.17 327.81 43.58 327.12 44.00 C 326.44 44.42 326.00 44.88 325.50 45.50 C 325.00 46.12 324.38 46.71 324.12 47.75 C 323.88 48.79 323.73 50.44 324.00 51.75 C 324.27 53.06 325.12 53.69 325.75 55.62 C 326.38 57.56 327.25 60.62 327.75 63.38 C 328.25 66.12 328.58 69.42 328.75 72.12 C 328.92 74.83 329.06 72.94 328.75 79.62 C 328.44 86.31 327.40 105.54 326.88 112.25 C 326.35 118.96 325.81 116.56 325.62 119.88 C 325.44 123.19 326.19 126.25 325.75 132.12 C 325.31 138.00 323.79 147.54 323.00 155.12 C 322.21 162.71 321.02 173.67 321.00 177.62 C 320.98 181.58 319.48 177.65 322.88 178.88 C 326.27 180.10 338.08 184.48 341.38 185.00 C 344.67 185.52 341.02 190.56 342.62 182.00 C 344.23 173.44 349.40 142.62 351.00 133.62 C 352.60 124.62 351.90 129.04 352.25 128.00 C 352.60 126.96 352.94 128.15 353.12 127.38 C 353.31 126.60 353.21 124.27 353.38 123.38 C 353.54 122.48 353.79 123.67 354.12 122.00 C 354.46 120.33 355.04 115.02 355.38 113.38 C 355.71 111.73 356.02 113.04 356.12 112.12 C 356.23 111.21 355.48 111.54 356.00 107.88 C 356.52 104.21 358.21 94.83 359.25 90.12 C 360.29 85.42 361.29 82.40 362.25 79.62 C 363.21 76.85 363.94 75.48 365.00 73.50 C 366.06 71.52 367.98 69.15 368.62 67.75 C 369.27 66.35 368.88 65.81 368.88 65.12 C 368.88 64.44 368.94 64.38 368.62 63.62 C 368.31 62.88 368.42 62.25 367.00 60.62 C 365.58 59.00 362.10 55.60 360.12 53.88 C 358.15 52.15 357.02 51.40 355.12 50.25 C 353.23 49.10 351.06 48.02 348.75 47.00 C 346.44 45.98 343.27 44.79 341.25 44.12 C 339.23 43.46 338.56 43.19 336.62 43.00 C 334.69 42.81 331.21 42.83 329.62 43.00 Z" id="s-6-f-0"/>
<clipPath id="c-s-6"><use href="#s-6-f-0"/></clipPath>
<path d="M 346.75 189.38 C 346.38 188.40 345.40 187.58 344.38 186.62 C 343.35 185.67 341.62 184.17 340.62 183.62 C 339.62 183.08 338.92 183.54 338.38 183.38 C 337.83 183.21 337.88 182.79 337.38 182.62 C 336.88 182.46 335.88 182.54 335.38 182.38 C 334.88 182.21 334.88 181.79 334.38 181.62 C 333.88 181.46 332.88 181.54 332.38 181.38 C 331.88 181.21 331.88 180.79 331.38 180.62 C 330.88 180.46 329.88 180.54 329.38 180.38 C 328.88 180.21 328.88 179.79 328.38 179.62 C 327.88 179.46 326.88 179.54 326.38 179.38 C 325.88 179.21 325.88 178.79 325.38 178.62 C 324.88 178.46 323.90 178.56 323.38 178.38 C 322.85 178.19 322.60 177.67 322.25 177.50 C 321.90 177.33 322.00 177.17 321.25 177.38 C 320.50 177.58 321.46 177.69 317.75 178.75 C 314.04 179.81 305.17 182.23 299.00 183.75 C 292.83 185.27 283.96 186.73 280.75 187.88 C 277.54 189.02 280.12 188.19 279.75 190.62 C 279.38 193.06 278.65 200.46 278.50 202.50 C 278.35 204.54 276.94 202.85 278.88 202.88 C 280.81 202.90 287.19 202.81 290.12 202.62 C 293.06 202.44 290.12 203.02 296.50 201.75 C 302.88 200.48 320.21 196.35 328.38 195.00 C 336.54 193.65 342.46 194.04 345.50 193.62 C 348.54 193.21 346.42 193.21 346.62 192.50 C 346.83 191.79 347.12 190.35 346.75 189.38 Z" id="s-7-f-0"/>
<clipPath id="c-s-7"><use href="#s-7-f-0"/></clipPath>
<path d="M 251.38 244.25 C 250.42 244.50 250.27 244.69 249.88 245.38 C 249.48 246.06 248.52 247.44 249.00 248.38 C 249.48 249.31 251.33 249.56 252.75 251.00 C 254.17 252.44 256.33 255.25 257.50 257.00 C 258.67 258.75 258.90 259.27 259.75 261.50 C 260.60 263.73 261.62 266.42 262.62 270.38 C 263.62 274.33 264.42 277.98 265.75 285.25 C 267.08 292.52 269.75 308.31 270.62 314.00 C 271.50 319.69 270.77 317.92 271.00 319.38 C 271.23 320.83 271.48 321.48 272.00 322.75 C 272.52 324.02 273.31 325.75 274.12 327.00 C 274.94 328.25 276.00 329.46 276.88 330.25 C 277.75 331.04 278.56 331.50 279.38 331.75 C 280.19 332.00 281.00 332.06 281.75 331.75 C 282.50 331.44 283.21 330.77 283.88 329.88 C 284.54 328.98 285.40 329.44 285.75 326.38 C 286.10 323.31 286.19 316.71 286.00 311.50 C 285.81 306.29 285.46 302.27 284.62 295.12 C 283.79 287.98 281.62 274.46 281.00 268.62 C 280.38 262.79 281.73 263.19 280.88 260.12 C 280.02 257.06 277.00 252.23 275.88 250.25 C 274.75 248.27 275.23 248.94 274.12 248.25 C 273.02 247.56 271.31 246.81 269.25 246.12 C 267.19 245.44 264.02 244.50 261.75 244.12 C 259.48 243.75 257.35 243.85 255.62 243.88 C 253.90 243.90 252.33 244.00 251.38 244.25 Z" id="s-8-f-0"/>
<clipPath id="c-s-8"><use href="#s-8-f-0"/></clipPath>
<path d="M 274.75 249.12 C 274.29 249.44 274.35 249.46 274.62 250.00 C 274.90 250.54 276.04 251.73 276.38 252.38 C 276.71 253.02 276.46 253.50 276.62 253.88 C 276.79 254.25 277.02 253.94 277.38 254.62 C 277.73 255.31 278.17 256.96 278.75 258.00 C 279.33 259.04 279.58 260.58 280.88 260.88 C 282.17 261.17 281.98 261.08 286.50 259.75 C 291.02 258.42 303.54 254.17 308.00 252.88 C 312.46 251.58 311.69 252.15 313.25 252.00 C 314.81 251.85 316.19 251.83 317.38 252.00 C 318.56 252.17 319.65 252.42 320.38 253.00 C 321.10 253.58 321.58 253.67 321.75 255.50 C 321.92 257.33 322.04 258.75 321.38 264.00 C 320.71 269.25 318.85 280.60 317.75 287.00 C 316.65 293.40 315.35 299.60 314.75 302.38 C 314.15 305.15 313.40 303.23 314.12 303.62 C 314.85 304.02 316.17 304.35 319.12 304.75 C 322.08 305.15 329.44 305.83 331.88 306.00 C 334.31 306.17 333.27 306.17 333.75 305.75 C 334.23 305.33 333.54 307.88 334.75 303.50 C 335.96 299.12 339.60 284.54 341.00 279.50 C 342.40 274.46 342.10 275.77 343.12 273.25 C 344.15 270.73 345.48 267.21 347.12 264.38 C 348.77 261.54 351.75 258.21 353.00 256.25 C 354.25 254.29 354.33 254.08 354.62 252.62 C 354.92 251.17 354.96 248.83 354.75 247.50 C 354.54 246.17 354.02 245.56 353.38 244.62 C 352.73 243.69 351.75 242.67 350.88 241.88 C 350.00 241.08 350.73 241.19 348.12 239.88 C 345.52 238.56 338.40 235.29 335.25 234.00 C 332.10 232.71 331.17 232.46 329.25 232.12 C 327.33 231.79 325.48 231.67 323.75 232.00 C 322.02 232.33 321.31 232.85 318.88 234.12 C 316.44 235.40 312.06 238.19 309.12 239.62 C 306.19 241.06 305.15 241.56 301.25 242.75 C 297.35 243.94 289.73 245.85 285.75 246.75 C 281.77 247.65 279.21 247.73 277.38 248.12 C 275.54 248.52 275.21 248.81 274.75 249.12 Z" id="s-9-f-0"/>
<clipPath id="c-s-9"><use href="#s-9-f-0"/></clipPath>
<path d="M 342.75 312.75 C 342.46 311.83 341.65 311.04 340.88 310.25 C 340.10 309.46 339.38 308.79 338.12 308.00 C 336.88 307.21 336.56 306.23 333.38 305.50 C 330.19 304.77 322.19 303.94 319.00 303.62 C 315.81 303.31 316.52 303.12 314.25 303.62 C 311.98 304.12 310.15 305.38 305.38 306.62 C 300.60 307.88 288.94 308.31 285.62 311.12 C 282.31 313.94 285.31 321.38 285.50 323.50 C 285.69 325.62 285.25 323.85 286.75 323.88 C 288.25 323.90 289.10 324.31 294.50 323.62 C 299.90 322.94 313.71 320.69 319.12 319.75 C 324.54 318.81 323.31 318.48 327.00 318.00 C 330.69 317.52 338.65 317.25 341.25 316.88 C 343.85 316.50 342.38 316.44 342.62 315.75 C 342.88 315.06 343.04 313.67 342.75 312.75 Z" id="s-10-f-0"/>
<clipPath id="c-s-10"><use href="#s-10-f-0"/></clipPath>
<path d="M 210.25 198.88 C 208.85 198.92 208.65 198.85 207.75 199.25 C 206.85 199.65 205.50 200.65 204.88 201.25 C 204.25 201.85 204.12 202.00 204.00 202.88 C 203.88 203.75 203.67 205.33 204.12 206.50 C 204.58 207.67 206.12 208.88 206.75 209.88 C 207.38 210.88 207.38 210.73 207.88 212.50 C 208.38 214.27 208.88 206.27 209.75 220.50 C 210.62 234.73 212.44 283.08 213.12 297.88 C 213.81 312.67 213.67 307.23 213.88 309.25 C 214.08 311.27 213.31 310.19 214.38 310.00 C 215.44 309.81 217.65 308.83 220.25 308.12 C 222.85 307.42 228.15 306.25 230.00 305.75 C 231.85 305.25 231.06 305.38 231.38 305.12 C 231.69 304.88 231.44 317.19 231.88 304.25 C 232.31 291.31 233.31 241.94 234.00 227.50 C 234.69 213.06 235.38 219.96 236.00 217.62 C 236.62 215.29 237.44 214.75 237.75 213.50 C 238.06 212.25 238.02 211.06 237.88 210.12 C 237.73 209.19 237.38 208.58 236.88 207.88 C 236.38 207.17 236.00 206.71 234.88 205.88 C 233.75 205.04 232.40 203.85 230.12 202.88 C 227.85 201.90 223.58 200.65 221.25 200.00 C 218.92 199.35 217.96 199.19 216.12 199.00 C 214.29 198.81 211.65 198.83 210.25 198.88 Z" id="s-11-f-0"/>
<clipPath id="c-s-11"><use href="#s-11-f-0"/></clipPath>
<path d="M 211.25 247.50 C 211.04 246.06 211.38 247.10 210.88 246.88 C 210.38 246.65 209.69 246.27 208.25 246.12 C 206.81 245.98 207.04 244.90 202.25 246.00 C 197.46 247.10 184.98 251.29 179.50 252.75 C 174.02 254.21 172.69 254.21 169.38 254.75 C 166.06 255.29 161.52 255.48 159.62 256.00 C 157.73 256.52 158.25 256.83 158.00 257.88 C 157.75 258.92 157.92 261.08 158.12 262.25 C 158.33 263.42 158.79 264.15 159.25 264.88 C 159.71 265.60 159.90 266.06 160.88 266.62 C 161.85 267.19 163.58 267.88 165.12 268.25 C 166.67 268.62 167.85 268.81 170.12 268.88 C 172.40 268.94 172.71 269.42 178.75 268.62 C 184.79 267.83 200.83 264.92 206.38 264.12 C 211.92 263.33 211.04 265.31 212.00 263.88 C 212.96 262.44 212.25 258.23 212.12 255.50 C 212.00 252.77 211.46 248.94 211.25 247.50 Z" id="s-12-f-0"/>
<clipPath id="c-s-12"><use href="#s-12-f-0"/></clipPath>
<path d="M 248.75 306.25 C 248.58 305.52 248.17 304.65 247.62 304.12 C 247.08 303.60 246.88 303.31 245.50 303.12 C 244.12 302.94 241.25 302.75 239.38 303.00 C 237.50 303.25 235.81 304.35 234.25 304.62 C 232.69 304.90 230.90 304.50 230.00 304.62 C 229.10 304.75 229.48 305.21 228.88 305.38 C 228.27 305.54 226.98 305.46 226.38 305.62 C 225.77 305.79 225.85 306.21 225.25 306.38 C 224.65 306.54 223.35 306.46 222.75 306.62 C 222.15 306.79 222.27 307.19 221.62 307.38 C 220.98 307.56 219.48 307.58 218.88 307.75 C 218.27 307.92 218.62 308.25 218.00 308.38 C 217.38 308.50 215.67 308.35 215.12 308.50 C 214.58 308.65 215.02 309.02 214.75 309.25 C 214.48 309.48 217.90 308.62 213.50 309.88 C 209.10 311.12 194.71 315.44 188.38 316.75 C 182.04 318.06 180.00 317.88 175.50 317.75 C 171.00 317.62 164.83 316.27 161.38 316.00 C 157.92 315.73 156.27 315.79 154.75 316.12 C 153.23 316.46 152.71 317.17 152.25 318.00 C 151.79 318.83 151.88 320.25 152.00 321.12 C 152.12 322.00 151.83 321.69 153.00 323.25 C 154.17 324.81 156.08 327.58 159.00 330.50 C 161.92 333.42 167.44 338.38 170.50 340.75 C 173.56 343.12 175.75 343.92 177.38 344.75 C 179.00 345.58 179.08 345.60 180.25 345.75 C 181.42 345.90 182.69 346.44 184.38 345.62 C 186.06 344.81 187.19 343.12 190.38 340.88 C 193.56 338.62 194.58 336.77 203.50 332.12 C 212.42 327.48 236.48 316.75 243.88 313.00 C 251.27 309.25 247.08 310.38 247.88 309.62 C 248.67 308.88 248.48 309.06 248.62 308.50 C 248.77 307.94 248.92 306.98 248.75 306.25 Z" id="s-13-f-0"/>
<clipPath id="c-s-13"><use href="#s-13-f-0"/></clipPath>
<path d="M 448.88 235.50 C 448.69 234.88 448.12 234.31 447.50 233.75 C 446.88 233.19 446.90 232.92 445.12 232.12 C 443.35 231.33 440.65 230.02 436.88 229.00 C 433.10 227.98 425.56 226.50 422.50 226.00 C 419.44 225.50 420.08 225.40 418.50 226.00 C 416.92 226.60 416.12 228.17 413.00 229.62 C 409.88 231.08 403.77 233.35 399.75 234.75 C 395.73 236.15 391.02 237.29 388.88 238.00 C 386.73 238.71 387.38 237.33 386.88 239.00 C 386.38 240.67 386.02 245.73 385.88 248.00 C 385.73 250.27 385.38 251.67 386.00 252.62 C 386.62 253.58 387.58 253.58 389.62 253.75 C 391.67 253.92 393.60 254.46 398.25 253.62 C 402.90 252.79 413.10 250.02 417.50 248.75 C 421.90 247.48 422.67 246.52 424.62 246.00 C 426.58 245.48 426.71 246.17 429.25 245.62 C 431.79 245.08 437.04 243.69 439.88 242.75 C 442.71 241.81 444.79 240.88 446.25 240.00 C 447.71 239.12 448.19 238.25 448.62 237.50 C 449.06 236.75 449.06 236.12 448.88 235.50 Z" id="s-14-f-0"/>
<clipPath id="c-s-14"><use href="#s-14-f-0"/></clipPath>
<path d="M 362.25 185.88 C 361.77 186.21 361.48 186.56 361.25 187.00 C 361.02 187.44 360.92 187.44 360.88 188.50 C 360.83 189.56 360.50 190.56 361.00 193.38 C 361.50 196.19 363.25 201.38 363.88 205.38 C 364.50 209.38 364.56 201.29 364.75 217.38 C 364.94 233.46 364.62 286.08 365.00 301.88 C 365.38 317.67 366.31 309.50 367.00 312.12 C 367.69 314.75 368.33 315.94 369.12 317.62 C 369.92 319.31 371.00 321.06 371.75 322.25 C 372.50 323.44 372.75 323.83 373.62 324.75 C 374.50 325.67 375.29 326.58 377.00 327.75 C 378.71 328.92 381.06 330.60 383.88 331.75 C 386.69 332.90 390.06 333.94 393.88 334.62 C 397.69 335.31 402.00 335.71 406.75 335.88 C 411.50 336.04 417.42 336.00 422.38 335.62 C 427.33 335.25 431.85 334.60 436.50 333.62 C 441.15 332.65 446.73 330.90 450.25 329.75 C 453.77 328.60 455.75 327.62 457.62 326.75 C 459.50 325.88 460.50 325.17 461.50 324.50 C 462.50 323.83 462.92 323.54 463.62 322.75 C 464.33 321.96 465.40 320.92 465.75 319.75 C 466.10 318.58 466.08 317.06 465.75 315.75 C 465.42 314.44 464.73 313.17 463.75 311.88 C 462.77 310.58 461.19 309.12 459.88 308.00 C 458.56 306.88 457.67 306.12 455.88 305.12 C 454.08 304.12 450.85 302.67 449.12 302.00 C 447.40 301.33 447.19 301.29 445.50 301.12 C 443.81 300.96 442.60 299.75 439.00 301.00 C 435.40 302.25 427.44 307.00 423.88 308.62 C 420.31 310.25 420.21 310.06 417.62 310.75 C 415.04 311.44 411.71 312.25 408.38 312.75 C 405.04 313.25 400.38 313.58 397.62 313.75 C 394.88 313.92 393.27 313.88 391.88 313.75 C 390.48 313.62 390.08 313.42 389.25 313.00 C 388.42 312.58 387.58 312.25 386.88 311.25 C 386.17 310.25 385.48 309.06 385.00 307.00 C 384.52 304.94 384.17 302.79 384.00 298.88 C 383.83 294.96 383.83 289.54 384.00 283.50 C 384.17 277.46 384.69 267.65 385.00 262.62 C 385.31 257.60 385.65 255.06 385.88 253.38 C 386.10 251.69 386.33 252.77 386.38 252.50 C 386.42 252.23 386.00 252.69 386.12 251.75 C 386.25 250.81 386.98 249.23 387.12 246.88 C 387.27 244.52 386.69 241.58 387.00 237.62 C 387.31 233.67 388.17 227.96 389.00 223.12 C 389.83 218.29 390.88 212.52 392.00 208.62 C 393.12 204.73 395.12 201.69 395.75 199.75 C 396.38 197.81 396.00 197.88 395.75 197.00 C 395.50 196.12 395.17 195.50 394.25 194.50 C 393.33 193.50 392.46 192.23 390.25 191.00 C 388.04 189.77 384.12 188.12 381.00 187.12 C 377.88 186.12 374.31 185.35 371.50 185.00 C 368.69 184.65 365.67 184.85 364.12 185.00 C 362.58 185.15 362.73 185.54 362.25 185.88 Z" id="s-15-f-0"/>
<clipPath id="c-s-15"><use href="#s-15-f-0"/></clipPath>
<path d="M 181.38 366.88 C 180.62 366.48 180.44 366.65 179.88 367.00 C 179.31 367.35 178.48 368.38 178.00 369.00 C 177.52 369.62 177.40 369.69 177.00 370.75 C 176.60 371.81 176.50 373.29 175.62 375.38 C 174.75 377.46 174.56 378.27 171.75 383.25 C 168.94 388.23 162.38 399.35 158.75 405.25 C 155.12 411.15 151.94 415.25 150.00 418.62 C 148.06 422.00 147.81 423.02 147.12 425.50 C 146.44 427.98 146.06 431.02 145.88 433.50 C 145.69 435.98 145.79 438.17 146.00 440.38 C 146.21 442.58 146.79 445.23 147.12 446.75 C 147.46 448.27 147.40 448.42 148.00 449.50 C 148.60 450.58 149.98 452.35 150.75 453.25 C 151.52 454.15 151.69 454.31 152.62 454.88 C 153.56 455.44 154.79 456.31 156.38 456.62 C 157.96 456.94 160.71 456.92 162.12 456.75 C 163.54 456.58 163.88 456.17 164.88 455.62 C 165.88 455.08 166.48 454.94 168.12 453.50 C 169.77 452.06 173.15 448.75 174.75 447.00 C 176.35 445.25 176.58 444.90 177.75 443.00 C 178.92 441.10 179.75 440.23 181.75 435.62 C 183.75 431.02 187.94 421.04 189.75 415.38 C 191.56 409.71 192.15 405.94 192.62 401.62 C 193.10 397.31 192.94 392.65 192.62 389.50 C 192.31 386.35 191.77 385.54 190.75 382.75 C 189.73 379.96 187.56 374.98 186.50 372.75 C 185.44 370.52 185.23 370.35 184.38 369.38 C 183.52 368.40 182.12 367.27 181.38 366.88 Z" id="s-16-f-0"/>
<clipPath id="c-s-16"><use href="#s-16-f-0"/></clipPath>
<path d="M 243.75 371.00 C 242.92 371.17 242.81 371.50 242.50 372.00 C 242.19 372.50 241.96 373.00 241.88 374.00 C 241.79 375.00 241.81 376.46 242.00 378.00 C 242.19 379.54 241.50 377.69 243.00 383.25 C 244.50 388.81 248.67 403.79 251.00 411.38 C 253.33 418.96 255.15 423.92 257.00 428.75 C 258.85 433.58 260.90 437.90 262.12 440.38 C 263.35 442.85 263.73 442.90 264.38 443.62 C 265.02 444.35 265.56 444.54 266.00 444.75 C 266.44 444.96 266.25 444.88 267.00 444.88 C 267.75 444.88 269.38 444.94 270.50 444.75 C 271.62 444.56 272.67 444.23 273.75 443.75 C 274.83 443.27 276.00 442.71 277.00 441.88 C 278.00 441.04 279.00 439.85 279.75 438.75 C 280.50 437.65 281.00 436.69 281.50 435.25 C 282.00 433.81 282.56 433.44 282.75 430.12 C 282.94 426.81 282.81 419.00 282.62 415.38 C 282.44 411.75 282.29 411.17 281.62 408.38 C 280.96 405.58 279.77 401.44 278.62 398.62 C 277.48 395.81 276.54 394.02 274.75 391.50 C 272.96 388.98 269.77 385.48 267.88 383.50 C 265.98 381.52 266.19 381.54 263.38 379.62 C 260.56 377.71 253.65 373.44 251.00 372.00 C 248.35 370.56 248.71 371.17 247.50 371.00 C 246.29 370.83 244.58 370.83 243.75 371.00 Z" id="s-17-f-0"/>
<clipPath id="c-s-17"><use href="#s-17-f-0"/></clipPath>
<path d="M 322.00 367.12 C 320.96 367.42 320.60 368.25 320.25 368.75 C 319.90 369.25 319.92 369.29 319.88 370.12 C 319.83 370.96 319.81 372.46 320.00 373.75 C 320.19 375.04 319.00 371.98 321.00 377.88 C 323.00 383.77 329.15 401.54 332.00 409.12 C 334.85 416.71 336.29 419.48 338.12 423.38 C 339.96 427.27 341.71 430.42 343.00 432.50 C 344.29 434.58 345.15 435.17 345.88 435.88 C 346.60 436.58 346.58 436.58 347.38 436.75 C 348.17 436.92 349.19 437.04 350.62 436.88 C 352.06 436.71 354.56 436.29 356.00 435.75 C 357.44 435.21 358.15 434.69 359.25 433.62 C 360.35 432.56 361.71 431.33 362.62 429.38 C 363.54 427.42 364.42 425.50 364.75 421.88 C 365.08 418.25 364.98 411.69 364.62 407.62 C 364.27 403.56 363.27 400.00 362.62 397.50 C 361.98 395.00 361.54 394.25 360.75 392.62 C 359.96 391.00 358.81 389.04 357.88 387.75 C 356.94 386.46 356.71 386.31 355.12 384.88 C 353.54 383.44 350.50 380.77 348.38 379.12 C 346.25 377.48 345.44 376.85 342.38 375.00 C 339.31 373.15 332.65 369.33 330.00 368.00 C 327.35 366.67 327.83 367.15 326.50 367.00 C 325.17 366.85 323.04 366.83 322.00 367.12 Z" id="s-18-f-0"/>
<clipPath id="c-s-18"><use href="#s-18-f-0"/></clipPath>
<path d="M 402.75 365.00 C 401.98 365.10 402.15 365.31 402.00 365.75 C 401.85 366.19 401.67 366.65 401.88 367.62 C 402.08 368.60 401.44 368.65 403.25 371.62 C 405.06 374.60 407.79 377.00 412.75 385.50 C 417.71 394.00 428.46 414.54 433.00 422.62 C 437.54 430.71 437.98 430.96 440.00 434.00 C 442.02 437.04 443.23 438.56 445.12 440.88 C 447.02 443.19 450.10 446.56 451.38 447.88 C 452.65 449.19 452.19 448.58 452.75 448.75 C 453.31 448.92 454.15 448.88 454.75 448.88 C 455.35 448.88 455.69 448.96 456.38 448.75 C 457.06 448.54 458.08 448.15 458.88 447.62 C 459.67 447.10 460.48 446.33 461.12 445.62 C 461.77 444.92 462.17 444.56 462.75 443.38 C 463.33 442.19 464.15 440.02 464.62 438.50 C 465.10 436.98 465.42 436.38 465.62 434.25 C 465.83 432.12 465.88 427.81 465.88 425.75 C 465.88 423.69 465.98 424.17 465.62 421.88 C 465.27 419.58 464.40 414.60 463.75 412.00 C 463.10 409.40 462.60 408.02 461.75 406.25 C 460.90 404.48 459.98 403.19 458.62 401.38 C 457.27 399.56 455.60 397.50 453.62 395.38 C 451.65 393.25 449.02 390.71 446.75 388.62 C 444.48 386.54 442.06 384.48 440.00 382.88 C 437.94 381.27 436.98 380.62 434.38 379.00 C 431.77 377.38 427.83 374.96 424.38 373.12 C 420.92 371.29 416.58 369.33 413.62 368.00 C 410.67 366.67 408.44 365.62 406.62 365.12 C 404.81 364.62 403.52 364.90 402.75 365.00 Z" id="s-19-f-0"/>
<clipPath id="c-s-19"><use href="#s-19-f-0"/></clipPath>
</defs>
<g id="s-0" clip-path="url(#c-s-0)">
<use href="#s-0-f-0"/>
<path d="M 37.12 121.00 C 35.02 121.21 35.17 121.83 34.50 122.38 C 33.83 122.92 33.40 123.40 33.12 124.25 C 32.85 125.10 32.71 126.35 32.88 127.50 C 33.04 128.65 33.31 129.40 34.12 131.12 C 34.94 132.85 36.81 135.75 37.75 137.88 C 38.69 140.00 39.08 141.42 39.75 143.88 C 40.42 146.33 41.23 149.85 41.75 152.62 C 42.27 155.40 42.54 156.98 42.88 160.50 C 43.21 164.02 43.60 164.21 43.75 173.75 C 43.90 183.29 43.90 202.83 43.75 217.75 C 43.60 232.67 43.19 251.94 42.88 263.25 C 42.56 274.56 42.40 276.90 41.88 285.62 C 41.35 294.35 40.42 307.44 39.75 315.62 C 39.08 323.81 38.31 331.25 37.88 334.75 C 37.44 338.25 37.44 335.25 37.12 336.62 C 36.81 338.00 36.19 340.25 36.00 343.00 C 35.81 345.75 35.81 350.50 36.00 353.12 C 36.19 355.75 36.77 357.46 37.12 358.75 C 37.48 360.04 33.96 360.52 38.12 360.88 C 42.29 361.23 58.02 360.96 62.12 360.88 C 66.23 360.79 62.31 367.29 62.75 360.38 C 63.19 353.46 63.90 356.50 64.75 319.38 C 65.60 282.25 68.52 169.88 67.88 137.62 C 67.23 105.38 62.33 128.08 60.88 125.88 C 59.42 123.67 60.48 125.00 59.12 124.38 C 57.77 123.75 54.75 122.67 52.75 122.12 C 50.75 121.58 49.73 121.31 47.12 121.12 C 44.52 120.94 39.23 120.79 37.12 121.00 Z" id="s-0-f-1"/>
<path d="M 37.12 121.00 C 35.02 121.21 35.17 121.83 34.50 122.38 C 33.83 122.92 33.38 123.23 33.12 124.25 C 32.88 125.27 32.23 126.23 33.00 128.50 C 33.77 130.77 36.46 134.69 37.75 137.88 C 39.04 141.06 39.90 143.85 40.75 147.62 C 41.60 151.40 42.38 156.15 42.88 160.50 C 43.38 164.85 43.60 164.21 43.75 173.75 C 43.90 183.29 43.90 202.83 43.75 217.75 C 43.60 232.67 43.19 251.94 42.88 263.25 C 42.56 274.56 42.35 277.52 41.88 285.62 C 41.40 293.73 40.19 307.31 40.00 311.88 C 39.81 316.44 36.69 312.83 40.75 313.00 C 44.81 313.17 60.35 313.00 64.38 312.88 C 68.40 312.75 64.67 317.04 64.88 312.25 C 65.08 307.46 65.44 297.73 65.62 284.12 C 65.81 270.52 65.65 251.25 66.00 230.62 C 66.35 210.00 67.44 175.88 67.75 160.38 C 68.06 144.88 69.02 143.38 67.88 137.62 C 66.73 131.88 62.33 128.08 60.88 125.88 C 59.42 123.67 60.48 125.00 59.12 124.38 C 57.77 123.75 54.75 122.67 52.75 122.12 C 50.75 121.58 49.73 121.31 47.12 121.12 C 44.52 120.94 39.23 120.79 37.12 121.00 Z" id="s-0-f-2"/>
<path d="M 37.12 121.00 C 35.02 121.21 35.17 121.83 34.50 122.38 C 33.83 122.92 33.40 123.40 33.12 124.25 C 32.85 125.10 32.71 126.35 32.88 127.50 C 33.04 128.65 33.31 129.40 34.12 131.12 C 34.94 132.85 36.81 135.75 37.75 137.88 C 38.69 140.00 39.08 141.42 39.75 143.88 C 40.42 146.33 41.23 149.85 41.75 152.62 C 42.27 155.40 42.54 156.98 42.88 160.50 C 43.21 164.02 43.60 164.21 43.75 173.75 C 43.90 183.29 43.88 202.71 43.75 217.75 C 43.62 232.79 43.02 256.12 43.00 264.00 C 42.98 271.88 39.90 264.85 43.62 265.00 C 47.35 265.15 61.67 265.77 65.38 264.88 C 69.08 263.98 65.77 265.33 65.88 259.62 C 65.98 253.92 65.69 247.17 66.00 230.62 C 66.31 214.08 67.44 175.88 67.75 160.38 C 68.06 144.88 69.02 143.38 67.88 137.62 C 66.73 131.88 62.33 128.08 60.88 125.88 C 59.42 123.67 60.48 125.00 59.12 124.38 C 57.77 123.75 54.75 122.67 52.75 122.12 C 50.75 121.58 49.73 121.31 47.12 121.12 C 44.52 120.94 39.23 120.79 37.12 121.00 Z" id="s-0-f-3"/>
<path d="M 36.62 121.12 C 34.52 121.33 35.08 121.85 34.50 122.38 C 33.92 122.90 33.40 123.40 33.12 124.25 C 32.85 125.10 32.71 126.35 32.88 127.50 C 33.04 128.65 33.31 129.40 34.12 131.12 C 34.94 132.85 36.81 135.75 37.75 137.88 C 38.69 140.00 39.08 141.42 39.75 143.88 C 40.42 146.33 41.23 149.85 41.75 152.62 C 42.27 155.40 42.54 156.98 42.88 160.50 C 43.21 164.02 43.60 164.44 43.75 173.75 C 43.90 183.06 42.62 209.17 43.75 216.38 C 44.88 223.58 46.81 216.92 50.50 217.00 C 54.19 217.08 63.21 216.98 65.88 216.88 C 68.54 216.77 66.19 225.79 66.50 216.38 C 66.81 206.96 67.54 173.58 67.75 160.38 C 67.96 147.17 68.90 142.88 67.75 137.12 C 66.60 131.38 62.31 128.00 60.88 125.88 C 59.44 123.75 60.48 125.00 59.12 124.38 C 57.77 123.75 54.75 122.67 52.75 122.12 C 50.75 121.58 49.81 121.29 47.12 121.12 C 44.44 120.96 38.73 120.92 36.62 121.12 Z" id="s-0-f-4"/>
<path d="M 35.12 121.88 C 34.23 122.48 33.35 123.40 33.00 124.50 C 32.65 125.60 32.21 126.27 33.00 128.50 C 33.79 130.73 36.46 134.69 37.75 137.88 C 39.04 141.06 39.94 144.19 40.75 147.62 C 41.56 151.06 42.17 155.00 42.62 158.50 C 43.08 162.00 43.02 166.88 43.50 168.62 C 43.98 170.38 41.88 168.94 45.50 169.00 C 49.12 169.06 61.60 169.06 65.25 169.00 C 68.90 168.94 66.94 173.85 67.38 168.62 C 67.81 163.40 68.96 144.75 67.88 137.62 C 66.79 130.50 62.33 128.08 60.88 125.88 C 59.42 123.67 59.98 124.85 59.12 124.38 C 58.27 123.90 57.75 123.54 55.75 123.00 C 53.75 122.46 50.02 121.48 47.12 121.12 C 44.23 120.77 40.38 120.75 38.38 120.88 C 36.38 121.00 36.02 121.27 35.12 121.88 Z" id="s-0-f-5"/>
</g>
<g id="s-1" clip-path="url(#c-s-1)">
<use href="#s-1-f-0"/>
<path d="M 117.38 107.00 C 115.94 107.33 114.29 107.88 111.75 109.00 C 109.21 110.12 105.65 112.31 102.12 113.75 C 98.60 115.19 95.81 116.12 90.62 117.62 C 85.44 119.12 75.83 121.62 71.00 122.75 C 66.17 123.88 63.52 123.94 61.62 124.38 C 59.73 124.81 58.77 123.23 59.62 125.38 C 60.48 127.52 65.40 135.17 66.75 137.25 C 68.10 139.33 67.25 137.79 67.75 137.88 C 68.25 137.96 67.67 138.40 69.75 137.75 C 71.83 137.10 77.42 134.92 80.25 134.00 C 83.08 133.08 84.25 132.75 86.75 132.25 C 89.25 131.75 92.81 131.21 95.25 131.00 C 97.69 130.79 98.79 130.85 101.38 131.00 C 103.96 131.15 108.67 131.56 110.75 131.88 C 112.83 132.19 112.90 132.29 113.88 132.88 C 114.85 133.46 115.96 134.52 116.62 135.38 C 117.29 136.23 117.52 136.85 117.88 138.00 C 118.23 139.15 118.46 135.69 118.75 142.25 C 119.04 148.81 119.44 157.25 119.62 177.38 C 119.81 197.50 119.92 241.44 119.88 263.00 C 119.83 284.56 119.73 293.54 119.38 306.75 C 119.02 319.96 118.02 329.58 117.75 342.25 C 117.48 354.92 117.69 375.27 117.75 382.75 C 117.81 390.23 117.60 385.58 118.12 387.12 C 118.65 388.67 120.06 390.90 120.88 392.00 C 121.69 393.10 122.19 393.46 123.00 393.75 C 123.81 394.04 124.81 393.96 125.75 393.75 C 126.69 393.54 127.58 393.17 128.62 392.50 C 129.67 391.83 130.17 391.67 132.00 389.75 C 133.83 387.83 137.50 384.19 139.62 381.00 C 141.75 377.81 143.56 373.54 144.75 370.62 C 145.94 367.71 146.25 365.83 146.75 363.50 C 147.25 361.17 147.58 359.52 147.75 356.62 C 147.92 353.73 148.54 359.10 147.75 346.12 C 146.96 333.15 143.94 293.12 143.00 278.75 C 142.06 264.38 142.29 266.27 142.12 259.88 C 141.96 253.48 141.85 253.17 142.00 240.38 C 142.15 227.58 142.65 197.35 143.00 183.12 C 143.35 168.90 143.79 161.10 144.12 155.00 C 144.46 148.90 144.23 149.48 145.00 146.50 C 145.77 143.52 147.96 139.31 148.75 137.12 C 149.54 134.94 149.60 134.83 149.75 133.38 C 149.90 131.92 149.96 129.79 149.62 128.38 C 149.29 126.96 148.56 126.00 147.75 124.88 C 146.94 123.75 145.90 122.69 144.75 121.62 C 143.60 120.56 144.50 120.77 140.88 118.50 C 137.25 116.23 126.42 109.92 123.00 108.00 C 119.58 106.08 121.31 107.17 120.38 107.00 C 119.44 106.83 118.81 106.67 117.38 107.00 Z" id="s-1-f-1"/>
<path d="M 117.38 107.00 C 115.94 107.33 114.29 107.88 111.75 109.00 C 109.21 110.12 105.65 112.31 102.12 113.75 C 98.60 115.19 95.81 116.12 90.62 117.62 C 85.44 119.12 75.83 121.62 71.00 122.75 C 66.17 123.88 63.52 123.94 61.62 124.38 C 59.73 124.81 58.77 123.23 59.62 125.38 C 60.48 127.52 65.40 135.17 66.75 137.25 C 68.10 139.33 67.25 137.79 67.75 137.88 C 68.25 137.96 67.67 138.40 69.75 137.75 C 71.83 137.10 77.50 134.90 80.25 134.00 C 83.00 133.10 83.75 132.88 86.25 132.38 C 88.75 131.88 92.19 131.21 95.25 131.00 C 98.31 130.79 101.83 130.94 104.62 131.12 C 107.42 131.31 110.21 131.65 112.00 132.12 C 113.79 132.60 114.42 133.10 115.38 134.00 C 116.33 134.90 117.17 135.65 117.75 137.50 C 118.33 139.35 118.56 138.48 118.88 145.12 C 119.19 151.77 119.48 154.15 119.62 177.38 C 119.77 200.60 119.88 260.42 119.75 284.50 C 119.62 308.58 119.19 313.25 118.88 321.88 C 118.56 330.50 118.04 328.12 117.88 336.25 C 117.71 344.38 117.58 364.83 117.88 370.62 C 118.17 376.42 115.25 370.96 119.62 371.00 C 124.00 371.04 139.94 370.98 144.12 370.88 C 148.31 370.77 144.31 371.60 144.75 370.38 C 145.19 369.15 146.25 365.79 146.75 363.50 C 147.25 361.21 147.56 359.02 147.75 356.62 C 147.94 354.23 148.48 358.96 147.88 349.12 C 147.27 339.29 145.08 312.50 144.12 297.62 C 143.17 282.75 142.48 269.42 142.12 259.88 C 141.77 250.33 141.85 253.17 142.00 240.38 C 142.15 227.58 142.67 197.00 143.00 183.12 C 143.33 169.25 143.69 163.08 144.00 157.12 C 144.31 151.17 144.08 150.71 144.88 147.38 C 145.67 144.04 147.94 139.46 148.75 137.12 C 149.56 134.79 149.60 134.83 149.75 133.38 C 149.90 131.92 149.96 129.79 149.62 128.38 C 149.29 126.96 148.56 126.00 147.75 124.88 C 146.94 123.75 145.90 122.69 144.75 121.62 C 143.60 120.56 144.50 120.77 140.88 118.50 C 137.25 116.23 126.42 109.92 123.00 108.00 C 119.58 106.08 121.31 107.17 120.38 107.00 C 119.44 106.83 118.81 106.67 117.38 107.00 Z" id="s-1-f-2"/>
<path d="M 117.38 107.00 C 115.94 107.33 114.29 107.88 111.75 109.00 C 109.21 110.12 105.65 112.31 102.12 113.75 C 98.60 115.19 95.81 116.12 90.62 117.62 C 85.44 119.12 75.83 121.62 71.00 122.75 C 66.17 123.88 63.52 123.94 61.62 124.38 C 59.73 124.81 58.79 123.27 59.62 125.38 C 60.46 127.48 65.27 134.92 66.62 137.00 C 67.98 139.08 67.23 137.75 67.75 137.88 C 68.27 138.00 67.67 138.40 69.75 137.75 C 71.83 137.10 77.50 134.90 80.25 134.00 C 83.00 133.10 83.75 132.88 86.25 132.38 C 88.75 131.88 92.19 131.21 95.25 131.00 C 98.31 130.79 101.83 130.94 104.62 131.12 C 107.42 131.31 110.21 131.65 112.00 132.12 C 113.79 132.60 114.42 133.10 115.38 134.00 C 116.33 134.90 117.19 136.12 117.75 137.50 C 118.31 138.88 118.44 135.60 118.75 142.25 C 119.06 148.90 119.44 157.25 119.62 177.38 C 119.81 197.50 120.00 238.88 119.88 263.00 C 119.75 287.12 118.77 312.17 118.88 322.12 C 118.98 332.08 116.08 322.60 120.50 322.75 C 124.92 322.90 141.15 323.04 145.38 323.00 C 149.60 322.96 146.23 329.12 145.88 322.50 C 145.52 315.88 143.90 294.60 143.25 283.25 C 142.60 271.90 142.04 271.06 142.00 254.38 C 141.96 237.69 142.67 199.33 143.00 183.12 C 143.33 166.92 143.69 163.08 144.00 157.12 C 144.31 151.17 143.94 151.23 144.88 147.38 C 145.81 143.52 148.81 137.10 149.62 134.00 C 150.44 130.90 149.92 130.06 149.75 128.75 C 149.58 127.44 149.06 126.90 148.62 126.12 C 148.19 125.35 148.42 125.40 147.12 124.12 C 145.83 122.85 144.90 121.19 140.88 118.50 C 136.85 115.81 126.42 109.92 123.00 108.00 C 119.58 106.08 121.31 107.17 120.38 107.00 C 119.44 106.83 118.81 106.67 117.38 107.00 Z" id="s-1-f-3"/>
<path d="M 60.12 124.88 C 57.52 125.46 59.69 125.04 59.62 125.25 C 59.56 125.46 59.46 125.67 59.75 126.12 C 60.04 126.58 60.23 126.19 61.38 128.00 C 62.52 129.81 65.56 135.35 66.62 137.00 C 67.69 138.65 67.23 137.75 67.75 137.88 C 68.27 138.00 67.67 138.40 69.75 137.75 C 71.83 137.10 77.50 134.90 80.25 134.00 C 83.00 133.10 83.75 132.88 86.25 132.38 C 88.75 131.88 92.19 131.21 95.25 131.00 C 98.31 130.79 101.92 130.96 104.62 131.12 C 107.33 131.29 109.85 131.65 111.50 132.00 C 113.15 132.35 113.54 132.50 114.50 133.25 C 115.46 134.00 116.54 135.00 117.25 136.50 C 117.96 138.00 118.40 137.42 118.75 142.25 C 119.10 147.08 119.12 143.58 119.38 165.50 C 119.62 187.42 120.04 255.52 120.25 273.75 C 120.46 291.98 120.35 274.67 120.62 274.88 C 120.90 275.08 118.21 275.00 121.88 275.00 C 125.54 275.00 139.27 280.65 142.62 274.88 C 145.98 269.10 141.90 256.94 142.00 240.38 C 142.10 223.81 142.90 189.73 143.25 175.50 C 143.60 161.27 143.83 159.83 144.12 155.00 C 144.42 150.17 144.23 149.48 145.00 146.50 C 145.77 143.52 147.96 139.31 148.75 137.12 C 149.54 134.94 149.58 134.77 149.75 133.38 C 149.92 131.98 149.94 129.96 149.75 128.75 C 149.56 127.54 149.46 127.31 148.62 126.12 C 147.79 124.94 146.04 122.90 144.75 121.62 C 143.46 120.35 144.19 120.60 140.88 118.50 C 137.56 116.40 128.29 110.92 124.88 109.00 C 121.46 107.08 121.75 107.31 120.38 107.00 C 119.00 106.69 118.06 106.79 116.62 107.12 C 115.19 107.46 114.17 107.90 111.75 109.00 C 109.33 110.10 105.65 112.31 102.12 113.75 C 98.60 115.19 95.10 116.29 90.62 117.62 C 86.15 118.96 80.33 120.54 75.25 121.75 C 70.17 122.96 62.73 124.29 60.12 124.88 Z" id="s-1-f-4"/>
<path d="M 59.75 125.12 C 59.44 125.42 59.48 125.65 59.75 126.12 C 60.02 126.60 60.23 126.19 61.38 128.00 C 62.52 129.81 65.56 135.35 66.62 137.00 C 67.69 138.65 67.23 137.75 67.75 137.88 C 68.27 138.00 67.67 138.40 69.75 137.75 C 71.83 137.10 77.50 134.90 80.25 134.00 C 83.00 133.10 83.75 132.88 86.25 132.38 C 88.75 131.88 92.19 131.21 95.25 131.00 C 98.31 130.79 101.92 130.96 104.62 131.12 C 107.33 131.29 109.85 131.65 111.50 132.00 C 113.15 132.35 113.65 132.69 114.50 133.25 C 115.35 133.81 116.06 134.58 116.62 135.38 C 117.19 136.17 117.50 136.38 117.88 138.00 C 118.25 139.62 118.52 130.33 118.88 145.12 C 119.23 159.92 116.19 213.12 120.00 226.75 C 123.81 240.38 138.06 226.92 141.75 226.88 C 145.44 226.83 142.00 227.38 142.12 226.50 C 142.25 225.62 142.35 228.85 142.50 221.62 C 142.65 214.40 142.73 194.23 143.00 183.12 C 143.27 172.02 143.79 161.10 144.12 155.00 C 144.46 148.90 144.23 149.48 145.00 146.50 C 145.77 143.52 147.94 139.54 148.75 137.12 C 149.56 134.71 149.71 133.40 149.88 132.00 C 150.04 130.60 150.10 129.94 149.75 128.75 C 149.40 127.56 148.58 126.06 147.75 124.88 C 146.92 123.69 145.90 122.69 144.75 121.62 C 143.60 120.56 144.50 120.77 140.88 118.50 C 137.25 116.23 126.42 109.92 123.00 108.00 C 119.58 106.08 121.31 107.17 120.38 107.00 C 119.44 106.83 118.81 106.67 117.38 107.00 C 115.94 107.33 114.29 107.88 111.75 109.00 C 109.21 110.12 105.65 112.31 102.12 113.75 C 98.60 115.19 94.42 116.46 90.62 117.62 C 86.83 118.79 84.21 119.62 79.38 120.75 C 74.54 121.88 64.90 123.65 61.62 124.38 C 58.35 125.10 60.06 124.83 59.75 125.12 Z" id="s-1-f-5"/>
<path d="M 59.62 125.25 C 59.31 125.54 59.46 125.67 59.75 126.12 C 60.04 126.58 60.23 126.19 61.38 128.00 C 62.52 129.81 65.56 135.35 66.62 137.00 C 67.69 138.65 67.23 137.75 67.75 137.88 C 68.27 138.00 67.67 138.40 69.75 137.75 C 71.83 137.10 77.50 134.90 80.25 134.00 C 83.00 133.10 83.98 132.85 86.25 132.38 C 88.52 131.90 90.35 131.29 93.88 131.12 C 97.40 130.96 104.35 131.21 107.38 131.38 C 110.40 131.54 110.81 131.81 112.00 132.12 C 113.19 132.44 113.73 132.71 114.50 133.25 C 115.27 133.79 116.08 134.67 116.62 135.38 C 117.17 136.08 117.40 136.35 117.75 137.50 C 118.10 138.65 118.50 136.79 118.75 142.25 C 119.00 147.71 119.06 164.17 119.25 170.25 C 119.44 176.33 116.21 177.29 119.88 178.75 C 123.54 180.21 137.35 179.06 141.25 179.00 C 145.15 178.94 142.79 182.02 143.25 178.38 C 143.71 174.73 143.73 162.29 144.00 157.12 C 144.27 151.96 144.08 150.71 144.88 147.38 C 145.67 144.04 147.94 139.46 148.75 137.12 C 149.56 134.79 149.60 134.83 149.75 133.38 C 149.90 131.92 149.96 129.79 149.62 128.38 C 149.29 126.96 148.56 126.00 147.75 124.88 C 146.94 123.75 146.02 122.77 144.75 121.62 C 143.48 120.48 143.75 120.27 140.12 118.00 C 136.50 115.73 126.29 109.83 123.00 108.00 C 119.71 106.17 121.31 107.17 120.38 107.00 C 119.44 106.83 118.81 106.67 117.38 107.00 C 115.94 107.33 114.29 107.88 111.75 109.00 C 109.21 110.12 105.65 112.31 102.12 113.75 C 98.60 115.19 95.81 116.12 90.62 117.62 C 85.44 119.12 75.83 121.62 71.00 122.75 C 66.17 123.88 63.52 123.96 61.62 124.38 C 59.73 124.79 59.94 124.96 59.62 125.25 Z" id="s-1-f-6"/>
<path d="M 149.88 130.50 C 149.92 130.12 149.96 129.48 149.75 128.75 C 149.54 128.02 149.73 127.54 148.62 126.12 C 147.52 124.71 146.50 122.77 143.12 120.25 C 139.75 117.73 132.17 113.21 128.38 111.00 C 124.58 108.79 122.33 107.65 120.38 107.00 C 118.42 106.35 118.06 106.79 116.62 107.12 C 115.19 107.46 114.12 107.92 111.75 109.00 C 109.38 110.08 106.00 112.17 102.38 113.62 C 98.75 115.08 95.23 116.23 90.00 117.75 C 84.77 119.27 75.73 121.65 71.00 122.75 C 66.27 123.85 63.52 123.96 61.62 124.38 C 59.73 124.79 59.94 124.96 59.62 125.25 C 59.31 125.54 59.46 125.67 59.75 126.12 C 60.04 126.58 60.23 126.19 61.38 128.00 C 62.52 129.81 65.58 135.35 66.62 137.00 C 67.67 138.65 67.10 137.75 67.62 137.88 C 68.15 138.00 67.67 138.40 69.75 137.75 C 71.83 137.10 77.27 134.92 80.12 134.00 C 82.98 133.08 84.35 132.75 86.88 132.25 C 89.40 131.75 89.92 131.04 95.25 131.00 C 100.58 130.96 109.83 132.00 118.88 132.00 C 127.92 132.00 144.33 131.25 149.50 131.00 C 154.67 130.75 149.83 130.88 149.88 130.50 Z" id="s-1-f-7"/>
<path d="M 107.88 111.50 C 107.69 108.46 108.23 110.85 106.88 111.38 C 105.52 111.90 103.62 113.25 99.75 114.62 C 95.88 116.00 88.42 118.27 83.62 119.62 C 78.83 120.98 74.67 121.96 71.00 122.75 C 67.33 123.54 63.50 123.98 61.62 124.38 C 59.75 124.77 60.06 124.83 59.75 125.12 C 59.44 125.42 59.62 125.88 59.75 126.12 C 59.88 126.38 59.73 125.52 60.50 126.62 C 61.27 127.73 63.33 130.98 64.38 132.75 C 65.42 134.52 66.19 136.40 66.75 137.25 C 67.31 138.10 66.71 137.96 67.75 137.88 C 68.79 137.79 70.31 137.56 73.00 136.75 C 75.69 135.94 80.77 133.90 83.88 133.00 C 86.98 132.10 88.71 131.71 91.62 131.38 C 94.54 131.04 98.77 130.98 101.38 131.00 C 103.98 131.02 106.17 131.50 107.25 131.50 C 108.33 131.50 107.75 131.31 107.88 131.00 C 108.00 130.69 108.00 132.88 108.00 129.62 C 108.00 126.38 108.06 114.54 107.88 111.50 Z" id="s-1-f-8"/>
</g>
<g id="s-2" clip-path="url(#c-s-2)">
<use href="#s-2-f-0"/>
<path d="M 113.88 228.25 C 113.21 225.62 111.58 227.38 110.00 227.00 C 108.42 226.62 106.10 226.17 104.38 226.00 C 102.65 225.83 101.35 225.56 99.62 226.00 C 97.90 226.44 96.83 227.50 94.00 228.62 C 91.17 229.75 87.33 231.38 82.62 232.75 C 77.92 234.12 68.60 233.77 65.75 236.88 C 62.90 239.98 65.48 248.88 65.50 251.38 C 65.52 253.88 63.90 251.85 65.88 251.88 C 67.85 251.90 69.46 252.71 77.38 251.50 C 85.29 250.29 107.27 246.08 113.38 244.62 C 119.48 243.17 113.92 245.48 114.00 242.75 C 114.08 240.02 114.54 230.88 113.88 228.25 Z" id="s-2-f-1"/>
</g>
<g id="s-3" clip-path="url(#c-s-3)">
<use href="#s-3-f-0"/>
<path d="M 109.00 348.25 C 108.90 345.42 109.25 347.90 108.50 347.88 C 107.75 347.85 109.04 347.15 104.50 348.12 C 99.96 349.10 88.21 352.29 81.25 353.75 C 74.29 355.21 66.02 355.71 62.75 356.88 C 59.48 358.04 62.00 358.17 61.62 360.75 C 61.25 363.33 60.35 370.38 60.50 372.38 C 60.65 374.38 59.67 373.15 62.50 372.75 C 65.33 372.35 70.58 371.12 77.50 370.00 C 84.42 368.88 98.88 366.71 104.00 366.00 C 109.12 365.29 107.40 365.94 108.25 365.75 C 109.10 365.56 109.00 367.79 109.12 364.88 C 109.25 361.96 109.10 351.08 109.00 348.25 Z" id="s-3-f-1"/>
</g>
<g id="s-4" clip-path="url(#c-s-4)">
<use href="#s-4-f-0"/>
<path d="M 408.88 102.25 C 408.35 97.75 407.00 101.21 405.88 101.00 C 404.75 100.79 408.00 99.85 402.12 101.00 C 396.25 102.15 378.81 106.56 370.62 107.88 C 362.44 109.19 360.38 108.04 353.00 108.88 C 345.62 109.71 331.48 112.19 326.38 112.88 C 321.27 113.56 323.50 112.85 322.38 113.00 C 321.25 113.15 323.50 113.25 319.62 113.75 C 315.75 114.25 306.42 115.00 299.12 116.00 C 291.83 117.00 280.40 119.10 275.88 119.75 C 271.35 120.40 275.25 119.50 272.00 119.88 C 268.75 120.25 263.94 120.71 256.38 122.00 C 248.81 123.29 235.02 126.17 226.62 127.62 C 218.23 129.08 212.60 129.94 206.00 130.75 C 199.40 131.56 192.40 132.12 187.00 132.50 C 181.60 132.88 176.23 132.77 173.62 133.00 C 171.02 133.23 172.00 133.50 171.38 133.88 C 170.75 134.25 170.27 134.75 169.88 135.25 C 169.48 135.75 169.17 136.17 169.00 136.88 C 168.83 137.58 168.29 138.40 168.88 139.50 C 169.46 140.60 169.56 141.29 172.50 143.50 C 175.44 145.71 182.83 150.56 186.50 152.75 C 190.17 154.94 192.67 155.81 194.50 156.62 C 196.33 157.44 196.35 157.42 197.50 157.62 C 198.65 157.83 200.06 158.02 201.38 157.88 C 202.69 157.73 202.46 157.85 205.38 156.75 C 208.29 155.65 212.23 153.38 218.88 151.25 C 225.52 149.12 232.85 146.71 245.25 144.00 C 257.65 141.29 280.02 137.17 293.25 135.00 C 306.48 132.83 318.33 131.69 324.62 131.00 C 330.92 130.31 326.40 131.23 331.00 130.88 C 335.60 130.52 342.94 129.17 352.25 128.88 C 361.56 128.58 377.50 128.92 386.88 129.12 C 396.25 129.33 404.81 130.31 408.50 130.12 C 412.19 129.94 408.94 132.65 409.00 128.00 C 409.06 123.35 409.40 106.75 408.88 102.25 Z" id="s-4-f-1"/>
<path d="M 360.75 109.12 C 360.62 105.85 361.54 108.79 360.25 108.75 C 358.96 108.71 358.65 108.19 353.00 108.88 C 347.35 109.56 334.29 111.83 326.38 112.88 C 318.46 113.92 313.92 113.98 305.50 115.12 C 297.08 116.27 281.46 118.96 275.88 119.75 C 270.29 120.54 275.25 119.50 272.00 119.88 C 268.75 120.25 263.94 120.71 256.38 122.00 C 248.81 123.29 235.02 126.17 226.62 127.62 C 218.23 129.08 212.58 129.94 206.00 130.75 C 199.42 131.56 192.52 132.12 187.12 132.50 C 181.73 132.88 176.25 132.77 173.62 133.00 C 171.00 133.23 172.00 133.50 171.38 133.88 C 170.75 134.25 170.27 134.75 169.88 135.25 C 169.48 135.75 169.17 136.17 169.00 136.88 C 168.83 137.58 168.42 138.50 168.88 139.50 C 169.33 140.50 170.67 141.85 171.75 142.88 C 172.83 143.90 172.56 143.79 175.38 145.62 C 178.19 147.46 185.81 152.19 188.62 153.88 C 191.44 155.56 190.77 155.12 192.25 155.75 C 193.73 156.38 195.81 157.29 197.50 157.62 C 199.19 157.96 198.77 158.83 202.38 157.75 C 205.98 156.67 213.96 152.92 219.12 151.12 C 224.29 149.33 227.52 148.52 233.38 147.00 C 239.23 145.48 249.25 143.04 254.25 142.00 C 259.25 140.96 257.02 141.90 263.38 140.75 C 269.73 139.60 282.17 136.75 292.38 135.12 C 302.58 133.50 318.19 131.71 324.62 131.00 C 331.06 130.29 326.40 131.23 331.00 130.88 C 335.60 130.52 347.31 129.23 352.25 128.88 C 357.19 128.52 359.17 128.83 360.62 128.75 C 362.08 128.67 360.98 131.65 361.00 128.38 C 361.02 125.10 360.88 112.40 360.75 109.12 Z" id="s-4-f-2"/>
<path d="M 313.00 116.12 C 312.96 113.48 312.96 115.27 312.75 115.00 C 312.54 114.73 312.96 114.48 311.75 114.50 C 310.54 114.52 311.48 114.25 305.50 115.12 C 299.52 116.00 283.94 118.62 275.88 119.75 C 267.81 120.88 265.33 120.56 257.12 121.88 C 248.92 123.19 235.15 126.15 226.62 127.62 C 218.10 129.10 212.31 129.96 206.00 130.75 C 199.69 131.54 194.15 132.00 188.75 132.38 C 183.35 132.75 176.52 132.75 173.62 133.00 C 170.73 133.25 172.00 133.50 171.38 133.88 C 170.75 134.25 170.27 134.75 169.88 135.25 C 169.48 135.75 169.17 136.17 169.00 136.88 C 168.83 137.58 168.42 138.50 168.88 139.50 C 169.33 140.50 170.67 141.85 171.75 142.88 C 172.83 143.90 172.56 143.79 175.38 145.62 C 178.19 147.46 185.81 152.19 188.62 153.88 C 191.44 155.56 190.77 155.12 192.25 155.75 C 193.73 156.38 195.81 157.29 197.50 157.62 C 199.19 157.96 198.77 158.83 202.38 157.75 C 205.98 156.67 211.98 153.42 219.12 151.12 C 226.27 148.83 232.90 146.69 245.25 144.00 C 257.60 141.31 282.06 136.88 293.25 135.00 C 304.44 133.12 309.08 133.44 312.38 132.75 C 315.67 132.06 312.90 133.65 313.00 130.88 C 313.10 128.10 313.04 118.77 313.00 116.12 Z" id="s-4-f-3"/>
<path d="M 264.88 121.38 C 264.65 118.42 264.92 120.92 263.62 121.00 C 262.33 121.08 263.29 120.77 257.12 121.88 C 250.96 122.98 235.15 126.15 226.62 127.62 C 218.10 129.10 212.31 129.96 206.00 130.75 C 199.69 131.54 194.15 132.00 188.75 132.38 C 183.35 132.75 176.52 132.75 173.62 133.00 C 170.73 133.25 172.00 133.50 171.38 133.88 C 170.75 134.25 170.27 134.75 169.88 135.25 C 169.48 135.75 169.17 136.17 169.00 136.88 C 168.83 137.58 168.42 138.50 168.88 139.50 C 169.33 140.50 170.81 141.96 171.75 142.88 C 172.69 143.79 171.69 143.17 174.50 145.00 C 177.31 146.83 185.67 152.08 188.62 153.88 C 191.58 155.67 190.77 155.12 192.25 155.75 C 193.73 156.38 195.81 157.29 197.50 157.62 C 199.19 157.96 199.25 158.67 202.38 157.75 C 205.50 156.83 211.79 153.73 216.25 152.12 C 220.71 150.52 222.79 149.81 229.12 148.12 C 235.46 146.44 249.58 143.04 254.25 142.00 C 258.92 140.96 255.40 142.17 257.12 141.88 C 258.85 141.58 263.31 140.77 264.62 140.25 C 265.94 139.73 264.96 141.90 265.00 138.75 C 265.04 135.60 265.10 124.33 264.88 121.38 Z" id="s-4-f-4"/>
<path d="M 216.88 151.50 C 217.17 147.88 217.02 134.65 217.00 131.00 C 216.98 127.35 216.90 129.94 216.75 129.62 C 216.60 129.31 219.52 128.77 216.12 129.12 C 212.73 129.48 203.46 131.10 196.38 131.75 C 189.29 132.40 177.85 132.60 173.62 133.00 C 169.40 133.40 171.75 133.56 171.00 134.12 C 170.25 134.69 169.46 135.42 169.12 136.38 C 168.79 137.33 168.44 138.69 169.00 139.88 C 169.56 141.06 169.60 141.35 172.50 143.50 C 175.40 145.65 183.08 150.71 186.38 152.75 C 189.67 154.79 190.46 154.96 192.25 155.75 C 194.04 156.54 195.92 157.15 197.12 157.50 C 198.33 157.85 198.54 157.85 199.50 157.88 C 200.46 157.90 200.25 158.48 202.88 157.62 C 205.50 156.77 212.92 153.77 215.25 152.75 C 217.58 151.73 216.58 155.12 216.88 151.50 Z" id="s-4-f-5"/>
</g>
<g id="s-5" clip-path="url(#c-s-5)">
<use href="#s-5-f-0"/>
<path d="M 237.50 60.00 C 235.94 60.19 236.02 60.69 235.50 61.12 C 234.98 61.56 234.65 62.08 234.38 62.62 C 234.10 63.17 233.94 63.67 233.88 64.38 C 233.81 65.08 233.35 65.73 234.00 66.88 C 234.65 68.02 236.46 69.42 237.75 71.25 C 239.04 73.08 240.58 75.75 241.75 77.88 C 242.92 80.00 243.75 81.54 244.75 84.00 C 245.75 86.46 246.90 89.62 247.75 92.62 C 248.60 95.62 249.04 97.15 249.88 102.00 C 250.71 106.85 252.29 117.29 252.75 121.75 C 253.21 126.21 252.50 126.98 252.62 128.75 C 252.75 130.52 253.31 130.62 253.50 132.38 C 253.69 134.12 253.38 137.31 253.75 139.25 C 254.12 141.19 254.71 136.69 255.75 144.00 C 256.79 151.31 258.94 174.42 260.00 183.12 C 261.06 191.83 261.44 193.12 262.12 196.25 C 262.81 199.38 263.56 200.60 264.12 201.88 C 264.69 203.15 263.10 203.54 265.50 203.88 C 267.90 204.21 276.25 204.00 278.50 203.88 C 280.75 203.75 278.58 205.54 279.00 203.12 C 279.42 200.71 280.73 193.02 281.00 189.38 C 281.27 185.73 281.29 189.56 280.62 181.25 C 279.96 172.94 277.58 147.67 277.00 139.50 C 276.42 131.33 277.23 133.81 277.12 132.25 C 277.02 130.69 276.54 131.62 276.38 130.12 C 276.21 128.62 276.38 125.06 276.12 123.25 C 275.88 121.44 275.29 121.88 274.88 119.25 C 274.46 116.62 274.10 110.90 273.62 107.50 C 273.15 104.10 272.48 104.52 272.00 98.88 C 271.52 93.23 271.12 78.21 270.75 73.62 C 270.38 69.04 270.44 72.29 269.75 71.38 C 269.06 70.46 267.65 69.02 266.62 68.12 C 265.60 67.23 264.73 66.65 263.62 66.00 C 262.52 65.35 262.12 65.08 260.00 64.25 C 257.88 63.42 253.40 61.71 250.88 61.00 C 248.35 60.29 247.10 60.17 244.88 60.00 C 242.65 59.83 239.06 59.81 237.50 60.00 Z" id="s-5-f-1"/>
<path d="M 236.62 60.38 C 236.06 60.65 235.56 60.98 235.12 61.50 C 234.69 62.02 234.19 62.60 234.00 63.50 C 233.81 64.40 233.38 65.58 234.00 66.88 C 234.62 68.17 236.46 69.42 237.75 71.25 C 239.04 73.08 240.44 75.38 241.75 77.88 C 243.06 80.38 244.46 83.19 245.62 86.25 C 246.79 89.31 247.56 90.33 248.75 96.25 C 249.94 102.17 252.10 116.33 252.75 121.75 C 253.40 127.17 252.50 126.98 252.62 128.75 C 252.75 130.52 253.31 130.62 253.50 132.38 C 253.69 134.12 253.38 137.33 253.75 139.25 C 254.12 141.17 255.19 141.21 255.75 143.88 C 256.31 146.54 256.62 153.23 257.12 155.25 C 257.62 157.27 255.25 155.90 258.75 156.00 C 262.25 156.10 274.81 156.08 278.12 155.88 C 281.44 155.67 278.81 157.48 278.62 154.75 C 278.44 152.02 277.25 143.25 277.00 139.50 C 276.75 135.75 277.23 133.81 277.12 132.25 C 277.02 130.69 276.54 131.62 276.38 130.12 C 276.21 128.62 276.38 125.06 276.12 123.25 C 275.88 121.44 275.29 121.88 274.88 119.25 C 274.46 116.62 274.10 110.90 273.62 107.50 C 273.15 104.10 272.50 104.58 272.00 98.88 C 271.50 93.17 271.00 77.83 270.62 73.25 C 270.25 68.67 270.62 72.40 269.75 71.38 C 268.88 70.35 267.48 68.50 265.38 67.12 C 263.27 65.75 259.44 64.12 257.12 63.12 C 254.81 62.12 253.33 61.62 251.50 61.12 C 249.67 60.62 248.29 60.33 246.12 60.12 C 243.96 59.92 240.08 59.83 238.50 59.88 C 236.92 59.92 237.19 60.10 236.62 60.38 Z" id="s-5-f-2"/>
<path d="M 235.50 61.12 C 234.92 61.71 234.25 62.54 234.00 63.50 C 233.75 64.46 233.38 65.58 234.00 66.88 C 234.62 68.17 236.46 69.42 237.75 71.25 C 239.04 73.08 240.56 75.71 241.75 77.88 C 242.94 80.04 243.71 81.19 244.88 84.25 C 246.04 87.31 247.75 92.35 248.75 96.25 C 249.75 100.15 249.40 105.67 250.88 107.62 C 252.35 109.58 253.90 107.98 257.62 108.00 C 261.35 108.02 270.60 107.94 273.25 107.75 C 275.90 107.56 273.73 108.58 273.50 106.88 C 273.27 105.17 272.33 103.06 271.88 97.50 C 271.42 91.94 271.21 77.98 270.75 73.50 C 270.29 69.02 270.31 71.88 269.12 70.62 C 267.94 69.38 266.56 67.58 263.62 66.00 C 260.69 64.42 255.10 62.15 251.50 61.12 C 247.90 60.10 244.33 60.06 242.00 59.88 C 239.67 59.69 238.58 59.79 237.50 60.00 C 236.42 60.21 236.08 60.54 235.50 61.12 Z" id="s-5-f-3"/>
</g>
<g id="s-6" clip-path="url(#c-s-6)">
<use href="#s-6-f-0"/>
<path d="M 329.62 43.00 C 328.04 43.17 327.81 43.58 327.12 44.00 C 326.44 44.42 326.00 44.88 325.50 45.50 C 325.00 46.12 324.38 46.71 324.12 47.75 C 323.88 48.79 323.75 50.50 324.00 51.75 C 324.25 53.00 325.04 53.54 325.62 55.25 C 326.21 56.96 326.98 59.19 327.50 62.00 C 328.02 64.81 328.69 66.15 328.75 72.12 C 328.81 78.10 328.19 91.19 327.88 97.88 C 327.56 104.56 327.23 108.90 326.88 112.25 C 326.52 115.60 325.94 114.69 325.75 118.00 C 325.56 121.31 325.85 128.73 325.75 132.12 C 325.65 135.52 324.94 137.23 325.12 138.38 C 325.31 139.52 322.77 138.94 326.88 139.00 C 330.98 139.06 345.79 139.04 349.75 138.75 C 353.71 138.46 350.21 139.04 350.62 137.25 C 351.04 135.46 351.83 129.65 352.25 128.00 C 352.67 126.35 352.94 128.15 353.12 127.38 C 353.31 126.60 353.21 124.27 353.38 123.38 C 353.54 122.48 353.79 123.67 354.12 122.00 C 354.46 120.33 355.04 115.02 355.38 113.38 C 355.71 111.73 356.02 113.04 356.12 112.12 C 356.23 111.21 355.35 112.08 356.00 107.88 C 356.65 103.67 358.67 92.27 360.00 86.88 C 361.33 81.48 362.56 78.69 364.00 75.50 C 365.44 72.31 367.83 69.67 368.62 67.75 C 369.42 65.83 369.02 65.19 368.75 64.00 C 368.48 62.81 368.27 62.19 367.00 60.62 C 365.73 59.06 363.10 56.35 361.12 54.62 C 359.15 52.90 357.19 51.52 355.12 50.25 C 353.06 48.98 351.06 48.02 348.75 47.00 C 346.44 45.98 343.27 44.79 341.25 44.12 C 339.23 43.46 338.56 43.19 336.62 43.00 C 334.69 42.81 331.21 42.83 329.62 43.00 Z" id="s-6-f-1"/>
<path d="M 327.12 44.00 C 326.33 44.54 325.38 45.62 324.88 46.25 C 324.38 46.88 324.29 46.96 324.12 47.75 C 323.96 48.54 323.44 49.15 323.88 51.00 C 324.31 52.85 325.98 55.90 326.75 58.88 C 327.52 61.85 328.17 65.42 328.50 68.88 C 328.83 72.33 328.79 76.04 328.75 79.62 C 328.71 83.21 328.25 88.50 328.25 90.38 C 328.25 92.25 323.98 90.77 328.75 90.88 C 333.52 90.98 351.83 91.04 356.88 91.00 C 361.92 90.96 357.98 92.83 359.00 90.62 C 360.02 88.42 361.38 81.62 363.00 77.75 C 364.62 73.88 367.79 69.67 368.75 67.38 C 369.71 65.08 369.04 65.12 368.75 64.00 C 368.46 62.88 368.25 62.15 367.00 60.62 C 365.75 59.10 363.02 56.48 361.25 54.88 C 359.48 53.27 358.75 52.44 356.38 51.00 C 354.00 49.56 350.29 47.58 347.00 46.25 C 343.71 44.92 339.52 43.54 336.62 43.00 C 333.73 42.46 331.21 42.83 329.62 43.00 C 328.04 43.17 327.92 43.46 327.12 44.00 Z" id="s-6-f-2"/>
</g>
<g id="s-7" clip-path="url(#c-s-7)">
<use href="#s-7-f-0"/>
<path d="M 326.88 179.75 C 326.56 177.23 326.06 179.02 325.12 178.62 C 324.19 178.23 322.48 177.35 321.25 177.38 C 320.02 177.40 321.46 177.69 317.75 178.75 C 314.04 179.81 305.17 182.23 299.00 183.75 C 292.83 185.27 283.96 186.73 280.75 187.88 C 277.54 189.02 280.12 188.19 279.75 190.62 C 279.38 193.06 278.65 200.46 278.50 202.50 C 278.35 204.54 277.21 202.83 278.88 202.88 C 280.54 202.92 285.56 202.94 288.50 202.75 C 291.44 202.56 290.19 202.94 296.50 201.75 C 302.81 200.56 321.29 196.96 326.38 195.62 C 331.46 194.29 326.92 196.40 327.00 193.75 C 327.08 191.10 327.19 182.27 326.88 179.75 Z" id="s-7-f-1"/>
</g>
<g id="s-8" clip-path="url(#c-s-8)">
<use href="#s-8-f-0"/>
<path d="M 250.38 244.88 C 249.90 245.23 249.48 245.54 249.25 246.12 C 249.02 246.71 248.52 247.67 249.00 248.38 C 249.48 249.08 251.17 249.56 252.12 250.38 C 253.08 251.19 253.85 252.15 254.75 253.25 C 255.65 254.35 256.67 255.62 257.50 257.00 C 258.33 258.38 258.71 258.52 259.75 261.50 C 260.79 264.48 262.56 269.85 263.75 274.88 C 264.94 279.90 266.12 288.77 266.88 291.62 C 267.62 294.48 265.60 291.98 268.25 292.00 C 270.90 292.02 280.17 291.88 282.75 291.75 C 285.33 291.62 283.58 291.85 283.75 291.25 C 283.92 290.65 284.21 291.90 283.75 288.12 C 283.29 284.35 281.48 273.29 281.00 268.62 C 280.52 263.96 281.83 263.35 280.88 260.12 C 279.92 256.90 276.73 251.42 275.25 249.25 C 273.77 247.08 274.23 247.98 272.00 247.12 C 269.77 246.27 265.19 244.65 261.88 244.12 C 258.56 243.60 254.04 243.88 252.12 244.00 C 250.21 244.12 250.85 244.52 250.38 244.88 Z" id="s-8-f-1"/>
</g>
<g id="s-9" clip-path="url(#c-s-9)">
<use href="#s-9-f-0"/>
<path d="M 274.75 249.12 C 274.29 249.44 274.35 249.46 274.62 250.00 C 274.90 250.54 276.04 251.73 276.38 252.38 C 276.71 253.02 276.46 253.50 276.62 253.88 C 276.79 254.25 277.02 253.94 277.38 254.62 C 277.73 255.31 278.17 256.96 278.75 258.00 C 279.33 259.04 279.58 260.58 280.88 260.88 C 282.17 261.17 281.98 261.08 286.50 259.75 C 291.02 258.42 303.54 254.17 308.00 252.88 C 312.46 251.58 311.69 252.15 313.25 252.00 C 314.81 251.85 316.23 251.85 317.38 252.00 C 318.52 252.15 319.52 252.60 320.12 252.88 C 320.73 253.15 320.73 253.19 321.00 253.62 C 321.27 254.06 321.69 253.77 321.75 255.50 C 321.81 257.23 321.71 260.65 321.38 264.00 C 321.04 267.35 320.69 270.15 319.75 275.62 C 318.81 281.10 316.40 293.19 315.75 296.88 C 315.10 300.56 315.62 297.56 315.88 297.75 C 316.12 297.94 314.15 297.96 317.25 298.00 C 320.35 298.04 331.33 298.10 334.50 298.00 C 337.67 297.90 335.17 300.46 336.25 297.38 C 337.33 294.29 339.85 283.52 341.00 279.50 C 342.15 275.48 342.10 275.77 343.12 273.25 C 344.15 270.73 345.35 267.42 347.12 264.38 C 348.90 261.33 352.46 257.25 353.75 255.00 C 355.04 252.75 354.71 252.12 354.88 250.88 C 355.04 249.62 355.00 248.54 354.75 247.50 C 354.50 246.46 354.17 245.69 353.38 244.62 C 352.58 243.56 351.50 242.23 350.00 241.12 C 348.50 240.02 346.83 239.19 344.38 238.00 C 341.92 236.81 337.77 234.98 335.25 234.00 C 332.73 233.02 331.17 232.46 329.25 232.12 C 327.33 231.79 325.15 231.83 323.75 232.00 C 322.35 232.17 323.31 231.85 320.88 233.12 C 318.44 234.40 312.40 238.02 309.12 239.62 C 305.85 241.23 305.15 241.56 301.25 242.75 C 297.35 243.94 289.73 245.85 285.75 246.75 C 281.77 247.65 279.21 247.73 277.38 248.12 C 275.54 248.52 275.21 248.81 274.75 249.12 Z" id="s-9-f-1"/>
<path d="M 354.88 248.25 C 354.62 247.44 353.83 245.50 353.38 244.62 C 352.92 243.75 353.19 243.90 352.12 243.00 C 351.06 242.10 350.31 240.92 347.00 239.25 C 343.69 237.58 335.35 234.21 332.25 233.00 C 329.15 231.79 329.77 232.17 328.38 232.00 C 326.98 231.83 325.42 231.67 323.88 232.00 C 322.33 232.33 321.98 232.54 319.12 234.00 C 316.27 235.46 310.88 238.96 306.75 240.75 C 302.62 242.54 299.27 243.52 294.38 244.75 C 289.48 245.98 280.60 247.44 277.38 248.12 C 274.15 248.81 275.46 248.56 275.00 248.88 C 274.54 249.19 274.40 249.42 274.62 250.00 C 274.85 250.58 276.04 251.73 276.38 252.38 C 276.71 253.02 276.46 253.50 276.62 253.88 C 276.79 254.25 276.85 253.62 277.38 254.62 C 277.90 255.62 279.08 258.83 279.75 259.88 C 280.42 260.92 279.69 261.06 281.38 260.88 C 283.06 260.69 285.54 260.06 289.88 258.75 C 294.21 257.44 303.15 254.15 307.38 253.00 C 311.60 251.85 312.52 252.06 315.25 251.88 C 317.98 251.69 317.29 252.17 323.75 251.88 C 330.21 251.58 348.81 250.52 354.00 250.12 C 359.19 249.73 354.73 249.81 354.88 249.50 C 355.02 249.19 355.12 249.06 354.88 248.25 Z" id="s-9-f-2"/>
<path d="M 322.88 233.00 C 322.75 230.06 324.54 231.52 322.25 232.62 C 319.96 233.73 312.62 237.94 309.12 239.62 C 305.62 241.31 305.15 241.56 301.25 242.75 C 297.35 243.94 289.73 245.85 285.75 246.75 C 281.77 247.65 279.17 247.77 277.38 248.12 C 275.58 248.48 275.46 248.56 275.00 248.88 C 274.54 249.19 274.40 249.42 274.62 250.00 C 274.85 250.58 276.04 251.73 276.38 252.38 C 276.71 253.02 276.46 253.50 276.62 253.88 C 276.79 254.25 276.85 253.62 277.38 254.62 C 277.90 255.62 279.17 258.83 279.75 259.88 C 280.33 260.92 279.17 261.06 280.88 260.88 C 282.58 260.69 285.58 260.06 290.00 258.75 C 294.42 257.44 303.50 254.12 307.38 253.00 C 311.25 251.88 310.79 252.21 313.25 252.00 C 315.71 251.79 320.54 251.85 322.12 251.75 C 323.71 251.65 322.60 251.62 322.75 251.38 C 322.90 251.12 322.98 253.31 323.00 250.25 C 323.02 247.19 323.00 235.94 322.88 233.00 Z" id="s-9-f-3"/>
</g>
<g id="s-10" clip-path="url(#c-s-10)">
<use href="#s-10-f-0"/>
<path d="M 333.88 306.00 C 333.73 304.23 333.94 305.60 333.12 305.38 C 332.31 305.15 330.65 304.77 329.00 304.62 C 327.35 304.48 324.92 304.67 323.25 304.50 C 321.58 304.33 320.33 303.79 319.00 303.62 C 317.67 303.46 318.73 302.69 315.25 303.50 C 311.77 304.31 303.00 307.27 298.12 308.50 C 293.25 309.73 288.10 310.42 286.00 310.88 C 283.90 311.33 285.58 309.15 285.50 311.25 C 285.42 313.35 285.27 321.40 285.50 323.50 C 285.73 325.60 285.38 323.85 286.88 323.88 C 288.38 323.90 286.77 324.73 294.50 323.62 C 302.23 322.52 326.67 318.52 333.25 317.25 C 339.83 315.98 333.90 317.88 334.00 316.00 C 334.10 314.12 334.02 307.77 333.88 306.00 Z" id="s-10-f-1"/>
</g>
<g id="s-11" clip-path="url(#c-s-11)">
<use href="#s-11-f-0"/>
<path d="M 208.62 199.00 C 207.00 199.15 207.00 199.50 206.38 199.88 C 205.75 200.25 205.27 200.75 204.88 201.25 C 204.48 201.75 204.12 202.00 204.00 202.88 C 203.88 203.75 203.67 205.33 204.12 206.50 C 204.58 207.67 206.12 208.88 206.75 209.88 C 207.38 210.88 207.38 210.73 207.88 212.50 C 208.38 214.27 208.90 206.90 209.75 220.50 C 210.60 234.10 212.35 281.73 213.00 294.12 C 213.65 306.52 213.31 294.73 213.62 294.88 C 213.94 295.02 211.88 295.00 214.88 295.00 C 217.88 295.00 228.73 294.98 231.62 294.88 C 234.52 294.77 231.85 305.60 232.25 294.38 C 232.65 283.15 233.38 240.29 234.00 227.50 C 234.62 214.71 235.38 219.96 236.00 217.62 C 236.62 215.29 237.46 214.88 237.75 213.50 C 238.04 212.12 238.23 210.65 237.75 209.38 C 237.27 208.10 235.83 206.79 234.88 205.88 C 233.92 204.96 233.10 204.50 232.00 203.88 C 230.90 203.25 229.96 202.75 228.25 202.12 C 226.54 201.50 223.77 200.65 221.75 200.12 C 219.73 199.60 218.31 199.19 216.12 199.00 C 213.94 198.81 210.25 198.85 208.62 199.00 Z" id="s-11-f-1"/>
<path d="M 206.38 199.88 C 205.60 200.44 204.54 201.44 204.12 202.38 C 203.71 203.31 203.88 204.81 203.88 205.50 C 203.88 206.19 203.65 205.77 204.12 206.50 C 204.60 207.23 206.12 208.88 206.75 209.88 C 207.38 210.88 207.40 210.85 207.88 212.50 C 208.35 214.15 209.10 214.04 209.62 219.75 C 210.15 225.46 207.06 242.25 211.00 246.75 C 214.94 251.25 229.46 247.38 233.25 246.75 C 237.04 246.12 233.62 246.21 233.75 243.00 C 233.88 239.79 233.62 231.73 234.00 227.50 C 234.38 223.27 235.38 219.96 236.00 217.62 C 236.62 215.29 237.48 214.92 237.75 213.50 C 238.02 212.08 237.96 210.27 237.62 209.12 C 237.29 207.98 236.94 207.65 235.75 206.62 C 234.56 205.60 232.31 203.94 230.50 203.00 C 228.69 202.06 227.27 201.67 224.88 201.00 C 222.48 200.33 218.81 199.33 216.12 199.00 C 213.44 198.67 210.38 198.85 208.75 199.00 C 207.12 199.15 207.15 199.31 206.38 199.88 Z" id="s-11-f-2"/>
</g>
<g id="s-12" clip-path="url(#c-s-12)">
<use href="#s-12-f-0"/>
<path d="M 205.88 246.38 C 205.75 243.58 205.98 245.92 205.25 245.88 C 204.52 245.83 205.79 244.98 201.50 246.12 C 197.21 247.27 184.85 251.31 179.50 252.75 C 174.15 254.19 172.69 254.21 169.38 254.75 C 166.06 255.29 161.52 255.48 159.62 256.00 C 157.73 256.52 158.25 256.83 158.00 257.88 C 157.75 258.92 157.92 261.08 158.12 262.25 C 158.33 263.42 158.79 264.15 159.25 264.88 C 159.71 265.60 159.90 266.06 160.88 266.62 C 161.85 267.19 163.58 267.88 165.12 268.25 C 166.67 268.62 167.85 268.81 170.12 268.88 C 172.40 268.94 172.90 269.35 178.75 268.62 C 184.60 267.90 200.73 265.29 205.25 264.50 C 209.77 263.71 205.75 264.19 205.88 263.88 C 206.00 263.56 206.00 265.54 206.00 262.62 C 206.00 259.71 206.00 249.17 205.88 246.38 Z" id="s-12-f-1"/>
</g>
<g id="s-13" clip-path="url(#c-s-13)">
<use href="#s-13-f-0"/>
<path d="M 247.88 304.62 C 247.50 303.56 246.92 303.40 245.50 303.12 C 244.08 302.85 241.38 302.73 239.38 303.00 C 237.38 303.27 234.98 304.50 233.50 304.75 C 232.02 305.00 231.27 304.40 230.50 304.50 C 229.73 304.60 229.56 305.19 228.88 305.38 C 228.19 305.56 226.98 305.46 226.38 305.62 C 225.77 305.79 225.85 306.21 225.25 306.38 C 224.65 306.54 223.35 306.46 222.75 306.62 C 222.15 306.79 222.27 307.19 221.62 307.38 C 220.98 307.56 219.48 307.58 218.88 307.75 C 218.27 307.92 218.62 308.25 218.00 308.38 C 217.38 308.50 215.77 308.29 215.12 308.50 C 214.48 308.71 218.73 308.23 214.12 309.62 C 209.52 311.02 193.94 315.52 187.50 316.88 C 181.06 318.23 179.60 317.88 175.50 317.75 C 171.40 317.62 166.23 316.42 162.88 316.12 C 159.52 315.83 156.98 315.88 155.38 316.00 C 153.77 316.12 153.77 316.54 153.25 316.88 C 152.73 317.21 152.46 317.29 152.25 318.00 C 152.04 318.71 151.88 320.25 152.00 321.12 C 152.12 322.00 151.83 321.69 153.00 323.25 C 154.17 324.81 156.08 327.58 159.00 330.50 C 161.92 333.42 167.81 338.56 170.50 340.75 C 173.19 342.94 173.60 342.81 175.12 343.62 C 176.65 344.44 178.12 345.27 179.62 345.62 C 181.12 345.98 182.33 346.54 184.12 345.75 C 185.92 344.96 187.15 343.15 190.38 340.88 C 193.60 338.60 194.58 336.77 203.50 332.12 C 212.42 327.48 236.71 316.50 243.88 313.00 C 251.04 309.50 245.85 311.71 246.50 311.12 C 247.15 310.54 247.52 310.58 247.75 309.50 C 247.98 308.42 248.25 305.69 247.88 304.62 Z" id="s-13-f-1"/>
<path d="M 199.88 334.25 C 202.48 329.19 200.06 318.65 200.00 315.25 C 199.94 311.85 199.96 314.06 199.50 313.88 C 199.04 313.69 199.12 313.65 197.25 314.12 C 195.38 314.60 191.02 316.17 188.25 316.75 C 185.48 317.33 182.75 317.46 180.62 317.62 C 178.50 317.79 178.46 318.00 175.50 317.75 C 172.54 317.50 166.23 316.42 162.88 316.12 C 159.52 315.83 156.98 315.88 155.38 316.00 C 153.77 316.12 153.77 316.54 153.25 316.88 C 152.73 317.21 152.46 317.29 152.25 318.00 C 152.04 318.71 151.88 320.25 152.00 321.12 C 152.12 322.00 151.83 321.69 153.00 323.25 C 154.17 324.81 156.08 327.58 159.00 330.50 C 161.92 333.42 167.81 338.56 170.50 340.75 C 173.19 342.94 173.60 342.81 175.12 343.62 C 176.65 344.44 178.08 345.29 179.62 345.62 C 181.17 345.96 181.00 347.52 184.38 345.62 C 187.75 343.73 197.27 339.31 199.88 334.25 Z" id="s-13-f-2"/>
</g>
<g id="s-14" clip-path="url(#c-s-14)">
<use href="#s-14-f-0"/>
<path d="M 433.62 228.50 C 433.44 228.17 434.73 228.42 432.88 228.00 C 431.02 227.58 424.90 226.33 422.50 226.00 C 420.10 225.67 420.08 225.40 418.50 226.00 C 416.92 226.60 416.12 228.17 413.00 229.62 C 409.88 231.08 404.00 233.25 399.75 234.75 C 395.50 236.25 389.69 237.83 387.50 238.62 C 385.31 239.42 386.92 237.56 386.62 239.50 C 386.33 241.44 385.83 248.02 385.75 250.25 C 385.67 252.48 385.48 252.29 386.12 252.88 C 386.77 253.46 387.60 253.62 389.62 253.75 C 391.65 253.88 393.60 254.46 398.25 253.62 C 402.90 252.79 413.10 250.02 417.50 248.75 C 421.90 247.48 422.67 246.52 424.62 246.00 C 426.58 245.48 427.77 245.90 429.25 245.62 C 430.73 245.35 432.71 244.71 433.50 244.38 C 434.29 244.04 433.92 246.02 434.00 243.62 C 434.08 241.23 434.06 232.52 434.00 230.00 C 433.94 227.48 433.81 228.83 433.62 228.50 Z" id="s-14-f-1"/>
</g>
<g id="s-15" clip-path="url(#c-s-15)">
<use href="#s-15-f-0"/>
<path d="M 363.38 185.25 C 362.56 185.60 361.67 186.04 361.25 187.00 C 360.83 187.96 360.90 189.81 360.88 191.00 C 360.85 192.19 360.65 191.85 361.12 194.12 C 361.60 196.40 363.17 201.44 363.75 204.62 C 364.33 207.81 364.42 197.08 364.62 213.25 C 364.83 229.42 364.75 285.69 365.00 301.62 C 365.25 317.56 365.62 306.65 366.12 308.88 C 366.62 311.10 367.38 313.29 368.00 315.00 C 368.62 316.71 368.94 317.50 369.88 319.12 C 370.81 320.75 372.19 323.12 373.62 324.75 C 375.06 326.38 376.79 327.71 378.50 328.88 C 380.21 330.04 381.31 330.79 383.88 331.75 C 386.44 332.71 391.15 334.00 393.88 334.62 C 396.60 335.25 398.10 335.29 400.25 335.50 C 402.40 335.71 403.21 335.85 406.75 335.88 C 410.29 335.90 418.96 336.04 421.50 335.62 C 424.04 335.21 421.92 337.40 422.00 333.38 C 422.08 329.35 422.08 315.48 422.00 311.50 C 421.92 307.52 422.88 309.46 421.50 309.50 C 420.12 309.54 415.94 311.21 413.75 311.75 C 411.56 312.29 411.06 312.42 408.38 312.75 C 405.69 313.08 400.38 313.58 397.62 313.75 C 394.88 313.92 393.27 313.88 391.88 313.75 C 390.48 313.62 390.08 313.42 389.25 313.00 C 388.42 312.58 387.60 312.35 386.88 311.25 C 386.15 310.15 385.25 307.88 384.88 306.38 C 384.50 304.88 384.77 303.23 384.62 302.25 C 384.48 301.27 384.10 303.62 384.00 300.50 C 383.90 297.38 383.83 289.81 384.00 283.50 C 384.17 277.19 384.69 267.65 385.00 262.62 C 385.31 257.60 385.65 255.06 385.88 253.38 C 386.10 251.69 386.33 252.77 386.38 252.50 C 386.42 252.23 386.00 252.69 386.12 251.75 C 386.25 250.81 386.98 249.23 387.12 246.88 C 387.27 244.52 386.69 241.58 387.00 237.62 C 387.31 233.67 388.15 228.02 389.00 223.12 C 389.85 218.23 391.00 212.15 392.12 208.25 C 393.25 204.35 395.17 201.69 395.75 199.75 C 396.33 197.81 395.88 197.50 395.62 196.62 C 395.38 195.75 394.94 195.29 394.25 194.50 C 393.56 193.71 392.46 192.62 391.50 191.88 C 390.54 191.12 389.83 190.65 388.50 190.00 C 387.17 189.35 386.17 188.81 383.50 188.00 C 380.83 187.19 375.40 185.65 372.50 185.12 C 369.60 184.60 367.65 184.85 366.12 184.88 C 364.60 184.90 364.19 184.90 363.38 185.25 Z" id="s-15-f-1"/>
<path d="M 364.12 185.00 C 362.42 185.12 362.73 185.54 362.25 185.88 C 361.77 186.21 361.48 186.15 361.25 187.00 C 361.02 187.85 360.90 189.81 360.88 191.00 C 360.85 192.19 360.65 191.85 361.12 194.12 C 361.60 196.40 363.17 201.44 363.75 204.62 C 364.33 207.81 364.42 197.08 364.62 213.25 C 364.83 229.42 364.73 285.60 365.00 301.62 C 365.27 317.65 365.75 307.15 366.25 309.38 C 366.75 311.60 367.08 312.85 368.00 315.00 C 368.92 317.15 370.90 320.73 371.75 322.25 C 372.60 323.77 372.67 323.77 373.12 324.12 C 373.58 324.48 372.40 326.69 374.50 324.38 C 376.60 322.06 384.17 314.21 385.75 310.25 C 387.33 306.29 384.29 305.08 384.00 300.62 C 383.71 296.17 383.83 289.83 384.00 283.50 C 384.17 277.17 384.69 267.65 385.00 262.62 C 385.31 257.60 385.65 255.06 385.88 253.38 C 386.10 251.69 386.33 252.77 386.38 252.50 C 386.42 252.23 386.00 252.69 386.12 251.75 C 386.25 250.81 386.98 249.23 387.12 246.88 C 387.27 244.52 386.69 241.58 387.00 237.62 C 387.31 233.67 388.15 228.02 389.00 223.12 C 389.85 218.23 391.00 212.12 392.12 208.25 C 393.25 204.38 395.12 201.62 395.75 199.88 C 396.38 198.12 396.02 198.52 395.88 197.75 C 395.73 196.98 395.81 196.38 394.88 195.25 C 393.94 194.12 391.65 192.02 390.25 191.00 C 388.85 189.98 388.04 189.77 386.50 189.12 C 384.96 188.48 383.33 187.79 381.00 187.12 C 378.67 186.46 375.31 185.48 372.50 185.12 C 369.69 184.77 365.83 184.88 364.12 185.00 Z" id="s-15-f-2"/>
<path d="M 364.25 185.00 C 362.54 185.12 362.75 185.54 362.25 185.88 C 361.75 186.21 361.48 186.15 361.25 187.00 C 361.02 187.85 360.90 189.81 360.88 191.00 C 360.85 192.19 360.65 191.88 361.12 194.12 C 361.60 196.38 363.17 201.31 363.75 204.50 C 364.33 207.69 364.42 200.56 364.62 213.25 C 364.83 225.94 364.88 269.33 365.00 280.62 C 365.12 291.92 362.27 280.96 365.38 281.00 C 368.48 281.04 380.48 280.98 383.62 280.88 C 386.77 280.77 384.02 283.42 384.25 280.38 C 384.48 277.33 384.73 267.12 385.00 262.62 C 385.27 258.12 385.65 255.06 385.88 253.38 C 386.10 251.69 386.33 252.77 386.38 252.50 C 386.42 252.23 386.00 252.69 386.12 251.75 C 386.25 250.81 386.98 249.23 387.12 246.88 C 387.27 244.52 386.85 240.46 387.00 237.62 C 387.15 234.79 387.33 234.04 388.00 229.88 C 388.67 225.71 390.31 216.23 391.00 212.62 C 391.69 209.02 391.33 210.38 392.12 208.25 C 392.92 206.12 395.15 201.75 395.75 199.88 C 396.35 198.00 396.00 197.90 395.75 197.00 C 395.50 196.10 394.96 195.35 394.25 194.50 C 393.54 193.65 392.79 192.77 391.50 191.88 C 390.21 190.98 388.25 189.92 386.50 189.12 C 384.75 188.33 383.33 187.79 381.00 187.12 C 378.67 186.46 375.29 185.48 372.50 185.12 C 369.71 184.77 365.96 184.88 364.25 185.00 Z" id="s-15-f-3"/>
<path d="M 363.38 185.25 C 361.67 185.58 361.67 186.04 361.25 187.00 C 360.83 187.96 360.90 189.81 360.88 191.00 C 360.85 192.19 360.62 191.73 361.12 194.12 C 361.62 196.52 363.29 202.19 363.88 205.38 C 364.46 208.56 364.42 208.67 364.62 213.25 C 364.83 217.83 361.31 229.62 365.12 232.88 C 368.94 236.12 383.19 236.12 387.50 232.75 C 391.81 229.38 390.23 216.71 391.00 212.62 C 391.77 208.54 391.33 210.40 392.12 208.25 C 392.92 206.10 395.19 201.73 395.75 199.75 C 396.31 197.77 395.75 197.25 395.50 196.38 C 395.25 195.50 395.10 195.38 394.25 194.50 C 393.40 193.62 392.58 192.35 390.38 191.12 C 388.17 189.90 384.15 188.15 381.00 187.12 C 377.85 186.10 374.44 185.31 371.50 185.00 C 368.56 184.69 365.08 184.92 363.38 185.25 Z" id="s-15-f-4"/>
</g>
<g id="s-16" clip-path="url(#c-s-16)">
<use href="#s-16-f-0"/>
<path d="M 182.00 367.12 C 181.19 366.65 180.54 366.69 179.88 367.00 C 179.21 367.31 178.48 368.38 178.00 369.00 C 177.52 369.62 177.40 369.69 177.00 370.75 C 176.60 371.81 176.50 373.29 175.62 375.38 C 174.75 377.46 174.56 378.27 171.75 383.25 C 168.94 388.23 161.90 400.06 158.75 405.25 C 155.60 410.44 153.79 412.77 152.88 414.38 C 151.96 415.98 147.52 414.77 153.25 414.88 C 158.98 414.98 181.17 415.04 187.25 415.00 C 193.33 414.96 189.00 415.90 189.75 414.62 C 190.50 413.35 191.27 409.62 191.75 407.38 C 192.23 405.12 192.46 404.02 192.62 401.12 C 192.79 398.23 193.06 393.06 192.75 390.00 C 192.44 386.94 191.58 385.19 190.75 382.75 C 189.92 380.31 188.75 377.52 187.75 375.38 C 186.75 373.23 185.71 371.25 184.75 369.88 C 183.79 368.50 182.81 367.60 182.00 367.12 Z" id="s-16-f-1"/>
</g>
<g id="s-17" clip-path="url(#c-s-17)">
<use href="#s-17-f-0"/>
<path d="M 243.50 371.12 C 242.48 371.38 242.38 371.48 242.12 372.62 C 241.88 373.77 241.85 376.25 242.00 378.00 C 242.15 379.75 241.98 379.17 243.00 383.12 C 244.02 387.08 246.40 395.85 248.12 401.75 C 249.85 407.65 252.38 415.62 253.38 418.50 C 254.38 421.38 249.25 418.96 254.12 419.00 C 259.00 419.04 278.02 420.40 282.62 418.75 C 287.23 417.10 282.23 411.98 281.75 409.12 C 281.27 406.27 280.60 404.02 279.75 401.62 C 278.90 399.23 277.81 396.92 276.62 394.75 C 275.44 392.58 274.17 390.60 272.62 388.62 C 271.08 386.65 268.92 384.38 267.38 382.88 C 265.83 381.38 265.71 381.25 263.38 379.62 C 261.04 378.00 255.90 374.54 253.38 373.12 C 250.85 371.71 249.90 371.46 248.25 371.12 C 246.60 370.79 244.52 370.88 243.50 371.12 Z" id="s-17-f-1"/>
</g>
<g id="s-18" clip-path="url(#c-s-18)">
<use href="#s-18-f-0"/>
<path d="M 321.12 367.75 C 320.73 368.10 320.21 368.73 320.00 369.12 C 319.79 369.52 319.88 369.35 319.88 370.12 C 319.88 370.90 319.81 372.46 320.00 373.75 C 320.19 375.04 319.81 374.17 321.00 377.88 C 322.19 381.58 325.27 390.73 327.12 396.00 C 328.98 401.27 330.88 406.38 332.12 409.50 C 333.38 412.62 329.23 413.85 334.62 414.75 C 340.02 415.65 359.46 414.94 364.50 414.88 C 369.54 414.81 364.85 415.58 364.88 414.38 C 364.90 413.17 365.00 410.44 364.62 407.62 C 364.25 404.81 363.46 400.38 362.62 397.50 C 361.79 394.62 360.62 392.23 359.62 390.38 C 358.62 388.52 358.54 388.29 356.62 386.38 C 354.71 384.46 352.17 381.75 348.12 378.88 C 344.08 376.00 335.98 371.10 332.38 369.12 C 328.77 367.15 328.17 367.35 326.50 367.00 C 324.83 366.65 323.27 366.88 322.38 367.00 C 321.48 367.12 321.52 367.40 321.12 367.75 Z" id="s-18-f-1"/>
</g>
<g id="s-19" clip-path="url(#c-s-19)">
<use href="#s-19-f-0"/>
<path d="M 402.00 365.75 C 401.79 366.40 401.79 367.77 402.00 368.75 C 402.21 369.73 401.46 368.83 403.25 371.62 C 405.04 374.42 408.77 378.75 412.75 385.50 C 416.73 392.25 424.58 407.56 427.12 412.12 C 429.67 416.69 423.69 412.73 428.00 412.88 C 432.31 413.02 447.06 413.06 453.00 413.00 C 458.94 412.94 462.17 413.62 463.62 412.50 C 465.08 411.38 462.58 408.10 461.75 406.25 C 460.92 404.40 459.98 403.19 458.62 401.38 C 457.27 399.56 456.58 398.35 453.62 395.38 C 450.67 392.40 443.85 386.08 440.88 383.50 C 437.90 380.92 438.54 381.62 435.75 379.88 C 432.96 378.12 427.81 374.98 424.12 373.00 C 420.44 371.02 416.62 369.33 413.62 368.00 C 410.62 366.67 407.85 365.52 406.12 365.00 C 404.40 364.48 403.94 364.75 403.25 364.88 C 402.56 365.00 402.21 365.10 402.00 365.75 Z" id="s-19-f-1"/>
</g>
</svg>