<?xml version="1.0" encoding="UTF-8"?>
<svg xmlns="http://www.w3.org/2000/svg" viewBox="0 0 500 500">
<defs>
<path d="M 198.25 65.00 C 195.54 63.04 190.40 59.65 187.50 58.00 C 184.60 56.35 182.81 55.62 180.88 55.12 C 178.94 54.62 177.17 54.69 175.88 55.00 C 174.58 55.31 173.77 56.23 173.12 57.00 C 172.48 57.77 172.25 57.52 172.00 59.62 C 171.75 61.73 172.02 65.62 171.62 69.62 C 171.23 73.62 170.31 79.88 169.62 83.62 C 168.94 87.38 168.31 89.31 167.50 92.12 C 166.69 94.94 165.90 97.38 164.75 100.50 C 163.60 103.62 162.62 106.48 160.62 110.88 C 158.62 115.27 155.06 122.38 152.75 126.88 C 150.44 131.38 149.62 132.92 146.75 137.88 C 143.88 142.83 140.17 149.42 135.50 156.62 C 130.83 163.83 126.79 170.46 118.75 181.12 C 110.71 191.79 94.56 211.67 87.25 220.62 C 79.94 229.58 79.48 229.75 74.88 234.88 C 70.27 240.00 64.90 245.94 59.62 251.38 C 54.35 256.81 46.69 264.27 43.25 267.50 C 39.81 270.73 40.00 269.90 39.00 270.75 C 38.00 271.60 37.56 272.12 37.25 272.62 C 36.94 273.12 36.42 273.56 37.12 273.75 C 37.83 273.94 40.17 273.94 41.50 273.75 C 42.83 273.56 43.71 273.17 45.12 272.62 C 46.54 272.08 47.75 271.65 50.00 270.50 C 52.25 269.35 54.23 268.52 58.62 265.75 C 63.02 262.98 70.77 257.92 76.38 253.88 C 81.98 249.83 87.65 245.31 92.25 241.50 C 96.85 237.69 99.77 235.10 104.00 231.00 C 108.23 226.90 112.60 222.38 117.62 216.88 C 122.65 211.38 129.48 203.52 134.12 198.00 C 138.77 192.48 141.54 188.88 145.50 183.75 C 149.46 178.62 153.98 172.67 157.88 167.25 C 161.77 161.83 165.04 157.10 168.88 151.25 C 172.71 145.40 176.19 140.04 180.88 132.12 C 185.56 124.21 193.60 109.54 197.00 103.75 C 200.40 97.96 199.29 99.92 201.25 97.38 C 203.21 94.83 207.17 90.60 208.75 88.50 C 210.33 86.40 210.44 86.19 210.75 84.75 C 211.06 83.31 211.04 81.52 210.62 79.88 C 210.21 78.23 209.40 76.56 208.25 74.88 C 207.10 73.19 205.42 71.40 203.75 69.75 C 202.08 68.10 200.96 66.96 198.25 65.00 Z" id="s-0-f-0"/>
<clipPath id="c-s-0"><use href="#s-0-f-0"/></clipPath>
<path d="M 145.38 182.62 C 143.12 184.85 135.23 192.75 133.62 197.38 C 132.02 202.00 135.21 205.31 135.75 210.38 C 136.29 215.44 136.71 220.17 136.88 227.75 C 137.04 235.33 136.92 245.69 136.75 255.88 C 136.58 266.06 136.35 277.27 135.88 288.88 C 135.40 300.48 134.58 315.60 133.88 325.50 C 133.17 335.40 132.33 342.23 131.62 348.25 C 130.92 354.27 130.27 357.77 129.62 361.62 C 128.98 365.48 129.17 365.67 127.75 371.38 C 126.33 377.08 122.44 390.38 121.12 395.88 C 119.81 401.38 120.04 402.15 119.88 404.38 C 119.71 406.60 119.79 407.35 120.12 409.25 C 120.46 411.15 120.40 411.52 121.88 415.75 C 123.35 419.98 127.31 430.58 129.00 434.62 C 130.69 438.67 131.06 438.52 132.00 440.00 C 132.94 441.48 133.77 442.54 134.62 443.50 C 135.48 444.46 136.21 445.19 137.12 445.75 C 138.04 446.31 139.29 446.73 140.12 446.88 C 140.96 447.02 141.33 447.06 142.12 446.62 C 142.92 446.19 143.94 445.50 144.88 444.25 C 145.81 443.00 146.60 441.81 147.75 439.12 C 148.90 436.44 150.77 431.10 151.75 428.12 C 152.73 425.15 153.12 423.52 153.62 421.25 C 154.12 418.98 153.90 429.92 154.75 414.50 C 155.60 399.08 157.90 355.54 158.75 328.75 C 159.60 301.96 159.50 269.31 159.88 253.75 C 160.25 238.19 160.33 242.10 161.00 235.38 C 161.67 228.65 163.42 217.65 163.88 213.38 C 164.33 209.10 164.29 211.52 163.75 209.75 C 163.21 207.98 162.81 206.33 160.62 202.75 C 158.44 199.17 152.88 191.38 150.62 188.25 C 148.38 185.12 148.00 184.94 147.12 184.00 C 146.25 183.06 147.62 180.40 145.38 182.62 Z" id="s-1-f-0"/>
<clipPath id="c-s-1"><use href="#s-1-f-0"/></clipPath>
<path d="M 231.00 55.00 C 229.42 55.15 229.40 55.56 228.88 55.88 C 228.35 56.19 228.19 56.40 227.88 56.88 C 227.56 57.35 227.17 58.04 227.00 58.75 C 226.83 59.46 226.12 59.94 226.88 61.12 C 227.62 62.31 230.02 64.17 231.50 65.88 C 232.98 67.58 234.42 69.35 235.75 71.38 C 237.08 73.40 238.38 75.65 239.50 78.00 C 240.62 80.35 241.46 81.94 242.50 85.50 C 243.54 89.06 244.71 94.25 245.75 99.38 C 246.79 104.50 247.19 105.21 248.75 116.25 C 250.31 127.29 253.98 157.19 255.12 165.62 C 256.27 174.06 255.12 163.27 255.62 166.88 C 256.12 170.48 257.25 182.35 258.12 187.25 C 259.00 192.15 259.77 193.60 260.88 196.25 C 261.98 198.90 263.56 201.56 264.75 203.12 C 265.94 204.69 266.92 205.19 268.00 205.62 C 269.08 206.06 270.27 206.15 271.25 205.75 C 272.23 205.35 272.96 204.73 273.88 203.25 C 274.79 201.77 276.27 202.12 276.75 196.88 C 277.23 191.62 277.25 180.85 276.75 171.75 C 276.25 162.65 274.77 150.83 273.75 142.25 C 272.73 133.67 271.90 128.17 270.62 120.25 C 269.35 112.33 267.25 102.46 266.12 94.75 C 265.00 87.04 265.12 79.33 263.88 74.00 C 262.62 68.67 259.75 64.88 258.62 62.75 C 257.50 60.62 258.10 61.85 257.12 61.25 C 256.15 60.65 254.96 60.00 252.75 59.12 C 250.54 58.25 246.27 56.69 243.88 56.00 C 241.48 55.31 240.52 55.17 238.38 55.00 C 236.23 54.83 232.58 54.85 231.00 55.00 Z" id="s-2-f-0"/>
<clipPath id="c-s-2"><use href="#s-2-f-0"/></clipPath>
<path d="M 257.75 62.12 C 252.96 62.69 257.54 62.90 257.62 63.12 C 257.71 63.35 257.92 62.79 258.25 63.50 C 258.58 64.21 259.27 66.60 259.62 67.38 C 259.98 68.15 259.88 67.06 260.38 68.12 C 260.88 69.19 262.10 72.62 262.62 73.75 C 263.15 74.88 259.48 74.90 263.50 74.88 C 267.52 74.85 279.92 74.15 286.75 73.62 C 293.58 73.10 292.79 73.35 304.50 71.75 C 316.21 70.15 343.79 65.79 357.00 64.00 C 370.21 62.21 378.71 61.46 383.75 61.00 C 388.79 60.54 386.10 60.88 387.25 61.25 C 388.40 61.62 389.88 62.62 390.62 63.25 C 391.38 63.88 391.42 64.21 391.75 65.00 C 392.08 65.79 392.46 66.33 392.62 68.00 C 392.79 69.67 392.88 71.44 392.75 75.00 C 392.62 78.56 392.38 84.17 391.88 89.38 C 391.38 94.58 391.10 98.08 389.75 106.25 C 388.40 114.42 385.25 130.81 383.75 138.38 C 382.25 145.94 381.75 147.58 380.75 151.62 C 379.75 155.67 379.56 157.10 377.75 162.62 C 375.94 168.15 371.19 180.79 369.88 184.75 C 368.56 188.71 369.54 185.17 369.88 186.38 C 370.21 187.58 371.19 190.44 371.88 192.00 C 372.56 193.56 373.12 194.60 374.00 195.75 C 374.88 196.90 376.31 198.23 377.12 198.88 C 377.94 199.52 378.02 199.46 378.88 199.62 C 379.73 199.79 381.17 199.90 382.25 199.88 C 383.33 199.85 384.17 199.85 385.38 199.50 C 386.58 199.15 388.29 198.44 389.50 197.75 C 390.71 197.06 391.44 196.71 392.62 195.38 C 393.81 194.04 395.46 191.96 396.62 189.75 C 397.79 187.54 395.56 195.94 399.62 182.12 C 403.69 168.31 416.77 121.42 421.00 106.88 C 425.23 92.33 423.65 98.54 425.00 94.88 C 426.35 91.21 427.75 87.77 429.12 84.88 C 430.50 81.98 431.81 79.73 433.25 77.50 C 434.69 75.27 436.67 73.23 437.75 71.50 C 438.83 69.77 439.44 68.54 439.75 67.12 C 440.06 65.71 439.77 63.94 439.62 63.00 C 439.48 62.06 439.62 62.40 438.88 61.50 C 438.12 60.60 436.54 58.88 435.12 57.62 C 433.71 56.38 432.69 55.44 430.38 54.00 C 428.06 52.56 425.73 51.00 421.25 49.00 C 416.77 47.00 407.50 43.48 403.50 42.00 C 399.50 40.52 398.96 40.48 397.25 40.12 C 395.54 39.77 395.46 39.73 393.25 39.88 C 391.04 40.02 387.29 40.46 384.00 41.00 C 380.71 41.54 378.73 41.85 373.50 43.12 C 368.27 44.40 360.92 46.71 352.62 48.62 C 344.33 50.54 331.96 53.10 323.75 54.62 C 315.54 56.15 309.60 56.90 303.38 57.75 C 297.15 58.60 293.98 59.02 286.38 59.75 C 278.77 60.48 262.54 61.56 257.75 62.12 Z" id="s-3-f-0"/>
<clipPath id="c-s-3"><use href="#s-3-f-0"/></clipPath>
<path d="M 376.75 115.75 C 376.85 115.08 376.58 114.54 376.38 114.12 C 376.17 113.71 376.02 113.60 375.50 113.25 C 374.98 112.90 375.02 112.71 373.25 112.00 C 371.48 111.29 368.56 109.96 364.88 109.00 C 361.19 108.04 354.42 106.77 351.12 106.25 C 347.83 105.73 350.90 105.12 345.12 105.88 C 339.35 106.62 326.40 109.23 316.50 110.75 C 306.60 112.27 291.35 114.12 285.75 115.00 C 280.15 115.88 283.71 115.58 282.88 116.00 C 282.04 116.42 281.23 117.06 280.75 117.50 C 280.27 117.94 280.15 118.12 280.00 118.62 C 279.85 119.12 279.81 119.96 279.88 120.50 C 279.94 121.04 279.77 121.17 280.38 121.88 C 280.98 122.58 281.48 123.65 283.50 124.75 C 285.52 125.85 289.90 127.67 292.50 128.50 C 295.10 129.33 296.75 129.52 299.12 129.75 C 301.50 129.98 298.79 130.67 306.75 129.88 C 314.71 129.08 337.46 126.02 346.88 125.00 C 356.29 123.98 359.71 124.17 363.25 123.75 C 366.79 123.33 366.60 123.00 368.12 122.50 C 369.65 122.00 371.10 121.48 372.38 120.75 C 373.65 120.02 375.02 118.96 375.75 118.12 C 376.48 117.29 376.65 116.42 376.75 115.75 Z" id="s-4-f-0"/>
<clipPath id="c-s-4"><use href="#s-4-f-0"/></clipPath>
<path d="M 375.12 171.38 C 375.15 170.00 375.46 170.83 373.25 170.12 C 371.04 169.42 365.25 167.65 361.88 167.12 C 358.50 166.60 357.79 166.52 353.00 167.00 C 348.21 167.48 338.27 169.08 333.12 170.00 C 327.98 170.92 326.29 171.71 322.12 172.50 C 317.96 173.29 315.69 173.85 308.12 174.75 C 300.56 175.65 282.02 174.81 276.75 177.88 C 271.48 180.94 276.46 190.50 276.50 193.12 C 276.54 195.75 276.60 193.50 277.00 193.62 C 277.40 193.75 275.67 193.90 278.88 193.88 C 282.08 193.85 291.79 193.69 296.25 193.50 C 300.71 193.31 297.02 193.83 305.62 192.75 C 314.23 191.67 337.19 188.15 347.88 187.00 C 358.56 185.85 365.94 186.25 369.75 185.88 C 373.56 185.50 370.46 185.40 370.75 184.75 C 371.04 184.10 371.27 182.56 371.50 182.00 C 371.73 181.44 371.98 181.81 372.12 181.38 C 372.27 180.94 372.21 179.88 372.38 179.38 C 372.54 178.88 372.67 179.71 373.12 178.38 C 373.58 177.04 375.10 172.75 375.12 171.38 Z" id="s-5-f-0"/>
<clipPath id="c-s-5"><use href="#s-5-f-0"/></clipPath>
<path d="M 288.38 216.00 C 287.00 215.65 287.21 215.67 285.50 216.00 C 283.79 216.33 281.12 216.90 278.12 218.00 C 275.12 219.10 271.96 221.00 267.50 222.62 C 263.04 224.25 258.23 226.06 251.38 227.75 C 244.52 229.44 234.46 231.38 226.38 232.75 C 218.29 234.12 207.12 235.29 202.88 236.00 C 198.62 236.71 201.38 236.60 200.88 237.00 C 200.38 237.40 200.02 237.81 199.88 238.38 C 199.73 238.94 199.81 239.69 200.00 240.38 C 200.19 241.06 200.02 241.25 201.00 242.50 C 201.98 243.75 204.42 246.52 205.88 247.88 C 207.33 249.23 208.27 249.81 209.75 250.62 C 211.23 251.44 213.33 252.40 214.75 252.75 C 216.17 253.10 216.73 253.23 218.25 252.75 C 219.77 252.27 220.31 251.00 223.88 249.88 C 227.44 248.75 231.15 247.65 239.62 246.00 C 248.10 244.35 268.48 241.00 274.75 240.00 C 281.02 239.00 276.38 239.85 277.25 240.00 C 278.12 240.15 279.12 240.42 280.00 240.88 C 280.88 241.33 281.88 242.15 282.50 242.75 C 283.12 243.35 283.38 243.69 283.75 244.50 C 284.12 245.31 284.40 245.98 284.75 247.62 C 285.10 249.27 285.54 243.29 285.88 254.38 C 286.21 265.46 286.62 296.33 286.75 314.12 C 286.88 331.92 286.79 349.69 286.62 361.12 C 286.46 372.56 286.23 376.06 285.75 382.75 C 285.27 389.44 284.21 397.94 283.75 401.25 C 283.29 404.56 283.17 402.02 283.00 402.62 C 282.83 403.23 283.08 404.10 282.75 404.88 C 282.42 405.65 281.79 406.50 281.00 407.25 C 280.21 408.00 278.96 408.96 278.00 409.38 C 277.04 409.79 277.29 410.19 275.25 409.75 C 273.21 409.31 270.17 408.38 265.75 406.75 C 261.33 405.12 252.67 401.31 248.75 400.00 C 244.83 398.69 243.54 398.92 242.25 398.88 C 240.96 398.83 241.23 399.38 241.00 399.75 C 240.77 400.12 240.71 400.60 240.88 401.12 C 241.04 401.65 238.71 399.17 242.00 402.88 C 245.29 406.58 254.27 415.88 260.62 423.38 C 266.98 430.88 276.56 443.50 280.12 447.88 C 283.69 452.25 281.15 449.12 282.00 449.62 C 282.85 450.12 284.27 450.69 285.25 450.88 C 286.23 451.06 286.52 451.35 287.88 450.75 C 289.23 450.15 291.58 448.81 293.38 447.25 C 295.17 445.69 297.06 443.35 298.62 441.38 C 300.19 439.40 301.40 437.90 302.75 435.38 C 304.10 432.85 305.58 430.04 306.75 426.25 C 307.92 422.46 309.08 416.54 309.75 412.62 C 310.42 408.71 310.56 407.54 310.75 402.75 C 310.94 397.96 311.15 395.96 310.88 383.88 C 310.60 371.79 309.42 346.92 309.12 330.25 C 308.83 313.58 308.98 293.79 309.12 283.88 C 309.27 273.96 309.52 275.00 310.00 270.75 C 310.48 266.50 311.33 261.52 312.00 258.38 C 312.67 255.23 313.02 254.06 314.00 251.88 C 314.98 249.69 317.06 247.04 317.88 245.25 C 318.69 243.46 318.73 242.29 318.88 241.12 C 319.02 239.96 318.92 239.04 318.75 238.25 C 318.58 237.46 318.94 237.73 317.88 236.38 C 316.81 235.02 314.08 231.81 312.38 230.12 C 310.67 228.44 309.54 227.60 307.62 226.25 C 305.71 224.90 303.19 223.35 300.88 222.00 C 298.56 220.65 295.83 219.12 293.75 218.12 C 291.67 217.12 289.75 216.35 288.38 216.00 Z" id="s-6-f-0"/>
<clipPath id="c-s-6"><use href="#s-6-f-0"/></clipPath>
<path d="M 205.00 273.38 C 204.75 273.88 202.60 271.40 205.12 274.88 C 207.65 278.35 216.67 289.88 220.12 294.25 C 223.58 298.62 223.35 298.42 225.88 301.12 C 228.40 303.83 232.79 308.40 235.25 310.50 C 237.71 312.60 238.94 313.02 240.62 313.75 C 242.31 314.48 243.96 314.73 245.38 314.88 C 246.79 315.02 248.17 314.81 249.12 314.62 C 250.08 314.44 250.40 314.25 251.12 313.75 C 251.85 313.25 252.90 312.31 253.50 311.62 C 254.10 310.94 254.38 310.54 254.75 309.62 C 255.12 308.71 255.62 308.33 255.75 306.12 C 255.88 303.92 255.98 299.15 255.50 296.38 C 255.02 293.60 254.00 291.48 252.88 289.50 C 251.75 287.52 250.44 285.90 248.75 284.50 C 247.06 283.10 245.02 282.19 242.75 281.12 C 240.48 280.06 239.12 279.46 235.12 278.12 C 231.12 276.79 222.54 274.15 218.75 273.12 C 214.96 272.10 214.40 272.21 212.38 272.00 C 210.35 271.79 207.85 271.65 206.62 271.88 C 205.40 272.10 205.25 272.88 205.00 273.38 Z" id="s-7-f-0"/>
<clipPath id="c-s-7"><use href="#s-7-f-0"/></clipPath>
<path d="M 269.62 327.00 C 269.35 326.17 268.54 326.02 268.12 325.88 C 267.71 325.73 268.06 325.31 267.12 326.12 C 266.19 326.94 264.90 328.98 262.50 330.75 C 260.10 332.52 258.29 333.58 252.75 336.75 C 247.21 339.92 235.52 346.44 229.25 349.75 C 222.98 353.06 219.12 354.79 215.12 356.62 C 211.12 358.46 208.88 359.40 205.25 360.75 C 201.62 362.10 196.04 363.92 193.38 364.75 C 190.71 365.58 191.79 365.33 189.25 365.75 C 186.71 366.17 180.19 366.81 178.12 367.25 C 176.06 367.69 177.23 367.81 176.88 368.38 C 176.52 368.94 176.12 369.42 176.00 370.62 C 175.88 371.83 175.79 374.25 176.12 375.62 C 176.46 377.00 176.94 377.40 178.00 378.88 C 179.06 380.35 180.98 382.79 182.50 384.50 C 184.02 386.21 185.58 387.75 187.12 389.12 C 188.67 390.50 190.35 391.83 191.75 392.75 C 193.15 393.67 194.62 394.27 195.50 394.62 C 196.38 394.98 196.12 394.88 197.00 394.88 C 197.88 394.88 199.35 394.98 200.75 394.62 C 202.15 394.27 203.50 393.85 205.38 392.75 C 207.25 391.65 206.85 392.56 212.00 388.00 C 217.15 383.44 230.65 370.42 236.25 365.38 C 241.85 360.33 242.62 360.33 245.62 357.75 C 248.62 355.17 251.54 352.50 254.25 349.88 C 256.96 347.25 259.62 344.52 261.88 342.00 C 264.12 339.48 266.44 336.60 267.75 334.75 C 269.06 332.90 269.44 332.17 269.75 330.88 C 270.06 329.58 269.90 327.83 269.62 327.00 Z" id="s-8-f-0"/>
<clipPath id="c-s-8"><use href="#s-8-f-0"/></clipPath>
<path d="M 326.50 229.00 C 322.79 229.65 325.12 230.08 324.88 230.62 C 324.62 231.17 324.54 231.35 325.00 232.25 C 325.46 233.15 326.06 234.42 327.62 236.00 C 329.19 237.58 332.71 240.48 334.38 241.75 C 336.04 243.02 336.46 243.12 337.62 243.62 C 338.79 244.12 339.88 244.58 341.38 244.75 C 342.88 244.92 344.96 244.92 346.62 244.62 C 348.29 244.33 349.12 243.60 351.38 243.00 C 353.62 242.40 353.35 242.19 360.12 241.00 C 366.90 239.81 382.67 236.88 392.00 235.88 C 401.33 234.88 411.40 234.96 416.12 235.00 C 420.85 235.04 419.40 235.73 420.38 236.12 C 421.35 236.52 421.62 236.98 422.00 237.38 C 422.38 237.77 422.33 237.23 422.62 238.50 C 422.92 239.77 423.23 232.27 423.75 245.00 C 424.27 257.73 425.48 293.71 425.75 314.88 C 426.02 336.04 425.60 358.73 425.38 372.00 C 425.15 385.27 424.81 388.48 424.38 394.50 C 423.94 400.52 423.42 405.12 422.75 408.12 C 422.08 411.12 420.96 411.60 420.38 412.50 C 419.79 413.40 419.81 413.29 419.25 413.50 C 418.69 413.71 423.38 415.48 417.00 413.75 C 410.62 412.02 387.88 404.92 381.00 403.12 C 374.12 401.33 376.75 402.90 375.75 403.00 C 374.75 403.10 375.15 403.42 375.00 403.75 C 374.85 404.08 374.69 404.50 374.88 405.00 C 375.06 405.50 373.88 404.56 376.12 406.75 C 378.38 408.94 384.17 414.06 388.38 418.12 C 392.58 422.19 396.19 425.75 401.38 431.12 C 406.56 436.50 415.75 446.29 419.50 450.38 C 423.25 454.46 422.75 454.40 423.88 455.62 C 425.00 456.85 425.56 457.25 426.25 457.75 C 426.94 458.25 427.04 458.48 428.00 458.62 C 428.96 458.77 430.60 459.12 432.00 458.62 C 433.40 458.12 435.15 456.71 436.38 455.62 C 437.60 454.54 437.67 454.77 439.38 452.12 C 441.08 449.48 444.73 443.79 446.62 439.75 C 448.52 435.71 449.71 431.81 450.75 427.88 C 451.79 423.94 452.38 419.58 452.88 416.12 C 453.38 412.67 453.58 412.23 453.75 407.12 C 453.92 402.02 454.15 398.29 453.88 385.50 C 453.60 372.71 452.44 347.12 452.12 330.38 C 451.81 313.62 451.85 295.54 452.00 285.00 C 452.15 274.46 452.67 271.42 453.00 267.12 C 453.33 262.83 453.52 262.04 454.00 259.25 C 454.48 256.46 454.92 253.40 455.88 250.38 C 456.83 247.35 458.94 243.27 459.75 241.12 C 460.56 238.98 460.56 238.75 460.75 237.50 C 460.94 236.25 461.04 234.81 460.88 233.62 C 460.71 232.44 460.83 232.02 459.75 230.38 C 458.67 228.73 456.35 225.81 454.38 223.75 C 452.40 221.69 450.92 220.12 447.88 218.00 C 444.83 215.88 439.19 212.67 436.12 211.00 C 433.06 209.33 431.12 208.50 429.50 208.00 C 427.88 207.50 427.83 207.79 426.38 208.00 C 424.92 208.21 423.29 208.46 420.75 209.25 C 418.21 210.04 414.98 211.50 411.12 212.75 C 407.27 214.00 404.31 215.08 397.62 216.75 C 390.94 218.42 379.42 221.08 371.00 222.75 C 362.58 224.42 354.54 225.71 347.12 226.75 C 339.71 227.79 330.21 228.35 326.50 229.00 Z" id="s-9-f-0"/>
<clipPath id="c-s-9"><use href="#s-9-f-0"/></clipPath>
<path d="M 334.00 269.50 C 333.71 269.96 333.60 269.92 334.12 270.75 C 334.65 271.58 333.60 270.73 337.12 274.50 C 340.65 278.27 351.00 289.12 355.25 293.38 C 359.50 297.62 360.25 298.08 362.62 300.00 C 365.00 301.92 367.46 303.58 369.50 304.88 C 371.54 306.17 373.54 307.12 374.88 307.75 C 376.21 308.38 376.25 308.44 377.50 308.62 C 378.75 308.81 380.77 309.04 382.38 308.88 C 383.98 308.71 385.73 308.44 387.12 307.62 C 388.52 306.81 389.83 305.42 390.75 304.00 C 391.67 302.58 392.29 301.42 392.62 299.12 C 392.96 296.83 392.90 292.27 392.75 290.25 C 392.60 288.23 392.27 288.15 391.75 287.00 C 391.23 285.85 390.85 284.71 389.62 283.38 C 388.40 282.04 386.25 280.19 384.38 279.00 C 382.50 277.81 380.48 277.08 378.38 276.25 C 376.27 275.42 375.56 275.04 371.75 274.00 C 367.94 272.96 359.94 270.98 355.50 270.00 C 351.06 269.02 348.40 268.46 345.12 268.12 C 341.85 267.79 337.73 267.77 335.88 268.00 C 334.02 268.23 334.29 269.04 334.00 269.50 Z" id="s-10-f-0"/>
<clipPath id="c-s-10"><use href="#s-10-f-0"/></clipPath>
<path d="M 410.75 315.75 C 410.65 315.02 410.52 315.12 410.00 315.00 C 409.48 314.88 408.62 314.42 407.62 315.00 C 406.62 315.58 406.00 316.92 404.00 318.50 C 402.00 320.08 398.90 322.31 395.62 324.50 C 392.35 326.69 388.60 329.10 384.38 331.62 C 380.15 334.15 375.96 336.62 370.25 339.62 C 364.54 342.62 355.75 347.10 350.12 349.62 C 344.50 352.15 339.98 353.62 336.50 354.75 C 333.02 355.88 331.50 356.00 329.25 356.38 C 327.00 356.75 324.33 356.52 323.00 357.00 C 321.67 357.48 321.60 358.42 321.25 359.25 C 320.90 360.08 320.90 360.90 320.88 362.00 C 320.85 363.10 320.77 364.65 321.12 365.88 C 321.48 367.10 321.33 367.33 323.00 369.38 C 324.67 371.42 328.56 375.71 331.12 378.12 C 333.69 380.54 336.73 382.75 338.38 383.88 C 340.02 385.00 339.98 384.73 341.00 384.88 C 342.02 385.02 343.15 385.10 344.50 384.75 C 345.85 384.40 347.31 383.94 349.12 382.75 C 350.94 381.56 350.40 382.10 355.38 377.62 C 360.35 373.15 372.08 362.48 379.00 355.88 C 385.92 349.27 392.08 343.10 396.88 338.00 C 401.67 332.90 405.46 328.35 407.75 325.25 C 410.04 322.15 410.12 320.96 410.62 319.38 C 411.12 317.79 410.85 316.48 410.75 315.75 Z" id="s-11-f-0"/>
<clipPath id="c-s-11"><use href="#s-11-f-0"/></clipPath>
</defs>
<g id="s-0" clip-path="url(#c-s-0)">
<use href="#s-0-f-0"/>
<path d="M 198.25 65.00 C 195.54 63.04 190.40 59.65 187.50 58.00 C 184.60 56.35 182.81 55.62 180.88 55.12 C 178.94 54.62 177.17 54.69 175.88 55.00 C 174.58 55.31 173.77 56.23 173.12 57.00 C 172.48 57.77 172.25 57.52 172.00 59.62 C 171.75 61.73 172.02 65.62 171.62 69.62 C 171.23 73.62 170.60 78.96 169.62 83.62 C 168.65 88.29 167.73 92.04 165.75 97.62 C 163.77 103.21 160.92 110.42 157.75 117.12 C 154.58 123.83 150.79 130.77 146.75 137.88 C 142.71 144.98 138.17 152.54 133.50 159.75 C 128.83 166.96 125.06 172.67 118.75 181.12 C 112.44 189.58 102.94 201.54 95.62 210.50 C 88.31 219.46 80.10 228.90 74.88 234.88 C 69.65 240.85 66.00 244.38 64.25 246.38 C 62.50 248.38 60.90 246.79 64.38 246.88 C 67.85 246.96 80.06 248.12 85.12 246.88 C 90.19 245.62 91.60 242.02 94.75 239.38 C 97.90 236.73 99.65 235.35 104.00 231.00 C 108.35 226.65 115.38 219.33 120.88 213.25 C 126.38 207.17 130.83 202.17 137.00 194.50 C 143.17 186.83 152.56 174.46 157.88 167.25 C 163.19 160.04 165.23 156.79 168.88 151.25 C 172.52 145.71 174.92 142.15 179.75 134.00 C 184.58 125.85 194.29 108.48 197.88 102.38 C 201.46 96.27 199.44 99.69 201.25 97.38 C 203.06 95.06 207.17 90.60 208.75 88.50 C 210.33 86.40 210.44 86.19 210.75 84.75 C 211.06 83.31 211.04 81.52 210.62 79.88 C 210.21 78.23 209.40 76.56 208.25 74.88 C 207.10 73.19 205.42 71.40 203.75 69.75 C 202.08 68.10 200.96 66.96 198.25 65.00 Z" id="s-0-f-1"/>
<path d="M 189.62 59.25 C 186.96 57.60 184.92 56.71 183.38 56.00 C 181.83 55.29 181.62 55.17 180.38 55.00 C 179.12 54.83 176.90 54.85 175.88 55.00 C 174.85 55.15 174.75 55.48 174.25 55.88 C 173.75 56.27 173.25 56.75 172.88 57.38 C 172.50 58.00 172.21 57.58 172.00 59.62 C 171.79 61.67 171.83 66.67 171.62 69.62 C 171.42 72.58 171.23 74.44 170.75 77.38 C 170.27 80.31 169.75 83.40 168.75 87.25 C 167.75 91.10 166.58 95.52 164.75 100.50 C 162.92 105.48 160.75 110.90 157.75 117.12 C 154.75 123.35 150.79 130.77 146.75 137.88 C 142.71 144.98 137.81 153.02 133.50 159.75 C 129.19 166.48 125.58 171.77 120.88 178.25 C 116.17 184.73 103.21 195.19 105.25 198.62 C 107.29 202.06 128.35 198.92 133.12 198.88 C 137.90 198.83 130.10 203.17 133.88 198.38 C 137.65 193.58 150.27 177.46 155.75 170.12 C 161.23 162.79 162.56 160.71 166.75 154.38 C 170.94 148.04 175.69 140.79 180.88 132.12 C 186.06 123.46 194.48 108.17 197.88 102.38 C 201.27 96.58 199.27 99.94 201.25 97.38 C 203.23 94.81 208.17 89.10 209.75 87.00 C 211.33 84.90 210.58 85.85 210.75 84.75 C 210.92 83.65 211.17 82.02 210.75 80.38 C 210.33 78.73 209.21 76.44 208.25 74.88 C 207.29 73.31 206.48 72.50 205.00 71.00 C 203.52 69.50 201.94 67.83 199.38 65.88 C 196.81 63.92 192.29 60.90 189.62 59.25 Z" id="s-0-f-2"/>
<path d="M 187.50 58.00 C 184.83 56.35 184.83 56.52 183.38 56.00 C 181.92 55.48 180.00 55.04 178.75 54.88 C 177.50 54.71 176.62 54.83 175.88 55.00 C 175.12 55.17 174.75 55.48 174.25 55.88 C 173.75 56.27 173.25 56.75 172.88 57.38 C 172.50 58.00 172.21 57.58 172.00 59.62 C 171.79 61.67 172.02 65.62 171.62 69.62 C 171.23 73.62 170.31 79.88 169.62 83.62 C 168.94 87.38 168.31 89.31 167.50 92.12 C 166.69 94.94 166.54 96.00 164.75 100.50 C 162.96 105.00 159.75 112.90 156.75 119.12 C 153.75 125.35 149.52 132.96 146.75 137.88 C 143.98 142.79 141.35 146.48 140.12 148.62 C 138.90 150.77 134.56 150.40 139.38 150.75 C 144.19 151.10 162.08 153.85 169.00 150.75 C 175.92 147.65 176.06 140.19 180.88 132.12 C 185.69 124.06 194.48 108.17 197.88 102.38 C 201.27 96.58 199.27 99.94 201.25 97.38 C 203.23 94.81 208.17 89.10 209.75 87.00 C 211.33 84.90 210.58 85.85 210.75 84.75 C 210.92 83.65 211.17 82.02 210.75 80.38 C 210.33 78.73 209.21 76.44 208.25 74.88 C 207.29 73.31 206.48 72.50 205.00 71.00 C 203.52 69.50 202.29 68.04 199.38 65.88 C 196.46 63.71 190.17 59.65 187.50 58.00 Z" id="s-0-f-3"/>
<path d="M 175.88 55.00 C 174.67 55.33 173.77 56.23 173.12 57.00 C 172.48 57.77 172.25 57.52 172.00 59.62 C 171.75 61.73 172.02 65.62 171.62 69.62 C 171.23 73.62 170.31 79.88 169.62 83.62 C 168.94 87.38 168.44 89.02 167.50 92.12 C 166.56 95.23 164.46 100.44 164.00 102.25 C 163.54 104.06 159.19 102.90 164.75 103.00 C 170.31 103.10 191.29 103.81 197.38 102.88 C 203.46 101.94 199.19 100.02 201.25 97.38 C 203.31 94.73 208.15 89.25 209.75 87.00 C 211.35 84.75 210.71 84.98 210.88 83.88 C 211.04 82.77 210.94 81.44 210.75 80.38 C 210.56 79.31 210.17 78.42 209.75 77.50 C 209.33 76.58 209.25 76.17 208.25 74.88 C 207.25 73.58 205.42 71.40 203.75 69.75 C 202.08 68.10 200.17 66.48 198.25 65.00 C 196.33 63.52 194.73 62.38 192.25 60.88 C 189.77 59.38 185.35 56.98 183.38 56.00 C 181.40 55.02 181.62 55.17 180.38 55.00 C 179.12 54.83 177.08 54.67 175.88 55.00 Z" id="s-0-f-4"/>
</g>
<g id="s-1" clip-path="url(#c-s-1)">
<use href="#s-1-f-0"/>
<path d="M 145.38 182.62 C 142.85 184.54 135.23 192.75 133.62 197.38 C 132.02 202.00 135.21 205.31 135.75 210.38 C 136.29 215.44 136.71 220.17 136.88 227.75 C 137.04 235.33 136.92 245.69 136.75 255.88 C 136.58 266.06 136.35 277.27 135.88 288.88 C 135.40 300.48 134.58 315.60 133.88 325.50 C 133.17 335.40 132.33 342.23 131.62 348.25 C 130.92 354.27 130.27 357.77 129.62 361.62 C 128.98 365.48 129.17 365.67 127.75 371.38 C 126.33 377.08 122.44 390.38 121.12 395.88 C 119.81 401.38 120.04 402.15 119.88 404.38 C 119.71 406.60 119.92 407.77 120.12 409.25 C 120.33 410.73 120.46 411.10 121.12 413.25 C 121.79 415.40 123.46 420.52 124.12 422.12 C 124.79 423.73 120.40 422.73 125.12 422.88 C 129.85 423.02 147.75 423.27 152.50 423.00 C 157.25 422.73 153.25 422.67 153.62 421.25 C 154.00 419.83 153.90 429.92 154.75 414.50 C 155.60 399.08 157.90 355.54 158.75 328.75 C 159.60 301.96 159.50 269.31 159.88 253.75 C 160.25 238.19 160.35 241.71 161.00 235.38 C 161.65 229.04 163.27 219.83 163.75 215.75 C 164.23 211.67 164.06 212.40 163.88 210.88 C 163.69 209.35 163.62 208.71 162.62 206.62 C 161.62 204.54 160.19 201.83 157.88 198.38 C 155.56 194.92 150.83 188.50 148.75 185.88 C 146.67 183.25 147.90 180.71 145.38 182.62 Z" id="s-1-f-1"/>
<path d="M 145.38 182.62 C 142.85 184.54 135.23 192.75 133.62 197.38 C 132.02 202.00 135.21 205.31 135.75 210.38 C 136.29 215.44 136.71 220.17 136.88 227.75 C 137.04 235.33 136.92 245.69 136.75 255.88 C 136.58 266.06 136.21 279.48 135.88 288.88 C 135.54 298.27 135.29 303.83 134.75 312.25 C 134.21 320.67 133.46 331.27 132.62 339.38 C 131.79 347.48 130.69 355.21 129.75 360.88 C 128.81 366.54 127.44 371.12 127.00 373.38 C 126.56 375.62 126.83 374.15 127.12 374.38 C 127.42 374.60 123.90 374.67 128.75 374.75 C 133.60 374.83 151.58 374.94 156.25 374.88 C 160.92 374.81 156.33 382.06 156.75 374.38 C 157.17 366.69 158.23 348.85 158.75 328.75 C 159.27 308.65 159.50 269.31 159.88 253.75 C 160.25 238.19 160.35 241.71 161.00 235.38 C 161.65 229.04 163.27 219.83 163.75 215.75 C 164.23 211.67 164.06 212.40 163.88 210.88 C 163.69 209.35 163.62 208.71 162.62 206.62 C 161.62 204.54 160.19 201.83 157.88 198.38 C 155.56 194.92 150.83 188.50 148.75 185.88 C 146.67 183.25 147.90 180.71 145.38 182.62 Z" id="s-1-f-2"/>
<path d="M 145.25 182.62 C 144.52 182.35 146.31 181.79 144.38 184.25 C 142.44 186.71 135.06 193.02 133.62 197.38 C 132.19 201.73 135.21 205.31 135.75 210.38 C 136.29 215.44 136.71 220.17 136.88 227.75 C 137.04 235.33 136.92 245.69 136.75 255.88 C 136.58 266.06 136.33 277.15 135.88 288.88 C 135.42 300.60 134.08 319.94 134.00 326.25 C 133.92 332.56 131.60 326.65 135.38 326.75 C 139.15 326.85 152.81 326.90 156.62 326.88 C 160.44 326.85 157.88 327.31 158.25 326.62 C 158.62 325.94 158.60 334.90 158.88 322.75 C 159.15 310.60 159.52 268.31 159.88 253.75 C 160.23 239.19 160.35 241.71 161.00 235.38 C 161.65 229.04 163.27 219.83 163.75 215.75 C 164.23 211.67 164.06 212.40 163.88 210.88 C 163.69 209.35 163.62 208.71 162.62 206.62 C 161.62 204.54 160.19 201.83 157.88 198.38 C 155.56 194.92 150.85 188.50 148.75 185.88 C 146.65 183.25 145.98 182.90 145.25 182.62 Z" id="s-1-f-3"/>
<path d="M 145.25 182.62 C 144.52 182.35 146.31 181.79 144.38 184.25 C 142.44 186.71 135.06 193.02 133.62 197.38 C 132.19 201.73 135.21 205.31 135.75 210.38 C 136.29 215.44 136.71 220.17 136.88 227.75 C 137.04 235.33 136.90 247.44 136.75 255.88 C 136.60 264.31 136.04 274.54 136.00 278.38 C 135.96 282.21 136.19 278.77 136.50 278.88 C 136.81 278.98 134.15 279.00 137.88 279.00 C 141.60 279.00 155.27 278.98 158.88 278.88 C 162.48 278.77 159.33 282.56 159.50 278.38 C 159.67 274.19 159.65 260.62 159.88 253.75 C 160.10 246.88 160.23 243.46 160.88 237.12 C 161.52 230.79 163.27 220.31 163.75 215.75 C 164.23 211.19 164.27 211.92 163.75 209.75 C 163.23 207.58 161.92 205.10 160.62 202.75 C 159.33 200.40 157.98 198.44 156.00 195.62 C 154.02 192.81 150.54 188.04 148.75 185.88 C 146.96 183.71 145.98 182.90 145.25 182.62 Z" id="s-1-f-4"/>
<path d="M 145.25 182.62 C 144.52 182.35 146.31 181.79 144.38 184.25 C 142.44 186.71 135.06 193.02 133.62 197.38 C 132.19 201.73 135.21 204.85 135.75 210.38 C 136.29 215.90 135.46 227.06 136.88 230.50 C 138.29 233.94 140.23 230.94 144.25 231.00 C 148.27 231.06 158.08 230.98 161.00 230.88 C 163.92 230.77 161.31 232.73 161.75 230.38 C 162.19 228.02 163.29 220.19 163.62 216.75 C 163.96 213.31 164.25 212.08 163.75 209.75 C 163.25 207.42 161.92 205.10 160.62 202.75 C 159.33 200.40 157.98 198.44 156.00 195.62 C 154.02 192.81 150.54 188.04 148.75 185.88 C 146.96 183.71 145.98 182.90 145.25 182.62 Z" id="s-1-f-5"/>
</g>
<g id="s-2" clip-path="url(#c-s-2)">
<use href="#s-2-f-0"/>
<path d="M 231.00 55.00 C 229.42 55.15 229.40 55.56 228.88 55.88 C 228.35 56.19 228.19 56.40 227.88 56.88 C 227.56 57.35 227.17 58.04 227.00 58.75 C 226.83 59.46 225.77 59.50 226.88 61.12 C 227.98 62.75 231.52 65.69 233.62 68.50 C 235.73 71.31 238.02 75.17 239.50 78.00 C 240.98 80.83 241.46 81.94 242.50 85.50 C 243.54 89.06 244.52 92.96 245.75 99.38 C 246.98 105.79 247.81 109.35 249.88 124.00 C 251.94 138.65 256.29 175.21 258.12 187.25 C 259.96 199.29 260.15 194.31 260.88 196.25 C 261.60 198.19 260.02 198.44 262.50 198.88 C 264.98 199.31 273.35 199.38 275.75 198.88 C 278.15 198.38 276.67 199.23 276.88 195.88 C 277.08 192.52 277.21 185.04 277.00 178.75 C 276.79 172.46 276.69 167.88 275.62 158.12 C 274.56 148.38 272.21 130.81 270.62 120.25 C 269.04 109.69 267.25 102.46 266.12 94.75 C 265.00 87.04 265.12 79.33 263.88 74.00 C 262.62 68.67 259.75 64.88 258.62 62.75 C 257.50 60.62 258.10 61.85 257.12 61.25 C 256.15 60.65 254.96 60.00 252.75 59.12 C 250.54 58.25 246.27 56.69 243.88 56.00 C 241.48 55.31 240.52 55.17 238.38 55.00 C 236.23 54.83 232.58 54.85 231.00 55.00 Z" id="s-2-f-1"/>
<path d="M 229.88 55.38 C 229.21 55.71 228.35 56.31 227.88 56.88 C 227.40 57.44 227.17 58.04 227.00 58.75 C 226.83 59.46 226.12 59.94 226.88 61.12 C 227.62 62.31 230.02 64.17 231.50 65.88 C 232.98 67.58 234.42 69.35 235.75 71.38 C 237.08 73.40 238.33 75.48 239.50 78.00 C 240.67 80.52 241.35 81.10 242.75 86.50 C 244.15 91.90 246.15 99.77 247.88 110.38 C 249.60 120.98 252.15 143.38 253.12 150.12 C 254.10 156.88 253.42 150.73 253.75 150.88 C 254.08 151.02 251.73 151.00 255.12 151.00 C 258.52 151.00 270.88 151.08 274.12 150.88 C 277.38 150.67 275.21 154.85 274.62 149.75 C 274.04 144.65 272.04 129.42 270.62 120.25 C 269.21 111.08 267.25 102.46 266.12 94.75 C 265.00 87.04 265.12 79.33 263.88 74.00 C 262.62 68.67 259.75 64.88 258.62 62.75 C 257.50 60.62 258.10 61.85 257.12 61.25 C 256.15 60.65 254.96 60.00 252.75 59.12 C 250.54 58.25 246.27 56.69 243.88 56.00 C 241.48 55.31 240.38 55.19 238.38 55.00 C 236.38 54.81 233.29 54.81 231.88 54.88 C 230.46 54.94 230.54 55.04 229.88 55.38 Z" id="s-2-f-2"/>
<path d="M 228.88 55.88 C 228.21 56.50 227.33 57.88 227.00 58.75 C 226.67 59.62 225.77 59.50 226.88 61.12 C 227.98 62.75 231.52 65.69 233.62 68.50 C 235.73 71.31 238.02 75.17 239.50 78.00 C 240.98 80.83 241.40 81.44 242.50 85.50 C 243.60 89.56 245.17 99.46 246.12 102.38 C 247.08 105.29 244.71 102.94 248.25 103.00 C 251.79 103.06 264.15 102.94 267.38 102.75 C 270.60 102.56 267.83 103.21 267.62 101.88 C 267.42 100.54 266.75 99.40 266.12 94.75 C 265.50 90.10 265.12 79.33 263.88 74.00 C 262.62 68.67 259.75 64.88 258.62 62.75 C 257.50 60.62 257.77 61.71 257.12 61.25 C 256.48 60.79 256.88 60.85 254.75 60.00 C 252.62 59.15 246.94 56.94 244.38 56.12 C 241.81 55.31 241.60 55.31 239.38 55.12 C 237.15 54.94 232.75 54.88 231.00 55.00 C 229.25 55.12 229.54 55.25 228.88 55.88 Z" id="s-2-f-3"/>
</g>
<g id="s-3" clip-path="url(#c-s-3)">
<use href="#s-3-f-0"/>
<path d="M 257.75 62.12 C 252.96 62.69 257.54 62.90 257.62 63.12 C 257.71 63.35 257.92 62.79 258.25 63.50 C 258.58 64.21 259.27 66.60 259.62 67.38 C 259.98 68.15 259.88 67.06 260.38 68.12 C 260.88 69.19 262.10 72.62 262.62 73.75 C 263.15 74.88 259.48 74.90 263.50 74.88 C 267.52 74.85 279.92 74.15 286.75 73.62 C 293.58 73.10 292.79 73.35 304.50 71.75 C 316.21 70.15 343.79 65.79 357.00 64.00 C 370.21 62.21 378.71 61.46 383.75 61.00 C 388.79 60.54 386.10 60.88 387.25 61.25 C 388.40 61.62 389.88 62.62 390.62 63.25 C 391.38 63.88 391.42 64.21 391.75 65.00 C 392.08 65.79 392.46 66.33 392.62 68.00 C 392.79 69.67 392.88 71.44 392.75 75.00 C 392.62 78.56 392.38 84.17 391.88 89.38 C 391.38 94.58 391.10 98.08 389.75 106.25 C 388.40 114.42 385.25 130.81 383.75 138.38 C 382.25 145.94 381.75 147.58 380.75 151.62 C 379.75 155.67 379.56 157.10 377.75 162.62 C 375.94 168.15 371.19 180.79 369.88 184.75 C 368.56 188.71 369.54 185.17 369.88 186.38 C 370.21 187.58 371.33 190.75 371.88 192.00 C 372.42 193.25 369.77 193.54 373.12 193.88 C 376.48 194.21 388.56 194.02 392.00 194.00 C 395.44 193.98 393.29 193.96 393.75 193.75 C 394.21 193.54 394.08 193.79 394.75 192.75 C 395.42 191.71 396.94 189.27 397.75 187.50 C 398.56 185.73 395.75 195.56 399.62 182.12 C 403.50 168.69 416.77 121.42 421.00 106.88 C 425.23 92.33 423.65 98.54 425.00 94.88 C 426.35 91.21 427.75 87.77 429.12 84.88 C 430.50 81.98 431.81 79.73 433.25 77.50 C 434.69 75.27 436.67 73.23 437.75 71.50 C 438.83 69.77 439.44 68.54 439.75 67.12 C 440.06 65.71 439.77 63.94 439.62 63.00 C 439.48 62.06 439.62 62.40 438.88 61.50 C 438.12 60.60 436.54 58.88 435.12 57.62 C 433.71 56.38 432.69 55.44 430.38 54.00 C 428.06 52.56 425.73 51.00 421.25 49.00 C 416.77 47.00 407.48 43.48 403.50 42.00 C 399.52 40.52 399.08 40.48 397.38 40.12 C 395.67 39.77 395.48 39.73 393.25 39.88 C 391.02 40.02 387.29 40.46 384.00 41.00 C 380.71 41.54 378.73 41.85 373.50 43.12 C 368.27 44.40 360.92 46.71 352.62 48.62 C 344.33 50.54 331.96 53.10 323.75 54.62 C 315.54 56.15 309.60 56.90 303.38 57.75 C 297.15 58.60 293.98 59.02 286.38 59.75 C 278.77 60.48 262.54 61.56 257.75 62.12 Z" id="s-3-f-1"/>
<path d="M 439.88 65.88 C 440.06 64.77 439.92 64.10 439.75 63.38 C 439.58 62.65 439.65 62.46 438.88 61.50 C 438.10 60.54 436.54 58.88 435.12 57.62 C 433.71 56.38 432.31 55.27 430.38 54.00 C 428.44 52.73 427.98 52.00 423.50 50.00 C 419.02 48.00 408.17 43.69 403.50 42.00 C 398.83 40.31 397.69 40.21 395.50 39.88 C 393.31 39.54 393.25 39.62 390.38 40.00 C 387.50 40.38 382.48 41.27 378.25 42.12 C 374.02 42.98 369.27 44.04 365.00 45.12 C 360.73 46.21 359.50 47.04 352.62 48.62 C 345.75 50.21 333.33 52.94 323.75 54.62 C 314.17 56.31 305.88 57.56 295.12 58.75 C 284.38 59.94 265.50 61.17 259.25 61.75 C 253.00 62.33 257.90 62.02 257.62 62.25 C 257.35 62.48 257.52 62.92 257.62 63.12 C 257.73 63.33 257.92 62.79 258.25 63.50 C 258.58 64.21 259.27 66.60 259.62 67.38 C 259.98 68.15 259.88 67.06 260.38 68.12 C 260.88 69.19 262.10 72.62 262.62 73.75 C 263.15 74.88 259.48 74.90 263.50 74.88 C 267.52 74.85 279.92 74.15 286.75 73.62 C 293.58 73.10 292.79 73.35 304.50 71.75 C 316.21 70.15 345.88 65.52 357.00 64.00 C 368.12 62.48 368.56 62.96 371.25 62.62 C 373.94 62.29 370.65 62.27 373.12 62.00 C 375.60 61.73 383.40 60.96 386.12 61.00 C 388.85 61.04 388.56 61.58 389.50 62.25 C 390.44 62.92 391.21 63.90 391.75 65.00 C 392.29 66.10 392.62 66.19 392.75 68.88 C 392.88 71.56 393.00 74.92 392.50 81.12 C 392.00 87.33 391.21 96.58 389.75 106.12 C 388.29 115.67 385.04 131.92 383.75 138.38 C 382.46 144.83 382.25 143.65 382.00 144.88 C 381.75 146.10 381.92 145.56 382.25 145.75 C 382.58 145.94 379.40 146.02 384.00 146.00 C 388.60 145.98 403.54 152.71 409.88 145.62 C 416.21 138.54 419.48 111.96 422.00 103.50 C 424.52 95.04 423.81 97.98 425.00 94.88 C 426.19 91.77 427.75 87.77 429.12 84.88 C 430.50 81.98 431.67 79.98 433.25 77.50 C 434.83 75.02 437.52 71.94 438.62 70.00 C 439.73 68.06 439.69 66.98 439.88 65.88 Z" id="s-3-f-2"/>
<path d="M 439.88 65.88 C 440.06 64.77 439.92 64.10 439.75 63.38 C 439.58 62.65 439.65 62.46 438.88 61.50 C 438.10 60.54 436.54 58.88 435.12 57.62 C 433.71 56.38 432.31 55.27 430.38 54.00 C 428.44 52.73 427.98 52.00 423.50 50.00 C 419.02 48.00 408.17 43.69 403.50 42.00 C 398.83 40.31 397.69 40.21 395.50 39.88 C 393.31 39.54 393.25 39.62 390.38 40.00 C 387.50 40.38 382.48 41.27 378.25 42.12 C 374.02 42.98 369.27 44.04 365.00 45.12 C 360.73 46.21 359.50 47.04 352.62 48.62 C 345.75 50.21 333.33 52.94 323.75 54.62 C 314.17 56.31 305.88 57.56 295.12 58.75 C 284.38 59.94 265.50 61.17 259.25 61.75 C 253.00 62.33 257.90 62.02 257.62 62.25 C 257.35 62.48 257.33 62.54 257.62 63.12 C 257.92 63.71 259.04 65.04 259.38 65.75 C 259.71 66.46 259.46 66.98 259.62 67.38 C 259.79 67.77 259.81 66.96 260.38 68.12 C 260.94 69.29 262.48 73.25 263.00 74.38 C 263.52 75.50 259.54 75.00 263.50 74.88 C 267.46 74.75 279.92 74.15 286.75 73.62 C 293.58 73.10 291.52 73.52 304.50 71.75 C 317.48 69.98 353.50 64.52 364.62 63.00 C 375.75 61.48 369.83 62.79 371.25 62.62 C 372.67 62.46 371.04 62.27 373.12 62.00 C 375.21 61.73 381.40 61.12 383.75 61.00 C 386.10 60.88 386.29 61.04 387.25 61.25 C 388.21 61.46 388.90 61.88 389.50 62.25 C 390.10 62.62 390.50 63.04 390.88 63.50 C 391.25 63.96 391.44 64.12 391.75 65.00 C 392.06 65.88 392.62 66.06 392.75 68.75 C 392.88 71.44 392.79 76.38 392.50 81.12 C 392.21 85.88 391.21 94.48 391.00 97.25 C 390.79 100.02 390.90 97.62 391.25 97.75 C 391.60 97.88 387.69 98.00 393.12 98.00 C 398.56 98.00 417.88 99.94 423.88 97.75 C 429.88 95.56 427.56 88.25 429.12 84.88 C 430.69 81.50 431.67 79.98 433.25 77.50 C 434.83 75.02 437.52 71.94 438.62 70.00 C 439.73 68.06 439.69 66.98 439.88 65.88 Z" id="s-3-f-3"/>
<path d="M 422.00 49.38 C 418.48 47.75 404.79 42.58 400.38 41.00 C 395.96 39.42 397.17 40.04 395.50 39.88 C 393.83 39.71 394.04 39.46 390.38 40.00 C 386.71 40.54 379.90 41.67 373.50 43.12 C 367.10 44.58 360.29 46.83 352.00 48.75 C 343.71 50.67 331.85 53.12 323.75 54.62 C 315.65 56.12 309.60 56.90 303.38 57.75 C 297.15 58.60 293.90 59.06 286.38 59.75 C 278.85 60.44 263.04 61.46 258.25 61.88 C 253.46 62.29 257.73 62.04 257.62 62.25 C 257.52 62.46 257.52 62.92 257.62 63.12 C 257.73 63.33 257.92 62.79 258.25 63.50 C 258.58 64.21 259.27 66.60 259.62 67.38 C 259.98 68.15 259.88 67.06 260.38 68.12 C 260.88 69.19 262.10 72.62 262.62 73.75 C 263.15 74.88 259.48 74.90 263.50 74.88 C 267.52 74.85 278.48 74.33 286.75 73.62 C 295.02 72.92 300.15 72.40 313.12 70.62 C 326.10 68.85 352.46 64.65 364.62 63.00 C 376.79 61.35 377.06 62.73 386.12 60.75 C 395.19 58.77 413.10 52.79 419.00 51.12 C 424.90 49.46 421.00 51.04 421.50 50.75 C 422.00 50.46 425.52 51.00 422.00 49.38 Z" id="s-3-f-4"/>
<path d="M 402.00 42.12 C 401.92 39.71 402.19 41.71 401.38 41.38 C 400.56 41.04 398.96 40.35 397.12 40.12 C 395.29 39.90 394.31 39.50 390.38 40.00 C 386.44 40.50 379.79 41.69 373.50 43.12 C 367.21 44.56 360.92 46.71 352.62 48.62 C 344.33 50.54 334.56 52.79 323.75 54.62 C 312.94 56.46 298.67 58.42 287.75 59.62 C 276.83 60.83 263.27 61.44 258.25 61.88 C 253.23 62.31 257.73 62.04 257.62 62.25 C 257.52 62.46 257.33 62.54 257.62 63.12 C 257.92 63.71 259.04 65.04 259.38 65.75 C 259.71 66.46 259.46 66.98 259.62 67.38 C 259.79 67.77 259.81 66.96 260.38 68.12 C 260.94 69.29 262.48 73.25 263.00 74.38 C 263.52 75.50 259.31 75.02 263.50 74.88 C 267.69 74.73 281.29 74.02 288.12 73.50 C 294.96 72.98 293.02 73.33 304.50 71.75 C 315.98 70.17 343.40 65.83 357.00 64.00 C 370.60 62.17 378.94 61.94 386.12 60.75 C 393.31 59.56 397.50 57.69 400.12 56.88 C 402.75 56.06 401.56 58.33 401.88 55.88 C 402.19 53.42 402.08 44.54 402.00 42.12 Z" id="s-3-f-5"/>
<path d="M 353.88 48.75 C 353.75 46.10 357.21 47.44 353.12 48.25 C 349.04 49.06 336.50 52.21 329.38 53.62 C 322.25 55.04 317.56 55.73 310.38 56.75 C 303.19 57.77 294.77 58.92 286.25 59.75 C 277.73 60.58 264.00 61.35 259.25 61.75 C 254.50 62.15 258.02 61.90 257.75 62.12 C 257.48 62.35 257.54 62.90 257.62 63.12 C 257.71 63.35 257.92 62.79 258.25 63.50 C 258.58 64.21 259.27 66.60 259.62 67.38 C 259.98 68.15 259.88 67.06 260.38 68.12 C 260.88 69.19 262.10 72.62 262.62 73.75 C 263.15 74.88 261.77 74.73 263.50 74.88 C 265.23 75.02 267.67 74.98 273.00 74.62 C 278.33 74.27 282.21 74.40 295.50 72.75 C 308.79 71.10 343.02 66.19 352.75 64.75 C 362.48 63.31 353.69 66.79 353.88 64.12 C 354.06 61.46 354.00 51.40 353.88 48.75 Z" id="s-3-f-6"/>
<path d="M 305.88 71.00 C 306.10 68.83 306.00 60.96 306.00 58.75 C 306.00 56.54 306.00 58.00 305.88 57.75 C 305.75 57.50 308.52 56.92 305.25 57.25 C 301.98 57.58 293.23 59.06 286.25 59.75 C 279.27 60.44 268.15 60.96 263.38 61.38 C 258.60 61.79 258.58 61.96 257.62 62.25 C 256.67 62.54 257.52 62.92 257.62 63.12 C 257.73 63.33 257.92 62.79 258.25 63.50 C 258.58 64.21 259.27 66.60 259.62 67.38 C 259.98 68.15 259.88 67.06 260.38 68.12 C 260.88 69.19 262.10 72.62 262.62 73.75 C 263.15 74.88 259.48 74.90 263.50 74.88 C 267.52 74.85 279.90 74.15 286.75 73.62 C 293.60 73.10 301.44 72.19 304.62 71.75 C 307.81 71.31 305.65 73.17 305.88 71.00 Z" id="s-3-f-7"/>
</g>
<g id="s-4" clip-path="url(#c-s-4)">
<use href="#s-4-f-0"/>
<path d="M 376.00 114.25 C 375.94 113.42 375.83 113.50 375.38 113.12 C 374.92 112.75 375.00 112.69 373.25 112.00 C 371.50 111.31 368.56 109.96 364.88 109.00 C 361.19 108.04 354.42 106.77 351.12 106.25 C 347.83 105.73 350.90 105.12 345.12 105.88 C 339.35 106.62 326.40 109.23 316.50 110.75 C 306.60 112.27 291.35 114.12 285.75 115.00 C 280.15 115.88 283.71 115.58 282.88 116.00 C 282.04 116.42 281.23 117.06 280.75 117.50 C 280.27 117.94 280.15 118.12 280.00 118.62 C 279.85 119.12 279.81 119.96 279.88 120.50 C 279.94 121.04 279.77 121.17 280.38 121.88 C 280.98 122.58 281.42 123.62 283.50 124.75 C 285.58 125.88 290.27 127.79 292.88 128.62 C 295.48 129.46 296.42 129.56 299.12 129.75 C 301.83 129.94 305.62 130.04 309.12 129.75 C 312.62 129.46 315.54 128.54 320.12 128.00 C 324.71 127.46 332.17 127.00 336.62 126.50 C 341.08 126.00 342.44 125.46 346.88 125.00 C 351.31 124.54 359.35 124.29 363.25 123.75 C 367.15 123.21 368.50 122.40 370.25 121.75 C 372.00 121.10 372.83 120.48 373.75 119.88 C 374.67 119.27 375.38 119.06 375.75 118.12 C 376.12 117.19 376.06 115.08 376.00 114.25 Z" id="s-4-f-1"/>
<path d="M 327.88 110.12 C 327.77 107.33 329.27 108.77 327.38 108.88 C 325.48 108.98 323.44 109.73 316.50 110.75 C 309.56 111.77 291.35 114.12 285.75 115.00 C 280.15 115.88 283.75 115.52 282.88 116.00 C 282.00 116.48 281.00 117.33 280.50 117.88 C 280.00 118.42 279.96 118.69 279.88 119.25 C 279.79 119.81 279.58 120.48 280.00 121.25 C 280.42 122.02 281.46 123.12 282.38 123.88 C 283.29 124.62 283.81 124.98 285.50 125.75 C 287.19 126.52 290.44 127.85 292.50 128.50 C 294.56 129.15 295.10 129.42 297.88 129.62 C 300.65 129.83 305.42 130.02 309.12 129.75 C 312.83 129.48 317.08 128.40 320.12 128.00 C 323.17 127.60 326.06 127.77 327.38 127.38 C 328.69 126.98 327.92 128.50 328.00 125.62 C 328.08 122.75 327.98 112.92 327.88 110.12 Z" id="s-4-f-2"/>
</g>
<g id="s-5" clip-path="url(#c-s-5)">
<use href="#s-5-f-0"/>
<path d="M 373.00 171.00 C 372.85 169.60 374.10 170.52 372.25 169.88 C 370.40 169.23 365.08 167.60 361.88 167.12 C 358.67 166.65 357.79 166.52 353.00 167.00 C 348.21 167.48 338.27 169.08 333.12 170.00 C 327.98 170.92 326.29 171.71 322.12 172.50 C 317.96 173.29 315.69 173.85 308.12 174.75 C 300.56 175.65 282.02 174.81 276.75 177.88 C 271.48 180.94 276.46 190.50 276.50 193.12 C 276.54 195.75 276.60 193.50 277.00 193.62 C 277.40 193.75 275.67 193.90 278.88 193.88 C 282.08 193.85 291.79 193.69 296.25 193.50 C 300.71 193.31 297.02 193.83 305.62 192.75 C 314.23 191.67 337.19 188.15 347.88 187.00 C 358.56 185.85 365.90 186.33 369.75 185.88 C 373.60 185.42 370.54 185.40 371.00 184.25 C 371.46 183.10 372.15 180.00 372.50 179.00 C 372.85 178.00 373.04 179.58 373.12 178.25 C 373.21 176.92 373.15 172.40 373.00 171.00 Z" id="s-5-f-1"/>
<path d="M 324.75 172.38 C 324.50 169.60 327.62 171.44 323.50 172.00 C 319.38 172.56 307.77 174.77 300.00 175.75 C 292.23 176.73 280.79 177.46 276.88 177.88 C 272.96 178.29 276.54 175.65 276.50 178.25 C 276.46 180.85 276.12 190.90 276.62 193.50 C 277.12 196.10 276.50 193.85 279.50 193.88 C 282.50 193.90 290.27 193.81 294.62 193.62 C 298.98 193.44 300.67 193.33 305.62 192.75 C 310.58 192.17 321.15 190.81 324.38 190.12 C 327.60 189.44 324.94 191.58 325.00 188.62 C 325.06 185.67 325.00 175.15 324.75 172.38 Z" id="s-5-f-2"/>
</g>
<g id="s-6" clip-path="url(#c-s-6)">
<use href="#s-6-f-0"/>
<path d="M 288.38 216.00 C 287.02 215.65 287.33 215.67 285.62 216.00 C 283.92 216.33 281.15 216.90 278.12 218.00 C 275.10 219.10 271.96 221.00 267.50 222.62 C 263.04 224.25 258.23 226.06 251.38 227.75 C 244.52 229.44 234.46 231.38 226.38 232.75 C 218.29 234.12 207.12 235.29 202.88 236.00 C 198.62 236.71 201.38 236.60 200.88 237.00 C 200.38 237.40 200.02 237.81 199.88 238.38 C 199.73 238.94 199.81 239.69 200.00 240.38 C 200.19 241.06 200.02 241.25 201.00 242.50 C 201.98 243.75 204.42 246.52 205.88 247.88 C 207.33 249.23 208.25 249.81 209.75 250.62 C 211.25 251.44 213.46 252.40 214.88 252.75 C 216.29 253.10 216.75 253.23 218.25 252.75 C 219.75 252.27 220.31 251.00 223.88 249.88 C 227.44 248.75 231.38 247.62 239.62 246.00 C 247.88 244.38 267.10 241.12 273.38 240.12 C 279.65 239.12 276.15 239.88 277.25 240.00 C 278.35 240.12 279.23 240.50 280.00 240.88 C 280.77 241.25 281.25 241.65 281.88 242.25 C 282.50 242.85 283.27 243.60 283.75 244.50 C 284.23 245.40 284.40 245.83 284.75 247.62 C 285.10 249.42 285.54 244.17 285.88 255.25 C 286.21 266.33 286.65 296.25 286.75 314.12 C 286.85 332.00 286.65 351.44 286.50 362.50 C 286.35 373.56 286.17 375.12 285.88 380.50 C 285.58 385.88 285.42 389.90 284.75 394.75 C 284.08 399.60 283.04 401.44 281.88 409.62 C 280.71 417.81 278.35 437.88 277.75 443.88 C 277.15 449.88 277.67 444.77 278.25 445.62 C 278.83 446.48 280.38 448.19 281.25 449.00 C 282.12 449.81 282.83 450.19 283.50 450.50 C 284.17 450.81 284.52 450.83 285.25 450.88 C 285.98 450.92 286.85 451.08 287.88 450.75 C 288.90 450.42 290.40 449.52 291.38 448.88 C 292.35 448.23 292.54 448.12 293.75 446.88 C 294.96 445.62 297.12 443.29 298.62 441.38 C 300.12 439.46 301.40 437.90 302.75 435.38 C 304.10 432.85 305.58 430.04 306.75 426.25 C 307.92 422.46 309.08 416.54 309.75 412.62 C 310.42 408.71 310.56 407.79 310.75 402.75 C 310.94 397.71 311.15 394.46 310.88 382.38 C 310.60 370.29 309.42 346.67 309.12 330.25 C 308.83 313.83 308.98 293.79 309.12 283.88 C 309.27 273.96 309.52 275.00 310.00 270.75 C 310.48 266.50 311.33 261.52 312.00 258.38 C 312.67 255.23 313.02 254.06 314.00 251.88 C 314.98 249.69 317.06 247.04 317.88 245.25 C 318.69 243.46 318.73 242.29 318.88 241.12 C 319.02 239.96 318.92 239.04 318.75 238.25 C 318.58 237.46 318.94 237.73 317.88 236.38 C 316.81 235.02 314.08 231.81 312.38 230.12 C 310.67 228.44 309.54 227.60 307.62 226.25 C 305.71 224.90 303.19 223.35 300.88 222.00 C 298.56 220.65 295.83 219.12 293.75 218.12 C 291.67 217.12 289.73 216.35 288.38 216.00 Z" id="s-6-f-1"/>
<path d="M 202.38 236.12 C 198.12 236.83 201.29 236.62 200.88 237.00 C 200.46 237.38 200.02 237.81 199.88 238.38 C 199.73 238.94 199.81 239.69 200.00 240.38 C 200.19 241.06 200.52 241.75 201.00 242.50 C 201.48 243.25 201.71 243.71 202.88 244.88 C 204.04 246.04 206.54 248.38 208.00 249.50 C 209.46 250.62 210.48 251.08 211.62 251.62 C 212.77 252.17 213.77 252.56 214.88 252.75 C 215.98 252.94 216.75 253.23 218.25 252.75 C 219.75 252.27 220.31 251.00 223.88 249.88 C 227.44 248.75 231.38 247.62 239.62 246.00 C 247.88 244.38 267.10 241.12 273.38 240.12 C 279.65 239.12 276.15 239.88 277.25 240.00 C 278.35 240.12 279.23 240.50 280.00 240.88 C 280.77 241.25 281.25 241.65 281.88 242.25 C 282.50 242.85 283.27 243.60 283.75 244.50 C 284.23 245.40 284.40 245.83 284.75 247.62 C 285.10 249.42 285.54 244.17 285.88 255.25 C 286.21 266.33 286.62 296.83 286.75 314.12 C 286.88 331.42 286.77 347.90 286.62 359.00 C 286.48 370.10 286.17 375.00 285.88 380.75 C 285.58 386.50 285.23 390.06 284.88 393.50 C 284.52 396.94 284.23 398.83 283.75 401.38 C 283.27 403.92 282.73 403.73 282.00 408.75 C 281.27 413.77 279.48 427.62 279.38 431.50 C 279.27 435.38 277.21 431.96 281.38 432.00 C 285.54 432.04 300.15 432.71 304.38 431.75 C 308.60 430.79 306.04 428.35 306.75 426.25 C 307.46 424.15 307.96 423.04 308.62 419.12 C 309.29 415.21 310.40 410.38 310.75 402.75 C 311.10 395.12 310.88 380.25 310.75 373.38 C 310.62 366.50 310.29 370.56 310.00 361.50 C 309.71 352.44 309.17 331.23 309.00 319.00 C 308.83 306.77 308.85 295.94 309.00 288.12 C 309.15 280.31 309.54 276.27 309.88 272.12 C 310.21 267.98 310.48 266.17 311.00 263.25 C 311.52 260.33 312.33 256.88 313.00 254.62 C 313.67 252.38 314.38 250.94 315.00 249.75 C 315.62 248.56 316.15 248.60 316.75 247.50 C 317.35 246.40 318.27 244.48 318.62 243.12 C 318.98 241.77 318.90 240.31 318.88 239.38 C 318.85 238.44 319.04 238.50 318.50 237.50 C 317.96 236.50 317.44 235.25 315.62 233.38 C 313.81 231.50 310.98 228.65 307.62 226.25 C 304.27 223.85 298.71 220.71 295.50 219.00 C 292.29 217.29 290.02 216.50 288.38 216.00 C 286.73 215.50 287.33 215.67 285.62 216.00 C 283.92 216.33 281.15 216.90 278.12 218.00 C 275.10 219.10 272.67 220.83 267.50 222.62 C 262.33 224.42 253.98 227.06 247.12 228.75 C 240.27 230.44 233.83 231.52 226.38 232.75 C 218.92 233.98 206.62 235.42 202.38 236.12 Z" id="s-6-f-2"/>
<path d="M 200.88 237.00 C 200.38 237.40 200.02 237.81 199.88 238.38 C 199.73 238.94 199.50 239.29 200.00 240.38 C 200.50 241.46 201.54 243.35 202.88 244.88 C 204.21 246.40 206.54 248.38 208.00 249.50 C 209.46 250.62 210.50 251.08 211.62 251.62 C 212.75 252.17 213.65 252.56 214.75 252.75 C 215.85 252.94 216.73 253.23 218.25 252.75 C 219.77 252.27 220.31 251.00 223.88 249.88 C 227.44 248.75 231.38 247.62 239.62 246.00 C 247.88 244.38 267.00 241.10 273.38 240.12 C 279.75 239.15 276.73 239.98 277.88 240.12 C 279.02 240.27 279.40 240.46 280.25 241.00 C 281.10 241.54 282.25 242.27 283.00 243.38 C 283.75 244.48 284.27 245.81 284.75 247.62 C 285.23 249.44 285.54 242.54 285.88 254.25 C 286.21 265.96 286.62 300.42 286.75 317.88 C 286.88 335.33 286.77 348.12 286.62 359.00 C 286.48 369.88 285.75 379.02 285.88 383.12 C 286.00 387.23 286.12 383.50 287.38 383.62 C 288.62 383.75 289.50 383.90 293.38 383.88 C 297.25 383.85 307.73 385.27 310.62 383.50 C 313.52 381.73 311.00 381.83 310.75 373.25 C 310.50 364.67 309.40 346.90 309.12 332.00 C 308.85 317.10 308.98 294.08 309.12 283.88 C 309.27 273.67 309.52 275.00 310.00 270.75 C 310.48 266.50 311.33 261.52 312.00 258.38 C 312.67 255.23 313.06 253.96 314.00 251.88 C 314.94 249.79 316.83 247.44 317.62 245.88 C 318.42 244.31 318.56 243.77 318.75 242.50 C 318.94 241.23 319.12 239.58 318.75 238.25 C 318.38 236.92 317.56 235.85 316.50 234.50 C 315.44 233.15 313.77 231.44 312.38 230.12 C 310.98 228.81 310.04 227.98 308.12 226.62 C 306.21 225.27 304.04 223.75 300.88 222.00 C 297.71 220.25 291.69 217.12 289.12 216.12 C 286.56 215.12 287.33 215.69 285.50 216.00 C 283.67 216.31 281.12 216.90 278.12 218.00 C 275.12 219.10 271.96 221.00 267.50 222.62 C 263.04 224.25 258.23 226.06 251.38 227.75 C 244.52 229.44 234.46 231.38 226.38 232.75 C 218.29 234.12 207.12 235.29 202.88 236.00 C 198.62 236.71 201.38 236.60 200.88 237.00 Z" id="s-6-f-3"/>
<path d="M 200.38 237.50 C 199.88 237.90 199.94 237.90 199.88 238.38 C 199.81 238.85 199.50 239.29 200.00 240.38 C 200.50 241.46 201.54 243.35 202.88 244.88 C 204.21 246.40 206.54 248.38 208.00 249.50 C 209.46 250.62 210.50 251.08 211.62 251.62 C 212.75 252.17 213.65 252.56 214.75 252.75 C 215.85 252.94 216.79 253.21 218.25 252.75 C 219.71 252.29 220.71 250.96 223.50 250.00 C 226.29 249.04 227.69 248.50 235.00 247.00 C 242.31 245.50 260.33 242.17 267.38 241.00 C 274.42 239.83 275.10 240.00 277.25 240.00 C 279.40 240.00 279.38 240.54 280.25 241.00 C 281.12 241.46 281.92 242.15 282.50 242.75 C 283.08 243.35 283.38 243.81 283.75 244.62 C 284.12 245.44 284.40 246.02 284.75 247.62 C 285.10 249.23 285.46 239.69 285.88 254.25 C 286.29 268.81 286.96 321.40 287.25 335.00 C 287.54 348.60 284.27 335.71 287.62 335.88 C 290.98 336.04 303.79 336.04 307.38 336.00 C 310.96 335.96 308.85 343.60 309.12 335.62 C 309.40 327.65 308.85 298.94 309.00 288.12 C 309.15 277.31 309.67 274.90 310.00 270.75 C 310.33 266.60 310.50 265.92 311.00 263.25 C 311.50 260.58 312.33 257.00 313.00 254.75 C 313.67 252.50 314.23 251.23 315.00 249.75 C 315.77 248.27 316.98 247.31 317.62 245.88 C 318.27 244.44 318.69 242.40 318.88 241.12 C 319.06 239.85 318.92 239.04 318.75 238.25 C 318.58 237.46 318.94 237.73 317.88 236.38 C 316.81 235.02 314.40 232.02 312.38 230.12 C 310.35 228.23 308.56 226.85 305.75 225.00 C 302.94 223.15 298.27 220.48 295.50 219.00 C 292.73 217.52 290.79 216.62 289.12 216.12 C 287.46 215.62 287.33 215.69 285.50 216.00 C 283.67 216.31 281.12 216.90 278.12 218.00 C 275.12 219.10 271.96 221.00 267.50 222.62 C 263.04 224.25 258.23 226.06 251.38 227.75 C 244.52 229.44 234.46 231.38 226.38 232.75 C 218.29 234.12 207.21 235.21 202.88 236.00 C 198.54 236.79 200.88 237.10 200.38 237.50 Z" id="s-6-f-4"/>
<path d="M 318.88 239.38 C 318.75 238.25 318.42 237.38 317.88 236.38 C 317.33 235.38 317.25 235.00 315.62 233.38 C 314.00 231.75 311.17 228.85 308.12 226.62 C 305.08 224.40 300.67 221.77 297.38 220.00 C 294.08 218.23 290.35 216.67 288.38 216.00 C 286.40 215.33 287.21 215.67 285.50 216.00 C 283.79 216.33 281.12 216.90 278.12 218.00 C 275.12 219.10 271.96 221.00 267.50 222.62 C 263.04 224.25 258.23 226.06 251.38 227.75 C 244.52 229.44 234.46 231.38 226.38 232.75 C 218.29 234.12 207.12 235.29 202.88 236.00 C 198.62 236.71 201.38 236.60 200.88 237.00 C 200.38 237.40 200.02 237.81 199.88 238.38 C 199.73 238.94 199.81 239.69 200.00 240.38 C 200.19 241.06 200.02 241.25 201.00 242.50 C 201.98 243.75 204.42 246.52 205.88 247.88 C 207.33 249.23 208.27 249.81 209.75 250.62 C 211.23 251.44 213.33 252.40 214.75 252.75 C 216.17 253.10 216.73 253.23 218.25 252.75 C 219.77 252.27 219.38 251.19 223.88 249.88 C 228.38 248.56 237.00 246.50 245.25 244.88 C 253.50 243.25 268.04 240.94 273.38 240.12 C 278.71 239.31 276.10 239.85 277.25 240.00 C 278.40 240.15 279.38 240.54 280.25 241.00 C 281.12 241.46 281.94 242.19 282.50 242.75 C 283.06 243.31 283.06 242.46 283.62 244.38 C 284.19 246.29 285.44 247.21 285.88 254.25 C 286.31 261.29 286.06 281.04 286.25 286.62 C 286.44 292.21 286.65 287.52 287.00 287.75 C 287.35 287.98 285.83 287.96 288.38 288.00 C 290.92 288.04 298.81 288.10 302.25 288.00 C 305.69 287.90 307.73 290.02 309.00 287.38 C 310.27 284.73 309.52 276.25 309.88 272.12 C 310.23 268.00 310.44 266.00 311.12 262.62 C 311.81 259.25 312.92 254.67 314.00 251.88 C 315.08 249.08 316.85 247.33 317.62 245.88 C 318.40 244.42 318.42 244.21 318.62 243.12 C 318.83 242.04 319.00 240.50 318.88 239.38 Z" id="s-6-f-5"/>
<path d="M 318.75 238.25 C 318.25 237.19 317.58 235.46 315.62 233.38 C 313.67 231.29 310.04 227.98 307.00 225.75 C 303.96 223.52 300.35 221.60 297.38 220.00 C 294.40 218.40 291.08 216.79 289.12 216.12 C 287.17 215.46 287.46 215.69 285.62 216.00 C 283.79 216.31 281.15 216.90 278.12 218.00 C 275.10 219.10 271.96 221.00 267.50 222.62 C 263.04 224.25 258.23 226.06 251.38 227.75 C 244.52 229.44 234.54 231.35 226.38 232.75 C 218.21 234.15 206.71 235.33 202.38 236.12 C 198.04 236.92 200.79 236.94 200.38 237.50 C 199.96 238.06 199.77 238.67 199.88 239.50 C 199.98 240.33 200.60 241.73 201.00 242.50 C 201.40 243.27 201.08 242.96 202.25 244.12 C 203.42 245.29 206.02 248.08 208.00 249.50 C 209.98 250.92 212.42 252.08 214.12 252.62 C 215.83 253.17 216.69 253.19 218.25 252.75 C 219.81 252.31 221.44 250.79 223.50 250.00 C 225.56 249.21 227.00 248.85 230.62 248.00 C 234.25 247.15 238.12 246.19 245.25 244.88 C 252.38 243.56 261.56 240.94 273.38 240.12 C 285.19 239.31 308.58 240.06 316.12 240.00 C 323.67 239.94 318.19 240.04 318.62 239.75 C 319.06 239.46 319.25 239.31 318.75 238.25 Z" id="s-6-f-6"/>
<path d="M 296.00 220.00 C 295.88 216.73 296.40 219.52 295.25 218.88 C 294.10 218.23 290.73 216.60 289.12 216.12 C 287.52 215.65 287.46 215.69 285.62 216.00 C 283.79 216.31 281.15 216.90 278.12 218.00 C 275.10 219.10 271.96 221.00 267.50 222.62 C 263.04 224.25 258.23 226.06 251.38 227.75 C 244.52 229.44 234.54 231.35 226.38 232.75 C 218.21 234.15 206.75 235.27 202.38 236.12 C 198.00 236.98 200.52 237.17 200.12 237.88 C 199.73 238.58 199.54 239.21 200.00 240.38 C 200.46 241.54 201.54 243.35 202.88 244.88 C 204.21 246.40 206.12 248.21 208.00 249.50 C 209.88 250.79 212.42 252.08 214.12 252.62 C 215.83 253.17 216.69 253.19 218.25 252.75 C 219.81 252.31 221.44 250.79 223.50 250.00 C 225.56 249.21 227.00 248.85 230.62 248.00 C 234.25 247.15 241.44 245.58 245.25 244.88 C 249.06 244.17 249.81 244.40 253.50 243.75 C 257.19 243.10 263.79 241.62 267.38 241.00 C 270.96 240.38 270.29 240.19 275.00 240.00 C 279.71 239.81 292.12 240.12 295.62 239.88 C 299.12 239.62 295.94 241.81 296.00 238.50 C 296.06 235.19 296.12 223.27 296.00 220.00 Z" id="s-6-f-7"/>
<path d="M 247.88 229.12 C 247.79 226.73 251.08 228.02 247.50 228.62 C 243.92 229.23 233.81 231.52 226.38 232.75 C 218.94 233.98 207.25 235.15 202.88 236.00 C 198.50 236.85 200.60 237.15 200.12 237.88 C 199.65 238.60 199.54 239.21 200.00 240.38 C 200.46 241.54 201.54 243.35 202.88 244.88 C 204.21 246.40 206.12 248.21 208.00 249.50 C 209.88 250.79 212.42 252.08 214.12 252.62 C 215.83 253.17 216.69 253.19 218.25 252.75 C 219.81 252.31 218.62 251.35 223.50 250.00 C 228.38 248.65 243.42 245.79 247.50 244.62 C 251.58 243.46 247.94 245.58 248.00 243.00 C 248.06 240.42 247.96 231.52 247.88 229.12 Z" id="s-6-f-8"/>
</g>
<g id="s-7" clip-path="url(#c-s-7)">
<use href="#s-7-f-0"/>
<path d="M 205.25 273.00 C 205.00 273.50 204.46 273.75 205.12 274.88 C 205.79 276.00 207.44 277.38 209.25 279.75 C 211.06 282.12 213.23 285.56 216.00 289.12 C 218.77 292.69 222.75 297.62 225.88 301.12 C 229.00 304.62 232.62 308.19 234.75 310.12 C 236.88 312.06 237.15 311.98 238.62 312.75 C 240.10 313.52 241.96 314.42 243.62 314.75 C 245.29 315.08 247.38 314.92 248.62 314.75 C 249.88 314.58 250.44 314.12 251.12 313.75 C 251.81 313.38 252.46 316.48 252.75 312.50 C 253.04 308.52 253.54 294.54 252.88 289.88 C 252.21 285.21 250.44 285.96 248.75 284.50 C 247.06 283.04 245.00 282.19 242.75 281.12 C 240.50 280.06 238.69 279.31 235.25 278.12 C 231.81 276.94 225.94 275.02 222.12 274.00 C 218.31 272.98 214.96 272.35 212.38 272.00 C 209.79 271.65 207.81 271.71 206.62 271.88 C 205.44 272.04 205.50 272.50 205.25 273.00 Z" id="s-7-f-1"/>
</g>
<g id="s-8" clip-path="url(#c-s-8)">
<use href="#s-8-f-0"/>
<path d="M 223.88 353.00 C 223.69 348.98 224.21 352.15 222.75 352.75 C 221.29 353.35 219.52 354.77 215.12 356.62 C 210.73 358.48 200.71 362.35 196.38 363.88 C 192.04 365.40 192.06 365.23 189.12 365.75 C 186.19 366.27 180.79 366.56 178.75 367.00 C 176.71 367.44 177.33 367.77 176.88 368.38 C 176.42 368.98 176.12 369.42 176.00 370.62 C 175.88 371.83 175.79 374.25 176.12 375.62 C 176.46 377.00 176.85 377.31 178.00 378.88 C 179.15 380.44 181.33 383.17 183.00 385.00 C 184.67 386.83 186.54 388.58 188.00 389.88 C 189.46 391.17 190.27 391.92 191.75 392.75 C 193.23 393.58 195.38 394.56 196.88 394.88 C 198.38 395.19 199.58 394.85 200.75 394.62 C 201.92 394.40 202.60 394.12 203.88 393.50 C 205.15 392.88 207.00 391.81 208.38 390.88 C 209.75 389.94 209.54 390.21 212.12 387.88 C 214.71 385.54 221.92 382.69 223.88 376.88 C 225.83 371.06 224.06 357.02 223.88 353.00 Z" id="s-8-f-1"/>
</g>
<g id="s-9" clip-path="url(#c-s-9)">
<use href="#s-9-f-0"/>
<path d="M 326.50 229.00 C 322.79 229.65 325.12 230.08 324.88 230.62 C 324.62 231.17 324.54 231.35 325.00 232.25 C 325.46 233.15 326.06 234.42 327.62 236.00 C 329.19 237.58 332.71 240.48 334.38 241.75 C 336.04 243.02 336.46 243.12 337.62 243.62 C 338.79 244.12 339.88 244.58 341.38 244.75 C 342.88 244.92 344.96 244.92 346.62 244.62 C 348.29 244.33 349.12 243.60 351.38 243.00 C 353.62 242.40 353.35 242.19 360.12 241.00 C 366.90 239.81 382.67 236.88 392.00 235.88 C 401.33 234.88 411.40 234.96 416.12 235.00 C 420.85 235.04 419.40 235.73 420.38 236.12 C 421.35 236.52 421.62 236.98 422.00 237.38 C 422.38 237.77 422.33 237.23 422.62 238.50 C 422.92 239.77 423.23 232.27 423.75 245.00 C 424.27 257.73 425.48 293.71 425.75 314.88 C 426.02 336.04 425.60 358.73 425.38 372.00 C 425.15 385.27 424.81 388.48 424.38 394.50 C 423.94 400.52 423.42 405.12 422.75 408.12 C 422.08 411.12 420.96 411.60 420.38 412.50 C 419.79 413.40 419.81 413.29 419.25 413.50 C 418.69 413.71 423.38 415.48 417.00 413.75 C 410.62 412.02 387.77 404.94 381.00 403.12 C 374.23 401.31 377.25 402.79 376.38 402.88 C 375.50 402.96 375.85 403.17 375.75 403.62 C 375.65 404.08 375.56 404.98 375.75 405.62 C 375.94 406.27 374.77 405.42 376.88 407.50 C 378.98 409.58 384.29 414.19 388.38 418.12 C 392.46 422.06 396.19 425.75 401.38 431.12 C 406.56 436.50 415.75 446.29 419.50 450.38 C 423.25 454.46 422.75 454.40 423.88 455.62 C 425.00 456.85 425.56 457.25 426.25 457.75 C 426.94 458.25 427.04 458.48 428.00 458.62 C 428.96 458.77 430.60 459.12 432.00 458.62 C 433.40 458.12 435.15 456.71 436.38 455.62 C 437.60 454.54 437.67 454.77 439.38 452.12 C 441.08 449.48 444.73 443.79 446.62 439.75 C 448.52 435.71 449.71 431.81 450.75 427.88 C 451.79 423.94 452.38 419.58 452.88 416.12 C 453.38 412.67 453.58 412.23 453.75 407.12 C 453.92 402.02 454.15 398.29 453.88 385.50 C 453.60 372.71 452.44 347.12 452.12 330.38 C 451.81 313.62 451.85 295.54 452.00 285.00 C 452.15 274.46 452.67 271.42 453.00 267.12 C 453.33 262.83 453.52 262.04 454.00 259.25 C 454.48 256.46 454.92 253.40 455.88 250.38 C 456.83 247.35 458.94 243.27 459.75 241.12 C 460.56 238.98 460.56 238.75 460.75 237.50 C 460.94 236.25 461.04 234.81 460.88 233.62 C 460.71 232.44 460.83 232.02 459.75 230.38 C 458.67 228.73 456.35 225.81 454.38 223.75 C 452.40 221.69 450.92 220.12 447.88 218.00 C 444.83 215.88 439.19 212.67 436.12 211.00 C 433.06 209.33 431.12 208.50 429.50 208.00 C 427.88 207.50 427.83 207.79 426.38 208.00 C 424.92 208.21 423.29 208.46 420.75 209.25 C 418.21 210.04 414.98 211.50 411.12 212.75 C 407.27 214.00 404.31 215.08 397.62 216.75 C 390.94 218.42 379.42 221.08 371.00 222.75 C 362.58 224.42 354.54 225.71 347.12 226.75 C 339.71 227.79 330.21 228.35 326.50 229.00 Z" id="s-9-f-1"/>
<path d="M 326.50 229.00 C 322.79 229.65 325.12 230.08 324.88 230.62 C 324.62 231.17 324.54 231.35 325.00 232.25 C 325.46 233.15 326.06 234.42 327.62 236.00 C 329.19 237.58 332.71 240.48 334.38 241.75 C 336.04 243.02 336.46 243.12 337.62 243.62 C 338.79 244.12 339.85 244.58 341.38 244.75 C 342.90 244.92 345.08 244.92 346.75 244.62 C 348.42 244.33 349.15 243.60 351.38 243.00 C 353.60 242.40 353.52 242.17 360.12 241.00 C 366.73 239.83 381.67 237.00 391.00 236.00 C 400.33 235.00 411.08 234.90 416.12 235.00 C 421.17 235.10 420.15 235.98 421.25 236.62 C 422.35 237.27 422.33 237.48 422.75 238.88 C 423.17 240.27 423.25 232.33 423.75 245.00 C 424.25 257.67 425.42 296.65 425.75 314.88 C 426.08 333.10 425.92 341.98 425.75 354.38 C 425.58 366.77 425.38 378.65 424.75 389.25 C 424.12 399.85 422.67 407.67 422.00 418.00 C 421.33 428.33 420.92 445.54 420.75 451.25 C 420.58 456.96 420.58 451.62 421.00 452.25 C 421.42 452.88 422.33 454.06 423.25 455.00 C 424.17 455.94 425.65 457.25 426.50 457.88 C 427.35 458.50 427.46 458.62 428.38 458.75 C 429.29 458.88 430.75 459.06 432.00 458.62 C 433.25 458.19 434.90 456.90 435.88 456.12 C 436.85 455.35 436.88 455.27 437.88 454.00 C 438.88 452.73 440.73 450.25 441.88 448.50 C 443.02 446.75 443.46 446.27 444.75 443.50 C 446.04 440.73 448.29 436.25 449.62 431.88 C 450.96 427.50 452.06 421.50 452.75 417.25 C 453.44 413.00 453.56 411.75 453.75 406.38 C 453.94 401.00 454.15 397.69 453.88 385.00 C 453.60 372.31 452.42 347.48 452.12 330.25 C 451.83 313.02 451.98 292.15 452.12 281.62 C 452.27 271.10 452.52 271.73 453.00 267.12 C 453.48 262.52 454.35 257.29 455.00 254.00 C 455.65 250.71 456.08 249.52 456.88 247.38 C 457.67 245.23 459.10 242.77 459.75 241.12 C 460.40 239.48 460.56 238.75 460.75 237.50 C 460.94 236.25 461.04 234.81 460.88 233.62 C 460.71 232.44 460.83 232.02 459.75 230.38 C 458.67 228.73 456.35 225.81 454.38 223.75 C 452.40 221.69 450.83 220.08 447.88 218.00 C 444.92 215.92 439.69 212.92 436.62 211.25 C 433.56 209.58 431.21 208.54 429.50 208.00 C 427.79 207.46 427.75 207.81 426.38 208.00 C 425.00 208.19 423.79 208.33 421.25 209.12 C 418.71 209.92 415.06 211.48 411.12 212.75 C 407.19 214.02 404.31 215.08 397.62 216.75 C 390.94 218.42 379.42 221.08 371.00 222.75 C 362.58 224.42 354.54 225.71 347.12 226.75 C 339.71 227.79 330.21 228.35 326.50 229.00 Z" id="s-9-f-2"/>
<path d="M 326.25 229.12 C 322.54 229.77 325.08 230.10 324.88 230.62 C 324.67 231.15 324.54 231.35 325.00 232.25 C 325.46 233.15 326.06 234.42 327.62 236.00 C 329.19 237.58 332.71 240.48 334.38 241.75 C 336.04 243.02 336.46 243.12 337.62 243.62 C 338.79 244.12 339.85 244.58 341.38 244.75 C 342.90 244.92 345.08 244.92 346.75 244.62 C 348.42 244.33 349.15 243.60 351.38 243.00 C 353.60 242.40 353.52 242.17 360.12 241.00 C 366.73 239.83 381.67 237.00 391.00 236.00 C 400.33 235.00 411.27 235.00 416.12 235.00 C 420.98 235.00 419.15 235.60 420.12 236.00 C 421.10 236.40 421.54 236.81 422.00 237.38 C 422.46 237.94 422.58 238.10 422.88 239.38 C 423.17 240.65 423.27 232.42 423.75 245.00 C 424.23 257.58 425.42 296.65 425.75 314.88 C 426.08 333.10 425.92 341.98 425.75 354.38 C 425.58 366.77 425.08 381.25 424.75 389.25 C 424.42 397.25 424.10 398.98 423.75 402.38 C 423.40 405.77 422.96 405.60 422.62 409.62 C 422.29 413.65 421.54 423.60 421.75 426.50 C 421.96 429.40 419.04 426.96 423.88 427.00 C 428.71 427.04 445.94 428.38 450.75 426.75 C 455.56 425.12 452.23 421.52 452.75 417.25 C 453.27 412.98 453.71 408.42 453.88 401.12 C 454.04 393.83 453.90 379.90 453.75 373.50 C 453.60 367.10 453.27 369.96 453.00 362.75 C 452.73 355.54 452.27 343.77 452.12 330.25 C 451.98 316.73 451.98 292.15 452.12 281.62 C 452.27 271.10 452.52 271.73 453.00 267.12 C 453.48 262.52 454.35 257.29 455.00 254.00 C 455.65 250.71 456.08 249.52 456.88 247.38 C 457.67 245.23 459.10 242.77 459.75 241.12 C 460.40 239.48 460.56 238.75 460.75 237.50 C 460.94 236.25 461.04 234.81 460.88 233.62 C 460.71 232.44 460.83 232.02 459.75 230.38 C 458.67 228.73 456.35 225.81 454.38 223.75 C 452.40 221.69 450.83 220.08 447.88 218.00 C 444.92 215.92 439.69 212.92 436.62 211.25 C 433.56 209.58 431.21 208.54 429.50 208.00 C 427.79 207.46 427.75 207.81 426.38 208.00 C 425.00 208.19 423.79 208.33 421.25 209.12 C 418.71 209.92 415.06 211.48 411.12 212.75 C 407.19 214.02 404.31 215.08 397.62 216.75 C 390.94 218.42 379.42 221.08 371.00 222.75 C 362.58 224.42 354.58 225.69 347.12 226.75 C 339.67 227.81 329.96 228.48 326.25 229.12 Z" id="s-9-f-3"/>
<path d="M 324.88 230.62 C 324.65 231.23 324.48 231.54 325.12 232.62 C 325.77 233.71 327.21 235.60 328.75 237.12 C 330.29 238.65 332.90 240.67 334.38 241.75 C 335.85 242.83 336.46 243.12 337.62 243.62 C 338.79 244.12 339.88 244.58 341.38 244.75 C 342.88 244.92 344.96 244.92 346.62 244.62 C 348.29 244.33 349.12 243.60 351.38 243.00 C 353.62 242.40 353.35 242.19 360.12 241.00 C 366.90 239.81 382.67 236.88 392.00 235.88 C 401.33 234.88 411.44 234.98 416.12 235.00 C 420.81 235.02 419.15 235.60 420.12 236.00 C 421.10 236.40 421.54 236.81 422.00 237.38 C 422.46 237.94 422.58 238.10 422.88 239.38 C 423.17 240.65 423.27 232.42 423.75 245.00 C 424.23 257.58 425.50 292.65 425.75 314.88 C 426.00 337.10 425.27 367.71 425.25 378.38 C 425.23 389.04 420.96 378.83 425.62 378.88 C 430.29 378.92 448.56 379.52 453.25 378.62 C 457.94 377.73 453.79 376.15 453.75 373.50 C 453.71 370.85 453.27 369.90 453.00 362.75 C 452.73 355.60 452.29 343.58 452.12 330.62 C 451.96 317.67 451.88 295.35 452.00 285.00 C 452.12 274.65 452.54 272.79 452.88 268.50 C 453.21 264.21 453.50 262.27 454.00 259.25 C 454.50 256.23 454.92 253.40 455.88 250.38 C 456.83 247.35 458.94 243.27 459.75 241.12 C 460.56 238.98 460.58 238.88 460.75 237.50 C 460.92 236.12 461.17 234.44 460.75 232.88 C 460.33 231.31 460.12 230.40 458.25 228.12 C 456.38 225.85 452.02 221.44 449.50 219.25 C 446.98 217.06 446.02 216.71 443.12 215.00 C 440.23 213.29 434.40 210.17 432.12 209.00 C 429.85 207.83 430.46 208.17 429.50 208.00 C 428.54 207.83 428.29 207.67 426.38 208.00 C 424.46 208.33 421.60 208.88 418.00 210.00 C 414.40 211.12 410.17 213.12 404.75 214.75 C 399.33 216.38 393.96 217.92 385.50 219.75 C 377.04 221.58 363.83 224.21 354.00 225.75 C 344.17 227.29 331.35 228.19 326.50 229.00 C 321.65 229.81 325.10 230.02 324.88 230.62 Z" id="s-9-f-4"/>
<path d="M 325.12 230.12 C 324.88 230.67 324.88 231.62 325.00 232.25 C 325.12 232.88 325.00 232.83 325.88 233.88 C 326.75 234.92 328.83 237.19 330.25 238.50 C 331.67 239.81 333.15 240.90 334.38 241.75 C 335.60 242.60 336.46 243.12 337.62 243.62 C 338.79 244.12 339.88 244.58 341.38 244.75 C 342.88 244.92 344.96 244.92 346.62 244.62 C 348.29 244.33 349.12 243.60 351.38 243.00 C 353.62 242.40 353.35 242.19 360.12 241.00 C 366.90 239.81 382.67 236.88 392.00 235.88 C 401.33 234.88 411.25 234.88 416.12 235.00 C 421.00 235.12 420.15 235.98 421.25 236.62 C 422.35 237.27 422.33 237.48 422.75 238.88 C 423.17 240.27 423.21 229.69 423.75 245.00 C 424.29 260.31 421.35 316.46 426.00 330.75 C 430.65 345.04 447.27 330.94 451.62 330.75 C 455.98 330.56 452.06 337.25 452.12 329.62 C 452.19 322.00 451.85 295.42 452.00 285.00 C 452.15 274.58 452.50 272.29 453.00 267.12 C 453.50 261.96 454.31 257.40 455.00 254.00 C 455.69 250.60 456.33 248.90 457.12 246.75 C 457.92 244.60 459.17 242.56 459.75 241.12 C 460.33 239.69 460.44 239.35 460.62 238.12 C 460.81 236.90 461.02 235.04 460.88 233.75 C 460.73 232.46 460.19 231.31 459.75 230.38 C 459.31 229.44 459.88 229.92 458.25 228.12 C 456.62 226.33 452.79 221.98 450.00 219.62 C 447.21 217.27 444.12 215.60 441.50 214.00 C 438.88 212.40 436.17 210.98 434.25 210.00 C 432.33 209.02 431.31 208.46 430.00 208.12 C 428.69 207.79 428.38 207.69 426.38 208.00 C 424.38 208.31 421.60 208.88 418.00 210.00 C 414.40 211.12 410.17 213.12 404.75 214.75 C 399.33 216.38 393.96 217.92 385.50 219.75 C 377.04 221.58 363.83 224.21 354.00 225.75 C 344.17 227.29 331.31 228.27 326.50 229.00 C 321.69 229.73 325.38 229.58 325.12 230.12 Z" id="s-9-f-5"/>
<path d="M 452.12 282.25 C 452.56 279.88 452.56 272.33 452.88 268.50 C 453.19 264.67 453.50 262.27 454.00 259.25 C 454.50 256.23 454.77 253.90 455.88 250.38 C 456.98 246.85 459.81 241.04 460.62 238.12 C 461.44 235.21 461.15 234.54 460.75 232.88 C 460.35 231.21 460.04 230.33 458.25 228.12 C 456.46 225.92 452.79 221.98 450.00 219.62 C 447.21 217.27 444.83 215.92 441.50 214.00 C 438.17 212.08 432.52 209.12 430.00 208.12 C 427.48 207.12 427.92 207.81 426.38 208.00 C 424.83 208.19 424.35 208.12 420.75 209.25 C 417.15 210.38 410.62 213.00 404.75 214.75 C 398.88 216.50 393.96 217.92 385.50 219.75 C 377.04 221.58 363.83 224.21 354.00 225.75 C 344.17 227.29 331.35 228.19 326.50 229.00 C 321.65 229.81 325.10 230.02 324.88 230.62 C 324.65 231.23 324.83 231.92 325.12 232.62 C 325.42 233.33 325.50 233.67 326.62 234.88 C 327.75 236.08 330.04 238.42 331.88 239.88 C 333.71 241.33 336.04 242.81 337.62 243.62 C 339.21 244.44 339.88 244.58 341.38 244.75 C 342.88 244.92 344.96 244.92 346.62 244.62 C 348.29 244.33 349.12 243.60 351.38 243.00 C 353.62 242.40 353.35 242.19 360.12 241.00 C 366.90 239.81 382.67 236.88 392.00 235.88 C 401.33 234.88 411.44 234.98 416.12 235.00 C 420.81 235.02 419.27 235.73 420.12 236.00 C 420.98 236.27 420.83 236.21 421.25 236.62 C 421.67 237.04 422.21 237.10 422.62 238.50 C 423.04 239.90 423.38 237.69 423.75 245.00 C 424.12 252.31 424.40 276.08 424.88 282.38 C 425.35 288.67 423.48 282.67 426.62 282.75 C 429.77 282.83 439.81 282.88 443.75 282.88 C 447.69 282.88 448.85 282.85 450.25 282.75 C 451.65 282.65 451.69 284.62 452.12 282.25 Z" id="s-9-f-6"/>
<path d="M 460.88 234.25 C 461.12 233.52 460.67 231.96 459.75 230.38 C 458.83 228.79 457.15 226.65 455.38 224.75 C 453.60 222.85 451.73 220.96 449.12 219.00 C 446.52 217.04 443.02 214.83 439.75 213.00 C 436.48 211.17 431.73 208.83 429.50 208.00 C 427.27 207.17 427.83 207.79 426.38 208.00 C 424.92 208.21 424.35 208.12 420.75 209.25 C 417.15 210.38 410.62 213.00 404.75 214.75 C 398.88 216.50 393.96 217.92 385.50 219.75 C 377.04 221.58 363.83 224.21 354.00 225.75 C 344.17 227.29 331.35 228.19 326.50 229.00 C 321.65 229.81 325.12 230.08 324.88 230.62 C 324.62 231.17 324.71 231.54 325.00 232.25 C 325.29 232.96 325.48 233.60 326.62 234.88 C 327.77 236.15 330.04 238.42 331.88 239.88 C 333.71 241.33 336.04 242.81 337.62 243.62 C 339.21 244.44 339.88 244.58 341.38 244.75 C 342.88 244.92 344.96 244.92 346.62 244.62 C 348.29 244.33 349.12 243.60 351.38 243.00 C 353.62 242.40 353.35 242.19 360.12 241.00 C 366.90 239.81 383.48 236.88 392.00 235.88 C 400.52 234.88 400.21 235.19 411.25 235.00 C 422.29 234.81 449.98 234.88 458.25 234.75 C 466.52 234.62 460.62 234.98 460.88 234.25 Z" id="s-9-f-7"/>
<path d="M 420.75 210.00 C 420.60 206.04 420.58 209.50 420.12 209.50 C 419.67 209.50 419.50 209.46 418.00 210.00 C 416.50 210.54 415.17 211.46 411.12 212.75 C 407.08 214.04 400.44 216.08 393.75 217.75 C 387.06 219.42 377.62 221.42 371.00 222.75 C 364.38 224.08 361.42 224.71 354.00 225.75 C 346.58 226.79 331.35 228.19 326.50 229.00 C 321.65 229.81 325.12 230.08 324.88 230.62 C 324.62 231.17 324.54 231.35 325.00 232.25 C 325.46 233.15 326.06 234.42 327.62 236.00 C 329.19 237.58 332.71 240.48 334.38 241.75 C 336.04 243.02 336.21 243.10 337.62 243.62 C 339.04 244.15 341.46 244.69 342.88 244.88 C 344.29 245.06 344.71 245.06 346.12 244.75 C 347.54 244.44 348.17 243.79 351.38 243.00 C 354.58 242.21 358.77 241.17 365.38 240.00 C 371.98 238.83 383.35 236.83 391.00 236.00 C 398.65 235.17 406.33 235.17 411.25 235.00 C 416.17 234.83 418.88 235.29 420.50 235.00 C 422.12 234.71 420.96 237.42 421.00 233.25 C 421.04 229.08 420.90 213.96 420.75 210.00 Z" id="s-9-f-8"/>
<path d="M 372.88 222.75 C 372.81 220.00 375.40 221.75 372.25 222.25 C 369.10 222.75 361.62 224.62 354.00 225.75 C 346.38 226.88 331.35 228.19 326.50 229.00 C 321.65 229.81 325.12 230.08 324.88 230.62 C 324.62 231.17 324.71 231.54 325.00 232.25 C 325.29 232.96 325.98 234.04 326.62 234.88 C 327.27 235.71 327.58 236.10 328.88 237.25 C 330.17 238.40 332.92 240.69 334.38 241.75 C 335.83 242.81 336.62 243.17 337.62 243.62 C 338.62 244.08 338.98 244.31 340.38 244.50 C 341.77 244.69 343.48 245.17 346.00 244.75 C 348.52 244.33 351.06 243.00 355.50 242.00 C 359.94 241.00 369.73 241.96 372.62 238.75 C 375.52 235.54 372.94 225.50 372.88 222.75 Z" id="s-9-f-9"/>
</g>
<g id="s-10" clip-path="url(#c-s-10)">
<use href="#s-10-f-0"/>
<path d="M 334.00 269.50 C 333.83 270.06 332.71 269.15 334.62 271.50 C 336.54 273.85 340.83 278.88 345.50 283.62 C 350.17 288.38 358.62 296.46 362.62 300.00 C 366.62 303.54 367.46 303.58 369.50 304.88 C 371.54 306.17 373.44 307.10 374.88 307.75 C 376.31 308.40 377.02 308.56 378.12 308.75 C 379.23 308.94 380.88 308.92 381.50 308.88 C 382.12 308.83 381.79 312.08 381.88 308.50 C 381.96 304.92 382.06 292.50 382.00 287.38 C 381.94 282.25 383.21 279.98 381.50 277.75 C 379.79 275.52 376.92 275.46 371.75 274.00 C 366.58 272.54 355.17 270.00 350.50 269.00 C 345.83 268.00 345.98 268.19 343.75 268.00 C 341.52 267.81 338.48 267.85 337.12 267.88 C 335.77 267.90 336.15 267.85 335.62 268.12 C 335.10 268.40 334.17 268.94 334.00 269.50 Z" id="s-10-f-1"/>
</g>
<g id="s-11" clip-path="url(#c-s-11)">
<use href="#s-11-f-0"/>
<path d="M 368.88 340.88 C 368.83 336.77 371.62 339.04 368.50 340.50 C 365.38 341.96 354.88 347.44 350.12 349.62 C 345.38 351.81 342.92 352.60 340.00 353.62 C 337.08 354.65 335.46 355.19 332.62 355.75 C 329.79 356.31 324.79 356.62 323.00 357.00 C 321.21 357.38 322.19 357.56 321.88 358.00 C 321.56 358.44 321.29 358.94 321.12 359.62 C 320.96 360.31 320.88 361.08 320.88 362.12 C 320.88 363.17 320.77 364.67 321.12 365.88 C 321.48 367.08 321.23 367.23 323.00 369.38 C 324.77 371.52 329.19 376.33 331.75 378.75 C 334.31 381.17 336.83 382.85 338.38 383.88 C 339.92 384.90 339.98 384.73 341.00 384.88 C 342.02 385.02 343.15 385.10 344.50 384.75 C 345.85 384.40 347.31 383.94 349.12 382.75 C 350.94 381.56 352.10 380.56 355.38 377.62 C 358.65 374.69 366.50 371.25 368.75 365.12 C 371.00 359.00 368.92 344.98 368.88 340.88 Z" id="s-11-f-1"/>
</g>
</svg>