<?xml version="1.0" encoding="UTF-8"?>
<svg xmlns="http://www.w3.org/2000/svg" viewBox="0 0 500 500">
<defs>
<path d="M 79.50 69.75 C 78.94 70.27 78.25 71.27 78.00 72.00 C 77.75 72.73 77.19 72.73 78.00 74.12 C 78.81 75.52 80.52 77.06 82.88 80.38 C 85.23 83.69 88.60 89.12 92.12 94.00 C 95.65 98.88 101.02 105.85 104.00 109.62 C 106.98 113.40 107.77 114.23 110.00 116.62 C 112.23 119.02 115.02 121.85 117.38 124.00 C 119.73 126.15 122.40 128.25 124.12 129.50 C 125.85 130.75 126.48 130.96 127.75 131.50 C 129.02 132.04 129.94 132.56 131.75 132.75 C 133.56 132.94 136.88 132.92 138.62 132.62 C 140.38 132.33 141.33 131.56 142.25 131.00 C 143.17 130.44 143.40 130.21 144.12 129.25 C 144.85 128.29 146.04 126.54 146.62 125.25 C 147.21 123.96 147.46 124.19 147.62 121.50 C 147.79 118.81 147.79 112.04 147.62 109.12 C 147.46 106.21 147.25 106.06 146.62 104.00 C 146.00 101.94 144.67 98.52 143.88 96.75 C 143.08 94.98 142.94 94.79 141.88 93.38 C 140.81 91.96 139.33 89.79 137.50 88.25 C 135.67 86.71 133.40 85.50 130.88 84.12 C 128.35 82.75 127.38 82.02 122.38 80.00 C 117.38 77.98 106.60 73.81 100.88 72.00 C 95.15 70.19 91.25 69.65 88.00 69.12 C 84.75 68.60 82.79 68.77 81.38 68.88 C 79.96 68.98 80.06 69.23 79.50 69.75 Z" id="s-0-f-0"/>
<clipPath id="c-s-0"><use href="#s-0-f-0"/></clipPath>
<path d="M 38.50 172.75 C 37.94 173.27 37.25 174.27 37.00 175.00 C 36.75 175.73 32.88 171.42 37.00 177.12 C 41.12 182.83 55.48 201.62 61.75 209.25 C 68.02 216.88 70.75 219.17 74.62 222.88 C 78.50 226.58 82.67 229.71 85.00 231.50 C 87.33 233.29 87.56 233.10 88.62 233.62 C 89.69 234.15 90.00 234.42 91.38 234.62 C 92.75 234.83 95.56 234.90 96.88 234.88 C 98.19 234.85 98.23 234.85 99.25 234.50 C 100.27 234.15 102.06 233.31 103.00 232.75 C 103.94 232.19 104.12 232.12 104.88 231.12 C 105.62 230.12 106.85 228.27 107.50 226.75 C 108.15 225.23 108.52 224.08 108.75 222.00 C 108.98 219.92 108.94 216.35 108.88 214.25 C 108.81 212.15 108.90 211.56 108.38 209.38 C 107.85 207.19 106.69 203.27 105.75 201.12 C 104.81 198.98 104.06 198.10 102.75 196.50 C 101.44 194.90 100.21 193.23 97.88 191.50 C 95.54 189.77 93.25 188.21 88.75 186.12 C 84.25 184.04 76.46 181.00 70.88 179.00 C 65.29 177.00 59.33 175.27 55.25 174.12 C 51.17 172.98 48.85 172.50 46.38 172.12 C 43.90 171.75 41.69 171.77 40.38 171.88 C 39.06 171.98 39.06 172.23 38.50 172.75 Z" id="s-1-f-0"/>
<clipPath id="c-s-1"><use href="#s-1-f-0"/></clipPath>
<path d="M 152.38 248.88 C 151.81 248.65 151.00 248.81 150.38 249.00 C 149.75 249.19 149.48 249.23 148.62 250.00 C 147.77 250.77 148.40 248.56 145.25 253.62 C 142.10 258.69 134.83 271.90 129.75 280.38 C 124.67 288.85 119.46 297.17 114.75 304.50 C 110.04 311.83 105.52 318.67 101.50 324.38 C 97.48 330.08 93.92 334.58 90.62 338.75 C 87.33 342.92 84.71 346.19 81.75 349.38 C 78.79 352.56 75.46 355.52 72.88 357.88 C 70.29 360.23 69.56 360.98 66.25 363.50 C 62.94 366.02 55.54 371.10 53.00 373.00 C 50.46 374.90 51.83 373.85 51.00 374.88 C 50.17 375.90 48.67 377.92 48.00 379.12 C 47.33 380.33 47.15 380.48 47.00 382.12 C 46.85 383.77 46.79 386.58 47.12 389.00 C 47.46 391.42 48.15 393.73 49.00 396.62 C 49.85 399.52 50.90 402.67 52.25 406.38 C 53.60 410.08 55.83 415.83 57.12 418.88 C 58.42 421.92 58.90 422.73 60.00 424.62 C 61.10 426.52 62.42 428.75 63.75 430.25 C 65.08 431.75 66.60 433.04 68.00 433.62 C 69.40 434.21 70.83 434.04 72.12 433.75 C 73.42 433.46 74.40 433.02 75.75 431.88 C 77.10 430.73 78.96 428.69 80.25 426.88 C 81.54 425.06 82.42 423.29 83.50 421.00 C 84.58 418.71 84.83 418.40 86.75 413.12 C 88.67 407.85 92.12 397.10 95.00 389.38 C 97.88 381.65 100.71 373.90 104.00 366.75 C 107.29 359.60 110.77 354.25 114.75 346.50 C 118.73 338.75 122.71 331.06 127.88 320.25 C 133.04 309.44 142.12 289.81 145.75 281.62 C 149.38 273.44 148.33 275.21 149.62 271.12 C 150.92 267.04 152.81 260.58 153.50 257.12 C 154.19 253.67 153.94 251.75 153.75 250.38 C 153.56 249.00 152.94 249.10 152.38 248.88 Z" id="s-2-f-0"/>
<clipPath id="c-s-2"><use href="#s-2-f-0"/></clipPath>
<path d="M 409.75 114.50 C 409.54 113.73 409.04 113.15 408.38 112.38 C 407.71 111.60 407.15 110.94 405.75 109.88 C 404.35 108.81 401.92 107.17 400.00 106.00 C 398.08 104.83 397.40 104.19 394.25 102.88 C 391.10 101.56 384.40 98.94 381.12 98.12 C 377.85 97.31 379.54 97.33 374.62 98.00 C 369.71 98.67 356.19 101.19 351.62 102.12 C 347.06 103.06 348.77 103.33 347.25 103.62 C 345.73 103.92 348.65 102.85 342.50 103.88 C 336.35 104.90 326.31 107.10 310.38 109.75 C 294.44 112.40 258.31 118.04 246.88 119.75 C 235.44 121.46 246.69 119.35 241.75 120.00 C 236.81 120.65 228.31 122.15 217.25 123.62 C 206.19 125.10 183.35 127.65 175.38 128.88 C 167.40 130.10 170.56 130.46 169.38 131.00 C 168.19 131.54 168.50 131.71 168.25 132.12 C 168.00 132.54 167.67 132.83 167.88 133.50 C 168.08 134.17 168.71 135.25 169.50 136.12 C 170.29 137.00 170.44 137.48 172.62 138.75 C 174.81 140.02 179.19 142.44 182.62 143.75 C 186.06 145.06 190.44 146.10 193.25 146.62 C 196.06 147.15 197.46 147.02 199.50 146.88 C 201.54 146.73 203.52 146.23 205.50 145.75 C 207.48 145.27 209.08 144.50 211.38 144.00 C 213.67 143.50 216.94 143.25 219.25 142.75 C 221.56 142.25 222.88 141.48 225.25 141.00 C 227.62 140.52 229.85 140.56 233.50 139.88 C 237.15 139.19 238.62 138.33 247.12 136.88 C 255.62 135.42 270.94 132.79 284.50 131.12 C 298.06 129.46 317.08 128.06 328.50 126.88 C 339.92 125.69 344.94 124.75 353.00 124.00 C 361.06 123.25 369.12 122.77 376.88 122.38 C 384.62 121.98 395.04 121.90 399.50 121.62 C 403.96 121.35 402.19 121.23 403.62 120.75 C 405.06 120.27 407.12 119.38 408.12 118.75 C 409.12 118.12 409.35 117.71 409.62 117.00 C 409.90 116.29 409.96 115.27 409.75 114.50 Z" id="s-3-f-0"/>
<clipPath id="c-s-3"><use href="#s-3-f-0"/></clipPath>
<path d="M 210.50 69.00 C 208.65 69.19 209.02 69.69 208.50 70.12 C 207.98 70.56 207.65 71.08 207.38 71.62 C 207.10 72.17 206.94 72.71 206.88 73.38 C 206.81 74.04 206.52 74.56 207.00 75.62 C 207.48 76.69 208.62 77.75 209.75 79.75 C 210.88 81.75 212.56 85.02 213.75 87.62 C 214.94 90.23 215.88 92.54 216.88 95.38 C 217.88 98.21 218.79 100.67 219.75 104.62 C 220.71 108.58 222.15 115.42 222.62 119.12 C 223.10 122.83 222.50 125.35 222.62 126.88 C 222.75 128.40 223.02 126.21 223.38 128.25 C 223.73 130.29 224.33 136.90 224.75 139.12 C 225.17 141.35 224.33 125.67 225.88 141.62 C 227.42 157.58 232.29 218.00 234.00 234.88 C 235.71 251.75 235.31 240.48 236.12 242.88 C 236.94 245.27 237.83 247.58 238.88 249.25 C 239.92 250.92 241.50 252.12 242.38 252.88 C 243.25 253.62 243.35 253.60 244.12 253.75 C 244.90 253.90 246.06 254.17 247.00 253.75 C 247.94 253.33 248.96 252.29 249.75 251.25 C 250.54 250.21 251.04 251.02 251.75 247.50 C 252.46 243.98 253.98 240.29 254.00 230.12 C 254.02 219.96 252.73 198.12 251.88 186.50 C 251.02 174.88 249.69 168.35 248.88 160.38 C 248.06 152.40 247.29 144.42 247.00 138.62 C 246.71 132.83 247.23 128.04 247.12 125.62 C 247.02 123.21 246.44 124.42 246.38 124.12 C 246.31 123.83 247.00 125.81 246.75 123.88 C 246.50 121.94 245.38 119.46 244.88 112.50 C 244.38 105.54 244.25 87.75 243.75 82.12 C 243.25 76.50 242.71 79.79 241.88 78.75 C 241.04 77.71 240.79 77.17 238.75 75.88 C 236.71 74.58 231.71 71.98 229.62 71.00 C 227.54 70.02 227.92 70.33 226.25 70.00 C 224.58 69.67 222.25 69.17 219.62 69.00 C 217.00 68.83 212.35 68.81 210.50 69.00 Z" id="s-4-f-0"/>
<clipPath id="c-s-4"><use href="#s-4-f-0"/></clipPath>
<path d="M 317.38 35.88 C 315.60 36.02 313.73 36.46 312.38 37.00 C 311.02 37.54 310.00 38.48 309.25 39.12 C 308.50 39.77 308.08 40.35 307.88 40.88 C 307.67 41.40 307.35 41.10 308.00 42.25 C 308.65 43.40 310.44 44.60 311.75 47.75 C 313.06 50.90 315.19 51.00 315.88 61.12 C 316.56 71.25 316.06 99.58 315.88 108.50 C 315.69 117.42 314.98 112.75 314.75 114.62 C 314.52 116.50 314.50 115.27 314.50 119.75 C 314.50 124.23 314.88 133.33 314.75 141.50 C 314.62 149.67 313.92 161.96 313.75 168.75 C 313.58 175.54 313.88 179.71 313.75 182.25 C 313.62 184.79 313.33 179.12 313.00 184.00 C 312.67 188.88 312.08 205.67 311.75 211.50 C 311.42 217.33 311.17 214.46 311.00 219.00 C 310.83 223.54 310.71 235.15 310.75 238.75 C 310.79 242.35 310.33 239.10 311.25 240.62 C 312.17 242.15 314.98 246.35 316.25 247.88 C 317.52 249.40 318.02 249.44 318.88 249.75 C 319.73 250.06 320.29 250.25 321.38 249.75 C 322.46 249.25 324.12 248.02 325.38 246.75 C 326.62 245.48 327.81 244.02 328.88 242.12 C 329.94 240.23 330.77 238.50 331.75 235.38 C 332.73 232.25 333.44 232.67 334.75 223.38 C 336.06 214.08 338.10 195.94 339.62 179.62 C 341.15 163.31 342.98 135.62 343.88 125.50 C 344.77 115.38 344.81 122.75 345.00 118.88 C 345.19 115.00 344.83 106.90 345.00 102.25 C 345.17 97.60 345.33 96.04 346.00 91.00 C 346.67 85.96 348.21 75.98 349.00 72.00 C 349.79 68.02 350.15 69.38 350.75 67.12 C 351.35 64.88 352.27 60.69 352.62 58.50 C 352.98 56.31 352.90 55.02 352.88 54.00 C 352.85 52.98 353.08 53.33 352.50 52.38 C 351.92 51.42 350.75 49.65 349.38 48.25 C 348.00 46.85 345.92 45.21 344.25 44.00 C 342.58 42.79 342.17 42.17 339.38 41.00 C 336.58 39.83 330.23 37.81 327.50 37.00 C 324.77 36.19 324.69 36.31 323.00 36.12 C 321.31 35.94 319.15 35.73 317.38 35.88 Z" id="s-5-f-0"/>
<clipPath id="c-s-5"><use href="#s-5-f-0"/></clipPath>
<path d="M 314.25 168.38 C 314.15 166.10 315.12 168.27 313.62 167.88 C 312.12 167.48 308.44 166.29 305.25 166.00 C 302.06 165.71 299.25 165.17 294.50 166.12 C 289.75 167.08 283.77 169.73 276.75 171.75 C 269.73 173.77 256.75 176.98 252.38 178.25 C 248.00 179.52 250.77 178.00 250.50 179.38 C 250.23 180.75 250.58 184.54 250.75 186.50 C 250.92 188.46 251.08 190.23 251.50 191.12 C 251.92 192.02 252.38 191.75 253.25 191.88 C 254.12 192.00 254.12 192.06 256.75 191.88 C 259.38 191.69 260.04 192.10 269.00 190.75 C 277.96 189.40 302.96 185.29 310.50 183.75 C 318.04 182.21 313.62 184.06 314.25 181.50 C 314.88 178.94 314.35 170.65 314.25 168.38 Z" id="s-6-f-0"/>
<clipPath id="c-s-6"><use href="#s-6-f-0"/></clipPath>
<path d="M 311.25 225.25 C 310.65 222.54 309.10 223.79 307.62 223.12 C 306.15 222.46 304.35 221.60 302.38 221.25 C 300.40 220.90 300.52 220.10 295.75 221.00 C 290.98 221.90 280.75 225.15 273.75 226.62 C 266.75 228.10 257.27 228.69 253.75 229.88 C 250.23 231.06 253.00 231.15 252.62 233.75 C 252.25 236.35 251.10 243.33 251.50 245.50 C 251.90 247.67 253.23 246.54 255.00 246.75 C 256.77 246.96 257.40 247.23 262.12 246.75 C 266.85 246.27 276.25 244.98 283.38 243.88 C 290.50 242.77 300.31 240.79 304.88 240.12 C 309.44 239.46 309.69 240.00 310.75 239.88 C 311.81 239.75 311.17 241.81 311.25 239.38 C 311.33 236.94 311.85 227.96 311.25 225.25 Z" id="s-7-f-0"/>
<clipPath id="c-s-7"><use href="#s-7-f-0"/></clipPath>
<path d="M 432.88 289.12 C 432.75 288.31 432.50 287.81 431.88 287.00 C 431.25 286.19 430.38 285.25 429.12 284.25 C 427.88 283.25 426.08 282.02 424.38 281.00 C 422.67 279.98 422.23 279.46 418.88 278.12 C 415.52 276.79 407.52 274.02 404.25 273.00 C 400.98 271.98 401.06 272.17 399.25 272.00 C 397.44 271.83 397.00 271.54 393.38 272.00 C 389.75 272.46 392.90 272.62 377.50 274.75 C 362.10 276.88 314.54 283.06 301.00 284.75 C 287.46 286.44 310.00 283.38 296.25 284.88 C 282.50 286.38 240.56 291.40 218.50 293.75 C 196.44 296.10 173.56 297.96 163.88 299.00 C 154.19 300.04 161.19 299.69 160.38 300.00 C 159.56 300.31 159.42 300.48 159.00 300.88 C 158.58 301.27 158.06 301.94 157.88 302.38 C 157.69 302.81 157.77 303.04 157.88 303.50 C 157.98 303.96 157.71 304.21 158.50 305.12 C 159.29 306.04 160.31 307.42 162.62 309.00 C 164.94 310.58 169.15 313.02 172.38 314.62 C 175.60 316.23 179.33 317.94 182.00 318.62 C 184.67 319.31 184.19 319.35 188.38 318.75 C 192.56 318.15 199.31 316.29 207.12 315.00 C 214.94 313.71 215.08 313.19 235.25 311.00 C 255.42 308.81 308.00 303.71 328.12 301.88 C 348.25 300.04 341.71 300.56 356.00 300.00 C 370.29 299.44 402.50 299.04 413.88 298.50 C 425.25 297.96 421.62 297.38 424.25 296.75 C 426.88 296.12 428.23 295.56 429.62 294.75 C 431.02 293.94 432.08 292.81 432.62 291.88 C 433.17 290.94 433.00 289.94 432.88 289.12 Z" id="s-8-f-0"/>
<clipPath id="c-s-8"><use href="#s-8-f-0"/></clipPath>
<path d="M 284.38 242.62 C 283.35 242.75 283.48 243.21 282.38 243.38 C 281.27 243.54 280.10 243.29 277.75 243.62 C 275.40 243.96 270.02 244.85 268.25 245.38 C 266.48 245.90 267.35 246.27 267.12 246.75 C 266.90 247.23 266.88 247.44 266.88 248.25 C 266.88 249.06 266.50 249.10 267.12 251.62 C 267.75 254.15 269.69 257.75 270.62 263.38 C 271.56 269.00 272.40 263.40 272.75 285.38 C 273.10 307.35 272.92 373.52 272.75 395.25 C 272.58 416.98 272.10 411.06 271.75 415.75 C 271.40 420.44 271.08 421.19 270.62 423.38 C 270.17 425.56 269.25 427.04 269.00 428.88 C 268.75 430.71 268.77 432.17 269.12 434.38 C 269.48 436.58 270.15 439.29 271.12 442.12 C 272.10 444.96 273.69 448.83 275.00 451.38 C 276.31 453.92 277.88 455.88 279.00 457.38 C 280.12 458.88 280.75 459.50 281.75 460.38 C 282.75 461.25 284.00 462.21 285.00 462.62 C 286.00 463.04 287.06 462.90 287.75 462.88 C 288.44 462.85 288.44 462.94 289.12 462.50 C 289.81 462.06 290.96 461.31 291.88 460.25 C 292.79 459.19 293.50 458.31 294.62 456.12 C 295.75 453.94 297.60 450.23 298.62 447.12 C 299.65 444.02 300.40 441.35 300.75 437.50 C 301.10 433.65 300.88 427.23 300.75 424.00 C 300.62 420.77 300.29 424.23 300.00 418.12 C 299.71 412.02 299.19 405.06 299.00 387.38 C 298.81 369.69 298.83 325.69 298.88 312.00 C 298.92 298.31 299.06 306.71 299.25 305.25 C 299.44 303.79 299.85 304.04 300.00 303.25 C 300.15 302.46 300.12 303.77 300.12 300.50 C 300.12 297.23 299.69 289.00 300.00 283.62 C 300.31 278.25 301.40 272.08 302.00 268.25 C 302.60 264.42 303.31 262.83 303.62 260.62 C 303.94 258.42 304.02 256.48 303.88 255.00 C 303.73 253.52 303.23 252.62 302.75 251.75 C 302.27 250.88 301.75 250.40 301.00 249.75 C 300.25 249.10 300.17 248.90 298.25 247.88 C 296.33 246.85 291.12 244.50 289.50 243.62 C 287.88 242.75 289.35 242.79 288.50 242.62 C 287.65 242.46 285.40 242.50 284.38 242.62 Z" id="s-9-f-0"/>
<clipPath id="c-s-9"><use href="#s-9-f-0"/></clipPath>
<path d="M 273.00 288.25 C 272.83 282.06 272.42 288.02 272.00 288.25 C 271.58 288.48 270.92 289.10 270.50 289.62 C 270.08 290.15 272.10 288.33 269.50 291.38 C 266.90 294.42 257.33 304.77 254.88 307.88 C 252.42 310.98 255.42 308.58 254.75 310.00 C 254.08 311.42 253.75 312.48 250.88 316.38 C 248.00 320.27 242.88 327.15 237.50 333.38 C 232.12 339.60 224.08 348.06 218.62 353.75 C 213.17 359.44 210.21 362.42 204.75 367.50 C 199.29 372.58 193.10 378.08 185.88 384.25 C 178.65 390.42 167.98 399.27 161.38 404.50 C 154.77 409.73 151.23 412.12 146.25 415.62 C 141.27 419.12 133.83 423.79 131.50 425.50 C 129.17 427.21 131.31 425.83 132.25 425.88 C 133.19 425.92 132.90 426.77 137.12 425.75 C 141.35 424.73 151.92 421.75 157.62 419.75 C 163.33 417.75 166.54 416.08 171.38 413.75 C 176.21 411.42 182.35 408.10 186.62 405.75 C 190.90 403.40 193.31 402.00 197.00 399.62 C 200.69 397.25 204.54 394.67 208.75 391.50 C 212.96 388.33 217.12 385.12 222.25 380.62 C 227.38 376.12 233.42 370.69 239.50 364.50 C 245.58 358.31 253.71 349.21 258.75 343.50 C 263.79 337.79 267.54 333.12 269.75 330.25 C 271.96 327.38 271.46 327.06 272.00 326.25 C 272.54 325.44 272.83 331.71 273.00 325.38 C 273.17 319.04 273.17 294.44 273.00 288.25 Z" id="s-10-f-0"/>
<clipPath id="c-s-10"><use href="#s-10-f-0"/></clipPath>
<path d="M 298.62 296.00 C 298.44 298.60 298.54 308.67 298.75 311.38 C 298.96 314.08 295.65 306.40 299.88 312.25 C 304.10 318.10 315.94 335.31 324.12 346.50 C 332.31 357.69 341.48 369.92 349.00 379.38 C 356.52 388.83 364.85 398.21 369.25 403.25 C 373.65 408.29 373.52 407.88 375.38 409.62 C 377.23 411.38 378.35 412.60 380.38 413.75 C 382.40 414.90 385.25 415.85 387.50 416.50 C 389.75 417.15 389.50 417.42 393.88 417.62 C 398.25 417.83 408.48 417.90 413.75 417.75 C 419.02 417.60 421.25 417.27 425.50 416.75 C 429.75 416.23 434.21 415.65 439.25 414.62 C 444.29 413.60 452.08 411.60 455.75 410.62 C 459.42 409.65 460.15 409.23 461.25 408.75 C 462.35 408.27 462.15 408.23 462.38 407.75 C 462.60 407.27 463.15 406.62 462.62 405.88 C 462.10 405.12 461.15 404.12 459.25 403.25 C 457.35 402.38 458.98 403.88 451.25 400.62 C 443.52 397.38 423.81 388.90 412.88 383.75 C 401.94 378.60 393.15 373.92 385.62 369.75 C 378.10 365.58 372.98 362.27 367.75 358.75 C 362.52 355.23 358.81 352.29 354.25 348.62 C 349.69 344.96 346.52 342.42 340.38 336.75 C 334.23 331.08 322.73 319.88 317.38 314.62 C 312.02 309.38 309.96 307.12 308.25 305.25 C 306.54 303.38 308.52 304.96 307.12 303.38 C 305.73 301.79 301.29 296.98 299.88 295.75 C 298.46 294.52 298.81 293.40 298.62 296.00 Z" id="s-11-f-0"/>
<clipPath id="c-s-11"><use href="#s-11-f-0"/></clipPath>
</defs>
<g id="s-0" clip-path="url(#c-s-0)">
<use href="#s-0-f-0"/>
<path d="M 79.50 69.75 C 78.94 70.27 78.23 71.23 78.00 72.00 C 77.77 72.77 74.02 68.40 78.12 74.38 C 82.23 80.35 97.31 100.83 102.62 107.88 C 107.94 114.92 107.54 113.94 110.00 116.62 C 112.46 119.31 114.94 121.79 117.38 124.00 C 119.81 126.21 123.23 128.90 124.62 129.88 C 126.02 130.85 125.56 137.85 125.75 129.88 C 125.94 121.90 126.31 90.31 125.75 82.00 C 125.19 73.69 124.17 80.83 122.38 80.00 C 120.58 79.17 119.06 78.48 115.00 77.00 C 110.94 75.52 102.50 72.44 98.00 71.12 C 93.50 69.81 90.77 69.50 88.00 69.12 C 85.23 68.75 82.79 68.77 81.38 68.88 C 79.96 68.98 80.06 69.23 79.50 69.75 Z" id="s-0-f-1"/>
</g>
<g id="s-1" clip-path="url(#c-s-1)">
<use href="#s-1-f-0"/>
<path d="M 38.50 172.75 C 38.08 173.25 37.23 174.23 37.00 175.00 C 36.77 175.77 34.54 173.56 37.12 177.38 C 39.71 181.19 48.40 192.56 52.50 197.88 C 56.60 203.19 58.58 205.58 61.75 209.25 C 64.92 212.92 67.73 216.25 71.50 219.88 C 75.27 223.50 82.15 231.44 84.38 231.00 C 86.60 230.56 84.81 224.98 84.88 217.25 C 84.94 209.52 85.27 190.33 84.75 184.62 C 84.23 178.92 84.00 183.92 81.75 183.00 C 79.50 182.08 76.31 180.77 71.25 179.12 C 66.19 177.48 56.12 174.33 51.38 173.12 C 46.62 171.92 44.73 172.06 42.75 171.88 C 40.77 171.69 40.21 171.85 39.50 172.00 C 38.79 172.15 38.92 172.25 38.50 172.75 Z" id="s-1-f-1"/>
</g>
<g id="s-2" clip-path="url(#c-s-2)">
<use href="#s-2-f-0"/>
<path d="M 141.00 291.00 C 138.00 290.88 129.71 285.44 123.12 291.00 C 116.54 296.56 106.42 317.04 101.50 324.38 C 96.58 331.71 96.65 331.15 93.62 335.00 C 90.60 338.85 86.83 343.69 83.38 347.50 C 79.92 351.31 75.73 355.21 72.88 357.88 C 70.02 360.54 68.94 361.48 66.25 363.50 C 63.56 365.52 59.15 368.25 56.75 370.00 C 54.35 371.75 53.33 372.48 51.88 374.00 C 50.42 375.52 48.81 377.77 48.00 379.12 C 47.19 380.48 47.15 380.48 47.00 382.12 C 46.85 383.77 46.79 386.58 47.12 389.00 C 47.46 391.42 48.15 393.73 49.00 396.62 C 49.85 399.52 50.90 402.67 52.25 406.38 C 53.60 410.08 55.83 415.83 57.12 418.88 C 58.42 421.92 58.90 422.73 60.00 424.62 C 61.10 426.52 62.46 428.77 63.75 430.25 C 65.04 431.73 66.35 432.92 67.75 433.50 C 69.15 434.08 70.79 434.02 72.12 433.75 C 73.46 433.48 74.65 432.69 75.75 431.88 C 76.85 431.06 77.62 430.35 78.75 428.88 C 79.88 427.40 81.33 425.19 82.50 423.00 C 83.67 420.81 83.67 421.35 85.75 415.75 C 87.83 410.15 91.96 397.54 95.00 389.38 C 98.04 381.21 100.71 373.90 104.00 366.75 C 107.29 359.60 110.77 354.25 114.75 346.50 C 118.73 338.75 123.48 329.38 127.88 320.25 C 132.27 311.12 138.94 296.62 141.12 291.75 C 143.31 286.88 144.00 291.12 141.00 291.00 Z" id="s-2-f-1"/>
<path d="M 117.75 338.88 C 113.19 338.69 96.62 337.12 90.62 338.88 C 84.62 340.62 84.71 346.21 81.75 349.38 C 78.79 352.54 75.46 355.52 72.88 357.88 C 70.29 360.23 69.56 360.98 66.25 363.50 C 62.94 366.02 55.54 371.10 53.00 373.00 C 50.46 374.90 51.83 373.85 51.00 374.88 C 50.17 375.90 48.67 377.92 48.00 379.12 C 47.33 380.33 47.15 380.48 47.00 382.12 C 46.85 383.77 46.79 386.58 47.12 389.00 C 47.46 391.42 48.15 393.73 49.00 396.62 C 49.85 399.52 50.90 402.67 52.25 406.38 C 53.60 410.08 55.83 415.83 57.12 418.88 C 58.42 421.92 58.90 422.73 60.00 424.62 C 61.10 426.52 62.46 428.77 63.75 430.25 C 65.04 431.73 66.35 432.92 67.75 433.50 C 69.15 434.08 70.79 434.02 72.12 433.75 C 73.46 433.48 74.65 432.69 75.75 431.88 C 76.85 431.06 77.62 430.35 78.75 428.88 C 79.88 427.40 81.17 425.62 82.50 423.00 C 83.83 420.38 84.67 418.73 86.75 413.12 C 88.83 407.52 92.27 396.77 95.00 389.38 C 97.73 381.98 99.29 376.98 103.12 368.75 C 106.96 360.52 115.56 344.98 118.00 340.00 C 120.44 335.02 122.31 339.06 117.75 338.88 Z" id="s-2-f-2"/>
<path d="M 47.50 386.75 C 41.73 387.10 46.88 387.35 47.12 389.00 C 47.38 390.65 47.69 392.52 49.00 396.62 C 50.31 400.73 53.17 408.96 55.00 413.62 C 56.83 418.29 58.54 421.85 60.00 424.62 C 61.46 427.40 62.65 428.88 63.75 430.25 C 64.85 431.62 65.85 432.29 66.62 432.88 C 67.40 433.46 67.73 433.58 68.38 433.75 C 69.02 433.92 69.88 433.88 70.50 433.88 C 71.12 433.88 71.46 433.94 72.12 433.75 C 72.79 433.56 73.40 433.56 74.50 432.75 C 75.60 431.94 77.25 430.83 78.75 428.88 C 80.25 426.92 80.67 427.81 83.50 421.00 C 86.33 414.19 94.17 393.62 95.75 388.00 C 97.33 382.38 95.33 387.44 93.00 387.25 C 90.67 387.06 89.33 386.96 81.75 386.88 C 74.17 386.79 53.27 386.40 47.50 386.75 Z" id="s-2-f-3"/>
</g>
<g id="s-3" clip-path="url(#c-s-3)">
<use href="#s-3-f-0"/>
<path d="M 408.00 112.62 C 407.94 111.56 408.00 112.08 407.62 111.62 C 407.25 111.17 407.02 110.81 405.75 109.88 C 404.48 108.94 401.92 107.17 400.00 106.00 C 398.08 104.83 397.40 104.19 394.25 102.88 C 391.10 101.56 384.40 98.94 381.12 98.12 C 377.85 97.31 379.54 97.33 374.62 98.00 C 369.71 98.67 356.19 101.19 351.62 102.12 C 347.06 103.06 348.77 103.33 347.25 103.62 C 345.73 103.92 348.65 102.85 342.50 103.88 C 336.35 104.90 326.31 107.10 310.38 109.75 C 294.44 112.40 258.31 118.04 246.88 119.75 C 235.44 121.46 246.69 119.35 241.75 120.00 C 236.81 120.65 228.31 122.15 217.25 123.62 C 206.19 125.10 183.35 127.65 175.38 128.88 C 167.40 130.10 170.56 130.46 169.38 131.00 C 168.19 131.54 168.50 131.71 168.25 132.12 C 168.00 132.54 167.67 132.83 167.88 133.50 C 168.08 134.17 168.71 135.25 169.50 136.12 C 170.29 137.00 170.44 137.48 172.62 138.75 C 174.81 140.02 179.19 142.44 182.62 143.75 C 186.06 145.06 190.44 146.10 193.25 146.62 C 196.06 147.15 197.46 147.02 199.50 146.88 C 201.54 146.73 203.52 146.23 205.50 145.75 C 207.48 145.27 209.08 144.50 211.38 144.00 C 213.67 143.50 216.94 143.25 219.25 142.75 C 221.56 142.25 222.88 141.48 225.25 141.00 C 227.62 140.52 229.85 140.56 233.50 139.88 C 237.15 139.19 238.62 138.33 247.12 136.88 C 255.62 135.42 270.94 132.79 284.50 131.12 C 298.06 129.46 317.08 128.06 328.50 126.88 C 339.92 125.69 344.94 124.75 353.00 124.00 C 361.06 123.25 369.12 122.77 376.88 122.38 C 384.62 121.98 395.04 121.90 399.50 121.62 C 403.96 121.35 402.27 121.19 403.62 120.75 C 404.98 120.31 406.90 119.46 407.62 119.00 C 408.35 118.54 407.94 119.06 408.00 118.00 C 408.06 116.94 408.06 113.69 408.00 112.62 Z" id="s-3-f-1"/>
<path d="M 359.75 102.25 C 359.67 98.58 359.75 101.21 359.38 101.00 C 359.00 100.79 359.29 100.69 357.50 101.00 C 355.71 101.31 350.33 102.44 348.62 102.88 C 346.92 103.31 348.27 103.46 347.25 103.62 C 346.23 103.79 348.65 102.85 342.50 103.88 C 336.35 104.90 326.31 107.10 310.38 109.75 C 294.44 112.40 258.31 118.04 246.88 119.75 C 235.44 121.46 246.69 119.35 241.75 120.00 C 236.81 120.65 227.81 122.23 217.25 123.62 C 206.69 125.02 186.10 127.27 178.38 128.38 C 170.65 129.48 172.56 129.62 170.88 130.25 C 169.19 130.88 168.75 131.58 168.25 132.12 C 167.75 132.67 167.67 132.83 167.88 133.50 C 168.08 134.17 168.71 135.25 169.50 136.12 C 170.29 137.00 170.44 137.48 172.62 138.75 C 174.81 140.02 179.19 142.44 182.62 143.75 C 186.06 145.06 190.44 146.10 193.25 146.62 C 196.06 147.15 197.46 147.02 199.50 146.88 C 201.54 146.73 203.52 146.23 205.50 145.75 C 207.48 145.27 209.08 144.50 211.38 144.00 C 213.67 143.50 216.94 143.25 219.25 142.75 C 221.56 142.25 222.88 141.48 225.25 141.00 C 227.62 140.52 229.00 140.71 233.50 139.88 C 238.00 139.04 244.81 137.31 252.25 136.00 C 259.69 134.69 267.90 133.33 278.12 132.00 C 288.35 130.67 306.85 128.69 313.62 128.00 C 320.40 127.31 313.62 128.40 318.75 127.88 C 323.88 127.35 337.60 125.58 344.38 124.88 C 351.15 124.17 356.79 123.94 359.38 123.62 C 361.96 123.31 359.81 126.56 359.88 123.00 C 359.94 119.44 359.83 105.92 359.75 102.25 Z" id="s-3-f-2"/>
<path d="M 311.88 110.00 C 311.79 107.17 312.27 109.62 311.50 109.62 C 310.73 109.62 318.02 108.31 307.25 110.00 C 296.48 111.69 257.79 118.08 246.88 119.75 C 235.96 121.42 246.69 119.35 241.75 120.00 C 236.81 120.65 227.81 122.23 217.25 123.62 C 206.69 125.02 186.10 127.27 178.38 128.38 C 170.65 129.48 172.56 129.62 170.88 130.25 C 169.19 130.88 168.75 131.58 168.25 132.12 C 167.75 132.67 167.67 132.83 167.88 133.50 C 168.08 134.17 168.71 135.25 169.50 136.12 C 170.29 137.00 170.44 137.48 172.62 138.75 C 174.81 140.02 179.19 142.44 182.62 143.75 C 186.06 145.06 190.23 146.12 193.25 146.62 C 196.27 147.12 197.73 147.19 200.75 146.75 C 203.77 146.31 208.29 144.67 211.38 144.00 C 214.46 143.33 216.94 143.25 219.25 142.75 C 221.56 142.25 222.92 141.48 225.25 141.00 C 227.58 140.52 228.75 140.71 233.25 139.88 C 237.75 139.04 243.71 137.46 252.25 136.00 C 260.79 134.54 274.65 132.40 284.50 131.12 C 294.35 129.85 306.79 129.12 311.38 128.38 C 315.96 127.62 311.92 129.69 312.00 126.62 C 312.08 123.56 311.96 112.83 311.88 110.00 Z" id="s-3-f-3"/>
<path d="M 264.00 117.38 C 263.79 114.56 265.48 116.60 262.62 117.00 C 259.77 117.40 250.35 119.25 246.88 119.75 C 243.40 120.25 246.69 119.35 241.75 120.00 C 236.81 120.65 228.31 122.15 217.25 123.62 C 206.19 125.10 183.35 127.65 175.38 128.88 C 167.40 130.10 170.56 130.46 169.38 131.00 C 168.19 131.54 168.50 131.69 168.25 132.12 C 168.00 132.56 167.67 132.96 167.88 133.62 C 168.08 134.29 168.71 135.27 169.50 136.12 C 170.29 136.98 170.12 137.35 172.62 138.75 C 175.12 140.15 180.92 143.17 184.50 144.50 C 188.08 145.83 191.29 146.40 194.12 146.75 C 196.96 147.10 198.62 147.08 201.50 146.62 C 204.38 146.17 208.42 144.65 211.38 144.00 C 214.33 143.35 216.94 143.25 219.25 142.75 C 221.56 142.25 222.92 141.48 225.25 141.00 C 227.58 140.52 228.75 140.71 233.25 139.88 C 237.75 139.04 247.25 136.90 252.25 136.00 C 257.25 135.10 261.31 134.85 263.25 134.50 C 265.19 134.15 263.75 136.73 263.88 133.88 C 264.00 131.02 264.21 120.19 264.00 117.38 Z" id="s-3-f-4"/>
<path d="M 215.88 142.88 C 216.10 140.54 215.96 132.60 215.88 129.62 C 215.79 126.65 215.56 125.94 215.38 125.00 C 215.19 124.06 221.42 123.35 214.75 124.00 C 208.08 124.65 182.94 127.71 175.38 128.88 C 167.81 130.04 170.62 130.31 169.38 131.00 C 168.12 131.69 168.10 132.46 167.88 133.00 C 167.65 133.54 167.73 133.73 168.00 134.25 C 168.27 134.77 168.46 135.21 169.50 136.12 C 170.54 137.04 172.06 138.48 174.25 139.75 C 176.44 141.02 180.19 142.75 182.62 143.75 C 185.06 144.75 186.96 145.25 188.88 145.75 C 190.79 146.25 192.31 146.56 194.12 146.75 C 195.94 146.94 196.35 147.40 199.75 146.88 C 203.15 146.35 211.81 144.29 214.50 143.62 C 217.19 142.96 215.65 145.21 215.88 142.88 Z" id="s-3-f-5"/>
</g>
<g id="s-4" clip-path="url(#c-s-4)">
<use href="#s-4-f-0"/>
<path d="M 210.50 69.00 C 208.73 69.12 209.52 69.31 209.00 69.75 C 208.48 70.19 207.73 71.02 207.38 71.62 C 207.02 72.23 206.94 72.71 206.88 73.38 C 206.81 74.04 206.38 74.29 207.00 75.62 C 207.62 76.96 208.98 78.08 210.62 81.38 C 212.27 84.67 215.35 91.50 216.88 95.38 C 218.40 99.25 218.81 100.81 219.75 104.62 C 220.69 108.44 222.02 114.54 222.50 118.25 C 222.98 121.96 222.48 125.21 222.62 126.88 C 222.77 128.54 223.02 126.21 223.38 128.25 C 223.73 130.29 224.33 136.90 224.75 139.12 C 225.17 141.35 224.65 129.40 225.88 141.62 C 227.10 153.85 230.81 200.60 232.12 212.50 C 233.44 224.40 231.33 212.94 233.75 213.00 C 236.17 213.06 243.65 213.00 246.62 212.88 C 249.60 212.75 250.60 212.50 251.62 212.25 C 252.65 212.00 252.71 215.67 252.75 211.38 C 252.79 207.08 252.52 195.00 251.88 186.50 C 251.23 178.00 249.69 168.35 248.88 160.38 C 248.06 152.40 247.29 144.42 247.00 138.62 C 246.71 132.83 247.23 128.04 247.12 125.62 C 247.02 123.21 246.44 124.44 246.38 124.12 C 246.31 123.81 247.00 125.71 246.75 123.75 C 246.50 121.79 245.40 119.40 244.88 112.38 C 244.35 105.35 244.12 87.23 243.62 81.62 C 243.12 76.02 242.69 79.71 241.88 78.75 C 241.06 77.79 240.79 77.17 238.75 75.88 C 236.71 74.58 231.71 71.98 229.62 71.00 C 227.54 70.02 227.92 70.33 226.25 70.00 C 224.58 69.67 222.25 69.17 219.62 69.00 C 217.00 68.83 212.27 68.88 210.50 69.00 Z" id="s-4-f-1"/>
<path d="M 210.50 69.00 C 208.65 69.19 209.02 69.69 208.50 70.12 C 207.98 70.56 207.65 71.08 207.38 71.62 C 207.10 72.17 206.94 72.71 206.88 73.38 C 206.81 74.04 206.52 74.56 207.00 75.62 C 207.48 76.69 208.62 77.75 209.75 79.75 C 210.88 81.75 212.56 85.02 213.75 87.62 C 214.94 90.23 215.88 92.54 216.88 95.38 C 217.88 98.21 218.79 100.67 219.75 104.62 C 220.71 108.58 222.15 115.42 222.62 119.12 C 223.10 122.83 222.50 125.35 222.62 126.88 C 222.75 128.40 223.02 126.21 223.38 128.25 C 223.73 130.29 224.33 136.90 224.75 139.12 C 225.17 141.35 225.35 137.42 225.88 141.62 C 226.40 145.83 226.46 160.48 227.88 164.38 C 229.29 168.27 230.85 164.92 234.38 165.00 C 237.90 165.08 246.48 165.10 249.00 164.88 C 251.52 164.65 249.83 168.00 249.50 163.62 C 249.17 159.25 247.40 144.96 247.00 138.62 C 246.60 132.29 247.23 128.04 247.12 125.62 C 247.02 123.21 246.44 124.44 246.38 124.12 C 246.31 123.81 247.00 125.77 246.75 123.75 C 246.50 121.73 245.40 119.02 244.88 112.00 C 244.35 104.98 244.12 87.17 243.62 81.62 C 243.12 76.08 242.69 79.71 241.88 78.75 C 241.06 77.79 240.79 77.17 238.75 75.88 C 236.71 74.58 232.81 72.15 229.62 71.00 C 226.44 69.85 222.81 69.33 219.62 69.00 C 216.44 68.67 212.35 68.81 210.50 69.00 Z" id="s-4-f-2"/>
<path d="M 208.50 70.12 C 207.83 70.75 207.23 71.75 207.00 72.75 C 206.77 73.75 206.52 74.69 207.12 76.12 C 207.73 77.56 209.00 78.17 210.62 81.38 C 212.25 84.58 215.35 91.50 216.88 95.38 C 218.40 99.25 218.90 101.12 219.75 104.62 C 220.60 108.12 221.29 114.31 222.00 116.38 C 222.71 118.44 220.12 116.94 224.00 117.00 C 227.88 117.06 241.65 116.98 245.25 116.75 C 248.85 116.52 245.67 116.12 245.62 115.62 C 245.58 115.12 245.21 115.81 245.00 113.75 C 244.79 111.69 244.60 108.60 244.38 103.25 C 244.15 97.90 244.04 85.71 243.62 81.62 C 243.21 77.54 243.12 80.00 241.88 78.75 C 240.62 77.50 238.17 75.42 236.12 74.12 C 234.08 72.83 231.19 71.67 229.62 71.00 C 228.06 70.33 228.88 70.48 226.75 70.12 C 224.62 69.77 219.50 69.06 216.88 68.88 C 214.25 68.69 212.40 68.79 211.00 69.00 C 209.60 69.21 209.17 69.50 208.50 70.12 Z" id="s-4-f-3"/>
</g>
<g id="s-5" clip-path="url(#c-s-5)">
<use href="#s-5-f-0"/>
<path d="M 317.38 35.88 C 315.62 36.02 313.73 36.46 312.38 37.00 C 311.02 37.54 310.00 38.48 309.25 39.12 C 308.50 39.77 308.08 40.35 307.88 40.88 C 307.67 41.40 307.23 40.81 308.00 42.25 C 308.77 43.69 311.38 47.19 312.50 49.50 C 313.62 51.81 314.19 54.19 314.75 56.12 C 315.31 58.06 315.69 52.40 315.88 61.12 C 316.06 69.85 316.06 99.58 315.88 108.50 C 315.69 117.42 314.98 112.75 314.75 114.62 C 314.52 116.50 314.50 115.27 314.50 119.75 C 314.50 124.23 314.88 133.33 314.75 141.50 C 314.62 149.67 313.92 161.96 313.75 168.75 C 313.58 175.54 313.88 179.71 313.75 182.25 C 313.62 184.79 313.50 176.46 313.00 184.00 C 312.50 191.54 310.83 220.17 310.75 227.50 C 310.67 234.83 308.98 227.92 312.50 228.00 C 316.02 228.08 328.31 228.12 331.88 228.00 C 335.44 227.88 333.40 228.02 333.88 227.25 C 334.35 226.48 333.79 231.31 334.75 223.38 C 335.71 215.44 338.10 195.94 339.62 179.62 C 341.15 163.31 342.98 135.62 343.88 125.50 C 344.77 115.38 344.81 122.75 345.00 118.88 C 345.19 115.00 344.83 106.90 345.00 102.25 C 345.17 97.60 345.33 96.04 346.00 91.00 C 346.67 85.96 348.21 75.98 349.00 72.00 C 349.79 68.02 350.15 69.38 350.75 67.12 C 351.35 64.88 352.27 60.69 352.62 58.50 C 352.98 56.31 352.90 55.02 352.88 54.00 C 352.85 52.98 353.08 53.33 352.50 52.38 C 351.92 51.42 350.75 49.65 349.38 48.25 C 348.00 46.85 345.92 45.21 344.25 44.00 C 342.58 42.79 342.17 42.17 339.38 41.00 C 336.58 39.83 330.25 37.81 327.50 37.00 C 324.75 36.19 324.56 36.31 322.88 36.12 C 321.19 35.94 319.12 35.73 317.38 35.88 Z" id="s-5-f-1"/>
<path d="M 316.12 36.00 C 314.38 36.15 313.52 36.48 312.38 37.00 C 311.23 37.52 310.00 38.48 309.25 39.12 C 308.50 39.77 308.08 40.35 307.88 40.88 C 307.67 41.40 307.23 40.81 308.00 42.25 C 308.77 43.69 311.38 47.19 312.50 49.50 C 313.62 51.81 314.19 54.19 314.75 56.12 C 315.31 58.06 315.69 52.40 315.88 61.12 C 316.06 69.85 316.06 99.58 315.88 108.50 C 315.69 117.42 314.98 112.75 314.75 114.62 C 314.52 116.50 314.50 115.27 314.50 119.75 C 314.50 124.23 314.88 131.65 314.75 141.50 C 314.62 151.35 313.85 172.48 313.75 178.88 C 313.65 185.27 313.81 179.69 314.12 179.88 C 314.44 180.06 311.48 180.00 315.62 180.00 C 319.77 180.00 335.00 180.00 339.00 179.88 C 343.00 179.75 338.81 188.35 339.62 179.25 C 340.44 170.15 342.98 135.31 343.88 125.25 C 344.77 115.19 344.81 122.71 345.00 118.88 C 345.19 115.04 344.83 106.90 345.00 102.25 C 345.17 97.60 345.33 96.04 346.00 91.00 C 346.67 85.96 348.21 75.98 349.00 72.00 C 349.79 68.02 350.15 69.38 350.75 67.12 C 351.35 64.88 352.29 60.83 352.62 58.50 C 352.96 56.17 353.00 54.50 352.75 53.12 C 352.50 51.75 351.81 51.17 351.12 50.25 C 350.44 49.33 349.77 48.67 348.62 47.62 C 347.48 46.58 345.83 45.12 344.25 44.00 C 342.67 42.88 341.92 42.04 339.12 40.88 C 336.33 39.71 330.21 37.79 327.50 37.00 C 324.79 36.21 324.77 36.29 322.88 36.12 C 320.98 35.96 317.88 35.85 316.12 36.00 Z" id="s-5-f-2"/>
<path d="M 312.62 36.88 C 311.29 37.42 310.00 38.56 309.25 39.12 C 308.50 39.69 308.35 39.85 308.12 40.25 C 307.90 40.65 307.75 40.90 307.88 41.50 C 308.00 42.10 308.23 42.83 308.88 43.88 C 309.52 44.92 310.77 45.71 311.75 47.75 C 312.73 49.79 314.06 53.90 314.75 56.12 C 315.44 58.35 315.69 52.40 315.88 61.12 C 316.06 69.85 316.06 99.58 315.88 108.50 C 315.69 117.42 314.98 111.48 314.75 114.62 C 314.52 117.77 314.42 124.52 314.50 127.38 C 314.58 130.23 310.50 131.00 315.25 131.75 C 320.00 132.50 338.27 131.94 343.00 131.88 C 347.73 131.81 343.48 132.48 343.62 131.38 C 343.77 130.27 343.65 127.33 343.88 125.25 C 344.10 123.17 344.81 122.71 345.00 118.88 C 345.19 115.04 344.83 106.90 345.00 102.25 C 345.17 97.60 345.33 96.04 346.00 91.00 C 346.67 85.96 348.21 75.98 349.00 72.00 C 349.79 68.02 350.15 69.38 350.75 67.12 C 351.35 64.88 352.29 60.83 352.62 58.50 C 352.96 56.17 353.06 54.58 352.75 53.12 C 352.44 51.67 352.17 51.27 350.75 49.75 C 349.33 48.23 346.52 45.62 344.25 44.00 C 341.98 42.38 339.92 41.17 337.12 40.00 C 334.33 38.83 329.88 37.65 327.50 37.00 C 325.12 36.35 324.58 36.31 322.88 36.12 C 321.17 35.94 318.96 35.75 317.25 35.88 C 315.54 36.00 313.96 36.33 312.62 36.88 Z" id="s-5-f-3"/>
<path d="M 309.25 39.12 C 308.50 39.69 308.33 39.73 308.12 40.25 C 307.92 40.77 307.40 41.00 308.00 42.25 C 308.60 43.50 310.79 45.98 311.75 47.75 C 312.71 49.52 313.08 50.79 313.75 52.88 C 314.42 54.96 315.35 55.08 315.75 60.25 C 316.15 65.42 311.00 79.92 316.12 83.88 C 321.25 87.83 341.35 84.06 346.50 84.00 C 351.65 83.94 346.58 85.50 347.00 83.50 C 347.42 81.50 348.38 74.73 349.00 72.00 C 349.62 69.27 350.12 69.52 350.75 67.12 C 351.38 64.73 352.42 59.96 352.75 57.62 C 353.08 55.29 353.08 54.44 352.75 53.12 C 352.42 51.81 351.98 51.12 350.75 49.75 C 349.52 48.38 347.27 46.33 345.38 44.88 C 343.48 43.42 342.35 42.31 339.38 41.00 C 336.40 39.69 330.25 37.81 327.50 37.00 C 324.75 36.19 324.58 36.31 322.88 36.12 C 321.17 35.94 318.96 35.75 317.25 35.88 C 315.54 36.00 313.96 36.33 312.62 36.88 C 311.29 37.42 310.00 38.56 309.25 39.12 Z" id="s-5-f-4"/>
</g>
<g id="s-6" clip-path="url(#c-s-6)">
<use href="#s-6-f-0"/>
<path d="M 298.62 167.25 C 298.44 164.98 298.12 166.33 297.75 166.12 C 297.38 165.92 297.52 165.85 296.38 166.00 C 295.23 166.15 294.15 166.04 290.88 167.00 C 287.60 167.96 283.44 169.77 276.75 171.75 C 270.06 173.73 255.10 176.69 250.75 178.88 C 246.40 181.06 250.48 182.79 250.62 184.88 C 250.77 186.96 251.21 190.21 251.62 191.38 C 252.04 192.54 252.27 191.79 253.12 191.88 C 253.98 191.96 254.10 192.06 256.75 191.88 C 259.40 191.69 262.06 191.75 269.00 190.75 C 275.94 189.75 293.40 187.71 298.38 185.88 C 303.35 184.04 298.83 182.85 298.88 179.75 C 298.92 176.65 298.81 169.52 298.62 167.25 Z" id="s-6-f-1"/>
</g>
<g id="s-7" clip-path="url(#c-s-7)">
<use href="#s-7-f-0"/>
<path d="M 299.62 221.12 C 298.77 217.90 299.19 220.21 294.88 221.12 C 290.56 222.04 280.60 225.17 273.75 226.62 C 266.90 228.08 257.27 228.69 253.75 229.88 C 250.23 231.06 252.85 232.27 252.62 233.75 C 252.40 235.23 252.54 237.42 252.38 238.75 C 252.21 240.08 251.75 240.58 251.62 241.75 C 251.50 242.92 251.10 244.92 251.62 245.75 C 252.15 246.58 252.98 246.58 254.75 246.75 C 256.52 246.92 257.48 247.23 262.25 246.75 C 267.02 246.27 277.15 244.85 283.38 243.88 C 289.60 242.90 296.85 241.44 299.62 240.88 C 302.40 240.31 300.00 243.79 300.00 240.50 C 300.00 237.21 300.48 224.35 299.62 221.12 Z" id="s-7-f-1"/>
</g>
<g id="s-8" clip-path="url(#c-s-8)">
<use href="#s-8-f-0"/>
<path d="M 397.88 272.38 C 397.79 267.96 398.27 271.94 397.50 271.88 C 396.73 271.81 396.58 271.52 393.25 272.00 C 389.92 272.48 392.88 272.62 377.50 274.75 C 362.12 276.88 314.54 283.06 301.00 284.75 C 287.46 286.44 311.58 283.21 296.25 284.88 C 280.92 286.54 231.06 292.40 209.00 294.75 C 186.94 297.10 171.98 298.12 163.88 299.00 C 155.77 299.88 161.19 299.69 160.38 300.00 C 159.56 300.31 159.42 300.48 159.00 300.88 C 158.58 301.27 158.06 301.94 157.88 302.38 C 157.69 302.81 157.60 302.85 157.88 303.50 C 158.15 304.15 158.71 305.33 159.50 306.25 C 160.29 307.17 160.48 307.60 162.62 309.00 C 164.77 310.40 169.15 313.02 172.38 314.62 C 175.60 316.23 179.33 317.94 182.00 318.62 C 184.67 319.31 184.19 319.35 188.38 318.75 C 192.56 318.15 199.31 316.29 207.12 315.00 C 214.94 313.71 215.31 313.17 235.25 311.00 C 255.19 308.83 306.62 303.83 326.75 302.00 C 346.88 300.17 344.27 300.52 356.00 300.00 C 367.73 299.48 390.12 299.15 397.12 298.88 C 404.12 298.60 397.88 302.79 398.00 298.38 C 398.12 293.96 397.96 276.79 397.88 272.38 Z" id="s-8-f-1"/>
<path d="M 350.00 280.25 C 349.98 276.75 350.00 279.29 349.75 279.00 C 349.50 278.71 356.62 277.54 348.50 278.50 C 340.38 279.46 309.71 283.69 301.00 284.75 C 292.29 285.81 311.58 283.21 296.25 284.88 C 280.92 286.54 231.02 292.40 209.00 294.75 C 186.98 297.10 172.23 298.12 164.12 299.00 C 156.02 299.88 161.40 299.50 160.38 300.00 C 159.35 300.50 158.42 301.42 158.00 302.00 C 157.58 302.58 157.62 302.79 157.88 303.50 C 158.12 304.21 158.71 305.33 159.50 306.25 C 160.29 307.17 160.48 307.60 162.62 309.00 C 164.77 310.40 169.15 313.02 172.38 314.62 C 175.60 316.23 179.35 317.94 182.00 318.62 C 184.65 319.31 184.06 319.35 188.25 318.75 C 192.44 318.15 199.29 316.29 207.12 315.00 C 214.96 313.71 215.31 313.17 235.25 311.00 C 255.19 308.83 307.77 303.73 326.75 302.00 C 345.73 300.27 345.27 300.96 349.12 300.62 C 352.98 300.29 349.73 303.40 349.88 300.00 C 350.02 296.60 350.02 283.75 350.00 280.25 Z" id="s-8-f-2"/>
<path d="M 302.00 286.25 C 301.96 283.27 301.92 285.38 301.75 285.12 C 301.58 284.88 301.92 284.79 301.00 284.75 C 300.08 284.71 310.00 283.38 296.25 284.88 C 282.50 286.38 240.52 291.40 218.50 293.75 C 196.48 296.10 173.81 297.96 164.12 299.00 C 154.44 300.04 161.38 299.54 160.38 300.00 C 159.38 300.46 158.54 301.17 158.12 301.75 C 157.71 302.33 157.65 302.75 157.88 303.50 C 158.10 304.25 158.71 305.33 159.50 306.25 C 160.29 307.17 160.15 307.44 162.62 309.00 C 165.10 310.56 171.15 314.02 174.38 315.62 C 177.60 317.23 179.48 318.12 182.00 318.62 C 184.52 319.12 185.31 319.23 189.50 318.62 C 193.69 318.02 199.50 316.27 207.12 315.00 C 214.75 313.73 219.54 312.71 235.25 311.00 C 250.96 309.29 290.25 306.08 301.38 304.75 C 312.50 303.42 301.90 306.08 302.00 303.00 C 302.10 299.92 302.04 289.23 302.00 286.25 Z" id="s-8-f-3"/>
<path d="M 253.75 291.12 C 253.69 288.19 253.96 290.19 253.38 290.00 C 252.79 289.81 257.65 289.21 250.25 290.00 C 242.85 290.79 223.35 293.25 209.00 294.75 C 194.65 296.25 172.23 298.12 164.12 299.00 C 156.02 299.88 161.23 299.69 160.38 300.00 C 159.52 300.31 159.42 300.48 159.00 300.88 C 158.58 301.27 158.06 301.94 157.88 302.38 C 157.69 302.81 157.60 302.85 157.88 303.50 C 158.15 304.15 158.71 305.33 159.50 306.25 C 160.29 307.17 160.15 307.44 162.62 309.00 C 165.10 310.56 171.15 314.02 174.38 315.62 C 177.60 317.23 179.48 318.12 182.00 318.62 C 184.52 319.12 185.31 319.23 189.50 318.62 C 193.69 318.02 202.08 315.94 207.12 315.00 C 212.17 314.06 212.06 313.98 219.75 313.00 C 227.44 312.02 247.58 310.02 253.25 309.12 C 258.92 308.23 253.67 310.62 253.75 307.62 C 253.83 304.62 253.81 294.06 253.75 291.12 Z" id="s-8-f-4"/>
<path d="M 205.88 314.88 C 205.96 311.46 212.71 297.77 205.75 295.12 C 198.79 292.48 171.73 298.17 164.12 299.00 C 156.52 299.83 161.17 299.56 160.12 300.12 C 159.08 300.69 158.23 301.69 157.88 302.38 C 157.52 303.06 157.85 303.75 158.00 304.25 C 158.15 304.75 157.81 304.46 158.75 305.38 C 159.69 306.29 160.69 307.88 163.62 309.75 C 166.56 311.62 173.31 315.15 176.38 316.62 C 179.44 318.10 179.65 318.31 182.00 318.62 C 184.35 318.94 186.62 319.00 190.50 318.50 C 194.38 318.00 202.69 316.23 205.25 315.62 C 207.81 315.02 205.79 318.29 205.88 314.88 Z" id="s-8-f-5"/>
</g>
<g id="s-9" clip-path="url(#c-s-9)">
<use href="#s-9-f-0"/>
<path d="M 288.50 242.62 C 287.65 242.46 285.40 242.50 284.38 242.62 C 283.35 242.75 284.71 243.02 282.38 243.38 C 280.04 243.73 272.79 244.40 270.38 244.75 C 267.96 245.10 268.46 244.92 267.88 245.50 C 267.29 246.08 267.00 247.23 266.88 248.25 C 266.75 249.27 266.50 249.10 267.12 251.62 C 267.75 254.15 269.69 257.75 270.62 263.38 C 271.56 269.00 272.40 263.40 272.75 285.38 C 273.10 307.35 272.92 373.52 272.75 395.25 C 272.58 416.98 272.10 411.06 271.75 415.75 C 271.40 420.44 271.10 421.04 270.62 423.38 C 270.15 425.71 269.15 428.06 268.88 429.75 C 268.60 431.44 268.88 432.65 269.00 433.50 C 269.12 434.35 265.90 434.62 269.62 434.88 C 273.35 435.12 286.21 435.04 291.38 435.00 C 296.54 434.96 299.04 434.77 300.62 434.62 C 302.21 434.48 300.85 435.92 300.88 434.12 C 300.90 432.33 300.90 426.54 300.75 423.88 C 300.60 421.21 300.27 422.65 300.00 418.12 C 299.73 413.60 299.31 414.44 299.12 396.75 C 298.94 379.06 298.85 327.25 298.88 312.00 C 298.90 296.75 299.06 306.71 299.25 305.25 C 299.44 303.79 299.85 304.04 300.00 303.25 C 300.15 302.46 300.12 303.77 300.12 300.50 C 300.12 297.23 299.69 289.04 300.00 283.62 C 300.31 278.21 301.40 271.83 302.00 268.00 C 302.60 264.17 303.31 262.79 303.62 260.62 C 303.94 258.46 304.02 256.48 303.88 255.00 C 303.73 253.52 303.25 252.65 302.75 251.75 C 302.25 250.85 302.12 250.56 300.88 249.62 C 299.62 248.69 297.15 247.12 295.25 246.12 C 293.35 245.12 290.62 244.21 289.50 243.62 C 288.38 243.04 289.35 242.79 288.50 242.62 Z" id="s-9-f-1"/>
<path d="M 288.50 242.62 C 287.60 242.44 285.40 242.50 284.38 242.62 C 283.35 242.75 284.71 243.02 282.38 243.38 C 280.04 243.73 272.79 244.40 270.38 244.75 C 267.96 245.10 268.46 244.92 267.88 245.50 C 267.29 246.08 267.00 247.23 266.88 248.25 C 266.75 249.27 266.50 249.10 267.12 251.62 C 267.75 254.15 269.69 257.75 270.62 263.38 C 271.56 269.00 272.44 278.17 272.75 285.38 C 273.06 292.58 272.44 289.71 272.50 306.62 C 272.56 323.54 270.04 373.48 273.12 386.88 C 276.21 400.27 286.69 387.06 291.00 387.00 C 295.31 386.94 297.69 399.00 299.00 386.50 C 300.31 374.00 298.83 325.54 298.88 312.00 C 298.92 298.46 299.06 306.71 299.25 305.25 C 299.44 303.79 299.85 304.04 300.00 303.25 C 300.15 302.46 300.12 303.77 300.12 300.50 C 300.12 297.23 299.69 289.04 300.00 283.62 C 300.31 278.21 301.40 271.83 302.00 268.00 C 302.60 264.17 303.31 262.79 303.62 260.62 C 303.94 258.46 304.02 256.48 303.88 255.00 C 303.73 253.52 303.25 252.65 302.75 251.75 C 302.25 250.85 302.12 250.56 300.88 249.62 C 299.62 248.69 297.10 247.10 295.25 246.12 C 293.40 245.15 290.88 244.33 289.75 243.75 C 288.62 243.17 289.40 242.81 288.50 242.62 Z" id="s-9-f-2"/>
<path d="M 268.25 245.38 C 266.46 245.96 267.21 246.23 267.00 247.12 C 266.79 248.02 266.40 248.04 267.00 250.75 C 267.60 253.46 269.65 257.44 270.62 263.38 C 271.60 269.31 272.56 282.21 272.88 286.38 C 273.19 290.54 272.48 279.67 272.50 288.38 C 272.52 297.08 272.88 330.19 273.00 338.62 C 273.12 347.06 269.02 338.94 273.25 339.00 C 277.48 339.06 294.10 339.31 298.38 339.00 C 302.65 338.69 298.79 341.62 298.88 337.12 C 298.96 332.62 298.81 317.31 298.88 312.00 C 298.94 306.69 299.06 306.71 299.25 305.25 C 299.44 303.79 299.85 304.04 300.00 303.25 C 300.15 302.46 300.12 303.77 300.12 300.50 C 300.12 297.23 299.69 289.00 300.00 283.62 C 300.31 278.25 301.40 272.08 302.00 268.25 C 302.60 264.42 303.33 263.00 303.62 260.62 C 303.92 258.25 303.90 255.48 303.75 254.00 C 303.60 252.52 303.23 252.48 302.75 251.75 C 302.27 251.02 302.12 250.56 300.88 249.62 C 299.62 248.69 297.10 247.10 295.25 246.12 C 293.40 245.15 290.88 244.33 289.75 243.75 C 288.62 243.17 289.40 242.81 288.50 242.62 C 287.60 242.44 285.40 242.50 284.38 242.62 C 283.35 242.75 283.48 243.21 282.38 243.38 C 281.27 243.54 280.10 243.29 277.75 243.62 C 275.40 243.96 270.04 244.79 268.25 245.38 Z" id="s-9-f-3"/>
<path d="M 267.88 245.50 C 267.19 245.92 267.15 246.25 267.00 247.12 C 266.85 248.00 266.40 248.04 267.00 250.75 C 267.60 253.46 269.65 257.44 270.62 263.38 C 271.60 269.31 272.54 281.79 272.88 286.38 C 273.21 290.96 272.56 290.06 272.62 290.88 C 272.69 291.69 268.71 291.21 273.25 291.25 C 277.79 291.29 295.40 292.58 299.88 291.12 C 304.35 289.67 299.77 286.31 300.12 282.50 C 300.48 278.69 301.40 272.08 302.00 268.25 C 302.60 264.42 303.46 261.88 303.75 259.50 C 304.04 257.12 303.94 255.35 303.75 254.00 C 303.56 252.65 303.54 252.40 302.62 251.38 C 301.71 250.35 300.40 249.15 298.25 247.88 C 296.10 246.60 291.38 244.62 289.75 243.75 C 288.12 242.88 289.40 242.81 288.50 242.62 C 287.60 242.44 285.40 242.50 284.38 242.62 C 283.35 242.75 283.62 243.19 282.38 243.38 C 281.12 243.56 278.04 243.58 276.88 243.75 C 275.71 243.92 276.33 244.23 275.38 244.38 C 274.42 244.52 272.38 244.44 271.12 244.62 C 269.88 244.81 268.56 245.08 267.88 245.50 Z" id="s-9-f-4"/>
</g>
<g id="s-10" clip-path="url(#c-s-10)">
<use href="#s-10-f-0"/>
<path d="M 273.00 288.25 C 272.79 282.42 272.42 288.02 272.00 288.25 C 271.58 288.48 270.92 289.10 270.50 289.62 C 270.08 290.15 272.10 288.33 269.50 291.38 C 266.90 294.42 257.35 304.73 254.88 307.88 C 252.40 311.02 256.08 307.75 254.62 310.25 C 253.17 312.75 248.98 319.02 246.12 322.88 C 243.27 326.73 242.08 328.23 237.50 333.38 C 232.92 338.52 224.50 347.67 218.62 353.75 C 212.75 359.83 209.00 363.75 202.25 369.88 C 195.50 376.00 182.21 386.73 178.12 390.50 C 174.04 394.27 177.81 389.50 177.75 392.50 C 177.69 395.50 177.67 405.58 177.75 408.50 C 177.83 411.42 176.77 410.46 178.25 410.00 C 179.73 409.54 183.25 407.65 186.62 405.75 C 190.00 403.85 194.81 401.00 198.50 398.62 C 202.19 396.25 204.79 394.50 208.75 391.50 C 212.71 388.50 216.44 385.83 222.25 380.62 C 228.06 375.42 237.54 366.44 243.62 360.25 C 249.71 354.06 254.40 348.50 258.75 343.50 C 263.10 338.50 267.54 333.12 269.75 330.25 C 271.96 327.38 271.46 327.06 272.00 326.25 C 272.54 325.44 272.79 325.88 273.00 325.38 C 273.21 324.88 273.25 329.44 273.25 323.25 C 273.25 317.06 273.21 294.08 273.00 288.25 Z" id="s-10-f-1"/>
<path d="M 273.00 288.25 C 272.79 282.42 272.42 288.02 272.00 288.25 C 271.58 288.48 270.92 289.10 270.50 289.62 C 270.08 290.15 272.10 288.33 269.50 291.38 C 266.90 294.42 257.35 304.73 254.88 307.88 C 252.40 311.02 256.12 307.69 254.62 310.25 C 253.12 312.81 248.73 319.40 245.88 323.25 C 243.02 327.10 240.83 329.58 237.50 333.38 C 234.17 337.17 227.79 338.77 225.88 346.00 C 223.96 353.23 225.90 371.60 226.00 376.75 C 226.10 381.90 223.54 379.65 226.50 376.88 C 229.46 374.10 238.38 365.69 243.75 360.12 C 249.12 354.56 254.42 348.48 258.75 343.50 C 263.08 338.52 267.54 333.12 269.75 330.25 C 271.96 327.38 271.48 327.02 272.00 326.25 C 272.52 325.48 272.67 326.12 272.88 325.62 C 273.08 325.12 273.23 329.48 273.25 323.25 C 273.27 317.02 273.21 294.08 273.00 288.25 Z" id="s-10-f-2"/>
</g>
<g id="s-11" clip-path="url(#c-s-11)">
<use href="#s-11-f-0"/>
<path d="M 298.62 296.00 C 298.44 298.60 298.54 308.67 298.75 311.38 C 298.96 314.08 295.65 306.40 299.88 312.25 C 304.10 318.10 316.65 336.21 324.12 346.50 C 331.60 356.79 338.38 365.81 344.75 374.00 C 351.12 382.19 356.83 389.29 362.38 395.62 C 367.92 401.96 375.00 408.98 378.00 412.00 C 381.00 415.02 379.21 413.12 380.38 413.75 C 381.54 414.38 382.48 415.08 385.00 415.75 C 387.52 416.42 390.71 417.42 395.50 417.75 C 400.29 418.08 408.75 417.92 413.75 417.75 C 418.75 417.58 421.25 417.27 425.50 416.75 C 429.75 416.23 436.35 415.17 439.25 414.62 C 442.15 414.08 442.25 416.21 442.88 413.50 C 443.50 410.79 443.10 401.19 443.00 398.38 C 442.90 395.56 445.10 398.06 442.25 396.62 C 439.40 395.19 432.52 392.75 425.88 389.75 C 419.23 386.75 409.46 382.17 402.38 378.62 C 395.29 375.08 389.35 371.96 383.38 368.50 C 377.40 365.04 371.35 361.19 366.50 357.88 C 361.65 354.56 358.54 352.08 354.25 348.62 C 349.96 345.17 346.56 342.46 340.75 337.12 C 334.94 331.79 324.79 321.94 319.38 316.62 C 313.96 311.31 310.29 307.46 308.25 305.25 C 306.21 303.04 308.52 304.96 307.12 303.38 C 305.73 301.79 301.29 296.98 299.88 295.75 C 298.46 294.52 298.81 293.40 298.62 296.00 Z" id="s-11-f-1"/>
<path d="M 299.00 295.62 C 298.75 295.77 298.54 294.12 298.50 296.75 C 298.46 299.38 298.52 308.79 298.75 311.38 C 298.98 313.96 295.65 306.40 299.88 312.25 C 304.10 318.10 316.65 336.21 324.12 346.50 C 331.60 356.79 338.38 365.81 344.75 374.00 C 351.12 382.19 356.83 389.29 362.38 395.62 C 367.92 401.96 375.00 408.98 378.00 412.00 C 381.00 415.02 379.21 413.12 380.38 413.75 C 381.54 414.38 383.62 415.25 385.00 415.75 C 386.38 416.25 387.02 416.46 388.62 416.75 C 390.23 417.04 393.56 417.88 394.62 417.50 C 395.69 417.12 394.98 421.62 395.00 414.50 C 395.02 407.38 397.83 383.08 394.75 374.75 C 391.67 366.42 382.23 368.04 376.50 364.50 C 370.77 360.96 364.75 356.69 360.38 353.50 C 356.00 350.31 355.46 349.92 350.25 345.38 C 345.04 340.83 336.12 332.94 329.12 326.25 C 322.12 319.56 311.92 309.06 308.25 305.25 C 304.58 301.44 308.50 304.94 307.12 303.38 C 305.75 301.81 301.35 297.17 300.00 295.88 C 298.65 294.58 299.25 295.48 299.00 295.62 Z" id="s-11-f-2"/>
<path d="M 299.00 295.62 C 298.75 295.77 298.54 294.12 298.50 296.75 C 298.46 299.38 298.52 308.79 298.75 311.38 C 298.98 313.96 295.65 306.40 299.88 312.25 C 304.10 318.10 316.65 336.21 324.12 346.50 C 331.60 356.79 341.00 369.10 344.75 374.00 C 348.50 378.90 346.25 375.94 346.62 375.88 C 347.00 375.81 346.96 379.21 347.00 373.62 C 347.04 368.04 349.85 350.27 346.88 342.38 C 343.90 334.48 335.56 332.44 329.12 326.25 C 322.69 320.06 311.92 309.06 308.25 305.25 C 304.58 301.44 308.50 304.94 307.12 303.38 C 305.75 301.81 301.35 297.17 300.00 295.88 C 298.65 294.58 299.25 295.48 299.00 295.62 Z" id="s-11-f-3"/>
</g>
</svg>