<?xml version="1.0" encoding="UTF-8"?>
<svg xmlns="http://www.w3.org/2000/svg" viewBox="0 0 500 500">
<defs>
<path d="M 152.25 74.75 C 150.77 74.77 149.46 74.92 148.50 75.12 C 147.54 75.33 149.71 73.88 146.50 76.00 C 143.29 78.12 134.21 84.75 129.25 87.88 C 124.29 91.00 120.90 92.77 116.75 94.75 C 112.60 96.73 109.56 98.06 104.38 99.75 C 99.19 101.44 89.21 103.67 85.62 104.88 C 82.04 106.08 83.50 106.40 82.88 107.00 C 82.25 107.60 82.06 107.73 81.88 108.50 C 81.69 109.27 81.44 110.58 81.75 111.62 C 82.06 112.67 82.92 113.88 83.75 114.75 C 84.58 115.62 85.77 116.35 86.75 116.88 C 87.73 117.40 88.35 117.69 89.62 117.88 C 90.90 118.06 90.12 119.02 94.38 118.00 C 98.62 116.98 109.21 113.79 115.12 111.75 C 121.04 109.71 126.58 107.17 129.88 105.75 C 133.17 104.33 133.46 103.71 134.88 103.25 C 136.29 102.79 137.48 102.98 138.38 103.00 C 139.27 103.02 139.54 103.06 140.25 103.38 C 140.96 103.69 142.00 104.35 142.62 104.88 C 143.25 105.40 143.69 105.81 144.00 106.50 C 144.31 107.19 144.54 108.00 144.50 109.00 C 144.46 110.00 147.00 104.50 143.75 112.50 C 140.50 120.50 128.29 148.38 125.00 157.00 C 121.71 165.62 124.00 162.33 124.00 164.25 C 124.00 166.17 124.65 167.40 125.00 168.50 C 125.35 169.60 124.00 167.40 126.12 170.88 C 128.25 174.35 134.31 183.38 137.75 189.38 C 141.19 195.38 144.75 202.56 146.75 206.88 C 148.75 211.19 149.10 213.12 149.75 215.25 C 150.40 217.38 150.44 218.27 150.62 219.62 C 150.81 220.98 150.92 222.31 150.88 223.38 C 150.83 224.44 150.62 225.21 150.38 226.00 C 150.12 226.79 149.90 227.44 149.38 228.12 C 148.85 228.81 148.56 229.50 147.25 230.12 C 145.94 230.75 143.00 231.58 141.50 231.88 C 140.00 232.17 140.44 232.17 138.25 231.88 C 136.06 231.58 132.10 230.60 128.38 230.12 C 124.65 229.65 119.71 229.19 115.88 229.00 C 112.04 228.81 107.31 228.88 105.38 229.00 C 103.44 229.12 104.46 229.48 104.25 229.75 C 104.04 230.02 103.58 229.96 104.12 230.62 C 104.67 231.29 103.31 231.33 107.50 233.75 C 111.69 236.17 121.96 240.90 129.25 245.12 C 136.54 249.35 146.08 255.69 151.25 259.12 C 156.42 262.56 158.21 264.48 160.25 265.75 C 162.29 267.02 162.54 266.58 163.50 266.75 C 164.46 266.92 164.90 267.08 166.00 266.75 C 167.10 266.42 168.69 265.79 170.12 264.75 C 171.56 263.71 173.40 261.98 174.62 260.50 C 175.85 259.02 176.67 257.42 177.50 255.88 C 178.33 254.33 178.98 253.06 179.62 251.25 C 180.27 249.44 181.00 246.81 181.38 245.00 C 181.75 243.19 181.81 242.54 181.88 240.38 C 181.94 238.21 181.94 234.29 181.75 232.00 C 181.56 229.71 181.58 229.46 180.75 226.62 C 179.92 223.79 178.25 218.58 176.75 215.00 C 175.25 211.42 174.10 209.06 171.75 205.12 C 169.40 201.19 166.12 196.04 162.62 191.38 C 159.12 186.71 153.38 180.46 150.75 177.12 C 148.12 173.79 148.00 173.54 146.88 171.38 C 145.75 169.21 144.60 166.23 144.00 164.12 C 143.40 162.02 143.35 160.19 143.25 158.75 C 143.15 157.31 143.25 156.65 143.38 155.50 C 143.50 154.35 143.56 153.25 144.00 151.88 C 144.44 150.50 144.67 149.62 146.00 147.25 C 147.33 144.88 149.71 141.08 152.00 137.62 C 154.29 134.17 156.92 130.25 159.75 126.50 C 162.58 122.75 166.71 117.77 169.00 115.12 C 171.29 112.48 171.44 112.35 173.50 110.62 C 175.56 108.90 179.65 106.15 181.38 104.75 C 183.10 103.35 183.17 103.19 183.88 102.25 C 184.58 101.31 185.31 99.92 185.62 99.12 C 185.94 98.33 185.90 98.27 185.75 97.50 C 185.60 96.73 185.35 95.50 184.75 94.50 C 184.15 93.50 183.50 92.90 182.12 91.50 C 180.75 90.10 178.17 87.56 176.50 86.12 C 174.83 84.69 174.79 84.54 172.12 82.88 C 169.46 81.21 162.96 77.44 160.50 76.12 C 158.04 74.81 158.75 75.23 157.38 75.00 C 156.00 74.77 153.73 74.73 152.25 74.75 Z" id="s-0-f-0"/>
<clipPath id="c-s-0"><use href="#s-0-f-0"/></clipPath>
<path d="M 63.12 91.75 C 62.17 91.79 61.46 91.83 60.75 92.12 C 60.04 92.42 59.46 92.98 58.88 93.50 C 58.29 94.02 57.58 94.50 57.25 95.25 C 56.92 96.00 56.90 97.29 56.88 98.00 C 56.85 98.71 56.67 98.52 57.12 99.50 C 57.58 100.48 58.19 100.23 59.62 103.88 C 61.06 107.52 64.06 115.81 65.75 121.38 C 67.44 126.94 68.65 131.73 69.75 137.25 C 70.85 142.77 71.73 148.69 72.38 154.50 C 73.02 160.31 73.27 164.71 73.62 172.12 C 73.98 179.54 74.35 186.08 74.50 199.00 C 74.65 211.92 74.83 234.17 74.50 249.62 C 74.17 265.08 73.46 278.94 72.50 291.75 C 71.54 304.56 70.19 316.06 68.75 326.50 C 67.31 336.94 65.21 347.56 63.88 354.38 C 62.54 361.19 61.85 363.35 60.75 367.38 C 59.65 371.40 58.19 374.98 57.25 378.50 C 56.31 382.02 55.52 385.12 55.12 388.50 C 54.73 391.88 54.88 396.44 54.88 398.75 C 54.88 401.06 54.77 400.69 55.12 402.38 C 55.48 404.06 56.17 406.46 57.00 408.88 C 57.83 411.29 59.12 414.58 60.12 416.88 C 61.12 419.17 61.73 420.62 63.00 422.62 C 64.27 424.62 66.50 427.52 67.75 428.88 C 69.00 430.23 69.73 430.42 70.50 430.75 C 71.27 431.08 71.62 431.08 72.38 430.88 C 73.12 430.67 73.94 430.48 75.00 429.50 C 76.06 428.52 77.81 426.33 78.75 425.00 C 79.69 423.67 79.79 423.48 80.62 421.50 C 81.46 419.52 82.56 417.67 83.75 413.12 C 84.94 408.58 86.60 401.48 87.75 394.25 C 88.90 387.02 89.79 380.27 90.62 369.75 C 91.46 359.23 91.98 359.58 92.75 331.12 C 93.52 302.67 94.58 228.73 95.25 199.00 C 95.92 169.27 96.40 166.23 96.75 152.75 C 97.10 139.27 97.15 124.58 97.38 118.12 C 97.60 111.67 98.17 115.21 98.12 114.00 C 98.08 112.79 97.48 111.46 97.12 110.88 C 96.77 110.29 96.17 110.67 96.00 110.50 C 95.83 110.33 95.94 110.02 96.12 109.88 C 96.31 109.73 97.29 110.02 97.12 109.62 C 96.96 109.23 97.77 109.44 95.12 107.50 C 92.48 105.56 84.85 100.23 81.25 98.00 C 77.65 95.77 75.96 95.15 73.50 94.12 C 71.04 93.10 68.23 92.27 66.50 91.88 C 64.77 91.48 64.08 91.71 63.12 91.75 Z" id="s-1-f-0"/>
<clipPath id="c-s-1"><use href="#s-1-f-0"/></clipPath>
<path d="M 369.62 71.75 C 369.42 70.62 369.08 70.17 368.38 69.25 C 367.67 68.33 367.06 67.46 365.38 66.25 C 363.69 65.04 361.48 63.71 358.25 62.00 C 355.02 60.29 349.38 57.48 346.00 56.00 C 342.62 54.52 340.79 53.96 338.00 53.12 C 335.21 52.29 331.96 51.40 329.25 51.00 C 326.54 50.60 323.71 50.73 321.75 50.75 C 319.79 50.77 318.62 50.60 317.50 51.12 C 316.38 51.65 315.62 52.06 315.00 53.88 C 314.38 55.69 314.46 59.67 313.75 62.00 C 313.04 64.33 311.96 65.98 310.75 67.88 C 309.54 69.77 309.23 70.54 306.50 73.38 C 303.77 76.21 299.44 80.65 294.38 84.88 C 289.31 89.10 282.94 93.92 276.12 98.75 C 269.31 103.58 261.10 109.02 253.50 113.88 C 245.90 118.73 238.52 123.19 230.50 127.88 C 222.48 132.56 209.77 139.23 205.38 142.00 C 200.98 144.77 204.27 143.62 204.12 144.50 C 203.98 145.38 204.23 146.65 204.50 147.25 C 204.77 147.85 204.73 148.04 205.75 148.12 C 206.77 148.21 208.15 148.35 210.62 147.75 C 213.10 147.15 216.54 146.00 220.62 144.50 C 224.71 143.00 228.02 141.83 235.12 138.75 C 242.23 135.67 255.04 129.48 263.25 126.00 C 271.46 122.52 278.33 120.56 284.38 117.88 C 290.42 115.19 293.90 113.02 299.50 109.88 C 305.10 106.73 312.21 102.17 318.00 99.00 C 323.79 95.83 329.33 93.19 334.25 90.88 C 339.17 88.56 342.17 87.06 347.50 85.12 C 352.83 83.19 362.73 80.52 366.25 79.25 C 369.77 77.98 368.06 78.04 368.62 77.50 C 369.19 76.96 369.46 76.96 369.62 76.00 C 369.79 75.04 369.83 72.88 369.62 71.75 Z" id="s-2-f-0"/>
<clipPath id="c-s-2"><use href="#s-2-f-0"/></clipPath>
<path d="M 455.75 206.50 C 455.48 205.23 455.06 204.06 454.00 202.62 C 452.94 201.19 452.21 199.81 449.38 197.88 C 446.54 195.94 440.23 192.62 437.00 191.00 C 433.77 189.38 432.52 188.96 430.00 188.12 C 427.48 187.29 424.73 186.52 421.88 186.00 C 419.02 185.48 415.02 185.15 412.88 185.00 C 410.73 184.85 410.92 184.94 409.00 185.12 C 407.08 185.31 403.65 185.67 401.38 186.12 C 399.10 186.58 403.56 186.06 395.38 187.88 C 387.19 189.69 364.96 194.19 352.25 197.00 C 339.54 199.81 327.00 203.10 319.12 204.75 C 311.25 206.40 309.77 206.02 305.00 206.88 C 300.23 207.73 295.44 209.00 290.50 209.88 C 285.56 210.75 281.21 211.12 275.38 212.12 C 269.54 213.12 259.31 215.23 255.50 215.88 C 251.69 216.52 262.42 214.29 252.50 216.00 C 242.58 217.71 206.56 224.12 196.00 226.12 C 185.44 228.12 190.58 227.35 189.12 228.00 C 187.67 228.65 187.58 229.46 187.25 230.00 C 186.92 230.54 187.00 230.67 187.12 231.25 C 187.25 231.83 187.35 232.56 188.00 233.50 C 188.65 234.44 189.62 235.69 191.00 236.88 C 192.38 238.06 195.12 239.94 196.25 240.62 C 197.38 241.31 197.02 240.65 197.75 241.00 C 198.48 241.35 198.96 242.12 200.62 242.75 C 202.29 243.38 203.83 244.42 207.75 244.75 C 211.67 245.08 220.40 244.94 224.12 244.75 C 227.85 244.56 227.35 244.42 230.12 243.62 C 232.90 242.83 234.04 241.79 240.75 240.00 C 247.46 238.21 256.46 235.54 270.38 232.88 C 284.29 230.21 309.79 226.10 324.25 224.00 C 338.71 221.90 346.25 221.27 357.12 220.25 C 368.00 219.23 377.02 218.62 389.50 217.88 C 401.98 217.12 423.02 216.29 432.00 215.75 C 440.98 215.21 439.69 215.27 443.38 214.62 C 447.06 213.98 452.08 212.60 454.12 211.88 C 456.17 211.15 455.35 211.15 455.62 210.25 C 455.90 209.35 456.02 207.77 455.75 206.50 Z" id="s-3-f-0"/>
<clipPath id="c-s-3"><use href="#s-3-f-0"/></clipPath>
<path d="M 286.00 105.50 C 284.88 105.69 283.52 106.19 282.62 106.62 C 281.73 107.06 280.98 107.67 280.62 108.12 C 280.27 108.58 280.65 109.06 280.50 109.38 C 280.35 109.69 279.92 109.08 279.75 110.00 C 279.58 110.92 279.52 113.73 279.50 114.88 C 279.48 116.02 279.27 115.98 279.62 116.88 C 279.98 117.77 280.77 118.42 281.62 120.25 C 282.48 122.08 283.54 124.33 284.75 127.88 C 285.96 131.42 287.75 136.83 288.88 141.50 C 290.00 146.17 290.83 151.25 291.50 155.88 C 292.17 160.50 292.60 160.35 292.88 169.25 C 293.15 178.15 293.19 202.33 293.12 209.25 C 293.06 216.17 292.60 207.83 292.50 210.75 C 292.40 213.67 292.42 223.60 292.50 226.75 C 292.58 229.90 293.08 215.96 293.00 229.62 C 292.92 243.29 292.19 281.33 292.00 308.75 C 291.81 336.17 291.88 376.25 291.88 394.12 C 291.88 412.00 291.81 408.56 292.00 416.00 C 292.19 423.44 292.50 433.56 293.00 438.75 C 293.50 443.94 294.17 444.42 295.00 447.12 C 295.83 449.83 297.23 453.29 298.00 455.00 C 298.77 456.71 298.92 456.60 299.62 457.38 C 300.33 458.15 301.25 459.19 302.25 459.62 C 303.25 460.06 304.88 460.04 305.62 460.00 C 306.38 459.96 306.08 460.04 306.75 459.38 C 307.42 458.71 308.85 457.19 309.62 456.00 C 310.40 454.81 310.69 454.21 311.38 452.25 C 312.06 450.29 312.92 448.48 313.75 444.25 C 314.58 440.02 315.54 434.67 316.38 426.88 C 317.21 419.08 318.19 408.71 318.75 397.50 C 319.31 386.29 319.83 375.42 319.75 359.62 C 319.67 343.83 318.52 321.71 318.25 302.75 C 317.98 283.79 318.08 258.77 318.12 245.88 C 318.17 232.98 318.35 228.96 318.50 225.38 C 318.65 221.79 318.90 227.56 319.00 224.38 C 319.10 221.19 319.29 209.44 319.12 206.25 C 318.96 203.06 318.00 205.42 318.00 205.25 C 318.00 205.08 318.96 207.67 319.12 205.25 C 319.29 202.83 318.83 196.60 319.00 190.75 C 319.17 184.90 319.62 176.88 320.12 170.12 C 320.62 163.38 321.23 156.65 322.00 150.25 C 322.77 143.85 324.27 135.65 324.75 131.75 C 325.23 127.85 325.04 128.35 324.88 126.88 C 324.71 125.40 324.31 123.98 323.75 122.88 C 323.19 121.77 323.71 121.90 321.50 120.25 C 319.29 118.60 313.38 114.71 310.50 113.00 C 307.62 111.29 305.62 110.58 304.25 110.00 C 302.88 109.42 302.98 109.85 302.25 109.50 C 301.52 109.15 300.77 108.35 299.88 107.88 C 298.98 107.40 297.79 106.85 296.88 106.62 C 295.96 106.40 294.96 106.67 294.38 106.50 C 293.79 106.33 293.96 105.77 293.38 105.62 C 292.79 105.48 291.38 105.44 290.88 105.62 C 290.38 105.81 290.62 106.77 290.38 106.75 C 290.12 106.73 290.10 105.71 289.38 105.50 C 288.65 105.29 287.12 105.31 286.00 105.50 Z" id="s-4-f-0"/>
<clipPath id="c-s-4"><use href="#s-4-f-0"/></clipPath>
</defs>
<g id="s-0" clip-path="url(#c-s-0)">
<use href="#s-0-f-0"/>
<path d="M 152.25 74.75 C 150.77 74.77 149.46 74.92 148.50 75.12 C 147.54 75.33 149.71 73.88 146.50 76.00 C 143.29 78.12 134.21 84.75 129.25 87.88 C 124.29 91.00 120.90 92.77 116.75 94.75 C 112.60 96.73 109.56 98.06 104.38 99.75 C 99.19 101.44 89.21 103.67 85.62 104.88 C 82.04 106.08 83.50 106.40 82.88 107.00 C 82.25 107.60 82.06 107.73 81.88 108.50 C 81.69 109.27 81.44 110.58 81.75 111.62 C 82.06 112.67 82.92 113.88 83.75 114.75 C 84.58 115.62 85.77 116.35 86.75 116.88 C 87.73 117.40 88.35 117.69 89.62 117.88 C 90.90 118.06 90.12 119.02 94.38 118.00 C 98.62 116.98 109.21 113.79 115.12 111.75 C 121.04 109.71 126.58 107.17 129.88 105.75 C 133.17 104.33 133.46 103.71 134.88 103.25 C 136.29 102.79 137.48 102.98 138.38 103.00 C 139.27 103.02 139.54 103.06 140.25 103.38 C 140.96 103.69 142.00 104.35 142.62 104.88 C 143.25 105.40 143.69 105.81 144.00 106.50 C 144.31 107.19 144.54 108.00 144.50 109.00 C 144.46 110.00 147.00 104.50 143.75 112.50 C 140.50 120.50 128.29 148.38 125.00 157.00 C 121.71 165.62 124.00 162.33 124.00 164.25 C 124.00 166.17 124.65 167.40 125.00 168.50 C 125.35 169.60 124.00 167.40 126.12 170.88 C 128.25 174.35 134.31 183.38 137.75 189.38 C 141.19 195.38 144.75 202.56 146.75 206.88 C 148.75 211.19 149.06 212.50 149.75 215.25 C 150.44 218.00 150.77 221.58 150.88 223.38 C 150.98 225.17 150.62 225.21 150.38 226.00 C 150.12 226.79 149.90 227.44 149.38 228.12 C 148.85 228.81 148.25 229.54 147.25 230.12 C 146.25 230.71 144.88 231.33 143.38 231.62 C 141.88 231.92 140.75 232.12 138.25 231.88 C 135.75 231.62 130.40 230.35 128.38 230.12 C 126.35 229.90 126.71 229.83 126.12 230.50 C 125.54 231.17 125.25 232.25 124.88 234.12 C 124.50 236.00 123.98 240.33 123.88 241.75 C 123.77 243.17 123.35 242.06 124.25 242.62 C 125.15 243.19 125.77 243.06 129.25 245.12 C 132.73 247.19 139.96 251.56 145.12 255.00 C 150.29 258.44 157.19 263.79 160.25 265.75 C 163.31 267.71 162.54 266.58 163.50 266.75 C 164.46 266.92 164.90 267.08 166.00 266.75 C 167.10 266.42 168.69 265.79 170.12 264.75 C 171.56 263.71 173.40 261.98 174.62 260.50 C 175.85 259.02 176.67 257.42 177.50 255.88 C 178.33 254.33 178.98 253.06 179.62 251.25 C 180.27 249.44 181.00 246.81 181.38 245.00 C 181.75 243.19 181.81 242.54 181.88 240.38 C 181.94 238.21 181.94 234.29 181.75 232.00 C 181.56 229.71 181.58 229.46 180.75 226.62 C 179.92 223.79 178.25 218.58 176.75 215.00 C 175.25 211.42 174.10 209.06 171.75 205.12 C 169.40 201.19 166.12 196.04 162.62 191.38 C 159.12 186.71 153.38 180.46 150.75 177.12 C 148.12 173.79 148.00 173.54 146.88 171.38 C 145.75 169.21 144.60 166.23 144.00 164.12 C 143.40 162.02 143.35 160.19 143.25 158.75 C 143.15 157.31 143.25 156.65 143.38 155.50 C 143.50 154.35 143.56 153.25 144.00 151.88 C 144.44 150.50 144.67 149.62 146.00 147.25 C 147.33 144.88 149.71 141.08 152.00 137.62 C 154.29 134.17 156.92 130.25 159.75 126.50 C 162.58 122.75 166.71 117.77 169.00 115.12 C 171.29 112.48 171.44 112.35 173.50 110.62 C 175.56 108.90 179.65 106.15 181.38 104.75 C 183.10 103.35 183.17 103.19 183.88 102.25 C 184.58 101.31 185.31 99.92 185.62 99.12 C 185.94 98.33 185.90 98.27 185.75 97.50 C 185.60 96.73 185.35 95.50 184.75 94.50 C 184.15 93.50 183.50 92.90 182.12 91.50 C 180.75 90.10 178.17 87.56 176.50 86.12 C 174.83 84.69 174.79 84.54 172.12 82.88 C 169.46 81.21 162.96 77.44 160.50 76.12 C 158.04 74.81 158.75 75.23 157.38 75.00 C 156.00 74.77 153.73 74.73 152.25 74.75 Z" id="s-0-f-1"/>
<path d="M 152.25 74.75 C 150.77 74.77 149.46 74.92 148.50 75.12 C 147.54 75.33 149.71 73.88 146.50 76.00 C 143.29 78.12 134.21 84.75 129.25 87.88 C 124.29 91.00 120.90 92.77 116.75 94.75 C 112.60 96.73 109.56 98.06 104.38 99.75 C 99.19 101.44 89.21 103.67 85.62 104.88 C 82.04 106.08 83.50 106.40 82.88 107.00 C 82.25 107.60 82.06 107.73 81.88 108.50 C 81.69 109.27 81.44 110.58 81.75 111.62 C 82.06 112.67 82.92 113.88 83.75 114.75 C 84.58 115.62 85.77 116.35 86.75 116.88 C 87.73 117.40 88.35 117.69 89.62 117.88 C 90.90 118.06 90.12 119.02 94.38 118.00 C 98.62 116.98 109.21 113.79 115.12 111.75 C 121.04 109.71 126.58 107.17 129.88 105.75 C 133.17 104.33 133.46 103.71 134.88 103.25 C 136.29 102.79 137.48 102.98 138.38 103.00 C 139.27 103.02 139.54 103.06 140.25 103.38 C 140.96 103.69 142.00 104.35 142.62 104.88 C 143.25 105.40 143.69 105.81 144.00 106.50 C 144.31 107.19 144.54 108.00 144.50 109.00 C 144.46 110.00 147.00 104.50 143.75 112.50 C 140.50 120.50 128.29 148.38 125.00 157.00 C 121.71 165.62 124.00 162.33 124.00 164.25 C 124.00 166.17 124.65 167.40 125.00 168.50 C 125.35 169.60 124.00 167.40 126.12 170.88 C 128.25 174.35 134.31 183.38 137.75 189.38 C 141.19 195.38 144.75 202.56 146.75 206.88 C 148.75 211.19 149.06 212.50 149.75 215.25 C 150.44 218.00 150.77 221.58 150.88 223.38 C 150.98 225.17 150.62 225.21 150.38 226.00 C 150.12 226.79 150.08 227.33 149.38 228.12 C 148.67 228.92 147.44 230.12 146.12 230.75 C 144.81 231.38 142.81 231.69 141.50 231.88 C 140.19 232.06 140.02 232.06 138.25 231.88 C 136.48 231.69 132.17 230.79 130.88 230.75 C 129.58 230.71 129.69 230.58 130.50 231.62 C 131.31 232.67 133.98 235.46 135.75 237.00 C 137.52 238.54 139.62 239.92 141.12 240.88 C 142.62 241.83 142.60 241.94 144.75 242.75 C 146.90 243.56 151.00 245.23 154.00 245.75 C 157.00 246.27 160.21 246.02 162.75 245.88 C 165.29 245.73 167.29 245.38 169.25 244.88 C 171.21 244.38 172.44 243.92 174.50 242.88 C 176.56 241.83 180.42 240.44 181.62 238.62 C 182.83 236.81 181.90 234.00 181.75 232.00 C 181.60 230.00 181.58 229.46 180.75 226.62 C 179.92 223.79 178.25 218.58 176.75 215.00 C 175.25 211.42 174.10 209.06 171.75 205.12 C 169.40 201.19 166.12 196.04 162.62 191.38 C 159.12 186.71 153.38 180.46 150.75 177.12 C 148.12 173.79 148.00 173.54 146.88 171.38 C 145.75 169.21 144.60 166.23 144.00 164.12 C 143.40 162.02 143.35 160.19 143.25 158.75 C 143.15 157.31 143.25 156.65 143.38 155.50 C 143.50 154.35 143.56 153.25 144.00 151.88 C 144.44 150.50 144.67 149.62 146.00 147.25 C 147.33 144.88 149.71 141.08 152.00 137.62 C 154.29 134.17 156.92 130.25 159.75 126.50 C 162.58 122.75 166.71 117.77 169.00 115.12 C 171.29 112.48 171.44 112.35 173.50 110.62 C 175.56 108.90 179.65 106.15 181.38 104.75 C 183.10 103.35 183.17 103.19 183.88 102.25 C 184.58 101.31 185.31 99.92 185.62 99.12 C 185.94 98.33 185.90 98.27 185.75 97.50 C 185.60 96.73 185.35 95.50 184.75 94.50 C 184.15 93.50 183.50 92.90 182.12 91.50 C 180.75 90.10 178.17 87.56 176.50 86.12 C 174.83 84.69 174.79 84.54 172.12 82.88 C 169.46 81.21 162.96 77.44 160.50 76.12 C 158.04 74.81 158.75 75.23 157.38 75.00 C 156.00 74.77 153.73 74.73 152.25 74.75 Z" id="s-0-f-2"/>
<path d="M 154.62 74.75 C 153.27 74.75 150.60 74.79 149.25 75.00 C 147.90 75.21 149.83 73.85 146.50 76.00 C 143.17 78.15 134.21 84.75 129.25 87.88 C 124.29 91.00 120.90 92.77 116.75 94.75 C 112.60 96.73 109.31 98.17 104.38 99.75 C 99.44 101.33 90.71 103.04 87.12 104.25 C 83.54 105.46 83.77 106.19 82.88 107.00 C 81.98 107.81 81.92 108.25 81.75 109.12 C 81.58 110.00 81.29 111.10 81.88 112.25 C 82.46 113.40 83.96 115.06 85.25 116.00 C 86.54 116.94 88.10 117.54 89.62 117.88 C 91.15 118.21 90.12 119.02 94.38 118.00 C 98.62 116.98 109.21 113.79 115.12 111.75 C 121.04 109.71 126.58 107.17 129.88 105.75 C 133.17 104.33 133.21 103.67 134.88 103.25 C 136.54 102.83 138.44 102.83 139.88 103.25 C 141.31 103.67 142.73 104.94 143.50 105.75 C 144.27 106.56 144.46 107.00 144.50 108.12 C 144.54 109.25 147.00 104.35 143.75 112.50 C 140.50 120.65 128.29 148.38 125.00 157.00 C 121.71 165.62 124.00 162.33 124.00 164.25 C 124.00 166.17 124.65 167.40 125.00 168.50 C 125.35 169.60 124.00 167.40 126.12 170.88 C 128.25 174.35 134.40 183.48 137.75 189.38 C 141.10 195.27 144.58 203.21 146.25 206.25 C 147.92 209.29 146.42 207.85 147.75 207.62 C 149.08 207.40 152.19 205.98 154.25 204.88 C 156.31 203.77 158.35 202.44 160.12 201.00 C 161.90 199.56 164.06 197.27 164.88 196.25 C 165.69 195.23 166.10 196.62 165.00 194.88 C 163.90 193.12 160.62 188.71 158.25 185.75 C 155.88 182.79 152.65 179.52 150.75 177.12 C 148.85 174.73 148.02 173.65 146.88 171.38 C 145.73 169.10 144.48 165.92 143.88 163.50 C 143.27 161.08 143.23 158.81 143.25 156.88 C 143.27 154.94 143.54 153.48 144.00 151.88 C 144.46 150.27 144.98 149.15 146.00 147.25 C 147.02 145.35 147.12 144.88 150.12 140.50 C 153.12 136.12 160.10 125.98 164.00 121.00 C 167.90 116.02 170.42 113.50 173.50 110.62 C 176.58 107.75 180.67 105.27 182.50 103.75 C 184.33 102.23 183.96 102.38 184.50 101.50 C 185.04 100.62 185.71 99.67 185.75 98.50 C 185.79 97.33 185.81 96.15 184.75 94.50 C 183.69 92.85 181.06 90.27 179.38 88.62 C 177.69 86.98 176.35 85.92 174.62 84.62 C 172.90 83.33 171.35 82.29 169.00 80.88 C 166.65 79.46 162.44 77.10 160.50 76.12 C 158.56 75.15 158.35 75.23 157.38 75.00 C 156.40 74.77 155.98 74.75 154.62 74.75 Z" id="s-0-f-3"/>
<path d="M 157.38 75.00 C 156.00 74.77 153.79 74.71 152.25 74.75 C 150.71 74.79 149.58 74.73 148.12 75.25 C 146.67 75.77 146.65 75.77 143.50 77.88 C 140.35 79.98 133.71 85.06 129.25 87.88 C 124.79 90.69 120.90 92.77 116.75 94.75 C 112.60 96.73 109.31 98.17 104.38 99.75 C 99.44 101.33 90.71 103.04 87.12 104.25 C 83.54 105.46 83.77 106.19 82.88 107.00 C 81.98 107.81 81.92 108.25 81.75 109.12 C 81.58 110.00 81.29 111.10 81.88 112.25 C 82.46 113.40 83.96 115.06 85.25 116.00 C 86.54 116.94 88.10 117.54 89.62 117.88 C 91.15 118.21 90.12 119.02 94.38 118.00 C 98.62 116.98 109.21 113.79 115.12 111.75 C 121.04 109.71 126.67 107.15 129.88 105.75 C 133.08 104.35 133.29 103.83 134.38 103.38 C 135.46 102.92 135.46 103.02 136.38 103.00 C 137.29 102.98 138.83 102.94 139.88 103.25 C 140.92 103.56 141.94 104.33 142.62 104.88 C 143.31 105.42 143.69 105.96 144.00 106.50 C 144.31 107.04 144.54 107.12 144.50 108.12 C 144.46 109.12 145.83 107.23 143.75 112.50 C 141.67 117.77 135.19 132.06 132.00 139.75 C 128.81 147.44 125.79 155.17 124.62 158.62 C 123.46 162.08 124.35 159.79 125.00 160.50 C 125.65 161.21 127.10 162.12 128.50 162.88 C 129.90 163.62 131.35 164.33 133.38 165.00 C 135.40 165.67 138.88 166.56 140.62 166.88 C 142.38 167.19 143.17 166.98 143.88 166.88 C 144.58 166.77 144.85 166.71 144.88 166.25 C 144.90 165.79 144.27 165.38 144.00 164.12 C 143.73 162.88 143.27 160.71 143.25 158.75 C 143.23 156.79 143.42 154.29 143.88 152.38 C 144.33 150.46 144.65 149.71 146.00 147.25 C 147.35 144.79 149.65 141.17 152.00 137.62 C 154.35 134.08 157.29 129.75 160.12 126.00 C 162.96 122.25 166.62 117.81 169.00 115.12 C 171.38 112.44 172.12 111.77 174.38 109.88 C 176.62 107.98 180.81 105.15 182.50 103.75 C 184.19 102.35 183.96 102.38 184.50 101.50 C 185.04 100.62 185.71 99.67 185.75 98.50 C 185.79 97.33 186.29 96.56 184.75 94.50 C 183.21 92.44 179.33 88.52 176.50 86.12 C 173.67 83.73 170.42 81.79 167.75 80.12 C 165.08 78.46 162.23 76.98 160.50 76.12 C 158.77 75.27 158.75 75.23 157.38 75.00 Z" id="s-0-f-4"/>
<path d="M 185.75 97.50 C 185.73 96.44 185.81 95.98 184.75 94.50 C 183.69 93.02 181.06 90.27 179.38 88.62 C 177.69 86.98 176.35 85.92 174.62 84.62 C 172.90 83.33 171.35 82.29 169.00 80.88 C 166.65 79.46 162.44 77.10 160.50 76.12 C 158.56 75.15 159.25 75.19 157.38 75.00 C 155.50 74.81 151.06 74.83 149.25 75.00 C 147.44 75.17 149.83 73.85 146.50 76.00 C 143.17 78.15 134.21 84.75 129.25 87.88 C 124.29 91.00 120.90 92.77 116.75 94.75 C 112.60 96.73 109.56 98.06 104.38 99.75 C 99.19 101.44 89.21 103.67 85.62 104.88 C 82.04 106.08 83.50 106.40 82.88 107.00 C 82.25 107.60 82.06 107.73 81.88 108.50 C 81.69 109.27 81.44 110.58 81.75 111.62 C 82.06 112.67 82.92 113.88 83.75 114.75 C 84.58 115.62 85.77 116.35 86.75 116.88 C 87.73 117.40 88.12 117.71 89.62 117.88 C 91.12 118.04 91.50 118.90 95.75 117.88 C 100.00 116.85 109.44 113.77 115.12 111.75 C 120.81 109.73 126.67 107.15 129.88 105.75 C 133.08 104.35 133.29 103.83 134.38 103.38 C 135.46 102.92 135.40 103.00 136.38 103.00 C 137.35 103.00 139.06 102.92 140.25 103.38 C 141.44 103.83 142.79 104.81 143.50 105.75 C 144.21 106.69 144.46 107.88 144.50 109.00 C 144.54 110.12 145.44 108.25 143.75 112.50 C 142.06 116.75 135.54 130.71 134.38 134.50 C 133.21 138.29 135.40 134.52 136.75 135.25 C 138.10 135.98 140.40 137.92 142.50 138.88 C 144.60 139.83 148.00 140.83 149.38 141.00 C 150.75 141.17 149.50 141.62 150.75 139.88 C 152.00 138.12 154.67 133.65 156.88 130.50 C 159.08 127.35 161.23 124.31 164.00 121.00 C 166.77 117.69 170.42 113.50 173.50 110.62 C 176.58 107.75 180.60 105.38 182.50 103.75 C 184.40 102.12 184.33 101.92 184.88 100.88 C 185.42 99.83 185.77 98.56 185.75 97.50 Z" id="s-0-f-5"/>
<path d="M 170.88 83.50 C 170.40 82.52 170.60 82.10 168.88 80.88 C 167.15 79.65 162.54 77.12 160.50 76.12 C 158.46 75.12 158.62 75.04 156.62 74.88 C 154.62 74.71 150.69 74.62 148.50 75.12 C 146.31 75.62 146.71 75.75 143.50 77.88 C 140.29 80.00 133.71 85.06 129.25 87.88 C 124.79 90.69 120.90 92.77 116.75 94.75 C 112.60 96.73 109.56 98.06 104.38 99.75 C 99.19 101.44 89.21 103.67 85.62 104.88 C 82.04 106.08 83.50 106.40 82.88 107.00 C 82.25 107.60 82.04 107.62 81.88 108.50 C 81.71 109.38 81.48 111.12 81.88 112.25 C 82.27 113.38 83.44 114.48 84.25 115.25 C 85.06 116.02 85.85 116.44 86.75 116.88 C 87.65 117.31 88.12 117.71 89.62 117.88 C 91.12 118.04 91.50 118.90 95.75 117.88 C 100.00 116.85 109.44 113.77 115.12 111.75 C 120.81 109.73 126.67 107.15 129.88 105.75 C 133.08 104.35 132.96 103.83 134.38 103.38 C 135.79 102.92 137.23 102.92 138.38 103.00 C 139.52 103.08 140.31 103.29 141.25 103.88 C 142.19 104.46 143.46 105.65 144.00 106.50 C 144.54 107.35 144.73 107.54 144.50 109.00 C 144.27 110.46 144.31 111.06 142.62 115.25 C 140.94 119.44 135.73 130.90 134.38 134.12 C 133.02 137.35 134.35 134.52 134.50 134.62 C 134.65 134.73 132.58 135.88 135.25 134.75 C 137.92 133.62 147.10 129.52 150.50 127.88 C 153.90 126.23 153.56 126.42 155.62 124.88 C 157.69 123.33 160.98 120.56 162.88 118.62 C 164.77 116.69 165.83 115.10 167.00 113.25 C 168.17 111.40 169.06 109.54 169.88 107.50 C 170.69 105.46 171.48 103.52 171.88 101.00 C 172.27 98.48 172.27 94.75 172.25 92.38 C 172.23 90.00 171.98 88.23 171.75 86.75 C 171.52 85.27 171.35 84.48 170.88 83.50 Z" id="s-0-f-6"/>
<path d="M 147.88 95.50 C 147.35 92.94 146.69 91.67 145.88 89.88 C 145.06 88.08 143.83 86.10 143.00 84.75 C 142.17 83.40 141.50 82.40 140.88 81.75 C 140.25 81.10 141.19 79.85 139.25 80.88 C 137.31 81.90 133.00 85.56 129.25 87.88 C 125.50 90.19 120.90 92.77 116.75 94.75 C 112.60 96.73 109.56 98.06 104.38 99.75 C 99.19 101.44 89.21 103.67 85.62 104.88 C 82.04 106.08 83.50 106.40 82.88 107.00 C 82.25 107.60 82.04 107.62 81.88 108.50 C 81.71 109.38 81.48 111.12 81.88 112.25 C 82.27 113.38 83.44 114.48 84.25 115.25 C 85.06 116.02 85.85 116.44 86.75 116.88 C 87.65 117.31 88.12 117.71 89.62 117.88 C 91.12 118.04 91.50 118.90 95.75 117.88 C 100.00 116.85 109.44 113.77 115.12 111.75 C 120.81 109.73 126.67 107.15 129.88 105.75 C 133.08 104.35 133.29 103.83 134.38 103.38 C 135.46 102.92 135.44 103.00 136.38 103.00 C 137.31 103.00 138.96 103.06 140.00 103.38 C 141.04 103.69 141.98 104.40 142.62 104.88 C 143.27 105.35 143.56 105.77 143.88 106.25 C 144.19 106.73 144.42 107.21 144.50 107.75 C 144.58 108.29 144.67 108.31 144.38 109.50 C 144.08 110.69 144.29 111.08 142.75 114.88 C 141.21 118.67 136.31 129.25 135.12 132.25 C 133.94 135.25 134.83 133.44 135.62 132.88 C 136.42 132.31 138.50 130.42 139.88 128.88 C 141.25 127.33 142.71 125.56 143.88 123.62 C 145.04 121.69 146.08 119.56 146.88 117.25 C 147.67 114.94 148.27 111.75 148.62 109.75 C 148.98 107.75 149.12 107.62 149.00 105.25 C 148.88 102.88 148.40 98.06 147.88 95.50 Z" id="s-0-f-7"/>
<path d="M 133.88 98.25 C 133.29 96.19 131.54 91.77 130.88 90.12 C 130.21 88.48 130.25 88.71 129.88 88.38 C 129.50 88.04 130.81 87.06 128.62 88.12 C 126.44 89.19 120.79 92.81 116.75 94.75 C 112.71 96.69 109.56 98.06 104.38 99.75 C 99.19 101.44 89.21 103.67 85.62 104.88 C 82.04 106.08 83.50 106.40 82.88 107.00 C 82.25 107.60 82.04 107.62 81.88 108.50 C 81.71 109.38 81.48 111.12 81.88 112.25 C 82.27 113.38 83.44 114.48 84.25 115.25 C 85.06 116.02 85.67 116.42 86.75 116.88 C 87.83 117.33 89.17 117.85 90.75 118.00 C 92.33 118.15 92.19 118.79 96.25 117.75 C 100.31 116.71 109.19 113.92 115.12 111.75 C 121.06 109.58 128.77 106.10 131.88 104.75 C 134.98 103.40 133.33 104.00 133.75 103.62 C 134.17 103.25 134.35 103.40 134.38 102.50 C 134.40 101.60 134.46 100.31 133.88 98.25 Z" id="s-0-f-8"/>
<path d="M 127.88 92.00 C 127.40 90.58 127.35 90.50 127.00 90.12 C 126.65 89.75 127.46 88.98 125.75 89.75 C 124.04 90.52 120.31 93.08 116.75 94.75 C 113.19 96.42 109.56 98.06 104.38 99.75 C 99.19 101.44 89.21 103.67 85.62 104.88 C 82.04 106.08 83.50 106.40 82.88 107.00 C 82.25 107.60 82.04 107.62 81.88 108.50 C 81.71 109.38 81.48 111.12 81.88 112.25 C 82.27 113.38 83.44 114.48 84.25 115.25 C 85.06 116.02 85.85 116.44 86.75 116.88 C 87.65 117.31 88.12 117.71 89.62 117.88 C 91.12 118.04 91.50 118.90 95.75 117.88 C 100.00 116.85 109.44 113.79 115.12 111.75 C 120.81 109.71 127.31 106.85 129.88 105.62 C 132.44 104.40 130.50 105.54 130.50 104.38 C 130.50 103.21 130.31 100.69 129.88 98.62 C 129.44 96.56 128.35 93.42 127.88 92.00 Z" id="s-0-f-9"/>
</g>
<g id="s-1" clip-path="url(#c-s-1)">
<use href="#s-1-f-0"/>
<path d="M 63.12 91.75 C 62.17 91.79 61.46 91.83 60.75 92.12 C 60.04 92.42 59.46 92.98 58.88 93.50 C 58.29 94.02 57.58 94.50 57.25 95.25 C 56.92 96.00 56.90 97.29 56.88 98.00 C 56.85 98.71 56.67 98.52 57.12 99.50 C 57.58 100.48 58.19 100.23 59.62 103.88 C 61.06 107.52 64.06 115.81 65.75 121.38 C 67.44 126.94 68.65 131.73 69.75 137.25 C 70.85 142.77 71.73 148.69 72.38 154.50 C 73.02 160.31 73.27 164.71 73.62 172.12 C 73.98 179.54 74.35 186.08 74.50 199.00 C 74.65 211.92 74.83 234.17 74.50 249.62 C 74.17 265.08 73.46 278.94 72.50 291.75 C 71.54 304.56 70.19 316.06 68.75 326.50 C 67.31 336.94 65.21 347.56 63.88 354.38 C 62.54 361.19 61.90 363.19 60.75 367.38 C 59.60 371.56 57.94 375.98 57.00 379.50 C 56.06 383.02 55.46 386.56 55.12 388.50 C 54.79 390.44 54.85 390.40 55.00 391.12 C 55.15 391.85 54.48 391.90 56.00 392.88 C 57.52 393.85 61.48 396.00 64.12 397.00 C 66.77 398.00 69.29 398.54 71.88 398.88 C 74.46 399.21 77.23 399.17 79.62 399.00 C 82.02 398.83 84.98 398.31 86.25 397.88 C 87.52 397.44 86.67 399.56 87.25 396.38 C 87.83 393.19 89.00 385.83 89.75 378.75 C 90.50 371.67 91.25 361.81 91.75 353.88 C 92.25 345.94 92.38 348.35 92.75 331.12 C 93.12 313.90 93.33 280.23 94.00 250.50 C 94.67 220.77 96.19 174.81 96.75 152.75 C 97.31 130.69 97.15 124.58 97.38 118.12 C 97.60 111.67 98.17 115.21 98.12 114.00 C 98.08 112.79 97.48 111.46 97.12 110.88 C 96.77 110.29 96.17 110.67 96.00 110.50 C 95.83 110.33 95.94 110.02 96.12 109.88 C 96.31 109.73 97.29 110.02 97.12 109.62 C 96.96 109.23 97.77 109.44 95.12 107.50 C 92.48 105.56 84.85 100.23 81.25 98.00 C 77.65 95.77 75.96 95.15 73.50 94.12 C 71.04 93.10 68.23 92.27 66.50 91.88 C 64.77 91.48 64.08 91.71 63.12 91.75 Z" id="s-1-f-1"/>
<path d="M 63.12 91.75 C 62.17 91.79 61.46 91.83 60.75 92.12 C 60.04 92.42 59.46 92.98 58.88 93.50 C 58.29 94.02 57.58 94.50 57.25 95.25 C 56.92 96.00 56.90 97.29 56.88 98.00 C 56.85 98.71 56.67 98.52 57.12 99.50 C 57.58 100.48 58.19 100.23 59.62 103.88 C 61.06 107.52 64.06 115.81 65.75 121.38 C 67.44 126.94 68.75 132.54 69.75 137.25 C 70.75 141.96 71.10 143.81 71.75 149.62 C 72.40 155.44 73.12 160.46 73.62 172.12 C 74.12 183.79 74.60 206.71 74.75 219.62 C 74.90 232.54 74.88 237.60 74.50 249.62 C 74.12 261.65 73.46 278.94 72.50 291.75 C 71.54 304.56 70.17 316.21 68.75 326.50 C 67.33 336.79 64.71 348.81 64.00 353.50 C 63.29 358.19 63.50 354.06 64.50 354.62 C 65.50 355.19 67.62 356.21 70.00 356.88 C 72.38 357.54 76.73 358.33 78.75 358.62 C 80.77 358.92 80.21 358.83 82.12 358.62 C 84.04 358.42 88.71 357.73 90.25 357.38 C 91.79 357.02 91.12 357.08 91.38 356.50 C 91.62 355.92 91.52 358.10 91.75 353.88 C 91.98 349.65 92.38 348.35 92.75 331.12 C 93.12 313.90 93.33 280.23 94.00 250.50 C 94.67 220.77 96.19 174.81 96.75 152.75 C 97.31 130.69 97.15 124.58 97.38 118.12 C 97.60 111.67 98.17 115.21 98.12 114.00 C 98.08 112.79 97.48 111.46 97.12 110.88 C 96.77 110.29 96.17 110.67 96.00 110.50 C 95.83 110.33 95.94 110.02 96.12 109.88 C 96.31 109.73 97.29 110.02 97.12 109.62 C 96.96 109.23 97.77 109.44 95.12 107.50 C 92.48 105.56 84.85 100.23 81.25 98.00 C 77.65 95.77 75.96 95.15 73.50 94.12 C 71.04 93.10 68.23 92.27 66.50 91.88 C 64.77 91.48 64.08 91.71 63.12 91.75 Z" id="s-1-f-2"/>
<path d="M 61.12 92.00 C 59.92 92.10 60.52 92.08 59.88 92.62 C 59.23 93.17 57.73 94.17 57.25 95.25 C 56.77 96.33 56.60 97.69 57.00 99.12 C 57.40 100.56 58.33 100.73 59.62 103.88 C 60.92 107.02 63.06 112.44 64.75 118.00 C 66.44 123.56 68.48 131.17 69.75 137.25 C 71.02 143.33 71.73 148.69 72.38 154.50 C 73.02 160.31 73.27 164.71 73.62 172.12 C 73.98 179.54 74.33 187.04 74.50 199.00 C 74.67 210.96 74.75 231.77 74.62 243.88 C 74.50 255.98 74.33 260.94 73.75 271.62 C 73.17 282.31 71.50 301.75 71.12 308.00 C 70.75 314.25 70.50 308.62 71.50 309.12 C 72.50 309.62 74.00 310.69 77.12 311.00 C 80.25 311.31 87.75 311.08 90.25 311.00 C 92.75 310.92 91.65 310.81 92.12 310.50 C 92.60 310.19 92.81 319.12 93.12 309.12 C 93.44 299.12 93.40 276.56 94.00 250.50 C 94.60 224.44 96.19 174.81 96.75 152.75 C 97.31 130.69 97.15 124.58 97.38 118.12 C 97.60 111.67 98.17 115.21 98.12 114.00 C 98.08 112.79 97.48 111.46 97.12 110.88 C 96.77 110.29 96.17 110.67 96.00 110.50 C 95.83 110.33 95.94 110.02 96.12 109.88 C 96.31 109.73 97.29 110.02 97.12 109.62 C 96.96 109.23 97.77 109.44 95.12 107.50 C 92.48 105.56 84.85 100.23 81.25 98.00 C 77.65 95.77 75.85 95.12 73.50 94.12 C 71.15 93.12 69.19 92.35 67.12 92.00 C 65.06 91.65 62.33 91.90 61.12 92.00 Z" id="s-1-f-3"/>
<path d="M 61.12 92.00 C 59.92 92.10 60.52 92.08 59.88 92.62 C 59.23 93.17 57.73 94.17 57.25 95.25 C 56.77 96.33 56.60 97.69 57.00 99.12 C 57.40 100.56 58.04 99.71 59.62 103.88 C 61.21 108.04 64.81 118.56 66.50 124.12 C 68.19 129.69 68.71 131.44 69.75 137.25 C 70.79 143.06 71.96 148.71 72.75 159.00 C 73.54 169.29 74.17 186.23 74.50 199.00 C 74.83 211.77 74.81 225.40 74.75 235.62 C 74.69 245.85 74.15 256.15 74.12 260.38 C 74.10 264.60 74.04 260.73 74.62 261.00 C 75.21 261.27 75.73 261.79 77.62 262.00 C 79.52 262.21 83.75 262.27 86.00 262.25 C 88.25 262.23 89.92 262.06 91.12 261.88 C 92.33 261.69 92.79 261.40 93.25 261.12 C 93.71 260.85 93.19 284.08 93.88 260.25 C 94.56 236.42 96.67 142.29 97.38 118.12 C 98.08 93.96 98.04 116.21 98.12 115.25 C 98.21 114.29 98.04 113.10 97.88 112.38 C 97.71 111.65 97.44 111.19 97.12 110.88 C 96.81 110.56 96.17 110.67 96.00 110.50 C 95.83 110.33 95.94 110.02 96.12 109.88 C 96.31 109.73 97.29 110.02 97.12 109.62 C 96.96 109.23 96.10 108.35 95.12 107.50 C 94.15 106.65 92.23 105.12 91.25 104.50 C 90.27 103.88 91.21 105.00 89.25 103.75 C 87.29 102.50 82.12 98.60 79.50 97.00 C 76.88 95.40 75.56 94.96 73.50 94.12 C 71.44 93.29 69.19 92.35 67.12 92.00 C 65.06 91.65 62.33 91.90 61.12 92.00 Z" id="s-1-f-4"/>
<path d="M 61.12 92.00 C 59.92 92.10 60.52 92.08 59.88 92.62 C 59.23 93.17 57.75 94.35 57.25 95.25 C 56.75 96.15 56.90 97.29 56.88 98.00 C 56.85 98.71 56.67 98.52 57.12 99.50 C 57.58 100.48 58.19 100.23 59.62 103.88 C 61.06 107.52 64.06 115.81 65.75 121.38 C 67.44 126.94 68.75 132.54 69.75 137.25 C 70.75 141.96 71.10 143.81 71.75 149.62 C 72.40 155.44 73.15 161.33 73.62 172.12 C 74.10 182.92 74.19 207.08 74.62 214.38 C 75.06 221.67 74.88 215.46 76.25 215.88 C 77.62 216.29 80.10 216.88 82.88 216.88 C 85.65 216.88 90.96 216.15 92.88 215.88 C 94.79 215.60 94.04 215.50 94.38 215.25 C 94.71 215.00 94.48 224.79 94.88 214.38 C 95.27 203.96 96.33 168.79 96.75 152.75 C 97.17 136.71 97.15 124.38 97.38 118.12 C 97.60 111.88 98.04 116.21 98.12 115.25 C 98.21 114.29 98.04 113.10 97.88 112.38 C 97.71 111.65 97.44 111.19 97.12 110.88 C 96.81 110.56 96.17 110.67 96.00 110.50 C 95.83 110.33 95.94 110.02 96.12 109.88 C 96.31 109.73 97.29 110.02 97.12 109.62 C 96.96 109.23 96.10 108.35 95.12 107.50 C 94.15 106.65 92.23 105.12 91.25 104.50 C 90.27 103.88 91.21 105.00 89.25 103.75 C 87.29 102.50 82.12 98.60 79.50 97.00 C 76.88 95.40 75.56 94.96 73.50 94.12 C 71.44 93.29 69.19 92.35 67.12 92.00 C 65.06 91.65 62.33 91.90 61.12 92.00 Z" id="s-1-f-5"/>
<path d="M 60.75 92.12 C 59.77 92.71 57.88 94.08 57.25 95.25 C 56.62 96.42 56.60 97.69 57.00 99.12 C 57.40 100.56 58.33 100.73 59.62 103.88 C 60.92 107.02 63.06 112.44 64.75 118.00 C 66.44 123.56 68.48 131.17 69.75 137.25 C 71.02 143.33 71.67 147.85 72.38 154.50 C 73.08 161.15 73.44 173.21 74.00 177.12 C 74.56 181.04 74.46 177.69 75.75 178.00 C 77.04 178.31 79.77 178.85 81.75 179.00 C 83.73 179.15 85.71 179.06 87.62 178.88 C 89.54 178.69 91.92 178.23 93.25 177.88 C 94.58 177.52 95.04 180.94 95.62 176.75 C 96.21 172.56 96.46 162.52 96.75 152.75 C 97.04 142.98 97.15 124.38 97.38 118.12 C 97.60 111.88 98.04 116.21 98.12 115.25 C 98.21 114.29 98.04 113.10 97.88 112.38 C 97.71 111.65 97.42 111.17 97.12 110.88 C 96.83 110.58 96.31 110.77 96.12 110.62 C 95.94 110.48 95.83 110.17 96.00 110.00 C 96.17 109.83 97.92 110.54 97.12 109.62 C 96.33 108.71 92.56 105.48 91.25 104.50 C 89.94 103.52 90.62 104.65 89.25 103.75 C 87.88 102.85 85.00 100.44 83.00 99.12 C 81.00 97.81 79.90 97.06 77.25 95.88 C 74.60 94.69 69.48 92.69 67.12 92.00 C 64.77 91.31 64.19 91.73 63.12 91.75 C 62.06 91.77 61.73 91.54 60.75 92.12 Z" id="s-1-f-6"/>
<path d="M 59.88 92.62 C 59.23 93.17 57.73 94.17 57.25 95.25 C 56.77 96.33 56.60 97.69 57.00 99.12 C 57.40 100.56 58.17 100.17 59.62 103.88 C 61.08 107.58 64.06 115.81 65.75 121.38 C 67.44 126.94 68.71 132.31 69.75 137.25 C 70.79 142.19 71.44 148.56 72.00 151.00 C 72.56 153.44 71.21 151.73 73.12 151.88 C 75.04 152.02 80.52 152.21 83.50 151.88 C 86.48 151.54 88.94 150.58 91.00 149.88 C 93.06 149.17 94.94 148.15 95.88 147.62 C 96.81 147.10 96.38 151.67 96.62 146.75 C 96.88 141.83 97.12 123.38 97.38 118.12 C 97.62 112.88 98.04 116.21 98.12 115.25 C 98.21 114.29 98.04 113.10 97.88 112.38 C 97.71 111.65 97.44 111.19 97.12 110.88 C 96.81 110.56 96.17 110.67 96.00 110.50 C 95.83 110.33 95.94 110.02 96.12 109.88 C 96.31 109.73 97.94 110.52 97.12 109.62 C 96.31 108.73 92.56 105.48 91.25 104.50 C 89.94 103.52 90.92 104.83 89.25 103.75 C 87.58 102.67 83.88 99.60 81.25 98.00 C 78.62 96.40 76.10 95.17 73.50 94.12 C 70.90 93.08 67.69 92.10 65.62 91.75 C 63.56 91.40 62.08 91.85 61.12 92.00 C 60.17 92.15 60.52 92.08 59.88 92.62 Z" id="s-1-f-7"/>
<path d="M 60.75 92.12 C 59.77 92.71 57.88 94.08 57.25 95.25 C 56.62 96.42 56.60 97.69 57.00 99.12 C 57.40 100.56 58.33 100.73 59.62 103.88 C 60.92 107.02 63.04 112.27 64.75 118.00 C 66.46 123.73 68.79 134.77 69.88 138.25 C 70.96 141.73 70.02 138.94 71.25 138.88 C 72.48 138.81 75.27 138.40 77.25 137.88 C 79.23 137.35 81.27 136.58 83.12 135.75 C 84.98 134.92 86.58 134.17 88.38 132.88 C 90.17 131.58 92.48 129.40 93.88 128.00 C 95.27 126.60 96.15 126.31 96.75 124.50 C 97.35 122.69 97.27 118.67 97.50 117.12 C 97.73 115.58 98.06 116.04 98.12 115.25 C 98.19 114.46 98.04 113.10 97.88 112.38 C 97.71 111.65 97.44 111.19 97.12 110.88 C 96.81 110.56 96.17 110.67 96.00 110.50 C 95.83 110.33 95.94 109.98 96.12 109.88 C 96.31 109.77 97.00 109.98 97.12 109.88 C 97.25 109.77 97.85 110.15 96.88 109.25 C 95.90 108.35 92.52 105.42 91.25 104.50 C 89.98 103.58 90.62 104.65 89.25 103.75 C 87.88 102.85 85.00 100.44 83.00 99.12 C 81.00 97.81 79.90 97.06 77.25 95.88 C 74.60 94.69 69.48 92.69 67.12 92.00 C 64.77 91.31 64.19 91.73 63.12 91.75 C 62.06 91.77 61.73 91.54 60.75 92.12 Z" id="s-1-f-8"/>
<path d="M 61.12 92.00 C 59.92 92.10 60.52 92.08 59.88 92.62 C 59.23 93.17 57.73 94.17 57.25 95.25 C 56.77 96.33 56.60 97.69 57.00 99.12 C 57.40 100.56 58.33 100.73 59.62 103.88 C 60.92 107.02 63.33 113.38 64.75 118.00 C 66.17 122.62 67.33 129.04 68.12 131.62 C 68.92 134.21 68.15 133.46 69.50 133.50 C 70.85 133.54 73.90 132.79 76.25 131.88 C 78.60 130.96 81.52 129.42 83.62 128.00 C 85.73 126.58 87.15 125.12 88.88 123.38 C 90.60 121.62 92.92 119.04 94.00 117.50 C 95.08 115.96 95.04 114.75 95.38 114.12 C 95.71 113.50 95.85 114.04 96.00 113.75 C 96.15 113.46 96.08 112.73 96.25 112.38 C 96.42 112.02 96.88 112.08 97.00 111.62 C 97.12 111.17 97.31 110.31 97.00 109.62 C 96.69 108.94 96.08 108.35 95.12 107.50 C 94.17 106.65 92.23 105.12 91.25 104.50 C 90.27 103.88 90.62 104.65 89.25 103.75 C 87.88 102.85 85.00 100.44 83.00 99.12 C 81.00 97.81 79.90 97.06 77.25 95.88 C 74.60 94.69 69.81 92.65 67.12 92.00 C 64.44 91.35 62.33 91.90 61.12 92.00 Z" id="s-1-f-9"/>
</g>
<g id="s-2" clip-path="url(#c-s-2)">
<use href="#s-2-f-0"/>
<path d="M 368.75 69.88 C 368.02 68.85 367.12 67.56 365.38 66.25 C 363.62 64.94 361.06 63.52 358.25 62.00 C 355.44 60.48 351.40 58.46 348.50 57.12 C 345.60 55.79 344.08 55.02 340.88 54.00 C 337.67 52.98 332.44 51.54 329.25 51.00 C 326.06 50.46 323.71 50.73 321.75 50.75 C 319.79 50.77 318.62 50.60 317.50 51.12 C 316.38 51.65 315.62 52.06 315.00 53.88 C 314.38 55.69 314.46 59.67 313.75 62.00 C 313.04 64.33 311.96 65.98 310.75 67.88 C 309.54 69.77 309.23 70.54 306.50 73.38 C 303.77 76.21 299.44 80.65 294.38 84.88 C 289.31 89.10 282.94 93.92 276.12 98.75 C 269.31 103.58 261.10 109.02 253.50 113.88 C 245.90 118.73 236.73 124.19 230.50 127.88 C 224.27 131.56 218.56 134.25 216.12 136.00 C 213.69 137.75 215.42 137.08 215.88 138.38 C 216.33 139.67 218.08 142.73 218.88 143.75 C 219.67 144.77 217.92 145.33 220.62 144.50 C 223.33 143.67 228.02 141.83 235.12 138.75 C 242.23 135.67 255.46 129.29 263.25 126.00 C 271.04 122.71 275.83 121.69 281.88 119.00 C 287.92 116.31 293.48 113.21 299.50 109.88 C 305.52 106.54 312.21 102.17 318.00 99.00 C 323.79 95.83 329.33 93.19 334.25 90.88 C 339.17 88.56 342.17 87.06 347.50 85.12 C 352.83 83.19 362.73 80.52 366.25 79.25 C 369.77 77.98 368.06 78.04 368.62 77.50 C 369.19 76.96 369.44 76.85 369.62 76.00 C 369.81 75.15 369.90 73.40 369.75 72.38 C 369.60 71.35 369.48 70.90 368.75 69.88 Z" id="s-2-f-1"/>
<path d="M 368.62 69.62 C 367.90 68.60 367.10 67.52 365.38 66.25 C 363.65 64.98 361.06 63.52 358.25 62.00 C 355.44 60.48 351.40 58.46 348.50 57.12 C 345.60 55.79 344.08 55.02 340.88 54.00 C 337.67 52.98 332.44 51.54 329.25 51.00 C 326.06 50.46 323.71 50.73 321.75 50.75 C 319.79 50.77 318.62 50.60 317.50 51.12 C 316.38 51.65 315.62 52.06 315.00 53.88 C 314.38 55.69 314.29 59.92 313.75 62.00 C 313.21 64.08 312.96 64.48 311.75 66.38 C 310.54 68.27 308.60 70.98 306.50 73.38 C 304.40 75.77 302.12 78.04 299.12 80.75 C 296.12 83.46 292.33 86.62 288.50 89.62 C 284.67 92.62 281.96 94.71 276.12 98.75 C 270.29 102.79 260.10 109.67 253.50 113.88 C 246.90 118.08 239.56 122.10 236.50 124.00 C 233.44 125.90 235.38 124.92 235.12 125.25 C 234.88 125.58 234.54 124.81 235.00 126.00 C 235.46 127.19 237.02 130.79 237.88 132.38 C 238.73 133.96 239.52 134.92 240.12 135.50 C 240.73 136.08 237.65 137.46 241.50 135.88 C 245.35 134.29 256.52 128.81 263.25 126.00 C 269.98 123.19 275.83 121.69 281.88 119.00 C 287.92 116.31 293.48 113.21 299.50 109.88 C 305.52 106.54 312.21 102.17 318.00 99.00 C 323.79 95.83 329.33 93.19 334.25 90.88 C 339.17 88.56 342.17 87.06 347.50 85.12 C 352.83 83.19 362.73 80.52 366.25 79.25 C 369.77 77.98 368.04 78.12 368.62 77.50 C 369.21 76.88 369.56 76.35 369.75 75.50 C 369.94 74.65 369.94 73.35 369.75 72.38 C 369.56 71.40 369.35 70.65 368.62 69.62 Z" id="s-2-f-2"/>
<path d="M 368.62 69.62 C 367.90 68.60 367.10 67.52 365.38 66.25 C 363.65 64.98 361.06 63.52 358.25 62.00 C 355.44 60.48 351.40 58.46 348.50 57.12 C 345.60 55.79 344.08 55.02 340.88 54.00 C 337.67 52.98 332.44 51.54 329.25 51.00 C 326.06 50.46 323.71 50.73 321.75 50.75 C 319.79 50.77 318.62 50.60 317.50 51.12 C 316.38 51.65 315.62 52.06 315.00 53.88 C 314.38 55.69 314.29 59.92 313.75 62.00 C 313.21 64.08 312.96 64.48 311.75 66.38 C 310.54 68.27 308.15 71.42 306.50 73.38 C 304.85 75.33 303.90 76.21 301.88 78.12 C 299.85 80.04 297.31 82.42 294.38 84.88 C 291.44 87.33 288.44 89.77 284.25 92.88 C 280.06 95.98 273.92 100.33 269.25 103.50 C 264.58 106.67 258.50 110.35 256.25 111.88 C 254.00 113.40 255.83 112.23 255.75 112.62 C 255.67 113.02 255.06 112.65 255.75 114.25 C 256.44 115.85 258.62 120.31 259.88 122.25 C 261.12 124.19 259.90 126.29 263.25 125.88 C 266.60 125.46 273.96 122.42 280.00 119.75 C 286.04 117.08 293.17 113.33 299.50 109.88 C 305.83 106.42 312.21 102.17 318.00 99.00 C 323.79 95.83 329.33 93.19 334.25 90.88 C 339.17 88.56 342.17 87.06 347.50 85.12 C 352.83 83.19 362.73 80.52 366.25 79.25 C 369.77 77.98 368.04 78.12 368.62 77.50 C 369.21 76.88 369.56 76.35 369.75 75.50 C 369.94 74.65 369.94 73.35 369.75 72.38 C 369.56 71.40 369.35 70.65 368.62 69.62 Z" id="s-2-f-3"/>
<path d="M 368.62 69.62 C 367.90 68.60 367.10 67.52 365.38 66.25 C 363.65 64.98 361.06 63.52 358.25 62.00 C 355.44 60.48 351.40 58.46 348.50 57.12 C 345.60 55.79 344.08 55.02 340.88 54.00 C 337.67 52.98 332.44 51.54 329.25 51.00 C 326.06 50.46 323.71 50.73 321.75 50.75 C 319.79 50.77 318.62 50.60 317.50 51.12 C 316.38 51.65 315.60 52.15 315.00 53.88 C 314.40 55.60 314.23 59.79 313.88 61.50 C 313.52 63.21 313.40 63.06 312.88 64.12 C 312.35 65.19 311.81 66.33 310.75 67.88 C 309.69 69.42 309.23 70.54 306.50 73.38 C 303.77 76.21 298.08 81.62 294.38 84.88 C 290.67 88.12 287.40 90.52 284.25 92.88 C 281.10 95.23 277.04 97.73 275.50 99.00 C 273.96 100.27 274.60 99.19 275.00 100.50 C 275.40 101.81 276.92 105.10 277.88 106.88 C 278.83 108.65 279.44 109.56 280.75 111.12 C 282.06 112.69 284.75 115.38 285.75 116.25 C 286.75 117.12 284.46 117.44 286.75 116.38 C 289.04 115.31 294.29 112.77 299.50 109.88 C 304.71 106.98 312.21 102.17 318.00 99.00 C 323.79 95.83 329.33 93.19 334.25 90.88 C 339.17 88.56 342.17 87.06 347.50 85.12 C 352.83 83.19 362.73 80.52 366.25 79.25 C 369.77 77.98 368.04 78.12 368.62 77.50 C 369.21 76.88 369.56 76.35 369.75 75.50 C 369.94 74.65 369.94 73.35 369.75 72.38 C 369.56 71.40 369.35 70.65 368.62 69.62 Z" id="s-2-f-4"/>
<path d="M 368.62 69.62 C 367.90 68.60 367.10 67.52 365.38 66.25 C 363.65 64.98 361.06 63.52 358.25 62.00 C 355.44 60.48 351.40 58.46 348.50 57.12 C 345.60 55.79 344.08 55.02 340.88 54.00 C 337.67 52.98 332.44 51.54 329.25 51.00 C 326.06 50.46 323.71 50.73 321.75 50.75 C 319.79 50.77 318.62 50.60 317.50 51.12 C 316.38 51.65 315.62 52.06 315.00 53.88 C 314.38 55.69 314.46 59.67 313.75 62.00 C 313.04 64.33 311.96 65.98 310.75 67.88 C 309.54 69.77 307.98 71.67 306.50 73.38 C 305.02 75.08 304.35 75.81 301.88 78.12 C 299.40 80.44 293.31 85.44 291.62 87.25 C 289.94 89.06 291.38 87.94 291.75 89.00 C 292.12 90.06 292.90 91.96 293.88 93.62 C 294.85 95.29 295.96 97.12 297.62 99.00 C 299.29 100.88 302.44 103.75 303.88 104.88 C 305.31 106.00 303.90 106.73 306.25 105.75 C 308.60 104.77 312.33 101.94 318.00 99.00 C 323.67 96.06 334.81 90.62 340.25 88.12 C 345.69 85.62 347.38 85.19 350.62 84.00 C 353.88 82.81 357.31 81.71 359.75 81.00 C 362.19 80.29 363.77 80.33 365.25 79.75 C 366.73 79.17 367.88 78.21 368.62 77.50 C 369.38 76.79 369.56 76.35 369.75 75.50 C 369.94 74.65 369.94 73.35 369.75 72.38 C 369.56 71.40 369.35 70.65 368.62 69.62 Z" id="s-2-f-5"/>
<path d="M 304.75 77.00 C 304.92 78.19 305.19 80.17 305.88 82.25 C 306.56 84.33 307.62 87.21 308.88 89.50 C 310.12 91.79 312.17 94.46 313.38 96.00 C 314.58 97.54 315.42 98.21 316.12 98.75 C 316.83 99.29 313.17 101.21 317.62 99.25 C 322.08 97.29 336.38 89.88 342.88 87.00 C 349.38 84.12 352.73 83.29 356.62 82.00 C 360.52 80.71 364.25 80.00 366.25 79.25 C 368.25 78.50 368.08 78.00 368.62 77.50 C 369.17 77.00 369.31 77.10 369.50 76.25 C 369.69 75.40 369.94 73.54 369.75 72.38 C 369.56 71.21 369.10 70.27 368.38 69.25 C 367.65 68.23 367.06 67.46 365.38 66.25 C 363.69 65.04 361.48 63.71 358.25 62.00 C 355.02 60.29 349.38 57.48 346.00 56.00 C 342.62 54.52 340.79 53.96 338.00 53.12 C 335.21 52.29 332.31 51.38 329.25 51.00 C 326.19 50.62 321.58 50.85 319.62 50.88 C 317.67 50.90 318.27 50.62 317.50 51.12 C 316.73 51.62 315.60 52.15 315.00 53.88 C 314.40 55.60 314.23 59.79 313.88 61.50 C 313.52 63.21 313.54 62.85 312.88 64.12 C 312.21 65.40 311.21 67.29 309.88 69.12 C 308.54 70.96 305.73 73.81 304.88 75.12 C 304.02 76.44 304.58 75.81 304.75 77.00 Z" id="s-2-f-6"/>
<path d="M 316.88 68.62 C 316.54 71.35 316.67 74.46 316.88 76.88 C 317.08 79.29 317.44 80.92 318.12 83.12 C 318.81 85.33 320.04 88.21 321.00 90.12 C 321.96 92.04 323.19 93.77 323.88 94.62 C 324.56 95.48 321.19 96.83 325.12 95.25 C 329.06 93.67 341.73 87.50 347.50 85.12 C 353.27 82.75 356.79 81.90 359.75 81.00 C 362.71 80.10 363.77 80.33 365.25 79.75 C 366.73 79.17 367.88 78.21 368.62 77.50 C 369.38 76.79 369.56 76.35 369.75 75.50 C 369.94 74.65 369.94 73.35 369.75 72.38 C 369.56 71.40 369.17 70.50 368.62 69.62 C 368.08 68.75 367.35 67.90 366.50 67.12 C 365.65 66.35 366.92 66.85 363.50 65.00 C 360.08 63.15 350.25 57.98 346.00 56.00 C 341.75 54.02 340.79 53.96 338.00 53.12 C 335.21 52.29 331.40 51.38 329.25 51.00 C 327.10 50.62 326.04 50.83 325.12 50.88 C 324.21 50.92 324.10 51.04 323.75 51.25 C 323.40 51.46 323.81 50.58 323.00 52.12 C 322.19 53.67 319.90 57.75 318.88 60.50 C 317.85 63.25 317.21 65.90 316.88 68.62 Z" id="s-2-f-7"/>
<path d="M 325.75 62.62 C 325.00 65.19 324.40 68.00 324.25 71.00 C 324.10 74.00 324.56 78.25 324.88 80.62 C 325.19 83.00 325.46 83.44 326.12 85.25 C 326.79 87.06 328.17 90.25 328.88 91.50 C 329.58 92.75 327.27 93.81 330.38 92.75 C 333.48 91.69 342.60 87.08 347.50 85.12 C 352.40 83.17 356.79 81.90 359.75 81.00 C 362.71 80.10 363.96 80.17 365.25 79.75 C 366.54 79.33 366.77 79.12 367.50 78.50 C 368.23 77.88 369.27 77.12 369.62 76.00 C 369.98 74.88 369.83 72.88 369.62 71.75 C 369.42 70.62 369.08 70.17 368.38 69.25 C 367.67 68.33 368.02 67.96 365.38 66.25 C 362.73 64.54 356.58 61.04 352.50 59.00 C 348.42 56.96 343.98 55.17 340.88 54.00 C 337.77 52.83 335.48 52.33 333.88 52.00 C 332.27 51.67 332.10 51.40 331.25 52.00 C 330.40 52.60 329.67 53.85 328.75 55.62 C 327.83 57.40 326.50 60.06 325.75 62.62 Z" id="s-2-f-8"/>
<path d="M 331.75 55.62 C 330.81 57.31 329.50 60.77 328.88 62.50 C 328.25 64.23 328.27 63.98 328.00 66.00 C 327.73 68.02 327.29 72.23 327.25 74.62 C 327.21 77.02 327.48 78.65 327.75 80.38 C 328.02 82.10 328.17 83.12 328.88 85.00 C 329.58 86.88 331.31 90.50 332.00 91.62 C 332.69 92.75 331.62 92.33 333.00 91.75 C 334.38 91.17 337.31 89.42 340.25 88.12 C 343.19 86.83 347.38 85.19 350.62 84.00 C 353.88 82.81 357.31 81.71 359.75 81.00 C 362.19 80.29 363.96 80.17 365.25 79.75 C 366.54 79.33 366.79 79.08 367.50 78.50 C 368.21 77.92 369.12 77.27 369.50 76.25 C 369.88 75.23 369.94 73.54 369.75 72.38 C 369.56 71.21 369.10 70.27 368.38 69.25 C 367.65 68.23 367.06 67.46 365.38 66.25 C 363.69 65.04 361.48 63.71 358.25 62.00 C 355.02 60.29 349.46 57.50 346.00 56.00 C 342.54 54.50 339.42 53.60 337.50 53.00 C 335.58 52.40 335.46 51.94 334.50 52.38 C 333.54 52.81 332.69 53.94 331.75 55.62 Z" id="s-2-f-9"/>
</g>
<g id="s-3" clip-path="url(#c-s-3)">
<use href="#s-3-f-0"/>
<path d="M 436.88 197.88 C 436.67 195.29 435.90 193.06 435.50 191.75 C 435.10 190.44 434.98 190.46 434.50 190.00 C 434.02 189.54 434.73 189.67 432.62 189.00 C 430.52 188.33 425.56 186.67 421.88 186.00 C 418.19 185.33 413.81 185.00 410.50 185.00 C 407.19 185.00 404.52 185.52 402.00 186.00 C 399.48 186.48 403.67 186.04 395.38 187.88 C 387.08 189.71 364.96 194.19 352.25 197.00 C 339.54 199.81 327.00 203.10 319.12 204.75 C 311.25 206.40 309.77 206.02 305.00 206.88 C 300.23 207.73 295.44 209.00 290.50 209.88 C 285.56 210.75 281.21 211.12 275.38 212.12 C 269.54 213.12 259.31 215.23 255.50 215.88 C 251.69 216.52 262.42 214.29 252.50 216.00 C 242.58 217.71 206.56 224.12 196.00 226.12 C 185.44 228.12 190.58 227.35 189.12 228.00 C 187.67 228.65 187.58 229.46 187.25 230.00 C 186.92 230.54 187.00 230.67 187.12 231.25 C 187.25 231.83 187.35 232.56 188.00 233.50 C 188.65 234.44 189.62 235.69 191.00 236.88 C 192.38 238.06 195.12 239.94 196.25 240.62 C 197.38 241.31 197.02 240.65 197.75 241.00 C 198.48 241.35 198.96 242.12 200.62 242.75 C 202.29 243.38 203.83 244.42 207.75 244.75 C 211.67 245.08 220.40 244.94 224.12 244.75 C 227.85 244.56 227.35 244.42 230.12 243.62 C 232.90 242.83 234.04 241.79 240.75 240.00 C 247.46 238.21 256.46 235.54 270.38 232.88 C 284.29 230.21 312.58 225.83 324.25 224.00 C 335.92 222.17 334.35 222.54 340.38 221.88 C 346.40 221.21 352.19 220.67 360.38 220.00 C 368.56 219.33 377.35 218.60 389.50 217.88 C 401.65 217.15 425.73 216.21 433.25 215.62 C 440.77 215.04 434.23 214.96 434.62 214.38 C 435.02 213.79 435.27 213.31 435.62 212.12 C 435.98 210.94 436.54 209.62 436.75 207.25 C 436.96 204.88 437.08 200.46 436.88 197.88 Z" id="s-3-f-1"/>
<path d="M 399.88 202.88 C 399.35 199.48 397.58 194.96 396.75 192.62 C 395.92 190.29 395.50 189.62 394.88 188.88 C 394.25 188.12 405.62 185.48 393.00 188.12 C 380.38 190.77 333.79 201.62 319.12 204.75 C 304.46 207.88 309.77 206.02 305.00 206.88 C 300.23 207.73 295.44 209.00 290.50 209.88 C 285.56 210.75 281.21 211.12 275.38 212.12 C 269.54 213.12 259.31 215.23 255.50 215.88 C 251.69 216.52 262.42 214.29 252.50 216.00 C 242.58 217.71 206.56 224.12 196.00 226.12 C 185.44 228.12 190.58 227.35 189.12 228.00 C 187.67 228.65 187.58 229.46 187.25 230.00 C 186.92 230.54 187.00 230.67 187.12 231.25 C 187.25 231.83 187.35 232.56 188.00 233.50 C 188.65 234.44 189.62 235.69 191.00 236.88 C 192.38 238.06 195.12 239.94 196.25 240.62 C 197.38 241.31 197.02 240.65 197.75 241.00 C 198.48 241.35 198.96 242.12 200.62 242.75 C 202.29 243.38 203.83 244.42 207.75 244.75 C 211.67 245.08 220.40 244.94 224.12 244.75 C 227.85 244.56 227.35 244.42 230.12 243.62 C 232.90 242.83 234.04 241.79 240.75 240.00 C 247.46 238.21 256.46 235.54 270.38 232.88 C 284.29 230.21 309.79 226.10 324.25 224.00 C 338.71 221.90 344.92 221.31 357.12 220.25 C 369.33 219.19 390.54 218.19 397.50 217.62 C 404.46 217.06 398.48 217.65 398.88 216.88 C 399.27 216.10 399.71 215.33 399.88 213.00 C 400.04 210.67 400.40 206.27 399.88 202.88 Z" id="s-3-f-2"/>
<path d="M 371.88 206.62 C 371.71 203.98 371.40 203.79 370.88 202.12 C 370.35 200.46 369.31 197.92 368.75 196.62 C 368.19 195.33 367.98 194.81 367.50 194.38 C 367.02 193.94 373.94 192.27 365.88 194.00 C 357.81 195.73 329.27 202.60 319.12 204.75 C 308.98 206.90 309.77 206.02 305.00 206.88 C 300.23 207.73 295.44 209.00 290.50 209.88 C 285.56 210.75 281.21 211.12 275.38 212.12 C 269.54 213.12 259.31 215.23 255.50 215.88 C 251.69 216.52 262.42 214.29 252.50 216.00 C 242.58 217.71 206.56 224.12 196.00 226.12 C 185.44 228.12 190.58 227.35 189.12 228.00 C 187.67 228.65 187.58 229.46 187.25 230.00 C 186.92 230.54 187.00 230.67 187.12 231.25 C 187.25 231.83 187.35 232.56 188.00 233.50 C 188.65 234.44 189.62 235.69 191.00 236.88 C 192.38 238.06 195.12 239.94 196.25 240.62 C 197.38 241.31 197.02 240.65 197.75 241.00 C 198.48 241.35 198.96 242.12 200.62 242.75 C 202.29 243.38 203.83 244.42 207.75 244.75 C 211.67 245.08 220.40 244.94 224.12 244.75 C 227.85 244.56 227.35 244.42 230.12 243.62 C 232.90 242.83 235.54 241.46 240.75 240.00 C 245.96 238.54 253.73 236.54 261.38 234.88 C 269.02 233.21 273.65 232.15 286.62 230.00 C 299.60 227.85 325.35 223.75 339.25 222.00 C 353.15 220.25 364.56 220.17 370.00 219.50 C 375.44 218.83 371.56 220.15 371.88 218.00 C 372.19 215.85 372.04 209.27 371.88 206.62 Z" id="s-3-f-3"/>
<path d="M 329.00 213.00 C 328.62 210.19 327.38 207.00 326.88 205.50 C 326.38 204.00 326.33 204.35 326.00 204.00 C 325.67 203.65 330.79 202.40 324.88 203.38 C 318.96 204.35 298.75 208.42 290.50 209.88 C 282.25 211.33 281.21 211.12 275.38 212.12 C 269.54 213.12 259.31 215.23 255.50 215.88 C 251.69 216.52 262.42 214.29 252.50 216.00 C 242.58 217.71 206.56 224.12 196.00 226.12 C 185.44 228.12 190.58 227.35 189.12 228.00 C 187.67 228.65 187.58 229.46 187.25 230.00 C 186.92 230.54 187.00 230.67 187.12 231.25 C 187.25 231.83 187.35 232.56 188.00 233.50 C 188.65 234.44 189.62 235.69 191.00 236.88 C 192.38 238.06 195.12 239.94 196.25 240.62 C 197.38 241.31 197.02 240.65 197.75 241.00 C 198.48 241.35 198.96 242.12 200.62 242.75 C 202.29 243.38 203.83 244.42 207.75 244.75 C 211.67 245.08 220.40 244.94 224.12 244.75 C 227.85 244.56 227.35 244.42 230.12 243.62 C 232.90 242.83 234.04 241.79 240.75 240.00 C 247.46 238.21 255.77 235.60 270.38 232.88 C 284.98 230.15 318.58 225.38 328.38 223.62 C 338.17 221.88 329.02 224.15 329.12 222.38 C 329.23 220.60 329.38 215.81 329.00 213.00 Z" id="s-3-f-4"/>
<path d="M 290.75 222.62 C 290.58 220.92 290.38 219.71 289.88 217.88 C 289.38 216.04 288.31 212.83 287.75 211.62 C 287.19 210.42 291.88 209.92 286.50 210.62 C 281.12 211.33 261.17 214.98 255.50 215.88 C 249.83 216.77 262.42 214.29 252.50 216.00 C 242.58 217.71 206.56 224.12 196.00 226.12 C 185.44 228.12 190.58 227.35 189.12 228.00 C 187.67 228.65 187.58 229.46 187.25 230.00 C 186.92 230.54 187.00 230.67 187.12 231.25 C 187.25 231.83 187.35 232.56 188.00 233.50 C 188.65 234.44 189.62 235.69 191.00 236.88 C 192.38 238.06 195.12 239.94 196.25 240.62 C 197.38 241.31 197.02 240.65 197.75 241.00 C 198.48 241.35 198.96 242.12 200.62 242.75 C 202.29 243.38 203.83 244.42 207.75 244.75 C 211.67 245.08 220.40 244.94 224.12 244.75 C 227.85 244.56 227.35 244.42 230.12 243.62 C 232.90 242.83 234.04 241.79 240.75 240.00 C 247.46 238.21 262.27 234.58 270.38 232.88 C 278.48 231.17 286.02 230.40 289.38 229.75 C 292.73 229.10 290.25 229.27 290.50 229.00 C 290.75 228.73 290.83 229.19 290.88 228.12 C 290.92 227.06 290.92 224.33 290.75 222.62 Z" id="s-3-f-5"/>
<path d="M 269.50 229.50 C 269.44 228.02 269.31 225.71 268.88 223.62 C 268.44 221.54 267.48 218.52 266.88 217.00 C 266.27 215.48 265.75 214.98 265.25 214.50 C 264.75 214.02 276.08 212.04 263.88 214.12 C 251.67 216.21 204.58 224.58 192.00 227.00 C 179.42 229.42 189.17 228.12 188.38 228.62 C 187.58 229.12 187.46 229.56 187.25 230.00 C 187.04 230.44 187.00 230.67 187.12 231.25 C 187.25 231.83 187.35 232.56 188.00 233.50 C 188.65 234.44 189.62 235.69 191.00 236.88 C 192.38 238.06 195.12 239.94 196.25 240.62 C 197.38 241.31 197.02 240.65 197.75 241.00 C 198.48 241.35 198.96 242.12 200.62 242.75 C 202.29 243.38 204.71 244.38 207.75 244.75 C 210.79 245.12 216.15 245.00 218.88 245.00 C 221.60 245.00 222.33 244.96 224.12 244.75 C 225.92 244.54 225.60 244.88 229.62 243.75 C 233.65 242.62 241.81 239.69 248.25 238.00 C 254.69 236.31 264.75 234.54 268.25 233.62 C 271.75 232.71 269.04 233.19 269.25 232.50 C 269.46 231.81 269.56 230.98 269.50 229.50 Z" id="s-3-f-6"/>
<path d="M 245.88 236.00 C 245.96 234.94 246.06 233.79 245.88 231.88 C 245.69 229.96 245.25 226.71 244.75 224.50 C 244.25 222.29 243.40 219.71 242.88 218.62 C 242.35 217.54 250.10 216.60 241.62 218.00 C 233.15 219.40 200.75 225.33 192.00 227.00 C 183.25 228.67 189.94 227.44 189.12 228.00 C 188.31 228.56 187.40 229.62 187.12 230.38 C 186.85 231.12 187.17 231.73 187.50 232.50 C 187.83 233.27 188.08 233.92 189.12 235.00 C 190.17 236.08 191.83 237.71 193.75 239.00 C 195.67 240.29 198.29 241.79 200.62 242.75 C 202.96 243.71 204.12 244.40 207.75 244.75 C 211.38 245.10 218.73 245.04 222.38 244.88 C 226.02 244.71 225.98 244.69 229.62 243.75 C 233.27 242.81 241.62 240.17 244.25 239.25 C 246.88 238.33 245.10 238.79 245.38 238.25 C 245.65 237.71 245.79 237.06 245.88 236.00 Z" id="s-3-f-7"/>
<path d="M 232.50 233.38 C 232.52 230.75 232.02 226.58 231.75 224.50 C 231.48 222.42 231.23 221.60 230.88 220.88 C 230.52 220.15 236.10 219.10 229.62 220.12 C 223.15 221.15 198.75 225.69 192.00 227.00 C 185.25 228.31 189.94 227.44 189.12 228.00 C 188.31 228.56 187.40 229.62 187.12 230.38 C 186.85 231.12 187.17 231.73 187.50 232.50 C 187.83 233.27 188.08 233.92 189.12 235.00 C 190.17 236.08 191.83 237.71 193.75 239.00 C 195.67 240.29 198.29 241.79 200.62 242.75 C 202.96 243.71 204.12 244.40 207.75 244.75 C 211.38 245.10 218.75 245.04 222.38 244.88 C 226.00 244.71 228.06 244.17 229.50 243.75 C 230.94 243.33 230.65 242.96 231.00 242.38 C 231.35 241.79 231.38 241.75 231.62 240.25 C 231.88 238.75 232.48 236.00 232.50 233.38 Z" id="s-3-f-8"/>
<path d="M 228.88 225.62 C 228.67 223.92 228.27 222.90 228.00 222.12 C 227.73 221.35 227.90 221.19 227.25 221.00 C 226.60 220.81 230.00 220.00 224.12 221.00 C 218.25 222.00 197.96 225.73 192.00 227.00 C 186.04 228.27 189.17 228.12 188.38 228.62 C 187.58 229.12 187.46 229.56 187.25 230.00 C 187.04 230.44 187.00 230.67 187.12 231.25 C 187.25 231.83 187.35 232.56 188.00 233.50 C 188.65 234.44 189.62 235.69 191.00 236.88 C 192.38 238.06 195.12 239.94 196.25 240.62 C 197.38 241.31 197.02 240.65 197.75 241.00 C 198.48 241.35 198.96 242.12 200.62 242.75 C 202.29 243.38 203.83 244.42 207.75 244.75 C 211.67 245.08 221.00 244.85 224.12 244.75 C 227.25 244.65 225.88 244.54 226.50 244.12 C 227.12 243.71 227.46 243.52 227.88 242.25 C 228.29 240.98 228.77 238.15 229.00 236.50 C 229.23 234.85 229.27 234.19 229.25 232.38 C 229.23 230.56 229.08 227.33 228.88 225.62 Z" id="s-3-f-9"/>
</g>
<g id="s-4" clip-path="url(#c-s-4)">
<use href="#s-4-f-0"/>
<path d="M 286.00 105.50 C 284.88 105.69 283.52 106.19 282.62 106.62 C 281.73 107.06 280.98 107.67 280.62 108.12 C 280.27 108.58 280.65 109.06 280.50 109.38 C 280.35 109.69 279.92 109.08 279.75 110.00 C 279.58 110.92 279.52 113.73 279.50 114.88 C 279.48 116.02 279.27 115.98 279.62 116.88 C 279.98 117.77 280.77 118.42 281.62 120.25 C 282.48 122.08 283.54 124.33 284.75 127.88 C 285.96 131.42 287.75 136.83 288.88 141.50 C 290.00 146.17 290.83 151.25 291.50 155.88 C 292.17 160.50 292.60 160.35 292.88 169.25 C 293.15 178.15 293.19 202.33 293.12 209.25 C 293.06 216.17 292.52 205.06 292.50 210.75 C 292.48 216.44 293.08 227.04 293.00 243.38 C 292.92 259.71 292.17 280.23 292.00 308.75 C 291.83 337.27 291.90 396.67 292.00 414.50 C 292.10 432.33 291.98 415.35 292.62 415.75 C 293.27 416.15 294.50 416.52 295.88 416.88 C 297.25 417.23 299.17 417.69 300.88 417.88 C 302.58 418.06 303.98 418.17 306.12 418.00 C 308.27 417.83 311.94 417.31 313.75 416.88 C 315.56 416.44 316.17 418.60 317.00 415.38 C 317.83 412.15 318.29 406.79 318.75 397.50 C 319.21 388.21 319.83 375.42 319.75 359.62 C 319.67 343.83 318.52 321.71 318.25 302.75 C 317.98 283.79 318.08 258.77 318.12 245.88 C 318.17 232.98 318.35 228.96 318.50 225.38 C 318.65 221.79 318.90 227.56 319.00 224.38 C 319.10 221.19 319.29 209.44 319.12 206.25 C 318.96 203.06 318.00 205.42 318.00 205.25 C 318.00 205.08 318.96 207.67 319.12 205.25 C 319.29 202.83 318.83 196.60 319.00 190.75 C 319.17 184.90 319.62 176.88 320.12 170.12 C 320.62 163.38 321.23 156.65 322.00 150.25 C 322.77 143.85 324.27 135.65 324.75 131.75 C 325.23 127.85 325.04 128.35 324.88 126.88 C 324.71 125.40 324.31 123.98 323.75 122.88 C 323.19 121.77 323.71 121.90 321.50 120.25 C 319.29 118.60 313.38 114.71 310.50 113.00 C 307.62 111.29 305.62 110.58 304.25 110.00 C 302.88 109.42 302.98 109.85 302.25 109.50 C 301.52 109.15 300.77 108.35 299.88 107.88 C 298.98 107.40 297.79 106.85 296.88 106.62 C 295.96 106.40 294.96 106.67 294.38 106.50 C 293.79 106.33 293.96 105.77 293.38 105.62 C 292.79 105.48 291.38 105.44 290.88 105.62 C 290.38 105.81 290.62 106.77 290.38 106.75 C 290.12 106.73 290.10 105.71 289.38 105.50 C 288.65 105.29 287.12 105.31 286.00 105.50 Z" id="s-4-f-1"/>
<path d="M 286.00 105.50 C 284.88 105.69 283.52 106.19 282.62 106.62 C 281.73 107.06 280.98 107.67 280.62 108.12 C 280.27 108.58 280.65 109.06 280.50 109.38 C 280.35 109.69 279.92 109.08 279.75 110.00 C 279.58 110.92 279.52 113.73 279.50 114.88 C 279.48 116.02 279.27 115.98 279.62 116.88 C 279.98 117.77 280.77 118.42 281.62 120.25 C 282.48 122.08 283.54 124.33 284.75 127.88 C 285.96 131.42 287.75 136.83 288.88 141.50 C 290.00 146.17 290.83 151.25 291.50 155.88 C 292.17 160.50 292.60 160.35 292.88 169.25 C 293.15 178.15 293.19 202.33 293.12 209.25 C 293.06 216.17 292.60 207.83 292.50 210.75 C 292.40 213.67 292.42 223.60 292.50 226.75 C 292.58 229.90 293.08 215.96 293.00 229.62 C 292.92 243.29 292.19 285.23 292.00 308.75 C 291.81 332.27 291.85 360.17 291.88 370.75 C 291.90 381.33 291.17 371.71 292.12 372.25 C 293.08 372.79 295.31 373.56 297.62 374.00 C 299.94 374.44 303.50 374.88 306.00 374.88 C 308.50 374.88 310.50 374.48 312.62 374.00 C 314.75 373.52 317.58 372.65 318.75 372.00 C 319.92 371.35 319.73 385.27 319.62 370.12 C 319.52 354.98 318.31 305.25 318.12 281.12 C 317.94 257.00 318.35 234.83 318.50 225.38 C 318.65 215.92 318.90 227.56 319.00 224.38 C 319.10 221.19 319.29 209.44 319.12 206.25 C 318.96 203.06 318.00 205.42 318.00 205.25 C 318.00 205.08 318.96 207.67 319.12 205.25 C 319.29 202.83 318.83 196.60 319.00 190.75 C 319.17 184.90 319.62 176.88 320.12 170.12 C 320.62 163.38 321.23 156.65 322.00 150.25 C 322.77 143.85 324.27 135.65 324.75 131.75 C 325.23 127.85 325.04 128.35 324.88 126.88 C 324.71 125.40 324.31 123.98 323.75 122.88 C 323.19 121.77 323.71 121.90 321.50 120.25 C 319.29 118.60 313.38 114.71 310.50 113.00 C 307.62 111.29 305.62 110.58 304.25 110.00 C 302.88 109.42 302.98 109.85 302.25 109.50 C 301.52 109.15 300.77 108.35 299.88 107.88 C 298.98 107.40 297.79 106.85 296.88 106.62 C 295.96 106.40 294.96 106.67 294.38 106.50 C 293.79 106.33 293.96 105.77 293.38 105.62 C 292.79 105.48 291.38 105.44 290.88 105.62 C 290.38 105.81 290.62 106.77 290.38 106.75 C 290.12 106.73 290.10 105.71 289.38 105.50 C 288.65 105.29 287.12 105.31 286.00 105.50 Z" id="s-4-f-2"/>
<path d="M 286.00 105.50 C 284.88 105.69 283.52 106.19 282.62 106.62 C 281.73 107.06 280.98 107.67 280.62 108.12 C 280.27 108.58 280.65 109.06 280.50 109.38 C 280.35 109.69 279.92 109.08 279.75 110.00 C 279.58 110.92 279.52 113.73 279.50 114.88 C 279.48 116.02 279.27 115.98 279.62 116.88 C 279.98 117.77 280.77 118.42 281.62 120.25 C 282.48 122.08 283.54 124.33 284.75 127.88 C 285.96 131.42 287.75 136.83 288.88 141.50 C 290.00 146.17 290.83 151.25 291.50 155.88 C 292.17 160.50 292.60 160.35 292.88 169.25 C 293.15 178.15 293.19 202.33 293.12 209.25 C 293.06 216.17 292.60 207.83 292.50 210.75 C 292.40 213.67 292.42 223.60 292.50 226.75 C 292.58 229.90 293.08 213.69 293.00 229.62 C 292.92 245.56 292.04 306.69 292.00 322.38 C 291.96 338.06 292.04 323.33 292.75 323.75 C 293.46 324.17 294.73 324.52 296.25 324.88 C 297.77 325.23 300.08 325.69 301.88 325.88 C 303.67 326.06 304.88 326.17 307.00 326.00 C 309.12 325.83 312.81 325.25 314.62 324.88 C 316.44 324.50 317.23 324.12 317.88 323.75 C 318.52 323.38 318.44 338.15 318.50 322.62 C 318.56 307.10 318.25 246.83 318.25 230.62 C 318.25 214.42 318.38 226.42 318.50 225.38 C 318.62 224.33 318.90 227.56 319.00 224.38 C 319.10 221.19 319.29 209.44 319.12 206.25 C 318.96 203.06 318.00 205.42 318.00 205.25 C 318.00 205.08 318.96 207.67 319.12 205.25 C 319.29 202.83 318.83 196.60 319.00 190.75 C 319.17 184.90 319.62 176.88 320.12 170.12 C 320.62 163.38 321.23 156.65 322.00 150.25 C 322.77 143.85 324.27 135.65 324.75 131.75 C 325.23 127.85 325.04 128.35 324.88 126.88 C 324.71 125.40 324.31 123.98 323.75 122.88 C 323.19 121.77 323.71 121.90 321.50 120.25 C 319.29 118.60 313.38 114.71 310.50 113.00 C 307.62 111.29 305.62 110.58 304.25 110.00 C 302.88 109.42 302.98 109.85 302.25 109.50 C 301.52 109.15 300.77 108.35 299.88 107.88 C 298.98 107.40 297.79 106.85 296.88 106.62 C 295.96 106.40 294.96 106.67 294.38 106.50 C 293.79 106.33 293.96 105.77 293.38 105.62 C 292.79 105.48 291.38 105.44 290.88 105.62 C 290.38 105.81 290.62 106.77 290.38 106.75 C 290.12 106.73 290.10 105.71 289.38 105.50 C 288.65 105.29 287.12 105.31 286.00 105.50 Z" id="s-4-f-3"/>
<path d="M 284.75 105.62 C 283.29 106.06 281.33 107.50 280.62 108.12 C 279.92 108.75 280.65 109.06 280.50 109.38 C 280.35 109.69 279.92 109.08 279.75 110.00 C 279.58 110.92 279.52 113.73 279.50 114.88 C 279.48 116.02 279.27 115.98 279.62 116.88 C 279.98 117.77 280.77 118.42 281.62 120.25 C 282.48 122.08 283.54 124.33 284.75 127.88 C 285.96 131.42 287.75 136.83 288.88 141.50 C 290.00 146.17 290.83 151.25 291.50 155.88 C 292.17 160.50 292.60 160.35 292.88 169.25 C 293.15 178.15 293.19 202.33 293.12 209.25 C 293.06 216.17 292.60 207.83 292.50 210.75 C 292.40 213.67 292.42 223.60 292.50 226.75 C 292.58 229.90 292.96 221.85 293.00 229.62 C 293.04 237.40 292.33 265.83 292.75 273.38 C 293.17 280.92 294.35 274.44 295.50 274.88 C 296.65 275.31 296.94 275.81 299.62 276.00 C 302.31 276.19 308.92 276.19 311.62 276.00 C 314.33 275.81 314.88 275.21 315.88 274.88 C 316.88 274.54 317.25 274.27 317.62 274.00 C 318.00 273.73 317.98 281.35 318.12 273.25 C 318.27 265.15 318.35 233.52 318.50 225.38 C 318.65 217.23 318.90 227.56 319.00 224.38 C 319.10 221.19 319.29 209.44 319.12 206.25 C 318.96 203.06 318.00 205.42 318.00 205.25 C 318.00 205.08 318.96 207.67 319.12 205.25 C 319.29 202.83 318.83 196.60 319.00 190.75 C 319.17 184.90 319.62 176.88 320.12 170.12 C 320.62 163.38 321.23 156.65 322.00 150.25 C 322.77 143.85 324.29 135.85 324.75 131.75 C 325.21 127.65 324.92 127.10 324.75 125.62 C 324.58 124.15 324.29 123.77 323.75 122.88 C 323.21 121.98 323.71 121.90 321.50 120.25 C 319.29 118.60 313.38 114.71 310.50 113.00 C 307.62 111.29 305.62 110.58 304.25 110.00 C 302.88 109.42 302.98 109.85 302.25 109.50 C 301.52 109.15 300.77 108.35 299.88 107.88 C 298.98 107.40 297.79 106.85 296.88 106.62 C 295.96 106.40 294.96 106.67 294.38 106.50 C 293.79 106.33 293.96 105.77 293.38 105.62 C 292.79 105.48 291.33 105.44 290.88 105.62 C 290.42 105.81 290.88 106.77 290.62 106.75 C 290.38 106.73 290.35 105.69 289.38 105.50 C 288.40 105.31 286.21 105.19 284.75 105.62 Z" id="s-4-f-4"/>
<path d="M 284.75 105.62 C 283.38 105.98 281.85 106.96 281.12 107.62 C 280.40 108.29 280.60 109.23 280.38 109.62 C 280.15 110.02 279.88 108.79 279.75 110.00 C 279.62 111.21 279.17 114.83 279.62 116.88 C 280.08 118.92 281.31 119.42 282.50 122.25 C 283.69 125.08 285.54 129.98 286.75 133.88 C 287.96 137.77 288.92 141.62 289.75 145.62 C 290.58 149.62 291.23 153.94 291.75 157.88 C 292.27 161.81 292.65 165.38 292.88 169.25 C 293.10 173.12 293.17 171.27 293.12 181.12 C 293.08 190.98 292.12 220.25 292.62 228.38 C 293.12 236.50 294.60 229.48 296.12 229.88 C 297.65 230.27 299.00 230.58 301.75 230.75 C 304.50 230.92 309.98 231.15 312.62 230.88 C 315.27 230.60 316.56 230.21 317.62 229.12 C 318.69 228.04 318.75 228.19 319.00 224.38 C 319.25 220.56 319.29 209.44 319.12 206.25 C 318.96 203.06 318.00 205.42 318.00 205.25 C 318.00 205.08 318.96 207.67 319.12 205.25 C 319.29 202.83 318.83 196.60 319.00 190.75 C 319.17 184.90 319.62 176.88 320.12 170.12 C 320.62 163.38 321.23 156.65 322.00 150.25 C 322.77 143.85 324.29 135.85 324.75 131.75 C 325.21 127.65 324.92 127.10 324.75 125.62 C 324.58 124.15 324.29 123.77 323.75 122.88 C 323.21 121.98 323.71 121.90 321.50 120.25 C 319.29 118.60 313.38 114.71 310.50 113.00 C 307.62 111.29 305.62 110.58 304.25 110.00 C 302.88 109.42 302.98 109.85 302.25 109.50 C 301.52 109.15 300.77 108.35 299.88 107.88 C 298.98 107.40 297.79 106.85 296.88 106.62 C 295.96 106.40 294.96 106.67 294.38 106.50 C 293.79 106.33 293.96 105.77 293.38 105.62 C 292.79 105.48 291.33 105.44 290.88 105.62 C 290.42 105.81 290.88 106.77 290.62 106.75 C 290.38 106.73 290.35 105.69 289.38 105.50 C 288.40 105.31 286.12 105.27 284.75 105.62 Z" id="s-4-f-5"/>
<path d="M 284.75 105.62 C 283.38 105.98 281.85 106.96 281.12 107.62 C 280.40 108.29 280.60 109.23 280.38 109.62 C 280.15 110.02 279.88 108.79 279.75 110.00 C 279.62 111.21 279.31 115.17 279.62 116.88 C 279.94 118.58 280.60 117.94 281.62 120.25 C 282.65 122.56 284.54 127.21 285.75 130.75 C 286.96 134.29 288.04 138.12 288.88 141.50 C 289.71 144.88 290.08 146.38 290.75 151.00 C 291.42 155.62 292.44 162.60 292.88 169.25 C 293.31 175.90 293.15 187.10 293.38 190.88 C 293.60 194.65 293.62 191.54 294.25 191.88 C 294.88 192.21 295.40 192.52 297.12 192.88 C 298.85 193.23 302.62 193.83 304.62 194.00 C 306.62 194.17 307.29 194.06 309.12 193.88 C 310.96 193.69 314.10 193.19 315.62 192.88 C 317.15 192.56 317.69 192.38 318.25 192.00 C 318.81 191.62 318.69 194.27 319.00 190.62 C 319.31 186.98 319.65 176.67 320.12 170.12 C 320.60 163.58 321.08 157.98 321.88 151.38 C 322.67 144.77 324.42 134.88 324.88 130.50 C 325.33 126.12 324.81 126.40 324.62 125.12 C 324.44 123.85 324.56 123.92 323.75 122.88 C 322.94 121.83 322.58 120.83 319.75 118.88 C 316.92 116.92 309.67 112.69 306.75 111.12 C 303.83 109.56 303.40 110.04 302.25 109.50 C 301.10 108.96 300.77 108.35 299.88 107.88 C 298.98 107.40 297.79 106.85 296.88 106.62 C 295.96 106.40 294.96 106.67 294.38 106.50 C 293.79 106.33 293.96 105.77 293.38 105.62 C 292.79 105.48 291.33 105.44 290.88 105.62 C 290.42 105.81 290.88 106.77 290.62 106.75 C 290.38 106.73 290.35 105.69 289.38 105.50 C 288.40 105.31 286.12 105.27 284.75 105.62 Z" id="s-4-f-6"/>
<path d="M 282.62 106.62 C 281.94 107.04 280.98 107.67 280.62 108.12 C 280.27 108.58 280.65 109.06 280.50 109.38 C 280.35 109.69 279.90 108.75 279.75 110.00 C 279.60 111.25 279.31 115.17 279.62 116.88 C 279.94 118.58 280.77 118.42 281.62 120.25 C 282.48 122.08 283.56 124.42 284.75 127.88 C 285.94 131.33 287.75 137.15 288.75 141.00 C 289.75 144.85 290.12 146.98 290.75 151.00 C 291.38 155.02 292.06 162.62 292.50 165.12 C 292.94 167.62 291.83 165.56 293.38 166.00 C 294.92 166.44 299.67 167.44 301.75 167.75 C 303.83 168.06 303.98 168.02 305.88 167.88 C 307.77 167.73 310.88 167.40 313.12 166.88 C 315.38 166.35 318.12 165.27 319.38 164.75 C 320.62 164.23 320.19 166.17 320.62 163.75 C 321.06 161.33 321.31 155.58 322.00 150.25 C 322.69 144.92 324.29 135.85 324.75 131.75 C 325.21 127.65 324.92 127.10 324.75 125.62 C 324.58 124.15 324.29 123.77 323.75 122.88 C 323.21 121.98 322.88 121.40 321.50 120.25 C 320.12 119.10 317.33 117.21 315.50 116.00 C 313.67 114.79 312.38 114.00 310.50 113.00 C 308.62 112.00 305.62 110.58 304.25 110.00 C 302.88 109.42 302.98 109.85 302.25 109.50 C 301.52 109.15 300.77 108.35 299.88 107.88 C 298.98 107.40 297.79 106.85 296.88 106.62 C 295.96 106.40 294.96 106.67 294.38 106.50 C 293.79 106.33 293.96 105.77 293.38 105.62 C 292.79 105.48 291.38 105.44 290.88 105.62 C 290.38 105.81 290.62 106.77 290.38 106.75 C 290.12 106.73 290.31 105.69 289.38 105.50 C 288.44 105.31 285.88 105.44 284.75 105.62 C 283.62 105.81 283.31 106.21 282.62 106.62 Z" id="s-4-f-7"/>
<path d="M 284.75 105.62 C 283.38 105.98 281.85 106.96 281.12 107.62 C 280.40 108.29 280.60 109.23 280.38 109.62 C 280.15 110.02 279.88 108.79 279.75 110.00 C 279.62 111.21 279.17 114.83 279.62 116.88 C 280.08 118.92 281.31 119.42 282.50 122.25 C 283.69 125.08 285.54 129.98 286.75 133.88 C 287.96 137.77 288.90 141.46 289.75 145.62 C 290.60 149.79 291.42 156.52 291.88 158.88 C 292.33 161.23 291.46 159.73 292.50 159.75 C 293.54 159.77 296.00 159.48 298.12 159.00 C 300.25 158.52 302.88 157.88 305.25 156.88 C 307.62 155.88 310.31 154.35 312.38 153.00 C 314.44 151.65 315.92 150.56 317.62 148.75 C 319.33 146.94 321.62 143.65 322.62 142.12 C 323.62 140.60 323.25 141.56 323.62 139.62 C 324.00 137.69 324.69 132.83 324.88 130.50 C 325.06 128.17 324.94 126.90 324.75 125.62 C 324.56 124.35 324.29 123.77 323.75 122.88 C 323.21 121.98 322.88 121.40 321.50 120.25 C 320.12 119.10 317.96 117.52 315.50 116.00 C 313.04 114.48 309.29 112.38 306.75 111.12 C 304.21 109.88 301.44 109.06 300.25 108.50 C 299.06 107.94 300.02 107.94 299.62 107.75 C 299.23 107.56 298.33 107.56 297.88 107.38 C 297.42 107.19 297.46 106.77 296.88 106.62 C 296.29 106.48 294.96 106.67 294.38 106.50 C 293.79 106.33 293.96 105.77 293.38 105.62 C 292.79 105.48 291.33 105.44 290.88 105.62 C 290.42 105.81 290.88 106.77 290.62 106.75 C 290.38 106.73 290.35 105.69 289.38 105.50 C 288.40 105.31 286.12 105.27 284.75 105.62 Z" id="s-4-f-8"/>
<path d="M 284.75 105.62 C 283.38 105.98 281.85 106.96 281.12 107.62 C 280.40 108.29 280.60 109.23 280.38 109.62 C 280.15 110.02 279.88 108.79 279.75 110.00 C 279.62 111.21 279.31 115.17 279.62 116.88 C 279.94 118.58 280.60 117.94 281.62 120.25 C 282.65 122.56 284.54 127.21 285.75 130.75 C 286.96 134.29 287.96 137.42 288.88 141.50 C 289.79 145.58 290.60 152.75 291.25 155.25 C 291.90 157.75 291.42 156.56 292.75 156.50 C 294.08 156.44 297.21 155.62 299.25 154.88 C 301.29 154.12 302.71 153.56 305.00 152.00 C 307.29 150.44 311.02 147.35 313.00 145.50 C 314.98 143.65 315.73 142.56 316.88 140.88 C 318.02 139.19 319.04 137.25 319.88 135.38 C 320.71 133.50 321.40 131.79 321.88 129.62 C 322.35 127.46 322.77 123.90 322.75 122.38 C 322.73 120.85 322.96 121.56 321.75 120.50 C 320.54 119.44 318.00 117.56 315.50 116.00 C 313.00 114.44 309.29 112.38 306.75 111.12 C 304.21 109.88 301.44 109.06 300.25 108.50 C 299.06 107.94 300.02 107.94 299.62 107.75 C 299.23 107.56 298.33 107.56 297.88 107.38 C 297.42 107.19 297.46 106.77 296.88 106.62 C 296.29 106.48 294.96 106.67 294.38 106.50 C 293.79 106.33 293.96 105.77 293.38 105.62 C 292.79 105.48 291.33 105.44 290.88 105.62 C 290.42 105.81 290.88 106.77 290.62 106.75 C 290.38 106.73 290.35 105.69 289.38 105.50 C 288.40 105.31 286.12 105.27 284.75 105.62 Z" id="s-4-f-9"/>
</g>
</svg>