<?xml version="1.0" encoding="UTF-8"?>
<svg xmlns="http://www.w3.org/2000/svg" viewBox="0 0 500 500">
<defs>
<path d="M 94.75 78.00 C 93.54 78.17 93.98 78.73 93.88 79.25 C 93.77 79.77 93.52 79.98 94.12 81.12 C 94.73 82.27 95.69 82.73 97.50 86.12 C 99.31 89.52 102.75 97.12 105.00 101.50 C 107.25 105.88 108.50 108.31 111.00 112.38 C 113.50 116.44 117.73 122.77 120.00 125.88 C 122.27 128.98 123.23 129.73 124.62 131.00 C 126.02 132.27 126.88 133.04 128.38 133.50 C 129.88 133.96 132.17 134.00 133.62 133.75 C 135.08 133.50 136.12 132.83 137.12 132.00 C 138.12 131.17 139.02 129.90 139.62 128.75 C 140.23 127.60 140.58 127.71 140.75 125.12 C 140.92 122.54 140.81 116.12 140.62 113.25 C 140.44 110.38 140.12 109.75 139.62 107.88 C 139.12 106.00 138.58 104.00 137.62 102.00 C 136.67 100.00 135.42 97.73 133.88 95.88 C 132.33 94.02 130.29 92.35 128.38 90.88 C 126.46 89.40 124.40 88.15 122.38 87.00 C 120.35 85.85 119.79 85.46 116.25 84.00 C 112.71 82.54 104.71 79.25 101.12 78.25 C 97.54 77.25 95.96 77.83 94.75 78.00 Z" id="s-0-f-0"/>
<clipPath id="c-s-0"><use href="#s-0-f-0"/></clipPath>
<path d="M 247.62 71.00 C 246.65 69.56 246.25 68.88 243.88 66.88 C 241.50 64.88 236.12 60.79 233.38 59.00 C 230.62 57.21 229.08 56.58 227.38 56.12 C 225.67 55.67 224.21 55.85 223.12 56.25 C 222.04 56.65 222.60 55.52 220.88 58.50 C 219.15 61.48 215.62 69.17 212.75 74.12 C 209.88 79.08 206.31 84.52 203.62 88.25 C 200.94 91.98 199.77 93.23 196.62 96.50 C 193.48 99.77 187.06 104.40 184.75 107.88 C 182.44 111.35 182.94 115.73 182.75 117.38 C 182.56 119.02 181.88 118.52 183.62 117.75 C 185.38 116.98 188.73 115.38 193.25 112.75 C 197.77 110.12 204.98 105.27 210.75 102.00 C 216.52 98.73 222.69 95.54 227.88 93.12 C 233.06 90.71 238.92 88.77 241.88 87.50 C 244.83 86.23 244.54 86.27 245.62 85.50 C 246.71 84.73 247.69 83.75 248.38 82.88 C 249.06 82.00 249.52 81.48 249.75 80.25 C 249.98 79.02 250.10 77.04 249.75 75.50 C 249.40 73.96 248.60 72.44 247.62 71.00 Z" id="s-1-f-0"/>
<clipPath id="c-s-1"><use href="#s-1-f-0"/></clipPath>
<path d="M 180.88 38.25 C 178.15 37.10 172.42 35.00 169.50 34.12 C 166.58 33.25 165.83 33.15 163.38 33.00 C 160.92 32.85 156.48 33.06 154.75 33.25 C 153.02 33.44 153.62 33.52 153.00 34.12 C 152.38 34.73 151.31 36.00 151.00 36.88 C 150.69 37.75 150.38 38.17 151.12 39.38 C 151.88 40.58 154.27 42.12 155.50 44.12 C 156.73 46.12 157.79 49.10 158.50 51.38 C 159.21 53.65 159.38 54.69 159.75 57.75 C 160.12 60.81 160.58 63.12 160.75 69.75 C 160.92 76.38 160.90 90.54 160.75 97.50 C 160.60 104.46 160.44 106.50 159.88 111.50 C 159.31 116.50 158.42 122.48 157.38 127.50 C 156.33 132.52 154.75 137.88 153.62 141.62 C 152.50 145.38 151.77 147.23 150.62 150.00 C 149.48 152.77 148.06 155.73 146.75 158.25 C 145.44 160.77 144.27 162.81 142.75 165.12 C 141.23 167.44 140.90 168.54 137.62 172.12 C 134.35 175.71 128.40 181.83 123.12 186.62 C 117.85 191.42 108.85 198.31 106.00 200.88 C 103.15 203.44 105.88 201.69 106.00 202.00 C 106.12 202.31 106.06 202.62 106.75 202.75 C 107.44 202.88 108.92 202.92 110.12 202.75 C 111.33 202.58 110.44 203.08 114.00 201.75 C 117.56 200.42 127.17 196.75 131.50 194.75 C 135.83 192.75 137.25 191.52 140.00 189.75 C 142.75 187.98 145.54 186.00 148.00 184.12 C 150.46 182.25 151.92 181.35 154.75 178.50 C 157.58 175.65 162.33 170.38 165.00 167.00 C 167.67 163.62 169.15 160.94 170.75 158.25 C 172.35 155.56 173.46 153.31 174.62 150.88 C 175.79 148.44 177.17 145.23 177.75 143.62 C 178.33 142.02 177.60 143.00 178.12 141.25 C 178.65 139.50 180.08 136.94 180.88 133.12 C 181.67 129.31 182.33 121.21 182.88 118.38 C 183.42 115.54 183.88 117.12 184.12 116.12 C 184.38 115.12 184.21 113.31 184.38 112.38 C 184.54 111.44 185.02 113.06 185.12 110.50 C 185.23 107.94 184.85 103.73 185.00 97.00 C 185.15 90.27 185.50 76.19 186.00 70.12 C 186.50 64.06 187.33 63.21 188.00 60.62 C 188.67 58.04 189.38 56.17 190.00 54.62 C 190.62 53.08 191.46 52.48 191.75 51.38 C 192.04 50.27 192.08 49.15 191.75 48.00 C 191.42 46.85 190.73 45.67 189.75 44.50 C 188.77 43.33 187.35 42.04 185.88 41.00 C 184.40 39.96 183.60 39.40 180.88 38.25 Z" id="s-2-f-0"/>
<clipPath id="c-s-2"><use href="#s-2-f-0"/></clipPath>
<path d="M 180.50 132.00 C 180.12 132.25 179.81 132.85 179.62 133.50 C 179.44 134.15 179.54 135.31 179.38 135.88 C 179.21 136.44 178.75 136.46 178.62 136.88 C 178.50 137.29 178.79 137.71 178.62 138.38 C 178.46 139.04 177.77 140.23 177.62 140.88 C 177.48 141.52 176.65 140.90 177.75 142.25 C 178.85 143.60 181.60 146.00 184.25 149.00 C 186.90 152.00 190.73 156.58 193.62 160.25 C 196.52 163.92 199.17 168.04 201.62 171.00 C 204.08 173.96 206.15 176.06 208.38 178.00 C 210.60 179.94 213.23 181.83 215.00 182.62 C 216.77 183.42 217.81 183.04 219.00 182.75 C 220.19 182.46 221.38 181.50 222.12 180.88 C 222.88 180.25 222.90 180.12 223.50 179.00 C 224.10 177.88 225.19 175.81 225.75 174.12 C 226.31 172.44 226.71 170.60 226.88 168.88 C 227.04 167.15 226.94 165.21 226.75 163.75 C 226.56 162.29 226.27 161.46 225.75 160.12 C 225.23 158.79 224.83 157.42 223.62 155.75 C 222.42 154.08 220.85 152.08 218.50 150.12 C 216.15 148.17 213.90 146.35 209.50 144.00 C 205.10 141.65 196.73 138.00 192.12 136.00 C 187.52 134.00 183.81 132.67 181.88 132.00 C 179.94 131.33 180.88 131.75 180.50 132.00 Z" id="s-3-f-0"/>
<clipPath id="c-s-3"><use href="#s-3-f-0"/></clipPath>
<path d="M 231.75 97.00 C 230.71 97.10 231.15 97.33 231.00 97.75 C 230.85 98.17 230.73 98.58 230.88 99.50 C 231.02 100.42 230.71 100.62 231.88 103.25 C 233.04 105.88 235.29 110.69 237.88 115.25 C 240.46 119.81 245.10 127.21 247.38 130.62 C 249.65 134.04 250.31 134.40 251.50 135.75 C 252.69 137.10 253.69 138.08 254.50 138.75 C 255.31 139.42 255.29 139.60 256.38 139.75 C 257.46 139.90 259.75 139.92 261.00 139.62 C 262.25 139.33 263.08 138.60 263.88 138.00 C 264.67 137.40 265.27 136.65 265.75 136.00 C 266.23 135.35 266.40 135.42 266.75 134.12 C 267.10 132.83 267.73 130.56 267.88 128.25 C 268.02 125.94 267.83 122.23 267.62 120.25 C 267.42 118.27 267.25 117.90 266.62 116.38 C 266.00 114.85 264.75 112.46 263.88 111.12 C 263.00 109.79 262.33 109.23 261.38 108.38 C 260.42 107.52 260.19 107.19 258.12 106.00 C 256.06 104.81 251.40 102.42 249.00 101.25 C 246.60 100.08 245.71 99.69 243.75 99.00 C 241.79 98.31 239.25 97.46 237.25 97.12 C 235.25 96.79 232.79 96.90 231.75 97.00 Z" id="s-4-f-0"/>
<clipPath id="c-s-4"><use href="#s-4-f-0"/></clipPath>
<path d="M 391.75 67.00 C 390.65 65.46 389.21 62.98 386.12 60.12 C 383.04 57.27 375.88 51.90 373.25 49.88 C 370.62 47.85 371.65 48.65 370.38 48.00 C 369.10 47.35 367.12 46.29 365.62 46.00 C 364.12 45.71 362.42 45.98 361.38 46.25 C 360.33 46.52 360.08 46.96 359.38 47.62 C 358.67 48.29 358.56 48.02 357.12 50.25 C 355.69 52.48 353.60 56.73 350.75 61.00 C 347.90 65.27 343.69 71.33 340.00 75.88 C 336.31 80.42 332.48 84.58 328.62 88.25 C 324.77 91.92 319.02 94.69 316.88 97.88 C 314.73 101.06 315.73 105.73 315.75 107.38 C 315.77 109.02 315.38 108.19 317.00 107.75 C 318.62 107.31 320.04 107.17 325.50 104.75 C 330.96 102.33 341.83 96.69 349.75 93.25 C 357.67 89.81 366.83 86.40 373.00 84.12 C 379.17 81.85 383.92 80.73 386.75 79.62 C 389.58 78.52 389.02 78.38 390.00 77.50 C 390.98 76.62 392.17 75.73 392.62 74.38 C 393.08 73.02 392.90 70.60 392.75 69.38 C 392.60 68.15 392.85 68.54 391.75 67.00 Z" id="s-5-f-0"/>
<clipPath id="c-s-5"><use href="#s-5-f-0"/></clipPath>
<path d="M 315.25 29.88 C 312.40 28.71 306.15 26.27 302.25 25.12 C 298.35 23.98 294.98 23.33 291.88 23.00 C 288.77 22.67 285.35 22.90 283.62 23.12 C 281.90 23.35 282.08 23.85 281.50 24.38 C 280.92 24.90 280.35 25.42 280.12 26.25 C 279.90 27.08 279.29 27.83 280.12 29.38 C 280.96 30.92 284.00 34.00 285.12 35.50 C 286.25 37.00 286.10 35.62 286.88 38.38 C 287.65 41.12 289.12 48.50 289.75 52.00 C 290.38 55.50 290.46 52.90 290.62 59.38 C 290.79 65.85 290.79 84.44 290.75 90.88 C 290.71 97.31 290.71 94.56 290.38 98.00 C 290.04 101.44 289.52 107.12 288.75 111.50 C 287.98 115.88 286.94 120.08 285.75 124.25 C 284.56 128.42 282.96 132.96 281.62 136.50 C 280.29 140.04 279.06 142.81 277.75 145.50 C 276.44 148.19 275.25 150.21 273.75 152.62 C 272.25 155.04 270.31 157.90 268.75 160.00 C 267.19 162.10 266.17 163.33 264.38 165.25 C 262.58 167.17 260.44 169.29 258.00 171.50 C 255.56 173.71 253.23 175.77 249.75 178.50 C 246.27 181.23 240.75 185.31 237.12 187.88 C 233.50 190.44 229.69 192.71 228.00 193.88 C 226.31 195.04 227.17 194.52 227.00 194.88 C 226.83 195.23 226.88 195.69 227.00 196.00 C 227.12 196.31 226.98 196.62 227.75 196.75 C 228.52 196.88 230.17 196.94 231.62 196.75 C 233.08 196.56 232.75 196.79 236.50 195.62 C 240.25 194.46 249.46 191.56 254.12 189.75 C 258.79 187.94 261.02 186.60 264.50 184.75 C 267.98 182.90 271.75 180.71 275.00 178.62 C 278.25 176.54 281.31 174.42 284.00 172.25 C 286.69 170.08 289.00 167.79 291.12 165.62 C 293.25 163.46 295.12 161.29 296.75 159.25 C 298.38 157.21 299.52 155.54 300.88 153.38 C 302.23 151.21 303.42 149.25 304.88 146.25 C 306.33 143.25 308.77 137.60 309.62 135.38 C 310.48 133.15 309.33 134.90 310.00 132.88 C 310.67 130.85 312.85 125.65 313.62 123.25 C 314.40 120.85 314.23 121.21 314.62 118.50 C 315.02 115.79 315.58 109.58 316.00 107.00 C 316.42 104.42 316.92 104.65 317.12 103.00 C 317.33 101.35 317.12 98.50 317.25 97.12 C 317.38 95.75 317.58 100.60 317.88 94.75 C 318.17 88.90 318.48 68.83 319.00 62.00 C 319.52 55.17 319.92 56.71 321.00 53.75 C 322.08 50.79 324.69 46.15 325.50 44.25 C 326.31 42.35 325.83 43.15 325.88 42.38 C 325.92 41.60 326.00 40.56 325.75 39.62 C 325.50 38.69 325.44 38.00 324.38 36.75 C 323.31 35.50 320.90 33.27 319.38 32.12 C 317.85 30.98 318.10 31.04 315.25 29.88 Z" id="s-6-f-0"/>
<clipPath id="c-s-6"><use href="#s-6-f-0"/></clipPath>
<path d="M 312.75 122.38 C 312.62 122.77 312.81 123.92 312.62 124.50 C 312.44 125.08 312.02 124.81 311.62 125.88 C 311.23 126.94 310.58 129.94 310.25 130.88 C 309.92 131.81 309.71 131.12 309.62 131.50 C 309.54 131.88 308.27 131.56 309.75 133.12 C 311.23 134.69 315.38 137.83 318.50 140.88 C 321.62 143.92 324.52 146.85 328.50 151.38 C 332.48 155.90 338.98 164.06 342.38 168.00 C 345.77 171.94 346.90 173.02 348.88 175.00 C 350.85 176.98 352.65 178.56 354.25 179.88 C 355.85 181.19 356.58 181.75 358.50 182.88 C 360.42 184.00 363.83 186.00 365.75 186.62 C 367.67 187.25 368.73 187.04 370.00 186.62 C 371.27 186.21 372.56 184.90 373.38 184.12 C 374.19 183.35 374.31 183.50 374.88 182.00 C 375.44 180.50 376.44 177.73 376.75 175.12 C 377.06 172.52 376.94 168.69 376.75 166.38 C 376.56 164.06 376.15 162.88 375.62 161.25 C 375.10 159.62 374.31 157.98 373.62 156.62 C 372.94 155.27 372.54 154.46 371.50 153.12 C 370.46 151.79 368.56 149.81 367.38 148.62 C 366.19 147.44 366.35 147.46 364.38 146.00 C 362.40 144.54 358.46 141.71 355.50 139.88 C 352.54 138.04 350.92 136.98 346.62 135.00 C 342.33 133.02 335.29 130.15 329.75 128.00 C 324.21 125.85 316.21 123.06 313.38 122.12 C 310.54 121.19 312.88 121.98 312.75 122.38 Z" id="s-7-f-0"/>
<clipPath id="c-s-7"><use href="#s-7-f-0"/></clipPath>
<path d="M 89.25 199.00 C 88.08 198.23 87.48 198.65 86.75 199.00 C 86.02 199.35 85.38 200.06 84.88 201.12 C 84.38 202.19 84.96 201.85 83.75 205.38 C 82.54 208.90 79.50 217.33 77.62 222.25 C 75.75 227.17 74.31 230.75 72.50 234.88 C 70.69 239.00 68.69 243.40 66.75 247.00 C 64.81 250.60 62.15 254.04 60.88 256.50 C 59.60 258.96 59.44 259.42 59.12 261.75 C 58.81 264.08 58.85 268.48 59.00 270.50 C 59.15 272.52 59.21 272.40 60.00 273.88 C 60.79 275.35 62.69 278.06 63.75 279.38 C 64.81 280.69 65.54 281.19 66.38 281.75 C 67.21 282.31 67.65 282.58 68.75 282.75 C 69.85 282.92 71.67 283.06 73.00 282.75 C 74.33 282.44 75.10 282.29 76.75 280.88 C 78.40 279.46 81.21 276.42 82.88 274.25 C 84.54 272.08 85.46 270.29 86.75 267.88 C 88.04 265.46 89.12 263.19 90.62 259.75 C 92.12 256.31 94.42 250.92 95.75 247.25 C 97.08 243.58 97.92 240.90 98.62 237.75 C 99.33 234.60 100.31 233.12 100.00 228.38 C 99.69 223.62 97.79 213.38 96.75 209.25 C 95.71 205.12 95.00 205.33 93.75 203.62 C 92.50 201.92 90.42 199.77 89.25 199.00 Z" id="s-8-f-0"/>
<clipPath id="c-s-8"><use href="#s-8-f-0"/></clipPath>
<path d="M 439.88 228.62 C 440.02 227.71 440.08 226.90 439.75 225.75 C 439.42 224.60 438.85 223.29 437.88 221.75 C 436.90 220.21 435.38 218.23 433.88 216.50 C 432.38 214.77 432.98 214.96 428.88 211.38 C 424.77 207.79 413.83 198.56 409.25 195.00 C 404.67 191.44 403.31 191.02 401.38 190.00 C 399.44 188.98 399.33 189.02 397.62 188.88 C 395.92 188.73 396.17 188.50 391.12 189.12 C 386.08 189.75 382.35 190.85 367.38 192.62 C 352.40 194.40 323.71 197.56 301.25 199.75 C 278.79 201.94 254.15 204.10 232.62 205.75 C 211.10 207.40 187.08 208.77 172.12 209.62 C 157.17 210.48 154.67 210.50 142.88 210.88 C 131.08 211.25 109.10 211.60 101.38 211.88 C 93.65 212.15 97.12 211.00 96.50 212.50 C 95.88 214.00 97.31 219.15 97.62 220.88 C 97.94 222.60 98.21 221.88 98.38 222.88 C 98.54 223.88 98.38 225.69 98.62 226.88 C 98.88 228.06 98.54 229.02 99.88 230.00 C 101.21 230.98 104.54 232.12 106.62 232.75 C 108.71 233.38 110.12 233.56 112.38 233.75 C 114.62 233.94 116.08 234.04 120.12 233.88 C 124.17 233.71 128.08 233.73 136.62 232.75 C 145.17 231.77 155.60 229.98 171.38 228.00 C 187.15 226.02 211.25 223.04 231.25 220.88 C 251.25 218.71 271.44 216.67 291.38 215.00 C 311.31 213.33 336.25 211.71 350.88 210.88 C 365.50 210.04 373.42 209.94 379.12 210.00 C 384.83 210.06 383.88 210.75 385.12 211.25 C 386.38 211.75 386.35 212.50 386.62 213.00 C 386.90 213.50 387.25 213.17 386.75 214.25 C 386.25 215.33 385.75 216.85 383.62 219.50 C 381.50 222.15 378.58 225.48 374.00 230.12 C 369.42 234.77 359.12 244.33 356.12 247.38 C 353.12 250.42 355.92 248.12 356.00 248.38 C 356.08 248.62 356.04 248.81 356.62 248.88 C 357.21 248.94 355.83 249.54 359.50 248.75 C 363.17 247.96 371.90 245.58 378.62 244.12 C 385.35 242.67 391.08 241.42 399.88 240.00 C 408.67 238.58 425.67 236.50 431.38 235.62 C 437.08 234.75 433.19 235.17 434.12 234.75 C 435.06 234.33 436.21 233.71 437.00 233.12 C 437.79 232.54 438.40 232.00 438.88 231.25 C 439.35 230.50 439.73 229.54 439.88 228.62 Z" id="s-9-f-0"/>
<clipPath id="c-s-9"><use href="#s-9-f-0"/></clipPath>
<path d="M 232.88 299.25 C 232.65 298.52 232.02 297.62 231.25 296.75 C 230.48 295.88 230.54 295.62 228.25 294.00 C 225.96 292.38 221.52 288.81 217.50 287.00 C 213.48 285.19 207.31 283.79 204.12 283.12 C 200.94 282.46 201.48 282.56 198.38 283.00 C 195.27 283.44 188.44 285.29 185.50 285.75 C 182.56 286.21 184.88 284.94 180.75 285.75 C 176.62 286.56 176.44 287.92 160.75 290.62 C 145.06 293.33 99.90 299.75 86.62 302.00 C 73.35 304.25 82.25 303.38 81.12 304.12 C 80.00 304.88 79.94 305.81 79.88 306.50 C 79.81 307.19 80.10 307.52 80.75 308.25 C 81.40 308.98 81.27 309.46 83.75 310.88 C 86.23 312.29 92.73 315.46 95.62 316.75 C 98.52 318.04 99.42 318.15 101.12 318.62 C 102.83 319.10 104.02 319.42 105.88 319.62 C 107.73 319.83 110.17 320.15 112.25 319.88 C 114.33 319.60 114.00 318.85 118.38 318.00 C 122.75 317.15 133.12 315.73 138.50 314.75 C 143.88 313.77 144.12 313.10 150.62 312.12 C 157.12 311.15 172.23 309.58 177.50 308.88 C 182.77 308.17 174.33 308.42 182.25 307.88 C 190.17 307.33 217.31 306.15 225.00 305.62 C 232.69 305.10 227.46 305.08 228.38 304.75 C 229.29 304.42 229.79 304.23 230.50 303.62 C 231.21 303.02 232.23 301.85 232.62 301.12 C 233.02 300.40 233.10 299.98 232.88 299.25 Z" id="s-10-f-0"/>
<clipPath id="c-s-10"><use href="#s-10-f-0"/></clipPath>
<path d="M 158.25 235.88 C 156.65 235.88 157.25 235.88 156.62 236.12 C 156.00 236.38 155.08 236.85 154.50 237.38 C 153.92 237.90 153.40 238.73 153.12 239.25 C 152.85 239.77 152.88 239.62 152.88 240.50 C 152.88 241.38 152.62 242.67 153.12 244.50 C 153.62 246.33 155.10 248.83 155.88 251.50 C 156.65 254.17 157.10 254.44 157.75 260.50 C 158.40 266.56 159.44 265.48 159.75 287.88 C 160.06 310.27 159.77 374.27 159.62 394.88 C 159.48 415.48 159.17 407.04 158.88 411.50 C 158.58 415.96 158.52 417.79 157.88 421.62 C 157.23 425.46 155.50 431.67 155.00 434.50 C 154.50 437.33 154.67 436.67 154.88 438.62 C 155.08 440.58 155.40 443.27 156.25 446.25 C 157.10 449.23 158.90 454.02 160.00 456.50 C 161.10 458.98 161.94 459.85 162.88 461.12 C 163.81 462.40 164.79 463.38 165.62 464.12 C 166.46 464.88 166.85 465.35 167.88 465.62 C 168.90 465.90 170.67 466.00 171.75 465.75 C 172.83 465.50 173.35 465.02 174.38 464.12 C 175.40 463.23 176.67 462.04 177.88 460.38 C 179.08 458.71 180.65 456.50 181.62 454.12 C 182.60 451.75 183.40 449.90 183.75 446.12 C 184.10 442.35 183.90 435.56 183.75 431.50 C 183.60 427.44 183.17 429.02 182.88 421.75 C 182.58 414.48 182.15 410.79 182.00 387.88 C 181.85 364.96 181.52 305.85 182.00 284.25 C 182.48 262.65 183.96 263.77 184.88 258.25 C 185.79 252.73 187.00 253.00 187.50 251.12 C 188.00 249.25 187.98 248.08 187.88 247.00 C 187.77 245.92 187.48 245.44 186.88 244.62 C 186.27 243.81 185.73 243.04 184.25 242.12 C 182.77 241.21 180.10 239.96 178.00 239.12 C 175.90 238.29 173.58 237.62 171.62 237.12 C 169.67 236.62 168.48 236.33 166.25 236.12 C 164.02 235.92 159.85 235.88 158.25 235.88 Z" id="s-11-f-0"/>
<clipPath id="c-s-11"><use href="#s-11-f-0"/></clipPath>
<path d="M 159.88 291.38 C 159.69 289.96 159.15 291.31 159.12 291.38 C 159.10 291.44 159.81 291.62 159.75 291.75 C 159.69 291.88 159.10 291.67 158.75 292.12 C 158.40 292.58 158.02 293.38 157.62 294.50 C 157.23 295.62 156.71 298.00 156.38 298.88 C 156.04 299.75 155.77 299.33 155.62 299.75 C 155.48 300.17 155.65 300.96 155.50 301.38 C 155.35 301.79 155.10 301.33 154.75 302.25 C 154.40 303.17 153.73 305.96 153.38 306.88 C 153.02 307.79 152.96 306.75 152.62 307.75 C 152.29 308.75 153.19 308.73 151.38 312.88 C 149.56 317.02 145.04 326.40 141.75 332.62 C 138.46 338.85 135.00 344.79 131.62 350.25 C 128.25 355.71 125.85 359.52 121.50 365.38 C 117.15 371.23 109.94 380.02 105.50 385.38 C 101.06 390.73 99.73 392.44 94.88 397.50 C 90.02 402.56 81.71 410.85 76.38 415.75 C 71.04 420.65 66.31 424.17 62.88 426.88 C 59.44 429.58 57.06 431.00 55.75 432.00 C 54.44 433.00 55.02 432.50 55.00 432.88 C 54.98 433.25 55.21 433.92 55.62 434.25 C 56.04 434.58 56.35 434.79 57.50 434.88 C 58.65 434.96 60.98 434.94 62.50 434.75 C 64.02 434.56 65.17 434.23 66.62 433.75 C 68.08 433.27 67.96 433.52 71.25 431.88 C 74.54 430.23 81.10 427.04 86.38 423.88 C 91.65 420.71 97.90 416.56 102.88 412.88 C 107.85 409.19 112.44 405.17 116.25 401.75 C 120.06 398.33 122.31 396.10 125.75 392.38 C 129.19 388.65 133.38 383.71 136.88 379.38 C 140.38 375.04 142.85 371.83 146.75 366.38 C 150.65 360.92 158.00 357.71 160.25 346.62 C 162.50 335.54 160.31 309.08 160.25 299.88 C 160.19 290.67 160.06 292.79 159.88 291.38 Z" id="s-12-f-0"/>
<clipPath id="c-s-12"><use href="#s-12-f-0"/></clipPath>
<path d="M 181.88 331.00 C 180.27 330.58 181.52 328.77 181.50 331.50 C 181.48 334.23 181.54 344.60 181.75 347.38 C 181.96 350.15 181.27 346.27 182.75 348.12 C 184.23 349.98 188.08 354.98 190.62 358.50 C 193.17 362.02 195.54 366.21 198.00 369.25 C 200.46 372.29 203.42 375.02 205.38 376.75 C 207.33 378.48 208.42 379.12 209.75 379.62 C 211.08 380.12 212.42 379.90 213.38 379.75 C 214.33 379.60 214.81 379.25 215.50 378.75 C 216.19 378.25 216.94 377.52 217.50 376.75 C 218.06 375.98 218.38 375.38 218.88 374.12 C 219.38 372.88 220.17 370.56 220.50 369.25 C 220.83 367.94 220.83 367.58 220.88 366.25 C 220.92 364.92 220.94 362.75 220.75 361.25 C 220.56 359.75 220.40 358.85 219.75 357.25 C 219.10 355.65 218.38 353.62 216.88 351.62 C 215.38 349.62 213.50 347.52 210.75 345.25 C 208.00 342.98 203.65 339.88 200.38 338.00 C 197.10 336.12 194.21 335.17 191.12 334.00 C 188.04 332.83 183.48 331.42 181.88 331.00 Z" id="s-13-f-0"/>
<clipPath id="c-s-13"><use href="#s-13-f-0"/></clipPath>
<path d="M 386.88 280.25 C 386.77 279.48 386.46 278.81 385.88 278.00 C 385.29 277.19 385.46 276.88 383.38 275.38 C 381.29 273.88 377.58 271.04 373.38 269.00 C 369.17 266.96 361.17 264.15 358.12 263.12 C 355.08 262.10 356.65 262.73 355.12 262.88 C 353.60 263.02 351.62 263.35 349.00 264.00 C 346.38 264.65 347.54 265.10 339.38 266.75 C 331.21 268.40 311.21 271.71 300.00 273.88 C 288.79 276.04 281.83 277.90 272.12 279.75 C 262.42 281.60 247.71 283.79 241.75 285.00 C 235.79 286.21 237.46 286.48 236.38 287.00 C 235.29 287.52 235.50 287.73 235.25 288.12 C 235.00 288.52 234.83 288.92 234.88 289.38 C 234.92 289.83 235.06 290.29 235.50 290.88 C 235.94 291.46 236.69 292.23 237.50 292.88 C 238.31 293.52 237.98 293.62 240.38 294.75 C 242.77 295.88 248.44 298.46 251.88 299.62 C 255.31 300.79 258.33 301.42 261.00 301.75 C 263.67 302.08 265.35 302.06 267.88 301.62 C 270.40 301.19 272.02 299.94 276.12 299.12 C 280.23 298.31 284.56 298.27 292.50 296.75 C 300.44 295.23 314.79 291.48 323.75 290.00 C 332.71 288.52 337.19 288.48 346.25 287.88 C 355.31 287.27 372.19 286.75 378.12 286.38 C 384.06 286.00 380.71 286.02 381.88 285.62 C 383.04 285.23 384.35 284.50 385.12 284.00 C 385.90 283.50 386.21 283.25 386.50 282.62 C 386.79 282.00 386.98 281.02 386.88 280.25 Z" id="s-14-f-0"/>
<clipPath id="c-s-14"><use href="#s-14-f-0"/></clipPath>
<path d="M 292.38 222.00 C 290.19 222.12 290.06 222.54 289.25 222.88 C 288.44 223.21 287.90 223.60 287.50 224.00 C 287.10 224.40 286.94 224.54 286.88 225.25 C 286.81 225.96 286.90 227.40 287.12 228.25 C 287.35 229.10 287.58 229.50 288.25 230.38 C 288.92 231.25 290.40 232.54 291.12 233.50 C 291.85 234.46 292.19 235.10 292.62 236.12 C 293.06 237.15 293.21 237.10 293.75 239.62 C 294.29 242.15 295.35 245.75 295.88 251.25 C 296.40 256.75 296.77 268.60 296.88 272.62 C 296.98 276.65 296.52 264.12 296.50 275.38 C 296.48 286.62 296.88 324.98 296.75 340.12 C 296.62 355.27 296.25 357.40 295.75 366.25 C 295.25 375.10 294.42 386.38 293.75 393.25 C 293.08 400.12 292.58 402.69 291.75 407.50 C 290.92 412.31 289.85 418.10 288.75 422.12 C 287.65 426.15 285.75 429.17 285.12 431.62 C 284.50 434.08 284.69 434.44 285.00 436.88 C 285.31 439.31 285.81 442.08 287.00 446.25 C 288.19 450.42 290.79 458.33 292.12 461.88 C 293.46 465.42 293.96 465.71 295.00 467.50 C 296.04 469.29 297.25 471.25 298.38 472.62 C 299.50 474.00 300.73 475.23 301.75 475.75 C 302.77 476.27 303.58 476.02 304.50 475.75 C 305.42 475.48 306.29 474.88 307.25 474.12 C 308.21 473.38 309.65 471.71 310.25 471.25 C 310.85 470.79 310.73 469.48 310.88 471.38 C 311.02 473.27 311.10 482.81 311.12 482.62 C 311.15 482.44 310.56 472.83 311.00 470.25 C 311.44 467.67 312.48 469.48 313.75 467.12 C 315.02 464.77 317.46 459.19 318.62 456.12 C 319.79 453.06 320.08 451.69 320.75 448.75 C 321.42 445.81 322.29 442.75 322.62 438.50 C 322.96 434.25 323.19 428.71 322.75 423.25 C 322.31 417.79 320.62 410.67 320.00 405.75 C 319.38 400.83 319.15 403.77 319.00 393.75 C 318.85 383.73 318.98 359.92 319.12 345.62 C 319.27 331.33 319.50 317.10 319.88 308.00 C 320.25 298.90 321.00 294.17 321.38 291.00 C 321.75 287.83 321.96 290.69 322.12 289.00 C 322.29 287.31 322.21 282.71 322.38 280.88 C 322.54 279.04 323.02 280.08 323.12 278.00 C 323.23 275.92 322.85 271.35 323.00 268.38 C 323.15 265.40 323.50 262.98 324.00 260.12 C 324.50 257.27 325.06 253.90 326.00 251.25 C 326.94 248.60 329.00 246.15 329.62 244.25 C 330.25 242.35 329.90 241.04 329.75 239.88 C 329.60 238.71 329.58 238.44 328.75 237.25 C 327.92 236.06 326.02 233.96 324.75 232.75 C 323.48 231.54 323.29 231.27 321.12 230.00 C 318.96 228.73 314.88 226.44 311.75 225.12 C 308.62 223.81 305.60 222.65 302.38 222.12 C 299.15 221.60 294.56 221.88 292.38 222.00 Z" id="s-15-f-0"/>
<clipPath id="c-s-15"><use href="#s-15-f-0"/></clipPath>
<path d="M 297.00 275.38 C 296.85 265.19 296.19 275.31 296.12 275.38 C 296.06 275.44 296.69 275.56 296.62 275.75 C 296.56 275.94 296.08 275.92 295.75 276.50 C 295.42 277.08 294.85 278.44 294.62 279.25 C 294.40 280.06 294.54 280.85 294.38 281.38 C 294.21 281.90 293.77 281.85 293.62 282.38 C 293.48 282.90 293.67 283.98 293.50 284.50 C 293.33 285.02 292.81 284.96 292.62 285.50 C 292.44 286.04 292.54 287.25 292.38 287.75 C 292.21 288.25 291.79 287.98 291.62 288.50 C 291.46 289.02 291.54 290.33 291.38 290.88 C 291.21 291.42 290.92 291.00 290.62 291.75 C 290.33 292.50 289.79 294.44 289.62 295.38 C 289.46 296.31 290.27 295.44 289.62 297.38 C 288.98 299.31 287.73 302.85 285.75 307.00 C 283.77 311.15 281.75 315.21 277.75 322.25 C 273.75 329.29 266.38 341.90 261.75 349.25 C 257.12 356.60 252.77 362.48 250.00 366.38 C 247.23 370.27 248.96 368.21 245.12 372.62 C 241.29 377.04 232.12 387.38 227.00 392.88 C 221.88 398.38 218.27 401.85 214.38 405.62 C 210.48 409.40 205.54 413.52 203.62 415.50 C 201.71 417.48 202.85 416.96 202.88 417.50 C 202.90 418.04 203.25 418.54 203.75 418.75 C 204.25 418.96 204.06 419.27 205.88 418.75 C 207.69 418.23 210.96 417.15 214.62 415.62 C 218.29 414.10 223.77 411.75 227.88 409.62 C 231.98 407.50 235.17 405.69 239.25 402.88 C 243.33 400.06 248.52 396.02 252.38 392.75 C 256.23 389.48 258.56 387.27 262.38 383.25 C 266.19 379.23 271.35 373.56 275.25 368.62 C 279.15 363.69 282.29 358.85 285.75 353.62 C 289.21 348.40 294.12 340.10 296.00 337.25 C 297.88 334.40 296.83 346.81 297.00 336.50 C 297.17 326.19 297.15 285.56 297.00 275.38 Z" id="s-16-f-0"/>
<clipPath id="c-s-16"><use href="#s-16-f-0"/></clipPath>
<path d="M 320.62 285.00 C 320.29 286.44 319.79 289.69 319.62 293.38 C 319.46 297.06 316.94 301.27 319.62 307.12 C 322.31 312.98 331.40 322.48 335.75 328.50 C 340.10 334.52 341.73 336.94 345.75 343.25 C 349.77 349.56 355.38 359.23 359.88 366.38 C 364.38 373.52 369.02 380.58 372.75 386.12 C 376.48 391.67 379.77 396.33 382.25 399.62 C 384.73 402.92 385.85 404.21 387.62 405.88 C 389.40 407.54 391.23 408.67 392.88 409.62 C 394.52 410.58 395.46 411.27 397.50 411.62 C 399.54 411.98 402.08 412.08 405.12 411.75 C 408.17 411.42 411.85 410.62 415.75 409.62 C 419.65 408.62 424.52 407.06 428.50 405.75 C 432.48 404.44 437.21 402.88 439.62 401.75 C 442.04 400.62 442.31 399.69 443.00 399.00 C 443.69 398.31 443.60 398.19 443.75 397.62 C 443.90 397.06 443.96 396.17 443.88 395.62 C 443.79 395.08 443.62 394.81 443.25 394.38 C 442.88 393.94 444.98 394.77 441.62 393.00 C 438.27 391.23 428.81 386.81 423.12 383.75 C 417.44 380.69 412.25 377.58 407.50 374.62 C 402.75 371.67 398.35 368.71 394.62 366.00 C 390.90 363.29 387.58 360.46 385.12 358.38 C 382.67 356.29 384.23 358.17 379.88 353.50 C 375.52 348.83 366.15 338.85 359.00 330.38 C 351.85 321.90 342.69 309.23 337.00 302.62 C 331.31 296.02 327.44 293.73 324.88 290.75 C 322.31 287.77 322.33 285.71 321.62 284.75 C 320.92 283.79 320.96 283.56 320.62 285.00 Z" id="s-17-f-0"/>
<clipPath id="c-s-17"><use href="#s-17-f-0"/></clipPath>
</defs>
<g id="s-0" clip-path="url(#c-s-0)">
<use href="#s-0-f-0"/>
<path d="M 94.75 78.00 C 93.54 78.17 93.98 78.73 93.88 79.25 C 93.77 79.77 93.52 79.98 94.12 81.12 C 94.73 82.27 95.69 82.73 97.50 86.12 C 99.31 89.52 102.75 97.12 105.00 101.50 C 107.25 105.88 108.52 108.35 111.00 112.38 C 113.48 116.40 118.25 123.35 119.88 125.62 C 121.50 127.90 117.60 125.94 120.75 126.00 C 123.90 126.06 135.46 126.06 138.75 126.00 C 142.04 125.94 140.15 126.08 140.50 125.62 C 140.85 125.17 140.83 125.04 140.88 123.25 C 140.92 121.46 140.96 117.44 140.75 114.88 C 140.54 112.31 140.29 110.33 139.62 107.88 C 138.96 105.42 137.83 102.27 136.75 100.12 C 135.67 97.98 135.02 96.88 133.12 95.00 C 131.23 93.12 128.19 90.71 125.38 88.88 C 122.56 87.04 120.29 85.77 116.25 84.00 C 112.21 82.23 104.71 79.25 101.12 78.25 C 97.54 77.25 95.96 77.83 94.75 78.00 Z" id="s-0-f-1"/>
</g>
<g id="s-1" clip-path="url(#c-s-1)">
<use href="#s-1-f-0"/>
<path d="M 248.62 72.62 C 247.65 71.19 246.15 68.98 243.88 66.88 C 241.60 64.77 237.75 61.79 235.00 60.00 C 232.25 58.21 229.35 56.75 227.38 56.12 C 225.40 55.50 224.21 55.85 223.12 56.25 C 222.04 56.65 222.27 56.10 220.88 58.50 C 219.48 60.90 217.31 66.10 214.75 70.62 C 212.19 75.15 207.88 82.02 205.50 85.62 C 203.12 89.23 203.17 89.31 200.50 92.25 C 197.83 95.19 191.31 101.33 189.50 103.25 C 187.69 105.17 186.52 103.67 189.62 103.75 C 192.73 103.83 203.15 104.83 208.12 103.75 C 213.10 102.67 216.21 99.02 219.50 97.25 C 222.79 95.48 223.88 94.88 227.88 93.12 C 231.88 91.38 240.21 88.31 243.50 86.75 C 246.79 85.19 246.60 84.77 247.62 83.75 C 248.65 82.73 249.27 82.00 249.62 80.62 C 249.98 79.25 249.92 76.83 249.75 75.50 C 249.58 74.17 249.60 74.06 248.62 72.62 Z" id="s-1-f-1"/>
</g>
<g id="s-2" clip-path="url(#c-s-2)">
<use href="#s-2-f-0"/>
<path d="M 169.50 34.12 C 167.06 33.46 165.69 33.19 163.38 33.00 C 161.06 32.81 157.35 32.81 155.62 33.00 C 153.90 33.19 153.77 33.48 153.00 34.12 C 152.23 34.77 151.31 36.00 151.00 36.88 C 150.69 37.75 150.48 38.33 151.12 39.38 C 151.77 40.42 153.77 41.54 154.88 43.12 C 155.98 44.71 156.94 46.44 157.75 48.88 C 158.56 51.31 159.25 54.27 159.75 57.75 C 160.25 61.23 160.60 62.42 160.75 69.75 C 160.90 77.08 160.83 94.17 160.62 101.75 C 160.42 109.33 160.04 110.96 159.50 115.25 C 158.96 119.54 158.35 123.10 157.38 127.50 C 156.40 131.90 154.75 137.88 153.62 141.62 C 152.50 145.38 151.77 147.23 150.62 150.00 C 149.48 152.77 148.06 155.73 146.75 158.25 C 145.44 160.77 144.27 162.81 142.75 165.12 C 141.23 167.44 139.12 170.29 137.62 172.12 C 136.12 173.96 134.35 175.33 133.75 176.12 C 133.15 176.92 130.58 176.73 134.00 176.88 C 137.42 177.02 150.56 177.00 154.25 177.00 C 157.94 177.00 154.33 178.54 156.12 176.88 C 157.92 175.21 162.56 170.10 165.00 167.00 C 167.44 163.90 168.67 162.04 170.75 158.25 C 172.83 154.46 175.79 148.52 177.50 144.25 C 179.21 139.98 180.10 136.94 181.00 132.62 C 181.90 128.31 182.35 121.12 182.88 118.38 C 183.40 115.62 183.88 117.12 184.12 116.12 C 184.38 115.12 184.19 113.48 184.38 112.38 C 184.56 111.27 185.17 111.04 185.25 109.50 C 185.33 107.96 184.75 109.69 184.88 103.12 C 185.00 96.56 185.31 77.75 186.00 70.12 C 186.69 62.50 188.06 60.42 189.00 57.38 C 189.94 54.33 191.17 53.44 191.62 51.88 C 192.08 50.31 192.06 49.23 191.75 48.00 C 191.44 46.77 190.73 45.67 189.75 44.50 C 188.77 43.33 187.83 42.25 185.88 41.00 C 183.92 39.75 180.73 38.15 178.00 37.00 C 175.27 35.85 171.94 34.79 169.50 34.12 Z" id="s-2-f-1"/>
<path d="M 155.62 33.00 C 153.77 33.12 154.00 33.50 153.38 33.88 C 152.75 34.25 152.27 34.75 151.88 35.25 C 151.48 35.75 151.12 36.19 151.00 36.88 C 150.88 37.56 150.48 38.33 151.12 39.38 C 151.77 40.42 153.77 41.54 154.88 43.12 C 155.98 44.71 156.94 46.44 157.75 48.88 C 158.56 51.31 159.25 54.27 159.75 57.75 C 160.25 61.23 160.65 61.67 160.75 69.75 C 160.85 77.83 160.58 98.67 160.38 106.25 C 160.17 113.83 160.06 111.56 159.50 115.25 C 158.94 118.94 157.38 126.10 157.00 128.38 C 156.62 130.65 156.92 128.77 157.25 128.88 C 157.58 128.98 155.06 129.00 159.00 129.00 C 162.94 129.00 177.10 129.00 180.88 128.88 C 184.65 128.75 181.29 130.00 181.62 128.25 C 181.96 126.50 182.46 120.40 182.88 118.38 C 183.29 116.35 183.88 117.12 184.12 116.12 C 184.38 115.12 184.19 113.48 184.38 112.38 C 184.56 111.27 185.17 111.04 185.25 109.50 C 185.33 107.96 184.75 109.69 184.88 103.12 C 185.00 96.56 185.31 77.75 186.00 70.12 C 186.69 62.50 188.06 60.42 189.00 57.38 C 189.94 54.33 191.17 53.44 191.62 51.88 C 192.08 50.31 191.88 49.00 191.75 48.00 C 191.62 47.00 191.58 46.83 190.88 45.88 C 190.17 44.92 188.90 43.40 187.50 42.25 C 186.10 41.10 184.08 39.88 182.50 39.00 C 180.92 38.12 180.17 37.81 178.00 37.00 C 175.83 36.19 171.75 34.77 169.50 34.12 C 167.25 33.48 166.81 33.31 164.50 33.12 C 162.19 32.94 157.48 32.88 155.62 33.00 Z" id="s-2-f-2"/>
<path d="M 153.00 34.12 C 152.23 34.77 151.31 36.00 151.00 36.88 C 150.69 37.75 150.38 38.17 151.12 39.38 C 151.88 40.58 154.40 42.54 155.50 44.12 C 156.60 45.71 157.21 47.52 157.75 48.88 C 158.29 50.23 158.31 49.67 158.75 52.25 C 159.19 54.83 160.00 59.62 160.38 64.38 C 160.75 69.12 156.81 78.02 161.00 80.75 C 165.19 83.48 181.33 82.52 185.50 80.75 C 189.67 78.98 185.73 72.92 186.00 70.12 C 186.27 67.33 186.58 66.25 187.12 64.00 C 187.67 61.75 188.48 58.73 189.25 56.62 C 190.02 54.52 191.33 52.81 191.75 51.38 C 192.17 49.94 191.90 48.92 191.75 48.00 C 191.60 47.08 191.58 46.83 190.88 45.88 C 190.17 44.92 188.90 43.40 187.50 42.25 C 186.10 41.10 184.46 40.02 182.50 39.00 C 180.54 37.98 177.92 36.94 175.75 36.12 C 173.58 35.31 172.06 34.67 169.50 34.12 C 166.94 33.58 162.69 33.06 160.38 32.88 C 158.06 32.69 156.85 32.79 155.62 33.00 C 154.40 33.21 153.77 33.48 153.00 34.12 Z" id="s-2-f-3"/>
</g>
<g id="s-3" clip-path="url(#c-s-3)">
<use href="#s-3-f-0"/>
<path d="M 180.50 132.00 C 180.12 132.25 179.81 132.85 179.62 133.50 C 179.44 134.15 179.54 135.31 179.38 135.88 C 179.21 136.44 178.75 136.46 178.62 136.88 C 178.50 137.29 178.79 137.71 178.62 138.38 C 178.46 139.04 177.77 140.23 177.62 140.88 C 177.48 141.52 176.65 140.90 177.75 142.25 C 178.85 143.60 181.60 146.00 184.25 149.00 C 186.90 152.00 190.73 156.58 193.62 160.25 C 196.52 163.92 199.17 168.04 201.62 171.00 C 204.08 173.96 206.15 176.06 208.38 178.00 C 210.60 179.94 213.23 181.83 215.00 182.62 C 216.77 183.42 217.81 183.04 219.00 182.75 C 220.19 182.46 221.04 182.21 222.12 180.88 C 223.21 179.54 224.85 176.40 225.50 174.75 C 226.15 173.10 225.96 173.46 226.00 171.00 C 226.04 168.54 226.15 162.54 225.75 160.00 C 225.35 157.46 224.83 157.40 223.62 155.75 C 222.42 154.10 220.85 152.08 218.50 150.12 C 216.15 148.17 213.90 146.35 209.50 144.00 C 205.10 141.65 196.73 138.00 192.12 136.00 C 187.52 134.00 183.81 132.67 181.88 132.00 C 179.94 131.33 180.88 131.75 180.50 132.00 Z" id="s-3-f-1"/>
</g>
<g id="s-4" clip-path="url(#c-s-4)">
<use href="#s-4-f-0"/>
</g>
<g id="s-5" clip-path="url(#c-s-5)">
<use href="#s-5-f-0"/>
<path d="M 392.62 69.00 C 392.33 67.52 391.88 66.90 390.88 65.50 C 389.88 64.10 389.04 62.85 386.62 60.62 C 384.21 58.40 379.08 54.23 376.38 52.12 C 373.67 50.02 372.04 48.98 370.38 48.00 C 368.71 47.02 367.88 46.54 366.38 46.25 C 364.88 45.96 362.54 46.02 361.38 46.25 C 360.21 46.48 360.08 46.96 359.38 47.62 C 358.67 48.29 358.56 48.02 357.12 50.25 C 355.69 52.48 353.60 56.73 350.75 61.00 C 347.90 65.27 343.27 71.75 340.00 75.88 C 336.73 80.00 334.00 82.81 331.12 85.75 C 328.25 88.69 322.94 92.12 322.75 93.50 C 322.56 94.88 325.58 93.96 330.00 94.00 C 334.42 94.04 343.42 94.90 349.25 93.75 C 355.08 92.60 358.75 89.48 365.00 87.12 C 371.25 84.77 382.58 81.23 386.75 79.62 C 390.92 78.02 389.02 78.38 390.00 77.50 C 390.98 76.62 392.19 75.79 392.62 74.38 C 393.06 72.96 392.92 70.48 392.62 69.00 Z" id="s-5-f-1"/>
</g>
<g id="s-6" clip-path="url(#c-s-6)">
<use href="#s-6-f-0"/>
<path d="M 299.12 24.25 C 296.42 23.58 294.38 23.21 291.88 23.00 C 289.38 22.79 285.85 22.77 284.12 23.00 C 282.40 23.23 282.19 23.79 281.50 24.38 C 280.81 24.96 280.23 25.67 280.00 26.50 C 279.77 27.33 279.27 27.88 280.12 29.38 C 280.98 30.88 284.00 34.00 285.12 35.50 C 286.25 37.00 286.10 35.65 286.88 38.38 C 287.65 41.10 289.10 47.83 289.75 51.88 C 290.40 55.92 290.58 56.12 290.75 62.62 C 290.92 69.12 290.90 84.00 290.75 90.88 C 290.60 97.75 290.54 98.90 289.88 103.88 C 289.21 108.85 288.29 114.88 286.75 120.75 C 285.21 126.62 282.12 135.00 280.62 139.12 C 279.12 143.25 278.94 143.17 277.75 145.50 C 276.56 147.83 275.00 150.71 273.50 153.12 C 272.00 155.54 270.42 157.88 268.75 160.00 C 267.08 162.12 264.38 164.83 263.50 165.88 C 262.62 166.92 263.29 166.12 263.50 166.25 C 263.71 166.38 260.33 166.54 264.75 166.62 C 269.17 166.71 284.85 167.75 290.00 166.75 C 295.15 165.75 293.81 162.85 295.62 160.62 C 297.44 158.40 299.23 155.98 300.88 153.38 C 302.52 150.77 304.04 148.00 305.50 145.00 C 306.96 142.00 308.88 137.40 309.62 135.38 C 310.38 133.35 309.31 134.98 310.00 132.88 C 310.69 130.77 312.75 127.06 313.75 122.75 C 314.75 118.44 315.44 110.29 316.00 107.00 C 316.56 103.71 316.92 104.65 317.12 103.00 C 317.33 101.35 317.12 98.50 317.25 97.12 C 317.38 95.75 317.58 100.60 317.88 94.75 C 318.17 88.90 318.48 68.83 319.00 62.00 C 319.52 55.17 319.88 56.83 321.00 53.75 C 322.12 50.67 324.96 45.85 325.75 43.50 C 326.54 41.15 326.06 40.85 325.75 39.62 C 325.44 38.40 324.98 37.40 323.88 36.12 C 322.77 34.85 320.56 33.04 319.12 32.00 C 317.69 30.96 317.08 30.71 315.25 29.88 C 313.42 29.04 310.81 27.94 308.12 27.00 C 305.44 26.06 301.83 24.92 299.12 24.25 Z" id="s-6-f-1"/>
<path d="M 283.62 23.12 C 281.79 23.48 281.48 24.56 280.88 25.12 C 280.27 25.69 280.17 25.92 280.00 26.50 C 279.83 27.08 278.73 26.65 279.88 28.62 C 281.02 30.60 285.52 35.62 286.88 38.38 C 288.23 41.12 287.54 43.02 288.00 45.12 C 288.46 47.23 289.17 48.08 289.62 51.00 C 290.08 53.92 290.58 55.29 290.75 62.62 C 290.92 69.96 290.96 86.85 290.62 95.00 C 290.29 103.15 289.33 107.60 288.75 111.50 C 288.17 115.40 287.29 117.15 287.12 118.38 C 286.96 119.60 287.38 118.77 287.75 118.88 C 288.12 118.98 285.00 119.00 289.38 119.00 C 293.75 119.00 309.79 118.98 314.00 118.88 C 318.21 118.77 314.29 120.35 314.62 118.38 C 314.96 116.40 315.58 109.56 316.00 107.00 C 316.42 104.44 316.92 104.65 317.12 103.00 C 317.33 101.35 317.12 98.50 317.25 97.12 C 317.38 95.75 317.58 100.58 317.88 94.75 C 318.17 88.92 318.48 68.96 319.00 62.12 C 319.52 55.29 319.88 56.85 321.00 53.75 C 322.12 50.65 324.96 45.85 325.75 43.50 C 326.54 41.15 325.92 40.67 325.75 39.62 C 325.58 38.58 325.46 38.23 324.75 37.25 C 324.04 36.27 322.42 34.62 321.50 33.75 C 320.58 32.88 320.62 32.79 319.25 32.00 C 317.88 31.21 316.71 30.31 313.25 29.00 C 309.79 27.69 302.06 25.12 298.50 24.12 C 294.94 23.12 294.35 23.17 291.88 23.00 C 289.40 22.83 285.46 22.77 283.62 23.12 Z" id="s-6-f-2"/>
<path d="M 282.12 23.88 C 281.23 24.48 280.38 25.71 280.00 26.50 C 279.62 27.29 278.92 26.98 279.88 28.62 C 280.83 30.27 284.50 34.44 285.75 36.38 C 287.00 38.31 287.00 38.79 287.38 40.25 C 287.75 41.71 287.60 43.19 288.00 45.12 C 288.40 47.06 289.31 49.50 289.75 51.88 C 290.19 54.25 290.40 56.21 290.62 59.38 C 290.85 62.54 287.81 68.96 291.12 70.88 C 294.44 72.79 306.19 70.96 310.50 70.88 C 314.81 70.79 315.65 70.67 317.00 70.38 C 318.35 70.08 318.29 70.50 318.62 69.12 C 318.96 67.75 318.77 64.12 319.00 62.12 C 319.23 60.12 319.48 59.02 320.00 57.12 C 320.52 55.23 321.17 53.02 322.12 50.75 C 323.08 48.48 325.15 45.35 325.75 43.50 C 326.35 41.65 326.04 40.83 325.75 39.62 C 325.46 38.42 325.08 37.52 324.00 36.25 C 322.92 34.98 320.71 33.06 319.25 32.00 C 317.79 30.94 318.08 31.02 315.25 29.88 C 312.42 28.73 306.15 26.27 302.25 25.12 C 298.35 23.98 294.69 23.38 291.88 23.00 C 289.06 22.62 287.00 22.73 285.38 22.88 C 283.75 23.02 283.02 23.27 282.12 23.88 Z" id="s-6-f-3"/>
</g>
<g id="s-7" clip-path="url(#c-s-7)">
<use href="#s-7-f-0"/>
<path d="M 312.75 122.38 C 312.62 122.77 312.81 123.92 312.62 124.50 C 312.44 125.08 312.02 124.81 311.62 125.88 C 311.23 126.94 310.58 129.94 310.25 130.88 C 309.92 131.81 309.71 131.12 309.62 131.50 C 309.54 131.88 308.27 131.56 309.75 133.12 C 311.23 134.69 315.38 137.83 318.50 140.88 C 321.62 143.92 324.52 146.85 328.50 151.38 C 332.48 155.90 338.98 164.06 342.38 168.00 C 345.77 171.94 346.90 173.02 348.88 175.00 C 350.85 176.98 352.81 178.73 354.25 179.88 C 355.69 181.02 356.88 183.54 357.50 181.88 C 358.12 180.21 357.92 176.10 358.00 169.88 C 358.08 163.65 358.08 149.25 358.00 144.50 C 357.92 139.75 358.46 142.46 357.50 141.38 C 356.54 140.29 354.38 139.21 352.25 138.00 C 350.12 136.79 346.35 134.85 344.75 134.12 C 343.15 133.40 343.08 133.81 342.62 133.62 C 342.17 133.44 344.15 133.94 342.00 133.00 C 339.85 132.06 334.52 129.81 329.75 128.00 C 324.98 126.19 316.21 123.06 313.38 122.12 C 310.54 121.19 312.88 121.98 312.75 122.38 Z" id="s-7-f-1"/>
</g>
<g id="s-8" clip-path="url(#c-s-8)">
<use href="#s-8-f-0"/>
<path d="M 89.25 199.00 C 88.08 198.23 87.48 198.65 86.75 199.00 C 86.02 199.35 85.38 200.06 84.88 201.12 C 84.38 202.19 84.96 201.85 83.75 205.38 C 82.54 208.90 79.62 217.04 77.62 222.25 C 75.62 227.46 73.50 232.73 71.75 236.62 C 70.00 240.52 67.92 243.96 67.12 245.62 C 66.33 247.29 66.96 246.42 67.00 246.62 C 67.04 246.83 62.94 246.81 67.38 246.88 C 71.81 246.94 88.88 247.06 93.62 247.00 C 98.38 246.94 95.04 248.04 95.88 246.50 C 96.71 244.96 97.94 240.77 98.62 237.75 C 99.31 234.73 100.31 233.12 100.00 228.38 C 99.69 223.62 97.79 213.38 96.75 209.25 C 95.71 205.12 95.00 205.33 93.75 203.62 C 92.50 201.92 90.42 199.77 89.25 199.00 Z" id="s-8-f-1"/>
</g>
<g id="s-9" clip-path="url(#c-s-9)">
<use href="#s-9-f-0"/>
<path d="M 419.38 203.25 C 418.17 202.04 414.17 198.75 411.75 196.88 C 409.33 195.00 406.96 193.29 404.88 192.00 C 402.79 190.71 400.83 189.65 399.25 189.12 C 397.67 188.60 397.79 188.73 395.38 188.88 C 392.96 189.02 388.38 189.50 384.75 190.00 C 381.12 190.50 382.69 190.75 373.62 191.88 C 364.56 193.00 349.77 194.77 330.38 196.75 C 310.98 198.73 277.96 201.94 257.25 203.75 C 236.54 205.56 220.31 206.65 206.12 207.62 C 191.94 208.60 182.67 209.08 172.12 209.62 C 161.58 210.17 154.67 210.50 142.88 210.88 C 131.08 211.25 109.08 211.65 101.38 211.88 C 93.67 212.10 97.44 212.00 96.62 212.25 C 95.81 212.50 96.38 212.60 96.50 213.38 C 96.62 214.15 97.19 215.62 97.38 216.88 C 97.56 218.12 97.46 219.88 97.62 220.88 C 97.79 221.88 98.19 221.77 98.38 222.88 C 98.56 223.98 98.50 226.31 98.75 227.50 C 99.00 228.69 98.56 229.12 99.88 230.00 C 101.19 230.88 104.54 232.12 106.62 232.75 C 108.71 233.38 110.12 233.56 112.38 233.75 C 114.62 233.94 116.08 234.04 120.12 233.88 C 124.17 233.71 122.60 234.40 136.62 232.75 C 150.65 231.10 182.15 226.62 204.25 224.00 C 226.35 221.38 248.19 219.00 269.25 217.00 C 290.31 215.00 312.27 213.21 330.62 212.00 C 348.98 210.79 365.08 210.96 379.38 209.75 C 393.67 208.54 409.77 205.69 416.38 204.75 C 422.98 203.81 418.50 204.38 419.00 204.12 C 419.50 203.88 420.58 204.46 419.38 203.25 Z" id="s-9-f-1"/>
<path d="M 385.00 191.75 C 384.94 188.88 384.83 190.52 384.62 190.25 C 384.42 189.98 385.58 189.85 383.75 190.12 C 381.92 190.40 388.85 190.12 373.62 191.88 C 358.40 193.62 315.88 198.31 292.38 200.62 C 268.88 202.94 252.65 204.25 232.62 205.75 C 212.60 207.25 187.21 208.77 172.25 209.62 C 157.29 210.48 154.69 210.50 142.88 210.88 C 131.06 211.25 109.08 211.65 101.38 211.88 C 93.67 212.10 97.44 212.00 96.62 212.25 C 95.81 212.50 96.38 212.60 96.50 213.38 C 96.62 214.15 97.19 215.62 97.38 216.88 C 97.56 218.12 97.46 219.88 97.62 220.88 C 97.79 221.88 98.19 221.77 98.38 222.88 C 98.56 223.98 98.50 226.31 98.75 227.50 C 99.00 228.69 98.56 229.12 99.88 230.00 C 101.19 230.88 104.73 232.15 106.62 232.75 C 108.52 233.35 107.94 233.48 111.25 233.62 C 114.56 233.77 122.27 233.77 126.50 233.62 C 130.73 233.48 123.67 234.35 136.62 232.75 C 149.58 231.15 182.15 226.62 204.25 224.00 C 226.35 221.38 248.19 219.00 269.25 217.00 C 290.31 215.00 312.52 213.19 330.62 212.00 C 348.73 210.81 368.90 210.38 377.88 209.88 C 386.85 209.38 383.31 209.40 384.50 209.00 C 385.69 208.60 384.92 210.38 385.00 207.50 C 385.08 204.62 385.06 194.62 385.00 191.75 Z" id="s-9-f-2"/>
<path d="M 336.75 196.25 C 336.44 193.88 346.44 194.92 335.12 196.00 C 323.81 197.08 290.35 200.81 268.88 202.75 C 247.40 204.69 227.25 206.27 206.25 207.62 C 185.25 208.98 160.35 210.17 142.88 210.88 C 125.40 211.58 109.08 211.65 101.38 211.88 C 93.67 212.10 97.44 212.00 96.62 212.25 C 95.81 212.50 96.38 212.60 96.50 213.38 C 96.62 214.15 97.19 215.62 97.38 216.88 C 97.56 218.12 97.46 219.88 97.62 220.88 C 97.79 221.88 98.21 221.88 98.38 222.88 C 98.54 223.88 98.42 225.71 98.62 226.88 C 98.83 228.04 98.81 229.06 99.62 229.88 C 100.44 230.69 101.56 231.12 103.50 231.75 C 105.44 232.38 107.42 233.31 111.25 233.62 C 115.08 233.94 122.27 233.77 126.50 233.62 C 130.73 233.48 123.85 234.33 136.62 232.75 C 149.40 231.17 184.38 226.42 203.12 224.12 C 221.88 221.83 232.21 220.71 249.12 219.00 C 266.04 217.29 290.08 215.08 304.62 213.88 C 319.17 212.67 330.98 212.35 336.38 211.75 C 341.77 211.15 336.94 212.83 337.00 210.25 C 337.06 207.67 337.06 198.62 336.75 196.25 Z" id="s-9-f-3"/>
<path d="M 288.88 205.12 C 288.77 202.98 288.67 201.71 288.38 201.00 C 288.08 200.29 292.31 200.42 287.12 200.88 C 281.94 201.33 270.73 202.62 257.25 203.75 C 243.77 204.88 225.31 206.44 206.25 207.62 C 187.19 208.81 160.35 210.17 142.88 210.88 C 125.40 211.58 109.08 211.65 101.38 211.88 C 93.67 212.10 97.44 212.00 96.62 212.25 C 95.81 212.50 96.38 212.60 96.50 213.38 C 96.62 214.15 97.19 215.62 97.38 216.88 C 97.56 218.12 97.46 219.88 97.62 220.88 C 97.79 221.88 98.21 221.88 98.38 222.88 C 98.54 223.88 98.42 225.71 98.62 226.88 C 98.83 228.04 98.81 229.06 99.62 229.88 C 100.44 230.69 101.56 231.12 103.50 231.75 C 105.44 232.38 107.42 233.31 111.25 233.62 C 115.08 233.94 122.27 233.77 126.50 233.62 C 130.73 233.48 129.15 233.69 136.62 232.75 C 144.10 231.81 155.71 229.96 171.38 228.00 C 187.04 226.04 211.15 223.08 230.62 221.00 C 250.10 218.92 278.52 216.69 288.25 215.50 C 297.98 214.31 288.90 215.60 289.00 213.88 C 289.10 212.15 288.98 207.27 288.88 205.12 Z" id="s-9-f-4"/>
<path d="M 241.00 206.25 C 240.96 203.88 241.10 205.33 240.75 205.12 C 240.40 204.92 244.62 204.58 238.88 205.00 C 233.12 205.42 217.38 206.85 206.25 207.62 C 195.12 208.40 182.69 209.08 172.12 209.62 C 161.56 210.17 154.67 210.50 142.88 210.88 C 131.08 211.25 109.08 211.65 101.38 211.88 C 93.67 212.10 97.44 212.00 96.62 212.25 C 95.81 212.50 96.38 212.60 96.50 213.38 C 96.62 214.15 97.19 215.62 97.38 216.88 C 97.56 218.12 97.46 219.88 97.62 220.88 C 97.79 221.88 98.21 221.88 98.38 222.88 C 98.54 223.88 98.42 225.71 98.62 226.88 C 98.83 228.04 98.81 229.06 99.62 229.88 C 100.44 230.69 101.56 231.12 103.50 231.75 C 105.44 232.38 107.42 233.31 111.25 233.62 C 115.08 233.94 122.27 233.77 126.50 233.62 C 130.73 233.48 127.81 233.85 136.62 232.75 C 145.44 231.65 162.12 229.12 179.38 227.00 C 196.62 224.88 229.85 221.27 240.12 220.00 C 250.40 218.73 240.85 221.67 241.00 219.38 C 241.15 217.08 241.04 208.62 241.00 206.25 Z" id="s-9-f-5"/>
<path d="M 192.88 225.00 C 193.12 222.38 193.08 212.77 193.00 210.00 C 192.92 207.23 200.75 208.23 192.38 208.38 C 184.00 208.52 157.92 210.29 142.75 210.88 C 127.58 211.46 109.08 211.60 101.38 211.88 C 93.67 212.15 97.12 211.00 96.50 212.50 C 95.88 214.00 97.31 219.15 97.62 220.88 C 97.94 222.60 98.21 221.88 98.38 222.88 C 98.54 223.88 98.42 225.71 98.62 226.88 C 98.83 228.04 98.81 229.06 99.62 229.88 C 100.44 230.69 101.56 231.12 103.50 231.75 C 105.44 232.38 108.58 233.27 111.25 233.62 C 113.92 233.98 115.27 234.02 119.50 233.88 C 123.73 233.73 129.29 233.56 136.62 232.75 C 143.96 231.94 154.35 230.17 163.50 229.00 C 172.65 227.83 186.60 226.42 191.50 225.75 C 196.40 225.08 192.62 227.62 192.88 225.00 Z" id="s-9-f-6"/>
<path d="M 144.62 212.12 C 144.46 208.77 151.88 210.98 143.88 211.00 C 135.88 211.02 104.50 211.60 96.62 212.25 C 88.75 212.90 96.50 214.10 96.62 214.88 C 96.75 215.65 97.21 215.88 97.38 216.88 C 97.54 217.88 97.46 219.88 97.62 220.88 C 97.79 221.88 98.21 221.88 98.38 222.88 C 98.54 223.88 98.44 225.75 98.62 226.88 C 98.81 228.00 98.69 228.81 99.50 229.62 C 100.31 230.44 101.38 231.06 103.50 231.75 C 105.62 232.44 108.42 233.44 112.25 233.75 C 116.08 234.06 122.44 233.79 126.50 233.62 C 130.56 233.46 133.65 233.10 136.62 232.75 C 139.60 232.40 143.00 231.77 144.38 231.50 C 145.75 231.23 144.83 234.35 144.88 231.12 C 144.92 227.90 144.79 215.48 144.62 212.12 Z" id="s-9-f-7"/>
</g>
<g id="s-10" clip-path="url(#c-s-10)">
<use href="#s-10-f-0"/>
<path d="M 224.00 292.25 C 224.00 290.06 224.12 291.62 223.88 291.25 C 223.62 290.88 223.56 290.71 222.50 290.00 C 221.44 289.29 220.56 288.15 217.50 287.00 C 214.44 285.85 207.31 283.79 204.12 283.12 C 200.94 282.46 201.48 282.56 198.38 283.00 C 195.27 283.44 188.44 285.29 185.50 285.75 C 182.56 286.21 184.88 284.94 180.75 285.75 C 176.62 286.56 176.44 287.92 160.75 290.62 C 145.06 293.33 99.90 299.75 86.62 302.00 C 73.35 304.25 82.25 303.38 81.12 304.12 C 80.00 304.88 79.94 305.81 79.88 306.50 C 79.81 307.19 80.10 307.52 80.75 308.25 C 81.40 308.98 81.27 309.46 83.75 310.88 C 86.23 312.29 92.73 315.46 95.62 316.75 C 98.52 318.04 99.42 318.15 101.12 318.62 C 102.83 319.10 104.02 319.42 105.88 319.62 C 107.73 319.83 110.17 320.15 112.25 319.88 C 114.33 319.60 114.00 318.85 118.38 318.00 C 122.75 317.15 133.12 315.73 138.50 314.75 C 143.88 313.77 144.12 313.10 150.62 312.12 C 157.12 311.15 172.23 309.58 177.50 308.88 C 182.77 308.17 174.56 308.46 182.25 307.88 C 189.94 307.29 216.69 305.96 223.62 305.38 C 230.56 304.79 223.81 306.56 223.88 304.38 C 223.94 302.19 224.00 294.44 224.00 292.25 Z" id="s-10-f-1"/>
<path d="M 175.88 287.38 C 175.73 284.00 177.65 286.46 175.12 287.00 C 172.60 287.54 175.50 288.12 160.75 290.62 C 146.00 293.12 99.90 299.75 86.62 302.00 C 73.35 304.25 82.25 303.48 81.12 304.12 C 80.00 304.77 80.06 305.38 79.88 305.88 C 79.69 306.38 79.67 306.54 80.00 307.12 C 80.33 307.71 81.02 308.60 81.88 309.38 C 82.73 310.15 82.83 310.52 85.12 311.75 C 87.42 312.98 92.85 315.58 95.62 316.75 C 98.40 317.92 99.38 318.23 101.75 318.75 C 104.12 319.27 107.94 319.71 109.88 319.88 C 111.81 320.04 111.96 320.06 113.38 319.75 C 114.79 319.44 114.04 318.85 118.38 318.00 C 122.71 317.15 133.88 315.62 139.38 314.62 C 144.88 313.62 145.38 312.94 151.38 312.00 C 157.38 311.06 171.29 309.56 175.38 309.00 C 179.46 308.44 175.77 308.92 175.88 308.62 C 175.98 308.33 176.00 310.79 176.00 307.25 C 176.00 303.71 176.02 290.75 175.88 287.38 Z" id="s-10-f-2"/>
<path d="M 128.00 296.50 C 127.94 293.12 134.27 295.08 127.38 296.00 C 120.48 296.92 94.33 300.65 86.62 302.00 C 78.92 303.35 82.25 303.48 81.12 304.12 C 80.00 304.77 80.06 305.38 79.88 305.88 C 79.69 306.38 79.67 306.54 80.00 307.12 C 80.33 307.71 81.02 308.60 81.88 309.38 C 82.73 310.15 82.83 310.52 85.12 311.75 C 87.42 312.98 92.94 315.60 95.62 316.75 C 98.31 317.90 99.48 318.15 101.25 318.62 C 103.02 319.10 104.23 319.44 106.25 319.62 C 108.27 319.81 111.35 320.02 113.38 319.75 C 115.40 319.48 115.98 318.58 118.38 318.00 C 120.77 317.42 126.15 319.83 127.75 316.25 C 129.35 312.67 128.06 299.88 128.00 296.50 Z" id="s-10-f-3"/>
</g>
<g id="s-11" clip-path="url(#c-s-11)">
<use href="#s-11-f-0"/>
<path d="M 157.12 236.00 C 155.27 236.27 154.94 237.04 154.25 237.62 C 153.56 238.21 153.19 238.35 153.00 239.50 C 152.81 240.65 152.65 242.50 153.12 244.50 C 153.60 246.50 155.10 248.83 155.88 251.50 C 156.65 254.17 157.10 254.44 157.75 260.50 C 158.40 266.56 159.42 265.77 159.75 287.88 C 160.08 309.98 159.92 372.25 159.75 393.12 C 159.58 414.00 159.08 408.21 158.75 413.12 C 158.42 418.04 158.08 420.23 157.75 422.62 C 157.42 425.02 156.60 426.60 156.75 427.50 C 156.90 428.40 154.56 427.92 158.62 428.00 C 162.69 428.08 177.00 428.12 181.12 428.00 C 185.25 427.88 183.23 433.94 183.38 427.25 C 183.52 420.56 182.23 411.71 182.00 387.88 C 181.77 364.04 181.52 305.85 182.00 284.25 C 182.48 262.65 183.96 263.77 184.88 258.25 C 185.79 252.73 187.00 252.98 187.50 251.12 C 188.00 249.27 187.98 248.21 187.88 247.12 C 187.77 246.04 187.48 245.46 186.88 244.62 C 186.27 243.79 184.98 242.73 184.25 242.12 C 183.52 241.52 184.00 241.67 182.50 241.00 C 181.00 240.33 178.10 238.96 175.25 238.12 C 172.40 237.29 168.40 236.35 165.38 236.00 C 162.35 235.65 158.98 235.73 157.12 236.00 Z" id="s-11-f-1"/>
<path d="M 157.12 236.00 C 155.31 236.23 155.17 236.83 154.50 237.38 C 153.83 237.92 153.40 238.38 153.12 239.25 C 152.85 240.12 152.88 241.75 152.88 242.62 C 152.88 243.50 152.48 242.50 153.12 244.50 C 153.77 246.50 155.96 251.77 156.75 254.62 C 157.54 257.48 157.38 256.08 157.88 261.62 C 158.38 267.17 159.48 279.73 159.75 287.88 C 160.02 296.02 159.42 295.46 159.50 310.50 C 159.58 325.54 160.06 366.56 160.25 378.12 C 160.44 389.69 157.25 379.62 160.62 379.88 C 164.00 380.12 176.98 379.96 180.50 379.62 C 184.02 379.29 181.50 393.77 181.75 377.88 C 182.00 361.98 181.48 304.19 182.00 284.25 C 182.52 264.31 183.94 263.85 184.88 258.25 C 185.81 252.65 187.15 252.62 187.62 250.62 C 188.10 248.62 187.88 247.25 187.75 246.25 C 187.62 245.25 187.52 245.35 186.88 244.62 C 186.23 243.90 185.81 242.96 183.88 241.88 C 181.94 240.79 178.33 239.10 175.25 238.12 C 172.17 237.15 168.40 236.35 165.38 236.00 C 162.35 235.65 158.94 235.77 157.12 236.00 Z" id="s-11-f-2"/>
<path d="M 156.62 236.12 C 154.81 236.35 155.08 236.85 154.50 237.38 C 153.92 237.90 153.40 238.38 153.12 239.25 C 152.85 240.12 152.88 241.75 152.88 242.62 C 152.88 243.50 152.48 242.50 153.12 244.50 C 153.77 246.50 155.81 250.33 156.75 254.62 C 157.69 258.92 158.25 264.65 158.75 270.25 C 159.25 275.85 159.62 281.54 159.75 288.25 C 159.88 294.96 159.48 303.27 159.50 310.50 C 159.52 317.73 159.56 328.04 159.88 331.62 C 160.19 335.21 157.75 331.96 161.38 332.00 C 165.00 332.04 178.19 331.94 181.62 331.88 C 185.06 331.81 181.96 335.56 182.00 331.62 C 182.04 327.69 181.83 312.27 181.88 308.25 C 181.92 304.23 182.23 311.50 182.25 307.50 C 182.27 303.50 181.56 292.46 182.00 284.25 C 182.44 276.04 183.94 263.85 184.88 258.25 C 185.81 252.65 187.15 252.62 187.62 250.62 C 188.10 248.62 187.88 247.25 187.75 246.25 C 187.62 245.25 187.52 245.35 186.88 244.62 C 186.23 243.90 185.81 242.96 183.88 241.88 C 181.94 240.79 178.33 239.10 175.25 238.12 C 172.17 237.15 168.48 236.33 165.38 236.00 C 162.27 235.67 158.44 235.90 156.62 236.12 Z" id="s-11-f-3"/>
<path d="M 155.12 236.88 C 154.46 237.48 153.35 238.48 153.00 239.62 C 152.65 240.77 152.52 241.77 153.00 243.75 C 153.48 245.73 155.08 248.69 155.88 251.50 C 156.67 254.31 157.17 255.31 157.75 260.62 C 158.33 265.94 159.02 279.50 159.38 283.38 C 159.73 287.25 156.10 283.83 159.88 283.88 C 163.65 283.92 177.81 288.02 182.00 283.62 C 186.19 279.23 184.04 263.10 185.00 257.50 C 185.96 251.90 187.29 251.88 187.75 250.00 C 188.21 248.12 187.90 247.15 187.75 246.25 C 187.60 245.35 187.75 245.50 186.88 244.62 C 186.00 243.75 185.12 242.27 182.50 241.00 C 179.88 239.73 174.46 237.85 171.12 237.00 C 167.79 236.15 164.85 236.04 162.50 235.88 C 160.15 235.71 158.23 235.83 157.00 236.00 C 155.77 236.17 155.79 236.27 155.12 236.88 Z" id="s-11-f-4"/>
</g>
<g id="s-12" clip-path="url(#c-s-12)">
<use href="#s-12-f-0"/>
<path d="M 159.88 291.38 C 159.69 289.96 159.15 291.31 159.12 291.38 C 159.10 291.44 159.81 291.62 159.75 291.75 C 159.69 291.88 159.10 291.67 158.75 292.12 C 158.40 292.58 158.02 293.38 157.62 294.50 C 157.23 295.62 156.71 298.00 156.38 298.88 C 156.04 299.75 155.77 299.33 155.62 299.75 C 155.48 300.17 155.65 300.96 155.50 301.38 C 155.35 301.79 155.10 301.33 154.75 302.25 C 154.40 303.17 153.73 305.96 153.38 306.88 C 153.02 307.79 152.94 306.81 152.62 307.75 C 152.31 308.69 152.17 310.65 151.50 312.50 C 150.83 314.35 151.12 313.94 148.62 318.88 C 146.12 323.81 139.85 336.08 136.50 342.12 C 133.15 348.17 131.00 351.25 128.50 355.12 C 126.00 359.00 125.48 360.21 121.50 365.38 C 117.52 370.54 107.40 382.54 104.62 386.12 C 101.85 389.71 100.54 386.77 104.88 386.88 C 109.21 386.98 125.10 388.23 130.62 386.75 C 136.15 385.27 135.27 381.46 138.00 378.00 C 140.73 374.54 143.69 370.69 147.00 366.00 C 150.31 361.31 155.71 352.96 157.88 349.88 C 160.04 346.79 159.60 355.83 160.00 347.50 C 160.40 339.17 160.27 309.23 160.25 299.88 C 160.23 290.52 160.06 292.79 159.88 291.38 Z" id="s-12-f-1"/>
<path d="M 159.88 291.38 C 159.69 289.96 159.15 291.31 159.12 291.38 C 159.10 291.44 159.81 291.62 159.75 291.75 C 159.69 291.88 158.98 291.77 158.75 292.12 C 158.52 292.48 158.56 293.48 158.38 293.88 C 158.19 294.27 157.96 293.67 157.62 294.50 C 157.29 295.33 156.71 298.00 156.38 298.88 C 156.04 299.75 155.77 299.33 155.62 299.75 C 155.48 300.17 155.65 300.96 155.50 301.38 C 155.35 301.79 155.10 301.33 154.75 302.25 C 154.40 303.17 153.73 305.96 153.38 306.88 C 153.02 307.79 153.10 306.42 152.62 307.75 C 152.15 309.08 152.35 310.65 150.50 314.88 C 148.65 319.10 143.50 329.19 141.50 333.12 C 139.50 337.06 138.94 337.54 138.50 338.50 C 138.06 339.46 135.29 338.83 138.88 338.88 C 142.46 338.92 156.44 345.25 160.00 338.75 C 163.56 332.25 160.27 307.77 160.25 299.88 C 160.23 291.98 160.06 292.79 159.88 291.38 Z" id="s-12-f-2"/>
</g>
<g id="s-13" clip-path="url(#c-s-13)">
<use href="#s-13-f-0"/>
</g>
<g id="s-14" clip-path="url(#c-s-14)">
<use href="#s-14-f-0"/>
<path d="M 379.00 273.00 C 378.92 270.69 380.02 272.88 378.38 271.88 C 376.73 270.88 372.50 268.46 369.12 267.00 C 365.75 265.54 360.77 263.79 358.12 263.12 C 355.48 262.46 356.38 262.40 353.25 263.00 C 350.12 263.60 348.25 264.94 339.38 266.75 C 330.50 268.56 311.21 271.71 300.00 273.88 C 288.79 276.04 281.83 277.90 272.12 279.75 C 262.42 281.60 247.71 283.79 241.75 285.00 C 235.79 286.21 237.46 286.48 236.38 287.00 C 235.29 287.52 235.50 287.73 235.25 288.12 C 235.00 288.52 234.83 288.92 234.88 289.38 C 234.92 289.83 235.06 290.29 235.50 290.88 C 235.94 291.46 236.69 292.23 237.50 292.88 C 238.31 293.52 237.98 293.62 240.38 294.75 C 242.77 295.88 248.48 298.46 251.88 299.62 C 255.27 300.79 258.25 301.40 260.75 301.75 C 263.25 302.10 264.31 302.19 266.88 301.75 C 269.44 301.31 271.85 299.96 276.12 299.12 C 280.40 298.29 284.56 298.27 292.50 296.75 C 300.44 295.23 315.08 291.46 323.75 290.00 C 332.42 288.54 335.50 288.60 344.50 288.00 C 353.50 287.40 372.02 286.75 377.75 286.38 C 383.48 286.00 378.67 287.98 378.88 285.75 C 379.08 283.52 379.08 275.31 379.00 273.00 Z" id="s-14-f-1"/>
<path d="M 330.88 268.75 C 330.73 265.54 331.33 267.96 330.12 268.12 C 328.92 268.29 325.19 269.46 323.62 269.75 C 322.06 270.04 329.33 268.21 320.75 269.88 C 312.17 271.54 285.29 277.23 272.12 279.75 C 258.96 282.27 247.71 283.79 241.75 285.00 C 235.79 286.21 237.52 286.35 236.38 287.00 C 235.23 287.65 235.10 288.35 234.88 288.88 C 234.65 289.40 234.54 289.44 235.00 290.12 C 235.46 290.81 236.73 292.23 237.62 293.00 C 238.52 293.77 238.00 293.65 240.38 294.75 C 242.75 295.85 248.48 298.46 251.88 299.62 C 255.27 300.79 258.44 301.38 260.75 301.75 C 263.06 302.12 262.23 302.50 265.75 301.88 C 269.27 301.25 277.42 298.85 281.88 298.00 C 286.33 297.15 285.52 298.08 292.50 296.75 C 299.48 295.42 317.44 291.23 323.75 290.00 C 330.06 288.77 329.19 289.56 330.38 289.38 C 331.56 289.19 330.77 289.21 330.88 288.88 C 330.98 288.54 331.00 290.73 331.00 287.38 C 331.00 284.02 331.02 271.96 330.88 268.75 Z" id="s-14-f-2"/>
<path d="M 282.75 278.12 C 282.60 275.79 288.92 276.60 282.12 277.75 C 275.33 278.90 249.67 283.44 242.00 285.00 C 234.33 286.56 237.29 286.54 236.12 287.12 C 234.96 287.71 235.21 288.12 235.00 288.50 C 234.79 288.88 234.79 288.98 234.88 289.38 C 234.96 289.77 235.06 290.29 235.50 290.88 C 235.94 291.46 236.69 292.23 237.50 292.88 C 238.31 293.52 237.98 293.62 240.38 294.75 C 242.77 295.88 248.62 298.48 251.88 299.62 C 255.12 300.77 257.19 301.29 259.88 301.62 C 262.56 301.96 265.92 301.90 268.00 301.62 C 270.08 301.35 269.94 300.62 272.38 300.00 C 274.81 299.38 280.85 299.25 282.62 297.88 C 284.40 296.50 282.98 295.04 283.00 291.75 C 283.02 288.46 282.90 280.46 282.75 278.12 Z" id="s-14-f-3"/>
</g>
<g id="s-15" clip-path="url(#c-s-15)">
<use href="#s-15-f-0"/>
<path d="M 292.38 222.00 C 290.19 222.12 290.06 222.54 289.25 222.88 C 288.44 223.21 287.90 223.60 287.50 224.00 C 287.10 224.40 286.94 224.54 286.88 225.25 C 286.81 225.96 286.90 227.40 287.12 228.25 C 287.35 229.10 287.58 229.50 288.25 230.38 C 288.92 231.25 290.40 232.54 291.12 233.50 C 291.85 234.46 292.19 235.10 292.62 236.12 C 293.06 237.15 293.21 237.10 293.75 239.62 C 294.29 242.15 295.35 245.75 295.88 251.25 C 296.40 256.75 296.77 268.60 296.88 272.62 C 296.98 276.65 296.52 264.12 296.50 275.38 C 296.48 286.62 296.88 324.98 296.75 340.12 C 296.62 355.27 296.25 357.40 295.75 366.25 C 295.25 375.10 294.42 386.38 293.75 393.25 C 293.08 400.12 292.58 402.69 291.75 407.50 C 290.92 412.31 289.85 418.10 288.75 422.12 C 287.65 426.15 285.75 429.17 285.12 431.62 C 284.50 434.08 284.50 433.79 285.00 436.88 C 285.50 439.96 286.92 445.98 288.12 450.12 C 289.33 454.27 287.67 459.77 292.25 461.75 C 296.83 463.73 311.54 462.10 315.62 462.00 C 319.71 461.90 315.92 463.25 316.75 461.12 C 317.58 459.00 319.65 453.02 320.62 449.25 C 321.60 445.48 322.27 442.83 322.62 438.50 C 322.98 434.17 323.19 428.71 322.75 423.25 C 322.31 417.79 320.62 410.67 320.00 405.75 C 319.38 400.83 319.15 403.77 319.00 393.75 C 318.85 383.73 318.98 359.92 319.12 345.62 C 319.27 331.33 319.50 317.10 319.88 308.00 C 320.25 298.90 321.00 294.17 321.38 291.00 C 321.75 287.83 321.96 290.69 322.12 289.00 C 322.29 287.31 322.21 282.71 322.38 280.88 C 322.54 279.04 323.02 280.08 323.12 278.00 C 323.23 275.92 322.85 271.35 323.00 268.38 C 323.15 265.40 323.50 262.98 324.00 260.12 C 324.50 257.27 325.06 253.90 326.00 251.25 C 326.94 248.60 329.00 246.15 329.62 244.25 C 330.25 242.35 329.90 241.04 329.75 239.88 C 329.60 238.71 329.58 238.44 328.75 237.25 C 327.92 236.06 326.02 233.96 324.75 232.75 C 323.48 231.54 323.29 231.27 321.12 230.00 C 318.96 228.73 314.88 226.44 311.75 225.12 C 308.62 223.81 305.60 222.65 302.38 222.12 C 299.15 221.60 294.56 221.88 292.38 222.00 Z" id="s-15-f-1"/>
<path d="M 292.38 222.00 C 290.33 222.15 290.06 222.54 289.25 222.88 C 288.44 223.21 287.90 223.60 287.50 224.00 C 287.10 224.40 286.98 224.81 286.88 225.25 C 286.77 225.69 286.69 225.81 286.88 226.62 C 287.06 227.44 287.29 228.98 288.00 230.12 C 288.71 231.27 290.35 232.50 291.12 233.50 C 291.90 234.50 292.08 234.62 292.62 236.12 C 293.17 237.62 293.83 239.98 294.38 242.50 C 294.92 245.02 295.46 246.23 295.88 251.25 C 296.29 256.27 296.77 268.60 296.88 272.62 C 296.98 276.65 296.52 264.12 296.50 275.38 C 296.48 286.62 297.04 322.31 296.75 340.12 C 296.46 357.94 295.42 372.17 294.75 382.25 C 294.08 392.33 293.46 395.42 292.75 400.62 C 292.04 405.83 290.48 411.27 290.50 413.50 C 290.52 415.73 287.85 413.94 292.88 414.00 C 297.90 414.06 315.92 414.06 320.62 413.88 C 325.33 413.69 321.23 414.23 321.12 412.88 C 321.02 411.52 320.35 408.94 320.00 405.75 C 319.65 402.56 319.15 403.77 319.00 393.75 C 318.85 383.73 318.98 359.92 319.12 345.62 C 319.27 331.33 319.50 317.10 319.88 308.00 C 320.25 298.90 321.00 294.17 321.38 291.00 C 321.75 287.83 321.96 290.69 322.12 289.00 C 322.29 287.31 322.21 282.71 322.38 280.88 C 322.54 279.04 323.02 280.08 323.12 278.00 C 323.23 275.92 322.85 271.35 323.00 268.38 C 323.15 265.40 323.50 262.98 324.00 260.12 C 324.50 257.27 325.06 253.90 326.00 251.25 C 326.94 248.60 329.00 246.15 329.62 244.25 C 330.25 242.35 329.90 241.04 329.75 239.88 C 329.60 238.71 329.58 238.44 328.75 237.25 C 327.92 236.06 326.02 233.96 324.75 232.75 C 323.48 231.54 323.29 231.27 321.12 230.00 C 318.96 228.73 314.25 226.29 311.75 225.12 C 309.25 223.96 307.83 223.52 306.12 223.00 C 304.42 222.48 303.79 222.17 301.50 222.00 C 299.21 221.83 294.42 221.85 292.38 222.00 Z" id="s-15-f-2"/>
<path d="M 292.38 222.00 C 290.33 222.15 290.06 222.54 289.25 222.88 C 288.44 223.21 287.90 223.60 287.50 224.00 C 287.10 224.40 286.98 224.81 286.88 225.25 C 286.77 225.69 286.69 225.81 286.88 226.62 C 287.06 227.44 287.19 228.83 288.00 230.12 C 288.81 231.42 290.79 232.79 291.75 234.38 C 292.71 235.96 293.08 237.00 293.75 239.62 C 294.42 242.25 295.29 246.77 295.75 250.12 C 296.21 253.48 296.31 256.15 296.50 259.75 C 296.69 263.35 296.88 269.15 296.88 271.75 C 296.88 274.35 296.52 263.98 296.50 275.38 C 296.48 286.77 296.83 325.21 296.75 340.12 C 296.67 355.04 295.92 360.62 296.00 364.88 C 296.08 369.12 296.10 365.46 297.25 365.62 C 298.40 365.79 299.29 365.88 302.88 365.88 C 306.46 365.88 315.92 375.27 318.75 365.62 C 321.58 355.98 319.44 320.44 319.88 308.00 C 320.31 295.56 321.00 294.17 321.38 291.00 C 321.75 287.83 321.96 290.69 322.12 289.00 C 322.29 287.31 322.21 282.71 322.38 280.88 C 322.54 279.04 323.02 280.08 323.12 278.00 C 323.23 275.92 322.69 272.23 323.00 268.38 C 323.31 264.52 324.33 258.15 325.00 254.88 C 325.67 251.60 326.38 250.17 327.00 248.75 C 327.62 247.33 328.31 247.12 328.75 246.38 C 329.19 245.62 329.46 245.33 329.62 244.25 C 329.79 243.17 329.90 241.04 329.75 239.88 C 329.60 238.71 329.58 238.44 328.75 237.25 C 327.92 236.06 326.02 233.96 324.75 232.75 C 323.48 231.54 323.29 231.27 321.12 230.00 C 318.96 228.73 314.25 226.29 311.75 225.12 C 309.25 223.96 307.83 223.52 306.12 223.00 C 304.42 222.48 303.79 222.17 301.50 222.00 C 299.21 221.83 294.42 221.85 292.38 222.00 Z" id="s-15-f-3"/>
<path d="M 290.75 222.38 C 289.71 222.56 289.35 222.67 288.75 223.00 C 288.15 223.33 287.44 223.77 287.12 224.38 C 286.81 224.98 286.73 225.69 286.88 226.62 C 287.02 227.56 287.29 228.85 288.00 230.00 C 288.71 231.15 290.33 232.42 291.12 233.50 C 291.92 234.58 292.21 235.00 292.75 236.50 C 293.29 238.00 293.85 240.04 294.38 242.50 C 294.90 244.96 295.46 246.38 295.88 251.25 C 296.29 256.12 296.77 267.73 296.88 271.75 C 296.98 275.77 296.50 267.73 296.50 275.38 C 296.50 283.02 296.54 310.52 296.88 317.62 C 297.21 324.73 294.75 317.96 298.50 318.00 C 302.25 318.04 315.81 318.00 319.38 317.88 C 322.94 317.75 319.79 318.90 319.88 317.25 C 319.96 315.60 319.67 311.98 319.88 308.00 C 320.08 304.02 320.75 296.54 321.12 293.38 C 321.50 290.21 321.94 290.88 322.12 289.00 C 322.31 287.12 322.08 283.96 322.25 282.12 C 322.42 280.29 323.00 280.29 323.12 278.00 C 323.25 275.71 322.88 271.21 323.00 268.38 C 323.12 265.54 323.38 263.85 323.88 261.00 C 324.38 258.15 325.04 254.04 326.00 251.25 C 326.96 248.46 329.02 246.23 329.62 244.25 C 330.23 242.27 329.94 240.77 329.62 239.38 C 329.31 237.98 328.56 236.98 327.75 235.88 C 326.94 234.77 325.88 233.73 324.75 232.75 C 323.62 231.77 323.17 231.27 321.00 230.00 C 318.83 228.73 314.23 226.29 311.75 225.12 C 309.27 223.96 307.83 223.52 306.12 223.00 C 304.42 222.48 303.35 222.19 301.50 222.00 C 299.65 221.81 296.79 221.81 295.00 221.88 C 293.21 221.94 291.79 222.19 290.75 222.38 Z" id="s-15-f-4"/>
<path d="M 288.38 223.25 C 287.48 223.71 287.23 223.98 287.00 224.75 C 286.77 225.52 286.79 226.94 287.00 227.88 C 287.21 228.81 287.46 229.29 288.25 230.38 C 289.04 231.46 290.90 233.06 291.75 234.38 C 292.60 235.69 292.69 235.44 293.38 238.25 C 294.06 241.06 295.31 246.29 295.88 251.25 C 296.44 256.21 296.52 264.92 296.75 268.00 C 296.98 271.08 293.00 269.42 297.25 269.75 C 301.50 270.08 317.96 270.10 322.25 270.00 C 326.54 269.90 322.71 270.79 323.00 269.12 C 323.29 267.46 323.50 262.98 324.00 260.00 C 324.50 257.02 325.04 253.92 326.00 251.25 C 326.96 248.58 329.12 245.92 329.75 244.00 C 330.38 242.08 329.92 240.88 329.75 239.75 C 329.58 238.62 329.27 238.12 328.75 237.25 C 328.23 236.38 327.69 235.56 326.62 234.50 C 325.56 233.44 324.21 232.12 322.38 230.88 C 320.54 229.62 317.79 228.12 315.62 227.00 C 313.46 225.88 311.60 224.94 309.38 224.12 C 307.15 223.31 305.08 222.48 302.25 222.12 C 299.42 221.77 294.69 221.81 292.38 222.00 C 290.06 222.19 289.27 222.79 288.38 223.25 Z" id="s-15-f-5"/>
</g>
<g id="s-16" clip-path="url(#c-s-16)">
<use href="#s-16-f-0"/>
<path d="M 297.00 275.38 C 296.85 265.19 296.17 275.31 296.12 275.38 C 296.08 275.44 296.81 275.56 296.75 275.75 C 296.69 275.94 296.10 275.92 295.75 276.50 C 295.40 277.08 294.85 278.44 294.62 279.25 C 294.40 280.06 294.54 280.85 294.38 281.38 C 294.21 281.90 293.77 281.85 293.62 282.38 C 293.48 282.90 293.67 283.98 293.50 284.50 C 293.33 285.02 292.81 284.96 292.62 285.50 C 292.44 286.04 292.54 287.25 292.38 287.75 C 292.21 288.25 291.79 287.98 291.62 288.50 C 291.46 289.02 291.54 290.33 291.38 290.88 C 291.21 291.42 290.92 291.00 290.62 291.75 C 290.33 292.50 289.79 294.44 289.62 295.38 C 289.46 296.31 290.46 295.06 289.62 297.38 C 288.79 299.69 287.94 302.77 284.62 309.25 C 281.31 315.73 273.56 329.58 269.75 336.25 C 265.94 342.92 265.54 343.50 261.75 349.25 C 257.96 355.00 245.06 367.15 247.00 370.75 C 248.94 374.35 266.92 373.73 273.38 370.88 C 279.83 368.02 282.00 359.21 285.75 353.62 C 289.50 348.04 294.00 340.23 295.88 337.38 C 297.75 334.52 296.81 346.83 297.00 336.50 C 297.19 326.17 297.15 285.56 297.00 275.38 Z" id="s-16-f-1"/>
<path d="M 297.00 275.38 C 296.81 267.52 296.17 275.31 296.12 275.38 C 296.08 275.44 296.81 275.56 296.75 275.75 C 296.69 275.94 296.10 275.92 295.75 276.50 C 295.40 277.08 294.85 278.44 294.62 279.25 C 294.40 280.06 294.54 280.85 294.38 281.38 C 294.21 281.90 293.77 281.85 293.62 282.38 C 293.48 282.90 293.67 283.98 293.50 284.50 C 293.33 285.02 292.81 284.96 292.62 285.50 C 292.44 286.04 292.54 287.25 292.38 287.75 C 292.21 288.25 291.79 287.98 291.62 288.50 C 291.46 289.02 291.54 290.33 291.38 290.88 C 291.21 291.42 291.04 290.33 290.62 291.75 C 290.21 293.17 289.69 296.83 288.88 299.38 C 288.06 301.92 287.62 303.21 285.75 307.00 C 283.88 310.79 278.92 319.48 277.62 322.12 C 276.33 324.77 274.79 322.73 278.00 322.88 C 281.21 323.02 293.67 323.06 296.88 323.00 C 300.08 322.94 297.23 330.44 297.25 322.50 C 297.27 314.56 297.19 283.23 297.00 275.38 Z" id="s-16-f-2"/>
</g>
<g id="s-17" clip-path="url(#c-s-17)">
<use href="#s-17-f-0"/>
<path d="M 320.62 285.25 C 320.29 286.67 319.79 289.73 319.62 293.38 C 319.46 297.02 317.33 301.83 319.62 307.12 C 321.92 312.42 329.56 319.92 333.38 325.12 C 337.19 330.33 336.58 329.19 342.50 338.38 C 348.42 347.56 364.27 373.15 368.88 380.25 C 373.48 387.35 362.04 380.92 370.12 381.00 C 378.21 381.08 409.52 380.92 417.38 380.75 C 425.23 380.58 418.85 381.00 417.25 380.00 C 415.65 379.00 411.44 377.02 407.75 374.75 C 404.06 372.48 398.92 369.12 395.12 366.38 C 391.33 363.62 387.65 360.50 385.00 358.25 C 382.35 356.00 383.60 357.54 379.25 352.88 C 374.90 348.21 365.83 338.54 358.88 330.25 C 351.92 321.96 343.19 309.75 337.50 303.12 C 331.81 296.50 327.25 293.23 324.75 290.50 C 322.25 287.77 322.94 287.62 322.50 286.75 C 322.06 285.88 322.27 285.56 322.12 285.25 C 321.98 284.94 321.88 284.88 321.62 284.88 C 321.38 284.88 320.96 283.83 320.62 285.25 Z" id="s-17-f-1"/>
<path d="M 320.88 285.00 C 320.48 285.96 319.96 287.31 319.75 291.00 C 319.54 294.69 317.35 301.44 319.62 307.12 C 321.90 312.81 330.31 320.94 333.38 325.12 C 336.44 329.31 336.81 330.94 338.00 332.25 C 339.19 333.56 336.75 332.90 340.50 333.00 C 344.25 333.10 357.12 333.00 360.50 332.88 C 363.88 332.75 362.40 334.38 360.75 332.25 C 359.10 330.12 354.42 324.88 350.62 320.12 C 346.83 315.38 341.50 307.94 338.00 303.75 C 334.50 299.56 331.81 297.17 329.62 295.00 C 327.44 292.83 326.06 292.12 324.88 290.75 C 323.69 289.38 322.96 287.67 322.50 286.75 C 322.04 285.83 322.40 285.54 322.12 285.25 C 321.85 284.96 321.27 284.04 320.88 285.00 Z" id="s-17-f-2"/>
</g>
</svg>