<?xml version="1.0" encoding="UTF-8"?>
<svg xmlns="http://www.w3.org/2000/svg" viewBox="0 0 500 500">
<defs>
<path d="M 180.00 61.75 C 177.44 60.08 172.10 56.60 169.00 55.00 C 165.90 53.40 163.65 52.60 161.38 52.12 C 159.10 51.65 156.69 51.94 155.38 52.12 C 154.06 52.31 154.04 52.79 153.50 53.25 C 152.96 53.71 152.54 54.02 152.12 54.88 C 151.71 55.73 151.25 56.06 151.00 58.38 C 150.75 60.69 150.85 65.58 150.62 68.75 C 150.40 71.92 150.10 74.42 149.62 77.38 C 149.15 80.33 148.56 83.21 147.75 86.50 C 146.94 89.79 146.25 92.75 144.75 97.12 C 143.25 101.50 141.92 105.56 138.75 112.75 C 135.58 119.94 130.29 131.33 125.75 140.25 C 121.21 149.17 115.81 158.83 111.50 166.25 C 107.19 173.67 106.65 174.92 99.88 184.75 C 93.10 194.58 78.58 214.79 70.88 225.25 C 63.17 235.71 58.85 241.04 53.62 247.50 C 48.40 253.96 44.88 257.96 39.50 264.00 C 34.12 270.04 24.62 280.12 21.38 283.75 C 18.12 287.38 20.19 285.10 20.00 285.75 C 19.81 286.40 19.25 287.31 20.25 287.62 C 21.25 287.94 24.15 287.96 26.00 287.62 C 27.85 287.29 29.60 286.44 31.38 285.62 C 33.15 284.81 33.19 284.90 36.62 282.75 C 40.06 280.60 47.88 275.56 52.00 272.75 C 56.12 269.94 57.83 268.65 61.38 265.88 C 64.92 263.10 69.88 259.02 73.25 256.12 C 76.62 253.23 77.62 252.50 81.62 248.50 C 85.62 244.50 88.71 242.27 97.25 232.12 C 105.79 221.98 123.29 200.94 132.88 187.62 C 142.46 174.31 149.10 161.67 154.75 152.25 C 160.40 142.83 162.38 139.10 166.75 131.12 C 171.12 123.15 177.83 109.96 181.00 104.38 C 184.17 98.79 184.12 99.71 185.75 97.62 C 187.38 95.54 189.42 93.73 190.75 91.88 C 192.08 90.02 193.06 88.15 193.75 86.50 C 194.44 84.85 194.71 83.33 194.88 82.00 C 195.04 80.67 194.94 79.58 194.75 78.50 C 194.56 77.42 194.69 77.00 193.75 75.50 C 192.81 74.00 190.69 71.25 189.12 69.50 C 187.56 67.75 185.90 66.29 184.38 65.00 C 182.85 63.71 182.56 63.42 180.00 61.75 Z" id="s-0-f-0"/>
<clipPath id="c-s-0"><use href="#s-0-f-0"/></clipPath>
<path d="M 133.12 185.75 C 132.40 186.27 132.62 186.98 130.38 189.88 C 128.12 192.77 121.06 198.75 119.62 203.12 C 118.19 207.50 121.23 211.35 121.75 216.12 C 122.27 220.90 122.60 222.94 122.75 231.75 C 122.90 240.56 122.98 253.77 122.62 269.00 C 122.27 284.23 121.27 310.38 120.62 323.12 C 119.98 335.88 119.40 339.17 118.75 345.50 C 118.10 351.83 117.42 356.67 116.75 361.12 C 116.08 365.58 116.04 366.85 114.75 372.25 C 113.46 377.65 110.15 388.79 109.00 393.50 C 107.85 398.21 108.02 398.33 107.88 400.50 C 107.73 402.67 107.77 404.19 108.12 406.50 C 108.48 408.81 108.50 409.96 110.00 414.38 C 111.50 418.79 115.60 429.17 117.12 433.00 C 118.65 436.83 118.23 435.73 119.12 437.38 C 120.02 439.02 121.44 441.48 122.50 442.88 C 123.56 444.27 124.54 445.08 125.50 445.75 C 126.46 446.42 127.42 446.73 128.25 446.88 C 129.08 447.02 129.85 446.85 130.50 446.62 C 131.15 446.40 131.56 446.02 132.12 445.50 C 132.69 444.98 133.29 444.35 133.88 443.50 C 134.46 442.65 134.35 443.58 135.62 440.38 C 136.90 437.17 140.00 429.06 141.50 424.25 C 143.00 419.44 143.75 426.19 144.62 411.50 C 145.50 396.81 146.35 356.71 146.75 336.12 C 147.15 315.54 146.79 303.31 147.00 288.00 C 147.21 272.69 147.67 253.71 148.00 244.25 C 148.33 234.79 148.54 234.56 149.00 231.25 C 149.46 227.94 150.27 226.79 150.75 224.38 C 151.23 221.96 151.75 218.71 151.88 216.75 C 152.00 214.79 152.02 214.35 151.50 212.62 C 150.98 210.90 150.88 209.85 148.75 206.38 C 146.62 202.90 141.08 195.02 138.75 191.75 C 136.42 188.48 135.69 187.75 134.75 186.75 C 133.81 185.75 133.85 185.23 133.12 185.75 Z" id="s-1-f-0"/>
<clipPath id="c-s-1"><use href="#s-1-f-0"/></clipPath>
<path d="M 411.88 101.25 C 411.75 100.23 411.23 99.19 410.75 98.38 C 410.27 97.56 410.27 97.46 409.00 96.38 C 407.73 95.29 405.60 93.27 403.12 91.88 C 400.65 90.48 396.62 88.96 394.12 88.00 C 391.62 87.04 389.88 86.60 388.12 86.12 C 386.38 85.65 385.31 85.33 383.62 85.12 C 381.94 84.92 379.27 84.88 378.00 84.88 C 376.73 84.88 378.06 84.48 376.00 85.12 C 373.94 85.77 370.83 87.31 365.62 88.75 C 360.42 90.19 357.46 91.25 344.75 93.75 C 332.04 96.25 306.06 101.08 289.38 103.75 C 272.69 106.42 257.15 108.33 244.62 109.75 C 232.10 111.17 220.75 111.54 214.25 112.25 C 207.75 112.96 207.38 113.50 205.62 114.00 C 203.88 114.50 204.21 114.85 203.75 115.25 C 203.29 115.65 203.02 116.00 202.88 116.38 C 202.73 116.75 202.54 116.81 202.88 117.50 C 203.21 118.19 203.90 119.44 204.88 120.50 C 205.85 121.56 207.62 122.98 208.75 123.88 C 209.88 124.77 210.42 125.23 211.62 125.88 C 212.83 126.52 213.02 127.10 216.00 127.75 C 218.98 128.40 222.42 129.40 229.50 129.75 C 236.58 130.10 241.69 131.19 258.50 129.88 C 275.31 128.56 314.77 123.71 330.38 121.88 C 345.98 120.04 343.35 120.23 352.12 118.88 C 360.90 117.52 375.35 115.10 383.00 113.75 C 390.65 112.40 394.25 111.60 398.00 110.75 C 401.75 109.90 403.65 109.29 405.50 108.62 C 407.35 107.96 408.12 107.44 409.12 106.75 C 410.12 106.06 411.04 105.42 411.50 104.50 C 411.96 103.58 412.00 102.27 411.88 101.25 Z" id="s-2-f-0"/>
<clipPath id="c-s-2"><use href="#s-2-f-0"/></clipPath>
<path d="M 283.50 126.62 C 280.92 126.75 272.75 127.31 269.75 127.62 C 266.75 127.94 267.17 128.33 265.50 128.50 C 263.83 128.67 261.50 128.40 259.75 128.62 C 258.00 128.85 255.77 129.46 255.00 129.88 C 254.23 130.29 254.67 129.88 255.12 131.12 C 255.58 132.38 257.15 135.65 257.75 137.38 C 258.35 139.10 258.08 137.85 258.75 141.50 C 259.42 145.15 261.06 154.50 261.75 159.25 C 262.44 164.00 262.50 164.92 262.88 170.00 C 263.25 175.08 263.19 181.12 264.00 189.75 C 264.81 198.38 266.27 213.69 267.75 221.75 C 269.23 229.81 271.56 234.71 272.88 238.12 C 274.19 241.54 274.83 241.31 275.62 242.25 C 276.42 243.19 276.81 243.52 277.62 243.75 C 278.44 243.98 279.79 243.79 280.50 243.62 C 281.21 243.46 281.17 243.46 281.88 242.75 C 282.58 242.04 284.10 240.29 284.75 239.38 C 285.40 238.46 285.40 238.58 285.75 237.25 C 286.10 235.92 286.60 237.50 286.88 231.38 C 287.15 225.25 287.06 211.85 287.38 200.50 C 287.69 189.15 288.50 174.27 288.75 163.25 C 289.00 152.23 288.88 139.56 288.88 134.38 C 288.88 129.19 288.92 132.79 288.75 132.12 C 288.58 131.46 288.46 131.25 287.88 130.38 C 287.29 129.50 285.98 127.50 285.25 126.88 C 284.52 126.25 286.08 126.50 283.50 126.62 Z" id="s-3-f-0"/>
<clipPath id="c-s-3"><use href="#s-3-f-0"/></clipPath>
<path d="M 269.12 222.50 C 268.88 221.88 268.62 221.19 267.88 220.88 C 267.12 220.56 267.19 221.08 264.62 220.62 C 262.06 220.17 255.33 218.58 252.50 218.12 C 249.67 217.67 250.19 217.15 247.62 217.88 C 245.06 218.60 240.56 221.19 237.12 222.50 C 233.69 223.81 230.10 224.85 227.00 225.75 C 223.90 226.65 220.04 227.35 218.50 227.88 C 216.96 228.40 217.73 228.48 217.75 228.88 C 217.77 229.27 217.79 227.96 218.62 230.25 C 219.46 232.54 221.67 240.38 222.75 242.62 C 223.83 244.88 223.71 243.56 225.12 243.75 C 226.54 243.94 223.46 245.40 231.25 243.75 C 239.04 242.10 265.06 235.77 271.88 233.88 C 278.69 231.98 272.38 233.38 272.12 232.38 C 271.88 231.38 270.71 228.98 270.38 227.88 C 270.04 226.77 270.29 226.29 270.12 225.75 C 269.96 225.21 269.54 225.17 269.38 224.62 C 269.21 224.08 269.38 223.12 269.12 222.50 Z" id="s-4-f-0"/>
<clipPath id="c-s-4"><use href="#s-4-f-0"/></clipPath>
<path d="M 189.88 222.88 C 189.06 223.42 188.17 223.85 187.88 225.25 C 187.58 226.65 187.77 228.92 188.12 231.25 C 188.48 233.58 188.90 235.85 190.00 239.25 C 191.10 242.65 193.29 247.17 194.75 251.62 C 196.21 256.08 197.65 261.19 198.75 266.00 C 199.85 270.81 200.71 275.67 201.38 280.50 C 202.04 285.33 202.52 291.08 202.75 295.00 C 202.98 298.92 202.92 301.58 202.75 304.00 C 202.58 306.42 202.27 307.62 201.75 309.50 C 201.23 311.38 200.25 313.92 199.62 315.25 C 199.00 316.58 198.44 316.69 198.00 317.50 C 197.56 318.31 197.17 319.08 197.00 320.12 C 196.83 321.17 196.83 322.71 197.00 323.75 C 197.17 324.79 196.50 324.21 198.00 326.38 C 199.50 328.54 204.25 334.73 206.00 336.75 C 207.75 338.77 207.52 338.15 208.50 338.50 C 209.48 338.85 210.62 339.00 211.88 338.88 C 213.12 338.75 214.21 338.56 216.00 337.75 C 217.79 336.94 219.75 335.44 222.62 334.00 C 225.50 332.56 229.46 330.62 233.25 329.12 C 237.04 327.62 242.33 325.85 245.38 325.00 C 248.42 324.15 249.88 324.17 251.50 324.00 C 253.12 323.83 254.02 323.71 255.12 324.00 C 256.23 324.29 257.50 325.21 258.12 325.75 C 258.75 326.29 258.62 325.73 258.88 327.25 C 259.12 328.77 259.08 323.44 259.62 334.88 C 260.17 346.31 261.56 384.02 262.12 395.88 C 262.69 407.73 262.79 404.19 263.00 406.00 C 263.21 407.81 263.12 406.58 263.38 406.75 C 263.62 406.92 260.44 407.48 264.50 407.00 C 268.56 406.52 283.44 413.62 287.75 403.88 C 292.06 394.12 289.67 360.25 290.38 348.50 C 291.08 336.75 291.56 336.90 292.00 333.38 C 292.44 329.85 292.54 329.35 293.00 327.38 C 293.46 325.40 294.44 323.23 294.75 321.50 C 295.06 319.77 295.02 318.17 294.88 317.00 C 294.73 315.83 294.65 315.58 293.88 314.50 C 293.10 313.42 291.35 311.58 290.25 310.50 C 289.15 309.42 289.73 309.38 287.25 308.00 C 284.77 306.62 278.83 303.60 275.38 302.25 C 271.92 300.90 268.48 300.21 266.50 299.88 C 264.52 299.54 266.75 298.94 263.50 300.25 C 260.25 301.56 251.98 305.67 247.00 307.75 C 242.02 309.83 236.54 311.75 233.62 312.75 C 230.71 313.75 230.62 313.60 229.50 313.75 C 228.38 313.90 227.62 313.79 226.88 313.62 C 226.12 313.46 225.62 313.38 225.00 312.75 C 224.38 312.12 223.48 320.71 223.12 309.88 C 222.77 299.04 222.85 259.00 222.88 247.75 C 222.90 236.50 223.38 243.94 223.25 242.38 C 223.12 240.81 222.44 239.21 222.12 238.38 C 221.81 237.54 221.54 237.88 221.38 237.38 C 221.21 236.88 221.29 235.88 221.12 235.38 C 220.96 234.88 220.54 234.88 220.38 234.38 C 220.21 233.88 220.29 232.88 220.12 232.38 C 219.96 231.88 219.54 231.88 219.38 231.38 C 219.21 230.88 219.31 229.79 219.12 229.38 C 218.94 228.96 218.50 229.21 218.25 228.88 C 218.00 228.54 218.00 227.81 217.62 227.38 C 217.25 226.94 217.65 226.98 216.00 226.25 C 214.35 225.52 210.62 223.73 207.75 223.00 C 204.88 222.27 201.25 222.04 198.75 221.88 C 196.25 221.71 194.23 221.83 192.75 222.00 C 191.27 222.17 190.69 222.33 189.88 222.88 Z" id="s-5-f-0"/>
<clipPath id="c-s-5"><use href="#s-5-f-0"/></clipPath>
<path d="M 328.12 121.62 C 327.69 122.02 327.40 120.62 328.00 123.12 C 328.60 125.62 330.94 133.15 331.75 136.62 C 332.56 140.10 332.54 140.02 332.88 144.00 C 333.21 147.98 333.60 153.83 333.75 160.50 C 333.90 167.17 333.92 178.17 333.75 184.00 C 333.58 189.83 333.25 192.08 332.75 195.50 C 332.25 198.92 331.44 202.04 330.75 204.50 C 330.06 206.96 329.75 207.83 328.62 210.25 C 327.50 212.67 324.75 216.98 324.00 219.00 C 323.25 221.02 323.62 220.77 324.12 222.38 C 324.62 223.98 326.06 226.90 327.00 228.62 C 327.94 230.35 328.73 231.56 329.75 232.75 C 330.77 233.94 331.52 234.62 333.12 235.75 C 334.73 236.88 337.77 238.81 339.38 239.50 C 340.98 240.19 341.42 240.00 342.75 239.88 C 344.08 239.75 345.40 239.56 347.38 238.75 C 349.35 237.94 350.15 236.46 354.62 235.00 C 359.10 233.54 367.17 231.50 374.25 230.00 C 381.33 228.50 392.65 226.62 397.12 226.00 C 401.60 225.38 399.77 225.94 401.12 226.25 C 402.48 226.56 404.33 227.35 405.25 227.88 C 406.17 228.40 406.21 228.62 406.62 229.38 C 407.04 230.12 407.58 230.96 407.75 232.38 C 407.92 233.79 407.96 234.08 407.62 237.88 C 407.29 241.67 406.88 246.33 405.75 255.12 C 404.62 263.92 401.27 284.50 400.88 290.62 C 400.48 296.75 400.58 291.10 403.38 291.88 C 406.17 292.65 413.73 294.23 417.62 295.25 C 421.52 296.27 425.02 297.56 426.75 298.00 C 428.48 298.44 427.52 298.12 428.00 297.88 C 428.48 297.62 429.04 297.27 429.62 296.50 C 430.21 295.73 430.94 295.27 431.50 293.25 C 432.06 291.23 432.42 287.08 433.00 284.38 C 433.58 281.67 433.65 280.92 435.00 277.00 C 436.35 273.08 439.12 265.69 441.12 260.88 C 443.12 256.06 445.06 251.85 447.00 248.12 C 448.94 244.40 451.27 241.15 452.75 238.50 C 454.23 235.85 455.19 233.92 455.88 232.25 C 456.56 230.58 456.71 229.48 456.88 228.50 C 457.04 227.52 457.04 227.06 456.88 226.38 C 456.71 225.69 456.58 225.35 455.88 224.38 C 455.17 223.40 453.73 221.65 452.62 220.50 C 451.52 219.35 451.33 219.10 449.25 217.50 C 447.17 215.90 443.08 212.60 440.12 210.88 C 437.17 209.15 435.27 208.44 431.50 207.12 C 427.73 205.81 420.92 203.69 417.50 203.00 C 414.08 202.31 416.69 202.31 411.00 203.00 C 405.31 203.69 390.85 205.81 383.38 207.12 C 375.90 208.44 369.96 210.10 366.12 210.88 C 362.29 211.65 361.81 211.65 360.38 211.75 C 358.94 211.85 358.27 211.92 357.50 211.50 C 356.73 211.08 356.15 210.00 355.75 209.25 C 355.35 208.50 355.25 208.00 355.12 207.00 C 355.00 206.00 353.65 212.25 355.00 203.25 C 356.35 194.25 361.58 162.75 363.25 153.00 C 364.92 143.25 364.10 147.44 365.00 144.75 C 365.90 142.06 368.02 139.15 368.62 136.88 C 369.23 134.60 368.92 132.69 368.62 131.12 C 368.33 129.56 367.88 128.92 366.88 127.50 C 365.88 126.08 364.19 124.21 362.62 122.62 C 361.06 121.04 358.58 118.83 357.50 118.00 C 356.42 117.17 356.83 117.69 356.12 117.62 C 355.42 117.56 354.17 117.50 353.25 117.62 C 352.33 117.75 352.00 118.19 350.62 118.38 C 349.25 118.56 346.21 118.58 345.00 118.75 C 343.79 118.92 344.44 119.23 343.38 119.38 C 342.31 119.52 339.92 119.44 338.62 119.62 C 337.33 119.81 336.96 120.31 335.62 120.50 C 334.29 120.69 331.88 120.56 330.62 120.75 C 329.38 120.94 328.56 121.23 328.12 121.62 Z" id="s-6-f-0"/>
<clipPath id="c-s-6"><use href="#s-6-f-0"/></clipPath>
<path d="M 435.62 306.00 C 435.31 305.15 435.40 304.85 434.00 303.38 C 432.60 301.90 429.00 298.29 427.25 297.12 C 425.50 295.96 424.33 296.62 423.50 296.38 C 422.67 296.12 422.90 295.79 422.25 295.62 C 421.60 295.46 420.27 295.54 419.62 295.38 C 418.98 295.21 419.02 294.79 418.38 294.62 C 417.73 294.46 416.40 294.54 415.75 294.38 C 415.10 294.21 415.12 293.79 414.50 293.62 C 413.88 293.46 412.67 293.54 412.00 293.38 C 411.33 293.21 411.21 292.79 410.50 292.62 C 409.79 292.46 408.33 292.52 407.75 292.38 C 407.17 292.23 407.69 291.94 407.00 291.75 C 406.31 291.56 404.31 291.44 403.62 291.25 C 402.94 291.06 403.71 290.65 402.88 290.62 C 402.04 290.60 403.52 290.10 398.62 291.12 C 393.73 292.15 379.90 295.48 373.50 296.75 C 367.10 298.02 364.54 298.21 360.25 298.75 C 355.96 299.29 350.08 299.67 347.75 300.00 C 345.42 300.33 347.04 300.75 346.25 300.75 C 345.46 300.75 344.54 300.12 343.00 300.00 C 341.46 299.88 338.56 299.67 337.00 300.00 C 335.44 300.33 334.44 301.25 333.62 302.00 C 332.81 302.75 332.42 303.79 332.12 304.50 C 331.83 305.21 331.88 305.35 331.88 306.25 C 331.88 307.15 331.92 308.94 332.12 309.88 C 332.33 310.81 332.73 311.33 333.12 311.88 C 333.52 312.42 329.10 312.10 334.50 313.12 C 339.90 314.15 359.15 317.23 365.50 318.00 C 371.85 318.77 370.02 317.96 372.62 317.75 C 375.23 317.54 374.23 317.85 381.12 316.75 C 388.02 315.65 405.10 312.29 414.00 311.12 C 422.90 309.96 430.85 310.19 434.50 309.75 C 438.15 309.31 435.69 309.12 435.88 308.50 C 436.06 307.88 435.94 306.85 435.62 306.00 Z" id="s-7-f-0"/>
<clipPath id="c-s-7"><use href="#s-7-f-0"/></clipPath>
<path d="M 334.38 312.62 C 333.81 312.81 333.75 312.81 334.00 313.75 C 334.25 314.69 335.23 316.19 335.88 318.25 C 336.52 320.31 337.50 318.54 337.88 326.12 C 338.25 333.71 337.94 351.50 338.12 363.75 C 338.31 376.00 338.54 393.58 339.00 399.62 C 339.46 405.67 337.50 400.27 340.88 400.00 C 344.25 399.73 356.08 398.42 359.25 398.00 C 362.42 397.58 359.62 398.90 359.88 397.50 C 360.12 396.10 359.88 400.73 360.75 389.62 C 361.62 378.52 364.12 341.90 365.12 330.88 C 366.12 319.85 366.44 325.52 366.75 323.50 C 367.06 321.48 366.85 319.77 367.00 318.75 C 367.15 317.73 368.85 317.77 367.62 317.38 C 366.40 316.98 361.35 316.67 359.62 316.38 C 357.90 316.08 358.44 315.79 357.25 315.62 C 356.06 315.46 353.67 315.54 352.50 315.38 C 351.33 315.21 351.33 314.79 350.25 314.62 C 349.17 314.46 347.02 314.54 346.00 314.38 C 344.98 314.21 345.10 313.77 344.12 313.62 C 343.15 313.48 341.25 313.67 340.12 313.50 C 339.00 313.33 338.33 312.77 337.38 312.62 C 336.42 312.48 334.94 312.44 334.38 312.62 Z" id="s-8-f-0"/>
<clipPath id="c-s-8"><use href="#s-8-f-0"/></clipPath>
<path d="M 478.88 412.00 C 478.69 411.19 478.62 409.96 477.75 408.62 C 476.88 407.29 475.23 405.44 473.62 404.00 C 472.02 402.56 470.65 401.48 468.12 400.00 C 465.60 398.52 462.96 396.96 458.50 395.12 C 454.04 393.29 444.90 390.19 441.38 389.00 C 437.85 387.81 438.85 388.17 437.38 388.00 C 435.90 387.83 436.96 387.38 432.50 388.00 C 428.04 388.62 419.42 390.46 410.62 391.75 C 401.83 393.04 387.98 394.75 379.75 395.75 C 371.52 396.75 365.46 397.44 361.25 397.75 C 357.04 398.06 356.19 397.52 354.50 397.62 C 352.81 397.73 353.08 398.19 351.12 398.38 C 349.17 398.56 344.88 398.50 342.75 398.75 C 340.62 399.00 347.23 399.04 338.38 399.88 C 329.52 400.71 298.79 403.12 289.62 403.75 C 280.46 404.38 284.88 403.52 283.38 403.62 C 281.88 403.73 283.50 404.02 280.62 404.38 C 277.75 404.73 269.12 405.33 266.12 405.75 C 263.12 406.17 268.71 406.04 262.62 406.88 C 256.54 407.71 237.79 409.92 229.62 410.75 C 221.46 411.58 223.98 411.50 213.62 411.88 C 203.27 412.25 176.40 412.48 167.50 413.00 C 158.60 413.52 161.81 414.29 160.25 415.00 C 158.69 415.71 158.52 416.50 158.12 417.25 C 157.73 418.00 157.71 418.73 157.88 419.50 C 158.04 420.27 158.25 420.88 159.12 421.88 C 160.00 422.88 160.67 423.88 163.12 425.50 C 165.58 427.12 170.92 430.10 173.88 431.62 C 176.83 433.15 178.10 433.60 180.88 434.62 C 183.65 435.65 188.27 437.08 190.50 437.75 C 192.73 438.42 192.62 438.46 194.25 438.62 C 195.88 438.79 198.75 438.75 200.25 438.75 C 201.75 438.75 200.92 439.08 203.25 438.62 C 205.58 438.17 208.08 437.27 214.25 436.00 C 220.42 434.73 230.38 432.65 240.25 431.00 C 250.12 429.35 257.10 427.79 273.50 426.12 C 289.90 424.46 321.94 422.15 338.62 421.00 C 355.31 419.85 352.65 419.62 373.62 419.25 C 394.60 418.88 447.58 419.17 464.50 418.75 C 481.42 418.33 472.83 417.44 475.12 416.75 C 477.42 416.06 477.62 415.17 478.25 414.62 C 478.88 414.08 478.77 413.94 478.88 413.50 C 478.98 413.06 479.06 412.81 478.88 412.00 Z" id="s-9-f-0"/>
<clipPath id="c-s-9"><use href="#s-9-f-0"/></clipPath>
</defs>
<g id="s-0" clip-path="url(#c-s-0)">
<use href="#s-0-f-0"/>
<path d="M 174.25 57.88 C 171.31 56.04 169.04 54.98 166.75 54.00 C 164.46 53.02 162.40 52.31 160.50 52.00 C 158.60 51.69 156.54 51.92 155.38 52.12 C 154.21 52.33 154.04 52.79 153.50 53.25 C 152.96 53.71 152.54 54.02 152.12 54.88 C 151.71 55.73 151.25 56.06 151.00 58.38 C 150.75 60.69 150.85 65.58 150.62 68.75 C 150.40 71.92 150.44 73.17 149.62 77.38 C 148.81 81.58 147.56 88.10 145.75 94.00 C 143.94 99.90 142.08 105.04 138.75 112.75 C 135.42 120.46 130.29 131.33 125.75 140.25 C 121.21 149.17 115.81 158.83 111.50 166.25 C 107.19 173.67 106.65 174.92 99.88 184.75 C 93.10 194.58 78.04 215.54 70.88 225.25 C 63.71 234.96 59.19 239.98 56.88 243.00 C 54.56 246.02 52.48 243.21 57.00 243.38 C 61.52 243.54 79.06 243.98 84.00 244.00 C 88.94 244.02 84.42 245.48 86.62 243.50 C 88.83 241.52 94.23 235.50 97.25 232.12 C 100.27 228.75 102.42 226.21 104.75 223.25 C 107.08 220.29 108.69 217.58 111.25 214.38 C 113.81 211.17 116.52 208.46 120.12 204.00 C 123.73 199.54 129.75 191.90 132.88 187.62 C 136.00 183.35 134.56 185.44 138.88 178.38 C 143.19 171.31 151.85 157.38 158.75 145.25 C 165.65 133.12 175.75 113.56 180.25 105.62 C 184.75 97.69 183.83 100.17 185.75 97.62 C 187.67 95.08 190.27 92.65 191.75 90.38 C 193.23 88.10 194.12 85.98 194.62 84.00 C 195.12 82.02 194.90 79.92 194.75 78.50 C 194.60 77.08 194.25 76.50 193.75 75.50 C 193.25 74.50 193.31 74.25 191.75 72.50 C 190.19 70.75 187.29 67.44 184.38 65.00 C 181.46 62.56 177.19 59.71 174.25 57.88 Z" id="s-0-f-1"/>
<path d="M 172.75 57.00 C 169.42 55.00 166.42 53.83 164.38 53.00 C 162.33 52.17 162.00 52.15 160.50 52.00 C 159.00 51.85 156.54 51.92 155.38 52.12 C 154.21 52.33 154.04 52.79 153.50 53.25 C 152.96 53.71 152.54 54.02 152.12 54.88 C 151.71 55.73 151.25 56.06 151.00 58.38 C 150.75 60.69 150.83 65.75 150.62 68.75 C 150.42 71.75 150.23 73.42 149.75 76.38 C 149.27 79.33 148.58 83.04 147.75 86.50 C 146.92 89.96 146.25 92.75 144.75 97.12 C 143.25 101.50 141.92 105.56 138.75 112.75 C 135.58 119.94 129.25 133.17 125.75 140.25 C 122.25 147.33 121.08 149.35 117.75 155.25 C 114.42 161.15 109.94 169.00 105.75 175.62 C 101.56 182.25 94.81 191.65 92.62 195.00 C 90.44 198.35 87.38 195.58 92.62 195.75 C 97.88 195.92 118.42 196.08 124.12 196.00 C 129.83 195.92 125.23 196.92 126.88 195.25 C 128.52 193.58 129.35 193.17 134.00 186.00 C 138.65 178.83 149.29 161.40 154.75 152.25 C 160.21 143.10 162.21 139.38 166.75 131.12 C 171.29 122.88 177.83 109.54 182.00 102.75 C 186.17 95.96 189.62 93.58 191.75 90.38 C 193.88 87.17 194.25 85.48 194.75 83.50 C 195.25 81.52 194.92 79.83 194.75 78.50 C 194.58 77.17 194.69 77.00 193.75 75.50 C 192.81 74.00 190.69 71.25 189.12 69.50 C 187.56 67.75 187.10 67.08 184.38 65.00 C 181.65 62.92 176.08 59.00 172.75 57.00 Z" id="s-0-f-2"/>
<path d="M 172.75 57.00 C 169.42 55.00 166.42 53.83 164.38 53.00 C 162.33 52.17 162.00 52.15 160.50 52.00 C 159.00 51.85 156.54 51.92 155.38 52.12 C 154.21 52.33 154.04 52.79 153.50 53.25 C 152.96 53.71 152.54 54.02 152.12 54.88 C 151.71 55.73 151.25 56.06 151.00 58.38 C 150.75 60.69 150.85 65.58 150.62 68.75 C 150.40 71.92 150.10 74.42 149.62 77.38 C 149.15 80.33 148.56 83.21 147.75 86.50 C 146.94 89.79 146.25 92.75 144.75 97.12 C 143.25 101.50 141.92 105.56 138.75 112.75 C 135.58 119.94 128.54 134.56 125.75 140.25 C 122.96 145.94 122.62 145.65 122.00 146.88 C 121.38 148.10 116.21 147.46 122.00 147.62 C 127.79 147.79 150.85 147.92 156.75 147.88 C 162.65 147.83 155.71 150.17 157.38 147.38 C 159.04 144.58 162.81 138.29 166.75 131.12 C 170.69 123.96 177.83 109.96 181.00 104.38 C 184.17 98.79 183.96 99.96 185.75 97.62 C 187.54 95.29 190.25 92.73 191.75 90.38 C 193.25 88.02 194.25 85.48 194.75 83.50 C 195.25 81.52 194.92 79.83 194.75 78.50 C 194.58 77.17 194.69 77.00 193.75 75.50 C 192.81 74.00 190.69 71.25 189.12 69.50 C 187.56 67.75 187.10 67.08 184.38 65.00 C 181.65 62.92 176.08 59.00 172.75 57.00 Z" id="s-0-f-3"/>
<path d="M 154.62 52.50 C 154.00 52.98 152.71 54.02 152.12 54.88 C 151.54 55.73 151.38 55.31 151.12 57.62 C 150.88 59.94 150.88 65.46 150.62 68.75 C 150.38 72.04 150.27 73.75 149.62 77.38 C 148.98 81.00 147.71 86.81 146.75 90.50 C 145.79 94.19 144.27 97.92 143.88 99.50 C 143.48 101.08 137.69 99.96 144.38 100.00 C 151.06 100.04 176.27 101.10 184.00 99.75 C 191.73 98.40 189.12 94.08 190.75 91.88 C 192.38 89.67 193.06 88.15 193.75 86.50 C 194.44 84.85 194.71 83.33 194.88 82.00 C 195.04 80.67 194.94 79.58 194.75 78.50 C 194.56 77.42 194.69 77.00 193.75 75.50 C 192.81 74.00 190.69 71.25 189.12 69.50 C 187.56 67.75 186.85 66.94 184.38 65.00 C 181.90 63.06 176.81 59.54 174.25 57.88 C 171.69 56.21 171.15 55.96 169.00 55.00 C 166.85 54.04 163.56 52.62 161.38 52.12 C 159.19 51.62 157.00 51.94 155.88 52.00 C 154.75 52.06 155.25 52.02 154.62 52.50 Z" id="s-0-f-4"/>
</g>
<g id="s-1" clip-path="url(#c-s-1)">
<use href="#s-1-f-0"/>
<path d="M 133.12 185.75 C 132.40 186.27 132.62 186.98 130.38 189.88 C 128.12 192.77 121.06 198.75 119.62 203.12 C 118.19 207.50 121.23 211.35 121.75 216.12 C 122.27 220.90 122.60 222.94 122.75 231.75 C 122.90 240.56 122.98 253.77 122.62 269.00 C 122.27 284.23 121.27 310.38 120.62 323.12 C 119.98 335.88 119.40 339.17 118.75 345.50 C 118.10 351.83 117.42 356.67 116.75 361.12 C 116.08 365.58 116.04 366.85 114.75 372.25 C 113.46 377.65 110.15 388.79 109.00 393.50 C 107.85 398.21 108.02 398.33 107.88 400.50 C 107.73 402.67 107.77 404.19 108.12 406.50 C 108.48 408.81 109.19 411.65 110.00 414.38 C 110.81 417.10 112.23 420.96 113.00 422.88 C 113.77 424.79 110.02 425.38 114.62 425.88 C 119.23 426.38 135.94 426.88 140.62 425.88 C 145.31 424.88 142.08 422.27 142.75 419.88 C 143.42 417.48 143.96 425.46 144.62 411.50 C 145.29 397.54 146.35 356.71 146.75 336.12 C 147.15 315.54 146.79 303.31 147.00 288.00 C 147.21 272.69 147.67 253.71 148.00 244.25 C 148.33 234.79 148.54 234.56 149.00 231.25 C 149.46 227.94 150.27 227.12 150.75 224.38 C 151.23 221.62 151.90 217.08 151.88 214.75 C 151.85 212.42 151.65 212.58 150.62 210.38 C 149.60 208.17 148.40 205.44 145.75 201.50 C 143.10 197.56 136.85 189.38 134.75 186.75 C 132.65 184.12 133.85 185.23 133.12 185.75 Z" id="s-1-f-1"/>
<path d="M 133.12 185.75 C 132.40 186.27 132.62 186.98 130.38 189.88 C 128.12 192.77 121.06 198.75 119.62 203.12 C 118.19 207.50 121.23 211.35 121.75 216.12 C 122.27 220.90 122.60 222.94 122.75 231.75 C 122.90 240.56 122.81 256.90 122.62 269.00 C 122.44 281.10 122.27 291.62 121.62 304.38 C 120.98 317.12 119.73 335.04 118.75 345.50 C 117.77 355.96 116.65 361.85 115.75 367.12 C 114.85 372.40 113.71 375.33 113.38 377.12 C 113.04 378.92 108.79 377.73 113.75 377.88 C 118.71 378.02 137.92 378.00 143.12 378.00 C 148.33 378.00 144.56 378.06 145.00 377.88 C 145.44 377.69 145.25 399.15 145.75 376.88 C 146.25 354.60 147.46 268.52 148.00 244.25 C 148.54 219.98 148.54 234.56 149.00 231.25 C 149.46 227.94 150.27 227.12 150.75 224.38 C 151.23 221.62 151.90 217.08 151.88 214.75 C 151.85 212.42 151.65 212.58 150.62 210.38 C 149.60 208.17 148.40 205.44 145.75 201.50 C 143.10 197.56 136.85 189.38 134.75 186.75 C 132.65 184.12 133.85 185.23 133.12 185.75 Z" id="s-1-f-2"/>
<path d="M 132.88 185.75 C 132.50 185.81 134.71 184.23 132.50 187.12 C 130.29 190.02 121.42 198.29 119.62 203.12 C 117.83 207.96 121.23 211.35 121.75 216.12 C 122.27 220.90 122.60 222.94 122.75 231.75 C 122.90 240.56 122.77 258.23 122.62 269.00 C 122.48 279.77 122.31 286.33 121.88 296.38 C 121.44 306.42 120.23 323.67 120.00 329.25 C 119.77 334.83 120.17 329.75 120.50 329.88 C 120.83 330.00 117.71 330.00 122.00 330.00 C 126.29 330.00 142.10 330.69 146.25 329.88 C 150.40 329.06 146.75 332.10 146.88 325.12 C 147.00 318.15 146.81 301.48 147.00 288.00 C 147.19 274.52 147.67 253.71 148.00 244.25 C 148.33 234.79 148.54 234.56 149.00 231.25 C 149.46 227.94 150.27 227.12 150.75 224.38 C 151.23 221.62 151.90 217.08 151.88 214.75 C 151.85 212.42 151.65 212.58 150.62 210.38 C 149.60 208.17 148.40 205.44 145.75 201.50 C 143.10 197.56 136.90 189.38 134.75 186.75 C 132.60 184.12 133.25 185.69 132.88 185.75 Z" id="s-1-f-3"/>
<path d="M 132.88 185.75 C 132.50 185.81 134.71 184.23 132.50 187.12 C 130.29 190.02 121.42 198.29 119.62 203.12 C 117.83 207.96 121.25 212.10 121.75 216.12 C 122.25 220.15 122.46 220.40 122.62 227.25 C 122.79 234.10 122.83 248.23 122.75 257.25 C 122.67 266.27 122.15 277.27 122.12 281.38 C 122.10 285.48 122.25 281.77 122.62 281.88 C 123.00 281.98 120.38 282.00 124.38 282.00 C 128.38 282.00 142.83 281.96 146.62 281.88 C 150.42 281.79 146.88 288.15 147.12 281.50 C 147.38 274.85 147.81 250.38 148.12 242.00 C 148.44 233.62 148.40 235.17 149.00 231.25 C 149.60 227.33 151.29 221.40 151.75 218.50 C 152.21 215.60 152.25 215.90 151.75 213.88 C 151.25 211.85 149.75 208.44 148.75 206.38 C 147.75 204.31 148.08 204.77 145.75 201.50 C 143.42 198.23 136.90 189.38 134.75 186.75 C 132.60 184.12 133.25 185.69 132.88 185.75 Z" id="s-1-f-4"/>
<path d="M 132.88 185.75 C 132.50 185.81 134.71 184.23 132.50 187.12 C 130.29 190.02 121.42 198.29 119.62 203.12 C 117.83 207.96 121.19 211.12 121.75 216.12 C 122.31 221.12 122.71 230.15 123.00 233.12 C 123.29 236.10 119.25 233.88 123.50 234.00 C 127.75 234.12 143.79 236.46 148.50 233.88 C 153.21 231.29 151.25 222.04 151.75 218.50 C 152.25 214.96 152.00 214.65 151.50 212.62 C 151.00 210.60 150.02 208.69 148.75 206.38 C 147.48 204.06 146.21 202.02 143.88 198.75 C 141.54 195.48 136.58 188.92 134.75 186.75 C 132.92 184.58 133.25 185.69 132.88 185.75 Z" id="s-1-f-5"/>
</g>
<g id="s-2" clip-path="url(#c-s-2)">
<use href="#s-2-f-0"/>
<path d="M 394.88 88.75 C 394.73 85.06 395.90 88.58 394.12 88.00 C 392.35 87.42 387.17 85.75 384.25 85.25 C 381.33 84.75 379.73 84.42 376.62 85.00 C 373.52 85.58 370.94 87.29 365.62 88.75 C 360.31 90.21 357.46 91.25 344.75 93.75 C 332.04 96.25 306.06 101.08 289.38 103.75 C 272.69 106.42 257.15 108.33 244.62 109.75 C 232.10 111.17 220.17 111.69 214.25 112.25 C 208.33 112.81 210.73 112.73 209.12 113.12 C 207.52 113.52 205.67 114.08 204.62 114.62 C 203.58 115.17 203.17 115.90 202.88 116.38 C 202.58 116.85 202.71 117.00 202.88 117.50 C 203.04 118.00 203.31 118.65 203.88 119.38 C 204.44 120.10 204.67 120.65 206.25 121.88 C 207.83 123.10 211.08 125.62 213.38 126.75 C 215.67 127.88 216.54 128.10 220.00 128.62 C 223.46 129.15 227.71 129.67 234.12 129.88 C 240.54 130.08 242.62 131.19 258.50 129.88 C 274.38 128.56 313.77 123.83 329.38 122.00 C 344.98 120.17 341.31 120.62 352.12 118.88 C 362.94 117.12 387.10 112.96 394.25 111.50 C 401.40 110.04 394.90 113.92 395.00 110.12 C 395.10 106.33 395.02 92.44 394.88 88.75 Z" id="s-2-f-1"/>
<path d="M 346.88 93.75 C 346.71 89.46 350.62 92.42 345.88 93.25 C 341.12 94.08 331.19 96.50 318.38 98.75 C 305.56 101.00 281.29 104.92 269.00 106.75 C 256.71 108.58 253.75 108.83 244.62 109.75 C 235.50 110.67 220.75 111.54 214.25 112.25 C 207.75 112.96 207.44 113.44 205.62 114.00 C 203.81 114.56 203.83 115.04 203.38 115.62 C 202.92 116.21 202.79 116.88 202.88 117.50 C 202.96 118.12 203.31 118.65 203.88 119.38 C 204.44 120.10 204.67 120.65 206.25 121.88 C 207.83 123.10 211.08 125.62 213.38 126.75 C 215.67 127.88 216.54 128.10 220.00 128.62 C 223.46 129.15 227.71 129.67 234.12 129.88 C 240.54 130.08 242.62 131.19 258.50 129.88 C 274.38 128.56 314.96 123.67 329.38 122.00 C 343.79 120.33 342.08 120.38 345.00 119.88 C 347.92 119.38 346.56 123.35 346.88 119.00 C 347.19 114.65 347.04 98.04 346.88 93.75 Z" id="s-2-f-2"/>
<path d="M 298.88 105.62 C 298.69 101.98 304.10 101.77 297.88 102.12 C 291.65 102.48 270.38 106.48 261.50 107.75 C 252.62 109.02 252.50 109.00 244.62 109.75 C 236.75 110.50 220.75 111.54 214.25 112.25 C 207.75 112.96 207.44 113.44 205.62 114.00 C 203.81 114.56 203.83 115.04 203.38 115.62 C 202.92 116.21 202.79 116.88 202.88 117.50 C 202.96 118.12 203.31 118.65 203.88 119.38 C 204.44 120.10 204.77 120.69 206.25 121.88 C 207.73 123.06 210.46 125.38 212.75 126.50 C 215.04 127.62 217.19 128.08 220.00 128.62 C 222.81 129.17 223.48 129.52 229.62 129.75 C 235.77 129.98 245.54 130.69 256.88 130.00 C 268.21 129.31 290.65 126.44 297.62 125.62 C 304.60 124.81 298.52 125.40 298.75 125.12 C 298.98 124.85 298.98 127.25 299.00 124.00 C 299.02 120.75 299.06 109.27 298.88 105.62 Z" id="s-2-f-3"/>
<path d="M 251.00 129.38 C 251.10 125.96 251.10 112.75 251.00 109.38 C 250.90 106.00 256.50 108.65 250.38 109.12 C 244.25 109.60 221.71 111.44 214.25 112.25 C 206.79 113.06 207.52 113.31 205.62 114.00 C 203.73 114.69 203.31 115.69 202.88 116.38 C 202.44 117.06 202.44 117.21 203.00 118.12 C 203.56 119.04 204.81 120.58 206.25 121.88 C 207.69 123.17 210.00 124.90 211.62 125.88 C 213.25 126.85 213.00 127.10 216.00 127.75 C 219.00 128.40 223.90 129.40 229.62 129.75 C 235.35 130.10 246.81 129.94 250.38 129.88 C 253.94 129.81 250.90 132.79 251.00 129.38 Z" id="s-2-f-4"/>
</g>
<g id="s-3" clip-path="url(#c-s-3)">
<use href="#s-3-f-0"/>
<path d="M 284.88 126.75 C 283.42 125.90 281.44 126.50 279.88 126.62 C 278.31 126.75 277.19 127.33 275.50 127.50 C 273.81 127.67 271.42 127.46 269.75 127.62 C 268.08 127.79 267.17 128.33 265.50 128.50 C 263.83 128.67 261.50 128.40 259.75 128.62 C 258.00 128.85 255.77 129.46 255.00 129.88 C 254.23 130.29 254.67 129.88 255.12 131.12 C 255.58 132.38 257.15 135.65 257.75 137.38 C 258.35 139.10 258.08 137.85 258.75 141.50 C 259.42 145.15 261.06 154.50 261.75 159.25 C 262.44 164.00 262.50 164.92 262.88 170.00 C 263.25 175.08 263.19 181.12 264.00 189.75 C 264.81 198.38 266.96 216.23 267.75 221.75 C 268.54 227.27 265.96 222.67 268.75 222.88 C 271.54 223.08 281.46 223.08 284.50 223.00 C 287.54 222.92 286.29 232.33 287.00 222.38 C 287.71 212.42 288.44 177.92 288.75 163.25 C 289.06 148.58 288.90 139.62 288.88 134.38 C 288.85 129.12 289.29 133.02 288.62 131.75 C 287.96 130.48 286.33 127.60 284.88 126.75 Z" id="s-3-f-1"/>
<path d="M 285.25 126.88 C 283.77 125.96 281.50 126.52 279.88 126.62 C 278.25 126.73 277.19 127.33 275.50 127.50 C 273.81 127.67 271.42 127.46 269.75 127.62 C 268.08 127.79 267.31 128.31 265.50 128.50 C 263.69 128.69 260.62 128.52 258.88 128.75 C 257.12 128.98 255.62 129.48 255.00 129.88 C 254.38 130.27 254.67 129.88 255.12 131.12 C 255.58 132.38 257.15 135.65 257.75 137.38 C 258.35 139.10 258.08 137.88 258.75 141.50 C 259.42 145.12 261.04 153.71 261.75 159.12 C 262.46 164.54 262.69 171.38 263.00 174.00 C 263.31 176.62 259.50 174.75 263.62 174.88 C 267.75 175.00 283.65 175.00 287.75 174.75 C 291.85 174.50 288.08 175.29 288.25 173.38 C 288.42 171.46 288.67 170.12 288.75 163.25 C 288.83 156.38 289.33 138.19 288.75 132.12 C 288.17 126.06 286.73 127.79 285.25 126.88 Z" id="s-3-f-2"/>
</g>
<g id="s-4" clip-path="url(#c-s-4)">
<use href="#s-4-f-0"/>
<path d="M 266.00 221.38 C 265.65 219.08 266.29 220.81 263.88 220.25 C 261.46 219.69 254.21 218.40 251.50 218.00 C 248.79 217.60 248.85 217.58 247.62 217.88 C 246.40 218.17 246.00 218.94 244.12 219.75 C 242.25 220.56 240.65 221.40 236.38 222.75 C 232.10 224.10 221.60 226.85 218.50 227.88 C 215.40 228.90 217.73 228.48 217.75 228.88 C 217.77 229.27 217.79 227.96 218.62 230.25 C 219.46 232.54 221.67 240.38 222.75 242.62 C 223.83 244.88 223.54 243.58 225.12 243.75 C 226.71 243.92 227.38 244.58 232.25 243.62 C 237.12 242.67 248.85 239.31 254.38 238.00 C 259.90 236.69 263.44 236.42 265.38 235.75 C 267.31 235.08 265.90 236.40 266.00 234.00 C 266.10 231.60 266.35 223.67 266.00 221.38 Z" id="s-4-f-1"/>
</g>
<g id="s-5" clip-path="url(#c-s-5)">
<use href="#s-5-f-0"/>
<path d="M 189.50 223.12 C 188.81 223.65 188.12 224.04 187.88 225.25 C 187.62 226.46 187.81 228.62 188.00 230.38 C 188.19 232.12 187.88 232.21 189.00 235.75 C 190.12 239.29 193.27 247.21 194.75 251.62 C 196.23 256.04 197.04 259.10 197.88 262.25 C 198.71 265.40 199.08 266.79 199.75 270.50 C 200.42 274.21 201.38 280.42 201.88 284.50 C 202.38 288.58 202.62 291.56 202.75 295.00 C 202.88 298.44 202.94 302.25 202.62 305.12 C 202.31 308.00 201.81 309.75 200.88 312.25 C 199.94 314.75 197.62 318.10 197.00 320.12 C 196.38 322.15 196.67 322.88 197.12 324.38 C 197.58 325.88 198.15 326.96 199.75 329.12 C 201.35 331.29 205.17 335.77 206.75 337.38 C 208.33 338.98 208.40 338.50 209.25 338.75 C 210.10 339.00 210.75 339.04 211.88 338.88 C 213.00 338.71 214.21 338.56 216.00 337.75 C 217.79 336.94 220.12 335.27 222.62 334.00 C 225.12 332.73 227.79 331.46 231.00 330.12 C 234.21 328.79 238.46 327.02 241.88 326.00 C 245.29 324.98 249.12 324.29 251.50 324.00 C 253.88 323.71 255.02 323.96 256.12 324.25 C 257.23 324.54 257.67 325.25 258.12 325.75 C 258.58 326.25 258.38 320.60 258.88 327.25 C 259.38 333.90 259.35 359.17 261.12 365.62 C 262.90 372.08 265.17 365.94 269.50 366.00 C 273.83 366.06 283.81 366.06 287.12 366.00 C 290.44 365.94 288.73 369.73 289.38 365.62 C 290.02 361.52 290.40 347.75 291.00 341.38 C 291.60 335.00 292.35 330.92 293.00 327.38 C 293.65 323.83 294.58 321.98 294.88 320.12 C 295.17 318.27 294.92 317.19 294.75 316.25 C 294.58 315.31 294.62 315.46 293.88 314.50 C 293.12 313.54 291.35 311.58 290.25 310.50 C 289.15 309.42 289.73 309.38 287.25 308.00 C 284.77 306.62 278.83 303.60 275.38 302.25 C 271.92 300.90 268.48 300.21 266.50 299.88 C 264.52 299.54 266.75 298.94 263.50 300.25 C 260.25 301.56 251.98 305.67 247.00 307.75 C 242.02 309.83 236.54 311.75 233.62 312.75 C 230.71 313.75 230.62 313.60 229.50 313.75 C 228.38 313.90 227.62 313.79 226.88 313.62 C 226.12 313.46 225.62 313.38 225.00 312.75 C 224.38 312.12 223.48 320.71 223.12 309.88 C 222.77 299.04 222.85 259.00 222.88 247.75 C 222.90 236.50 223.38 243.94 223.25 242.38 C 223.12 240.81 222.44 239.21 222.12 238.38 C 221.81 237.54 221.54 237.88 221.38 237.38 C 221.21 236.88 221.29 235.88 221.12 235.38 C 220.96 234.88 220.54 234.88 220.38 234.38 C 220.21 233.88 220.29 232.88 220.12 232.38 C 219.96 231.88 219.54 231.88 219.38 231.38 C 219.21 230.88 219.31 229.79 219.12 229.38 C 218.94 228.96 218.50 229.21 218.25 228.88 C 218.00 228.54 218.00 227.81 217.62 227.38 C 217.25 226.94 217.65 226.98 216.00 226.25 C 214.35 225.52 210.04 223.71 207.75 223.00 C 205.46 222.29 204.88 222.15 202.25 222.00 C 199.62 221.85 194.12 221.94 192.00 222.12 C 189.88 222.31 190.19 222.60 189.50 223.12 Z" id="s-5-f-1"/>
<path d="M 188.12 224.50 C 187.81 225.75 187.85 228.50 188.00 230.38 C 188.15 232.25 187.54 231.12 189.00 235.75 C 190.46 240.38 194.96 252.33 196.75 258.12 C 198.54 263.92 198.90 266.10 199.75 270.50 C 200.60 274.90 201.38 280.44 201.88 284.50 C 202.38 288.56 202.62 291.44 202.75 294.88 C 202.88 298.31 202.94 302.23 202.62 305.12 C 202.31 308.02 201.79 309.85 200.88 312.25 C 199.96 314.65 197.77 317.58 197.12 319.50 C 196.48 321.42 196.56 322.15 197.00 323.75 C 197.44 325.35 198.25 326.96 199.75 329.12 C 201.25 331.29 204.42 335.15 206.00 336.75 C 207.58 338.35 208.06 338.42 209.25 338.75 C 210.44 339.08 211.94 338.94 213.12 338.75 C 214.31 338.56 214.79 338.42 216.38 337.62 C 217.96 336.83 219.81 335.42 222.62 334.00 C 225.44 332.58 229.46 330.62 233.25 329.12 C 237.04 327.62 242.35 325.85 245.38 325.00 C 248.40 324.15 249.35 324.21 251.38 324.00 C 253.40 323.79 250.33 324.73 257.50 323.75 C 264.67 322.77 288.15 319.15 294.38 318.12 C 300.60 317.10 294.81 317.94 294.88 317.62 C 294.94 317.31 295.06 316.96 294.75 316.25 C 294.44 315.54 294.25 314.75 293.00 313.38 C 291.75 312.00 290.19 309.85 287.25 308.00 C 284.31 306.15 278.83 303.60 275.38 302.25 C 271.92 300.90 268.48 300.21 266.50 299.88 C 264.52 299.54 266.75 298.94 263.50 300.25 C 260.25 301.56 251.98 305.67 247.00 307.75 C 242.02 309.83 236.54 311.75 233.62 312.75 C 230.71 313.75 230.62 313.60 229.50 313.75 C 228.38 313.90 227.62 313.79 226.88 313.62 C 226.12 313.46 225.62 313.38 225.00 312.75 C 224.38 312.12 223.48 321.44 223.12 309.88 C 222.77 298.31 222.85 254.77 222.88 243.38 C 222.90 231.98 223.31 241.94 223.25 241.50 C 223.19 241.06 222.69 241.27 222.50 240.75 C 222.31 240.23 222.29 238.88 222.12 238.38 C 221.96 237.88 221.67 238.25 221.50 237.75 C 221.33 237.25 221.29 235.88 221.12 235.38 C 220.96 234.88 220.67 235.25 220.50 234.75 C 220.33 234.25 220.31 232.94 220.12 232.38 C 219.94 231.81 219.54 231.88 219.38 231.38 C 219.21 230.88 219.31 229.79 219.12 229.38 C 218.94 228.96 218.56 229.27 218.25 228.88 C 217.94 228.48 218.10 227.67 217.25 227.00 C 216.40 226.33 214.71 225.54 213.12 224.88 C 211.54 224.21 209.40 223.46 207.75 223.00 C 206.10 222.54 205.75 222.29 203.25 222.12 C 200.75 221.96 194.98 221.88 192.75 222.00 C 190.52 222.12 190.65 222.46 189.88 222.88 C 189.10 223.29 188.44 223.25 188.12 224.50 Z" id="s-5-f-2"/>
<path d="M 189.50 223.12 C 188.81 223.65 188.10 223.90 187.88 225.25 C 187.65 226.60 187.77 228.92 188.12 231.25 C 188.48 233.58 188.90 235.85 190.00 239.25 C 191.10 242.65 193.29 247.17 194.75 251.62 C 196.21 256.08 197.65 261.19 198.75 266.00 C 199.85 270.81 200.71 275.67 201.38 280.50 C 202.04 285.33 202.54 290.90 202.75 295.00 C 202.96 299.10 202.94 302.25 202.62 305.12 C 202.31 308.00 201.79 309.85 200.88 312.25 C 199.96 314.65 197.77 317.56 197.12 319.50 C 196.48 321.44 196.56 322.27 197.00 323.88 C 197.44 325.48 198.48 327.21 199.75 329.12 C 201.02 331.04 203.17 333.81 204.62 335.38 C 206.08 336.94 207.08 337.94 208.50 338.50 C 209.92 339.06 211.81 338.90 213.12 338.75 C 214.44 338.60 214.79 338.42 216.38 337.62 C 217.96 336.83 219.81 335.42 222.62 334.00 C 225.44 332.58 229.46 330.62 233.25 329.12 C 237.04 327.62 242.35 325.85 245.38 325.00 C 248.40 324.15 249.33 324.21 251.38 324.00 C 253.42 323.79 254.44 324.12 257.62 323.75 C 260.81 323.38 268.27 322.40 270.50 321.75 C 272.73 321.10 270.94 323.10 271.00 319.88 C 271.06 316.65 270.98 305.56 270.88 302.38 C 270.77 299.19 270.79 301.12 270.38 300.75 C 269.96 300.38 269.23 300.27 268.38 300.12 C 267.52 299.98 266.06 299.85 265.25 299.88 C 264.44 299.90 266.54 298.94 263.50 300.25 C 260.46 301.56 251.98 305.67 247.00 307.75 C 242.02 309.83 236.54 311.75 233.62 312.75 C 230.71 313.75 230.52 313.58 229.50 313.75 C 228.48 313.92 228.19 313.88 227.50 313.75 C 226.81 313.62 225.92 313.29 225.38 313.00 C 224.83 312.71 224.62 312.52 224.25 312.00 C 223.88 311.48 223.35 321.31 223.12 309.88 C 222.90 298.44 222.85 254.77 222.88 243.38 C 222.90 231.98 223.31 241.94 223.25 241.50 C 223.19 241.06 222.69 241.27 222.50 240.75 C 222.31 240.23 222.29 238.88 222.12 238.38 C 221.96 237.88 221.67 238.25 221.50 237.75 C 221.33 237.25 221.29 235.88 221.12 235.38 C 220.96 234.88 220.67 235.25 220.50 234.75 C 220.33 234.25 220.31 232.94 220.12 232.38 C 219.94 231.81 219.54 231.88 219.38 231.38 C 219.21 230.88 219.31 229.79 219.12 229.38 C 218.94 228.96 218.52 229.23 218.25 228.88 C 217.98 228.52 217.88 227.69 217.50 227.25 C 217.12 226.81 217.62 226.96 216.00 226.25 C 214.38 225.54 210.02 223.71 207.75 223.00 C 205.48 222.29 205.00 222.15 202.38 222.00 C 199.75 221.85 194.15 221.94 192.00 222.12 C 189.85 222.31 190.19 222.60 189.50 223.12 Z" id="s-5-f-3"/>
<path d="M 192.00 222.12 C 189.77 222.25 190.52 222.48 189.88 222.88 C 189.23 223.27 188.44 223.23 188.12 224.50 C 187.81 225.77 187.69 228.04 188.00 230.50 C 188.31 232.96 188.88 235.73 190.00 239.25 C 191.12 242.77 193.33 247.38 194.75 251.62 C 196.17 255.88 197.48 260.52 198.50 264.75 C 199.52 268.98 200.17 271.96 200.88 277.00 C 201.58 282.04 202.44 290.50 202.75 295.00 C 203.06 299.50 202.90 301.69 202.75 304.00 C 202.60 306.31 202.38 307.04 201.88 308.88 C 201.38 310.71 200.54 313.23 199.75 315.00 C 198.96 316.77 197.58 318.02 197.12 319.50 C 196.67 320.98 196.56 322.27 197.00 323.88 C 197.44 325.48 198.21 326.94 199.75 329.12 C 201.29 331.31 204.67 335.40 206.25 337.00 C 207.83 338.60 208.10 338.46 209.25 338.75 C 210.40 339.04 211.31 339.25 213.12 338.75 C 214.94 338.25 218.50 336.62 220.12 335.75 C 221.75 334.88 222.38 349.23 222.88 333.50 C 223.38 317.77 223.19 256.83 223.12 241.38 C 223.06 225.92 222.67 241.25 222.50 240.75 C 222.33 240.25 222.29 238.88 222.12 238.38 C 221.96 237.88 221.67 238.25 221.50 237.75 C 221.33 237.25 221.29 235.88 221.12 235.38 C 220.96 234.88 220.67 235.25 220.50 234.75 C 220.33 234.25 220.31 232.94 220.12 232.38 C 219.94 231.81 219.54 231.88 219.38 231.38 C 219.21 230.88 219.31 229.79 219.12 229.38 C 218.94 228.96 218.50 229.21 218.25 228.88 C 218.00 228.54 218.00 227.81 217.62 227.38 C 217.25 226.94 217.12 226.81 216.00 226.25 C 214.88 225.69 213.00 224.69 210.88 224.00 C 208.75 223.31 206.40 222.44 203.25 222.12 C 200.10 221.81 194.23 222.00 192.00 222.12 Z" id="s-5-f-4"/>
<path d="M 192.00 222.12 C 189.77 222.25 190.52 222.48 189.88 222.88 C 189.23 223.27 188.44 223.25 188.12 224.50 C 187.81 225.75 187.69 227.92 188.00 230.38 C 188.31 232.83 188.88 235.71 190.00 239.25 C 191.12 242.79 193.33 247.38 194.75 251.62 C 196.17 255.88 197.50 260.67 198.50 264.75 C 199.50 268.83 200.06 271.42 200.75 276.12 C 201.44 280.83 202.31 288.19 202.62 293.00 C 202.94 297.81 202.94 301.75 202.62 305.00 C 202.31 308.25 201.48 310.42 200.75 312.50 C 200.02 314.58 198.33 316.58 198.25 317.50 C 198.17 318.42 196.19 317.94 200.25 318.00 C 204.31 318.06 218.83 318.00 222.62 317.88 C 226.42 317.75 222.92 330.00 223.00 317.25 C 223.08 304.50 223.21 254.12 223.12 241.38 C 223.04 228.62 222.67 241.25 222.50 240.75 C 222.33 240.25 222.29 238.88 222.12 238.38 C 221.96 237.88 221.67 238.25 221.50 237.75 C 221.33 237.25 221.29 235.88 221.12 235.38 C 220.96 234.88 220.67 235.25 220.50 234.75 C 220.33 234.25 220.31 232.94 220.12 232.38 C 219.94 231.81 219.54 231.88 219.38 231.38 C 219.21 230.88 219.31 229.79 219.12 229.38 C 218.94 228.96 218.50 229.21 218.25 228.88 C 218.00 228.54 218.00 227.81 217.62 227.38 C 217.25 226.94 217.12 226.81 216.00 226.25 C 214.88 225.69 213.00 224.69 210.88 224.00 C 208.75 223.31 206.40 222.44 203.25 222.12 C 200.10 221.81 194.23 222.00 192.00 222.12 Z" id="s-5-f-5"/>
<path d="M 189.50 223.12 C 188.81 223.65 188.12 224.04 187.88 225.25 C 187.62 226.46 187.81 228.62 188.00 230.38 C 188.19 232.12 187.54 231.12 189.00 235.75 C 190.46 240.38 195.04 252.54 196.75 258.12 C 198.46 263.71 198.73 267.29 199.25 269.25 C 199.77 271.21 199.50 269.75 199.88 269.88 C 200.25 270.00 197.71 270.00 201.50 270.00 C 205.29 270.00 219.00 274.48 222.62 269.88 C 226.25 265.27 223.33 247.62 223.25 242.38 C 223.17 237.12 222.44 239.21 222.12 238.38 C 221.81 237.54 221.54 237.88 221.38 237.38 C 221.21 236.88 221.29 235.88 221.12 235.38 C 220.96 234.88 220.54 234.88 220.38 234.38 C 220.21 233.88 220.29 232.88 220.12 232.38 C 219.96 231.88 219.56 231.92 219.38 231.38 C 219.19 230.83 219.19 229.54 219.00 229.12 C 218.81 228.71 218.48 229.17 218.25 228.88 C 218.02 228.58 218.00 227.81 217.62 227.38 C 217.25 226.94 217.65 226.98 216.00 226.25 C 214.35 225.52 210.02 223.71 207.75 223.00 C 205.48 222.29 205.00 222.15 202.38 222.00 C 199.75 221.85 194.15 221.94 192.00 222.12 C 189.85 222.31 190.19 222.60 189.50 223.12 Z" id="s-5-f-6"/>
</g>
<g id="s-6" clip-path="url(#c-s-6)">
<use href="#s-6-f-0"/>
<path d="M 328.12 121.62 C 327.69 122.02 327.56 121.33 328.00 123.12 C 328.44 124.92 329.96 129.10 330.75 132.38 C 331.54 135.65 332.25 138.06 332.75 142.75 C 333.25 147.44 333.58 153.62 333.75 160.50 C 333.92 167.38 333.92 178.17 333.75 184.00 C 333.58 189.83 333.08 192.71 332.75 195.50 C 332.42 198.29 332.29 198.65 331.75 200.75 C 331.21 202.85 330.79 205.08 329.50 208.12 C 328.21 211.17 324.88 216.56 324.00 219.00 C 323.12 221.44 323.42 220.60 324.25 222.75 C 325.08 224.90 327.52 229.71 329.00 231.88 C 330.48 234.04 331.73 234.62 333.12 235.75 C 334.52 236.88 336.29 237.98 337.38 238.62 C 338.46 239.27 338.69 239.42 339.62 239.62 C 340.56 239.83 341.27 240.21 343.00 239.88 C 344.73 239.54 348.06 238.44 350.00 237.62 C 351.94 236.81 351.40 236.10 354.62 235.00 C 357.85 233.90 362.29 232.50 369.38 231.00 C 376.46 229.50 392.10 226.83 397.12 226.00 C 402.15 225.17 398.38 225.83 399.50 226.00 C 400.62 226.17 402.92 226.69 403.88 227.00 C 404.83 227.31 404.75 227.40 405.25 227.88 C 405.75 228.35 406.46 229.12 406.88 229.88 C 407.29 230.62 407.60 231.27 407.75 232.38 C 407.90 233.48 408.50 229.62 407.75 236.50 C 407.00 243.38 403.58 267.38 403.25 273.62 C 402.92 279.88 400.35 273.94 405.75 274.00 C 411.15 274.06 430.50 274.12 435.62 274.00 C 440.75 273.88 435.75 275.04 436.50 273.25 C 437.25 271.46 438.52 267.15 440.12 263.25 C 441.73 259.35 443.50 255.04 446.12 249.88 C 448.75 244.71 454.08 235.77 455.88 232.25 C 457.67 228.73 456.71 229.73 456.88 228.75 C 457.04 227.77 457.27 227.42 456.88 226.38 C 456.48 225.33 455.92 224.10 454.50 222.50 C 453.08 220.90 450.77 218.69 448.38 216.75 C 445.98 214.81 442.94 212.48 440.12 210.88 C 437.31 209.27 435.27 208.44 431.50 207.12 C 427.73 205.81 420.92 203.69 417.50 203.00 C 414.08 202.31 416.69 202.31 411.00 203.00 C 405.31 203.69 391.58 205.69 383.38 207.12 C 375.17 208.56 366.06 210.90 361.75 211.62 C 357.44 212.35 358.50 211.90 357.50 211.50 C 356.50 211.10 356.15 210.00 355.75 209.25 C 355.35 208.50 355.25 208.00 355.12 207.00 C 355.00 206.00 353.67 212.19 355.00 203.25 C 356.33 194.31 361.46 163.12 363.12 153.38 C 364.79 143.62 364.42 146.65 365.00 144.75 C 365.58 142.85 366.00 143.40 366.62 142.00 C 367.25 140.60 368.44 138.25 368.75 136.38 C 369.06 134.50 368.81 132.23 368.50 130.75 C 368.19 129.27 367.85 128.85 366.88 127.50 C 365.90 126.15 364.19 124.21 362.62 122.62 C 361.06 121.04 358.58 118.83 357.50 118.00 C 356.42 117.17 356.83 117.69 356.12 117.62 C 355.42 117.56 354.17 117.50 353.25 117.62 C 352.33 117.75 352.00 118.19 350.62 118.38 C 349.25 118.56 346.21 118.58 345.00 118.75 C 343.79 118.92 344.44 119.23 343.38 119.38 C 342.31 119.52 339.92 119.44 338.62 119.62 C 337.33 119.81 336.96 120.31 335.62 120.50 C 334.29 120.69 331.88 120.56 330.62 120.75 C 329.38 120.94 328.56 121.23 328.12 121.62 Z" id="s-6-f-1"/>
<path d="M 328.12 121.62 C 327.69 122.02 327.40 120.62 328.00 123.12 C 328.60 125.62 330.94 133.15 331.75 136.62 C 332.56 140.10 332.54 140.40 332.88 144.00 C 333.21 147.60 333.60 151.58 333.75 158.25 C 333.90 164.92 333.90 177.94 333.75 184.00 C 333.60 190.06 333.21 191.83 332.88 194.62 C 332.54 197.42 332.46 198.15 331.75 200.75 C 331.04 203.35 329.92 207.21 328.62 210.25 C 327.33 213.29 324.77 217.06 324.00 219.00 C 323.23 220.94 323.65 220.52 324.00 221.88 C 324.35 223.23 325.31 225.50 326.12 227.12 C 326.94 228.75 327.71 230.19 328.88 231.62 C 330.04 233.06 331.33 234.42 333.12 235.75 C 334.92 237.08 337.79 238.96 339.62 239.62 C 341.46 240.29 342.42 240.08 344.12 239.75 C 345.83 239.42 348.12 238.42 349.88 237.62 C 351.62 236.83 352.77 235.77 354.62 235.00 C 356.48 234.23 357.73 233.83 361.00 233.00 C 364.27 232.17 368.23 231.17 374.25 230.00 C 380.27 228.83 383.56 226.33 397.12 226.00 C 410.69 225.67 445.69 227.73 455.62 228.00 C 465.56 228.27 456.56 227.92 456.75 227.62 C 456.94 227.33 456.90 226.79 456.75 226.25 C 456.60 225.71 456.56 225.33 455.88 224.38 C 455.19 223.42 454.02 221.90 452.62 220.50 C 451.23 219.10 449.58 217.60 447.50 216.00 C 445.42 214.40 442.79 212.35 440.12 210.88 C 437.46 209.40 435.12 208.42 431.50 207.12 C 427.88 205.83 421.46 203.83 418.38 203.12 C 415.29 202.42 415.54 202.73 413.00 202.88 C 410.46 203.02 408.06 203.29 403.12 204.00 C 398.19 204.71 389.54 205.98 383.38 207.12 C 377.21 208.27 369.96 210.10 366.12 210.88 C 362.29 211.65 361.81 211.65 360.38 211.75 C 358.94 211.85 358.27 211.92 357.50 211.50 C 356.73 211.08 356.15 210.00 355.75 209.25 C 355.35 208.50 355.25 208.00 355.12 207.00 C 355.00 206.00 353.69 212.02 355.00 203.25 C 356.31 194.48 361.33 164.12 363.00 154.38 C 364.67 144.62 364.06 147.67 365.00 144.75 C 365.94 141.83 368.02 139.15 368.62 136.88 C 369.23 134.60 368.92 132.69 368.62 131.12 C 368.33 129.56 367.42 128.42 366.88 127.50 C 366.33 126.58 366.94 127.21 365.38 125.62 C 363.81 124.04 359.04 119.33 357.50 118.00 C 355.96 116.67 356.83 117.69 356.12 117.62 C 355.42 117.56 354.17 117.50 353.25 117.62 C 352.33 117.75 352.00 118.19 350.62 118.38 C 349.25 118.56 346.21 118.58 345.00 118.75 C 343.79 118.92 344.44 119.23 343.38 119.38 C 342.31 119.52 339.92 119.44 338.62 119.62 C 337.33 119.81 336.96 120.31 335.62 120.50 C 334.29 120.69 331.88 120.56 330.62 120.75 C 329.38 120.94 328.56 121.23 328.12 121.62 Z" id="s-6-f-2"/>
<path d="M 328.12 121.62 C 327.69 122.02 327.40 120.62 328.00 123.12 C 328.60 125.62 330.94 133.15 331.75 136.62 C 332.56 140.10 332.54 140.40 332.88 144.00 C 333.21 147.60 333.60 151.58 333.75 158.25 C 333.90 164.92 333.90 177.94 333.75 184.00 C 333.60 190.06 333.21 191.83 332.88 194.62 C 332.54 197.42 332.46 198.15 331.75 200.75 C 331.04 203.35 329.92 207.21 328.62 210.25 C 327.33 213.29 324.77 217.06 324.00 219.00 C 323.23 220.94 323.65 220.52 324.00 221.88 C 324.35 223.23 325.31 225.50 326.12 227.12 C 326.94 228.75 328.10 230.52 328.88 231.62 C 329.65 232.73 329.33 232.58 330.75 233.75 C 332.17 234.92 335.90 237.65 337.38 238.62 C 338.85 239.60 338.71 239.42 339.62 239.62 C 340.54 239.83 341.58 240.02 342.88 239.88 C 344.17 239.73 345.42 239.56 347.38 238.75 C 349.33 237.94 352.35 235.96 354.62 235.00 C 356.90 234.04 357.73 233.83 361.00 233.00 C 364.27 232.17 368.23 231.17 374.25 230.00 C 380.27 228.83 384.69 226.33 397.12 226.00 C 409.56 225.67 439.92 227.73 448.88 228.00 C 457.83 228.27 450.54 229.04 450.88 227.62 C 451.21 226.21 451.44 221.44 450.88 219.50 C 450.31 217.56 449.29 217.44 447.50 216.00 C 445.71 214.56 443.81 212.71 440.12 210.88 C 436.44 209.04 429.00 206.29 425.38 205.00 C 421.75 203.71 420.42 203.48 418.38 203.12 C 416.33 202.77 415.67 202.73 413.12 202.88 C 410.58 203.02 408.08 203.29 403.12 204.00 C 398.17 204.71 389.54 205.98 383.38 207.12 C 377.21 208.27 369.96 210.10 366.12 210.88 C 362.29 211.65 361.81 211.65 360.38 211.75 C 358.94 211.85 358.27 211.92 357.50 211.50 C 356.73 211.08 356.15 210.00 355.75 209.25 C 355.35 208.50 355.25 208.00 355.12 207.00 C 355.00 206.00 353.69 212.02 355.00 203.25 C 356.31 194.48 361.33 164.12 363.00 154.38 C 364.67 144.62 364.06 147.67 365.00 144.75 C 365.94 141.83 368.02 139.15 368.62 136.88 C 369.23 134.60 368.92 132.69 368.62 131.12 C 368.33 129.56 367.42 128.42 366.88 127.50 C 366.33 126.58 366.94 127.21 365.38 125.62 C 363.81 124.04 359.04 119.33 357.50 118.00 C 355.96 116.67 356.83 117.69 356.12 117.62 C 355.42 117.56 354.17 117.50 353.25 117.62 C 352.33 117.75 352.00 118.19 350.62 118.38 C 349.25 118.56 346.21 118.58 345.00 118.75 C 343.79 118.92 344.44 119.23 343.38 119.38 C 342.31 119.52 339.92 119.44 338.62 119.62 C 337.33 119.81 336.96 120.31 335.62 120.50 C 334.29 120.69 331.88 120.56 330.62 120.75 C 329.38 120.94 328.56 121.23 328.12 121.62 Z" id="s-6-f-3"/>
<path d="M 357.12 117.75 C 355.65 117.00 354.33 117.52 353.25 117.62 C 352.17 117.73 352.00 118.19 350.62 118.38 C 349.25 118.56 346.21 118.58 345.00 118.75 C 343.79 118.92 344.44 119.23 343.38 119.38 C 342.31 119.52 339.92 119.44 338.62 119.62 C 337.33 119.81 336.96 120.31 335.62 120.50 C 334.29 120.69 331.83 120.58 330.62 120.75 C 329.42 120.92 328.83 121.27 328.38 121.50 C 327.92 121.73 327.31 119.60 327.88 122.12 C 328.44 124.65 330.92 132.98 331.75 136.62 C 332.58 140.27 332.54 140.40 332.88 144.00 C 333.21 147.60 333.60 151.58 333.75 158.25 C 333.90 164.92 333.90 177.94 333.75 184.00 C 333.60 190.06 333.21 191.83 332.88 194.62 C 332.54 197.42 332.48 198.10 331.75 200.75 C 331.02 203.40 329.79 207.46 328.50 210.50 C 327.21 213.54 324.75 217.10 324.00 219.00 C 323.25 220.90 323.65 220.52 324.00 221.88 C 324.35 223.23 325.17 225.31 326.12 227.12 C 327.08 228.94 328.58 231.31 329.75 232.75 C 330.92 234.19 331.85 234.77 333.12 235.75 C 334.40 236.73 336.02 237.94 337.38 238.62 C 338.73 239.31 340.17 239.69 341.25 239.88 C 342.33 240.06 342.88 239.94 343.88 239.75 C 344.88 239.56 345.46 239.54 347.25 238.75 C 349.04 237.96 352.33 235.96 354.62 235.00 C 356.92 234.04 355.94 234.17 361.00 233.00 C 366.06 231.83 378.98 229.17 385.00 228.00 C 391.02 226.83 394.23 226.33 397.12 226.00 C 400.02 225.67 401.40 226.27 402.38 226.00 C 403.35 225.73 402.92 227.94 403.00 224.38 C 403.08 220.81 402.98 208.00 402.88 204.62 C 402.77 201.25 405.62 203.71 402.38 204.12 C 399.12 204.54 388.44 206.19 383.38 207.12 C 378.31 208.06 375.83 208.98 372.00 209.75 C 368.17 210.52 362.79 211.46 360.38 211.75 C 357.96 212.04 358.23 211.81 357.50 211.50 C 356.77 211.19 356.42 210.69 356.00 209.88 C 355.58 209.06 355.17 207.73 355.00 206.62 C 354.83 205.52 353.83 211.02 355.00 203.25 C 356.17 195.48 360.33 169.75 362.00 160.00 C 363.67 150.25 364.04 148.19 365.00 144.75 C 365.96 141.31 367.10 141.00 367.75 139.38 C 368.40 137.75 368.71 136.31 368.88 135.00 C 369.04 133.69 369.08 132.75 368.75 131.50 C 368.42 130.25 367.98 129.06 366.88 127.50 C 365.77 125.94 363.75 123.75 362.12 122.12 C 360.50 120.50 358.60 118.50 357.12 117.75 Z" id="s-6-f-4"/>
<path d="M 357.12 117.75 C 355.65 117.00 354.33 117.52 353.25 117.62 C 352.17 117.73 352.00 118.19 350.62 118.38 C 349.25 118.56 346.21 118.58 345.00 118.75 C 343.79 118.92 344.44 119.23 343.38 119.38 C 342.31 119.52 339.92 119.44 338.62 119.62 C 337.33 119.81 336.96 120.31 335.62 120.50 C 334.29 120.69 331.83 120.58 330.62 120.75 C 329.42 120.92 328.83 121.27 328.38 121.50 C 327.92 121.73 327.31 119.60 327.88 122.12 C 328.44 124.65 330.92 132.98 331.75 136.62 C 332.58 140.27 332.54 140.40 332.88 144.00 C 333.21 147.60 333.60 151.58 333.75 158.25 C 333.90 164.92 333.90 177.94 333.75 184.00 C 333.60 190.06 333.21 191.83 332.88 194.62 C 332.54 197.42 332.46 198.15 331.75 200.75 C 331.04 203.35 329.90 207.25 328.62 210.25 C 327.35 213.25 324.90 216.79 324.12 218.75 C 323.35 220.71 323.67 220.60 324.00 222.00 C 324.33 223.40 325.17 225.33 326.12 227.12 C 327.08 228.92 328.04 230.94 329.75 232.75 C 331.46 234.56 334.62 236.83 336.38 238.00 C 338.12 239.17 338.96 239.46 340.25 239.75 C 341.54 240.04 342.96 239.92 344.12 239.75 C 345.29 239.58 345.58 239.46 347.25 238.75 C 348.92 238.04 352.85 236.21 354.12 235.50 C 355.40 234.79 354.71 240.04 354.88 234.50 C 355.04 228.96 353.60 216.48 355.12 202.25 C 356.65 188.02 362.35 158.71 364.00 149.12 C 365.65 139.54 364.54 146.00 365.00 144.75 C 365.46 143.50 366.12 143.02 366.75 141.62 C 367.38 140.23 368.42 138.04 368.75 136.38 C 369.08 134.71 369.06 133.10 368.75 131.62 C 368.44 130.15 367.98 129.08 366.88 127.50 C 365.77 125.92 363.75 123.75 362.12 122.12 C 360.50 120.50 358.60 118.50 357.12 117.75 Z" id="s-6-f-5"/>
<path d="M 357.12 117.75 C 355.65 117.00 354.33 117.52 353.25 117.62 C 352.17 117.73 352.00 118.19 350.62 118.38 C 349.25 118.56 346.21 118.58 345.00 118.75 C 343.79 118.92 344.44 119.23 343.38 119.38 C 342.31 119.52 339.92 119.44 338.62 119.62 C 337.33 119.81 336.96 120.31 335.62 120.50 C 334.29 120.69 331.83 120.58 330.62 120.75 C 329.42 120.92 328.83 121.27 328.38 121.50 C 327.92 121.73 327.29 119.48 327.88 122.12 C 328.46 124.77 331.04 133.73 331.88 137.38 C 332.71 141.02 332.56 140.52 332.88 144.00 C 333.19 147.48 333.65 150.77 333.75 158.25 C 333.85 165.73 333.83 181.79 333.50 188.88 C 333.17 195.96 332.38 197.65 331.75 200.75 C 331.12 203.85 330.52 205.46 329.75 207.50 C 328.98 209.54 327.42 211.98 327.12 213.00 C 326.83 214.02 326.00 213.46 328.00 213.62 C 330.00 213.79 334.65 213.98 339.12 214.00 C 343.60 214.02 352.21 215.71 354.88 213.75 C 357.54 211.79 353.94 211.21 355.12 202.25 C 356.31 193.29 360.35 169.58 362.00 160.00 C 363.65 150.42 364.04 148.19 365.00 144.75 C 365.96 141.31 367.10 141.00 367.75 139.38 C 368.40 137.75 368.73 136.38 368.88 135.00 C 369.02 133.62 368.96 132.38 368.62 131.12 C 368.29 129.88 367.96 129.00 366.88 127.50 C 365.79 126.00 363.75 123.75 362.12 122.12 C 360.50 120.50 358.60 118.50 357.12 117.75 Z" id="s-6-f-6"/>
<path d="M 357.12 117.75 C 355.65 117.00 354.33 117.52 353.25 117.62 C 352.17 117.73 352.00 118.19 350.62 118.38 C 349.25 118.56 346.21 118.58 345.00 118.75 C 343.79 118.92 344.44 119.23 343.38 119.38 C 342.31 119.52 339.92 119.44 338.62 119.62 C 337.33 119.81 336.96 120.31 335.62 120.50 C 334.29 120.69 331.83 120.58 330.62 120.75 C 329.42 120.92 328.83 121.27 328.38 121.50 C 327.92 121.73 327.31 119.60 327.88 122.12 C 328.44 124.65 330.94 133.17 331.75 136.62 C 332.56 140.08 332.40 138.10 332.75 142.88 C 333.10 147.65 333.60 161.40 333.88 165.25 C 334.15 169.10 329.88 165.92 334.38 166.00 C 338.88 166.08 356.40 165.88 360.88 165.75 C 365.35 165.62 360.56 168.75 361.25 165.25 C 361.94 161.75 363.94 148.98 365.00 144.75 C 366.06 140.52 367.02 141.19 367.62 139.88 C 368.23 138.56 368.42 138.12 368.62 136.88 C 368.83 135.62 369.02 133.67 368.88 132.38 C 368.73 131.08 368.21 130.10 367.75 129.12 C 367.29 128.15 367.06 127.67 366.12 126.50 C 365.19 125.33 363.62 123.58 362.12 122.12 C 360.62 120.67 358.60 118.50 357.12 117.75 Z" id="s-6-f-7"/>
</g>
<g id="s-7" clip-path="url(#c-s-7)">
<use href="#s-7-f-0"/>
<path d="M 427.88 297.88 C 427.56 296.25 426.85 296.88 426.12 296.62 C 425.40 296.38 424.15 296.54 423.50 296.38 C 422.85 296.21 422.90 295.79 422.25 295.62 C 421.60 295.46 420.27 295.54 419.62 295.38 C 418.98 295.21 419.02 294.79 418.38 294.62 C 417.73 294.46 416.40 294.54 415.75 294.38 C 415.10 294.21 415.12 293.79 414.50 293.62 C 413.88 293.46 412.67 293.54 412.00 293.38 C 411.33 293.21 411.21 292.79 410.50 292.62 C 409.79 292.46 408.33 292.52 407.75 292.38 C 407.17 292.23 407.69 291.94 407.00 291.75 C 406.31 291.56 404.31 291.44 403.62 291.25 C 402.94 291.06 403.29 290.73 402.88 290.62 C 402.46 290.52 405.00 289.79 401.12 290.62 C 397.25 291.46 386.42 294.27 379.62 295.62 C 372.83 296.98 365.69 298.02 360.38 298.75 C 355.06 299.48 350.10 299.67 347.75 300.00 C 345.40 300.33 347.33 300.77 346.25 300.75 C 345.17 300.73 342.88 299.98 341.25 299.88 C 339.62 299.77 337.71 299.83 336.50 300.12 C 335.29 300.42 334.73 300.90 334.00 301.62 C 333.27 302.35 332.46 303.21 332.12 304.50 C 331.79 305.79 331.69 307.98 332.00 309.38 C 332.31 310.77 333.12 312.15 334.00 312.88 C 334.88 313.60 332.00 312.90 337.25 313.75 C 342.50 314.60 359.35 317.35 365.50 318.00 C 371.65 318.65 370.31 318.02 374.12 317.62 C 377.94 317.23 381.73 316.71 388.38 315.62 C 395.02 314.54 407.50 312.06 414.00 311.12 C 420.50 310.19 425.04 310.79 427.38 310.00 C 429.71 309.21 427.92 308.40 428.00 306.38 C 428.08 304.35 428.19 299.50 427.88 297.88 Z" id="s-7-f-1"/>
<path d="M 379.88 296.12 C 379.69 292.88 382.12 295.19 378.88 295.62 C 375.62 296.06 365.56 298.02 360.38 298.75 C 355.19 299.48 350.10 299.67 347.75 300.00 C 345.40 300.33 347.33 300.77 346.25 300.75 C 345.17 300.73 342.88 299.98 341.25 299.88 C 339.62 299.77 337.71 299.83 336.50 300.12 C 335.29 300.42 334.73 300.90 334.00 301.62 C 333.27 302.35 332.46 303.19 332.12 304.50 C 331.79 305.81 331.69 308.10 332.00 309.50 C 332.31 310.90 333.00 312.15 334.00 312.88 C 335.00 313.60 332.77 313.02 338.00 313.88 C 343.23 314.73 359.35 317.38 365.38 318.00 C 371.40 318.62 371.79 317.81 374.12 317.62 C 376.46 317.44 378.42 317.06 379.38 316.88 C 380.33 316.69 379.77 316.79 379.88 316.50 C 379.98 316.21 380.00 318.52 380.00 315.12 C 380.00 311.73 380.06 299.38 379.88 296.12 Z" id="s-7-f-2"/>
</g>
<g id="s-8" clip-path="url(#c-s-8)">
<use href="#s-8-f-0"/>
<path d="M 334.12 312.75 C 333.56 312.94 333.71 312.83 334.00 313.75 C 334.29 314.67 335.23 316.19 335.88 318.25 C 336.52 320.31 337.48 319.08 337.88 326.12 C 338.27 333.17 337.83 354.69 338.25 360.50 C 338.67 366.31 336.31 360.98 340.38 361.00 C 344.44 361.02 358.75 361.88 362.62 360.62 C 366.50 359.38 363.21 358.44 363.62 353.50 C 364.04 348.56 364.60 336.00 365.12 331.00 C 365.65 326.00 366.44 325.54 366.75 323.50 C 367.06 321.46 366.85 319.77 367.00 318.75 C 367.15 317.73 368.85 317.77 367.62 317.38 C 366.40 316.98 361.35 316.67 359.62 316.38 C 357.90 316.08 358.44 315.79 357.25 315.62 C 356.06 315.46 353.67 315.54 352.50 315.38 C 351.33 315.21 351.33 314.79 350.25 314.62 C 349.17 314.46 347.02 314.54 346.00 314.38 C 344.98 314.21 345.25 313.79 344.12 313.62 C 343.00 313.46 340.38 313.54 339.25 313.38 C 338.12 313.21 338.23 312.73 337.38 312.62 C 336.52 312.52 334.69 312.56 334.12 312.75 Z" id="s-8-f-1"/>
</g>
<g id="s-9" clip-path="url(#c-s-9)">
<use href="#s-9-f-0"/>
<path d="M 445.75 391.00 C 445.58 386.31 446.25 390.73 445.00 390.25 C 443.75 389.77 440.29 388.50 438.25 388.12 C 436.21 387.75 437.35 387.40 432.75 388.00 C 428.15 388.60 419.62 390.44 410.62 391.75 C 401.62 393.06 387.00 394.88 378.75 395.88 C 370.50 396.88 365.17 397.46 361.12 397.75 C 357.08 398.04 356.17 397.52 354.50 397.62 C 352.83 397.73 353.06 398.19 351.12 398.38 C 349.19 398.56 345.00 398.50 342.88 398.75 C 340.75 399.00 347.25 399.04 338.38 399.88 C 329.50 400.71 298.79 403.12 289.62 403.75 C 280.46 404.38 284.88 403.52 283.38 403.62 C 281.88 403.73 283.50 404.02 280.62 404.38 C 277.75 404.73 269.12 405.33 266.12 405.75 C 263.12 406.17 268.73 406.04 262.62 406.88 C 256.52 407.71 237.71 409.92 229.50 410.75 C 221.29 411.58 223.71 411.50 213.38 411.88 C 203.04 412.25 176.35 412.48 167.50 413.00 C 158.65 413.52 161.81 414.29 160.25 415.00 C 158.69 415.71 158.52 416.50 158.12 417.25 C 157.73 418.00 157.71 418.73 157.88 419.50 C 158.04 420.27 158.44 421.02 159.12 421.88 C 159.81 422.73 160.77 423.65 162.00 424.62 C 163.23 425.60 164.52 426.58 166.50 427.75 C 168.48 428.92 171.58 430.58 173.88 431.62 C 176.17 432.67 179.08 433.50 180.25 434.00 C 181.42 434.50 179.17 434.00 180.88 434.62 C 182.58 435.25 188.27 437.08 190.50 437.75 C 192.73 438.42 192.62 438.46 194.25 438.62 C 195.88 438.79 198.75 438.75 200.25 438.75 C 201.75 438.75 200.92 439.08 203.25 438.62 C 205.58 438.17 207.08 437.44 214.25 436.00 C 221.42 434.56 237.54 431.50 246.25 430.00 C 254.96 428.50 259.98 427.83 266.50 427.00 C 273.02 426.17 273.35 426.00 285.38 425.00 C 297.40 424.00 323.92 421.96 338.62 421.00 C 353.33 420.04 355.81 419.62 373.62 419.25 C 391.44 418.88 433.44 418.90 445.50 418.75 C 457.56 418.60 445.96 423.00 446.00 418.38 C 446.04 413.75 445.92 395.69 445.75 391.00 Z" id="s-9-f-1"/>
<path d="M 397.88 394.00 C 397.79 389.88 403.62 393.00 397.50 393.62 C 391.38 394.25 368.29 397.08 361.12 397.75 C 353.96 398.42 356.17 397.52 354.50 397.62 C 352.83 397.73 353.06 398.19 351.12 398.38 C 349.19 398.56 345.00 398.50 342.88 398.75 C 340.75 399.00 347.25 399.04 338.38 399.88 C 329.50 400.71 298.79 403.12 289.62 403.75 C 280.46 404.38 284.88 403.52 283.38 403.62 C 281.88 403.73 283.50 404.02 280.62 404.38 C 277.75 404.73 269.12 405.33 266.12 405.75 C 263.12 406.17 268.73 406.04 262.62 406.88 C 256.52 407.71 237.71 409.92 229.50 410.75 C 221.29 411.58 223.85 411.48 213.38 411.88 C 202.90 412.27 175.46 412.60 166.62 413.12 C 157.79 413.65 161.79 414.31 160.38 415.00 C 158.96 415.69 158.54 416.50 158.12 417.25 C 157.71 418.00 157.71 418.73 157.88 419.50 C 158.04 420.27 158.44 421.02 159.12 421.88 C 159.81 422.73 160.77 423.65 162.00 424.62 C 163.23 425.60 164.52 426.58 166.50 427.75 C 168.48 428.92 171.06 430.33 173.88 431.62 C 176.69 432.92 179.98 434.33 183.38 435.50 C 186.77 436.67 191.44 438.08 194.25 438.62 C 197.06 439.17 198.75 438.75 200.25 438.75 C 201.75 438.75 200.92 439.08 203.25 438.62 C 205.58 438.17 208.08 437.27 214.25 436.00 C 220.42 434.73 230.38 432.65 240.25 431.00 C 250.12 429.35 254.69 427.94 273.50 426.12 C 292.31 424.31 332.56 421.33 353.12 420.12 C 373.69 418.92 389.40 419.17 396.88 418.88 C 404.35 418.58 397.83 422.52 398.00 418.38 C 398.17 414.23 397.96 398.12 397.88 394.00 Z" id="s-9-f-2"/>
<path d="M 350.00 398.88 C 349.94 395.54 350.56 398.54 349.62 398.50 C 348.69 398.46 346.27 398.40 344.38 398.62 C 342.48 398.85 347.38 399.02 338.25 399.88 C 329.12 400.73 298.79 403.12 289.62 403.75 C 280.46 404.38 284.75 403.52 283.25 403.62 C 281.75 403.73 283.48 404.02 280.62 404.38 C 277.77 404.73 269.12 405.33 266.12 405.75 C 263.12 406.17 268.73 406.04 262.62 406.88 C 256.52 407.71 237.71 409.92 229.50 410.75 C 221.29 411.58 223.60 411.50 213.38 411.88 C 203.15 412.25 176.15 412.75 168.12 413.00 C 160.10 413.25 166.56 413.04 165.25 413.38 C 163.94 413.71 161.44 414.35 160.25 415.00 C 159.06 415.65 158.52 416.50 158.12 417.25 C 157.73 418.00 157.88 418.96 157.88 419.50 C 157.88 420.04 157.69 419.85 158.12 420.50 C 158.56 421.15 159.10 422.17 160.50 423.38 C 161.90 424.58 164.27 426.38 166.50 427.75 C 168.73 429.12 171.58 430.58 173.88 431.62 C 176.17 432.67 179.08 433.50 180.25 434.00 C 181.42 434.50 178.52 433.85 180.88 434.62 C 183.23 435.40 190.65 437.96 194.38 438.62 C 198.10 439.29 196.54 439.73 203.25 438.62 C 209.96 437.52 225.33 433.77 234.62 432.00 C 243.92 430.23 252.52 428.98 259.00 428.00 C 265.48 427.02 262.60 427.12 273.50 426.12 C 284.40 425.12 311.73 422.94 324.38 422.00 C 337.02 421.06 345.10 421.08 349.38 420.50 C 353.65 419.92 349.90 422.10 350.00 418.50 C 350.10 414.90 350.06 402.21 350.00 398.88 Z" id="s-9-f-3"/>
<path d="M 301.88 409.12 C 301.77 406.10 301.60 405.15 301.38 404.12 C 301.15 403.10 302.46 403.06 300.50 403.00 C 298.54 402.94 292.50 403.65 289.62 403.75 C 286.75 403.85 284.75 403.52 283.25 403.62 C 281.75 403.73 283.48 404.02 280.62 404.38 C 277.77 404.73 269.12 405.33 266.12 405.75 C 263.12 406.17 268.73 406.04 262.62 406.88 C 256.52 407.71 237.71 409.92 229.50 410.75 C 221.29 411.58 223.98 411.46 213.38 411.88 C 202.77 412.29 174.35 412.88 165.88 413.25 C 157.40 413.62 163.60 413.69 162.50 414.12 C 161.40 414.56 160.00 415.31 159.25 415.88 C 158.50 416.44 158.19 416.73 158.00 417.50 C 157.81 418.27 157.79 419.60 158.12 420.50 C 158.46 421.40 158.60 421.67 160.00 422.88 C 161.40 424.08 163.85 426.15 166.50 427.75 C 169.15 429.35 172.46 431.00 175.88 432.50 C 179.29 434.00 183.94 435.73 187.00 436.75 C 190.06 437.77 191.54 438.31 194.25 438.62 C 196.96 438.94 196.52 439.73 203.25 438.62 C 209.98 437.52 225.33 433.77 234.62 432.00 C 243.92 430.23 252.06 429.02 259.00 428.00 C 265.94 426.98 269.19 426.56 276.25 425.88 C 283.31 425.19 297.10 424.27 301.38 423.88 C 305.65 423.48 301.77 423.77 301.88 423.50 C 301.98 423.23 302.00 424.65 302.00 422.25 C 302.00 419.85 301.98 412.15 301.88 409.12 Z" id="s-9-f-4"/>
<path d="M 254.00 408.50 C 253.94 405.02 256.08 407.65 253.38 407.88 C 250.67 408.10 244.00 409.23 237.75 409.88 C 231.50 410.52 227.73 411.21 215.88 411.75 C 204.02 412.29 175.90 412.58 166.62 413.12 C 157.35 413.67 161.67 414.31 160.25 415.00 C 158.83 415.69 158.52 416.50 158.12 417.25 C 157.73 418.00 157.71 418.73 157.88 419.50 C 158.04 420.27 158.35 420.96 159.12 421.88 C 159.90 422.79 161.27 424.02 162.50 425.00 C 163.73 425.98 164.25 426.48 166.50 427.75 C 168.75 429.02 172.00 430.96 176.00 432.62 C 180.00 434.29 187.21 436.73 190.50 437.75 C 193.79 438.77 193.62 438.60 195.75 438.75 C 197.88 438.90 198.48 439.42 203.25 438.62 C 208.02 437.83 215.96 435.65 224.38 434.00 C 232.79 432.35 248.81 433.00 253.75 428.75 C 258.69 424.50 254.06 411.98 254.00 408.50 Z" id="s-9-f-5"/>
<path d="M 205.62 437.75 C 206.06 433.40 205.92 416.79 205.88 412.50 C 205.83 408.21 211.77 411.92 205.38 412.00 C 198.98 412.08 174.96 412.52 167.50 413.00 C 160.04 413.48 162.21 414.12 160.62 414.88 C 159.04 415.62 158.42 416.56 158.00 417.50 C 157.58 418.44 157.56 419.40 158.12 420.50 C 158.69 421.60 159.71 422.77 161.38 424.12 C 163.04 425.48 165.69 427.21 168.12 428.62 C 170.56 430.04 172.83 431.27 176.00 432.62 C 179.17 433.98 184.08 435.75 187.12 436.75 C 190.17 437.75 192.02 438.27 194.25 438.62 C 196.48 438.98 199.00 438.88 200.50 438.88 C 202.00 438.88 202.40 438.81 203.25 438.62 C 204.10 438.44 205.19 442.10 205.62 437.75 Z" id="s-9-f-6"/>
</g>
</svg>