<?xml version="1.0" encoding="UTF-8"?>
<svg xmlns="http://www.w3.org/2000/svg" viewBox="0 0 500 500">
<defs>
<path d="M 401.88 63.12 C 401.88 62.44 401.94 62.35 401.62 61.62 C 401.31 60.90 400.75 59.73 400.00 58.75 C 399.25 57.77 398.46 56.90 397.12 55.75 C 395.79 54.60 393.94 53.17 392.00 51.88 C 390.06 50.58 390.35 49.81 385.50 48.00 C 380.65 46.19 367.23 42.19 362.88 41.00 C 358.52 39.81 362.15 40.71 359.38 40.88 C 356.60 41.04 351.15 41.23 346.25 42.00 C 341.35 42.77 337.79 44.21 330.00 45.50 C 322.21 46.79 307.94 48.71 299.50 49.75 C 291.06 50.79 290.31 50.85 279.38 51.75 C 268.44 52.65 246.08 54.06 233.88 55.12 C 221.67 56.19 216.17 56.85 206.12 58.12 C 196.08 59.40 183.67 61.62 173.62 62.75 C 163.58 63.88 155.31 64.33 145.88 64.88 C 136.44 65.42 122.79 65.50 117.00 66.00 C 111.21 66.50 112.44 67.21 111.12 67.88 C 109.81 68.54 109.50 69.25 109.12 70.00 C 108.75 70.75 108.73 71.65 108.88 72.38 C 109.02 73.10 109.33 73.65 110.00 74.38 C 110.67 75.10 110.52 75.35 112.88 76.75 C 115.23 78.15 119.90 80.94 124.12 82.75 C 128.35 84.56 135.08 86.65 138.25 87.62 C 141.42 88.60 141.25 88.42 143.12 88.62 C 145.00 88.83 146.90 89.04 149.50 88.88 C 152.10 88.71 153.06 88.77 158.75 87.62 C 164.44 86.48 175.62 83.60 183.62 82.00 C 191.62 80.40 191.75 79.67 206.75 78.00 C 221.75 76.33 257.54 73.29 273.62 72.00 C 289.71 70.71 295.60 70.60 303.25 70.25 C 310.90 69.90 313.73 69.92 319.50 69.88 C 325.27 69.83 328.81 69.69 337.88 70.00 C 346.94 70.31 365.38 71.50 373.88 71.75 C 382.38 72.00 385.46 71.71 388.88 71.50 C 392.29 71.29 392.75 70.96 394.38 70.50 C 396.00 70.04 397.42 69.54 398.62 68.75 C 399.83 67.96 401.08 66.69 401.62 65.75 C 402.17 64.81 401.88 63.81 401.88 63.12 Z" id="s-0-f-0"/>
<clipPath id="c-s-0"><use href="#s-0-f-0"/></clipPath>
<path d="M 240.50 75.00 C 238.75 74.21 235.77 74.56 234.12 74.62 C 232.48 74.69 232.60 75.19 230.62 75.38 C 228.65 75.56 224.10 75.54 222.25 75.75 C 220.40 75.96 221.25 76.46 219.50 76.62 C 217.75 76.79 213.69 76.54 211.75 76.75 C 209.81 76.96 208.38 77.21 207.88 77.88 C 207.38 78.54 208.62 79.58 208.75 80.75 C 208.88 81.92 208.81 83.19 208.62 84.88 C 208.44 86.56 208.27 88.12 207.62 90.88 C 206.98 93.62 206.06 97.23 204.75 101.38 C 203.44 105.52 201.44 111.42 199.75 115.75 C 198.06 120.08 196.25 123.98 194.62 127.38 C 193.00 130.77 190.71 134.52 190.00 136.12 C 189.29 137.73 188.52 137.08 190.38 137.00 C 192.23 136.92 198.06 136.94 201.12 135.62 C 204.19 134.31 206.58 131.12 208.75 129.12 C 210.92 127.12 212.10 125.88 214.12 123.62 C 216.15 121.38 217.69 119.71 220.88 115.62 C 224.06 111.54 230.21 103.38 233.25 99.12 C 236.29 94.88 237.04 92.62 239.12 90.12 C 241.21 87.62 244.65 85.48 245.75 84.12 C 246.85 82.77 245.94 82.79 245.75 82.00 C 245.56 81.21 245.50 80.54 244.62 79.38 C 243.75 78.21 242.25 75.79 240.50 75.00 Z" id="s-1-f-0"/>
<clipPath id="c-s-1"><use href="#s-1-f-0"/></clipPath>
<path d="M 122.88 132.00 C 121.90 132.15 121.75 132.48 121.25 132.88 C 120.75 133.27 120.25 133.75 119.88 134.38 C 119.50 135.00 119.17 135.60 119.00 136.62 C 118.83 137.65 118.85 139.67 118.88 140.50 C 118.90 141.33 118.31 140.27 119.12 141.62 C 119.94 142.98 122.50 146.46 123.75 148.62 C 125.00 150.79 125.79 152.50 126.62 154.62 C 127.46 156.75 128.08 158.08 128.75 161.38 C 129.42 164.67 130.12 169.27 130.62 174.38 C 131.12 179.48 131.56 184.77 131.75 192.00 C 131.94 199.23 131.88 212.29 131.75 217.75 C 131.62 223.21 131.10 222.50 131.00 224.75 C 130.90 227.00 130.60 228.90 131.12 231.25 C 131.65 233.60 132.98 236.35 134.12 238.88 C 135.27 241.40 137.00 244.62 138.00 246.38 C 139.00 248.12 139.21 248.38 140.12 249.38 C 141.04 250.38 142.27 251.81 143.50 252.38 C 144.73 252.94 146.48 252.88 147.50 252.75 C 148.52 252.62 148.94 252.23 149.62 251.62 C 150.31 251.02 150.65 251.06 151.62 249.12 C 152.60 247.19 154.48 242.94 155.50 240.00 C 156.52 237.06 157.38 235.58 157.75 231.50 C 158.12 227.42 158.06 228.17 157.75 215.50 C 157.44 202.83 157.69 168.10 155.88 155.50 C 154.06 142.90 148.71 142.81 146.88 139.88 C 145.04 136.94 145.81 138.50 144.88 137.88 C 143.94 137.25 144.21 137.10 141.25 136.12 C 138.29 135.15 130.19 132.69 127.12 132.00 C 124.06 131.31 123.85 131.85 122.88 132.00 Z" id="s-2-f-0"/>
<clipPath id="c-s-2"><use href="#s-2-f-0"/></clipPath>
<path d="M 383.75 241.00 C 384.75 238.69 385.79 236.48 386.75 232.75 C 387.71 229.02 388.48 228.21 389.50 218.62 C 390.52 209.04 392.12 183.88 392.88 175.25 C 393.62 166.62 393.29 170.50 394.00 166.88 C 394.71 163.25 396.29 156.52 397.12 153.50 C 397.96 150.48 398.40 149.94 399.00 148.75 C 399.60 147.56 400.29 147.19 400.75 146.38 C 401.21 145.56 401.58 144.96 401.75 143.88 C 401.92 142.79 401.92 140.96 401.75 139.88 C 401.58 138.79 401.21 138.17 400.75 137.38 C 400.29 136.58 400.60 136.71 399.00 135.12 C 397.40 133.54 395.10 130.73 391.12 127.88 C 387.15 125.02 378.77 120.10 375.12 118.00 C 371.48 115.90 370.98 115.75 369.25 115.25 C 367.52 114.75 366.40 114.75 364.75 115.00 C 363.10 115.25 364.00 115.77 359.38 116.75 C 354.75 117.73 362.96 117.75 337.00 120.88 C 311.04 124.00 227.33 133.04 203.62 135.50 C 179.92 137.96 196.88 135.42 194.75 135.62 C 192.62 135.83 197.06 136.06 190.88 136.75 C 184.69 137.44 164.02 139.27 157.62 139.75 C 151.23 140.23 153.92 139.75 152.50 139.62 C 151.08 139.50 150.27 139.04 149.12 139.00 C 147.98 138.96 146.08 139.23 145.62 139.38 C 145.17 139.52 146.21 139.56 146.38 139.88 C 146.54 140.19 145.79 139.75 146.62 141.25 C 147.46 142.75 150.54 147.42 151.38 148.88 C 152.21 150.33 151.29 149.44 151.62 150.00 C 151.96 150.56 152.77 151.23 153.38 152.25 C 153.98 153.27 153.10 155.56 155.25 156.12 C 157.40 156.69 162.58 156.15 166.25 155.62 C 169.92 155.10 171.65 153.79 177.25 153.00 C 182.85 152.21 192.44 151.73 199.88 150.88 C 207.31 150.02 210.29 149.04 221.88 147.88 C 233.46 146.71 260.48 144.54 269.38 143.88 C 278.27 143.21 270.75 144.21 275.25 143.88 C 279.75 143.54 286.27 142.52 296.38 141.88 C 306.48 141.23 326.85 140.29 335.88 140.00 C 344.90 139.71 347.23 139.98 350.50 140.12 C 353.77 140.27 354.21 140.58 355.50 140.88 C 356.79 141.17 357.42 141.44 358.25 141.88 C 359.08 142.31 359.75 142.29 360.50 143.50 C 361.25 144.71 362.21 147.40 362.75 149.12 C 363.29 150.85 363.42 150.96 363.75 153.88 C 364.08 156.79 364.62 161.42 364.75 166.62 C 364.88 171.83 364.67 180.29 364.50 185.12 C 364.33 189.96 364.21 191.67 363.75 195.62 C 363.29 199.58 362.40 205.54 361.75 208.88 C 361.10 212.21 360.38 214.15 359.88 215.62 C 359.38 217.10 359.44 216.88 358.75 217.75 C 358.06 218.62 356.65 220.21 355.75 220.88 C 354.85 221.54 357.60 221.92 353.38 221.75 C 349.15 221.58 335.52 220.52 330.38 219.88 C 325.23 219.23 324.00 218.21 322.50 217.88 C 321.00 217.54 321.73 217.75 321.38 217.88 C 321.02 218.00 320.62 218.12 320.38 218.62 C 320.12 219.12 319.79 220.23 319.88 220.88 C 319.96 221.52 319.88 221.42 320.88 222.50 C 321.88 223.58 323.56 224.29 325.88 227.38 C 328.19 230.46 331.40 235.58 334.75 241.00 C 338.10 246.42 343.44 256.08 346.00 259.88 C 348.56 263.67 349.02 262.94 350.12 263.75 C 351.23 264.56 351.10 264.60 352.62 264.75 C 354.15 264.90 357.42 264.96 359.25 264.62 C 361.08 264.29 362.15 263.54 363.62 262.75 C 365.10 261.96 366.33 261.25 368.12 259.88 C 369.92 258.50 372.85 255.92 374.38 254.50 C 375.90 253.08 376.19 252.69 377.25 251.38 C 378.31 250.06 379.67 248.35 380.75 246.62 C 381.83 244.90 382.75 243.31 383.75 241.00 Z" id="s-3-f-0"/>
<clipPath id="c-s-3"><use href="#s-3-f-0"/></clipPath>
<path d="M 198.75 149.62 C 197.33 149.88 196.38 149.50 196.88 150.88 C 197.38 152.25 200.75 156.17 201.75 157.88 C 202.75 159.58 202.40 159.04 202.88 161.12 C 203.35 163.21 203.81 165.38 204.62 170.38 C 205.44 175.38 206.81 182.98 207.75 191.12 C 208.69 199.27 209.54 213.75 210.25 219.25 C 210.96 224.75 210.88 221.79 212.00 224.12 C 213.12 226.46 215.65 231.31 217.00 233.25 C 218.35 235.19 219.15 235.33 220.12 235.75 C 221.10 236.17 222.10 235.98 222.88 235.75 C 223.65 235.52 223.98 235.77 224.75 234.38 C 225.52 232.98 226.98 229.04 227.50 227.38 C 228.02 225.71 227.85 230.27 227.88 224.38 C 227.90 218.48 227.79 201.42 227.62 192.00 C 227.46 182.58 227.19 174.21 226.88 167.88 C 226.56 161.54 226.10 156.69 225.75 154.00 C 225.40 151.31 225.44 152.69 224.75 151.75 C 224.06 150.81 222.48 149.04 221.62 148.38 C 220.77 147.71 220.77 147.88 219.62 147.75 C 218.48 147.62 215.81 147.50 214.75 147.62 C 213.69 147.75 214.58 148.33 213.25 148.50 C 211.92 148.67 208.06 148.48 206.75 148.62 C 205.44 148.77 206.71 149.21 205.38 149.38 C 204.04 149.54 200.17 149.38 198.75 149.62 Z" id="s-4-f-0"/>
<clipPath id="c-s-4"><use href="#s-4-f-0"/></clipPath>
<path d="M 295.25 141.50 C 293.60 141.48 288.42 141.46 286.38 141.62 C 284.33 141.79 285.27 142.31 283.00 142.50 C 280.73 142.69 274.75 142.50 272.75 142.75 C 270.75 143.00 271.06 143.00 271.00 144.00 C 270.94 145.00 272.08 147.42 272.38 148.75 C 272.67 150.08 272.69 148.21 272.75 152.00 C 272.81 155.79 272.92 163.40 272.75 171.50 C 272.58 179.60 272.38 190.52 271.75 200.62 C 271.12 210.73 269.46 226.12 269.00 232.12 C 268.54 238.12 268.33 234.50 269.00 236.62 C 269.67 238.75 272.15 243.23 273.00 244.88 C 273.85 246.52 273.65 246.02 274.12 246.50 C 274.60 246.98 275.19 247.54 275.88 247.75 C 276.56 247.96 277.65 247.88 278.25 247.75 C 278.85 247.62 278.73 247.75 279.50 247.00 C 280.27 246.25 281.88 244.75 282.88 243.25 C 283.88 241.75 284.73 240.04 285.50 238.00 C 286.27 235.96 287.10 232.90 287.50 231.00 C 287.90 229.10 287.52 228.65 287.88 226.62 C 288.23 224.60 288.25 229.25 289.62 218.88 C 291.00 208.50 294.42 176.06 296.12 164.38 C 297.83 152.69 299.27 151.75 299.88 148.75 C 300.48 145.75 299.94 147.08 299.75 146.38 C 299.56 145.67 299.33 145.27 298.75 144.50 C 298.17 143.73 296.83 142.25 296.25 141.75 C 295.67 141.25 296.90 141.52 295.25 141.50 Z" id="s-5-f-0"/>
<clipPath id="c-s-5"><use href="#s-5-f-0"/></clipPath>
<path d="M 413.88 313.12 C 413.73 312.15 413.52 311.10 412.75 309.88 C 411.98 308.65 410.65 307.04 409.25 305.75 C 407.85 304.46 406.33 303.42 404.38 302.12 C 402.42 300.83 402.40 299.85 397.50 298.00 C 392.60 296.15 379.35 292.19 375.00 291.00 C 370.65 289.81 374.46 290.71 371.38 290.88 C 368.29 291.04 361.71 291.38 356.50 292.00 C 351.29 292.62 346.10 293.83 340.12 294.62 C 334.15 295.42 334.69 295.56 320.62 296.75 C 306.56 297.94 270.58 300.71 255.75 301.75 C 240.92 302.79 243.54 302.10 231.62 303.00 C 219.71 303.90 195.88 306.00 184.25 307.12 C 172.62 308.25 168.25 309.12 161.88 309.75 C 155.50 310.38 156.46 310.50 146.00 310.88 C 135.54 311.25 107.58 311.62 99.12 312.00 C 90.67 312.38 96.25 312.69 95.25 313.12 C 94.25 313.56 93.67 314.10 93.12 314.62 C 92.58 315.15 92.21 315.62 92.00 316.25 C 91.79 316.88 91.62 317.60 91.88 318.38 C 92.12 319.15 92.58 319.98 93.50 320.88 C 94.42 321.77 94.69 322.27 97.38 323.75 C 100.06 325.23 106.21 328.27 109.62 329.75 C 113.04 331.23 115.23 331.83 117.88 332.62 C 120.52 333.42 122.73 334.15 125.50 334.50 C 128.27 334.85 125.46 335.83 134.50 334.75 C 143.54 333.67 168.62 329.48 179.75 328.00 C 190.88 326.52 193.94 326.40 201.25 325.88 C 208.56 325.35 215.75 325.54 223.62 324.88 C 231.50 324.21 234.02 322.69 248.50 321.88 C 262.98 321.06 294.50 320.31 310.50 320.00 C 326.50 319.69 333.58 319.83 344.50 320.00 C 355.42 320.17 368.75 320.69 376.00 321.00 C 383.25 321.31 383.92 321.77 388.00 321.88 C 392.08 321.98 397.44 321.85 400.50 321.62 C 403.56 321.40 404.65 321.00 406.38 320.50 C 408.10 320.00 409.81 319.19 410.88 318.62 C 411.94 318.06 412.29 317.60 412.75 317.12 C 413.21 316.65 413.44 316.42 413.62 315.75 C 413.81 315.08 414.02 314.10 413.88 313.12 Z" id="s-6-f-0"/>
<clipPath id="c-s-6"><use href="#s-6-f-0"/></clipPath>
<path d="M 258.00 250.12 C 256.00 248.73 251.92 245.65 248.62 244.12 C 245.33 242.60 240.81 241.69 238.25 241.00 C 235.69 240.31 234.90 240.17 233.25 240.00 C 231.60 239.83 229.50 239.85 228.38 240.00 C 227.25 240.15 227.02 240.42 226.50 240.88 C 225.98 241.33 225.50 241.48 225.25 242.75 C 225.00 244.02 224.75 246.42 225.00 248.50 C 225.25 250.58 226.31 252.52 226.75 255.25 C 227.19 257.98 227.50 260.25 227.62 264.88 C 227.75 269.50 227.81 277.31 227.50 283.00 C 227.19 288.69 226.27 295.44 225.75 299.00 C 225.23 302.56 224.56 303.42 224.38 304.38 C 224.19 305.33 224.75 304.56 224.62 304.75 C 224.50 304.94 224.00 304.04 223.62 305.50 C 223.25 306.96 222.71 312.10 222.38 313.50 C 222.04 314.90 221.96 312.60 221.62 313.88 C 221.29 315.15 220.71 319.73 220.38 321.12 C 220.04 322.52 219.75 321.50 219.62 322.25 C 219.50 323.00 220.46 322.81 219.62 325.62 C 218.79 328.44 216.98 333.71 214.62 339.12 C 212.27 344.54 208.50 352.65 205.50 358.12 C 202.50 363.60 199.71 367.65 196.62 372.00 C 193.54 376.35 190.23 380.46 187.00 384.25 C 183.77 388.04 180.06 391.85 177.25 394.75 C 174.44 397.65 173.48 398.67 170.12 401.62 C 166.77 404.58 160.98 409.48 157.12 412.50 C 153.27 415.52 150.17 417.58 147.00 419.75 C 143.83 421.92 142.96 422.69 138.12 425.50 C 133.29 428.31 126.29 432.54 118.00 436.62 C 109.71 440.71 93.88 447.27 88.38 450.00 C 82.88 452.73 85.58 452.31 85.00 453.00 C 84.42 453.69 84.81 453.81 84.88 454.12 C 84.94 454.44 84.73 454.58 85.38 454.88 C 86.02 455.17 86.29 455.73 88.75 455.88 C 91.21 456.02 96.56 455.94 100.12 455.75 C 103.69 455.56 106.65 455.25 110.12 454.75 C 113.60 454.25 116.67 453.77 121.00 452.75 C 125.33 451.73 131.77 449.98 136.12 448.62 C 140.48 447.27 143.40 446.10 147.12 444.62 C 150.85 443.15 155.31 441.21 158.50 439.75 C 161.69 438.29 163.58 437.38 166.25 435.88 C 168.92 434.38 171.40 432.88 174.50 430.75 C 177.60 428.62 180.75 426.54 184.88 423.12 C 189.00 419.71 194.96 414.52 199.25 410.25 C 203.54 405.98 207.69 401.00 210.62 397.50 C 213.56 394.00 214.69 392.33 216.88 389.25 C 219.06 386.17 221.46 382.75 223.75 379.00 C 226.04 375.25 228.15 371.85 230.62 366.75 C 233.10 361.65 236.44 353.71 238.62 348.38 C 240.81 343.04 242.35 338.75 243.75 334.75 C 245.15 330.75 246.21 326.62 247.00 324.38 C 247.79 322.12 248.29 321.83 248.50 321.25 C 248.71 320.67 248.17 321.06 248.25 320.88 C 248.33 320.69 248.69 320.73 249.00 320.12 C 249.31 319.52 249.90 318.17 250.12 317.25 C 250.35 316.33 250.21 315.21 250.38 314.62 C 250.54 314.04 250.79 314.81 251.12 313.75 C 251.46 312.69 252.04 309.33 252.38 308.25 C 252.71 307.17 252.96 307.81 253.12 307.25 C 253.29 306.69 253.21 305.42 253.38 304.88 C 253.54 304.33 254.00 304.65 254.12 304.00 C 254.25 303.35 253.85 302.31 254.12 301.00 C 254.40 299.69 254.77 300.10 255.75 296.12 C 256.73 292.15 258.50 282.48 260.00 277.12 C 261.50 271.77 263.96 267.02 264.75 264.00 C 265.54 260.98 264.90 260.23 264.75 259.00 C 264.60 257.77 264.56 257.71 263.88 256.62 C 263.19 255.54 261.60 253.58 260.62 252.50 C 259.65 251.42 260.00 251.52 258.00 250.12 Z" id="s-7-f-0"/>
<clipPath id="c-s-7"><use href="#s-7-f-0"/></clipPath>
<path d="M 265.00 349.75 C 264.81 350.48 264.73 352.08 265.12 353.25 C 265.52 354.42 261.33 351.75 267.38 356.75 C 273.42 361.75 290.88 374.90 301.38 383.25 C 311.88 391.60 322.54 400.38 330.38 406.88 C 338.21 413.38 341.15 415.75 348.38 422.25 C 355.60 428.75 367.56 440.29 373.75 445.88 C 379.94 451.46 382.69 453.77 385.50 455.75 C 388.31 457.73 388.67 457.42 390.62 457.75 C 392.58 458.08 395.67 457.92 397.25 457.75 C 398.83 457.58 399.19 457.23 400.12 456.75 C 401.06 456.27 401.92 455.77 402.88 454.88 C 403.83 453.98 405.06 452.60 405.88 451.38 C 406.69 450.15 407.12 449.62 407.75 447.50 C 408.38 445.38 409.27 441.44 409.62 438.62 C 409.98 435.81 409.92 432.50 409.88 430.62 C 409.83 428.75 409.67 428.38 409.38 427.38 C 409.08 426.38 409.00 425.92 408.12 424.62 C 407.25 423.33 405.67 421.27 404.12 419.62 C 402.58 417.98 401.19 416.71 398.88 414.75 C 396.56 412.79 394.40 410.83 390.25 407.88 C 386.10 404.92 378.12 399.65 374.00 397.00 C 369.88 394.35 374.60 396.48 365.50 392.00 C 356.40 387.52 334.02 376.96 319.38 370.12 C 304.73 363.29 285.94 354.52 277.62 351.00 C 269.31 347.48 271.40 349.35 269.50 349.00 C 267.60 348.65 267.00 348.75 266.25 348.88 C 265.50 349.00 265.19 349.02 265.00 349.75 Z" id="s-8-f-0"/>
<clipPath id="c-s-8"><use href="#s-8-f-0"/></clipPath>
</defs>
<g id="s-0" clip-path="url(#c-s-0)">
<use href="#s-0-f-0"/>
<path d="M 397.00 57.00 C 396.96 54.92 397.10 56.15 396.75 55.62 C 396.40 55.10 396.75 55.15 394.88 53.88 C 393.00 52.60 390.73 50.12 385.50 48.00 C 380.27 45.88 368.38 42.29 363.50 41.12 C 358.62 39.96 359.12 40.85 356.25 41.00 C 353.38 41.15 350.62 41.25 346.25 42.00 C 341.88 42.75 337.79 44.21 330.00 45.50 C 322.21 46.79 307.94 48.71 299.50 49.75 C 291.06 50.79 290.31 50.85 279.38 51.75 C 268.44 52.65 246.08 54.06 233.88 55.12 C 221.67 56.19 216.17 56.85 206.12 58.12 C 196.08 59.40 183.67 61.62 173.62 62.75 C 163.58 63.88 155.31 64.33 145.88 64.88 C 136.44 65.42 122.79 65.50 117.00 66.00 C 111.21 66.50 112.44 67.21 111.12 67.88 C 109.81 68.54 109.50 69.25 109.12 70.00 C 108.75 70.75 108.65 71.56 108.88 72.38 C 109.10 73.19 109.58 73.98 110.50 74.88 C 111.42 75.77 112.81 76.77 114.38 77.75 C 115.94 78.73 117.40 79.58 119.88 80.75 C 122.35 81.92 126.19 83.60 129.25 84.75 C 132.31 85.90 135.94 86.98 138.25 87.62 C 140.56 88.27 140.73 88.44 143.12 88.62 C 145.52 88.81 145.88 89.85 152.62 88.75 C 159.38 87.65 174.60 83.79 183.62 82.00 C 192.65 80.21 191.75 79.67 206.75 78.00 C 221.75 76.33 257.54 73.29 273.62 72.00 C 289.71 70.71 295.60 70.60 303.25 70.25 C 310.90 69.90 313.73 69.92 319.50 69.88 C 325.27 69.83 328.81 69.69 337.88 70.00 C 346.94 70.31 365.38 71.50 373.88 71.75 C 382.38 72.00 385.54 71.69 388.88 71.50 C 392.21 71.31 392.58 70.94 393.88 70.62 C 395.17 70.31 396.10 70.04 396.62 69.62 C 397.15 69.21 396.94 70.23 397.00 68.12 C 397.06 66.02 397.04 59.08 397.00 57.00 Z" id="s-0-f-1"/>
<path d="M 348.38 43.62 C 348.19 42.23 350.81 41.69 347.75 42.00 C 344.69 42.31 338.04 44.21 330.00 45.50 C 321.96 46.79 316.94 48.00 299.50 49.75 C 282.06 51.50 240.94 54.60 225.38 56.00 C 209.81 57.40 214.75 57.00 206.12 58.12 C 197.50 59.25 183.29 61.65 173.62 62.75 C 163.96 63.85 157.56 64.21 148.12 64.75 C 138.69 65.29 123.17 65.48 117.00 66.00 C 110.83 66.52 112.44 67.21 111.12 67.88 C 109.81 68.54 109.50 69.25 109.12 70.00 C 108.75 70.75 108.73 71.65 108.88 72.38 C 109.02 73.10 109.33 73.65 110.00 74.38 C 110.67 75.10 110.52 75.35 112.88 76.75 C 115.23 78.15 119.90 80.94 124.12 82.75 C 128.35 84.56 135.08 86.65 138.25 87.62 C 141.42 88.60 141.25 88.42 143.12 88.62 C 145.00 88.83 146.90 89.04 149.50 88.88 C 152.10 88.71 153.06 88.77 158.75 87.62 C 164.44 86.48 175.62 83.60 183.62 82.00 C 191.62 80.40 198.54 79.02 206.75 78.00 C 214.96 76.98 226.02 76.52 232.88 75.88 C 239.73 75.23 239.00 74.92 247.88 74.12 C 256.75 73.33 276.90 71.77 286.12 71.12 C 295.35 70.48 296.79 70.46 303.25 70.25 C 309.71 70.04 317.40 69.83 324.88 69.88 C 332.35 69.92 344.12 70.50 348.12 70.50 C 352.12 70.50 348.73 70.29 348.88 69.88 C 349.02 69.46 349.00 71.25 349.00 68.00 C 349.00 64.75 348.98 54.44 348.88 50.38 C 348.77 46.31 348.56 45.02 348.38 43.62 Z" id="s-0-f-2"/>
<path d="M 300.88 50.12 C 300.67 46.96 303.33 49.35 299.75 49.62 C 296.17 49.90 290.35 50.83 279.38 51.75 C 268.40 52.67 246.08 54.06 233.88 55.12 C 221.67 56.19 216.17 56.85 206.12 58.12 C 196.08 59.40 181.06 61.79 173.62 62.75 C 166.19 63.71 170.94 63.33 161.50 63.88 C 152.06 64.42 125.40 65.33 117.00 66.00 C 108.60 66.67 112.44 67.21 111.12 67.88 C 109.81 68.54 109.50 69.25 109.12 70.00 C 108.75 70.75 108.65 71.56 108.88 72.38 C 109.10 73.19 109.58 73.98 110.50 74.88 C 111.42 75.77 112.81 76.77 114.38 77.75 C 115.94 78.73 117.40 79.58 119.88 80.75 C 122.35 81.92 126.19 83.60 129.25 84.75 C 132.31 85.90 135.94 86.98 138.25 87.62 C 140.56 88.27 140.73 88.44 143.12 88.62 C 145.52 88.81 145.88 89.85 152.62 88.75 C 159.38 87.65 174.60 83.79 183.62 82.00 C 192.65 80.21 202.10 78.69 206.75 78.00 C 211.40 77.31 202.56 78.71 211.50 77.88 C 220.44 77.04 247.62 74.15 260.38 73.00 C 273.12 71.85 281.38 71.40 288.00 71.00 C 294.62 70.60 297.98 70.79 300.12 70.62 C 302.27 70.46 300.73 70.33 300.88 70.00 C 301.02 69.67 301.00 71.94 301.00 68.62 C 301.00 65.31 301.08 53.29 300.88 50.12 Z" id="s-0-f-3"/>
<path d="M 252.88 54.12 C 252.75 51.04 253.54 53.75 252.25 53.75 C 250.96 53.75 251.35 53.56 245.12 54.12 C 238.90 54.69 226.79 55.69 214.88 57.12 C 202.96 58.56 185.12 61.46 173.62 62.75 C 162.12 64.04 155.31 64.33 145.88 64.88 C 136.44 65.42 122.79 65.50 117.00 66.00 C 111.21 66.50 112.44 67.21 111.12 67.88 C 109.81 68.54 109.50 69.25 109.12 70.00 C 108.75 70.75 108.65 71.56 108.88 72.38 C 109.10 73.19 109.58 73.98 110.50 74.88 C 111.42 75.77 112.81 76.77 114.38 77.75 C 115.94 78.73 117.40 79.58 119.88 80.75 C 122.35 81.92 126.19 83.60 129.25 84.75 C 132.31 85.90 135.94 86.98 138.25 87.62 C 140.56 88.27 140.73 88.44 143.12 88.62 C 145.52 88.81 145.88 89.85 152.62 88.75 C 159.38 87.65 174.60 83.79 183.62 82.00 C 192.65 80.21 202.10 78.69 206.75 78.00 C 211.40 77.31 203.85 78.58 211.50 77.88 C 219.15 77.17 245.71 74.69 252.62 73.75 C 259.54 72.81 252.96 75.52 253.00 72.25 C 253.04 68.98 253.00 57.21 252.88 54.12 Z" id="s-0-f-4"/>
<path d="M 204.88 59.00 C 204.69 55.98 209.08 57.88 203.88 58.50 C 198.67 59.12 180.69 61.85 173.62 62.75 C 166.56 63.65 170.94 63.33 161.50 63.88 C 152.06 64.42 125.40 65.33 117.00 66.00 C 108.60 66.67 112.44 67.21 111.12 67.88 C 109.81 68.54 109.50 69.25 109.12 70.00 C 108.75 70.75 108.65 71.56 108.88 72.38 C 109.10 73.19 109.58 73.98 110.50 74.88 C 111.42 75.77 112.81 76.77 114.38 77.75 C 115.94 78.73 117.40 79.58 119.88 80.75 C 122.35 81.92 126.19 83.60 129.25 84.75 C 132.31 85.90 135.94 86.98 138.25 87.62 C 140.56 88.27 140.73 88.44 143.12 88.62 C 145.52 88.81 145.88 89.85 152.62 88.75 C 159.38 87.65 175.00 83.69 183.62 82.00 C 192.25 80.31 200.81 79.52 204.38 78.62 C 207.94 77.73 204.92 79.90 205.00 76.62 C 205.08 73.35 205.06 62.02 204.88 59.00 Z" id="s-0-f-5"/>
<path d="M 156.62 87.62 C 157.35 86.29 156.94 84.33 157.00 80.75 C 157.06 77.17 157.06 68.88 157.00 66.12 C 156.94 63.38 163.29 64.27 156.62 64.25 C 149.96 64.23 124.58 65.40 117.00 66.00 C 109.42 66.60 112.44 67.21 111.12 67.88 C 109.81 68.54 109.48 69.15 109.12 70.00 C 108.77 70.85 108.38 71.88 109.00 73.00 C 109.62 74.12 111.06 75.46 112.88 76.75 C 114.69 78.04 117.15 79.42 119.88 80.75 C 122.60 82.08 126.19 83.60 129.25 84.75 C 132.31 85.90 135.94 86.98 138.25 87.62 C 140.56 88.27 140.73 88.44 143.12 88.62 C 145.52 88.81 150.38 88.92 152.62 88.75 C 154.88 88.58 155.90 88.96 156.62 87.62 Z" id="s-0-f-6"/>
</g>
<g id="s-1" clip-path="url(#c-s-1)">
<use href="#s-1-f-0"/>
<path d="M 243.75 78.12 C 242.90 77.04 241.33 75.58 240.50 75.00 C 239.67 74.42 239.81 74.69 238.75 74.62 C 237.69 74.56 235.48 74.50 234.12 74.62 C 232.77 74.75 232.60 75.19 230.62 75.38 C 228.65 75.56 224.10 75.54 222.25 75.75 C 220.40 75.96 221.06 76.48 219.50 76.62 C 217.94 76.77 214.75 76.48 212.88 76.62 C 211.00 76.77 209.08 77.23 208.25 77.50 C 207.42 77.77 207.79 77.71 207.88 78.25 C 207.96 78.79 208.60 79.85 208.75 80.75 C 208.90 81.65 208.94 81.94 208.75 83.62 C 208.56 85.31 208.62 86.85 207.62 90.88 C 206.62 94.90 204.54 102.58 202.75 107.75 C 200.96 112.92 197.83 119.42 196.88 121.88 C 195.92 124.33 196.17 122.31 197.00 122.50 C 197.83 122.69 198.92 122.96 201.88 123.00 C 204.83 123.04 210.77 125.02 214.75 122.75 C 218.73 120.48 222.42 113.67 225.75 109.38 C 229.08 105.08 232.52 100.21 234.75 97.00 C 236.98 93.79 237.29 92.27 239.12 90.12 C 240.96 87.98 244.67 85.56 245.75 84.12 C 246.83 82.69 245.96 82.50 245.62 81.50 C 245.29 80.50 244.60 79.21 243.75 78.12 Z" id="s-1-f-1"/>
</g>
<g id="s-2" clip-path="url(#c-s-2)">
<use href="#s-2-f-0"/>
<path d="M 122.88 132.00 C 121.90 132.15 121.75 132.48 121.25 132.88 C 120.75 133.27 120.25 133.75 119.88 134.38 C 119.50 135.00 119.17 135.60 119.00 136.62 C 118.83 137.65 118.85 139.67 118.88 140.50 C 118.90 141.33 118.31 140.27 119.12 141.62 C 119.94 142.98 122.50 146.46 123.75 148.62 C 125.00 150.79 125.79 152.50 126.62 154.62 C 127.46 156.75 128.08 158.08 128.75 161.38 C 129.42 164.67 130.12 169.29 130.62 174.38 C 131.12 179.46 131.56 184.65 131.75 191.88 C 131.94 199.10 131.90 211.81 131.75 217.75 C 131.60 223.69 130.69 225.79 130.88 227.50 C 131.06 229.21 128.42 227.96 132.88 228.00 C 137.33 228.04 153.48 229.83 157.62 227.75 C 161.77 225.67 158.06 227.60 157.75 215.50 C 157.44 203.40 157.56 167.73 155.75 155.12 C 153.94 142.52 148.69 142.75 146.88 139.88 C 145.06 137.00 145.81 138.50 144.88 137.88 C 143.94 137.25 144.21 137.10 141.25 136.12 C 138.29 135.15 130.19 132.69 127.12 132.00 C 124.06 131.31 123.85 131.85 122.88 132.00 Z" id="s-2-f-1"/>
<path d="M 121.25 132.88 C 120.75 133.27 120.25 133.75 119.88 134.38 C 119.50 135.00 119.15 135.46 119.00 136.62 C 118.85 137.79 118.21 139.38 119.00 141.38 C 119.79 143.38 122.29 145.90 123.75 148.62 C 125.21 151.35 126.75 154.56 127.75 157.75 C 128.75 160.94 129.19 164.10 129.75 167.75 C 130.31 171.40 130.58 177.58 131.12 179.62 C 131.67 181.67 128.81 179.96 133.00 180.00 C 137.19 180.04 152.31 179.98 156.25 179.88 C 160.19 179.77 156.69 183.44 156.62 179.38 C 156.56 175.31 157.50 162.08 155.88 155.50 C 154.25 148.92 148.94 142.96 146.88 139.88 C 144.81 136.79 146.10 138.15 143.50 137.00 C 140.90 135.85 134.23 133.85 131.25 133.00 C 128.27 132.15 127.02 132.04 125.62 131.88 C 124.23 131.71 123.60 131.83 122.88 132.00 C 122.15 132.17 121.75 132.48 121.25 132.88 Z" id="s-2-f-2"/>
</g>
<g id="s-3" clip-path="url(#c-s-3)">
<use href="#s-3-f-0"/>
<path d="M 383.75 241.00 C 385.06 238.23 385.77 236.65 386.75 232.75 C 387.73 228.85 388.60 227.21 389.62 217.62 C 390.65 208.04 392.15 183.71 392.88 175.25 C 393.60 166.79 393.31 170.44 394.00 166.88 C 394.69 163.31 396.17 156.90 397.00 153.88 C 397.83 150.85 398.38 150.00 399.00 148.75 C 399.62 147.50 400.29 147.19 400.75 146.38 C 401.21 145.56 401.58 144.96 401.75 143.88 C 401.92 142.79 401.92 140.96 401.75 139.88 C 401.58 138.79 401.33 138.31 400.75 137.38 C 400.17 136.44 399.88 135.85 398.25 134.25 C 396.62 132.65 394.83 130.44 391.00 127.75 C 387.17 125.06 378.88 120.21 375.25 118.12 C 371.62 116.04 371.00 115.77 369.25 115.25 C 367.50 114.73 366.40 114.75 364.75 115.00 C 363.10 115.25 364.00 115.77 359.38 116.75 C 354.75 117.73 362.96 117.75 337.00 120.88 C 311.04 124.00 227.33 133.04 203.62 135.50 C 179.92 137.96 196.88 135.42 194.75 135.62 C 192.62 135.83 197.06 136.06 190.88 136.75 C 184.69 137.44 164.02 139.27 157.62 139.75 C 151.23 140.23 153.92 139.75 152.50 139.62 C 151.08 139.50 150.27 139.04 149.12 139.00 C 147.98 138.96 146.08 139.23 145.62 139.38 C 145.17 139.52 146.21 139.56 146.38 139.88 C 146.54 140.19 145.27 138.88 146.62 141.25 C 147.98 143.62 153.06 151.65 154.50 154.12 C 155.94 156.60 153.29 155.88 155.25 156.12 C 157.21 156.38 162.58 156.15 166.25 155.62 C 169.92 155.10 171.67 153.79 177.25 153.00 C 182.83 152.21 192.52 151.71 199.75 150.88 C 206.98 150.04 204.52 149.50 220.62 148.00 C 236.73 146.50 277.17 143.21 296.38 141.88 C 315.58 140.54 326.85 140.29 335.88 140.00 C 344.90 139.71 347.23 139.98 350.50 140.12 C 353.77 140.27 354.21 140.58 355.50 140.88 C 356.79 141.17 357.35 141.33 358.25 141.88 C 359.15 142.42 360.12 142.92 360.88 144.12 C 361.62 145.33 362.27 147.50 362.75 149.12 C 363.23 150.75 363.44 151.54 363.75 153.88 C 364.06 156.21 364.46 159.17 364.62 163.12 C 364.79 167.08 364.90 172.21 364.75 177.62 C 364.60 183.04 364.25 190.42 363.75 195.62 C 363.25 200.83 362.38 205.71 361.75 208.88 C 361.12 212.04 360.46 212.69 360.00 214.62 C 359.54 216.56 359.88 212.21 359.00 220.50 C 358.12 228.79 355.38 256.98 354.75 264.38 C 354.12 271.77 354.73 264.81 355.25 264.88 C 355.77 264.94 356.48 265.10 357.88 264.75 C 359.27 264.40 361.54 263.85 363.62 262.75 C 365.71 261.65 368.35 259.73 370.38 258.12 C 372.40 256.52 374.33 254.58 375.75 253.12 C 377.17 251.67 377.54 251.40 378.88 249.38 C 380.21 247.35 382.44 243.77 383.75 241.00 Z" id="s-3-f-1"/>
<path d="M 388.75 223.50 C 389.33 222.27 389.06 224.67 389.75 216.62 C 390.44 208.58 392.17 183.54 392.88 175.25 C 393.58 166.96 393.29 170.50 394.00 166.88 C 394.71 163.25 396.29 156.52 397.12 153.50 C 397.96 150.48 398.40 149.94 399.00 148.75 C 399.60 147.56 400.29 147.19 400.75 146.38 C 401.21 145.56 401.58 144.96 401.75 143.88 C 401.92 142.79 401.92 140.96 401.75 139.88 C 401.58 138.79 401.21 138.17 400.75 137.38 C 400.29 136.58 400.60 136.71 399.00 135.12 C 397.40 133.54 394.54 130.40 391.12 127.88 C 387.71 125.35 382.15 122.10 378.50 120.00 C 374.85 117.90 371.54 116.08 369.25 115.25 C 366.96 114.42 366.40 114.75 364.75 115.00 C 363.10 115.25 364.00 115.77 359.38 116.75 C 354.75 117.73 362.96 117.75 337.00 120.88 C 311.04 124.00 227.33 133.04 203.62 135.50 C 179.92 137.96 196.88 135.42 194.75 135.62 C 192.62 135.83 197.06 136.06 190.88 136.75 C 184.69 137.44 164.02 139.27 157.62 139.75 C 151.23 140.23 153.92 139.75 152.50 139.62 C 151.08 139.50 150.27 139.04 149.12 139.00 C 147.98 138.96 146.08 139.23 145.62 139.38 C 145.17 139.52 146.21 139.56 146.38 139.88 C 146.54 140.19 145.79 139.75 146.62 141.25 C 147.46 142.75 150.54 147.42 151.38 148.88 C 152.21 150.33 151.29 149.44 151.62 150.00 C 151.96 150.56 152.77 151.23 153.38 152.25 C 153.98 153.27 153.10 155.56 155.25 156.12 C 157.40 156.69 162.58 156.15 166.25 155.62 C 169.92 155.10 171.65 153.79 177.25 153.00 C 182.85 152.21 192.67 151.71 199.88 150.88 C 207.08 150.04 208.92 149.17 220.50 148.00 C 232.08 146.83 260.25 144.56 269.38 143.88 C 278.50 143.19 270.75 144.21 275.25 143.88 C 279.75 143.54 286.27 142.52 296.38 141.88 C 306.48 141.23 327.19 140.31 335.88 140.00 C 344.56 139.69 345.15 139.83 348.50 140.00 C 351.85 140.17 354.33 140.67 356.00 141.00 C 357.67 141.33 357.75 141.58 358.50 142.00 C 359.25 142.42 359.81 142.38 360.50 143.50 C 361.19 144.62 362.08 147.02 362.62 148.75 C 363.17 150.48 363.40 150.90 363.75 153.88 C 364.10 156.85 364.62 161.42 364.75 166.62 C 364.88 171.83 364.67 180.29 364.50 185.12 C 364.33 189.96 364.21 191.67 363.75 195.62 C 363.29 199.58 362.38 205.71 361.75 208.88 C 361.12 212.04 360.48 212.17 360.00 214.62 C 359.52 217.08 358.71 222.06 358.88 223.62 C 359.04 225.19 356.44 223.94 361.00 224.00 C 365.56 224.06 381.62 224.08 386.25 224.00 C 390.88 223.92 388.17 224.73 388.75 223.50 Z" id="s-3-f-2"/>
<path d="M 401.88 142.75 C 402.04 141.67 401.94 140.77 401.75 139.88 C 401.56 138.98 401.54 138.54 400.75 137.38 C 399.96 136.21 398.60 134.46 397.00 132.88 C 395.40 131.29 394.79 130.35 391.12 127.88 C 387.46 125.40 378.65 120.10 375.00 118.00 C 371.35 115.90 370.52 115.77 369.25 115.25 C 367.98 114.73 368.12 114.92 367.38 114.88 C 366.62 114.83 366.08 114.69 364.75 115.00 C 363.42 115.31 364.00 115.77 359.38 116.75 C 354.75 117.73 362.96 117.75 337.00 120.88 C 311.04 124.00 227.33 133.04 203.62 135.50 C 179.92 137.96 196.88 135.42 194.75 135.62 C 192.62 135.83 197.10 136.06 190.88 136.75 C 184.65 137.44 163.77 139.27 157.38 139.75 C 150.98 140.23 153.88 139.75 152.50 139.62 C 151.12 139.50 150.27 139.04 149.12 139.00 C 147.98 138.96 146.08 139.23 145.62 139.38 C 145.17 139.52 146.21 139.56 146.38 139.88 C 146.54 140.19 145.79 139.75 146.62 141.25 C 147.46 142.75 150.54 147.42 151.38 148.88 C 152.21 150.33 151.29 149.44 151.62 150.00 C 151.96 150.56 152.77 151.23 153.38 152.25 C 153.98 153.27 153.10 155.56 155.25 156.12 C 157.40 156.69 162.58 156.15 166.25 155.62 C 169.92 155.10 171.65 153.79 177.25 153.00 C 182.85 152.21 192.67 151.71 199.88 150.88 C 207.08 150.04 208.92 149.17 220.50 148.00 C 232.08 146.83 260.25 144.56 269.38 143.88 C 278.50 143.19 270.75 144.21 275.25 143.88 C 279.75 143.54 286.27 142.52 296.38 141.88 C 306.48 141.23 327.25 140.31 335.88 140.00 C 344.50 139.69 344.85 139.85 348.12 140.00 C 351.40 140.15 353.77 140.54 355.50 140.88 C 357.23 141.21 357.67 141.56 358.50 142.00 C 359.33 142.44 359.79 142.31 360.50 143.50 C 361.21 144.69 362.21 147.40 362.75 149.12 C 363.29 150.85 363.44 151.54 363.75 153.88 C 364.06 156.21 364.46 159.52 364.62 163.12 C 364.79 166.73 363.33 173.35 364.75 175.50 C 366.17 177.65 368.46 175.96 373.12 176.00 C 377.79 176.04 389.10 178.15 392.75 175.75 C 396.40 173.35 394.29 165.27 395.00 161.62 C 395.71 157.98 396.33 156.02 397.00 153.88 C 397.67 151.73 398.38 150.00 399.00 148.75 C 399.62 147.50 400.27 147.38 400.75 146.38 C 401.23 145.38 401.71 143.83 401.88 142.75 Z" id="s-3-f-3"/>
<path d="M 390.25 127.25 C 387.81 125.54 378.75 120.12 375.25 118.12 C 371.75 116.12 370.75 115.79 369.25 115.25 C 367.75 114.71 367.21 114.88 366.25 114.88 C 365.29 114.88 364.65 114.94 363.50 115.25 C 362.35 115.56 363.79 115.81 359.38 116.75 C 354.96 117.69 362.96 117.75 337.00 120.88 C 311.04 124.00 227.33 133.04 203.62 135.50 C 179.92 137.96 196.88 135.42 194.75 135.62 C 192.62 135.83 197.06 136.06 190.88 136.75 C 184.69 137.44 164.02 139.27 157.62 139.75 C 151.23 140.23 153.92 139.75 152.50 139.62 C 151.08 139.50 150.27 139.04 149.12 139.00 C 147.98 138.96 146.08 139.23 145.62 139.38 C 145.17 139.52 146.21 139.56 146.38 139.88 C 146.54 140.19 145.29 138.90 146.62 141.25 C 147.96 143.60 152.98 151.54 154.38 154.00 C 155.77 156.46 153.02 155.73 155.00 156.00 C 156.98 156.27 162.54 156.12 166.25 155.62 C 169.96 155.12 171.65 153.79 177.25 153.00 C 182.85 152.21 192.65 151.71 199.88 150.88 C 207.10 150.04 204.44 149.50 220.62 148.00 C 236.81 146.50 275.90 143.25 297.00 141.88 C 318.10 140.50 331.77 142.00 347.25 139.75 C 362.73 137.50 382.71 130.46 389.88 128.38 C 397.04 126.29 392.69 128.96 390.25 127.25 Z" id="s-3-f-4"/>
<path d="M 386.00 125.50 C 385.85 124.71 386.92 125.23 385.12 124.00 C 383.33 122.77 377.90 119.58 375.25 118.12 C 372.60 116.67 370.75 115.79 369.25 115.25 C 367.75 114.71 367.21 114.88 366.25 114.88 C 365.29 114.88 364.65 114.94 363.50 115.25 C 362.35 115.56 363.79 115.81 359.38 116.75 C 354.96 117.69 362.96 117.75 337.00 120.88 C 311.04 124.00 227.33 133.04 203.62 135.50 C 179.92 137.96 196.88 135.42 194.75 135.62 C 192.62 135.83 197.06 136.06 190.88 136.75 C 184.69 137.44 164.02 139.27 157.62 139.75 C 151.23 140.23 153.92 139.75 152.50 139.62 C 151.08 139.50 150.27 139.04 149.12 139.00 C 147.98 138.96 146.08 139.23 145.62 139.38 C 145.17 139.52 146.21 139.56 146.38 139.88 C 146.54 140.19 145.29 138.90 146.62 141.25 C 147.96 143.60 152.98 151.54 154.38 154.00 C 155.77 156.46 153.02 155.73 155.00 156.00 C 156.98 156.27 162.54 156.12 166.25 155.62 C 169.96 155.12 171.65 153.79 177.25 153.00 C 182.85 152.21 192.65 151.71 199.88 150.88 C 207.10 150.04 204.44 149.50 220.62 148.00 C 236.81 146.50 275.90 143.25 297.00 141.88 C 318.10 140.50 332.52 141.77 347.25 139.75 C 361.98 137.73 378.92 131.58 385.38 129.75 C 391.83 127.92 385.90 129.46 386.00 128.75 C 386.10 128.04 386.15 126.29 386.00 125.50 Z" id="s-3-f-5"/>
<path d="M 338.00 122.38 C 337.90 120.19 338.06 121.23 337.38 121.00 C 336.69 120.77 356.17 118.58 333.88 121.00 C 311.58 123.42 226.81 133.06 203.62 135.50 C 180.44 137.94 196.88 135.42 194.75 135.62 C 192.62 135.83 197.06 136.06 190.88 136.75 C 184.69 137.44 164.02 139.27 157.62 139.75 C 151.23 140.23 153.92 139.75 152.50 139.62 C 151.08 139.50 150.27 139.04 149.12 139.00 C 147.98 138.96 146.08 139.23 145.62 139.38 C 145.17 139.52 146.21 139.56 146.38 139.88 C 146.54 140.19 145.29 138.90 146.62 141.25 C 147.96 143.60 152.98 151.54 154.38 154.00 C 155.77 156.46 153.02 155.73 155.00 156.00 C 156.98 156.27 162.54 156.12 166.25 155.62 C 169.96 155.12 171.65 153.79 177.25 153.00 C 182.85 152.21 192.65 151.71 199.88 150.88 C 207.10 150.04 204.44 149.50 220.62 148.00 C 236.81 146.50 277.52 143.21 297.00 141.88 C 316.48 140.54 330.67 141.29 337.50 140.00 C 344.33 138.71 337.92 137.06 338.00 134.12 C 338.08 131.19 338.10 124.56 338.00 122.38 Z" id="s-3-f-6"/>
<path d="M 289.88 130.88 C 289.77 128.56 289.56 127.79 289.38 127.00 C 289.19 126.21 303.06 124.71 288.75 126.12 C 274.44 127.54 219.17 133.92 203.50 135.50 C 187.83 137.08 196.83 135.42 194.75 135.62 C 192.67 135.83 197.19 136.06 191.00 136.75 C 184.81 137.44 164.75 139.38 157.62 139.75 C 150.50 140.12 150.25 139.06 148.25 139.00 C 146.25 138.94 145.94 139.23 145.62 139.38 C 145.31 139.52 146.21 139.56 146.38 139.88 C 146.54 140.19 145.29 138.90 146.62 141.25 C 147.96 143.60 152.98 151.54 154.38 154.00 C 155.77 156.46 153.02 155.73 155.00 156.00 C 156.98 156.27 162.54 156.12 166.25 155.62 C 169.96 155.12 171.65 153.79 177.25 153.00 C 182.85 152.21 192.65 151.71 199.88 150.88 C 207.10 150.04 209.04 149.17 220.62 148.00 C 232.21 146.83 260.27 144.56 269.38 143.88 C 278.48 143.19 271.98 144.06 275.25 143.88 C 278.52 143.69 286.58 143.02 289.00 142.75 C 291.42 142.48 289.58 142.56 289.75 142.25 C 289.92 141.94 289.98 142.77 290.00 140.88 C 290.02 138.98 289.98 133.19 289.88 130.88 Z" id="s-3-f-7"/>
<path d="M 241.88 131.62 C 241.67 129.35 247.15 130.48 240.75 131.12 C 234.35 131.77 211.17 134.75 203.50 135.50 C 195.83 136.25 196.83 135.42 194.75 135.62 C 192.67 135.83 197.23 136.06 191.00 136.75 C 184.77 137.44 164.50 139.38 157.38 139.75 C 150.25 140.12 150.23 139.04 148.25 139.00 C 146.27 138.96 145.81 139.35 145.50 139.50 C 145.19 139.65 146.19 139.58 146.38 139.88 C 146.56 140.17 145.29 138.90 146.62 141.25 C 147.96 143.60 152.98 151.54 154.38 154.00 C 155.77 156.46 153.02 155.73 155.00 156.00 C 156.98 156.27 162.38 156.15 166.25 155.62 C 170.12 155.10 172.65 153.67 178.25 152.88 C 183.85 152.08 192.81 151.69 199.88 150.88 C 206.94 150.06 213.75 148.75 220.62 148.00 C 227.50 147.25 237.60 146.71 241.12 146.38 C 244.65 146.04 241.60 146.27 241.75 146.00 C 241.90 145.73 241.98 147.15 242.00 144.75 C 242.02 142.35 242.08 133.90 241.88 131.62 Z" id="s-3-f-8"/>
<path d="M 193.88 150.88 C 194.06 148.56 194.00 140.02 194.00 137.62 C 194.00 135.23 194.02 136.77 193.88 136.50 C 193.73 136.23 193.60 135.96 193.12 136.00 C 192.65 136.04 196.96 136.12 191.00 136.75 C 185.04 137.38 164.50 139.38 157.38 139.75 C 150.25 140.12 150.23 139.06 148.25 139.00 C 146.27 138.94 145.81 139.21 145.50 139.38 C 145.19 139.54 146.19 139.69 146.38 140.00 C 146.56 140.31 145.73 139.67 146.62 141.25 C 147.52 142.83 150.92 148.04 151.75 149.50 C 152.58 150.96 151.35 149.54 151.62 150.00 C 151.90 150.46 152.77 151.23 153.38 152.25 C 153.98 153.27 153.10 155.56 155.25 156.12 C 157.40 156.69 162.58 156.15 166.25 155.62 C 169.92 155.10 172.81 153.69 177.25 153.00 C 181.69 152.31 190.10 151.85 192.88 151.50 C 195.65 151.15 193.69 153.19 193.88 150.88 Z" id="s-3-f-9"/>
</g>
<g id="s-4" clip-path="url(#c-s-4)">
<use href="#s-4-f-0"/>
<path d="M 197.50 150.12 C 197.19 150.33 196.31 149.85 196.88 150.88 C 197.44 151.90 199.88 154.54 200.88 156.25 C 201.88 157.96 201.90 156.44 202.88 161.12 C 203.85 165.81 205.88 178.62 206.75 184.38 C 207.62 190.12 207.60 193.69 208.12 195.62 C 208.65 197.56 206.71 195.96 209.88 196.00 C 213.04 196.04 224.17 196.02 227.12 195.88 C 230.08 195.73 227.67 199.77 227.62 195.12 C 227.58 190.48 227.19 174.85 226.88 168.00 C 226.56 161.15 226.10 156.71 225.75 154.00 C 225.40 151.29 225.48 152.77 224.75 151.75 C 224.02 150.73 223.04 148.56 221.38 147.88 C 219.71 147.19 216.10 147.52 214.75 147.62 C 213.40 147.73 214.58 148.33 213.25 148.50 C 211.92 148.67 208.06 148.48 206.75 148.62 C 205.44 148.77 206.71 149.21 205.38 149.38 C 204.04 149.54 200.06 149.50 198.75 149.62 C 197.44 149.75 197.81 149.92 197.50 150.12 Z" id="s-4-f-1"/>
</g>
<g id="s-5" clip-path="url(#c-s-5)">
<use href="#s-5-f-0"/>
<path d="M 295.88 141.62 C 293.81 141.15 288.52 141.48 286.38 141.62 C 284.23 141.77 285.27 142.31 283.00 142.50 C 280.73 142.69 274.75 142.50 272.75 142.75 C 270.75 143.00 271.15 143.38 271.00 144.00 C 270.85 144.62 271.58 145.17 271.88 146.50 C 272.17 147.83 272.60 147.83 272.75 152.00 C 272.90 156.17 272.92 163.40 272.75 171.50 C 272.58 179.60 272.38 190.52 271.75 200.62 C 271.12 210.73 269.44 226.02 269.00 232.12 C 268.56 238.23 268.92 236.27 269.12 237.25 C 269.33 238.23 267.60 237.90 270.25 238.00 C 272.90 238.10 282.42 238.00 285.00 237.88 C 287.58 237.75 285.48 237.77 285.75 237.25 C 286.02 236.73 285.79 239.12 286.62 234.75 C 287.46 230.38 289.17 222.73 290.75 211.00 C 292.33 199.27 294.60 174.75 296.12 164.38 C 297.65 154.00 299.27 151.75 299.88 148.75 C 300.48 145.75 299.94 147.08 299.75 146.38 C 299.56 145.67 299.40 145.29 298.75 144.50 C 298.10 143.71 297.94 142.10 295.88 141.62 Z" id="s-5-f-1"/>
<path d="M 297.38 141.38 C 295.67 141.40 288.77 141.44 286.38 141.62 C 283.98 141.81 285.29 142.31 283.00 142.50 C 280.71 142.69 274.60 142.54 272.62 142.75 C 270.65 142.96 271.40 143.40 271.12 143.75 C 270.85 144.10 270.88 144.42 271.00 144.88 C 271.12 145.33 271.58 145.31 271.88 146.50 C 272.17 147.69 272.67 144.79 272.75 152.00 C 272.83 159.21 269.25 183.42 272.38 189.75 C 275.50 196.08 288.02 190.08 291.50 190.00 C 294.98 189.92 292.50 193.35 293.25 189.25 C 294.00 185.15 294.90 172.12 296.00 165.38 C 297.10 158.62 299.29 152.00 299.88 148.75 C 300.46 145.50 300.04 146.94 299.50 145.88 C 298.96 144.81 297.10 143.10 296.62 142.38 C 296.15 141.65 296.50 141.67 296.62 141.50 C 296.75 141.33 299.08 141.35 297.38 141.38 Z" id="s-5-f-2"/>
</g>
<g id="s-6" clip-path="url(#c-s-6)">
<use href="#s-6-f-0"/>
<path d="M 379.88 292.88 C 379.77 288.40 380.19 292.44 379.38 292.12 C 378.56 291.81 377.19 291.17 375.00 291.00 C 372.81 290.83 375.31 290.17 366.25 291.12 C 357.19 292.08 339.04 294.98 320.62 296.75 C 302.21 298.52 270.58 300.71 255.75 301.75 C 240.92 302.79 243.54 302.10 231.62 303.00 C 219.71 303.90 195.88 306.00 184.25 307.12 C 172.62 308.25 168.25 309.12 161.88 309.75 C 155.50 310.38 156.60 310.48 146.00 310.88 C 135.40 311.27 106.94 311.60 98.25 312.12 C 89.56 312.65 94.92 313.31 93.88 314.00 C 92.83 314.69 92.33 315.52 92.00 316.25 C 91.67 316.98 91.71 317.69 91.88 318.38 C 92.04 319.06 92.27 319.60 93.00 320.38 C 93.73 321.15 93.94 321.62 96.25 323.00 C 98.56 324.38 103.27 327.02 106.88 328.62 C 110.48 330.23 114.48 331.60 117.88 332.62 C 121.27 333.65 124.21 334.42 127.25 334.75 C 130.29 335.08 129.94 335.42 136.12 334.62 C 142.31 333.83 155.60 331.27 164.38 330.00 C 173.15 328.73 182.60 327.69 188.75 327.00 C 194.90 326.31 195.44 326.23 201.25 325.88 C 207.06 325.52 215.77 325.54 223.62 324.88 C 231.48 324.21 233.90 322.69 248.38 321.88 C 262.85 321.06 294.48 320.31 310.50 320.00 C 326.52 319.69 333.04 319.77 344.50 320.00 C 355.96 320.23 373.35 321.23 379.25 321.38 C 385.15 321.52 379.75 321.27 379.88 320.88 C 380.00 320.48 380.00 323.67 380.00 319.00 C 380.00 314.33 379.98 297.35 379.88 292.88 Z" id="s-6-f-1"/>
<path d="M 332.00 297.50 C 332.00 293.73 335.40 295.71 331.62 295.75 C 327.85 295.79 316.90 297.19 309.38 297.75 C 301.85 298.31 295.44 298.46 286.50 299.12 C 277.56 299.79 264.90 301.10 255.75 301.75 C 246.60 302.40 249.60 301.50 231.62 303.00 C 213.65 304.50 169.96 309.25 147.88 310.75 C 125.79 312.25 107.83 311.62 99.12 312.00 C 90.42 312.38 96.62 312.56 95.62 313.00 C 94.62 313.44 93.71 314.15 93.12 314.62 C 92.54 315.10 92.33 315.25 92.12 315.88 C 91.92 316.50 91.73 317.62 91.88 318.38 C 92.02 319.12 92.27 319.60 93.00 320.38 C 93.73 321.15 93.94 321.62 96.25 323.00 C 98.56 324.38 103.27 327.02 106.88 328.62 C 110.48 330.23 114.48 331.60 117.88 332.62 C 121.27 333.65 124.21 334.42 127.25 334.75 C 130.29 335.08 129.94 335.42 136.12 334.62 C 142.31 333.83 155.60 331.27 164.38 330.00 C 173.15 328.73 182.60 327.69 188.75 327.00 C 194.90 326.31 195.44 326.23 201.25 325.88 C 207.06 325.52 215.77 325.54 223.62 324.88 C 231.48 324.21 230.52 322.73 248.38 321.88 C 266.23 321.02 316.88 320.33 330.75 319.75 C 344.62 319.17 331.42 322.08 331.62 318.38 C 331.83 314.67 332.00 301.27 332.00 297.50 Z" id="s-6-f-2"/>
<path d="M 283.88 300.00 C 283.62 296.75 287.19 299.21 282.50 299.50 C 277.81 299.79 264.23 301.17 255.75 301.75 C 247.27 302.33 243.54 302.10 231.62 303.00 C 219.71 303.90 195.88 306.00 184.25 307.12 C 172.62 308.25 168.25 309.12 161.88 309.75 C 155.50 310.38 156.46 310.50 146.00 310.88 C 135.54 311.25 107.52 311.65 99.12 312.00 C 90.73 312.35 96.62 312.56 95.62 313.00 C 94.62 313.44 93.71 314.15 93.12 314.62 C 92.54 315.10 92.33 315.25 92.12 315.88 C 91.92 316.50 91.73 317.62 91.88 318.38 C 92.02 319.12 92.27 319.60 93.00 320.38 C 93.73 321.15 93.94 321.62 96.25 323.00 C 98.56 324.38 103.27 327.02 106.88 328.62 C 110.48 330.23 114.48 331.60 117.88 332.62 C 121.27 333.65 124.25 334.42 127.25 334.75 C 130.25 335.08 128.48 335.58 135.88 334.62 C 143.27 333.67 161.00 330.44 171.62 329.00 C 182.25 327.56 190.96 326.69 199.62 326.00 C 208.29 325.31 215.50 325.56 223.62 324.88 C 231.75 324.19 238.33 322.60 248.38 321.88 C 258.42 321.15 277.94 320.98 283.88 320.50 C 289.81 320.02 284.00 322.42 284.00 319.00 C 284.00 315.58 284.12 303.25 283.88 300.00 Z" id="s-6-f-3"/>
<path d="M 236.00 304.50 C 235.98 301.21 236.23 303.52 235.75 303.25 C 235.27 302.98 247.77 301.62 233.12 302.88 C 218.48 304.12 170.35 309.21 147.88 310.75 C 125.40 312.29 107.25 311.58 98.25 312.12 C 89.25 312.67 94.90 313.38 93.88 314.00 C 92.85 314.62 92.46 315.15 92.12 315.88 C 91.79 316.60 91.65 317.54 91.88 318.38 C 92.10 319.21 92.58 319.98 93.50 320.88 C 94.42 321.77 94.69 322.27 97.38 323.75 C 100.06 325.23 106.15 328.25 109.62 329.75 C 113.10 331.25 115.54 331.94 118.25 332.75 C 120.96 333.56 123.17 334.29 125.88 334.62 C 128.58 334.96 125.54 335.85 134.50 334.75 C 143.46 333.65 168.48 329.48 179.62 328.00 C 190.77 326.52 194.04 326.40 201.38 325.88 C 208.71 325.35 217.98 325.27 223.62 324.88 C 229.27 324.48 233.21 323.81 235.25 323.50 C 237.29 323.19 235.75 326.17 235.88 323.00 C 236.00 319.83 236.02 307.79 236.00 304.50 Z" id="s-6-f-4"/>
<path d="M 188.00 308.50 C 187.96 305.44 188.15 307.38 187.75 307.12 C 187.35 306.88 189.94 306.56 185.62 307.00 C 181.31 307.44 168.48 309.10 161.88 309.75 C 155.27 310.40 156.27 310.52 146.00 310.88 C 135.73 311.23 108.40 311.60 100.25 311.88 C 92.10 312.15 98.19 312.15 97.12 312.50 C 96.06 312.85 94.71 313.44 93.88 314.00 C 93.04 314.56 92.46 315.15 92.12 315.88 C 91.79 316.60 91.69 317.58 91.88 318.38 C 92.06 319.17 92.33 319.73 93.25 320.62 C 94.17 321.52 95.77 322.73 97.38 323.75 C 98.98 324.77 100.40 325.58 102.88 326.75 C 105.35 327.92 109.19 329.60 112.25 330.75 C 115.31 331.90 118.94 332.98 121.25 333.62 C 123.56 334.27 123.73 334.44 126.12 334.62 C 128.52 334.81 129.25 335.52 135.62 334.75 C 142.00 333.98 155.73 331.27 164.38 330.00 C 173.02 328.73 183.56 327.88 187.50 327.12 C 191.44 326.38 187.92 328.60 188.00 325.50 C 188.08 322.40 188.04 311.56 188.00 308.50 Z" id="s-6-f-5"/>
<path d="M 139.75 333.62 C 140.48 329.98 140.04 316.65 140.00 312.88 C 139.96 309.10 146.31 311.15 139.50 311.00 C 132.69 310.85 106.60 311.58 99.12 312.00 C 91.65 312.42 95.79 312.85 94.62 313.50 C 93.46 314.15 92.56 314.96 92.12 315.88 C 91.69 316.79 91.77 318.17 92.00 319.00 C 92.23 319.83 92.79 320.21 93.50 320.88 C 94.21 321.54 94.69 322.02 96.25 323.00 C 97.81 323.98 100.21 325.46 102.88 326.75 C 105.54 328.04 109.19 329.60 112.25 330.75 C 115.31 331.90 118.94 332.98 121.25 333.62 C 123.56 334.27 123.73 334.44 126.12 334.62 C 128.52 334.81 133.35 334.92 135.62 334.75 C 137.90 334.58 139.02 337.27 139.75 333.62 Z" id="s-6-f-6"/>
</g>
<g id="s-7" clip-path="url(#c-s-7)">
<use href="#s-7-f-0"/>
<path d="M 255.88 248.50 C 253.88 247.10 251.56 245.38 248.62 244.12 C 245.69 242.88 240.81 241.69 238.25 241.00 C 235.69 240.31 234.90 240.17 233.25 240.00 C 231.60 239.83 229.58 239.77 228.38 240.00 C 227.17 240.23 226.56 240.81 226.00 241.38 C 225.44 241.94 225.19 242.48 225.00 243.38 C 224.81 244.27 224.83 245.62 224.88 246.75 C 224.92 247.88 224.92 248.56 225.25 250.12 C 225.58 251.69 226.46 253.23 226.88 256.12 C 227.29 259.02 227.60 263.85 227.75 267.50 C 227.90 271.15 227.90 274.15 227.75 278.00 C 227.60 281.85 227.21 287.12 226.88 290.62 C 226.54 294.12 226.17 296.71 225.75 299.00 C 225.33 301.29 224.56 303.42 224.38 304.38 C 224.19 305.33 224.75 304.56 224.62 304.75 C 224.50 304.94 224.00 304.04 223.62 305.50 C 223.25 306.96 222.71 312.10 222.38 313.50 C 222.04 314.90 221.96 312.60 221.62 313.88 C 221.29 315.15 220.71 319.73 220.38 321.12 C 220.04 322.52 219.75 321.50 219.62 322.25 C 219.50 323.00 220.46 322.81 219.62 325.62 C 218.79 328.44 216.29 335.02 214.62 339.12 C 212.96 343.23 211.15 347.08 209.62 350.25 C 208.10 353.42 207.67 354.50 205.50 358.12 C 203.33 361.75 199.71 367.65 196.62 372.00 C 193.54 376.35 190.40 380.29 187.00 384.25 C 183.60 388.21 179.75 392.25 176.25 395.75 C 172.75 399.25 169.69 402.08 166.00 405.25 C 162.31 408.42 158.77 411.38 154.12 414.75 C 149.48 418.12 142.48 422.79 138.12 425.50 C 133.77 428.21 129.71 429.96 128.00 431.00 C 126.29 432.04 120.42 431.62 127.88 431.75 C 135.33 431.88 163.35 433.10 172.75 431.75 C 182.15 430.40 180.67 426.40 184.25 423.62 C 187.83 420.85 191.10 418.02 194.25 415.12 C 197.40 412.23 200.40 409.19 203.12 406.25 C 205.85 403.31 208.33 400.33 210.62 397.50 C 212.92 394.67 214.02 393.48 216.88 389.25 C 219.73 385.02 224.60 377.77 227.75 372.12 C 230.90 366.48 233.08 361.60 235.75 355.38 C 238.42 349.15 241.88 339.92 243.75 334.75 C 245.62 329.58 246.21 326.62 247.00 324.38 C 247.79 322.12 248.29 321.83 248.50 321.25 C 248.71 320.67 248.17 321.06 248.25 320.88 C 248.33 320.69 248.69 320.73 249.00 320.12 C 249.31 319.52 249.90 318.17 250.12 317.25 C 250.35 316.33 250.21 315.21 250.38 314.62 C 250.54 314.04 250.79 314.81 251.12 313.75 C 251.46 312.69 252.04 309.33 252.38 308.25 C 252.71 307.17 252.96 307.81 253.12 307.25 C 253.29 306.69 253.21 305.42 253.38 304.88 C 253.54 304.33 254.00 304.65 254.12 304.00 C 254.25 303.35 253.85 302.31 254.12 301.00 C 254.40 299.69 254.77 300.10 255.75 296.12 C 256.73 292.15 258.50 282.48 260.00 277.12 C 261.50 271.77 263.96 267.02 264.75 264.00 C 265.54 260.98 264.92 260.27 264.75 259.00 C 264.58 257.73 264.44 257.46 263.75 256.38 C 263.06 255.29 261.94 253.81 260.62 252.50 C 259.31 251.19 257.88 249.90 255.88 248.50 Z" id="s-7-f-1"/>
<path d="M 248.62 244.12 C 245.69 242.88 240.81 241.69 238.25 241.00 C 235.69 240.31 235.00 240.15 233.25 240.00 C 231.50 239.85 228.96 239.90 227.75 240.12 C 226.54 240.35 226.42 240.94 226.00 241.38 C 225.58 241.81 225.42 241.56 225.25 242.75 C 225.08 243.94 224.75 246.42 225.00 248.50 C 225.25 250.58 226.31 252.52 226.75 255.25 C 227.19 257.98 227.50 260.25 227.62 264.88 C 227.75 269.50 227.81 277.31 227.50 283.00 C 227.19 288.69 226.27 295.44 225.75 299.00 C 225.23 302.56 224.56 303.42 224.38 304.38 C 224.19 305.33 224.75 304.56 224.62 304.75 C 224.50 304.94 224.00 304.04 223.62 305.50 C 223.25 306.96 222.71 312.10 222.38 313.50 C 222.04 314.90 221.96 312.60 221.62 313.88 C 221.29 315.15 220.71 319.73 220.38 321.12 C 220.04 322.52 219.75 321.50 219.62 322.25 C 219.50 323.00 220.62 322.42 219.62 325.62 C 218.62 328.83 215.79 336.44 213.62 341.50 C 211.46 346.56 209.46 350.92 206.62 356.00 C 203.79 361.08 199.73 367.50 196.62 372.00 C 193.52 376.50 189.44 381.06 188.00 383.00 C 186.56 384.94 186.44 383.46 188.00 383.62 C 189.56 383.79 191.98 383.98 197.38 384.00 C 202.77 384.02 215.98 384.58 220.38 383.75 C 224.77 382.92 222.19 381.54 223.75 379.00 C 225.31 376.46 227.75 372.44 229.75 368.50 C 231.75 364.56 233.42 361.00 235.75 355.38 C 238.08 349.75 241.88 339.92 243.75 334.75 C 245.62 329.58 246.21 326.62 247.00 324.38 C 247.79 322.12 248.29 321.83 248.50 321.25 C 248.71 320.67 248.17 321.06 248.25 320.88 C 248.33 320.69 248.69 320.73 249.00 320.12 C 249.31 319.52 249.90 318.17 250.12 317.25 C 250.35 316.33 250.21 315.21 250.38 314.62 C 250.54 314.04 250.79 314.81 251.12 313.75 C 251.46 312.69 252.04 309.33 252.38 308.25 C 252.71 307.17 252.96 307.81 253.12 307.25 C 253.29 306.69 253.21 305.42 253.38 304.88 C 253.54 304.33 254.00 304.65 254.12 304.00 C 254.25 303.35 253.85 302.31 254.12 301.00 C 254.40 299.69 254.77 300.10 255.75 296.12 C 256.73 292.15 258.50 282.48 260.00 277.12 C 261.50 271.77 263.98 267.12 264.75 264.00 C 265.52 260.88 264.79 259.65 264.62 258.38 C 264.46 257.10 264.23 257.15 263.75 256.38 C 263.27 255.60 263.06 255.06 261.75 253.75 C 260.44 252.44 258.06 250.10 255.88 248.50 C 253.69 246.90 251.56 245.38 248.62 244.12 Z" id="s-7-f-2"/>
<path d="M 234.12 240.12 C 230.58 239.48 228.73 240.04 227.38 240.25 C 226.02 240.46 226.40 240.85 226.00 241.38 C 225.60 241.90 225.17 242.19 225.00 243.38 C 224.83 244.56 224.71 246.52 225.00 248.50 C 225.29 250.48 226.29 252.08 226.75 255.25 C 227.21 258.42 227.58 263.71 227.75 267.50 C 227.92 271.29 227.90 274.15 227.75 278.00 C 227.60 281.85 227.40 286.17 226.88 290.62 C 226.35 295.08 225.17 302.27 224.62 304.75 C 224.08 307.23 224.00 304.04 223.62 305.50 C 223.25 306.96 222.71 312.10 222.38 313.50 C 222.04 314.90 221.96 312.60 221.62 313.88 C 221.29 315.15 220.71 319.73 220.38 321.12 C 220.04 322.52 219.75 321.50 219.62 322.25 C 219.50 323.00 220.23 323.50 219.62 325.62 C 219.02 327.75 216.54 333.27 216.00 335.00 C 215.46 336.73 211.94 335.83 216.38 336.00 C 220.81 336.17 238.12 336.08 242.62 336.00 C 247.12 335.92 242.65 337.44 243.38 335.50 C 244.10 333.56 246.15 326.75 247.00 324.38 C 247.85 322.00 248.29 321.83 248.50 321.25 C 248.71 320.67 248.17 321.06 248.25 320.88 C 248.33 320.69 248.69 320.73 249.00 320.12 C 249.31 319.52 249.90 318.17 250.12 317.25 C 250.35 316.33 250.21 315.21 250.38 314.62 C 250.54 314.04 250.79 314.81 251.12 313.75 C 251.46 312.69 252.04 309.33 252.38 308.25 C 252.71 307.17 252.96 307.81 253.12 307.25 C 253.29 306.69 253.21 305.42 253.38 304.88 C 253.54 304.33 254.00 304.65 254.12 304.00 C 254.25 303.35 253.85 302.29 254.12 301.00 C 254.40 299.71 254.77 300.23 255.75 296.25 C 256.73 292.27 258.50 282.50 260.00 277.12 C 261.50 271.75 263.96 267.02 264.75 264.00 C 265.54 260.98 264.90 260.23 264.75 259.00 C 264.60 257.77 264.46 257.60 263.88 256.62 C 263.29 255.65 262.23 254.21 261.25 253.12 C 260.27 252.04 260.10 251.62 258.00 250.12 C 255.90 248.62 252.60 245.79 248.62 244.12 C 244.65 242.46 237.67 240.77 234.12 240.12 Z" id="s-7-f-3"/>
<path d="M 227.38 240.25 C 226.12 240.48 226.40 240.81 226.00 241.38 C 225.60 241.94 225.17 242.46 225.00 243.62 C 224.83 244.79 224.71 246.44 225.00 248.38 C 225.29 250.31 226.29 252.06 226.75 255.25 C 227.21 258.44 227.58 263.62 227.75 267.50 C 227.92 271.38 227.88 275.17 227.75 278.50 C 227.62 281.83 226.73 285.92 227.00 287.50 C 227.27 289.08 224.35 287.94 229.38 288.00 C 234.40 288.06 252.40 288.00 257.12 287.88 C 261.85 287.75 257.27 289.04 257.75 287.25 C 258.23 285.46 258.83 280.94 260.00 277.12 C 261.17 273.31 263.96 267.44 264.75 264.38 C 265.54 261.31 264.92 260.08 264.75 258.75 C 264.58 257.42 264.44 257.42 263.75 256.38 C 263.06 255.33 261.60 253.56 260.62 252.50 C 259.65 251.44 259.88 251.40 257.88 250.00 C 255.88 248.60 252.69 245.79 248.62 244.12 C 244.56 242.46 237.04 240.65 233.50 240.00 C 229.96 239.35 228.62 240.02 227.38 240.25 Z" id="s-7-f-4"/>
</g>
<g id="s-8" clip-path="url(#c-s-8)">
<use href="#s-8-f-0"/>
<path d="M 265.00 349.75 C 264.81 350.48 264.73 352.08 265.12 353.25 C 265.52 354.42 261.33 351.75 267.38 356.75 C 273.42 361.75 290.88 374.90 301.38 383.25 C 311.88 391.60 322.54 400.38 330.38 406.88 C 338.21 413.38 341.15 415.75 348.38 422.25 C 355.60 428.75 367.56 440.29 373.75 445.88 C 379.94 451.46 382.69 453.77 385.50 455.75 C 388.31 457.73 388.67 457.42 390.62 457.75 C 392.58 458.08 395.67 457.92 397.25 457.75 C 398.83 457.58 399.19 457.23 400.12 456.75 C 401.06 456.27 401.92 455.77 402.88 454.88 C 403.83 453.98 405.06 452.60 405.88 451.38 C 406.69 450.15 407.25 448.90 407.75 447.50 C 408.25 446.10 408.71 446.60 408.88 443.00 C 409.04 439.40 409.27 429.48 408.75 425.88 C 408.23 422.27 406.96 422.85 405.75 421.38 C 404.54 419.90 404.08 419.25 401.50 417.00 C 398.92 414.75 394.83 411.21 390.25 407.88 C 385.67 404.54 378.12 399.65 374.00 397.00 C 369.88 394.35 374.60 396.48 365.50 392.00 C 356.40 387.52 334.02 376.96 319.38 370.12 C 304.73 363.29 285.94 354.52 277.62 351.00 C 269.31 347.48 271.40 349.35 269.50 349.00 C 267.60 348.65 267.00 348.75 266.25 348.88 C 265.50 349.00 265.19 349.02 265.00 349.75 Z" id="s-8-f-1"/>
<path d="M 265.00 349.75 C 264.81 350.48 264.92 352.31 265.12 353.25 C 265.33 354.19 265.71 354.65 266.25 355.38 C 266.79 356.10 261.69 352.31 268.38 357.62 C 275.06 362.94 296.04 379.04 306.38 387.25 C 316.71 395.46 321.46 399.29 330.38 406.88 C 339.29 414.46 354.81 428.40 359.88 432.75 C 364.94 437.10 360.58 440.10 360.75 433.00 C 360.92 425.90 360.96 397.38 360.88 390.12 C 360.79 382.88 374.12 396.02 360.25 389.50 C 346.38 382.98 292.75 357.75 277.62 351.00 C 262.50 344.25 271.40 349.35 269.50 349.00 C 267.60 348.65 267.00 348.75 266.25 348.88 C 265.50 349.00 265.19 349.02 265.00 349.75 Z" id="s-8-f-2"/>
<path d="M 265.00 349.75 C 264.77 350.42 264.83 351.98 265.00 352.88 C 265.17 353.77 265.60 354.48 266.00 355.12 C 266.40 355.77 261.48 352.06 267.38 356.75 C 273.27 361.44 293.92 377.33 301.38 383.25 C 308.83 389.17 310.23 390.77 312.12 392.25 C 314.02 393.73 312.60 395.94 312.75 392.12 C 312.90 388.31 313.04 373.54 313.00 369.38 C 312.96 365.21 318.40 370.19 312.50 367.12 C 306.60 364.06 284.79 354.02 277.62 351.00 C 270.46 347.98 271.38 349.35 269.50 349.00 C 267.62 348.65 267.12 348.75 266.38 348.88 C 265.62 349.00 265.23 349.08 265.00 349.75 Z" id="s-8-f-3"/>
</g>
</svg>