<?xml version="1.0" encoding="UTF-8"?>
<svg xmlns="http://www.w3.org/2000/svg" viewBox="0 0 500 500">
<defs>
<path d="M 112.62 61.38 C 112.08 61.77 112.10 61.77 111.88 62.38 C 111.65 62.98 111.29 63.83 111.25 65.00 C 111.21 66.17 111.10 67.92 111.62 69.38 C 112.15 70.83 112.81 71.98 114.38 73.75 C 115.94 75.52 116.73 76.44 121.00 80.00 C 125.27 83.56 133.56 89.85 140.00 95.12 C 146.44 100.40 155.17 108.21 159.62 111.62 C 164.08 115.04 164.60 114.77 166.75 115.62 C 168.90 116.48 171.19 116.56 172.50 116.75 C 173.81 116.94 173.83 116.90 174.62 116.75 C 175.42 116.60 176.38 116.44 177.25 115.88 C 178.12 115.31 179.10 114.35 179.88 113.38 C 180.65 112.40 181.42 111.15 181.88 110.00 C 182.33 108.85 182.52 107.96 182.62 106.50 C 182.73 105.04 182.65 102.88 182.50 101.25 C 182.35 99.62 182.38 99.21 181.75 96.75 C 181.12 94.29 179.58 88.85 178.75 86.50 C 177.92 84.15 177.73 83.98 176.75 82.62 C 175.77 81.27 174.33 79.67 172.88 78.38 C 171.42 77.08 170.04 76.10 168.00 74.88 C 165.96 73.65 164.69 72.62 160.62 71.00 C 156.56 69.38 150.25 66.96 143.62 65.12 C 137.00 63.29 125.62 60.85 120.88 60.00 C 116.12 59.15 116.50 59.77 115.12 60.00 C 113.75 60.23 113.17 60.98 112.62 61.38 Z" id="s-0-f-0"/>
<clipPath id="c-s-0"><use href="#s-0-f-0"/></clipPath>
<path d="M 65.00 166.62 C 64.67 167.42 64.60 168.52 64.75 170.00 C 64.90 171.48 65.25 173.83 65.88 175.50 C 66.50 177.17 64.65 175.88 68.50 180.00 C 72.35 184.12 84.50 195.94 89.00 200.25 C 93.50 204.56 92.96 203.83 95.50 205.88 C 98.04 207.92 101.40 210.54 104.25 212.50 C 107.10 214.46 110.08 216.25 112.62 217.62 C 115.17 219.00 118.04 220.23 119.50 220.75 C 120.96 221.27 120.29 220.96 121.38 220.75 C 122.46 220.54 124.79 219.98 126.00 219.50 C 127.21 219.02 127.62 218.71 128.62 217.88 C 129.62 217.04 131.17 215.77 132.00 214.50 C 132.83 213.23 133.33 212.44 133.62 210.25 C 133.92 208.06 134.08 203.98 133.75 201.38 C 133.42 198.77 132.52 196.56 131.62 194.62 C 130.73 192.69 129.94 191.60 128.38 189.75 C 126.81 187.90 123.81 184.96 122.25 183.50 C 120.69 182.04 120.85 182.23 119.00 181.00 C 117.15 179.77 113.98 177.62 111.12 176.12 C 108.27 174.62 104.75 173.19 101.88 172.00 C 99.00 170.81 97.58 170.17 93.88 169.00 C 90.17 167.83 83.67 165.73 79.62 165.00 C 75.58 164.27 71.77 164.58 69.62 164.62 C 67.48 164.67 67.52 164.92 66.75 165.25 C 65.98 165.58 65.33 165.83 65.00 166.62 Z" id="s-1-f-0"/>
<clipPath id="c-s-1"><use href="#s-1-f-0"/></clipPath>
<path d="M 156.12 252.00 C 155.77 251.92 155.25 251.96 154.75 252.12 C 154.25 252.29 153.98 252.35 153.12 253.00 C 152.27 253.65 151.60 253.62 149.62 256.00 C 147.65 258.38 145.85 260.46 141.25 267.25 C 136.65 274.04 130.75 282.75 122.00 296.75 C 113.25 310.75 95.06 341.21 88.75 351.25 C 82.44 361.29 86.04 354.96 84.12 357.00 C 82.21 359.04 79.73 361.42 77.25 363.50 C 74.77 365.58 70.96 367.96 69.25 369.50 C 67.54 371.04 67.42 371.31 67.00 372.75 C 66.58 374.19 66.58 376.12 66.75 378.12 C 66.92 380.12 66.96 381.04 68.00 384.75 C 69.04 388.46 71.50 396.29 73.00 400.38 C 74.50 404.46 75.81 406.90 77.00 409.25 C 78.19 411.60 78.90 412.73 80.12 414.50 C 81.35 416.27 82.96 418.35 84.38 419.88 C 85.79 421.40 86.90 422.35 88.62 423.62 C 90.35 424.90 93.23 426.77 94.75 427.50 C 96.27 428.23 96.67 427.98 97.75 428.00 C 98.83 428.02 100.44 427.90 101.25 427.62 C 102.06 427.35 102.23 426.90 102.62 426.38 C 103.02 425.85 103.29 425.58 103.62 424.50 C 103.96 423.42 104.40 421.73 104.62 419.88 C 104.85 418.02 104.62 415.94 105.00 413.38 C 105.38 410.81 105.04 411.02 106.88 404.50 C 108.71 397.98 111.67 387.46 116.00 374.25 C 120.33 361.04 127.40 340.75 132.88 325.25 C 138.35 309.75 144.90 291.94 148.88 281.25 C 152.85 270.56 155.27 265.52 156.75 261.12 C 158.23 256.73 157.73 256.29 157.75 254.88 C 157.77 253.46 157.15 253.10 156.88 252.62 C 156.60 252.15 156.48 252.08 156.12 252.00 Z" id="s-2-f-0"/>
<clipPath id="c-s-2"><use href="#s-2-f-0"/></clipPath>
<path d="M 377.88 92.62 C 377.79 91.67 377.81 91.29 377.00 90.25 C 376.19 89.21 374.10 87.29 373.00 86.38 C 371.90 85.46 372.02 85.48 370.38 84.75 C 368.73 84.02 365.46 82.75 363.12 82.00 C 360.79 81.25 358.62 80.58 356.38 80.25 C 354.12 79.92 352.12 79.88 349.62 80.00 C 347.12 80.12 345.71 80.15 341.38 81.00 C 337.04 81.85 331.35 82.88 323.62 85.12 C 315.90 87.38 301.27 92.56 295.00 94.50 C 288.73 96.44 292.96 95.23 286.00 96.75 C 279.04 98.27 262.50 101.90 253.25 103.62 C 244.00 105.35 235.21 106.06 230.50 107.12 C 225.79 108.19 226.08 109.25 225.00 110.00 C 223.92 110.75 224.17 111.04 224.00 111.62 C 223.83 112.21 223.50 112.56 224.00 113.50 C 224.50 114.44 225.90 116.21 227.00 117.25 C 228.10 118.29 228.96 118.83 230.62 119.75 C 232.29 120.67 234.48 121.77 237.00 122.75 C 239.52 123.73 242.67 124.94 245.75 125.62 C 248.83 126.31 252.50 126.69 255.50 126.88 C 258.50 127.06 259.94 127.12 263.75 126.75 C 267.56 126.38 274.38 125.42 278.38 124.62 C 282.38 123.83 276.35 124.65 287.75 122.00 C 299.15 119.35 333.83 111.79 346.75 108.75 C 359.67 105.71 361.19 104.94 365.25 103.75 C 369.31 102.56 369.50 102.35 371.12 101.62 C 372.75 100.90 373.94 100.31 375.00 99.38 C 376.06 98.44 377.02 97.12 377.50 96.00 C 377.98 94.88 377.96 93.58 377.88 92.62 Z" id="s-3-f-0"/>
<clipPath id="c-s-3"><use href="#s-3-f-0"/></clipPath>
<path d="M 452.12 187.62 C 452.08 186.50 452.06 185.42 451.38 184.12 C 450.69 182.83 449.90 181.56 448.00 179.88 C 446.10 178.19 442.46 175.62 440.00 174.00 C 437.54 172.38 435.73 171.44 433.25 170.12 C 430.77 168.81 428.17 167.29 425.12 166.12 C 422.08 164.96 417.96 163.77 415.00 163.12 C 412.04 162.48 410.29 162.25 407.38 162.25 C 404.46 162.25 406.06 161.38 397.50 163.12 C 388.94 164.88 373.02 169.12 356.00 172.75 C 338.98 176.38 311.50 181.73 295.38 184.88 C 279.25 188.02 280.23 187.92 259.25 191.62 C 238.27 195.33 184.98 204.23 169.50 207.12 C 154.02 210.02 166.98 208.54 166.38 209.00 C 165.77 209.46 165.96 209.33 165.88 209.88 C 165.79 210.42 165.69 211.46 165.88 212.25 C 166.06 213.04 166.38 213.75 167.00 214.62 C 167.62 215.50 167.88 216.15 169.62 217.50 C 171.38 218.85 175.46 221.52 177.50 222.75 C 179.54 223.98 180.17 224.21 181.88 224.88 C 183.58 225.54 185.29 226.27 187.75 226.75 C 190.21 227.23 193.96 227.75 196.62 227.75 C 199.29 227.75 199.40 227.88 203.75 226.75 C 208.10 225.62 217.50 222.46 222.75 221.00 C 228.00 219.54 227.10 219.69 235.25 218.00 C 243.40 216.31 264.06 212.54 271.62 210.88 C 279.19 209.21 274.50 209.33 280.62 208.00 C 286.75 206.67 301.29 204.04 308.38 202.88 C 315.46 201.71 314.98 201.83 323.12 201.00 C 331.27 200.17 344.06 198.71 357.25 197.88 C 370.44 197.04 388.17 196.38 402.25 196.00 C 416.33 195.62 434.33 195.83 441.75 195.62 C 449.17 195.42 445.56 195.08 446.75 194.75 C 447.94 194.42 448.06 194.27 448.88 193.62 C 449.69 192.98 451.08 191.88 451.62 190.88 C 452.17 189.88 452.17 188.75 452.12 187.62 Z" id="s-4-f-0"/>
<clipPath id="c-s-4"><use href="#s-4-f-0"/></clipPath>
<path d="M 250.50 204.75 C 248.88 205.02 248.52 205.54 247.75 206.12 C 246.98 206.71 246.25 207.67 245.88 208.25 C 245.50 208.83 245.56 208.60 245.50 209.62 C 245.44 210.65 245.40 213.48 245.50 214.38 C 245.60 215.27 246.08 214.83 246.12 215.00 C 246.17 215.17 245.31 214.75 245.75 215.38 C 246.19 216.00 248.08 217.85 248.75 218.75 C 249.42 219.65 249.40 219.46 249.75 220.75 C 250.10 222.04 250.73 224.35 250.88 226.50 C 251.02 228.65 250.85 231.44 250.62 233.62 C 250.40 235.81 249.96 237.83 249.50 239.62 C 249.04 241.42 249.21 241.25 247.88 244.38 C 246.54 247.50 243.52 254.40 241.50 258.38 C 239.48 262.35 238.08 264.77 235.75 268.25 C 233.42 271.73 230.62 275.52 227.50 279.25 C 224.38 282.98 219.25 287.67 217.00 290.62 C 214.75 293.58 214.50 295.02 214.00 297.00 C 213.50 298.98 213.67 300.69 214.00 302.50 C 214.33 304.31 215.12 306.25 216.00 307.88 C 216.88 309.50 218.06 310.83 219.25 312.25 C 220.44 313.67 221.71 315.15 223.12 316.38 C 224.54 317.60 226.19 319.06 227.75 319.62 C 229.31 320.19 229.25 321.38 232.50 319.75 C 235.75 318.12 242.94 312.46 247.25 309.88 C 251.56 307.29 254.44 306.06 258.38 304.25 C 262.31 302.44 265.79 300.88 270.88 299.00 C 275.96 297.12 279.46 295.52 288.88 293.00 C 298.29 290.48 318.94 285.56 327.38 283.88 C 335.81 282.19 336.69 282.98 339.50 282.88 C 342.31 282.77 342.73 283.02 344.25 283.25 C 345.77 283.48 347.38 283.77 348.62 284.25 C 349.88 284.73 350.71 285.29 351.75 286.12 C 352.79 286.96 354.06 288.29 354.88 289.25 C 355.69 290.21 356.00 290.46 356.62 291.88 C 357.25 293.29 358.12 295.40 358.62 297.75 C 359.12 300.10 359.77 302.54 359.62 306.00 C 359.48 309.46 358.73 313.52 357.75 318.50 C 356.77 323.48 355.44 329.90 353.75 335.88 C 352.06 341.85 349.65 349.00 347.62 354.38 C 345.60 359.75 343.98 363.40 341.62 368.12 C 339.27 372.85 336.08 378.58 333.50 382.75 C 330.92 386.92 328.56 390.21 326.12 393.12 C 323.69 396.04 320.65 398.67 318.88 400.25 C 317.10 401.83 316.56 402.02 315.50 402.62 C 314.44 403.23 313.65 403.60 312.50 403.88 C 311.35 404.15 311.42 404.48 308.62 404.25 C 305.83 404.02 300.23 403.42 295.75 402.50 C 291.27 401.58 288.96 401.12 281.75 398.75 C 274.54 396.38 258.06 390.02 252.50 388.25 C 246.94 386.48 249.29 387.94 248.38 388.12 C 247.46 388.31 247.21 388.83 247.00 389.38 C 246.79 389.92 246.96 390.73 247.12 391.38 C 247.29 392.02 247.40 392.33 248.00 393.25 C 248.60 394.17 246.02 391.98 250.75 396.88 C 255.48 401.77 268.46 414.10 276.38 422.62 C 284.29 431.15 294.21 443.44 298.25 448.00 C 302.29 452.56 299.62 449.38 300.62 450.00 C 301.62 450.62 302.25 451.46 304.25 451.75 C 306.25 452.04 310.23 452.08 312.62 451.75 C 315.02 451.42 316.71 450.58 318.62 449.75 C 320.54 448.92 321.23 449.06 324.12 446.75 C 327.02 444.44 332.90 438.96 336.00 435.88 C 339.10 432.79 340.46 431.06 342.75 428.25 C 345.04 425.44 347.58 422.08 349.75 419.00 C 351.92 415.92 353.60 413.38 355.75 409.75 C 357.90 406.12 360.46 401.54 362.62 397.25 C 364.79 392.96 366.90 388.38 368.75 384.00 C 370.60 379.62 372.27 375.15 373.75 371.00 C 375.23 366.85 375.88 365.67 377.62 359.12 C 379.38 352.58 381.69 341.75 384.25 331.75 C 386.81 321.75 391.19 305.50 393.00 299.12 C 394.81 292.75 394.35 294.96 395.12 293.50 C 395.90 292.04 397.04 291.44 397.62 290.38 C 398.21 289.31 398.52 288.25 398.62 287.12 C 398.73 286.00 398.73 284.92 398.25 283.62 C 397.77 282.33 397.12 280.92 395.75 279.38 C 394.38 277.83 391.79 275.77 390.00 274.38 C 388.21 272.98 387.33 272.35 385.00 271.00 C 382.67 269.65 379.17 267.75 376.00 266.25 C 372.83 264.75 368.46 262.96 366.00 262.00 C 363.54 261.04 362.71 260.83 361.25 260.50 C 359.79 260.17 358.60 260.06 357.25 260.00 C 355.90 259.94 354.60 259.96 353.12 260.12 C 351.65 260.29 349.92 260.56 348.38 261.00 C 346.83 261.44 347.60 261.62 343.88 262.75 C 340.15 263.88 332.56 266.08 326.00 267.75 C 319.44 269.42 313.42 270.92 304.50 272.75 C 295.58 274.58 278.79 277.67 272.50 278.75 C 266.21 279.83 268.15 279.27 266.75 279.25 C 265.35 279.23 264.75 278.94 264.12 278.62 C 263.50 278.31 263.27 277.85 263.00 277.38 C 262.73 276.90 262.52 276.58 262.50 275.75 C 262.48 274.92 262.60 273.46 262.88 272.38 C 263.15 271.29 261.77 273.94 264.12 269.25 C 266.48 264.56 273.38 250.73 277.00 244.25 C 280.62 237.77 284.25 233.00 285.88 230.38 C 287.50 227.75 286.50 229.52 286.75 228.50 C 287.00 227.48 287.40 225.52 287.38 224.25 C 287.35 222.98 287.12 222.02 286.62 220.88 C 286.12 219.73 285.46 218.50 284.38 217.38 C 283.29 216.25 281.98 215.23 280.12 214.12 C 278.27 213.02 274.81 211.65 273.25 210.75 C 271.69 209.85 271.38 209.10 270.75 208.75 C 270.12 208.40 270.06 208.94 269.50 208.62 C 268.94 208.31 268.85 207.54 267.38 206.88 C 265.90 206.21 262.06 205.00 260.62 204.62 C 259.19 204.25 259.10 204.44 258.75 204.62 C 258.40 204.81 258.71 205.77 258.50 205.75 C 258.29 205.73 258.83 204.67 257.50 204.50 C 256.17 204.33 252.12 204.48 250.50 204.75 Z" id="s-5-f-0"/>
<clipPath id="c-s-5"><use href="#s-5-f-0"/></clipPath>
</defs>
<g id="s-0" clip-path="url(#c-s-0)">
<use href="#s-0-f-0"/>
<path d="M 111.88 62.38 C 111.38 63.17 111.27 63.75 111.25 65.00 C 111.23 66.25 111.46 68.69 111.75 69.88 C 112.04 71.06 112.25 71.15 113.00 72.12 C 113.75 73.10 108.19 68.96 116.25 75.75 C 124.31 82.54 153.48 106.56 161.38 112.88 C 169.27 119.19 162.46 113.98 163.62 113.62 C 164.79 113.27 166.60 112.15 168.38 110.75 C 170.15 109.35 172.52 107.25 174.25 105.25 C 175.98 103.25 177.67 100.69 178.75 98.75 C 179.83 96.81 180.75 95.67 180.75 93.62 C 180.75 91.58 179.42 88.33 178.75 86.50 C 178.08 84.67 177.52 83.79 176.75 82.62 C 175.98 81.46 175.83 80.94 174.12 79.50 C 172.42 78.06 168.75 75.42 166.50 74.00 C 164.25 72.58 162.83 71.98 160.62 71.00 C 158.42 70.02 156.08 69.10 153.25 68.12 C 150.42 67.15 149.02 66.48 143.62 65.12 C 138.23 63.77 125.38 60.88 120.88 60.00 C 116.38 59.12 117.73 59.83 116.62 59.88 C 115.52 59.92 115.04 59.83 114.25 60.25 C 113.46 60.67 112.38 61.58 111.88 62.38 Z" id="s-0-f-1"/>
<path d="M 111.88 62.38 C 111.38 63.17 111.27 63.75 111.25 65.00 C 111.23 66.25 111.46 68.69 111.75 69.88 C 112.04 71.06 112.25 71.15 113.00 72.12 C 113.75 73.10 108.88 69.50 116.25 75.75 C 123.62 82.00 150.27 103.98 157.25 109.62 C 164.23 115.27 157.46 109.92 158.12 109.62 C 158.79 109.33 159.60 109.25 161.25 107.88 C 162.90 106.50 166.23 103.38 168.00 101.38 C 169.77 99.38 170.73 97.90 171.88 95.88 C 173.02 93.85 174.19 91.17 174.88 89.25 C 175.56 87.33 175.81 85.60 176.00 84.38 C 176.19 83.15 176.52 82.88 176.00 81.88 C 175.48 80.88 174.46 79.69 172.88 78.38 C 171.29 77.06 168.54 75.23 166.50 74.00 C 164.46 72.77 162.83 71.98 160.62 71.00 C 158.42 70.02 156.08 69.10 153.25 68.12 C 150.42 67.15 149.02 66.48 143.62 65.12 C 138.23 63.77 125.38 60.88 120.88 60.00 C 116.38 59.12 117.73 59.83 116.62 59.88 C 115.52 59.92 115.04 59.83 114.25 60.25 C 113.46 60.67 112.38 61.58 111.88 62.38 Z" id="s-0-f-2"/>
<path d="M 111.88 62.38 C 111.38 63.17 111.27 63.75 111.25 65.00 C 111.23 66.25 111.46 68.69 111.75 69.88 C 112.04 71.06 112.25 71.15 113.00 72.12 C 113.75 73.10 109.71 70.21 116.25 75.75 C 122.79 81.29 145.92 100.50 152.25 105.38 C 158.58 110.25 153.31 105.54 154.25 105.00 C 155.19 104.46 156.62 103.23 157.88 102.12 C 159.12 101.02 160.42 99.94 161.75 98.38 C 163.08 96.81 164.69 94.79 165.88 92.75 C 167.06 90.71 168.10 88.58 168.88 86.12 C 169.65 83.67 170.33 79.62 170.50 78.00 C 170.67 76.38 170.54 77.04 169.88 76.38 C 169.21 75.71 168.04 74.90 166.50 74.00 C 164.96 73.10 162.83 71.98 160.62 71.00 C 158.42 70.02 156.08 69.10 153.25 68.12 C 150.42 67.15 149.02 66.48 143.62 65.12 C 138.23 63.77 125.38 60.88 120.88 60.00 C 116.38 59.12 117.73 59.83 116.62 59.88 C 115.52 59.92 115.04 59.83 114.25 60.25 C 113.46 60.67 112.38 61.58 111.88 62.38 Z" id="s-0-f-3"/>
<path d="M 112.62 61.38 C 112.08 61.77 112.10 61.77 111.88 62.38 C 111.65 62.98 111.29 63.83 111.25 65.00 C 111.21 66.17 111.10 67.92 111.62 69.38 C 112.15 70.83 112.81 71.98 114.38 73.75 C 115.94 75.52 115.42 75.33 121.00 80.00 C 126.58 84.67 143.15 98.12 147.88 101.75 C 152.60 105.38 148.69 102.06 149.38 101.75 C 150.06 101.44 150.67 101.12 152.00 99.88 C 153.33 98.62 155.90 96.00 157.38 94.25 C 158.85 92.50 159.79 91.35 160.88 89.38 C 161.96 87.40 163.17 84.69 163.88 82.38 C 164.58 80.06 165.00 77.06 165.12 75.50 C 165.25 73.94 166.19 74.08 164.62 73.00 C 163.06 71.92 158.15 69.98 155.75 69.00 C 153.35 68.02 154.42 68.29 150.25 67.12 C 146.08 65.96 135.98 63.21 130.75 62.00 C 125.52 60.79 121.48 60.21 118.88 59.88 C 116.27 59.54 116.17 59.75 115.12 60.00 C 114.08 60.25 113.17 60.98 112.62 61.38 Z" id="s-0-f-4"/>
<path d="M 113.00 61.00 C 112.46 61.40 112.17 61.71 111.88 62.38 C 111.58 63.04 111.27 63.75 111.25 65.00 C 111.23 66.25 111.23 68.42 111.75 69.88 C 112.27 71.33 112.83 72.06 114.38 73.75 C 115.92 75.44 115.98 75.81 121.00 80.00 C 126.02 84.19 140.21 95.85 144.50 98.88 C 148.79 101.90 145.50 99.06 146.75 98.12 C 148.00 97.19 150.46 95.02 152.00 93.25 C 153.54 91.48 154.85 89.42 156.00 87.50 C 157.15 85.58 158.06 84.10 158.88 81.75 C 159.69 79.40 160.54 75.02 160.88 73.38 C 161.21 71.73 160.98 72.27 160.88 71.88 C 160.77 71.48 161.10 71.48 160.25 71.00 C 159.40 70.52 158.02 69.83 155.75 69.00 C 153.48 68.17 151.48 67.31 146.62 66.00 C 141.77 64.69 131.25 62.15 126.62 61.12 C 122.00 60.10 120.79 60.06 118.88 59.88 C 116.96 59.69 116.10 59.81 115.12 60.00 C 114.15 60.19 113.54 60.60 113.00 61.00 Z" id="s-0-f-5"/>
<path d="M 113.00 61.00 C 112.46 61.40 112.17 61.71 111.88 62.38 C 111.58 63.04 111.29 63.83 111.25 65.00 C 111.21 66.17 111.33 68.19 111.62 69.38 C 111.92 70.56 111.58 70.48 113.00 72.12 C 114.42 73.77 115.29 75.15 120.12 79.25 C 124.96 83.35 138.19 93.88 142.00 96.75 C 145.81 99.62 141.65 97.73 143.00 96.50 C 144.35 95.27 148.46 91.27 150.12 89.38 C 151.79 87.48 152.06 86.83 153.00 85.12 C 153.94 83.42 155.02 81.42 155.75 79.12 C 156.48 76.83 157.25 72.98 157.38 71.38 C 157.50 69.77 158.79 70.54 156.50 69.50 C 154.21 68.46 148.71 66.54 143.62 65.12 C 138.54 63.71 130.12 61.88 126.00 61.00 C 121.88 60.12 120.69 60.04 118.88 59.88 C 117.06 59.71 116.10 59.81 115.12 60.00 C 114.15 60.19 113.54 60.60 113.00 61.00 Z" id="s-0-f-6"/>
<path d="M 113.00 61.00 C 112.46 61.40 112.17 61.71 111.88 62.38 C 111.58 63.04 111.27 63.75 111.25 65.00 C 111.23 66.25 111.23 68.42 111.75 69.88 C 112.27 71.33 113.17 72.35 114.38 73.75 C 115.58 75.15 114.75 74.71 119.00 78.25 C 123.25 81.79 136.21 92.21 139.88 95.00 C 143.54 97.79 140.02 95.75 141.00 95.00 C 141.98 94.25 144.10 92.44 145.75 90.50 C 147.40 88.56 149.96 84.83 150.88 83.38 C 151.79 81.92 150.94 82.46 151.25 81.75 C 151.56 81.04 152.12 80.98 152.75 79.12 C 153.38 77.27 154.62 72.25 155.00 70.62 C 155.38 69.00 155.10 69.71 155.00 69.38 C 154.90 69.04 156.27 69.33 154.38 68.62 C 152.48 67.92 149.21 66.56 143.62 65.12 C 138.04 63.69 125.62 60.85 120.88 60.00 C 116.12 59.15 116.44 59.83 115.12 60.00 C 113.81 60.17 113.54 60.60 113.00 61.00 Z" id="s-0-f-7"/>
<path d="M 113.00 61.00 C 112.46 61.40 112.17 61.71 111.88 62.38 C 111.58 63.04 111.29 63.83 111.25 65.00 C 111.21 66.17 111.33 68.19 111.62 69.38 C 111.92 70.56 112.23 71.06 113.00 72.12 C 113.77 73.19 114.21 73.85 116.25 75.75 C 118.29 77.65 121.58 80.48 125.25 83.50 C 128.92 86.52 135.77 92.15 138.25 93.88 C 140.73 95.60 138.90 94.83 140.12 93.88 C 141.35 92.92 144.02 90.08 145.62 88.12 C 147.23 86.17 148.71 83.92 149.75 82.12 C 150.79 80.33 151.38 78.71 151.88 77.38 C 152.38 76.04 152.54 75.19 152.75 74.12 C 152.96 73.06 152.96 71.73 153.12 71.00 C 153.29 70.27 153.75 70.21 153.75 69.75 C 153.75 69.29 154.81 69.02 153.12 68.25 C 151.44 67.48 149.00 66.50 143.62 65.12 C 138.25 63.75 125.62 60.85 120.88 60.00 C 116.12 59.15 116.44 59.83 115.12 60.00 C 113.81 60.17 113.54 60.60 113.00 61.00 Z" id="s-0-f-8"/>
<path d="M 113.00 61.00 C 112.46 61.40 112.17 61.71 111.88 62.38 C 111.58 63.04 111.27 63.75 111.25 65.00 C 111.23 66.25 111.23 68.42 111.75 69.88 C 112.27 71.33 112.98 72.19 114.38 73.75 C 115.77 75.31 116.15 75.90 120.12 79.25 C 124.10 82.60 135.04 91.46 138.25 93.88 C 141.46 96.29 138.29 94.60 139.38 93.75 C 140.46 92.90 143.17 90.58 144.75 88.75 C 146.33 86.92 147.71 84.88 148.88 82.75 C 150.04 80.62 151.06 78.06 151.75 76.00 C 152.44 73.94 152.85 71.71 153.00 70.38 C 153.15 69.04 154.19 68.88 152.62 68.00 C 151.06 67.12 148.92 66.46 143.62 65.12 C 138.33 63.79 125.62 60.85 120.88 60.00 C 116.12 59.15 116.44 59.83 115.12 60.00 C 113.81 60.17 113.54 60.60 113.00 61.00 Z" id="s-0-f-9"/>
</g>
<g id="s-1" clip-path="url(#c-s-1)">
<use href="#s-1-f-0"/>
<path d="M 65.00 166.62 C 64.69 167.62 64.69 169.65 64.88 171.25 C 65.06 172.85 65.67 174.98 66.12 176.25 C 66.58 177.52 66.83 177.79 67.62 178.88 C 68.42 179.96 66.79 178.73 70.88 182.75 C 74.96 186.77 87.17 198.48 92.12 203.00 C 97.08 207.52 98.04 207.92 100.62 209.88 C 103.21 211.83 104.90 213.10 107.62 214.75 C 110.35 216.40 115.02 218.75 117.00 219.75 C 118.98 220.75 118.77 220.58 119.50 220.75 C 120.23 220.92 120.58 220.94 121.38 220.75 C 122.17 220.56 123.08 220.35 124.25 219.62 C 125.42 218.90 126.96 217.83 128.38 216.38 C 129.79 214.92 131.85 212.12 132.75 210.88 C 133.65 209.62 133.56 210.17 133.75 208.88 C 133.94 207.58 133.92 204.58 133.88 203.12 C 133.83 201.67 133.88 201.54 133.50 200.12 C 133.12 198.71 132.40 196.25 131.62 194.62 C 130.85 193.00 130.44 192.23 128.88 190.38 C 127.31 188.52 124.38 185.40 122.25 183.50 C 120.12 181.60 118.31 180.40 116.12 179.00 C 113.94 177.60 111.50 176.29 109.12 175.12 C 106.75 173.96 104.88 173.17 101.88 172.00 C 98.88 170.83 94.73 169.27 91.12 168.12 C 87.52 166.98 83.83 165.71 80.25 165.12 C 76.67 164.54 71.88 164.60 69.62 164.62 C 67.38 164.65 67.52 164.92 66.75 165.25 C 65.98 165.58 65.31 165.62 65.00 166.62 Z" id="s-1-f-1"/>
<path d="M 65.00 166.62 C 64.69 167.62 64.69 169.65 64.88 171.25 C 65.06 172.85 65.67 174.98 66.12 176.25 C 66.58 177.52 66.83 177.79 67.62 178.88 C 68.42 179.96 66.79 178.73 70.88 182.75 C 74.96 186.77 87.17 198.48 92.12 203.00 C 97.08 207.52 98.04 207.92 100.62 209.88 C 103.21 211.83 105.62 213.46 107.62 214.75 C 109.62 216.04 111.58 217.08 112.62 217.62 C 113.67 218.17 113.44 217.98 113.88 218.00 C 114.31 218.02 113.75 218.79 115.25 217.75 C 116.75 216.71 120.77 213.81 122.88 211.75 C 124.98 209.69 126.54 207.46 127.88 205.38 C 129.21 203.29 130.25 200.88 130.88 199.25 C 131.50 197.62 131.54 196.44 131.62 195.62 C 131.71 194.81 131.83 195.25 131.38 194.38 C 130.92 193.50 130.40 192.19 128.88 190.38 C 127.35 188.56 124.38 185.40 122.25 183.50 C 120.12 181.60 118.31 180.40 116.12 179.00 C 113.94 177.60 111.50 176.29 109.12 175.12 C 106.75 173.96 104.88 173.17 101.88 172.00 C 98.88 170.83 94.73 169.27 91.12 168.12 C 87.52 166.98 83.83 165.71 80.25 165.12 C 76.67 164.54 71.88 164.60 69.62 164.62 C 67.38 164.65 67.52 164.92 66.75 165.25 C 65.98 165.58 65.31 165.62 65.00 166.62 Z" id="s-1-f-2"/>
<path d="M 65.00 166.62 C 64.67 167.42 64.60 168.52 64.75 170.00 C 64.90 171.48 65.40 174.02 65.88 175.50 C 66.35 176.98 66.94 177.83 67.62 178.88 C 68.31 179.92 66.25 178.02 70.00 181.75 C 73.75 185.48 85.88 197.23 90.12 201.25 C 94.38 205.27 92.65 203.69 95.50 205.88 C 98.35 208.06 105.06 212.96 107.25 214.38 C 109.44 215.79 107.96 214.62 108.62 214.38 C 109.29 214.12 109.90 213.92 111.25 212.88 C 112.60 211.83 114.98 209.98 116.75 208.12 C 118.52 206.27 120.54 203.75 121.88 201.75 C 123.21 199.75 123.94 198.33 124.75 196.12 C 125.56 193.92 127.17 190.60 126.75 188.50 C 126.33 186.40 124.02 185.08 122.25 183.50 C 120.48 181.92 118.31 180.40 116.12 179.00 C 113.94 177.60 111.50 176.29 109.12 175.12 C 106.75 173.96 104.88 173.17 101.88 172.00 C 98.88 170.83 94.73 169.27 91.12 168.12 C 87.52 166.98 83.83 165.71 80.25 165.12 C 76.67 164.54 71.88 164.60 69.62 164.62 C 67.38 164.65 67.52 164.92 66.75 165.25 C 65.98 165.58 65.33 165.83 65.00 166.62 Z" id="s-1-f-3"/>
<path d="M 65.00 166.62 C 64.67 167.42 64.60 168.52 64.75 170.00 C 64.90 171.48 65.25 173.83 65.88 175.50 C 66.50 177.17 64.65 175.88 68.50 180.00 C 72.35 184.12 83.40 195.10 89.00 200.25 C 94.60 205.40 99.75 209.10 102.12 210.88 C 104.50 212.65 102.73 211.04 103.25 210.88 C 103.77 210.71 103.77 211.04 105.25 209.88 C 106.73 208.71 110.19 205.94 112.12 203.88 C 114.06 201.81 115.58 199.67 116.88 197.50 C 118.17 195.33 119.21 192.54 119.88 190.88 C 120.54 189.21 120.62 188.75 120.88 187.50 C 121.12 186.25 121.48 184.31 121.38 183.38 C 121.27 182.44 121.12 182.60 120.25 181.88 C 119.38 181.15 117.98 180.12 116.12 179.00 C 114.27 177.88 111.50 176.29 109.12 175.12 C 106.75 173.96 104.88 173.17 101.88 172.00 C 98.88 170.83 94.73 169.27 91.12 168.12 C 87.52 166.98 83.83 165.71 80.25 165.12 C 76.67 164.54 71.88 164.60 69.62 164.62 C 67.38 164.65 67.52 164.92 66.75 165.25 C 65.98 165.58 65.33 165.83 65.00 166.62 Z" id="s-1-f-4"/>
<path d="M 65.00 166.62 C 64.67 167.42 64.60 168.52 64.75 170.00 C 64.90 171.48 65.25 173.83 65.88 175.50 C 66.50 177.17 65.27 176.46 68.50 180.00 C 71.73 183.54 80.33 192.12 85.25 196.75 C 90.17 201.38 95.42 206.10 98.00 207.75 C 100.58 209.40 99.52 207.42 100.75 206.62 C 101.98 205.83 103.52 204.92 105.38 203.00 C 107.23 201.08 110.29 197.46 111.88 195.12 C 113.46 192.79 114.04 191.31 114.88 189.00 C 115.71 186.69 116.54 182.69 116.88 181.25 C 117.21 179.81 117.02 180.75 116.88 180.38 C 116.73 180.00 117.29 179.88 116.00 179.00 C 114.71 178.12 111.48 176.29 109.12 175.12 C 106.77 173.96 104.88 173.17 101.88 172.00 C 98.88 170.83 94.73 169.27 91.12 168.12 C 87.52 166.98 83.83 165.71 80.25 165.12 C 76.67 164.54 71.88 164.60 69.62 164.62 C 67.38 164.65 67.52 164.92 66.75 165.25 C 65.98 165.58 65.33 165.83 65.00 166.62 Z" id="s-1-f-5"/>
<path d="M 65.00 166.62 C 64.56 167.10 64.75 166.96 64.75 167.88 C 64.75 168.79 64.77 170.73 65.00 172.12 C 65.23 173.52 65.69 175.12 66.12 176.25 C 66.56 177.38 66.83 177.79 67.62 178.88 C 68.42 179.96 68.31 180.12 70.88 182.75 C 73.44 185.38 79.06 190.94 83.00 194.62 C 86.94 198.31 92.38 203.17 94.50 204.88 C 96.62 206.58 94.58 205.62 95.75 204.88 C 96.92 204.12 99.50 202.35 101.50 200.38 C 103.50 198.40 106.19 195.23 107.75 193.00 C 109.31 190.77 110.00 189.27 110.88 187.00 C 111.75 184.73 112.75 181.06 113.00 179.38 C 113.25 177.69 115.04 178.42 112.38 176.88 C 109.71 175.33 102.35 172.08 97.00 170.12 C 91.65 168.17 84.81 166.04 80.25 165.12 C 75.69 164.21 71.77 164.65 69.62 164.62 C 67.48 164.60 68.15 164.67 67.38 165.00 C 66.60 165.33 65.44 166.15 65.00 166.62 Z" id="s-1-f-6"/>
<path d="M 65.00 166.62 C 64.56 167.10 64.75 166.96 64.75 167.88 C 64.75 168.79 64.77 170.73 65.00 172.12 C 65.23 173.52 65.69 175.12 66.12 176.25 C 66.56 177.38 66.73 177.69 67.62 178.88 C 68.52 180.06 67.46 179.42 71.50 183.38 C 75.54 187.33 88.23 199.38 91.88 202.62 C 95.52 205.88 91.94 203.83 93.38 202.88 C 94.81 201.92 98.71 198.62 100.50 196.88 C 102.29 195.12 102.90 194.31 104.12 192.38 C 105.35 190.44 106.90 187.71 107.88 185.25 C 108.85 182.79 109.65 179.12 110.00 177.62 C 110.35 176.12 110.15 176.67 110.00 176.25 C 109.85 175.83 111.75 176.31 109.12 175.12 C 106.50 173.94 99.06 170.79 94.25 169.12 C 89.44 167.46 84.35 165.88 80.25 165.12 C 76.15 164.38 71.77 164.65 69.62 164.62 C 67.48 164.60 68.15 164.67 67.38 165.00 C 66.60 165.33 65.44 166.15 65.00 166.62 Z" id="s-1-f-7"/>
<path d="M 65.00 166.62 C 64.56 167.10 64.75 166.96 64.75 167.88 C 64.75 168.79 64.77 170.73 65.00 172.12 C 65.23 173.52 65.69 175.12 66.12 176.25 C 66.56 177.38 66.83 177.79 67.62 178.88 C 68.42 179.96 67.23 179.10 70.88 182.75 C 74.52 186.40 86.15 197.62 89.50 200.75 C 92.85 203.88 90.60 201.40 91.00 201.50 C 91.40 201.60 90.90 202.06 91.88 201.38 C 92.85 200.69 95.08 199.15 96.88 197.38 C 98.67 195.60 101.15 192.83 102.62 190.75 C 104.10 188.67 104.88 186.96 105.75 184.88 C 106.62 182.79 107.48 179.81 107.88 178.25 C 108.27 176.69 108.27 176.17 108.12 175.50 C 107.98 174.83 109.31 175.31 107.00 174.25 C 104.69 173.19 98.71 170.65 94.25 169.12 C 89.79 167.60 84.35 165.88 80.25 165.12 C 76.15 164.38 71.77 164.65 69.62 164.62 C 67.48 164.60 68.15 164.67 67.38 165.00 C 66.60 165.33 65.44 166.15 65.00 166.62 Z" id="s-1-f-8"/>
<path d="M 65.00 166.62 C 64.56 167.10 64.75 166.96 64.75 167.88 C 64.75 168.79 64.77 170.73 65.00 172.12 C 65.23 173.52 65.69 175.12 66.12 176.25 C 66.56 177.38 66.73 177.69 67.62 178.88 C 68.52 180.06 67.85 179.75 71.50 183.38 C 75.15 187.00 86.29 197.75 89.50 200.62 C 92.71 203.50 89.94 201.08 90.75 200.62 C 91.56 200.17 93.00 199.08 94.38 197.88 C 95.75 196.67 97.75 194.75 99.00 193.38 C 100.25 192.00 100.90 191.21 101.88 189.62 C 102.85 188.04 104.04 185.88 104.88 183.88 C 105.71 181.88 106.50 179.06 106.88 177.62 C 107.25 176.19 107.21 175.85 107.12 175.25 C 107.04 174.65 108.52 175.02 106.38 174.00 C 104.23 172.98 98.60 170.60 94.25 169.12 C 89.90 167.65 84.35 165.88 80.25 165.12 C 76.15 164.38 71.77 164.65 69.62 164.62 C 67.48 164.60 68.15 164.67 67.38 165.00 C 66.60 165.33 65.44 166.15 65.00 166.62 Z" id="s-1-f-9"/>
</g>
<g id="s-2" clip-path="url(#c-s-2)">
<use href="#s-2-f-0"/>
<path d="M 142.88 266.50 C 142.00 266.40 143.75 263.75 141.25 267.25 C 138.75 270.75 136.62 273.50 127.88 287.50 C 119.12 301.50 96.04 339.67 88.75 351.25 C 81.46 362.83 86.04 354.96 84.12 357.00 C 82.21 359.04 79.73 361.42 77.25 363.50 C 74.77 365.58 70.96 367.96 69.25 369.50 C 67.54 371.04 67.42 371.31 67.00 372.75 C 66.58 374.19 66.58 376.12 66.75 378.12 C 66.92 380.12 66.96 381.04 68.00 384.75 C 69.04 388.46 71.50 396.29 73.00 400.38 C 74.50 404.46 75.81 406.90 77.00 409.25 C 78.19 411.60 78.90 412.73 80.12 414.50 C 81.35 416.27 82.96 418.35 84.38 419.88 C 85.79 421.40 86.77 422.31 88.62 423.62 C 90.48 424.94 93.79 427.02 95.50 427.75 C 97.21 428.48 97.92 428.02 98.88 428.00 C 99.83 427.98 100.62 427.90 101.25 427.62 C 101.88 427.35 102.23 426.90 102.62 426.38 C 103.02 425.85 103.29 425.58 103.62 424.50 C 103.96 423.42 104.40 421.73 104.62 419.88 C 104.85 418.02 104.62 415.94 105.00 413.38 C 105.38 410.81 105.04 411.02 106.88 404.50 C 108.71 397.98 111.67 387.46 116.00 374.25 C 120.33 361.04 126.83 342.23 132.88 325.25 C 138.92 308.27 149.10 281.44 152.25 272.38 C 155.40 263.31 152.71 271.62 151.75 270.88 C 150.79 270.12 147.98 268.60 146.50 267.88 C 145.02 267.15 143.75 266.60 142.88 266.50 Z" id="s-2-f-1"/>
<path d="M 132.25 285.88 C 130.58 285.35 130.10 285.48 129.38 285.75 C 128.65 286.02 132.27 280.54 127.88 287.50 C 123.48 294.46 109.06 317.56 103.00 327.50 C 96.94 337.44 94.06 342.92 91.50 347.12 C 88.94 351.33 88.85 351.10 87.62 352.75 C 86.40 354.40 85.71 355.33 84.12 357.00 C 82.54 358.67 80.60 360.67 78.12 362.75 C 75.65 364.83 71.10 367.83 69.25 369.50 C 67.40 371.17 67.42 371.31 67.00 372.75 C 66.58 374.19 66.58 376.12 66.75 378.12 C 66.92 380.12 66.96 381.04 68.00 384.75 C 69.04 388.46 71.50 396.29 73.00 400.38 C 74.50 404.46 75.81 406.90 77.00 409.25 C 78.19 411.60 78.90 412.73 80.12 414.50 C 81.35 416.27 82.96 418.35 84.38 419.88 C 85.79 421.40 86.77 422.31 88.62 423.62 C 90.48 424.94 93.79 427.02 95.50 427.75 C 97.21 428.48 97.92 428.02 98.88 428.00 C 99.83 427.98 100.62 427.90 101.25 427.62 C 101.88 427.35 102.23 426.90 102.62 426.38 C 103.02 425.85 103.29 425.58 103.62 424.50 C 103.96 423.42 104.42 421.56 104.62 419.88 C 104.83 418.19 104.65 416.31 104.88 414.38 C 105.10 412.44 104.98 412.33 106.00 408.25 C 107.02 404.17 107.65 400.52 111.00 389.88 C 114.35 379.23 120.52 360.42 126.12 344.38 C 131.73 328.33 141.73 302.40 144.62 293.62 C 147.52 284.85 144.38 292.54 143.50 291.75 C 142.62 290.96 141.25 289.85 139.38 288.88 C 137.50 287.90 133.92 286.40 132.25 285.88 Z" id="s-2-f-2"/>
<path d="M 117.88 306.00 C 116.21 305.58 116.73 306.04 116.25 306.38 C 115.77 306.71 119.12 301.21 115.00 308.00 C 110.88 314.79 96.06 339.67 91.50 347.12 C 86.94 354.58 88.85 351.10 87.62 352.75 C 86.40 354.40 85.71 355.33 84.12 357.00 C 82.54 358.67 80.60 360.67 78.12 362.75 C 75.65 364.83 70.96 368.12 69.25 369.50 C 67.54 370.88 68.27 370.35 67.88 371.00 C 67.48 371.65 67.02 371.75 66.88 373.38 C 66.73 375.00 66.65 378.25 67.00 380.75 C 67.35 383.25 67.83 384.67 69.00 388.38 C 70.17 392.08 72.67 399.52 74.00 403.00 C 75.33 406.48 75.98 407.33 77.00 409.25 C 78.02 411.17 78.90 412.73 80.12 414.50 C 81.35 416.27 82.96 418.35 84.38 419.88 C 85.79 421.40 86.77 422.31 88.62 423.62 C 90.48 424.94 93.79 427.02 95.50 427.75 C 97.21 428.48 97.92 428.02 98.88 428.00 C 99.83 427.98 100.62 427.90 101.25 427.62 C 101.88 427.35 102.23 426.90 102.62 426.38 C 103.02 425.85 103.29 425.58 103.62 424.50 C 103.96 423.42 104.42 421.56 104.62 419.88 C 104.83 418.19 104.65 416.31 104.88 414.38 C 105.10 412.44 104.98 412.33 106.00 408.25 C 107.02 404.17 108.33 398.52 111.00 389.88 C 113.67 381.23 117.85 368.44 122.00 356.38 C 126.15 344.31 133.54 324.19 135.88 317.50 C 138.21 310.81 136.08 316.65 136.00 316.25 C 135.92 315.85 136.44 316.02 135.38 315.12 C 134.31 314.23 131.15 311.92 129.62 310.88 C 128.10 309.83 128.21 309.69 126.25 308.88 C 124.29 308.06 119.54 306.42 117.88 306.00 Z" id="s-2-f-3"/>
<path d="M 104.88 326.50 C 103.52 326.40 105.48 323.81 103.25 327.25 C 101.02 330.69 94.10 342.88 91.50 347.12 C 88.90 351.38 88.85 351.10 87.62 352.75 C 86.40 354.40 85.71 355.33 84.12 357.00 C 82.54 358.67 80.71 360.56 78.12 362.75 C 75.54 364.94 70.48 368.46 68.62 370.12 C 66.77 371.79 67.31 372.02 67.00 372.75 C 66.69 373.48 66.75 373.17 66.75 374.50 C 66.75 375.83 66.62 378.44 67.00 380.75 C 67.38 383.06 67.83 384.67 69.00 388.38 C 70.17 392.08 72.50 399.21 74.00 403.00 C 75.50 406.79 76.50 408.58 78.00 411.12 C 79.50 413.67 81.48 416.35 83.00 418.25 C 84.52 420.15 85.17 420.96 87.12 422.50 C 89.08 424.04 92.98 426.58 94.75 427.50 C 96.52 428.42 96.67 427.98 97.75 428.00 C 98.83 428.02 100.44 427.90 101.25 427.62 C 102.06 427.35 102.23 426.90 102.62 426.38 C 103.02 425.85 103.29 425.58 103.62 424.50 C 103.96 423.42 104.42 421.56 104.62 419.88 C 104.83 418.19 104.65 416.31 104.88 414.38 C 105.10 412.44 105.27 411.33 106.00 408.25 C 106.73 405.17 107.58 401.54 109.25 395.88 C 110.92 390.21 112.90 383.58 116.00 374.25 C 119.10 364.92 126.04 345.90 127.88 339.88 C 129.71 333.85 127.83 339.04 127.00 338.12 C 126.17 337.21 124.40 335.58 122.88 334.38 C 121.35 333.17 119.79 331.96 117.88 330.88 C 115.96 329.79 113.54 328.60 111.38 327.88 C 109.21 327.15 106.23 326.60 104.88 326.50 Z" id="s-2-f-4"/>
<path d="M 93.38 344.88 C 92.08 344.79 93.15 344.44 92.38 345.50 C 91.60 346.56 90.12 349.33 88.75 351.25 C 87.38 353.17 85.90 355.08 84.12 357.00 C 82.35 358.92 80.83 360.42 78.12 362.75 C 75.42 365.08 69.75 369.23 67.88 371.00 C 66.00 372.77 67.02 371.75 66.88 373.38 C 66.73 375.00 66.65 378.25 67.00 380.75 C 67.35 383.25 68.00 385.10 69.00 388.38 C 70.00 391.65 71.67 396.90 73.00 400.38 C 74.33 403.85 75.81 406.90 77.00 409.25 C 78.19 411.60 78.90 412.73 80.12 414.50 C 81.35 416.27 82.96 418.35 84.38 419.88 C 85.79 421.40 86.90 422.35 88.62 423.62 C 90.35 424.90 93.04 426.77 94.75 427.50 C 96.46 428.23 97.67 428.06 98.88 428.00 C 100.08 427.94 101.19 427.77 102.00 427.12 C 102.81 426.48 103.31 425.33 103.75 424.12 C 104.19 422.92 104.42 421.67 104.62 419.88 C 104.83 418.08 104.60 416.02 105.00 413.38 C 105.40 410.73 106.00 407.92 107.00 404.00 C 108.00 400.08 108.90 396.52 111.00 389.88 C 113.10 383.23 118.08 368.94 119.62 364.12 C 121.17 359.31 120.38 361.94 120.25 361.00 C 120.12 360.06 119.73 359.56 118.88 358.50 C 118.02 357.44 117.06 356.23 115.12 354.62 C 113.19 353.02 109.75 350.31 107.25 348.88 C 104.75 347.44 102.44 346.67 100.12 346.00 C 97.81 345.33 94.67 344.96 93.38 344.88 Z" id="s-2-f-5"/>
<path d="M 79.88 363.88 C 77.35 364.56 76.38 365.15 74.75 366.00 C 73.12 366.85 71.25 368.17 70.12 369.00 C 69.00 369.83 68.52 370.38 68.00 371.00 C 67.48 371.62 67.17 371.12 67.00 372.75 C 66.83 374.38 66.33 377.06 67.00 380.75 C 67.67 384.44 69.83 391.17 71.00 394.88 C 72.17 398.58 72.83 400.29 74.00 403.00 C 75.17 405.71 76.27 408.31 78.00 411.12 C 79.73 413.94 82.60 417.79 84.38 419.88 C 86.15 421.96 86.90 422.35 88.62 423.62 C 90.35 424.90 93.23 426.77 94.75 427.50 C 96.27 428.23 96.73 427.96 97.75 428.00 C 98.77 428.04 100.06 428.02 100.88 427.75 C 101.69 427.48 102.15 426.98 102.62 426.38 C 103.10 425.77 103.42 425.21 103.75 424.12 C 104.08 423.04 104.42 421.67 104.62 419.88 C 104.83 418.08 104.62 415.94 105.00 413.38 C 105.38 410.81 105.88 408.42 106.88 404.50 C 107.88 400.58 109.38 395.21 111.00 389.88 C 112.62 384.54 115.90 375.69 116.62 372.50 C 117.35 369.31 116.52 371.69 115.38 370.75 C 114.23 369.81 111.77 368.02 109.75 366.88 C 107.73 365.73 105.79 364.69 103.25 363.88 C 100.71 363.06 96.73 362.33 94.50 362.00 C 92.27 361.67 92.31 361.56 89.88 361.88 C 87.44 362.19 82.40 363.19 79.88 363.88 Z" id="s-2-f-6"/>
<path d="M 79.75 377.12 C 76.85 378.15 74.29 379.88 72.50 381.00 C 70.71 382.12 69.71 383.17 69.00 383.88 C 68.29 384.58 67.92 383.42 68.25 385.25 C 68.58 387.08 70.04 391.92 71.00 394.88 C 71.96 397.83 72.48 399.73 74.00 403.00 C 75.52 406.27 78.08 411.38 80.12 414.50 C 82.17 417.62 83.81 419.58 86.25 421.75 C 88.69 423.92 92.83 426.46 94.75 427.50 C 96.67 428.54 96.67 427.98 97.75 428.00 C 98.83 428.02 100.44 427.90 101.25 427.62 C 102.06 427.35 102.21 426.96 102.62 426.38 C 103.04 425.79 103.19 427.15 103.75 424.12 C 104.31 421.10 104.33 415.40 106.00 408.25 C 107.67 401.10 112.65 385.98 113.75 381.25 C 114.85 376.52 113.73 380.58 112.62 379.88 C 111.52 379.17 109.29 377.79 107.12 377.00 C 104.96 376.21 102.50 375.48 99.62 375.12 C 96.75 374.77 93.19 374.54 89.88 374.88 C 86.56 375.21 82.65 376.10 79.75 377.12 Z" id="s-2-f-7"/>
<path d="M 82.62 384.75 C 80.54 385.60 78.58 386.62 76.62 388.00 C 74.67 389.38 71.81 391.85 70.88 393.00 C 69.94 394.15 70.48 393.21 71.00 394.88 C 71.52 396.54 72.48 399.73 74.00 403.00 C 75.52 406.27 78.08 411.38 80.12 414.50 C 82.17 417.62 83.81 419.58 86.25 421.75 C 88.69 423.92 92.83 426.46 94.75 427.50 C 96.67 428.54 96.67 427.98 97.75 428.00 C 98.83 428.02 100.44 427.90 101.25 427.62 C 102.06 427.35 102.21 426.96 102.62 426.38 C 103.04 425.79 103.19 427.15 103.75 424.12 C 104.31 421.10 105.08 412.96 106.00 408.25 C 106.92 403.54 108.29 399.19 109.25 395.88 C 110.21 392.56 111.33 390.06 111.75 388.38 C 112.17 386.69 111.90 386.31 111.75 385.75 C 111.60 385.19 112.00 385.46 110.88 385.00 C 109.75 384.54 107.21 383.48 105.00 383.00 C 102.79 382.52 100.27 382.15 97.62 382.12 C 94.98 382.10 91.62 382.44 89.12 382.88 C 86.62 383.31 84.71 383.90 82.62 384.75 Z" id="s-2-f-8"/>
<path d="M 84.75 387.88 C 82.46 388.69 80.75 389.48 78.62 390.88 C 76.50 392.27 73.10 395.10 72.00 396.25 C 70.90 397.40 71.67 396.62 72.00 397.75 C 72.33 398.88 72.65 400.21 74.00 403.00 C 75.35 405.79 78.08 411.38 80.12 414.50 C 82.17 417.62 83.81 419.58 86.25 421.75 C 88.69 423.92 92.83 426.46 94.75 427.50 C 96.67 428.54 96.67 427.98 97.75 428.00 C 98.83 428.02 100.44 427.90 101.25 427.62 C 102.06 427.35 102.21 426.96 102.62 426.38 C 103.04 425.79 103.19 427.15 103.75 424.12 C 104.31 421.10 104.85 413.58 106.00 408.25 C 107.15 402.92 109.77 395.42 110.62 392.12 C 111.48 388.83 111.67 389.38 111.12 388.50 C 110.58 387.62 109.23 387.33 107.38 386.88 C 105.52 386.42 102.50 385.90 100.00 385.75 C 97.50 385.60 94.92 385.65 92.38 386.00 C 89.83 386.35 87.04 387.06 84.75 387.88 Z" id="s-2-f-9"/>
</g>
<g id="s-3" clip-path="url(#c-s-3)">
<use href="#s-3-f-0"/>
<path d="M 364.88 91.38 C 364.62 89.29 364.35 88.71 363.88 87.25 C 363.40 85.79 362.62 83.62 362.00 82.62 C 361.38 81.62 361.52 81.69 360.12 81.25 C 358.73 80.81 355.38 80.21 353.62 80.00 C 351.88 79.79 351.67 79.83 349.62 80.00 C 347.58 80.17 345.71 80.15 341.38 81.00 C 337.04 81.85 331.35 82.88 323.62 85.12 C 315.90 87.38 301.27 92.56 295.00 94.50 C 288.73 96.44 292.96 95.23 286.00 96.75 C 279.04 98.27 262.50 101.90 253.25 103.62 C 244.00 105.35 235.21 106.06 230.50 107.12 C 225.79 108.19 226.08 109.25 225.00 110.00 C 223.92 110.75 224.17 111.04 224.00 111.62 C 223.83 112.21 223.50 112.56 224.00 113.50 C 224.50 114.44 225.90 116.21 227.00 117.25 C 228.10 118.29 228.96 118.83 230.62 119.75 C 232.29 120.67 234.40 121.75 237.00 122.75 C 239.60 123.75 243.17 125.06 246.25 125.75 C 249.33 126.44 253.12 126.69 255.50 126.88 C 257.88 127.06 257.62 127.08 260.50 126.88 C 263.38 126.67 258.38 128.65 272.75 125.62 C 287.12 122.60 331.48 112.38 346.75 108.75 C 362.02 105.12 361.33 104.81 364.38 103.88 C 367.42 102.94 364.83 103.81 365.00 103.12 C 365.17 102.44 365.40 101.71 365.38 99.75 C 365.35 97.79 365.12 93.46 364.88 91.38 Z" id="s-3-f-1"/>
<path d="M 345.88 98.88 C 345.73 96.46 345.54 95.73 344.88 93.62 C 344.21 91.52 342.71 88.04 341.88 86.25 C 341.04 84.46 340.40 83.60 339.88 82.88 C 339.35 82.15 339.42 82.02 338.75 81.88 C 338.08 81.73 338.98 81.29 335.88 82.00 C 332.77 82.71 326.94 84.04 320.12 86.12 C 313.31 88.21 300.69 92.73 295.00 94.50 C 289.31 96.27 292.96 95.23 286.00 96.75 C 279.04 98.27 262.50 101.90 253.25 103.62 C 244.00 105.35 235.21 106.06 230.50 107.12 C 225.79 108.19 226.08 109.25 225.00 110.00 C 223.92 110.75 224.17 111.04 224.00 111.62 C 223.83 112.21 223.50 112.56 224.00 113.50 C 224.50 114.44 225.90 116.21 227.00 117.25 C 228.10 118.29 228.06 118.50 230.62 119.75 C 233.19 121.00 238.94 123.62 242.38 124.75 C 245.81 125.88 247.69 126.17 251.25 126.50 C 254.81 126.83 259.23 127.06 263.75 126.75 C 268.27 126.44 274.38 125.42 278.38 124.62 C 282.38 123.83 276.90 124.52 287.75 122.00 C 298.60 119.48 333.83 111.81 343.50 109.50 C 353.17 107.19 345.35 109.90 345.75 108.12 C 346.15 106.35 346.02 101.29 345.88 98.88 Z" id="s-3-f-2"/>
<path d="M 325.62 107.12 C 325.56 105.12 325.35 102.75 324.88 100.50 C 324.40 98.25 323.77 95.85 322.75 93.62 C 321.73 91.40 319.67 88.23 318.75 87.12 C 317.83 86.02 321.21 85.77 317.25 87.00 C 313.29 88.23 300.21 92.88 295.00 94.50 C 289.79 96.12 292.96 95.23 286.00 96.75 C 279.04 98.27 262.50 101.90 253.25 103.62 C 244.00 105.35 235.21 106.06 230.50 107.12 C 225.79 108.19 226.08 109.25 225.00 110.00 C 223.92 110.75 224.17 111.04 224.00 111.62 C 223.83 112.21 223.50 112.56 224.00 113.50 C 224.50 114.44 225.90 116.21 227.00 117.25 C 228.10 118.29 228.06 118.50 230.62 119.75 C 233.19 121.00 238.94 123.62 242.38 124.75 C 245.81 125.88 247.69 126.17 251.25 126.50 C 254.81 126.83 259.23 127.06 263.75 126.75 C 268.27 126.44 274.38 125.42 278.38 124.62 C 282.38 123.83 280.08 123.79 287.75 122.00 C 295.42 120.21 318.12 115.46 324.38 113.88 C 330.62 112.29 325.04 113.62 325.25 112.50 C 325.46 111.38 325.69 109.12 325.62 107.12 Z" id="s-3-f-3"/>
<path d="M 306.50 112.25 C 306.44 110.10 306.19 106.79 305.75 104.62 C 305.31 102.46 304.73 101.17 303.88 99.25 C 303.02 97.33 301.46 94.17 300.62 93.12 C 299.79 92.08 299.81 92.77 298.88 93.00 C 297.94 93.23 300.83 93.08 295.00 94.50 C 289.17 95.92 271.96 99.77 263.88 101.50 C 255.79 103.23 252.06 103.94 246.50 104.88 C 240.94 105.81 234.08 106.27 230.50 107.12 C 226.92 107.98 226.08 109.25 225.00 110.00 C 223.92 110.75 224.17 111.04 224.00 111.62 C 223.83 112.21 223.50 112.56 224.00 113.50 C 224.50 114.44 225.90 116.21 227.00 117.25 C 228.10 118.29 228.06 118.50 230.62 119.75 C 233.19 121.00 238.94 123.62 242.38 124.75 C 245.81 125.88 248.23 126.15 251.25 126.50 C 254.27 126.85 256.08 127.17 260.50 126.88 C 264.92 126.58 273.21 125.56 277.75 124.75 C 282.29 123.94 283.29 123.04 287.75 122.00 C 292.21 120.96 301.44 119.25 304.50 118.50 C 307.56 117.75 305.79 118.54 306.12 117.50 C 306.46 116.46 306.56 114.40 306.50 112.25 Z" id="s-3-f-4"/>
<path d="M 298.00 117.00 C 298.06 115.52 298.06 112.69 297.88 110.75 C 297.69 108.81 297.54 107.56 296.88 105.38 C 296.21 103.19 294.56 99.23 293.88 97.62 C 293.19 96.02 293.15 96.15 292.75 95.75 C 292.35 95.35 294.12 94.75 291.50 95.25 C 288.88 95.75 283.38 97.35 277.00 98.75 C 270.62 100.15 260.92 102.25 253.25 103.62 C 245.58 105.00 235.50 106.10 231.00 107.00 C 226.50 107.90 227.33 108.42 226.25 109.00 C 225.17 109.58 224.88 110.06 224.50 110.50 C 224.12 110.94 224.06 111.06 224.00 111.62 C 223.94 112.19 223.62 112.94 224.12 113.88 C 224.62 114.81 225.25 115.94 227.00 117.25 C 228.75 118.56 232.06 120.50 234.62 121.75 C 237.19 123.00 240.44 124.08 242.38 124.75 C 244.31 125.42 244.06 125.40 246.25 125.75 C 248.44 126.10 252.58 126.71 255.50 126.88 C 258.42 127.04 259.94 127.12 263.75 126.75 C 267.56 126.38 275.06 125.25 278.38 124.62 C 281.69 124.00 280.58 123.75 283.62 123.00 C 286.67 122.25 294.31 120.69 296.62 120.12 C 298.94 119.56 297.27 120.15 297.50 119.62 C 297.73 119.10 297.94 118.48 298.00 117.00 Z" id="s-3-f-5"/>
<path d="M 283.88 116.12 C 283.83 113.44 283.27 108.77 282.75 106.12 C 282.23 103.48 281.29 101.54 280.75 100.25 C 280.21 98.96 279.85 98.71 279.50 98.38 C 279.15 98.04 284.12 97.17 278.62 98.25 C 273.12 99.33 254.44 103.42 246.50 104.88 C 238.56 106.33 234.38 106.31 231.00 107.00 C 227.62 107.69 227.33 108.42 226.25 109.00 C 225.17 109.58 224.88 110.06 224.50 110.50 C 224.12 110.94 224.06 111.06 224.00 111.62 C 223.94 112.19 223.62 112.94 224.12 113.88 C 224.62 114.81 225.25 115.94 227.00 117.25 C 228.75 118.56 232.06 120.50 234.62 121.75 C 237.19 123.00 240.44 124.08 242.38 124.75 C 244.31 125.42 244.06 125.40 246.25 125.75 C 248.44 126.10 252.58 126.71 255.50 126.88 C 258.42 127.04 260.88 126.96 263.75 126.75 C 266.62 126.54 269.79 126.12 272.75 125.62 C 275.71 125.12 279.79 124.31 281.50 123.75 C 283.21 123.19 282.60 123.52 283.00 122.25 C 283.40 120.98 283.92 118.81 283.88 116.12 Z" id="s-3-f-6"/>
<path d="M 273.88 119.12 C 274.04 116.46 274.23 111.23 273.88 108.12 C 273.52 105.02 272.29 101.85 271.75 100.50 C 271.21 99.15 274.83 99.27 270.62 100.00 C 266.42 100.73 253.10 103.71 246.50 104.88 C 239.90 106.04 234.38 106.31 231.00 107.00 C 227.62 107.69 227.33 108.42 226.25 109.00 C 225.17 109.58 224.88 110.06 224.50 110.50 C 224.12 110.94 224.06 111.06 224.00 111.62 C 223.94 112.19 223.62 112.94 224.12 113.88 C 224.62 114.81 226.19 116.44 227.00 117.25 C 227.81 118.06 227.33 117.83 229.00 118.75 C 230.67 119.67 234.12 121.58 237.00 122.75 C 239.88 123.92 243.17 125.06 246.25 125.75 C 249.33 126.44 252.58 126.71 255.50 126.88 C 258.42 127.04 261.08 126.94 263.75 126.75 C 266.42 126.56 269.98 126.19 271.50 125.75 C 273.02 125.31 272.48 125.23 272.88 124.12 C 273.27 123.02 273.71 121.79 273.88 119.12 Z" id="s-3-f-7"/>
<path d="M 268.88 107.12 C 268.56 104.35 267.60 102.15 267.00 101.12 C 266.40 100.10 268.67 100.38 265.25 101.00 C 261.83 101.62 252.29 103.85 246.50 104.88 C 240.71 105.90 234.08 106.27 230.50 107.12 C 226.92 107.98 226.08 109.25 225.00 110.00 C 223.92 110.75 224.17 111.04 224.00 111.62 C 223.83 112.21 223.50 112.56 224.00 113.50 C 224.50 114.44 225.90 116.21 227.00 117.25 C 228.10 118.29 228.06 118.50 230.62 119.75 C 233.19 121.00 238.94 123.62 242.38 124.75 C 245.81 125.88 247.69 126.17 251.25 126.50 C 254.81 126.83 261.21 126.88 263.75 126.75 C 266.29 126.62 265.81 126.44 266.50 125.75 C 267.19 125.06 267.48 123.96 267.88 122.62 C 268.27 121.29 268.71 120.33 268.88 117.75 C 269.04 115.17 269.19 109.90 268.88 107.12 Z" id="s-3-f-8"/>
<path d="M 267.88 106.38 C 267.67 103.58 267.12 102.40 266.62 101.50 C 266.12 100.60 268.23 100.44 264.88 101.00 C 261.52 101.56 252.23 103.85 246.50 104.88 C 240.77 105.90 234.08 106.27 230.50 107.12 C 226.92 107.98 226.08 109.25 225.00 110.00 C 223.92 110.75 224.17 111.04 224.00 111.62 C 223.83 112.21 223.50 112.56 224.00 113.50 C 224.50 114.44 225.90 116.21 227.00 117.25 C 228.10 118.29 228.06 118.50 230.62 119.75 C 233.19 121.00 238.94 123.62 242.38 124.75 C 245.81 125.88 247.71 126.17 251.25 126.50 C 254.79 126.83 261.19 126.92 263.62 126.75 C 266.06 126.58 265.17 126.92 265.88 125.50 C 266.58 124.08 267.54 121.44 267.88 118.25 C 268.21 115.06 268.08 109.17 267.88 106.38 Z" id="s-3-f-9"/>
</g>
<g id="s-4" clip-path="url(#c-s-4)">
<use href="#s-4-f-0"/>
<path d="M 434.62 176.12 C 434.48 174.52 434.15 172.73 433.88 171.75 C 433.60 170.77 434.46 171.19 433.00 170.25 C 431.54 169.31 428.12 167.31 425.12 166.12 C 422.12 164.94 418.25 163.77 415.00 163.12 C 411.75 162.48 408.44 162.27 405.62 162.25 C 402.81 162.23 406.40 161.25 398.12 163.00 C 389.85 164.75 373.12 169.10 356.00 172.75 C 338.88 176.40 311.50 181.73 295.38 184.88 C 279.25 188.02 280.23 187.92 259.25 191.62 C 238.27 195.33 184.98 204.23 169.50 207.12 C 154.02 210.02 166.98 208.54 166.38 209.00 C 165.77 209.46 165.96 209.33 165.88 209.88 C 165.79 210.42 165.69 211.46 165.88 212.25 C 166.06 213.04 166.38 213.75 167.00 214.62 C 167.62 215.50 168.25 216.35 169.62 217.50 C 171.00 218.65 173.21 220.27 175.25 221.50 C 177.29 222.73 179.79 224.00 181.88 224.88 C 183.96 225.75 185.60 226.27 187.75 226.75 C 189.90 227.23 192.56 227.67 194.75 227.75 C 196.94 227.83 198.67 227.60 200.88 227.25 C 203.08 226.90 204.35 226.67 208.00 225.62 C 211.65 224.58 218.21 222.27 222.75 221.00 C 227.29 219.73 227.10 219.69 235.25 218.00 C 243.40 216.31 264.06 212.54 271.62 210.88 C 279.19 209.21 274.50 209.33 280.62 208.00 C 286.75 206.67 301.29 204.04 308.38 202.88 C 315.46 201.71 315.33 201.81 323.12 201.00 C 330.92 200.19 343.44 198.79 355.12 198.00 C 366.81 197.21 380.77 196.69 393.25 196.25 C 405.73 195.81 423.65 195.60 430.00 195.38 C 436.35 195.15 430.73 196.10 431.38 194.88 C 432.02 193.65 433.31 190.25 433.88 188.00 C 434.44 185.75 434.62 183.35 434.75 181.38 C 434.88 179.40 434.77 177.73 434.62 176.12 Z" id="s-4-f-1"/>
<path d="M 398.88 178.75 C 398.67 175.98 398.50 175.90 397.62 173.62 C 396.75 171.35 394.56 166.65 393.62 165.12 C 392.69 163.60 398.27 163.23 392.00 164.50 C 385.73 165.77 372.10 169.35 356.00 172.75 C 339.90 176.15 311.50 181.73 295.38 184.88 C 279.25 188.02 280.23 187.92 259.25 191.62 C 238.27 195.33 184.98 204.23 169.50 207.12 C 154.02 210.02 166.98 208.54 166.38 209.00 C 165.77 209.46 165.96 209.33 165.88 209.88 C 165.79 210.42 165.69 211.46 165.88 212.25 C 166.06 213.04 166.38 213.75 167.00 214.62 C 167.62 215.50 168.25 216.35 169.62 217.50 C 171.00 218.65 173.21 220.27 175.25 221.50 C 177.29 222.73 179.79 224.00 181.88 224.88 C 183.96 225.75 185.60 226.27 187.75 226.75 C 189.90 227.23 192.56 227.67 194.75 227.75 C 196.94 227.83 198.67 227.60 200.88 227.25 C 203.08 226.90 204.35 226.67 208.00 225.62 C 211.65 224.58 218.21 222.27 222.75 221.00 C 227.29 219.73 227.10 219.69 235.25 218.00 C 243.40 216.31 264.25 212.50 271.62 210.88 C 279.00 209.25 274.56 209.40 279.50 208.25 C 284.44 207.10 294.38 205.17 301.25 204.00 C 308.12 202.83 312.38 202.21 320.75 201.25 C 329.12 200.29 338.94 199.08 351.50 198.25 C 364.06 197.42 388.42 196.79 396.12 196.25 C 403.83 195.71 397.29 196.00 397.75 195.00 C 398.21 194.00 398.69 192.96 398.88 190.25 C 399.06 187.54 399.08 181.52 398.88 178.75 Z" id="s-4-f-2"/>
<path d="M 356.88 184.38 C 356.65 182.75 356.40 181.38 355.88 179.75 C 355.35 178.12 354.25 175.65 353.75 174.62 C 353.25 173.60 353.21 173.83 352.88 173.62 C 352.54 173.42 358.65 172.02 351.75 173.38 C 344.85 174.73 326.23 178.83 311.50 181.75 C 296.77 184.67 287.04 186.65 263.38 190.88 C 239.71 195.10 185.67 204.10 169.50 207.12 C 153.33 210.15 166.98 208.54 166.38 209.00 C 165.77 209.46 165.96 209.33 165.88 209.88 C 165.79 210.42 165.69 211.46 165.88 212.25 C 166.06 213.04 166.38 213.75 167.00 214.62 C 167.62 215.50 168.25 216.35 169.62 217.50 C 171.00 218.65 173.21 220.27 175.25 221.50 C 177.29 222.73 179.79 224.00 181.88 224.88 C 183.96 225.75 185.60 226.27 187.75 226.75 C 189.90 227.23 192.56 227.67 194.75 227.75 C 196.94 227.83 198.67 227.60 200.88 227.25 C 203.08 226.90 204.35 226.67 208.00 225.62 C 211.65 224.58 218.21 222.27 222.75 221.00 C 227.29 219.73 227.10 219.69 235.25 218.00 C 243.40 216.31 264.25 212.50 271.62 210.88 C 279.00 209.25 275.40 209.25 279.50 208.25 C 283.60 207.25 289.38 206.04 296.25 204.88 C 303.12 203.71 310.88 202.40 320.75 201.25 C 330.62 200.10 349.52 198.65 355.50 198.00 C 361.48 197.35 356.38 197.79 356.62 197.38 C 356.88 196.96 356.90 196.81 357.00 195.50 C 357.10 194.19 357.27 191.35 357.25 189.50 C 357.23 187.65 357.10 186.00 356.88 184.38 Z" id="s-4-f-3"/>
<path d="M 313.88 193.25 C 313.52 190.65 312.50 187.29 311.88 185.50 C 311.25 183.71 310.67 183.08 310.12 182.50 C 309.58 181.92 317.10 180.48 308.62 182.00 C 300.15 183.52 282.44 187.44 259.25 191.62 C 236.06 195.81 184.98 204.23 169.50 207.12 C 154.02 210.02 166.98 208.54 166.38 209.00 C 165.77 209.46 165.96 209.33 165.88 209.88 C 165.79 210.42 165.69 211.46 165.88 212.25 C 166.06 213.04 166.38 213.75 167.00 214.62 C 167.62 215.50 168.25 216.35 169.62 217.50 C 171.00 218.65 173.21 220.27 175.25 221.50 C 177.29 222.73 179.79 224.00 181.88 224.88 C 183.96 225.75 185.60 226.27 187.75 226.75 C 189.90 227.23 192.56 227.67 194.75 227.75 C 196.94 227.83 198.67 227.60 200.88 227.25 C 203.08 226.90 204.35 226.67 208.00 225.62 C 211.65 224.58 217.46 222.44 222.75 221.00 C 228.04 219.56 231.60 218.69 239.75 217.00 C 247.90 215.31 265.00 212.33 271.62 210.88 C 278.25 209.42 275.40 209.25 279.50 208.25 C 283.60 207.25 290.62 205.85 296.25 204.88 C 301.88 203.90 310.29 203.00 313.25 202.38 C 316.21 201.75 313.90 202.65 314.00 201.12 C 314.10 199.60 314.23 195.85 313.88 193.25 Z" id="s-4-f-4"/>
<path d="M 274.75 202.88 C 274.60 201.04 274.33 199.90 273.88 198.12 C 273.42 196.35 272.54 193.60 272.00 192.25 C 271.46 190.90 271.17 190.42 270.62 190.00 C 270.08 189.58 285.60 186.90 268.75 189.75 C 251.90 192.60 186.56 203.92 169.50 207.12 C 152.44 210.33 166.98 208.54 166.38 209.00 C 165.77 209.46 165.96 209.33 165.88 209.88 C 165.79 210.42 165.69 211.46 165.88 212.25 C 166.06 213.04 166.38 213.75 167.00 214.62 C 167.62 215.50 167.88 216.15 169.62 217.50 C 171.38 218.85 175.46 221.52 177.50 222.75 C 179.54 223.98 180.17 224.21 181.88 224.88 C 183.58 225.54 185.29 226.27 187.75 226.75 C 190.21 227.23 193.96 227.75 196.62 227.75 C 199.29 227.75 199.40 227.88 203.75 226.75 C 208.10 225.62 217.50 222.46 222.75 221.00 C 228.00 219.54 227.10 219.69 235.25 218.00 C 243.40 216.31 265.04 212.35 271.62 210.88 C 278.21 209.40 274.23 210.46 274.75 209.12 C 275.27 207.79 274.90 204.71 274.75 202.88 Z" id="s-4-f-5"/>
<path d="M 243.25 215.25 C 243.35 213.54 243.44 209.46 242.88 206.50 C 242.31 203.54 240.60 199.31 239.88 197.50 C 239.15 195.69 238.90 196.00 238.50 195.62 C 238.10 195.25 249.00 193.33 237.50 195.25 C 226.00 197.17 181.35 204.83 169.50 207.12 C 157.65 209.42 166.98 208.54 166.38 209.00 C 165.77 209.46 165.94 209.23 165.88 209.88 C 165.81 210.52 165.81 212.08 166.00 212.88 C 166.19 213.67 166.40 213.85 167.00 214.62 C 167.60 215.40 168.25 216.35 169.62 217.50 C 171.00 218.65 172.79 220.12 175.25 221.50 C 177.71 222.88 182.29 224.88 184.38 225.75 C 186.46 226.62 186.02 226.42 187.75 226.75 C 189.48 227.08 192.08 227.75 194.75 227.75 C 197.42 227.75 199.08 227.88 203.75 226.75 C 208.42 225.62 216.33 222.67 222.75 221.00 C 229.17 219.33 238.83 217.71 242.25 216.75 C 245.67 215.79 243.15 216.96 243.25 215.25 Z" id="s-4-f-6"/>
<path d="M 221.62 216.62 C 221.75 215.12 221.75 213.81 221.62 212.12 C 221.50 210.44 221.35 208.50 220.88 206.50 C 220.40 204.50 219.23 201.35 218.75 200.12 C 218.27 198.90 218.25 199.31 218.00 199.12 C 217.75 198.94 225.33 197.67 217.25 199.00 C 209.17 200.33 177.98 205.46 169.50 207.12 C 161.02 208.79 166.98 208.54 166.38 209.00 C 165.77 209.46 165.94 209.23 165.88 209.88 C 165.81 210.52 165.81 212.08 166.00 212.88 C 166.19 213.67 166.40 213.85 167.00 214.62 C 167.60 215.40 168.25 216.35 169.62 217.50 C 171.00 218.65 172.79 220.12 175.25 221.50 C 177.71 222.88 182.29 224.88 184.38 225.75 C 186.46 226.62 186.02 226.42 187.75 226.75 C 189.48 227.08 192.08 227.75 194.75 227.75 C 197.42 227.75 199.54 227.73 203.75 226.75 C 207.96 225.77 217.15 222.81 220.00 221.88 C 222.85 220.94 220.60 222.00 220.88 221.12 C 221.15 220.25 221.50 218.12 221.62 216.62 Z" id="s-4-f-7"/>
<path d="M 209.88 208.50 C 209.69 206.17 209.10 204.02 208.75 202.75 C 208.40 201.48 208.08 201.21 207.75 200.88 C 207.42 200.54 213.12 199.71 206.75 200.75 C 200.38 201.79 176.23 205.75 169.50 207.12 C 162.77 208.50 166.98 208.54 166.38 209.00 C 165.77 209.46 165.96 209.33 165.88 209.88 C 165.79 210.42 165.69 211.46 165.88 212.25 C 166.06 213.04 166.38 213.75 167.00 214.62 C 167.62 215.50 167.88 216.15 169.62 217.50 C 171.38 218.85 175.46 221.52 177.50 222.75 C 179.54 223.98 180.17 224.21 181.88 224.88 C 183.58 225.54 185.29 226.27 187.75 226.75 C 190.21 227.23 193.96 227.75 196.62 227.75 C 199.29 227.75 202.10 227.06 203.75 226.75 C 205.40 226.44 205.81 226.21 206.50 225.88 C 207.19 225.54 207.31 226.27 207.88 224.75 C 208.44 223.23 209.54 219.46 209.88 216.75 C 210.21 214.04 210.06 210.83 209.88 208.50 Z" id="s-4-f-8"/>
<path d="M 207.62 209.25 C 207.35 207.00 206.42 203.12 206.00 201.75 C 205.58 200.38 211.21 200.10 205.12 201.00 C 199.04 201.90 175.96 205.79 169.50 207.12 C 163.04 208.46 166.98 208.54 166.38 209.00 C 165.77 209.46 165.96 209.33 165.88 209.88 C 165.79 210.42 165.69 211.46 165.88 212.25 C 166.06 213.04 166.38 213.75 167.00 214.62 C 167.62 215.50 167.88 216.15 169.62 217.50 C 171.38 218.85 175.46 221.52 177.50 222.75 C 179.54 223.98 180.17 224.21 181.88 224.88 C 183.58 225.54 185.29 226.27 187.75 226.75 C 190.21 227.23 193.94 227.77 196.62 227.75 C 199.31 227.73 202.35 227.21 203.88 226.62 C 205.40 226.04 205.12 226.15 205.75 224.25 C 206.38 222.35 207.31 217.75 207.62 215.25 C 207.94 212.75 207.90 211.50 207.62 209.25 Z" id="s-4-f-9"/>
</g>
<g id="s-5" clip-path="url(#c-s-5)">
<use href="#s-5-f-0"/>
<path d="M 250.50 204.75 C 248.88 205.02 248.52 205.54 247.75 206.12 C 246.98 206.71 246.25 207.67 245.88 208.25 C 245.50 208.83 245.56 208.60 245.50 209.62 C 245.44 210.65 245.40 213.48 245.50 214.38 C 245.60 215.27 246.08 214.83 246.12 215.00 C 246.17 215.17 245.31 214.75 245.75 215.38 C 246.19 216.00 248.08 217.85 248.75 218.75 C 249.42 219.65 249.40 219.46 249.75 220.75 C 250.10 222.04 250.73 224.35 250.88 226.50 C 251.02 228.65 250.85 231.44 250.62 233.62 C 250.40 235.81 249.96 237.83 249.50 239.62 C 249.04 241.42 249.21 241.25 247.88 244.38 C 246.54 247.50 243.52 254.40 241.50 258.38 C 239.48 262.35 238.08 264.77 235.75 268.25 C 233.42 271.73 230.62 275.52 227.50 279.25 C 224.38 282.98 219.25 287.67 217.00 290.62 C 214.75 293.58 214.50 295.02 214.00 297.00 C 213.50 298.98 213.67 300.69 214.00 302.50 C 214.33 304.31 215.12 306.25 216.00 307.88 C 216.88 309.50 218.06 310.83 219.25 312.25 C 220.44 313.67 221.71 315.15 223.12 316.38 C 224.54 317.60 226.19 319.06 227.75 319.62 C 229.31 320.19 229.25 321.38 232.50 319.75 C 235.75 318.12 242.94 312.46 247.25 309.88 C 251.56 307.29 254.44 306.06 258.38 304.25 C 262.31 302.44 265.79 300.88 270.88 299.00 C 275.96 297.12 279.46 295.52 288.88 293.00 C 298.29 290.48 318.94 285.56 327.38 283.88 C 335.81 282.19 336.69 282.98 339.50 282.88 C 342.31 282.77 342.73 283.02 344.25 283.25 C 345.77 283.48 347.38 283.77 348.62 284.25 C 349.88 284.73 350.71 285.29 351.75 286.12 C 352.79 286.96 354.06 288.29 354.88 289.25 C 355.69 290.21 356.00 290.46 356.62 291.88 C 357.25 293.29 358.12 295.40 358.62 297.75 C 359.12 300.10 359.77 302.54 359.62 306.00 C 359.48 309.46 358.40 314.81 357.75 318.50 C 357.10 322.19 356.92 323.58 355.75 328.12 C 354.58 332.67 352.44 340.54 350.75 345.75 C 349.06 350.96 347.15 355.65 345.62 359.38 C 344.10 363.10 343.27 364.83 341.62 368.12 C 339.98 371.42 337.56 375.96 335.75 379.12 C 333.94 382.29 332.35 384.79 330.75 387.12 C 329.15 389.46 327.85 391.15 326.12 393.12 C 324.40 395.10 322.04 397.48 320.38 399.00 C 318.71 400.52 317.35 401.46 316.12 402.25 C 314.90 403.04 314.17 403.42 313.00 403.75 C 311.83 404.08 310.56 404.23 309.12 404.25 C 307.69 404.27 306.60 404.17 304.38 403.88 C 302.15 403.58 298.02 402.98 295.75 402.50 C 293.48 402.02 292.02 401.25 290.75 401.00 C 289.48 400.75 289.10 400.40 288.12 401.00 C 287.15 401.60 285.92 403.15 284.88 404.62 C 283.83 406.10 282.71 408.04 281.88 409.88 C 281.04 411.71 280.38 413.88 279.88 415.62 C 279.38 417.38 279.02 418.73 278.88 420.38 C 278.73 422.02 276.08 421.23 279.00 425.50 C 281.92 429.77 292.92 442.02 296.38 446.00 C 299.83 449.98 298.50 448.44 299.75 449.38 C 301.00 450.31 302.75 451.19 303.88 451.62 C 305.00 452.06 305.04 451.98 306.50 452.00 C 307.96 452.02 310.60 452.12 312.62 451.75 C 314.65 451.38 316.71 450.58 318.62 449.75 C 320.54 448.92 321.23 449.06 324.12 446.75 C 327.02 444.44 332.90 438.96 336.00 435.88 C 339.10 432.79 340.46 431.06 342.75 428.25 C 345.04 425.44 347.58 422.08 349.75 419.00 C 351.92 415.92 353.60 413.38 355.75 409.75 C 357.90 406.12 360.46 401.54 362.62 397.25 C 364.79 392.96 366.90 388.38 368.75 384.00 C 370.60 379.62 372.27 375.15 373.75 371.00 C 375.23 366.85 375.88 365.67 377.62 359.12 C 379.38 352.58 381.69 341.75 384.25 331.75 C 386.81 321.75 391.19 305.50 393.00 299.12 C 394.81 292.75 394.35 294.96 395.12 293.50 C 395.90 292.04 397.04 291.44 397.62 290.38 C 398.21 289.31 398.52 288.25 398.62 287.12 C 398.73 286.00 398.73 284.92 398.25 283.62 C 397.77 282.33 397.12 280.92 395.75 279.38 C 394.38 277.83 391.79 275.77 390.00 274.38 C 388.21 272.98 387.33 272.35 385.00 271.00 C 382.67 269.65 379.17 267.75 376.00 266.25 C 372.83 264.75 368.46 262.96 366.00 262.00 C 363.54 261.04 362.71 260.83 361.25 260.50 C 359.79 260.17 358.60 260.06 357.25 260.00 C 355.90 259.94 354.60 259.96 353.12 260.12 C 351.65 260.29 349.92 260.56 348.38 261.00 C 346.83 261.44 347.60 261.62 343.88 262.75 C 340.15 263.88 332.56 266.08 326.00 267.75 C 319.44 269.42 313.42 270.92 304.50 272.75 C 295.58 274.58 278.79 277.67 272.50 278.75 C 266.21 279.83 268.15 279.27 266.75 279.25 C 265.35 279.23 264.75 278.94 264.12 278.62 C 263.50 278.31 263.27 277.85 263.00 277.38 C 262.73 276.90 262.52 276.58 262.50 275.75 C 262.48 274.92 262.60 273.46 262.88 272.38 C 263.15 271.29 261.77 273.94 264.12 269.25 C 266.48 264.56 273.38 250.73 277.00 244.25 C 280.62 237.77 284.25 233.00 285.88 230.38 C 287.50 227.75 286.50 229.52 286.75 228.50 C 287.00 227.48 287.40 225.52 287.38 224.25 C 287.35 222.98 287.12 222.02 286.62 220.88 C 286.12 219.73 285.46 218.50 284.38 217.38 C 283.29 216.25 281.98 215.23 280.12 214.12 C 278.27 213.02 274.81 211.65 273.25 210.75 C 271.69 209.85 271.38 209.10 270.75 208.75 C 270.12 208.40 270.06 208.94 269.50 208.62 C 268.94 208.31 268.85 207.54 267.38 206.88 C 265.90 206.21 262.06 205.00 260.62 204.62 C 259.19 204.25 259.10 204.44 258.75 204.62 C 258.40 204.81 258.71 205.77 258.50 205.75 C 258.29 205.73 258.83 204.67 257.50 204.50 C 256.17 204.33 252.12 204.48 250.50 204.75 Z" id="s-5-f-1"/>
<path d="M 248.50 205.62 C 247.85 206.04 247.10 206.71 246.62 207.25 C 246.15 207.79 245.81 207.69 245.62 208.88 C 245.44 210.06 245.42 213.35 245.50 214.38 C 245.58 215.40 246.08 214.83 246.12 215.00 C 246.17 215.17 245.31 214.75 245.75 215.38 C 246.19 216.00 248.08 217.85 248.75 218.75 C 249.42 219.65 249.42 219.75 249.75 220.75 C 250.08 221.75 250.58 222.79 250.75 224.75 C 250.92 226.71 250.96 230.02 250.75 232.50 C 250.54 234.98 250.50 236.42 249.50 239.62 C 248.50 242.83 246.85 247.27 244.75 251.75 C 242.65 256.23 238.73 263.21 236.88 266.50 C 235.02 269.79 235.19 269.38 233.62 271.50 C 232.06 273.62 229.65 276.79 227.50 279.25 C 225.35 281.71 222.69 284.06 220.75 286.25 C 218.81 288.44 217.00 290.58 215.88 292.38 C 214.75 294.17 214.33 295.58 214.00 297.00 C 213.67 298.42 213.88 299.96 213.88 300.88 C 213.88 301.79 213.65 301.33 214.00 302.50 C 214.35 303.67 214.90 305.98 216.00 307.88 C 217.10 309.77 219.33 312.38 220.62 313.88 C 221.92 315.38 222.44 315.88 223.75 316.88 C 225.06 317.88 227.04 319.40 228.50 319.88 C 229.96 320.35 229.71 321.23 232.50 319.75 C 235.29 318.27 241.21 313.46 245.25 311.00 C 249.29 308.54 252.48 307.00 256.75 305.00 C 261.02 303.00 265.52 301.00 270.88 299.00 C 276.23 297.00 280.33 295.33 288.88 293.00 C 297.42 290.67 314.83 286.62 322.12 285.00 C 329.42 283.38 329.98 283.60 332.62 283.25 C 335.27 282.90 336.06 282.88 338.00 282.88 C 339.94 282.88 342.58 283.06 344.25 283.25 C 345.92 283.44 346.75 283.52 348.00 284.00 C 349.25 284.48 350.60 285.25 351.75 286.12 C 352.90 287.00 354.06 288.29 354.88 289.25 C 355.69 290.21 355.98 290.38 356.62 291.88 C 357.27 293.38 358.25 296.10 358.75 298.25 C 359.25 300.40 359.79 301.38 359.62 304.75 C 359.46 308.12 358.73 313.31 357.75 318.50 C 356.77 323.69 355.08 330.81 353.75 335.88 C 352.42 340.94 351.23 344.67 349.75 348.88 C 348.27 353.08 346.42 357.54 344.88 361.12 C 343.33 364.71 342.85 366.04 340.50 370.38 C 338.15 374.71 333.88 382.50 330.75 387.12 C 327.62 391.75 323.06 395.94 321.75 398.12 C 320.44 400.31 322.02 399.12 322.88 400.25 C 323.73 401.38 325.25 403.27 326.88 404.88 C 328.50 406.48 331.08 408.71 332.62 409.88 C 334.17 411.04 334.23 411.04 336.12 411.88 C 338.02 412.71 341.69 414.25 344.00 414.88 C 346.31 415.50 348.71 415.56 350.00 415.62 C 351.29 415.69 351.29 415.44 351.75 415.25 C 352.21 415.06 352.08 415.42 352.75 414.50 C 353.42 413.58 354.08 412.67 355.75 409.75 C 357.42 406.83 360.58 401.29 362.75 397.00 C 364.92 392.71 366.92 388.33 368.75 384.00 C 370.58 379.67 372.10 375.69 373.75 371.00 C 375.40 366.31 376.88 362.42 378.62 355.88 C 380.38 349.33 381.85 341.21 384.25 331.75 C 386.65 322.29 391.19 305.50 393.00 299.12 C 394.81 292.75 394.35 294.96 395.12 293.50 C 395.90 292.04 397.02 291.67 397.62 290.38 C 398.23 289.08 398.71 287.06 398.75 285.75 C 398.79 284.44 398.60 283.77 397.88 282.50 C 397.15 281.23 395.69 279.48 394.38 278.12 C 393.06 276.77 391.56 275.56 390.00 274.38 C 388.44 273.19 387.33 272.35 385.00 271.00 C 382.67 269.65 379.17 267.75 376.00 266.25 C 372.83 264.75 368.46 262.96 366.00 262.00 C 363.54 261.04 362.71 260.83 361.25 260.50 C 359.79 260.17 358.60 260.06 357.25 260.00 C 355.90 259.94 354.60 259.96 353.12 260.12 C 351.65 260.29 349.92 260.56 348.38 261.00 C 346.83 261.44 347.60 261.62 343.88 262.75 C 340.15 263.88 332.56 266.08 326.00 267.75 C 319.44 269.42 313.42 270.92 304.50 272.75 C 295.58 274.58 278.79 277.67 272.50 278.75 C 266.21 279.83 268.15 279.27 266.75 279.25 C 265.35 279.23 264.75 278.94 264.12 278.62 C 263.50 278.31 263.27 277.85 263.00 277.38 C 262.73 276.90 262.48 276.71 262.50 275.75 C 262.52 274.79 262.21 274.04 263.12 271.62 C 264.04 269.21 265.69 265.81 268.00 261.25 C 270.31 256.69 273.90 249.65 277.00 244.25 C 280.10 238.85 284.90 232.00 286.62 228.88 C 288.35 225.75 287.35 226.77 287.38 225.50 C 287.40 224.23 287.23 222.58 286.75 221.25 C 286.27 219.92 285.60 218.69 284.50 217.50 C 283.40 216.31 282.00 215.25 280.12 214.12 C 278.25 213.00 274.54 211.48 273.25 210.75 C 271.96 210.02 272.73 209.98 272.38 209.75 C 272.02 209.52 271.44 209.56 271.12 209.38 C 270.81 209.19 270.77 208.75 270.50 208.62 C 270.23 208.50 270.10 208.96 269.50 208.62 C 268.90 208.29 267.56 206.98 266.88 206.62 C 266.19 206.27 265.77 206.65 265.38 206.50 C 264.98 206.35 265.00 205.92 264.50 205.75 C 264.00 205.58 263.02 205.69 262.38 205.50 C 261.73 205.31 261.23 204.77 260.62 204.62 C 260.02 204.48 259.10 204.44 258.75 204.62 C 258.40 204.81 258.71 205.77 258.50 205.75 C 258.29 205.73 258.83 204.67 257.50 204.50 C 256.17 204.33 252.00 204.56 250.50 204.75 C 249.00 204.94 249.15 205.21 248.50 205.62 Z" id="s-5-f-2"/>
<path d="M 247.75 206.12 C 246.94 206.81 246.00 207.50 245.62 208.88 C 245.25 210.25 245.42 213.35 245.50 214.38 C 245.58 215.40 246.08 214.83 246.12 215.00 C 246.17 215.17 245.31 214.75 245.75 215.38 C 246.19 216.00 248.08 217.85 248.75 218.75 C 249.42 219.65 249.42 219.75 249.75 220.75 C 250.08 221.75 250.58 222.79 250.75 224.75 C 250.92 226.71 250.96 230.02 250.75 232.50 C 250.54 234.98 250.50 236.42 249.50 239.62 C 248.50 242.83 246.85 247.27 244.75 251.75 C 242.65 256.23 238.73 263.21 236.88 266.50 C 235.02 269.79 235.19 269.38 233.62 271.50 C 232.06 273.62 229.65 276.79 227.50 279.25 C 225.35 281.71 222.69 284.06 220.75 286.25 C 218.81 288.44 217.00 290.58 215.88 292.38 C 214.75 294.17 214.31 295.31 214.00 297.00 C 213.69 298.69 213.83 301.04 214.00 302.50 C 214.17 303.96 214.44 304.50 215.00 305.75 C 215.56 307.00 216.02 308.23 217.38 310.00 C 218.73 311.77 221.40 314.77 223.12 316.38 C 224.85 317.98 226.19 319.06 227.75 319.62 C 229.31 320.19 229.58 321.19 232.50 319.75 C 235.42 318.31 241.21 313.46 245.25 311.00 C 249.29 308.54 252.48 307.00 256.75 305.00 C 261.02 303.00 265.52 301.00 270.88 299.00 C 276.23 297.00 279.46 295.52 288.88 293.00 C 298.29 290.48 318.94 285.56 327.38 283.88 C 335.81 282.19 336.06 282.85 339.50 282.88 C 342.94 282.90 345.85 283.38 348.00 284.00 C 350.15 284.62 350.94 285.31 352.38 286.62 C 353.81 287.94 355.56 289.94 356.62 291.88 C 357.69 293.81 358.25 295.90 358.75 298.25 C 359.25 300.60 360.12 301.02 359.62 306.00 C 359.12 310.98 357.23 321.50 355.75 328.12 C 354.27 334.75 352.21 341.21 350.75 345.75 C 349.29 350.29 347.67 353.46 347.00 355.38 C 346.33 357.29 346.52 356.67 346.75 357.25 C 346.98 357.83 347.25 358.10 348.38 358.88 C 349.50 359.65 351.65 361.04 353.50 361.88 C 355.35 362.71 357.44 363.35 359.50 363.88 C 361.56 364.40 363.27 364.85 365.88 365.00 C 368.48 365.15 373.31 365.27 375.12 364.75 C 376.94 364.23 376.17 363.35 376.75 361.88 C 377.33 360.40 377.38 360.90 378.62 355.88 C 379.88 350.85 381.85 341.21 384.25 331.75 C 386.65 322.29 391.19 305.50 393.00 299.12 C 394.81 292.75 394.35 294.96 395.12 293.50 C 395.90 292.04 397.02 291.52 397.62 290.38 C 398.23 289.23 398.71 287.94 398.75 286.62 C 398.79 285.31 398.38 283.71 397.88 282.50 C 397.38 281.29 397.06 280.73 395.75 279.38 C 394.44 278.02 392.67 276.25 390.00 274.38 C 387.33 272.50 384.21 270.35 379.75 268.12 C 375.29 265.90 367.00 262.35 363.25 261.00 C 359.50 259.65 358.94 260.15 357.25 260.00 C 355.56 259.85 354.60 259.96 353.12 260.12 C 351.65 260.29 349.92 260.56 348.38 261.00 C 346.83 261.44 347.60 261.62 343.88 262.75 C 340.15 263.88 332.56 266.08 326.00 267.75 C 319.44 269.42 314.00 270.83 304.50 272.75 C 295.00 274.67 275.65 278.23 269.00 279.25 C 262.35 280.27 265.58 279.12 264.62 278.88 C 263.67 278.62 263.60 278.27 263.25 277.75 C 262.90 277.23 262.52 276.77 262.50 275.75 C 262.48 274.73 262.21 274.04 263.12 271.62 C 264.04 269.21 265.69 265.81 268.00 261.25 C 270.31 256.69 273.90 249.65 277.00 244.25 C 280.10 238.85 284.90 232.00 286.62 228.88 C 288.35 225.75 287.35 226.77 287.38 225.50 C 287.40 224.23 287.23 222.58 286.75 221.25 C 286.27 219.92 285.60 218.69 284.50 217.50 C 283.40 216.31 282.00 215.25 280.12 214.12 C 278.25 213.00 274.54 211.48 273.25 210.75 C 271.96 210.02 272.73 209.98 272.38 209.75 C 272.02 209.52 271.44 209.56 271.12 209.38 C 270.81 209.19 270.77 208.75 270.50 208.62 C 270.23 208.50 270.10 208.96 269.50 208.62 C 268.90 208.29 267.56 206.98 266.88 206.62 C 266.19 206.27 265.77 206.65 265.38 206.50 C 264.98 206.35 265.00 205.92 264.50 205.75 C 264.00 205.58 263.02 205.69 262.38 205.50 C 261.73 205.31 261.23 204.77 260.62 204.62 C 260.02 204.48 259.10 204.44 258.75 204.62 C 258.40 204.81 258.71 205.77 258.50 205.75 C 258.29 205.73 258.83 204.67 257.50 204.50 C 256.17 204.33 252.12 204.48 250.50 204.75 C 248.88 205.02 248.56 205.44 247.75 206.12 Z" id="s-5-f-3"/>
<path d="M 213.88 300.88 C 213.88 301.79 213.65 301.33 214.00 302.50 C 214.35 303.67 214.90 305.98 216.00 307.88 C 217.10 309.77 219.44 312.46 220.62 313.88 C 221.81 315.29 221.94 315.42 223.12 316.38 C 224.31 317.33 226.19 319.06 227.75 319.62 C 229.31 320.19 229.58 321.19 232.50 319.75 C 235.42 318.31 240.10 313.96 245.25 311.00 C 250.40 308.04 258.65 304.17 263.38 302.00 C 268.10 299.83 269.38 299.50 273.62 298.00 C 277.88 296.50 283.02 294.67 288.88 293.00 C 294.73 291.33 304.15 289.06 308.75 288.00 C 313.35 286.94 313.40 287.31 316.50 286.62 C 319.60 285.94 323.54 284.50 327.38 283.88 C 331.21 283.25 336.69 282.98 339.50 282.88 C 342.31 282.77 342.73 283.02 344.25 283.25 C 345.77 283.48 347.38 283.77 348.62 284.25 C 349.88 284.73 350.71 285.29 351.75 286.12 C 352.79 286.96 353.88 287.83 354.88 289.25 C 355.88 290.67 357.10 293.12 357.75 294.62 C 358.40 296.12 358.44 296.31 358.75 298.25 C 359.06 300.19 359.40 304.81 359.62 306.25 C 359.85 307.69 359.92 306.77 360.12 306.88 C 360.33 306.98 360.04 307.21 360.88 306.88 C 361.71 306.54 363.44 305.90 365.12 304.88 C 366.81 303.85 369.04 302.52 371.00 300.75 C 372.96 298.98 375.40 296.15 376.88 294.25 C 378.35 292.35 378.90 291.46 379.88 289.38 C 380.85 287.29 382.08 284.77 382.75 281.75 C 383.42 278.73 383.83 273.21 383.88 271.25 C 383.92 269.29 383.69 270.52 383.00 270.00 C 382.31 269.48 382.58 269.46 379.75 268.12 C 376.92 266.79 369.19 263.29 366.00 262.00 C 362.81 260.71 362.54 260.71 360.62 260.38 C 358.71 260.04 356.54 259.90 354.50 260.00 C 352.46 260.10 350.15 260.54 348.38 261.00 C 346.60 261.46 347.60 261.62 343.88 262.75 C 340.15 263.88 332.56 266.08 326.00 267.75 C 319.44 269.42 314.00 270.83 304.50 272.75 C 295.00 274.67 275.65 278.23 269.00 279.25 C 262.35 280.27 265.58 279.12 264.62 278.88 C 263.67 278.62 263.60 278.27 263.25 277.75 C 262.90 277.23 262.52 276.77 262.50 275.75 C 262.48 274.73 262.21 274.04 263.12 271.62 C 264.04 269.21 265.69 265.81 268.00 261.25 C 270.31 256.69 274.02 249.40 277.00 244.25 C 279.98 239.10 284.25 233.00 285.88 230.38 C 287.50 227.75 286.50 229.52 286.75 228.50 C 287.00 227.48 287.40 225.52 287.38 224.25 C 287.35 222.98 287.12 222.02 286.62 220.88 C 286.12 219.73 285.46 218.50 284.38 217.38 C 283.29 216.25 281.98 215.23 280.12 214.12 C 278.27 213.02 274.81 211.65 273.25 210.75 C 271.69 209.85 271.38 209.10 270.75 208.75 C 270.12 208.40 270.06 208.94 269.50 208.62 C 268.94 208.31 268.85 207.54 267.38 206.88 C 265.90 206.21 262.06 205.00 260.62 204.62 C 259.19 204.25 259.10 204.44 258.75 204.62 C 258.40 204.81 258.71 205.77 258.50 205.75 C 258.29 205.73 258.83 204.67 257.50 204.50 C 256.17 204.33 252.12 204.48 250.50 204.75 C 248.88 205.02 248.52 205.54 247.75 206.12 C 246.98 206.71 246.25 207.67 245.88 208.25 C 245.50 208.83 245.56 208.60 245.50 209.62 C 245.44 210.65 245.40 213.48 245.50 214.38 C 245.60 215.27 246.08 214.83 246.12 215.00 C 246.17 215.17 245.31 214.75 245.75 215.38 C 246.19 216.00 248.08 217.85 248.75 218.75 C 249.42 219.65 249.40 219.46 249.75 220.75 C 250.10 222.04 250.73 224.35 250.88 226.50 C 251.02 228.65 250.85 231.44 250.62 233.62 C 250.40 235.81 249.96 237.83 249.50 239.62 C 249.04 241.42 249.50 240.69 247.88 244.38 C 246.25 248.06 242.12 257.23 239.75 261.75 C 237.38 266.27 235.67 268.58 233.62 271.50 C 231.58 274.42 229.65 276.79 227.50 279.25 C 225.35 281.71 222.69 284.06 220.75 286.25 C 218.81 288.44 217.00 290.58 215.88 292.38 C 214.75 294.17 214.33 295.58 214.00 297.00 C 213.67 298.42 213.88 299.96 213.88 300.88 Z" id="s-5-f-4"/>
<path d="M 264.50 205.75 C 264.00 205.58 263.02 205.69 262.38 205.50 C 261.73 205.31 261.23 204.77 260.62 204.62 C 260.02 204.48 259.10 204.44 258.75 204.62 C 258.40 204.81 258.71 205.77 258.50 205.75 C 258.29 205.73 258.83 204.67 257.50 204.50 C 256.17 204.33 252.12 204.48 250.50 204.75 C 248.88 205.02 248.52 205.54 247.75 206.12 C 246.98 206.71 246.25 206.88 245.88 208.25 C 245.50 209.62 245.46 213.25 245.50 214.38 C 245.54 215.50 246.08 214.83 246.12 215.00 C 246.17 215.17 245.31 214.75 245.75 215.38 C 246.19 216.00 248.08 217.85 248.75 218.75 C 249.42 219.65 249.40 219.46 249.75 220.75 C 250.10 222.04 250.73 224.35 250.88 226.50 C 251.02 228.65 250.85 231.44 250.62 233.62 C 250.40 235.81 249.96 237.83 249.50 239.62 C 249.04 241.42 249.21 241.25 247.88 244.38 C 246.54 247.50 243.52 254.40 241.50 258.38 C 239.48 262.35 238.08 264.77 235.75 268.25 C 233.42 271.73 230.62 275.52 227.50 279.25 C 224.38 282.98 219.23 287.75 217.00 290.62 C 214.77 293.50 214.62 294.52 214.12 296.50 C 213.62 298.48 213.69 300.60 214.00 302.50 C 214.31 304.40 215.12 306.25 216.00 307.88 C 216.88 309.50 218.06 310.83 219.25 312.25 C 220.44 313.67 221.58 315.10 223.12 316.38 C 224.67 317.65 226.88 319.33 228.50 319.88 C 230.12 320.42 230.08 321.10 232.88 319.62 C 235.67 318.15 241.27 313.44 245.25 311.00 C 249.23 308.56 253.40 306.65 256.75 305.00 C 260.10 303.35 260.02 303.12 265.38 301.12 C 270.73 299.12 280.56 295.40 288.88 293.00 C 297.19 290.60 310.75 287.94 315.25 286.75 C 319.75 285.56 315.77 286.48 315.88 285.88 C 315.98 285.27 316.04 284.50 315.88 283.12 C 315.71 281.75 315.35 279.44 314.88 277.62 C 314.40 275.81 313.52 273.33 313.00 272.25 C 312.48 271.17 316.69 270.35 311.75 271.12 C 306.81 271.90 290.50 275.52 283.38 276.88 C 276.25 278.23 272.12 278.92 269.00 279.25 C 265.88 279.58 265.62 279.19 264.62 278.88 C 263.62 278.56 263.35 277.90 263.00 277.38 C 262.65 276.85 262.52 276.58 262.50 275.75 C 262.48 274.92 262.46 273.79 262.88 272.38 C 263.29 270.96 262.65 271.94 265.00 267.25 C 267.35 262.56 273.52 250.40 277.00 244.25 C 280.48 238.10 284.15 233.50 285.88 230.38 C 287.60 227.25 287.25 227.08 287.38 225.50 C 287.50 223.92 287.12 222.23 286.62 220.88 C 286.12 219.52 285.77 218.69 284.38 217.38 C 282.98 216.06 280.10 214.10 278.25 213.00 C 276.40 211.90 274.23 211.29 273.25 210.75 C 272.27 210.21 272.73 209.98 272.38 209.75 C 272.02 209.52 271.44 209.56 271.12 209.38 C 270.81 209.19 270.77 208.75 270.50 208.62 C 270.23 208.50 270.02 208.92 269.50 208.62 C 268.98 208.33 268.06 207.23 267.38 206.88 C 266.69 206.52 265.85 206.69 265.38 206.50 C 264.90 206.31 265.00 205.92 264.50 205.75 Z" id="s-5-f-5"/>
<path d="M 260.62 204.62 C 260.02 204.48 259.10 204.44 258.75 204.62 C 258.40 204.81 258.71 205.77 258.50 205.75 C 258.29 205.73 258.83 204.67 257.50 204.50 C 256.17 204.33 252.12 204.48 250.50 204.75 C 248.88 205.02 248.52 205.54 247.75 206.12 C 246.98 206.71 246.25 206.88 245.88 208.25 C 245.50 209.62 245.46 213.25 245.50 214.38 C 245.54 215.50 246.08 214.83 246.12 215.00 C 246.17 215.17 245.31 214.75 245.75 215.38 C 246.19 216.00 248.08 217.85 248.75 218.75 C 249.42 219.65 249.40 219.46 249.75 220.75 C 250.10 222.04 250.73 224.35 250.88 226.50 C 251.02 228.65 250.85 231.44 250.62 233.62 C 250.40 235.81 249.96 237.83 249.50 239.62 C 249.04 241.42 249.50 240.69 247.88 244.38 C 246.25 248.06 242.12 257.23 239.75 261.75 C 237.38 266.27 235.67 268.58 233.62 271.50 C 231.58 274.42 230.08 276.29 227.50 279.25 C 224.92 282.21 220.06 287.04 218.12 289.25 C 216.19 291.46 216.25 291.52 215.88 292.50 C 215.50 293.48 215.33 293.90 215.88 295.12 C 216.42 296.35 217.81 298.25 219.12 299.88 C 220.44 301.50 221.83 303.19 223.75 304.88 C 225.67 306.56 228.23 308.67 230.62 310.00 C 233.02 311.33 236.21 312.35 238.12 312.88 C 240.04 313.40 240.33 313.77 242.12 313.12 C 243.92 312.48 245.69 310.71 248.88 309.00 C 252.06 307.29 256.06 305.08 261.25 302.88 C 266.44 300.67 276.58 297.38 280.00 295.75 C 283.42 294.12 281.15 294.33 281.75 293.12 C 282.35 291.92 283.06 290.40 283.62 288.50 C 284.19 286.60 284.52 283.71 285.12 281.75 C 285.73 279.79 286.94 277.67 287.25 276.75 C 287.56 275.83 287.19 276.35 287.00 276.25 C 286.81 276.15 289.12 275.62 286.12 276.12 C 283.12 276.62 272.62 278.81 269.00 279.25 C 265.38 279.69 265.42 279.17 264.38 278.75 C 263.33 278.33 263.00 277.81 262.75 276.75 C 262.50 275.69 262.50 273.96 262.88 272.38 C 263.25 270.79 262.65 271.94 265.00 267.25 C 267.35 262.56 273.52 250.40 277.00 244.25 C 280.48 238.10 284.25 233.00 285.88 230.38 C 287.50 227.75 286.50 229.52 286.75 228.50 C 287.00 227.48 287.52 225.77 287.38 224.25 C 287.23 222.73 286.38 220.52 285.88 219.38 C 285.38 218.23 285.33 218.25 284.38 217.38 C 283.42 216.50 281.98 215.23 280.12 214.12 C 278.27 213.02 274.54 211.48 273.25 210.75 C 271.96 210.02 272.73 209.98 272.38 209.75 C 272.02 209.52 271.44 209.56 271.12 209.38 C 270.81 209.19 270.77 208.75 270.50 208.62 C 270.23 208.50 270.10 208.96 269.50 208.62 C 268.90 208.29 267.56 206.98 266.88 206.62 C 266.19 206.27 265.77 206.65 265.38 206.50 C 264.98 206.35 265.00 205.92 264.50 205.75 C 264.00 205.58 263.02 205.69 262.38 205.50 C 261.73 205.31 261.23 204.77 260.62 204.62 Z" id="s-5-f-6"/>
<path d="M 250.50 204.75 C 248.88 205.02 248.52 205.54 247.75 206.12 C 246.98 206.71 246.25 207.67 245.88 208.25 C 245.50 208.83 245.56 208.60 245.50 209.62 C 245.44 210.65 245.40 213.48 245.50 214.38 C 245.60 215.27 246.08 214.83 246.12 215.00 C 246.17 215.17 245.31 214.75 245.75 215.38 C 246.19 216.00 248.08 217.85 248.75 218.75 C 249.42 219.65 249.42 219.75 249.75 220.75 C 250.08 221.75 250.58 222.79 250.75 224.75 C 250.92 226.71 250.92 230.19 250.75 232.50 C 250.58 234.81 250.60 235.73 249.75 238.62 C 248.90 241.52 247.29 246.02 245.62 249.88 C 243.96 253.73 240.85 259.65 239.75 261.75 C 238.65 263.85 239.23 262.00 239.00 262.50 C 238.77 263.00 237.60 263.65 238.38 264.75 C 239.15 265.85 241.58 267.79 243.62 269.12 C 245.67 270.46 247.67 271.81 250.62 272.75 C 253.58 273.69 259.40 274.50 261.38 274.75 C 263.35 275.00 262.06 275.15 262.50 274.25 C 262.94 273.35 261.58 274.38 264.00 269.38 C 266.42 264.38 273.35 250.75 277.00 244.25 C 280.65 237.75 284.25 233.00 285.88 230.38 C 287.50 227.75 286.50 229.52 286.75 228.50 C 287.00 227.48 287.40 225.52 287.38 224.25 C 287.35 222.98 287.12 222.02 286.62 220.88 C 286.12 219.73 285.46 218.50 284.38 217.38 C 283.29 216.25 281.98 215.23 280.12 214.12 C 278.27 213.02 274.81 211.65 273.25 210.75 C 271.69 209.85 271.38 209.10 270.75 208.75 C 270.12 208.40 270.06 208.94 269.50 208.62 C 268.94 208.31 268.85 207.54 267.38 206.88 C 265.90 206.21 262.06 205.00 260.62 204.62 C 259.19 204.25 259.10 204.44 258.75 204.62 C 258.40 204.81 258.71 205.77 258.50 205.75 C 258.29 205.73 258.83 204.67 257.50 204.50 C 256.17 204.33 252.12 204.48 250.50 204.75 Z" id="s-5-f-7"/>
<path d="M 260.62 204.62 C 259.19 204.25 259.10 204.44 258.75 204.62 C 258.40 204.81 258.71 205.77 258.50 205.75 C 258.29 205.73 258.83 204.67 257.50 204.50 C 256.17 204.33 252.12 204.48 250.50 204.75 C 248.88 205.02 248.56 205.44 247.75 206.12 C 246.94 206.81 246.00 207.50 245.62 208.88 C 245.25 210.25 245.42 213.35 245.50 214.38 C 245.58 215.40 246.08 214.83 246.12 215.00 C 246.17 215.17 245.31 214.75 245.75 215.38 C 246.19 216.00 248.06 217.79 248.75 218.75 C 249.44 219.71 249.54 220.12 249.88 221.12 C 250.21 222.12 250.58 223.17 250.75 224.75 C 250.92 226.33 251.08 228.15 250.88 230.62 C 250.67 233.10 250.17 236.92 249.50 239.62 C 248.83 242.33 247.88 244.46 246.88 246.88 C 245.88 249.29 244.04 252.77 243.50 254.12 C 242.96 255.48 243.35 254.71 243.62 255.00 C 243.90 255.29 244.12 255.56 245.12 255.88 C 246.12 256.19 247.06 256.71 249.62 256.88 C 252.19 257.04 257.31 257.23 260.50 256.88 C 263.69 256.52 266.75 255.44 268.75 254.75 C 270.75 254.06 270.79 255.08 272.50 252.75 C 274.21 250.42 276.62 244.79 279.00 240.75 C 281.38 236.71 285.35 231.04 286.75 228.50 C 288.15 225.96 287.38 226.71 287.38 225.50 C 287.38 224.29 287.25 222.60 286.75 221.25 C 286.25 219.90 285.48 218.56 284.38 217.38 C 283.27 216.19 281.98 215.23 280.12 214.12 C 278.27 213.02 274.81 211.65 273.25 210.75 C 271.69 209.85 271.38 209.10 270.75 208.75 C 270.12 208.40 270.06 208.94 269.50 208.62 C 268.94 208.31 268.85 207.54 267.38 206.88 C 265.90 206.21 262.06 205.00 260.62 204.62 Z" id="s-5-f-8"/>
<path d="M 284.50 217.50 C 283.21 216.35 280.12 214.12 278.25 213.00 C 276.38 211.88 274.23 211.29 273.25 210.75 C 272.27 210.21 272.73 209.98 272.38 209.75 C 272.02 209.52 271.44 209.56 271.12 209.38 C 270.81 209.19 270.77 208.75 270.50 208.62 C 270.23 208.50 270.02 208.92 269.50 208.62 C 268.98 208.33 268.06 207.23 267.38 206.88 C 266.69 206.52 265.85 206.69 265.38 206.50 C 264.90 206.31 265.00 205.92 264.50 205.75 C 264.00 205.58 263.02 205.69 262.38 205.50 C 261.73 205.31 261.23 204.77 260.62 204.62 C 260.02 204.48 259.10 204.44 258.75 204.62 C 258.40 204.81 258.65 205.75 258.50 205.75 C 258.35 205.75 259.21 204.79 257.88 204.62 C 256.54 204.46 252.19 204.50 250.50 204.75 C 248.81 205.00 248.56 205.44 247.75 206.12 C 246.94 206.81 246.00 207.50 245.62 208.88 C 245.25 210.25 245.42 213.35 245.50 214.38 C 245.58 215.40 246.08 214.83 246.12 215.00 C 246.17 215.17 245.31 214.75 245.75 215.38 C 246.19 216.00 248.08 217.85 248.75 218.75 C 249.42 219.65 249.42 219.69 249.75 220.75 C 250.08 221.81 250.58 223.17 250.75 225.12 C 250.92 227.08 250.96 230.10 250.75 232.50 C 250.54 234.90 250.15 237.10 249.50 239.50 C 248.85 241.90 247.62 245.02 246.88 246.88 C 246.12 248.73 245.33 249.69 245.00 250.62 C 244.67 251.56 244.58 252.10 244.88 252.50 C 245.17 252.90 245.02 252.94 246.75 253.00 C 248.48 253.06 252.52 253.23 255.25 252.88 C 257.98 252.52 260.79 251.73 263.12 250.88 C 265.46 250.02 267.27 249.02 269.25 247.75 C 271.23 246.48 273.42 244.65 275.00 243.25 C 276.58 241.85 277.29 241.38 278.75 239.38 C 280.21 237.38 282.56 233.58 283.75 231.25 C 284.94 228.92 285.50 227.27 285.88 225.38 C 286.25 223.48 286.23 221.19 286.00 219.88 C 285.77 218.56 285.79 218.65 284.50 217.50 Z" id="s-5-f-9"/>
</g>
</svg>