<?xml version="1.0" encoding="UTF-8"?>
<svg xmlns="http://www.w3.org/2000/svg" viewBox="0 0 500 500">
<defs>
<path d="M 127.38 63.12 C 125.12 61.56 122.79 60.71 121.00 60.00 C 119.21 59.29 118.04 59.00 116.62 58.88 C 115.21 58.75 113.77 58.67 112.50 59.25 C 111.23 59.83 109.75 61.35 109.00 62.38 C 108.25 63.40 108.23 63.17 108.00 65.38 C 107.77 67.58 108.00 72.00 107.62 75.62 C 107.25 79.25 107.10 82.38 105.75 87.12 C 104.40 91.88 101.50 99.12 99.50 104.12 C 97.50 109.12 96.71 111.25 93.75 117.12 C 90.79 123.00 85.40 133.00 81.75 139.38 C 78.10 145.75 75.69 149.71 71.88 155.38 C 68.06 161.04 61.94 169.29 58.88 173.38 C 55.81 177.46 55.75 177.35 53.50 179.88 C 51.25 182.40 46.81 186.75 45.38 188.50 C 43.94 190.25 44.79 189.83 44.88 190.38 C 44.96 190.92 45.04 191.54 45.88 191.75 C 46.71 191.96 47.81 192.27 49.88 191.62 C 51.94 190.98 55.54 189.35 58.25 187.88 C 60.96 186.40 61.69 186.10 66.12 182.75 C 70.56 179.40 80.42 171.56 84.88 167.75 C 89.33 163.94 89.77 163.23 92.88 159.88 C 95.98 156.52 100.19 151.75 103.50 147.62 C 106.81 143.50 109.81 139.31 112.75 135.12 C 115.69 130.94 117.62 128.15 121.12 122.50 C 124.62 116.85 130.94 106.25 133.75 101.25 C 136.56 96.25 136.83 94.65 138.00 92.50 C 139.17 90.35 139.96 89.85 140.75 88.38 C 141.54 86.90 142.42 85.02 142.75 83.62 C 143.08 82.23 143.06 81.19 142.75 80.00 C 142.44 78.81 142.25 78.27 140.88 76.50 C 139.50 74.73 136.75 71.60 134.50 69.38 C 132.25 67.15 129.62 64.69 127.38 63.12 Z" id="s-0-f-0"/>
<clipPath id="c-s-0"><use href="#s-0-f-0"/></clipPath>
<path d="M 205.50 110.12 C 204.62 109.21 204.00 108.52 202.50 107.50 C 201.00 106.48 199.60 105.42 196.50 104.00 C 193.40 102.58 186.52 99.98 183.88 99.00 C 181.23 98.02 181.73 98.31 180.62 98.12 C 179.52 97.94 178.90 97.56 177.25 97.88 C 175.60 98.19 175.08 97.90 170.75 100.00 C 166.42 102.10 156.06 108.06 151.25 110.50 C 146.44 112.94 144.92 113.42 141.88 114.62 C 138.83 115.83 136.46 116.75 133.00 117.75 C 129.54 118.75 124.58 117.85 121.12 120.62 C 117.67 123.40 113.85 132.00 112.25 134.38 C 110.65 136.75 111.58 134.62 111.50 134.88 C 111.42 135.12 110.85 135.54 111.75 135.88 C 112.65 136.21 114.04 136.73 116.88 136.88 C 119.71 137.02 125.00 137.29 128.75 136.75 C 132.50 136.21 135.67 134.92 139.38 133.62 C 143.08 132.33 148.79 129.73 151.00 129.00 C 153.21 128.27 152.15 129.04 152.62 129.25 C 153.10 129.46 153.52 129.83 153.88 130.25 C 154.23 130.67 154.60 131.31 154.75 131.75 C 154.90 132.19 156.08 130.44 154.75 132.88 C 153.42 135.31 149.62 141.75 146.75 146.38 C 143.88 151.00 141.52 154.60 137.50 160.62 C 133.48 166.65 126.88 176.44 122.62 182.50 C 118.38 188.56 113.88 194.31 112.00 197.00 C 110.12 199.69 111.25 198.31 111.38 198.62 C 111.50 198.94 109.50 199.48 112.75 198.88 C 116.00 198.27 125.04 198.29 130.88 195.00 C 136.71 191.71 142.40 184.60 147.75 179.12 C 153.10 173.65 158.38 167.08 163.00 162.12 C 167.62 157.17 170.94 153.85 175.50 149.38 C 180.06 144.90 186.69 138.60 190.38 135.25 C 194.06 131.90 195.35 130.94 197.62 129.25 C 199.90 127.56 202.31 126.44 204.00 125.12 C 205.69 123.81 206.94 122.44 207.75 121.38 C 208.56 120.31 208.71 119.73 208.88 118.75 C 209.04 117.77 208.94 116.46 208.75 115.50 C 208.56 114.54 208.29 113.90 207.75 113.00 C 207.21 112.10 206.38 111.04 205.50 110.12 Z" id="s-1-f-0"/>
<clipPath id="c-s-1"><use href="#s-1-f-0"/></clipPath>
<path d="M 42.38 200.00 C 40.10 200.23 40.44 200.98 39.88 201.50 C 39.31 202.02 39.17 202.54 39.00 203.12 C 38.83 203.71 38.81 204.52 38.88 205.00 C 38.94 205.48 38.60 205.21 39.38 206.00 C 40.15 206.79 42.27 208.35 43.50 209.75 C 44.73 211.15 45.73 212.71 46.75 214.38 C 47.77 216.04 48.62 217.50 49.62 219.75 C 50.62 222.00 51.73 224.40 52.75 227.88 C 53.77 231.35 54.90 236.21 55.75 240.62 C 56.60 245.04 57.15 248.56 57.88 254.38 C 58.60 260.19 58.96 266.40 60.12 275.50 C 61.29 284.60 64.06 302.79 64.88 309.00 C 65.69 315.21 64.81 311.40 65.00 312.75 C 65.19 314.10 65.33 315.29 66.00 317.12 C 66.67 318.96 67.92 321.88 69.00 323.75 C 70.08 325.62 71.58 327.38 72.50 328.38 C 73.42 329.38 73.69 329.52 74.50 329.75 C 75.31 329.98 76.58 329.92 77.38 329.75 C 78.17 329.58 78.60 329.23 79.25 328.75 C 79.90 328.27 80.71 327.52 81.25 326.88 C 81.79 326.23 82.17 325.62 82.50 324.88 C 82.83 324.12 83.00 323.94 83.25 322.38 C 83.50 320.81 83.88 318.62 84.00 315.50 C 84.12 312.38 84.50 311.73 84.00 303.62 C 83.50 295.52 81.52 274.06 81.00 266.88 C 80.48 259.69 81.42 266.33 80.88 260.50 C 80.33 254.67 78.40 237.15 77.75 231.88 C 77.10 226.60 77.31 231.69 77.00 228.88 C 76.69 226.06 77.96 219.17 75.88 215.00 C 73.79 210.83 66.92 206.04 64.50 203.88 C 62.08 201.71 63.21 202.62 61.38 202.00 C 59.54 201.38 56.67 200.46 53.50 200.12 C 50.33 199.79 44.65 199.77 42.38 200.00 Z" id="s-2-f-0"/>
<clipPath id="c-s-2"><use href="#s-2-f-0"/></clipPath>
<path d="M 62.75 203.38 C 62.52 203.58 62.29 203.50 62.88 204.00 C 63.46 204.50 64.17 204.50 66.25 206.38 C 68.33 208.25 69.81 214.04 75.38 215.25 C 80.94 216.46 93.02 214.33 99.62 213.62 C 106.23 212.92 108.90 211.79 115.00 211.00 C 121.10 210.21 127.65 210.04 136.25 208.88 C 144.85 207.71 159.50 204.98 166.62 204.00 C 173.75 203.02 176.54 202.96 179.00 203.00 C 181.46 203.04 180.73 203.67 181.38 204.25 C 182.02 204.83 182.48 205.44 182.88 206.50 C 183.27 207.56 183.60 208.38 183.75 210.62 C 183.90 212.88 184.06 214.83 183.75 220.00 C 183.44 225.17 182.88 233.69 181.88 241.62 C 180.88 249.56 178.94 260.85 177.75 267.62 C 176.56 274.40 175.88 277.58 174.75 282.25 C 173.62 286.92 172.00 291.06 171.00 295.62 C 170.00 300.19 168.73 306.38 168.75 309.62 C 168.77 312.88 170.44 313.81 171.12 315.12 C 171.81 316.44 172.17 316.73 172.88 317.50 C 173.58 318.27 174.56 319.21 175.38 319.75 C 176.19 320.29 176.77 320.56 177.75 320.75 C 178.73 320.94 180.17 320.94 181.25 320.88 C 182.33 320.81 183.25 320.71 184.25 320.38 C 185.25 320.04 186.25 319.60 187.25 318.88 C 188.25 318.15 189.33 317.12 190.25 316.00 C 191.17 314.88 192.00 313.75 192.75 312.12 C 193.50 310.50 191.23 320.19 194.75 306.25 C 198.27 292.31 210.17 242.85 213.88 228.50 C 217.58 214.15 215.69 222.83 217.00 220.12 C 218.31 217.42 220.79 214.02 221.75 212.25 C 222.71 210.48 222.58 210.69 222.75 209.50 C 222.92 208.31 222.94 206.25 222.75 205.12 C 222.56 204.00 222.21 203.62 221.62 202.75 C 221.04 201.88 220.31 200.96 219.25 199.88 C 218.19 198.79 216.94 197.58 215.25 196.25 C 213.56 194.92 211.65 193.40 209.12 191.88 C 206.60 190.35 203.60 188.75 200.12 187.12 C 196.65 185.50 190.83 183.00 188.25 182.12 C 185.67 181.25 185.79 181.88 184.62 181.88 C 183.46 181.88 183.31 181.77 181.25 182.12 C 179.19 182.48 175.23 183.23 172.25 184.00 C 169.27 184.77 170.12 185.00 163.38 186.75 C 156.62 188.50 137.58 193.19 131.75 194.50 C 125.92 195.81 130.96 194.15 128.38 194.62 C 125.79 195.10 118.79 196.88 116.25 197.38 C 113.71 197.88 114.10 197.38 113.12 197.62 C 112.15 197.88 115.50 198.19 110.38 198.88 C 105.25 199.56 90.06 201.10 82.38 201.75 C 74.69 202.40 67.52 202.48 64.25 202.75 C 60.98 203.02 62.98 203.17 62.75 203.38 Z" id="s-3-f-0"/>
<clipPath id="c-s-3"><use href="#s-3-f-0"/></clipPath>
<path d="M 182.25 242.25 C 182.15 240.25 182.67 241.52 180.38 241.00 C 178.08 240.48 171.69 239.48 168.50 239.12 C 165.31 238.77 163.77 238.62 161.25 238.88 C 158.73 239.12 157.23 239.96 153.38 240.62 C 149.52 241.29 144.10 241.67 138.12 242.88 C 132.15 244.08 126.92 246.33 117.50 247.88 C 108.08 249.42 87.96 251.23 81.62 252.12 C 75.29 253.02 79.81 251.85 79.50 253.25 C 79.19 254.65 79.54 258.56 79.75 260.50 C 79.96 262.44 79.79 264.00 80.75 264.88 C 81.71 265.75 81.83 265.62 85.50 265.75 C 89.17 265.88 96.92 265.94 102.75 265.62 C 108.58 265.31 114.42 264.67 120.50 263.88 C 126.58 263.08 133.65 261.58 139.25 260.88 C 144.85 260.17 147.38 260.46 154.12 259.62 C 160.88 258.79 175.27 256.98 179.75 255.88 C 184.23 254.77 180.58 255.27 181.00 253.00 C 181.42 250.73 182.35 244.25 182.25 242.25 Z" id="s-4-f-0"/>
<clipPath id="c-s-4"><use href="#s-4-f-0"/></clipPath>
<path d="M 141.38 207.75 C 140.33 207.62 136.85 207.52 135.62 207.62 C 134.40 207.73 135.40 208.21 134.00 208.38 C 132.60 208.54 128.90 208.44 127.25 208.62 C 125.60 208.81 125.67 209.33 124.12 209.50 C 122.58 209.67 119.38 209.35 118.00 209.62 C 116.62 209.90 115.90 204.94 115.88 211.12 C 115.85 217.31 117.60 240.42 117.88 246.75 C 118.15 253.08 117.52 244.58 117.50 249.12 C 117.48 253.67 118.00 266.38 117.75 274.00 C 117.50 281.62 116.29 290.79 116.00 294.88 C 115.71 298.96 115.92 297.81 116.00 298.50 C 116.08 299.19 113.50 299.27 116.50 299.00 C 119.50 298.73 130.29 297.42 134.00 296.88 C 137.71 296.33 137.94 301.69 138.75 295.75 C 139.56 289.81 138.77 267.15 138.88 261.25 C 138.98 255.35 139.17 261.58 139.38 260.38 C 139.58 259.17 140.02 257.31 140.12 254.00 C 140.23 250.69 139.71 248.10 140.00 240.50 C 140.29 232.90 141.65 213.83 141.88 208.38 C 142.10 202.92 142.42 207.88 141.38 207.75 Z" id="s-5-f-0"/>
<clipPath id="c-s-5"><use href="#s-5-f-0"/></clipPath>
<path d="M 171.25 297.25 C 170.83 295.33 169.10 295.79 167.62 295.12 C 166.15 294.46 164.52 293.60 162.38 293.25 C 160.23 292.90 158.50 292.58 154.75 293.00 C 151.00 293.42 143.19 295.31 139.88 295.75 C 136.56 296.19 136.29 295.50 134.88 295.62 C 133.46 295.75 132.79 296.31 131.38 296.50 C 129.96 296.69 127.48 296.60 126.38 296.75 C 125.27 296.90 126.04 297.21 124.75 297.38 C 123.46 297.54 120.19 297.50 118.62 297.75 C 117.06 298.00 121.04 298.04 115.38 298.88 C 109.71 299.71 89.94 302.02 84.62 302.75 C 79.31 303.48 83.69 301.12 83.50 303.25 C 83.31 305.38 82.98 313.25 83.50 315.50 C 84.02 317.75 84.23 316.54 86.62 316.75 C 89.02 316.96 94.00 316.92 97.88 316.75 C 101.75 316.58 101.56 316.71 109.88 315.75 C 118.19 314.79 137.94 311.98 147.75 311.00 C 157.56 310.02 165.15 310.12 168.75 309.88 C 172.35 309.62 169.15 310.04 169.38 309.50 C 169.60 308.96 169.81 308.67 170.12 306.62 C 170.44 304.58 171.67 299.17 171.25 297.25 Z" id="s-6-f-0"/>
<clipPath id="c-s-6"><use href="#s-6-f-0"/></clipPath>
<path d="M 59.25 337.88 C 58.75 337.69 58.52 337.62 58.00 338.00 C 57.48 338.38 56.67 338.77 56.12 340.12 C 55.58 341.48 55.50 343.83 54.75 346.12 C 54.00 348.42 53.98 349.00 51.62 353.88 C 49.27 358.75 43.73 369.62 40.62 375.38 C 37.52 381.12 34.58 385.35 33.00 388.38 C 31.42 391.40 31.62 391.52 31.12 393.50 C 30.62 395.48 30.19 397.48 30.00 400.25 C 29.81 403.02 29.83 407.46 30.00 410.12 C 30.17 412.79 30.67 414.71 31.00 416.25 C 31.33 417.79 31.54 418.48 32.00 419.38 C 32.46 420.27 33.06 420.88 33.75 421.62 C 34.44 422.38 35.17 423.21 36.12 423.88 C 37.08 424.54 37.98 425.31 39.50 425.62 C 41.02 425.94 43.85 425.92 45.25 425.75 C 46.65 425.58 46.98 425.17 47.88 424.62 C 48.77 424.08 49.31 423.92 50.62 422.50 C 51.94 421.08 54.06 418.71 55.75 416.12 C 57.44 413.54 58.92 411.19 60.75 407.00 C 62.58 402.81 65.25 395.58 66.75 391.00 C 68.25 386.42 69.08 382.50 69.75 379.50 C 70.42 376.50 70.60 376.10 70.75 373.00 C 70.90 369.90 71.29 364.85 70.62 360.88 C 69.96 356.90 68.08 352.40 66.75 349.12 C 65.42 345.85 63.58 342.92 62.62 341.25 C 61.67 339.58 61.56 339.69 61.00 339.12 C 60.44 338.56 59.75 338.06 59.25 337.88 Z" id="s-7-f-0"/>
<clipPath id="c-s-7"><use href="#s-7-f-0"/></clipPath>
<path d="M 87.62 346.12 C 86.44 346.35 86.25 346.88 86.00 347.50 C 85.75 348.12 85.71 348.69 86.12 349.88 C 86.54 351.06 87.35 351.65 88.50 354.62 C 89.65 357.60 91.42 363.50 93.00 367.75 C 94.58 372.00 95.67 375.12 98.00 380.12 C 100.33 385.12 105.27 394.52 107.00 397.75 C 108.73 400.98 107.79 399.00 108.38 399.50 C 108.96 400.00 109.48 400.54 110.50 400.75 C 111.52 400.96 113.40 400.92 114.50 400.75 C 115.60 400.58 116.10 400.50 117.12 399.75 C 118.15 399.00 119.85 397.19 120.62 396.25 C 121.40 395.31 121.40 395.25 121.75 394.12 C 122.10 393.00 122.60 392.38 122.75 389.50 C 122.90 386.62 122.81 380.00 122.62 376.88 C 122.44 373.75 122.29 373.08 121.62 370.75 C 120.96 368.42 119.83 364.96 118.62 362.88 C 117.42 360.79 115.81 359.58 114.38 358.25 C 112.94 356.92 111.79 356.08 110.00 354.88 C 108.21 353.67 106.44 352.46 103.62 351.00 C 100.81 349.54 95.79 346.94 93.12 346.12 C 90.46 345.31 88.81 345.90 87.62 346.12 Z" id="s-8-f-0"/>
<clipPath id="c-s-8"><use href="#s-8-f-0"/></clipPath>
<path d="M 133.75 340.00 C 132.77 340.19 132.98 340.60 132.88 341.25 C 132.77 341.90 132.81 342.98 133.12 343.88 C 133.44 344.77 132.60 341.88 134.75 346.62 C 136.90 351.38 142.96 365.94 146.00 372.38 C 149.04 378.81 151.29 382.38 153.00 385.25 C 154.71 388.12 155.02 388.38 156.25 389.62 C 157.48 390.88 159.02 392.23 160.38 392.75 C 161.73 393.27 163.29 392.92 164.38 392.75 C 165.46 392.58 166.15 392.17 166.88 391.75 C 167.60 391.33 168.12 390.96 168.75 390.25 C 169.38 389.54 170.12 388.69 170.62 387.50 C 171.12 386.31 171.58 385.75 171.75 383.12 C 171.92 380.50 171.81 374.56 171.62 371.75 C 171.44 368.94 171.10 368.06 170.62 366.25 C 170.15 364.44 169.42 362.44 168.75 360.88 C 168.08 359.31 167.21 357.83 166.62 356.88 C 166.04 355.92 166.31 356.10 165.25 355.12 C 164.19 354.15 162.75 352.67 160.25 351.00 C 157.75 349.33 153.83 346.94 150.25 345.12 C 146.67 343.31 141.50 340.98 138.75 340.12 C 136.00 339.27 134.73 339.81 133.75 340.00 Z" id="s-9-f-0"/>
<clipPath id="c-s-9"><use href="#s-9-f-0"/></clipPath>
<path d="M 178.75 334.00 C 177.96 334.10 178.15 334.31 178.00 334.75 C 177.85 335.19 177.71 335.77 177.88 336.62 C 178.04 337.48 177.69 337.79 179.00 339.88 C 180.31 341.96 183.96 346.52 185.75 349.12 C 187.54 351.73 186.38 349.46 189.75 355.50 C 193.12 361.54 202.46 379.29 206.00 385.38 C 209.54 391.46 209.31 390.12 211.00 392.00 C 212.69 393.88 214.75 395.83 216.12 396.62 C 217.50 397.42 218.33 396.90 219.25 396.75 C 220.17 396.60 220.69 396.40 221.62 395.75 C 222.56 395.10 224.00 393.81 224.88 392.88 C 225.75 391.94 226.23 391.23 226.88 390.12 C 227.52 389.02 228.10 388.15 228.75 386.25 C 229.40 384.35 230.44 381.40 230.75 378.75 C 231.06 376.10 230.94 372.75 230.62 370.38 C 230.31 368.00 229.52 366.17 228.88 364.50 C 228.23 362.83 227.73 361.81 226.75 360.38 C 225.77 358.94 224.35 357.25 223.00 355.88 C 221.65 354.50 221.44 354.10 218.62 352.12 C 215.81 350.15 209.83 346.17 206.12 344.00 C 202.42 341.83 199.27 340.46 196.38 339.12 C 193.48 337.79 191.02 336.83 188.75 336.00 C 186.48 335.17 184.42 334.46 182.75 334.12 C 181.08 333.79 179.54 333.90 178.75 334.00 Z" id="s-10-f-0"/>
<clipPath id="c-s-10"><use href="#s-10-f-0"/></clipPath>
<path d="M 311.50 53.00 C 309.65 52.19 308.02 51.46 306.25 51.12 C 304.48 50.79 302.17 50.75 300.88 51.00 C 299.58 51.25 299.10 52.00 298.50 52.62 C 297.90 53.25 297.71 50.71 297.25 54.75 C 296.79 58.79 296.67 69.50 295.75 76.88 C 294.83 84.25 294.25 89.25 291.75 99.00 C 289.25 108.75 283.90 125.65 280.75 135.38 C 277.60 145.10 275.73 149.94 272.88 157.38 C 270.02 164.81 268.15 169.88 263.62 180.00 C 259.10 190.12 251.56 206.42 245.75 218.12 C 239.94 229.83 233.25 242.10 228.75 250.25 C 224.25 258.40 220.90 263.56 218.75 267.00 C 216.60 270.44 216.52 269.90 215.88 270.88 C 215.23 271.85 214.96 272.38 214.88 272.88 C 214.79 273.38 214.73 273.75 215.38 273.88 C 216.02 274.00 217.19 274.29 218.75 273.62 C 220.31 272.96 221.50 272.52 224.75 269.88 C 228.00 267.23 233.42 262.67 238.25 257.75 C 243.08 252.83 248.65 246.79 253.75 240.38 C 258.85 233.96 265.04 224.92 268.88 219.25 C 272.71 213.58 273.58 211.85 276.75 206.38 C 279.92 200.90 284.40 192.96 287.88 186.38 C 291.35 179.79 294.33 173.75 297.62 166.88 C 300.92 160.00 304.21 153.00 307.62 145.12 C 311.04 137.25 315.27 126.04 318.12 119.62 C 320.98 113.21 323.60 109.15 324.75 106.62 C 325.90 104.10 324.46 106.15 325.00 104.50 C 325.54 102.85 326.38 100.17 328.00 96.75 C 329.62 93.33 333.46 86.69 334.75 84.00 C 336.04 81.31 335.58 82.00 335.75 80.62 C 335.92 79.25 336.08 77.33 335.75 75.75 C 335.42 74.17 334.73 72.69 333.75 71.12 C 332.77 69.56 331.50 68.06 329.88 66.38 C 328.25 64.69 326.08 62.73 324.00 61.00 C 321.92 59.27 319.46 57.33 317.38 56.00 C 315.29 54.67 313.35 53.81 311.50 53.00 Z" id="s-11-f-0"/>
<clipPath id="c-s-11"><use href="#s-11-f-0"/></clipPath>
<path d="M 323.75 106.25 C 323.60 106.62 324.21 106.38 323.38 108.12 C 322.54 109.88 319.54 115.08 318.75 116.75 C 317.96 118.42 317.96 116.85 318.62 118.12 C 319.29 119.40 321.35 121.81 322.75 124.38 C 324.15 126.94 324.62 129.17 327.00 133.50 C 329.38 137.83 332.50 143.21 337.00 150.38 C 341.50 157.54 347.48 167.19 354.00 176.50 C 360.52 185.81 370.29 198.67 376.12 206.25 C 381.96 213.83 386.35 218.90 389.00 222.00 C 391.65 225.10 390.73 223.94 392.00 224.88 C 393.27 225.81 394.75 226.81 396.62 227.62 C 398.50 228.44 400.67 229.21 403.25 229.75 C 405.83 230.29 406.85 230.73 412.12 230.88 C 417.40 231.02 427.75 230.98 434.88 230.62 C 442.00 230.27 449.81 229.44 454.88 228.75 C 459.94 228.06 463.02 227.21 465.25 226.50 C 467.48 225.79 467.65 225.02 468.25 224.50 C 468.85 223.98 468.79 223.85 468.88 223.38 C 468.96 222.90 469.12 222.31 468.75 221.62 C 468.38 220.94 467.52 220.04 466.62 219.25 C 465.73 218.46 466.62 218.58 463.38 216.88 C 460.12 215.17 452.94 211.69 447.12 209.00 C 441.31 206.31 433.81 203.29 428.50 200.75 C 423.19 198.21 420.17 196.60 415.25 193.75 C 410.33 190.90 404.48 187.33 399.00 183.62 C 393.52 179.92 387.48 175.65 382.38 171.50 C 377.27 167.35 373.15 163.44 368.38 158.75 C 363.60 154.06 358.17 148.33 353.75 143.38 C 349.33 138.42 345.25 133.23 341.88 129.00 C 338.50 124.77 336.19 121.71 333.50 118.00 C 330.81 114.29 327.29 108.77 325.75 106.75 C 324.21 104.73 324.58 105.96 324.25 105.88 C 323.92 105.79 323.90 105.88 323.75 106.25 Z" id="s-12-f-0"/>
<clipPath id="c-s-12"><use href="#s-12-f-0"/></clipPath>
<path d="M 368.88 238.25 C 368.81 237.67 368.88 237.54 368.25 236.88 C 367.62 236.21 366.85 235.23 365.12 234.25 C 363.40 233.27 361.12 231.83 357.88 231.00 C 354.62 230.17 349.02 229.60 345.62 229.25 C 342.23 228.90 344.75 227.29 337.50 228.88 C 330.25 230.46 310.96 236.44 302.12 238.75 C 293.29 241.06 288.50 242.00 284.50 242.75 C 280.50 243.50 280.50 242.88 278.12 243.25 C 275.75 243.62 271.88 244.46 270.25 245.00 C 268.62 245.54 268.77 245.92 268.38 246.50 C 267.98 247.08 267.83 247.90 267.88 248.50 C 267.92 249.10 268.02 249.42 268.62 250.12 C 269.23 250.83 270.50 252.00 271.50 252.75 C 272.50 253.50 273.21 253.96 274.62 254.62 C 276.04 255.29 278.10 256.23 280.00 256.75 C 281.90 257.27 283.10 257.58 286.00 257.75 C 288.90 257.92 293.27 258.23 297.38 257.75 C 301.48 257.27 303.54 256.21 310.62 254.88 C 317.71 253.54 333.46 251.06 339.88 249.75 C 346.29 248.44 345.65 247.83 349.12 247.00 C 352.60 246.17 357.88 245.48 360.75 244.75 C 363.62 244.02 365.06 243.35 366.38 242.62 C 367.69 241.90 368.21 241.10 368.62 240.38 C 369.04 239.65 368.94 238.83 368.88 238.25 Z" id="s-13-f-0"/>
<clipPath id="c-s-13"><use href="#s-13-f-0"/></clipPath>
<path d="M 413.88 311.75 C 414.02 310.67 413.81 309.12 413.62 308.12 C 413.44 307.12 413.21 306.60 412.75 305.75 C 412.29 304.90 411.83 304.17 410.88 303.00 C 409.92 301.83 408.92 300.44 407.00 298.75 C 405.08 297.06 401.42 294.31 399.38 292.88 C 397.33 291.44 397.08 291.27 394.75 290.12 C 392.42 288.98 388.65 287.35 385.38 286.00 C 382.10 284.65 377.98 283.00 375.12 282.00 C 372.27 281.00 370.27 280.31 368.25 280.00 C 366.23 279.69 365.00 279.67 363.00 280.12 C 361.00 280.58 361.21 281.15 356.25 282.75 C 351.29 284.35 341.98 287.42 333.25 289.75 C 324.52 292.08 313.46 294.75 303.88 296.75 C 294.29 298.75 285.90 300.35 275.75 301.75 C 265.60 303.15 248.88 304.40 243.00 305.12 C 237.12 305.85 241.19 305.60 240.50 306.12 C 239.81 306.65 239.12 307.56 238.88 308.25 C 238.62 308.94 238.46 309.31 239.00 310.25 C 239.54 311.19 241.00 312.81 242.12 313.88 C 243.25 314.94 244.29 315.67 245.75 316.62 C 247.21 317.58 248.58 318.46 250.88 319.62 C 253.17 320.79 257.44 322.77 259.50 323.62 C 261.56 324.48 262.08 324.54 263.25 324.75 C 264.42 324.96 264.96 325.06 266.50 324.88 C 268.04 324.69 265.23 325.60 272.50 323.62 C 279.77 321.65 302.50 315.10 310.12 313.00 C 317.75 310.90 316.40 311.38 318.25 311.00 C 320.10 310.62 319.73 311.10 321.25 310.75 C 322.77 310.40 325.04 309.40 327.38 308.88 C 329.71 308.35 333.73 307.94 335.25 307.62 C 336.77 307.31 333.88 307.44 336.50 307.00 C 339.12 306.56 348.04 305.31 351.00 305.00 C 353.96 304.69 353.27 304.88 354.25 305.12 C 355.23 305.38 356.29 306.02 356.88 306.50 C 357.46 306.98 357.60 307.42 357.75 308.00 C 357.90 308.58 357.90 309.21 357.75 310.00 C 357.60 310.79 357.65 311.08 356.88 312.75 C 356.10 314.42 354.83 316.27 353.12 320.00 C 351.42 323.73 350.38 327.42 346.62 335.12 C 342.88 342.83 335.06 358.06 330.62 366.25 C 326.19 374.44 321.62 380.98 320.00 384.25 C 318.38 387.52 318.94 384.60 320.88 385.88 C 322.81 387.15 328.69 391.96 331.62 391.88 C 334.56 391.79 333.25 390.92 338.50 385.38 C 343.75 379.83 357.15 365.00 363.12 358.62 C 369.10 352.25 369.81 351.42 374.38 347.12 C 378.94 342.83 384.73 337.56 390.50 332.88 C 396.27 328.19 405.29 322.04 409.00 319.00 C 412.71 315.96 411.94 315.83 412.75 314.62 C 413.56 313.42 413.73 312.83 413.88 311.75 Z" id="s-14-f-0"/>
<clipPath id="c-s-14"><use href="#s-14-f-0"/></clipPath>
<path d="M 270.00 370.38 C 269.81 370.85 269.81 371.94 270.12 372.75 C 270.44 373.56 271.15 374.40 271.88 375.25 C 272.60 376.10 272.25 376.04 274.50 377.88 C 276.75 379.71 280.56 381.85 285.38 386.25 C 290.19 390.65 297.08 397.56 303.38 404.25 C 309.67 410.94 318.67 421.52 323.12 426.38 C 327.58 431.23 327.92 431.33 330.12 433.38 C 332.33 435.42 334.35 437.06 336.38 438.62 C 338.40 440.19 339.65 441.23 342.25 442.75 C 344.85 444.27 349.65 446.96 352.00 447.75 C 354.35 448.54 354.92 448.23 356.38 447.50 C 357.83 446.77 359.71 444.75 360.75 443.38 C 361.79 442.00 362.12 440.65 362.62 439.25 C 363.12 437.85 363.56 437.00 363.75 435.00 C 363.94 433.00 363.94 429.35 363.75 427.25 C 363.56 425.15 363.17 424.12 362.62 422.38 C 362.08 420.62 361.52 418.79 360.50 416.75 C 359.48 414.71 357.75 411.90 356.50 410.12 C 355.25 408.35 354.56 407.65 353.00 406.12 C 351.44 404.60 349.08 402.52 347.12 401.00 C 345.17 399.48 343.54 398.38 341.25 397.00 C 338.96 395.62 335.06 393.81 333.38 392.75 C 331.69 391.69 331.67 391.00 331.12 390.62 C 330.58 390.25 331.81 391.46 330.12 390.50 C 328.44 389.54 322.75 385.83 321.00 384.88 C 319.25 383.92 322.46 385.88 319.62 384.75 C 316.79 383.62 309.48 380.25 304.00 378.12 C 298.52 376.00 291.23 373.33 286.75 372.00 C 282.27 370.67 279.71 370.48 277.12 370.12 C 274.54 369.77 272.44 369.83 271.25 369.88 C 270.06 369.92 270.19 369.90 270.00 370.38 Z" id="s-15-f-0"/>
<clipPath id="c-s-15"><use href="#s-15-f-0"/></clipPath>
</defs>
<g id="s-0" clip-path="url(#c-s-0)">
<use href="#s-0-f-0"/>
<path d="M 126.12 62.38 C 124.15 61.06 122.58 60.58 121.00 60.00 C 119.42 59.42 118.04 59.00 116.62 58.88 C 115.21 58.75 113.77 58.67 112.50 59.25 C 111.23 59.83 109.75 61.35 109.00 62.38 C 108.25 63.40 108.23 63.17 108.00 65.38 C 107.77 67.58 108.00 72.00 107.62 75.62 C 107.25 79.25 107.10 82.38 105.75 87.12 C 104.40 91.88 101.50 99.12 99.50 104.12 C 97.50 109.12 95.71 113.00 93.75 117.12 C 91.79 121.25 90.25 124.33 87.75 128.88 C 85.25 133.42 81.31 140.15 78.75 144.38 C 76.19 148.60 73.40 152.50 72.38 154.25 C 71.35 156.00 68.79 154.75 72.62 154.88 C 76.46 155.00 91.27 155.00 95.38 155.00 C 99.48 155.00 95.90 156.10 97.25 154.88 C 98.60 153.65 100.92 150.92 103.50 147.62 C 106.08 144.33 109.81 139.31 112.75 135.12 C 115.69 130.94 118.29 126.98 121.12 122.50 C 123.96 118.02 126.94 113.25 129.75 108.25 C 132.56 103.25 136.00 96.15 138.00 92.50 C 140.00 88.85 140.96 87.85 141.75 86.38 C 142.54 84.90 142.56 84.60 142.75 83.62 C 142.94 82.65 143.04 81.48 142.88 80.50 C 142.71 79.52 142.58 79.02 141.75 77.75 C 140.92 76.48 139.35 74.52 137.88 72.88 C 136.40 71.23 134.83 69.62 132.88 67.88 C 130.92 66.12 128.10 63.69 126.12 62.38 Z" id="s-0-f-1"/>
<path d="M 127.38 63.12 C 124.56 60.98 122.79 60.71 121.00 60.00 C 119.21 59.29 118.04 59.00 116.62 58.88 C 115.21 58.75 113.77 58.67 112.50 59.25 C 111.23 59.83 109.75 61.35 109.00 62.38 C 108.25 63.40 108.23 63.17 108.00 65.38 C 107.77 67.58 108.00 72.00 107.62 75.62 C 107.25 79.25 107.27 82.02 105.75 87.12 C 104.23 92.23 99.62 102.96 98.50 106.25 C 97.38 109.54 93.79 106.75 99.00 106.88 C 104.21 107.00 124.46 107.08 129.75 107.00 C 135.04 106.92 129.38 108.79 130.75 106.38 C 132.12 103.96 136.17 95.83 138.00 92.50 C 139.83 89.17 140.96 87.85 141.75 86.38 C 142.54 84.90 142.56 84.60 142.75 83.62 C 142.94 82.65 143.04 81.48 142.88 80.50 C 142.71 79.52 142.58 79.02 141.75 77.75 C 140.92 76.48 140.27 75.31 137.88 72.88 C 135.48 70.44 130.19 65.27 127.38 63.12 Z" id="s-0-f-2"/>
</g>
<g id="s-1" clip-path="url(#c-s-1)">
<use href="#s-1-f-0"/>
<path d="M 206.62 111.38 C 205.73 110.15 205.06 109.35 203.38 108.12 C 201.69 106.90 199.75 105.52 196.50 104.00 C 193.25 102.48 186.52 99.98 183.88 99.00 C 181.23 98.02 181.88 98.29 180.62 98.12 C 179.38 97.96 178.02 97.69 176.38 98.00 C 174.73 98.31 174.94 97.92 170.75 100.00 C 166.56 102.08 156.06 108.06 151.25 110.50 C 146.44 112.94 144.92 113.42 141.88 114.62 C 138.83 115.83 136.46 116.75 133.00 117.75 C 129.54 118.75 124.71 117.69 121.12 120.62 C 117.54 123.56 113.06 132.83 111.50 135.38 C 109.94 137.92 111.10 135.65 111.75 135.88 C 112.40 136.10 112.54 136.60 115.38 136.75 C 118.21 136.90 124.75 137.27 128.75 136.75 C 132.75 136.23 135.67 134.92 139.38 133.62 C 143.08 132.33 148.79 129.73 151.00 129.00 C 153.21 128.27 152.04 128.90 152.62 129.25 C 153.21 129.60 154.17 130.46 154.50 131.12 C 154.83 131.79 155.92 130.71 154.62 133.25 C 153.33 135.79 150.15 140.98 146.75 146.38 C 143.35 151.77 136.04 162.35 134.25 165.62 C 132.46 168.90 131.90 165.94 136.00 166.00 C 140.10 166.06 154.90 166.08 158.88 166.00 C 162.85 165.92 157.10 168.27 159.88 165.50 C 162.65 162.73 170.44 154.40 175.50 149.38 C 180.56 144.35 186.56 138.73 190.25 135.38 C 193.94 132.02 195.33 130.96 197.62 129.25 C 199.92 127.54 202.31 126.44 204.00 125.12 C 205.69 123.81 206.94 122.44 207.75 121.38 C 208.56 120.31 208.71 119.73 208.88 118.75 C 209.04 117.77 209.12 116.73 208.75 115.50 C 208.38 114.27 207.52 112.60 206.62 111.38 Z" id="s-1-f-1"/>
<path d="M 208.75 115.50 C 208.60 114.69 208.44 114.04 207.75 113.00 C 207.06 111.96 205.60 110.25 204.62 109.25 C 203.65 108.25 203.19 107.85 201.88 107.00 C 200.56 106.15 199.75 105.46 196.75 104.12 C 193.75 102.79 186.92 100.04 183.88 99.00 C 180.83 97.96 179.81 98.02 178.50 97.88 C 177.19 97.73 177.29 97.77 176.00 98.12 C 174.71 98.48 174.88 97.94 170.75 100.00 C 166.62 102.06 156.06 108.06 151.25 110.50 C 146.44 112.94 144.92 113.42 141.88 114.62 C 138.83 115.83 136.38 116.73 133.00 117.75 C 129.62 118.77 125.19 117.81 121.62 120.75 C 118.06 123.69 113.02 132.81 111.62 135.38 C 110.23 137.94 112.31 135.90 113.25 136.12 C 114.19 136.35 114.73 136.67 117.25 136.75 C 119.77 136.83 125.33 136.96 128.38 136.62 C 131.42 136.29 131.81 136.02 135.50 134.75 C 139.19 133.48 138.67 131.67 150.50 129.00 C 162.33 126.33 196.81 120.60 206.50 118.75 C 216.19 116.90 208.25 118.42 208.62 117.88 C 209.00 117.33 208.90 116.31 208.75 115.50 Z" id="s-1-f-2"/>
<path d="M 207.88 113.50 C 207.67 112.42 207.38 112.27 206.62 111.38 C 205.88 110.48 205.06 109.35 203.38 108.12 C 201.69 106.90 199.75 105.52 196.50 104.00 C 193.25 102.48 186.88 100.02 183.88 99.00 C 180.88 97.98 179.81 98.02 178.50 97.88 C 177.19 97.73 177.29 97.77 176.00 98.12 C 174.71 98.48 174.88 97.94 170.75 100.00 C 166.62 102.06 156.06 108.06 151.25 110.50 C 146.44 112.94 144.92 113.42 141.88 114.62 C 138.83 115.83 136.38 116.73 133.00 117.75 C 129.62 118.77 125.19 117.81 121.62 120.75 C 118.06 123.69 113.02 132.81 111.62 135.38 C 110.23 137.94 112.31 135.90 113.25 136.12 C 114.19 136.35 114.73 136.67 117.25 136.75 C 119.77 136.83 125.33 136.96 128.38 136.62 C 131.42 136.29 131.81 136.02 135.50 134.75 C 139.19 133.48 138.67 131.67 150.50 129.00 C 162.33 126.33 196.94 120.60 206.50 118.75 C 216.06 116.90 207.65 118.75 207.88 117.88 C 208.10 117.00 208.08 114.58 207.88 113.50 Z" id="s-1-f-3"/>
<path d="M 160.00 106.38 C 159.83 102.90 160.33 105.44 158.88 106.12 C 157.42 106.81 154.08 109.08 151.25 110.50 C 148.42 111.92 144.92 113.42 141.88 114.62 C 138.83 115.83 136.38 116.73 133.00 117.75 C 129.62 118.77 125.19 117.88 121.62 120.75 C 118.06 123.62 113.27 132.52 111.62 135.00 C 109.98 137.48 110.83 135.33 111.75 135.62 C 112.67 135.92 114.35 136.58 117.12 136.75 C 119.90 136.92 125.31 136.96 128.38 136.62 C 131.44 136.29 131.81 136.02 135.50 134.75 C 139.19 133.48 146.52 130.21 150.50 129.00 C 154.48 127.79 157.81 127.83 159.38 127.50 C 160.94 127.17 159.77 130.52 159.88 127.00 C 159.98 123.48 160.17 109.85 160.00 106.38 Z" id="s-1-f-4"/>
</g>
<g id="s-2" clip-path="url(#c-s-2)">
<use href="#s-2-f-0"/>
<path d="M 42.38 200.00 C 40.10 200.23 40.44 200.98 39.88 201.50 C 39.31 202.02 39.15 202.48 39.00 203.12 C 38.85 203.77 38.25 204.27 39.00 205.38 C 39.75 206.48 42.21 208.25 43.50 209.75 C 44.79 211.25 45.75 212.75 46.75 214.38 C 47.75 216.00 48.65 217.71 49.50 219.50 C 50.35 221.29 51.00 222.42 51.88 225.12 C 52.75 227.83 53.75 230.88 54.75 235.75 C 55.75 240.62 57.00 247.92 57.88 254.38 C 58.75 260.83 59.12 267.62 60.00 274.50 C 60.88 281.38 62.35 292.04 63.12 295.62 C 63.90 299.21 61.33 295.96 64.62 296.00 C 67.92 296.04 79.75 296.12 82.88 295.88 C 86.00 295.62 83.69 299.33 83.38 294.50 C 83.06 289.67 81.42 272.54 81.00 266.88 C 80.58 261.21 81.42 266.33 80.88 260.50 C 80.33 254.67 78.50 238.08 77.75 231.88 C 77.00 225.67 76.69 226.06 76.38 223.25 C 76.06 220.44 77.85 218.23 75.88 215.00 C 73.90 211.77 66.92 206.04 64.50 203.88 C 62.08 201.71 63.21 202.62 61.38 202.00 C 59.54 201.38 56.67 200.46 53.50 200.12 C 50.33 199.79 44.65 199.77 42.38 200.00 Z" id="s-2-f-1"/>
<path d="M 40.38 201.00 C 39.81 201.52 39.23 202.40 39.00 203.12 C 38.77 203.85 38.25 204.27 39.00 205.38 C 39.75 206.48 42.21 208.25 43.50 209.75 C 44.79 211.25 45.73 212.71 46.75 214.38 C 47.77 216.04 48.77 217.96 49.62 219.75 C 50.48 221.54 51.19 223.19 51.88 225.12 C 52.56 227.06 52.90 227.60 53.75 231.38 C 54.60 235.15 53.04 244.98 57.00 247.75 C 60.96 250.52 73.77 248.02 77.50 248.00 C 81.23 247.98 79.62 252.35 79.38 247.62 C 79.12 242.90 76.58 225.06 76.00 219.62 C 75.42 214.19 76.06 216.00 75.88 215.00 C 75.69 214.00 76.77 215.48 74.88 213.62 C 72.98 211.77 67.15 205.96 64.50 203.88 C 61.85 201.79 61.48 201.79 59.00 201.12 C 56.52 200.46 52.40 200.06 49.62 199.88 C 46.85 199.69 43.92 199.81 42.38 200.00 C 40.83 200.19 40.94 200.48 40.38 201.00 Z" id="s-2-f-2"/>
</g>
<g id="s-3" clip-path="url(#c-s-3)">
<use href="#s-3-f-0"/>
<path d="M 222.88 208.12 C 223.04 206.94 223.12 206.25 222.75 205.12 C 222.38 204.00 222.40 203.25 220.62 201.38 C 218.85 199.50 214.25 195.58 212.12 193.88 C 210.00 192.17 209.88 192.25 207.88 191.12 C 205.88 190.00 202.88 188.44 200.12 187.12 C 197.38 185.81 193.69 184.12 191.38 183.25 C 189.06 182.38 187.94 182.06 186.25 181.88 C 184.56 181.69 183.58 181.77 181.25 182.12 C 178.92 182.48 175.23 183.23 172.25 184.00 C 169.27 184.77 169.50 185.12 163.38 186.75 C 157.25 188.38 141.33 192.44 135.50 193.75 C 129.67 195.06 131.58 194.02 128.38 194.62 C 125.17 195.23 118.79 196.88 116.25 197.38 C 113.71 197.88 114.10 197.38 113.12 197.62 C 112.15 197.88 115.50 198.19 110.38 198.88 C 105.25 199.56 90.06 201.10 82.38 201.75 C 74.69 202.40 67.54 202.46 64.25 202.75 C 60.96 203.04 62.29 202.90 62.62 203.50 C 62.96 204.10 64.12 204.42 66.25 206.38 C 68.38 208.33 69.81 214.04 75.38 215.25 C 80.94 216.46 93.02 214.33 99.62 213.62 C 106.23 212.92 108.90 211.79 115.00 211.00 C 121.10 210.21 127.65 210.04 136.25 208.88 C 144.85 207.71 159.50 204.98 166.62 204.00 C 173.75 203.02 176.62 203.02 179.00 203.00 C 181.38 202.98 180.23 203.29 180.88 203.88 C 181.52 204.46 182.42 205.56 182.88 206.50 C 183.33 207.44 183.48 207.25 183.62 209.50 C 183.77 211.75 183.90 215.92 183.75 220.00 C 183.60 224.08 183.40 228.44 182.75 234.00 C 182.10 239.56 180.38 249.56 179.88 253.38 C 179.38 257.19 180.81 251.27 179.75 256.88 C 178.69 262.48 174.48 281.83 173.50 287.00 C 172.52 292.17 169.71 287.71 173.88 287.88 C 178.04 288.04 194.25 288.12 198.50 288.00 C 202.75 287.88 196.96 296.56 199.38 287.12 C 201.79 277.69 210.19 242.27 213.00 231.38 C 215.81 220.48 215.25 224.25 216.25 221.75 C 217.25 219.25 218.08 217.96 219.00 216.38 C 219.92 214.79 221.10 213.62 221.75 212.25 C 222.40 210.88 222.71 209.31 222.88 208.12 Z" id="s-3-f-1"/>
<path d="M 222.88 208.12 C 223.04 206.94 222.96 206.02 222.75 205.12 C 222.54 204.23 222.33 203.75 221.62 202.75 C 220.92 201.75 219.85 200.44 218.50 199.12 C 217.15 197.81 215.27 196.21 213.50 194.88 C 211.73 193.54 210.10 192.42 207.88 191.12 C 205.65 189.83 202.94 188.46 200.12 187.12 C 197.31 185.79 193.31 184.00 191.00 183.12 C 188.69 182.25 187.88 182.04 186.25 181.88 C 184.62 181.71 183.58 181.77 181.25 182.12 C 178.92 182.48 175.23 183.23 172.25 184.00 C 169.27 184.77 170.00 185.00 163.38 186.75 C 156.75 188.50 138.33 193.19 132.50 194.50 C 126.67 195.81 131.08 194.15 128.38 194.62 C 125.67 195.10 118.79 196.88 116.25 197.38 C 113.71 197.88 114.10 197.38 113.12 197.62 C 112.15 197.88 115.50 198.19 110.38 198.88 C 105.25 199.56 90.06 201.10 82.38 201.75 C 74.69 202.40 67.54 202.46 64.25 202.75 C 60.96 203.04 62.29 202.90 62.62 203.50 C 62.96 204.10 64.12 204.42 66.25 206.38 C 68.38 208.33 70.00 214.02 75.38 215.25 C 80.75 216.48 93.31 214.17 98.50 213.75 C 103.69 213.33 103.75 213.21 106.50 212.75 C 109.25 212.29 110.04 211.65 115.00 211.00 C 119.96 210.35 127.65 210.04 136.25 208.88 C 144.85 207.71 159.50 204.98 166.62 204.00 C 173.75 203.02 176.52 202.94 179.00 203.00 C 181.48 203.06 180.85 203.79 181.50 204.38 C 182.15 204.96 182.52 205.65 182.88 206.50 C 183.23 207.35 183.48 207.25 183.62 209.50 C 183.77 211.75 184.02 215.02 183.75 220.00 C 183.48 224.98 182.17 236.06 182.00 239.38 C 181.83 242.69 178.27 239.77 182.75 239.88 C 187.23 239.98 204.19 240.04 208.88 240.00 C 213.56 239.96 209.85 242.12 210.88 239.62 C 211.90 237.12 213.81 228.58 215.00 225.00 C 216.19 221.42 216.88 220.25 218.00 218.12 C 219.12 216.00 220.94 213.92 221.75 212.25 C 222.56 210.58 222.71 209.31 222.88 208.12 Z" id="s-3-f-2"/>
<path d="M 207.75 191.00 C 206.42 190.12 202.92 188.44 200.12 187.12 C 197.33 185.81 193.10 183.98 191.00 183.12 C 188.90 182.27 188.98 182.19 187.50 182.00 C 186.02 181.81 185.33 181.48 182.12 182.00 C 178.92 182.52 171.38 184.33 168.25 185.12 C 165.12 185.92 169.46 185.19 163.38 186.75 C 157.29 188.31 137.58 193.19 131.75 194.50 C 125.92 195.81 130.96 194.15 128.38 194.62 C 125.79 195.10 118.79 196.88 116.25 197.38 C 113.71 197.88 114.10 197.38 113.12 197.62 C 112.15 197.88 115.50 198.19 110.38 198.88 C 105.25 199.56 90.06 201.10 82.38 201.75 C 74.69 202.40 67.54 202.46 64.25 202.75 C 60.96 203.04 62.29 202.90 62.62 203.50 C 62.96 204.10 64.12 204.42 66.25 206.38 C 68.38 208.33 73.69 213.83 75.38 215.25 C 77.06 216.67 74.21 214.98 76.38 214.88 C 78.54 214.77 83.35 214.98 88.38 214.62 C 93.40 214.27 102.06 213.35 106.50 212.75 C 110.94 212.15 110.08 211.65 115.00 211.00 C 119.92 210.35 127.35 210.04 136.00 208.88 C 144.65 207.71 159.71 205.02 166.88 204.00 C 174.04 202.98 172.54 204.56 179.00 202.75 C 185.46 200.94 200.90 194.77 205.62 193.12 C 210.35 191.48 206.96 193.00 207.38 192.88 C 207.79 192.75 208.06 192.69 208.12 192.38 C 208.19 192.06 209.08 191.88 207.75 191.00 Z" id="s-3-f-3"/>
<path d="M 207.00 191.38 C 206.92 190.94 208.79 191.62 206.12 190.25 C 203.46 188.88 194.10 184.50 191.00 183.12 C 187.90 181.75 188.98 182.19 187.50 182.00 C 186.02 181.81 185.33 181.48 182.12 182.00 C 178.92 182.52 171.38 184.33 168.25 185.12 C 165.12 185.92 169.46 185.19 163.38 186.75 C 157.29 188.31 137.58 193.19 131.75 194.50 C 125.92 195.81 130.96 194.15 128.38 194.62 C 125.79 195.10 118.79 196.88 116.25 197.38 C 113.71 197.88 114.10 197.38 113.12 197.62 C 112.15 197.88 115.50 198.19 110.38 198.88 C 105.25 199.56 90.06 201.10 82.38 201.75 C 74.69 202.40 67.54 202.46 64.25 202.75 C 60.96 203.04 62.29 202.90 62.62 203.50 C 62.96 204.10 64.12 204.42 66.25 206.38 C 68.38 208.33 73.69 213.83 75.38 215.25 C 77.06 216.67 73.96 215.00 76.38 214.88 C 78.79 214.75 84.85 214.85 89.88 214.50 C 94.90 214.15 102.31 213.33 106.50 212.75 C 110.69 212.17 110.08 211.65 115.00 211.00 C 119.92 210.35 127.35 210.04 136.00 208.88 C 144.65 207.71 159.71 205.02 166.88 204.00 C 174.04 202.98 172.38 204.60 179.00 202.75 C 185.62 200.90 201.96 194.77 206.62 192.88 C 211.29 190.98 207.08 191.81 207.00 191.38 Z" id="s-3-f-4"/>
<path d="M 159.00 188.50 C 158.79 185.69 161.98 187.02 157.62 188.00 C 153.27 188.98 137.75 193.27 132.88 194.38 C 128.00 195.48 130.29 194.29 128.38 194.62 C 126.46 194.96 123.17 196.02 121.38 196.38 C 119.58 196.73 118.46 196.58 117.62 196.75 C 116.79 196.92 117.12 197.23 116.38 197.38 C 115.62 197.52 114.12 197.38 113.12 197.62 C 112.12 197.88 115.50 198.19 110.38 198.88 C 105.25 199.56 90.06 201.10 82.38 201.75 C 74.69 202.40 67.54 202.46 64.25 202.75 C 60.96 203.04 62.29 202.90 62.62 203.50 C 62.96 204.10 64.12 204.42 66.25 206.38 C 68.38 208.33 70.00 214.02 75.38 215.25 C 80.75 216.48 93.15 214.19 98.50 213.75 C 103.85 213.31 104.75 213.08 107.50 212.62 C 110.25 212.17 110.23 211.62 115.00 211.00 C 119.77 210.38 128.92 209.79 136.12 208.88 C 143.33 207.96 154.46 206.17 158.25 205.50 C 162.04 204.83 158.75 207.71 158.88 204.88 C 159.00 202.04 159.21 191.31 159.00 188.50 Z" id="s-3-f-5"/>
<path d="M 110.62 211.75 C 112.69 209.44 111.02 202.02 111.00 199.88 C 110.98 197.73 115.27 198.56 110.50 198.88 C 105.73 199.19 90.08 201.10 82.38 201.75 C 74.67 202.40 67.52 202.48 64.25 202.75 C 60.98 203.02 60.90 201.29 62.75 203.38 C 64.60 205.46 73.12 213.33 75.38 215.25 C 77.62 217.17 74.42 214.96 76.25 214.88 C 78.08 214.79 82.65 214.94 86.38 214.75 C 90.10 214.56 94.58 214.25 98.62 213.75 C 102.67 213.25 108.56 214.06 110.62 211.75 Z" id="s-3-f-6"/>
</g>
<g id="s-4" clip-path="url(#c-s-4)">
<use href="#s-4-f-0"/>
<path d="M 175.88 240.62 C 175.73 238.17 176.35 240.25 175.12 240.00 C 173.90 239.75 171.00 239.29 168.50 239.12 C 166.00 238.96 162.65 238.75 160.12 239.00 C 157.60 239.25 157.04 239.98 153.38 240.62 C 149.71 241.27 144.10 241.67 138.12 242.88 C 132.15 244.08 126.92 246.33 117.50 247.88 C 108.08 249.42 87.96 251.23 81.62 252.12 C 75.29 253.02 79.81 251.85 79.50 253.25 C 79.19 254.65 79.54 258.56 79.75 260.50 C 79.96 262.44 79.79 264.00 80.75 264.88 C 81.71 265.75 81.88 265.62 85.50 265.75 C 89.12 265.88 96.67 265.94 102.50 265.62 C 108.33 265.31 114.38 264.67 120.50 263.88 C 126.62 263.08 133.62 261.58 139.25 260.88 C 144.88 260.17 148.40 260.33 154.25 259.62 C 160.10 258.92 170.79 257.23 174.38 256.62 C 177.96 256.02 175.48 256.31 175.75 256.00 C 176.02 255.69 175.98 257.31 176.00 254.75 C 176.02 252.19 176.02 243.08 175.88 240.62 Z" id="s-4-f-1"/>
<path d="M 127.88 245.88 C 127.35 243.33 126.60 245.54 124.88 245.88 C 123.15 246.21 124.71 246.83 117.50 247.88 C 110.29 248.92 87.96 251.23 81.62 252.12 C 75.29 253.02 79.81 251.85 79.50 253.25 C 79.19 254.65 79.58 258.62 79.75 260.50 C 79.92 262.38 79.73 263.65 80.50 264.50 C 81.27 265.35 80.94 265.42 84.38 265.62 C 87.81 265.83 93.96 266.21 101.12 265.75 C 108.29 265.29 122.90 263.65 127.38 262.88 C 131.85 262.10 127.92 263.96 128.00 261.12 C 128.08 258.29 128.40 248.42 127.88 245.88 Z" id="s-4-f-2"/>
</g>
<g id="s-5" clip-path="url(#c-s-5)">
<use href="#s-5-f-0"/>
<path d="M 141.38 207.75 C 140.33 207.62 136.85 207.52 135.62 207.62 C 134.40 207.73 135.40 208.21 134.00 208.38 C 132.60 208.54 128.90 208.44 127.25 208.62 C 125.60 208.81 125.67 209.33 124.12 209.50 C 122.58 209.67 119.35 209.42 118.00 209.62 C 116.65 209.83 116.33 209.50 116.00 210.75 C 115.67 212.00 115.69 211.12 116.00 217.12 C 116.31 223.12 117.62 241.42 117.88 246.75 C 118.12 252.08 117.56 247.67 117.50 249.12 C 117.44 250.58 117.44 254.33 117.50 255.50 C 117.56 256.67 114.35 256.00 117.88 256.12 C 121.40 256.25 134.94 256.33 138.62 256.25 C 142.31 256.17 139.77 258.25 140.00 255.62 C 140.23 253.00 139.69 248.38 140.00 240.50 C 140.31 232.62 141.65 213.83 141.88 208.38 C 142.10 202.92 142.42 207.88 141.38 207.75 Z" id="s-5-f-1"/>
</g>
<g id="s-6" clip-path="url(#c-s-6)">
<use href="#s-6-f-0"/>
<path d="M 132.00 296.88 C 131.92 294.35 132.31 296.54 131.50 296.50 C 130.69 296.46 128.25 296.48 127.12 296.62 C 126.00 296.77 126.17 297.19 124.75 297.38 C 123.33 297.56 120.19 297.50 118.62 297.75 C 117.06 298.00 121.12 298.02 115.38 298.88 C 109.62 299.73 89.44 302.15 84.12 302.88 C 78.81 303.60 83.60 301.15 83.50 303.25 C 83.40 305.35 83.04 313.25 83.50 315.50 C 83.96 317.75 83.85 316.54 86.25 316.75 C 88.65 316.96 93.73 316.94 97.88 316.75 C 102.02 316.56 105.54 316.25 111.12 315.62 C 116.71 315.00 127.90 313.67 131.38 313.00 C 134.85 312.33 131.90 314.31 132.00 311.62 C 132.10 308.94 132.08 299.40 132.00 296.88 Z" id="s-6-f-1"/>
</g>
<g id="s-7" clip-path="url(#c-s-7)">
<use href="#s-7-f-0"/>
<path d="M 59.88 338.12 C 59.10 337.58 58.62 337.67 58.00 338.00 C 57.38 338.33 56.67 338.77 56.12 340.12 C 55.58 341.48 55.50 343.83 54.75 346.12 C 54.00 348.42 53.98 349.00 51.62 353.88 C 49.27 358.75 43.40 370.23 40.62 375.38 C 37.85 380.52 35.94 383.02 35.00 384.75 C 34.06 386.48 29.58 385.54 35.00 385.75 C 40.42 385.96 61.96 386.06 67.50 386.00 C 73.04 385.94 67.71 387.54 68.25 385.38 C 68.79 383.21 70.33 376.96 70.75 373.00 C 71.17 369.04 71.08 364.75 70.75 361.62 C 70.42 358.50 69.42 356.33 68.75 354.25 C 68.08 352.17 67.77 351.29 66.75 349.12 C 65.73 346.96 63.77 343.08 62.62 341.25 C 61.48 339.42 60.65 338.67 59.88 338.12 Z" id="s-7-f-1"/>
</g>
<g id="s-8" clip-path="url(#c-s-8)">
<use href="#s-8-f-0"/>
<path d="M 87.25 346.38 C 86.73 346.65 86.19 346.92 86.00 347.50 C 85.81 348.08 85.71 348.69 86.12 349.88 C 86.54 351.06 87.35 351.65 88.50 354.62 C 89.65 357.60 91.42 363.50 93.00 367.75 C 94.58 372.00 96.48 376.60 98.00 380.12 C 99.52 383.65 100.98 386.65 102.12 388.88 C 103.27 391.10 104.08 392.65 104.88 393.50 C 105.67 394.35 104.12 393.96 106.88 394.00 C 109.62 394.04 118.88 393.88 121.38 393.75 C 123.88 393.62 121.65 393.94 121.88 393.25 C 122.10 392.56 122.60 392.17 122.75 389.62 C 122.90 387.08 122.94 381.15 122.75 378.00 C 122.56 374.85 122.06 372.73 121.62 370.75 C 121.19 368.77 120.75 367.60 120.12 366.12 C 119.50 364.65 119.31 363.56 117.88 361.88 C 116.44 360.19 113.88 357.81 111.50 356.00 C 109.12 354.19 106.27 352.50 103.62 351.00 C 100.98 349.50 97.48 347.83 95.62 347.00 C 93.77 346.17 93.58 346.19 92.50 346.00 C 91.42 345.81 90.00 345.81 89.12 345.88 C 88.25 345.94 87.77 346.10 87.25 346.38 Z" id="s-8-f-1"/>
</g>
<g id="s-9" clip-path="url(#c-s-9)">
<use href="#s-9-f-0"/>
<path d="M 133.75 340.00 C 132.77 340.21 132.98 340.73 132.88 341.38 C 132.77 342.02 132.81 343.00 133.12 343.88 C 133.44 344.75 132.60 341.88 134.75 346.62 C 136.90 351.38 142.81 365.71 146.00 372.38 C 149.19 379.04 152.38 384.04 153.88 386.62 C 155.38 389.21 152.38 387.65 155.00 387.88 C 157.62 388.10 167.02 388.08 169.62 388.00 C 172.23 387.92 170.25 388.50 170.62 387.38 C 171.00 386.25 171.71 383.85 171.88 381.25 C 172.04 378.65 171.98 374.69 171.62 371.75 C 171.27 368.81 170.67 366.23 169.75 363.62 C 168.83 361.02 167.71 358.23 166.12 356.12 C 164.54 354.02 162.94 352.85 160.25 351.00 C 157.56 349.15 153.58 346.81 150.00 345.00 C 146.42 343.19 141.46 340.96 138.75 340.12 C 136.04 339.29 134.73 339.79 133.75 340.00 Z" id="s-9-f-1"/>
</g>
<g id="s-10" clip-path="url(#c-s-10)">
<use href="#s-10-f-0"/>
<path d="M 178.00 334.75 C 177.77 335.38 177.83 336.77 178.00 337.62 C 178.17 338.48 177.71 337.96 179.00 339.88 C 180.29 341.79 183.96 346.52 185.75 349.12 C 187.54 351.73 186.69 350.06 189.75 355.50 C 192.81 360.94 198.73 377.33 204.12 381.75 C 209.52 386.17 217.81 382.04 222.12 382.00 C 226.44 381.96 228.56 382.04 230.00 381.50 C 231.44 380.96 230.60 380.12 230.75 378.75 C 230.90 377.38 231.04 375.21 230.88 373.25 C 230.71 371.29 230.46 369.17 229.75 367.00 C 229.04 364.83 227.75 362.10 226.62 360.25 C 225.50 358.40 225.04 357.75 223.00 355.88 C 220.96 354.00 217.19 350.98 214.38 349.00 C 211.56 347.02 208.81 345.50 206.12 344.00 C 203.44 342.50 201.15 341.33 198.25 340.00 C 195.35 338.67 191.25 336.96 188.75 336.00 C 186.25 335.04 184.81 334.60 183.25 334.25 C 181.69 333.90 180.25 333.79 179.38 333.88 C 178.50 333.96 178.23 334.12 178.00 334.75 Z" id="s-10-f-1"/>
</g>
<g id="s-11" clip-path="url(#c-s-11)">
<use href="#s-11-f-0"/>
<path d="M 309.12 52.00 C 307.15 51.17 306.88 51.17 305.50 51.00 C 304.12 50.83 302.10 50.67 300.88 51.00 C 299.65 51.33 298.73 52.38 298.12 53.00 C 297.52 53.62 297.65 50.77 297.25 54.75 C 296.85 58.73 296.50 70.25 295.75 76.88 C 295.00 83.50 293.75 89.56 292.75 94.50 C 291.75 99.44 291.79 99.56 289.75 106.50 C 287.71 113.44 283.31 127.65 280.50 136.12 C 277.69 144.60 275.69 150.06 272.88 157.38 C 270.06 164.69 267.98 170.21 263.62 180.00 C 259.27 189.79 251.85 205.69 246.75 216.12 C 241.65 226.56 232.19 238.19 233.00 242.62 C 233.81 247.06 247.00 244.67 251.62 242.75 C 256.25 240.83 257.88 235.04 260.75 231.12 C 263.62 227.21 266.21 223.40 268.88 219.25 C 271.54 215.10 273.58 211.73 276.75 206.25 C 279.92 200.77 284.40 192.94 287.88 186.38 C 291.35 179.81 294.33 173.75 297.62 166.88 C 300.92 160.00 304.21 153.00 307.62 145.12 C 311.04 137.25 315.27 126.04 318.12 119.62 C 320.98 113.21 323.60 109.15 324.75 106.62 C 325.90 104.10 324.46 106.15 325.00 104.50 C 325.54 102.85 326.38 100.17 328.00 96.75 C 329.62 93.33 333.46 86.71 334.75 84.00 C 336.04 81.29 335.58 81.90 335.75 80.50 C 335.92 79.10 335.94 76.94 335.75 75.62 C 335.56 74.31 335.33 73.88 334.62 72.62 C 333.92 71.38 332.88 69.73 331.50 68.12 C 330.12 66.52 328.73 65.02 326.38 63.00 C 324.02 60.98 320.25 57.83 317.38 56.00 C 314.50 54.17 311.10 52.83 309.12 52.00 Z" id="s-11-f-1"/>
<path d="M 309.12 52.00 C 307.15 51.17 306.88 51.17 305.50 51.00 C 304.12 50.83 302.10 50.67 300.88 51.00 C 299.65 51.33 298.73 52.38 298.12 53.00 C 297.52 53.62 297.54 51.92 297.25 54.75 C 296.96 57.58 296.79 65.12 296.38 70.00 C 295.96 74.88 295.35 79.92 294.75 84.00 C 294.15 88.08 293.58 90.75 292.75 94.50 C 291.92 98.25 291.75 99.69 289.75 106.50 C 287.75 113.31 283.56 126.90 280.75 135.38 C 277.94 143.85 275.33 151.00 272.88 157.38 C 270.42 163.75 267.21 170.60 266.00 173.62 C 264.79 176.65 267.12 172.17 265.62 175.50 C 264.12 178.83 258.40 190.38 257.00 193.62 C 255.60 196.88 252.98 194.79 257.25 195.00 C 261.52 195.21 278.25 195.02 282.62 194.88 C 287.00 194.73 282.62 195.54 283.50 194.12 C 284.38 192.71 285.52 190.92 287.88 186.38 C 290.23 181.83 294.33 173.75 297.62 166.88 C 300.92 160.00 304.21 153.00 307.62 145.12 C 311.04 137.25 315.27 126.04 318.12 119.62 C 320.98 113.21 323.60 109.15 324.75 106.62 C 325.90 104.10 324.46 106.15 325.00 104.50 C 325.54 102.85 326.38 100.17 328.00 96.75 C 329.62 93.33 333.46 86.71 334.75 84.00 C 336.04 81.29 335.58 81.90 335.75 80.50 C 335.92 79.10 335.94 76.94 335.75 75.62 C 335.56 74.31 335.33 73.88 334.62 72.62 C 333.92 71.38 332.88 69.73 331.50 68.12 C 330.12 66.52 328.73 65.02 326.38 63.00 C 324.02 60.98 320.25 57.83 317.38 56.00 C 314.50 54.17 311.10 52.83 309.12 52.00 Z" id="s-11-f-2"/>
<path d="M 309.12 52.00 C 307.15 51.17 306.88 51.17 305.50 51.00 C 304.12 50.83 302.10 50.67 300.88 51.00 C 299.65 51.33 298.73 52.38 298.12 53.00 C 297.52 53.62 297.65 50.77 297.25 54.75 C 296.85 58.73 296.67 69.50 295.75 76.88 C 294.83 84.25 293.58 91.33 291.75 99.00 C 289.92 106.67 286.62 116.69 284.75 122.88 C 282.88 129.06 281.79 132.40 280.50 136.12 C 279.21 139.85 277.56 143.46 277.00 145.25 C 276.44 147.04 272.56 146.58 277.12 146.88 C 281.69 147.17 299.44 147.04 304.38 147.00 C 309.31 146.96 304.46 151.19 306.75 146.62 C 309.04 142.06 315.12 126.29 318.12 119.62 C 321.12 112.96 323.60 109.15 324.75 106.62 C 325.90 104.10 324.46 106.15 325.00 104.50 C 325.54 102.85 326.38 100.17 328.00 96.75 C 329.62 93.33 333.46 86.71 334.75 84.00 C 336.04 81.29 335.58 81.90 335.75 80.50 C 335.92 79.10 336.08 77.19 335.75 75.62 C 335.42 74.06 334.50 72.42 333.75 71.12 C 333.00 69.83 332.48 69.23 331.25 67.88 C 330.02 66.52 328.69 64.98 326.38 63.00 C 324.06 61.02 320.25 57.83 317.38 56.00 C 314.50 54.17 311.10 52.83 309.12 52.00 Z" id="s-11-f-3"/>
<path d="M 300.38 51.12 C 299.02 51.44 298.69 52.25 298.12 53.00 C 297.56 53.75 297.40 51.65 297.00 55.62 C 296.60 59.60 296.58 69.81 295.75 76.88 C 294.92 83.94 292.29 94.40 292.00 98.00 C 291.71 101.60 292.27 98.35 294.00 98.50 C 295.73 98.65 296.90 98.81 302.38 98.88 C 307.85 98.94 322.65 99.02 326.88 98.88 C 331.10 98.73 327.04 99.42 327.75 98.00 C 328.46 96.58 330.15 92.31 331.12 90.38 C 332.10 88.44 332.85 87.98 333.62 86.38 C 334.40 84.77 335.40 82.56 335.75 80.75 C 336.10 78.94 336.08 77.10 335.75 75.50 C 335.42 73.90 334.50 72.40 333.75 71.12 C 333.00 69.85 332.48 69.23 331.25 67.88 C 330.02 66.52 328.69 64.98 326.38 63.00 C 324.06 61.02 319.85 57.67 317.38 56.00 C 314.90 54.33 313.35 53.81 311.50 53.00 C 309.65 52.19 308.10 51.44 306.25 51.12 C 304.40 50.81 301.73 50.81 300.38 51.12 Z" id="s-11-f-4"/>
</g>
<g id="s-12" clip-path="url(#c-s-12)">
<use href="#s-12-f-0"/>
<path d="M 323.75 106.25 C 323.60 106.62 324.21 106.38 323.38 108.12 C 322.54 109.88 319.52 115.04 318.75 116.75 C 317.98 118.46 318.08 117.10 318.75 118.38 C 319.42 119.65 321.21 121.56 322.75 124.38 C 324.29 127.19 324.15 128.58 328.00 135.25 C 331.85 141.92 340.40 155.90 345.88 164.38 C 351.35 172.85 356.40 179.92 360.88 186.12 C 365.35 192.33 370.10 198.98 372.75 201.62 C 375.40 204.27 367.81 201.94 376.75 202.00 C 385.69 202.06 417.50 202.06 426.38 202.00 C 435.25 201.94 429.44 201.79 430.00 201.62 C 430.56 201.46 430.67 201.48 429.75 201.00 C 428.83 200.52 427.21 200.12 424.50 198.75 C 421.79 197.38 417.75 195.27 413.50 192.75 C 409.25 190.23 403.35 186.50 399.00 183.62 C 394.65 180.75 391.54 178.75 387.38 175.50 C 383.21 172.25 378.38 168.12 374.00 164.12 C 369.62 160.12 364.81 155.31 361.12 151.50 C 357.44 147.69 356.48 146.83 351.88 141.25 C 347.27 135.67 337.85 123.75 333.50 118.00 C 329.15 112.25 327.29 108.77 325.75 106.75 C 324.21 104.73 324.58 105.96 324.25 105.88 C 323.92 105.79 323.90 105.88 323.75 106.25 Z" id="s-12-f-1"/>
<path d="M 323.88 106.00 C 323.48 106.23 324.23 106.33 323.38 108.12 C 322.52 109.92 319.54 115.08 318.75 116.75 C 317.96 118.42 317.96 116.85 318.62 118.12 C 319.29 119.40 321.35 121.81 322.75 124.38 C 324.15 126.94 324.31 128.69 327.00 133.50 C 329.69 138.31 336.77 149.85 338.88 153.25 C 340.98 156.65 335.62 153.79 339.62 153.88 C 343.62 153.96 359.04 153.92 362.88 153.75 C 366.71 153.58 364.46 154.96 362.62 152.88 C 360.79 150.79 355.02 144.83 351.88 141.25 C 348.73 137.67 346.81 135.25 343.75 131.38 C 340.69 127.50 336.50 122.10 333.50 118.00 C 330.50 113.90 327.35 108.75 325.75 106.75 C 324.15 104.75 324.27 105.77 323.88 106.00 Z" id="s-12-f-2"/>
</g>
<g id="s-13" clip-path="url(#c-s-13)">
<use href="#s-13-f-0"/>
<path d="M 364.00 234.75 C 363.81 233.04 363.79 233.62 362.75 233.00 C 361.71 232.38 360.60 231.62 357.75 231.00 C 354.90 230.38 349.00 229.60 345.62 229.25 C 342.25 228.90 344.75 227.29 337.50 228.88 C 330.25 230.46 310.96 236.44 302.12 238.75 C 293.29 241.06 288.50 242.00 284.50 242.75 C 280.50 243.50 280.50 242.88 278.12 243.25 C 275.75 243.62 271.88 244.46 270.25 245.00 C 268.62 245.54 268.77 245.92 268.38 246.50 C 267.98 247.08 267.83 247.90 267.88 248.50 C 267.92 249.10 268.02 249.42 268.62 250.12 C 269.23 250.83 270.50 252.00 271.50 252.75 C 272.50 253.50 273.21 253.96 274.62 254.62 C 276.04 255.29 278.10 256.23 280.00 256.75 C 281.90 257.27 283.10 257.58 286.00 257.75 C 288.90 257.92 293.27 258.23 297.38 257.75 C 301.48 257.27 303.54 256.21 310.62 254.88 C 317.71 253.54 333.46 251.06 339.88 249.75 C 346.29 248.44 345.58 247.85 349.12 247.00 C 352.67 246.15 358.67 245.25 361.12 244.62 C 363.58 244.00 363.40 244.90 363.88 243.25 C 364.35 241.60 364.19 236.46 364.00 234.75 Z" id="s-13-f-1"/>
<path d="M 315.88 235.62 C 315.73 232.56 316.75 234.77 315.12 235.12 C 313.50 235.48 311.23 236.48 306.12 237.75 C 301.02 239.02 289.88 241.71 284.50 242.75 C 279.12 243.79 276.23 243.62 273.88 244.00 C 271.52 244.38 271.25 244.62 270.38 245.00 C 269.50 245.38 269.04 245.85 268.62 246.25 C 268.21 246.65 267.98 246.92 267.88 247.38 C 267.77 247.83 267.48 248.17 268.00 249.00 C 268.52 249.83 269.90 251.44 271.00 252.38 C 272.10 253.31 273.12 253.90 274.62 254.62 C 276.12 255.35 278.10 256.23 280.00 256.75 C 281.90 257.27 283.08 257.58 286.00 257.75 C 288.92 257.92 292.83 258.29 297.50 257.75 C 302.17 257.21 310.92 255.21 314.00 254.50 C 317.08 253.79 315.69 256.65 316.00 253.50 C 316.31 250.35 316.02 238.69 315.88 235.62 Z" id="s-13-f-2"/>
</g>
<g id="s-14" clip-path="url(#c-s-14)">
<use href="#s-14-f-0"/>
<path d="M 413.88 311.75 C 414.02 310.67 413.81 309.12 413.62 308.12 C 413.44 307.12 413.21 306.60 412.75 305.75 C 412.29 304.90 411.94 304.25 410.88 303.00 C 409.81 301.75 408.29 299.94 406.38 298.25 C 404.46 296.56 401.31 294.23 399.38 292.88 C 397.44 291.52 397.08 291.27 394.75 290.12 C 392.42 288.98 388.65 287.35 385.38 286.00 C 382.10 284.65 377.98 283.00 375.12 282.00 C 372.27 281.00 370.27 280.31 368.25 280.00 C 366.23 279.69 365.00 279.67 363.00 280.12 C 361.00 280.58 361.21 281.15 356.25 282.75 C 351.29 284.35 341.98 287.42 333.25 289.75 C 324.52 292.08 313.46 294.75 303.88 296.75 C 294.29 298.75 285.85 300.35 275.75 301.75 C 265.65 303.15 249.12 304.40 243.25 305.12 C 237.38 305.85 241.23 305.60 240.50 306.12 C 239.77 306.65 239.12 307.56 238.88 308.25 C 238.62 308.94 238.46 309.31 239.00 310.25 C 239.54 311.19 241.00 312.81 242.12 313.88 C 243.25 314.94 244.29 315.67 245.75 316.62 C 247.21 317.58 248.58 318.46 250.88 319.62 C 253.17 320.79 257.44 322.77 259.50 323.62 C 261.56 324.48 262.08 324.54 263.25 324.75 C 264.42 324.96 264.96 325.06 266.50 324.88 C 268.04 324.69 265.23 325.60 272.50 323.62 C 279.77 321.65 302.50 315.10 310.12 313.00 C 317.75 310.90 316.40 311.38 318.25 311.00 C 320.10 310.62 319.73 311.10 321.25 310.75 C 322.77 310.40 325.10 309.38 327.38 308.88 C 329.65 308.38 333.35 308.06 334.88 307.75 C 336.40 307.44 333.81 307.46 336.50 307.00 C 339.19 306.54 348.02 305.31 351.00 305.00 C 353.98 304.69 353.40 304.88 354.38 305.12 C 355.35 305.38 356.31 306.02 356.88 306.50 C 357.44 306.98 357.60 307.42 357.75 308.00 C 357.90 308.58 357.90 309.21 357.75 310.00 C 357.60 310.79 357.65 311.08 356.88 312.75 C 356.10 314.42 354.83 316.27 353.12 320.00 C 351.42 323.73 350.38 327.42 346.62 335.12 C 342.88 342.83 335.06 358.06 330.62 366.25 C 326.19 374.44 321.67 381.02 320.00 384.25 C 318.33 387.48 320.10 385.17 320.62 385.62 C 321.15 386.08 320.62 386.77 323.12 387.00 C 325.62 387.23 333.23 387.08 335.62 387.00 C 338.02 386.92 332.92 391.23 337.50 386.50 C 342.08 381.77 356.98 365.19 363.12 358.62 C 369.27 352.06 369.81 351.42 374.38 347.12 C 378.94 342.83 384.73 337.56 390.50 332.88 C 396.27 328.19 405.29 322.04 409.00 319.00 C 412.71 315.96 411.94 315.83 412.75 314.62 C 413.56 313.42 413.73 312.83 413.88 311.75 Z" id="s-14-f-1"/>
<path d="M 413.88 311.75 C 413.88 310.94 413.81 309.12 413.62 308.12 C 413.44 307.12 413.21 306.60 412.75 305.75 C 412.29 304.90 411.96 304.27 410.88 303.00 C 409.79 301.73 408.17 299.81 406.25 298.12 C 404.33 296.44 401.29 294.21 399.38 292.88 C 397.46 291.54 397.08 291.27 394.75 290.12 C 392.42 288.98 388.65 287.35 385.38 286.00 C 382.10 284.65 377.98 283.00 375.12 282.00 C 372.27 281.00 370.27 280.31 368.25 280.00 C 366.23 279.69 365.00 279.67 363.00 280.12 C 361.00 280.58 361.21 281.15 356.25 282.75 C 351.29 284.35 343.56 287.08 333.25 289.75 C 322.94 292.42 303.96 296.75 294.38 298.75 C 284.79 300.75 284.27 300.69 275.75 301.75 C 267.23 302.81 249.12 304.40 243.25 305.12 C 237.38 305.85 241.23 305.60 240.50 306.12 C 239.77 306.65 239.12 307.56 238.88 308.25 C 238.62 308.94 238.77 309.62 239.00 310.25 C 239.23 310.88 239.12 310.94 240.25 312.00 C 241.38 313.06 243.69 315.21 245.75 316.62 C 247.81 318.04 250.33 319.33 252.62 320.50 C 254.92 321.67 257.73 322.92 259.50 323.62 C 261.27 324.33 262.08 324.54 263.25 324.75 C 264.42 324.96 264.96 325.06 266.50 324.88 C 268.04 324.69 265.23 325.60 272.50 323.62 C 279.77 321.65 302.50 315.10 310.12 313.00 C 317.75 310.90 316.40 311.38 318.25 311.00 C 320.10 310.62 319.73 311.10 321.25 310.75 C 322.77 310.40 325.92 309.21 327.38 308.88 C 328.83 308.54 329.27 308.90 330.00 308.75 C 330.73 308.60 330.94 308.17 331.75 308.00 C 332.56 307.83 333.96 307.94 334.88 307.75 C 335.79 307.56 336.19 307.06 337.25 306.88 C 338.31 306.69 340.31 306.77 341.25 306.62 C 342.19 306.48 341.25 306.27 342.88 306.00 C 344.50 305.73 349.12 305.15 351.00 305.00 C 352.88 304.85 353.15 304.88 354.12 305.12 C 355.10 305.38 356.27 306.02 356.88 306.50 C 357.48 306.98 357.60 307.42 357.75 308.00 C 357.90 308.58 357.94 309.10 357.75 310.00 C 357.56 310.90 357.40 311.71 356.62 313.38 C 355.85 315.04 354.58 316.83 353.12 320.00 C 351.67 323.17 349.21 329.44 347.88 332.38 C 346.54 335.31 345.58 336.56 345.12 337.62 C 344.67 338.69 344.73 338.52 345.12 338.75 C 345.52 338.98 341.08 339.00 347.50 339.00 C 353.92 339.00 375.60 340.44 383.62 338.75 C 391.65 337.06 391.40 332.17 395.62 328.88 C 399.85 325.58 406.29 321.17 409.00 319.00 C 411.71 316.83 411.10 316.88 411.88 315.88 C 412.65 314.88 413.29 313.69 413.62 313.00 C 413.96 312.31 413.88 312.56 413.88 311.75 Z" id="s-14-f-2"/>
<path d="M 395.12 290.75 C 395.08 290.46 397.83 291.46 394.50 290.00 C 391.17 288.54 379.46 283.67 375.12 282.00 C 370.79 280.33 370.42 280.33 368.50 280.00 C 366.58 279.67 365.67 279.54 363.62 280.00 C 361.58 280.46 361.31 281.12 356.25 282.75 C 351.19 284.38 339.73 287.92 333.25 289.75 C 326.77 291.58 323.85 292.25 317.38 293.75 C 310.90 295.25 302.60 297.25 294.38 298.75 C 286.15 300.25 276.52 301.69 268.00 302.75 C 259.48 303.81 247.83 304.56 243.25 305.12 C 238.67 305.69 241.19 305.73 240.50 306.12 C 239.81 306.52 239.40 306.94 239.12 307.50 C 238.85 308.06 238.88 309.00 238.88 309.50 C 238.88 310.00 238.67 309.83 239.12 310.50 C 239.58 311.17 240.52 312.48 241.62 313.50 C 242.73 314.52 244.21 315.60 245.75 316.62 C 247.29 317.65 248.06 318.29 250.88 319.62 C 253.69 320.96 259.83 323.77 262.62 324.62 C 265.42 325.48 261.60 326.19 267.62 324.75 C 273.65 323.31 288.92 318.62 298.75 316.00 C 308.58 313.38 320.38 310.50 326.62 309.00 C 332.88 307.50 331.96 307.69 336.25 307.00 C 340.54 306.31 349.02 305.40 352.38 304.88 C 355.73 304.35 350.31 305.81 356.38 303.88 C 362.44 301.94 382.35 295.27 388.75 293.25 C 395.15 291.23 393.69 292.17 394.75 291.75 C 395.81 291.33 395.17 291.04 395.12 290.75 Z" id="s-14-f-3"/>
<path d="M 382.88 285.50 C 382.77 283.94 383.21 285.29 382.38 284.88 C 381.54 284.46 380.08 283.79 377.88 283.00 C 375.67 282.21 371.50 280.62 369.12 280.12 C 366.75 279.62 365.77 279.56 363.62 280.00 C 361.48 280.44 361.31 281.12 356.25 282.75 C 351.19 284.38 343.54 287.08 333.25 289.75 C 322.96 292.42 305.38 296.58 294.50 298.75 C 283.62 300.92 276.54 301.69 268.00 302.75 C 259.46 303.81 247.83 304.56 243.25 305.12 C 238.67 305.69 241.19 305.73 240.50 306.12 C 239.81 306.52 239.38 306.81 239.12 307.50 C 238.88 308.19 238.58 309.25 239.00 310.25 C 239.42 311.25 240.50 312.44 241.62 313.50 C 242.75 314.56 243.50 315.25 245.75 316.62 C 248.00 318.00 252.21 320.40 255.12 321.75 C 258.04 323.10 260.92 324.29 263.25 324.75 C 265.58 325.21 263.21 325.96 269.12 324.50 C 275.04 323.04 289.88 318.42 298.75 316.00 C 307.62 313.58 316.12 311.50 322.38 310.00 C 328.62 308.50 331.15 307.88 336.25 307.00 C 341.35 306.12 345.48 306.60 353.00 304.75 C 360.52 302.90 376.46 297.46 381.38 295.88 C 386.29 294.29 382.23 295.52 382.50 295.25 C 382.77 294.98 382.94 295.88 383.00 294.25 C 383.06 292.62 382.98 287.06 382.88 285.50 Z" id="s-14-f-4"/>
<path d="M 334.88 289.62 C 334.71 286.90 337.65 288.40 334.00 289.25 C 330.35 290.10 319.60 293.17 313.00 294.75 C 306.40 296.33 299.44 297.75 294.38 298.75 C 289.31 299.75 288.50 299.92 282.62 300.75 C 276.75 301.58 265.71 303.02 259.12 303.75 C 252.54 304.48 246.17 304.77 243.12 305.12 C 240.08 305.48 241.54 305.48 240.88 305.88 C 240.21 306.27 239.44 306.77 239.12 307.50 C 238.81 308.23 238.67 309.33 239.00 310.25 C 239.33 311.17 240.19 312.06 241.12 313.00 C 242.06 313.94 242.29 314.42 244.62 315.88 C 246.96 317.33 252.02 320.27 255.12 321.75 C 258.23 323.23 260.94 324.29 263.25 324.75 C 265.56 325.21 261.19 326.46 269.00 324.50 C 276.81 322.54 300.52 315.58 310.12 313.00 C 319.73 310.42 322.60 309.90 326.62 309.00 C 330.65 308.10 332.88 307.96 334.25 307.62 C 335.62 307.29 334.75 307.33 334.88 307.00 C 335.00 306.67 335.00 308.52 335.00 305.62 C 335.00 302.73 335.04 292.35 334.88 289.62 Z" id="s-14-f-5"/>
<path d="M 287.00 300.50 C 286.79 297.29 288.65 299.62 285.50 300.00 C 282.35 300.38 275.19 301.90 268.12 302.75 C 261.06 303.60 247.67 304.60 243.12 305.12 C 238.58 305.65 241.54 305.48 240.88 305.88 C 240.21 306.27 239.44 306.77 239.12 307.50 C 238.81 308.23 238.67 309.33 239.00 310.25 C 239.33 311.17 240.19 312.06 241.12 313.00 C 242.06 313.94 242.29 314.42 244.62 315.88 C 246.96 317.33 252.15 320.29 255.12 321.75 C 258.10 323.21 260.56 324.10 262.50 324.62 C 264.44 325.15 262.79 325.69 266.75 324.88 C 270.71 324.06 282.92 320.69 286.25 319.75 C 289.58 318.81 286.62 322.46 286.75 319.25 C 286.88 316.04 287.21 303.71 287.00 300.50 Z" id="s-14-f-6"/>
</g>
<g id="s-15" clip-path="url(#c-s-15)">
<use href="#s-15-f-0"/>
<path d="M 270.38 370.00 C 269.19 370.38 269.75 371.50 270.00 372.38 C 270.25 373.25 271.12 374.33 271.88 375.25 C 272.62 376.17 273.25 376.88 274.50 377.88 C 275.75 378.88 276.90 379.23 279.38 381.25 C 281.85 383.27 285.71 386.52 289.38 390.00 C 293.04 393.48 296.67 397.15 301.38 402.12 C 306.08 407.10 314.85 417.31 317.62 419.88 C 320.40 422.44 317.96 423.46 318.00 417.50 C 318.04 411.54 320.19 390.69 317.88 384.12 C 315.56 377.56 309.29 380.15 304.12 378.12 C 298.96 376.10 291.38 373.33 286.88 372.00 C 282.38 370.67 279.88 370.46 277.12 370.12 C 274.38 369.79 271.56 369.62 270.38 370.00 Z" id="s-15-f-1"/>
</g>
</svg>