<?xml version="1.0" encoding="UTF-8"?>
<svg xmlns="http://www.w3.org/2000/svg" viewBox="0 0 500 500">
<defs>
<path d="M 234.88 92.25 C 234.73 91.54 234.40 90.44 233.88 89.75 C 233.35 89.06 232.81 88.58 231.75 88.12 C 230.69 87.67 229.58 87.19 227.50 87.00 C 225.42 86.81 224.52 86.21 219.25 87.00 C 213.98 87.79 200.31 90.94 195.88 91.75 C 191.44 92.56 198.04 90.90 192.62 91.88 C 187.21 92.85 172.90 95.96 163.38 97.62 C 153.85 99.29 143.48 101.02 135.50 101.88 C 127.52 102.73 121.65 102.90 115.50 102.75 C 109.35 102.60 102.54 101.29 98.62 101.00 C 94.71 100.71 93.46 100.85 92.00 101.00 C 90.54 101.15 90.40 101.56 89.88 101.88 C 89.35 102.19 89.19 102.40 88.88 102.88 C 88.56 103.35 88.17 103.96 88.00 104.75 C 87.83 105.54 87.71 106.69 87.88 107.62 C 88.04 108.56 88.35 109.27 89.00 110.38 C 89.65 111.48 89.62 111.96 91.75 114.25 C 93.88 116.54 99.08 121.67 101.75 124.12 C 104.42 126.58 105.81 127.56 107.75 129.00 C 109.69 130.44 111.38 131.65 113.38 132.75 C 115.38 133.85 117.75 135.12 119.75 135.62 C 121.75 136.12 123.54 136.06 125.38 135.75 C 127.21 135.44 129.38 134.38 130.75 133.75 C 132.12 133.12 131.25 133.10 133.62 132.00 C 136.00 130.90 139.06 129.44 145.00 127.12 C 150.94 124.81 164.40 119.83 169.25 118.12 C 174.10 116.42 169.98 118.25 174.12 116.88 C 178.27 115.50 190.65 111.17 194.12 109.88 C 197.60 108.58 192.73 109.81 195.00 109.12 C 197.27 108.44 202.15 107.48 207.75 105.75 C 213.35 104.02 224.29 100.46 228.62 98.75 C 232.96 97.04 232.73 96.29 233.75 95.50 C 234.77 94.71 234.56 94.54 234.75 94.00 C 234.94 93.46 235.02 92.96 234.88 92.25 Z" id="s-0-f-0"/>
<clipPath id="c-s-0"><use href="#s-0-f-0"/></clipPath>
<path d="M 157.50 41.25 C 155.44 41.52 155.71 42.02 155.00 42.62 C 154.29 43.23 153.60 44.21 153.25 44.88 C 152.90 45.54 152.90 45.60 152.88 46.62 C 152.85 47.65 152.73 49.23 153.12 51.00 C 153.52 52.77 154.31 54.88 155.25 57.25 C 156.19 59.62 157.67 62.40 158.75 65.25 C 159.83 68.10 160.27 69.27 161.75 74.38 C 163.23 79.48 166.65 91.73 167.62 95.88 C 168.60 100.02 167.52 98.56 167.62 99.25 C 167.73 99.94 168.08 99.40 168.25 100.00 C 168.42 100.60 168.46 102.27 168.62 102.88 C 168.79 103.48 169.08 102.90 169.25 103.62 C 169.42 104.35 169.44 106.46 169.62 107.25 C 169.81 108.04 170.04 107.04 170.38 108.38 C 170.71 109.71 171.25 114.00 171.62 115.25 C 172.00 116.50 171.04 110.12 172.62 115.88 C 174.21 121.62 179.40 143.23 181.12 149.75 C 182.85 156.27 182.19 153.25 183.00 155.00 C 183.81 156.75 185.06 158.96 186.00 160.25 C 186.94 161.54 187.88 162.17 188.62 162.75 C 189.38 163.33 189.75 163.60 190.50 163.75 C 191.25 163.90 192.29 164.04 193.12 163.62 C 193.96 163.21 194.73 162.50 195.50 161.25 C 196.27 160.00 197.19 157.92 197.75 156.12 C 198.31 154.33 198.73 152.81 198.88 150.50 C 199.02 148.19 199.10 148.90 198.62 142.25 C 198.15 135.60 196.42 117.77 196.00 110.62 C 195.58 103.48 196.15 101.67 196.12 99.38 C 196.10 97.08 196.00 97.38 195.88 96.88 C 195.75 96.38 195.40 96.56 195.38 96.38 C 195.35 96.19 195.83 96.60 195.75 95.75 C 195.67 94.90 195.17 93.94 194.88 91.25 C 194.58 88.56 194.19 86.10 194.00 79.62 C 193.81 73.15 194.27 57.56 193.75 52.38 C 193.23 47.19 191.94 49.56 190.88 48.50 C 189.81 47.44 188.31 46.56 187.38 46.00 C 186.44 45.44 187.44 45.77 185.25 45.12 C 183.06 44.48 177.23 42.81 174.25 42.12 C 171.27 41.44 170.17 41.15 167.38 41.00 C 164.58 40.85 159.56 40.98 157.50 41.25 Z" id="s-1-f-0"/>
<clipPath id="c-s-1"><use href="#s-1-f-0"/></clipPath>
<path d="M 411.88 88.50 C 411.81 87.92 412.12 88.25 411.38 87.50 C 410.62 86.75 409.50 85.42 407.38 84.00 C 405.25 82.58 402.27 80.50 398.62 79.00 C 394.98 77.50 388.54 75.83 385.50 75.00 C 382.46 74.17 381.94 74.19 380.38 74.00 C 378.81 73.81 381.96 72.94 376.12 73.88 C 370.29 74.81 356.31 77.79 345.38 79.62 C 334.44 81.46 317.69 83.69 310.50 84.88 C 303.31 86.06 306.58 85.94 302.25 86.75 C 297.92 87.56 292.00 88.69 284.50 89.75 C 277.00 90.81 262.50 92.27 257.25 93.12 C 252.00 93.98 253.90 94.35 253.00 94.88 C 252.10 95.40 252.06 95.83 251.88 96.25 C 251.69 96.67 251.67 96.85 251.88 97.38 C 252.08 97.90 252.56 98.75 253.12 99.38 C 253.69 100.00 252.92 99.73 255.25 101.12 C 257.58 102.52 263.90 106.17 267.12 107.75 C 270.35 109.33 272.62 110.10 274.62 110.62 C 276.62 111.15 274.73 111.48 279.12 110.88 C 283.52 110.27 296.77 107.67 301.00 107.00 C 305.23 106.33 300.54 107.42 304.50 106.88 C 308.46 106.33 320.29 104.58 324.75 103.75 C 329.21 102.92 326.83 102.50 331.25 101.88 C 335.67 101.25 345.10 100.46 351.25 100.00 C 357.40 99.54 360.90 99.35 368.12 99.12 C 375.35 98.90 389.23 98.85 394.62 98.62 C 400.02 98.40 398.46 98.23 400.50 97.75 C 402.54 97.27 405.44 96.31 406.88 95.75 C 408.31 95.19 408.31 95.17 409.12 94.38 C 409.94 93.58 411.29 91.98 411.75 91.00 C 412.21 90.02 411.94 89.08 411.88 88.50 Z" id="s-2-f-0"/>
<clipPath id="c-s-2"><use href="#s-2-f-0"/></clipPath>
<path d="M 328.00 30.12 C 325.94 29.29 325.50 29.17 323.75 29.00 C 322.00 28.83 318.85 28.98 317.50 29.12 C 316.15 29.27 316.42 29.31 315.62 29.88 C 314.83 30.44 313.52 31.52 312.75 32.50 C 311.98 33.48 311.29 34.73 311.00 35.75 C 310.71 36.77 310.71 36.52 311.00 38.62 C 311.29 40.73 312.46 46.10 312.75 48.38 C 313.04 50.65 312.92 49.90 312.75 52.25 C 312.58 54.60 312.25 58.90 311.75 62.50 C 311.25 66.10 310.62 69.81 309.75 73.88 C 308.88 77.94 307.19 84.60 306.50 86.88 C 305.81 89.15 305.81 86.90 305.62 87.50 C 305.44 88.10 305.54 89.83 305.38 90.50 C 305.21 91.17 304.79 90.67 304.62 91.50 C 304.46 92.33 304.54 94.77 304.38 95.50 C 304.21 96.23 303.96 94.60 303.62 95.88 C 303.29 97.15 302.71 101.73 302.38 103.12 C 302.04 104.52 301.77 103.42 301.62 104.25 C 301.48 105.08 302.85 103.83 301.50 108.12 C 300.15 112.42 296.58 122.19 293.50 130.00 C 290.42 137.81 284.69 150.54 283.00 155.00 C 281.31 159.46 282.90 156.29 283.38 156.75 C 283.85 157.21 285.10 157.58 285.88 157.75 C 286.65 157.92 287.17 158.06 288.00 157.75 C 288.83 157.44 289.02 157.52 290.88 155.88 C 292.73 154.23 296.48 150.77 299.12 147.88 C 301.77 144.98 304.48 141.54 306.75 138.50 C 309.02 135.46 310.58 133.02 312.75 129.62 C 314.92 126.23 317.15 122.75 319.75 118.12 C 322.35 113.50 326.79 104.67 328.38 101.88 C 329.96 99.08 329.08 101.62 329.25 101.38 C 329.42 101.12 329.06 101.02 329.38 100.38 C 329.69 99.73 330.79 98.23 331.12 97.50 C 331.46 96.77 331.23 96.33 331.38 96.00 C 331.52 95.67 331.67 96.21 332.00 95.50 C 332.33 94.79 332.85 92.88 333.38 91.75 C 333.90 90.62 334.81 89.44 335.12 88.75 C 335.44 88.06 335.08 88.00 335.25 87.62 C 335.42 87.25 335.94 86.94 336.12 86.50 C 336.31 86.06 336.06 85.69 336.38 85.00 C 336.69 84.31 337.69 83.17 338.00 82.38 C 338.31 81.58 336.92 83.35 338.25 80.25 C 339.58 77.15 343.92 67.77 346.00 63.75 C 348.08 59.73 349.79 57.83 350.75 56.12 C 351.71 54.42 351.58 54.56 351.75 53.50 C 351.92 52.44 351.92 50.79 351.75 49.75 C 351.58 48.71 351.38 48.29 350.75 47.25 C 350.12 46.21 349.04 44.71 348.00 43.50 C 346.96 42.29 346.48 41.58 344.50 40.00 C 342.52 38.42 338.88 35.65 336.12 34.00 C 333.38 32.35 330.06 30.96 328.00 30.12 Z" id="s-3-f-0"/>
<clipPath id="c-s-3"><use href="#s-3-f-0"/></clipPath>
<path d="M 363.88 191.38 C 364.04 190.50 364.10 189.81 363.75 188.62 C 363.40 187.44 362.85 185.92 361.75 184.25 C 360.65 182.58 358.52 180.17 357.12 178.62 C 355.73 177.08 355.04 176.46 353.38 175.00 C 351.71 173.54 350.50 172.02 347.12 169.88 C 343.75 167.73 336.42 163.77 333.12 162.12 C 329.83 160.48 328.98 160.33 327.38 160.00 C 325.77 159.67 328.35 159.17 323.50 160.12 C 318.65 161.08 305.21 164.31 298.25 165.75 C 291.29 167.19 289.56 167.44 281.75 168.75 C 273.94 170.06 262.25 172.06 251.38 173.62 C 240.50 175.19 226.15 176.77 216.50 178.12 C 206.85 179.48 201.52 180.65 193.50 181.75 C 185.48 182.85 176.06 183.98 168.38 184.75 C 160.69 185.52 154.21 186.00 147.38 186.38 C 140.54 186.75 131.33 186.69 127.38 187.00 C 123.42 187.31 124.35 187.85 123.62 188.25 C 122.90 188.65 123.04 188.94 123.00 189.38 C 122.96 189.81 122.75 189.96 123.38 190.88 C 124.00 191.79 124.69 193.08 126.75 194.88 C 128.81 196.67 132.60 199.65 135.75 201.62 C 138.90 203.60 142.92 205.58 145.62 206.75 C 148.33 207.92 150.38 208.27 152.00 208.62 C 153.62 208.98 153.81 208.88 155.38 208.88 C 156.94 208.88 157.85 209.27 161.38 208.62 C 164.90 207.98 168.10 206.60 176.50 205.00 C 184.90 203.40 205.44 200.00 211.75 199.00 C 218.06 198.00 211.46 199.35 214.38 199.00 C 217.29 198.65 224.35 197.71 229.25 196.88 C 234.15 196.04 238.56 194.81 243.75 194.00 C 248.94 193.19 253.96 192.67 260.38 192.00 C 266.79 191.33 274.46 190.50 282.25 190.00 C 290.04 189.50 302.15 189.02 307.12 189.00 C 312.10 188.98 310.58 189.38 312.12 189.88 C 313.67 190.38 315.27 191.21 316.38 192.00 C 317.48 192.79 318.19 193.85 318.75 194.62 C 319.31 195.40 319.42 195.52 319.75 196.62 C 320.08 197.73 320.75 197.42 320.75 201.25 C 320.75 205.08 320.23 214.44 319.75 219.62 C 319.27 224.81 319.08 225.94 317.88 232.38 C 316.67 238.81 313.85 252.35 312.50 258.25 C 311.15 264.15 310.90 264.40 309.75 267.75 C 308.60 271.10 307.12 275.23 305.62 278.38 C 304.12 281.52 302.06 284.71 300.75 286.62 C 299.44 288.54 298.62 289.19 297.75 289.88 C 296.88 290.56 296.31 290.60 295.50 290.75 C 294.69 290.90 295.12 291.08 292.88 290.75 C 290.62 290.42 286.69 289.92 282.00 288.75 C 277.31 287.58 268.92 285.04 264.75 283.75 C 260.58 282.46 258.48 281.40 257.00 281.00 C 255.52 280.60 256.02 280.98 255.88 281.38 C 255.73 281.77 254.62 281.29 256.12 283.38 C 257.62 285.46 262.08 290.35 264.88 293.88 C 267.67 297.40 270.44 301.06 272.88 304.50 C 275.31 307.94 277.04 310.42 279.50 314.50 C 281.96 318.58 285.42 325.65 287.62 329.00 C 289.83 332.35 291.35 333.48 292.75 334.62 C 294.15 335.77 294.88 335.69 296.00 335.88 C 297.12 336.06 298.25 335.96 299.50 335.75 C 300.75 335.54 301.88 335.29 303.50 334.62 C 305.12 333.96 307.15 333.06 309.25 331.75 C 311.35 330.44 314.56 327.96 316.12 326.75 C 317.69 325.54 317.17 326.15 318.62 324.50 C 320.08 322.85 323.21 319.15 324.88 316.88 C 326.54 314.60 327.48 312.92 328.62 310.88 C 329.77 308.83 330.58 307.25 331.75 304.62 C 332.92 302.00 334.33 298.88 335.62 295.12 C 336.92 291.38 338.00 288.25 339.50 282.12 C 341.00 276.00 342.88 267.69 344.62 258.38 C 346.38 249.06 348.60 233.69 350.00 226.25 C 351.40 218.81 352.17 216.88 353.00 213.75 C 353.83 210.62 354.17 209.71 355.00 207.50 C 355.83 205.29 356.71 202.77 358.00 200.50 C 359.29 198.23 361.77 195.40 362.75 193.88 C 363.73 192.35 363.71 192.25 363.88 191.38 Z" id="s-4-f-0"/>
<clipPath id="c-s-4"><use href="#s-4-f-0"/></clipPath>
<path d="M 236.25 197.12 C 235.12 195.98 235.27 195.88 234.00 195.62 C 232.73 195.38 229.73 195.50 228.62 195.62 C 227.52 195.75 228.54 196.21 227.38 196.38 C 226.21 196.54 222.96 196.44 221.62 196.62 C 220.29 196.81 220.52 197.33 219.38 197.50 C 218.23 197.67 215.75 197.46 214.75 197.62 C 213.75 197.79 214.04 195.42 213.38 198.50 C 212.71 201.58 211.85 210.98 210.75 216.12 C 209.65 221.27 207.92 225.92 206.75 229.38 C 205.58 232.83 205.08 233.92 203.75 236.88 C 202.42 239.83 200.79 243.38 198.75 247.12 C 196.71 250.88 195.71 253.04 191.50 259.38 C 187.29 265.71 178.33 278.62 173.50 285.12 C 168.67 291.62 167.08 293.33 162.50 298.38 C 157.92 303.42 149.52 311.83 146.00 315.38 C 142.48 318.92 143.46 317.94 141.38 319.62 C 139.29 321.31 135.25 324.29 133.50 325.50 C 131.75 326.71 131.60 326.33 130.88 326.88 C 130.15 327.42 129.42 328.27 129.12 328.75 C 128.83 329.23 127.75 329.58 129.12 329.75 C 130.50 329.92 134.56 330.08 137.38 329.75 C 140.19 329.42 142.85 328.75 146.00 327.75 C 149.15 326.75 152.40 325.56 156.25 323.75 C 160.10 321.94 165.29 319.25 169.12 316.88 C 172.96 314.50 175.81 312.27 179.25 309.50 C 182.69 306.73 186.50 303.35 189.75 300.25 C 193.00 297.15 195.88 294.08 198.75 290.88 C 201.62 287.67 204.38 284.38 207.00 281.00 C 209.62 277.62 211.71 274.77 214.50 270.62 C 217.29 266.48 221.23 260.33 223.75 256.12 C 226.27 251.92 227.73 249.17 229.62 245.38 C 231.52 241.58 233.08 237.56 235.12 233.38 C 237.17 229.19 240.46 223.21 241.88 220.25 C 243.29 217.29 243.29 217.23 243.62 215.62 C 243.96 214.02 244.02 212.19 243.88 210.62 C 243.73 209.06 243.27 207.60 242.75 206.25 C 242.23 204.90 241.83 204.02 240.75 202.50 C 239.67 200.98 237.38 198.27 236.25 197.12 Z" id="s-5-f-0"/>
<clipPath id="c-s-5"><use href="#s-5-f-0"/></clipPath>
<path d="M 125.00 240.75 C 124.85 241.12 124.62 241.65 124.88 242.25 C 125.12 242.85 125.25 243.35 126.50 244.38 C 127.75 245.40 125.73 242.48 132.38 248.38 C 139.02 254.27 159.50 273.65 166.38 279.75 C 173.25 285.85 172.19 284.23 173.62 285.00 C 175.06 285.77 172.90 287.27 175.00 284.38 C 177.10 281.48 183.75 271.21 186.25 267.62 C 188.75 264.04 189.40 263.90 190.00 262.88 C 190.60 261.85 190.67 262.35 189.88 261.50 C 189.08 260.65 186.73 258.81 185.25 257.75 C 183.77 256.69 183.21 256.25 181.00 255.12 C 178.79 254.00 174.85 252.19 172.00 251.00 C 169.15 249.81 167.27 249.15 163.88 248.00 C 160.48 246.85 155.85 245.29 151.62 244.12 C 147.40 242.96 142.25 241.71 138.50 241.00 C 134.75 240.29 131.25 240.04 129.12 239.88 C 127.00 239.71 126.44 239.85 125.75 240.00 C 125.06 240.15 125.15 240.38 125.00 240.75 Z" id="s-6-f-0"/>
<clipPath id="c-s-6"><use href="#s-6-f-0"/></clipPath>
<path d="M 104.12 356.88 C 103.60 356.69 103.27 356.85 102.75 357.12 C 102.23 357.40 102.02 356.40 101.00 358.50 C 99.98 360.60 98.17 366.29 96.62 369.75 C 95.08 373.21 94.04 375.17 91.75 379.25 C 89.46 383.33 86.02 389.21 82.88 394.25 C 79.73 399.29 74.83 405.71 72.88 409.50 C 70.92 413.29 71.44 413.73 71.12 417.00 C 70.81 420.27 70.83 425.88 71.00 429.12 C 71.17 432.38 71.79 434.79 72.12 436.50 C 72.46 438.21 72.52 438.48 73.00 439.38 C 73.48 440.27 73.90 440.83 75.00 441.88 C 76.10 442.92 78.42 444.83 79.62 445.62 C 80.83 446.42 80.83 446.44 82.25 446.62 C 83.67 446.81 86.73 446.92 88.12 446.75 C 89.52 446.58 89.58 446.29 90.62 445.62 C 91.67 444.96 92.83 444.31 94.38 442.75 C 95.92 441.19 98.15 438.83 99.88 436.25 C 101.60 433.67 103.56 429.85 104.75 427.25 C 105.94 424.65 106.00 423.06 107.00 420.62 C 108.00 418.19 109.62 415.50 110.75 412.62 C 111.88 409.75 112.92 406.73 113.75 403.38 C 114.58 400.02 115.44 396.19 115.75 392.50 C 116.06 388.81 116.29 385.00 115.62 381.25 C 114.96 377.50 113.02 373.04 111.75 370.00 C 110.48 366.96 108.83 364.73 108.00 363.00 C 107.17 361.27 107.10 360.42 106.75 359.62 C 106.40 358.83 106.31 358.71 105.88 358.25 C 105.44 357.79 104.65 357.06 104.12 356.88 Z" id="s-7-f-0"/>
<clipPath id="c-s-7"><use href="#s-7-f-0"/></clipPath>
<path d="M 139.25 347.00 C 138.83 347.77 138.88 348.77 139.25 349.75 C 139.62 350.73 140.73 351.50 141.50 352.88 C 142.27 354.25 142.12 353.15 143.88 358.00 C 145.62 362.85 149.81 375.83 152.00 382.00 C 154.19 388.17 155.67 391.79 157.00 395.00 C 158.33 398.21 158.33 398.21 160.00 401.25 C 161.67 404.29 164.48 409.40 167.00 413.25 C 169.52 417.10 172.96 421.56 175.12 424.38 C 177.29 427.19 178.21 428.27 180.00 430.12 C 181.79 431.98 182.79 433.06 185.88 435.50 C 188.96 437.94 195.58 442.71 198.50 444.75 C 201.42 446.79 200.23 446.10 203.38 447.75 C 206.52 449.40 212.85 452.65 217.38 454.62 C 221.90 456.60 225.15 457.94 230.50 459.62 C 235.85 461.31 243.48 463.40 249.50 464.75 C 255.52 466.10 260.38 466.92 266.62 467.75 C 272.88 468.58 279.75 469.40 287.00 469.75 C 294.25 470.10 306.15 469.75 310.12 469.88 C 314.10 470.00 310.71 468.38 310.88 470.50 C 311.04 472.62 311.06 482.62 311.12 482.62 C 311.19 482.62 311.00 472.71 311.25 470.50 C 311.50 468.29 310.35 469.62 312.62 469.38 C 314.90 469.12 322.62 469.19 324.88 469.00 C 327.12 468.81 324.96 468.38 326.12 468.25 C 327.29 468.12 329.00 468.52 331.88 468.25 C 334.75 467.98 339.10 467.42 343.38 466.62 C 347.65 465.83 352.56 464.81 357.50 463.50 C 362.44 462.19 368.65 460.38 373.00 458.75 C 377.35 457.12 380.29 455.54 383.62 453.75 C 386.96 451.96 390.48 449.77 393.00 448.00 C 395.52 446.23 397.29 444.56 398.75 443.12 C 400.21 441.69 401.10 440.33 401.75 439.38 C 402.40 438.42 402.46 438.56 402.62 437.38 C 402.79 436.19 402.92 433.67 402.75 432.25 C 402.58 430.83 402.52 430.29 401.62 428.88 C 400.73 427.46 398.50 424.92 397.38 423.75 C 396.25 422.58 396.12 422.67 394.88 421.88 C 393.62 421.08 391.29 419.69 389.88 419.00 C 388.46 418.31 388.94 418.94 386.38 417.75 C 383.81 416.56 379.25 414.40 374.50 411.88 C 369.75 409.35 363.69 406.17 357.88 402.62 C 352.06 399.08 344.29 393.79 339.62 390.62 C 334.96 387.46 332.40 385.56 329.88 383.62 C 327.35 381.69 326.12 380.12 324.50 379.00 C 322.88 377.88 321.06 377.15 320.12 376.88 C 319.19 376.60 319.06 376.81 318.88 377.38 C 318.69 377.94 317.19 376.67 319.00 380.25 C 320.81 383.83 327.17 394.17 329.75 398.88 C 332.33 403.58 333.31 405.85 334.50 408.50 C 335.69 411.15 336.33 413.08 336.88 414.75 C 337.42 416.42 337.62 417.40 337.75 418.50 C 337.88 419.60 337.81 420.60 337.62 421.38 C 337.44 422.15 337.33 422.42 336.62 423.12 C 335.92 423.83 334.81 424.96 333.38 425.62 C 331.94 426.29 329.52 426.60 328.00 427.12 C 326.48 427.65 327.00 427.96 324.25 428.75 C 321.50 429.54 315.79 431.04 311.50 431.88 C 307.21 432.71 303.08 433.27 298.50 433.75 C 293.92 434.23 288.69 434.58 284.00 434.75 C 279.31 434.92 274.94 434.92 270.38 434.75 C 265.81 434.58 261.62 434.40 256.62 433.75 C 251.62 433.10 245.42 432.04 240.38 430.88 C 235.33 429.71 230.46 428.10 226.38 426.75 C 222.29 425.40 219.10 424.12 215.88 422.75 C 212.65 421.38 209.56 419.83 207.00 418.50 C 204.44 417.17 203.31 416.69 200.50 414.75 C 197.69 412.81 192.92 409.27 190.12 406.88 C 187.33 404.48 185.62 402.50 183.75 400.38 C 181.88 398.25 180.67 396.77 178.88 394.12 C 177.08 391.48 174.81 388.02 173.00 384.50 C 171.19 380.98 169.71 377.79 168.00 373.00 C 166.29 368.21 163.81 358.96 162.75 355.75 C 161.69 352.54 162.27 354.56 161.62 353.75 C 160.98 352.94 160.25 351.98 158.88 350.88 C 157.50 349.77 155.15 348.08 153.38 347.12 C 151.60 346.17 150.19 345.46 148.25 345.12 C 146.31 344.79 143.25 344.81 141.75 345.12 C 140.25 345.44 139.67 346.23 139.25 347.00 Z" id="s-8-f-0"/>
<clipPath id="c-s-8"><use href="#s-8-f-0"/></clipPath>
<path d="M 215.00 335.50 C 214.69 336.02 211.98 332.42 215.12 337.12 C 218.27 341.83 229.08 357.25 233.88 363.75 C 238.67 370.25 240.90 372.75 243.88 376.12 C 246.85 379.50 249.60 382.04 251.75 384.00 C 253.90 385.96 255.17 386.92 256.75 387.88 C 258.33 388.83 259.40 389.48 261.25 389.75 C 263.10 390.02 266.40 389.69 267.88 389.50 C 269.35 389.31 269.29 389.15 270.12 388.62 C 270.96 388.10 272.10 387.29 272.88 386.38 C 273.65 385.46 274.27 384.31 274.75 383.12 C 275.23 381.94 275.62 381.77 275.75 379.25 C 275.88 376.73 275.67 370.50 275.50 368.00 C 275.33 365.50 275.25 365.81 274.75 364.25 C 274.25 362.69 273.44 360.38 272.50 358.62 C 271.56 356.88 270.19 355.04 269.12 353.75 C 268.06 352.46 267.58 352.02 266.12 350.88 C 264.67 349.73 262.54 348.17 260.38 346.88 C 258.21 345.58 256.02 344.40 253.12 343.12 C 250.23 341.85 246.40 340.44 243.00 339.25 C 239.60 338.06 235.73 336.83 232.75 336.00 C 229.77 335.17 227.06 334.60 225.12 334.25 C 223.19 333.90 222.48 333.92 221.12 333.88 C 219.77 333.83 218.02 333.73 217.00 334.00 C 215.98 334.27 215.31 334.98 215.00 335.50 Z" id="s-9-f-0"/>
<clipPath id="c-s-9"><use href="#s-9-f-0"/></clipPath>
<path d="M 352.75 320.00 C 351.73 320.19 352.00 320.71 351.88 321.25 C 351.75 321.79 351.67 322.44 352.00 323.25 C 352.33 324.06 351.96 324.06 353.88 326.12 C 355.79 328.19 361.08 333.12 363.50 335.62 C 365.92 338.12 366.21 338.50 368.38 341.12 C 370.54 343.75 372.90 346.50 376.50 351.38 C 380.10 356.25 386.46 365.65 390.00 370.38 C 393.54 375.10 395.02 376.85 397.75 379.75 C 400.48 382.65 403.92 385.75 406.38 387.75 C 408.83 389.75 410.71 391.10 412.50 391.75 C 414.29 392.40 415.83 391.92 417.12 391.62 C 418.42 391.33 419.29 390.77 420.25 390.00 C 421.21 389.23 421.96 388.54 422.88 387.00 C 423.79 385.46 424.98 382.90 425.75 380.75 C 426.52 378.60 427.15 375.85 427.50 374.12 C 427.85 372.40 427.83 372.00 427.88 370.38 C 427.92 368.75 427.94 366.12 427.75 364.38 C 427.56 362.62 427.27 361.50 426.75 359.88 C 426.23 358.25 425.44 356.21 424.62 354.62 C 423.81 353.04 422.92 351.65 421.88 350.38 C 420.83 349.10 419.88 348.25 418.38 347.00 C 416.88 345.75 415.08 344.38 412.88 342.88 C 410.67 341.38 407.67 339.48 405.12 338.00 C 402.58 336.52 401.75 335.83 397.62 334.00 C 393.50 332.17 385.60 328.98 380.38 327.00 C 375.15 325.02 369.98 323.27 366.25 322.12 C 362.52 320.98 360.25 320.48 358.00 320.12 C 355.75 319.77 353.77 319.81 352.75 320.00 Z" id="s-10-f-0"/>
<clipPath id="c-s-10"><use href="#s-10-f-0"/></clipPath>
</defs>
<g id="s-0" clip-path="url(#c-s-0)">
<use href="#s-0-f-0"/>
<path d="M 232.00 89.00 C 231.96 87.58 232.21 88.44 231.62 88.12 C 231.04 87.81 230.56 87.31 228.50 87.12 C 226.44 86.94 224.69 86.23 219.25 87.00 C 213.81 87.77 200.31 90.94 195.88 91.75 C 191.44 92.56 198.04 90.90 192.62 91.88 C 187.21 92.85 172.90 95.96 163.38 97.62 C 153.85 99.29 143.48 101.02 135.50 101.88 C 127.52 102.73 121.65 102.90 115.50 102.75 C 109.35 102.60 102.54 101.29 98.62 101.00 C 94.71 100.71 93.46 100.85 92.00 101.00 C 90.54 101.15 90.40 101.56 89.88 101.88 C 89.35 102.19 89.19 102.40 88.88 102.88 C 88.56 103.35 88.17 103.96 88.00 104.75 C 87.83 105.54 87.71 106.69 87.88 107.62 C 88.04 108.56 88.35 109.27 89.00 110.38 C 89.65 111.48 89.62 111.96 91.75 114.25 C 93.88 116.54 99.08 121.67 101.75 124.12 C 104.42 126.58 105.81 127.56 107.75 129.00 C 109.69 130.44 111.38 131.65 113.38 132.75 C 115.38 133.85 117.75 135.12 119.75 135.62 C 121.75 136.12 123.54 136.06 125.38 135.75 C 127.21 135.44 129.38 134.38 130.75 133.75 C 132.12 133.12 131.25 133.10 133.62 132.00 C 136.00 130.90 139.06 129.44 145.00 127.12 C 150.94 124.81 164.40 119.83 169.25 118.12 C 174.10 116.42 169.98 118.25 174.12 116.88 C 178.27 115.50 190.65 111.17 194.12 109.88 C 197.60 108.58 192.73 109.81 195.00 109.12 C 197.27 108.44 202.04 107.52 207.75 105.75 C 213.46 103.98 225.23 100.02 229.25 98.50 C 233.27 96.98 231.42 98.21 231.88 96.62 C 232.33 95.04 232.04 90.42 232.00 89.00 Z" id="s-0-f-1"/>
<path d="M 183.88 94.12 C 183.62 91.15 185.92 93.17 182.50 93.75 C 179.08 94.33 171.21 96.27 163.38 97.62 C 155.54 98.98 143.48 101.02 135.50 101.88 C 127.52 102.73 121.65 102.90 115.50 102.75 C 109.35 102.60 102.54 101.29 98.62 101.00 C 94.71 100.71 93.46 100.85 92.00 101.00 C 90.54 101.15 90.40 101.56 89.88 101.88 C 89.35 102.19 89.21 102.27 88.88 102.88 C 88.54 103.48 88.02 104.56 87.88 105.50 C 87.73 106.44 87.35 107.04 88.00 108.50 C 88.65 109.96 89.46 111.65 91.75 114.25 C 94.04 116.85 99.08 121.67 101.75 124.12 C 104.42 126.58 105.81 127.56 107.75 129.00 C 109.69 130.44 111.38 131.65 113.38 132.75 C 115.38 133.85 117.75 135.12 119.75 135.62 C 121.75 136.12 123.54 136.06 125.38 135.75 C 127.21 135.44 129.38 134.38 130.75 133.75 C 132.12 133.12 131.25 133.10 133.62 132.00 C 136.00 130.90 139.06 129.44 145.00 127.12 C 150.94 124.81 164.40 119.83 169.25 118.12 C 174.10 116.42 171.81 117.62 174.12 116.88 C 176.44 116.12 181.48 114.50 183.12 113.62 C 184.77 112.75 183.88 114.88 184.00 111.62 C 184.12 108.38 184.12 97.10 183.88 94.12 Z" id="s-0-f-2"/>
<path d="M 88.88 102.88 C 88.38 103.56 88.02 104.56 87.88 105.50 C 87.73 106.44 87.35 107.04 88.00 108.50 C 88.65 109.96 89.46 111.65 91.75 114.25 C 94.04 116.85 99.08 121.67 101.75 124.12 C 104.42 126.58 105.81 127.56 107.75 129.00 C 109.69 130.44 111.38 131.65 113.38 132.75 C 115.38 133.85 117.96 135.10 119.75 135.62 C 121.54 136.15 122.29 136.19 124.12 135.88 C 125.96 135.56 128.90 134.48 130.75 133.75 C 132.60 133.02 134.38 132.02 135.25 131.50 C 136.12 130.98 135.96 135.54 136.00 130.62 C 136.04 125.71 138.92 106.65 135.50 102.00 C 132.08 97.35 121.40 102.90 115.50 102.75 C 109.60 102.60 103.88 101.44 100.12 101.12 C 96.38 100.81 94.54 100.83 93.00 100.88 C 91.46 100.92 91.56 101.04 90.88 101.38 C 90.19 101.71 89.38 102.19 88.88 102.88 Z" id="s-0-f-3"/>
</g>
<g id="s-1" clip-path="url(#c-s-1)">
<use href="#s-1-f-0"/>
<path d="M 157.50 41.25 C 155.44 41.52 155.71 42.02 155.00 42.62 C 154.29 43.23 153.60 44.15 153.25 44.88 C 152.90 45.60 152.90 45.98 152.88 47.00 C 152.85 48.02 152.73 49.29 153.12 51.00 C 153.52 52.71 154.31 54.88 155.25 57.25 C 156.19 59.62 157.67 62.40 158.75 65.25 C 159.83 68.10 160.27 69.27 161.75 74.38 C 163.23 79.48 166.65 91.73 167.62 95.88 C 168.60 100.02 167.52 98.56 167.62 99.25 C 167.73 99.94 168.08 99.40 168.25 100.00 C 168.42 100.60 168.46 102.27 168.62 102.88 C 168.79 103.48 169.08 102.90 169.25 103.62 C 169.42 104.35 169.44 106.46 169.62 107.25 C 169.81 108.04 170.04 107.04 170.38 108.38 C 170.71 109.71 171.25 114.00 171.62 115.25 C 172.00 116.50 171.58 112.33 172.62 115.88 C 173.67 119.42 176.73 132.98 177.88 136.50 C 179.02 140.02 176.19 136.98 179.50 137.00 C 182.81 137.02 194.71 137.71 197.75 136.62 C 200.79 135.54 198.04 134.83 197.75 130.50 C 197.46 126.17 196.27 115.81 196.00 110.62 C 195.73 105.44 196.15 101.67 196.12 99.38 C 196.10 97.08 196.00 97.38 195.88 96.88 C 195.75 96.38 195.40 96.56 195.38 96.38 C 195.35 96.19 195.81 96.52 195.75 95.75 C 195.69 94.98 195.29 94.44 195.00 91.75 C 194.71 89.06 194.21 86.19 194.00 79.62 C 193.79 73.06 194.27 57.56 193.75 52.38 C 193.23 47.19 191.94 49.56 190.88 48.50 C 189.81 47.44 188.31 46.56 187.38 46.00 C 186.44 45.44 187.44 45.77 185.25 45.12 C 183.06 44.48 177.23 42.81 174.25 42.12 C 171.27 41.44 170.17 41.15 167.38 41.00 C 164.58 40.85 159.56 40.98 157.50 41.25 Z" id="s-1-f-1"/>
<path d="M 155.00 42.62 C 154.17 43.35 153.31 44.10 153.00 45.50 C 152.69 46.90 152.00 47.25 153.12 51.00 C 154.25 54.75 157.71 61.77 159.75 68.00 C 161.79 74.23 164.04 84.88 165.38 88.38 C 166.71 91.88 162.90 88.94 167.75 89.00 C 172.60 89.06 190.00 89.31 194.50 88.75 C 199.00 88.19 194.83 87.17 194.75 85.62 C 194.67 84.08 194.17 85.04 194.00 79.50 C 193.83 73.96 194.08 57.38 193.75 52.38 C 193.42 47.38 193.10 50.58 192.00 49.50 C 190.90 48.42 190.08 47.10 187.12 45.88 C 184.17 44.65 177.54 42.94 174.25 42.12 C 170.96 41.31 170.08 41.17 167.38 41.00 C 164.67 40.83 160.06 40.85 158.00 41.12 C 155.94 41.40 155.83 41.90 155.00 42.62 Z" id="s-1-f-2"/>
</g>
<g id="s-2" clip-path="url(#c-s-2)">
<use href="#s-2-f-0"/>
<path d="M 395.88 78.50 C 395.40 75.27 394.85 77.71 393.12 77.12 C 391.40 76.54 387.62 75.52 385.50 75.00 C 383.38 74.48 382.17 74.17 380.38 74.00 C 378.58 73.83 380.58 73.06 374.75 74.00 C 368.92 74.94 356.08 77.81 345.38 79.62 C 334.67 81.44 317.69 83.69 310.50 84.88 C 303.31 86.06 306.58 85.94 302.25 86.75 C 297.92 87.56 292.00 88.69 284.50 89.75 C 277.00 90.81 262.50 92.27 257.25 93.12 C 252.00 93.98 253.90 94.35 253.00 94.88 C 252.10 95.40 252.06 95.83 251.88 96.25 C 251.69 96.67 251.67 96.85 251.88 97.38 C 252.08 97.90 252.65 98.81 253.12 99.38 C 253.60 99.94 253.12 99.71 254.75 100.75 C 256.38 101.79 260.08 104.15 262.88 105.62 C 265.67 107.10 269.15 108.75 271.50 109.62 C 273.85 110.50 275.50 110.69 277.00 110.88 C 278.50 111.06 279.60 110.90 280.50 110.75 C 281.40 110.60 275.12 111.15 282.38 110.00 C 289.62 108.85 315.85 105.23 324.00 103.88 C 332.15 102.52 328.69 102.35 331.25 101.88 C 333.81 101.40 333.23 101.46 339.38 101.00 C 345.52 100.54 358.92 99.52 368.12 99.12 C 377.33 98.73 390.02 98.79 394.62 98.62 C 399.23 98.46 395.52 98.48 395.75 98.12 C 395.98 97.77 395.98 99.77 396.00 96.50 C 396.02 93.23 396.35 81.73 395.88 78.50 Z" id="s-2-f-1"/>
<path d="M 347.88 79.50 C 347.69 76.29 353.10 78.23 346.88 79.12 C 340.65 80.02 317.94 83.60 310.50 84.88 C 303.06 86.15 306.58 85.94 302.25 86.75 C 297.92 87.56 292.00 88.69 284.50 89.75 C 277.00 90.81 262.50 92.27 257.25 93.12 C 252.00 93.98 253.90 94.35 253.00 94.88 C 252.10 95.40 252.06 95.83 251.88 96.25 C 251.69 96.67 251.56 96.75 251.88 97.38 C 252.19 98.00 251.92 98.62 253.75 100.00 C 255.58 101.38 259.92 104.02 262.88 105.62 C 265.83 107.23 269.15 108.75 271.50 109.62 C 273.85 110.50 275.50 110.69 277.00 110.88 C 278.50 111.06 279.60 110.90 280.50 110.75 C 281.40 110.60 275.12 111.15 282.38 110.00 C 289.62 108.85 315.85 105.23 324.00 103.88 C 332.15 102.52 327.40 102.44 331.25 101.88 C 335.10 101.31 344.35 100.83 347.12 100.50 C 349.90 100.17 347.73 100.23 347.88 99.88 C 348.02 99.52 348.00 101.77 348.00 98.38 C 348.00 94.98 348.06 82.71 347.88 79.50 Z" id="s-2-f-2"/>
<path d="M 299.88 87.50 C 299.69 84.44 301.44 86.75 298.88 87.12 C 296.31 87.50 291.54 88.73 284.50 89.75 C 277.46 90.77 261.88 92.40 256.62 93.25 C 251.38 94.10 253.79 94.35 253.00 94.88 C 252.21 95.40 252.06 95.94 251.88 96.38 C 251.69 96.81 251.58 96.92 251.88 97.50 C 252.17 98.08 252.62 98.98 253.62 99.88 C 254.62 100.77 255.62 101.56 257.88 102.88 C 260.12 104.19 264.33 106.46 267.12 107.75 C 269.92 109.04 272.42 110.12 274.62 110.62 C 276.83 111.12 279.08 110.85 280.38 110.75 C 281.67 110.65 279.23 110.54 282.38 110.00 C 285.52 109.46 296.31 108.25 299.25 107.50 C 302.19 106.75 299.90 108.83 300.00 105.50 C 300.10 102.17 300.06 90.56 299.88 87.50 Z" id="s-2-f-3"/>
</g>
<g id="s-3" clip-path="url(#c-s-3)">
<use href="#s-3-f-0"/>
<path d="M 327.50 30.00 C 325.44 29.17 325.33 29.17 323.75 29.00 C 322.17 28.83 319.54 28.71 318.00 29.00 C 316.46 29.29 315.50 30.02 314.50 30.75 C 313.50 31.48 312.58 32.54 312.00 33.38 C 311.42 34.21 311.19 35.04 311.00 35.75 C 310.81 36.46 310.58 35.52 310.88 37.62 C 311.17 39.73 312.46 45.60 312.75 48.38 C 313.04 51.15 312.85 51.44 312.62 54.25 C 312.40 57.06 312.19 60.56 311.38 65.25 C 310.56 69.94 308.56 78.77 307.75 82.38 C 306.94 85.98 306.85 86.02 306.50 86.88 C 306.15 87.73 305.81 86.90 305.62 87.50 C 305.44 88.10 305.54 89.83 305.38 90.50 C 305.21 91.17 304.79 90.67 304.62 91.50 C 304.46 92.33 304.54 94.77 304.38 95.50 C 304.21 96.23 303.96 94.60 303.62 95.88 C 303.29 97.15 302.71 101.73 302.38 103.12 C 302.04 104.52 301.77 103.42 301.62 104.25 C 301.48 105.08 302.52 104.75 301.50 108.12 C 300.48 111.50 296.42 121.71 295.50 124.50 C 294.58 127.29 292.96 124.79 296.00 124.88 C 299.04 124.96 310.44 125.08 313.75 125.00 C 317.06 124.92 314.88 125.52 315.88 124.38 C 316.88 123.23 317.67 121.88 319.75 118.12 C 321.83 114.38 326.79 104.67 328.38 101.88 C 329.96 99.08 329.08 101.62 329.25 101.38 C 329.42 101.12 329.06 101.02 329.38 100.38 C 329.69 99.73 330.79 98.23 331.12 97.50 C 331.46 96.77 331.23 96.33 331.38 96.00 C 331.52 95.67 331.67 96.21 332.00 95.50 C 332.33 94.79 332.85 92.88 333.38 91.75 C 333.90 90.62 334.81 89.44 335.12 88.75 C 335.44 88.06 335.08 88.00 335.25 87.62 C 335.42 87.25 335.94 86.94 336.12 86.50 C 336.31 86.06 336.06 85.69 336.38 85.00 C 336.69 84.31 337.69 83.17 338.00 82.38 C 338.31 81.58 336.92 83.35 338.25 80.25 C 339.58 77.15 343.92 67.77 346.00 63.75 C 348.08 59.73 349.79 57.83 350.75 56.12 C 351.71 54.42 351.58 54.56 351.75 53.50 C 351.92 52.44 351.92 50.77 351.75 49.75 C 351.58 48.73 351.38 48.42 350.75 47.38 C 350.12 46.33 349.04 44.73 348.00 43.50 C 346.96 42.27 346.48 41.58 344.50 40.00 C 342.52 38.42 338.96 35.67 336.12 34.00 C 333.29 32.33 329.56 30.83 327.50 30.00 Z" id="s-3-f-1"/>
<path d="M 315.62 29.88 C 314.40 30.62 312.77 32.40 312.00 33.38 C 311.23 34.35 311.17 34.90 311.00 35.75 C 310.83 36.60 310.71 36.40 311.00 38.50 C 311.29 40.60 312.46 46.08 312.75 48.38 C 313.04 50.67 312.98 49.44 312.75 52.25 C 312.52 55.06 312.00 61.21 311.38 65.25 C 310.75 69.29 309.04 74.54 309.00 76.50 C 308.96 78.46 306.02 76.94 311.12 77.00 C 316.23 77.06 333.81 79.08 339.62 76.88 C 345.44 74.67 344.50 66.58 346.00 63.75 C 347.50 60.92 347.71 61.46 348.62 59.88 C 349.54 58.29 350.96 55.75 351.50 54.25 C 352.04 52.75 352.00 52.04 351.88 50.88 C 351.75 49.71 351.23 48.31 350.75 47.25 C 350.27 46.19 350.04 45.71 349.00 44.50 C 347.96 43.29 346.15 41.44 344.50 40.00 C 342.85 38.56 340.85 37.06 339.12 35.88 C 337.40 34.69 336.54 34.00 334.12 32.88 C 331.71 31.75 327.08 29.79 324.62 29.12 C 322.17 28.46 320.88 28.75 319.38 28.88 C 317.88 29.00 316.85 29.12 315.62 29.88 Z" id="s-3-f-2"/>
</g>
<g id="s-4" clip-path="url(#c-s-4)">
<use href="#s-4-f-0"/>
<path d="M 363.88 191.38 C 364.04 190.50 364.10 189.81 363.75 188.62 C 363.40 187.44 362.85 185.92 361.75 184.25 C 360.65 182.58 358.52 180.17 357.12 178.62 C 355.73 177.08 355.04 176.46 353.38 175.00 C 351.71 173.54 350.50 172.02 347.12 169.88 C 343.75 167.73 336.42 163.77 333.12 162.12 C 329.83 160.48 328.98 160.33 327.38 160.00 C 325.77 159.67 328.38 159.17 323.50 160.12 C 318.62 161.08 310.15 163.50 298.12 165.75 C 286.10 168.00 264.98 171.56 251.38 173.62 C 237.77 175.69 226.15 176.77 216.50 178.12 C 206.85 179.48 201.52 180.65 193.50 181.75 C 185.48 182.85 176.08 183.98 168.38 184.75 C 160.67 185.52 154.08 186.00 147.25 186.38 C 140.42 186.75 131.31 186.69 127.38 187.00 C 123.44 187.31 124.35 187.85 123.62 188.25 C 122.90 188.65 123.04 188.94 123.00 189.38 C 122.96 189.81 122.75 189.96 123.38 190.88 C 124.00 191.79 124.69 193.08 126.75 194.88 C 128.81 196.67 132.60 199.65 135.75 201.62 C 138.90 203.60 142.92 205.58 145.62 206.75 C 148.33 207.92 150.38 208.27 152.00 208.62 C 153.62 208.98 153.83 208.88 155.38 208.88 C 156.92 208.88 158.58 209.10 161.25 208.62 C 163.92 208.15 162.96 207.60 171.38 206.00 C 179.79 204.40 204.58 200.17 211.75 199.00 C 218.92 197.83 211.46 199.35 214.38 199.00 C 217.29 198.65 224.35 197.71 229.25 196.88 C 234.15 196.04 238.56 194.81 243.75 194.00 C 248.94 193.19 253.96 192.67 260.38 192.00 C 266.79 191.33 274.46 190.50 282.25 190.00 C 290.04 189.50 302.15 189.02 307.12 189.00 C 312.10 188.98 310.58 189.38 312.12 189.88 C 313.67 190.38 315.27 191.21 316.38 192.00 C 317.48 192.79 318.04 193.40 318.75 194.62 C 319.46 195.85 320.31 197.00 320.62 199.38 C 320.94 201.75 320.77 205.50 320.62 208.88 C 320.48 212.25 320.21 215.71 319.75 219.62 C 319.29 223.54 319.04 226.12 317.88 232.38 C 316.71 238.62 314.48 250.19 312.75 257.12 C 311.02 264.06 308.83 270.17 307.50 274.00 C 306.17 277.83 305.67 278.40 304.75 280.12 C 303.83 281.85 303.98 280.31 302.00 284.38 C 300.02 288.44 294.46 300.81 292.88 304.50 C 291.29 308.19 292.81 305.77 292.50 306.50 C 292.19 307.23 292.27 306.06 291.00 308.88 C 289.73 311.69 285.52 320.15 284.88 323.38 C 284.23 326.60 286.29 326.83 287.12 328.25 C 287.96 329.67 288.94 330.81 289.88 331.88 C 290.81 332.94 291.73 333.96 292.75 334.62 C 293.77 335.29 294.75 335.71 296.00 335.88 C 297.25 336.04 298.73 335.96 300.25 335.62 C 301.77 335.29 303.62 334.52 305.12 333.88 C 306.62 333.23 307.29 333.04 309.25 331.75 C 311.21 330.46 314.27 328.60 316.88 326.12 C 319.48 323.65 322.92 319.42 324.88 316.88 C 326.83 314.33 327.48 312.92 328.62 310.88 C 329.77 308.83 330.58 307.25 331.75 304.62 C 332.92 302.00 334.33 298.88 335.62 295.12 C 336.92 291.38 338.00 288.25 339.50 282.12 C 341.00 276.00 342.88 267.69 344.62 258.38 C 346.38 249.06 348.60 233.69 350.00 226.25 C 351.40 218.81 352.17 216.88 353.00 213.75 C 353.83 210.62 354.17 209.71 355.00 207.50 C 355.83 205.29 356.71 202.77 358.00 200.50 C 359.29 198.23 361.77 195.40 362.75 193.88 C 363.73 192.35 363.71 192.25 363.88 191.38 Z" id="s-4-f-1"/>
<path d="M 363.88 191.38 C 364.04 190.50 364.10 189.81 363.75 188.62 C 363.40 187.44 362.85 185.92 361.75 184.25 C 360.65 182.58 358.52 180.17 357.12 178.62 C 355.73 177.08 355.04 176.46 353.38 175.00 C 351.71 173.54 350.50 172.02 347.12 169.88 C 343.75 167.73 336.42 163.77 333.12 162.12 C 329.83 160.48 328.98 160.33 327.38 160.00 C 325.77 159.67 328.38 159.17 323.50 160.12 C 318.62 161.08 310.15 163.50 298.12 165.75 C 286.10 168.00 264.98 171.56 251.38 173.62 C 237.77 175.69 226.15 176.77 216.50 178.12 C 206.85 179.48 201.52 180.65 193.50 181.75 C 185.48 182.85 176.08 183.98 168.38 184.75 C 160.67 185.52 154.08 186.00 147.25 186.38 C 140.42 186.75 131.31 186.69 127.38 187.00 C 123.44 187.31 124.35 187.85 123.62 188.25 C 122.90 188.65 123.04 188.94 123.00 189.38 C 122.96 189.81 122.75 189.96 123.38 190.88 C 124.00 191.79 124.69 193.08 126.75 194.88 C 128.81 196.67 132.60 199.65 135.75 201.62 C 138.90 203.60 142.92 205.58 145.62 206.75 C 148.33 207.92 150.38 208.27 152.00 208.62 C 153.62 208.98 153.83 208.88 155.38 208.88 C 156.92 208.88 158.58 209.10 161.25 208.62 C 163.92 208.15 162.96 207.60 171.38 206.00 C 179.79 204.40 204.58 200.17 211.75 199.00 C 218.92 197.83 211.46 199.35 214.38 199.00 C 217.29 198.65 224.35 197.71 229.25 196.88 C 234.15 196.04 238.56 194.81 243.75 194.00 C 248.94 193.19 253.96 192.67 260.38 192.00 C 266.79 191.33 274.46 190.50 282.25 190.00 C 290.04 189.50 302.15 189.02 307.12 189.00 C 312.10 188.98 310.58 189.38 312.12 189.88 C 313.67 190.38 315.27 191.21 316.38 192.00 C 317.48 192.79 318.04 193.40 318.75 194.62 C 319.46 195.85 320.29 197.40 320.62 199.38 C 320.96 201.35 320.90 203.12 320.75 206.50 C 320.60 209.88 320.58 213.46 319.75 219.62 C 318.92 225.79 316.92 237.25 315.75 243.50 C 314.58 249.75 314.08 252.15 312.75 257.12 C 311.42 262.10 309.08 269.54 307.75 273.38 C 306.42 277.21 305.71 278.29 304.75 280.12 C 303.79 281.96 303.98 280.31 302.00 284.38 C 300.02 288.44 294.46 300.81 292.88 304.50 C 291.29 308.19 292.67 306.08 292.50 306.50 C 292.33 306.92 292.44 305.90 291.88 307.00 C 291.31 308.10 289.50 311.98 289.12 313.12 C 288.75 314.27 283.79 313.73 289.62 313.88 C 295.46 314.02 317.94 314.02 324.12 314.00 C 330.31 313.98 326.15 314.02 326.75 313.75 C 327.35 313.48 326.58 314.65 327.75 312.38 C 328.92 310.10 331.79 305.17 333.75 300.12 C 335.71 295.08 337.69 289.08 339.50 282.12 C 341.31 275.17 342.88 267.69 344.62 258.38 C 346.38 249.06 348.44 234.25 350.00 226.25 C 351.56 218.25 352.67 214.67 354.00 210.38 C 355.33 206.08 356.54 203.25 358.00 200.50 C 359.46 197.75 361.77 195.40 362.75 193.88 C 363.73 192.35 363.71 192.25 363.88 191.38 Z" id="s-4-f-2"/>
<path d="M 363.88 191.38 C 364.04 190.50 364.10 189.81 363.75 188.62 C 363.40 187.44 362.71 185.77 361.75 184.25 C 360.79 182.73 359.40 181.04 358.00 179.50 C 356.60 177.96 355.19 176.60 353.38 175.00 C 351.56 173.40 350.50 172.02 347.12 169.88 C 343.75 167.73 336.42 163.77 333.12 162.12 C 329.83 160.48 328.98 160.33 327.38 160.00 C 325.77 159.67 328.35 159.17 323.50 160.12 C 318.65 161.08 305.21 164.31 298.25 165.75 C 291.29 167.19 289.56 167.44 281.75 168.75 C 273.94 170.06 262.25 172.06 251.38 173.62 C 240.50 175.19 226.15 176.77 216.50 178.12 C 206.85 179.48 201.52 180.65 193.50 181.75 C 185.48 182.85 176.06 183.98 168.38 184.75 C 160.69 185.52 154.21 186.00 147.38 186.38 C 140.54 186.75 131.33 186.69 127.38 187.00 C 123.42 187.31 124.35 187.85 123.62 188.25 C 122.90 188.65 123.04 188.94 123.00 189.38 C 122.96 189.81 122.75 189.96 123.38 190.88 C 124.00 191.79 124.69 193.08 126.75 194.88 C 128.81 196.67 132.60 199.65 135.75 201.62 C 138.90 203.60 142.92 205.58 145.62 206.75 C 148.33 207.92 149.52 208.29 152.00 208.62 C 154.48 208.96 157.27 209.19 160.50 208.75 C 163.73 208.31 162.83 207.62 171.38 206.00 C 179.92 204.38 204.58 200.17 211.75 199.00 C 218.92 197.83 211.46 199.35 214.38 199.00 C 217.29 198.65 223.15 197.88 229.25 196.88 C 235.35 195.88 242.17 194.15 251.00 193.00 C 259.83 191.85 272.88 190.67 282.25 190.00 C 291.62 189.33 302.17 189.00 307.25 189.00 C 312.33 189.00 311.23 189.50 312.75 190.00 C 314.27 190.50 315.38 191.23 316.38 192.00 C 317.38 192.77 318.08 193.52 318.75 194.62 C 319.42 195.73 320.04 197.52 320.38 198.62 C 320.71 199.73 320.85 197.75 320.75 201.25 C 320.65 204.75 320.23 214.46 319.75 219.62 C 319.27 224.79 318.88 226.73 317.88 232.25 C 316.88 237.77 315.00 247.27 313.75 252.75 C 312.50 258.23 310.88 262.94 310.38 265.12 C 309.88 267.31 305.42 265.73 310.75 265.88 C 316.08 266.02 337.00 266.08 342.38 266.00 C 347.75 265.92 342.29 268.46 343.00 265.38 C 343.71 262.29 345.46 254.02 346.62 247.50 C 347.79 240.98 348.94 231.88 350.00 226.25 C 351.06 220.62 352.17 216.88 353.00 213.75 C 353.83 210.62 354.17 209.71 355.00 207.50 C 355.83 205.29 356.71 202.77 358.00 200.50 C 359.29 198.23 361.77 195.40 362.75 193.88 C 363.73 192.35 363.71 192.25 363.88 191.38 Z" id="s-4-f-3"/>
<path d="M 363.88 191.38 C 364.17 190.31 364.10 189.81 363.75 188.62 C 363.40 187.44 362.56 185.60 361.75 184.25 C 360.94 182.90 360.27 182.04 358.88 180.50 C 357.48 178.96 355.33 176.77 353.38 175.00 C 351.42 173.23 350.50 172.02 347.12 169.88 C 343.75 167.73 336.42 163.77 333.12 162.12 C 329.83 160.48 328.98 160.33 327.38 160.00 C 325.77 159.67 328.35 159.17 323.50 160.12 C 318.65 161.08 305.21 164.31 298.25 165.75 C 291.29 167.19 289.56 167.44 281.75 168.75 C 273.94 170.06 262.25 172.06 251.38 173.62 C 240.50 175.19 226.15 176.77 216.50 178.12 C 206.85 179.48 201.52 180.65 193.50 181.75 C 185.48 182.85 175.98 183.98 168.38 184.75 C 160.77 185.52 154.71 186.00 147.88 186.38 C 141.04 186.75 131.42 186.69 127.38 187.00 C 123.33 187.31 124.35 187.85 123.62 188.25 C 122.90 188.65 123.04 188.94 123.00 189.38 C 122.96 189.81 122.75 189.96 123.38 190.88 C 124.00 191.79 124.92 193.23 126.75 194.88 C 128.58 196.52 132.06 199.15 134.38 200.75 C 136.69 202.35 138.75 203.50 140.62 204.50 C 142.50 205.50 143.73 206.06 145.62 206.75 C 147.52 207.44 149.85 208.27 152.00 208.62 C 154.15 208.98 156.25 209.02 158.50 208.88 C 160.75 208.73 163.35 208.23 165.50 207.75 C 167.65 207.27 163.67 207.46 171.38 206.00 C 179.08 204.54 204.58 200.17 211.75 199.00 C 218.92 197.83 211.46 199.35 214.38 199.00 C 217.29 198.65 223.15 197.88 229.25 196.88 C 235.35 195.88 242.17 194.15 251.00 193.00 C 259.83 191.85 273.75 190.67 282.25 190.00 C 290.75 189.33 297.62 189.15 302.00 189.00 C 306.38 188.85 306.71 188.96 308.50 189.12 C 310.29 189.29 311.44 189.52 312.75 190.00 C 314.06 190.48 315.38 191.23 316.38 192.00 C 317.38 192.77 318.19 193.85 318.75 194.62 C 319.31 195.40 319.42 195.52 319.75 196.62 C 320.08 197.73 320.71 197.85 320.75 201.25 C 320.79 204.65 320.08 214.25 320.00 217.00 C 319.92 219.75 319.90 217.58 320.25 217.75 C 320.60 217.92 316.92 217.96 322.12 218.00 C 327.33 218.04 346.42 218.33 351.50 218.00 C 356.58 217.67 352.21 217.29 352.62 216.00 C 353.04 214.71 353.29 212.44 354.00 210.25 C 354.71 208.06 356.02 204.83 356.88 202.88 C 357.73 200.92 358.27 199.81 359.12 198.50 C 359.98 197.19 361.21 196.19 362.00 195.00 C 362.79 193.81 363.58 192.44 363.88 191.38 Z" id="s-4-f-4"/>
<path d="M 346.25 169.38 C 344.15 167.92 336.15 163.67 333.12 162.12 C 330.10 160.58 329.58 160.48 328.12 160.12 C 326.67 159.77 329.38 159.06 324.38 160.00 C 319.38 160.94 310.29 163.48 298.12 165.75 C 285.96 168.02 265.02 171.56 251.38 173.62 C 237.73 175.69 225.90 176.77 216.25 178.12 C 206.60 179.48 201.48 180.65 193.50 181.75 C 185.52 182.85 176.38 183.96 168.38 184.75 C 160.38 185.54 152.33 186.12 145.50 186.50 C 138.67 186.88 131.02 186.71 127.38 187.00 C 123.73 187.29 124.35 187.71 123.62 188.25 C 122.90 188.79 122.54 189.21 123.00 190.25 C 123.46 191.29 124.48 192.75 126.38 194.50 C 128.27 196.25 131.96 199.06 134.38 200.75 C 136.79 202.44 139.00 203.62 140.88 204.62 C 142.75 205.62 143.77 206.08 145.62 206.75 C 147.48 207.42 149.52 208.29 152.00 208.62 C 154.48 208.96 157.27 209.19 160.50 208.75 C 163.73 208.31 162.83 207.62 171.38 206.00 C 179.92 204.38 204.58 200.17 211.75 199.00 C 218.92 197.83 211.46 199.35 214.38 199.00 C 217.29 198.65 224.21 197.73 229.25 196.88 C 234.29 196.02 235.79 195.02 244.62 193.88 C 253.46 192.73 272.10 190.85 282.25 190.00 C 292.40 189.15 301.50 189.02 305.50 188.75 C 309.50 188.48 306.15 188.50 306.25 188.38 C 306.35 188.25 305.79 188.10 306.12 188.00 C 306.46 187.90 302.67 190.21 308.25 187.75 C 313.83 185.29 333.38 176.06 339.62 173.25 C 345.88 170.44 344.65 171.52 345.75 170.88 C 346.85 170.23 348.35 170.83 346.25 169.38 Z" id="s-4-f-5"/>
<path d="M 314.88 162.50 C 314.71 158.79 316.52 161.58 313.75 162.12 C 310.98 162.67 306.48 164.17 298.25 165.75 C 290.02 167.33 277.98 169.56 264.38 171.62 C 250.77 173.69 228.44 176.44 216.62 178.12 C 204.81 179.81 203.38 180.48 193.50 181.75 C 183.62 183.02 168.52 184.85 157.38 185.75 C 146.23 186.65 132.25 186.71 126.62 187.12 C 121.00 187.54 124.23 187.73 123.62 188.25 C 123.02 188.77 122.54 189.21 123.00 190.25 C 123.46 191.29 125.27 193.33 126.38 194.50 C 127.48 195.67 127.23 195.56 129.62 197.25 C 132.02 198.94 138.08 203.04 140.75 204.62 C 143.42 206.21 143.75 206.08 145.62 206.75 C 147.50 207.42 149.83 208.27 152.00 208.62 C 154.17 208.98 156.38 209.02 158.62 208.88 C 160.88 208.73 163.38 208.23 165.50 207.75 C 167.62 207.27 163.67 207.46 171.38 206.00 C 179.08 204.54 204.58 200.17 211.75 199.00 C 218.92 197.83 211.46 199.35 214.38 199.00 C 217.29 198.65 223.15 197.88 229.25 196.88 C 235.35 195.88 242.17 194.15 251.00 193.00 C 259.83 191.85 273.29 190.69 282.25 190.00 C 291.21 189.31 300.46 189.23 304.75 188.88 C 309.04 188.52 306.42 188.52 308.00 187.88 C 309.58 187.23 313.12 185.58 314.25 185.00 C 315.38 184.42 314.65 188.12 314.75 184.38 C 314.85 180.62 315.04 166.21 314.88 162.50 Z" id="s-4-f-6"/>
<path d="M 266.88 171.62 C 266.67 168.54 268.33 170.79 265.75 171.12 C 263.17 171.46 258.23 172.65 251.38 173.62 C 244.52 174.60 234.27 175.65 224.62 177.00 C 214.98 178.35 202.88 180.46 193.50 181.75 C 184.12 183.04 176.85 183.94 168.38 184.75 C 159.90 185.56 149.58 186.23 142.62 186.62 C 135.67 187.02 129.79 186.85 126.62 187.12 C 123.46 187.40 124.23 187.73 123.62 188.25 C 123.02 188.77 122.54 189.21 123.00 190.25 C 123.46 191.29 125.27 193.33 126.38 194.50 C 127.48 195.67 127.23 195.56 129.62 197.25 C 132.02 198.94 138.08 203.04 140.75 204.62 C 143.42 206.21 143.75 206.08 145.62 206.75 C 147.50 207.42 149.52 208.29 152.00 208.62 C 154.48 208.96 157.27 209.19 160.50 208.75 C 163.73 208.31 162.83 207.62 171.38 206.00 C 179.92 204.38 204.58 200.17 211.75 199.00 C 218.92 197.83 211.46 199.35 214.38 199.00 C 217.29 198.65 223.15 197.88 229.25 196.88 C 235.35 195.88 244.85 193.88 251.00 193.00 C 257.15 192.12 263.48 191.96 266.12 191.62 C 268.77 191.29 266.73 191.33 266.88 191.00 C 267.02 190.67 267.00 192.85 267.00 189.62 C 267.00 186.40 267.08 174.71 266.88 171.62 Z" id="s-4-f-7"/>
<path d="M 218.88 178.38 C 218.52 175.06 220.85 177.56 216.62 178.12 C 212.40 178.69 201.54 180.65 193.50 181.75 C 185.46 182.85 176.85 183.94 168.38 184.75 C 159.90 185.56 149.42 186.25 142.62 186.62 C 135.83 187.00 130.79 186.73 127.62 187.00 C 124.46 187.27 124.40 187.71 123.62 188.25 C 122.85 188.79 122.54 189.21 123.00 190.25 C 123.46 191.29 125.27 193.33 126.38 194.50 C 127.48 195.67 127.23 195.56 129.62 197.25 C 132.02 198.94 138.08 203.04 140.75 204.62 C 143.42 206.21 143.75 206.08 145.62 206.75 C 147.50 207.42 149.52 208.29 152.00 208.62 C 154.48 208.96 156.38 209.35 160.50 208.75 C 164.62 208.15 167.04 206.79 176.75 205.00 C 186.46 203.21 211.73 202.44 218.75 198.00 C 225.77 193.56 219.23 181.69 218.88 178.38 Z" id="s-4-f-8"/>
<path d="M 170.88 205.75 C 170.96 202.42 171.00 189.85 171.00 186.38 C 171.00 182.90 170.98 185.17 170.88 184.88 C 170.77 184.58 175.08 184.33 170.38 184.62 C 165.67 184.92 149.75 186.23 142.62 186.62 C 135.50 187.02 130.85 186.67 127.62 187.00 C 124.40 187.33 124.02 188.08 123.25 188.62 C 122.48 189.17 122.48 189.27 123.00 190.25 C 123.52 191.23 125.27 193.33 126.38 194.50 C 127.48 195.67 127.23 195.56 129.62 197.25 C 132.02 198.94 138.08 203.04 140.75 204.62 C 143.42 206.21 143.75 206.08 145.62 206.75 C 147.50 207.42 149.90 208.27 152.00 208.62 C 154.10 208.98 156.00 209.02 158.25 208.88 C 160.50 208.73 163.46 208.17 165.50 207.75 C 167.54 207.33 169.60 206.71 170.50 206.38 C 171.40 206.04 170.79 209.08 170.88 205.75 Z" id="s-4-f-9"/>
</g>
<g id="s-5" clip-path="url(#c-s-5)">
<use href="#s-5-f-0"/>
<path d="M 234.38 195.75 C 232.83 195.21 229.79 195.52 228.62 195.62 C 227.46 195.73 228.54 196.21 227.38 196.38 C 226.21 196.54 222.96 196.44 221.62 196.62 C 220.29 196.81 220.52 197.33 219.38 197.50 C 218.23 197.67 215.75 197.46 214.75 197.62 C 213.75 197.79 213.69 198.12 213.38 198.50 C 213.06 198.88 213.15 197.81 212.88 199.88 C 212.60 201.94 212.29 207.42 211.75 210.88 C 211.21 214.33 210.62 217.08 209.62 220.62 C 208.62 224.17 207.08 228.67 205.75 232.12 C 204.42 235.58 203.12 238.27 201.62 241.38 C 200.12 244.48 198.56 247.56 196.75 250.75 C 194.94 253.94 194.35 255.15 190.75 260.50 C 187.15 265.85 178.88 277.67 175.12 282.88 C 171.38 288.08 164.48 290.27 168.25 291.75 C 172.02 293.23 191.29 293.54 197.75 291.75 C 204.21 289.96 204.21 284.52 207.00 281.00 C 209.79 277.48 211.71 274.77 214.50 270.62 C 217.29 266.48 221.06 260.67 223.75 256.12 C 226.44 251.58 228.73 247.17 230.62 243.38 C 232.52 239.58 233.25 237.23 235.12 233.38 C 237.00 229.52 240.44 223.27 241.88 220.25 C 243.31 217.23 243.46 217.21 243.75 215.25 C 244.04 213.29 243.96 210.35 243.62 208.50 C 243.29 206.65 242.71 205.73 241.75 204.12 C 240.79 202.52 239.10 200.27 237.88 198.88 C 236.65 197.48 235.92 196.29 234.38 195.75 Z" id="s-5-f-1"/>
<path d="M 234.38 195.75 C 232.83 195.21 229.96 195.50 228.62 195.62 C 227.29 195.75 227.54 196.33 226.38 196.50 C 225.21 196.67 222.79 196.46 221.62 196.62 C 220.46 196.79 220.54 197.33 219.38 197.50 C 218.21 197.67 215.73 197.44 214.62 197.62 C 213.52 197.81 213.08 197.46 212.75 198.62 C 212.42 199.79 212.79 202.58 212.62 204.62 C 212.46 206.67 212.25 208.21 211.75 210.88 C 211.25 213.54 210.62 217.08 209.62 220.62 C 208.62 224.17 207.23 228.44 205.75 232.12 C 204.27 235.81 201.54 240.79 200.75 242.75 C 199.96 244.71 196.48 243.67 201.00 243.88 C 205.52 244.08 222.94 244.08 227.88 244.00 C 232.81 243.92 229.42 245.15 230.62 243.38 C 231.83 241.60 233.25 237.23 235.12 233.38 C 237.00 229.52 240.42 223.42 241.88 220.25 C 243.33 217.08 243.58 216.33 243.88 214.38 C 244.17 212.42 243.98 210.21 243.62 208.50 C 243.27 206.79 242.71 205.73 241.75 204.12 C 240.79 202.52 239.10 200.27 237.88 198.88 C 236.65 197.48 235.92 196.29 234.38 195.75 Z" id="s-5-f-2"/>
</g>
<g id="s-6" clip-path="url(#c-s-6)">
<use href="#s-6-f-0"/>
<path d="M 125.00 240.75 C 124.75 241.15 124.62 241.65 124.88 242.25 C 125.12 242.85 124.94 243.08 126.50 244.38 C 128.06 245.67 127.60 244.10 134.25 250.00 C 140.90 255.90 160.15 274.15 166.38 279.75 C 172.60 285.35 170.58 282.96 171.62 283.62 C 172.67 284.29 172.40 288.98 172.62 283.75 C 172.85 278.52 173.02 257.65 173.00 252.25 C 172.98 246.85 175.02 252.42 172.50 251.38 C 169.98 250.33 162.75 247.56 157.88 246.00 C 153.00 244.44 147.65 243.00 143.25 242.00 C 138.85 241.00 134.31 240.35 131.50 240.00 C 128.69 239.65 127.46 239.75 126.38 239.88 C 125.29 240.00 125.25 240.35 125.00 240.75 Z" id="s-6-f-1"/>
</g>
<g id="s-7" clip-path="url(#c-s-7)">
<use href="#s-7-f-0"/>
<path d="M 104.62 357.00 C 104.00 356.60 103.48 356.75 102.88 357.00 C 102.27 357.25 102.19 356.06 101.00 358.50 C 99.81 360.94 97.96 367.02 95.75 371.62 C 93.54 376.23 91.00 380.65 87.75 386.12 C 84.50 391.60 78.08 401.38 76.25 404.50 C 74.42 407.62 71.04 404.79 76.75 404.88 C 82.46 404.96 104.52 405.00 110.50 405.00 C 116.48 405.00 112.12 405.00 112.62 404.88 C 113.12 404.75 112.98 406.27 113.50 404.25 C 114.02 402.23 115.40 396.58 115.75 392.75 C 116.10 388.92 116.31 385.10 115.62 381.25 C 114.94 377.40 112.90 372.67 111.62 369.62 C 110.35 366.58 108.83 364.71 108.00 363.00 C 107.17 361.29 107.19 360.38 106.62 359.38 C 106.06 358.38 105.25 357.40 104.62 357.00 Z" id="s-7-f-1"/>
</g>
<g id="s-8" clip-path="url(#c-s-8)">
<use href="#s-8-f-0"/>
<path d="M 139.25 347.00 C 138.83 347.77 138.88 348.77 139.25 349.75 C 139.62 350.73 140.73 351.50 141.50 352.88 C 142.27 354.25 142.12 353.15 143.88 358.00 C 145.62 362.85 149.81 375.83 152.00 382.00 C 154.19 388.17 155.67 391.79 157.00 395.00 C 158.33 398.21 158.33 398.21 160.00 401.25 C 161.67 404.29 164.48 409.40 167.00 413.25 C 169.52 417.10 172.48 421.10 175.12 424.38 C 177.77 427.65 180.69 430.69 182.88 432.88 C 185.06 435.06 185.92 435.69 188.25 437.50 C 190.58 439.31 194.35 442.04 196.88 443.75 C 199.40 445.46 199.60 445.79 203.38 447.75 C 207.15 449.71 214.98 453.52 219.50 455.50 C 224.02 457.48 225.50 458.08 230.50 459.62 C 235.50 461.17 243.48 463.40 249.50 464.75 C 255.52 466.10 260.38 466.92 266.62 467.75 C 272.88 468.58 279.73 469.40 287.00 469.75 C 294.27 470.10 306.25 469.58 310.25 469.88 C 314.25 470.17 310.85 469.38 311.00 471.50 C 311.15 473.62 311.08 482.79 311.12 482.62 C 311.17 482.46 311.00 472.71 311.25 470.50 C 311.50 468.29 310.33 469.62 312.62 469.38 C 314.92 469.12 322.75 469.19 325.00 469.00 C 327.25 468.81 324.98 468.38 326.12 468.25 C 327.27 468.12 329.00 468.52 331.88 468.25 C 334.75 467.98 339.10 467.42 343.38 466.62 C 347.65 465.83 352.56 464.81 357.50 463.50 C 362.44 462.19 368.65 460.38 373.00 458.75 C 377.35 457.12 380.29 455.54 383.62 453.75 C 386.96 451.96 390.48 449.77 393.00 448.00 C 395.52 446.23 397.29 444.56 398.75 443.12 C 400.21 441.69 401.10 440.33 401.75 439.38 C 402.40 438.42 402.46 438.56 402.62 437.38 C 402.79 436.19 402.92 433.67 402.75 432.25 C 402.58 430.83 402.52 430.29 401.62 428.88 C 400.73 427.46 398.50 424.92 397.38 423.75 C 396.25 422.58 396.12 422.67 394.88 421.88 C 393.62 421.08 391.29 419.69 389.88 419.00 C 388.46 418.31 388.94 418.94 386.38 417.75 C 383.81 416.56 379.25 414.40 374.50 411.88 C 369.75 409.35 363.69 406.17 357.88 402.62 C 352.06 399.08 344.29 393.79 339.62 390.62 C 334.96 387.46 332.17 385.40 329.88 383.62 C 327.58 381.85 327.54 380.65 325.88 380.00 C 324.21 379.35 321.00 379.62 319.88 379.75 C 318.75 379.88 317.48 377.56 319.12 380.75 C 320.77 383.94 327.19 394.25 329.75 398.88 C 332.31 403.50 333.19 405.35 334.50 408.50 C 335.81 411.65 337.08 415.69 337.62 417.75 C 338.17 419.81 337.79 420.19 337.75 420.88 C 337.71 421.56 337.77 421.29 337.38 421.88 C 336.98 422.46 336.08 423.73 335.38 424.38 C 334.67 425.02 334.35 425.29 333.12 425.75 C 331.90 426.21 329.48 426.62 328.00 427.12 C 326.52 427.62 327.00 427.96 324.25 428.75 C 321.50 429.54 315.79 431.04 311.50 431.88 C 307.21 432.71 303.08 433.27 298.50 433.75 C 293.92 434.23 288.69 434.58 284.00 434.75 C 279.31 434.92 274.94 434.92 270.38 434.75 C 265.81 434.58 261.62 434.40 256.62 433.75 C 251.62 433.10 245.42 432.04 240.38 430.88 C 235.33 429.71 230.46 428.10 226.38 426.75 C 222.29 425.40 219.10 424.12 215.88 422.75 C 212.65 421.38 209.56 419.83 207.00 418.50 C 204.44 417.17 203.31 416.69 200.50 414.75 C 197.69 412.81 192.92 409.27 190.12 406.88 C 187.33 404.48 185.62 402.50 183.75 400.38 C 181.88 398.25 180.67 396.77 178.88 394.12 C 177.08 391.48 174.81 388.02 173.00 384.50 C 171.19 380.98 169.71 377.79 168.00 373.00 C 166.29 368.21 163.81 358.96 162.75 355.75 C 161.69 352.54 162.27 354.56 161.62 353.75 C 160.98 352.94 160.25 351.98 158.88 350.88 C 157.50 349.77 155.15 348.08 153.38 347.12 C 151.60 346.17 150.19 345.46 148.25 345.12 C 146.31 344.79 143.25 344.81 141.75 345.12 C 140.25 345.44 139.67 346.23 139.25 347.00 Z" id="s-8-f-1"/>
<path d="M 139.25 347.00 C 138.81 347.73 138.77 348.56 139.12 349.50 C 139.48 350.44 140.58 351.21 141.38 352.62 C 142.17 354.04 142.10 353.10 143.88 358.00 C 145.65 362.90 149.81 375.83 152.00 382.00 C 154.19 388.17 155.31 391.15 157.00 395.00 C 158.69 398.85 160.46 402.08 162.12 405.12 C 163.79 408.17 164.67 409.83 167.00 413.25 C 169.33 416.67 173.85 422.71 176.12 425.62 C 178.40 428.54 178.60 428.77 180.62 430.75 C 182.65 432.73 185.00 435.00 188.25 437.50 C 191.50 440.00 195.58 443.04 200.12 445.75 C 204.67 448.46 210.44 451.44 215.50 453.75 C 220.56 456.06 224.83 457.79 230.50 459.62 C 236.17 461.46 243.48 463.40 249.50 464.75 C 255.52 466.10 260.54 466.94 266.62 467.75 C 272.71 468.56 278.71 469.27 286.00 469.62 C 293.29 469.98 306.21 469.75 310.38 469.88 C 314.54 470.00 310.88 468.25 311.00 470.38 C 311.12 472.50 311.08 482.60 311.12 482.62 C 311.17 482.65 311.00 472.71 311.25 470.50 C 311.50 468.29 310.42 469.62 312.62 469.38 C 314.83 469.12 322.23 469.19 324.50 469.00 C 326.77 468.81 325.02 468.38 326.25 468.25 C 327.48 468.12 329.12 468.50 331.88 468.25 C 334.62 468.00 338.00 467.67 342.75 466.75 C 347.50 465.83 355.33 464.08 360.38 462.75 C 365.42 461.42 369.12 460.25 373.00 458.75 C 376.88 457.25 380.46 455.42 383.62 453.75 C 386.79 452.08 389.48 450.52 392.00 448.75 C 394.52 446.98 397.21 444.58 398.75 443.12 C 400.29 441.67 400.60 440.96 401.25 440.00 C 401.90 439.04 402.38 438.71 402.62 437.38 C 402.88 436.04 403.06 433.67 402.75 432.00 C 402.44 430.33 402.06 429.06 400.75 427.38 C 399.44 425.69 396.65 423.23 394.88 421.88 C 393.10 420.52 391.33 419.77 390.12 419.25 C 388.92 418.73 396.94 417.65 387.62 418.75 C 378.31 419.85 344.04 424.50 334.25 425.88 C 324.46 427.25 330.54 426.52 328.88 427.00 C 327.21 427.48 326.29 428.12 324.25 428.75 C 322.21 429.38 319.65 430.08 316.62 430.75 C 313.60 431.42 311.56 432.08 306.12 432.75 C 300.69 433.42 290.54 434.44 284.00 434.75 C 277.46 435.06 271.44 434.79 266.88 434.62 C 262.31 434.46 261.04 434.38 256.62 433.75 C 252.21 433.12 245.42 432.04 240.38 430.88 C 235.33 429.71 230.46 428.10 226.38 426.75 C 222.29 425.40 219.92 424.58 215.88 422.75 C 211.83 420.92 205.71 417.79 202.12 415.75 C 198.54 413.71 197.44 413.06 194.38 410.50 C 191.31 407.94 186.33 403.10 183.75 400.38 C 181.17 397.65 180.67 396.77 178.88 394.12 C 177.08 391.48 174.81 388.02 173.00 384.50 C 171.19 380.98 169.33 376.44 168.00 373.00 C 166.67 369.56 165.75 366.46 165.00 363.88 C 164.25 361.29 164.06 359.19 163.50 357.50 C 162.94 355.81 162.40 354.85 161.62 353.75 C 160.85 352.65 160.25 351.98 158.88 350.88 C 157.50 349.77 155.15 348.08 153.38 347.12 C 151.60 346.17 150.19 345.46 148.25 345.12 C 146.31 344.79 143.25 344.81 141.75 345.12 C 140.25 345.44 139.69 346.27 139.25 347.00 Z" id="s-8-f-2"/>
<path d="M 139.25 347.00 C 138.81 347.73 138.77 348.56 139.12 349.50 C 139.48 350.44 140.58 351.21 141.38 352.62 C 142.17 354.04 142.10 353.10 143.88 358.00 C 145.65 362.90 149.81 375.83 152.00 382.00 C 154.19 388.17 155.15 390.85 157.00 395.00 C 158.85 399.15 160.79 402.88 163.12 406.88 C 165.46 410.88 168.19 415.12 171.00 419.00 C 173.81 422.88 177.12 427.04 180.00 430.12 C 182.88 433.21 185.69 435.40 188.25 437.50 C 190.81 439.60 192.85 441.04 195.38 442.75 C 197.90 444.46 200.02 445.92 203.38 447.75 C 206.73 449.58 211.85 452.08 215.50 453.75 C 219.15 455.42 221.71 456.44 225.25 457.75 C 228.79 459.06 231.08 460.15 236.75 461.62 C 242.42 463.10 252.92 465.44 259.25 466.62 C 265.58 467.81 270.29 468.25 274.75 468.75 C 279.21 469.25 280.06 469.44 286.00 469.62 C 291.94 469.81 306.21 469.75 310.38 469.88 C 314.54 470.00 310.88 468.25 311.00 470.38 C 311.12 472.50 311.08 482.60 311.12 482.62 C 311.17 482.65 311.00 472.71 311.25 470.50 C 311.50 468.29 310.71 469.60 312.62 469.38 C 314.54 469.15 320.48 469.31 322.75 469.12 C 325.02 468.94 324.73 468.40 326.25 468.25 C 327.77 468.10 328.17 468.69 331.88 468.25 C 335.58 467.81 342.60 466.88 348.50 465.62 C 354.40 464.38 362.69 462.08 367.25 460.75 C 371.81 459.42 373.96 458.44 375.88 457.62 C 377.79 456.81 378.25 462.08 378.75 455.88 C 379.25 449.67 378.94 426.35 378.88 420.38 C 378.81 414.40 385.81 419.08 378.38 420.00 C 370.94 420.92 342.50 424.71 334.25 425.88 C 326.00 427.04 330.44 426.54 328.88 427.00 C 327.31 427.46 326.92 428.00 324.88 428.62 C 322.83 429.25 319.75 430.06 316.62 430.75 C 313.50 431.44 311.56 432.08 306.12 432.75 C 300.69 433.42 290.42 434.44 284.00 434.75 C 277.58 435.06 273.38 434.96 267.62 434.62 C 261.88 434.29 254.81 433.56 249.50 432.75 C 244.19 431.94 240.21 430.96 235.75 429.75 C 231.29 428.54 226.44 426.83 222.75 425.50 C 219.06 424.17 217.06 423.38 213.62 421.75 C 210.19 420.12 205.33 417.62 202.12 415.75 C 198.92 413.88 196.62 412.23 194.38 410.50 C 192.12 408.77 190.81 407.56 188.62 405.38 C 186.44 403.19 183.85 400.85 181.25 397.38 C 178.65 393.90 175.21 388.56 173.00 384.50 C 170.79 380.44 169.33 376.44 168.00 373.00 C 166.67 369.56 165.75 366.46 165.00 363.88 C 164.25 361.29 164.06 359.19 163.50 357.50 C 162.94 355.81 162.29 354.75 161.62 353.75 C 160.96 352.75 160.88 352.60 159.50 351.50 C 158.12 350.40 155.25 348.19 153.38 347.12 C 151.50 346.06 150.19 345.46 148.25 345.12 C 146.31 344.79 143.25 344.81 141.75 345.12 C 140.25 345.44 139.69 346.27 139.25 347.00 Z" id="s-8-f-3"/>
<path d="M 139.25 347.00 C 138.81 347.73 138.75 348.52 139.12 349.50 C 139.50 350.48 140.71 351.46 141.50 352.88 C 142.29 354.29 141.62 351.77 143.88 358.00 C 146.12 364.23 152.48 383.40 155.00 390.25 C 157.52 397.10 157.52 396.12 159.00 399.12 C 160.48 402.12 161.88 404.94 163.88 408.25 C 165.88 411.56 168.31 415.35 171.00 419.00 C 173.69 422.65 177.12 427.04 180.00 430.12 C 182.88 433.21 185.44 435.23 188.25 437.50 C 191.06 439.77 194.35 442.04 196.88 443.75 C 199.40 445.46 199.60 445.79 203.38 447.75 C 207.15 449.71 214.42 453.33 219.50 455.50 C 224.58 457.67 229.71 459.40 233.88 460.75 C 238.04 462.10 240.27 462.65 244.50 463.62 C 248.73 464.60 254.17 465.77 259.25 466.62 C 264.33 467.48 270.27 468.23 275.00 468.75 C 279.73 469.27 281.67 469.54 287.62 469.75 C 293.58 469.96 306.83 467.85 310.75 470.00 C 314.67 472.15 311.04 482.54 311.12 482.62 C 311.21 482.71 311.08 472.67 311.25 470.50 C 311.42 468.33 311.79 469.83 312.12 469.62 C 312.46 469.42 311.19 469.35 313.25 469.25 C 315.31 469.15 322.35 469.17 324.50 469.00 C 326.65 468.83 325.38 468.38 326.12 468.25 C 326.88 468.12 328.17 468.35 329.00 468.25 C 329.83 468.15 330.83 474.50 331.12 467.62 C 331.42 460.75 331.12 433.77 330.75 427.00 C 330.38 420.23 329.96 426.71 328.88 427.00 C 327.79 427.29 327.04 427.96 324.25 428.75 C 321.46 429.54 316.42 430.92 312.12 431.75 C 307.83 432.58 303.08 433.25 298.50 433.75 C 293.92 434.25 289.31 434.58 284.62 434.75 C 279.94 434.92 275.04 434.92 270.38 434.75 C 265.71 434.58 260.98 434.25 256.62 433.75 C 252.27 433.25 248.29 432.58 244.25 431.75 C 240.21 430.92 236.81 430.12 232.38 428.75 C 227.94 427.38 221.79 425.17 217.62 423.50 C 213.46 421.83 211.00 420.73 207.38 418.75 C 203.75 416.77 199.00 413.85 195.88 411.62 C 192.75 409.40 191.06 407.75 188.62 405.38 C 186.19 403.00 183.85 400.85 181.25 397.38 C 178.65 393.90 175.21 388.56 173.00 384.50 C 170.79 380.44 169.71 377.79 168.00 373.00 C 166.29 368.21 163.81 358.96 162.75 355.75 C 161.69 352.54 162.27 354.56 161.62 353.75 C 160.98 352.94 160.27 351.98 158.88 350.88 C 157.48 349.77 155.02 348.08 153.25 347.12 C 151.48 346.17 150.17 345.46 148.25 345.12 C 146.33 344.79 143.25 344.81 141.75 345.12 C 140.25 345.44 139.69 346.27 139.25 347.00 Z" id="s-8-f-4"/>
<path d="M 139.88 346.25 C 139.31 346.75 139.10 347.42 139.00 348.00 C 138.90 348.58 138.85 348.98 139.25 349.75 C 139.65 350.52 140.65 351.35 141.38 352.62 C 142.10 353.90 141.52 351.54 143.62 357.38 C 145.73 363.21 151.27 380.31 154.00 387.62 C 156.73 394.94 157.83 396.98 160.00 401.25 C 162.17 405.52 165.04 410.12 167.00 413.25 C 168.96 416.38 169.58 417.19 171.75 420.00 C 173.92 422.81 177.65 427.54 180.00 430.12 C 182.35 432.71 183.81 433.75 185.88 435.50 C 187.94 437.25 189.44 438.58 192.38 440.62 C 195.31 442.67 199.33 445.42 203.50 447.75 C 207.67 450.08 212.88 452.65 217.38 454.62 C 221.88 456.60 226.58 458.27 230.50 459.62 C 234.42 460.98 236.08 461.58 240.88 462.75 C 245.67 463.92 253.56 465.62 259.25 466.62 C 264.94 467.62 271.10 468.35 275.00 468.75 C 278.90 469.15 281.29 469.35 282.62 469.00 C 283.96 468.65 282.94 470.60 283.00 466.62 C 283.06 462.65 283.08 450.44 283.00 445.12 C 282.92 439.81 284.62 436.48 282.50 434.75 C 280.38 433.02 274.56 434.92 270.25 434.75 C 265.94 434.58 261.60 434.40 256.62 433.75 C 251.65 433.10 244.42 431.71 240.38 430.88 C 236.33 430.04 236.10 429.96 232.38 428.75 C 228.65 427.54 221.92 425.17 218.00 423.62 C 214.08 422.08 211.52 420.81 208.88 419.50 C 206.23 418.19 204.29 417.06 202.12 415.75 C 199.96 414.44 197.73 412.98 195.88 411.62 C 194.02 410.27 193.02 409.50 191.00 407.62 C 188.98 405.75 185.77 402.62 183.75 400.38 C 181.73 398.12 180.67 396.77 178.88 394.12 C 177.08 391.48 174.48 387.19 173.00 384.50 C 171.52 381.81 171.17 380.88 170.00 378.00 C 168.83 375.12 167.08 370.67 166.00 367.25 C 164.92 363.83 164.23 359.75 163.50 357.50 C 162.77 355.25 162.58 355.00 161.62 353.75 C 160.67 352.50 159.52 351.29 157.75 350.00 C 155.98 348.71 152.69 346.83 151.00 346.00 C 149.31 345.17 149.06 345.17 147.62 345.00 C 146.19 344.83 143.67 344.79 142.38 345.00 C 141.08 345.21 140.44 345.75 139.88 346.25 Z" id="s-8-f-5"/>
<path d="M 140.25 345.88 C 139.71 346.27 139.29 346.73 139.12 347.38 C 138.96 348.02 138.85 348.83 139.25 349.75 C 139.65 350.67 140.73 351.50 141.50 352.88 C 142.27 354.25 142.12 353.15 143.88 358.00 C 145.62 362.85 149.81 375.83 152.00 382.00 C 154.19 388.17 155.31 391.15 157.00 395.00 C 158.69 398.85 160.65 402.40 162.12 405.12 C 163.60 407.85 163.71 408.17 165.88 411.38 C 168.04 414.58 172.96 421.46 175.12 424.38 C 177.29 427.29 176.69 426.69 178.88 428.88 C 181.06 431.06 184.17 434.35 188.25 437.50 C 192.33 440.65 199.21 445.21 203.38 447.75 C 207.54 450.29 210.06 451.25 213.25 452.75 C 216.44 454.25 219.06 455.42 222.50 456.75 C 225.94 458.08 231.83 460.10 233.88 460.75 C 235.92 461.40 234.60 465.83 234.75 460.62 C 234.90 455.42 234.83 434.77 234.75 429.50 C 234.67 424.23 236.25 429.67 234.25 429.00 C 232.25 428.33 226.98 427.08 222.75 425.50 C 218.52 423.92 212.77 421.42 208.88 419.50 C 204.98 417.58 202.10 415.75 199.38 414.00 C 196.65 412.25 195.25 411.44 192.50 409.00 C 189.75 406.56 185.15 401.85 182.88 399.38 C 180.60 396.90 180.52 396.60 178.88 394.12 C 177.23 391.65 174.81 388.02 173.00 384.50 C 171.19 380.98 169.33 376.44 168.00 373.00 C 166.67 369.56 165.75 366.44 165.00 363.88 C 164.25 361.31 164.06 359.31 163.50 357.62 C 162.94 355.94 162.58 355.02 161.62 353.75 C 160.67 352.48 159.52 351.29 157.75 350.00 C 155.98 348.71 152.71 346.83 151.00 346.00 C 149.29 345.17 148.94 345.17 147.50 345.00 C 146.06 344.83 143.58 344.85 142.38 345.00 C 141.17 345.15 140.79 345.48 140.25 345.88 Z" id="s-8-f-6"/>
<path d="M 141.38 345.25 C 140.00 345.58 139.62 346.31 139.25 347.00 C 138.88 347.69 138.75 348.40 139.12 349.38 C 139.50 350.35 140.75 351.56 141.50 352.88 C 142.25 354.19 141.54 351.46 143.62 357.25 C 145.71 363.04 151.44 380.65 154.00 387.62 C 156.56 394.60 156.83 394.85 159.00 399.12 C 161.17 403.40 165.00 409.94 167.00 413.25 C 169.00 416.56 169.02 416.40 171.00 419.00 C 172.98 421.60 176.31 426.06 178.88 428.88 C 181.44 431.69 185.04 436.31 186.38 435.88 C 187.71 435.44 186.81 431.60 186.88 426.25 C 186.94 420.90 188.08 409.10 186.75 403.75 C 185.42 398.40 181.17 397.33 178.88 394.12 C 176.58 390.92 174.81 388.02 173.00 384.50 C 171.19 380.98 169.33 376.44 168.00 373.00 C 166.67 369.56 165.73 366.38 165.00 363.88 C 164.27 361.38 164.19 359.69 163.62 358.00 C 163.06 356.31 162.50 355.00 161.62 353.75 C 160.75 352.50 160.15 351.79 158.38 350.50 C 156.60 349.21 152.81 346.92 151.00 346.00 C 149.19 345.08 149.10 345.12 147.50 345.00 C 145.90 344.88 142.75 344.92 141.38 345.25 Z" id="s-8-f-7"/>
</g>
<g id="s-9" clip-path="url(#c-s-9)">
<use href="#s-9-f-0"/>
<path d="M 215.00 335.50 C 214.69 335.94 214.67 335.88 215.00 336.62 C 215.33 337.38 214.69 336.60 217.00 340.00 C 219.31 343.40 225.17 351.90 228.88 357.00 C 232.58 362.10 236.44 367.10 239.25 370.62 C 242.06 374.15 243.69 375.92 245.75 378.12 C 247.81 380.33 249.58 382.12 251.62 383.88 C 253.67 385.62 256.31 387.67 258.00 388.62 C 259.69 389.58 261.02 389.83 261.75 389.62 C 262.48 389.42 262.19 389.40 262.38 387.38 C 262.56 385.35 262.77 383.44 262.88 377.50 C 262.98 371.56 263.04 356.56 263.00 351.75 C 262.96 346.94 263.06 349.44 262.62 348.62 C 262.19 347.81 262.02 347.81 260.38 346.88 C 258.73 345.94 255.65 344.27 252.75 343.00 C 249.85 341.73 246.73 340.54 243.00 339.25 C 239.27 337.96 234.02 336.15 230.38 335.25 C 226.73 334.35 223.38 334.08 221.12 333.88 C 218.88 333.67 217.90 333.73 216.88 334.00 C 215.85 334.27 215.31 335.06 215.00 335.50 Z" id="s-9-f-1"/>
</g>
<g id="s-10" clip-path="url(#c-s-10)">
<use href="#s-10-f-0"/>
<path d="M 352.75 320.00 C 351.75 320.10 352.12 320.21 352.00 320.75 C 351.88 321.29 351.69 322.35 352.00 323.25 C 352.31 324.15 351.96 324.06 353.88 326.12 C 355.79 328.19 361.08 333.12 363.50 335.62 C 365.92 338.12 365.81 337.96 368.38 341.12 C 370.94 344.29 375.27 349.75 378.88 354.62 C 382.48 359.50 386.56 365.92 390.00 370.38 C 393.44 374.83 397.83 384.83 399.50 381.38 C 401.17 377.92 399.96 357.31 400.00 349.62 C 400.04 341.94 402.58 338.85 399.75 335.25 C 396.92 331.65 388.58 330.19 383.00 328.00 C 377.42 325.81 370.42 323.44 366.25 322.12 C 362.08 320.81 360.25 320.48 358.00 320.12 C 355.75 319.77 353.75 319.90 352.75 320.00 Z" id="s-10-f-1"/>
</g>
</svg>