<?xml version="1.0" encoding="UTF-8"?>
<svg xmlns="http://www.w3.org/2000/svg" viewBox="0 0 500 500">
<defs>
<path d="M 252.00 42.12 C 251.00 42.38 251.17 42.65 251.00 43.50 C 250.83 44.35 249.71 44.54 251.00 47.25 C 252.29 49.96 255.27 53.12 258.75 59.75 C 262.23 66.38 268.85 81.10 271.88 87.00 C 274.90 92.90 275.35 92.98 276.88 95.12 C 278.40 97.27 280.08 99.06 281.00 99.88 C 281.92 100.69 279.08 100.50 282.38 100.00 C 285.67 99.50 297.35 98.12 300.75 96.88 C 304.15 95.62 302.10 94.27 302.75 92.50 C 303.40 90.73 304.10 88.77 304.62 86.25 C 305.15 83.73 305.69 79.79 305.88 77.38 C 306.06 74.96 305.92 73.19 305.75 71.75 C 305.58 70.31 305.65 70.25 304.88 68.75 C 304.10 67.25 302.23 64.23 301.12 62.75 C 300.02 61.27 299.40 60.85 298.25 59.88 C 297.10 58.90 296.75 58.38 294.25 56.88 C 291.75 55.38 288.65 53.19 283.25 50.88 C 277.85 48.56 266.25 44.48 261.88 43.00 C 257.50 41.52 258.65 42.15 257.00 42.00 C 255.35 41.85 253.00 41.88 252.00 42.12 Z" id="s-0-f-0"/>
<clipPath id="c-s-0"><use href="#s-0-f-0"/></clipPath>
<path d="M 428.88 103.38 C 428.67 102.62 428.35 101.60 427.50 100.50 C 426.65 99.40 424.96 97.85 423.75 96.75 C 422.54 95.65 422.31 95.33 420.25 93.88 C 418.19 92.42 415.29 89.79 411.38 88.00 C 407.46 86.21 400.44 83.96 396.75 83.12 C 393.06 82.29 393.62 82.50 389.25 83.00 C 384.88 83.50 375.48 85.19 370.50 86.12 C 365.52 87.06 370.71 86.88 359.38 88.62 C 348.04 90.38 312.83 95.29 302.50 96.62 C 292.17 97.96 298.56 96.50 297.38 96.62 C 296.19 96.75 297.71 97.02 295.38 97.38 C 293.04 97.73 285.65 98.40 283.38 98.75 C 281.10 99.10 286.69 98.67 281.75 99.50 C 276.81 100.33 265.92 102.04 253.75 103.75 C 241.58 105.46 227.67 107.38 208.75 109.75 C 189.83 112.12 152.81 116.27 140.25 118.00 C 127.69 119.73 134.77 119.54 133.38 120.12 C 131.98 120.71 132.12 121.10 131.88 121.50 C 131.62 121.90 131.73 122.04 131.88 122.50 C 132.02 122.96 132.15 123.50 132.75 124.25 C 133.35 125.00 133.60 125.71 135.50 127.00 C 137.40 128.29 135.92 130.83 144.12 132.00 C 152.33 133.17 167.62 135.31 184.75 134.00 C 201.88 132.69 229.73 126.62 246.88 124.12 C 264.02 121.62 269.27 120.85 287.62 119.00 C 305.98 117.15 335.06 114.54 357.00 113.00 C 378.94 111.46 408.06 110.46 419.25 109.75 C 430.44 109.04 422.94 109.10 424.12 108.75 C 425.31 108.40 425.60 108.25 426.38 107.62 C 427.15 107.00 428.33 105.71 428.75 105.00 C 429.17 104.29 429.08 104.12 428.88 103.38 Z" id="s-1-f-0"/>
<clipPath id="c-s-1"><use href="#s-1-f-0"/></clipPath>
<path d="M 184.38 133.50 C 182.52 132.75 179.02 132.79 175.50 132.62 C 171.98 132.46 166.62 132.67 163.25 132.50 C 159.88 132.33 158.40 131.79 155.25 131.62 C 152.10 131.46 146.25 131.42 144.38 131.50 C 142.50 131.58 143.90 131.35 144.00 132.12 C 144.10 132.90 144.04 133.44 145.00 136.12 C 145.96 138.81 148.65 144.56 149.75 148.25 C 150.85 151.94 151.29 154.12 151.62 158.25 C 151.96 162.38 151.88 166.92 151.75 173.00 C 151.62 179.08 151.35 187.12 150.88 194.75 C 150.40 202.38 149.73 210.75 148.88 218.75 C 148.02 226.75 147.12 233.98 145.75 242.75 C 144.38 251.52 142.65 261.40 140.62 271.38 C 138.60 281.35 135.77 294.08 133.62 302.62 C 131.48 311.17 130.08 315.42 127.75 322.62 C 125.42 329.83 122.00 339.48 119.62 345.88 C 117.25 352.27 116.31 354.62 113.50 361.00 C 110.69 367.38 106.21 377.17 102.75 384.12 C 99.29 391.08 95.79 397.40 92.75 402.75 C 89.71 408.10 87.67 411.38 84.50 416.25 C 81.33 421.12 77.50 426.79 73.75 432.00 C 70.00 437.21 63.98 444.60 62.00 447.50 C 60.02 450.40 61.81 448.98 61.88 449.38 C 61.94 449.77 61.52 449.81 62.38 449.88 C 63.23 449.94 65.56 449.92 67.00 449.75 C 68.44 449.58 69.15 449.92 71.00 448.88 C 72.85 447.83 75.17 445.92 78.12 443.50 C 81.08 441.08 85.77 437.08 88.75 434.38 C 91.73 431.67 92.27 431.25 96.00 427.25 C 99.73 423.25 106.17 416.46 111.12 410.38 C 116.08 404.29 121.67 397.35 125.75 390.75 C 129.83 384.15 132.48 377.69 135.62 370.75 C 138.77 363.81 141.94 356.04 144.62 349.12 C 147.31 342.21 149.23 336.92 151.75 329.25 C 154.27 321.58 157.10 312.92 159.75 303.12 C 162.40 293.33 165.65 279.44 167.62 270.50 C 169.60 261.56 170.10 258.33 171.62 249.50 C 173.15 240.67 175.42 226.48 176.75 217.50 C 178.08 208.52 178.42 206.67 179.62 195.62 C 180.83 184.58 182.79 160.48 184.00 151.25 C 185.21 142.02 186.44 142.60 186.88 140.25 C 187.31 137.90 187.04 138.25 186.62 137.12 C 186.21 136.00 186.23 134.25 184.38 133.50 Z" id="s-2-f-0"/>
<clipPath id="c-s-2"><use href="#s-2-f-0"/></clipPath>
<path d="M 57.50 173.75 C 56.94 174.25 56.23 175.15 56.00 175.88 C 55.77 176.60 52.77 172.44 56.12 178.12 C 59.48 183.81 71.69 203.19 76.12 210.00 C 80.56 216.81 80.83 216.56 82.75 219.00 C 84.67 221.44 86.06 223.00 87.62 224.62 C 89.19 226.25 90.67 227.73 92.12 228.75 C 93.58 229.77 94.67 230.42 96.38 230.75 C 98.08 231.08 100.52 231.10 102.38 230.75 C 104.23 230.40 106.10 229.60 107.50 228.62 C 108.90 227.65 109.90 226.44 110.75 224.88 C 111.60 223.31 112.29 222.02 112.62 219.25 C 112.96 216.48 112.90 211.04 112.75 208.25 C 112.60 205.46 112.10 204.00 111.75 202.50 C 111.40 201.00 111.15 200.44 110.62 199.25 C 110.10 198.06 109.52 196.75 108.62 195.38 C 107.73 194.00 107.12 192.73 105.25 191.00 C 103.38 189.27 99.62 186.48 97.38 185.00 C 95.12 183.52 94.44 183.29 91.75 182.12 C 89.06 180.96 85.00 179.33 81.25 178.00 C 77.50 176.67 72.12 174.96 69.25 174.12 C 66.38 173.29 65.65 173.21 64.00 173.00 C 62.35 172.79 60.46 172.75 59.38 172.88 C 58.29 173.00 58.06 173.25 57.50 173.75 Z" id="s-3-f-0"/>
<clipPath id="c-s-3"><use href="#s-3-f-0"/></clipPath>
<path d="M 120.75 256.12 C 120.52 255.44 120.00 255.17 119.38 255.00 C 118.75 254.83 118.29 254.35 117.00 255.12 C 115.71 255.90 115.42 256.83 111.62 259.62 C 107.83 262.42 100.44 267.85 94.25 271.88 C 88.06 275.90 80.33 280.44 74.50 283.75 C 68.67 287.06 64.23 289.44 59.25 291.75 C 54.27 294.06 47.77 296.46 44.62 297.62 C 41.48 298.79 42.67 298.33 40.38 298.75 C 38.08 299.17 32.58 299.79 30.88 300.12 C 29.17 300.46 30.44 300.15 30.12 300.75 C 29.81 301.35 29.21 302.50 29.00 303.75 C 28.79 305.00 28.71 307.02 28.88 308.25 C 29.04 309.48 28.67 309.17 30.00 311.12 C 31.33 313.08 34.73 317.56 36.88 320.00 C 39.02 322.44 40.98 324.12 42.88 325.75 C 44.77 327.38 47.02 328.92 48.25 329.75 C 49.48 330.58 49.23 330.60 50.25 330.75 C 51.27 330.90 53.04 330.94 54.38 330.62 C 55.71 330.31 56.48 330.02 58.25 328.88 C 60.02 327.73 58.19 330.65 65.00 323.75 C 71.81 316.85 91.69 295.52 99.12 287.50 C 106.56 279.48 106.38 279.58 109.62 275.62 C 112.88 271.67 116.77 266.50 118.62 263.75 C 120.48 261.00 120.40 260.40 120.75 259.12 C 121.10 257.85 120.98 256.81 120.75 256.12 Z" id="s-4-f-0"/>
<clipPath id="c-s-4"><use href="#s-4-f-0"/></clipPath>
<path d="M 432.62 177.38 C 432.08 176.25 430.54 175.02 429.50 174.12 C 428.46 173.23 428.23 173.02 426.38 172.00 C 424.52 170.98 421.85 169.46 418.38 168.00 C 414.90 166.54 408.69 164.08 405.50 163.25 C 402.31 162.42 407.71 161.75 399.25 163.00 C 390.79 164.25 362.69 169.44 354.75 170.75 C 346.81 172.06 356.02 170.17 351.62 170.88 C 347.23 171.58 332.60 174.19 328.38 175.00 C 324.15 175.81 329.52 175.25 326.25 175.75 C 322.98 176.25 315.17 177.00 308.75 178.00 C 302.33 179.00 293.77 180.79 287.75 181.75 C 281.73 182.71 277.56 183.23 272.62 183.75 C 267.69 184.27 267.17 183.71 258.12 184.88 C 249.08 186.04 230.06 189.21 218.38 190.75 C 206.69 192.29 193.75 193.42 188.00 194.12 C 182.25 194.83 184.71 194.73 183.88 195.00 C 183.04 195.27 183.17 195.48 183.00 195.75 C 182.83 196.02 182.54 196.02 182.88 196.62 C 183.21 197.23 184.10 198.50 185.00 199.38 C 185.90 200.25 186.29 200.67 188.25 201.88 C 190.21 203.08 194.10 205.33 196.75 206.62 C 199.40 207.92 201.98 209.10 204.12 209.62 C 206.27 210.15 205.83 210.35 209.62 209.75 C 213.42 209.15 221.29 206.98 226.88 206.00 C 232.46 205.02 237.04 204.90 243.12 203.88 C 249.21 202.85 256.62 200.92 263.38 199.88 C 270.12 198.83 276.02 198.62 283.62 197.62 C 291.23 196.62 301.75 194.67 309.00 193.88 C 316.25 193.08 320.40 193.54 327.12 192.88 C 333.85 192.21 343.42 190.52 349.38 189.88 C 355.33 189.23 351.62 189.40 362.88 189.00 C 374.12 188.60 405.83 188.21 416.88 187.50 C 427.92 186.79 426.58 185.65 429.12 184.75 C 431.67 183.85 431.52 182.77 432.12 182.12 C 432.73 181.48 432.67 181.67 432.75 180.88 C 432.83 180.08 433.17 178.50 432.62 177.38 Z" id="s-5-f-0"/>
<clipPath id="c-s-5"><use href="#s-5-f-0"/></clipPath>
<path d="M 225.50 149.00 C 223.48 149.15 224.02 149.69 223.50 150.12 C 222.98 150.56 222.65 150.88 222.38 151.62 C 222.10 152.38 221.83 153.85 221.88 154.62 C 221.92 155.40 221.54 155.10 222.62 156.25 C 223.71 157.40 226.90 159.94 228.38 161.50 C 229.85 163.06 230.60 164.17 231.50 165.62 C 232.40 167.08 232.88 167.94 233.75 170.25 C 234.62 172.56 235.92 176.67 236.75 179.50 C 237.58 182.33 238.44 184.98 238.75 187.25 C 239.06 189.52 238.52 191.81 238.62 193.12 C 238.73 194.44 239.21 193.79 239.38 195.12 C 239.54 196.46 239.25 199.08 239.62 201.12 C 240.00 203.17 240.60 202.88 241.62 207.38 C 242.65 211.88 245.00 223.71 245.75 228.12 C 246.50 232.54 245.92 232.31 246.12 233.88 C 246.33 235.44 246.54 236.17 247.00 237.50 C 247.46 238.83 247.90 239.96 248.88 241.88 C 249.85 243.79 251.77 247.52 252.88 249.00 C 253.98 250.48 254.62 250.46 255.50 250.75 C 256.38 251.04 257.46 250.88 258.12 250.75 C 258.79 250.62 258.71 250.77 259.50 250.00 C 260.29 249.23 262.17 247.31 262.88 246.12 C 263.58 244.94 263.56 244.21 263.75 242.88 C 263.94 241.54 264.10 246.08 264.00 238.12 C 263.90 230.17 263.42 202.44 263.12 195.12 C 262.83 187.81 262.42 195.48 262.25 194.25 C 262.08 193.02 262.48 189.94 262.12 187.75 C 261.77 185.56 260.54 185.33 260.12 181.12 C 259.71 176.92 259.96 166.06 259.62 162.50 C 259.29 158.94 258.85 160.67 258.12 159.75 C 257.40 158.83 256.23 157.79 255.25 157.00 C 254.27 156.21 254.83 156.15 252.25 155.00 C 249.67 153.85 242.52 151.08 239.75 150.12 C 236.98 149.17 238.00 149.44 235.62 149.25 C 233.25 149.06 227.52 148.85 225.50 149.00 Z" id="s-6-f-0"/>
<clipPath id="c-s-6"><use href="#s-6-f-0"/></clipPath>
<path d="M 327.75 124.00 C 325.81 124.12 325.52 124.62 324.75 125.00 C 323.98 125.38 323.58 125.73 323.12 126.25 C 322.67 126.77 322.19 127.40 322.00 128.12 C 321.81 128.85 321.40 128.73 322.00 130.62 C 322.60 132.52 324.83 137.31 325.62 139.50 C 326.42 141.69 326.42 141.96 326.75 143.75 C 327.08 145.54 327.46 148.02 327.62 150.25 C 327.79 152.48 328.04 152.94 327.75 157.12 C 327.46 161.31 326.38 171.94 325.88 175.38 C 325.38 178.81 325.00 176.10 324.75 177.75 C 324.50 179.40 324.56 183.60 324.38 185.25 C 324.19 186.90 323.73 186.12 323.62 187.62 C 323.52 189.12 324.21 189.25 323.75 194.25 C 323.29 199.25 321.06 213.52 320.88 217.62 C 320.69 221.73 319.54 217.69 322.62 218.88 C 325.71 220.06 336.48 223.81 339.38 224.75 C 342.27 225.69 338.42 230.25 340.00 224.50 C 341.58 218.75 347.19 196.25 348.88 190.25 C 350.56 184.25 349.90 189.17 350.12 188.50 C 350.35 187.83 349.92 187.54 350.25 186.25 C 350.58 184.96 351.77 182.12 352.12 180.75 C 352.48 179.38 352.21 178.62 352.38 178.00 C 352.54 177.38 352.96 177.60 353.12 177.00 C 353.29 176.40 353.21 175.00 353.38 174.38 C 353.54 173.75 354.00 174.08 354.12 173.25 C 354.25 172.42 353.79 171.33 354.12 169.38 C 354.46 167.42 355.31 163.98 356.12 161.50 C 356.94 159.02 357.79 156.75 359.00 154.50 C 360.21 152.25 362.56 149.73 363.38 148.00 C 364.19 146.27 363.85 145.04 363.88 144.12 C 363.90 143.21 364.04 143.46 363.50 142.50 C 362.96 141.54 361.65 139.60 360.62 138.38 C 359.60 137.15 359.00 136.50 357.38 135.12 C 355.75 133.75 352.96 131.44 350.88 130.12 C 348.79 128.81 347.29 128.23 344.88 127.25 C 342.46 126.27 339.23 124.79 336.38 124.25 C 333.52 123.71 329.69 123.88 327.75 124.00 Z" id="s-7-f-0"/>
<clipPath id="c-s-7"><use href="#s-7-f-0"/></clipPath>
<path d="M 344.88 230.25 C 344.69 229.50 344.35 228.58 343.38 227.50 C 342.40 226.42 340.08 224.44 339.00 223.75 C 337.92 223.06 337.83 223.73 336.88 223.38 C 335.92 223.02 334.23 221.98 333.25 221.62 C 332.27 221.27 332.83 221.90 331.00 221.25 C 329.17 220.60 324.81 218.27 322.25 217.75 C 319.69 217.23 320.75 217.46 315.62 218.12 C 310.50 218.79 300.12 220.62 291.50 221.75 C 282.88 222.88 268.54 224.27 263.88 224.88 C 259.21 225.48 263.56 223.10 263.50 225.38 C 263.44 227.65 260.71 236.25 263.50 238.50 C 266.29 240.75 274.08 239.12 280.25 238.88 C 286.42 238.62 293.48 237.81 300.50 237.00 C 307.52 236.19 315.35 234.69 322.38 234.00 C 329.40 233.31 338.94 233.21 342.62 232.88 C 346.31 232.54 344.12 232.44 344.50 232.00 C 344.88 231.56 345.06 231.00 344.88 230.25 Z" id="s-8-f-0"/>
<clipPath id="c-s-8"><use href="#s-8-f-0"/></clipPath>
<path d="M 201.38 263.12 C 199.75 263.52 199.52 264.40 199.12 265.38 C 198.73 266.35 198.85 267.98 199.00 269.00 C 199.15 270.02 198.88 269.58 200.00 271.50 C 201.12 273.42 204.12 277.50 205.75 280.50 C 207.38 283.50 207.60 284.04 209.75 289.50 C 211.90 294.96 216.58 307.50 218.62 313.25 C 220.67 319.00 220.88 321.23 222.00 324.00 C 223.12 326.77 224.27 328.44 225.38 329.88 C 226.48 331.31 227.73 332.15 228.62 332.62 C 229.52 333.10 230.06 332.92 230.75 332.75 C 231.44 332.58 231.98 332.25 232.75 331.62 C 233.52 331.00 234.50 330.33 235.38 329.00 C 236.25 327.67 237.92 326.88 238.00 323.62 C 238.08 320.38 236.25 313.08 235.88 309.50 C 235.50 305.92 236.06 305.71 235.75 302.12 C 235.44 298.54 234.31 291.35 234.00 288.00 C 233.69 284.65 234.06 283.48 233.88 282.00 C 233.69 280.52 234.02 281.46 232.88 279.12 C 231.73 276.79 228.79 270.19 227.00 268.00 C 225.21 265.81 224.15 266.67 222.12 266.00 C 220.10 265.33 217.08 264.50 214.88 264.00 C 212.67 263.50 211.12 263.15 208.88 263.00 C 206.62 262.85 203.00 262.73 201.38 263.12 Z" id="s-9-f-0"/>
<clipPath id="c-s-9"><use href="#s-9-f-0"/></clipPath>
<path d="M 409.75 271.12 C 410.00 270.35 410.06 269.35 409.75 268.50 C 409.44 267.65 409.48 267.42 407.88 266.00 C 406.27 264.58 404.12 262.33 400.12 260.00 C 396.12 257.67 387.88 253.83 383.88 252.00 C 379.88 250.17 378.00 249.50 376.12 249.00 C 374.25 248.50 375.50 248.52 372.62 249.00 C 369.75 249.48 368.48 250.42 358.88 251.88 C 349.27 253.33 323.04 256.75 315.00 257.75 C 306.96 258.75 317.46 257.04 310.62 257.88 C 303.79 258.71 287.17 261.21 274.00 262.75 C 260.83 264.29 239.52 266.21 231.62 267.12 C 223.73 268.04 227.46 267.92 226.62 268.25 C 225.79 268.58 226.50 268.90 226.62 269.12 C 226.75 269.35 226.35 267.65 227.38 269.62 C 228.40 271.60 231.69 278.96 232.75 281.00 C 233.81 283.04 232.50 281.79 233.75 281.88 C 235.00 281.96 235.48 282.15 240.25 281.50 C 245.02 280.85 255.67 278.92 262.38 278.00 C 269.08 277.08 273.46 276.54 280.50 276.00 C 287.54 275.46 298.60 275.23 304.62 274.75 C 310.65 274.27 308.79 273.90 316.62 273.12 C 324.46 272.35 344.48 270.62 351.62 270.12 C 358.77 269.62 357.75 269.98 359.50 270.12 C 361.25 270.27 361.42 270.50 362.12 271.00 C 362.83 271.50 363.50 272.21 363.75 273.12 C 364.00 274.04 364.25 273.15 363.62 276.50 C 363.00 279.85 360.60 290.06 360.00 293.25 C 359.40 296.44 359.75 295.02 360.00 295.62 C 360.25 296.23 358.27 295.50 361.50 296.88 C 364.73 298.25 376.15 302.88 379.38 303.88 C 382.60 304.88 378.21 306.10 380.88 302.88 C 383.54 299.65 391.60 288.92 395.38 284.50 C 399.15 280.08 401.35 278.27 403.50 276.38 C 405.65 274.48 407.21 274.00 408.25 273.12 C 409.29 272.25 409.50 271.90 409.75 271.12 Z" id="s-10-f-0"/>
<clipPath id="c-s-10"><use href="#s-10-f-0"/></clipPath>
<path d="M 384.88 310.38 C 384.62 309.58 384.25 308.77 383.25 307.50 C 382.25 306.23 379.94 303.60 378.88 302.75 C 377.81 301.90 377.29 302.54 376.88 302.38 C 376.46 302.21 376.77 301.92 376.38 301.75 C 375.98 301.58 374.96 301.56 374.50 301.38 C 374.04 301.19 374.06 300.79 373.62 300.62 C 373.19 300.46 372.25 300.52 371.88 300.38 C 371.50 300.23 373.04 300.42 371.38 299.75 C 369.71 299.08 363.56 297.06 361.88 296.38 C 360.19 295.69 364.12 295.52 361.25 295.62 C 358.38 295.73 350.21 296.31 344.62 297.00 C 339.04 297.69 333.17 298.96 327.75 299.75 C 322.33 300.54 315.42 301.40 312.12 301.75 C 308.83 302.10 312.96 301.19 308.00 301.88 C 303.04 302.56 294.40 304.54 282.38 305.88 C 270.35 307.21 243.67 308.62 235.88 309.88 C 228.08 311.12 235.52 312.31 235.62 313.38 C 235.73 314.44 236.31 314.92 236.50 316.25 C 236.69 317.58 236.52 320.10 236.75 321.38 C 236.98 322.65 237.23 323.31 237.88 323.88 C 238.52 324.44 237.88 324.60 240.62 324.75 C 243.38 324.90 247.58 325.21 254.38 324.75 C 261.17 324.29 273.08 322.67 281.38 322.00 C 289.67 321.33 294.71 321.48 304.12 320.75 C 313.54 320.02 330.15 318.42 337.88 317.62 C 345.60 316.83 343.31 316.48 350.50 316.00 C 357.69 315.52 375.42 315.21 381.00 314.75 C 386.58 314.29 383.38 313.67 384.00 313.25 C 384.62 312.83 384.60 312.73 384.75 312.25 C 384.90 311.77 385.12 311.17 384.88 310.38 Z" id="s-11-f-0"/>
<clipPath id="c-s-11"><use href="#s-11-f-0"/></clipPath>
<path d="M 385.88 344.12 C 385.69 343.44 385.23 342.92 384.50 342.25 C 383.77 341.58 383.27 341.00 381.50 340.12 C 379.73 339.25 377.54 337.85 373.88 337.00 C 370.21 336.15 363.17 335.33 359.50 335.00 C 355.83 334.67 355.77 334.67 351.88 335.00 C 347.98 335.33 340.94 336.21 336.12 337.00 C 331.31 337.79 327.38 338.96 323.00 339.75 C 318.62 340.54 312.83 341.40 309.88 341.75 C 306.92 342.10 309.81 341.35 305.25 341.88 C 300.69 342.40 295.21 343.40 282.50 344.88 C 269.79 346.35 239.25 349.73 229.00 350.75 C 218.75 351.77 223.23 350.79 221.00 351.00 C 218.77 351.21 216.83 351.67 215.62 352.00 C 214.42 352.33 214.33 352.58 213.75 353.00 C 213.17 353.42 212.44 353.92 212.12 354.50 C 211.81 355.08 211.83 355.94 211.88 356.50 C 211.92 357.06 211.79 357.17 212.38 357.88 C 212.96 358.58 213.94 359.77 215.38 360.75 C 216.81 361.73 219.52 363.08 221.00 363.75 C 222.48 364.42 222.08 364.40 224.25 364.75 C 226.42 365.10 229.92 365.73 234.00 365.88 C 238.08 366.02 242.50 366.00 248.75 365.62 C 255.00 365.25 266.12 364.23 271.50 363.62 C 276.88 363.02 275.81 362.48 281.00 362.00 C 286.19 361.52 290.73 362.08 302.62 360.75 C 314.52 359.42 340.54 355.52 352.38 354.00 C 364.21 352.48 369.17 352.23 373.62 351.62 C 378.08 351.02 377.50 350.88 379.12 350.38 C 380.75 349.88 382.29 349.29 383.38 348.62 C 384.46 347.96 385.21 347.12 385.62 346.38 C 386.04 345.62 386.06 344.81 385.88 344.12 Z" id="s-12-f-0"/>
<clipPath id="c-s-12"><use href="#s-12-f-0"/></clipPath>
<path d="M 375.88 387.25 C 375.77 386.71 375.65 386.44 375.12 385.88 C 374.60 385.31 373.73 384.52 372.75 383.88 C 371.77 383.23 370.73 382.65 369.25 382.00 C 367.77 381.35 366.85 380.65 363.88 380.00 C 360.90 379.35 354.67 378.48 351.38 378.12 C 348.08 377.77 347.40 377.60 344.12 377.88 C 340.85 378.15 338.33 379.08 331.75 379.75 C 325.17 380.42 311.98 381.17 304.62 381.88 C 297.27 382.58 290.92 383.52 287.62 384.00 C 284.33 384.48 289.71 384.12 284.88 384.75 C 280.04 385.38 267.88 386.81 258.62 387.75 C 249.38 388.69 235.46 389.65 229.38 390.38 C 223.29 391.10 223.62 391.60 222.12 392.12 C 220.62 392.65 220.75 392.94 220.38 393.50 C 220.00 394.06 219.88 394.94 219.88 395.50 C 219.88 396.06 219.79 396.17 220.38 396.88 C 220.96 397.58 221.44 398.60 223.38 399.75 C 225.31 400.90 229.79 402.94 232.00 403.75 C 234.21 404.56 235.00 404.44 236.62 404.62 C 238.25 404.81 238.12 404.88 241.75 404.88 C 245.38 404.88 252.50 404.94 258.38 404.62 C 264.25 404.31 272.40 403.27 277.00 403.00 C 281.60 402.73 281.92 403.21 286.00 403.00 C 290.08 402.79 288.71 403.12 301.50 401.75 C 314.29 400.38 351.52 396.12 362.75 394.75 C 373.98 393.38 367.10 394.02 368.88 393.50 C 370.65 392.98 372.23 392.35 373.38 391.62 C 374.52 390.90 375.33 389.85 375.75 389.12 C 376.17 388.40 375.98 387.79 375.88 387.25 Z" id="s-13-f-0"/>
<clipPath id="c-s-13"><use href="#s-13-f-0"/></clipPath>
<path d="M 279.38 237.88 C 275.21 238.21 276.62 238.21 275.88 238.62 C 275.12 239.04 275.00 239.69 274.88 240.38 C 274.75 241.06 274.65 241.69 275.12 242.75 C 275.60 243.81 276.81 244.85 277.75 246.75 C 278.69 248.65 280.08 251.92 280.75 254.12 C 281.42 256.33 281.62 256.44 281.75 260.00 C 281.88 263.56 281.33 268.56 281.50 275.50 C 281.67 282.44 282.58 287.31 282.75 301.62 C 282.92 315.94 282.33 348.02 282.50 361.38 C 282.67 374.73 283.58 374.92 283.75 381.75 C 283.92 388.58 283.48 398.77 283.50 402.38 C 283.52 405.98 283.67 399.29 283.88 403.38 C 284.08 407.46 284.52 422.60 284.75 426.88 C 284.98 431.15 281.62 428.81 285.25 429.00 C 288.88 429.19 302.92 428.46 306.50 428.00 C 310.08 427.54 306.69 430.71 306.75 426.25 C 306.81 421.79 306.69 406.08 306.88 401.25 C 307.06 396.42 307.67 398.58 307.88 397.25 C 308.08 395.92 308.10 396.31 308.12 393.25 C 308.15 390.19 307.88 384.38 308.00 378.88 C 308.12 373.38 308.67 363.48 308.88 360.25 C 309.08 357.02 309.23 362.83 309.25 359.50 C 309.27 356.17 308.67 346.92 309.00 340.25 C 309.33 333.58 310.92 326.52 311.25 319.50 C 311.58 312.48 310.90 305.58 311.00 298.12 C 311.10 290.67 311.52 279.25 311.88 274.75 C 312.23 270.25 312.88 272.73 313.12 271.12 C 313.38 269.52 313.21 266.46 313.38 265.12 C 313.54 263.79 314.02 264.54 314.12 263.12 C 314.23 261.71 313.75 258.40 314.00 256.62 C 314.25 254.85 315.31 253.92 315.62 252.50 C 315.94 251.08 315.88 249.12 315.88 248.12 C 315.88 247.12 315.85 247.10 315.62 246.50 C 315.40 245.90 315.38 245.44 314.50 244.50 C 313.62 243.56 311.75 241.81 310.38 240.88 C 309.00 239.94 307.58 239.40 306.25 238.88 C 304.92 238.35 303.27 238.12 302.38 237.75 C 301.48 237.38 304.71 236.60 300.88 236.62 C 297.04 236.65 283.54 237.54 279.38 237.88 Z" id="s-14-f-0"/>
<clipPath id="c-s-14"><use href="#s-14-f-0"/></clipPath>
<path d="M 469.88 436.88 C 469.71 436.06 469.50 435.25 468.75 434.25 C 468.00 433.25 466.60 431.94 465.38 430.88 C 464.15 429.81 462.92 428.88 461.38 427.88 C 459.83 426.88 459.65 426.54 456.12 424.88 C 452.60 423.21 443.75 419.33 440.25 417.88 C 436.75 416.42 436.50 416.46 435.12 416.12 C 433.75 415.79 436.62 415.27 432.00 415.88 C 427.38 416.48 416.00 418.62 407.38 419.75 C 398.75 420.88 391.88 421.75 380.25 422.62 C 368.62 423.50 347.25 424.31 337.62 425.00 C 328.00 425.69 327.33 426.29 322.50 426.75 C 317.67 427.21 313.29 427.60 308.62 427.75 C 303.96 427.90 298.56 427.44 294.50 427.62 C 290.44 427.81 289.60 428.46 284.25 428.88 C 278.90 429.29 269.58 429.48 262.38 430.12 C 255.17 430.77 248.71 431.98 241.00 432.75 C 233.29 433.52 229.08 434.21 216.12 434.75 C 203.17 435.29 172.73 435.60 163.25 436.00 C 153.77 436.40 160.21 436.75 159.25 437.12 C 158.29 437.50 158.02 437.79 157.50 438.25 C 156.98 438.71 156.40 439.19 156.12 439.88 C 155.85 440.56 155.88 441.79 155.88 442.38 C 155.88 442.96 155.50 442.65 156.12 443.38 C 156.75 444.10 157.17 445.23 159.62 446.75 C 162.08 448.27 167.56 451.00 170.88 452.50 C 174.19 454.00 176.90 454.90 179.50 455.75 C 182.10 456.60 184.10 457.29 186.50 457.62 C 188.90 457.96 190.58 458.19 193.88 457.75 C 197.17 457.31 200.00 455.96 206.25 455.00 C 212.50 454.04 221.85 453.00 231.38 452.00 C 240.90 451.00 253.17 449.83 263.38 449.00 C 273.58 448.17 275.23 447.81 292.62 447.00 C 310.02 446.19 340.27 444.67 367.75 444.12 C 395.23 443.58 441.46 443.98 457.50 443.75 C 473.54 443.52 462.40 443.10 464.00 442.75 C 465.60 442.40 466.17 442.23 467.12 441.62 C 468.08 441.02 469.29 439.92 469.75 439.12 C 470.21 438.33 470.04 437.69 469.88 436.88 Z" id="s-15-f-0"/>
<clipPath id="c-s-15"><use href="#s-15-f-0"/></clipPath>
</defs>
<g id="s-0" clip-path="url(#c-s-0)">
<use href="#s-0-f-0"/>
<path d="M 252.00 42.12 C 251.00 42.38 251.17 42.65 251.00 43.50 C 250.83 44.35 249.88 44.85 251.00 47.25 C 252.12 49.65 254.75 52.15 257.75 57.88 C 260.75 63.60 266.35 76.33 269.00 81.62 C 271.65 86.92 272.46 88.23 273.62 89.62 C 274.79 91.02 271.42 89.94 276.00 90.00 C 280.58 90.06 296.56 90.06 301.12 90.00 C 305.69 89.94 302.79 90.25 303.38 89.62 C 303.96 89.00 304.25 87.71 304.62 86.25 C 305.00 84.79 305.44 83.29 305.62 80.88 C 305.81 78.46 306.06 74.17 305.75 71.75 C 305.44 69.33 304.83 68.21 303.75 66.38 C 302.67 64.54 301.60 62.81 299.25 60.75 C 296.90 58.69 293.50 56.12 289.62 54.00 C 285.75 51.88 280.62 49.83 276.00 48.00 C 271.38 46.17 265.04 44.00 261.88 43.00 C 258.71 42.00 258.65 42.15 257.00 42.00 C 255.35 41.85 253.00 41.88 252.00 42.12 Z" id="s-0-f-1"/>
</g>
<g id="s-1" clip-path="url(#c-s-1)">
<use href="#s-1-f-0"/>
<path d="M 419.88 94.12 C 419.69 91.62 420.29 94.02 418.88 93.00 C 417.46 91.98 415.06 89.65 411.38 88.00 C 407.69 86.35 400.44 83.96 396.75 83.12 C 393.06 82.29 393.62 82.50 389.25 83.00 C 384.88 83.50 375.48 85.19 370.50 86.12 C 365.52 87.06 370.71 86.88 359.38 88.62 C 348.04 90.38 312.83 95.29 302.50 96.62 C 292.17 97.96 298.56 96.50 297.38 96.62 C 296.19 96.75 297.71 97.02 295.38 97.38 C 293.04 97.73 285.65 98.40 283.38 98.75 C 281.10 99.10 286.69 98.67 281.75 99.50 C 276.81 100.33 265.92 102.04 253.75 103.75 C 241.58 105.46 227.67 107.38 208.75 109.75 C 189.83 112.12 152.81 116.27 140.25 118.00 C 127.69 119.73 134.77 119.54 133.38 120.12 C 131.98 120.71 132.12 121.10 131.88 121.50 C 131.62 121.90 131.73 122.04 131.88 122.50 C 132.02 122.96 132.15 123.50 132.75 124.25 C 133.35 125.00 133.60 125.71 135.50 127.00 C 137.40 128.29 135.92 130.83 144.12 132.00 C 152.33 133.17 167.62 135.31 184.75 134.00 C 201.88 132.69 229.73 126.62 246.88 124.12 C 264.02 121.62 269.27 120.85 287.62 119.00 C 305.98 117.15 335.08 114.54 357.00 113.00 C 378.92 111.46 408.62 110.58 419.12 109.75 C 429.62 108.92 419.88 110.60 420.00 108.00 C 420.12 105.40 420.06 96.62 419.88 94.12 Z" id="s-1-f-1"/>
<path d="M 371.88 86.50 C 371.71 83.48 373.08 85.65 371.00 86.00 C 368.92 86.35 370.79 86.85 359.38 88.62 C 347.96 90.40 312.83 95.29 302.50 96.62 C 292.17 97.96 298.56 96.50 297.38 96.62 C 296.19 96.75 297.71 97.02 295.38 97.38 C 293.04 97.73 285.65 98.40 283.38 98.75 C 281.10 99.10 288.94 98.35 281.75 99.50 C 274.56 100.65 263.83 102.54 240.25 105.62 C 216.67 108.71 158.06 115.58 140.25 118.00 C 122.44 120.42 134.77 119.54 133.38 120.12 C 131.98 120.71 132.12 121.08 131.88 121.50 C 131.62 121.92 131.73 122.17 131.88 122.62 C 132.02 123.08 132.15 123.52 132.75 124.25 C 133.35 124.98 133.60 125.71 135.50 127.00 C 137.40 128.29 135.96 130.83 144.12 132.00 C 152.29 133.17 171.69 134.67 184.50 134.00 C 197.31 133.33 206.69 130.17 221.00 128.00 C 235.31 125.83 253.98 123.00 270.38 121.00 C 286.77 119.00 302.54 117.48 319.38 116.00 C 336.21 114.52 362.62 113.08 371.38 112.12 C 380.12 111.17 371.77 111.58 371.88 110.25 C 371.98 108.92 372.00 108.08 372.00 104.12 C 372.00 100.17 372.04 89.52 371.88 86.50 Z" id="s-1-f-2"/>
<path d="M 323.38 95.25 C 323.21 94.19 326.35 93.77 322.88 94.00 C 319.40 94.23 306.75 96.19 302.50 96.62 C 298.25 97.06 298.56 96.50 297.38 96.62 C 296.19 96.75 297.71 97.02 295.38 97.38 C 293.04 97.73 285.65 98.40 283.38 98.75 C 281.10 99.10 288.94 98.35 281.75 99.50 C 274.56 100.65 263.83 102.54 240.25 105.62 C 216.67 108.71 158.06 115.58 140.25 118.00 C 122.44 120.42 134.77 119.54 133.38 120.12 C 131.98 120.71 132.12 121.08 131.88 121.50 C 131.62 121.92 131.73 122.17 131.88 122.62 C 132.02 123.08 132.15 123.52 132.75 124.25 C 133.35 124.98 133.60 125.71 135.50 127.00 C 137.40 128.29 135.96 130.83 144.12 132.00 C 152.29 133.17 172.77 134.50 184.50 134.00 C 196.23 133.50 201.67 130.98 214.50 129.00 C 227.33 127.02 249.31 123.79 261.50 122.12 C 273.69 120.46 277.54 120.04 287.62 119.00 C 297.71 117.96 316.00 116.48 322.00 115.88 C 328.00 115.27 323.31 115.69 323.62 115.38 C 323.94 115.06 323.83 116.50 323.88 114.00 C 323.92 111.50 323.96 103.50 323.88 100.38 C 323.79 97.25 323.54 96.31 323.38 95.25 Z" id="s-1-f-3"/>
<path d="M 275.88 101.12 C 275.79 98.12 285.38 99.35 275.50 100.62 C 265.62 101.90 239.17 105.85 216.62 108.75 C 194.08 111.65 154.12 116.10 140.25 118.00 C 126.38 119.90 134.77 119.54 133.38 120.12 C 131.98 120.71 132.12 121.08 131.88 121.50 C 131.62 121.92 131.73 122.17 131.88 122.62 C 132.02 123.08 132.15 123.52 132.75 124.25 C 133.35 124.98 133.60 125.71 135.50 127.00 C 137.40 128.29 135.96 130.83 144.12 132.00 C 152.29 133.17 168.38 135.17 184.50 134.00 C 200.62 132.83 225.88 127.21 240.88 125.00 C 255.88 122.79 268.69 121.54 274.50 120.75 C 280.31 119.96 275.50 120.60 275.75 120.25 C 276.00 119.90 275.98 121.81 276.00 118.62 C 276.02 115.44 275.96 104.12 275.88 101.12 Z" id="s-1-f-4"/>
<path d="M 227.88 107.75 C 227.69 105.44 230.06 106.79 226.88 107.12 C 223.69 107.46 223.19 107.94 208.75 109.75 C 194.31 111.56 152.81 116.27 140.25 118.00 C 127.69 119.73 134.77 119.54 133.38 120.12 C 131.98 120.71 132.12 121.08 131.88 121.50 C 131.62 121.92 131.60 122.02 131.88 122.62 C 132.15 123.23 132.75 124.29 133.50 125.12 C 134.25 125.96 135.38 126.85 136.38 127.62 C 137.38 128.40 138.21 129.02 139.50 129.75 C 140.79 130.48 137.23 131.29 144.12 132.00 C 151.02 132.71 173.71 133.71 180.88 134.00 C 188.04 134.29 179.38 134.90 187.12 133.75 C 194.88 132.60 220.56 129.25 227.38 127.12 C 234.19 125.00 227.92 124.23 228.00 121.00 C 228.08 117.77 228.06 110.06 227.88 107.75 Z" id="s-1-f-5"/>
<path d="M 179.88 133.50 C 180.21 130.38 180.00 118.40 180.00 115.12 C 180.00 111.85 180.00 114.19 179.88 113.88 C 179.75 113.56 185.85 112.56 179.25 113.25 C 172.65 113.94 147.90 116.85 140.25 118.00 C 132.60 119.15 134.77 119.54 133.38 120.12 C 131.98 120.71 132.12 121.08 131.88 121.50 C 131.62 121.92 131.73 122.17 131.88 122.62 C 132.02 123.08 132.29 123.65 132.75 124.25 C 133.21 124.85 133.50 125.33 134.62 126.25 C 135.75 127.17 138.00 128.81 139.50 129.75 C 141.00 130.69 137.21 131.19 143.62 131.88 C 150.04 132.56 171.96 133.60 178.00 133.88 C 184.04 134.15 179.54 136.62 179.88 133.50 Z" id="s-1-f-6"/>
</g>
<g id="s-2" clip-path="url(#c-s-2)">
<use href="#s-2-f-0"/>
<path d="M 184.38 133.50 C 182.52 132.75 179.02 132.79 175.50 132.62 C 171.98 132.46 166.62 132.67 163.25 132.50 C 159.88 132.33 158.40 131.79 155.25 131.62 C 152.10 131.46 146.25 131.42 144.38 131.50 C 142.50 131.58 143.90 131.35 144.00 132.12 C 144.10 132.90 144.25 134.04 145.00 136.12 C 145.75 138.21 147.54 141.94 148.50 144.62 C 149.46 147.31 150.21 149.54 150.75 152.25 C 151.29 154.96 151.62 155.88 151.75 160.88 C 151.88 165.88 151.83 174.12 151.50 182.25 C 151.17 190.38 150.54 200.69 149.75 209.62 C 148.96 218.56 147.92 227.38 146.75 235.88 C 145.58 244.38 144.40 251.71 142.75 260.62 C 141.10 269.54 138.40 282.38 136.88 289.38 C 135.35 296.38 135.15 297.08 133.62 302.62 C 132.10 308.17 130.08 315.42 127.75 322.62 C 125.42 329.83 122.00 339.48 119.62 345.88 C 117.25 352.27 116.48 354.29 113.50 361.00 C 110.52 367.71 105.21 379.17 101.75 386.12 C 98.29 393.08 95.98 397.23 92.75 402.75 C 89.52 408.27 84.04 416.40 82.38 419.25 C 80.71 422.10 79.40 419.77 82.75 419.88 C 86.10 419.98 98.83 420.21 102.50 419.88 C 106.17 419.54 103.31 419.46 104.75 417.88 C 106.19 416.29 107.62 414.90 111.12 410.38 C 114.62 405.85 121.67 397.35 125.75 390.75 C 129.83 384.15 132.98 376.42 135.62 370.75 C 138.27 365.08 139.44 362.19 141.62 356.75 C 143.81 351.31 146.40 344.75 148.75 338.12 C 151.10 331.50 153.79 323.31 155.75 317.00 C 157.71 310.69 158.52 308.00 160.50 300.25 C 162.48 292.50 165.77 278.96 167.62 270.50 C 169.48 262.04 170.10 258.33 171.62 249.50 C 173.15 240.67 175.42 226.48 176.75 217.50 C 178.08 208.52 178.42 206.67 179.62 195.62 C 180.83 184.58 182.79 160.48 184.00 151.25 C 185.21 142.02 186.44 142.60 186.88 140.25 C 187.31 137.90 187.04 138.25 186.62 137.12 C 186.21 136.00 186.23 134.25 184.38 133.50 Z" id="s-2-f-1"/>
<path d="M 184.38 133.50 C 182.52 132.75 179.02 132.79 175.50 132.62 C 171.98 132.46 166.62 132.67 163.25 132.50 C 159.88 132.33 158.40 131.79 155.25 131.62 C 152.10 131.46 146.25 131.42 144.38 131.50 C 142.50 131.58 143.90 131.35 144.00 132.12 C 144.10 132.90 144.04 133.44 145.00 136.12 C 145.96 138.81 148.79 145.56 149.75 148.25 C 150.71 150.94 150.42 150.15 150.75 152.25 C 151.08 154.35 151.60 156.42 151.75 160.88 C 151.90 165.33 151.81 172.69 151.62 179.00 C 151.44 185.31 151.08 192.12 150.62 198.75 C 150.17 205.38 149.69 211.42 148.88 218.75 C 148.06 226.08 147.12 233.98 145.75 242.75 C 144.38 251.52 142.10 263.60 140.62 271.38 C 139.15 279.15 138.19 283.65 136.88 289.38 C 135.56 295.10 134.92 298.27 132.75 305.75 C 130.58 313.23 126.73 325.90 123.88 334.25 C 121.02 342.60 118.12 349.79 115.62 355.88 C 113.12 361.96 109.96 368.08 108.88 370.75 C 107.79 373.42 105.10 371.67 109.12 371.88 C 113.15 372.08 128.77 372.00 133.00 372.00 C 137.23 372.00 134.12 372.00 134.50 371.88 C 134.88 371.75 133.56 375.04 135.25 371.25 C 136.94 367.46 141.21 358.17 144.62 349.12 C 148.04 340.08 152.58 327.17 155.75 317.00 C 158.92 306.83 161.65 295.88 163.62 288.12 C 165.60 280.38 165.79 279.92 167.62 270.50 C 169.46 261.08 172.62 244.10 174.62 231.62 C 176.62 219.15 178.06 209.02 179.62 195.62 C 181.19 182.23 182.79 160.48 184.00 151.25 C 185.21 142.02 186.44 142.60 186.88 140.25 C 187.31 137.90 187.04 138.25 186.62 137.12 C 186.21 136.00 186.23 134.25 184.38 133.50 Z" id="s-2-f-2"/>
<path d="M 184.38 133.50 C 182.52 132.75 179.02 132.79 175.50 132.62 C 171.98 132.46 166.62 132.67 163.25 132.50 C 159.88 132.33 158.40 131.79 155.25 131.62 C 152.10 131.46 146.25 131.42 144.38 131.50 C 142.50 131.58 143.90 131.35 144.00 132.12 C 144.10 132.90 144.04 133.44 145.00 136.12 C 145.96 138.81 148.65 144.56 149.75 148.25 C 150.85 151.94 151.31 153.12 151.62 158.25 C 151.94 163.38 151.94 170.44 151.62 179.00 C 151.31 187.56 150.56 200.15 149.75 209.62 C 148.94 219.10 147.92 227.38 146.75 235.88 C 145.58 244.38 144.40 251.71 142.75 260.62 C 141.10 269.54 138.54 281.85 136.88 289.38 C 135.21 296.90 134.33 300.10 132.75 305.75 C 131.17 311.40 128.21 320.23 127.38 323.25 C 126.54 326.27 123.52 323.77 127.75 323.88 C 131.98 323.98 148.40 324.08 152.75 323.88 C 157.10 323.67 153.38 323.77 153.88 322.62 C 154.38 321.48 154.12 322.75 155.75 317.00 C 157.38 311.25 161.65 295.88 163.62 288.12 C 165.60 280.38 165.79 279.92 167.62 270.50 C 169.46 261.08 172.62 244.10 174.62 231.62 C 176.62 219.15 178.06 209.02 179.62 195.62 C 181.19 182.23 182.79 160.48 184.00 151.25 C 185.21 142.02 186.44 142.60 186.88 140.25 C 187.31 137.90 187.04 138.25 186.62 137.12 C 186.21 136.00 186.23 134.25 184.38 133.50 Z" id="s-2-f-3"/>
<path d="M 144.38 131.50 C 142.50 131.73 143.31 130.81 144.00 133.00 C 144.69 135.19 147.38 141.42 148.50 144.62 C 149.62 147.83 150.21 149.54 150.75 152.25 C 151.29 154.96 151.60 156.42 151.75 160.88 C 151.90 165.33 151.81 172.69 151.62 179.00 C 151.44 185.31 151.27 190.54 150.62 198.75 C 149.98 206.96 148.88 219.00 147.75 228.25 C 146.62 237.50 145.21 246.42 143.88 254.25 C 142.54 262.08 139.10 271.65 139.75 275.25 C 140.40 278.85 143.42 275.77 147.75 275.88 C 152.08 275.98 162.62 276.00 165.75 275.88 C 168.88 275.75 166.19 276.02 166.50 275.12 C 166.81 274.23 166.27 277.75 167.62 270.50 C 168.98 263.25 172.62 244.10 174.62 231.62 C 176.62 219.15 178.06 209.02 179.62 195.62 C 181.19 182.23 183.10 159.48 184.00 151.25 C 184.90 143.02 184.54 147.96 185.00 146.25 C 185.46 144.54 186.46 142.46 186.75 141.00 C 187.04 139.54 186.92 138.48 186.75 137.50 C 186.58 136.52 186.15 135.79 185.75 135.12 C 185.35 134.46 186.08 133.92 184.38 133.50 C 182.67 133.08 179.02 132.79 175.50 132.62 C 171.98 132.46 166.62 132.67 163.25 132.50 C 159.88 132.33 158.40 131.79 155.25 131.62 C 152.10 131.46 146.25 131.27 144.38 131.50 Z" id="s-2-f-4"/>
<path d="M 144.38 131.50 C 142.50 131.73 143.10 130.21 144.00 133.00 C 144.90 135.79 148.60 144.92 149.75 148.25 C 150.90 151.58 150.54 150.90 150.88 153.00 C 151.21 155.10 151.62 156.54 151.75 160.88 C 151.88 165.21 151.77 173.33 151.62 179.00 C 151.48 184.67 151.48 186.92 150.88 194.88 C 150.27 202.83 148.23 221.33 148.00 226.75 C 147.77 232.17 148.17 227.19 149.50 227.38 C 150.83 227.56 151.79 227.83 156.00 227.88 C 160.21 227.92 171.46 228.25 174.75 227.62 C 178.04 227.00 174.92 229.62 175.75 224.12 C 176.58 218.62 178.38 206.77 179.75 194.62 C 181.12 182.48 183.12 159.31 184.00 151.25 C 184.88 143.19 184.54 147.96 185.00 146.25 C 185.46 144.54 186.46 142.46 186.75 141.00 C 187.04 139.54 186.92 138.48 186.75 137.50 C 186.58 136.52 186.15 135.79 185.75 135.12 C 185.35 134.46 186.08 133.92 184.38 133.50 C 182.67 133.08 179.02 132.79 175.50 132.62 C 171.98 132.46 166.62 132.67 163.25 132.50 C 159.88 132.33 158.40 131.79 155.25 131.62 C 152.10 131.46 146.25 131.27 144.38 131.50 Z" id="s-2-f-5"/>
<path d="M 144.38 131.50 C 142.50 131.73 143.10 130.21 144.00 133.00 C 144.90 135.79 148.60 144.92 149.75 148.25 C 150.90 151.58 150.54 150.90 150.88 153.00 C 151.21 155.10 151.65 156.48 151.75 160.88 C 151.85 165.27 151.44 176.21 151.50 179.38 C 151.56 182.54 147.54 179.77 152.12 179.88 C 156.71 179.98 174.19 180.06 179.00 180.00 C 183.81 179.94 180.56 179.81 181.00 179.50 C 181.44 179.19 181.10 182.98 181.62 178.12 C 182.15 173.27 183.25 156.69 184.12 150.38 C 185.00 144.06 186.44 142.40 186.88 140.25 C 187.31 138.10 187.08 138.56 186.75 137.50 C 186.42 136.44 186.75 134.69 184.88 133.88 C 183.00 133.06 179.10 132.85 175.50 132.62 C 171.90 132.40 166.62 132.67 163.25 132.50 C 159.88 132.33 158.40 131.79 155.25 131.62 C 152.10 131.46 146.25 131.27 144.38 131.50 Z" id="s-2-f-6"/>
</g>
<g id="s-3" clip-path="url(#c-s-3)">
<use href="#s-3-f-0"/>
<path d="M 56.75 174.62 C 56.33 175.10 56.10 175.29 56.00 175.88 C 55.90 176.46 55.67 177.15 56.12 178.12 C 56.58 179.10 55.96 177.25 58.75 181.75 C 61.54 186.25 68.60 198.60 72.88 205.12 C 77.15 211.65 77.92 218.23 84.38 220.88 C 90.83 223.52 106.98 221.08 111.62 221.00 C 116.27 220.92 112.06 220.81 112.25 220.38 C 112.44 219.94 112.65 219.90 112.75 218.38 C 112.85 216.85 113.04 213.90 112.88 211.25 C 112.71 208.60 112.46 205.15 111.75 202.50 C 111.04 199.85 109.71 197.29 108.62 195.38 C 107.54 193.46 106.19 192.06 105.25 191.00 C 104.31 189.94 104.31 190.00 103.00 189.00 C 101.69 188.00 99.25 186.15 97.38 185.00 C 95.50 183.85 94.44 183.29 91.75 182.12 C 89.06 180.96 85.00 179.33 81.25 178.00 C 77.50 176.67 72.12 174.96 69.25 174.12 C 66.38 173.29 65.65 173.21 64.00 173.00 C 62.35 172.79 60.29 172.88 59.38 172.88 C 58.46 172.88 58.94 172.71 58.50 173.00 C 58.06 173.29 57.17 174.15 56.75 174.62 Z" id="s-3-f-1"/>
</g>
<g id="s-4" clip-path="url(#c-s-4)">
<use href="#s-4-f-0"/>
<path d="M 76.50 282.62 C 74.21 283.48 67.19 287.75 63.25 289.75 C 59.31 291.75 55.98 293.31 52.88 294.62 C 49.77 295.94 47.52 296.79 44.62 297.62 C 41.73 298.46 37.69 299.25 35.50 299.62 C 33.31 300.00 32.40 299.69 31.50 299.88 C 30.60 300.06 30.52 300.23 30.12 300.75 C 29.73 301.27 29.31 301.60 29.12 303.00 C 28.94 304.40 28.85 307.77 29.00 309.12 C 29.15 310.48 28.69 309.31 30.00 311.12 C 31.31 312.94 34.73 317.56 36.88 320.00 C 39.02 322.44 40.98 324.12 42.88 325.75 C 44.77 327.38 47.02 328.92 48.25 329.75 C 49.48 330.58 49.23 330.60 50.25 330.75 C 51.27 330.90 53.04 330.94 54.38 330.62 C 55.71 330.31 56.48 330.02 58.25 328.88 C 60.02 327.73 61.90 326.71 65.00 323.75 C 68.10 320.79 74.88 317.65 76.88 311.12 C 78.88 304.60 77.06 289.38 77.00 284.62 C 76.94 279.88 78.79 281.77 76.50 282.62 Z" id="s-4-f-1"/>
</g>
<g id="s-5" clip-path="url(#c-s-5)">
<use href="#s-5-f-0"/>
<path d="M 422.88 170.50 C 422.12 167.52 420.81 169.08 418.38 168.00 C 415.94 166.92 410.56 164.83 408.25 164.00 C 405.94 163.17 406.00 163.17 404.50 163.00 C 403.00 162.83 407.40 161.73 399.25 163.00 C 391.10 164.27 363.56 169.31 355.62 170.62 C 347.69 171.94 356.17 170.15 351.62 170.88 C 347.08 171.60 332.60 174.19 328.38 175.00 C 324.15 175.81 329.52 175.25 326.25 175.75 C 322.98 176.25 315.17 177.00 308.75 178.00 C 302.33 179.00 293.77 180.79 287.75 181.75 C 281.73 182.71 277.56 183.23 272.62 183.75 C 267.69 184.27 267.17 183.71 258.12 184.88 C 249.08 186.04 230.06 189.21 218.38 190.75 C 206.69 192.29 193.75 193.42 188.00 194.12 C 182.25 194.83 184.71 194.73 183.88 195.00 C 183.04 195.27 183.17 195.48 183.00 195.75 C 182.83 196.02 182.40 195.90 182.88 196.62 C 183.35 197.35 184.21 198.79 185.88 200.12 C 187.54 201.46 190.27 203.19 192.88 204.62 C 195.48 206.06 199.62 207.92 201.50 208.75 C 203.38 209.58 203.10 209.44 204.12 209.62 C 205.15 209.81 206.52 209.88 207.62 209.88 C 208.73 209.88 207.67 210.25 210.75 209.62 C 213.83 209.00 220.73 207.08 226.12 206.12 C 231.52 205.17 236.92 204.92 243.12 203.88 C 249.33 202.83 256.62 200.92 263.38 199.88 C 270.12 198.83 274.85 198.75 283.62 197.62 C 292.40 196.50 308.75 193.92 316.00 193.12 C 323.25 192.33 321.56 193.42 327.12 192.88 C 332.69 192.33 343.40 190.52 349.38 189.88 C 355.35 189.23 351.75 189.40 363.00 189.00 C 374.25 188.60 407.04 187.90 416.88 187.50 C 426.71 187.10 421.00 186.90 422.00 186.62 C 423.00 186.35 422.73 188.56 422.88 185.88 C 423.02 183.19 423.62 173.48 422.88 170.50 Z" id="s-5-f-1"/>
<path d="M 375.00 169.12 C 374.98 165.75 374.92 168.17 374.75 167.88 C 374.58 167.58 379.88 166.52 374.00 167.38 C 368.12 168.23 347.46 171.60 339.50 173.00 C 331.54 174.40 331.38 174.92 326.25 175.75 C 321.12 176.58 315.17 177.00 308.75 178.00 C 302.33 179.00 293.77 180.79 287.75 181.75 C 281.73 182.71 277.56 183.23 272.62 183.75 C 267.69 184.27 268.27 183.56 258.12 184.88 C 247.98 186.19 223.44 190.08 211.75 191.62 C 200.06 193.17 192.69 193.54 188.00 194.12 C 183.31 194.71 184.46 194.85 183.62 195.12 C 182.79 195.40 183.10 195.44 183.00 195.75 C 182.90 196.06 182.52 196.27 183.00 197.00 C 183.48 197.73 184.23 198.85 185.88 200.12 C 187.52 201.40 190.27 203.19 192.88 204.62 C 195.48 206.06 199.62 207.92 201.50 208.75 C 203.38 209.58 203.10 209.44 204.12 209.62 C 205.15 209.81 206.52 209.88 207.62 209.88 C 208.73 209.88 207.67 210.25 210.75 209.62 C 213.83 209.00 220.62 207.10 226.12 206.12 C 231.62 205.15 237.54 204.79 243.75 203.75 C 249.96 202.71 256.73 200.90 263.38 199.88 C 270.02 198.85 276.19 198.60 283.62 197.62 C 291.06 196.65 302.60 194.75 308.00 194.00 C 313.40 193.25 312.81 193.31 316.00 193.12 C 319.19 192.94 321.60 193.42 327.12 192.88 C 332.65 192.33 341.35 190.58 349.12 189.88 C 356.90 189.17 369.46 188.92 373.75 188.62 C 378.04 188.33 374.67 191.38 374.88 188.12 C 375.08 184.88 375.02 172.50 375.00 169.12 Z" id="s-5-f-2"/>
<path d="M 326.88 176.00 C 326.25 173.46 326.27 175.67 323.25 176.00 C 320.23 176.33 315.90 176.88 308.75 178.00 C 301.60 179.12 288.81 181.60 280.38 182.75 C 271.94 183.90 268.46 183.54 258.12 184.88 C 247.79 186.21 230.06 189.21 218.38 190.75 C 206.69 192.29 193.79 193.40 188.00 194.12 C 182.21 194.85 184.46 194.85 183.62 195.12 C 182.79 195.40 183.10 195.44 183.00 195.75 C 182.90 196.06 182.52 196.27 183.00 197.00 C 183.48 197.73 184.23 198.85 185.88 200.12 C 187.52 201.40 190.27 203.19 192.88 204.62 C 195.48 206.06 199.62 207.92 201.50 208.75 C 203.38 209.58 203.10 209.44 204.12 209.62 C 205.15 209.81 206.52 209.88 207.62 209.88 C 208.73 209.88 207.54 210.27 210.75 209.62 C 213.96 208.98 221.38 206.98 226.88 206.00 C 232.38 205.02 237.67 204.77 243.75 203.75 C 249.83 202.73 256.73 200.90 263.38 199.88 C 270.02 198.85 276.00 198.62 283.62 197.62 C 291.25 196.62 301.98 194.67 309.12 193.88 C 316.27 193.08 323.52 193.31 326.50 192.88 C 329.48 192.44 326.94 194.06 327.00 191.25 C 327.06 188.44 327.50 178.54 326.88 176.00 Z" id="s-5-f-3"/>
<path d="M 279.00 183.38 C 278.67 180.96 278.06 182.94 277.00 183.00 C 275.94 183.06 275.77 183.44 272.62 183.75 C 269.48 184.06 267.17 183.71 258.12 184.88 C 249.08 186.04 230.06 189.21 218.38 190.75 C 206.69 192.29 193.75 193.42 188.00 194.12 C 182.25 194.83 184.71 194.73 183.88 195.00 C 183.04 195.27 183.17 195.48 183.00 195.75 C 182.83 196.02 182.54 196.02 182.88 196.62 C 183.21 197.23 184.10 198.50 185.00 199.38 C 185.90 200.25 185.90 200.48 188.25 201.88 C 190.60 203.27 196.48 206.46 199.12 207.75 C 201.77 209.04 202.19 209.31 204.12 209.62 C 206.06 209.94 207.08 210.21 210.75 209.62 C 214.42 209.04 220.73 207.08 226.12 206.12 C 231.52 205.17 236.92 204.92 243.12 203.88 C 249.33 202.83 257.48 200.85 263.38 199.88 C 269.27 198.90 275.90 198.40 278.50 198.00 C 281.10 197.60 278.92 199.94 279.00 197.50 C 279.08 195.06 279.33 185.79 279.00 183.38 Z" id="s-5-f-4"/>
<path d="M 230.88 205.12 C 231.00 203.15 230.96 196.40 230.88 193.88 C 230.79 191.35 230.67 190.81 230.38 190.00 C 230.08 189.19 231.92 188.77 229.12 189.00 C 226.33 189.23 220.48 190.52 213.62 191.38 C 206.77 192.23 192.96 193.52 188.00 194.12 C 183.04 194.73 184.73 194.67 183.88 195.00 C 183.02 195.33 183.02 195.79 182.88 196.12 C 182.73 196.46 182.65 196.46 183.00 197.00 C 183.35 197.54 183.90 198.42 185.00 199.38 C 186.10 200.33 187.67 201.54 189.62 202.75 C 191.58 203.96 194.33 205.48 196.75 206.62 C 199.17 207.77 201.79 209.12 204.12 209.62 C 206.46 210.12 207.08 210.21 210.75 209.62 C 214.42 209.04 222.90 206.77 226.12 206.12 C 229.35 205.48 229.33 205.92 230.12 205.75 C 230.92 205.58 230.75 207.10 230.88 205.12 Z" id="s-5-f-5"/>
</g>
<g id="s-6" clip-path="url(#c-s-6)">
<use href="#s-6-f-0"/>
<path d="M 225.50 149.00 C 223.38 149.12 224.02 149.69 223.50 150.12 C 222.98 150.56 222.65 150.88 222.38 151.62 C 222.10 152.38 221.83 153.85 221.88 154.62 C 221.92 155.40 221.54 155.10 222.62 156.25 C 223.71 157.40 226.90 159.94 228.38 161.50 C 229.85 163.06 230.60 164.17 231.50 165.62 C 232.40 167.08 232.88 167.94 233.75 170.25 C 234.62 172.56 235.92 176.67 236.75 179.50 C 237.58 182.33 238.44 184.98 238.75 187.25 C 239.06 189.52 238.52 191.81 238.62 193.12 C 238.73 194.44 239.21 193.79 239.38 195.12 C 239.54 196.46 239.25 199.08 239.62 201.12 C 240.00 203.17 240.60 202.88 241.62 207.38 C 242.65 211.88 245.00 223.71 245.75 228.12 C 246.50 232.54 245.90 232.25 246.12 233.88 C 246.35 235.50 246.67 236.54 247.12 237.88 C 247.58 239.21 248.23 240.75 248.88 241.88 C 249.52 243.00 248.71 244.10 251.00 244.62 C 253.29 245.15 260.56 245.04 262.62 245.00 C 264.69 244.96 263.19 244.73 263.38 244.38 C 263.56 244.02 263.65 243.94 263.75 242.88 C 263.85 241.81 264.10 245.96 264.00 238.00 C 263.90 230.04 263.42 202.42 263.12 195.12 C 262.83 187.83 262.42 195.48 262.25 194.25 C 262.08 193.02 262.48 189.94 262.12 187.75 C 261.77 185.56 260.54 185.33 260.12 181.12 C 259.71 176.92 259.96 166.06 259.62 162.50 C 259.29 158.94 258.85 160.67 258.12 159.75 C 257.40 158.83 256.23 157.79 255.25 157.00 C 254.27 156.21 254.83 156.15 252.25 155.00 C 249.67 153.85 242.42 151.06 239.75 150.12 C 237.08 149.19 238.62 149.56 236.25 149.38 C 233.88 149.19 227.62 148.88 225.50 149.00 Z" id="s-6-f-1"/>
<path d="M 223.50 150.12 C 222.92 150.71 222.25 151.62 222.00 152.50 C 221.75 153.38 220.94 153.88 222.00 155.38 C 223.06 156.88 226.75 159.71 228.38 161.50 C 230.00 163.29 230.90 164.77 231.75 166.12 C 232.60 167.48 232.33 166.10 233.50 169.62 C 234.67 173.15 237.90 183.33 238.75 187.25 C 239.60 191.17 238.48 191.52 238.62 193.12 C 238.77 194.73 239.35 196.19 239.62 196.88 C 239.90 197.56 236.38 197.23 240.25 197.25 C 244.12 197.27 259.06 197.38 262.88 197.00 C 266.69 196.62 263.23 195.46 263.12 195.00 C 263.02 194.54 262.42 195.46 262.25 194.25 C 262.08 193.04 262.48 189.94 262.12 187.75 C 261.77 185.56 260.52 185.21 260.12 181.12 C 259.73 177.04 259.98 166.67 259.75 163.25 C 259.52 159.83 259.12 161.33 258.75 160.62 C 258.38 159.92 258.58 159.94 257.50 159.00 C 256.42 158.06 255.29 156.50 252.25 155.00 C 249.21 153.50 242.35 151.00 239.25 150.00 C 236.15 149.00 235.69 149.19 233.62 149.00 C 231.56 148.81 228.23 148.88 226.88 148.88 C 225.52 148.88 226.06 148.79 225.50 149.00 C 224.94 149.21 224.08 149.54 223.50 150.12 Z" id="s-6-f-2"/>
</g>
<g id="s-7" clip-path="url(#c-s-7)">
<use href="#s-7-f-0"/>
<path d="M 327.75 124.00 C 325.81 124.12 325.52 124.62 324.75 125.00 C 323.98 125.38 323.58 125.73 323.12 126.25 C 322.67 126.77 322.19 127.40 322.00 128.12 C 321.81 128.85 321.40 128.73 322.00 130.62 C 322.60 132.52 324.83 137.31 325.62 139.50 C 326.42 141.69 326.42 141.96 326.75 143.75 C 327.08 145.54 327.46 148.02 327.62 150.25 C 327.79 152.48 328.04 152.94 327.75 157.12 C 327.46 161.31 326.38 171.94 325.88 175.38 C 325.38 178.81 325.00 176.10 324.75 177.75 C 324.50 179.40 324.56 183.60 324.38 185.25 C 324.19 186.90 323.73 186.12 323.62 187.62 C 323.52 189.12 324.21 189.25 323.75 194.25 C 323.29 199.25 321.06 213.52 320.88 217.62 C 320.69 221.73 321.81 218.48 322.62 218.88 C 323.44 219.27 322.71 219.83 325.75 220.00 C 328.79 220.17 338.21 220.12 340.88 219.88 C 343.54 219.62 340.38 223.54 341.75 218.50 C 343.12 213.46 347.73 194.62 349.12 189.62 C 350.52 184.62 349.94 189.06 350.12 188.50 C 350.31 187.94 349.92 187.54 350.25 186.25 C 350.58 184.96 351.77 182.12 352.12 180.75 C 352.48 179.38 352.21 178.62 352.38 178.00 C 352.54 177.38 352.96 177.60 353.12 177.00 C 353.29 176.40 353.21 175.00 353.38 174.38 C 353.54 173.75 354.00 174.08 354.12 173.25 C 354.25 172.42 353.79 171.33 354.12 169.38 C 354.46 167.42 355.31 163.98 356.12 161.50 C 356.94 159.02 357.79 156.75 359.00 154.50 C 360.21 152.25 362.56 149.73 363.38 148.00 C 364.19 146.27 363.98 145.25 363.88 144.12 C 363.77 143.00 363.46 142.38 362.75 141.25 C 362.04 140.12 361.60 139.23 359.62 137.38 C 357.65 135.52 353.33 131.81 350.88 130.12 C 348.42 128.44 347.29 128.23 344.88 127.25 C 342.46 126.27 339.23 124.79 336.38 124.25 C 333.52 123.71 329.69 123.88 327.75 124.00 Z" id="s-7-f-1"/>
<path d="M 324.75 125.00 C 323.81 125.62 322.58 126.81 322.12 127.75 C 321.67 128.69 321.40 128.60 322.00 130.62 C 322.60 132.65 324.81 136.60 325.75 139.88 C 326.69 143.15 327.29 147.38 327.62 150.25 C 327.96 153.12 327.96 153.56 327.75 157.12 C 327.54 160.69 326.35 169.15 326.38 171.62 C 326.40 174.10 323.25 171.94 327.88 172.00 C 332.50 172.06 349.75 172.44 354.12 172.00 C 358.50 171.56 353.98 170.48 354.12 169.38 C 354.27 168.27 354.50 167.15 355.00 165.38 C 355.50 163.60 356.27 160.90 357.12 158.75 C 357.98 156.60 359.19 154.06 360.12 152.50 C 361.06 150.94 362.15 150.29 362.75 149.38 C 363.35 148.46 363.58 148.02 363.75 147.00 C 363.92 145.98 363.92 144.21 363.75 143.25 C 363.58 142.29 363.65 142.44 362.75 141.25 C 361.85 140.06 360.06 137.79 358.38 136.12 C 356.69 134.46 354.88 132.73 352.62 131.25 C 350.38 129.77 347.08 128.27 344.88 127.25 C 342.67 126.23 341.06 125.67 339.38 125.12 C 337.69 124.58 336.69 124.19 334.75 124.00 C 332.81 123.81 329.42 123.83 327.75 124.00 C 326.08 124.17 325.69 124.38 324.75 125.00 Z" id="s-7-f-2"/>
</g>
<g id="s-8" clip-path="url(#c-s-8)">
<use href="#s-8-f-0"/>
<path d="M 312.00 219.25 C 311.79 216.54 315.33 218.29 310.62 218.88 C 305.92 219.46 291.54 221.75 283.75 222.75 C 275.96 223.75 267.25 224.44 263.88 224.88 C 260.50 225.31 263.54 223.10 263.50 225.38 C 263.46 227.65 260.83 236.25 263.62 238.50 C 266.42 240.75 274.10 239.12 280.25 238.88 C 286.40 238.62 295.31 237.56 300.50 237.00 C 305.69 236.44 309.48 235.81 311.38 235.50 C 313.27 235.19 311.77 237.83 311.88 235.12 C 311.98 232.42 312.21 221.96 312.00 219.25 Z" id="s-8-f-1"/>
</g>
<g id="s-9" clip-path="url(#c-s-9)">
<use href="#s-9-f-0"/>
<path d="M 199.12 265.38 C 198.73 266.35 198.85 267.98 199.00 269.00 C 199.15 270.02 198.88 269.58 200.00 271.50 C 201.12 273.42 204.46 278.27 205.75 280.50 C 207.04 282.73 205.77 279.88 207.75 284.88 C 209.73 289.88 215.02 306.15 217.62 310.50 C 220.23 314.85 220.35 310.94 223.38 311.00 C 226.40 311.06 233.69 312.35 235.75 310.88 C 237.81 309.40 236.04 305.94 235.75 302.12 C 235.46 298.31 234.33 291.48 234.00 288.00 C 233.67 284.52 234.88 284.54 233.75 281.25 C 232.62 277.96 228.71 270.62 227.25 268.25 C 225.79 265.88 226.31 267.52 225.00 267.00 C 223.69 266.48 221.90 265.77 219.38 265.12 C 216.85 264.48 212.58 263.50 209.88 263.12 C 207.17 262.75 204.54 262.88 203.12 262.88 C 201.71 262.88 202.04 262.71 201.38 263.12 C 200.71 263.54 199.52 264.40 199.12 265.38 Z" id="s-9-f-1"/>
</g>
<g id="s-10" clip-path="url(#c-s-10)">
<use href="#s-10-f-0"/>
<path d="M 397.12 258.38 C 394.31 256.75 382.75 251.56 379.25 250.00 C 375.75 248.44 377.23 249.17 376.12 249.00 C 375.02 248.83 375.50 248.52 372.62 249.00 C 369.75 249.48 368.48 250.42 358.88 251.88 C 349.27 253.33 323.04 256.75 315.00 257.75 C 306.96 258.75 317.46 257.04 310.62 257.88 C 303.79 258.71 287.31 261.19 274.00 262.75 C 260.69 264.31 238.56 266.40 230.75 267.25 C 222.94 268.10 227.81 267.71 227.12 267.88 C 226.44 268.04 226.71 268.04 226.62 268.25 C 226.54 268.46 226.50 268.90 226.62 269.12 C 226.75 269.35 226.35 267.65 227.38 269.62 C 228.40 271.60 231.69 278.96 232.75 281.00 C 233.81 283.04 232.90 281.75 233.75 281.88 C 234.60 282.00 233.10 282.40 237.88 281.75 C 242.65 281.10 255.27 278.96 262.38 278.00 C 269.48 277.04 273.46 276.54 280.50 276.00 C 287.54 275.46 298.60 275.23 304.62 274.75 C 310.65 274.27 307.69 273.96 316.62 273.12 C 325.56 272.29 345.00 271.98 358.25 269.75 C 371.50 267.52 389.65 261.65 396.12 259.75 C 402.60 257.85 399.94 260.00 397.12 258.38 Z" id="s-10-f-1"/>
<path d="M 371.00 251.00 C 370.94 248.27 370.69 249.88 370.50 249.62 C 370.31 249.38 371.81 249.12 369.88 249.50 C 367.94 249.88 368.02 250.50 358.88 251.88 C 349.73 253.25 323.04 256.75 315.00 257.75 C 306.96 258.75 317.46 257.04 310.62 257.88 C 303.79 258.71 287.31 261.19 274.00 262.75 C 260.69 264.31 238.56 266.40 230.75 267.25 C 222.94 268.10 227.81 267.71 227.12 267.88 C 226.44 268.04 226.71 268.04 226.62 268.25 C 226.54 268.46 226.50 268.90 226.62 269.12 C 226.75 269.35 226.35 267.65 227.38 269.62 C 228.40 271.60 231.69 278.96 232.75 281.00 C 233.81 283.04 232.65 281.77 233.75 281.88 C 234.85 281.98 234.60 282.27 239.38 281.62 C 244.15 280.98 255.52 278.94 262.38 278.00 C 269.23 277.06 273.46 276.54 280.50 276.00 C 287.54 275.46 298.60 275.23 304.62 274.75 C 310.65 274.27 307.69 273.96 316.62 273.12 C 325.56 272.29 349.44 270.79 358.25 269.75 C 367.06 268.71 367.40 267.50 369.50 266.88 C 371.60 266.25 370.62 268.65 370.88 266.00 C 371.12 263.35 371.06 253.73 371.00 251.00 Z" id="s-10-f-2"/>
<path d="M 322.88 258.00 C 322.79 255.54 324.54 256.77 322.50 256.75 C 320.46 256.73 317.46 257.02 310.62 257.88 C 303.79 258.73 294.67 260.33 281.50 261.88 C 268.33 263.42 240.69 266.12 231.62 267.12 C 222.56 268.12 227.96 267.69 227.12 267.88 C 226.29 268.06 226.71 268.04 226.62 268.25 C 226.54 268.46 226.50 268.90 226.62 269.12 C 226.75 269.35 226.35 267.65 227.38 269.62 C 228.40 271.60 231.69 278.96 232.75 281.00 C 233.81 283.04 232.65 281.77 233.75 281.88 C 234.85 281.98 234.60 282.27 239.38 281.62 C 244.15 280.98 255.52 278.94 262.38 278.00 C 269.23 277.06 273.46 276.54 280.50 276.00 C 287.54 275.46 298.60 275.23 304.62 274.75 C 310.65 274.27 313.71 273.44 316.62 273.12 C 319.54 272.81 321.08 272.98 322.12 272.88 C 323.17 272.77 322.73 272.73 322.88 272.50 C 323.02 272.27 323.00 273.92 323.00 271.50 C 323.00 269.08 322.96 260.46 322.88 258.00 Z" id="s-10-f-3"/>
<path d="M 275.00 275.50 C 275.04 273.40 275.12 266.00 275.00 263.88 C 274.88 261.75 281.48 262.21 274.25 262.75 C 267.02 263.29 239.56 266.21 231.62 267.12 C 223.69 268.04 227.46 267.92 226.62 268.25 C 225.79 268.58 226.50 268.90 226.62 269.12 C 226.75 269.35 226.35 267.65 227.38 269.62 C 228.40 271.60 231.69 278.96 232.75 281.00 C 233.81 283.04 232.65 281.77 233.75 281.88 C 234.85 281.98 234.60 282.27 239.38 281.62 C 244.15 280.98 256.62 278.79 262.38 278.00 C 268.12 277.21 271.81 277.12 273.88 276.88 C 275.94 276.62 274.56 276.73 274.75 276.50 C 274.94 276.27 274.96 277.60 275.00 275.50 Z" id="s-10-f-4"/>
</g>
<g id="s-11" clip-path="url(#c-s-11)">
<use href="#s-11-f-0"/>
<path d="M 380.00 304.62 C 379.75 302.75 379.02 303.00 378.50 302.62 C 377.98 302.25 377.23 302.52 376.88 302.38 C 376.52 302.23 376.77 301.92 376.38 301.75 C 375.98 301.58 374.96 301.56 374.50 301.38 C 374.04 301.19 374.06 300.79 373.62 300.62 C 373.19 300.46 372.25 300.52 371.88 300.38 C 371.50 300.23 373.04 300.42 371.38 299.75 C 369.71 299.08 363.56 297.06 361.88 296.38 C 360.19 295.69 362.69 295.69 361.25 295.62 C 359.81 295.56 361.44 294.98 353.25 296.00 C 345.06 297.02 319.67 300.77 312.12 301.75 C 304.58 302.73 312.96 301.19 308.00 301.88 C 303.04 302.56 294.40 304.54 282.38 305.88 C 270.35 307.21 243.67 308.62 235.88 309.88 C 228.08 311.12 235.52 312.31 235.62 313.38 C 235.73 314.44 236.31 314.92 236.50 316.25 C 236.69 317.58 236.54 320.10 236.75 321.38 C 236.96 322.65 237.25 323.33 237.75 323.88 C 238.25 324.42 238.88 324.46 239.75 324.62 C 240.62 324.79 240.21 324.88 243.00 324.88 C 245.79 324.88 250.10 325.10 256.50 324.62 C 262.90 324.15 273.44 322.65 281.38 322.00 C 289.31 321.35 297.48 321.27 304.12 320.75 C 310.77 320.23 317.35 319.23 321.25 318.88 C 325.15 318.52 322.62 319.10 327.50 318.62 C 332.38 318.15 341.85 316.62 350.50 316.00 C 359.15 315.38 374.46 315.23 379.38 314.88 C 384.29 314.52 379.90 315.58 380.00 313.88 C 380.10 312.17 380.25 306.50 380.00 304.62 Z" id="s-11-f-1"/>
<path d="M 331.88 299.50 C 331.69 297.31 334.17 298.62 330.88 299.00 C 327.58 299.38 315.94 301.27 312.12 301.75 C 308.31 302.23 312.96 301.19 308.00 301.88 C 303.04 302.56 294.40 304.54 282.38 305.88 C 270.35 307.21 243.67 308.62 235.88 309.88 C 228.08 311.12 235.52 312.31 235.62 313.38 C 235.73 314.44 236.31 314.92 236.50 316.25 C 236.69 317.58 236.58 320.17 236.75 321.38 C 236.92 322.58 237.02 322.96 237.50 323.50 C 237.98 324.04 236.94 324.42 239.62 324.62 C 242.31 324.83 246.67 325.19 253.62 324.75 C 260.58 324.31 272.96 322.67 281.38 322.00 C 289.79 321.33 295.79 321.40 304.12 320.75 C 312.46 320.10 326.75 318.81 331.38 318.12 C 336.00 317.44 331.77 317.62 331.88 316.62 C 331.98 315.62 332.00 314.98 332.00 312.12 C 332.00 309.27 332.06 301.69 331.88 299.50 Z" id="s-11-f-2"/>
<path d="M 283.88 306.00 C 282.75 303.56 285.25 305.48 277.25 306.12 C 269.25 306.77 242.81 308.67 235.88 309.88 C 228.94 311.08 235.52 312.31 235.62 313.38 C 235.73 314.44 236.31 314.92 236.50 316.25 C 236.69 317.58 236.50 320.08 236.75 321.38 C 237.00 322.67 237.31 323.44 238.00 324.00 C 238.69 324.56 238.06 324.62 240.88 324.75 C 243.69 324.88 247.75 325.21 254.88 324.75 C 262.00 324.29 278.77 322.67 283.62 322.00 C 288.48 321.33 283.96 323.42 284.00 320.75 C 284.04 318.08 285.00 308.44 283.88 306.00 Z" id="s-11-f-3"/>
</g>
<g id="s-12" clip-path="url(#c-s-12)">
<use href="#s-12-f-0"/>
<path d="M 355.88 335.12 C 355.19 332.29 355.17 334.69 351.88 335.00 C 348.58 335.31 340.94 336.21 336.12 337.00 C 331.31 337.79 327.38 338.96 323.00 339.75 C 318.62 340.54 312.83 341.40 309.88 341.75 C 306.92 342.10 309.81 341.35 305.25 341.88 C 300.69 342.40 295.21 343.40 282.50 344.88 C 269.79 346.35 239.25 349.73 229.00 350.75 C 218.75 351.77 223.23 350.79 221.00 351.00 C 218.77 351.21 216.83 351.67 215.62 352.00 C 214.42 352.33 214.33 352.58 213.75 353.00 C 213.17 353.42 212.44 353.92 212.12 354.50 C 211.81 355.08 211.83 355.94 211.88 356.50 C 211.92 357.06 211.79 357.17 212.38 357.88 C 212.96 358.58 213.48 359.62 215.38 360.75 C 217.27 361.88 221.15 363.79 223.75 364.62 C 226.35 365.46 227.81 365.54 231.00 365.75 C 234.19 365.96 236.12 366.23 242.88 365.88 C 249.62 365.52 265.15 364.27 271.50 363.62 C 277.85 362.98 275.81 362.48 281.00 362.00 C 286.19 361.52 290.21 362.12 302.62 360.75 C 315.04 359.38 346.60 355.21 355.50 353.75 C 364.40 352.29 355.94 355.10 356.00 352.00 C 356.06 348.90 356.56 337.96 355.88 335.12 Z" id="s-12-f-1"/>
<path d="M 307.88 342.12 C 307.79 339.29 311.73 341.29 307.50 341.75 C 303.27 342.21 295.54 343.38 282.50 344.88 C 269.46 346.38 239.69 349.71 229.25 350.75 C 218.81 351.79 222.15 350.92 219.88 351.12 C 217.60 351.33 216.65 351.69 215.62 352.00 C 214.60 352.31 214.33 352.58 213.75 353.00 C 213.17 353.42 212.44 353.92 212.12 354.50 C 211.81 355.08 211.83 355.94 211.88 356.50 C 211.92 357.06 211.88 357.23 212.38 357.88 C 212.88 358.52 213.42 359.40 214.88 360.38 C 216.33 361.35 218.83 362.90 221.12 363.75 C 223.42 364.60 226.48 365.15 228.62 365.50 C 230.77 365.85 230.35 365.88 234.00 365.88 C 237.65 365.88 244.23 365.88 250.50 365.50 C 256.77 365.12 266.54 364.21 271.62 363.62 C 276.71 363.04 278.27 362.29 281.00 362.00 C 283.73 361.71 283.60 362.19 288.00 361.88 C 292.40 361.56 304.04 360.65 307.38 360.12 C 310.71 359.60 307.92 361.75 308.00 358.75 C 308.08 355.75 307.96 344.96 307.88 342.12 Z" id="s-12-f-2"/>
<path d="M 259.88 347.88 C 259.73 345.25 264.23 346.77 259.12 347.25 C 254.02 347.73 236.08 350.04 229.25 350.75 C 222.42 351.46 220.40 351.29 218.12 351.50 C 215.85 351.71 216.44 351.69 215.62 352.00 C 214.81 352.31 213.85 352.92 213.25 353.38 C 212.65 353.83 212.21 354.10 212.00 354.75 C 211.79 355.40 211.52 356.31 212.00 357.25 C 212.48 358.19 213.71 359.46 214.88 360.38 C 216.04 361.29 217.44 362.02 219.00 362.75 C 220.56 363.48 222.65 364.29 224.25 364.75 C 225.85 365.21 225.50 365.31 228.62 365.50 C 231.75 365.69 237.81 366.04 243.00 365.88 C 248.19 365.71 256.92 364.98 259.75 364.50 C 262.58 364.02 259.98 365.77 260.00 363.00 C 260.02 360.23 260.02 350.50 259.88 347.88 Z" id="s-12-f-3"/>
</g>
<g id="s-13" clip-path="url(#c-s-13)">
<use href="#s-13-f-0"/>
<path d="M 364.00 381.50 C 363.92 379.33 364.25 380.40 363.50 380.00 C 362.75 379.60 361.79 379.46 359.50 379.12 C 357.21 378.79 352.58 378.19 349.75 378.00 C 346.92 377.81 345.50 377.71 342.50 378.00 C 339.50 378.29 338.06 379.10 331.75 379.75 C 325.44 380.40 311.98 381.17 304.62 381.88 C 297.27 382.58 290.92 383.52 287.62 384.00 C 284.33 384.48 289.71 384.12 284.88 384.75 C 280.04 385.38 267.88 386.81 258.62 387.75 C 249.38 388.69 235.46 389.65 229.38 390.38 C 223.29 391.10 223.62 391.60 222.12 392.12 C 220.62 392.65 220.75 392.94 220.38 393.50 C 220.00 394.06 219.88 394.94 219.88 395.50 C 219.88 396.06 219.56 396.02 220.38 396.88 C 221.19 397.73 222.81 399.48 224.75 400.62 C 226.69 401.77 229.77 403.06 232.00 403.75 C 234.23 404.44 233.73 404.60 238.12 404.75 C 242.52 404.90 251.90 404.92 258.38 404.62 C 264.85 404.33 272.40 403.27 277.00 403.00 C 281.60 402.73 281.92 403.21 286.00 403.00 C 290.08 402.79 288.60 403.15 301.50 401.75 C 314.40 400.35 352.96 396.08 363.38 394.62 C 373.79 393.17 363.90 395.19 364.00 393.00 C 364.10 390.81 364.08 383.67 364.00 381.50 Z" id="s-13-f-1"/>
<path d="M 315.88 381.50 C 315.69 378.42 316.62 380.94 314.75 381.00 C 312.88 381.06 312.48 380.92 304.62 381.88 C 296.77 382.83 280.08 385.35 267.62 386.75 C 255.17 388.15 237.46 389.35 229.88 390.25 C 222.29 391.15 223.71 391.58 222.12 392.12 C 220.54 392.67 220.75 392.94 220.38 393.50 C 220.00 394.06 219.88 394.94 219.88 395.50 C 219.88 396.06 219.56 396.02 220.38 396.88 C 221.19 397.73 222.81 399.48 224.75 400.62 C 226.69 401.77 229.77 403.06 232.00 403.75 C 234.23 404.44 233.44 404.62 238.12 404.75 C 242.81 404.88 253.60 404.79 260.12 404.50 C 266.65 404.21 272.58 403.27 277.25 403.00 C 281.92 402.73 282.48 403.27 288.12 402.88 C 293.77 402.48 306.50 401.19 311.12 400.62 C 315.75 400.06 315.08 402.69 315.88 399.50 C 316.67 396.31 316.06 384.58 315.88 381.50 Z" id="s-13-f-2"/>
<path d="M 267.62 386.88 C 261.73 384.81 239.77 389.27 232.62 390.00 C 225.48 390.73 226.50 390.90 224.75 391.25 C 223.00 391.60 222.85 391.75 222.12 392.12 C 221.40 392.50 220.75 393.12 220.38 393.50 C 220.00 393.88 219.94 393.92 219.88 394.38 C 219.81 394.83 219.50 395.42 220.00 396.25 C 220.50 397.08 221.71 398.46 222.88 399.38 C 224.04 400.29 225.48 401.02 227.00 401.75 C 228.52 402.48 230.33 403.27 232.00 403.75 C 233.67 404.23 233.12 404.46 237.00 404.62 C 240.88 404.79 250.12 404.92 255.25 404.75 C 260.38 404.58 265.62 404.02 267.75 403.62 C 269.88 403.23 268.02 405.17 268.00 402.38 C 267.98 399.58 273.52 388.94 267.62 386.88 Z" id="s-13-f-3"/>
</g>
<g id="s-14" clip-path="url(#c-s-14)">
<use href="#s-14-f-0"/>
<path d="M 300.88 236.62 C 299.46 236.44 295.85 236.50 293.88 236.62 C 291.90 236.75 291.42 237.17 289.00 237.38 C 286.58 237.58 281.56 237.67 279.38 237.88 C 277.19 238.08 276.62 238.21 275.88 238.62 C 275.12 239.04 275.00 239.69 274.88 240.38 C 274.75 241.06 274.65 241.69 275.12 242.75 C 275.60 243.81 276.81 244.85 277.75 246.75 C 278.69 248.65 280.08 251.92 280.75 254.12 C 281.42 256.33 281.62 256.44 281.75 260.00 C 281.88 263.56 281.33 268.56 281.50 275.50 C 281.67 282.44 282.58 287.31 282.75 301.62 C 282.92 315.94 282.35 348.25 282.50 361.38 C 282.65 374.50 283.38 377.15 283.62 380.38 C 283.88 383.60 280.46 380.65 284.00 380.75 C 287.54 380.85 300.92 381.00 304.88 381.00 C 308.83 381.00 307.08 384.21 307.75 380.75 C 308.42 377.29 308.62 363.79 308.88 360.25 C 309.12 356.71 309.23 362.83 309.25 359.50 C 309.27 356.17 308.67 346.92 309.00 340.25 C 309.33 333.58 310.92 326.44 311.25 319.50 C 311.58 312.56 310.90 306.08 311.00 298.62 C 311.10 291.17 311.52 279.33 311.88 274.75 C 312.23 270.17 312.88 272.73 313.12 271.12 C 313.38 269.52 313.21 266.46 313.38 265.12 C 313.54 263.79 314.02 264.54 314.12 263.12 C 314.23 261.71 313.75 258.40 314.00 256.62 C 314.25 254.85 315.31 253.92 315.62 252.50 C 315.94 251.08 315.88 249.12 315.88 248.12 C 315.88 247.12 315.85 247.10 315.62 246.50 C 315.40 245.90 315.38 245.44 314.50 244.50 C 313.62 243.56 311.75 241.81 310.38 240.88 C 309.00 239.94 307.58 239.40 306.25 238.88 C 304.92 238.35 303.27 238.12 302.38 237.75 C 301.48 237.38 302.29 236.81 300.88 236.62 Z" id="s-14-f-1"/>
<path d="M 300.75 236.62 C 299.33 236.44 295.83 236.50 293.88 236.62 C 291.92 236.75 291.42 237.17 289.00 237.38 C 286.58 237.58 281.56 237.67 279.38 237.88 C 277.19 238.08 276.62 238.21 275.88 238.62 C 275.12 239.04 275.00 239.69 274.88 240.38 C 274.75 241.06 274.65 241.69 275.12 242.75 C 275.60 243.81 276.81 244.85 277.75 246.75 C 278.69 248.65 280.08 251.92 280.75 254.12 C 281.42 256.33 281.62 256.58 281.75 260.00 C 281.88 263.42 281.33 267.69 281.50 274.62 C 281.67 281.56 282.58 293.83 282.75 301.62 C 282.92 309.42 282.48 317.92 282.50 321.38 C 282.52 324.83 282.81 320.60 282.88 322.38 C 282.94 324.15 282.79 330.23 282.88 332.00 C 282.96 333.77 278.96 332.85 283.38 333.00 C 287.79 333.15 304.96 333.00 309.38 332.88 C 313.79 332.75 309.56 334.48 309.88 332.25 C 310.19 330.02 311.06 325.12 311.25 319.50 C 311.44 313.88 310.90 305.96 311.00 298.50 C 311.10 291.04 311.52 279.31 311.88 274.75 C 312.23 270.19 312.88 272.73 313.12 271.12 C 313.38 269.52 313.21 266.46 313.38 265.12 C 313.54 263.79 314.02 264.54 314.12 263.12 C 314.23 261.71 313.75 258.40 314.00 256.62 C 314.25 254.85 315.31 253.92 315.62 252.50 C 315.94 251.08 315.88 249.12 315.88 248.12 C 315.88 247.12 315.85 247.10 315.62 246.50 C 315.40 245.90 315.38 245.44 314.50 244.50 C 313.62 243.56 311.75 241.81 310.38 240.88 C 309.00 239.94 307.58 239.40 306.25 238.88 C 304.92 238.35 303.29 238.12 302.38 237.75 C 301.46 237.38 302.17 236.81 300.75 236.62 Z" id="s-14-f-2"/>
<path d="M 310.38 240.88 C 307.92 239.54 304.77 237.02 299.75 236.50 C 294.73 235.98 284.27 237.35 280.25 237.75 C 276.23 238.15 276.52 238.44 275.62 238.88 C 274.73 239.31 274.98 239.79 274.88 240.38 C 274.77 240.96 274.52 241.31 275.00 242.38 C 275.48 243.44 276.96 245.29 277.75 246.75 C 278.54 248.21 279.10 249.10 279.75 251.12 C 280.40 253.15 281.33 254.96 281.62 258.88 C 281.92 262.79 281.40 270.31 281.50 274.62 C 281.60 278.94 277.62 283.02 282.25 284.75 C 286.88 286.48 304.35 285.04 309.25 285.00 C 314.15 284.96 311.19 286.29 311.62 284.50 C 312.06 282.71 311.62 276.48 311.88 274.25 C 312.12 272.02 312.88 272.65 313.12 271.12 C 313.38 269.60 313.21 266.46 313.38 265.12 C 313.54 263.79 314.02 264.54 314.12 263.12 C 314.23 261.71 313.75 258.42 314.00 256.62 C 314.25 254.83 315.31 253.83 315.62 252.38 C 315.94 250.92 316.06 249.19 315.88 247.88 C 315.69 246.56 315.42 245.67 314.50 244.50 C 313.58 243.33 312.83 242.21 310.38 240.88 Z" id="s-14-f-3"/>
</g>
<g id="s-15" clip-path="url(#c-s-15)">
<use href="#s-15-f-0"/>
<path d="M 444.00 421.50 C 443.90 417.48 444.96 420.17 443.38 419.25 C 441.79 418.33 436.75 416.54 434.50 416.00 C 432.25 415.46 434.40 415.38 429.88 416.00 C 425.35 416.62 415.65 418.65 407.38 419.75 C 399.10 420.85 391.90 421.75 380.25 422.62 C 368.60 423.50 347.12 424.31 337.50 425.00 C 327.88 425.69 327.31 426.29 322.50 426.75 C 317.69 427.21 313.29 427.60 308.62 427.75 C 303.96 427.90 298.56 427.44 294.50 427.62 C 290.44 427.81 289.60 428.46 284.25 428.88 C 278.90 429.29 269.58 429.48 262.38 430.12 C 255.17 430.77 248.71 431.98 241.00 432.75 C 233.29 433.52 229.06 434.21 216.12 434.75 C 203.19 435.29 172.85 435.60 163.38 436.00 C 153.90 436.40 160.23 436.75 159.25 437.12 C 158.27 437.50 158.04 437.73 157.50 438.25 C 156.96 438.77 156.23 439.40 156.00 440.25 C 155.77 441.10 155.52 442.29 156.12 443.38 C 156.73 444.46 157.50 445.38 159.62 446.75 C 161.75 448.12 165.08 449.98 168.88 451.62 C 172.67 453.27 178.92 455.58 182.38 456.62 C 185.83 457.67 187.48 457.71 189.62 457.88 C 191.77 458.04 192.48 458.10 195.25 457.62 C 198.02 457.15 200.23 455.94 206.25 455.00 C 212.27 454.06 221.85 453.00 231.38 452.00 C 240.90 451.00 253.17 449.83 263.38 449.00 C 273.58 448.17 275.23 447.81 292.62 447.00 C 310.02 446.19 342.62 444.67 367.75 444.12 C 392.88 443.58 430.67 443.88 443.38 443.75 C 456.08 443.62 443.90 447.08 444.00 443.38 C 444.10 439.67 444.10 425.52 444.00 421.50 Z" id="s-15-f-1"/>
<path d="M 396.00 422.75 C 395.96 419.08 396.02 421.67 395.75 421.38 C 395.48 421.08 396.96 420.79 394.38 421.00 C 391.79 421.21 389.73 421.96 380.25 422.62 C 370.77 423.29 347.12 424.31 337.50 425.00 C 327.88 425.69 327.31 426.29 322.50 426.75 C 317.69 427.21 313.29 427.60 308.62 427.75 C 303.96 427.90 298.56 427.44 294.50 427.62 C 290.44 427.81 289.60 428.46 284.25 428.88 C 278.90 429.29 269.58 429.48 262.38 430.12 C 255.17 430.77 248.71 431.98 241.00 432.75 C 233.29 433.52 229.06 434.21 216.12 434.75 C 203.19 435.29 172.85 435.60 163.38 436.00 C 153.90 436.40 160.23 436.75 159.25 437.12 C 158.27 437.50 158.04 437.73 157.50 438.25 C 156.96 438.77 156.23 439.40 156.00 440.25 C 155.77 441.10 155.52 442.29 156.12 443.38 C 156.73 444.46 157.50 445.38 159.62 446.75 C 161.75 448.12 165.08 449.98 168.88 451.62 C 172.67 453.27 178.92 455.58 182.38 456.62 C 185.83 457.67 187.48 457.71 189.62 457.88 C 191.77 458.04 192.48 458.10 195.25 457.62 C 198.02 457.15 196.90 456.27 206.25 455.00 C 215.60 453.73 239.73 451.17 251.38 450.00 C 263.02 448.83 261.73 448.83 276.12 448.00 C 290.52 447.17 318.00 445.69 337.75 445.00 C 357.50 444.31 384.92 444.15 394.62 443.88 C 404.33 443.60 395.77 446.90 396.00 443.38 C 396.23 439.85 396.04 426.42 396.00 422.75 Z" id="s-15-f-2"/>
<path d="M 348.00 426.25 C 347.96 422.98 347.92 424.92 347.62 424.62 C 347.33 424.33 352.75 423.98 346.25 424.50 C 339.75 425.02 317.25 427.23 308.62 427.75 C 300.00 428.27 298.56 427.44 294.50 427.62 C 290.44 427.81 289.60 428.46 284.25 428.88 C 278.90 429.29 269.58 429.48 262.38 430.12 C 255.17 430.77 248.71 431.98 241.00 432.75 C 233.29 433.52 229.06 434.21 216.12 434.75 C 203.19 435.29 172.85 435.60 163.38 436.00 C 153.90 436.40 160.23 436.75 159.25 437.12 C 158.27 437.50 158.04 437.73 157.50 438.25 C 156.96 438.77 156.27 439.56 156.00 440.25 C 155.73 440.94 155.67 441.65 155.88 442.38 C 156.08 443.10 156.35 443.73 157.25 444.62 C 158.15 445.52 159.31 446.58 161.25 447.75 C 163.19 448.92 166.33 450.46 168.88 451.62 C 171.42 452.79 173.44 453.73 176.50 454.75 C 179.56 455.77 184.12 457.27 187.25 457.75 C 190.38 458.23 192.08 458.08 195.25 457.62 C 198.42 457.17 196.90 456.27 206.25 455.00 C 215.60 453.73 236.98 451.33 251.38 450.00 C 265.77 448.67 276.62 447.90 292.62 447.00 C 308.62 446.10 338.17 445.08 347.38 444.62 C 356.58 444.17 347.77 447.31 347.88 444.25 C 347.98 441.19 348.04 429.52 348.00 426.25 Z" id="s-15-f-3"/>
<path d="M 299.88 428.12 C 299.65 425.19 299.40 427.71 298.50 427.62 C 297.60 427.54 296.88 427.42 294.50 427.62 C 292.12 427.83 289.38 428.48 284.25 428.88 C 279.12 429.27 271.17 429.33 263.75 430.00 C 256.33 430.67 247.69 432.08 239.75 432.88 C 231.81 433.67 228.88 434.23 216.12 434.75 C 203.38 435.27 172.73 435.60 163.25 436.00 C 153.77 436.40 160.21 436.75 159.25 437.12 C 158.29 437.50 158.04 437.73 157.50 438.25 C 156.96 438.77 156.27 439.56 156.00 440.25 C 155.73 440.94 155.67 441.65 155.88 442.38 C 156.08 443.10 156.35 443.73 157.25 444.62 C 158.15 445.52 159.31 446.58 161.25 447.75 C 163.19 448.92 166.33 450.46 168.88 451.62 C 171.42 452.79 173.44 453.73 176.50 454.75 C 179.56 455.77 184.12 457.27 187.25 457.75 C 190.38 458.23 192.08 458.08 195.25 457.62 C 198.42 457.17 200.23 455.94 206.25 455.00 C 212.27 454.06 221.83 453.00 231.38 452.00 C 240.92 451.00 252.12 449.94 263.50 449.00 C 274.88 448.06 293.56 447.00 299.62 446.38 C 305.69 445.75 299.83 448.29 299.88 445.25 C 299.92 442.21 300.10 431.06 299.88 428.12 Z" id="s-15-f-4"/>
<path d="M 252.00 433.00 C 251.94 430.85 251.83 431.79 251.62 431.50 C 251.42 431.21 252.73 431.02 250.75 431.25 C 248.77 431.48 245.52 432.29 239.75 432.88 C 233.98 433.46 228.90 434.23 216.12 434.75 C 203.35 435.27 172.60 435.60 163.12 436.00 C 153.65 436.40 160.19 436.75 159.25 437.12 C 158.31 437.50 158.04 437.73 157.50 438.25 C 156.96 438.77 156.23 439.40 156.00 440.25 C 155.77 441.10 155.52 442.29 156.12 443.38 C 156.73 444.46 158.17 445.69 159.62 446.75 C 161.08 447.81 162.50 448.58 164.88 449.75 C 167.25 450.92 170.27 452.44 173.88 453.75 C 177.48 455.06 182.94 456.98 186.50 457.62 C 190.06 458.27 191.96 458.06 195.25 457.62 C 198.54 457.19 196.88 456.27 206.25 455.00 C 215.62 453.73 243.88 451.77 251.50 450.00 C 259.12 448.23 251.92 447.21 252.00 444.38 C 252.08 441.54 252.06 435.15 252.00 433.00 Z" id="s-15-f-5"/>
<path d="M 203.88 455.25 C 203.94 452.12 203.98 440.33 203.88 437.00 C 203.77 433.67 210.04 435.42 203.25 435.25 C 196.46 435.08 170.56 435.62 163.12 436.00 C 155.69 436.38 159.81 436.79 158.62 437.50 C 157.44 438.21 156.42 439.27 156.00 440.25 C 155.58 441.23 155.52 442.29 156.12 443.38 C 156.73 444.46 157.50 445.38 159.62 446.75 C 161.75 448.12 165.17 450.00 168.88 451.62 C 172.58 453.25 178.79 455.48 181.88 456.50 C 184.96 457.52 185.60 457.52 187.38 457.75 C 189.15 457.98 189.81 458.21 192.50 457.88 C 195.19 457.54 201.60 456.19 203.50 455.75 C 205.40 455.31 203.81 458.38 203.88 455.25 Z" id="s-15-f-6"/>
</g>
</svg>