<?xml version="1.0" encoding="UTF-8"?>
<svg xmlns="http://www.w3.org/2000/svg" viewBox="0 0 500 500">
<defs>
<path d="M 283.88 66.38 C 283.79 65.42 283.62 65.27 282.75 64.38 C 281.88 63.48 281.21 62.58 278.62 61.00 C 276.04 59.42 271.35 56.71 267.25 54.88 C 263.15 53.04 257.44 51.12 254.00 50.00 C 250.56 48.88 248.62 48.48 246.62 48.12 C 244.62 47.77 258.00 45.10 242.00 47.88 C 226.00 50.65 177.56 60.10 150.62 64.75 C 123.69 69.40 93.96 73.69 80.38 75.75 C 66.79 77.81 71.96 76.60 69.12 77.12 C 66.29 77.65 64.42 78.29 63.38 78.88 C 62.33 79.46 62.69 79.94 62.88 80.62 C 63.06 81.31 63.85 82.29 64.50 83.00 C 65.15 83.71 64.21 83.42 66.75 84.88 C 69.29 86.33 76.21 89.96 79.75 91.75 C 83.29 93.54 86.00 94.79 88.00 95.62 C 90.00 96.46 90.58 96.54 91.75 96.75 C 92.92 96.96 93.44 97.06 95.00 96.88 C 96.56 96.69 99.52 96.10 101.12 95.62 C 102.73 95.15 103.60 94.38 104.62 94.00 C 105.65 93.62 105.71 93.58 107.25 93.38 C 108.79 93.17 109.98 93.50 113.88 92.75 C 117.77 92.00 118.06 90.67 130.62 88.88 C 143.19 87.08 175.48 83.48 189.25 82.00 C 203.02 80.52 201.88 80.54 213.25 80.00 C 224.62 79.46 248.62 79.12 257.50 78.75 C 266.38 78.38 263.56 78.27 266.50 77.75 C 269.44 77.23 272.92 76.29 275.12 75.62 C 277.33 74.96 278.62 74.33 279.75 73.75 C 280.88 73.17 281.29 72.73 281.88 72.12 C 282.46 71.52 282.92 71.08 283.25 70.12 C 283.58 69.17 283.96 67.33 283.88 66.38 Z" id="s-0-f-0"/>
<clipPath id="c-s-0"><use href="#s-0-f-0"/></clipPath>
<path d="M 130.25 88.75 C 127.56 86.75 128.29 88.52 127.62 88.62 C 126.96 88.73 127.02 89.21 126.25 89.38 C 125.48 89.54 123.79 89.46 123.00 89.62 C 122.21 89.79 122.23 90.21 121.50 90.38 C 120.77 90.54 119.33 90.46 118.62 90.62 C 117.92 90.79 118.02 91.21 117.25 91.38 C 116.48 91.54 114.90 91.40 114.00 91.62 C 113.10 91.85 112.21 92.00 111.88 92.75 C 111.54 93.50 111.71 94.04 112.00 96.12 C 112.29 98.21 113.33 102.06 113.62 105.25 C 113.92 108.44 113.92 110.19 113.75 115.25 C 113.58 120.31 113.98 121.60 112.62 135.62 C 111.27 149.65 107.60 182.69 105.62 199.38 C 103.65 216.06 102.73 221.88 100.75 235.75 C 98.77 249.62 96.38 266.12 93.75 282.62 C 91.12 299.12 86.46 325.75 85.00 334.75 C 83.54 343.75 84.94 336.27 85.00 336.62 C 85.06 336.98 81.38 338.17 85.38 336.88 C 89.38 335.58 104.73 330.46 109.00 328.88 C 113.27 327.29 109.23 335.77 111.00 327.38 C 112.77 318.98 117.29 292.52 119.62 278.50 C 121.96 264.48 123.29 252.79 125.00 243.25 C 126.71 233.71 127.38 234.90 129.88 221.25 C 132.38 207.60 137.52 174.73 140.00 161.38 C 142.48 148.02 143.58 146.62 144.75 141.12 C 145.92 135.62 146.33 131.29 147.00 128.38 C 147.67 125.46 148.15 125.71 148.75 123.62 C 149.35 121.54 150.27 118.02 150.62 115.88 C 150.98 113.73 151.15 112.31 150.88 110.75 C 150.60 109.19 150.19 108.19 149.00 106.50 C 147.81 104.81 146.88 103.58 143.75 100.62 C 140.62 97.67 132.94 90.75 130.25 88.75 Z" id="s-1-f-0"/>
<clipPath id="c-s-1"><use href="#s-1-f-0"/></clipPath>
<path d="M 181.75 303.75 C 181.42 303.12 180.71 302.29 179.75 302.00 C 178.79 301.71 177.21 301.83 176.00 302.00 C 174.79 302.17 183.19 298.75 172.50 303.00 C 161.81 307.25 122.40 323.40 111.88 327.50 C 101.35 331.60 109.96 327.48 109.38 327.62 C 108.79 327.77 108.85 328.21 108.38 328.38 C 107.90 328.54 106.98 328.46 106.50 328.62 C 106.02 328.79 106.00 329.21 105.50 329.38 C 105.00 329.54 103.94 329.48 103.50 329.62 C 103.06 329.77 103.81 329.92 102.88 330.25 C 101.94 330.58 98.85 331.27 97.88 331.62 C 96.90 331.98 97.52 332.21 97.00 332.38 C 96.48 332.54 95.73 332.29 94.75 332.62 C 93.77 332.96 92.60 333.85 91.12 334.38 C 89.65 334.90 86.88 335.38 85.88 335.75 C 84.88 336.12 88.27 335.29 85.12 336.62 C 81.98 337.96 71.75 342.06 67.00 343.75 C 62.25 345.44 60.27 346.04 56.62 346.75 C 52.98 347.46 47.33 347.65 45.12 348.00 C 42.92 348.35 43.71 348.15 43.38 348.88 C 43.04 349.60 42.81 351.08 43.12 352.38 C 43.44 353.67 44.27 355.15 45.25 356.62 C 46.23 358.10 47.60 359.73 49.00 361.25 C 50.40 362.77 51.69 364.19 53.62 365.75 C 55.56 367.31 57.69 368.96 60.62 370.62 C 63.56 372.29 68.92 374.75 71.25 375.75 C 73.58 376.75 73.12 376.46 74.62 376.62 C 76.12 376.79 73.12 381.02 80.25 376.75 C 87.38 372.48 103.92 360.17 117.38 351.00 C 130.83 341.83 151.00 328.71 161.00 321.75 C 171.00 314.79 174.23 311.56 177.38 309.25 C 180.52 306.94 179.15 308.46 179.88 307.88 C 180.60 307.29 181.44 306.44 181.75 305.75 C 182.06 305.06 182.08 304.38 181.75 303.75 Z" id="s-2-f-0"/>
<clipPath id="c-s-2"><use href="#s-2-f-0"/></clipPath>
<path d="M 139.75 161.88 C 137.17 162.73 138.98 162.81 138.75 163.88 C 138.52 164.94 138.54 167.31 138.38 168.25 C 138.21 169.19 137.92 168.56 137.75 169.50 C 137.58 170.44 137.56 172.77 137.38 173.88 C 137.19 174.98 136.77 175.35 136.62 176.12 C 136.48 176.90 136.46 178.04 136.50 178.50 C 136.54 178.96 134.92 178.85 136.88 178.88 C 138.83 178.90 144.33 179.02 148.25 178.62 C 152.17 178.23 156.23 177.50 160.38 176.50 C 164.52 175.50 169.58 173.88 173.12 172.62 C 176.67 171.38 178.90 169.94 181.62 169.00 C 184.35 168.06 187.98 167.27 189.50 167.00 C 191.02 166.73 190.40 167.08 190.75 167.38 C 191.10 167.67 191.46 167.98 191.62 168.75 C 191.79 169.52 192.00 169.54 191.75 172.00 C 191.50 174.46 190.56 179.65 190.12 183.50 C 189.69 187.35 189.48 189.73 189.12 195.12 C 188.77 200.52 188.19 206.58 188.00 215.88 C 187.81 225.17 187.83 242.42 188.00 250.88 C 188.17 259.33 188.65 262.42 189.00 266.62 C 189.35 270.83 189.27 270.71 190.12 276.12 C 190.98 281.54 192.29 291.10 194.12 299.12 C 195.96 307.15 198.98 317.58 201.12 324.25 C 203.27 330.92 205.21 335.12 207.00 339.12 C 208.79 343.12 210.21 345.40 211.88 348.25 C 213.54 351.10 215.10 353.56 217.00 356.25 C 218.90 358.94 220.98 361.77 223.25 364.38 C 225.52 366.98 227.98 369.65 230.62 371.88 C 233.27 374.10 237.06 376.44 239.12 377.75 C 241.19 379.06 241.02 378.92 243.00 379.75 C 244.98 380.58 247.85 381.92 251.00 382.75 C 254.15 383.58 258.12 384.42 261.88 384.75 C 265.62 385.08 270.12 385.08 273.50 384.75 C 276.88 384.42 279.85 383.42 282.12 382.75 C 284.40 382.08 285.62 381.46 287.12 380.75 C 288.62 380.04 289.62 379.62 291.12 378.50 C 292.62 377.38 294.54 375.75 296.12 374.00 C 297.71 372.25 299.52 369.98 300.62 368.00 C 301.73 366.02 302.40 363.81 302.75 362.12 C 303.10 360.44 303.08 359.23 302.75 357.88 C 302.42 356.52 301.73 355.42 300.75 354.00 C 299.77 352.58 297.98 350.88 296.88 349.38 C 295.77 347.88 295.27 347.31 294.12 345.00 C 292.98 342.69 291.02 338.33 290.00 335.50 C 288.98 332.67 289.04 334.15 288.00 328.00 C 286.96 321.85 284.65 304.12 283.75 298.62 C 282.85 293.12 283.17 296.10 282.62 295.00 C 282.08 293.90 280.98 292.50 280.50 292.00 C 280.02 291.50 280.00 291.88 279.75 292.00 C 279.50 292.12 279.44 291.04 279.00 292.75 C 278.56 294.46 278.17 295.88 277.12 302.25 C 276.08 308.62 273.83 325.15 272.75 331.00 C 271.67 336.85 271.48 335.48 270.62 337.38 C 269.77 339.27 268.67 341.02 267.62 342.38 C 266.58 343.73 265.42 344.79 264.38 345.50 C 263.33 346.21 262.48 346.42 261.38 346.62 C 260.27 346.83 259.52 347.06 257.75 346.75 C 255.98 346.44 252.81 345.56 250.75 344.75 C 248.69 343.94 247.42 343.27 245.38 341.88 C 243.33 340.48 240.38 338.15 238.50 336.38 C 236.62 334.60 235.35 332.85 234.12 331.25 C 232.90 329.65 232.31 328.83 231.12 326.75 C 229.94 324.67 228.19 321.48 227.00 318.75 C 225.81 316.02 225.31 314.77 224.00 310.38 C 222.69 305.98 220.27 297.04 219.12 292.38 C 217.98 287.71 217.81 286.58 217.12 282.38 C 216.44 278.17 215.69 274.35 215.00 267.12 C 214.31 259.90 213.33 245.21 213.00 239.00 C 212.67 232.79 212.85 233.67 213.00 229.88 C 213.15 226.08 213.38 221.19 213.88 216.25 C 214.38 211.31 215.29 204.50 216.00 200.25 C 216.71 196.00 217.44 193.25 218.12 190.75 C 218.81 188.25 219.15 187.48 220.12 185.25 C 221.10 183.02 222.81 179.46 224.00 177.38 C 225.19 175.29 226.15 174.12 227.25 172.75 C 228.35 171.38 228.77 170.73 230.62 169.12 C 232.48 167.52 236.56 164.65 238.38 163.12 C 240.19 161.60 240.75 160.96 241.50 160.00 C 242.25 159.04 242.67 158.15 242.88 157.38 C 243.08 156.60 242.92 156.02 242.75 155.38 C 242.58 154.73 242.65 154.46 241.88 153.50 C 241.10 152.54 239.54 150.88 238.12 149.62 C 236.71 148.38 235.31 147.27 233.38 146.00 C 231.44 144.73 229.94 143.48 226.50 142.00 C 223.06 140.52 215.75 138.12 212.75 137.12 C 209.75 136.12 210.12 136.17 208.50 136.00 C 206.88 135.83 204.69 135.77 203.00 136.12 C 201.31 136.48 201.50 136.35 198.38 138.12 C 195.25 139.90 189.06 144.17 184.25 146.75 C 179.44 149.33 174.50 151.62 169.50 153.62 C 164.50 155.62 159.21 157.38 154.25 158.75 C 149.29 160.12 142.33 161.02 139.75 161.88 Z" id="s-3-f-0"/>
<clipPath id="c-s-3"><use href="#s-3-f-0"/></clipPath>
<path d="M 129.75 219.88 C 128.17 220.02 128.88 221.06 128.62 222.00 C 128.38 222.94 128.42 224.75 128.25 225.50 C 128.08 226.25 127.75 225.98 127.62 226.50 C 127.50 227.02 127.67 227.85 127.50 228.62 C 127.33 229.40 126.79 230.29 126.62 231.12 C 126.46 231.96 126.67 232.88 126.50 233.62 C 126.33 234.38 125.75 234.85 125.62 235.62 C 125.50 236.40 123.33 234.94 125.75 238.25 C 128.17 241.56 136.92 251.83 140.12 255.50 C 143.33 259.17 143.58 259.00 145.00 260.25 C 146.42 261.50 147.50 262.25 148.62 263.00 C 149.75 263.75 150.58 264.27 151.75 264.75 C 152.92 265.23 154.10 265.73 155.62 265.88 C 157.15 266.02 159.23 265.98 160.88 265.62 C 162.52 265.27 164.19 264.60 165.50 263.75 C 166.81 262.90 168.04 261.31 168.75 260.50 C 169.46 259.69 169.25 260.31 169.75 258.88 C 170.25 257.44 171.44 254.52 171.75 251.88 C 172.06 249.23 171.96 245.38 171.62 243.00 C 171.29 240.62 170.40 239.02 169.75 237.62 C 169.10 236.23 168.88 235.73 167.75 234.62 C 166.62 233.52 164.38 231.92 163.00 231.00 C 161.62 230.08 162.04 230.29 159.50 229.12 C 156.96 227.96 151.31 225.33 147.75 224.00 C 144.19 222.67 141.12 221.81 138.12 221.12 C 135.12 220.44 131.33 219.73 129.75 219.88 Z" id="s-4-f-0"/>
<clipPath id="c-s-4"><use href="#s-4-f-0"/></clipPath>
<path d="M 450.38 55.00 C 447.31 53.08 440.42 49.83 436.38 48.00 C 432.33 46.17 429.21 45.00 426.12 44.00 C 423.04 43.00 420.33 42.33 417.88 42.00 C 415.42 41.67 413.29 41.69 411.38 42.00 C 409.46 42.31 408.10 43.10 406.38 43.88 C 404.65 44.65 405.29 44.83 401.00 46.62 C 396.71 48.42 388.19 51.96 380.62 54.62 C 373.06 57.29 362.31 60.69 355.62 62.62 C 348.94 64.56 343.25 65.52 340.50 66.25 C 337.75 66.98 339.35 66.71 339.12 67.00 C 338.90 67.29 338.17 66.06 339.12 68.00 C 340.08 69.94 343.60 76.67 344.88 78.62 C 346.15 80.58 344.21 79.92 346.75 79.75 C 349.29 79.58 355.21 78.75 360.12 77.62 C 365.04 76.50 371.60 74.15 376.25 73.00 C 380.90 71.85 385.65 71.27 388.00 70.75 C 390.35 70.23 388.73 70.17 390.38 69.88 C 392.02 69.58 396.02 69.12 397.88 69.00 C 399.73 68.88 400.42 68.94 401.50 69.12 C 402.58 69.31 403.54 69.54 404.38 70.12 C 405.21 70.71 406.10 71.62 406.50 72.62 C 406.90 73.62 407.04 73.79 406.75 76.12 C 406.46 78.46 407.42 77.19 404.75 86.62 C 402.08 96.06 394.19 122.27 390.75 132.75 C 387.31 143.23 385.42 146.04 384.12 149.50 C 382.83 152.96 383.21 152.38 383.00 153.50 C 382.79 154.62 382.83 155.69 382.88 156.25 C 382.92 156.81 381.29 157.27 383.25 156.88 C 385.21 156.48 392.38 154.54 394.62 153.88 C 396.88 153.21 394.88 155.60 396.75 152.88 C 398.62 150.15 400.35 145.94 405.88 137.50 C 411.40 129.06 425.17 109.35 429.88 102.25 C 434.58 95.15 431.67 98.29 434.12 94.88 C 436.58 91.46 441.50 85.40 444.62 81.75 C 447.75 78.10 451.04 75.46 452.88 73.00 C 454.71 70.54 455.15 68.79 455.62 67.00 C 456.10 65.21 455.90 63.50 455.75 62.25 C 455.60 61.00 455.65 60.71 454.75 59.50 C 453.85 58.29 453.44 56.92 450.38 55.00 Z" id="s-5-f-0"/>
<clipPath id="c-s-5"><use href="#s-5-f-0"/></clipPath>
<path d="M 395.50 152.50 C 395.06 152.65 394.42 153.19 393.75 153.38 C 393.08 153.56 392.04 153.46 391.50 153.62 C 390.96 153.79 391.69 154.04 390.50 154.38 C 389.31 154.71 385.62 155.21 384.38 155.62 C 383.12 156.04 383.23 156.35 383.00 156.88 C 382.77 157.40 382.67 157.77 383.00 158.75 C 383.33 159.73 383.81 161.06 385.00 162.75 C 386.19 164.44 388.15 166.25 390.12 168.88 C 392.10 171.50 394.79 175.27 396.88 178.50 C 398.96 181.73 400.65 184.52 402.62 188.25 C 404.60 191.98 406.90 196.67 408.75 200.88 C 410.60 205.08 412.25 209.06 413.75 213.50 C 415.25 217.94 416.58 222.69 417.75 227.50 C 418.92 232.31 420.08 238.27 420.75 242.38 C 421.42 246.48 421.65 249.12 421.75 252.12 C 421.85 255.12 421.65 258.52 421.38 260.38 C 421.10 262.23 420.73 262.38 420.12 263.25 C 419.52 264.12 418.54 265.02 417.75 265.62 C 416.96 266.23 416.48 266.52 415.38 266.88 C 414.27 267.23 412.58 267.60 411.12 267.75 C 409.67 267.90 409.42 268.10 406.62 267.75 C 403.83 267.40 400.42 267.10 394.38 265.62 C 388.33 264.15 374.65 259.98 370.38 258.88 C 366.10 257.77 369.15 258.85 368.75 259.00 C 368.35 259.15 368.15 259.40 368.00 259.75 C 367.85 260.10 367.71 260.56 367.88 261.12 C 368.04 261.69 364.94 259.62 369.00 263.12 C 373.06 266.62 386.19 277.02 392.25 282.12 C 398.31 287.23 401.15 289.73 405.38 293.75 C 409.60 297.77 414.71 302.98 417.62 306.25 C 420.54 309.52 421.46 311.62 422.88 313.38 C 424.29 315.12 425.04 315.88 426.12 316.75 C 427.21 317.62 428.10 318.29 429.38 318.62 C 430.65 318.96 432.50 319.04 433.75 318.75 C 435.00 318.46 435.38 318.29 436.88 316.88 C 438.38 315.46 440.94 312.67 442.75 310.25 C 444.56 307.83 446.27 304.92 447.75 302.38 C 449.23 299.83 450.46 297.88 451.62 295.00 C 452.79 292.12 454.04 288.35 454.75 285.12 C 455.46 281.90 455.71 279.77 455.88 275.62 C 456.04 271.48 456.00 265.25 455.75 260.25 C 455.50 255.25 455.06 250.52 454.38 245.62 C 453.69 240.73 452.56 235.02 451.62 230.88 C 450.69 226.73 450.06 224.54 448.75 220.75 C 447.44 216.96 445.56 212.02 443.75 208.12 C 441.94 204.23 440.04 201.00 437.88 197.38 C 435.71 193.75 433.10 189.69 430.75 186.38 C 428.40 183.06 426.33 180.46 423.75 177.50 C 421.17 174.54 418.10 171.38 415.25 168.62 C 412.40 165.88 409.46 163.27 406.62 161.00 C 403.79 158.73 399.96 156.42 398.25 155.00 C 396.54 153.58 396.83 152.92 396.38 152.50 C 395.92 152.08 395.94 152.35 395.50 152.50 Z" id="s-6-f-0"/>
<clipPath id="c-s-6"><use href="#s-6-f-0"/></clipPath>
<path d="M 311.38 57.00 C 309.90 57.31 307.69 58.15 306.62 58.88 C 305.56 59.60 305.23 60.15 305.00 61.38 C 304.77 62.60 304.79 64.10 305.25 66.25 C 305.71 68.40 307.00 71.15 307.75 74.25 C 308.50 77.35 309.25 80.58 309.75 84.88 C 310.25 89.17 310.52 47.17 310.75 100.00 C 310.98 152.83 310.92 347.12 311.12 401.88 C 311.33 456.62 311.69 421.60 312.00 428.50 C 312.31 435.40 312.62 439.94 313.00 443.25 C 313.38 446.56 313.73 446.73 314.25 448.38 C 314.77 450.02 315.27 451.73 316.12 453.12 C 316.98 454.52 318.52 456.12 319.38 456.75 C 320.23 457.38 320.50 457.25 321.25 456.88 C 322.00 456.50 323.15 455.48 323.88 454.50 C 324.60 453.52 324.48 454.23 325.62 451.00 C 326.77 447.77 329.56 440.62 330.75 435.12 C 331.94 429.62 331.92 427.75 332.75 418.00 C 333.58 408.25 335.06 389.23 335.75 376.62 C 336.44 364.02 336.35 382.46 336.88 342.38 C 337.40 302.29 338.35 173.77 338.88 136.12 C 339.40 98.48 339.33 124.31 340.00 116.50 C 340.67 108.69 341.81 95.46 342.88 89.25 C 343.94 83.04 346.31 81.77 346.38 79.25 C 346.44 76.73 343.77 75.25 343.25 74.12 C 342.73 73.00 343.40 72.79 343.25 72.50 C 343.10 72.21 342.92 73.23 342.38 72.38 C 341.83 71.52 341.00 68.62 340.00 67.38 C 339.00 66.12 338.00 65.77 336.38 64.88 C 334.75 63.98 332.98 63.12 330.25 62.00 C 327.52 60.88 322.46 58.96 320.00 58.12 C 317.54 57.29 316.94 57.19 315.50 57.00 C 314.06 56.81 312.85 56.69 311.38 57.00 Z" id="s-7-f-0"/>
<clipPath id="c-s-7"><use href="#s-7-f-0"/></clipPath>
</defs>
<g id="s-0" clip-path="url(#c-s-0)">
<use href="#s-0-f-0"/>
<path d="M 254.88 50.88 C 254.71 46.42 255.38 50.46 254.00 50.00 C 252.62 49.54 249.04 48.44 246.62 48.12 C 244.21 47.81 241.69 47.85 239.50 48.12 C 237.31 48.40 239.79 48.58 233.50 49.75 C 227.21 50.92 215.56 52.62 201.75 55.12 C 187.94 57.62 170.85 61.31 150.62 64.75 C 130.40 68.19 93.96 73.69 80.38 75.75 C 66.79 77.81 71.96 76.60 69.12 77.12 C 66.29 77.65 64.42 78.29 63.38 78.88 C 62.33 79.46 62.69 79.94 62.88 80.62 C 63.06 81.31 63.85 82.29 64.50 83.00 C 65.15 83.71 64.21 83.42 66.75 84.88 C 69.29 86.33 76.21 89.96 79.75 91.75 C 83.29 93.54 86.00 94.79 88.00 95.62 C 90.00 96.46 90.58 96.54 91.75 96.75 C 92.92 96.96 93.44 97.06 95.00 96.88 C 96.56 96.69 99.52 96.10 101.12 95.62 C 102.73 95.15 103.60 94.38 104.62 94.00 C 105.65 93.62 105.71 93.58 107.25 93.38 C 108.79 93.17 109.98 93.50 113.88 92.75 C 117.77 92.00 119.52 90.50 130.62 88.88 C 141.73 87.25 167.10 84.46 180.50 83.00 C 193.90 81.54 198.65 80.85 211.00 80.12 C 223.35 79.40 247.29 79.19 254.62 78.62 C 261.96 78.06 254.96 81.38 255.00 76.75 C 255.04 72.12 255.04 55.33 254.88 50.88 Z" id="s-0-f-1"/>
<path d="M 206.88 54.88 C 206.69 50.90 216.12 52.71 205.88 54.50 C 195.62 56.29 166.29 62.08 145.38 65.62 C 124.46 69.17 93.08 73.83 80.38 75.75 C 67.67 77.67 71.96 76.60 69.12 77.12 C 66.29 77.65 64.42 78.29 63.38 78.88 C 62.33 79.46 62.56 79.81 62.88 80.62 C 63.19 81.44 64.08 82.73 65.25 83.75 C 66.42 84.77 68.23 85.88 69.88 86.75 C 71.52 87.62 72.46 87.67 75.12 89.00 C 77.79 90.33 83.29 93.50 85.88 94.75 C 88.46 96.00 89.42 96.15 90.62 96.50 C 91.83 96.85 92.02 96.85 93.12 96.88 C 94.23 96.90 94.90 97.21 97.25 96.62 C 99.60 96.04 104.48 94.02 107.25 93.38 C 110.02 92.73 109.83 93.52 113.88 92.75 C 117.92 91.98 118.94 90.54 131.50 88.75 C 144.06 86.96 176.81 83.33 189.25 82.00 C 201.69 80.67 203.19 81.06 206.12 80.75 C 209.06 80.44 206.73 80.52 206.88 80.12 C 207.02 79.73 207.00 82.58 207.00 78.38 C 207.00 74.17 207.06 58.85 206.88 54.88 Z" id="s-0-f-2"/>
<path d="M 158.88 63.75 C 158.69 60.33 160.12 62.81 157.88 63.12 C 155.62 63.44 158.29 63.52 145.38 65.62 C 132.46 67.73 93.08 73.83 80.38 75.75 C 67.67 77.67 71.96 76.60 69.12 77.12 C 66.29 77.65 64.42 78.29 63.38 78.88 C 62.33 79.46 62.56 79.81 62.88 80.62 C 63.19 81.44 64.38 82.90 65.25 83.75 C 66.12 84.60 64.69 83.92 68.12 85.75 C 71.56 87.58 81.94 92.92 85.88 94.75 C 89.81 96.58 89.85 96.44 91.75 96.75 C 93.65 97.06 94.67 97.19 97.25 96.62 C 99.83 96.06 104.48 94.02 107.25 93.38 C 110.02 92.73 110.10 93.48 113.88 92.75 C 117.65 92.02 122.46 90.17 129.88 89.00 C 137.29 87.83 153.52 86.65 158.38 85.75 C 163.23 84.85 158.92 87.29 159.00 83.62 C 159.08 79.96 159.06 67.17 158.88 63.75 Z" id="s-0-f-3"/>
<path d="M 111.00 92.38 C 111.04 88.96 110.85 75.92 110.75 72.38 C 110.65 68.83 117.31 70.33 110.38 71.12 C 103.44 71.92 76.71 75.96 69.12 77.12 C 61.54 78.29 65.92 77.73 64.88 78.12 C 63.83 78.52 63.10 78.88 62.88 79.50 C 62.65 80.12 63.10 81.17 63.50 81.88 C 63.90 82.58 64.48 83.10 65.25 83.75 C 66.02 84.40 65.04 84.08 68.12 85.75 C 71.21 87.42 80.00 91.96 83.75 93.75 C 87.50 95.54 89.06 95.98 90.62 96.50 C 92.19 97.02 92.02 96.85 93.12 96.88 C 94.23 96.90 95.56 96.96 97.25 96.62 C 98.94 96.29 102.02 95.31 103.25 94.88 C 104.48 94.44 103.42 94.33 104.62 94.00 C 105.83 93.67 109.44 93.15 110.50 92.88 C 111.56 92.60 110.96 95.79 111.00 92.38 Z" id="s-0-f-4"/>
</g>
<g id="s-1" clip-path="url(#c-s-1)">
<use href="#s-1-f-0"/>
<path d="M 130.25 88.75 C 127.56 86.75 128.29 88.52 127.62 88.62 C 126.96 88.73 127.02 89.21 126.25 89.38 C 125.48 89.54 123.79 89.46 123.00 89.62 C 122.21 89.79 122.23 90.21 121.50 90.38 C 120.77 90.54 119.33 90.46 118.62 90.62 C 117.92 90.79 118.02 91.21 117.25 91.38 C 116.48 91.54 114.90 91.40 114.00 91.62 C 113.10 91.85 112.21 92.00 111.88 92.75 C 111.54 93.50 111.71 94.04 112.00 96.12 C 112.29 98.21 113.33 102.06 113.62 105.25 C 113.92 108.44 113.92 110.19 113.75 115.25 C 113.58 120.31 113.98 121.60 112.62 135.62 C 111.27 149.65 107.60 182.69 105.62 199.38 C 103.65 216.06 102.50 223.73 100.75 235.75 C 99.00 247.77 96.31 263.50 95.12 271.50 C 93.94 279.50 95.12 274.33 93.62 283.75 C 92.12 293.17 87.27 320.48 86.12 328.00 C 84.98 335.52 83.00 328.71 86.75 328.88 C 90.50 329.04 104.58 329.25 108.62 329.00 C 112.67 328.75 109.17 335.79 111.00 327.38 C 112.83 318.96 117.29 292.52 119.62 278.50 C 121.96 264.48 123.29 252.79 125.00 243.25 C 126.71 233.71 127.38 234.90 129.88 221.25 C 132.38 207.60 137.52 174.73 140.00 161.38 C 142.48 148.02 143.58 146.62 144.75 141.12 C 145.92 135.62 146.33 131.29 147.00 128.38 C 147.67 125.46 148.15 125.71 148.75 123.62 C 149.35 121.54 150.27 118.02 150.62 115.88 C 150.98 113.73 151.15 112.31 150.88 110.75 C 150.60 109.19 150.19 108.19 149.00 106.50 C 147.81 104.81 146.88 103.58 143.75 100.62 C 140.62 97.67 132.94 90.75 130.25 88.75 Z" id="s-1-f-1"/>
<path d="M 130.25 88.75 C 127.56 86.75 128.29 88.52 127.62 88.62 C 126.96 88.73 127.02 89.21 126.25 89.38 C 125.48 89.54 123.79 89.46 123.00 89.62 C 122.21 89.79 122.23 90.21 121.50 90.38 C 120.77 90.54 119.33 90.46 118.62 90.62 C 117.92 90.79 118.02 91.21 117.25 91.38 C 116.48 91.54 114.90 91.40 114.00 91.62 C 113.10 91.85 111.92 90.08 111.88 92.75 C 111.83 95.42 113.48 102.71 113.75 107.62 C 114.02 112.54 113.69 117.58 113.50 122.25 C 113.31 126.92 113.94 122.77 112.62 135.62 C 111.31 148.48 107.94 180.35 105.62 199.38 C 103.31 218.40 100.69 236.40 98.75 249.75 C 96.81 263.10 94.71 274.31 94.00 279.50 C 93.29 284.69 90.42 280.62 94.50 280.88 C 98.58 281.12 114.40 281.10 118.50 281.00 C 122.60 280.90 118.04 286.54 119.12 280.25 C 120.21 273.96 123.21 253.08 125.00 243.25 C 126.79 233.42 127.38 234.90 129.88 221.25 C 132.38 207.60 137.52 174.73 140.00 161.38 C 142.48 148.02 143.58 146.60 144.75 141.12 C 145.92 135.65 146.33 131.42 147.00 128.50 C 147.67 125.58 148.15 125.73 148.75 123.62 C 149.35 121.52 150.27 118.02 150.62 115.88 C 150.98 113.73 151.15 112.31 150.88 110.75 C 150.60 109.19 150.19 108.19 149.00 106.50 C 147.81 104.81 146.88 103.58 143.75 100.62 C 140.62 97.67 132.94 90.75 130.25 88.75 Z" id="s-1-f-2"/>
<path d="M 130.25 88.75 C 127.56 86.75 128.29 88.52 127.62 88.62 C 126.96 88.73 127.02 89.21 126.25 89.38 C 125.48 89.54 123.79 89.46 123.00 89.62 C 122.21 89.79 122.23 90.21 121.50 90.38 C 120.77 90.54 119.33 90.46 118.62 90.62 C 117.92 90.79 118.02 91.21 117.25 91.38 C 116.48 91.54 114.90 91.40 114.00 91.62 C 113.10 91.85 111.92 90.08 111.88 92.75 C 111.83 95.42 113.48 102.71 113.75 107.62 C 114.02 112.54 113.69 117.58 113.50 122.25 C 113.31 126.92 113.94 122.77 112.62 135.62 C 111.31 148.48 107.56 183.35 105.62 199.38 C 103.69 215.40 101.69 226.17 101.00 231.75 C 100.31 237.33 97.21 232.69 101.50 232.88 C 105.79 233.06 122.38 233.21 126.75 232.88 C 131.12 232.54 127.23 232.81 127.75 230.88 C 128.27 228.94 127.83 232.83 129.88 221.25 C 131.92 209.67 137.52 174.73 140.00 161.38 C 142.48 148.02 143.58 146.60 144.75 141.12 C 145.92 135.65 146.19 131.94 147.00 128.50 C 147.81 125.06 148.98 123.00 149.62 120.50 C 150.27 118.00 150.71 115.29 150.88 113.50 C 151.04 111.71 151.21 111.27 150.62 109.75 C 150.04 108.23 148.52 105.90 147.38 104.38 C 146.23 102.85 146.60 103.23 143.75 100.62 C 140.90 98.02 132.94 90.75 130.25 88.75 Z" id="s-1-f-3"/>
<path d="M 130.25 88.75 C 127.56 86.75 128.29 88.52 127.62 88.62 C 126.96 88.73 127.02 89.21 126.25 89.38 C 125.48 89.54 123.79 89.46 123.00 89.62 C 122.21 89.79 122.23 90.21 121.50 90.38 C 120.77 90.54 119.33 90.46 118.62 90.62 C 117.92 90.79 118.02 91.21 117.25 91.38 C 116.48 91.54 114.90 91.40 114.00 91.62 C 113.10 91.85 112.21 92.02 111.88 92.75 C 111.54 93.48 111.71 93.92 112.00 96.00 C 112.29 98.08 113.38 100.88 113.62 105.25 C 113.88 109.62 113.81 115.69 113.50 122.25 C 113.19 128.81 112.79 134.42 111.75 144.62 C 110.71 154.83 107.92 176.79 107.25 183.50 C 106.58 190.21 103.04 184.62 107.75 184.88 C 112.46 185.12 130.75 185.27 135.50 185.00 C 140.25 184.73 135.50 187.19 136.25 183.25 C 137.00 179.31 138.58 168.40 140.00 161.38 C 141.42 154.35 143.58 146.60 144.75 141.12 C 145.92 135.65 146.33 131.42 147.00 128.50 C 147.67 125.58 148.15 125.73 148.75 123.62 C 149.35 121.52 150.27 118.02 150.62 115.88 C 150.98 113.73 151.02 112.10 150.88 110.75 C 150.73 109.40 150.33 108.81 149.75 107.75 C 149.17 106.69 148.38 105.56 147.38 104.38 C 146.38 103.19 146.60 103.23 143.75 100.62 C 140.90 98.02 132.94 90.75 130.25 88.75 Z" id="s-1-f-4"/>
<path d="M 111.88 92.75 C 111.54 93.48 111.69 93.52 112.00 96.00 C 112.31 98.48 113.50 103.25 113.75 107.62 C 114.00 112.00 113.69 117.46 113.50 122.25 C 113.31 127.04 112.38 133.92 112.62 136.38 C 112.88 138.83 109.60 136.92 115.00 137.00 C 120.40 137.08 139.90 137.02 145.00 136.88 C 150.10 136.73 145.29 137.52 145.62 136.12 C 145.96 134.73 146.33 131.10 147.00 128.50 C 147.67 125.90 149.00 122.75 149.62 120.50 C 150.25 118.25 150.54 116.62 150.75 115.00 C 150.96 113.38 151.17 112.17 150.88 110.75 C 150.58 109.33 150.19 108.19 149.00 106.50 C 147.81 104.81 146.88 103.58 143.75 100.62 C 140.62 97.67 132.94 90.75 130.25 88.75 C 127.56 86.75 128.29 88.52 127.62 88.62 C 126.96 88.73 127.02 89.21 126.25 89.38 C 125.48 89.54 123.79 89.46 123.00 89.62 C 122.21 89.79 122.23 90.21 121.50 90.38 C 120.77 90.54 119.33 90.46 118.62 90.62 C 117.92 90.79 118.02 91.21 117.25 91.38 C 116.48 91.54 114.90 91.40 114.00 91.62 C 113.10 91.85 112.21 92.02 111.88 92.75 Z" id="s-1-f-5"/>
</g>
<g id="s-2" clip-path="url(#c-s-2)">
<use href="#s-2-f-0"/>
<path d="M 138.25 317.00 C 133.75 317.79 116.69 325.73 111.88 327.50 C 107.06 329.27 109.96 327.48 109.38 327.62 C 108.79 327.77 108.85 328.21 108.38 328.38 C 107.90 328.54 106.98 328.46 106.50 328.62 C 106.02 328.79 106.00 329.21 105.50 329.38 C 105.00 329.54 103.94 329.48 103.50 329.62 C 103.06 329.77 103.81 329.92 102.88 330.25 C 101.94 330.58 98.85 331.27 97.88 331.62 C 96.90 331.98 97.52 332.21 97.00 332.38 C 96.48 332.54 95.73 332.29 94.75 332.62 C 93.77 332.96 92.60 333.85 91.12 334.38 C 89.65 334.90 86.88 335.38 85.88 335.75 C 84.88 336.12 88.75 335.12 85.12 336.62 C 81.50 338.12 68.88 343.06 64.12 344.75 C 59.38 346.44 59.79 346.21 56.62 346.75 C 53.46 347.29 47.33 347.65 45.12 348.00 C 42.92 348.35 43.71 348.15 43.38 348.88 C 43.04 349.60 42.81 351.08 43.12 352.38 C 43.44 353.67 44.31 355.19 45.25 356.62 C 46.19 358.06 47.35 359.48 48.75 361.00 C 50.15 362.52 51.62 364.12 53.62 365.75 C 55.62 367.38 57.81 369.08 60.75 370.75 C 63.69 372.42 68.94 374.77 71.25 375.75 C 73.56 376.73 73.12 376.46 74.62 376.62 C 76.12 376.79 76.79 378.52 80.25 376.75 C 83.71 374.98 85.65 372.65 95.38 366.00 C 105.10 359.35 131.35 342.02 138.62 336.88 C 145.90 331.73 138.96 337.48 139.00 335.12 C 139.04 332.77 139.00 325.77 138.88 322.75 C 138.75 319.73 142.75 316.21 138.25 317.00 Z" id="s-2-f-1"/>
<path d="M 91.00 335.00 C 90.81 329.29 90.60 334.38 89.75 334.50 C 88.90 334.62 86.65 335.40 85.88 335.75 C 85.10 336.10 89.29 334.96 85.12 336.62 C 80.96 338.29 66.42 343.94 60.88 345.75 C 55.33 347.56 54.50 347.12 51.88 347.50 C 49.25 347.88 46.54 347.77 45.12 348.00 C 43.71 348.23 43.71 348.15 43.38 348.88 C 43.04 349.60 42.81 351.08 43.12 352.38 C 43.44 353.67 44.31 355.19 45.25 356.62 C 46.19 358.06 47.35 359.48 48.75 361.00 C 50.15 362.52 51.65 364.15 53.62 365.75 C 55.60 367.35 57.69 368.96 60.62 370.62 C 63.56 372.29 68.88 374.75 71.25 375.75 C 73.62 376.75 73.38 376.46 74.88 376.62 C 76.38 376.79 77.73 377.88 80.25 376.75 C 82.77 375.62 88.23 371.21 90.00 369.88 C 91.77 368.54 90.71 374.56 90.88 368.75 C 91.04 362.94 91.19 340.71 91.00 335.00 Z" id="s-2-f-2"/>
</g>
<g id="s-3" clip-path="url(#c-s-3)">
<use href="#s-3-f-0"/>
<path d="M 139.75 161.88 C 137.19 162.73 138.98 162.81 138.75 163.88 C 138.52 164.94 138.54 167.31 138.38 168.25 C 138.21 169.19 137.92 168.56 137.75 169.50 C 137.58 170.44 137.56 172.77 137.38 173.88 C 137.19 174.98 136.77 175.35 136.62 176.12 C 136.48 176.90 136.46 178.04 136.50 178.50 C 136.54 178.96 135.15 178.83 136.88 178.88 C 138.60 178.92 143.04 179.12 146.88 178.75 C 150.71 178.38 155.50 177.65 159.88 176.62 C 164.25 175.60 169.50 173.90 173.12 172.62 C 176.75 171.35 178.90 169.94 181.62 169.00 C 184.35 168.06 187.98 167.27 189.50 167.00 C 191.02 166.73 190.40 167.08 190.75 167.38 C 191.10 167.67 191.46 167.98 191.62 168.75 C 191.79 169.52 192.19 167.31 191.75 172.00 C 191.31 176.69 189.62 189.56 189.00 196.88 C 188.38 204.19 188.17 206.88 188.00 215.88 C 187.83 224.88 187.83 242.42 188.00 250.88 C 188.17 259.33 188.65 262.44 189.00 266.62 C 189.35 270.81 189.27 270.58 190.12 276.00 C 190.98 281.42 192.29 291.08 194.12 299.12 C 195.96 307.17 198.98 317.58 201.12 324.25 C 203.27 330.92 205.21 335.12 207.00 339.12 C 208.79 343.12 210.21 345.40 211.88 348.25 C 213.54 351.10 214.88 353.29 217.00 356.25 C 219.12 359.21 222.35 363.40 224.62 366.00 C 226.90 368.60 228.21 369.92 230.62 371.88 C 233.04 373.83 237.06 376.44 239.12 377.75 C 241.19 379.06 241.02 378.92 243.00 379.75 C 244.98 380.58 247.92 381.92 251.00 382.75 C 254.08 383.58 257.75 384.42 261.50 384.75 C 265.25 385.08 270.08 385.08 273.50 384.75 C 276.92 384.42 279.73 383.42 282.00 382.75 C 284.27 382.08 285.60 381.46 287.12 380.75 C 288.65 380.04 289.50 379.77 291.12 378.50 C 292.75 377.23 295.42 374.67 296.88 373.12 C 298.33 371.58 299.06 370.50 299.88 369.25 C 300.69 368.00 301.27 366.81 301.75 365.62 C 302.23 364.44 302.58 363.42 302.75 362.12 C 302.92 360.83 303.23 359.42 302.75 357.88 C 302.27 356.33 300.71 354.04 299.88 352.88 C 299.04 351.71 298.81 351.35 297.75 350.88 C 296.69 350.40 298.96 350.65 293.50 350.00 C 288.04 349.35 271.08 347.56 265.00 347.00 C 258.92 346.44 259.38 347.00 257.00 346.62 C 254.62 346.25 253.15 345.88 250.75 344.75 C 248.35 343.62 244.46 341.06 242.62 339.88 C 240.79 338.69 240.90 338.71 239.75 337.62 C 238.60 336.54 237.04 334.94 235.75 333.38 C 234.46 331.81 233.46 330.69 232.00 328.25 C 230.54 325.81 228.33 321.73 227.00 318.75 C 225.67 315.77 225.31 314.77 224.00 310.38 C 222.69 305.98 220.27 297.04 219.12 292.38 C 217.98 287.71 217.81 286.58 217.12 282.38 C 216.44 278.17 215.69 274.35 215.00 267.12 C 214.31 259.90 213.33 245.21 213.00 239.00 C 212.67 232.79 212.85 233.67 213.00 229.88 C 213.15 226.08 213.38 221.19 213.88 216.25 C 214.38 211.31 215.29 204.50 216.00 200.25 C 216.71 196.00 217.44 193.25 218.12 190.75 C 218.81 188.25 219.15 187.48 220.12 185.25 C 221.10 183.02 222.88 179.38 224.00 177.38 C 225.12 175.38 225.77 174.62 226.88 173.25 C 227.98 171.88 228.71 170.81 230.62 169.12 C 232.54 167.44 236.56 164.65 238.38 163.12 C 240.19 161.60 240.75 160.96 241.50 160.00 C 242.25 159.04 242.67 158.15 242.88 157.38 C 243.08 156.60 242.92 156.02 242.75 155.38 C 242.58 154.73 242.65 154.46 241.88 153.50 C 241.10 152.54 239.54 150.88 238.12 149.62 C 236.71 148.38 235.31 147.27 233.38 146.00 C 231.44 144.73 229.94 143.48 226.50 142.00 C 223.06 140.52 215.75 138.12 212.75 137.12 C 209.75 136.12 210.12 136.17 208.50 136.00 C 206.88 135.83 204.33 135.94 203.00 136.12 C 201.67 136.31 203.62 135.35 200.50 137.12 C 197.38 138.90 189.42 144.00 184.25 146.75 C 179.08 149.50 174.52 151.62 169.50 153.62 C 164.48 155.62 159.08 157.38 154.12 158.75 C 149.17 160.12 142.31 161.02 139.75 161.88 Z" id="s-3-f-1"/>
<path d="M 139.75 161.88 C 137.19 162.73 138.98 162.81 138.75 163.88 C 138.52 164.94 138.54 167.31 138.38 168.25 C 138.21 169.19 137.92 168.56 137.75 169.50 C 137.58 170.44 137.56 172.77 137.38 173.88 C 137.19 174.98 136.77 175.35 136.62 176.12 C 136.48 176.90 136.46 178.04 136.50 178.50 C 136.54 178.96 135.15 178.83 136.88 178.88 C 138.60 178.92 143.04 179.12 146.88 178.75 C 150.71 178.38 155.50 177.65 159.88 176.62 C 164.25 175.60 169.50 173.90 173.12 172.62 C 176.75 171.35 178.90 169.94 181.62 169.00 C 184.35 168.06 187.98 167.27 189.50 167.00 C 191.02 166.73 190.40 167.08 190.75 167.38 C 191.10 167.67 191.46 167.98 191.62 168.75 C 191.79 169.52 192.19 167.31 191.75 172.00 C 191.31 176.69 189.62 189.54 189.00 196.88 C 188.38 204.21 188.19 207.85 188.00 216.00 C 187.81 224.15 187.71 237.31 187.88 245.75 C 188.04 254.19 188.46 260.40 189.00 266.62 C 189.54 272.85 190.27 277.71 191.12 283.12 C 191.98 288.54 192.81 293.38 194.12 299.12 C 195.44 304.88 197.48 312.44 199.00 317.62 C 200.52 322.81 201.90 326.62 203.25 330.25 C 204.60 333.88 205.17 335.52 207.12 339.38 C 209.08 343.23 212.31 349.21 215.00 353.38 C 217.69 357.54 220.65 361.29 223.25 364.38 C 225.85 367.46 227.98 369.65 230.62 371.88 C 233.27 374.10 237.06 376.44 239.12 377.75 C 241.19 379.06 241.02 378.92 243.00 379.75 C 244.98 380.58 247.92 381.92 251.00 382.75 C 254.08 383.58 258.38 384.42 261.50 384.75 C 264.62 385.08 268.38 390.90 269.75 384.75 C 271.12 378.60 270.54 354.17 269.75 347.88 C 268.96 341.58 267.12 347.21 265.00 347.00 C 262.88 346.79 259.00 346.85 257.00 346.62 C 255.00 346.40 254.94 346.42 253.00 345.62 C 251.06 344.83 247.58 343.21 245.38 341.88 C 243.17 340.54 241.35 339.04 239.75 337.62 C 238.15 336.21 237.04 334.94 235.75 333.38 C 234.46 331.81 233.46 330.69 232.00 328.25 C 230.54 325.81 228.81 323.40 227.00 318.75 C 225.19 314.10 222.77 306.44 221.12 300.38 C 219.48 294.31 218.15 287.92 217.12 282.38 C 216.10 276.83 215.65 273.48 215.00 267.12 C 214.35 260.77 213.58 250.46 213.25 244.25 C 212.92 238.04 212.88 234.79 213.00 229.88 C 213.12 224.96 213.33 220.67 214.00 214.75 C 214.67 208.83 215.81 199.67 217.00 194.38 C 218.19 189.08 219.96 185.83 221.12 183.00 C 222.29 180.17 223.10 178.92 224.00 177.38 C 224.90 175.83 224.98 175.50 226.50 173.75 C 228.02 172.00 230.92 168.85 233.12 166.88 C 235.33 164.90 238.17 163.29 239.75 161.88 C 241.33 160.46 242.12 159.46 242.62 158.38 C 243.12 157.29 242.88 156.19 242.75 155.38 C 242.62 154.56 242.65 154.46 241.88 153.50 C 241.10 152.54 239.54 150.88 238.12 149.62 C 236.71 148.38 235.31 147.27 233.38 146.00 C 231.44 144.73 229.94 143.48 226.50 142.00 C 223.06 140.52 215.75 138.12 212.75 137.12 C 209.75 136.12 210.12 136.17 208.50 136.00 C 206.88 135.83 204.33 135.94 203.00 136.12 C 201.67 136.31 203.62 135.35 200.50 137.12 C 197.38 138.90 189.42 144.00 184.25 146.75 C 179.08 149.50 174.52 151.62 169.50 153.62 C 164.48 155.62 159.08 157.38 154.12 158.75 C 149.17 160.12 142.31 161.02 139.75 161.88 Z" id="s-3-f-2"/>
<path d="M 203.62 136.00 C 201.88 136.31 201.85 136.21 198.62 138.00 C 195.40 139.79 189.10 144.15 184.25 146.75 C 179.40 149.35 174.52 151.62 169.50 153.62 C 164.48 155.62 159.08 157.38 154.12 158.75 C 149.17 160.12 142.33 160.92 139.75 161.88 C 137.17 162.83 138.83 163.56 138.62 164.50 C 138.42 165.44 138.65 166.67 138.50 167.50 C 138.35 168.33 138.08 167.67 137.75 169.50 C 137.42 171.33 136.65 176.94 136.50 178.50 C 136.35 180.06 135.15 178.83 136.88 178.88 C 138.60 178.92 143.88 178.96 146.88 178.75 C 149.88 178.54 152.12 178.12 154.88 177.62 C 157.62 177.12 160.81 176.42 163.38 175.75 C 165.94 175.08 166.65 174.92 170.25 173.62 C 173.85 172.33 181.73 169.10 185.00 168.00 C 188.27 166.90 188.92 167.10 189.88 167.00 C 190.83 166.90 190.46 167.08 190.75 167.38 C 191.04 167.67 191.46 167.98 191.62 168.75 C 191.79 169.52 192.02 169.29 191.75 172.00 C 191.48 174.71 190.58 178.60 190.00 185.00 C 189.42 191.40 188.60 200.25 188.25 210.38 C 187.90 220.50 187.75 236.38 187.88 245.75 C 188.00 255.12 188.46 260.40 189.00 266.62 C 189.54 272.85 190.44 278.48 191.12 283.12 C 191.81 287.77 191.81 288.75 193.12 294.50 C 194.44 300.25 197.31 311.67 199.00 317.62 C 200.69 323.58 201.92 326.67 203.25 330.25 C 204.58 333.83 205.56 336.12 207.00 339.12 C 208.44 342.12 209.88 344.94 211.88 348.25 C 213.88 351.56 216.69 355.88 219.00 359.00 C 221.31 362.12 223.79 364.94 225.75 367.00 C 227.71 369.06 229.88 370.90 230.75 371.38 C 231.62 371.85 232.29 380.25 231.00 369.88 C 229.71 359.50 224.54 320.50 223.00 309.12 C 221.46 297.75 222.40 304.42 221.75 301.62 C 221.10 298.83 219.90 295.58 219.12 292.38 C 218.35 289.17 217.81 286.58 217.12 282.38 C 216.44 278.17 215.69 274.35 215.00 267.12 C 214.31 259.90 213.31 245.71 213.00 239.00 C 212.69 232.29 212.96 230.92 213.12 226.88 C 213.29 222.83 213.35 220.17 214.00 214.75 C 214.65 209.33 215.98 199.29 217.00 194.38 C 218.02 189.46 218.96 188.08 220.12 185.25 C 221.29 182.42 222.88 179.38 224.00 177.38 C 225.12 175.38 225.77 174.62 226.88 173.25 C 227.98 171.88 228.71 170.81 230.62 169.12 C 232.54 167.44 236.52 164.69 238.38 163.12 C 240.23 161.56 241.02 160.58 241.75 159.75 C 242.48 158.92 242.58 158.85 242.75 158.12 C 242.92 157.40 242.90 156.15 242.75 155.38 C 242.60 154.60 242.77 154.56 241.88 153.50 C 240.98 152.44 238.79 150.25 237.38 149.00 C 235.96 147.75 235.19 147.17 233.38 146.00 C 231.56 144.83 230.54 143.65 226.50 142.00 C 222.46 140.35 212.94 137.12 209.12 136.12 C 205.31 135.12 205.38 135.69 203.62 136.00 Z" id="s-3-f-3"/>
<path d="M 203.62 136.00 C 201.83 136.33 201.60 136.33 198.38 138.12 C 195.15 139.92 189.06 144.17 184.25 146.75 C 179.44 149.33 174.52 151.62 169.50 153.62 C 164.48 155.62 159.08 157.38 154.12 158.75 C 149.17 160.12 142.33 160.92 139.75 161.88 C 137.17 162.83 138.83 163.56 138.62 164.50 C 138.42 165.44 138.65 166.67 138.50 167.50 C 138.35 168.33 138.08 167.67 137.75 169.50 C 137.42 171.33 136.65 176.94 136.50 178.50 C 136.35 180.06 135.15 178.83 136.88 178.88 C 138.60 178.92 143.88 178.96 146.88 178.75 C 149.88 178.54 152.12 178.12 154.88 177.62 C 157.62 177.12 160.81 176.42 163.38 175.75 C 165.94 175.08 166.65 174.92 170.25 173.62 C 173.85 172.33 181.73 169.10 185.00 168.00 C 188.27 166.90 188.92 167.10 189.88 167.00 C 190.83 166.90 190.46 167.08 190.75 167.38 C 191.04 167.67 191.46 167.98 191.62 168.75 C 191.79 169.52 192.00 169.60 191.75 172.00 C 191.50 174.40 190.71 176.73 190.12 183.12 C 189.54 189.52 188.62 199.94 188.25 210.38 C 187.88 220.81 187.75 236.38 187.88 245.75 C 188.00 255.12 188.46 260.40 189.00 266.62 C 189.54 272.85 190.44 278.48 191.12 283.12 C 191.81 287.77 192.29 290.46 193.12 294.50 C 193.96 298.54 194.79 302.42 196.12 307.38 C 197.46 312.33 199.31 318.96 201.12 324.25 C 202.94 329.54 205.21 335.12 207.00 339.12 C 208.79 343.12 210.88 346.60 211.88 348.25 C 212.88 349.90 210.50 348.88 213.00 349.00 C 215.50 349.12 224.38 349.06 226.88 349.00 C 229.38 348.94 228.52 354.44 228.00 348.62 C 227.48 342.81 224.79 321.96 223.75 314.12 C 222.71 306.29 222.52 305.25 221.75 301.62 C 220.98 298.00 219.90 295.58 219.12 292.38 C 218.35 289.17 217.81 286.58 217.12 282.38 C 216.44 278.17 215.69 274.35 215.00 267.12 C 214.31 259.90 213.33 245.21 213.00 239.00 C 212.67 232.79 212.85 233.67 213.00 229.88 C 213.15 226.08 213.21 222.17 213.88 216.25 C 214.54 210.33 215.65 200.23 217.00 194.38 C 218.35 188.52 220.35 184.65 222.00 181.12 C 223.65 177.60 225.02 175.62 226.88 173.25 C 228.73 170.88 230.94 168.81 233.12 166.88 C 235.31 164.94 238.42 163.04 240.00 161.62 C 241.58 160.21 242.15 159.23 242.62 158.38 C 243.10 157.52 243.00 157.31 242.88 156.50 C 242.75 155.69 242.67 154.65 241.88 153.50 C 241.08 152.35 239.54 150.88 238.12 149.62 C 236.71 148.38 235.31 147.27 233.38 146.00 C 231.44 144.73 230.54 143.65 226.50 142.00 C 222.46 140.35 212.94 137.12 209.12 136.12 C 205.31 135.12 205.42 135.67 203.62 136.00 Z" id="s-3-f-4"/>
<path d="M 209.12 136.12 C 205.31 135.12 205.06 135.83 203.62 136.00 C 202.19 136.17 204.25 135.06 200.50 137.12 C 196.75 139.19 187.19 145.29 181.12 148.38 C 175.06 151.46 168.60 153.90 164.12 155.62 C 159.65 157.35 158.31 157.71 154.25 158.75 C 150.19 159.79 142.33 161.02 139.75 161.88 C 137.17 162.73 138.98 162.81 138.75 163.88 C 138.52 164.94 138.54 167.31 138.38 168.25 C 138.21 169.19 138.06 167.79 137.75 169.50 C 137.44 171.21 136.65 176.94 136.50 178.50 C 136.35 180.06 135.62 178.81 136.88 178.88 C 138.12 178.94 141.29 179.04 144.00 178.88 C 146.71 178.71 149.83 178.42 153.12 177.88 C 156.42 177.33 160.42 176.50 163.75 175.62 C 167.08 174.75 170.21 173.71 173.12 172.62 C 176.04 171.54 178.46 170.06 181.25 169.12 C 184.04 168.19 188.21 167.17 189.88 167.00 C 191.54 166.83 190.94 167.73 191.25 168.12 C 191.56 168.52 191.67 168.75 191.75 169.38 C 191.83 170.00 192.21 167.40 191.75 171.88 C 191.29 176.35 189.62 188.90 189.00 196.25 C 188.38 203.60 188.15 206.65 188.00 216.00 C 187.85 225.35 188.00 246.23 188.12 252.38 C 188.25 258.52 184.81 252.77 188.75 252.88 C 192.69 252.98 207.58 253.06 211.75 253.00 C 215.92 252.94 213.54 254.73 213.75 252.50 C 213.96 250.27 213.04 244.83 213.00 239.62 C 212.96 234.42 213.17 226.77 213.50 221.25 C 213.83 215.73 214.42 210.98 215.00 206.50 C 215.58 202.02 216.48 197.02 217.00 194.38 C 217.52 191.73 217.27 192.88 218.12 190.62 C 218.98 188.38 220.60 183.85 222.12 180.88 C 223.65 177.90 225.67 174.88 227.25 172.75 C 228.83 170.62 229.50 169.98 231.62 168.12 C 233.75 166.27 238.15 163.29 240.00 161.62 C 241.85 159.96 242.29 159.17 242.75 158.12 C 243.21 157.08 242.90 156.15 242.75 155.38 C 242.60 154.60 242.65 154.46 241.88 153.50 C 241.10 152.54 239.54 150.88 238.12 149.62 C 236.71 148.38 235.31 147.27 233.38 146.00 C 231.44 144.73 230.54 143.65 226.50 142.00 C 222.46 140.35 212.94 137.12 209.12 136.12 Z" id="s-3-f-5"/>
<path d="M 242.75 155.38 C 242.60 154.60 242.77 154.56 241.88 153.50 C 240.98 152.44 238.79 150.25 237.38 149.00 C 235.96 147.75 235.19 147.17 233.38 146.00 C 231.56 144.83 230.54 143.65 226.50 142.00 C 222.46 140.35 213.04 137.10 209.12 136.12 C 205.21 135.15 204.75 135.81 203.00 136.12 C 201.25 136.44 201.75 136.23 198.62 138.00 C 195.50 139.77 189.00 144.19 184.25 146.75 C 179.50 149.31 175.12 151.38 170.12 153.38 C 165.12 155.38 159.31 157.33 154.25 158.75 C 149.19 160.17 142.35 160.92 139.75 161.88 C 137.15 162.83 138.83 163.56 138.62 164.50 C 138.42 165.44 138.65 166.67 138.50 167.50 C 138.35 168.33 138.08 167.67 137.75 169.50 C 137.42 171.33 136.65 176.94 136.50 178.50 C 136.35 180.06 135.19 178.83 136.88 178.88 C 138.56 178.92 143.02 179.08 146.62 178.75 C 150.23 178.42 154.56 177.73 158.50 176.88 C 162.44 176.02 166.40 174.94 170.25 173.62 C 174.10 172.31 178.29 170.08 181.62 169.00 C 184.96 167.92 188.58 167.17 190.25 167.12 C 191.92 167.08 191.38 167.96 191.62 168.75 C 191.88 169.54 192.02 169.21 191.75 171.88 C 191.48 174.54 190.50 179.35 190.00 184.75 C 189.50 190.15 188.92 200.94 188.75 204.25 C 188.58 207.56 187.67 204.50 189.00 204.62 C 190.33 204.75 192.44 204.96 196.75 205.00 C 201.06 205.04 211.73 205.06 214.88 204.88 C 218.02 204.69 215.27 205.62 215.62 203.88 C 215.98 202.12 216.25 197.48 217.00 194.38 C 217.75 191.27 218.96 188.08 220.12 185.25 C 221.29 182.42 222.81 179.46 224.00 177.38 C 225.19 175.29 225.98 174.29 227.25 172.75 C 228.52 171.21 229.85 169.67 231.62 168.12 C 233.40 166.58 236.29 164.79 237.88 163.50 C 239.46 162.21 240.31 161.27 241.12 160.38 C 241.94 159.48 242.48 158.96 242.75 158.12 C 243.02 157.29 242.90 156.15 242.75 155.38 Z" id="s-3-f-6"/>
<path d="M 242.75 155.38 C 242.62 154.81 242.77 154.56 241.88 153.50 C 240.98 152.44 238.79 150.25 237.38 149.00 C 235.96 147.75 235.19 147.17 233.38 146.00 C 231.56 144.83 230.54 143.65 226.50 142.00 C 222.46 140.35 213.04 137.10 209.12 136.12 C 205.21 135.15 204.75 135.81 203.00 136.12 C 201.25 136.44 201.75 136.23 198.62 138.00 C 195.50 139.77 189.10 144.15 184.25 146.75 C 179.40 149.35 174.35 151.67 169.50 153.62 C 164.65 155.58 160.08 157.12 155.12 158.50 C 150.17 159.88 142.50 160.88 139.75 161.88 C 137.00 162.88 138.83 163.56 138.62 164.50 C 138.42 165.44 138.65 166.67 138.50 167.50 C 138.35 168.33 138.08 167.67 137.75 169.50 C 137.42 171.33 136.65 176.94 136.50 178.50 C 136.35 180.06 135.17 178.83 136.88 178.88 C 138.58 178.92 143.02 179.10 146.75 178.75 C 150.48 178.40 155.33 177.60 159.25 176.75 C 163.17 175.90 165.96 175.08 170.25 173.62 C 174.54 172.17 173.31 170.65 185.00 168.00 C 196.69 165.35 230.77 159.60 240.38 157.75 C 249.98 155.90 242.23 157.27 242.62 156.88 C 243.02 156.48 242.88 155.94 242.75 155.38 Z" id="s-3-f-7"/>
<path d="M 232.88 146.12 C 232.67 143.98 232.81 145.69 231.75 145.00 C 230.69 144.31 229.67 143.31 226.50 142.00 C 223.33 140.69 215.75 138.12 212.75 137.12 C 209.75 136.12 210.12 136.17 208.50 136.00 C 206.88 135.83 204.65 135.79 203.00 136.12 C 201.35 136.46 201.75 136.23 198.62 138.00 C 195.50 139.77 189.00 144.19 184.25 146.75 C 179.50 149.31 174.98 151.42 170.12 153.38 C 165.27 155.33 160.19 157.08 155.12 158.50 C 150.06 159.92 142.50 160.88 139.75 161.88 C 137.00 162.88 138.83 163.56 138.62 164.50 C 138.42 165.44 138.65 166.67 138.50 167.50 C 138.35 168.33 138.08 167.67 137.75 169.50 C 137.42 171.33 136.65 176.94 136.50 178.50 C 136.35 180.06 134.92 178.85 136.88 178.88 C 138.83 178.90 144.52 178.98 148.25 178.62 C 151.98 178.27 155.58 177.58 159.25 176.75 C 162.92 175.92 166.58 174.90 170.25 173.62 C 173.92 172.35 178.29 170.19 181.25 169.12 C 184.21 168.06 186.21 167.62 188.00 167.25 C 189.79 166.88 184.58 168.25 192.00 166.88 C 199.42 165.50 225.67 160.50 232.50 159.00 C 239.33 157.50 232.94 160.02 233.00 157.88 C 233.06 155.73 233.08 148.27 232.88 146.12 Z" id="s-3-f-8"/>
<path d="M 184.75 146.88 C 184.50 143.42 184.92 146.23 183.50 146.88 C 182.08 147.52 179.48 149.29 176.25 150.75 C 173.02 152.21 167.79 154.29 164.12 155.62 C 160.46 156.96 158.31 157.71 154.25 158.75 C 150.19 159.79 142.35 160.92 139.75 161.88 C 137.15 162.83 138.85 163.44 138.62 164.50 C 138.40 165.56 138.52 167.42 138.38 168.25 C 138.23 169.08 137.92 168.56 137.75 169.50 C 137.58 170.44 137.56 172.77 137.38 173.88 C 137.19 174.98 136.75 175.35 136.62 176.12 C 136.50 176.90 136.25 178.04 136.62 178.50 C 137.00 178.96 136.94 178.85 138.88 178.88 C 140.81 178.90 144.85 178.98 148.25 178.62 C 151.65 178.27 155.58 177.58 159.25 176.75 C 162.92 175.92 166.58 174.90 170.25 173.62 C 173.92 172.35 178.90 170.00 181.25 169.12 C 183.60 168.25 183.75 168.62 184.38 168.38 C 185.00 168.12 184.94 171.21 185.00 167.62 C 185.06 164.04 185.00 150.33 184.75 146.88 Z" id="s-3-f-9"/>
</g>
<g id="s-4" clip-path="url(#c-s-4)">
<use href="#s-4-f-0"/>
</g>
<g id="s-5" clip-path="url(#c-s-5)">
<use href="#s-5-f-0"/>
<path d="M 455.88 63.25 C 455.88 62.35 456.00 62.50 455.62 61.62 C 455.25 60.75 454.50 59.10 453.62 58.00 C 452.75 56.90 453.27 56.67 450.38 55.00 C 447.48 53.33 440.29 49.83 436.25 48.00 C 432.21 46.17 429.19 45.00 426.12 44.00 C 423.06 43.00 420.06 42.35 417.88 42.00 C 415.69 41.65 414.58 41.71 413.00 41.88 C 411.42 42.04 410.38 42.21 408.38 43.00 C 406.38 43.79 405.62 44.69 401.00 46.62 C 396.38 48.56 388.19 51.96 380.62 54.62 C 373.06 57.29 362.50 60.60 355.62 62.62 C 348.75 64.65 342.15 65.92 339.38 66.75 C 336.60 67.58 338.08 65.65 339.00 67.62 C 339.92 69.60 343.58 76.60 344.88 78.62 C 346.17 80.65 344.21 79.92 346.75 79.75 C 349.29 79.58 355.21 78.75 360.12 77.62 C 365.04 76.50 371.60 74.15 376.25 73.00 C 380.90 71.85 385.65 71.27 388.00 70.75 C 390.35 70.23 388.25 70.17 390.38 69.88 C 392.50 69.58 398.42 68.96 400.75 69.00 C 403.08 69.04 403.56 69.75 404.38 70.12 C 405.19 70.50 405.23 70.67 405.62 71.25 C 406.02 71.83 406.62 72.40 406.75 73.62 C 406.88 74.85 406.71 76.46 406.38 78.62 C 406.04 80.79 406.29 81.23 404.75 86.62 C 403.21 92.02 398.38 106.62 397.12 111.00 C 395.88 115.38 393.12 112.54 397.25 112.88 C 401.38 113.21 417.46 113.27 421.88 113.00 C 426.29 112.73 422.42 113.04 423.75 111.25 C 425.08 109.46 428.19 104.90 429.88 102.25 C 431.56 99.60 432.38 97.67 433.88 95.38 C 435.38 93.08 436.92 90.98 438.88 88.50 C 440.83 86.02 443.29 83.08 445.62 80.50 C 447.96 77.92 451.21 75.25 452.88 73.00 C 454.54 70.75 455.12 68.62 455.62 67.00 C 456.12 65.38 455.88 64.15 455.88 63.25 Z" id="s-5-f-1"/>
<path d="M 455.88 63.12 C 455.65 62.23 455.10 60.21 454.50 59.12 C 453.90 58.04 453.21 57.48 452.25 56.62 C 451.29 55.77 451.42 55.44 448.75 54.00 C 446.08 52.56 440.02 49.67 436.25 48.00 C 432.48 46.33 429.19 45.00 426.12 44.00 C 423.06 43.00 420.06 42.35 417.88 42.00 C 415.69 41.65 414.58 41.71 413.00 41.88 C 411.42 42.04 411.19 41.88 408.38 43.00 C 405.56 44.12 401.79 46.33 396.12 48.62 C 390.46 50.92 381.23 54.40 374.38 56.75 C 367.52 59.10 360.83 61.08 355.00 62.75 C 349.17 64.42 342.04 65.94 339.38 66.75 C 336.71 67.56 338.02 65.56 339.00 67.62 C 339.98 69.69 344.08 77.12 345.25 79.12 C 346.42 81.12 345.46 79.52 346.00 79.62 C 346.54 79.73 346.15 80.08 348.50 79.75 C 350.85 79.42 355.50 78.75 360.12 77.62 C 364.75 76.50 371.21 74.29 376.25 73.00 C 381.29 71.71 386.90 70.54 390.38 69.88 C 393.85 69.21 394.65 69.17 397.12 69.00 C 399.60 68.83 395.60 69.52 405.25 68.88 C 414.90 68.23 446.56 65.85 455.00 65.12 C 463.44 64.40 455.73 64.83 455.88 64.50 C 456.02 64.17 456.10 64.02 455.88 63.12 Z" id="s-5-f-2"/>
<path d="M 435.00 48.25 C 434.83 45.04 435.88 47.88 433.88 47.00 C 431.88 46.12 425.67 43.83 423.00 43.00 C 420.33 42.17 419.81 42.17 417.88 42.00 C 415.94 41.83 416.67 40.23 411.38 42.00 C 406.08 43.77 394.96 49.33 386.12 52.62 C 377.29 55.92 366.17 59.40 358.38 61.75 C 350.58 64.10 342.60 65.77 339.38 66.75 C 336.15 67.73 338.02 65.56 339.00 67.62 C 339.98 69.69 344.08 77.12 345.25 79.12 C 346.42 81.12 345.46 79.52 346.00 79.62 C 346.54 79.73 346.15 80.08 348.50 79.75 C 350.85 79.42 356.15 78.58 360.12 77.62 C 364.10 76.67 367.48 75.27 372.38 74.00 C 377.27 72.73 385.38 70.83 389.50 70.00 C 393.62 69.17 394.50 69.19 397.12 69.00 C 399.75 68.81 399.04 69.25 405.25 68.88 C 411.46 68.50 429.44 67.19 434.38 66.75 C 439.31 66.31 434.77 69.33 434.88 66.25 C 434.98 63.17 435.17 51.46 435.00 48.25 Z" id="s-5-f-3"/>
<path d="M 386.75 52.88 C 386.58 50.15 388.06 51.85 386.00 52.50 C 383.94 53.15 379.46 55.06 374.38 56.75 C 369.29 58.44 361.02 61.08 355.50 62.62 C 349.98 64.17 343.94 65.31 341.25 66.00 C 338.56 66.69 339.75 66.48 339.38 66.75 C 339.00 67.02 338.08 65.65 339.00 67.62 C 339.92 69.60 343.77 76.65 344.88 78.62 C 345.98 80.60 345.31 79.31 345.62 79.50 C 345.94 79.69 344.33 80.06 346.75 79.75 C 349.17 79.44 355.85 78.58 360.12 77.62 C 364.40 76.67 367.98 75.15 372.38 74.00 C 376.77 72.85 384.06 71.60 386.50 70.75 C 388.94 69.90 386.96 71.85 387.00 68.88 C 387.04 65.90 386.92 55.60 386.75 52.88 Z" id="s-5-f-4"/>
</g>
<g id="s-6" clip-path="url(#c-s-6)">
<use href="#s-6-f-0"/>
<path d="M 395.50 152.50 C 395.06 152.65 394.42 153.19 393.75 153.38 C 393.08 153.56 392.04 153.46 391.50 153.62 C 390.96 153.79 391.69 154.04 390.50 154.38 C 389.31 154.71 385.62 155.21 384.38 155.62 C 383.12 156.04 383.23 156.35 383.00 156.88 C 382.77 157.40 382.67 157.77 383.00 158.75 C 383.33 159.73 383.50 160.65 385.00 162.75 C 386.50 164.85 389.54 167.96 392.00 171.38 C 394.46 174.79 397.46 179.40 399.75 183.25 C 402.04 187.10 403.75 190.33 405.75 194.50 C 407.75 198.67 409.92 203.38 411.75 208.25 C 413.58 213.12 415.42 219.04 416.75 223.75 C 418.08 228.46 418.98 232.54 419.75 236.50 C 420.52 240.46 421.06 243.69 421.38 247.50 C 421.69 251.31 421.79 256.81 421.62 259.38 C 421.46 261.94 420.94 261.90 420.38 262.88 C 419.81 263.85 419.02 264.60 418.25 265.25 C 417.48 265.90 416.94 266.33 415.75 266.75 C 414.56 267.17 412.65 267.58 411.12 267.75 C 409.60 267.92 408.58 267.94 406.62 267.75 C 404.67 267.56 404.44 267.79 399.38 266.62 C 394.31 265.46 380.19 261.60 376.25 260.75 C 372.31 259.90 375.81 260.21 375.75 261.50 C 375.69 262.79 373.10 265.06 375.88 268.50 C 378.65 271.94 387.46 277.92 392.38 282.12 C 397.29 286.33 401.17 289.73 405.38 293.75 C 409.58 297.77 414.71 302.98 417.62 306.25 C 420.54 309.52 421.46 311.62 422.88 313.38 C 424.29 315.12 425.04 315.88 426.12 316.75 C 427.21 317.62 428.10 318.29 429.38 318.62 C 430.65 318.96 432.23 319.29 433.75 318.75 C 435.27 318.21 437.00 316.79 438.50 315.38 C 440.00 313.96 441.21 312.42 442.75 310.25 C 444.29 308.08 446.27 304.92 447.75 302.38 C 449.23 299.83 450.46 297.88 451.62 295.00 C 452.79 292.12 454.04 288.35 454.75 285.12 C 455.46 281.90 455.71 279.77 455.88 275.62 C 456.04 271.48 456.00 265.25 455.75 260.25 C 455.50 255.25 455.06 250.52 454.38 245.62 C 453.69 240.73 452.56 235.02 451.62 230.88 C 450.69 226.73 450.06 224.54 448.75 220.75 C 447.44 216.96 445.56 212.02 443.75 208.12 C 441.94 204.23 440.04 201.00 437.88 197.38 C 435.71 193.75 433.10 189.69 430.75 186.38 C 428.40 183.06 426.33 180.46 423.75 177.50 C 421.17 174.54 418.10 171.38 415.25 168.62 C 412.40 165.88 409.46 163.27 406.62 161.00 C 403.79 158.73 399.96 156.42 398.25 155.00 C 396.54 153.58 396.83 152.92 396.38 152.50 C 395.92 152.08 395.94 152.35 395.50 152.50 Z" id="s-6-f-1"/>
<path d="M 395.50 152.50 C 395.06 152.65 394.42 153.19 393.75 153.38 C 393.08 153.56 392.04 153.46 391.50 153.62 C 390.96 153.79 391.73 154.04 390.50 154.38 C 389.27 154.71 385.38 155.21 384.12 155.62 C 382.88 156.04 383.19 156.35 383.00 156.88 C 382.81 157.40 382.67 157.77 383.00 158.75 C 383.33 159.73 383.02 159.96 385.00 162.75 C 386.98 165.54 391.92 171.21 394.88 175.50 C 397.83 179.79 400.44 184.27 402.75 188.50 C 405.06 192.73 406.92 196.71 408.75 200.88 C 410.58 205.04 412.25 209.06 413.75 213.50 C 415.25 217.94 416.75 223.67 417.75 227.50 C 418.75 231.33 419.10 232.65 419.75 236.50 C 420.40 240.35 421.27 243.15 421.62 250.62 C 421.98 258.10 421.67 271.00 421.88 281.38 C 422.08 291.75 421.96 306.81 422.88 312.88 C 423.79 318.94 426.23 316.77 427.38 317.75 C 428.52 318.73 428.69 318.58 429.75 318.75 C 430.81 318.92 432.29 319.31 433.75 318.75 C 435.21 318.19 437.00 316.79 438.50 315.38 C 440.00 313.96 441.21 312.42 442.75 310.25 C 444.29 308.08 446.27 304.92 447.75 302.38 C 449.23 299.83 450.48 297.77 451.62 295.00 C 452.77 292.23 453.96 288.38 454.62 285.75 C 455.29 283.12 455.44 283.50 455.62 279.25 C 455.81 275.00 455.96 265.85 455.75 260.25 C 455.54 254.65 455.06 250.52 454.38 245.62 C 453.69 240.73 452.58 235.06 451.62 230.88 C 450.67 226.69 449.94 224.29 448.62 220.50 C 447.31 216.71 445.54 211.98 443.75 208.12 C 441.96 204.27 440.08 201.04 437.88 197.38 C 435.67 193.71 433.17 189.79 430.50 186.12 C 427.83 182.46 424.85 178.71 421.88 175.38 C 418.90 172.04 415.44 168.73 412.62 166.12 C 409.81 163.52 407.42 161.62 405.00 159.75 C 402.58 157.88 399.56 156.08 398.12 154.88 C 396.69 153.67 396.81 152.90 396.38 152.50 C 395.94 152.10 395.94 152.35 395.50 152.50 Z" id="s-6-f-2"/>
<path d="M 384.38 155.62 C 383.75 155.88 383.23 156.35 383.00 156.88 C 382.77 157.40 382.85 158.08 383.00 158.75 C 383.15 159.42 382.10 158.40 383.88 160.88 C 385.65 163.35 390.48 169.02 393.62 173.62 C 396.77 178.23 400.23 183.96 402.75 188.50 C 405.27 193.04 407.25 197.58 408.75 200.88 C 410.25 204.17 410.42 204.44 411.75 208.25 C 413.08 212.06 415.29 218.35 416.75 223.75 C 418.21 229.15 419.69 236.15 420.50 240.62 C 421.31 245.10 421.40 243.83 421.62 250.62 C 421.85 257.42 421.73 273.71 421.88 281.38 C 422.02 289.04 422.04 294.02 422.50 296.62 C 422.96 299.23 419.98 296.96 424.62 297.00 C 429.27 297.04 445.90 297.17 450.38 296.88 C 454.85 296.58 450.94 296.54 451.50 295.25 C 452.06 293.96 453.10 291.48 453.75 289.12 C 454.40 286.77 455.02 283.81 455.38 281.12 C 455.73 278.44 455.81 276.48 455.88 273.00 C 455.94 269.52 456.00 264.81 455.75 260.25 C 455.50 255.69 455.06 250.52 454.38 245.62 C 453.69 240.73 452.73 235.50 451.62 230.88 C 450.52 226.25 449.06 221.67 447.75 217.88 C 446.44 214.08 445.75 212.12 443.75 208.12 C 441.75 204.12 438.15 197.79 435.75 193.88 C 433.35 189.96 432.04 188.08 429.38 184.62 C 426.71 181.17 422.79 176.44 419.75 173.12 C 416.71 169.81 414.73 167.79 411.12 164.75 C 407.52 161.71 400.58 156.92 398.12 154.88 C 395.67 152.83 397.48 152.71 396.38 152.50 C 395.27 152.29 392.48 153.31 391.50 153.62 C 390.52 153.94 391.06 154.21 390.50 154.38 C 389.94 154.54 388.75 154.46 388.12 154.62 C 387.50 154.79 387.38 155.21 386.75 155.38 C 386.12 155.54 385.00 155.38 384.38 155.62 Z" id="s-6-f-3"/>
<path d="M 383.62 156.00 C 381.38 156.92 382.81 157.15 382.88 158.00 C 382.94 158.85 382.56 159.02 384.00 161.12 C 385.44 163.23 389.06 167.27 391.50 170.62 C 393.94 173.98 396.75 178.27 398.62 181.25 C 400.50 184.23 400.73 184.42 402.75 188.50 C 404.77 192.58 408.92 201.56 410.75 205.75 C 412.58 209.94 412.58 210.00 413.75 213.62 C 414.92 217.25 416.62 223.00 417.75 227.50 C 418.88 232.00 419.92 237.12 420.50 240.62 C 421.08 244.12 420.67 247.10 421.25 248.50 C 421.83 249.90 418.85 248.92 424.00 249.00 C 429.15 249.08 447.04 249.06 452.12 249.00 C 457.21 248.94 454.23 249.85 454.50 248.62 C 454.77 247.40 454.23 244.58 453.75 241.62 C 453.27 238.67 452.79 235.29 451.62 230.88 C 450.46 226.46 448.06 218.92 446.75 215.12 C 445.44 211.33 445.08 210.83 443.75 208.12 C 442.42 205.42 441.21 202.88 438.75 198.88 C 436.29 194.88 431.54 187.73 429.00 184.12 C 426.46 180.52 426.06 180.10 423.50 177.25 C 420.94 174.40 416.71 169.92 413.62 167.00 C 410.54 164.08 407.58 161.77 405.00 159.75 C 402.42 157.73 399.56 156.08 398.12 154.88 C 396.69 153.67 398.79 152.31 396.38 152.50 C 393.96 152.69 385.88 155.08 383.62 156.00 Z" id="s-6-f-4"/>
<path d="M 383.38 156.25 C 383.12 156.65 382.77 157.19 382.88 158.00 C 382.98 158.81 382.54 158.98 384.00 161.12 C 385.46 163.27 389.19 167.52 391.62 170.88 C 394.06 174.23 396.79 178.35 398.62 181.25 C 400.46 184.15 400.98 185.02 402.62 188.25 C 404.27 191.48 407.42 198.50 408.50 200.62 C 409.58 202.75 404.35 200.94 409.12 201.00 C 413.90 201.06 432.06 201.06 437.12 201.00 C 442.19 200.94 440.06 202.33 439.50 200.62 C 438.94 198.92 436.38 194.60 433.75 190.75 C 431.12 186.90 427.10 181.46 423.75 177.50 C 420.40 173.54 416.75 169.96 413.62 167.00 C 410.50 164.04 407.58 161.77 405.00 159.75 C 402.42 157.73 399.56 156.08 398.12 154.88 C 396.69 153.67 397.48 152.71 396.38 152.50 C 395.27 152.29 392.48 153.31 391.50 153.62 C 390.52 153.94 391.06 154.21 390.50 154.38 C 389.94 154.54 388.75 154.46 388.12 154.62 C 387.50 154.79 387.38 155.21 386.75 155.38 C 386.12 155.54 384.94 155.48 384.38 155.62 C 383.81 155.77 383.62 155.85 383.38 156.25 Z" id="s-6-f-5"/>
</g>
<g id="s-7" clip-path="url(#c-s-7)">
<use href="#s-7-f-0"/>
<path d="M 311.38 57.00 C 310.21 57.15 309.42 57.44 308.50 57.88 C 307.58 58.31 306.46 59.04 305.88 59.62 C 305.29 60.21 305.15 60.48 305.00 61.38 C 304.85 62.27 304.38 62.15 305.00 65.00 C 305.62 67.85 307.94 75.00 308.75 78.50 C 309.56 82.00 309.54 82.42 309.88 86.00 C 310.21 89.58 310.58 51.02 310.75 100.00 C 310.92 148.98 310.67 325.04 310.88 379.88 C 311.08 434.71 311.69 419.04 312.00 429.00 C 312.31 438.96 312.54 437.65 312.75 439.62 C 312.96 441.60 311.33 440.67 313.25 440.88 C 315.17 441.08 321.65 440.94 324.25 440.88 C 326.85 440.81 327.79 441.46 328.88 440.50 C 329.96 439.54 330.00 439.98 330.75 435.12 C 331.50 430.27 332.54 421.12 333.38 411.38 C 334.21 401.62 335.17 388.12 335.75 376.62 C 336.33 365.12 336.33 382.96 336.88 342.38 C 337.42 301.79 338.29 172.96 339.00 133.12 C 339.71 93.29 340.48 110.69 341.12 103.38 C 341.77 96.06 342.00 93.27 342.88 89.25 C 343.75 85.23 346.31 81.77 346.38 79.25 C 346.44 76.73 343.77 75.25 343.25 74.12 C 342.73 73.00 343.40 72.79 343.25 72.50 C 343.10 72.21 342.92 73.23 342.38 72.38 C 341.83 71.52 341.00 68.62 340.00 67.38 C 339.00 66.12 338.00 65.77 336.38 64.88 C 334.75 63.98 332.98 63.12 330.25 62.00 C 327.52 60.88 322.46 58.96 320.00 58.12 C 317.54 57.29 316.94 57.19 315.50 57.00 C 314.06 56.81 312.54 56.85 311.38 57.00 Z" id="s-7-f-1"/>
<path d="M 311.38 57.00 C 309.90 57.31 307.69 58.15 306.62 58.88 C 305.56 59.60 305.23 60.15 305.00 61.38 C 304.77 62.60 304.79 64.10 305.25 66.25 C 305.71 68.40 307.00 71.15 307.75 74.25 C 308.50 77.35 309.25 80.58 309.75 84.88 C 310.25 89.17 310.54 48.92 310.75 100.00 C 310.96 151.08 310.92 342.58 311.00 391.38 C 311.08 440.17 310.92 392.48 311.25 392.75 C 311.58 393.02 309.17 392.98 313.00 393.00 C 316.83 393.02 330.62 392.98 334.25 392.88 C 337.88 392.77 334.33 399.69 334.75 392.38 C 335.17 385.06 336.04 392.21 336.75 349.00 C 337.46 305.79 338.46 171.88 339.00 133.12 C 339.54 94.38 339.35 123.81 340.00 116.50 C 340.65 109.19 341.81 95.46 342.88 89.25 C 343.94 83.04 346.31 81.77 346.38 79.25 C 346.44 76.73 343.77 75.25 343.25 74.12 C 342.73 73.00 343.40 72.79 343.25 72.50 C 343.10 72.21 342.92 73.23 342.38 72.38 C 341.83 71.52 341.00 68.62 340.00 67.38 C 339.00 66.12 338.00 65.77 336.38 64.88 C 334.75 63.98 332.98 63.12 330.25 62.00 C 327.52 60.88 322.46 58.96 320.00 58.12 C 317.54 57.29 316.94 57.19 315.50 57.00 C 314.06 56.81 312.85 56.69 311.38 57.00 Z" id="s-7-f-2"/>
<path d="M 311.38 57.00 C 309.90 57.31 307.69 58.15 306.62 58.88 C 305.56 59.60 305.23 60.15 305.00 61.38 C 304.77 62.60 304.79 64.10 305.25 66.25 C 305.71 68.40 307.00 71.15 307.75 74.25 C 308.50 77.35 309.25 80.58 309.75 84.88 C 310.25 89.17 310.54 56.77 310.75 100.00 C 310.96 143.23 310.90 303.42 311.00 344.25 C 311.10 385.08 307.42 344.90 311.38 345.00 C 315.33 345.10 330.60 344.94 334.75 344.88 C 338.90 344.81 335.90 345.21 336.25 344.62 C 336.60 344.04 336.42 376.62 336.88 341.38 C 337.33 306.12 338.48 170.60 339.00 133.12 C 339.52 95.65 339.35 123.81 340.00 116.50 C 340.65 109.19 341.81 95.46 342.88 89.25 C 343.94 83.04 346.31 81.77 346.38 79.25 C 346.44 76.73 343.77 75.25 343.25 74.12 C 342.73 73.00 343.40 72.79 343.25 72.50 C 343.10 72.21 342.92 73.23 342.38 72.38 C 341.83 71.52 341.00 68.62 340.00 67.38 C 339.00 66.12 338.00 65.77 336.38 64.88 C 334.75 63.98 332.98 63.12 330.25 62.00 C 327.52 60.88 322.46 58.96 320.00 58.12 C 317.54 57.29 316.94 57.19 315.50 57.00 C 314.06 56.81 312.85 56.69 311.38 57.00 Z" id="s-7-f-3"/>
<path d="M 311.38 57.00 C 309.90 57.31 307.69 58.15 306.62 58.88 C 305.56 59.60 305.23 60.15 305.00 61.38 C 304.77 62.60 304.96 64.75 305.25 66.25 C 305.54 67.75 306.17 68.31 306.75 70.38 C 307.33 72.44 308.10 74.52 308.75 78.62 C 309.40 82.73 310.25 58.69 310.62 95.00 C 311.00 131.31 310.88 262.83 311.00 296.50 C 311.12 330.17 307.06 296.94 311.38 297.00 C 315.69 297.06 332.52 296.98 336.88 296.88 C 341.23 296.77 337.15 323.67 337.50 296.38 C 337.85 269.08 338.58 163.10 339.00 133.12 C 339.42 103.15 339.35 123.81 340.00 116.50 C 340.65 109.19 341.81 95.46 342.88 89.25 C 343.94 83.04 346.31 81.77 346.38 79.25 C 346.44 76.73 343.77 75.25 343.25 74.12 C 342.73 73.00 343.40 72.79 343.25 72.50 C 343.10 72.21 342.92 73.23 342.38 72.38 C 341.83 71.52 341.00 68.62 340.00 67.38 C 339.00 66.12 338.00 65.77 336.38 64.88 C 334.75 63.98 332.98 63.12 330.25 62.00 C 327.52 60.88 322.46 58.96 320.00 58.12 C 317.54 57.29 316.94 57.19 315.50 57.00 C 314.06 56.81 312.85 56.69 311.38 57.00 Z" id="s-7-f-4"/>
<path d="M 311.38 57.00 C 309.90 57.31 307.69 58.15 306.62 58.88 C 305.56 59.60 305.25 60.23 305.00 61.38 C 304.75 62.52 304.50 62.90 305.12 65.75 C 305.75 68.60 307.83 73.62 308.75 78.50 C 309.67 83.38 310.25 66.67 310.62 95.00 C 311.00 123.33 310.88 222.83 311.00 248.50 C 311.12 274.17 306.98 248.94 311.38 249.00 C 315.77 249.06 332.96 249.00 337.38 248.88 C 341.79 248.75 337.58 267.90 337.88 248.25 C 338.17 228.60 338.60 154.83 339.12 131.00 C 339.65 107.17 340.38 112.21 341.00 105.25 C 341.62 98.29 341.98 93.58 342.88 89.25 C 343.77 84.92 346.31 81.77 346.38 79.25 C 346.44 76.73 343.77 75.25 343.25 74.12 C 342.73 73.00 343.40 72.79 343.25 72.50 C 343.10 72.21 342.92 73.23 342.38 72.38 C 341.83 71.52 341.00 68.62 340.00 67.38 C 339.00 66.12 337.90 65.73 336.38 64.88 C 334.85 64.02 333.60 63.38 330.88 62.25 C 328.15 61.12 322.56 59.00 320.00 58.12 C 317.44 57.25 316.94 57.19 315.50 57.00 C 314.06 56.81 312.85 56.69 311.38 57.00 Z" id="s-7-f-5"/>
<path d="M 310.62 57.12 C 309.38 57.31 308.79 57.71 308.00 58.12 C 307.21 58.54 306.38 59.08 305.88 59.62 C 305.38 60.17 305.15 60.48 305.00 61.38 C 304.85 62.27 304.38 62.15 305.00 65.00 C 305.62 67.85 307.81 73.69 308.75 78.50 C 309.69 83.31 310.25 73.56 310.62 93.88 C 311.00 114.19 310.88 182.52 311.00 200.38 C 311.12 218.23 306.90 200.92 311.38 201.00 C 315.85 201.08 333.38 200.98 337.88 200.88 C 342.38 200.77 338.19 211.54 338.38 200.38 C 338.56 189.21 338.73 147.85 339.00 133.88 C 339.27 119.90 339.35 123.96 340.00 116.50 C 340.65 109.04 341.81 95.31 342.88 89.12 C 343.94 82.94 345.81 81.15 346.38 79.38 C 346.94 77.60 346.58 79.02 346.25 78.50 C 345.92 77.98 344.88 76.98 344.38 76.25 C 343.88 75.52 343.44 74.75 343.25 74.12 C 343.06 73.50 343.40 72.79 343.25 72.50 C 343.10 72.21 342.92 73.23 342.38 72.38 C 341.83 71.52 341.00 68.62 340.00 67.38 C 339.00 66.12 337.90 65.73 336.38 64.88 C 334.85 64.02 333.60 63.38 330.88 62.25 C 328.15 61.12 322.56 59.00 320.00 58.12 C 317.44 57.25 317.06 57.17 315.50 57.00 C 313.94 56.83 311.88 56.94 310.62 57.12 Z" id="s-7-f-6"/>
<path d="M 310.62 57.12 C 309.38 57.31 308.79 57.71 308.00 58.12 C 307.21 58.54 306.38 59.10 305.88 59.62 C 305.38 60.15 305.17 60.60 305.00 61.25 C 304.83 61.90 304.25 60.62 304.88 63.50 C 305.50 66.38 307.79 73.44 308.75 78.50 C 309.71 83.56 310.25 81.52 310.62 93.88 C 311.00 106.23 310.88 142.77 311.00 152.62 C 311.12 162.48 308.12 152.94 311.38 153.00 C 314.62 153.06 325.96 153.08 330.50 153.00 C 335.04 152.92 337.19 156.17 338.62 152.50 C 340.06 148.83 338.73 138.88 339.12 131.00 C 339.52 123.12 340.38 112.23 341.00 105.25 C 341.62 98.27 341.98 93.44 342.88 89.12 C 343.77 84.81 345.81 81.15 346.38 79.38 C 346.94 77.60 346.58 79.02 346.25 78.50 C 345.92 77.98 344.88 76.98 344.38 76.25 C 343.88 75.52 343.44 74.75 343.25 74.12 C 343.06 73.50 343.40 72.79 343.25 72.50 C 343.10 72.21 342.92 73.23 342.38 72.38 C 341.83 71.52 341.00 68.62 340.00 67.38 C 339.00 66.12 338.00 65.77 336.38 64.88 C 334.75 63.98 332.98 63.12 330.25 62.00 C 327.52 60.88 322.46 58.96 320.00 58.12 C 317.54 57.29 317.06 57.17 315.50 57.00 C 313.94 56.83 311.88 56.94 310.62 57.12 Z" id="s-7-f-7"/>
<path d="M 306.75 58.88 C 305.81 59.56 305.29 60.23 305.00 61.25 C 304.71 62.27 304.54 62.83 305.00 65.00 C 305.46 67.17 306.96 70.94 307.75 74.25 C 308.54 77.56 309.19 79.81 309.75 84.88 C 310.31 89.94 309.42 101.27 311.12 104.62 C 312.83 107.98 315.04 104.98 320.00 105.00 C 324.96 105.02 337.04 107.50 340.88 104.75 C 344.71 102.00 342.08 92.75 343.00 88.50 C 343.92 84.25 346.33 81.65 346.38 79.25 C 346.42 76.85 343.77 75.25 343.25 74.12 C 342.73 73.00 343.40 72.83 343.25 72.50 C 343.10 72.17 342.92 72.98 342.38 72.12 C 341.83 71.27 341.58 68.88 340.00 67.38 C 338.42 65.88 335.71 64.50 332.88 63.12 C 330.04 61.75 325.77 60.12 323.00 59.12 C 320.23 58.12 318.31 57.46 316.25 57.12 C 314.19 56.79 312.21 56.83 310.62 57.12 C 309.04 57.42 307.69 58.19 306.75 58.88 Z" id="s-7-f-8"/>
</g>
</svg>