<?xml version="1.0" encoding="UTF-8"?>
<svg xmlns="http://www.w3.org/2000/svg" viewBox="0 0 500 500">
<defs>
<path d="M 140.25 59.00 C 138.12 57.54 135.85 56.56 134.25 55.88 C 132.65 55.19 131.92 54.98 130.62 54.88 C 129.33 54.77 127.77 54.67 126.50 55.25 C 125.23 55.83 123.75 57.35 123.00 58.38 C 122.25 59.40 122.23 59.17 122.00 61.38 C 121.77 63.58 122.02 68.02 121.62 71.62 C 121.23 75.23 120.25 80.27 119.62 83.00 C 119.00 85.73 119.02 85.33 117.88 88.00 C 116.73 90.67 114.77 95.04 112.75 99.00 C 110.73 102.96 108.25 107.56 105.75 111.75 C 103.25 115.94 102.06 118.00 97.75 124.12 C 93.44 130.25 84.77 142.10 79.88 148.50 C 74.98 154.90 72.04 158.33 68.38 162.50 C 64.71 166.67 61.06 170.35 57.88 173.50 C 54.69 176.65 50.73 179.88 49.25 181.38 C 47.77 182.88 48.88 182.12 49.00 182.50 C 49.12 182.88 48.98 183.44 50.00 183.62 C 51.02 183.81 52.96 184.15 55.12 183.62 C 57.29 183.10 60.25 181.81 63.00 180.50 C 65.75 179.19 68.90 177.38 71.62 175.75 C 74.35 174.12 75.75 173.23 79.38 170.75 C 83.00 168.27 89.79 163.60 93.38 160.88 C 96.96 158.15 97.60 157.50 100.88 154.38 C 104.15 151.25 109.35 146.15 113.00 142.12 C 116.65 138.10 119.12 134.85 122.75 130.25 C 126.38 125.65 131.56 118.85 134.75 114.50 C 137.94 110.15 139.19 108.31 141.88 104.12 C 144.56 99.94 148.83 92.96 150.88 89.38 C 152.92 85.79 153.12 84.33 154.12 82.62 C 155.12 80.92 156.48 80.19 156.88 79.12 C 157.27 78.06 157.12 77.65 156.50 76.25 C 155.88 74.85 154.71 72.69 153.12 70.75 C 151.54 68.81 149.15 66.58 147.00 64.62 C 144.85 62.67 142.38 60.46 140.25 59.00 Z" id="s-0-f-0"/>
<clipPath id="c-s-0"><use href="#s-0-f-0"/></clipPath>
<path d="M 220.00 104.88 C 218.94 103.85 216.69 101.96 215.38 101.00 C 214.06 100.04 215.02 100.44 212.12 99.12 C 209.23 97.81 201.00 94.31 198.00 93.12 C 195.00 91.94 195.54 92.17 194.12 92.00 C 192.71 91.83 191.08 91.77 189.50 92.12 C 187.92 92.48 187.35 92.69 184.62 94.12 C 181.90 95.56 177.02 98.81 173.12 100.75 C 169.23 102.69 165.67 104.08 161.25 105.75 C 156.83 107.42 151.15 109.44 146.62 110.75 C 142.10 112.06 138.19 110.48 134.12 113.62 C 130.06 116.77 124.35 126.90 122.25 129.62 C 120.15 132.35 121.60 129.83 121.50 130.00 C 121.40 130.17 118.83 130.50 121.62 130.62 C 124.42 130.75 133.48 131.23 138.25 130.75 C 143.02 130.27 148.04 128.38 150.25 127.75 C 152.46 127.12 150.92 127.17 151.50 127.00 C 152.08 126.83 151.52 127.42 153.75 126.75 C 155.98 126.08 162.83 123.62 164.88 123.00 C 166.92 122.38 165.56 122.85 166.00 123.00 C 166.44 123.15 167.08 123.52 167.50 123.88 C 167.92 124.23 168.29 124.65 168.50 125.12 C 168.71 125.60 171.69 121.73 168.75 126.75 C 165.81 131.77 156.23 147.02 150.88 155.25 C 145.52 163.48 141.27 169.50 136.62 176.12 C 131.98 182.75 125.38 191.58 123.00 195.00 C 120.62 198.42 122.27 196.31 122.38 196.62 C 122.48 196.94 120.54 197.48 123.62 196.88 C 126.71 196.27 136.54 194.96 140.88 193.00 C 145.21 191.04 146.31 188.27 149.62 185.12 C 152.94 181.98 156.46 178.67 160.75 174.12 C 165.04 169.58 170.60 162.98 175.38 157.88 C 180.15 152.77 183.54 149.12 189.38 143.50 C 195.21 137.88 205.77 128.06 210.38 124.12 C 214.98 120.19 215.21 121.21 217.00 119.88 C 218.79 118.54 220.17 117.21 221.12 116.12 C 222.08 115.04 222.48 114.46 222.75 113.38 C 223.02 112.29 222.92 110.67 222.75 109.62 C 222.58 108.58 222.21 107.92 221.75 107.12 C 221.29 106.33 221.06 105.90 220.00 104.88 Z" id="s-1-f-0"/>
<clipPath id="c-s-1"><use href="#s-1-f-0"/></clipPath>
<path d="M 48.50 200.12 C 46.29 200.31 46.81 200.83 46.25 201.25 C 45.69 201.67 45.35 201.98 45.12 202.62 C 44.90 203.27 44.17 203.98 44.88 205.12 C 45.58 206.27 47.98 207.98 49.38 209.50 C 50.77 211.02 52.17 212.71 53.25 214.25 C 54.33 215.79 55.12 217.19 55.88 218.75 C 56.62 220.31 57.23 221.60 57.75 223.62 C 58.27 225.65 58.50 228.85 59.00 230.88 C 59.50 232.90 59.96 232.48 60.75 235.75 C 61.54 239.02 62.85 244.75 63.75 250.50 C 64.65 256.25 64.96 262.00 66.12 270.25 C 67.29 278.50 69.94 294.27 70.75 300.00 C 71.56 305.73 70.79 303.10 71.00 304.62 C 71.21 306.15 71.48 307.54 72.00 309.12 C 72.52 310.71 73.23 312.38 74.12 314.12 C 75.02 315.88 76.27 318.23 77.38 319.62 C 78.48 321.02 79.75 321.96 80.75 322.50 C 81.75 323.04 82.67 322.98 83.38 322.88 C 84.08 322.77 84.44 322.38 85.00 321.88 C 85.56 321.38 85.98 321.15 86.75 319.88 C 87.52 318.60 89.08 317.96 89.62 314.25 C 90.17 310.54 90.46 307.31 90.00 297.62 C 89.54 287.94 87.90 267.10 86.88 256.12 C 85.85 245.15 84.56 238.67 83.88 231.75 C 83.19 224.83 85.08 219.44 82.75 214.62 C 80.42 209.81 72.83 205.12 69.88 202.88 C 66.92 200.62 66.73 201.58 65.00 201.12 C 63.27 200.67 62.25 200.29 59.50 200.12 C 56.75 199.96 50.71 199.94 48.50 200.12 Z" id="s-2-f-0"/>
<clipPath id="c-s-2"><use href="#s-2-f-0"/></clipPath>
<path d="M 69.75 203.38 C 71.58 205.46 77.12 213.54 82.38 215.25 C 87.62 216.96 95.67 214.21 101.25 213.62 C 106.83 213.04 110.56 212.54 115.88 211.75 C 121.19 210.96 127.21 210.00 133.12 208.88 C 139.04 207.75 144.02 206.31 151.38 205.00 C 158.73 203.69 170.98 201.83 177.25 201.00 C 183.52 200.17 186.60 199.94 189.00 200.00 C 191.40 200.06 191.00 200.90 191.62 201.38 C 192.25 201.85 192.42 202.21 192.75 202.88 C 193.08 203.54 193.46 203.19 193.62 205.38 C 193.79 207.56 193.90 211.90 193.75 216.00 C 193.60 220.10 193.23 225.21 192.75 230.00 C 192.27 234.79 191.19 241.25 190.88 244.75 C 190.56 248.25 191.90 244.48 190.88 251.00 C 189.85 257.52 186.60 275.62 184.75 283.88 C 182.90 292.12 180.38 296.94 179.75 300.50 C 179.12 304.06 180.46 303.75 181.00 305.25 C 181.54 306.75 182.33 308.40 183.00 309.50 C 183.67 310.60 184.44 311.33 185.00 311.88 C 185.56 312.42 185.40 312.60 186.38 312.75 C 187.35 312.90 189.58 312.94 190.88 312.75 C 192.17 312.56 192.77 312.56 194.12 311.62 C 195.48 310.69 197.73 308.77 199.00 307.12 C 200.27 305.48 198.42 315.21 201.75 301.75 C 205.08 288.29 215.44 240.77 219.00 226.38 C 222.56 211.98 221.88 218.08 223.12 215.38 C 224.38 212.67 225.54 211.92 226.50 210.12 C 227.46 208.33 228.50 206.04 228.88 204.62 C 229.25 203.21 229.08 202.81 228.75 201.62 C 228.42 200.44 228.15 199.23 226.88 197.50 C 225.60 195.77 222.75 192.85 221.12 191.25 C 219.50 189.65 220.65 189.92 217.12 187.88 C 213.60 185.83 203.33 180.65 200.00 179.00 C 196.67 177.35 198.40 178.17 197.12 178.00 C 195.85 177.83 195.35 177.48 192.38 178.00 C 189.40 178.52 185.31 179.33 179.25 181.12 C 173.19 182.92 162.21 186.85 156.00 188.75 C 149.79 190.65 144.92 191.85 142.00 192.50 C 139.08 193.15 140.25 192.29 138.50 192.62 C 136.75 192.96 133.10 194.17 131.50 194.50 C 129.90 194.83 129.56 194.48 128.88 194.62 C 128.19 194.77 128.15 195.21 127.38 195.38 C 126.60 195.54 125.23 195.38 124.25 195.62 C 123.27 195.88 126.08 196.02 121.50 196.88 C 116.92 197.73 105.10 199.77 96.75 200.75 C 88.40 201.73 75.88 202.31 71.38 202.75 C 66.88 203.19 67.92 201.29 69.75 203.38 Z" id="s-3-f-0"/>
<clipPath id="c-s-3"><use href="#s-3-f-0"/></clipPath>
<path d="M 192.25 238.25 C 191.27 236.62 189.10 235.73 186.12 234.88 C 183.15 234.02 177.56 233.44 174.38 233.12 C 171.19 232.81 169.96 232.69 167.00 233.00 C 164.04 233.31 159.25 234.38 156.62 235.00 C 154.00 235.62 152.65 236.42 151.25 236.75 C 149.85 237.08 149.77 236.69 148.25 237.00 C 146.73 237.31 145.25 237.98 142.12 238.62 C 139.00 239.27 131.88 240.38 129.50 240.88 C 127.12 241.38 130.62 240.98 127.88 241.62 C 125.12 242.27 120.02 243.54 113.00 244.75 C 105.98 245.96 90.35 248.31 85.75 248.88 C 81.15 249.44 85.38 247.00 85.38 248.12 C 85.38 249.25 85.52 253.69 85.75 255.62 C 85.98 257.56 85.19 258.73 86.75 259.75 C 88.31 260.77 92.25 261.40 95.12 261.75 C 98.00 262.10 93.08 263.04 104.00 261.88 C 114.92 260.71 147.48 256.73 160.62 254.75 C 173.77 252.77 178.42 250.83 182.88 250.00 C 187.33 249.17 186.02 249.94 187.38 249.75 C 188.73 249.56 190.23 249.73 191.00 248.88 C 191.77 248.02 191.79 246.40 192.00 244.62 C 192.21 242.85 193.23 239.88 192.25 238.25 Z" id="s-4-f-0"/>
<clipPath id="c-s-4"><use href="#s-4-f-0"/></clipPath>
<path d="M 150.75 204.62 C 150.23 204.54 149.10 204.48 148.38 204.62 C 147.65 204.77 147.23 205.33 146.38 205.50 C 145.52 205.67 143.96 205.48 143.25 205.62 C 142.54 205.77 142.98 206.21 142.12 206.38 C 141.27 206.54 139.00 206.46 138.12 206.62 C 137.25 206.79 137.83 207.21 136.88 207.38 C 135.92 207.54 133.33 207.46 132.38 207.62 C 131.42 207.79 131.94 208.21 131.12 208.38 C 130.31 208.54 128.40 208.44 127.50 208.62 C 126.60 208.81 125.85 204.31 125.75 209.50 C 125.65 214.69 126.75 234.17 126.88 239.75 C 127.00 245.33 126.50 239.31 126.50 243.00 C 126.50 246.69 126.96 255.29 126.88 261.88 C 126.79 268.46 126.15 277.60 126.00 282.50 C 125.85 287.40 125.94 289.67 126.00 291.25 C 126.06 292.83 122.65 292.69 126.38 292.00 C 130.10 291.31 144.62 288.04 148.38 287.12 C 152.12 286.21 148.79 291.65 148.88 286.50 C 148.96 281.35 148.75 261.67 148.88 256.25 C 149.00 250.83 149.54 254.54 149.62 254.00 C 149.71 253.46 149.35 253.21 149.38 253.00 C 149.40 252.79 149.65 252.73 149.75 252.75 C 149.85 252.77 149.92 254.19 150.00 253.12 C 150.08 252.06 150.06 248.08 150.25 246.38 C 150.44 244.67 151.00 245.94 151.12 242.88 C 151.25 239.81 150.90 234.02 151.00 228.00 C 151.10 221.98 151.67 210.56 151.75 206.75 C 151.83 202.94 151.67 205.48 151.50 205.12 C 151.33 204.77 151.27 204.71 150.75 204.62 Z" id="s-5-f-0"/>
<clipPath id="c-s-5"><use href="#s-5-f-0"/></clipPath>
<path d="M 184.12 288.38 C 184.42 287.02 184.65 288.27 183.88 287.88 C 183.10 287.48 181.35 286.62 179.50 286.00 C 177.65 285.38 175.23 284.46 172.75 284.12 C 170.27 283.79 168.44 283.56 164.62 284.00 C 160.81 284.44 152.88 286.31 149.88 286.75 C 146.88 287.19 148.23 286.35 146.62 286.62 C 145.02 286.90 141.79 288.04 140.25 288.38 C 138.71 288.71 138.08 288.46 137.38 288.62 C 136.67 288.79 137.62 289.04 136.00 289.38 C 134.38 289.71 129.17 290.27 127.62 290.62 C 126.08 290.98 127.96 291.15 126.75 291.50 C 125.54 291.85 126.40 291.88 120.38 292.75 C 114.35 293.62 95.77 296.00 90.62 296.75 C 85.48 297.50 89.69 295.12 89.50 297.25 C 89.31 299.38 89.44 307.38 89.50 309.50 C 89.56 311.62 89.38 309.79 89.88 310.00 C 90.38 310.21 90.42 310.65 92.50 310.75 C 94.58 310.85 90.73 312.08 102.38 310.62 C 114.02 309.17 149.38 303.67 162.38 302.00 C 175.38 300.33 177.25 301.08 180.38 300.62 C 183.50 300.17 180.96 299.83 181.12 299.25 C 181.29 298.67 181.21 297.67 181.38 297.12 C 181.54 296.58 181.67 297.46 182.12 296.00 C 182.58 294.54 183.83 289.73 184.12 288.38 Z" id="s-6-f-0"/>
<clipPath id="c-s-6"><use href="#s-6-f-0"/></clipPath>
<path d="M 53.38 339.88 C 52.88 339.92 51.92 340.04 51.38 340.38 C 50.83 340.71 50.50 341.19 50.12 341.88 C 49.75 342.56 49.35 343.60 49.12 344.50 C 48.90 345.40 49.31 345.48 48.75 347.25 C 48.19 349.02 47.75 350.71 45.75 355.12 C 43.75 359.54 39.90 367.69 36.75 373.75 C 33.60 379.81 28.81 387.79 26.88 391.50 C 24.94 395.21 25.58 394.54 25.12 396.00 C 24.67 397.46 24.31 397.94 24.12 400.25 C 23.94 402.56 23.69 406.90 24.00 409.88 C 24.31 412.85 25.48 416.38 26.00 418.12 C 26.52 419.88 26.33 419.31 27.12 420.38 C 27.92 421.44 29.62 423.44 30.75 424.50 C 31.88 425.56 32.85 426.21 33.88 426.75 C 34.90 427.29 35.56 427.58 36.88 427.75 C 38.19 427.92 40.54 427.94 41.75 427.75 C 42.96 427.56 43.23 427.25 44.12 426.62 C 45.02 426.00 45.85 425.48 47.12 424.00 C 48.40 422.52 50.17 420.56 51.75 417.75 C 53.33 414.94 55.12 410.83 56.62 407.12 C 58.12 403.42 59.58 399.27 60.75 395.50 C 61.92 391.73 62.96 387.62 63.62 384.50 C 64.29 381.38 64.56 379.96 64.75 376.75 C 64.94 373.54 65.25 368.94 64.75 365.25 C 64.25 361.56 62.92 358.00 61.75 354.62 C 60.58 351.25 58.73 347.19 57.75 345.00 C 56.77 342.81 56.44 342.31 55.88 341.50 C 55.31 340.69 54.79 340.40 54.38 340.12 C 53.96 339.85 53.88 339.83 53.38 339.88 Z" id="s-7-f-0"/>
<clipPath id="c-s-7"><use href="#s-7-f-0"/></clipPath>
<path d="M 85.62 346.12 C 84.54 346.38 84.25 346.88 84.00 347.50 C 83.75 348.12 83.83 349.00 84.12 349.88 C 84.42 350.75 84.10 348.29 85.75 352.75 C 87.40 357.21 91.65 370.46 94.00 376.62 C 96.35 382.79 98.25 386.48 99.88 389.75 C 101.50 393.02 102.62 394.75 103.75 396.25 C 104.88 397.75 105.44 398.33 106.62 398.75 C 107.81 399.17 109.71 398.92 110.88 398.75 C 112.04 398.58 112.73 398.25 113.62 397.75 C 114.52 397.25 115.44 396.65 116.25 395.75 C 117.06 394.85 117.90 394.08 118.50 392.38 C 119.10 390.67 119.67 388.02 119.88 385.50 C 120.08 382.98 119.96 379.75 119.75 377.25 C 119.54 374.75 119.29 372.81 118.62 370.50 C 117.96 368.19 116.54 365.00 115.75 363.38 C 114.96 361.75 114.85 361.83 113.88 360.75 C 112.90 359.67 111.15 358.00 109.88 356.88 C 108.60 355.75 108.96 355.65 106.25 354.00 C 103.54 352.35 96.25 348.33 93.62 347.00 C 91.00 345.67 91.83 346.15 90.50 346.00 C 89.17 345.85 86.71 345.88 85.62 346.12 Z" id="s-8-f-0"/>
<clipPath id="c-s-8"><use href="#s-8-f-0"/></clipPath>
<path d="M 130.38 340.00 C 129.67 340.21 129.94 340.52 129.88 341.25 C 129.81 341.98 129.81 343.29 130.00 344.38 C 130.19 345.46 129.00 342.92 131.00 347.75 C 133.00 352.58 139.35 367.60 142.00 373.38 C 144.65 379.15 145.42 379.98 146.88 382.38 C 148.33 384.77 149.90 386.44 150.75 387.75 C 151.60 389.06 151.52 389.56 152.00 390.25 C 152.48 390.94 153.08 391.46 153.62 391.88 C 154.17 392.29 154.56 392.58 155.25 392.75 C 155.94 392.92 156.71 393.04 157.75 392.88 C 158.79 392.71 160.54 392.27 161.50 391.75 C 162.46 391.23 162.96 390.48 163.50 389.75 C 164.04 389.02 164.35 388.79 164.75 387.38 C 165.15 385.96 165.71 383.79 165.88 381.25 C 166.04 378.71 165.94 374.71 165.75 372.12 C 165.56 369.54 165.42 368.25 164.75 365.75 C 164.08 363.25 162.52 358.92 161.75 357.12 C 160.98 355.33 161.19 356.02 160.12 355.00 C 159.06 353.98 157.48 352.50 155.38 351.00 C 153.27 349.50 150.44 347.65 147.50 346.00 C 144.56 344.35 139.98 342.12 137.75 341.12 C 135.52 340.12 135.35 340.19 134.12 340.00 C 132.90 339.81 131.08 339.79 130.38 340.00 Z" id="s-9-f-0"/>
<clipPath id="c-s-9"><use href="#s-9-f-0"/></clipPath>
<path d="M 173.38 332.00 C 172.77 332.21 172.94 332.60 172.88 333.25 C 172.81 333.90 172.79 334.94 173.00 335.88 C 173.21 336.81 172.69 335.85 174.12 338.88 C 175.56 341.90 179.21 348.92 181.62 354.00 C 184.04 359.08 186.71 364.94 188.62 369.38 C 190.54 373.81 191.73 377.50 193.12 380.62 C 194.52 383.75 195.85 386.21 197.00 388.12 C 198.15 390.04 198.96 391.02 200.00 392.12 C 201.04 393.23 202.19 394.31 203.25 394.75 C 204.31 395.19 205.46 394.92 206.38 394.75 C 207.29 394.58 207.83 394.42 208.75 393.75 C 209.67 393.08 211.04 391.81 211.88 390.75 C 212.71 389.69 213.10 388.83 213.75 387.38 C 214.40 385.92 215.25 383.67 215.75 382.00 C 216.25 380.33 216.60 379.75 216.75 377.38 C 216.90 375.00 216.81 370.04 216.62 367.75 C 216.44 365.46 216.27 365.38 215.62 363.62 C 214.98 361.88 213.65 358.92 212.75 357.25 C 211.85 355.58 211.38 354.96 210.25 353.62 C 209.12 352.29 208.52 351.35 206.00 349.25 C 203.48 347.15 197.75 342.88 195.12 341.00 C 192.50 339.12 193.35 339.50 190.25 338.00 C 187.15 336.50 179.31 333.00 176.50 332.00 C 173.69 331.00 173.98 331.79 173.38 332.00 Z" id="s-10-f-0"/>
<clipPath id="c-s-10"><use href="#s-10-f-0"/></clipPath>
<path d="M 410.88 61.62 C 410.73 60.56 410.25 58.88 409.75 57.75 C 409.25 56.62 408.85 56.02 407.88 54.88 C 406.90 53.73 405.40 52.19 403.88 50.88 C 402.35 49.56 401.33 48.65 398.75 47.00 C 396.17 45.35 391.75 42.81 388.38 41.00 C 385.00 39.19 381.17 37.29 378.50 36.12 C 375.83 34.96 373.77 34.38 372.38 34.00 C 370.98 33.62 371.56 33.69 370.12 33.88 C 368.69 34.06 369.71 33.31 363.75 35.12 C 357.79 36.94 339.71 43.10 334.38 44.75 C 329.04 46.40 333.58 44.52 331.75 45.00 C 329.92 45.48 327.46 46.62 323.38 47.62 C 319.29 48.62 311.58 50.00 307.25 51.00 C 302.92 52.00 301.71 52.67 297.38 53.62 C 293.04 54.58 286.29 55.90 281.25 56.75 C 276.21 57.60 273.56 58.02 267.12 58.75 C 260.69 59.48 247.21 60.46 242.62 61.12 C 238.04 61.79 240.23 62.35 239.62 62.75 C 239.02 63.15 239.08 62.88 239.00 63.50 C 238.92 64.12 238.69 65.50 239.12 66.50 C 239.56 67.50 239.92 68.12 241.62 69.50 C 243.33 70.88 246.69 73.23 249.38 74.75 C 252.06 76.27 255.73 77.79 257.75 78.62 C 259.77 79.46 260.38 79.54 261.50 79.75 C 262.62 79.96 261.79 80.38 264.50 79.88 C 267.21 79.38 272.33 78.40 277.75 76.75 C 283.17 75.10 288.96 72.62 297.00 70.00 C 305.04 67.38 320.10 62.71 326.00 61.00 C 331.90 59.29 330.42 60.25 332.38 59.75 C 334.33 59.25 336.31 58.35 337.75 58.00 C 339.19 57.65 340.27 57.79 341.00 57.62 C 341.73 57.46 341.44 57.15 342.12 57.00 C 342.81 56.85 344.25 56.94 345.12 56.75 C 346.00 56.56 346.33 56.06 347.38 55.88 C 348.42 55.69 350.38 55.77 351.38 55.62 C 352.38 55.48 352.62 55.08 353.38 55.00 C 354.12 54.92 355.10 54.92 355.88 55.12 C 356.65 55.33 357.38 55.62 358.00 56.25 C 358.62 56.88 359.33 58.02 359.62 58.88 C 359.92 59.73 359.90 60.60 359.75 61.38 C 359.60 62.15 361.31 60.12 358.75 63.50 C 356.19 66.88 349.12 75.98 344.38 81.62 C 339.62 87.27 332.54 94.52 330.25 97.38 C 327.96 100.23 328.98 97.48 330.62 98.75 C 332.27 100.02 338.19 103.83 340.12 105.00 C 342.06 106.17 338.54 107.94 342.25 105.75 C 345.96 103.56 356.52 95.79 362.38 91.88 C 368.23 87.96 372.69 85.04 377.38 82.25 C 382.06 79.46 386.25 77.23 390.50 75.12 C 394.75 73.02 399.98 71.00 402.88 69.62 C 405.77 68.25 406.58 67.79 407.88 66.88 C 409.17 65.96 410.12 65.00 410.62 64.12 C 411.12 63.25 411.02 62.69 410.88 61.62 Z" id="s-11-f-0"/>
<clipPath id="c-s-11"><use href="#s-11-f-0"/></clipPath>
<path d="M 294.12 91.25 C 293.83 91.85 292.50 91.02 294.12 93.62 C 295.75 96.23 300.62 102.62 303.88 106.88 C 307.12 111.12 310.04 115.02 313.62 119.12 C 317.21 123.23 322.92 129.06 325.38 131.50 C 327.83 133.94 327.50 133.21 328.38 133.75 C 329.25 134.29 329.92 134.54 330.62 134.75 C 331.33 134.96 330.81 135.44 332.62 135.00 C 334.44 134.56 339.65 132.96 341.50 132.12 C 343.35 131.29 343.21 130.67 343.75 130.00 C 344.29 129.33 344.42 129.06 344.75 128.12 C 345.08 127.19 345.58 126.48 345.75 124.38 C 345.92 122.27 346.08 118.08 345.75 115.50 C 345.42 112.92 344.50 110.67 343.75 108.88 C 343.00 107.08 343.17 106.44 341.25 104.75 C 339.33 103.06 334.79 100.21 332.25 98.75 C 329.71 97.29 328.00 96.77 326.00 96.00 C 324.00 95.23 324.17 95.12 320.25 94.12 C 316.33 93.12 306.56 90.69 302.50 90.00 C 298.44 89.31 297.27 89.79 295.88 90.00 C 294.48 90.21 294.42 90.65 294.12 91.25 Z" id="s-12-f-0"/>
<clipPath id="c-s-12"><use href="#s-12-f-0"/></clipPath>
<path d="M 451.88 143.62 C 451.71 142.58 451.38 140.92 450.62 139.50 C 449.88 138.08 449.44 137.04 447.38 135.12 C 445.31 133.21 442.98 130.83 438.25 128.00 C 433.52 125.17 423.12 120.10 419.00 118.12 C 414.88 116.15 415.38 116.48 413.50 116.12 C 411.62 115.77 414.79 114.40 407.75 116.00 C 400.71 117.60 382.04 123.15 371.25 125.75 C 360.46 128.35 348.17 130.65 343.00 131.62 C 337.83 132.60 340.90 131.50 340.25 131.62 C 339.60 131.75 339.69 132.21 339.12 132.38 C 338.56 132.54 338.71 132.08 336.88 132.62 C 335.04 133.17 330.40 135.06 328.12 135.62 C 325.85 136.19 327.02 135.33 323.25 136.00 C 319.48 136.67 311.75 138.54 305.50 139.62 C 299.25 140.71 292.46 141.65 285.75 142.50 C 279.04 143.35 273.98 144.00 265.25 144.75 C 256.52 145.50 239.06 146.50 233.38 147.00 C 227.69 147.50 231.79 147.42 231.12 147.75 C 230.46 148.08 229.75 148.40 229.38 149.00 C 229.00 149.60 228.90 150.81 228.88 151.38 C 228.85 151.94 228.67 151.65 229.25 152.38 C 229.83 153.10 230.67 154.33 232.38 155.75 C 234.08 157.17 236.81 159.38 239.50 160.88 C 242.19 162.38 246.38 163.94 248.50 164.75 C 250.62 165.56 251.00 165.56 252.25 165.75 C 253.50 165.94 250.17 167.04 256.00 165.88 C 261.83 164.71 277.67 161.06 287.25 158.75 C 296.83 156.44 305.65 153.81 313.50 152.00 C 321.35 150.19 326.77 149.54 334.38 147.88 C 341.98 146.21 352.33 143.44 359.12 142.00 C 365.92 140.56 371.27 139.81 375.12 139.25 C 378.98 138.69 380.75 138.83 382.25 138.62 C 383.75 138.42 382.29 138.27 384.12 138.00 C 385.96 137.73 391.12 137.15 393.25 137.00 C 395.38 136.85 396.00 136.98 396.88 137.12 C 397.75 137.27 398.00 137.52 398.50 137.88 C 399.00 138.23 399.50 138.65 399.88 139.25 C 400.25 139.85 400.65 140.73 400.75 141.50 C 400.85 142.27 402.00 140.85 400.50 143.88 C 399.00 146.90 395.02 154.33 391.75 159.62 C 388.48 164.92 382.81 172.62 380.88 175.62 C 378.94 178.62 380.27 176.79 380.12 177.62 C 379.98 178.46 379.77 179.94 380.00 180.62 C 380.23 181.31 380.71 181.54 381.50 181.75 C 382.29 181.96 383.44 182.04 384.75 181.88 C 386.06 181.71 387.92 181.27 389.38 180.75 C 390.83 180.23 388.48 181.90 393.50 178.75 C 398.52 175.60 413.73 165.50 419.50 161.88 C 425.27 158.25 423.17 159.33 428.12 157.00 C 433.08 154.67 445.33 149.75 449.25 147.88 C 453.17 146.00 451.19 146.46 451.62 145.75 C 452.06 145.04 452.04 144.67 451.88 143.62 Z" id="s-13-f-0"/>
<clipPath id="c-s-13"><use href="#s-13-f-0"/></clipPath>
<path d="M 344.25 144.75 C 343.75 144.81 342.46 145.35 341.50 145.50 C 340.54 145.65 339.27 145.46 338.50 145.62 C 337.73 145.79 337.60 146.33 336.88 146.50 C 336.15 146.67 334.81 146.42 334.12 146.62 C 333.44 146.83 332.35 144.15 332.75 147.75 C 333.15 151.35 335.83 163.17 336.50 168.25 C 337.17 173.33 336.85 174.67 336.75 178.25 C 336.65 181.83 336.19 186.73 335.88 189.75 C 335.56 192.77 335.19 194.79 334.88 196.38 C 334.56 197.96 334.35 197.29 334.00 199.25 C 333.65 201.21 333.29 205.58 332.75 208.12 C 332.21 210.67 331.48 213.10 330.75 214.50 C 330.02 215.90 329.23 216.12 328.38 216.50 C 327.52 216.88 328.15 217.04 325.62 216.75 C 323.10 216.46 316.42 215.38 313.25 214.75 C 310.08 214.12 308.44 213.31 306.62 213.00 C 304.81 212.69 303.17 212.81 302.38 212.88 C 301.58 212.94 301.92 213.08 301.88 213.38 C 301.83 213.67 301.79 214.00 302.12 214.62 C 302.46 215.25 302.62 215.69 303.88 217.12 C 305.12 218.56 307.48 220.71 309.62 223.25 C 311.77 225.79 314.40 229.10 316.75 232.38 C 319.10 235.65 321.54 239.35 323.75 242.88 C 325.96 246.40 328.50 251.29 330.00 253.50 C 331.50 255.71 331.75 255.40 332.75 256.12 C 333.75 256.85 334.88 257.62 336.00 257.88 C 337.12 258.12 338.31 257.98 339.50 257.62 C 340.69 257.27 341.54 256.88 343.12 255.75 C 344.71 254.62 347.56 252.27 349.00 250.88 C 350.44 249.48 350.98 248.56 351.75 247.38 C 352.52 246.19 352.96 245.46 353.62 243.75 C 354.29 242.04 355.08 240.31 355.75 237.12 C 356.42 233.94 357.29 231.96 357.62 224.62 C 357.96 217.29 358.06 204.33 357.75 193.12 C 357.44 181.92 356.42 163.96 355.75 157.38 C 355.08 150.79 354.54 154.73 353.75 153.62 C 352.96 152.52 352.75 151.98 351.00 150.75 C 349.25 149.52 344.33 147.19 343.25 146.25 C 342.17 145.31 344.33 145.38 344.50 145.12 C 344.67 144.88 344.75 144.69 344.25 144.75 Z" id="s-14-f-0"/>
<clipPath id="c-s-14"><use href="#s-14-f-0"/></clipPath>
<path d="M 344.62 144.88 C 344.56 144.54 343.27 144.65 342.75 144.75 C 342.23 144.85 342.25 145.35 341.50 145.50 C 340.75 145.65 339.06 145.46 338.25 145.62 C 337.44 145.79 337.42 146.33 336.62 146.50 C 335.83 146.67 334.23 146.46 333.50 146.62 C 332.77 146.79 332.96 147.33 332.25 147.50 C 331.54 147.67 329.96 147.48 329.25 147.62 C 328.54 147.77 328.81 148.21 328.00 148.38 C 327.19 148.54 325.15 148.46 324.38 148.62 C 323.60 148.79 324.17 149.21 323.38 149.38 C 322.58 149.54 320.46 149.46 319.62 149.62 C 318.79 149.79 319.10 150.21 318.38 150.38 C 317.65 150.54 316.06 150.31 315.25 150.62 C 314.44 150.94 313.96 151.94 313.50 152.25 C 313.04 152.56 312.69 152.25 312.50 152.50 C 312.31 152.75 312.81 152.81 312.38 153.75 C 311.94 154.69 311.81 155.21 309.88 158.12 C 307.94 161.04 303.65 167.40 300.75 171.25 C 297.85 175.10 295.44 178.02 292.50 181.25 C 289.56 184.48 287.81 186.25 283.12 190.62 C 278.44 195.00 269.50 203.10 264.38 207.50 C 259.25 211.90 255.50 214.42 252.38 217.00 C 249.25 219.58 250.77 219.08 245.62 223.00 C 240.48 226.92 225.42 237.52 221.50 240.50 C 217.58 243.48 221.42 240.81 222.12 240.88 C 222.83 240.94 224.17 241.08 225.75 240.88 C 227.33 240.67 228.56 240.50 231.62 239.62 C 234.69 238.75 240.33 236.96 244.12 235.62 C 247.92 234.29 250.62 233.27 254.38 231.62 C 258.12 229.98 263.35 227.42 266.62 225.75 C 269.90 224.08 271.25 223.29 274.00 221.62 C 276.75 219.96 280.12 217.83 283.12 215.75 C 286.12 213.67 287.58 212.85 292.00 209.12 C 296.42 205.40 302.44 200.58 309.62 193.38 C 316.81 186.17 330.71 170.50 335.12 165.88 C 339.54 161.25 335.92 165.33 336.12 165.62 C 336.33 165.92 336.25 167.21 336.38 167.62 C 336.50 168.04 336.75 168.35 336.88 168.12 C 337.00 167.90 337.15 166.83 337.12 166.25 C 337.10 165.67 336.71 165.44 336.75 164.62 C 336.79 163.81 337.15 162.06 337.38 161.38 C 337.60 160.69 337.79 161.56 338.12 160.50 C 338.46 159.44 339.04 156.06 339.38 155.00 C 339.71 153.94 339.96 154.75 340.12 154.12 C 340.29 153.50 340.21 151.77 340.38 151.25 C 340.54 150.73 340.94 151.44 341.12 151.00 C 341.31 150.56 341.29 149.31 341.50 148.62 C 341.71 147.94 342.10 147.19 342.38 146.88 C 342.65 146.56 342.75 147.08 343.12 146.75 C 343.50 146.42 344.69 145.21 344.62 144.88 Z" id="s-15-f-0"/>
<clipPath id="c-s-15"><use href="#s-15-f-0"/></clipPath>
<path d="M 457.88 310.12 C 457.88 309.52 457.98 309.42 457.62 308.62 C 457.27 307.83 456.90 306.67 455.75 305.38 C 454.60 304.08 452.65 302.27 450.75 300.88 C 448.85 299.48 446.15 297.98 444.38 297.00 C 442.60 296.02 443.90 296.33 440.12 295.00 C 436.35 293.67 425.38 290.00 421.75 289.00 C 418.12 288.00 422.65 288.21 418.38 289.00 C 414.10 289.79 403.71 292.44 396.12 293.75 C 388.54 295.06 379.31 296.15 372.88 296.88 C 366.44 297.60 361.88 297.67 357.50 298.12 C 353.12 298.58 350.08 299.33 346.62 299.62 C 343.17 299.92 342.60 299.46 336.75 299.88 C 330.90 300.29 324.06 300.65 311.50 302.12 C 298.94 303.60 276.77 307.27 261.38 308.75 C 245.98 310.23 226.75 310.46 219.12 311.00 C 211.50 311.54 216.56 311.62 215.62 312.00 C 214.69 312.38 214.08 312.77 213.50 313.25 C 212.92 313.73 212.40 314.19 212.12 314.88 C 211.85 315.56 211.69 316.65 211.88 317.38 C 212.06 318.10 212.50 318.52 213.25 319.25 C 214.00 319.98 213.98 320.33 216.38 321.75 C 218.77 323.17 224.23 326.27 227.62 327.75 C 231.02 329.23 234.40 329.98 236.75 330.62 C 239.10 331.27 239.60 331.44 241.75 331.62 C 243.90 331.81 244.00 332.69 249.62 331.75 C 255.25 330.81 268.17 327.46 275.50 326.00 C 282.83 324.54 282.65 324.19 293.62 323.00 C 304.60 321.81 327.27 319.88 341.38 318.88 C 355.48 317.88 360.77 317.38 378.25 317.00 C 395.73 316.62 433.92 316.85 446.25 316.62 C 458.58 316.40 450.58 316.08 452.25 315.62 C 453.92 315.17 455.35 314.44 456.25 313.88 C 457.15 313.31 457.35 312.88 457.62 312.25 C 457.90 311.62 457.88 310.73 457.88 310.12 Z" id="s-16-f-0"/>
<clipPath id="c-s-16"><use href="#s-16-f-0"/></clipPath>
<path d="M 312.38 260.00 C 310.67 260.12 310.77 260.54 310.25 260.88 C 309.73 261.21 309.46 261.35 309.25 262.00 C 309.04 262.65 308.42 262.81 309.00 264.75 C 309.58 266.69 311.77 270.54 312.75 273.62 C 313.73 276.71 314.38 279.60 314.88 283.25 C 315.38 286.90 315.65 289.31 315.75 295.50 C 315.85 301.69 315.46 316.08 315.50 320.38 C 315.54 324.67 315.79 316.71 316.00 321.25 C 316.21 325.79 316.79 334.21 316.75 347.62 C 316.71 361.04 316.19 390.75 315.75 401.75 C 315.31 412.75 314.58 409.33 314.12 413.62 C 313.67 417.92 313.19 422.71 313.00 427.50 C 312.81 432.29 312.65 438.29 313.00 442.38 C 313.35 446.46 314.29 449.33 315.12 452.00 C 315.96 454.67 316.71 456.42 318.00 458.38 C 319.29 460.33 321.77 462.69 322.88 463.75 C 323.98 464.81 323.71 464.56 324.62 464.75 C 325.54 464.94 327.27 465.12 328.38 464.88 C 329.48 464.62 330.33 463.98 331.25 463.25 C 332.17 462.52 333.12 461.46 333.88 460.50 C 334.62 459.54 334.94 459.06 335.75 457.50 C 336.56 455.94 337.94 453.54 338.75 451.12 C 339.56 448.71 340.27 464.98 340.62 443.00 C 340.98 421.02 340.67 340.54 340.88 319.25 C 341.08 297.96 341.69 318.60 341.88 315.25 C 342.06 311.90 341.85 302.19 342.00 299.12 C 342.15 296.06 342.58 298.02 342.75 296.88 C 342.92 295.73 342.50 295.15 343.00 292.25 C 343.50 289.35 345.27 282.35 345.75 279.50 C 346.23 276.65 346.04 276.48 345.88 275.12 C 345.71 273.77 345.69 272.73 344.75 271.38 C 343.81 270.02 342.00 268.25 340.25 267.00 C 338.50 265.75 336.08 264.69 334.25 263.88 C 332.42 263.06 331.54 262.75 329.25 262.12 C 326.96 261.50 323.31 260.48 320.50 260.12 C 317.69 259.77 314.08 259.88 312.38 260.00 Z" id="s-17-f-0"/>
<clipPath id="c-s-17"><use href="#s-17-f-0"/></clipPath>
<path d="M 316.25 302.38 C 315.92 299.98 315.44 302.06 315.00 302.38 C 314.56 302.69 315.40 301.27 313.62 304.25 C 311.85 307.23 306.02 317.52 304.38 320.25 C 302.73 322.98 303.88 319.94 303.75 320.62 C 303.62 321.31 303.79 323.27 303.62 324.38 C 303.46 325.48 303.54 325.77 302.75 327.25 C 301.96 328.73 301.75 329.44 298.88 333.25 C 296.00 337.06 290.75 343.88 285.50 350.12 C 280.25 356.38 272.19 365.52 267.38 370.75 C 262.56 375.98 260.12 378.15 256.62 381.50 C 253.12 384.85 251.58 386.38 246.38 390.88 C 241.17 395.38 231.42 403.65 225.38 408.50 C 219.33 413.35 214.94 416.54 210.12 420.00 C 205.31 423.46 198.73 427.62 196.50 429.25 C 194.27 430.88 195.81 429.67 196.75 429.75 C 197.69 429.83 198.12 430.75 202.12 429.75 C 206.12 428.75 215.27 425.75 220.75 423.75 C 226.23 421.75 229.27 420.46 235.00 417.75 C 240.73 415.04 250.10 410.33 255.12 407.50 C 260.15 404.67 261.67 403.27 265.12 400.75 C 268.58 398.23 272.50 395.15 275.88 392.38 C 279.25 389.60 282.10 387.12 285.38 384.12 C 288.65 381.12 290.21 380.21 295.50 374.38 C 300.79 368.54 313.54 358.73 317.12 349.12 C 320.71 339.52 317.15 324.54 317.00 316.75 C 316.85 308.96 316.58 304.77 316.25 302.38 Z" id="s-18-f-0"/>
<clipPath id="c-s-18"><use href="#s-18-f-0"/></clipPath>
<path d="M 340.75 324.38 C 340.65 327.23 340.08 337.71 340.75 341.38 C 341.42 345.04 341.71 342.06 344.75 346.38 C 347.79 350.69 353.75 359.90 359.00 367.25 C 364.25 374.60 371.21 383.94 376.25 390.50 C 381.29 397.06 386.12 402.85 389.25 406.62 C 392.38 410.40 392.62 410.67 395.00 413.12 C 397.38 415.58 401.44 419.62 403.50 421.38 C 405.56 423.12 405.42 422.92 407.38 423.62 C 409.33 424.33 411.67 425.25 415.25 425.62 C 418.83 426.00 425.40 425.90 428.88 425.88 C 432.35 425.85 432.56 425.88 436.12 425.50 C 439.69 425.12 445.85 424.42 450.25 423.62 C 454.65 422.83 458.96 421.73 462.50 420.75 C 466.04 419.77 469.67 418.46 471.50 417.75 C 473.33 417.04 472.96 416.96 473.50 416.50 C 474.04 416.04 474.60 415.60 474.75 415.00 C 474.90 414.40 474.81 413.52 474.38 412.88 C 473.94 412.23 476.58 413.02 472.12 411.12 C 467.67 409.23 455.65 404.90 447.62 401.50 C 439.60 398.10 429.83 393.54 424.00 390.75 C 418.17 387.96 416.71 387.08 412.62 384.75 C 408.54 382.42 403.98 379.73 399.50 376.75 C 395.02 373.77 390.58 370.69 385.75 366.88 C 380.92 363.06 376.33 359.31 370.50 353.88 C 364.67 348.44 355.60 339.19 350.75 334.25 C 345.90 329.31 343.04 325.90 341.38 324.25 C 339.71 322.60 340.85 321.52 340.75 324.38 Z" id="s-19-f-0"/>
<clipPath id="c-s-19"><use href="#s-19-f-0"/></clipPath>
</defs>
<g id="s-0" clip-path="url(#c-s-0)">
<use href="#s-0-f-0"/>
<path d="M 140.25 59.00 C 138.12 57.54 135.85 56.56 134.25 55.88 C 132.65 55.19 131.92 54.98 130.62 54.88 C 129.33 54.77 127.77 54.67 126.50 55.25 C 125.23 55.83 123.75 57.35 123.00 58.38 C 122.25 59.40 122.23 59.17 122.00 61.38 C 121.77 63.58 122.02 68.02 121.62 71.62 C 121.23 75.23 120.25 80.27 119.62 83.00 C 119.00 85.73 119.02 85.33 117.88 88.00 C 116.73 90.67 114.92 94.79 112.75 99.00 C 110.58 103.21 107.04 109.56 104.88 113.25 C 102.71 116.94 104.19 114.96 99.75 121.12 C 95.31 127.29 81.81 145.31 78.25 150.25 C 74.69 155.19 74.10 150.62 78.38 150.75 C 82.65 150.88 99.50 151.02 103.88 151.00 C 108.25 150.98 103.10 152.10 104.62 150.62 C 106.15 149.15 109.98 145.52 113.00 142.12 C 116.02 138.73 119.12 134.85 122.75 130.25 C 126.38 125.65 131.56 118.85 134.75 114.50 C 137.94 110.15 139.19 108.31 141.88 104.12 C 144.56 99.94 148.83 92.96 150.88 89.38 C 152.92 85.79 153.17 84.23 154.12 82.62 C 155.08 81.02 156.17 80.58 156.62 79.75 C 157.08 78.92 157.02 78.46 156.88 77.62 C 156.73 76.79 156.38 75.90 155.75 74.75 C 155.12 73.60 154.58 72.44 153.12 70.75 C 151.67 69.06 149.15 66.58 147.00 64.62 C 144.85 62.67 142.38 60.46 140.25 59.00 Z" id="s-0-f-1"/>
<path d="M 154.75 73.00 C 154.17 72.02 154.42 72.15 153.12 70.75 C 151.83 69.35 149.40 66.73 147.00 64.62 C 144.60 62.52 141.29 59.73 138.75 58.12 C 136.21 56.52 133.65 55.52 131.75 55.00 C 129.85 54.48 128.44 54.85 127.38 55.00 C 126.31 55.15 126.10 55.31 125.38 55.88 C 124.65 56.44 123.56 57.46 123.00 58.38 C 122.44 59.29 122.23 59.17 122.00 61.38 C 121.77 63.58 122.02 68.02 121.62 71.62 C 121.23 75.23 120.25 80.27 119.62 83.00 C 119.00 85.73 119.33 84.75 117.88 88.00 C 116.42 91.25 110.94 100.00 110.88 102.50 C 110.81 105.00 112.25 102.94 117.50 103.00 C 122.75 103.06 136.81 105.15 142.38 102.88 C 147.94 100.60 148.92 92.75 150.88 89.38 C 152.83 86.00 153.15 84.27 154.12 82.62 C 155.10 80.98 156.33 80.50 156.75 79.50 C 157.17 78.50 156.96 77.71 156.62 76.62 C 156.29 75.54 155.33 73.98 154.75 73.00 Z" id="s-0-f-2"/>
</g>
<g id="s-1" clip-path="url(#c-s-1)">
<use href="#s-1-f-0"/>
<path d="M 221.75 107.12 C 220.94 106.00 219.48 104.21 217.88 102.88 C 216.27 101.54 215.50 100.77 212.12 99.12 C 208.75 97.48 200.62 94.19 197.62 93.00 C 194.62 91.81 195.48 92.15 194.12 92.00 C 192.77 91.85 191.08 91.77 189.50 92.12 C 187.92 92.48 187.35 92.69 184.62 94.12 C 181.90 95.56 177.00 98.81 173.12 100.75 C 169.25 102.69 165.79 104.08 161.38 105.75 C 156.96 107.42 151.17 109.44 146.62 110.75 C 142.08 112.06 136.98 112.15 134.12 113.62 C 131.27 115.10 130.42 118.31 129.50 119.62 C 128.58 120.94 128.94 121.08 128.62 121.50 C 128.31 121.92 128.81 120.65 127.62 122.12 C 126.44 123.60 122.46 128.92 121.50 130.38 C 120.54 131.83 119.08 130.81 121.88 130.88 C 124.67 130.94 133.52 131.27 138.25 130.75 C 142.98 130.23 148.04 128.38 150.25 127.75 C 152.46 127.12 150.92 127.17 151.50 127.00 C 152.08 126.83 151.52 127.42 153.75 126.75 C 155.98 126.08 162.73 123.58 164.88 123.00 C 167.02 122.42 166.02 122.90 166.62 123.25 C 167.23 123.60 168.17 124.46 168.50 125.12 C 168.83 125.79 172.04 121.50 168.62 127.25 C 165.21 133.00 151.38 154.17 148.00 159.62 C 144.62 165.08 144.12 159.96 148.38 160.00 C 152.62 160.04 165.00 164.23 173.50 159.88 C 182.00 155.52 193.23 139.83 199.38 133.88 C 205.52 127.92 206.96 126.85 210.38 124.12 C 213.79 121.40 217.94 119.02 219.88 117.50 C 221.81 115.98 221.50 115.79 222.00 115.00 C 222.50 114.21 222.75 113.65 222.88 112.75 C 223.00 111.85 222.94 110.56 222.75 109.62 C 222.56 108.69 222.56 108.25 221.75 107.12 Z" id="s-1-f-1"/>
<path d="M 222.75 109.62 C 222.60 108.83 222.25 107.96 221.75 107.12 C 221.25 106.29 220.81 105.65 219.75 104.62 C 218.69 103.60 216.65 101.92 215.38 101.00 C 214.10 100.08 215.08 100.46 212.12 99.12 C 209.17 97.79 200.62 94.19 197.62 93.00 C 194.62 91.81 195.48 92.15 194.12 92.00 C 192.77 91.85 191.08 91.77 189.50 92.12 C 187.92 92.48 187.35 92.69 184.62 94.12 C 181.90 95.56 176.52 99.00 173.12 100.75 C 169.73 102.50 168.67 102.96 164.25 104.62 C 159.83 106.29 151.56 109.23 146.62 110.75 C 141.69 112.27 138.79 110.48 134.62 113.75 C 130.46 117.02 123.48 127.52 121.62 130.38 C 119.77 133.23 120.71 130.85 123.50 130.88 C 126.29 130.90 133.44 131.19 138.38 130.50 C 143.31 129.81 148.79 128.00 153.12 126.75 C 157.46 125.50 153.15 125.33 164.38 123.00 C 175.60 120.67 210.79 114.60 220.50 112.75 C 230.21 110.90 222.25 112.40 222.62 111.88 C 223.00 111.35 222.90 110.42 222.75 109.62 Z" id="s-1-f-2"/>
<path d="M 217.88 103.12 C 217.46 101.17 216.33 101.67 215.38 101.00 C 214.42 100.33 214.21 100.12 212.12 99.12 C 210.04 98.12 205.77 96.17 202.88 95.00 C 199.98 93.83 196.98 92.60 194.75 92.12 C 192.52 91.65 191.19 91.79 189.50 92.12 C 187.81 92.46 187.35 92.69 184.62 94.12 C 181.90 95.56 176.52 99.00 173.12 100.75 C 169.73 102.50 168.67 102.96 164.25 104.62 C 159.83 106.29 151.56 109.23 146.62 110.75 C 141.69 112.27 138.79 110.48 134.62 113.75 C 130.46 117.02 123.48 127.52 121.62 130.38 C 119.77 133.23 120.71 130.85 123.50 130.88 C 126.29 130.90 133.44 131.19 138.38 130.50 C 143.31 129.81 148.79 128.00 153.12 126.75 C 157.46 125.50 154.02 125.17 164.38 123.00 C 174.73 120.83 206.33 115.46 215.25 113.75 C 224.17 112.04 217.44 114.52 217.88 112.75 C 218.31 110.98 218.29 105.08 217.88 103.12 Z" id="s-1-f-3"/>
<path d="M 169.75 102.38 C 169.65 99.08 170.04 101.88 169.12 102.25 C 168.21 102.62 166.96 103.54 164.25 104.62 C 161.54 105.71 157.81 107.23 152.88 108.75 C 147.94 110.27 139.38 110.71 134.62 113.75 C 129.88 116.79 126.52 124.33 124.38 127.00 C 122.23 129.67 122.19 129.17 121.75 129.75 C 121.31 130.33 121.46 130.31 121.75 130.50 C 122.04 130.69 120.73 130.88 123.50 130.88 C 126.27 130.88 133.46 131.19 138.38 130.50 C 143.29 129.81 148.65 128.00 153.00 126.75 C 157.35 125.50 161.71 123.79 164.50 123.00 C 167.29 122.21 168.88 125.44 169.75 122.00 C 170.62 118.56 169.85 105.67 169.75 102.38 Z" id="s-1-f-4"/>
</g>
<g id="s-2" clip-path="url(#c-s-2)">
<use href="#s-2-f-0"/>
<path d="M 48.50 200.12 C 46.19 200.44 46.21 201.52 45.62 202.00 C 45.04 202.48 45.12 202.48 45.00 203.00 C 44.88 203.52 44.15 204.04 44.88 205.12 C 45.60 206.21 47.98 207.98 49.38 209.50 C 50.77 211.02 52.17 212.71 53.25 214.25 C 54.33 215.79 55.12 217.19 55.88 218.75 C 56.62 220.31 57.23 221.60 57.75 223.62 C 58.27 225.65 58.50 228.85 59.00 230.88 C 59.50 232.90 59.96 232.48 60.75 235.75 C 61.54 239.02 62.85 244.75 63.75 250.50 C 64.65 256.25 65.08 262.75 66.12 270.25 C 67.17 277.75 69.08 291.21 70.00 295.50 C 70.92 299.79 68.40 295.92 71.62 296.00 C 74.85 296.08 86.35 296.56 89.38 296.00 C 92.40 295.44 89.85 295.44 89.75 292.62 C 89.65 289.81 89.04 282.23 88.75 279.12 C 88.46 276.02 88.33 278.04 88.00 274.00 C 87.67 269.96 87.44 261.92 86.75 254.88 C 86.06 247.83 84.54 238.46 83.88 231.75 C 83.21 225.04 85.08 219.44 82.75 214.62 C 80.42 209.81 72.83 205.12 69.88 202.88 C 66.92 200.62 66.73 201.58 65.00 201.12 C 63.27 200.67 62.25 200.29 59.50 200.12 C 56.75 199.96 50.81 199.81 48.50 200.12 Z" id="s-2-f-1"/>
<path d="M 46.25 201.25 C 45.58 201.75 45.19 202.27 45.00 203.00 C 44.81 203.73 44.35 204.50 45.12 205.62 C 45.90 206.75 48.02 207.94 49.62 209.75 C 51.23 211.56 53.40 214.19 54.75 216.50 C 56.10 218.81 57.04 221.23 57.75 223.62 C 58.46 226.02 58.35 228.25 59.00 230.88 C 59.65 233.50 60.96 236.62 61.62 239.38 C 62.29 242.12 62.42 245.94 63.00 247.38 C 63.58 248.81 61.40 247.92 65.12 248.00 C 68.85 248.08 81.94 248.23 85.38 247.88 C 88.81 247.52 85.98 248.35 85.75 245.88 C 85.52 243.40 84.48 238.12 84.00 233.00 C 83.52 227.88 83.19 218.31 82.88 215.12 C 82.56 211.94 84.10 215.79 82.12 213.88 C 80.15 211.96 73.42 205.60 71.00 203.62 C 68.58 201.65 68.71 202.44 67.62 202.00 C 66.54 201.56 66.35 201.35 64.50 201.00 C 62.65 200.65 59.08 200.04 56.50 199.88 C 53.92 199.71 50.71 199.77 49.00 200.00 C 47.29 200.23 46.92 200.75 46.25 201.25 Z" id="s-2-f-2"/>
</g>
<g id="s-3" clip-path="url(#c-s-3)">
<use href="#s-3-f-0"/>
<path d="M 228.88 204.62 C 229.25 203.21 228.96 202.62 228.75 201.62 C 228.54 200.62 228.40 199.85 227.62 198.62 C 226.85 197.40 225.52 195.75 224.12 194.25 C 222.73 192.75 220.58 190.79 219.25 189.62 C 217.92 188.46 218.27 188.52 216.12 187.25 C 213.98 185.98 209.54 183.54 206.38 182.00 C 203.21 180.46 199.46 178.67 197.12 178.00 C 194.79 177.33 194.12 177.81 192.38 178.00 C 190.62 178.19 189.85 178.29 186.62 179.12 C 183.40 179.96 178.71 181.23 173.00 183.00 C 167.29 184.77 157.44 188.19 152.38 189.75 C 147.31 191.31 144.94 191.90 142.62 192.38 C 140.31 192.85 140.35 192.27 138.50 192.62 C 136.65 192.98 133.10 194.17 131.50 194.50 C 129.90 194.83 129.56 194.48 128.88 194.62 C 128.19 194.77 128.15 195.21 127.38 195.38 C 126.60 195.54 125.23 195.38 124.25 195.62 C 123.27 195.88 126.08 196.02 121.50 196.88 C 116.92 197.73 105.10 199.77 96.75 200.75 C 88.40 201.73 75.88 202.31 71.38 202.75 C 66.88 203.19 67.92 201.29 69.75 203.38 C 71.58 205.46 76.94 213.56 82.38 215.25 C 87.81 216.94 96.75 214.08 102.38 213.50 C 108.00 212.92 111.00 212.52 116.12 211.75 C 121.25 210.98 127.25 210.00 133.12 208.88 C 139.00 207.75 144.02 206.31 151.38 205.00 C 158.73 203.69 170.98 201.83 177.25 201.00 C 183.52 200.17 186.71 200.02 189.00 200.00 C 191.29 199.98 190.38 200.40 191.00 200.88 C 191.62 201.35 192.29 201.88 192.75 202.88 C 193.21 203.88 193.58 204.69 193.75 206.88 C 193.92 209.06 193.90 212.38 193.75 216.00 C 193.60 219.62 193.35 223.83 192.88 228.62 C 192.40 233.42 191.21 241.02 190.88 244.75 C 190.54 248.48 191.85 244.56 190.88 251.00 C 189.90 257.44 185.79 277.92 185.00 283.38 C 184.21 288.83 182.65 283.73 186.12 283.75 C 189.60 283.77 200.40 293.06 205.88 283.50 C 211.35 273.94 216.15 237.69 219.00 226.38 C 221.85 215.06 221.75 218.33 223.00 215.62 C 224.25 212.92 225.52 211.96 226.50 210.12 C 227.48 208.29 228.50 206.04 228.88 204.62 Z" id="s-3-f-1"/>
<path d="M 228.88 204.62 C 229.06 203.56 228.96 202.62 228.75 201.62 C 228.54 200.62 228.65 200.12 227.62 198.62 C 226.60 197.12 224.54 194.52 222.62 192.62 C 220.71 190.73 218.83 189.02 216.12 187.25 C 213.42 185.48 209.54 183.54 206.38 182.00 C 203.21 180.46 199.46 178.67 197.12 178.00 C 194.79 177.33 194.12 177.81 192.38 178.00 C 190.62 178.19 189.85 178.29 186.62 179.12 C 183.40 179.96 178.71 181.23 173.00 183.00 C 167.29 184.77 157.44 188.19 152.38 189.75 C 147.31 191.31 144.94 191.90 142.62 192.38 C 140.31 192.85 140.35 192.27 138.50 192.62 C 136.65 192.98 133.10 194.17 131.50 194.50 C 129.90 194.83 129.56 194.48 128.88 194.62 C 128.19 194.77 128.15 195.21 127.38 195.38 C 126.60 195.54 125.23 195.38 124.25 195.62 C 123.27 195.88 126.08 196.02 121.50 196.88 C 116.92 197.73 105.10 199.77 96.75 200.75 C 88.40 201.73 75.88 202.31 71.38 202.75 C 66.88 203.19 67.92 201.29 69.75 203.38 C 71.58 205.46 77.10 213.54 82.38 215.25 C 87.65 216.96 95.75 214.21 101.38 213.62 C 107.00 213.04 110.83 212.54 116.12 211.75 C 121.42 210.96 126.42 210.15 133.12 208.88 C 139.83 207.60 149.02 205.44 156.38 204.12 C 163.73 202.81 171.81 201.69 177.25 201.00 C 182.69 200.31 186.56 199.90 189.00 200.00 C 191.44 200.10 191.10 200.73 191.88 201.62 C 192.65 202.52 193.31 202.98 193.62 205.38 C 193.94 207.77 194.02 211.02 193.75 216.00 C 193.48 220.98 189.44 231.92 192.00 235.25 C 194.56 238.58 205.00 235.94 209.12 236.00 C 213.25 236.06 215.10 237.23 216.75 235.62 C 218.40 234.02 218.27 228.98 219.00 226.38 C 219.73 223.77 220.27 222.15 221.12 220.00 C 221.98 217.85 223.04 215.50 224.12 213.50 C 225.21 211.50 226.83 209.48 227.62 208.00 C 228.42 206.52 228.69 205.69 228.88 204.62 Z" id="s-3-f-2"/>
<path d="M 216.25 187.38 C 213.54 185.81 203.21 180.56 200.00 179.00 C 196.79 177.44 198.27 178.17 197.00 178.00 C 195.73 177.83 195.90 177.31 192.38 178.00 C 188.85 178.69 181.94 180.33 175.88 182.12 C 169.81 183.92 161.65 187.02 156.00 188.75 C 150.35 190.48 144.92 191.85 142.00 192.50 C 139.08 193.15 140.25 192.29 138.50 192.62 C 136.75 192.96 133.10 194.17 131.50 194.50 C 129.90 194.83 129.56 194.48 128.88 194.62 C 128.19 194.77 128.15 195.21 127.38 195.38 C 126.60 195.54 125.23 195.38 124.25 195.62 C 123.27 195.88 126.08 196.02 121.50 196.88 C 116.92 197.73 105.10 199.77 96.75 200.75 C 88.40 201.73 75.88 202.29 71.38 202.75 C 66.88 203.21 67.92 201.42 69.75 203.50 C 71.58 205.58 76.92 213.58 82.38 215.25 C 87.83 216.92 96.94 214.08 102.50 213.50 C 108.06 212.92 112.02 212.33 115.75 211.75 C 119.48 211.17 122.96 210.29 124.88 210.00 C 126.79 209.71 121.83 211.00 127.25 210.00 C 132.67 209.00 149.04 205.50 157.38 204.00 C 165.71 202.50 172.12 201.69 177.25 201.00 C 182.38 200.31 184.17 200.90 188.12 199.88 C 192.08 198.85 196.73 196.65 201.00 194.88 C 205.27 193.10 211.31 190.25 213.75 189.25 C 216.19 188.25 215.21 189.02 215.62 188.88 C 216.04 188.73 216.15 188.62 216.25 188.38 C 216.35 188.12 218.96 188.94 216.25 187.38 Z" id="s-3-f-3"/>
<path d="M 214.00 187.00 C 214.00 186.54 214.19 186.69 213.88 186.38 C 213.56 186.06 214.44 186.35 212.12 185.12 C 209.81 183.90 202.52 180.19 200.00 179.00 C 197.48 177.81 198.27 178.17 197.00 178.00 C 195.73 177.83 195.90 177.31 192.38 178.00 C 188.85 178.69 181.94 180.33 175.88 182.12 C 169.81 183.92 161.65 187.02 156.00 188.75 C 150.35 190.48 144.92 191.85 142.00 192.50 C 139.08 193.15 140.25 192.29 138.50 192.62 C 136.75 192.96 133.10 194.17 131.50 194.50 C 129.90 194.83 129.56 194.48 128.88 194.62 C 128.19 194.77 128.15 195.21 127.38 195.38 C 126.60 195.54 125.23 195.38 124.25 195.62 C 123.27 195.88 126.08 196.02 121.50 196.88 C 116.92 197.73 105.10 199.77 96.75 200.75 C 88.40 201.73 75.88 202.29 71.38 202.75 C 66.88 203.21 67.92 201.42 69.75 203.50 C 71.58 205.58 76.92 213.58 82.38 215.25 C 87.83 216.92 96.94 214.08 102.50 213.50 C 108.06 212.92 112.02 212.33 115.75 211.75 C 119.48 211.17 122.96 210.29 124.88 210.00 C 126.79 209.71 121.83 211.00 127.25 210.00 C 132.67 209.00 149.04 205.50 157.38 204.00 C 165.71 202.50 172.12 201.69 177.25 201.00 C 182.38 200.31 182.17 201.73 188.12 199.88 C 194.08 198.02 208.71 191.67 213.00 189.88 C 217.29 188.08 213.71 189.60 213.88 189.12 C 214.04 188.65 214.00 187.46 214.00 187.00 Z" id="s-3-f-4"/>
<path d="M 166.00 187.12 C 165.94 184.27 166.92 185.35 165.25 185.62 C 163.58 185.90 159.77 187.62 156.00 188.75 C 152.23 189.88 145.65 191.71 142.62 192.38 C 139.60 193.04 139.73 192.40 137.88 192.75 C 136.02 193.10 133.00 194.19 131.50 194.50 C 130.00 194.81 129.56 194.48 128.88 194.62 C 128.19 194.77 128.15 195.21 127.38 195.38 C 126.60 195.54 125.23 195.38 124.25 195.62 C 123.27 195.88 123.69 196.35 121.50 196.88 C 119.31 197.40 115.44 198.08 111.12 198.75 C 106.81 199.42 102.25 200.21 95.62 200.88 C 89.00 201.54 75.69 202.31 71.38 202.75 C 67.06 203.19 67.92 201.42 69.75 203.50 C 71.58 205.58 76.92 213.58 82.38 215.25 C 87.83 216.92 96.92 214.08 102.50 213.50 C 108.08 212.92 112.15 212.33 115.88 211.75 C 119.60 211.17 123.00 210.29 124.88 210.00 C 126.75 209.71 122.67 210.83 127.12 210.00 C 131.58 209.17 145.21 206.21 151.62 205.00 C 158.04 203.79 163.23 205.73 165.62 202.75 C 168.02 199.77 166.06 189.98 166.00 187.12 Z" id="s-3-f-5"/>
<path d="M 117.88 210.88 C 118.00 208.77 118.02 201.02 118.00 198.88 C 117.98 196.73 117.94 198.19 117.75 198.00 C 117.56 197.81 120.38 197.29 116.88 197.75 C 113.38 198.21 104.33 199.92 96.75 200.75 C 89.17 201.58 75.88 202.31 71.38 202.75 C 66.88 203.19 67.92 201.29 69.75 203.38 C 71.58 205.46 75.90 213.69 82.38 215.25 C 88.85 216.81 102.81 213.38 108.62 212.75 C 114.44 212.12 115.71 211.81 117.25 211.50 C 118.79 211.19 117.75 212.98 117.88 210.88 Z" id="s-3-f-6"/>
</g>
<g id="s-4" clip-path="url(#c-s-4)">
<use href="#s-4-f-0"/>
<path d="M 181.88 234.62 C 181.75 232.17 182.50 234.25 181.25 234.00 C 180.00 233.75 176.75 233.29 174.38 233.12 C 172.00 232.96 169.96 232.69 167.00 233.00 C 164.04 233.31 159.25 234.38 156.62 235.00 C 154.00 235.62 152.65 236.42 151.25 236.75 C 149.85 237.08 149.77 236.69 148.25 237.00 C 146.73 237.31 145.25 237.98 142.12 238.62 C 139.00 239.27 131.88 240.38 129.50 240.88 C 127.12 241.38 130.62 240.98 127.88 241.62 C 125.12 242.27 118.58 243.79 113.00 244.75 C 107.42 245.71 98.46 246.73 94.38 247.38 C 90.29 248.02 89.94 248.38 88.50 248.62 C 87.06 248.88 86.27 248.96 85.75 248.88 C 85.23 248.79 85.40 247.15 85.38 248.12 C 85.35 249.10 85.44 252.85 85.62 254.75 C 85.81 256.65 85.85 258.52 86.50 259.50 C 87.15 260.48 88.06 260.25 89.50 260.62 C 90.94 261.00 92.00 261.58 95.12 261.75 C 98.25 261.92 103.15 262.10 108.25 261.62 C 113.35 261.15 122.17 259.33 125.75 258.88 C 129.33 258.42 125.83 259.38 129.75 258.88 C 133.67 258.38 144.10 256.56 149.25 255.88 C 154.40 255.19 155.21 255.69 160.62 254.75 C 166.04 253.81 178.19 251.25 181.75 250.25 C 185.31 249.25 181.98 251.35 182.00 248.75 C 182.02 246.15 182.00 237.08 181.88 234.62 Z" id="s-4-f-1"/>
<path d="M 133.88 240.75 C 133.69 238.02 133.56 240.35 132.88 240.38 C 132.19 240.40 132.17 240.31 129.75 240.88 C 127.33 241.44 125.65 242.42 118.38 243.75 C 111.10 245.08 91.60 248.04 86.12 248.88 C 80.65 249.71 85.62 248.88 85.50 248.75 C 85.38 248.62 85.35 247.12 85.38 248.12 C 85.40 249.12 85.44 252.85 85.62 254.75 C 85.81 256.65 85.04 258.35 86.50 259.50 C 87.96 260.65 91.46 261.23 94.38 261.62 C 97.29 262.02 97.48 262.46 104.00 261.88 C 110.52 261.29 128.50 258.98 133.50 258.12 C 138.50 257.27 133.94 259.65 134.00 256.75 C 134.06 253.85 134.06 243.48 133.88 240.75 Z" id="s-4-f-2"/>
</g>
<g id="s-5" clip-path="url(#c-s-5)">
<use href="#s-5-f-0"/>
<path d="M 151.50 204.75 C 150.92 204.17 149.12 204.52 148.38 204.62 C 147.62 204.73 147.85 205.21 147.00 205.38 C 146.15 205.54 144.06 205.46 143.25 205.62 C 142.44 205.79 142.98 206.21 142.12 206.38 C 141.27 206.54 139.00 206.46 138.12 206.62 C 137.25 206.79 137.83 207.21 136.88 207.38 C 135.92 207.54 133.33 207.46 132.38 207.62 C 131.42 207.79 131.94 208.21 131.12 208.38 C 130.31 208.54 128.38 208.48 127.50 208.62 C 126.62 208.77 125.98 204.06 125.88 209.25 C 125.77 214.44 126.77 232.54 126.88 239.75 C 126.98 246.96 126.50 250.27 126.50 252.50 C 126.50 254.73 123.19 253.00 126.88 253.12 C 130.56 253.25 144.79 253.31 148.62 253.25 C 152.46 253.19 149.44 255.02 149.88 252.75 C 150.31 250.48 151.04 244.77 151.25 239.62 C 151.46 234.48 151.02 227.12 151.12 221.88 C 151.23 216.62 151.81 210.98 151.88 208.12 C 151.94 205.27 152.08 205.33 151.50 204.75 Z" id="s-5-f-1"/>
</g>
<g id="s-6" clip-path="url(#c-s-6)">
<use href="#s-6-f-0"/>
<path d="M 137.88 289.38 C 137.69 286.81 137.25 288.60 136.88 288.62 C 136.50 288.65 137.17 289.17 135.62 289.50 C 134.08 289.83 129.10 290.29 127.62 290.62 C 126.15 290.96 130.12 290.81 126.75 291.50 C 123.38 292.19 113.48 293.85 107.38 294.75 C 101.27 295.65 93.10 296.46 90.12 296.88 C 87.15 297.29 89.60 295.15 89.50 297.25 C 89.40 299.35 89.00 307.25 89.50 309.50 C 90.00 311.75 90.35 310.56 92.50 310.75 C 94.65 310.94 94.90 311.46 102.38 310.62 C 109.85 309.79 131.44 306.85 137.38 305.75 C 143.31 304.65 137.92 306.73 138.00 304.00 C 138.08 301.27 138.06 291.94 137.88 289.38 Z" id="s-6-f-1"/>
</g>
<g id="s-7" clip-path="url(#c-s-7)">
<use href="#s-7-f-0"/>
<path d="M 54.38 340.12 C 53.60 339.69 52.69 339.75 52.00 340.00 C 51.31 340.25 50.73 340.88 50.25 341.62 C 49.77 342.38 49.40 343.50 49.12 344.50 C 48.85 345.50 49.54 345.06 48.62 347.62 C 47.71 350.19 45.60 355.52 43.62 359.88 C 41.65 364.23 39.17 369.15 36.75 373.75 C 34.33 378.35 28.71 385.12 29.12 387.50 C 29.54 389.88 34.04 387.92 39.25 388.00 C 44.46 388.08 56.46 388.06 60.38 388.00 C 64.29 387.94 62.04 389.23 62.75 387.62 C 63.46 386.02 64.29 382.10 64.62 378.38 C 64.96 374.65 65.40 369.65 64.75 365.25 C 64.10 360.85 62.10 355.77 60.75 352.00 C 59.40 348.23 57.69 344.60 56.62 342.62 C 55.56 340.65 55.15 340.56 54.38 340.12 Z" id="s-7-f-1"/>
</g>
<g id="s-8" clip-path="url(#c-s-8)">
<use href="#s-8-f-0"/>
<path d="M 85.62 346.12 C 84.54 346.38 84.25 346.88 84.00 347.50 C 83.75 348.12 83.83 349.02 84.12 349.88 C 84.42 350.73 84.60 349.50 85.75 352.62 C 86.90 355.75 89.27 363.75 91.00 368.62 C 92.73 373.50 94.31 377.77 96.12 381.88 C 97.94 385.98 100.60 391.23 101.88 393.25 C 103.15 395.27 101.38 393.88 103.75 394.00 C 106.12 394.12 113.79 394.06 116.12 394.00 C 118.46 393.94 117.31 394.02 117.75 393.62 C 118.19 393.23 118.42 392.65 118.75 391.62 C 119.08 390.60 119.58 389.90 119.75 387.50 C 119.92 385.10 119.94 380.08 119.75 377.25 C 119.56 374.42 119.29 372.81 118.62 370.50 C 117.96 368.19 116.94 365.42 115.75 363.38 C 114.56 361.33 113.08 359.81 111.50 358.25 C 109.92 356.69 109.23 355.88 106.25 354.00 C 103.27 352.12 96.25 348.33 93.62 347.00 C 91.00 345.67 91.83 346.15 90.50 346.00 C 89.17 345.85 86.71 345.88 85.62 346.12 Z" id="s-8-f-1"/>
</g>
<g id="s-9" clip-path="url(#c-s-9)">
<use href="#s-9-f-0"/>
<path d="M 130.38 340.00 C 129.67 340.21 129.94 340.52 129.88 341.25 C 129.81 341.98 129.62 342.81 130.00 344.38 C 130.38 345.94 130.12 345.79 132.12 350.62 C 134.12 355.46 139.21 367.58 142.00 373.38 C 144.79 379.17 147.44 383.00 148.88 385.38 C 150.31 387.75 150.10 387.19 150.62 387.62 C 151.15 388.06 149.71 387.98 152.00 388.00 C 154.29 388.02 162.08 388.50 164.38 387.75 C 166.67 387.00 165.52 386.10 165.75 383.50 C 165.98 380.90 166.08 375.67 165.75 372.12 C 165.42 368.58 164.56 364.96 163.75 362.25 C 162.94 359.54 162.27 357.75 160.88 355.88 C 159.48 354.00 157.60 352.65 155.38 351.00 C 153.15 349.35 150.44 347.65 147.50 346.00 C 144.56 344.35 139.98 342.12 137.75 341.12 C 135.52 340.12 135.35 340.19 134.12 340.00 C 132.90 339.81 131.08 339.79 130.38 340.00 Z" id="s-9-f-1"/>
</g>
<g id="s-10" clip-path="url(#c-s-10)">
<use href="#s-10-f-0"/>
<path d="M 173.38 332.00 C 172.69 332.19 172.94 332.60 172.88 333.25 C 172.81 333.90 172.79 334.94 173.00 335.88 C 173.21 336.81 172.71 335.92 174.12 338.88 C 175.54 341.83 178.40 346.85 181.50 353.62 C 184.60 360.40 190.56 375.10 192.75 379.50 C 194.94 383.90 190.79 379.94 194.62 380.00 C 198.46 380.06 212.08 380.19 215.75 379.88 C 219.42 379.56 216.46 380.00 216.62 378.12 C 216.79 376.25 216.90 370.98 216.75 368.62 C 216.60 366.27 216.42 365.90 215.75 364.00 C 215.08 362.10 213.94 359.29 212.75 357.25 C 211.56 355.21 210.40 353.62 208.62 351.75 C 206.85 349.88 205.19 348.29 202.12 346.00 C 199.06 343.71 194.44 340.31 190.25 338.00 C 186.06 335.69 179.81 333.12 177.00 332.12 C 174.19 331.12 174.06 331.81 173.38 332.00 Z" id="s-10-f-1"/>
</g>
<g id="s-11" clip-path="url(#c-s-11)">
<use href="#s-11-f-0"/>
<path d="M 410.88 61.62 C 410.73 60.56 410.25 58.88 409.75 57.75 C 409.25 56.62 408.85 56.02 407.88 54.88 C 406.90 53.73 405.40 52.19 403.88 50.88 C 402.35 49.56 401.33 48.65 398.75 47.00 C 396.17 45.35 391.75 42.81 388.38 41.00 C 385.00 39.19 381.17 37.29 378.50 36.12 C 375.83 34.96 373.77 34.38 372.38 34.00 C 370.98 33.62 371.56 33.69 370.12 33.88 C 368.69 34.06 369.71 33.31 363.75 35.12 C 357.79 36.94 339.71 43.10 334.38 44.75 C 329.04 46.40 332.92 44.69 331.75 45.00 C 330.58 45.31 333.10 45.19 327.38 46.62 C 321.65 48.06 305.04 51.94 297.38 53.62 C 289.71 55.31 286.42 55.90 281.38 56.75 C 276.33 57.60 273.58 58.02 267.12 58.75 C 260.67 59.48 247.21 60.46 242.62 61.12 C 238.04 61.79 240.23 62.35 239.62 62.75 C 239.02 63.15 239.08 62.88 239.00 63.50 C 238.92 64.12 238.69 65.50 239.12 66.50 C 239.56 67.50 239.96 68.15 241.62 69.50 C 243.29 70.85 246.44 73.10 249.12 74.62 C 251.81 76.15 255.69 77.77 257.75 78.62 C 259.81 79.48 260.38 79.54 261.50 79.75 C 262.62 79.96 261.79 80.38 264.50 79.88 C 267.21 79.38 272.33 78.40 277.75 76.75 C 283.17 75.10 289.06 72.60 297.00 70.00 C 304.94 67.40 319.48 62.83 325.38 61.12 C 331.27 59.42 330.98 60.10 332.38 59.75 C 333.77 59.40 332.31 59.35 333.75 59.00 C 335.19 58.65 339.60 57.96 341.00 57.62 C 342.40 57.29 341.44 57.15 342.12 57.00 C 342.81 56.85 344.25 56.94 345.12 56.75 C 346.00 56.56 346.33 56.06 347.38 55.88 C 348.42 55.69 350.38 55.77 351.38 55.62 C 352.38 55.48 352.62 55.08 353.38 55.00 C 354.12 54.92 355.10 54.92 355.88 55.12 C 356.65 55.33 357.38 55.62 358.00 56.25 C 358.62 56.88 359.33 58.02 359.62 58.88 C 359.92 59.73 359.90 60.60 359.75 61.38 C 359.60 62.15 361.25 60.21 358.75 63.50 C 356.25 66.79 348.73 76.29 344.75 81.12 C 340.77 85.96 335.83 90.52 334.88 92.50 C 333.92 94.48 334.90 92.92 339.00 93.00 C 343.10 93.08 355.75 93.06 359.50 93.00 C 363.25 92.94 359.29 93.96 361.50 92.62 C 363.71 91.29 369.21 87.25 372.75 85.00 C 376.29 82.75 377.12 82.00 382.75 79.12 C 388.38 76.25 401.85 70.25 406.50 67.75 C 411.15 65.25 409.90 65.15 410.62 64.12 C 411.35 63.10 411.02 62.69 410.88 61.62 Z" id="s-11-f-1"/>
<path d="M 394.25 44.62 C 393.48 43.83 391.00 42.42 388.38 41.00 C 385.75 39.58 381.10 37.27 378.50 36.12 C 375.90 34.98 374.46 34.48 372.75 34.12 C 371.04 33.77 370.29 33.67 368.25 34.00 C 366.21 34.33 363.96 35.00 360.50 36.12 C 357.04 37.25 351.85 39.31 347.50 40.75 C 343.15 42.19 342.73 42.60 334.38 44.75 C 326.02 46.90 306.25 51.62 297.38 53.62 C 288.50 55.62 286.19 55.90 281.12 56.75 C 276.06 57.60 273.38 58.02 267.00 58.75 C 260.62 59.48 247.31 60.58 242.88 61.12 C 238.44 61.67 241.02 61.60 240.38 62.00 C 239.73 62.40 239.21 62.75 239.00 63.50 C 238.79 64.25 238.69 65.50 239.12 66.50 C 239.56 67.50 239.96 68.15 241.62 69.50 C 243.29 70.85 246.85 73.27 249.12 74.62 C 251.40 75.98 253.35 76.81 255.25 77.62 C 257.15 78.44 258.77 79.15 260.50 79.50 C 262.23 79.85 262.75 80.21 265.62 79.75 C 268.50 79.29 272.00 78.54 277.75 76.75 C 283.50 74.96 292.17 71.60 300.12 69.00 C 308.08 66.40 318.54 63.12 325.50 61.12 C 332.46 59.12 336.17 58.21 341.88 57.00 C 347.58 55.79 355.79 54.69 359.75 53.88 C 363.71 53.06 364.23 52.46 365.62 52.12 C 367.02 51.79 366.75 52.21 368.12 51.88 C 369.50 51.54 369.73 51.15 373.88 50.12 C 378.02 49.10 389.60 46.67 393.00 45.75 C 396.40 44.83 395.02 45.42 394.25 44.62 Z" id="s-11-f-2"/>
<path d="M 383.00 39.12 C 382.94 37.60 384.25 38.94 382.62 38.12 C 381.00 37.31 375.27 34.96 373.25 34.25 C 371.23 33.54 371.46 33.90 370.50 33.88 C 369.54 33.85 373.52 32.31 367.50 34.12 C 361.48 35.94 346.06 41.50 334.38 44.75 C 322.69 48.00 306.25 51.62 297.38 53.62 C 288.50 55.62 286.17 55.90 281.12 56.75 C 276.08 57.60 273.50 58.02 267.12 58.75 C 260.75 59.48 247.33 60.58 242.88 61.12 C 238.42 61.67 241.02 61.60 240.38 62.00 C 239.73 62.40 239.23 62.79 239.00 63.50 C 238.77 64.21 238.62 65.31 239.00 66.25 C 239.38 67.19 240.31 68.19 241.25 69.12 C 242.19 70.06 242.56 70.58 244.62 71.88 C 246.69 73.17 250.79 75.56 253.62 76.88 C 256.46 78.19 259.48 79.29 261.62 79.75 C 263.77 80.21 263.81 80.12 266.50 79.62 C 269.19 79.12 270.60 79.02 277.75 76.75 C 284.90 74.48 300.73 68.79 309.38 66.00 C 318.02 63.21 323.44 61.67 329.62 60.00 C 335.81 58.33 341.50 57.02 346.50 56.00 C 351.50 54.98 353.96 55.08 359.62 53.88 C 365.29 52.67 376.69 49.73 380.50 48.75 C 384.31 47.77 382.08 48.25 382.50 48.00 C 382.92 47.75 382.92 48.73 383.00 47.25 C 383.08 45.77 383.06 40.65 383.00 39.12 Z" id="s-11-f-3"/>
<path d="M 334.88 45.12 C 334.79 42.98 334.90 44.77 334.50 44.75 C 334.10 44.73 334.35 44.52 332.50 45.00 C 330.65 45.48 329.23 46.19 323.38 47.62 C 317.52 49.06 304.40 52.10 297.38 53.62 C 290.35 55.15 287.33 55.77 281.25 56.75 C 275.17 57.73 267.27 58.77 260.88 59.50 C 254.48 60.23 246.23 60.73 242.88 61.12 C 239.52 61.52 241.38 61.50 240.75 61.88 C 240.12 62.25 239.42 62.65 239.12 63.38 C 238.83 64.10 238.67 65.31 239.00 66.25 C 239.33 67.19 240.19 68.06 241.12 69.00 C 242.06 69.94 242.54 70.56 244.62 71.88 C 246.71 73.19 250.79 75.56 253.62 76.88 C 256.46 78.19 259.38 79.31 261.62 79.75 C 263.88 80.19 264.44 80.00 267.12 79.50 C 269.81 79.00 269.83 79.27 277.75 76.75 C 285.67 74.23 305.17 67.35 314.62 64.38 C 324.08 61.40 331.10 60.00 334.50 58.88 C 337.90 57.75 334.94 59.92 335.00 57.62 C 335.06 55.33 334.96 47.27 334.88 45.12 Z" id="s-11-f-4"/>
<path d="M 286.75 57.00 C 286.65 54.35 286.65 56.19 286.38 56.00 C 286.10 55.81 288.35 55.42 285.12 55.88 C 281.90 56.33 274.08 57.88 267.00 58.75 C 259.92 59.62 247.00 60.60 242.62 61.12 C 238.25 61.65 241.33 61.50 240.75 61.88 C 240.17 62.25 239.42 62.65 239.12 63.38 C 238.83 64.10 238.67 65.31 239.00 66.25 C 239.33 67.19 240.19 68.06 241.12 69.00 C 242.06 69.94 242.54 70.56 244.62 71.88 C 246.71 73.19 250.92 75.58 253.62 76.88 C 256.33 78.17 258.71 79.17 260.88 79.62 C 263.04 80.08 264.23 79.98 266.62 79.62 C 269.02 79.27 271.92 78.50 275.25 77.50 C 278.58 76.50 284.67 74.56 286.62 73.62 C 288.58 72.69 286.98 74.65 287.00 71.88 C 287.02 69.10 286.85 59.65 286.75 57.00 Z" id="s-11-f-5"/>
</g>
<g id="s-12" clip-path="url(#c-s-12)">
<use href="#s-12-f-0"/>
</g>
<g id="s-13" clip-path="url(#c-s-13)">
<use href="#s-13-f-0"/>
<path d="M 451.88 143.62 C 451.71 142.58 451.38 140.92 450.62 139.50 C 449.88 138.08 449.44 137.04 447.38 135.12 C 445.31 133.21 442.98 130.83 438.25 128.00 C 433.52 125.17 423.12 120.10 419.00 118.12 C 414.88 116.15 415.38 116.48 413.50 116.12 C 411.62 115.77 414.79 114.40 407.75 116.00 C 400.71 117.60 382.04 123.15 371.25 125.75 C 360.46 128.35 348.17 130.65 343.00 131.62 C 337.83 132.60 340.90 131.50 340.25 131.62 C 339.60 131.75 339.69 132.21 339.12 132.38 C 338.56 132.54 338.71 132.08 336.88 132.62 C 335.04 133.17 330.40 135.06 328.12 135.62 C 325.85 136.19 327.02 135.33 323.25 136.00 C 319.48 136.67 311.75 138.54 305.50 139.62 C 299.25 140.71 292.46 141.65 285.75 142.50 C 279.04 143.35 273.98 144.00 265.25 144.75 C 256.52 145.50 239.06 146.50 233.38 147.00 C 227.69 147.50 231.79 147.42 231.12 147.75 C 230.46 148.08 229.75 148.40 229.38 149.00 C 229.00 149.60 228.90 150.81 228.88 151.38 C 228.85 151.94 228.67 151.65 229.25 152.38 C 229.83 153.10 230.67 154.33 232.38 155.75 C 234.08 157.17 236.81 159.38 239.50 160.88 C 242.19 162.38 246.38 163.94 248.50 164.75 C 250.62 165.56 251.00 165.56 252.25 165.75 C 253.50 165.94 250.17 167.04 256.00 165.88 C 261.83 164.71 277.67 161.06 287.25 158.75 C 296.83 156.44 305.65 153.81 313.50 152.00 C 321.35 150.19 326.77 149.54 334.38 147.88 C 341.98 146.21 352.33 143.44 359.12 142.00 C 365.92 140.56 371.27 139.81 375.12 139.25 C 378.98 138.69 380.75 138.83 382.25 138.62 C 383.75 138.42 381.79 138.27 384.12 138.00 C 386.46 137.73 393.85 137.02 396.25 137.00 C 398.65 136.98 397.90 137.50 398.50 137.88 C 399.10 138.25 399.50 138.65 399.88 139.25 C 400.25 139.85 400.65 140.73 400.75 141.50 C 400.85 142.27 402.00 140.85 400.50 143.88 C 399.00 146.90 394.85 154.50 391.75 159.62 C 388.65 164.75 383.31 172.06 381.88 174.62 C 380.44 177.19 380.19 174.96 383.12 175.00 C 386.06 175.04 393.44 177.06 399.50 174.88 C 405.56 172.69 414.73 164.85 419.50 161.88 C 424.27 158.90 423.17 159.33 428.12 157.00 C 433.08 154.67 445.33 149.75 449.25 147.88 C 453.17 146.00 451.19 146.46 451.62 145.75 C 452.06 145.04 452.04 144.67 451.88 143.62 Z" id="s-13-f-1"/>
<path d="M 435.25 126.38 C 432.56 124.90 422.62 119.83 419.00 118.12 C 415.38 116.42 415.35 116.48 413.50 116.12 C 411.65 115.77 415.65 114.23 407.88 116.00 C 400.10 117.77 377.69 124.15 366.88 126.75 C 356.06 129.35 347.44 130.81 343.00 131.62 C 338.56 132.44 340.90 131.50 340.25 131.62 C 339.60 131.75 340.25 132.04 339.12 132.38 C 338.00 132.71 335.10 133.12 333.50 133.62 C 331.90 134.12 331.21 134.98 329.50 135.38 C 327.79 135.77 327.27 135.29 323.25 136.00 C 319.23 136.71 311.60 138.54 305.38 139.62 C 299.15 140.71 292.56 141.65 285.88 142.50 C 279.19 143.35 274.00 144.00 265.25 144.75 C 256.50 145.50 239.19 146.46 233.38 147.00 C 227.56 147.54 231.10 147.58 230.38 148.00 C 229.65 148.42 229.25 148.94 229.00 149.50 C 228.75 150.06 228.44 150.46 228.88 151.38 C 229.31 152.29 229.85 153.42 231.62 155.00 C 233.40 156.58 237.12 159.42 239.50 160.88 C 241.88 162.33 243.88 162.96 245.88 163.75 C 247.88 164.54 249.60 165.29 251.50 165.62 C 253.40 165.96 249.81 167.25 257.25 165.75 C 264.69 164.25 286.75 158.92 296.12 156.62 C 305.50 154.33 306.38 153.62 313.50 152.00 C 320.62 150.38 331.27 148.54 338.88 146.88 C 346.48 145.21 353.08 143.27 359.12 142.00 C 365.17 140.73 369.08 140.10 375.12 139.25 C 381.17 138.40 391.02 137.46 395.38 136.88 C 399.73 136.29 394.81 137.27 401.25 135.75 C 407.69 134.23 428.35 129.21 434.00 127.75 C 439.65 126.29 434.92 127.23 435.12 127.00 C 435.33 126.77 437.94 127.85 435.25 126.38 Z" id="s-13-f-2"/>
<path d="M 420.88 119.38 C 420.54 117.44 420.23 118.67 419.00 118.12 C 417.77 117.58 415.35 116.48 413.50 116.12 C 411.65 115.77 415.65 114.23 407.88 116.00 C 400.10 117.77 377.69 124.15 366.88 126.75 C 356.06 129.35 347.44 130.81 343.00 131.62 C 338.56 132.44 340.90 131.50 340.25 131.62 C 339.60 131.75 340.25 132.04 339.12 132.38 C 338.00 132.71 335.10 133.12 333.50 133.62 C 331.90 134.12 331.21 134.98 329.50 135.38 C 327.79 135.77 327.27 135.29 323.25 136.00 C 319.23 136.71 311.60 138.54 305.38 139.62 C 299.15 140.71 292.56 141.65 285.88 142.50 C 279.19 143.35 274.00 144.00 265.25 144.75 C 256.50 145.50 239.19 146.46 233.38 147.00 C 227.56 147.54 231.10 147.58 230.38 148.00 C 229.65 148.42 229.25 148.94 229.00 149.50 C 228.75 150.06 228.75 150.79 228.88 151.38 C 229.00 151.96 229.12 152.25 229.75 153.00 C 230.38 153.75 230.79 154.46 232.62 155.88 C 234.46 157.29 237.60 159.88 240.75 161.50 C 243.90 163.12 248.58 164.94 251.50 165.62 C 254.42 166.31 250.81 167.12 258.25 165.62 C 265.69 164.12 286.92 158.90 296.12 156.62 C 305.33 154.35 306.38 153.62 313.50 152.00 C 320.62 150.38 331.27 148.54 338.88 146.88 C 346.48 145.21 351.94 143.44 359.12 142.00 C 366.31 140.56 375.81 139.12 382.00 138.25 C 388.19 137.38 389.85 137.96 396.25 136.75 C 402.65 135.54 416.25 132.17 420.38 131.00 C 424.50 129.83 420.92 131.69 421.00 129.75 C 421.08 127.81 421.21 121.31 420.88 119.38 Z" id="s-13-f-3"/>
<path d="M 373.00 126.00 C 372.90 123.79 377.38 124.31 372.38 125.25 C 367.38 126.19 348.35 130.56 343.00 131.62 C 337.65 132.69 340.90 131.50 340.25 131.62 C 339.60 131.75 340.25 132.04 339.12 132.38 C 338.00 132.71 335.17 133.10 333.50 133.62 C 331.83 134.15 330.83 135.10 329.12 135.50 C 327.42 135.90 325.46 135.62 323.25 136.00 C 321.04 136.38 320.02 136.96 315.88 137.75 C 311.73 138.54 306.79 139.58 298.38 140.75 C 289.96 141.92 276.33 143.69 265.38 144.75 C 254.42 145.81 238.58 146.46 232.62 147.12 C 226.67 147.79 230.23 148.35 229.62 148.75 C 229.02 149.15 229.12 149.06 229.00 149.50 C 228.88 149.94 228.75 150.79 228.88 151.38 C 229.00 151.96 229.12 152.25 229.75 153.00 C 230.38 153.75 230.79 154.46 232.62 155.88 C 234.46 157.29 237.60 159.88 240.75 161.50 C 243.90 163.12 248.58 164.94 251.50 165.62 C 254.42 166.31 250.92 167.10 258.25 165.62 C 265.58 164.15 286.31 159.02 295.50 156.75 C 304.69 154.48 310.02 152.81 313.38 152.00 C 316.73 151.19 311.38 152.73 315.62 151.88 C 319.88 151.02 331.62 148.52 338.88 146.88 C 346.12 145.23 353.52 143.19 359.12 142.00 C 364.73 140.81 370.19 140.33 372.50 139.75 C 374.81 139.17 372.92 140.79 373.00 138.50 C 373.08 136.21 373.10 128.21 373.00 126.00 Z" id="s-13-f-4"/>
<path d="M 325.00 136.62 C 324.73 134.40 326.65 135.48 323.25 136.00 C 319.85 136.52 312.60 138.46 304.62 139.75 C 296.65 141.04 287.33 142.52 275.38 143.75 C 263.42 144.98 240.38 146.42 232.88 147.12 C 225.38 147.83 231.00 147.65 230.38 148.00 C 229.75 148.35 229.38 148.69 229.12 149.25 C 228.88 149.81 228.46 150.42 228.88 151.38 C 229.29 152.33 229.85 153.42 231.62 155.00 C 233.40 156.58 237.12 159.42 239.50 160.88 C 241.88 162.33 243.88 162.96 245.88 163.75 C 247.88 164.54 249.56 165.29 251.50 165.62 C 253.44 165.96 250.17 167.23 257.50 165.75 C 264.83 164.27 286.19 159.04 295.50 156.75 C 304.81 154.46 308.60 153.12 313.38 152.00 C 318.15 150.88 322.21 150.44 324.12 150.00 C 326.04 149.56 324.73 151.60 324.88 149.38 C 325.02 147.15 325.27 138.85 325.00 136.62 Z" id="s-13-f-5"/>
<path d="M 276.88 160.50 C 277.17 157.77 277.00 147.88 277.00 145.12 C 277.00 142.38 276.98 144.25 276.88 144.00 C 276.77 143.75 283.62 143.12 276.38 143.62 C 269.12 144.12 241.04 146.25 233.38 147.00 C 225.71 147.75 231.12 147.58 230.38 148.12 C 229.62 148.67 229.10 149.60 228.88 150.25 C 228.65 150.90 228.71 151.38 229.00 152.00 C 229.29 152.62 228.88 152.52 230.62 154.00 C 232.38 155.48 236.96 159.25 239.50 160.88 C 242.04 162.50 243.88 162.96 245.88 163.75 C 247.88 164.54 249.44 165.31 251.50 165.62 C 253.56 165.94 254.29 166.31 258.25 165.62 C 262.21 164.94 272.15 162.35 275.25 161.50 C 278.35 160.65 276.58 163.23 276.88 160.50 Z" id="s-13-f-6"/>
</g>
<g id="s-14" clip-path="url(#c-s-14)">
<use href="#s-14-f-0"/>
<path d="M 344.25 144.75 C 343.75 144.81 342.46 145.35 341.50 145.50 C 340.54 145.65 339.27 145.46 338.50 145.62 C 337.73 145.79 337.60 146.33 336.88 146.50 C 336.15 146.67 334.81 146.42 334.12 146.62 C 333.44 146.83 332.33 143.98 332.75 147.75 C 333.17 151.52 335.96 164.17 336.62 169.25 C 337.29 174.33 336.88 174.83 336.75 178.25 C 336.62 181.67 336.19 186.73 335.88 189.75 C 335.56 192.77 335.19 194.79 334.88 196.38 C 334.56 197.96 334.40 197.08 334.00 199.25 C 333.60 201.42 333.04 206.69 332.50 209.38 C 331.96 212.06 331.21 208.25 330.75 215.38 C 330.29 222.50 329.81 245.75 329.75 252.12 C 329.69 258.50 329.85 252.96 330.38 253.62 C 330.90 254.29 331.94 255.42 332.88 256.12 C 333.81 256.83 334.90 257.62 336.00 257.88 C 337.10 258.12 338.31 257.98 339.50 257.62 C 340.69 257.27 341.54 256.88 343.12 255.75 C 344.71 254.62 347.56 252.27 349.00 250.88 C 350.44 249.48 350.98 248.56 351.75 247.38 C 352.52 246.19 352.96 245.46 353.62 243.75 C 354.29 242.04 355.08 240.19 355.75 237.12 C 356.42 234.06 357.31 233.44 357.62 225.38 C 357.94 217.31 357.94 200.08 357.62 188.75 C 357.31 177.42 356.23 162.98 355.75 157.38 C 355.27 151.77 355.40 156.10 354.75 155.12 C 354.10 154.15 352.94 152.52 351.88 151.50 C 350.81 150.48 349.81 149.88 348.38 149.00 C 346.94 148.12 343.90 146.90 343.25 146.25 C 342.60 145.60 344.33 145.38 344.50 145.12 C 344.67 144.88 344.75 144.69 344.25 144.75 Z" id="s-14-f-1"/>
<path d="M 344.25 144.75 C 343.75 144.81 342.46 145.35 341.50 145.50 C 340.54 145.65 339.27 145.46 338.50 145.62 C 337.73 145.79 337.60 146.33 336.88 146.50 C 336.15 146.67 334.81 146.42 334.12 146.62 C 333.44 146.83 332.33 143.98 332.75 147.75 C 333.17 151.52 335.96 164.17 336.62 169.25 C 337.29 174.33 336.88 174.83 336.75 178.25 C 336.62 181.67 336.19 186.73 335.88 189.75 C 335.56 192.77 335.19 194.79 334.88 196.38 C 334.56 197.96 334.35 197.29 334.00 199.25 C 333.65 201.21 333.29 205.44 332.75 208.12 C 332.21 210.81 331.23 210.52 330.75 215.38 C 330.27 220.23 329.94 232.83 329.88 237.25 C 329.81 241.67 326.40 241.10 330.38 241.88 C 334.35 242.65 349.69 242.08 353.75 241.88 C 357.81 241.67 354.25 242.27 354.75 240.62 C 355.25 238.98 356.23 235.33 356.75 232.00 C 357.27 228.67 357.69 226.00 357.88 220.62 C 358.06 215.25 358.06 208.21 357.88 199.75 C 357.69 191.29 357.10 176.94 356.75 169.88 C 356.40 162.81 356.08 159.83 355.75 157.38 C 355.42 154.92 355.40 156.10 354.75 155.12 C 354.10 154.15 352.94 152.52 351.88 151.50 C 350.81 150.48 349.81 149.88 348.38 149.00 C 346.94 148.12 343.90 146.90 343.25 146.25 C 342.60 145.60 344.33 145.38 344.50 145.12 C 344.67 144.88 344.75 144.69 344.25 144.75 Z" id="s-14-f-2"/>
<path d="M 334.12 146.62 C 333.44 146.83 332.96 147.17 332.75 147.75 C 332.54 148.33 332.21 146.31 332.88 150.12 C 333.54 153.94 336.12 165.54 336.75 170.62 C 337.38 175.71 336.85 176.79 336.62 180.62 C 336.40 184.46 335.27 191.40 335.38 193.62 C 335.48 195.85 333.60 193.96 337.25 194.00 C 340.90 194.04 353.83 193.96 357.25 193.88 C 360.67 193.79 358.02 199.67 357.75 193.50 C 357.48 187.33 356.31 163.56 355.62 156.88 C 354.94 150.19 354.40 154.40 353.62 153.38 C 352.85 152.35 352.73 151.94 351.00 150.75 C 349.27 149.56 344.33 147.19 343.25 146.25 C 342.17 145.31 344.33 145.38 344.50 145.12 C 344.67 144.88 344.75 144.69 344.25 144.75 C 343.75 144.81 342.46 145.35 341.50 145.50 C 340.54 145.65 339.27 145.46 338.50 145.62 C 337.73 145.79 337.60 146.33 336.88 146.50 C 336.15 146.67 334.81 146.42 334.12 146.62 Z" id="s-14-f-3"/>
</g>
<g id="s-15" clip-path="url(#c-s-15)">
<use href="#s-15-f-0"/>
<path d="M 344.62 144.88 C 344.56 144.54 343.27 144.65 342.75 144.75 C 342.23 144.85 342.25 145.35 341.50 145.50 C 340.75 145.65 339.06 145.46 338.25 145.62 C 337.44 145.79 337.42 146.33 336.62 146.50 C 335.83 146.67 334.23 146.46 333.50 146.62 C 332.77 146.79 332.96 147.33 332.25 147.50 C 331.54 147.67 329.96 147.48 329.25 147.62 C 328.54 147.77 328.81 148.21 328.00 148.38 C 327.19 148.54 325.15 148.46 324.38 148.62 C 323.60 148.79 324.17 149.21 323.38 149.38 C 322.58 149.54 320.46 149.46 319.62 149.62 C 318.79 149.79 319.10 150.21 318.38 150.38 C 317.65 150.54 316.06 150.31 315.25 150.62 C 314.44 150.94 313.96 151.94 313.50 152.25 C 313.04 152.56 312.69 152.25 312.50 152.50 C 312.31 152.75 313.48 151.79 312.38 153.75 C 311.27 155.71 307.83 161.29 305.88 164.25 C 303.92 167.21 302.85 168.67 300.62 171.50 C 298.40 174.33 297.04 176.56 292.50 181.25 C 287.96 185.94 278.06 195.25 273.38 199.62 C 268.69 204.00 267.88 204.60 264.38 207.50 C 260.88 210.40 255.29 214.56 252.38 217.00 C 249.46 219.44 247.79 219.31 246.88 222.12 C 245.96 224.94 246.75 231.85 246.88 233.88 C 247.00 235.90 245.73 234.92 247.62 234.25 C 249.52 233.58 253.65 232.10 258.25 229.88 C 262.85 227.65 271.10 223.23 275.25 220.88 C 279.40 218.52 280.33 217.71 283.12 215.75 C 285.92 213.79 288.73 211.77 292.00 209.12 C 295.27 206.48 299.81 202.50 302.75 199.88 C 305.69 197.25 304.23 199.04 309.62 193.38 C 315.02 187.71 330.71 170.50 335.12 165.88 C 339.54 161.25 335.92 165.33 336.12 165.62 C 336.33 165.92 336.25 167.21 336.38 167.62 C 336.50 168.04 336.75 168.35 336.88 168.12 C 337.00 167.90 337.15 166.83 337.12 166.25 C 337.10 165.67 336.71 165.44 336.75 164.62 C 336.79 163.81 337.15 162.06 337.38 161.38 C 337.60 160.69 337.79 161.56 338.12 160.50 C 338.46 159.44 339.04 156.06 339.38 155.00 C 339.71 153.94 339.96 154.75 340.12 154.12 C 340.29 153.50 340.21 151.77 340.38 151.25 C 340.54 150.73 340.94 151.44 341.12 151.00 C 341.31 150.56 341.29 149.31 341.50 148.62 C 341.71 147.94 342.10 147.19 342.38 146.88 C 342.65 146.56 342.75 147.08 343.12 146.75 C 343.50 146.42 344.69 145.21 344.62 144.88 Z" id="s-15-f-1"/>
<path d="M 344.50 144.75 C 344.21 144.65 343.25 144.62 342.75 144.75 C 342.25 144.88 342.25 145.35 341.50 145.50 C 340.75 145.65 339.06 145.46 338.25 145.62 C 337.44 145.79 337.42 146.33 336.62 146.50 C 335.83 146.67 334.23 146.46 333.50 146.62 C 332.77 146.79 333.77 147.17 332.25 147.50 C 330.73 147.83 325.85 148.31 324.38 148.62 C 322.90 148.94 324.17 149.21 323.38 149.38 C 322.58 149.54 320.46 149.46 319.62 149.62 C 318.79 149.79 319.10 150.21 318.38 150.38 C 317.65 150.54 315.96 150.48 315.25 150.62 C 314.54 150.77 314.46 150.92 314.12 151.25 C 313.79 151.58 313.52 152.40 313.25 152.62 C 312.98 152.85 312.65 152.44 312.50 152.62 C 312.35 152.81 313.15 152.31 312.38 153.75 C 311.60 155.19 309.81 158.33 307.88 161.25 C 305.94 164.17 302.92 168.38 300.75 171.25 C 298.58 174.12 295.83 172.71 294.88 178.50 C 293.92 184.29 294.81 201.46 295.00 206.00 C 295.19 210.54 293.56 207.85 296.00 205.75 C 298.44 203.65 303.10 200.02 309.62 193.38 C 316.15 186.73 330.71 170.50 335.12 165.88 C 339.54 161.25 335.92 165.33 336.12 165.62 C 336.33 165.92 336.25 167.21 336.38 167.62 C 336.50 168.04 336.75 168.35 336.88 168.12 C 337.00 167.90 337.15 166.83 337.12 166.25 C 337.10 165.67 336.71 165.44 336.75 164.62 C 336.79 163.81 337.15 162.06 337.38 161.38 C 337.60 160.69 337.79 161.56 338.12 160.50 C 338.46 159.44 339.04 156.06 339.38 155.00 C 339.71 153.94 339.96 154.75 340.12 154.12 C 340.29 153.50 340.21 151.77 340.38 151.25 C 340.54 150.73 340.94 151.44 341.12 151.00 C 341.31 150.56 341.29 149.31 341.50 148.62 C 341.71 147.94 342.10 147.19 342.38 146.88 C 342.65 146.56 342.77 147.00 343.12 146.75 C 343.48 146.50 344.27 145.71 344.50 145.38 C 344.73 145.04 344.79 144.85 344.50 144.75 Z" id="s-15-f-2"/>
</g>
<g id="s-16" clip-path="url(#c-s-16)">
<use href="#s-16-f-0"/>
<path d="M 452.00 303.25 C 451.88 300.94 451.54 301.79 451.12 301.25 C 450.71 300.71 451.33 301.04 449.50 300.00 C 447.67 298.96 444.56 296.79 440.12 295.00 C 435.69 293.21 426.50 290.25 422.88 289.25 C 419.25 288.25 422.83 288.25 418.38 289.00 C 413.92 289.75 403.71 292.44 396.12 293.75 C 388.54 295.06 379.31 296.15 372.88 296.88 C 366.44 297.60 361.88 297.67 357.50 298.12 C 353.12 298.58 350.08 299.33 346.62 299.62 C 343.17 299.92 342.60 299.46 336.75 299.88 C 330.90 300.29 324.06 300.65 311.50 302.12 C 298.94 303.60 276.77 307.27 261.38 308.75 C 245.98 310.23 226.75 310.46 219.12 311.00 C 211.50 311.54 216.56 311.62 215.62 312.00 C 214.69 312.38 214.08 312.77 213.50 313.25 C 212.92 313.73 212.40 314.19 212.12 314.88 C 211.85 315.56 211.69 316.65 211.88 317.38 C 212.06 318.10 212.50 318.52 213.25 319.25 C 214.00 319.98 213.98 320.33 216.38 321.75 C 218.77 323.17 224.23 326.27 227.62 327.75 C 231.02 329.23 234.40 329.98 236.75 330.62 C 239.10 331.27 239.60 331.44 241.75 331.62 C 243.90 331.81 244.00 332.69 249.62 331.75 C 255.25 330.81 268.15 327.46 275.50 326.00 C 282.85 324.54 282.77 324.19 293.75 323.00 C 304.73 321.81 327.29 319.88 341.38 318.88 C 355.46 317.88 360.77 317.38 378.25 317.00 C 395.73 316.62 434.06 316.83 446.25 316.62 C 458.44 316.42 450.44 316.00 451.38 315.75 C 452.31 315.50 451.77 317.21 451.88 315.12 C 451.98 313.04 452.12 305.56 452.00 303.25 Z" id="s-16-f-1"/>
<path d="M 403.88 292.75 C 403.73 288.73 406.69 291.75 403.12 292.25 C 399.56 292.75 390.10 294.77 382.50 295.75 C 374.90 296.73 363.48 297.48 357.50 298.12 C 351.52 298.77 350.08 299.33 346.62 299.62 C 343.17 299.92 342.60 299.46 336.75 299.88 C 330.90 300.29 324.06 300.65 311.50 302.12 C 298.94 303.60 276.77 307.27 261.38 308.75 C 245.98 310.23 226.75 310.46 219.12 311.00 C 211.50 311.54 216.56 311.62 215.62 312.00 C 214.69 312.38 214.08 312.77 213.50 313.25 C 212.92 313.73 212.40 314.19 212.12 314.88 C 211.85 315.56 211.67 316.62 211.88 317.38 C 212.08 318.12 212.62 318.65 213.38 319.38 C 214.12 320.10 214.00 320.35 216.38 321.75 C 218.75 323.15 224.23 326.27 227.62 327.75 C 231.02 329.23 234.40 329.98 236.75 330.62 C 239.10 331.27 239.60 331.44 241.75 331.62 C 243.90 331.81 243.15 332.85 249.62 331.75 C 256.10 330.65 271.79 326.62 280.62 325.00 C 289.46 323.38 297.60 322.54 302.62 322.00 C 307.65 321.46 304.31 322.27 310.75 321.75 C 317.19 321.23 330.54 319.65 341.25 318.88 C 351.96 318.10 364.60 317.48 375.00 317.12 C 385.40 316.77 398.79 316.88 403.62 316.75 C 408.46 316.62 403.96 320.38 404.00 316.38 C 404.04 312.38 404.02 296.77 403.88 292.75 Z" id="s-16-f-2"/>
<path d="M 355.88 299.00 C 355.65 296.73 356.17 298.40 354.62 298.50 C 353.08 298.60 352.04 299.21 346.62 299.62 C 341.21 300.04 330.62 300.27 322.12 301.00 C 313.62 301.73 305.75 302.71 295.62 304.00 C 285.50 305.29 269.60 307.77 261.38 308.75 C 253.15 309.73 253.27 309.50 246.25 309.88 C 239.23 310.25 224.42 310.62 219.25 311.00 C 214.08 311.38 216.21 311.75 215.25 312.12 C 214.29 312.50 214.02 312.79 213.50 313.25 C 212.98 313.71 212.40 314.19 212.12 314.88 C 211.85 315.56 211.67 316.62 211.88 317.38 C 212.08 318.12 212.62 318.65 213.38 319.38 C 214.12 320.10 214.00 320.35 216.38 321.75 C 218.75 323.15 224.23 326.27 227.62 327.75 C 231.02 329.23 234.40 329.98 236.75 330.62 C 239.10 331.27 239.60 331.44 241.75 331.62 C 243.90 331.81 244.83 332.52 249.62 331.75 C 254.42 330.98 263.15 328.46 270.50 327.00 C 277.85 325.54 283.27 324.19 293.75 323.00 C 304.23 321.81 325.46 320.56 333.38 319.88 C 341.29 319.19 337.54 319.21 341.25 318.88 C 344.96 318.54 353.17 319.00 355.62 317.88 C 358.08 316.75 355.96 315.27 356.00 312.12 C 356.04 308.98 356.10 301.27 355.88 299.00 Z" id="s-16-f-3"/>
<path d="M 307.38 304.00 C 307.17 301.12 307.29 303.17 306.75 303.00 C 306.21 302.83 311.69 302.04 304.12 303.00 C 296.56 303.96 275.54 307.42 261.38 308.75 C 247.21 310.08 226.81 310.44 219.12 311.00 C 211.44 311.56 216.12 311.79 215.25 312.12 C 214.38 312.46 214.40 312.54 213.88 313.00 C 213.35 313.46 212.46 314.15 212.12 314.88 C 211.79 315.60 211.71 316.67 211.88 317.38 C 212.04 318.08 212.15 318.25 213.12 319.12 C 214.10 320.00 215.33 321.19 217.75 322.62 C 220.17 324.06 224.46 326.42 227.62 327.75 C 230.79 329.08 234.40 329.98 236.75 330.62 C 239.10 331.27 239.42 331.46 241.75 331.62 C 244.08 331.79 244.25 332.73 250.75 331.62 C 257.25 330.52 273.58 326.44 280.75 325.00 C 287.92 323.56 289.29 323.52 293.75 323.00 C 298.21 322.48 305.12 322.33 307.50 321.88 C 309.88 321.42 308.02 323.23 308.00 320.25 C 307.98 317.27 307.58 306.88 307.38 304.00 Z" id="s-16-f-4"/>
<path d="M 259.88 329.12 C 259.96 325.92 260.00 313.69 260.00 310.38 C 260.00 307.06 259.98 309.50 259.88 309.25 C 259.77 309.00 266.17 308.58 259.38 308.88 C 252.58 309.17 226.48 310.46 219.12 311.00 C 211.77 311.54 216.12 311.79 215.25 312.12 C 214.38 312.46 214.42 312.48 213.88 313.00 C 213.33 313.52 212.31 314.46 212.00 315.25 C 211.69 316.04 211.27 316.67 212.00 317.75 C 212.73 318.83 214.19 320.25 216.38 321.75 C 218.56 323.25 222.25 325.42 225.12 326.75 C 228.00 328.08 230.85 328.94 233.62 329.75 C 236.40 330.56 239.08 331.29 241.75 331.62 C 244.42 331.96 246.67 332.08 249.62 331.75 C 252.58 331.42 257.79 330.06 259.50 329.62 C 261.21 329.19 259.79 332.33 259.88 329.12 Z" id="s-16-f-5"/>
</g>
<g id="s-17" clip-path="url(#c-s-17)">
<use href="#s-17-f-0"/>
<path d="M 312.38 260.00 C 310.67 260.12 310.77 260.54 310.25 260.88 C 309.73 261.21 309.46 261.38 309.25 262.00 C 309.04 262.62 308.42 262.69 309.00 264.62 C 309.58 266.56 311.77 270.52 312.75 273.62 C 313.73 276.73 314.38 279.60 314.88 283.25 C 315.38 286.90 315.65 289.31 315.75 295.50 C 315.85 301.69 315.46 316.08 315.50 320.38 C 315.54 324.67 315.79 316.71 316.00 321.25 C 316.21 325.79 316.79 334.21 316.75 347.62 C 316.71 361.04 316.19 390.75 315.75 401.75 C 315.31 412.75 314.58 409.33 314.12 413.62 C 313.67 417.92 313.19 422.71 313.00 427.50 C 312.81 432.29 312.67 438.40 313.00 442.38 C 313.33 446.35 314.56 449.79 315.00 451.38 C 315.44 452.96 311.79 451.79 315.62 451.88 C 319.46 451.96 334.15 452.00 338.00 451.88 C 341.85 451.75 338.46 451.79 338.75 451.12 C 339.04 450.46 339.44 449.25 339.75 447.88 C 340.06 446.50 340.44 444.88 340.62 442.88 C 340.81 440.88 340.83 456.48 340.88 435.88 C 340.92 415.27 340.71 339.35 340.88 319.25 C 341.04 299.15 341.69 318.60 341.88 315.25 C 342.06 311.90 341.85 302.19 342.00 299.12 C 342.15 296.06 342.56 298.17 342.75 296.88 C 342.94 295.58 342.65 294.15 343.12 291.38 C 343.60 288.60 345.19 283.19 345.62 280.25 C 346.06 277.31 345.90 275.23 345.75 273.75 C 345.60 272.27 345.48 272.35 344.75 271.38 C 344.02 270.40 343.12 269.12 341.38 267.88 C 339.62 266.62 336.79 264.98 334.25 263.88 C 331.71 262.77 328.42 261.88 326.12 261.25 C 323.83 260.62 322.79 260.33 320.50 260.12 C 318.21 259.92 314.08 259.88 312.38 260.00 Z" id="s-17-f-1"/>
<path d="M 312.38 260.00 C 310.69 260.12 310.77 260.54 310.25 260.88 C 309.73 261.21 309.46 261.38 309.25 262.00 C 309.04 262.62 308.44 262.75 309.00 264.62 C 309.56 266.50 311.81 271.10 312.62 273.25 C 313.44 275.40 313.50 275.83 313.88 277.50 C 314.25 279.17 314.58 280.79 314.88 283.25 C 315.17 285.71 315.52 286.06 315.62 292.25 C 315.73 298.44 315.44 315.54 315.50 320.38 C 315.56 325.21 315.79 315.65 316.00 321.25 C 316.21 326.85 316.83 340.33 316.75 354.00 C 316.67 367.67 315.62 394.94 315.50 403.25 C 315.38 411.56 311.85 403.75 316.00 403.88 C 320.15 404.00 336.23 404.10 340.38 404.00 C 344.52 403.90 340.79 417.38 340.88 403.25 C 340.96 389.12 340.71 333.92 340.88 319.25 C 341.04 304.58 341.69 318.60 341.88 315.25 C 342.06 311.90 341.85 302.19 342.00 299.12 C 342.15 296.06 342.58 298.02 342.75 296.88 C 342.92 295.73 342.50 295.15 343.00 292.25 C 343.50 289.35 345.29 282.58 345.75 279.50 C 346.21 276.42 346.02 275.23 345.75 273.75 C 345.48 272.27 344.85 271.60 344.12 270.62 C 343.40 269.65 343.02 269.00 341.38 267.88 C 339.73 266.75 336.27 264.83 334.25 263.88 C 332.23 262.92 331.56 262.75 329.25 262.12 C 326.94 261.50 323.19 260.48 320.38 260.12 C 317.56 259.77 314.06 259.88 312.38 260.00 Z" id="s-17-f-2"/>
<path d="M 311.75 260.12 C 309.94 260.44 309.71 261.25 309.25 262.00 C 308.79 262.75 308.27 262.23 309.00 264.62 C 309.73 267.02 312.65 273.27 313.62 276.38 C 314.60 279.48 314.56 280.92 314.88 283.25 C 315.19 285.58 315.40 284.19 315.50 290.38 C 315.60 296.56 315.42 315.23 315.50 320.38 C 315.58 325.52 315.77 315.38 316.00 321.25 C 316.23 327.12 315.50 349.83 316.88 355.62 C 318.25 361.42 320.29 356.00 324.25 356.00 C 328.21 356.00 337.85 361.75 340.62 355.62 C 343.40 349.50 340.67 325.98 340.88 319.25 C 341.08 312.52 341.69 318.60 341.88 315.25 C 342.06 311.90 341.85 302.19 342.00 299.12 C 342.15 296.06 342.56 298.17 342.75 296.88 C 342.94 295.58 342.62 294.27 343.12 291.38 C 343.62 288.48 345.31 282.44 345.75 279.50 C 346.19 276.56 345.96 275.15 345.75 273.75 C 345.54 272.35 345.23 272.10 344.50 271.12 C 343.77 270.15 343.08 269.08 341.38 267.88 C 339.67 266.67 336.73 264.96 334.25 263.88 C 331.77 262.79 328.85 262.00 326.50 261.38 C 324.15 260.75 322.58 260.33 320.12 260.12 C 317.67 259.92 313.56 259.81 311.75 260.12 Z" id="s-17-f-3"/>
<path d="M 310.25 260.88 C 309.73 261.21 309.46 261.38 309.25 262.00 C 309.04 262.62 308.27 262.23 309.00 264.62 C 309.73 267.02 312.65 273.27 313.62 276.38 C 314.60 279.48 314.54 280.60 314.88 283.25 C 315.21 285.90 315.52 288.27 315.62 292.25 C 315.73 296.23 315.46 304.50 315.50 307.12 C 315.54 309.75 311.48 307.85 315.88 308.00 C 320.27 308.15 337.52 309.48 341.88 308.00 C 346.23 306.52 341.85 300.98 342.00 299.12 C 342.15 297.27 342.56 298.17 342.75 296.88 C 342.94 295.58 342.62 294.27 343.12 291.38 C 343.62 288.48 345.31 282.44 345.75 279.50 C 346.19 276.56 345.96 275.15 345.75 273.75 C 345.54 272.35 345.23 272.10 344.50 271.12 C 343.77 270.15 342.35 268.73 341.38 267.88 C 340.40 267.02 340.65 266.96 338.62 266.00 C 336.60 265.04 332.48 263.12 329.25 262.12 C 326.02 261.12 322.06 260.35 319.25 260.00 C 316.44 259.65 313.88 259.85 312.38 260.00 C 310.88 260.15 310.77 260.54 310.25 260.88 Z" id="s-17-f-4"/>
</g>
<g id="s-18" clip-path="url(#c-s-18)">
<use href="#s-18-f-0"/>
<path d="M 316.25 302.38 C 315.92 299.98 315.44 302.06 315.00 302.38 C 314.56 302.69 315.40 301.27 313.62 304.25 C 311.85 307.23 306.02 317.52 304.38 320.25 C 302.73 322.98 303.88 319.88 303.75 320.62 C 303.62 321.38 303.96 323.35 303.62 324.75 C 303.29 326.15 303.17 326.75 301.75 329.00 C 300.33 331.25 297.81 334.75 295.12 338.25 C 292.44 341.75 289.92 344.96 285.62 350.00 C 281.33 355.04 274.17 363.29 269.38 368.50 C 264.58 373.71 260.90 377.35 256.88 381.25 C 252.85 385.15 251.00 386.96 245.25 391.88 C 239.50 396.79 226.29 407.38 222.38 410.75 C 218.46 414.12 221.83 410.65 221.75 412.12 C 221.67 413.60 221.73 417.83 221.88 419.62 C 222.02 421.42 220.06 423.35 222.62 422.88 C 225.19 422.40 234.69 417.90 237.25 416.75 C 239.81 415.60 235.02 417.54 238.00 416.00 C 240.98 414.46 249.96 410.54 255.12 407.50 C 260.29 404.46 264.33 401.31 269.00 397.75 C 273.67 394.19 278.71 390.02 283.12 386.12 C 287.54 382.23 289.85 380.50 295.50 374.38 C 301.15 368.25 313.42 358.98 317.00 349.38 C 320.58 339.77 317.12 324.58 317.00 316.75 C 316.88 308.92 316.58 304.77 316.25 302.38 Z" id="s-18-f-1"/>
<path d="M 316.00 302.25 C 315.75 302.23 316.83 299.48 314.88 302.50 C 312.92 305.52 306.12 317.33 304.25 320.38 C 302.38 323.42 303.73 320.02 303.62 320.75 C 303.52 321.48 303.77 323.67 303.62 324.75 C 303.48 325.83 303.44 325.98 302.75 327.25 C 302.06 328.52 301.73 329.33 299.50 332.38 C 297.27 335.42 294.31 339.56 289.38 345.50 C 284.44 351.44 273.15 359.83 269.88 368.00 C 266.60 376.17 269.71 389.77 269.75 394.50 C 269.79 399.23 269.23 396.62 270.12 396.38 C 271.02 396.12 273.31 394.40 275.12 393.00 C 276.94 391.60 277.54 391.17 281.00 388.00 C 284.46 384.83 289.85 380.48 295.88 374.00 C 301.90 367.52 313.60 358.67 317.12 349.12 C 320.65 339.58 317.08 322.35 317.00 316.75 C 316.92 311.15 316.73 317.85 316.62 315.50 C 316.52 313.15 316.48 304.83 316.38 302.62 C 316.27 300.42 316.25 302.27 316.00 302.25 Z" id="s-18-f-2"/>
</g>
<g id="s-19" clip-path="url(#c-s-19)">
<use href="#s-19-f-0"/>
<path d="M 340.88 324.25 C 340.62 324.29 340.52 322.27 340.50 325.12 C 340.48 327.98 340.04 337.83 340.75 341.38 C 341.46 344.92 341.71 342.06 344.75 346.38 C 347.79 350.69 353.75 359.90 359.00 367.25 C 364.25 374.60 372.08 384.98 376.25 390.50 C 380.42 396.02 380.88 396.60 384.00 400.38 C 387.12 404.15 391.75 409.62 395.00 413.12 C 398.25 416.62 401.38 419.60 403.50 421.38 C 405.62 423.15 406.58 423.21 407.75 423.75 C 408.92 424.29 408.62 424.27 410.50 424.62 C 412.38 424.98 414.69 425.75 419.00 425.88 C 423.31 426.00 433.38 425.85 436.38 425.38 C 439.38 424.90 436.90 427.44 437.00 423.00 C 437.10 418.56 437.06 403.15 437.00 398.75 C 436.94 394.35 438.79 397.96 436.62 396.62 C 434.46 395.29 428.00 392.73 424.00 390.75 C 420.00 388.77 416.46 386.92 412.62 384.75 C 408.79 382.58 405.10 380.44 401.00 377.75 C 396.90 375.06 393.08 372.60 388.00 368.62 C 382.92 364.65 375.83 358.71 370.50 353.88 C 365.17 349.04 360.75 344.46 356.00 339.62 C 351.25 334.79 344.52 327.44 342.00 324.88 C 339.48 322.31 341.12 324.21 340.88 324.25 Z" id="s-19-f-1"/>
<path d="M 340.88 324.25 C 340.62 324.29 340.52 322.27 340.50 325.12 C 340.48 327.98 340.04 337.83 340.75 341.38 C 341.46 344.92 341.71 342.06 344.75 346.38 C 347.79 350.69 353.81 359.98 359.00 367.25 C 364.19 374.52 371.06 383.69 375.88 390.00 C 380.69 396.31 385.75 402.56 387.88 405.12 C 390.00 407.69 388.44 405.71 388.62 405.38 C 388.81 405.04 388.96 409.12 389.00 403.12 C 389.04 397.12 390.33 376.17 388.88 369.38 C 387.42 362.58 383.81 365.44 380.25 362.38 C 376.69 359.31 373.88 357.25 367.50 351.00 C 361.12 344.75 346.44 329.33 342.00 324.88 C 337.56 320.42 341.12 324.21 340.88 324.25 Z" id="s-19-f-2"/>
</g>
</svg>