<?xml version="1.0" encoding="UTF-8"?>
<svg xmlns="http://www.w3.org/2000/svg" viewBox="0 0 500 500">
<defs>
<path d="M 217.88 180.38 C 217.71 179.29 217.12 178.56 216.50 177.75 C 215.88 176.94 215.71 176.46 214.12 175.50 C 212.54 174.54 209.83 173.06 207.00 172.00 C 204.17 170.94 199.83 169.62 197.12 169.12 C 194.42 168.62 192.94 168.69 190.75 169.00 C 188.56 169.31 186.60 170.02 184.00 171.00 C 181.40 171.98 178.42 173.58 175.12 174.88 C 171.83 176.17 166.40 178.08 164.25 178.75 C 162.10 179.42 169.02 177.23 162.25 178.88 C 155.48 180.52 134.10 186.15 123.62 188.62 C 113.15 191.10 106.29 192.40 99.38 193.75 C 92.46 195.10 89.25 195.69 82.12 196.75 C 75.00 197.81 61.54 199.23 56.62 200.12 C 51.71 201.02 53.40 201.65 52.62 202.12 C 51.85 202.60 52.12 202.62 52.00 203.00 C 51.88 203.38 51.50 203.52 51.88 204.38 C 52.25 205.23 53.12 206.88 54.25 208.12 C 55.38 209.38 57.33 210.96 58.62 211.88 C 59.92 212.79 59.77 213.00 62.00 213.62 C 64.23 214.25 68.27 215.25 72.00 215.62 C 75.73 216.00 80.02 216.04 84.38 215.88 C 88.73 215.71 85.62 216.65 98.12 214.62 C 110.62 212.60 148.19 205.83 159.38 203.75 C 170.56 201.67 161.29 202.98 165.25 202.12 C 169.21 201.27 177.06 200.02 183.12 198.62 C 189.19 197.23 197.21 195.06 201.62 193.75 C 206.04 192.44 207.42 191.81 209.62 190.75 C 211.83 189.69 213.56 188.46 214.88 187.38 C 216.19 186.29 217.00 185.42 217.50 184.25 C 218.00 183.08 218.04 181.46 217.88 180.38 Z" id="s-0-f-0"/>
<clipPath id="c-s-0"><use href="#s-0-f-0"/></clipPath>
<path d="M 134.25 49.88 C 133.06 49.90 132.88 49.81 132.00 50.25 C 131.12 50.69 129.67 51.79 129.00 52.50 C 128.33 53.21 128.19 53.79 128.00 54.50 C 127.81 55.21 127.38 54.54 127.88 56.75 C 128.38 58.96 130.23 65.42 131.00 67.75 C 131.77 70.08 132.04 69.56 132.50 70.75 C 132.96 71.94 133.21 72.69 133.75 74.88 C 134.29 77.06 135.10 80.10 135.75 83.88 C 136.40 87.65 137.12 92.50 137.62 97.50 C 138.12 102.50 138.42 106.71 138.75 113.88 C 139.08 121.04 139.44 128.75 139.62 140.50 C 139.81 152.25 139.90 176.92 139.88 184.38 C 139.85 191.83 139.58 183.25 139.50 185.25 C 139.42 187.25 139.52 192.98 139.38 196.38 C 139.23 199.77 138.62 203.79 138.62 205.62 C 138.62 207.46 139.35 198.02 139.38 207.38 C 139.40 216.73 139.02 248.81 138.75 261.75 C 138.48 274.69 138.25 276.56 137.75 285.00 C 137.25 293.44 136.38 305.35 135.75 312.38 C 135.12 319.40 134.83 317.88 134.00 327.12 C 133.17 336.38 131.62 358.50 130.75 367.88 C 129.88 377.25 129.38 379.46 128.75 383.38 C 128.12 387.29 127.58 387.83 127.00 391.38 C 126.42 394.92 125.58 400.10 125.25 404.62 C 124.92 409.15 124.71 414.65 125.00 418.50 C 125.29 422.35 125.67 423.42 127.00 427.75 C 128.33 432.08 131.08 440.40 133.00 444.50 C 134.92 448.60 137.08 450.67 138.50 452.38 C 139.92 454.08 140.62 454.33 141.50 454.75 C 142.38 455.17 143.15 454.92 143.75 454.88 C 144.35 454.83 144.52 454.85 145.12 454.50 C 145.73 454.15 146.48 453.79 147.38 452.75 C 148.27 451.71 149.10 450.69 150.50 448.25 C 151.90 445.81 154.56 440.60 155.75 438.12 C 156.94 435.65 156.96 435.65 157.62 433.38 C 158.29 431.10 159.23 442.25 159.75 424.50 C 160.27 406.75 160.54 358.12 160.75 326.88 C 160.96 295.62 160.83 253.98 161.00 237.00 C 161.17 220.02 161.60 230.58 161.75 225.00 C 161.90 219.42 161.67 207.79 161.88 203.50 C 162.08 199.21 162.77 201.38 163.00 199.25 C 163.23 197.12 163.06 192.92 163.25 190.75 C 163.44 188.58 163.94 191.46 164.12 186.25 C 164.31 181.04 163.90 170.73 164.38 159.50 C 164.85 148.27 166.04 129.90 167.00 118.88 C 167.96 107.85 169.17 99.54 170.12 93.38 C 171.08 87.21 172.29 84.83 172.75 81.88 C 173.21 78.92 173.02 77.33 172.88 75.62 C 172.73 73.92 172.35 72.83 171.88 71.62 C 171.40 70.42 170.96 69.58 170.00 68.38 C 169.04 67.17 167.46 65.60 166.12 64.38 C 164.79 63.15 164.46 62.54 162.00 61.00 C 159.54 59.46 154.25 56.60 151.38 55.12 C 148.50 53.65 146.79 52.96 144.75 52.12 C 142.71 51.29 140.88 50.50 139.12 50.12 C 137.38 49.75 135.44 49.85 134.25 49.88 Z" id="s-1-f-0"/>
<clipPath id="c-s-1"><use href="#s-1-f-0"/></clipPath>
<path d="M 139.62 185.50 C 139.38 185.17 138.75 185.33 138.75 185.38 C 138.75 185.42 139.62 185.62 139.62 185.75 C 139.62 185.88 139.96 183.44 138.75 186.12 C 137.54 188.81 133.56 199.12 132.38 201.88 C 131.19 204.62 131.77 202.25 131.62 202.62 C 131.48 203.00 131.83 203.33 131.50 204.12 C 131.17 204.92 129.94 206.46 129.62 207.38 C 129.31 208.29 130.27 207.19 129.62 209.62 C 128.98 212.06 128.08 215.21 125.75 222.00 C 123.42 228.79 118.65 242.48 115.62 250.38 C 112.60 258.27 110.48 263.08 107.62 269.38 C 104.77 275.67 101.98 281.50 98.50 288.12 C 95.02 294.75 90.69 302.42 86.75 309.12 C 82.81 315.83 77.88 323.67 74.88 328.38 C 71.88 333.08 71.81 333.21 68.75 337.38 C 65.69 341.54 60.94 348.06 56.50 353.38 C 52.06 358.69 44.52 366.40 42.12 369.25 C 39.73 372.10 41.94 370.10 42.12 370.50 C 42.31 370.90 42.29 371.40 43.25 371.62 C 44.21 371.85 46.77 371.90 47.88 371.88 C 48.98 371.85 48.17 372.19 49.88 371.50 C 51.58 370.81 54.21 370.33 58.12 367.75 C 62.04 365.17 69.29 359.40 73.38 356.00 C 77.46 352.60 79.44 350.60 82.62 347.38 C 85.81 344.15 88.65 341.29 92.50 336.62 C 96.35 331.96 101.88 324.96 105.75 319.38 C 109.62 313.79 112.27 309.12 115.75 303.12 C 119.23 297.12 123.40 289.65 126.62 283.38 C 129.85 277.10 133.02 269.75 135.12 265.50 C 137.23 261.25 138.42 264.19 139.25 257.88 C 140.08 251.56 139.96 239.38 140.12 227.62 C 140.29 215.88 140.33 194.40 140.25 187.38 C 140.17 180.35 139.88 185.83 139.62 185.50 Z" id="s-2-f-0"/>
<clipPath id="c-s-2"><use href="#s-2-f-0"/></clipPath>
<path d="M 160.75 240.00 C 160.08 241.71 159.67 247.40 160.75 250.25 C 161.83 253.10 163.17 251.96 167.25 257.12 C 171.33 262.29 181.50 276.42 185.25 281.25 C 189.00 286.08 188.12 284.73 189.75 286.12 C 191.38 287.52 193.42 289.02 195.00 289.62 C 196.58 290.23 198.12 289.92 199.25 289.75 C 200.38 289.58 201.00 289.19 201.75 288.62 C 202.50 288.06 203.08 287.42 203.75 286.38 C 204.42 285.33 205.12 283.92 205.75 282.38 C 206.38 280.83 207.15 278.44 207.50 277.12 C 207.85 275.81 207.85 276.10 207.88 274.50 C 207.90 272.90 207.88 269.33 207.62 267.50 C 207.38 265.67 206.90 264.71 206.38 263.50 C 205.85 262.29 205.90 261.71 204.50 260.25 C 203.10 258.79 200.98 256.79 198.00 254.75 C 195.02 252.71 192.17 250.46 186.62 248.00 C 181.08 245.54 169.06 241.33 164.75 240.00 C 160.44 238.67 161.42 238.29 160.75 240.00 Z" id="s-3-f-0"/>
<clipPath id="c-s-3"><use href="#s-3-f-0"/></clipPath>
<path d="M 199.12 215.00 C 198.88 215.67 198.77 216.83 199.12 217.88 C 199.48 218.92 198.48 217.88 201.25 221.25 C 204.02 224.62 211.54 233.54 215.75 238.12 C 219.96 242.71 223.81 246.31 226.50 248.75 C 229.19 251.19 230.25 251.75 231.88 252.75 C 233.50 253.75 234.71 254.44 236.25 254.75 C 237.79 255.06 239.96 254.79 241.12 254.62 C 242.29 254.46 242.56 254.23 243.25 253.75 C 243.94 253.27 244.69 252.58 245.25 251.75 C 245.81 250.92 246.35 249.67 246.62 248.75 C 246.90 247.83 246.88 247.77 246.88 246.25 C 246.88 244.73 246.83 241.58 246.62 239.62 C 246.42 237.67 246.48 237.29 245.62 234.50 C 244.77 231.71 242.46 225.21 241.50 222.88 C 240.54 220.54 240.58 221.31 239.88 220.50 C 239.17 219.69 238.17 218.77 237.25 218.00 C 236.33 217.23 235.44 216.52 234.38 215.88 C 233.31 215.23 232.77 214.77 230.88 214.12 C 228.98 213.48 226.10 212.35 223.00 212.00 C 219.90 211.65 215.54 211.83 212.25 212.00 C 208.96 212.17 205.19 212.69 203.25 213.00 C 201.31 213.31 201.31 213.54 200.62 213.88 C 199.94 214.21 199.38 214.33 199.12 215.00 Z" id="s-4-f-0"/>
<clipPath id="c-s-4"><use href="#s-4-f-0"/></clipPath>
<path d="M 256.50 96.00 C 253.88 95.81 249.58 95.75 247.62 96.12 C 245.67 96.50 245.35 97.69 244.75 98.25 C 244.15 98.81 244.08 98.50 244.00 99.50 C 243.92 100.50 243.31 101.58 244.25 104.25 C 245.19 106.92 248.38 112.54 249.62 115.50 C 250.88 118.46 250.94 116.94 251.75 122.00 C 252.56 127.06 253.85 138.65 254.50 145.88 C 255.15 153.10 255.42 152.19 255.62 165.38 C 255.83 178.56 255.90 210.08 255.75 225.00 C 255.60 239.92 255.27 245.65 254.75 254.88 C 254.23 264.10 253.44 272.56 252.62 280.38 C 251.81 288.19 250.85 295.33 249.88 301.75 C 248.90 308.17 247.77 313.90 246.75 318.88 C 245.73 323.85 244.92 327.15 243.75 331.62 C 242.58 336.10 241.23 341.06 239.75 345.75 C 238.27 350.44 237.54 353.54 234.88 359.75 C 232.21 365.96 227.46 375.88 223.75 383.00 C 220.04 390.12 215.75 397.27 212.62 402.50 C 209.50 407.73 206.21 412.17 205.00 414.38 C 203.79 416.58 204.79 415.52 205.38 415.75 C 205.96 415.98 207.54 415.92 208.50 415.75 C 209.46 415.58 209.06 416.00 211.12 414.75 C 213.19 413.50 217.79 410.50 220.88 408.25 C 223.96 406.00 226.62 404.12 229.62 401.25 C 232.62 398.38 236.56 393.69 238.88 391.00 C 241.19 388.31 241.19 388.40 243.50 385.12 C 245.81 381.85 250.54 374.90 252.75 371.38 C 254.96 367.85 255.42 366.71 256.75 364.00 C 258.08 361.29 259.08 359.27 260.75 355.12 C 262.42 350.98 264.75 345.52 266.75 339.12 C 268.75 332.73 270.94 324.77 272.75 316.75 C 274.56 308.73 276.15 300.08 277.62 291.00 C 279.10 281.92 280.62 270.56 281.62 262.25 C 282.62 253.94 283.10 247.73 283.62 241.12 C 284.15 234.52 284.50 237.12 284.75 222.62 C 285.00 208.12 284.75 168.50 285.12 154.12 C 285.50 139.75 286.35 141.33 287.00 136.38 C 287.65 131.42 288.40 127.23 289.00 124.38 C 289.60 121.52 290.31 120.85 290.62 119.25 C 290.94 117.65 290.92 115.83 290.88 114.75 C 290.83 113.67 290.71 113.52 290.38 112.75 C 290.04 111.98 289.65 111.08 288.88 110.12 C 288.10 109.17 287.31 108.19 285.75 107.00 C 284.19 105.81 282.12 104.31 279.50 103.00 C 276.88 101.69 272.69 100.08 270.00 99.12 C 267.31 98.17 265.62 97.77 263.38 97.25 C 261.12 96.73 259.12 96.19 256.50 96.00 Z" id="s-5-f-0"/>
<clipPath id="c-s-5"><use href="#s-5-f-0"/></clipPath>
<path d="M 287.75 214.38 C 287.00 214.81 287.00 214.81 286.88 215.50 C 286.75 216.19 286.65 217.19 287.00 218.50 C 287.35 219.81 286.88 220.21 289.00 223.38 C 291.12 226.54 296.25 233.25 299.75 237.50 C 303.25 241.75 307.56 246.35 310.00 248.88 C 312.44 251.40 312.96 251.65 314.38 252.62 C 315.79 253.60 317.04 254.40 318.50 254.75 C 319.96 255.10 321.90 254.94 323.12 254.75 C 324.35 254.56 325.15 254.02 325.88 253.62 C 326.60 253.23 327.02 252.85 327.50 252.38 C 327.98 251.90 328.35 251.69 328.75 250.75 C 329.15 249.81 329.71 248.52 329.88 246.75 C 330.04 244.98 329.96 242.21 329.75 240.12 C 329.54 238.04 329.50 237.12 328.62 234.25 C 327.75 231.38 325.54 225.29 324.50 222.88 C 323.46 220.46 323.17 220.71 322.38 219.75 C 321.58 218.79 320.92 218.06 319.75 217.12 C 318.58 216.19 317.31 214.98 315.38 214.12 C 313.44 213.27 310.71 212.35 308.12 212.00 C 305.54 211.65 302.67 211.85 299.88 212.00 C 297.08 212.15 293.40 212.48 291.38 212.88 C 289.35 213.27 288.50 213.94 287.75 214.38 Z" id="s-6-f-0"/>
<clipPath id="c-s-6"><use href="#s-6-f-0"/></clipPath>
<path d="M 335.88 105.88 C 334.31 105.88 334.25 105.96 333.62 106.12 C 333.00 106.29 332.71 106.35 332.12 106.88 C 331.54 107.40 330.48 108.04 330.12 109.25 C 329.77 110.46 329.73 112.44 330.00 114.12 C 330.27 115.81 331.29 117.67 331.75 119.38 C 332.21 121.08 332.40 121.44 332.75 124.38 C 333.10 127.31 333.54 130.56 333.88 137.00 C 334.21 143.44 334.58 147.81 334.75 163.00 C 334.92 178.19 334.88 208.79 334.88 228.12 C 334.88 247.46 334.90 266.71 334.75 279.00 C 334.60 291.29 334.35 295.48 334.00 301.88 C 333.65 308.27 333.29 312.77 332.62 317.38 C 331.96 321.98 330.44 326.35 330.00 329.50 C 329.56 332.65 329.50 333.40 330.00 336.25 C 330.50 339.10 332.00 343.75 333.00 346.62 C 334.00 349.50 335.17 351.81 336.00 353.50 C 336.83 355.19 337.21 355.62 338.00 356.75 C 338.79 357.88 339.79 359.21 340.75 360.25 C 341.71 361.29 343.00 362.42 343.75 363.00 C 344.50 363.58 344.40 363.65 345.25 363.75 C 346.10 363.85 347.75 364.02 348.88 363.62 C 350.00 363.23 351.19 362.08 352.00 361.38 C 352.81 360.67 352.96 360.54 353.75 359.38 C 354.54 358.21 355.77 356.44 356.75 354.38 C 357.73 352.31 358.94 349.71 359.62 347.00 C 360.31 344.29 360.69 341.81 360.88 338.12 C 361.06 334.44 360.92 329.06 360.75 324.88 C 360.58 320.69 360.15 319.04 359.88 313.00 C 359.60 306.96 359.25 312.77 359.12 288.62 C 359.00 264.48 358.81 193.04 359.12 168.12 C 359.44 143.21 360.52 145.23 361.00 139.12 C 361.48 133.02 361.38 134.21 362.00 131.50 C 362.62 128.79 364.27 124.94 364.75 122.88 C 365.23 120.81 365.02 120.21 364.88 119.12 C 364.73 118.04 364.79 117.56 363.88 116.38 C 362.96 115.19 361.12 113.23 359.38 112.00 C 357.62 110.77 356.10 109.98 353.38 109.00 C 350.65 108.02 345.92 106.65 343.00 106.12 C 340.08 105.60 337.44 105.88 335.88 105.88 Z" id="s-7-f-0"/>
<clipPath id="c-s-7"><use href="#s-7-f-0"/></clipPath>
<path d="M 363.38 210.75 C 363.06 211.06 362.94 211.08 362.88 211.62 C 362.81 212.17 362.52 212.79 363.00 214.00 C 363.48 215.21 362.73 215.25 365.75 218.88 C 368.77 222.50 376.83 231.31 381.12 235.75 C 385.42 240.19 388.77 243.15 391.50 245.50 C 394.23 247.85 395.54 248.69 397.50 249.88 C 399.46 251.06 401.29 252.17 403.25 252.62 C 405.21 253.08 407.62 253.04 409.25 252.62 C 410.88 252.21 412.10 251.10 413.00 250.12 C 413.90 249.15 414.31 247.60 414.62 246.75 C 414.94 245.90 414.88 246.38 414.88 245.00 C 414.88 243.62 414.83 240.46 414.62 238.50 C 414.42 236.54 414.29 235.56 413.62 233.25 C 412.96 230.94 411.62 227.02 410.62 224.62 C 409.62 222.23 408.75 220.50 407.62 218.88 C 406.50 217.25 405.21 216.02 403.88 214.88 C 402.54 213.73 401.08 212.81 399.62 212.00 C 398.17 211.19 397.46 210.67 395.12 210.00 C 392.79 209.33 388.83 208.33 385.62 208.00 C 382.42 207.67 378.92 207.85 375.88 208.00 C 372.83 208.15 369.23 208.58 367.38 208.88 C 365.52 209.17 365.42 209.44 364.75 209.75 C 364.08 210.06 363.69 210.44 363.38 210.75 Z" id="s-8-f-0"/>
<clipPath id="c-s-8"><use href="#s-8-f-0"/></clipPath>
<path d="M 416.00 41.88 C 414.42 41.96 413.73 42.27 412.88 42.75 C 412.02 43.23 411.35 44.08 410.88 44.75 C 410.40 45.42 410.12 44.96 410.00 46.75 C 409.88 48.54 409.52 51.23 410.12 55.50 C 410.73 59.77 412.88 68.38 413.62 72.38 C 414.38 76.38 414.27 76.23 414.62 79.50 C 414.98 82.77 415.42 86.83 415.75 92.00 C 416.08 97.17 416.42 56.25 416.62 110.50 C 416.83 164.75 416.60 363.50 417.00 417.50 C 417.40 471.50 418.17 428.94 419.00 434.50 C 419.83 440.06 421.17 447.31 422.00 450.88 C 422.83 454.44 423.35 454.73 424.00 455.88 C 424.65 457.02 425.29 457.42 425.88 457.75 C 426.46 458.08 426.96 457.92 427.50 457.88 C 428.04 457.83 428.60 457.75 429.12 457.50 C 429.65 457.25 430.04 456.96 430.62 456.38 C 431.21 455.79 431.94 455.04 432.62 454.00 C 433.31 452.96 434.08 451.71 434.75 450.12 C 435.42 448.54 435.81 448.00 436.62 444.50 C 437.44 441.00 438.77 435.27 439.62 429.12 C 440.48 422.98 441.10 415.85 441.75 407.62 C 442.40 399.40 443.02 389.27 443.50 379.75 C 443.98 370.23 443.35 397.75 444.62 350.50 C 445.90 303.25 449.96 139.98 451.12 96.25 C 452.29 52.52 451.31 91.08 451.62 88.12 C 451.94 85.17 452.60 80.73 453.00 78.50 C 453.40 76.27 453.56 75.85 454.00 74.75 C 454.44 73.65 455.19 72.88 455.62 71.88 C 456.06 70.88 456.42 70.10 456.62 68.75 C 456.83 67.40 457.02 65.21 456.88 63.75 C 456.73 62.29 456.31 61.10 455.75 60.00 C 455.19 58.90 454.48 58.12 453.50 57.12 C 452.52 56.12 452.73 55.69 449.88 54.00 C 447.02 52.31 439.90 48.67 436.38 47.00 C 432.85 45.33 431.08 44.79 428.75 44.00 C 426.42 43.21 424.50 42.60 422.38 42.25 C 420.25 41.90 417.58 41.79 416.00 41.88 Z" id="s-9-f-0"/>
<clipPath id="c-s-9"><use href="#s-9-f-0"/></clipPath>
</defs>
<g id="s-0" clip-path="url(#c-s-0)">
<use href="#s-0-f-0"/>
<path d="M 195.62 169.50 C 195.29 165.17 194.90 168.92 193.88 168.88 C 192.85 168.83 194.44 167.60 189.50 169.25 C 184.56 170.90 168.79 177.15 164.25 178.75 C 159.71 180.35 166.27 177.88 162.25 178.88 C 158.23 179.88 145.06 183.54 140.12 184.75 C 135.19 185.96 136.21 185.29 132.62 186.12 C 129.04 186.96 127.04 187.98 118.62 189.75 C 110.21 191.52 92.46 195.02 82.12 196.75 C 71.79 198.48 61.54 199.23 56.62 200.12 C 51.71 201.02 53.40 201.65 52.62 202.12 C 51.85 202.60 52.12 202.62 52.00 203.00 C 51.88 203.38 51.77 203.85 51.88 204.38 C 51.98 204.90 51.92 205.21 52.62 206.12 C 53.33 207.04 54.96 208.81 56.12 209.88 C 57.29 210.94 58.58 211.85 59.62 212.50 C 60.67 213.15 60.31 213.23 62.38 213.75 C 64.44 214.27 67.42 215.31 72.00 215.62 C 76.58 215.94 83.40 216.12 89.88 215.62 C 96.35 215.12 104.42 213.71 110.88 212.62 C 117.33 211.54 124.19 209.92 128.62 209.12 C 133.06 208.33 135.65 208.21 137.50 207.88 C 139.35 207.54 136.10 207.81 139.75 207.12 C 143.40 206.44 155.12 204.58 159.38 203.75 C 163.62 202.92 162.10 202.79 165.25 202.12 C 168.40 201.46 173.29 200.83 178.25 199.75 C 183.21 198.67 192.06 196.44 195.00 195.62 C 197.94 194.81 195.77 199.23 195.88 194.88 C 195.98 190.52 195.96 173.83 195.62 169.50 Z" id="s-0-f-1"/>
<path d="M 147.88 183.12 C 147.67 179.58 150.79 181.83 146.75 182.75 C 142.71 183.67 131.52 186.79 123.62 188.62 C 115.73 190.46 106.29 192.40 99.38 193.75 C 92.46 195.10 89.25 195.69 82.12 196.75 C 75.00 197.81 61.54 199.23 56.62 200.12 C 51.71 201.02 53.40 201.65 52.62 202.12 C 51.85 202.60 52.12 202.62 52.00 203.00 C 51.88 203.38 51.77 203.85 51.88 204.38 C 51.98 204.90 52.12 205.40 52.62 206.12 C 53.12 206.85 53.88 207.79 54.88 208.75 C 55.88 209.71 57.44 211.06 58.62 211.88 C 59.81 212.69 59.94 213.02 62.00 213.62 C 64.06 214.23 68.42 215.12 71.00 215.50 C 73.58 215.88 74.35 215.85 77.50 215.88 C 80.65 215.90 86.44 215.83 89.88 215.62 C 93.31 215.42 88.58 216.23 98.12 214.62 C 107.67 213.02 138.83 207.52 147.12 206.00 C 155.42 204.48 147.73 205.83 147.88 205.50 C 148.02 205.17 148.00 207.73 148.00 204.00 C 148.00 200.27 148.08 186.67 147.88 183.12 Z" id="s-0-f-2"/>
<path d="M 99.88 194.12 C 99.77 191.00 99.92 193.77 99.38 193.75 C 98.83 193.73 99.50 193.50 96.62 194.00 C 93.75 194.50 88.79 195.73 82.12 196.75 C 75.46 197.77 61.54 199.23 56.62 200.12 C 51.71 201.02 53.40 201.65 52.62 202.12 C 51.85 202.60 52.12 202.62 52.00 203.00 C 51.88 203.38 51.50 203.52 51.88 204.38 C 52.25 205.23 53.12 206.88 54.25 208.12 C 55.38 209.38 57.33 210.96 58.62 211.88 C 59.92 212.79 59.77 213.00 62.00 213.62 C 64.23 214.25 68.27 215.25 72.00 215.62 C 75.73 216.00 80.00 216.04 84.38 215.88 C 88.75 215.71 95.69 214.96 98.25 214.62 C 100.81 214.29 99.46 214.23 99.75 213.88 C 100.04 213.52 99.98 215.79 100.00 212.50 C 100.02 209.21 99.98 197.25 99.88 194.12 Z" id="s-0-f-3"/>
</g>
<g id="s-1" clip-path="url(#c-s-1)">
<use href="#s-1-f-0"/>
<path d="M 132.75 50.00 C 131.31 50.15 131.25 50.35 130.50 51.00 C 129.75 51.65 128.69 52.92 128.25 53.88 C 127.81 54.83 127.42 54.44 127.88 56.75 C 128.33 59.06 130.23 65.42 131.00 67.75 C 131.77 70.08 132.04 69.56 132.50 70.75 C 132.96 71.94 133.21 72.69 133.75 74.88 C 134.29 77.06 135.10 80.10 135.75 83.88 C 136.40 87.65 137.12 92.50 137.62 97.50 C 138.12 102.50 138.42 106.71 138.75 113.88 C 139.08 121.04 139.44 128.75 139.62 140.50 C 139.81 152.25 139.90 176.92 139.88 184.38 C 139.85 191.83 139.58 183.25 139.50 185.25 C 139.42 187.25 139.52 192.98 139.38 196.38 C 139.23 199.77 138.62 203.79 138.62 205.62 C 138.62 207.46 139.35 198.02 139.38 207.38 C 139.40 216.73 139.02 248.81 138.75 261.75 C 138.48 274.69 138.25 276.56 137.75 285.00 C 137.25 293.44 136.38 305.35 135.75 312.38 C 135.12 319.40 134.83 317.88 134.00 327.12 C 133.17 336.38 131.62 358.50 130.75 367.88 C 129.88 377.25 129.38 379.46 128.75 383.38 C 128.12 387.29 127.58 387.83 127.00 391.38 C 126.42 394.92 125.58 400.10 125.25 404.62 C 124.92 409.15 124.71 414.65 125.00 418.50 C 125.29 422.35 126.29 425.19 127.00 427.75 C 127.71 430.31 124.58 432.83 129.25 433.88 C 133.92 434.92 150.27 434.08 155.00 434.00 C 159.73 433.92 156.85 434.79 157.62 433.38 C 158.40 431.96 159.06 458.23 159.62 425.50 C 160.19 392.77 160.65 270.42 161.00 237.00 C 161.35 203.58 161.60 230.58 161.75 225.00 C 161.90 219.42 161.67 207.79 161.88 203.50 C 162.08 199.21 162.77 201.38 163.00 199.25 C 163.23 197.12 163.06 192.92 163.25 190.75 C 163.44 188.58 163.94 191.46 164.12 186.25 C 164.31 181.04 163.90 170.73 164.38 159.50 C 164.85 148.27 166.04 129.90 167.00 118.88 C 167.96 107.85 169.17 99.54 170.12 93.38 C 171.08 87.21 172.29 84.83 172.75 81.88 C 173.21 78.92 173.02 77.33 172.88 75.62 C 172.73 73.92 172.35 72.83 171.88 71.62 C 171.40 70.42 170.96 69.58 170.00 68.38 C 169.04 67.17 167.46 65.60 166.12 64.38 C 164.79 63.15 164.46 62.54 162.00 61.00 C 159.54 59.46 154.25 56.60 151.38 55.12 C 148.50 53.65 146.79 52.96 144.75 52.12 C 142.71 51.29 141.12 50.48 139.12 50.12 C 137.12 49.77 134.19 49.85 132.75 50.00 Z" id="s-1-f-1"/>
<path d="M 132.75 50.00 C 131.42 50.17 131.12 50.58 130.50 51.00 C 129.88 51.42 129.42 51.92 129.00 52.50 C 128.58 53.08 128.19 53.79 128.00 54.50 C 127.81 55.21 126.75 52.71 127.88 56.75 C 129.00 60.79 133.12 71.96 134.75 78.75 C 136.38 85.54 136.96 91.65 137.62 97.50 C 138.29 103.35 138.42 106.71 138.75 113.88 C 139.08 121.04 139.44 128.75 139.62 140.50 C 139.81 152.25 139.90 176.92 139.88 184.38 C 139.85 191.83 139.58 183.25 139.50 185.25 C 139.42 187.25 139.52 192.98 139.38 196.38 C 139.23 199.77 138.62 203.79 138.62 205.62 C 138.62 207.46 139.35 198.02 139.38 207.38 C 139.40 216.73 139.02 248.81 138.75 261.75 C 138.48 274.69 138.92 269.06 137.75 285.00 C 136.58 300.94 133.33 340.65 131.75 357.38 C 130.17 374.10 128.73 380.62 128.25 385.38 C 127.77 390.12 128.46 385.77 128.88 385.88 C 129.29 385.98 125.62 386.00 130.75 386.00 C 135.88 386.00 154.73 386.04 159.62 385.88 C 164.52 385.71 159.92 407.52 160.12 385.00 C 160.33 362.48 160.73 275.42 160.88 250.75 C 161.02 226.08 160.85 241.29 161.00 237.00 C 161.15 232.71 161.60 230.58 161.75 225.00 C 161.90 219.42 161.67 207.79 161.88 203.50 C 162.08 199.21 162.77 201.38 163.00 199.25 C 163.23 197.12 163.06 192.92 163.25 190.75 C 163.44 188.58 163.94 191.46 164.12 186.25 C 164.31 181.04 163.90 170.75 164.38 159.50 C 164.85 148.25 166.04 129.77 167.00 118.75 C 167.96 107.73 169.17 99.52 170.12 93.38 C 171.08 87.23 172.29 84.83 172.75 81.88 C 173.21 78.92 173.06 77.44 172.88 75.62 C 172.69 73.81 172.17 72.29 171.62 71.00 C 171.08 69.71 170.88 69.27 169.62 67.88 C 168.38 66.48 165.69 63.96 164.12 62.62 C 162.56 61.29 162.38 61.12 160.25 59.88 C 158.12 58.62 154.35 56.56 151.38 55.12 C 148.40 53.69 144.52 52.10 142.38 51.25 C 140.23 50.40 140.10 50.21 138.50 50.00 C 136.90 49.79 134.08 49.83 132.75 50.00 Z" id="s-1-f-2"/>
<path d="M 132.75 50.00 C 131.42 50.17 131.12 50.58 130.50 51.00 C 129.88 51.42 129.42 51.92 129.00 52.50 C 128.58 53.08 128.19 53.79 128.00 54.50 C 127.81 55.21 126.75 52.71 127.88 56.75 C 129.00 60.79 133.12 71.96 134.75 78.75 C 136.38 85.54 136.96 91.65 137.62 97.50 C 138.29 103.35 138.44 107.56 138.75 113.88 C 139.06 120.19 139.31 123.62 139.50 135.38 C 139.69 147.12 139.88 176.06 139.88 184.38 C 139.88 192.69 139.58 183.25 139.50 185.25 C 139.42 187.25 139.52 192.98 139.38 196.38 C 139.23 199.77 138.62 203.79 138.62 205.62 C 138.62 207.46 139.35 198.02 139.38 207.38 C 139.40 216.73 139.19 246.31 138.75 261.75 C 138.31 277.19 137.69 287.46 136.75 300.00 C 135.81 312.54 133.62 330.71 133.12 337.00 C 132.62 343.29 129.27 337.60 133.75 337.75 C 138.23 337.90 155.52 338.04 160.00 337.88 C 164.48 337.71 160.46 353.56 160.62 336.75 C 160.79 319.94 160.81 255.62 161.00 237.00 C 161.19 218.38 161.60 230.58 161.75 225.00 C 161.90 219.42 161.67 207.79 161.88 203.50 C 162.08 199.21 162.77 201.38 163.00 199.25 C 163.23 197.12 163.06 192.92 163.25 190.75 C 163.44 188.58 163.96 191.00 164.12 186.25 C 164.29 181.50 163.77 173.48 164.25 162.25 C 164.73 151.02 166.02 130.35 167.00 118.88 C 167.98 107.40 169.17 99.54 170.12 93.38 C 171.08 87.21 172.29 84.83 172.75 81.88 C 173.21 78.92 173.06 77.44 172.88 75.62 C 172.69 73.81 172.17 72.29 171.62 71.00 C 171.08 69.71 170.88 69.27 169.62 67.88 C 168.38 66.48 165.69 63.96 164.12 62.62 C 162.56 61.29 162.38 61.12 160.25 59.88 C 158.12 58.62 154.35 56.56 151.38 55.12 C 148.40 53.69 144.52 52.10 142.38 51.25 C 140.23 50.40 140.10 50.21 138.50 50.00 C 136.90 49.79 134.08 49.83 132.75 50.00 Z" id="s-1-f-3"/>
<path d="M 132.75 50.00 C 131.42 50.17 131.12 50.58 130.50 51.00 C 129.88 51.42 129.42 51.92 129.00 52.50 C 128.58 53.08 128.19 53.79 128.00 54.50 C 127.81 55.21 127.38 54.54 127.88 56.75 C 128.38 58.96 130.02 64.73 131.00 67.75 C 131.98 70.77 132.79 71.04 133.75 74.88 C 134.71 78.71 135.92 84.25 136.75 90.75 C 137.58 97.25 138.27 105.58 138.75 113.88 C 139.23 122.17 139.44 128.75 139.62 140.50 C 139.81 152.25 139.90 176.92 139.88 184.38 C 139.85 191.83 139.58 183.25 139.50 185.25 C 139.42 187.25 139.52 192.98 139.38 196.38 C 139.23 199.77 138.62 203.79 138.62 205.62 C 138.62 207.46 139.35 198.02 139.38 207.38 C 139.40 216.73 139.08 248.12 138.75 261.75 C 138.42 275.38 137.52 284.44 137.38 289.12 C 137.23 293.81 134.21 289.77 137.88 289.88 C 141.54 289.98 155.54 289.85 159.38 289.75 C 163.21 289.65 160.60 298.04 160.88 289.25 C 161.15 280.46 160.85 247.71 161.00 237.00 C 161.15 226.29 161.60 230.62 161.75 225.00 C 161.90 219.38 161.67 207.54 161.88 203.25 C 162.08 198.96 162.77 201.33 163.00 199.25 C 163.23 197.17 163.06 192.92 163.25 190.75 C 163.44 188.58 164.00 189.88 164.12 186.25 C 164.25 182.62 163.83 176.04 164.00 169.00 C 164.17 161.96 164.46 154.06 165.12 144.00 C 165.79 133.94 167.17 117.06 168.00 108.62 C 168.83 100.19 169.33 97.83 170.12 93.38 C 170.92 88.92 172.31 85.04 172.75 81.88 C 173.19 78.71 172.94 76.19 172.75 74.38 C 172.56 72.56 172.15 72.08 171.62 71.00 C 171.10 69.92 170.88 69.27 169.62 67.88 C 168.38 66.48 165.69 63.96 164.12 62.62 C 162.56 61.29 162.38 61.12 160.25 59.88 C 158.12 58.62 154.35 56.56 151.38 55.12 C 148.40 53.69 144.52 52.10 142.38 51.25 C 140.23 50.40 140.10 50.21 138.50 50.00 C 136.90 49.79 134.08 49.83 132.75 50.00 Z" id="s-1-f-4"/>
<path d="M 132.75 50.00 C 131.42 50.17 131.12 50.58 130.50 51.00 C 129.88 51.42 129.42 51.92 129.00 52.50 C 128.58 53.08 128.19 53.79 128.00 54.50 C 127.81 55.21 127.38 54.54 127.88 56.75 C 128.38 58.96 130.02 64.73 131.00 67.75 C 131.98 70.77 132.98 72.31 133.75 74.88 C 134.52 77.44 134.98 79.35 135.62 83.12 C 136.27 86.90 137.10 92.38 137.62 97.50 C 138.15 102.62 138.42 106.60 138.75 113.88 C 139.08 121.15 139.44 129.38 139.62 141.12 C 139.81 152.88 139.90 177.02 139.88 184.38 C 139.85 191.73 139.58 183.25 139.50 185.25 C 139.42 187.25 139.52 192.98 139.38 196.38 C 139.23 199.77 138.62 203.79 138.62 205.62 C 138.62 207.46 139.33 201.46 139.38 207.38 C 139.42 213.29 138.90 235.38 138.88 241.12 C 138.85 246.88 138.92 241.73 139.25 241.88 C 139.58 242.02 137.31 242.00 140.88 242.00 C 144.44 242.00 157.27 241.96 160.62 241.88 C 163.98 241.79 160.81 244.31 161.00 241.50 C 161.19 238.69 161.60 231.38 161.75 225.00 C 161.90 218.62 161.67 207.54 161.88 203.25 C 162.08 198.96 162.77 201.33 163.00 199.25 C 163.23 197.17 163.06 192.92 163.25 190.75 C 163.44 188.58 164.00 189.88 164.12 186.25 C 164.25 182.62 163.83 176.04 164.00 169.00 C 164.17 161.96 164.46 154.06 165.12 144.00 C 165.79 133.94 167.17 117.06 168.00 108.62 C 168.83 100.19 169.33 97.83 170.12 93.38 C 170.92 88.92 172.31 85.04 172.75 81.88 C 173.19 78.71 172.94 76.19 172.75 74.38 C 172.56 72.56 172.15 72.08 171.62 71.00 C 171.10 69.92 170.88 69.27 169.62 67.88 C 168.38 66.48 165.69 63.96 164.12 62.62 C 162.56 61.29 162.38 61.12 160.25 59.88 C 158.12 58.62 154.35 56.56 151.38 55.12 C 148.40 53.69 144.52 52.10 142.38 51.25 C 140.23 50.40 140.10 50.21 138.50 50.00 C 136.90 49.79 134.08 49.83 132.75 50.00 Z" id="s-1-f-5"/>
<path d="M 132.75 50.00 C 131.46 50.15 131.38 50.46 130.75 50.88 C 130.12 51.29 129.46 51.90 129.00 52.50 C 128.54 53.10 128.19 53.79 128.00 54.50 C 127.81 55.21 127.38 54.54 127.88 56.75 C 128.38 58.96 130.19 65.29 131.00 67.75 C 131.81 70.21 132.15 69.79 132.75 71.50 C 133.35 73.21 133.81 73.67 134.62 78.00 C 135.44 82.33 136.94 91.52 137.62 97.50 C 138.31 103.48 138.42 106.60 138.75 113.88 C 139.08 121.15 139.44 129.38 139.62 141.12 C 139.81 152.88 139.90 177.02 139.88 184.38 C 139.85 191.73 139.58 183.71 139.50 185.25 C 139.42 186.79 139.27 192.12 139.38 193.62 C 139.48 195.12 136.31 194.15 140.12 194.25 C 143.94 194.35 158.42 194.42 162.25 194.25 C 166.08 194.08 162.98 193.96 163.12 193.25 C 163.27 192.54 162.96 191.17 163.12 190.00 C 163.29 188.83 163.92 191.33 164.12 186.25 C 164.33 181.17 163.90 170.75 164.38 159.50 C 164.85 148.25 166.04 129.77 167.00 118.75 C 167.96 107.73 169.17 99.52 170.12 93.38 C 171.08 87.23 172.33 85.15 172.75 81.88 C 173.17 78.60 172.81 75.56 172.62 73.75 C 172.44 71.94 172.25 72.12 171.62 71.00 C 171.00 69.88 170.12 68.40 168.88 67.00 C 167.62 65.60 165.56 63.81 164.12 62.62 C 162.69 61.44 162.38 61.12 160.25 59.88 C 158.12 58.62 154.35 56.56 151.38 55.12 C 148.40 53.69 144.52 52.10 142.38 51.25 C 140.23 50.40 140.10 50.21 138.50 50.00 C 136.90 49.79 134.04 49.85 132.75 50.00 Z" id="s-1-f-6"/>
<path d="M 132.38 50.12 C 131.02 50.31 130.94 50.73 130.38 51.12 C 129.81 51.52 129.40 51.94 129.00 52.50 C 128.60 53.06 128.19 53.79 128.00 54.50 C 127.81 55.21 127.38 54.54 127.88 56.75 C 128.38 58.96 130.19 65.29 131.00 67.75 C 131.81 70.21 132.15 69.79 132.75 71.50 C 133.35 73.21 133.96 74.79 134.62 78.00 C 135.29 81.21 136.06 84.77 136.75 90.75 C 137.44 96.73 138.27 104.75 138.75 113.88 C 139.23 123.00 139.15 140.15 139.62 145.50 C 140.10 150.85 137.46 145.94 141.62 146.00 C 145.79 146.06 160.71 145.98 164.62 145.88 C 168.54 145.77 164.52 152.00 165.12 145.38 C 165.73 138.75 167.42 114.79 168.25 106.12 C 169.08 97.46 169.38 97.42 170.12 93.38 C 170.88 89.33 172.33 85.15 172.75 81.88 C 173.17 78.60 172.81 75.56 172.62 73.75 C 172.44 71.94 172.25 72.12 171.62 71.00 C 171.00 69.88 170.12 68.40 168.88 67.00 C 167.62 65.60 165.56 63.81 164.12 62.62 C 162.69 61.44 162.38 61.12 160.25 59.88 C 158.12 58.62 154.35 56.56 151.38 55.12 C 148.40 53.69 144.52 52.10 142.38 51.25 C 140.23 50.40 140.17 50.19 138.50 50.00 C 136.83 49.81 133.73 49.94 132.38 50.12 Z" id="s-1-f-7"/>
<path d="M 130.38 51.12 C 129.75 51.54 129.40 51.94 129.00 52.50 C 128.60 53.06 128.17 53.60 128.00 54.50 C 127.83 55.40 126.90 53.96 128.00 57.88 C 129.10 61.79 133.04 71.44 134.62 78.00 C 136.21 84.56 136.62 93.92 137.50 97.25 C 138.38 100.58 134.56 97.92 139.88 98.00 C 145.19 98.08 164.06 99.50 169.38 97.75 C 174.69 96.00 171.17 90.54 171.75 87.50 C 172.33 84.46 172.73 81.79 172.88 79.50 C 173.02 77.21 172.83 75.17 172.62 73.75 C 172.42 72.33 172.12 71.98 171.62 71.00 C 171.12 70.02 170.88 69.27 169.62 67.88 C 168.38 66.48 165.69 63.96 164.12 62.62 C 162.56 61.29 163.48 61.62 160.25 59.88 C 157.02 58.12 148.27 53.75 144.75 52.12 C 141.23 50.50 141.12 50.48 139.12 50.12 C 137.12 49.77 134.21 49.83 132.75 50.00 C 131.29 50.17 131.00 50.71 130.38 51.12 Z" id="s-1-f-8"/>
</g>
<g id="s-2" clip-path="url(#c-s-2)">
<use href="#s-2-f-0"/>
<path d="M 139.62 185.50 C 139.38 185.17 138.75 185.33 138.75 185.38 C 138.75 185.42 139.62 185.62 139.62 185.75 C 139.62 185.88 139.96 183.44 138.75 186.12 C 137.54 188.81 133.56 199.12 132.38 201.88 C 131.19 204.62 131.77 202.25 131.62 202.62 C 131.48 203.00 131.83 203.33 131.50 204.12 C 131.17 204.92 129.94 206.46 129.62 207.38 C 129.31 208.29 130.94 205.23 129.62 209.62 C 128.31 214.02 124.08 226.96 121.75 233.75 C 119.42 240.54 117.79 244.85 115.62 250.38 C 113.46 255.90 111.90 260.04 108.75 266.88 C 105.60 273.71 101.25 282.94 96.75 291.38 C 92.25 299.81 85.38 311.44 81.75 317.50 C 78.12 323.56 76.10 325.85 75.00 327.75 C 73.90 329.65 71.35 328.67 75.12 328.88 C 78.90 329.08 93.56 329.17 97.62 329.00 C 101.69 328.83 98.15 329.48 99.50 327.88 C 100.85 326.27 102.73 324.04 105.75 319.38 C 108.77 314.71 114.15 305.88 117.62 299.88 C 121.10 293.88 123.21 290.10 126.62 283.38 C 130.04 276.65 136.06 263.60 138.12 259.50 C 140.19 255.40 138.67 264.06 139.00 258.75 C 139.33 253.44 139.92 239.52 140.12 227.62 C 140.33 215.73 140.33 194.40 140.25 187.38 C 140.17 180.35 139.88 185.83 139.62 185.50 Z" id="s-2-f-1"/>
<path d="M 139.62 185.50 C 139.38 185.17 138.75 185.33 138.75 185.38 C 138.75 185.42 139.62 185.62 139.62 185.75 C 139.62 185.88 139.96 183.44 138.75 186.12 C 137.54 188.81 133.56 199.12 132.38 201.88 C 131.19 204.62 131.77 202.25 131.62 202.62 C 131.48 203.00 131.83 203.33 131.50 204.12 C 131.17 204.92 129.94 206.46 129.62 207.38 C 129.31 208.29 131.62 203.33 129.62 209.62 C 127.62 215.92 121.29 235.15 117.62 245.12 C 113.96 255.10 110.17 263.67 107.62 269.50 C 105.08 275.33 103.19 278.23 102.38 280.12 C 101.56 282.02 98.56 280.75 102.75 280.88 C 106.94 281.00 122.50 282.50 127.50 280.88 C 132.50 279.25 130.98 274.69 132.75 271.12 C 134.52 267.56 137.08 261.56 138.12 259.50 C 139.17 257.44 138.67 264.06 139.00 258.75 C 139.33 253.44 139.92 239.52 140.12 227.62 C 140.33 215.73 140.33 194.40 140.25 187.38 C 140.17 180.35 139.88 185.83 139.62 185.50 Z" id="s-2-f-2"/>
<path d="M 139.62 185.50 C 139.38 185.17 138.75 185.33 138.75 185.38 C 138.75 185.42 139.62 185.62 139.62 185.75 C 139.62 185.88 139.08 185.69 138.75 186.12 C 138.42 186.56 137.85 187.75 137.62 188.38 C 137.40 189.00 137.71 189.10 137.38 189.88 C 137.04 190.65 135.92 192.19 135.62 193.00 C 135.33 193.81 135.79 194.35 135.62 194.75 C 135.46 195.15 135.17 194.19 134.62 195.38 C 134.08 196.56 132.88 200.67 132.38 201.88 C 131.88 203.08 131.77 202.25 131.62 202.62 C 131.48 203.00 131.83 203.35 131.50 204.12 C 131.17 204.90 129.94 206.33 129.62 207.25 C 129.31 208.17 130.88 205.52 129.62 209.62 C 128.38 213.73 123.33 228.00 122.12 231.88 C 120.92 235.75 119.71 232.69 122.38 232.88 C 125.04 233.06 135.23 233.04 138.12 233.00 C 141.02 232.96 139.42 233.52 139.75 232.62 C 140.08 231.73 140.04 235.17 140.12 227.62 C 140.21 220.08 140.33 194.40 140.25 187.38 C 140.17 180.35 139.88 185.83 139.62 185.50 Z" id="s-2-f-3"/>
</g>
<g id="s-3" clip-path="url(#c-s-3)">
<use href="#s-3-f-0"/>
</g>
<g id="s-4" clip-path="url(#c-s-4)">
<use href="#s-4-f-0"/>
</g>
<g id="s-5" clip-path="url(#c-s-5)">
<use href="#s-5-f-0"/>
<path d="M 256.50 96.00 C 253.85 95.81 249.58 95.75 247.62 96.12 C 245.67 96.50 245.35 97.69 244.75 98.25 C 244.15 98.81 244.08 98.50 244.00 99.50 C 243.92 100.50 243.31 101.58 244.25 104.25 C 245.19 106.92 248.38 112.54 249.62 115.50 C 250.88 118.46 250.94 116.94 251.75 122.00 C 252.56 127.06 253.85 138.65 254.50 145.88 C 255.15 153.10 255.44 150.69 255.62 165.38 C 255.81 180.06 255.77 219.08 255.62 234.00 C 255.48 248.92 255.25 247.15 254.75 254.88 C 254.25 262.60 253.31 273.42 252.62 280.38 C 251.94 287.33 251.40 291.25 250.62 296.62 C 249.85 302.00 248.79 308.23 248.00 312.62 C 247.21 317.02 246.92 318.60 245.88 323.00 C 244.83 327.40 243.62 332.77 241.75 339.00 C 239.88 345.23 236.62 355.02 234.62 360.38 C 232.62 365.73 231.60 367.31 229.75 371.12 C 227.90 374.94 224.50 381.12 223.50 383.25 C 222.50 385.38 220.27 383.79 223.75 383.88 C 227.23 383.96 240.04 385.02 244.38 383.75 C 248.71 382.48 247.69 379.54 249.75 376.25 C 251.81 372.96 254.92 367.52 256.75 364.00 C 258.58 360.48 259.08 359.27 260.75 355.12 C 262.42 350.98 264.92 344.83 266.75 339.12 C 268.58 333.42 270.08 328.04 271.75 320.88 C 273.42 313.71 275.10 305.90 276.75 296.12 C 278.40 286.35 280.48 271.42 281.62 262.25 C 282.77 253.08 283.10 247.73 283.62 241.12 C 284.15 234.52 284.50 237.12 284.75 222.62 C 285.00 208.12 284.58 169.60 285.12 154.12 C 285.67 138.65 287.06 135.69 288.00 129.75 C 288.94 123.81 290.29 121.17 290.75 118.50 C 291.21 115.83 291.06 115.15 290.75 113.75 C 290.44 112.35 289.71 111.25 288.88 110.12 C 288.04 109.00 287.31 108.19 285.75 107.00 C 284.19 105.81 282.12 104.31 279.50 103.00 C 276.88 101.69 272.67 100.08 270.00 99.12 C 267.33 98.17 265.75 97.77 263.50 97.25 C 261.25 96.73 259.15 96.19 256.50 96.00 Z" id="s-5-f-1"/>
<path d="M 247.62 96.12 C 245.67 96.50 245.35 97.69 244.75 98.25 C 244.15 98.81 244.15 98.79 244.00 99.50 C 243.85 100.21 243.71 101.38 243.88 102.50 C 244.04 103.62 244.04 104.08 245.00 106.25 C 245.96 108.42 248.50 112.88 249.62 115.50 C 250.75 118.12 250.94 116.94 251.75 122.00 C 252.56 127.06 253.83 137.94 254.50 145.88 C 255.17 153.81 255.56 154.94 255.75 169.62 C 255.94 184.31 255.96 217.67 255.62 234.00 C 255.29 250.33 254.56 257.35 253.75 267.62 C 252.94 277.90 251.92 287.08 250.75 295.62 C 249.58 304.17 248.08 312.25 246.75 318.88 C 245.42 325.50 243.35 332.54 242.75 335.38 C 242.15 338.21 239.35 335.77 243.12 335.88 C 246.90 335.98 261.38 336.00 265.38 336.00 C 269.38 336.00 266.73 335.98 267.12 335.88 C 267.52 335.77 266.81 338.56 267.75 335.38 C 268.69 332.19 271.10 324.17 272.75 316.75 C 274.40 309.33 276.15 299.96 277.62 290.88 C 279.10 281.79 280.62 270.54 281.62 262.25 C 282.62 253.96 283.10 247.73 283.62 241.12 C 284.15 234.52 284.50 237.12 284.75 222.62 C 285.00 208.12 284.75 168.50 285.12 154.12 C 285.50 139.75 286.35 141.33 287.00 136.38 C 287.65 131.42 288.40 127.23 289.00 124.38 C 289.60 121.52 290.31 120.85 290.62 119.25 C 290.94 117.65 291.00 116.02 290.88 114.75 C 290.75 113.48 290.73 112.92 289.88 111.62 C 289.02 110.33 287.75 108.56 285.75 107.00 C 283.75 105.44 280.50 103.56 277.88 102.25 C 275.25 100.94 272.40 99.96 270.00 99.12 C 267.60 98.29 265.75 97.77 263.50 97.25 C 261.25 96.73 259.15 96.19 256.50 96.00 C 253.85 95.81 249.58 95.75 247.62 96.12 Z" id="s-5-f-2"/>
<path d="M 248.25 96.00 C 246.54 96.15 246.83 96.50 246.25 96.88 C 245.67 97.25 245.12 97.81 244.75 98.25 C 244.38 98.69 244.15 98.81 244.00 99.50 C 243.85 100.19 243.71 101.25 243.88 102.38 C 244.04 103.50 243.92 103.73 245.00 106.25 C 246.08 108.77 249.15 114.29 250.38 117.50 C 251.60 120.71 251.94 122.67 252.38 125.50 C 252.81 128.33 252.62 130.92 253.00 134.50 C 253.38 138.08 254.17 141.15 254.62 147.00 C 255.08 152.85 255.58 155.15 255.75 169.62 C 255.92 184.10 255.79 219.67 255.62 233.88 C 255.46 248.08 255.40 245.94 254.75 254.88 C 254.10 263.81 250.94 281.98 251.75 287.50 C 252.56 293.02 255.38 287.92 259.62 288.00 C 263.88 288.08 274.15 288.25 277.25 288.00 C 280.35 287.75 277.83 288.29 278.25 286.50 C 278.67 284.71 278.85 284.81 279.75 277.25 C 280.65 269.69 282.77 251.42 283.62 241.12 C 284.48 230.83 284.62 230.00 284.88 215.50 C 285.12 201.00 284.60 168.42 285.12 154.12 C 285.65 139.83 287.06 135.69 288.00 129.75 C 288.94 123.81 290.29 121.17 290.75 118.50 C 291.21 115.83 291.06 115.15 290.75 113.75 C 290.44 112.35 289.71 111.25 288.88 110.12 C 288.04 109.00 287.58 108.31 285.75 107.00 C 283.92 105.69 280.50 103.56 277.88 102.25 C 275.25 100.94 272.40 99.96 270.00 99.12 C 267.60 98.29 265.75 97.77 263.50 97.25 C 261.25 96.73 259.04 96.21 256.50 96.00 C 253.96 95.79 249.96 95.85 248.25 96.00 Z" id="s-5-f-3"/>
<path d="M 247.62 96.12 C 245.85 96.31 246.48 96.56 245.88 97.12 C 245.27 97.69 244.31 98.44 244.00 99.50 C 243.69 100.56 243.06 100.83 244.00 103.50 C 244.94 106.17 248.33 112.42 249.62 115.50 C 250.92 118.58 250.88 116.12 251.75 122.00 C 252.62 127.88 254.21 142.81 254.88 150.75 C 255.54 158.69 255.60 157.08 255.75 169.62 C 255.90 182.17 255.83 214.44 255.75 226.00 C 255.67 237.56 255.25 236.69 255.25 239.00 C 255.25 241.31 255.35 239.71 255.75 239.88 C 256.15 240.04 253.06 240.00 257.62 240.00 C 262.19 240.00 278.77 239.98 283.12 239.88 C 287.48 239.77 283.48 242.23 283.75 239.38 C 284.02 236.52 284.52 236.96 284.75 222.75 C 284.98 208.54 284.58 169.62 285.12 154.12 C 285.67 138.62 287.06 135.69 288.00 129.75 C 288.94 123.81 290.29 121.17 290.75 118.50 C 291.21 115.83 291.06 115.15 290.75 113.75 C 290.44 112.35 289.73 111.27 288.88 110.12 C 288.02 108.98 287.19 108.06 285.62 106.88 C 284.06 105.69 281.65 104.12 279.50 103.00 C 277.35 101.88 275.35 101.06 272.75 100.12 C 270.15 99.19 266.58 98.06 263.88 97.38 C 261.17 96.69 259.21 96.21 256.50 96.00 C 253.79 95.79 249.40 95.94 247.62 96.12 Z" id="s-5-f-4"/>
<path d="M 247.62 96.12 C 245.85 96.31 246.46 96.60 245.88 97.12 C 245.29 97.65 244.46 98.35 244.12 99.25 C 243.79 100.15 243.73 101.33 243.88 102.50 C 244.02 103.67 244.04 104.08 245.00 106.25 C 245.96 108.42 248.56 113.10 249.62 115.50 C 250.69 117.90 250.92 118.96 251.38 120.62 C 251.83 122.29 251.79 120.48 252.38 125.50 C 252.96 130.52 254.31 143.40 254.88 150.75 C 255.44 158.10 255.56 162.81 255.75 169.62 C 255.94 176.44 255.90 187.90 256.00 191.62 C 256.10 195.35 251.65 191.94 256.38 192.00 C 261.10 192.06 279.62 192.44 284.38 192.00 C 289.12 191.56 284.75 195.69 284.88 189.38 C 285.00 183.06 284.60 164.06 285.12 154.12 C 285.65 144.19 287.06 135.69 288.00 129.75 C 288.94 123.81 290.31 121.23 290.75 118.50 C 291.19 115.77 290.94 114.77 290.62 113.38 C 290.31 111.98 289.71 111.21 288.88 110.12 C 288.04 109.04 287.19 108.06 285.62 106.88 C 284.06 105.69 281.65 104.12 279.50 103.00 C 277.35 101.88 275.35 101.06 272.75 100.12 C 270.15 99.19 266.58 98.06 263.88 97.38 C 261.17 96.69 259.21 96.21 256.50 96.00 C 253.79 95.79 249.40 95.94 247.62 96.12 Z" id="s-5-f-5"/>
<path d="M 245.88 97.12 C 245.17 97.71 244.31 98.44 244.00 99.50 C 243.69 100.56 243.06 100.83 244.00 103.50 C 244.94 106.17 248.33 112.42 249.62 115.50 C 250.92 118.58 250.98 117.33 251.75 122.00 C 252.52 126.67 253.42 139.83 254.25 143.50 C 255.08 147.17 253.04 143.92 256.75 144.00 C 260.46 144.08 271.62 144.08 276.50 144.00 C 281.38 143.92 283.92 146.77 286.00 143.50 C 288.08 140.23 288.21 128.54 289.00 124.38 C 289.79 120.21 290.46 120.27 290.75 118.50 C 291.04 116.73 291.06 115.15 290.75 113.75 C 290.44 112.35 289.88 111.38 288.88 110.12 C 287.88 108.88 286.31 107.44 284.75 106.25 C 283.19 105.06 282.04 104.21 279.50 103.00 C 276.96 101.79 272.10 99.94 269.50 99.00 C 266.90 98.06 266.04 97.88 263.88 97.38 C 261.71 96.88 259.10 96.23 256.50 96.00 C 253.90 95.77 250.02 95.81 248.25 96.00 C 246.48 96.19 246.58 96.54 245.88 97.12 Z" id="s-5-f-6"/>
</g>
<g id="s-6" clip-path="url(#c-s-6)">
<use href="#s-6-f-0"/>
</g>
<g id="s-7" clip-path="url(#c-s-7)">
<use href="#s-7-f-0"/>
<path d="M 335.25 105.88 C 333.69 105.88 334.25 105.88 333.62 106.12 C 333.00 106.38 332.08 106.85 331.50 107.38 C 330.92 107.90 330.38 108.12 330.12 109.25 C 329.88 110.38 329.73 112.44 330.00 114.12 C 330.27 115.81 331.29 117.67 331.75 119.38 C 332.21 121.08 332.40 121.44 332.75 124.38 C 333.10 127.31 333.54 130.56 333.88 137.00 C 334.21 143.44 334.58 147.81 334.75 163.00 C 334.92 178.19 334.88 208.79 334.88 228.12 C 334.88 247.46 334.90 266.69 334.75 279.00 C 334.60 291.31 334.35 295.60 334.00 302.00 C 333.65 308.40 333.29 312.79 332.62 317.38 C 331.96 321.96 330.44 326.35 330.00 329.50 C 329.56 332.65 329.65 333.79 330.00 336.25 C 330.35 338.71 331.58 342.65 332.12 344.25 C 332.67 345.85 328.69 345.60 333.25 345.88 C 337.81 346.15 354.92 346.90 359.50 345.88 C 364.08 344.85 360.52 342.29 360.75 339.75 C 360.98 337.21 361.15 339.15 360.88 330.62 C 360.60 322.10 359.42 315.71 359.12 288.62 C 358.83 261.54 358.81 193.04 359.12 168.12 C 359.44 143.21 360.52 145.23 361.00 139.12 C 361.48 133.02 361.38 134.21 362.00 131.50 C 362.62 128.79 364.27 124.94 364.75 122.88 C 365.23 120.81 365.02 120.21 364.88 119.12 C 364.73 118.04 364.79 117.56 363.88 116.38 C 362.96 115.19 361.12 113.23 359.38 112.00 C 357.62 110.77 356.10 109.98 353.38 109.00 C 350.65 108.02 346.02 106.65 343.00 106.12 C 339.98 105.60 336.81 105.88 335.25 105.88 Z" id="s-7-f-1"/>
<path d="M 334.12 106.00 C 332.17 106.25 331.94 107.04 331.25 107.62 C 330.56 108.21 330.23 109.00 330.00 109.50 C 329.77 110.00 329.88 109.85 329.88 110.62 C 329.88 111.40 329.69 112.67 330.00 114.12 C 330.31 115.58 331.27 117.48 331.75 119.38 C 332.23 121.27 332.52 122.56 332.88 125.50 C 333.23 128.44 333.58 131.73 333.88 137.00 C 334.17 142.27 334.46 136.50 334.62 157.12 C 334.79 177.75 334.88 239.06 334.88 260.75 C 334.88 282.44 334.77 281.17 334.62 287.25 C 334.48 293.33 334.00 295.48 334.00 297.25 C 334.00 299.02 334.25 297.75 334.62 297.88 C 335.00 298.00 332.17 298.00 336.25 298.00 C 340.33 298.00 355.25 298.40 359.12 297.88 C 363.00 297.35 359.52 298.48 359.50 294.88 C 359.48 291.27 359.06 297.38 359.00 276.25 C 358.94 255.12 358.79 190.98 359.12 168.12 C 359.46 145.27 360.52 145.23 361.00 139.12 C 361.48 133.02 361.38 134.21 362.00 131.50 C 362.62 128.79 364.27 124.96 364.75 122.88 C 365.23 120.79 365.02 120.08 364.88 119.00 C 364.73 117.92 364.46 117.27 363.88 116.38 C 363.29 115.48 362.38 114.50 361.38 113.62 C 360.38 112.75 359.21 111.90 357.88 111.12 C 356.54 110.35 355.85 109.83 353.38 109.00 C 350.90 108.17 346.21 106.62 343.00 106.12 C 339.79 105.62 336.08 105.75 334.12 106.00 Z" id="s-7-f-2"/>
<path d="M 334.12 106.00 C 332.21 106.21 332.17 106.83 331.50 107.38 C 330.83 107.92 330.40 108.38 330.12 109.25 C 329.85 110.12 329.44 110.10 329.88 112.62 C 330.31 115.15 332.00 118.23 332.75 124.38 C 333.50 130.52 333.98 128.67 334.38 149.50 C 334.77 170.33 334.77 232.65 335.12 249.38 C 335.48 266.10 332.81 249.79 336.50 249.88 C 340.19 249.96 353.56 249.96 357.25 249.88 C 360.94 249.79 358.35 250.17 358.62 249.38 C 358.90 248.58 358.81 257.12 358.88 245.12 C 358.94 233.12 358.83 192.88 359.00 177.38 C 359.17 161.88 359.40 159.65 359.88 152.12 C 360.35 144.60 361.10 136.92 361.88 132.25 C 362.65 127.58 364.00 126.33 364.50 124.12 C 365.00 121.92 364.98 120.29 364.88 119.00 C 364.77 117.71 364.46 117.27 363.88 116.38 C 363.29 115.48 362.38 114.50 361.38 113.62 C 360.38 112.75 359.21 111.90 357.88 111.12 C 356.54 110.35 355.85 109.83 353.38 109.00 C 350.90 108.17 346.21 106.62 343.00 106.12 C 339.79 105.62 336.04 105.79 334.12 106.00 Z" id="s-7-f-3"/>
<path d="M 333.62 106.12 C 331.71 106.33 332.08 106.85 331.50 107.38 C 330.92 107.90 330.40 108.38 330.12 109.25 C 329.85 110.12 329.44 110.10 329.88 112.62 C 330.31 115.15 332.08 120.31 332.75 124.38 C 333.42 128.44 333.54 130.56 333.88 137.00 C 334.21 143.44 334.56 152.25 334.75 163.00 C 334.94 173.75 334.90 195.00 335.00 201.50 C 335.10 208.00 331.48 201.92 335.38 202.00 C 339.27 202.08 354.46 202.33 358.38 202.00 C 362.29 201.67 358.75 205.65 358.88 200.00 C 359.00 194.35 358.94 176.44 359.12 168.12 C 359.31 159.81 359.54 156.10 360.00 150.12 C 360.46 144.15 361.12 136.58 361.88 132.25 C 362.62 127.92 364.02 126.46 364.50 124.12 C 364.98 121.79 364.85 119.54 364.75 118.25 C 364.65 116.96 364.44 117.15 363.88 116.38 C 363.31 115.60 362.38 114.50 361.38 113.62 C 360.38 112.75 359.21 111.90 357.88 111.12 C 356.54 110.35 355.85 109.83 353.38 109.00 C 350.90 108.17 346.29 106.60 343.00 106.12 C 339.71 105.65 335.54 105.92 333.62 106.12 Z" id="s-7-f-4"/>
<path d="M 332.12 106.88 C 331.44 107.46 330.38 108.54 330.00 109.50 C 329.62 110.46 329.42 110.15 329.88 112.62 C 330.33 115.10 332.08 120.31 332.75 124.38 C 333.42 128.44 333.56 132.12 333.88 137.00 C 334.19 141.88 334.17 150.79 334.62 153.62 C 335.08 156.46 332.46 153.98 336.62 154.00 C 340.79 154.02 355.42 157.38 359.62 153.75 C 363.83 150.12 361.02 137.40 361.88 132.25 C 362.73 127.10 364.25 125.08 364.75 122.88 C 365.25 120.67 365.02 120.08 364.88 119.00 C 364.73 117.92 364.79 117.54 363.88 116.38 C 362.96 115.21 361.12 113.23 359.38 112.00 C 357.62 110.77 355.25 109.79 353.38 109.00 C 351.50 108.21 349.85 107.73 348.12 107.25 C 346.40 106.77 345.33 106.33 343.00 106.12 C 340.67 105.92 335.94 105.88 334.12 106.00 C 332.31 106.12 332.81 106.29 332.12 106.88 Z" id="s-7-f-5"/>
</g>
<g id="s-8" clip-path="url(#c-s-8)">
<use href="#s-8-f-0"/>
<path d="M 363.38 210.75 C 363.06 211.06 362.94 211.08 362.88 211.62 C 362.81 212.17 362.52 212.79 363.00 214.00 C 363.48 215.21 363.81 216.38 365.75 218.88 C 367.69 221.38 370.65 224.81 374.62 229.00 C 378.60 233.19 386.10 240.71 389.62 244.00 C 393.15 247.29 393.60 247.35 395.75 248.75 C 397.90 250.15 400.40 251.71 402.50 252.38 C 404.60 253.04 406.98 252.90 408.38 252.75 C 409.77 252.60 410.48 256.12 410.88 251.50 C 411.27 246.88 411.42 230.62 410.75 225.00 C 410.08 219.38 408.02 219.44 406.88 217.75 C 405.73 216.06 405.08 215.83 403.88 214.88 C 402.67 213.92 401.08 212.81 399.62 212.00 C 398.17 211.19 397.46 210.67 395.12 210.00 C 392.79 209.33 388.83 208.33 385.62 208.00 C 382.42 207.67 378.92 207.85 375.88 208.00 C 372.83 208.15 369.23 208.58 367.38 208.88 C 365.52 209.17 365.42 209.44 364.75 209.75 C 364.08 210.06 363.69 210.44 363.38 210.75 Z" id="s-8-f-1"/>
</g>
<g id="s-9" clip-path="url(#c-s-9)">
<use href="#s-9-f-0"/>
<path d="M 415.88 41.88 C 414.29 41.96 413.69 42.31 412.88 42.75 C 412.06 43.19 411.48 43.83 411.00 44.50 C 410.52 45.17 410.19 45.58 410.00 46.75 C 409.81 47.92 409.83 49.94 409.88 51.50 C 409.92 53.06 409.62 52.65 410.25 56.12 C 410.88 59.60 412.90 68.48 413.62 72.38 C 414.35 76.27 414.27 76.23 414.62 79.50 C 414.98 82.77 415.42 86.83 415.75 92.00 C 416.08 97.17 416.42 56.25 416.62 110.50 C 416.83 164.75 416.79 365.04 417.00 417.50 C 417.21 469.96 417.65 423.85 417.88 425.25 C 418.10 426.65 414.81 425.75 418.38 425.88 C 421.94 426.00 435.65 426.15 439.25 426.00 C 442.85 425.85 439.58 428.06 440.00 425.00 C 440.42 421.94 441.00 419.42 441.75 407.62 C 442.50 395.83 442.94 406.15 444.50 354.25 C 446.06 302.35 449.94 140.60 451.12 96.25 C 452.31 51.90 451.31 91.08 451.62 88.12 C 451.94 85.17 452.60 80.73 453.00 78.50 C 453.40 76.27 453.56 75.85 454.00 74.75 C 454.44 73.65 455.19 72.88 455.62 71.88 C 456.06 70.88 456.42 70.10 456.62 68.75 C 456.83 67.40 457.02 65.21 456.88 63.75 C 456.73 62.29 456.31 61.10 455.75 60.00 C 455.19 58.90 454.48 58.12 453.50 57.12 C 452.52 56.12 452.73 55.69 449.88 54.00 C 447.02 52.31 439.90 48.67 436.38 47.00 C 432.85 45.33 431.08 44.79 428.75 44.00 C 426.42 43.21 424.52 42.60 422.38 42.25 C 420.23 41.90 417.46 41.79 415.88 41.88 Z" id="s-9-f-1"/>
<path d="M 415.88 41.88 C 414.29 41.96 413.69 42.31 412.88 42.75 C 412.06 43.19 411.48 43.83 411.00 44.50 C 410.52 45.17 410.19 45.58 410.00 46.75 C 409.81 47.92 409.83 49.94 409.88 51.50 C 409.92 53.06 409.62 52.65 410.25 56.12 C 410.88 59.60 412.90 68.48 413.62 72.38 C 414.35 76.27 414.27 76.23 414.62 79.50 C 414.98 82.77 415.42 86.83 415.75 92.00 C 416.08 97.17 416.42 62.98 416.62 110.50 C 416.83 158.02 416.90 332.56 417.00 377.12 C 417.10 421.69 416.96 377.73 417.25 377.88 C 417.54 378.02 414.48 378.00 418.75 378.00 C 423.02 378.00 438.73 378.12 442.88 377.88 C 447.02 377.62 443.31 381.81 443.62 376.50 C 443.94 371.19 443.50 392.71 444.75 346.00 C 446.00 299.29 449.98 139.23 451.12 96.25 C 452.27 53.27 451.31 91.08 451.62 88.12 C 451.94 85.17 452.60 80.73 453.00 78.50 C 453.40 76.27 453.56 75.85 454.00 74.75 C 454.44 73.65 455.21 72.81 455.62 71.88 C 456.04 70.94 456.29 70.48 456.50 69.12 C 456.71 67.77 457.00 65.27 456.88 63.75 C 456.75 62.23 456.31 61.10 455.75 60.00 C 455.19 58.90 454.48 58.12 453.50 57.12 C 452.52 56.12 452.73 55.69 449.88 54.00 C 447.02 52.31 439.90 48.67 436.38 47.00 C 432.85 45.33 431.08 44.79 428.75 44.00 C 426.42 43.21 424.52 42.60 422.38 42.25 C 420.23 41.90 417.46 41.79 415.88 41.88 Z" id="s-9-f-2"/>
<path d="M 414.50 42.00 C 412.85 42.12 413.21 42.33 412.50 43.00 C 411.79 43.67 410.69 44.58 410.25 46.00 C 409.81 47.42 409.88 49.81 409.88 51.50 C 409.88 53.19 409.62 52.65 410.25 56.12 C 410.88 59.60 412.90 68.48 413.62 72.38 C 414.35 76.27 414.27 76.23 414.62 79.50 C 414.98 82.77 415.42 86.83 415.75 92.00 C 416.08 97.17 416.42 70.94 416.62 110.50 C 416.83 150.06 416.88 292.79 417.00 329.38 C 417.12 365.96 412.81 329.90 417.38 330.00 C 421.94 330.10 439.77 330.12 444.38 330.00 C 448.98 329.88 443.88 368.21 445.00 329.25 C 446.12 290.29 450.02 136.44 451.12 96.25 C 452.23 56.06 451.33 90.96 451.62 88.12 C 451.92 85.29 452.48 81.48 452.88 79.25 C 453.27 77.02 453.54 75.98 454.00 74.75 C 454.46 73.52 455.19 72.90 455.62 71.88 C 456.06 70.85 456.44 70.19 456.62 68.62 C 456.81 67.06 457.04 64.17 456.75 62.50 C 456.46 60.83 455.81 59.90 454.88 58.62 C 453.94 57.35 453.85 56.65 451.12 54.88 C 448.40 53.10 442.17 49.79 438.50 48.00 C 434.83 46.21 431.81 45.08 429.12 44.12 C 426.44 43.17 424.81 42.60 422.38 42.25 C 419.94 41.90 416.15 41.88 414.50 42.00 Z" id="s-9-f-3"/>
<path d="M 414.50 42.00 C 412.85 42.12 413.21 42.33 412.50 43.00 C 411.79 43.67 410.69 44.58 410.25 46.00 C 409.81 47.42 409.90 49.92 409.88 51.50 C 409.85 53.08 409.50 52.02 410.12 55.50 C 410.75 58.98 412.88 68.38 413.62 72.38 C 414.38 76.38 414.27 76.23 414.62 79.50 C 414.98 82.77 415.42 86.83 415.75 92.00 C 416.08 97.17 416.42 78.90 416.62 110.50 C 416.83 142.10 416.88 253.04 417.00 281.62 C 417.12 310.21 412.58 281.96 417.38 282.00 C 422.17 282.04 440.92 281.96 445.75 281.88 C 450.58 281.79 445.48 312.44 446.38 281.50 C 447.27 250.56 450.25 128.48 451.12 96.25 C 452.00 64.02 451.33 90.96 451.62 88.12 C 451.92 85.29 452.48 81.48 452.88 79.25 C 453.27 77.02 453.54 75.98 454.00 74.75 C 454.46 73.52 455.19 72.90 455.62 71.88 C 456.06 70.85 456.44 70.19 456.62 68.62 C 456.81 67.06 457.08 64.21 456.75 62.50 C 456.42 60.79 455.52 59.60 454.62 58.38 C 453.73 57.15 452.75 56.19 451.38 55.12 C 450.00 54.06 448.52 53.19 446.38 52.00 C 444.23 50.81 441.38 49.31 438.50 48.00 C 435.62 46.69 431.81 45.08 429.12 44.12 C 426.44 43.17 424.81 42.60 422.38 42.25 C 419.94 41.90 416.15 41.88 414.50 42.00 Z" id="s-9-f-4"/>
<path d="M 414.50 42.00 C 412.85 42.12 413.21 42.33 412.50 43.00 C 411.79 43.67 410.69 44.58 410.25 46.00 C 409.81 47.42 409.90 49.92 409.88 51.50 C 409.85 53.08 409.50 52.02 410.12 55.50 C 410.75 58.98 412.88 68.38 413.62 72.38 C 414.38 76.38 414.15 73.81 414.62 79.50 C 415.10 85.19 416.10 80.88 416.50 106.50 C 416.90 132.12 416.85 212.00 417.00 233.25 C 417.15 254.50 412.35 233.90 417.38 234.00 C 422.40 234.10 442.08 233.98 447.12 233.88 C 452.17 233.77 446.94 256.69 447.62 233.38 C 448.31 210.06 450.35 119.81 451.25 94.00 C 452.15 68.19 452.54 81.71 453.00 78.50 C 453.46 75.29 453.56 75.85 454.00 74.75 C 454.44 73.65 455.17 73.00 455.62 71.88 C 456.08 70.75 456.56 69.56 456.75 68.00 C 456.94 66.44 457.10 64.10 456.75 62.50 C 456.40 60.90 455.52 59.60 454.62 58.38 C 453.73 57.15 452.75 56.19 451.38 55.12 C 450.00 54.06 448.52 53.19 446.38 52.00 C 444.23 50.81 441.38 49.31 438.50 48.00 C 435.62 46.69 431.81 45.08 429.12 44.12 C 426.44 43.17 424.81 42.60 422.38 42.25 C 419.94 41.90 416.15 41.88 414.50 42.00 Z" id="s-9-f-5"/>
<path d="M 414.50 42.00 C 412.85 42.12 413.21 42.33 412.50 43.00 C 411.79 43.67 410.69 44.58 410.25 46.00 C 409.81 47.42 409.75 49.08 409.88 51.50 C 410.00 53.92 410.38 57.02 411.00 60.50 C 411.62 63.98 412.83 67.12 413.62 72.38 C 414.42 77.62 415.25 85.65 415.75 92.00 C 416.25 98.35 416.42 94.94 416.62 110.50 C 416.83 126.06 416.88 172.79 417.00 185.38 C 417.12 197.96 412.15 185.90 417.38 186.00 C 422.60 186.10 443.12 186.15 448.38 186.00 C 453.62 185.85 448.48 195.58 448.88 185.12 C 449.27 174.67 450.40 137.58 450.75 123.25 C 451.10 108.92 450.85 104.98 451.00 99.12 C 451.15 93.27 451.27 91.65 451.62 88.12 C 451.98 84.60 452.73 80.23 453.12 78.00 C 453.52 75.77 453.58 75.77 454.00 74.75 C 454.42 73.73 455.19 72.88 455.62 71.88 C 456.06 70.88 456.44 70.31 456.62 68.75 C 456.81 67.19 457.08 64.23 456.75 62.50 C 456.42 60.77 455.52 59.60 454.62 58.38 C 453.73 57.15 452.75 56.19 451.38 55.12 C 450.00 54.06 448.52 53.19 446.38 52.00 C 444.23 50.81 441.38 49.31 438.50 48.00 C 435.62 46.69 431.81 45.08 429.12 44.12 C 426.44 43.17 424.81 42.60 422.38 42.25 C 419.94 41.90 416.15 41.88 414.50 42.00 Z" id="s-9-f-6"/>
<path d="M 414.50 42.00 C 412.85 42.12 413.21 42.33 412.50 43.00 C 411.79 43.67 410.69 44.58 410.25 46.00 C 409.81 47.42 409.75 49.08 409.88 51.50 C 410.00 53.92 410.38 57.02 411.00 60.50 C 411.62 63.98 412.85 67.42 413.62 72.38 C 414.40 77.33 415.15 84.56 415.62 90.25 C 416.10 95.94 416.25 98.60 416.50 106.50 C 416.75 114.40 415.40 132.38 417.12 137.62 C 418.85 142.88 421.42 137.98 426.88 138.00 C 432.33 138.02 445.96 138.25 449.88 137.75 C 453.79 137.25 450.19 141.44 450.38 135.00 C 450.56 128.56 450.79 106.94 451.00 99.12 C 451.21 91.31 451.27 91.65 451.62 88.12 C 451.98 84.60 452.27 81.35 453.12 78.00 C 453.98 74.65 456.17 70.65 456.75 68.00 C 457.33 65.35 456.98 63.73 456.62 62.12 C 456.27 60.52 455.50 59.54 454.62 58.38 C 453.75 57.21 452.75 56.19 451.38 55.12 C 450.00 54.06 448.52 53.19 446.38 52.00 C 444.23 50.81 441.38 49.31 438.50 48.00 C 435.62 46.69 431.81 45.08 429.12 44.12 C 426.44 43.17 424.81 42.60 422.38 42.25 C 419.94 41.90 416.15 41.88 414.50 42.00 Z" id="s-9-f-7"/>
<path d="M 412.50 43.00 C 411.92 43.42 411.42 43.88 411.00 44.50 C 410.58 45.12 410.17 45.08 410.00 46.75 C 409.83 48.42 409.40 50.23 410.00 54.50 C 410.60 58.77 412.71 66.56 413.62 72.38 C 414.54 78.19 415.08 86.46 415.50 89.38 C 415.92 92.29 410.56 89.77 416.12 89.88 C 421.69 89.98 443.00 90.04 448.88 90.00 C 454.75 89.96 450.69 91.54 451.38 89.62 C 452.06 87.71 452.56 80.98 453.00 78.50 C 453.44 76.02 453.56 75.85 454.00 74.75 C 454.44 73.65 455.17 73.00 455.62 71.88 C 456.08 70.75 456.56 69.56 456.75 68.00 C 456.94 66.44 457.10 64.10 456.75 62.50 C 456.40 60.90 455.52 59.60 454.62 58.38 C 453.73 57.15 452.75 56.19 451.38 55.12 C 450.00 54.06 448.88 53.35 446.38 52.00 C 443.88 50.65 439.25 48.31 436.38 47.00 C 433.50 45.69 431.46 44.92 429.12 44.12 C 426.79 43.33 424.06 42.62 422.38 42.25 C 420.69 41.88 420.31 41.92 419.00 41.88 C 417.69 41.83 415.58 41.81 414.50 42.00 C 413.42 42.19 413.08 42.58 412.50 43.00 Z" id="s-9-f-8"/>
</g>
</svg>