<?xml version="1.0" encoding="UTF-8"?>
<svg xmlns="http://www.w3.org/2000/svg" viewBox="0 0 500 500">
<defs>
<path d="M 93.88 69.25 C 92.88 69.48 93.02 69.88 92.88 70.38 C 92.73 70.88 92.35 71.02 93.00 72.25 C 93.65 73.48 94.42 73.56 96.75 77.75 C 99.08 81.94 103.65 91.27 107.00 97.38 C 110.35 103.48 113.58 109.15 116.88 114.38 C 120.17 119.60 123.73 124.73 126.75 128.75 C 129.77 132.77 132.88 136.17 135.00 138.50 C 137.12 140.83 137.92 141.69 139.50 142.75 C 141.08 143.81 143.02 144.54 144.50 144.88 C 145.98 145.21 147.40 144.92 148.38 144.75 C 149.35 144.58 149.62 144.50 150.38 143.88 C 151.12 143.25 152.31 141.90 152.88 141.00 C 153.44 140.10 153.60 140.85 153.75 138.50 C 153.90 136.15 153.92 130.21 153.75 126.88 C 153.58 123.54 153.10 120.77 152.75 118.50 C 152.40 116.23 152.29 115.56 151.62 113.25 C 150.96 110.94 149.56 106.79 148.75 104.62 C 147.94 102.46 147.62 101.81 146.75 100.25 C 145.88 98.69 144.79 96.85 143.50 95.25 C 142.21 93.65 140.48 92.00 139.00 90.62 C 137.52 89.25 137.44 88.94 134.62 87.00 C 131.81 85.06 127.44 81.83 122.12 79.00 C 116.81 76.17 106.62 71.67 102.75 70.00 C 98.88 68.33 100.35 69.12 98.88 69.00 C 97.40 68.88 94.88 69.02 93.88 69.25 Z" id="s-0-f-0"/>
<clipPath id="c-s-0"><use href="#s-0-f-0"/></clipPath>
<path d="M 184.88 155.25 C 184.77 153.04 185.19 154.56 184.12 155.00 C 183.06 155.44 184.15 154.23 178.50 157.88 C 172.85 161.52 158.33 171.56 150.25 176.88 C 142.17 182.19 136.73 185.60 130.00 189.75 C 123.27 193.90 115.60 198.52 109.88 201.75 C 104.15 204.98 99.54 206.94 95.62 209.12 C 91.71 211.31 89.48 213.54 86.38 214.88 C 83.27 216.21 78.75 216.52 77.00 217.12 C 75.25 217.73 76.04 217.85 75.88 218.50 C 75.71 219.15 75.65 219.94 76.00 221.00 C 76.35 222.06 76.56 223.02 78.00 224.88 C 79.44 226.73 81.56 229.46 84.62 232.12 C 87.69 234.79 93.85 239.10 96.38 240.88 C 98.90 242.65 98.42 242.17 99.75 242.75 C 101.08 243.33 103.10 244.02 104.38 244.38 C 105.65 244.73 106.42 244.83 107.38 244.88 C 108.33 244.92 108.79 245.73 110.12 244.62 C 111.46 243.52 111.69 242.29 115.38 238.25 C 119.06 234.21 124.21 228.46 132.25 220.38 C 140.29 212.29 154.88 198.44 163.62 189.75 C 172.38 181.06 181.21 174.00 184.75 168.25 C 188.29 162.50 184.98 157.46 184.88 155.25 Z" id="s-1-f-0"/>
<clipPath id="c-s-1"><use href="#s-1-f-0"/></clipPath>
<path d="M 185.38 45.00 C 183.90 45.31 181.65 46.27 180.62 46.88 C 179.60 47.48 179.54 48.06 179.25 48.62 C 178.96 49.19 178.90 49.52 178.88 50.25 C 178.85 50.98 178.67 51.67 179.12 53.00 C 179.58 54.33 181.02 56.50 181.62 58.25 C 182.23 60.00 182.25 59.69 182.75 63.50 C 183.25 67.31 184.27 65.98 184.62 81.12 C 184.98 96.27 184.90 141.88 184.88 154.38 C 184.85 166.88 184.56 153.94 184.50 156.12 C 184.44 158.31 184.44 165.33 184.50 167.50 C 184.56 169.67 184.77 159.19 184.88 169.12 C 184.98 179.06 184.88 215.00 185.12 227.12 C 185.38 239.25 185.88 237.94 186.38 241.88 C 186.88 245.81 187.38 248.19 188.12 250.75 C 188.88 253.31 190.00 255.75 190.88 257.25 C 191.75 258.75 192.65 259.31 193.38 259.75 C 194.10 260.19 194.52 260.23 195.25 259.88 C 195.98 259.52 197.17 258.29 197.75 257.62 C 198.33 256.96 197.98 257.77 198.75 255.88 C 199.52 253.98 201.04 250.65 202.38 246.25 C 203.71 241.85 205.52 235.19 206.75 229.50 C 207.98 223.81 208.90 218.56 209.75 212.12 C 210.60 205.69 211.33 210.85 211.88 190.88 C 212.42 170.90 212.65 110.02 213.00 92.25 C 213.35 74.48 213.50 87.25 214.00 84.25 C 214.50 81.25 215.48 76.54 216.00 74.25 C 216.52 71.96 216.33 71.96 217.12 70.50 C 217.92 69.04 220.12 66.67 220.75 65.50 C 221.38 64.33 221.04 64.38 220.88 63.50 C 220.71 62.62 220.27 61.23 219.75 60.25 C 219.23 59.27 218.77 58.62 217.75 57.62 C 216.73 56.62 214.90 55.17 213.62 54.25 C 212.35 53.33 213.35 53.48 210.12 52.12 C 206.90 50.77 197.69 47.31 194.25 46.12 C 190.81 44.94 190.98 45.19 189.50 45.00 C 188.02 44.81 186.85 44.69 185.38 45.00 Z" id="s-2-f-0"/>
<clipPath id="c-s-2"><use href="#s-2-f-0"/></clipPath>
<path d="M 370.88 46.12 C 370.44 45.06 370.90 44.38 368.12 42.00 C 365.35 39.62 357.10 33.88 354.25 31.88 C 351.40 29.88 352.33 30.62 351.00 30.00 C 349.67 29.38 347.81 28.46 346.25 28.12 C 344.69 27.79 343.12 27.65 341.62 28.00 C 340.12 28.35 339.31 28.67 337.25 30.25 C 335.19 31.83 331.92 35.27 329.25 37.50 C 326.58 39.73 325.73 40.58 321.25 43.62 C 316.77 46.67 308.88 51.90 302.38 55.75 C 295.88 59.60 287.62 63.92 282.25 66.75 C 276.88 69.58 273.65 71.08 270.12 72.75 C 266.60 74.42 263.75 75.71 261.12 76.75 C 258.50 77.79 255.73 78.42 254.38 79.00 C 253.02 79.58 253.23 79.94 253.00 80.25 C 252.77 80.56 252.83 80.65 253.00 80.88 C 253.17 81.10 253.17 81.46 254.00 81.62 C 254.83 81.79 255.50 81.92 258.00 81.88 C 260.50 81.83 265.58 81.73 269.00 81.38 C 272.42 81.02 273.65 80.88 278.50 79.75 C 283.35 78.62 288.25 77.71 298.12 74.62 C 308.00 71.54 328.71 64.19 337.75 61.25 C 346.79 58.31 348.83 57.94 352.38 57.00 C 355.92 56.06 356.94 56.19 359.00 55.62 C 361.06 55.06 363.25 54.27 364.75 53.62 C 366.25 52.98 367.17 52.33 368.00 51.75 C 368.83 51.17 369.29 50.69 369.75 50.12 C 370.21 49.56 370.56 49.04 370.75 48.38 C 370.94 47.71 371.31 47.19 370.88 46.12 Z" id="s-3-f-0"/>
<clipPath id="c-s-3"><use href="#s-3-f-0"/></clipPath>
<path d="M 238.00 102.75 C 237.79 103.25 235.33 100.33 238.00 104.88 C 240.67 109.42 250.19 124.35 254.00 130.00 C 257.81 135.65 258.71 136.19 260.88 138.75 C 263.04 141.31 265.50 143.90 267.00 145.38 C 268.50 146.85 268.75 147.04 269.88 147.62 C 271.00 148.21 272.35 148.71 273.75 148.88 C 275.15 149.04 277.19 148.79 278.25 148.62 C 279.31 148.46 279.40 148.35 280.12 147.88 C 280.85 147.40 282.02 146.40 282.62 145.75 C 283.23 145.10 283.38 145.02 283.75 144.00 C 284.12 142.98 284.75 141.90 284.88 139.62 C 285.00 137.35 284.69 132.44 284.50 130.38 C 284.31 128.31 284.21 128.54 283.75 127.25 C 283.29 125.96 282.73 124.23 281.75 122.62 C 280.77 121.02 279.29 119.08 277.88 117.62 C 276.46 116.17 275.19 115.15 273.25 113.88 C 271.31 112.60 268.27 111.00 266.25 110.00 C 264.23 109.00 264.75 109.19 261.12 107.88 C 257.50 106.56 248.15 103.12 244.50 102.12 C 240.85 101.12 240.33 101.77 239.25 101.88 C 238.17 101.98 238.21 102.25 238.00 102.75 Z" id="s-4-f-0"/>
<clipPath id="c-s-4"><use href="#s-4-f-0"/></clipPath>
<path d="M 287.75 84.00 C 286.77 84.19 287.00 84.69 286.88 85.25 C 286.75 85.81 285.00 83.23 287.00 87.38 C 289.00 91.52 296.06 104.96 298.88 110.12 C 301.69 115.29 302.38 116.08 303.88 118.38 C 305.38 120.67 306.73 122.48 307.88 123.88 C 309.02 125.27 309.69 125.94 310.75 126.75 C 311.81 127.56 312.90 128.42 314.25 128.75 C 315.60 129.08 317.44 129.08 318.88 128.75 C 320.31 128.42 321.88 127.52 322.88 126.75 C 323.88 125.98 324.42 124.94 324.88 124.12 C 325.33 123.31 325.48 123.85 325.62 121.88 C 325.77 119.90 325.92 114.81 325.75 112.25 C 325.58 109.69 325.12 108.21 324.62 106.50 C 324.12 104.79 323.40 103.27 322.75 102.00 C 322.10 100.73 321.81 100.04 320.75 98.88 C 319.69 97.71 318.65 96.48 316.38 95.00 C 314.10 93.52 311.06 91.81 307.12 90.00 C 303.19 88.19 295.98 85.12 292.75 84.12 C 289.52 83.12 288.73 83.81 287.75 84.00 Z" id="s-5-f-0"/>
<clipPath id="c-s-5"><use href="#s-5-f-0"/></clipPath>
<path d="M 405.75 73.88 C 404.62 72.27 403.62 70.92 401.00 68.62 C 398.38 66.33 392.62 62.04 390.00 60.12 C 387.38 58.21 386.79 57.96 385.25 57.12 C 383.71 56.29 382.12 55.46 380.75 55.12 C 379.38 54.79 377.81 54.88 377.00 55.12 C 376.19 55.38 376.29 55.48 375.88 56.62 C 375.46 57.77 375.21 59.83 374.50 62.00 C 373.79 64.17 373.42 65.44 371.62 69.62 C 369.83 73.81 366.40 81.92 363.75 87.12 C 361.10 92.33 357.92 97.38 355.75 100.88 C 353.58 104.38 352.46 105.83 350.75 108.12 C 349.04 110.42 347.35 112.52 345.50 114.62 C 343.65 116.73 340.67 119.56 339.62 120.75 C 338.58 121.94 337.96 121.56 339.25 121.75 C 340.54 121.94 345.31 122.21 347.38 121.88 C 349.44 121.54 349.29 121.08 351.62 119.75 C 353.96 118.42 357.85 116.17 361.38 113.88 C 364.90 111.58 368.65 108.65 372.75 106.00 C 376.85 103.35 380.90 100.88 386.00 98.00 C 391.10 95.12 399.92 90.85 403.38 88.75 C 406.83 86.65 406.02 86.29 406.75 85.38 C 407.48 84.46 407.58 84.44 407.75 83.25 C 407.92 82.06 408.08 79.81 407.75 78.25 C 407.42 76.69 406.88 75.48 405.75 73.88 Z" id="s-6-f-0"/>
<clipPath id="c-s-6"><use href="#s-6-f-0"/></clipPath>
<path d="M 428.88 160.25 C 428.67 159.42 428.21 158.29 427.50 157.25 C 426.79 156.21 426.69 155.73 424.62 154.00 C 422.56 152.27 418.88 148.69 415.12 146.88 C 411.38 145.06 405.33 143.77 402.12 143.12 C 398.92 142.48 400.65 142.35 395.88 143.00 C 391.10 143.65 378.25 146.04 373.50 147.00 C 368.75 147.96 371.44 148.10 367.38 148.75 C 363.31 149.40 357.10 149.71 349.12 150.88 C 341.15 152.04 331.69 153.94 319.50 155.75 C 307.31 157.56 291.92 159.71 276.00 161.75 C 260.08 163.79 233.52 166.79 224.00 168.00 C 214.48 169.21 219.88 168.71 218.88 169.00 C 217.88 169.29 218.17 169.42 218.00 169.75 C 217.83 170.08 217.71 170.44 217.88 171.00 C 218.04 171.56 218.33 172.35 219.00 173.12 C 219.67 173.90 219.60 174.35 221.88 175.62 C 224.15 176.90 229.96 179.58 232.62 180.75 C 235.29 181.92 236.08 182.12 237.88 182.62 C 239.67 183.12 241.54 183.54 243.38 183.75 C 245.21 183.96 246.54 184.15 248.88 183.88 C 251.21 183.60 250.29 183.27 257.38 182.12 C 264.46 180.98 279.46 178.69 291.38 177.00 C 303.29 175.31 320.96 172.98 328.88 172.00 C 336.79 171.02 335.42 171.31 338.88 171.12 C 342.33 170.94 345.21 171.25 349.62 170.88 C 354.04 170.50 353.23 169.75 365.38 168.88 C 377.52 168.00 412.17 166.46 422.50 165.62 C 432.83 164.79 426.33 164.44 427.38 163.88 C 428.42 163.31 428.50 162.85 428.75 162.25 C 429.00 161.65 429.08 161.08 428.88 160.25 Z" id="s-7-f-0"/>
<clipPath id="c-s-7"><use href="#s-7-f-0"/></clipPath>
<path d="M 346.50 121.50 C 342.90 120.81 339.94 121.56 338.50 121.88 C 337.06 122.19 337.94 122.29 337.88 123.38 C 337.81 124.46 337.31 125.23 338.12 128.38 C 338.94 131.52 341.69 138.65 342.75 142.25 C 343.81 145.85 344.17 146.17 344.50 150.00 C 344.83 153.83 344.52 161.69 344.75 165.25 C 344.98 168.81 345.73 167.29 345.88 171.38 C 346.02 175.46 345.79 184.48 345.62 189.75 C 345.46 195.02 345.19 199.21 344.88 203.00 C 344.56 206.79 344.12 210.29 343.75 212.50 C 343.38 214.71 343.33 215.04 342.62 216.25 C 341.92 217.46 340.58 219.00 339.50 219.75 C 338.42 220.50 337.38 220.60 336.12 220.75 C 334.88 220.90 333.46 220.79 332.00 220.62 C 330.54 220.46 331.10 220.69 327.38 219.75 C 323.65 218.81 313.29 215.79 309.62 215.00 C 305.96 214.21 306.33 214.77 305.38 215.00 C 304.42 215.23 304.10 215.81 303.88 216.38 C 303.65 216.94 303.69 217.58 304.00 218.38 C 304.31 219.17 303.48 218.75 305.75 221.12 C 308.02 223.50 314.62 229.58 317.62 232.62 C 320.62 235.67 320.98 235.98 323.75 239.38 C 326.52 242.77 331.81 250.75 334.25 253.00 C 336.69 255.25 337.25 253.02 338.38 252.88 C 339.50 252.73 337.88 252.60 341.00 252.12 C 344.12 251.65 354.17 250.60 357.12 250.00 C 360.08 249.40 357.96 249.75 358.75 248.50 C 359.54 247.25 361.04 244.38 361.88 242.50 C 362.71 240.62 363.15 239.42 363.75 237.25 C 364.35 235.08 365.02 232.48 365.50 229.50 C 365.98 226.52 366.42 224.88 366.62 219.38 C 366.83 213.88 367.00 203.12 366.75 196.50 C 366.50 189.88 365.42 184.19 365.12 179.62 C 364.83 175.06 364.85 171.42 365.00 169.12 C 365.15 166.83 365.79 167.71 366.00 165.88 C 366.21 164.04 366.06 159.96 366.25 158.12 C 366.44 156.29 367.00 156.62 367.12 154.88 C 367.25 153.12 366.73 150.04 367.00 147.62 C 367.27 145.21 368.46 142.69 368.75 140.38 C 369.04 138.06 368.94 135.31 368.75 133.75 C 368.56 132.19 368.25 131.94 367.62 131.00 C 367.00 130.06 366.25 128.96 365.00 128.12 C 363.75 127.29 363.21 127.10 360.12 126.00 C 357.04 124.90 350.10 122.19 346.50 121.50 Z" id="s-8-f-0"/>
<clipPath id="c-s-8"><use href="#s-8-f-0"/></clipPath>
<path d="M 252.38 194.00 C 251.48 194.40 251.77 195.56 251.88 196.50 C 251.98 197.44 251.15 196.10 253.00 199.62 C 254.85 203.15 260.00 212.69 263.00 217.62 C 266.00 222.56 269.25 226.90 271.00 229.25 C 272.75 231.60 272.67 231.15 273.50 231.75 C 274.33 232.35 274.92 232.73 276.00 232.88 C 277.08 233.02 278.71 233.06 280.00 232.62 C 281.29 232.19 282.79 231.19 283.75 230.25 C 284.71 229.31 285.27 228.04 285.75 227.00 C 286.23 225.96 286.46 225.98 286.62 224.00 C 286.79 222.02 287.08 217.67 286.75 215.12 C 286.42 212.58 285.46 210.48 284.62 208.75 C 283.79 207.02 282.96 206.04 281.75 204.75 C 280.54 203.46 279.15 202.10 277.38 201.00 C 275.60 199.90 274.48 199.27 271.12 198.12 C 267.77 196.98 260.38 194.81 257.25 194.12 C 254.12 193.44 253.27 193.60 252.38 194.00 Z" id="s-9-f-0"/>
<clipPath id="c-s-9"><use href="#s-9-f-0"/></clipPath>
<path d="M 436.88 267.38 C 436.71 266.27 436.29 264.69 435.75 263.62 C 435.21 262.56 434.75 262.10 433.62 261.00 C 432.50 259.90 430.92 258.35 429.00 257.00 C 427.08 255.65 424.75 254.21 422.12 252.88 C 419.50 251.54 416.08 250.12 413.25 249.00 C 410.42 247.88 407.27 246.79 405.12 246.12 C 402.98 245.46 402.10 245.19 400.38 245.00 C 398.65 244.81 401.67 244.23 394.75 245.00 C 387.83 245.77 365.06 248.94 358.88 249.62 C 352.69 250.31 358.92 249.12 357.62 249.12 C 356.33 249.12 352.54 249.40 351.12 249.62 C 349.71 249.85 350.33 250.33 349.12 250.50 C 347.92 250.67 345.19 250.46 343.88 250.62 C 342.56 250.79 342.67 251.33 341.25 251.50 C 339.83 251.67 336.75 251.40 335.38 251.62 C 334.00 251.85 342.50 251.69 333.00 252.88 C 323.50 254.06 290.52 257.56 278.38 258.75 C 266.23 259.94 268.38 259.29 260.12 260.00 C 251.88 260.71 246.29 261.17 228.88 263.00 C 211.46 264.83 175.77 268.54 155.62 271.00 C 135.48 273.46 119.23 276.35 108.00 277.75 C 96.77 279.15 94.71 279.00 88.25 279.38 C 81.79 279.75 73.12 279.71 69.25 280.00 C 65.38 280.29 65.94 280.79 65.00 281.12 C 64.06 281.46 64.12 281.48 63.62 282.00 C 63.12 282.52 62.29 283.52 62.00 284.25 C 61.71 284.98 61.62 285.62 61.88 286.38 C 62.12 287.12 62.81 287.98 63.50 288.75 C 64.19 289.52 63.50 289.17 66.00 291.00 C 68.50 292.83 75.19 297.62 78.50 299.75 C 81.81 301.88 83.42 302.60 85.88 303.75 C 88.33 304.90 91.27 306.10 93.25 306.62 C 95.23 307.15 95.75 307.04 97.75 306.88 C 99.75 306.71 99.27 307.10 105.25 305.62 C 111.23 304.15 125.08 300.10 133.62 298.00 C 142.17 295.90 148.90 294.50 156.50 293.00 C 164.10 291.50 170.88 290.33 179.25 289.00 C 187.62 287.67 199.19 285.88 206.75 285.00 C 214.31 284.12 220.17 284.12 224.62 283.75 C 229.08 283.38 230.58 283.21 233.50 282.75 C 236.42 282.29 237.31 281.62 242.12 281.00 C 246.94 280.38 248.98 280.02 262.38 279.00 C 275.77 277.98 308.19 275.71 322.50 274.88 C 336.81 274.04 339.88 274.15 348.25 274.00 C 356.62 273.85 362.31 273.71 372.75 274.00 C 383.19 274.29 401.48 275.46 410.88 275.75 C 420.27 276.04 425.46 275.94 429.12 275.75 C 432.79 275.56 431.83 275.15 432.88 274.62 C 433.92 274.10 434.73 273.35 435.38 272.62 C 436.02 271.90 436.50 271.12 436.75 270.25 C 437.00 269.38 437.04 268.48 436.88 267.38 Z" id="s-10-f-0"/>
<clipPath id="c-s-10"><use href="#s-10-f-0"/></clipPath>
<path d="M 132.62 321.00 C 130.69 321.15 131.12 321.31 130.38 321.88 C 129.62 322.44 128.54 323.56 128.12 324.38 C 127.71 325.19 127.65 325.96 127.88 326.75 C 128.10 327.54 128.48 328.00 129.50 329.12 C 130.52 330.25 132.79 331.94 134.00 333.50 C 135.21 335.06 135.96 336.54 136.75 338.50 C 137.54 340.46 138.25 342.56 138.75 345.25 C 139.25 347.94 139.60 347.96 139.75 354.62 C 139.90 361.29 139.77 376.92 139.62 385.25 C 139.48 393.58 139.19 399.31 138.88 404.62 C 138.56 409.94 138.10 413.94 137.75 417.12 C 137.40 420.31 137.21 421.50 136.75 423.75 C 136.29 426.00 135.27 427.75 135.00 430.62 C 134.73 433.50 134.79 437.85 135.12 441.00 C 135.46 444.15 135.88 446.12 137.00 449.50 C 138.12 452.88 140.71 458.77 141.88 461.25 C 143.04 463.73 142.90 463.08 144.00 464.38 C 145.10 465.67 147.21 467.94 148.50 469.00 C 149.79 470.06 150.77 470.44 151.75 470.75 C 152.73 471.06 153.54 471.27 154.38 470.88 C 155.21 470.48 156.15 469.79 156.75 468.38 C 157.35 466.96 157.65 463.60 158.00 462.38 C 158.35 461.15 158.38 463.96 158.88 461.00 C 159.38 458.04 160.17 464.96 161.00 444.62 C 161.83 424.29 164.25 358.58 163.88 339.00 C 163.50 319.42 159.94 329.44 158.75 327.12 C 157.56 324.81 158.50 325.98 156.75 325.12 C 155.00 324.27 150.71 322.69 148.25 322.00 C 145.79 321.31 144.60 321.17 142.00 321.00 C 139.40 320.83 134.56 320.85 132.62 321.00 Z" id="s-11-f-0"/>
<clipPath id="c-s-11"><use href="#s-11-f-0"/></clipPath>
<path d="M 374.88 456.25 C 376.17 454.02 376.96 452.46 377.75 450.62 C 378.54 448.79 379.10 447.54 379.62 445.25 C 380.15 442.96 380.69 440.33 380.88 436.88 C 381.06 433.42 381.06 429.77 380.75 424.50 C 380.44 419.23 379.46 412.23 379.00 405.25 C 378.54 398.27 378.15 390.35 378.00 382.62 C 377.85 374.90 377.98 364.60 378.12 358.88 C 378.27 353.15 378.56 351.08 378.88 348.25 C 379.19 345.42 379.35 343.90 380.00 341.88 C 380.65 339.85 381.79 338.54 382.75 336.12 C 383.71 333.71 385.23 329.42 385.75 327.38 C 386.27 325.33 386.06 325.00 385.88 323.88 C 385.69 322.75 385.06 321.46 384.62 320.62 C 384.19 319.79 384.19 319.81 383.25 318.88 C 382.31 317.94 380.67 316.33 379.00 315.00 C 377.33 313.67 375.73 312.35 373.25 310.88 C 370.77 309.40 367.21 307.60 364.12 306.12 C 361.04 304.65 356.88 302.85 354.75 302.00 C 352.62 301.15 352.92 301.15 351.38 301.00 C 349.83 300.85 351.62 300.17 345.50 301.12 C 339.38 302.08 324.40 305.15 314.62 306.75 C 304.85 308.35 292.15 310.06 286.88 310.75 C 281.60 311.44 286.73 310.35 283.00 310.88 C 279.27 311.40 272.81 312.73 264.50 313.88 C 256.19 315.02 239.04 317.08 233.12 317.75 C 227.21 318.42 233.12 317.35 229.00 317.88 C 224.88 318.40 216.25 319.90 208.38 320.88 C 200.50 321.85 189.10 323.06 181.75 323.75 C 174.40 324.44 168.27 324.58 164.25 325.00 C 160.23 325.42 158.73 325.88 157.62 326.25 C 156.52 326.62 157.48 326.94 157.62 327.25 C 157.77 327.56 158.00 326.98 158.50 328.12 C 159.00 329.27 159.81 332.21 160.62 334.12 C 161.44 336.04 161.90 338.67 163.38 339.62 C 164.85 340.58 165.12 340.04 169.50 339.88 C 173.88 339.71 183.25 339.12 189.62 338.62 C 196.00 338.12 198.94 338.02 207.75 336.88 C 216.56 335.73 233.15 333.23 242.50 331.75 C 251.85 330.27 259.46 328.65 263.88 328.00 C 268.29 327.35 263.77 328.40 269.00 327.88 C 274.23 327.35 286.04 325.69 295.25 324.88 C 304.46 324.06 317.50 323.29 324.25 323.00 C 331.00 322.71 333.25 322.98 335.75 323.12 C 338.25 323.27 338.33 323.58 339.25 323.88 C 340.17 324.17 340.48 324.27 341.25 324.88 C 342.02 325.48 343.12 325.98 343.88 327.50 C 344.62 329.02 345.25 331.40 345.75 334.00 C 346.25 336.60 346.23 333.04 346.88 343.12 C 347.52 353.21 349.15 382.25 349.62 394.50 C 350.10 406.75 350.04 410.71 349.75 416.62 C 349.46 422.54 348.19 424.21 347.88 430.00 C 347.56 435.79 347.33 446.17 347.88 451.38 C 348.42 456.58 350.27 458.92 351.12 461.25 C 351.98 463.58 352.27 464.10 353.00 465.38 C 353.73 466.65 354.69 467.98 355.50 468.88 C 356.31 469.77 356.75 470.48 357.88 470.75 C 359.00 471.02 360.92 470.90 362.25 470.50 C 363.58 470.10 364.58 469.46 365.88 468.38 C 367.17 467.29 368.50 466.02 370.00 464.00 C 371.50 461.98 373.58 458.48 374.88 456.25 Z" id="s-12-f-0"/>
<clipPath id="c-s-12"><use href="#s-12-f-0"/></clipPath>
<path d="M 231.12 282.62 C 229.23 281.92 226.60 282.50 224.88 282.62 C 223.15 282.75 222.73 283.21 220.75 283.38 C 218.77 283.54 215.12 283.38 213.00 283.62 C 210.88 283.88 208.83 284.44 208.00 284.88 C 207.17 285.31 207.85 285.71 208.00 286.25 C 208.15 286.79 208.58 286.35 208.88 288.12 C 209.17 289.90 209.62 293.27 209.75 296.88 C 209.88 300.48 209.81 305.58 209.62 309.75 C 209.44 313.92 208.96 319.79 208.62 321.88 C 208.29 323.96 207.83 321.67 207.62 322.25 C 207.42 322.83 207.54 324.67 207.38 325.38 C 207.21 326.08 206.79 325.83 206.62 326.50 C 206.46 327.17 206.54 328.71 206.38 329.38 C 206.21 330.04 205.81 329.77 205.62 330.50 C 205.44 331.23 205.42 333.08 205.25 333.75 C 205.08 334.42 204.73 333.88 204.62 334.50 C 204.52 335.12 204.96 336.08 204.62 337.50 C 204.29 338.92 203.44 341.06 202.62 343.00 C 201.81 344.94 200.73 347.27 199.75 349.12 C 198.77 350.98 198.60 351.46 196.75 354.12 C 194.90 356.79 191.15 362.06 188.62 365.12 C 186.10 368.19 183.75 370.50 181.62 372.50 C 179.50 374.50 178.35 375.31 175.88 377.12 C 173.40 378.94 168.42 382.04 166.75 383.38 C 165.08 384.71 165.79 384.58 165.88 385.12 C 165.96 385.67 165.83 386.35 167.25 386.62 C 168.67 386.90 172.12 386.92 174.38 386.75 C 176.62 386.58 178.29 386.31 180.75 385.62 C 183.21 384.94 186.25 383.96 189.12 382.62 C 192.00 381.29 195.23 379.52 198.00 377.62 C 200.77 375.73 203.27 373.69 205.75 371.25 C 208.23 368.81 211.02 365.33 212.88 363.00 C 214.73 360.67 215.08 360.27 216.88 357.25 C 218.67 354.23 222.15 347.90 223.62 344.88 C 225.10 341.85 225.19 340.96 225.75 339.12 C 226.31 337.29 226.08 334.90 227.00 333.88 C 227.92 332.85 231.21 333.12 231.25 333.00 C 231.29 332.88 227.75 333.19 227.25 333.12 C 226.75 333.06 228.06 333.08 228.25 332.62 C 228.44 332.17 228.06 331.44 228.38 330.38 C 228.69 329.31 229.62 327.83 230.12 326.25 C 230.62 324.67 231.04 321.94 231.38 320.88 C 231.71 319.81 232.00 320.54 232.12 319.88 C 232.25 319.21 231.71 318.94 232.12 316.88 C 232.54 314.81 234.08 310.38 234.62 307.50 C 235.17 304.62 234.85 302.06 235.38 299.62 C 235.90 297.19 237.35 294.56 237.75 292.88 C 238.15 291.19 238.00 290.50 237.75 289.50 C 237.50 288.50 237.35 288.02 236.25 286.88 C 235.15 285.73 233.02 283.33 231.12 282.62 Z" id="s-13-f-0"/>
<clipPath id="c-s-13"><use href="#s-13-f-0"/></clipPath>
<path d="M 264.12 278.62 C 263.38 279.92 263.79 283.08 263.88 285.50 C 263.96 287.92 264.46 288.48 264.62 293.12 C 264.79 297.77 264.90 309.85 264.88 313.38 C 264.85 316.90 264.52 311.44 264.50 314.25 C 264.48 317.06 264.83 326.17 264.75 330.25 C 264.67 334.33 264.12 334.71 264.00 338.75 C 263.88 342.79 263.65 350.60 264.00 354.50 C 264.35 358.40 265.25 359.98 266.12 362.12 C 267.00 364.27 268.15 365.90 269.25 367.38 C 270.35 368.85 271.56 369.94 272.75 371.00 C 273.94 372.06 274.42 372.62 276.38 373.75 C 278.33 374.88 281.25 376.79 284.50 377.75 C 287.75 378.71 291.77 379.00 295.88 379.50 C 299.98 380.00 303.29 380.54 309.12 380.75 C 314.96 380.96 325.10 381.08 330.88 380.75 C 336.65 380.42 340.73 379.40 343.75 378.75 C 346.77 378.10 348.10 378.83 349.00 376.88 C 349.90 374.92 349.25 369.90 349.12 367.00 C 349.00 364.10 348.52 360.92 348.25 359.50 C 347.98 358.08 348.35 359.06 347.50 358.50 C 346.65 357.94 345.27 356.52 343.12 356.12 C 340.98 355.73 339.17 355.54 334.62 356.12 C 330.08 356.71 320.19 359.02 315.88 359.62 C 311.56 360.23 311.71 359.90 308.75 359.75 C 305.79 359.60 300.67 359.08 298.12 358.75 C 295.58 358.42 295.19 358.29 293.50 357.75 C 291.81 357.21 289.42 356.27 288.00 355.50 C 286.58 354.73 285.81 354.15 285.00 353.12 C 284.19 352.10 283.46 350.62 283.12 349.38 C 282.79 348.12 282.71 349.46 283.00 345.62 C 283.29 341.79 284.38 330.33 284.88 326.38 C 285.38 322.42 285.77 324.96 286.00 321.88 C 286.23 318.79 285.92 312.08 286.25 307.88 C 286.58 303.67 287.54 299.15 288.00 296.62 C 288.46 294.10 288.40 294.50 289.00 292.75 C 289.60 291.00 291.19 288.08 291.62 286.12 C 292.06 284.17 291.79 282.21 291.62 281.00 C 291.46 279.79 291.12 279.62 290.62 278.88 C 290.12 278.12 292.33 276.69 288.62 276.50 C 284.92 276.31 272.46 277.40 268.38 277.75 C 264.29 278.10 264.88 277.33 264.12 278.62 Z" id="s-14-f-0"/>
<clipPath id="c-s-14"><use href="#s-14-f-0"/></clipPath>
<path d="M 302.88 400.50 C 302.58 399.88 301.62 398.94 301.00 398.38 C 300.38 397.81 300.81 397.85 299.12 397.12 C 297.44 396.40 294.71 395.00 290.88 394.00 C 287.04 393.00 279.52 391.65 276.12 391.12 C 272.73 390.60 272.48 390.60 270.50 390.88 C 268.52 391.15 269.06 391.75 264.25 392.75 C 259.44 393.75 251.83 395.33 241.62 396.88 C 231.42 398.42 210.21 400.81 203.00 402.00 C 195.79 403.19 199.38 403.38 198.38 404.00 C 197.38 404.62 197.25 405.19 197.00 405.75 C 196.75 406.31 196.40 406.56 196.88 407.38 C 197.35 408.19 198.73 409.73 199.88 410.62 C 201.02 411.52 202.19 412.06 203.75 412.75 C 205.31 413.44 206.85 414.23 209.25 414.75 C 211.65 415.27 214.25 415.73 218.12 415.88 C 222.00 416.02 228.25 415.81 232.50 415.62 C 236.75 415.44 234.33 415.90 243.62 414.75 C 252.92 413.60 279.98 409.94 288.25 408.75 C 296.52 407.56 291.25 408.29 293.25 407.62 C 295.25 406.96 298.67 405.67 300.25 404.75 C 301.83 403.83 302.31 402.83 302.75 402.12 C 303.19 401.42 303.17 401.12 302.88 400.50 Z" id="s-15-f-0"/>
<clipPath id="c-s-15"><use href="#s-15-f-0"/></clipPath>
<path d="M 348.25 434.25 C 347.58 431.19 346.10 432.83 344.25 432.12 C 342.40 431.42 340.27 430.35 337.12 430.00 C 333.98 429.65 338.85 428.88 325.38 430.00 C 311.90 431.12 272.00 435.29 256.25 436.75 C 240.50 438.21 246.79 437.73 230.88 438.75 C 214.96 439.77 172.60 441.62 160.75 442.88 C 148.90 444.12 160.12 443.31 159.75 446.25 C 159.38 449.19 158.58 458.06 158.50 460.50 C 158.42 462.94 155.25 460.83 159.25 460.88 C 163.25 460.92 174.52 460.94 182.50 460.75 C 190.48 460.56 186.81 461.04 207.12 459.75 C 227.44 458.46 281.04 454.48 304.38 453.00 C 327.71 451.52 339.81 451.29 347.12 450.88 C 354.44 450.46 348.06 453.27 348.25 450.50 C 348.44 447.73 348.92 437.31 348.25 434.25 Z" id="s-16-f-0"/>
<clipPath id="c-s-16"><use href="#s-16-f-0"/></clipPath>
</defs>
<g id="s-0" clip-path="url(#c-s-0)">
<use href="#s-0-f-0"/>
<path d="M 93.12 69.88 C 92.88 70.42 92.40 70.94 93.00 72.25 C 93.60 73.56 94.42 73.56 96.75 77.75 C 99.08 81.94 103.65 91.27 107.00 97.38 C 110.35 103.48 114.92 111.15 116.88 114.38 C 118.83 117.60 113.27 116.31 118.75 116.75 C 124.23 117.19 144.21 117.04 149.75 117.00 C 155.29 116.96 151.83 117.62 152.00 116.50 C 152.17 115.38 151.62 112.96 150.75 110.25 C 149.88 107.54 147.96 102.75 146.75 100.25 C 145.54 97.75 144.79 96.85 143.50 95.25 C 142.21 93.65 140.48 92.00 139.00 90.62 C 137.52 89.25 137.44 88.94 134.62 87.00 C 131.81 85.06 126.90 81.62 122.12 79.00 C 117.35 76.38 109.88 72.92 106.00 71.25 C 102.12 69.58 100.79 69.38 98.88 69.00 C 96.96 68.62 95.46 68.85 94.50 69.00 C 93.54 69.15 93.38 69.33 93.12 69.88 Z" id="s-0-f-1"/>
</g>
<g id="s-1" clip-path="url(#c-s-1)">
<use href="#s-1-f-0"/>
<path d="M 171.88 163.12 C 171.71 160.04 175.85 159.75 170.75 163.00 C 165.65 166.25 151.40 176.17 141.25 182.62 C 131.10 189.08 117.48 197.33 109.88 201.75 C 102.27 206.17 99.54 206.94 95.62 209.12 C 91.71 211.31 89.48 213.54 86.38 214.88 C 83.27 216.21 78.75 216.52 77.00 217.12 C 75.25 217.73 76.04 217.85 75.88 218.50 C 75.71 219.15 75.65 219.94 76.00 221.00 C 76.35 222.06 76.56 223.02 78.00 224.88 C 79.44 226.73 81.56 229.46 84.62 232.12 C 87.69 234.79 93.85 239.10 96.38 240.88 C 98.90 242.65 98.42 242.17 99.75 242.75 C 101.08 243.33 103.10 244.02 104.38 244.38 C 105.65 244.73 106.42 244.83 107.38 244.88 C 108.33 244.92 108.79 245.73 110.12 244.62 C 111.46 243.52 111.69 242.29 115.38 238.25 C 119.06 234.21 122.85 229.83 132.25 220.38 C 141.65 210.92 165.15 191.04 171.75 181.50 C 178.35 171.96 172.04 166.21 171.88 163.12 Z" id="s-1-f-1"/>
<path d="M 123.75 193.88 C 123.56 187.96 124.94 192.56 122.62 193.88 C 120.31 195.19 114.38 199.21 109.88 201.75 C 105.38 204.29 99.54 206.94 95.62 209.12 C 91.71 211.31 89.54 213.50 86.38 214.88 C 83.21 216.25 78.38 216.77 76.62 217.38 C 74.88 217.98 75.98 217.90 75.88 218.50 C 75.77 219.10 75.65 219.94 76.00 221.00 C 76.35 222.06 76.56 223.02 78.00 224.88 C 79.44 226.73 81.56 229.46 84.62 232.12 C 87.69 234.79 93.85 239.10 96.38 240.88 C 98.90 242.65 98.42 242.17 99.75 242.75 C 101.08 243.33 103.10 244.02 104.38 244.38 C 105.65 244.73 106.42 244.83 107.38 244.88 C 108.33 244.92 108.79 245.73 110.12 244.62 C 111.46 243.52 113.10 240.79 115.38 238.25 C 117.65 235.71 122.35 236.77 123.75 229.38 C 125.15 221.98 123.94 199.79 123.75 193.88 Z" id="s-1-f-2"/>
</g>
<g id="s-2" clip-path="url(#c-s-2)">
<use href="#s-2-f-0"/>
<path d="M 185.38 45.00 C 183.90 45.31 181.67 46.23 180.62 46.88 C 179.58 47.52 179.42 48.10 179.12 48.88 C 178.83 49.65 178.88 50.81 178.88 51.50 C 178.88 52.19 178.67 51.88 179.12 53.00 C 179.58 54.12 181.02 56.50 181.62 58.25 C 182.23 60.00 182.25 59.69 182.75 63.50 C 183.25 67.31 184.27 65.98 184.62 81.12 C 184.98 96.27 184.90 141.88 184.88 154.38 C 184.85 166.88 184.56 153.94 184.50 156.12 C 184.44 158.31 184.44 165.33 184.50 167.50 C 184.56 169.67 184.79 159.81 184.88 169.12 C 184.96 178.44 184.79 212.10 185.00 223.38 C 185.21 234.65 183.02 234.50 186.12 236.75 C 189.23 239.00 200.54 236.88 203.62 236.88 C 206.71 236.88 204.38 236.88 204.62 236.75 C 204.88 236.62 204.60 238.17 205.12 236.12 C 205.65 234.08 206.98 228.50 207.75 224.50 C 208.52 220.50 209.08 217.27 209.75 212.12 C 210.42 206.98 211.19 213.83 211.75 193.62 C 212.31 173.42 212.58 110.02 213.12 90.88 C 213.67 71.73 214.38 82.04 215.00 78.75 C 215.62 75.46 215.94 73.29 216.88 71.12 C 217.81 68.96 219.96 67.02 220.62 65.75 C 221.29 64.48 221.02 64.42 220.88 63.50 C 220.73 62.58 220.27 61.23 219.75 60.25 C 219.23 59.27 218.77 58.62 217.75 57.62 C 216.73 56.62 214.90 55.17 213.62 54.25 C 212.35 53.33 213.35 53.48 210.12 52.12 C 206.90 50.77 197.69 47.31 194.25 46.12 C 190.81 44.94 190.98 45.19 189.50 45.00 C 188.02 44.81 186.85 44.69 185.38 45.00 Z" id="s-2-f-1"/>
<path d="M 185.38 45.00 C 183.90 45.31 181.65 46.27 180.62 46.88 C 179.60 47.48 179.54 48.06 179.25 48.62 C 178.96 49.19 178.90 49.52 178.88 50.25 C 178.85 50.98 178.67 51.67 179.12 53.00 C 179.58 54.33 181.02 56.50 181.62 58.25 C 182.23 60.00 182.25 59.69 182.75 63.50 C 183.25 67.31 184.27 65.98 184.62 81.12 C 184.98 96.27 184.90 141.88 184.88 154.38 C 184.85 166.88 184.56 153.94 184.50 156.12 C 184.44 158.31 184.44 165.33 184.50 167.50 C 184.56 169.67 184.79 165.60 184.88 169.12 C 184.96 172.65 184.92 185.31 185.00 188.62 C 185.08 191.94 183.94 188.94 185.38 189.00 C 186.81 189.06 190.54 189.08 193.62 189.00 C 196.71 188.92 201.10 188.85 203.88 188.50 C 206.65 188.15 208.92 187.58 210.25 186.88 C 211.58 186.17 211.42 200.02 211.88 184.25 C 212.33 168.48 212.65 108.92 213.00 92.25 C 213.35 75.58 213.50 87.25 214.00 84.25 C 214.50 81.25 215.48 76.54 216.00 74.25 C 216.52 71.96 216.33 71.96 217.12 70.50 C 217.92 69.04 220.12 66.67 220.75 65.50 C 221.38 64.33 221.04 64.38 220.88 63.50 C 220.71 62.62 220.27 61.23 219.75 60.25 C 219.23 59.27 218.77 58.62 217.75 57.62 C 216.73 56.62 214.90 55.17 213.62 54.25 C 212.35 53.33 213.35 53.48 210.12 52.12 C 206.90 50.77 197.69 47.31 194.25 46.12 C 190.81 44.94 190.98 45.19 189.50 45.00 C 188.02 44.81 186.85 44.69 185.38 45.00 Z" id="s-2-f-2"/>
<path d="M 184.62 45.12 C 183.38 45.31 182.79 45.71 182.00 46.12 C 181.21 46.54 180.38 47.10 179.88 47.62 C 179.38 48.15 179.12 48.35 179.00 49.25 C 178.88 50.15 178.69 51.50 179.12 53.00 C 179.56 54.50 181.02 56.50 181.62 58.25 C 182.23 60.00 182.25 59.69 182.75 63.50 C 183.25 67.31 184.25 68.29 184.62 81.12 C 185.00 93.96 184.88 130.52 185.00 140.50 C 185.12 150.48 180.88 140.94 185.38 141.00 C 189.88 141.06 207.46 141.08 212.00 140.88 C 216.54 140.67 212.44 148.08 212.62 139.75 C 212.81 131.42 212.56 101.79 213.12 90.88 C 213.69 79.96 215.33 77.65 216.00 74.25 C 216.67 70.85 216.33 71.96 217.12 70.50 C 217.92 69.04 220.15 66.81 220.75 65.50 C 221.35 64.19 220.92 63.50 220.75 62.62 C 220.58 61.75 220.25 61.08 219.75 60.25 C 219.25 59.42 218.77 58.62 217.75 57.62 C 216.73 56.62 214.90 55.17 213.62 54.25 C 212.35 53.33 213.35 53.48 210.12 52.12 C 206.90 50.77 197.69 47.31 194.25 46.12 C 190.81 44.94 191.10 45.17 189.50 45.00 C 187.90 44.83 185.88 44.94 184.62 45.12 Z" id="s-2-f-3"/>
<path d="M 180.62 46.88 C 179.71 47.50 179.42 48.10 179.12 48.88 C 178.83 49.65 178.88 50.81 178.88 51.50 C 178.88 52.19 178.67 51.88 179.12 53.00 C 179.58 54.12 181.00 56.38 181.62 58.25 C 182.25 60.12 182.42 61.04 182.88 64.25 C 183.33 67.46 184.00 72.73 184.38 77.50 C 184.75 82.27 181.75 90.31 185.12 92.88 C 188.50 95.44 200.00 93.00 204.62 92.88 C 209.25 92.75 211.15 94.48 212.88 92.12 C 214.60 89.77 214.33 82.25 215.00 78.75 C 215.67 75.25 215.92 73.33 216.88 71.12 C 217.83 68.92 220.10 66.92 220.75 65.50 C 221.40 64.08 220.96 63.56 220.75 62.62 C 220.54 61.69 220.31 61.00 219.50 59.88 C 218.69 58.75 217.15 57.00 215.88 55.88 C 214.60 54.75 214.48 54.42 211.88 53.12 C 209.27 51.83 203.98 49.48 200.25 48.12 C 196.52 46.77 192.10 45.50 189.50 45.00 C 186.90 44.50 186.10 44.81 184.62 45.12 C 183.15 45.44 181.54 46.25 180.62 46.88 Z" id="s-2-f-4"/>
</g>
<g id="s-3" clip-path="url(#c-s-3)">
<use href="#s-3-f-0"/>
<path d="M 370.88 46.12 C 370.46 45.00 370.90 44.38 368.12 42.00 C 365.35 39.62 357.10 33.88 354.25 31.88 C 351.40 29.88 352.33 30.62 351.00 30.00 C 349.67 29.38 347.88 28.44 346.25 28.12 C 344.62 27.81 342.75 27.77 341.25 28.12 C 339.75 28.48 339.25 28.69 337.25 30.25 C 335.25 31.81 333.21 34.40 329.25 37.50 C 325.29 40.60 319.17 45.17 313.50 48.88 C 307.83 52.58 301.40 56.33 295.25 59.75 C 289.10 63.17 279.88 67.52 276.62 69.38 C 273.38 71.23 275.90 69.23 275.75 70.88 C 275.60 72.52 275.65 77.75 275.75 79.25 C 275.85 80.75 275.92 79.79 276.38 79.88 C 276.83 79.96 276.04 80.29 278.50 79.75 C 280.96 79.21 281.25 79.71 291.12 76.62 C 301.00 73.54 325.96 64.90 337.75 61.25 C 349.54 57.60 357.12 56.15 361.88 54.75 C 366.62 53.35 365.10 53.48 366.25 52.88 C 367.40 52.27 368.02 51.81 368.75 51.12 C 369.48 50.44 370.27 49.58 370.62 48.75 C 370.98 47.92 371.29 47.25 370.88 46.12 Z" id="s-3-f-1"/>
<path d="M 370.50 45.12 C 370.15 44.27 369.67 43.58 368.75 42.62 C 367.83 41.67 367.67 41.31 365.00 39.38 C 362.33 37.44 355.88 32.88 352.75 31.00 C 349.62 29.12 348.17 28.60 346.25 28.12 C 344.33 27.65 342.75 27.77 341.25 28.12 C 339.75 28.48 340.12 28.00 337.25 30.25 C 334.38 32.50 326.23 35.75 324.00 41.62 C 321.77 47.50 323.75 61.48 323.88 65.50 C 324.00 69.52 322.44 66.46 324.75 65.75 C 327.06 65.04 333.15 62.71 337.75 61.25 C 342.35 59.79 348.83 57.94 352.38 57.00 C 355.92 56.06 356.94 56.19 359.00 55.62 C 361.06 55.06 363.25 54.27 364.75 53.62 C 366.25 52.98 367.17 52.33 368.00 51.75 C 368.83 51.17 369.27 50.79 369.75 50.12 C 370.23 49.46 370.75 48.58 370.88 47.75 C 371.00 46.92 370.85 45.98 370.50 45.12 Z" id="s-3-f-2"/>
</g>
<g id="s-4" clip-path="url(#c-s-4)">
<use href="#s-4-f-0"/>
</g>
<g id="s-5" clip-path="url(#c-s-5)">
<use href="#s-5-f-0"/>
</g>
<g id="s-6" clip-path="url(#c-s-6)">
<use href="#s-6-f-0"/>
<path d="M 406.62 75.38 C 405.69 73.94 404.90 72.17 402.12 69.62 C 399.35 67.08 392.81 62.21 390.00 60.12 C 387.19 58.04 386.79 57.96 385.25 57.12 C 383.71 56.29 382.12 55.46 380.75 55.12 C 379.38 54.79 377.81 54.88 377.00 55.12 C 376.19 55.38 376.29 55.48 375.88 56.62 C 375.46 57.77 375.88 58.27 374.50 62.00 C 373.12 65.73 369.42 74.81 367.62 79.00 C 365.83 83.19 365.88 83.23 363.75 87.12 C 361.62 91.02 352.65 99.73 354.88 102.38 C 357.10 105.02 373.17 102.96 377.12 103.00 C 381.08 103.04 376.75 103.69 378.62 102.62 C 380.50 101.56 384.25 98.94 388.38 96.62 C 392.50 94.31 400.31 90.62 403.38 88.75 C 406.44 86.88 406.02 86.29 406.75 85.38 C 407.48 84.46 407.58 84.44 407.75 83.25 C 407.92 82.06 407.94 79.56 407.75 78.25 C 407.56 76.94 407.56 76.81 406.62 75.38 Z" id="s-6-f-1"/>
</g>
<g id="s-7" clip-path="url(#c-s-7)">
<use href="#s-7-f-0"/>
<path d="M 409.88 145.75 C 409.75 142.50 410.65 145.46 409.25 145.00 C 407.85 144.54 403.73 143.33 401.50 143.00 C 399.27 142.67 400.54 142.33 395.88 143.00 C 391.21 143.67 378.25 146.04 373.50 147.00 C 368.75 147.96 371.44 148.10 367.38 148.75 C 363.31 149.40 357.10 149.71 349.12 150.88 C 341.15 152.04 331.69 153.94 319.50 155.75 C 307.31 157.56 291.92 159.71 276.00 161.75 C 260.08 163.79 233.52 166.79 224.00 168.00 C 214.48 169.21 219.88 168.71 218.88 169.00 C 217.88 169.29 218.17 169.42 218.00 169.75 C 217.83 170.08 217.71 170.44 217.88 171.00 C 218.04 171.56 218.52 172.48 219.00 173.12 C 219.48 173.77 219.69 174.12 220.75 174.88 C 221.81 175.62 222.52 176.33 225.38 177.62 C 228.23 178.92 234.88 181.60 237.88 182.62 C 240.88 183.65 241.54 183.54 243.38 183.75 C 245.21 183.96 246.54 184.15 248.88 183.88 C 251.21 183.60 250.29 183.27 257.38 182.12 C 264.46 180.98 279.46 178.69 291.38 177.00 C 303.29 175.31 320.96 172.98 328.88 172.00 C 336.79 171.02 335.42 171.31 338.88 171.12 C 342.33 170.94 345.21 171.25 349.62 170.88 C 354.04 170.50 355.44 169.62 365.38 168.88 C 375.31 168.12 401.81 167.10 409.25 166.38 C 416.69 165.65 409.90 167.94 410.00 164.50 C 410.10 161.06 410.00 149.00 409.88 145.75 Z" id="s-7-f-1"/>
<path d="M 362.00 151.12 C 361.96 148.17 361.92 150.15 361.75 149.88 C 361.58 149.60 361.88 149.50 361.00 149.50 C 360.12 149.50 357.54 149.71 356.50 149.88 C 355.46 150.04 355.98 150.33 354.75 150.50 C 353.52 150.67 352.62 150.35 349.12 150.88 C 345.62 151.40 342.21 152.31 333.75 153.62 C 325.29 154.94 311.79 156.92 298.38 158.75 C 284.96 160.58 264.62 163.23 253.25 164.62 C 241.88 166.02 235.85 166.40 230.12 167.12 C 224.40 167.85 220.90 168.56 218.88 169.00 C 216.85 169.44 218.17 169.42 218.00 169.75 C 217.83 170.08 217.71 170.44 217.88 171.00 C 218.04 171.56 218.33 172.35 219.00 173.12 C 219.67 173.90 219.60 174.35 221.88 175.62 C 224.15 176.90 229.96 179.58 232.62 180.75 C 235.29 181.92 236.08 182.12 237.88 182.62 C 239.67 183.12 241.54 183.54 243.38 183.75 C 245.21 183.96 243.27 184.65 248.88 183.88 C 254.48 183.10 263.67 181.10 277.00 179.12 C 290.33 177.15 318.56 173.33 328.88 172.00 C 339.19 170.67 335.71 171.29 338.88 171.12 C 342.04 170.96 344.27 171.23 347.88 171.00 C 351.48 170.77 358.19 170.04 360.50 169.75 C 362.81 169.46 361.50 169.60 361.75 169.25 C 362.00 168.90 361.96 170.65 362.00 167.62 C 362.04 164.60 362.04 154.08 362.00 151.12 Z" id="s-7-f-2"/>
<path d="M 313.88 157.00 C 313.77 154.35 319.69 155.83 313.38 156.62 C 307.06 157.42 290.92 159.85 276.00 161.75 C 261.08 163.65 233.40 166.79 223.88 168.00 C 214.35 169.21 219.85 168.71 218.88 169.00 C 217.90 169.29 218.17 169.42 218.00 169.75 C 217.83 170.08 217.54 170.25 217.88 171.00 C 218.21 171.75 219.17 173.38 220.00 174.25 C 220.83 175.12 220.33 175.00 222.88 176.25 C 225.42 177.50 231.83 180.50 235.25 181.75 C 238.67 183.00 240.67 183.44 243.38 183.75 C 246.08 184.06 249.17 183.90 251.50 183.62 C 253.83 183.35 247.04 183.73 257.38 182.12 C 267.71 180.52 304.06 175.60 313.50 174.00 C 322.94 172.40 313.94 175.33 314.00 172.50 C 314.06 169.67 313.98 159.65 313.88 157.00 Z" id="s-7-f-3"/>
<path d="M 266.00 180.38 C 266.15 177.46 266.10 166.38 266.00 163.50 C 265.90 160.62 272.40 162.38 265.38 163.12 C 258.35 163.88 231.62 167.02 223.88 168.00 C 216.12 168.98 219.88 168.65 218.88 169.00 C 217.88 169.35 218.02 169.73 217.88 170.12 C 217.73 170.52 217.81 170.88 218.00 171.38 C 218.19 171.88 218.19 172.31 219.00 173.12 C 219.81 173.94 220.60 174.98 222.88 176.25 C 225.15 177.52 230.06 179.67 232.62 180.75 C 235.19 181.83 236.46 182.25 238.25 182.75 C 240.04 183.25 241.31 183.58 243.38 183.75 C 245.44 183.92 248.29 184.02 250.62 183.75 C 252.96 183.48 254.96 182.58 257.38 182.12 C 259.79 181.67 263.69 181.29 265.12 181.00 C 266.56 180.71 265.85 183.29 266.00 180.38 Z" id="s-7-f-4"/>
</g>
<g id="s-8" clip-path="url(#c-s-8)">
<use href="#s-8-f-0"/>
<path d="M 346.50 121.50 C 342.90 120.81 339.94 121.56 338.50 121.88 C 337.06 122.19 337.94 122.29 337.88 123.38 C 337.81 124.46 337.31 125.23 338.12 128.38 C 338.94 131.52 341.67 138.52 342.75 142.25 C 343.83 145.98 344.31 147.25 344.62 150.75 C 344.94 154.25 344.42 159.83 344.62 163.25 C 344.83 166.67 345.71 166.83 345.88 171.25 C 346.04 175.67 345.81 184.19 345.62 189.75 C 345.44 195.31 345.06 200.83 344.75 204.62 C 344.44 208.42 345.56 204.67 343.75 212.50 C 341.94 220.33 335.44 244.88 333.88 251.62 C 332.31 258.38 330.50 253.27 334.38 253.00 C 338.25 252.73 353.06 250.75 357.12 250.00 C 361.19 249.25 357.96 249.75 358.75 248.50 C 359.54 247.25 361.04 244.38 361.88 242.50 C 362.71 240.62 363.15 239.42 363.75 237.25 C 364.35 235.08 365.02 232.46 365.50 229.50 C 365.98 226.54 366.42 224.96 366.62 219.50 C 366.83 214.04 366.98 203.06 366.75 196.75 C 366.52 190.44 365.54 186.23 365.25 181.62 C 364.96 177.02 364.88 171.75 365.00 169.12 C 365.12 166.50 365.79 167.67 366.00 165.88 C 366.21 164.08 366.06 160.21 366.25 158.38 C 366.44 156.54 367.00 156.67 367.12 154.88 C 367.25 153.08 366.73 150.04 367.00 147.62 C 367.27 145.21 368.46 142.69 368.75 140.38 C 369.04 138.06 368.94 135.31 368.75 133.75 C 368.56 132.19 368.25 131.94 367.62 131.00 C 367.00 130.06 366.25 128.96 365.00 128.12 C 363.75 127.29 363.21 127.10 360.12 126.00 C 357.04 124.90 350.10 122.19 346.50 121.50 Z" id="s-8-f-1"/>
<path d="M 339.38 121.62 C 337.90 121.67 338.75 121.58 338.50 121.88 C 338.25 122.17 337.96 122.44 337.88 123.38 C 337.79 124.31 337.79 126.04 338.00 127.50 C 338.21 128.96 338.33 129.67 339.12 132.12 C 339.92 134.58 341.81 139.08 342.75 142.25 C 343.69 145.42 344.44 147.62 344.75 151.12 C 345.06 154.62 344.44 159.90 344.62 163.25 C 344.81 166.60 345.71 166.75 345.88 171.25 C 346.04 175.75 345.83 184.40 345.62 190.25 C 345.42 196.10 344.94 202.67 344.62 206.38 C 344.31 210.08 344.12 210.62 343.75 212.50 C 343.38 214.38 342.29 216.71 342.38 217.62 C 342.46 218.54 340.29 217.96 344.25 218.00 C 348.21 218.04 362.38 218.00 366.12 217.88 C 369.88 217.75 366.62 220.08 366.75 217.25 C 366.88 214.42 367.15 207.15 366.88 200.88 C 366.60 194.60 365.46 184.85 365.12 179.62 C 364.79 174.40 364.71 171.96 364.88 169.50 C 365.04 167.04 365.92 166.79 366.12 164.88 C 366.33 162.96 365.96 159.67 366.12 158.00 C 366.29 156.33 366.98 156.60 367.12 154.88 C 367.27 153.15 366.73 150.04 367.00 147.62 C 367.27 145.21 368.46 142.69 368.75 140.38 C 369.04 138.06 369.08 135.52 368.75 133.75 C 368.42 131.98 367.69 130.85 366.75 129.75 C 365.81 128.65 365.98 128.29 363.12 127.12 C 360.27 125.96 352.25 123.67 349.62 122.75 C 347.00 121.83 349.08 121.81 347.38 121.62 C 345.67 121.44 340.85 121.58 339.38 121.62 Z" id="s-8-f-2"/>
<path d="M 338.50 121.88 C 338.12 122.19 337.94 122.29 337.88 123.38 C 337.81 124.46 337.31 125.23 338.12 128.38 C 338.94 131.52 341.65 138.46 342.75 142.25 C 343.85 146.04 344.44 147.62 344.75 151.12 C 345.06 154.62 344.52 160.17 344.62 163.25 C 344.73 166.33 345.17 168.46 345.38 169.62 C 345.58 170.79 342.65 170.23 345.88 170.25 C 349.10 170.27 361.38 170.65 364.75 169.75 C 368.12 168.85 365.90 166.83 366.12 164.88 C 366.35 162.92 365.96 159.67 366.12 158.00 C 366.29 156.33 366.98 156.60 367.12 154.88 C 367.27 153.15 366.73 150.02 367.00 147.62 C 367.27 145.23 368.44 142.65 368.75 140.50 C 369.06 138.35 369.06 136.35 368.88 134.75 C 368.69 133.15 368.27 131.98 367.62 130.88 C 366.98 129.77 365.75 128.75 365.00 128.12 C 364.25 127.50 365.69 128.02 363.12 127.12 C 360.56 126.23 352.25 123.67 349.62 122.75 C 347.00 121.83 348.96 121.83 347.38 121.62 C 345.79 121.42 341.60 121.46 340.12 121.50 C 338.65 121.54 338.88 121.56 338.50 121.88 Z" id="s-8-f-3"/>
</g>
<g id="s-9" clip-path="url(#c-s-9)">
<use href="#s-9-f-0"/>
</g>
<g id="s-10" clip-path="url(#c-s-10)">
<use href="#s-10-f-0"/>
<path d="M 397.88 245.25 C 397.60 241.77 398.48 244.75 396.38 244.88 C 394.27 245.00 391.50 245.21 385.25 246.00 C 379.00 246.79 363.48 249.10 358.88 249.62 C 354.27 250.15 358.92 249.12 357.62 249.12 C 356.33 249.12 352.54 249.40 351.12 249.62 C 349.71 249.85 350.33 250.33 349.12 250.50 C 347.92 250.67 345.19 250.46 343.88 250.62 C 342.56 250.79 342.67 251.33 341.25 251.50 C 339.83 251.67 336.75 251.40 335.38 251.62 C 334.00 251.85 342.50 251.69 333.00 252.88 C 323.50 254.06 294.27 257.21 278.38 258.75 C 262.48 260.29 259.42 259.92 237.62 262.12 C 215.83 264.33 165.33 269.90 147.62 272.00 C 129.92 274.10 137.98 273.79 131.38 274.75 C 124.77 275.71 115.19 276.98 108.00 277.75 C 100.81 278.52 94.71 279.00 88.25 279.38 C 81.79 279.75 73.12 279.71 69.25 280.00 C 65.38 280.29 65.94 280.79 65.00 281.12 C 64.06 281.46 64.12 281.48 63.62 282.00 C 63.12 282.52 62.29 283.52 62.00 284.25 C 61.71 284.98 61.62 285.62 61.88 286.38 C 62.12 287.12 62.81 287.98 63.50 288.75 C 64.19 289.52 63.50 289.17 66.00 291.00 C 68.50 292.83 75.19 297.62 78.50 299.75 C 81.81 301.88 83.42 302.60 85.88 303.75 C 88.33 304.90 91.27 306.10 93.25 306.62 C 95.23 307.15 95.75 307.04 97.75 306.88 C 99.75 306.71 98.58 307.27 105.25 305.62 C 111.92 303.98 128.31 299.27 137.75 297.00 C 147.19 294.73 150.38 294.00 161.88 292.00 C 173.38 290.00 194.81 286.54 206.75 285.00 C 218.69 283.46 227.44 283.44 233.50 282.75 C 239.56 282.06 233.73 281.85 243.12 280.88 C 252.52 279.90 276.65 277.88 289.88 276.88 C 303.10 275.88 312.77 275.35 322.50 274.88 C 332.23 274.40 339.88 274.15 348.25 274.00 C 356.62 273.85 364.54 273.85 372.75 274.00 C 380.96 274.15 393.29 276.25 397.50 274.88 C 401.71 273.50 397.94 270.69 398.00 265.75 C 398.06 260.81 398.15 248.73 397.88 245.25 Z" id="s-10-f-1"/>
<path d="M 354.25 250.12 C 354.29 249.81 351.12 249.56 350.25 249.62 C 349.38 249.69 350.06 250.33 349.00 250.50 C 347.94 250.67 345.17 250.46 343.88 250.62 C 342.58 250.79 342.67 251.33 341.25 251.50 C 339.83 251.67 336.75 251.40 335.38 251.62 C 334.00 251.85 342.50 251.69 333.00 252.88 C 323.50 254.06 294.27 257.21 278.38 258.75 C 262.48 260.29 259.42 259.92 237.62 262.12 C 215.83 264.33 165.33 269.90 147.62 272.00 C 129.92 274.10 137.98 273.79 131.38 274.75 C 124.77 275.71 115.19 276.98 108.00 277.75 C 100.81 278.52 94.73 279.00 88.25 279.38 C 81.77 279.75 73.00 279.71 69.12 280.00 C 65.25 280.29 65.92 280.79 65.00 281.12 C 64.08 281.46 64.12 281.48 63.62 282.00 C 63.12 282.52 62.29 283.52 62.00 284.25 C 61.71 284.98 61.50 285.50 61.88 286.38 C 62.25 287.25 62.98 288.27 64.25 289.50 C 65.52 290.73 66.54 291.71 69.50 293.75 C 72.46 295.79 78.92 299.92 82.00 301.75 C 85.08 303.58 86.12 303.94 88.00 304.75 C 89.88 305.56 91.33 306.29 93.25 306.62 C 95.17 306.96 95.52 307.42 99.50 306.75 C 103.48 306.08 110.75 304.25 117.12 302.62 C 123.50 301.00 131.19 298.60 137.75 297.00 C 144.31 295.40 149.58 294.33 156.50 293.00 C 163.42 291.67 170.88 290.33 179.25 289.00 C 187.62 287.67 199.19 285.88 206.75 285.00 C 214.31 284.12 220.17 284.12 224.62 283.75 C 229.08 283.38 230.58 283.21 233.50 282.75 C 236.42 282.29 237.31 281.62 242.12 281.00 C 246.94 280.38 258.04 279.35 262.38 279.00 C 266.71 278.65 261.58 279.38 268.12 278.88 C 274.67 278.38 288.10 276.81 301.62 276.00 C 315.15 275.19 341.25 274.38 349.25 274.00 C 357.25 273.62 349.50 274.90 349.62 273.75 C 349.75 272.60 349.94 270.83 350.00 267.12 C 350.06 263.42 349.29 254.33 350.00 251.50 C 350.71 248.67 354.21 250.44 354.25 250.12 Z" id="s-10-f-2"/>
<path d="M 301.88 256.88 C 301.71 253.67 317.94 254.73 301.00 256.25 C 284.06 257.77 225.81 263.38 200.25 266.00 C 174.69 268.62 159.10 270.54 147.62 272.00 C 136.15 273.46 138.19 273.77 131.38 274.75 C 124.56 275.73 115.02 277.04 106.75 277.88 C 98.48 278.71 88.00 279.40 81.75 279.75 C 75.50 280.10 72.04 279.77 69.25 280.00 C 66.46 280.23 65.94 280.79 65.00 281.12 C 64.06 281.46 64.12 281.48 63.62 282.00 C 63.12 282.52 62.29 283.52 62.00 284.25 C 61.71 284.98 61.50 285.50 61.88 286.38 C 62.25 287.25 62.98 288.27 64.25 289.50 C 65.52 290.73 66.54 291.71 69.50 293.75 C 72.46 295.79 78.92 299.92 82.00 301.75 C 85.08 303.58 86.10 303.94 88.00 304.75 C 89.90 305.56 91.46 306.29 93.38 306.62 C 95.29 306.96 96.85 307.08 99.50 306.75 C 102.15 306.42 102.15 306.42 109.25 304.62 C 116.35 302.83 130.46 298.60 142.12 296.00 C 153.79 293.40 168.48 290.83 179.25 289.00 C 190.02 287.17 197.71 286.04 206.75 285.00 C 215.79 283.96 227.42 283.44 233.50 282.75 C 239.58 282.06 231.92 282.00 243.25 280.88 C 254.58 279.75 291.71 276.90 301.50 276.00 C 311.29 275.10 301.94 278.69 302.00 275.50 C 302.06 272.31 302.04 260.08 301.88 256.88 Z" id="s-10-f-3"/>
<path d="M 253.38 262.00 C 253.15 259.10 253.27 261.17 252.62 261.00 C 251.98 260.83 258.23 260.17 249.50 261.00 C 240.77 261.83 217.23 264.17 200.25 266.00 C 183.27 267.83 159.10 270.54 147.62 272.00 C 136.15 273.46 137.98 273.79 131.38 274.75 C 124.77 275.71 115.56 276.96 108.00 277.75 C 100.44 278.54 92.62 279.10 86.00 279.50 C 79.38 279.90 71.98 279.71 68.25 280.12 C 64.52 280.54 64.67 281.31 63.62 282.00 C 62.58 282.69 62.29 283.52 62.00 284.25 C 61.71 284.98 61.46 285.46 61.88 286.38 C 62.29 287.29 63.23 288.52 64.50 289.75 C 65.77 290.98 66.31 291.60 69.50 293.75 C 72.69 295.90 79.65 300.48 83.62 302.62 C 87.60 304.77 90.56 305.96 93.38 306.62 C 96.19 307.29 95.31 307.60 100.50 306.62 C 105.69 305.65 118.29 302.35 124.50 300.75 C 130.71 299.15 131.54 298.46 137.75 297.00 C 143.96 295.54 150.25 294.00 161.75 292.00 C 173.25 290.00 196.27 286.38 206.75 285.00 C 217.23 283.62 220.17 284.12 224.62 283.75 C 229.08 283.38 230.58 283.21 233.50 282.75 C 236.42 282.29 238.79 281.48 242.12 281.00 C 245.46 280.52 251.52 280.31 253.50 279.88 C 255.48 279.44 254.02 281.35 254.00 278.38 C 253.98 275.40 253.60 264.90 253.38 262.00 Z" id="s-10-f-4"/>
<path d="M 205.88 266.12 C 205.77 263.17 206.48 265.75 205.38 265.75 C 204.27 265.75 207.73 265.23 199.25 266.12 C 190.77 267.02 165.81 269.69 154.50 271.12 C 143.19 272.56 139.12 273.65 131.38 274.75 C 123.62 275.85 115.56 276.96 108.00 277.75 C 100.44 278.54 92.62 279.10 86.00 279.50 C 79.38 279.90 71.98 279.71 68.25 280.12 C 64.52 280.54 64.62 281.42 63.62 282.00 C 62.62 282.58 62.54 282.90 62.25 283.62 C 61.96 284.35 61.50 285.35 61.88 286.38 C 62.25 287.40 63.29 288.56 64.50 289.75 C 65.71 290.94 66.79 291.83 69.12 293.50 C 71.46 295.17 76.04 298.21 78.50 299.75 C 80.96 301.29 81.42 301.60 83.88 302.75 C 86.33 303.90 90.48 305.98 93.25 306.62 C 96.02 307.27 95.29 307.60 100.50 306.62 C 105.71 305.65 118.98 302.19 124.50 300.75 C 130.02 299.31 129.10 299.12 133.62 298.00 C 138.15 296.88 144.02 295.50 151.62 294.00 C 159.23 292.50 170.29 290.44 179.25 289.00 C 188.21 287.56 200.92 286.29 205.38 285.38 C 209.83 284.46 205.92 286.71 206.00 283.50 C 206.08 280.29 205.98 269.08 205.88 266.12 Z" id="s-10-f-5"/>
<path d="M 158.00 271.62 C 157.88 269.10 157.83 271.21 157.25 271.12 C 156.67 271.04 158.81 270.52 154.50 271.12 C 150.19 271.73 139.12 273.65 131.38 274.75 C 123.62 275.85 115.52 276.96 108.00 277.75 C 100.48 278.54 92.88 279.10 86.25 279.50 C 79.62 279.90 72.02 279.71 68.25 280.12 C 64.48 280.54 64.62 281.42 63.62 282.00 C 62.62 282.58 62.54 282.90 62.25 283.62 C 61.96 284.35 61.50 285.35 61.88 286.38 C 62.25 287.40 63.29 288.56 64.50 289.75 C 65.71 290.94 66.79 291.83 69.12 293.50 C 71.46 295.17 75.38 297.88 78.50 299.75 C 81.62 301.62 85.42 303.60 87.88 304.75 C 90.33 305.90 91.15 306.31 93.25 306.62 C 95.35 306.94 93.08 308.23 100.50 306.62 C 107.92 305.02 128.25 299.29 137.75 297.00 C 147.25 294.71 154.12 294.67 157.50 292.88 C 160.88 291.08 157.92 289.79 158.00 286.25 C 158.08 282.71 158.12 274.15 158.00 271.62 Z" id="s-10-f-6"/>
<path d="M 109.88 303.75 C 110.00 299.58 110.00 283.94 110.00 279.62 C 110.00 275.31 109.98 278.23 109.88 277.88 C 109.77 277.52 113.29 277.23 109.38 277.50 C 105.46 277.77 93.23 279.06 86.38 279.50 C 79.52 279.94 71.81 279.85 68.25 280.12 C 64.69 280.40 66.00 280.54 65.00 281.12 C 64.00 281.71 62.77 282.94 62.25 283.62 C 61.73 284.31 61.90 284.67 61.88 285.25 C 61.85 285.83 61.44 286.17 62.12 287.12 C 62.81 288.08 63.27 288.90 66.00 291.00 C 68.73 293.10 74.85 297.46 78.50 299.75 C 82.15 302.04 85.40 303.60 87.88 304.75 C 90.35 305.90 91.69 306.27 93.38 306.62 C 95.06 306.98 95.35 307.21 98.00 306.88 C 100.65 306.54 107.27 305.15 109.25 304.62 C 111.23 304.10 109.75 307.92 109.88 303.75 Z" id="s-10-f-7"/>
</g>
<g id="s-11" clip-path="url(#c-s-11)">
<use href="#s-11-f-0"/>
<path d="M 132.62 321.00 C 130.69 321.15 131.12 321.31 130.38 321.88 C 129.62 322.44 128.54 323.50 128.12 324.38 C 127.71 325.25 126.90 325.60 127.88 327.12 C 128.85 328.65 132.52 331.60 134.00 333.50 C 135.48 335.40 135.96 336.54 136.75 338.50 C 137.54 340.46 138.25 342.56 138.75 345.25 C 139.25 347.94 139.60 347.96 139.75 354.62 C 139.90 361.29 139.77 376.96 139.62 385.25 C 139.48 393.54 139.19 399.06 138.88 404.38 C 138.56 409.69 138.10 413.90 137.75 417.12 C 137.40 420.35 137.21 421.50 136.75 423.75 C 136.29 426.00 135.27 427.75 135.00 430.62 C 134.73 433.50 134.94 438.38 135.12 441.00 C 135.31 443.62 135.62 444.40 136.12 446.38 C 136.62 448.35 137.17 450.40 138.12 452.88 C 139.08 455.35 140.90 459.33 141.88 461.25 C 142.85 463.17 143.35 463.75 144.00 464.38 C 144.65 465.00 143.71 464.90 145.75 465.00 C 147.79 465.10 154.25 465.12 156.25 465.00 C 158.25 464.88 157.46 464.69 157.75 464.25 C 158.04 463.81 157.79 463.00 158.00 462.38 C 158.21 461.75 158.50 463.46 159.00 460.50 C 159.50 457.54 160.19 464.88 161.00 444.62 C 161.81 424.38 164.25 358.58 163.88 339.00 C 163.50 319.42 159.94 329.44 158.75 327.12 C 157.56 324.81 158.50 325.98 156.75 325.12 C 155.00 324.27 150.71 322.69 148.25 322.00 C 145.79 321.31 144.60 321.17 142.00 321.00 C 139.40 320.83 134.56 320.85 132.62 321.00 Z" id="s-11-f-1"/>
<path d="M 131.75 321.25 C 131.04 321.46 130.60 321.60 130.00 322.12 C 129.40 322.65 128.48 323.54 128.12 324.38 C 127.77 325.21 127.10 325.88 127.88 327.12 C 128.65 328.38 131.27 329.98 132.75 331.88 C 134.23 333.77 135.75 336.27 136.75 338.50 C 137.75 340.73 138.27 342.96 138.75 345.25 C 139.23 347.54 139.48 345.58 139.62 352.25 C 139.77 358.92 139.90 374.67 139.62 385.25 C 139.35 395.83 138.06 410.56 138.00 415.75 C 137.94 420.94 138.08 416.19 139.25 416.38 C 140.42 416.56 141.58 416.79 145.00 416.88 C 148.42 416.96 157.04 416.94 159.75 416.88 C 162.46 416.81 160.90 417.27 161.25 416.50 C 161.60 415.73 161.44 425.12 161.88 412.25 C 162.31 399.38 164.40 353.44 163.88 339.25 C 163.35 325.06 159.94 329.48 158.75 327.12 C 157.56 324.77 157.92 325.81 156.75 325.12 C 155.58 324.44 154.02 323.67 151.75 323.00 C 149.48 322.33 146.04 321.48 143.12 321.12 C 140.21 320.77 136.15 320.85 134.25 320.88 C 132.35 320.90 132.46 321.04 131.75 321.25 Z" id="s-11-f-2"/>
<path d="M 130.00 322.12 C 129.23 322.69 128.48 323.54 128.12 324.38 C 127.77 325.21 127.19 325.96 127.88 327.12 C 128.56 328.29 131.10 330.12 132.25 331.38 C 133.40 332.62 134.00 333.44 134.75 334.62 C 135.50 335.81 136.08 336.73 136.75 338.50 C 137.42 340.27 138.25 342.58 138.75 345.25 C 139.25 347.92 139.58 350.62 139.75 354.50 C 139.92 358.38 138.56 366.10 139.75 368.50 C 140.94 370.90 143.02 368.85 146.88 368.88 C 150.73 368.90 160.06 371.12 162.88 368.62 C 165.69 366.12 163.58 358.81 163.75 353.88 C 163.92 348.94 164.77 343.56 163.88 339.00 C 162.98 334.44 159.56 328.81 158.38 326.50 C 157.19 324.19 157.79 325.69 156.75 325.12 C 155.71 324.56 154.40 323.79 152.12 323.12 C 149.85 322.46 146.35 321.48 143.12 321.12 C 139.90 320.77 134.94 320.83 132.75 321.00 C 130.56 321.17 130.77 321.56 130.00 322.12 Z" id="s-11-f-3"/>
</g>
<g id="s-12" clip-path="url(#c-s-12)">
<use href="#s-12-f-0"/>
<path d="M 376.75 452.88 C 377.46 451.27 378.94 447.92 379.62 445.25 C 380.31 442.58 380.69 440.33 380.88 436.88 C 381.06 433.42 381.06 429.77 380.75 424.50 C 380.44 419.23 379.44 411.58 379.00 405.25 C 378.56 398.92 378.25 394.71 378.12 386.50 C 378.00 378.29 378.10 362.58 378.25 356.00 C 378.40 349.42 378.73 349.27 379.00 347.00 C 379.27 344.73 378.75 345.65 379.88 342.38 C 381.00 339.10 384.75 330.46 385.75 327.38 C 386.75 324.29 386.06 325.00 385.88 323.88 C 385.69 322.75 385.06 321.46 384.62 320.62 C 384.19 319.79 384.19 319.81 383.25 318.88 C 382.31 317.94 380.67 316.33 379.00 315.00 C 377.33 313.67 375.73 312.35 373.25 310.88 C 370.77 309.40 367.21 307.60 364.12 306.12 C 361.04 304.65 356.88 302.85 354.75 302.00 C 352.62 301.15 352.92 301.15 351.38 301.00 C 349.83 300.85 351.62 300.17 345.50 301.12 C 339.38 302.08 324.40 305.15 314.62 306.75 C 304.85 308.35 292.15 310.06 286.88 310.75 C 281.60 311.44 286.73 310.35 283.00 310.88 C 279.27 311.40 272.81 312.73 264.50 313.88 C 256.19 315.02 239.04 317.08 233.12 317.75 C 227.21 318.42 233.12 317.35 229.00 317.88 C 224.88 318.40 216.25 319.90 208.38 320.88 C 200.50 321.85 189.10 323.06 181.75 323.75 C 174.40 324.44 168.27 324.58 164.25 325.00 C 160.23 325.42 158.73 325.88 157.62 326.25 C 156.52 326.62 157.48 326.94 157.62 327.25 C 157.77 327.56 158.00 326.98 158.50 328.12 C 159.00 329.27 159.81 332.21 160.62 334.12 C 161.44 336.04 161.90 338.67 163.38 339.62 C 164.85 340.58 165.12 340.04 169.50 339.88 C 173.88 339.71 183.25 339.12 189.62 338.62 C 196.00 338.12 198.94 338.02 207.75 336.88 C 216.56 335.73 233.15 333.23 242.50 331.75 C 251.85 330.27 259.46 328.65 263.88 328.00 C 268.29 327.35 263.77 328.40 269.00 327.88 C 274.23 327.35 286.04 325.69 295.25 324.88 C 304.46 324.06 317.50 323.29 324.25 323.00 C 331.00 322.71 333.25 322.98 335.75 323.12 C 338.25 323.27 338.33 323.58 339.25 323.88 C 340.17 324.17 340.48 324.27 341.25 324.88 C 342.02 325.48 343.12 325.98 343.88 327.50 C 344.62 329.02 345.25 331.40 345.75 334.00 C 346.25 336.60 346.23 333.04 346.88 343.12 C 347.52 353.21 349.15 382.25 349.62 394.50 C 350.10 406.75 350.04 410.71 349.75 416.62 C 349.46 422.54 348.19 424.21 347.88 430.00 C 347.56 435.79 347.69 447.29 347.88 451.38 C 348.06 455.46 348.46 453.90 349.00 454.50 C 349.54 455.10 346.73 454.94 351.12 455.00 C 355.52 455.06 371.10 455.23 375.38 454.88 C 379.65 454.52 376.04 454.48 376.75 452.88 Z" id="s-12-f-1"/>
<path d="M 379.12 406.50 C 379.29 402.44 378.15 391.04 378.00 382.62 C 377.85 374.21 378.08 361.94 378.25 356.00 C 378.42 350.06 378.73 349.27 379.00 347.00 C 379.27 344.73 379.25 344.19 379.88 342.38 C 380.50 340.56 381.77 338.62 382.75 336.12 C 383.73 333.62 385.25 329.56 385.75 327.38 C 386.25 325.19 386.17 324.42 385.75 323.00 C 385.33 321.58 384.83 320.56 383.25 318.88 C 381.67 317.19 379.44 315.00 376.25 312.88 C 373.06 310.75 367.71 307.94 364.12 306.12 C 360.54 304.31 356.88 302.85 354.75 302.00 C 352.62 301.15 352.90 301.15 351.38 301.00 C 349.85 300.85 351.75 300.17 345.62 301.12 C 339.50 302.08 324.42 305.15 314.62 306.75 C 304.83 308.35 292.15 310.06 286.88 310.75 C 281.60 311.44 286.73 310.35 283.00 310.88 C 279.27 311.40 272.81 312.73 264.50 313.88 C 256.19 315.02 239.04 317.08 233.12 317.75 C 227.21 318.42 233.12 317.35 229.00 317.88 C 224.88 318.40 216.27 319.90 208.38 320.88 C 200.48 321.85 188.96 323.06 181.62 323.75 C 174.29 324.44 168.38 324.58 164.38 325.00 C 160.38 325.42 158.75 325.88 157.62 326.25 C 156.50 326.62 157.48 326.94 157.62 327.25 C 157.77 327.56 158.00 326.98 158.50 328.12 C 159.00 329.27 159.81 332.21 160.62 334.12 C 161.44 336.04 161.90 338.67 163.38 339.62 C 164.85 340.58 165.12 340.04 169.50 339.88 C 173.88 339.71 183.25 339.12 189.62 338.62 C 196.00 338.12 198.94 338.02 207.75 336.88 C 216.56 335.73 233.15 333.23 242.50 331.75 C 251.85 330.27 259.46 328.65 263.88 328.00 C 268.29 327.35 264.00 328.38 269.00 327.88 C 274.00 327.38 284.67 325.81 293.88 325.00 C 303.08 324.19 317.56 323.33 324.25 323.00 C 330.94 322.67 331.50 322.85 334.00 323.00 C 336.50 323.15 337.90 323.46 339.25 323.88 C 340.60 324.29 341.35 324.90 342.12 325.50 C 342.90 326.10 343.27 326.10 343.88 327.50 C 344.48 328.90 345.10 329.06 345.75 333.88 C 346.40 338.69 347.10 346.19 347.75 356.38 C 348.40 366.56 349.29 386.67 349.62 395.00 C 349.96 403.33 349.65 404.40 349.75 406.38 C 349.85 408.35 345.71 406.77 350.25 406.88 C 354.79 406.98 372.19 407.06 377.00 407.00 C 381.81 406.94 378.96 410.56 379.12 406.50 Z" id="s-12-f-2"/>
<path d="M 385.62 322.62 C 385.21 321.21 384.35 320.15 383.25 318.88 C 382.15 317.60 380.67 316.33 379.00 315.00 C 377.33 313.67 375.73 312.35 373.25 310.88 C 370.77 309.40 367.21 307.60 364.12 306.12 C 361.04 304.65 356.88 302.85 354.75 302.00 C 352.62 301.15 352.52 301.17 351.38 301.00 C 350.23 300.83 350.75 300.67 347.88 301.00 C 345.00 301.33 339.67 302.04 334.12 303.00 C 328.58 303.96 322.50 305.46 314.62 306.75 C 306.75 308.04 292.15 310.06 286.88 310.75 C 281.60 311.44 286.73 310.35 283.00 310.88 C 279.27 311.40 272.81 312.73 264.50 313.88 C 256.19 315.02 239.04 317.08 233.12 317.75 C 227.21 318.42 234.04 317.25 229.00 317.88 C 223.96 318.50 210.77 320.52 202.88 321.50 C 194.98 322.48 188.04 323.17 181.62 323.75 C 175.21 324.33 168.27 324.65 164.38 325.00 C 160.48 325.35 159.38 325.67 158.25 325.88 C 157.12 326.08 157.73 326.02 157.62 326.25 C 157.52 326.48 157.48 326.94 157.62 327.25 C 157.77 327.56 158.00 326.98 158.50 328.12 C 159.00 329.27 159.81 332.21 160.62 334.12 C 161.44 336.04 161.90 338.67 163.38 339.62 C 164.85 340.58 165.10 340.04 169.50 339.88 C 173.90 339.71 183.38 339.12 189.75 338.62 C 196.12 338.12 198.96 338.02 207.75 336.88 C 216.54 335.73 233.15 333.23 242.50 331.75 C 251.85 330.27 259.46 328.65 263.88 328.00 C 268.29 327.35 264.00 328.38 269.00 327.88 C 274.00 327.38 285.17 325.79 293.88 325.00 C 302.58 324.21 314.10 323.42 321.25 323.12 C 328.40 322.83 333.65 323.08 336.75 323.25 C 339.85 323.42 338.98 323.75 339.88 324.12 C 340.77 324.50 341.46 324.94 342.12 325.50 C 342.79 326.06 343.44 326.81 343.88 327.50 C 344.31 328.19 344.27 327.25 344.75 329.62 C 345.23 332.00 346.21 336.90 346.75 341.75 C 347.29 346.60 343.15 355.88 348.00 358.75 C 352.85 361.62 370.88 359.02 375.88 359.00 C 380.88 358.98 377.48 360.62 378.00 358.62 C 378.52 356.62 378.69 349.71 379.00 347.00 C 379.31 344.29 378.75 345.65 379.88 342.38 C 381.00 339.10 384.79 330.67 385.75 327.38 C 386.71 324.08 386.04 324.04 385.62 322.62 Z" id="s-12-f-3"/>
<path d="M 372.12 310.50 C 370.79 309.65 367.02 307.54 364.12 306.12 C 361.23 304.71 356.88 302.85 354.75 302.00 C 352.62 301.15 352.71 301.17 351.38 301.00 C 350.04 300.83 352.88 300.04 346.75 301.00 C 340.62 301.96 324.60 305.12 314.62 306.75 C 304.65 308.38 292.15 310.06 286.88 310.75 C 281.60 311.44 286.73 310.35 283.00 310.88 C 279.27 311.40 272.81 312.73 264.50 313.88 C 256.19 315.02 239.27 317.06 233.12 317.75 C 226.98 318.44 233.04 317.33 227.62 318.00 C 222.21 318.67 211.29 320.56 200.62 321.75 C 189.96 322.94 170.69 324.44 163.62 325.12 C 156.56 325.81 159.25 325.69 158.25 325.88 C 157.25 326.06 157.73 326.02 157.62 326.25 C 157.52 326.48 157.48 326.94 157.62 327.25 C 157.77 327.56 158.00 326.98 158.50 328.12 C 159.00 329.27 159.98 332.62 160.62 334.12 C 161.27 335.62 162.04 336.38 162.38 337.12 C 162.71 337.88 162.40 338.17 162.62 338.62 C 162.85 339.08 161.75 339.69 163.75 339.88 C 165.75 340.06 170.48 339.94 174.62 339.75 C 178.77 339.56 180.65 339.56 188.62 338.75 C 196.60 337.94 209.96 336.67 222.50 334.88 C 235.04 333.08 256.12 329.17 263.88 328.00 C 271.62 326.83 262.04 328.54 269.00 327.88 C 275.96 327.21 294.96 324.85 305.62 324.00 C 316.29 323.15 322.04 324.79 333.00 322.75 C 343.96 320.71 364.85 313.67 371.38 311.75 C 377.90 309.83 372.00 311.46 372.12 311.25 C 372.25 311.04 373.46 311.35 372.12 310.50 Z" id="s-12-f-4"/>
<path d="M 349.88 301.25 C 349.79 298.46 350.10 300.90 349.38 300.88 C 348.65 300.85 351.29 300.15 345.50 301.12 C 339.71 302.10 324.40 305.15 314.62 306.75 C 304.85 308.35 292.15 310.06 286.88 310.75 C 281.60 311.44 287.85 310.21 283.00 310.88 C 278.15 311.54 266.06 313.60 257.75 314.75 C 249.44 315.90 238.17 317.21 233.12 317.75 C 228.08 318.29 232.92 317.33 227.50 318.00 C 222.08 318.67 212.06 320.46 200.62 321.75 C 189.19 323.04 166.04 325.00 158.88 325.75 C 151.71 326.50 157.83 326.00 157.62 326.25 C 157.42 326.50 157.48 326.94 157.62 327.25 C 157.77 327.56 158.00 326.98 158.50 328.12 C 159.00 329.27 159.79 332.19 160.62 334.12 C 161.46 336.06 161.17 338.81 163.50 339.75 C 165.83 340.69 167.25 340.23 174.62 339.75 C 182.00 339.27 199.62 337.71 207.75 336.88 C 215.88 336.04 214.02 336.23 223.38 334.75 C 232.73 333.27 256.25 329.15 263.88 328.00 C 271.50 326.85 262.17 328.54 269.12 327.88 C 276.08 327.21 295.12 324.83 305.62 324.00 C 316.12 323.17 326.38 323.40 332.12 322.88 C 337.88 322.35 337.17 321.75 340.12 320.88 C 343.08 320.00 348.25 320.90 349.88 317.62 C 351.50 314.35 349.96 304.04 349.88 301.25 Z" id="s-12-f-5"/>
<path d="M 302.00 310.00 C 301.92 307.65 307.00 308.15 301.50 308.62 C 296.00 309.10 275.17 312.00 269.00 312.88 C 262.83 313.75 270.48 313.06 264.50 313.88 C 258.52 314.69 239.27 317.06 233.12 317.75 C 226.98 318.44 231.75 317.48 227.62 318.00 C 223.50 318.52 216.04 319.92 208.38 320.88 C 200.71 321.83 189.25 323.02 181.62 323.75 C 174.00 324.48 166.52 324.90 162.62 325.25 C 158.73 325.60 159.08 325.71 158.25 325.88 C 157.42 326.04 157.73 326.02 157.62 326.25 C 157.52 326.48 157.48 326.94 157.62 327.25 C 157.77 327.56 158.00 326.98 158.50 328.12 C 159.00 329.27 159.98 332.62 160.62 334.12 C 161.27 335.62 162.04 336.38 162.38 337.12 C 162.71 337.88 162.40 338.17 162.62 338.62 C 162.85 339.08 161.46 339.71 163.75 339.88 C 166.04 340.04 168.98 340.12 176.38 339.62 C 183.77 339.12 197.12 338.19 208.12 336.88 C 219.12 335.56 233.08 333.23 242.38 331.75 C 251.67 330.27 259.44 328.65 263.88 328.00 C 268.31 327.35 262.73 328.48 269.00 327.88 C 275.27 327.27 296.00 325.23 301.50 324.38 C 307.00 323.52 301.92 325.15 302.00 322.75 C 302.08 320.35 302.08 312.35 302.00 310.00 Z" id="s-12-f-6"/>
<path d="M 254.00 316.62 C 253.94 314.46 253.88 315.50 253.62 315.25 C 253.38 315.00 261.33 314.04 252.50 315.12 C 243.67 316.21 216.33 319.96 200.62 321.75 C 184.92 323.54 165.42 325.12 158.25 325.88 C 151.08 326.62 157.73 326.02 157.62 326.25 C 157.52 326.48 157.48 326.94 157.62 327.25 C 157.77 327.56 157.67 326.23 158.50 328.12 C 159.33 330.02 161.73 336.67 162.62 338.62 C 163.52 340.58 161.56 339.71 163.88 339.88 C 166.19 340.04 169.17 340.12 176.50 339.62 C 183.83 339.12 195.06 338.52 207.88 336.88 C 220.69 335.23 245.69 331.19 253.38 329.75 C 261.06 328.31 253.90 330.44 254.00 328.25 C 254.10 326.06 254.06 318.79 254.00 316.62 Z" id="s-12-f-7"/>
<path d="M 205.88 336.75 C 210.81 333.92 206.00 325.15 206.00 322.62 C 206.00 320.10 206.00 321.88 205.88 321.62 C 205.75 321.38 209.29 320.77 205.25 321.12 C 201.21 321.48 188.56 323.08 181.62 323.75 C 174.69 324.42 167.62 324.71 163.62 325.12 C 159.62 325.54 158.62 325.90 157.62 326.25 C 156.62 326.60 157.48 326.94 157.62 327.25 C 157.77 327.56 157.67 326.23 158.50 328.12 C 159.33 330.02 161.73 336.67 162.62 338.62 C 163.52 340.58 161.58 339.71 163.88 339.88 C 166.17 340.04 169.38 340.15 176.38 339.62 C 183.38 339.10 200.94 339.58 205.88 336.75 Z" id="s-12-f-8"/>
</g>
<g id="s-13" clip-path="url(#c-s-13)">
<use href="#s-13-f-0"/>
<path d="M 231.12 282.62 C 229.27 281.96 226.60 282.50 224.88 282.62 C 223.15 282.75 222.73 283.21 220.75 283.38 C 218.77 283.54 215.12 283.38 213.00 283.62 C 210.88 283.88 208.56 283.10 208.00 284.88 C 207.44 286.65 209.40 289.44 209.62 294.25 C 209.85 299.06 209.54 309.15 209.38 313.75 C 209.21 318.35 208.92 320.46 208.62 321.88 C 208.33 323.29 207.83 321.67 207.62 322.25 C 207.42 322.83 207.54 324.67 207.38 325.38 C 207.21 326.08 206.79 325.83 206.62 326.50 C 206.46 327.17 206.54 328.71 206.38 329.38 C 206.21 330.04 205.81 329.77 205.62 330.50 C 205.44 331.23 205.42 333.08 205.25 333.75 C 205.08 334.42 204.75 333.81 204.62 334.50 C 204.50 335.19 205.31 335.44 204.50 337.88 C 203.69 340.31 201.42 345.88 199.75 349.12 C 198.08 352.38 196.69 354.33 194.50 357.38 C 192.31 360.42 188.90 364.75 186.62 367.38 C 184.35 370.00 182.92 371.38 180.88 373.12 C 178.83 374.88 175.48 376.92 174.38 377.88 C 173.27 378.83 171.06 378.69 174.25 378.88 C 177.44 379.06 189.94 379.00 193.50 379.00 C 197.06 379.00 194.88 379.10 195.62 378.88 C 196.38 378.65 196.31 378.90 198.00 377.62 C 199.69 376.35 203.73 373.10 205.75 371.25 C 207.77 369.40 208.60 368.33 210.12 366.50 C 211.65 364.67 213.27 362.58 214.88 360.25 C 216.48 357.92 218.25 355.17 219.75 352.50 C 221.25 349.83 222.88 346.48 223.88 344.25 C 224.88 342.02 225.23 340.85 225.75 339.12 C 226.27 337.40 226.08 334.90 227.00 333.88 C 227.92 332.85 231.21 333.12 231.25 333.00 C 231.29 332.88 227.75 333.19 227.25 333.12 C 226.75 333.06 228.06 333.08 228.25 332.62 C 228.44 332.17 228.06 331.44 228.38 330.38 C 228.69 329.31 229.62 327.83 230.12 326.25 C 230.62 324.67 231.04 321.94 231.38 320.88 C 231.71 319.81 232.00 320.54 232.12 319.88 C 232.25 319.21 231.71 318.94 232.12 316.88 C 232.54 314.81 234.08 310.35 234.62 307.50 C 235.17 304.65 234.85 302.17 235.38 299.75 C 235.90 297.33 237.33 294.56 237.75 293.00 C 238.17 291.44 237.92 291.08 237.88 290.38 C 237.83 289.67 237.81 289.38 237.50 288.75 C 237.19 288.12 237.06 287.65 236.00 286.62 C 234.94 285.60 232.98 283.29 231.12 282.62 Z" id="s-13-f-1"/>
<path d="M 231.12 282.62 C 229.12 281.81 226.48 282.50 224.75 282.62 C 223.02 282.75 222.85 283.19 220.75 283.38 C 218.65 283.56 214.25 283.50 212.12 283.75 C 210.00 284.00 208.42 283.12 208.00 284.88 C 207.58 286.62 209.35 290.10 209.62 294.25 C 209.90 298.40 209.75 305.42 209.62 309.75 C 209.50 314.08 209.06 318.23 208.88 320.25 C 208.69 322.27 208.71 321.54 208.50 321.88 C 208.29 322.21 207.81 321.67 207.62 322.25 C 207.44 322.83 207.54 324.67 207.38 325.38 C 207.21 326.08 206.77 325.96 206.62 326.50 C 206.48 327.04 206.65 328.00 206.50 328.62 C 206.35 329.25 205.83 329.85 205.75 330.25 C 205.67 330.65 202.38 330.83 206.00 331.00 C 209.62 331.17 223.79 331.27 227.50 331.25 C 231.21 331.23 227.98 331.21 228.25 330.88 C 228.52 330.54 228.77 330.42 229.12 329.25 C 229.48 328.08 230.04 324.92 230.38 323.88 C 230.71 322.83 230.96 323.50 231.12 323.00 C 231.29 322.50 231.21 321.40 231.38 320.88 C 231.54 320.35 232.00 320.54 232.12 319.88 C 232.25 319.21 231.71 318.94 232.12 316.88 C 232.54 314.81 234.08 310.40 234.62 307.50 C 235.17 304.60 234.83 302.08 235.38 299.50 C 235.92 296.92 237.48 293.69 237.88 292.00 C 238.27 290.31 237.94 290.12 237.75 289.38 C 237.56 288.62 237.85 288.62 236.75 287.50 C 235.65 286.38 233.12 283.44 231.12 282.62 Z" id="s-13-f-2"/>
</g>
<g id="s-14" clip-path="url(#c-s-14)">
<use href="#s-14-f-0"/>
<path d="M 264.12 278.62 C 263.38 279.92 263.79 283.08 263.88 285.50 C 263.96 287.92 264.46 288.48 264.62 293.12 C 264.79 297.77 264.90 309.85 264.88 313.38 C 264.85 316.90 264.52 311.44 264.50 314.25 C 264.48 317.06 264.83 326.17 264.75 330.25 C 264.67 334.33 264.15 335.15 264.00 338.75 C 263.85 342.35 263.71 348.46 263.88 351.88 C 264.04 355.29 264.46 357.19 265.00 359.25 C 265.54 361.31 266.42 362.90 267.12 364.25 C 267.83 365.60 268.19 366.15 269.25 367.38 C 270.31 368.60 272.06 370.42 273.50 371.62 C 274.94 372.83 276.04 373.60 277.88 374.62 C 279.71 375.65 281.50 376.94 284.50 377.75 C 287.50 378.56 291.77 379.00 295.88 379.50 C 299.98 380.00 303.33 380.56 309.12 380.75 C 314.92 380.94 326.98 380.98 330.62 380.62 C 334.27 380.27 330.98 382.54 331.00 378.62 C 331.02 374.71 331.00 360.73 330.75 357.12 C 330.50 353.52 332.15 356.56 329.50 357.00 C 326.85 357.44 318.73 359.31 314.88 359.75 C 311.02 360.19 309.17 359.79 306.38 359.62 C 303.58 359.46 300.77 359.23 298.12 358.75 C 295.48 358.27 292.46 357.46 290.50 356.75 C 288.54 356.04 287.46 355.33 286.38 354.50 C 285.29 353.67 284.56 352.73 284.00 351.75 C 283.44 350.77 283.17 349.65 283.00 348.62 C 282.83 347.60 282.69 349.33 283.00 345.62 C 283.31 341.92 284.38 330.33 284.88 326.38 C 285.38 322.42 285.77 324.96 286.00 321.88 C 286.23 318.79 285.92 312.08 286.25 307.88 C 286.58 303.67 287.48 299.33 288.00 296.62 C 288.52 293.92 288.77 293.38 289.38 291.62 C 289.98 289.88 291.25 287.90 291.62 286.12 C 292.00 284.35 291.79 282.21 291.62 281.00 C 291.46 279.79 291.12 279.62 290.62 278.88 C 290.12 278.12 292.33 276.69 288.62 276.50 C 284.92 276.31 272.46 277.40 268.38 277.75 C 264.29 278.10 264.88 277.33 264.12 278.62 Z" id="s-14-f-1"/>
<path d="M 268.38 277.75 C 264.25 278.17 264.46 273.06 263.88 279.00 C 263.29 284.94 264.77 307.50 264.88 313.38 C 264.98 319.25 264.52 311.44 264.50 314.25 C 264.48 317.06 264.85 324.98 264.75 330.25 C 264.65 335.52 263.98 341.67 263.88 345.88 C 263.77 350.08 263.94 353.27 264.12 355.50 C 264.31 357.73 264.52 357.81 265.00 359.25 C 265.48 360.69 265.98 362.42 267.00 364.12 C 268.02 365.83 269.31 367.75 271.12 369.50 C 272.94 371.25 275.48 373.25 277.88 374.62 C 280.27 376.00 284.15 377.31 285.50 377.75 C 286.85 378.19 286.12 379.85 286.00 377.25 C 285.88 374.65 285.06 365.06 284.75 362.12 C 284.44 359.19 284.27 361.04 284.12 359.62 C 283.98 358.21 284.04 355.15 283.88 353.62 C 283.71 352.10 283.27 351.85 283.12 350.50 C 282.98 349.15 282.71 349.52 283.00 345.50 C 283.29 341.48 284.38 330.31 284.88 326.38 C 285.38 322.44 285.79 324.73 286.00 321.88 C 286.21 319.02 285.96 312.52 286.12 309.25 C 286.29 305.98 286.52 305.00 287.00 302.25 C 287.48 299.50 288.21 295.52 289.00 292.75 C 289.79 289.98 291.29 287.50 291.75 285.62 C 292.21 283.75 291.94 282.62 291.75 281.50 C 291.56 280.38 291.15 279.71 290.62 278.88 C 290.10 278.04 292.33 276.69 288.62 276.50 C 284.92 276.31 272.50 277.33 268.38 277.75 Z" id="s-14-f-2"/>
<path d="M 288.62 276.50 C 284.92 276.31 272.50 277.33 268.38 277.75 C 264.25 278.17 264.46 273.06 263.88 279.00 C 263.29 284.94 264.77 307.50 264.88 313.38 C 264.98 319.25 264.52 311.44 264.50 314.25 C 264.48 317.06 264.85 324.98 264.75 330.25 C 264.65 335.52 263.98 341.67 263.88 345.88 C 263.77 350.08 263.75 352.79 264.12 355.50 C 264.50 358.21 265.27 360.15 266.12 362.12 C 266.98 364.10 267.77 365.60 269.25 367.38 C 270.73 369.15 272.46 371.81 275.00 372.75 C 277.54 373.69 282.73 373.04 284.50 373.00 C 286.27 372.96 285.73 375.73 285.62 372.50 C 285.52 369.27 284.31 357.50 283.88 353.62 C 283.44 349.75 283.15 350.60 283.00 349.25 C 282.85 347.90 282.69 349.31 283.00 345.50 C 283.31 341.69 284.38 330.31 284.88 326.38 C 285.38 322.44 285.79 324.75 286.00 321.88 C 286.21 319.00 285.96 312.40 286.12 309.12 C 286.29 305.85 286.52 304.98 287.00 302.25 C 287.48 299.52 288.19 295.67 289.00 292.75 C 289.81 289.83 291.44 286.71 291.88 284.75 C 292.31 282.79 291.83 281.98 291.62 281.00 C 291.42 280.02 291.12 279.62 290.62 278.88 C 290.12 278.12 292.33 276.69 288.62 276.50 Z" id="s-14-f-3"/>
<path d="M 288.62 276.50 C 284.92 276.31 272.50 277.33 268.38 277.75 C 264.25 278.17 264.48 275.75 263.88 279.00 C 263.27 282.25 264.65 289.67 264.75 297.25 C 264.85 304.83 264.48 319.85 264.50 324.50 C 264.52 329.15 260.52 324.96 264.88 325.12 C 269.23 325.29 286.19 325.52 290.62 325.50 C 295.06 325.48 292.00 325.15 291.50 325.00 C 291.00 324.85 288.17 324.62 287.62 324.62 C 287.08 324.62 288.27 324.90 288.25 325.00 C 288.23 325.10 288.02 325.25 287.50 325.25 C 286.98 325.25 285.38 325.58 285.12 325.00 C 284.88 324.42 285.83 324.40 286.00 321.75 C 286.17 319.10 285.96 312.38 286.12 309.12 C 286.29 305.88 286.48 305.15 287.00 302.25 C 287.52 299.35 288.44 294.67 289.25 291.75 C 290.06 288.83 291.50 286.58 291.88 284.75 C 292.25 282.92 291.71 281.73 291.50 280.75 C 291.29 279.77 291.10 279.58 290.62 278.88 C 290.15 278.17 292.33 276.69 288.62 276.50 Z" id="s-14-f-4"/>
</g>
<g id="s-15" clip-path="url(#c-s-15)">
<use href="#s-15-f-0"/>
<path d="M 292.88 395.12 C 292.54 393.10 293.79 394.67 291.00 394.00 C 288.21 393.33 279.75 391.62 276.12 391.12 C 272.50 390.62 271.23 390.73 269.25 391.00 C 267.27 391.27 268.85 391.77 264.25 392.75 C 259.65 393.73 251.83 395.33 241.62 396.88 C 231.42 398.42 210.21 400.81 203.00 402.00 C 195.79 403.19 199.38 403.38 198.38 404.00 C 197.38 404.62 197.25 405.19 197.00 405.75 C 196.75 406.31 196.56 406.69 196.88 407.38 C 197.19 408.06 197.73 408.98 198.88 409.88 C 200.02 410.77 202.02 411.94 203.75 412.75 C 205.48 413.56 207.65 414.29 209.25 414.75 C 210.85 415.21 209.83 415.33 213.38 415.50 C 216.92 415.67 225.46 415.88 230.50 415.75 C 235.54 415.62 234.81 415.79 243.62 414.75 C 252.44 413.71 275.25 410.67 283.38 409.50 C 291.50 408.33 290.77 408.31 292.38 407.75 C 293.98 407.19 292.92 408.23 293.00 406.12 C 293.08 404.02 293.21 397.15 292.88 395.12 Z" id="s-15-f-1"/>
<path d="M 244.88 396.75 C 244.73 394.02 246.90 395.90 244.12 396.25 C 241.35 396.60 235.10 397.92 228.25 398.88 C 221.40 399.83 207.98 401.15 203.00 402.00 C 198.02 402.85 199.38 403.38 198.38 404.00 C 197.38 404.62 197.25 405.19 197.00 405.75 C 196.75 406.31 196.48 406.62 196.88 407.38 C 197.27 408.12 198.23 409.35 199.38 410.25 C 200.52 411.15 202.10 412.00 203.75 412.75 C 205.40 413.50 207.65 414.29 209.25 414.75 C 210.85 415.21 210.52 415.31 213.38 415.50 C 216.23 415.69 221.35 416.00 226.38 415.88 C 231.40 415.75 240.46 415.00 243.50 414.75 C 246.54 414.50 244.38 414.73 244.62 414.38 C 244.88 414.02 244.96 415.56 245.00 412.62 C 245.04 409.69 245.02 399.48 244.88 396.75 Z" id="s-15-f-2"/>
</g>
<g id="s-16" clip-path="url(#c-s-16)">
<use href="#s-16-f-0"/>
<path d="M 302.88 432.62 C 302.60 429.40 307.58 431.58 301.38 432.12 C 295.17 432.67 277.42 434.77 265.62 435.88 C 253.83 436.98 248.10 437.58 230.62 438.75 C 213.15 439.92 172.56 441.62 160.75 442.88 C 148.94 444.12 160.12 443.31 159.75 446.25 C 159.38 449.19 158.35 458.06 158.50 460.50 C 158.65 462.94 156.62 460.83 160.62 460.88 C 164.62 460.92 174.75 460.94 182.50 460.75 C 190.25 460.56 187.15 461.00 207.12 459.75 C 227.10 458.50 286.40 454.62 302.38 453.25 C 318.35 451.88 302.92 454.94 303.00 451.50 C 303.08 448.06 303.15 435.85 302.88 432.62 Z" id="s-16-f-1"/>
<path d="M 254.50 437.00 C 245.46 434.71 216.38 439.77 200.75 440.75 C 185.12 441.73 167.58 441.96 160.75 442.88 C 153.92 443.79 160.12 443.31 159.75 446.25 C 159.38 449.19 158.35 458.06 158.50 460.50 C 158.65 462.94 155.75 460.85 160.62 460.88 C 165.50 460.90 172.31 461.33 187.75 460.62 C 203.19 459.92 242.08 457.40 253.25 456.62 C 264.42 455.85 254.46 456.35 254.75 456.00 C 255.04 455.65 255.04 457.67 255.00 454.50 C 254.96 451.33 263.54 439.29 254.50 437.00 Z" id="s-16-f-2"/>
<path d="M 206.88 440.75 C 206.62 437.81 213.19 439.90 205.50 440.25 C 197.81 440.60 168.38 441.88 160.75 442.88 C 153.12 443.88 160.12 443.31 159.75 446.25 C 159.38 449.19 158.56 458.06 158.50 460.50 C 158.44 462.94 155.12 460.83 159.38 460.88 C 163.62 460.92 176.12 460.96 184.00 460.75 C 191.88 460.54 202.79 460.10 206.62 459.62 C 210.46 459.15 206.96 461.02 207.00 457.88 C 207.04 454.73 207.12 443.69 206.88 440.75 Z" id="s-16-f-3"/>
</g>
</svg>