<?xml version="1.0" encoding="UTF-8"?>
<svg xmlns="http://www.w3.org/2000/svg" viewBox="0 0 500 500">
<defs>
<path d="M 198.88 167.00 C 198.81 166.12 198.48 165.38 198.00 164.62 C 197.52 163.88 196.62 163.06 196.00 162.50 C 195.38 161.94 195.75 162.00 194.25 161.25 C 192.75 160.50 189.85 159.02 187.00 158.00 C 184.15 156.98 179.81 155.62 177.12 155.12 C 174.44 154.62 174.12 154.25 170.88 155.00 C 167.62 155.75 162.31 158.31 157.62 159.62 C 152.94 160.94 147.77 161.67 142.75 162.88 C 137.73 164.08 130.88 166.17 127.50 166.88 C 124.12 167.58 125.21 166.65 122.50 167.12 C 119.79 167.60 116.75 168.65 111.25 169.75 C 105.75 170.85 99.75 172.21 89.50 173.75 C 79.25 175.29 56.92 177.85 49.75 179.00 C 42.58 180.15 47.15 180.06 46.50 180.62 C 45.85 181.19 45.79 181.71 45.88 182.38 C 45.96 183.04 46.25 183.67 47.00 184.62 C 47.75 185.58 48.81 186.94 50.38 188.12 C 51.94 189.31 53.62 190.81 56.38 191.75 C 59.12 192.69 62.33 193.44 66.88 193.75 C 71.42 194.06 77.10 194.12 83.62 193.62 C 90.15 193.12 98.81 191.85 106.00 190.75 C 113.19 189.65 122.56 187.67 126.75 187.00 C 130.94 186.33 127.40 187.29 131.12 186.75 C 134.85 186.21 140.94 185.29 149.12 183.75 C 157.31 182.21 173.77 178.85 180.25 177.50 C 186.73 176.15 185.50 176.42 188.00 175.62 C 190.50 174.83 193.52 173.71 195.25 172.75 C 196.98 171.79 197.77 170.83 198.38 169.88 C 198.98 168.92 198.94 167.88 198.88 167.00 Z" id="s-0-f-0"/>
<clipPath id="c-s-0"><use href="#s-0-f-0"/></clipPath>
<path d="M 123.25 47.12 C 121.58 47.44 120.75 48.23 119.88 48.88 C 119.00 49.52 118.50 49.94 118.00 51.00 C 117.50 52.06 117.04 53.90 116.88 55.25 C 116.71 56.60 116.67 56.62 117.00 59.12 C 117.33 61.62 118.23 67.60 118.88 70.25 C 119.52 72.90 120.23 73.04 120.88 75.00 C 121.52 76.96 121.94 77.98 122.75 82.00 C 123.56 86.02 124.92 85.88 125.75 99.12 C 126.58 112.38 127.44 141.12 127.75 161.50 C 128.06 181.88 127.79 206.02 127.62 221.38 C 127.46 236.73 126.90 244.17 126.75 253.62 C 126.60 263.08 127.23 262.79 126.75 278.12 C 126.27 293.46 124.54 331.48 123.88 345.62 C 123.21 359.77 123.29 356.71 122.75 363.00 C 122.21 369.29 121.29 378.33 120.62 383.38 C 119.96 388.42 119.19 391.29 118.75 393.25 C 118.31 395.21 118.42 394.48 118.00 395.12 C 117.58 395.77 117.02 396.56 116.25 397.12 C 115.48 397.69 114.62 398.23 113.38 398.50 C 112.12 398.77 110.10 398.77 108.75 398.75 C 107.40 398.73 108.48 399.04 105.25 398.38 C 102.02 397.71 94.23 395.98 89.38 394.75 C 84.52 393.52 78.69 391.56 76.12 391.00 C 73.56 390.44 74.38 390.98 74.00 391.38 C 73.62 391.77 73.58 392.58 73.88 393.38 C 74.17 394.17 73.17 393.50 75.75 396.12 C 78.33 398.75 85.83 405.54 89.38 409.12 C 92.92 412.71 94.12 414.21 97.00 417.62 C 99.88 421.04 102.90 424.73 106.62 429.62 C 110.35 434.52 116.54 443.48 119.38 447.00 C 122.21 450.52 122.54 449.96 123.62 450.75 C 124.71 451.54 125.08 451.56 125.88 451.75 C 126.67 451.94 127.54 452.02 128.38 451.88 C 129.21 451.73 129.94 451.54 130.88 450.88 C 131.81 450.21 132.85 449.25 134.00 447.88 C 135.15 446.50 135.96 445.46 137.75 442.62 C 139.54 439.79 143.10 433.79 144.75 430.88 C 146.40 427.96 146.81 427.06 147.62 425.12 C 148.44 423.19 148.94 421.98 149.62 419.25 C 150.31 416.52 151.42 414.81 151.75 408.75 C 152.08 402.69 152.08 393.21 151.62 382.88 C 151.17 372.54 149.46 367.88 149.00 346.75 C 148.54 325.62 148.73 273.19 148.88 256.12 C 149.02 239.06 149.38 256.52 149.88 244.38 C 150.38 232.23 151.33 194.94 151.88 183.25 C 152.42 171.56 152.92 179.88 153.12 174.25 C 153.33 168.62 152.65 158.58 153.12 149.50 C 153.60 140.42 155.15 126.90 156.00 119.75 C 156.85 112.60 157.42 110.42 158.25 106.62 C 159.08 102.83 159.42 101.23 161.00 97.00 C 162.58 92.77 166.46 84.42 167.75 81.25 C 169.04 78.08 168.56 78.96 168.75 78.00 C 168.94 77.04 169.02 76.56 168.88 75.50 C 168.73 74.44 168.44 72.92 167.88 71.62 C 167.31 70.33 166.50 69.02 165.50 67.75 C 164.50 66.48 163.38 65.31 161.88 64.00 C 160.38 62.69 159.35 61.71 156.50 59.88 C 153.65 58.04 148.12 54.81 144.75 53.00 C 141.38 51.19 138.73 50.00 136.25 49.00 C 133.77 48.00 132.04 47.31 129.88 47.00 C 127.71 46.69 124.92 46.81 123.25 47.12 Z" id="s-1-f-0"/>
<clipPath id="c-s-1"><use href="#s-1-f-0"/></clipPath>
<path d="M 188.62 216.25 C 188.42 215.50 188.02 215.35 187.62 215.12 C 187.23 214.90 187.42 214.54 186.25 214.88 C 185.08 215.21 182.60 216.10 180.62 217.12 C 178.65 218.15 176.73 219.40 174.38 221.00 C 172.02 222.60 170.35 224.25 166.50 226.75 C 162.65 229.25 154.21 234.33 151.25 236.00 C 148.29 237.67 152.02 234.69 148.75 236.75 C 145.48 238.81 134.65 246.40 131.62 248.38 C 128.60 250.35 131.21 248.27 130.62 248.62 C 130.04 248.98 128.58 250.06 128.12 250.50 C 127.67 250.94 127.98 251.21 127.88 251.25 C 127.77 251.29 127.69 250.65 127.50 250.75 C 127.31 250.85 131.77 248.71 126.75 251.88 C 121.73 255.04 108.08 263.42 97.38 269.75 C 86.67 276.08 72.35 284.38 62.50 289.88 C 52.65 295.38 44.08 299.94 38.25 302.75 C 32.42 305.56 30.25 305.88 27.50 306.75 C 24.75 307.62 23.00 307.62 21.75 308.00 C 20.50 308.38 20.48 308.60 20.00 309.00 C 19.52 309.40 19.02 309.67 18.88 310.38 C 18.73 311.08 18.77 312.19 19.12 313.25 C 19.48 314.31 20.10 315.40 21.00 316.75 C 21.90 318.10 23.21 319.85 24.50 321.38 C 25.79 322.90 26.85 324.33 28.75 325.88 C 30.65 327.42 33.71 329.33 35.88 330.62 C 38.04 331.92 39.77 332.79 41.75 333.62 C 43.73 334.46 45.92 335.25 47.75 335.62 C 49.58 336.00 51.48 336.02 52.75 335.88 C 54.02 335.73 46.69 342.12 55.38 334.75 C 64.06 327.38 93.21 301.56 104.88 291.62 C 116.54 281.69 121.62 278.04 125.38 275.12 C 129.12 272.21 126.21 274.94 127.38 274.12 C 128.54 273.31 124.17 277.10 132.38 270.25 C 140.58 263.40 167.38 241.04 176.62 233.00 C 185.88 224.96 185.83 224.23 187.88 222.00 C 189.92 219.77 188.75 220.58 188.88 219.62 C 189.00 218.67 188.83 217.00 188.62 216.25 Z" id="s-2-f-0"/>
<clipPath id="c-s-2"><use href="#s-2-f-0"/></clipPath>
<path d="M 416.75 77.88 C 416.50 76.81 416.15 76.35 415.12 75.38 C 414.10 74.40 413.29 73.23 410.62 72.00 C 407.96 70.77 401.90 68.83 399.12 68.00 C 396.35 67.17 395.98 67.17 394.00 67.00 C 392.02 66.83 391.75 66.04 387.25 67.00 C 382.75 67.96 374.33 70.96 367.00 72.75 C 359.67 74.54 358.40 75.08 343.25 77.75 C 328.10 80.42 291.15 86.42 276.12 88.75 C 261.10 91.08 262.40 90.69 253.12 91.75 C 243.85 92.81 226.46 94.40 220.50 95.12 C 214.54 95.85 218.15 95.73 217.38 96.12 C 216.60 96.52 216.12 97.12 215.88 97.50 C 215.62 97.88 215.69 97.83 215.88 98.38 C 216.06 98.92 215.96 99.56 217.00 100.75 C 218.04 101.94 220.54 104.35 222.12 105.50 C 223.71 106.65 225.04 107.08 226.50 107.62 C 227.96 108.17 228.88 108.40 230.88 108.75 C 232.88 109.10 236.33 109.56 238.50 109.75 C 240.67 109.94 241.08 109.88 243.88 109.88 C 246.67 109.88 251.31 109.94 255.25 109.75 C 259.19 109.56 261.15 109.42 267.50 108.75 C 273.85 108.08 276.67 107.92 293.38 105.75 C 310.08 103.58 350.62 98.25 367.75 95.75 C 384.88 93.25 389.04 92.27 396.12 90.75 C 403.21 89.23 407.27 87.65 410.25 86.62 C 413.23 85.60 412.94 85.44 414.00 84.62 C 415.06 83.81 416.17 82.88 416.62 81.75 C 417.08 80.62 417.00 78.94 416.75 77.88 Z" id="s-3-f-0"/>
<clipPath id="c-s-3"><use href="#s-3-f-0"/></clipPath>
<path d="M 211.50 157.00 C 209.65 157.19 210.02 157.69 209.50 158.12 C 208.98 158.56 208.62 158.81 208.38 159.62 C 208.12 160.44 207.42 161.71 208.00 163.00 C 208.58 164.29 210.25 164.92 211.88 167.38 C 213.50 169.83 216.44 174.98 217.75 177.75 C 219.06 180.52 219.21 181.58 219.75 184.00 C 220.29 186.42 220.33 188.83 221.00 192.25 C 221.67 195.67 222.96 199.79 223.75 204.50 C 224.54 209.21 225.21 214.83 225.75 220.50 C 226.29 226.17 226.08 228.73 227.00 238.50 C 227.92 248.27 230.23 271.38 231.25 279.12 C 232.27 286.88 232.19 282.81 233.12 285.00 C 234.06 287.19 235.69 290.42 236.88 292.25 C 238.06 294.08 239.46 295.25 240.25 296.00 C 241.04 296.75 240.94 296.62 241.62 296.75 C 242.31 296.88 243.60 296.90 244.38 296.75 C 245.15 296.60 245.73 296.25 246.25 295.88 C 246.77 295.50 246.77 295.67 247.50 294.50 C 248.23 293.33 249.88 292.52 250.62 288.88 C 251.38 285.23 252.17 281.44 252.00 272.62 C 251.83 263.81 250.15 243.06 249.62 236.00 C 249.10 228.94 249.00 232.15 248.88 230.25 C 248.75 228.35 249.38 230.71 248.88 224.62 C 248.38 218.54 246.38 201.38 245.88 193.75 C 245.38 186.12 246.71 183.56 245.88 178.88 C 245.04 174.19 241.90 168.15 240.88 165.62 C 239.85 163.10 240.27 164.35 239.75 163.75 C 239.23 163.15 238.75 162.62 237.75 162.00 C 236.75 161.38 235.52 160.67 233.75 160.00 C 231.98 159.33 229.31 158.50 227.12 158.00 C 224.94 157.50 223.23 157.17 220.62 157.00 C 218.02 156.83 213.35 156.81 211.50 157.00 Z" id="s-4-f-0"/>
<clipPath id="c-s-4"><use href="#s-4-f-0"/></clipPath>
<path d="M 436.88 160.25 C 436.52 159.21 435.71 158.08 434.62 156.88 C 433.54 155.67 432.10 154.33 430.38 153.00 C 428.65 151.67 426.44 150.21 424.25 148.88 C 422.06 147.54 420.92 146.79 417.25 145.00 C 413.58 143.21 405.40 139.46 402.25 138.12 C 399.10 136.79 400.19 137.17 398.38 137.00 C 396.56 136.83 394.04 136.67 391.38 137.12 C 388.71 137.58 386.88 138.65 382.38 139.75 C 377.88 140.85 373.19 141.92 364.38 143.75 C 355.56 145.58 335.96 149.54 329.50 150.75 C 323.04 151.96 333.79 149.67 325.62 151.00 C 317.46 152.33 294.29 156.69 280.50 158.75 C 266.71 160.81 249.65 162.50 242.88 163.38 C 236.10 164.25 240.44 163.71 239.88 164.00 C 239.31 164.29 239.25 164.33 239.50 165.12 C 239.75 165.92 241.02 167.83 241.38 168.75 C 241.73 169.67 241.46 170.17 241.62 170.62 C 241.79 171.08 241.88 170.19 242.38 171.50 C 242.88 172.81 244.10 177.10 244.62 178.50 C 245.15 179.90 244.06 179.83 245.50 179.88 C 246.94 179.92 250.65 179.42 253.25 178.75 C 255.85 178.08 253.52 177.33 261.12 175.88 C 268.73 174.42 290.69 171.17 298.88 170.00 C 307.06 168.83 304.42 169.67 310.25 168.88 C 316.08 168.08 325.38 166.40 333.88 165.25 C 342.38 164.10 354.35 162.71 361.25 162.00 C 368.15 161.29 371.94 161.12 375.25 161.00 C 378.56 160.88 379.42 160.92 381.12 161.25 C 382.83 161.58 384.42 162.19 385.50 163.00 C 386.58 163.81 387.25 164.46 387.62 166.12 C 388.00 167.79 387.88 169.65 387.75 173.00 C 387.62 176.35 387.35 181.33 386.88 186.25 C 386.40 191.17 385.83 196.96 384.88 202.50 C 383.92 208.04 381.98 214.83 381.12 219.50 C 380.27 224.17 380.48 225.92 379.75 230.50 C 379.02 235.08 377.60 242.88 376.75 247.00 C 375.90 251.12 375.29 253.04 374.62 255.25 C 373.96 257.46 373.33 259.02 372.75 260.25 C 372.17 261.48 371.46 261.88 371.12 262.62 C 370.79 263.38 370.81 262.21 370.75 264.75 C 370.69 267.29 370.67 275.19 370.75 277.88 C 370.83 280.56 370.71 279.73 371.25 280.88 C 371.79 282.02 373.17 283.77 374.00 284.75 C 374.83 285.73 375.54 286.25 376.25 286.75 C 376.96 287.25 377.42 287.56 378.25 287.75 C 379.08 287.94 379.90 288.08 381.25 287.88 C 382.60 287.67 385.02 287.00 386.38 286.50 C 387.73 286.00 387.96 285.81 389.38 284.88 C 390.79 283.94 393.71 281.85 394.88 280.88 C 396.04 279.90 395.06 282.19 396.38 279.00 C 397.69 275.81 399.69 270.54 402.75 261.75 C 405.81 252.96 410.75 238.54 414.75 226.25 C 418.75 213.96 424.38 195.96 426.75 188.00 C 429.12 180.04 428.29 180.88 429.00 178.50 C 429.71 176.12 429.88 175.81 431.00 173.75 C 432.12 171.69 434.79 167.90 435.75 166.12 C 436.71 164.35 436.56 164.10 436.75 163.12 C 436.94 162.15 437.23 161.29 436.88 160.25 Z" id="s-5-f-0"/>
<clipPath id="c-s-5"><use href="#s-5-f-0"/></clipPath>
<path d="M 385.25 203.25 C 385.10 201.73 384.46 202.56 383.12 202.00 C 381.79 201.44 380.50 200.54 377.25 199.88 C 374.00 199.21 367.06 198.31 363.62 198.00 C 360.19 197.69 359.98 197.67 356.62 198.00 C 353.27 198.33 348.02 199.04 343.50 200.00 C 338.98 200.96 332.48 203.08 329.50 203.75 C 326.52 204.42 330.27 203.29 325.62 204.00 C 320.98 204.71 307.94 206.88 301.62 208.00 C 295.31 209.12 293.92 209.79 287.75 210.75 C 281.58 211.71 270.85 213.04 264.62 213.75 C 258.40 214.46 253.23 214.58 250.38 215.00 C 247.52 215.42 247.90 214.40 247.50 216.25 C 247.10 218.10 247.83 224.35 248.00 226.12 C 248.17 227.90 248.40 226.42 248.50 226.88 C 248.60 227.33 248.27 228.40 248.62 228.88 C 248.98 229.35 249.40 229.44 250.62 229.75 C 251.85 230.06 253.46 230.56 256.00 230.75 C 258.54 230.94 262.02 231.06 265.88 230.88 C 269.73 230.69 274.25 230.29 279.12 229.62 C 284.00 228.96 291.33 227.33 295.12 226.88 C 298.92 226.42 300.23 227.00 301.88 226.88 C 303.52 226.75 301.35 226.62 305.00 226.12 C 308.65 225.62 317.71 224.77 323.75 223.88 C 329.79 222.98 337.46 221.56 341.25 220.75 C 345.04 219.94 342.48 219.67 346.50 219.00 C 350.52 218.33 360.27 217.48 365.38 216.75 C 370.48 216.02 374.19 215.25 377.12 214.62 C 380.06 214.00 381.85 213.58 383.00 213.00 C 384.15 212.42 383.62 212.75 384.00 211.12 C 384.38 209.50 385.40 204.77 385.25 203.25 Z" id="s-6-f-0"/>
<clipPath id="c-s-6"><use href="#s-6-f-0"/></clipPath>
<path d="M 371.25 264.25 C 370.23 261.40 367.54 262.02 365.12 261.00 C 362.71 259.98 359.62 258.62 356.75 258.12 C 353.88 257.62 352.88 257.40 347.88 258.00 C 342.88 258.60 330.92 261.10 326.75 261.75 C 322.58 262.40 327.94 261.19 322.88 261.88 C 317.81 262.56 308.23 264.52 296.38 265.88 C 284.52 267.23 259.35 268.44 251.75 270.00 C 244.15 271.56 250.96 272.77 250.75 275.25 C 250.54 277.73 250.67 283.12 250.50 284.88 C 250.33 286.62 249.83 285.67 249.75 285.75 C 249.67 285.83 249.90 285.29 250.00 285.38 C 250.10 285.46 250.27 286.29 250.38 286.25 C 250.48 286.21 250.50 285.33 250.62 285.12 C 250.75 284.92 250.44 284.73 251.12 285.00 C 251.81 285.27 253.31 286.29 254.75 286.75 C 256.19 287.21 256.98 287.58 259.75 287.75 C 262.52 287.92 265.73 288.21 271.38 287.75 C 277.02 287.29 289.04 285.48 293.62 285.00 C 298.21 284.52 293.60 285.40 298.88 284.88 C 304.15 284.35 319.67 282.40 325.25 281.88 C 330.83 281.35 327.31 282.17 332.38 281.75 C 337.44 281.33 349.46 279.85 355.62 279.38 C 361.79 278.90 366.77 279.08 369.38 278.88 C 371.98 278.67 370.94 280.56 371.25 278.12 C 371.56 275.69 372.27 267.10 371.25 264.25 Z" id="s-7-f-0"/>
<clipPath id="c-s-7"><use href="#s-7-f-0"/></clipPath>
<path d="M 320.12 101.75 C 317.92 100.42 317.42 101.52 316.25 101.62 C 315.08 101.73 314.56 102.19 313.12 102.38 C 311.69 102.56 308.92 102.56 307.62 102.75 C 306.33 102.94 307.75 103.19 305.38 103.50 C 303.00 103.81 295.90 104.29 293.38 104.62 C 290.85 104.96 290.83 105.25 290.25 105.50 C 289.67 105.75 289.90 105.33 289.88 106.12 C 289.85 106.92 289.31 106.88 290.12 110.25 C 290.94 113.62 293.48 120.94 294.75 126.38 C 296.02 131.81 297.08 138.25 297.75 142.88 C 298.42 147.50 298.60 150.44 298.75 154.12 C 298.90 157.81 298.46 162.25 298.62 165.00 C 298.79 167.75 299.56 167.44 299.75 170.62 C 299.94 173.81 299.90 177.88 299.75 184.12 C 299.60 190.38 299.08 203.92 298.88 208.12 C 298.67 212.33 298.56 206.33 298.50 209.38 C 298.44 212.42 298.44 223.38 298.50 226.38 C 298.56 229.38 298.88 224.62 298.88 227.38 C 298.88 230.12 298.83 236.54 298.50 242.88 C 298.17 249.21 297.33 261.04 296.88 265.38 C 296.42 269.71 295.98 267.00 295.75 268.88 C 295.52 270.75 295.69 274.94 295.50 276.62 C 295.31 278.31 294.79 276.15 294.62 279.00 C 294.46 281.85 294.65 290.06 294.50 293.75 C 294.35 297.44 294.38 297.40 293.75 301.12 C 293.12 304.85 291.58 312.38 290.75 316.12 C 289.92 319.88 289.60 320.98 288.75 323.62 C 287.90 326.27 288.08 326.79 285.62 332.00 C 283.17 337.21 276.15 350.52 274.00 354.88 C 271.85 359.23 273.69 356.50 272.75 358.12 C 271.81 359.75 270.35 361.96 268.38 364.62 C 266.40 367.29 264.44 370.10 260.88 374.12 C 257.31 378.15 250.81 385.00 247.00 388.75 C 243.19 392.50 241.88 393.62 238.00 396.62 C 234.12 399.62 227.52 404.23 223.75 406.75 C 219.98 409.27 218.40 410.08 215.38 411.75 C 212.35 413.42 211.25 414.21 205.62 416.75 C 200.00 419.29 186.00 425.00 181.62 427.00 C 177.25 429.00 179.81 428.19 179.38 428.75 C 178.94 429.31 178.96 430.02 179.00 430.38 C 179.04 430.73 178.73 430.62 179.62 430.88 C 180.52 431.12 181.83 431.73 184.38 431.88 C 186.92 432.02 191.71 431.98 194.88 431.75 C 198.04 431.52 199.98 431.19 203.38 430.50 C 206.77 429.81 211.77 428.58 215.25 427.62 C 218.73 426.67 220.48 426.10 224.25 424.75 C 228.02 423.40 233.71 421.33 237.88 419.50 C 242.04 417.67 246.02 415.54 249.25 413.75 C 252.48 411.96 253.67 411.31 257.25 408.75 C 260.83 406.19 266.31 402.27 270.75 398.38 C 275.19 394.48 280.00 389.75 283.88 385.38 C 287.75 381.00 290.67 376.96 294.00 372.12 C 297.33 367.29 301.40 360.69 303.88 356.38 C 306.35 352.06 307.25 349.94 308.88 346.25 C 310.50 342.56 311.85 339.56 313.62 334.25 C 315.40 328.94 317.75 322.42 319.50 314.38 C 321.25 306.33 323.15 291.50 324.12 286.00 C 325.10 280.50 325.04 283.38 325.38 281.38 C 325.71 279.38 326.02 277.52 326.12 274.00 C 326.23 270.48 325.73 265.90 326.00 260.25 C 326.27 254.60 327.44 246.29 327.75 240.12 C 328.06 233.96 327.69 226.73 327.88 223.25 C 328.06 219.77 328.67 220.58 328.88 219.25 C 329.08 217.92 329.10 229.52 329.12 215.25 C 329.15 200.98 328.85 148.25 329.00 133.62 C 329.15 119.00 329.40 129.92 330.00 127.50 C 330.60 125.08 332.15 121.21 332.62 119.12 C 333.10 117.04 333.02 116.12 332.88 115.00 C 332.73 113.88 332.31 113.27 331.75 112.38 C 331.19 111.48 331.44 111.40 329.50 109.62 C 327.56 107.85 322.33 103.08 320.12 101.75 Z" id="s-8-f-0"/>
<clipPath id="c-s-8"><use href="#s-8-f-0"/></clipPath>
<path d="M 204.00 313.62 C 203.73 314.38 203.42 315.25 204.12 316.25 C 204.83 317.25 206.35 318.56 208.25 319.62 C 210.15 320.69 212.79 321.71 215.50 322.62 C 218.21 323.54 221.42 324.06 224.50 325.12 C 227.58 326.19 231.17 327.69 234.00 329.00 C 236.83 330.31 238.98 331.50 241.50 333.00 C 244.02 334.50 246.77 336.31 249.12 338.00 C 251.48 339.69 252.65 340.54 255.62 343.12 C 258.60 345.71 264.27 351.15 267.00 353.50 C 269.73 355.85 270.90 356.27 272.00 357.25 C 273.10 358.23 270.62 356.58 273.62 359.38 C 276.62 362.17 286.83 371.29 290.00 374.00 C 293.17 376.71 285.10 369.04 292.62 375.62 C 300.15 382.21 325.52 405.17 335.12 413.50 C 344.73 421.83 345.65 422.08 350.25 425.62 C 354.85 429.17 358.06 431.56 362.75 434.75 C 367.44 437.94 374.62 442.65 378.38 444.75 C 382.12 446.85 383.23 446.75 385.25 447.38 C 387.27 448.00 387.88 448.10 390.50 448.50 C 393.12 448.90 395.58 449.54 401.00 449.75 C 406.42 449.96 417.38 449.92 423.00 449.75 C 428.62 449.58 429.77 449.42 434.75 448.75 C 439.73 448.08 447.81 446.77 452.88 445.75 C 457.94 444.73 461.46 443.79 465.12 442.62 C 468.79 441.46 472.90 439.65 474.88 438.75 C 476.85 437.85 476.19 438.08 477.00 437.25 C 477.81 436.42 479.29 434.65 479.75 433.75 C 480.21 432.85 480.21 432.50 479.75 431.88 C 479.29 431.25 479.44 430.96 477.00 430.00 C 474.56 429.04 471.83 428.04 465.12 426.12 C 458.42 424.21 446.85 421.40 436.75 418.50 C 426.65 415.60 413.79 411.71 404.50 408.75 C 395.21 405.79 387.81 403.25 381.00 400.75 C 374.19 398.25 368.35 395.90 363.62 393.75 C 358.90 391.60 356.50 390.08 352.62 387.88 C 348.75 385.67 345.71 383.90 340.38 380.50 C 335.04 377.10 326.67 371.60 320.62 367.50 C 314.58 363.40 307.04 358.04 304.12 355.88 C 301.21 353.71 304.58 355.60 303.12 354.50 C 301.67 353.40 298.77 351.71 295.38 349.25 C 291.98 346.79 285.12 341.42 282.75 339.75 C 280.38 338.08 285.77 342.71 281.12 339.25 C 276.48 335.79 261.02 323.38 254.88 319.00 C 248.73 314.62 246.88 314.33 244.25 313.00 C 241.62 311.67 241.15 311.62 239.12 311.00 C 237.10 310.38 234.85 309.60 232.12 309.25 C 229.40 308.90 225.52 308.90 222.75 308.88 C 219.98 308.85 217.71 308.92 215.50 309.12 C 213.29 309.33 211.12 309.69 209.50 310.12 C 207.88 310.56 206.67 311.17 205.75 311.75 C 204.83 312.33 204.27 312.88 204.00 313.62 Z" id="s-9-f-0"/>
<clipPath id="c-s-9"><use href="#s-9-f-0"/></clipPath>
</defs>
<g id="s-0" clip-path="url(#c-s-0)">
<use href="#s-0-f-0"/>
<path d="M 189.88 159.62 C 189.38 157.02 188.46 158.60 187.00 158.00 C 185.54 157.40 182.90 156.50 181.12 156.00 C 179.35 155.50 178.08 155.17 176.38 155.00 C 174.67 154.83 174.00 154.23 170.88 155.00 C 167.75 155.77 162.31 158.31 157.62 159.62 C 152.94 160.94 147.77 161.67 142.75 162.88 C 137.73 164.08 130.88 166.17 127.50 166.88 C 124.12 167.58 125.21 166.65 122.50 167.12 C 119.79 167.60 116.75 168.65 111.25 169.75 C 105.75 170.85 99.75 172.21 89.50 173.75 C 79.25 175.29 56.92 177.85 49.75 179.00 C 42.58 180.15 47.15 180.06 46.50 180.62 C 45.85 181.19 45.85 181.79 45.88 182.38 C 45.90 182.96 46.15 183.42 46.62 184.12 C 47.10 184.83 47.77 185.69 48.75 186.62 C 49.73 187.56 51.23 188.90 52.50 189.75 C 53.77 190.60 54.19 191.10 56.38 191.75 C 58.56 192.40 61.08 193.31 65.62 193.62 C 70.17 193.94 76.90 194.10 83.62 193.62 C 90.35 193.15 98.81 191.85 106.00 190.75 C 113.19 189.65 122.56 187.67 126.75 187.00 C 130.94 186.33 127.40 187.29 131.12 186.75 C 134.85 186.21 139.65 185.60 149.12 183.75 C 158.60 181.90 181.27 177.08 188.00 175.62 C 194.73 174.17 189.17 175.33 189.50 175.00 C 189.83 174.67 189.94 176.19 190.00 173.62 C 190.06 171.06 190.38 162.23 189.88 159.62 Z" id="s-0-f-1"/>
<path d="M 141.88 163.88 C 141.79 160.60 142.02 163.50 141.50 163.50 C 140.98 163.50 140.98 163.33 138.75 163.88 C 136.52 164.42 130.83 166.21 128.12 166.75 C 125.42 167.29 125.31 166.62 122.50 167.12 C 119.69 167.62 116.75 168.65 111.25 169.75 C 105.75 170.85 99.75 172.21 89.50 173.75 C 79.25 175.29 56.92 177.85 49.75 179.00 C 42.58 180.15 47.15 180.06 46.50 180.62 C 45.85 181.19 45.85 181.79 45.88 182.38 C 45.90 182.96 46.10 183.38 46.62 184.12 C 47.15 184.88 48.08 185.98 49.00 186.88 C 49.92 187.77 50.96 188.71 52.12 189.50 C 53.29 190.29 53.75 190.94 56.00 191.62 C 58.25 192.31 61.35 193.27 65.62 193.62 C 69.90 193.98 77.15 193.92 81.62 193.75 C 86.10 193.58 82.58 194.08 92.50 192.62 C 102.42 191.17 132.90 186.35 141.12 185.00 C 149.35 183.65 141.73 184.81 141.88 184.50 C 142.02 184.19 142.00 186.56 142.00 183.12 C 142.00 179.69 141.96 167.15 141.88 163.88 Z" id="s-0-f-2"/>
<path d="M 93.88 191.88 C 94.29 188.90 94.00 177.96 94.00 174.88 C 94.00 171.79 94.00 173.69 93.88 173.38 C 93.75 173.06 96.17 172.60 93.25 173.00 C 90.33 173.40 83.62 174.75 76.38 175.75 C 69.12 176.75 54.60 178.29 49.75 179.00 C 44.90 179.71 47.90 179.56 47.25 180.00 C 46.60 180.44 45.98 180.94 45.88 181.62 C 45.77 182.31 45.88 183.04 46.62 184.12 C 47.38 185.21 48.81 186.88 50.38 188.12 C 51.94 189.38 54.40 190.85 56.00 191.62 C 57.60 192.40 58.19 192.40 60.00 192.75 C 61.81 193.10 63.94 193.56 66.88 193.75 C 69.81 193.94 73.52 194.04 77.62 193.88 C 81.73 193.71 88.79 193.08 91.50 192.75 C 94.21 192.42 93.46 194.85 93.88 191.88 Z" id="s-0-f-3"/>
</g>
<g id="s-1" clip-path="url(#c-s-1)">
<use href="#s-1-f-0"/>
<path d="M 123.25 47.12 C 121.52 47.48 120.38 48.48 119.50 49.12 C 118.62 49.77 118.44 50.00 118.00 51.00 C 117.56 52.00 117.04 53.77 116.88 55.12 C 116.71 56.48 116.65 56.52 117.00 59.12 C 117.35 61.73 118.40 68.23 119.00 70.75 C 119.60 73.27 120.00 72.38 120.62 74.25 C 121.25 76.12 121.88 77.62 122.75 82.00 C 123.62 86.38 125.04 87.25 125.88 100.50 C 126.71 113.75 127.44 143.98 127.75 161.50 C 128.06 179.02 127.92 190.27 127.75 205.62 C 127.58 220.98 126.92 241.54 126.75 253.62 C 126.58 265.71 127.10 265.04 126.75 278.12 C 126.40 291.21 125.31 317.71 124.62 332.12 C 123.94 346.54 123.29 356.04 122.62 364.62 C 121.96 373.21 121.21 379.31 120.62 383.62 C 120.04 387.94 119.56 387.92 119.12 390.50 C 118.69 393.08 118.71 391.50 118.00 399.12 C 117.29 406.75 115.40 429.29 114.88 436.25 C 114.35 443.21 114.44 439.44 114.88 440.88 C 115.31 442.31 116.23 443.35 117.50 444.88 C 118.77 446.40 121.10 448.85 122.50 450.00 C 123.90 451.15 124.90 451.44 125.88 451.75 C 126.85 452.06 127.54 452.02 128.38 451.88 C 129.21 451.73 129.94 451.54 130.88 450.88 C 131.81 450.21 132.85 449.25 134.00 447.88 C 135.15 446.50 135.96 445.46 137.75 442.62 C 139.54 439.79 143.10 433.79 144.75 430.88 C 146.40 427.96 146.62 427.75 147.62 425.12 C 148.62 422.50 150.06 417.85 150.75 415.12 C 151.44 412.40 151.60 414.12 151.75 408.75 C 151.90 403.38 152.08 393.21 151.62 382.88 C 151.17 372.54 149.46 367.88 149.00 346.75 C 148.54 325.62 148.73 273.19 148.88 256.12 C 149.02 239.06 149.38 256.52 149.88 244.38 C 150.38 232.23 151.33 194.94 151.88 183.25 C 152.42 171.56 152.92 179.85 153.12 174.25 C 153.33 168.65 152.65 158.71 153.12 149.62 C 153.60 140.54 155.15 126.92 156.00 119.75 C 156.85 112.58 157.42 110.42 158.25 106.62 C 159.08 102.83 159.42 101.23 161.00 97.00 C 162.58 92.77 166.46 84.42 167.75 81.25 C 169.04 78.08 168.56 78.96 168.75 78.00 C 168.94 77.04 169.02 76.56 168.88 75.50 C 168.73 74.44 168.44 72.92 167.88 71.62 C 167.31 70.33 166.50 69.02 165.50 67.75 C 164.50 66.48 163.38 65.31 161.88 64.00 C 160.38 62.69 159.35 61.71 156.50 59.88 C 153.65 58.04 148.12 54.81 144.75 53.00 C 141.38 51.19 138.73 50.00 136.25 49.00 C 133.77 48.00 132.04 47.31 129.88 47.00 C 127.71 46.69 124.98 46.77 123.25 47.12 Z" id="s-1-f-1"/>
<path d="M 123.25 47.12 C 121.52 47.48 120.38 48.48 119.50 49.12 C 118.62 49.77 118.44 50.00 118.00 51.00 C 117.56 52.00 117.04 53.77 116.88 55.12 C 116.71 56.48 116.65 56.52 117.00 59.12 C 117.35 61.73 118.40 68.23 119.00 70.75 C 119.60 73.27 120.00 72.38 120.62 74.25 C 121.25 76.12 121.88 77.62 122.75 82.00 C 123.62 86.38 125.04 87.25 125.88 100.50 C 126.71 113.75 127.44 143.98 127.75 161.50 C 128.06 179.02 127.92 190.27 127.75 205.62 C 127.58 220.98 126.92 241.54 126.75 253.62 C 126.58 265.71 127.10 265.04 126.75 278.12 C 126.40 291.21 125.46 316.08 124.62 332.12 C 123.79 348.17 122.85 363.21 121.75 374.38 C 120.65 385.54 119.00 389.77 118.00 399.12 C 117.00 408.48 115.79 425.19 115.75 430.50 C 115.71 435.81 113.33 430.92 117.75 431.00 C 122.17 431.08 137.75 431.06 142.25 431.00 C 146.75 430.94 143.85 431.60 144.75 430.62 C 145.65 429.65 146.62 427.71 147.62 425.12 C 148.62 422.54 150.04 418.25 150.75 415.12 C 151.46 412.00 151.73 411.75 151.88 406.38 C 152.02 401.00 152.10 392.81 151.62 382.88 C 151.15 372.94 149.46 367.88 149.00 346.75 C 148.54 325.62 148.73 273.19 148.88 256.12 C 149.02 239.06 149.38 256.52 149.88 244.38 C 150.38 232.23 151.33 194.94 151.88 183.25 C 152.42 171.56 152.92 179.85 153.12 174.25 C 153.33 168.65 152.65 158.71 153.12 149.62 C 153.60 140.54 155.15 126.92 156.00 119.75 C 156.85 112.58 157.42 110.42 158.25 106.62 C 159.08 102.83 159.42 101.23 161.00 97.00 C 162.58 92.77 166.46 84.42 167.75 81.25 C 169.04 78.08 168.56 78.96 168.75 78.00 C 168.94 77.04 169.02 76.56 168.88 75.50 C 168.73 74.44 168.44 72.92 167.88 71.62 C 167.31 70.33 166.50 69.02 165.50 67.75 C 164.50 66.48 163.38 65.31 161.88 64.00 C 160.38 62.69 159.35 61.71 156.50 59.88 C 153.65 58.04 148.12 54.81 144.75 53.00 C 141.38 51.19 138.73 50.00 136.25 49.00 C 133.77 48.00 132.04 47.31 129.88 47.00 C 127.71 46.69 124.98 46.77 123.25 47.12 Z" id="s-1-f-2"/>
<path d="M 123.62 47.00 C 122.12 47.19 121.67 47.50 120.75 48.12 C 119.83 48.75 118.75 49.83 118.12 50.75 C 117.50 51.67 117.21 52.88 117.00 53.62 C 116.79 54.38 116.88 54.33 116.88 55.25 C 116.88 56.17 116.67 56.62 117.00 59.12 C 117.33 61.62 118.23 67.60 118.88 70.25 C 119.52 72.90 120.23 73.04 120.88 75.00 C 121.52 76.96 121.94 77.98 122.75 82.00 C 123.56 86.02 124.92 85.88 125.75 99.12 C 126.58 112.38 127.44 141.23 127.75 161.50 C 128.06 181.77 127.79 205.40 127.62 220.75 C 127.46 236.10 126.90 244.06 126.75 253.62 C 126.60 263.19 127.23 262.77 126.75 278.12 C 126.27 293.48 124.56 331.31 123.88 345.75 C 123.19 360.19 123.15 358.62 122.62 364.75 C 122.10 370.88 119.52 379.46 120.75 382.50 C 121.98 385.54 124.96 382.94 130.00 383.00 C 135.04 383.06 147.42 383.00 151.00 382.88 C 154.58 382.75 151.83 388.27 151.50 382.25 C 151.17 376.23 149.44 367.77 149.00 346.75 C 148.56 325.73 148.73 273.19 148.88 256.12 C 149.02 239.06 149.38 256.52 149.88 244.38 C 150.38 232.23 151.33 194.94 151.88 183.25 C 152.42 171.56 152.92 179.85 153.12 174.25 C 153.33 168.65 152.65 158.71 153.12 149.62 C 153.60 140.54 155.15 126.92 156.00 119.75 C 156.85 112.58 157.21 110.98 158.25 106.62 C 159.29 102.27 160.67 97.85 162.25 93.62 C 163.83 89.40 166.67 83.85 167.75 81.25 C 168.83 78.65 168.56 78.96 168.75 78.00 C 168.94 77.04 169.02 76.56 168.88 75.50 C 168.73 74.44 168.44 72.92 167.88 71.62 C 167.31 70.33 166.67 69.17 165.50 67.75 C 164.33 66.33 162.60 64.58 160.88 63.12 C 159.15 61.67 157.81 60.69 155.12 59.00 C 152.44 57.31 147.90 54.67 144.75 53.00 C 141.60 51.33 138.75 50.00 136.25 49.00 C 133.75 48.00 131.85 47.33 129.75 47.00 C 127.65 46.67 125.12 46.81 123.62 47.00 Z" id="s-1-f-3"/>
<path d="M 123.62 47.00 C 122.12 47.19 121.67 47.50 120.75 48.12 C 119.83 48.75 118.75 49.83 118.12 50.75 C 117.50 51.67 117.21 52.48 117.00 53.62 C 116.79 54.77 116.56 54.85 116.88 57.62 C 117.19 60.40 118.21 67.35 118.88 70.25 C 119.54 73.15 120.23 73.04 120.88 75.00 C 121.52 76.96 121.94 77.98 122.75 82.00 C 123.56 86.02 124.92 85.88 125.75 99.12 C 126.58 112.38 127.44 141.23 127.75 161.50 C 128.06 181.77 127.79 205.40 127.62 220.75 C 127.46 236.10 126.90 244.06 126.75 253.62 C 126.60 263.19 127.15 264.71 126.75 278.12 C 126.35 291.54 124.69 324.67 124.38 334.12 C 124.06 343.58 120.88 334.73 124.88 334.88 C 128.88 335.02 144.38 335.67 148.38 335.00 C 152.38 334.33 148.79 344.02 148.88 330.88 C 148.96 317.73 148.71 270.54 148.88 256.12 C 149.04 241.71 149.38 256.52 149.88 244.38 C 150.38 232.23 151.33 194.94 151.88 183.25 C 152.42 171.56 152.94 179.17 153.12 174.25 C 153.31 169.33 152.85 159.79 153.00 153.75 C 153.15 147.71 153.50 143.67 154.00 138.00 C 154.50 132.33 155.29 124.98 156.00 119.75 C 156.71 114.52 157.21 110.98 158.25 106.62 C 159.29 102.27 160.67 97.85 162.25 93.62 C 163.83 89.40 166.67 83.85 167.75 81.25 C 168.83 78.65 168.56 78.96 168.75 78.00 C 168.94 77.04 169.02 76.56 168.88 75.50 C 168.73 74.44 168.44 72.92 167.88 71.62 C 167.31 70.33 166.67 69.17 165.50 67.75 C 164.33 66.33 162.60 64.58 160.88 63.12 C 159.15 61.67 157.81 60.69 155.12 59.00 C 152.44 57.31 147.90 54.67 144.75 53.00 C 141.60 51.33 138.75 50.00 136.25 49.00 C 133.75 48.00 131.85 47.33 129.75 47.00 C 127.65 46.67 125.12 46.81 123.62 47.00 Z" id="s-1-f-4"/>
<path d="M 123.62 47.00 C 122.12 47.19 121.67 47.50 120.75 48.12 C 119.83 48.75 118.75 49.83 118.12 50.75 C 117.50 51.67 117.21 52.48 117.00 53.62 C 116.79 54.77 116.56 54.85 116.88 57.62 C 117.19 60.40 118.21 67.35 118.88 70.25 C 119.54 73.15 120.23 73.04 120.88 75.00 C 121.52 76.96 121.92 77.75 122.75 82.00 C 123.58 86.25 125.04 87.25 125.88 100.50 C 126.71 113.75 127.46 141.46 127.75 161.50 C 128.04 181.54 127.79 205.40 127.62 220.75 C 127.46 236.10 126.90 244.06 126.75 253.62 C 126.60 263.19 126.83 272.67 126.75 278.12 C 126.67 283.58 126.23 284.92 126.25 286.38 C 126.27 287.83 126.50 286.77 126.88 286.88 C 127.25 286.98 125.08 287.00 128.50 287.00 C 131.92 287.00 144.02 286.94 147.38 286.88 C 150.73 286.81 148.38 286.83 148.62 286.62 C 148.88 286.42 148.83 290.71 148.88 285.62 C 148.92 280.54 148.71 263.00 148.88 256.12 C 149.04 249.25 149.38 256.52 149.88 244.38 C 150.38 232.23 151.33 194.94 151.88 183.25 C 152.42 171.56 152.94 179.17 153.12 174.25 C 153.31 169.33 152.85 159.79 153.00 153.75 C 153.15 147.71 153.50 143.67 154.00 138.00 C 154.50 132.33 155.29 124.98 156.00 119.75 C 156.71 114.52 157.21 110.98 158.25 106.62 C 159.29 102.27 160.67 97.85 162.25 93.62 C 163.83 89.40 166.65 84.00 167.75 81.25 C 168.85 78.50 168.71 78.31 168.88 77.12 C 169.04 75.94 169.10 75.42 168.75 74.12 C 168.40 72.83 167.54 70.73 166.75 69.38 C 165.96 68.02 165.31 67.31 164.00 66.00 C 162.69 64.69 160.62 62.83 158.88 61.50 C 157.12 60.17 155.85 59.42 153.50 58.00 C 151.15 56.58 147.62 54.50 144.75 53.00 C 141.88 51.50 138.75 50.00 136.25 49.00 C 133.75 48.00 131.85 47.33 129.75 47.00 C 127.65 46.67 125.12 46.81 123.62 47.00 Z" id="s-1-f-5"/>
<path d="M 123.75 47.00 C 122.25 47.19 121.69 47.50 120.75 48.12 C 119.81 48.75 118.75 49.83 118.12 50.75 C 117.50 51.67 117.21 52.50 117.00 53.62 C 116.79 54.75 116.56 54.73 116.88 57.50 C 117.19 60.27 118.21 67.33 118.88 70.25 C 119.54 73.17 120.23 73.04 120.88 75.00 C 121.52 76.96 121.92 77.79 122.75 82.00 C 123.58 86.21 125.04 87.00 125.88 100.25 C 126.71 113.50 127.46 141.42 127.75 161.50 C 128.04 181.58 127.75 207.94 127.62 220.75 C 127.50 233.56 127.02 235.35 127.00 238.38 C 126.98 241.40 127.17 238.77 127.50 238.88 C 127.83 238.98 125.31 239.00 129.00 239.00 C 132.69 239.00 146.12 238.96 149.62 238.88 C 153.12 238.79 149.62 247.77 150.00 238.50 C 150.38 229.23 151.35 193.96 151.88 183.25 C 152.40 172.54 152.92 179.85 153.12 174.25 C 153.33 168.65 152.65 158.71 153.12 149.62 C 153.60 140.54 155.15 126.92 156.00 119.75 C 156.85 112.58 157.58 109.92 158.25 106.62 C 158.92 103.33 159.19 102.52 160.00 100.00 C 160.81 97.48 161.83 94.62 163.12 91.50 C 164.42 88.38 166.79 83.65 167.75 81.25 C 168.71 78.85 168.71 78.31 168.88 77.12 C 169.04 75.94 169.10 75.42 168.75 74.12 C 168.40 72.83 167.58 70.77 166.75 69.38 C 165.92 67.98 165.06 67.06 163.75 65.75 C 162.44 64.44 160.58 62.79 158.88 61.50 C 157.17 60.21 155.85 59.42 153.50 58.00 C 151.15 56.58 147.62 54.50 144.75 53.00 C 141.88 51.50 138.75 50.00 136.25 49.00 C 133.75 48.00 131.83 47.33 129.75 47.00 C 127.67 46.67 125.25 46.81 123.75 47.00 Z" id="s-1-f-6"/>
<path d="M 123.75 47.00 C 122.25 47.19 121.69 47.50 120.75 48.12 C 119.81 48.75 118.75 49.83 118.12 50.75 C 117.50 51.67 117.21 52.50 117.00 53.62 C 116.79 54.75 116.56 54.73 116.88 57.50 C 117.19 60.27 118.21 67.33 118.88 70.25 C 119.54 73.17 120.23 73.04 120.88 75.00 C 121.52 76.96 121.92 77.79 122.75 82.00 C 123.58 86.21 125.04 87.00 125.88 100.25 C 126.71 113.50 127.48 147.12 127.75 161.50 C 128.02 175.88 127.46 181.69 127.50 186.50 C 127.54 191.31 126.75 189.65 128.00 190.38 C 129.25 191.10 131.12 190.79 135.00 190.88 C 138.88 190.96 148.23 193.65 151.25 190.88 C 154.27 188.10 152.81 181.12 153.12 174.25 C 153.44 167.38 152.98 155.67 153.12 149.62 C 153.27 143.58 153.35 144.10 154.00 138.00 C 154.65 131.90 156.29 118.23 157.00 113.00 C 157.71 107.77 157.58 109.29 158.25 106.62 C 158.92 103.96 159.75 100.40 161.00 97.00 C 162.25 93.60 164.46 89.42 165.75 86.25 C 167.04 83.08 168.25 80.02 168.75 78.00 C 169.25 75.98 169.08 75.56 168.75 74.12 C 168.42 72.69 167.58 70.77 166.75 69.38 C 165.92 67.98 165.06 67.06 163.75 65.75 C 162.44 64.44 160.58 62.79 158.88 61.50 C 157.17 60.21 155.85 59.42 153.50 58.00 C 151.15 56.58 147.62 54.50 144.75 53.00 C 141.88 51.50 138.75 50.00 136.25 49.00 C 133.75 48.00 131.83 47.33 129.75 47.00 C 127.67 46.67 125.25 46.81 123.75 47.00 Z" id="s-1-f-7"/>
<path d="M 123.75 47.00 C 122.25 47.19 121.69 47.50 120.75 48.12 C 119.81 48.75 118.75 49.83 118.12 50.75 C 117.50 51.67 117.21 52.50 117.00 53.62 C 116.79 54.75 116.56 54.73 116.88 57.50 C 117.19 60.27 118.21 67.33 118.88 70.25 C 119.54 73.17 120.23 73.04 120.88 75.00 C 121.52 76.96 121.94 77.98 122.75 82.00 C 123.56 86.02 125.02 89.08 125.75 99.12 C 126.48 109.17 126.81 134.96 127.12 142.25 C 127.44 149.54 127.25 142.75 127.62 142.88 C 128.00 143.00 125.12 143.00 129.38 143.00 C 133.62 143.00 149.06 142.98 153.12 142.88 C 157.19 142.77 153.27 146.23 153.75 142.38 C 154.23 138.52 155.25 125.71 156.00 119.75 C 156.75 113.79 157.21 110.98 158.25 106.62 C 159.29 102.27 160.67 97.85 162.25 93.62 C 163.83 89.40 166.65 84.00 167.75 81.25 C 168.85 78.50 168.73 78.40 168.88 77.12 C 169.02 75.85 168.98 74.92 168.62 73.62 C 168.27 72.33 167.56 70.69 166.75 69.38 C 165.94 68.06 165.06 67.06 163.75 65.75 C 162.44 64.44 160.58 62.79 158.88 61.50 C 157.17 60.21 155.85 59.42 153.50 58.00 C 151.15 56.58 147.62 54.50 144.75 53.00 C 141.88 51.50 138.75 50.00 136.25 49.00 C 133.75 48.00 131.83 47.33 129.75 47.00 C 127.67 46.67 125.25 46.81 123.75 47.00 Z" id="s-1-f-8"/>
<path d="M 119.88 48.88 C 118.94 49.50 118.60 49.96 118.12 50.75 C 117.65 51.54 117.19 52.23 117.00 53.62 C 116.81 55.02 116.69 56.35 117.00 59.12 C 117.31 61.90 118.06 67.02 118.88 70.25 C 119.69 73.48 120.85 74.44 121.88 78.50 C 122.90 82.56 124.06 91.88 125.00 94.62 C 125.94 97.38 121.40 94.96 127.50 95.00 C 133.60 95.04 155.25 96.33 161.62 94.88 C 168.00 93.42 164.54 89.21 165.75 86.25 C 166.96 83.29 168.38 79.15 168.88 77.12 C 169.38 75.10 168.92 75.04 168.75 74.12 C 168.58 73.21 168.48 72.77 167.88 71.62 C 167.27 70.48 166.42 68.77 165.12 67.25 C 163.83 65.73 161.79 63.88 160.12 62.50 C 158.46 61.12 157.69 60.58 155.12 59.00 C 152.56 57.42 147.90 54.67 144.75 53.00 C 141.60 51.33 138.94 50.02 136.25 49.00 C 133.56 47.98 130.71 47.21 128.62 46.88 C 126.54 46.54 125.21 46.67 123.75 47.00 C 122.29 47.33 120.81 48.25 119.88 48.88 Z" id="s-1-f-9"/>
</g>
<g id="s-2" clip-path="url(#c-s-2)">
<use href="#s-2-f-0"/>
<path d="M 163.00 229.38 C 162.88 227.00 164.08 228.02 162.12 229.12 C 160.17 230.23 153.48 234.73 151.25 236.00 C 149.02 237.27 152.02 234.69 148.75 236.75 C 145.48 238.81 134.65 246.40 131.62 248.38 C 128.60 250.35 131.21 248.27 130.62 248.62 C 130.04 248.98 128.58 250.06 128.12 250.50 C 127.67 250.94 127.98 251.21 127.88 251.25 C 127.77 251.29 127.69 250.65 127.50 250.75 C 127.31 250.85 131.77 248.71 126.75 251.88 C 121.73 255.04 107.75 263.60 97.38 269.75 C 87.00 275.90 74.35 283.25 64.50 288.75 C 54.65 294.25 44.42 299.75 38.25 302.75 C 32.08 305.75 30.25 305.88 27.50 306.75 C 24.75 307.62 23.00 307.62 21.75 308.00 C 20.50 308.38 20.48 308.60 20.00 309.00 C 19.52 309.40 19.02 309.67 18.88 310.38 C 18.73 311.08 18.77 312.19 19.12 313.25 C 19.48 314.31 19.40 314.65 21.00 316.75 C 22.60 318.85 26.27 323.56 28.75 325.88 C 31.23 328.19 33.71 329.33 35.88 330.62 C 38.04 331.92 39.77 332.79 41.75 333.62 C 43.73 334.46 45.98 335.25 47.75 335.62 C 49.52 336.00 51.12 336.00 52.38 335.88 C 53.62 335.75 46.50 342.25 55.25 334.88 C 64.00 327.50 93.85 301.06 104.88 291.62 C 115.90 282.19 116.79 281.81 121.38 278.25 C 125.96 274.69 130.04 272.06 132.38 270.25 C 134.71 268.44 132.92 269.40 135.38 267.38 C 137.83 265.35 144.46 260.38 147.12 258.12 C 149.79 255.88 149.04 255.85 151.38 253.88 C 153.71 251.90 159.27 247.77 161.12 246.25 C 162.98 244.73 162.21 245.23 162.50 244.75 C 162.79 244.27 162.79 245.94 162.88 243.38 C 162.96 240.81 163.12 231.75 163.00 229.38 Z" id="s-2-f-1"/>
<path d="M 114.88 259.62 C 114.73 255.69 120.46 255.69 114.12 259.38 C 107.79 263.06 88.85 274.85 76.88 281.75 C 64.90 288.65 49.50 296.92 42.25 300.75 C 35.00 304.58 35.83 303.75 33.38 304.75 C 30.92 305.75 29.44 306.21 27.50 306.75 C 25.56 307.29 23.00 307.62 21.75 308.00 C 20.50 308.38 20.48 308.60 20.00 309.00 C 19.52 309.40 19.02 309.67 18.88 310.38 C 18.73 311.08 18.77 312.19 19.12 313.25 C 19.48 314.31 19.40 314.65 21.00 316.75 C 22.60 318.85 26.27 323.56 28.75 325.88 C 31.23 328.19 33.71 329.33 35.88 330.62 C 38.04 331.92 39.77 332.79 41.75 333.62 C 43.73 334.46 45.96 335.25 47.75 335.62 C 49.54 336.00 51.25 336.00 52.50 335.88 C 53.75 335.75 48.90 340.23 55.25 334.88 C 61.60 329.52 80.75 312.23 90.62 303.75 C 100.50 295.27 110.44 287.46 114.50 284.00 C 118.56 280.54 114.94 287.06 115.00 283.00 C 115.06 278.94 115.02 263.56 114.88 259.62 Z" id="s-2-f-2"/>
<path d="M 66.75 287.88 C 66.50 281.85 67.08 287.06 65.50 287.88 C 63.92 288.69 61.79 290.27 57.25 292.75 C 52.71 295.23 42.69 300.58 38.25 302.75 C 33.81 304.92 33.27 304.90 30.62 305.75 C 27.98 306.60 24.15 307.33 22.38 307.88 C 20.60 308.42 20.58 308.58 20.00 309.00 C 19.42 309.42 19.02 309.67 18.88 310.38 C 18.73 311.08 18.94 312.46 19.12 313.25 C 19.31 314.04 19.10 313.77 20.00 315.12 C 20.90 316.48 23.04 319.58 24.50 321.38 C 25.96 323.17 26.85 324.33 28.75 325.88 C 30.65 327.42 33.67 329.31 35.88 330.62 C 38.08 331.94 40.02 332.92 42.00 333.75 C 43.98 334.58 46.02 335.27 47.75 335.62 C 49.48 335.98 51.08 336.02 52.38 335.88 C 53.67 335.73 53.58 336.15 55.50 334.75 C 57.42 333.35 61.96 329.29 63.88 327.50 C 65.79 325.71 66.52 330.60 67.00 324.00 C 67.48 317.40 67.00 293.90 66.75 287.88 Z" id="s-2-f-3"/>
</g>
<g id="s-3" clip-path="url(#c-s-3)">
<use href="#s-3-f-0"/>
<path d="M 407.75 71.12 C 406.27 68.19 401.42 68.69 399.12 68.00 C 396.83 67.31 395.98 67.17 394.00 67.00 C 392.02 66.83 391.75 66.04 387.25 67.00 C 382.75 67.96 374.33 70.96 367.00 72.75 C 359.67 74.54 358.40 75.08 343.25 77.75 C 328.10 80.42 291.15 86.42 276.12 88.75 C 261.10 91.08 262.40 90.69 253.12 91.75 C 243.85 92.81 226.46 94.40 220.50 95.12 C 214.54 95.85 218.15 95.73 217.38 96.12 C 216.60 96.52 216.12 97.12 215.88 97.50 C 215.62 97.88 215.69 97.83 215.88 98.38 C 216.06 98.92 216.25 99.79 217.00 100.75 C 217.75 101.71 219.46 103.29 220.38 104.12 C 221.29 104.96 221.48 105.17 222.50 105.75 C 223.52 106.33 224.06 106.98 226.50 107.62 C 228.94 108.27 233.35 109.25 237.12 109.62 C 240.90 110.00 244.06 110.02 249.12 109.88 C 254.19 109.73 260.92 109.40 267.50 108.75 C 274.08 108.10 284.65 106.46 288.62 106.00 C 292.60 105.54 278.19 107.71 291.38 106.00 C 304.56 104.29 350.29 98.29 367.75 95.75 C 385.21 93.21 389.52 92.10 396.12 90.75 C 402.73 89.40 405.40 88.48 407.38 87.62 C 409.35 86.77 407.94 88.38 408.00 85.62 C 408.06 82.88 409.23 74.06 407.75 71.12 Z" id="s-3-f-1"/>
<path d="M 359.88 74.88 C 359.73 71.46 362.85 73.73 359.12 74.38 C 355.40 75.02 342.71 77.81 337.50 78.75 C 332.29 79.69 338.10 78.33 327.88 80.00 C 317.65 81.67 288.58 86.79 276.12 88.75 C 263.67 90.71 262.40 90.69 253.12 91.75 C 243.85 92.81 226.46 94.40 220.50 95.12 C 214.54 95.85 218.15 95.73 217.38 96.12 C 216.60 96.52 216.12 97.12 215.88 97.50 C 215.62 97.88 215.69 97.83 215.88 98.38 C 216.06 98.92 216.25 99.79 217.00 100.75 C 217.75 101.71 219.46 103.29 220.38 104.12 C 221.29 104.96 221.48 105.17 222.50 105.75 C 223.52 106.33 224.06 106.98 226.50 107.62 C 228.94 108.27 233.35 109.25 237.12 109.62 C 240.90 110.00 245.77 109.88 249.12 109.88 C 252.48 109.88 252.67 109.98 257.25 109.62 C 261.83 109.27 259.71 109.88 276.62 107.75 C 293.54 105.62 344.90 98.79 358.75 96.88 C 372.60 94.96 359.54 96.58 359.75 96.25 C 359.96 95.92 359.98 98.44 360.00 94.88 C 360.02 91.31 360.02 78.29 359.88 74.88 Z" id="s-3-f-2"/>
<path d="M 312.00 83.50 C 311.65 80.23 312.50 82.75 309.75 83.12 C 307.00 83.50 303.60 84.48 295.50 85.75 C 287.40 87.02 273.62 89.19 261.12 90.75 C 248.62 92.31 227.79 94.23 220.50 95.12 C 213.21 96.02 218.15 95.73 217.38 96.12 C 216.60 96.52 216.12 97.12 215.88 97.50 C 215.62 97.88 215.69 97.83 215.88 98.38 C 216.06 98.92 215.90 99.52 217.00 100.75 C 218.10 101.98 220.85 104.58 222.50 105.75 C 224.15 106.92 224.21 107.08 226.88 107.75 C 229.54 108.42 233.77 109.42 238.50 109.75 C 243.23 110.08 250.42 109.92 255.25 109.75 C 260.08 109.58 258.65 109.75 267.50 108.75 C 276.35 107.75 300.98 104.75 308.38 103.75 C 315.77 102.75 311.27 106.12 311.88 102.75 C 312.48 99.38 312.35 86.77 312.00 83.50 Z" id="s-3-f-3"/>
<path d="M 264.00 108.12 C 264.15 105.10 264.00 93.85 263.88 90.88 C 263.75 87.90 265.04 90.10 263.25 90.25 C 261.46 90.40 260.25 90.94 253.12 91.75 C 246.00 92.56 226.46 94.40 220.50 95.12 C 214.54 95.85 218.15 95.73 217.38 96.12 C 216.60 96.52 216.10 97.00 215.88 97.50 C 215.65 98.00 215.75 98.52 216.00 99.12 C 216.25 99.73 216.35 100.06 217.38 101.12 C 218.40 102.19 220.60 104.42 222.12 105.50 C 223.65 106.58 225.06 107.08 226.50 107.62 C 227.94 108.17 228.77 108.40 230.75 108.75 C 232.73 109.10 235.29 109.56 238.38 109.75 C 241.46 109.94 245.15 110.00 249.25 109.88 C 253.35 109.75 260.54 109.29 263.00 109.00 C 265.46 108.71 263.85 111.15 264.00 108.12 Z" id="s-3-f-4"/>
</g>
<g id="s-4" clip-path="url(#c-s-4)">
<use href="#s-4-f-0"/>
<path d="M 211.50 157.00 C 209.52 157.33 209.33 158.42 208.75 159.00 C 208.17 159.58 208.15 159.90 208.00 160.50 C 207.85 161.10 207.83 162.08 207.88 162.62 C 207.92 163.17 207.58 162.96 208.25 163.75 C 208.92 164.54 210.79 166.02 211.88 167.38 C 212.96 168.73 213.77 170.15 214.75 171.88 C 215.73 173.60 216.92 175.75 217.75 177.75 C 218.58 179.75 219.21 181.46 219.75 183.88 C 220.29 186.29 220.50 189.81 221.00 192.25 C 221.50 194.69 222.12 195.27 222.75 198.50 C 223.38 201.73 223.79 202.65 224.75 211.62 C 225.71 220.60 227.56 245.48 228.50 252.38 C 229.44 259.27 226.75 252.92 230.38 253.00 C 234.00 253.08 246.88 253.44 250.25 252.88 C 253.62 252.31 250.85 253.40 250.62 249.62 C 250.40 245.85 249.17 234.44 248.88 230.25 C 248.58 226.06 249.38 230.58 248.88 224.50 C 248.38 218.42 246.38 201.35 245.88 193.75 C 245.38 186.15 246.71 183.56 245.88 178.88 C 245.04 174.19 241.96 168.23 240.88 165.62 C 239.79 163.02 240.17 164.02 239.38 163.25 C 238.58 162.48 237.54 161.71 236.12 161.00 C 234.71 160.29 233.46 159.67 230.88 159.00 C 228.29 158.33 223.85 157.33 220.62 157.00 C 217.40 156.67 213.48 156.67 211.50 157.00 Z" id="s-4-f-1"/>
<path d="M 209.50 158.12 C 208.92 158.71 208.25 159.67 208.00 160.50 C 207.75 161.33 207.35 161.98 208.00 163.12 C 208.65 164.27 210.75 165.92 211.88 167.38 C 213.00 168.83 213.75 170.06 214.75 171.88 C 215.75 173.69 217.04 176.25 217.88 178.25 C 218.71 180.25 219.23 181.54 219.75 183.88 C 220.27 186.21 220.33 188.81 221.00 192.25 C 221.67 195.69 223.21 202.38 223.75 204.50 C 224.29 206.62 220.42 204.96 224.25 205.00 C 228.08 205.04 243.02 205.73 246.75 204.75 C 250.48 203.77 246.77 200.96 246.62 199.12 C 246.48 197.29 246.00 197.12 245.88 193.75 C 245.75 190.38 246.90 183.90 245.88 178.88 C 244.85 173.85 241.38 166.60 239.75 163.62 C 238.12 160.65 238.21 161.94 236.12 161.00 C 234.04 160.06 229.83 158.67 227.25 158.00 C 224.67 157.33 223.02 157.19 220.62 157.00 C 218.23 156.81 214.40 156.88 212.88 156.88 C 211.35 156.88 212.06 156.79 211.50 157.00 C 210.94 157.21 210.08 157.54 209.50 158.12 Z" id="s-4-f-2"/>
</g>
<g id="s-5" clip-path="url(#c-s-5)">
<use href="#s-5-f-0"/>
<path d="M 436.88 160.38 C 436.69 159.50 436.71 159.23 435.62 158.00 C 434.54 156.77 433.12 155.00 430.38 153.00 C 427.62 151.00 423.06 148.19 419.12 146.00 C 415.19 143.81 410.21 141.38 406.75 139.88 C 403.29 138.38 400.50 137.50 398.38 137.00 C 396.25 136.50 395.35 136.81 394.00 136.88 C 392.65 136.94 392.19 136.90 390.25 137.38 C 388.31 137.85 386.69 138.69 382.38 139.75 C 378.06 140.81 373.19 141.92 364.38 143.75 C 355.56 145.58 335.96 149.54 329.50 150.75 C 323.04 151.96 333.79 149.67 325.62 151.00 C 317.46 152.33 294.29 156.69 280.50 158.75 C 266.71 160.81 249.65 162.50 242.88 163.38 C 236.10 164.25 240.44 163.71 239.88 164.00 C 239.31 164.29 239.25 164.33 239.50 165.12 C 239.75 165.92 241.02 167.83 241.38 168.75 C 241.73 169.67 241.46 170.17 241.62 170.62 C 241.79 171.08 241.88 170.19 242.38 171.50 C 242.88 172.81 244.10 177.10 244.62 178.50 C 245.15 179.90 244.06 179.83 245.50 179.88 C 246.94 179.92 250.65 179.42 253.25 178.75 C 255.85 178.08 253.52 177.33 261.12 175.88 C 268.73 174.42 290.69 171.17 298.88 170.00 C 307.06 168.83 304.42 169.67 310.25 168.88 C 316.08 168.08 323.92 166.52 333.88 165.25 C 343.83 163.98 362.42 161.96 370.00 161.25 C 377.58 160.54 377.04 160.85 379.38 161.00 C 381.71 161.15 382.79 161.60 384.00 162.12 C 385.21 162.65 386.00 163.33 386.62 164.12 C 387.25 164.92 387.58 164.92 387.75 166.88 C 387.92 168.83 387.79 172.46 387.62 175.88 C 387.46 179.29 387.21 182.94 386.75 187.38 C 386.29 191.81 385.81 197.17 384.88 202.50 C 383.94 207.83 382.17 213.56 381.12 219.38 C 380.08 225.19 379.52 232.04 378.62 237.38 C 377.73 242.71 376.50 248.27 375.75 251.38 C 375.00 254.48 374.10 255.12 374.12 256.00 C 374.15 256.88 370.94 256.48 375.88 256.62 C 380.81 256.77 398.96 256.94 403.75 256.88 C 408.54 256.81 401.98 263.90 404.62 256.25 C 407.27 248.60 415.94 222.38 419.62 211.00 C 423.31 199.62 425.15 193.54 426.75 188.00 C 428.35 182.46 428.54 180.12 429.25 177.75 C 429.96 175.38 429.92 175.67 431.00 173.75 C 432.08 171.83 434.79 168.00 435.75 166.25 C 436.71 164.50 436.56 164.23 436.75 163.25 C 436.94 162.27 437.06 161.25 436.88 160.38 Z" id="s-5-f-1"/>
<path d="M 436.88 160.38 C 436.69 159.50 436.71 159.23 435.62 158.00 C 434.54 156.77 433.12 155.00 430.38 153.00 C 427.62 151.00 423.06 148.19 419.12 146.00 C 415.19 143.81 410.21 141.38 406.75 139.88 C 403.29 138.38 400.50 137.50 398.38 137.00 C 396.25 136.50 395.35 136.81 394.00 136.88 C 392.65 136.94 392.19 136.90 390.25 137.38 C 388.31 137.85 386.69 138.69 382.38 139.75 C 378.06 140.81 373.19 141.92 364.38 143.75 C 355.56 145.58 335.96 149.54 329.50 150.75 C 323.04 151.96 333.79 149.67 325.62 151.00 C 317.46 152.33 294.75 156.60 280.50 158.75 C 266.25 160.90 246.96 162.81 240.12 163.88 C 233.29 164.94 239.29 164.31 239.50 165.12 C 239.71 165.94 241.02 167.83 241.38 168.75 C 241.73 169.67 241.46 170.17 241.62 170.62 C 241.79 171.08 241.88 170.19 242.38 171.50 C 242.88 172.81 244.10 177.10 244.62 178.50 C 245.15 179.90 244.06 179.83 245.50 179.88 C 246.94 179.92 250.65 179.42 253.25 178.75 C 255.85 178.08 253.52 177.33 261.12 175.88 C 268.73 174.42 291.92 171.00 298.88 170.00 C 305.83 169.00 297.04 170.67 302.88 169.88 C 308.71 169.08 324.15 166.56 333.88 165.25 C 343.60 163.94 354.35 162.71 361.25 162.00 C 368.15 161.29 371.94 161.12 375.25 161.00 C 378.56 160.88 379.42 160.92 381.12 161.25 C 382.83 161.58 384.54 162.46 385.50 163.00 C 386.46 163.54 386.50 163.85 386.88 164.50 C 387.25 165.15 387.75 163.25 387.75 166.88 C 387.75 170.50 387.54 179.29 386.88 186.25 C 386.21 193.21 383.85 204.83 383.75 208.62 C 383.65 212.42 380.27 208.94 386.25 209.00 C 392.23 209.06 413.88 209.27 419.62 209.00 C 425.38 208.73 419.90 209.79 420.75 207.38 C 421.60 204.96 423.33 199.44 424.75 194.50 C 426.17 189.56 428.21 181.21 429.25 177.75 C 430.29 174.29 429.92 175.67 431.00 173.75 C 432.08 171.83 434.79 168.00 435.75 166.25 C 436.71 164.50 436.56 164.23 436.75 163.25 C 436.94 162.27 437.06 161.25 436.88 160.38 Z" id="s-5-f-2"/>
<path d="M 436.75 159.62 C 436.73 158.81 434.67 156.90 433.38 155.62 C 432.08 154.35 430.52 153.12 429.00 152.00 C 427.48 150.88 426.83 150.38 424.25 148.88 C 421.67 147.38 417.23 144.81 413.50 143.00 C 409.77 141.19 404.40 139.00 401.88 138.00 C 399.35 137.00 399.69 137.19 398.38 137.00 C 397.06 136.81 395.35 136.81 394.00 136.88 C 392.65 136.94 392.19 136.90 390.25 137.38 C 388.31 137.85 387.35 138.54 382.38 139.75 C 377.40 140.96 369.19 142.79 360.38 144.62 C 351.56 146.46 335.29 149.69 329.50 150.75 C 323.71 151.81 330.27 150.29 325.62 151.00 C 320.98 151.71 307.83 153.90 301.62 155.00 C 295.42 156.10 294.25 156.67 288.38 157.62 C 282.50 158.58 273.96 159.79 266.38 160.75 C 258.79 161.71 247.27 162.83 242.88 163.38 C 238.48 163.92 240.56 163.73 240.00 164.00 C 239.44 164.27 239.27 164.21 239.50 165.00 C 239.73 165.79 241.02 167.81 241.38 168.75 C 241.73 169.69 241.46 170.17 241.62 170.62 C 241.79 171.08 241.88 170.19 242.38 171.50 C 242.88 172.81 244.10 177.10 244.62 178.50 C 245.15 179.90 244.06 179.83 245.50 179.88 C 246.94 179.92 250.75 179.40 253.25 178.75 C 255.75 178.10 256.50 176.85 260.50 176.00 C 264.50 175.15 270.85 174.62 277.25 173.62 C 283.65 172.62 294.60 170.62 298.88 170.00 C 303.15 169.38 296.94 170.69 302.88 169.88 C 308.81 169.06 325.06 166.42 334.50 165.12 C 343.94 163.83 352.88 162.81 359.50 162.12 C 366.12 161.44 361.92 161.27 374.25 161.00 C 386.58 160.73 423.08 160.73 433.50 160.50 C 443.92 160.27 436.77 160.44 436.75 159.62 Z" id="s-5-f-3"/>
<path d="M 431.75 154.25 C 431.25 152.88 430.25 152.90 429.00 152.00 C 427.75 151.10 426.83 150.38 424.25 148.88 C 421.67 147.38 417.23 144.81 413.50 143.00 C 409.77 141.19 404.40 139.00 401.88 138.00 C 399.35 137.00 399.69 137.19 398.38 137.00 C 397.06 136.81 395.35 136.81 394.00 136.88 C 392.65 136.94 392.19 136.90 390.25 137.38 C 388.31 137.85 387.35 138.54 382.38 139.75 C 377.40 140.96 369.19 142.79 360.38 144.62 C 351.56 146.46 335.29 149.69 329.50 150.75 C 323.71 151.81 330.27 150.29 325.62 151.00 C 320.98 151.71 307.83 153.90 301.62 155.00 C 295.42 156.10 294.25 156.67 288.38 157.62 C 282.50 158.58 273.96 159.79 266.38 160.75 C 258.79 161.71 247.27 162.83 242.88 163.38 C 238.48 163.92 240.56 163.73 240.00 164.00 C 239.44 164.27 239.27 164.21 239.50 165.00 C 239.73 165.79 241.02 167.81 241.38 168.75 C 241.73 169.69 241.46 170.17 241.62 170.62 C 241.79 171.08 241.88 170.19 242.38 171.50 C 242.88 172.81 244.10 177.10 244.62 178.50 C 245.15 179.90 244.06 179.83 245.50 179.88 C 246.94 179.92 250.75 179.40 253.25 178.75 C 255.75 178.10 256.50 176.85 260.50 176.00 C 264.50 175.15 270.85 174.62 277.25 173.62 C 283.65 172.62 294.60 170.62 298.88 170.00 C 303.15 169.38 296.94 170.69 302.88 169.88 C 308.81 169.06 325.06 166.42 334.50 165.12 C 343.94 163.83 352.88 162.81 359.50 162.12 C 366.12 161.44 362.25 161.21 374.25 161.00 C 386.25 160.79 421.88 161.00 431.50 160.88 C 441.12 160.75 431.96 161.35 432.00 160.25 C 432.04 159.15 432.25 155.62 431.75 154.25 Z" id="s-5-f-4"/>
<path d="M 383.88 139.88 C 383.75 136.50 387.17 138.46 383.25 139.25 C 379.33 140.04 369.31 142.71 360.38 144.62 C 351.44 146.54 335.42 149.69 329.62 150.75 C 323.83 151.81 333.81 149.67 325.62 151.00 C 317.44 152.33 291.71 156.96 280.50 158.75 C 269.29 160.54 264.42 161.02 258.38 161.75 C 252.33 162.48 247.27 162.77 244.25 163.12 C 241.23 163.48 241.04 163.56 240.25 163.88 C 239.46 164.19 239.31 164.19 239.50 165.00 C 239.69 165.81 241.02 167.81 241.38 168.75 C 241.73 169.69 241.46 170.17 241.62 170.62 C 241.79 171.08 241.88 170.19 242.38 171.50 C 242.88 172.81 244.10 177.10 244.62 178.50 C 245.15 179.90 244.06 179.83 245.50 179.88 C 246.94 179.92 250.65 179.42 253.25 178.75 C 255.85 178.08 253.52 177.33 261.12 175.88 C 268.73 174.42 291.92 171.00 298.88 170.00 C 305.83 169.00 296.94 170.69 302.88 169.88 C 308.81 169.06 323.21 166.58 334.50 165.12 C 345.79 163.67 362.48 161.81 370.62 161.12 C 378.77 160.44 381.17 161.06 383.38 161.00 C 385.58 160.94 383.77 161.00 383.88 160.75 C 383.98 160.50 384.00 162.98 384.00 159.50 C 384.00 156.02 384.00 143.25 383.88 139.88 Z" id="s-5-f-5"/>
<path d="M 335.88 150.00 C 335.75 147.44 344.23 148.04 335.00 149.50 C 325.77 150.96 295.85 156.44 280.50 158.75 C 265.15 161.06 249.62 162.50 242.88 163.38 C 236.12 164.25 240.56 163.73 240.00 164.00 C 239.44 164.27 239.44 164.65 239.50 165.00 C 239.56 165.35 240.19 165.65 240.38 166.12 C 240.56 166.60 240.46 167.44 240.62 167.88 C 240.79 168.31 241.21 168.29 241.38 168.75 C 241.54 169.21 241.46 170.17 241.62 170.62 C 241.79 171.08 241.77 170.00 242.38 171.50 C 242.98 173.00 244.04 178.27 245.25 179.62 C 246.46 180.98 247.75 179.94 249.62 179.62 C 251.50 179.31 254.58 178.38 256.50 177.75 C 258.42 177.12 254.08 177.17 261.12 175.88 C 268.17 174.58 291.79 171.00 298.75 170.00 C 305.71 169.00 296.71 170.73 302.88 169.88 C 309.04 169.02 330.25 168.19 335.75 164.88 C 341.25 161.56 336.00 152.56 335.88 150.00 Z" id="s-5-f-6"/>
<path d="M 288.00 158.88 C 288.02 156.58 287.90 158.19 287.75 158.00 C 287.60 157.81 290.69 157.29 287.12 157.75 C 283.56 158.21 273.52 159.85 266.38 160.75 C 259.23 161.65 248.65 162.58 244.25 163.12 C 239.85 163.67 240.79 163.69 240.00 164.00 C 239.21 164.31 239.44 164.65 239.50 165.00 C 239.56 165.35 240.19 165.65 240.38 166.12 C 240.56 166.60 240.46 167.44 240.62 167.88 C 240.79 168.31 241.21 168.29 241.38 168.75 C 241.54 169.21 241.46 170.17 241.62 170.62 C 241.79 171.08 241.77 170.00 242.38 171.50 C 242.98 173.00 244.04 178.27 245.25 179.62 C 246.46 180.98 247.77 179.94 249.62 179.62 C 251.48 179.31 254.56 178.35 256.38 177.75 C 258.19 177.15 255.29 177.00 260.50 176.00 C 265.71 175.00 283.04 174.60 287.62 171.75 C 292.21 168.90 287.98 161.17 288.00 158.88 Z" id="s-5-f-7"/>
</g>
<g id="s-6" clip-path="url(#c-s-6)">
<use href="#s-6-f-0"/>
<path d="M 344.00 200.75 C 343.85 197.50 345.42 199.62 343.00 200.12 C 340.58 200.62 332.40 203.10 329.50 203.75 C 326.60 204.40 330.27 203.29 325.62 204.00 C 320.98 204.71 307.94 206.88 301.62 208.00 C 295.31 209.12 292.44 209.96 287.75 210.75 C 283.06 211.54 279.83 212.02 273.50 212.75 C 267.17 213.48 254.08 214.54 249.75 215.12 C 245.42 215.71 247.85 215.04 247.50 216.25 C 247.15 217.46 247.46 220.31 247.62 222.38 C 247.79 224.44 248.00 227.40 248.50 228.62 C 249.00 229.85 249.56 229.42 250.62 229.75 C 251.69 230.08 251.75 230.46 254.88 230.62 C 258.00 230.79 264.38 231.06 269.38 230.75 C 274.38 230.44 280.77 229.38 284.88 228.75 C 288.98 228.12 291.17 227.31 294.00 227.00 C 296.83 226.69 300.04 227.02 301.88 226.88 C 303.71 226.73 301.35 226.62 305.00 226.12 C 308.65 225.62 317.62 224.79 323.75 223.88 C 329.88 222.96 338.40 221.33 341.75 220.62 C 345.10 219.92 343.50 222.94 343.88 219.62 C 344.25 216.31 344.15 204.00 344.00 200.75 Z" id="s-6-f-1"/>
<path d="M 295.75 209.88 C 295.56 207.04 298.60 208.90 294.88 209.38 C 291.15 209.85 280.90 211.79 273.38 212.75 C 265.85 213.71 254.06 214.54 249.75 215.12 C 245.44 215.71 247.85 215.04 247.50 216.25 C 247.15 217.46 247.46 220.31 247.62 222.38 C 247.79 224.44 248.00 227.40 248.50 228.62 C 249.00 229.85 249.38 229.40 250.62 229.75 C 251.88 230.10 252.88 230.58 256.00 230.75 C 259.12 230.92 264.52 231.08 269.38 230.75 C 274.23 230.42 280.77 229.40 285.12 228.75 C 289.48 228.10 293.69 227.27 295.50 226.88 C 297.31 226.48 295.96 229.21 296.00 226.38 C 296.04 223.54 295.94 212.71 295.75 209.88 Z" id="s-6-f-2"/>
</g>
<g id="s-7" clip-path="url(#c-s-7)">
<use href="#s-7-f-0"/>
<path d="M 346.88 258.75 C 346.67 256.21 349.10 257.75 345.75 258.25 C 342.40 258.75 330.56 261.15 326.75 261.75 C 322.94 262.35 327.94 261.19 322.88 261.88 C 317.81 262.56 308.25 264.52 296.38 265.88 C 284.50 267.23 259.23 268.44 251.62 270.00 C 244.02 271.56 250.94 272.77 250.75 275.25 C 250.56 277.73 250.67 283.12 250.50 284.88 C 250.33 286.62 249.83 285.67 249.75 285.75 C 249.67 285.83 249.90 285.29 250.00 285.38 C 250.10 285.46 250.27 286.29 250.38 286.25 C 250.48 286.21 250.50 285.33 250.62 285.12 C 250.75 284.92 250.44 284.73 251.12 285.00 C 251.81 285.27 253.31 286.29 254.75 286.75 C 256.19 287.21 256.98 287.58 259.75 287.75 C 262.52 287.92 265.71 288.21 271.38 287.75 C 277.04 287.29 289.17 285.48 293.75 285.00 C 298.33 284.52 293.62 285.40 298.88 284.88 C 304.12 284.35 319.67 282.40 325.25 281.88 C 330.83 281.35 328.85 282.04 332.38 281.75 C 335.90 281.46 343.94 281.50 346.38 280.12 C 348.81 278.75 346.92 277.06 347.00 273.50 C 347.08 269.94 347.08 261.29 346.88 258.75 Z" id="s-7-f-1"/>
<path d="M 298.88 265.88 C 298.71 262.94 305.73 264.81 297.88 265.50 C 290.02 266.19 259.60 268.38 251.75 270.00 C 243.90 271.62 250.96 272.77 250.75 275.25 C 250.54 277.73 250.67 283.12 250.50 284.88 C 250.33 286.62 249.83 285.67 249.75 285.75 C 249.67 285.83 249.90 285.29 250.00 285.38 C 250.10 285.46 250.27 286.29 250.38 286.25 C 250.48 286.21 250.50 285.33 250.62 285.12 C 250.75 284.92 250.50 284.75 251.12 285.00 C 251.75 285.25 253.17 286.21 254.38 286.62 C 255.58 287.04 256.02 287.29 258.38 287.50 C 260.73 287.71 261.90 288.33 268.50 287.88 C 275.10 287.42 292.98 285.33 298.00 284.75 C 303.02 284.17 298.48 284.65 298.62 284.38 C 298.77 284.10 298.83 286.21 298.88 283.12 C 298.92 280.04 299.04 268.81 298.88 265.88 Z" id="s-7-f-2"/>
</g>
<g id="s-8" clip-path="url(#c-s-8)">
<use href="#s-8-f-0"/>
<path d="M 320.12 101.75 C 318.56 101.02 317.42 101.52 316.25 101.62 C 315.08 101.73 314.56 102.19 313.12 102.38 C 311.69 102.56 308.92 102.56 307.62 102.75 C 306.33 102.94 307.75 103.19 305.38 103.50 C 303.00 103.81 295.90 104.29 293.38 104.62 C 290.85 104.96 290.83 105.25 290.25 105.50 C 289.67 105.75 289.92 105.46 289.88 106.12 C 289.83 106.79 289.81 108.19 290.00 109.50 C 290.19 110.81 290.38 111.88 291.00 114.00 C 291.62 116.12 292.81 118.75 293.75 122.25 C 294.69 125.75 295.79 129.69 296.62 135.00 C 297.46 140.31 298.42 149.12 298.75 154.12 C 299.08 159.12 298.46 162.25 298.62 165.00 C 298.79 167.75 299.58 166.21 299.75 170.62 C 299.92 175.04 299.83 185.04 299.62 191.50 C 299.42 197.96 298.67 201.17 298.50 209.38 C 298.33 217.58 298.90 231.42 298.62 240.75 C 298.35 250.08 297.35 260.69 296.88 265.38 C 296.40 270.06 295.98 267.00 295.75 268.88 C 295.52 270.75 295.69 274.94 295.50 276.62 C 295.31 278.31 294.75 276.77 294.62 279.00 C 294.50 281.23 294.90 286.31 294.75 290.00 C 294.60 293.69 294.42 296.77 293.75 301.12 C 293.08 305.48 291.79 311.79 290.75 316.12 C 289.71 320.46 288.83 323.46 287.50 327.12 C 286.17 330.79 283.85 335.79 282.75 338.12 C 281.65 340.46 282.54 337.79 280.88 341.12 C 279.21 344.46 274.83 354.21 272.75 358.12 C 270.67 362.04 270.35 361.96 268.38 364.62 C 266.40 367.29 264.52 370.06 260.88 374.12 C 257.23 378.19 248.90 386.42 246.50 389.00 C 244.10 391.58 241.10 389.46 246.50 389.62 C 251.90 389.79 273.29 390.04 278.88 390.00 C 284.46 389.96 279.17 390.15 280.00 389.38 C 280.83 388.60 281.73 387.96 283.88 385.38 C 286.02 382.79 289.54 378.71 292.88 373.88 C 296.21 369.04 301.21 360.98 303.88 356.38 C 306.54 351.77 307.42 349.48 308.88 346.25 C 310.33 343.02 311.31 340.58 312.62 337.00 C 313.94 333.42 315.60 328.52 316.75 324.75 C 317.90 320.98 317.96 322.46 319.50 314.38 C 321.04 306.29 324.92 285.27 326.00 276.25 C 327.08 267.23 325.73 265.62 326.00 260.25 C 326.27 254.88 327.31 250.17 327.62 244.00 C 327.94 237.83 327.67 227.38 327.88 223.25 C 328.08 219.12 328.67 220.58 328.88 219.25 C 329.08 217.92 329.10 229.52 329.12 215.25 C 329.15 200.98 328.85 148.25 329.00 133.62 C 329.15 119.00 329.40 129.92 330.00 127.50 C 330.60 125.08 332.17 121.33 332.62 119.12 C 333.08 116.92 333.12 115.67 332.75 114.25 C 332.38 112.83 331.56 112.00 330.38 110.62 C 329.19 109.25 327.33 107.48 325.62 106.00 C 323.92 104.52 321.69 102.48 320.12 101.75 Z" id="s-8-f-1"/>
<path d="M 320.12 101.75 C 317.92 100.42 317.42 101.52 316.25 101.62 C 315.08 101.73 314.56 102.19 313.12 102.38 C 311.69 102.56 308.92 102.56 307.62 102.75 C 306.33 102.94 307.75 103.19 305.38 103.50 C 303.00 103.81 295.90 104.29 293.38 104.62 C 290.85 104.96 290.83 105.25 290.25 105.50 C 289.67 105.75 289.90 105.33 289.88 106.12 C 289.85 106.92 289.48 107.56 290.12 110.25 C 290.77 112.94 292.67 118.10 293.75 122.25 C 294.83 126.40 295.79 129.81 296.62 135.12 C 297.46 140.44 298.42 149.15 298.75 154.12 C 299.08 159.10 298.44 162.17 298.62 165.00 C 298.81 167.83 299.73 166.31 299.88 171.12 C 300.02 175.94 299.73 187.50 299.50 193.88 C 299.27 200.25 298.62 202.15 298.50 209.38 C 298.38 216.60 298.88 229.38 298.75 237.25 C 298.62 245.12 298.06 251.94 297.75 256.62 C 297.44 261.31 297.23 263.19 296.88 265.38 C 296.52 267.56 295.85 267.88 295.62 269.75 C 295.40 271.62 295.67 275.08 295.50 276.62 C 295.33 278.17 294.75 276.77 294.62 279.00 C 294.50 281.23 294.90 286.31 294.75 290.00 C 294.60 293.69 294.42 296.77 293.75 301.12 C 293.08 305.48 291.58 312.38 290.75 316.12 C 289.92 319.88 289.60 320.98 288.75 323.62 C 287.90 326.27 286.92 329.10 285.62 332.00 C 284.33 334.90 281.73 339.35 281.00 341.00 C 280.27 342.65 276.73 341.71 281.25 341.88 C 285.77 342.04 303.21 342.06 308.12 342.00 C 313.04 341.94 309.31 344.38 310.75 341.50 C 312.19 338.62 315.25 329.44 316.75 324.75 C 318.25 320.06 318.52 319.83 319.75 313.38 C 320.98 306.92 323.19 291.33 324.12 286.00 C 325.06 280.67 325.04 283.38 325.38 281.38 C 325.71 279.38 326.02 277.52 326.12 274.00 C 326.23 270.48 325.75 265.29 326.00 260.25 C 326.25 255.21 327.31 249.92 327.62 243.75 C 327.94 237.58 327.67 227.33 327.88 223.25 C 328.08 219.17 328.67 220.58 328.88 219.25 C 329.08 217.92 329.10 229.52 329.12 215.25 C 329.15 200.98 328.85 148.25 329.00 133.62 C 329.15 119.00 329.40 129.92 330.00 127.50 C 330.60 125.08 332.15 121.21 332.62 119.12 C 333.10 117.04 333.02 116.12 332.88 115.00 C 332.73 113.88 332.31 113.27 331.75 112.38 C 331.19 111.48 331.44 111.40 329.50 109.62 C 327.56 107.85 322.33 103.08 320.12 101.75 Z" id="s-8-f-2"/>
<path d="M 320.12 101.75 C 317.92 100.42 317.42 101.52 316.25 101.62 C 315.08 101.73 314.56 102.19 313.12 102.38 C 311.69 102.56 308.92 102.56 307.62 102.75 C 306.33 102.94 307.75 103.19 305.38 103.50 C 303.00 103.81 295.90 104.29 293.38 104.62 C 290.85 104.96 290.83 105.25 290.25 105.50 C 289.67 105.75 289.90 105.33 289.88 106.12 C 289.85 106.92 289.48 107.56 290.12 110.25 C 290.77 112.94 292.67 118.10 293.75 122.25 C 294.83 126.40 295.79 129.81 296.62 135.12 C 297.46 140.44 298.42 149.15 298.75 154.12 C 299.08 159.10 298.44 162.17 298.62 165.00 C 298.81 167.83 299.71 166.92 299.88 171.12 C 300.04 175.33 299.85 183.88 299.62 190.25 C 299.40 196.62 298.67 201.12 298.50 209.38 C 298.33 217.62 298.90 230.42 298.62 239.75 C 298.35 249.08 297.35 260.58 296.88 265.38 C 296.40 270.17 295.98 266.62 295.75 268.50 C 295.52 270.38 295.69 274.88 295.50 276.62 C 295.31 278.38 294.79 276.23 294.62 279.00 C 294.46 281.77 294.44 290.77 294.50 293.25 C 294.56 295.73 290.31 293.77 295.00 293.88 C 299.69 293.98 317.56 295.96 322.62 293.88 C 327.69 291.79 324.79 284.69 325.38 281.38 C 325.96 278.06 326.02 277.52 326.12 274.00 C 326.23 270.48 325.75 265.27 326.00 260.25 C 326.25 255.23 327.31 250.04 327.62 243.88 C 327.94 237.71 327.67 227.35 327.88 223.25 C 328.08 219.15 328.67 220.58 328.88 219.25 C 329.08 217.92 329.10 229.52 329.12 215.25 C 329.15 200.98 328.85 148.25 329.00 133.62 C 329.15 119.00 329.40 129.92 330.00 127.50 C 330.60 125.08 332.15 121.21 332.62 119.12 C 333.10 117.04 333.02 116.12 332.88 115.00 C 332.73 113.88 332.31 113.27 331.75 112.38 C 331.19 111.48 331.44 111.40 329.50 109.62 C 327.56 107.85 322.33 103.08 320.12 101.75 Z" id="s-8-f-3"/>
<path d="M 320.12 101.75 C 317.92 100.42 317.42 101.52 316.25 101.62 C 315.08 101.73 314.56 102.19 313.12 102.38 C 311.69 102.56 308.92 102.56 307.62 102.75 C 306.33 102.94 307.75 103.19 305.38 103.50 C 303.00 103.81 295.90 104.29 293.38 104.62 C 290.85 104.96 290.83 105.25 290.25 105.50 C 289.67 105.75 289.90 105.33 289.88 106.12 C 289.85 106.92 289.48 107.56 290.12 110.25 C 290.77 112.94 292.69 118.19 293.75 122.25 C 294.81 126.31 295.67 129.31 296.50 134.62 C 297.33 139.94 298.40 149.06 298.75 154.12 C 299.10 159.19 298.46 162.25 298.62 165.00 C 298.79 167.75 299.58 166.42 299.75 170.62 C 299.92 174.83 299.83 183.79 299.62 190.25 C 299.42 196.71 298.62 202.73 298.50 209.38 C 298.38 216.02 298.92 224.17 298.88 230.12 C 298.83 236.08 298.27 242.50 298.25 245.12 C 298.23 247.75 294.29 245.73 298.75 245.88 C 303.21 246.02 320.27 246.04 325.00 246.00 C 329.73 245.96 326.71 245.77 327.12 245.62 C 327.54 245.48 327.38 248.85 327.50 245.12 C 327.62 241.40 327.62 227.81 327.88 223.25 C 328.12 218.69 328.77 220.25 329.00 217.75 C 329.23 215.25 329.25 222.27 329.25 208.25 C 329.25 194.23 328.88 147.08 329.00 133.62 C 329.12 120.17 329.40 129.92 330.00 127.50 C 330.60 125.08 332.15 121.21 332.62 119.12 C 333.10 117.04 333.02 116.12 332.88 115.00 C 332.73 113.88 332.31 113.27 331.75 112.38 C 331.19 111.48 331.44 111.40 329.50 109.62 C 327.56 107.85 322.33 103.08 320.12 101.75 Z" id="s-8-f-4"/>
<path d="M 320.12 101.75 C 317.85 100.35 317.42 101.52 316.25 101.62 C 315.08 101.73 314.56 102.19 313.12 102.38 C 311.69 102.56 308.92 102.56 307.62 102.75 C 306.33 102.94 307.75 103.19 305.38 103.50 C 303.00 103.81 295.90 104.29 293.38 104.62 C 290.85 104.96 290.83 105.25 290.25 105.50 C 289.67 105.75 289.92 105.46 289.88 106.12 C 289.83 106.79 289.81 108.19 290.00 109.50 C 290.19 110.81 290.38 111.88 291.00 114.00 C 291.62 116.12 292.94 119.38 293.75 122.25 C 294.56 125.12 295.19 127.62 295.88 131.25 C 296.56 134.88 297.40 140.19 297.88 144.00 C 298.35 147.81 298.62 150.62 298.75 154.12 C 298.88 157.62 298.46 162.25 298.62 165.00 C 298.79 167.75 299.65 165.33 299.75 170.62 C 299.85 175.92 299.25 192.21 299.25 196.75 C 299.25 201.29 294.90 197.67 299.75 197.88 C 304.60 198.08 323.54 198.04 328.38 198.00 C 333.21 197.96 328.67 202.92 328.75 197.62 C 328.83 192.33 328.79 171.60 328.88 166.25 C 328.96 160.90 329.23 170.94 329.25 165.50 C 329.27 160.06 328.88 139.96 329.00 133.62 C 329.12 127.29 329.40 129.92 330.00 127.50 C 330.60 125.08 332.15 121.21 332.62 119.12 C 333.10 117.04 333.02 116.12 332.88 115.00 C 332.73 113.88 332.25 113.21 331.75 112.38 C 331.25 111.54 331.81 111.77 329.88 110.00 C 327.94 108.23 322.40 103.15 320.12 101.75 Z" id="s-8-f-5"/>
<path d="M 320.50 101.88 C 319.73 101.71 317.40 101.54 316.25 101.62 C 315.10 101.71 315.06 102.19 313.62 102.38 C 312.19 102.56 309.00 102.56 307.62 102.75 C 306.25 102.94 307.75 103.19 305.38 103.50 C 303.00 103.81 295.90 104.29 293.38 104.62 C 290.85 104.96 290.83 105.27 290.25 105.50 C 289.67 105.73 289.92 105.33 289.88 106.00 C 289.83 106.67 289.81 108.17 290.00 109.50 C 290.19 110.83 290.38 111.88 291.00 114.00 C 291.62 116.12 292.94 119.38 293.75 122.25 C 294.56 125.12 295.21 127.81 295.88 131.25 C 296.54 134.69 297.38 139.90 297.75 142.88 C 298.12 145.85 297.94 147.96 298.12 149.12 C 298.31 150.29 294.38 149.73 298.88 149.88 C 303.38 150.02 320.17 150.04 325.12 150.00 C 330.08 149.96 327.94 152.81 328.62 149.62 C 329.31 146.44 328.85 135.23 329.25 130.88 C 329.65 126.52 330.44 125.46 331.00 123.50 C 331.56 121.54 332.33 120.67 332.62 119.12 C 332.92 117.58 333.21 115.77 332.75 114.25 C 332.29 112.73 331.06 111.38 329.88 110.00 C 328.69 108.62 327.12 107.23 325.62 106.00 C 324.12 104.77 321.73 103.31 320.88 102.62 C 320.02 101.94 321.27 102.04 320.50 101.88 Z" id="s-8-f-6"/>
</g>
<g id="s-9" clip-path="url(#c-s-9)">
<use href="#s-9-f-0"/>
<path d="M 204.00 313.62 C 203.73 314.38 203.42 315.25 204.12 316.25 C 204.83 317.25 206.35 318.56 208.25 319.62 C 210.15 320.69 212.79 321.71 215.50 322.62 C 218.21 323.54 221.40 324.06 224.50 325.12 C 227.60 326.19 230.77 327.38 234.12 329.00 C 237.48 330.62 241.46 332.88 244.62 334.88 C 247.79 336.88 249.56 338.04 253.12 341.00 C 256.69 343.96 262.79 349.85 266.00 352.62 C 269.21 355.40 271.10 356.50 272.38 357.62 C 273.65 358.75 270.69 356.65 273.62 359.38 C 276.56 362.10 286.81 371.27 290.00 374.00 C 293.19 376.73 287.98 371.56 292.75 375.75 C 297.52 379.94 310.71 392.12 318.62 399.12 C 326.54 406.12 332.90 411.81 340.25 417.75 C 347.60 423.69 356.40 430.25 362.75 434.75 C 369.10 439.25 374.54 442.62 378.38 444.75 C 382.21 446.88 383.50 446.83 385.75 447.50 C 388.00 448.17 389.35 448.38 391.88 448.75 C 394.40 449.12 395.40 449.60 400.88 449.75 C 406.35 449.90 419.10 449.79 424.75 449.62 C 430.40 449.46 431.60 449.15 434.75 448.75 C 437.90 448.35 442.08 447.85 443.62 447.25 C 445.17 446.65 443.96 449.54 444.00 445.12 C 444.04 440.71 443.98 424.92 443.88 420.75 C 443.77 416.58 447.29 421.31 443.38 420.12 C 439.46 418.94 429.90 416.54 420.38 413.62 C 410.85 410.71 395.00 405.62 386.25 402.62 C 377.50 399.62 373.25 397.96 367.88 395.62 C 362.50 393.29 358.75 391.25 354.00 388.62 C 349.25 386.00 345.40 383.71 339.38 379.88 C 333.35 376.04 323.33 369.31 317.88 365.62 C 312.42 361.94 309.08 359.60 306.62 357.75 C 304.17 355.90 305.00 355.92 303.12 354.50 C 301.25 353.08 298.77 351.71 295.38 349.25 C 291.98 346.79 285.12 341.42 282.75 339.75 C 280.38 338.08 285.48 342.50 281.12 339.25 C 276.77 336.00 261.79 324.12 256.62 320.25 C 251.46 316.38 252.19 317.21 250.12 316.00 C 248.06 314.79 246.08 313.83 244.25 313.00 C 242.42 312.17 241.15 311.62 239.12 311.00 C 237.10 310.38 234.83 309.60 232.12 309.25 C 229.42 308.90 225.65 308.90 222.88 308.88 C 220.10 308.85 217.73 308.92 215.50 309.12 C 213.27 309.33 211.12 309.69 209.50 310.12 C 207.88 310.56 206.67 311.17 205.75 311.75 C 204.83 312.33 204.27 312.88 204.00 313.62 Z" id="s-9-f-1"/>
<path d="M 204.50 312.88 C 203.96 313.44 203.94 313.81 203.88 314.38 C 203.81 314.94 203.40 315.38 204.12 316.25 C 204.85 317.12 206.77 318.71 208.25 319.62 C 209.73 320.54 210.23 320.81 213.00 321.75 C 215.77 322.69 221.35 324.04 224.88 325.25 C 228.40 326.46 230.83 327.40 234.12 329.00 C 237.42 330.60 241.46 332.88 244.62 334.88 C 247.79 336.88 238.04 327.90 253.12 341.00 C 268.21 354.10 318.96 399.42 335.12 413.50 C 351.29 427.58 345.52 421.96 350.12 425.50 C 354.73 429.04 358.04 431.54 362.75 434.75 C 367.46 437.96 374.35 442.58 378.38 444.75 C 382.40 446.92 384.02 447.04 386.88 447.75 C 389.73 448.46 393.98 450.98 395.50 449.00 C 397.02 447.02 395.92 442.58 396.00 435.88 C 396.08 429.17 396.08 413.77 396.00 408.75 C 395.92 403.73 398.00 407.08 395.50 405.75 C 393.00 404.42 386.31 402.75 381.00 400.75 C 375.69 398.75 368.35 395.90 363.62 393.75 C 358.90 391.60 356.48 390.06 352.62 387.88 C 348.77 385.69 348.17 385.65 340.50 380.62 C 332.83 375.60 312.85 362.10 306.62 357.75 C 300.40 353.40 307.10 357.50 303.12 354.50 C 299.15 351.50 286.56 342.40 282.75 339.75 C 278.94 337.10 284.90 342.08 280.25 338.62 C 275.60 335.17 260.88 323.27 254.88 319.00 C 248.88 314.73 247.35 314.48 244.25 313.00 C 241.15 311.52 238.96 310.81 236.25 310.12 C 233.54 309.44 231.15 309.06 228.00 308.88 C 224.85 308.69 220.35 308.81 217.38 309.00 C 214.40 309.19 211.83 309.67 210.12 310.00 C 208.42 310.33 208.06 310.52 207.12 311.00 C 206.19 311.48 205.04 312.31 204.50 312.88 Z" id="s-9-f-2"/>
<path d="M 204.50 312.88 C 204.00 313.42 203.94 313.81 203.88 314.38 C 203.81 314.94 203.40 315.38 204.12 316.25 C 204.85 317.12 206.77 318.71 208.25 319.62 C 209.73 320.54 210.29 320.83 213.00 321.75 C 215.71 322.67 220.98 323.92 224.50 325.12 C 228.02 326.33 230.77 327.38 234.12 329.00 C 237.48 330.62 241.77 333.10 244.62 334.88 C 247.48 336.65 247.54 336.54 251.25 339.62 C 254.96 342.71 263.35 350.38 266.88 353.38 C 270.40 356.38 271.25 356.62 272.38 357.62 C 273.50 358.62 270.69 356.65 273.62 359.38 C 276.56 362.10 286.73 371.21 290.00 374.00 C 293.27 376.79 285.65 369.46 293.25 376.12 C 300.85 382.79 326.65 406.15 335.62 414.00 C 344.60 421.85 345.10 421.73 347.12 423.25 C 349.15 424.77 347.62 429.48 347.75 423.12 C 347.88 416.77 351.15 393.56 347.88 385.12 C 344.60 376.69 335.00 377.06 328.12 372.50 C 321.25 367.94 310.79 360.75 306.62 357.75 C 302.46 354.75 305.00 355.92 303.12 354.50 C 301.25 353.08 298.29 351.38 295.38 349.25 C 292.46 347.12 288.15 343.52 285.62 341.75 C 283.10 339.98 285.08 342.21 280.25 338.62 C 275.42 335.04 261.92 324.17 256.62 320.25 C 251.33 316.33 251.42 316.67 248.50 315.12 C 245.58 313.58 242.12 312.02 239.12 311.00 C 236.12 309.98 234.44 309.31 230.50 309.00 C 226.56 308.69 219.00 308.94 215.50 309.12 C 212.00 309.31 210.94 309.79 209.50 310.12 C 208.06 310.46 207.71 310.67 206.88 311.12 C 206.04 311.58 205.00 312.33 204.50 312.88 Z" id="s-9-f-3"/>
<path d="M 204.50 312.88 C 204.00 313.42 203.94 313.81 203.88 314.38 C 203.81 314.94 203.40 315.38 204.12 316.25 C 204.85 317.12 206.35 318.56 208.25 319.62 C 210.15 320.69 212.77 321.71 215.50 322.62 C 218.23 323.54 221.52 324.06 224.62 325.12 C 227.73 326.19 231.31 327.69 234.12 329.00 C 236.94 330.31 239.00 331.50 241.50 333.00 C 244.00 334.50 243.98 333.90 249.12 338.00 C 254.27 342.10 268.29 354.06 272.38 357.62 C 276.46 361.19 270.69 356.65 273.62 359.38 C 276.56 362.10 286.73 371.21 290.00 374.00 C 293.27 376.79 291.71 374.83 293.25 376.12 C 294.79 377.42 298.15 380.85 299.25 381.75 C 300.35 382.65 299.75 386.38 299.88 381.50 C 300.00 376.62 302.85 359.46 300.00 352.50 C 297.15 345.54 285.90 341.96 282.75 339.75 C 279.60 337.54 285.48 342.50 281.12 339.25 C 276.77 336.00 261.52 323.96 256.62 320.25 C 251.73 316.54 253.81 318.21 251.75 317.00 C 249.69 315.79 246.83 314.15 244.25 313.00 C 241.67 311.85 238.38 310.77 236.25 310.12 C 234.12 309.48 234.96 309.29 231.50 309.12 C 228.04 308.96 219.17 308.96 215.50 309.12 C 211.83 309.29 210.94 309.79 209.50 310.12 C 208.06 310.46 207.71 310.67 206.88 311.12 C 206.04 311.58 205.00 312.33 204.50 312.88 Z" id="s-9-f-4"/>
<path d="M 204.00 313.62 C 203.73 314.38 203.42 315.25 204.12 316.25 C 204.83 317.25 206.35 318.56 208.25 319.62 C 210.15 320.69 212.77 321.71 215.50 322.62 C 218.23 323.54 221.52 324.06 224.62 325.12 C 227.73 326.19 230.79 327.38 234.12 329.00 C 237.46 330.62 241.75 333.08 244.62 334.88 C 247.50 336.67 250.17 338.96 251.38 339.75 C 252.58 340.54 251.79 343.35 251.88 339.62 C 251.96 335.90 252.17 321.31 251.88 317.38 C 251.58 313.44 252.25 317.06 250.12 316.00 C 248.00 314.94 242.23 312.15 239.12 311.00 C 236.02 309.85 235.12 309.46 231.50 309.12 C 227.88 308.79 220.94 308.85 217.38 309.00 C 213.81 309.15 212.06 309.54 210.12 310.00 C 208.19 310.46 206.77 311.15 205.75 311.75 C 204.73 312.35 204.27 312.88 204.00 313.62 Z" id="s-9-f-5"/>
</g>
</svg>