<?xml version="1.0" encoding="UTF-8"?>
<svg xmlns="http://www.w3.org/2000/svg" viewBox="0 0 500 500">
<defs>
<path d="M 364.88 40.25 C 364.73 39.06 364.19 38.10 363.75 37.25 C 363.31 36.40 362.90 35.85 362.25 35.12 C 361.60 34.40 360.96 33.71 359.88 32.88 C 358.79 32.04 358.92 31.60 355.75 30.12 C 352.58 28.65 344.52 25.33 340.88 24.00 C 337.23 22.67 335.81 22.48 333.88 22.12 C 331.94 21.77 331.56 21.73 329.25 21.88 C 326.94 22.02 326.67 21.52 320.00 23.00 C 313.33 24.48 296.56 29.00 289.25 30.75 C 281.94 32.50 281.46 32.52 276.12 33.50 C 270.79 34.48 265.73 35.44 257.25 36.62 C 248.77 37.81 234.38 39.58 225.25 40.62 C 216.12 41.67 210.67 42.19 202.50 42.88 C 194.33 43.56 185.10 44.23 176.25 44.75 C 167.40 45.27 154.17 45.67 149.38 46.00 C 144.58 46.33 147.92 46.40 147.50 46.75 C 147.08 47.10 146.69 47.46 146.88 48.12 C 147.06 48.79 146.98 49.31 148.62 50.75 C 150.27 52.19 154.62 55.44 156.75 56.75 C 158.88 58.06 160.17 58.27 161.38 58.62 C 162.58 58.98 158.79 58.98 164.00 58.88 C 169.21 58.77 183.71 58.65 192.62 58.00 C 201.54 57.35 207.44 55.90 217.50 55.00 C 227.56 54.10 240.90 53.62 253.00 52.62 C 265.10 51.62 281.48 49.75 290.12 49.00 C 298.77 48.25 299.98 48.25 304.88 48.12 C 309.77 48.00 316.67 48.02 319.50 48.25 C 322.33 48.48 321.33 48.98 321.88 49.50 C 322.42 50.02 322.62 50.33 322.75 51.38 C 322.88 52.42 322.96 53.23 322.62 55.75 C 322.29 58.27 321.71 62.69 320.75 66.50 C 319.79 70.31 317.88 75.19 316.88 78.62 C 315.88 82.06 316.19 83.31 314.75 87.12 C 313.31 90.94 309.71 98.08 308.25 101.50 C 306.79 104.92 305.35 106.42 306.00 107.62 C 306.65 108.83 308.42 108.35 312.12 108.75 C 315.83 109.15 325.31 110.08 328.25 110.00 C 331.19 109.92 327.94 112.52 329.75 108.25 C 331.56 103.98 336.60 90.25 339.12 84.38 C 341.65 78.50 343.52 75.85 344.88 73.00 C 346.23 70.15 346.06 69.40 347.25 67.25 C 348.44 65.10 349.44 63.27 352.00 60.12 C 354.56 56.98 360.52 51.00 362.62 48.38 C 364.73 45.75 364.25 45.73 364.62 44.38 C 365.00 43.02 365.02 41.44 364.88 40.25 Z" id="s-0-f-0"/>
<clipPath id="c-s-0"><use href="#s-0-f-0"/></clipPath>
<path d="M 437.88 79.00 C 437.71 78.06 437.35 77.27 436.75 76.38 C 436.15 75.48 435.48 74.71 434.25 73.62 C 433.02 72.54 430.96 70.96 429.38 69.88 C 427.79 68.79 428.04 68.58 424.75 67.12 C 421.46 65.67 413.06 62.15 409.62 61.12 C 406.19 60.10 412.50 60.04 404.12 61.00 C 395.75 61.96 368.58 65.77 359.38 66.88 C 350.17 67.98 352.33 67.50 348.88 67.62 C 345.42 67.75 341.21 67.48 338.62 67.62 C 336.04 67.77 335.85 68.31 333.38 68.50 C 330.90 68.69 325.83 68.54 323.75 68.75 C 321.67 68.96 323.44 69.40 320.88 69.75 C 318.31 70.10 314.67 70.50 308.38 70.88 C 302.08 71.25 296.06 71.17 283.12 72.00 C 270.19 72.83 244.40 74.73 230.75 75.88 C 217.10 77.02 210.98 77.73 201.25 78.88 C 191.52 80.02 182.12 81.58 172.38 82.75 C 162.62 83.92 151.62 85.04 142.75 85.88 C 133.88 86.71 129.04 87.23 119.12 87.75 C 109.21 88.27 89.85 88.65 83.25 89.00 C 76.65 89.35 80.48 89.50 79.50 89.88 C 78.52 90.25 77.96 90.69 77.38 91.25 C 76.79 91.81 76.23 92.56 76.00 93.25 C 75.77 93.94 75.44 94.46 76.00 95.38 C 76.56 96.29 76.10 96.52 79.38 98.75 C 82.65 100.98 91.75 106.60 95.62 108.75 C 99.50 110.90 100.54 111.12 102.62 111.62 C 104.71 112.12 106.19 111.92 108.12 111.75 C 110.06 111.58 110.38 111.58 114.25 110.62 C 118.12 109.67 123.54 107.60 131.38 106.00 C 139.21 104.40 150.71 102.50 161.25 101.00 C 171.79 99.50 188.31 97.69 194.62 97.00 C 200.94 96.31 193.65 97.56 199.12 96.88 C 204.60 96.19 217.42 93.90 227.50 92.88 C 237.58 91.85 251.29 91.40 259.62 90.75 C 267.96 90.10 268.83 89.62 277.50 89.00 C 286.17 88.38 304.19 87.31 311.62 87.00 C 319.06 86.69 319.60 87.25 322.12 87.12 C 324.65 87.00 324.56 86.44 326.75 86.25 C 328.94 86.06 333.15 86.23 335.25 86.00 C 337.35 85.77 327.12 85.02 339.38 84.88 C 351.62 84.73 395.46 84.83 408.75 85.12 C 422.04 85.42 415.33 86.35 419.12 86.62 C 422.92 86.90 428.88 86.92 431.50 86.75 C 434.12 86.58 434.04 86.04 434.88 85.62 C 435.71 85.21 436.02 84.85 436.50 84.25 C 436.98 83.65 437.52 82.88 437.75 82.00 C 437.98 81.12 438.04 79.94 437.88 79.00 Z" id="s-1-f-0"/>
<clipPath id="c-s-1"><use href="#s-1-f-0"/></clipPath>
<path d="M 341.88 118.50 C 341.62 117.79 341.02 117.12 340.25 116.38 C 339.48 115.62 339.23 115.17 337.25 114.00 C 335.27 112.83 332.62 110.44 328.38 109.38 C 324.12 108.31 315.46 107.92 311.75 107.62 C 308.04 107.33 315.19 106.44 306.12 107.62 C 297.06 108.81 272.04 112.73 257.38 114.75 C 242.71 116.77 225.33 118.90 218.12 119.75 C 210.92 120.60 218.73 119.19 214.12 119.88 C 209.52 120.56 203.42 122.19 190.50 123.88 C 177.58 125.56 146.48 128.77 136.62 130.00 C 126.77 131.23 132.31 130.71 131.38 131.25 C 130.44 131.79 130.58 132.40 131.00 133.25 C 131.42 134.10 133.08 135.65 133.88 136.38 C 134.67 137.10 133.62 136.56 135.75 137.62 C 137.88 138.69 143.56 141.56 146.62 142.75 C 149.69 143.94 151.77 144.42 154.12 144.75 C 156.48 145.08 157.21 145.21 160.75 144.75 C 164.29 144.29 170.35 142.81 175.38 142.00 C 180.40 141.19 184.29 141.00 190.88 139.88 C 197.46 138.75 208.12 136.40 214.88 135.25 C 221.62 134.10 219.50 134.19 231.38 133.00 C 243.25 131.81 269.35 129.33 286.12 128.12 C 302.90 126.92 323.50 126.33 332.00 125.75 C 340.50 125.17 335.83 125.06 337.12 124.62 C 338.42 124.19 338.98 123.79 339.75 123.12 C 340.52 122.46 341.40 121.40 341.75 120.62 C 342.10 119.85 342.12 119.21 341.88 118.50 Z" id="s-2-f-0"/>
<clipPath id="c-s-2"><use href="#s-2-f-0"/></clipPath>
<path d="M 233.75 66.62 C 232.33 65.10 230.62 63.58 228.12 61.75 C 225.62 59.92 220.40 56.83 218.75 55.62 C 217.10 54.42 219.60 54.67 218.25 54.50 C 216.90 54.33 212.10 54.48 210.62 54.62 C 209.15 54.77 210.88 55.21 209.38 55.38 C 207.88 55.54 203.12 55.46 201.62 55.62 C 200.12 55.79 201.85 56.21 200.38 56.38 C 198.90 56.54 194.27 56.46 192.75 56.62 C 191.23 56.79 191.56 57.02 191.25 57.38 C 190.94 57.73 190.75 57.35 190.88 58.75 C 191.00 60.15 191.52 63.88 192.00 65.75 C 192.48 67.62 193.12 67.81 193.75 70.00 C 194.38 72.19 195.42 74.19 195.75 78.88 C 196.08 83.56 195.92 93.54 195.75 98.12 C 195.58 102.71 195.25 103.29 194.75 106.38 C 194.25 109.46 193.46 113.56 192.75 116.62 C 192.04 119.69 191.04 123.29 190.50 124.75 C 189.96 126.21 189.81 125.02 189.50 125.38 C 189.19 125.73 188.96 126.04 188.62 126.88 C 188.29 127.71 187.83 129.65 187.50 130.38 C 187.17 131.10 187.31 129.83 186.62 131.25 C 185.94 132.67 184.04 137.48 183.38 138.88 C 182.71 140.27 182.77 139.19 182.62 139.62 C 182.48 140.06 182.98 140.19 182.50 141.50 C 182.02 142.81 181.35 144.35 179.75 147.50 C 178.15 150.65 175.21 156.42 172.88 160.38 C 170.54 164.33 167.98 168.27 165.75 171.25 C 163.52 174.23 162.90 174.85 159.50 178.25 C 156.10 181.65 149.40 188.02 145.38 191.62 C 141.35 195.23 138.60 197.35 135.38 199.88 C 132.15 202.40 129.54 204.44 126.00 206.75 C 122.46 209.06 118.35 211.42 114.12 213.75 C 109.90 216.08 109.25 216.60 100.62 220.75 C 92.00 224.90 69.90 235.25 62.38 238.62 C 54.85 242.00 57.04 240.35 55.50 241.00 C 53.96 241.65 53.50 242.08 53.12 242.50 C 52.75 242.92 52.85 243.27 53.25 243.50 C 53.65 243.73 53.75 243.83 55.50 243.88 C 57.25 243.92 59.62 244.10 63.75 243.75 C 67.88 243.40 74.50 242.94 80.25 241.75 C 86.00 240.56 92.31 238.62 98.25 236.62 C 104.19 234.62 110.33 232.23 115.88 229.75 C 121.42 227.27 126.79 224.42 131.50 221.75 C 136.21 219.08 138.98 217.25 144.12 213.75 C 149.27 210.25 156.90 205.21 162.38 200.75 C 167.85 196.29 170.92 193.65 177.00 187.00 C 183.08 180.35 194.27 167.02 198.88 160.88 C 203.48 154.73 203.08 153.29 204.62 150.12 C 206.17 146.96 206.98 144.33 208.12 141.88 C 209.27 139.42 210.98 136.54 211.50 135.38 C 212.02 134.21 211.17 135.00 211.25 134.88 C 211.33 134.75 211.81 134.94 212.00 134.62 C 212.19 134.31 212.19 133.42 212.38 133.00 C 212.56 132.58 212.65 133.40 213.12 132.12 C 213.60 130.85 214.75 126.71 215.25 125.38 C 215.75 124.04 215.79 125.15 216.12 124.12 C 216.46 123.10 216.33 121.62 217.25 119.25 C 218.17 116.88 220.21 113.27 221.62 109.88 C 223.04 106.48 224.98 101.29 225.75 98.88 C 226.52 96.46 225.96 96.46 226.25 95.38 C 226.54 94.29 227.33 92.94 227.50 92.38 C 227.67 91.81 227.12 92.17 227.25 92.00 C 227.38 91.83 227.94 91.73 228.25 91.38 C 228.56 91.02 228.96 90.31 229.12 89.88 C 229.29 89.44 228.75 89.81 229.25 88.75 C 229.75 87.69 231.42 85.00 232.12 83.50 C 232.83 82.00 233.17 80.46 233.50 79.75 C 233.83 79.04 233.98 79.60 234.12 79.25 C 234.27 78.90 233.94 78.46 234.38 77.62 C 234.81 76.79 236.38 75.38 236.75 74.25 C 237.12 73.12 237.12 72.15 236.62 70.88 C 236.12 69.60 235.17 68.15 233.75 66.62 Z" id="s-3-f-0"/>
<clipPath id="c-s-3"><use href="#s-3-f-0"/></clipPath>
<path d="M 189.12 170.62 C 187.98 171.88 185.48 175.67 183.25 178.38 C 181.02 181.08 177.02 185.29 175.75 186.88 C 174.48 188.46 175.46 187.46 175.62 187.88 C 175.79 188.29 176.06 187.94 176.75 189.38 C 177.44 190.81 178.25 191.50 179.75 196.50 C 181.25 201.50 184.54 214.42 185.75 219.38 C 186.96 224.33 186.46 224.25 187.00 226.25 C 187.54 228.25 187.88 229.25 189.00 231.38 C 190.12 233.50 192.58 237.35 193.75 239.00 C 194.92 240.65 195.21 240.62 196.00 241.25 C 196.79 241.88 197.62 242.50 198.50 242.75 C 199.38 243.00 200.35 243.17 201.25 242.75 C 202.15 242.33 203.10 241.52 203.88 240.25 C 204.65 238.98 205.19 238.42 205.88 235.12 C 206.56 231.83 208.19 228.44 208.00 220.50 C 207.81 212.56 205.62 193.65 204.75 187.50 C 203.88 181.35 205.19 186.40 202.75 183.62 C 200.31 180.85 192.40 173.04 190.12 170.88 C 187.85 168.71 190.27 169.38 189.12 170.62 Z" id="s-4-f-0"/>
<clipPath id="c-s-4"><use href="#s-4-f-0"/></clipPath>
<path d="M 371.88 175.38 C 372.15 174.56 372.10 173.92 371.75 172.75 C 371.40 171.58 371.29 170.40 369.75 168.38 C 368.21 166.35 365.90 163.54 362.50 160.62 C 359.10 157.71 352.62 153.15 349.38 150.88 C 346.12 148.60 344.81 147.98 343.00 147.00 C 341.19 146.02 340.00 145.31 338.50 145.00 C 337.00 144.69 335.52 144.83 334.00 145.12 C 332.48 145.42 333.23 145.98 329.38 146.75 C 325.52 147.52 323.27 148.21 310.88 149.75 C 298.48 151.29 271.19 154.00 255.00 156.00 C 238.81 158.00 223.56 160.65 213.75 161.75 C 203.94 162.85 199.38 162.02 196.12 162.62 C 192.88 163.23 195.33 164.10 194.25 165.38 C 193.17 166.65 190.35 169.21 189.62 170.25 C 188.90 171.29 187.75 169.31 189.88 171.62 C 192.00 173.94 199.69 182.12 202.38 184.12 C 205.06 186.12 204.85 183.96 206.00 183.62 C 207.15 183.29 205.60 183.06 209.25 182.12 C 212.90 181.19 221.92 179.21 227.88 178.00 C 233.83 176.79 237.69 176.04 245.00 174.88 C 252.31 173.71 260.83 171.98 271.75 171.00 C 282.67 170.02 302.79 169.33 310.50 169.00 C 318.21 168.67 315.88 168.83 318.00 169.00 C 320.12 169.17 321.98 169.65 323.25 170.00 C 324.52 170.35 324.85 170.56 325.62 171.12 C 326.40 171.69 327.35 172.62 327.88 173.38 C 328.40 174.12 328.60 174.94 328.75 175.62 C 328.90 176.31 329.94 174.15 328.75 177.50 C 327.56 180.85 323.58 191.40 321.62 195.75 C 319.67 200.10 317.40 202.12 317.00 203.62 C 316.60 205.12 315.77 203.85 319.25 204.75 C 322.73 205.65 334.46 208.31 337.88 209.00 C 341.29 209.69 339.27 209.04 339.75 208.88 C 340.23 208.71 338.94 210.38 340.75 208.00 C 342.56 205.62 348.00 197.94 350.62 194.62 C 353.25 191.31 354.56 190.04 356.50 188.12 C 358.44 186.21 359.98 184.88 362.25 183.12 C 364.52 181.38 368.52 178.92 370.12 177.62 C 371.73 176.33 371.60 176.19 371.88 175.38 Z" id="s-5-f-0"/>
<clipPath id="c-s-5"><use href="#s-5-f-0"/></clipPath>
<path d="M 349.88 218.88 C 349.77 218.04 349.27 217.08 348.88 216.38 C 348.48 215.67 348.25 215.38 347.50 214.62 C 346.75 213.88 345.73 212.88 344.38 211.88 C 343.02 210.88 341.38 209.50 339.38 208.62 C 337.38 207.75 334.79 207.17 332.38 206.62 C 329.96 206.08 326.33 205.71 324.88 205.38 C 323.42 205.04 324.33 204.79 323.62 204.62 C 322.92 204.46 321.35 204.54 320.62 204.38 C 319.90 204.21 319.81 203.75 319.25 203.62 C 318.69 203.50 328.96 201.75 317.25 203.62 C 305.54 205.50 267.19 212.33 249.00 214.88 C 230.81 217.42 215.06 218.10 208.12 218.88 C 201.19 219.65 207.60 218.98 207.38 219.50 C 207.15 220.02 207.06 219.52 206.75 222.00 C 206.44 224.48 205.65 232.23 205.50 234.38 C 205.35 236.52 202.83 234.83 205.88 234.88 C 208.92 234.92 216.65 235.12 223.75 234.62 C 230.85 234.12 236.52 233.04 248.50 231.88 C 260.48 230.71 283.40 228.96 295.62 227.62 C 307.85 226.29 313.25 224.69 321.88 223.88 C 330.50 223.06 342.77 223.17 347.38 222.75 C 351.98 222.33 349.08 222.02 349.50 221.38 C 349.92 220.73 349.98 219.71 349.88 218.88 Z" id="s-6-f-0"/>
<clipPath id="c-s-6"><use href="#s-6-f-0"/></clipPath>
<path d="M 190.00 249.75 C 189.77 250.19 188.42 249.23 190.00 251.50 C 191.58 253.77 196.02 258.56 199.50 263.38 C 202.98 268.19 208.02 276.46 210.88 280.38 C 213.73 284.29 215.10 285.33 216.62 286.88 C 218.15 288.42 219.04 289.12 220.00 289.62 C 220.96 290.12 221.44 290.02 222.38 289.88 C 223.31 289.73 224.54 289.42 225.62 288.75 C 226.71 288.08 228.00 286.79 228.88 285.88 C 229.75 284.96 230.27 284.33 230.88 283.25 C 231.48 282.17 231.85 281.52 232.50 279.38 C 233.15 277.23 234.38 272.88 234.75 270.38 C 235.12 267.88 234.92 265.69 234.75 264.38 C 234.58 263.06 234.46 263.35 233.75 262.50 C 233.04 261.65 231.90 260.33 230.50 259.25 C 229.10 258.17 227.50 257.04 225.38 256.00 C 223.25 254.96 222.79 254.17 217.75 253.00 C 212.71 251.83 199.52 249.69 195.12 249.00 C 190.73 248.31 192.23 248.75 191.38 248.88 C 190.52 249.00 190.23 249.31 190.00 249.75 Z" id="s-7-f-0"/>
<clipPath id="c-s-7"><use href="#s-7-f-0"/></clipPath>
<path d="M 329.62 252.62 C 329.04 251.60 327.60 249.54 326.38 248.25 C 325.15 246.96 323.73 245.92 322.25 244.88 C 320.77 243.83 319.65 243.12 317.50 242.00 C 315.35 240.88 312.12 239.27 309.38 238.12 C 306.62 236.98 303.46 235.62 301.00 235.12 C 298.54 234.62 296.04 234.92 294.62 235.12 C 293.21 235.33 293.10 235.81 292.50 236.38 C 291.90 236.94 291.46 236.81 291.00 238.50 C 290.54 240.19 290.62 243.75 289.75 246.50 C 288.88 249.25 287.79 251.69 285.75 255.00 C 283.71 258.31 280.75 262.33 277.50 266.38 C 274.25 270.42 268.17 276.81 266.25 279.25 C 264.33 281.69 265.83 280.56 266.00 281.00 C 266.17 281.44 266.67 281.75 267.25 281.88 C 267.83 282.00 266.88 282.48 269.50 281.75 C 272.12 281.02 274.48 281.27 283.00 277.50 C 291.52 273.73 312.96 262.79 320.62 259.12 C 328.29 255.46 327.46 256.29 329.00 255.50 C 330.54 254.71 329.77 254.85 329.88 254.38 C 329.98 253.90 330.21 253.65 329.62 252.62 Z" id="s-8-f-0"/>
<clipPath id="c-s-8"><use href="#s-8-f-0"/></clipPath>
<path d="M 367.88 292.75 C 367.71 292.08 367.33 290.98 366.88 290.25 C 366.42 289.52 366.19 289.25 365.12 288.38 C 364.06 287.50 362.56 286.06 360.50 285.00 C 358.44 283.94 355.25 282.81 352.75 282.00 C 350.25 281.19 348.02 280.46 345.50 280.12 C 342.98 279.79 343.00 279.23 337.62 280.00 C 332.25 280.77 323.62 283.12 313.25 284.75 C 302.88 286.38 291.69 287.92 275.38 289.75 C 259.06 291.58 236.90 293.85 215.38 295.75 C 193.85 297.65 158.52 299.98 146.25 301.12 C 133.98 302.27 142.58 302.29 141.75 302.62 C 140.92 302.96 141.38 302.71 141.25 303.12 C 141.12 303.54 140.69 304.31 141.00 305.12 C 141.31 305.94 142.10 306.94 143.12 308.00 C 144.15 309.06 145.58 310.58 147.12 311.50 C 148.67 312.42 149.81 312.96 152.38 313.50 C 154.94 314.04 156.58 314.56 162.50 314.75 C 168.42 314.94 172.40 315.44 187.88 314.62 C 203.35 313.81 239.92 311.15 255.38 309.88 C 270.83 308.60 271.38 307.85 280.62 307.00 C 289.88 306.15 302.52 305.46 310.88 304.75 C 319.23 304.04 324.77 303.44 330.75 302.75 C 336.73 302.06 341.75 301.48 346.75 300.62 C 351.75 299.77 357.31 298.58 360.75 297.62 C 364.19 296.67 366.19 295.44 367.38 294.88 C 368.56 294.31 367.79 294.60 367.88 294.25 C 367.96 293.90 368.04 293.42 367.88 292.75 Z" id="s-9-f-0"/>
<clipPath id="c-s-9"><use href="#s-9-f-0"/></clipPath>
<path d="M 353.88 336.12 C 353.73 335.44 353.60 334.29 352.88 333.25 C 352.15 332.21 350.56 330.75 349.50 329.88 C 348.44 329.00 348.88 328.98 346.50 328.00 C 344.12 327.02 338.02 324.83 335.25 324.00 C 332.48 323.17 331.77 323.17 329.88 323.00 C 327.98 322.83 325.96 322.71 323.88 323.00 C 321.79 323.29 320.62 324.12 317.38 324.75 C 314.12 325.38 309.25 326.10 304.38 326.75 C 299.50 327.40 293.92 328.10 288.12 328.62 C 282.33 329.15 278.75 328.85 269.62 329.88 C 260.50 330.90 245.60 333.44 233.38 334.75 C 221.15 336.06 206.96 337.02 196.25 337.75 C 185.54 338.48 175.54 338.56 169.12 339.12 C 162.71 339.69 160.08 340.60 157.75 341.12 C 155.42 341.65 155.58 341.73 155.12 342.25 C 154.67 342.77 154.58 343.29 155.00 344.25 C 155.42 345.21 156.73 346.96 157.62 348.00 C 158.52 349.04 159.04 349.75 160.38 350.50 C 161.71 351.25 163.08 351.96 165.62 352.50 C 168.17 353.04 170.17 353.54 175.62 353.75 C 181.08 353.96 186.83 354.21 198.38 353.75 C 209.92 353.29 232.90 351.98 244.88 351.00 C 256.85 350.02 263.65 348.42 270.25 347.88 C 276.85 347.33 276.60 348.29 284.50 347.75 C 292.40 347.21 309.38 345.48 317.62 344.62 C 325.88 343.77 329.38 343.29 334.00 342.62 C 338.62 341.96 342.35 341.29 345.38 340.62 C 348.40 339.96 350.73 339.17 352.12 338.62 C 353.52 338.08 353.46 337.79 353.75 337.38 C 354.04 336.96 354.02 336.81 353.88 336.12 Z" id="s-10-f-0"/>
<clipPath id="c-s-10"><use href="#s-10-f-0"/></clipPath>
<path d="M 445.88 378.88 C 445.75 377.79 445.21 376.31 444.75 375.38 C 444.29 374.44 444.19 374.31 443.12 373.25 C 442.06 372.19 440.00 370.21 438.38 369.00 C 436.75 367.79 435.25 367.00 433.38 366.00 C 431.50 365.00 431.50 364.65 427.12 363.00 C 422.75 361.35 411.12 357.31 407.12 356.12 C 403.12 354.94 405.67 355.71 403.12 355.88 C 400.58 356.04 398.83 356.15 391.88 357.12 C 384.92 358.10 373.00 360.31 361.38 361.75 C 349.75 363.19 333.50 364.73 322.12 365.75 C 310.75 366.77 300.10 367.50 293.12 367.88 C 286.15 368.25 285.06 367.83 280.25 368.00 C 275.44 368.17 270.58 368.40 264.25 368.88 C 257.92 369.35 251.94 370.17 242.25 370.88 C 232.56 371.58 219.17 371.98 206.12 373.12 C 193.08 374.27 175.08 376.65 164.00 377.75 C 152.92 378.85 147.48 379.23 139.62 379.75 C 131.77 380.27 127.44 380.50 116.88 380.88 C 106.31 381.25 83.67 381.50 76.25 382.00 C 68.83 382.50 73.25 383.23 72.38 383.88 C 71.50 384.52 71.25 385.17 71.00 385.88 C 70.75 386.58 70.69 387.46 70.88 388.12 C 71.06 388.79 71.27 389.10 72.12 389.88 C 72.98 390.65 72.52 390.94 76.00 392.75 C 79.48 394.56 88.12 398.77 93.00 400.75 C 97.88 402.73 102.06 403.94 105.25 404.62 C 108.44 405.31 104.02 405.98 112.12 404.88 C 120.23 403.77 143.31 399.65 153.88 398.00 C 164.44 396.35 167.48 395.98 175.50 395.00 C 183.52 394.02 191.35 393.00 202.00 392.12 C 212.65 391.25 232.67 390.27 239.38 389.75 C 246.08 389.23 226.50 389.62 242.25 389.00 C 258.00 388.38 312.50 386.50 333.88 386.00 C 355.25 385.50 358.48 385.83 370.50 386.00 C 382.52 386.17 398.46 386.71 406.00 387.00 C 413.54 387.29 411.48 387.62 415.75 387.75 C 420.02 387.88 427.88 387.94 431.62 387.75 C 435.38 387.56 436.38 387.12 438.25 386.62 C 440.12 386.12 441.67 385.54 442.88 384.75 C 444.08 383.96 445.00 382.85 445.50 381.88 C 446.00 380.90 446.00 379.96 445.88 378.88 Z" id="s-11-f-0"/>
<clipPath id="c-s-11"><use href="#s-11-f-0"/></clipPath>
<path d="M 263.62 308.50 C 258.90 307.96 247.17 309.38 242.88 309.75 C 238.58 310.12 238.69 310.06 237.88 310.75 C 237.06 311.44 237.52 311.44 238.00 313.88 C 238.48 316.31 240.12 322.23 240.75 325.38 C 241.38 328.52 241.60 329.62 241.75 332.75 C 241.90 335.88 241.44 341.00 241.62 344.12 C 241.81 347.25 242.73 344.10 242.88 351.50 C 243.02 358.90 242.44 371.46 242.50 388.50 C 242.56 405.54 243.00 441.50 243.25 453.75 C 243.50 466.00 243.52 459.44 244.00 462.00 C 244.48 464.56 245.38 467.08 246.12 469.12 C 246.88 471.17 247.62 472.96 248.50 474.25 C 249.38 475.54 250.71 476.46 251.38 476.88 C 252.04 477.29 252.10 476.94 252.50 476.75 C 252.90 476.56 253.04 476.79 253.75 475.75 C 254.46 474.71 255.75 472.88 256.75 470.50 C 257.75 468.12 258.88 464.50 259.75 461.50 C 260.62 458.50 261.17 455.23 262.00 452.50 C 262.83 449.77 263.96 447.71 264.75 445.12 C 265.54 442.54 266.08 440.90 266.75 437.00 C 267.42 433.10 268.40 429.88 268.75 421.75 C 269.10 413.62 268.65 394.92 268.88 388.25 C 269.10 381.58 269.96 388.42 270.12 381.75 C 270.29 375.08 269.71 354.29 269.88 348.25 C 270.04 342.21 270.88 346.69 271.12 345.50 C 271.38 344.31 271.21 342.12 271.38 341.12 C 271.54 340.12 271.96 340.50 272.12 339.50 C 272.29 338.50 272.21 336.12 272.38 335.12 C 272.54 334.12 273.00 334.38 273.12 333.50 C 273.25 332.62 273.00 330.90 273.12 329.88 C 273.25 328.85 273.08 328.52 273.88 327.38 C 274.67 326.23 277.23 324.08 277.88 323.00 C 278.52 321.92 277.92 321.56 277.75 320.88 C 277.58 320.19 277.40 319.69 276.88 318.88 C 276.35 318.06 275.56 316.98 274.62 316.00 C 273.69 315.02 273.08 314.25 271.25 313.00 C 269.42 311.75 268.35 309.04 263.62 308.50 Z" id="s-12-f-0"/>
<clipPath id="c-s-12"><use href="#s-12-f-0"/></clipPath>
</defs>
<g id="s-0" clip-path="url(#c-s-0)">
<use href="#s-0-f-0"/>
<path d="M 364.88 40.25 C 364.71 39.15 364.19 38.10 363.75 37.25 C 363.31 36.40 362.90 35.85 362.25 35.12 C 361.60 34.40 360.96 33.71 359.88 32.88 C 358.79 32.04 358.92 31.60 355.75 30.12 C 352.58 28.65 344.52 25.33 340.88 24.00 C 337.23 22.67 335.81 22.48 333.88 22.12 C 331.94 21.77 331.56 21.73 329.25 21.88 C 326.94 22.02 326.67 21.52 320.00 23.00 C 313.33 24.48 296.56 29.00 289.25 30.75 C 281.94 32.50 281.46 32.52 276.12 33.50 C 270.79 34.48 265.73 35.44 257.25 36.62 C 248.77 37.81 234.38 39.58 225.25 40.62 C 216.12 41.67 210.67 42.19 202.50 42.88 C 194.33 43.56 185.10 44.23 176.25 44.75 C 167.40 45.27 154.17 45.67 149.38 46.00 C 144.58 46.33 147.92 46.40 147.50 46.75 C 147.08 47.10 146.69 47.46 146.88 48.12 C 147.06 48.79 146.98 49.31 148.62 50.75 C 150.27 52.19 154.62 55.44 156.75 56.75 C 158.88 58.06 160.17 58.27 161.38 58.62 C 162.58 58.98 158.79 58.98 164.00 58.88 C 169.21 58.77 183.71 58.65 192.62 58.00 C 201.54 57.35 207.44 55.90 217.50 55.00 C 227.56 54.10 240.90 53.62 253.00 52.62 C 265.10 51.62 281.48 49.75 290.12 49.00 C 298.77 48.25 300.04 48.27 304.88 48.12 C 309.71 47.98 316.42 48.00 319.12 48.12 C 321.83 48.25 320.54 48.44 321.12 48.88 C 321.71 49.31 322.38 49.60 322.62 50.75 C 322.88 51.90 322.94 53.12 322.62 55.75 C 322.31 58.38 322.23 60.88 320.75 66.50 C 319.27 72.12 314.67 85.58 313.75 89.50 C 312.83 93.42 311.60 89.92 315.25 90.00 C 318.90 90.08 332.04 90.04 335.62 90.00 C 339.21 89.96 336.46 89.92 336.75 89.75 C 337.04 89.58 336.98 89.90 337.38 89.00 C 337.77 88.10 337.88 87.04 339.12 84.38 C 340.38 81.71 343.52 75.85 344.88 73.00 C 346.23 70.15 346.52 68.75 347.25 67.25 C 347.98 65.75 348.08 65.65 349.25 64.00 C 350.42 62.35 352.23 59.69 354.25 57.38 C 356.27 55.06 359.81 51.90 361.38 50.12 C 362.94 48.35 363.06 47.79 363.62 46.75 C 364.19 45.71 364.54 44.96 364.75 43.88 C 364.96 42.79 365.04 41.35 364.88 40.25 Z" id="s-0-f-1"/>
<path d="M 364.88 40.25 C 364.69 39.54 364.19 38.10 363.75 37.25 C 363.31 36.40 362.90 35.85 362.25 35.12 C 361.60 34.40 360.96 33.71 359.88 32.88 C 358.79 32.04 358.92 31.60 355.75 30.12 C 352.58 28.65 344.52 25.33 340.88 24.00 C 337.23 22.67 335.81 22.48 333.88 22.12 C 331.94 21.77 331.56 21.73 329.25 21.88 C 326.94 22.02 326.67 21.52 320.00 23.00 C 313.33 24.48 296.56 29.00 289.25 30.75 C 281.94 32.50 281.46 32.52 276.12 33.50 C 270.79 34.48 265.73 35.44 257.25 36.62 C 248.77 37.81 234.38 39.58 225.25 40.62 C 216.12 41.67 210.67 42.19 202.50 42.88 C 194.33 43.56 185.10 44.23 176.25 44.75 C 167.40 45.27 154.17 45.67 149.38 46.00 C 144.58 46.33 147.92 46.40 147.50 46.75 C 147.08 47.10 146.69 47.46 146.88 48.12 C 147.06 48.79 146.98 49.31 148.62 50.75 C 150.27 52.19 154.62 55.44 156.75 56.75 C 158.88 58.06 157.21 58.31 161.38 58.62 C 165.54 58.94 176.29 58.75 181.75 58.62 C 187.21 58.50 187.94 58.50 194.12 57.88 C 200.31 57.25 209.06 55.75 218.88 54.88 C 228.69 54.00 241.12 53.60 253.00 52.62 C 264.88 51.65 278.77 49.81 290.12 49.00 C 301.48 48.19 308.75 48.90 321.12 47.75 C 333.50 46.60 357.08 43.17 364.38 42.12 C 371.67 41.08 364.79 41.81 364.88 41.50 C 364.96 41.19 365.06 40.96 364.88 40.25 Z" id="s-0-f-2"/>
<path d="M 338.88 24.12 C 338.75 20.75 339.08 23.58 338.25 23.25 C 337.42 22.92 335.94 22.33 333.88 22.12 C 331.81 21.92 329.10 21.65 325.88 22.00 C 322.65 22.35 320.60 22.79 314.50 24.25 C 308.40 25.71 295.65 29.21 289.25 30.75 C 282.85 32.29 281.46 32.52 276.12 33.50 C 270.79 34.48 265.73 35.44 257.25 36.62 C 248.77 37.81 234.38 39.58 225.25 40.62 C 216.12 41.67 210.67 42.19 202.50 42.88 C 194.33 43.56 185.10 44.23 176.25 44.75 C 167.40 45.27 154.17 45.67 149.38 46.00 C 144.58 46.33 147.92 46.40 147.50 46.75 C 147.08 47.10 146.83 47.60 146.88 48.12 C 146.92 48.65 147.10 49.15 147.75 49.88 C 148.40 50.60 148.92 51.19 150.75 52.50 C 152.58 53.81 156.90 56.71 158.75 57.75 C 160.60 58.79 159.94 58.56 161.88 58.75 C 163.81 58.94 165.25 59.00 170.38 58.88 C 175.50 58.75 184.77 58.65 192.62 58.00 C 200.48 57.35 207.44 55.90 217.50 55.00 C 227.56 54.10 240.90 53.62 253.00 52.62 C 265.10 51.62 278.77 49.81 290.12 49.00 C 301.48 48.19 313.04 48.38 321.12 47.75 C 329.21 47.12 335.65 45.96 338.62 45.25 C 341.60 44.54 338.96 47.02 339.00 43.50 C 339.04 39.98 339.00 27.50 338.88 24.12 Z" id="s-0-f-3"/>
<path d="M 291.00 31.25 C 290.98 28.19 292.98 30.12 290.50 30.50 C 288.02 30.88 281.67 32.48 276.12 33.50 C 270.58 34.52 267.50 35.25 257.25 36.62 C 247.00 38.00 228.12 40.40 214.62 41.75 C 201.12 43.10 187.12 44.04 176.25 44.75 C 165.38 45.46 154.17 45.67 149.38 46.00 C 144.58 46.33 147.92 46.40 147.50 46.75 C 147.08 47.10 146.69 47.46 146.88 48.12 C 147.06 48.79 146.98 49.31 148.62 50.75 C 150.27 52.19 154.62 55.44 156.75 56.75 C 158.88 58.06 160.17 58.27 161.38 58.62 C 162.58 58.98 158.79 58.98 164.00 58.88 C 169.21 58.77 183.48 58.67 192.62 58.00 C 201.77 57.33 208.81 55.77 218.88 54.88 C 228.94 53.98 241.04 53.62 253.00 52.62 C 264.96 51.62 284.29 52.44 290.62 48.88 C 296.96 45.31 291.02 34.31 291.00 31.25 Z" id="s-0-f-4"/>
<path d="M 242.88 38.75 C 242.73 36.50 245.06 37.94 242.12 38.25 C 239.19 38.56 231.85 39.85 225.25 40.62 C 218.65 41.40 210.67 42.19 202.50 42.88 C 194.33 43.56 185.10 44.23 176.25 44.75 C 167.40 45.27 154.17 45.67 149.38 46.00 C 144.58 46.33 147.92 46.40 147.50 46.75 C 147.08 47.10 146.69 47.46 146.88 48.12 C 147.06 48.79 147.48 49.65 148.62 50.75 C 149.77 51.85 152.06 53.58 153.75 54.75 C 155.44 55.92 157.40 57.08 158.75 57.75 C 160.10 58.42 158.79 58.58 161.88 58.75 C 164.96 58.92 171.88 58.90 177.25 58.75 C 182.62 58.60 187.42 58.50 194.12 57.88 C 200.83 57.25 209.46 55.75 217.50 55.00 C 225.54 54.25 238.12 53.92 242.38 53.38 C 246.62 52.83 242.92 54.19 243.00 51.75 C 243.08 49.31 243.02 41.00 242.88 38.75 Z" id="s-0-f-5"/>
<path d="M 194.88 57.25 C 195.00 55.08 195.08 47.17 195.00 44.88 C 194.92 42.58 201.98 43.31 194.38 43.50 C 186.77 43.69 157.19 45.46 149.38 46.00 C 141.56 46.54 147.92 46.48 147.50 46.75 C 147.08 47.02 146.83 47.10 146.88 47.62 C 146.92 48.15 146.60 48.69 147.75 49.88 C 148.90 51.06 151.92 53.44 153.75 54.75 C 155.58 56.06 157.40 57.08 158.75 57.75 C 160.10 58.42 158.04 58.60 161.88 58.75 C 165.71 58.90 176.35 58.77 181.75 58.62 C 187.15 58.48 192.06 58.10 194.25 57.88 C 196.44 57.65 194.75 59.42 194.88 57.25 Z" id="s-0-f-6"/>
</g>
<g id="s-1" clip-path="url(#c-s-1)">
<use href="#s-1-f-0"/>
<path d="M 411.88 62.50 C 411.79 58.81 412.00 62.12 411.50 61.88 C 411.00 61.62 410.38 61.12 408.88 61.00 C 407.38 60.88 410.52 60.17 402.50 61.12 C 394.48 62.08 369.69 65.67 360.75 66.75 C 351.81 67.83 352.56 67.48 348.88 67.62 C 345.19 67.77 341.21 67.48 338.62 67.62 C 336.04 67.77 335.85 68.31 333.38 68.50 C 330.90 68.69 325.83 68.54 323.75 68.75 C 321.67 68.96 323.44 69.40 320.88 69.75 C 318.31 70.10 314.67 70.50 308.38 70.88 C 302.08 71.25 296.06 71.17 283.12 72.00 C 270.19 72.83 244.40 74.73 230.75 75.88 C 217.10 77.02 210.98 77.73 201.25 78.88 C 191.52 80.02 182.12 81.58 172.38 82.75 C 162.62 83.92 151.62 85.04 142.75 85.88 C 133.88 86.71 129.04 87.23 119.12 87.75 C 109.21 88.27 89.85 88.65 83.25 89.00 C 76.65 89.35 80.48 89.50 79.50 89.88 C 78.52 90.25 77.96 90.69 77.38 91.25 C 76.79 91.81 76.23 92.56 76.00 93.25 C 75.77 93.94 75.44 94.46 76.00 95.38 C 76.56 96.29 76.10 96.52 79.38 98.75 C 82.65 100.98 91.75 106.60 95.62 108.75 C 99.50 110.90 100.54 111.12 102.62 111.62 C 104.71 112.12 106.19 111.92 108.12 111.75 C 110.06 111.58 110.38 111.58 114.25 110.62 C 118.12 109.67 125.73 107.27 131.38 106.00 C 137.02 104.73 140.56 104.17 148.12 103.00 C 155.69 101.83 168.08 100.04 176.75 99.00 C 185.42 97.96 191.67 97.77 200.12 96.75 C 208.58 95.73 212.19 94.33 227.50 92.88 C 242.81 91.42 277.98 88.98 292.00 88.00 C 306.02 87.02 306.60 87.15 311.62 87.00 C 316.65 86.85 319.60 87.25 322.12 87.12 C 324.65 87.00 324.56 86.44 326.75 86.25 C 328.94 86.06 333.15 86.23 335.25 86.00 C 337.35 85.77 327.90 85.04 339.38 84.88 C 350.85 84.71 392.12 84.88 404.12 85.00 C 416.12 85.12 410.06 85.79 411.38 85.62 C 412.69 85.46 411.92 87.85 412.00 84.00 C 412.08 80.15 411.96 66.19 411.88 62.50 Z" id="s-1-f-1"/>
<path d="M 363.88 66.75 C 363.73 63.73 365.62 66.10 363.12 66.25 C 360.62 66.40 352.96 67.40 348.88 67.62 C 344.79 67.85 341.21 67.48 338.62 67.62 C 336.04 67.77 335.85 68.31 333.38 68.50 C 330.90 68.69 325.83 68.54 323.75 68.75 C 321.67 68.96 323.44 69.40 320.88 69.75 C 318.31 70.10 314.67 70.50 308.38 70.88 C 302.08 71.25 296.06 71.17 283.12 72.00 C 270.19 72.83 244.40 74.73 230.75 75.88 C 217.10 77.02 212.38 77.56 201.25 78.88 C 190.12 80.19 175.52 82.44 164.00 83.75 C 152.48 85.06 142.12 85.96 132.12 86.75 C 122.12 87.54 112.15 88.12 104.00 88.50 C 95.85 88.88 87.33 88.77 83.25 89.00 C 79.17 89.23 80.48 89.50 79.50 89.88 C 78.52 90.25 77.96 90.69 77.38 91.25 C 76.79 91.81 76.23 92.56 76.00 93.25 C 75.77 93.94 75.44 94.46 76.00 95.38 C 76.56 96.29 75.81 96.38 79.38 98.75 C 82.94 101.12 93.38 107.46 97.38 109.62 C 101.38 111.79 101.35 111.42 103.38 111.75 C 105.40 112.08 104.83 112.58 109.50 111.62 C 114.17 110.67 124.94 107.44 131.38 106.00 C 137.81 104.56 140.56 104.17 148.12 103.00 C 155.69 101.83 168.08 100.04 176.75 99.00 C 185.42 97.96 191.67 97.77 200.12 96.75 C 208.58 95.73 212.19 94.33 227.50 92.88 C 242.81 91.42 277.98 88.98 292.00 88.00 C 306.02 87.02 306.60 87.15 311.62 87.00 C 316.65 86.85 319.60 87.25 322.12 87.12 C 324.65 87.00 324.56 86.44 326.75 86.25 C 328.94 86.06 333.17 86.23 335.25 86.00 C 337.33 85.77 334.52 85.08 339.25 84.88 C 343.98 84.67 359.50 84.83 363.62 84.75 C 367.75 84.67 363.96 87.38 364.00 84.38 C 364.04 81.38 364.02 69.77 363.88 66.75 Z" id="s-1-f-2"/>
<path d="M 316.00 71.38 C 315.90 68.67 315.94 70.46 315.62 70.25 C 315.31 70.04 316.52 69.94 314.12 70.12 C 311.73 70.31 309.10 70.88 301.25 71.38 C 293.40 71.88 275.83 72.54 267.00 73.12 C 258.17 73.71 254.29 74.42 248.25 74.88 C 242.21 75.33 238.58 75.21 230.75 75.88 C 222.92 76.54 210.98 77.73 201.25 78.88 C 191.52 80.02 182.12 81.58 172.38 82.75 C 162.62 83.92 151.62 85.04 142.75 85.88 C 133.88 86.71 129.04 87.23 119.12 87.75 C 109.21 88.27 89.85 88.65 83.25 89.00 C 76.65 89.35 80.48 89.50 79.50 89.88 C 78.52 90.25 77.96 90.69 77.38 91.25 C 76.79 91.81 76.23 92.56 76.00 93.25 C 75.77 93.94 75.44 94.46 76.00 95.38 C 76.56 96.29 75.81 96.38 79.38 98.75 C 82.94 101.12 93.38 107.46 97.38 109.62 C 101.38 111.79 101.35 111.42 103.38 111.75 C 105.40 112.08 104.83 112.58 109.50 111.62 C 114.17 110.67 124.94 107.44 131.38 106.00 C 137.81 104.56 140.56 104.17 148.12 103.00 C 155.69 101.83 168.08 100.04 176.75 99.00 C 185.42 97.96 195.88 97.23 200.12 96.75 C 204.38 96.27 199.83 96.44 202.25 96.12 C 204.67 95.81 210.44 95.42 214.62 94.88 C 218.81 94.33 214.48 94.02 227.38 92.88 C 240.27 91.73 277.96 88.98 292.00 88.00 C 306.04 87.02 307.71 87.12 311.62 87.00 C 315.54 86.88 314.73 87.33 315.50 87.25 C 316.27 87.17 316.17 89.15 316.25 86.50 C 316.33 83.85 316.10 74.08 316.00 71.38 Z" id="s-1-f-3"/>
<path d="M 268.00 74.88 C 267.94 72.33 267.88 73.67 267.62 73.38 C 267.38 73.08 269.73 72.88 266.50 73.12 C 263.27 73.38 254.21 74.42 248.25 74.88 C 242.29 75.33 238.58 75.21 230.75 75.88 C 222.92 76.54 210.98 77.73 201.25 78.88 C 191.52 80.02 182.12 81.58 172.38 82.75 C 162.62 83.92 152.06 85.02 142.75 85.88 C 133.44 86.73 126.42 87.35 116.50 87.88 C 106.58 88.40 89.42 88.67 83.25 89.00 C 77.08 89.33 80.48 89.50 79.50 89.88 C 78.52 90.25 77.96 90.69 77.38 91.25 C 76.79 91.81 76.23 92.56 76.00 93.25 C 75.77 93.94 75.44 94.46 76.00 95.38 C 76.56 96.29 75.81 96.38 79.38 98.75 C 82.94 101.12 93.38 107.46 97.38 109.62 C 101.38 111.79 101.35 111.42 103.38 111.75 C 105.40 112.08 104.83 112.58 109.50 111.62 C 114.17 110.67 123.02 107.73 131.38 106.00 C 139.73 104.27 149.08 102.75 159.62 101.25 C 170.17 99.75 188.04 97.73 194.62 97.00 C 201.21 96.27 193.67 97.56 199.12 96.88 C 204.58 96.19 216.00 94.04 227.38 92.88 C 238.75 91.71 260.60 90.58 267.38 89.88 C 274.15 89.17 267.90 91.12 268.00 88.62 C 268.10 86.12 268.06 77.42 268.00 74.88 Z" id="s-1-f-4"/>
<path d="M 219.88 77.50 C 219.69 74.92 222.08 76.88 218.88 77.12 C 215.67 77.38 209.77 77.90 200.62 79.00 C 191.48 80.10 173.65 82.60 164.00 83.75 C 154.35 84.90 150.67 85.19 142.75 85.88 C 134.83 86.56 126.42 87.35 116.50 87.88 C 106.58 88.40 89.42 88.67 83.25 89.00 C 77.08 89.33 80.48 89.50 79.50 89.88 C 78.52 90.25 77.96 90.69 77.38 91.25 C 76.79 91.81 76.23 92.56 76.00 93.25 C 75.77 93.94 75.44 94.46 76.00 95.38 C 76.56 96.29 75.81 96.38 79.38 98.75 C 82.94 101.12 93.38 107.46 97.38 109.62 C 101.38 111.79 101.35 111.42 103.38 111.75 C 105.40 112.08 104.83 112.58 109.50 111.62 C 114.17 110.67 125.19 107.40 131.38 106.00 C 137.56 104.60 139.06 104.42 146.62 103.25 C 154.19 102.08 168.00 100.06 176.75 99.00 C 185.50 97.94 192.00 97.71 199.12 96.88 C 206.25 96.04 216.02 94.71 219.50 94.00 C 222.98 93.29 219.94 95.38 220.00 92.62 C 220.06 89.88 220.06 80.08 219.88 77.50 Z" id="s-1-f-5"/>
<path d="M 171.50 83.00 C 171.15 80.44 174.42 82.42 169.88 82.88 C 165.33 83.33 152.75 84.94 144.25 85.75 C 135.75 86.56 129.04 87.21 118.88 87.75 C 108.71 88.29 89.81 88.65 83.25 89.00 C 76.69 89.35 80.48 89.50 79.50 89.88 C 78.52 90.25 77.96 90.69 77.38 91.25 C 76.79 91.81 76.23 92.56 76.00 93.25 C 75.77 93.94 75.44 94.46 76.00 95.38 C 76.56 96.29 76.10 96.52 79.38 98.75 C 82.65 100.98 91.75 106.60 95.62 108.75 C 99.50 110.90 100.31 111.15 102.62 111.62 C 104.94 112.10 104.71 112.56 109.50 111.62 C 114.29 110.69 124.94 107.44 131.38 106.00 C 137.81 104.56 141.42 104.06 148.12 103.00 C 154.83 101.94 167.65 100.42 171.62 99.62 C 175.60 98.83 172.02 101.02 172.00 98.25 C 171.98 95.48 171.85 85.56 171.50 83.00 Z" id="s-1-f-6"/>
<path d="M 124.00 107.50 C 124.29 104.02 124.00 91.12 123.88 87.75 C 123.75 84.38 126.73 87.12 123.25 87.25 C 119.77 87.38 109.83 88.19 103.00 88.50 C 96.17 88.81 86.42 88.75 82.25 89.12 C 78.08 89.50 79.04 90.06 78.00 90.75 C 76.96 91.44 76.31 92.44 76.00 93.25 C 75.69 94.06 75.56 94.71 76.12 95.62 C 76.69 96.54 76.12 96.56 79.38 98.75 C 82.62 100.94 91.75 106.60 95.62 108.75 C 99.50 110.90 100.31 111.15 102.62 111.62 C 104.94 112.10 106.25 112.12 109.50 111.62 C 112.75 111.12 119.71 109.31 122.12 108.62 C 124.54 107.94 123.71 110.98 124.00 107.50 Z" id="s-1-f-7"/>
</g>
<g id="s-2" clip-path="url(#c-s-2)">
<use href="#s-2-f-0"/>
<path d="M 322.88 109.12 C 322.77 106.44 323.52 108.75 322.38 108.62 C 321.23 108.50 317.77 108.54 316.00 108.38 C 314.23 108.21 313.90 107.69 311.75 107.62 C 309.60 107.56 312.19 106.81 303.12 108.00 C 294.06 109.19 271.54 112.79 257.38 114.75 C 243.21 116.71 225.33 118.90 218.12 119.75 C 210.92 120.60 218.73 119.19 214.12 119.88 C 209.52 120.56 203.42 122.19 190.50 123.88 C 177.58 125.56 146.48 128.77 136.62 130.00 C 126.77 131.23 132.31 130.71 131.38 131.25 C 130.44 131.79 130.50 132.33 131.00 133.25 C 131.50 134.17 132.23 135.35 134.38 136.75 C 136.52 138.15 140.83 140.33 143.88 141.62 C 146.92 142.92 150.10 143.96 152.62 144.50 C 155.15 145.04 157.40 144.85 159.00 144.88 C 160.60 144.90 159.52 145.10 162.25 144.62 C 164.98 144.15 171.56 142.62 175.38 142.00 C 179.19 141.38 178.54 142.00 185.12 140.88 C 191.71 139.75 207.17 136.56 214.88 135.25 C 222.58 133.94 221.21 134.06 231.38 133.00 C 241.54 131.94 260.71 130.00 275.88 128.88 C 291.04 127.75 314.52 126.94 322.38 126.25 C 330.23 125.56 322.92 127.60 323.00 124.75 C 323.08 121.90 322.98 111.81 322.88 109.12 Z" id="s-2-f-1"/>
<path d="M 274.88 112.62 C 274.62 110.67 277.67 111.60 273.50 112.12 C 269.33 112.65 259.10 114.48 249.88 115.75 C 240.65 117.02 224.08 119.06 218.12 119.75 C 212.17 120.44 218.73 119.19 214.12 119.88 C 209.52 120.56 203.42 122.19 190.50 123.88 C 177.58 125.56 146.44 128.79 136.62 130.00 C 126.81 131.21 132.56 130.83 131.62 131.12 C 130.69 131.42 131.10 131.40 131.00 131.75 C 130.90 132.10 130.44 132.42 131.00 133.25 C 131.56 134.08 132.12 135.31 134.38 136.75 C 136.62 138.19 141.40 140.56 144.50 141.88 C 147.60 143.19 150.58 144.12 153.00 144.62 C 155.42 145.12 157.46 144.88 159.00 144.88 C 160.54 144.88 159.52 145.10 162.25 144.62 C 164.98 144.15 171.56 142.62 175.38 142.00 C 179.19 141.38 179.62 141.75 185.12 140.88 C 190.62 140.00 204.02 137.58 208.38 136.75 C 212.73 135.92 208.58 136.35 211.25 135.88 C 213.92 135.40 213.81 135.04 224.38 133.88 C 234.94 132.71 266.19 130.54 274.62 128.88 C 283.06 127.21 274.96 126.58 275.00 123.88 C 275.04 121.17 275.12 114.58 274.88 112.62 Z" id="s-2-f-2"/>
<path d="M 226.88 119.00 C 226.71 116.77 228.12 118.48 226.00 118.62 C 223.88 118.77 220.04 119.00 214.12 119.88 C 208.21 120.75 203.50 122.17 190.50 123.88 C 177.50 125.58 145.94 128.92 136.12 130.12 C 126.31 131.33 132.48 130.85 131.62 131.12 C 130.77 131.40 131.10 131.40 131.00 131.75 C 130.90 132.10 130.52 132.48 131.00 133.25 C 131.48 134.02 133.08 135.65 133.88 136.38 C 134.67 137.10 133.23 136.42 135.75 137.62 C 138.27 138.83 145.94 142.44 149.00 143.62 C 152.06 144.81 151.94 144.58 154.12 144.75 C 156.31 144.92 158.58 145.08 162.12 144.62 C 165.67 144.17 170.58 142.79 175.38 142.00 C 180.17 141.21 184.29 141.00 190.88 139.88 C 197.46 138.75 208.96 136.27 214.88 135.25 C 220.79 134.23 224.35 134.29 226.38 133.75 C 228.40 133.21 226.92 134.46 227.00 132.00 C 227.08 129.54 227.04 121.23 226.88 119.00 Z" id="s-2-f-3"/>
<path d="M 178.88 141.12 C 178.94 138.44 178.90 128.29 178.75 125.62 C 178.60 122.96 184.96 124.40 178.00 125.12 C 171.04 125.85 144.69 129.02 137.00 130.00 C 129.31 130.98 132.88 130.71 131.88 131.00 C 130.88 131.29 131.08 131.27 131.00 131.75 C 130.92 132.23 130.58 132.90 131.38 133.88 C 132.17 134.85 133.21 136.15 135.75 137.62 C 138.29 139.10 143.73 141.58 146.62 142.75 C 149.52 143.92 150.56 144.31 153.12 144.62 C 155.69 144.94 159.46 144.88 162.00 144.62 C 164.54 144.38 165.65 143.60 168.38 143.12 C 171.10 142.65 176.62 142.08 178.38 141.75 C 180.12 141.42 178.81 143.81 178.88 141.12 Z" id="s-2-f-4"/>
</g>
<g id="s-3" clip-path="url(#c-s-3)">
<use href="#s-3-f-0"/>
<path d="M 218.25 54.50 C 216.90 54.33 212.27 54.46 210.62 54.62 C 208.98 54.79 209.88 55.33 208.38 55.50 C 206.88 55.67 203.12 55.46 201.62 55.62 C 200.12 55.79 200.85 56.33 199.38 56.50 C 197.90 56.67 194.17 56.42 192.75 56.62 C 191.33 56.83 191.00 56.23 190.88 57.75 C 190.75 59.27 191.52 63.71 192.00 65.75 C 192.48 67.79 193.12 67.81 193.75 70.00 C 194.38 72.19 195.42 74.19 195.75 78.88 C 196.08 83.56 196.08 92.60 195.75 98.12 C 195.42 103.65 194.62 107.56 193.75 112.00 C 192.88 116.44 191.21 122.52 190.50 124.75 C 189.79 126.98 189.98 124.67 189.50 125.38 C 189.02 126.08 187.96 128.17 187.62 129.00 C 187.29 129.83 187.67 130.00 187.50 130.38 C 187.33 130.75 187.31 129.83 186.62 131.25 C 185.94 132.67 184.04 137.48 183.38 138.88 C 182.71 140.27 182.77 139.19 182.62 139.62 C 182.48 140.06 183.31 139.52 182.50 141.50 C 181.69 143.48 179.35 148.35 177.75 151.50 C 176.15 154.65 174.88 157.08 172.88 160.38 C 170.88 163.67 167.33 168.94 165.75 171.25 C 164.17 173.56 165.29 172.21 163.38 174.25 C 161.46 176.29 157.25 180.60 154.25 183.50 C 151.25 186.40 148.15 189.25 145.38 191.62 C 142.60 194.00 138.98 196.56 137.62 197.75 C 136.27 198.94 132.77 198.58 137.25 198.75 C 141.73 198.92 157.88 200.71 164.50 198.75 C 171.12 196.79 171.12 193.50 177.00 187.00 C 182.88 180.50 194.00 168.35 199.75 159.75 C 205.50 151.15 209.58 139.52 211.50 135.38 C 213.42 131.23 211.17 135.00 211.25 134.88 C 211.33 134.75 211.81 134.94 212.00 134.62 C 212.19 134.31 212.19 133.42 212.38 133.00 C 212.56 132.58 212.65 133.40 213.12 132.12 C 213.60 130.85 214.75 126.71 215.25 125.38 C 215.75 124.04 215.79 125.15 216.12 124.12 C 216.46 123.10 216.35 121.58 217.25 119.25 C 218.15 116.92 220.08 113.52 221.50 110.12 C 222.92 106.73 224.96 101.33 225.75 98.88 C 226.54 96.42 225.96 96.46 226.25 95.38 C 226.54 94.29 227.33 92.94 227.50 92.38 C 227.67 91.81 227.12 92.17 227.25 92.00 C 227.38 91.83 227.94 91.73 228.25 91.38 C 228.56 91.02 228.96 90.31 229.12 89.88 C 229.29 89.44 228.75 89.81 229.25 88.75 C 229.75 87.69 231.42 85.00 232.12 83.50 C 232.83 82.00 233.17 80.46 233.50 79.75 C 233.83 79.04 233.98 79.60 234.12 79.25 C 234.27 78.90 233.94 78.46 234.38 77.62 C 234.81 76.79 236.38 75.40 236.75 74.25 C 237.12 73.10 237.12 72.02 236.62 70.75 C 236.12 69.48 235.15 68.10 233.75 66.62 C 232.35 65.15 230.75 63.71 228.25 61.88 C 225.75 60.04 220.42 56.85 218.75 55.62 C 217.08 54.40 219.60 54.67 218.25 54.50 Z" id="s-3-f-1"/>
<path d="M 218.00 54.88 C 216.35 54.48 212.23 54.52 210.62 54.62 C 209.02 54.73 209.88 55.33 208.38 55.50 C 206.88 55.67 203.12 55.46 201.62 55.62 C 200.12 55.79 200.85 56.33 199.38 56.50 C 197.90 56.67 194.17 56.42 192.75 56.62 C 191.33 56.83 191.00 56.23 190.88 57.75 C 190.75 59.27 191.52 63.71 192.00 65.75 C 192.48 67.79 193.12 67.81 193.75 70.00 C 194.38 72.19 195.42 74.19 195.75 78.88 C 196.08 83.56 195.92 93.54 195.75 98.12 C 195.58 102.71 195.27 103.17 194.75 106.38 C 194.23 109.58 193.33 114.31 192.62 117.38 C 191.92 120.44 191.02 123.42 190.50 124.75 C 189.98 126.08 189.98 124.67 189.50 125.38 C 189.02 126.08 187.96 128.17 187.62 129.00 C 187.29 129.83 187.67 130.00 187.50 130.38 C 187.33 130.75 186.98 130.52 186.62 131.25 C 186.27 131.98 186.04 133.35 185.38 134.75 C 184.71 136.15 183.10 138.50 182.62 139.62 C 182.15 140.75 183.25 139.73 182.50 141.50 C 181.75 143.27 178.79 148.69 178.12 150.25 C 177.46 151.81 174.19 150.79 178.50 150.88 C 182.81 150.96 198.50 153.33 204.00 150.75 C 209.50 148.17 210.29 138.00 211.50 135.38 C 212.71 132.75 211.15 135.17 211.25 135.00 C 211.35 134.83 211.81 134.85 212.12 134.38 C 212.44 133.90 212.94 132.73 213.12 132.12 C 213.31 131.52 212.75 132.08 213.25 130.75 C 213.75 129.42 215.46 126.04 216.12 124.12 C 216.79 122.21 216.15 122.06 217.25 119.25 C 218.35 116.44 221.77 109.58 222.75 107.25 C 223.73 104.92 222.62 106.65 223.12 105.25 C 223.62 103.85 225.21 100.62 225.75 98.88 C 226.29 97.12 226.08 95.83 226.38 94.75 C 226.67 93.67 227.35 92.83 227.50 92.38 C 227.65 91.92 227.12 92.17 227.25 92.00 C 227.38 91.83 227.94 91.73 228.25 91.38 C 228.56 91.02 228.96 90.31 229.12 89.88 C 229.29 89.44 228.75 89.81 229.25 88.75 C 229.75 87.69 231.60 84.62 232.12 83.50 C 232.65 82.38 232.04 82.71 232.38 82.00 C 232.71 81.29 233.79 79.98 234.12 79.25 C 234.46 78.52 233.92 78.58 234.38 77.62 C 234.83 76.67 236.48 74.58 236.88 73.50 C 237.27 72.42 237.27 72.27 236.75 71.12 C 236.23 69.98 235.21 68.19 233.75 66.62 C 232.29 65.06 230.21 63.35 228.00 61.75 C 225.79 60.15 222.17 58.15 220.50 57.00 C 218.83 55.85 219.65 55.27 218.00 54.88 Z" id="s-3-f-2"/>
<path d="M 218.00 54.50 C 216.40 54.10 212.48 54.46 210.88 54.62 C 209.27 54.79 209.88 55.33 208.38 55.50 C 206.88 55.67 203.38 55.46 201.88 55.62 C 200.38 55.79 200.88 56.33 199.38 56.50 C 197.88 56.67 194.29 56.42 192.88 56.62 C 191.46 56.83 191.02 56.23 190.88 57.75 C 190.73 59.27 191.52 63.71 192.00 65.75 C 192.48 67.79 193.12 67.81 193.75 70.00 C 194.38 72.19 195.42 74.19 195.75 78.88 C 196.08 83.56 195.85 94.29 195.75 98.12 C 195.65 101.96 195.15 101.08 195.12 101.88 C 195.10 102.67 191.33 102.69 195.62 102.88 C 199.92 103.06 216.15 103.02 220.88 103.00 C 225.60 102.98 223.19 103.44 224.00 102.75 C 224.81 102.06 225.27 100.46 225.75 98.88 C 226.23 97.29 226.56 94.35 226.88 93.25 C 227.19 92.15 227.56 92.46 227.62 92.25 C 227.69 92.04 227.15 92.15 227.25 92.00 C 227.35 91.85 227.94 91.73 228.25 91.38 C 228.56 91.02 228.96 90.31 229.12 89.88 C 229.29 89.44 228.75 89.81 229.25 88.75 C 229.75 87.69 231.06 85.73 232.12 83.50 C 233.19 81.27 234.85 76.92 235.62 75.38 C 236.40 73.83 236.56 74.96 236.75 74.25 C 236.94 73.54 237.02 72.12 236.75 71.12 C 236.48 70.12 235.92 69.27 235.12 68.25 C 234.33 67.23 233.19 66.08 232.00 65.00 C 230.81 63.92 229.92 63.08 228.00 61.75 C 226.08 60.42 222.17 58.21 220.50 57.00 C 218.83 55.79 219.60 54.90 218.00 54.50 Z" id="s-3-f-3"/>
</g>
<g id="s-4" clip-path="url(#c-s-4)">
<use href="#s-4-f-0"/>
<path d="M 189.12 170.62 C 188.54 171.19 188.88 171.50 186.62 174.25 C 184.38 177.00 176.77 183.42 175.62 187.12 C 174.48 190.83 178.15 191.31 179.75 196.50 C 181.35 201.69 184.02 214.50 185.25 218.25 C 186.48 222.00 183.44 218.88 187.12 219.00 C 190.81 219.12 203.92 219.08 207.38 219.00 C 210.83 218.92 208.31 223.75 207.88 218.50 C 207.44 213.25 205.79 193.54 204.75 187.50 C 203.71 181.46 204.06 185.02 201.62 182.25 C 199.19 179.48 192.21 172.81 190.12 170.88 C 188.04 168.94 189.71 170.06 189.12 170.62 Z" id="s-4-f-1"/>
</g>
<g id="s-5" clip-path="url(#c-s-5)">
<use href="#s-5-f-0"/>
<path d="M 371.88 175.38 C 372.15 174.56 372.10 173.92 371.75 172.75 C 371.40 171.58 371.29 170.40 369.75 168.38 C 368.21 166.35 365.17 163.04 362.50 160.62 C 359.83 158.21 356.46 155.83 353.75 153.88 C 351.04 151.92 348.65 150.31 346.25 148.88 C 343.85 147.44 340.83 145.92 339.38 145.25 C 337.92 144.58 338.40 144.90 337.50 144.88 C 336.60 144.85 335.35 144.81 334.00 145.12 C 332.65 145.44 333.23 145.98 329.38 146.75 C 325.52 147.52 323.27 148.21 310.88 149.75 C 298.48 151.29 271.19 154.00 255.00 156.00 C 238.81 158.00 223.56 160.65 213.75 161.75 C 203.94 162.85 199.35 162.04 196.12 162.62 C 192.90 163.21 195.46 163.98 194.38 165.25 C 193.29 166.52 190.35 169.17 189.62 170.25 C 188.90 171.33 187.88 169.44 190.00 171.75 C 192.12 174.06 199.71 182.15 202.38 184.12 C 205.04 186.10 204.85 183.96 206.00 183.62 C 207.15 183.29 204.85 183.21 209.25 182.12 C 213.65 181.04 224.46 178.65 232.38 177.12 C 240.29 175.60 250.19 174.02 256.75 173.00 C 263.31 171.98 262.79 171.67 271.75 171.00 C 280.71 170.33 302.79 169.33 310.50 169.00 C 318.21 168.67 315.88 168.83 318.00 169.00 C 320.12 169.17 321.98 169.65 323.25 170.00 C 324.52 170.35 324.85 170.56 325.62 171.12 C 326.40 171.69 327.35 172.62 327.88 173.38 C 328.40 174.12 328.60 174.94 328.75 175.62 C 328.90 176.31 328.94 176.56 328.75 177.50 C 328.56 178.44 328.81 178.21 327.62 181.25 C 326.44 184.29 323.23 192.31 321.62 195.75 C 320.02 199.19 318.62 200.73 318.00 201.88 C 317.38 203.02 317.69 202.44 317.88 202.62 C 318.06 202.81 314.69 202.98 319.12 203.00 C 323.56 203.02 338.50 205.00 344.50 202.75 C 350.50 200.50 352.17 192.77 355.12 189.50 C 358.08 186.23 359.75 185.10 362.25 183.12 C 364.75 181.15 368.52 178.92 370.12 177.62 C 371.73 176.33 371.60 176.19 371.88 175.38 Z" id="s-5-f-1"/>
<path d="M 354.25 154.88 C 354.35 154.54 355.62 155.19 353.75 153.88 C 351.88 152.56 345.52 148.48 343.00 147.00 C 340.48 145.52 340.02 145.33 338.62 145.00 C 337.23 144.67 336.17 144.71 334.62 145.00 C 333.08 145.29 332.02 146.12 329.38 146.75 C 326.73 147.38 331.33 147.19 318.75 148.75 C 306.17 150.31 271.54 153.94 253.88 156.12 C 236.21 158.31 222.38 160.79 212.75 161.88 C 203.12 162.96 199.21 162.04 196.12 162.62 C 193.04 163.21 195.31 164.15 194.25 165.38 C 193.19 166.60 190.48 168.96 189.75 170.00 C 189.02 171.04 187.77 169.27 189.88 171.62 C 191.98 173.98 199.67 182.12 202.38 184.12 C 205.08 186.12 204.92 183.98 206.12 183.62 C 207.33 183.27 206.10 182.92 209.62 182.00 C 213.15 181.08 219.38 179.62 227.25 178.12 C 235.12 176.62 249.25 174.21 256.88 173.00 C 264.50 171.79 263.15 171.58 273.00 170.88 C 282.85 170.17 302.65 171.25 316.00 168.75 C 329.35 166.25 346.75 158.19 353.12 155.88 C 359.50 153.56 354.15 155.21 354.25 154.88 Z" id="s-5-f-2"/>
<path d="M 333.88 145.88 C 333.73 143.94 333.88 145.35 333.12 145.50 C 332.38 145.65 331.77 146.21 329.38 146.75 C 326.98 147.29 331.15 147.21 318.75 148.75 C 306.35 150.29 272.50 153.83 255.00 156.00 C 237.50 158.17 223.56 160.65 213.75 161.75 C 203.94 162.85 199.38 162.02 196.12 162.62 C 192.88 163.23 195.31 164.15 194.25 165.38 C 193.19 166.60 190.48 168.96 189.75 170.00 C 189.02 171.04 187.77 169.27 189.88 171.62 C 191.98 173.98 199.67 182.12 202.38 184.12 C 205.08 186.12 204.92 183.98 206.12 183.62 C 207.33 183.27 206.21 182.90 209.62 182.00 C 213.04 181.10 218.75 179.75 226.62 178.25 C 234.50 176.75 249.33 174.21 256.88 173.00 C 264.42 171.79 262.02 171.71 271.88 171.00 C 281.73 170.29 305.73 170.15 316.00 168.75 C 326.27 167.35 330.50 164.56 333.50 162.62 C 336.50 160.69 333.94 159.92 334.00 157.12 C 334.06 154.33 334.02 147.81 333.88 145.88 Z" id="s-5-f-3"/>
<path d="M 285.88 153.12 C 285.77 150.48 286.42 152.75 285.38 152.75 C 284.33 152.75 284.88 152.56 279.62 153.12 C 274.38 153.69 264.85 154.69 253.88 156.12 C 242.90 157.56 223.38 160.67 213.75 161.75 C 204.12 162.83 199.35 162.04 196.12 162.62 C 192.90 163.21 195.44 164.02 194.38 165.25 C 193.31 166.48 190.54 169.06 189.75 170.00 C 188.96 170.94 189.58 170.58 189.62 170.88 C 189.67 171.17 187.88 169.54 190.00 171.75 C 192.12 173.96 199.69 182.15 202.38 184.12 C 205.06 186.10 204.98 183.96 206.12 183.62 C 207.27 183.29 203.04 183.54 209.25 182.12 C 215.46 180.71 232.92 176.98 243.38 175.12 C 253.83 173.27 265.19 171.81 272.00 171.00 C 278.81 170.19 281.96 170.46 284.25 170.25 C 286.54 170.04 285.46 170.02 285.75 169.75 C 286.04 169.48 285.98 171.40 286.00 168.62 C 286.02 165.85 285.98 155.77 285.88 153.12 Z" id="s-5-f-4"/>
<path d="M 237.88 158.88 C 237.67 156.17 240.96 157.88 236.75 158.38 C 232.54 158.88 219.40 161.17 212.62 161.88 C 205.85 162.58 199.17 162.06 196.12 162.62 C 193.08 163.19 195.44 164.02 194.38 165.25 C 193.31 166.48 190.54 169.06 189.75 170.00 C 188.96 170.94 187.56 168.52 189.62 170.88 C 191.69 173.23 199.38 182.00 202.12 184.12 C 204.88 186.25 204.94 183.96 206.12 183.62 C 207.31 183.29 204.08 183.31 209.25 182.12 C 214.42 180.94 232.35 177.56 237.12 176.50 C 241.90 175.44 237.73 176.06 237.88 175.75 C 238.02 175.44 238.00 177.44 238.00 174.62 C 238.00 171.81 238.08 161.58 237.88 158.88 Z" id="s-5-f-5"/>
</g>
<g id="s-6" clip-path="url(#c-s-6)">
<use href="#s-6-f-0"/>
<path d="M 301.88 206.50 C 301.69 204.08 305.96 205.17 300.88 206.00 C 295.79 206.83 280.02 210.02 271.38 211.50 C 262.73 212.98 259.54 213.65 249.00 214.88 C 238.46 216.10 215.06 218.10 208.12 218.88 C 201.19 219.65 207.60 218.98 207.38 219.50 C 207.15 220.02 207.06 219.52 206.75 222.00 C 206.44 224.48 205.65 232.23 205.50 234.38 C 205.35 236.52 202.83 234.83 205.88 234.88 C 208.92 234.92 207.81 235.96 223.75 234.62 C 239.69 233.29 288.46 229.23 301.50 226.88 C 314.54 224.52 301.94 223.90 302.00 220.50 C 302.06 217.10 302.06 208.92 301.88 206.50 Z" id="s-6-f-1"/>
<path d="M 253.88 214.50 C 253.71 211.85 253.67 213.96 253.00 214.00 C 252.33 214.04 253.31 214.29 249.88 214.75 C 246.44 215.21 239.33 216.06 232.38 216.75 C 225.42 217.44 212.29 218.42 208.12 218.88 C 203.96 219.33 207.60 218.98 207.38 219.50 C 207.15 220.02 207.06 219.52 206.75 222.00 C 206.44 224.48 205.65 232.23 205.50 234.38 C 205.35 236.52 203.19 234.81 205.88 234.88 C 208.56 234.94 213.67 235.31 221.62 234.75 C 229.58 234.19 248.23 232.31 253.62 231.50 C 259.02 230.69 253.96 232.71 254.00 229.88 C 254.04 227.04 254.04 217.15 253.88 214.50 Z" id="s-6-f-2"/>
</g>
<g id="s-7" clip-path="url(#c-s-7)">
<use href="#s-7-f-0"/>
</g>
<g id="s-8" clip-path="url(#c-s-8)">
<use href="#s-8-f-0"/>
</g>
<g id="s-9" clip-path="url(#c-s-9)">
<use href="#s-9-f-0"/>
<path d="M 333.00 281.50 C 332.79 278.04 333.98 280.62 331.62 281.00 C 329.27 281.38 324.15 282.79 318.88 283.75 C 313.60 284.71 312.15 285.23 300.00 286.75 C 287.85 288.27 262.06 291.21 246.00 292.88 C 229.94 294.54 220.08 295.40 203.62 296.75 C 187.17 298.10 157.56 300.02 147.25 301.00 C 136.94 301.98 142.75 302.27 141.75 302.62 C 140.75 302.98 141.38 302.71 141.25 303.12 C 141.12 303.54 140.69 304.31 141.00 305.12 C 141.31 305.94 142.10 306.94 143.12 308.00 C 144.15 309.06 145.67 310.60 147.12 311.50 C 148.58 312.40 149.31 312.83 151.88 313.38 C 154.44 313.92 158.08 314.50 162.50 314.75 C 166.92 315.00 171.67 315.04 178.38 314.88 C 185.08 314.71 189.92 314.58 202.75 313.75 C 215.58 312.92 242.40 311.00 255.38 309.88 C 268.35 308.75 267.79 308.23 280.62 307.00 C 293.46 305.77 323.67 303.38 332.38 302.50 C 341.08 301.62 332.77 305.25 332.88 301.75 C 332.98 298.25 333.21 284.96 333.00 281.50 Z" id="s-9-f-1"/>
<path d="M 284.88 290.12 C 284.81 287.17 290.85 288.29 284.38 288.75 C 277.90 289.21 257.50 291.71 246.00 292.88 C 234.50 294.04 230.60 294.54 215.38 295.75 C 200.15 296.96 165.98 299.25 154.62 300.12 C 143.27 301.00 149.25 300.67 147.25 301.00 C 145.25 301.33 143.62 301.77 142.62 302.12 C 141.62 302.48 141.52 302.62 141.25 303.12 C 140.98 303.62 140.88 304.52 141.00 305.12 C 141.12 305.73 141.27 305.92 142.00 306.75 C 142.73 307.58 144.08 309.12 145.38 310.12 C 146.67 311.12 147.77 312.06 149.75 312.75 C 151.73 313.44 154.44 313.90 157.25 314.25 C 160.06 314.60 161.96 314.79 166.62 314.88 C 171.29 314.96 179.19 314.94 185.25 314.75 C 191.31 314.56 189.17 314.77 203.00 313.75 C 216.83 312.73 254.62 309.83 268.25 308.62 C 281.88 307.42 281.98 309.58 284.75 306.50 C 287.52 303.42 284.94 293.08 284.88 290.12 Z" id="s-9-f-2"/>
<path d="M 236.62 294.88 C 236.48 292.12 236.92 294.15 236.12 294.00 C 235.33 293.85 239.33 293.38 231.88 294.00 C 224.42 294.62 204.23 296.73 191.38 297.75 C 178.52 298.77 162.10 299.58 154.75 300.12 C 147.40 300.67 149.27 300.67 147.25 301.00 C 145.23 301.33 143.62 301.77 142.62 302.12 C 141.62 302.48 141.52 302.62 141.25 303.12 C 140.98 303.62 140.88 304.52 141.00 305.12 C 141.12 305.73 140.88 305.62 142.00 306.75 C 143.12 307.88 145.90 310.73 147.75 311.88 C 149.60 313.02 150.69 313.15 153.12 313.62 C 155.56 314.10 157.02 314.56 162.38 314.75 C 167.73 314.94 172.92 315.38 185.25 314.75 C 197.58 314.12 227.75 311.71 236.38 311.00 C 245.00 310.29 236.96 313.19 237.00 310.50 C 237.04 307.81 236.77 297.62 236.62 294.88 Z" id="s-9-f-3"/>
<path d="M 188.88 314.00 C 188.94 311.27 189.27 300.79 188.75 298.12 C 188.23 295.46 192.79 297.50 185.75 298.00 C 178.71 298.50 153.69 300.44 146.50 301.12 C 139.31 301.81 143.50 301.79 142.62 302.12 C 141.75 302.46 141.52 302.62 141.25 303.12 C 140.98 303.62 140.35 304.00 141.00 305.12 C 141.65 306.25 144.04 308.77 145.12 309.88 C 146.21 310.98 146.31 311.15 147.50 311.75 C 148.69 312.35 150.31 313.04 152.25 313.50 C 154.19 313.96 156.73 314.27 159.12 314.50 C 161.52 314.73 161.75 314.88 166.62 314.88 C 171.50 314.88 184.67 314.65 188.38 314.50 C 192.08 314.35 188.81 316.73 188.88 314.00 Z" id="s-9-f-4"/>
</g>
<g id="s-10" clip-path="url(#c-s-10)">
<use href="#s-10-f-0"/>
<path d="M 347.00 329.00 C 346.92 327.08 348.38 328.81 346.50 328.00 C 344.62 327.19 338.52 324.96 335.75 324.12 C 332.98 323.29 331.85 323.19 329.88 323.00 C 327.90 322.81 325.96 322.71 323.88 323.00 C 321.79 323.29 320.62 324.12 317.38 324.75 C 314.12 325.38 309.25 326.10 304.38 326.75 C 299.50 327.40 293.92 328.10 288.12 328.62 C 282.33 329.15 278.75 328.85 269.62 329.88 C 260.50 330.90 245.60 333.44 233.38 334.75 C 221.15 336.06 206.96 337.02 196.25 337.75 C 185.54 338.48 175.54 338.56 169.12 339.12 C 162.71 339.69 160.08 340.60 157.75 341.12 C 155.42 341.65 155.58 341.73 155.12 342.25 C 154.67 342.77 154.58 343.29 155.00 344.25 C 155.42 345.21 156.60 346.88 157.62 348.00 C 158.65 349.12 159.69 350.23 161.12 351.00 C 162.56 351.77 163.83 352.17 166.25 352.62 C 168.67 353.08 170.27 353.56 175.62 353.75 C 180.98 353.94 186.56 354.23 198.38 353.75 C 210.19 353.27 234.52 351.85 246.50 350.88 C 258.48 349.90 263.92 348.40 270.25 347.88 C 276.58 347.35 276.60 348.29 284.50 347.75 C 292.40 347.21 309.38 345.48 317.62 344.62 C 325.88 343.77 329.40 343.29 334.00 342.62 C 338.60 341.96 343.08 341.15 345.25 340.62 C 347.42 340.10 346.71 341.44 347.00 339.50 C 347.29 337.56 347.08 330.92 347.00 329.00 Z" id="s-10-f-1"/>
<path d="M 298.88 327.88 C 298.69 325.00 300.17 327.21 297.88 327.38 C 295.58 327.54 289.83 328.46 285.12 328.88 C 280.42 329.29 276.92 329.04 269.62 329.88 C 262.33 330.71 249.17 332.90 241.38 333.88 C 233.58 334.85 230.40 335.10 222.88 335.75 C 215.35 336.40 205.21 337.19 196.25 337.75 C 187.29 338.31 175.54 338.56 169.12 339.12 C 162.71 339.69 160.08 340.60 157.75 341.12 C 155.42 341.65 155.58 341.73 155.12 342.25 C 154.67 342.77 154.40 343.10 155.00 344.25 C 155.60 345.40 157.50 347.90 158.75 349.12 C 160.00 350.35 160.21 350.90 162.50 351.62 C 164.79 352.35 169.17 353.12 172.50 353.50 C 175.83 353.88 178.21 353.83 182.50 353.88 C 186.79 353.92 187.85 354.23 198.25 353.75 C 208.65 353.27 232.88 351.98 244.88 351.00 C 256.88 350.02 263.60 348.42 270.25 347.88 C 276.90 347.33 280.19 347.96 284.75 347.75 C 289.31 347.54 295.31 346.88 297.62 346.62 C 299.94 346.38 298.40 346.58 298.62 346.25 C 298.85 345.92 298.96 347.69 299.00 344.62 C 299.04 341.56 299.06 330.75 298.88 327.88 Z" id="s-10-f-2"/>
<path d="M 251.00 334.00 C 250.98 331.17 251.00 332.98 250.75 332.75 C 250.50 332.52 252.40 332.29 249.50 332.62 C 246.60 332.96 239.85 334.06 233.38 334.75 C 226.90 335.44 221.15 336.04 210.62 336.75 C 200.10 337.46 179.06 338.27 170.25 339.00 C 161.44 339.73 160.27 340.58 157.75 341.12 C 155.23 341.67 155.58 341.73 155.12 342.25 C 154.67 342.77 154.75 343.48 155.00 344.25 C 155.25 345.02 155.60 345.75 156.62 346.88 C 157.65 348.00 159.65 350.06 161.12 351.00 C 162.60 351.94 163.44 352.06 165.50 352.50 C 167.56 352.94 168.04 353.42 173.50 353.62 C 178.96 353.83 186.10 354.21 198.25 353.75 C 210.40 353.29 237.69 351.46 246.38 350.88 C 255.06 350.29 249.62 350.44 250.38 350.25 C 251.12 350.06 250.77 352.46 250.88 349.75 C 250.98 347.04 251.02 336.83 251.00 334.00 Z" id="s-10-f-3"/>
<path d="M 202.88 353.00 C 203.04 350.54 203.00 341.42 203.00 338.88 C 203.00 336.33 203.02 338.02 202.88 337.75 C 202.73 337.48 207.56 337.04 202.12 337.25 C 196.69 337.46 177.56 338.38 170.25 339.00 C 162.94 339.62 160.79 340.42 158.25 341.00 C 155.71 341.58 155.54 341.96 155.00 342.50 C 154.46 343.04 154.85 343.69 155.00 344.25 C 155.15 344.81 155.23 345.04 155.88 345.88 C 156.52 346.71 158.00 348.40 158.88 349.25 C 159.75 350.10 160.02 350.46 161.12 351.00 C 162.23 351.54 163.40 352.06 165.50 352.50 C 167.60 352.94 168.04 353.42 173.75 353.62 C 179.46 353.83 195.04 353.75 199.75 353.75 C 204.46 353.75 201.48 353.75 202.00 353.62 C 202.52 353.50 202.71 355.46 202.88 353.00 Z" id="s-10-f-4"/>
</g>
<g id="s-11" clip-path="url(#c-s-11)">
<use href="#s-11-f-0"/>
<path d="M 406.88 356.62 C 406.77 353.00 407.60 356.08 406.38 356.00 C 405.15 355.92 405.44 355.35 399.50 356.12 C 393.56 356.90 383.62 359.02 370.75 360.62 C 357.88 362.23 335.19 364.54 322.25 365.75 C 309.31 366.96 300.12 367.50 293.12 367.88 C 286.12 368.25 285.06 367.83 280.25 368.00 C 275.44 368.17 270.58 368.40 264.25 368.88 C 257.92 369.35 251.94 370.17 242.25 370.88 C 232.56 371.58 220.88 371.81 206.12 373.12 C 191.38 374.44 168.62 377.46 153.75 378.75 C 138.88 380.04 129.79 380.33 116.88 380.88 C 103.96 381.42 83.67 381.50 76.25 382.00 C 68.83 382.50 73.25 383.23 72.38 383.88 C 71.50 384.52 71.25 385.17 71.00 385.88 C 70.75 386.58 70.69 387.46 70.88 388.12 C 71.06 388.79 71.27 389.10 72.12 389.88 C 72.98 390.65 72.52 390.94 76.00 392.75 C 79.48 394.56 88.12 398.77 93.00 400.75 C 97.88 402.73 102.06 403.94 105.25 404.62 C 108.44 405.31 104.02 405.98 112.12 404.88 C 120.23 403.77 143.31 399.65 153.88 398.00 C 164.44 396.35 167.50 395.98 175.50 395.00 C 183.50 394.02 191.23 393.00 201.88 392.12 C 212.52 391.25 232.65 390.27 239.38 389.75 C 246.10 389.23 226.50 389.62 242.25 389.00 C 258.00 388.38 312.50 386.50 333.88 386.00 C 355.25 385.50 358.40 385.83 370.50 386.00 C 382.60 386.17 400.42 388.38 406.50 387.00 C 412.58 385.62 406.94 382.81 407.00 377.75 C 407.06 372.69 406.98 360.25 406.88 356.62 Z" id="s-11-f-1"/>
<path d="M 358.75 362.25 C 358.44 358.40 362.96 361.44 357.12 362.00 C 351.29 362.56 334.42 364.65 323.75 365.62 C 313.08 366.60 300.38 367.48 293.12 367.88 C 285.88 368.27 285.06 367.83 280.25 368.00 C 275.44 368.17 270.58 368.40 264.25 368.88 C 257.92 369.35 251.94 370.17 242.25 370.88 C 232.56 371.58 219.17 371.98 206.12 373.12 C 193.08 374.27 175.08 376.65 164.00 377.75 C 152.92 378.85 147.48 379.23 139.62 379.75 C 131.77 380.27 127.44 380.50 116.88 380.88 C 106.31 381.25 83.67 381.50 76.25 382.00 C 68.83 382.50 73.25 383.23 72.38 383.88 C 71.50 384.52 71.25 385.17 71.00 385.88 C 70.75 386.58 70.69 387.46 70.88 388.12 C 71.06 388.79 71.27 389.10 72.12 389.88 C 72.98 390.65 72.52 390.94 76.00 392.75 C 79.48 394.56 88.12 398.77 93.00 400.75 C 97.88 402.73 102.04 403.94 105.25 404.62 C 108.46 405.31 101.83 406.31 112.25 404.88 C 122.67 403.44 154.50 397.96 167.75 396.00 C 181.00 394.04 184.02 393.94 191.75 393.12 C 199.48 392.31 206.19 391.69 214.12 391.12 C 222.06 390.56 234.69 390.10 239.38 389.75 C 244.06 389.40 239.65 389.15 242.25 389.00 C 244.85 388.85 250.50 389.06 255.00 388.88 C 259.50 388.69 257.40 388.33 269.25 387.88 C 281.10 387.42 311.23 386.48 326.12 386.12 C 341.02 385.77 353.15 385.92 358.62 385.75 C 364.10 385.58 358.98 389.04 359.00 385.12 C 359.02 381.21 359.06 366.10 358.75 362.25 Z" id="s-11-f-2"/>
<path d="M 310.88 367.12 C 310.69 364.08 312.83 366.38 309.88 366.50 C 306.92 366.62 298.06 367.62 293.12 367.88 C 288.19 368.12 285.06 367.83 280.25 368.00 C 275.44 368.17 270.58 368.40 264.25 368.88 C 257.92 369.35 251.90 370.17 242.25 370.88 C 232.60 371.58 215.71 372.44 206.38 373.12 C 197.04 373.81 193.31 374.23 186.25 375.00 C 179.19 375.77 171.77 376.96 164.00 377.75 C 156.23 378.54 147.48 379.23 139.62 379.75 C 131.77 380.27 127.44 380.50 116.88 380.88 C 106.31 381.25 83.44 381.67 76.25 382.00 C 69.06 382.33 74.48 382.48 73.75 382.88 C 73.02 383.27 72.33 383.88 71.88 384.38 C 71.42 384.88 71.17 385.25 71.00 385.88 C 70.83 386.50 70.83 387.60 70.88 388.12 C 70.92 388.65 70.67 388.40 71.25 389.00 C 71.83 389.60 73.31 390.98 74.38 391.75 C 75.44 392.52 74.52 392.12 77.62 393.62 C 80.73 395.12 88.40 398.92 93.00 400.75 C 97.60 402.58 102.04 403.94 105.25 404.62 C 108.46 405.31 101.90 406.31 112.25 404.88 C 122.60 403.44 152.44 398.12 167.38 396.00 C 182.31 393.88 189.85 393.17 201.88 392.12 C 213.90 391.08 232.77 390.27 239.50 389.75 C 246.23 389.23 239.67 389.15 242.25 389.00 C 244.83 388.85 250.50 389.06 255.00 388.88 C 259.50 388.69 260.06 388.25 269.25 387.88 C 278.44 387.50 303.19 386.92 310.12 386.62 C 317.06 386.33 310.73 386.44 310.88 386.12 C 311.02 385.81 311.00 387.92 311.00 384.75 C 311.00 381.58 311.06 370.17 310.88 367.12 Z" id="s-11-f-3"/>
<path d="M 262.88 369.50 C 262.65 366.56 265.06 368.90 261.62 369.12 C 258.19 369.35 251.46 370.21 242.25 370.88 C 233.04 371.54 215.71 372.44 206.38 373.12 C 197.04 373.81 193.31 374.23 186.25 375.00 C 179.19 375.77 171.81 376.96 164.00 377.75 C 156.19 378.54 147.23 379.23 139.38 379.75 C 131.52 380.27 127.40 380.50 116.88 380.88 C 106.35 381.25 83.44 381.67 76.25 382.00 C 69.06 382.33 74.48 382.48 73.75 382.88 C 73.02 383.27 72.33 383.88 71.88 384.38 C 71.42 384.88 71.17 385.25 71.00 385.88 C 70.83 386.50 70.83 387.60 70.88 388.12 C 70.92 388.65 70.67 388.40 71.25 389.00 C 71.83 389.60 73.31 390.98 74.38 391.75 C 75.44 392.52 74.52 392.12 77.62 393.62 C 80.73 395.12 88.40 398.92 93.00 400.75 C 97.60 402.58 101.83 403.96 105.25 404.62 C 108.67 405.29 104.31 406.02 113.50 404.75 C 122.69 403.48 148.73 398.79 160.38 397.00 C 172.02 395.21 174.44 394.98 183.38 394.00 C 192.31 393.02 204.67 391.83 214.00 391.12 C 223.33 390.42 234.65 390.10 239.38 389.75 C 244.10 389.40 239.77 389.15 242.38 389.00 C 244.98 388.85 251.71 389.00 255.00 388.88 C 258.29 388.75 260.83 388.42 262.12 388.25 C 263.42 388.08 262.60 388.12 262.75 387.88 C 262.90 387.62 262.98 389.81 263.00 386.75 C 263.02 383.69 263.10 372.44 262.88 369.50 Z" id="s-11-f-4"/>
<path d="M 214.75 374.00 C 214.69 371.19 215.94 372.90 214.50 372.75 C 213.06 372.60 212.58 372.56 206.12 373.12 C 199.67 373.69 182.77 375.35 175.75 376.12 C 168.73 376.90 170.38 377.12 164.00 377.75 C 157.62 378.38 152.12 379.17 137.50 379.88 C 122.88 380.58 86.94 381.48 76.25 382.00 C 65.56 382.52 74.10 382.60 73.38 383.00 C 72.65 383.40 72.27 383.90 71.88 384.38 C 71.48 384.85 71.17 385.25 71.00 385.88 C 70.83 386.50 70.83 387.60 70.88 388.12 C 70.92 388.65 70.67 388.40 71.25 389.00 C 71.83 389.60 73.31 390.98 74.38 391.75 C 75.44 392.52 74.52 392.12 77.62 393.62 C 80.73 395.12 88.40 398.92 93.00 400.75 C 97.60 402.58 101.83 403.96 105.25 404.62 C 108.67 405.29 103.08 406.19 113.50 404.75 C 123.92 403.31 154.67 397.94 167.75 396.00 C 180.83 394.06 184.31 393.92 192.00 393.12 C 199.69 392.33 210.08 391.65 213.88 391.25 C 217.67 390.85 214.58 391.02 214.75 390.75 C 214.92 390.48 214.88 392.42 214.88 389.62 C 214.88 386.83 214.81 376.81 214.75 374.00 Z" id="s-11-f-5"/>
<path d="M 166.88 377.88 C 166.73 374.98 168.31 377.10 166.12 377.25 C 163.94 377.40 160.94 378.19 153.75 378.75 C 146.56 379.31 135.92 380.08 123.00 380.62 C 110.08 381.17 84.52 381.60 76.25 382.00 C 67.98 382.40 74.06 382.65 73.38 383.00 C 72.69 383.35 72.52 383.65 72.12 384.12 C 71.73 384.60 71.21 385.21 71.00 385.88 C 70.79 386.54 70.83 387.60 70.88 388.12 C 70.92 388.65 70.67 388.40 71.25 389.00 C 71.83 389.60 73.31 390.98 74.38 391.75 C 75.44 392.52 74.52 392.12 77.62 393.62 C 80.73 395.12 88.98 399.06 93.00 400.75 C 97.02 402.44 99.56 403.08 101.75 403.75 C 103.94 404.42 104.17 404.58 106.12 404.75 C 108.08 404.92 103.44 406.17 113.50 404.75 C 123.56 403.33 157.58 397.94 166.50 396.25 C 175.42 394.56 166.94 397.69 167.00 394.62 C 167.06 391.56 167.02 380.77 166.88 377.88 Z" id="s-11-f-6"/>
<path d="M 118.88 403.38 C 118.90 399.77 118.77 385.98 118.62 382.25 C 118.48 378.52 125.04 381.04 118.00 381.00 C 110.96 380.96 83.81 381.67 76.38 382.00 C 68.94 382.33 74.25 382.40 73.38 383.00 C 72.50 383.60 71.54 384.77 71.12 385.62 C 70.71 386.48 70.85 387.56 70.88 388.12 C 70.90 388.69 70.67 388.40 71.25 389.00 C 71.83 389.60 72.62 390.62 74.38 391.75 C 76.12 392.88 78.21 394.08 81.75 395.75 C 85.29 397.42 91.56 400.25 95.62 401.75 C 99.69 403.25 103.12 404.25 106.12 404.75 C 109.12 405.25 111.56 404.90 113.62 404.75 C 115.69 404.60 117.62 404.10 118.50 403.88 C 119.38 403.65 118.85 406.98 118.88 403.38 Z" id="s-11-f-7"/>
</g>
<g id="s-12" clip-path="url(#c-s-12)">
<use href="#s-12-f-0"/>
<path d="M 263.62 308.50 C 258.71 307.81 247.17 309.38 242.88 309.75 C 238.58 310.12 238.69 310.06 237.88 310.75 C 237.06 311.44 237.52 311.44 238.00 313.88 C 238.48 316.31 240.12 322.23 240.75 325.38 C 241.38 328.52 241.60 329.62 241.75 332.75 C 241.90 335.88 241.44 341.02 241.62 344.12 C 241.81 347.23 242.67 346.98 242.88 351.38 C 243.08 355.77 242.94 367.19 242.88 370.50 C 242.81 373.81 242.46 357.62 242.50 371.25 C 242.54 384.88 242.85 438.62 243.12 452.25 C 243.40 465.88 241.00 452.94 244.12 453.00 C 247.25 453.06 258.44 453.94 261.88 452.62 C 265.31 451.31 263.77 448.73 264.75 445.12 C 265.73 441.52 267.06 435.54 267.75 431.00 C 268.44 426.46 268.69 425.00 268.88 417.88 C 269.06 410.75 268.79 393.33 268.88 388.25 C 268.96 383.17 269.17 388.46 269.38 387.38 C 269.58 386.29 270.04 388.27 270.12 381.75 C 270.21 375.23 269.71 354.29 269.88 348.25 C 270.04 342.21 270.88 346.69 271.12 345.50 C 271.38 344.31 271.21 342.12 271.38 341.12 C 271.54 340.12 271.96 340.50 272.12 339.50 C 272.29 338.50 272.21 336.12 272.38 335.12 C 272.54 334.12 273.00 334.38 273.12 333.50 C 273.25 332.62 273.00 330.90 273.12 329.88 C 273.25 328.85 273.17 328.35 273.88 327.38 C 274.58 326.40 276.71 324.85 277.38 324.00 C 278.04 323.15 277.98 323.15 277.88 322.25 C 277.77 321.35 277.67 320.02 276.75 318.62 C 275.83 317.23 274.56 315.56 272.38 313.88 C 270.19 312.19 268.54 309.19 263.62 308.50 Z" id="s-12-f-1"/>
<path d="M 263.62 308.50 C 258.71 307.81 247.17 309.38 242.88 309.75 C 238.58 310.12 238.69 310.06 237.88 310.75 C 237.06 311.44 237.52 311.44 238.00 313.88 C 238.48 316.31 240.12 322.23 240.75 325.38 C 241.38 328.52 241.60 329.62 241.75 332.75 C 241.90 335.88 241.44 341.02 241.62 344.12 C 241.81 347.23 242.73 343.98 242.88 351.38 C 243.02 358.77 242.50 379.79 242.50 388.50 C 242.50 397.21 242.73 400.88 242.88 403.62 C 243.02 406.38 239.12 404.77 243.38 405.00 C 247.62 405.23 264.15 405.06 268.38 405.00 C 272.60 404.94 268.67 407.42 268.75 404.62 C 268.83 401.83 268.77 391.12 268.88 388.25 C 268.98 385.38 269.17 388.46 269.38 387.38 C 269.58 386.29 270.04 388.27 270.12 381.75 C 270.21 375.23 269.71 354.29 269.88 348.25 C 270.04 342.21 270.88 346.69 271.12 345.50 C 271.38 344.31 271.21 342.12 271.38 341.12 C 271.54 340.12 271.96 340.50 272.12 339.50 C 272.29 338.50 272.21 336.12 272.38 335.12 C 272.54 334.12 273.00 334.38 273.12 333.50 C 273.25 332.62 273.00 330.90 273.12 329.88 C 273.25 328.85 273.15 328.42 273.88 327.38 C 274.60 326.33 276.83 324.56 277.50 323.62 C 278.17 322.69 278.12 322.77 277.88 321.75 C 277.62 320.73 276.92 318.81 276.00 317.50 C 275.08 316.19 274.44 315.38 272.38 313.88 C 270.31 312.38 268.54 309.19 263.62 308.50 Z" id="s-12-f-2"/>
<path d="M 264.12 308.50 C 260.35 308.48 247.25 309.38 242.88 309.75 C 238.50 310.12 238.69 310.06 237.88 310.75 C 237.06 311.44 237.52 311.44 238.00 313.88 C 238.48 316.31 240.12 322.23 240.75 325.38 C 241.38 328.52 241.60 329.62 241.75 332.75 C 241.90 335.88 241.44 341.02 241.62 344.12 C 241.81 347.23 242.67 349.35 242.88 351.38 C 243.08 353.40 242.79 355.31 242.88 356.25 C 242.96 357.19 238.96 356.88 243.38 357.00 C 247.79 357.12 264.98 357.06 269.38 357.00 C 273.77 356.94 269.67 358.08 269.75 356.62 C 269.83 355.17 269.65 350.10 269.88 348.25 C 270.10 346.40 270.88 346.69 271.12 345.50 C 271.38 344.31 271.23 342.02 271.38 341.12 C 271.52 340.23 271.83 341.12 272.00 340.12 C 272.17 339.12 272.19 336.23 272.38 335.12 C 272.56 334.02 273.00 334.38 273.12 333.50 C 273.25 332.62 272.98 330.96 273.12 329.88 C 273.27 328.79 273.38 327.90 274.00 327.00 C 274.62 326.10 276.25 325.12 276.88 324.50 C 277.50 323.88 277.58 323.71 277.75 323.25 C 277.92 322.79 278.04 322.52 277.88 321.75 C 277.71 320.98 277.50 319.79 276.75 318.62 C 276.00 317.46 274.81 316.02 273.38 314.75 C 271.94 313.48 269.44 311.81 268.12 311.00 C 266.81 310.19 266.17 310.29 265.50 309.88 C 264.83 309.46 267.90 308.52 264.12 308.50 Z" id="s-12-f-3"/>
</g>
</svg>