<?xml version="1.0" encoding="UTF-8"?>
<svg xmlns="http://www.w3.org/2000/svg" viewBox="0 0 500 500">
<defs>
<path d="M 40.38 121.88 C 38.62 121.88 39.31 121.83 38.62 122.12 C 37.94 122.42 36.85 123.06 36.25 123.62 C 35.65 124.19 35.19 124.48 35.00 125.50 C 34.81 126.52 34.31 127.69 35.12 129.75 C 35.94 131.81 38.77 135.73 39.88 137.88 C 40.98 140.02 41.10 140.50 41.75 142.62 C 42.40 144.75 43.25 148.21 43.75 150.62 C 44.25 153.04 44.42 153.50 44.75 157.12 C 45.08 160.75 45.65 159.71 45.75 172.38 C 45.85 185.04 45.71 216.83 45.38 233.12 C 45.04 249.42 44.69 258.73 43.75 270.12 C 42.81 281.52 40.75 294.48 39.75 301.50 C 38.75 308.52 38.35 309.62 37.75 312.25 C 37.15 314.88 36.42 314.56 36.12 317.25 C 35.83 319.94 35.85 325.56 36.00 328.38 C 36.15 331.19 36.50 332.10 37.00 334.12 C 37.50 336.15 37.83 337.79 39.00 340.50 C 40.17 343.21 42.75 348.12 44.00 350.38 C 45.25 352.62 45.38 352.69 46.50 354.00 C 47.62 355.31 49.54 357.29 50.75 358.25 C 51.96 359.21 52.79 359.48 53.75 359.75 C 54.71 360.02 55.60 360.15 56.50 359.88 C 57.40 359.60 58.42 358.96 59.12 358.12 C 59.83 357.29 60.27 356.81 60.75 354.88 C 61.23 352.94 61.67 348.19 62.00 346.50 C 62.33 344.81 62.25 347.92 62.75 344.75 C 63.25 341.58 64.17 343.52 65.00 327.50 C 65.83 311.48 66.94 279.65 67.75 248.62 C 68.56 217.60 70.98 161.92 69.88 141.38 C 68.77 120.83 63.65 128.42 61.12 125.38 C 58.60 122.33 56.75 123.67 54.75 123.12 C 52.75 122.58 51.52 122.33 49.12 122.12 C 46.73 121.92 42.12 121.88 40.38 121.88 Z" id="s-0-f-0"/>
<clipPath id="c-s-0"><use href="#s-0-f-0"/></clipPath>
<path d="M 127.38 108.00 C 126.27 108.17 125.96 108.00 123.25 109.12 C 120.54 110.25 117.40 112.65 111.12 114.75 C 104.85 116.85 93.40 119.85 85.62 121.75 C 77.85 123.65 68.48 125.25 64.50 126.12 C 60.52 127.00 62.23 126.73 61.75 127.00 C 61.27 127.27 60.38 125.27 61.62 127.75 C 62.88 130.23 67.69 139.54 69.25 141.88 C 70.81 144.21 69.44 142.35 71.00 141.75 C 72.56 141.15 75.21 139.54 78.62 138.25 C 82.04 136.96 88.06 134.98 91.50 134.00 C 94.94 133.02 97.27 132.71 99.25 132.38 C 101.23 132.04 101.15 132.04 103.38 132.00 C 105.60 131.96 109.50 131.94 112.62 132.12 C 115.75 132.31 120.12 132.81 122.12 133.12 C 124.12 133.44 124.00 133.69 124.62 134.00 C 125.25 134.31 125.33 134.33 125.88 135.00 C 126.42 135.67 127.38 136.50 127.88 138.00 C 128.38 139.50 128.56 134.12 128.88 144.00 C 129.19 153.88 129.60 176.23 129.75 197.25 C 129.90 218.27 129.92 252.56 129.75 270.12 C 129.58 287.69 129.10 294.56 128.75 302.62 C 128.40 310.69 127.96 314.98 127.62 318.50 C 127.29 322.02 128.50 320.65 126.75 323.75 C 125.00 326.85 118.75 334.65 117.12 337.12 C 115.50 339.60 116.10 336.50 117.00 338.62 C 117.90 340.75 120.67 345.69 122.50 349.88 C 124.33 354.06 126.75 360.83 128.00 363.75 C 129.25 366.67 129.08 366.15 130.00 367.38 C 130.92 368.60 132.62 370.38 133.50 371.12 C 134.38 371.88 134.73 371.75 135.25 371.88 C 135.77 372.00 135.73 372.06 136.62 371.88 C 137.52 371.69 139.52 371.23 140.62 370.75 C 141.73 370.27 141.88 370.17 143.25 369.00 C 144.62 367.83 147.00 365.73 148.88 363.75 C 150.75 361.77 152.71 360.00 154.50 357.12 C 156.29 354.25 158.42 349.35 159.62 346.50 C 160.83 343.65 161.08 342.73 161.75 340.00 C 162.42 337.27 163.29 333.54 163.62 330.12 C 163.96 326.71 164.69 330.12 163.75 319.50 C 162.81 308.88 159.29 280.52 158.00 266.38 C 156.71 252.23 156.31 247.10 156.00 234.62 C 155.69 222.15 155.94 205.02 156.12 191.50 C 156.31 177.98 156.81 161.02 157.12 153.50 C 157.44 145.98 157.42 149.08 158.00 146.38 C 158.58 143.67 160.17 139.73 160.62 137.25 C 161.08 134.77 161.06 133.12 160.75 131.50 C 160.44 129.88 160.00 129.08 158.75 127.50 C 157.50 125.92 157.35 124.92 153.25 122.00 C 149.15 119.08 138.02 112.31 134.12 110.00 C 130.23 107.69 131.00 108.46 129.88 108.12 C 128.75 107.79 128.48 107.83 127.38 108.00 Z" id="s-1-f-0"/>
<clipPath id="c-s-1"><use href="#s-1-f-0"/></clipPath>
<path d="M 130.25 221.25 C 129.90 218.98 129.08 220.23 128.12 219.88 C 127.17 219.52 126.71 219.44 124.50 219.12 C 122.29 218.81 117.50 218.19 114.88 218.00 C 112.25 217.81 110.58 217.83 108.75 218.00 C 106.92 218.17 105.94 218.38 103.88 219.00 C 101.81 219.62 98.96 220.94 96.38 221.75 C 93.79 222.56 91.27 223.21 88.38 223.88 C 85.48 224.54 82.15 225.23 79.00 225.75 C 75.85 226.27 71.42 226.58 69.50 227.00 C 67.58 227.42 67.83 226.33 67.50 228.25 C 67.17 230.17 67.19 236.60 67.50 238.50 C 67.81 240.40 68.35 239.27 69.38 239.62 C 70.40 239.98 70.62 240.44 73.62 240.62 C 76.62 240.81 83.52 240.90 87.38 240.75 C 91.23 240.60 93.58 240.23 96.75 239.75 C 99.92 239.27 103.04 238.38 106.38 237.88 C 109.71 237.38 113.15 237.27 116.75 236.75 C 120.35 236.23 125.75 235.29 128.00 234.75 C 130.25 234.21 129.88 235.75 130.25 233.50 C 130.62 231.25 130.60 223.52 130.25 221.25 Z" id="s-2-f-0"/>
<clipPath id="c-s-2"><use href="#s-2-f-0"/></clipPath>
<path d="M 127.12 324.38 C 128.52 321.92 127.73 324.00 125.62 323.12 C 123.52 322.25 117.48 319.81 114.50 319.12 C 111.52 318.44 110.92 318.69 107.75 319.00 C 104.58 319.31 99.46 320.21 95.50 321.00 C 91.54 321.79 89.06 322.94 84.00 323.75 C 78.94 324.56 68.40 325.42 65.12 325.88 C 61.85 326.33 64.62 325.85 64.38 326.50 C 64.12 327.15 63.96 327.04 63.62 329.75 C 63.29 332.46 62.50 340.71 62.38 342.75 C 62.25 344.79 61.77 341.98 62.88 342.00 C 63.98 342.02 66.58 342.75 69.00 342.88 C 71.42 343.00 70.04 343.56 77.38 342.75 C 84.71 341.94 106.35 338.81 113.00 338.00 C 119.65 337.19 114.90 340.15 117.25 337.88 C 119.60 335.60 125.73 326.83 127.12 324.38 Z" id="s-3-f-0"/>
<clipPath id="c-s-3"><use href="#s-3-f-0"/></clipPath>
<path d="M 258.62 63.75 C 257.94 64.19 257.27 64.48 257.00 65.50 C 256.73 66.52 256.50 67.44 257.00 69.88 C 257.50 72.31 258.67 76.27 260.00 80.12 C 261.33 83.98 262.67 87.48 265.00 93.00 C 267.33 98.52 271.83 108.60 274.00 113.25 C 276.17 117.90 276.71 118.67 278.00 120.88 C 279.29 123.08 280.48 124.88 281.75 126.50 C 283.02 128.12 284.73 129.88 285.62 130.62 C 286.52 131.38 284.31 131.46 287.12 131.00 C 289.94 130.54 299.29 128.65 302.50 127.88 C 305.71 127.10 305.48 126.98 306.38 126.38 C 307.27 125.77 307.33 125.60 307.88 124.25 C 308.42 122.90 309.33 121.31 309.62 118.25 C 309.92 115.19 309.79 108.79 309.62 105.88 C 309.46 102.96 309.44 103.38 308.62 100.75 C 307.81 98.12 305.75 92.48 304.75 90.12 C 303.75 87.77 303.65 87.98 302.62 86.62 C 301.60 85.27 300.08 83.50 298.62 82.00 C 297.17 80.50 295.96 79.31 293.88 77.62 C 291.79 75.94 288.56 73.48 286.12 71.88 C 283.69 70.27 281.56 69.15 279.25 68.00 C 276.94 66.85 274.42 65.79 272.25 65.00 C 270.08 64.21 268.10 63.60 266.25 63.25 C 264.40 62.90 262.40 62.79 261.12 62.88 C 259.85 62.96 259.31 63.31 258.62 63.75 Z" id="s-4-f-0"/>
<clipPath id="c-s-4"><use href="#s-4-f-0"/></clipPath>
<path d="M 399.88 129.12 C 399.75 128.46 399.56 127.88 398.88 127.00 C 398.19 126.12 397.21 125.04 395.75 123.88 C 394.29 122.71 392.04 121.17 390.12 120.00 C 388.21 118.83 387.58 118.21 384.25 116.88 C 380.92 115.54 373.33 112.81 370.12 112.00 C 366.92 111.19 366.77 111.81 365.00 112.00 C 363.23 112.19 364.77 111.69 359.50 113.12 C 354.23 114.56 342.19 118.38 333.38 120.62 C 324.56 122.88 311.65 125.62 306.62 126.62 C 301.60 127.62 304.12 126.50 303.25 126.62 C 302.38 126.75 303.98 126.85 301.38 127.38 C 298.77 127.90 290.96 129.02 287.62 129.75 C 284.29 130.48 288.40 130.25 281.38 131.75 C 274.35 133.25 259.46 136.21 245.50 138.75 C 231.54 141.29 206.52 145.27 197.62 147.00 C 188.73 148.73 193.23 148.54 192.12 149.12 C 191.02 149.71 191.21 150.12 191.00 150.50 C 190.79 150.88 190.75 150.92 190.88 151.38 C 191.00 151.83 191.17 152.54 191.75 153.25 C 192.33 153.96 193.35 154.88 194.38 155.62 C 195.40 156.38 195.81 156.71 197.88 157.75 C 199.94 158.79 204.42 160.88 206.75 161.88 C 209.08 162.88 210.31 163.29 211.88 163.75 C 213.44 164.21 214.38 164.44 216.12 164.62 C 217.88 164.81 220.38 165.04 222.38 164.88 C 224.38 164.71 226.46 164.10 228.12 163.62 C 229.79 163.15 228.17 163.27 232.38 162.00 C 236.58 160.73 246.62 157.83 253.38 156.00 C 260.12 154.17 264.73 152.83 272.88 151.00 C 281.02 149.17 290.40 147.00 302.25 145.00 C 314.10 143.00 333.50 140.33 344.00 139.00 C 354.50 137.67 357.44 137.60 365.25 137.00 C 373.06 136.40 385.65 135.92 390.88 135.38 C 396.10 134.83 395.42 134.19 396.62 133.75 C 397.83 133.31 397.62 133.21 398.12 132.75 C 398.62 132.29 399.33 131.60 399.62 131.00 C 399.92 130.40 400.00 129.79 399.88 129.12 Z" id="s-5-f-0"/>
<clipPath id="c-s-5"><use href="#s-5-f-0"/></clipPath>
<path d="M 272.62 191.25 C 271.60 190.23 270.94 189.73 269.62 188.88 C 268.31 188.02 267.67 187.27 264.75 186.12 C 261.83 184.98 255.35 182.88 252.12 182.00 C 248.90 181.12 247.12 181.04 245.38 180.88 C 243.62 180.71 242.62 180.83 241.62 181.00 C 240.62 181.17 239.83 181.58 239.38 181.88 C 238.92 182.17 239.12 180.67 238.88 182.75 C 238.62 184.83 238.21 191.77 237.88 194.38 C 237.54 196.98 238.06 195.35 236.88 198.38 C 235.69 201.40 232.77 208.31 230.75 212.50 C 228.73 216.69 226.92 219.83 224.75 223.50 C 222.58 227.17 221.15 229.56 217.75 234.50 C 214.35 239.44 208.58 247.48 204.38 253.12 C 200.17 258.77 196.71 263.31 192.50 268.38 C 188.29 273.44 181.31 280.73 179.12 283.50 C 176.94 286.27 178.96 284.60 179.38 285.00 C 179.79 285.40 180.67 285.77 181.62 285.88 C 182.58 285.98 181.85 287.15 185.12 285.62 C 188.40 284.10 194.75 281.27 201.25 276.75 C 207.75 272.23 218.42 263.35 224.12 258.50 C 229.83 253.65 232.12 251.08 235.50 247.62 C 238.88 244.17 241.42 241.27 244.38 237.75 C 247.33 234.23 249.48 230.73 253.25 226.50 C 257.02 222.27 263.23 216.06 267.00 212.38 C 270.77 208.69 274.25 206.06 275.88 204.38 C 277.50 202.69 276.60 203.38 276.75 202.25 C 276.90 201.12 276.92 198.83 276.75 197.62 C 276.58 196.42 276.44 196.06 275.75 195.00 C 275.06 193.94 273.65 192.27 272.62 191.25 Z" id="s-6-f-0"/>
<clipPath id="c-s-6"><use href="#s-6-f-0"/></clipPath>
<path d="M 312.12 170.25 C 311.81 170.90 311.79 172.02 311.88 172.75 C 311.96 173.48 311.38 173.29 312.62 174.62 C 313.88 175.96 317.04 178.79 319.38 180.75 C 321.71 182.71 324.23 184.31 326.62 186.38 C 329.02 188.44 328.31 187.52 333.75 193.12 C 339.19 198.73 352.67 213.38 359.25 220.00 C 365.83 226.62 369.85 230.08 373.25 232.88 C 376.65 235.67 377.67 235.79 379.62 236.75 C 381.58 237.71 383.17 238.29 385.00 238.62 C 386.83 238.96 389.25 238.90 390.62 238.75 C 392.00 238.60 392.06 238.58 393.25 237.75 C 394.44 236.92 396.50 235.42 397.75 233.75 C 399.00 232.08 399.96 229.83 400.75 227.75 C 401.54 225.67 402.15 222.96 402.50 221.25 C 402.85 219.54 402.85 219.27 402.88 217.50 C 402.90 215.73 402.83 212.40 402.62 210.62 C 402.42 208.85 402.10 208.21 401.62 206.88 C 401.15 205.54 400.50 203.94 399.75 202.62 C 399.00 201.31 398.21 200.12 397.12 199.00 C 396.04 197.88 395.21 197.21 393.25 195.88 C 391.29 194.54 388.40 192.65 385.38 191.00 C 382.35 189.35 378.83 187.67 375.12 186.00 C 371.42 184.33 367.56 182.67 363.12 181.00 C 358.69 179.33 354.00 177.65 348.50 176.00 C 343.00 174.35 335.04 172.27 330.12 171.12 C 325.21 169.98 321.73 169.50 319.00 169.12 C 316.27 168.75 314.90 168.69 313.75 168.88 C 312.60 169.06 312.44 169.60 312.12 170.25 Z" id="s-7-f-0"/>
<clipPath id="c-s-7"><use href="#s-7-f-0"/></clipPath>
<path d="M 341.62 234.12 C 339.69 232.33 336.31 229.33 333.00 227.00 C 329.69 224.67 324.46 221.60 321.75 220.12 C 319.04 218.65 318.46 218.48 316.75 218.12 C 315.04 217.77 312.71 217.83 311.50 218.00 C 310.29 218.17 310.02 218.69 309.50 219.12 C 308.98 219.56 308.65 220.08 308.38 220.62 C 308.10 221.17 307.94 221.35 307.88 222.38 C 307.81 223.40 307.69 224.58 308.00 226.75 C 308.31 228.92 309.60 230.88 309.75 235.38 C 309.90 239.88 309.38 248.62 308.88 253.75 C 308.38 258.88 307.60 262.06 306.75 266.12 C 305.90 270.19 305.06 273.75 303.75 278.12 C 302.44 282.50 301.04 286.88 298.88 292.38 C 296.71 297.88 294.25 304.46 290.75 311.12 C 287.25 317.79 281.08 327.33 277.88 332.38 C 274.67 337.42 274.25 337.85 271.50 341.38 C 268.75 344.90 265.04 349.52 261.38 353.50 C 257.71 357.48 253.67 361.42 249.50 365.25 C 245.33 369.08 241.56 372.46 236.38 376.50 C 231.19 380.54 224.08 385.79 218.38 389.50 C 212.67 393.21 206.69 396.35 202.12 398.75 C 197.56 401.15 195.98 401.85 191.00 403.88 C 186.02 405.90 177.88 409.02 172.25 410.88 C 166.62 412.73 160.33 413.94 157.25 415.00 C 154.17 416.06 154.44 416.52 153.75 417.25 C 153.06 417.98 152.67 418.79 153.12 419.38 C 153.58 419.96 154.65 420.21 156.50 420.75 C 158.35 421.29 160.23 422.29 164.25 422.62 C 168.27 422.96 175.81 422.94 180.62 422.75 C 185.44 422.56 189.27 422.02 193.12 421.50 C 196.98 420.98 199.10 420.77 203.75 419.62 C 208.40 418.48 215.54 416.60 221.00 414.62 C 226.46 412.65 231.65 410.25 236.50 407.75 C 241.35 405.25 245.65 402.65 250.12 399.62 C 254.60 396.60 259.06 393.19 263.38 389.62 C 267.69 386.06 272.40 381.69 276.00 378.25 C 279.60 374.81 282.38 371.83 285.00 369.00 C 287.62 366.17 289.44 364.10 291.75 361.25 C 294.06 358.40 295.71 356.48 298.88 351.88 C 302.04 347.27 306.79 340.65 310.75 333.62 C 314.71 326.60 319.62 316.21 322.62 309.75 C 325.62 303.29 326.21 301.75 328.75 294.88 C 331.29 288.00 335.25 275.12 337.88 268.50 C 340.50 261.88 343.06 258.31 344.50 255.12 C 345.94 251.94 346.10 250.88 346.50 249.38 C 346.90 247.88 346.88 247.44 346.88 246.12 C 346.88 244.81 346.88 242.90 346.50 241.50 C 346.12 240.10 345.44 238.98 344.62 237.75 C 343.81 236.52 343.56 235.92 341.62 234.12 Z" id="s-8-f-0"/>
<clipPath id="c-s-8"><use href="#s-8-f-0"/></clipPath>
<path d="M 218.50 273.12 C 218.04 274.04 217.81 275.48 217.88 276.50 C 217.94 277.52 218.42 278.54 218.88 279.25 C 219.33 279.96 219.60 280.29 220.62 280.75 C 221.65 281.21 223.10 281.12 225.00 282.00 C 226.90 282.88 229.67 284.50 232.00 286.00 C 234.33 287.50 236.65 289.21 239.00 291.00 C 241.35 292.79 241.90 292.88 246.12 296.75 C 250.35 300.62 259.94 309.79 264.38 314.25 C 268.81 318.71 269.52 319.62 272.75 323.50 C 275.98 327.38 280.12 333.19 283.75 337.50 C 287.38 341.81 292.40 346.94 294.50 349.38 C 296.60 351.81 295.69 351.38 296.38 352.12 C 297.06 352.88 294.08 348.65 298.62 353.88 C 303.17 359.10 316.52 375.23 323.62 383.50 C 330.73 391.77 336.31 398.00 341.25 403.50 C 346.19 409.00 350.00 413.10 353.25 416.50 C 356.50 419.90 358.52 421.81 360.75 423.88 C 362.98 425.94 364.48 427.42 366.62 428.88 C 368.77 430.33 371.52 431.67 373.62 432.62 C 375.73 433.58 377.56 434.12 379.25 434.62 C 380.94 435.12 380.52 435.46 383.75 435.62 C 386.98 435.79 392.58 436.10 398.62 435.62 C 404.67 435.15 410.06 434.44 420.00 432.75 C 429.94 431.06 451.25 426.96 458.25 425.50 C 465.25 424.04 461.10 424.52 462.00 424.00 C 462.90 423.48 463.31 423.02 463.62 422.38 C 463.94 421.73 463.90 420.67 463.88 420.12 C 463.85 419.58 463.92 419.62 463.50 419.12 C 463.08 418.62 462.08 417.65 461.38 417.12 C 460.67 416.60 460.44 416.42 459.25 416.00 C 458.06 415.58 459.83 416.71 454.25 414.62 C 448.67 412.54 434.71 407.17 425.75 403.50 C 416.79 399.83 408.12 396.08 400.50 392.62 C 392.88 389.17 386.62 386.23 380.00 382.75 C 373.38 379.27 367.17 375.92 360.75 371.75 C 354.33 367.58 349.21 363.73 341.50 357.75 C 333.79 351.77 322.98 343.38 314.50 335.88 C 306.02 328.38 294.83 316.69 290.62 312.75 C 286.42 308.81 292.29 315.00 289.25 312.25 C 286.21 309.50 277.85 301.12 272.38 296.25 C 266.90 291.38 260.56 286.23 256.38 283.00 C 252.19 279.77 250.27 278.69 247.25 276.88 C 244.23 275.06 240.94 273.27 238.25 272.12 C 235.56 270.98 233.67 270.33 231.12 270.00 C 228.58 269.67 224.75 269.96 223.00 270.12 C 221.25 270.29 221.38 270.50 220.62 271.00 C 219.88 271.50 218.96 272.21 218.50 273.12 Z" id="s-9-f-0"/>
<clipPath id="c-s-9"><use href="#s-9-f-0"/></clipPath>
</defs>
<g id="s-0" clip-path="url(#c-s-0)">
<use href="#s-0-f-0"/>
<path d="M 39.12 122.00 C 37.02 122.21 37.17 122.83 36.50 123.38 C 35.83 123.92 35.40 124.40 35.12 125.25 C 34.85 126.10 34.88 127.75 34.88 128.50 C 34.88 129.25 34.29 128.19 35.12 129.75 C 35.96 131.31 38.77 135.73 39.88 137.88 C 40.98 140.02 41.10 140.50 41.75 142.62 C 42.40 144.75 43.25 148.21 43.75 150.62 C 44.25 153.04 44.42 153.50 44.75 157.12 C 45.08 160.75 45.58 163.42 45.75 172.38 C 45.92 181.33 45.92 197.29 45.75 210.88 C 45.58 224.46 45.08 244.00 44.75 253.88 C 44.42 263.75 44.42 263.27 43.75 270.12 C 43.08 276.98 41.58 288.79 40.75 295.00 C 39.92 301.21 39.35 304.29 38.75 307.38 C 38.15 310.46 37.06 312.40 37.12 313.50 C 37.19 314.60 34.50 313.94 39.12 314.00 C 43.75 314.06 60.48 313.98 64.88 313.88 C 69.27 313.77 65.04 323.52 65.50 313.38 C 65.96 303.23 66.90 281.67 67.62 253.00 C 68.35 224.33 70.96 162.65 69.88 141.38 C 68.79 120.10 63.65 128.42 61.12 125.38 C 58.60 122.33 56.75 123.67 54.75 123.12 C 52.75 122.58 51.73 122.31 49.12 122.12 C 46.52 121.94 41.23 121.79 39.12 122.00 Z" id="s-0-f-1"/>
<path d="M 39.12 122.00 C 37.02 122.21 37.17 122.83 36.50 123.38 C 35.83 123.92 35.40 124.40 35.12 125.25 C 34.85 126.10 34.88 127.75 34.88 128.50 C 34.88 129.25 34.29 128.19 35.12 129.75 C 35.96 131.31 38.60 135.17 39.88 137.88 C 41.15 140.58 41.94 142.79 42.75 146.00 C 43.56 149.21 44.27 153.38 44.75 157.12 C 45.23 160.88 45.46 159.54 45.62 168.50 C 45.79 177.46 46.00 194.77 45.75 210.88 C 45.50 226.98 44.19 255.98 44.12 265.12 C 44.06 274.27 41.60 265.67 45.38 265.75 C 49.15 265.83 63.00 269.29 66.75 265.62 C 70.50 261.96 67.35 264.46 67.88 243.75 C 68.40 223.04 71.00 161.10 69.88 141.38 C 68.75 121.65 63.65 128.42 61.12 125.38 C 58.60 122.33 56.75 123.67 54.75 123.12 C 52.75 122.58 51.73 122.31 49.12 122.12 C 46.52 121.94 41.23 121.79 39.12 122.00 Z" id="s-0-f-2"/>
<path d="M 38.62 122.12 C 36.52 122.33 37.08 122.85 36.50 123.38 C 35.92 123.90 35.40 124.40 35.12 125.25 C 34.85 126.10 34.88 127.75 34.88 128.50 C 34.88 129.25 34.29 128.19 35.12 129.75 C 35.96 131.31 38.77 135.73 39.88 137.88 C 40.98 140.02 41.10 140.50 41.75 142.62 C 42.40 144.75 43.25 148.21 43.75 150.62 C 44.25 153.04 44.42 153.50 44.75 157.12 C 45.08 160.75 45.58 162.31 45.75 172.38 C 45.92 182.44 45.48 209.90 45.75 217.50 C 46.02 225.10 43.73 217.94 47.38 218.00 C 51.02 218.06 64.15 217.98 67.62 217.88 C 71.10 217.77 67.88 230.12 68.25 217.38 C 68.62 204.62 71.06 156.71 69.88 141.38 C 68.69 126.04 63.65 128.42 61.12 125.38 C 58.60 122.33 56.75 123.67 54.75 123.12 C 52.75 122.58 51.81 122.29 49.12 122.12 C 46.44 121.96 40.73 121.92 38.62 122.12 Z" id="s-0-f-3"/>
<path d="M 37.12 122.88 C 36.23 123.48 35.35 124.42 35.00 125.50 C 34.65 126.58 34.19 127.31 35.00 129.38 C 35.81 131.44 38.58 135.10 39.88 137.88 C 41.17 140.65 41.94 142.79 42.75 146.00 C 43.56 149.21 44.25 153.27 44.75 157.12 C 45.25 160.98 44.42 167.00 45.75 169.12 C 47.08 171.25 48.90 169.77 52.75 169.88 C 56.60 169.98 66.08 170.23 68.88 169.75 C 71.67 169.27 69.33 171.73 69.50 167.00 C 69.67 162.27 71.15 148.17 69.88 141.38 C 68.60 134.58 63.33 128.92 61.88 126.25 C 60.42 123.58 61.81 125.75 61.12 125.38 C 60.44 125.00 59.75 124.54 57.75 124.00 C 55.75 123.46 52.02 122.48 49.12 122.12 C 46.23 121.77 42.38 121.75 40.38 121.88 C 38.38 122.00 38.02 122.27 37.12 122.88 Z" id="s-0-f-4"/>
</g>
<g id="s-1" clip-path="url(#c-s-1)">
<use href="#s-1-f-0"/>
<path d="M 127.38 108.00 C 126.27 108.17 125.96 108.00 123.25 109.12 C 120.54 110.25 117.40 112.65 111.12 114.75 C 104.85 116.85 93.40 119.85 85.62 121.75 C 77.85 123.65 68.48 125.25 64.50 126.12 C 60.52 127.00 62.23 126.73 61.75 127.00 C 61.27 127.27 60.38 125.27 61.62 127.75 C 62.88 130.23 67.69 139.54 69.25 141.88 C 70.81 144.21 69.77 142.23 71.00 141.75 C 72.23 141.27 73.21 140.29 76.62 139.00 C 80.04 137.71 87.73 135.10 91.50 134.00 C 95.27 132.90 97.27 132.71 99.25 132.38 C 101.23 132.04 100.98 132.04 103.38 132.00 C 105.77 131.96 110.50 131.94 113.62 132.12 C 116.75 132.31 120.29 132.81 122.12 133.12 C 123.96 133.44 124.00 133.69 124.62 134.00 C 125.25 134.31 125.33 134.33 125.88 135.00 C 126.42 135.67 127.38 136.50 127.88 138.00 C 128.38 139.50 128.58 137.83 128.88 144.00 C 129.17 150.17 129.46 158.29 129.62 175.00 C 129.79 191.71 129.88 227.21 129.88 244.25 C 129.88 261.29 129.81 267.52 129.62 277.25 C 129.44 286.98 129.04 296.92 128.75 302.62 C 128.46 308.33 128.04 301.67 127.88 311.50 C 127.71 321.33 127.73 352.96 127.75 361.62 C 127.77 370.29 127.42 362.27 128.00 363.50 C 128.58 364.73 130.19 367.65 131.25 369.00 C 132.31 370.35 133.48 371.15 134.38 371.62 C 135.27 372.10 135.58 372.02 136.62 371.88 C 137.67 371.73 139.52 371.23 140.62 370.75 C 141.73 370.27 141.60 370.46 143.25 369.00 C 144.90 367.54 148.62 363.98 150.50 362.00 C 152.38 360.02 152.98 359.71 154.50 357.12 C 156.02 354.54 158.42 349.35 159.62 346.50 C 160.83 343.65 161.08 342.73 161.75 340.00 C 162.42 337.27 163.29 333.54 163.62 330.12 C 163.96 326.71 164.69 330.12 163.75 319.50 C 162.81 308.88 159.29 280.52 158.00 266.38 C 156.71 252.23 156.31 247.10 156.00 234.62 C 155.69 222.15 155.96 204.54 156.12 191.50 C 156.29 178.46 156.69 163.90 157.00 156.38 C 157.31 148.85 157.40 149.56 158.00 146.38 C 158.60 143.19 160.17 139.73 160.62 137.25 C 161.08 134.77 161.06 133.12 160.75 131.50 C 160.44 129.88 160.00 129.08 158.75 127.50 C 157.50 125.92 157.35 124.92 153.25 122.00 C 149.15 119.08 138.02 112.31 134.12 110.00 C 130.23 107.69 131.00 108.46 129.88 108.12 C 128.75 107.79 128.48 107.83 127.38 108.00 Z" id="s-1-f-1"/>
<path d="M 127.38 108.00 C 126.33 108.15 126.33 107.88 123.62 109.00 C 120.92 110.12 117.46 112.62 111.12 114.75 C 104.79 116.88 93.40 119.85 85.62 121.75 C 77.85 123.65 68.48 125.25 64.50 126.12 C 60.52 127.00 62.23 126.73 61.75 127.00 C 61.27 127.27 60.38 125.27 61.62 127.75 C 62.88 130.23 67.69 139.54 69.25 141.88 C 70.81 144.21 69.77 142.23 71.00 141.75 C 72.23 141.27 73.21 140.29 76.62 139.00 C 80.04 137.71 87.73 135.10 91.50 134.00 C 95.27 132.90 97.27 132.71 99.25 132.38 C 101.23 132.04 100.98 132.04 103.38 132.00 C 105.77 131.96 110.50 131.94 113.62 132.12 C 116.75 132.31 120.29 132.81 122.12 133.12 C 123.96 133.44 123.92 133.60 124.62 134.00 C 125.33 134.40 125.85 134.90 126.38 135.50 C 126.90 136.10 127.33 136.21 127.75 137.62 C 128.17 139.04 128.56 137.77 128.88 144.00 C 129.19 150.23 129.46 159.96 129.62 175.00 C 129.79 190.04 129.88 217.21 129.88 234.25 C 129.88 251.29 129.81 265.85 129.62 277.25 C 129.44 288.65 129.04 296.92 128.75 302.62 C 128.46 308.33 128.02 302.67 127.88 311.50 C 127.73 320.33 127.56 348.21 127.88 355.62 C 128.19 363.04 125.29 355.96 129.75 356.00 C 134.21 356.04 150.31 356.02 154.62 355.88 C 158.94 355.73 154.98 356.23 155.62 355.12 C 156.27 354.02 157.48 351.77 158.50 349.25 C 159.52 346.73 160.92 343.02 161.75 340.00 C 162.58 336.98 163.15 333.38 163.50 331.12 C 163.85 328.88 163.83 328.44 163.88 326.50 C 163.92 324.56 164.73 329.52 163.75 319.50 C 162.77 309.48 159.29 280.52 158.00 266.38 C 156.71 252.23 156.31 247.10 156.00 234.62 C 155.69 222.15 155.98 204.10 156.12 191.50 C 156.27 178.90 156.56 166.52 156.88 159.00 C 157.19 151.48 157.35 150.12 158.00 146.38 C 158.65 142.62 160.29 138.98 160.75 136.50 C 161.21 134.02 160.92 132.73 160.75 131.50 C 160.58 130.27 160.27 130.02 159.75 129.12 C 159.23 128.23 158.96 127.50 157.62 126.12 C 156.29 124.75 154.23 122.60 151.75 120.88 C 149.27 119.15 145.60 117.52 142.75 115.75 C 139.90 113.98 136.77 111.52 134.62 110.25 C 132.48 108.98 131.08 108.50 129.88 108.12 C 128.67 107.75 128.42 107.85 127.38 108.00 Z" id="s-1-f-2"/>
<path d="M 61.75 127.00 C 57.77 128.04 60.50 125.52 61.75 128.00 C 63.00 130.48 67.71 139.58 69.25 141.88 C 70.79 144.17 69.77 142.23 71.00 141.75 C 72.23 141.27 73.21 140.29 76.62 139.00 C 80.04 137.71 87.73 135.10 91.50 134.00 C 95.27 132.90 97.27 132.71 99.25 132.38 C 101.23 132.04 100.98 132.04 103.38 132.00 C 105.77 131.96 110.50 131.94 113.62 132.12 C 116.75 132.31 120.29 132.81 122.12 133.12 C 123.96 133.44 123.71 133.29 124.62 134.00 C 125.54 134.71 126.94 136.10 127.62 137.38 C 128.31 138.65 128.48 138.08 128.75 141.62 C 129.02 145.17 129.06 143.19 129.25 158.62 C 129.44 174.06 129.81 214.48 129.88 234.25 C 129.94 254.02 129.81 265.85 129.62 277.25 C 129.44 288.65 129.00 297.62 128.75 302.62 C 128.50 307.62 128.10 306.38 128.12 307.25 C 128.15 308.12 128.44 307.75 128.88 307.88 C 129.31 308.00 125.25 308.00 130.75 308.00 C 136.25 308.00 156.62 308.08 161.88 307.88 C 167.12 307.67 162.71 311.67 162.25 306.75 C 161.79 301.83 160.00 287.12 159.12 278.38 C 158.25 269.62 157.52 261.54 157.00 254.25 C 156.48 246.96 156.15 245.08 156.00 234.62 C 155.85 224.17 155.98 204.10 156.12 191.50 C 156.27 178.90 156.56 166.52 156.88 159.00 C 157.19 151.48 157.33 150.31 158.00 146.38 C 158.67 142.44 160.42 137.85 160.88 135.38 C 161.33 132.90 160.94 132.54 160.75 131.50 C 160.56 130.46 160.50 130.27 159.75 129.12 C 159.00 127.98 157.58 126.00 156.25 124.62 C 154.92 123.25 154.00 122.35 151.75 120.88 C 149.50 119.40 145.60 117.52 142.75 115.75 C 139.90 113.98 136.85 111.54 134.62 110.25 C 132.40 108.96 130.73 108.35 129.38 108.00 C 128.02 107.65 127.46 107.96 126.50 108.12 C 125.54 108.29 126.19 107.90 123.62 109.00 C 121.06 110.10 117.46 112.62 111.12 114.75 C 104.79 116.88 93.85 119.71 85.62 121.75 C 77.40 123.79 65.73 125.96 61.75 127.00 Z" id="s-1-f-3"/>
<path d="M 61.75 127.00 C 57.77 128.04 60.50 125.52 61.75 128.00 C 63.00 130.48 67.71 139.58 69.25 141.88 C 70.79 144.17 69.77 142.23 71.00 141.75 C 72.23 141.27 73.21 140.29 76.62 139.00 C 80.04 137.71 87.73 135.10 91.50 134.00 C 95.27 132.90 96.27 132.71 99.25 132.38 C 102.23 132.04 105.67 131.90 109.38 132.00 C 113.08 132.10 118.96 132.67 121.50 133.00 C 124.04 133.33 123.81 133.58 124.62 134.00 C 125.44 134.42 125.83 134.83 126.38 135.50 C 126.92 136.17 127.46 136.58 127.88 138.00 C 128.29 139.42 128.58 137.83 128.88 144.00 C 129.17 150.17 129.44 156.96 129.62 175.00 C 129.81 193.04 129.69 238.35 130.00 252.25 C 130.31 266.15 130.15 257.10 131.50 258.38 C 132.85 259.65 133.85 259.62 138.12 259.88 C 142.40 260.12 153.88 260.10 157.12 259.88 C 160.38 259.65 157.65 259.44 157.62 258.50 C 157.60 257.56 157.27 258.23 157.00 254.25 C 156.73 250.27 156.15 245.08 156.00 234.62 C 155.85 224.17 155.98 204.10 156.12 191.50 C 156.27 178.90 156.56 166.52 156.88 159.00 C 157.19 151.48 157.33 150.31 158.00 146.38 C 158.67 142.44 160.42 137.85 160.88 135.38 C 161.33 132.90 161.10 132.81 160.75 131.50 C 160.40 130.19 159.73 128.85 158.75 127.50 C 157.77 126.15 156.50 124.79 154.88 123.38 C 153.25 121.96 151.02 120.27 149.00 119.00 C 146.98 117.73 145.15 117.21 142.75 115.75 C 140.35 114.29 136.85 111.54 134.62 110.25 C 132.40 108.96 130.73 108.35 129.38 108.00 C 128.02 107.65 127.46 107.96 126.50 108.12 C 125.54 108.29 126.19 107.90 123.62 109.00 C 121.06 110.10 117.46 112.62 111.12 114.75 C 104.79 116.88 93.85 119.71 85.62 121.75 C 77.40 123.79 65.73 125.96 61.75 127.00 Z" id="s-1-f-4"/>
<path d="M 61.75 127.00 C 57.77 128.04 60.50 125.52 61.75 128.00 C 63.00 130.48 67.71 139.58 69.25 141.88 C 70.79 144.17 69.77 142.23 71.00 141.75 C 72.23 141.27 73.21 140.29 76.62 139.00 C 80.04 137.71 87.73 135.10 91.50 134.00 C 95.27 132.90 95.56 132.69 99.25 132.38 C 102.94 132.06 109.81 132.00 113.62 132.12 C 117.44 132.25 120.29 132.81 122.12 133.12 C 123.96 133.44 124.00 133.69 124.62 134.00 C 125.25 134.31 125.35 134.40 125.88 135.00 C 126.40 135.60 127.27 136.52 127.75 137.62 C 128.23 138.73 128.38 129.44 128.75 141.62 C 129.12 153.81 129.54 199.08 130.00 210.75 C 130.46 222.42 128.50 211.44 131.50 211.62 C 134.50 211.81 144.21 211.90 148.00 211.88 C 151.79 211.85 152.96 211.83 154.25 211.50 C 155.54 211.17 155.27 219.42 155.75 209.88 C 156.23 200.33 156.75 164.83 157.12 154.25 C 157.50 143.67 157.42 149.21 158.00 146.38 C 158.58 143.54 160.17 139.73 160.62 137.25 C 161.08 134.77 160.90 132.85 160.75 131.50 C 160.60 130.15 160.27 130.02 159.75 129.12 C 159.23 128.23 158.44 127.08 157.62 126.12 C 156.81 125.17 156.31 124.56 154.88 123.38 C 153.44 122.19 151.02 120.27 149.00 119.00 C 146.98 117.73 145.15 117.21 142.75 115.75 C 140.35 114.29 136.77 111.52 134.62 110.25 C 132.48 108.98 131.08 108.50 129.88 108.12 C 128.67 107.75 128.42 107.85 127.38 108.00 C 126.33 108.15 126.33 107.88 123.62 109.00 C 120.92 110.12 117.46 112.62 111.12 114.75 C 104.79 116.88 93.85 119.71 85.62 121.75 C 77.40 123.79 65.73 125.96 61.75 127.00 Z" id="s-1-f-5"/>
<path d="M 156.88 163.25 C 157.00 161.65 156.94 157.06 157.12 154.25 C 157.31 151.44 157.38 149.52 158.00 146.38 C 158.62 143.23 160.42 137.85 160.88 135.38 C 161.33 132.90 160.92 132.50 160.75 131.50 C 160.58 130.50 160.62 130.52 159.88 129.38 C 159.12 128.23 157.60 126.04 156.25 124.62 C 154.90 123.21 154.00 122.35 151.75 120.88 C 149.50 119.40 145.35 117.38 142.75 115.75 C 140.15 114.12 138.21 112.38 136.12 111.12 C 134.04 109.88 131.71 108.77 130.25 108.25 C 128.79 107.73 128.48 107.88 127.38 108.00 C 126.27 108.12 126.33 107.88 123.62 109.00 C 120.92 110.12 115.42 113.15 111.12 114.75 C 106.83 116.35 102.69 117.31 97.88 118.62 C 93.06 119.94 87.81 121.38 82.25 122.62 C 76.69 123.88 67.94 125.35 64.50 126.12 C 61.06 126.90 60.83 124.62 61.62 127.25 C 62.42 129.88 67.69 139.46 69.25 141.88 C 70.81 144.29 69.77 142.23 71.00 141.75 C 72.23 141.27 73.21 140.29 76.62 139.00 C 80.04 137.71 87.73 135.10 91.50 134.00 C 95.27 132.90 95.56 132.69 99.25 132.38 C 102.94 132.06 109.92 132.02 113.62 132.12 C 117.33 132.23 119.67 132.69 121.50 133.00 C 123.33 133.31 123.60 133.27 124.62 134.00 C 125.65 134.73 126.96 136.23 127.62 137.38 C 128.29 138.52 128.35 136.67 128.62 140.88 C 128.90 145.08 129.06 158.79 129.25 162.62 C 129.44 166.46 125.50 163.65 129.75 163.88 C 134.00 164.10 150.31 164.00 154.75 164.00 C 159.19 164.00 156.02 164.00 156.38 163.88 C 156.73 163.75 156.75 164.85 156.88 163.25 Z" id="s-1-f-6"/>
<path d="M 142.38 115.50 C 141.35 114.52 137.71 112.08 136.00 111.00 C 134.29 109.92 133.23 109.50 132.12 109.00 C 131.02 108.50 130.31 108.17 129.38 108.00 C 128.44 107.83 129.54 106.88 126.50 108.00 C 123.46 109.12 117.94 112.46 111.12 114.75 C 104.31 117.04 93.40 119.85 85.62 121.75 C 77.85 123.65 68.46 125.25 64.50 126.12 C 60.54 127.00 62.35 126.73 61.88 127.00 C 61.40 127.27 60.42 125.29 61.62 127.75 C 62.83 130.21 67.67 139.40 69.12 141.75 C 70.58 144.10 68.29 142.65 70.38 141.88 C 72.46 141.10 77.50 138.58 81.62 137.12 C 85.75 135.67 91.50 133.98 95.12 133.12 C 98.75 132.27 100.27 132.17 103.38 132.00 C 106.48 131.83 110.94 132.00 113.75 132.12 C 116.56 132.25 115.52 135.29 120.25 132.75 C 124.98 130.21 138.44 119.75 142.12 116.88 C 145.81 114.00 143.40 116.48 142.38 115.50 Z" id="s-1-f-7"/>
<path d="M 109.88 115.50 C 109.73 113.54 111.12 114.60 109.12 115.12 C 107.12 115.65 102.35 117.38 97.88 118.62 C 93.40 119.88 87.81 121.38 82.25 122.62 C 76.69 123.88 67.92 125.40 64.50 126.12 C 61.08 126.85 62.23 126.73 61.75 127.00 C 61.27 127.27 60.38 125.27 61.62 127.75 C 62.88 130.23 67.69 139.54 69.25 141.88 C 70.81 144.21 69.77 142.23 71.00 141.75 C 72.23 141.27 73.21 140.29 76.62 139.00 C 80.04 137.71 87.73 135.10 91.50 134.00 C 95.27 132.90 96.25 132.71 99.25 132.38 C 102.25 132.04 107.71 132.92 109.50 132.00 C 111.29 131.08 109.94 129.62 110.00 126.88 C 110.06 124.12 110.02 117.46 109.88 115.50 Z" id="s-1-f-8"/>
</g>
<g id="s-2" clip-path="url(#c-s-2)">
<use href="#s-2-f-0"/>
<path d="M 115.88 218.62 C 115.75 215.52 116.19 218.10 115.00 218.00 C 113.81 217.90 110.60 217.83 108.75 218.00 C 106.90 218.17 105.94 218.38 103.88 219.00 C 101.81 219.62 98.88 220.96 96.38 221.75 C 93.88 222.54 91.77 223.08 88.88 223.75 C 85.98 224.42 82.23 225.21 79.00 225.75 C 75.77 226.29 71.42 226.58 69.50 227.00 C 67.58 227.42 67.83 226.33 67.50 228.25 C 67.17 230.17 67.19 236.60 67.50 238.50 C 67.81 240.40 68.35 239.27 69.38 239.62 C 70.40 239.98 71.23 240.42 73.62 240.62 C 76.02 240.83 79.90 241.02 83.75 240.88 C 87.60 240.73 93.10 240.23 96.75 239.75 C 100.40 239.27 102.46 238.52 105.62 238.00 C 108.79 237.48 114.04 239.85 115.75 236.62 C 117.46 233.40 116.00 221.73 115.88 218.62 Z" id="s-2-f-1"/>
</g>
<g id="s-3" clip-path="url(#c-s-3)">
<use href="#s-3-f-0"/>
<path d="M 110.88 319.25 C 110.79 316.31 111.27 318.90 110.50 318.88 C 109.73 318.85 108.75 318.77 106.25 319.12 C 103.75 319.48 99.23 320.23 95.50 321.00 C 91.77 321.77 88.94 322.94 83.88 323.75 C 78.81 324.56 68.38 325.42 65.12 325.88 C 61.88 326.33 64.62 325.85 64.38 326.50 C 64.12 327.15 63.96 327.04 63.62 329.75 C 63.29 332.46 62.50 340.71 62.38 342.75 C 62.25 344.79 61.77 341.98 62.88 342.00 C 63.98 342.02 66.58 342.75 69.00 342.88 C 71.42 343.00 70.48 343.48 77.38 342.75 C 84.27 342.02 104.77 339.54 110.38 338.50 C 115.98 337.46 110.92 339.71 111.00 336.50 C 111.08 333.29 110.96 322.19 110.88 319.25 Z" id="s-3-f-1"/>
</g>
<g id="s-4" clip-path="url(#c-s-4)">
<use href="#s-4-f-0"/>
<path d="M 257.75 64.50 C 257.25 65.06 257.00 65.48 256.88 66.38 C 256.75 67.27 256.48 67.58 257.00 69.88 C 257.52 72.17 258.67 76.27 260.00 80.12 C 261.33 83.98 262.79 87.88 265.00 93.00 C 267.21 98.12 265.77 107.94 273.25 110.88 C 280.73 113.81 303.81 111.46 309.88 110.62 C 315.94 109.79 309.81 107.44 309.62 105.88 C 309.44 104.31 309.56 103.88 308.75 101.25 C 307.94 98.62 305.92 92.75 304.75 90.12 C 303.58 87.50 303.40 87.44 301.75 85.50 C 300.10 83.56 297.69 80.90 294.88 78.50 C 292.06 76.10 287.48 72.88 284.88 71.12 C 282.27 69.38 281.35 69.02 279.25 68.00 C 277.15 66.98 274.42 65.79 272.25 65.00 C 270.08 64.21 267.83 63.60 266.25 63.25 C 264.67 62.90 263.81 62.92 262.75 62.88 C 261.69 62.83 260.71 62.73 259.88 63.00 C 259.04 63.27 258.25 63.94 257.75 64.50 Z" id="s-4-f-1"/>
</g>
<g id="s-5" clip-path="url(#c-s-5)">
<use href="#s-5-f-0"/>
<path d="M 382.88 116.88 C 382.73 114.52 384.25 116.81 382.12 116.00 C 380.00 115.19 373.25 112.62 370.12 112.00 C 367.00 111.38 369.50 110.81 363.38 112.25 C 357.25 113.69 342.85 118.23 333.38 120.62 C 323.90 123.02 311.52 125.62 306.50 126.62 C 301.48 127.62 304.10 126.50 303.25 126.62 C 302.40 126.75 303.98 126.85 301.38 127.38 C 298.77 127.90 290.96 129.02 287.62 129.75 C 284.29 130.48 288.40 130.25 281.38 131.75 C 274.35 133.25 259.46 136.21 245.50 138.75 C 231.54 141.29 206.52 145.27 197.62 147.00 C 188.73 148.73 193.19 148.62 192.12 149.12 C 191.06 149.62 191.46 149.58 191.25 150.00 C 191.04 150.42 190.60 150.90 190.88 151.62 C 191.15 152.35 192.00 153.52 192.88 154.38 C 193.75 155.23 193.52 155.38 196.12 156.75 C 198.73 158.12 205.17 161.31 208.50 162.62 C 211.83 163.94 213.81 164.25 216.12 164.62 C 218.44 165.00 220.38 165.04 222.38 164.88 C 224.38 164.71 226.46 164.10 228.12 163.62 C 229.79 163.15 227.52 163.44 232.38 162.00 C 237.23 160.56 247.48 157.50 257.25 155.00 C 267.02 152.50 280.38 149.17 291.00 147.00 C 301.62 144.83 312.17 143.33 321.00 142.00 C 329.83 140.67 336.62 139.83 344.00 139.00 C 351.38 138.17 358.83 137.50 365.25 137.00 C 371.67 136.50 379.54 137.15 382.50 136.00 C 385.46 134.85 382.94 133.31 383.00 130.12 C 383.06 126.94 383.02 119.23 382.88 116.88 Z" id="s-5-f-1"/>
<path d="M 334.88 120.75 C 334.73 117.69 335.81 119.79 334.12 120.12 C 332.44 120.46 329.35 121.67 324.75 122.75 C 320.15 123.83 310.08 125.98 306.50 126.62 C 302.92 127.27 304.10 126.50 303.25 126.62 C 302.40 126.75 303.98 126.85 301.38 127.38 C 298.77 127.90 290.96 129.02 287.62 129.75 C 284.29 130.48 288.40 130.25 281.38 131.75 C 274.35 133.25 259.46 136.21 245.50 138.75 C 231.54 141.29 206.52 145.27 197.62 147.00 C 188.73 148.73 193.19 148.62 192.12 149.12 C 191.06 149.62 191.46 149.58 191.25 150.00 C 191.04 150.42 190.60 150.90 190.88 151.62 C 191.15 152.35 192.00 153.52 192.88 154.38 C 193.75 155.23 193.52 155.38 196.12 156.75 C 198.73 158.12 205.17 161.31 208.50 162.62 C 211.83 163.94 213.48 164.29 216.12 164.62 C 218.77 164.96 217.52 166.23 224.38 164.62 C 231.23 163.02 247.71 157.60 257.25 155.00 C 266.79 152.40 274.12 150.67 281.62 149.00 C 289.12 147.33 293.46 146.44 302.25 145.00 C 311.04 143.56 328.92 141.46 334.38 140.38 C 339.83 139.29 334.92 141.77 335.00 138.50 C 335.08 135.23 335.02 123.81 334.88 120.75 Z" id="s-5-f-2"/>
<path d="M 286.88 130.62 C 286.79 127.71 287.04 130.19 286.12 130.38 C 285.21 130.56 288.15 130.35 281.38 131.75 C 274.60 133.15 259.44 136.21 245.50 138.75 C 231.56 141.29 206.65 145.27 197.75 147.00 C 188.85 148.73 193.25 148.54 192.12 149.12 C 191.00 149.71 191.19 150.00 191.00 150.50 C 190.81 151.00 190.69 151.48 191.00 152.12 C 191.31 152.77 192.02 153.60 192.88 154.38 C 193.73 155.15 193.52 155.38 196.12 156.75 C 198.73 158.12 205.00 161.29 208.50 162.62 C 212.00 163.96 214.48 164.42 217.12 164.75 C 219.77 165.08 217.69 166.25 224.38 164.62 C 231.06 163.00 246.88 157.79 257.25 155.00 C 267.62 152.21 281.69 151.94 286.62 147.88 C 291.56 143.81 286.96 133.54 286.88 130.62 Z" id="s-5-f-3"/>
<path d="M 239.00 140.25 C 238.67 136.94 243.75 138.88 236.88 140.00 C 230.00 141.12 205.21 145.48 197.75 147.00 C 190.29 148.52 193.25 148.54 192.12 149.12 C 191.00 149.71 191.19 150.00 191.00 150.50 C 190.81 151.00 190.67 151.46 191.00 152.12 C 191.33 152.79 191.85 153.56 193.00 154.50 C 194.15 155.44 194.73 156.21 197.88 157.75 C 201.02 159.29 208.67 162.58 211.88 163.75 C 215.08 164.92 215.40 164.56 217.12 164.75 C 218.85 164.94 220.42 165.06 222.25 164.88 C 224.08 164.69 226.44 164.10 228.12 163.62 C 229.81 163.15 230.71 162.50 232.38 162.00 C 234.04 161.50 237.04 160.98 238.12 160.62 C 239.21 160.27 238.73 163.27 238.88 159.88 C 239.02 156.48 239.33 143.56 239.00 140.25 Z" id="s-5-f-4"/>
</g>
<g id="s-6" clip-path="url(#c-s-6)">
<use href="#s-6-f-0"/>
<path d="M 273.50 192.12 C 272.48 191.10 271.08 189.88 269.62 188.88 C 268.17 187.88 267.52 187.23 264.75 186.12 C 261.98 185.02 255.69 183.08 253.00 182.25 C 250.31 181.42 250.52 181.33 248.62 181.12 C 246.73 180.92 243.17 180.88 241.62 181.00 C 240.08 181.12 239.83 181.58 239.38 181.88 C 238.92 182.17 239.12 180.67 238.88 182.75 C 238.62 184.83 238.21 191.77 237.88 194.38 C 237.54 196.98 238.06 195.35 236.88 198.38 C 235.69 201.40 232.77 208.31 230.75 212.50 C 228.73 216.69 226.79 220.02 224.75 223.50 C 222.71 226.98 221.90 228.44 218.50 233.38 C 215.10 238.31 208.71 247.29 204.38 253.12 C 200.04 258.96 195.60 264.54 192.50 268.38 C 189.40 272.21 186.88 274.73 185.75 276.12 C 184.62 277.52 183.17 276.65 185.75 276.75 C 188.33 276.85 196.27 278.62 201.25 276.75 C 206.23 274.88 211.08 269.21 215.62 265.50 C 220.17 261.79 224.29 258.46 228.50 254.50 C 232.71 250.54 236.75 246.42 240.88 241.75 C 245.00 237.08 250.19 230.10 253.25 226.50 C 256.31 222.90 255.48 223.81 259.25 220.12 C 263.02 216.44 272.96 207.35 275.88 204.38 C 278.79 201.40 276.60 203.38 276.75 202.25 C 276.90 201.12 276.92 198.83 276.75 197.62 C 276.58 196.42 276.29 195.92 275.75 195.00 C 275.21 194.08 274.52 193.15 273.50 192.12 Z" id="s-6-f-1"/>
<path d="M 275.75 195.00 C 275.19 193.92 274.48 193.12 273.50 192.12 C 272.52 191.12 271.75 190.17 269.88 189.00 C 268.00 187.83 265.92 186.46 262.25 185.12 C 258.58 183.79 251.31 181.69 247.88 181.00 C 244.44 180.31 243.04 180.85 241.62 181.00 C 240.21 181.15 239.83 181.58 239.38 181.88 C 238.92 182.17 239.12 180.67 238.88 182.75 C 238.62 184.83 238.25 191.67 237.88 194.38 C 237.50 197.08 237.81 195.98 236.62 199.00 C 235.44 202.02 233.25 207.58 230.75 212.50 C 228.25 217.42 222.81 225.75 221.62 228.50 C 220.44 231.25 218.67 228.94 223.62 229.00 C 228.58 229.06 245.31 230.48 251.38 228.88 C 257.44 227.27 255.92 223.46 260.00 219.38 C 264.08 215.29 273.08 207.21 275.88 204.38 C 278.67 201.54 276.58 203.33 276.75 202.38 C 276.92 201.42 277.04 199.85 276.88 198.62 C 276.71 197.40 276.31 196.08 275.75 195.00 Z" id="s-6-f-2"/>
</g>
<g id="s-7" clip-path="url(#c-s-7)">
<use href="#s-7-f-0"/>
<path d="M 313.12 169.12 C 311.96 169.31 312.31 169.50 312.12 170.25 C 311.94 171.00 311.92 172.90 312.00 173.62 C 312.08 174.35 309.17 171.54 312.62 174.62 C 316.08 177.71 324.92 184.54 332.75 192.12 C 340.58 199.71 355.08 215.56 359.62 220.12 C 364.17 224.69 359.96 226.15 360.00 219.50 C 360.04 212.85 360.67 187.15 359.88 180.25 C 359.08 173.35 359.50 179.48 355.25 178.12 C 351.00 176.77 340.40 173.62 334.38 172.12 C 328.35 170.62 322.67 169.62 319.12 169.12 C 315.58 168.62 314.29 168.94 313.12 169.12 Z" id="s-7-f-1"/>
</g>
<g id="s-8" clip-path="url(#c-s-8)">
<use href="#s-8-f-0"/>
<path d="M 340.88 233.38 C 338.94 231.58 336.19 229.21 333.00 227.00 C 329.81 224.79 324.46 221.60 321.75 220.12 C 319.04 218.65 318.46 218.48 316.75 218.12 C 315.04 217.77 312.77 217.77 311.50 218.00 C 310.23 218.23 309.73 218.77 309.12 219.50 C 308.52 220.23 308.06 221.17 307.88 222.38 C 307.69 223.58 307.69 224.58 308.00 226.75 C 308.31 228.92 309.60 230.88 309.75 235.38 C 309.90 239.88 309.38 248.62 308.88 253.75 C 308.38 258.88 307.60 262.06 306.75 266.12 C 305.90 270.19 305.06 273.75 303.75 278.12 C 302.44 282.50 301.04 286.88 298.88 292.38 C 296.71 297.88 294.25 304.46 290.75 311.12 C 287.25 317.79 280.69 327.88 277.88 332.38 C 275.06 336.88 276.02 335.29 273.88 338.12 C 271.73 340.96 268.52 345.35 265.00 349.38 C 261.48 353.40 256.15 358.88 252.75 362.25 C 249.35 365.62 248.75 366.19 244.62 369.62 C 240.50 373.06 232.38 379.56 228.00 382.88 C 223.62 386.19 222.69 386.85 218.38 389.50 C 214.06 392.15 207.38 396.06 202.12 398.75 C 196.88 401.44 191.10 403.92 186.88 405.62 C 182.65 407.33 178.48 408.33 176.75 409.00 C 175.02 409.67 176.04 409.46 176.50 409.62 C 176.96 409.79 170.19 409.98 179.50 410.00 C 188.81 410.02 221.69 410.79 232.38 409.75 C 243.06 408.71 239.29 406.44 243.62 403.75 C 247.96 401.06 253.71 397.17 258.38 393.62 C 263.04 390.08 267.19 386.60 271.62 382.50 C 276.06 378.40 281.65 372.54 285.00 369.00 C 288.35 365.46 289.44 364.10 291.75 361.25 C 294.06 358.40 295.71 356.48 298.88 351.88 C 302.04 347.27 307.60 338.90 310.75 333.62 C 313.90 328.35 315.60 324.60 317.75 320.25 C 319.90 315.90 321.48 312.58 323.62 307.50 C 325.77 302.42 328.25 296.25 330.62 289.75 C 333.00 283.25 335.56 274.27 337.88 268.50 C 340.19 262.73 343.04 258.40 344.50 255.12 C 345.96 251.85 346.23 250.77 346.62 248.88 C 347.02 246.98 346.90 244.98 346.88 243.75 C 346.85 242.52 346.88 242.50 346.50 241.50 C 346.12 240.50 345.56 239.10 344.62 237.75 C 343.69 236.40 342.81 235.17 340.88 233.38 Z" id="s-8-f-1"/>
<path d="M 321.75 220.12 C 319.04 218.65 318.27 218.50 316.75 218.12 C 315.23 217.75 313.83 217.71 312.62 217.88 C 311.42 218.04 310.23 218.62 309.50 219.12 C 308.77 219.62 308.50 219.60 308.25 220.88 C 308.00 222.15 307.75 224.33 308.00 226.75 C 308.25 229.17 309.60 230.88 309.75 235.38 C 309.90 239.88 309.21 249.46 308.88 253.75 C 308.54 258.04 308.44 257.67 307.75 261.12 C 307.06 264.58 306.27 269.19 304.75 274.50 C 303.23 279.81 300.96 286.90 298.62 293.00 C 296.29 299.10 294.21 304.56 290.75 311.12 C 287.29 317.69 281.85 326.38 277.88 332.38 C 273.90 338.38 269.62 343.60 266.88 347.12 C 264.12 350.65 263.58 351.15 261.38 353.50 C 259.17 355.85 254.88 359.90 253.62 361.25 C 252.38 362.60 249.58 361.50 253.88 361.62 C 258.17 361.75 273.12 362.00 279.38 362.00 C 285.62 362.00 288.12 363.31 291.38 361.62 C 294.62 359.94 295.65 356.54 298.88 351.88 C 302.10 347.21 307.44 339.25 310.75 333.62 C 314.06 328.00 315.75 324.58 318.75 318.12 C 321.75 311.67 325.52 303.25 328.75 294.88 C 331.98 286.50 335.29 275.00 338.12 267.88 C 340.96 260.75 344.29 255.75 345.75 252.12 C 347.21 248.50 346.73 247.81 346.88 246.12 C 347.02 244.44 346.81 243.06 346.62 242.00 C 346.44 240.94 346.54 241.00 345.75 239.75 C 344.96 238.50 342.98 235.83 341.88 234.50 C 340.77 233.17 340.60 233.00 339.12 231.75 C 337.65 230.50 335.90 228.94 333.00 227.00 C 330.10 225.06 324.46 221.60 321.75 220.12 Z" id="s-8-f-2"/>
<path d="M 316.75 218.12 C 315.04 217.77 312.71 217.83 311.50 218.00 C 310.29 218.17 310.08 218.54 309.50 219.12 C 308.92 219.71 308.25 220.23 308.00 221.50 C 307.75 222.77 307.73 224.75 308.00 226.75 C 308.27 228.75 309.33 231.08 309.62 233.50 C 309.92 235.92 309.88 237.88 309.75 241.25 C 309.62 244.62 309.21 250.44 308.88 253.75 C 308.54 257.06 308.27 258.31 307.75 261.12 C 307.23 263.94 306.75 266.73 305.75 270.62 C 304.75 274.52 303.79 278.75 301.75 284.50 C 299.71 290.25 295.54 300.38 293.50 305.12 C 291.46 309.88 290.12 311.54 289.50 313.00 C 288.88 314.46 284.92 313.71 289.75 313.88 C 294.58 314.04 313.33 314.06 318.50 314.00 C 323.67 313.94 318.90 317.06 320.75 313.50 C 322.60 309.94 326.73 300.23 329.62 292.62 C 332.52 285.02 335.44 274.62 338.12 267.88 C 340.81 261.12 344.29 255.75 345.75 252.12 C 347.21 248.50 346.73 247.81 346.88 246.12 C 347.02 244.44 347.00 243.40 346.62 242.00 C 346.25 240.60 345.23 238.81 344.62 237.75 C 344.02 236.69 343.92 236.62 343.00 235.62 C 342.08 234.62 341.29 233.52 339.12 231.75 C 336.96 229.98 332.90 226.94 330.00 225.00 C 327.10 223.06 323.96 221.27 321.75 220.12 C 319.54 218.98 318.46 218.48 316.75 218.12 Z" id="s-8-f-3"/>
<path d="M 310.62 218.38 C 310.00 218.71 309.33 219.21 308.88 219.88 C 308.42 220.54 308.02 221.23 307.88 222.38 C 307.73 223.52 307.69 224.56 308.00 226.75 C 308.31 228.94 309.46 233.08 309.75 235.50 C 310.04 237.92 309.90 238.21 309.75 241.25 C 309.60 244.29 309.33 249.79 308.88 253.75 C 308.42 257.71 307.02 263.04 307.00 265.00 C 306.98 266.96 307.17 265.35 308.75 265.50 C 310.33 265.65 311.46 265.83 316.50 265.88 C 321.54 265.92 334.33 267.54 339.00 265.75 C 343.67 263.96 343.23 257.94 344.50 255.12 C 345.77 252.31 346.27 251.06 346.62 248.88 C 346.98 246.69 346.96 243.85 346.62 242.00 C 346.29 240.15 345.88 239.46 344.62 237.75 C 343.38 236.04 342.06 234.21 339.12 231.75 C 336.19 229.29 329.90 224.94 327.00 223.00 C 324.10 221.06 323.46 220.94 321.75 220.12 C 320.04 219.31 318.27 218.50 316.75 218.12 C 315.23 217.75 313.65 217.83 312.62 217.88 C 311.60 217.92 311.25 218.04 310.62 218.38 Z" id="s-8-f-4"/>
</g>
<g id="s-9" clip-path="url(#c-s-9)">
<use href="#s-9-f-0"/>
<path d="M 218.50 273.12 C 218.04 274.04 217.81 275.48 217.88 276.50 C 217.94 277.52 218.42 278.54 218.88 279.25 C 219.33 279.96 219.60 280.29 220.62 280.75 C 221.65 281.21 223.10 281.12 225.00 282.00 C 226.90 282.88 229.42 284.31 232.00 286.00 C 234.58 287.69 237.58 289.81 240.50 292.12 C 243.42 294.44 245.52 296.19 249.50 299.88 C 253.48 303.56 260.50 310.31 264.38 314.25 C 268.25 318.19 269.52 319.62 272.75 323.50 C 275.98 327.38 280.12 333.19 283.75 337.50 C 287.38 341.81 292.40 346.94 294.50 349.38 C 296.60 351.81 295.69 351.38 296.38 352.12 C 297.06 352.88 294.46 349.08 298.62 353.88 C 302.79 358.67 314.27 372.60 321.38 380.88 C 328.48 389.15 335.94 397.56 341.25 403.50 C 346.56 409.44 350.00 413.10 353.25 416.50 C 356.50 419.90 358.52 421.81 360.75 423.88 C 362.98 425.94 364.48 427.42 366.62 428.88 C 368.77 430.33 371.52 431.67 373.62 432.62 C 375.73 433.58 377.35 434.10 379.25 434.62 C 381.15 435.15 382.08 435.56 385.00 435.75 C 387.92 435.94 390.92 436.25 396.75 435.75 C 402.58 435.25 409.85 434.48 420.00 432.75 C 430.15 431.02 451.29 426.81 457.62 425.38 C 463.96 423.94 457.94 425.58 458.00 424.12 C 458.06 422.67 458.10 418.06 458.00 416.62 C 457.90 415.19 463.06 417.81 457.38 415.50 C 451.69 413.19 434.12 406.92 423.88 402.75 C 413.62 398.58 403.19 393.83 395.88 390.50 C 388.56 387.17 384.48 385.04 380.00 382.75 C 375.52 380.46 372.21 378.58 369.00 376.75 C 365.79 374.92 363.85 373.79 360.75 371.75 C 357.65 369.71 358.08 370.48 350.38 364.50 C 342.67 358.52 324.46 344.50 314.50 335.88 C 304.54 327.25 294.83 316.69 290.62 312.75 C 286.42 308.81 292.29 315.00 289.25 312.25 C 286.21 309.50 277.02 300.48 272.38 296.25 C 267.73 292.02 264.73 289.58 261.38 286.88 C 258.02 284.17 255.42 282.15 252.25 280.00 C 249.08 277.85 245.21 275.50 242.38 274.00 C 239.54 272.50 236.98 271.65 235.25 271.00 C 233.52 270.35 234.04 270.27 232.00 270.12 C 229.96 269.98 224.90 269.98 223.00 270.12 C 221.10 270.27 221.38 270.50 220.62 271.00 C 219.88 271.50 218.96 272.21 218.50 273.12 Z" id="s-9-f-1"/>
<path d="M 219.12 272.25 C 218.71 272.71 218.31 272.85 218.12 273.75 C 217.94 274.65 217.88 276.71 218.00 277.62 C 218.12 278.54 218.44 278.73 218.88 279.25 C 219.31 279.77 219.60 280.29 220.62 280.75 C 221.65 281.21 223.10 281.12 225.00 282.00 C 226.90 282.88 229.42 284.31 232.00 286.00 C 234.58 287.69 237.58 289.81 240.50 292.12 C 243.42 294.44 245.52 296.19 249.50 299.88 C 253.48 303.56 260.50 310.31 264.38 314.25 C 268.25 318.19 269.52 319.62 272.75 323.50 C 275.98 327.38 280.12 333.19 283.75 337.50 C 287.38 341.81 292.40 346.94 294.50 349.38 C 296.60 351.81 295.65 351.33 296.38 352.12 C 297.10 352.92 292.33 346.62 298.88 354.12 C 305.42 361.62 326.56 386.73 335.62 397.12 C 344.69 407.52 348.79 411.79 353.25 416.50 C 357.71 421.21 360.15 423.31 362.38 425.38 C 364.60 427.44 365.12 427.83 366.62 428.88 C 368.12 429.92 369.27 430.67 371.38 431.62 C 373.48 432.58 376.71 433.92 379.25 434.62 C 381.79 435.33 383.65 435.69 386.62 435.88 C 389.60 436.06 393.35 436.02 397.12 435.75 C 400.90 435.48 407.10 434.62 409.25 434.25 C 411.40 433.88 409.94 439.75 410.00 433.50 C 410.06 427.25 415.25 405.54 409.62 396.75 C 404.00 387.96 384.40 384.92 376.25 380.75 C 368.10 376.58 365.06 374.46 360.75 371.75 C 356.44 369.04 358.08 370.48 350.38 364.50 C 342.67 358.52 324.46 344.50 314.50 335.88 C 304.54 327.25 294.83 316.69 290.62 312.75 C 286.42 308.81 292.29 315.00 289.25 312.25 C 286.21 309.50 277.02 300.48 272.38 296.25 C 267.73 292.02 264.73 289.58 261.38 286.88 C 258.02 284.17 255.42 282.15 252.25 280.00 C 249.08 277.85 245.21 275.50 242.38 274.00 C 239.54 272.50 236.98 271.65 235.25 271.00 C 233.52 270.35 233.94 270.29 232.00 270.12 C 230.06 269.96 225.52 269.85 223.62 270.00 C 221.73 270.15 221.38 270.62 220.62 271.00 C 219.88 271.38 219.54 271.79 219.12 272.25 Z" id="s-9-f-2"/>
<path d="M 219.38 272.00 C 218.94 272.46 218.35 272.81 218.12 273.75 C 217.90 274.69 217.83 276.67 218.00 277.62 C 218.17 278.58 218.69 278.98 219.12 279.50 C 219.56 280.02 219.38 280.19 220.62 280.75 C 221.88 281.31 224.73 282.00 226.62 282.88 C 228.52 283.75 229.94 284.65 232.00 286.00 C 234.06 287.35 236.21 288.81 239.00 291.00 C 241.79 293.19 244.52 295.25 248.75 299.12 C 252.98 303.00 260.38 310.19 264.38 314.25 C 268.38 318.31 269.52 319.62 272.75 323.50 C 275.98 327.38 280.12 333.19 283.75 337.50 C 287.38 341.81 292.40 346.94 294.50 349.38 C 296.60 351.81 295.65 351.33 296.38 352.12 C 297.10 352.92 292.44 346.73 298.88 354.12 C 305.31 361.52 325.94 386.10 335.00 396.50 C 344.06 406.90 348.83 411.85 353.25 416.50 C 357.67 421.15 360.04 423.56 361.50 424.38 C 362.96 425.19 361.96 430.04 362.00 421.38 C 362.04 412.71 365.00 382.85 361.75 372.38 C 358.50 361.90 350.38 364.58 342.50 358.50 C 334.62 352.42 323.15 343.50 314.50 335.88 C 305.85 328.25 294.83 316.69 290.62 312.75 C 286.42 308.81 292.29 315.00 289.25 312.25 C 286.21 309.50 277.02 300.48 272.38 296.25 C 267.73 292.02 264.73 289.58 261.38 286.88 C 258.02 284.17 255.42 282.15 252.25 280.00 C 249.08 277.85 245.21 275.50 242.38 274.00 C 239.54 272.50 236.98 271.65 235.25 271.00 C 233.52 270.35 233.94 270.29 232.00 270.12 C 230.06 269.96 225.50 269.85 223.62 270.00 C 221.75 270.15 221.46 270.67 220.75 271.00 C 220.04 271.33 219.81 271.54 219.38 272.00 Z" id="s-9-f-3"/>
<path d="M 219.38 272.00 C 218.92 272.50 218.25 273.46 218.00 274.00 C 217.75 274.54 217.88 274.65 217.88 275.25 C 217.88 275.85 217.83 276.96 218.00 277.62 C 218.17 278.29 218.44 278.73 218.88 279.25 C 219.31 279.77 219.33 280.15 220.62 280.75 C 221.92 281.35 224.04 281.52 226.62 282.88 C 229.21 284.23 232.88 286.56 236.12 288.88 C 239.38 291.19 242.77 293.85 246.12 296.75 C 249.48 299.65 251.83 301.83 256.25 306.25 C 260.67 310.67 268.04 318.04 272.62 323.25 C 277.21 328.46 280.10 333.15 283.75 337.50 C 287.40 341.85 292.40 346.94 294.50 349.38 C 296.60 351.81 295.69 351.38 296.38 352.12 C 297.06 352.88 295.85 350.73 298.62 353.88 C 301.40 357.02 310.48 368.12 313.00 371.00 C 315.52 373.88 313.62 377.10 313.75 371.12 C 313.88 365.15 317.60 344.85 313.75 335.12 C 309.90 325.40 294.67 316.54 290.62 312.75 C 286.58 308.96 290.56 313.21 289.50 312.38 C 288.44 311.54 287.17 310.50 284.25 307.75 C 281.33 305.00 275.98 299.50 272.00 295.88 C 268.02 292.25 263.65 288.62 260.38 286.00 C 257.10 283.38 255.38 282.12 252.38 280.12 C 249.38 278.12 245.23 275.52 242.38 274.00 C 239.52 272.48 236.98 271.65 235.25 271.00 C 233.52 270.35 233.92 270.29 232.00 270.12 C 230.08 269.96 225.62 269.85 223.75 270.00 C 221.88 270.15 221.48 270.67 220.75 271.00 C 220.02 271.33 219.83 271.50 219.38 272.00 Z" id="s-9-f-4"/>
<path d="M 219.12 272.25 C 218.67 272.75 218.21 273.29 218.00 274.00 C 217.79 274.71 217.88 275.90 217.88 276.50 C 217.88 277.10 217.75 277.08 218.00 277.62 C 218.25 278.17 218.65 279.10 219.38 279.75 C 220.10 280.40 221.44 281.12 222.38 281.50 C 223.31 281.88 223.40 281.25 225.00 282.00 C 226.60 282.75 229.42 284.31 232.00 286.00 C 234.58 287.69 237.71 289.94 240.50 292.12 C 243.29 294.31 244.62 295.23 248.75 299.12 C 252.88 303.02 262.42 312.79 265.25 315.50 C 268.08 318.21 265.62 319.17 265.75 315.38 C 265.88 311.58 266.02 296.92 266.00 292.75 C 265.98 288.58 267.90 292.48 265.62 290.38 C 263.35 288.27 256.25 282.85 252.38 280.12 C 248.50 277.40 244.73 275.33 242.38 274.00 C 240.02 272.67 239.98 272.77 238.25 272.12 C 236.52 271.48 234.04 270.50 232.00 270.12 C 229.96 269.75 227.50 269.88 226.00 269.88 C 224.50 269.88 223.88 269.94 223.00 270.12 C 222.12 270.31 221.40 270.65 220.75 271.00 C 220.10 271.35 219.58 271.75 219.12 272.25 Z" id="s-9-f-5"/>
</g>
</svg>