<?xml version="1.0" encoding="UTF-8"?>
<svg xmlns="http://www.w3.org/2000/svg" viewBox="0 0 500 500">
<defs>
<path d="M 138.38 71.12 C 136.12 69.56 133.79 68.71 132.00 68.00 C 130.21 67.29 129.04 67.00 127.62 66.88 C 126.21 66.75 124.77 66.67 123.50 67.25 C 122.23 67.83 120.75 69.35 120.00 70.38 C 119.25 71.40 119.23 71.17 119.00 73.38 C 118.77 75.58 119.00 80.00 118.62 83.62 C 118.25 87.25 118.25 89.98 116.75 95.12 C 115.25 100.27 111.79 109.17 109.62 114.50 C 107.46 119.83 106.38 122.12 103.75 127.12 C 101.12 132.12 97.92 137.96 93.88 144.50 C 89.83 151.04 84.54 159.25 79.50 166.38 C 74.46 173.50 68.02 181.83 63.62 187.25 C 59.23 192.67 54.92 196.67 53.12 198.88 C 51.33 201.08 52.77 200.02 52.88 200.50 C 52.98 200.98 52.92 201.56 53.75 201.75 C 54.58 201.94 56.02 202.12 57.88 201.62 C 59.73 201.12 61.88 200.38 64.88 198.75 C 67.88 197.12 71.67 194.81 75.88 191.88 C 80.08 188.94 85.81 184.77 90.12 181.12 C 94.44 177.48 98.67 173.10 101.75 170.00 C 104.83 166.90 105.12 166.81 108.62 162.50 C 112.12 158.19 116.92 152.69 122.75 144.12 C 128.58 135.56 138.48 119.77 143.62 111.12 C 148.77 102.48 151.92 96.02 153.62 92.25 C 155.33 88.48 154.17 89.79 153.88 88.50 C 153.58 87.21 153.27 86.35 151.88 84.50 C 150.48 82.65 147.75 79.60 145.50 77.38 C 143.25 75.15 140.62 72.69 138.38 71.12 Z" id="s-0-f-0"/>
<clipPath id="c-s-0"><use href="#s-0-f-0"/></clipPath>
<path d="M 213.75 120.62 C 212.69 119.60 211.46 118.27 209.38 117.00 C 207.29 115.73 204.33 114.33 201.25 113.00 C 198.17 111.67 193.15 109.81 190.88 109.00 C 188.60 108.19 188.88 108.29 187.62 108.12 C 186.38 107.96 184.90 107.71 183.38 108.00 C 181.85 108.29 182.19 108.12 178.50 109.88 C 174.81 111.62 165.94 116.33 161.25 118.50 C 156.56 120.67 153.71 121.67 150.38 122.88 C 147.04 124.08 144.33 124.94 141.25 125.75 C 138.17 126.56 133.46 127.17 131.88 127.75 C 130.29 128.33 131.96 128.88 131.75 129.25 C 131.54 129.62 131.48 128.88 130.62 130.00 C 129.77 131.12 127.46 134.60 126.62 136.00 C 125.79 137.40 126.48 137.08 125.62 138.38 C 124.77 139.67 122.17 142.75 121.50 143.75 C 120.83 144.75 119.02 144.21 121.62 144.38 C 124.23 144.54 131.08 145.65 137.12 144.75 C 143.17 143.85 154.12 139.92 157.88 139.00 C 161.62 138.08 159.12 139.04 159.62 139.25 C 160.12 139.46 160.52 139.83 160.88 140.25 C 161.23 140.67 161.60 141.29 161.75 141.75 C 161.90 142.21 162.79 140.94 161.75 143.00 C 160.71 145.06 158.33 149.38 155.50 154.12 C 152.67 158.88 150.98 162.08 144.75 171.50 C 138.52 180.92 122.29 204.06 118.12 210.62 C 113.96 217.19 116.44 211.48 119.75 210.88 C 123.06 210.27 133.48 209.00 138.00 207.00 C 142.52 205.00 143.92 201.69 146.88 198.88 C 149.83 196.06 150.23 196.04 155.75 190.12 C 161.27 184.21 173.23 170.58 180.00 163.38 C 186.77 156.17 192.29 150.90 196.38 146.88 C 200.46 142.85 202.19 141.06 204.50 139.25 C 206.81 137.44 208.38 137.33 210.25 136.00 C 212.12 134.67 214.67 132.35 215.75 131.25 C 216.83 130.15 216.58 130.31 216.75 129.38 C 216.92 128.44 216.92 126.67 216.75 125.62 C 216.58 124.58 216.25 123.96 215.75 123.12 C 215.25 122.29 214.81 121.65 213.75 120.62 Z" id="s-1-f-0"/>
<clipPath id="c-s-1"><use href="#s-1-f-0"/></clipPath>
<path d="M 48.38 212.00 C 46.15 212.12 46.90 212.58 46.38 213.00 C 45.85 213.42 45.48 213.75 45.25 214.50 C 45.02 215.25 43.90 215.65 45.00 217.50 C 46.10 219.35 50.23 223.50 51.88 225.62 C 53.52 227.75 53.92 228.40 54.88 230.25 C 55.83 232.10 56.48 232.56 57.62 236.75 C 58.77 240.94 60.52 247.96 61.75 255.38 C 62.98 262.79 63.62 271.33 65.00 281.25 C 66.38 291.17 68.98 308.46 70.00 314.88 C 71.02 321.29 70.62 318.02 71.12 319.75 C 71.62 321.48 72.08 323.21 73.00 325.25 C 73.92 327.29 75.42 330.42 76.62 332.00 C 77.83 333.58 79.15 334.29 80.25 334.75 C 81.35 335.21 82.31 335.17 83.25 334.75 C 84.19 334.33 85.12 333.33 85.88 332.25 C 86.62 331.17 87.12 329.94 87.75 328.25 C 88.38 326.56 89.25 323.92 89.62 322.12 C 90.00 320.33 90.12 320.10 90.00 317.50 C 89.88 314.90 89.08 310.19 88.88 306.50 C 88.67 302.81 89.06 301.21 88.75 295.38 C 88.44 289.54 87.79 278.42 87.00 271.50 C 86.21 264.58 84.85 260.96 84.00 253.88 C 83.15 246.79 83.35 234.71 81.88 229.00 C 80.40 223.29 76.81 221.81 75.12 219.62 C 73.44 217.44 73.06 216.83 71.75 215.88 C 70.44 214.92 69.25 214.48 67.25 213.88 C 65.25 213.27 62.90 212.56 59.75 212.25 C 56.60 211.94 50.60 211.88 48.38 212.00 Z" id="s-2-f-0"/>
<clipPath id="c-s-2"><use href="#s-2-f-0"/></clipPath>
<path d="M 71.62 216.38 C 72.92 218.56 75.77 227.15 81.25 228.88 C 86.73 230.60 97.65 227.73 104.50 226.75 C 111.35 225.77 115.56 224.15 122.38 223.00 C 129.19 221.85 136.56 221.35 145.38 219.88 C 154.19 218.40 168.48 215.27 175.25 214.12 C 182.02 212.98 183.81 212.98 186.00 213.00 C 188.19 213.02 187.73 213.67 188.38 214.25 C 189.02 214.83 189.50 215.65 189.88 216.50 C 190.25 217.35 190.48 217.33 190.62 219.38 C 190.77 221.42 191.23 221.77 190.75 228.75 C 190.27 235.73 188.54 254.85 187.75 261.25 C 186.96 267.65 187.35 260.77 186.00 267.12 C 184.65 273.48 181.29 292.29 179.62 299.38 C 177.96 306.46 176.62 307.38 176.00 309.62 C 175.38 311.88 175.52 311.10 175.88 312.88 C 176.23 314.65 177.52 318.62 178.12 320.25 C 178.73 321.88 178.90 321.88 179.50 322.62 C 180.10 323.38 180.69 324.40 181.75 324.75 C 182.81 325.10 184.65 324.94 185.88 324.75 C 187.10 324.56 187.92 324.38 189.12 323.62 C 190.33 322.88 192.02 321.50 193.12 320.25 C 194.23 319.00 195.00 317.65 195.75 316.12 C 196.50 314.60 194.25 323.85 197.62 311.12 C 201.00 298.40 212.25 253.48 216.00 239.75 C 219.75 226.02 218.67 231.81 220.12 228.75 C 221.58 225.69 223.81 223.02 224.75 221.38 C 225.69 219.73 225.58 219.96 225.75 218.88 C 225.92 217.79 225.92 215.96 225.75 214.88 C 225.58 213.79 225.88 213.88 224.75 212.38 C 223.62 210.88 220.94 207.73 219.00 205.88 C 217.06 204.02 216.42 203.23 213.12 201.25 C 209.83 199.27 202.31 195.52 199.25 194.00 C 196.19 192.48 196.38 192.46 194.75 192.12 C 193.12 191.79 192.50 191.50 189.50 192.00 C 186.50 192.50 182.79 193.33 176.75 195.12 C 170.71 196.92 157.60 201.42 153.25 202.75 C 148.90 204.08 152.90 202.52 150.62 203.12 C 148.35 203.73 142.17 205.79 139.62 206.38 C 137.08 206.96 138.10 206.12 135.38 206.62 C 132.65 207.12 125.81 208.88 123.25 209.38 C 120.69 209.88 120.96 209.38 120.00 209.62 C 119.04 209.88 119.77 210.35 117.50 210.88 C 115.23 211.40 111.23 212.10 106.38 212.75 C 101.52 213.40 93.85 214.25 88.38 214.75 C 82.90 215.25 76.29 215.48 73.50 215.75 C 70.71 216.02 70.33 214.19 71.62 216.38 Z" id="s-3-f-0"/>
<clipPath id="c-s-3"><use href="#s-3-f-0"/></clipPath>
<path d="M 189.25 249.25 C 189.02 247.81 188.29 248.27 187.62 247.88 C 186.96 247.48 187.65 247.33 185.25 246.88 C 182.85 246.42 176.46 245.44 173.25 245.12 C 170.04 244.81 170.12 244.40 166.00 245.00 C 161.88 245.60 151.83 248.10 148.50 248.75 C 145.17 249.40 148.27 248.40 146.00 248.88 C 143.73 249.35 137.31 251.10 134.88 251.62 C 132.44 252.15 133.77 251.46 131.38 252.00 C 128.98 252.54 125.02 253.92 120.50 254.88 C 115.98 255.83 109.96 256.90 104.25 257.75 C 98.54 258.60 89.48 259.50 86.25 260.00 C 83.02 260.50 85.15 260.48 84.88 260.75 C 84.60 261.02 84.48 260.00 84.62 261.62 C 84.77 263.25 85.40 268.65 85.75 270.50 C 86.10 272.35 86.15 272.25 86.75 272.75 C 87.35 273.25 86.65 273.33 89.38 273.50 C 92.10 273.67 97.69 274.17 103.12 273.75 C 108.56 273.33 117.88 271.48 122.00 271.00 C 126.12 270.52 124.31 271.25 127.88 270.88 C 131.44 270.50 137.67 269.73 143.38 268.75 C 149.08 267.77 155.02 266.19 162.12 265.00 C 169.23 263.81 181.62 262.44 186.00 261.62 C 190.38 260.81 187.88 260.98 188.38 260.12 C 188.88 259.27 188.85 258.31 189.00 256.50 C 189.15 254.69 189.48 250.69 189.25 249.25 Z" id="s-4-f-0"/>
<clipPath id="c-s-4"><use href="#s-4-f-0"/></clipPath>
<path d="M 149.38 218.75 C 148.54 218.69 145.71 218.52 144.75 218.62 C 143.79 218.73 144.73 219.21 143.62 219.38 C 142.52 219.54 139.38 219.44 138.12 219.62 C 136.88 219.81 138.33 220.17 136.12 220.50 C 133.92 220.83 127.10 221.25 124.88 221.62 C 122.65 222.00 122.77 217.73 122.75 222.75 C 122.73 227.77 124.46 243.81 124.75 251.75 C 125.04 259.69 124.48 266.96 124.50 270.38 C 124.52 273.79 125.12 267.06 124.88 272.25 C 124.62 277.44 123.25 296.54 123.00 301.50 C 122.75 306.46 119.65 302.73 123.38 302.00 C 127.10 301.27 141.65 298.04 145.38 297.12 C 149.10 296.21 145.50 301.31 145.75 296.50 C 146.00 291.69 146.48 274.06 146.88 268.25 C 147.27 262.44 147.94 266.02 148.12 261.62 C 148.31 257.23 147.85 247.73 148.00 241.88 C 148.15 236.02 148.71 229.75 149.00 226.50 C 149.29 223.25 149.62 223.62 149.75 222.38 C 149.88 221.12 149.81 219.60 149.75 219.00 C 149.69 218.40 150.21 218.81 149.38 218.75 Z" id="s-5-f-0"/>
<clipPath id="c-s-5"><use href="#s-5-f-0"/></clipPath>
<path d="M 180.25 298.50 C 179.90 297.94 180.08 297.73 178.00 297.00 C 175.92 296.27 170.71 294.62 167.75 294.12 C 164.79 293.62 163.77 293.56 160.25 294.00 C 156.73 294.44 149.50 296.29 146.62 296.75 C 143.75 297.21 144.56 296.48 143.00 296.75 C 141.44 297.02 138.69 298.06 137.25 298.38 C 135.81 298.69 135.08 298.46 134.38 298.62 C 133.67 298.79 134.60 299.04 133.00 299.38 C 131.40 299.71 126.29 300.25 124.75 300.62 C 123.21 301.00 129.73 300.58 123.75 301.62 C 117.77 302.67 94.75 305.94 88.88 306.88 C 83.00 307.81 88.54 306.15 88.50 307.25 C 88.46 308.35 88.46 311.48 88.62 313.50 C 88.79 315.52 88.88 318.17 89.50 319.38 C 90.12 320.58 90.12 320.56 92.38 320.75 C 94.62 320.94 93.46 321.67 103.00 320.50 C 112.54 319.33 140.29 315.17 149.62 313.75 C 158.96 312.33 154.65 312.48 159.00 312.00 C 163.35 311.52 172.75 311.29 175.75 310.88 C 178.75 310.46 176.38 311.15 177.00 309.50 C 177.62 307.85 178.98 302.52 179.50 301.00 C 180.02 299.48 180.00 300.79 180.12 300.38 C 180.25 299.96 180.60 299.06 180.25 298.50 Z" id="s-6-f-0"/>
<clipPath id="c-s-6"><use href="#s-6-f-0"/></clipPath>
<path d="M 55.12 343.88 C 54.67 343.77 54.21 343.92 53.75 344.12 C 53.29 344.33 52.81 344.62 52.38 345.12 C 51.94 345.62 52.06 344.83 51.12 347.12 C 50.19 349.42 49.31 353.21 46.75 358.88 C 44.19 364.54 38.88 375.08 35.75 381.12 C 32.62 387.17 29.75 391.44 28.00 395.12 C 26.25 398.81 25.75 400.27 25.25 403.25 C 24.75 406.23 24.69 409.96 25.00 413.00 C 25.31 416.04 26.08 419.04 27.12 421.50 C 28.17 423.96 29.85 426.19 31.25 427.75 C 32.65 429.31 34.35 430.21 35.50 430.88 C 36.65 431.54 37.08 431.58 38.12 431.75 C 39.17 431.92 40.71 432.02 41.75 431.88 C 42.79 431.73 42.65 432.42 44.38 430.88 C 46.10 429.33 50.40 424.67 52.12 422.62 C 53.85 420.58 53.83 420.40 54.75 418.62 C 55.67 416.85 56.92 414.00 57.62 412.00 C 58.33 410.00 58.31 408.71 59.00 406.62 C 59.69 404.54 60.81 402.52 61.75 399.50 C 62.69 396.48 63.94 391.92 64.62 388.50 C 65.31 385.08 65.73 382.33 65.88 379.00 C 66.02 375.67 66.02 371.88 65.50 368.50 C 64.98 365.12 63.90 362.08 62.75 358.75 C 61.60 355.42 59.67 350.83 58.62 348.50 C 57.58 346.17 57.08 345.52 56.50 344.75 C 55.92 343.98 55.58 343.98 55.12 343.88 Z" id="s-7-f-0"/>
<clipPath id="c-s-7"><use href="#s-7-f-0"/></clipPath>
<path d="M 85.62 354.12 C 84.69 354.40 84.25 354.88 84.00 355.50 C 83.75 356.12 83.67 356.58 84.12 357.88 C 84.58 359.17 85.58 360.27 86.75 363.25 C 87.92 366.23 89.54 371.58 91.12 375.75 C 92.71 379.92 94.58 384.50 96.25 388.25 C 97.92 392.00 99.38 395.08 101.12 398.25 C 102.88 401.42 105.38 405.35 106.75 407.25 C 108.12 409.15 108.19 409.21 109.38 409.62 C 110.56 410.04 112.60 409.90 113.88 409.75 C 115.15 409.60 116.06 409.27 117.00 408.75 C 117.94 408.23 118.71 407.56 119.50 406.62 C 120.29 405.69 121.21 404.38 121.75 403.12 C 122.29 401.88 122.56 400.25 122.75 399.12 C 122.94 398.00 122.88 398.21 122.88 396.38 C 122.88 394.54 122.96 390.60 122.75 388.12 C 122.54 385.65 122.12 383.56 121.62 381.50 C 121.12 379.44 120.40 377.33 119.75 375.75 C 119.10 374.17 119.19 373.83 117.75 372.00 C 116.31 370.17 113.35 366.75 111.12 364.75 C 108.90 362.75 107.21 361.62 104.38 360.00 C 101.54 358.38 96.58 356.02 94.12 355.00 C 91.67 353.98 91.04 354.02 89.62 353.88 C 88.21 353.73 86.56 353.85 85.62 354.12 Z" id="s-8-f-0"/>
<clipPath id="c-s-8"><use href="#s-8-f-0"/></clipPath>
<path d="M 133.75 348.00 C 133.00 348.12 133.15 348.27 133.00 348.75 C 132.85 349.23 132.71 349.71 132.88 350.88 C 133.04 352.04 132.31 351.21 134.00 355.75 C 135.69 360.29 140.33 372.00 143.00 378.12 C 145.67 384.25 148.06 388.96 150.00 392.50 C 151.94 396.04 153.31 397.73 154.62 399.38 C 155.94 401.02 156.58 401.81 157.88 402.38 C 159.17 402.94 161.21 402.85 162.38 402.75 C 163.54 402.65 164.02 402.31 164.88 401.75 C 165.73 401.19 166.85 400.15 167.50 399.38 C 168.15 398.60 168.38 398.15 168.75 397.12 C 169.12 396.10 169.56 395.27 169.75 393.25 C 169.94 391.23 170.06 387.96 169.88 385.00 C 169.69 382.04 169.15 378.02 168.62 375.50 C 168.10 372.98 167.40 371.46 166.75 369.88 C 166.10 368.29 165.81 367.46 164.75 366.00 C 163.69 364.54 162.79 363.10 160.38 361.12 C 157.96 359.15 153.54 356.15 150.25 354.12 C 146.96 352.10 142.75 350.02 140.62 349.00 C 138.50 347.98 138.65 348.17 137.50 348.00 C 136.35 347.83 134.50 347.88 133.75 348.00 Z" id="s-9-f-0"/>
<clipPath id="c-s-9"><use href="#s-9-f-0"/></clipPath>
<path d="M 172.75 335.00 C 171.88 335.23 171.96 335.73 171.88 336.38 C 171.79 337.02 171.27 336.92 172.25 338.88 C 173.23 340.83 176.02 344.98 177.75 348.12 C 179.48 351.27 180.73 353.65 182.62 357.75 C 184.52 361.85 186.38 366.85 189.12 372.75 C 191.88 378.65 197.00 389.06 199.12 393.12 C 201.25 397.19 200.77 395.85 201.88 397.12 C 202.98 398.40 204.50 400.15 205.75 400.75 C 207.00 401.35 208.31 400.92 209.38 400.75 C 210.44 400.58 211.21 400.29 212.12 399.75 C 213.04 399.21 214.00 398.44 214.88 397.50 C 215.75 396.56 216.56 395.67 217.38 394.12 C 218.19 392.58 219.19 389.96 219.75 388.25 C 220.31 386.54 220.60 386.21 220.75 383.88 C 220.90 381.54 220.98 377.06 220.62 374.25 C 220.27 371.44 219.29 368.85 218.62 367.00 C 217.96 365.15 218.00 365.04 216.62 363.12 C 215.25 361.21 213.19 358.35 210.38 355.50 C 207.56 352.65 204.56 349.25 199.75 346.00 C 194.94 342.75 185.27 337.83 181.50 336.00 C 177.73 334.17 178.58 335.17 177.12 335.00 C 175.67 334.83 173.62 334.77 172.75 335.00 Z" id="s-10-f-0"/>
<clipPath id="c-s-10"><use href="#s-10-f-0"/></clipPath>
<path d="M 423.75 99.88 C 423.38 98.60 422.29 97.12 421.50 96.12 C 420.71 95.12 420.54 94.90 419.00 93.88 C 417.46 92.85 415.40 91.31 412.25 90.00 C 409.10 88.69 403.08 86.83 400.12 86.00 C 397.17 85.17 396.48 85.17 394.50 85.00 C 392.52 84.83 392.25 83.88 388.25 85.00 C 384.25 86.12 375.73 89.96 370.50 91.75 C 365.27 93.54 361.21 94.58 356.88 95.75 C 352.54 96.92 349.54 97.69 344.50 98.75 C 339.46 99.81 332.79 100.79 326.62 102.12 C 320.46 103.46 314.79 105.15 307.50 106.75 C 300.21 108.35 289.81 110.42 282.88 111.75 C 275.94 113.08 273.56 113.54 265.88 114.75 C 258.19 115.96 242.75 117.92 236.75 119.00 C 230.75 120.08 231.31 120.60 229.88 121.25 C 228.44 121.90 228.46 122.35 228.12 122.88 C 227.79 123.40 227.60 123.58 227.88 124.38 C 228.15 125.17 228.69 126.40 229.75 127.62 C 230.81 128.85 233.06 130.77 234.25 131.75 C 235.44 132.73 235.81 133.00 236.88 133.50 C 237.94 134.00 238.40 134.33 240.62 134.75 C 242.85 135.17 242.65 135.81 250.25 136.00 C 257.85 136.19 276.44 136.44 286.25 135.88 C 296.06 135.31 298.35 134.33 309.12 132.62 C 319.90 130.92 337.12 128.12 350.88 125.62 C 364.62 123.12 381.92 119.79 391.62 117.62 C 401.33 115.46 404.67 114.12 409.12 112.62 C 413.58 111.12 416.19 109.77 418.38 108.62 C 420.56 107.48 421.35 106.56 422.25 105.75 C 423.15 104.94 423.50 104.73 423.75 103.75 C 424.00 102.77 424.12 101.15 423.75 99.88 Z" id="s-11-f-0"/>
<clipPath id="c-s-11"><use href="#s-11-f-0"/></clipPath>
<path d="M 285.12 135.50 C 278.81 135.27 254.69 135.42 248.50 135.50 C 242.31 135.58 247.90 135.38 248.00 136.00 C 248.10 136.62 248.35 137.62 249.12 139.25 C 249.90 140.88 251.69 143.52 252.62 145.75 C 253.56 147.98 254.25 150.38 254.75 152.62 C 255.25 154.88 255.42 156.77 255.62 159.25 C 255.83 161.73 255.46 162.17 256.00 167.50 C 256.54 172.83 258.23 183.17 258.88 191.25 C 259.52 199.33 259.38 182.35 259.88 216.00 C 260.38 249.65 261.38 363.46 261.88 393.12 C 262.38 422.79 260.15 394.21 262.88 394.00 C 265.60 393.79 274.92 392.44 278.25 391.88 C 281.58 391.31 282.08 420.06 282.88 390.62 C 283.67 361.19 282.48 249.77 283.00 215.25 C 283.52 180.73 285.12 191.52 286.00 183.50 C 286.88 175.48 287.56 171.00 288.25 167.12 C 288.94 163.25 289.21 162.67 290.12 160.25 C 291.04 157.83 292.96 154.52 293.75 152.62 C 294.54 150.73 294.73 150.04 294.88 148.88 C 295.02 147.71 295.02 146.83 294.62 145.62 C 294.23 144.42 293.27 142.73 292.50 141.62 C 291.73 140.52 291.02 139.79 290.00 139.00 C 288.98 138.21 287.19 137.46 286.38 136.88 C 285.56 136.29 291.44 135.73 285.12 135.50 Z" id="s-12-f-0"/>
<clipPath id="c-s-12"><use href="#s-12-f-0"/></clipPath>
<path d="M 423.88 220.12 C 423.75 219.29 423.62 218.52 422.88 217.38 C 422.12 216.23 420.92 214.75 419.38 213.25 C 417.83 211.75 415.83 210.04 413.62 208.38 C 411.42 206.71 408.33 204.62 406.12 203.25 C 403.92 201.88 402.52 201.15 400.38 200.12 C 398.23 199.10 395.06 197.81 393.25 197.12 C 391.44 196.44 390.98 196.19 389.50 196.00 C 388.02 195.81 390.27 194.54 384.38 196.00 C 378.48 197.46 363.12 202.29 354.12 204.75 C 345.12 207.21 338.48 209.08 330.38 210.75 C 322.27 212.42 313.35 213.73 305.50 214.75 C 297.65 215.77 287.08 216.46 283.25 216.88 C 279.42 217.29 282.62 214.48 282.50 217.25 C 282.38 220.02 281.85 230.58 282.50 233.50 C 283.15 236.42 284.58 234.56 286.38 234.75 C 288.17 234.94 282.04 237.42 293.25 234.62 C 304.46 231.83 342.52 220.94 353.62 218.00 C 364.73 215.06 358.02 217.17 359.88 217.00 C 361.73 216.83 362.96 216.83 364.75 217.00 C 366.54 217.17 369.02 217.52 370.62 218.00 C 372.23 218.48 373.52 219.29 374.38 219.88 C 375.23 220.46 375.35 220.81 375.75 221.50 C 376.15 222.19 376.75 221.08 376.75 224.00 C 376.75 226.92 376.21 234.71 375.75 239.00 C 375.29 243.29 374.50 245.60 374.00 249.75 C 373.50 253.90 373.25 259.40 372.75 263.88 C 372.25 268.35 371.23 274.42 371.00 276.62 C 370.77 278.83 366.62 276.06 371.38 277.12 C 376.12 278.19 393.56 286.50 399.50 283.00 C 405.44 279.50 405.04 262.62 407.00 256.12 C 408.96 249.62 409.75 247.88 411.25 244.00 C 412.75 240.12 414.75 235.46 416.00 232.88 C 417.25 230.29 417.48 230.25 418.75 228.50 C 420.02 226.75 422.77 223.77 423.62 222.38 C 424.48 220.98 424.00 220.96 423.88 220.12 Z" id="s-13-f-0"/>
<clipPath id="c-s-13"><use href="#s-13-f-0"/></clipPath>
<path d="M 411.88 294.50 C 411.73 293.50 411.19 292.44 410.75 291.62 C 410.31 290.81 410.33 290.73 409.25 289.62 C 408.17 288.52 405.58 286.10 404.25 285.00 C 402.92 283.90 402.15 283.42 401.25 283.00 C 400.35 282.58 399.50 282.73 398.88 282.50 C 398.25 282.27 398.25 281.81 397.50 281.62 C 396.75 281.44 395.17 281.54 394.38 281.38 C 393.58 281.21 393.56 280.79 392.75 280.62 C 391.94 280.46 390.29 280.54 389.50 280.38 C 388.71 280.21 388.71 279.77 388.00 279.62 C 387.29 279.48 386.08 279.67 385.25 279.50 C 384.42 279.33 383.81 278.79 383.00 278.62 C 382.19 278.46 381.19 278.67 380.38 278.50 C 379.56 278.33 379.65 277.96 378.12 277.62 C 376.60 277.29 377.58 275.48 371.25 276.50 C 364.92 277.52 347.83 282.04 340.12 283.75 C 332.42 285.46 330.54 285.75 325.00 286.75 C 319.46 287.75 313.85 288.73 306.88 289.75 C 299.90 290.77 287.19 292.29 283.12 292.88 C 279.06 293.46 282.60 290.15 282.50 293.25 C 282.40 296.35 281.67 308.25 282.50 311.50 C 283.33 314.75 284.00 312.56 287.50 312.75 C 291.00 312.94 298.23 312.96 303.50 312.62 C 308.77 312.29 306.96 312.54 319.12 310.75 C 331.29 308.96 363.65 303.65 376.50 301.88 C 389.35 300.10 390.79 300.48 396.25 300.12 C 401.71 299.77 406.69 300.17 409.25 299.75 C 411.81 299.33 411.19 298.50 411.62 297.62 C 412.06 296.75 412.02 295.50 411.88 294.50 Z" id="s-14-f-0"/>
<clipPath id="c-s-14"><use href="#s-14-f-0"/></clipPath>
<path d="M 473.88 398.12 C 473.71 397.08 473.23 395.58 472.75 394.62 C 472.27 393.67 471.96 393.35 471.00 392.38 C 470.04 391.40 468.92 390.15 467.00 388.75 C 465.08 387.35 462.29 385.46 459.50 384.00 C 456.71 382.54 453.77 381.31 450.25 380.00 C 446.73 378.69 441.08 376.81 438.38 376.12 C 435.67 375.44 439.48 375.25 434.00 375.88 C 428.52 376.50 418.23 378.69 405.50 379.88 C 392.77 381.06 377.81 381.19 357.62 383.00 C 337.44 384.81 297.42 389.48 284.38 390.75 C 271.33 392.02 280.75 390.50 279.38 390.62 C 278.00 390.75 277.46 391.31 276.12 391.50 C 274.79 391.69 272.54 391.58 271.38 391.75 C 270.21 391.92 270.29 392.33 269.12 392.50 C 267.96 392.67 265.67 392.52 264.38 392.75 C 263.08 392.98 266.58 393.50 261.38 393.88 C 256.17 394.25 238.33 394.65 233.12 395.00 C 227.92 395.35 230.92 395.60 230.12 396.00 C 229.33 396.40 228.73 396.73 228.38 397.38 C 228.02 398.02 227.83 399.12 228.00 399.88 C 228.17 400.62 228.60 401.06 229.38 401.88 C 230.15 402.69 230.52 403.40 232.62 404.75 C 234.73 406.10 238.96 408.17 242.00 410.00 C 245.04 411.83 248.81 414.48 250.88 415.75 C 252.94 417.02 252.94 417.02 254.38 417.62 C 255.81 418.23 257.77 419.00 259.50 419.38 C 261.23 419.75 262.10 420.27 264.75 419.88 C 267.40 419.48 271.98 417.81 275.38 417.00 C 278.77 416.19 280.31 415.85 285.12 415.00 C 289.94 414.15 295.67 413.04 304.25 411.88 C 312.83 410.71 325.85 409.15 336.62 408.00 C 347.40 406.85 359.92 405.67 368.88 405.00 C 377.83 404.33 383.44 404.17 390.38 404.00 C 397.31 403.83 400.71 403.71 410.50 404.00 C 420.29 404.29 439.71 405.46 449.12 405.75 C 458.54 406.04 463.44 405.94 467.00 405.75 C 470.56 405.56 469.52 405.17 470.50 404.62 C 471.48 404.08 472.33 403.12 472.88 402.50 C 473.42 401.88 473.58 401.60 473.75 400.88 C 473.92 400.15 474.04 399.17 473.88 398.12 Z" id="s-15-f-0"/>
<clipPath id="c-s-15"><use href="#s-15-f-0"/></clipPath>
</defs>
<g id="s-0" clip-path="url(#c-s-0)">
<use href="#s-0-f-0"/>
<path d="M 137.12 70.38 C 135.15 69.06 133.58 68.58 132.00 68.00 C 130.42 67.42 129.04 67.00 127.62 66.88 C 126.21 66.75 124.77 66.67 123.50 67.25 C 122.23 67.83 120.75 69.35 120.00 70.38 C 119.25 71.40 119.23 71.17 119.00 73.38 C 118.77 75.58 119.00 80.00 118.62 83.62 C 118.25 87.25 118.25 89.98 116.75 95.12 C 115.25 100.27 111.79 109.17 109.62 114.50 C 107.46 119.83 105.75 123.15 103.75 127.12 C 101.75 131.10 101.25 132.48 97.62 138.38 C 94.00 144.27 84.54 158.42 82.00 162.50 C 79.46 166.58 77.98 162.83 82.38 162.88 C 86.77 162.92 101.65 165.88 108.38 162.75 C 115.10 159.62 116.88 152.73 122.75 144.12 C 128.62 135.52 139.62 117.54 143.62 111.12 C 147.62 104.71 145.96 107.21 146.75 105.62 C 147.54 104.04 147.38 103.50 148.38 101.62 C 149.38 99.75 151.88 95.94 152.75 94.38 C 153.62 92.81 153.44 93.23 153.62 92.25 C 153.81 91.27 154.02 89.58 153.88 88.50 C 153.73 87.42 153.58 87.02 152.75 85.75 C 151.92 84.48 150.35 82.52 148.88 80.88 C 147.40 79.23 145.83 77.62 143.88 75.88 C 141.92 74.12 139.10 71.69 137.12 70.38 Z" id="s-0-f-1"/>
<path d="M 138.38 71.12 C 135.56 68.98 133.79 68.71 132.00 68.00 C 130.21 67.29 129.04 67.00 127.62 66.88 C 126.21 66.75 124.77 66.67 123.50 67.25 C 122.23 67.83 120.75 69.35 120.00 70.38 C 119.25 71.40 119.23 71.17 119.00 73.38 C 118.77 75.58 119.00 80.00 118.62 83.62 C 118.25 87.25 117.44 92.06 116.75 95.12 C 116.06 98.19 115.69 98.85 114.50 102.00 C 113.31 105.15 110.38 111.85 109.62 114.00 C 108.88 116.15 104.83 114.71 110.00 114.88 C 115.17 115.04 135.33 115.10 140.62 115.00 C 145.92 114.90 140.73 115.81 141.75 114.25 C 142.77 112.69 145.65 107.73 146.75 105.62 C 147.85 103.52 147.38 103.50 148.38 101.62 C 149.38 99.75 151.88 95.94 152.75 94.38 C 153.62 92.81 153.44 93.23 153.62 92.25 C 153.81 91.27 154.02 89.58 153.88 88.50 C 153.73 87.42 153.58 87.02 152.75 85.75 C 151.92 84.48 151.27 83.31 148.88 80.88 C 146.48 78.44 141.19 73.27 138.38 71.12 Z" id="s-0-f-2"/>
</g>
<g id="s-1" clip-path="url(#c-s-1)">
<use href="#s-1-f-0"/>
<path d="M 215.75 123.12 C 215.08 122.12 214.35 120.96 212.75 119.62 C 211.15 118.29 209.77 116.90 206.12 115.12 C 202.48 113.35 193.96 110.17 190.88 109.00 C 187.79 107.83 188.98 108.27 187.62 108.12 C 186.27 107.98 187.15 106.40 182.75 108.12 C 178.35 109.85 166.65 116.04 161.25 118.50 C 155.85 120.96 153.71 121.67 150.38 122.88 C 147.04 124.08 144.33 124.94 141.25 125.75 C 138.17 126.56 133.46 127.17 131.88 127.75 C 130.29 128.33 131.96 128.88 131.75 129.25 C 131.54 129.62 132.33 127.50 130.62 130.00 C 128.92 132.50 122.29 141.79 121.50 144.25 C 120.71 146.71 123.27 144.67 125.88 144.75 C 128.48 144.83 131.79 145.71 137.12 144.75 C 142.46 143.79 154.12 139.92 157.88 139.00 C 161.62 138.08 159.02 138.90 159.62 139.25 C 160.23 139.60 161.15 140.50 161.50 141.12 C 161.85 141.75 163.19 140.10 161.75 143.00 C 160.31 145.90 156.17 153.10 152.88 158.50 C 149.58 163.90 143.54 172.50 142.00 175.38 C 140.46 178.25 139.31 175.65 143.62 175.75 C 147.94 175.85 163.35 176.35 167.88 176.00 C 172.40 175.65 168.38 176.08 170.75 173.62 C 173.12 171.17 177.92 165.65 182.12 161.25 C 186.33 156.85 192.27 150.92 196.00 147.25 C 199.73 143.58 202.12 141.12 204.50 139.25 C 206.88 137.38 208.50 137.19 210.25 136.00 C 212.00 134.81 213.90 133.35 215.00 132.12 C 216.10 130.90 216.58 129.71 216.88 128.62 C 217.17 127.54 216.94 126.54 216.75 125.62 C 216.56 124.71 216.42 124.12 215.75 123.12 Z" id="s-1-f-1"/>
<path d="M 216.75 125.62 C 216.44 124.65 215.67 122.98 214.88 121.88 C 214.08 120.77 213.46 120.12 212.00 119.00 C 210.54 117.88 209.65 116.79 206.12 115.12 C 202.60 113.46 193.96 110.17 190.88 109.00 C 187.79 107.83 188.88 108.29 187.62 108.12 C 186.38 107.96 184.90 107.71 183.38 108.00 C 181.85 108.29 182.60 107.94 178.50 109.88 C 174.40 111.81 163.88 117.31 158.75 119.62 C 153.62 121.94 152.15 122.35 147.75 123.75 C 143.35 125.15 136.73 124.58 132.38 128.00 C 128.02 131.42 123.33 141.46 121.62 144.25 C 119.92 147.04 119.50 144.71 122.12 144.75 C 124.75 144.79 131.48 145.46 137.38 144.50 C 143.27 143.54 152.69 140.12 157.50 139.00 C 162.31 137.88 163.65 138.23 166.25 137.75 C 168.85 137.27 165.10 137.62 173.12 136.12 C 181.15 134.62 207.10 130.15 214.38 128.75 C 221.65 127.35 216.35 128.27 216.75 127.75 C 217.15 127.23 217.06 126.60 216.75 125.62 Z" id="s-1-f-2"/>
<path d="M 169.88 115.00 C 169.67 111.58 170.60 113.98 168.75 114.75 C 166.90 115.52 161.81 118.27 158.75 119.62 C 155.69 120.98 154.77 121.48 150.38 122.88 C 145.98 124.27 136.00 126.27 132.38 128.00 C 128.75 129.73 130.12 130.92 128.62 133.25 C 127.12 135.58 124.52 140.25 123.38 142.00 C 122.23 143.75 122.02 143.33 121.75 143.75 C 121.48 144.17 121.46 144.31 121.75 144.50 C 122.04 144.69 121.15 144.83 123.50 144.88 C 125.85 144.92 132.88 144.96 135.88 144.75 C 138.88 144.54 137.90 144.58 141.50 143.62 C 145.10 142.67 152.81 140.12 157.50 139.00 C 162.19 137.88 167.54 137.50 169.62 136.88 C 171.71 136.25 169.96 138.90 170.00 135.25 C 170.04 131.60 170.08 118.42 169.88 115.00 Z" id="s-1-f-3"/>
</g>
<g id="s-2" clip-path="url(#c-s-2)">
<use href="#s-2-f-0"/>
<path d="M 48.38 212.00 C 46.15 212.12 46.90 212.58 46.38 213.00 C 45.85 213.42 45.48 213.75 45.25 214.50 C 45.02 215.25 43.90 215.65 45.00 217.50 C 46.10 219.35 50.23 223.50 51.88 225.62 C 53.52 227.75 53.92 228.40 54.88 230.25 C 55.83 232.10 56.48 232.56 57.62 236.75 C 58.77 240.94 60.52 247.96 61.75 255.38 C 62.98 262.79 63.77 272.54 65.00 281.25 C 66.23 289.96 68.19 303.17 69.12 307.62 C 70.06 312.08 67.35 307.96 70.62 308.00 C 73.90 308.04 85.73 310.00 88.75 307.88 C 91.77 305.75 89.04 301.31 88.75 295.25 C 88.46 289.19 87.79 278.40 87.00 271.50 C 86.21 264.60 84.90 261.06 84.00 253.88 C 83.10 246.69 83.48 234.56 81.62 228.38 C 79.77 222.19 74.60 218.88 72.88 216.75 C 71.15 214.62 72.60 216.23 71.25 215.62 C 69.90 215.02 66.67 213.69 64.75 213.12 C 62.83 212.56 62.48 212.44 59.75 212.25 C 57.02 212.06 50.60 211.88 48.38 212.00 Z" id="s-2-f-1"/>
<path d="M 46.38 213.00 C 45.81 213.52 45.23 214.38 45.00 215.12 C 44.77 215.88 43.73 215.56 45.00 217.50 C 46.27 219.44 50.98 224.62 52.62 226.75 C 54.27 228.88 54.04 228.58 54.88 230.25 C 55.71 231.92 56.67 233.56 57.62 236.75 C 58.58 239.94 59.90 245.73 60.62 249.38 C 61.35 253.02 61.67 256.88 62.00 258.62 C 62.33 260.38 58.90 259.69 62.62 259.88 C 66.35 260.06 80.69 260.04 84.38 259.75 C 88.06 259.46 84.98 260.58 84.75 258.12 C 84.52 255.67 83.48 249.85 83.00 245.00 C 82.52 240.15 83.56 233.71 81.88 229.00 C 80.19 224.29 75.25 219.25 72.88 216.75 C 70.50 214.25 69.81 214.75 67.62 214.00 C 65.44 213.25 62.96 212.58 59.75 212.25 C 56.54 211.92 50.60 211.88 48.38 212.00 C 46.15 212.12 46.94 212.48 46.38 213.00 Z" id="s-2-f-2"/>
</g>
<g id="s-3" clip-path="url(#c-s-3)">
<use href="#s-3-f-0"/>
<path d="M 225.88 218.00 C 226.06 217.06 226.06 216.69 225.88 215.75 C 225.69 214.81 225.90 214.02 224.75 212.38 C 223.60 210.73 220.77 207.62 219.00 205.88 C 217.23 204.12 216.73 203.52 214.12 201.88 C 211.52 200.23 206.71 197.65 203.38 196.00 C 200.04 194.35 196.44 192.67 194.12 192.00 C 191.81 191.33 191.10 191.83 189.50 192.00 C 187.90 192.17 190.54 191.21 184.50 193.00 C 178.46 194.79 158.90 201.06 153.25 202.75 C 147.60 204.44 153.00 202.50 150.62 203.12 C 148.25 203.75 141.54 205.92 139.00 206.50 C 136.46 207.08 138.00 206.15 135.38 206.62 C 132.75 207.10 125.81 208.88 123.25 209.38 C 120.69 209.88 120.96 209.38 120.00 209.62 C 119.04 209.88 121.10 210.19 117.50 210.88 C 113.90 211.56 105.71 212.94 98.38 213.75 C 91.04 214.56 77.96 215.31 73.50 215.75 C 69.04 216.19 70.33 214.19 71.62 216.38 C 72.92 218.56 75.77 227.15 81.25 228.88 C 86.73 230.60 97.65 227.73 104.50 226.75 C 111.35 225.77 115.56 224.15 122.38 223.00 C 129.19 221.85 136.56 221.35 145.38 219.88 C 154.19 218.40 168.48 215.27 175.25 214.12 C 182.02 212.98 183.90 213.04 186.00 213.00 C 188.10 212.96 187.27 213.38 187.88 213.88 C 188.48 214.38 189.19 215.21 189.62 216.00 C 190.06 216.79 190.31 216.50 190.50 218.62 C 190.69 220.75 191.21 221.65 190.75 228.75 C 190.29 235.85 188.54 254.85 187.75 261.25 C 186.96 267.65 186.83 263.10 186.00 267.12 C 185.17 271.15 183.75 280.40 182.75 285.38 C 181.75 290.35 180.40 294.92 180.00 297.00 C 179.60 299.08 176.92 297.75 180.38 297.88 C 183.83 298.00 196.54 300.65 200.75 297.75 C 204.96 294.85 203.08 290.17 205.62 280.50 C 208.17 270.83 213.58 248.38 216.00 239.75 C 218.42 231.12 218.67 231.81 220.12 228.75 C 221.58 225.69 223.79 223.17 224.75 221.38 C 225.71 219.58 225.69 218.94 225.88 218.00 Z" id="s-3-f-1"/>
<path d="M 225.88 218.00 C 226.06 217.06 226.06 216.69 225.88 215.75 C 225.69 214.81 225.90 214.02 224.75 212.38 C 223.60 210.73 220.77 207.62 219.00 205.88 C 217.23 204.12 216.73 203.52 214.12 201.88 C 211.52 200.23 206.71 197.65 203.38 196.00 C 200.04 194.35 196.44 192.67 194.12 192.00 C 191.81 191.33 191.10 191.83 189.50 192.00 C 187.90 192.17 191.77 190.88 184.50 193.00 C 177.23 195.12 153.46 202.50 145.88 204.75 C 138.29 207.00 140.75 206.19 139.00 206.50 C 137.25 206.81 138.00 206.15 135.38 206.62 C 132.75 207.10 125.81 208.88 123.25 209.38 C 120.69 209.88 120.96 209.38 120.00 209.62 C 119.04 209.88 121.10 210.19 117.50 210.88 C 113.90 211.56 105.71 212.94 98.38 213.75 C 91.04 214.56 77.96 215.31 73.50 215.75 C 69.04 216.19 70.33 214.17 71.62 216.38 C 72.92 218.58 75.77 227.27 81.25 229.00 C 86.73 230.73 97.65 227.75 104.50 226.75 C 111.35 225.75 115.56 224.15 122.38 223.00 C 129.19 221.85 136.56 221.35 145.38 219.88 C 154.19 218.40 168.48 215.27 175.25 214.12 C 182.02 212.98 183.79 212.96 186.00 213.00 C 188.21 213.04 187.85 213.79 188.50 214.38 C 189.15 214.96 189.52 215.75 189.88 216.50 C 190.23 217.25 190.48 216.83 190.62 218.88 C 190.77 220.92 191.06 223.75 190.75 228.75 C 190.44 233.75 189.04 245.35 188.75 248.88 C 188.46 252.40 184.90 249.73 189.00 249.88 C 193.10 250.02 208.54 252.44 213.38 249.75 C 218.21 247.06 216.75 237.50 218.00 233.75 C 219.25 230.00 219.75 229.31 220.88 227.25 C 222.00 225.19 223.92 222.92 224.75 221.38 C 225.58 219.83 225.69 218.94 225.88 218.00 Z" id="s-3-f-2"/>
<path d="M 213.25 201.38 C 211.29 200.17 204.58 196.67 201.50 195.12 C 198.42 193.58 196.88 192.62 194.75 192.12 C 192.62 191.62 191.75 191.62 188.75 192.12 C 185.75 192.62 182.67 193.35 176.75 195.12 C 170.83 196.90 157.60 201.42 153.25 202.75 C 148.90 204.08 152.90 202.52 150.62 203.12 C 148.35 203.73 142.17 205.79 139.62 206.38 C 137.08 206.96 138.10 206.12 135.38 206.62 C 132.65 207.12 125.81 208.88 123.25 209.38 C 120.69 209.88 120.96 209.38 120.00 209.62 C 119.04 209.88 119.77 210.35 117.50 210.88 C 115.23 211.40 111.23 212.10 106.38 212.75 C 101.52 213.40 93.85 214.25 88.38 214.75 C 82.90 215.25 76.29 215.48 73.50 215.75 C 70.71 216.02 70.33 214.19 71.62 216.38 C 72.92 218.56 76.88 227.00 81.25 228.88 C 85.62 230.75 92.94 228.17 97.88 227.62 C 102.81 227.08 106.79 226.40 110.88 225.62 C 114.96 224.85 116.75 223.94 122.38 223.00 C 128.00 222.06 136.65 221.33 144.62 220.00 C 152.60 218.67 163.42 216.21 170.25 215.00 C 177.08 213.79 178.46 214.85 185.62 212.75 C 192.79 210.65 208.65 204.27 213.25 202.38 C 217.85 200.48 215.21 202.58 213.25 201.38 Z" id="s-3-f-3"/>
<path d="M 167.88 198.62 C 167.79 195.75 169.69 197.44 167.25 198.12 C 164.81 198.81 156.02 201.92 153.25 202.75 C 150.48 203.58 152.90 202.52 150.62 203.12 C 148.35 203.73 142.17 205.79 139.62 206.38 C 137.08 206.96 138.10 206.12 135.38 206.62 C 132.65 207.12 125.81 208.88 123.25 209.38 C 120.69 209.88 120.96 209.38 120.00 209.62 C 119.04 209.88 121.10 210.19 117.50 210.88 C 113.90 211.56 105.73 212.94 98.38 213.75 C 91.02 214.56 77.83 215.31 73.38 215.75 C 68.92 216.19 70.31 214.17 71.62 216.38 C 72.94 218.58 78.25 226.98 81.25 229.00 C 84.25 231.02 85.69 228.90 89.62 228.50 C 93.56 228.10 99.42 227.54 104.88 226.62 C 110.33 225.71 114.48 224.33 122.38 223.00 C 130.27 221.67 144.69 219.90 152.25 218.62 C 159.81 217.35 165.15 218.71 167.75 215.38 C 170.35 212.04 167.96 201.50 167.88 198.62 Z" id="s-3-f-4"/>
<path d="M 119.88 223.38 C 120.56 221.17 120.06 213.65 120.00 211.38 C 119.94 209.10 119.92 209.83 119.50 209.75 C 119.08 209.67 119.69 210.38 117.50 210.88 C 115.31 211.38 111.23 212.10 106.38 212.75 C 101.52 213.40 93.88 214.25 88.38 214.75 C 82.88 215.25 76.15 215.48 73.38 215.75 C 70.60 216.02 70.42 214.17 71.75 216.38 C 73.08 218.58 76.00 227.27 81.38 229.00 C 86.75 230.73 98.25 227.48 104.00 226.75 C 109.75 226.02 113.23 225.19 115.88 224.62 C 118.52 224.06 119.19 225.58 119.88 223.38 Z" id="s-3-f-5"/>
</g>
<g id="s-4" clip-path="url(#c-s-4)">
<use href="#s-4-f-0"/>
<path d="M 180.88 246.62 C 180.75 244.17 181.31 246.23 180.25 246.00 C 179.19 245.77 176.88 245.42 174.50 245.25 C 172.12 245.08 170.33 244.42 166.00 245.00 C 161.67 245.58 151.83 248.10 148.50 248.75 C 145.17 249.40 148.27 248.40 146.00 248.88 C 143.73 249.35 137.31 251.10 134.88 251.62 C 132.44 252.15 133.77 251.46 131.38 252.00 C 128.98 252.54 125.02 253.92 120.50 254.88 C 115.98 255.83 109.96 256.90 104.25 257.75 C 98.54 258.60 89.48 259.50 86.25 260.00 C 83.02 260.50 85.15 260.48 84.88 260.75 C 84.60 261.02 84.48 260.00 84.62 261.62 C 84.77 263.25 85.40 268.65 85.75 270.50 C 86.10 272.35 86.15 272.25 86.75 272.75 C 87.35 273.25 86.65 273.33 89.38 273.50 C 92.10 273.67 97.69 274.17 103.12 273.75 C 108.56 273.33 117.88 271.48 122.00 271.00 C 126.12 270.52 124.31 271.25 127.88 270.88 C 131.44 270.50 137.67 269.73 143.38 268.75 C 149.08 267.77 155.96 266.06 162.12 265.00 C 168.29 263.94 177.23 263.08 180.38 262.38 C 183.52 261.67 180.92 263.38 181.00 260.75 C 181.08 258.12 181.00 249.08 180.88 246.62 Z" id="s-4-f-1"/>
<path d="M 132.88 252.25 C 132.67 249.46 133.81 251.44 131.75 251.88 C 129.69 252.31 125.08 253.90 120.50 254.88 C 115.92 255.85 109.96 256.90 104.25 257.75 C 98.54 258.60 89.50 259.46 86.25 260.00 C 83.00 260.54 85.02 260.38 84.75 261.00 C 84.48 261.62 84.52 262.94 84.62 263.75 C 84.73 264.56 85.19 264.75 85.38 265.88 C 85.56 267.00 85.54 269.38 85.75 270.50 C 85.96 271.62 85.69 272.08 86.62 272.62 C 87.56 273.17 88.58 273.56 91.38 273.75 C 94.17 273.94 98.27 274.21 103.38 273.75 C 108.48 273.29 118.12 271.46 122.00 271.00 C 125.88 270.54 124.88 271.17 126.62 271.00 C 128.38 270.83 131.44 270.40 132.50 270.00 C 133.56 269.60 132.94 271.58 133.00 268.62 C 133.06 265.67 133.08 255.04 132.88 252.25 Z" id="s-4-f-2"/>
</g>
<g id="s-5" clip-path="url(#c-s-5)">
<use href="#s-5-f-0"/>
<path d="M 149.38 218.75 C 148.54 218.69 145.71 218.52 144.75 218.62 C 143.79 218.73 144.73 219.21 143.62 219.38 C 142.52 219.54 139.38 219.44 138.12 219.62 C 136.88 219.81 138.33 220.17 136.12 220.50 C 133.92 220.83 127.10 221.25 124.88 221.62 C 122.65 222.00 122.77 217.73 122.75 222.75 C 122.73 227.77 124.46 244.46 124.75 251.75 C 125.04 259.04 124.48 263.94 124.50 266.50 C 124.52 269.06 121.21 267.00 124.88 267.12 C 128.54 267.25 142.79 267.29 146.50 267.25 C 150.21 267.21 146.85 267.81 147.12 266.88 C 147.40 265.94 147.98 265.83 148.12 261.62 C 148.27 257.42 147.85 247.48 148.00 241.62 C 148.15 235.77 148.71 229.71 149.00 226.50 C 149.29 223.29 149.62 223.62 149.75 222.38 C 149.88 221.12 149.81 219.60 149.75 219.00 C 149.69 218.40 150.21 218.81 149.38 218.75 Z" id="s-5-f-1"/>
</g>
<g id="s-6" clip-path="url(#c-s-6)">
<use href="#s-6-f-0"/>
<path d="M 137.00 299.00 C 136.90 296.44 136.81 298.56 136.38 298.50 C 135.94 298.44 134.94 298.48 134.38 298.62 C 133.81 298.77 133.79 299.21 133.00 299.38 C 132.21 299.54 130.42 299.46 129.62 299.62 C 128.83 299.79 129.06 300.21 128.25 300.38 C 127.44 300.54 125.50 300.42 124.75 300.62 C 124.00 300.83 126.75 300.96 123.75 301.62 C 120.75 302.29 112.56 303.75 106.75 304.62 C 100.94 305.50 91.92 306.44 88.88 306.88 C 85.83 307.31 88.54 306.15 88.50 307.25 C 88.46 308.35 88.46 311.48 88.62 313.50 C 88.79 315.52 88.90 318.17 89.50 319.38 C 90.10 320.58 90.46 320.52 92.25 320.75 C 94.04 320.98 92.90 321.60 100.25 320.75 C 107.60 319.90 130.25 316.77 136.38 315.62 C 142.50 314.48 136.90 316.65 137.00 313.88 C 137.10 311.10 137.10 301.56 137.00 299.00 Z" id="s-6-f-1"/>
</g>
<g id="s-7" clip-path="url(#c-s-7)">
<use href="#s-7-f-0"/>
<path d="M 55.62 344.00 C 54.88 343.62 54.02 343.81 53.25 344.38 C 52.48 344.94 52.08 344.98 51.00 347.38 C 49.92 349.77 49.29 353.12 46.75 358.75 C 44.21 364.38 38.52 375.73 35.75 381.12 C 32.98 386.52 31.04 389.35 30.12 391.12 C 29.21 392.90 25.04 391.60 30.25 391.75 C 35.46 391.90 55.79 392.02 61.38 392.00 C 66.96 391.98 63.02 393.35 63.75 391.62 C 64.48 389.90 65.44 385.38 65.75 381.62 C 66.06 377.88 65.81 371.98 65.62 369.12 C 65.44 366.27 65.27 366.69 64.62 364.50 C 63.98 362.31 62.90 358.98 61.75 356.00 C 60.60 353.02 58.77 348.62 57.75 346.62 C 56.73 344.62 56.38 344.38 55.62 344.00 Z" id="s-7-f-1"/>
</g>
<g id="s-8" clip-path="url(#c-s-8)">
<use href="#s-8-f-0"/>
<path d="M 84.00 355.50 C 83.71 356.15 83.83 357.00 84.12 357.88 C 84.42 358.75 84.44 357.40 85.75 360.75 C 87.06 364.10 90.12 373.12 92.00 378.00 C 93.88 382.88 95.17 386.08 97.00 390.00 C 98.83 393.92 101.67 399.50 103.00 401.50 C 104.33 403.50 102.08 401.92 105.00 402.00 C 107.92 402.08 117.67 402.06 120.50 402.00 C 123.33 401.94 121.60 402.44 122.00 401.62 C 122.40 400.81 122.79 399.73 122.88 397.12 C 122.96 394.52 122.71 388.60 122.50 386.00 C 122.29 383.40 122.08 383.21 121.62 381.50 C 121.17 379.79 120.54 377.56 119.75 375.75 C 118.96 373.94 118.69 372.75 116.88 370.62 C 115.06 368.50 110.96 364.77 108.88 363.00 C 106.79 361.23 106.08 361.00 104.38 360.00 C 102.67 359.00 100.92 358.00 98.62 357.00 C 96.33 356.00 92.75 354.50 90.62 354.00 C 88.50 353.50 86.98 353.75 85.88 354.00 C 84.77 354.25 84.29 354.85 84.00 355.50 Z" id="s-8-f-1"/>
</g>
<g id="s-9" clip-path="url(#c-s-9)">
<use href="#s-9-f-0"/>
<path d="M 133.75 348.00 C 132.98 348.23 133.00 348.65 132.88 349.38 C 132.75 350.10 132.48 350.44 133.00 352.38 C 133.52 354.31 133.98 355.92 136.00 361.00 C 138.02 366.08 142.48 377.12 145.12 382.88 C 147.77 388.62 150.46 393.31 151.88 395.50 C 153.29 397.69 150.83 395.94 153.62 396.00 C 156.42 396.06 165.96 396.21 168.62 395.88 C 171.29 395.54 169.42 394.77 169.62 394.00 C 169.83 393.23 169.90 393.54 169.88 391.25 C 169.85 388.96 169.88 383.42 169.50 380.25 C 169.12 377.08 168.25 374.33 167.62 372.25 C 167.00 370.17 166.38 369.00 165.75 367.75 C 165.12 366.50 164.77 365.85 163.88 364.75 C 162.98 363.65 162.65 362.90 160.38 361.12 C 158.10 359.35 153.54 356.15 150.25 354.12 C 146.96 352.10 142.75 350.02 140.62 349.00 C 138.50 347.98 138.65 348.17 137.50 348.00 C 136.35 347.83 134.52 347.77 133.75 348.00 Z" id="s-9-f-1"/>
</g>
<g id="s-10" clip-path="url(#c-s-10)">
<use href="#s-10-f-0"/>
<path d="M 172.00 335.75 C 171.88 336.29 171.83 337.46 172.00 338.25 C 172.17 339.04 171.90 338.58 173.00 340.50 C 174.10 342.42 175.46 343.35 178.62 349.75 C 181.79 356.15 189.40 373.35 192.00 378.88 C 194.60 384.40 189.81 382.19 194.25 382.88 C 198.69 383.56 214.21 383.06 218.62 383.00 C 223.04 382.94 220.40 383.81 220.75 382.50 C 221.10 381.19 221.10 377.71 220.75 375.12 C 220.40 372.54 219.62 369.44 218.62 367.00 C 217.62 364.56 216.69 362.98 214.75 360.50 C 212.81 358.02 209.50 354.54 207.00 352.12 C 204.50 349.71 204.00 348.69 199.75 346.00 C 195.50 343.31 185.62 337.85 181.50 336.00 C 177.38 334.15 176.46 335.04 175.00 334.88 C 173.54 334.71 173.25 334.85 172.75 335.00 C 172.25 335.15 172.12 335.21 172.00 335.75 Z" id="s-10-f-1"/>
</g>
<g id="s-11" clip-path="url(#c-s-11)">
<use href="#s-11-f-0"/>
<path d="M 419.88 95.12 C 419.62 92.79 419.27 94.06 418.38 93.38 C 417.48 92.69 416.42 91.90 414.50 91.00 C 412.58 90.10 409.94 88.96 406.88 88.00 C 403.81 87.04 399.23 85.75 396.12 85.25 C 393.02 84.75 392.52 83.92 388.25 85.00 C 383.98 86.08 375.73 89.96 370.50 91.75 C 365.27 93.54 361.21 94.58 356.88 95.75 C 352.54 96.92 349.54 97.69 344.50 98.75 C 339.46 99.81 332.79 100.79 326.62 102.12 C 320.46 103.46 314.79 105.15 307.50 106.75 C 300.21 108.35 289.81 110.42 282.88 111.75 C 275.94 113.08 273.56 113.54 265.88 114.75 C 258.19 115.96 242.75 117.92 236.75 119.00 C 230.75 120.08 231.31 120.60 229.88 121.25 C 228.44 121.90 228.46 122.35 228.12 122.88 C 227.79 123.40 227.60 123.58 227.88 124.38 C 228.15 125.17 228.48 126.23 229.75 127.62 C 231.02 129.02 233.69 131.56 235.50 132.75 C 237.31 133.94 238.69 134.23 240.62 134.75 C 242.56 135.27 239.52 135.69 247.12 135.88 C 254.73 136.06 275.92 136.42 286.25 135.88 C 296.58 135.33 293.98 135.15 309.12 132.62 C 324.27 130.10 363.38 123.25 377.12 120.75 C 390.88 118.25 386.29 118.98 391.62 117.62 C 396.96 116.27 404.67 114.12 409.12 112.62 C 413.58 111.12 416.58 109.50 418.38 108.62 C 420.17 107.75 419.62 109.62 419.88 107.38 C 420.12 105.12 420.12 97.46 419.88 95.12 Z" id="s-11-f-1"/>
<path d="M 371.75 91.75 C 371.60 87.10 373.02 90.88 371.12 91.38 C 369.23 91.88 364.81 93.52 360.38 94.75 C 355.94 95.98 350.15 97.52 344.50 98.75 C 338.85 99.98 332.67 100.79 326.50 102.12 C 320.33 103.46 313.90 105.31 307.50 106.75 C 301.10 108.19 295.06 109.42 288.12 110.75 C 281.19 112.08 274.44 113.38 265.88 114.75 C 257.31 116.12 242.75 117.92 236.75 119.00 C 230.75 120.08 231.35 120.52 229.88 121.25 C 228.40 121.98 228.19 122.73 227.88 123.38 C 227.56 124.02 227.69 124.42 228.00 125.12 C 228.31 125.83 228.50 126.35 229.75 127.62 C 231.00 128.90 233.69 131.56 235.50 132.75 C 237.31 133.94 238.17 134.21 240.62 134.75 C 243.08 135.29 243.15 135.79 250.25 136.00 C 257.35 136.21 272.38 136.73 283.25 136.00 C 294.12 135.27 300.79 134.00 315.50 131.62 C 330.21 129.25 362.08 123.81 371.50 121.75 C 380.92 119.69 371.96 124.25 372.00 119.25 C 372.04 114.25 371.90 96.40 371.75 91.75 Z" id="s-11-f-2"/>
<path d="M 323.88 103.38 C 323.67 98.96 325.48 102.44 322.75 103.00 C 320.02 103.56 314.15 105.29 307.50 106.75 C 300.85 108.21 289.81 110.42 282.88 111.75 C 275.94 113.08 273.56 113.54 265.88 114.75 C 258.19 115.96 242.75 117.92 236.75 119.00 C 230.75 120.08 231.35 120.52 229.88 121.25 C 228.40 121.98 228.19 122.73 227.88 123.38 C 227.56 124.02 227.69 124.42 228.00 125.12 C 228.31 125.83 228.50 126.35 229.75 127.62 C 231.00 128.90 233.69 131.56 235.50 132.75 C 237.31 133.94 238.69 134.23 240.62 134.75 C 242.56 135.27 239.52 135.69 247.12 135.88 C 254.73 136.06 273.69 136.79 286.25 135.88 C 298.81 134.96 316.21 131.44 322.50 130.38 C 328.79 129.31 323.77 134.00 324.00 129.50 C 324.23 125.00 324.08 107.79 323.88 103.38 Z" id="s-11-f-3"/>
<path d="M 276.00 113.50 C 275.62 109.96 275.44 112.92 273.75 113.12 C 272.06 113.33 272.08 113.77 265.88 114.75 C 259.67 115.73 242.50 117.92 236.50 119.00 C 230.50 120.08 231.31 120.52 229.88 121.25 C 228.44 121.98 228.19 122.73 227.88 123.38 C 227.56 124.02 227.60 124.33 228.00 125.12 C 228.40 125.92 229.06 126.90 230.25 128.12 C 231.44 129.35 233.40 131.40 235.12 132.50 C 236.85 133.60 238.19 134.17 240.62 134.75 C 243.06 135.33 243.92 135.81 249.75 136.00 C 255.58 136.19 271.25 136.15 275.62 135.88 C 280.00 135.60 275.94 138.10 276.00 134.38 C 276.06 130.65 276.38 117.04 276.00 113.50 Z" id="s-11-f-4"/>
</g>
<g id="s-12" clip-path="url(#c-s-12)">
<use href="#s-12-f-0"/>
<path d="M 248.50 135.50 C 242.31 135.58 248.06 135.73 248.00 136.00 C 247.94 136.27 247.35 135.50 248.12 137.12 C 248.90 138.75 251.50 143.04 252.62 145.75 C 253.75 148.46 254.31 149.75 254.88 153.38 C 255.44 157.00 255.35 161.42 256.00 167.50 C 256.65 173.58 258.17 184.08 258.75 189.88 C 259.33 195.67 259.02 171.40 259.50 202.25 C 259.98 233.10 261.23 346.08 261.62 375.00 C 262.02 403.92 261.58 375.58 261.88 375.75 C 262.17 375.92 260.10 375.98 263.38 376.00 C 266.65 376.02 278.29 375.98 281.50 375.88 C 284.71 375.77 282.40 376.04 282.62 375.38 C 282.85 374.71 282.81 398.56 282.88 371.88 C 282.94 345.19 282.48 246.65 283.00 215.25 C 283.52 183.85 285.12 191.52 286.00 183.50 C 286.88 175.48 287.56 171.00 288.25 167.12 C 288.94 163.25 289.04 163.12 290.12 160.25 C 291.21 157.38 293.98 152.21 294.75 149.88 C 295.52 147.54 294.92 147.33 294.75 146.25 C 294.58 145.17 294.23 144.27 293.75 143.38 C 293.27 142.48 293.31 142.19 291.88 140.88 C 290.44 139.56 292.35 136.40 285.12 135.50 C 277.90 134.60 254.69 135.42 248.50 135.50 Z" id="s-12-f-1"/>
<path d="M 248.50 135.50 C 242.31 135.58 248.06 135.73 248.00 136.00 C 247.94 136.27 247.35 135.50 248.12 137.12 C 248.90 138.75 251.52 143.17 252.62 145.75 C 253.73 148.33 254.25 150.38 254.75 152.62 C 255.25 154.88 255.42 156.77 255.62 159.25 C 255.83 161.73 255.46 162.17 256.00 167.50 C 256.54 172.83 258.23 183.17 258.88 191.25 C 259.52 199.33 259.50 193.27 259.88 216.00 C 260.25 238.73 260.65 308.96 261.12 327.62 C 261.60 346.29 259.38 327.96 262.75 328.00 C 266.12 328.04 278.06 327.94 281.38 327.88 C 284.69 327.81 282.38 327.83 282.62 327.62 C 282.88 327.42 282.81 345.35 282.88 326.62 C 282.94 307.90 282.48 239.10 283.00 215.25 C 283.52 191.40 285.12 191.52 286.00 183.50 C 286.88 175.48 287.56 171.00 288.25 167.12 C 288.94 163.25 289.04 163.12 290.12 160.25 C 291.21 157.38 293.98 152.21 294.75 149.88 C 295.52 147.54 294.92 147.33 294.75 146.25 C 294.58 145.17 294.23 144.27 293.75 143.38 C 293.27 142.48 293.31 142.19 291.88 140.88 C 290.44 139.56 292.35 136.40 285.12 135.50 C 277.90 134.60 254.69 135.42 248.50 135.50 Z" id="s-12-f-2"/>
<path d="M 248.50 135.50 C 242.31 135.58 248.06 135.73 248.00 136.00 C 247.94 136.27 247.35 135.50 248.12 137.12 C 248.90 138.75 251.52 143.17 252.62 145.75 C 253.73 148.33 254.25 150.38 254.75 152.62 C 255.25 154.88 255.42 156.77 255.62 159.25 C 255.83 161.73 255.46 162.17 256.00 167.50 C 256.54 172.83 258.25 184.31 258.88 191.25 C 259.50 198.19 259.48 194.44 259.75 209.12 C 260.02 223.81 260.06 267.56 260.50 279.38 C 260.94 291.19 258.73 279.90 262.38 280.00 C 266.02 280.10 278.96 280.31 282.38 280.00 C 285.79 279.69 282.77 288.92 282.88 278.12 C 282.98 267.33 282.65 229.48 283.00 215.25 C 283.35 201.02 284.12 200.77 285.00 192.75 C 285.88 184.73 287.40 172.54 288.25 167.12 C 289.10 161.71 289.04 163.12 290.12 160.25 C 291.21 157.38 294.00 152.31 294.75 149.88 C 295.50 147.44 294.79 146.71 294.62 145.62 C 294.46 144.54 294.21 144.17 293.75 143.38 C 293.29 142.58 293.31 142.19 291.88 140.88 C 290.44 139.56 292.35 136.40 285.12 135.50 C 277.90 134.60 254.69 135.42 248.50 135.50 Z" id="s-12-f-3"/>
<path d="M 248.50 135.50 C 242.31 135.58 248.06 135.73 248.00 136.00 C 247.94 136.27 247.50 135.83 248.12 137.12 C 248.75 138.42 250.81 141.83 251.75 143.75 C 252.69 145.67 253.10 146.04 253.75 148.62 C 254.40 151.21 255.25 156.10 255.62 159.25 C 256.00 162.40 255.46 162.17 256.00 167.50 C 256.54 172.83 258.25 184.31 258.88 191.25 C 259.50 198.19 259.54 202.40 259.75 209.12 C 259.96 215.85 259.79 227.81 260.12 231.62 C 260.46 235.44 258.00 231.96 261.75 232.00 C 265.50 232.04 279.08 232.08 282.62 231.88 C 286.17 231.67 282.94 233.52 283.00 230.75 C 283.06 227.98 282.33 224.50 283.00 215.25 C 283.67 206.00 286.00 183.88 287.00 175.25 C 288.00 166.62 287.71 167.73 289.00 163.50 C 290.29 159.27 293.83 152.92 294.75 149.88 C 295.67 146.83 294.67 146.33 294.50 145.25 C 294.33 144.17 294.19 144.10 293.75 143.38 C 293.31 142.65 293.31 142.19 291.88 140.88 C 290.44 139.56 292.35 136.40 285.12 135.50 C 277.90 134.60 254.69 135.42 248.50 135.50 Z" id="s-12-f-4"/>
<path d="M 248.25 135.62 C 242.08 135.90 247.38 135.40 248.12 137.12 C 248.88 138.85 251.65 143.42 252.75 146.00 C 253.85 148.58 254.27 150.42 254.75 152.62 C 255.23 154.83 255.42 156.77 255.62 159.25 C 255.83 161.73 255.60 163.46 256.00 167.50 C 256.40 171.54 257.23 180.75 258.00 183.50 C 258.77 186.25 256.04 183.92 260.62 184.00 C 265.21 184.08 281.23 184.25 285.50 184.00 C 289.77 183.75 285.67 185.92 286.25 182.50 C 286.83 179.08 287.58 168.94 289.00 163.50 C 290.42 158.06 293.81 152.85 294.75 149.88 C 295.69 146.90 295.00 147.00 294.62 145.62 C 294.25 144.25 293.35 142.79 292.50 141.62 C 291.65 140.46 290.52 139.42 289.50 138.62 C 288.48 137.83 287.10 137.40 286.38 136.88 C 285.65 136.35 291.48 135.71 285.12 135.50 C 278.77 135.29 254.42 135.35 248.25 135.62 Z" id="s-12-f-5"/>
</g>
<g id="s-13" clip-path="url(#c-s-13)">
<use href="#s-13-f-0"/>
<path d="M 423.88 219.88 C 423.75 219.04 423.67 218.52 422.88 217.38 C 422.08 216.23 420.67 214.50 419.12 213.00 C 417.58 211.50 415.79 210.00 413.62 208.38 C 411.46 206.75 408.33 204.62 406.12 203.25 C 403.92 201.88 402.52 201.15 400.38 200.12 C 398.23 199.10 395.06 197.81 393.25 197.12 C 391.44 196.44 390.98 196.19 389.50 196.00 C 388.02 195.81 390.27 194.54 384.38 196.00 C 378.48 197.46 363.12 202.29 354.12 204.75 C 345.12 207.21 338.48 209.08 330.38 210.75 C 322.27 212.42 313.35 213.73 305.50 214.75 C 297.65 215.77 287.08 216.46 283.25 216.88 C 279.42 217.29 282.62 214.48 282.50 217.25 C 282.38 220.02 281.85 230.58 282.50 233.50 C 283.15 236.42 284.58 234.56 286.38 234.75 C 288.17 234.94 286.48 236.15 293.25 234.62 C 300.02 233.10 317.65 228.23 327.00 225.62 C 336.35 223.02 343.90 220.44 349.38 219.00 C 354.85 217.56 357.00 217.29 359.88 217.00 C 362.75 216.71 364.83 217.08 366.62 217.25 C 368.42 217.42 369.52 217.69 370.62 218.00 C 371.73 218.31 372.54 218.73 373.25 219.12 C 373.96 219.52 374.31 219.67 374.88 220.38 C 375.44 221.08 376.33 221.69 376.62 223.38 C 376.92 225.06 377.06 226.10 376.62 230.50 C 376.19 234.90 374.40 246.17 374.00 249.75 C 373.60 253.33 368.54 251.65 374.25 252.00 C 379.96 252.35 401.44 254.75 408.25 251.88 C 415.06 249.00 413.31 238.75 415.12 234.75 C 416.94 230.75 417.71 229.94 419.12 227.88 C 420.54 225.81 422.83 223.71 423.62 222.38 C 424.42 221.04 424.00 220.71 423.88 219.88 Z" id="s-13-f-1"/>
<path d="M 406.25 203.50 C 405.38 202.75 402.54 201.19 400.38 200.12 C 398.21 199.06 395.06 197.81 393.25 197.12 C 391.44 196.44 390.98 196.19 389.50 196.00 C 388.02 195.81 390.27 194.54 384.38 196.00 C 378.48 197.46 363.12 202.29 354.12 204.75 C 345.12 207.21 338.48 209.08 330.38 210.75 C 322.27 212.42 313.35 213.73 305.50 214.75 C 297.65 215.77 287.08 216.46 283.25 216.88 C 279.42 217.29 282.62 214.48 282.50 217.25 C 282.38 220.02 281.85 230.58 282.50 233.50 C 283.15 236.42 284.58 234.56 286.38 234.75 C 288.17 234.94 286.48 236.15 293.25 234.62 C 300.02 233.10 317.65 228.23 327.00 225.62 C 336.35 223.02 342.83 220.65 349.38 219.00 C 355.92 217.35 356.88 218.15 366.25 215.75 C 375.62 213.35 398.96 206.67 405.62 204.62 C 412.29 202.58 407.12 204.25 406.25 203.50 Z" id="s-13-f-2"/>
<path d="M 378.50 198.75 C 378.33 196.60 378.25 198.12 378.00 198.00 C 377.75 197.88 380.98 196.88 377.00 198.00 C 373.02 199.12 361.90 202.62 354.12 204.75 C 346.35 206.88 338.48 209.08 330.38 210.75 C 322.27 212.42 313.35 213.73 305.50 214.75 C 297.65 215.77 287.08 216.46 283.25 216.88 C 279.42 217.29 282.62 214.48 282.50 217.25 C 282.38 220.02 281.85 230.58 282.50 233.50 C 283.15 236.42 284.58 234.56 286.38 234.75 C 288.17 234.94 286.48 236.15 293.25 234.62 C 300.02 233.10 317.65 228.23 327.00 225.62 C 336.35 223.02 343.52 220.48 349.38 219.00 C 355.23 217.52 357.25 217.92 362.12 216.75 C 367.00 215.58 375.81 212.98 378.62 212.00 C 381.44 211.02 379.02 213.08 379.00 210.88 C 378.98 208.67 378.67 200.90 378.50 198.75 Z" id="s-13-f-3"/>
<path d="M 330.88 211.12 C 330.79 209.10 334.90 210.12 330.50 210.75 C 326.10 211.38 312.38 213.85 304.50 214.88 C 296.62 215.90 286.92 216.48 283.25 216.88 C 279.58 217.27 282.62 214.48 282.50 217.25 C 282.38 220.02 281.85 230.58 282.50 233.50 C 283.15 236.42 284.69 234.54 286.38 234.75 C 288.06 234.96 285.33 236.42 292.62 234.75 C 299.92 233.08 323.77 226.50 330.12 224.75 C 336.48 223.00 330.60 224.56 330.75 224.25 C 330.90 223.94 330.98 225.06 331.00 222.88 C 331.02 220.69 330.96 213.15 330.88 211.12 Z" id="s-13-f-4"/>
</g>
<g id="s-14" clip-path="url(#c-s-14)">
<use href="#s-14-f-0"/>
<path d="M 378.88 278.25 C 378.75 274.58 379.52 277.92 378.25 277.62 C 376.98 277.33 375.23 276.00 371.25 276.50 C 367.27 277.00 359.98 279.38 354.38 280.62 C 348.77 281.88 340.62 283.33 337.62 284.00 C 334.62 284.67 339.35 284.00 336.38 284.62 C 333.40 285.25 328.62 286.38 319.75 287.75 C 310.88 289.12 289.33 291.96 283.12 292.88 C 276.92 293.79 282.60 290.15 282.50 293.25 C 282.40 296.35 281.67 308.25 282.50 311.50 C 283.33 314.75 284.00 312.56 287.50 312.75 C 291.00 312.94 298.23 312.96 303.50 312.62 C 308.77 312.29 306.65 312.56 319.12 310.75 C 331.60 308.94 368.40 303.60 378.38 301.75 C 388.35 299.90 378.92 303.54 379.00 299.62 C 379.08 295.71 379.00 281.92 378.88 278.25 Z" id="s-14-f-1"/>
<path d="M 330.75 285.88 C 330.19 282.35 329.46 285.69 327.62 286.00 C 325.79 286.31 327.17 286.60 319.75 287.75 C 312.33 288.90 289.33 291.96 283.12 292.88 C 276.92 293.79 282.60 290.15 282.50 293.25 C 282.40 296.35 281.67 308.25 282.50 311.50 C 283.33 314.75 284.00 312.56 287.50 312.75 C 291.00 312.94 298.21 312.96 303.50 312.62 C 308.79 312.29 314.73 311.40 319.25 310.75 C 323.77 310.10 328.67 309.35 330.62 308.75 C 332.58 308.15 330.98 310.94 331.00 307.12 C 331.02 303.31 331.31 289.40 330.75 285.88 Z" id="s-14-f-2"/>
</g>
<g id="s-15" clip-path="url(#c-s-15)">
<use href="#s-15-f-0"/>
<path d="M 468.00 391.00 C 467.90 388.31 468.67 390.04 467.25 388.88 C 465.83 387.71 461.48 385.12 459.50 384.00 C 457.52 382.88 458.27 383.27 455.38 382.12 C 452.48 380.98 444.96 378.12 442.12 377.12 C 439.29 376.12 439.73 376.33 438.38 376.12 C 437.02 375.92 439.48 375.25 434.00 375.88 C 428.52 376.50 418.21 378.69 405.50 379.88 C 392.79 381.06 377.94 381.19 357.75 383.00 C 337.56 384.81 297.44 389.48 284.38 390.75 C 271.31 392.02 280.75 390.50 279.38 390.62 C 278.00 390.75 277.46 391.31 276.12 391.50 C 274.79 391.69 272.54 391.58 271.38 391.75 C 270.21 391.92 270.29 392.33 269.12 392.50 C 267.96 392.67 265.67 392.52 264.38 392.75 C 263.08 392.98 266.58 393.50 261.38 393.88 C 256.17 394.25 238.33 394.65 233.12 395.00 C 227.92 395.35 230.92 395.60 230.12 396.00 C 229.33 396.40 228.73 396.73 228.38 397.38 C 228.02 398.02 227.83 399.12 228.00 399.88 C 228.17 400.62 228.60 401.06 229.38 401.88 C 230.15 402.69 230.52 403.40 232.62 404.75 C 234.73 406.10 238.96 408.17 242.00 410.00 C 245.04 411.83 248.81 414.48 250.88 415.75 C 252.94 417.02 252.94 417.02 254.38 417.62 C 255.81 418.23 257.77 419.00 259.50 419.38 C 261.23 419.75 262.10 420.27 264.75 419.88 C 267.40 419.48 271.98 417.81 275.38 417.00 C 278.77 416.19 280.31 415.85 285.12 415.00 C 289.94 414.15 295.67 413.04 304.25 411.88 C 312.83 410.71 325.85 409.15 336.62 408.00 C 347.40 406.85 359.92 405.67 368.88 405.00 C 377.83 404.33 383.44 404.17 390.38 404.00 C 397.31 403.83 400.71 403.71 410.50 404.00 C 420.29 404.29 439.69 405.46 449.12 405.75 C 458.56 406.04 464.00 405.88 467.12 405.75 C 470.25 405.62 467.73 407.46 467.88 405.00 C 468.02 402.54 468.10 393.69 468.00 391.00 Z" id="s-15-f-1"/>
<path d="M 420.00 378.38 C 419.69 374.08 420.44 377.75 418.00 378.00 C 415.56 378.25 415.44 379.04 405.38 379.88 C 395.31 380.71 377.79 381.19 357.62 383.00 C 337.46 384.81 297.42 389.48 284.38 390.75 C 271.33 392.02 280.75 390.50 279.38 390.62 C 278.00 390.75 277.46 391.31 276.12 391.50 C 274.79 391.69 272.54 391.58 271.38 391.75 C 270.21 391.92 270.29 392.33 269.12 392.50 C 267.96 392.67 265.71 392.52 264.38 392.75 C 263.04 392.98 266.33 393.50 261.12 393.88 C 255.92 394.25 238.33 394.62 233.12 395.00 C 227.92 395.38 230.71 395.67 229.88 396.12 C 229.04 396.58 228.46 397.21 228.12 397.75 C 227.79 398.29 227.67 398.69 227.88 399.38 C 228.08 400.06 228.58 400.98 229.38 401.88 C 230.17 402.77 230.52 403.40 232.62 404.75 C 234.73 406.10 239.29 408.35 242.00 410.00 C 244.71 411.65 246.81 413.35 248.88 414.62 C 250.94 415.90 252.46 416.79 254.38 417.62 C 256.29 418.46 258.96 419.25 260.38 419.62 C 261.79 420.00 261.92 419.88 262.88 419.88 C 263.83 419.88 264.04 420.10 266.12 419.62 C 268.21 419.15 272.21 417.77 275.38 417.00 C 278.54 416.23 280.58 415.81 285.12 415.00 C 289.67 414.19 297.08 412.96 302.62 412.12 C 308.17 411.29 309.46 411.02 318.38 410.00 C 327.29 408.98 344.12 407.00 356.12 406.00 C 368.12 405.00 379.83 404.29 390.38 404.00 C 400.92 403.71 414.46 404.29 419.38 404.25 C 424.29 404.21 419.77 408.06 419.88 403.75 C 419.98 399.44 420.31 382.67 420.00 378.38 Z" id="s-15-f-2"/>
<path d="M 371.88 382.50 C 371.81 378.71 373.96 381.90 371.38 382.00 C 368.79 382.10 370.88 381.67 356.38 383.12 C 341.88 384.58 297.21 389.50 284.38 390.75 C 271.54 392.00 280.75 390.50 279.38 390.62 C 278.00 390.75 277.46 391.31 276.12 391.50 C 274.79 391.69 272.54 391.58 271.38 391.75 C 270.21 391.92 270.29 392.33 269.12 392.50 C 267.96 392.67 265.71 392.52 264.38 392.75 C 263.04 392.98 266.33 393.50 261.12 393.88 C 255.92 394.25 238.46 394.54 233.12 395.00 C 227.79 395.46 229.98 396.12 229.12 396.62 C 228.27 397.12 228.21 397.54 228.00 398.00 C 227.79 398.46 227.67 398.75 227.88 399.38 C 228.08 400.00 228.46 400.85 229.25 401.75 C 230.04 402.65 230.50 403.38 232.62 404.75 C 234.75 406.12 238.67 408.00 242.00 410.00 C 245.33 412.00 249.58 415.15 252.62 416.75 C 255.67 418.35 258.23 419.10 260.25 419.62 C 262.27 420.15 262.23 420.31 264.75 419.88 C 267.27 419.44 271.98 417.81 275.38 417.00 C 278.77 416.19 280.44 415.83 285.12 415.00 C 289.81 414.17 293.31 413.33 303.50 412.00 C 313.69 410.67 334.88 408.21 346.25 407.00 C 357.62 405.79 367.48 408.83 371.75 404.75 C 376.02 400.67 371.94 386.29 371.88 382.50 Z" id="s-15-f-3"/>
<path d="M 323.62 387.00 C 322.48 383.60 323.67 386.50 317.12 387.12 C 310.58 387.75 290.67 390.17 284.38 390.75 C 278.08 391.33 280.75 390.50 279.38 390.62 C 278.00 390.75 277.46 391.31 276.12 391.50 C 274.79 391.69 272.54 391.58 271.38 391.75 C 270.21 391.92 270.29 392.33 269.12 392.50 C 267.96 392.67 265.71 392.52 264.38 392.75 C 263.04 392.98 266.33 393.50 261.12 393.88 C 255.92 394.25 238.33 394.62 233.12 395.00 C 227.92 395.38 230.71 395.67 229.88 396.12 C 229.04 396.58 228.46 397.21 228.12 397.75 C 227.79 398.29 227.69 398.71 227.88 399.38 C 228.06 400.04 228.46 400.85 229.25 401.75 C 230.04 402.65 230.50 403.38 232.62 404.75 C 234.75 406.12 238.96 408.17 242.00 410.00 C 245.04 411.83 248.81 414.48 250.88 415.75 C 252.94 417.02 252.81 416.98 254.38 417.62 C 255.94 418.27 258.52 419.25 260.25 419.62 C 261.98 420.00 262.23 420.31 264.75 419.88 C 267.27 419.44 271.06 417.98 275.38 417.00 C 279.69 416.02 282.58 415.25 290.62 414.00 C 298.67 412.75 318.06 410.58 323.62 409.50 C 329.19 408.42 324.00 411.25 324.00 407.50 C 324.00 403.75 324.77 390.40 323.62 387.00 Z" id="s-15-f-4"/>
<path d="M 275.88 416.50 C 276.17 412.19 276.31 395.90 275.75 391.75 C 275.19 387.60 273.60 391.50 272.50 391.62 C 271.40 391.75 270.48 392.31 269.12 392.50 C 267.77 392.69 265.71 392.52 264.38 392.75 C 263.04 392.98 266.33 393.50 261.12 393.88 C 255.92 394.25 238.33 394.62 233.12 395.00 C 227.92 395.38 230.73 395.62 229.88 396.12 C 229.02 396.62 228.29 397.29 228.00 398.00 C 227.71 398.71 227.35 399.25 228.12 400.38 C 228.90 401.50 228.25 401.88 232.62 404.75 C 237.00 407.62 249.77 415.15 254.38 417.62 C 258.98 420.10 258.52 419.25 260.25 419.62 C 261.98 420.00 262.46 420.21 264.75 419.88 C 267.04 419.54 272.15 418.19 274.00 417.62 C 275.85 417.06 275.58 420.81 275.88 416.50 Z" id="s-15-f-5"/>
</g>
</svg>