<?xml version="1.0" encoding="UTF-8"?>
<svg xmlns="http://www.w3.org/2000/svg" viewBox="0 0 500 500">
<defs>
<path d="M 237.25 51.75 C 234.81 49.48 230.40 45.25 227.38 43.12 C 224.35 41.00 221.15 39.85 219.12 39.00 C 217.10 38.15 216.60 38.17 215.25 38.00 C 213.90 37.83 212.21 37.65 211.00 38.00 C 209.79 38.35 208.65 39.56 208.00 40.12 C 207.35 40.69 207.46 40.50 207.12 41.38 C 206.79 42.25 206.27 42.56 206.00 45.38 C 205.73 48.19 205.88 54.08 205.50 58.25 C 205.12 62.42 204.71 66.23 203.75 70.38 C 202.79 74.52 201.08 79.67 199.75 83.12 C 198.42 86.58 198.25 86.75 195.75 91.12 C 193.25 95.50 187.79 104.50 184.75 109.38 C 181.71 114.25 180.35 116.27 177.50 120.38 C 174.65 124.48 170.73 129.85 167.62 134.00 C 164.52 138.15 163.21 140.00 158.88 145.25 C 154.54 150.50 147.56 158.88 141.62 165.50 C 135.69 172.12 129.12 178.92 123.25 185.00 C 117.38 191.08 111.02 197.42 106.38 202.00 C 101.73 206.58 100.71 207.69 95.38 212.50 C 90.04 217.31 80.75 225.62 74.38 230.88 C 68.00 236.12 62.31 240.27 57.12 244.00 C 51.94 247.73 46.40 250.90 43.25 253.25 C 40.10 255.60 39.15 257.15 38.25 258.12 C 37.35 259.10 37.79 258.77 37.88 259.12 C 37.96 259.48 38.31 259.96 38.75 260.25 C 39.19 260.54 39.21 260.81 40.50 260.88 C 41.79 260.94 44.21 261.04 46.50 260.62 C 48.79 260.21 51.38 259.38 54.25 258.38 C 57.12 257.38 58.98 256.92 63.75 254.62 C 68.52 252.33 76.46 248.25 82.88 244.62 C 89.29 241.00 96.73 236.38 102.25 232.88 C 107.77 229.38 110.73 227.46 116.00 223.62 C 121.27 219.79 128.44 214.35 133.88 209.88 C 139.31 205.40 143.29 201.83 148.62 196.75 C 153.96 191.67 159.83 185.94 165.88 179.38 C 171.92 172.81 177.06 167.10 184.88 157.38 C 192.69 147.65 205.27 131.06 212.75 121.00 C 220.23 110.94 225.71 103.21 229.75 97.00 C 233.79 90.79 235.17 86.85 237.00 83.75 C 238.83 80.65 240.02 79.54 240.75 78.38 C 241.48 77.21 240.54 77.94 241.38 76.75 C 242.21 75.56 244.85 72.65 245.75 71.25 C 246.65 69.85 246.58 69.38 246.75 68.38 C 246.92 67.38 246.92 66.25 246.75 65.25 C 246.58 64.25 246.54 63.79 245.75 62.38 C 244.96 60.96 243.42 58.52 242.00 56.75 C 240.58 54.98 239.69 54.02 237.25 51.75 Z" id="s-0-f-0"/>
<clipPath id="c-s-0"><use href="#s-0-f-0"/></clipPath>
<path d="M 235.62 84.62 C 235.42 84.92 236.17 84.44 235.50 85.62 C 234.83 86.81 232.27 90.60 231.62 91.75 C 230.98 92.90 232.10 91.67 231.62 92.50 C 231.15 93.33 229.23 95.85 228.75 96.75 C 228.27 97.65 227.71 96.96 228.75 97.88 C 229.79 98.79 232.96 100.69 235.00 102.25 C 237.04 103.81 236.12 102.67 241.00 107.25 C 245.88 111.83 258.73 124.19 264.25 129.75 C 269.77 135.31 266.83 132.21 274.12 140.62 C 281.42 149.04 297.75 168.52 308.00 180.25 C 318.25 191.98 327.98 202.81 335.62 211.00 C 343.27 219.19 349.75 225.42 353.88 229.38 C 358.00 233.33 358.08 233.17 360.38 234.75 C 362.67 236.33 365.23 237.73 367.62 238.88 C 370.02 240.02 372.65 240.98 374.75 241.62 C 376.85 242.27 377.31 242.56 380.25 242.75 C 383.19 242.94 387.29 243.10 392.38 242.75 C 397.46 242.40 401.27 242.15 410.75 240.62 C 420.23 239.10 441.67 235.10 449.25 233.62 C 456.83 232.15 454.73 232.25 456.25 231.75 C 457.77 231.25 457.67 231.15 458.38 230.62 C 459.08 230.10 460.08 229.12 460.50 228.62 C 460.92 228.12 460.85 228.12 460.88 227.62 C 460.90 227.12 461.27 226.40 460.62 225.62 C 459.98 224.85 458.40 223.67 457.00 223.00 C 455.60 222.33 457.44 223.54 452.25 221.62 C 447.06 219.71 435.46 215.35 425.88 211.50 C 416.29 207.65 403.79 202.50 394.75 198.50 C 385.71 194.50 378.40 190.96 371.62 187.50 C 364.85 184.04 359.96 181.40 354.12 177.75 C 348.29 174.10 342.54 169.98 336.62 165.62 C 330.71 161.27 326.40 158.00 318.62 151.62 C 310.85 145.25 298.88 135.15 290.00 127.38 C 281.12 119.60 271.48 110.40 265.38 105.00 C 259.27 99.60 258.00 98.50 253.38 95.00 C 248.75 91.50 240.40 85.85 237.62 84.00 C 234.85 82.15 237.08 83.77 236.75 83.88 C 236.42 83.98 235.83 84.33 235.62 84.62 Z" id="s-1-f-0"/>
<clipPath id="c-s-1"><use href="#s-1-f-0"/></clipPath>
<path d="M 298.88 218.88 C 298.88 218.31 298.96 218.00 298.62 217.25 C 298.29 216.50 297.58 215.27 296.88 214.38 C 296.17 213.48 295.27 212.60 294.38 211.88 C 293.48 211.15 293.12 210.81 291.50 210.00 C 289.88 209.19 286.79 207.83 284.62 207.00 C 282.46 206.17 280.35 205.50 278.50 205.00 C 276.65 204.50 275.35 204.15 273.50 204.00 C 271.65 203.85 269.19 203.81 267.38 204.12 C 265.56 204.44 266.31 204.94 262.62 205.88 C 258.94 206.81 253.29 208.23 245.25 209.75 C 237.21 211.27 220.00 213.98 214.38 215.00 C 208.75 216.02 216.48 215.08 211.50 215.88 C 206.52 216.67 192.81 218.73 184.50 219.75 C 176.19 220.77 166.42 221.46 161.62 222.00 C 156.83 222.54 157.19 222.60 155.75 223.00 C 154.31 223.40 153.46 223.81 153.00 224.38 C 152.54 224.94 152.81 225.62 153.00 226.38 C 153.19 227.12 153.23 227.65 154.12 228.88 C 155.02 230.10 157.25 232.65 158.38 233.75 C 159.50 234.85 159.96 235.02 160.88 235.50 C 161.79 235.98 161.06 236.08 163.88 236.62 C 166.69 237.17 172.46 238.40 177.75 238.75 C 183.04 239.10 186.31 239.42 195.62 238.75 C 204.94 238.08 219.85 236.58 233.62 234.75 C 247.40 232.92 269.42 229.25 278.25 227.75 C 287.08 226.25 283.65 226.60 286.62 225.75 C 289.60 224.90 294.12 223.48 296.12 222.62 C 298.12 221.77 298.17 221.25 298.62 220.62 C 299.08 220.00 298.88 219.44 298.88 218.88 Z" id="s-2-f-0"/>
<clipPath id="c-s-2"><use href="#s-2-f-0"/></clipPath>
<path d="M 209.88 158.88 C 208.35 159.00 207.67 159.33 206.88 159.75 C 206.08 160.17 205.60 160.71 205.12 161.38 C 204.65 162.04 204.17 162.52 204.00 163.75 C 203.83 164.98 203.67 167.25 204.12 168.75 C 204.58 170.25 205.81 170.85 206.75 172.75 C 207.69 174.65 209.08 177.90 209.75 180.12 C 210.42 182.35 210.42 180.75 210.75 186.12 C 211.08 191.50 211.62 203.98 211.75 212.38 C 211.88 220.77 211.48 232.31 211.50 236.50 C 211.52 240.69 211.67 230.85 211.88 237.50 C 212.08 244.15 212.54 269.31 212.75 276.38 C 212.96 283.44 212.83 279.27 213.12 279.88 C 213.42 280.48 210.83 280.46 214.50 280.00 C 218.17 279.54 231.58 277.69 235.12 277.12 C 238.67 276.56 235.50 278.35 235.75 276.62 C 236.00 274.90 236.27 273.81 236.62 266.75 C 236.98 259.69 237.56 239.81 237.88 234.25 C 238.19 228.69 238.46 233.62 238.50 233.38 C 238.54 233.12 238.02 233.27 238.12 232.75 C 238.23 232.23 238.96 232.00 239.12 230.25 C 239.29 228.50 238.96 224.29 239.12 222.25 C 239.29 220.21 239.98 220.21 240.12 218.00 C 240.27 215.79 239.85 212.81 240.00 209.00 C 240.15 205.19 240.52 199.44 241.00 195.12 C 241.48 190.81 242.27 185.88 242.88 183.12 C 243.48 180.38 244.31 180.25 244.62 178.62 C 244.94 177.00 244.90 174.69 244.75 173.38 C 244.60 172.06 244.12 171.46 243.75 170.75 C 243.38 170.04 243.21 169.83 242.50 169.12 C 241.79 168.42 240.67 167.35 239.50 166.50 C 238.33 165.65 238.38 165.08 235.50 164.00 C 232.62 162.92 225.50 160.83 222.25 160.00 C 219.00 159.17 218.06 159.19 216.00 159.00 C 213.94 158.81 211.40 158.75 209.88 158.88 Z" id="s-3-f-0"/>
<clipPath id="c-s-3"><use href="#s-3-f-0"/></clipPath>
<path d="M 361.88 283.00 C 361.69 282.19 361.38 281.15 360.50 280.00 C 359.62 278.85 359.29 278.12 356.62 276.12 C 353.96 274.12 349.15 270.19 344.50 268.00 C 339.85 265.81 332.40 263.83 328.75 263.00 C 325.10 262.17 328.15 262.21 322.62 263.00 C 317.10 263.79 309.92 265.46 295.62 267.75 C 281.33 270.04 247.50 275.27 236.88 276.75 C 226.25 278.23 233.10 276.52 231.88 276.62 C 230.65 276.73 232.21 277.02 229.50 277.38 C 226.79 277.73 218.48 278.33 215.62 278.75 C 212.77 279.17 220.94 278.56 212.38 279.88 C 203.81 281.19 182.27 284.27 164.25 286.62 C 146.23 288.98 115.40 292.42 104.25 294.00 C 93.10 295.58 98.77 295.52 97.38 296.12 C 95.98 296.73 96.12 297.23 95.88 297.62 C 95.62 298.02 95.71 297.98 95.88 298.50 C 96.04 299.02 96.17 299.88 96.88 300.75 C 97.58 301.62 97.83 302.42 100.12 303.75 C 102.42 305.08 107.31 307.42 110.62 308.75 C 113.94 310.08 117.42 311.08 120.00 311.75 C 122.58 312.42 124.04 312.56 126.12 312.75 C 128.21 312.94 129.77 313.06 132.50 312.88 C 135.23 312.69 131.31 313.44 142.50 311.62 C 153.69 309.81 184.08 304.44 199.62 302.00 C 215.17 299.56 219.48 298.67 235.75 297.00 C 252.02 295.33 278.17 293.23 297.25 292.00 C 316.33 290.77 340.50 290.19 350.25 289.62 C 360.00 289.06 354.21 289.06 355.75 288.62 C 357.29 288.19 358.52 287.62 359.50 287.00 C 360.48 286.38 361.23 285.54 361.62 284.88 C 362.02 284.21 362.06 283.81 361.88 283.00 Z" id="s-4-f-0"/>
<clipPath id="c-s-4"><use href="#s-4-f-0"/></clipPath>
<path d="M 130.38 343.00 C 128.35 343.19 128.77 343.71 128.25 344.12 C 127.73 344.54 127.42 344.75 127.25 345.50 C 127.08 346.25 126.31 347.35 127.25 348.62 C 128.19 349.90 130.96 351.17 132.88 353.12 C 134.79 355.08 137.12 357.96 138.75 360.38 C 140.38 362.79 141.46 364.92 142.62 367.62 C 143.79 370.33 144.75 372.88 145.75 376.62 C 146.75 380.38 147.75 384.88 148.62 390.12 C 149.50 395.38 149.65 400.29 151.00 408.12 C 152.35 415.96 155.75 431.54 156.75 437.12 C 157.75 442.71 156.77 440.04 157.00 441.62 C 157.23 443.21 157.60 444.98 158.12 446.62 C 158.65 448.27 159.02 449.42 160.12 451.50 C 161.23 453.58 163.40 457.42 164.75 459.12 C 166.10 460.83 167.19 461.31 168.25 461.75 C 169.31 462.19 170.17 462.19 171.12 461.75 C 172.08 461.31 173.23 460.00 174.00 459.12 C 174.77 458.25 175.10 457.96 175.75 456.50 C 176.40 455.04 177.50 454.27 177.88 450.38 C 178.25 446.48 178.19 438.04 178.00 433.12 C 177.81 428.21 177.81 427.92 176.75 420.88 C 175.69 413.83 173.06 398.46 171.62 390.88 C 170.19 383.29 168.77 378.90 168.12 375.38 C 167.48 371.85 167.96 371.44 167.75 369.75 C 167.54 368.06 168.35 368.67 166.88 365.25 C 165.40 361.83 160.46 352.19 158.88 349.25 C 157.29 346.31 159.33 348.50 157.38 347.62 C 155.42 346.75 149.96 344.77 147.12 344.00 C 144.29 343.23 143.17 343.17 140.38 343.00 C 137.58 342.83 132.40 342.81 130.38 343.00 Z" id="s-5-f-0"/>
<clipPath id="c-s-5"><use href="#s-5-f-0"/></clipPath>
<path d="M 337.75 355.38 C 337.88 354.48 338.12 353.29 337.62 352.00 C 337.12 350.71 337.15 349.96 334.75 347.62 C 332.35 345.29 325.85 340.06 323.25 338.00 C 320.65 335.94 321.56 336.58 319.12 335.25 C 316.69 333.92 311.73 331.35 308.62 330.00 C 305.52 328.65 302.94 327.62 300.50 327.12 C 298.06 326.62 301.38 325.54 294.00 327.00 C 286.62 328.46 268.15 333.44 256.25 335.88 C 244.35 338.31 233.81 339.98 222.62 341.62 C 211.44 343.27 199.83 344.71 189.12 345.75 C 178.42 346.79 163.62 347.46 158.38 347.88 C 153.12 348.29 157.75 348.06 157.62 348.25 C 157.50 348.44 157.50 348.77 157.62 349.00 C 157.75 349.23 157.02 346.98 158.38 349.62 C 159.73 352.27 164.31 362.17 165.75 364.88 C 167.19 367.58 164.27 366.06 167.00 365.88 C 169.73 365.69 166.90 366.23 182.12 363.75 C 197.35 361.27 244.02 353.29 258.38 351.00 C 272.73 348.71 265.69 350.17 268.25 350.00 C 270.81 349.83 271.65 349.83 273.75 350.00 C 275.85 350.17 279.21 350.65 280.88 351.00 C 282.54 351.35 282.83 351.60 283.75 352.12 C 284.67 352.65 285.73 353.44 286.38 354.12 C 287.02 354.81 287.42 354.67 287.62 356.25 C 287.83 357.83 287.96 359.77 287.62 363.62 C 287.29 367.48 286.23 375.48 285.62 379.38 C 285.02 383.27 284.65 383.06 284.00 387.00 C 283.35 390.94 282.75 397.56 281.75 403.00 C 280.75 408.44 278.56 416.77 278.00 419.62 C 277.44 422.48 273.60 419.06 278.38 420.12 C 283.15 421.19 301.65 425.08 306.62 426.00 C 311.60 426.92 307.75 426.10 308.25 425.62 C 308.75 425.15 308.17 427.75 309.62 423.12 C 311.08 418.50 314.06 406.77 317.00 397.88 C 319.94 388.98 325.10 375.17 327.25 369.75 C 329.40 364.33 328.27 367.44 329.88 365.38 C 331.48 363.31 335.56 359.04 336.88 357.38 C 338.19 355.71 337.62 356.27 337.75 355.38 Z" id="s-6-f-0"/>
<clipPath id="c-s-6"><use href="#s-6-f-0"/></clipPath>
<path d="M 316.88 435.12 C 316.88 434.52 316.96 434.60 316.62 434.00 C 316.29 433.40 315.79 432.50 314.88 431.50 C 313.96 430.50 312.48 429.08 311.12 428.00 C 309.77 426.92 311.54 426.27 306.75 425.00 C 301.96 423.73 286.75 421.27 282.38 420.38 C 278.00 419.48 281.21 419.75 280.50 419.62 C 279.79 419.50 287.94 418.27 278.12 419.62 C 268.31 420.98 238.33 425.71 221.62 427.75 C 204.92 429.79 185.23 431.10 177.88 431.88 C 170.52 432.65 177.56 429.46 177.50 432.38 C 177.44 435.29 177.46 446.48 177.50 449.38 C 177.54 452.27 174.81 449.71 177.75 449.75 C 180.69 449.79 178.23 451.08 195.12 449.62 C 212.02 448.17 259.27 442.65 279.12 441.00 C 298.98 439.35 308.00 440.31 314.25 439.75 C 320.50 439.19 316.19 438.40 316.62 437.62 C 317.06 436.85 316.88 435.73 316.88 435.12 Z" id="s-7-f-0"/>
<clipPath id="c-s-7"><use href="#s-7-f-0"/></clipPath>
</defs>
<g id="s-0" clip-path="url(#c-s-0)">
<use href="#s-0-f-0"/>
<path d="M 227.38 43.12 C 224.75 41.17 223.35 40.83 221.50 40.00 C 219.65 39.17 218.00 38.46 216.25 38.12 C 214.50 37.79 212.38 37.67 211.00 38.00 C 209.62 38.33 208.65 39.56 208.00 40.12 C 207.35 40.69 207.46 40.50 207.12 41.38 C 206.79 42.25 206.25 42.81 206.00 45.38 C 205.75 47.94 205.83 53.48 205.62 56.75 C 205.42 60.02 205.12 62.46 204.75 65.00 C 204.38 67.54 204.06 69.33 203.38 72.00 C 202.69 74.67 201.56 78.44 200.62 81.00 C 199.69 83.56 199.23 84.54 197.75 87.38 C 196.27 90.21 195.12 92.50 191.75 98.00 C 188.38 103.50 182.98 112.50 177.50 120.38 C 172.02 128.25 164.85 137.73 158.88 145.25 C 152.90 152.77 147.56 158.88 141.62 165.50 C 135.69 172.12 129.12 178.92 123.25 185.00 C 117.38 191.08 112.50 196.08 106.38 202.00 C 100.25 207.92 91.48 216.04 86.50 220.50 C 81.52 224.96 78.23 227.23 76.50 228.75 C 74.77 230.27 71.10 229.44 76.12 229.62 C 81.15 229.81 100.50 230.50 106.62 229.88 C 112.75 229.25 109.75 228.06 112.88 225.88 C 116.00 223.69 121.88 219.42 125.38 216.75 C 128.88 214.08 130.00 213.21 133.88 209.88 C 137.75 206.54 143.29 201.83 148.62 196.75 C 153.96 191.67 159.83 185.94 165.88 179.38 C 171.92 172.81 178.21 165.56 184.88 157.38 C 191.54 149.19 199.90 138.15 205.88 130.25 C 211.85 122.35 216.77 115.54 220.75 110.00 C 224.73 104.46 227.04 101.38 229.75 97.00 C 232.46 92.62 235.17 86.85 237.00 83.75 C 238.83 80.65 240.02 79.54 240.75 78.38 C 241.48 77.21 240.54 77.94 241.38 76.75 C 242.21 75.56 244.88 72.52 245.75 71.25 C 246.62 69.98 246.48 70.25 246.62 69.12 C 246.77 68.00 247.25 66.38 246.62 64.50 C 246.00 62.62 244.44 60.00 242.88 57.88 C 241.31 55.75 239.83 54.21 237.25 51.75 C 234.67 49.29 230.00 45.08 227.38 43.12 Z" id="s-0-f-1"/>
<path d="M 227.38 43.12 C 224.75 41.17 223.35 40.83 221.50 40.00 C 219.65 39.17 218.00 38.46 216.25 38.12 C 214.50 37.79 212.38 37.67 211.00 38.00 C 209.62 38.33 208.81 39.04 208.00 40.12 C 207.19 41.21 206.54 41.48 206.12 44.50 C 205.71 47.52 205.96 53.67 205.50 58.25 C 205.04 62.83 204.19 68.21 203.38 72.00 C 202.56 75.79 201.90 77.81 200.62 81.00 C 199.35 84.19 198.73 85.88 195.75 91.12 C 192.77 96.38 187.44 105.35 182.75 112.50 C 178.06 119.65 173.02 126.83 167.62 134.00 C 162.23 141.17 154.71 150.25 150.38 155.50 C 146.04 160.75 145.54 161.25 141.62 165.50 C 137.71 169.75 129.35 178.29 126.88 181.00 C 124.40 183.71 120.69 181.62 126.75 181.75 C 132.81 181.88 155.71 183.27 163.25 181.75 C 170.79 180.23 168.40 176.69 172.00 172.62 C 175.60 168.56 179.23 164.44 184.88 157.38 C 190.52 150.31 200.04 137.94 205.88 130.25 C 211.71 122.56 215.90 116.79 219.88 111.25 C 223.85 105.71 226.90 101.58 229.75 97.00 C 232.60 92.42 235.17 86.85 237.00 83.75 C 238.83 80.65 240.02 79.54 240.75 78.38 C 241.48 77.21 240.54 77.94 241.38 76.75 C 242.21 75.56 244.85 72.65 245.75 71.25 C 246.65 69.85 246.60 69.50 246.75 68.38 C 246.90 67.25 247.27 66.25 246.62 64.50 C 245.98 62.75 244.44 60.00 242.88 57.88 C 241.31 55.75 239.83 54.21 237.25 51.75 C 234.67 49.29 230.00 45.08 227.38 43.12 Z" id="s-0-f-2"/>
<path d="M 225.88 42.12 C 223.44 40.54 220.90 39.69 219.12 39.00 C 217.35 38.31 216.67 38.15 215.25 38.00 C 213.83 37.85 211.62 37.98 210.62 38.12 C 209.62 38.27 209.83 38.33 209.25 38.88 C 208.67 39.42 207.67 40.29 207.12 41.38 C 206.58 42.46 206.25 42.81 206.00 45.38 C 205.75 47.94 205.83 53.48 205.62 56.75 C 205.42 60.02 205.12 62.46 204.75 65.00 C 204.38 67.54 204.21 68.98 203.38 72.00 C 202.54 75.02 201.02 79.94 199.75 83.12 C 198.48 86.31 197.58 87.81 195.75 91.12 C 193.92 94.44 191.79 98.12 188.75 103.00 C 185.71 107.88 180.85 115.48 177.50 120.38 C 174.15 125.27 170.19 130.15 168.62 132.38 C 167.06 134.60 162.83 133.48 168.12 133.75 C 173.42 134.02 194.54 134.02 200.38 134.00 C 206.21 133.98 199.88 137.42 203.12 133.62 C 206.38 129.83 215.44 117.35 219.88 111.25 C 224.31 105.15 226.90 101.58 229.75 97.00 C 232.60 92.42 235.17 86.85 237.00 83.75 C 238.83 80.65 240.02 79.54 240.75 78.38 C 241.48 77.21 240.54 77.94 241.38 76.75 C 242.21 75.56 244.88 72.52 245.75 71.25 C 246.62 69.98 246.46 70.12 246.62 69.12 C 246.79 68.12 247.06 66.67 246.75 65.25 C 246.44 63.83 245.71 62.23 244.75 60.62 C 243.79 59.02 242.83 57.65 241.00 55.62 C 239.17 53.60 236.27 50.75 233.75 48.50 C 231.23 46.25 228.31 43.71 225.88 42.12 Z" id="s-0-f-3"/>
<path d="M 209.62 38.62 C 208.98 39.19 207.71 40.40 207.12 41.38 C 206.54 42.35 206.38 41.94 206.12 44.50 C 205.88 47.06 205.85 53.33 205.62 56.75 C 205.40 60.17 205.40 61.50 204.75 65.00 C 204.10 68.50 202.75 74.44 201.75 77.75 C 200.75 81.06 199.23 83.58 198.75 84.88 C 198.27 86.17 198.46 85.31 198.88 85.50 C 199.29 85.69 195.08 85.96 201.25 86.00 C 207.42 86.04 229.29 87.02 235.88 85.75 C 242.46 84.48 239.83 79.88 240.75 78.38 C 241.67 76.88 240.69 77.73 241.38 76.75 C 242.06 75.77 244.04 73.67 244.88 72.50 C 245.71 71.33 246.06 70.96 246.38 69.75 C 246.69 68.54 246.88 66.52 246.75 65.25 C 246.62 63.98 246.27 63.35 245.62 62.12 C 244.98 60.90 244.00 59.33 242.88 57.88 C 241.75 56.42 240.40 54.94 238.88 53.38 C 237.35 51.81 235.92 50.38 233.75 48.50 C 231.58 46.62 228.79 43.85 225.88 42.12 C 222.96 40.40 218.73 38.81 216.25 38.12 C 213.77 37.44 212.10 37.92 211.00 38.00 C 209.90 38.08 210.27 38.06 209.62 38.62 Z" id="s-0-f-4"/>
</g>
<g id="s-1" clip-path="url(#c-s-1)">
<use href="#s-1-f-0"/>
<path d="M 235.62 84.62 C 235.42 84.92 236.17 84.44 235.50 85.62 C 234.83 86.81 232.27 90.60 231.62 91.75 C 230.98 92.90 232.10 91.67 231.62 92.50 C 231.15 93.33 229.23 95.85 228.75 96.75 C 228.27 97.65 227.71 96.96 228.75 97.88 C 229.79 98.79 232.96 100.69 235.00 102.25 C 237.04 103.81 236.12 102.67 241.00 107.25 C 245.88 111.83 258.73 124.19 264.25 129.75 C 269.77 135.31 266.83 132.21 274.12 140.62 C 281.42 149.04 297.75 168.52 308.00 180.25 C 318.25 191.98 327.50 202.40 335.62 211.00 C 343.75 219.60 352.62 227.92 356.75 231.88 C 360.88 235.83 358.56 233.58 360.38 234.75 C 362.19 235.92 365.23 237.73 367.62 238.88 C 370.02 240.02 372.65 240.98 374.75 241.62 C 376.85 242.27 376.83 242.60 380.25 242.75 C 383.67 242.90 390.17 242.85 395.25 242.50 C 400.33 242.15 406.52 241.27 410.75 240.62 C 414.98 239.98 418.94 243.77 420.62 238.62 C 422.31 233.48 420.94 214.69 420.88 209.75 C 420.81 204.81 423.00 210.19 420.25 209.00 C 417.50 207.81 410.79 205.38 404.38 202.62 C 397.96 199.88 388.71 195.81 381.75 192.50 C 374.79 189.19 368.06 185.75 362.62 182.75 C 357.19 179.75 354.81 178.38 349.12 174.50 C 343.44 170.62 335.40 164.81 328.50 159.50 C 321.60 154.19 314.17 147.98 307.75 142.62 C 301.33 137.27 297.06 133.65 290.00 127.38 C 282.94 121.10 271.48 110.40 265.38 105.00 C 259.27 99.60 258.00 98.50 253.38 95.00 C 248.75 91.50 240.40 85.85 237.62 84.00 C 234.85 82.15 237.08 83.77 236.75 83.88 C 236.42 83.98 235.83 84.33 235.62 84.62 Z" id="s-1-f-1"/>
<path d="M 235.88 84.38 C 235.33 84.98 235.08 86.40 234.38 87.62 C 233.67 88.85 232.08 90.94 231.62 91.75 C 231.17 92.56 232.10 91.67 231.62 92.50 C 231.15 93.33 229.23 95.85 228.75 96.75 C 228.27 97.65 227.71 96.96 228.75 97.88 C 229.79 98.79 232.96 100.69 235.00 102.25 C 237.04 103.81 236.12 102.67 241.00 107.25 C 245.88 111.83 258.73 124.19 264.25 129.75 C 269.77 135.31 266.83 132.21 274.12 140.62 C 281.42 149.04 297.75 168.52 308.00 180.25 C 318.25 191.98 327.98 202.81 335.62 211.00 C 343.27 219.19 349.75 225.42 353.88 229.38 C 358.00 233.33 358.08 233.17 360.38 234.75 C 362.67 236.33 365.60 237.90 367.62 238.88 C 369.65 239.85 371.62 240.42 372.50 240.62 C 373.38 240.83 372.79 242.81 372.88 240.12 C 372.96 237.44 373.00 233.15 373.00 224.50 C 373.00 215.85 376.02 196.04 372.88 188.25 C 369.73 180.46 358.81 180.54 354.12 177.75 C 349.44 174.96 349.02 174.54 344.75 171.50 C 340.48 168.46 334.67 164.31 328.50 159.50 C 322.33 154.69 314.17 147.98 307.75 142.62 C 301.33 137.27 298.31 134.71 290.00 127.38 C 281.69 120.04 264.67 104.54 257.88 98.62 C 251.08 92.71 252.62 94.31 249.25 91.88 C 245.88 89.44 239.85 85.25 237.62 84.00 C 235.40 82.75 236.42 83.77 235.88 84.38 Z" id="s-1-f-2"/>
<path d="M 235.88 84.38 C 235.33 84.98 235.08 86.40 234.38 87.62 C 233.67 88.85 232.08 90.94 231.62 91.75 C 231.17 92.56 232.10 91.67 231.62 92.50 C 231.15 93.33 229.23 95.85 228.75 96.75 C 228.27 97.65 227.71 96.96 228.75 97.88 C 229.79 98.79 232.96 100.69 235.00 102.25 C 237.04 103.81 236.12 102.67 241.00 107.25 C 245.88 111.83 258.73 124.19 264.25 129.75 C 269.77 135.31 266.83 132.21 274.12 140.62 C 281.42 149.04 299.77 170.77 308.00 180.25 C 316.23 189.73 320.71 194.50 323.50 197.50 C 326.29 200.50 324.54 205.10 324.75 198.25 C 324.96 191.40 327.58 165.65 324.75 156.38 C 321.92 147.10 313.54 147.46 307.75 142.62 C 301.96 137.79 298.31 134.71 290.00 127.38 C 281.69 120.04 264.67 104.54 257.88 98.62 C 251.08 92.71 252.62 94.31 249.25 91.88 C 245.88 89.44 239.85 85.25 237.62 84.00 C 235.40 82.75 236.42 83.77 235.88 84.38 Z" id="s-1-f-3"/>
<path d="M 236.38 84.00 C 236.04 84.10 235.77 84.35 235.62 84.62 C 235.48 84.90 236.17 84.44 235.50 85.62 C 234.83 86.81 232.27 90.60 231.62 91.75 C 230.98 92.90 232.10 91.67 231.62 92.50 C 231.15 93.33 229.23 95.85 228.75 96.75 C 228.27 97.65 227.21 96.56 228.75 97.88 C 230.29 99.19 234.38 101.58 238.00 104.62 C 241.62 107.67 246.12 111.94 250.50 116.12 C 254.88 120.31 260.04 125.29 264.25 129.75 C 268.46 134.21 273.67 140.62 275.75 142.88 C 277.83 145.12 276.56 147.83 276.75 143.25 C 276.94 138.67 280.77 123.42 276.88 115.38 C 272.98 107.33 259.92 100.23 253.38 95.00 C 246.83 89.77 240.46 85.83 237.62 84.00 C 234.79 82.17 236.71 83.90 236.38 84.00 Z" id="s-1-f-4"/>
</g>
<g id="s-2" clip-path="url(#c-s-2)">
<use href="#s-2-f-0"/>
<path d="M 297.00 215.25 C 296.92 214.00 296.94 214.44 296.50 213.88 C 296.06 213.31 295.90 212.83 294.38 211.88 C 292.85 210.92 290.02 209.27 287.38 208.12 C 284.73 206.98 280.81 205.69 278.50 205.00 C 276.19 204.31 275.38 204.15 273.50 204.00 C 271.62 203.85 269.06 203.81 267.25 204.12 C 265.44 204.44 266.29 204.94 262.62 205.88 C 258.96 206.81 253.29 208.23 245.25 209.75 C 237.21 211.27 220.00 213.98 214.38 215.00 C 208.75 216.02 216.48 215.08 211.50 215.88 C 206.52 216.67 192.81 218.73 184.50 219.75 C 176.19 220.77 166.42 221.46 161.62 222.00 C 156.83 222.54 157.19 222.60 155.75 223.00 C 154.31 223.40 153.46 223.81 153.00 224.38 C 152.54 224.94 152.81 225.62 153.00 226.38 C 153.19 227.12 153.23 227.65 154.12 228.88 C 155.02 230.10 157.25 232.65 158.38 233.75 C 159.50 234.85 159.96 235.02 160.88 235.50 C 161.79 235.98 161.06 236.08 163.88 236.62 C 166.69 237.17 172.15 238.42 177.75 238.75 C 183.35 239.08 188.19 239.29 197.50 238.62 C 206.81 237.96 224.90 235.85 233.62 234.75 C 242.35 233.65 244.23 232.83 249.88 232.00 C 255.52 231.17 261.94 230.65 267.50 229.75 C 273.06 228.85 278.44 227.85 283.25 226.62 C 288.06 225.40 294.08 223.25 296.38 222.38 C 298.67 221.50 296.90 222.56 297.00 221.38 C 297.10 220.19 297.08 216.50 297.00 215.25 Z" id="s-2-f-1"/>
<path d="M 248.88 209.25 C 248.65 205.69 249.04 208.75 247.62 209.00 C 246.21 209.25 242.04 210.44 240.38 210.75 C 238.71 211.06 243.35 209.88 237.62 210.88 C 231.90 211.88 216.25 215.10 206.00 216.75 C 195.75 218.40 183.85 219.83 176.12 220.75 C 168.40 221.67 163.02 221.88 159.62 222.25 C 156.23 222.62 156.79 222.71 155.75 223.00 C 154.71 223.29 153.83 223.44 153.38 224.00 C 152.92 224.56 152.88 225.56 153.00 226.38 C 153.12 227.19 153.62 228.04 154.12 228.88 C 154.62 229.71 154.88 230.27 156.00 231.38 C 157.12 232.48 158.79 234.46 160.88 235.50 C 162.96 236.54 165.69 237.08 168.50 237.62 C 171.31 238.17 172.94 238.58 177.75 238.75 C 182.56 238.92 188.23 239.27 197.38 238.62 C 206.52 237.98 224.29 235.88 232.62 234.88 C 240.96 233.88 244.71 233.08 247.38 232.62 C 250.04 232.17 248.35 232.50 248.62 232.12 C 248.90 231.75 248.96 234.19 249.00 230.38 C 249.04 226.56 249.10 212.81 248.88 209.25 Z" id="s-2-f-2"/>
<path d="M 200.75 237.75 C 200.88 234.58 201.00 222.54 201.00 219.25 C 201.00 215.96 200.92 218.29 200.75 218.00 C 200.58 217.71 204.10 217.04 200.00 217.50 C 195.90 217.96 182.83 219.96 176.12 220.75 C 169.42 221.54 163.17 221.85 159.75 222.25 C 156.33 222.65 156.75 222.77 155.62 223.12 C 154.50 223.48 153.40 223.69 153.00 224.38 C 152.60 225.06 152.75 226.08 153.25 227.25 C 153.75 228.42 154.88 230.08 156.00 231.38 C 157.12 232.67 158.69 234.12 160.00 235.00 C 161.31 235.88 160.92 236.00 163.88 236.62 C 166.83 237.25 172.46 238.40 177.75 238.75 C 183.04 239.10 191.88 238.83 195.62 238.75 C 199.38 238.67 199.40 238.42 200.25 238.25 C 201.10 238.08 200.62 240.92 200.75 237.75 Z" id="s-2-f-3"/>
</g>
<g id="s-3" clip-path="url(#c-s-3)">
<use href="#s-3-f-0"/>
<path d="M 208.50 159.00 C 206.96 159.17 207.10 159.54 206.50 160.00 C 205.90 160.46 205.29 161.12 204.88 161.75 C 204.46 162.38 204.12 162.58 204.00 163.75 C 203.88 164.92 203.67 167.25 204.12 168.75 C 204.58 170.25 205.81 170.85 206.75 172.75 C 207.69 174.65 209.08 177.90 209.75 180.12 C 210.42 182.35 210.42 180.75 210.75 186.12 C 211.08 191.50 211.62 204.00 211.75 212.38 C 211.88 220.75 211.48 232.10 211.50 236.38 C 211.52 240.65 211.77 235.00 211.88 238.00 C 211.98 241.00 211.73 251.54 212.12 254.38 C 212.52 257.21 210.25 254.90 214.25 255.00 C 218.25 255.10 232.38 255.04 236.12 255.00 C 239.88 254.96 236.46 258.21 236.75 254.75 C 237.04 251.29 237.58 237.81 237.88 234.25 C 238.17 230.69 238.46 233.62 238.50 233.38 C 238.54 233.12 238.02 233.27 238.12 232.75 C 238.23 232.23 238.96 232.00 239.12 230.25 C 239.29 228.50 238.96 224.29 239.12 222.25 C 239.29 220.21 239.98 220.21 240.12 218.00 C 240.27 215.79 239.83 213.02 240.00 209.00 C 240.17 204.98 240.65 198.19 241.12 193.88 C 241.60 189.56 242.29 185.67 242.88 183.12 C 243.46 180.58 244.33 180.35 244.62 178.62 C 244.92 176.90 244.98 174.33 244.62 172.75 C 244.27 171.17 243.27 170.10 242.50 169.12 C 241.73 168.15 241.48 167.85 240.00 166.88 C 238.52 165.90 236.58 164.40 233.62 163.25 C 230.67 162.10 225.23 160.71 222.25 160.00 C 219.27 159.29 218.04 159.17 215.75 159.00 C 213.46 158.83 210.04 158.83 208.50 159.00 Z" id="s-3-f-1"/>
<path d="M 206.50 160.00 C 205.94 160.40 205.52 160.81 205.12 161.38 C 204.73 161.94 204.33 162.35 204.12 163.38 C 203.92 164.40 203.88 166.60 203.88 167.50 C 203.88 168.40 203.48 167.52 204.12 168.75 C 204.77 169.98 206.79 172.88 207.75 174.88 C 208.71 176.88 209.38 178.88 209.88 180.75 C 210.38 182.62 210.48 181.83 210.75 186.12 C 211.02 190.42 211.00 203.02 211.50 206.50 C 212.00 209.98 209.00 206.96 213.75 207.00 C 218.50 207.04 235.54 207.04 240.00 206.75 C 244.46 206.46 240.33 207.19 240.50 205.25 C 240.67 203.31 240.58 198.92 241.00 195.12 C 241.42 191.33 242.38 185.40 243.00 182.50 C 243.62 179.60 244.46 179.27 244.75 177.75 C 245.04 176.23 244.92 174.54 244.75 173.38 C 244.58 172.21 244.54 171.83 243.75 170.75 C 242.96 169.67 241.38 168.00 240.00 166.88 C 238.62 165.75 237.71 164.96 235.50 164.00 C 233.29 163.04 230.02 161.96 226.75 161.12 C 223.48 160.29 218.92 159.35 215.88 159.00 C 212.83 158.65 210.06 158.83 208.50 159.00 C 206.94 159.17 207.06 159.60 206.50 160.00 Z" id="s-3-f-2"/>
</g>
<g id="s-4" clip-path="url(#c-s-4)">
<use href="#s-4-f-0"/>
<path d="M 335.88 265.62 C 335.77 261.75 336.56 265.44 335.38 265.00 C 334.19 264.56 331.04 263.31 328.75 263.00 C 326.46 262.69 327.15 262.33 321.62 263.12 C 316.10 263.92 309.75 265.48 295.62 267.75 C 281.50 270.02 247.50 275.27 236.88 276.75 C 226.25 278.23 233.10 276.52 231.88 276.62 C 230.65 276.73 232.21 277.02 229.50 277.38 C 226.79 277.73 218.48 278.33 215.62 278.75 C 212.77 279.17 220.94 278.56 212.38 279.88 C 203.81 281.19 182.27 284.27 164.25 286.62 C 146.23 288.98 115.40 292.42 104.25 294.00 C 93.10 295.58 98.77 295.52 97.38 296.12 C 95.98 296.73 96.12 297.23 95.88 297.62 C 95.62 298.02 95.71 297.98 95.88 298.50 C 96.04 299.02 96.17 299.88 96.88 300.75 C 97.58 301.62 97.83 302.42 100.12 303.75 C 102.42 305.08 107.31 307.42 110.62 308.75 C 113.94 310.08 117.42 311.08 120.00 311.75 C 122.58 312.42 124.04 312.56 126.12 312.75 C 128.21 312.94 129.77 313.06 132.50 312.88 C 135.23 312.69 131.31 313.44 142.50 311.62 C 153.69 309.81 184.08 304.44 199.62 302.00 C 215.17 299.56 219.48 298.67 235.75 297.00 C 252.02 295.33 280.67 293.10 297.25 292.00 C 313.83 290.90 328.79 291.00 335.25 290.38 C 341.71 289.75 335.90 292.38 336.00 288.25 C 336.10 284.12 335.98 269.50 335.88 265.62 Z" id="s-4-f-1"/>
<path d="M 288.00 269.38 C 287.54 265.77 293.77 267.90 285.25 269.12 C 276.73 270.35 245.77 275.50 236.88 276.75 C 227.98 278.00 233.10 276.52 231.88 276.62 C 230.65 276.73 232.21 277.02 229.50 277.38 C 226.79 277.73 218.48 278.33 215.62 278.75 C 212.77 279.17 220.94 278.56 212.38 279.88 C 203.81 281.19 182.27 284.27 164.25 286.62 C 146.23 288.98 115.40 292.42 104.25 294.00 C 93.10 295.58 98.77 295.52 97.38 296.12 C 95.98 296.73 96.10 297.08 95.88 297.62 C 95.65 298.17 95.73 298.73 96.00 299.38 C 96.27 300.02 96.81 300.77 97.50 301.50 C 98.19 302.23 98.75 302.88 100.12 303.75 C 101.50 304.62 103.62 305.77 105.75 306.75 C 107.88 307.73 110.50 308.79 112.88 309.62 C 115.25 310.46 118.00 311.25 120.00 311.75 C 122.00 312.25 122.79 312.44 124.88 312.62 C 126.96 312.81 129.56 313.04 132.50 312.88 C 135.44 312.71 131.31 313.44 142.50 311.62 C 153.69 309.81 185.38 304.27 199.62 302.00 C 213.88 299.73 218.10 299.19 228.00 298.00 C 237.90 296.81 249.08 295.75 259.00 294.88 C 268.92 294.00 282.67 293.44 287.50 292.75 C 292.33 292.06 287.92 294.65 288.00 290.75 C 288.08 286.85 288.46 272.98 288.00 269.38 Z" id="s-4-f-2"/>
<path d="M 239.88 276.62 C 239.77 273.46 239.75 276.10 239.25 276.12 C 238.75 276.15 238.10 276.67 236.88 276.75 C 235.65 276.83 233.10 276.52 231.88 276.62 C 230.65 276.73 232.21 277.02 229.50 277.38 C 226.79 277.73 218.48 278.33 215.62 278.75 C 212.77 279.17 220.94 278.56 212.38 279.88 C 203.81 281.19 182.27 284.27 164.25 286.62 C 146.23 288.98 115.40 292.42 104.25 294.00 C 93.10 295.58 98.77 295.52 97.38 296.12 C 95.98 296.73 96.10 297.08 95.88 297.62 C 95.65 298.17 95.73 298.73 96.00 299.38 C 96.27 300.02 96.81 300.77 97.50 301.50 C 98.19 302.23 98.75 302.88 100.12 303.75 C 101.50 304.62 103.62 305.77 105.75 306.75 C 107.88 307.73 110.50 308.79 112.88 309.62 C 115.25 310.46 118.00 311.25 120.00 311.75 C 122.00 312.25 122.79 312.44 124.88 312.62 C 126.96 312.81 129.56 313.04 132.50 312.88 C 135.44 312.71 131.31 313.44 142.50 311.62 C 153.69 309.81 183.71 304.46 199.62 302.00 C 215.54 299.54 231.33 297.81 238.00 296.88 C 244.67 295.94 239.31 296.67 239.62 296.38 C 239.94 296.08 239.83 298.42 239.88 295.12 C 239.92 291.83 239.98 279.79 239.88 276.62 Z" id="s-4-f-3"/>
<path d="M 191.38 284.12 C 191.19 283.15 191.21 283.19 190.75 283.00 C 190.29 282.81 193.04 282.40 188.62 283.00 C 184.21 283.60 178.31 284.79 164.25 286.62 C 150.19 288.46 115.40 292.42 104.25 294.00 C 93.10 295.58 98.77 295.52 97.38 296.12 C 95.98 296.73 96.10 297.08 95.88 297.62 C 95.65 298.17 95.60 298.60 96.00 299.38 C 96.40 300.15 96.98 301.19 98.25 302.25 C 99.52 303.31 101.19 304.52 103.62 305.75 C 106.06 306.98 110.15 308.62 112.88 309.62 C 115.60 310.62 117.79 311.23 120.00 311.75 C 122.21 312.27 124.04 312.56 126.12 312.75 C 128.21 312.94 128.85 313.21 132.50 312.88 C 136.15 312.54 141.19 311.88 148.00 310.75 C 154.81 309.62 166.15 307.33 173.38 306.12 C 180.60 304.92 188.27 304.27 191.38 303.50 C 194.48 302.73 191.92 303.94 192.00 301.50 C 192.08 299.06 191.98 291.77 191.88 288.88 C 191.77 285.98 191.56 285.10 191.38 284.12 Z" id="s-4-f-4"/>
<path d="M 143.88 310.88 C 144.10 307.42 144.06 294.52 144.00 290.88 C 143.94 287.23 150.12 288.48 143.50 289.00 C 136.88 289.52 111.94 292.81 104.25 294.00 C 96.56 295.19 98.77 295.52 97.38 296.12 C 95.98 296.73 96.10 297.08 95.88 297.62 C 95.65 298.17 95.85 298.88 96.00 299.38 C 96.15 299.88 96.06 299.90 96.75 300.62 C 97.44 301.35 98.23 302.56 100.12 303.75 C 102.02 304.94 104.81 306.42 108.12 307.75 C 111.44 309.08 117.02 310.92 120.00 311.75 C 122.98 312.58 123.92 312.56 126.00 312.75 C 128.08 312.94 129.73 313.06 132.50 312.88 C 135.27 312.69 140.73 311.96 142.62 311.62 C 144.52 311.29 143.65 314.33 143.88 310.88 Z" id="s-4-f-5"/>
</g>
<g id="s-5" clip-path="url(#c-s-5)">
<use href="#s-5-f-0"/>
<path d="M 128.62 343.88 C 128.06 344.40 127.23 345.33 127.00 346.12 C 126.77 346.92 126.27 347.46 127.25 348.62 C 128.23 349.79 130.96 351.17 132.88 353.12 C 134.79 355.08 137.12 357.96 138.75 360.38 C 140.38 362.79 141.46 364.92 142.62 367.62 C 143.79 370.33 144.75 372.88 145.75 376.62 C 146.75 380.38 147.75 384.88 148.62 390.12 C 149.50 395.38 149.60 400.04 151.00 408.12 C 152.40 416.21 154.94 433.48 157.00 438.62 C 159.06 443.77 159.90 438.98 163.38 439.00 C 166.85 439.02 175.48 440.40 177.88 438.75 C 180.27 437.10 178.10 433.23 177.75 429.12 C 177.40 425.02 176.75 420.40 175.75 414.12 C 174.75 407.85 173.02 397.96 171.75 391.50 C 170.48 385.04 168.79 379.00 168.12 375.38 C 167.46 371.75 167.96 371.44 167.75 369.75 C 167.54 368.06 168.42 368.77 166.88 365.25 C 165.33 361.73 160.23 351.65 158.50 348.62 C 156.77 345.60 158.40 347.90 156.50 347.12 C 154.60 346.35 150.25 344.71 147.12 344.00 C 144.00 343.29 140.54 343.04 137.75 342.88 C 134.96 342.71 131.90 342.83 130.38 343.00 C 128.85 343.17 129.19 343.35 128.62 343.88 Z" id="s-5-f-1"/>
<path d="M 128.25 344.12 C 127.69 344.65 127.17 345.38 127.00 346.12 C 126.83 346.88 126.54 347.73 127.25 348.62 C 127.96 349.52 129.92 350.31 131.25 351.50 C 132.58 352.69 134.00 354.27 135.25 355.75 C 136.50 357.23 137.67 358.73 138.75 360.38 C 139.83 362.02 140.58 362.92 141.75 365.62 C 142.92 368.33 144.60 372.50 145.75 376.62 C 146.90 380.75 147.90 388.02 148.62 390.38 C 149.35 392.73 147.52 390.65 150.12 390.75 C 152.73 390.85 160.73 391.02 164.25 391.00 C 167.77 390.98 170.38 392.38 171.25 390.62 C 172.12 388.88 170.02 383.04 169.50 380.50 C 168.98 377.96 168.42 377.17 168.12 375.38 C 167.83 373.58 167.96 371.44 167.75 369.75 C 167.54 368.06 168.42 368.77 166.88 365.25 C 165.33 361.73 160.23 351.65 158.50 348.62 C 156.77 345.60 157.79 347.73 156.50 347.12 C 155.21 346.52 153.23 345.67 150.75 345.00 C 148.27 344.33 145.02 343.46 141.62 343.12 C 138.23 342.79 132.60 342.83 130.38 343.00 C 128.15 343.17 128.81 343.60 128.25 344.12 Z" id="s-5-f-2"/>
</g>
<g id="s-6" clip-path="url(#c-s-6)">
<use href="#s-6-f-0"/>
<path d="M 337.88 354.75 C 338.02 353.90 338.27 353.44 337.75 352.25 C 337.23 351.06 337.17 350.00 334.75 347.62 C 332.33 345.25 325.85 340.06 323.25 338.00 C 320.65 335.94 321.56 336.58 319.12 335.25 C 316.69 333.92 311.73 331.35 308.62 330.00 C 305.52 328.65 302.27 327.65 300.50 327.12 C 298.73 326.60 299.21 326.88 298.00 326.88 C 296.79 326.88 300.21 325.62 293.25 327.12 C 286.29 328.62 267.08 333.60 256.25 335.88 C 245.42 338.15 239.04 339.15 228.25 340.75 C 217.46 342.35 203.15 344.31 191.50 345.50 C 179.85 346.69 164.02 347.42 158.38 347.88 C 152.73 348.33 157.75 348.06 157.62 348.25 C 157.50 348.44 157.50 348.77 157.62 349.00 C 157.75 349.23 157.02 346.98 158.38 349.62 C 159.73 352.27 164.29 362.17 165.75 364.88 C 167.21 367.58 164.40 366.06 167.12 365.88 C 169.85 365.69 166.92 366.23 182.12 363.75 C 197.33 361.27 244.02 353.29 258.38 351.00 C 272.73 348.71 265.35 350.15 268.25 350.00 C 271.15 349.85 273.65 349.96 275.75 350.12 C 277.85 350.29 279.52 350.67 280.88 351.00 C 282.23 351.33 283.08 351.73 283.88 352.12 C 284.67 352.52 284.98 352.60 285.62 353.38 C 286.27 354.15 287.42 355.04 287.75 356.75 C 288.08 358.46 288.08 359.25 287.62 363.62 C 287.17 368.00 285.08 379.69 285.00 383.00 C 284.92 386.31 285.29 383.35 287.12 383.50 C 288.96 383.65 290.25 383.81 296.00 383.88 C 301.75 383.94 317.17 384.19 321.62 383.88 C 326.08 383.56 321.81 384.35 322.75 382.00 C 323.69 379.65 326.06 372.52 327.25 369.75 C 328.44 366.98 328.27 367.44 329.88 365.38 C 331.48 363.31 335.54 359.15 336.88 357.38 C 338.21 355.60 337.73 355.60 337.88 354.75 Z" id="s-6-f-1"/>
<path d="M 319.12 335.38 C 318.12 334.65 315.56 333.21 313.00 332.00 C 310.44 330.79 305.96 328.96 303.75 328.12 C 301.54 327.29 301.38 327.19 299.75 327.00 C 298.12 326.81 301.25 325.52 294.00 327.00 C 286.75 328.48 266.15 333.75 256.25 335.88 C 246.35 338.00 245.42 338.15 234.62 339.75 C 223.83 341.35 204.21 344.15 191.50 345.50 C 178.79 346.85 164.02 347.42 158.38 347.88 C 152.73 348.33 157.75 348.06 157.62 348.25 C 157.50 348.44 157.50 348.77 157.62 349.00 C 157.75 349.23 157.02 346.98 158.38 349.62 C 159.73 352.27 164.35 362.19 165.75 364.88 C 167.15 367.56 166.38 365.58 166.75 365.75 C 167.12 365.92 163.25 366.56 168.00 365.88 C 172.75 365.19 182.33 363.79 195.25 361.62 C 208.17 359.46 232.85 354.85 245.50 352.88 C 258.15 350.90 258.88 352.50 271.12 349.75 C 283.38 347.00 311.00 338.77 319.00 336.38 C 327.00 333.98 320.12 336.10 319.12 335.38 Z" id="s-6-f-2"/>
<path d="M 302.00 328.12 C 301.65 325.83 301.08 327.19 299.75 327.00 C 298.42 326.81 301.25 325.52 294.00 327.00 C 286.75 328.48 266.15 333.75 256.25 335.88 C 246.35 338.00 245.42 338.15 234.62 339.75 C 223.83 341.35 204.21 344.15 191.50 345.50 C 178.79 346.85 164.02 347.42 158.38 347.88 C 152.73 348.33 157.75 348.06 157.62 348.25 C 157.50 348.44 157.50 348.77 157.62 349.00 C 157.75 349.23 157.02 346.98 158.38 349.62 C 159.73 352.27 164.29 362.17 165.75 364.88 C 167.21 367.58 153.83 367.88 167.12 365.88 C 180.42 363.88 228.17 355.56 245.50 352.88 C 262.83 350.19 262.00 351.60 271.12 349.75 C 280.25 347.90 295.12 343.25 300.25 341.75 C 305.38 340.25 301.58 343.02 301.88 340.75 C 302.17 338.48 302.35 330.42 302.00 328.12 Z" id="s-6-f-3"/>
<path d="M 253.88 336.75 C 253.73 334.42 257.40 335.58 253.12 336.25 C 248.85 336.92 237.40 339.33 228.25 340.75 C 219.10 342.17 206.73 343.75 198.25 344.75 C 189.77 345.75 184.02 346.23 177.38 346.75 C 170.73 347.27 161.67 347.62 158.38 347.88 C 155.08 348.12 157.75 348.06 157.62 348.25 C 157.50 348.44 157.50 348.77 157.62 349.00 C 157.75 349.23 157.02 346.98 158.38 349.62 C 159.73 352.27 164.29 362.17 165.75 364.88 C 167.21 367.58 152.50 368.06 167.12 365.88 C 181.75 363.69 239.02 354.35 253.50 351.75 C 267.98 349.15 253.94 352.75 254.00 350.25 C 254.06 347.75 254.02 339.08 253.88 336.75 Z" id="s-6-f-4"/>
<path d="M 206.00 358.25 C 206.04 355.75 206.10 346.65 206.00 344.25 C 205.90 341.85 208.17 343.62 205.38 343.88 C 202.58 344.12 197.08 345.08 189.25 345.75 C 181.42 346.42 163.65 347.46 158.38 347.88 C 153.10 348.29 157.75 348.06 157.62 348.25 C 157.50 348.44 157.50 348.77 157.62 349.00 C 157.75 349.23 157.02 346.98 158.38 349.62 C 159.73 352.27 164.29 362.17 165.75 364.88 C 167.21 367.58 160.60 366.71 167.12 365.88 C 173.65 365.04 198.44 360.98 204.88 359.88 C 211.31 358.77 205.56 359.52 205.75 359.25 C 205.94 358.98 205.96 360.75 206.00 358.25 Z" id="s-6-f-5"/>
</g>
<g id="s-7" clip-path="url(#c-s-7)">
<use href="#s-7-f-0"/>
<path d="M 273.75 421.00 C 273.58 417.81 281.69 419.38 273.00 420.50 C 264.31 421.62 237.48 425.85 221.62 427.75 C 205.77 429.65 185.23 431.10 177.88 431.88 C 170.52 432.65 177.56 429.46 177.50 432.38 C 177.44 435.29 177.46 446.48 177.50 449.38 C 177.54 452.27 174.85 449.71 177.75 449.75 C 180.65 449.79 178.90 451.00 194.88 449.62 C 210.85 448.25 260.44 443.17 273.62 441.50 C 286.81 439.83 273.98 443.04 274.00 439.62 C 274.02 436.21 273.92 424.19 273.75 421.00 Z" id="s-7-f-1"/>
<path d="M 225.88 427.62 C 225.67 424.71 228.58 426.77 224.75 427.12 C 220.92 427.48 210.69 428.96 202.88 429.75 C 195.06 430.54 182.10 431.44 177.88 431.88 C 173.65 432.31 177.56 429.46 177.50 432.38 C 177.44 435.29 177.46 446.48 177.50 449.38 C 177.54 452.27 174.92 449.71 177.75 449.75 C 180.58 449.79 186.56 450.17 194.50 449.62 C 202.44 449.08 220.12 447.33 225.38 446.50 C 230.62 445.67 225.92 447.77 226.00 444.62 C 226.08 441.48 226.08 430.54 225.88 427.62 Z" id="s-7-f-2"/>
</g>
</svg>