<?xml version="1.0" encoding="UTF-8"?>
<svg xmlns="http://www.w3.org/2000/svg" viewBox="0 0 500 500">
<defs>
<path d="M 183.88 126.88 C 183.83 126.29 183.81 126.08 183.50 125.50 C 183.19 124.92 182.73 124.10 182.00 123.38 C 181.27 122.65 181.10 122.19 179.12 121.12 C 177.15 120.06 173.17 118.17 170.12 117.00 C 167.08 115.83 163.38 114.62 160.88 114.12 C 158.38 113.62 159.38 112.92 155.12 114.00 C 150.88 115.08 142.15 118.67 135.38 120.62 C 128.60 122.58 123.08 123.90 114.50 125.75 C 105.92 127.60 92.00 130.29 83.88 131.75 C 75.75 133.21 71.25 133.77 65.75 134.50 C 60.25 135.23 54.31 135.54 50.88 136.12 C 47.44 136.71 46.27 137.52 45.12 138.00 C 43.98 138.48 44.21 138.60 44.00 139.00 C 43.79 139.40 43.73 139.73 43.88 140.38 C 44.02 141.02 44.06 141.77 44.88 142.88 C 45.69 143.98 47.65 146.04 48.75 147.00 C 49.85 147.96 50.52 148.21 51.50 148.62 C 52.48 149.04 52.44 149.15 54.62 149.50 C 56.81 149.85 60.15 150.54 64.62 150.75 C 69.10 150.96 75.81 151.08 81.50 150.75 C 87.19 150.42 91.33 149.85 98.75 148.75 C 106.17 147.65 120.52 144.96 126.00 144.12 C 131.48 143.29 125.92 144.67 131.62 143.75 C 137.33 142.83 154.06 139.81 160.25 138.62 C 166.44 137.44 165.81 137.46 168.75 136.62 C 171.69 135.79 175.48 134.73 177.88 133.62 C 180.27 132.52 182.15 130.77 183.12 130.00 C 184.10 129.23 183.62 129.52 183.75 129.00 C 183.88 128.48 183.92 127.46 183.88 126.88 Z" id="s-0-f-0"/>
<clipPath id="c-s-0"><use href="#s-0-f-0"/></clipPath>
<path d="M 175.88 227.38 C 175.75 226.69 175.33 226.17 174.88 225.62 C 174.42 225.08 174.15 224.73 173.12 224.12 C 172.10 223.52 170.46 222.69 168.75 222.00 C 167.04 221.31 166.38 220.65 162.88 220.00 C 159.38 219.35 151.69 218.46 147.75 218.12 C 143.81 217.79 141.58 217.81 139.25 218.00 C 136.92 218.19 135.25 218.79 133.75 219.25 C 132.25 219.71 131.29 220.46 130.25 220.75 C 129.21 221.04 131.62 220.15 127.50 221.00 C 123.38 221.85 110.96 224.58 105.50 225.88 C 100.04 227.17 102.06 227.40 94.75 228.75 C 87.44 230.10 67.77 232.92 61.62 234.00 C 55.48 235.08 59.00 234.75 57.88 235.25 C 56.75 235.75 55.69 236.31 54.88 237.00 C 54.06 237.69 53.33 238.62 53.00 239.38 C 52.67 240.12 52.79 240.92 52.88 241.50 C 52.96 242.08 52.88 242.21 53.50 242.88 C 54.12 243.54 55.73 244.85 56.62 245.50 C 57.52 246.15 57.23 246.08 58.88 246.75 C 60.52 247.42 63.90 248.83 66.50 249.50 C 69.10 250.17 70.83 250.56 74.50 250.75 C 78.17 250.94 83.94 251.08 88.50 250.62 C 93.06 250.17 99.04 248.46 101.88 248.00 C 104.71 247.54 101.52 248.42 105.50 247.88 C 109.48 247.33 119.06 246.06 125.75 244.75 C 132.44 243.44 138.88 241.50 145.62 240.00 C 152.38 238.50 161.96 236.79 166.25 235.75 C 170.54 234.71 170.06 234.42 171.38 233.75 C 172.69 233.08 173.42 232.42 174.12 231.75 C 174.83 231.08 175.33 230.48 175.62 229.75 C 175.92 229.02 176.00 228.06 175.88 227.38 Z" id="s-1-f-0"/>
<clipPath id="c-s-1"><use href="#s-1-f-0"/></clipPath>
<path d="M 127.38 143.50 C 126.58 143.31 124.48 143.48 123.50 143.62 C 122.52 143.77 122.62 144.19 121.50 144.38 C 120.38 144.56 117.73 144.58 116.75 144.75 C 115.77 144.92 118.60 144.90 115.62 145.38 C 112.65 145.85 102.17 147.06 98.88 147.62 C 95.58 148.19 96.35 148.31 95.88 148.75 C 95.40 149.19 95.54 149.08 96.00 150.25 C 96.46 151.42 97.83 153.83 98.62 155.75 C 99.42 157.67 100.21 159.67 100.75 161.75 C 101.29 163.83 101.54 158.67 101.88 168.25 C 102.21 177.83 102.65 206.04 102.75 219.25 C 102.85 232.46 102.48 242.25 102.50 247.50 C 102.52 252.75 102.79 244.73 102.88 250.75 C 102.96 256.77 102.83 269.77 103.00 283.62 C 103.17 297.48 103.65 325.33 103.88 333.88 C 104.10 342.42 101.00 335.88 104.38 334.88 C 107.75 333.88 120.56 329.21 124.12 327.88 C 127.69 326.54 124.96 340.81 125.75 326.88 C 126.54 312.94 128.15 259.54 128.88 244.25 C 129.60 228.96 129.94 240.12 130.12 235.12 C 130.31 230.12 129.85 224.50 130.00 214.25 C 130.15 204.00 130.67 181.71 131.00 173.62 C 131.33 165.54 131.40 168.54 132.00 165.75 C 132.60 162.96 134.17 159.35 134.62 156.88 C 135.08 154.40 134.90 152.17 134.75 150.88 C 134.60 149.58 134.46 149.96 133.75 149.12 C 133.04 148.29 131.42 146.60 130.50 145.88 C 129.58 145.15 128.77 145.15 128.25 144.75 C 127.73 144.35 128.17 143.69 127.38 143.50 Z" id="s-2-f-0"/>
<clipPath id="c-s-2"><use href="#s-2-f-0"/></clipPath>
<path d="M 197.75 304.12 C 197.44 303.46 196.54 302.62 196.00 302.25 C 195.46 301.88 195.35 301.90 194.50 301.88 C 193.65 301.85 192.50 301.77 190.88 302.12 C 189.25 302.48 195.50 299.92 184.75 304.00 C 174.00 308.08 136.42 322.85 126.38 326.62 C 116.33 330.40 124.92 326.52 124.50 326.62 C 124.08 326.73 124.79 326.92 123.88 327.25 C 122.96 327.58 120.06 328.23 119.00 328.62 C 117.94 329.02 117.96 329.46 117.50 329.62 C 117.04 329.79 117.02 329.35 116.25 329.62 C 115.48 329.90 114.27 330.75 112.88 331.25 C 111.48 331.75 109.71 331.90 107.88 332.62 C 106.04 333.35 106.98 333.62 101.88 335.62 C 96.77 337.62 83.96 342.27 77.25 344.62 C 70.54 346.98 65.67 348.52 61.62 349.75 C 57.58 350.98 55.67 351.17 53.00 352.00 C 50.33 352.83 48.06 353.98 45.62 354.75 C 43.19 355.52 41.19 356.08 38.38 356.62 C 35.56 357.17 30.81 357.52 28.75 358.00 C 26.69 358.48 26.46 358.79 26.00 359.50 C 25.54 360.21 25.69 361.08 26.00 362.25 C 26.31 363.42 26.77 364.85 27.88 366.50 C 28.98 368.15 31.00 370.40 32.62 372.12 C 34.25 373.85 35.48 375.10 37.62 376.88 C 39.77 378.65 43.06 381.12 45.50 382.75 C 47.94 384.38 50.42 385.69 52.25 386.62 C 54.08 387.56 55.00 387.85 56.50 388.38 C 58.00 388.90 59.60 389.52 61.25 389.75 C 62.90 389.98 65.17 389.92 66.38 389.75 C 67.58 389.58 67.00 389.83 68.50 388.75 C 70.00 387.67 69.48 387.19 75.38 383.25 C 81.27 379.31 88.38 374.54 103.88 365.12 C 119.38 355.71 154.50 335.12 168.38 326.75 C 182.25 318.38 182.38 318.00 187.12 314.88 C 191.88 311.75 195.08 309.44 196.88 308.00 C 198.67 306.56 197.73 306.90 197.88 306.25 C 198.02 305.60 198.06 304.79 197.75 304.12 Z" id="s-3-f-0"/>
<clipPath id="c-s-3"><use href="#s-3-f-0"/></clipPath>
<path d="M 269.12 42.12 C 268.21 42.38 268.19 42.65 268.00 43.50 C 267.81 44.35 267.25 45.48 268.00 47.25 C 268.75 49.02 269.52 48.12 272.50 54.12 C 275.48 60.12 282.79 76.71 285.88 83.25 C 288.96 89.79 289.60 90.88 291.00 93.38 C 292.40 95.88 293.33 97.02 294.25 98.25 C 295.17 99.48 295.90 100.29 296.50 100.75 C 297.10 101.21 295.65 101.46 297.88 101.00 C 300.10 100.54 307.21 99.31 309.88 98.00 C 312.54 96.69 312.56 95.75 313.88 93.12 C 315.19 90.50 316.94 85.04 317.75 82.25 C 318.56 79.46 318.56 78.48 318.75 76.38 C 318.94 74.27 318.90 71.08 318.88 69.62 C 318.85 68.17 318.96 68.67 318.62 67.62 C 318.29 66.58 317.71 64.75 316.88 63.38 C 316.04 62.00 314.92 60.65 313.62 59.38 C 312.33 58.10 311.58 57.29 309.12 55.75 C 306.67 54.21 303.90 52.25 298.88 50.12 C 293.85 48.00 283.23 44.35 279.00 43.00 C 274.77 41.65 275.15 42.15 273.50 42.00 C 271.85 41.85 270.04 41.88 269.12 42.12 Z" id="s-4-f-0"/>
<clipPath id="c-s-4"><use href="#s-4-f-0"/></clipPath>
<path d="M 392.88 97.75 C 392.90 97.04 392.92 96.92 392.62 96.25 C 392.33 95.58 391.88 94.58 391.12 93.75 C 390.38 92.92 390.29 92.35 388.12 91.25 C 385.96 90.15 381.06 88.15 378.12 87.12 C 375.19 86.10 372.98 85.48 370.50 85.12 C 368.02 84.77 368.98 83.73 363.25 85.00 C 357.52 86.27 344.71 90.67 336.12 92.75 C 327.54 94.83 316.52 96.69 311.75 97.50 C 306.98 98.31 308.46 97.44 307.50 97.62 C 306.54 97.81 306.69 98.46 306.00 98.62 C 305.31 98.79 304.08 98.50 303.38 98.62 C 302.67 98.75 302.54 99.19 301.75 99.38 C 300.96 99.56 299.54 99.50 298.62 99.75 C 297.71 100.00 302.88 99.73 296.25 100.88 C 289.62 102.02 269.54 105.15 258.88 106.62 C 248.21 108.10 238.02 109.15 232.25 109.75 C 226.48 110.35 226.46 110.02 224.25 110.25 C 222.04 110.48 220.27 110.83 219.00 111.12 C 217.73 111.42 217.29 111.65 216.62 112.00 C 215.96 112.35 215.29 112.85 215.00 113.25 C 214.71 113.65 214.65 113.73 214.88 114.38 C 215.10 115.02 215.33 115.94 216.38 117.12 C 217.42 118.31 219.58 120.40 221.12 121.50 C 222.67 122.60 224.35 123.23 225.62 123.75 C 226.90 124.27 226.42 124.25 228.75 124.62 C 231.08 125.00 236.12 125.77 239.62 126.00 C 243.12 126.23 245.44 126.21 249.75 126.00 C 254.06 125.79 252.42 126.25 265.50 124.75 C 278.58 123.25 312.85 119.19 328.25 117.00 C 343.65 114.81 350.06 113.19 357.88 111.62 C 365.69 110.06 371.02 108.73 375.12 107.62 C 379.23 106.52 380.40 105.65 382.50 105.00 C 384.60 104.35 386.44 104.17 387.75 103.75 C 389.06 103.33 389.58 103.04 390.38 102.50 C 391.17 101.96 392.08 101.29 392.50 100.50 C 392.92 99.71 392.85 98.46 392.88 97.75 Z" id="s-5-f-0"/>
<clipPath id="c-s-5"><use href="#s-5-f-0"/></clipPath>
<path d="M 239.38 125.50 C 237.48 125.75 238.06 124.52 239.12 127.25 C 240.19 129.98 243.10 134.79 245.75 141.88 C 248.40 148.96 252.94 163.77 255.00 169.75 C 257.06 175.73 256.98 175.12 258.12 177.75 C 259.27 180.38 261.02 183.98 261.88 185.50 C 262.73 187.02 262.85 186.62 263.25 186.88 C 263.65 187.12 262.35 187.31 264.25 187.00 C 266.15 186.69 272.71 185.56 274.62 185.00 C 276.54 184.44 275.23 184.60 275.75 183.62 C 276.27 182.65 277.10 181.04 277.75 179.12 C 278.40 177.21 279.29 175.02 279.62 172.12 C 279.96 169.23 279.92 164.40 279.75 161.75 C 279.58 159.10 279.44 158.62 278.62 156.25 C 277.81 153.88 276.25 149.92 274.88 147.50 C 273.50 145.08 272.21 143.75 270.38 141.75 C 268.54 139.75 266.33 137.58 263.88 135.50 C 261.42 133.42 257.71 130.69 255.62 129.25 C 253.54 127.81 252.23 127.46 251.38 126.88 C 250.52 126.29 252.50 125.98 250.50 125.75 C 248.50 125.52 241.27 125.25 239.38 125.50 Z" id="s-6-f-0"/>
<clipPath id="c-s-6"><use href="#s-6-f-0"/></clipPath>
<path d="M 345.88 113.75 C 345.06 113.56 343.00 113.52 342.00 113.62 C 341.00 113.73 340.90 114.21 339.88 114.38 C 338.85 114.54 336.88 114.46 335.88 114.62 C 334.88 114.79 334.98 115.19 333.88 115.38 C 332.77 115.56 330.42 115.50 329.25 115.75 C 328.08 116.00 326.96 114.75 326.88 116.88 C 326.79 119.00 328.58 124.73 328.75 128.50 C 328.92 132.27 328.88 134.00 327.88 139.50 C 326.88 145.00 324.40 155.15 322.75 161.50 C 321.10 167.85 318.73 174.71 318.00 177.62 C 317.27 180.54 316.92 178.96 318.38 179.00 C 319.83 179.04 324.62 178.25 326.75 177.88 C 328.88 177.50 329.62 177.90 331.12 176.75 C 332.62 175.60 333.81 173.69 335.75 171.00 C 337.69 168.31 339.90 165.06 342.75 160.62 C 345.60 156.19 350.46 148.56 352.88 144.38 C 355.29 140.19 355.77 137.79 357.25 135.50 C 358.73 133.21 361.02 131.96 361.75 130.62 C 362.48 129.29 362.06 128.69 361.62 127.50 C 361.19 126.31 360.60 125.08 359.12 123.50 C 357.65 121.92 354.60 119.42 352.75 118.00 C 350.90 116.58 348.98 115.54 348.00 115.00 C 347.02 114.46 347.23 114.96 346.88 114.75 C 346.52 114.54 346.69 113.94 345.88 113.75 Z" id="s-7-f-0"/>
<clipPath id="c-s-7"><use href="#s-7-f-0"/></clipPath>
<path d="M 449.88 180.00 C 449.58 179.10 448.52 177.48 447.88 176.62 C 447.23 175.77 448.23 176.48 446.00 174.88 C 443.77 173.27 438.65 168.96 434.50 167.00 C 430.35 165.04 424.38 163.79 421.12 163.12 C 417.88 162.46 418.98 162.52 415.00 163.00 C 411.02 163.48 402.17 165.04 397.25 166.00 C 392.33 166.96 396.27 166.98 385.50 168.75 C 374.73 170.52 342.29 175.31 332.62 176.62 C 322.96 177.94 328.67 176.50 327.50 176.62 C 326.33 176.75 326.79 177.19 325.62 177.38 C 324.46 177.56 321.88 177.50 320.50 177.75 C 319.12 178.00 324.83 177.71 317.38 178.88 C 309.92 180.04 283.33 183.79 275.75 184.75 C 268.17 185.71 272.90 184.50 271.88 184.62 C 270.85 184.75 270.60 185.33 269.62 185.50 C 268.65 185.67 267.15 185.42 266.00 185.62 C 264.85 185.83 275.52 185.04 262.75 186.75 C 249.98 188.46 202.60 194.00 189.38 195.88 C 176.15 197.75 184.56 197.46 183.38 198.00 C 182.19 198.54 182.50 198.73 182.25 199.12 C 182.00 199.52 181.79 199.85 181.88 200.38 C 181.96 200.90 182.17 201.54 182.75 202.25 C 183.33 202.96 184.35 203.88 185.38 204.62 C 186.40 205.38 186.83 205.73 188.88 206.75 C 190.92 207.77 195.29 209.77 197.62 210.75 C 199.96 211.73 201.21 212.15 202.88 212.62 C 204.54 213.10 205.73 213.42 207.62 213.62 C 209.52 213.83 210.29 214.46 214.25 213.88 C 218.21 213.29 221.29 212.10 231.38 210.12 C 241.46 208.15 263.42 204.02 274.75 202.00 C 286.08 199.98 291.54 199.17 299.38 198.00 C 307.21 196.83 313.08 196.00 321.75 195.00 C 330.42 194.00 340.12 193.00 351.38 192.00 C 362.62 191.00 374.56 189.90 389.25 189.00 C 403.94 188.10 429.94 187.33 439.50 186.62 C 449.06 185.92 444.94 185.52 446.62 184.75 C 448.31 183.98 449.08 182.79 449.62 182.00 C 450.17 181.21 450.17 180.90 449.88 180.00 Z" id="s-8-f-0"/>
<clipPath id="c-s-8"><use href="#s-8-f-0"/></clipPath>
<path d="M 213.38 235.12 C 211.92 235.33 212.10 236.00 211.75 236.38 C 211.40 236.75 211.38 236.56 211.25 237.38 C 211.12 238.19 210.08 239.52 211.00 241.25 C 211.92 242.98 215.31 245.79 216.75 247.75 C 218.19 249.71 218.94 251.50 219.62 253.00 C 220.31 254.50 220.02 253.04 220.88 256.75 C 221.73 260.46 223.73 268.58 224.75 275.25 C 225.77 281.92 225.79 287.75 227.00 296.75 C 228.21 305.75 230.65 322.56 232.00 329.25 C 233.35 335.94 234.19 335.02 235.12 336.88 C 236.06 338.73 236.75 339.44 237.62 340.38 C 238.50 341.31 239.33 342.10 240.38 342.50 C 241.42 342.90 242.81 343.27 243.88 342.75 C 244.94 342.23 246.10 340.35 246.75 339.38 C 247.40 338.40 247.54 340.12 247.75 336.88 C 247.96 333.62 248.00 324.65 248.00 319.88 C 248.00 315.10 248.08 313.12 247.75 308.25 C 247.42 303.38 246.31 294.50 246.00 290.62 C 245.69 286.75 246.38 289.44 245.88 285.00 C 245.38 280.56 243.52 269.75 243.00 264.00 C 242.48 258.25 244.90 254.83 242.75 250.50 C 240.60 246.17 233.08 240.40 230.12 238.00 C 227.17 235.60 226.60 236.60 225.00 236.12 C 223.40 235.65 222.44 235.29 220.50 235.12 C 218.56 234.96 214.83 234.92 213.38 235.12 Z" id="s-9-f-0"/>
<clipPath id="c-s-9"><use href="#s-9-f-0"/></clipPath>
<path d="M 402.88 234.25 C 402.33 232.90 400.90 231.44 399.12 229.88 C 397.35 228.31 394.27 226.19 392.25 224.88 C 390.23 223.56 390.40 223.62 387.00 222.00 C 383.60 220.38 375.00 216.46 371.88 215.12 C 368.75 213.79 370.02 214.17 368.25 214.00 C 366.48 213.83 366.88 213.00 361.25 214.12 C 355.62 215.25 346.52 218.15 334.50 220.75 C 322.48 223.35 303.38 227.25 289.12 229.75 C 274.88 232.25 258.38 234.48 249.00 235.75 C 239.62 237.02 236.10 236.92 232.88 237.38 C 229.65 237.83 228.08 236.23 229.62 238.50 C 231.17 240.77 238.02 249.42 242.12 251.00 C 246.23 252.58 243.25 250.00 254.25 248.00 C 265.25 246.00 294.94 241.00 308.12 239.00 C 321.31 237.00 327.10 236.67 333.38 236.00 C 339.65 235.33 342.98 235.17 345.75 235.00 C 348.52 234.83 348.67 234.83 350.00 235.00 C 351.33 235.17 352.88 235.69 353.75 236.00 C 354.62 236.31 354.73 236.40 355.25 236.88 C 355.77 237.35 356.46 238.06 356.88 238.88 C 357.29 239.69 357.67 239.21 357.75 241.75 C 357.83 244.29 357.88 248.23 357.38 254.12 C 356.88 260.02 355.31 273.04 354.75 277.12 C 354.19 281.21 354.52 275.75 354.00 278.62 C 353.48 281.50 352.48 289.77 351.62 294.38 C 350.77 298.98 349.67 303.44 348.88 306.25 C 348.08 309.06 347.56 308.06 346.88 311.25 C 346.19 314.44 345.06 322.62 344.75 325.38 C 344.44 328.12 344.46 326.35 345.00 327.75 C 345.54 329.15 346.94 332.29 348.00 333.75 C 349.06 335.21 350.17 335.98 351.38 336.50 C 352.58 337.02 353.98 337.00 355.25 336.88 C 356.52 336.75 357.85 336.25 359.00 335.75 C 360.15 335.25 360.85 334.79 362.12 333.88 C 363.40 332.96 365.56 331.25 366.62 330.25 C 367.69 329.25 366.15 333.54 368.50 327.88 C 370.85 322.21 376.15 309.31 380.75 296.25 C 385.35 283.19 393.10 258.35 396.12 249.50 C 399.15 240.65 397.83 245.04 398.88 243.12 C 399.92 241.21 401.71 239.48 402.38 238.00 C 403.04 236.52 403.42 235.60 402.88 234.25 Z" id="s-10-f-0"/>
<clipPath id="c-s-10"><use href="#s-10-f-0"/></clipPath>
<path d="M 356.25 269.38 C 355.75 268.17 354.35 267.75 353.00 267.00 C 351.65 266.25 350.85 265.52 348.12 264.88 C 345.40 264.23 339.81 263.44 336.62 263.12 C 333.44 262.81 337.29 261.73 329.00 263.00 C 320.71 264.27 300.62 268.56 286.88 270.75 C 273.12 272.94 253.56 275.04 246.50 276.12 C 239.44 277.21 244.79 275.90 244.50 277.25 C 244.21 278.60 244.54 282.31 244.75 284.25 C 244.96 286.19 244.77 287.96 245.75 288.88 C 246.73 289.79 247.44 289.60 250.62 289.75 C 253.81 289.90 258.71 290.10 264.88 289.75 C 271.04 289.40 275.71 288.98 287.62 287.62 C 299.54 286.27 325.15 283.21 336.38 281.62 C 347.60 280.04 351.73 279.35 355.00 278.12 C 358.27 276.90 355.79 275.71 356.00 274.25 C 356.21 272.79 356.75 270.58 356.25 269.38 Z" id="s-11-f-0"/>
<clipPath id="c-s-11"><use href="#s-11-f-0"/></clipPath>
<path d="M 347.25 312.25 C 346.79 309.92 345.00 310.81 343.25 310.12 C 341.50 309.44 339.29 308.48 336.75 308.12 C 334.21 307.77 336.62 306.90 328.00 308.00 C 319.38 309.10 298.29 312.94 285.00 314.75 C 271.71 316.56 254.50 318.12 248.25 318.88 C 242.00 319.62 247.62 316.81 247.50 319.25 C 247.38 321.69 247.42 331.06 247.50 333.50 C 247.58 335.94 246.52 333.79 248.00 333.88 C 249.48 333.96 251.35 334.15 256.38 334.00 C 261.40 333.85 272.33 333.38 278.12 333.00 C 283.92 332.62 287.02 332.25 291.12 331.75 C 295.23 331.25 297.44 330.60 302.75 330.00 C 308.06 329.40 316.00 328.65 323.00 328.12 C 330.00 327.60 340.92 327.54 344.75 326.88 C 348.58 326.21 345.58 326.56 346.00 324.12 C 346.42 321.69 347.71 314.58 347.25 312.25 Z" id="s-12-f-0"/>
<clipPath id="c-s-12"><use href="#s-12-f-0"/></clipPath>
<path d="M 283.00 336.50 C 281.62 335.27 281.25 333.12 277.62 332.50 C 274.00 331.88 265.65 332.56 261.25 332.75 C 256.85 332.94 252.96 333.23 251.25 333.62 C 249.54 334.02 250.75 333.98 251.00 335.12 C 251.25 336.27 252.48 338.81 252.75 340.50 C 253.02 342.19 252.79 343.50 252.62 345.25 C 252.46 347.00 252.40 348.40 251.75 351.00 C 251.10 353.60 250.08 357.52 248.75 360.88 C 247.42 364.23 245.58 367.71 243.75 371.12 C 241.92 374.54 240.42 377.21 237.75 381.38 C 235.08 385.54 231.38 391.40 227.75 396.12 C 224.12 400.85 220.56 405.00 216.00 409.75 C 211.44 414.50 205.23 420.27 200.38 424.62 C 195.52 428.98 191.58 432.17 186.88 435.88 C 182.17 439.58 176.38 443.88 172.12 446.88 C 167.88 449.88 163.54 452.40 161.38 453.88 C 159.21 455.35 159.52 455.31 159.12 455.75 C 158.73 456.19 158.92 456.31 159.00 456.50 C 159.08 456.69 158.77 456.83 159.62 456.88 C 160.48 456.92 161.44 457.27 164.12 456.75 C 166.81 456.23 172.42 454.75 175.75 453.75 C 179.08 452.75 180.56 452.25 184.12 450.75 C 187.69 449.25 192.96 446.92 197.12 444.75 C 201.29 442.58 205.94 439.73 209.12 437.75 C 212.31 435.77 213.54 434.88 216.25 432.88 C 218.96 430.88 222.40 428.27 225.38 425.75 C 228.35 423.23 231.10 420.67 234.12 417.75 C 237.15 414.83 240.23 411.85 243.50 408.25 C 246.77 404.65 250.21 400.77 253.75 396.12 C 257.29 391.48 261.58 385.35 264.75 380.38 C 267.92 375.40 270.40 369.79 272.75 366.25 C 275.10 362.71 276.90 361.60 278.88 359.12 C 280.85 356.65 283.15 353.21 284.62 351.38 C 286.10 349.54 287.25 349.44 287.75 348.12 C 288.25 346.81 287.94 344.88 287.62 343.50 C 287.31 342.12 286.65 341.04 285.88 339.88 C 285.10 338.71 284.38 337.73 283.00 336.50 Z" id="s-13-f-0"/>
<clipPath id="c-s-13"><use href="#s-13-f-0"/></clipPath>
<path d="M 303.88 329.88 C 303.40 332.83 304.56 333.73 304.75 346.50 C 304.94 359.27 304.77 395.04 305.00 406.50 C 305.23 417.96 305.60 412.56 306.12 415.25 C 306.65 417.94 307.31 420.27 308.12 422.62 C 308.94 424.98 309.60 427.04 311.00 429.38 C 312.40 431.71 314.54 434.56 316.50 436.62 C 318.46 438.69 320.21 440.06 322.75 441.75 C 325.29 443.44 329.04 445.44 331.75 446.75 C 334.46 448.06 336.69 448.81 339.00 449.62 C 341.31 450.44 342.81 450.94 345.62 451.62 C 348.44 452.31 351.96 453.08 355.88 453.75 C 359.79 454.42 364.96 455.15 369.12 455.62 C 373.29 456.10 374.73 456.44 380.88 456.62 C 387.02 456.81 398.67 457.08 406.00 456.75 C 413.33 456.42 418.94 455.62 424.88 454.62 C 430.81 453.62 437.19 452.06 441.62 450.75 C 446.06 449.44 449.73 447.54 451.50 446.75 C 453.27 445.96 451.33 446.48 452.25 446.00 C 453.17 445.52 455.00 445.02 457.00 443.88 C 459.00 442.73 462.29 440.65 464.25 439.12 C 466.21 437.60 467.35 436.83 468.75 434.75 C 470.15 432.67 471.96 428.90 472.62 426.62 C 473.29 424.35 472.90 422.62 472.75 421.12 C 472.60 419.62 472.88 420.31 471.75 417.62 C 470.62 414.94 467.62 409.23 466.00 405.00 C 464.38 400.77 463.54 400.60 462.00 392.25 C 460.46 383.90 457.81 361.67 456.75 354.88 C 455.69 348.08 456.06 352.48 455.62 351.50 C 455.19 350.52 454.52 349.42 454.12 349.00 C 453.73 348.58 453.62 348.77 453.25 349.00 C 452.88 349.23 452.42 349.40 451.88 350.38 C 451.33 351.35 451.35 348.02 450.00 354.88 C 448.65 361.73 445.27 383.77 443.75 391.50 C 442.23 399.23 442.19 398.15 440.88 401.25 C 439.56 404.35 437.38 407.88 435.88 410.12 C 434.38 412.38 433.27 413.31 431.88 414.75 C 430.48 416.19 428.92 417.58 427.50 418.75 C 426.08 419.92 424.94 420.77 423.38 421.75 C 421.81 422.73 420.83 423.79 418.12 424.62 C 415.42 425.46 411.33 426.23 407.12 426.75 C 402.92 427.27 398.15 427.58 392.88 427.75 C 387.60 427.92 381.17 427.92 375.50 427.75 C 369.83 427.58 362.73 427.08 358.88 426.75 C 355.02 426.42 354.50 426.23 352.38 425.75 C 350.25 425.27 348.65 424.88 346.12 423.88 C 343.60 422.88 339.62 421.15 337.25 419.75 C 334.88 418.35 333.25 417.00 331.88 415.50 C 330.50 414.00 329.65 411.98 329.00 410.75 C 328.35 409.52 328.33 409.81 328.00 408.12 C 327.67 406.44 327.12 404.67 327.00 400.62 C 326.88 396.58 327.08 388.52 327.25 383.88 C 327.42 379.23 327.38 378.02 328.00 372.75 C 328.62 367.48 330.31 356.48 331.00 352.25 C 331.69 348.02 331.50 349.10 332.12 347.38 C 332.75 345.65 334.31 343.31 334.75 341.88 C 335.19 340.44 334.92 339.62 334.75 338.75 C 334.58 337.88 334.38 337.58 333.75 336.62 C 333.12 335.67 332.44 334.48 331.00 333.00 C 329.56 331.52 327.10 328.65 325.12 327.75 C 323.15 326.85 320.60 327.52 319.12 327.62 C 317.65 327.73 318.17 328.19 316.25 328.38 C 314.33 328.56 309.69 328.50 307.62 328.75 C 305.56 329.00 304.35 326.92 303.88 329.88 Z" id="s-14-f-0"/>
<clipPath id="c-s-14"><use href="#s-14-f-0"/></clipPath>
</defs>
<g id="s-0" clip-path="url(#c-s-0)">
<use href="#s-0-f-0"/>
<path d="M 139.88 119.62 C 139.73 116.10 141.12 118.75 139.12 119.25 C 137.12 119.75 135.25 120.88 127.88 122.62 C 120.50 124.38 104.33 127.90 94.88 129.75 C 85.42 131.60 78.46 132.69 71.12 133.75 C 63.79 134.81 55.21 135.42 50.88 136.12 C 46.54 136.83 46.27 137.52 45.12 138.00 C 43.98 138.48 44.19 138.46 44.00 139.00 C 43.81 139.54 43.67 140.35 44.00 141.25 C 44.33 142.15 45.35 143.54 46.00 144.38 C 46.65 145.21 46.96 145.54 47.88 146.25 C 48.79 146.96 49.52 147.96 51.50 148.62 C 53.48 149.29 56.58 149.88 59.75 150.25 C 62.92 150.62 66.88 150.79 70.50 150.88 C 74.12 150.96 77.10 151.06 81.50 150.75 C 85.90 150.44 89.60 150.08 96.88 149.00 C 104.15 147.92 118.08 145.33 125.12 144.25 C 132.17 143.17 136.67 142.90 139.12 142.50 C 141.58 142.10 139.73 142.23 139.88 141.88 C 140.02 141.52 140.00 144.08 140.00 140.38 C 140.00 136.67 140.02 123.15 139.88 119.62 Z" id="s-0-f-1"/>
<path d="M 92.00 131.88 C 91.92 129.00 91.71 130.65 91.50 130.38 C 91.29 130.10 94.15 129.69 90.75 130.25 C 87.35 130.81 77.77 132.77 71.12 133.75 C 64.48 134.73 55.21 135.42 50.88 136.12 C 46.54 136.83 46.27 137.52 45.12 138.00 C 43.98 138.48 44.19 138.46 44.00 139.00 C 43.81 139.54 43.67 140.35 44.00 141.25 C 44.33 142.15 45.10 143.33 46.00 144.38 C 46.90 145.42 48.46 146.79 49.38 147.50 C 50.29 148.21 50.52 148.27 51.50 148.62 C 52.48 148.98 53.06 149.27 55.25 149.62 C 57.44 149.98 62.08 150.54 64.62 150.75 C 67.17 150.96 67.69 150.88 70.50 150.88 C 73.31 150.88 78.02 150.96 81.50 150.75 C 84.98 150.54 89.62 150.15 91.38 149.62 C 93.12 149.10 91.90 150.58 92.00 147.62 C 92.10 144.67 92.08 134.75 92.00 131.88 Z" id="s-0-f-2"/>
</g>
<g id="s-1" clip-path="url(#c-s-1)">
<use href="#s-1-f-0"/>
<path d="M 148.88 218.75 C 148.67 215.52 149.35 218.25 147.75 218.12 C 146.15 218.00 141.58 217.81 139.25 218.00 C 136.92 218.19 135.25 218.79 133.75 219.25 C 132.25 219.71 131.29 220.46 130.25 220.75 C 129.21 221.04 131.62 220.15 127.50 221.00 C 123.38 221.85 110.96 224.58 105.50 225.88 C 100.04 227.17 102.06 227.40 94.75 228.75 C 87.44 230.10 67.77 232.92 61.62 234.00 C 55.48 235.08 59.00 234.75 57.88 235.25 C 56.75 235.75 55.69 236.31 54.88 237.00 C 54.06 237.69 53.31 238.52 53.00 239.38 C 52.69 240.23 52.54 241.21 53.00 242.12 C 53.46 243.04 54.77 244.10 55.75 244.88 C 56.73 245.65 57.08 245.98 58.88 246.75 C 60.67 247.52 63.90 248.83 66.50 249.50 C 69.10 250.17 71.38 250.52 74.50 250.75 C 77.62 250.98 81.88 251.06 85.25 250.88 C 88.62 250.69 91.98 250.10 94.75 249.62 C 97.52 249.15 100.08 248.29 101.88 248.00 C 103.67 247.71 101.52 248.42 105.50 247.88 C 109.48 247.33 118.71 246.10 125.75 244.75 C 132.79 243.40 143.90 240.71 147.75 239.75 C 151.60 238.79 148.67 239.38 148.88 239.00 C 149.08 238.62 149.00 240.88 149.00 237.50 C 149.00 234.12 149.08 221.98 148.88 218.75 Z" id="s-1-f-1"/>
<path d="M 100.88 227.75 C 100.69 224.56 102.67 226.88 99.88 227.38 C 97.08 227.88 90.58 229.62 84.12 230.75 C 77.67 231.88 65.50 233.38 61.12 234.12 C 56.75 234.88 58.92 234.77 57.88 235.25 C 56.83 235.73 55.69 236.31 54.88 237.00 C 54.06 237.69 53.31 238.50 53.00 239.38 C 52.69 240.25 52.54 241.33 53.00 242.25 C 53.46 243.17 54.77 244.12 55.75 244.88 C 56.73 245.62 57.08 245.98 58.88 246.75 C 60.67 247.52 64.29 248.88 66.50 249.50 C 68.71 250.12 68.69 250.29 72.12 250.50 C 75.56 250.71 82.58 251.04 87.12 250.75 C 91.67 250.46 97.10 249.21 99.38 248.75 C 101.65 248.29 100.48 248.38 100.75 248.00 C 101.02 247.62 100.98 249.88 101.00 246.50 C 101.02 243.12 101.06 230.94 100.88 227.75 Z" id="s-1-f-2"/>
</g>
<g id="s-2" clip-path="url(#c-s-2)">
<use href="#s-2-f-0"/>
<path d="M 127.38 143.50 C 126.58 143.31 124.48 143.48 123.50 143.62 C 122.52 143.77 122.62 144.19 121.50 144.38 C 120.38 144.56 117.73 144.58 116.75 144.75 C 115.77 144.92 118.60 144.90 115.62 145.38 C 112.65 145.85 102.17 147.06 98.88 147.62 C 95.58 148.19 96.35 148.31 95.88 148.75 C 95.40 149.19 95.54 149.08 96.00 150.25 C 96.46 151.42 97.83 153.83 98.62 155.75 C 99.42 157.67 100.21 159.67 100.75 161.75 C 101.29 163.83 101.54 158.67 101.88 168.25 C 102.21 177.83 102.65 206.04 102.75 219.25 C 102.85 232.46 102.48 242.48 102.50 247.50 C 102.52 252.52 102.75 242.71 102.88 249.38 C 103.00 256.04 103.12 281.08 103.25 287.50 C 103.38 293.92 99.96 287.79 103.62 287.88 C 107.29 287.96 121.29 288.06 125.25 288.00 C 129.21 287.94 126.77 294.79 127.38 287.50 C 127.98 280.21 128.42 252.98 128.88 244.25 C 129.33 235.52 129.94 240.12 130.12 235.12 C 130.31 230.12 129.85 224.48 130.00 214.25 C 130.15 204.02 130.67 181.83 131.00 173.75 C 131.33 165.67 131.40 168.56 132.00 165.75 C 132.60 162.94 134.17 159.35 134.62 156.88 C 135.08 154.40 134.90 152.17 134.75 150.88 C 134.60 149.58 134.46 149.96 133.75 149.12 C 133.04 148.29 131.42 146.60 130.50 145.88 C 129.58 145.15 128.77 145.15 128.25 144.75 C 127.73 144.35 128.17 143.69 127.38 143.50 Z" id="s-2-f-1"/>
<path d="M 127.38 143.50 C 126.58 143.31 124.48 143.48 123.50 143.62 C 122.52 143.77 122.62 144.19 121.50 144.38 C 120.38 144.56 117.73 144.58 116.75 144.75 C 115.77 144.92 118.60 144.90 115.62 145.38 C 112.65 145.85 102.17 147.06 98.88 147.62 C 95.58 148.19 96.35 148.31 95.88 148.75 C 95.40 149.19 95.33 148.54 96.00 150.25 C 96.67 151.96 98.90 156.19 99.88 159.00 C 100.85 161.81 101.40 157.08 101.88 167.12 C 102.35 177.17 102.65 207.19 102.75 219.25 C 102.85 231.31 102.42 236.00 102.50 239.50 C 102.58 243.00 98.88 240.12 103.25 240.25 C 107.62 240.38 124.40 240.29 128.75 240.25 C 133.10 240.21 129.17 240.40 129.38 240.00 C 129.58 239.60 129.90 242.17 130.00 237.88 C 130.10 233.58 129.83 224.96 130.00 214.25 C 130.17 203.54 130.67 181.71 131.00 173.62 C 131.33 165.54 131.38 168.65 132.00 165.75 C 132.62 162.85 134.27 158.54 134.75 156.25 C 135.23 153.96 135.04 153.19 134.88 152.00 C 134.71 150.81 134.48 150.15 133.75 149.12 C 133.02 148.10 131.42 146.60 130.50 145.88 C 129.58 145.15 128.77 145.15 128.25 144.75 C 127.73 144.35 128.17 143.69 127.38 143.50 Z" id="s-2-f-2"/>
<path d="M 127.38 143.50 C 126.58 143.31 124.48 143.48 123.50 143.62 C 122.52 143.77 122.62 144.19 121.50 144.38 C 120.38 144.56 117.73 144.58 116.75 144.75 C 115.77 144.92 118.60 144.90 115.62 145.38 C 112.65 145.85 102.17 147.06 98.88 147.62 C 95.58 148.19 96.35 148.33 95.88 148.75 C 95.40 149.17 95.21 148.06 96.00 150.12 C 96.79 152.19 99.67 158.44 100.62 161.12 C 101.58 163.81 101.50 161.21 101.75 166.25 C 102.00 171.29 101.96 187.10 102.12 191.38 C 102.29 195.65 98.35 191.77 102.75 191.88 C 107.15 191.98 123.85 192.04 128.50 192.00 C 133.15 191.96 130.19 194.92 130.62 191.62 C 131.06 188.33 130.90 176.56 131.12 172.25 C 131.35 167.94 131.40 168.42 132.00 165.75 C 132.60 163.08 134.27 158.56 134.75 156.25 C 135.23 153.94 134.94 152.90 134.88 151.88 C 134.81 150.85 134.75 150.79 134.38 150.12 C 134.00 149.46 133.27 148.58 132.62 147.88 C 131.98 147.17 131.23 146.40 130.50 145.88 C 129.77 145.35 128.77 145.15 128.25 144.75 C 127.73 144.35 128.17 143.69 127.38 143.50 Z" id="s-2-f-3"/>
</g>
<g id="s-3" clip-path="url(#c-s-3)">
<use href="#s-3-f-0"/>
<path d="M 169.50 310.88 C 169.31 308.29 175.94 307.38 168.75 310.00 C 161.56 312.62 133.75 323.85 126.38 326.62 C 119.00 329.40 124.92 326.52 124.50 326.62 C 124.08 326.73 124.79 326.92 123.88 327.25 C 122.96 327.58 120.06 328.23 119.00 328.62 C 117.94 329.02 117.96 329.46 117.50 329.62 C 117.04 329.79 117.02 329.35 116.25 329.62 C 115.48 329.90 114.27 330.75 112.88 331.25 C 111.48 331.75 109.71 331.90 107.88 332.62 C 106.04 333.35 107.52 333.44 101.88 335.62 C 96.23 337.81 82.15 343.02 74.00 345.75 C 65.85 348.48 57.73 350.50 53.00 352.00 C 48.27 353.50 48.06 353.98 45.62 354.75 C 43.19 355.52 41.19 356.08 38.38 356.62 C 35.56 357.17 30.81 357.52 28.75 358.00 C 26.69 358.48 26.46 358.79 26.00 359.50 C 25.54 360.21 25.69 361.08 26.00 362.25 C 26.31 363.42 26.77 364.85 27.88 366.50 C 28.98 368.15 31.00 370.40 32.62 372.12 C 34.25 373.85 35.48 375.10 37.62 376.88 C 39.77 378.65 43.06 381.12 45.50 382.75 C 47.94 384.38 50.42 385.69 52.25 386.62 C 54.08 387.56 55.00 387.85 56.50 388.38 C 58.00 388.90 59.60 389.52 61.25 389.75 C 62.90 389.98 65.17 389.92 66.38 389.75 C 67.58 389.58 67.00 389.83 68.50 388.75 C 70.00 387.67 69.48 387.19 75.38 383.25 C 81.27 379.31 88.29 374.60 103.88 365.12 C 119.46 355.65 157.88 332.98 168.88 326.38 C 179.88 319.77 169.77 328.08 169.88 325.50 C 169.98 322.92 169.69 313.46 169.50 310.88 Z" id="s-3-f-1"/>
<path d="M 121.88 328.50 C 121.79 324.04 121.98 327.56 121.25 327.75 C 120.52 327.94 118.33 329.31 117.50 329.62 C 116.67 329.94 117.02 329.35 116.25 329.62 C 115.48 329.90 114.27 330.75 112.88 331.25 C 111.48 331.75 109.71 331.90 107.88 332.62 C 106.04 333.35 104.65 334.46 101.88 335.62 C 99.10 336.79 97.96 337.27 91.25 339.62 C 84.54 341.98 68.00 347.69 61.62 349.75 C 55.25 351.81 56.29 351.00 53.00 352.00 C 49.71 353.00 45.92 354.75 41.88 355.75 C 37.83 356.75 31.40 357.38 28.75 358.00 C 26.10 358.62 26.46 358.79 26.00 359.50 C 25.54 360.21 25.69 361.08 26.00 362.25 C 26.31 363.42 26.77 364.85 27.88 366.50 C 28.98 368.15 31.00 370.40 32.62 372.12 C 34.25 373.85 35.48 375.10 37.62 376.88 C 39.77 378.65 43.06 381.12 45.50 382.75 C 47.94 384.38 50.42 385.69 52.25 386.62 C 54.08 387.56 55.00 387.85 56.50 388.38 C 58.00 388.90 59.60 389.52 61.25 389.75 C 62.90 389.98 65.17 389.92 66.38 389.75 C 67.58 389.58 67.46 389.52 68.50 388.75 C 69.54 387.98 69.62 387.23 72.62 385.12 C 75.62 383.02 78.31 381.23 86.50 376.12 C 94.69 371.02 115.85 362.44 121.75 354.50 C 127.65 346.56 121.96 332.96 121.88 328.50 Z" id="s-3-f-2"/>
<path d="M 73.88 384.12 C 74.77 377.02 74.10 352.48 73.88 346.12 C 73.65 339.77 74.54 345.40 72.50 346.00 C 70.46 346.60 64.88 348.75 61.62 349.75 C 58.38 350.75 55.67 351.17 53.00 352.00 C 50.33 352.83 48.06 353.98 45.62 354.75 C 43.19 355.52 41.19 356.08 38.38 356.62 C 35.56 357.17 30.81 357.52 28.75 358.00 C 26.69 358.48 26.46 358.79 26.00 359.50 C 25.54 360.21 25.83 361.35 26.00 362.25 C 26.17 363.15 25.90 363.23 27.00 364.88 C 28.10 366.52 30.85 370.12 32.62 372.12 C 34.40 374.12 35.48 375.10 37.62 376.88 C 39.77 378.65 43.06 381.12 45.50 382.75 C 47.94 384.38 49.75 385.48 52.25 386.62 C 54.75 387.77 58.29 389.08 60.50 389.62 C 62.71 390.17 64.17 390.02 65.50 389.88 C 66.83 389.73 67.10 389.71 68.50 388.75 C 69.90 387.79 72.98 391.23 73.88 384.12 Z" id="s-3-f-3"/>
</g>
<g id="s-4" clip-path="url(#c-s-4)">
<use href="#s-4-f-0"/>
<path d="M 269.12 42.12 C 268.21 42.38 268.19 42.65 268.00 43.50 C 267.81 44.35 267.38 45.71 268.00 47.25 C 268.62 48.79 270.48 50.56 271.75 52.75 C 273.02 54.94 273.75 56.27 275.62 60.38 C 277.50 64.48 280.77 72.52 283.00 77.38 C 285.23 82.23 287.60 87.40 289.00 89.50 C 290.40 91.60 287.10 89.92 291.38 90.00 C 295.65 90.08 310.62 90.08 314.62 90.00 C 318.62 89.92 314.85 90.79 315.38 89.50 C 315.90 88.21 317.19 84.44 317.75 82.25 C 318.31 80.06 318.56 78.48 318.75 76.38 C 318.94 74.27 318.90 71.08 318.88 69.62 C 318.85 68.17 318.96 68.67 318.62 67.62 C 318.29 66.58 317.60 64.65 316.88 63.38 C 316.15 62.10 315.71 61.38 314.25 60.00 C 312.79 58.62 311.15 56.96 308.12 55.12 C 305.10 53.29 300.98 51.02 296.12 49.00 C 291.27 46.98 282.77 44.17 279.00 43.00 C 275.23 41.83 275.15 42.15 273.50 42.00 C 271.85 41.85 270.04 41.88 269.12 42.12 Z" id="s-4-f-1"/>
</g>
<g id="s-5" clip-path="url(#c-s-5)">
<use href="#s-5-f-0"/>
<path d="M 358.75 86.75 C 358.60 82.67 359.83 85.88 358.00 86.38 C 356.17 86.88 351.40 88.69 347.75 89.75 C 344.10 90.81 342.12 91.46 336.12 92.75 C 330.12 94.04 316.52 96.69 311.75 97.50 C 306.98 98.31 308.46 97.44 307.50 97.62 C 306.54 97.81 306.69 98.46 306.00 98.62 C 305.31 98.79 304.08 98.50 303.38 98.62 C 302.67 98.75 302.54 99.19 301.75 99.38 C 300.96 99.56 299.54 99.50 298.62 99.75 C 297.71 100.00 302.88 99.73 296.25 100.88 C 289.62 102.02 271.75 104.92 258.88 106.62 C 246.00 108.33 226.23 110.10 219.00 111.12 C 211.77 112.15 216.19 112.35 215.50 112.75 C 214.81 113.15 214.98 113.23 214.88 113.50 C 214.77 113.77 214.62 113.77 214.88 114.38 C 215.12 114.98 215.62 116.17 216.38 117.12 C 217.12 118.08 218.31 119.23 219.38 120.12 C 220.44 121.02 221.71 121.90 222.75 122.50 C 223.79 123.10 223.44 123.21 225.62 123.75 C 227.81 124.29 231.85 125.38 235.88 125.75 C 239.90 126.12 243.04 126.35 249.75 126.00 C 256.46 125.65 263.46 125.12 276.12 123.62 C 288.79 122.12 317.06 118.10 325.75 117.00 C 334.44 115.90 322.88 117.90 328.25 117.00 C 333.62 116.10 352.90 112.65 358.00 111.62 C 363.10 110.60 358.75 115.02 358.88 110.88 C 359.00 106.73 358.90 90.83 358.75 86.75 Z" id="s-5-f-1"/>
<path d="M 310.75 98.12 C 310.54 94.77 310.04 97.58 309.50 97.50 C 308.96 97.42 308.08 97.44 307.50 97.62 C 306.92 97.81 306.69 98.46 306.00 98.62 C 305.31 98.79 304.08 98.50 303.38 98.62 C 302.67 98.75 302.54 99.19 301.75 99.38 C 300.96 99.56 299.54 99.50 298.62 99.75 C 297.71 100.00 302.88 99.73 296.25 100.88 C 289.62 102.02 271.75 104.92 258.88 106.62 C 246.00 108.33 226.23 110.10 219.00 111.12 C 211.77 112.15 216.19 112.35 215.50 112.75 C 214.81 113.15 214.98 113.23 214.88 113.50 C 214.77 113.77 214.62 113.77 214.88 114.38 C 215.12 114.98 215.62 116.17 216.38 117.12 C 217.12 118.08 218.27 119.21 219.38 120.12 C 220.48 121.04 221.44 121.88 223.00 122.62 C 224.56 123.38 225.98 124.06 228.75 124.62 C 231.52 125.19 236.12 125.77 239.62 126.00 C 243.12 126.23 245.44 126.21 249.75 126.00 C 254.06 125.79 255.40 125.90 265.50 124.75 C 275.60 123.60 302.83 120.31 310.38 119.12 C 317.92 117.94 310.69 121.12 310.75 117.62 C 310.81 114.12 310.96 101.48 310.75 98.12 Z" id="s-5-f-2"/>
<path d="M 263.00 124.50 C 263.21 121.40 263.00 109.46 262.88 106.38 C 262.75 103.29 264.54 105.75 262.25 106.00 C 259.96 106.25 255.46 107.17 249.12 107.88 C 242.79 108.58 229.27 109.71 224.25 110.25 C 219.23 110.79 220.31 110.81 219.00 111.12 C 217.69 111.44 217.06 111.73 216.38 112.12 C 215.69 112.52 215.00 112.83 214.88 113.50 C 214.75 114.17 214.88 115.02 215.62 116.12 C 216.38 117.23 218.15 119.04 219.38 120.12 C 220.60 121.21 221.44 121.88 223.00 122.62 C 224.56 123.38 225.98 124.06 228.75 124.62 C 231.52 125.19 236.12 125.77 239.62 126.00 C 243.12 126.23 246.08 126.17 249.75 126.00 C 253.42 125.83 259.42 125.25 261.62 125.00 C 263.83 124.75 262.79 127.60 263.00 124.50 Z" id="s-5-f-3"/>
</g>
<g id="s-6" clip-path="url(#c-s-6)">
<use href="#s-6-f-0"/>
<path d="M 239.38 125.50 C 237.48 125.75 238.06 124.52 239.12 127.25 C 240.19 129.98 243.60 136.23 245.75 141.88 C 247.90 147.52 250.17 155.83 252.00 161.12 C 253.83 166.42 252.31 171.48 256.75 173.62 C 261.19 175.77 274.85 174.08 278.62 174.00 C 282.40 173.92 279.19 173.56 279.38 173.12 C 279.56 172.69 279.73 173.52 279.75 171.38 C 279.77 169.23 279.69 162.77 279.50 160.25 C 279.31 157.73 279.10 157.81 278.62 156.25 C 278.15 154.69 277.62 152.85 276.62 150.88 C 275.62 148.90 274.75 146.94 272.62 144.38 C 270.50 141.81 266.71 138.02 263.88 135.50 C 261.04 132.98 257.71 130.69 255.62 129.25 C 253.54 127.81 252.23 127.46 251.38 126.88 C 250.52 126.29 252.50 125.98 250.50 125.75 C 248.50 125.52 241.27 125.25 239.38 125.50 Z" id="s-6-f-1"/>
</g>
<g id="s-7" clip-path="url(#c-s-7)">
<use href="#s-7-f-0"/>
<path d="M 345.88 113.75 C 345.06 113.56 343.00 113.52 342.00 113.62 C 341.00 113.73 340.90 114.21 339.88 114.38 C 338.85 114.54 336.88 114.46 335.88 114.62 C 334.88 114.79 334.98 115.19 333.88 115.38 C 332.77 115.56 330.42 115.50 329.25 115.75 C 328.08 116.00 326.98 115.00 326.88 116.88 C 326.77 118.75 328.31 124.42 328.62 127.00 C 328.94 129.58 329.06 129.35 328.75 132.38 C 328.44 135.40 327.75 140.29 326.75 145.12 C 325.75 149.96 323.35 158.58 322.75 161.38 C 322.15 164.17 319.98 161.79 323.12 161.88 C 326.27 161.96 336.67 164.79 341.62 161.88 C 346.58 158.96 350.27 148.77 352.88 144.38 C 355.48 139.98 355.77 137.79 357.25 135.50 C 358.73 133.21 361.02 131.96 361.75 130.62 C 362.48 129.29 362.06 128.69 361.62 127.50 C 361.19 126.31 360.60 125.08 359.12 123.50 C 357.65 121.92 354.60 119.42 352.75 118.00 C 350.90 116.58 348.98 115.54 348.00 115.00 C 347.02 114.46 347.23 114.96 346.88 114.75 C 346.52 114.54 346.69 113.94 345.88 113.75 Z" id="s-7-f-1"/>
</g>
<g id="s-8" clip-path="url(#c-s-8)">
<use href="#s-8-f-0"/>
<path d="M 421.88 164.00 C 421.75 160.29 422.40 163.29 421.25 163.12 C 420.10 162.96 419.00 162.52 415.00 163.00 C 411.00 163.48 402.17 165.04 397.25 166.00 C 392.33 166.96 396.27 166.98 385.50 168.75 C 374.73 170.52 342.29 175.31 332.62 176.62 C 322.96 177.94 328.67 176.50 327.50 176.62 C 326.33 176.75 326.79 177.19 325.62 177.38 C 324.46 177.56 321.88 177.50 320.50 177.75 C 319.12 178.00 324.83 177.71 317.38 178.88 C 309.92 180.04 283.33 183.79 275.75 184.75 C 268.17 185.71 272.90 184.50 271.88 184.62 C 270.85 184.75 270.60 185.33 269.62 185.50 C 268.65 185.67 267.15 185.42 266.00 185.62 C 264.85 185.83 274.73 185.17 262.75 186.75 C 250.77 188.33 206.48 193.58 194.12 195.12 C 181.77 196.67 190.17 195.65 188.62 196.00 C 187.08 196.35 185.94 196.73 184.88 197.25 C 183.81 197.77 182.75 198.60 182.25 199.12 C 181.75 199.65 181.79 199.85 181.88 200.38 C 181.96 200.90 182.17 201.54 182.75 202.25 C 183.33 202.96 184.35 203.88 185.38 204.62 C 186.40 205.38 186.83 205.73 188.88 206.75 C 190.92 207.77 195.29 209.77 197.62 210.75 C 199.96 211.73 201.21 212.15 202.88 212.62 C 204.54 213.10 205.73 213.42 207.62 213.62 C 209.52 213.83 210.29 214.46 214.25 213.88 C 218.21 213.29 221.29 212.10 231.38 210.12 C 241.46 208.15 263.42 204.02 274.75 202.00 C 286.08 199.98 291.54 199.17 299.38 198.00 C 307.21 196.83 309.08 196.33 321.75 195.00 C 334.42 193.67 361.31 191.17 375.38 190.00 C 389.44 188.83 398.48 188.40 406.12 188.00 C 413.77 187.60 418.62 187.79 421.25 187.62 C 423.88 187.46 421.75 187.38 421.88 187.00 C 422.00 186.62 422.00 189.21 422.00 185.38 C 422.00 181.54 422.00 167.71 421.88 164.00 Z" id="s-8-f-1"/>
<path d="M 374.00 172.25 C 373.90 169.31 374.02 171.08 373.38 170.88 C 372.73 170.67 376.92 170.04 370.12 171.00 C 363.33 171.96 339.73 175.69 332.62 176.62 C 325.52 177.56 328.67 176.50 327.50 176.62 C 326.33 176.75 326.79 177.19 325.62 177.38 C 324.46 177.56 321.88 177.50 320.50 177.75 C 319.12 178.00 324.83 177.71 317.38 178.88 C 309.92 180.04 283.33 183.79 275.75 184.75 C 268.17 185.71 272.90 184.50 271.88 184.62 C 270.85 184.75 270.60 185.33 269.62 185.50 C 268.65 185.67 267.15 185.42 266.00 185.62 C 264.85 185.83 274.73 185.17 262.75 186.75 C 250.77 188.33 206.48 193.58 194.12 195.12 C 181.77 196.67 190.17 195.65 188.62 196.00 C 187.08 196.35 185.94 196.73 184.88 197.25 C 183.81 197.77 182.75 198.60 182.25 199.12 C 181.75 199.65 181.79 199.85 181.88 200.38 C 181.96 200.90 181.88 201.35 182.75 202.25 C 183.62 203.15 184.33 204.21 187.12 205.75 C 189.92 207.29 195.96 210.17 199.50 211.50 C 203.04 212.83 205.65 213.38 208.38 213.75 C 211.10 214.12 212.04 214.35 215.88 213.75 C 219.71 213.15 224.38 211.58 231.38 210.12 C 238.38 208.67 246.54 207.02 257.88 205.00 C 269.21 202.98 288.73 199.67 299.38 198.00 C 310.02 196.33 309.42 196.29 321.75 195.00 C 334.08 193.71 364.67 191.33 373.38 190.25 C 382.08 189.17 373.90 191.50 374.00 188.50 C 374.10 185.50 374.10 175.19 374.00 172.25 Z" id="s-8-f-2"/>
<path d="M 325.88 177.62 C 325.08 175.04 322.67 177.42 321.25 177.62 C 319.83 177.83 324.96 177.69 317.38 178.88 C 309.79 180.06 283.33 183.79 275.75 184.75 C 268.17 185.71 272.90 184.50 271.88 184.62 C 270.85 184.75 270.60 185.33 269.62 185.50 C 268.65 185.67 267.15 185.42 266.00 185.62 C 264.85 185.83 275.52 185.04 262.75 186.75 C 249.98 188.46 202.60 194.00 189.38 195.88 C 176.15 197.75 184.56 197.46 183.38 198.00 C 182.19 198.54 182.50 198.73 182.25 199.12 C 182.00 199.52 181.79 199.85 181.88 200.38 C 181.96 200.90 181.88 201.35 182.75 202.25 C 183.62 203.15 184.33 204.21 187.12 205.75 C 189.92 207.29 195.96 210.17 199.50 211.50 C 203.04 212.83 205.65 213.38 208.38 213.75 C 211.10 214.12 212.04 214.35 215.88 213.75 C 219.71 213.15 220.60 212.25 231.38 210.12 C 242.15 208.00 268.02 203.19 280.50 201.00 C 292.98 198.81 298.75 198.04 306.25 197.00 C 313.75 195.96 322.21 195.40 325.50 194.75 C 328.79 194.10 325.94 195.98 326.00 193.12 C 326.06 190.27 326.67 180.21 325.88 177.62 Z" id="s-8-f-3"/>
<path d="M 278.00 186.00 C 277.96 183.52 277.92 185.25 277.75 185.00 C 277.58 184.75 277.98 184.56 277.00 184.50 C 276.02 184.44 273.10 184.46 271.88 184.62 C 270.65 184.79 270.60 185.33 269.62 185.50 C 268.65 185.67 267.15 185.42 266.00 185.62 C 264.85 185.83 274.88 185.15 262.75 186.75 C 250.62 188.35 205.60 193.71 193.25 195.25 C 180.90 196.79 190.02 195.67 188.62 196.00 C 187.23 196.33 185.94 196.73 184.88 197.25 C 183.81 197.77 182.75 198.60 182.25 199.12 C 181.75 199.65 181.79 199.85 181.88 200.38 C 181.96 200.90 182.17 201.54 182.75 202.25 C 183.33 202.96 184.35 203.88 185.38 204.62 C 186.40 205.38 186.83 205.73 188.88 206.75 C 190.92 207.77 195.29 209.77 197.62 210.75 C 199.96 211.73 201.08 212.12 202.88 212.62 C 204.67 213.12 206.21 213.56 208.38 213.75 C 210.54 213.94 212.04 214.35 215.88 213.75 C 219.71 213.15 221.12 212.12 231.38 210.12 C 241.62 208.12 269.60 203.46 277.38 201.75 C 285.15 200.04 277.90 202.50 278.00 199.88 C 278.10 197.25 278.04 188.48 278.00 186.00 Z" id="s-8-f-4"/>
<path d="M 230.00 191.38 C 229.65 188.15 234.40 190.25 227.62 191.00 C 220.85 191.75 196.75 194.71 189.38 195.88 C 182.00 197.04 184.56 197.46 183.38 198.00 C 182.19 198.54 182.50 198.69 182.25 199.12 C 182.00 199.56 181.60 199.92 181.88 200.62 C 182.15 201.33 183.00 202.52 183.88 203.38 C 184.75 204.23 184.46 204.38 187.12 205.75 C 189.79 207.12 196.33 210.29 199.88 211.62 C 203.42 212.96 205.71 213.40 208.38 213.75 C 211.04 214.10 212.31 214.31 215.88 213.75 C 219.44 213.19 227.40 214.10 229.75 210.38 C 232.10 206.65 230.35 194.60 230.00 191.38 Z" id="s-8-f-5"/>
</g>
<g id="s-9" clip-path="url(#c-s-9)">
<use href="#s-9-f-0"/>
<path d="M 213.00 235.25 C 212.44 235.67 211.58 236.38 211.25 237.38 C 210.92 238.38 210.08 239.52 211.00 241.25 C 211.92 242.98 215.31 245.79 216.75 247.75 C 218.19 249.71 218.46 249.35 219.62 253.00 C 220.79 256.65 222.73 264.69 223.75 269.62 C 224.77 274.56 225.21 278.10 225.75 282.62 C 226.29 287.15 226.10 289.58 227.00 296.75 C 227.90 303.92 230.23 320.02 231.12 325.62 C 232.02 331.23 231.90 329.48 232.38 330.38 C 232.85 331.27 231.46 330.92 234.00 331.00 C 236.54 331.08 245.29 331.06 247.62 330.88 C 249.96 330.69 247.98 333.65 248.00 329.88 C 248.02 326.10 248.08 314.79 247.75 308.25 C 247.42 301.71 246.33 294.73 246.00 290.62 C 245.67 286.52 246.25 288.06 245.75 283.62 C 245.25 279.19 243.50 269.52 243.00 264.00 C 242.50 258.48 244.90 254.83 242.75 250.50 C 240.60 246.17 233.08 240.40 230.12 238.00 C 227.17 235.60 226.60 236.60 225.00 236.12 C 223.40 235.65 222.23 235.33 220.50 235.12 C 218.77 234.92 215.88 234.85 214.62 234.88 C 213.38 234.90 213.56 234.83 213.00 235.25 Z" id="s-9-f-1"/>
<path d="M 213.00 235.25 C 212.46 235.67 211.58 236.38 211.25 237.38 C 210.92 238.38 210.08 239.52 211.00 241.25 C 211.92 242.98 215.27 245.69 216.75 247.75 C 218.23 249.81 218.71 249.98 219.88 253.62 C 221.04 257.27 222.77 264.81 223.75 269.62 C 224.73 274.44 224.44 280.27 225.75 282.50 C 227.06 284.73 228.40 282.96 231.62 283.00 C 234.85 283.04 242.88 283.56 245.12 282.75 C 247.38 281.94 245.48 281.25 245.12 278.12 C 244.77 275.00 243.40 268.60 243.00 264.00 C 242.60 259.40 244.90 254.83 242.75 250.50 C 240.60 246.17 233.08 240.40 230.12 238.00 C 227.17 235.60 226.60 236.60 225.00 236.12 C 223.40 235.65 222.25 235.33 220.50 235.12 C 218.75 234.92 215.75 234.85 214.50 234.88 C 213.25 234.90 213.54 234.83 213.00 235.25 Z" id="s-9-f-2"/>
</g>
<g id="s-10" clip-path="url(#c-s-10)">
<use href="#s-10-f-0"/>
<path d="M 402.88 234.25 C 402.33 232.90 400.90 231.44 399.12 229.88 C 397.35 228.31 394.27 226.19 392.25 224.88 C 390.23 223.56 390.40 223.62 387.00 222.00 C 383.60 220.38 375.00 216.46 371.88 215.12 C 368.75 213.79 370.02 214.17 368.25 214.00 C 366.48 213.83 366.88 213.00 361.25 214.12 C 355.62 215.25 346.52 218.15 334.50 220.75 C 322.48 223.35 303.38 227.25 289.12 229.75 C 274.88 232.25 258.38 234.48 249.00 235.75 C 239.62 237.02 236.10 236.92 232.88 237.38 C 229.65 237.83 228.08 236.23 229.62 238.50 C 231.17 240.77 238.02 249.42 242.12 251.00 C 246.23 252.58 243.25 250.00 254.25 248.00 C 265.25 246.00 293.29 241.15 308.12 239.00 C 322.96 236.85 336.27 235.79 343.25 235.12 C 350.23 234.46 348.21 234.83 350.00 235.00 C 351.79 235.17 352.92 235.58 354.00 236.12 C 355.08 236.67 355.88 237.31 356.50 238.25 C 357.12 239.19 357.56 239.69 357.75 241.75 C 357.94 243.81 358.12 244.73 357.62 250.62 C 357.12 256.52 355.38 272.35 354.75 277.12 C 354.12 281.90 354.40 276.38 353.88 279.25 C 353.35 282.12 352.46 289.88 351.62 294.38 C 350.79 298.88 349.67 303.44 348.88 306.25 C 348.08 309.06 347.42 308.88 346.88 311.25 C 346.33 313.62 345.52 318.88 345.62 320.50 C 345.73 322.12 343.33 320.92 347.50 321.00 C 351.67 321.08 366.58 321.19 370.62 321.00 C 374.67 320.81 370.06 324.00 371.75 319.88 C 373.44 315.75 376.69 307.98 380.75 296.25 C 384.81 284.52 393.10 258.35 396.12 249.50 C 399.15 240.65 397.83 245.04 398.88 243.12 C 399.92 241.21 401.71 239.48 402.38 238.00 C 403.04 236.52 403.42 235.60 402.88 234.25 Z" id="s-10-f-1"/>
<path d="M 402.88 234.12 C 402.67 233.08 402.10 232.73 401.12 231.75 C 400.15 230.77 398.48 229.40 397.00 228.25 C 395.52 227.10 394.23 226.08 392.25 224.88 C 390.27 223.67 388.52 222.62 385.12 221.00 C 381.73 219.38 374.69 216.29 371.88 215.12 C 369.06 213.96 370.02 214.17 368.25 214.00 C 366.48 213.83 366.88 213.00 361.25 214.12 C 355.62 215.25 346.52 218.15 334.50 220.75 C 322.48 223.35 303.38 227.25 289.12 229.75 C 274.88 232.25 258.38 234.48 249.00 235.75 C 239.62 237.02 236.10 236.92 232.88 237.38 C 229.65 237.83 228.08 236.23 229.62 238.50 C 231.17 240.77 238.02 249.42 242.12 251.00 C 246.23 252.58 243.25 250.00 254.25 248.00 C 265.25 246.00 293.29 241.15 308.12 239.00 C 322.96 236.85 336.17 235.77 343.25 235.12 C 350.33 234.48 348.62 234.83 350.62 235.12 C 352.62 235.42 354.21 236.25 355.25 236.88 C 356.29 237.50 356.46 238.06 356.88 238.88 C 357.29 239.69 357.67 239.21 357.75 241.75 C 357.83 244.29 357.75 248.96 357.38 254.12 C 357.00 259.29 350.38 269.62 355.50 272.75 C 360.62 275.88 382.58 272.96 388.12 272.88 C 393.67 272.79 387.42 276.15 388.75 272.25 C 390.08 268.35 394.40 254.44 396.12 249.50 C 397.85 244.56 398.33 244.08 399.12 242.62 C 399.92 241.17 400.33 241.52 400.88 240.75 C 401.42 239.98 402.04 239.10 402.38 238.00 C 402.71 236.90 403.08 235.17 402.88 234.12 Z" id="s-10-f-2"/>
<path d="M 391.25 224.38 C 389.67 223.33 384.48 220.67 381.25 219.12 C 378.02 217.58 374.04 215.98 371.88 215.12 C 369.71 214.27 369.85 214.19 368.25 214.00 C 366.65 213.81 367.08 213.04 362.25 214.00 C 357.42 214.96 351.42 217.12 339.25 219.75 C 327.08 222.38 304.29 227.08 289.25 229.75 C 274.21 232.42 258.40 234.48 249.00 235.75 C 239.60 237.02 236.10 236.92 232.88 237.38 C 229.65 237.83 228.08 236.23 229.62 238.50 C 231.17 240.77 238.02 249.42 242.12 251.00 C 246.23 252.58 243.25 250.00 254.25 248.00 C 265.25 246.00 294.94 241.00 308.12 239.00 C 321.31 237.00 326.50 236.71 333.38 236.00 C 340.25 235.29 339.81 236.52 349.38 234.75 C 358.94 232.98 383.77 227.10 390.75 225.38 C 397.73 223.65 392.83 225.42 391.25 224.38 Z" id="s-10-f-3"/>
<path d="M 373.88 216.25 C 372.92 213.94 370.19 214.38 368.25 214.00 C 366.31 213.62 367.08 213.04 362.25 214.00 C 357.42 214.96 351.42 217.12 339.25 219.75 C 327.08 222.38 304.29 227.08 289.25 229.75 C 274.21 232.42 258.40 234.48 249.00 235.75 C 239.60 237.02 236.10 236.92 232.88 237.38 C 229.65 237.83 228.08 236.23 229.62 238.50 C 231.17 240.77 238.02 249.42 242.12 251.00 C 246.23 252.58 243.25 250.00 254.25 248.00 C 265.25 246.00 294.94 241.00 308.12 239.00 C 321.31 237.00 326.50 236.71 333.38 236.00 C 340.25 235.29 342.69 235.88 349.38 234.75 C 356.06 233.62 369.40 230.40 373.50 229.25 C 377.60 228.10 373.94 230.04 374.00 227.88 C 374.06 225.71 374.83 218.56 373.88 216.25 Z" id="s-10-f-4"/>
<path d="M 325.88 223.00 C 325.79 220.73 328.06 222.17 325.50 222.62 C 322.94 223.08 318.60 224.23 310.50 225.75 C 302.40 227.27 287.12 230.08 276.88 231.75 C 266.62 233.42 256.67 234.75 249.00 235.75 C 241.33 236.75 234.10 237.29 230.88 237.75 C 227.65 238.21 227.75 236.29 229.62 238.50 C 231.50 240.71 239.67 248.96 242.12 251.00 C 244.58 253.04 242.35 251.25 244.38 250.75 C 246.40 250.25 248.92 249.12 254.25 248.00 C 259.58 246.88 267.40 245.50 276.38 244.00 C 285.35 242.50 299.98 240.17 308.12 239.00 C 316.27 237.83 322.27 237.46 325.25 237.00 C 328.23 236.54 325.90 238.58 326.00 236.25 C 326.10 233.92 325.96 225.27 325.88 223.00 Z" id="s-10-f-5"/>
<path d="M 278.00 232.75 C 278.00 230.79 277.94 232.17 277.75 232.00 C 277.56 231.83 281.67 231.12 276.88 231.75 C 272.08 232.38 256.33 234.81 249.00 235.75 C 241.67 236.69 236.10 236.92 232.88 237.38 C 229.65 237.83 228.08 236.23 229.62 238.50 C 231.17 240.77 238.00 249.42 242.12 251.00 C 246.25 252.58 248.44 249.21 254.38 248.00 C 260.31 246.79 273.81 246.29 277.75 243.75 C 281.69 241.21 278.00 234.71 278.00 232.75 Z" id="s-10-f-6"/>
</g>
<g id="s-11" clip-path="url(#c-s-11)">
<use href="#s-11-f-0"/>
<path d="M 340.50 264.88 C 340.38 262.12 340.62 264.15 340.12 263.88 C 339.62 263.60 339.35 263.40 337.50 263.25 C 335.65 263.10 337.44 261.75 329.00 263.00 C 320.56 264.25 300.54 268.58 286.88 270.75 C 273.21 272.92 254.06 274.92 247.00 276.00 C 239.94 277.08 244.90 276.10 244.50 277.25 C 244.10 278.40 244.42 280.94 244.62 282.88 C 244.83 284.81 244.77 287.73 245.75 288.88 C 246.73 290.02 246.85 289.62 250.50 289.75 C 254.15 289.88 258.65 290.31 267.62 289.62 C 276.60 288.94 298.02 286.38 304.38 285.62 C 310.73 284.88 303.04 285.46 305.75 285.12 C 308.46 284.79 314.88 284.33 320.62 283.62 C 326.38 282.92 336.88 281.42 340.25 280.88 C 343.62 280.33 340.83 283.04 340.88 280.38 C 340.92 277.71 340.62 267.62 340.50 264.88 Z" id="s-11-f-1"/>
<path d="M 292.38 270.88 C 292.19 268.94 292.15 270.15 291.75 270.00 C 291.35 269.85 294.23 269.38 290.00 270.00 C 285.77 270.62 273.62 272.73 266.38 273.75 C 259.12 274.77 250.15 275.54 246.50 276.12 C 242.85 276.71 244.79 275.88 244.50 277.25 C 244.21 278.62 244.56 282.46 244.75 284.38 C 244.94 286.29 244.67 287.85 245.62 288.75 C 246.58 289.65 247.27 289.58 250.50 289.75 C 253.73 289.92 258.02 290.23 265.00 289.75 C 271.98 289.27 287.73 288.23 292.38 286.88 C 297.02 285.52 292.88 284.29 292.88 281.62 C 292.88 278.96 292.56 272.81 292.38 270.88 Z" id="s-11-f-2"/>
</g>
<g id="s-12" clip-path="url(#c-s-12)">
<use href="#s-12-f-0"/>
<path d="M 344.00 311.25 C 343.90 308.88 344.58 310.65 343.38 310.12 C 342.17 309.60 339.31 308.48 336.75 308.12 C 334.19 307.77 336.62 306.90 328.00 308.00 C 319.38 309.10 298.29 312.94 285.00 314.75 C 271.71 316.56 254.50 318.12 248.25 318.88 C 242.00 319.62 247.62 316.81 247.50 319.25 C 247.38 321.69 247.42 331.06 247.50 333.50 C 247.58 335.94 246.52 333.79 248.00 333.88 C 249.48 333.96 251.35 334.15 256.38 334.00 C 261.40 333.85 272.33 333.38 278.12 333.00 C 283.92 332.62 287.02 332.25 291.12 331.75 C 295.23 331.25 295.98 330.73 302.75 330.00 C 309.52 329.27 324.98 327.90 331.75 327.38 C 338.52 326.85 341.33 327.38 343.38 326.88 C 345.42 326.38 343.90 326.98 344.00 324.38 C 344.10 321.77 344.10 313.62 344.00 311.25 Z" id="s-12-f-1"/>
<path d="M 295.75 313.62 C 295.54 310.75 297.81 312.77 294.75 313.12 C 291.69 313.48 285.12 314.79 277.38 315.75 C 269.62 316.71 253.23 318.29 248.25 318.88 C 243.27 319.46 247.62 316.81 247.50 319.25 C 247.38 321.69 247.42 331.06 247.50 333.50 C 247.58 335.94 246.54 333.79 248.00 333.88 C 249.46 333.96 251.21 334.15 256.25 334.00 C 261.29 333.85 271.73 333.50 278.25 333.00 C 284.77 332.50 292.42 331.44 295.38 331.00 C 298.33 330.56 295.94 333.27 296.00 330.38 C 296.06 327.48 295.96 316.50 295.75 313.62 Z" id="s-12-f-2"/>
</g>
<g id="s-13" clip-path="url(#c-s-13)">
<use href="#s-13-f-0"/>
<path d="M 283.00 336.50 C 281.62 335.27 281.25 333.12 277.62 332.50 C 274.00 331.88 265.69 332.52 261.25 332.75 C 256.81 332.98 252.71 333.48 251.00 333.88 C 249.29 334.27 250.71 334.02 251.00 335.12 C 251.29 336.23 252.48 338.81 252.75 340.50 C 253.02 342.19 252.79 343.50 252.62 345.25 C 252.46 347.00 252.40 348.40 251.75 351.00 C 251.10 353.60 250.08 357.52 248.75 360.88 C 247.42 364.23 246.42 366.42 243.75 371.12 C 241.08 375.83 236.23 383.96 232.75 389.12 C 229.27 394.29 225.79 398.56 222.88 402.12 C 219.96 405.69 219.00 406.75 215.25 410.50 C 211.50 414.25 203.54 421.73 200.38 424.62 C 197.21 427.52 197.00 427.19 196.25 427.88 C 195.50 428.56 191.71 428.58 195.88 428.75 C 200.04 428.92 215.98 429.69 221.25 428.88 C 226.52 428.06 224.17 426.90 227.50 423.88 C 230.83 420.85 236.88 415.38 241.25 410.75 C 245.62 406.12 249.83 401.19 253.75 396.12 C 257.67 391.06 261.50 385.46 264.75 380.38 C 268.00 375.29 270.90 369.17 273.25 365.62 C 275.60 362.08 276.98 361.50 278.88 359.12 C 280.77 356.75 283.15 353.19 284.62 351.38 C 286.10 349.56 287.25 349.56 287.75 348.25 C 288.25 346.94 287.94 344.90 287.62 343.50 C 287.31 342.10 286.65 341.04 285.88 339.88 C 285.10 338.71 284.38 337.73 283.00 336.50 Z" id="s-13-f-1"/>
<path d="M 284.38 337.88 C 283.00 336.50 281.60 333.75 278.38 332.88 C 275.15 332.00 269.52 332.50 265.00 332.62 C 260.48 332.75 253.58 333.21 251.25 333.62 C 248.92 334.04 250.75 333.98 251.00 335.12 C 251.25 336.27 252.46 339.04 252.75 340.50 C 253.04 341.96 252.92 342.10 252.75 343.88 C 252.58 345.65 252.08 349.29 251.75 351.12 C 251.42 352.96 251.42 352.85 250.75 354.88 C 250.08 356.90 248.92 360.54 247.75 363.25 C 246.58 365.96 245.35 368.23 243.75 371.12 C 242.15 374.02 238.73 378.98 238.12 380.62 C 237.52 382.27 235.79 380.96 240.12 381.00 C 244.46 381.04 260.00 381.00 264.12 380.88 C 268.25 380.75 263.56 382.50 264.88 380.25 C 266.19 378.00 270.46 370.02 272.00 367.38 C 273.54 364.73 272.98 365.75 274.12 364.38 C 275.27 363.00 277.12 361.29 278.88 359.12 C 280.62 356.96 283.15 353.19 284.62 351.38 C 286.10 349.56 287.25 349.56 287.75 348.25 C 288.25 346.94 287.81 344.69 287.62 343.50 C 287.44 342.31 287.17 342.06 286.62 341.12 C 286.08 340.19 285.75 339.25 284.38 337.88 Z" id="s-13-f-2"/>
</g>
<g id="s-14" clip-path="url(#c-s-14)">
<use href="#s-14-f-0"/>
<path d="M 303.88 330.12 C 303.92 332.94 304.56 333.65 304.75 346.38 C 304.94 359.10 304.77 395.02 305.00 406.50 C 305.23 417.98 305.60 412.56 306.12 415.25 C 306.65 417.94 307.31 420.27 308.12 422.62 C 308.94 424.98 309.60 427.04 311.00 429.38 C 312.40 431.71 314.54 434.56 316.50 436.62 C 318.46 438.69 320.21 440.06 322.75 441.75 C 325.29 443.44 329.04 445.44 331.75 446.75 C 334.46 448.06 336.69 448.81 339.00 449.62 C 341.31 450.44 342.81 450.94 345.62 451.62 C 348.44 452.31 351.96 453.08 355.88 453.75 C 359.79 454.42 364.96 455.15 369.12 455.62 C 373.29 456.10 374.77 456.44 380.88 456.62 C 386.98 456.81 398.42 457.08 405.75 456.75 C 413.08 456.42 418.90 455.62 424.88 454.62 C 430.85 453.62 436.52 452.40 441.62 450.75 C 446.73 449.10 452.08 446.42 455.50 444.75 C 458.92 443.08 459.96 442.35 462.12 440.75 C 464.29 439.15 466.75 437.48 468.50 435.12 C 470.25 432.77 471.92 428.94 472.62 426.62 C 473.33 424.31 472.90 422.75 472.75 421.25 C 472.60 419.75 472.67 419.81 471.75 417.62 C 470.83 415.44 468.88 412.35 467.25 408.12 C 465.62 403.90 463.21 397.23 462.00 392.25 C 460.79 387.27 460.46 380.67 460.00 378.25 C 459.54 375.83 461.38 377.83 459.25 377.75 C 457.12 377.67 449.46 377.67 447.25 377.75 C 445.04 377.83 446.75 375.23 446.00 378.25 C 445.25 381.27 443.65 391.94 442.75 395.88 C 441.85 399.81 441.44 400.00 440.62 401.88 C 439.81 403.75 439.33 404.98 437.88 407.12 C 436.42 409.27 433.60 412.81 431.88 414.75 C 430.15 416.69 429.79 417.10 427.50 418.75 C 425.21 420.40 421.54 423.29 418.12 424.62 C 414.71 425.96 410.60 426.25 407.00 426.75 C 403.40 427.25 403.00 427.52 396.50 427.62 C 390.00 427.73 374.29 427.52 368.00 427.38 C 361.71 427.23 361.35 427.02 358.75 426.75 C 356.15 426.48 354.54 426.25 352.38 425.75 C 350.21 425.25 348.27 424.75 345.75 423.75 C 343.23 422.75 339.42 420.98 337.25 419.75 C 335.08 418.52 333.96 417.56 332.75 416.38 C 331.54 415.19 330.79 414.00 330.00 412.62 C 329.21 411.25 328.50 410.12 328.00 408.12 C 327.50 406.12 327.12 404.67 327.00 400.62 C 326.88 396.58 326.92 389.94 327.25 383.88 C 327.58 377.81 328.21 370.27 329.00 364.25 C 329.79 358.23 331.04 351.48 332.00 347.75 C 332.96 344.02 334.31 343.44 334.75 341.88 C 335.19 340.31 335.15 339.75 334.62 338.38 C 334.10 337.00 333.21 335.40 331.62 333.62 C 330.04 331.85 327.21 328.75 325.12 327.75 C 323.04 326.75 320.60 327.52 319.12 327.62 C 317.65 327.73 318.17 328.19 316.25 328.38 C 314.33 328.56 309.58 328.56 307.62 328.75 C 305.67 328.94 305.12 329.27 304.50 329.50 C 303.88 329.73 303.83 327.31 303.88 330.12 Z" id="s-14-f-1"/>
<path d="M 303.88 330.12 C 303.94 332.96 304.56 333.77 304.75 346.50 C 304.94 359.23 304.77 395.04 305.00 406.50 C 305.23 417.96 305.60 412.56 306.12 415.25 C 306.65 417.94 307.31 420.27 308.12 422.62 C 308.94 424.98 309.71 427.15 311.00 429.38 C 312.29 431.60 313.92 433.94 315.88 436.00 C 317.83 438.06 320.79 440.29 322.75 441.75 C 324.71 443.21 325.31 443.58 327.62 444.75 C 329.94 445.92 333.62 447.60 336.62 448.75 C 339.62 449.90 342.42 450.79 345.62 451.62 C 348.83 452.46 351.96 453.08 355.88 453.75 C 359.79 454.42 364.98 455.15 369.12 455.62 C 373.27 456.10 374.33 456.44 380.75 456.62 C 387.17 456.81 401.31 456.92 407.62 456.75 C 413.94 456.58 414.81 456.15 418.62 455.62 C 422.44 455.10 426.67 454.44 430.50 453.62 C 434.33 452.81 437.15 452.40 441.62 450.75 C 446.10 449.10 453.88 445.48 457.38 443.75 C 460.88 442.02 460.77 441.81 462.62 440.38 C 464.48 438.94 467.00 436.96 468.50 435.12 C 470.00 433.29 470.92 430.88 471.62 429.38 C 472.33 427.88 472.54 427.17 472.75 426.12 C 472.96 425.08 473.04 424.54 472.88 423.12 C 472.71 421.71 472.46 419.67 471.75 417.62 C 471.04 415.58 469.38 412.19 468.62 410.88 C 467.88 409.56 474.83 407.75 467.25 409.75 C 459.67 411.75 431.29 420.38 423.12 422.88 C 414.96 425.38 420.94 424.10 418.25 424.75 C 415.56 425.40 410.62 426.27 407.00 426.75 C 403.38 427.23 401.75 427.46 396.50 427.62 C 391.25 427.79 381.79 427.90 375.50 427.75 C 369.21 427.60 362.60 427.08 358.75 426.75 C 354.90 426.42 354.54 426.25 352.38 425.75 C 350.21 425.25 347.75 424.46 345.75 423.75 C 343.75 423.04 342.04 422.33 340.38 421.50 C 338.71 420.67 337.17 419.75 335.75 418.75 C 334.33 417.75 333.00 416.83 331.88 415.50 C 330.75 414.17 329.65 411.98 329.00 410.75 C 328.35 409.52 328.33 409.81 328.00 408.12 C 327.67 406.44 327.12 404.67 327.00 400.62 C 326.88 396.58 326.92 389.94 327.25 383.88 C 327.58 377.81 328.21 370.27 329.00 364.25 C 329.79 358.23 331.04 351.48 332.00 347.75 C 332.96 344.02 334.31 343.44 334.75 341.88 C 335.19 340.31 335.15 339.75 334.62 338.38 C 334.10 337.00 333.21 335.40 331.62 333.62 C 330.04 331.85 327.21 328.75 325.12 327.75 C 323.04 326.75 320.60 327.52 319.12 327.62 C 317.65 327.73 318.17 328.19 316.25 328.38 C 314.33 328.56 309.60 328.56 307.62 328.75 C 305.65 328.94 305.00 329.27 304.38 329.50 C 303.75 329.73 303.81 327.29 303.88 330.12 Z" id="s-14-f-2"/>
<path d="M 304.12 329.75 C 303.50 330.23 303.77 328.83 303.88 331.62 C 303.98 334.42 304.56 334.02 304.75 346.50 C 304.94 358.98 304.79 395.17 305.00 406.50 C 305.21 417.83 305.48 411.81 306.00 414.50 C 306.52 417.19 307.29 420.15 308.12 422.62 C 308.96 425.10 309.71 427.15 311.00 429.38 C 312.29 431.60 313.92 433.94 315.88 436.00 C 317.83 438.06 320.79 440.29 322.75 441.75 C 324.71 443.21 325.73 443.75 327.62 444.75 C 329.52 445.75 331.62 446.75 334.12 447.75 C 336.62 448.75 340.08 449.96 342.62 450.75 C 345.17 451.54 344.77 451.67 349.38 452.50 C 353.98 453.33 363.42 455.02 370.25 455.75 C 377.08 456.48 384.15 456.71 390.38 456.88 C 396.60 457.04 402.92 456.96 407.62 456.75 C 412.33 456.54 414.81 456.15 418.62 455.62 C 422.44 455.10 426.73 454.42 430.50 453.62 C 434.27 452.83 438.48 451.71 441.25 450.88 C 444.02 450.04 444.44 449.81 447.12 448.62 C 449.81 447.44 455.27 444.88 457.38 443.75 C 459.48 442.62 459.31 446.77 459.75 441.88 C 460.19 436.98 460.00 419.25 460.00 414.38 C 460.00 409.50 459.88 413.00 459.75 412.62 C 459.62 412.25 465.35 410.42 459.25 412.12 C 453.15 413.83 429.96 420.77 423.12 422.88 C 416.29 424.98 420.94 424.10 418.25 424.75 C 415.56 425.40 410.62 426.27 407.00 426.75 C 403.38 427.23 401.75 427.46 396.50 427.62 C 391.25 427.79 381.79 427.90 375.50 427.75 C 369.21 427.60 362.60 427.08 358.75 426.75 C 354.90 426.42 354.54 426.25 352.38 425.75 C 350.21 425.25 347.75 424.46 345.75 423.75 C 343.75 423.04 342.04 422.33 340.38 421.50 C 338.71 420.67 337.17 419.75 335.75 418.75 C 334.33 417.75 333.00 416.83 331.88 415.50 C 330.75 414.17 329.65 411.98 329.00 410.75 C 328.35 409.52 328.33 409.81 328.00 408.12 C 327.67 406.44 327.12 404.67 327.00 400.62 C 326.88 396.58 326.92 389.94 327.25 383.88 C 327.58 377.81 328.21 370.27 329.00 364.25 C 329.79 358.23 331.04 351.48 332.00 347.75 C 332.96 344.02 334.31 343.44 334.75 341.88 C 335.19 340.31 335.15 339.75 334.62 338.38 C 334.10 337.00 333.21 335.40 331.62 333.62 C 330.04 331.85 327.21 328.75 325.12 327.75 C 323.04 326.75 320.60 327.52 319.12 327.62 C 317.65 327.73 318.17 328.19 316.25 328.38 C 314.33 328.56 309.65 328.52 307.62 328.75 C 305.60 328.98 304.75 329.27 304.12 329.75 Z" id="s-14-f-3"/>
<path d="M 304.12 329.75 C 303.50 330.23 303.77 328.85 303.88 331.62 C 303.98 334.40 304.54 333.60 304.75 346.38 C 304.96 359.15 304.90 396.77 305.12 408.25 C 305.35 419.73 305.48 412.44 306.12 415.25 C 306.77 418.06 308.19 422.77 309.00 425.12 C 309.81 427.48 310.00 427.73 311.00 429.38 C 312.00 431.02 313.29 433.12 315.00 435.00 C 316.71 436.88 319.15 439.00 321.25 440.62 C 323.35 442.25 324.67 443.25 327.62 444.75 C 330.58 446.25 335.29 448.31 339.00 449.62 C 342.71 450.94 346.04 451.77 349.88 452.62 C 353.71 453.48 356.52 454.06 362.00 454.75 C 367.48 455.44 375.42 456.42 382.75 456.75 C 390.08 457.08 401.23 456.85 406.00 456.75 C 410.77 456.65 410.40 457.77 411.38 456.12 C 412.35 454.48 411.85 451.88 411.88 446.88 C 411.90 441.88 414.31 429.31 411.50 426.12 C 408.69 422.94 401.00 427.48 395.00 427.75 C 389.00 428.02 381.52 427.92 375.50 427.75 C 369.48 427.58 362.73 427.08 358.88 426.75 C 355.02 426.42 354.92 426.40 352.38 425.75 C 349.83 425.10 346.40 424.04 343.62 422.88 C 340.85 421.71 337.71 419.98 335.75 418.75 C 333.79 417.52 333.00 416.83 331.88 415.50 C 330.75 414.17 329.65 411.98 329.00 410.75 C 328.35 409.52 328.29 409.29 328.00 408.12 C 327.71 406.96 327.38 407.79 327.25 403.75 C 327.12 399.71 327.10 389.25 327.25 383.88 C 327.40 378.50 327.67 375.94 328.12 371.50 C 328.58 367.06 329.35 361.21 330.00 357.25 C 330.65 353.29 331.21 350.31 332.00 347.75 C 332.79 345.19 334.29 343.38 334.75 341.88 C 335.21 340.38 335.15 339.98 334.75 338.75 C 334.35 337.52 333.98 336.33 332.38 334.50 C 330.77 332.67 327.33 328.90 325.12 327.75 C 322.92 326.60 320.60 327.52 319.12 327.62 C 317.65 327.73 318.17 328.19 316.25 328.38 C 314.33 328.56 309.65 328.52 307.62 328.75 C 305.60 328.98 304.75 329.27 304.12 329.75 Z" id="s-14-f-4"/>
<path d="M 304.12 329.62 C 303.50 330.12 303.77 328.94 303.88 331.75 C 303.98 334.56 304.56 334.04 304.75 346.50 C 304.94 358.96 304.79 395.17 305.00 406.50 C 305.21 417.83 305.65 412.35 306.00 414.50 C 306.35 416.65 306.62 417.60 307.12 419.38 C 307.62 421.15 308.35 423.46 309.00 425.12 C 309.65 426.79 310.27 428.06 311.00 429.38 C 311.73 430.69 312.23 431.58 313.38 433.00 C 314.52 434.42 315.81 436.10 317.88 437.88 C 319.94 439.65 323.44 442.15 325.75 443.62 C 328.06 445.10 328.44 445.42 331.75 446.75 C 335.06 448.08 340.60 450.29 345.62 451.62 C 350.65 452.96 358.85 454.25 361.88 454.75 C 364.90 455.25 363.44 459.21 363.75 454.62 C 364.06 450.04 365.65 432.06 363.75 427.25 C 361.85 422.44 355.38 426.33 352.38 425.75 C 349.38 425.17 347.75 424.46 345.75 423.75 C 343.75 423.04 342.04 422.33 340.38 421.50 C 338.71 420.67 337.17 419.75 335.75 418.75 C 334.33 417.75 333.00 416.83 331.88 415.50 C 330.75 414.17 329.65 411.98 329.00 410.75 C 328.35 409.52 328.33 409.81 328.00 408.12 C 327.67 406.44 327.17 403.27 327.00 400.62 C 326.83 397.98 326.79 397.33 327.00 392.25 C 327.21 387.17 327.58 376.79 328.25 370.12 C 328.92 363.46 330.35 356.04 331.00 352.25 C 331.65 348.46 331.50 349.10 332.12 347.38 C 332.75 345.65 334.33 343.38 334.75 341.88 C 335.17 340.38 335.02 339.60 334.62 338.38 C 334.23 337.15 333.96 336.27 332.38 334.50 C 330.79 332.73 327.33 328.90 325.12 327.75 C 322.92 326.60 320.60 327.52 319.12 327.62 C 317.65 327.73 318.17 328.19 316.25 328.38 C 314.33 328.56 309.65 328.54 307.62 328.75 C 305.60 328.96 304.75 329.12 304.12 329.62 Z" id="s-14-f-5"/>
<path d="M 325.12 327.75 C 322.92 326.60 320.60 327.52 319.12 327.62 C 317.65 327.73 318.17 328.19 316.25 328.38 C 314.33 328.56 309.69 328.50 307.62 328.75 C 305.56 329.00 304.35 326.92 303.88 329.88 C 303.40 332.83 304.52 333.27 304.75 346.50 C 304.98 359.73 305.02 397.79 305.25 409.25 C 305.48 420.71 305.50 412.58 306.12 415.25 C 306.75 417.92 308.19 422.90 309.00 425.25 C 309.81 427.60 309.96 427.69 311.00 429.38 C 312.04 431.06 314.25 434.44 315.25 435.38 C 316.25 436.31 314.23 438.25 317.00 435.00 C 319.77 431.75 329.88 419.90 331.88 415.88 C 333.88 411.85 329.65 412.17 329.00 410.88 C 328.35 409.58 328.29 409.31 328.00 408.12 C 327.71 406.94 327.38 407.79 327.25 403.75 C 327.12 399.71 327.10 389.23 327.25 383.88 C 327.40 378.52 327.67 376.06 328.12 371.62 C 328.58 367.19 329.35 361.23 330.00 357.25 C 330.65 353.27 331.23 350.25 332.00 347.75 C 332.77 345.25 334.15 343.60 334.62 342.25 C 335.10 340.90 334.88 340.27 334.88 339.62 C 334.88 338.98 335.04 339.23 334.62 338.38 C 334.21 337.52 333.96 336.27 332.38 334.50 C 330.79 332.73 327.33 328.90 325.12 327.75 Z" id="s-14-f-6"/>
<path d="M 325.12 327.75 C 322.92 326.60 320.60 327.52 319.12 327.62 C 317.65 327.73 318.17 328.19 316.25 328.38 C 314.33 328.56 309.69 328.50 307.62 328.75 C 305.56 329.00 304.35 326.92 303.88 329.88 C 303.40 332.83 304.56 333.71 304.75 346.50 C 304.94 359.29 304.77 395.17 305.00 406.62 C 305.23 418.08 305.62 412.65 306.12 415.25 C 306.62 417.85 307.54 420.83 308.00 422.25 C 308.46 423.67 305.94 423.48 308.88 423.75 C 311.81 424.02 321.79 425.19 325.62 423.88 C 329.46 422.56 331.31 418.04 331.88 415.88 C 332.44 413.71 329.65 412.17 329.00 410.88 C 328.35 409.58 328.29 409.31 328.00 408.12 C 327.71 406.94 327.38 407.79 327.25 403.75 C 327.12 399.71 327.10 389.23 327.25 383.88 C 327.40 378.52 327.67 376.06 328.12 371.62 C 328.58 367.19 329.35 361.23 330.00 357.25 C 330.65 353.27 331.23 350.25 332.00 347.75 C 332.77 345.25 334.15 343.60 334.62 342.25 C 335.10 340.90 334.88 340.27 334.88 339.62 C 334.88 338.98 335.04 339.23 334.62 338.38 C 334.21 337.52 333.96 336.27 332.38 334.50 C 330.79 332.73 327.33 328.90 325.12 327.75 Z" id="s-14-f-7"/>
<path d="M 325.12 327.75 C 322.92 326.60 320.60 327.52 319.12 327.62 C 317.65 327.73 318.17 328.19 316.25 328.38 C 314.33 328.56 309.69 328.50 307.62 328.75 C 305.56 329.00 304.35 327.17 303.88 329.88 C 303.40 332.58 304.58 337.69 304.75 345.00 C 304.92 352.31 304.77 368.58 304.88 373.75 C 304.98 378.92 302.69 375.62 305.38 376.00 C 308.06 376.38 317.25 376.10 321.00 376.00 C 324.75 375.90 326.38 378.50 327.88 375.38 C 329.38 372.25 329.31 361.85 330.00 357.25 C 330.69 352.65 331.23 350.25 332.00 347.75 C 332.77 345.25 334.15 343.60 334.62 342.25 C 335.10 340.90 334.88 340.27 334.88 339.62 C 334.88 338.98 335.04 339.23 334.62 338.38 C 334.21 337.52 333.96 336.27 332.38 334.50 C 330.79 332.73 327.33 328.90 325.12 327.75 Z" id="s-14-f-8"/>
</g>
</svg>