<?xml version="1.0" encoding="UTF-8"?>
<svg xmlns="http://www.w3.org/2000/svg" viewBox="0 0 500 500">
<defs>
<path d="M 61.50 92.12 C 58.21 91.79 53.62 91.83 51.50 92.12 C 49.38 92.42 49.35 93.23 48.75 93.88 C 48.15 94.52 47.96 95.10 47.88 96.00 C 47.79 96.90 47.10 96.31 48.25 99.25 C 49.40 102.19 53.40 110.08 54.75 113.62 C 56.10 117.17 55.73 115.71 56.38 120.50 C 57.02 125.29 58.08 135.25 58.62 142.38 C 59.17 149.50 59.44 150.29 59.62 163.25 C 59.81 176.21 59.88 205.81 59.75 220.12 C 59.62 234.44 59.35 239.75 58.88 249.12 C 58.40 258.50 57.50 269.62 56.88 276.38 C 56.25 283.12 55.81 283.25 55.12 289.62 C 54.44 296.00 53.50 308.00 52.75 314.62 C 52.00 321.25 51.52 324.06 50.62 329.38 C 49.73 334.69 48.88 339.85 47.38 346.50 C 45.88 353.15 43.60 362.48 41.62 369.25 C 39.65 376.02 37.50 381.85 35.50 387.12 C 33.50 392.40 31.88 396.04 29.62 400.88 C 27.38 405.71 23.27 413.27 22.00 416.12 C 20.73 418.98 21.79 417.54 22.00 418.00 C 22.21 418.46 22.67 418.79 23.25 418.88 C 23.83 418.96 24.48 419.00 25.50 418.50 C 26.52 418.00 26.65 418.44 29.38 415.88 C 32.10 413.31 38.33 407.42 41.88 403.12 C 45.42 398.83 48.31 393.75 50.62 390.12 C 52.94 386.50 54.08 384.50 55.75 381.38 C 57.42 378.25 59.12 374.81 60.62 371.38 C 62.12 367.94 63.40 365.02 64.75 360.75 C 66.10 356.48 66.92 353.83 68.75 345.75 C 70.58 337.67 74.10 320.96 75.75 312.25 C 77.40 303.54 77.77 300.44 78.62 293.50 C 79.48 286.56 80.02 282.90 80.88 270.62 C 81.73 258.35 83.21 240.67 83.75 219.88 C 84.29 199.08 83.75 161.19 84.12 145.88 C 84.50 130.56 85.23 133.29 86.00 128.00 C 86.77 122.71 88.27 117.08 88.75 114.12 C 89.23 111.17 89.73 112.81 88.88 110.25 C 88.02 107.69 84.79 100.92 83.62 98.75 C 82.46 96.58 82.81 97.60 81.88 97.25 C 80.94 96.90 79.77 97.15 78.00 96.62 C 76.23 96.10 74.00 94.88 71.25 94.12 C 68.50 93.38 64.79 92.46 61.50 92.12 Z" id="s-0-f-0"/>
<clipPath id="c-s-0"><use href="#s-0-f-0"/></clipPath>
<path d="M 145.50 79.00 C 143.00 78.50 143.44 78.35 141.25 79.12 C 139.06 79.90 137.21 81.69 132.38 83.62 C 127.54 85.56 118.06 88.90 112.25 90.75 C 106.44 92.60 102.12 93.65 97.50 94.75 C 92.88 95.85 86.98 96.77 84.50 97.38 C 82.02 97.98 82.94 98.08 82.62 98.38 C 82.31 98.67 82.33 98.56 82.62 99.12 C 82.92 99.69 84.04 101.04 84.38 101.75 C 84.71 102.46 84.46 102.98 84.62 103.38 C 84.79 103.77 84.75 102.88 85.38 104.12 C 86.00 105.38 86.35 109.96 88.38 110.88 C 90.40 111.79 91.79 110.77 97.50 109.62 C 103.21 108.48 117.52 105.08 122.62 104.00 C 127.73 102.92 126.33 103.27 128.12 103.12 C 129.92 102.98 132.25 103.00 133.38 103.12 C 134.50 103.25 134.33 103.35 134.88 103.88 C 135.42 104.40 136.00 104.04 136.62 106.25 C 137.25 108.46 138.10 112.27 138.62 117.12 C 139.15 121.98 139.58 123.88 139.75 135.38 C 139.92 146.88 139.79 167.00 139.62 186.12 C 139.46 205.25 139.21 227.65 138.75 250.12 C 138.29 272.60 137.40 305.25 136.88 321.00 C 136.35 336.75 136.15 337.38 135.62 344.62 C 135.10 351.88 134.40 359.94 133.75 364.50 C 133.10 369.06 132.62 369.40 131.75 372.00 C 130.88 374.60 129.35 378.31 128.50 380.12 C 127.65 381.94 127.23 382.12 126.62 382.88 C 126.02 383.62 125.48 384.17 124.88 384.62 C 124.27 385.08 123.96 385.48 123.00 385.62 C 122.04 385.77 120.98 385.81 119.12 385.50 C 117.27 385.19 116.35 385.12 111.88 383.75 C 107.40 382.38 96.19 378.40 92.25 377.25 C 88.31 376.10 89.12 376.85 88.25 376.88 C 87.38 376.90 87.21 376.96 87.00 377.38 C 86.79 377.79 86.83 378.69 87.00 379.38 C 87.17 380.06 85.02 377.98 88.00 381.50 C 90.98 385.02 100.40 395.17 104.88 400.50 C 109.35 405.83 111.50 408.88 114.88 413.50 C 118.25 418.12 122.92 425.40 125.12 428.25 C 127.33 431.10 127.42 430.19 128.12 430.62 C 128.83 431.06 128.44 430.88 129.38 430.88 C 130.31 430.88 131.92 431.29 133.75 430.62 C 135.58 429.96 138.06 428.73 140.38 426.88 C 142.69 425.02 145.23 422.42 147.62 419.50 C 150.02 416.58 152.90 412.42 154.75 409.38 C 156.60 406.33 157.60 403.94 158.75 401.25 C 159.90 398.56 160.79 396.21 161.62 393.25 C 162.46 390.29 163.21 386.92 163.75 383.50 C 164.29 380.08 165.00 413.62 164.88 372.75 C 164.75 331.88 163.12 179.88 163.00 138.25 C 162.88 96.62 163.62 127.65 164.12 123.00 C 164.62 118.35 165.35 113.77 166.00 110.38 C 166.65 106.98 167.23 105.00 168.00 102.62 C 168.77 100.25 170.15 97.96 170.62 96.12 C 171.10 94.29 171.15 92.92 170.88 91.62 C 170.60 90.33 169.85 89.31 169.00 88.38 C 168.15 87.44 167.88 87.04 165.75 86.00 C 163.62 84.96 159.62 83.29 156.25 82.12 C 152.88 80.96 148.00 79.50 145.50 79.00 Z" id="s-1-f-0"/>
<clipPath id="c-s-1"><use href="#s-1-f-0"/></clipPath>
<path d="M 83.62 167.12 C 83.31 169.00 81.33 173.73 83.75 178.25 C 86.17 182.77 93.81 190.00 98.12 194.25 C 102.44 198.50 106.54 201.50 109.62 203.75 C 112.71 206.00 114.56 206.77 116.62 207.75 C 118.69 208.73 119.92 209.29 122.00 209.62 C 124.08 209.96 127.21 210.02 129.12 209.75 C 131.04 209.48 132.25 208.90 133.50 208.00 C 134.75 207.10 135.92 205.75 136.62 204.38 C 137.33 203.00 137.56 201.35 137.75 199.75 C 137.94 198.15 137.92 196.19 137.75 194.75 C 137.58 193.31 137.25 192.35 136.75 191.12 C 136.25 189.90 135.44 188.46 134.75 187.38 C 134.06 186.29 133.62 185.65 132.62 184.62 C 131.62 183.60 130.35 182.35 128.75 181.25 C 127.15 180.15 126.00 179.38 123.00 178.00 C 120.00 176.62 115.40 174.50 110.75 173.00 C 106.10 171.50 99.31 170.00 95.12 169.00 C 90.94 168.00 87.54 167.31 85.62 167.00 C 83.71 166.69 83.94 165.25 83.62 167.12 Z" id="s-2-f-0"/>
<clipPath id="c-s-2"><use href="#s-2-f-0"/></clipPath>
<path d="M 138.88 227.25 C 138.67 227.12 139.58 225.96 138.00 227.38 C 136.42 228.79 132.15 233.23 129.38 235.75 C 126.60 238.27 125.54 239.29 121.38 242.50 C 117.21 245.71 109.35 251.65 104.38 255.00 C 99.40 258.35 94.54 261.00 91.50 262.62 C 88.46 264.25 87.94 264.19 86.12 264.75 C 84.31 265.31 81.58 265.23 80.62 266.00 C 79.67 266.77 80.52 268.58 80.38 269.38 C 80.23 270.17 79.90 269.08 79.75 270.75 C 79.60 272.42 79.31 277.79 79.50 279.38 C 79.69 280.96 79.98 279.15 80.88 280.25 C 81.77 281.35 83.10 284.04 84.88 286.00 C 86.65 287.96 89.65 290.56 91.50 292.00 C 93.35 293.44 94.69 294.17 96.00 294.62 C 97.31 295.08 98.35 295.02 99.38 294.75 C 100.40 294.48 101.08 293.96 102.12 293.00 C 103.17 292.04 102.02 293.96 105.62 289.00 C 109.23 284.04 119.42 269.58 123.75 263.25 C 128.08 256.92 129.27 254.94 131.62 251.00 C 133.98 247.06 136.65 241.71 137.88 239.62 C 139.10 237.54 138.77 240.42 139.00 238.50 C 139.23 236.58 139.27 230.00 139.25 228.12 C 139.23 226.25 139.08 227.38 138.88 227.25 Z" id="s-3-f-0"/>
<clipPath id="c-s-3"><use href="#s-3-f-0"/></clipPath>
<path d="M 207.50 85.75 C 206.94 86.27 206.23 87.19 206.00 88.00 C 205.77 88.81 203.79 86.56 206.12 90.62 C 208.46 94.69 216.67 107.38 220.00 112.38 C 223.33 117.38 224.10 118.10 226.12 120.62 C 228.15 123.15 230.69 125.98 232.12 127.50 C 233.56 129.02 233.71 129.19 234.75 129.75 C 235.79 130.31 236.98 130.73 238.38 130.88 C 239.77 131.02 241.88 130.83 243.12 130.62 C 244.38 130.42 245.00 130.08 245.88 129.62 C 246.75 129.17 247.56 128.60 248.38 127.88 C 249.19 127.15 250.19 126.04 250.75 125.25 C 251.31 124.46 251.42 124.15 251.75 123.12 C 252.08 122.10 252.56 120.96 252.75 119.12 C 252.94 117.29 253.08 114.42 252.88 112.12 C 252.67 109.83 252.02 107.12 251.50 105.38 C 250.98 103.62 250.52 102.85 249.75 101.62 C 248.98 100.40 247.69 98.92 246.88 98.00 C 246.06 97.08 245.81 96.77 244.88 96.12 C 243.94 95.48 243.69 95.15 241.25 94.12 C 238.81 93.10 234.94 91.52 230.25 90.00 C 225.56 88.48 216.60 85.85 213.12 85.00 C 209.65 84.15 210.31 84.75 209.38 84.88 C 208.44 85.00 208.06 85.23 207.50 85.75 Z" id="s-4-f-0"/>
<clipPath id="c-s-4"><use href="#s-4-f-0"/></clipPath>
<path d="M 390.88 71.25 C 390.10 70.00 389.48 69.08 388.00 67.50 C 386.52 65.92 384.15 63.50 382.00 61.75 C 379.85 60.00 377.67 58.44 375.12 57.00 C 372.58 55.56 368.83 53.79 366.75 53.12 C 364.67 52.46 363.58 52.79 362.62 53.00 C 361.67 53.21 362.17 52.00 361.00 54.38 C 359.83 56.75 357.98 62.44 355.62 67.25 C 353.27 72.06 350.40 77.73 346.88 83.25 C 343.35 88.77 338.60 95.33 334.50 100.38 C 330.40 105.42 324.83 110.94 322.25 113.50 C 319.67 116.06 319.54 115.10 319.00 115.75 C 318.46 116.40 318.79 117.02 319.00 117.38 C 319.21 117.73 319.54 117.81 320.25 117.88 C 320.96 117.94 321.08 118.42 323.25 117.75 C 325.42 117.08 329.90 115.38 333.25 113.88 C 336.60 112.38 337.94 111.73 343.38 108.75 C 348.81 105.77 358.40 99.83 365.88 96.00 C 373.35 92.17 384.00 87.94 388.25 85.75 C 392.50 83.56 390.62 83.79 391.38 82.88 C 392.12 81.96 392.54 81.56 392.75 80.25 C 392.96 78.94 392.94 76.50 392.62 75.00 C 392.31 73.50 391.65 72.50 390.88 71.25 Z" id="s-5-f-0"/>
<clipPath id="c-s-5"><use href="#s-5-f-0"/></clipPath>
<path d="M 377.88 140.50 C 377.62 139.54 376.92 138.52 376.12 137.62 C 375.33 136.73 375.12 136.23 373.12 135.12 C 371.12 134.02 367.12 132.17 364.12 131.00 C 361.12 129.83 357.65 128.62 355.12 128.12 C 352.60 127.62 351.06 127.54 349.00 128.00 C 346.94 128.46 344.79 130.08 342.75 130.88 C 340.71 131.67 341.27 131.60 336.75 132.75 C 332.23 133.90 330.15 135.08 315.62 137.75 C 301.10 140.42 265.88 146.21 249.62 148.75 C 233.38 151.29 224.00 152.00 218.12 153.00 C 212.25 154.00 215.08 154.19 214.38 154.75 C 213.67 155.31 213.77 155.71 213.88 156.38 C 213.98 157.04 213.96 157.56 215.00 158.75 C 216.04 159.94 218.83 162.50 220.12 163.50 C 221.42 164.50 221.67 164.38 222.75 164.75 C 223.83 165.12 223.73 165.40 226.62 165.75 C 229.52 166.10 235.15 166.71 240.12 166.88 C 245.10 167.04 251.29 166.90 256.50 166.75 C 261.71 166.60 264.75 166.83 271.38 166.00 C 278.00 165.17 291.60 162.60 296.25 161.75 C 300.90 160.90 297.42 161.08 299.25 160.88 C 301.08 160.67 304.92 160.71 307.25 160.50 C 309.58 160.29 311.10 160.06 313.25 159.62 C 315.40 159.19 316.31 158.52 320.12 157.88 C 323.94 157.23 329.31 156.94 336.12 155.75 C 342.94 154.56 354.52 152.40 361.00 150.75 C 367.48 149.10 372.23 147.10 375.00 145.88 C 377.77 144.65 377.15 144.27 377.62 143.38 C 378.10 142.48 378.12 141.46 377.88 140.50 Z" id="s-6-f-0"/>
<clipPath id="c-s-6"><use href="#s-6-f-0"/></clipPath>
<path d="M 428.88 198.12 C 428.75 197.48 428.56 196.88 427.88 196.00 C 427.19 195.12 426.21 194.04 424.75 192.88 C 423.29 191.71 421.00 190.15 419.12 189.00 C 417.25 187.85 416.83 187.33 413.50 186.00 C 410.17 184.67 402.50 181.83 399.12 181.00 C 395.75 180.17 395.40 180.81 393.25 181.00 C 391.10 181.19 390.71 181.17 386.25 182.12 C 381.79 183.08 382.42 183.81 366.50 186.75 C 350.58 189.69 304.02 197.56 290.75 199.75 C 277.48 201.94 297.94 198.38 286.88 199.88 C 275.81 201.38 241.15 206.52 224.38 208.75 C 207.60 210.98 193.29 212.38 186.25 213.25 C 179.21 214.12 183.67 213.52 182.12 214.00 C 180.58 214.48 178.19 215.52 177.00 216.12 C 175.81 216.73 175.33 217.10 175.00 217.62 C 174.67 218.15 174.23 218.23 175.00 219.25 C 175.77 220.27 177.19 222.17 179.62 223.75 C 182.06 225.33 187.04 227.60 189.62 228.75 C 192.21 229.90 193.40 230.15 195.12 230.62 C 196.85 231.10 198.08 231.42 200.00 231.62 C 201.92 231.83 198.54 233.31 206.62 231.88 C 214.71 230.44 235.92 225.35 248.50 223.00 C 261.08 220.65 275.38 218.90 282.12 217.75 C 288.88 216.60 284.85 216.90 289.00 216.12 C 293.15 215.35 300.79 213.83 307.00 213.12 C 313.21 212.42 319.98 212.56 326.25 211.88 C 332.52 211.19 338.29 209.81 344.62 209.00 C 350.96 208.19 356.46 207.67 364.25 207.00 C 372.04 206.33 381.83 205.56 391.38 205.00 C 400.92 204.44 415.60 204.15 421.50 203.62 C 427.40 203.10 425.56 202.50 426.75 201.88 C 427.94 201.25 428.27 200.50 428.62 199.88 C 428.98 199.25 429.00 198.77 428.88 198.12 Z" id="s-7-f-0"/>
<clipPath id="c-s-7"><use href="#s-7-f-0"/></clipPath>
<path d="M 297.12 44.12 C 294.31 43.02 291.08 41.77 288.38 41.25 C 285.67 40.73 282.85 40.73 280.88 41.00 C 278.90 41.27 277.62 42.12 276.50 42.88 C 275.38 43.62 274.54 44.65 274.12 45.50 C 273.71 46.35 273.58 46.69 274.00 48.00 C 274.42 49.31 275.98 51.67 276.62 53.38 C 277.27 55.08 277.50 56.46 277.88 58.25 C 278.25 60.04 278.56 61.40 278.88 64.12 C 279.19 66.85 279.75 68.79 279.75 74.62 C 279.75 80.46 279.54 89.65 278.88 99.12 C 278.21 108.60 276.62 123.71 275.75 131.50 C 274.88 139.29 274.15 143.27 273.62 145.88 C 273.10 148.48 273.00 145.46 272.62 147.12 C 272.25 148.79 271.71 154.17 271.38 155.88 C 271.04 157.58 270.79 156.48 270.62 157.38 C 270.46 158.27 270.54 160.38 270.38 161.25 C 270.21 162.12 269.75 161.69 269.62 162.62 C 269.50 163.56 271.12 159.96 269.62 166.88 C 268.12 173.79 262.27 197.75 260.62 204.12 C 258.98 210.50 259.94 204.69 259.75 205.12 C 259.56 205.56 259.67 206.29 259.50 206.75 C 259.33 207.21 258.94 207.29 258.75 207.88 C 258.56 208.46 258.56 209.71 258.38 210.25 C 258.19 210.79 257.79 210.62 257.62 211.12 C 257.46 211.62 257.54 212.75 257.38 213.25 C 257.21 213.75 257.12 212.67 256.62 214.12 C 256.12 215.58 255.29 219.56 254.38 222.00 C 253.46 224.44 252.25 226.08 251.12 228.75 C 250.00 231.42 249.73 233.27 247.62 238.00 C 245.52 242.73 240.98 252.19 238.50 257.12 C 236.02 262.06 234.92 263.96 232.75 267.62 C 230.58 271.29 228.69 274.42 225.50 279.12 C 222.31 283.83 216.83 291.58 213.62 295.88 C 210.42 300.17 210.10 300.52 206.25 304.88 C 202.40 309.23 196.06 316.21 190.50 322.00 C 184.94 327.79 176.38 336.31 172.88 339.62 C 169.38 342.94 170.79 340.85 169.50 341.88 C 168.21 342.90 165.94 345.15 165.12 345.75 C 164.31 346.35 164.73 352.94 164.62 345.50 C 164.52 338.06 164.60 309.48 164.50 301.12 C 164.40 292.77 164.15 290.56 164.00 295.38 C 163.85 300.19 163.62 324.88 163.62 330.00 C 163.62 335.12 163.90 323.73 164.00 326.12 C 164.10 328.52 164.29 341.15 164.25 344.38 C 164.21 347.60 163.75 345.00 163.75 345.50 C 163.75 346.00 164.25 346.75 164.25 347.38 C 164.25 348.00 163.79 349.10 163.75 349.25 C 163.71 349.40 163.90 347.54 164.00 348.25 C 164.10 348.96 164.29 353.48 164.38 353.50 C 164.46 353.52 164.40 349.29 164.50 348.38 C 164.60 347.46 164.52 347.92 165.00 348.00 C 165.48 348.08 166.46 348.75 167.38 348.88 C 168.29 349.00 168.85 349.10 170.50 348.75 C 172.15 348.40 174.00 347.92 177.25 346.75 C 180.50 345.58 185.65 343.77 190.00 341.75 C 194.35 339.73 200.21 336.44 203.38 334.62 C 206.54 332.81 206.58 332.67 209.00 330.88 C 211.42 329.08 214.19 327.19 217.88 323.88 C 221.56 320.56 227.08 315.33 231.12 311.00 C 235.17 306.67 237.52 304.31 242.12 297.88 C 246.73 291.44 254.50 279.17 258.75 272.38 C 263.00 265.58 264.29 263.58 267.62 257.12 C 270.96 250.67 275.77 240.42 278.75 233.62 C 281.73 226.83 284.42 219.31 285.50 216.38 C 286.58 213.44 285.15 216.12 285.25 216.00 C 285.35 215.88 285.94 216.08 286.12 215.62 C 286.31 215.17 286.21 213.81 286.38 213.25 C 286.54 212.69 286.62 213.96 287.12 212.25 C 287.62 210.54 288.88 204.71 289.38 203.00 C 289.88 201.29 290.00 202.67 290.12 202.00 C 290.25 201.33 289.38 202.31 290.12 199.00 C 290.88 195.69 293.12 188.60 294.62 182.12 C 296.12 175.65 298.21 163.94 299.12 160.12 C 300.04 156.31 299.94 159.85 300.12 159.25 C 300.31 158.65 300.08 157.19 300.25 156.50 C 300.42 155.81 300.96 155.77 301.12 155.12 C 301.29 154.48 301.08 153.33 301.25 152.62 C 301.42 151.92 301.77 152.40 302.12 150.88 C 302.48 149.35 303.04 144.90 303.38 143.50 C 303.71 142.10 303.98 143.48 304.12 142.50 C 304.27 141.52 302.94 146.15 304.25 137.62 C 305.56 129.10 310.21 101.29 312.00 91.38 C 313.79 81.46 313.88 82.40 315.00 78.12 C 316.12 73.85 318.12 68.75 318.75 65.75 C 319.38 62.75 319.23 61.79 318.75 60.12 C 318.27 58.46 317.29 57.27 315.88 55.75 C 314.46 54.23 312.02 52.31 310.25 51.00 C 308.48 49.69 307.44 49.02 305.25 47.88 C 303.06 46.73 299.94 45.23 297.12 44.12 Z" id="s-8-f-0"/>
<clipPath id="c-s-8"><use href="#s-8-f-0"/></clipPath>
<path d="M 324.38 211.75 C 324.10 212.10 323.56 211.81 324.75 212.88 C 325.94 213.94 328.77 215.69 331.50 218.12 C 334.23 220.56 337.79 223.79 341.12 227.50 C 344.46 231.21 346.90 234.29 351.50 240.38 C 356.10 246.46 361.33 254.17 368.75 264.00 C 376.17 273.83 389.69 291.40 396.00 299.38 C 402.31 307.35 403.65 308.65 406.62 311.88 C 409.60 315.10 411.79 317.10 413.88 318.75 C 415.96 320.40 417.40 320.96 419.12 321.75 C 420.85 322.54 421.85 323.17 424.25 323.50 C 426.65 323.83 429.96 324.06 433.50 323.75 C 437.04 323.44 441.56 322.48 445.50 321.62 C 449.44 320.77 452.67 319.92 457.12 318.62 C 461.58 317.33 469.12 315.12 472.25 313.88 C 475.38 312.62 475.12 311.83 475.88 311.12 C 476.62 310.42 476.58 310.23 476.75 309.62 C 476.92 309.02 476.98 308.06 476.88 307.50 C 476.77 306.94 476.54 306.69 476.12 306.25 C 475.71 305.81 478.12 306.62 474.38 304.88 C 470.62 303.12 460.23 298.79 453.62 295.75 C 447.02 292.71 440.31 289.46 434.75 286.62 C 429.19 283.79 424.98 281.58 420.25 278.75 C 415.52 275.92 410.88 273.02 406.38 269.62 C 401.88 266.23 399.44 264.25 393.25 258.38 C 387.06 252.50 377.23 242.62 369.25 234.38 C 361.27 226.12 350.19 213.15 345.38 208.88 C 340.56 204.60 341.42 208.67 340.38 208.75 C 339.33 208.83 341.46 209.04 339.12 209.38 C 336.79 209.71 328.83 210.35 326.38 210.75 C 323.92 211.15 324.65 211.40 324.38 211.75 Z" id="s-9-f-0"/>
<clipPath id="c-s-9"><use href="#s-9-f-0"/></clipPath>
<path d="M 252.12 280.62 C 251.58 280.73 253.12 279.73 251.38 282.50 C 249.62 285.27 242.90 293.56 241.62 297.25 C 240.35 300.94 243.23 301.90 243.75 304.62 C 244.27 307.35 244.58 308.31 244.75 313.62 C 244.92 318.94 244.90 328.56 244.75 336.50 C 244.60 344.44 244.38 353.77 243.88 361.25 C 243.38 368.73 242.48 376.08 241.75 381.38 C 241.02 386.67 240.29 389.58 239.50 393.00 C 238.71 396.42 237.44 399.42 237.00 401.88 C 236.56 404.33 236.83 405.92 236.88 407.75 C 236.92 409.58 236.90 410.88 237.25 412.88 C 237.60 414.88 238.38 417.73 239.00 419.75 C 239.62 421.77 240.15 423.15 241.00 425.00 C 241.85 426.85 243.02 428.96 244.12 430.88 C 245.23 432.79 246.48 434.92 247.62 436.50 C 248.77 438.08 249.85 439.35 251.00 440.38 C 252.15 441.40 253.42 442.21 254.50 442.62 C 255.58 443.04 256.85 442.88 257.50 442.88 C 258.15 442.88 257.98 442.92 258.38 442.62 C 258.77 442.33 259.35 442.04 259.88 441.12 C 260.40 440.21 260.79 439.92 261.50 437.12 C 262.21 434.33 263.42 431.35 264.12 424.38 C 264.83 417.40 265.44 405.56 265.75 395.25 C 266.06 384.94 265.62 373.02 266.00 362.50 C 266.38 351.98 267.71 343.31 268.00 332.12 C 268.29 320.94 267.85 301.88 267.75 295.38 C 267.65 288.88 269.56 295.38 267.38 293.12 C 265.19 290.88 257.17 283.96 254.62 281.88 C 252.08 279.79 252.67 280.52 252.12 280.62 Z" id="s-10-f-0"/>
<clipPath id="c-s-10"><use href="#s-10-f-0"/></clipPath>
<path d="M 253.25 280.88 C 250.23 281.48 252.96 281.15 253.00 281.38 C 253.04 281.60 251.96 280.92 253.50 282.25 C 255.04 283.58 259.94 287.38 262.25 289.38 C 264.56 291.38 265.62 293.98 267.38 294.25 C 269.12 294.52 267.88 292.54 272.75 291.00 C 277.62 289.46 290.83 286.27 296.62 285.00 C 302.42 283.73 304.54 283.73 307.50 283.38 C 310.46 283.02 310.33 282.94 314.38 282.88 C 318.42 282.81 328.25 282.79 331.75 283.00 C 335.25 283.21 334.38 283.56 335.38 284.12 C 336.38 284.69 337.19 285.50 337.75 286.38 C 338.31 287.25 338.42 287.08 338.75 289.38 C 339.08 291.67 339.40 294.33 339.75 300.12 C 340.10 305.92 340.71 312.73 340.88 324.12 C 341.04 335.52 341.10 355.02 340.75 368.50 C 340.40 381.98 339.29 398.42 338.75 405.00 C 338.21 411.58 339.54 405.69 337.50 408.00 C 335.46 410.31 328.42 416.79 326.50 418.88 C 324.58 420.96 324.98 418.10 326.00 420.50 C 327.02 422.90 330.46 428.38 332.62 433.25 C 334.79 438.12 337.56 446.35 339.00 449.75 C 340.44 453.15 340.21 452.31 341.25 453.62 C 342.29 454.94 343.96 456.94 345.25 457.62 C 346.54 458.31 347.96 457.90 349.00 457.75 C 350.04 457.60 349.88 457.96 351.50 456.75 C 353.12 455.54 356.38 453.10 358.75 450.50 C 361.12 447.90 364.10 443.65 365.75 441.12 C 367.40 438.60 367.79 437.27 368.62 435.38 C 369.46 433.48 370.08 431.83 370.75 429.75 C 371.42 427.67 372.12 425.25 372.62 422.88 C 373.12 420.50 373.56 418.21 373.75 415.50 C 373.94 412.79 374.71 414.25 373.75 406.62 C 372.79 399.00 369.29 379.35 368.00 369.75 C 366.71 360.15 366.12 359.31 366.00 349.00 C 365.88 338.69 366.92 316.38 367.25 307.88 C 367.58 299.38 367.73 300.46 368.00 298.00 C 368.27 295.54 368.23 295.27 368.88 293.12 C 369.52 290.98 371.40 286.90 371.88 285.12 C 372.35 283.35 371.94 283.35 371.75 282.50 C 371.56 281.65 371.71 281.40 370.75 280.00 C 369.79 278.60 367.65 275.79 366.00 274.12 C 364.35 272.46 362.79 271.35 360.88 270.00 C 358.96 268.65 356.83 267.31 354.50 266.00 C 352.17 264.69 349.02 263.10 346.88 262.12 C 344.73 261.15 343.38 260.48 341.62 260.12 C 339.88 259.77 338.06 259.83 336.38 260.00 C 334.69 260.17 337.48 259.33 331.50 261.12 C 325.52 262.92 308.27 268.48 300.50 270.75 C 292.73 273.02 289.77 273.58 284.88 274.75 C 279.98 275.92 276.40 276.73 271.12 277.75 C 265.85 278.77 256.27 280.27 253.25 280.88 Z" id="s-11-f-0"/>
<clipPath id="c-s-11"><use href="#s-11-f-0"/></clipPath>
<path d="M 341.25 317.25 C 340.75 315.98 339.19 315.67 338.12 315.12 C 337.06 314.58 337.12 314.48 334.88 314.00 C 332.62 313.52 327.60 312.58 324.62 312.25 C 321.65 311.92 322.38 311.08 317.00 312.00 C 311.62 312.92 300.27 316.17 292.38 317.75 C 284.48 319.33 273.77 320.75 269.62 321.50 C 265.48 322.25 267.85 320.42 267.50 322.25 C 267.15 324.08 266.81 330.58 267.50 332.50 C 268.19 334.42 268.77 333.58 271.62 333.75 C 274.48 333.92 277.12 334.35 284.62 333.50 C 292.12 332.65 308.67 330.04 316.62 328.62 C 324.58 327.21 328.79 325.67 332.38 325.00 C 335.96 324.33 336.79 324.79 338.12 324.62 C 339.46 324.46 339.88 324.31 340.38 324.00 C 340.88 323.69 340.98 323.88 341.12 322.75 C 341.27 321.62 341.75 318.52 341.25 317.25 Z" id="s-12-f-0"/>
<clipPath id="c-s-12"><use href="#s-12-f-0"/></clipPath>
<path d="M 341.25 360.25 C 340.94 359.27 340.50 359.54 339.12 359.00 C 337.75 358.46 335.81 357.65 333.00 357.00 C 330.19 356.35 325.04 355.48 322.25 355.12 C 319.46 354.77 318.38 354.73 316.25 354.88 C 314.12 355.02 313.81 355.02 309.50 356.00 C 305.19 356.98 297.67 359.27 290.38 360.75 C 283.08 362.23 269.90 362.42 265.75 364.88 C 261.60 367.33 264.83 373.52 265.50 375.50 C 266.17 377.48 266.83 376.58 269.75 376.75 C 272.67 376.92 275.50 377.35 283.00 376.50 C 290.50 375.65 306.85 373.04 314.75 371.62 C 322.65 370.21 326.98 368.67 330.38 368.00 C 333.77 367.33 333.88 367.83 335.12 367.62 C 336.38 367.42 336.90 367.21 337.88 366.75 C 338.85 366.29 340.44 365.96 341.00 364.88 C 341.56 363.79 341.56 361.23 341.25 360.25 Z" id="s-13-f-0"/>
<clipPath id="c-s-13"><use href="#s-13-f-0"/></clipPath>
<path d="M 338.88 406.25 C 338.77 405.94 338.79 407.00 337.38 406.62 C 335.96 406.25 332.85 404.77 330.38 404.00 C 327.90 403.23 325.35 402.31 322.50 402.00 C 319.65 401.69 318.73 401.50 313.25 402.12 C 307.77 402.75 297.65 404.77 289.62 405.75 C 281.60 406.73 269.33 407.40 265.12 408.00 C 260.92 408.60 264.62 407.96 264.38 409.38 C 264.12 410.79 263.77 413.98 263.62 416.50 C 263.48 419.02 263.21 423.10 263.50 424.50 C 263.79 425.90 263.06 424.85 265.38 424.88 C 267.69 424.90 267.19 425.44 277.38 424.62 C 287.56 423.81 316.40 422.69 326.50 420.00 C 336.60 417.31 335.94 410.79 338.00 408.50 C 340.06 406.21 338.98 406.56 338.88 406.25 Z" id="s-14-f-0"/>
<clipPath id="c-s-14"><use href="#s-14-f-0"/></clipPath>
</defs>
<g id="s-0" clip-path="url(#c-s-0)">
<use href="#s-0-f-0"/>
<path d="M 60.38 92.00 C 57.83 91.85 53.44 91.81 51.50 92.12 C 49.56 92.44 49.35 93.23 48.75 93.88 C 48.15 94.52 47.96 95.10 47.88 96.00 C 47.79 96.90 47.44 97.17 48.25 99.25 C 49.06 101.33 51.50 105.54 52.75 108.50 C 54.00 111.46 54.77 111.35 55.75 117.00 C 56.73 122.65 57.96 133.40 58.62 142.38 C 59.29 151.35 59.58 156.38 59.75 170.88 C 59.92 185.38 59.98 213.23 59.62 229.38 C 59.27 245.52 58.77 253.54 57.62 267.75 C 56.48 281.96 53.92 304.35 52.75 314.62 C 51.58 324.90 51.52 324.06 50.62 329.38 C 49.73 334.69 48.88 339.85 47.38 346.50 C 45.88 353.15 43.17 363.83 41.62 369.25 C 40.08 374.67 38.69 377.29 38.12 379.00 C 37.56 380.71 38.06 379.38 38.25 379.50 C 38.44 379.62 36.35 379.67 39.25 379.75 C 42.15 379.83 52.79 380.02 55.62 380.00 C 58.46 379.98 55.42 381.06 56.25 379.62 C 57.08 378.19 59.42 373.92 60.62 371.38 C 61.83 368.83 62.15 368.65 63.50 364.38 C 64.85 360.10 66.54 355.33 68.75 345.75 C 70.96 336.17 75.10 315.58 76.75 306.88 C 78.40 298.17 77.94 299.54 78.62 293.50 C 79.31 287.46 80.02 282.90 80.88 270.62 C 81.73 258.35 83.23 240.29 83.75 219.88 C 84.27 199.46 83.79 162.15 84.00 148.12 C 84.21 134.10 84.50 140.17 85.00 135.75 C 85.50 131.33 86.38 125.23 87.00 121.62 C 87.62 118.02 88.44 116.02 88.75 114.12 C 89.06 112.23 89.73 112.81 88.88 110.25 C 88.02 107.69 84.79 100.92 83.62 98.75 C 82.46 96.58 82.81 97.60 81.88 97.25 C 80.94 96.90 79.29 97.00 78.00 96.62 C 76.71 96.25 76.00 95.60 74.12 95.00 C 72.25 94.40 69.04 93.50 66.75 93.00 C 64.46 92.50 62.92 92.15 60.38 92.00 Z" id="s-0-f-1"/>
<path d="M 52.00 92.00 C 50.06 92.31 49.42 93.35 48.75 93.88 C 48.08 94.40 48.15 94.52 48.00 95.12 C 47.85 95.73 47.54 96.12 47.88 97.50 C 48.21 98.88 49.19 101.54 50.00 103.38 C 50.81 105.21 51.79 106.23 52.75 108.50 C 53.71 110.77 54.77 111.35 55.75 117.00 C 56.73 122.65 57.96 133.40 58.62 142.38 C 59.29 151.35 59.56 157.92 59.75 170.88 C 59.94 183.83 59.90 207.08 59.75 220.12 C 59.60 233.17 59.23 241.19 58.88 249.12 C 58.52 257.06 58.65 256.83 57.62 267.75 C 56.60 278.67 54.00 304.04 52.75 314.62 C 51.50 325.21 50.48 328.38 50.12 331.25 C 49.77 334.12 47.29 331.75 50.62 331.88 C 53.96 332.00 66.65 332.00 70.12 332.00 C 73.60 332.00 71.21 331.98 71.50 331.88 C 71.79 331.77 71.00 335.54 71.88 331.38 C 72.75 327.21 75.62 313.19 76.75 306.88 C 77.88 300.56 77.94 299.54 78.62 293.50 C 79.31 287.46 80.02 282.90 80.88 270.62 C 81.73 258.35 83.23 240.29 83.75 219.88 C 84.27 199.46 83.79 162.15 84.00 148.12 C 84.21 134.10 84.50 140.17 85.00 135.75 C 85.50 131.33 86.38 125.23 87.00 121.62 C 87.62 118.02 88.44 116.02 88.75 114.12 C 89.06 112.23 89.73 112.81 88.88 110.25 C 88.02 107.69 84.88 100.96 83.62 98.75 C 82.38 96.54 82.31 97.35 81.38 97.00 C 80.44 96.65 79.21 96.96 78.00 96.62 C 76.79 96.29 76.00 95.60 74.12 95.00 C 72.25 94.40 69.04 93.50 66.75 93.00 C 64.46 92.50 62.83 92.17 60.38 92.00 C 57.92 91.83 53.94 91.69 52.00 92.00 Z" id="s-0-f-2"/>
<path d="M 52.00 92.00 C 50.06 92.31 49.42 93.35 48.75 93.88 C 48.08 94.40 48.15 94.52 48.00 95.12 C 47.85 95.73 47.54 96.12 47.88 97.50 C 48.21 98.88 49.19 101.54 50.00 103.38 C 50.81 105.21 51.79 106.23 52.75 108.50 C 53.71 110.77 54.77 111.35 55.75 117.00 C 56.73 122.65 57.98 134.67 58.62 142.38 C 59.27 150.08 59.46 148.75 59.62 163.25 C 59.79 177.75 59.81 213.94 59.62 229.38 C 59.44 244.81 59.10 246.88 58.50 255.88 C 57.90 264.88 56.35 278.71 56.00 283.38 C 55.65 288.04 56.10 283.77 56.38 283.88 C 56.65 283.98 53.85 284.00 57.62 284.00 C 61.40 284.00 75.33 283.98 79.00 283.88 C 82.67 283.77 79.31 285.58 79.62 283.38 C 79.94 281.17 80.19 281.21 80.88 270.62 C 81.56 260.04 83.21 240.67 83.75 219.88 C 84.29 199.08 83.75 161.19 84.12 145.88 C 84.50 130.56 85.23 133.29 86.00 128.00 C 86.77 122.71 88.27 117.08 88.75 114.12 C 89.23 111.17 89.73 112.81 88.88 110.25 C 88.02 107.69 84.88 100.96 83.62 98.75 C 82.38 96.54 82.31 97.35 81.38 97.00 C 80.44 96.65 79.21 96.96 78.00 96.62 C 76.79 96.29 76.00 95.60 74.12 95.00 C 72.25 94.40 69.04 93.50 66.75 93.00 C 64.46 92.50 62.83 92.17 60.38 92.00 C 57.92 91.83 53.94 91.69 52.00 92.00 Z" id="s-0-f-3"/>
<path d="M 52.00 92.00 C 50.06 92.31 49.42 93.35 48.75 93.88 C 48.08 94.40 48.15 94.52 48.00 95.12 C 47.85 95.73 47.54 96.12 47.88 97.50 C 48.21 98.88 49.19 101.54 50.00 103.38 C 50.81 105.21 51.79 106.23 52.75 108.50 C 53.71 110.77 54.77 111.35 55.75 117.00 C 56.73 122.65 57.96 133.40 58.62 142.38 C 59.29 151.35 59.56 157.92 59.75 170.88 C 59.94 183.83 59.83 209.38 59.75 220.12 C 59.67 230.88 59.25 232.75 59.25 235.38 C 59.25 238.00 55.92 235.77 59.75 235.88 C 63.58 235.98 78.40 236.08 82.25 236.00 C 86.10 235.92 82.62 238.06 82.88 235.38 C 83.12 232.69 83.56 234.42 83.75 219.88 C 83.94 205.33 83.79 162.15 84.00 148.12 C 84.21 134.10 84.50 140.17 85.00 135.75 C 85.50 131.33 86.38 125.23 87.00 121.62 C 87.62 118.02 88.44 116.02 88.75 114.12 C 89.06 112.23 89.73 112.81 88.88 110.25 C 88.02 107.69 84.88 100.96 83.62 98.75 C 82.38 96.54 82.31 97.35 81.38 97.00 C 80.44 96.65 79.21 96.96 78.00 96.62 C 76.79 96.29 76.00 95.60 74.12 95.00 C 72.25 94.40 69.04 93.50 66.75 93.00 C 64.46 92.50 62.83 92.17 60.38 92.00 C 57.92 91.83 53.94 91.69 52.00 92.00 Z" id="s-0-f-4"/>
<path d="M 51.50 92.12 C 49.50 92.29 50.02 92.75 49.50 93.12 C 48.98 93.50 48.65 93.65 48.38 94.38 C 48.10 95.10 47.60 96.00 47.88 97.50 C 48.15 99.00 49.19 101.54 50.00 103.38 C 50.81 105.21 51.96 106.79 52.75 108.50 C 53.54 110.21 54.15 111.62 54.75 113.62 C 55.35 115.62 55.69 115.10 56.38 120.50 C 57.06 125.90 58.27 134.81 58.88 146.00 C 59.48 157.19 59.75 180.62 60.00 187.62 C 60.25 194.62 56.50 187.94 60.38 188.00 C 64.25 188.06 79.33 188.15 83.25 188.00 C 87.17 187.85 83.73 194.15 83.88 187.12 C 84.02 180.10 83.77 155.73 84.12 145.88 C 84.48 136.02 85.23 133.29 86.00 128.00 C 86.77 122.71 88.27 117.08 88.75 114.12 C 89.23 111.17 89.73 112.81 88.88 110.25 C 88.02 107.69 84.88 100.96 83.62 98.75 C 82.38 96.54 82.23 97.33 81.38 97.00 C 80.52 96.67 80.19 97.23 78.50 96.75 C 76.81 96.27 74.08 94.90 71.25 94.12 C 68.42 93.35 64.79 92.46 61.50 92.12 C 58.21 91.79 53.50 91.96 51.50 92.12 Z" id="s-0-f-5"/>
<path d="M 49.50 93.12 C 48.83 93.65 48.25 94.23 48.00 95.12 C 47.75 96.02 47.21 96.27 48.00 98.50 C 48.79 100.73 51.46 105.42 52.75 108.50 C 54.04 111.58 54.81 111.81 55.75 117.00 C 56.69 122.19 57.58 135.79 58.38 139.62 C 59.17 143.46 56.15 139.98 60.50 140.00 C 64.85 140.02 80.08 142.81 84.50 139.75 C 88.92 136.69 86.29 125.90 87.00 121.62 C 87.71 117.35 88.44 116.02 88.75 114.12 C 89.06 112.23 89.73 112.81 88.88 110.25 C 88.02 107.69 84.88 100.96 83.62 98.75 C 82.38 96.54 82.23 97.33 81.38 97.00 C 80.52 96.67 80.19 97.23 78.50 96.75 C 76.81 96.27 74.08 94.90 71.25 94.12 C 68.42 93.35 64.71 92.48 61.50 92.12 C 58.29 91.77 54.00 91.83 52.00 92.00 C 50.00 92.17 50.17 92.60 49.50 93.12 Z" id="s-0-f-6"/>
</g>
<g id="s-1" clip-path="url(#c-s-1)">
<use href="#s-1-f-0"/>
<path d="M 145.50 79.00 C 142.98 78.50 143.31 78.35 141.12 79.12 C 138.94 79.90 137.19 81.69 132.38 83.62 C 127.56 85.56 118.06 88.90 112.25 90.75 C 106.44 92.60 101.98 93.69 97.50 94.75 C 93.02 95.81 87.85 96.52 85.38 97.12 C 82.90 97.73 83.08 98.04 82.62 98.38 C 82.17 98.71 82.50 98.90 82.62 99.12 C 82.75 99.35 83.04 99.04 83.38 99.75 C 83.71 100.46 84.29 102.65 84.62 103.38 C 84.96 104.10 84.75 102.88 85.38 104.12 C 86.00 105.38 86.35 109.96 88.38 110.88 C 90.40 111.79 91.79 110.77 97.50 109.62 C 103.21 108.48 116.71 105.10 122.62 104.00 C 128.54 102.90 130.79 102.85 133.00 103.00 C 135.21 103.15 135.25 104.27 135.88 104.88 C 136.50 105.48 136.27 104.38 136.75 106.62 C 137.23 108.88 138.25 113.81 138.75 118.38 C 139.25 122.94 139.60 123.21 139.75 134.00 C 139.90 144.79 139.94 156.69 139.62 183.12 C 139.31 209.56 138.52 266.00 137.88 292.62 C 137.23 319.25 136.58 329.38 135.75 342.88 C 134.92 356.38 133.88 359.35 132.88 373.62 C 131.88 387.90 130.15 419.27 129.75 428.50 C 129.35 437.73 129.27 428.94 130.50 429.00 C 131.73 429.06 135.48 429.23 137.12 428.88 C 138.77 428.52 138.58 428.48 140.38 426.88 C 142.17 425.27 145.48 422.17 147.88 419.25 C 150.27 416.33 152.94 412.38 154.75 409.38 C 156.56 406.38 157.60 403.94 158.75 401.25 C 159.90 398.56 160.79 396.21 161.62 393.25 C 162.46 390.29 163.21 386.92 163.75 383.50 C 164.29 380.08 165.00 413.62 164.88 372.75 C 164.75 331.88 163.15 179.65 163.00 138.25 C 162.85 96.85 163.50 129.02 164.00 124.38 C 164.50 119.73 165.33 114.00 166.00 110.38 C 166.67 106.75 167.38 104.50 168.00 102.62 C 168.62 100.75 169.29 100.29 169.75 99.12 C 170.21 97.96 170.56 96.88 170.75 95.62 C 170.94 94.38 171.17 92.83 170.88 91.62 C 170.58 90.42 169.85 89.31 169.00 88.38 C 168.15 87.44 167.88 87.04 165.75 86.00 C 163.62 84.96 159.62 83.29 156.25 82.12 C 152.88 80.96 148.02 79.50 145.50 79.00 Z" id="s-1-f-1"/>
<path d="M 141.62 79.00 C 140.48 79.19 140.17 79.35 138.62 80.12 C 137.08 80.90 135.27 82.33 132.38 83.62 C 129.48 84.92 125.77 86.35 121.25 87.88 C 116.73 89.40 109.92 91.44 105.25 92.75 C 100.58 94.06 96.96 94.90 93.25 95.75 C 89.54 96.60 84.77 97.31 83.00 97.88 C 81.23 98.44 82.40 98.48 82.62 99.12 C 82.85 99.77 84.04 101.04 84.38 101.75 C 84.71 102.46 84.12 102.27 84.62 103.38 C 85.12 104.48 86.85 107.25 87.38 108.38 C 87.90 109.50 87.52 109.71 87.75 110.12 C 87.98 110.54 87.12 110.96 88.75 110.88 C 90.38 110.79 91.85 110.77 97.50 109.62 C 103.15 108.48 117.44 105.08 122.62 104.00 C 127.81 102.92 126.83 103.27 128.62 103.12 C 130.42 102.98 132.17 102.83 133.38 103.12 C 134.58 103.42 135.31 104.29 135.88 104.88 C 136.44 105.46 136.27 104.38 136.75 106.62 C 137.23 108.88 138.25 113.81 138.75 118.38 C 139.25 122.94 139.75 112.04 139.75 134.00 C 139.75 155.96 139.23 218.96 138.75 250.12 C 138.27 281.29 137.38 305.54 136.88 321.00 C 136.38 336.46 136.42 334.08 135.75 342.88 C 135.08 351.67 133.38 367.48 132.88 373.75 C 132.38 380.02 132.42 379.29 132.75 380.50 C 133.08 381.71 129.75 380.92 134.88 381.00 C 140.00 381.08 158.56 381.44 163.50 381.00 C 168.44 380.56 164.27 379.75 164.50 378.38 C 164.73 377.00 164.81 378.83 164.88 372.75 C 164.94 366.67 165.19 380.96 164.88 341.88 C 164.56 302.79 163.15 174.50 163.00 138.25 C 162.85 102.00 163.50 129.02 164.00 124.38 C 164.50 119.73 165.33 114.00 166.00 110.38 C 166.67 106.75 167.23 105.00 168.00 102.62 C 168.77 100.25 170.15 97.96 170.62 96.12 C 171.10 94.29 171.15 92.92 170.88 91.62 C 170.60 90.33 169.81 89.29 169.00 88.38 C 168.19 87.46 166.94 86.71 166.00 86.12 C 165.06 85.54 166.00 85.88 163.38 84.88 C 160.75 83.88 153.23 81.10 150.25 80.12 C 147.27 79.15 146.94 79.19 145.50 79.00 C 144.06 78.81 142.77 78.81 141.62 79.00 Z" id="s-1-f-2"/>
<path d="M 142.62 79.00 C 141.33 79.17 140.33 79.35 138.62 80.12 C 136.92 80.90 135.27 82.33 132.38 83.62 C 129.48 84.92 125.77 86.35 121.25 87.88 C 116.73 89.40 109.92 91.44 105.25 92.75 C 100.58 94.06 96.71 94.98 93.25 95.75 C 89.79 96.52 86.25 96.98 84.50 97.38 C 82.75 97.77 83.06 97.83 82.75 98.12 C 82.44 98.42 82.35 98.52 82.62 99.12 C 82.90 99.73 84.04 101.04 84.38 101.75 C 84.71 102.46 84.12 102.27 84.62 103.38 C 85.12 104.48 86.85 107.25 87.38 108.38 C 87.90 109.50 87.52 109.71 87.75 110.12 C 87.98 110.54 87.12 110.96 88.75 110.88 C 90.38 110.79 90.94 110.92 97.50 109.62 C 104.06 108.33 122.15 104.21 128.12 103.12 C 134.10 102.04 132.25 103.00 133.38 103.12 C 134.50 103.25 134.33 103.35 134.88 103.88 C 135.42 104.40 136.00 104.04 136.62 106.25 C 137.25 108.46 138.12 113.04 138.62 117.12 C 139.12 121.21 139.44 122.40 139.62 130.75 C 139.81 139.10 140.04 140.27 139.75 167.25 C 139.46 194.23 138.48 265.17 137.88 292.62 C 137.27 320.08 136.33 325.29 136.12 332.00 C 135.92 338.71 132.25 332.71 136.62 332.88 C 141.00 333.04 157.79 333.02 162.38 333.00 C 166.96 332.98 163.75 333.06 164.12 332.75 C 164.50 332.44 164.81 363.52 164.62 331.12 C 164.44 298.73 163.08 173.06 163.00 138.38 C 162.92 103.69 163.62 127.67 164.12 123.00 C 164.62 118.33 165.35 113.77 166.00 110.38 C 166.65 106.98 167.23 105.00 168.00 102.62 C 168.77 100.25 170.15 97.96 170.62 96.12 C 171.10 94.29 171.15 92.92 170.88 91.62 C 170.60 90.33 169.81 89.29 169.00 88.38 C 168.19 87.46 166.94 86.71 166.00 86.12 C 165.06 85.54 166.00 85.88 163.38 84.88 C 160.75 83.88 153.08 81.08 150.25 80.12 C 147.42 79.17 147.65 79.31 146.38 79.12 C 145.10 78.94 143.92 78.83 142.62 79.00 Z" id="s-1-f-3"/>
<path d="M 141.25 79.12 C 139.06 79.90 135.71 82.17 132.38 83.62 C 129.04 85.08 125.77 86.35 121.25 87.88 C 116.73 89.40 109.92 91.44 105.25 92.75 C 100.58 94.06 96.71 94.98 93.25 95.75 C 89.79 96.52 86.25 96.98 84.50 97.38 C 82.75 97.77 83.06 97.83 82.75 98.12 C 82.44 98.42 82.35 98.52 82.62 99.12 C 82.90 99.73 84.04 101.04 84.38 101.75 C 84.71 102.46 84.12 102.27 84.62 103.38 C 85.12 104.48 86.85 107.25 87.38 108.38 C 87.90 109.50 87.52 109.71 87.75 110.12 C 87.98 110.54 87.12 110.96 88.75 110.88 C 90.38 110.79 90.94 110.92 97.50 109.62 C 104.06 108.33 122.15 104.21 128.12 103.12 C 134.10 102.04 132.25 103.00 133.38 103.12 C 134.50 103.25 134.33 103.35 134.88 103.88 C 135.42 104.40 136.00 104.04 136.62 106.25 C 137.25 108.46 138.10 112.25 138.62 117.12 C 139.15 122.00 139.58 123.98 139.75 135.50 C 139.92 147.02 139.90 161.40 139.62 186.25 C 139.35 211.10 138.06 268.17 138.12 284.62 C 138.19 301.08 135.75 284.96 140.00 285.00 C 144.25 285.04 159.58 284.98 163.62 284.88 C 167.67 284.77 164.35 308.79 164.25 284.38 C 164.15 259.96 163.02 165.27 163.00 138.38 C 162.98 111.48 163.62 127.67 164.12 123.00 C 164.62 118.33 165.35 113.77 166.00 110.38 C 166.65 106.98 167.23 105.00 168.00 102.62 C 168.77 100.25 170.15 97.96 170.62 96.12 C 171.10 94.29 171.15 92.92 170.88 91.62 C 170.60 90.33 169.81 89.29 169.00 88.38 C 168.19 87.46 166.94 86.71 166.00 86.12 C 165.06 85.54 166.00 85.88 163.38 84.88 C 160.75 83.88 153.23 81.10 150.25 80.12 C 147.27 79.15 147.00 79.17 145.50 79.00 C 144.00 78.83 143.44 78.35 141.25 79.12 Z" id="s-1-f-4"/>
<path d="M 83.12 97.88 C 80.65 98.60 82.42 98.48 82.62 99.12 C 82.83 99.77 84.04 101.04 84.38 101.75 C 84.71 102.46 84.12 102.27 84.62 103.38 C 85.12 104.48 86.85 107.25 87.38 108.38 C 87.90 109.50 87.52 109.71 87.75 110.12 C 87.98 110.54 87.10 110.96 88.75 110.88 C 90.40 110.79 91.06 110.92 97.62 109.62 C 104.19 108.33 122.23 104.23 128.12 103.12 C 134.02 102.02 131.71 102.71 133.00 103.00 C 134.29 103.29 135.23 104.19 135.88 104.88 C 136.52 105.56 136.42 105.08 136.88 107.12 C 137.33 109.17 138.15 112.98 138.62 117.12 C 139.10 121.27 139.58 120.48 139.75 132.00 C 139.92 143.52 139.77 168.79 139.62 186.25 C 139.48 203.71 135.17 228.31 138.88 236.75 C 142.58 245.19 157.79 236.98 161.88 236.88 C 165.96 236.77 163.06 239.73 163.38 236.12 C 163.69 232.52 163.81 231.54 163.75 215.25 C 163.69 198.96 162.79 154.85 163.00 138.38 C 163.21 121.90 164.17 122.33 165.00 116.38 C 165.83 110.42 167.06 106.00 168.00 102.62 C 168.94 99.25 170.17 98.08 170.62 96.12 C 171.08 94.17 171.02 92.17 170.75 90.88 C 170.48 89.58 169.54 89.00 169.00 88.38 C 168.46 87.75 168.44 87.71 167.50 87.12 C 166.56 86.54 166.25 86.04 163.38 84.88 C 160.50 83.71 153.08 81.08 150.25 80.12 C 147.42 79.17 147.65 79.31 146.38 79.12 C 145.10 78.94 143.92 78.83 142.62 79.00 C 141.33 79.17 140.85 79.15 138.62 80.12 C 136.40 81.10 133.12 83.27 129.25 84.88 C 125.38 86.48 120.67 88.10 115.38 89.75 C 110.08 91.40 102.88 93.40 97.50 94.75 C 92.12 96.10 85.60 97.15 83.12 97.88 Z" id="s-1-f-5"/>
<path d="M 82.75 98.12 C 82.19 98.48 82.35 98.52 82.62 99.12 C 82.90 99.73 84.04 101.04 84.38 101.75 C 84.71 102.46 84.12 102.27 84.62 103.38 C 85.12 104.48 86.85 107.25 87.38 108.38 C 87.90 109.50 87.52 109.71 87.75 110.12 C 87.98 110.54 87.10 110.96 88.75 110.88 C 90.40 110.79 91.06 110.92 97.62 109.62 C 104.19 108.33 122.23 104.23 128.12 103.12 C 134.02 102.02 131.77 102.79 133.00 103.00 C 134.23 103.21 134.88 103.77 135.50 104.38 C 136.12 104.98 136.38 105.48 136.75 106.62 C 137.12 107.77 137.40 109.10 137.75 111.25 C 138.10 113.40 138.54 116.04 138.88 119.50 C 139.21 122.96 139.65 120.56 139.75 132.00 C 139.85 143.44 139.46 178.67 139.50 188.12 C 139.54 197.58 139.67 188.60 140.00 188.75 C 140.33 188.90 137.69 188.98 141.50 189.00 C 145.31 189.02 159.23 189.02 162.88 188.88 C 166.52 188.73 163.33 196.92 163.38 188.12 C 163.42 179.33 163.00 146.96 163.12 136.12 C 163.25 125.29 163.65 127.42 164.12 123.12 C 164.60 118.83 165.35 113.79 166.00 110.38 C 166.65 106.96 167.23 105.00 168.00 102.62 C 168.77 100.25 170.17 98.08 170.62 96.12 C 171.08 94.17 171.02 92.17 170.75 90.88 C 170.48 89.58 169.83 89.19 169.00 88.38 C 168.17 87.56 167.88 87.04 165.75 86.00 C 163.62 84.96 159.48 83.27 156.25 82.12 C 153.02 80.98 148.88 79.62 146.38 79.12 C 143.88 78.62 143.58 78.38 141.25 79.12 C 138.92 79.88 136.23 82.00 132.38 83.62 C 128.52 85.25 122.65 87.35 118.12 88.88 C 113.60 90.40 109.40 91.60 105.25 92.75 C 101.10 93.90 96.46 95.04 93.25 95.75 C 90.04 96.46 87.75 96.60 86.00 97.00 C 84.25 97.40 83.31 97.77 82.75 98.12 Z" id="s-1-f-6"/>
<path d="M 82.75 98.12 C 82.19 98.48 82.35 98.52 82.62 99.12 C 82.90 99.73 84.04 101.04 84.38 101.75 C 84.71 102.46 84.12 102.27 84.62 103.38 C 85.12 104.48 86.85 107.25 87.38 108.38 C 87.90 109.50 87.52 109.71 87.75 110.12 C 87.98 110.54 87.10 110.96 88.75 110.88 C 90.40 110.79 91.06 110.92 97.62 109.62 C 104.19 108.33 122.23 104.23 128.12 103.12 C 134.02 102.02 131.88 102.88 133.00 103.00 C 134.12 103.12 134.25 103.27 134.88 103.88 C 135.50 104.48 136.12 104.42 136.75 106.62 C 137.38 108.83 138.08 111.44 138.62 117.12 C 139.17 122.81 136.21 136.79 140.00 140.75 C 143.79 144.71 157.56 140.94 161.38 140.88 C 165.19 140.81 162.42 143.33 162.88 140.38 C 163.33 137.42 163.60 128.12 164.12 123.12 C 164.65 118.12 165.35 113.79 166.00 110.38 C 166.65 106.96 167.38 104.50 168.00 102.62 C 168.62 100.75 169.27 100.58 169.75 99.12 C 170.23 97.67 170.71 95.25 170.88 93.88 C 171.04 92.50 170.90 91.58 170.75 90.88 C 170.60 90.17 170.79 90.42 170.00 89.62 C 169.21 88.83 169.29 87.71 166.00 86.12 C 162.71 84.54 153.67 81.31 150.25 80.12 C 146.83 78.94 147.00 79.17 145.50 79.00 C 144.00 78.83 143.44 78.35 141.25 79.12 C 139.06 79.90 136.23 82.00 132.38 83.62 C 128.52 85.25 122.65 87.35 118.12 88.88 C 113.60 90.40 109.40 91.60 105.25 92.75 C 101.10 93.90 96.46 95.04 93.25 95.75 C 90.04 96.46 87.75 96.60 86.00 97.00 C 84.25 97.40 83.31 97.77 82.75 98.12 Z" id="s-1-f-7"/>
<path d="M 170.88 91.50 C 170.65 90.71 169.81 89.27 169.00 88.38 C 168.19 87.48 166.94 86.71 166.00 86.12 C 165.06 85.54 166.00 85.88 163.38 84.88 C 160.75 83.88 153.23 81.10 150.25 80.12 C 147.27 79.15 146.77 79.19 145.50 79.00 C 144.23 78.81 143.77 78.81 142.62 79.00 C 141.48 79.19 140.33 79.35 138.62 80.12 C 136.92 80.90 135.27 82.33 132.38 83.62 C 129.48 84.92 125.77 86.35 121.25 87.88 C 116.73 89.40 111.62 91.08 105.25 92.75 C 98.88 94.42 86.77 96.81 83.00 97.88 C 79.23 98.94 82.40 98.48 82.62 99.12 C 82.85 99.77 84.04 101.04 84.38 101.75 C 84.71 102.46 84.12 102.27 84.62 103.38 C 85.12 104.48 86.85 107.25 87.38 108.38 C 87.90 109.50 87.52 109.71 87.75 110.12 C 87.98 110.54 84.79 111.44 88.75 110.88 C 92.71 110.31 105.85 107.90 111.50 106.75 C 117.15 105.60 118.31 104.81 122.62 104.00 C 126.94 103.19 129.73 103.56 137.38 101.88 C 145.02 100.19 163.00 95.33 168.50 93.88 C 174.00 92.42 169.98 93.52 170.38 93.12 C 170.77 92.73 171.10 92.29 170.88 91.50 Z" id="s-1-f-8"/>
<path d="M 130.88 84.75 C 130.71 81.75 131.56 83.88 130.00 84.38 C 128.44 84.88 125.00 86.52 121.50 87.75 C 118.00 88.98 113.71 90.42 109.00 91.75 C 104.29 93.08 97.33 94.81 93.25 95.75 C 89.17 96.69 86.25 96.98 84.50 97.38 C 82.75 97.77 83.06 97.83 82.75 98.12 C 82.44 98.42 82.35 98.52 82.62 99.12 C 82.90 99.73 84.04 101.04 84.38 101.75 C 84.71 102.46 84.12 102.27 84.62 103.38 C 85.12 104.48 86.85 107.25 87.38 108.38 C 87.90 109.50 87.52 109.71 87.75 110.12 C 87.98 110.54 87.12 110.96 88.75 110.88 C 90.38 110.79 91.85 110.77 97.50 109.62 C 103.15 108.48 117.15 105.10 122.62 104.00 C 128.10 102.90 128.98 103.27 130.38 103.00 C 131.77 102.73 130.92 105.42 131.00 102.38 C 131.08 99.33 131.04 87.75 130.88 84.75 Z" id="s-1-f-9"/>
</g>
<g id="s-2" clip-path="url(#c-s-2)">
<use href="#s-2-f-0"/>
<path d="M 83.62 167.12 C 83.31 169.00 81.33 173.73 83.75 178.25 C 86.17 182.77 94.75 190.73 98.12 194.25 C 101.50 197.77 101.56 197.46 104.00 199.38 C 106.44 201.29 110.23 204.19 112.75 205.75 C 115.27 207.31 117.48 208.08 119.12 208.75 C 120.77 209.42 120.85 209.60 122.62 209.75 C 124.40 209.90 128.21 209.81 129.75 209.62 C 131.29 209.44 131.50 212.54 131.88 208.62 C 132.25 204.71 132.00 190.21 132.00 186.12 C 132.00 182.04 132.06 184.67 131.88 184.12 C 131.69 183.58 132.35 183.90 130.88 182.88 C 129.40 181.85 126.29 179.62 123.00 178.00 C 119.71 176.38 115.67 174.60 111.12 173.12 C 106.58 171.65 100.00 170.15 95.75 169.12 C 91.50 168.10 87.65 167.33 85.62 167.00 C 83.60 166.67 83.94 165.25 83.62 167.12 Z" id="s-2-f-1"/>
</g>
<g id="s-3" clip-path="url(#c-s-3)">
<use href="#s-3-f-0"/>
<path d="M 127.75 237.50 C 127.62 234.25 129.21 235.79 127.00 237.50 C 124.79 239.21 119.27 244.19 114.50 247.75 C 109.73 251.31 102.67 256.21 98.38 258.88 C 94.08 261.54 91.69 262.56 88.75 263.75 C 85.81 264.94 82.15 265.06 80.75 266.00 C 79.35 266.94 80.54 268.58 80.38 269.38 C 80.21 270.17 79.90 269.08 79.75 270.75 C 79.60 272.42 79.31 277.79 79.50 279.38 C 79.69 280.96 79.79 278.96 80.88 280.25 C 81.96 281.54 84.23 285.17 86.00 287.12 C 87.77 289.08 89.77 290.73 91.50 292.00 C 93.23 293.27 95.06 294.29 96.38 294.75 C 97.69 295.21 98.21 295.25 99.38 294.75 C 100.54 294.25 99.65 296.50 103.38 291.75 C 107.10 287.00 117.69 272.04 121.75 266.25 C 125.81 260.46 126.75 261.79 127.75 257.00 C 128.75 252.21 127.88 240.75 127.75 237.50 Z" id="s-3-f-1"/>
</g>
<g id="s-4" clip-path="url(#c-s-4)">
<use href="#s-4-f-0"/>
</g>
<g id="s-5" clip-path="url(#c-s-5)">
<use href="#s-5-f-0"/>
<path d="M 391.75 72.88 C 390.96 71.52 389.62 69.35 388.00 67.50 C 386.38 65.65 384.44 63.67 382.00 61.75 C 379.56 59.83 376.00 57.46 373.38 56.00 C 370.75 54.54 368.04 53.50 366.25 53.00 C 364.46 52.50 363.50 52.77 362.62 53.00 C 361.75 53.23 362.17 52.00 361.00 54.38 C 359.83 56.75 357.50 63.23 355.62 67.25 C 353.75 71.27 351.21 75.83 349.75 78.50 C 348.29 81.17 349.44 79.58 346.88 83.25 C 344.31 86.92 336.21 97.54 334.38 100.50 C 332.54 103.46 332.08 100.94 335.88 101.00 C 339.67 101.06 350.81 102.35 357.12 100.88 C 363.44 99.40 368.50 94.69 373.75 92.12 C 379.00 89.56 385.69 87.04 388.62 85.50 C 391.56 83.96 390.69 83.75 391.38 82.88 C 392.06 82.00 392.52 81.46 392.75 80.25 C 392.98 79.04 392.92 76.85 392.75 75.62 C 392.58 74.40 392.54 74.23 391.75 72.88 Z" id="s-5-f-1"/>
</g>
<g id="s-6" clip-path="url(#c-s-6)">
<use href="#s-6-f-0"/>
<path d="M 357.88 129.38 C 357.42 125.56 356.60 128.35 355.12 128.12 C 353.65 127.90 351.42 127.42 349.00 128.00 C 346.58 128.58 344.42 130.38 340.62 131.62 C 336.83 132.88 330.42 134.48 326.25 135.50 C 322.08 136.52 328.54 135.52 315.62 137.75 C 302.71 139.98 265.00 146.33 248.75 148.88 C 232.50 151.42 223.85 152.02 218.12 153.00 C 212.40 153.98 215.08 154.33 214.38 154.75 C 213.67 155.17 213.94 155.10 213.88 155.50 C 213.81 155.90 213.62 156.38 214.00 157.12 C 214.38 157.88 215.10 158.94 216.12 160.00 C 217.15 161.06 218.58 162.58 220.12 163.50 C 221.67 164.42 222.88 164.96 225.38 165.50 C 227.88 166.04 229.94 166.54 235.12 166.75 C 240.31 166.96 250.46 166.88 256.50 166.75 C 262.54 166.62 264.75 166.83 271.38 166.00 C 278.00 165.17 291.60 162.60 296.25 161.75 C 300.90 160.90 297.52 161.06 299.25 160.88 C 300.98 160.69 304.08 160.88 306.62 160.62 C 309.17 160.38 312.38 159.81 314.50 159.38 C 316.62 158.94 315.71 158.60 319.38 158.00 C 323.04 157.40 330.19 156.81 336.50 155.75 C 342.81 154.69 353.69 152.42 357.25 151.62 C 360.81 150.83 357.77 154.71 357.88 151.00 C 357.98 147.29 358.33 133.19 357.88 129.38 Z" id="s-6-f-1"/>
<path d="M 309.75 140.25 C 309.73 136.77 309.88 139.21 309.50 139.00 C 309.12 138.79 317.48 137.38 307.50 139.00 C 297.52 140.62 262.75 146.62 249.62 148.75 C 236.50 150.88 233.29 151.17 228.75 151.75 C 224.21 152.33 224.25 152.02 222.38 152.25 C 220.50 152.48 218.69 152.81 217.50 153.12 C 216.31 153.44 215.83 153.79 215.25 154.12 C 214.67 154.46 214.21 154.62 214.00 155.12 C 213.79 155.62 213.65 156.31 214.00 157.12 C 214.35 157.94 215.06 158.90 216.12 160.00 C 217.19 161.10 218.65 162.79 220.38 163.75 C 222.10 164.71 224.08 165.25 226.50 165.75 C 228.92 166.25 229.88 166.58 234.88 166.75 C 239.88 166.92 250.42 166.88 256.50 166.75 C 262.58 166.62 264.75 166.83 271.38 166.00 C 278.00 165.17 291.60 162.60 296.25 161.75 C 300.90 160.90 297.15 161.12 299.25 160.88 C 301.35 160.62 307.15 160.42 308.88 160.25 C 310.60 160.08 309.48 163.21 309.62 159.88 C 309.77 156.54 309.77 143.73 309.75 140.25 Z" id="s-6-f-2"/>
<path d="M 261.88 165.88 C 261.92 162.83 261.85 151.29 261.75 148.12 C 261.65 144.96 268.52 146.06 261.25 146.88 C 253.98 147.69 225.79 151.79 218.12 153.00 C 210.46 154.21 215.96 153.71 215.25 154.12 C 214.54 154.54 214.08 155.00 213.88 155.50 C 213.67 156.00 213.81 156.58 214.00 157.12 C 214.19 157.67 213.94 157.65 215.00 158.75 C 216.06 159.85 218.65 162.62 220.38 163.75 C 222.10 164.88 222.21 164.98 225.38 165.50 C 228.54 166.02 233.35 166.73 239.38 166.88 C 245.40 167.02 257.75 166.54 261.50 166.38 C 265.25 166.21 261.83 168.92 261.88 165.88 Z" id="s-6-f-3"/>
</g>
<g id="s-7" clip-path="url(#c-s-7)">
<use href="#s-7-f-0"/>
<path d="M 414.88 187.12 C 414.23 184.06 413.75 186.02 411.12 185.00 C 408.50 183.98 402.27 181.65 399.12 181.00 C 395.98 180.35 395.17 180.77 392.25 181.12 C 389.33 181.48 385.92 182.19 381.62 183.12 C 377.33 184.06 381.65 183.98 366.50 186.75 C 351.35 189.52 304.02 197.56 290.75 199.75 C 277.48 201.94 297.94 198.38 286.88 199.88 C 275.81 201.38 241.15 206.52 224.38 208.75 C 207.60 210.98 193.29 212.38 186.25 213.25 C 179.21 214.12 183.67 213.52 182.12 214.00 C 180.58 214.48 178.19 215.52 177.00 216.12 C 175.81 216.73 175.33 217.10 175.00 217.62 C 174.67 218.15 174.44 218.38 175.00 219.25 C 175.56 220.12 177.33 221.96 178.38 222.88 C 179.42 223.79 179.00 223.62 181.25 224.75 C 183.50 225.88 188.62 228.46 191.88 229.62 C 195.12 230.79 198.04 231.40 200.75 231.75 C 203.46 232.10 205.04 232.21 208.12 231.75 C 211.21 231.29 212.52 230.46 219.25 229.00 C 225.98 227.54 238.02 224.88 248.50 223.00 C 258.98 221.12 275.38 218.90 282.12 217.75 C 288.88 216.60 284.85 216.90 289.00 216.12 C 293.15 215.35 300.79 213.83 307.00 213.12 C 313.21 212.42 319.98 212.56 326.25 211.88 C 332.52 211.19 338.29 209.81 344.62 209.00 C 350.96 208.19 356.46 207.67 364.25 207.00 C 372.04 206.33 383.00 205.52 391.38 205.00 C 399.75 204.48 410.56 204.15 414.50 203.88 C 418.44 203.60 414.94 206.17 415.00 203.38 C 415.06 200.58 415.52 190.19 414.88 187.12 Z" id="s-7-f-1"/>
<path d="M 366.62 187.00 C 366.12 183.75 376.38 184.90 363.88 187.00 C 351.38 189.10 304.46 197.48 291.62 199.62 C 278.79 201.77 298.08 198.35 286.88 199.88 C 275.67 201.40 241.15 206.52 224.38 208.75 C 207.60 210.98 193.29 212.38 186.25 213.25 C 179.21 214.12 183.67 213.52 182.12 214.00 C 180.58 214.48 178.19 215.52 177.00 216.12 C 175.81 216.73 175.33 217.10 175.00 217.62 C 174.67 218.15 174.23 218.23 175.00 219.25 C 175.77 220.27 177.19 222.17 179.62 223.75 C 182.06 225.33 187.04 227.60 189.62 228.75 C 192.21 229.90 193.40 230.15 195.12 230.62 C 196.85 231.10 198.08 231.42 200.00 231.62 C 201.92 231.83 198.54 233.31 206.62 231.88 C 214.71 230.44 235.92 225.35 248.50 223.00 C 261.08 220.65 275.38 218.90 282.12 217.75 C 288.88 216.60 284.85 216.90 289.00 216.12 C 293.15 215.35 300.75 213.83 307.00 213.12 C 313.25 212.42 320.23 212.56 326.50 211.88 C 332.77 211.19 337.98 209.83 344.62 209.00 C 351.27 208.17 362.67 207.29 366.38 206.88 C 370.08 206.46 366.83 209.81 366.88 206.50 C 366.92 203.19 367.12 190.25 366.62 187.00 Z" id="s-7-f-2"/>
<path d="M 319.00 195.50 C 318.75 192.85 322.21 194.29 317.50 195.00 C 312.79 195.71 295.85 198.94 290.75 199.75 C 285.65 200.56 297.94 198.38 286.88 199.88 C 275.81 201.38 241.00 206.54 224.38 208.75 C 207.75 210.96 194.17 212.25 187.12 213.12 C 180.08 214.00 183.81 213.50 182.12 214.00 C 180.44 214.50 178.19 215.52 177.00 216.12 C 175.81 216.73 175.33 217.10 175.00 217.62 C 174.67 218.15 174.44 218.38 175.00 219.25 C 175.56 220.12 177.33 221.96 178.38 222.88 C 179.42 223.79 179.00 223.62 181.25 224.75 C 183.50 225.88 188.62 228.46 191.88 229.62 C 195.12 230.79 198.04 231.40 200.75 231.75 C 203.46 232.10 205.04 232.21 208.12 231.75 C 211.21 231.29 212.52 230.46 219.25 229.00 C 225.98 227.54 238.02 224.88 248.50 223.00 C 258.98 221.12 275.38 218.90 282.12 217.75 C 288.88 216.60 284.85 216.90 289.00 216.12 C 293.15 215.35 302.10 213.71 307.00 213.12 C 311.90 212.54 316.38 213.00 318.38 212.62 C 320.38 212.25 318.90 213.73 319.00 210.88 C 319.10 208.02 319.25 198.15 319.00 195.50 Z" id="s-7-f-3"/>
<path d="M 271.00 203.38 C 270.92 200.71 271.48 202.46 270.50 202.38 C 269.52 202.29 266.79 202.62 265.12 202.88 C 263.46 203.12 267.29 202.90 260.50 203.88 C 253.71 204.85 236.60 207.21 224.38 208.75 C 212.15 210.29 194.19 212.25 187.12 213.12 C 180.06 214.00 183.69 213.50 182.00 214.00 C 180.31 214.50 178.17 215.52 177.00 216.12 C 175.83 216.73 175.33 217.10 175.00 217.62 C 174.67 218.15 174.65 218.56 175.00 219.25 C 175.35 219.94 176.08 220.83 177.12 221.75 C 178.17 222.67 178.79 223.44 181.25 224.75 C 183.71 226.06 188.62 228.46 191.88 229.62 C 195.12 230.79 198.04 231.40 200.75 231.75 C 203.46 232.10 202.02 232.85 208.12 231.75 C 214.23 230.65 226.98 227.15 237.38 225.12 C 247.77 223.10 264.90 220.75 270.50 219.62 C 276.10 218.50 270.92 221.08 271.00 218.38 C 271.08 215.67 271.08 206.04 271.00 203.38 Z" id="s-7-f-4"/>
<path d="M 222.88 209.25 C 222.50 206.08 227.44 208.21 220.62 209.00 C 213.81 209.79 189.48 212.69 182.00 214.00 C 174.52 215.31 176.92 216.27 175.75 216.88 C 174.58 217.48 175.12 217.23 175.00 217.62 C 174.88 218.02 174.65 218.56 175.00 219.25 C 175.35 219.94 176.08 220.83 177.12 221.75 C 178.17 222.67 178.79 223.44 181.25 224.75 C 183.71 226.06 188.56 228.46 191.88 229.62 C 195.19 230.79 198.31 231.42 201.12 231.75 C 203.94 232.08 205.23 232.15 208.75 231.62 C 212.27 231.10 219.90 229.23 222.25 228.62 C 224.60 228.02 222.77 231.23 222.88 228.00 C 222.98 224.77 223.25 212.42 222.88 209.25 Z" id="s-7-f-5"/>
</g>
<g id="s-8" clip-path="url(#c-s-8)">
<use href="#s-8-f-0"/>
<path d="M 297.12 44.12 C 294.31 43.02 291.08 41.77 288.38 41.25 C 285.67 40.73 282.85 40.73 280.88 41.00 C 278.90 41.27 277.62 42.12 276.50 42.88 C 275.38 43.62 274.54 44.65 274.12 45.50 C 273.71 46.35 273.58 46.69 274.00 48.00 C 274.42 49.31 276.00 51.77 276.62 53.38 C 277.25 54.98 277.25 54.71 277.75 57.62 C 278.25 60.54 279.29 66.88 279.62 70.88 C 279.96 74.88 279.88 76.92 279.75 81.62 C 279.62 86.33 279.38 92.19 278.88 99.12 C 278.38 106.06 277.62 115.46 276.75 123.25 C 275.88 131.04 274.31 141.90 273.62 145.88 C 272.94 149.85 273.00 145.46 272.62 147.12 C 272.25 148.79 271.71 154.17 271.38 155.88 C 271.04 157.58 270.79 156.48 270.62 157.38 C 270.46 158.27 270.54 160.38 270.38 161.25 C 270.21 162.12 269.75 161.69 269.62 162.62 C 269.50 163.56 271.08 160.08 269.62 166.88 C 268.17 173.67 262.69 196.54 260.88 203.38 C 259.06 210.21 259.17 206.73 258.75 207.88 C 258.33 209.02 258.56 209.71 258.38 210.25 C 258.19 210.79 257.79 210.62 257.62 211.12 C 257.46 211.62 257.54 212.75 257.38 213.25 C 257.21 213.75 257.12 212.67 256.62 214.12 C 256.12 215.58 255.29 219.56 254.38 222.00 C 253.46 224.44 252.56 225.38 251.12 228.75 C 249.69 232.12 247.85 237.52 245.75 242.25 C 243.65 246.98 240.67 252.90 238.50 257.12 C 236.33 261.35 234.75 264.21 232.75 267.62 C 230.75 271.04 228.98 273.85 226.50 277.62 C 224.02 281.40 221.04 285.96 217.88 290.25 C 214.71 294.54 211.71 298.46 207.50 303.38 C 203.29 308.29 196.52 315.60 192.62 319.75 C 188.73 323.90 185.52 326.77 184.12 328.25 C 182.73 329.73 179.73 328.50 184.25 328.62 C 188.77 328.75 205.15 330.23 211.25 329.00 C 217.35 327.77 217.46 324.35 220.88 321.25 C 224.29 318.15 227.90 314.71 231.75 310.38 C 235.60 306.04 241.77 298.17 244.00 295.25 C 246.23 292.33 242.65 296.71 245.12 292.88 C 247.60 289.04 255.77 277.06 258.88 272.25 C 261.98 267.44 261.12 268.88 263.75 264.00 C 266.38 259.12 271.65 249.25 274.62 243.00 C 277.60 236.75 280.21 230.06 281.62 226.50 C 283.04 222.94 282.48 223.31 283.12 221.62 C 283.77 219.94 285.15 217.31 285.50 216.38 C 285.85 215.44 285.15 216.12 285.25 216.00 C 285.35 215.88 285.94 216.08 286.12 215.62 C 286.31 215.17 286.21 213.81 286.38 213.25 C 286.54 212.69 286.62 213.96 287.12 212.25 C 287.62 210.54 288.88 204.71 289.38 203.00 C 289.88 201.29 290.00 202.67 290.12 202.00 C 290.25 201.33 289.38 202.31 290.12 199.00 C 290.88 195.69 293.12 188.60 294.62 182.12 C 296.12 175.65 298.21 163.94 299.12 160.12 C 300.04 156.31 299.94 159.85 300.12 159.25 C 300.31 158.65 300.08 157.19 300.25 156.50 C 300.42 155.81 300.96 155.77 301.12 155.12 C 301.29 154.48 301.08 153.33 301.25 152.62 C 301.42 151.92 301.77 152.40 302.12 150.88 C 302.48 149.35 303.04 144.90 303.38 143.50 C 303.71 142.10 304.00 143.40 304.12 142.50 C 304.25 141.60 302.81 146.65 304.12 138.12 C 305.44 129.60 310.19 101.38 312.00 91.38 C 313.81 81.38 313.88 82.40 315.00 78.12 C 316.12 73.85 318.12 68.75 318.75 65.75 C 319.38 62.75 319.23 61.79 318.75 60.12 C 318.27 58.46 317.29 57.27 315.88 55.75 C 314.46 54.23 312.02 52.31 310.25 51.00 C 308.48 49.69 307.44 49.02 305.25 47.88 C 303.06 46.73 299.94 45.23 297.12 44.12 Z" id="s-8-f-1"/>
<path d="M 291.75 42.12 C 288.65 40.98 288.56 41.17 286.62 41.00 C 284.69 40.83 281.81 40.81 280.12 41.12 C 278.44 41.44 277.50 42.15 276.50 42.88 C 275.50 43.60 274.54 44.65 274.12 45.50 C 273.71 46.35 273.54 46.56 274.00 48.00 C 274.46 49.44 276.10 51.79 276.88 54.12 C 277.65 56.46 278.17 59.21 278.62 62.00 C 279.08 64.79 279.44 67.60 279.62 70.88 C 279.81 74.15 279.92 76.31 279.75 81.62 C 279.58 86.94 279.12 95.81 278.62 102.75 C 278.12 109.69 277.58 116.06 276.75 123.25 C 275.92 130.44 274.31 141.90 273.62 145.88 C 272.94 149.85 273.00 145.46 272.62 147.12 C 272.25 148.79 271.71 154.17 271.38 155.88 C 271.04 157.58 270.79 156.48 270.62 157.38 C 270.46 158.27 270.54 160.38 270.38 161.25 C 270.21 162.12 269.75 161.69 269.62 162.62 C 269.50 163.56 271.12 159.96 269.62 166.88 C 268.12 173.79 262.27 197.75 260.62 204.12 C 258.98 210.50 259.94 204.69 259.75 205.12 C 259.56 205.56 259.67 206.29 259.50 206.75 C 259.33 207.21 258.94 207.29 258.75 207.88 C 258.56 208.46 258.56 209.71 258.38 210.25 C 258.19 210.79 257.79 210.62 257.62 211.12 C 257.46 211.62 257.54 212.75 257.38 213.25 C 257.21 213.75 257.12 212.67 256.62 214.12 C 256.12 215.58 255.29 219.56 254.38 222.00 C 253.46 224.44 252.56 225.38 251.12 228.75 C 249.69 232.12 247.81 237.60 245.75 242.25 C 243.69 246.90 241.40 251.60 238.75 256.62 C 236.10 261.65 232.23 268.48 229.88 272.38 C 227.52 276.27 225.44 278.58 224.62 280.00 C 223.81 281.42 220.62 280.71 225.00 280.88 C 229.38 281.04 246.29 281.00 250.88 281.00 C 255.46 281.00 252.06 281.00 252.50 280.88 C 252.94 280.75 251.62 283.04 253.50 280.25 C 255.38 277.46 260.38 270.02 263.75 264.12 C 267.12 258.23 270.94 250.73 273.75 244.88 C 276.56 239.02 278.92 233.27 280.62 229.00 C 282.33 224.73 283.19 221.35 284.00 219.25 C 284.81 217.15 285.29 216.92 285.50 216.38 C 285.71 215.83 285.15 216.12 285.25 216.00 C 285.35 215.88 285.94 216.08 286.12 215.62 C 286.31 215.17 286.21 213.81 286.38 213.25 C 286.54 212.69 286.79 213.40 287.12 212.25 C 287.46 211.10 288.04 207.52 288.38 206.38 C 288.71 205.23 288.96 205.94 289.12 205.38 C 289.29 204.81 289.21 203.56 289.38 203.00 C 289.54 202.44 290.00 202.67 290.12 202.00 C 290.25 201.33 289.38 202.31 290.12 199.00 C 290.88 195.69 293.12 188.60 294.62 182.12 C 296.12 175.65 298.21 163.94 299.12 160.12 C 300.04 156.31 299.94 159.85 300.12 159.25 C 300.31 158.65 300.08 157.19 300.25 156.50 C 300.42 155.81 300.96 155.77 301.12 155.12 C 301.29 154.48 301.08 153.33 301.25 152.62 C 301.42 151.92 301.77 152.40 302.12 150.88 C 302.48 149.35 303.04 144.90 303.38 143.50 C 303.71 142.10 304.00 143.40 304.12 142.50 C 304.25 141.60 303.35 143.17 304.12 138.12 C 304.90 133.08 307.58 119.27 308.75 112.25 C 309.92 105.23 310.08 101.71 311.12 96.00 C 312.17 90.29 313.75 82.94 315.00 78.00 C 316.25 73.06 318.00 69.35 318.62 66.38 C 319.25 63.40 319.04 61.71 318.75 60.12 C 318.46 58.54 318.29 58.40 316.88 56.88 C 315.46 55.35 312.19 52.50 310.25 51.00 C 308.31 49.50 308.33 49.35 305.25 47.88 C 302.17 46.40 294.85 43.27 291.75 42.12 Z" id="s-8-f-2"/>
<path d="M 288.38 41.25 C 285.54 40.75 282.10 40.85 280.12 41.12 C 278.15 41.40 277.50 42.15 276.50 42.88 C 275.50 43.60 274.54 44.65 274.12 45.50 C 273.71 46.35 273.54 46.56 274.00 48.00 C 274.46 49.44 276.10 51.79 276.88 54.12 C 277.65 56.46 278.15 58.58 278.62 62.00 C 279.10 65.42 279.75 67.83 279.75 74.62 C 279.75 81.42 279.29 93.27 278.62 102.75 C 277.96 112.23 276.54 124.56 275.75 131.50 C 274.96 138.44 274.40 141.77 273.88 144.38 C 273.35 146.98 273.04 145.21 272.62 147.12 C 272.21 149.04 271.71 154.17 271.38 155.88 C 271.04 157.58 270.79 156.48 270.62 157.38 C 270.46 158.27 270.54 160.38 270.38 161.25 C 270.21 162.12 269.75 161.69 269.62 162.62 C 269.50 163.56 271.12 159.96 269.62 166.88 C 268.12 173.79 262.27 197.75 260.62 204.12 C 258.98 210.50 259.94 204.69 259.75 205.12 C 259.56 205.56 259.67 206.29 259.50 206.75 C 259.33 207.21 258.94 207.29 258.75 207.88 C 258.56 208.46 258.56 209.71 258.38 210.25 C 258.19 210.79 257.79 210.62 257.62 211.12 C 257.46 211.62 257.54 212.75 257.38 213.25 C 257.21 213.75 256.79 213.65 256.62 214.12 C 256.46 214.60 256.54 215.60 256.38 216.12 C 256.21 216.65 255.79 216.73 255.62 217.25 C 255.46 217.77 255.54 218.77 255.38 219.25 C 255.21 219.73 254.81 219.60 254.62 220.12 C 254.44 220.65 254.83 220.94 254.25 222.38 C 253.67 223.81 251.83 227.08 251.12 228.75 C 250.42 230.42 246.88 231.67 250.00 232.38 C 253.12 233.08 265.06 232.96 269.88 233.00 C 274.69 233.04 276.27 235.40 278.88 232.62 C 281.48 229.85 284.44 219.15 285.50 216.38 C 286.56 213.60 285.15 216.12 285.25 216.00 C 285.35 215.88 285.94 216.08 286.12 215.62 C 286.31 215.17 286.21 213.81 286.38 213.25 C 286.54 212.69 286.79 213.40 287.12 212.25 C 287.46 211.10 288.04 207.52 288.38 206.38 C 288.71 205.23 288.96 205.94 289.12 205.38 C 289.29 204.81 289.21 203.56 289.38 203.00 C 289.54 202.44 290.00 202.67 290.12 202.00 C 290.25 201.33 289.38 202.31 290.12 199.00 C 290.88 195.69 293.12 188.60 294.62 182.12 C 296.12 175.65 298.21 163.94 299.12 160.12 C 300.04 156.31 299.94 159.85 300.12 159.25 C 300.31 158.65 300.08 157.19 300.25 156.50 C 300.42 155.81 300.96 155.77 301.12 155.12 C 301.29 154.48 301.08 153.33 301.25 152.62 C 301.42 151.92 301.77 152.40 302.12 150.88 C 302.48 149.35 303.04 144.90 303.38 143.50 C 303.71 142.10 304.00 143.40 304.12 142.50 C 304.25 141.60 303.35 143.17 304.12 138.12 C 304.90 133.08 307.58 119.27 308.75 112.25 C 309.92 105.23 310.08 101.71 311.12 96.00 C 312.17 90.29 313.75 82.94 315.00 78.00 C 316.25 73.06 318.00 69.35 318.62 66.38 C 319.25 63.40 319.04 61.71 318.75 60.12 C 318.46 58.54 317.52 57.77 316.88 56.88 C 316.23 55.98 315.98 55.73 314.88 54.75 C 313.77 53.77 311.85 52.15 310.25 51.00 C 308.65 49.85 307.44 49.02 305.25 47.88 C 303.06 46.73 299.94 45.23 297.12 44.12 C 294.31 43.02 291.21 41.75 288.38 41.25 Z" id="s-8-f-3"/>
<path d="M 287.62 41.12 C 285.69 40.96 281.98 40.83 280.12 41.12 C 278.27 41.42 277.46 42.23 276.50 42.88 C 275.54 43.52 274.79 44.15 274.38 45.00 C 273.96 45.85 273.62 46.60 274.00 48.00 C 274.38 49.40 276.00 51.77 276.62 53.38 C 277.25 54.98 277.25 54.69 277.75 57.62 C 278.25 60.56 279.27 67.31 279.62 71.00 C 279.98 74.69 280.00 75.04 279.88 79.75 C 279.75 84.46 279.23 93.60 278.88 99.25 C 278.52 104.90 278.46 106.88 277.75 113.62 C 277.04 120.38 275.31 134.42 274.62 139.75 C 273.94 145.08 273.96 144.40 273.62 145.62 C 273.29 146.85 273.00 145.42 272.62 147.12 C 272.25 148.83 271.71 154.17 271.38 155.88 C 271.04 157.58 270.79 156.48 270.62 157.38 C 270.46 158.27 270.54 160.38 270.38 161.25 C 270.21 162.12 269.75 161.69 269.62 162.62 C 269.50 163.56 270.33 163.29 269.62 166.88 C 268.92 170.46 266.00 181.12 265.38 184.12 C 264.75 187.12 261.48 184.73 265.88 184.88 C 270.27 185.02 287.08 185.06 291.75 185.00 C 296.42 184.94 292.65 188.65 293.88 184.50 C 295.10 180.35 298.08 164.33 299.12 160.12 C 300.17 155.92 299.94 159.85 300.12 159.25 C 300.31 158.65 300.08 157.19 300.25 156.50 C 300.42 155.81 300.94 155.92 301.12 155.12 C 301.31 154.33 301.21 152.48 301.38 151.75 C 301.54 151.02 301.79 152.12 302.12 150.75 C 302.46 149.38 303.04 144.90 303.38 143.50 C 303.71 142.10 304.00 143.27 304.12 142.38 C 304.25 141.48 302.65 147.46 304.12 138.12 C 305.60 128.79 310.58 98.33 313.00 86.38 C 315.42 74.42 317.67 70.77 318.62 66.38 C 319.58 61.98 319.04 61.58 318.75 60.00 C 318.46 58.42 317.98 58.12 316.88 56.88 C 315.77 55.62 314.06 54.00 312.12 52.50 C 310.19 51.00 307.42 49.12 305.25 47.88 C 303.08 46.62 301.38 45.96 299.12 45.00 C 296.88 44.04 293.67 42.77 291.75 42.12 C 289.83 41.48 289.56 41.29 287.62 41.12 Z" id="s-8-f-4"/>
<path d="M 280.12 41.12 C 278.38 41.48 277.08 42.48 276.12 43.12 C 275.17 43.77 274.73 44.48 274.38 45.00 C 274.02 45.52 274.04 45.69 274.00 46.25 C 273.96 46.81 273.65 47.06 274.12 48.38 C 274.60 49.69 276.12 51.85 276.88 54.12 C 277.62 56.40 278.12 58.08 278.62 62.00 C 279.12 65.92 280.00 69.27 279.88 77.62 C 279.75 85.98 278.67 102.33 277.88 112.12 C 277.08 121.92 275.27 132.23 275.12 136.38 C 274.98 140.52 272.12 136.94 277.00 137.00 C 281.88 137.06 298.38 145.19 304.38 136.75 C 310.38 128.31 310.62 98.10 313.00 86.38 C 315.38 74.65 317.67 70.75 318.62 66.38 C 319.58 62.00 319.04 61.71 318.75 60.12 C 318.46 58.54 317.52 57.77 316.88 56.88 C 316.23 55.98 316.77 56.23 314.88 54.75 C 312.98 53.27 309.35 50.10 305.50 48.00 C 301.65 45.90 294.90 43.29 291.75 42.12 C 288.60 40.96 288.56 41.17 286.62 41.00 C 284.69 40.83 281.88 40.77 280.12 41.12 Z" id="s-8-f-5"/>
<path d="M 276.12 43.12 C 275.00 43.88 274.48 44.69 274.12 45.50 C 273.77 46.31 273.54 46.56 274.00 48.00 C 274.46 49.44 276.10 51.79 276.88 54.12 C 277.65 56.46 278.12 58.08 278.62 62.00 C 279.12 65.92 279.73 73.19 279.88 77.62 C 280.02 82.06 279.17 86.73 279.50 88.62 C 279.83 90.52 276.38 88.98 281.88 89.00 C 287.38 89.02 306.98 90.56 312.50 88.75 C 318.02 86.94 313.96 81.98 315.00 78.12 C 316.04 74.27 318.12 68.62 318.75 65.62 C 319.38 62.62 319.06 61.58 318.75 60.12 C 318.44 58.67 318.17 58.29 316.88 56.88 C 315.58 55.46 312.94 53.12 311.00 51.62 C 309.06 50.12 308.46 49.46 305.25 47.88 C 302.04 46.29 294.85 43.27 291.75 42.12 C 288.65 40.98 288.44 41.19 286.62 41.00 C 284.81 40.81 282.62 40.65 280.88 41.00 C 279.12 41.35 277.25 42.38 276.12 43.12 Z" id="s-8-f-6"/>
</g>
<g id="s-9" clip-path="url(#c-s-9)">
<use href="#s-9-f-0"/>
<path d="M 324.38 211.75 C 324.10 212.10 323.56 211.81 324.75 212.88 C 325.94 213.94 328.77 215.69 331.50 218.12 C 334.23 220.56 337.79 223.79 341.12 227.50 C 344.46 231.21 344.19 230.73 351.50 240.38 C 358.81 250.02 377.58 275.54 385.00 285.38 C 392.42 295.21 393.33 296.12 396.00 299.38 C 398.67 302.62 388.90 303.94 401.00 304.88 C 413.10 305.81 456.58 305.06 468.62 305.00 C 480.67 304.94 475.75 306.04 473.25 304.50 C 470.75 302.96 460.04 298.73 453.62 295.75 C 447.21 292.77 440.31 289.46 434.75 286.62 C 429.19 283.79 424.77 281.44 420.25 278.75 C 415.73 276.06 411.15 273.02 407.62 270.50 C 404.10 267.98 402.71 266.79 399.12 263.62 C 395.54 260.46 391.10 256.38 386.12 251.50 C 381.15 246.62 375.21 240.67 369.25 234.38 C 363.29 228.08 354.35 218.00 350.38 213.75 C 346.40 209.50 347.04 209.71 345.38 208.88 C 343.71 208.04 341.42 208.67 340.38 208.75 C 339.33 208.83 341.46 209.04 339.12 209.38 C 336.79 209.71 328.83 210.35 326.38 210.75 C 323.92 211.15 324.65 211.40 324.38 211.75 Z" id="s-9-f-1"/>
<path d="M 324.38 211.75 C 324.10 212.10 323.67 211.92 324.75 212.88 C 325.83 213.83 328.15 215.06 330.88 217.50 C 333.60 219.94 337.69 223.69 341.12 227.50 C 344.56 231.31 347.83 235.54 351.50 240.38 C 355.17 245.21 360.75 253.73 363.12 256.50 C 365.50 259.27 361.40 256.92 365.75 257.00 C 370.10 257.08 385.00 257.06 389.25 257.00 C 393.50 256.94 394.29 260.08 391.25 256.62 C 388.21 253.17 377.73 243.31 371.00 236.25 C 364.27 229.19 355.15 218.81 350.88 214.25 C 346.60 209.69 347.12 209.79 345.38 208.88 C 343.62 207.96 341.42 208.67 340.38 208.75 C 339.33 208.83 341.46 209.04 339.12 209.38 C 336.79 209.71 328.83 210.35 326.38 210.75 C 323.92 211.15 324.65 211.40 324.38 211.75 Z" id="s-9-f-2"/>
</g>
<g id="s-10" clip-path="url(#c-s-10)">
<use href="#s-10-f-0"/>
<path d="M 252.12 280.62 C 251.58 280.73 253.12 279.73 251.38 282.50 C 249.62 285.27 242.90 293.56 241.62 297.25 C 240.35 300.94 243.23 301.90 243.75 304.62 C 244.27 307.35 244.65 306.21 244.75 313.62 C 244.85 321.04 244.56 340.50 244.38 349.12 C 244.19 357.75 244.06 360.00 243.62 365.38 C 243.19 370.75 242.44 376.77 241.75 381.38 C 241.06 385.98 240.29 389.62 239.50 393.00 C 238.71 396.38 237.40 398.38 237.00 401.62 C 236.60 404.88 236.77 409.42 237.12 412.50 C 237.48 415.58 238.42 418.06 239.12 420.12 C 239.83 422.19 237.52 424.06 241.38 424.88 C 245.23 425.69 258.54 425.00 262.25 425.00 C 265.96 425.00 263.31 425.00 263.62 424.88 C 263.94 424.75 263.79 428.67 264.12 424.25 C 264.46 419.83 265.31 408.67 265.62 398.38 C 265.94 388.08 265.60 373.54 266.00 362.50 C 266.40 351.46 267.71 343.31 268.00 332.12 C 268.29 320.94 267.85 301.88 267.75 295.38 C 267.65 288.88 269.56 295.38 267.38 293.12 C 265.19 290.88 257.17 283.96 254.62 281.88 C 252.08 279.79 252.67 280.52 252.12 280.62 Z" id="s-10-f-1"/>
<path d="M 252.12 280.62 C 251.71 280.81 253.12 279.73 251.38 282.50 C 249.62 285.27 242.90 293.56 241.62 297.25 C 240.35 300.94 243.23 301.90 243.75 304.62 C 244.27 307.35 244.65 306.21 244.75 313.62 C 244.85 321.04 244.56 340.50 244.38 349.12 C 244.19 357.75 243.98 360.85 243.62 365.38 C 243.27 369.90 242.40 374.33 242.25 376.25 C 242.10 378.17 238.92 376.75 242.75 376.88 C 246.58 377.00 261.40 377.06 265.25 377.00 C 269.10 376.94 265.75 378.92 265.88 376.50 C 266.00 374.08 265.65 369.90 266.00 362.50 C 266.35 355.10 267.71 343.31 268.00 332.12 C 268.29 320.94 267.85 301.88 267.75 295.38 C 267.65 288.88 269.69 295.46 267.38 293.12 C 265.06 290.79 256.42 283.46 253.88 281.38 C 251.33 279.29 252.54 280.44 252.12 280.62 Z" id="s-10-f-2"/>
<path d="M 252.25 280.88 C 250.21 283.52 243.02 293.17 241.62 297.25 C 240.23 301.33 243.38 302.90 243.88 305.38 C 244.38 307.85 244.40 308.35 244.62 312.12 C 244.85 315.90 244.92 325.21 245.25 328.00 C 245.58 330.79 242.90 328.73 246.62 328.88 C 250.35 329.02 264.06 328.98 267.62 328.88 C 271.19 328.77 267.96 332.73 268.00 328.25 C 268.04 323.77 267.98 307.85 267.88 302.00 C 267.77 296.15 269.71 296.56 267.38 293.12 C 265.04 289.69 256.40 283.42 253.88 281.38 C 251.35 279.33 254.29 278.23 252.25 280.88 Z" id="s-10-f-3"/>
</g>
<g id="s-11" clip-path="url(#c-s-11)">
<use href="#s-11-f-0"/>
<path d="M 253.25 280.88 C 250.23 281.48 252.96 281.15 253.00 281.38 C 253.04 281.60 251.96 280.92 253.50 282.25 C 255.04 283.58 259.94 287.38 262.25 289.38 C 264.56 291.38 265.62 293.98 267.38 294.25 C 269.12 294.52 270.04 292.04 272.75 291.00 C 275.46 289.96 279.65 289.00 283.62 288.00 C 287.60 287.00 292.40 285.79 296.62 285.00 C 300.85 284.21 306.04 283.60 309.00 283.25 C 311.96 282.90 310.58 282.92 314.38 282.88 C 318.17 282.83 328.25 282.79 331.75 283.00 C 335.25 283.21 334.38 283.56 335.38 284.12 C 336.38 284.69 337.19 285.50 337.75 286.38 C 338.31 287.25 338.42 287.08 338.75 289.38 C 339.08 291.67 339.40 294.33 339.75 300.12 C 340.10 305.92 340.71 312.73 340.88 324.12 C 341.04 335.52 341.10 355.02 340.75 368.50 C 340.40 381.98 339.25 398.52 338.75 405.00 C 338.25 411.48 337.77 400.44 337.75 407.38 C 337.73 414.31 338.42 439.60 338.62 446.62 C 338.83 453.65 338.77 448.67 339.00 449.50 C 339.23 450.33 339.48 450.75 340.00 451.62 C 340.52 452.50 341.38 453.83 342.12 454.75 C 342.88 455.67 343.81 456.60 344.50 457.12 C 345.19 457.65 345.67 457.75 346.25 457.88 C 346.83 458.00 347.12 458.06 348.00 457.88 C 348.88 457.69 349.71 457.98 351.50 456.75 C 353.29 455.52 356.38 453.10 358.75 450.50 C 361.12 447.90 364.10 443.65 365.75 441.12 C 367.40 438.60 367.79 437.27 368.62 435.38 C 369.46 433.48 370.08 431.81 370.75 429.75 C 371.42 427.69 372.12 425.38 372.62 423.00 C 373.12 420.62 373.56 418.23 373.75 415.50 C 373.94 412.77 374.71 414.25 373.75 406.62 C 372.79 399.00 369.29 379.35 368.00 369.75 C 366.71 360.15 366.12 359.31 366.00 349.00 C 365.88 338.69 366.92 316.38 367.25 307.88 C 367.58 299.38 367.73 300.46 368.00 298.00 C 368.27 295.54 368.23 295.27 368.88 293.12 C 369.52 290.98 371.40 286.90 371.88 285.12 C 372.35 283.35 371.94 283.35 371.75 282.50 C 371.56 281.65 371.71 281.40 370.75 280.00 C 369.79 278.60 367.65 275.79 366.00 274.12 C 364.35 272.46 362.79 271.35 360.88 270.00 C 358.96 268.65 356.83 267.31 354.50 266.00 C 352.17 264.69 349.02 263.10 346.88 262.12 C 344.73 261.15 343.38 260.48 341.62 260.12 C 339.88 259.77 338.06 259.83 336.38 260.00 C 334.69 260.17 337.48 259.33 331.50 261.12 C 325.52 262.92 308.27 268.48 300.50 270.75 C 292.73 273.02 289.77 273.58 284.88 274.75 C 279.98 275.92 276.40 276.73 271.12 277.75 C 265.85 278.77 256.27 280.27 253.25 280.88 Z" id="s-11-f-1"/>
<path d="M 253.25 280.88 C 250.23 281.48 252.96 281.15 253.00 281.38 C 253.04 281.60 251.96 280.92 253.50 282.25 C 255.04 283.58 259.94 287.38 262.25 289.38 C 264.56 291.38 265.62 293.98 267.38 294.25 C 269.12 294.52 269.38 292.21 272.75 291.00 C 276.12 289.79 282.56 288.17 287.62 287.00 C 292.69 285.83 299.17 284.67 303.12 284.00 C 307.08 283.33 307.15 283.19 311.38 283.00 C 315.60 282.81 324.83 282.83 328.50 282.88 C 332.17 282.92 331.98 282.85 333.38 283.25 C 334.77 283.65 336.12 284.69 336.88 285.25 C 337.62 285.81 337.56 285.96 337.88 286.62 C 338.19 287.29 338.27 284.54 338.75 289.25 C 339.23 293.96 340.40 309.06 340.75 314.88 C 341.10 320.69 340.88 315.19 340.88 324.12 C 340.88 333.06 341.10 355.02 340.75 368.50 C 340.40 381.98 339.25 398.52 338.75 405.00 C 338.25 411.48 337.92 406.62 337.75 407.38 C 337.58 408.12 337.33 409.06 337.75 409.50 C 338.17 409.94 334.27 409.94 340.25 410.00 C 346.23 410.06 368.04 410.44 373.62 409.88 C 379.21 409.31 374.69 413.31 373.75 406.62 C 372.81 399.94 369.29 379.35 368.00 369.75 C 366.71 360.15 366.17 358.62 366.00 349.00 C 365.83 339.38 366.69 320.29 367.00 312.00 C 367.31 303.71 367.54 302.48 367.88 299.25 C 368.21 296.02 368.33 294.98 369.00 292.62 C 369.67 290.27 371.42 286.81 371.88 285.12 C 372.33 283.44 371.92 283.29 371.75 282.50 C 371.58 281.71 371.60 281.54 370.88 280.38 C 370.15 279.21 369.31 277.42 367.38 275.50 C 365.44 273.58 362.31 270.94 359.25 268.88 C 356.19 266.81 351.94 264.58 349.00 263.12 C 346.06 261.67 343.73 260.65 341.62 260.12 C 339.52 259.60 338.06 259.83 336.38 260.00 C 334.69 260.17 337.48 259.33 331.50 261.12 C 325.52 262.92 308.27 268.48 300.50 270.75 C 292.73 273.02 289.77 273.58 284.88 274.75 C 279.98 275.92 276.40 276.73 271.12 277.75 C 265.85 278.77 256.27 280.27 253.25 280.88 Z" id="s-11-f-2"/>
<path d="M 253.12 281.00 C 252.73 281.35 251.98 280.85 253.50 282.25 C 255.02 283.65 259.94 287.38 262.25 289.38 C 264.56 291.38 265.62 293.98 267.38 294.25 C 269.12 294.52 269.38 292.21 272.75 291.00 C 276.12 289.79 282.56 288.17 287.62 287.00 C 292.69 285.83 299.17 284.67 303.12 284.00 C 307.08 283.33 307.15 283.19 311.38 283.00 C 315.60 282.81 324.83 282.83 328.50 282.88 C 332.17 282.92 332.12 282.98 333.38 283.25 C 334.62 283.52 335.27 283.98 336.00 284.50 C 336.73 285.02 337.31 285.73 337.75 286.38 C 338.19 287.02 338.12 283.62 338.62 288.38 C 339.12 293.12 340.40 302.69 340.75 314.88 C 341.10 327.06 340.44 353.65 340.75 361.50 C 341.06 369.35 338.27 361.96 342.62 362.00 C 346.98 362.04 362.98 364.98 366.88 361.75 C 370.77 358.52 365.96 351.27 366.00 342.62 C 366.04 333.98 366.77 317.44 367.12 309.88 C 367.48 302.31 367.81 300.12 368.12 297.25 C 368.44 294.38 368.40 294.50 369.00 292.62 C 369.60 290.75 371.27 287.50 371.75 286.00 C 372.23 284.50 372.19 284.88 371.88 283.62 C 371.56 282.38 370.85 280.08 369.88 278.50 C 368.90 276.92 367.29 275.40 366.00 274.12 C 364.71 272.85 364.04 272.23 362.12 270.88 C 360.21 269.52 357.48 267.65 354.50 266.00 C 351.52 264.35 346.50 262.00 344.25 261.00 C 342.00 260.00 342.31 260.17 341.00 260.00 C 339.69 259.83 337.96 259.81 336.38 260.00 C 334.79 260.19 337.48 259.33 331.50 261.12 C 325.52 262.92 308.27 268.48 300.50 270.75 C 292.73 273.02 290.65 273.42 284.88 274.75 C 279.10 276.08 270.71 277.85 265.88 278.75 C 261.04 279.65 258.00 279.75 255.88 280.12 C 253.75 280.50 253.52 280.65 253.12 281.00 Z" id="s-11-f-3"/>
<path d="M 371.88 285.12 C 372.35 283.35 372.08 283.60 371.75 282.50 C 371.42 281.40 370.83 279.90 369.88 278.50 C 368.92 277.10 367.29 275.40 366.00 274.12 C 364.71 272.85 364.04 272.23 362.12 270.88 C 360.21 269.52 356.69 267.29 354.50 266.00 C 352.31 264.71 351.25 264.12 349.00 263.12 C 346.75 262.12 343.10 260.52 341.00 260.00 C 338.90 259.48 337.88 259.83 336.38 260.00 C 334.88 260.17 335.17 260.04 332.00 261.00 C 328.83 261.96 323.92 263.79 317.38 265.75 C 310.83 267.71 300.46 270.75 292.75 272.75 C 285.04 274.75 277.69 276.42 271.12 277.75 C 264.56 279.08 256.40 280.15 253.38 280.75 C 250.35 281.35 252.98 281.12 253.00 281.38 C 253.02 281.62 251.96 280.92 253.50 282.25 C 255.04 283.58 259.94 287.38 262.25 289.38 C 264.56 291.38 265.62 293.98 267.38 294.25 C 269.12 294.52 267.88 292.54 272.75 291.00 C 277.62 289.46 290.19 286.33 296.62 285.00 C 303.06 283.67 306.06 283.35 311.38 283.00 C 316.69 282.65 324.83 282.83 328.50 282.88 C 332.17 282.92 332.02 282.90 333.38 283.25 C 334.73 283.60 335.75 284.15 336.62 285.00 C 337.50 285.85 337.96 283.65 338.62 288.38 C 339.29 293.10 339.94 309.10 340.62 313.38 C 341.31 317.65 338.44 313.92 342.75 314.00 C 347.06 314.08 362.46 314.04 366.50 313.88 C 370.54 313.71 366.77 315.44 367.00 313.00 C 367.23 310.56 367.56 302.56 367.88 299.25 C 368.19 295.94 368.21 295.48 368.88 293.12 C 369.54 290.77 371.40 286.90 371.88 285.12 Z" id="s-11-f-4"/>
<path d="M 353.38 266.12 C 353.33 265.83 354.40 265.98 352.88 265.12 C 351.35 264.27 346.23 261.85 344.25 261.00 C 342.27 260.15 342.31 260.17 341.00 260.00 C 339.69 259.83 344.42 257.88 336.38 260.00 C 328.33 262.12 303.62 269.79 292.75 272.75 C 281.88 275.71 277.27 276.52 271.12 277.75 C 264.98 278.98 258.85 279.60 255.88 280.12 C 252.90 280.65 253.73 280.67 253.25 280.88 C 252.77 281.08 252.96 281.15 253.00 281.38 C 253.04 281.60 251.96 280.92 253.50 282.25 C 255.04 283.58 259.94 287.38 262.25 289.38 C 264.56 291.38 265.56 294.00 267.38 294.25 C 269.19 294.50 268.25 292.42 273.12 290.88 C 278.00 289.33 290.25 286.31 296.62 285.00 C 303.00 283.69 305.79 283.38 311.38 283.00 C 316.96 282.62 323.17 285.44 330.12 282.75 C 337.08 280.06 349.25 269.65 353.12 266.88 C 357.00 264.10 353.42 266.42 353.38 266.12 Z" id="s-11-f-5"/>
<path d="M 348.88 263.38 C 348.54 262.12 348.08 262.67 346.88 262.12 C 345.67 261.58 343.38 260.48 341.62 260.12 C 339.88 259.77 344.52 257.90 336.38 260.00 C 328.23 262.10 303.62 269.79 292.75 272.75 C 281.88 275.71 277.27 276.52 271.12 277.75 C 264.98 278.98 258.85 279.60 255.88 280.12 C 252.90 280.65 253.73 280.67 253.25 280.88 C 252.77 281.08 252.96 281.15 253.00 281.38 C 253.04 281.60 251.96 280.92 253.50 282.25 C 255.04 283.58 259.94 287.38 262.25 289.38 C 264.56 291.38 265.56 294.00 267.38 294.25 C 269.19 294.50 268.25 292.42 273.12 290.88 C 278.00 289.33 290.25 286.31 296.62 285.00 C 303.00 283.69 305.88 283.35 311.38 283.00 C 316.88 282.65 326.23 283.04 329.62 282.88 C 333.02 282.71 328.54 284.21 331.75 282.00 C 334.96 279.79 346.02 272.73 348.88 269.62 C 351.73 266.52 349.21 264.62 348.88 263.38 Z" id="s-11-f-6"/>
<path d="M 301.00 271.88 C 300.92 269.85 300.90 271.02 300.50 270.88 C 300.10 270.73 301.31 270.33 298.62 271.00 C 295.94 271.67 289.81 273.58 284.38 274.88 C 278.94 276.17 270.75 277.88 266.00 278.75 C 261.25 279.62 257.98 279.79 255.88 280.12 C 253.77 280.46 253.85 280.54 253.38 280.75 C 252.90 280.96 252.98 281.12 253.00 281.38 C 253.02 281.62 251.96 280.92 253.50 282.25 C 255.04 283.58 259.94 287.38 262.25 289.38 C 264.56 291.38 265.56 294.00 267.38 294.25 C 269.19 294.50 269.75 292.08 273.12 290.88 C 276.50 289.67 283.71 287.98 287.62 287.00 C 291.54 286.02 294.50 285.40 296.62 285.00 C 298.75 284.60 299.65 284.96 300.38 284.62 C 301.10 284.29 300.90 285.12 301.00 283.00 C 301.10 280.88 301.08 273.90 301.00 271.88 Z" id="s-11-f-7"/>
</g>
<g id="s-12" clip-path="url(#c-s-12)">
<use href="#s-12-f-0"/>
<path d="M 315.88 312.88 C 315.69 310.42 318.79 311.56 314.88 312.38 C 310.96 313.19 300.19 316.17 292.38 317.75 C 284.56 319.33 272.15 321.12 268.00 321.88 C 263.85 322.62 267.58 320.48 267.50 322.25 C 267.42 324.02 266.83 330.58 267.50 332.50 C 268.17 334.42 269.06 333.54 271.50 333.75 C 273.94 333.96 274.79 334.58 282.12 333.75 C 289.46 332.92 309.85 329.85 315.50 328.75 C 321.15 327.65 315.94 329.77 316.00 327.12 C 316.06 324.48 316.06 315.33 315.88 312.88 Z" id="s-12-f-1"/>
</g>
<g id="s-13" clip-path="url(#c-s-13)">
<use href="#s-13-f-0"/>
<path d="M 313.88 355.88 C 313.69 353.42 316.79 354.56 312.88 355.38 C 308.96 356.19 298.23 359.17 290.38 360.75 C 282.52 362.33 269.90 362.42 265.75 364.88 C 261.60 367.33 264.83 373.52 265.50 375.50 C 266.17 377.48 267.31 376.54 269.75 376.75 C 272.19 376.96 272.83 377.58 280.12 376.75 C 287.42 375.92 307.85 372.85 313.50 371.75 C 319.15 370.65 313.94 372.77 314.00 370.12 C 314.06 367.48 314.06 358.33 313.88 355.88 Z" id="s-13-f-1"/>
</g>
<g id="s-14" clip-path="url(#c-s-14)">
<use href="#s-14-f-0"/>
<path d="M 311.88 403.00 C 311.65 400.15 314.33 402.17 310.62 402.62 C 306.92 403.08 297.21 404.85 289.62 405.75 C 282.04 406.65 269.33 407.40 265.12 408.00 C 260.92 408.60 264.58 408.58 264.38 409.38 C 264.17 410.17 264.02 410.23 263.88 412.75 C 263.73 415.27 263.19 422.48 263.50 424.50 C 263.81 426.52 263.67 424.83 265.75 424.88 C 267.83 424.92 268.44 425.27 276.00 424.75 C 283.56 424.23 305.15 422.35 311.12 421.75 C 317.10 421.15 311.73 421.46 311.88 421.12 C 312.02 420.79 312.00 422.77 312.00 419.75 C 312.00 416.73 312.10 405.85 311.88 403.00 Z" id="s-14-f-1"/>
</g>
</svg>