<?xml version="1.0" encoding="UTF-8"?>
<svg xmlns="http://www.w3.org/2000/svg" viewBox="0 0 500 500">
<defs>
<path d="M 108.62 61.50 C 108.04 62.12 107.79 62.50 107.62 63.75 C 107.46 65.00 107.56 67.79 107.62 69.00 C 107.69 70.21 107.56 70.06 108.00 71.00 C 108.44 71.94 108.85 72.98 110.25 74.62 C 111.65 76.27 113.90 78.71 116.38 80.88 C 118.85 83.04 119.00 82.31 125.12 87.62 C 131.25 92.94 147.71 108.08 153.12 112.75 C 158.54 117.42 156.40 114.98 157.62 115.62 C 158.85 116.27 158.81 116.40 160.50 116.62 C 162.19 116.85 166.17 116.98 167.75 117.00 C 169.33 117.02 169.40 116.94 170.00 116.75 C 170.60 116.56 170.65 116.56 171.38 115.88 C 172.10 115.19 173.65 113.69 174.38 112.62 C 175.10 111.56 175.46 110.77 175.75 109.50 C 176.04 108.23 176.12 107.19 176.12 105.00 C 176.12 102.81 176.00 98.77 175.75 96.38 C 175.50 93.98 175.15 92.73 174.62 90.62 C 174.10 88.52 173.12 85.21 172.62 83.75 C 172.12 82.29 172.73 83.17 171.62 81.88 C 170.52 80.58 168.29 77.79 166.00 76.00 C 163.71 74.21 160.96 72.62 157.88 71.12 C 154.79 69.62 150.27 68.00 147.50 67.00 C 144.73 66.00 146.21 66.29 141.25 65.12 C 136.29 63.96 122.77 60.85 117.75 60.00 C 112.73 59.15 112.65 59.75 111.12 60.00 C 109.60 60.25 109.21 60.88 108.62 61.50 Z" id="s-0-f-0"/>
<clipPath id="c-s-0"><use href="#s-0-f-0"/></clipPath>
<path d="M 59.38 154.62 C 58.98 154.98 58.92 154.62 58.88 155.62 C 58.83 156.62 58.94 159.19 59.12 160.62 C 59.31 162.06 59.48 162.94 60.00 164.25 C 60.52 165.56 58.90 164.69 62.25 168.50 C 65.60 172.31 75.77 182.73 80.12 187.12 C 84.48 191.52 85.75 192.56 88.38 194.88 C 91.00 197.19 93.21 199.00 95.88 201.00 C 98.54 203.00 101.60 205.25 104.38 206.88 C 107.15 208.50 110.77 210.10 112.50 210.75 C 114.23 211.40 113.83 210.90 114.75 210.75 C 115.67 210.60 117.06 210.23 118.00 209.88 C 118.94 209.52 119.46 209.31 120.38 208.62 C 121.29 207.94 122.77 206.54 123.50 205.75 C 124.23 204.96 124.38 204.71 124.75 203.88 C 125.12 203.04 125.58 203.29 125.75 200.75 C 125.92 198.21 126.08 191.50 125.75 188.62 C 125.42 185.75 124.56 185.06 123.75 183.50 C 122.94 181.94 122.17 180.83 120.88 179.25 C 119.58 177.67 117.44 175.40 116.00 174.00 C 114.56 172.60 114.10 172.21 112.25 170.88 C 110.40 169.54 107.75 167.62 104.88 166.00 C 102.00 164.38 100.04 163.12 95.00 161.12 C 89.96 159.12 78.88 155.33 74.62 154.00 C 70.38 152.67 71.19 153.29 69.50 153.12 C 67.81 152.96 65.88 152.94 64.50 153.00 C 63.12 153.06 62.10 153.23 61.25 153.50 C 60.40 153.77 59.77 154.27 59.38 154.62 Z" id="s-1-f-0"/>
<clipPath id="c-s-1"><use href="#s-1-f-0"/></clipPath>
<path d="M 165.88 232.62 C 165.33 232.56 164.62 232.29 163.50 232.88 C 162.38 233.46 160.56 234.85 159.12 236.12 C 157.69 237.40 156.42 238.62 154.88 240.50 C 153.33 242.38 157.69 234.69 149.88 247.38 C 142.06 260.06 116.67 302.15 108.00 316.62 C 99.33 331.10 100.92 329.19 97.88 334.25 C 94.83 339.31 92.65 343.17 89.75 347.00 C 86.85 350.83 83.46 354.33 80.50 357.25 C 77.54 360.17 74.06 362.88 72.00 364.50 C 69.94 366.12 69.15 366.17 68.12 367.00 C 67.10 367.83 66.38 368.71 65.88 369.50 C 65.38 370.29 65.27 370.60 65.12 371.75 C 64.98 372.90 64.67 373.65 65.00 376.38 C 65.33 379.10 66.25 384.40 67.12 388.12 C 68.00 391.85 69.08 395.42 70.25 398.75 C 71.42 402.08 73.00 405.75 74.12 408.12 C 75.25 410.50 75.65 411.06 77.00 413.00 C 78.35 414.94 80.88 418.15 82.25 419.75 C 83.62 421.35 83.48 421.29 85.25 422.62 C 87.02 423.96 91.06 426.77 92.88 427.75 C 94.69 428.73 95.19 428.40 96.12 428.50 C 97.06 428.60 97.77 428.52 98.50 428.38 C 99.23 428.23 99.79 428.19 100.50 427.62 C 101.21 427.06 102.23 426.08 102.75 425.00 C 103.27 423.92 103.44 422.85 103.62 421.12 C 103.81 419.40 103.65 416.73 103.88 414.62 C 104.10 412.52 104.31 411.42 105.00 408.50 C 105.69 405.58 106.67 401.65 108.00 397.12 C 109.33 392.60 110.48 388.79 113.00 381.38 C 115.52 373.96 119.15 363.48 123.12 352.62 C 127.10 341.77 130.25 333.27 136.88 316.25 C 143.50 299.23 158.06 262.50 162.88 250.50 C 167.69 238.50 164.98 246.38 165.75 244.25 C 166.52 242.12 167.23 239.33 167.50 237.75 C 167.77 236.17 167.50 235.50 167.38 234.75 C 167.25 234.00 167.00 233.60 166.75 233.25 C 166.50 232.90 166.42 232.69 165.88 232.62 Z" id="s-2-f-0"/>
<clipPath id="c-s-2"><use href="#s-2-f-0"/></clipPath>
<path d="M 377.50 129.88 C 375.23 128.31 371.15 125.92 367.12 124.12 C 363.10 122.33 357.44 120.40 353.38 119.12 C 349.31 117.85 346.21 116.94 342.75 116.50 C 339.29 116.06 335.35 116.23 332.62 116.50 C 329.90 116.77 328.29 117.44 326.38 118.12 C 324.46 118.81 323.08 119.83 321.12 120.62 C 319.17 121.42 323.77 120.19 314.62 122.88 C 305.48 125.56 281.96 133.42 266.25 136.75 C 250.54 140.08 233.94 141.42 220.38 142.88 C 206.81 144.33 191.50 144.96 184.88 145.50 C 178.25 146.04 181.92 145.67 180.62 146.12 C 179.33 146.58 177.73 147.27 177.12 148.25 C 176.52 149.23 176.85 151.00 177.00 152.00 C 177.15 153.00 177.23 153.19 178.00 154.25 C 178.77 155.31 180.33 157.12 181.62 158.38 C 182.92 159.62 184.23 160.69 185.75 161.75 C 187.27 162.81 188.83 163.92 190.75 164.75 C 192.67 165.58 195.04 166.29 197.25 166.75 C 199.46 167.21 201.54 167.42 204.00 167.50 C 206.46 167.58 208.31 167.73 212.00 167.25 C 215.69 166.77 214.21 167.67 226.12 164.62 C 238.04 161.58 269.94 152.46 283.50 149.00 C 297.06 145.54 302.02 144.83 307.50 143.88 C 312.98 142.92 314.25 143.25 316.38 143.25 C 318.50 143.25 319.44 143.67 320.25 143.88 C 321.06 144.08 320.83 144.10 321.25 144.50 C 321.67 144.90 322.31 145.56 322.75 146.25 C 323.19 146.94 323.54 147.62 323.88 148.62 C 324.21 149.62 324.58 151.04 324.75 152.25 C 324.92 153.46 325.71 151.08 324.88 155.88 C 324.04 160.67 321.44 173.56 319.75 181.00 C 318.06 188.44 316.58 193.96 314.75 200.50 C 312.92 207.04 311.23 212.96 308.75 220.25 C 306.27 227.54 303.21 236.17 299.88 244.25 C 296.54 252.33 292.10 261.90 288.75 268.75 C 285.40 275.60 283.62 279.17 279.75 285.38 C 275.88 291.58 269.75 300.25 265.50 306.00 C 261.25 311.75 257.56 316.00 254.25 319.88 C 250.94 323.75 250.65 324.38 245.62 329.25 C 240.60 334.12 231.17 343.08 224.12 349.12 C 217.08 355.17 210.71 360.06 203.38 365.50 C 196.04 370.94 186.65 377.35 180.12 381.75 C 173.60 386.15 170.10 388.33 164.25 391.88 C 158.40 395.42 148.88 400.48 145.00 403.00 C 141.12 405.52 141.69 406.10 141.00 407.00 C 140.31 407.90 140.71 407.92 140.88 408.38 C 141.04 408.83 141.67 409.44 142.00 409.75 C 142.33 410.06 142.19 410.17 142.88 410.25 C 143.56 410.33 144.29 410.52 146.12 410.25 C 147.96 409.98 148.73 410.40 153.88 408.62 C 159.02 406.85 168.31 403.27 177.00 399.62 C 185.69 395.98 197.65 390.75 206.00 386.75 C 214.35 382.75 220.73 379.27 227.12 375.62 C 233.52 371.98 239.65 368.04 244.38 364.88 C 249.10 361.71 251.71 359.79 255.50 356.62 C 259.29 353.46 262.73 350.40 267.12 345.88 C 271.52 341.35 276.88 335.62 281.88 329.50 C 286.88 323.38 293.46 314.46 297.12 309.12 C 300.79 303.79 301.77 300.81 303.88 297.50 C 305.98 294.19 307.08 293.44 309.75 289.25 C 312.42 285.06 316.71 278.10 319.88 272.38 C 323.04 266.65 326.10 260.40 328.75 254.88 C 331.40 249.35 333.44 244.83 335.75 239.25 C 338.06 233.67 340.46 227.40 342.62 221.38 C 344.79 215.35 347.02 208.73 348.75 203.12 C 350.48 197.52 351.44 192.88 353.00 187.75 C 354.56 182.62 356.65 176.23 358.12 172.38 C 359.60 168.52 360.38 167.27 361.88 164.62 C 363.38 161.98 364.50 159.73 367.12 156.50 C 369.75 153.27 375.35 147.79 377.62 145.25 C 379.90 142.71 380.08 142.29 380.75 141.25 C 381.42 140.21 381.46 139.90 381.62 139.00 C 381.79 138.10 381.90 136.79 381.75 135.88 C 381.60 134.96 381.46 134.50 380.75 133.50 C 380.04 132.50 379.77 131.44 377.50 129.88 Z" id="s-3-f-0"/>
<clipPath id="c-s-3"><use href="#s-3-f-0"/></clipPath>
<path d="M 186.00 205.25 C 185.60 205.98 185.83 207.65 186.00 208.50 C 186.17 209.35 183.25 206.65 187.00 210.38 C 190.75 214.10 202.92 225.19 208.50 230.88 C 214.08 236.56 216.12 239.21 220.50 244.50 C 224.88 249.79 229.25 255.29 234.75 262.62 C 240.25 269.96 248.48 281.40 253.50 288.50 C 258.52 295.60 262.83 302.06 264.88 305.25 C 266.92 308.44 265.29 306.92 265.75 307.62 C 266.21 308.33 267.29 309.00 267.62 309.50 C 267.96 310.00 267.08 309.62 267.75 310.62 C 268.42 311.62 270.98 314.56 271.62 315.50 C 272.27 316.44 271.15 315.58 271.62 316.25 C 272.10 316.92 273.98 318.77 274.50 319.50 C 275.02 320.23 274.40 320.12 274.75 320.62 C 275.10 321.12 276.29 322.00 276.62 322.50 C 276.96 323.00 276.06 322.54 276.75 323.62 C 277.44 324.71 279.83 327.90 280.75 329.00 C 281.67 330.10 280.25 327.75 282.25 330.25 C 284.25 332.75 287.17 337.02 292.75 344.00 C 298.33 350.98 307.73 362.62 315.75 372.12 C 323.77 381.62 336.10 395.71 340.88 401.00 C 345.65 406.29 342.77 402.75 344.38 403.88 C 345.98 405.00 347.60 406.60 350.50 407.75 C 353.40 408.90 357.04 409.92 361.75 410.75 C 366.46 411.58 371.83 412.08 378.75 412.75 C 385.67 413.42 394.62 414.25 403.25 414.75 C 411.88 415.25 421.46 415.62 430.50 415.75 C 439.54 415.88 451.35 415.81 457.50 415.50 C 463.65 415.19 465.29 414.33 467.38 413.88 C 469.46 413.42 469.27 413.23 470.00 412.75 C 470.73 412.27 471.46 411.71 471.75 411.00 C 472.04 410.29 472.06 409.17 471.75 408.50 C 471.44 407.83 472.44 408.42 469.88 407.00 C 467.31 405.58 466.19 404.48 456.38 400.00 C 446.56 395.52 424.50 385.85 411.00 380.12 C 397.50 374.40 383.35 369.19 375.38 365.62 C 367.40 362.06 368.27 361.94 363.12 358.75 C 357.98 355.56 349.25 349.77 344.50 346.50 C 339.75 343.23 338.83 342.46 334.62 339.12 C 330.42 335.79 325.04 331.58 319.25 326.50 C 313.46 321.42 303.79 312.42 299.88 308.62 C 295.96 304.83 296.71 304.62 295.75 303.75 C 294.79 302.88 294.38 303.60 294.12 303.38 C 293.88 303.15 294.65 303.08 294.25 302.38 C 293.85 301.67 293.85 301.40 291.75 299.12 C 289.65 296.85 283.48 290.79 281.62 288.75 C 279.77 286.71 281.17 287.42 280.62 286.88 C 280.08 286.33 280.94 288.27 278.38 285.50 C 275.81 282.73 270.81 276.96 265.25 270.25 C 259.69 263.54 251.23 253.21 245.00 245.25 C 238.77 237.29 232.15 227.71 227.88 222.50 C 223.60 217.29 221.98 216.25 219.38 214.00 C 216.77 211.75 214.08 210.17 212.25 209.00 C 210.42 207.83 209.98 207.67 208.38 207.00 C 206.77 206.33 204.44 205.48 202.62 205.00 C 200.81 204.52 199.44 204.31 197.50 204.12 C 195.56 203.94 192.52 203.88 191.00 203.88 C 189.48 203.88 189.21 203.90 188.38 204.12 C 187.54 204.35 186.40 204.52 186.00 205.25 Z" id="s-4-f-0"/>
<clipPath id="c-s-4"><use href="#s-4-f-0"/></clipPath>
</defs>
<g id="s-0" clip-path="url(#c-s-0)">
<use href="#s-0-f-0"/>
<path d="M 107.88 62.50 C 107.42 64.21 107.48 68.35 107.88 70.38 C 108.27 72.40 108.83 72.88 110.25 74.62 C 111.67 76.38 113.90 78.71 116.38 80.88 C 118.85 83.04 119.58 82.79 125.12 87.62 C 130.67 92.46 144.52 105.38 149.62 109.88 C 154.73 114.38 153.94 113.50 155.75 114.62 C 157.56 115.75 159.10 116.27 160.50 116.62 C 161.90 116.98 162.98 117.02 164.12 116.75 C 165.27 116.48 166.23 115.79 167.38 115.00 C 168.52 114.21 169.60 113.40 171.00 112.00 C 172.40 110.60 174.90 107.75 175.75 106.62 C 176.60 105.50 176.12 106.96 176.12 105.25 C 176.12 103.54 176.33 99.96 175.75 96.38 C 175.17 92.79 173.62 86.56 172.62 83.75 C 171.62 80.94 171.21 81.04 169.75 79.50 C 168.29 77.96 165.85 75.90 163.88 74.50 C 161.90 73.10 160.15 72.21 157.88 71.12 C 155.60 70.04 154.44 69.35 150.25 68.00 C 146.06 66.65 138.52 64.35 132.75 63.00 C 126.98 61.65 119.31 60.35 115.62 59.88 C 111.94 59.40 111.92 59.69 110.62 60.12 C 109.33 60.56 108.33 60.79 107.88 62.50 Z" id="s-0-f-1"/>
<path d="M 107.88 62.50 C 107.58 64.12 107.48 68.35 107.88 70.38 C 108.27 72.40 108.83 72.88 110.25 74.62 C 111.67 76.38 113.90 78.71 116.38 80.88 C 118.85 83.04 119.58 82.79 125.12 87.62 C 130.67 92.46 144.73 105.52 149.62 109.88 C 154.52 114.23 153.31 113.08 154.50 113.75 C 155.69 114.42 155.35 114.50 156.75 113.88 C 158.15 113.25 161.08 111.33 162.88 110.00 C 164.67 108.67 165.98 107.58 167.50 105.88 C 169.02 104.17 170.79 101.81 172.00 99.75 C 173.21 97.69 174.31 95.02 174.75 93.50 C 175.19 91.98 174.98 92.25 174.62 90.62 C 174.27 89.00 173.29 85.44 172.62 83.75 C 171.96 82.06 171.35 81.46 170.62 80.50 C 169.90 79.54 169.75 79.23 168.25 78.00 C 166.75 76.77 164.19 74.62 161.62 73.12 C 159.06 71.62 155.75 70.19 152.88 69.00 C 150.00 67.81 150.23 67.50 144.38 66.00 C 138.52 64.50 123.29 61.00 117.75 60.00 C 112.21 59.00 112.48 59.90 111.12 60.00 C 109.77 60.10 110.17 60.21 109.62 60.62 C 109.08 61.04 108.17 60.88 107.88 62.50 Z" id="s-0-f-2"/>
<path d="M 107.88 62.50 C 107.58 64.12 107.48 68.35 107.88 70.38 C 108.27 72.40 108.83 72.88 110.25 74.62 C 111.67 76.38 113.90 78.71 116.38 80.88 C 118.85 83.04 119.54 82.77 125.12 87.62 C 130.71 92.48 145.54 106.27 149.88 110.00 C 154.21 113.73 150.58 110.17 151.12 110.00 C 151.67 109.83 152.04 109.71 153.12 109.00 C 154.21 108.29 156.19 106.92 157.62 105.75 C 159.06 104.58 160.23 103.81 161.75 102.00 C 163.27 100.19 165.56 96.83 166.75 94.88 C 167.94 92.92 168.21 92.23 168.88 90.25 C 169.54 88.27 170.44 84.58 170.75 83.00 C 171.06 81.42 171.33 81.75 170.75 80.75 C 170.17 79.75 168.77 78.27 167.25 77.00 C 165.73 75.73 164.02 74.46 161.62 73.12 C 159.23 71.79 155.75 70.19 152.88 69.00 C 150.00 67.81 150.23 67.50 144.38 66.00 C 138.52 64.50 123.29 61.00 117.75 60.00 C 112.21 59.00 112.48 59.90 111.12 60.00 C 109.77 60.10 110.17 60.21 109.62 60.62 C 109.08 61.04 108.17 60.88 107.88 62.50 Z" id="s-0-f-3"/>
<path d="M 108.62 61.50 C 108.04 62.12 107.79 62.50 107.62 63.75 C 107.46 65.00 107.56 67.79 107.62 69.00 C 107.69 70.21 107.56 70.06 108.00 71.00 C 108.44 71.94 108.85 72.98 110.25 74.62 C 111.65 76.27 113.90 78.71 116.38 80.88 C 118.85 83.04 120.27 83.44 125.12 87.62 C 129.98 91.81 141.77 102.98 145.50 106.00 C 149.23 109.02 146.31 106.42 147.50 105.75 C 148.69 105.08 151.17 103.21 152.62 102.00 C 154.08 100.79 154.88 100.15 156.25 98.50 C 157.62 96.85 159.60 94.38 160.88 92.12 C 162.15 89.88 163.12 87.46 163.88 85.00 C 164.62 82.54 165.21 78.98 165.38 77.38 C 165.54 75.77 165.50 76.08 164.88 75.38 C 164.25 74.67 162.79 73.83 161.62 73.12 C 160.46 72.42 160.23 72.15 157.88 71.12 C 155.52 70.10 151.69 68.35 147.50 67.00 C 143.31 65.65 137.71 64.17 132.75 63.00 C 127.79 61.83 121.35 60.50 117.75 60.00 C 114.15 59.50 112.65 59.75 111.12 60.00 C 109.60 60.25 109.21 60.88 108.62 61.50 Z" id="s-0-f-4"/>
<path d="M 108.62 61.50 C 108.12 62.10 107.79 62.50 107.62 63.75 C 107.46 65.00 107.56 67.79 107.62 69.00 C 107.69 70.21 107.56 70.06 108.00 71.00 C 108.44 71.94 108.85 72.98 110.25 74.62 C 111.65 76.27 113.90 78.71 116.38 80.88 C 118.85 83.04 120.88 83.98 125.12 87.62 C 129.38 91.27 138.96 100.21 141.88 102.75 C 144.79 105.29 142.23 103.00 142.62 102.88 C 143.02 102.75 142.98 103.00 144.25 102.00 C 145.52 101.00 148.31 98.98 150.25 96.88 C 152.19 94.77 154.44 91.73 155.88 89.38 C 157.31 87.02 158.21 84.56 158.88 82.75 C 159.54 80.94 159.60 80.04 159.88 78.50 C 160.15 76.96 160.58 74.60 160.50 73.50 C 160.42 72.40 162.06 73.12 159.38 71.88 C 156.69 70.62 151.31 67.98 144.38 66.00 C 137.44 64.02 123.38 60.98 117.75 60.00 C 112.12 59.02 112.15 59.88 110.62 60.12 C 109.10 60.38 109.12 60.90 108.62 61.50 Z" id="s-0-f-5"/>
<path d="M 109.62 60.62 C 109.08 61.04 108.21 61.98 107.88 62.50 C 107.54 63.02 107.60 62.33 107.62 63.75 C 107.65 65.17 107.56 69.19 108.00 71.00 C 108.44 72.81 108.85 72.98 110.25 74.62 C 111.65 76.27 113.90 78.71 116.38 80.88 C 118.85 83.04 121.38 84.46 125.12 87.62 C 128.88 90.79 136.15 98.04 138.88 99.88 C 141.60 101.71 140.15 99.69 141.50 98.62 C 142.85 97.56 145.27 95.46 147.00 93.50 C 148.73 91.54 150.56 89.12 151.88 86.88 C 153.19 84.62 154.10 82.50 154.88 80.00 C 155.65 77.50 156.44 73.54 156.50 71.88 C 156.56 70.21 157.27 70.98 155.25 70.00 C 153.23 69.02 148.81 67.31 144.38 66.00 C 139.94 64.69 133.06 63.12 128.62 62.12 C 124.19 61.12 120.67 60.35 117.75 60.00 C 114.83 59.65 112.48 59.90 111.12 60.00 C 109.77 60.10 110.17 60.21 109.62 60.62 Z" id="s-0-f-6"/>
<path d="M 109.62 60.62 C 109.08 61.04 108.21 61.10 107.88 62.50 C 107.54 63.90 107.60 67.58 107.62 69.00 C 107.65 70.42 107.56 70.06 108.00 71.00 C 108.44 71.94 108.85 72.98 110.25 74.62 C 111.65 76.27 113.90 78.71 116.38 80.88 C 118.85 83.04 121.81 84.83 125.12 87.62 C 128.44 90.42 134.06 96.06 136.25 97.62 C 138.44 99.19 136.79 98.21 138.25 97.00 C 139.71 95.79 143.23 92.40 145.00 90.38 C 146.77 88.35 147.75 86.92 148.88 84.88 C 150.00 82.83 151.06 80.17 151.75 78.12 C 152.44 76.08 152.79 74.08 153.00 72.62 C 153.21 71.17 154.44 70.48 153.00 69.38 C 151.56 68.27 149.35 67.40 144.38 66.00 C 139.40 64.60 127.92 62.02 123.12 61.00 C 118.33 59.98 117.62 60.04 115.62 59.88 C 113.62 59.71 112.12 59.88 111.12 60.00 C 110.12 60.12 110.17 60.21 109.62 60.62 Z" id="s-0-f-7"/>
<path d="M 109.62 60.62 C 108.79 61.06 108.21 61.10 107.88 62.50 C 107.54 63.90 107.60 67.58 107.62 69.00 C 107.65 70.42 107.56 70.06 108.00 71.00 C 108.44 71.94 108.85 72.98 110.25 74.62 C 111.65 76.27 113.90 78.71 116.38 80.88 C 118.85 83.04 122.17 85.15 125.12 87.62 C 128.08 90.10 132.40 94.35 134.12 95.75 C 135.85 97.15 134.15 97.00 135.50 96.00 C 136.85 95.00 140.35 91.88 142.25 89.75 C 144.15 87.62 145.62 85.52 146.88 83.25 C 148.12 80.98 149.06 78.25 149.75 76.12 C 150.44 74.00 150.85 71.79 151.00 70.50 C 151.15 69.21 152.25 69.27 150.62 68.38 C 149.00 67.48 146.60 66.50 141.25 65.12 C 135.90 63.75 123.23 61.00 118.50 60.12 C 113.77 59.25 114.35 59.79 112.88 59.88 C 111.40 59.96 110.46 60.19 109.62 60.62 Z" id="s-0-f-8"/>
<path d="M 109.62 60.62 C 109.08 61.04 108.21 61.10 107.88 62.50 C 107.54 63.90 107.60 67.58 107.62 69.00 C 107.65 70.42 107.56 70.06 108.00 71.00 C 108.44 71.94 108.85 72.98 110.25 74.62 C 111.65 76.27 113.90 78.71 116.38 80.88 C 118.85 83.04 122.25 85.27 125.12 87.62 C 128.00 89.98 131.94 93.83 133.62 95.00 C 135.31 96.17 134.15 95.46 135.25 94.62 C 136.35 93.79 138.65 91.81 140.25 90.00 C 141.85 88.19 143.60 85.85 144.88 83.75 C 146.15 81.65 147.04 79.92 147.88 77.38 C 148.71 74.83 149.79 70.17 149.88 68.50 C 149.96 66.83 149.29 67.79 148.38 67.38 C 147.46 66.96 148.58 67.06 144.38 66.00 C 140.17 64.94 127.92 62.02 123.12 61.00 C 118.33 59.98 117.62 60.04 115.62 59.88 C 113.62 59.71 112.12 59.88 111.12 60.00 C 110.12 60.12 110.17 60.21 109.62 60.62 Z" id="s-0-f-9"/>
</g>
<g id="s-1" clip-path="url(#c-s-1)">
<use href="#s-1-f-0"/>
<path d="M 59.38 154.62 C 58.98 154.98 58.96 154.94 58.88 155.62 C 58.79 156.31 58.69 157.31 58.88 158.75 C 59.06 160.19 59.27 162.42 60.00 164.25 C 60.73 166.08 60.65 166.69 63.25 169.75 C 65.85 172.81 71.44 178.44 75.62 182.62 C 79.81 186.81 84.38 191.35 88.38 194.88 C 92.38 198.40 96.42 201.46 99.62 203.75 C 102.83 206.04 105.85 207.77 107.62 208.62 C 109.40 209.48 108.96 209.48 110.25 208.88 C 111.54 208.27 113.42 206.83 115.38 205.00 C 117.33 203.17 120.42 199.85 122.00 197.88 C 123.58 195.90 124.23 194.44 124.88 193.12 C 125.52 191.81 126.06 191.60 125.88 190.00 C 125.69 188.40 125.06 185.83 123.75 183.50 C 122.44 181.17 120.31 178.40 118.00 176.00 C 115.69 173.60 112.06 170.79 109.88 169.12 C 107.69 167.46 107.35 167.33 104.88 166.00 C 102.40 164.67 100.04 163.12 95.00 161.12 C 89.96 159.12 78.88 155.33 74.62 154.00 C 70.38 152.67 71.19 153.29 69.50 153.12 C 67.81 152.96 65.88 152.94 64.50 153.00 C 63.12 153.06 62.10 153.23 61.25 153.50 C 60.40 153.77 59.77 154.27 59.38 154.62 Z" id="s-1-f-1"/>
<path d="M 59.38 154.62 C 58.98 154.98 58.96 154.94 58.88 155.62 C 58.79 156.31 58.69 157.31 58.88 158.75 C 59.06 160.19 59.27 162.42 60.00 164.25 C 60.73 166.08 60.65 166.69 63.25 169.75 C 65.85 172.81 71.44 178.44 75.62 182.62 C 79.81 186.81 84.38 191.35 88.38 194.88 C 92.38 198.40 97.29 202.00 99.62 203.75 C 101.96 205.50 101.54 205.19 102.38 205.38 C 103.21 205.56 103.19 205.73 104.62 204.88 C 106.06 204.02 109.04 202.06 111.00 200.25 C 112.96 198.44 114.92 196.04 116.38 194.00 C 117.83 191.96 118.88 189.94 119.75 188.00 C 120.62 186.06 121.29 183.62 121.62 182.38 C 121.96 181.12 122.69 181.90 121.75 180.50 C 120.81 179.10 117.98 175.90 116.00 174.00 C 114.02 172.10 111.73 170.46 109.88 169.12 C 108.02 167.79 107.35 167.33 104.88 166.00 C 102.40 164.67 100.04 163.12 95.00 161.12 C 89.96 159.12 78.88 155.33 74.62 154.00 C 70.38 152.67 71.19 153.29 69.50 153.12 C 67.81 152.96 65.88 152.94 64.50 153.00 C 63.12 153.06 62.10 153.23 61.25 153.50 C 60.40 153.77 59.77 154.27 59.38 154.62 Z" id="s-1-f-2"/>
<path d="M 59.38 154.62 C 58.98 154.98 58.92 154.62 58.88 155.62 C 58.83 156.62 58.94 159.19 59.12 160.62 C 59.31 162.06 59.48 162.94 60.00 164.25 C 60.52 165.56 58.90 164.69 62.25 168.50 C 65.60 172.31 75.77 182.73 80.12 187.12 C 84.48 191.52 85.58 192.44 88.38 194.88 C 91.17 197.31 95.21 200.60 96.88 201.75 C 98.54 202.90 97.62 202.04 98.38 201.75 C 99.12 201.46 100.02 201.02 101.38 200.00 C 102.73 198.98 104.88 197.27 106.50 195.62 C 108.12 193.98 109.73 192.19 111.12 190.12 C 112.52 188.06 113.94 185.38 114.88 183.25 C 115.81 181.12 116.42 178.73 116.75 177.38 C 117.08 176.02 117.08 175.77 116.88 175.12 C 116.67 174.48 116.67 174.50 115.50 173.50 C 114.33 172.50 111.65 170.38 109.88 169.12 C 108.10 167.88 107.35 167.33 104.88 166.00 C 102.40 164.67 100.04 163.12 95.00 161.12 C 89.96 159.12 78.88 155.33 74.62 154.00 C 70.38 152.67 71.19 153.29 69.50 153.12 C 67.81 152.96 65.88 152.94 64.50 153.00 C 63.12 153.06 62.10 153.23 61.25 153.50 C 60.40 153.77 59.77 154.27 59.38 154.62 Z" id="s-1-f-3"/>
<path d="M 59.38 154.62 C 58.98 154.98 58.92 154.62 58.88 155.62 C 58.83 156.62 58.94 159.19 59.12 160.62 C 59.31 162.06 59.48 162.94 60.00 164.25 C 60.52 165.56 58.90 164.69 62.25 168.50 C 65.60 172.31 75.15 182.23 80.12 187.12 C 85.10 192.02 89.73 196.08 92.12 197.88 C 94.52 199.67 93.15 198.56 94.50 197.88 C 95.85 197.19 98.19 195.71 100.25 193.75 C 102.31 191.79 105.27 188.35 106.88 186.12 C 108.48 183.90 109.04 182.33 109.88 180.38 C 110.71 178.42 111.54 175.96 111.88 174.38 C 112.21 172.79 112.21 171.75 111.88 170.88 C 111.54 170.00 111.04 169.94 109.88 169.12 C 108.71 168.31 107.35 167.33 104.88 166.00 C 102.40 164.67 100.04 163.12 95.00 161.12 C 89.96 159.12 78.88 155.33 74.62 154.00 C 70.38 152.67 71.19 153.29 69.50 153.12 C 67.81 152.96 65.88 152.94 64.50 153.00 C 63.12 153.06 62.10 153.23 61.25 153.50 C 60.40 153.77 59.77 154.27 59.38 154.62 Z" id="s-1-f-4"/>
<path d="M 59.75 154.25 C 59.35 154.60 59.00 154.67 58.88 155.62 C 58.75 156.58 58.81 158.56 59.00 160.00 C 59.19 161.44 59.46 162.83 60.00 164.25 C 60.54 165.67 59.65 165.44 62.25 168.50 C 64.85 171.56 71.27 178.23 75.62 182.62 C 79.98 187.02 85.88 192.81 88.38 194.88 C 90.88 196.94 89.08 195.90 90.62 195.00 C 92.17 194.10 95.71 191.31 97.62 189.50 C 99.54 187.69 100.79 186.04 102.12 184.12 C 103.46 182.21 104.67 180.12 105.62 178.00 C 106.58 175.88 107.50 173.02 107.88 171.38 C 108.25 169.73 108.12 168.88 107.88 168.12 C 107.62 167.38 108.52 168.04 106.38 166.88 C 104.23 165.71 100.29 163.27 95.00 161.12 C 89.71 158.98 78.88 155.33 74.62 154.00 C 70.38 152.67 71.19 153.29 69.50 153.12 C 67.81 152.96 65.88 152.94 64.50 153.00 C 63.12 153.06 62.04 153.29 61.25 153.50 C 60.46 153.71 60.15 153.90 59.75 154.25 Z" id="s-1-f-5"/>
<path d="M 60.25 153.88 C 59.50 154.29 59.08 154.60 58.88 155.62 C 58.67 156.65 58.81 158.56 59.00 160.00 C 59.19 161.44 59.46 162.83 60.00 164.25 C 60.54 165.67 59.65 165.44 62.25 168.50 C 64.85 171.56 71.60 178.56 75.62 182.62 C 79.65 186.69 84.23 191.31 86.38 192.88 C 88.52 194.44 87.44 192.71 88.50 192.00 C 89.56 191.29 91.02 190.29 92.75 188.62 C 94.48 186.96 97.21 184.25 98.88 182.00 C 100.54 179.75 101.75 177.44 102.75 175.12 C 103.75 172.81 104.52 169.56 104.88 168.12 C 105.23 166.69 104.96 166.90 104.88 166.50 C 104.79 166.10 106.02 166.65 104.38 165.75 C 102.73 164.85 99.96 163.08 95.00 161.12 C 90.04 159.17 79.25 155.35 74.62 154.00 C 70.00 152.65 69.12 153.15 67.25 153.00 C 65.38 152.85 64.54 152.98 63.38 153.12 C 62.21 153.27 61.00 153.46 60.25 153.88 Z" id="s-1-f-6"/>
<path d="M 60.25 153.88 C 59.50 154.29 59.08 154.60 58.88 155.62 C 58.67 156.65 58.81 158.56 59.00 160.00 C 59.19 161.44 59.46 162.83 60.00 164.25 C 60.54 165.67 59.65 165.44 62.25 168.50 C 64.85 171.56 71.94 178.88 75.62 182.62 C 79.31 186.38 82.67 189.62 84.38 191.00 C 86.08 192.38 85.04 191.35 85.88 190.88 C 86.71 190.40 87.69 189.71 89.38 188.12 C 91.06 186.54 94.08 184.00 96.00 181.38 C 97.92 178.75 99.77 174.90 100.88 172.38 C 101.98 169.85 102.48 167.56 102.62 166.25 C 102.77 164.94 103.02 165.35 101.75 164.50 C 100.48 163.65 99.52 162.88 95.00 161.12 C 90.48 159.38 79.25 155.35 74.62 154.00 C 70.00 152.65 69.12 153.15 67.25 153.00 C 65.38 152.85 64.54 152.98 63.38 153.12 C 62.21 153.27 61.00 153.46 60.25 153.88 Z" id="s-1-f-7"/>
<path d="M 60.25 153.88 C 59.50 154.29 59.08 154.60 58.88 155.62 C 58.67 156.65 58.81 158.56 59.00 160.00 C 59.19 161.44 59.46 162.83 60.00 164.25 C 60.54 165.67 58.71 164.50 62.25 168.50 C 65.79 172.50 77.75 184.69 81.25 188.25 C 84.75 191.81 82.71 189.60 83.25 189.88 C 83.79 190.15 83.00 191.02 84.50 189.88 C 86.00 188.73 90.33 184.94 92.25 183.00 C 94.17 181.06 94.73 180.38 96.00 178.25 C 97.27 176.12 99.04 172.21 99.88 170.25 C 100.71 168.29 100.83 167.50 101.00 166.50 C 101.17 165.50 101.88 165.15 100.88 164.25 C 99.88 163.35 99.38 162.83 95.00 161.12 C 90.62 159.42 79.25 155.35 74.62 154.00 C 70.00 152.65 69.12 153.15 67.25 153.00 C 65.38 152.85 64.54 152.98 63.38 153.12 C 62.21 153.27 61.00 153.46 60.25 153.88 Z" id="s-1-f-8"/>
<path d="M 60.25 153.88 C 59.50 154.29 59.08 154.60 58.88 155.62 C 58.67 156.65 58.81 158.56 59.00 160.00 C 59.19 161.44 59.46 162.83 60.00 164.25 C 60.54 165.67 58.52 164.35 62.25 168.50 C 65.98 172.65 78.75 185.67 82.38 189.12 C 86.00 192.58 82.79 189.94 84.00 189.25 C 85.21 188.56 87.88 186.65 89.62 185.00 C 91.38 183.35 93.12 181.29 94.50 179.38 C 95.88 177.46 96.88 175.85 97.88 173.50 C 98.88 171.15 100.10 166.81 100.50 165.25 C 100.90 163.69 100.50 164.50 100.25 164.12 C 100.00 163.75 99.88 163.50 99.00 163.00 C 98.12 162.50 99.06 162.62 95.00 161.12 C 90.94 159.62 79.25 155.35 74.62 154.00 C 70.00 152.65 69.12 153.15 67.25 153.00 C 65.38 152.85 64.54 152.98 63.38 153.12 C 62.21 153.27 61.00 153.46 60.25 153.88 Z" id="s-1-f-9"/>
</g>
<g id="s-2" clip-path="url(#c-s-2)">
<use href="#s-2-f-0"/>
<path d="M 154.00 246.88 C 152.69 246.44 151.83 246.04 151.00 246.38 C 150.17 246.71 156.17 237.17 149.00 248.88 C 141.83 260.58 116.52 302.40 108.00 316.62 C 99.48 330.85 100.92 329.19 97.88 334.25 C 94.83 339.31 92.65 343.17 89.75 347.00 C 86.85 350.83 83.46 354.33 80.50 357.25 C 77.54 360.17 74.06 362.88 72.00 364.50 C 69.94 366.12 69.08 366.27 68.12 367.00 C 67.17 367.73 66.71 368.23 66.25 368.88 C 65.79 369.52 65.58 369.62 65.38 370.88 C 65.17 372.12 64.71 373.50 65.00 376.38 C 65.29 379.25 66.25 384.40 67.12 388.12 C 68.00 391.85 69.08 395.42 70.25 398.75 C 71.42 402.08 73.00 405.75 74.12 408.12 C 75.25 410.50 75.65 411.06 77.00 413.00 C 78.35 414.94 80.88 418.15 82.25 419.75 C 83.62 421.35 83.48 421.29 85.25 422.62 C 87.02 423.96 91.06 426.77 92.88 427.75 C 94.69 428.73 95.19 428.40 96.12 428.50 C 97.06 428.60 97.77 428.52 98.50 428.38 C 99.23 428.23 99.79 428.19 100.50 427.62 C 101.21 427.06 102.21 426.25 102.75 425.00 C 103.29 423.75 103.54 422.04 103.75 420.12 C 103.96 418.21 103.62 416.15 104.00 413.50 C 104.38 410.85 104.33 410.10 106.00 404.25 C 107.67 398.40 111.15 386.98 114.00 378.38 C 116.85 369.77 119.31 362.98 123.12 352.62 C 126.94 342.27 130.35 332.98 136.88 316.25 C 143.40 299.52 158.08 263.15 162.25 252.25 C 166.42 241.35 162.44 251.42 161.88 250.88 C 161.31 250.33 160.19 249.67 158.88 249.00 C 157.56 248.33 155.31 247.31 154.00 246.88 Z" id="s-2-f-1"/>
<path d="M 140.75 265.12 C 139.31 264.69 140.19 264.38 139.38 265.25 C 138.56 266.12 142.79 258.88 135.88 270.38 C 128.96 281.88 105.56 321.48 97.88 334.25 C 90.19 347.02 92.65 343.17 89.75 347.00 C 86.85 350.83 83.46 354.33 80.50 357.25 C 77.54 360.17 74.06 362.88 72.00 364.50 C 69.94 366.12 69.08 366.27 68.12 367.00 C 67.17 367.73 66.73 368.17 66.25 368.88 C 65.77 369.58 65.46 370.00 65.25 371.25 C 65.04 372.50 64.69 373.56 65.00 376.38 C 65.31 379.19 66.25 384.40 67.12 388.12 C 68.00 391.85 69.08 395.42 70.25 398.75 C 71.42 402.08 73.00 405.75 74.12 408.12 C 75.25 410.50 75.65 411.06 77.00 413.00 C 78.35 414.94 80.62 417.96 82.25 419.75 C 83.88 421.54 84.98 422.42 86.75 423.75 C 88.52 425.08 91.12 426.96 92.88 427.75 C 94.62 428.54 96.04 428.48 97.25 428.50 C 98.46 428.52 99.21 428.46 100.12 427.88 C 101.04 427.29 102.15 426.29 102.75 425.00 C 103.35 423.71 103.54 422.04 103.75 420.12 C 103.96 418.21 103.62 416.15 104.00 413.50 C 104.38 410.85 104.33 410.10 106.00 404.25 C 107.67 398.40 110.33 389.17 114.00 378.38 C 117.67 367.58 123.02 352.85 128.00 339.50 C 132.98 326.15 139.58 309.17 143.88 298.25 C 148.17 287.33 152.06 278.33 153.75 274.00 C 155.44 269.67 154.08 272.73 154.00 272.25 C 153.92 271.77 154.25 271.85 153.25 271.12 C 152.25 270.40 150.08 268.88 148.00 267.88 C 145.92 266.88 142.19 265.56 140.75 265.12 Z" id="s-2-f-2"/>
<path d="M 131.38 286.88 C 129.75 286.42 128.15 286.23 127.25 286.25 C 126.35 286.27 129.21 281.94 126.00 287.00 C 122.79 292.06 112.69 308.75 108.00 316.62 C 103.31 324.50 100.92 329.19 97.88 334.25 C 94.83 339.31 92.65 343.17 89.75 347.00 C 86.85 350.83 83.46 354.33 80.50 357.25 C 77.54 360.17 74.06 362.88 72.00 364.50 C 69.94 366.12 69.08 366.27 68.12 367.00 C 67.17 367.73 66.73 368.17 66.25 368.88 C 65.77 369.58 65.46 370.00 65.25 371.25 C 65.04 372.50 64.69 373.56 65.00 376.38 C 65.31 379.19 66.25 384.40 67.12 388.12 C 68.00 391.85 69.08 395.42 70.25 398.75 C 71.42 402.08 73.00 405.75 74.12 408.12 C 75.25 410.50 75.65 411.06 77.00 413.00 C 78.35 414.94 80.62 417.96 82.25 419.75 C 83.88 421.54 84.98 422.42 86.75 423.75 C 88.52 425.08 91.12 426.96 92.88 427.75 C 94.62 428.54 96.04 428.48 97.25 428.50 C 98.46 428.52 99.21 428.46 100.12 427.88 C 101.04 427.29 102.17 426.12 102.75 425.00 C 103.33 423.88 103.44 422.85 103.62 421.12 C 103.81 419.40 103.65 416.73 103.88 414.62 C 104.10 412.52 104.31 411.42 105.00 408.50 C 105.69 405.58 106.67 401.65 108.00 397.12 C 109.33 392.60 109.67 390.98 113.00 381.38 C 116.33 371.77 122.67 353.75 128.00 339.50 C 133.33 325.25 142.19 303.44 145.00 295.88 C 147.81 288.31 145.17 294.65 144.88 294.12 C 144.58 293.60 144.56 293.60 143.25 292.75 C 141.94 291.90 138.98 289.98 137.00 289.00 C 135.02 288.02 133.00 287.33 131.38 286.88 Z" id="s-2-f-3"/>
<path d="M 109.50 317.88 C 107.75 317.58 108.08 317.88 107.50 318.25 C 106.92 318.62 107.60 317.46 106.00 320.12 C 104.40 322.79 100.58 329.77 97.88 334.25 C 95.17 338.73 92.65 343.17 89.75 347.00 C 86.85 350.83 84.42 353.60 80.50 357.25 C 76.58 360.90 68.83 366.29 66.25 368.88 C 63.67 371.46 65.21 371.50 65.00 372.75 C 64.79 374.00 64.81 374.65 65.00 376.38 C 65.19 378.10 65.46 380.00 66.12 383.12 C 66.79 386.25 67.98 391.65 69.00 395.12 C 70.02 398.60 71.25 401.56 72.25 404.00 C 73.25 406.44 73.56 407.38 75.00 409.75 C 76.44 412.12 79.17 416.10 80.88 418.25 C 82.58 420.40 83.25 421.04 85.25 422.62 C 87.25 424.21 91.06 426.77 92.88 427.75 C 94.69 428.73 94.92 428.48 96.12 428.50 C 97.33 428.52 99.02 428.46 100.12 427.88 C 101.23 427.29 102.15 426.29 102.75 425.00 C 103.35 423.71 103.50 422.27 103.75 420.12 C 104.00 417.98 103.40 416.44 104.25 412.12 C 105.10 407.81 106.56 401.85 108.88 394.25 C 111.19 386.65 114.33 377.10 118.12 366.50 C 121.92 355.90 129.42 336.83 131.62 330.62 C 133.83 324.42 131.65 329.75 131.38 329.25 C 131.10 328.75 131.29 328.69 130.00 327.62 C 128.71 326.56 125.62 324.15 123.62 322.88 C 121.62 321.60 120.35 320.83 118.00 320.00 C 115.65 319.17 111.25 318.17 109.50 317.88 Z" id="s-2-f-4"/>
<path d="M 98.50 336.75 C 96.94 336.42 97.56 336.65 97.12 336.75 C 96.69 336.85 97.10 335.67 95.88 337.38 C 94.65 339.08 92.31 343.69 89.75 347.00 C 87.19 350.31 84.42 353.60 80.50 357.25 C 76.58 360.90 68.83 366.29 66.25 368.88 C 63.67 371.46 65.21 371.50 65.00 372.75 C 64.79 374.00 64.81 374.65 65.00 376.38 C 65.19 378.10 65.46 380.00 66.12 383.12 C 66.79 386.25 67.98 391.65 69.00 395.12 C 70.02 398.60 71.25 401.56 72.25 404.00 C 73.25 406.44 73.56 407.38 75.00 409.75 C 76.44 412.12 79.17 416.10 80.88 418.25 C 82.58 420.40 83.25 421.04 85.25 422.62 C 87.25 424.21 91.06 426.77 92.88 427.75 C 94.69 428.73 94.92 428.48 96.12 428.50 C 97.33 428.52 99.02 428.46 100.12 427.88 C 101.23 427.29 102.15 426.29 102.75 425.00 C 103.35 423.71 103.50 422.27 103.75 420.12 C 104.00 417.98 103.54 415.96 104.25 412.12 C 104.96 408.29 106.38 402.75 108.00 397.12 C 109.62 391.50 111.48 385.79 114.00 378.38 C 116.52 370.96 121.69 357.17 123.12 352.62 C 124.56 348.08 123.15 351.92 122.62 351.12 C 122.10 350.33 121.71 349.44 120.00 347.88 C 118.29 346.31 114.62 343.27 112.38 341.75 C 110.12 340.23 108.81 339.58 106.50 338.75 C 104.19 337.92 100.06 337.08 98.50 336.75 Z" id="s-2-f-5"/>
<path d="M 84.62 354.25 C 83.17 354.38 84.48 353.65 83.12 354.75 C 81.77 355.85 79.00 358.83 76.50 360.88 C 74.00 362.92 69.83 365.67 68.12 367.00 C 66.42 368.33 66.77 367.92 66.25 368.88 C 65.73 369.83 65.21 371.50 65.00 372.75 C 64.79 374.00 64.81 374.65 65.00 376.38 C 65.19 378.10 65.46 380.00 66.12 383.12 C 66.79 386.25 68.17 392.10 69.00 395.12 C 69.83 398.15 70.27 399.08 71.12 401.25 C 71.98 403.42 73.15 406.17 74.12 408.12 C 75.10 410.08 75.88 411.31 77.00 413.00 C 78.12 414.69 79.25 416.46 80.88 418.25 C 82.50 420.04 84.75 422.17 86.75 423.75 C 88.75 425.33 91.31 426.96 92.88 427.75 C 94.44 428.54 95.19 428.40 96.12 428.50 C 97.06 428.60 97.77 428.52 98.50 428.38 C 99.23 428.23 99.79 428.19 100.50 427.62 C 101.21 427.06 102.21 426.25 102.75 425.00 C 103.29 423.75 103.54 422.04 103.75 420.12 C 103.96 418.21 103.62 416.15 104.00 413.50 C 104.38 410.85 104.83 408.58 106.00 404.25 C 107.17 399.92 109.06 393.42 111.00 387.50 C 112.94 381.58 116.52 372.04 117.62 368.75 C 118.73 365.46 118.10 368.54 117.62 367.75 C 117.15 366.96 116.10 365.31 114.75 364.00 C 113.40 362.69 111.65 361.21 109.50 359.88 C 107.35 358.54 104.81 356.98 101.88 356.00 C 98.94 355.02 94.75 354.29 91.88 354.00 C 89.00 353.71 86.08 354.12 84.62 354.25 Z" id="s-2-f-6"/>
<path d="M 79.38 375.88 C 77.31 376.67 75.58 377.40 73.50 378.75 C 71.42 380.10 67.94 382.44 66.88 384.00 C 65.81 385.56 66.42 385.25 67.12 388.12 C 67.83 391.00 69.96 397.92 71.12 401.25 C 72.29 404.58 73.15 406.17 74.12 408.12 C 75.10 410.08 75.88 411.31 77.00 413.00 C 78.12 414.69 79.50 416.65 80.88 418.25 C 82.25 419.85 83.25 421.04 85.25 422.62 C 87.25 424.21 91.06 426.77 92.88 427.75 C 94.69 428.73 94.92 428.48 96.12 428.50 C 97.33 428.52 99.02 428.46 100.12 427.88 C 101.23 427.29 102.17 426.12 102.75 425.00 C 103.33 423.88 103.44 422.85 103.62 421.12 C 103.81 419.40 103.65 416.73 103.88 414.62 C 104.10 412.52 104.31 411.42 105.00 408.50 C 105.69 405.58 106.71 401.38 108.00 397.12 C 109.29 392.88 111.92 385.73 112.75 383.00 C 113.58 380.27 113.06 381.29 113.00 380.75 C 112.94 380.21 113.33 380.40 112.38 379.75 C 111.42 379.10 109.10 377.69 107.25 376.88 C 105.40 376.06 103.35 375.38 101.25 374.88 C 99.15 374.38 97.19 374.02 94.62 373.88 C 92.06 373.73 88.42 373.67 85.88 374.00 C 83.33 374.33 81.44 375.08 79.38 375.88 Z" id="s-2-f-7"/>
<path d="M 88.25 381.88 C 85.69 382.27 83.71 383.04 81.62 383.88 C 79.54 384.71 77.85 385.46 75.75 386.88 C 73.65 388.29 70.12 391.00 69.00 392.38 C 67.88 393.75 68.15 392.50 69.00 395.12 C 69.85 397.75 72.15 404.27 74.12 408.12 C 76.10 411.98 79.02 415.83 80.88 418.25 C 82.73 420.67 83.25 421.04 85.25 422.62 C 87.25 424.21 91.06 426.77 92.88 427.75 C 94.69 428.73 95.19 428.40 96.12 428.50 C 97.06 428.60 97.77 428.52 98.50 428.38 C 99.23 428.23 99.79 428.19 100.50 427.62 C 101.21 427.06 102.23 426.08 102.75 425.00 C 103.27 423.92 103.44 422.85 103.62 421.12 C 103.81 419.40 103.65 416.73 103.88 414.62 C 104.10 412.52 103.73 413.33 105.00 408.50 C 106.27 403.67 110.48 389.56 111.50 385.62 C 112.52 381.69 112.73 385.48 111.12 384.88 C 109.52 384.27 104.23 382.56 101.88 382.00 C 99.52 381.44 99.27 381.52 97.00 381.50 C 94.73 381.48 90.81 381.48 88.25 381.88 Z" id="s-2-f-8"/>
<path d="M 94.50 384.88 C 92.04 385.21 86.94 386.04 84.12 386.88 C 81.31 387.71 79.42 388.85 77.62 389.88 C 75.83 390.90 74.62 391.96 73.38 393.00 C 72.12 394.04 70.69 395.29 70.12 396.12 C 69.56 396.96 69.33 396.00 70.00 398.00 C 70.67 400.00 72.31 404.75 74.12 408.12 C 75.94 411.50 79.02 415.83 80.88 418.25 C 82.73 420.67 83.25 421.04 85.25 422.62 C 87.25 424.21 90.88 426.77 92.88 427.75 C 94.88 428.73 96.04 428.48 97.25 428.50 C 98.46 428.52 99.21 428.46 100.12 427.88 C 101.04 427.29 102.17 426.12 102.75 425.00 C 103.33 423.88 103.44 422.85 103.62 421.12 C 103.81 419.40 103.65 416.73 103.88 414.62 C 104.10 412.52 103.88 412.90 105.00 408.50 C 106.12 404.10 110.56 392.02 110.62 388.25 C 110.69 384.48 107.33 386.44 105.38 385.88 C 103.42 385.31 100.69 385.04 98.88 384.88 C 97.06 384.71 96.96 384.54 94.50 384.88 Z" id="s-2-f-9"/>
</g>
<g id="s-3" clip-path="url(#c-s-3)">
<use href="#s-3-f-0"/>
<path d="M 377.50 129.88 C 375.23 128.31 371.15 125.92 367.12 124.12 C 363.10 122.33 357.44 120.40 353.38 119.12 C 349.31 117.85 346.21 116.94 342.75 116.50 C 339.29 116.06 335.35 116.23 332.62 116.50 C 329.90 116.77 328.29 117.44 326.38 118.12 C 324.46 118.81 323.08 119.83 321.12 120.62 C 319.17 121.42 323.77 120.19 314.62 122.88 C 305.48 125.56 281.96 133.42 266.25 136.75 C 250.54 140.08 233.94 141.42 220.38 142.88 C 206.81 144.33 191.50 144.96 184.88 145.50 C 178.25 146.04 181.92 145.67 180.62 146.12 C 179.33 146.58 177.73 147.27 177.12 148.25 C 176.52 149.23 176.85 151.00 177.00 152.00 C 177.15 153.00 177.23 153.19 178.00 154.25 C 178.77 155.31 180.33 157.12 181.62 158.38 C 182.92 159.62 184.23 160.69 185.75 161.75 C 187.27 162.81 188.83 163.92 190.75 164.75 C 192.67 165.58 195.04 166.29 197.25 166.75 C 199.46 167.21 201.54 167.42 204.00 167.50 C 206.46 167.58 208.31 167.73 212.00 167.25 C 215.69 166.77 214.21 167.67 226.12 164.62 C 238.04 161.58 269.94 152.46 283.50 149.00 C 297.06 145.54 302.33 144.83 307.50 143.88 C 312.67 142.92 312.38 143.25 314.50 143.25 C 316.62 143.25 318.98 143.52 320.25 143.88 C 321.52 144.23 321.56 144.69 322.12 145.38 C 322.69 146.06 323.17 146.69 323.62 148.00 C 324.08 149.31 324.67 151.94 324.88 153.25 C 325.08 154.56 325.90 150.54 324.88 155.88 C 323.85 161.21 320.44 177.81 318.75 185.25 C 317.06 192.69 316.42 194.67 314.75 200.50 C 313.08 206.33 310.44 214.98 308.75 220.25 C 307.06 225.52 306.81 226.46 304.62 232.12 C 302.44 237.79 298.44 247.81 295.62 254.25 C 292.81 260.69 290.40 265.56 287.75 270.75 C 285.10 275.94 283.46 279.50 279.75 285.38 C 276.04 291.25 268.77 301.40 265.50 306.00 C 262.23 310.60 263.50 309.06 260.12 313.00 C 256.75 316.94 251.50 323.40 245.25 329.62 C 239.00 335.85 229.60 344.40 222.62 350.38 C 215.65 356.35 209.67 360.83 203.38 365.50 C 197.08 370.17 188.02 376.10 184.88 378.38 C 181.73 380.65 184.50 378.67 184.50 379.12 C 184.50 379.58 184.33 379.88 184.88 381.12 C 185.42 382.38 186.58 384.81 187.75 386.62 C 188.92 388.44 190.92 391.02 191.88 392.00 C 192.83 392.98 192.50 392.73 193.50 392.50 C 194.50 392.27 193.50 392.75 197.88 390.62 C 202.25 388.50 213.00 383.38 219.75 379.75 C 226.50 376.12 233.06 372.21 238.38 368.88 C 243.69 365.54 247.33 363.10 251.62 359.75 C 255.92 356.40 260.42 352.27 264.12 348.75 C 267.83 345.23 270.92 341.83 273.88 338.62 C 276.83 335.42 278.00 334.42 281.88 329.50 C 285.75 324.58 293.46 314.46 297.12 309.12 C 300.79 303.79 301.77 300.81 303.88 297.50 C 305.98 294.19 307.08 293.44 309.75 289.25 C 312.42 285.06 316.71 278.10 319.88 272.38 C 323.04 266.65 326.44 259.62 328.75 254.88 C 331.06 250.12 331.92 248.19 333.75 243.88 C 335.58 239.56 337.75 234.27 339.75 229.00 C 341.75 223.73 342.85 221.29 345.75 212.25 C 348.65 203.21 354.54 182.50 357.12 174.75 C 359.71 167.00 359.58 168.79 361.25 165.75 C 362.92 162.71 364.40 159.92 367.12 156.50 C 369.85 153.08 375.35 147.79 377.62 145.25 C 379.90 142.71 380.08 142.29 380.75 141.25 C 381.42 140.21 381.46 139.90 381.62 139.00 C 381.79 138.10 381.90 136.79 381.75 135.88 C 381.60 134.96 381.46 134.50 380.75 133.50 C 380.04 132.50 379.77 131.44 377.50 129.88 Z" id="s-3-f-1"/>
<path d="M 371.12 126.12 C 368.77 124.96 366.35 123.52 362.12 122.00 C 357.90 120.48 349.65 117.96 345.75 117.00 C 341.85 116.04 340.94 116.33 338.75 116.25 C 336.56 116.17 334.69 116.19 332.62 116.50 C 330.56 116.81 328.29 117.44 326.38 118.12 C 324.46 118.81 323.08 119.83 321.12 120.62 C 319.17 121.42 323.77 120.19 314.62 122.88 C 305.48 125.56 281.96 133.42 266.25 136.75 C 250.54 140.08 233.94 141.42 220.38 142.88 C 206.81 144.33 191.50 144.96 184.88 145.50 C 178.25 146.04 181.92 145.67 180.62 146.12 C 179.33 146.58 177.73 147.27 177.12 148.25 C 176.52 149.23 176.85 151.00 177.00 152.00 C 177.15 153.00 177.23 153.19 178.00 154.25 C 178.77 155.31 180.33 157.12 181.62 158.38 C 182.92 159.62 184.23 160.69 185.75 161.75 C 187.27 162.81 188.83 163.92 190.75 164.75 C 192.67 165.58 195.04 166.29 197.25 166.75 C 199.46 167.21 201.54 167.42 204.00 167.50 C 206.46 167.58 208.31 167.73 212.00 167.25 C 215.69 166.77 214.21 167.67 226.12 164.62 C 238.04 161.58 269.94 152.46 283.50 149.00 C 297.06 145.54 302.33 144.83 307.50 143.88 C 312.67 142.92 312.38 143.25 314.50 143.25 C 316.62 143.25 318.98 143.52 320.25 143.88 C 321.52 144.23 321.52 144.58 322.12 145.38 C 322.73 146.17 323.42 147.31 323.88 148.62 C 324.33 149.94 324.73 151.90 324.88 153.25 C 325.02 154.60 325.60 152.12 324.75 156.75 C 323.90 161.38 321.25 174.31 319.75 181.00 C 318.25 187.69 317.58 190.33 315.75 196.88 C 313.92 203.42 310.60 214.38 308.75 220.25 C 306.90 226.12 307.12 225.79 304.62 232.12 C 302.12 238.46 296.56 251.81 293.75 258.25 C 290.94 264.69 290.08 266.23 287.75 270.75 C 285.42 275.27 283.46 279.50 279.75 285.38 C 276.04 291.25 269.75 300.25 265.50 306.00 C 261.25 311.75 257.56 316.00 254.25 319.88 C 250.94 323.75 249.27 325.54 245.62 329.25 C 241.98 332.96 234.62 339.85 232.38 342.12 C 230.12 344.40 232.04 342.44 232.12 342.88 C 232.21 343.31 232.06 343.44 232.88 344.75 C 233.69 346.06 235.48 348.90 237.00 350.75 C 238.52 352.60 240.19 354.38 242.00 355.88 C 243.81 357.38 246.58 359.00 247.88 359.75 C 249.17 360.50 249.19 360.33 249.75 360.38 C 250.31 360.42 249.54 361.29 251.25 360.00 C 252.96 358.71 256.90 355.46 260.00 352.62 C 263.10 349.79 266.23 346.85 269.88 343.00 C 273.52 339.15 277.21 335.33 281.88 329.50 C 286.54 323.67 294.21 313.33 297.88 308.00 C 301.54 302.67 301.90 300.62 303.88 297.50 C 305.85 294.38 307.08 293.44 309.75 289.25 C 312.42 285.06 316.56 278.42 319.88 272.38 C 323.19 266.33 326.31 260.23 329.62 253.00 C 332.94 245.77 336.73 236.79 339.75 229.00 C 342.77 221.21 345.54 213.12 347.75 206.25 C 349.96 199.38 351.27 193.40 353.00 187.75 C 354.73 182.10 356.65 176.23 358.12 172.38 C 359.60 168.52 360.38 167.27 361.88 164.62 C 363.38 161.98 364.17 160.12 367.12 156.50 C 370.08 152.88 377.21 145.79 379.62 142.88 C 382.04 139.96 381.27 140.17 381.62 139.00 C 381.98 137.83 382.06 137.02 381.75 135.88 C 381.44 134.73 380.67 133.27 379.75 132.12 C 378.83 130.98 377.69 130.00 376.25 129.00 C 374.81 128.00 373.48 127.29 371.12 126.12 Z" id="s-3-f-2"/>
<path d="M 177.50 147.88 C 176.90 148.27 177.10 148.02 177.00 148.50 C 176.90 148.98 176.71 149.79 176.88 150.75 C 177.04 151.71 177.21 152.98 178.00 154.25 C 178.79 155.52 180.06 156.94 181.62 158.38 C 183.19 159.81 185.85 161.81 187.38 162.88 C 188.90 163.94 189.21 164.12 190.75 164.75 C 192.29 165.38 194.75 166.19 196.62 166.62 C 198.50 167.06 200.15 167.23 202.00 167.38 C 203.85 167.52 205.52 167.60 207.75 167.50 C 209.98 167.40 212.31 167.23 215.38 166.75 C 218.44 166.27 216.73 167.08 226.12 164.62 C 235.52 162.17 261.48 154.77 271.75 152.00 C 282.02 149.23 281.92 149.33 287.75 148.00 C 293.58 146.67 301.98 144.79 306.75 144.00 C 311.52 143.21 314.12 143.27 316.38 143.25 C 318.62 143.23 319.29 143.52 320.25 143.88 C 321.21 144.23 321.42 144.23 322.12 145.38 C 322.83 146.52 324.06 148.85 324.50 150.75 C 324.94 152.65 325.71 151.00 324.75 156.75 C 323.79 162.50 321.06 175.79 318.75 185.25 C 316.44 194.71 313.23 205.69 310.88 213.50 C 308.52 221.31 307.00 225.71 304.62 232.12 C 302.25 238.54 299.44 245.56 296.62 252.00 C 293.81 258.44 290.56 265.19 287.75 270.75 C 284.94 276.31 281.48 282.35 279.75 285.38 C 278.02 288.40 277.73 288.08 277.38 288.88 C 277.02 289.67 276.33 288.79 277.62 290.12 C 278.92 291.46 283.02 295.27 285.12 296.88 C 287.23 298.48 288.44 298.92 290.25 299.75 C 292.06 300.58 294.33 301.40 296.00 301.88 C 297.67 302.35 299.27 302.71 300.25 302.62 C 301.23 302.54 301.27 302.23 301.88 301.38 C 302.48 300.52 302.56 299.52 303.88 297.50 C 305.19 295.48 307.08 293.44 309.75 289.25 C 312.42 285.06 316.71 278.10 319.88 272.38 C 323.04 266.65 326.44 259.62 328.75 254.88 C 331.06 250.12 331.92 248.19 333.75 243.88 C 335.58 239.56 337.75 234.27 339.75 229.00 C 341.75 223.73 342.85 221.29 345.75 212.25 C 348.65 203.21 354.54 182.50 357.12 174.75 C 359.71 167.00 359.33 169.10 361.25 165.75 C 363.17 162.40 365.50 158.52 368.62 154.62 C 371.75 150.73 377.83 144.98 380.00 142.38 C 382.17 139.77 381.33 140.08 381.62 139.00 C 381.92 137.92 381.90 136.79 381.75 135.88 C 381.60 134.96 381.46 134.50 380.75 133.50 C 380.04 132.50 380.15 131.60 377.50 129.88 C 374.85 128.15 368.42 124.77 364.88 123.12 C 361.33 121.48 359.44 121.02 356.25 120.00 C 353.06 118.98 349.12 117.62 345.75 117.00 C 342.38 116.38 338.73 116.23 336.00 116.25 C 333.27 116.27 332.94 116.02 329.38 117.12 C 325.81 118.23 325.15 119.60 314.62 122.88 C 304.10 126.15 281.96 133.42 266.25 136.75 C 250.54 140.08 233.94 141.42 220.38 142.88 C 206.81 144.33 191.50 144.96 184.88 145.50 C 178.25 146.04 181.85 145.73 180.62 146.12 C 179.40 146.52 178.10 147.48 177.50 147.88 Z" id="s-3-f-3"/>
<path d="M 381.75 135.88 C 381.60 134.96 381.46 134.50 380.75 133.50 C 380.04 132.50 380.15 131.60 377.50 129.88 C 374.85 128.15 368.42 124.77 364.88 123.12 C 361.33 121.48 359.44 121.02 356.25 120.00 C 353.06 118.98 349.12 117.62 345.75 117.00 C 342.38 116.38 338.73 116.23 336.00 116.25 C 333.27 116.27 332.94 116.02 329.38 117.12 C 325.81 118.23 325.15 119.60 314.62 122.88 C 304.10 126.15 281.96 133.42 266.25 136.75 C 250.54 140.08 234.56 141.33 220.38 142.88 C 206.19 144.42 188.33 145.10 181.12 146.00 C 173.92 146.90 177.81 147.25 177.12 148.25 C 176.44 149.25 176.71 150.79 177.00 152.00 C 177.29 153.21 177.88 154.23 178.88 155.50 C 179.88 156.77 181.38 158.27 183.00 159.62 C 184.62 160.98 187.02 162.65 188.62 163.62 C 190.23 164.60 191.29 165.00 192.62 165.50 C 193.96 166.00 195.06 166.31 196.62 166.62 C 198.19 166.94 200.15 167.23 202.00 167.38 C 203.85 167.52 205.52 167.60 207.75 167.50 C 209.98 167.40 212.31 167.23 215.38 166.75 C 218.44 166.27 216.73 167.08 226.12 164.62 C 235.52 162.17 261.48 154.77 271.75 152.00 C 282.02 149.23 281.92 149.33 287.75 148.00 C 293.58 146.67 302.29 144.79 306.75 144.00 C 311.21 143.21 312.25 143.27 314.50 143.25 C 316.75 143.23 318.98 143.52 320.25 143.88 C 321.52 144.23 321.52 144.58 322.12 145.38 C 322.73 146.17 323.42 147.31 323.88 148.62 C 324.33 149.94 324.73 151.90 324.88 153.25 C 325.02 154.60 325.77 151.42 324.75 156.75 C 323.73 162.08 321.44 174.54 318.75 185.25 C 316.06 195.96 310.02 214.71 308.62 221.00 C 307.23 227.29 309.31 222.17 310.38 223.00 C 311.44 223.83 313.06 225.02 315.00 226.00 C 316.94 226.98 320.06 228.23 322.00 228.88 C 323.94 229.52 324.48 229.65 326.62 229.88 C 328.77 230.10 332.90 230.29 334.88 230.25 C 336.85 230.21 337.69 229.90 338.50 229.62 C 339.31 229.35 338.04 233.04 339.75 228.62 C 341.46 224.21 345.85 212.10 348.75 203.12 C 351.65 194.15 355.04 180.98 357.12 174.75 C 359.21 168.52 359.33 169.10 361.25 165.75 C 363.17 162.40 365.50 158.52 368.62 154.62 C 371.75 150.73 377.83 144.98 380.00 142.38 C 382.17 139.77 381.33 140.08 381.62 139.00 C 381.92 137.92 381.90 136.79 381.75 135.88 Z" id="s-3-f-4"/>
<path d="M 348.88 128.25 C 348.54 125.02 347.50 122.79 346.88 121.00 C 346.25 119.21 345.54 118.19 345.12 117.50 C 344.71 116.81 345.44 117.08 344.38 116.88 C 343.31 116.67 340.71 116.31 338.75 116.25 C 336.79 116.19 334.69 116.19 332.62 116.50 C 330.56 116.81 328.29 117.44 326.38 118.12 C 324.46 118.81 323.08 119.83 321.12 120.62 C 319.17 121.42 323.77 120.19 314.62 122.88 C 305.48 125.56 281.96 133.42 266.25 136.75 C 250.54 140.08 234.56 141.33 220.38 142.88 C 206.19 144.42 188.33 145.10 181.12 146.00 C 173.92 146.90 177.81 147.25 177.12 148.25 C 176.44 149.25 176.71 150.79 177.00 152.00 C 177.29 153.21 178.10 154.44 178.88 155.50 C 179.65 156.56 180.48 157.33 181.62 158.38 C 182.77 159.42 184.23 160.69 185.75 161.75 C 187.27 162.81 188.94 163.94 190.75 164.75 C 192.56 165.56 194.94 166.21 196.62 166.62 C 198.31 167.04 198.62 167.12 200.88 167.25 C 203.12 167.38 205.92 167.81 210.12 167.38 C 214.33 166.94 217.12 166.85 226.12 164.62 C 235.12 162.40 253.85 156.77 264.12 154.00 C 274.40 151.23 280.52 149.69 287.75 148.00 C 294.98 146.31 302.73 144.67 307.50 143.88 C 312.27 143.08 314.25 143.25 316.38 143.25 C 318.50 143.25 319.44 143.67 320.25 143.88 C 321.06 144.08 320.83 144.10 321.25 144.50 C 321.67 144.90 322.23 145.29 322.75 146.25 C 323.27 147.21 324.02 148.58 324.38 150.25 C 324.73 151.92 325.19 153.29 324.88 156.25 C 324.56 159.21 322.85 165.90 322.50 168.00 C 322.15 170.10 322.46 168.71 322.75 168.88 C 323.04 169.04 323.44 169.17 324.25 169.00 C 325.06 168.83 325.77 168.88 327.62 167.88 C 329.48 166.88 333.48 164.35 335.38 163.00 C 337.27 161.65 337.58 161.35 339.00 159.75 C 340.42 158.15 342.58 155.35 343.88 153.38 C 345.17 151.40 345.92 150.04 346.75 147.88 C 347.58 145.71 348.52 143.65 348.88 140.38 C 349.23 137.10 349.21 131.48 348.88 128.25 Z" id="s-3-f-5"/>
<path d="M 291.88 145.12 C 291.75 143.71 291.40 140.50 290.88 138.25 C 290.35 136.00 289.21 132.83 288.75 131.62 C 288.29 130.42 288.48 131.12 288.12 131.00 C 287.77 130.88 290.27 129.92 286.62 130.88 C 282.98 131.83 277.29 134.75 266.25 136.75 C 255.21 138.75 234.56 141.33 220.38 142.88 C 206.19 144.42 188.33 145.10 181.12 146.00 C 173.92 146.90 177.81 147.25 177.12 148.25 C 176.44 149.25 176.71 150.79 177.00 152.00 C 177.29 153.21 177.88 154.23 178.88 155.50 C 179.88 156.77 181.38 158.27 183.00 159.62 C 184.62 160.98 187.02 162.65 188.62 163.62 C 190.23 164.60 191.29 165.00 192.62 165.50 C 193.96 166.00 195.06 166.31 196.62 166.62 C 198.19 166.94 200.15 167.23 202.00 167.38 C 203.85 167.52 205.52 167.60 207.75 167.50 C 209.98 167.40 212.31 167.23 215.38 166.75 C 218.44 166.27 218.00 166.75 226.12 164.62 C 234.25 162.50 253.40 156.83 264.12 154.00 C 274.85 151.17 285.92 148.83 290.50 147.62 C 295.08 146.42 291.40 147.17 291.62 146.75 C 291.85 146.33 292.00 146.54 291.88 145.12 Z" id="s-3-f-6"/>
<path d="M 250.25 156.88 C 250.29 155.21 250.15 150.62 249.75 148.12 C 249.35 145.62 248.46 143.27 247.88 141.88 C 247.29 140.48 247.52 140.04 246.25 139.75 C 244.98 139.46 244.56 139.60 240.25 140.12 C 235.94 140.65 230.23 141.90 220.38 142.88 C 210.52 143.85 188.27 145.17 181.12 146.00 C 173.98 146.83 178.21 147.33 177.50 147.88 C 176.79 148.42 176.96 148.56 176.88 149.25 C 176.79 149.94 176.67 150.96 177.00 152.00 C 177.33 153.04 177.42 153.88 178.88 155.50 C 180.33 157.12 183.46 160.08 185.75 161.75 C 188.04 163.42 190.81 164.69 192.62 165.50 C 194.44 166.31 195.06 166.31 196.62 166.62 C 198.19 166.94 199.44 167.27 202.00 167.38 C 204.56 167.48 207.98 167.71 212.00 167.25 C 216.02 166.79 219.88 166.15 226.12 164.62 C 232.38 163.10 245.48 159.42 249.50 158.12 C 253.52 156.83 250.21 158.54 250.25 156.88 Z" id="s-3-f-7"/>
<path d="M 225.88 153.62 C 225.88 150.88 225.15 146.71 224.88 145.00 C 224.60 143.29 224.52 143.79 224.25 143.38 C 223.98 142.96 230.44 142.06 223.25 142.50 C 216.06 142.94 188.75 145.10 181.12 146.00 C 173.50 146.90 178.21 147.33 177.50 147.88 C 176.79 148.42 176.96 148.56 176.88 149.25 C 176.79 149.94 176.67 150.96 177.00 152.00 C 177.33 153.04 177.42 153.88 178.88 155.50 C 180.33 157.12 183.46 160.08 185.75 161.75 C 188.04 163.42 190.81 164.69 192.62 165.50 C 194.44 166.31 195.06 166.31 196.62 166.62 C 198.19 166.94 199.44 167.27 202.00 167.38 C 204.56 167.48 208.48 167.65 212.00 167.25 C 215.52 166.85 220.98 165.96 223.12 165.00 C 225.27 164.04 224.42 163.40 224.88 161.50 C 225.33 159.60 225.88 156.38 225.88 153.62 Z" id="s-3-f-8"/>
<path d="M 217.62 145.12 C 217.50 143.75 217.48 143.85 217.12 143.50 C 216.77 143.15 221.50 142.58 215.50 143.00 C 209.50 143.42 187.52 145.12 181.12 146.00 C 174.73 146.88 177.81 147.25 177.12 148.25 C 176.44 149.25 176.85 151.00 177.00 152.00 C 177.15 153.00 177.23 153.19 178.00 154.25 C 178.77 155.31 180.54 157.27 181.62 158.38 C 182.71 159.48 182.98 159.81 184.50 160.88 C 186.02 161.94 188.77 163.79 190.75 164.75 C 192.73 165.71 194.50 166.19 196.38 166.62 C 198.25 167.06 199.33 167.29 202.00 167.38 C 204.67 167.46 210.40 167.25 212.38 167.12 C 214.35 167.00 213.48 166.92 213.88 166.62 C 214.27 166.33 214.25 166.67 214.75 165.38 C 215.25 164.08 216.35 161.15 216.88 158.88 C 217.40 156.60 217.75 154.04 217.88 151.75 C 218.00 149.46 217.75 146.50 217.62 145.12 Z" id="s-3-f-9"/>
</g>
<g id="s-4" clip-path="url(#c-s-4)">
<use href="#s-4-f-0"/>
<path d="M 186.00 205.25 C 185.60 205.98 185.83 207.65 186.00 208.50 C 186.17 209.35 183.25 206.65 187.00 210.38 C 190.75 214.10 202.04 224.10 208.50 230.88 C 214.96 237.65 218.83 242.23 225.75 251.00 C 232.67 259.77 243.48 274.46 250.00 283.50 C 256.52 292.54 262.25 301.23 264.88 305.25 C 267.50 309.27 265.29 306.92 265.75 307.62 C 266.21 308.33 267.29 309.00 267.62 309.50 C 267.96 310.00 267.08 309.62 267.75 310.62 C 268.42 311.62 270.98 314.56 271.62 315.50 C 272.27 316.44 271.15 315.58 271.62 316.25 C 272.10 316.92 273.98 318.77 274.50 319.50 C 275.02 320.23 274.40 320.12 274.75 320.62 C 275.10 321.12 276.29 322.00 276.62 322.50 C 276.96 323.00 276.06 322.54 276.75 323.62 C 277.44 324.71 279.83 327.90 280.75 329.00 C 281.67 330.10 277.23 324.02 282.25 330.25 C 287.27 336.48 302.23 355.83 310.88 366.38 C 319.52 376.92 328.94 387.56 334.12 393.50 C 339.31 399.44 339.62 399.79 342.00 402.00 C 344.38 404.21 346.96 405.79 348.38 406.75 C 349.79 407.71 348.27 407.08 350.50 407.75 C 352.73 408.42 357.04 409.92 361.75 410.75 C 366.46 411.58 371.83 412.08 378.75 412.75 C 385.67 413.42 395.75 414.27 403.25 414.75 C 410.75 415.23 419.96 415.62 423.75 415.62 C 427.54 415.62 425.19 415.54 426.00 414.75 C 426.81 413.96 427.81 412.48 428.62 410.88 C 429.44 409.27 430.33 406.79 430.88 405.12 C 431.42 403.46 431.62 402.98 431.88 400.88 C 432.12 398.77 432.44 394.48 432.38 392.50 C 432.31 390.52 439.06 392.73 431.50 389.00 C 423.94 385.27 396.35 374.02 387.00 370.12 C 377.65 366.23 380.12 368.00 375.38 365.62 C 370.62 363.25 364.60 359.77 358.50 355.88 C 352.40 351.98 345.73 347.52 338.75 342.25 C 331.77 336.98 323.10 329.85 316.62 324.25 C 310.15 318.65 303.35 312.04 299.88 308.62 C 296.40 305.21 296.71 304.62 295.75 303.75 C 294.79 302.88 294.38 303.60 294.12 303.38 C 293.88 303.15 294.65 303.08 294.25 302.38 C 293.85 301.67 293.85 301.40 291.75 299.12 C 289.65 296.85 283.48 290.79 281.62 288.75 C 279.77 286.71 281.17 287.42 280.62 286.88 C 280.08 286.33 280.94 288.27 278.38 285.50 C 275.81 282.73 270.81 276.96 265.25 270.25 C 259.69 263.54 251.23 253.21 245.00 245.25 C 238.77 237.29 232.15 227.71 227.88 222.50 C 223.60 217.29 221.98 216.25 219.38 214.00 C 216.77 211.75 214.08 210.17 212.25 209.00 C 210.42 207.83 209.98 207.67 208.38 207.00 C 206.77 206.33 204.44 205.48 202.62 205.00 C 200.81 204.52 199.44 204.31 197.50 204.12 C 195.56 203.94 192.52 203.88 191.00 203.88 C 189.48 203.88 189.21 203.90 188.38 204.12 C 187.54 204.35 186.40 204.52 186.00 205.25 Z" id="s-4-f-1"/>
<path d="M 186.25 205.00 C 185.83 205.60 185.75 206.85 185.88 207.75 C 186.00 208.65 183.23 206.52 187.00 210.38 C 190.77 214.23 202.04 224.10 208.50 230.88 C 214.96 237.65 218.83 242.23 225.75 251.00 C 232.67 259.77 243.48 274.46 250.00 283.50 C 256.52 292.54 262.25 301.23 264.88 305.25 C 267.50 309.27 265.29 306.92 265.75 307.62 C 266.21 308.33 267.29 309.00 267.62 309.50 C 267.96 310.00 267.08 309.62 267.75 310.62 C 268.42 311.62 270.98 314.56 271.62 315.50 C 272.27 316.44 271.15 315.58 271.62 316.25 C 272.10 316.92 273.98 318.77 274.50 319.50 C 275.02 320.23 274.40 320.12 274.75 320.62 C 275.10 321.12 276.29 322.00 276.62 322.50 C 276.96 323.00 276.42 323.10 276.75 323.62 C 277.08 324.15 278.17 325.00 278.62 325.62 C 279.08 326.25 278.90 326.60 279.50 327.38 C 280.10 328.15 277.02 323.75 282.25 330.25 C 287.48 336.75 301.10 354.58 310.88 366.38 C 320.65 378.17 334.50 394.21 340.88 401.00 C 347.25 407.79 347.08 405.83 349.12 407.12 C 351.17 408.42 351.02 408.15 353.12 408.75 C 355.23 409.35 357.90 410.19 361.75 410.75 C 365.60 411.31 373.60 411.96 376.25 412.12 C 378.90 412.29 376.69 412.44 377.62 411.75 C 378.56 411.06 380.17 409.90 381.88 408.00 C 383.58 406.10 386.38 402.73 387.88 400.38 C 389.38 398.02 390.04 396.83 390.88 393.88 C 391.71 390.92 392.69 385.98 392.88 382.62 C 393.06 379.27 392.25 375.44 392.00 373.75 C 391.75 372.06 392.21 373.10 391.38 372.50 C 390.54 371.90 389.67 371.27 387.00 370.12 C 384.33 368.98 379.08 367.35 375.38 365.62 C 371.67 363.90 368.38 361.90 364.75 359.75 C 361.12 357.60 358.65 356.19 353.62 352.75 C 348.60 349.31 340.35 343.50 334.62 339.12 C 328.90 334.75 323.54 330.15 319.25 326.50 C 314.96 322.85 312.19 320.31 308.88 317.25 C 305.56 314.19 301.56 310.38 299.38 308.12 C 297.19 305.88 296.62 304.54 295.75 303.75 C 294.88 302.96 294.38 303.60 294.12 303.38 C 293.88 303.15 294.65 303.08 294.25 302.38 C 293.85 301.67 293.85 301.40 291.75 299.12 C 289.65 296.85 283.48 290.79 281.62 288.75 C 279.77 286.71 281.17 287.42 280.62 286.88 C 280.08 286.33 283.10 290.92 278.38 285.50 C 273.65 280.08 260.67 264.88 252.25 254.38 C 243.83 243.88 233.35 229.23 227.88 222.50 C 222.40 215.77 221.98 216.25 219.38 214.00 C 216.77 211.75 214.08 210.17 212.25 209.00 C 210.42 207.83 209.98 207.67 208.38 207.00 C 206.77 206.33 205.19 205.52 202.62 205.00 C 200.06 204.48 195.38 204.02 193.00 203.88 C 190.62 203.73 189.50 203.94 188.38 204.12 C 187.25 204.31 186.67 204.40 186.25 205.00 Z" id="s-4-f-2"/>
<path d="M 186.25 205.00 C 185.83 205.60 185.75 206.85 185.88 207.75 C 186.00 208.65 183.23 206.52 187.00 210.38 C 190.77 214.23 202.92 225.19 208.50 230.88 C 214.08 236.56 215.12 237.88 220.50 244.50 C 225.88 251.12 235.25 263.29 240.75 270.62 C 246.25 277.96 249.48 282.73 253.50 288.50 C 257.52 294.27 262.83 302.06 264.88 305.25 C 266.92 308.44 265.29 306.92 265.75 307.62 C 266.21 308.33 267.29 309.00 267.62 309.50 C 267.96 310.00 267.08 309.62 267.75 310.62 C 268.42 311.62 270.98 314.56 271.62 315.50 C 272.27 316.44 271.15 315.58 271.62 316.25 C 272.10 316.92 273.98 318.77 274.50 319.50 C 275.02 320.23 274.40 320.12 274.75 320.62 C 275.10 321.12 276.29 322.00 276.62 322.50 C 276.96 323.00 276.42 323.10 276.75 323.62 C 277.08 324.15 278.17 325.00 278.62 325.62 C 279.08 326.25 278.90 326.60 279.50 327.38 C 280.10 328.15 277.02 323.75 282.25 330.25 C 287.48 336.75 303.40 357.19 310.88 366.38 C 318.35 375.56 324.06 382.10 327.12 385.38 C 330.19 388.65 327.77 386.27 329.25 386.00 C 330.73 385.73 333.94 384.65 336.00 383.75 C 338.06 382.85 339.69 382.00 341.62 380.62 C 343.56 379.25 345.75 377.42 347.62 375.50 C 349.50 373.58 351.67 370.81 352.88 369.12 C 354.08 367.44 354.21 366.94 354.88 365.38 C 355.54 363.81 356.44 361.42 356.88 359.75 C 357.31 358.08 359.56 357.58 357.50 355.38 C 355.44 353.17 349.54 350.19 344.50 346.50 C 339.46 342.81 333.19 338.12 327.25 333.25 C 321.31 328.38 313.52 321.44 308.88 317.25 C 304.23 313.06 301.56 310.38 299.38 308.12 C 297.19 305.88 296.62 304.54 295.75 303.75 C 294.88 302.96 294.38 303.60 294.12 303.38 C 293.88 303.15 294.65 303.08 294.25 302.38 C 293.85 301.67 293.85 301.40 291.75 299.12 C 289.65 296.85 283.48 290.79 281.62 288.75 C 279.77 286.71 281.17 287.42 280.62 286.88 C 280.08 286.33 280.94 288.27 278.38 285.50 C 275.81 282.73 270.81 276.96 265.25 270.25 C 259.69 263.54 251.23 253.21 245.00 245.25 C 238.77 237.29 232.15 227.71 227.88 222.50 C 223.60 217.29 221.98 216.25 219.38 214.00 C 216.77 211.75 214.08 210.17 212.25 209.00 C 210.42 207.83 209.98 207.67 208.38 207.00 C 206.77 206.33 205.19 205.52 202.62 205.00 C 200.06 204.48 195.38 204.02 193.00 203.88 C 190.62 203.73 189.50 203.94 188.38 204.12 C 187.25 204.31 186.67 204.40 186.25 205.00 Z" id="s-4-f-3"/>
<path d="M 186.25 205.00 C 185.69 205.62 185.75 206.85 185.88 207.75 C 186.00 208.65 183.23 206.52 187.00 210.38 C 190.77 214.23 202.92 225.19 208.50 230.88 C 214.08 236.56 216.12 239.21 220.50 244.50 C 224.88 249.79 229.25 255.29 234.75 262.62 C 240.25 269.96 248.48 281.40 253.50 288.50 C 258.52 295.60 262.83 302.06 264.88 305.25 C 266.92 308.44 265.29 306.92 265.75 307.62 C 266.21 308.33 267.29 309.00 267.62 309.50 C 267.96 310.00 267.08 309.62 267.75 310.62 C 268.42 311.62 270.98 314.56 271.62 315.50 C 272.27 316.44 271.15 315.58 271.62 316.25 C 272.10 316.92 273.98 318.77 274.50 319.50 C 275.02 320.23 274.40 320.12 274.75 320.62 C 275.10 321.12 276.29 322.00 276.62 322.50 C 276.96 323.00 274.83 321.10 276.75 323.62 C 278.67 326.15 285.75 335.42 288.12 337.62 C 290.50 339.83 289.75 337.33 291.00 336.88 C 292.25 336.42 294.00 335.77 295.62 334.88 C 297.25 333.98 298.83 333.15 300.75 331.50 C 302.67 329.85 305.48 326.96 307.12 325.00 C 308.77 323.04 310.08 320.83 310.62 319.75 C 311.17 318.67 312.25 320.44 310.38 318.50 C 308.50 316.56 301.81 310.58 299.38 308.12 C 296.94 305.67 296.62 304.54 295.75 303.75 C 294.88 302.96 294.38 303.60 294.12 303.38 C 293.88 303.15 294.65 303.08 294.25 302.38 C 293.85 301.67 293.85 301.40 291.75 299.12 C 289.65 296.85 283.48 290.79 281.62 288.75 C 279.77 286.71 281.17 287.42 280.62 286.88 C 280.08 286.33 280.94 288.27 278.38 285.50 C 275.81 282.73 270.81 276.96 265.25 270.25 C 259.69 263.54 251.60 253.62 245.00 245.25 C 238.40 236.88 229.90 225.21 225.62 220.00 C 221.35 214.79 221.60 215.83 219.38 214.00 C 217.15 212.17 214.08 210.17 212.25 209.00 C 210.42 207.83 209.98 207.67 208.38 207.00 C 206.77 206.33 204.44 205.48 202.62 205.00 C 200.81 204.52 199.73 204.29 197.50 204.12 C 195.27 203.96 191.12 203.85 189.25 204.00 C 187.38 204.15 186.81 204.38 186.25 205.00 Z" id="s-4-f-4"/>
<path d="M 186.25 205.00 C 185.69 205.62 185.75 206.85 185.88 207.75 C 186.00 208.65 183.23 206.52 187.00 210.38 C 190.77 214.23 202.92 225.19 208.50 230.88 C 214.08 236.56 214.67 237.25 220.50 244.50 C 226.33 251.75 236.58 264.90 243.50 274.38 C 250.42 283.85 258.60 296.67 262.00 301.38 C 265.40 306.08 261.94 303.21 263.88 302.62 C 265.81 302.04 270.94 299.77 273.62 297.88 C 276.31 295.98 278.77 292.62 280.00 291.25 C 281.23 289.88 280.81 290.25 281.00 289.62 C 281.19 289.00 281.56 288.19 281.12 287.50 C 280.69 286.81 281.02 288.38 278.38 285.50 C 275.73 282.62 270.81 276.96 265.25 270.25 C 259.69 263.54 251.60 253.62 245.00 245.25 C 238.40 236.88 229.90 225.21 225.62 220.00 C 221.35 214.79 221.60 215.83 219.38 214.00 C 217.15 212.17 214.08 210.17 212.25 209.00 C 210.42 207.83 209.98 207.67 208.38 207.00 C 206.77 206.33 204.44 205.48 202.62 205.00 C 200.81 204.52 199.73 204.29 197.50 204.12 C 195.27 203.96 191.12 203.85 189.25 204.00 C 187.38 204.15 186.81 204.38 186.25 205.00 Z" id="s-4-f-5"/>
<path d="M 186.00 205.25 C 185.60 205.98 185.83 207.65 186.00 208.50 C 186.17 209.35 185.96 209.17 187.00 210.38 C 188.04 211.58 189.88 213.54 192.25 215.75 C 194.62 217.96 197.67 220.15 201.25 223.62 C 204.83 227.10 209.67 232.06 213.75 236.62 C 217.83 241.19 220.96 244.94 225.75 251.00 C 230.54 257.06 239.42 269.33 242.50 273.00 C 245.58 276.67 243.10 273.50 244.25 273.00 C 245.40 272.50 247.75 271.10 249.38 270.00 C 251.00 268.90 252.58 267.77 254.00 266.38 C 255.42 264.98 257.38 262.71 257.88 261.62 C 258.38 260.54 259.15 262.60 257.00 259.88 C 254.85 257.15 249.85 251.48 245.00 245.25 C 240.15 239.02 232.15 227.71 227.88 222.50 C 223.60 217.29 221.98 216.25 219.38 214.00 C 216.77 211.75 214.08 210.17 212.25 209.00 C 210.42 207.83 209.98 207.67 208.38 207.00 C 206.77 206.33 204.44 205.48 202.62 205.00 C 200.81 204.52 199.44 204.31 197.50 204.12 C 195.56 203.94 192.52 203.88 191.00 203.88 C 189.48 203.88 189.21 203.90 188.38 204.12 C 187.54 204.35 186.40 204.52 186.00 205.25 Z" id="s-4-f-6"/>
<path d="M 186.00 205.25 C 185.46 206.00 185.83 207.65 186.00 208.50 C 186.17 209.35 183.25 206.65 187.00 210.38 C 190.75 214.10 202.58 224.77 208.50 230.88 C 214.42 236.98 219.96 244.27 222.50 247.00 C 225.04 249.73 222.62 247.85 223.75 247.25 C 224.88 246.65 227.67 244.67 229.25 243.38 C 230.83 242.08 232.00 240.96 233.25 239.50 C 234.50 238.04 237.15 236.81 236.75 234.62 C 236.35 232.44 232.73 228.81 230.88 226.38 C 229.02 223.94 227.54 222.06 225.62 220.00 C 223.71 217.94 221.60 215.83 219.38 214.00 C 217.15 212.17 214.08 210.17 212.25 209.00 C 210.42 207.83 209.98 207.67 208.38 207.00 C 206.77 206.33 204.44 205.48 202.62 205.00 C 200.81 204.52 199.73 204.29 197.50 204.12 C 195.27 203.96 191.17 203.81 189.25 204.00 C 187.33 204.19 186.54 204.50 186.00 205.25 Z" id="s-4-f-7"/>
<path d="M 186.25 205.00 C 185.69 205.62 185.75 206.85 185.88 207.75 C 186.00 208.65 185.94 209.04 187.00 210.38 C 188.06 211.71 189.88 213.54 192.25 215.75 C 194.62 217.96 197.52 219.96 201.25 223.62 C 204.98 227.29 212.02 235.50 214.62 237.75 C 217.23 240.00 215.77 237.98 216.88 237.12 C 217.98 236.27 220.08 233.96 221.25 232.62 C 222.42 231.29 222.94 230.60 223.88 229.12 C 224.81 227.65 226.35 224.98 226.88 223.75 C 227.40 222.52 228.25 223.38 227.00 221.75 C 225.75 220.12 221.83 216.12 219.38 214.00 C 216.92 211.88 214.08 210.17 212.25 209.00 C 210.42 207.83 209.98 207.67 208.38 207.00 C 206.77 206.33 204.44 205.48 202.62 205.00 C 200.81 204.52 199.73 204.29 197.50 204.12 C 195.27 203.96 191.12 203.85 189.25 204.00 C 187.38 204.15 186.81 204.38 186.25 205.00 Z" id="s-4-f-8"/>
<path d="M 186.25 205.00 C 185.69 205.62 185.75 206.85 185.88 207.75 C 186.00 208.65 185.94 209.04 187.00 210.38 C 188.06 211.71 189.88 213.54 192.25 215.75 C 194.62 217.96 197.92 220.44 201.25 223.62 C 204.58 226.81 210.27 233.04 212.25 234.88 C 214.23 236.71 212.21 235.48 213.12 234.62 C 214.04 233.77 216.27 231.67 217.75 229.75 C 219.23 227.83 221.04 224.94 222.00 223.12 C 222.96 221.31 223.31 219.77 223.50 218.88 C 223.69 217.98 223.81 218.56 223.12 217.75 C 222.44 216.94 220.67 215.12 219.38 214.00 C 218.08 212.88 217.21 212.17 215.38 211.00 C 213.54 209.83 210.50 208.00 208.38 207.00 C 206.25 206.00 204.44 205.48 202.62 205.00 C 200.81 204.52 199.73 204.29 197.50 204.12 C 195.27 203.96 191.12 203.85 189.25 204.00 C 187.38 204.15 186.81 204.38 186.25 205.00 Z" id="s-4-f-9"/>
</g>
</svg>