<?xml version="1.0" encoding="UTF-8"?>
<svg xmlns="http://www.w3.org/2000/svg" viewBox="0 0 500 500">
<defs>
<path d="M 57.62 162.00 C 56.90 162.02 55.81 162.65 55.25 163.12 C 54.69 163.60 55.04 162.54 54.25 164.88 C 53.46 167.21 52.94 170.69 50.50 177.12 C 48.06 183.56 42.67 196.44 39.62 203.50 C 36.58 210.56 33.69 216.10 32.25 219.50 C 30.81 222.90 31.40 221.46 31.00 223.88 C 30.60 226.29 30.04 231.00 29.88 234.00 C 29.71 237.00 29.81 239.50 30.00 241.88 C 30.19 244.25 30.58 246.58 31.00 248.25 C 31.42 249.92 31.79 250.73 32.50 251.88 C 33.21 253.02 34.19 254.15 35.25 255.12 C 36.31 256.10 37.77 257.15 38.88 257.75 C 39.98 258.35 40.62 258.58 41.88 258.75 C 43.12 258.92 45.29 258.90 46.38 258.75 C 47.46 258.60 47.33 258.75 48.38 257.88 C 49.42 257.00 51.23 255.33 52.62 253.50 C 54.02 251.67 55.40 249.54 56.75 246.88 C 58.10 244.21 59.27 241.96 60.75 237.50 C 62.23 233.04 64.48 224.75 65.62 220.12 C 66.77 215.50 67.10 213.38 67.62 209.75 C 68.15 206.12 68.60 202.42 68.75 198.38 C 68.90 194.33 69.00 189.29 68.50 185.50 C 68.00 181.71 66.90 178.90 65.75 175.62 C 64.60 172.35 62.65 167.98 61.62 165.88 C 60.60 163.77 60.29 163.65 59.62 163.00 C 58.96 162.35 58.35 161.98 57.62 162.00 Z" id="s-0-f-0"/>
<clipPath id="c-s-0"><use href="#s-0-f-0"/></clipPath>
<path d="M 113.12 160.12 C 112.85 162.65 111.40 170.94 112.88 175.12 C 114.35 179.31 119.02 182.10 122.00 185.25 C 124.98 188.40 127.50 191.23 130.75 194.00 C 134.00 196.77 139.29 200.40 141.50 201.88 C 143.71 203.35 143.08 202.73 144.00 202.88 C 144.92 203.02 146.10 202.94 147.00 202.75 C 147.90 202.56 148.67 202.19 149.38 201.75 C 150.08 201.31 150.46 201.02 151.25 200.12 C 152.04 199.23 153.40 197.69 154.12 196.38 C 154.85 195.06 155.19 193.81 155.62 192.25 C 156.06 190.69 156.56 189.00 156.75 187.00 C 156.94 185.00 156.92 181.81 156.75 180.25 C 156.58 178.69 156.27 178.58 155.75 177.62 C 155.23 176.67 154.79 175.58 153.62 174.50 C 152.46 173.42 151.15 172.35 148.75 171.12 C 146.35 169.90 143.58 168.65 139.25 167.12 C 134.92 165.60 126.88 163.19 122.75 162.00 C 118.62 160.81 116.10 160.31 114.50 160.00 C 112.90 159.69 113.40 157.60 113.12 160.12 Z" id="s-1-f-0"/>
<clipPath id="c-s-1"><use href="#s-1-f-0"/></clipPath>
<path d="M 85.62 42.00 C 84.42 42.15 84.12 42.54 83.50 43.00 C 82.88 43.46 82.29 44.12 81.88 44.75 C 81.46 45.38 81.17 45.83 81.00 46.75 C 80.83 47.67 80.71 48.85 80.88 50.25 C 81.04 51.65 81.25 52.73 82.00 55.12 C 82.75 57.52 84.58 62.02 85.38 64.62 C 86.17 67.23 86.04 66.44 86.75 70.75 C 87.46 75.06 88.96 84.48 89.62 90.50 C 90.29 96.52 90.40 98.23 90.75 106.88 C 91.10 115.52 91.62 125.12 91.75 142.38 C 91.88 159.62 91.88 187.33 91.50 210.38 C 91.12 233.42 90.46 257.56 89.50 280.62 C 88.54 303.69 86.88 331.94 85.75 348.75 C 84.62 365.56 83.54 374.58 82.75 381.50 C 81.96 388.42 81.62 386.12 81.00 390.25 C 80.38 394.38 79.35 402.23 79.00 406.25 C 78.65 410.27 78.69 411.58 78.88 414.38 C 79.06 417.17 78.96 418.71 80.12 423.00 C 81.29 427.29 84.56 436.60 85.88 440.12 C 87.19 443.65 87.04 442.60 88.00 444.12 C 88.96 445.65 90.73 448.15 91.62 449.25 C 92.52 450.35 92.73 450.50 93.38 450.75 C 94.02 451.00 94.50 451.21 95.50 450.75 C 96.50 450.29 98.00 449.54 99.38 448.00 C 100.75 446.46 102.52 443.75 103.75 441.50 C 104.98 439.25 105.94 436.71 106.75 434.50 C 107.56 432.29 108.12 430.29 108.62 428.25 C 109.12 426.21 109.35 453.94 109.75 422.25 C 110.15 390.56 110.48 279.17 111.00 238.12 C 111.52 197.08 112.50 186.60 112.88 176.00 C 113.25 165.40 113.23 177.58 113.25 174.50 C 113.27 171.42 112.38 170.35 113.00 157.50 C 113.62 144.65 116.00 110.00 117.00 97.38 C 118.00 84.75 118.50 85.25 119.00 81.75 C 119.50 78.25 119.54 78.12 120.00 76.38 C 120.46 74.62 121.48 73.19 121.75 71.25 C 122.02 69.31 121.77 66.15 121.62 64.75 C 121.48 63.35 121.44 63.85 120.88 62.88 C 120.31 61.90 119.29 60.15 118.25 58.88 C 117.21 57.60 115.94 56.40 114.62 55.25 C 113.31 54.10 113.42 53.85 110.38 52.00 C 107.33 50.15 99.65 45.77 96.38 44.12 C 93.10 42.48 92.54 42.48 90.75 42.12 C 88.96 41.77 86.83 41.85 85.62 42.00 Z" id="s-2-f-0"/>
<clipPath id="c-s-2"><use href="#s-2-f-0"/></clipPath>
<path d="M 279.88 149.25 C 279.73 148.42 279.60 147.31 278.88 146.25 C 278.15 145.19 276.62 143.77 275.50 142.88 C 274.38 141.98 274.48 141.85 272.12 140.88 C 269.77 139.90 263.96 137.81 261.38 137.00 C 258.79 136.19 258.29 136.17 256.62 136.00 C 254.96 135.83 253.48 135.40 251.38 136.00 C 249.27 136.60 247.04 138.33 244.00 139.62 C 240.96 140.92 235.31 143.02 233.12 143.75 C 230.94 144.48 235.71 142.71 230.88 144.00 C 226.04 145.29 212.83 149.46 204.12 151.50 C 195.42 153.54 183.48 155.19 178.62 156.25 C 173.77 157.31 175.79 157.35 175.00 157.88 C 174.21 158.40 174.06 158.96 173.88 159.38 C 173.69 159.79 173.69 159.81 173.88 160.38 C 174.06 160.94 173.96 161.56 175.00 162.75 C 176.04 163.94 178.88 166.52 180.12 167.50 C 181.38 168.48 181.38 168.25 182.50 168.62 C 183.62 169.00 185.12 169.44 186.88 169.75 C 188.62 170.06 189.40 170.29 193.00 170.50 C 196.60 170.71 202.52 171.46 208.50 171.00 C 214.48 170.54 223.27 168.92 228.88 167.75 C 234.48 166.58 236.02 165.50 242.12 164.00 C 248.23 162.50 260.65 159.96 265.50 158.75 C 270.35 157.54 269.29 157.56 271.25 156.75 C 273.21 155.94 275.83 154.79 277.25 153.88 C 278.67 152.96 279.31 152.02 279.75 151.25 C 280.19 150.48 280.02 150.08 279.88 149.25 Z" id="s-3-f-0"/>
<clipPath id="c-s-3"><use href="#s-3-f-0"/></clipPath>
<path d="M 204.25 55.88 C 202.90 55.90 203.27 55.77 202.50 56.12 C 201.73 56.48 200.35 57.27 199.62 58.00 C 198.90 58.73 198.42 59.42 198.12 60.50 C 197.83 61.58 197.88 63.62 197.88 64.50 C 197.88 65.38 197.65 64.88 198.12 65.75 C 198.60 66.62 199.83 68.00 200.75 69.75 C 201.67 71.50 202.77 73.67 203.62 76.25 C 204.48 78.83 205.33 73.21 205.88 85.25 C 206.42 97.29 206.77 137.38 206.88 148.50 C 206.98 159.62 206.56 148.35 206.50 152.00 C 206.44 155.65 206.44 167.04 206.50 170.38 C 206.56 173.71 206.67 165.46 206.88 172.00 C 207.08 178.54 207.54 202.85 207.75 209.62 C 207.96 216.40 207.92 212.06 208.12 212.62 C 208.33 213.19 208.60 213.06 209.00 213.00 C 209.40 212.94 207.10 213.23 210.50 212.25 C 213.90 211.27 226.12 208.21 229.38 207.12 C 232.62 206.04 229.58 212.40 230.00 205.75 C 230.42 199.10 231.35 175.04 231.88 167.25 C 232.40 159.46 232.94 163.46 233.12 159.00 C 233.31 154.54 232.69 151.69 233.00 140.50 C 233.31 129.31 234.35 101.94 235.00 91.88 C 235.65 81.81 236.25 82.92 236.88 80.12 C 237.50 77.33 238.42 76.67 238.75 75.12 C 239.08 73.58 239.04 72.10 238.88 70.88 C 238.71 69.65 238.17 68.56 237.75 67.75 C 237.33 66.94 237.19 66.79 236.38 66.00 C 235.56 65.21 234.06 63.85 232.88 63.00 C 231.69 62.15 231.88 61.85 229.25 60.88 C 226.62 59.90 220.23 57.94 217.12 57.12 C 214.02 56.31 212.77 56.21 210.62 56.00 C 208.48 55.79 205.60 55.85 204.25 55.88 Z" id="s-4-f-0"/>
<clipPath id="c-s-4"><use href="#s-4-f-0"/></clipPath>
<path d="M 289.88 207.50 C 289.69 206.85 289.08 206.27 288.50 205.75 C 287.92 205.23 288.15 205.17 286.38 204.38 C 284.60 203.58 281.52 201.88 277.88 201.00 C 274.23 200.12 268.06 199.46 264.50 199.12 C 260.94 198.79 259.73 198.52 256.50 199.00 C 253.27 199.48 248.69 200.92 245.12 202.00 C 241.56 203.08 237.52 204.73 235.12 205.50 C 232.73 206.27 231.96 206.44 230.75 206.62 C 229.54 206.81 228.48 206.52 227.88 206.62 C 227.27 206.73 227.67 207.08 227.12 207.25 C 226.58 207.42 225.29 207.44 224.62 207.62 C 223.96 207.81 223.79 208.21 223.12 208.38 C 222.46 208.54 221.25 208.46 220.62 208.62 C 220.00 208.79 219.98 209.21 219.38 209.38 C 218.77 209.54 218.21 209.29 217.00 209.62 C 215.79 209.96 213.44 211.02 212.12 211.38 C 210.81 211.73 209.79 211.54 209.12 211.75 C 208.46 211.96 208.96 212.29 208.12 212.62 C 207.29 212.96 211.23 212.23 204.12 213.75 C 197.02 215.27 173.69 220.21 165.50 221.75 C 157.31 223.29 157.52 222.46 155.00 223.00 C 152.48 223.54 151.35 224.44 150.38 225.00 C 149.40 225.56 149.38 225.79 149.12 226.38 C 148.88 226.96 148.79 227.88 148.88 228.50 C 148.96 229.12 149.21 229.58 149.62 230.12 C 150.04 230.67 150.56 231.19 151.38 231.75 C 152.19 232.31 152.65 232.69 154.50 233.50 C 156.35 234.31 160.25 235.92 162.50 236.62 C 164.75 237.33 165.69 237.56 168.00 237.75 C 170.31 237.94 170.94 238.54 176.38 237.75 C 181.81 236.96 195.96 233.83 200.62 233.00 C 205.29 232.17 201.19 233.40 204.38 232.75 C 207.56 232.10 215.17 230.10 219.75 229.12 C 224.33 228.15 227.62 227.77 231.88 226.88 C 236.12 225.98 242.23 224.58 245.25 223.75 C 248.27 222.92 247.48 222.67 250.00 221.88 C 252.52 221.08 256.50 219.98 260.38 219.00 C 264.25 218.02 269.79 216.71 273.25 216.00 C 276.71 215.29 279.19 215.17 281.12 214.75 C 283.06 214.33 283.81 213.96 284.88 213.50 C 285.94 213.04 286.71 212.65 287.50 212.00 C 288.29 211.35 289.23 210.38 289.62 209.62 C 290.02 208.88 290.06 208.15 289.88 207.50 Z" id="s-5-f-0"/>
<clipPath id="c-s-5"><use href="#s-5-f-0"/></clipPath>
<path d="M 201.12 232.75 C 200.46 232.54 198.83 232.52 198.00 232.62 C 197.17 232.73 197.96 233.04 196.12 233.38 C 194.29 233.71 188.83 234.29 187.00 234.62 C 185.17 234.96 186.12 235.19 185.12 235.38 C 184.12 235.56 182.04 235.50 181.00 235.75 C 179.96 236.00 178.58 235.31 178.88 236.88 C 179.17 238.44 181.77 242.56 182.75 245.12 C 183.73 247.69 184.25 249.12 184.75 252.25 C 185.25 255.38 185.58 260.40 185.75 263.88 C 185.92 267.35 185.92 268.33 185.75 273.12 C 185.58 277.92 185.23 286.75 184.75 292.62 C 184.27 298.50 183.54 303.73 182.88 308.38 C 182.21 313.02 181.60 316.38 180.75 320.50 C 179.90 324.62 179.29 328.02 177.75 333.12 C 176.21 338.23 173.50 346.04 171.50 351.12 C 169.50 356.21 167.42 360.29 165.75 363.62 C 164.08 366.96 163.17 368.35 161.50 371.12 C 159.83 373.90 157.92 377.04 155.75 380.25 C 153.58 383.46 151.23 386.83 148.50 390.38 C 145.77 393.92 142.04 398.40 139.38 401.50 C 136.71 404.60 134.35 407.12 132.50 409.00 C 130.65 410.88 129.02 411.90 128.25 412.75 C 127.48 413.60 127.77 413.77 127.88 414.12 C 127.98 414.48 128.35 414.77 128.88 414.88 C 129.40 414.98 129.79 415.10 131.00 414.75 C 132.21 414.40 132.92 414.40 136.12 412.75 C 139.33 411.10 146.60 407.10 150.25 404.88 C 153.90 402.65 155.31 401.52 158.00 399.38 C 160.69 397.23 163.73 394.60 166.38 392.00 C 169.02 389.40 171.12 387.21 173.88 383.75 C 176.62 380.29 180.21 375.31 182.88 371.25 C 185.54 367.19 187.92 363.08 189.88 359.38 C 191.83 355.67 193.02 353.08 194.62 349.00 C 196.23 344.92 197.83 340.33 199.50 334.88 C 201.17 329.42 203.44 320.90 204.62 316.25 C 205.81 311.60 205.94 310.96 206.62 307.00 C 207.31 303.04 208.25 296.62 208.75 292.50 C 209.25 288.38 209.40 287.75 209.62 282.25 C 209.85 276.75 209.90 264.44 210.12 259.50 C 210.35 254.56 210.54 255.02 211.00 252.62 C 211.46 250.23 212.60 246.96 212.88 245.12 C 213.15 243.29 213.00 242.69 212.62 241.62 C 212.25 240.56 211.58 239.69 210.62 238.75 C 209.67 237.81 208.31 236.81 206.88 236.00 C 205.44 235.19 202.96 234.42 202.00 233.88 C 201.04 233.33 201.79 232.96 201.12 232.75 Z" id="s-6-f-0"/>
<clipPath id="c-s-6"><use href="#s-6-f-0"/></clipPath>
<path d="M 235.75 225.62 C 234.75 225.44 233.17 225.50 232.38 225.62 C 231.58 225.75 232.52 226.04 231.00 226.38 C 229.48 226.71 224.94 227.23 223.25 227.62 C 221.56 228.02 221.25 228.10 220.88 228.75 C 220.50 229.40 220.52 229.56 221.00 231.50 C 221.48 233.44 222.96 237.12 223.75 240.38 C 224.54 243.62 225.10 246.35 225.75 251.00 C 226.40 255.65 227.17 262.90 227.62 268.25 C 228.08 273.60 228.31 272.88 228.50 283.12 C 228.69 293.38 228.81 317.04 228.75 329.75 C 228.69 342.46 228.46 350.56 228.12 359.38 C 227.79 368.19 227.15 377.65 226.75 382.62 C 226.35 387.60 226.27 387.02 225.75 389.25 C 225.23 391.48 224.19 394.56 223.62 396.00 C 223.06 397.44 222.92 397.29 222.38 397.88 C 221.83 398.46 224.31 399.15 220.38 399.50 C 216.44 399.85 202.50 399.69 198.75 400.00 C 195.00 400.31 198.00 400.85 197.88 401.38 C 197.75 401.90 196.04 400.46 198.00 403.12 C 199.96 405.79 206.48 413.31 209.62 417.38 C 212.77 421.44 214.98 424.67 216.88 427.50 C 218.77 430.33 219.81 432.65 221.00 434.38 C 222.19 436.10 223.23 437.15 224.00 437.88 C 224.77 438.60 224.73 438.62 225.62 438.75 C 226.52 438.88 227.96 439.08 229.38 438.62 C 230.79 438.17 232.50 437.25 234.12 436.00 C 235.75 434.75 237.50 432.94 239.12 431.12 C 240.75 429.31 242.62 427.10 243.88 425.12 C 245.12 423.15 245.85 421.33 246.62 419.25 C 247.40 417.17 247.81 416.52 248.50 412.62 C 249.19 408.73 250.38 405.46 250.75 395.88 C 251.12 386.29 251.06 369.29 250.75 355.12 C 250.44 340.96 249.19 325.48 248.88 310.88 C 248.56 296.27 248.69 277.54 248.88 267.50 C 249.06 257.46 249.38 254.81 250.00 250.62 C 250.62 246.44 252.17 244.71 252.62 242.38 C 253.08 240.04 253.02 238.23 252.75 236.62 C 252.48 235.02 251.75 233.83 251.00 232.75 C 250.25 231.67 249.40 230.90 248.25 230.12 C 247.10 229.35 245.77 228.69 244.12 228.12 C 242.48 227.56 239.77 227.17 238.38 226.75 C 236.98 226.33 236.75 225.81 235.75 225.62 Z" id="s-7-f-0"/>
<clipPath id="c-s-7"><use href="#s-7-f-0"/></clipPath>
<path d="M 165.00 280.12 C 163.31 279.10 162.06 278.65 160.62 278.12 C 159.19 277.60 158.06 277.19 156.38 277.00 C 154.69 276.81 151.75 276.75 150.50 277.00 C 149.25 277.25 149.33 276.77 148.88 278.50 C 148.42 280.23 149.27 281.50 147.75 287.38 C 146.23 293.25 142.44 305.79 139.75 313.75 C 137.06 321.71 133.79 329.81 131.62 335.12 C 129.46 340.44 128.33 342.48 126.75 345.62 C 125.17 348.77 122.90 352.38 122.12 354.00 C 121.35 355.62 121.94 354.94 122.12 355.38 C 122.31 355.81 122.44 356.42 123.25 356.62 C 124.06 356.83 124.67 357.60 127.00 356.62 C 129.33 355.65 134.69 352.42 137.25 350.75 C 139.81 349.08 139.58 349.42 142.38 346.62 C 145.17 343.83 150.62 338.27 154.00 334.00 C 157.38 329.73 159.83 325.73 162.62 321.00 C 165.42 316.27 169.15 308.83 170.75 305.62 C 172.35 302.42 171.46 303.31 172.25 301.75 C 173.04 300.19 174.90 297.48 175.50 296.25 C 176.10 295.02 175.83 295.17 175.88 294.38 C 175.92 293.58 176.06 292.60 175.75 291.50 C 175.44 290.40 174.83 288.96 174.00 287.75 C 173.17 286.54 172.25 285.52 170.75 284.25 C 169.25 282.98 166.69 281.15 165.00 280.12 Z" id="s-8-f-0"/>
<clipPath id="c-s-8"><use href="#s-8-f-0"/></clipPath>
<path d="M 248.75 289.00 C 248.58 291.92 248.60 303.48 248.75 306.50 C 248.90 309.52 248.40 305.29 249.62 307.12 C 250.85 308.96 253.60 314.12 256.12 317.50 C 258.65 320.88 263.19 325.65 264.75 327.38 C 266.31 329.10 264.96 327.81 265.50 327.88 C 266.04 327.94 267.27 327.92 268.00 327.75 C 268.73 327.58 269.12 327.52 269.88 326.88 C 270.62 326.23 271.71 325.15 272.50 323.88 C 273.29 322.60 274.10 320.60 274.62 319.25 C 275.15 317.90 275.44 317.48 275.62 315.75 C 275.81 314.02 275.92 310.60 275.75 308.88 C 275.58 307.15 275.35 306.69 274.62 305.38 C 273.90 304.06 272.81 302.40 271.38 301.00 C 269.94 299.60 268.71 298.65 266.00 297.00 C 263.29 295.35 257.83 292.46 255.12 291.12 C 252.42 289.79 250.81 289.35 249.75 289.00 C 248.69 288.65 248.92 286.08 248.75 289.00 Z" id="s-9-f-0"/>
<clipPath id="c-s-9"><use href="#s-9-f-0"/></clipPath>
<path d="M 425.88 136.88 C 425.85 136.15 425.85 136.02 425.50 135.38 C 425.15 134.73 424.44 133.75 423.75 133.00 C 423.06 132.25 423.10 131.85 421.38 130.88 C 419.65 129.90 415.73 128.10 413.38 127.12 C 411.02 126.15 409.08 125.52 407.25 125.00 C 405.42 124.48 403.88 124.17 402.38 124.00 C 400.88 123.83 399.65 123.54 398.25 124.00 C 396.85 124.46 396.58 125.65 394.00 126.75 C 391.42 127.85 385.00 129.94 382.75 130.62 C 380.50 131.31 385.50 129.35 380.50 130.88 C 375.50 132.40 361.46 137.27 352.75 139.75 C 344.04 142.23 335.38 144.21 328.25 145.75 C 321.12 147.29 313.52 148.12 310.00 149.00 C 306.48 149.88 307.65 150.44 307.12 151.00 C 306.60 151.56 306.62 151.62 306.88 152.38 C 307.12 153.12 307.52 154.27 308.62 155.50 C 309.73 156.73 311.85 158.75 313.50 159.75 C 315.15 160.75 316.02 161.00 318.50 161.50 C 320.98 162.00 323.94 162.56 328.38 162.75 C 332.81 162.94 340.25 162.94 345.12 162.62 C 350.00 162.31 352.08 161.85 357.62 160.88 C 363.17 159.90 373.40 157.90 378.38 156.75 C 383.35 155.60 384.04 154.85 387.50 154.00 C 390.96 153.15 395.46 152.50 399.12 151.62 C 402.79 150.75 406.52 149.73 409.50 148.75 C 412.48 147.77 414.58 146.90 417.00 145.75 C 419.42 144.60 422.56 142.88 424.00 141.88 C 425.44 140.88 425.31 140.58 425.62 139.75 C 425.94 138.92 425.90 137.60 425.88 136.88 Z" id="s-10-f-0"/>
<clipPath id="c-s-10"><use href="#s-10-f-0"/></clipPath>
<path d="M 352.25 32.88 C 350.25 33.02 348.81 33.56 347.75 34.00 C 346.69 34.44 346.48 34.75 345.88 35.50 C 345.27 36.25 344.46 37.44 344.12 38.50 C 343.79 39.56 343.73 40.90 343.88 41.88 C 344.02 42.85 344.00 42.94 345.00 44.38 C 346.00 45.81 348.75 48.77 349.88 50.50 C 351.00 52.23 351.10 52.27 351.75 54.75 C 352.40 57.23 353.12 61.02 353.75 65.38 C 354.38 69.73 355.15 57.35 355.50 80.88 C 355.85 104.40 355.77 185.00 355.88 206.50 C 355.98 228.00 355.94 209.29 356.12 209.88 C 356.31 210.46 353.48 210.83 357.00 210.00 C 360.52 209.17 373.46 205.94 377.25 204.88 C 381.04 203.81 379.15 211.73 379.75 203.62 C 380.35 195.52 380.48 165.38 380.88 156.25 C 381.27 147.12 381.94 153.96 382.12 148.88 C 382.31 143.79 381.85 134.98 382.00 125.75 C 382.15 116.52 382.17 102.40 383.00 93.50 C 383.83 84.60 386.00 77.23 387.00 72.38 C 388.00 67.52 388.46 66.19 389.00 64.38 C 389.54 62.56 389.29 62.79 390.25 61.50 C 391.21 60.21 393.98 57.81 394.75 56.62 C 395.52 55.44 395.04 55.40 394.88 54.38 C 394.71 53.35 394.25 51.60 393.75 50.50 C 393.25 49.40 392.69 48.69 391.88 47.75 C 391.06 46.81 390.38 45.98 388.88 44.88 C 387.38 43.77 385.29 42.40 382.88 41.12 C 380.46 39.85 376.88 38.27 374.38 37.25 C 371.88 36.23 370.31 35.69 367.88 35.00 C 365.44 34.31 362.35 33.48 359.75 33.12 C 357.15 32.77 354.25 32.73 352.25 32.88 Z" id="s-11-f-0"/>
<clipPath id="c-s-11"><use href="#s-11-f-0"/></clipPath>
<path d="M 464.88 205.38 C 464.17 204.15 462.58 202.56 460.38 201.00 C 458.17 199.44 455.27 197.50 451.62 196.00 C 447.98 194.50 441.52 192.83 438.50 192.00 C 435.48 191.17 435.23 191.17 433.50 191.00 C 431.77 190.83 436.92 188.90 428.12 191.00 C 419.33 193.10 389.15 201.52 380.75 203.62 C 372.35 205.73 378.48 203.50 377.75 203.62 C 377.02 203.75 377.04 204.21 376.38 204.38 C 375.71 204.54 374.42 204.46 373.75 204.62 C 373.08 204.79 373.04 205.21 372.38 205.38 C 371.71 205.54 370.42 205.46 369.75 205.62 C 369.08 205.79 369.04 206.21 368.38 206.38 C 367.71 206.54 367.08 206.29 365.75 206.62 C 364.42 206.96 361.81 208.02 360.38 208.38 C 358.94 208.73 357.94 208.50 357.12 208.75 C 356.31 209.00 356.42 209.65 355.50 209.88 C 354.58 210.10 357.54 208.81 351.62 210.12 C 345.71 211.44 330.90 215.38 320.00 217.75 C 309.10 220.12 292.44 223.00 286.25 224.38 C 280.06 225.75 283.60 225.52 282.88 226.00 C 282.15 226.48 282.04 226.85 281.88 227.25 C 281.71 227.65 281.69 227.88 281.88 228.38 C 282.06 228.88 282.27 229.52 283.00 230.25 C 283.73 230.98 283.52 231.19 286.25 232.75 C 288.98 234.31 296.27 238.12 299.38 239.62 C 302.48 241.12 303.27 241.40 304.88 241.75 C 306.48 242.10 306.60 242.52 309.00 241.75 C 311.40 240.98 316.42 238.23 319.25 237.12 C 322.08 236.02 322.35 236.00 326.00 235.12 C 329.65 234.25 335.98 233.23 341.12 231.88 C 346.27 230.52 351.50 228.33 356.88 227.00 C 362.25 225.67 368.04 225.04 373.38 223.88 C 378.71 222.71 382.65 221.15 388.88 220.00 C 395.10 218.85 405.35 217.62 410.75 217.00 C 416.15 216.38 415.10 216.48 421.25 216.25 C 427.40 216.02 442.25 215.88 447.62 215.62 C 453.00 215.38 451.46 215.23 453.50 214.75 C 455.54 214.27 458.33 213.40 459.88 212.75 C 461.42 212.10 461.96 211.60 462.75 210.88 C 463.54 210.15 464.27 209.29 464.62 208.38 C 464.98 207.46 465.58 206.60 464.88 205.38 Z" id="s-12-f-0"/>
<clipPath id="c-s-12"><use href="#s-12-f-0"/></clipPath>
<path d="M 344.38 230.50 C 343.65 230.31 342.56 230.46 341.75 230.62 C 340.94 230.79 340.31 231.31 339.50 231.50 C 338.69 231.69 337.44 231.60 336.88 231.75 C 336.31 231.90 336.75 232.23 336.12 232.38 C 335.50 232.52 333.92 232.44 333.12 232.62 C 332.33 232.81 332.06 233.33 331.38 233.50 C 330.69 233.67 329.75 233.42 329.00 233.62 C 328.25 233.83 327.19 234.08 326.88 234.75 C 326.56 235.42 326.79 236.52 327.12 237.62 C 327.46 238.73 328.27 240.35 328.88 241.38 C 329.48 242.40 330.10 242.46 330.75 243.75 C 331.40 245.04 332.25 247.44 332.75 249.12 C 333.25 250.81 333.44 251.54 333.75 253.88 C 334.06 256.21 334.46 259.17 334.62 263.12 C 334.79 267.08 334.90 271.85 334.75 277.62 C 334.60 283.40 334.23 291.62 333.75 297.75 C 333.27 303.88 332.71 308.52 331.88 314.38 C 331.04 320.23 330.12 326.38 328.75 332.88 C 327.38 339.38 324.96 348.52 323.62 353.38 C 322.29 358.23 322.23 358.08 320.75 362.00 C 319.27 365.92 317.08 371.92 314.75 376.88 C 312.42 381.83 309.27 387.42 306.75 391.75 C 304.23 396.08 302.33 398.94 299.62 402.88 C 296.92 406.81 293.44 411.60 290.50 415.38 C 287.56 419.15 284.08 423.35 282.00 425.50 C 279.92 427.65 278.67 427.50 278.00 428.25 C 277.33 429.00 277.88 429.58 278.00 430.00 C 278.12 430.42 278.17 430.62 278.75 430.75 C 279.33 430.88 280.60 430.92 281.50 430.75 C 282.40 430.58 282.50 430.58 284.12 429.75 C 285.75 428.92 288.54 427.42 291.25 425.75 C 293.96 424.08 297.08 422.23 300.38 419.75 C 303.67 417.27 307.79 413.92 311.00 410.88 C 314.21 407.83 316.81 404.92 319.62 401.50 C 322.44 398.08 325.02 394.75 327.88 390.38 C 330.73 386.00 334.31 379.92 336.75 375.25 C 339.19 370.58 341.00 366.04 342.50 362.38 C 344.00 358.71 344.06 359.23 345.75 353.25 C 347.44 347.27 350.98 333.83 352.62 326.50 C 354.27 319.17 354.81 315.27 355.62 309.25 C 356.44 303.23 357.04 298.75 357.50 290.38 C 357.96 282.00 358.12 265.15 358.38 259.00 C 358.62 252.85 358.73 255.06 359.00 253.50 C 359.27 251.94 359.56 250.83 360.00 249.62 C 360.44 248.42 361.31 247.35 361.62 246.25 C 361.94 245.15 362.06 244.08 361.88 243.00 C 361.69 241.92 361.29 240.79 360.50 239.75 C 359.71 238.71 359.52 238.08 357.12 236.75 C 354.73 235.42 348.25 232.79 346.12 231.75 C 344.00 230.71 345.10 230.69 344.38 230.50 Z" id="s-13-f-0"/>
<clipPath id="c-s-13"><use href="#s-13-f-0"/></clipPath>
<path d="M 385.00 220.62 C 384.17 220.44 383.33 220.33 381.88 220.62 C 380.42 220.92 377.60 222.04 376.25 222.38 C 374.90 222.71 374.48 222.40 373.75 222.62 C 373.02 222.85 372.15 222.54 371.88 223.75 C 371.60 224.96 371.29 225.38 372.12 229.88 C 372.96 234.38 375.77 244.92 376.88 250.75 C 377.98 256.58 378.25 260.33 378.75 264.88 C 379.25 269.42 379.54 272.56 379.88 278.00 C 380.21 283.44 380.60 287.23 380.75 297.50 C 380.90 307.77 380.90 325.94 380.75 339.62 C 380.60 353.31 380.21 369.56 379.88 379.62 C 379.54 389.69 379.27 394.40 378.75 400.00 C 378.23 405.60 377.27 410.54 376.75 413.25 C 376.23 415.96 376.02 415.50 375.62 416.25 C 375.23 417.00 374.88 417.33 374.38 417.75 C 373.88 418.17 374.65 418.75 372.62 418.75 C 370.60 418.75 365.88 418.25 362.25 417.75 C 358.62 417.25 353.10 416.21 350.88 415.75 C 348.65 415.29 349.90 415.12 348.88 415.00 C 347.85 414.88 345.58 414.77 344.75 415.00 C 343.92 415.23 344.00 415.75 343.88 416.38 C 343.75 417.00 343.79 417.96 344.00 418.75 C 344.21 419.54 343.65 419.31 345.12 421.12 C 346.60 422.94 349.77 425.90 352.88 429.62 C 355.98 433.35 361.08 439.90 363.75 443.50 C 366.42 447.10 366.94 448.06 368.88 451.25 C 370.81 454.44 373.92 460.35 375.38 462.62 C 376.83 464.90 376.81 464.33 377.62 464.88 C 378.44 465.42 379.27 465.75 380.25 465.88 C 381.23 466.00 382.04 466.15 383.50 465.62 C 384.96 465.10 386.98 464.27 389.00 462.75 C 391.02 461.23 393.50 458.83 395.62 456.50 C 397.75 454.17 400.23 451.33 401.75 448.75 C 403.27 446.17 403.94 443.56 404.75 441.00 C 405.56 438.44 406.00 437.08 406.62 433.38 C 407.25 429.67 408.12 422.69 408.50 418.75 C 408.88 414.81 408.83 416.50 408.88 409.75 C 408.92 403.00 408.94 387.21 408.75 378.25 C 408.56 369.29 408.21 363.75 407.75 356.00 C 407.29 348.25 406.46 341.46 406.00 331.75 C 405.54 322.04 405.17 308.56 405.00 297.75 C 404.83 286.94 404.83 274.52 405.00 266.88 C 405.17 259.23 405.67 255.29 406.00 251.88 C 406.33 248.46 406.56 248.19 407.00 246.38 C 407.44 244.56 408.33 242.98 408.62 241.00 C 408.92 239.02 409.02 236.27 408.75 234.50 C 408.48 232.73 407.90 231.65 407.00 230.38 C 406.10 229.10 405.79 228.10 403.38 226.88 C 400.96 225.65 395.25 223.85 392.50 223.00 C 389.75 222.15 388.12 222.15 386.88 221.75 C 385.62 221.35 385.83 220.81 385.00 220.62 Z" id="s-14-f-0"/>
<clipPath id="c-s-14"><use href="#s-14-f-0"/></clipPath>
<path d="M 307.25 282.12 C 305.81 281.62 304.46 281.17 302.62 281.00 C 300.79 280.83 297.54 280.83 296.25 281.12 C 294.96 281.42 295.15 281.19 294.88 282.75 C 294.60 284.31 295.31 285.54 294.62 290.50 C 293.94 295.46 291.73 307.33 290.75 312.50 C 289.77 317.67 289.54 318.50 288.75 321.50 C 287.96 324.50 286.71 327.71 286.00 330.50 C 285.29 333.29 285.19 335.60 284.50 338.25 C 283.81 340.90 282.27 344.81 281.88 346.38 C 281.48 347.94 281.85 347.23 282.12 347.62 C 282.40 348.02 282.79 348.56 283.50 348.75 C 284.21 348.94 285.08 349.23 286.38 348.75 C 287.67 348.27 289.60 347.02 291.25 345.88 C 292.90 344.73 294.48 343.54 296.25 341.88 C 298.02 340.21 299.96 338.19 301.88 335.88 C 303.79 333.56 306.08 330.44 307.75 328.00 C 309.42 325.56 310.02 324.69 311.88 321.25 C 313.73 317.81 317.35 310.62 318.88 307.38 C 320.40 304.12 320.35 303.08 321.00 301.75 C 321.65 300.42 322.46 300.42 322.75 299.38 C 323.04 298.33 323.23 296.92 322.75 295.50 C 322.27 294.08 320.69 291.98 319.88 290.88 C 319.06 289.77 319.31 290.02 317.88 288.88 C 316.44 287.73 313.02 285.12 311.25 284.00 C 309.48 282.88 308.69 282.62 307.25 282.12 Z" id="s-15-f-0"/>
<clipPath id="c-s-15"><use href="#s-15-f-0"/></clipPath>
<path d="M 409.75 285.50 C 409.31 285.79 408.98 286.08 408.88 286.62 C 408.77 287.17 408.50 287.46 409.12 288.75 C 409.75 290.04 410.81 290.94 412.62 294.38 C 414.44 297.81 416.79 303.38 420.00 309.38 C 423.21 315.38 428.56 324.92 431.88 330.38 C 435.19 335.83 437.08 338.48 439.88 342.12 C 442.67 345.77 446.48 350.02 448.62 352.25 C 450.77 354.48 451.60 354.75 452.75 355.50 C 453.90 356.25 454.10 356.56 455.50 356.75 C 456.90 356.94 459.73 356.88 461.12 356.62 C 462.52 356.38 462.94 355.98 463.88 355.25 C 464.81 354.52 465.98 353.58 466.75 352.25 C 467.52 350.92 468.17 350.35 468.50 347.25 C 468.83 344.15 468.88 337.15 468.75 333.62 C 468.62 330.10 468.25 328.62 467.75 326.12 C 467.25 323.62 466.42 320.67 465.75 318.62 C 465.08 316.58 464.65 315.58 463.75 313.88 C 462.85 312.17 461.92 310.19 460.38 308.38 C 458.83 306.56 456.67 304.73 454.50 303.00 C 452.33 301.27 450.04 299.65 447.38 298.00 C 444.71 296.35 442.27 294.96 438.50 293.12 C 434.73 291.29 428.21 288.33 424.75 287.00 C 421.29 285.67 419.96 285.48 417.75 285.12 C 415.54 284.77 412.83 284.81 411.50 284.88 C 410.17 284.94 410.19 285.21 409.75 285.50 Z" id="s-16-f-0"/>
<clipPath id="c-s-16"><use href="#s-16-f-0"/></clipPath>
</defs>
<g id="s-0" clip-path="url(#c-s-0)">
<use href="#s-0-f-0"/>
<path d="M 57.62 162.00 C 56.90 162.02 55.81 162.65 55.25 163.12 C 54.69 163.60 55.04 162.54 54.25 164.88 C 53.46 167.21 52.94 170.69 50.50 177.12 C 48.06 183.56 42.67 196.44 39.62 203.50 C 36.58 210.56 33.69 216.10 32.25 219.50 C 30.81 222.90 31.40 221.46 31.00 223.88 C 30.60 226.29 30.04 231.00 29.88 234.00 C 29.71 237.00 29.81 239.50 30.00 241.88 C 30.19 244.25 30.58 246.58 31.00 248.25 C 31.42 249.92 31.98 250.92 32.50 251.88 C 33.02 252.83 33.29 253.17 34.12 254.00 C 34.96 254.83 36.60 256.23 37.50 256.88 C 38.40 257.52 37.94 257.69 39.50 257.88 C 41.06 258.06 45.35 258.04 46.88 258.00 C 48.40 257.96 47.67 258.38 48.62 257.62 C 49.58 256.88 51.46 254.94 52.62 253.50 C 53.79 252.06 54.27 251.67 55.62 249.00 C 56.98 246.33 59.40 241.08 60.75 237.50 C 62.10 233.92 62.77 231.21 63.75 227.50 C 64.73 223.79 65.81 219.67 66.62 215.25 C 67.44 210.83 68.29 205.85 68.62 201.00 C 68.96 196.15 69.10 190.35 68.62 186.12 C 68.15 181.90 66.92 179.00 65.75 175.62 C 64.58 172.25 62.65 167.98 61.62 165.88 C 60.60 163.77 60.29 163.65 59.62 163.00 C 58.96 162.35 58.35 161.98 57.62 162.00 Z" id="s-0-f-1"/>
<path d="M 58.62 162.25 C 58.08 161.83 58.10 161.92 57.62 162.00 C 57.15 162.08 56.31 162.27 55.75 162.75 C 55.19 163.23 55.12 162.48 54.25 164.88 C 53.38 167.27 52.56 171.56 50.50 177.12 C 48.44 182.69 44.12 192.98 41.88 198.25 C 39.62 203.52 37.65 206.88 37.00 208.75 C 36.35 210.62 36.10 209.29 38.00 209.50 C 39.90 209.71 43.71 209.92 48.38 210.00 C 53.04 210.08 62.81 210.06 66.00 210.00 C 69.19 209.94 67.06 211.12 67.50 209.62 C 67.94 208.12 68.44 204.92 68.62 201.00 C 68.81 197.08 68.79 189.38 68.62 186.12 C 68.46 182.88 68.46 184.12 67.62 181.50 C 66.79 178.88 64.75 173.21 63.62 170.38 C 62.50 167.54 61.71 165.85 60.88 164.50 C 60.04 163.15 59.17 162.67 58.62 162.25 Z" id="s-0-f-2"/>
</g>
<g id="s-1" clip-path="url(#c-s-1)">
<use href="#s-1-f-0"/>
</g>
<g id="s-2" clip-path="url(#c-s-2)">
<use href="#s-2-f-0"/>
<path d="M 85.62 42.00 C 84.42 42.15 84.12 42.54 83.50 43.00 C 82.88 43.46 82.29 44.12 81.88 44.75 C 81.46 45.38 81.17 45.83 81.00 46.75 C 80.83 47.67 80.71 48.85 80.88 50.25 C 81.04 51.65 81.25 52.73 82.00 55.12 C 82.75 57.52 84.58 62.02 85.38 64.62 C 86.17 67.23 86.04 66.44 86.75 70.75 C 87.46 75.06 88.96 84.48 89.62 90.50 C 90.29 96.52 90.40 98.23 90.75 106.88 C 91.10 115.52 91.62 125.12 91.75 142.38 C 91.88 159.62 91.88 187.33 91.50 210.38 C 91.12 233.42 90.46 257.56 89.50 280.62 C 88.54 303.69 86.88 331.94 85.75 348.75 C 84.62 365.56 83.54 374.58 82.75 381.50 C 81.96 388.42 81.62 386.12 81.00 390.25 C 80.38 394.38 79.35 402.23 79.00 406.25 C 78.65 410.27 78.71 411.67 78.88 414.38 C 79.04 417.08 79.60 420.58 80.00 422.50 C 80.40 424.42 76.77 425.29 81.25 425.88 C 85.73 426.46 102.31 426.00 106.88 426.00 C 111.44 426.00 108.15 426.50 108.62 425.88 C 109.10 425.25 109.35 453.54 109.75 422.25 C 110.15 390.96 110.48 279.17 111.00 238.12 C 111.52 197.08 112.50 186.60 112.88 176.00 C 113.25 165.40 113.23 177.58 113.25 174.50 C 113.27 171.42 112.38 170.35 113.00 157.50 C 113.62 144.65 116.00 110.00 117.00 97.38 C 118.00 84.75 118.50 85.25 119.00 81.75 C 119.50 78.25 119.54 78.12 120.00 76.38 C 120.46 74.62 121.48 73.19 121.75 71.25 C 122.02 69.31 121.77 66.15 121.62 64.75 C 121.48 63.35 121.44 63.85 120.88 62.88 C 120.31 61.90 119.29 60.15 118.25 58.88 C 117.21 57.60 115.94 56.40 114.62 55.25 C 113.31 54.10 113.42 53.85 110.38 52.00 C 107.33 50.15 99.65 45.77 96.38 44.12 C 93.10 42.48 92.54 42.48 90.75 42.12 C 88.96 41.77 86.83 41.85 85.62 42.00 Z" id="s-2-f-1"/>
<path d="M 85.62 42.00 C 84.42 42.15 84.12 42.54 83.50 43.00 C 82.88 43.46 82.29 44.12 81.88 44.75 C 81.46 45.38 81.17 45.83 81.00 46.75 C 80.83 47.67 80.71 48.85 80.88 50.25 C 81.04 51.65 81.25 52.73 82.00 55.12 C 82.75 57.52 84.58 62.02 85.38 64.62 C 86.17 67.23 86.02 66.17 86.75 70.75 C 87.48 75.33 89.08 86.10 89.75 92.12 C 90.42 98.15 90.44 99.88 90.75 106.88 C 91.06 113.88 91.48 118.56 91.62 134.12 C 91.77 149.69 91.79 180.75 91.62 200.25 C 91.46 219.75 91.10 235.08 90.62 251.12 C 90.15 267.17 89.33 285.17 88.75 296.50 C 88.17 307.83 87.62 310.42 87.12 319.12 C 86.62 327.83 86.19 341.00 85.75 348.75 C 85.31 356.50 84.96 360.83 84.50 365.62 C 84.04 370.42 83.12 375.44 83.00 377.50 C 82.88 379.56 79.54 377.92 83.75 378.00 C 87.96 378.08 103.83 378.10 108.25 378.00 C 112.67 377.90 109.79 400.69 110.25 377.38 C 110.71 354.06 110.56 271.69 111.00 238.12 C 111.44 204.56 112.50 186.60 112.88 176.00 C 113.25 165.40 113.23 177.58 113.25 174.50 C 113.27 171.42 112.38 170.35 113.00 157.50 C 113.62 144.65 116.00 110.00 117.00 97.38 C 118.00 84.75 118.50 85.25 119.00 81.75 C 119.50 78.25 119.54 78.12 120.00 76.38 C 120.46 74.62 121.46 73.08 121.75 71.25 C 122.04 69.42 121.90 66.77 121.75 65.38 C 121.60 63.98 121.46 63.96 120.88 62.88 C 120.29 61.79 119.29 60.15 118.25 58.88 C 117.21 57.60 116.19 56.56 114.62 55.25 C 113.06 53.94 111.92 52.85 108.88 51.00 C 105.83 49.15 99.40 45.60 96.38 44.12 C 93.35 42.65 92.54 42.48 90.75 42.12 C 88.96 41.77 86.83 41.85 85.62 42.00 Z" id="s-2-f-2"/>
<path d="M 85.62 42.00 C 84.42 42.15 84.12 42.54 83.50 43.00 C 82.88 43.46 82.29 44.12 81.88 44.75 C 81.46 45.38 81.17 45.83 81.00 46.75 C 80.83 47.67 80.71 48.85 80.88 50.25 C 81.04 51.65 81.25 52.73 82.00 55.12 C 82.75 57.52 84.58 62.02 85.38 64.62 C 86.17 67.23 86.04 66.44 86.75 70.75 C 87.46 75.06 88.94 83.98 89.62 90.50 C 90.31 97.02 90.52 101.23 90.88 109.88 C 91.23 118.52 91.62 127.31 91.75 142.38 C 91.88 157.44 91.81 182.12 91.62 200.25 C 91.44 218.38 91.10 235.08 90.62 251.12 C 90.15 267.17 89.40 283.44 88.75 296.50 C 88.10 309.56 85.90 323.92 86.75 329.50 C 87.60 335.08 90.23 329.92 93.88 330.00 C 97.52 330.08 105.92 330.04 108.62 330.00 C 111.33 329.96 109.79 330.27 110.12 329.75 C 110.46 329.23 110.48 342.15 110.62 326.88 C 110.77 311.60 110.62 263.27 111.00 238.12 C 111.38 212.98 112.50 186.60 112.88 176.00 C 113.25 165.40 113.23 177.58 113.25 174.50 C 113.27 171.42 112.38 170.35 113.00 157.50 C 113.62 144.65 116.00 110.00 117.00 97.38 C 118.00 84.75 118.50 85.25 119.00 81.75 C 119.50 78.25 119.54 78.12 120.00 76.38 C 120.46 74.62 121.46 73.08 121.75 71.25 C 122.04 69.42 121.90 66.77 121.75 65.38 C 121.60 63.98 121.46 63.96 120.88 62.88 C 120.29 61.79 119.29 60.15 118.25 58.88 C 117.21 57.60 116.19 56.56 114.62 55.25 C 113.06 53.94 111.92 52.85 108.88 51.00 C 105.83 49.15 99.40 45.60 96.38 44.12 C 93.35 42.65 92.54 42.48 90.75 42.12 C 88.96 41.77 86.83 41.85 85.62 42.00 Z" id="s-2-f-3"/>
<path d="M 85.62 42.00 C 84.42 42.15 84.12 42.54 83.50 43.00 C 82.88 43.46 82.29 44.12 81.88 44.75 C 81.46 45.38 81.17 45.83 81.00 46.75 C 80.83 47.67 80.71 48.85 80.88 50.25 C 81.04 51.65 81.25 52.73 82.00 55.12 C 82.75 57.52 84.42 61.06 85.38 64.62 C 86.33 68.19 87.04 72.19 87.75 76.50 C 88.46 80.81 89.10 84.94 89.62 90.50 C 90.15 96.06 90.52 101.23 90.88 109.88 C 91.23 118.52 91.62 127.31 91.75 142.38 C 91.88 157.44 91.81 182.12 91.62 200.25 C 91.44 218.38 91.02 237.62 90.62 251.12 C 90.23 264.62 89.38 276.12 89.25 281.25 C 89.12 286.38 89.54 281.75 89.88 281.88 C 90.21 282.00 87.83 282.00 91.25 282.00 C 94.67 282.00 107.10 282.00 110.38 281.88 C 113.65 281.75 110.71 291.12 110.88 281.25 C 111.04 271.38 111.04 240.17 111.38 222.62 C 111.71 205.08 112.56 184.02 112.88 176.00 C 113.19 167.98 113.23 177.58 113.25 174.50 C 113.27 171.42 112.38 170.35 113.00 157.50 C 113.62 144.65 116.00 110.00 117.00 97.38 C 118.00 84.75 118.50 85.25 119.00 81.75 C 119.50 78.25 119.54 78.12 120.00 76.38 C 120.46 74.62 121.46 73.08 121.75 71.25 C 122.04 69.42 121.90 66.77 121.75 65.38 C 121.60 63.98 121.46 63.96 120.88 62.88 C 120.29 61.79 119.29 60.15 118.25 58.88 C 117.21 57.60 116.19 56.56 114.62 55.25 C 113.06 53.94 111.92 52.85 108.88 51.00 C 105.83 49.15 99.40 45.60 96.38 44.12 C 93.35 42.65 92.54 42.48 90.75 42.12 C 88.96 41.77 86.83 41.85 85.62 42.00 Z" id="s-2-f-4"/>
<path d="M 85.62 42.00 C 84.42 42.15 84.12 42.54 83.50 43.00 C 82.88 43.46 82.29 44.12 81.88 44.75 C 81.46 45.38 81.17 45.83 81.00 46.75 C 80.83 47.67 80.71 48.85 80.88 50.25 C 81.04 51.65 81.25 52.73 82.00 55.12 C 82.75 57.52 84.58 62.02 85.38 64.62 C 86.17 67.23 86.04 66.44 86.75 70.75 C 87.46 75.06 88.96 84.48 89.62 90.50 C 90.29 96.52 90.40 98.23 90.75 106.88 C 91.10 115.52 91.69 121.25 91.75 142.38 C 91.81 163.50 91.12 218.35 91.12 233.62 C 91.12 248.90 88.50 233.96 91.75 234.00 C 95.00 234.04 107.40 233.98 110.62 233.88 C 113.85 233.77 110.90 238.88 111.12 233.38 C 111.35 227.88 111.65 210.69 112.00 200.88 C 112.35 191.06 113.08 181.73 113.25 174.50 C 113.42 167.27 112.71 165.90 113.00 157.50 C 113.29 149.10 114.15 135.81 115.00 124.12 C 115.85 112.44 117.29 95.33 118.12 87.38 C 118.96 79.42 119.40 79.06 120.00 76.38 C 120.60 73.69 121.46 73.08 121.75 71.25 C 122.04 69.42 121.90 66.77 121.75 65.38 C 121.60 63.98 121.46 63.96 120.88 62.88 C 120.29 61.79 119.29 60.15 118.25 58.88 C 117.21 57.60 116.19 56.56 114.62 55.25 C 113.06 53.94 111.92 52.85 108.88 51.00 C 105.83 49.15 99.40 45.60 96.38 44.12 C 93.35 42.65 92.54 42.48 90.75 42.12 C 88.96 41.77 86.83 41.85 85.62 42.00 Z" id="s-2-f-5"/>
<path d="M 85.62 42.00 C 84.42 42.15 84.12 42.54 83.50 43.00 C 82.88 43.46 82.29 44.12 81.88 44.75 C 81.46 45.38 81.17 45.83 81.00 46.75 C 80.83 47.67 80.71 48.85 80.88 50.25 C 81.04 51.65 81.25 52.73 82.00 55.12 C 82.75 57.52 84.58 62.02 85.38 64.62 C 86.17 67.23 86.04 66.44 86.75 70.75 C 87.46 75.06 88.83 80.96 89.62 90.50 C 90.42 100.04 91.15 112.21 91.50 128.00 C 91.85 143.79 91.48 175.58 91.75 185.25 C 92.02 194.92 89.73 185.90 93.12 186.00 C 96.52 186.10 108.85 186.02 112.12 185.88 C 115.40 185.73 112.56 187.02 112.75 185.12 C 112.94 183.23 113.21 179.10 113.25 174.50 C 113.29 169.90 112.54 168.42 113.00 157.50 C 113.46 146.58 115.15 120.69 116.00 109.00 C 116.85 97.31 117.46 92.81 118.12 87.38 C 118.79 81.94 119.40 79.06 120.00 76.38 C 120.60 73.69 121.46 73.08 121.75 71.25 C 122.04 69.42 121.90 66.77 121.75 65.38 C 121.60 63.98 121.46 63.96 120.88 62.88 C 120.29 61.79 119.29 60.15 118.25 58.88 C 117.21 57.60 116.19 56.56 114.62 55.25 C 113.06 53.94 111.92 52.85 108.88 51.00 C 105.83 49.15 99.40 45.60 96.38 44.12 C 93.35 42.65 92.54 42.48 90.75 42.12 C 88.96 41.77 86.83 41.85 85.62 42.00 Z" id="s-2-f-6"/>
<path d="M 85.62 42.00 C 84.42 42.15 84.12 42.54 83.50 43.00 C 82.88 43.46 82.29 44.12 81.88 44.75 C 81.46 45.38 81.17 45.83 81.00 46.75 C 80.83 47.67 80.71 48.85 80.88 50.25 C 81.04 51.65 81.25 52.73 82.00 55.12 C 82.75 57.52 84.58 62.02 85.38 64.62 C 86.17 67.23 86.04 66.44 86.75 70.75 C 87.46 75.06 88.96 84.48 89.62 90.50 C 90.29 96.52 90.42 99.04 90.75 106.88 C 91.08 114.71 90.94 132.31 91.62 137.50 C 92.31 142.69 91.17 137.94 94.88 138.00 C 98.58 138.06 110.62 137.98 113.88 137.88 C 117.12 137.77 113.85 144.12 114.38 137.38 C 114.90 130.62 116.23 106.65 117.00 97.38 C 117.77 88.10 118.50 85.25 119.00 81.75 C 119.50 78.25 119.54 78.12 120.00 76.38 C 120.46 74.62 121.48 73.19 121.75 71.25 C 122.02 69.31 121.96 66.48 121.62 64.75 C 121.29 63.02 120.56 62.12 119.75 60.88 C 118.94 59.62 118.56 58.90 116.75 57.25 C 114.94 55.60 112.27 53.19 108.88 51.00 C 105.48 48.81 99.40 45.60 96.38 44.12 C 93.35 42.65 92.54 42.48 90.75 42.12 C 88.96 41.77 86.83 41.85 85.62 42.00 Z" id="s-2-f-7"/>
<path d="M 83.50 43.00 C 82.92 43.40 82.52 43.81 82.12 44.38 C 81.73 44.94 81.33 45.40 81.12 46.38 C 80.92 47.35 80.73 48.79 80.88 50.25 C 81.02 51.71 81.25 52.73 82.00 55.12 C 82.75 57.52 84.58 62.02 85.38 64.62 C 86.17 67.23 86.10 66.62 86.75 70.75 C 87.40 74.88 88.73 86.19 89.25 89.38 C 89.77 92.56 85.12 89.81 89.88 89.88 C 94.62 89.94 112.73 92.00 117.75 89.75 C 122.77 87.50 119.35 79.35 120.00 76.38 C 120.65 73.40 121.31 72.96 121.62 71.88 C 121.94 70.79 121.88 71.06 121.88 69.88 C 121.88 68.69 121.98 66.25 121.62 64.75 C 121.27 63.25 120.71 62.27 119.75 60.88 C 118.79 59.48 117.44 57.85 115.88 56.38 C 114.31 54.90 113.62 54.04 110.38 52.00 C 107.12 49.96 99.65 45.77 96.38 44.12 C 93.10 42.48 92.54 42.48 90.75 42.12 C 88.96 41.77 86.83 41.85 85.62 42.00 C 84.42 42.15 84.08 42.60 83.50 43.00 Z" id="s-2-f-8"/>
</g>
<g id="s-3" clip-path="url(#c-s-3)">
<use href="#s-3-f-0"/>
<path d="M 269.88 140.25 C 269.48 137.31 269.04 139.54 267.62 139.00 C 266.21 138.46 263.21 137.50 261.38 137.00 C 259.54 136.50 258.29 136.17 256.62 136.00 C 254.96 135.83 253.48 135.40 251.38 136.00 C 249.27 136.60 247.04 138.33 244.00 139.62 C 240.96 140.92 235.31 143.02 233.12 143.75 C 230.94 144.48 235.71 142.71 230.88 144.00 C 226.04 145.29 212.83 149.46 204.12 151.50 C 195.42 153.54 183.48 155.19 178.62 156.25 C 173.77 157.31 175.79 157.35 175.00 157.88 C 174.21 158.40 174.04 158.83 173.88 159.38 C 173.71 159.92 173.62 160.35 174.00 161.12 C 174.38 161.90 175.00 162.88 176.12 164.00 C 177.25 165.12 178.96 166.92 180.75 167.88 C 182.54 168.83 184.83 169.31 186.88 169.75 C 188.92 170.19 189.40 170.29 193.00 170.50 C 196.60 170.71 202.52 171.46 208.50 171.00 C 214.48 170.54 223.94 168.75 228.88 167.75 C 233.81 166.75 233.33 166.17 238.12 165.00 C 242.92 163.83 252.44 162.00 257.62 160.75 C 262.81 159.50 267.19 158.19 269.25 157.50 C 271.31 156.81 269.90 159.50 270.00 156.62 C 270.10 153.75 270.27 143.19 269.88 140.25 Z" id="s-3-f-1"/>
<path d="M 221.88 147.12 C 221.67 143.75 223.29 146.12 220.75 146.75 C 218.21 147.38 211.02 149.73 206.62 150.88 C 202.23 152.02 199.04 152.73 194.38 153.62 C 189.71 154.52 181.62 155.69 178.62 156.25 C 175.62 156.81 177.04 156.67 176.38 157.00 C 175.71 157.33 175.04 157.67 174.62 158.25 C 174.21 158.83 173.75 159.69 173.88 160.50 C 174.00 161.31 174.33 161.96 175.38 163.12 C 176.42 164.29 178.94 166.58 180.12 167.50 C 181.31 168.42 181.38 168.25 182.50 168.62 C 183.62 169.00 184.60 169.40 186.88 169.75 C 189.15 170.10 192.52 170.54 196.12 170.75 C 199.73 170.96 204.27 171.31 208.50 171.00 C 212.73 170.69 219.25 169.54 221.50 168.88 C 223.75 168.21 221.94 170.62 222.00 167.00 C 222.06 163.38 222.08 150.50 221.88 147.12 Z" id="s-3-f-2"/>
</g>
<g id="s-4" clip-path="url(#c-s-4)">
<use href="#s-4-f-0"/>
<path d="M 203.12 56.00 C 201.54 56.17 201.56 56.52 200.88 57.00 C 200.19 57.48 199.48 58.21 199.00 58.88 C 198.52 59.54 198.15 59.85 198.00 61.00 C 197.85 62.15 197.67 64.29 198.12 65.75 C 198.58 67.21 199.83 68.00 200.75 69.75 C 201.67 71.50 202.77 73.67 203.62 76.25 C 204.48 78.83 205.33 73.21 205.88 85.25 C 206.42 97.29 206.77 137.38 206.88 148.50 C 206.98 159.62 206.56 148.35 206.50 152.00 C 206.44 155.65 206.44 167.04 206.50 170.38 C 206.56 173.71 206.71 167.25 206.88 172.00 C 207.04 176.75 207.33 194.23 207.50 198.88 C 207.67 203.52 207.73 199.69 207.88 199.88 C 208.02 200.06 204.71 200.00 208.38 200.00 C 212.04 200.00 226.19 200.12 229.88 199.88 C 233.56 199.62 230.17 203.94 230.50 198.50 C 230.83 193.06 231.44 173.83 231.88 167.25 C 232.31 160.67 232.94 163.46 233.12 159.00 C 233.31 154.54 232.69 151.69 233.00 140.50 C 233.31 129.31 234.35 101.94 235.00 91.88 C 235.65 81.81 236.25 82.92 236.88 80.12 C 237.50 77.33 238.42 76.67 238.75 75.12 C 239.08 73.58 239.02 72.08 238.88 70.88 C 238.73 69.67 238.29 68.69 237.88 67.88 C 237.46 67.06 237.21 66.81 236.38 66.00 C 235.54 65.19 234.06 63.85 232.88 63.00 C 231.69 62.15 231.98 61.88 229.25 60.88 C 226.52 59.88 219.65 57.81 216.50 57.00 C 213.35 56.19 212.60 56.17 210.38 56.00 C 208.15 55.83 204.71 55.83 203.12 56.00 Z" id="s-4-f-1"/>
<path d="M 202.50 56.12 C 200.73 56.40 200.58 57.17 200.00 57.62 C 199.42 58.08 199.33 58.31 199.00 58.88 C 198.67 59.44 198.15 59.85 198.00 61.00 C 197.85 62.15 197.67 64.29 198.12 65.75 C 198.58 67.21 199.83 68.00 200.75 69.75 C 201.67 71.50 202.77 73.67 203.62 76.25 C 204.48 78.83 205.38 72.62 205.88 85.25 C 206.38 97.88 202.29 140.85 206.62 152.00 C 210.96 163.15 227.54 152.17 231.88 152.12 C 236.21 152.08 232.40 152.56 232.62 151.75 C 232.85 150.94 233.19 149.08 233.25 147.25 C 233.31 145.42 232.71 149.96 233.00 140.75 C 233.29 131.54 234.33 102.21 235.00 92.00 C 235.67 81.79 236.38 82.31 237.00 79.50 C 237.62 76.69 238.48 76.75 238.75 75.12 C 239.02 73.50 238.79 70.98 238.62 69.75 C 238.46 68.52 238.23 68.48 237.75 67.75 C 237.27 67.02 236.56 66.17 235.75 65.38 C 234.94 64.58 233.96 63.75 232.88 63.00 C 231.79 62.25 231.98 61.88 229.25 60.88 C 226.52 59.88 219.60 57.81 216.50 57.00 C 213.40 56.19 212.96 56.15 210.62 56.00 C 208.29 55.85 204.27 55.85 202.50 56.12 Z" id="s-4-f-2"/>
<path d="M 200.00 57.62 C 199.27 58.35 198.48 59.35 198.12 60.50 C 197.77 61.65 197.88 63.62 197.88 64.50 C 197.88 65.38 197.65 64.88 198.12 65.75 C 198.60 66.62 199.67 67.52 200.75 69.75 C 201.83 71.98 203.81 76.81 204.62 79.12 C 205.44 81.44 205.35 79.54 205.62 83.62 C 205.90 87.71 206.04 100.23 206.25 103.62 C 206.46 107.02 202.50 103.94 206.88 104.00 C 211.25 104.06 227.92 104.06 232.50 104.00 C 237.08 103.94 234.00 103.77 234.38 103.62 C 234.75 103.48 234.65 105.06 234.75 103.12 C 234.85 101.19 234.62 95.94 235.00 92.00 C 235.38 88.06 236.38 82.31 237.00 79.50 C 237.62 76.69 238.44 76.56 238.75 75.12 C 239.06 73.69 239.02 72.08 238.88 70.88 C 238.73 69.67 238.69 69.04 237.88 67.88 C 237.06 66.71 235.40 65.02 234.00 63.88 C 232.60 62.73 231.65 61.96 229.50 61.00 C 227.35 60.04 224.12 58.94 221.12 58.12 C 218.12 57.31 213.65 56.50 211.50 56.12 C 209.35 55.75 209.75 55.88 208.25 55.88 C 206.75 55.88 203.88 55.83 202.50 56.12 C 201.12 56.42 200.73 56.90 200.00 57.62 Z" id="s-4-f-3"/>
</g>
<g id="s-5" clip-path="url(#c-s-5)">
<use href="#s-5-f-0"/>
<path d="M 244.88 202.88 C 244.71 199.52 245.62 201.94 244.00 202.38 C 242.38 202.81 237.33 204.79 235.12 205.50 C 232.92 206.21 231.96 206.44 230.75 206.62 C 229.54 206.81 228.48 206.52 227.88 206.62 C 227.27 206.73 227.67 207.08 227.12 207.25 C 226.58 207.42 225.29 207.44 224.62 207.62 C 223.96 207.81 223.79 208.21 223.12 208.38 C 222.46 208.54 221.25 208.46 220.62 208.62 C 220.00 208.79 219.98 209.21 219.38 209.38 C 218.77 209.54 218.21 209.29 217.00 209.62 C 215.79 209.96 213.44 211.02 212.12 211.38 C 210.81 211.73 209.79 211.54 209.12 211.75 C 208.46 211.96 208.96 212.29 208.12 212.62 C 207.29 212.96 211.23 212.23 204.12 213.75 C 197.02 215.27 173.69 220.21 165.50 221.75 C 157.31 223.29 157.52 222.46 155.00 223.00 C 152.48 223.54 151.38 224.35 150.38 225.00 C 149.38 225.65 149.23 226.21 149.00 226.88 C 148.77 227.54 148.69 228.25 149.00 229.00 C 149.31 229.75 150.23 230.77 150.88 231.38 C 151.52 231.98 150.94 231.75 152.88 232.62 C 154.81 233.50 159.98 235.77 162.50 236.62 C 165.02 237.48 165.92 237.54 168.00 237.75 C 170.08 237.96 169.56 238.67 175.00 237.88 C 180.44 237.08 195.73 233.85 200.62 233.00 C 205.52 232.15 197.06 234.27 204.38 232.75 C 211.69 231.23 237.73 225.58 244.50 223.88 C 251.27 222.17 244.94 226.00 245.00 222.50 C 245.06 219.00 245.04 206.23 244.88 202.88 Z" id="s-5-f-1"/>
<path d="M 196.88 215.75 C 196.69 212.98 197.67 215.04 195.88 215.38 C 194.08 215.71 191.19 216.69 186.12 217.75 C 181.06 218.81 170.69 220.88 165.50 221.75 C 160.31 222.62 157.52 222.46 155.00 223.00 C 152.48 223.54 151.38 224.35 150.38 225.00 C 149.38 225.65 149.25 226.27 149.00 226.88 C 148.75 227.48 148.56 227.88 148.88 228.62 C 149.19 229.38 149.94 230.56 150.88 231.38 C 151.81 232.19 152.50 232.60 154.50 233.50 C 156.50 234.40 160.62 236.04 162.88 236.75 C 165.12 237.46 165.75 237.58 168.00 237.75 C 170.25 237.92 174.60 237.88 176.38 237.75 C 178.15 237.62 175.31 237.62 178.62 237.00 C 181.94 236.38 193.21 234.58 196.25 234.00 C 199.29 233.42 196.75 233.83 196.88 233.50 C 197.00 233.17 197.00 234.96 197.00 232.00 C 197.00 229.04 197.06 218.52 196.88 215.75 Z" id="s-5-f-2"/>
</g>
<g id="s-6" clip-path="url(#c-s-6)">
<use href="#s-6-f-0"/>
<path d="M 201.12 232.75 C 200.46 232.54 198.83 232.52 198.00 232.62 C 197.17 232.73 197.96 233.04 196.12 233.38 C 194.29 233.71 188.83 234.29 187.00 234.62 C 185.17 234.96 186.12 235.19 185.12 235.38 C 184.12 235.56 182.04 235.50 181.00 235.75 C 179.96 236.00 178.42 234.85 178.88 236.88 C 179.33 238.90 182.75 245.19 183.75 247.88 C 184.75 250.56 184.54 250.33 184.88 253.00 C 185.21 255.67 185.67 258.77 185.75 263.88 C 185.83 268.98 185.58 278.38 185.38 283.62 C 185.17 288.88 184.94 291.10 184.50 295.38 C 184.06 299.65 183.71 303.58 182.75 309.25 C 181.79 314.92 180.23 323.40 178.75 329.38 C 177.27 335.35 175.54 340.44 173.88 345.12 C 172.21 349.81 170.27 354.10 168.75 357.50 C 167.23 360.90 166.54 362.33 164.75 365.50 C 162.96 368.67 159.06 374.60 158.00 376.50 C 156.94 378.40 155.17 376.79 158.38 376.88 C 161.58 376.96 173.75 377.08 177.25 377.00 C 180.75 376.92 177.62 378.65 179.38 376.38 C 181.12 374.10 185.69 366.83 187.75 363.38 C 189.81 359.92 190.42 358.50 191.75 355.62 C 193.08 352.75 194.46 349.58 195.75 346.12 C 197.04 342.67 198.00 339.94 199.50 334.88 C 201.00 329.81 203.38 321.54 204.75 315.75 C 206.12 309.96 206.94 305.71 207.75 300.12 C 208.56 294.54 209.23 289.02 209.62 282.25 C 210.02 275.48 209.90 264.44 210.12 259.50 C 210.35 254.56 210.54 255.02 211.00 252.62 C 211.46 250.23 212.60 246.96 212.88 245.12 C 213.15 243.29 213.00 242.69 212.62 241.62 C 212.25 240.56 211.58 239.69 210.62 238.75 C 209.67 237.81 208.31 236.81 206.88 236.00 C 205.44 235.19 202.96 234.42 202.00 233.88 C 201.04 233.33 201.79 232.96 201.12 232.75 Z" id="s-6-f-1"/>
<path d="M 201.12 232.75 C 200.46 232.54 198.83 232.52 198.00 232.62 C 197.17 232.73 197.96 233.04 196.12 233.38 C 194.29 233.71 188.83 234.29 187.00 234.62 C 185.17 234.96 186.12 235.19 185.12 235.38 C 184.12 235.56 182.04 235.50 181.00 235.75 C 179.96 236.00 178.42 234.85 178.88 236.88 C 179.33 238.90 182.75 245.19 183.75 247.88 C 184.75 250.56 184.54 250.33 184.88 253.00 C 185.21 255.67 185.62 259.48 185.75 263.88 C 185.88 268.27 185.83 274.12 185.62 279.38 C 185.42 284.62 184.98 290.40 184.50 295.38 C 184.02 300.35 183.67 303.90 182.75 309.25 C 181.83 314.60 179.56 324.21 179.00 327.50 C 178.44 330.79 176.81 328.75 179.38 329.00 C 181.94 329.25 190.77 329.08 194.38 329.00 C 197.98 328.92 199.27 330.71 201.00 328.50 C 202.73 326.29 203.79 319.46 204.75 315.75 C 205.71 312.04 206.08 310.12 206.75 306.25 C 207.42 302.38 208.25 296.90 208.75 292.50 C 209.25 288.10 209.52 285.23 209.75 279.88 C 209.98 274.52 209.92 264.92 210.12 260.38 C 210.33 255.83 210.56 254.90 211.00 252.62 C 211.44 250.35 212.44 248.38 212.75 246.75 C 213.06 245.12 212.98 243.88 212.88 242.88 C 212.77 241.88 212.62 241.56 212.12 240.75 C 211.62 239.94 211.06 238.96 209.88 238.00 C 208.69 237.04 206.31 235.69 205.00 235.00 C 203.69 234.31 202.65 234.25 202.00 233.88 C 201.35 233.50 201.79 232.96 201.12 232.75 Z" id="s-6-f-2"/>
<path d="M 201.12 232.75 C 200.46 232.54 198.83 232.52 198.00 232.62 C 197.17 232.73 197.96 233.04 196.12 233.38 C 194.29 233.71 188.83 234.29 187.00 234.62 C 185.17 234.96 186.12 235.19 185.12 235.38 C 184.12 235.56 182.04 235.50 181.00 235.75 C 179.96 236.00 178.58 235.31 178.88 236.88 C 179.17 238.44 181.75 242.44 182.75 245.12 C 183.75 247.81 184.38 249.88 184.88 253.00 C 185.38 256.12 185.65 259.31 185.75 263.88 C 185.85 268.44 185.44 277.54 185.50 280.38 C 185.56 283.21 182.46 280.77 186.12 280.88 C 189.79 280.98 203.58 281.06 207.50 281.00 C 211.42 280.94 209.19 283.94 209.62 280.50 C 210.06 277.06 209.90 265.02 210.12 260.38 C 210.35 255.73 210.56 254.90 211.00 252.62 C 211.44 250.35 212.46 248.52 212.75 246.75 C 213.04 244.98 213.23 243.46 212.75 242.00 C 212.27 240.54 211.17 239.17 209.88 238.00 C 208.58 236.83 206.31 235.69 205.00 235.00 C 203.69 234.31 202.65 234.25 202.00 233.88 C 201.35 233.50 201.79 232.96 201.12 232.75 Z" id="s-6-f-3"/>
</g>
<g id="s-7" clip-path="url(#c-s-7)">
<use href="#s-7-f-0"/>
<path d="M 235.75 225.62 C 233.46 225.08 233.17 225.50 232.38 225.62 C 231.58 225.75 232.52 226.04 231.00 226.38 C 229.48 226.71 224.94 227.23 223.25 227.62 C 221.56 228.02 221.25 228.10 220.88 228.75 C 220.50 229.40 220.52 229.56 221.00 231.50 C 221.48 233.44 222.96 237.12 223.75 240.38 C 224.54 243.62 225.10 246.35 225.75 251.00 C 226.40 255.65 227.17 262.90 227.62 268.25 C 228.08 273.60 228.31 272.88 228.50 283.12 C 228.69 293.38 228.90 315.29 228.75 329.75 C 228.60 344.21 227.96 361.06 227.62 369.88 C 227.29 378.69 227.21 378.46 226.75 382.62 C 226.29 386.79 225.85 386.94 224.88 394.88 C 223.90 402.81 221.50 423.65 220.88 430.25 C 220.25 436.85 220.69 433.31 221.12 434.50 C 221.56 435.69 222.75 436.67 223.50 437.38 C 224.25 438.08 224.65 438.54 225.62 438.75 C 226.60 438.96 227.96 439.08 229.38 438.62 C 230.79 438.17 232.50 437.25 234.12 436.00 C 235.75 434.75 237.50 432.94 239.12 431.12 C 240.75 429.31 242.62 427.10 243.88 425.12 C 245.12 423.15 245.83 421.40 246.62 419.25 C 247.42 417.10 247.94 416.15 248.62 412.25 C 249.31 408.35 250.40 405.40 250.75 395.88 C 251.10 386.35 251.06 369.29 250.75 355.12 C 250.44 340.96 249.19 325.48 248.88 310.88 C 248.56 296.27 248.69 277.54 248.88 267.50 C 249.06 257.46 249.38 254.81 250.00 250.62 C 250.62 246.44 252.17 244.71 252.62 242.38 C 253.08 240.04 253.02 238.23 252.75 236.62 C 252.48 235.02 251.75 233.83 251.00 232.75 C 250.25 231.67 249.06 230.77 248.25 230.12 C 247.44 229.48 248.21 229.62 246.12 228.88 C 244.04 228.12 238.04 226.17 235.75 225.62 Z" id="s-7-f-1"/>
<path d="M 232.38 225.62 C 231.50 225.73 232.52 226.04 231.00 226.38 C 229.48 226.71 224.94 227.23 223.25 227.62 C 221.56 228.02 221.25 228.10 220.88 228.75 C 220.50 229.40 220.52 229.56 221.00 231.50 C 221.48 233.44 222.79 235.79 223.75 240.38 C 224.71 244.96 225.96 251.88 226.75 259.00 C 227.54 266.12 228.17 271.33 228.50 283.12 C 228.83 294.92 228.90 315.29 228.75 329.75 C 228.60 344.21 227.96 361.06 227.62 369.88 C 227.29 378.69 227.38 377.06 226.75 382.62 C 226.12 388.19 224.56 397.42 223.88 403.25 C 223.19 409.08 222.54 415.17 222.62 417.62 C 222.71 420.08 220.62 417.94 224.38 418.00 C 228.12 418.06 241.38 418.06 245.12 418.00 C 248.88 417.94 246.29 418.58 246.88 417.62 C 247.46 416.67 247.98 415.88 248.62 412.25 C 249.27 408.62 250.40 405.40 250.75 395.88 C 251.10 386.35 251.06 369.29 250.75 355.12 C 250.44 340.96 249.19 325.48 248.88 310.88 C 248.56 296.27 248.69 277.54 248.88 267.50 C 249.06 257.46 249.38 254.81 250.00 250.62 C 250.62 246.44 252.15 244.44 252.62 242.38 C 253.10 240.31 253.02 239.67 252.88 238.25 C 252.73 236.83 252.52 235.23 251.75 233.88 C 250.98 232.52 249.19 230.96 248.25 230.12 C 247.31 229.29 248.12 229.60 246.12 228.88 C 244.12 228.15 238.54 226.29 236.25 225.75 C 233.96 225.21 233.25 225.52 232.38 225.62 Z" id="s-7-f-2"/>
<path d="M 232.38 225.62 C 231.58 225.75 232.52 226.04 231.00 226.38 C 229.48 226.71 224.94 227.23 223.25 227.62 C 221.56 228.02 221.25 228.10 220.88 228.75 C 220.50 229.40 220.52 229.56 221.00 231.50 C 221.48 233.44 222.96 237.12 223.75 240.38 C 224.54 243.62 225.10 246.35 225.75 251.00 C 226.40 255.65 227.17 262.79 227.62 268.25 C 228.08 273.71 228.31 273.50 228.50 283.75 C 228.69 294.00 228.90 315.52 228.75 329.75 C 228.60 343.98 227.73 362.44 227.62 369.12 C 227.52 375.81 224.58 369.73 228.12 369.88 C 231.67 370.02 245.19 370.02 248.88 370.00 C 252.56 369.98 249.96 369.94 250.25 369.75 C 250.54 369.56 250.69 375.44 250.62 368.88 C 250.56 362.31 250.15 338.81 249.88 330.38 C 249.60 321.94 249.15 329.46 249.00 318.25 C 248.85 307.04 248.83 274.40 249.00 263.12 C 249.17 251.85 249.40 254.08 250.00 250.62 C 250.60 247.17 252.17 244.71 252.62 242.38 C 253.08 240.04 252.90 238.04 252.75 236.62 C 252.60 235.21 252.15 234.65 251.75 233.88 C 251.35 233.10 251.27 232.81 250.38 232.00 C 249.48 231.19 248.81 230.06 246.38 229.00 C 243.94 227.94 238.08 226.19 235.75 225.62 C 233.42 225.06 233.17 225.50 232.38 225.62 Z" id="s-7-f-3"/>
<path d="M 232.38 225.62 C 231.58 225.75 232.52 226.04 231.00 226.38 C 229.48 226.71 224.94 227.23 223.25 227.62 C 221.56 228.02 221.25 228.10 220.88 228.75 C 220.50 229.40 220.52 229.56 221.00 231.50 C 221.48 233.44 222.96 237.12 223.75 240.38 C 224.54 243.62 225.10 246.35 225.75 251.00 C 226.40 255.65 227.15 261.92 227.62 268.25 C 228.10 274.58 228.42 280.10 228.62 289.00 C 228.83 297.90 227.81 316.12 228.88 321.62 C 229.94 327.12 231.71 321.96 235.00 322.00 C 238.29 322.04 246.25 321.98 248.62 321.88 C 251.00 321.77 249.21 323.21 249.25 321.38 C 249.29 319.54 248.92 320.58 248.88 310.88 C 248.83 301.17 248.81 273.17 249.00 263.12 C 249.19 253.08 249.40 254.08 250.00 250.62 C 250.60 247.17 252.17 244.71 252.62 242.38 C 253.08 240.04 252.90 238.04 252.75 236.62 C 252.60 235.21 252.15 234.65 251.75 233.88 C 251.35 233.10 251.27 232.81 250.38 232.00 C 249.48 231.19 248.81 230.06 246.38 229.00 C 243.94 227.94 238.08 226.19 235.75 225.62 C 233.42 225.06 233.17 225.50 232.38 225.62 Z" id="s-7-f-4"/>
<path d="M 221.12 228.50 C 220.02 229.31 220.56 229.52 221.00 231.50 C 221.44 233.48 222.96 237.12 223.75 240.38 C 224.54 243.62 225.04 245.46 225.75 251.00 C 226.46 256.54 227.38 269.79 228.00 273.62 C 228.62 277.46 226.12 273.94 229.50 274.00 C 232.88 274.06 245.02 274.42 248.25 274.00 C 251.48 273.58 248.75 273.31 248.88 271.50 C 249.00 269.69 248.81 266.60 249.00 263.12 C 249.19 259.65 249.35 254.35 250.00 250.62 C 250.65 246.90 252.42 243.08 252.88 240.75 C 253.33 238.42 252.96 237.79 252.75 236.62 C 252.54 235.46 252.23 234.73 251.62 233.75 C 251.02 232.77 250.00 231.54 249.12 230.75 C 248.25 229.96 248.60 229.85 246.38 229.00 C 244.15 228.15 238.08 226.19 235.75 225.62 C 233.42 225.06 233.17 225.50 232.38 225.62 C 231.58 225.75 231.79 226.21 231.00 226.38 C 230.21 226.54 229.27 226.27 227.62 226.62 C 225.98 226.98 222.23 227.69 221.12 228.50 Z" id="s-7-f-5"/>
</g>
<g id="s-8" clip-path="url(#c-s-8)">
<use href="#s-8-f-0"/>
<path d="M 171.88 285.25 C 170.27 283.83 166.94 281.33 165.00 280.12 C 163.06 278.92 161.69 278.52 160.25 278.00 C 158.81 277.48 157.81 277.19 156.38 277.00 C 154.94 276.81 152.60 276.88 151.62 276.88 C 150.65 276.88 150.92 276.79 150.50 277.00 C 150.08 277.21 149.58 276.40 149.12 278.12 C 148.67 279.85 149.31 281.44 147.75 287.38 C 146.19 293.31 141.71 307.60 139.75 313.75 C 137.79 319.90 135.44 322.40 136.00 324.25 C 136.56 326.10 139.44 324.75 143.12 324.88 C 146.81 325.00 155.38 325.00 158.12 325.00 C 160.88 325.00 159.19 325.02 159.62 324.88 C 160.06 324.73 158.06 329.02 160.75 324.12 C 163.44 319.23 173.27 301.00 175.75 295.50 C 178.23 290.00 175.81 292.27 175.62 291.12 C 175.44 289.98 175.25 289.60 174.62 288.62 C 174.00 287.65 173.48 286.67 171.88 285.25 Z" id="s-8-f-1"/>
</g>
<g id="s-9" clip-path="url(#c-s-9)">
<use href="#s-9-f-0"/>
</g>
<g id="s-10" clip-path="url(#c-s-10)">
<use href="#s-10-f-0"/>
<path d="M 402.75 124.25 C 401.85 120.08 399.08 123.71 397.62 124.12 C 396.17 124.54 396.48 125.67 394.00 126.75 C 391.52 127.83 385.00 129.94 382.75 130.62 C 380.50 131.31 384.94 129.52 380.50 130.88 C 376.06 132.23 361.98 136.94 356.12 138.75 C 350.27 140.56 350.02 140.58 345.38 141.75 C 340.73 142.92 334.15 144.54 328.25 145.75 C 322.35 146.96 313.52 148.12 310.00 149.00 C 306.48 149.88 307.65 150.44 307.12 151.00 C 306.60 151.56 306.69 151.71 306.88 152.38 C 307.06 153.04 307.21 153.81 308.25 155.00 C 309.29 156.19 311.92 158.56 313.12 159.50 C 314.33 160.44 314.38 160.25 315.50 160.62 C 316.62 161.00 317.75 161.40 319.88 161.75 C 322.00 162.10 324.79 162.56 328.25 162.75 C 331.71 162.94 336.75 163.04 340.62 162.88 C 344.50 162.71 345.21 162.77 351.50 161.75 C 357.79 160.73 372.38 158.04 378.38 156.75 C 384.38 155.46 383.52 155.00 387.50 154.00 C 391.48 153.00 399.67 151.56 402.25 150.75 C 404.83 149.94 402.92 153.54 403.00 149.12 C 403.08 144.71 403.65 128.42 402.75 124.25 Z" id="s-10-f-1"/>
<path d="M 354.88 139.50 C 354.69 135.94 356.81 138.42 353.88 139.12 C 350.94 139.83 344.56 142.10 337.25 143.75 C 329.94 145.40 315.02 147.79 310.00 149.00 C 304.98 150.21 307.62 150.31 307.12 151.00 C 306.62 151.69 306.65 152.27 307.00 153.12 C 307.35 153.98 308.23 155.06 309.25 156.12 C 310.27 157.19 312.08 158.75 313.12 159.50 C 314.17 160.25 314.38 160.25 315.50 160.62 C 316.62 161.00 317.75 161.40 319.88 161.75 C 322.00 162.10 324.81 162.56 328.25 162.75 C 331.69 162.94 336.21 163.12 340.50 162.88 C 344.79 162.62 351.58 161.65 354.00 161.25 C 356.42 160.85 354.85 164.12 355.00 160.50 C 355.15 156.88 355.06 143.06 354.88 139.50 Z" id="s-10-f-2"/>
</g>
<g id="s-11" clip-path="url(#c-s-11)">
<use href="#s-11-f-0"/>
<path d="M 350.62 33.00 C 348.52 33.12 348.54 33.58 347.75 34.00 C 346.96 34.42 346.48 34.75 345.88 35.50 C 345.27 36.25 344.46 37.44 344.12 38.50 C 343.79 39.56 343.73 40.90 343.88 41.88 C 344.02 42.85 344.00 42.94 345.00 44.38 C 346.00 45.81 348.75 48.77 349.88 50.50 C 351.00 52.23 350.92 50.85 351.75 54.75 C 352.58 58.65 354.21 68.79 354.88 73.88 C 355.54 78.96 355.65 70.81 355.75 85.25 C 355.85 99.69 355.48 147.79 355.50 160.50 C 355.52 173.21 355.79 158.81 355.88 161.50 C 355.96 164.19 355.92 174.04 356.00 176.62 C 356.08 179.21 352.35 176.96 356.38 177.00 C 360.40 177.04 376.06 177.19 380.12 176.88 C 384.19 176.56 380.62 178.56 380.75 175.12 C 380.88 171.69 380.65 160.62 380.88 156.25 C 381.10 151.88 381.94 153.96 382.12 148.88 C 382.31 143.79 381.85 134.98 382.00 125.75 C 382.15 116.52 382.17 102.40 383.00 93.50 C 383.83 84.60 386.00 77.23 387.00 72.38 C 388.00 67.52 388.46 66.19 389.00 64.38 C 389.54 62.56 389.29 62.79 390.25 61.50 C 391.21 60.21 394.02 58.10 394.75 56.62 C 395.48 55.15 394.94 53.90 394.62 52.62 C 394.31 51.35 393.83 50.29 392.88 49.00 C 391.92 47.71 390.27 46.04 388.88 44.88 C 387.48 43.71 386.92 43.27 384.50 42.00 C 382.08 40.73 377.15 38.42 374.38 37.25 C 371.60 36.08 370.21 35.67 367.88 35.00 C 365.54 34.33 363.25 33.58 360.38 33.25 C 357.50 32.92 352.73 32.88 350.62 33.00 Z" id="s-11-f-1"/>
<path d="M 349.88 33.12 C 347.81 33.31 348.19 33.69 347.38 34.25 C 346.56 34.81 345.56 35.71 345.00 36.50 C 344.44 37.29 344.19 38.15 344.00 39.00 C 343.81 39.85 343.71 40.73 343.88 41.62 C 344.04 42.52 343.85 42.62 345.00 44.38 C 346.15 46.12 349.52 49.96 350.75 52.12 C 351.98 54.29 351.85 55.02 352.38 57.38 C 352.90 59.73 353.31 61.60 353.88 66.25 C 354.44 70.90 355.40 74.83 355.75 85.25 C 356.10 95.67 352.58 121.46 356.00 128.75 C 359.42 136.04 371.96 129.02 376.25 129.00 C 380.54 128.98 380.60 134.69 381.75 128.62 C 382.90 122.56 382.25 102.00 383.12 92.62 C 384.00 83.25 386.02 77.08 387.00 72.38 C 387.98 67.67 388.46 66.19 389.00 64.38 C 389.54 62.56 389.29 62.79 390.25 61.50 C 391.21 60.21 394.02 58.10 394.75 56.62 C 395.48 55.15 394.94 53.90 394.62 52.62 C 394.31 51.35 393.83 50.29 392.88 49.00 C 391.92 47.71 390.27 46.04 388.88 44.88 C 387.48 43.71 386.92 43.27 384.50 42.00 C 382.08 40.73 377.08 38.40 374.38 37.25 C 371.67 36.10 370.69 35.81 368.25 35.12 C 365.81 34.44 362.81 33.46 359.75 33.12 C 356.69 32.79 351.94 32.94 349.88 33.12 Z" id="s-11-f-2"/>
<path d="M 345.88 35.50 C 345.27 36.25 344.44 37.33 344.12 38.50 C 343.81 39.67 343.04 40.50 344.00 42.50 C 344.96 44.50 348.58 48.46 349.88 50.50 C 351.17 52.54 351.08 52.12 351.75 54.75 C 352.42 57.38 353.27 61.98 353.88 66.25 C 354.48 70.52 354.96 77.92 355.38 80.38 C 355.79 82.83 351.73 80.90 356.38 81.00 C 361.02 81.10 378.40 81.08 383.25 81.00 C 388.10 80.92 384.54 83.27 385.50 80.50 C 386.46 77.73 388.21 67.54 389.00 64.38 C 389.79 61.21 389.27 62.88 390.25 61.50 C 391.23 60.12 394.15 57.60 394.88 56.12 C 395.60 54.65 394.83 53.60 394.62 52.62 C 394.42 51.65 394.15 51.15 393.62 50.25 C 393.10 49.35 392.77 48.48 391.50 47.25 C 390.23 46.02 388.85 44.54 386.00 42.88 C 383.15 41.21 377.98 38.71 374.38 37.25 C 370.77 35.79 367.00 34.83 364.38 34.12 C 361.75 33.42 361.04 33.17 358.62 33.00 C 356.21 32.83 351.69 32.96 349.88 33.12 C 348.06 33.29 348.42 33.60 347.75 34.00 C 347.08 34.40 346.48 34.75 345.88 35.50 Z" id="s-11-f-3"/>
</g>
<g id="s-12" clip-path="url(#c-s-12)">
<use href="#s-12-f-0"/>
<path d="M 425.75 192.12 C 425.38 189.40 431.25 190.21 423.75 192.12 C 416.25 194.04 388.42 201.71 380.75 203.62 C 373.08 205.54 378.48 203.50 377.75 203.62 C 377.02 203.75 377.04 204.21 376.38 204.38 C 375.71 204.54 374.42 204.46 373.75 204.62 C 373.08 204.79 373.04 205.21 372.38 205.38 C 371.71 205.54 370.42 205.46 369.75 205.62 C 369.08 205.79 369.04 206.21 368.38 206.38 C 367.71 206.54 367.08 206.29 365.75 206.62 C 364.42 206.96 361.81 208.02 360.38 208.38 C 358.94 208.73 357.94 208.50 357.12 208.75 C 356.31 209.00 356.42 209.65 355.50 209.88 C 354.58 210.10 357.54 208.81 351.62 210.12 C 345.71 211.44 330.90 215.38 320.00 217.75 C 309.10 220.12 292.44 223.00 286.25 224.38 C 280.06 225.75 283.60 225.52 282.88 226.00 C 282.15 226.48 282.04 226.85 281.88 227.25 C 281.71 227.65 281.69 227.88 281.88 228.38 C 282.06 228.88 282.27 229.52 283.00 230.25 C 283.73 230.98 284.15 231.50 286.25 232.75 C 288.35 234.00 292.60 236.27 295.62 237.75 C 298.65 239.23 302.31 240.94 304.38 241.62 C 306.44 242.31 306.75 242.04 308.00 241.88 C 309.25 241.71 310.00 241.42 311.88 240.62 C 313.75 239.83 316.90 238.04 319.25 237.12 C 321.60 236.21 322.35 236.00 326.00 235.12 C 329.65 234.25 335.98 233.23 341.12 231.88 C 346.27 230.52 351.50 228.33 356.88 227.00 C 362.25 225.67 368.98 224.85 373.38 223.88 C 377.77 222.90 378.44 222.10 383.25 221.12 C 388.06 220.15 395.17 218.88 402.25 218.00 C 409.33 217.12 421.79 217.46 425.75 215.88 C 429.71 214.29 426.00 212.46 426.00 208.50 C 426.00 204.54 426.12 194.85 425.75 192.12 Z" id="s-12-f-1"/>
<path d="M 377.88 204.50 C 377.71 201.67 377.27 203.77 377.00 203.75 C 376.73 203.73 376.79 204.23 376.25 204.38 C 375.71 204.52 374.40 204.46 373.75 204.62 C 373.10 204.79 373.04 205.21 372.38 205.38 C 371.71 205.54 370.42 205.46 369.75 205.62 C 369.08 205.79 369.04 206.21 368.38 206.38 C 367.71 206.54 367.08 206.29 365.75 206.62 C 364.42 206.96 361.81 208.02 360.38 208.38 C 358.94 208.73 357.94 208.50 357.12 208.75 C 356.31 209.00 356.42 209.65 355.50 209.88 C 354.58 210.10 357.44 208.83 351.62 210.12 C 345.81 211.42 331.46 215.27 320.62 217.62 C 309.79 219.98 292.92 222.85 286.62 224.25 C 280.33 225.65 283.67 225.50 282.88 226.00 C 282.08 226.50 282.04 226.85 281.88 227.25 C 281.71 227.65 281.62 227.81 281.88 228.38 C 282.12 228.94 282.60 229.88 283.38 230.62 C 284.15 231.38 283.83 231.38 286.50 232.88 C 289.17 234.38 296.31 238.15 299.38 239.62 C 302.44 241.10 303.27 241.40 304.88 241.75 C 306.48 242.10 306.60 242.52 309.00 241.75 C 311.40 240.98 316.42 238.23 319.25 237.12 C 322.08 236.02 322.35 236.00 326.00 235.12 C 329.65 234.25 335.98 233.23 341.12 231.88 C 346.27 230.52 350.81 228.52 356.88 227.00 C 362.94 225.48 373.98 223.79 377.50 222.75 C 381.02 221.71 377.94 223.79 378.00 220.75 C 378.06 217.71 378.04 207.33 377.88 204.50 Z" id="s-12-f-2"/>
<path d="M 329.75 216.00 C 329.58 213.85 332.98 214.71 329.00 215.50 C 325.02 216.29 312.92 219.29 305.88 220.75 C 298.83 222.21 290.52 223.42 286.75 224.25 C 282.98 225.08 284.04 225.29 283.25 225.75 C 282.46 226.21 282.23 226.56 282.00 227.00 C 281.77 227.44 281.71 227.83 281.88 228.38 C 282.04 228.92 282.27 229.52 283.00 230.25 C 283.73 230.98 283.52 231.19 286.25 232.75 C 288.98 234.31 296.27 238.12 299.38 239.62 C 302.48 241.12 303.27 241.40 304.88 241.75 C 306.48 242.10 306.60 242.52 309.00 241.75 C 311.40 240.98 315.83 238.35 319.25 237.12 C 322.67 235.90 327.71 235.83 329.50 234.38 C 331.29 232.92 329.96 231.44 330.00 228.38 C 330.04 225.31 329.92 218.15 329.75 216.00 Z" id="s-12-f-3"/>
</g>
<g id="s-13" clip-path="url(#c-s-13)">
<use href="#s-13-f-0"/>
<path d="M 344.38 230.50 C 343.65 230.31 342.56 230.46 341.75 230.62 C 340.94 230.79 340.31 231.31 339.50 231.50 C 338.69 231.69 337.44 231.60 336.88 231.75 C 336.31 231.90 336.75 232.23 336.12 232.38 C 335.50 232.52 333.92 232.44 333.12 232.62 C 332.33 232.81 332.06 233.33 331.38 233.50 C 330.69 233.67 329.75 233.42 329.00 233.62 C 328.25 233.83 327.19 234.08 326.88 234.75 C 326.56 235.42 326.79 236.52 327.12 237.62 C 327.46 238.73 328.27 240.35 328.88 241.38 C 329.48 242.40 330.10 242.46 330.75 243.75 C 331.40 245.04 332.25 247.44 332.75 249.12 C 333.25 250.81 333.44 251.54 333.75 253.88 C 334.06 256.21 334.46 259.17 334.62 263.12 C 334.79 267.08 334.90 271.85 334.75 277.62 C 334.60 283.40 334.23 291.62 333.75 297.75 C 333.27 303.88 332.73 308.42 331.88 314.38 C 331.02 320.33 330.00 327.00 328.62 333.50 C 327.25 340.00 325.42 347.38 323.62 353.38 C 321.83 359.38 320.00 364.31 317.88 369.50 C 315.75 374.69 313.92 378.94 310.88 384.50 C 307.83 390.06 303.02 397.73 299.62 402.88 C 296.23 408.02 292.98 412.19 290.50 415.38 C 288.02 418.56 285.67 420.75 284.75 422.00 C 283.83 423.25 283.15 422.75 285.00 422.88 C 286.85 423.00 292.65 423.77 295.88 422.75 C 299.10 421.73 302.33 418.29 304.38 416.75 C 306.42 415.21 305.54 416.06 308.12 413.50 C 310.71 410.94 316.58 405.23 319.88 401.38 C 323.17 397.52 325.06 394.73 327.88 390.38 C 330.69 386.02 334.27 380.02 336.75 375.25 C 339.23 370.48 341.08 365.94 342.75 361.75 C 344.42 357.56 345.10 356.00 346.75 350.12 C 348.40 344.25 351.15 333.31 352.62 326.50 C 354.10 319.69 354.79 315.67 355.62 309.25 C 356.46 302.83 357.17 296.38 357.62 288.00 C 358.08 279.62 358.15 264.75 358.38 259.00 C 358.60 253.25 358.73 255.06 359.00 253.50 C 359.27 251.94 359.56 250.83 360.00 249.62 C 360.44 248.42 361.31 247.35 361.62 246.25 C 361.94 245.15 362.06 244.08 361.88 243.00 C 361.69 241.92 361.29 240.79 360.50 239.75 C 359.71 238.71 359.52 238.08 357.12 236.75 C 354.73 235.42 348.25 232.79 346.12 231.75 C 344.00 230.71 345.10 230.69 344.38 230.50 Z" id="s-13-f-1"/>
<path d="M 344.25 230.50 C 341.69 229.48 342.54 230.46 341.75 230.62 C 340.96 230.79 340.31 231.31 339.50 231.50 C 338.69 231.69 337.44 231.60 336.88 231.75 C 336.31 231.90 336.75 232.23 336.12 232.38 C 335.50 232.52 333.92 232.44 333.12 232.62 C 332.33 232.81 332.06 233.33 331.38 233.50 C 330.69 233.67 329.75 233.42 329.00 233.62 C 328.25 233.83 327.19 234.08 326.88 234.75 C 326.56 235.42 326.79 236.52 327.12 237.62 C 327.46 238.73 328.27 240.35 328.88 241.38 C 329.48 242.40 330.12 242.52 330.75 243.75 C 331.38 244.98 332.10 246.90 332.62 248.75 C 333.15 250.60 333.54 252.48 333.88 254.88 C 334.21 257.27 334.48 259.42 334.62 263.12 C 334.77 266.83 334.90 271.38 334.75 277.12 C 334.60 282.88 334.42 290.19 333.75 297.62 C 333.08 305.06 331.90 314.46 330.75 321.75 C 329.60 329.04 328.25 335.52 326.88 341.38 C 325.50 347.23 324.33 351.48 322.50 356.88 C 320.67 362.27 316.94 370.75 315.88 373.75 C 314.81 376.75 312.92 374.67 316.12 374.88 C 319.33 375.08 331.73 375.00 335.12 375.00 C 338.52 375.00 336.17 375.00 336.50 374.88 C 336.83 374.75 336.08 376.44 337.12 374.25 C 338.17 372.06 341.15 365.77 342.75 361.75 C 344.35 357.73 344.92 356.88 346.75 350.12 C 348.58 343.38 352.25 328.23 353.75 321.25 C 355.25 314.27 355.12 313.40 355.75 308.25 C 356.38 303.10 357.06 298.58 357.50 290.38 C 357.94 282.17 358.12 265.15 358.38 259.00 C 358.62 252.85 358.73 255.06 359.00 253.50 C 359.27 251.94 359.56 250.83 360.00 249.62 C 360.44 248.42 361.31 247.38 361.62 246.25 C 361.94 245.12 362.06 243.96 361.88 242.88 C 361.69 241.79 361.29 240.77 360.50 239.75 C 359.71 238.73 359.83 238.29 357.12 236.75 C 354.42 235.21 346.81 231.52 344.25 230.50 Z" id="s-13-f-2"/>
<path d="M 344.25 230.50 C 343.52 230.31 342.54 230.46 341.75 230.62 C 340.96 230.79 340.31 231.31 339.50 231.50 C 338.69 231.69 337.44 231.60 336.88 231.75 C 336.31 231.90 336.75 232.23 336.12 232.38 C 335.50 232.52 333.92 232.44 333.12 232.62 C 332.33 232.81 332.06 233.33 331.38 233.50 C 330.69 233.67 329.75 233.42 329.00 233.62 C 328.25 233.83 327.17 234.02 326.88 234.75 C 326.58 235.48 326.92 236.90 327.25 238.00 C 327.58 239.10 328.29 240.42 328.88 241.38 C 329.46 242.33 330.10 242.46 330.75 243.75 C 331.40 245.04 332.25 247.44 332.75 249.12 C 333.25 250.81 333.44 251.54 333.75 253.88 C 334.06 256.21 334.46 259.25 334.62 263.12 C 334.79 267.00 334.88 271.69 334.75 277.12 C 334.62 282.56 334.35 289.54 333.88 295.75 C 333.40 301.96 332.54 309.25 331.88 314.38 C 331.21 319.50 330.10 324.40 329.88 326.50 C 329.65 328.60 327.08 326.92 330.50 327.00 C 333.92 327.08 346.73 327.06 350.38 327.00 C 354.02 326.94 351.50 329.54 352.38 326.62 C 353.25 323.71 354.73 316.21 355.62 309.50 C 356.52 302.79 357.29 294.79 357.75 286.38 C 358.21 277.96 358.02 265.06 358.38 259.00 C 358.73 252.94 359.31 252.23 359.88 250.00 C 360.44 247.77 361.44 246.96 361.75 245.62 C 362.06 244.29 362.17 243.21 361.75 242.00 C 361.33 240.79 360.21 239.38 359.25 238.38 C 358.29 237.38 358.19 237.10 356.00 236.00 C 353.81 234.90 348.08 232.67 346.12 231.75 C 344.17 230.83 344.98 230.69 344.25 230.50 Z" id="s-13-f-3"/>
<path d="M 327.25 234.38 C 324.77 235.06 326.88 234.15 326.88 234.75 C 326.88 235.35 326.92 236.90 327.25 238.00 C 327.58 239.10 328.29 240.42 328.88 241.38 C 329.46 242.33 330.10 242.46 330.75 243.75 C 331.40 245.04 332.25 247.44 332.75 249.12 C 333.25 250.81 333.44 251.54 333.75 253.88 C 334.06 256.21 334.42 259.00 334.62 263.12 C 334.83 267.25 332.31 276.00 335.00 278.62 C 337.69 281.25 347.19 278.88 350.75 278.88 C 354.31 278.88 355.23 278.77 356.38 278.62 C 357.52 278.48 357.33 280.77 357.62 278.00 C 357.92 275.23 357.90 266.08 358.12 262.00 C 358.35 257.92 358.38 256.40 359.00 253.50 C 359.62 250.60 361.42 246.54 361.88 244.62 C 362.33 242.71 361.92 242.73 361.75 242.00 C 361.58 241.27 361.35 240.92 360.88 240.25 C 360.40 239.58 359.69 238.71 358.88 238.00 C 358.06 237.29 358.12 237.04 356.00 236.00 C 353.88 234.96 348.08 232.67 346.12 231.75 C 344.17 230.83 344.98 230.69 344.25 230.50 C 343.52 230.31 344.58 229.98 341.75 230.62 C 338.92 231.27 329.73 233.69 327.25 234.38 Z" id="s-13-f-4"/>
</g>
<g id="s-14" clip-path="url(#c-s-14)">
<use href="#s-14-f-0"/>
<path d="M 384.12 220.62 C 381.23 219.88 383.19 220.33 381.88 220.62 C 380.56 220.92 377.60 222.04 376.25 222.38 C 374.90 222.71 374.48 222.38 373.75 222.62 C 373.02 222.88 372.15 222.67 371.88 223.88 C 371.60 225.08 371.31 225.50 372.12 229.88 C 372.94 234.25 375.65 244.29 376.75 250.12 C 377.85 255.96 378.08 256.98 378.75 264.88 C 379.42 272.77 380.42 285.04 380.75 297.50 C 381.08 309.96 380.92 325.42 380.75 339.62 C 380.58 353.83 380.08 372.71 379.75 382.75 C 379.42 392.79 379.23 394.46 378.75 399.88 C 378.27 405.29 377.71 405.44 376.88 415.25 C 376.04 425.06 374.21 451.19 373.75 458.75 C 373.29 466.31 373.69 459.79 374.12 460.62 C 374.56 461.46 375.60 462.94 376.38 463.75 C 377.15 464.56 378.08 465.15 378.75 465.50 C 379.42 465.85 379.65 465.83 380.38 465.88 C 381.10 465.92 382.29 465.92 383.12 465.75 C 383.96 465.58 384.08 465.62 385.38 464.88 C 386.67 464.12 389.02 462.81 390.88 461.25 C 392.73 459.69 394.69 457.58 396.50 455.50 C 398.31 453.42 400.38 451.17 401.75 448.75 C 403.12 446.33 403.94 443.56 404.75 441.00 C 405.56 438.44 406.00 437.08 406.62 433.38 C 407.25 429.67 408.12 423.00 408.50 418.75 C 408.88 414.50 408.85 415.29 408.88 407.88 C 408.90 400.46 409.10 386.94 408.62 374.25 C 408.15 361.56 406.60 344.15 406.00 331.75 C 405.40 319.35 405.17 310.69 405.00 299.88 C 404.83 289.06 404.83 274.88 405.00 266.88 C 405.17 258.88 405.67 255.29 406.00 251.88 C 406.33 248.46 406.56 248.19 407.00 246.38 C 407.44 244.56 408.33 242.96 408.62 241.00 C 408.92 239.04 409.02 236.40 408.75 234.62 C 408.48 232.85 407.90 231.67 407.00 230.38 C 406.10 229.08 404.67 227.75 403.38 226.88 C 402.08 226.00 402.46 226.17 399.25 225.12 C 396.04 224.08 387.02 221.38 384.12 220.62 Z" id="s-14-f-1"/>
<path d="M 384.12 220.62 C 381.23 219.88 383.19 220.33 381.88 220.62 C 380.56 220.92 377.60 222.04 376.25 222.38 C 374.90 222.71 374.48 222.38 373.75 222.62 C 373.02 222.88 372.15 222.67 371.88 223.88 C 371.60 225.08 371.31 225.50 372.12 229.88 C 372.94 234.25 375.65 244.29 376.75 250.12 C 377.85 255.96 378.08 256.98 378.75 264.88 C 379.42 272.77 380.42 285.04 380.75 297.50 C 381.08 309.96 380.90 325.94 380.75 339.62 C 380.60 353.31 380.21 369.58 379.88 379.62 C 379.54 389.67 379.25 393.94 378.75 399.88 C 378.25 405.81 377.69 406.15 376.88 415.25 C 376.06 424.35 374.38 447.02 373.88 454.50 C 373.38 461.98 373.69 459.04 373.88 460.12 C 374.06 461.21 372.15 460.88 375.00 461.00 C 377.85 461.12 387.56 461.62 391.00 460.88 C 394.44 460.12 394.00 458.27 395.62 456.50 C 397.25 454.73 399.40 452.33 400.75 450.25 C 402.10 448.17 402.92 446.15 403.75 444.00 C 404.58 441.85 405.08 440.35 405.75 437.38 C 406.42 434.40 407.25 429.85 407.75 426.12 C 408.25 422.40 408.60 423.67 408.75 415.00 C 408.90 406.33 409.08 388.00 408.62 374.12 C 408.17 360.25 406.60 344.12 406.00 331.75 C 405.40 319.38 405.17 310.69 405.00 299.88 C 404.83 289.06 404.83 274.88 405.00 266.88 C 405.17 258.88 405.67 255.29 406.00 251.88 C 406.33 248.46 406.56 248.19 407.00 246.38 C 407.44 244.56 408.33 242.98 408.62 241.00 C 408.92 239.02 409.02 236.27 408.75 234.50 C 408.48 232.73 407.90 231.65 407.00 230.38 C 406.10 229.10 404.67 227.75 403.38 226.88 C 402.08 226.00 402.46 226.17 399.25 225.12 C 396.04 224.08 387.02 221.38 384.12 220.62 Z" id="s-14-f-2"/>
<path d="M 381.88 220.62 C 380.42 220.92 377.60 222.04 376.25 222.38 C 374.90 222.71 374.48 222.40 373.75 222.62 C 373.02 222.85 372.15 222.54 371.88 223.75 C 371.60 224.96 371.65 227.12 372.12 229.88 C 372.60 232.62 373.81 235.79 374.75 240.25 C 375.69 244.71 376.96 251.19 377.75 256.62 C 378.54 262.06 379.04 267.29 379.50 272.88 C 379.96 278.46 380.33 276.31 380.50 290.12 C 380.67 303.94 380.62 340.31 380.50 355.75 C 380.38 371.19 380.04 375.38 379.75 382.75 C 379.46 390.12 379.15 395.02 378.75 400.00 C 378.35 404.98 377.25 410.46 377.38 412.62 C 377.50 414.79 374.38 412.96 379.50 413.00 C 384.62 413.04 403.25 413.00 408.12 412.88 C 413.00 412.75 408.62 413.00 408.75 412.25 C 408.88 411.50 408.88 414.08 408.88 408.38 C 408.88 402.67 409.25 391.23 408.75 378.00 C 408.25 364.77 406.50 342.31 405.88 329.00 C 405.25 315.69 405.15 308.06 405.00 298.12 C 404.85 288.19 404.85 276.90 405.00 269.38 C 405.15 261.85 405.54 256.83 405.88 253.00 C 406.21 249.17 406.54 248.38 407.00 246.38 C 407.46 244.38 408.33 242.98 408.62 241.00 C 408.92 239.02 408.98 236.21 408.75 234.50 C 408.52 232.79 408.15 232.02 407.25 230.75 C 406.35 229.48 405.83 228.17 403.38 226.88 C 400.92 225.58 395.25 223.85 392.50 223.00 C 389.75 222.15 388.12 222.15 386.88 221.75 C 385.62 221.35 385.83 220.81 385.00 220.62 C 384.17 220.44 383.33 220.33 381.88 220.62 Z" id="s-14-f-3"/>
<path d="M 381.88 220.62 C 380.42 220.92 377.60 222.04 376.25 222.38 C 374.90 222.71 374.48 222.40 373.75 222.62 C 373.02 222.85 372.15 222.54 371.88 223.75 C 371.60 224.96 371.65 227.12 372.12 229.88 C 372.60 232.62 373.81 235.79 374.75 240.25 C 375.69 244.71 376.90 250.33 377.75 256.62 C 378.60 262.92 379.38 270.75 379.88 278.00 C 380.38 285.25 380.60 289.85 380.75 300.12 C 380.90 310.40 380.85 328.92 380.75 339.62 C 380.65 350.33 380.12 360.17 380.12 364.38 C 380.12 368.58 376.40 364.81 380.75 364.88 C 385.10 364.94 401.75 364.88 406.25 364.75 C 410.75 364.62 407.48 364.71 407.75 364.12 C 408.02 363.54 408.17 366.60 407.88 361.25 C 407.58 355.90 406.44 340.65 406.00 332.00 C 405.56 323.35 405.42 319.81 405.25 309.38 C 405.08 298.94 404.90 278.77 405.00 269.38 C 405.10 259.98 405.54 256.83 405.88 253.00 C 406.21 249.17 406.54 248.40 407.00 246.38 C 407.46 244.35 408.33 242.85 408.62 240.88 C 408.92 238.90 408.98 236.19 408.75 234.50 C 408.52 232.81 408.15 232.02 407.25 230.75 C 406.35 229.48 405.77 228.15 403.38 226.88 C 400.98 225.60 395.62 223.98 392.88 223.12 C 390.12 222.27 388.19 222.17 386.88 221.75 C 385.56 221.33 385.83 220.81 385.00 220.62 C 384.17 220.44 383.33 220.33 381.88 220.62 Z" id="s-14-f-4"/>
<path d="M 373.75 222.62 C 373.02 222.85 372.17 222.67 371.88 223.75 C 371.58 224.83 371.19 224.73 372.00 229.12 C 372.81 233.52 375.62 244.17 376.75 250.12 C 377.88 256.08 378.12 257.94 378.75 264.88 C 379.38 271.81 380.12 283.12 380.50 291.75 C 380.88 300.38 380.65 312.42 381.00 316.62 C 381.35 320.83 378.65 316.98 382.62 317.00 C 386.60 317.02 401.06 316.88 404.88 316.75 C 408.69 316.62 405.48 319.33 405.50 316.25 C 405.52 313.17 405.06 306.77 405.00 298.25 C 404.94 289.73 404.96 272.85 405.12 265.12 C 405.29 257.40 405.40 256.06 406.00 251.88 C 406.60 247.69 408.31 242.98 408.75 240.00 C 409.19 237.02 408.88 235.54 408.62 234.00 C 408.38 232.46 407.88 231.75 407.25 230.75 C 406.62 229.75 405.52 228.65 404.88 228.00 C 404.23 227.35 404.38 227.38 403.38 226.88 C 402.38 226.38 401.62 225.85 398.88 225.00 C 396.12 224.15 389.19 222.48 386.88 221.75 C 384.56 221.02 385.83 220.81 385.00 220.62 C 384.17 220.44 383.33 220.33 381.88 220.62 C 380.42 220.92 377.60 222.04 376.25 222.38 C 374.90 222.71 374.48 222.40 373.75 222.62 Z" id="s-14-f-5"/>
<path d="M 372.12 223.38 C 370.48 224.79 371.23 224.67 372.00 229.12 C 372.77 233.58 375.60 243.81 376.75 250.12 C 377.90 256.44 378.42 263.92 378.88 267.00 C 379.33 270.08 378.10 268.29 379.50 268.62 C 380.90 268.96 383.04 269.00 387.25 269.00 C 391.46 269.00 401.62 271.48 404.75 268.62 C 407.88 265.77 405.31 256.85 406.00 251.88 C 406.69 246.90 408.42 241.65 408.88 238.75 C 409.33 235.85 409.02 235.83 408.75 234.50 C 408.48 233.17 407.90 231.83 407.25 230.75 C 406.60 229.67 405.81 228.79 404.88 228.00 C 403.94 227.21 403.62 226.81 401.62 226.00 C 399.62 225.19 395.33 223.83 392.88 223.12 C 390.42 222.42 388.19 222.15 386.88 221.75 C 385.56 221.35 385.83 220.94 385.00 220.75 C 384.17 220.56 384.02 220.19 381.88 220.62 C 379.73 221.06 373.77 221.96 372.12 223.38 Z" id="s-14-f-6"/>
</g>
<g id="s-15" clip-path="url(#c-s-15)">
<use href="#s-15-f-0"/>
<path d="M 307.25 282.12 C 305.54 281.60 302.79 281.06 301.00 280.88 C 299.21 280.69 297.48 280.79 296.50 281.00 C 295.52 281.21 295.44 280.50 295.12 282.12 C 294.81 283.75 295.52 284.88 294.62 290.75 C 293.73 296.62 291.00 311.42 289.75 317.38 C 288.50 323.33 287.58 324.67 287.12 326.50 C 286.67 328.33 286.04 327.96 287.00 328.38 C 287.96 328.79 289.83 328.90 292.88 329.00 C 295.92 329.10 302.81 329.12 305.25 329.00 C 307.69 328.88 306.10 330.06 307.50 328.25 C 308.90 326.44 311.73 321.60 313.62 318.12 C 315.52 314.65 317.65 310.10 318.88 307.38 C 320.10 304.65 320.35 303.08 321.00 301.75 C 321.65 300.42 322.46 300.42 322.75 299.38 C 323.04 298.33 323.23 296.92 322.75 295.50 C 322.27 294.08 320.69 291.98 319.88 290.88 C 319.06 289.77 319.31 290.02 317.88 288.88 C 316.44 287.73 313.02 285.12 311.25 284.00 C 309.48 282.88 308.96 282.65 307.25 282.12 Z" id="s-15-f-1"/>
</g>
<g id="s-16" clip-path="url(#c-s-16)">
<use href="#s-16-f-0"/>
<path d="M 409.12 286.12 C 408.90 286.75 408.71 287.69 409.12 288.75 C 409.54 289.81 409.31 288.15 411.62 292.50 C 413.94 296.85 419.35 308.19 423.00 314.88 C 426.65 321.56 431.29 329.60 433.50 332.62 C 435.71 335.65 430.85 332.94 436.25 333.00 C 441.65 333.06 460.52 333.06 465.88 333.00 C 471.23 332.94 467.92 332.79 468.38 332.62 C 468.83 332.46 468.75 333.21 468.62 332.00 C 468.50 330.79 468.10 327.60 467.62 325.38 C 467.15 323.15 466.38 320.50 465.75 318.62 C 465.12 316.75 464.77 315.83 463.88 314.12 C 462.98 312.42 461.92 310.21 460.38 308.38 C 458.83 306.54 456.79 304.85 454.62 303.12 C 452.46 301.40 449.77 299.52 447.38 298.00 C 444.98 296.48 444.02 295.83 440.25 294.00 C 436.48 292.17 428.65 288.50 424.75 287.00 C 420.85 285.50 419.25 285.33 416.88 285.00 C 414.50 284.67 411.79 284.81 410.50 285.00 C 409.21 285.19 409.35 285.50 409.12 286.12 Z" id="s-16-f-1"/>
</g>
</svg>