<?xml version="1.0" encoding="UTF-8"?>
<svg xmlns="http://www.w3.org/2000/svg" viewBox="0 0 500 500">
<defs>
<path d="M 79.50 131.75 C 78.94 132.27 78.25 133.23 78.00 134.00 C 77.75 134.77 77.81 135.56 78.00 136.38 C 78.19 137.19 76.48 134.21 79.12 138.88 C 81.77 143.54 90.44 158.65 93.88 164.38 C 97.31 170.10 97.92 170.67 99.75 173.25 C 101.58 175.83 103.33 178.12 104.88 179.88 C 106.42 181.62 107.65 182.77 109.00 183.75 C 110.35 184.73 111.48 185.42 113.00 185.75 C 114.52 186.08 116.58 186.04 118.12 185.75 C 119.67 185.46 121.12 184.73 122.25 184.00 C 123.38 183.27 124.15 182.33 124.88 181.38 C 125.60 180.42 126.15 179.56 126.62 178.25 C 127.10 176.94 127.54 175.50 127.75 173.50 C 127.96 171.50 128.04 168.85 127.88 166.25 C 127.71 163.65 127.27 160.17 126.75 157.88 C 126.23 155.58 125.56 154.17 124.75 152.50 C 123.94 150.83 122.65 148.94 121.88 147.88 C 121.10 146.81 121.44 147.08 120.12 146.12 C 118.81 145.17 115.98 143.29 114.00 142.12 C 112.02 140.96 112.12 140.79 108.25 139.12 C 104.38 137.46 94.50 133.48 90.75 132.12 C 87.00 130.77 87.31 131.21 85.75 131.00 C 84.19 130.79 82.42 130.75 81.38 130.88 C 80.33 131.00 80.06 131.23 79.50 131.75 Z" id="s-0-f-0"/>
<clipPath id="c-s-0"><use href="#s-0-f-0"/></clipPath>
<path d="M 256.50 122.12 C 255.10 120.29 252.67 117.79 250.25 115.62 C 247.83 113.46 244.06 110.65 242.00 109.12 C 239.94 107.60 239.42 107.33 237.88 106.50 C 236.33 105.67 234.35 104.50 232.75 104.12 C 231.15 103.75 229.27 103.90 228.25 104.25 C 227.23 104.60 228.08 102.44 226.62 106.25 C 225.17 110.06 221.81 121.15 219.50 127.12 C 217.19 133.10 214.54 138.42 212.75 142.12 C 210.96 145.83 210.60 146.35 208.75 149.38 C 206.90 152.40 203.75 157.25 201.62 160.25 C 199.50 163.25 197.44 165.79 196.00 167.38 C 194.56 168.96 193.50 168.98 193.00 169.75 C 192.50 170.52 192.88 171.50 193.00 172.00 C 193.12 172.50 193.12 172.62 193.75 172.75 C 194.38 172.88 194.90 173.42 196.75 172.75 C 198.60 172.08 201.98 170.42 204.88 168.75 C 207.77 167.08 210.85 165.06 214.12 162.75 C 217.40 160.44 220.15 157.83 224.50 154.88 C 228.85 151.92 235.21 147.83 240.25 145.00 C 245.29 142.17 251.85 139.54 254.75 137.88 C 257.65 136.21 256.96 135.90 257.62 135.00 C 258.29 134.10 258.58 133.90 258.75 132.50 C 258.92 131.10 259.00 128.35 258.62 126.62 C 258.25 124.90 257.90 123.96 256.50 122.12 Z" id="s-1-f-0"/>
<clipPath id="c-s-1"><use href="#s-1-f-0"/></clipPath>
<path d="M 239.88 210.50 C 239.65 209.46 239.00 207.71 238.25 206.62 C 237.50 205.54 236.17 204.60 235.38 204.00 C 234.58 203.40 235.60 203.83 233.50 203.00 C 231.40 202.17 225.33 199.83 222.75 199.00 C 220.17 198.17 219.60 198.19 218.00 198.00 C 216.40 197.81 216.94 197.08 213.12 197.88 C 209.31 198.67 204.92 200.73 195.12 202.75 C 185.33 204.77 163.17 208.35 154.38 210.00 C 145.58 211.65 149.88 211.33 142.38 212.62 C 134.88 213.92 119.60 216.35 109.38 217.75 C 99.15 219.15 86.19 220.27 81.00 221.00 C 75.81 221.73 78.75 221.58 78.25 222.12 C 77.75 222.67 77.71 223.38 78.00 224.25 C 78.29 225.12 79.00 226.25 80.00 227.38 C 81.00 228.50 82.71 230.10 84.00 231.00 C 85.29 231.90 85.29 232.12 87.75 232.75 C 90.21 233.38 93.62 234.46 98.75 234.75 C 103.88 235.04 109.35 235.15 118.50 234.50 C 127.65 233.85 144.27 232.00 153.62 230.88 C 162.98 229.75 169.85 228.58 174.62 227.75 C 179.40 226.92 178.23 226.54 182.25 225.88 C 186.27 225.21 192.27 224.77 198.75 223.75 C 205.23 222.73 215.56 220.92 221.12 219.75 C 226.69 218.58 229.38 217.58 232.12 216.75 C 234.88 215.92 236.38 215.40 237.62 214.75 C 238.88 214.10 239.25 213.58 239.62 212.88 C 240.00 212.17 240.10 211.54 239.88 210.50 Z" id="s-2-f-0"/>
<clipPath id="c-s-2"><use href="#s-2-f-0"/></clipPath>
<path d="M 252.88 280.62 C 252.88 279.90 253.12 279.98 252.62 279.00 C 252.12 278.02 251.35 276.23 249.88 274.75 C 248.40 273.27 245.56 271.23 243.75 270.12 C 241.94 269.02 241.08 268.79 239.00 268.12 C 236.92 267.46 233.83 266.48 231.25 266.12 C 228.67 265.77 230.10 265.06 223.50 266.00 C 216.90 266.94 200.06 270.29 191.62 271.75 C 183.19 273.21 176.54 274.23 172.88 274.75 C 169.21 275.27 175.23 273.88 169.62 274.88 C 164.02 275.88 152.75 278.44 139.25 280.75 C 125.75 283.06 103.75 286.52 88.62 288.75 C 73.50 290.98 56.06 292.94 48.50 294.12 C 40.94 295.31 44.35 295.33 43.25 295.88 C 42.15 296.42 42.10 296.94 41.88 297.38 C 41.65 297.81 41.67 297.83 41.88 298.50 C 42.08 299.17 42.48 300.46 43.12 301.38 C 43.77 302.29 43.90 302.60 45.75 304.00 C 47.60 305.40 51.58 308.29 54.25 309.75 C 56.92 311.21 58.98 311.77 61.75 312.75 C 64.52 313.73 68.46 314.96 70.88 315.62 C 73.29 316.29 74.21 316.56 76.25 316.75 C 78.29 316.94 75.48 318.38 83.12 316.75 C 90.77 315.12 112.58 309.29 122.12 307.00 C 131.67 304.71 136.96 303.69 140.38 303.00 C 143.79 302.31 137.25 304.04 142.62 302.88 C 148.00 301.71 161.56 298.15 172.62 296.00 C 183.69 293.85 196.29 291.73 209.00 290.00 C 221.71 288.27 241.88 286.48 248.88 285.62 C 255.88 284.77 250.38 285.25 251.00 284.88 C 251.62 284.50 252.31 284.08 252.62 283.38 C 252.94 282.67 252.88 281.35 252.88 280.62 Z" id="s-3-f-0"/>
<clipPath id="c-s-3"><use href="#s-3-f-0"/></clipPath>
<path d="M 161.00 58.25 C 158.50 57.58 157.31 57.19 154.75 57.00 C 152.19 56.81 147.52 56.96 145.62 57.12 C 143.73 57.29 144.17 57.46 143.38 58.00 C 142.58 58.54 141.46 59.46 140.88 60.38 C 140.29 61.29 140.02 62.52 139.88 63.50 C 139.73 64.48 139.02 63.73 140.00 66.25 C 140.98 68.77 144.29 74.52 145.75 78.62 C 147.21 82.73 147.92 85.46 148.75 90.88 C 149.58 96.29 150.25 103.23 150.75 111.12 C 151.25 119.02 151.56 121.69 151.75 138.25 C 151.94 154.81 152.06 197.10 151.88 210.50 C 151.69 223.90 150.81 214.83 150.62 218.62 C 150.44 222.42 151.06 226.83 150.75 233.25 C 150.44 239.67 149.77 249.21 148.75 257.12 C 147.73 265.04 145.46 276.71 144.62 280.75 C 143.79 284.79 143.96 280.44 143.75 281.38 C 143.54 282.31 143.56 285.33 143.38 286.38 C 143.19 287.42 142.94 285.83 142.62 287.62 C 142.31 289.42 141.83 295.19 141.50 297.12 C 141.17 299.06 140.77 298.15 140.62 299.25 C 140.48 300.35 141.60 299.46 140.62 303.75 C 139.65 308.04 136.73 318.65 134.75 325.00 C 132.77 331.35 131.08 336.02 128.75 341.88 C 126.42 347.73 123.25 354.83 120.75 360.12 C 118.25 365.42 116.58 368.79 113.75 373.62 C 110.92 378.46 106.29 385.33 103.75 389.12 C 101.21 392.92 102.56 391.31 98.50 396.38 C 94.44 401.44 84.00 414.12 79.38 419.50 C 74.75 424.88 72.31 426.71 70.75 428.62 C 69.19 430.54 69.92 430.46 70.00 431.00 C 70.08 431.54 70.58 431.75 71.25 431.88 C 71.92 432.00 73.04 431.94 74.00 431.75 C 74.96 431.56 75.44 431.42 77.00 430.75 C 78.56 430.08 78.81 430.48 83.38 427.75 C 87.94 425.02 98.48 418.96 104.38 414.38 C 110.27 409.79 114.02 405.40 118.75 400.25 C 123.48 395.10 129.25 388.00 132.75 383.50 C 136.25 379.00 137.92 376.10 139.75 373.25 C 141.58 370.40 141.58 370.56 143.75 366.38 C 145.92 362.19 149.92 354.79 152.75 348.12 C 155.58 341.46 158.77 332.35 160.75 326.38 C 162.73 320.40 163.44 317.10 164.62 312.25 C 165.81 307.40 167.12 300.08 167.88 297.25 C 168.62 294.42 168.71 297.23 169.12 295.25 C 169.54 293.27 170.04 287.23 170.38 285.38 C 170.71 283.52 170.96 285.00 171.12 284.12 C 171.29 283.25 171.21 281.10 171.38 280.12 C 171.54 279.15 172.02 279.27 172.12 278.25 C 172.23 277.23 171.56 277.38 172.00 274.00 C 172.44 270.62 173.79 265.06 174.75 258.00 C 175.71 250.94 177.21 236.98 177.75 231.62 C 178.29 226.27 177.79 227.65 178.00 225.88 C 178.21 224.10 178.83 227.54 179.00 221.00 C 179.17 214.46 178.83 202.48 179.00 186.62 C 179.17 170.77 179.17 140.50 180.00 125.88 C 180.83 111.25 183.00 104.92 184.00 98.88 C 185.00 92.83 185.23 92.38 186.00 89.62 C 186.77 86.88 188.15 84.42 188.62 82.38 C 189.10 80.33 188.88 78.48 188.88 77.38 C 188.88 76.27 188.98 76.65 188.62 75.75 C 188.27 74.85 187.40 73.02 186.75 72.00 C 186.10 70.98 186.12 70.79 184.75 69.62 C 183.38 68.46 181.00 66.44 178.50 65.00 C 176.00 63.56 172.67 62.12 169.75 61.00 C 166.83 59.88 163.50 58.92 161.00 58.25 Z" id="s-4-f-0"/>
<clipPath id="c-s-4"><use href="#s-4-f-0"/></clipPath>
<path d="M 456.88 75.62 C 456.69 74.81 456.27 74.00 455.50 73.00 C 454.73 72.00 453.65 70.83 452.25 69.62 C 450.85 68.42 449.25 67.19 447.12 65.75 C 445.00 64.31 443.46 62.77 439.50 61.00 C 435.54 59.23 426.98 56.12 423.38 55.12 C 419.77 54.12 423.04 54.06 417.88 55.00 C 412.71 55.94 405.79 58.15 392.38 60.75 C 378.96 63.35 360.40 66.92 337.38 70.62 C 314.35 74.33 269.23 80.58 254.25 83.00 C 239.27 85.42 248.85 84.60 247.50 85.12 C 246.15 85.65 246.40 85.69 246.12 86.12 C 245.85 86.56 245.35 86.81 245.88 87.75 C 246.40 88.69 247.98 90.58 249.25 91.75 C 250.52 92.92 251.77 93.75 253.50 94.75 C 255.23 95.75 257.00 96.75 259.62 97.75 C 262.25 98.75 266.62 100.08 269.25 100.75 C 271.88 101.42 273.27 101.56 275.38 101.75 C 277.48 101.94 276.83 102.67 281.88 101.88 C 286.92 101.08 294.23 98.98 305.62 97.00 C 317.02 95.02 334.27 92.00 350.25 90.00 C 366.23 88.00 385.54 86.25 401.50 85.00 C 417.46 83.75 437.79 83.06 446.00 82.50 C 454.21 81.94 449.33 82.04 450.75 81.62 C 452.17 81.21 453.52 80.62 454.50 80.00 C 455.48 79.38 456.23 78.60 456.62 77.88 C 457.02 77.15 457.06 76.44 456.88 75.62 Z" id="s-5-f-0"/>
<clipPath id="c-s-5"><use href="#s-5-f-0"/></clipPath>
<path d="M 343.12 90.75 C 342.46 90.54 340.88 90.52 340.00 90.62 C 339.12 90.73 338.90 91.21 337.88 91.38 C 336.85 91.54 334.88 91.46 333.88 91.62 C 332.88 91.79 333.98 92.02 331.88 92.38 C 329.77 92.73 323.42 93.35 321.25 93.75 C 319.08 94.15 319.12 92.77 318.88 94.75 C 318.62 96.73 319.77 102.67 319.75 105.62 C 319.73 108.58 319.27 110.12 318.75 112.50 C 318.23 114.88 317.81 116.54 316.62 119.88 C 315.44 123.21 313.60 128.12 311.62 132.50 C 309.65 136.88 307.33 141.38 304.75 146.12 C 302.17 150.88 297.54 158.38 296.12 161.00 C 294.71 163.62 294.10 162.04 296.25 161.88 C 298.40 161.71 305.83 161.17 309.00 160.00 C 312.17 158.83 311.33 158.77 315.25 154.88 C 319.17 150.98 328.40 141.12 332.50 136.62 C 336.60 132.12 336.75 131.90 339.88 127.88 C 343.00 123.85 348.46 116.04 351.25 112.50 C 354.04 108.96 355.71 108.06 356.62 106.62 C 357.54 105.19 357.08 104.92 356.75 103.88 C 356.42 102.83 355.77 101.71 354.62 100.38 C 353.48 99.04 351.65 97.29 349.88 95.88 C 348.10 94.46 345.12 92.73 344.00 91.88 C 342.88 91.02 343.79 90.96 343.12 90.75 Z" id="s-6-f-0"/>
<clipPath id="c-s-6"><use href="#s-6-f-0"/></clipPath>
<path d="M 267.25 159.00 C 265.06 159.17 265.06 159.73 264.38 160.12 C 263.69 160.52 263.38 160.90 263.12 161.38 C 262.88 161.85 262.75 162.33 262.88 163.00 C 263.00 163.67 262.73 163.60 263.88 165.38 C 265.02 167.15 268.42 171.35 269.75 173.62 C 271.08 175.90 271.21 176.81 271.88 179.00 C 272.54 181.19 273.27 183.85 273.75 186.75 C 274.23 189.65 274.58 190.58 274.75 196.38 C 274.92 202.17 274.92 212.67 274.75 221.50 C 274.58 230.33 274.23 241.35 273.75 249.38 C 273.27 257.40 272.71 263.10 271.88 269.62 C 271.04 276.15 269.60 283.96 268.75 288.50 C 267.90 293.04 267.71 293.69 266.75 296.88 C 265.79 300.06 263.62 304.46 263.00 307.62 C 262.38 310.79 262.65 312.96 263.00 315.88 C 263.35 318.79 263.96 321.88 265.12 325.12 C 266.29 328.38 268.29 332.62 270.00 335.38 C 271.71 338.12 273.94 340.25 275.38 341.62 C 276.81 343.00 277.56 343.25 278.62 343.62 C 279.69 344.00 280.79 344.04 281.75 343.88 C 282.71 343.71 283.54 343.35 284.38 342.62 C 285.21 341.90 286.02 340.79 286.75 339.50 C 287.48 338.21 288.19 336.77 288.75 334.88 C 289.31 332.98 289.75 332.08 290.12 328.12 C 290.50 324.17 290.40 319.35 291.00 311.12 C 291.60 302.90 293.08 293.15 293.75 278.75 C 294.42 264.35 294.62 235.06 295.00 224.75 C 295.38 214.44 295.96 225.25 296.00 216.88 C 296.04 208.50 296.25 183.25 295.25 174.50 C 294.25 165.75 291.21 166.42 290.00 164.38 C 288.79 162.33 289.31 162.98 288.00 162.25 C 286.69 161.52 283.88 160.52 282.12 160.00 C 280.38 159.48 279.98 159.29 277.50 159.12 C 275.02 158.96 269.44 158.83 267.25 159.00 Z" id="s-7-f-0"/>
<clipPath id="c-s-7"><use href="#s-7-f-0"/></clipPath>
<path d="M 289.12 162.88 C 288.60 163.21 288.58 163.73 288.62 164.00 C 288.67 164.27 288.38 162.69 289.38 164.50 C 290.38 166.31 293.54 172.98 294.62 174.88 C 295.71 176.77 294.38 175.75 295.88 175.88 C 297.38 176.00 301.04 175.85 303.62 175.62 C 306.21 175.40 307.62 175.17 311.38 174.50 C 315.12 173.83 318.90 173.21 326.12 171.62 C 333.35 170.04 348.15 166.44 354.75 165.00 C 361.35 163.56 360.85 163.67 365.75 163.00 C 370.65 162.33 379.71 161.29 384.12 161.00 C 388.54 160.71 390.25 161.04 392.25 161.25 C 394.25 161.46 395.12 161.88 396.12 162.25 C 397.12 162.62 397.62 163.00 398.25 163.50 C 398.88 164.00 399.46 164.60 399.88 165.25 C 400.29 165.90 400.44 166.10 400.75 167.38 C 401.06 168.65 401.40 170.08 401.75 172.88 C 402.10 175.67 402.54 179.44 402.88 184.12 C 403.21 188.81 403.56 195.19 403.75 201.00 C 403.94 206.81 403.67 210.69 404.00 219.00 C 404.33 227.31 405.46 238.58 405.75 250.88 C 406.04 263.17 406.06 283.40 405.75 292.75 C 405.44 302.10 404.17 301.62 403.88 307.00 C 403.58 312.38 403.81 321.31 404.00 325.00 C 404.19 328.69 404.46 327.58 405.00 329.12 C 405.54 330.67 406.29 332.44 407.25 334.25 C 408.21 336.06 409.56 338.25 410.75 340.00 C 411.94 341.75 413.42 343.62 414.38 344.75 C 415.33 345.88 415.73 346.23 416.50 346.75 C 417.27 347.27 418.12 347.71 419.00 347.88 C 419.88 348.04 420.92 347.96 421.75 347.75 C 422.58 347.54 422.81 347.69 424.00 346.62 C 425.19 345.56 427.58 343.06 428.88 341.38 C 430.17 339.69 430.62 339.21 431.75 336.50 C 432.88 333.79 434.79 328.29 435.62 325.12 C 436.46 321.96 436.56 322.35 436.75 317.50 C 436.94 312.65 436.90 301.79 436.75 296.00 C 436.60 290.21 436.15 289.54 435.88 282.75 C 435.60 275.96 435.25 268.35 435.12 255.25 C 435.00 242.15 435.00 214.98 435.12 204.12 C 435.25 193.27 435.56 193.88 435.88 190.12 C 436.19 186.38 435.85 185.75 437.00 181.62 C 438.15 177.50 441.79 168.79 442.75 165.38 C 443.71 161.96 442.92 162.17 442.75 161.12 C 442.58 160.08 442.67 160.17 441.75 159.12 C 440.83 158.08 439.10 156.23 437.25 154.88 C 435.40 153.52 434.54 152.96 430.62 151.00 C 426.71 149.04 417.48 144.77 413.75 143.12 C 410.02 141.48 409.67 141.50 408.25 141.12 C 406.83 140.75 411.40 139.62 405.25 140.88 C 399.10 142.12 381.27 146.48 371.38 148.62 C 361.48 150.77 355.06 152.06 345.88 153.75 C 336.69 155.44 324.02 157.60 316.25 158.75 C 308.48 159.90 302.60 160.12 299.25 160.62 C 295.90 161.12 297.38 161.52 296.12 161.75 C 294.88 161.98 292.92 161.81 291.75 162.00 C 290.58 162.19 289.65 162.54 289.12 162.88 Z" id="s-8-f-0"/>
<clipPath id="c-s-8"><use href="#s-8-f-0"/></clipPath>
<path d="M 404.25 204.25 C 403.71 202.69 402.40 202.83 401.00 202.12 C 399.60 201.42 399.12 200.69 395.88 200.00 C 392.62 199.31 385.06 198.31 381.50 198.00 C 377.94 197.69 377.15 197.79 374.50 198.12 C 371.85 198.46 369.19 199.06 365.62 200.00 C 362.06 200.94 357.83 202.48 353.12 203.75 C 348.42 205.02 345.44 205.96 337.38 207.62 C 329.31 209.29 311.15 212.69 304.75 213.75 C 298.35 214.81 300.42 213.83 299.00 214.00 C 297.58 214.17 296.83 214.52 296.25 214.75 C 295.67 214.98 295.75 214.69 295.50 215.38 C 295.25 216.06 294.88 217.33 294.75 218.88 C 294.62 220.42 294.52 223.46 294.75 224.62 C 294.98 225.79 295.08 225.35 296.12 225.88 C 297.17 226.40 299.19 227.27 301.00 227.75 C 302.81 228.23 304.38 228.56 307.00 228.75 C 309.62 228.94 313.33 229.06 316.75 228.88 C 320.17 228.69 320.17 228.81 327.50 227.62 C 334.83 226.44 351.83 223.52 360.75 221.75 C 369.67 219.98 374.60 218.33 381.00 217.00 C 387.40 215.67 395.58 214.46 399.12 213.75 C 402.67 213.04 401.40 213.12 402.25 212.75 C 403.10 212.38 403.92 212.92 404.25 211.50 C 404.58 210.08 404.79 205.81 404.25 204.25 Z" id="s-9-f-0"/>
<clipPath id="c-s-9"><use href="#s-9-f-0"/></clipPath>
<path d="M 406.25 254.25 C 405.44 252.83 403.00 252.12 401.25 251.25 C 399.50 250.38 399.04 249.71 395.75 249.00 C 392.46 248.29 385.04 247.31 381.50 247.00 C 377.96 246.69 377.17 246.79 374.50 247.12 C 371.83 247.46 369.23 248.06 365.50 249.00 C 361.77 249.94 357.40 251.46 352.12 252.75 C 346.85 254.04 339.44 255.62 333.88 256.75 C 328.31 257.88 325.35 258.48 318.75 259.50 C 312.15 260.52 298.46 262.25 294.25 262.88 C 290.04 263.50 293.62 261.46 293.50 263.25 C 293.38 265.04 293.15 271.54 293.50 273.62 C 293.85 275.71 294.77 275.23 295.62 275.75 C 296.48 276.27 297.10 276.42 298.62 276.75 C 300.15 277.08 302.08 277.56 304.75 277.75 C 307.42 277.94 311.17 278.06 314.62 277.88 C 318.08 277.69 319.85 277.48 325.50 276.62 C 331.15 275.77 340.33 274.23 348.50 272.75 C 356.67 271.27 369.08 268.88 374.50 267.75 C 379.92 266.62 376.71 266.85 381.00 266.00 C 385.29 265.15 396.62 263.33 400.25 262.62 C 403.88 261.92 401.77 262.23 402.75 261.75 C 403.73 261.27 405.54 261.00 406.12 259.75 C 406.71 258.50 407.06 255.67 406.25 254.25 Z" id="s-10-f-0"/>
<clipPath id="c-s-10"><use href="#s-10-f-0"/></clipPath>
<path d="M 404.25 309.25 C 403.02 306.58 399.35 306.33 396.88 305.12 C 394.40 303.92 391.27 302.69 389.38 302.00 C 387.48 301.31 386.94 301.19 385.50 301.00 C 384.06 300.81 383.00 300.71 380.75 300.88 C 378.50 301.04 375.52 301.38 372.00 302.00 C 368.48 302.62 364.98 303.71 359.62 304.62 C 354.27 305.54 351.19 306.15 339.88 307.50 C 328.56 308.85 299.98 311.77 291.75 312.75 C 283.52 313.73 290.85 312.19 290.50 313.38 C 290.15 314.56 289.79 317.38 289.62 319.88 C 289.46 322.38 289.19 326.73 289.50 328.38 C 289.81 330.02 290.62 329.38 291.50 329.75 C 292.38 330.12 292.58 330.42 294.75 330.62 C 296.92 330.83 290.42 332.27 304.50 331.00 C 318.58 329.73 362.71 324.56 379.25 323.00 C 395.79 321.44 399.58 321.94 403.75 321.62 C 407.92 321.31 404.17 323.19 404.25 321.12 C 404.33 319.06 405.48 311.92 404.25 309.25 Z" id="s-11-f-0"/>
<clipPath id="c-s-11"><use href="#s-11-f-0"/></clipPath>
<path d="M 340.50 341.75 C 339.67 340.75 338.73 339.83 337.50 338.88 C 336.27 337.92 335.98 337.29 333.12 336.00 C 330.27 334.71 323.54 332.21 320.38 331.12 C 317.21 330.04 316.38 329.73 314.12 329.50 C 311.88 329.27 308.88 329.56 306.88 329.75 C 304.88 329.94 303.12 328.46 302.12 330.62 C 301.12 332.79 301.29 340.00 300.88 342.75 C 300.46 345.50 300.98 344.23 299.62 347.12 C 298.27 350.02 295.27 355.92 292.75 360.12 C 290.23 364.33 287.25 368.58 284.50 372.38 C 281.75 376.17 280.75 377.56 276.25 382.88 C 271.75 388.19 262.50 398.79 257.50 404.25 C 252.50 409.71 251.04 411.19 246.25 415.62 C 241.46 420.06 231.79 428.04 228.75 430.88 C 225.71 433.71 227.88 432.15 228.00 432.62 C 228.12 433.10 228.40 433.58 229.50 433.75 C 230.60 433.92 230.56 435.15 234.62 433.62 C 238.69 432.10 249.58 426.77 253.88 424.62 C 258.17 422.48 255.65 423.90 260.38 420.75 C 265.10 417.60 276.81 409.65 282.25 405.75 C 287.69 401.85 289.21 400.54 293.00 397.38 C 296.79 394.21 299.42 392.06 305.00 386.75 C 310.58 381.44 320.56 370.88 326.50 365.50 C 332.44 360.12 337.94 356.94 340.62 354.50 C 343.31 352.06 342.25 352.17 342.62 350.88 C 343.00 349.58 342.90 347.75 342.88 346.75 C 342.85 345.75 342.90 345.71 342.50 344.88 C 342.10 344.04 341.33 342.75 340.50 341.75 Z" id="s-12-f-0"/>
<clipPath id="c-s-12"><use href="#s-12-f-0"/></clipPath>
<path d="M 365.75 350.00 C 364.77 350.10 365.12 350.19 365.00 350.75 C 364.88 351.31 364.71 352.42 365.00 353.38 C 365.29 354.33 364.23 353.60 366.75 356.50 C 369.27 359.40 376.96 367.23 380.12 370.75 C 383.29 374.27 382.31 373.19 385.75 377.62 C 389.19 382.06 396.04 390.92 400.75 397.38 C 405.46 403.83 409.60 410.50 414.00 416.38 C 418.40 422.25 423.83 428.88 427.12 432.62 C 430.42 436.38 431.17 437.04 433.75 438.88 C 436.33 440.71 440.40 442.81 442.62 443.62 C 444.85 444.44 445.81 444.06 447.12 443.75 C 448.44 443.44 449.44 442.60 450.50 441.75 C 451.56 440.90 452.62 440.06 453.50 438.62 C 454.38 437.19 455.19 435.19 455.75 433.12 C 456.31 431.06 456.71 428.75 456.88 426.25 C 457.04 423.75 456.96 420.44 456.75 418.12 C 456.54 415.81 456.31 414.75 455.62 412.38 C 454.94 410.00 453.79 406.50 452.62 403.88 C 451.46 401.25 450.12 398.83 448.62 396.62 C 447.12 394.42 445.27 392.42 443.62 390.62 C 441.98 388.83 440.98 387.85 438.75 385.88 C 436.52 383.90 433.75 381.38 430.25 378.75 C 426.75 376.12 423.15 373.21 417.75 370.12 C 412.35 367.04 403.94 363.12 397.88 360.25 C 391.81 357.38 385.88 354.56 381.38 352.88 C 376.88 351.19 373.48 350.60 370.88 350.12 C 368.27 349.65 366.73 349.90 365.75 350.00 Z" id="s-13-f-0"/>
<clipPath id="c-s-13"><use href="#s-13-f-0"/></clipPath>
</defs>
<g id="s-0" clip-path="url(#c-s-0)">
<use href="#s-0-f-0"/>
<path d="M 79.50 131.75 C 79.08 132.25 78.25 133.23 78.00 134.00 C 77.75 134.77 77.81 135.56 78.00 136.38 C 78.19 137.19 76.79 134.71 79.12 138.88 C 81.46 143.04 88.56 155.65 92.00 161.38 C 95.44 167.10 97.79 170.42 99.75 173.25 C 101.71 176.08 102.90 177.42 103.75 178.38 C 104.60 179.33 101.23 178.90 104.88 179.00 C 108.52 179.10 122.02 179.10 125.62 179.00 C 129.23 178.90 126.12 179.60 126.50 178.38 C 126.88 177.15 127.67 174.10 127.88 171.62 C 128.08 169.15 127.94 165.79 127.75 163.50 C 127.56 161.21 127.42 160.02 126.75 157.88 C 126.08 155.73 124.85 152.58 123.75 150.62 C 122.65 148.67 121.75 147.54 120.12 146.12 C 118.50 144.71 115.98 143.29 114.00 142.12 C 112.02 140.96 112.12 140.79 108.25 139.12 C 104.38 137.46 94.85 133.50 90.75 132.12 C 86.65 130.75 85.33 131.06 83.62 130.88 C 81.92 130.69 81.19 130.85 80.50 131.00 C 79.81 131.15 79.92 131.25 79.50 131.75 Z" id="s-0-f-1"/>
</g>
<g id="s-1" clip-path="url(#c-s-1)">
<use href="#s-1-f-0"/>
<path d="M 257.75 124.25 C 257.38 123.40 257.38 123.23 256.50 122.12 C 255.62 121.02 254.92 119.79 252.50 117.62 C 250.08 115.46 244.54 111.04 242.00 109.12 C 239.46 107.21 238.79 106.96 237.25 106.12 C 235.71 105.29 234.25 104.44 232.75 104.12 C 231.25 103.81 229.27 103.90 228.25 104.25 C 227.23 104.60 227.73 103.35 226.62 106.25 C 225.52 109.15 223.44 116.67 221.62 121.62 C 219.81 126.58 218.12 131.02 215.75 136.00 C 213.38 140.98 208.52 148.83 207.38 151.50 C 206.23 154.17 205.19 151.96 208.88 152.00 C 212.56 152.04 224.27 152.92 229.50 151.75 C 234.73 150.58 236.27 147.17 240.25 145.00 C 244.23 142.83 250.81 140.06 253.38 138.75 C 255.94 137.44 254.92 137.75 255.62 137.12 C 256.33 136.50 257.10 135.77 257.62 135.00 C 258.15 134.23 258.56 133.79 258.75 132.50 C 258.94 131.21 258.92 128.62 258.75 127.25 C 258.58 125.88 258.12 125.10 257.75 124.25 Z" id="s-1-f-1"/>
</g>
<g id="s-2" clip-path="url(#c-s-2)">
<use href="#s-2-f-0"/>
<path d="M 221.62 199.12 C 220.96 197.94 219.62 198.19 218.00 198.00 C 216.38 197.81 213.69 197.71 211.88 198.00 C 210.06 198.29 209.92 198.96 207.12 199.75 C 204.33 200.54 203.92 201.04 195.12 202.75 C 186.33 204.46 163.17 208.35 154.38 210.00 C 145.58 211.65 149.88 211.33 142.38 212.62 C 134.88 213.92 119.60 216.35 109.38 217.75 C 99.15 219.15 86.19 220.27 81.00 221.00 C 75.81 221.73 78.75 221.58 78.25 222.12 C 77.75 222.67 77.71 223.38 78.00 224.25 C 78.29 225.12 79.00 226.25 80.00 227.38 C 81.00 228.50 82.71 230.10 84.00 231.00 C 85.29 231.90 85.54 232.15 87.75 232.75 C 89.96 233.35 93.54 234.27 97.25 234.62 C 100.96 234.98 104.79 235.04 110.00 234.88 C 115.21 234.71 121.23 234.29 128.50 233.62 C 135.77 232.96 145.94 231.85 153.62 230.88 C 161.31 229.90 169.85 228.58 174.62 227.75 C 179.40 226.92 176.10 226.90 182.25 225.88 C 188.40 224.85 204.92 222.71 211.50 221.62 C 218.08 220.54 220.00 222.12 221.75 219.38 C 223.50 216.62 222.02 208.50 222.00 205.12 C 221.98 201.75 222.29 200.31 221.62 199.12 Z" id="s-2-f-1"/>
<path d="M 173.88 207.00 C 173.29 203.83 175.75 206.06 170.50 207.00 C 165.25 207.94 150.06 211.19 142.38 212.62 C 134.69 214.06 134.60 214.23 124.38 215.62 C 114.15 217.02 88.69 219.92 81.00 221.00 C 73.31 222.08 78.75 221.58 78.25 222.12 C 77.75 222.67 77.71 223.38 78.00 224.25 C 78.29 225.12 79.00 226.25 80.00 227.38 C 81.00 228.50 82.71 230.10 84.00 231.00 C 85.29 231.90 85.29 232.12 87.75 232.75 C 90.21 233.38 94.23 234.42 98.75 234.75 C 103.27 235.08 109.92 234.94 114.88 234.75 C 119.83 234.56 122.04 234.27 128.50 233.62 C 134.96 232.98 146.15 231.83 153.62 230.88 C 161.10 229.92 170.00 228.46 173.38 227.88 C 176.75 227.29 173.77 227.69 173.88 227.38 C 173.98 227.06 174.00 229.40 174.00 226.00 C 174.00 222.60 174.46 210.17 173.88 207.00 Z" id="s-2-f-2"/>
<path d="M 125.88 233.25 C 126.08 230.44 126.00 219.92 126.00 217.00 C 126.00 214.08 126.00 216.04 125.88 215.75 C 125.75 215.46 129.12 214.77 125.25 215.25 C 121.38 215.73 109.12 217.81 102.62 218.62 C 96.12 219.44 89.85 219.73 86.25 220.12 C 82.65 220.52 82.31 220.69 81.00 221.00 C 79.69 221.31 78.88 221.69 78.38 222.00 C 77.88 222.31 78.06 222.50 78.00 222.88 C 77.94 223.25 77.85 223.75 78.00 224.25 C 78.15 224.75 77.88 224.75 78.88 225.88 C 79.88 227.00 82.52 229.85 84.00 231.00 C 85.48 232.15 86.46 232.29 87.75 232.75 C 89.04 233.21 89.92 233.42 91.75 233.75 C 93.58 234.08 95.73 234.56 98.75 234.75 C 101.77 234.94 105.54 235.02 109.88 234.88 C 114.21 234.73 122.08 234.15 124.75 233.88 C 127.42 233.60 125.67 236.06 125.88 233.25 Z" id="s-2-f-3"/>
</g>
<g id="s-3" clip-path="url(#c-s-3)">
<use href="#s-3-f-0"/>
<path d="M 234.00 267.38 C 233.92 265.00 234.10 266.98 233.50 266.75 C 232.90 266.52 232.19 266.10 230.38 266.00 C 228.56 265.90 229.08 265.17 222.62 266.12 C 216.17 267.08 199.92 270.31 191.62 271.75 C 183.33 273.19 176.54 274.23 172.88 274.75 C 169.21 275.27 175.23 273.88 169.62 274.88 C 164.02 275.88 152.75 278.44 139.25 280.75 C 125.75 283.06 103.75 286.52 88.62 288.75 C 73.50 290.98 56.06 292.94 48.50 294.12 C 40.94 295.31 44.35 295.33 43.25 295.88 C 42.15 296.42 42.08 296.79 41.88 297.38 C 41.67 297.96 41.79 298.71 42.00 299.38 C 42.21 300.04 42.38 300.50 43.12 301.38 C 43.88 302.25 44.65 303.23 46.50 304.62 C 48.35 306.02 50.73 308.06 54.25 309.75 C 57.77 311.44 64.23 313.62 67.62 314.75 C 71.02 315.88 72.77 316.15 74.62 316.50 C 76.48 316.85 77.19 316.85 78.75 316.88 C 80.31 316.90 76.77 318.27 84.00 316.62 C 91.23 314.98 112.73 309.27 122.12 307.00 C 131.52 304.73 136.96 303.69 140.38 303.00 C 143.79 302.31 137.25 304.04 142.62 302.88 C 148.00 301.71 161.85 298.10 172.62 296.00 C 183.40 293.90 197.15 291.73 207.25 290.25 C 217.35 288.77 228.85 287.71 233.25 287.12 C 237.65 286.54 233.50 287.77 233.62 286.75 C 233.75 285.73 233.94 284.23 234.00 281.00 C 234.06 277.77 234.08 269.75 234.00 267.38 Z" id="s-3-f-1"/>
<path d="M 185.88 273.12 C 185.77 269.92 185.98 272.77 185.38 272.75 C 184.77 272.73 184.33 272.67 182.25 273.00 C 180.17 273.33 174.98 274.44 172.88 274.75 C 170.77 275.06 176.25 273.71 169.62 274.88 C 163.00 276.04 146.62 279.44 133.12 281.75 C 119.62 284.06 102.69 286.69 88.62 288.75 C 74.56 290.81 56.31 292.94 48.75 294.12 C 41.19 295.31 44.40 295.33 43.25 295.88 C 42.10 296.42 42.08 296.79 41.88 297.38 C 41.67 297.96 41.79 298.71 42.00 299.38 C 42.21 300.04 42.38 300.50 43.12 301.38 C 43.88 302.25 44.65 303.23 46.50 304.62 C 48.35 306.02 50.73 308.06 54.25 309.75 C 57.77 311.44 64.23 313.62 67.62 314.75 C 71.02 315.88 72.77 316.15 74.62 316.50 C 76.48 316.85 77.19 316.85 78.75 316.88 C 80.31 316.90 76.77 318.27 84.00 316.62 C 91.23 314.98 112.73 309.27 122.12 307.00 C 131.52 304.73 136.96 303.69 140.38 303.00 C 143.79 302.31 138.08 303.88 142.62 302.88 C 147.17 301.88 160.52 298.50 167.62 297.00 C 174.73 295.50 182.21 294.46 185.25 293.88 C 188.29 293.29 185.75 293.81 185.88 293.50 C 186.00 293.19 186.00 295.40 186.00 292.00 C 186.00 288.60 185.98 276.33 185.88 273.12 Z" id="s-3-f-2"/>
<path d="M 138.00 281.50 C 137.71 278.00 144.48 279.79 136.25 281.00 C 128.02 282.21 103.25 286.56 88.62 288.75 C 74.00 290.94 56.06 292.94 48.50 294.12 C 40.94 295.31 44.35 295.33 43.25 295.88 C 42.15 296.42 42.08 296.79 41.88 297.38 C 41.67 297.96 41.79 298.71 42.00 299.38 C 42.21 300.04 42.38 300.50 43.12 301.38 C 43.88 302.25 45.21 303.56 46.50 304.62 C 47.79 305.69 49.19 306.73 50.88 307.75 C 52.56 308.77 53.83 309.58 56.62 310.75 C 59.42 311.92 64.62 313.79 67.62 314.75 C 70.62 315.71 72.77 316.15 74.62 316.50 C 76.48 316.85 77.17 316.85 78.75 316.88 C 80.33 316.90 80.35 317.44 84.12 316.62 C 87.90 315.81 92.50 314.17 101.38 312.00 C 110.25 309.83 131.27 305.29 137.38 303.62 C 143.48 301.96 137.90 305.69 138.00 302.00 C 138.10 298.31 138.29 285.00 138.00 281.50 Z" id="s-3-f-3"/>
<path d="M 90.00 314.62 C 90.21 310.46 90.10 294.94 90.00 290.62 C 89.90 286.31 96.35 288.15 89.38 288.75 C 82.40 289.35 55.52 293.21 48.12 294.25 C 40.73 295.29 45.81 294.73 45.00 295.00 C 44.19 295.27 43.77 295.48 43.25 295.88 C 42.73 296.27 42.08 296.79 41.88 297.38 C 41.67 297.96 41.79 298.71 42.00 299.38 C 42.21 300.04 42.38 300.50 43.12 301.38 C 43.88 302.25 44.65 303.23 46.50 304.62 C 48.35 306.02 50.73 308.06 54.25 309.75 C 57.77 311.44 63.96 313.58 67.62 314.75 C 71.29 315.92 73.54 316.44 76.25 316.75 C 78.96 317.06 81.79 316.81 83.88 316.62 C 85.96 316.44 87.73 315.96 88.75 315.62 C 89.77 315.29 89.79 318.79 90.00 314.62 Z" id="s-3-f-4"/>
</g>
<g id="s-4" clip-path="url(#c-s-4)">
<use href="#s-4-f-0"/>
<path d="M 155.75 57.12 C 152.77 56.77 148.44 56.85 146.38 57.00 C 144.31 57.15 144.29 57.44 143.38 58.00 C 142.46 58.56 141.46 59.46 140.88 60.38 C 140.29 61.29 140.02 62.52 139.88 63.50 C 139.73 64.48 139.02 63.73 140.00 66.25 C 140.98 68.77 144.29 74.52 145.75 78.62 C 147.21 82.73 147.92 85.46 148.75 90.88 C 149.58 96.29 150.31 105.19 150.75 111.12 C 151.19 117.06 151.19 109.94 151.38 126.50 C 151.56 143.06 152.00 195.15 151.88 210.50 C 151.75 225.85 150.81 214.83 150.62 218.62 C 150.44 222.42 150.90 228.42 150.75 233.25 C 150.60 238.08 150.25 242.50 149.75 247.62 C 149.25 252.75 148.60 258.48 147.75 264.00 C 146.90 269.52 145.29 277.85 144.62 280.75 C 143.96 283.65 143.96 280.44 143.75 281.38 C 143.54 282.31 143.56 285.33 143.38 286.38 C 143.19 287.42 142.94 285.83 142.62 287.62 C 142.31 289.42 141.83 295.19 141.50 297.12 C 141.17 299.06 140.77 298.15 140.62 299.25 C 140.48 300.35 141.27 300.54 140.62 303.75 C 139.98 306.96 138.23 313.48 136.75 318.50 C 135.27 323.52 133.77 328.33 131.75 333.88 C 129.73 339.42 126.96 346.38 124.62 351.75 C 122.29 357.12 120.23 361.40 117.75 366.12 C 115.27 370.85 112.50 375.77 109.75 380.12 C 107.00 384.48 102.60 390.12 101.25 392.25 C 99.90 394.38 97.98 392.75 101.62 392.88 C 105.27 393.00 119.17 393.04 123.12 393.00 C 127.08 392.96 123.77 394.21 125.38 392.62 C 126.98 391.04 130.35 386.73 132.75 383.50 C 135.15 380.27 136.77 378.35 139.75 373.25 C 142.73 368.15 147.98 358.23 150.62 352.88 C 153.27 347.52 154.27 344.54 155.62 341.12 C 156.98 337.71 157.56 335.98 158.75 332.38 C 159.94 328.77 161.23 325.35 162.75 319.50 C 164.27 313.65 166.81 301.29 167.88 297.25 C 168.94 293.21 168.71 297.23 169.12 295.25 C 169.54 293.27 170.04 287.23 170.38 285.38 C 170.71 283.52 170.96 285.00 171.12 284.12 C 171.29 283.25 171.21 281.10 171.38 280.12 C 171.54 279.15 172.02 279.27 172.12 278.25 C 172.23 277.23 171.56 277.38 172.00 274.00 C 172.44 270.62 173.79 265.06 174.75 258.00 C 175.71 250.94 177.21 236.98 177.75 231.62 C 178.29 226.27 177.79 227.65 178.00 225.88 C 178.21 224.10 178.83 227.54 179.00 221.00 C 179.17 214.46 178.83 202.48 179.00 186.62 C 179.17 170.77 179.17 140.50 180.00 125.88 C 180.83 111.25 183.00 104.92 184.00 98.88 C 185.00 92.83 185.23 92.38 186.00 89.62 C 186.77 86.88 188.15 84.42 188.62 82.38 C 189.10 80.33 189.02 78.83 188.88 77.38 C 188.73 75.92 188.25 74.71 187.75 73.62 C 187.25 72.54 186.65 71.77 185.88 70.88 C 185.10 69.98 184.35 69.23 183.12 68.25 C 181.90 67.27 180.73 66.21 178.50 65.00 C 176.27 63.79 172.12 61.98 169.75 61.00 C 167.38 60.02 166.58 59.77 164.25 59.12 C 161.92 58.48 158.73 57.48 155.75 57.12 Z" id="s-4-f-1"/>
<path d="M 154.75 57.00 C 151.77 56.65 148.27 56.83 146.38 57.00 C 144.48 57.17 144.29 57.44 143.38 58.00 C 142.46 58.56 141.46 59.46 140.88 60.38 C 140.29 61.29 140.02 62.52 139.88 63.50 C 139.73 64.48 139.19 64.21 140.00 66.25 C 140.81 68.29 143.62 73.17 144.75 75.75 C 145.88 78.33 146.08 79.23 146.75 81.75 C 147.42 84.27 148.08 85.98 148.75 90.88 C 149.42 95.77 150.25 103.23 150.75 111.12 C 151.25 119.02 151.56 121.69 151.75 138.25 C 151.94 154.81 152.06 197.10 151.88 210.50 C 151.69 223.90 150.81 214.83 150.62 218.62 C 150.44 222.42 150.90 228.42 150.75 233.25 C 150.60 238.08 150.40 241.60 149.75 247.62 C 149.10 253.65 147.73 263.85 146.88 269.38 C 146.02 274.90 145.15 278.75 144.62 280.75 C 144.10 282.75 143.96 280.44 143.75 281.38 C 143.54 282.31 143.56 285.33 143.38 286.38 C 143.19 287.42 142.79 286.69 142.62 287.62 C 142.46 288.56 142.54 291.00 142.38 292.00 C 142.21 293.00 141.77 292.77 141.62 293.62 C 141.48 294.48 141.67 296.19 141.50 297.12 C 141.33 298.06 140.77 298.15 140.62 299.25 C 140.48 300.35 140.94 301.73 140.62 303.75 C 140.31 305.77 139.94 307.19 138.75 311.38 C 137.56 315.56 135.33 323.44 133.50 328.88 C 131.67 334.31 128.65 341.35 127.75 344.00 C 126.85 346.65 127.81 344.58 128.12 344.75 C 128.44 344.92 125.35 345.02 129.62 345.00 C 133.90 344.98 149.42 345.23 153.75 344.62 C 158.08 344.02 154.46 344.42 155.62 341.38 C 156.79 338.33 159.23 331.29 160.75 326.38 C 162.27 321.46 163.56 316.73 164.75 311.88 C 165.94 307.02 167.15 300.04 167.88 297.25 C 168.60 294.46 168.71 297.10 169.12 295.12 C 169.54 293.15 170.04 287.21 170.38 285.38 C 170.71 283.54 170.96 285.00 171.12 284.12 C 171.29 283.25 171.21 281.10 171.38 280.12 C 171.54 279.15 172.02 279.27 172.12 278.25 C 172.23 277.23 171.56 277.38 172.00 274.00 C 172.44 270.62 173.79 265.06 174.75 258.00 C 175.71 250.94 177.21 236.98 177.75 231.62 C 178.29 226.27 177.79 227.65 178.00 225.88 C 178.21 224.10 178.83 227.54 179.00 221.00 C 179.17 214.46 178.83 202.48 179.00 186.62 C 179.17 170.77 179.17 140.50 180.00 125.88 C 180.83 111.25 183.00 104.92 184.00 98.88 C 185.00 92.83 185.21 92.48 186.00 89.62 C 186.79 86.77 188.29 83.98 188.75 81.75 C 189.21 79.52 188.94 77.65 188.75 76.25 C 188.56 74.85 188.29 74.48 187.62 73.38 C 186.96 72.27 186.27 71.02 184.75 69.62 C 183.23 68.23 181.00 66.44 178.50 65.00 C 176.00 63.56 172.12 61.98 169.75 61.00 C 167.38 60.02 166.75 59.79 164.25 59.12 C 161.75 58.46 157.73 57.35 154.75 57.00 Z" id="s-4-f-2"/>
<path d="M 146.38 57.00 C 144.48 57.17 144.29 57.44 143.38 58.00 C 142.46 58.56 141.44 59.65 140.88 60.38 C 140.31 61.10 140.17 61.56 140.00 62.38 C 139.83 63.19 139.69 64.12 139.88 65.25 C 140.06 66.38 140.31 67.38 141.12 69.12 C 141.94 70.88 143.81 73.65 144.75 75.75 C 145.69 77.85 146.08 79.23 146.75 81.75 C 147.42 84.27 148.08 85.98 148.75 90.88 C 149.42 95.77 150.25 103.23 150.75 111.12 C 151.25 119.02 151.56 121.69 151.75 138.25 C 151.94 154.81 152.06 197.10 151.88 210.50 C 151.69 223.90 150.81 214.83 150.62 218.62 C 150.44 222.42 151.06 226.83 150.75 233.25 C 150.44 239.67 149.77 249.21 148.75 257.12 C 147.73 265.04 145.46 276.71 144.62 280.75 C 143.79 284.79 143.96 280.44 143.75 281.38 C 143.54 282.31 143.56 285.33 143.38 286.38 C 143.19 287.42 142.92 286.02 142.62 287.62 C 142.33 289.23 141.67 294.40 141.62 296.00 C 141.58 297.60 138.10 297.06 142.38 297.25 C 146.65 297.44 162.90 297.25 167.25 297.12 C 171.60 297.00 168.31 296.71 168.50 296.50 C 168.69 296.29 168.27 296.08 168.38 295.88 C 168.48 295.67 168.79 297.00 169.12 295.25 C 169.46 293.50 170.04 287.23 170.38 285.38 C 170.71 283.52 170.96 285.00 171.12 284.12 C 171.29 283.25 171.21 281.10 171.38 280.12 C 171.54 279.15 172.02 279.27 172.12 278.25 C 172.23 277.23 171.56 277.38 172.00 274.00 C 172.44 270.62 173.79 265.06 174.75 258.00 C 175.71 250.94 177.21 236.98 177.75 231.62 C 178.29 226.27 177.79 227.65 178.00 225.88 C 178.21 224.10 178.83 227.54 179.00 221.00 C 179.17 214.46 178.83 202.44 179.00 186.62 C 179.17 170.81 179.17 140.75 180.00 126.12 C 180.83 111.50 183.00 104.96 184.00 98.88 C 185.00 92.79 185.23 92.38 186.00 89.62 C 186.77 86.88 188.15 84.42 188.62 82.38 C 189.10 80.33 189.02 78.83 188.88 77.38 C 188.73 75.92 188.25 74.71 187.75 73.62 C 187.25 72.54 186.65 71.77 185.88 70.88 C 185.10 69.98 184.35 69.23 183.12 68.25 C 181.90 67.27 180.73 66.21 178.50 65.00 C 176.27 63.79 172.75 62.15 169.75 61.00 C 166.75 59.85 163.00 58.79 160.50 58.12 C 158.00 57.46 157.10 57.19 154.75 57.00 C 152.40 56.81 148.27 56.83 146.38 57.00 Z" id="s-4-f-3"/>
<path d="M 146.38 57.00 C 144.19 57.12 144.29 57.44 143.38 58.00 C 142.46 58.56 141.44 59.65 140.88 60.38 C 140.31 61.10 140.17 61.56 140.00 62.38 C 139.83 63.19 139.69 64.12 139.88 65.25 C 140.06 66.38 140.31 67.38 141.12 69.12 C 141.94 70.88 143.65 72.98 144.75 75.75 C 145.85 78.52 146.92 81.94 147.75 85.75 C 148.58 89.56 149.25 94.40 149.75 98.62 C 150.25 102.85 150.42 104.52 150.75 111.12 C 151.08 117.73 151.56 121.69 151.75 138.25 C 151.94 154.81 152.06 197.25 151.88 210.50 C 151.69 223.75 150.81 213.96 150.62 217.75 C 150.44 221.54 150.92 228.12 150.75 233.25 C 150.58 238.38 149.48 245.88 149.62 248.50 C 149.77 251.12 147.33 248.94 151.62 249.00 C 155.92 249.06 171.33 249.00 175.38 248.88 C 179.42 248.75 175.44 252.08 175.88 248.25 C 176.31 244.42 177.46 230.75 178.00 225.88 C 178.54 221.00 178.96 225.54 179.12 219.00 C 179.29 212.46 178.85 202.10 179.00 186.62 C 179.15 171.15 179.17 140.75 180.00 126.12 C 180.83 111.50 183.00 104.96 184.00 98.88 C 185.00 92.79 185.21 92.48 186.00 89.62 C 186.79 86.77 188.29 83.98 188.75 81.75 C 189.21 79.52 188.92 77.60 188.75 76.25 C 188.58 74.90 188.42 74.73 187.75 73.62 C 187.08 72.52 186.29 71.06 184.75 69.62 C 183.21 68.19 180.25 66.10 178.50 65.00 C 176.75 63.90 176.62 63.98 174.25 63.00 C 171.88 62.02 167.21 60.08 164.25 59.12 C 161.29 58.17 159.48 57.60 156.50 57.25 C 153.52 56.90 148.56 56.88 146.38 57.00 Z" id="s-4-f-4"/>
<path d="M 145.62 57.12 C 143.52 57.27 144.17 57.46 143.38 58.00 C 142.58 58.54 141.44 59.65 140.88 60.38 C 140.31 61.10 140.17 61.56 140.00 62.38 C 139.83 63.19 139.69 64.12 139.88 65.25 C 140.06 66.38 140.31 67.38 141.12 69.12 C 141.94 70.88 143.81 73.65 144.75 75.75 C 145.69 77.85 146.08 79.23 146.75 81.75 C 147.42 84.27 148.25 88.06 148.75 90.88 C 149.25 93.69 149.42 95.25 149.75 98.62 C 150.08 102.00 150.42 104.56 150.75 111.12 C 151.08 117.69 151.54 123.10 151.75 138.00 C 151.96 152.90 151.90 190.00 152.00 200.50 C 152.10 211.00 148.17 200.96 152.38 201.00 C 156.58 201.04 172.85 200.92 177.25 200.75 C 181.65 200.58 178.29 212.44 178.75 200.00 C 179.21 187.56 179.12 142.98 180.00 126.12 C 180.88 109.27 183.00 104.96 184.00 98.88 C 185.00 92.79 185.21 92.48 186.00 89.62 C 186.79 86.77 188.29 83.98 188.75 81.75 C 189.21 79.52 189.08 77.88 188.75 76.25 C 188.42 74.62 187.69 73.33 186.75 72.00 C 185.81 70.67 184.50 69.42 183.12 68.25 C 181.75 67.08 180.73 66.21 178.50 65.00 C 176.27 63.79 172.12 61.98 169.75 61.00 C 167.38 60.02 166.54 59.77 164.25 59.12 C 161.96 58.48 159.10 57.46 156.00 57.12 C 152.90 56.79 147.73 56.98 145.62 57.12 Z" id="s-4-f-5"/>
<path d="M 145.62 57.12 C 143.56 57.27 144.17 57.46 143.38 58.00 C 142.58 58.54 141.44 59.65 140.88 60.38 C 140.31 61.10 140.17 61.56 140.00 62.38 C 139.83 63.19 139.69 64.12 139.88 65.25 C 140.06 66.38 140.31 67.38 141.12 69.12 C 141.94 70.88 143.65 72.98 144.75 75.75 C 145.85 78.52 147.06 83.06 147.75 85.75 C 148.44 88.44 148.38 87.65 148.88 91.88 C 149.38 96.10 150.23 100.98 150.75 111.12 C 151.27 121.27 147.27 145.79 152.00 152.75 C 156.73 159.71 174.50 152.98 179.12 152.88 C 183.75 152.77 179.60 156.58 179.75 152.12 C 179.90 147.67 179.79 131.92 180.00 126.12 C 180.21 120.33 180.00 123.46 181.00 117.38 C 182.00 111.29 184.71 95.56 186.00 89.62 C 187.29 83.69 188.31 84.06 188.75 81.75 C 189.19 79.44 188.96 77.38 188.62 75.75 C 188.29 74.12 187.67 73.25 186.75 72.00 C 185.83 70.75 184.50 69.42 183.12 68.25 C 181.75 67.08 180.73 66.21 178.50 65.00 C 176.27 63.79 172.12 61.98 169.75 61.00 C 167.38 60.02 166.58 59.77 164.25 59.12 C 161.92 58.48 158.85 57.46 155.75 57.12 C 152.65 56.79 147.69 56.98 145.62 57.12 Z" id="s-4-f-6"/>
<path d="M 142.38 58.75 C 141.33 59.56 140.52 60.62 140.12 61.88 C 139.73 63.12 139.23 63.94 140.00 66.25 C 140.77 68.56 143.62 73.17 144.75 75.75 C 145.88 78.33 146.08 79.21 146.75 81.75 C 147.42 84.29 148.17 87.19 148.75 91.00 C 149.33 94.81 149.60 102.29 150.25 104.62 C 150.90 106.96 147.25 104.94 152.62 105.00 C 158.00 105.06 177.38 105.25 182.50 105.00 C 187.62 104.75 182.79 106.06 183.38 103.50 C 183.96 100.94 185.10 93.25 186.00 89.62 C 186.90 86.00 188.29 83.98 188.75 81.75 C 189.21 79.52 189.10 77.92 188.75 76.25 C 188.40 74.58 187.56 73.08 186.62 71.75 C 185.69 70.42 184.48 69.38 183.12 68.25 C 181.77 67.12 180.73 66.21 178.50 65.00 C 176.27 63.79 172.12 61.98 169.75 61.00 C 167.38 60.02 166.58 59.77 164.25 59.12 C 161.92 58.48 158.73 57.48 155.75 57.12 C 152.77 56.77 148.60 56.73 146.38 57.00 C 144.15 57.27 143.42 57.94 142.38 58.75 Z" id="s-4-f-7"/>
</g>
<g id="s-5" clip-path="url(#c-s-5)">
<use href="#s-5-f-0"/>
<path d="M 437.88 60.75 C 437.73 58.06 439.54 60.94 437.12 60.00 C 434.71 59.06 426.58 55.96 423.38 55.12 C 420.17 54.29 423.04 54.06 417.88 55.00 C 412.71 55.94 405.79 58.15 392.38 60.75 C 378.96 63.35 360.40 66.92 337.38 70.62 C 314.35 74.33 269.23 80.58 254.25 83.00 C 239.27 85.42 248.85 84.60 247.50 85.12 C 246.15 85.65 246.40 85.69 246.12 86.12 C 245.85 86.56 245.35 86.81 245.88 87.75 C 246.40 88.69 247.98 90.58 249.25 91.75 C 250.52 92.92 251.77 93.75 253.50 94.75 C 255.23 95.75 257.00 96.75 259.62 97.75 C 262.25 98.75 266.62 100.08 269.25 100.75 C 271.88 101.42 273.27 101.56 275.38 101.75 C 277.48 101.94 276.83 102.67 281.88 101.88 C 286.92 101.08 294.23 98.98 305.62 97.00 C 317.02 95.02 334.27 92.00 350.25 90.00 C 366.23 88.00 386.96 86.17 401.50 85.00 C 416.04 83.83 431.42 84.48 437.50 83.00 C 443.58 81.52 437.94 79.83 438.00 76.12 C 438.06 72.42 438.02 63.44 437.88 60.75 Z" id="s-5-f-1"/>
<path d="M 389.88 61.62 C 389.67 58.73 391.73 60.62 388.75 61.12 C 385.77 61.62 381.75 62.85 372.00 64.62 C 362.25 66.40 349.88 68.69 330.25 71.75 C 310.62 74.81 268.04 80.77 254.25 83.00 C 240.46 85.23 248.85 84.60 247.50 85.12 C 246.15 85.65 246.40 85.69 246.12 86.12 C 245.85 86.56 245.35 86.81 245.88 87.75 C 246.40 88.69 247.98 90.58 249.25 91.75 C 250.52 92.92 251.77 93.75 253.50 94.75 C 255.23 95.75 257.00 96.75 259.62 97.75 C 262.25 98.75 266.62 100.08 269.25 100.75 C 271.88 101.42 273.27 101.56 275.38 101.75 C 277.48 101.94 276.83 102.67 281.88 101.88 C 286.92 101.08 299.62 98.15 305.62 97.00 C 311.62 95.85 315.44 95.33 317.88 95.00 C 320.31 94.67 316.10 95.67 320.25 95.00 C 324.40 94.33 331.31 92.48 342.75 91.00 C 354.19 89.52 381.06 87.00 388.88 86.12 C 396.69 85.25 389.44 87.02 389.62 85.75 C 389.81 84.48 389.96 82.52 390.00 78.50 C 390.04 74.48 390.08 64.52 389.88 61.62 Z" id="s-5-f-2"/>
<path d="M 342.00 70.50 C 341.94 67.02 342.08 69.94 341.50 69.88 C 340.92 69.81 345.71 68.98 338.50 70.12 C 331.29 71.27 312.29 74.60 298.25 76.75 C 284.21 78.90 262.71 81.60 254.25 83.00 C 245.79 84.40 248.85 84.60 247.50 85.12 C 246.15 85.65 246.40 85.69 246.12 86.12 C 245.85 86.56 245.35 86.81 245.88 87.75 C 246.40 88.69 247.40 90.27 249.25 91.75 C 251.10 93.23 254.38 95.31 257.00 96.62 C 259.62 97.94 261.94 98.77 265.00 99.62 C 268.06 100.48 272.17 101.42 275.38 101.75 C 278.58 102.08 279.21 102.42 284.25 101.62 C 289.29 100.83 296.50 98.62 305.62 97.00 C 314.75 95.38 332.96 92.92 339.00 91.88 C 345.04 90.83 341.38 94.31 341.88 90.75 C 342.38 87.19 342.06 73.98 342.00 70.50 Z" id="s-5-f-3"/>
<path d="M 293.88 99.00 C 294.10 95.60 294.00 82.90 294.00 79.38 C 294.00 75.85 293.98 78.21 293.88 77.88 C 293.77 77.54 299.98 76.52 293.38 77.38 C 286.77 78.23 261.90 81.71 254.25 83.00 C 246.60 84.29 248.88 84.56 247.50 85.12 C 246.12 85.69 246.27 85.94 246.00 86.38 C 245.73 86.81 245.75 87.27 245.88 87.75 C 246.00 88.23 246.19 88.58 246.75 89.25 C 247.31 89.92 248.12 90.83 249.25 91.75 C 250.38 92.67 251.77 93.75 253.50 94.75 C 255.23 95.75 257.08 96.77 259.62 97.75 C 262.17 98.73 266.12 99.96 268.75 100.62 C 271.38 101.29 273.19 101.54 275.38 101.75 C 277.56 101.96 279.00 102.21 281.88 101.88 C 284.75 101.54 290.62 100.23 292.62 99.75 C 294.62 99.27 293.65 102.40 293.88 99.00 Z" id="s-5-f-4"/>
</g>
<g id="s-6" clip-path="url(#c-s-6)">
<use href="#s-6-f-0"/>
<path d="M 355.75 101.75 C 354.58 100.29 351.83 97.52 349.88 95.88 C 347.92 94.23 345.12 92.73 344.00 91.88 C 342.88 91.02 343.79 90.96 343.12 90.75 C 342.46 90.54 340.88 90.52 340.00 90.62 C 339.12 90.73 339.00 91.19 337.88 91.38 C 336.75 91.56 334.25 91.58 333.25 91.75 C 332.25 91.92 332.77 92.23 331.88 92.38 C 330.98 92.52 328.88 92.46 327.88 92.62 C 326.88 92.79 326.88 93.21 325.88 93.38 C 324.88 93.54 323.02 93.42 321.88 93.62 C 320.73 93.83 319.35 92.62 319.00 94.62 C 318.65 96.62 319.79 102.65 319.75 105.62 C 319.71 108.60 319.58 109.25 318.75 112.50 C 317.92 115.75 316.42 120.81 314.75 125.12 C 313.08 129.44 309.54 136.10 308.75 138.38 C 307.96 140.65 306.50 138.65 310.00 138.75 C 313.50 138.85 326.29 139.04 329.75 139.00 C 333.21 138.96 329.10 140.31 330.75 138.50 C 332.40 136.69 336.21 132.46 339.62 128.12 C 343.04 123.79 348.46 116.02 351.25 112.50 C 354.04 108.98 355.44 108.31 356.38 107.00 C 357.31 105.69 356.98 105.50 356.88 104.62 C 356.77 103.75 356.92 103.21 355.75 101.75 Z" id="s-6-f-1"/>
</g>
<g id="s-7" clip-path="url(#c-s-7)">
<use href="#s-7-f-0"/>
<path d="M 267.25 159.00 C 265.06 159.17 265.06 159.73 264.38 160.12 C 263.69 160.52 263.38 160.90 263.12 161.38 C 262.88 161.85 262.75 162.33 262.88 163.00 C 263.00 163.67 262.73 163.60 263.88 165.38 C 265.02 167.15 268.48 171.56 269.75 173.62 C 271.02 175.69 270.83 175.56 271.50 177.75 C 272.17 179.94 273.21 183.65 273.75 186.75 C 274.29 189.85 274.58 190.58 274.75 196.38 C 274.92 202.17 274.92 212.67 274.75 221.50 C 274.58 230.33 274.23 241.35 273.75 249.38 C 273.27 257.40 272.71 263.10 271.88 269.62 C 271.04 276.15 269.90 283.04 268.75 288.50 C 267.60 293.96 265.56 299.96 265.00 302.38 C 264.44 304.79 261.00 302.92 265.38 303.00 C 269.75 303.08 286.83 303.21 291.25 302.88 C 295.67 302.54 291.46 305.02 291.88 301.00 C 292.29 296.98 293.23 291.46 293.75 278.75 C 294.27 266.04 294.62 235.06 295.00 224.75 C 295.38 214.44 295.96 225.25 296.00 216.88 C 296.04 208.50 296.25 183.25 295.25 174.50 C 294.25 165.75 291.21 166.42 290.00 164.38 C 288.79 162.33 289.31 162.98 288.00 162.25 C 286.69 161.52 283.88 160.52 282.12 160.00 C 280.38 159.48 279.98 159.29 277.50 159.12 C 275.02 158.96 269.44 158.83 267.25 159.00 Z" id="s-7-f-1"/>
<path d="M 266.62 159.12 C 264.50 159.25 265.33 159.50 264.75 159.88 C 264.17 160.25 263.42 160.73 263.12 161.38 C 262.83 162.02 262.21 162.23 263.00 163.75 C 263.79 165.27 266.46 168.17 267.88 170.50 C 269.29 172.83 270.52 175.04 271.50 177.75 C 272.48 180.46 273.21 183.65 273.75 186.75 C 274.29 189.85 274.58 190.58 274.75 196.38 C 274.92 202.17 274.98 211.88 274.75 221.50 C 274.52 231.12 273.52 248.56 273.38 254.12 C 273.23 259.69 273.56 254.73 273.88 254.88 C 274.19 255.02 271.94 255.00 275.25 255.00 C 278.56 255.00 290.56 255.06 293.75 254.88 C 296.94 254.69 294.17 258.90 294.38 253.88 C 294.58 248.85 294.73 230.92 295.00 224.75 C 295.27 218.58 295.96 225.25 296.00 216.88 C 296.04 208.50 296.25 183.25 295.25 174.50 C 294.25 165.75 291.25 166.44 290.00 164.38 C 288.75 162.31 289.06 162.85 287.75 162.12 C 286.44 161.40 283.83 160.50 282.12 160.00 C 280.42 159.50 280.08 159.27 277.50 159.12 C 274.92 158.98 268.75 159.00 266.62 159.12 Z" id="s-7-f-2"/>
<path d="M 264.75 159.88 C 264.06 160.27 263.40 160.67 263.12 161.38 C 262.85 162.08 262.02 162.08 263.12 164.12 C 264.23 166.17 268.15 170.65 269.75 173.62 C 271.35 176.60 272.06 179.67 272.75 182.00 C 273.44 184.33 273.50 183.92 273.88 187.62 C 274.25 191.33 274.71 201.02 275.00 204.25 C 275.29 207.48 272.19 206.56 275.62 207.00 C 279.06 207.44 292.27 210.65 295.62 206.88 C 298.98 203.10 295.81 189.77 295.75 184.38 C 295.69 178.98 296.21 177.83 295.25 174.50 C 294.29 171.17 291.12 166.35 290.00 164.38 C 288.88 162.40 289.23 163.17 288.50 162.62 C 287.77 162.08 287.46 161.71 285.62 161.12 C 283.79 160.54 280.56 159.48 277.50 159.12 C 274.44 158.77 269.38 158.88 267.25 159.00 C 265.12 159.12 265.44 159.48 264.75 159.88 Z" id="s-7-f-3"/>
</g>
<g id="s-8" clip-path="url(#c-s-8)">
<use href="#s-8-f-0"/>
<path d="M 288.62 163.25 C 288.21 163.56 288.50 163.79 288.62 164.00 C 288.75 164.21 288.38 162.69 289.38 164.50 C 290.38 166.31 293.54 172.98 294.62 174.88 C 295.71 176.77 294.40 175.75 295.88 175.88 C 297.35 176.00 300.92 175.85 303.50 175.62 C 306.08 175.40 307.60 175.17 311.38 174.50 C 315.15 173.83 318.90 173.21 326.12 171.62 C 333.35 170.04 348.15 166.44 354.75 165.00 C 361.35 163.56 360.85 163.67 365.75 163.00 C 370.65 162.33 379.71 161.29 384.12 161.00 C 388.54 160.71 390.25 161.04 392.25 161.25 C 394.25 161.46 395.12 161.88 396.12 162.25 C 397.12 162.62 397.62 163.00 398.25 163.50 C 398.88 164.00 399.46 164.60 399.88 165.25 C 400.29 165.90 400.44 166.10 400.75 167.38 C 401.06 168.65 401.40 170.08 401.75 172.88 C 402.10 175.67 402.54 179.44 402.88 184.12 C 403.21 188.81 403.56 195.19 403.75 201.00 C 403.94 206.81 403.67 210.69 404.00 219.00 C 404.33 227.31 405.46 238.58 405.75 250.88 C 406.04 263.17 406.06 283.40 405.75 292.75 C 405.44 302.10 404.17 301.62 403.88 307.00 C 403.58 312.38 403.81 321.31 404.00 325.00 C 404.19 328.69 404.46 327.58 405.00 329.12 C 405.54 330.67 405.96 332.00 407.25 334.25 C 408.54 336.50 411.62 341.17 412.75 342.62 C 413.88 344.08 411.50 342.98 414.00 343.00 C 416.50 343.02 424.79 343.83 427.75 342.75 C 430.71 341.67 430.77 338.31 431.75 336.50 C 432.73 334.69 432.98 333.77 433.62 331.88 C 434.27 329.98 435.10 327.50 435.62 325.12 C 436.15 322.75 436.56 322.48 436.75 317.62 C 436.94 312.77 436.90 301.81 436.75 296.00 C 436.60 290.19 436.15 289.54 435.88 282.75 C 435.60 275.96 435.25 268.35 435.12 255.25 C 435.00 242.15 435.00 214.98 435.12 204.12 C 435.25 193.27 435.56 193.88 435.88 190.12 C 436.19 186.38 435.85 185.75 437.00 181.62 C 438.15 177.50 441.79 168.79 442.75 165.38 C 443.71 161.96 442.92 162.17 442.75 161.12 C 442.58 160.08 442.67 160.17 441.75 159.12 C 440.83 158.08 439.10 156.23 437.25 154.88 C 435.40 153.52 434.54 152.96 430.62 151.00 C 426.71 149.04 417.48 144.77 413.75 143.12 C 410.02 141.48 409.67 141.50 408.25 141.12 C 406.83 140.75 411.40 139.62 405.25 140.88 C 399.10 142.12 381.27 146.48 371.38 148.62 C 361.48 150.77 355.06 152.06 345.88 153.75 C 336.69 155.44 324.02 157.60 316.25 158.75 C 308.48 159.90 302.60 160.12 299.25 160.62 C 295.90 161.12 297.48 161.50 296.12 161.75 C 294.77 162.00 292.38 161.88 291.12 162.12 C 289.88 162.38 289.04 162.94 288.62 163.25 Z" id="s-8-f-1"/>
<path d="M 288.62 163.25 C 288.21 163.56 288.50 163.79 288.62 164.00 C 288.75 164.21 288.38 162.69 289.38 164.50 C 290.38 166.31 293.54 172.98 294.62 174.88 C 295.71 176.77 294.40 175.75 295.88 175.88 C 297.35 176.00 300.21 175.98 303.50 175.62 C 306.79 175.27 307.08 175.52 315.62 173.75 C 324.17 171.98 345.12 166.96 354.75 165.00 C 364.38 163.04 368.48 162.67 373.38 162.00 C 378.27 161.33 381.33 161.17 384.12 161.00 C 386.92 160.83 388.21 160.83 390.12 161.00 C 392.04 161.17 394.27 161.58 395.62 162.00 C 396.98 162.42 397.54 162.96 398.25 163.50 C 398.96 164.04 399.46 164.60 399.88 165.25 C 400.29 165.90 400.42 165.96 400.75 167.38 C 401.08 168.79 401.52 170.96 401.88 173.75 C 402.23 176.54 402.56 179.58 402.88 184.12 C 403.19 188.67 403.56 195.19 403.75 201.00 C 403.94 206.81 403.67 210.69 404.00 219.00 C 404.33 227.31 405.44 238.38 405.75 250.88 C 406.06 263.38 405.56 286.71 405.88 294.00 C 406.19 301.29 402.94 294.46 407.62 294.62 C 412.31 294.79 429.25 294.96 434.00 295.00 C 438.75 295.04 435.69 294.98 436.12 294.88 C 436.56 294.77 436.79 300.98 436.62 294.38 C 436.46 287.77 435.38 270.29 435.12 255.25 C 434.88 240.21 435.00 214.98 435.12 204.12 C 435.25 193.27 435.56 193.88 435.88 190.12 C 436.19 186.38 435.85 185.75 437.00 181.62 C 438.15 177.50 441.83 168.92 442.75 165.38 C 443.67 161.83 443.00 161.79 442.50 160.38 C 442.00 158.96 441.10 158.10 439.75 156.88 C 438.40 155.65 437.62 154.81 434.38 153.00 C 431.12 151.19 424.60 147.98 420.25 146.00 C 415.90 144.02 410.75 141.98 408.25 141.12 C 405.75 140.27 411.40 139.62 405.25 140.88 C 399.10 142.12 381.27 146.48 371.38 148.62 C 361.48 150.77 355.06 152.06 345.88 153.75 C 336.69 155.44 324.02 157.60 316.25 158.75 C 308.48 159.90 302.60 160.12 299.25 160.62 C 295.90 161.12 297.48 161.50 296.12 161.75 C 294.77 162.00 292.38 161.88 291.12 162.12 C 289.88 162.38 289.04 162.94 288.62 163.25 Z" id="s-8-f-2"/>
<path d="M 435.00 246.50 C 436.48 240.42 434.83 220.12 435.00 210.50 C 435.17 200.88 435.67 193.56 436.00 188.75 C 436.33 183.94 436.04 184.90 437.00 181.62 C 437.96 178.35 440.79 171.83 441.75 169.12 C 442.71 166.42 442.56 166.56 442.75 165.38 C 442.94 164.19 442.92 162.83 442.88 162.00 C 442.83 161.17 442.90 161.10 442.50 160.38 C 442.10 159.65 441.85 158.85 440.50 157.62 C 439.15 156.40 438.83 155.42 434.38 153.00 C 429.92 150.58 418.10 145.10 413.75 143.12 C 409.40 141.15 409.67 141.50 408.25 141.12 C 406.83 140.75 411.40 139.62 405.25 140.88 C 399.10 142.12 381.27 146.48 371.38 148.62 C 361.48 150.77 355.06 152.06 345.88 153.75 C 336.69 155.44 324.02 157.60 316.25 158.75 C 308.48 159.90 302.60 160.12 299.25 160.62 C 295.90 161.12 297.48 161.50 296.12 161.75 C 294.77 162.00 292.38 161.88 291.12 162.12 C 289.88 162.38 289.04 162.94 288.62 163.25 C 288.21 163.56 288.50 163.79 288.62 164.00 C 288.75 164.21 288.38 162.69 289.38 164.50 C 290.38 166.31 293.54 172.98 294.62 174.88 C 295.71 176.77 294.38 175.75 295.88 175.88 C 297.38 176.00 299.42 176.15 303.62 175.62 C 307.83 175.10 313.42 174.35 321.12 172.75 C 328.83 171.15 341.17 167.79 349.88 166.00 C 358.58 164.21 367.67 162.83 373.38 162.00 C 379.08 161.17 381.33 161.17 384.12 161.00 C 386.92 160.83 388.21 160.83 390.12 161.00 C 392.04 161.17 394.35 161.65 395.62 162.00 C 396.90 162.35 397.04 162.58 397.75 163.12 C 398.46 163.67 399.38 164.54 399.88 165.25 C 400.38 165.96 400.27 164.52 400.75 167.38 C 401.23 170.23 401.98 169.27 402.75 182.38 C 403.52 195.48 404.83 235.27 405.38 246.00 C 405.92 256.73 405.60 246.58 406.00 246.75 C 406.40 246.92 404.40 246.96 407.75 247.00 C 411.10 247.04 421.58 247.08 426.12 247.00 C 430.67 246.92 433.52 252.58 435.00 246.50 Z" id="s-8-f-3"/>
<path d="M 442.88 162.00 C 442.83 161.17 442.90 161.10 442.50 160.38 C 442.10 159.65 441.85 158.85 440.50 157.62 C 439.15 156.40 438.83 155.42 434.38 153.00 C 429.92 150.58 418.10 145.10 413.75 143.12 C 409.40 141.15 409.67 141.50 408.25 141.12 C 406.83 140.75 411.40 139.62 405.25 140.88 C 399.10 142.12 381.27 146.48 371.38 148.62 C 361.48 150.77 356.10 151.92 345.88 153.75 C 335.65 155.58 316.73 158.65 310.00 159.62 C 303.27 160.60 306.56 159.50 305.50 159.62 C 304.44 159.75 304.77 160.19 303.62 160.38 C 302.48 160.56 299.88 160.52 298.62 160.75 C 297.38 160.98 297.27 161.54 296.12 161.75 C 294.98 161.96 292.92 161.81 291.75 162.00 C 290.58 162.19 289.65 162.54 289.12 162.88 C 288.60 163.21 288.58 163.73 288.62 164.00 C 288.67 164.27 288.38 162.69 289.38 164.50 C 290.38 166.31 293.54 172.98 294.62 174.88 C 295.71 176.77 294.40 175.75 295.88 175.88 C 297.35 176.00 300.21 175.98 303.50 175.62 C 306.79 175.27 307.90 175.35 315.62 173.75 C 323.35 172.15 341.52 167.79 349.88 166.00 C 358.23 164.21 360.04 163.83 365.75 163.00 C 371.46 162.17 379.56 161.27 384.12 161.00 C 388.69 160.73 391.17 161.19 393.12 161.38 C 395.08 161.56 395.02 161.77 395.88 162.12 C 396.73 162.48 397.58 162.98 398.25 163.50 C 398.92 164.02 399.46 164.60 399.88 165.25 C 400.29 165.90 400.33 165.19 400.75 167.38 C 401.17 169.56 401.85 173.15 402.38 178.38 C 402.90 183.60 398.77 195.31 403.88 198.75 C 408.98 202.19 427.75 199.04 433.00 199.00 C 438.25 198.96 434.71 201.40 435.38 198.50 C 436.04 195.60 435.94 186.52 437.00 181.62 C 438.06 176.73 440.79 171.83 441.75 169.12 C 442.71 166.42 442.56 166.56 442.75 165.38 C 442.94 164.19 442.92 162.83 442.88 162.00 Z" id="s-8-f-4"/>
<path d="M 429.00 150.38 C 426.46 149.06 417.21 144.67 413.75 143.12 C 410.29 141.58 409.67 141.50 408.25 141.12 C 406.83 140.75 412.27 139.44 405.25 140.88 C 398.23 142.31 376.02 147.60 366.12 149.75 C 356.23 151.90 355.23 152.10 345.88 153.75 C 336.52 155.40 316.73 158.65 310.00 159.62 C 303.27 160.60 306.56 159.50 305.50 159.62 C 304.44 159.75 304.85 160.21 303.62 160.38 C 302.40 160.54 299.38 160.40 298.12 160.62 C 296.88 160.85 297.38 161.48 296.12 161.75 C 294.88 162.02 291.85 162.02 290.62 162.25 C 289.40 162.48 289.08 162.83 288.75 163.12 C 288.42 163.42 288.52 163.77 288.62 164.00 C 288.73 164.23 288.38 162.69 289.38 164.50 C 290.38 166.31 293.60 173.00 294.62 174.88 C 295.65 176.75 294.02 175.62 295.50 175.75 C 296.98 175.88 299.29 176.12 303.50 175.62 C 307.71 175.12 313.12 174.33 320.75 172.75 C 328.38 171.17 341.75 167.75 349.25 166.12 C 356.75 164.50 358.92 163.92 365.75 163.00 C 372.58 162.08 379.90 162.50 390.25 160.62 C 400.60 158.75 421.42 153.35 427.88 151.75 C 434.33 150.15 428.81 151.23 429.00 151.00 C 429.19 150.77 431.54 151.69 429.00 150.38 Z" id="s-8-f-5"/>
<path d="M 384.88 146.12 C 384.79 143.67 384.94 145.77 384.50 145.75 C 384.06 145.73 385.31 145.33 382.25 146.00 C 379.19 146.67 375.00 147.96 366.12 149.75 C 357.25 151.54 338.35 155.10 329.00 156.75 C 319.65 158.40 313.92 159.15 310.00 159.62 C 306.08 160.10 306.56 159.50 305.50 159.62 C 304.44 159.75 304.85 160.21 303.62 160.38 C 302.40 160.54 299.38 160.40 298.12 160.62 C 296.88 160.85 297.38 161.48 296.12 161.75 C 294.88 162.02 291.88 162.00 290.62 162.25 C 289.38 162.50 288.96 162.96 288.62 163.25 C 288.29 163.54 288.50 163.79 288.62 164.00 C 288.75 164.21 288.38 162.69 289.38 164.50 C 290.38 166.31 293.54 172.98 294.62 174.88 C 295.71 176.77 294.38 175.75 295.88 175.88 C 297.38 176.00 299.35 176.17 303.62 175.62 C 307.90 175.08 312.21 174.54 321.50 172.62 C 330.79 170.71 350.73 165.90 359.38 164.12 C 368.02 162.35 369.21 162.52 373.38 162.00 C 377.54 161.48 382.44 161.25 384.38 161.00 C 386.31 160.75 384.92 162.98 385.00 160.50 C 385.08 158.02 384.96 148.58 384.88 146.12 Z" id="s-8-f-6"/>
<path d="M 336.88 155.75 C 336.73 153.67 340.60 154.60 336.12 155.25 C 331.65 155.90 315.10 158.90 310.00 159.62 C 304.90 160.35 306.56 159.50 305.50 159.62 C 304.44 159.75 304.85 160.21 303.62 160.38 C 302.40 160.54 299.38 160.40 298.12 160.62 C 296.88 160.85 297.38 161.48 296.12 161.75 C 294.88 162.02 291.88 162.00 290.62 162.25 C 289.38 162.50 288.96 162.96 288.62 163.25 C 288.29 163.54 288.50 163.79 288.62 164.00 C 288.75 164.21 288.71 163.29 289.38 164.50 C 290.04 165.71 291.60 169.38 292.62 171.25 C 293.65 173.12 293.69 175.02 295.50 175.75 C 297.31 176.48 300.85 175.83 303.50 175.62 C 306.15 175.42 307.71 175.15 311.38 174.50 C 315.04 173.85 321.29 172.69 325.50 171.75 C 329.71 170.81 334.71 169.54 336.62 168.88 C 338.54 168.21 336.96 169.94 337.00 167.75 C 337.04 165.56 337.02 157.83 336.88 155.75 Z" id="s-8-f-7"/>
</g>
<g id="s-9" clip-path="url(#c-s-9)">
<use href="#s-9-f-0"/>
<path d="M 390.75 199.75 C 390.62 197.31 391.40 199.38 390.25 199.12 C 389.10 198.88 386.38 198.44 383.88 198.25 C 381.38 198.06 378.29 197.71 375.25 198.00 C 372.21 198.29 369.31 199.04 365.62 200.00 C 361.94 200.96 357.83 202.48 353.12 203.75 C 348.42 205.02 345.44 205.96 337.38 207.62 C 329.31 209.29 311.25 212.67 304.75 213.75 C 298.25 214.83 299.92 213.85 298.38 214.12 C 296.83 214.40 296.12 214.42 295.50 215.38 C 294.88 216.33 294.75 218.33 294.62 219.88 C 294.50 221.42 294.19 223.48 294.75 224.62 C 295.31 225.77 296.31 226.10 298.00 226.75 C 299.69 227.40 301.29 228.17 304.88 228.50 C 308.46 228.83 310.19 229.88 319.50 228.75 C 328.81 227.62 350.50 223.71 360.75 221.75 C 371.00 219.79 376.10 218.06 381.00 217.00 C 385.90 215.94 388.50 215.73 390.12 215.38 C 391.75 215.02 390.60 215.15 390.75 214.88 C 390.90 214.60 391.00 216.27 391.00 213.75 C 391.00 211.23 390.88 202.19 390.75 199.75 Z" id="s-9-f-1"/>
<path d="M 342.88 206.62 C 342.69 203.75 345.46 205.54 341.88 206.25 C 338.29 206.96 327.56 209.62 321.38 210.88 C 315.19 212.12 308.48 213.23 304.75 213.75 C 301.02 214.27 300.48 213.81 299.00 214.00 C 297.52 214.19 296.60 213.90 295.88 214.88 C 295.15 215.85 294.79 218.19 294.62 219.88 C 294.46 221.56 294.31 223.85 294.88 225.00 C 295.44 226.15 296.38 226.17 298.00 226.75 C 299.62 227.33 301.54 228.15 304.62 228.50 C 307.71 228.85 312.69 229.02 316.50 228.88 C 320.31 228.73 323.17 228.29 327.50 227.62 C 331.83 226.96 339.92 225.56 342.50 224.88 C 345.08 224.19 342.94 226.54 343.00 223.50 C 343.06 220.46 343.06 209.50 342.88 206.62 Z" id="s-9-f-2"/>
</g>
<g id="s-10" clip-path="url(#c-s-10)">
<use href="#s-10-f-0"/>
<path d="M 389.88 248.62 C 389.77 246.17 390.38 248.23 389.38 248.00 C 388.38 247.77 386.23 247.42 383.88 247.25 C 381.52 247.08 383.58 245.42 375.25 247.00 C 366.92 248.58 343.29 254.67 333.88 256.75 C 324.46 258.83 325.35 258.48 318.75 259.50 C 312.15 260.52 298.46 262.25 294.25 262.88 C 290.04 263.50 293.62 261.46 293.50 263.25 C 293.38 265.04 293.10 271.52 293.50 273.62 C 293.90 275.73 294.27 275.21 295.88 275.88 C 297.48 276.54 299.52 277.31 303.12 277.62 C 306.73 277.94 308.08 278.90 317.50 277.75 C 326.92 276.60 349.04 272.71 359.62 270.75 C 370.21 268.79 376.06 267.02 381.00 266.00 C 385.94 264.98 387.77 264.96 389.25 264.62 C 390.73 264.29 389.75 264.31 389.88 264.00 C 390.00 263.69 390.00 265.31 390.00 262.75 C 390.00 260.19 389.98 251.08 389.88 248.62 Z" id="s-10-f-1"/>
<path d="M 341.88 255.50 C 341.65 252.62 343.77 254.58 340.62 255.12 C 337.48 255.67 330.73 257.46 323.00 258.75 C 315.27 260.04 299.17 262.12 294.25 262.88 C 289.33 263.62 293.60 261.40 293.50 263.25 C 293.40 265.10 293.33 271.96 293.62 274.00 C 293.92 276.04 294.67 275.10 295.25 275.50 C 295.83 275.90 295.83 276.02 297.12 276.38 C 298.42 276.73 300.08 277.38 303.00 277.62 C 305.92 277.88 310.88 278.04 314.62 277.88 C 318.38 277.71 321.00 277.31 325.50 276.62 C 330.00 275.94 338.88 274.46 341.62 273.75 C 344.38 273.04 341.96 275.42 342.00 272.38 C 342.04 269.33 342.10 258.38 341.88 255.50 Z" id="s-10-f-2"/>
</g>
<g id="s-11" clip-path="url(#c-s-11)">
<use href="#s-11-f-0"/>
<path d="M 385.88 301.75 C 385.75 298.48 386.50 301.12 385.25 301.00 C 384.00 300.88 382.69 300.40 378.38 301.00 C 374.06 301.60 365.79 303.54 359.38 304.62 C 352.96 305.71 351.29 306.12 339.88 307.50 C 328.46 308.88 299.25 310.81 290.88 312.88 C 282.50 314.94 289.85 317.29 289.62 319.88 C 289.40 322.46 289.19 326.73 289.50 328.38 C 289.81 330.02 290.62 329.38 291.50 329.75 C 292.38 330.12 292.58 330.42 294.75 330.62 C 296.92 330.83 300.69 331.12 304.50 331.00 C 308.31 330.88 313.60 330.35 317.62 329.88 C 321.65 329.40 317.38 329.31 328.62 328.12 C 339.88 326.94 375.58 323.75 385.12 322.75 C 394.67 321.75 385.73 322.48 385.88 322.12 C 386.02 321.77 386.00 324.02 386.00 320.62 C 386.00 317.23 386.00 305.02 385.88 301.75 Z" id="s-11-f-1"/>
<path d="M 337.38 308.00 C 336.79 307.81 336.85 307.71 334.25 308.00 C 331.65 308.29 328.98 308.94 321.75 309.75 C 314.52 310.56 296.23 311.19 290.88 312.88 C 285.52 314.56 289.85 317.27 289.62 319.88 C 289.40 322.48 289.25 326.88 289.50 328.50 C 289.75 330.12 290.25 329.27 291.12 329.62 C 292.00 329.98 292.56 330.40 294.75 330.62 C 296.94 330.85 297.15 331.52 304.25 331.00 C 311.35 330.48 331.75 328.42 337.38 327.50 C 343.00 326.58 337.94 328.56 338.00 325.50 C 338.06 322.44 337.85 312.04 337.75 309.12 C 337.65 306.21 337.96 308.19 337.38 308.00 Z" id="s-11-f-2"/>
</g>
<g id="s-12" clip-path="url(#c-s-12)">
<use href="#s-12-f-0"/>
<path d="M 341.00 342.38 C 340.12 341.27 338.81 339.94 337.50 338.88 C 336.19 337.81 335.50 337.15 333.12 336.00 C 330.75 334.85 325.83 332.90 323.25 332.00 C 320.67 331.10 318.75 331.00 317.62 330.62 C 316.50 330.25 318.02 329.92 316.50 329.75 C 314.98 329.58 310.90 329.48 308.50 329.62 C 306.10 329.77 303.40 328.44 302.12 330.62 C 300.85 332.81 301.25 340.10 300.88 342.75 C 300.50 345.40 300.94 344.10 299.88 346.50 C 298.81 348.90 296.69 353.33 294.50 357.12 C 292.31 360.92 289.73 365.02 286.75 369.25 C 283.77 373.48 281.54 376.62 276.62 382.50 C 271.71 388.38 262.31 398.98 257.25 404.50 C 252.19 410.02 249.90 412.10 246.25 415.62 C 242.60 419.15 237.00 423.90 235.38 425.62 C 233.75 427.35 233.79 425.98 236.50 426.00 C 239.21 426.02 247.65 426.62 251.62 425.75 C 255.60 424.88 255.75 423.75 260.38 420.75 C 265.00 417.75 273.94 411.65 279.38 407.75 C 284.81 403.85 288.73 400.88 293.00 397.38 C 297.27 393.88 299.54 391.96 305.00 386.75 C 310.46 381.54 319.81 371.50 325.75 366.12 C 331.69 360.75 337.83 356.98 340.62 354.50 C 343.42 352.02 342.12 352.17 342.50 351.25 C 342.88 350.33 342.83 349.96 342.88 349.00 C 342.92 348.04 343.06 346.60 342.75 345.50 C 342.44 344.40 341.88 343.48 341.00 342.38 Z" id="s-12-f-1"/>
<path d="M 341.75 343.38 C 340.88 342.27 338.96 340.10 337.50 338.88 C 336.04 337.65 335.38 337.15 333.00 336.00 C 330.62 334.85 325.81 332.90 323.25 332.00 C 320.69 331.10 318.75 331.00 317.62 330.62 C 316.50 330.25 318.02 329.92 316.50 329.75 C 314.98 329.58 310.90 329.48 308.50 329.62 C 306.10 329.77 303.42 328.31 302.12 330.62 C 300.83 332.94 301.33 340.38 300.75 343.50 C 300.17 346.62 300.17 346.27 298.62 349.38 C 297.08 352.48 294.52 357.42 291.50 362.12 C 288.48 366.83 281.96 374.98 280.50 377.62 C 279.04 380.27 277.17 377.98 282.75 378.00 C 288.33 378.02 306.44 380.08 314.00 377.75 C 321.56 375.42 323.69 367.88 328.12 364.00 C 332.56 360.12 338.19 356.77 340.62 354.50 C 343.06 352.23 342.40 351.88 342.75 350.38 C 343.10 348.88 342.92 346.67 342.75 345.50 C 342.58 344.33 342.62 344.48 341.75 343.38 Z" id="s-12-f-2"/>
</g>
<g id="s-13" clip-path="url(#c-s-13)">
<use href="#s-13-f-0"/>
<path d="M 365.75 350.00 C 364.77 350.10 365.15 350.33 365.00 350.75 C 364.85 351.17 364.62 351.60 364.88 352.50 C 365.12 353.40 363.90 353.02 366.50 356.12 C 369.10 359.23 375.35 365.02 380.50 371.12 C 385.65 377.23 392.15 385.71 397.38 392.75 C 402.60 399.79 409.33 409.88 411.88 413.38 C 414.42 416.88 412.44 414.19 412.62 413.75 C 412.81 413.31 412.98 418.38 413.00 410.75 C 413.02 403.12 412.98 375.29 412.75 368.00 C 412.52 360.71 414.10 368.29 411.62 367.00 C 409.15 365.71 402.88 362.58 397.88 360.25 C 392.88 357.92 386.12 354.69 381.62 353.00 C 377.12 351.31 373.52 350.62 370.88 350.12 C 368.23 349.62 366.73 349.90 365.75 350.00 Z" id="s-13-f-1"/>
</g>
</svg>