<?xml version="1.0" encoding="UTF-8"?>
<svg xmlns="http://www.w3.org/2000/svg" viewBox="0 0 500 500">
<defs>
<path d="M 220.88 140.50 C 220.52 139.62 220.52 139.08 218.38 138.00 C 216.23 136.92 212.27 134.98 208.00 134.00 C 203.73 133.02 196.71 132.46 192.75 132.12 C 188.79 131.79 187.96 131.40 184.25 132.00 C 180.54 132.60 174.46 134.77 170.50 135.75 C 166.54 136.73 166.90 136.21 160.50 137.88 C 154.10 139.54 140.17 143.77 132.12 145.75 C 124.08 147.73 120.35 148.38 112.25 149.75 C 104.15 151.12 88.75 153.10 83.50 154.00 C 78.25 154.90 81.65 154.60 80.75 155.12 C 79.85 155.65 78.75 156.48 78.12 157.12 C 77.50 157.77 77.21 158.29 77.00 159.00 C 76.79 159.71 76.75 160.77 76.88 161.38 C 77.00 161.98 77.12 162.04 77.75 162.62 C 78.38 163.21 79.52 164.19 80.62 164.88 C 81.73 165.56 82.40 165.96 84.38 166.75 C 86.35 167.54 90.02 168.96 92.50 169.62 C 94.98 170.29 95.98 170.58 99.25 170.75 C 102.52 170.92 108.02 170.98 112.12 170.62 C 116.23 170.27 120.17 169.40 123.88 168.62 C 127.58 167.85 131.90 166.46 134.38 166.00 C 136.85 165.54 134.12 166.73 138.75 165.88 C 143.38 165.02 157.94 161.83 162.12 160.88 C 166.31 159.92 161.48 160.65 163.88 160.12 C 166.27 159.60 172.83 158.60 176.50 157.75 C 180.17 156.90 180.60 156.19 185.88 155.00 C 191.15 153.81 203.73 151.56 208.12 150.62 C 212.52 149.69 210.71 150.00 212.25 149.38 C 213.79 148.75 216.00 147.90 217.38 146.88 C 218.75 145.85 219.92 144.31 220.50 143.25 C 221.08 142.19 221.23 141.38 220.88 140.50 Z" id="s-0-f-0"/>
<clipPath id="c-s-0"><use href="#s-0-f-0"/></clipPath>
<path d="M 132.00 46.12 C 129.62 46.44 129.12 47.08 128.12 47.88 C 127.12 48.67 126.38 49.92 126.00 50.88 C 125.62 51.83 125.69 52.52 125.88 53.62 C 126.06 54.73 126.00 55.29 127.12 57.50 C 128.25 59.71 131.52 64.79 132.62 66.88 C 133.73 68.96 133.40 68.54 133.75 70.00 C 134.10 71.46 134.40 63.58 134.75 75.62 C 135.10 87.67 135.75 130.60 135.88 142.25 C 136.00 153.90 135.52 142.54 135.50 145.50 C 135.48 148.46 135.65 157.60 135.75 160.00 C 135.85 162.40 136.00 159.77 136.12 159.88 C 136.25 159.98 136.46 160.35 136.50 160.62 C 136.54 160.90 136.48 161.33 136.38 161.50 C 136.27 161.67 135.79 160.83 135.88 161.62 C 135.96 162.42 136.69 158.08 136.88 166.25 C 137.06 174.42 136.79 203.17 137.00 210.62 C 137.21 218.08 137.65 211.06 138.12 211.00 C 138.60 210.94 136.21 211.10 139.88 210.25 C 143.54 209.40 156.29 206.81 160.12 205.88 C 163.96 204.94 162.08 212.23 162.88 204.62 C 163.67 197.02 164.33 169.10 164.88 160.25 C 165.42 151.40 165.94 155.96 166.12 151.50 C 166.31 147.04 165.69 144.85 166.00 133.50 C 166.31 122.15 167.33 94.02 168.00 83.38 C 168.67 72.73 169.40 72.62 170.00 69.62 C 170.60 66.62 171.31 66.96 171.62 65.38 C 171.94 63.79 171.98 61.40 171.88 60.12 C 171.77 58.85 171.62 58.67 171.00 57.75 C 170.38 56.83 169.54 55.75 168.12 54.62 C 166.71 53.50 165.65 52.25 162.50 51.00 C 159.35 49.75 152.60 47.96 149.25 47.12 C 145.90 46.29 145.25 46.17 142.38 46.00 C 139.50 45.83 134.38 45.81 132.00 46.12 Z" id="s-1-f-0"/>
<clipPath id="c-s-1"><use href="#s-1-f-0"/></clipPath>
<path d="M 232.88 209.00 C 232.58 207.92 231.62 205.60 231.00 204.50 C 230.38 203.40 230.15 203.25 229.12 202.38 C 228.10 201.50 226.52 200.10 224.88 199.25 C 223.23 198.40 221.02 197.77 219.25 197.25 C 217.48 196.73 216.42 196.33 214.25 196.12 C 212.08 195.92 214.69 194.56 206.25 196.00 C 197.81 197.44 171.25 203.31 163.62 204.75 C 156.00 206.19 161.27 204.48 160.50 204.62 C 159.73 204.77 159.69 205.46 159.00 205.62 C 158.31 205.79 157.79 205.33 156.38 205.62 C 154.96 205.92 151.98 207.04 150.50 207.38 C 149.02 207.71 148.25 207.42 147.50 207.62 C 146.75 207.83 146.69 208.46 146.00 208.62 C 145.31 208.79 144.08 208.50 143.38 208.62 C 142.67 208.75 142.46 209.21 141.75 209.38 C 141.04 209.54 140.52 209.25 139.12 209.62 C 137.73 210.00 140.17 210.12 133.38 211.62 C 126.58 213.12 112.56 215.94 98.38 218.62 C 84.19 221.31 60.73 225.62 48.25 227.75 C 35.77 229.88 28.33 230.52 23.50 231.38 C 18.67 232.23 20.19 232.35 19.25 232.88 C 18.31 233.40 18.10 234.00 17.88 234.50 C 17.65 235.00 17.69 235.21 17.88 235.88 C 18.06 236.54 18.44 237.62 19.00 238.50 C 19.56 239.38 20.10 240.08 21.25 241.12 C 22.40 242.17 24.52 243.81 25.88 244.75 C 27.23 245.69 27.29 245.79 29.38 246.75 C 31.46 247.71 35.73 249.52 38.38 250.50 C 41.02 251.48 42.88 252.27 45.25 252.62 C 47.62 252.98 50.15 252.96 52.62 252.62 C 55.10 252.29 56.81 251.73 60.12 250.62 C 63.44 249.52 65.42 248.10 72.50 246.00 C 79.58 243.90 87.29 241.77 102.62 238.00 C 117.96 234.23 149.21 226.71 164.50 223.38 C 179.79 220.04 183.98 219.50 194.38 218.00 C 204.77 216.50 220.71 215.25 226.88 214.38 C 233.04 213.50 230.40 213.31 231.38 212.75 C 232.35 212.19 232.50 211.62 232.75 211.00 C 233.00 210.38 233.17 210.08 232.88 209.00 Z" id="s-2-f-0"/>
<clipPath id="c-s-2"><use href="#s-2-f-0"/></clipPath>
<path d="M 159.62 223.62 C 158.92 223.79 158.71 224.46 158.00 224.62 C 157.29 224.79 156.79 224.33 155.38 224.62 C 153.96 224.92 150.98 226.04 149.50 226.38 C 148.02 226.71 147.25 226.42 146.50 226.62 C 145.75 226.83 145.69 227.46 145.00 227.62 C 144.31 227.79 143.08 227.50 142.38 227.62 C 141.67 227.75 141.54 228.19 140.75 228.38 C 139.96 228.56 138.44 228.52 137.62 228.75 C 136.81 228.98 136.17 229.44 135.88 229.75 C 135.58 230.06 135.42 229.71 135.88 230.62 C 136.33 231.54 137.81 233.15 138.62 235.25 C 139.44 237.35 140.04 228.38 140.75 243.25 C 141.46 258.12 142.31 310.73 142.88 324.50 C 143.44 338.27 140.88 324.15 144.12 325.88 C 147.38 327.60 159.25 333.48 162.38 334.88 C 165.50 336.27 162.69 335.31 162.88 334.25 C 163.06 333.19 163.00 335.85 163.50 328.50 C 164.00 321.15 165.31 297.79 165.88 290.12 C 166.44 282.46 166.50 289.33 166.88 282.50 C 167.25 275.67 167.77 256.19 168.12 249.12 C 168.48 242.06 168.73 242.08 169.00 240.12 C 169.27 238.17 169.65 238.98 169.75 237.38 C 169.85 235.77 169.79 231.88 169.62 230.50 C 169.46 229.12 169.44 229.90 168.75 229.12 C 168.06 228.35 166.42 226.60 165.50 225.88 C 164.58 225.15 163.79 225.12 163.25 224.75 C 162.71 224.38 162.85 223.81 162.25 223.62 C 161.65 223.44 160.33 223.46 159.62 223.62 Z" id="s-3-f-0"/>
<clipPath id="c-s-3"><use href="#s-3-f-0"/></clipPath>
<path d="M 222.75 278.50 C 221.98 277.27 219.88 275.27 218.12 274.00 C 216.38 272.73 214.85 271.85 212.25 270.88 C 209.65 269.90 204.94 268.58 202.50 268.12 C 200.06 267.67 203.58 266.33 197.62 268.12 C 191.67 269.92 172.08 276.21 166.75 278.88 C 161.42 281.54 165.83 282.40 165.62 284.12 C 165.42 285.85 165.48 288.29 165.50 289.25 C 165.52 290.21 165.38 289.65 165.75 289.88 C 166.12 290.10 166.33 290.31 167.75 290.62 C 169.17 290.94 171.29 291.58 174.25 291.75 C 177.21 291.92 182.65 291.92 185.50 291.62 C 188.35 291.33 186.98 290.83 191.38 290.00 C 195.77 289.17 207.38 287.48 211.88 286.62 C 216.38 285.77 216.96 285.33 218.38 284.88 C 219.79 284.42 219.65 284.46 220.38 283.88 C 221.10 283.29 222.35 282.27 222.75 281.38 C 223.15 280.48 223.52 279.73 222.75 278.50 Z" id="s-4-f-0"/>
<clipPath id="c-s-4"><use href="#s-4-f-0"/></clipPath>
<path d="M 100.75 268.00 C 97.71 266.08 96.27 265.67 94.62 265.00 C 92.98 264.33 92.31 264.15 90.88 264.00 C 89.44 263.85 87.12 263.83 86.00 264.12 C 84.88 264.42 84.62 265.02 84.12 265.75 C 83.62 266.48 83.23 266.77 83.00 268.50 C 82.77 270.23 83.00 273.06 82.75 276.12 C 82.50 279.19 82.17 283.04 81.50 286.88 C 80.83 290.71 79.71 295.58 78.75 299.12 C 77.79 302.67 77.94 302.52 75.75 308.12 C 73.56 313.73 69.29 324.52 65.62 332.75 C 61.96 340.98 57.06 351.04 53.75 357.50 C 50.44 363.96 49.79 365.02 45.75 371.50 C 41.71 377.98 34.08 389.83 29.50 396.38 C 24.92 402.92 20.17 408.23 18.25 410.75 C 16.33 413.27 17.98 411.31 18.00 411.50 C 18.02 411.69 17.71 411.83 18.38 411.88 C 19.04 411.92 20.31 412.27 22.00 411.75 C 23.69 411.23 26.17 410.08 28.50 408.75 C 30.83 407.42 33.10 405.92 36.00 403.75 C 38.90 401.58 43.23 398.02 45.88 395.75 C 48.52 393.48 48.92 393.17 51.88 390.12 C 54.83 387.08 58.98 383.12 63.62 377.50 C 68.27 371.88 75.77 361.83 79.75 356.38 C 83.73 350.92 83.83 350.75 87.50 344.75 C 91.17 338.75 98.31 326.75 101.75 320.38 C 105.19 314.00 106.23 310.12 108.12 306.50 C 110.02 302.88 111.35 301.10 113.12 298.62 C 114.90 296.15 117.62 293.23 118.75 291.62 C 119.88 290.02 119.71 290.02 119.88 289.00 C 120.04 287.98 120.10 286.71 119.75 285.50 C 119.40 284.29 118.90 283.25 117.75 281.75 C 116.60 280.25 115.71 278.79 112.88 276.50 C 110.04 274.21 103.79 269.92 100.75 268.00 Z" id="s-5-f-0"/>
<clipPath id="c-s-5"><use href="#s-5-f-0"/></clipPath>
<path d="M 102.62 317.00 C 102.38 318.17 100.06 316.29 103.88 318.62 C 107.69 320.96 117.77 326.40 125.50 331.00 C 133.23 335.60 142.83 341.54 150.25 346.25 C 157.67 350.96 164.46 355.48 170.00 359.25 C 175.54 363.02 174.44 362.96 183.50 368.88 C 192.56 374.79 212.00 387.10 224.38 394.75 C 236.75 402.40 247.73 408.92 257.75 414.75 C 267.77 420.58 276.52 425.44 284.50 429.75 C 292.48 434.06 300.25 437.96 305.62 440.62 C 311.00 443.29 312.58 444.06 316.75 445.75 C 320.92 447.44 326.29 449.44 330.62 450.75 C 334.96 452.06 339.29 452.96 342.75 453.62 C 346.21 454.29 347.58 454.56 351.38 454.75 C 355.17 454.94 361.40 454.94 365.50 454.75 C 369.60 454.56 371.00 454.31 376.00 453.62 C 381.00 452.94 386.94 452.21 395.50 450.62 C 404.06 449.04 414.29 446.60 427.38 444.12 C 440.46 441.65 465.31 437.48 474.00 435.75 C 482.69 434.02 478.35 434.35 479.50 433.75 C 480.65 433.15 480.67 432.54 480.88 432.12 C 481.08 431.71 481.06 431.60 480.75 431.25 C 480.44 430.90 481.10 430.71 479.00 430.00 C 476.90 429.29 472.77 427.98 468.12 427.00 C 463.48 426.02 462.69 425.83 451.12 424.12 C 439.56 422.42 414.27 419.15 398.75 416.75 C 383.23 414.35 369.73 411.94 358.00 409.75 C 346.27 407.56 337.75 405.83 328.38 403.62 C 319.00 401.42 308.12 398.33 301.75 396.50 C 295.38 394.67 295.04 394.44 290.12 392.62 C 285.21 390.81 282.44 389.96 272.25 385.62 C 262.06 381.29 247.23 375.10 229.00 366.62 C 210.77 358.15 174.00 340.21 162.88 334.75 C 151.75 329.29 162.40 333.98 162.25 333.88 C 162.10 333.77 162.38 334.31 162.00 334.12 C 161.62 333.94 161.94 333.73 160.00 332.75 C 158.06 331.77 152.06 329.10 150.38 328.25 C 148.69 327.40 150.88 328.12 149.88 327.62 C 148.88 327.12 145.33 325.73 144.38 325.25 C 143.42 324.77 144.50 324.88 144.12 324.75 C 143.75 324.62 143.77 325.19 142.12 324.50 C 140.48 323.81 137.77 322.52 134.25 320.62 C 130.73 318.73 125.29 315.42 121.00 313.12 C 116.71 310.83 110.71 307.92 108.50 306.88 C 106.29 305.83 108.04 306.73 107.75 306.88 C 107.46 307.02 107.15 306.96 106.75 307.75 C 106.35 308.54 106.06 310.08 105.38 311.62 C 104.69 313.17 102.88 315.83 102.62 317.00 Z" id="s-6-f-0"/>
<clipPath id="c-s-6"><use href="#s-6-f-0"/></clipPath>
<path d="M 290.12 93.12 C 288.54 92.44 288.02 92.19 286.50 92.00 C 284.98 91.81 282.35 91.79 281.00 92.00 C 279.65 92.21 279.19 92.50 278.38 93.25 C 277.56 94.00 276.52 95.42 276.12 96.50 C 275.73 97.58 275.73 97.44 276.00 99.75 C 276.27 102.06 277.48 107.71 277.75 110.38 C 278.02 113.04 277.79 113.81 277.62 115.75 C 277.46 117.69 277.42 118.90 276.75 122.00 C 276.08 125.10 275.12 129.69 273.62 134.38 C 272.12 139.06 269.73 145.33 267.75 150.12 C 265.77 154.92 264.08 158.42 261.75 163.12 C 259.42 167.83 256.54 173.33 253.75 178.38 C 250.96 183.42 246.44 190.67 245.00 193.38 C 243.56 196.08 244.88 194.25 245.12 194.62 C 245.38 195.00 246.02 195.44 246.50 195.62 C 246.98 195.81 247.42 195.88 248.00 195.75 C 248.58 195.62 248.73 195.69 250.00 194.88 C 251.27 194.06 253.17 193.00 255.62 190.88 C 258.08 188.75 262.23 184.75 264.75 182.12 C 267.27 179.50 267.54 179.29 270.75 175.12 C 273.96 170.96 280.98 161.40 284.00 157.12 C 287.02 152.85 285.54 155.29 288.88 149.50 C 292.21 143.71 300.38 128.40 304.00 122.38 C 307.62 116.35 309.52 115.52 310.62 113.38 C 311.73 111.23 310.94 110.71 310.62 109.50 C 310.31 108.29 310.46 107.88 308.75 106.12 C 307.04 104.38 302.50 100.67 300.38 99.00 C 298.25 97.33 297.71 97.10 296.00 96.12 C 294.29 95.15 291.71 93.81 290.12 93.12 Z" id="s-7-f-0"/>
<clipPath id="c-s-7"><use href="#s-7-f-0"/></clipPath>
<path d="M 410.75 137.25 C 410.42 136.21 409.83 135.27 408.62 134.25 C 407.42 133.23 406.06 132.15 403.50 131.12 C 400.94 130.10 396.08 128.62 393.25 128.12 C 390.42 127.62 388.12 127.88 386.50 128.12 C 384.88 128.38 385.12 129.02 383.50 129.62 C 381.88 130.23 381.27 130.58 376.75 131.75 C 372.23 132.92 361.17 135.60 356.38 136.62 C 351.58 137.65 353.71 136.69 348.00 137.88 C 342.29 139.06 329.31 142.27 322.12 143.75 C 314.94 145.23 310.38 145.92 304.88 146.75 C 299.38 147.58 292.00 148.25 289.12 148.75 C 286.25 149.25 288.88 147.98 287.62 149.75 C 286.38 151.52 282.38 157.56 281.62 159.38 C 280.88 161.19 282.48 160.27 283.12 160.62 C 283.77 160.98 284.38 161.21 285.50 161.50 C 286.62 161.79 286.94 162.15 289.88 162.38 C 292.81 162.60 299.83 162.85 303.12 162.88 C 306.42 162.90 305.85 162.98 309.62 162.50 C 313.40 162.02 322.38 160.44 325.75 160.00 C 329.12 159.56 326.46 160.25 329.88 159.88 C 333.29 159.50 340.83 158.73 346.25 157.75 C 351.67 156.77 355.56 155.35 362.38 154.00 C 369.19 152.65 381.17 150.83 387.12 149.62 C 393.08 148.42 394.56 147.90 398.12 146.75 C 401.69 145.60 406.42 143.79 408.50 142.75 C 410.58 141.71 410.25 141.42 410.62 140.50 C 411.00 139.58 411.08 138.29 410.75 137.25 Z" id="s-8-f-0"/>
<clipPath id="c-s-8"><use href="#s-8-f-0"/></clipPath>
<path d="M 445.88 211.12 C 445.60 210.33 444.96 209.04 444.12 208.00 C 443.29 206.96 443.15 206.54 440.88 204.88 C 438.60 203.21 434.46 199.79 430.50 198.00 C 426.54 196.21 420.42 194.79 417.12 194.12 C 413.83 193.46 418.48 192.77 410.75 194.00 C 403.02 195.23 380.90 199.71 370.75 201.50 C 360.60 203.29 354.04 204.19 349.88 204.75 C 345.71 205.31 349.02 204.52 345.75 204.88 C 342.48 205.23 336.56 205.90 330.25 206.88 C 323.94 207.85 315.12 209.60 307.88 210.75 C 300.62 211.90 297.44 212.38 286.75 213.75 C 276.06 215.12 251.81 217.79 243.75 219.00 C 235.69 220.21 239.46 220.48 238.38 221.00 C 237.29 221.52 237.50 221.71 237.25 222.12 C 237.00 222.54 236.75 222.92 236.88 223.50 C 237.00 224.08 237.42 224.90 238.00 225.62 C 238.58 226.35 238.52 226.71 240.38 227.88 C 242.23 229.04 246.19 231.31 249.12 232.62 C 252.06 233.94 255.56 235.06 258.00 235.75 C 260.44 236.44 261.96 236.56 263.75 236.75 C 265.54 236.94 259.98 238.33 268.75 236.88 C 277.52 235.42 303.94 230.00 316.38 228.00 C 328.81 226.00 338.06 225.56 343.38 224.88 C 348.69 224.19 339.69 224.85 348.25 223.88 C 356.81 222.90 379.71 220.21 394.75 219.00 C 409.79 217.79 430.33 217.31 438.50 216.62 C 446.67 215.94 442.54 215.52 443.75 214.88 C 444.96 214.23 445.40 213.38 445.75 212.75 C 446.10 212.12 446.15 211.92 445.88 211.12 Z" id="s-9-f-0"/>
<clipPath id="c-s-9"><use href="#s-9-f-0"/></clipPath>
<path d="M 325.25 43.88 C 323.73 43.88 323.25 43.83 322.25 44.00 C 321.25 44.17 320.10 44.48 319.25 44.88 C 318.40 45.27 317.52 45.96 317.12 46.38 C 316.73 46.79 316.81 46.33 316.88 47.38 C 316.94 48.42 316.69 50.44 317.50 52.62 C 318.31 54.81 320.73 58.15 321.75 60.50 C 322.77 62.85 322.96 63.06 323.62 66.75 C 324.29 70.44 325.23 75.83 325.75 82.62 C 326.27 89.42 326.62 94.71 326.75 107.50 C 326.88 120.29 326.48 150.04 326.50 159.38 C 326.52 168.71 326.98 155.56 326.88 163.50 C 326.77 171.44 326.25 196.77 325.88 207.00 C 325.50 217.23 324.73 221.50 324.62 224.88 C 324.52 228.25 325.23 220.71 325.25 227.25 C 325.27 233.79 325.04 253.54 324.75 264.12 C 324.46 274.71 324.00 282.60 323.50 290.75 C 323.00 298.90 322.54 305.56 321.75 313.00 C 320.96 320.44 319.85 329.31 318.75 335.38 C 317.65 341.44 315.77 346.17 315.12 349.38 C 314.48 352.58 314.88 352.94 314.88 354.62 C 314.88 356.31 314.92 357.81 315.12 359.50 C 315.33 361.19 315.12 361.19 316.12 364.75 C 317.12 368.31 319.77 377.21 321.12 380.88 C 322.48 384.54 323.00 384.77 324.25 386.75 C 325.50 388.73 327.42 391.42 328.62 392.75 C 329.83 394.08 330.65 394.40 331.50 394.75 C 332.35 395.10 333.00 395.00 333.75 394.88 C 334.50 394.75 335.17 394.54 336.00 394.00 C 336.83 393.46 337.81 392.65 338.75 391.62 C 339.69 390.60 340.65 389.35 341.62 387.88 C 342.60 386.40 343.62 384.88 344.62 382.75 C 345.62 380.62 346.77 377.60 347.62 375.12 C 348.48 372.65 349.08 370.94 349.75 367.88 C 350.42 364.81 351.29 361.92 351.62 356.75 C 351.96 351.58 352.19 345.56 351.75 336.88 C 351.31 328.19 349.65 315.65 349.00 304.62 C 348.35 293.60 348.06 284.12 347.88 270.75 C 347.69 257.38 347.67 233.46 347.88 224.38 C 348.08 215.29 348.92 223.44 349.12 216.25 C 349.33 209.06 349.00 191.08 349.12 181.25 C 349.25 171.42 349.69 161.38 349.88 157.25 C 350.06 153.12 350.23 160.12 350.25 156.50 C 350.27 152.88 349.71 144.19 350.00 135.50 C 350.29 126.81 351.33 112.42 352.00 104.38 C 352.67 96.33 353.33 91.79 354.00 87.25 C 354.67 82.71 355.08 80.44 356.00 77.12 C 356.92 73.81 358.85 69.94 359.50 67.38 C 360.15 64.81 360.00 63.25 359.88 61.75 C 359.75 60.25 359.56 59.62 358.75 58.38 C 357.94 57.12 356.10 55.31 355.00 54.25 C 353.90 53.19 353.42 52.83 352.12 52.00 C 350.83 51.17 349.21 50.21 347.25 49.25 C 345.29 48.29 343.02 47.12 340.38 46.25 C 337.73 45.38 333.90 44.40 331.38 44.00 C 328.85 43.60 326.77 43.88 325.25 43.88 Z" id="s-10-f-0"/>
<clipPath id="c-s-10"><use href="#s-10-f-0"/></clipPath>
<path d="M 326.00 208.50 C 325.85 208.60 325.04 208.65 324.75 209.00 C 324.46 209.35 324.42 210.33 324.25 210.62 C 324.08 210.92 323.88 210.46 323.75 210.75 C 323.62 211.04 323.69 211.96 323.50 212.38 C 323.31 212.79 322.81 212.85 322.62 213.25 C 322.44 213.65 322.54 214.40 322.38 214.75 C 322.21 215.10 321.79 215.02 321.62 215.38 C 321.46 215.73 321.71 216.12 321.38 216.88 C 321.04 217.62 319.94 219.12 319.62 219.88 C 319.31 220.62 319.67 220.98 319.50 221.38 C 319.33 221.77 318.98 221.50 318.62 222.25 C 318.27 223.00 317.71 225.15 317.38 225.88 C 317.04 226.60 316.75 226.17 316.62 226.62 C 316.50 227.08 316.77 227.77 316.62 228.62 C 316.48 229.48 316.42 229.98 315.75 231.75 C 315.08 233.52 314.92 235.17 312.62 239.25 C 310.33 243.33 306.19 249.96 302.00 256.25 C 297.81 262.54 291.42 271.67 287.50 277.00 C 283.58 282.33 282.35 283.96 278.50 288.25 C 274.65 292.54 270.77 296.62 264.38 302.75 C 257.98 308.88 246.58 319.29 240.12 325.00 C 233.67 330.71 228.17 334.60 225.62 337.00 C 223.08 339.40 224.85 338.75 224.88 339.38 C 224.90 340.00 225.25 340.52 225.75 340.75 C 226.25 340.98 226.44 341.12 227.88 340.75 C 229.31 340.38 230.83 339.88 234.38 338.50 C 237.92 337.12 244.79 334.46 249.12 332.50 C 253.46 330.54 256.33 329.04 260.38 326.75 C 264.42 324.46 269.62 321.29 273.38 318.75 C 277.12 316.21 279.94 313.92 282.88 311.50 C 285.81 309.08 288.17 307.02 291.00 304.25 C 293.83 301.48 296.46 298.81 299.88 294.88 C 303.29 290.94 308.33 284.71 311.50 280.62 C 314.67 276.54 316.77 273.46 318.88 270.38 C 320.98 267.29 323.08 263.65 324.12 262.12 C 325.17 260.60 324.81 264.62 325.12 261.25 C 325.44 257.88 325.81 250.33 326.00 241.88 C 326.19 233.42 326.31 216.08 326.25 210.50 C 326.19 204.92 325.67 208.71 325.62 208.38 C 325.58 208.04 326.15 208.40 326.00 208.50 Z" id="s-11-f-0"/>
<clipPath id="c-s-11"><use href="#s-11-f-0"/></clipPath>
<path d="M 347.88 251.12 C 347.69 251.27 347.52 249.65 347.50 252.00 C 347.48 254.35 343.62 259.02 347.75 265.25 C 351.88 271.48 365.31 282.38 372.25 289.38 C 379.19 296.38 383.33 300.73 389.38 307.25 C 395.42 313.77 402.12 321.02 408.50 328.50 C 414.88 335.98 423.54 347.44 427.62 352.12 C 431.71 356.81 431.54 355.67 433.00 356.62 C 434.46 357.58 435.04 357.71 436.38 357.88 C 437.71 358.04 439.83 357.81 441.00 357.62 C 442.17 357.44 442.71 357.12 443.38 356.75 C 444.04 356.38 444.29 356.15 445.00 355.38 C 445.71 354.60 447.00 353.12 447.62 352.12 C 448.25 351.12 448.38 351.02 448.75 349.38 C 449.12 347.73 449.75 344.60 449.88 342.25 C 450.00 339.90 449.88 337.33 449.50 335.25 C 449.12 333.17 448.25 331.23 447.62 329.75 C 447.00 328.27 447.00 328.21 445.75 326.38 C 444.50 324.54 441.81 320.83 440.12 318.75 C 438.44 316.67 437.79 316.06 435.62 313.88 C 433.46 311.69 429.73 308.02 427.12 305.62 C 424.52 303.23 424.67 303.12 420.00 299.50 C 415.33 295.88 408.40 290.31 399.12 283.88 C 389.85 277.44 372.79 266.33 364.38 260.88 C 355.96 255.42 351.38 252.75 348.62 251.12 C 345.88 249.50 348.06 250.98 347.88 251.12 Z" id="s-12-f-0"/>
<clipPath id="c-s-12"><use href="#s-12-f-0"/></clipPath>
</defs>
<g id="s-0" clip-path="url(#c-s-0)">
<use href="#s-0-f-0"/>
<path d="M 172.75 135.50 C 172.56 131.96 172.94 134.92 171.88 135.12 C 170.81 135.33 167.62 136.46 166.38 136.75 C 165.12 137.04 169.50 135.52 164.38 136.88 C 159.25 138.23 142.56 143.06 135.62 144.88 C 128.69 146.69 127.65 146.77 122.75 147.75 C 117.85 148.73 112.79 149.71 106.25 150.75 C 99.71 151.79 87.75 153.27 83.50 154.00 C 79.25 154.73 81.65 154.60 80.75 155.12 C 79.85 155.65 78.75 156.48 78.12 157.12 C 77.50 157.77 77.21 158.29 77.00 159.00 C 76.79 159.71 76.75 160.77 76.88 161.38 C 77.00 161.98 77.12 162.04 77.75 162.62 C 78.38 163.21 78.67 163.85 80.62 164.88 C 82.58 165.90 86.67 167.79 89.50 168.75 C 92.33 169.71 94.54 170.27 97.62 170.62 C 100.71 170.98 104.58 171.02 108.00 170.88 C 111.42 170.73 113.73 170.56 118.12 169.75 C 122.52 168.94 131.04 166.62 134.38 166.00 C 137.71 165.38 133.50 166.85 138.12 166.00 C 142.75 165.15 157.83 161.85 162.12 160.88 C 166.42 159.90 162.17 160.50 163.88 160.12 C 165.58 159.75 170.85 159.25 172.38 158.62 C 173.90 158.00 172.94 160.23 173.00 156.38 C 173.06 152.52 172.94 139.04 172.75 135.50 Z" id="s-0-f-1"/>
<path d="M 124.88 147.75 C 124.73 144.54 127.23 146.75 124.12 147.25 C 121.02 147.75 113.02 149.62 106.25 150.75 C 99.48 151.88 87.75 153.27 83.50 154.00 C 79.25 154.73 81.65 154.60 80.75 155.12 C 79.85 155.65 78.75 156.48 78.12 157.12 C 77.50 157.77 77.21 158.29 77.00 159.00 C 76.79 159.71 76.46 160.52 76.88 161.38 C 77.29 162.23 78.25 163.23 79.50 164.12 C 80.75 165.02 82.71 165.98 84.38 166.75 C 86.04 167.52 87.29 168.10 89.50 168.75 C 91.71 169.40 94.10 170.29 97.62 170.62 C 101.15 170.96 106.23 171.08 110.62 170.75 C 115.02 170.42 121.65 169.06 124.00 168.62 C 126.35 168.19 124.58 168.48 124.75 168.12 C 124.92 167.77 124.98 169.90 125.00 166.50 C 125.02 163.10 125.02 150.96 124.88 147.75 Z" id="s-0-f-2"/>
</g>
<g id="s-1" clip-path="url(#c-s-1)">
<use href="#s-1-f-0"/>
<path d="M 132.00 46.12 C 129.81 46.31 130.04 46.69 129.25 47.12 C 128.46 47.56 127.79 48.12 127.25 48.75 C 126.71 49.38 126.23 50.06 126.00 50.88 C 125.77 51.69 125.69 52.52 125.88 53.62 C 126.06 54.73 126.00 55.29 127.12 57.50 C 128.25 59.71 131.52 64.79 132.62 66.88 C 133.73 68.96 133.40 68.54 133.75 70.00 C 134.10 71.46 134.40 63.58 134.75 75.62 C 135.10 87.67 135.75 130.60 135.88 142.25 C 136.00 153.90 135.52 142.54 135.50 145.50 C 135.48 148.46 135.65 157.60 135.75 160.00 C 135.85 162.40 136.00 159.77 136.12 159.88 C 136.25 159.98 136.46 160.35 136.50 160.62 C 136.54 160.90 136.48 161.33 136.38 161.50 C 136.27 161.67 135.79 160.83 135.88 161.62 C 135.96 162.42 136.69 161.58 136.88 166.25 C 137.06 170.92 136.94 185.67 137.00 189.62 C 137.06 193.58 132.90 189.96 137.25 190.00 C 141.60 190.04 158.71 190.02 163.12 189.88 C 167.54 189.73 163.46 194.06 163.75 189.12 C 164.04 184.19 164.48 166.52 164.88 160.25 C 165.27 153.98 165.94 155.96 166.12 151.50 C 166.31 147.04 165.69 144.85 166.00 133.50 C 166.31 122.15 167.35 93.92 168.00 83.38 C 168.65 72.83 169.25 73.38 169.88 70.25 C 170.50 67.12 171.44 66.46 171.75 64.62 C 172.06 62.79 171.88 60.40 171.75 59.25 C 171.62 58.10 171.60 58.52 171.00 57.75 C 170.40 56.98 169.54 55.75 168.12 54.62 C 166.71 53.50 165.65 52.25 162.50 51.00 C 159.35 49.75 152.60 47.96 149.25 47.12 C 145.90 46.29 145.25 46.17 142.38 46.00 C 139.50 45.83 134.19 45.94 132.00 46.12 Z" id="s-1-f-1"/>
<path d="M 129.50 47.00 C 128.73 47.31 128.71 47.23 128.12 47.88 C 127.54 48.52 126.38 49.92 126.00 50.88 C 125.62 51.83 125.69 52.52 125.88 53.62 C 126.06 54.73 126.00 55.29 127.12 57.50 C 128.25 59.71 131.38 64.08 132.62 66.88 C 133.88 69.67 134.08 61.81 134.62 74.25 C 135.17 86.69 135.58 130.21 135.88 141.50 C 136.17 152.79 131.50 141.90 136.38 142.00 C 141.25 142.10 160.25 142.15 165.12 142.12 C 170.00 142.10 165.44 142.33 165.62 141.88 C 165.81 141.42 166.19 140.77 166.25 139.38 C 166.31 137.98 165.71 142.83 166.00 133.50 C 166.29 124.17 167.35 93.92 168.00 83.38 C 168.65 72.83 169.25 73.38 169.88 70.25 C 170.50 67.12 171.46 66.52 171.75 64.62 C 172.04 62.73 171.98 60.31 171.62 58.88 C 171.27 57.44 170.58 56.98 169.62 56.00 C 168.67 55.02 167.06 53.83 165.88 53.00 C 164.69 52.17 165.27 51.98 162.50 51.00 C 159.73 50.02 152.60 47.96 149.25 47.12 C 145.90 46.29 145.12 46.19 142.38 46.00 C 139.62 45.81 134.90 45.83 132.75 46.00 C 130.60 46.17 130.27 46.69 129.50 47.00 Z" id="s-1-f-2"/>
<path d="M 128.12 47.88 C 127.12 48.67 126.35 49.71 126.00 50.88 C 125.65 52.04 125.81 53.77 126.00 54.88 C 126.19 55.98 126.17 55.83 127.12 57.50 C 128.08 59.17 130.65 62.79 131.75 64.88 C 132.85 66.96 133.25 68.21 133.75 70.00 C 134.25 71.79 134.50 71.67 134.75 75.62 C 135.00 79.58 129.79 90.73 135.25 93.75 C 140.71 96.77 161.90 96.69 167.50 93.75 C 173.10 90.81 168.46 80.15 168.88 76.12 C 169.29 72.10 169.56 71.33 170.00 69.62 C 170.44 67.92 171.19 66.96 171.50 65.88 C 171.81 64.79 171.83 64.23 171.88 63.12 C 171.92 62.02 172.12 60.44 171.75 59.25 C 171.38 58.06 171.17 57.38 169.62 56.00 C 168.08 54.62 165.90 52.48 162.50 51.00 C 159.10 49.52 152.60 47.96 149.25 47.12 C 145.90 46.29 145.25 46.17 142.38 46.00 C 139.50 45.83 134.38 45.81 132.00 46.12 C 129.62 46.44 129.12 47.08 128.12 47.88 Z" id="s-1-f-3"/>
</g>
<g id="s-2" clip-path="url(#c-s-2)">
<use href="#s-2-f-0"/>
<path d="M 210.00 196.50 C 209.94 193.21 210.29 195.94 209.50 195.88 C 208.71 195.81 210.25 195.15 205.25 196.12 C 200.25 197.10 185.33 200.58 179.50 201.75 C 173.67 202.92 172.90 202.62 170.25 203.12 C 167.60 203.62 165.25 204.50 163.62 204.75 C 162.00 205.00 161.27 204.48 160.50 204.62 C 159.73 204.77 159.69 205.46 159.00 205.62 C 158.31 205.79 157.79 205.33 156.38 205.62 C 154.96 205.92 151.98 207.04 150.50 207.38 C 149.02 207.71 148.25 207.42 147.50 207.62 C 146.75 207.83 146.69 208.46 146.00 208.62 C 145.31 208.79 144.08 208.50 143.38 208.62 C 142.67 208.75 142.65 209.17 141.75 209.38 C 140.85 209.58 138.83 209.65 138.00 209.88 C 137.17 210.10 146.85 208.62 136.75 210.75 C 126.65 212.88 92.12 219.79 77.38 222.62 C 62.62 225.46 57.23 226.29 48.25 227.75 C 39.27 229.21 28.33 230.52 23.50 231.38 C 18.67 232.23 20.19 232.35 19.25 232.88 C 18.31 233.40 18.08 233.88 17.88 234.50 C 17.67 235.12 17.81 235.96 18.00 236.62 C 18.19 237.29 18.35 237.67 19.00 238.50 C 19.65 239.33 20.73 240.58 21.88 241.62 C 23.02 242.67 24.62 243.90 25.88 244.75 C 27.12 245.60 27.29 245.79 29.38 246.75 C 31.46 247.71 35.73 249.52 38.38 250.50 C 41.02 251.48 42.88 252.27 45.25 252.62 C 47.62 252.98 50.15 252.96 52.62 252.62 C 55.10 252.29 56.21 251.90 60.12 250.62 C 64.04 249.35 63.69 248.42 76.12 245.00 C 88.56 241.58 124.54 232.65 134.75 230.12 C 144.96 227.60 133.71 230.71 137.38 229.88 C 141.04 229.04 150.25 226.60 156.75 225.12 C 163.25 223.65 170.10 222.19 176.38 221.00 C 182.65 219.81 188.90 218.79 194.38 218.00 C 199.85 217.21 206.67 216.65 209.25 216.25 C 211.83 215.85 209.75 218.92 209.88 215.62 C 210.00 212.33 210.06 199.79 210.00 196.50 Z" id="s-2-f-1"/>
<path d="M 161.88 205.12 C 161.81 202.81 161.85 204.58 161.62 204.50 C 161.40 204.42 160.94 204.44 160.50 204.62 C 160.06 204.81 159.69 205.46 159.00 205.62 C 158.31 205.79 157.79 205.33 156.38 205.62 C 154.96 205.92 151.98 207.04 150.50 207.38 C 149.02 207.71 148.25 207.42 147.50 207.62 C 146.75 207.83 146.69 208.46 146.00 208.62 C 145.31 208.79 144.08 208.50 143.38 208.62 C 142.67 208.75 142.65 209.17 141.75 209.38 C 140.85 209.58 138.83 209.65 138.00 209.88 C 137.17 210.10 146.85 208.62 136.75 210.75 C 126.65 212.88 92.12 219.79 77.38 222.62 C 62.62 225.46 57.23 226.29 48.25 227.75 C 39.27 229.21 28.33 230.52 23.50 231.38 C 18.67 232.23 20.19 232.35 19.25 232.88 C 18.31 233.40 18.08 233.88 17.88 234.50 C 17.67 235.12 17.81 235.96 18.00 236.62 C 18.19 237.29 18.35 237.67 19.00 238.50 C 19.65 239.33 20.73 240.58 21.88 241.62 C 23.02 242.67 24.62 243.90 25.88 244.75 C 27.12 245.60 27.29 245.79 29.38 246.75 C 31.46 247.71 35.73 249.52 38.38 250.50 C 41.02 251.48 42.88 252.27 45.25 252.62 C 47.62 252.98 50.15 252.96 52.62 252.62 C 55.10 252.29 56.81 251.73 60.12 250.62 C 63.44 249.52 65.42 248.10 72.50 246.00 C 79.58 243.90 87.81 241.65 102.62 238.00 C 117.44 234.35 151.50 226.67 161.38 224.12 C 171.25 221.58 161.77 223.71 161.88 222.75 C 161.98 221.79 162.00 221.31 162.00 218.38 C 162.00 215.44 161.94 207.44 161.88 205.12 Z" id="s-2-f-2"/>
<path d="M 113.88 216.00 C 113.79 213.02 114.10 215.62 113.50 215.62 C 112.90 215.62 116.27 214.83 110.25 216.00 C 104.23 217.17 87.69 220.67 77.38 222.62 C 67.06 224.58 57.35 226.29 48.38 227.75 C 39.40 229.21 28.35 230.52 23.50 231.38 C 18.65 232.23 20.19 232.35 19.25 232.88 C 18.31 233.40 18.08 233.88 17.88 234.50 C 17.67 235.12 17.44 235.52 18.00 236.62 C 18.56 237.73 19.94 239.77 21.25 241.12 C 22.56 242.48 24.52 243.81 25.88 244.75 C 27.23 245.69 27.29 245.79 29.38 246.75 C 31.46 247.71 35.73 249.52 38.38 250.50 C 41.02 251.48 42.88 252.27 45.25 252.62 C 47.62 252.98 50.15 252.96 52.62 252.62 C 55.10 252.29 56.81 251.73 60.12 250.62 C 63.44 249.52 63.60 248.52 72.50 246.00 C 81.40 243.48 106.58 237.58 113.50 235.50 C 120.42 233.42 113.94 236.75 114.00 233.50 C 114.06 230.25 113.96 218.98 113.88 216.00 Z" id="s-2-f-3"/>
<path d="M 65.88 248.25 C 66.00 245.42 66.00 235.52 66.00 231.88 C 66.00 228.23 65.98 227.56 65.88 226.38 C 65.77 225.19 72.44 223.92 65.38 224.75 C 58.31 225.58 31.19 230.02 23.50 231.38 C 15.81 232.73 20.19 232.35 19.25 232.88 C 18.31 233.40 18.08 233.88 17.88 234.50 C 17.67 235.12 17.81 235.96 18.00 236.62 C 18.19 237.29 18.04 237.40 19.00 238.50 C 19.96 239.60 22.02 241.88 23.75 243.25 C 25.48 244.62 26.40 245.35 29.38 246.75 C 32.35 248.15 38.83 250.62 41.62 251.62 C 44.42 252.62 44.29 252.58 46.12 252.75 C 47.96 252.92 49.44 253.27 52.62 252.62 C 55.81 251.98 63.04 249.60 65.25 248.88 C 67.46 248.15 65.75 251.08 65.88 248.25 Z" id="s-2-f-4"/>
</g>
<g id="s-3" clip-path="url(#c-s-3)">
<use href="#s-3-f-0"/>
<path d="M 162.25 223.62 C 161.65 223.44 160.33 223.46 159.62 223.62 C 158.92 223.79 158.71 224.46 158.00 224.62 C 157.29 224.79 156.79 224.33 155.38 224.62 C 153.96 224.92 150.98 226.04 149.50 226.38 C 148.02 226.71 147.25 226.42 146.50 226.62 C 145.75 226.83 145.69 227.46 145.00 227.62 C 144.31 227.79 143.08 227.50 142.38 227.62 C 141.67 227.75 141.54 228.19 140.75 228.38 C 139.96 228.56 138.44 228.52 137.62 228.75 C 136.81 228.98 136.17 229.44 135.88 229.75 C 135.58 230.06 135.42 229.71 135.88 230.62 C 136.33 231.54 138.00 234.02 138.62 235.25 C 139.25 236.48 139.27 236.65 139.62 238.00 C 139.98 239.35 140.25 229.92 140.75 243.38 C 141.25 256.83 142.25 306.04 142.62 318.75 C 143.00 331.46 139.58 319.42 143.00 319.62 C 146.42 319.83 159.65 320.02 163.12 320.00 C 166.60 319.98 163.42 324.46 163.88 319.50 C 164.33 314.54 165.35 296.71 165.88 290.25 C 166.40 283.79 166.62 287.60 167.00 280.75 C 167.38 273.90 167.79 255.90 168.12 249.12 C 168.46 242.35 168.73 242.08 169.00 240.12 C 169.27 238.17 169.65 238.98 169.75 237.38 C 169.85 235.77 169.79 231.88 169.62 230.50 C 169.46 229.12 169.44 229.90 168.75 229.12 C 168.06 228.35 166.42 226.60 165.50 225.88 C 164.58 225.15 163.79 225.12 163.25 224.75 C 162.71 224.38 162.85 223.81 162.25 223.62 Z" id="s-3-f-1"/>
<path d="M 162.25 223.62 C 161.65 223.44 160.33 223.46 159.62 223.62 C 158.92 223.79 158.71 224.46 158.00 224.62 C 157.29 224.79 156.79 224.33 155.38 224.62 C 153.96 224.92 150.98 226.04 149.50 226.38 C 148.02 226.71 147.25 226.42 146.50 226.62 C 145.75 226.83 145.69 227.46 145.00 227.62 C 144.31 227.79 143.08 227.50 142.38 227.62 C 141.67 227.75 141.54 228.19 140.75 228.38 C 139.96 228.56 138.44 228.52 137.62 228.75 C 136.81 228.98 136.17 229.44 135.88 229.75 C 135.58 230.06 135.42 229.71 135.88 230.62 C 136.33 231.54 137.83 233.31 138.62 235.25 C 139.42 237.19 140.17 236.25 140.62 242.25 C 141.08 248.25 141.15 266.33 141.38 271.25 C 141.60 276.17 137.75 271.65 142.00 271.75 C 146.25 271.85 162.65 271.94 166.88 271.88 C 171.10 271.81 167.17 275.19 167.38 271.38 C 167.58 267.56 167.85 254.21 168.12 249.00 C 168.40 243.79 168.73 242.06 169.00 240.12 C 169.27 238.19 169.62 238.92 169.75 237.38 C 169.88 235.83 170.31 232.67 169.75 230.88 C 169.19 229.08 167.46 227.65 166.38 226.62 C 165.29 225.60 163.94 225.25 163.25 224.75 C 162.56 224.25 162.85 223.81 162.25 223.62 Z" id="s-3-f-2"/>
</g>
<g id="s-4" clip-path="url(#c-s-4)">
<use href="#s-4-f-0"/>
<path d="M 213.88 272.25 C 213.58 269.79 214.15 271.56 212.25 270.88 C 210.35 270.19 204.81 268.60 202.50 268.12 C 200.19 267.65 204.04 266.33 198.38 268.00 C 192.71 269.67 173.81 276.25 168.50 278.12 C 163.19 280.00 166.98 278.25 166.50 279.25 C 166.02 280.25 165.77 282.40 165.62 284.12 C 165.48 285.85 165.27 288.54 165.62 289.62 C 165.98 290.71 166.48 290.29 167.75 290.62 C 169.02 290.96 170.83 291.42 173.25 291.62 C 175.67 291.83 180.21 291.88 182.25 291.88 C 184.29 291.88 183.98 291.94 185.50 291.62 C 187.02 291.31 186.79 290.88 191.38 290.00 C 195.96 289.12 209.23 287.10 213.00 286.38 C 216.77 285.65 213.85 287.98 214.00 285.62 C 214.15 283.27 214.17 274.71 213.88 272.25 Z" id="s-4-f-1"/>
</g>
<g id="s-5" clip-path="url(#c-s-5)">
<use href="#s-5-f-0"/>
<path d="M 100.75 268.00 C 97.71 266.08 96.27 265.67 94.62 265.00 C 92.98 264.33 92.31 264.15 90.88 264.00 C 89.44 263.85 87.12 263.83 86.00 264.12 C 84.88 264.42 84.62 265.02 84.12 265.75 C 83.62 266.48 83.23 266.77 83.00 268.50 C 82.77 270.23 83.00 273.06 82.75 276.12 C 82.50 279.19 82.17 283.04 81.50 286.88 C 80.83 290.71 79.71 295.58 78.75 299.12 C 77.79 302.67 77.94 302.52 75.75 308.12 C 73.56 313.73 68.60 325.90 65.62 332.75 C 62.65 339.60 60.52 343.92 57.88 349.25 C 55.23 354.58 53.27 358.67 49.75 364.75 C 46.23 370.83 40.12 380.48 36.75 385.75 C 33.38 391.02 32.10 392.79 29.50 396.38 C 26.90 399.96 22.48 405.33 21.12 407.25 C 19.77 409.17 19.96 407.77 21.38 407.88 C 22.79 407.98 27.19 408.56 29.62 407.88 C 32.06 407.19 33.29 405.77 36.00 403.75 C 38.71 401.73 43.23 398.02 45.88 395.75 C 48.52 393.48 48.92 393.17 51.88 390.12 C 54.83 387.08 58.98 383.12 63.62 377.50 C 68.27 371.88 75.77 361.83 79.75 356.38 C 83.73 350.92 83.83 350.75 87.50 344.75 C 91.17 338.75 98.31 326.75 101.75 320.38 C 105.19 314.00 106.23 310.12 108.12 306.50 C 110.02 302.88 111.35 301.10 113.12 298.62 C 114.90 296.15 117.62 293.23 118.75 291.62 C 119.88 290.02 119.71 290.02 119.88 289.00 C 120.04 287.98 120.10 286.71 119.75 285.50 C 119.40 284.29 118.90 283.25 117.75 281.75 C 116.60 280.25 115.71 278.79 112.88 276.50 C 110.04 274.21 103.79 269.92 100.75 268.00 Z" id="s-5-f-1"/>
<path d="M 97.00 266.00 C 94.08 264.50 92.77 264.29 90.88 264.00 C 88.98 263.71 86.79 263.88 85.62 264.25 C 84.46 264.62 84.31 265.54 83.88 266.25 C 83.44 266.96 83.25 266.10 83.00 268.50 C 82.75 270.90 82.73 276.96 82.38 280.62 C 82.02 284.29 81.85 286.25 80.88 290.50 C 79.90 294.75 79.04 299.08 76.50 306.12 C 73.96 313.17 68.73 325.56 65.62 332.75 C 62.52 339.94 60.00 344.96 57.88 349.25 C 55.75 353.54 53.75 356.79 52.88 358.50 C 52.00 360.21 52.60 359.27 52.62 359.50 C 52.65 359.73 49.27 359.79 53.00 359.88 C 56.73 359.96 71.04 360.00 75.00 360.00 C 78.96 360.00 76.27 360.06 76.75 359.88 C 77.23 359.69 76.08 361.40 77.88 358.88 C 79.67 356.35 84.35 349.67 87.50 344.75 C 90.65 339.83 94.02 334.10 96.75 329.38 C 99.48 324.65 101.98 320.19 103.88 316.38 C 105.77 312.56 106.58 309.46 108.12 306.50 C 109.67 303.54 111.50 300.90 113.12 298.62 C 114.75 296.35 116.77 294.38 117.88 292.88 C 118.98 291.38 119.46 290.92 119.75 289.62 C 120.04 288.33 119.96 286.44 119.62 285.12 C 119.29 283.81 118.42 282.73 117.75 281.75 C 117.08 280.77 117.19 280.71 115.62 279.25 C 114.06 277.79 111.48 275.21 108.38 273.00 C 105.27 270.79 99.92 267.50 97.00 266.00 Z" id="s-5-f-2"/>
<path d="M 85.62 264.25 C 84.50 264.54 84.56 265.04 84.12 265.75 C 83.69 266.46 83.29 266.02 83.00 268.50 C 82.71 270.98 82.73 276.96 82.38 280.62 C 82.02 284.29 81.52 287.27 80.88 290.50 C 80.23 293.73 79.58 296.50 78.50 300.00 C 77.42 303.50 74.67 309.50 74.38 311.50 C 74.08 313.50 71.56 311.94 76.75 312.00 C 81.94 312.06 100.50 312.19 105.50 311.88 C 110.50 311.56 106.31 311.02 106.75 310.12 C 107.19 309.23 107.27 308.10 108.12 306.50 C 108.98 304.90 110.10 302.98 111.88 300.50 C 113.65 298.02 117.42 293.54 118.75 291.62 C 120.08 289.71 119.73 290.08 119.88 289.00 C 120.02 287.92 120.12 286.52 119.62 285.12 C 119.12 283.73 118.00 282.06 116.88 280.62 C 115.75 279.19 115.31 278.46 112.88 276.50 C 110.44 274.54 105.29 270.79 102.25 268.88 C 99.21 266.96 96.52 265.81 94.62 265.00 C 92.73 264.19 92.38 264.12 90.88 264.00 C 89.38 263.88 86.75 263.96 85.62 264.25 Z" id="s-5-f-3"/>
</g>
<g id="s-6" clip-path="url(#c-s-6)">
<use href="#s-6-f-0"/>
<path d="M 102.75 316.62 C 102.29 317.60 102.44 317.17 102.62 317.50 C 102.81 317.83 100.06 316.38 103.88 318.62 C 107.69 320.88 118.62 326.94 125.50 331.00 C 132.38 335.06 138.42 338.77 145.12 343.00 C 151.83 347.23 158.88 351.75 165.75 356.38 C 172.62 361.00 173.58 362.52 186.38 370.75 C 199.17 378.98 227.98 396.92 242.50 405.75 C 257.02 414.58 265.56 419.25 273.50 423.75 C 281.44 428.25 283.69 429.42 290.12 432.75 C 296.56 436.08 306.85 441.25 312.12 443.75 C 317.40 446.25 318.67 446.58 321.75 447.75 C 324.83 448.92 327.12 449.77 330.62 450.75 C 334.12 451.73 339.29 452.96 342.75 453.62 C 346.21 454.29 347.58 454.56 351.38 454.75 C 355.17 454.94 360.31 455.08 365.50 454.75 C 370.69 454.42 377.50 453.44 382.50 452.75 C 387.50 452.06 390.52 451.58 395.50 450.62 C 400.48 449.67 405.23 448.40 412.38 447.00 C 419.52 445.60 433.96 443.15 438.38 442.25 C 442.79 441.35 438.77 444.62 438.88 441.62 C 438.98 438.62 439.08 427.44 439.00 424.25 C 438.92 421.06 445.08 423.75 438.38 422.50 C 431.67 421.25 412.15 418.88 398.75 416.75 C 385.35 414.62 369.73 411.94 358.00 409.75 C 346.27 407.56 337.75 405.83 328.38 403.62 C 319.00 401.42 308.12 398.33 301.75 396.50 C 295.38 394.67 295.04 394.44 290.12 392.62 C 285.21 390.81 282.44 389.96 272.25 385.62 C 262.06 381.29 247.23 375.10 229.00 366.62 C 210.77 358.15 174.00 340.21 162.88 334.75 C 151.75 329.29 162.40 333.98 162.25 333.88 C 162.10 333.77 162.38 334.31 162.00 334.12 C 161.62 333.94 161.94 333.73 160.00 332.75 C 158.06 331.77 152.06 329.10 150.38 328.25 C 148.69 327.40 150.88 328.12 149.88 327.62 C 148.88 327.12 145.33 325.73 144.38 325.25 C 143.42 324.77 144.50 324.88 144.12 324.75 C 143.75 324.62 143.77 325.19 142.12 324.50 C 140.48 323.81 137.77 322.52 134.25 320.62 C 130.73 318.73 125.29 315.42 121.00 313.12 C 116.71 310.83 110.71 307.92 108.50 306.88 C 106.29 305.83 108.04 306.73 107.75 306.88 C 107.46 307.02 107.15 306.96 106.75 307.75 C 106.35 308.54 106.04 310.15 105.38 311.62 C 104.71 313.10 103.21 315.65 102.75 316.62 Z" id="s-6-f-1"/>
<path d="M 106.75 307.75 C 106.35 308.54 106.06 310.08 105.38 311.62 C 104.69 313.17 102.88 315.83 102.62 317.00 C 102.38 318.17 100.06 316.29 103.88 318.62 C 107.69 320.96 118.62 326.94 125.50 331.00 C 132.38 335.06 138.42 338.77 145.12 343.00 C 151.83 347.23 158.88 351.75 165.75 356.38 C 172.62 361.00 174.42 363.02 186.38 370.75 C 198.33 378.48 222.98 393.92 237.50 402.75 C 252.02 411.58 263.48 418.10 273.50 423.75 C 283.52 429.40 291.19 433.29 297.62 436.62 C 304.06 439.96 308.10 441.90 312.12 443.75 C 316.15 445.60 318.67 446.58 321.75 447.75 C 324.83 448.92 327.12 449.77 330.62 450.75 C 334.12 451.73 339.29 452.96 342.75 453.62 C 346.21 454.29 347.58 454.56 351.38 454.75 C 355.17 454.94 360.31 455.08 365.50 454.75 C 370.69 454.42 378.31 453.35 382.50 452.75 C 386.69 452.15 389.21 451.81 390.62 451.12 C 392.04 450.44 390.96 454.50 391.00 448.62 C 391.04 442.75 391.02 421.46 390.88 415.88 C 390.73 410.29 395.60 416.15 390.12 415.12 C 384.65 414.10 368.29 411.67 358.00 409.75 C 347.71 407.83 336.46 405.46 328.38 403.62 C 320.29 401.79 315.88 400.58 309.50 398.75 C 303.12 396.92 297.92 395.48 290.12 392.62 C 282.33 389.77 272.94 385.96 262.75 381.62 C 252.56 377.29 245.65 374.44 229.00 366.62 C 212.35 358.81 174.00 340.21 162.88 334.75 C 151.75 329.29 162.40 333.98 162.25 333.88 C 162.10 333.77 162.38 334.31 162.00 334.12 C 161.62 333.94 161.94 333.73 160.00 332.75 C 158.06 331.77 152.06 329.10 150.38 328.25 C 148.69 327.40 150.88 328.12 149.88 327.62 C 148.88 327.12 145.33 325.73 144.38 325.25 C 143.42 324.77 144.50 324.88 144.12 324.75 C 143.75 324.62 143.77 325.19 142.12 324.50 C 140.48 323.81 137.77 322.52 134.25 320.62 C 130.73 318.73 125.29 315.42 121.00 313.12 C 116.71 310.83 110.71 307.92 108.50 306.88 C 106.29 305.83 108.04 306.73 107.75 306.88 C 107.46 307.02 107.15 306.96 106.75 307.75 Z" id="s-6-f-2"/>
<path d="M 106.75 307.75 C 106.35 308.54 106.04 310.15 105.38 311.62 C 104.71 313.10 103.15 315.56 102.75 316.62 C 102.35 317.69 95.94 313.60 103.00 318.00 C 110.06 322.40 134.67 336.60 145.12 343.00 C 155.58 349.40 159.35 352.06 165.75 356.38 C 172.15 360.69 173.73 362.48 183.50 368.88 C 193.27 375.27 209.38 385.60 224.38 394.75 C 239.38 403.90 259.96 416.10 273.50 423.75 C 287.04 431.40 297.58 436.62 305.62 440.62 C 313.67 444.62 317.58 446.06 321.75 447.75 C 325.92 449.44 327.17 449.79 330.62 450.75 C 334.08 451.71 340.44 453.60 342.50 453.50 C 344.56 453.40 342.94 457.42 343.00 450.12 C 343.06 442.83 342.98 417.00 342.88 409.75 C 342.77 402.50 344.79 407.65 342.38 406.62 C 339.96 405.60 335.15 405.31 328.38 403.62 C 321.60 401.94 308.12 398.33 301.75 396.50 C 295.38 394.67 295.04 394.44 290.12 392.62 C 285.21 390.81 279.10 388.44 272.25 385.62 C 265.40 382.81 259.73 380.56 249.00 375.75 C 238.27 370.94 221.96 363.44 207.88 356.75 C 193.79 350.06 172.10 339.44 164.50 335.62 C 156.90 331.81 162.67 334.12 162.25 333.88 C 161.83 333.62 162.38 334.31 162.00 334.12 C 161.62 333.94 161.94 333.73 160.00 332.75 C 158.06 331.77 152.06 329.10 150.38 328.25 C 148.69 327.40 150.88 328.12 149.88 327.62 C 148.88 327.12 145.33 325.73 144.38 325.25 C 143.42 324.77 144.50 324.88 144.12 324.75 C 143.75 324.62 143.77 325.19 142.12 324.50 C 140.48 323.81 137.77 322.52 134.25 320.62 C 130.73 318.73 125.29 315.42 121.00 313.12 C 116.71 310.83 110.71 307.92 108.50 306.88 C 106.29 305.83 108.04 306.73 107.75 306.88 C 107.46 307.02 107.15 306.96 106.75 307.75 Z" id="s-6-f-3"/>
<path d="M 106.75 307.75 C 106.35 308.54 106.06 310.08 105.38 311.62 C 104.69 313.17 102.88 315.83 102.62 317.00 C 102.38 318.17 100.06 316.29 103.88 318.62 C 107.69 320.96 118.62 326.94 125.50 331.00 C 132.38 335.06 138.42 338.77 145.12 343.00 C 151.83 347.23 158.88 351.75 165.75 356.38 C 172.62 361.00 174.42 363.02 186.38 370.75 C 198.33 378.48 222.98 393.92 237.50 402.75 C 252.02 411.58 263.98 418.42 273.50 423.75 C 283.02 429.08 291.04 433.35 294.62 434.75 C 298.21 436.15 294.94 438.46 295.00 432.12 C 295.06 425.79 295.08 403.12 295.00 396.75 C 294.92 390.38 295.31 394.56 294.50 393.88 C 293.69 393.19 293.83 394.00 290.12 392.62 C 286.42 391.25 282.44 389.96 272.25 385.62 C 262.06 381.29 247.23 375.10 229.00 366.62 C 210.77 358.15 174.00 340.21 162.88 334.75 C 151.75 329.29 162.40 333.98 162.25 333.88 C 162.10 333.77 162.38 334.31 162.00 334.12 C 161.62 333.94 161.94 333.73 160.00 332.75 C 158.06 331.77 152.06 329.10 150.38 328.25 C 148.69 327.40 150.88 328.12 149.88 327.62 C 148.88 327.12 145.33 325.73 144.38 325.25 C 143.42 324.77 144.50 324.88 144.12 324.75 C 143.75 324.62 143.77 325.19 142.12 324.50 C 140.48 323.81 137.77 322.52 134.25 320.62 C 130.73 318.73 125.29 315.42 121.00 313.12 C 116.71 310.83 110.71 307.92 108.50 306.88 C 106.29 305.83 108.04 306.73 107.75 306.88 C 107.46 307.02 107.15 306.96 106.75 307.75 Z" id="s-6-f-4"/>
<path d="M 106.75 307.75 C 106.35 308.54 106.04 310.15 105.38 311.62 C 104.71 313.10 103.15 315.56 102.75 316.62 C 102.35 317.69 95.94 313.60 103.00 318.00 C 110.06 322.40 134.67 336.60 145.12 343.00 C 155.58 349.40 158.88 351.75 165.75 356.38 C 172.62 361.00 176.60 364.35 186.38 370.75 C 196.15 377.15 214.46 388.58 224.38 394.75 C 234.29 400.92 242.15 405.58 245.88 407.75 C 249.60 409.92 246.56 412.85 246.75 407.75 C 246.94 402.65 247.04 382.67 247.00 377.12 C 246.96 371.58 253.02 377.90 246.50 374.50 C 239.98 371.10 221.81 363.38 207.88 356.75 C 193.94 350.12 170.48 338.56 162.88 334.75 C 155.27 330.94 162.40 333.98 162.25 333.88 C 162.10 333.77 162.38 334.31 162.00 334.12 C 161.62 333.94 161.94 333.73 160.00 332.75 C 158.06 331.77 152.06 329.10 150.38 328.25 C 148.69 327.40 150.88 328.12 149.88 327.62 C 148.88 327.12 145.33 325.73 144.38 325.25 C 143.42 324.77 144.50 324.88 144.12 324.75 C 143.75 324.62 143.77 325.19 142.12 324.50 C 140.48 323.81 137.77 322.52 134.25 320.62 C 130.73 318.73 125.29 315.42 121.00 313.12 C 116.71 310.83 110.71 307.92 108.50 306.88 C 106.29 305.83 108.04 306.73 107.75 306.88 C 107.46 307.02 107.15 306.96 106.75 307.75 Z" id="s-6-f-5"/>
<path d="M 106.75 307.75 C 106.35 308.54 106.04 310.15 105.38 311.62 C 104.71 313.10 103.15 315.56 102.75 316.62 C 102.35 317.69 95.94 313.60 103.00 318.00 C 110.06 322.40 134.67 336.60 145.12 343.00 C 155.58 349.40 158.88 351.75 165.75 356.38 C 172.62 361.00 181.06 367.17 186.38 370.75 C 191.69 374.33 195.60 376.65 197.62 377.88 C 199.65 379.10 198.29 378.15 198.50 378.12 C 198.71 378.10 198.79 381.71 198.88 377.75 C 198.96 373.79 199.06 358.67 199.00 354.38 C 198.94 350.08 204.25 355.12 198.50 352.00 C 192.75 348.88 170.54 338.65 164.50 335.62 C 158.46 332.60 162.67 334.12 162.25 333.88 C 161.83 333.62 162.38 334.31 162.00 334.12 C 161.62 333.94 161.94 333.73 160.00 332.75 C 158.06 331.77 152.06 329.10 150.38 328.25 C 148.69 327.40 150.88 328.12 149.88 327.62 C 148.88 327.12 145.33 325.73 144.38 325.25 C 143.42 324.77 144.50 324.88 144.12 324.75 C 143.75 324.62 143.77 325.19 142.12 324.50 C 140.48 323.81 137.77 322.52 134.25 320.62 C 130.73 318.73 125.29 315.42 121.00 313.12 C 116.71 310.83 110.71 307.92 108.50 306.88 C 106.29 305.83 108.04 306.73 107.75 306.88 C 107.46 307.02 107.15 306.96 106.75 307.75 Z" id="s-6-f-6"/>
<path d="M 106.75 307.75 C 106.35 308.54 106.04 310.15 105.38 311.62 C 104.71 313.10 103.15 315.56 102.75 316.62 C 102.35 317.69 99.21 315.60 103.00 318.00 C 106.79 320.40 117.65 326.27 125.50 331.00 C 133.35 335.73 145.90 343.85 150.12 346.38 C 154.35 348.90 150.73 348.92 150.88 346.12 C 151.02 343.33 151.00 332.54 151.00 329.62 C 151.00 326.71 151.06 328.96 150.88 328.62 C 150.69 328.29 150.25 327.83 149.88 327.62 C 149.50 327.42 149.58 327.85 148.62 327.38 C 147.67 326.90 145.21 325.23 144.12 324.75 C 143.04 324.27 143.77 325.19 142.12 324.50 C 140.48 323.81 137.77 322.52 134.25 320.62 C 130.73 318.73 125.29 315.42 121.00 313.12 C 116.71 310.83 110.71 307.92 108.50 306.88 C 106.29 305.83 108.04 306.73 107.75 306.88 C 107.46 307.02 107.15 306.96 106.75 307.75 Z" id="s-6-f-7"/>
</g>
<g id="s-7" clip-path="url(#c-s-7)">
<use href="#s-7-f-0"/>
<path d="M 292.38 94.12 C 289.92 92.79 289.15 92.48 287.25 92.12 C 285.35 91.77 282.48 91.81 281.00 92.00 C 279.52 92.19 279.19 92.50 278.38 93.25 C 277.56 94.00 276.52 95.42 276.12 96.50 C 275.73 97.58 275.73 97.44 276.00 99.75 C 276.27 102.06 277.48 107.71 277.75 110.38 C 278.02 113.04 277.79 113.81 277.62 115.75 C 277.46 117.69 277.42 118.90 276.75 122.00 C 276.08 125.10 275.33 129.19 273.62 134.38 C 271.92 139.56 269.31 146.73 266.50 153.12 C 263.69 159.52 259.67 167.23 256.75 172.75 C 253.83 178.27 250.31 183.73 249.00 186.25 C 247.69 188.77 247.23 187.60 248.88 187.88 C 250.52 188.15 256.23 188.83 258.88 187.88 C 261.52 186.92 262.77 184.25 264.75 182.12 C 266.73 180.00 267.54 179.29 270.75 175.12 C 273.96 170.96 280.98 161.40 284.00 157.12 C 287.02 152.85 285.54 155.29 288.88 149.50 C 292.21 143.71 300.38 128.40 304.00 122.38 C 307.62 116.35 309.50 115.46 310.62 113.38 C 311.75 111.29 311.06 111.08 310.75 109.88 C 310.44 108.67 310.21 107.75 308.75 106.12 C 307.29 104.50 304.73 102.12 302.00 100.12 C 299.27 98.12 294.83 95.46 292.38 94.12 Z" id="s-7-f-1"/>
<path d="M 287.25 92.12 C 284.67 91.46 282.04 91.88 280.50 92.12 C 278.96 92.38 278.75 92.83 278.00 93.62 C 277.25 94.42 276.33 95.85 276.00 96.88 C 275.67 97.90 275.71 97.50 276.00 99.75 C 276.29 102.00 277.48 107.71 277.75 110.38 C 278.02 113.04 277.96 113.08 277.62 115.75 C 277.29 118.42 276.69 122.56 275.75 126.38 C 274.81 130.19 272.56 136.35 272.00 138.62 C 271.44 140.90 268.79 139.77 272.38 140.00 C 275.96 140.23 289.83 140.06 293.50 140.00 C 297.17 139.94 292.62 142.56 294.38 139.62 C 296.12 136.69 301.27 126.81 304.00 122.38 C 306.73 117.94 309.62 115.08 310.75 113.00 C 311.88 110.92 310.92 110.77 310.75 109.88 C 310.58 108.98 310.73 108.88 309.75 107.62 C 308.77 106.38 307.17 104.29 304.88 102.38 C 302.58 100.46 298.94 97.83 296.00 96.12 C 293.06 94.42 289.83 92.79 287.25 92.12 Z" id="s-7-f-2"/>
</g>
<g id="s-8" clip-path="url(#c-s-8)">
<use href="#s-8-f-0"/>
<path d="M 377.75 132.00 C 377.62 128.75 380.02 130.88 377.12 131.50 C 374.23 132.12 364.77 134.71 360.38 135.75 C 355.98 136.79 352.81 137.40 350.75 137.75 C 348.69 138.10 352.77 136.88 348.00 137.88 C 343.23 138.88 329.31 142.27 322.12 143.75 C 314.94 145.23 310.38 145.92 304.88 146.75 C 299.38 147.58 292.00 148.25 289.12 148.75 C 286.25 149.25 288.88 147.98 287.62 149.75 C 286.38 151.52 282.38 157.56 281.62 159.38 C 280.88 161.19 282.42 160.25 283.12 160.62 C 283.83 161.00 284.48 161.29 285.88 161.62 C 287.27 161.96 287.73 162.46 291.50 162.62 C 295.27 162.79 302.79 163.06 308.50 162.62 C 314.21 162.19 322.19 160.46 325.75 160.00 C 329.31 159.54 326.46 160.25 329.88 159.88 C 333.29 159.50 340.85 158.73 346.25 157.75 C 351.65 156.77 357.08 155.02 362.25 154.00 C 367.42 152.98 374.65 152.12 377.25 151.62 C 379.85 151.12 377.79 154.27 377.88 151.00 C 377.96 147.73 377.88 135.25 377.75 132.00 Z" id="s-8-f-1"/>
<path d="M 329.88 142.38 C 329.71 139.67 329.33 141.96 329.00 142.00 C 328.67 142.04 330.88 142.00 327.88 142.62 C 324.88 143.25 317.58 144.69 311.00 145.75 C 304.42 146.81 293.27 146.73 288.38 149.00 C 283.48 151.27 282.52 157.46 281.62 159.38 C 280.73 161.29 282.29 160.12 283.00 160.50 C 283.71 160.88 284.44 161.27 285.88 161.62 C 287.31 161.98 289.79 162.42 291.62 162.62 C 293.46 162.83 294.06 162.88 296.88 162.88 C 299.69 162.88 303.69 163.10 308.50 162.62 C 313.31 162.15 322.27 160.46 325.75 160.00 C 329.23 159.54 328.67 160.17 329.38 159.88 C 330.08 159.58 329.92 161.17 330.00 158.25 C 330.08 155.33 330.04 145.08 329.88 142.38 Z" id="s-8-f-2"/>
</g>
<g id="s-9" clip-path="url(#c-s-9)">
<use href="#s-9-f-0"/>
<path d="M 428.88 198.00 C 428.77 194.92 430.08 197.77 428.12 197.12 C 426.17 196.48 420.02 194.65 417.12 194.12 C 414.23 193.60 418.71 192.73 410.75 194.00 C 402.79 195.27 379.52 199.96 369.38 201.75 C 359.23 203.54 353.81 204.23 349.88 204.75 C 345.94 205.27 349.02 204.52 345.75 204.88 C 342.48 205.23 336.56 205.90 330.25 206.88 C 323.94 207.85 315.12 209.60 307.88 210.75 C 300.62 211.90 297.44 212.38 286.75 213.75 C 276.06 215.12 251.81 217.79 243.75 219.00 C 235.69 220.21 239.46 220.48 238.38 221.00 C 237.29 221.52 237.50 221.69 237.25 222.12 C 237.00 222.56 236.75 223.04 236.88 223.62 C 237.00 224.21 237.42 224.92 238.00 225.62 C 238.58 226.33 238.52 226.71 240.38 227.88 C 242.23 229.04 246.19 231.31 249.12 232.62 C 252.06 233.94 255.58 235.06 258.00 235.75 C 260.42 236.44 261.83 236.56 263.62 236.75 C 265.42 236.94 259.96 238.33 268.75 236.88 C 277.54 235.42 303.94 230.00 316.38 228.00 C 328.81 226.00 338.06 225.56 343.38 224.88 C 348.69 224.19 339.65 224.85 348.25 223.88 C 356.85 222.90 381.62 220.15 395.00 219.00 C 408.38 217.85 422.88 217.56 428.50 217.00 C 434.12 216.44 428.69 218.79 428.75 215.62 C 428.81 212.46 428.98 201.08 428.88 198.00 Z" id="s-9-f-1"/>
<path d="M 381.00 201.25 C 380.90 197.85 385.44 199.04 380.25 199.62 C 375.06 200.21 355.62 203.88 349.88 204.75 C 344.12 205.62 349.02 204.52 345.75 204.88 C 342.48 205.23 336.56 205.90 330.25 206.88 C 323.94 207.85 315.12 209.60 307.88 210.75 C 300.62 211.90 297.44 212.38 286.75 213.75 C 276.06 215.12 251.81 217.79 243.75 219.00 C 235.69 220.21 239.46 220.48 238.38 221.00 C 237.29 221.52 237.50 221.71 237.25 222.12 C 237.00 222.54 236.75 222.92 236.88 223.50 C 237.00 224.08 237.42 224.90 238.00 225.62 C 238.58 226.35 238.52 226.71 240.38 227.88 C 242.23 229.04 246.19 231.31 249.12 232.62 C 252.06 233.94 255.58 235.06 258.00 235.75 C 260.42 236.44 261.83 236.56 263.62 236.75 C 265.42 236.94 259.96 238.33 268.75 236.88 C 277.54 235.42 303.94 230.00 316.38 228.00 C 328.81 226.00 338.06 225.56 343.38 224.88 C 348.69 224.19 342.08 224.60 348.25 223.88 C 354.42 223.15 374.94 221.15 380.38 220.50 C 385.81 219.85 380.77 223.21 380.88 220.00 C 380.98 216.79 381.10 204.65 381.00 201.25 Z" id="s-9-f-2"/>
<path d="M 332.88 207.12 C 332.81 203.98 332.94 206.79 332.50 206.75 C 332.06 206.71 333.29 206.38 330.25 206.88 C 327.21 207.38 321.50 208.60 314.25 209.75 C 307.00 210.90 298.50 212.21 286.75 213.75 C 275.00 215.29 251.81 217.79 243.75 219.00 C 235.69 220.21 239.52 220.35 238.38 221.00 C 237.23 221.65 237.10 222.33 236.88 222.88 C 236.65 223.42 236.21 223.27 237.00 224.25 C 237.79 225.23 239.60 227.35 241.62 228.75 C 243.65 230.15 246.40 231.46 249.12 232.62 C 251.85 233.79 255.19 235.04 258.00 235.75 C 260.81 236.46 263.75 236.73 266.00 236.88 C 268.25 237.02 269.46 236.94 271.50 236.62 C 273.54 236.31 270.77 236.44 278.25 235.00 C 285.73 233.56 307.98 229.38 316.38 228.00 C 324.77 226.62 325.88 227.15 328.62 226.75 C 331.38 226.35 332.17 228.90 332.88 225.62 C 333.58 222.35 332.94 210.27 332.88 207.12 Z" id="s-9-f-3"/>
<path d="M 285.00 215.50 C 284.98 212.29 285.08 214.62 284.75 214.38 C 284.42 214.12 289.83 213.23 283.00 214.00 C 276.17 214.77 251.19 217.83 243.75 219.00 C 236.31 220.17 239.50 220.40 238.38 221.00 C 237.25 221.60 237.23 222.08 237.00 222.62 C 236.77 223.17 236.44 223.38 237.00 224.25 C 237.56 225.12 239.33 226.96 240.38 227.88 C 241.42 228.79 241.00 228.65 243.25 229.75 C 245.50 230.85 250.48 233.33 253.88 234.50 C 257.27 235.67 260.58 236.42 263.62 236.75 C 266.67 237.08 268.58 237.02 272.12 236.50 C 275.67 235.98 282.73 237.12 284.88 233.62 C 287.02 230.12 285.02 218.71 285.00 215.50 Z" id="s-9-f-4"/>
</g>
<g id="s-10" clip-path="url(#c-s-10)">
<use href="#s-10-f-0"/>
<path d="M 322.25 44.00 C 320.08 44.12 320.04 44.54 319.25 44.88 C 318.46 45.21 317.88 45.69 317.50 46.00 C 317.12 46.31 317.10 46.23 317.00 46.75 C 316.90 47.27 316.69 47.85 316.88 49.12 C 317.06 50.40 317.33 52.52 318.12 54.38 C 318.92 56.23 320.85 58.77 321.62 60.25 C 322.40 61.73 322.23 61.00 322.75 63.25 C 323.27 65.50 324.23 70.27 324.75 73.75 C 325.27 77.23 325.54 78.50 325.88 84.12 C 326.21 89.75 326.62 90.96 326.75 107.50 C 326.88 124.04 326.77 166.79 326.62 183.38 C 326.48 199.96 326.21 200.08 325.88 207.00 C 325.54 213.92 324.73 221.50 324.62 224.88 C 324.52 228.25 325.23 220.71 325.25 227.25 C 325.27 233.79 325.15 251.96 324.75 264.12 C 324.35 276.29 323.38 292.10 322.88 300.25 C 322.38 308.40 322.44 307.15 321.75 313.00 C 321.06 318.85 319.88 329.19 318.75 335.38 C 317.62 341.56 315.62 346.29 315.00 350.12 C 314.38 353.96 314.50 354.77 315.00 358.38 C 315.50 361.98 317.15 368.44 318.00 371.75 C 318.85 375.06 319.60 376.90 320.12 378.25 C 320.65 379.60 317.17 379.58 321.12 379.88 C 325.08 380.17 339.75 380.06 343.88 380.00 C 348.00 379.94 345.08 380.83 345.88 379.50 C 346.67 378.17 347.81 374.75 348.62 372.00 C 349.44 369.25 350.23 365.81 350.75 363.00 C 351.27 360.19 351.58 359.48 351.75 355.12 C 351.92 350.77 352.21 345.29 351.75 336.88 C 351.29 328.46 349.65 315.65 349.00 304.62 C 348.35 293.60 348.06 284.12 347.88 270.75 C 347.69 257.38 347.67 233.46 347.88 224.38 C 348.08 215.29 348.92 223.44 349.12 216.25 C 349.33 209.06 349.00 191.08 349.12 181.25 C 349.25 171.42 349.69 161.38 349.88 157.25 C 350.06 153.12 350.23 160.12 350.25 156.50 C 350.27 152.88 349.71 144.19 350.00 135.50 C 350.29 126.81 351.33 112.42 352.00 104.38 C 352.67 96.33 353.33 91.79 354.00 87.25 C 354.67 82.71 355.08 80.44 356.00 77.12 C 356.92 73.81 358.85 69.94 359.50 67.38 C 360.15 64.81 360.00 63.25 359.88 61.75 C 359.75 60.25 359.56 59.62 358.75 58.38 C 357.94 57.12 356.10 55.31 355.00 54.25 C 353.90 53.19 353.46 52.85 352.12 52.00 C 350.79 51.15 348.96 50.08 347.00 49.12 C 345.04 48.17 342.83 47.08 340.38 46.25 C 337.92 45.42 335.27 44.50 332.25 44.12 C 329.23 43.75 324.42 43.88 322.25 44.00 Z" id="s-10-f-1"/>
<path d="M 322.25 44.00 C 320.08 44.12 320.04 44.54 319.25 44.88 C 318.46 45.21 317.88 45.69 317.50 46.00 C 317.12 46.31 317.10 46.23 317.00 46.75 C 316.90 47.27 316.69 47.85 316.88 49.12 C 317.06 50.40 317.33 52.52 318.12 54.38 C 318.92 56.23 320.67 57.98 321.62 60.25 C 322.58 62.52 323.19 64.27 323.88 68.00 C 324.56 71.73 325.27 76.04 325.75 82.62 C 326.23 89.21 326.62 94.71 326.75 107.50 C 326.88 120.29 326.48 150.04 326.50 159.38 C 326.52 168.71 326.98 155.54 326.88 163.50 C 326.77 171.46 326.25 196.90 325.88 207.12 C 325.50 217.35 324.73 221.52 324.62 224.88 C 324.52 228.23 325.23 220.71 325.25 227.25 C 325.27 233.79 325.00 254.23 324.75 264.12 C 324.50 274.02 324.23 278.65 323.75 286.62 C 323.27 294.60 322.65 304.54 321.88 312.00 C 321.10 319.46 319.44 328.04 319.12 331.38 C 318.81 334.71 314.75 331.92 320.00 332.00 C 325.25 332.08 345.44 332.15 350.62 331.88 C 355.81 331.60 351.40 334.90 351.12 330.38 C 350.85 325.85 349.54 314.69 349.00 304.75 C 348.46 294.81 348.06 284.15 347.88 270.75 C 347.69 257.35 347.67 233.46 347.88 224.38 C 348.08 215.29 348.92 223.44 349.12 216.25 C 349.33 209.06 349.00 191.08 349.12 181.25 C 349.25 171.42 349.69 161.38 349.88 157.25 C 350.06 153.12 350.23 160.12 350.25 156.50 C 350.27 152.88 349.73 143.94 350.00 135.50 C 350.27 127.06 351.21 113.92 351.88 105.88 C 352.54 97.83 353.31 92.04 354.00 87.25 C 354.69 82.46 355.08 80.44 356.00 77.12 C 356.92 73.81 358.85 69.94 359.50 67.38 C 360.15 64.81 360.00 63.25 359.88 61.75 C 359.75 60.25 359.31 59.40 358.75 58.38 C 358.19 57.35 357.60 56.69 356.50 55.62 C 355.40 54.56 353.71 53.08 352.12 52.00 C 350.54 50.92 348.96 50.08 347.00 49.12 C 345.04 48.17 342.83 47.08 340.38 46.25 C 337.92 45.42 335.27 44.50 332.25 44.12 C 329.23 43.75 324.42 43.88 322.25 44.00 Z" id="s-10-f-2"/>
<path d="M 322.25 44.00 C 320.08 44.12 320.04 44.54 319.25 44.88 C 318.46 45.21 317.88 45.69 317.50 46.00 C 317.12 46.31 317.10 46.23 317.00 46.75 C 316.90 47.27 316.69 47.85 316.88 49.12 C 317.06 50.40 317.31 52.48 318.12 54.38 C 318.94 56.27 320.81 58.35 321.75 60.50 C 322.69 62.65 323.06 63.31 323.75 67.25 C 324.44 71.19 325.38 77.42 325.88 84.12 C 326.38 90.83 326.62 90.96 326.75 107.50 C 326.88 124.04 326.77 166.77 326.62 183.38 C 326.48 199.98 326.21 200.21 325.88 207.12 C 325.54 214.04 324.73 221.52 324.62 224.88 C 324.52 228.23 325.23 220.71 325.25 227.25 C 325.27 233.79 324.98 254.75 324.75 264.12 C 324.52 273.50 322.79 280.19 323.88 283.50 C 324.96 286.81 327.29 283.96 331.25 284.00 C 335.21 284.04 344.83 283.94 347.62 283.75 C 350.42 283.56 347.96 292.77 348.00 282.88 C 348.04 272.98 347.69 235.48 347.88 224.38 C 348.06 213.27 348.92 223.44 349.12 216.25 C 349.33 209.06 349.00 191.08 349.12 181.25 C 349.25 171.42 349.69 161.38 349.88 157.25 C 350.06 153.12 350.23 160.12 350.25 156.50 C 350.27 152.88 349.73 143.94 350.00 135.50 C 350.27 127.06 351.21 113.92 351.88 105.88 C 352.54 97.83 353.31 92.04 354.00 87.25 C 354.69 82.46 355.08 80.44 356.00 77.12 C 356.92 73.81 358.85 69.94 359.50 67.38 C 360.15 64.81 360.00 63.25 359.88 61.75 C 359.75 60.25 359.56 59.62 358.75 58.38 C 357.94 57.12 356.38 55.48 355.00 54.25 C 353.62 53.02 352.19 52.02 350.50 51.00 C 348.81 49.98 346.69 48.96 344.88 48.12 C 343.06 47.29 341.73 46.67 339.62 46.00 C 337.52 45.33 335.15 44.46 332.25 44.12 C 329.35 43.79 324.42 43.88 322.25 44.00 Z" id="s-10-f-3"/>
<path d="M 322.25 44.00 C 320.02 44.15 319.75 44.54 318.88 45.00 C 318.00 45.46 317.33 46.06 317.00 46.75 C 316.67 47.44 316.69 47.85 316.88 49.12 C 317.06 50.40 317.33 52.52 318.12 54.38 C 318.92 56.23 320.85 58.77 321.62 60.25 C 322.40 61.73 322.23 61.00 322.75 63.25 C 323.27 65.50 324.23 70.27 324.75 73.75 C 325.27 77.23 325.54 78.50 325.88 84.12 C 326.21 89.75 326.65 94.96 326.75 107.50 C 326.85 120.04 326.48 150.04 326.50 159.38 C 326.52 168.71 326.98 155.54 326.88 163.50 C 326.77 171.46 326.25 196.90 325.88 207.12 C 325.50 217.35 324.73 221.52 324.62 224.88 C 324.52 228.23 325.17 225.50 325.25 227.25 C 325.33 229.00 324.79 233.92 325.12 235.38 C 325.46 236.83 323.54 235.90 327.25 236.00 C 330.96 236.10 343.94 236.19 347.38 236.00 C 350.81 235.81 347.79 236.81 347.88 234.88 C 347.96 232.94 347.67 227.48 347.88 224.38 C 348.08 221.27 348.92 223.44 349.12 216.25 C 349.33 209.06 349.00 191.08 349.12 181.25 C 349.25 171.42 349.69 161.38 349.88 157.25 C 350.06 153.12 350.23 160.12 350.25 156.50 C 350.27 152.88 349.73 143.94 350.00 135.50 C 350.27 127.06 351.19 114.04 351.88 105.88 C 352.56 97.71 353.44 91.29 354.12 86.50 C 354.81 81.71 355.10 80.31 356.00 77.12 C 356.90 73.94 358.88 70.10 359.50 67.38 C 360.12 64.65 359.88 62.25 359.75 60.75 C 359.62 59.25 359.54 59.46 358.75 58.38 C 357.96 57.29 356.38 55.48 355.00 54.25 C 353.62 53.02 352.19 52.02 350.50 51.00 C 348.81 49.98 346.69 48.96 344.88 48.12 C 343.06 47.29 341.73 46.67 339.62 46.00 C 337.52 45.33 335.15 44.46 332.25 44.12 C 329.35 43.79 324.48 43.85 322.25 44.00 Z" id="s-10-f-4"/>
<path d="M 321.50 44.12 C 319.23 44.29 319.35 44.75 318.62 45.12 C 317.90 45.50 317.42 45.71 317.12 46.38 C 316.83 47.04 316.71 47.79 316.88 49.12 C 317.04 50.46 317.33 52.52 318.12 54.38 C 318.92 56.23 320.85 58.77 321.62 60.25 C 322.40 61.73 322.25 61.21 322.75 63.25 C 323.25 65.29 324.10 69.02 324.62 72.50 C 325.15 75.98 325.52 78.29 325.88 84.12 C 326.23 89.96 326.65 90.31 326.75 107.50 C 326.85 124.69 326.46 173.85 326.50 187.25 C 326.54 200.65 326.69 187.75 327.00 187.88 C 327.31 188.00 324.77 188.00 328.38 188.00 C 331.98 188.00 345.17 187.98 348.62 187.88 C 352.08 187.77 348.92 192.48 349.12 187.38 C 349.33 182.27 349.69 162.40 349.88 157.25 C 350.06 152.10 350.23 160.12 350.25 156.50 C 350.27 152.88 349.71 144.17 350.00 135.50 C 350.29 126.83 351.31 112.67 352.00 104.50 C 352.69 96.33 353.46 91.06 354.12 86.50 C 354.79 81.94 355.10 80.31 356.00 77.12 C 356.90 73.94 358.88 70.10 359.50 67.38 C 360.12 64.65 359.88 62.25 359.75 60.75 C 359.62 59.25 359.21 59.15 358.75 58.38 C 358.29 57.60 357.90 57.04 357.00 56.12 C 356.10 55.21 354.75 53.90 353.38 52.88 C 352.00 51.85 350.50 50.94 348.75 50.00 C 347.00 49.06 345.62 48.23 342.88 47.25 C 340.12 46.27 335.81 44.65 332.25 44.12 C 328.69 43.60 323.77 43.96 321.50 44.12 Z" id="s-10-f-5"/>
<path d="M 321.50 44.12 C 319.23 44.29 319.35 44.75 318.62 45.12 C 317.90 45.50 317.42 45.71 317.12 46.38 C 316.83 47.04 316.71 47.79 316.88 49.12 C 317.04 50.46 317.33 52.52 318.12 54.38 C 318.92 56.23 320.85 58.77 321.62 60.25 C 322.40 61.73 322.25 61.21 322.75 63.25 C 323.25 65.29 324.12 69.29 324.62 72.50 C 325.12 75.71 325.40 76.67 325.75 82.50 C 326.10 88.33 326.54 97.98 326.75 107.50 C 326.96 117.02 326.90 134.21 327.00 139.62 C 327.10 145.04 323.62 139.90 327.38 140.00 C 331.12 140.10 345.69 140.31 349.50 140.25 C 353.31 140.19 350.17 140.42 350.25 139.62 C 350.33 138.83 349.52 143.19 350.00 135.50 C 350.48 127.81 352.12 103.23 353.12 93.50 C 354.12 83.77 354.94 81.48 356.00 77.12 C 357.06 72.77 358.88 70.10 359.50 67.38 C 360.12 64.65 359.88 62.25 359.75 60.75 C 359.62 59.25 359.21 59.15 358.75 58.38 C 358.29 57.60 357.90 57.04 357.00 56.12 C 356.10 55.21 354.75 53.90 353.38 52.88 C 352.00 51.85 350.50 50.94 348.75 50.00 C 347.00 49.06 345.62 48.23 342.88 47.25 C 340.12 46.27 335.81 44.65 332.25 44.12 C 328.69 43.60 323.77 43.96 321.50 44.12 Z" id="s-10-f-6"/>
<path d="M 317.88 45.75 C 317.10 46.29 317.00 46.42 316.88 47.38 C 316.75 48.33 316.92 50.33 317.12 51.50 C 317.33 52.67 317.35 52.88 318.12 54.38 C 318.90 55.88 320.81 58.35 321.75 60.50 C 322.69 62.65 323.08 63.58 323.75 67.25 C 324.42 70.92 325.35 78.48 325.75 82.50 C 326.15 86.52 325.98 89.81 326.12 91.38 C 326.27 92.94 322.10 91.81 326.62 91.88 C 331.15 91.94 348.35 94.21 353.25 91.75 C 358.15 89.29 354.92 81.40 356.00 77.12 C 357.08 72.85 359.12 68.85 359.75 66.12 C 360.38 63.40 359.98 62.12 359.75 60.75 C 359.52 59.38 359.17 58.96 358.38 57.88 C 357.58 56.79 356.31 55.40 355.00 54.25 C 353.69 53.10 352.52 52.17 350.50 51.00 C 348.48 49.83 345.17 48.23 342.88 47.25 C 340.58 46.27 338.67 45.67 336.75 45.12 C 334.83 44.58 333.92 44.17 331.38 44.00 C 328.83 43.83 323.75 43.83 321.50 44.12 C 319.25 44.42 318.65 45.21 317.88 45.75 Z" id="s-10-f-7"/>
</g>
<g id="s-11" clip-path="url(#c-s-11)">
<use href="#s-11-f-0"/>
<path d="M 326.00 208.50 C 325.85 208.60 325.04 208.65 324.75 209.00 C 324.46 209.35 324.42 210.33 324.25 210.62 C 324.08 210.92 323.88 210.46 323.75 210.75 C 323.62 211.04 323.69 211.96 323.50 212.38 C 323.31 212.79 322.81 212.85 322.62 213.25 C 322.44 213.65 322.54 214.40 322.38 214.75 C 322.21 215.10 321.79 215.02 321.62 215.38 C 321.46 215.73 321.71 216.12 321.38 216.88 C 321.04 217.62 319.94 219.12 319.62 219.88 C 319.31 220.62 319.67 220.98 319.50 221.38 C 319.33 221.77 318.98 221.50 318.62 222.25 C 318.27 223.00 317.71 225.15 317.38 225.88 C 317.04 226.60 316.75 226.17 316.62 226.62 C 316.50 227.08 316.77 227.77 316.62 228.62 C 316.48 229.48 316.42 229.98 315.75 231.75 C 315.08 233.52 316.17 233.31 312.62 239.25 C 309.08 245.19 299.52 260.02 294.50 267.38 C 289.48 274.73 286.23 278.77 282.50 283.38 C 278.77 287.98 276.10 290.85 272.12 295.00 C 268.15 299.15 265.48 301.94 258.62 308.25 C 251.77 314.56 235.65 327.83 231.00 332.88 C 226.35 337.92 230.73 337.42 230.75 338.50 C 230.77 339.58 229.73 339.67 231.12 339.38 C 232.52 339.08 235.12 338.38 239.12 336.75 C 243.12 335.12 250.77 331.77 255.12 329.62 C 259.48 327.48 261.56 326.17 265.25 323.88 C 268.94 321.58 273.67 318.50 277.25 315.88 C 280.83 313.25 283.40 311.15 286.75 308.12 C 290.10 305.10 292.96 302.73 297.38 297.75 C 301.79 292.77 308.79 284.19 313.25 278.25 C 317.71 272.31 322.15 264.96 324.12 262.12 C 326.10 259.29 324.81 264.62 325.12 261.25 C 325.44 257.88 325.81 250.33 326.00 241.88 C 326.19 233.42 326.31 216.08 326.25 210.50 C 326.19 204.92 325.67 208.71 325.62 208.38 C 325.58 208.04 326.15 208.40 326.00 208.50 Z" id="s-11-f-1"/>
<path d="M 325.75 208.38 C 325.73 208.06 326.29 208.52 326.12 208.62 C 325.96 208.73 325.06 208.67 324.75 209.00 C 324.44 209.33 324.42 210.33 324.25 210.62 C 324.08 210.92 323.88 210.46 323.75 210.75 C 323.62 211.04 323.69 211.96 323.50 212.38 C 323.31 212.79 322.81 212.85 322.62 213.25 C 322.44 213.65 322.54 214.40 322.38 214.75 C 322.21 215.10 321.79 215.02 321.62 215.38 C 321.46 215.73 321.71 216.12 321.38 216.88 C 321.04 217.62 319.94 219.12 319.62 219.88 C 319.31 220.62 319.67 220.98 319.50 221.38 C 319.33 221.77 318.98 221.50 318.62 222.25 C 318.27 223.00 317.71 225.15 317.38 225.88 C 317.04 226.60 316.75 226.17 316.62 226.62 C 316.50 227.08 316.77 227.77 316.62 228.62 C 316.48 229.48 316.42 229.98 315.75 231.75 C 315.08 233.52 316.17 233.31 312.62 239.25 C 309.08 245.19 298.69 261.08 294.50 267.38 C 290.31 273.67 290.10 273.62 287.50 277.00 C 284.90 280.38 280.33 281.75 278.88 287.62 C 277.42 293.50 278.71 307.85 278.75 312.25 C 278.79 316.65 278.44 314.12 279.12 314.00 C 279.81 313.88 281.08 312.94 282.88 311.50 C 284.67 310.06 287.46 307.67 289.88 305.38 C 292.29 303.08 293.73 301.94 297.38 297.75 C 301.02 293.56 307.29 286.19 311.75 280.25 C 316.21 274.31 321.90 265.29 324.12 262.12 C 326.35 258.96 324.79 265.90 325.12 261.25 C 325.46 256.60 325.94 242.71 326.12 234.25 C 326.31 225.79 326.31 214.81 326.25 210.50 C 326.19 206.19 325.77 208.69 325.75 208.38 Z" id="s-11-f-2"/>
</g>
<g id="s-12" clip-path="url(#c-s-12)">
<use href="#s-12-f-0"/>
<path d="M 347.88 251.12 C 347.42 251.10 347.52 249.65 347.50 252.00 C 347.48 254.35 343.62 259.02 347.75 265.25 C 351.88 271.48 365.31 282.38 372.25 289.38 C 379.19 296.38 383.33 300.73 389.38 307.25 C 395.42 313.77 401.96 320.85 408.50 328.50 C 415.04 336.15 424.67 348.52 428.62 353.12 C 432.58 357.73 431.15 355.38 432.25 356.12 C 433.35 356.88 434.15 357.33 435.25 357.62 C 436.35 357.92 437.52 358.02 438.88 357.88 C 440.23 357.73 442.54 357.06 443.38 356.75 C 444.21 356.44 443.77 356.48 443.88 356.00 C 443.98 355.52 444.00 359.23 444.00 353.88 C 444.00 348.52 444.52 329.73 443.88 323.88 C 443.23 318.02 442.92 321.79 440.12 318.75 C 437.33 315.71 432.12 310.10 427.12 305.62 C 422.12 301.15 417.96 297.65 410.12 291.88 C 402.29 286.10 390.10 277.62 380.12 271.00 C 370.15 264.38 355.62 255.44 350.25 252.12 C 344.88 248.81 348.33 251.15 347.88 251.12 Z" id="s-12-f-1"/>
<path d="M 347.88 251.12 C 347.69 251.27 347.52 249.65 347.50 252.00 C 347.48 254.35 343.62 259.02 347.75 265.25 C 351.88 271.48 364.38 281.31 372.25 289.38 C 380.12 297.44 391.08 309.56 395.00 313.62 C 398.92 317.69 395.58 318.65 395.75 313.75 C 395.92 308.85 396.02 289.56 396.00 284.25 C 395.98 278.94 399.04 284.58 395.62 281.88 C 392.21 279.17 383.33 273.12 375.50 268.00 C 367.67 262.88 353.23 253.94 348.62 251.12 C 344.02 248.31 348.06 250.98 347.88 251.12 Z" id="s-12-f-2"/>
</g>
</svg>