<?xml version="1.0" encoding="UTF-8"?>
<svg xmlns="http://www.w3.org/2000/svg" viewBox="0 0 500 500">
<defs>
<path d="M 195.75 37.88 C 194.31 37.69 197.23 36.56 192.62 38.00 C 188.02 39.44 174.71 44.38 168.12 46.50 C 161.54 48.62 158.40 49.38 153.12 50.75 C 147.85 52.12 143.15 53.38 136.50 54.75 C 129.85 56.12 117.44 58.15 113.25 59.00 C 109.06 59.85 111.75 59.52 111.38 59.88 C 111.00 60.23 110.94 60.67 111.00 61.12 C 111.06 61.58 111.19 62.02 111.75 62.62 C 112.31 63.23 113.10 63.94 114.38 64.75 C 115.65 65.56 117.71 66.83 119.38 67.50 C 121.04 68.17 121.65 68.54 124.38 68.75 C 127.10 68.96 126.35 69.71 135.75 68.75 C 145.15 67.79 172.62 63.94 180.75 63.00 C 188.88 62.06 183.50 62.85 184.50 63.12 C 185.50 63.40 186.06 63.92 186.75 64.62 C 187.44 65.33 188.12 65.60 188.62 67.38 C 189.12 69.15 189.46 72.23 189.75 75.25 C 190.04 78.27 190.21 78.40 190.38 85.50 C 190.54 92.60 190.85 109.06 190.75 117.88 C 190.65 126.69 190.10 133.48 189.75 138.38 C 189.40 143.27 189.00 144.96 188.62 147.25 C 188.25 149.54 188.00 150.75 187.50 152.12 C 187.00 153.50 186.19 154.67 185.62 155.50 C 185.06 156.33 184.81 156.60 184.12 157.12 C 183.44 157.65 182.81 158.38 181.50 158.62 C 180.19 158.88 179.56 158.92 176.25 158.62 C 172.94 158.33 165.21 157.17 161.62 156.88 C 158.04 156.58 156.04 156.79 154.75 156.88 C 153.46 156.96 154.00 156.90 153.88 157.38 C 153.75 157.85 153.88 159.19 154.00 159.75 C 154.12 160.31 153.79 160.00 154.62 160.75 C 155.46 161.50 156.65 161.56 159.00 164.25 C 161.35 166.94 165.27 172.02 168.75 176.88 C 172.23 181.73 177.33 189.83 179.88 193.38 C 182.42 196.92 182.94 197.06 184.00 198.12 C 185.06 199.19 185.42 199.48 186.25 199.75 C 187.08 200.02 188.12 199.92 189.00 199.75 C 189.88 199.58 190.62 199.25 191.50 198.75 C 192.38 198.25 193.08 197.85 194.25 196.75 C 195.42 195.65 197.06 194.04 198.50 192.12 C 199.94 190.21 201.67 187.33 202.88 185.25 C 204.08 183.17 204.77 181.81 205.75 179.62 C 206.73 177.44 207.94 174.54 208.75 172.12 C 209.56 169.71 209.96 168.85 210.62 165.12 C 211.29 161.40 212.35 160.27 212.75 149.75 C 213.15 139.23 212.79 112.67 213.00 102.00 C 213.21 91.33 213.50 90.94 214.00 85.75 C 214.50 80.56 215.33 74.73 216.00 70.88 C 216.67 67.02 217.38 64.58 218.00 62.62 C 218.62 60.67 219.27 60.52 219.75 59.12 C 220.23 57.73 220.73 55.67 220.88 54.25 C 221.02 52.83 221.38 52.04 220.62 50.62 C 219.88 49.21 217.83 46.98 216.38 45.75 C 214.92 44.52 214.40 44.35 211.88 43.25 C 209.35 42.15 203.94 40.02 201.25 39.12 C 198.56 38.23 197.19 38.06 195.75 37.88 Z" id="s-0-f-0"/>
<clipPath id="c-s-0"><use href="#s-0-f-0"/></clipPath>
<path d="M 105.75 80.00 C 104.90 80.12 105.12 80.25 105.00 80.75 C 104.88 81.25 103.98 81.48 105.00 83.00 C 106.02 84.52 107.00 84.69 111.12 89.88 C 115.25 95.06 125.69 109.15 129.75 114.12 C 133.81 119.10 133.98 118.81 135.50 119.75 C 137.02 120.69 137.75 120.08 138.88 119.75 C 140.00 119.42 141.10 118.98 142.25 117.75 C 143.40 116.52 144.83 114.40 145.75 112.38 C 146.67 110.35 147.40 107.56 147.75 105.62 C 148.10 103.69 147.94 101.96 147.88 100.75 C 147.81 99.54 147.98 99.50 147.38 98.38 C 146.77 97.25 145.71 95.40 144.25 94.00 C 142.79 92.60 142.33 91.81 138.62 90.00 C 134.92 88.19 126.75 84.79 122.00 83.12 C 117.25 81.46 112.83 80.52 110.12 80.00 C 107.42 79.48 106.60 79.88 105.75 80.00 Z" id="s-1-f-0"/>
<clipPath id="c-s-1"><use href="#s-1-f-0"/></clipPath>
<path d="M 184.75 110.75 C 184.65 110.10 184.48 110.12 184.00 110.00 C 183.52 109.88 182.98 109.56 181.88 110.00 C 180.77 110.44 181.54 110.52 177.38 112.62 C 173.21 114.73 164.92 118.98 156.88 122.62 C 148.83 126.27 137.35 131.48 129.12 134.50 C 120.90 137.52 114.02 139.29 107.50 140.75 C 100.98 142.21 93.10 142.67 90.00 143.25 C 86.90 143.83 89.21 143.77 88.88 144.25 C 88.54 144.73 88.12 145.02 88.00 146.12 C 87.88 147.23 87.54 149.12 88.12 150.88 C 88.71 152.62 90.19 154.77 91.50 156.62 C 92.81 158.48 94.44 160.35 96.00 162.00 C 97.56 163.65 99.33 165.21 100.88 166.50 C 102.42 167.79 103.73 168.85 105.25 169.75 C 106.77 170.65 108.62 171.54 110.00 171.88 C 111.38 172.21 112.31 171.94 113.50 171.75 C 114.69 171.56 115.79 171.25 117.12 170.75 C 118.46 170.25 119.71 169.79 121.50 168.75 C 123.29 167.71 122.65 168.62 127.88 164.50 C 133.10 160.38 146.42 149.17 152.88 144.00 C 159.33 138.83 163.08 136.35 166.62 133.50 C 170.17 130.65 171.48 129.44 174.12 126.88 C 176.77 124.31 180.75 120.29 182.50 118.12 C 184.25 115.96 184.25 115.10 184.62 113.88 C 185.00 112.65 184.85 111.40 184.75 110.75 Z" id="s-2-f-0"/>
<clipPath id="c-s-2"><use href="#s-2-f-0"/></clipPath>
<path d="M 336.75 27.88 C 335.42 27.71 334.73 27.81 333.62 28.00 C 332.52 28.19 333.48 27.73 330.12 29.00 C 326.77 30.27 319.38 33.50 313.50 35.62 C 307.62 37.75 300.62 40.06 294.88 41.75 C 289.12 43.44 284.94 44.50 279.00 45.75 C 273.06 47.00 263.46 48.38 259.25 49.25 C 255.04 50.12 254.98 50.44 253.75 51.00 C 252.52 51.56 252.06 52.00 251.88 52.62 C 251.69 53.25 251.88 53.90 252.62 54.75 C 253.38 55.60 255.06 56.92 256.38 57.75 C 257.69 58.58 259.12 59.25 260.50 59.75 C 261.88 60.25 262.29 60.58 264.62 60.75 C 266.96 60.92 271.35 60.94 274.50 60.75 C 277.65 60.56 277.06 60.75 283.50 59.62 C 289.94 58.50 306.25 55.10 313.12 54.00 C 320.00 52.90 322.54 53.04 324.75 53.00 C 326.96 52.96 325.75 53.15 326.38 53.75 C 327.00 54.35 327.77 53.88 328.50 56.62 C 329.23 59.38 330.23 65.75 330.75 70.25 C 331.27 74.75 331.46 76.94 331.62 83.62 C 331.79 90.31 331.90 101.92 331.75 110.38 C 331.60 118.83 331.06 128.90 330.75 134.38 C 330.44 139.85 330.35 140.21 329.88 143.25 C 329.40 146.29 328.50 150.58 327.88 152.62 C 327.25 154.67 326.83 154.65 326.12 155.50 C 325.42 156.35 324.52 157.21 323.62 157.75 C 322.73 158.29 324.56 158.90 320.75 158.75 C 316.94 158.60 305.25 157.19 300.75 156.88 C 296.25 156.56 295.06 156.79 293.75 156.88 C 292.44 156.96 292.94 156.75 292.88 157.38 C 292.81 158.00 291.31 157.90 293.38 160.62 C 295.44 163.35 300.77 168.23 305.25 173.75 C 309.73 179.27 316.96 189.58 320.25 193.75 C 323.54 197.92 323.81 197.73 325.00 198.75 C 326.19 199.77 326.56 199.71 327.38 199.88 C 328.19 200.04 328.96 200.02 329.88 199.75 C 330.79 199.48 331.40 199.54 332.88 198.25 C 334.35 196.96 336.62 195.02 338.75 192.00 C 340.88 188.98 343.98 183.40 345.62 180.12 C 347.27 176.85 347.79 174.83 348.62 172.38 C 349.46 169.92 349.94 169.04 350.62 165.38 C 351.31 161.71 352.33 163.04 352.75 150.38 C 353.17 137.71 352.58 103.44 353.12 89.38 C 353.67 75.31 354.71 73.46 356.00 66.00 C 357.29 58.54 360.10 48.85 360.88 44.62 C 361.65 40.40 361.35 42.08 360.62 40.62 C 359.90 39.17 357.69 36.98 356.50 35.88 C 355.31 34.77 355.98 35.15 353.50 34.00 C 351.02 32.85 344.42 30.02 341.62 29.00 C 338.83 27.98 338.08 28.04 336.75 27.88 Z" id="s-3-f-0"/>
<clipPath id="c-s-3"><use href="#s-3-f-0"/></clipPath>
<path d="M 250.50 73.12 C 248.98 73.25 250.06 73.44 250.00 73.88 C 249.94 74.31 249.21 74.33 250.12 75.75 C 251.04 77.17 251.46 76.77 255.50 82.38 C 259.54 87.98 270.96 104.65 274.38 109.38 C 277.79 114.10 275.29 110.33 276.00 110.75 C 276.71 111.17 277.67 111.73 278.62 111.88 C 279.58 112.02 280.65 112.02 281.75 111.62 C 282.85 111.23 284.23 110.38 285.25 109.50 C 286.27 108.62 287.15 107.56 287.88 106.38 C 288.60 105.19 289.15 103.81 289.62 102.38 C 290.10 100.94 290.54 99.33 290.75 97.75 C 290.96 96.17 290.94 94.10 290.88 92.88 C 290.81 91.65 290.98 91.52 290.38 90.38 C 289.77 89.23 288.38 87.21 287.25 86.00 C 286.12 84.79 284.96 83.98 283.62 83.12 C 282.29 82.27 283.33 82.54 279.25 80.88 C 275.17 79.21 263.92 74.42 259.12 73.12 C 254.33 71.83 252.02 73.00 250.50 73.12 Z" id="s-4-f-0"/>
<clipPath id="c-s-4"><use href="#s-4-f-0"/></clipPath>
<path d="M 321.75 108.75 C 321.62 108.17 321.44 108.12 321.00 108.00 C 320.56 107.88 320.10 107.54 319.12 108.00 C 318.15 108.46 318.75 108.98 315.12 110.75 C 311.50 112.52 305.50 115.46 297.38 118.62 C 289.25 121.79 274.06 127.23 266.38 129.75 C 258.69 132.27 255.60 132.88 251.25 133.75 C 246.90 134.62 242.46 134.42 240.25 135.00 C 238.04 135.58 238.35 136.25 238.00 137.25 C 237.65 138.25 237.35 139.17 238.12 141.00 C 238.90 142.83 241.17 146.25 242.62 148.25 C 244.08 150.25 245.25 151.42 246.88 153.00 C 248.50 154.58 250.54 156.46 252.38 157.75 C 254.21 159.04 256.25 160.25 257.88 160.75 C 259.50 161.25 260.94 160.92 262.12 160.75 C 263.31 160.58 263.50 160.58 265.00 159.75 C 266.50 158.92 265.00 160.40 271.12 155.75 C 277.25 151.10 295.42 136.90 301.75 131.88 C 308.08 126.85 306.12 128.42 309.12 125.62 C 312.12 122.83 317.65 117.48 319.75 115.12 C 321.85 112.77 321.42 112.56 321.75 111.50 C 322.08 110.44 321.88 109.33 321.75 108.75 Z" id="s-5-f-0"/>
<clipPath id="c-s-5"><use href="#s-5-f-0"/></clipPath>
<path d="M 217.75 161.00 C 216.81 161.23 216.98 161.65 216.88 162.38 C 216.77 163.10 216.25 162.52 217.12 165.38 C 218.00 168.23 220.65 175.65 222.12 179.50 C 223.60 183.35 224.25 185.25 226.00 188.50 C 227.75 191.75 230.88 196.58 232.62 199.00 C 234.38 201.42 235.56 202.17 236.50 203.00 C 237.44 203.83 236.23 204.00 238.25 204.00 C 240.27 204.00 246.69 203.31 248.62 203.00 C 250.56 202.69 249.19 203.00 249.88 202.12 C 250.56 201.25 252.10 199.08 252.75 197.75 C 253.40 196.42 253.62 196.31 253.75 194.12 C 253.88 191.94 253.69 186.79 253.50 184.62 C 253.31 182.46 253.10 182.50 252.62 181.12 C 252.15 179.75 252.02 178.08 250.62 176.38 C 249.23 174.67 246.90 172.75 244.25 170.88 C 241.60 169.00 237.65 166.60 234.75 165.12 C 231.85 163.65 228.92 162.69 226.88 162.00 C 224.83 161.31 224.02 161.17 222.50 161.00 C 220.98 160.83 218.69 160.77 217.75 161.00 Z" id="s-6-f-0"/>
<clipPath id="c-s-6"><use href="#s-6-f-0"/></clipPath>
<path d="M 317.88 206.00 C 317.71 205.25 317.54 204.35 316.75 203.38 C 315.96 202.40 314.98 201.19 313.12 200.12 C 311.27 199.06 308.56 198.00 305.62 197.00 C 302.69 196.00 298.50 194.62 295.50 194.12 C 292.50 193.62 292.10 193.23 287.62 194.00 C 283.15 194.77 274.94 197.31 268.62 198.75 C 262.31 200.19 254.17 201.96 249.75 202.62 C 245.33 203.29 245.00 202.40 242.12 202.75 C 239.25 203.10 238.62 203.75 232.50 204.75 C 226.38 205.75 212.90 207.75 205.38 208.75 C 197.85 209.75 193.52 210.19 187.38 210.75 C 181.23 211.31 172.56 211.75 168.50 212.12 C 164.44 212.50 164.38 212.67 163.00 213.00 C 161.62 213.33 160.75 213.60 160.25 214.12 C 159.75 214.65 159.73 215.35 160.00 216.12 C 160.27 216.90 161.06 217.85 161.88 218.75 C 162.69 219.65 163.50 220.54 164.88 221.50 C 166.25 222.46 167.42 223.65 170.12 224.50 C 172.83 225.35 178.02 226.21 181.12 226.62 C 184.23 227.04 180.75 227.50 188.75 227.00 C 196.75 226.50 217.83 224.67 229.12 223.62 C 240.42 222.58 250.08 221.50 256.50 220.75 C 262.92 220.00 264.81 219.42 267.62 219.12 C 270.44 218.83 271.94 219.15 273.38 219.00 C 274.81 218.85 273.88 218.60 276.25 218.25 C 278.62 217.90 283.06 217.62 287.62 216.88 C 292.19 216.12 299.21 214.77 303.62 213.75 C 308.04 212.73 311.77 211.73 314.12 210.75 C 316.48 209.77 317.12 208.67 317.75 207.88 C 318.38 207.08 318.04 206.75 317.88 206.00 Z" id="s-7-f-0"/>
<clipPath id="c-s-7"><use href="#s-7-f-0"/></clipPath>
<path d="M 186.38 226.38 C 185.29 226.65 185.77 226.71 186.00 227.25 C 186.23 227.79 186.79 227.90 187.75 229.62 C 188.71 231.35 189.92 233.48 191.75 237.62 C 193.58 241.77 197.04 250.17 198.75 254.50 C 200.46 258.83 200.81 260.75 202.00 263.62 C 203.19 266.50 204.44 270.38 205.88 271.75 C 207.31 273.12 208.50 271.98 210.62 271.88 C 212.75 271.77 217.06 271.33 218.62 271.12 C 220.19 270.92 219.50 271.27 220.00 270.62 C 220.50 269.98 221.17 268.50 221.62 267.25 C 222.08 266.00 222.56 265.04 222.75 263.12 C 222.94 261.21 222.94 257.83 222.75 255.75 C 222.56 253.67 222.29 252.54 221.62 250.62 C 220.96 248.71 219.54 245.79 218.75 244.25 C 217.96 242.71 217.98 242.79 216.88 241.38 C 215.77 239.96 213.56 237.31 212.12 235.75 C 210.69 234.19 210.42 233.69 208.25 232.00 C 206.08 230.31 201.75 226.69 199.12 225.62 C 196.50 224.56 194.62 225.50 192.50 225.62 C 190.38 225.75 187.46 226.10 186.38 226.38 Z" id="s-8-f-0"/>
<clipPath id="c-s-8"><use href="#s-8-f-0"/></clipPath>
<path d="M 293.25 215.75 C 292.21 215.44 289.65 215.52 288.50 215.62 C 287.35 215.73 288.73 216.02 286.38 216.38 C 284.02 216.73 276.79 217.38 274.38 217.75 C 271.96 218.12 272.12 216.90 271.88 218.62 C 271.62 220.35 272.77 225.58 272.88 228.12 C 272.98 230.67 273.02 230.35 272.50 233.88 C 271.98 237.40 270.69 245.00 269.75 249.25 C 268.81 253.50 267.67 256.94 266.88 259.38 C 266.08 261.81 265.25 262.94 265.00 263.88 C 264.75 264.81 263.19 265.17 265.38 265.00 C 267.56 264.83 274.81 264.44 278.12 262.88 C 281.44 261.31 282.81 258.38 285.25 255.62 C 287.69 252.88 290.31 249.75 292.75 246.38 C 295.19 243.00 297.90 238.17 299.88 235.38 C 301.85 232.58 303.81 231.00 304.62 229.62 C 305.44 228.25 305.19 228.21 304.75 227.12 C 304.31 226.04 303.23 224.46 302.00 223.12 C 300.77 221.79 298.58 220.06 297.38 219.12 C 296.17 218.19 295.44 218.06 294.75 217.50 C 294.06 216.94 294.29 216.06 293.25 215.75 Z" id="s-9-f-0"/>
<clipPath id="c-s-9"><use href="#s-9-f-0"/></clipPath>
<path d="M 356.88 273.12 C 356.73 272.42 356.56 271.88 355.88 271.00 C 355.19 270.12 354.21 269.04 352.75 267.88 C 351.29 266.71 348.96 265.12 347.12 264.00 C 345.29 262.88 344.92 262.44 341.75 261.12 C 338.58 259.81 331.12 257.00 328.12 256.12 C 325.12 255.25 326.15 255.71 323.75 255.88 C 321.35 256.04 319.69 256.15 313.75 257.12 C 307.81 258.10 293.77 260.83 288.12 261.75 C 282.48 262.67 282.15 262.48 279.88 262.62 C 277.60 262.77 275.77 262.50 274.50 262.62 C 273.23 262.75 273.56 263.17 272.25 263.38 C 270.94 263.58 267.71 263.65 266.62 263.88 C 265.54 264.10 273.06 263.65 265.75 264.75 C 258.44 265.85 231.71 269.52 222.75 270.50 C 213.79 271.48 218.56 269.92 212.00 270.62 C 205.44 271.33 195.56 273.19 183.38 274.75 C 171.19 276.31 146.83 278.94 138.88 280.00 C 130.92 281.06 136.56 280.65 135.62 281.12 C 134.69 281.60 133.71 282.33 133.25 282.88 C 132.79 283.42 132.79 283.81 132.88 284.38 C 132.96 284.94 133.12 285.52 133.75 286.25 C 134.38 286.98 134.31 287.50 136.62 288.75 C 138.94 290.00 144.79 292.58 147.62 293.75 C 150.46 294.92 151.88 295.27 153.62 295.75 C 155.38 296.23 156.27 296.44 158.12 296.62 C 159.98 296.81 157.15 297.81 164.75 296.88 C 172.35 295.94 193.77 292.35 203.75 291.00 C 213.73 289.65 216.83 289.75 224.62 288.75 C 232.42 287.75 238.40 286.15 250.50 285.00 C 262.60 283.85 281.23 282.75 297.25 281.88 C 313.27 281.00 337.46 280.29 346.62 279.75 C 355.79 279.21 350.98 278.96 352.25 278.62 C 353.52 278.29 353.50 278.31 354.25 277.75 C 355.00 277.19 356.31 276.02 356.75 275.25 C 357.19 274.48 357.02 273.83 356.88 273.12 Z" id="s-10-f-0"/>
<clipPath id="c-s-10"><use href="#s-10-f-0"/></clipPath>
<path d="M 205.12 290.50 C 204.29 293.42 204.15 303.44 203.75 307.12 C 203.35 310.81 203.27 310.46 202.75 312.62 C 202.23 314.79 201.92 316.71 200.62 320.12 C 199.33 323.54 196.67 328.92 195.00 333.12 C 193.33 337.33 192.17 341.73 190.62 345.38 C 189.08 349.02 187.73 351.52 185.75 355.00 C 183.77 358.48 181.21 362.85 178.75 366.25 C 176.29 369.65 172.46 373.33 171.00 375.38 C 169.54 377.42 170.17 377.25 170.00 378.50 C 169.83 379.75 169.67 381.58 170.00 382.88 C 170.33 384.17 171.38 385.46 172.00 386.25 C 172.62 387.04 172.65 387.06 173.75 387.62 C 174.85 388.19 175.40 388.90 178.62 389.62 C 181.85 390.35 187.81 390.90 193.12 392.00 C 198.44 393.10 205.65 394.92 210.50 396.25 C 215.35 397.58 218.17 398.54 222.25 400.00 C 226.33 401.46 230.27 402.85 235.00 405.00 C 239.73 407.15 246.46 410.88 250.62 412.88 C 254.79 414.88 255.58 414.77 260.00 417.00 C 264.42 419.23 270.25 422.27 277.12 426.25 C 284.00 430.23 294.94 436.94 301.25 440.88 C 307.56 444.81 309.23 445.90 315.00 449.88 C 320.77 453.85 331.62 461.81 335.88 464.75 C 340.12 467.69 338.92 466.69 340.50 467.50 C 342.08 468.31 343.90 469.08 345.38 469.62 C 346.85 470.17 347.44 470.58 349.38 470.75 C 351.31 470.92 354.98 471.02 357.00 470.62 C 359.02 470.23 360.40 469.21 361.50 468.38 C 362.60 467.54 363.10 466.50 363.62 465.62 C 364.15 464.75 364.44 464.83 364.62 463.12 C 364.81 461.42 365.08 457.73 364.75 455.38 C 364.42 453.02 363.62 451.10 362.62 449.00 C 361.62 446.90 359.88 444.38 358.75 442.75 C 357.62 441.12 358.02 441.40 355.88 439.25 C 353.73 437.10 349.17 432.58 345.88 429.88 C 342.58 427.17 339.54 425.15 336.12 423.00 C 332.71 420.85 328.88 418.81 325.38 417.00 C 321.88 415.19 319.77 414.12 315.12 412.12 C 310.48 410.12 304.04 407.23 297.50 405.00 C 290.96 402.77 280.29 400.10 275.88 398.75 C 271.46 397.40 275.44 398.19 271.00 396.88 C 266.56 395.56 253.21 391.90 249.25 390.88 C 245.29 389.85 249.88 391.35 247.25 390.75 C 244.62 390.15 239.46 388.50 233.50 387.25 C 227.54 386.00 217.19 384.17 211.50 383.25 C 205.81 382.33 201.92 382.15 199.38 381.75 C 196.83 381.35 197.17 381.29 196.25 380.88 C 195.33 380.46 194.42 379.77 193.88 379.25 C 193.33 378.73 193.15 378.25 193.00 377.75 C 192.85 377.25 192.81 376.96 193.00 376.25 C 193.19 375.54 192.48 375.96 194.12 373.50 C 195.77 371.04 198.92 367.50 202.88 361.50 C 206.83 355.50 214.17 343.65 217.88 337.50 C 221.58 331.35 223.15 327.81 225.12 324.62 C 227.10 321.44 228.40 320.42 229.75 318.38 C 231.10 316.33 231.92 314.31 233.25 312.38 C 234.58 310.44 236.67 308.40 237.75 306.75 C 238.83 305.10 239.42 303.83 239.75 302.50 C 240.08 301.17 239.94 299.77 239.75 298.75 C 239.56 297.73 239.69 297.67 238.62 296.38 C 237.56 295.08 234.81 292.25 233.38 291.00 C 231.94 289.75 230.69 289.42 230.00 288.88 C 229.31 288.33 230.12 287.96 229.25 287.75 C 228.38 287.54 226.00 287.52 224.75 287.62 C 223.50 287.73 224.42 288.04 221.75 288.38 C 219.08 288.71 211.52 289.27 208.75 289.62 C 205.98 289.98 205.96 287.58 205.12 290.50 Z" id="s-11-f-0"/>
<clipPath id="c-s-11"><use href="#s-11-f-0"/></clipPath>
<path d="M 310.75 315.38 C 309.94 314.27 308.56 312.69 307.00 311.12 C 305.44 309.56 304.17 308.04 301.38 306.00 C 298.58 303.96 293.12 300.40 290.25 298.88 C 287.38 297.35 285.90 297.19 284.12 296.88 C 282.35 296.56 280.81 296.79 279.62 297.00 C 278.44 297.21 277.75 297.56 277.00 298.12 C 276.25 298.69 275.48 299.48 275.12 300.38 C 274.77 301.27 274.88 302.77 274.88 303.50 C 274.88 304.23 274.62 303.81 275.12 304.75 C 275.62 305.69 277.31 307.98 277.88 309.12 C 278.44 310.27 278.33 309.73 278.50 311.62 C 278.67 313.52 279.31 316.52 278.88 320.50 C 278.44 324.48 276.40 332.52 275.88 335.50 C 275.35 338.48 276.44 335.65 275.75 338.38 C 275.06 341.10 273.10 348.10 271.75 351.88 C 270.40 355.65 270.00 356.54 267.62 361.00 C 265.25 365.46 260.67 373.81 257.50 378.62 C 254.33 383.44 250.54 387.67 248.62 389.88 C 246.71 392.08 246.71 391.15 246.00 391.88 C 245.29 392.60 246.17 392.29 244.38 394.25 C 242.58 396.21 237.15 401.56 235.25 403.62 C 233.35 405.69 235.17 404.54 233.00 406.62 C 230.83 408.71 225.71 413.25 222.25 416.12 C 218.79 419.00 216.19 421.10 212.25 423.88 C 208.31 426.65 203.02 430.10 198.62 432.75 C 194.23 435.40 190.52 437.44 185.88 439.75 C 181.23 442.06 175.19 444.77 170.75 446.62 C 166.31 448.48 163.27 449.52 159.25 450.88 C 155.23 452.23 152.42 453.23 146.62 454.75 C 140.83 456.27 128.77 458.75 124.50 460.00 C 120.23 461.25 121.56 461.67 121.00 462.25 C 120.44 462.83 119.56 462.77 121.12 463.50 C 122.69 464.23 125.96 466.08 130.38 466.62 C 134.79 467.17 141.60 467.06 147.62 466.75 C 153.65 466.44 160.81 465.60 166.50 464.75 C 172.19 463.90 176.94 462.83 181.75 461.62 C 186.56 460.42 190.77 459.15 195.38 457.50 C 199.98 455.85 204.92 453.88 209.38 451.75 C 213.83 449.62 218.48 446.92 222.12 444.75 C 225.77 442.58 227.23 441.71 231.25 438.75 C 235.27 435.79 241.83 430.77 246.25 427.00 C 250.67 423.23 255.60 418.06 257.75 416.12 C 259.90 414.19 258.85 415.65 259.12 415.38 C 259.40 415.10 257.08 417.25 259.38 414.50 C 261.67 411.75 270.58 401.69 272.88 398.88 C 275.17 396.06 272.15 399.10 273.12 397.62 C 274.10 396.15 276.98 392.58 278.75 390.00 C 280.52 387.42 281.42 386.27 283.75 382.12 C 286.08 377.98 290.19 370.58 292.75 365.12 C 295.31 359.67 296.94 354.35 299.12 349.38 C 301.31 344.40 303.75 340.31 305.88 335.25 C 308.00 330.19 310.88 321.92 311.88 319.00 C 312.88 316.08 312.06 318.35 311.88 317.75 C 311.69 317.15 311.56 316.48 310.75 315.38 Z" id="s-12-f-0"/>
<clipPath id="c-s-12"><use href="#s-12-f-0"/></clipPath>
<path d="M 434.88 333.12 C 434.83 332.19 434.94 332.19 434.50 331.25 C 434.06 330.31 433.15 328.71 432.25 327.50 C 431.35 326.29 430.79 325.58 429.12 324.00 C 427.46 322.42 424.48 319.67 422.25 318.00 C 420.02 316.33 417.81 315.15 415.75 314.00 C 413.69 312.85 411.77 311.92 409.88 311.12 C 407.98 310.33 406.15 309.62 404.38 309.25 C 402.60 308.88 403.33 308.46 399.25 308.88 C 395.17 309.29 386.71 311.04 379.88 311.75 C 373.04 312.46 369.31 312.12 358.25 313.12 C 347.19 314.12 322.35 317.00 313.50 317.75 C 304.65 318.50 306.96 317.52 305.12 317.62 C 303.29 317.73 306.38 318.02 302.50 318.38 C 298.62 318.73 285.92 319.33 281.88 319.75 C 277.83 320.17 284.60 320.33 278.25 320.88 C 271.90 321.42 252.31 322.35 243.75 323.00 C 235.19 323.65 231.38 324.48 226.88 324.75 C 222.38 325.02 218.98 324.52 216.75 324.62 C 214.52 324.73 215.83 325.21 213.50 325.38 C 211.17 325.54 205.19 325.42 202.75 325.62 C 200.31 325.83 199.58 326.67 198.88 326.62 C 198.17 326.58 198.75 325.33 198.50 325.38 C 198.25 325.42 209.17 325.65 197.38 326.88 C 185.58 328.10 149.00 331.23 127.75 332.75 C 106.50 334.27 80.10 335.29 69.88 336.00 C 59.65 336.71 67.19 336.69 66.38 337.00 C 65.56 337.31 65.42 337.48 65.00 337.88 C 64.58 338.27 64.00 338.69 63.88 339.38 C 63.75 340.06 63.92 341.17 64.25 342.00 C 64.58 342.83 64.96 343.35 65.88 344.38 C 66.79 345.40 66.96 346.06 69.75 348.12 C 72.54 350.19 79.46 354.81 82.62 356.75 C 85.79 358.69 86.83 358.96 88.75 359.75 C 90.67 360.54 92.08 361.15 94.12 361.50 C 96.17 361.85 98.23 362.02 101.00 361.88 C 103.77 361.73 107.79 361.17 110.75 360.62 C 113.71 360.08 116.15 359.40 118.75 358.62 C 121.35 357.85 123.04 356.94 126.38 356.00 C 129.71 355.06 131.92 354.33 138.75 353.00 C 145.58 351.67 158.98 349.31 167.38 348.00 C 175.77 346.69 184.33 345.60 189.12 345.12 C 193.92 344.65 194.62 345.25 196.12 345.12 C 197.62 345.00 195.29 344.73 198.12 344.38 C 200.96 344.02 210.60 343.08 213.12 343.00 C 215.65 342.92 213.48 343.46 213.25 343.88 C 213.02 344.29 211.94 345.19 211.75 345.50 C 211.56 345.81 211.85 345.98 212.12 345.75 C 212.40 345.52 213.15 344.65 213.38 344.12 C 213.60 343.60 213.12 343.00 213.50 342.62 C 213.88 342.25 213.94 342.02 215.62 341.88 C 217.31 341.73 219.56 342.06 223.62 341.75 C 227.69 341.44 231.79 340.62 240.00 340.00 C 248.21 339.38 264.02 338.31 272.88 338.00 C 281.73 337.69 288.96 338.12 293.12 338.12 C 297.29 338.12 295.79 338.21 297.88 338.00 C 299.96 337.79 302.35 337.15 305.62 336.88 C 308.90 336.60 310.29 336.52 317.50 336.38 C 324.71 336.23 338.98 335.90 348.88 336.00 C 358.77 336.10 370.52 336.69 376.88 337.00 C 383.23 337.31 382.85 337.38 387.00 337.88 C 391.15 338.38 396.52 339.06 401.75 340.00 C 406.98 340.94 414.06 342.88 418.38 343.50 C 422.69 344.12 425.67 343.85 427.62 343.75 C 429.58 343.65 429.19 343.46 430.12 342.88 C 431.06 342.29 432.48 341.25 433.25 340.25 C 434.02 339.25 434.48 338.06 434.75 336.88 C 435.02 335.69 434.92 334.06 434.88 333.12 Z" id="s-13-f-0"/>
<clipPath id="c-s-13"><use href="#s-13-f-0"/></clipPath>
</defs>
<g id="s-0" clip-path="url(#c-s-0)">
<use href="#s-0-f-0"/>
<path d="M 195.75 37.88 C 194.31 37.69 197.23 36.56 192.62 38.00 C 188.02 39.44 174.71 44.38 168.12 46.50 C 161.54 48.62 158.40 49.38 153.12 50.75 C 147.85 52.12 143.15 53.38 136.50 54.75 C 129.85 56.12 117.44 58.15 113.25 59.00 C 109.06 59.85 111.75 59.52 111.38 59.88 C 111.00 60.23 110.94 60.67 111.00 61.12 C 111.06 61.58 111.19 62.02 111.75 62.62 C 112.31 63.23 113.10 63.94 114.38 64.75 C 115.65 65.56 117.71 66.83 119.38 67.50 C 121.04 68.17 121.65 68.54 124.38 68.75 C 127.10 68.96 126.35 69.71 135.75 68.75 C 145.15 67.79 172.62 63.94 180.75 63.00 C 188.88 62.06 183.50 62.85 184.50 63.12 C 185.50 63.40 186.06 63.92 186.75 64.62 C 187.44 65.33 188.12 65.60 188.62 67.38 C 189.12 69.15 189.40 70.48 189.75 75.25 C 190.10 80.02 190.58 88.90 190.75 96.00 C 190.92 103.10 190.90 111.08 190.75 117.88 C 190.60 124.67 190.23 131.85 189.88 136.75 C 189.52 141.65 189.27 143.96 188.62 147.25 C 187.98 150.54 187.33 149.71 186.00 156.50 C 184.67 163.29 181.65 182.35 180.62 188.00 C 179.60 193.65 179.96 189.48 179.88 190.38 C 179.79 191.27 179.44 192.08 180.12 193.38 C 180.81 194.67 182.98 197.06 184.00 198.12 C 185.02 199.19 185.42 199.48 186.25 199.75 C 187.08 200.02 188.12 199.92 189.00 199.75 C 189.88 199.58 190.62 199.25 191.50 198.75 C 192.38 198.25 193.08 197.85 194.25 196.75 C 195.42 195.65 197.06 194.04 198.50 192.12 C 199.94 190.21 201.67 187.33 202.88 185.25 C 204.08 183.17 204.77 181.81 205.75 179.62 C 206.73 177.44 207.94 174.54 208.75 172.12 C 209.56 169.71 209.96 168.85 210.62 165.12 C 211.29 161.40 212.35 160.27 212.75 149.75 C 213.15 139.23 212.79 112.67 213.00 102.00 C 213.21 91.33 213.50 90.94 214.00 85.75 C 214.50 80.56 215.33 74.73 216.00 70.88 C 216.67 67.02 217.38 64.58 218.00 62.62 C 218.62 60.67 219.27 60.52 219.75 59.12 C 220.23 57.73 220.73 55.67 220.88 54.25 C 221.02 52.83 221.38 52.04 220.62 50.62 C 219.88 49.21 217.83 46.98 216.38 45.75 C 214.92 44.52 214.40 44.35 211.88 43.25 C 209.35 42.15 203.94 40.02 201.25 39.12 C 198.56 38.23 197.19 38.06 195.75 37.88 Z" id="s-0-f-1"/>
<path d="M 195.75 37.88 C 194.31 37.69 197.23 36.56 192.62 38.00 C 188.02 39.44 174.71 44.38 168.12 46.50 C 161.54 48.62 158.40 49.38 153.12 50.75 C 147.85 52.12 143.15 53.38 136.50 54.75 C 129.85 56.12 117.44 58.15 113.25 59.00 C 109.06 59.85 111.75 59.52 111.38 59.88 C 111.00 60.23 110.94 60.67 111.00 61.12 C 111.06 61.58 111.19 62.02 111.75 62.62 C 112.31 63.23 113.10 63.94 114.38 64.75 C 115.65 65.56 117.71 66.83 119.38 67.50 C 121.04 68.17 121.65 68.54 124.38 68.75 C 127.10 68.96 126.35 69.71 135.75 68.75 C 145.15 67.79 172.62 63.94 180.75 63.00 C 188.88 62.06 183.50 62.85 184.50 63.12 C 185.50 63.40 186.06 63.92 186.75 64.62 C 187.44 65.33 188.12 65.60 188.62 67.38 C 189.12 69.15 189.40 70.48 189.75 75.25 C 190.10 80.02 190.58 88.90 190.75 96.00 C 190.92 103.10 190.90 111.08 190.75 117.88 C 190.60 124.67 190.23 131.85 189.88 136.75 C 189.52 141.65 189.27 143.96 188.62 147.25 C 187.98 150.54 187.33 149.71 186.00 156.50 C 184.67 163.29 181.65 182.35 180.62 188.00 C 179.60 193.65 179.96 189.48 179.88 190.38 C 179.79 191.27 179.71 192.42 180.12 193.38 C 180.54 194.33 181.73 195.54 182.38 196.12 C 183.02 196.71 182.04 196.75 184.00 196.88 C 185.96 197.00 191.90 197.42 194.12 196.88 C 196.35 196.33 195.92 195.56 197.38 193.62 C 198.83 191.69 201.48 187.58 202.88 185.25 C 204.27 182.92 204.77 181.81 205.75 179.62 C 206.73 177.44 207.94 174.54 208.75 172.12 C 209.56 169.71 209.96 168.85 210.62 165.12 C 211.29 161.40 212.35 160.27 212.75 149.75 C 213.15 139.23 212.79 112.67 213.00 102.00 C 213.21 91.33 213.50 90.94 214.00 85.75 C 214.50 80.56 215.33 74.73 216.00 70.88 C 216.67 67.02 217.38 64.58 218.00 62.62 C 218.62 60.67 219.27 60.52 219.75 59.12 C 220.23 57.73 220.73 55.67 220.88 54.25 C 221.02 52.83 221.38 52.04 220.62 50.62 C 219.88 49.21 217.83 46.98 216.38 45.75 C 214.92 44.52 214.40 44.35 211.88 43.25 C 209.35 42.15 203.94 40.02 201.25 39.12 C 198.56 38.23 197.19 38.06 195.75 37.88 Z" id="s-0-f-2"/>
<path d="M 111.38 59.88 C 110.65 60.42 110.62 60.94 111.12 61.75 C 111.62 62.56 113.00 63.79 114.38 64.75 C 115.75 65.71 117.71 66.83 119.38 67.50 C 121.04 68.17 122.15 68.52 124.38 68.75 C 126.60 68.98 130.25 68.94 132.75 68.88 C 135.25 68.81 131.73 69.33 139.38 68.38 C 147.02 67.42 171.23 64.02 178.62 63.12 C 186.02 62.23 182.48 62.83 183.75 63.00 C 185.02 63.17 185.58 63.65 186.25 64.12 C 186.92 64.60 187.31 65.17 187.75 65.88 C 188.19 66.58 188.52 66.52 188.88 68.38 C 189.23 70.23 189.56 72.40 189.88 77.00 C 190.19 81.60 190.62 88.29 190.75 96.00 C 190.88 103.71 190.79 116.19 190.62 123.25 C 190.46 130.31 190.15 134.21 189.75 138.38 C 189.35 142.54 188.42 146.50 188.25 148.25 C 188.08 150.00 185.88 148.75 188.75 148.88 C 191.62 149.00 201.75 149.02 205.50 149.00 C 209.25 148.98 210.02 148.88 211.25 148.75 C 212.48 148.62 212.58 156.04 212.88 148.25 C 213.17 140.46 212.83 112.19 213.00 102.00 C 213.17 91.81 213.38 92.31 213.88 87.12 C 214.38 81.94 215.31 74.96 216.00 70.88 C 216.69 66.79 217.38 64.58 218.00 62.62 C 218.62 60.67 219.27 60.52 219.75 59.12 C 220.23 57.73 220.73 55.67 220.88 54.25 C 221.02 52.83 221.38 52.04 220.62 50.62 C 219.88 49.21 217.83 46.98 216.38 45.75 C 214.92 44.52 214.46 44.38 211.88 43.25 C 209.29 42.12 203.56 39.90 200.88 39.00 C 198.19 38.10 197.12 38.04 195.75 37.88 C 194.38 37.71 197.23 36.56 192.62 38.00 C 188.02 39.44 174.71 44.38 168.12 46.50 C 161.54 48.62 158.40 49.38 153.12 50.75 C 147.85 52.12 141.62 53.60 136.50 54.75 C 131.38 55.90 125.88 57.00 122.38 57.62 C 118.88 58.25 117.33 58.12 115.50 58.50 C 113.67 58.88 112.10 59.33 111.38 59.88 Z" id="s-0-f-3"/>
<path d="M 220.88 52.12 C 220.88 51.21 220.88 51.19 220.62 50.62 C 220.38 50.06 220.08 49.56 219.38 48.75 C 218.67 47.94 217.35 46.54 216.38 45.75 C 215.40 44.96 216.08 45.12 213.50 44.00 C 210.92 42.88 203.83 40.02 200.88 39.00 C 197.92 37.98 197.12 38.04 195.75 37.88 C 194.38 37.71 197.23 36.56 192.62 38.00 C 188.02 39.44 174.71 44.38 168.12 46.50 C 161.54 48.62 158.40 49.38 153.12 50.75 C 147.85 52.12 143.15 53.38 136.50 54.75 C 129.85 56.12 117.44 58.15 113.25 59.00 C 109.06 59.85 111.75 59.46 111.38 59.88 C 111.00 60.29 110.50 60.69 111.00 61.50 C 111.50 62.31 112.98 63.75 114.38 64.75 C 115.77 65.75 117.83 66.85 119.38 67.50 C 120.92 68.15 120.90 68.42 123.62 68.62 C 126.35 68.83 127.33 69.58 135.75 68.75 C 144.17 67.92 166.00 64.56 174.12 63.62 C 182.25 62.69 182.40 62.96 184.50 63.12 C 186.60 63.29 186.02 63.75 186.75 64.62 C 187.48 65.50 188.27 64.90 188.88 68.38 C 189.48 71.85 190.06 80.15 190.38 85.50 C 190.69 90.85 190.40 97.92 190.75 100.50 C 191.10 103.08 188.90 100.92 192.50 101.00 C 196.10 101.08 208.96 101.12 212.38 101.00 C 215.79 100.88 212.73 102.79 213.00 100.25 C 213.27 97.71 213.50 90.65 214.00 85.75 C 214.50 80.85 215.33 74.73 216.00 70.88 C 216.67 67.02 217.23 65.08 218.00 62.62 C 218.77 60.17 220.15 57.88 220.62 56.12 C 221.10 54.38 220.88 53.04 220.88 52.12 Z" id="s-0-f-4"/>
<path d="M 220.88 51.62 C 220.67 50.94 220.12 49.73 219.38 48.75 C 218.62 47.77 217.35 46.54 216.38 45.75 C 215.40 44.96 216.08 45.12 213.50 44.00 C 210.92 42.88 203.83 40.02 200.88 39.00 C 197.92 37.98 197.12 38.04 195.75 37.88 C 194.38 37.71 197.23 36.56 192.62 38.00 C 188.02 39.44 174.71 44.38 168.12 46.50 C 161.54 48.62 158.40 49.38 153.12 50.75 C 147.85 52.12 143.15 53.38 136.50 54.75 C 129.85 56.12 117.44 58.15 113.25 59.00 C 109.06 59.85 111.75 59.46 111.38 59.88 C 111.00 60.29 110.50 60.69 111.00 61.50 C 111.50 62.31 112.85 63.71 114.38 64.75 C 115.90 65.79 118.46 67.08 120.12 67.75 C 121.79 68.42 121.77 68.58 124.38 68.75 C 126.98 68.92 129.56 69.27 135.75 68.75 C 141.94 68.23 155.62 66.42 161.50 65.62 C 167.38 64.83 167.12 64.50 171.00 64.00 C 174.88 63.50 176.81 64.31 184.75 62.62 C 192.69 60.94 212.65 55.50 218.62 53.88 C 224.60 52.25 220.25 53.25 220.62 52.88 C 221.00 52.50 221.08 52.31 220.88 51.62 Z" id="s-0-f-5"/>
<path d="M 206.88 41.88 C 206.73 39.46 207.12 41.48 206.12 41.00 C 205.12 40.52 202.60 39.52 200.88 39.00 C 199.15 38.48 197.12 38.04 195.75 37.88 C 194.38 37.71 197.23 36.56 192.62 38.00 C 188.02 39.44 174.71 44.38 168.12 46.50 C 161.54 48.62 158.40 49.38 153.12 50.75 C 147.85 52.12 143.15 53.38 136.50 54.75 C 129.85 56.12 117.44 58.15 113.25 59.00 C 109.06 59.85 111.75 59.46 111.38 59.88 C 111.00 60.29 110.50 60.69 111.00 61.50 C 111.50 62.31 112.98 63.75 114.38 64.75 C 115.77 65.75 117.83 66.85 119.38 67.50 C 120.92 68.15 122.35 68.40 123.62 68.62 C 124.90 68.85 124.38 68.92 127.00 68.88 C 129.62 68.83 132.04 69.19 139.38 68.38 C 146.71 67.56 163.44 64.96 171.00 64.00 C 178.56 63.04 178.81 63.81 184.75 62.62 C 190.69 61.44 202.92 58.06 206.62 56.88 C 210.33 55.69 206.96 58.00 207.00 55.50 C 207.04 53.00 207.02 44.29 206.88 41.88 Z" id="s-0-f-6"/>
<path d="M 158.50 49.25 C 158.31 47.33 158.77 48.88 157.88 49.12 C 156.98 49.38 156.69 49.81 153.12 50.75 C 149.56 51.69 143.15 53.38 136.50 54.75 C 129.85 56.12 117.44 58.15 113.25 59.00 C 109.06 59.85 111.75 59.46 111.38 59.88 C 111.00 60.29 110.67 60.81 111.00 61.50 C 111.33 62.19 111.85 62.96 113.38 64.00 C 114.90 65.04 118.29 66.96 120.12 67.75 C 121.96 68.54 121.77 68.58 124.38 68.75 C 126.98 68.92 130.08 69.23 135.75 68.75 C 141.42 68.27 154.52 66.56 158.38 65.88 C 162.23 65.19 158.77 65.50 158.88 64.62 C 158.98 63.75 159.06 63.19 159.00 60.62 C 158.94 58.06 158.69 51.17 158.50 49.25 Z" id="s-0-f-7"/>
</g>
<g id="s-1" clip-path="url(#c-s-1)">
<use href="#s-1-f-0"/>
</g>
<g id="s-2" clip-path="url(#c-s-2)">
<use href="#s-2-f-0"/>
<path d="M 184.00 110.50 C 183.94 109.62 183.85 109.96 183.50 109.88 C 183.15 109.79 182.90 109.54 181.88 110.00 C 180.85 110.46 181.54 110.52 177.38 112.62 C 173.21 114.73 164.92 118.98 156.88 122.62 C 148.83 126.27 137.35 131.48 129.12 134.50 C 120.90 137.52 114.02 139.29 107.50 140.75 C 100.98 142.21 93.10 142.67 90.00 143.25 C 86.90 143.83 89.21 143.77 88.88 144.25 C 88.54 144.73 88.12 145.02 88.00 146.12 C 87.88 147.23 87.54 149.12 88.12 150.88 C 88.71 152.62 90.19 154.77 91.50 156.62 C 92.81 158.48 94.44 160.35 96.00 162.00 C 97.56 163.65 99.33 165.21 100.88 166.50 C 102.42 167.79 103.73 168.85 105.25 169.75 C 106.77 170.65 108.62 171.54 110.00 171.88 C 111.38 172.21 112.31 171.94 113.50 171.75 C 114.69 171.56 115.79 171.25 117.12 170.75 C 118.46 170.25 119.71 169.79 121.50 168.75 C 123.29 167.71 122.65 168.62 127.88 164.50 C 133.10 160.38 146.42 149.17 152.88 144.00 C 159.33 138.83 163.08 136.35 166.62 133.50 C 170.17 130.65 171.48 129.44 174.12 126.88 C 176.77 124.31 180.88 120.08 182.50 118.12 C 184.12 116.17 183.62 116.40 183.88 115.12 C 184.12 113.85 184.06 111.38 184.00 110.50 Z" id="s-2-f-1"/>
<path d="M 135.00 132.12 C 132.25 132.83 123.58 136.31 119.00 137.75 C 114.42 139.19 112.33 139.83 107.50 140.75 C 102.67 141.67 93.10 142.67 90.00 143.25 C 86.90 143.83 89.21 143.77 88.88 144.25 C 88.54 144.73 88.10 144.96 88.00 146.12 C 87.90 147.29 87.67 149.50 88.25 151.25 C 88.83 153.00 90.21 154.83 91.50 156.62 C 92.79 158.42 94.44 160.35 96.00 162.00 C 97.56 163.65 99.33 165.21 100.88 166.50 C 102.42 167.79 103.73 168.85 105.25 169.75 C 106.77 170.65 108.62 171.54 110.00 171.88 C 111.38 172.21 112.31 171.94 113.50 171.75 C 114.69 171.56 115.79 171.25 117.12 170.75 C 118.46 170.25 119.98 169.58 121.50 168.75 C 123.02 167.92 123.88 167.52 126.25 165.75 C 128.62 163.98 134.15 162.46 135.75 158.12 C 137.35 153.79 135.92 143.85 135.88 139.75 C 135.83 135.65 135.65 134.77 135.50 133.50 C 135.35 132.23 137.75 131.42 135.00 132.12 Z" id="s-2-f-2"/>
</g>
<g id="s-3" clip-path="url(#c-s-3)">
<use href="#s-3-f-0"/>
<path d="M 336.75 27.88 C 335.42 27.71 334.73 27.81 333.62 28.00 C 332.52 28.19 333.48 27.73 330.12 29.00 C 326.77 30.27 319.38 33.50 313.50 35.62 C 307.62 37.75 300.62 40.06 294.88 41.75 C 289.12 43.44 284.94 44.50 279.00 45.75 C 273.06 47.00 263.46 48.38 259.25 49.25 C 255.04 50.12 254.98 50.44 253.75 51.00 C 252.52 51.56 252.06 52.00 251.88 52.62 C 251.69 53.25 251.88 53.90 252.62 54.75 C 253.38 55.60 255.06 56.92 256.38 57.75 C 257.69 58.58 259.17 59.25 260.50 59.75 C 261.83 60.25 262.04 60.58 264.38 60.75 C 266.71 60.92 271.31 60.94 274.50 60.75 C 277.69 60.56 277.06 60.75 283.50 59.62 C 289.94 58.50 306.25 55.10 313.12 54.00 C 320.00 52.90 322.54 53.04 324.75 53.00 C 326.96 52.96 325.75 53.15 326.38 53.75 C 327.00 54.35 327.77 53.88 328.50 56.62 C 329.23 59.38 330.21 65.19 330.75 70.25 C 331.29 75.31 331.60 79.27 331.75 87.00 C 331.90 94.73 331.79 108.73 331.62 116.62 C 331.46 124.52 331.21 128.94 330.75 134.38 C 330.29 139.81 329.52 145.67 328.88 149.25 C 328.23 152.83 328.38 148.92 326.88 155.88 C 325.38 162.83 321.04 184.81 319.88 191.00 C 318.71 197.19 319.58 192.27 319.88 193.00 C 320.17 193.73 320.77 194.42 321.62 195.38 C 322.48 196.33 324.04 198.00 325.00 198.75 C 325.96 199.50 326.50 199.73 327.38 199.88 C 328.25 200.02 329.33 199.90 330.25 199.62 C 331.17 199.35 331.46 199.52 332.88 198.25 C 334.29 196.98 336.62 195.02 338.75 192.00 C 340.88 188.98 343.98 183.40 345.62 180.12 C 347.27 176.85 347.79 174.83 348.62 172.38 C 349.46 169.92 349.94 169.04 350.62 165.38 C 351.31 161.71 352.33 163.04 352.75 150.38 C 353.17 137.71 352.58 103.44 353.12 89.38 C 353.67 75.31 355.19 71.50 356.00 66.00 C 356.81 60.50 357.21 59.62 358.00 56.38 C 358.79 53.12 360.31 49.12 360.75 46.50 C 361.19 43.88 361.33 42.40 360.62 40.62 C 359.92 38.85 357.69 36.98 356.50 35.88 C 355.31 34.77 355.98 35.15 353.50 34.00 C 351.02 32.85 344.42 30.02 341.62 29.00 C 338.83 27.98 338.08 28.04 336.75 27.88 Z" id="s-3-f-1"/>
<path d="M 338.12 28.00 C 335.88 27.48 334.96 27.83 333.62 28.00 C 332.29 28.17 333.48 27.73 330.12 29.00 C 326.77 30.27 319.38 33.50 313.50 35.62 C 307.62 37.75 300.62 40.06 294.88 41.75 C 289.12 43.44 284.94 44.50 279.00 45.75 C 273.06 47.00 263.46 48.38 259.25 49.25 C 255.04 50.12 254.98 50.44 253.75 51.00 C 252.52 51.56 252.06 52.00 251.88 52.62 C 251.69 53.25 251.88 53.90 252.62 54.75 C 253.38 55.60 255.06 56.92 256.38 57.75 C 257.69 58.58 259.17 59.25 260.50 59.75 C 261.83 60.25 262.04 60.58 264.38 60.75 C 266.71 60.92 271.31 60.94 274.50 60.75 C 277.69 60.56 277.06 60.75 283.50 59.62 C 289.94 58.50 306.25 55.10 313.12 54.00 C 320.00 52.90 322.54 53.04 324.75 53.00 C 326.96 52.96 325.75 53.15 326.38 53.75 C 327.00 54.35 327.77 53.88 328.50 56.62 C 329.23 59.38 330.21 65.19 330.75 70.25 C 331.29 75.31 331.60 79.15 331.75 87.00 C 331.90 94.85 331.77 109.83 331.62 117.38 C 331.48 124.92 331.33 126.94 330.88 132.25 C 330.42 137.56 329.54 145.31 328.88 149.25 C 328.21 153.19 328.10 150.06 326.88 155.88 C 325.65 161.69 322.50 179.17 321.50 184.12 C 320.50 189.08 320.92 185.17 320.88 185.62 C 320.83 186.08 318.04 186.65 321.25 186.88 C 324.46 187.10 336.69 187.04 340.12 187.00 C 343.56 186.96 340.96 187.77 341.88 186.62 C 342.79 185.48 344.48 182.56 345.62 180.12 C 346.77 177.69 347.92 174.46 348.75 172.00 C 349.58 169.54 349.98 168.62 350.62 165.38 C 351.27 162.12 352.21 165.17 352.62 152.50 C 353.04 139.83 352.56 103.79 353.12 89.38 C 353.69 74.96 355.19 71.50 356.00 66.00 C 356.81 60.50 357.21 59.62 358.00 56.38 C 358.79 53.12 360.31 49.12 360.75 46.50 C 361.19 43.88 360.90 41.96 360.62 40.62 C 360.35 39.29 360.04 39.44 359.12 38.50 C 358.21 37.56 357.12 36.23 355.12 35.00 C 353.12 33.77 349.96 32.29 347.12 31.12 C 344.29 29.96 340.38 28.52 338.12 28.00 Z" id="s-3-f-2"/>
<path d="M 252.50 51.75 C 251.92 52.12 251.94 52.23 251.88 52.62 C 251.81 53.02 251.38 53.27 252.12 54.12 C 252.88 54.98 254.98 56.81 256.38 57.75 C 257.77 58.69 258.81 59.23 260.50 59.75 C 262.19 60.27 264.17 60.71 266.50 60.88 C 268.83 61.04 271.67 60.96 274.50 60.75 C 277.33 60.54 277.06 60.75 283.50 59.62 C 289.94 58.50 307.19 55.06 313.12 54.00 C 319.06 52.94 317.19 53.42 319.12 53.25 C 321.06 53.08 323.46 52.85 324.75 53.00 C 326.04 53.15 326.25 53.52 326.88 54.12 C 327.50 54.73 328.02 55.21 328.50 56.62 C 328.98 58.04 329.35 60.12 329.75 62.62 C 330.15 65.12 330.56 68.12 330.88 71.62 C 331.19 75.12 331.50 76.00 331.62 83.62 C 331.75 91.25 331.85 108.27 331.62 117.38 C 331.40 126.48 330.40 134.67 330.25 138.25 C 330.10 141.83 330.42 138.75 330.75 138.88 C 331.08 139.00 328.60 139.00 332.25 139.00 C 335.90 139.00 349.15 147.15 352.62 138.88 C 356.10 130.60 352.56 101.52 353.12 89.38 C 353.69 77.23 354.71 73.42 356.00 66.00 C 357.29 58.58 360.10 49.10 360.88 44.88 C 361.65 40.65 361.35 42.12 360.62 40.62 C 359.90 39.12 358.04 37.15 356.50 35.88 C 354.96 34.60 353.79 34.12 351.38 33.00 C 348.96 31.88 344.21 29.96 342.00 29.12 C 339.79 28.29 339.52 28.19 338.12 28.00 C 336.73 27.81 335.88 27.50 333.62 28.00 C 331.38 28.50 328.96 29.38 324.62 31.00 C 320.29 32.62 312.58 35.96 307.62 37.75 C 302.67 39.54 299.65 40.42 294.88 41.75 C 290.10 43.08 284.77 44.54 279.00 45.75 C 273.23 46.96 264.19 48.23 260.25 49.00 C 256.31 49.77 256.67 49.92 255.38 50.38 C 254.08 50.83 253.08 51.38 252.50 51.75 Z" id="s-3-f-3"/>
<path d="M 360.62 40.62 C 360.29 39.21 359.44 38.79 358.75 38.00 C 358.06 37.21 357.38 36.54 356.50 35.88 C 355.62 35.21 356.46 35.29 353.50 34.00 C 350.54 32.71 342.06 29.12 338.75 28.12 C 335.44 27.12 339.81 26.06 333.62 28.00 C 327.44 29.94 310.00 36.96 301.62 39.75 C 293.25 42.54 290.38 43.19 283.38 44.75 C 276.38 46.31 264.56 48.08 259.62 49.12 C 254.69 50.17 254.94 50.56 253.75 51.00 C 252.56 51.44 252.81 51.38 252.50 51.75 C 252.19 52.12 251.79 52.69 251.88 53.25 C 251.96 53.81 252.00 54.23 253.00 55.12 C 254.00 56.02 256.17 57.73 257.88 58.62 C 259.58 59.52 261.81 60.12 263.25 60.50 C 264.69 60.88 264.62 60.83 266.50 60.88 C 268.38 60.92 271.81 60.94 274.50 60.75 C 277.19 60.56 276.19 60.88 282.62 59.75 C 289.06 58.62 306.48 55.12 313.12 54.00 C 319.77 52.88 320.44 53.12 322.50 53.00 C 324.56 52.88 324.75 53.04 325.50 53.25 C 326.25 53.46 326.50 53.69 327.00 54.25 C 327.50 54.81 328.04 55.23 328.50 56.62 C 328.96 58.02 329.35 60.12 329.75 62.62 C 330.15 65.12 330.52 66.96 330.88 71.62 C 331.23 76.29 331.62 87.40 331.88 90.62 C 332.12 93.85 328.85 91.02 332.38 91.00 C 335.90 90.98 349.06 94.67 353.00 90.50 C 356.94 86.33 355.17 71.69 356.00 66.00 C 356.83 60.31 357.21 59.62 358.00 56.38 C 358.79 53.12 360.31 49.12 360.75 46.50 C 361.19 43.88 360.96 42.04 360.62 40.62 Z" id="s-3-f-4"/>
<path d="M 360.88 41.88 C 360.90 41.46 360.98 41.27 360.62 40.62 C 360.27 39.98 359.44 38.79 358.75 38.00 C 358.06 37.21 357.38 36.54 356.50 35.88 C 355.62 35.21 356.46 35.29 353.50 34.00 C 350.54 32.71 342.06 29.12 338.75 28.12 C 335.44 27.12 339.81 26.06 333.62 28.00 C 327.44 29.94 310.00 36.96 301.62 39.75 C 293.25 42.54 290.92 43.04 283.38 44.75 C 275.83 46.46 261.52 48.83 256.38 50.00 C 251.23 51.17 253.25 51.21 252.50 51.75 C 251.75 52.29 251.94 52.85 251.88 53.25 C 251.81 53.65 251.71 53.60 252.12 54.12 C 252.54 54.65 252.98 55.44 254.38 56.38 C 255.77 57.31 258.54 59.00 260.50 59.75 C 262.46 60.50 263.79 60.71 266.12 60.88 C 268.46 61.04 270.67 61.10 274.50 60.75 C 278.33 60.40 282.69 59.88 289.12 58.75 C 295.56 57.62 307.23 54.98 313.12 54.00 C 319.02 53.02 316.92 54.56 324.50 52.88 C 332.08 51.19 352.62 45.50 358.62 43.88 C 364.62 42.25 360.12 43.46 360.50 43.12 C 360.88 42.79 360.85 42.29 360.88 41.88 Z" id="s-3-f-5"/>
<path d="M 348.00 32.25 C 347.85 29.88 348.67 31.81 347.12 31.12 C 345.58 30.44 341.00 28.65 338.75 28.12 C 336.50 27.60 339.81 26.06 333.62 28.00 C 327.44 29.94 310.00 36.96 301.62 39.75 C 293.25 42.54 290.92 43.04 283.38 44.75 C 275.83 46.46 261.52 48.83 256.38 50.00 C 251.23 51.17 253.25 51.21 252.50 51.75 C 251.75 52.29 251.85 52.75 251.88 53.25 C 251.90 53.75 252.17 54.21 252.62 54.75 C 253.08 55.29 253.31 55.67 254.62 56.50 C 255.94 57.33 258.83 59.04 260.50 59.75 C 262.17 60.46 262.75 60.56 264.62 60.75 C 266.50 60.94 267.67 61.21 271.75 60.88 C 275.83 60.54 282.23 59.90 289.12 58.75 C 296.02 57.60 307.02 55.02 313.12 54.00 C 319.23 52.98 320.00 53.83 325.75 52.62 C 331.50 51.42 343.92 47.96 347.62 46.75 C 351.33 45.54 347.94 47.79 348.00 45.38 C 348.06 42.96 348.15 34.62 348.00 32.25 Z" id="s-3-f-6"/>
<path d="M 299.88 40.75 C 299.77 38.29 300.69 39.92 299.25 40.25 C 297.81 40.58 294.62 41.83 291.25 42.75 C 287.88 43.67 284.27 44.69 279.00 45.75 C 273.73 46.81 264.04 48.12 259.62 49.12 C 255.21 50.12 253.79 51.17 252.50 51.75 C 251.21 52.33 251.96 52.29 251.88 52.62 C 251.79 52.96 251.54 53.10 252.00 53.75 C 252.46 54.40 253.54 55.65 254.62 56.50 C 255.71 57.35 256.98 58.19 258.50 58.88 C 260.02 59.56 261.08 60.31 263.75 60.62 C 266.42 60.94 271.35 60.90 274.50 60.75 C 277.65 60.60 278.50 60.44 282.62 59.75 C 286.75 59.06 296.38 57.42 299.25 56.62 C 302.12 55.83 299.77 57.65 299.88 55.00 C 299.98 52.35 299.98 43.21 299.88 40.75 Z" id="s-3-f-7"/>
</g>
<g id="s-4" clip-path="url(#c-s-4)">
<use href="#s-4-f-0"/>
</g>
<g id="s-5" clip-path="url(#c-s-5)">
<use href="#s-5-f-0"/>
<path d="M 286.00 123.50 C 285.83 120.06 287.15 122.42 284.88 123.12 C 282.60 123.83 277.17 126.15 272.38 127.75 C 267.58 129.35 260.52 131.60 256.12 132.75 C 251.73 133.90 248.65 134.25 246.00 134.62 C 243.35 135.00 241.58 134.56 240.25 135.00 C 238.92 135.44 238.35 136.25 238.00 137.25 C 237.65 138.25 237.35 139.17 238.12 141.00 C 238.90 142.83 241.29 146.38 242.62 148.25 C 243.96 150.12 244.75 150.88 246.12 152.25 C 247.50 153.62 249.00 155.10 250.88 156.50 C 252.75 157.90 255.42 159.94 257.38 160.62 C 259.33 161.31 260.81 161.08 262.62 160.62 C 264.44 160.17 264.38 160.69 268.25 157.88 C 272.12 155.06 282.92 149.48 285.88 143.75 C 288.83 138.02 286.17 126.94 286.00 123.50 Z" id="s-5-f-1"/>
</g>
<g id="s-6" clip-path="url(#c-s-6)">
<use href="#s-6-f-0"/>
</g>
<g id="s-7" clip-path="url(#c-s-7)">
<use href="#s-7-f-0"/>
<path d="M 303.88 197.00 C 303.73 194.38 304.52 196.60 303.12 196.12 C 301.73 195.65 298.08 194.48 295.50 194.12 C 292.92 193.77 292.10 193.23 287.62 194.00 C 283.15 194.77 274.94 197.31 268.62 198.75 C 262.31 200.19 254.17 201.96 249.75 202.62 C 245.33 203.29 245.00 202.40 242.12 202.75 C 239.25 203.10 238.62 203.75 232.50 204.75 C 226.38 205.75 212.90 207.75 205.38 208.75 C 197.85 209.75 193.52 210.19 187.38 210.75 C 181.23 211.31 172.56 211.75 168.50 212.12 C 164.44 212.50 164.38 212.67 163.00 213.00 C 161.62 213.33 160.75 213.60 160.25 214.12 C 159.75 214.65 159.88 215.52 160.00 216.12 C 160.12 216.73 160.27 216.92 161.00 217.75 C 161.73 218.58 163.46 220.29 164.38 221.12 C 165.29 221.96 165.54 222.19 166.50 222.75 C 167.46 223.31 168.69 224.00 170.12 224.50 C 171.56 225.00 172.40 225.33 175.12 225.75 C 177.85 226.17 177.50 227.35 186.50 227.00 C 195.50 226.65 217.46 224.67 229.12 223.62 C 240.79 222.58 250.08 221.50 256.50 220.75 C 262.92 220.00 264.65 219.44 267.62 219.12 C 270.60 218.81 272.94 219.02 274.38 218.88 C 275.81 218.73 273.21 218.73 276.25 218.25 C 279.29 217.77 288.08 216.77 292.62 216.00 C 297.17 215.23 301.60 214.31 303.50 213.62 C 305.40 212.94 303.94 214.65 304.00 211.88 C 304.06 209.10 304.02 199.62 303.88 197.00 Z" id="s-7-f-1"/>
<path d="M 255.88 201.88 C 255.69 198.96 255.90 201.38 254.88 201.50 C 253.85 201.62 251.88 202.42 249.75 202.62 C 247.62 202.83 245.00 202.40 242.12 202.75 C 239.25 203.10 238.62 203.75 232.50 204.75 C 226.38 205.75 212.90 207.75 205.38 208.75 C 197.85 209.75 193.67 210.17 187.38 210.75 C 181.08 211.33 171.69 211.88 167.62 212.25 C 163.56 212.62 164.21 212.71 163.00 213.00 C 161.79 213.29 160.88 213.48 160.38 214.00 C 159.88 214.52 159.90 215.50 160.00 216.12 C 160.10 216.75 160.27 216.92 161.00 217.75 C 161.73 218.58 163.46 220.29 164.38 221.12 C 165.29 221.96 165.54 222.19 166.50 222.75 C 167.46 223.31 168.69 224.00 170.12 224.50 C 171.56 225.00 172.40 225.33 175.12 225.75 C 177.85 226.17 179.31 227.19 186.50 227.00 C 193.69 226.81 206.75 225.67 218.25 224.62 C 229.75 223.58 249.21 221.69 255.50 220.75 C 261.79 219.81 255.94 222.15 256.00 219.00 C 256.06 215.85 256.06 204.79 255.88 201.88 Z" id="s-7-f-2"/>
<path d="M 207.88 224.75 C 208.00 222.17 208.00 212.65 208.00 210.00 C 208.00 207.35 208.00 209.15 207.88 208.88 C 207.75 208.60 210.67 208.06 207.25 208.38 C 203.83 208.69 193.83 210.12 187.38 210.75 C 180.92 211.38 172.56 211.75 168.50 212.12 C 164.44 212.50 164.35 212.69 163.00 213.00 C 161.65 213.31 160.88 213.48 160.38 214.00 C 159.88 214.52 159.90 215.52 160.00 216.12 C 160.10 216.73 159.98 216.56 161.00 217.62 C 162.02 218.69 164.85 221.46 166.12 222.50 C 167.40 223.54 167.25 223.35 168.62 223.88 C 170.00 224.40 172.10 225.15 174.38 225.62 C 176.65 226.10 179.88 226.52 182.25 226.75 C 184.62 226.98 184.46 227.21 188.62 227.00 C 192.79 226.79 204.04 225.88 207.25 225.50 C 210.46 225.12 207.75 227.33 207.88 224.75 Z" id="s-7-f-3"/>
</g>
<g id="s-8" clip-path="url(#c-s-8)">
<use href="#s-8-f-0"/>
</g>
<g id="s-9" clip-path="url(#c-s-9)">
<use href="#s-9-f-0"/>
<path d="M 293.25 215.75 C 292.21 215.44 289.65 215.52 288.50 215.62 C 287.35 215.73 288.73 216.02 286.38 216.38 C 284.02 216.73 276.79 217.38 274.38 217.75 C 271.96 218.12 272.12 216.90 271.88 218.62 C 271.62 220.35 272.77 225.58 272.88 228.12 C 272.98 230.67 273.02 230.35 272.50 233.88 C 271.98 237.40 270.71 244.92 269.75 249.25 C 268.79 253.58 267.48 257.56 266.75 259.88 C 266.02 262.19 265.54 262.46 265.38 263.12 C 265.21 263.79 264.56 263.73 265.75 263.88 C 266.94 264.02 270.44 264.17 272.50 264.00 C 274.56 263.83 276.00 264.27 278.12 262.88 C 280.25 261.48 282.81 258.38 285.25 255.62 C 287.69 252.88 290.31 249.75 292.75 246.38 C 295.19 243.00 297.90 238.17 299.88 235.38 C 301.85 232.58 303.81 231.00 304.62 229.62 C 305.44 228.25 305.19 228.21 304.75 227.12 C 304.31 226.04 303.23 224.46 302.00 223.12 C 300.77 221.79 298.58 220.06 297.38 219.12 C 296.17 218.19 295.44 218.06 294.75 217.50 C 294.06 216.94 294.29 216.06 293.25 215.75 Z" id="s-9-f-1"/>
</g>
<g id="s-10" clip-path="url(#c-s-10)">
<use href="#s-10-f-0"/>
<path d="M 325.00 256.62 C 324.94 252.58 325.25 255.96 324.50 255.88 C 323.75 255.79 326.56 255.15 320.50 256.12 C 314.44 257.10 294.90 260.67 288.12 261.75 C 281.35 262.83 282.15 262.48 279.88 262.62 C 277.60 262.77 275.77 262.50 274.50 262.62 C 273.23 262.75 273.56 263.17 272.25 263.38 C 270.94 263.58 267.71 263.65 266.62 263.88 C 265.54 264.10 273.06 263.65 265.75 264.75 C 258.44 265.85 231.71 269.52 222.75 270.50 C 213.79 271.48 218.56 269.92 212.00 270.62 C 205.44 271.33 195.56 273.19 183.38 274.75 C 171.19 276.31 146.83 278.94 138.88 280.00 C 130.92 281.06 136.56 280.65 135.62 281.12 C 134.69 281.60 133.71 282.33 133.25 282.88 C 132.79 283.42 132.79 283.81 132.88 284.38 C 132.96 284.94 133.12 285.52 133.75 286.25 C 134.38 286.98 134.31 287.50 136.62 288.75 C 138.94 290.00 144.08 292.44 147.62 293.75 C 151.17 295.06 155.02 296.10 157.88 296.62 C 160.73 297.15 157.10 297.81 164.75 296.88 C 172.40 295.94 193.90 292.33 203.75 291.00 C 213.60 289.67 216.08 289.88 223.88 288.88 C 231.67 287.88 238.65 286.15 250.50 285.00 C 262.35 283.85 282.71 282.71 295.00 282.00 C 307.29 281.29 319.27 281.06 324.25 280.75 C 329.23 280.44 324.75 284.15 324.88 280.12 C 325.00 276.10 325.06 260.67 325.00 256.62 Z" id="s-10-f-1"/>
<path d="M 277.00 264.38 C 276.96 261.29 277.17 263.29 276.75 263.00 C 276.33 262.71 275.25 262.56 274.50 262.62 C 273.75 262.69 273.56 263.17 272.25 263.38 C 270.94 263.58 267.71 263.65 266.62 263.88 C 265.54 264.10 273.06 263.65 265.75 264.75 C 258.44 265.85 231.71 269.52 222.75 270.50 C 213.79 271.48 218.56 269.92 212.00 270.62 C 205.44 271.33 195.56 273.19 183.38 274.75 C 171.19 276.31 146.83 278.94 138.88 280.00 C 130.92 281.06 136.54 280.62 135.62 281.12 C 134.71 281.62 133.83 282.44 133.38 283.00 C 132.92 283.56 132.62 283.77 132.88 284.50 C 133.12 285.23 133.96 286.50 134.88 287.38 C 135.79 288.25 135.88 288.54 138.38 289.75 C 140.88 290.96 146.62 293.48 149.88 294.62 C 153.12 295.77 155.35 296.25 157.88 296.62 C 160.40 297.00 162.12 297.15 165.00 296.88 C 167.88 296.60 168.67 295.98 175.12 295.00 C 181.58 294.02 195.62 292.02 203.75 291.00 C 211.88 289.98 217.69 289.69 223.88 288.88 C 230.06 288.06 232.17 287.06 240.88 286.12 C 249.58 285.19 270.15 283.81 276.12 283.25 C 282.10 282.69 276.60 283.04 276.75 282.75 C 276.90 282.46 276.96 284.56 277.00 281.50 C 277.04 278.44 277.04 267.46 277.00 264.38 Z" id="s-10-f-2"/>
<path d="M 228.62 269.88 C 227.38 269.35 224.27 270.50 221.50 270.62 C 218.73 270.75 215.75 270.27 212.00 270.62 C 208.25 270.98 211.19 271.19 199.00 272.75 C 186.81 274.31 149.60 278.50 138.88 280.00 C 128.15 281.50 135.56 281.27 134.62 281.75 C 133.69 282.23 133.54 282.42 133.25 282.88 C 132.96 283.33 132.60 283.75 132.88 284.50 C 133.15 285.25 133.96 286.50 134.88 287.38 C 135.79 288.25 135.88 288.54 138.38 289.75 C 140.88 290.96 146.42 293.46 149.88 294.62 C 153.33 295.79 156.35 296.40 159.12 296.75 C 161.90 297.10 163.83 297.04 166.50 296.75 C 169.17 296.46 168.92 295.96 175.12 295.00 C 181.33 294.04 195.65 292.02 203.75 291.00 C 211.85 289.98 219.56 289.42 223.75 288.88 C 227.94 288.33 228.00 290.27 228.88 287.75 C 229.75 285.23 229.04 276.73 229.00 273.75 C 228.96 270.77 229.88 270.40 228.62 269.88 Z" id="s-10-f-3"/>
<path d="M 180.88 275.38 C 180.60 272.46 186.27 274.25 179.38 275.00 C 172.48 275.75 146.96 278.75 139.50 279.88 C 132.04 281.00 135.67 281.25 134.62 281.75 C 133.58 282.25 133.54 282.42 133.25 282.88 C 132.96 283.33 132.60 283.75 132.88 284.50 C 133.15 285.25 133.96 286.50 134.88 287.38 C 135.79 288.25 136.25 288.69 138.38 289.75 C 140.50 290.81 145.08 292.75 147.62 293.75 C 150.17 294.75 151.71 295.25 153.62 295.75 C 155.54 296.25 157.23 296.56 159.12 296.75 C 161.02 296.94 161.48 297.25 165.00 296.88 C 168.52 296.50 177.60 295.00 180.25 294.50 C 182.90 294.00 180.75 294.21 180.88 293.88 C 181.00 293.54 181.00 295.58 181.00 292.50 C 181.00 289.42 181.15 278.29 180.88 275.38 Z" id="s-10-f-4"/>
</g>
<g id="s-11" clip-path="url(#c-s-11)">
<use href="#s-11-f-0"/>
<path d="M 205.12 290.50 C 204.29 293.42 204.31 302.77 203.75 307.12 C 203.19 311.48 202.44 313.98 201.75 316.62 C 201.06 319.27 200.75 320.25 199.62 323.00 C 198.50 325.75 196.50 329.40 195.00 333.12 C 193.50 336.85 192.17 341.73 190.62 345.38 C 189.08 349.02 187.73 351.52 185.75 355.00 C 183.77 358.48 181.21 362.85 178.75 366.25 C 176.29 369.65 172.46 373.35 171.00 375.38 C 169.54 377.40 170.15 377.04 170.00 378.38 C 169.85 379.71 169.94 382.25 170.12 383.38 C 170.31 384.50 170.52 384.42 171.12 385.12 C 171.73 385.83 172.50 386.88 173.75 387.62 C 175.00 388.38 175.40 388.90 178.62 389.62 C 181.85 390.35 188.56 391.10 193.12 392.00 C 197.69 392.90 201.15 393.67 206.00 395.00 C 210.85 396.33 217.42 398.33 222.25 400.00 C 227.08 401.67 232.00 403.69 235.00 405.00 C 238.00 406.31 236.08 405.88 240.25 407.88 C 244.42 409.88 253.85 413.94 260.00 417.00 C 266.15 420.06 270.77 422.60 277.12 426.25 C 283.48 429.90 290.21 433.83 298.12 438.88 C 306.04 443.92 320.17 460.12 324.62 456.50 C 329.08 452.88 326.46 424.52 324.88 417.12 C 323.29 409.73 319.69 414.15 315.12 412.12 C 310.56 410.10 304.04 407.23 297.50 405.00 C 290.96 402.77 280.29 400.10 275.88 398.75 C 271.46 397.40 277.29 398.62 271.00 396.88 C 264.71 395.12 246.15 390.21 238.12 388.25 C 230.10 386.29 229.33 386.21 222.88 385.12 C 216.42 384.04 203.81 382.46 199.38 381.75 C 194.94 381.04 197.17 381.29 196.25 380.88 C 195.33 380.46 194.42 379.77 193.88 379.25 C 193.33 378.73 193.15 378.25 193.00 377.75 C 192.85 377.25 192.81 376.96 193.00 376.25 C 193.19 375.54 192.48 375.96 194.12 373.50 C 195.77 371.04 198.92 367.50 202.88 361.50 C 206.83 355.50 214.17 343.65 217.88 337.50 C 221.58 331.35 223.31 327.56 225.12 324.62 C 226.94 321.69 227.46 321.81 228.75 319.88 C 230.04 317.94 231.38 315.19 232.88 313.00 C 234.38 310.81 236.60 308.50 237.75 306.75 C 238.90 305.00 239.42 303.83 239.75 302.50 C 240.08 301.17 239.94 299.77 239.75 298.75 C 239.56 297.73 239.69 297.67 238.62 296.38 C 237.56 295.08 234.81 292.25 233.38 291.00 C 231.94 289.75 230.69 289.42 230.00 288.88 C 229.31 288.33 230.12 287.96 229.25 287.75 C 228.38 287.54 226.00 287.52 224.75 287.62 C 223.50 287.73 224.42 288.04 221.75 288.38 C 219.08 288.71 211.52 289.27 208.75 289.62 C 205.98 289.98 205.96 287.58 205.12 290.50 Z" id="s-11-f-1"/>
<path d="M 205.12 290.50 C 204.29 293.42 204.31 302.77 203.75 307.12 C 203.19 311.48 202.44 313.98 201.75 316.62 C 201.06 319.27 200.44 321.02 199.62 323.00 C 198.81 324.98 198.33 325.04 196.88 328.50 C 195.42 331.96 191.90 340.98 190.88 343.75 C 189.85 346.52 191.60 343.25 190.75 345.12 C 189.90 347.00 187.75 351.48 185.75 355.00 C 183.75 358.52 181.21 362.83 178.75 366.25 C 176.29 369.67 172.46 373.46 171.00 375.50 C 169.54 377.54 170.17 377.27 170.00 378.50 C 169.83 379.73 169.67 381.58 170.00 382.88 C 170.33 384.17 171.38 385.46 172.00 386.25 C 172.62 387.04 172.65 387.06 173.75 387.62 C 174.85 388.19 176.25 389.06 178.62 389.62 C 181.00 390.19 184.06 390.27 188.00 391.00 C 191.94 391.73 197.04 392.67 202.25 394.00 C 207.46 395.33 214.25 397.35 219.25 399.00 C 224.25 400.65 225.46 400.88 232.25 403.88 C 239.04 406.88 252.77 413.35 260.00 417.00 C 267.23 420.65 272.83 424.29 275.62 425.75 C 278.42 427.21 276.52 428.85 276.75 425.75 C 276.98 422.65 277.04 411.60 277.00 407.12 C 276.96 402.65 277.50 400.58 276.50 398.88 C 275.50 397.17 272.27 397.25 271.00 396.88 C 269.73 396.50 271.88 397.46 268.88 396.62 C 265.88 395.79 258.12 393.27 253.00 391.88 C 247.88 390.48 243.15 389.38 238.12 388.25 C 233.10 387.12 229.33 386.21 222.88 385.12 C 216.42 384.04 203.94 382.52 199.38 381.75 C 194.81 380.98 196.52 381.08 195.50 380.50 C 194.48 379.92 193.67 378.96 193.25 378.25 C 192.83 377.54 192.85 377.04 193.00 376.25 C 193.15 375.46 193.00 375.15 194.12 373.50 C 195.25 371.85 195.79 372.38 199.75 366.38 C 203.71 360.38 213.54 344.62 217.88 337.50 C 222.21 330.38 223.94 326.56 225.75 323.62 C 227.56 320.69 227.48 321.77 228.75 319.88 C 230.02 317.98 231.73 314.67 233.38 312.25 C 235.02 309.83 237.54 307.12 238.62 305.38 C 239.71 303.62 239.69 302.85 239.88 301.75 C 240.06 300.65 240.12 299.88 239.75 298.75 C 239.38 297.62 238.69 296.29 237.62 295.00 C 236.56 293.71 234.65 292.02 233.38 291.00 C 232.10 289.98 230.75 289.44 230.00 288.88 C 229.25 288.31 229.75 287.83 228.88 287.62 C 228.00 287.42 225.94 287.50 224.75 287.62 C 223.56 287.75 224.42 288.04 221.75 288.38 C 219.08 288.71 211.52 289.27 208.75 289.62 C 205.98 289.98 205.96 287.58 205.12 290.50 Z" id="s-11-f-2"/>
<path d="M 227.75 287.50 C 224.33 287.81 212.54 289.10 208.75 289.62 C 204.96 290.15 205.83 287.71 205.00 290.62 C 204.17 293.54 204.29 302.79 203.75 307.12 C 203.21 311.46 202.44 313.98 201.75 316.62 C 201.06 319.27 200.58 320.67 199.62 323.00 C 198.67 325.33 197.54 326.83 196.00 330.62 C 194.46 334.42 192.08 341.69 190.38 345.75 C 188.67 349.81 187.69 351.58 185.75 355.00 C 183.81 358.42 180.92 363.25 178.75 366.25 C 176.58 369.25 174.04 371.44 172.75 373.00 C 171.46 374.56 171.46 374.71 171.00 375.62 C 170.54 376.54 170.17 377.29 170.00 378.50 C 169.83 379.71 169.58 381.50 170.00 382.88 C 170.42 384.25 171.12 385.65 172.50 386.75 C 173.88 387.85 175.67 388.79 178.25 389.50 C 180.83 390.21 184.00 390.25 188.00 391.00 C 192.00 391.75 197.04 392.67 202.25 394.00 C 207.46 395.33 214.85 397.58 219.25 399.00 C 223.65 400.42 227.00 402.15 228.62 402.50 C 230.25 402.85 228.94 403.54 229.00 401.12 C 229.06 398.71 229.10 390.48 229.00 388.00 C 228.90 385.52 231.29 387.04 228.38 386.25 C 225.46 385.46 216.33 384.00 211.50 383.25 C 206.67 382.50 202.21 382.31 199.38 381.75 C 196.54 381.19 195.56 380.54 194.50 379.88 C 193.44 379.21 193.23 378.50 193.00 377.75 C 192.77 377.00 192.81 376.27 193.12 375.38 C 193.44 374.48 193.77 373.88 194.88 372.38 C 195.98 370.88 195.92 372.19 199.75 366.38 C 203.58 360.56 213.54 344.62 217.88 337.50 C 222.21 330.38 223.94 326.56 225.75 323.62 C 227.56 320.69 227.48 321.77 228.75 319.88 C 230.02 317.98 232.02 314.21 233.38 312.25 C 234.73 310.29 235.83 309.65 236.88 308.12 C 237.92 306.60 239.15 304.69 239.62 303.12 C 240.10 301.56 240.08 300.10 239.75 298.75 C 239.42 297.40 238.65 296.25 237.62 295.00 C 236.60 293.75 234.90 292.27 233.62 291.25 C 232.35 290.23 230.73 289.46 230.00 288.88 C 229.27 288.29 229.62 287.98 229.25 287.75 C 228.88 287.52 231.17 287.19 227.75 287.50 Z" id="s-11-f-3"/>
<path d="M 229.25 287.75 C 228.38 287.54 226.00 287.52 224.75 287.62 C 223.50 287.73 224.42 288.04 221.75 288.38 C 219.08 288.71 211.54 289.25 208.75 289.62 C 205.96 290.00 205.83 287.71 205.00 290.62 C 204.17 293.54 204.29 302.79 203.75 307.12 C 203.21 311.46 202.44 313.98 201.75 316.62 C 201.06 319.27 200.58 320.67 199.62 323.00 C 198.67 325.33 197.54 326.83 196.00 330.62 C 194.46 334.42 192.08 341.69 190.38 345.75 C 188.67 349.81 187.35 352.06 185.75 355.00 C 184.15 357.94 183.06 360.19 180.75 363.38 C 178.44 366.56 173.65 371.73 171.88 374.12 C 170.10 376.52 170.42 376.21 170.12 377.75 C 169.83 379.29 169.90 382.06 170.12 383.38 C 170.35 384.69 170.90 384.92 171.50 385.62 C 172.10 386.33 172.56 386.96 173.75 387.62 C 174.94 388.29 177.38 389.29 178.62 389.62 C 179.88 389.96 178.96 391.60 181.25 389.62 C 183.54 387.65 190.40 380.12 192.38 377.75 C 194.35 375.38 192.71 376.27 193.12 375.38 C 193.54 374.48 193.79 373.88 194.88 372.38 C 195.96 370.88 195.79 372.19 199.62 366.38 C 203.46 360.56 213.52 344.62 217.88 337.50 C 222.23 330.38 222.29 328.98 225.75 323.62 C 229.21 318.27 236.27 309.02 238.62 305.38 C 240.98 301.73 239.69 302.85 239.88 301.75 C 240.06 300.65 239.94 299.62 239.75 298.75 C 239.56 297.88 239.81 297.79 238.75 296.50 C 237.69 295.21 234.83 292.27 233.38 291.00 C 231.92 289.73 230.69 289.42 230.00 288.88 C 229.31 288.33 230.12 287.96 229.25 287.75 Z" id="s-11-f-4"/>
<path d="M 229.25 287.75 C 228.38 287.54 226.00 287.52 224.75 287.62 C 223.50 287.73 224.42 288.04 221.75 288.38 C 219.08 288.71 211.54 289.25 208.75 289.62 C 205.96 290.00 205.83 287.71 205.00 290.62 C 204.17 293.54 204.29 302.79 203.75 307.12 C 203.21 311.46 202.44 313.98 201.75 316.62 C 201.06 319.27 200.58 320.67 199.62 323.00 C 198.67 325.33 197.54 326.83 196.00 330.62 C 194.46 334.42 192.08 341.69 190.38 345.75 C 188.67 349.81 187.69 351.58 185.75 355.00 C 183.81 358.42 180.92 363.25 178.75 366.25 C 176.58 369.25 174.04 371.44 172.75 373.00 C 171.46 374.56 171.46 374.71 171.00 375.62 C 170.54 376.54 170.17 377.29 170.00 378.50 C 169.83 379.71 169.92 382.00 170.00 382.88 C 170.08 383.75 167.71 383.58 170.50 383.75 C 173.29 383.92 183.10 384.88 186.75 383.88 C 190.40 382.88 191.31 379.17 192.38 377.75 C 193.44 376.33 192.71 376.27 193.12 375.38 C 193.54 374.48 193.79 373.88 194.88 372.38 C 195.96 370.88 195.79 372.19 199.62 366.38 C 203.46 360.56 213.52 344.62 217.88 337.50 C 222.23 330.38 222.29 328.98 225.75 323.62 C 229.21 318.27 236.27 309.02 238.62 305.38 C 240.98 301.73 239.69 302.85 239.88 301.75 C 240.06 300.65 239.94 299.62 239.75 298.75 C 239.56 297.88 239.81 297.79 238.75 296.50 C 237.69 295.21 234.83 292.27 233.38 291.00 C 231.92 289.73 230.69 289.42 230.00 288.88 C 229.31 288.33 230.12 287.96 229.25 287.75 Z" id="s-11-f-5"/>
<path d="M 236.88 294.25 C 235.27 292.83 230.90 288.73 228.88 287.62 C 226.85 286.52 225.94 287.50 224.75 287.62 C 223.56 287.75 224.42 288.04 221.75 288.38 C 219.08 288.71 211.52 289.27 208.75 289.62 C 205.98 289.98 205.94 287.75 205.12 290.50 C 204.31 293.25 204.27 302.44 203.88 306.12 C 203.48 309.81 203.46 309.81 202.75 312.62 C 202.04 315.44 200.75 320.00 199.62 323.00 C 198.50 326.00 196.85 328.54 196.00 330.62 C 195.15 332.71 194.54 334.60 194.50 335.50 C 194.46 336.40 191.71 335.96 195.75 336.00 C 199.79 336.04 213.75 337.81 218.75 335.75 C 223.75 333.69 224.08 326.27 225.75 323.62 C 227.42 320.98 227.56 321.65 228.75 319.88 C 229.94 318.10 231.52 314.96 232.88 313.00 C 234.23 311.04 235.75 309.77 236.88 308.12 C 238.00 306.48 239.15 304.69 239.62 303.12 C 240.10 301.56 239.94 299.92 239.75 298.75 C 239.56 297.58 238.98 296.88 238.50 296.12 C 238.02 295.38 238.48 295.67 236.88 294.25 Z" id="s-11-f-6"/>
</g>
<g id="s-12" clip-path="url(#c-s-12)">
<use href="#s-12-f-0"/>
<path d="M 305.62 309.75 C 304.00 308.15 302.92 307.21 301.00 305.75 C 299.08 304.29 296.67 302.44 294.12 301.00 C 291.58 299.56 288.17 297.79 285.75 297.12 C 283.33 296.46 281.02 296.88 279.62 297.00 C 278.23 297.12 278.12 297.31 277.38 297.88 C 276.62 298.44 275.54 299.44 275.12 300.38 C 274.71 301.31 274.88 302.77 274.88 303.50 C 274.88 304.23 274.62 303.81 275.12 304.75 C 275.62 305.69 277.31 307.98 277.88 309.12 C 278.44 310.27 278.33 309.73 278.50 311.62 C 278.67 313.52 279.31 316.52 278.88 320.50 C 278.44 324.48 276.40 332.52 275.88 335.50 C 275.35 338.48 276.10 336.60 275.75 338.38 C 275.40 340.15 274.77 343.06 273.75 346.12 C 272.73 349.19 271.77 352.21 269.62 356.75 C 267.48 361.29 262.90 369.73 260.88 373.38 C 258.85 377.02 259.54 375.88 257.50 378.62 C 255.46 381.38 250.54 387.67 248.62 389.88 C 246.71 392.08 246.71 391.15 246.00 391.88 C 245.29 392.60 246.17 392.29 244.38 394.25 C 242.58 396.21 236.96 401.75 235.25 403.62 C 233.54 405.50 235.75 403.88 234.12 405.50 C 232.50 407.12 228.40 410.88 225.50 413.38 C 222.60 415.88 220.17 417.94 216.75 420.50 C 213.33 423.06 208.88 426.21 205.00 428.75 C 201.12 431.29 196.90 433.88 193.50 435.75 C 190.10 437.62 186.15 439.17 184.62 440.00 C 183.10 440.83 177.12 440.62 184.38 440.75 C 191.62 440.88 218.17 442.73 228.12 440.75 C 238.08 438.77 239.19 432.98 244.12 428.88 C 249.06 424.77 255.25 418.38 257.75 416.12 C 260.25 413.88 258.85 415.65 259.12 415.38 C 259.40 415.10 257.08 417.25 259.38 414.50 C 261.67 411.75 270.58 401.69 272.88 398.88 C 275.17 396.06 271.81 399.60 273.12 397.62 C 274.44 395.65 278.31 390.75 280.75 387.00 C 283.19 383.25 285.58 379.12 287.75 375.12 C 289.92 371.12 291.85 367.29 293.75 363.00 C 295.65 358.71 297.10 354.00 299.12 349.38 C 301.15 344.75 303.75 340.31 305.88 335.25 C 308.00 330.19 310.88 321.92 311.88 319.00 C 312.88 316.08 312.06 318.35 311.88 317.75 C 311.69 317.15 311.79 316.71 310.75 315.38 C 309.71 314.04 307.25 311.35 305.62 309.75 Z" id="s-12-f-1"/>
<path d="M 290.25 298.88 C 288.77 298.21 287.02 297.31 285.25 297.00 C 283.48 296.69 281.00 296.81 279.62 297.00 C 278.25 297.19 277.75 297.56 277.00 298.12 C 276.25 298.69 275.46 299.33 275.12 300.38 C 274.79 301.42 274.54 302.92 275.00 304.38 C 275.46 305.83 277.27 307.81 277.88 309.12 C 278.48 310.44 278.46 310.35 278.62 312.25 C 278.79 314.15 279.33 316.62 278.88 320.50 C 278.42 324.38 276.40 332.52 275.88 335.50 C 275.35 338.48 276.10 336.60 275.75 338.38 C 275.40 340.15 274.90 342.79 273.75 346.12 C 272.60 349.46 271.02 353.83 268.88 358.38 C 266.73 362.92 263.62 368.85 260.88 373.38 C 258.12 377.90 254.42 382.75 252.38 385.50 C 250.33 388.25 249.75 388.79 248.62 389.88 C 247.50 390.96 246.04 391.46 245.62 392.00 C 245.21 392.54 241.02 392.98 246.12 393.12 C 251.23 393.27 270.81 393.40 276.25 392.88 C 281.69 392.35 277.33 392.06 278.75 390.00 C 280.17 387.94 282.25 385.00 284.75 380.50 C 287.25 376.00 291.40 368.10 293.75 363.00 C 296.10 357.90 296.85 354.50 298.88 349.88 C 300.90 345.25 303.71 340.40 305.88 335.25 C 308.04 330.10 310.88 321.98 311.88 319.00 C 312.88 316.02 312.42 318.42 311.88 317.38 C 311.33 316.33 310.33 314.60 308.62 312.75 C 306.92 310.90 304.04 308.21 301.62 306.25 C 299.21 304.29 296.02 302.23 294.12 301.00 C 292.23 299.77 291.73 299.54 290.25 298.88 Z" id="s-12-f-2"/>
<path d="M 278.50 297.38 C 277.65 297.73 276.73 298.27 276.12 299.00 C 275.52 299.73 275.04 300.79 274.88 301.75 C 274.71 302.71 274.67 303.62 275.12 304.75 C 275.58 305.88 277.06 307.35 277.62 308.50 C 278.19 309.65 278.29 309.62 278.50 311.62 C 278.71 313.62 279.58 314.98 278.88 320.50 C 278.17 326.02 270.56 340.69 274.25 344.75 C 277.94 348.81 295.73 346.46 301.00 344.88 C 306.27 343.29 304.06 339.56 305.88 335.25 C 307.69 330.94 310.88 321.98 311.88 319.00 C 312.88 316.02 312.06 317.98 311.88 317.38 C 311.69 316.77 311.79 316.65 310.75 315.38 C 309.71 314.10 307.42 311.48 305.62 309.75 C 303.83 308.02 302.21 306.62 300.00 305.00 C 297.79 303.38 294.83 301.33 292.38 300.00 C 289.92 298.67 287.10 297.52 285.25 297.00 C 283.40 296.48 282.38 296.81 281.25 296.88 C 280.12 296.94 279.35 297.02 278.50 297.38 Z" id="s-12-f-3"/>
</g>
<g id="s-13" clip-path="url(#c-s-13)">
<use href="#s-13-f-0"/>
<path d="M 400.00 309.25 C 399.67 304.31 398.79 308.92 398.00 309.00 C 397.21 309.08 398.27 309.29 395.25 309.75 C 392.23 310.21 386.08 311.19 379.88 311.75 C 373.67 312.31 369.06 312.12 358.00 313.12 C 346.94 314.12 322.31 317.00 313.50 317.75 C 304.69 318.50 307.00 317.52 305.12 317.62 C 303.25 317.73 305.92 318.04 302.25 318.38 C 298.58 318.71 287.12 319.21 283.12 319.62 C 279.12 320.04 284.79 320.31 278.25 320.88 C 271.71 321.44 252.44 322.35 243.88 323.00 C 235.31 323.65 231.40 324.48 226.88 324.75 C 222.35 325.02 219.33 324.50 216.75 324.62 C 214.17 324.75 213.71 325.33 211.38 325.50 C 209.04 325.67 204.83 325.44 202.75 325.62 C 200.67 325.81 199.58 326.67 198.88 326.62 C 198.17 326.58 198.75 325.33 198.50 325.38 C 198.25 325.42 209.17 325.65 197.38 326.88 C 185.58 328.10 149.00 331.23 127.75 332.75 C 106.50 334.27 80.10 335.29 69.88 336.00 C 59.65 336.71 67.19 336.69 66.38 337.00 C 65.56 337.31 65.42 337.48 65.00 337.88 C 64.58 338.27 64.06 338.90 63.88 339.38 C 63.69 339.85 63.54 339.92 63.88 340.75 C 64.21 341.58 64.90 343.15 65.88 344.38 C 66.85 345.60 66.96 346.06 69.75 348.12 C 72.54 350.19 79.46 354.81 82.62 356.75 C 85.79 358.69 86.83 358.96 88.75 359.75 C 90.67 360.54 92.10 361.15 94.12 361.50 C 96.15 361.85 98.10 362.02 100.88 361.88 C 103.65 361.73 107.77 361.17 110.75 360.62 C 113.73 360.08 116.15 359.40 118.75 358.62 C 121.35 357.85 123.04 356.94 126.38 356.00 C 129.71 355.06 131.92 354.33 138.75 353.00 C 145.58 351.67 158.98 349.31 167.38 348.00 C 175.77 346.69 184.33 345.60 189.12 345.12 C 193.92 344.65 194.62 345.25 196.12 345.12 C 197.62 345.00 195.29 344.73 198.12 344.38 C 200.96 344.02 210.65 343.04 213.12 343.00 C 215.60 342.96 213.23 343.71 213.00 344.12 C 212.77 344.54 211.90 345.23 211.75 345.50 C 211.60 345.77 211.85 345.98 212.12 345.75 C 212.40 345.52 213.17 344.60 213.38 344.12 C 213.58 343.65 213.00 343.25 213.38 342.88 C 213.75 342.50 213.92 342.06 215.62 341.88 C 217.33 341.69 219.29 342.08 223.62 341.75 C 227.96 341.42 233.42 340.50 241.62 339.88 C 249.83 339.25 263.50 338.31 272.88 338.00 C 282.25 337.69 292.46 338.19 297.88 338.00 C 303.29 337.81 299.81 337.21 305.38 336.88 C 310.94 336.54 322.73 336.12 331.25 336.00 C 339.77 335.88 348.90 335.96 356.50 336.12 C 364.10 336.29 371.60 336.69 376.88 337.00 C 382.15 337.31 384.31 337.58 388.12 338.00 C 391.94 338.42 397.77 339.40 399.75 339.50 C 401.73 339.60 399.96 343.67 400.00 338.62 C 400.04 333.58 400.33 314.19 400.00 309.25 Z" id="s-13-f-1"/>
<path d="M 352.00 314.38 C 351.83 310.83 351.75 314.04 351.00 314.00 C 350.25 313.96 353.75 313.50 347.50 314.12 C 341.25 314.75 320.56 317.17 313.50 317.75 C 306.44 318.33 307.00 317.52 305.12 317.62 C 303.25 317.73 306.12 318.02 302.25 318.38 C 298.38 318.73 285.88 319.33 281.88 319.75 C 277.88 320.17 284.58 320.33 278.25 320.88 C 271.92 321.42 252.44 322.35 243.88 323.00 C 235.31 323.65 231.71 324.46 226.88 324.75 C 222.04 325.04 217.46 324.62 214.88 324.75 C 212.29 324.88 213.40 325.35 211.38 325.50 C 209.35 325.65 204.83 325.44 202.75 325.62 C 200.67 325.81 199.58 326.67 198.88 326.62 C 198.17 326.58 198.75 325.33 198.50 325.38 C 198.25 325.42 209.17 325.65 197.38 326.88 C 185.58 328.10 149.00 331.23 127.75 332.75 C 106.50 334.27 80.10 335.29 69.88 336.00 C 59.65 336.71 67.19 336.69 66.38 337.00 C 65.56 337.31 65.42 337.48 65.00 337.88 C 64.58 338.27 64.06 338.90 63.88 339.38 C 63.69 339.85 63.54 339.92 63.88 340.75 C 64.21 341.58 64.90 343.15 65.88 344.38 C 66.85 345.60 66.96 346.06 69.75 348.12 C 72.54 350.19 79.52 354.83 82.62 356.75 C 85.73 358.67 86.46 358.83 88.38 359.62 C 90.29 360.42 92.58 361.12 94.12 361.50 C 95.67 361.88 95.85 361.85 97.62 361.88 C 99.40 361.90 101.23 362.17 104.75 361.62 C 108.27 361.08 115.15 359.56 118.75 358.62 C 122.35 357.69 123.04 356.94 126.38 356.00 C 129.71 355.06 131.92 354.33 138.75 353.00 C 145.58 351.67 158.98 349.31 167.38 348.00 C 175.77 346.69 184.33 345.60 189.12 345.12 C 193.92 344.65 194.62 345.25 196.12 345.12 C 197.62 345.00 195.29 344.73 198.12 344.38 C 200.96 344.02 210.65 343.04 213.12 343.00 C 215.60 342.96 213.23 343.71 213.00 344.12 C 212.77 344.54 211.90 345.23 211.75 345.50 C 211.60 345.77 211.85 345.98 212.12 345.75 C 212.40 345.52 213.17 344.60 213.38 344.12 C 213.58 343.65 213.00 343.25 213.38 342.88 C 213.75 342.50 213.92 342.06 215.62 341.88 C 217.33 341.69 219.29 342.08 223.62 341.75 C 227.96 341.42 233.42 340.50 241.62 339.88 C 249.83 339.25 264.29 338.29 272.88 338.00 C 281.46 337.71 288.96 338.12 293.12 338.12 C 297.29 338.12 295.83 338.21 297.88 338.00 C 299.92 337.79 301.54 337.17 305.38 336.88 C 309.21 336.58 313.23 336.40 320.88 336.25 C 328.52 336.10 346.06 336.17 351.25 336.00 C 356.44 335.83 351.88 338.85 352.00 335.25 C 352.12 331.65 352.17 317.92 352.00 314.38 Z" id="s-13-f-2"/>
<path d="M 304.25 319.00 C 304.15 316.06 304.21 318.08 303.62 318.00 C 303.04 317.92 302.38 318.40 300.75 318.50 C 299.12 318.60 295.48 318.48 293.88 318.62 C 292.27 318.77 293.10 319.19 291.12 319.38 C 289.15 319.56 284.15 319.50 282.00 319.75 C 279.85 320.00 284.60 320.33 278.25 320.88 C 271.90 321.42 252.44 322.35 243.88 323.00 C 235.31 323.65 231.73 324.46 226.88 324.75 C 222.02 325.04 217.33 324.62 214.75 324.75 C 212.17 324.88 213.38 325.35 211.38 325.50 C 209.38 325.65 204.83 325.44 202.75 325.62 C 200.67 325.81 199.56 326.65 198.88 326.62 C 198.19 326.60 198.88 325.46 198.62 325.50 C 198.38 325.54 204.88 326.00 197.38 326.88 C 189.88 327.75 168.21 329.58 153.62 330.75 C 139.04 331.92 123.60 333.02 109.88 333.88 C 96.15 334.73 78.54 335.33 71.25 335.88 C 63.96 336.42 67.31 336.62 66.12 337.12 C 64.94 337.62 64.50 338.31 64.12 338.88 C 63.75 339.44 63.85 339.98 63.88 340.50 C 63.90 341.02 63.92 341.35 64.25 342.00 C 64.58 342.65 64.96 343.35 65.88 344.38 C 66.79 345.40 66.96 346.06 69.75 348.12 C 72.54 350.19 79.52 354.83 82.62 356.75 C 85.73 358.67 86.46 358.83 88.38 359.62 C 90.29 360.42 91.60 361.15 94.12 361.50 C 96.65 361.85 100.73 361.90 103.50 361.75 C 106.27 361.60 108.21 361.15 110.75 360.62 C 113.29 360.10 116.15 359.40 118.75 358.62 C 121.35 357.85 122.19 357.10 126.38 356.00 C 130.56 354.90 137.04 353.33 143.88 352.00 C 150.71 350.67 159.83 349.15 167.38 348.00 C 174.92 346.85 184.40 345.60 189.12 345.12 C 193.85 344.65 194.25 345.25 195.75 345.12 C 197.25 345.00 195.23 344.75 198.12 344.38 C 201.02 344.00 210.60 342.96 213.12 342.88 C 215.65 342.79 213.48 343.44 213.25 343.88 C 213.02 344.31 211.94 345.19 211.75 345.50 C 211.56 345.81 211.85 345.98 212.12 345.75 C 212.40 345.52 213.17 344.60 213.38 344.12 C 213.58 343.65 213.00 343.25 213.38 342.88 C 213.75 342.50 213.92 342.06 215.62 341.88 C 217.33 341.69 217.29 342.23 223.62 341.75 C 229.96 341.27 245.42 339.62 253.62 339.00 C 261.83 338.38 265.50 338.17 272.88 338.00 C 280.25 337.83 292.81 338.12 297.88 338.00 C 302.94 337.88 302.19 337.65 303.25 337.25 C 304.31 336.85 304.08 338.67 304.25 335.62 C 304.42 332.58 304.35 321.94 304.25 319.00 Z" id="s-13-f-3"/>
<path d="M 256.00 324.00 C 256.02 321.27 260.48 322.25 255.62 322.38 C 250.77 322.50 233.35 324.38 226.88 324.75 C 220.40 325.12 219.35 324.50 216.75 324.62 C 214.15 324.75 213.50 325.33 211.25 325.50 C 209.00 325.67 205.31 325.44 203.25 325.62 C 201.19 325.81 199.65 326.65 198.88 326.62 C 198.10 326.60 198.88 325.46 198.62 325.50 C 198.38 325.54 204.88 326.00 197.38 326.88 C 189.88 327.75 168.21 329.58 153.62 330.75 C 139.04 331.92 123.60 333.02 109.88 333.88 C 96.15 334.73 78.54 335.33 71.25 335.88 C 63.96 336.42 67.31 336.62 66.12 337.12 C 64.94 337.62 64.50 338.31 64.12 338.88 C 63.75 339.44 63.85 339.98 63.88 340.50 C 63.90 341.02 63.92 341.35 64.25 342.00 C 64.58 342.65 64.96 343.35 65.88 344.38 C 66.79 345.40 66.96 346.06 69.75 348.12 C 72.54 350.19 79.52 354.83 82.62 356.75 C 85.73 358.67 86.46 358.83 88.38 359.62 C 90.29 360.42 91.60 361.15 94.12 361.50 C 96.65 361.85 100.73 361.90 103.50 361.75 C 106.27 361.60 108.21 361.15 110.75 360.62 C 113.29 360.10 116.15 359.40 118.75 358.62 C 121.35 357.85 123.04 356.94 126.38 356.00 C 129.71 355.06 131.92 354.33 138.75 353.00 C 145.58 351.67 158.98 349.31 167.38 348.00 C 175.77 346.69 184.33 345.60 189.12 345.12 C 193.92 344.65 194.62 345.25 196.12 345.12 C 197.62 345.00 196.79 344.54 198.12 344.38 C 199.46 344.21 202.79 344.29 204.12 344.12 C 205.46 343.96 204.71 343.52 206.12 343.38 C 207.54 343.23 211.48 343.33 212.62 343.25 C 213.77 343.17 212.90 342.77 213.00 342.88 C 213.10 342.98 213.46 343.44 213.25 343.88 C 213.04 344.31 211.94 345.19 211.75 345.50 C 211.56 345.81 211.85 345.98 212.12 345.75 C 212.40 345.52 213.15 344.65 213.38 344.12 C 213.60 343.60 213.12 343.00 213.50 342.62 C 213.88 342.25 213.94 342.02 215.62 341.88 C 217.31 341.73 216.98 342.27 223.62 341.75 C 230.27 341.23 250.10 341.71 255.50 338.75 C 260.90 335.79 255.98 326.73 256.00 324.00 Z" id="s-13-f-4"/>
<path d="M 208.25 328.00 C 208.19 325.27 208.15 326.50 207.88 326.12 C 207.60 325.75 207.65 325.81 206.62 325.75 C 205.60 325.69 202.67 325.65 201.75 325.75 C 200.83 325.85 201.31 326.33 201.12 326.38 C 200.94 326.42 201.02 325.96 200.62 326.00 C 200.23 326.04 199.08 326.71 198.75 326.62 C 198.42 326.54 198.85 325.46 198.62 325.50 C 198.40 325.54 204.88 326.00 197.38 326.88 C 189.88 327.75 168.21 329.58 153.62 330.75 C 139.04 331.92 123.60 333.02 109.88 333.88 C 96.15 334.73 78.54 335.33 71.25 335.88 C 63.96 336.42 67.31 336.62 66.12 337.12 C 64.94 337.62 64.50 338.31 64.12 338.88 C 63.75 339.44 63.58 339.58 63.88 340.50 C 64.17 341.42 64.90 343.10 65.88 344.38 C 66.85 345.65 66.96 346.06 69.75 348.12 C 72.54 350.19 79.52 354.83 82.62 356.75 C 85.73 358.67 86.46 358.83 88.38 359.62 C 90.29 360.42 91.60 361.15 94.12 361.50 C 96.65 361.85 100.73 361.90 103.50 361.75 C 106.27 361.60 108.21 361.15 110.75 360.62 C 113.29 360.10 116.15 359.40 118.75 358.62 C 121.35 357.85 123.04 356.94 126.38 356.00 C 129.71 355.06 134.04 354.00 138.75 353.00 C 143.46 352.00 146.23 351.31 154.62 350.00 C 163.02 348.69 182.21 345.94 189.12 345.12 C 196.04 344.31 194.62 345.25 196.12 345.12 C 197.62 345.00 196.79 344.54 198.12 344.38 C 199.46 344.21 202.56 344.31 204.12 344.12 C 205.69 343.94 206.81 343.52 207.50 343.25 C 208.19 342.98 208.12 345.04 208.25 342.50 C 208.38 339.96 208.31 330.73 208.25 328.00 Z" id="s-13-f-5"/>
<path d="M 159.88 330.62 C 159.60 327.73 163.75 329.77 158.38 330.12 C 153.00 330.48 142.33 331.77 127.62 332.75 C 112.92 333.73 80.33 335.29 70.12 336.00 C 59.92 336.71 67.23 336.69 66.38 337.00 C 65.52 337.31 65.42 337.50 65.00 337.88 C 64.58 338.25 64.00 338.56 63.88 339.25 C 63.75 339.94 63.92 341.15 64.25 342.00 C 64.58 342.85 64.96 343.35 65.88 344.38 C 66.79 345.40 66.96 346.06 69.75 348.12 C 72.54 350.19 79.52 354.83 82.62 356.75 C 85.73 358.67 86.46 358.83 88.38 359.62 C 90.29 360.42 92.62 361.12 94.12 361.50 C 95.62 361.88 95.60 361.85 97.38 361.88 C 99.15 361.90 101.17 362.17 104.75 361.62 C 108.33 361.08 115.27 359.56 118.88 358.62 C 122.48 357.69 122.96 356.96 126.38 356.00 C 129.79 355.04 133.90 353.96 139.38 352.88 C 144.85 351.79 155.83 350.17 159.25 349.50 C 162.67 348.83 159.75 349.21 159.88 348.88 C 160.00 348.54 160.00 350.54 160.00 347.50 C 160.00 344.46 160.15 333.52 159.88 330.62 Z" id="s-13-f-6"/>
<path d="M 111.75 360.00 C 111.98 355.73 112.02 339.31 112.00 335.00 C 111.98 330.69 112.77 334.29 111.62 334.12 C 110.48 333.96 112.06 333.69 105.12 334.00 C 98.19 334.31 76.46 335.50 70.00 336.00 C 63.54 336.50 67.38 336.52 66.38 337.00 C 65.38 337.48 64.40 338.15 64.00 338.88 C 63.60 339.60 63.88 340.71 64.00 341.38 C 64.12 342.04 63.79 341.75 64.75 342.88 C 65.71 344.00 67.56 346.31 69.75 348.12 C 71.94 349.94 74.77 351.83 77.88 353.75 C 80.98 355.67 85.67 358.33 88.38 359.62 C 91.08 360.92 92.65 361.12 94.12 361.50 C 95.60 361.88 95.48 361.85 97.25 361.88 C 99.02 361.90 102.52 361.83 104.75 361.62 C 106.98 361.42 109.46 360.90 110.62 360.62 C 111.79 360.35 111.52 364.27 111.75 360.00 Z" id="s-13-f-7"/>
</g>
</svg>