<?xml version="1.0" encoding="UTF-8"?>
<svg xmlns="http://www.w3.org/2000/svg" viewBox="0 0 500 500">
<defs>
<path d="M 137.38 52.00 C 135.15 52.17 135.77 52.71 135.25 53.12 C 134.73 53.54 134.42 53.75 134.25 54.50 C 134.08 55.25 133.65 56.71 134.25 57.62 C 134.85 58.54 136.35 58.77 137.88 60.00 C 139.40 61.23 141.73 63.25 143.38 65.00 C 145.02 66.75 146.52 68.65 147.75 70.50 C 148.98 72.35 150.04 74.42 150.75 76.12 C 151.46 77.83 151.33 78.90 152.00 80.75 C 152.67 82.60 153.62 83.54 154.75 87.25 C 155.88 90.96 156.71 92.71 158.75 103.00 C 160.79 113.29 165.29 140.04 167.00 149.00 C 168.71 157.96 168.00 154.02 169.00 156.75 C 170.00 159.48 172.02 163.56 173.00 165.38 C 173.98 167.19 173.90 166.75 174.88 167.62 C 175.85 168.50 177.67 170.12 178.88 170.62 C 180.08 171.12 181.15 171.08 182.12 170.62 C 183.10 170.17 183.79 169.60 184.75 167.88 C 185.71 166.15 187.38 164.67 187.88 160.25 C 188.38 155.83 188.56 149.23 187.75 141.38 C 186.94 133.52 185.12 122.79 183.00 113.12 C 180.88 103.46 176.69 90.48 175.00 83.38 C 173.31 76.27 175.04 74.92 172.88 70.50 C 170.71 66.08 164.21 59.46 162.00 56.88 C 159.79 54.29 160.77 55.60 159.62 55.00 C 158.48 54.40 156.96 53.73 155.12 53.25 C 153.29 52.77 151.58 52.33 148.62 52.12 C 145.67 51.92 139.60 51.83 137.38 52.00 Z" id="s-0-f-0"/>
<clipPath id="c-s-0"><use href="#s-0-f-0"/></clipPath>
<path d="M 367.88 58.00 C 368.19 56.75 367.94 56.48 367.75 55.88 C 367.56 55.27 367.75 55.38 366.75 54.38 C 365.75 53.38 363.69 51.40 361.75 49.88 C 359.81 48.35 359.02 47.40 355.12 45.25 C 351.23 43.10 342.69 38.88 338.38 37.00 C 334.06 35.12 332.04 34.48 329.25 34.00 C 326.46 33.52 327.75 33.19 321.62 34.12 C 315.50 35.06 302.56 37.98 292.50 39.62 C 282.44 41.27 271.21 42.50 261.25 44.00 C 251.29 45.50 241.69 47.33 232.75 48.62 C 223.81 49.92 215.31 50.88 207.62 51.75 C 199.94 52.62 193.23 53.31 186.62 53.88 C 180.02 54.44 172.31 54.73 168.00 55.12 C 163.69 55.52 160.04 53.60 160.75 56.25 C 161.46 58.90 164.62 69.35 172.25 71.00 C 179.88 72.65 187.10 68.29 206.50 66.12 C 225.90 63.96 271.31 59.52 288.62 58.00 C 305.94 56.48 305.96 57.00 310.38 57.00 C 314.79 57.00 314.08 57.69 315.12 58.00 C 316.17 58.31 316.02 58.40 316.62 58.88 C 317.23 59.35 318.23 60.08 318.75 60.88 C 319.27 61.67 319.73 60.85 319.75 63.62 C 319.77 66.40 319.38 73.25 318.88 77.50 C 318.38 81.75 318.81 81.19 316.75 89.12 C 314.69 97.06 308.92 117.44 306.50 125.12 C 304.08 132.81 303.56 132.67 302.25 135.25 C 300.94 137.83 299.35 137.50 298.62 140.62 C 297.90 143.75 297.21 150.62 297.88 154.00 C 298.54 157.38 301.35 159.44 302.62 160.88 C 303.90 162.31 304.73 162.29 305.50 162.62 C 306.27 162.96 306.29 162.88 307.25 162.88 C 308.21 162.88 309.85 162.98 311.25 162.62 C 312.65 162.27 314.02 161.71 315.62 160.75 C 317.23 159.79 319.52 158.06 320.88 156.88 C 322.23 155.69 320.62 159.62 323.75 153.62 C 326.88 147.62 335.50 129.77 339.62 120.88 C 343.75 111.98 345.27 108.12 348.50 100.25 C 351.73 92.38 356.92 78.71 359.00 73.62 C 361.08 68.54 359.85 71.46 361.00 69.75 C 362.15 68.04 364.73 65.33 365.88 63.38 C 367.02 61.42 367.56 59.25 367.88 58.00 Z" id="s-1-f-0"/>
<clipPath id="c-s-1"><use href="#s-1-f-0"/></clipPath>
<path d="M 317.12 89.50 C 317.17 87.65 316.81 88.44 315.38 87.88 C 313.94 87.31 311.29 86.60 308.50 86.12 C 305.71 85.65 301.46 85.19 298.62 85.00 C 295.79 84.81 302.21 83.38 291.50 85.00 C 280.79 86.62 247.92 92.62 234.38 94.75 C 220.83 96.88 218.12 96.88 210.25 97.75 C 202.38 98.62 192.19 99.31 187.12 100.00 C 182.06 100.69 181.12 101.21 179.88 101.88 C 178.62 102.54 179.54 103.42 179.62 104.00 C 179.71 104.58 180.21 104.71 180.38 105.38 C 180.54 106.04 180.29 106.62 180.62 108.00 C 180.96 109.38 181.65 112.50 182.38 113.62 C 183.10 114.75 183.60 114.40 185.00 114.75 C 186.40 115.10 188.04 115.56 190.75 115.75 C 193.46 115.94 196.77 116.06 201.25 115.88 C 205.73 115.69 206.90 115.81 217.62 114.62 C 228.35 113.44 253.00 110.50 265.62 108.75 C 278.25 107.00 285.58 105.31 293.38 104.12 C 301.17 102.94 308.92 102.15 312.38 101.62 C 315.83 101.10 313.67 101.44 314.12 101.00 C 314.58 100.56 314.62 100.92 315.12 99.00 C 315.62 97.08 317.08 91.35 317.12 89.50 Z" id="s-2-f-0"/>
<clipPath id="c-s-2"><use href="#s-2-f-0"/></clipPath>
<path d="M 299.25 140.38 C 298.58 138.77 296.98 138.83 295.12 138.12 C 293.27 137.42 291.10 136.48 288.12 136.12 C 285.15 135.77 282.85 135.67 277.25 136.00 C 271.65 136.33 259.90 137.50 254.50 138.12 C 249.10 138.75 249.52 139.12 244.88 139.75 C 240.23 140.38 236.06 141.02 226.62 141.88 C 217.19 142.73 194.77 144.31 188.25 144.88 C 181.73 145.44 187.62 142.83 187.50 145.25 C 187.38 147.67 187.00 156.79 187.50 159.38 C 188.00 161.96 187.52 160.52 190.50 160.75 C 193.48 160.98 193.46 161.44 205.38 160.75 C 217.29 160.06 250.25 157.58 262.00 156.62 C 273.75 155.67 269.94 155.46 275.88 155.00 C 281.81 154.54 293.88 154.19 297.62 153.88 C 301.38 153.56 298.12 154.15 298.38 153.12 C 298.62 152.10 298.98 149.88 299.12 147.75 C 299.27 145.62 299.92 141.98 299.25 140.38 Z" id="s-3-f-0"/>
<clipPath id="c-s-3"><use href="#s-3-f-0"/></clipPath>
<path d="M 444.88 189.25 C 444.62 188.29 444.00 187.00 443.12 185.88 C 442.25 184.75 441.12 183.69 439.62 182.50 C 438.12 181.31 436.48 180.17 434.12 178.75 C 431.77 177.33 429.56 175.60 425.50 174.00 C 421.44 172.40 413.79 169.96 409.75 169.12 C 405.71 168.29 411.12 167.90 401.25 169.00 C 391.38 170.10 374.17 172.96 350.50 175.75 C 326.83 178.54 293.40 182.25 259.25 185.75 C 225.10 189.25 178.46 193.71 145.62 196.75 C 112.79 199.79 76.85 202.60 62.25 204.00 C 47.65 205.40 59.29 204.67 58.00 205.12 C 56.71 205.58 55.19 206.21 54.50 206.75 C 53.81 207.29 53.81 207.69 53.88 208.38 C 53.94 209.06 54.25 210.00 54.88 210.88 C 55.50 211.75 56.69 212.81 57.62 213.62 C 58.56 214.44 58.79 214.77 60.50 215.75 C 62.21 216.73 64.71 218.19 67.88 219.50 C 71.04 220.81 76.46 222.75 79.50 223.62 C 82.54 224.50 83.98 224.54 86.12 224.75 C 88.27 224.96 88.04 225.33 92.38 224.88 C 96.71 224.42 107.62 222.50 112.12 222.00 C 116.62 221.50 112.38 222.71 119.38 221.88 C 126.38 221.04 139.92 218.81 154.12 217.00 C 168.33 215.19 192.88 212.19 204.62 211.00 C 216.38 209.81 216.31 210.54 224.62 209.88 C 232.94 209.21 235.10 208.48 254.50 207.00 C 273.90 205.52 319.42 202.33 341.00 201.00 C 362.58 199.67 368.48 199.56 384.00 199.00 C 399.52 198.44 425.08 198.02 434.12 197.62 C 443.17 197.23 436.96 197.08 438.25 196.62 C 439.54 196.17 440.81 195.71 441.88 194.88 C 442.94 194.04 444.12 192.56 444.62 191.62 C 445.12 190.69 445.12 190.21 444.88 189.25 Z" id="s-4-f-0"/>
<clipPath id="c-s-4"><use href="#s-4-f-0"/></clipPath>
<path d="M 143.12 217.62 C 141.92 217.71 141.54 218.19 140.12 218.38 C 138.71 218.56 135.77 218.58 134.62 218.75 C 133.48 218.92 134.33 219.23 133.25 219.38 C 132.17 219.52 129.48 219.46 128.12 219.62 C 126.77 219.79 126.42 220.21 125.12 220.38 C 123.83 220.54 121.44 220.48 120.38 220.62 C 119.31 220.77 119.27 221.21 118.75 221.25 C 118.23 221.29 117.58 220.88 117.25 220.88 C 116.92 220.88 116.48 220.71 116.75 221.25 C 117.02 221.79 118.35 223.25 118.88 224.12 C 119.40 225.00 119.40 224.79 119.88 226.50 C 120.35 228.21 120.44 210.29 121.75 234.38 C 123.06 258.46 126.65 347.90 127.75 371.00 C 128.85 394.10 125.46 373.35 128.38 373.00 C 131.29 372.65 142.04 369.71 145.25 368.88 C 148.46 368.04 147.19 368.23 147.62 368.00 C 148.06 367.77 147.65 374.46 147.88 367.50 C 148.10 360.54 148.81 343.92 149.00 326.25 C 149.19 308.58 148.81 275.69 149.00 261.50 C 149.19 247.31 149.79 246.02 150.12 241.12 C 150.46 236.23 150.73 234.08 151.00 232.12 C 151.27 230.17 151.60 230.69 151.75 229.38 C 151.90 228.06 152.17 225.71 151.88 224.25 C 151.58 222.79 150.75 221.69 150.00 220.62 C 149.25 219.56 148.52 218.38 147.38 217.88 C 146.23 217.38 144.33 217.54 143.12 217.62 Z" id="s-5-f-0"/>
<clipPath id="c-s-5"><use href="#s-5-f-0"/></clipPath>
<path d="M 233.62 208.50 C 229.35 207.96 216.62 209.25 212.00 209.62 C 207.38 210.00 206.88 210.29 205.88 210.75 C 204.88 211.21 205.67 211.65 206.00 212.38 C 206.33 213.10 207.23 213.65 207.88 215.12 C 208.52 216.60 209.23 218.73 209.88 221.25 C 210.52 223.77 211.10 225.38 211.75 230.25 C 212.40 235.12 213.40 230.40 213.75 250.50 C 214.10 270.60 214.02 332.35 213.88 350.88 C 213.73 369.40 213.10 355.85 212.88 361.62 C 212.65 367.40 212.98 375.56 212.50 385.50 C 212.02 395.44 210.42 413.73 210.00 421.25 C 209.58 428.77 209.65 427.46 210.00 430.62 C 210.35 433.79 210.94 436.38 212.12 440.25 C 213.31 444.12 215.81 450.71 217.12 453.88 C 218.44 457.04 219.04 457.71 220.00 459.25 C 220.96 460.79 222.06 462.19 222.88 463.12 C 223.69 464.06 224.19 464.42 224.88 464.88 C 225.56 465.33 226.29 465.73 227.00 465.88 C 227.71 466.02 228.40 466.08 229.12 465.75 C 229.85 465.42 230.44 465.02 231.38 463.88 C 232.31 462.73 233.85 460.42 234.75 458.88 C 235.65 457.33 236.25 457.83 236.75 454.62 C 237.25 451.42 237.42 456.92 237.75 439.62 C 238.08 422.33 238.56 387.73 238.75 350.88 C 238.94 314.02 238.88 241.06 238.88 218.50 C 238.88 195.94 238.96 216.44 238.75 215.50 C 238.54 214.56 238.48 214.04 237.62 212.88 C 236.77 211.71 237.90 209.04 233.62 208.50 Z" id="s-6-f-0"/>
<clipPath id="c-s-6"><use href="#s-6-f-0"/></clipPath>
<path d="M 214.12 253.25 C 211.54 250.52 202.19 253.00 198.75 253.12 C 195.31 253.25 197.60 253.06 193.50 254.00 C 189.40 254.94 181.58 257.10 174.12 258.75 C 166.67 260.40 153.02 260.77 148.75 263.88 C 144.48 266.98 148.48 275.04 148.50 277.38 C 148.52 279.71 147.77 277.81 148.88 277.88 C 149.98 277.94 150.50 278.10 155.12 277.75 C 159.75 277.40 169.27 276.60 176.62 275.75 C 183.98 274.90 193.04 273.60 199.25 272.62 C 205.46 271.65 211.38 270.40 213.88 269.88 C 216.38 269.35 214.21 272.27 214.25 269.50 C 214.29 266.73 216.71 255.98 214.12 253.25 Z" id="s-7-f-0"/>
<clipPath id="c-s-7"><use href="#s-7-f-0"/></clipPath>
<path d="M 214.25 302.38 C 213.79 299.83 214.04 301.92 211.50 301.88 C 208.96 301.83 209.46 300.12 199.00 302.12 C 188.54 304.12 157.15 309.92 148.75 313.88 C 140.35 317.83 148.38 323.73 148.62 325.88 C 148.88 328.02 149.21 326.58 150.25 326.75 C 151.29 326.92 151.38 327.06 154.88 326.88 C 158.38 326.69 165.56 326.17 171.25 325.62 C 176.94 325.08 181.92 324.58 189.00 323.62 C 196.08 322.67 209.54 320.96 213.75 319.88 C 217.96 318.79 214.17 320.04 214.25 317.12 C 214.33 314.21 214.71 304.92 214.25 302.38 Z" id="s-8-f-0"/>
<clipPath id="c-s-8"><use href="#s-8-f-0"/></clipPath>
<path d="M 214.00 351.50 C 213.88 349.77 213.58 350.98 213.25 351.00 C 212.92 351.02 212.75 351.46 212.00 351.62 C 211.25 351.79 211.21 351.31 208.75 352.00 C 206.29 352.69 201.65 354.46 197.25 355.75 C 192.85 357.04 190.50 357.75 182.38 359.75 C 174.25 361.75 154.60 366.44 148.50 367.75 C 142.40 369.06 146.44 367.52 145.75 367.62 C 145.06 367.73 145.04 368.21 144.38 368.38 C 143.71 368.54 142.42 368.46 141.75 368.62 C 141.08 368.79 141.04 369.21 140.38 369.38 C 139.71 369.54 139.08 369.29 137.75 369.62 C 136.42 369.96 133.83 371.02 132.38 371.38 C 130.92 371.73 129.60 371.58 129.00 371.75 C 128.40 371.92 129.56 372.04 128.75 372.38 C 127.94 372.71 127.17 373.02 124.12 373.75 C 121.08 374.48 116.25 375.75 110.50 376.75 C 104.75 377.75 94.21 379.27 89.62 379.75 C 85.04 380.23 86.48 379.92 83.00 379.62 C 79.52 379.33 72.33 378.27 68.75 378.00 C 65.17 377.73 63.04 377.81 61.50 378.00 C 59.96 378.19 60.04 378.65 59.50 379.12 C 58.96 379.60 58.50 379.85 58.25 380.88 C 58.00 381.90 57.44 383.56 58.00 385.25 C 58.56 386.94 59.54 388.42 61.62 391.00 C 63.71 393.58 67.90 398.27 70.50 400.75 C 73.10 403.23 75.08 404.42 77.25 405.88 C 79.42 407.33 81.50 408.54 83.50 409.50 C 85.50 410.46 87.25 411.25 89.25 411.62 C 91.25 412.00 93.48 412.08 95.50 411.75 C 97.52 411.42 97.50 411.54 101.38 409.62 C 105.25 407.71 113.33 402.85 118.75 400.25 C 124.17 397.65 118.27 399.35 133.88 394.00 C 149.48 388.65 199.15 372.58 212.38 368.12 C 225.60 363.67 212.98 368.38 213.25 367.25 C 213.52 366.12 213.88 364.00 214.00 361.38 C 214.12 358.75 214.12 353.23 214.00 351.50 Z" id="s-9-f-0"/>
<clipPath id="c-s-9"><use href="#s-9-f-0"/></clipPath>
<path d="M 390.50 252.88 C 389.00 252.56 388.98 252.88 387.50 253.25 C 386.02 253.62 383.92 254.25 381.62 255.12 C 379.33 256.00 376.65 257.40 373.75 258.50 C 370.85 259.60 369.50 260.21 364.25 261.75 C 359.00 263.29 347.04 266.56 342.25 267.75 C 337.46 268.94 342.94 267.21 335.50 268.88 C 328.06 270.54 306.54 275.77 297.62 277.75 C 288.71 279.73 287.00 279.90 282.00 280.75 C 277.00 281.60 272.52 282.33 267.62 282.88 C 262.73 283.42 255.60 283.62 252.62 284.00 C 249.65 284.38 250.35 284.73 249.75 285.12 C 249.15 285.52 249.06 285.92 249.00 286.38 C 248.94 286.83 248.79 287.02 249.38 287.88 C 249.96 288.73 249.83 289.35 252.50 291.50 C 255.17 293.65 262.04 298.73 265.38 300.75 C 268.71 302.77 270.48 303.10 272.50 303.62 C 274.52 304.15 276.10 304.00 277.50 303.88 C 278.90 303.75 279.50 303.52 280.88 302.88 C 282.25 302.23 283.15 301.15 285.75 300.00 C 288.35 298.85 292.77 297.19 296.50 296.00 C 300.23 294.81 301.52 294.90 308.12 292.88 C 314.73 290.85 331.21 285.52 336.12 283.88 C 341.04 282.23 334.94 283.65 337.62 283.00 C 340.31 282.35 347.10 280.83 352.25 280.00 C 357.40 279.17 364.75 278.29 368.50 278.00 C 372.25 277.71 372.77 277.92 374.75 278.25 C 376.73 278.58 378.98 279.35 380.38 280.00 C 381.77 280.65 382.40 281.40 383.12 282.12 C 383.85 282.85 384.31 283.29 384.75 284.38 C 385.19 285.46 385.75 284.31 385.75 288.62 C 385.75 292.94 385.25 303.83 384.75 310.25 C 384.25 316.67 383.58 321.25 382.75 327.12 C 381.92 333.00 380.92 339.29 379.75 345.50 C 378.58 351.71 377.08 358.79 375.75 364.38 C 374.42 369.96 373.27 374.23 371.75 379.00 C 370.23 383.77 367.98 389.69 366.62 393.00 C 365.27 396.31 364.98 396.77 363.62 398.88 C 362.27 400.98 359.92 404.19 358.50 405.62 C 357.08 407.06 356.23 407.15 355.12 407.50 C 354.02 407.85 353.08 407.90 351.88 407.75 C 350.67 407.60 349.21 407.12 347.88 406.62 C 346.54 406.12 346.15 406.04 343.88 404.75 C 341.60 403.46 337.52 401.06 334.25 398.88 C 330.98 396.69 326.15 392.85 324.25 391.62 C 322.35 390.40 323.06 391.19 322.88 391.50 C 322.69 391.81 321.94 391.35 323.12 393.50 C 324.31 395.65 327.73 400.52 330.00 404.38 C 332.27 408.23 334.79 412.88 336.75 416.62 C 338.71 420.38 339.88 422.54 341.75 426.88 C 343.62 431.21 346.48 439.29 348.00 442.62 C 349.52 445.96 349.98 445.85 350.88 446.88 C 351.77 447.90 352.25 448.44 353.38 448.75 C 354.50 449.06 356.29 448.92 357.62 448.75 C 358.96 448.58 359.98 448.25 361.38 447.75 C 362.77 447.25 364.21 446.69 366.00 445.75 C 367.79 444.81 370.25 443.56 372.12 442.12 C 374.00 440.69 375.65 438.88 377.25 437.12 C 378.85 435.38 380.17 433.90 381.75 431.62 C 383.33 429.35 385.25 426.25 386.75 423.50 C 388.25 420.75 389.25 418.73 390.75 415.12 C 392.25 411.52 394.27 406.65 395.75 401.88 C 397.23 397.10 397.79 395.46 399.62 386.50 C 401.46 377.54 404.85 359.21 406.75 348.12 C 408.65 337.04 409.92 326.56 411.00 320.00 C 412.08 313.44 412.54 311.90 413.25 308.75 C 413.96 305.60 414.44 303.75 415.25 301.12 C 416.06 298.50 417.06 295.38 418.12 293.00 C 419.19 290.62 420.52 289.06 421.62 286.88 C 422.73 284.69 424.23 281.69 424.75 279.88 C 425.27 278.06 424.92 277.04 424.75 276.00 C 424.58 274.96 424.73 274.90 423.75 273.62 C 422.77 272.35 421.48 270.44 418.88 268.38 C 416.27 266.31 411.85 263.46 408.12 261.25 C 404.40 259.04 399.44 256.52 396.50 255.12 C 393.56 253.73 392.00 253.19 390.50 252.88 Z" id="s-10-f-0"/>
<clipPath id="c-s-10"><use href="#s-10-f-0"/></clipPath>
<path d="M 329.38 216.12 C 326.21 214.83 324.23 214.50 322.25 214.12 C 320.27 213.75 318.54 213.85 317.50 213.88 C 316.46 213.90 316.54 213.83 316.00 214.25 C 315.46 214.67 314.58 215.15 314.25 216.38 C 313.92 217.60 313.75 219.31 314.00 221.62 C 314.25 223.94 315.46 228.02 315.75 230.25 C 316.04 232.48 315.92 231.62 315.75 235.00 C 315.58 238.38 315.08 246.60 314.75 250.50 C 314.42 254.40 314.42 254.31 313.75 258.38 C 313.08 262.44 311.73 272.00 310.75 274.88 C 309.77 277.75 308.06 275.35 307.88 275.62 C 307.69 275.90 309.35 275.90 309.62 276.50 C 309.90 277.10 309.67 278.48 309.50 279.25 C 309.33 280.02 308.81 280.27 308.62 281.12 C 308.44 281.98 308.54 283.65 308.38 284.38 C 308.21 285.10 307.79 284.77 307.62 285.50 C 307.46 286.23 307.54 287.98 307.38 288.75 C 307.21 289.52 306.75 289.38 306.62 290.12 C 306.50 290.88 307.48 289.67 306.62 293.25 C 305.77 296.83 304.17 303.33 301.50 311.62 C 298.83 319.92 293.44 335.38 290.62 343.00 C 287.81 350.62 286.94 352.19 284.62 357.38 C 282.31 362.56 279.77 368.12 276.75 374.12 C 273.73 380.12 269.88 387.38 266.50 393.38 C 263.12 399.38 260.04 404.50 256.50 410.12 C 252.96 415.75 247.17 423.98 245.25 427.12 C 243.33 430.27 244.96 428.58 245.00 429.00 C 245.04 429.42 244.81 429.52 245.50 429.62 C 246.19 429.73 247.81 429.94 249.12 429.62 C 250.44 429.31 250.83 429.40 253.38 427.75 C 255.92 426.10 261.35 422.10 264.38 419.75 C 267.40 417.40 269.25 415.71 271.50 413.62 C 273.75 411.54 274.98 410.52 277.88 407.25 C 280.77 403.98 285.90 397.88 288.88 394.00 C 291.85 390.12 292.96 388.52 295.75 384.00 C 298.54 379.48 302.12 373.69 305.62 366.88 C 309.12 360.06 313.56 350.40 316.75 343.12 C 319.94 335.85 322.25 329.90 324.75 323.25 C 327.25 316.60 329.54 309.98 331.75 303.25 C 333.96 296.52 336.52 286.40 338.00 282.88 C 339.48 279.35 340.25 282.31 340.62 282.12 C 341.00 281.94 340.44 281.73 340.25 281.75 C 340.06 281.77 339.83 282.23 339.50 282.25 C 339.17 282.27 338.29 281.98 338.25 281.88 C 338.21 281.77 339.06 282.17 339.25 281.62 C 339.44 281.08 339.23 279.27 339.38 278.62 C 339.52 277.98 339.96 278.33 340.12 277.75 C 340.29 277.17 340.21 275.73 340.38 275.12 C 340.54 274.52 340.98 274.71 341.12 274.12 C 341.27 273.54 341.08 272.27 341.25 271.62 C 341.42 270.98 341.98 270.92 342.12 270.25 C 342.27 269.58 340.52 272.15 342.12 267.62 C 343.73 263.10 349.96 247.94 351.75 243.12 C 353.54 238.31 352.75 240.38 352.88 238.75 C 353.00 237.12 352.77 234.69 352.50 233.38 C 352.23 232.06 351.88 231.81 351.25 230.88 C 350.62 229.94 349.67 228.73 348.75 227.75 C 347.83 226.77 347.00 225.98 345.75 225.00 C 344.50 224.02 343.98 223.35 341.25 221.88 C 338.52 220.40 332.54 217.42 329.38 216.12 Z" id="s-11-f-0"/>
<clipPath id="c-s-11"><use href="#s-11-f-0"/></clipPath>
</defs>
<g id="s-0" clip-path="url(#c-s-0)">
<use href="#s-0-f-0"/>
<path d="M 135.62 52.88 C 135.06 53.40 134.23 54.33 134.00 55.12 C 133.77 55.92 133.60 56.81 134.25 57.62 C 134.90 58.44 136.35 58.77 137.88 60.00 C 139.40 61.23 141.73 63.25 143.38 65.00 C 145.02 66.75 146.52 68.65 147.75 70.50 C 148.98 72.35 150.04 74.42 150.75 76.12 C 151.46 77.83 151.33 78.90 152.00 80.75 C 152.67 82.60 153.62 83.54 154.75 87.25 C 155.88 90.96 156.71 92.94 158.75 103.00 C 160.79 113.06 165.35 140.12 167.00 147.62 C 168.65 155.12 165.15 147.98 168.62 148.00 C 172.10 148.02 184.69 148.85 187.88 147.75 C 191.06 146.65 187.94 143.69 187.75 141.38 C 187.56 139.06 187.54 138.58 186.75 133.88 C 185.96 129.17 184.96 121.54 183.00 113.12 C 181.04 104.71 176.69 90.48 175.00 83.38 C 173.31 76.27 175.04 74.92 172.88 70.50 C 170.71 66.08 164.21 59.46 162.00 56.88 C 159.79 54.29 160.94 55.65 159.62 55.00 C 158.31 54.35 156.17 53.50 154.12 53.00 C 152.08 52.50 149.90 52.19 147.38 52.00 C 144.85 51.81 140.67 51.88 139.00 51.88 C 137.33 51.88 137.94 51.83 137.38 52.00 C 136.81 52.17 136.19 52.35 135.62 52.88 Z" id="s-0-f-1"/>
<path d="M 135.25 53.12 C 134.69 53.65 134.17 54.38 134.00 55.12 C 133.83 55.88 133.60 56.81 134.25 57.62 C 134.90 58.44 136.31 58.73 137.88 60.00 C 139.44 61.27 141.98 63.50 143.62 65.25 C 145.27 67.00 146.73 69.06 147.75 70.50 C 148.77 71.94 148.58 71.08 149.75 73.88 C 150.92 76.67 153.38 82.96 154.75 87.25 C 156.12 91.54 157.38 97.50 158.00 99.62 C 158.62 101.75 155.02 99.96 158.50 100.00 C 161.98 100.04 175.42 100.04 178.88 99.88 C 182.33 99.71 179.90 101.75 179.25 99.00 C 178.60 96.25 176.06 88.12 175.00 83.38 C 173.94 78.62 175.04 74.92 172.88 70.50 C 170.71 66.08 164.56 59.62 162.00 56.88 C 159.44 54.12 159.73 54.79 157.50 54.00 C 155.27 53.21 151.98 52.46 148.62 52.12 C 145.27 51.79 139.60 51.83 137.38 52.00 C 135.15 52.17 135.81 52.60 135.25 53.12 Z" id="s-0-f-2"/>
</g>
<g id="s-1" clip-path="url(#c-s-1)">
<use href="#s-1-f-0"/>
<path d="M 367.88 58.00 C 368.19 56.75 367.94 56.48 367.75 55.88 C 367.56 55.27 367.75 55.38 366.75 54.38 C 365.75 53.38 363.69 51.40 361.75 49.88 C 359.81 48.35 359.02 47.40 355.12 45.25 C 351.23 43.10 342.69 38.88 338.38 37.00 C 334.06 35.12 332.04 34.48 329.25 34.00 C 326.46 33.52 327.75 33.19 321.62 34.12 C 315.50 35.06 302.56 37.98 292.50 39.62 C 282.44 41.27 271.21 42.50 261.25 44.00 C 251.29 45.50 241.69 47.33 232.75 48.62 C 223.81 49.92 215.31 50.88 207.62 51.75 C 199.94 52.62 193.23 53.31 186.62 53.88 C 180.02 54.44 172.31 54.73 168.00 55.12 C 163.69 55.52 160.04 53.60 160.75 56.25 C 161.46 58.90 164.62 69.35 172.25 71.00 C 179.88 72.65 187.10 68.29 206.50 66.12 C 225.90 63.96 271.31 59.52 288.62 58.00 C 305.94 56.48 305.96 57.00 310.38 57.00 C 314.79 57.00 314.08 57.69 315.12 58.00 C 316.17 58.31 316.02 58.40 316.62 58.88 C 317.23 59.35 318.23 60.08 318.75 60.88 C 319.27 61.67 319.60 62.02 319.75 63.62 C 319.90 65.23 319.96 67.04 319.62 70.50 C 319.29 73.96 318.60 79.79 317.75 84.38 C 316.90 88.96 315.46 94.52 314.50 98.00 C 313.54 101.48 312.79 102.46 312.00 105.25 C 311.21 108.04 310.67 111.44 309.75 114.75 C 308.83 118.06 307.75 121.71 306.50 125.12 C 305.25 128.54 303.54 132.75 302.25 135.25 C 300.96 137.75 299.48 137.25 298.75 140.12 C 298.02 143.00 297.71 150.35 297.88 152.50 C 298.04 154.65 295.44 152.94 299.75 153.00 C 304.06 153.06 319.62 153.02 323.75 152.88 C 327.88 152.73 321.85 157.46 324.50 152.12 C 327.15 146.79 335.62 129.52 339.62 120.88 C 343.62 112.23 345.27 108.12 348.50 100.25 C 351.73 92.38 356.92 78.71 359.00 73.62 C 361.08 68.54 359.85 71.46 361.00 69.75 C 362.15 68.04 364.73 65.33 365.88 63.38 C 367.02 61.42 367.56 59.25 367.88 58.00 Z" id="s-1-f-1"/>
<path d="M 367.88 58.00 C 368.19 56.75 367.94 56.48 367.75 55.88 C 367.56 55.27 367.75 55.38 366.75 54.38 C 365.75 53.38 363.69 51.40 361.75 49.88 C 359.81 48.35 359.02 47.40 355.12 45.25 C 351.23 43.10 342.69 38.88 338.38 37.00 C 334.06 35.12 332.04 34.48 329.25 34.00 C 326.46 33.52 327.75 33.19 321.62 34.12 C 315.50 35.06 302.56 37.98 292.50 39.62 C 282.44 41.27 271.21 42.50 261.25 44.00 C 251.29 45.50 241.69 47.33 232.75 48.62 C 223.81 49.92 215.31 50.88 207.62 51.75 C 199.94 52.62 193.23 53.31 186.62 53.88 C 180.02 54.44 172.31 54.73 168.00 55.12 C 163.69 55.52 160.04 53.60 160.75 56.25 C 161.46 58.90 164.62 69.35 172.25 71.00 C 179.88 72.65 192.65 67.79 206.50 66.12 C 220.35 64.46 241.69 62.35 255.38 61.00 C 269.06 59.65 279.46 58.67 288.62 58.00 C 297.79 57.33 305.96 57.00 310.38 57.00 C 314.79 57.00 313.71 57.31 315.12 58.00 C 316.54 58.69 318.10 60.19 318.88 61.12 C 319.65 62.06 319.60 62.44 319.75 63.62 C 319.90 64.81 320.08 64.79 319.75 68.25 C 319.42 71.71 318.62 79.42 317.75 84.38 C 316.88 89.33 315.38 94.73 314.50 98.00 C 313.62 101.27 312.79 102.85 312.50 104.00 C 312.21 105.15 307.54 104.71 312.75 104.88 C 317.96 105.04 338.12 105.06 343.75 105.00 C 349.38 104.94 343.96 109.73 346.50 104.50 C 349.04 99.27 356.58 79.42 359.00 73.62 C 361.42 67.83 359.85 71.46 361.00 69.75 C 362.15 68.04 364.73 65.33 365.88 63.38 C 367.02 61.42 367.56 59.25 367.88 58.00 Z" id="s-1-f-2"/>
<path d="M 367.75 55.88 C 367.29 55.08 366.73 54.02 364.62 52.25 C 362.52 50.48 358.38 47.29 355.12 45.25 C 351.88 43.21 349.10 41.79 345.12 40.00 C 341.15 38.21 333.90 35.50 331.25 34.50 C 328.60 33.50 330.56 34.08 329.25 34.00 C 327.94 33.92 329.50 33.06 323.38 34.00 C 317.25 34.94 302.85 37.96 292.50 39.62 C 282.15 41.29 271.21 42.50 261.25 44.00 C 251.29 45.50 243.31 47.17 232.75 48.62 C 222.19 50.08 209.75 51.54 197.88 52.75 C 186.00 53.96 167.69 55.25 161.50 55.88 C 155.31 56.50 159.02 54.04 160.75 56.50 C 162.48 58.96 169.81 68.21 171.88 70.62 C 173.94 73.04 167.35 71.75 173.12 71.00 C 178.90 70.25 187.25 68.29 206.50 66.12 C 225.75 63.96 272.31 59.52 288.62 58.00 C 304.94 56.48 291.25 57.17 304.38 57.00 C 317.50 56.83 356.81 57.19 367.38 57.00 C 377.94 56.81 368.21 56.67 367.75 55.88 Z" id="s-1-f-3"/>
<path d="M 352.88 44.25 C 351.56 41.54 347.98 41.38 345.12 40.00 C 342.27 38.62 338.40 37.00 335.75 36.00 C 333.10 35.00 331.31 34.33 329.25 34.00 C 327.19 33.67 329.50 33.06 323.38 34.00 C 317.25 34.94 302.85 37.96 292.50 39.62 C 282.15 41.29 271.21 42.50 261.25 44.00 C 251.29 45.50 243.31 47.17 232.75 48.62 C 222.19 50.08 209.75 51.54 197.88 52.75 C 186.00 53.96 167.69 55.25 161.50 55.88 C 155.31 56.50 159.02 54.04 160.75 56.50 C 162.48 58.96 169.81 68.21 171.88 70.62 C 173.94 73.04 167.35 71.75 173.12 71.00 C 178.90 70.25 187.25 68.29 206.50 66.12 C 225.75 63.96 272.31 59.52 288.62 58.00 C 304.94 56.48 293.73 57.19 304.38 57.00 C 315.02 56.81 344.40 57.00 352.50 56.88 C 360.60 56.75 352.94 58.35 353.00 56.25 C 353.06 54.15 354.19 46.96 352.88 44.25 Z" id="s-1-f-4"/>
<path d="M 304.88 37.88 C 304.17 35.69 302.81 37.71 300.75 38.00 C 298.69 38.29 299.08 38.62 292.50 39.62 C 285.92 40.62 271.21 42.50 261.25 44.00 C 251.29 45.50 243.31 47.17 232.75 48.62 C 222.19 50.08 209.75 51.54 197.88 52.75 C 186.00 53.96 167.69 55.25 161.50 55.88 C 155.31 56.50 158.96 53.98 160.75 56.50 C 162.54 59.02 165.81 69.25 172.25 71.00 C 178.69 72.75 185.52 68.67 199.38 67.00 C 213.23 65.33 237.88 62.67 255.38 61.00 C 272.88 59.33 296.10 58.65 304.38 57.00 C 312.65 55.35 304.92 54.31 305.00 51.12 C 305.08 47.94 305.58 40.06 304.88 37.88 Z" id="s-1-f-5"/>
<path d="M 257.00 45.38 C 256.90 42.79 260.42 44.33 256.38 44.88 C 252.33 45.42 240.88 47.48 232.75 48.62 C 224.62 49.77 215.31 50.88 207.62 51.75 C 199.94 52.62 194.31 53.19 186.62 53.88 C 178.94 54.56 165.81 55.44 161.50 55.88 C 157.19 56.31 159.02 54.04 160.75 56.50 C 162.48 58.96 169.81 68.21 171.88 70.62 C 173.94 73.04 167.35 71.75 173.12 71.00 C 178.90 70.25 192.69 67.79 206.50 66.12 C 220.31 64.46 247.58 61.96 256.00 61.00 C 264.42 60.04 256.83 62.98 257.00 60.38 C 257.17 57.77 257.10 47.96 257.00 45.38 Z" id="s-1-f-6"/>
<path d="M 209.00 65.38 C 209.15 63.19 209.08 55.17 209.00 52.88 C 208.92 50.58 212.23 51.46 208.50 51.62 C 204.77 51.79 193.38 53.29 186.62 53.88 C 179.88 54.46 172.31 54.73 168.00 55.12 C 163.69 55.52 160.04 53.60 160.75 56.25 C 161.46 58.90 165.81 69.21 172.25 71.00 C 178.69 72.79 193.98 67.73 199.38 67.00 C 204.77 66.27 203.17 66.79 204.62 66.62 C 206.08 66.46 207.40 66.21 208.12 66.00 C 208.85 65.79 208.85 67.56 209.00 65.38 Z" id="s-1-f-7"/>
</g>
<g id="s-2" clip-path="url(#c-s-2)">
<use href="#s-2-f-0"/>
<path d="M 275.62 89.00 C 275.50 85.85 275.62 87.92 275.12 87.75 C 274.62 87.58 275.08 87.52 272.62 88.00 C 270.17 88.48 266.75 89.50 260.38 90.62 C 254.00 91.75 246.56 93.19 234.38 94.75 C 222.19 96.31 196.33 98.81 187.25 100.00 C 178.17 101.19 181.15 101.21 179.88 101.88 C 178.60 102.54 179.54 103.42 179.62 104.00 C 179.71 104.58 180.04 104.04 180.38 105.38 C 180.71 106.71 181.23 110.56 181.62 112.00 C 182.02 113.44 181.52 113.42 182.75 114.00 C 183.98 114.58 187.27 115.19 189.00 115.50 C 190.73 115.81 190.42 115.83 193.12 115.88 C 195.83 115.92 201.17 115.96 205.25 115.75 C 209.33 115.54 205.96 116.04 217.62 114.62 C 229.29 113.21 265.54 108.58 275.25 107.25 C 284.96 105.92 275.81 109.67 275.88 106.62 C 275.94 103.58 275.75 92.15 275.62 89.00 Z" id="s-2-f-1"/>
<path d="M 227.88 96.00 C 227.65 93.33 229.58 95.33 226.62 95.62 C 223.67 95.92 216.69 97.02 210.12 97.75 C 203.56 98.48 192.29 99.31 187.25 100.00 C 182.21 100.69 181.15 101.21 179.88 101.88 C 178.60 102.54 179.54 103.42 179.62 104.00 C 179.71 104.58 180.04 104.04 180.38 105.38 C 180.71 106.71 181.23 110.56 181.62 112.00 C 182.02 113.44 181.52 113.42 182.75 114.00 C 183.98 114.58 187.25 115.19 189.00 115.50 C 190.75 115.81 190.54 115.83 193.25 115.88 C 195.96 115.92 199.60 116.15 205.25 115.75 C 210.90 115.35 223.35 113.98 227.12 113.50 C 230.90 113.02 227.73 113.19 227.88 112.88 C 228.02 112.56 228.00 114.44 228.00 111.62 C 228.00 108.81 228.10 98.67 227.88 96.00 Z" id="s-2-f-2"/>
</g>
<g id="s-3" clip-path="url(#c-s-3)">
<use href="#s-3-f-0"/>
<path d="M 283.88 136.25 C 283.79 133.44 284.60 135.92 283.50 135.88 C 282.40 135.83 280.56 135.79 277.25 136.00 C 273.94 136.21 272.06 136.15 263.62 137.12 C 255.19 138.10 239.19 140.58 226.62 141.88 C 214.06 143.17 194.77 144.31 188.25 144.88 C 181.73 145.44 187.62 142.83 187.50 145.25 C 187.38 147.67 187.00 156.79 187.50 159.38 C 188.00 161.96 187.52 160.52 190.50 160.75 C 193.48 160.98 193.46 161.44 205.38 160.75 C 217.29 160.06 249.04 157.65 262.00 156.62 C 274.96 155.60 279.48 155.08 283.12 154.62 C 286.77 154.17 283.73 154.19 283.88 153.88 C 284.02 153.56 284.00 155.69 284.00 152.75 C 284.00 149.81 283.96 139.06 283.88 136.25 Z" id="s-3-f-1"/>
<path d="M 235.50 141.00 C 227.54 139.02 196.25 144.17 188.25 144.88 C 180.25 145.58 187.62 142.83 187.50 145.25 C 187.38 147.67 187.00 156.79 187.50 159.38 C 188.00 161.96 188.42 160.50 190.50 160.75 C 192.58 161.00 192.50 161.25 200.00 160.88 C 207.50 160.50 229.50 159.19 235.50 158.50 C 241.50 157.81 236.00 159.67 236.00 156.75 C 236.00 153.83 243.46 142.98 235.50 141.00 Z" id="s-3-f-2"/>
</g>
<g id="s-4" clip-path="url(#c-s-4)">
<use href="#s-4-f-0"/>
<path d="M 438.00 182.12 C 437.92 179.58 438.02 181.56 437.38 181.00 C 436.73 180.44 436.48 180.06 434.12 178.75 C 431.77 177.44 427.42 174.75 423.25 173.12 C 419.08 171.50 412.79 169.69 409.12 169.00 C 405.46 168.31 411.02 167.88 401.25 169.00 C 391.48 170.12 374.17 172.96 350.50 175.75 C 326.83 178.54 293.40 182.25 259.25 185.75 C 225.10 189.25 178.46 193.71 145.62 196.75 C 112.79 199.79 76.85 202.60 62.25 204.00 C 47.65 205.40 59.29 204.67 58.00 205.12 C 56.71 205.58 55.19 206.21 54.50 206.75 C 53.81 207.29 53.81 207.69 53.88 208.38 C 53.94 209.06 54.25 210.00 54.88 210.88 C 55.50 211.75 56.69 212.81 57.62 213.62 C 58.56 214.44 58.79 214.77 60.50 215.75 C 62.21 216.73 64.71 218.19 67.88 219.50 C 71.04 220.81 76.69 222.77 79.50 223.62 C 82.31 224.48 82.60 224.42 84.75 224.62 C 86.90 224.83 87.81 225.31 92.38 224.88 C 96.94 224.44 107.62 222.50 112.12 222.00 C 116.62 221.50 112.38 222.71 119.38 221.88 C 126.38 221.04 139.92 218.81 154.12 217.00 C 168.33 215.19 192.88 212.19 204.62 211.00 C 216.38 209.81 216.31 210.54 224.62 209.88 C 232.94 209.21 235.10 208.48 254.50 207.00 C 273.90 205.52 319.42 202.33 341.00 201.00 C 362.58 199.67 368.48 199.56 384.00 199.00 C 399.52 198.44 425.19 198.00 434.12 197.62 C 443.06 197.25 437.00 196.98 437.62 196.75 C 438.25 196.52 437.81 198.69 437.88 196.25 C 437.94 193.81 438.08 184.67 438.00 182.12 Z" id="s-4-f-1"/>
<path d="M 390.00 171.38 C 389.94 167.75 389.83 170.67 389.62 170.50 C 389.42 170.33 395.27 169.50 388.75 170.38 C 382.23 171.25 376.96 172.69 350.50 175.75 C 324.04 178.81 264.15 185.25 230.00 188.75 C 195.85 192.25 173.58 194.21 145.62 196.75 C 117.67 199.29 76.85 202.60 62.25 204.00 C 47.65 205.40 59.29 204.67 58.00 205.12 C 56.71 205.58 55.19 206.21 54.50 206.75 C 53.81 207.29 53.81 207.69 53.88 208.38 C 53.94 209.06 54.25 210.00 54.88 210.88 C 55.50 211.75 56.69 212.81 57.62 213.62 C 58.56 214.44 58.79 214.77 60.50 215.75 C 62.21 216.73 64.71 218.19 67.88 219.50 C 71.04 220.81 76.69 222.77 79.50 223.62 C 82.31 224.48 82.60 224.42 84.75 224.62 C 86.90 224.83 87.79 225.31 92.38 224.88 C 96.96 224.44 107.75 222.50 112.25 222.00 C 116.75 221.50 112.40 222.71 119.38 221.88 C 126.35 221.04 139.92 218.81 154.12 217.00 C 168.33 215.19 192.88 212.19 204.62 211.00 C 216.38 209.81 216.31 210.54 224.62 209.88 C 232.94 209.21 240.62 208.15 254.50 207.00 C 268.38 205.85 293.46 204.00 307.88 203.00 C 322.29 202.00 327.46 201.69 341.00 201.00 C 354.54 200.31 381.02 199.27 389.12 198.88 C 397.23 198.48 389.48 199.73 389.62 198.62 C 389.77 197.52 389.94 196.79 390.00 192.25 C 390.06 187.71 390.06 175.00 390.00 171.38 Z" id="s-4-f-2"/>
<path d="M 341.62 177.00 C 340.83 173.08 344.77 176.19 337.25 177.00 C 329.73 177.81 316.06 179.75 296.50 181.88 C 276.94 184.00 245.02 187.27 219.88 189.75 C 194.73 192.23 171.90 194.38 145.62 196.75 C 119.35 199.12 76.85 202.60 62.25 204.00 C 47.65 205.40 59.29 204.67 58.00 205.12 C 56.71 205.58 55.19 206.21 54.50 206.75 C 53.81 207.29 53.81 207.69 53.88 208.38 C 53.94 209.06 54.25 210.00 54.88 210.88 C 55.50 211.75 56.69 212.81 57.62 213.62 C 58.56 214.44 58.79 214.77 60.50 215.75 C 62.21 216.73 64.71 218.19 67.88 219.50 C 71.04 220.81 76.69 222.77 79.50 223.62 C 82.31 224.48 82.60 224.42 84.75 224.62 C 86.90 224.83 87.79 225.31 92.38 224.88 C 96.96 224.44 107.75 222.50 112.25 222.00 C 116.75 221.50 112.40 222.71 119.38 221.88 C 126.35 221.04 139.92 218.81 154.12 217.00 C 168.33 215.19 192.88 212.19 204.62 211.00 C 216.38 209.81 216.31 210.54 224.62 209.88 C 232.94 209.21 243.00 207.98 254.50 207.00 C 266.00 206.02 279.15 205.00 293.62 204.00 C 308.10 203.00 333.31 201.58 341.38 201.00 C 349.44 200.42 341.96 204.50 342.00 200.50 C 342.04 196.50 342.42 180.92 341.62 177.00 Z" id="s-4-f-3"/>
<path d="M 293.88 182.62 C 293.83 179.21 311.08 180.31 293.50 182.00 C 275.92 183.69 226.92 189.08 188.38 192.75 C 149.83 196.42 83.98 201.94 62.25 204.00 C 40.52 206.06 59.29 204.67 58.00 205.12 C 56.71 205.58 55.19 206.21 54.50 206.75 C 53.81 207.29 53.81 207.69 53.88 208.38 C 53.94 209.06 54.25 210.00 54.88 210.88 C 55.50 211.75 56.69 212.81 57.62 213.62 C 58.56 214.44 58.79 214.77 60.50 215.75 C 62.21 216.73 64.71 218.19 67.88 219.50 C 71.04 220.81 76.48 222.75 79.50 223.62 C 82.52 224.50 83.85 224.54 86.00 224.75 C 88.15 224.96 88.00 225.33 92.38 224.88 C 96.75 224.42 107.75 222.50 112.25 222.00 C 116.75 221.50 112.40 222.71 119.38 221.88 C 126.35 221.04 139.92 218.81 154.12 217.00 C 168.33 215.19 192.88 212.19 204.62 211.00 C 216.38 209.81 216.31 210.54 224.62 209.88 C 232.94 209.21 243.02 207.98 254.50 207.00 C 265.98 206.02 286.96 204.75 293.50 204.00 C 300.04 203.25 293.69 206.06 293.75 202.50 C 293.81 198.94 293.92 186.04 293.88 182.62 Z" id="s-4-f-4"/>
<path d="M 245.88 187.50 C 245.62 184.08 248.83 186.62 244.50 187.00 C 240.17 187.38 236.35 188.12 219.88 189.75 C 203.40 191.38 171.90 194.38 145.62 196.75 C 119.35 199.12 76.85 202.60 62.25 204.00 C 47.65 205.40 59.29 204.67 58.00 205.12 C 56.71 205.58 55.19 206.21 54.50 206.75 C 53.81 207.29 53.94 207.88 53.88 208.38 C 53.81 208.88 53.81 209.15 54.12 209.75 C 54.44 210.35 54.69 211.00 55.75 212.00 C 56.81 213.00 57.62 214.15 60.50 215.75 C 63.38 217.35 69.83 220.31 73.00 221.62 C 76.17 222.94 77.48 223.12 79.50 223.62 C 81.52 224.12 82.44 224.46 85.12 224.62 C 87.81 224.79 91.10 225.06 95.62 224.62 C 100.15 224.19 108.29 222.46 112.25 222.00 C 116.21 221.54 112.40 222.71 119.38 221.88 C 126.35 221.04 139.92 218.81 154.12 217.00 C 168.33 215.19 192.88 212.19 204.62 211.00 C 216.38 209.81 217.83 210.40 224.62 209.88 C 231.42 209.35 241.81 208.27 245.38 207.88 C 248.94 207.48 245.92 210.90 246.00 207.50 C 246.08 204.10 246.12 190.92 245.88 187.50 Z" id="s-4-f-5"/>
<path d="M 197.75 193.12 C 197.62 190.04 198.19 192.04 197.25 191.88 C 196.31 191.71 200.73 191.31 192.12 192.12 C 183.52 192.94 167.27 194.77 145.62 196.75 C 123.98 198.73 76.85 202.60 62.25 204.00 C 47.65 205.40 59.29 204.67 58.00 205.12 C 56.71 205.58 55.19 206.21 54.50 206.75 C 53.81 207.29 53.94 207.88 53.88 208.38 C 53.81 208.88 53.81 209.15 54.12 209.75 C 54.44 210.35 54.69 211.00 55.75 212.00 C 56.81 213.00 57.62 214.15 60.50 215.75 C 63.38 217.35 69.83 220.31 73.00 221.62 C 76.17 222.94 77.48 223.12 79.50 223.62 C 81.52 224.12 82.44 224.46 85.12 224.62 C 87.81 224.79 91.10 225.06 95.62 224.62 C 100.15 224.19 108.29 222.46 112.25 222.00 C 116.21 221.54 112.73 222.67 119.38 221.88 C 126.02 221.08 139.10 218.92 152.12 217.25 C 165.15 215.58 189.85 213.02 197.50 211.88 C 205.15 210.73 197.96 213.50 198.00 210.38 C 198.04 207.25 197.88 196.21 197.75 193.12 Z" id="s-4-f-6"/>
<path d="M 149.88 196.75 C 149.65 193.50 163.23 195.04 148.62 196.25 C 134.02 197.46 77.35 202.52 62.25 204.00 C 47.15 205.48 59.29 204.67 58.00 205.12 C 56.71 205.58 55.19 206.33 54.50 206.75 C 53.81 207.17 53.96 207.19 53.88 207.62 C 53.79 208.06 53.69 208.65 54.00 209.38 C 54.31 210.10 54.67 210.94 55.75 212.00 C 56.83 213.06 58.46 214.48 60.50 215.75 C 62.54 217.02 65.35 218.46 68.00 219.62 C 70.65 220.79 73.58 221.92 76.38 222.75 C 79.17 223.58 81.79 224.29 84.75 224.62 C 87.71 224.96 89.56 225.19 94.12 224.75 C 98.69 224.31 107.75 222.50 112.12 222.00 C 116.50 221.50 114.17 222.46 120.38 221.75 C 126.58 221.04 144.44 218.75 149.38 217.75 C 154.31 216.75 149.92 219.25 150.00 215.75 C 150.08 212.25 150.10 200.00 149.88 196.75 Z" id="s-4-f-7"/>
<path d="M 101.75 223.38 C 102.81 219.52 102.08 205.29 102.00 201.50 C 101.92 197.71 107.88 200.21 101.25 200.62 C 94.62 201.04 69.83 203.10 62.25 204.00 C 54.67 204.90 57.15 205.40 55.75 206.00 C 54.35 206.60 54.17 207.06 53.88 207.62 C 53.58 208.19 53.83 208.83 54.00 209.38 C 54.17 209.92 53.90 209.90 54.88 210.88 C 55.85 211.85 57.69 213.79 59.88 215.25 C 62.06 216.71 65.25 218.38 68.00 219.62 C 70.75 220.88 73.60 221.92 76.38 222.75 C 79.15 223.58 82.58 224.27 84.62 224.62 C 86.67 224.98 86.79 224.88 88.62 224.88 C 90.46 224.88 93.44 224.88 95.62 224.62 C 97.81 224.38 100.69 227.23 101.75 223.38 Z" id="s-4-f-8"/>
</g>
<g id="s-5" clip-path="url(#c-s-5)">
<use href="#s-5-f-0"/>
<path d="M 147.00 217.75 C 145.71 217.06 144.38 217.50 143.12 217.62 C 141.88 217.75 140.92 218.31 139.50 218.50 C 138.08 218.69 135.67 218.60 134.62 218.75 C 133.58 218.90 134.33 219.23 133.25 219.38 C 132.17 219.52 129.48 219.46 128.12 219.62 C 126.77 219.79 126.40 220.21 125.12 220.38 C 123.85 220.54 121.56 220.48 120.50 220.62 C 119.44 220.77 119.29 221.21 118.75 221.25 C 118.21 221.29 117.58 220.88 117.25 220.88 C 116.92 220.88 116.38 220.48 116.75 221.25 C 117.12 222.02 118.67 223.31 119.50 225.50 C 120.33 227.69 120.48 211.79 121.75 234.38 C 123.02 256.96 126.10 339.75 127.12 361.00 C 128.15 382.25 124.62 361.75 127.88 361.88 C 131.12 362.00 143.27 361.81 146.62 361.75 C 149.98 361.69 147.60 367.42 148.00 361.50 C 148.40 355.58 148.83 342.92 149.00 326.25 C 149.17 309.58 148.81 275.69 149.00 261.50 C 149.19 247.31 149.79 246.02 150.12 241.12 C 150.46 236.23 150.73 234.08 151.00 232.12 C 151.27 230.17 151.60 230.69 151.75 229.38 C 151.90 228.06 152.02 225.52 151.88 224.25 C 151.73 222.98 151.69 222.83 150.88 221.75 C 150.06 220.67 148.29 218.44 147.00 217.75 Z" id="s-5-f-1"/>
<path d="M 147.00 217.75 C 145.71 217.06 144.38 217.50 143.12 217.62 C 141.88 217.75 140.92 218.31 139.50 218.50 C 138.08 218.69 135.67 218.60 134.62 218.75 C 133.58 218.90 135.75 219.04 133.25 219.38 C 130.75 219.71 122.04 220.44 119.62 220.75 C 117.21 221.06 119.17 221.23 118.75 221.25 C 118.33 221.27 117.46 220.85 117.12 220.88 C 116.79 220.90 116.46 220.83 116.75 221.38 C 117.04 221.92 118.35 223.27 118.88 224.12 C 119.40 224.98 119.40 224.79 119.88 226.50 C 120.35 228.21 120.90 219.90 121.75 234.38 C 122.60 248.85 124.38 300.12 125.00 313.38 C 125.62 326.62 121.58 313.81 125.50 313.88 C 129.42 313.94 144.58 322.48 148.50 313.75 C 152.42 305.02 148.73 273.60 149.00 261.50 C 149.27 249.40 149.79 246.02 150.12 241.12 C 150.46 236.23 150.73 234.08 151.00 232.12 C 151.27 230.17 151.60 230.71 151.75 229.38 C 151.90 228.04 152.02 225.40 151.88 224.12 C 151.73 222.85 151.69 222.81 150.88 221.75 C 150.06 220.69 148.29 218.44 147.00 217.75 Z" id="s-5-f-2"/>
<path d="M 147.38 217.88 C 146.08 217.19 144.42 217.52 143.12 217.62 C 141.83 217.73 141.04 218.31 139.62 218.50 C 138.21 218.69 135.69 218.60 134.62 218.75 C 133.56 218.90 134.50 219.21 133.25 219.38 C 132.00 219.54 128.44 219.58 127.12 219.75 C 125.81 219.92 126.62 220.21 125.38 220.38 C 124.12 220.54 120.73 220.60 119.62 220.75 C 118.52 220.90 119.21 221.19 118.75 221.25 C 118.29 221.31 117.17 221.00 116.88 221.12 C 116.58 221.25 116.67 221.50 117.00 222.00 C 117.33 222.50 118.40 223.38 118.88 224.12 C 119.35 224.88 119.40 224.79 119.88 226.50 C 120.35 228.21 121.19 227.83 121.75 234.38 C 122.31 240.92 118.73 260.52 123.25 265.75 C 127.77 270.98 144.40 269.85 148.88 265.75 C 153.35 261.65 149.77 246.73 150.12 241.12 C 150.48 235.52 150.73 234.08 151.00 232.12 C 151.27 230.17 151.60 230.71 151.75 229.38 C 151.90 228.04 152.02 225.40 151.88 224.12 C 151.73 222.85 151.62 222.79 150.88 221.75 C 150.12 220.71 148.67 218.56 147.38 217.88 Z" id="s-5-f-3"/>
</g>
<g id="s-6" clip-path="url(#c-s-6)">
<use href="#s-6-f-0"/>
<path d="M 233.62 208.50 C 229.35 207.96 216.62 209.25 212.00 209.62 C 207.38 210.00 206.88 210.29 205.88 210.75 C 204.88 211.21 205.67 211.65 206.00 212.38 C 206.33 213.10 207.23 213.65 207.88 215.12 C 208.52 216.60 209.23 218.73 209.88 221.25 C 210.52 223.77 211.10 225.38 211.75 230.25 C 212.40 235.12 213.40 230.40 213.75 250.50 C 214.10 270.60 214.02 332.35 213.88 350.88 C 213.73 369.40 213.10 355.88 212.88 361.62 C 212.65 367.38 213.00 374.29 212.50 385.38 C 212.00 396.46 210.12 419.69 209.88 428.12 C 209.62 436.56 210.31 433.02 211.00 436.00 C 211.69 438.98 213.27 443.88 214.00 446.00 C 214.73 448.12 214.85 448.25 215.38 448.75 C 215.90 449.25 213.58 448.98 217.12 449.00 C 220.67 449.02 233.27 448.96 236.62 448.88 C 239.98 448.79 237.08 448.98 237.25 448.50 C 237.42 448.02 237.38 462.27 237.62 446.00 C 237.88 429.73 238.54 388.79 238.75 350.88 C 238.96 312.96 238.88 241.06 238.88 218.50 C 238.88 195.94 238.96 216.44 238.75 215.50 C 238.54 214.56 238.48 214.04 237.62 212.88 C 236.77 211.71 237.90 209.04 233.62 208.50 Z" id="s-6-f-1"/>
<path d="M 233.62 208.50 C 229.35 207.96 216.62 209.25 212.00 209.62 C 207.38 210.00 206.88 210.29 205.88 210.75 C 204.88 211.21 205.67 211.65 206.00 212.38 C 206.33 213.10 207.23 213.65 207.88 215.12 C 208.52 216.60 209.23 218.73 209.88 221.25 C 210.52 223.77 211.10 225.38 211.75 230.25 C 212.40 235.12 213.40 230.40 213.75 250.50 C 214.10 270.60 214.02 332.35 213.88 350.88 C 213.73 369.40 213.06 357.15 212.88 361.62 C 212.69 366.10 212.94 371.54 212.75 377.75 C 212.56 383.96 211.88 395.06 211.75 398.88 C 211.62 402.69 211.71 400.29 212.00 400.62 C 212.29 400.96 209.46 400.85 213.50 400.88 C 217.54 400.90 232.17 400.81 236.25 400.75 C 240.33 400.69 237.58 408.19 238.00 400.50 C 238.42 392.81 238.60 384.96 238.75 354.62 C 238.90 324.29 238.88 241.69 238.88 218.50 C 238.88 195.31 238.96 216.44 238.75 215.50 C 238.54 214.56 238.48 214.04 237.62 212.88 C 236.77 211.71 237.90 209.04 233.62 208.50 Z" id="s-6-f-2"/>
<path d="M 233.62 208.50 C 229.62 208.33 216.62 209.25 212.00 209.62 C 207.38 210.00 206.88 210.29 205.88 210.75 C 204.88 211.21 205.67 211.65 206.00 212.38 C 206.33 213.10 207.23 213.65 207.88 215.12 C 208.52 216.60 209.23 218.73 209.88 221.25 C 210.52 223.77 211.10 225.38 211.75 230.25 C 212.40 235.12 213.42 230.17 213.75 250.50 C 214.08 270.83 213.50 335.21 213.75 352.25 C 214.00 369.29 211.17 352.65 215.25 352.75 C 219.33 352.85 234.33 352.94 238.25 352.88 C 242.17 352.81 238.65 374.77 238.75 352.38 C 238.85 329.98 238.88 241.31 238.88 218.50 C 238.88 195.69 238.96 216.44 238.75 215.50 C 238.54 214.56 238.08 213.69 237.62 212.88 C 237.17 212.06 236.67 211.35 236.00 210.62 C 235.33 209.90 237.62 208.67 233.62 208.50 Z" id="s-6-f-3"/>
<path d="M 233.62 208.50 C 229.52 208.21 216.62 209.25 212.00 209.62 C 207.38 210.00 206.88 210.29 205.88 210.75 C 204.88 211.21 205.67 211.65 206.00 212.38 C 206.33 213.10 207.23 213.65 207.88 215.12 C 208.52 216.60 209.23 218.73 209.88 221.25 C 210.52 223.77 211.25 227.27 211.75 230.25 C 212.25 233.23 212.54 235.75 212.88 239.12 C 213.21 242.50 213.58 239.88 213.75 250.50 C 213.92 261.12 213.62 293.96 213.88 302.88 C 214.12 311.79 214.02 303.69 215.25 304.00 C 216.48 304.31 217.40 304.60 221.25 304.75 C 225.10 304.90 235.44 304.96 238.38 304.88 C 241.31 304.79 238.81 319.15 238.88 304.25 C 238.94 289.35 239.12 230.98 238.75 215.50 C 238.38 200.02 237.48 212.54 236.62 211.38 C 235.77 210.21 237.73 208.79 233.62 208.50 Z" id="s-6-f-4"/>
<path d="M 234.00 208.62 C 232.23 208.17 228.19 208.48 226.00 208.62 C 223.81 208.77 223.21 209.33 220.88 209.50 C 218.54 209.67 214.42 209.46 212.00 209.62 C 209.58 209.79 207.40 210.27 206.38 210.50 C 205.35 210.73 205.94 210.69 205.88 211.00 C 205.81 211.31 205.67 211.69 206.00 212.38 C 206.33 213.06 207.23 213.65 207.88 215.12 C 208.52 216.60 209.23 218.73 209.88 221.25 C 210.52 223.77 211.25 227.27 211.75 230.25 C 212.25 233.23 212.54 234.77 212.88 239.12 C 213.21 243.48 213.54 253.42 213.75 256.38 C 213.96 259.33 209.96 256.81 214.12 256.88 C 218.29 256.94 234.65 263.65 238.75 256.75 C 242.85 249.85 239.10 223.06 238.75 215.50 C 238.40 207.94 237.42 212.52 236.62 211.38 C 235.83 210.23 235.77 209.08 234.00 208.62 Z" id="s-6-f-5"/>
</g>
<g id="s-7" clip-path="url(#c-s-7)">
<use href="#s-7-f-0"/>
<path d="M 196.88 254.12 C 196.77 251.19 196.94 253.77 196.38 253.75 C 195.81 253.73 197.21 253.17 193.50 254.00 C 189.79 254.83 181.58 257.10 174.12 258.75 C 166.67 260.40 153.02 260.77 148.75 263.88 C 144.48 266.98 148.48 275.04 148.50 277.38 C 148.52 279.71 147.67 277.81 148.88 277.88 C 150.08 277.94 152.48 277.96 155.75 277.75 C 159.02 277.54 161.73 277.44 168.50 276.62 C 175.27 275.81 191.65 273.56 196.38 272.88 C 201.10 272.19 196.77 272.75 196.88 272.50 C 196.98 272.25 197.00 274.44 197.00 271.38 C 197.00 268.31 196.98 257.06 196.88 254.12 Z" id="s-7-f-1"/>
</g>
<g id="s-8" clip-path="url(#c-s-8)">
<use href="#s-8-f-0"/>
<path d="M 196.38 303.00 C 196.00 302.81 197.88 302.21 194.50 303.00 C 191.12 303.79 183.75 305.94 176.12 307.75 C 168.50 309.56 153.33 310.85 148.75 313.88 C 144.17 316.90 148.23 323.71 148.62 325.88 C 149.02 328.04 149.50 326.73 151.12 326.88 C 152.75 327.02 155.02 326.96 158.38 326.75 C 161.73 326.54 164.92 326.33 171.25 325.62 C 177.58 324.92 192.10 323.10 196.38 322.50 C 200.65 321.90 196.81 325.06 196.88 322.00 C 196.94 318.94 196.83 307.29 196.75 304.12 C 196.67 300.96 196.75 303.19 196.38 303.00 Z" id="s-8-f-1"/>
</g>
<g id="s-9" clip-path="url(#c-s-9)">
<use href="#s-9-f-0"/>
<path d="M 201.88 354.75 C 201.75 352.15 203.85 353.71 201.25 354.38 C 198.65 355.04 192.10 357.19 186.25 358.75 C 180.40 360.31 170.73 362.69 166.12 363.75 C 161.52 364.81 161.56 364.46 158.62 365.12 C 155.69 365.79 150.65 367.33 148.50 367.75 C 146.35 368.17 146.44 367.52 145.75 367.62 C 145.06 367.73 145.04 368.21 144.38 368.38 C 143.71 368.54 142.42 368.46 141.75 368.62 C 141.08 368.79 141.04 369.21 140.38 369.38 C 139.71 369.54 139.08 369.29 137.75 369.62 C 136.42 369.96 133.83 371.02 132.38 371.38 C 130.92 371.73 129.60 371.58 129.00 371.75 C 128.40 371.92 129.56 372.04 128.75 372.38 C 127.94 372.71 129.17 372.69 124.12 373.75 C 119.08 374.81 104.25 377.75 98.50 378.75 C 92.75 379.75 91.94 379.58 89.62 379.75 C 87.31 379.92 88.10 380.04 84.62 379.75 C 81.15 379.46 72.60 378.29 68.75 378.00 C 64.90 377.71 63.04 377.81 61.50 378.00 C 59.96 378.19 60.04 378.65 59.50 379.12 C 58.96 379.60 58.50 379.85 58.25 380.88 C 58.00 381.90 57.44 383.56 58.00 385.25 C 58.56 386.94 59.54 388.42 61.62 391.00 C 63.71 393.58 67.90 398.27 70.50 400.75 C 73.10 403.23 75.08 404.42 77.25 405.88 C 79.42 407.33 81.50 408.54 83.50 409.50 C 85.50 410.46 87.25 411.25 89.25 411.62 C 91.25 412.00 93.48 412.08 95.50 411.75 C 97.52 411.42 97.50 411.54 101.38 409.62 C 105.25 407.71 113.33 402.85 118.75 400.25 C 124.17 397.65 120.08 398.75 133.88 394.00 C 147.67 389.25 190.15 375.75 201.50 371.75 C 212.85 367.75 201.94 372.83 202.00 370.00 C 202.06 367.17 202.00 357.35 201.88 354.75 Z" id="s-9-f-1"/>
<path d="M 153.88 367.12 C 153.71 363.98 153.90 366.52 153.00 366.62 C 152.10 366.73 149.71 367.58 148.50 367.75 C 147.29 367.92 146.44 367.52 145.75 367.62 C 145.06 367.73 145.04 368.21 144.38 368.38 C 143.71 368.54 142.42 368.46 141.75 368.62 C 141.08 368.79 141.04 369.21 140.38 369.38 C 139.71 369.54 139.08 369.29 137.75 369.62 C 136.42 369.96 133.83 371.02 132.38 371.38 C 130.92 371.73 129.60 371.58 129.00 371.75 C 128.40 371.92 129.56 372.04 128.75 372.38 C 127.94 372.71 127.17 373.02 124.12 373.75 C 121.08 374.48 114.92 375.90 110.50 376.75 C 106.08 377.60 101.10 378.38 97.62 378.88 C 94.15 379.38 91.79 379.60 89.62 379.75 C 87.46 379.90 88.12 380.04 84.62 379.75 C 81.12 379.46 72.48 378.29 68.62 378.00 C 64.77 377.71 63.02 377.81 61.50 378.00 C 59.98 378.19 60.02 378.69 59.50 379.12 C 58.98 379.56 58.65 379.71 58.38 380.62 C 58.10 381.54 57.79 383.56 57.88 384.62 C 57.96 385.69 58.25 385.94 58.88 387.00 C 59.50 388.06 59.69 388.71 61.62 391.00 C 63.56 393.29 68.48 398.69 70.50 400.75 C 72.52 402.81 71.56 401.90 73.75 403.38 C 75.94 404.85 81.04 408.25 83.62 409.62 C 86.21 411.00 87.27 411.27 89.25 411.62 C 91.23 411.98 93.48 412.08 95.50 411.75 C 97.52 411.42 98.48 411.06 101.38 409.62 C 104.27 408.19 108.75 405.23 112.88 403.12 C 117.00 401.02 122.23 398.67 126.12 397.00 C 130.02 395.33 131.69 394.71 136.25 393.12 C 140.81 391.54 150.54 388.77 153.50 387.50 C 156.46 386.23 153.94 388.90 154.00 385.50 C 154.06 382.10 154.04 370.27 153.88 367.12 Z" id="s-9-f-2"/>
<path d="M 105.88 406.50 C 106.08 401.85 106.06 384.69 106.00 379.88 C 105.94 375.06 108.23 377.65 105.50 377.62 C 102.77 377.60 93.10 379.40 89.62 379.75 C 86.15 380.10 87.88 380.02 84.62 379.75 C 81.38 379.48 73.75 378.44 70.12 378.12 C 66.50 377.81 64.46 377.83 62.88 377.88 C 61.29 377.92 61.38 377.92 60.62 378.38 C 59.88 378.83 58.83 379.96 58.38 380.62 C 57.92 381.29 57.94 381.60 57.88 382.38 C 57.81 383.15 57.42 383.88 58.00 385.25 C 58.58 386.62 59.17 387.92 61.38 390.62 C 63.58 393.33 68.40 398.81 71.25 401.50 C 74.10 404.19 76.44 405.40 78.50 406.75 C 80.56 408.10 81.83 408.81 83.62 409.62 C 85.42 410.44 87.27 411.27 89.25 411.62 C 91.23 411.98 93.48 412.08 95.50 411.75 C 97.52 411.42 99.83 410.29 101.38 409.62 C 102.92 408.96 104.00 408.27 104.75 407.75 C 105.50 407.23 105.67 411.15 105.88 406.50 Z" id="s-9-f-3"/>
</g>
<g id="s-10" clip-path="url(#c-s-10)">
<use href="#s-10-f-0"/>
<path d="M 390.50 252.88 C 389.00 252.56 388.98 252.88 387.50 253.25 C 386.02 253.62 383.92 254.25 381.62 255.12 C 379.33 256.00 376.65 257.40 373.75 258.50 C 370.85 259.60 369.50 260.21 364.25 261.75 C 359.00 263.29 347.04 266.56 342.25 267.75 C 337.46 268.94 341.29 267.56 335.50 268.88 C 329.71 270.19 316.42 273.65 307.50 275.62 C 298.58 277.60 288.46 279.56 282.00 280.75 C 275.54 281.94 273.62 282.21 268.75 282.75 C 263.88 283.29 255.92 283.60 252.75 284.00 C 249.58 284.40 250.38 284.73 249.75 285.12 C 249.12 285.52 249.10 285.98 249.00 286.38 C 248.90 286.77 248.67 286.75 249.12 287.50 C 249.58 288.25 249.04 288.67 251.75 290.88 C 254.46 293.08 261.92 298.62 265.38 300.75 C 268.83 302.88 270.48 303.10 272.50 303.62 C 274.52 304.15 276.10 304.00 277.50 303.88 C 278.90 303.75 279.50 303.52 280.88 302.88 C 282.25 302.23 283.15 301.15 285.75 300.00 C 288.35 298.85 292.77 297.19 296.50 296.00 C 300.23 294.81 301.52 294.90 308.12 292.88 C 314.73 290.85 331.21 285.52 336.12 283.88 C 341.04 282.23 334.94 283.65 337.62 283.00 C 340.31 282.35 347.10 280.83 352.25 280.00 C 357.40 279.17 364.75 278.29 368.50 278.00 C 372.25 277.71 372.77 277.92 374.75 278.25 C 376.73 278.58 378.98 279.35 380.38 280.00 C 381.77 280.65 382.40 281.40 383.12 282.12 C 383.85 282.85 384.31 283.29 384.75 284.38 C 385.19 285.46 385.58 286.98 385.75 288.62 C 385.92 290.27 386.08 289.08 385.75 294.25 C 385.42 299.42 384.75 311.08 383.75 319.62 C 382.75 328.17 381.08 338.04 379.75 345.50 C 378.42 352.96 377.08 358.79 375.75 364.38 C 374.42 369.96 373.27 374.23 371.75 379.00 C 370.23 383.77 368.62 388.56 366.62 393.00 C 364.62 397.44 363.21 398.40 359.75 405.62 C 356.29 412.85 348.17 431.00 345.88 436.38 C 343.58 441.75 345.48 436.54 346.00 437.88 C 346.52 439.21 348.19 442.88 349.00 444.38 C 349.81 445.88 350.15 446.15 350.88 446.88 C 351.60 447.60 352.12 448.46 353.38 448.75 C 354.62 449.04 356.65 448.96 358.38 448.62 C 360.10 448.29 361.62 447.71 363.75 446.75 C 365.88 445.79 369.27 444.06 371.12 442.88 C 372.98 441.69 373.46 441.04 374.88 439.62 C 376.29 438.21 377.98 436.48 379.62 434.38 C 381.27 432.27 382.90 430.21 384.75 427.00 C 386.60 423.79 388.92 419.29 390.75 415.12 C 392.58 410.96 394.27 406.77 395.75 402.00 C 397.23 397.23 398.29 392.62 399.62 386.50 C 400.96 380.38 401.85 376.33 403.75 365.25 C 405.65 354.17 409.42 329.42 411.00 320.00 C 412.58 310.58 412.54 311.90 413.25 308.75 C 413.96 305.60 414.44 303.75 415.25 301.12 C 416.06 298.50 417.06 295.38 418.12 293.00 C 419.19 290.62 420.52 289.06 421.62 286.88 C 422.73 284.69 424.23 281.69 424.75 279.88 C 425.27 278.06 424.92 277.02 424.75 276.00 C 424.58 274.98 424.73 275.02 423.75 273.75 C 422.77 272.48 421.48 270.46 418.88 268.38 C 416.27 266.29 411.85 263.46 408.12 261.25 C 404.40 259.04 399.44 256.52 396.50 255.12 C 393.56 253.73 392.00 253.19 390.50 252.88 Z" id="s-10-f-1"/>
<path d="M 391.12 253.00 C 389.62 252.69 391.98 251.79 387.50 253.25 C 383.02 254.71 371.79 259.33 364.25 261.75 C 356.71 264.17 347.04 266.56 342.25 267.75 C 337.46 268.94 341.29 267.56 335.50 268.88 C 329.71 270.19 316.42 273.65 307.50 275.62 C 298.58 277.60 288.46 279.56 282.00 280.75 C 275.54 281.94 273.62 282.21 268.75 282.75 C 263.88 283.29 255.92 283.60 252.75 284.00 C 249.58 284.40 250.38 284.73 249.75 285.12 C 249.12 285.52 249.10 285.98 249.00 286.38 C 248.90 286.77 248.67 286.75 249.12 287.50 C 249.58 288.25 249.04 288.67 251.75 290.88 C 254.46 293.08 261.92 298.62 265.38 300.75 C 268.83 302.88 270.48 303.10 272.50 303.62 C 274.52 304.15 276.10 304.00 277.50 303.88 C 278.90 303.75 279.50 303.52 280.88 302.88 C 282.25 302.23 283.15 301.15 285.75 300.00 C 288.35 298.85 292.77 297.19 296.50 296.00 C 300.23 294.81 300.67 295.19 308.12 292.88 C 315.58 290.56 332.90 284.44 341.25 282.12 C 349.60 279.81 353.04 279.69 358.25 279.00 C 363.46 278.31 369.04 277.94 372.50 278.00 C 375.96 278.06 377.17 278.62 379.00 279.38 C 380.83 280.12 382.54 281.67 383.50 282.50 C 384.46 283.33 384.38 283.35 384.75 284.38 C 385.12 285.40 385.65 285.62 385.75 288.62 C 385.85 291.62 385.88 295.96 385.38 302.38 C 384.88 308.79 384.02 318.29 382.75 327.12 C 381.48 335.96 379.29 347.73 377.75 355.38 C 376.21 363.02 374.98 367.67 373.50 373.00 C 372.02 378.33 370.17 383.73 368.88 387.38 C 367.58 391.02 367.25 391.88 365.75 394.88 C 364.25 397.88 362.04 401.04 359.88 405.38 C 357.71 409.71 353.88 418.12 352.75 420.88 C 351.62 423.62 347.77 421.69 353.12 421.88 C 358.48 422.06 379.10 422.06 384.88 422.00 C 390.65 421.94 386.62 423.00 387.75 421.50 C 388.88 420.00 390.29 416.25 391.62 413.00 C 392.96 409.75 394.42 406.42 395.75 402.00 C 397.08 397.58 397.98 394.42 399.62 386.50 C 401.27 378.58 403.73 365.58 405.62 354.50 C 407.52 343.42 409.44 328.75 411.00 320.00 C 412.56 311.25 413.81 306.50 415.00 302.00 C 416.19 297.50 417.02 295.52 418.12 293.00 C 419.23 290.48 420.52 289.06 421.62 286.88 C 422.73 284.69 424.23 281.69 424.75 279.88 C 425.27 278.06 424.92 277.02 424.75 276.00 C 424.58 274.98 424.73 275.02 423.75 273.75 C 422.77 272.48 421.48 270.46 418.88 268.38 C 416.27 266.29 411.85 263.46 408.12 261.25 C 404.40 259.04 399.33 256.50 396.50 255.12 C 393.67 253.75 392.62 253.31 391.12 253.00 Z" id="s-10-f-2"/>
<path d="M 424.88 277.00 C 424.75 275.83 424.15 274.46 423.75 273.62 C 423.35 272.79 423.83 273.27 422.50 272.00 C 421.17 270.73 417.96 267.69 415.75 266.00 C 413.54 264.31 412.46 263.69 409.25 261.88 C 406.04 260.06 399.35 256.56 396.50 255.12 C 393.65 253.69 393.31 253.62 392.12 253.25 C 390.94 252.88 391.12 252.56 389.38 252.88 C 387.62 253.19 384.23 254.19 381.62 255.12 C 379.02 256.06 376.65 257.40 373.75 258.50 C 370.85 259.60 368.81 260.38 364.25 261.75 C 359.69 263.12 354.83 264.73 346.38 266.75 C 337.92 268.77 320.08 272.38 313.50 273.88 C 306.92 275.38 312.12 274.60 306.88 275.75 C 301.62 276.90 288.35 279.58 282.00 280.75 C 275.65 281.92 273.62 282.21 268.75 282.75 C 263.88 283.29 255.92 283.60 252.75 284.00 C 249.58 284.40 250.38 284.58 249.75 285.12 C 249.12 285.67 248.83 286.46 249.00 287.25 C 249.17 288.04 249.90 288.94 250.75 289.88 C 251.60 290.81 251.69 291.06 254.12 292.88 C 256.56 294.69 262.31 298.96 265.38 300.75 C 268.44 302.54 270.48 303.10 272.50 303.62 C 274.52 304.15 276.10 304.00 277.50 303.88 C 278.90 303.75 279.50 303.52 280.88 302.88 C 282.25 302.23 283.15 301.15 285.75 300.00 C 288.35 298.85 292.77 297.19 296.50 296.00 C 300.23 294.81 300.75 295.17 308.12 292.88 C 315.50 290.58 332.40 284.56 340.75 282.25 C 349.10 279.94 353.62 279.71 358.25 279.00 C 362.88 278.29 365.75 278.12 368.50 278.00 C 371.25 277.88 372.77 277.92 374.75 278.25 C 376.73 278.58 378.92 279.29 380.38 280.00 C 381.83 280.71 382.77 281.77 383.50 282.50 C 384.23 283.23 384.40 283.60 384.75 284.38 C 385.10 285.15 385.52 284.12 385.62 287.12 C 385.73 290.12 385.69 296.98 385.38 302.38 C 385.06 307.77 384.69 312.31 383.75 319.50 C 382.81 326.69 381.08 338.02 379.75 345.50 C 378.42 352.98 376.83 359.73 375.75 364.38 C 374.67 369.02 373.58 371.79 373.25 373.38 C 372.92 374.96 369.27 373.81 373.75 373.88 C 378.23 373.94 395.42 373.81 400.12 373.75 C 404.83 373.69 401.60 373.75 402.00 373.50 C 402.40 373.25 401.54 377.50 402.50 372.25 C 403.46 367.00 406.33 350.71 407.75 342.00 C 409.17 333.29 409.96 326.04 411.00 320.00 C 412.04 313.96 412.81 310.25 414.00 305.75 C 415.19 301.25 416.38 297.19 418.12 293.00 C 419.88 288.81 423.38 283.29 424.50 280.62 C 425.62 277.96 425.00 278.17 424.88 277.00 Z" id="s-10-f-3"/>
<path d="M 424.88 277.00 C 424.71 275.96 424.10 274.42 423.75 273.62 C 423.40 272.83 424.08 273.52 422.75 272.25 C 421.42 270.98 418.00 267.73 415.75 266.00 C 413.50 264.27 412.46 263.69 409.25 261.88 C 406.04 260.06 399.35 256.56 396.50 255.12 C 393.65 253.69 393.31 253.62 392.12 253.25 C 390.94 252.88 391.12 252.56 389.38 252.88 C 387.62 253.19 384.23 254.19 381.62 255.12 C 379.02 256.06 376.65 257.40 373.75 258.50 C 370.85 259.60 368.81 260.38 364.25 261.75 C 359.69 263.12 354.83 264.73 346.38 266.75 C 337.92 268.77 320.08 272.38 313.50 273.88 C 306.92 275.38 312.12 274.60 306.88 275.75 C 301.62 276.90 288.35 279.58 282.00 280.75 C 275.65 281.92 273.62 282.21 268.75 282.75 C 263.88 283.29 255.92 283.60 252.75 284.00 C 249.58 284.40 250.38 284.58 249.75 285.12 C 249.12 285.67 248.83 286.46 249.00 287.25 C 249.17 288.04 250.17 289.17 250.75 289.88 C 251.33 290.58 250.06 289.69 252.50 291.50 C 254.94 293.31 262.04 298.73 265.38 300.75 C 268.71 302.77 270.48 303.10 272.50 303.62 C 274.52 304.15 276.10 304.00 277.50 303.88 C 278.90 303.75 279.50 303.52 280.88 302.88 C 282.25 302.23 283.15 301.15 285.75 300.00 C 288.35 298.85 292.77 297.19 296.50 296.00 C 300.23 294.81 301.52 294.90 308.12 292.88 C 314.73 290.85 331.21 285.52 336.12 283.88 C 341.04 282.23 333.94 283.81 337.62 283.00 C 341.31 282.19 353.10 279.83 358.25 279.00 C 363.40 278.17 366.12 278.17 368.50 278.00 C 370.88 277.83 371.00 277.85 372.50 278.00 C 374.00 278.15 376.19 278.54 377.50 278.88 C 378.81 279.21 379.38 279.40 380.38 280.00 C 381.38 280.60 382.77 281.77 383.50 282.50 C 384.23 283.23 384.40 283.60 384.75 284.38 C 385.10 285.15 385.52 284.12 385.62 287.12 C 385.73 290.12 385.81 295.96 385.38 302.38 C 384.94 308.79 383.31 321.69 383.00 325.62 C 382.69 329.56 379.31 325.96 383.50 326.00 C 387.69 326.04 403.67 325.98 408.12 325.88 C 412.58 325.77 409.46 327.96 410.25 325.38 C 411.04 322.79 412.04 314.42 412.88 310.38 C 413.71 306.33 414.38 304.02 415.25 301.12 C 416.12 298.23 416.69 296.15 418.12 293.00 C 419.56 289.85 422.77 284.44 423.88 282.25 C 424.98 280.06 424.58 280.75 424.75 279.88 C 424.92 279.00 425.04 278.04 424.88 277.00 Z" id="s-10-f-4"/>
<path d="M 424.88 276.62 C 424.60 275.75 423.77 273.79 422.88 272.50 C 421.98 271.21 420.75 270.00 419.50 268.88 C 418.25 267.75 417.08 266.92 415.38 265.75 C 413.67 264.58 412.40 263.65 409.25 261.88 C 406.10 260.10 399.35 256.56 396.50 255.12 C 393.65 253.69 393.31 253.62 392.12 253.25 C 390.94 252.88 391.12 252.56 389.38 252.88 C 387.62 253.19 384.23 254.19 381.62 255.12 C 379.02 256.06 376.65 257.40 373.75 258.50 C 370.85 259.60 368.81 260.38 364.25 261.75 C 359.69 263.12 358.17 263.94 346.38 266.75 C 334.58 269.56 306.44 275.96 293.50 278.62 C 280.56 281.29 275.54 281.85 268.75 282.75 C 261.96 283.65 255.92 283.60 252.75 284.00 C 249.58 284.40 250.38 284.58 249.75 285.12 C 249.12 285.67 248.81 286.44 249.00 287.25 C 249.19 288.06 250.02 289.06 250.88 290.00 C 251.73 290.94 251.71 291.08 254.12 292.88 C 256.54 294.67 262.31 298.96 265.38 300.75 C 268.44 302.54 270.48 303.10 272.50 303.62 C 274.52 304.15 276.04 304.02 277.50 303.88 C 278.96 303.73 279.88 303.40 281.25 302.75 C 282.62 302.10 283.21 301.12 285.75 300.00 C 288.29 298.88 292.77 297.19 296.50 296.00 C 300.23 294.81 301.52 294.90 308.12 292.88 C 314.73 290.85 331.21 285.52 336.12 283.88 C 341.04 282.23 335.00 283.65 337.62 283.00 C 340.25 282.35 347.33 280.81 351.88 280.00 C 356.42 279.19 352.77 278.50 364.88 278.12 C 376.98 277.75 414.50 278.00 424.50 277.75 C 434.50 277.50 425.15 277.50 424.88 276.62 Z" id="s-10-f-5"/>
<path d="M 392.62 253.88 C 392.48 250.04 392.48 253.42 392.12 253.25 C 391.77 253.08 391.27 252.88 390.50 252.88 C 389.73 252.88 388.98 252.88 387.50 253.25 C 386.02 253.62 383.92 254.25 381.62 255.12 C 379.33 256.00 377.81 257.04 373.75 258.50 C 369.69 259.96 362.50 262.33 357.25 263.88 C 352.00 265.42 345.12 267.08 342.25 267.75 C 339.38 268.42 345.69 266.58 340.00 267.88 C 334.31 269.17 318.85 273.19 308.12 275.50 C 297.40 277.81 282.38 280.52 275.62 281.75 C 268.88 282.98 271.44 282.50 267.62 282.88 C 263.81 283.25 255.73 283.62 252.75 284.00 C 249.77 284.38 250.38 284.58 249.75 285.12 C 249.12 285.67 248.81 286.44 249.00 287.25 C 249.19 288.06 250.02 289.06 250.88 290.00 C 251.73 290.94 251.73 291.08 254.12 292.88 C 256.52 294.67 262.17 298.96 265.25 300.75 C 268.33 302.54 270.58 303.10 272.62 303.62 C 274.67 304.15 276.42 303.88 277.50 303.88 C 278.58 303.88 277.75 304.27 279.12 303.62 C 280.50 302.98 282.98 301.23 285.75 300.00 C 288.52 298.77 292.38 297.40 295.75 296.25 C 299.12 295.10 303.94 293.69 306.00 293.12 C 308.06 292.56 302.35 294.69 308.12 292.88 C 313.90 291.06 332.35 284.56 340.62 282.25 C 348.90 279.94 353.71 279.69 357.75 279.00 C 361.79 278.31 359.06 278.31 364.88 278.12 C 370.69 277.94 387.94 278.19 392.62 277.88 C 397.31 277.56 393.00 280.25 393.00 276.25 C 393.00 272.25 392.77 257.71 392.62 253.88 Z" id="s-10-f-6"/>
<path d="M 344.88 267.50 C 344.67 265.38 344.19 267.08 343.75 267.12 C 343.31 267.17 342.88 267.62 342.25 267.75 C 341.62 267.88 345.77 266.56 340.00 267.88 C 334.23 269.19 317.29 273.48 307.62 275.62 C 297.96 277.77 288.48 279.56 282.00 280.75 C 275.52 281.94 273.73 282.19 268.75 282.75 C 263.77 283.31 255.29 283.73 252.12 284.12 C 248.96 284.52 250.27 284.60 249.75 285.12 C 249.23 285.65 248.81 286.44 249.00 287.25 C 249.19 288.06 250.02 289.06 250.88 290.00 C 251.73 290.94 251.71 291.08 254.12 292.88 C 256.54 294.67 262.31 298.96 265.38 300.75 C 268.44 302.54 270.29 303.12 272.50 303.62 C 274.71 304.12 276.42 304.35 278.62 303.75 C 280.83 303.15 283.33 301.10 285.75 300.00 C 288.17 298.90 289.75 298.27 293.12 297.12 C 296.50 295.98 303.50 293.83 306.00 293.12 C 308.50 292.42 303.10 294.42 308.12 292.88 C 313.15 291.33 331.21 285.52 336.12 283.88 C 341.04 282.23 336.25 283.38 337.62 283.00 C 339.00 282.62 343.15 282.15 344.38 281.62 C 345.60 281.10 344.92 282.23 345.00 279.88 C 345.08 277.52 345.08 269.62 344.88 267.50 Z" id="s-10-f-7"/>
<path d="M 297.00 278.38 C 296.71 275.46 297.75 277.60 295.25 278.00 C 292.75 278.40 286.42 279.96 282.00 280.75 C 277.58 281.54 273.65 282.21 268.75 282.75 C 263.85 283.29 255.79 283.60 252.62 284.00 C 249.46 284.40 250.35 284.58 249.75 285.12 C 249.15 285.67 248.81 286.44 249.00 287.25 C 249.19 288.06 250.02 289.06 250.88 290.00 C 251.73 290.94 251.73 291.08 254.12 292.88 C 256.52 294.67 262.19 298.96 265.25 300.75 C 268.31 302.54 270.27 303.12 272.50 303.62 C 274.73 304.12 276.85 304.06 278.62 303.75 C 280.40 303.44 281.94 302.38 283.12 301.75 C 284.31 301.12 283.77 300.83 285.75 300.00 C 287.73 299.17 293.12 297.50 295.00 296.75 C 296.88 296.00 296.67 298.56 297.00 295.50 C 297.33 292.44 297.29 281.29 297.00 278.38 Z" id="s-10-f-8"/>
</g>
<g id="s-11" clip-path="url(#c-s-11)">
<use href="#s-11-f-0"/>
<path d="M 329.38 216.12 C 326.40 214.94 324.23 214.50 322.25 214.12 C 320.27 213.75 318.54 213.85 317.50 213.88 C 316.46 213.90 316.54 213.83 316.00 214.25 C 315.46 214.67 314.58 215.15 314.25 216.38 C 313.92 217.60 313.75 219.31 314.00 221.62 C 314.25 223.94 315.46 228.02 315.75 230.25 C 316.04 232.48 315.92 231.62 315.75 235.00 C 315.58 238.38 315.08 246.60 314.75 250.50 C 314.42 254.40 314.42 254.31 313.75 258.38 C 313.08 262.44 311.73 272.00 310.75 274.88 C 309.77 277.75 308.06 275.35 307.88 275.62 C 307.69 275.90 309.35 275.90 309.62 276.50 C 309.90 277.10 309.67 278.48 309.50 279.25 C 309.33 280.02 308.81 280.27 308.62 281.12 C 308.44 281.98 308.54 283.65 308.38 284.38 C 308.21 285.10 307.79 284.77 307.62 285.50 C 307.46 286.23 307.54 287.98 307.38 288.75 C 307.21 289.52 306.75 289.38 306.62 290.12 C 306.50 290.88 307.48 289.67 306.62 293.25 C 305.77 296.83 303.54 305.00 301.50 311.62 C 299.46 318.25 297.19 325.38 294.38 333.00 C 291.56 340.62 287.75 350.17 284.62 357.38 C 281.50 364.58 278.65 370.25 275.62 376.25 C 272.60 382.25 269.19 388.62 266.50 393.38 C 263.81 398.12 260.69 402.71 259.50 404.75 C 258.31 406.79 256.15 405.44 259.38 405.62 C 262.60 405.81 274.79 406.75 278.88 405.88 C 282.96 405.00 281.54 403.29 283.88 400.38 C 286.21 397.46 290.21 392.23 292.88 388.38 C 295.54 384.52 297.75 380.83 299.88 377.25 C 302.00 373.67 302.98 372.19 305.62 366.88 C 308.27 361.56 312.56 352.65 315.75 345.38 C 318.94 338.10 322.08 330.27 324.75 323.25 C 327.42 316.23 329.54 309.98 331.75 303.25 C 333.96 296.52 336.52 286.40 338.00 282.88 C 339.48 279.35 340.25 282.31 340.62 282.12 C 341.00 281.94 340.44 281.73 340.25 281.75 C 340.06 281.77 339.83 282.23 339.50 282.25 C 339.17 282.27 338.29 281.98 338.25 281.88 C 338.21 281.77 339.06 282.17 339.25 281.62 C 339.44 281.08 339.23 279.27 339.38 278.62 C 339.52 277.98 339.96 278.33 340.12 277.75 C 340.29 277.17 340.21 275.73 340.38 275.12 C 340.54 274.52 340.98 274.71 341.12 274.12 C 341.27 273.54 341.08 272.27 341.25 271.62 C 341.42 270.98 341.98 270.92 342.12 270.25 C 342.27 269.58 340.38 272.56 342.12 267.62 C 343.88 262.69 350.85 246.12 352.62 240.62 C 354.40 235.12 353.06 236.38 352.75 234.62 C 352.44 232.88 351.92 231.73 350.75 230.12 C 349.58 228.52 347.52 226.48 345.75 225.00 C 343.98 223.52 342.85 222.73 340.12 221.25 C 337.40 219.77 332.35 217.31 329.38 216.12 Z" id="s-11-f-1"/>
<path d="M 326.25 215.12 C 323.81 214.27 322.96 214.21 321.50 214.00 C 320.04 213.79 318.54 213.73 317.50 213.88 C 316.46 214.02 315.81 214.40 315.25 214.88 C 314.69 215.35 314.33 215.62 314.12 216.75 C 313.92 217.88 313.73 219.38 314.00 221.62 C 314.27 223.88 315.50 227.08 315.75 230.25 C 316.00 233.42 315.83 235.94 315.50 240.62 C 315.17 245.31 314.52 252.73 313.75 258.38 C 312.98 264.02 311.50 271.67 310.88 274.50 C 310.25 277.33 310.50 275.19 310.00 275.38 C 309.50 275.56 307.94 275.44 307.88 275.62 C 307.81 275.81 309.35 275.90 309.62 276.50 C 309.90 277.10 309.67 278.48 309.50 279.25 C 309.33 280.02 308.81 280.27 308.62 281.12 C 308.44 281.98 308.54 283.65 308.38 284.38 C 308.21 285.10 307.79 284.77 307.62 285.50 C 307.46 286.23 307.54 287.98 307.38 288.75 C 307.21 289.52 306.75 289.38 306.62 290.12 C 306.50 290.88 306.94 291.54 306.62 293.25 C 306.31 294.96 306.40 294.88 304.75 300.38 C 303.10 305.88 299.10 319.15 296.75 326.25 C 294.40 333.35 292.65 337.85 290.62 343.00 C 288.60 348.15 285.56 354.65 284.62 357.12 C 283.69 359.60 281.10 357.73 285.00 357.88 C 288.90 358.02 303.79 358.08 308.00 358.00 C 312.21 357.92 308.65 360.19 310.25 357.38 C 311.85 354.56 315.21 346.81 317.62 341.12 C 320.04 335.44 322.40 329.56 324.75 323.25 C 327.10 316.94 329.54 309.98 331.75 303.25 C 333.96 296.52 336.52 286.40 338.00 282.88 C 339.48 279.35 340.25 282.31 340.62 282.12 C 341.00 281.94 340.44 281.73 340.25 281.75 C 340.06 281.77 339.83 282.23 339.50 282.25 C 339.17 282.27 338.29 281.98 338.25 281.88 C 338.21 281.77 339.06 282.17 339.25 281.62 C 339.44 281.08 339.23 279.27 339.38 278.62 C 339.52 277.98 339.96 278.33 340.12 277.75 C 340.29 277.17 340.21 275.73 340.38 275.12 C 340.54 274.52 340.98 274.71 341.12 274.12 C 341.27 273.54 341.08 272.27 341.25 271.62 C 341.42 270.98 341.98 270.92 342.12 270.25 C 342.27 269.58 340.38 272.56 342.12 267.62 C 343.88 262.69 350.83 245.85 352.62 240.62 C 354.42 235.40 352.90 237.46 352.88 236.25 C 352.85 235.04 352.96 234.54 352.50 233.38 C 352.04 232.21 351.10 230.52 350.12 229.25 C 349.15 227.98 348.10 226.98 346.62 225.75 C 345.15 224.52 343.00 222.98 341.25 221.88 C 339.50 220.77 338.62 220.25 336.12 219.12 C 333.62 218.00 328.69 215.98 326.25 215.12 Z" id="s-11-f-2"/>
<path d="M 322.75 214.25 C 321.12 213.88 320.75 213.88 319.62 213.88 C 318.50 213.88 316.79 214.02 316.00 214.25 C 315.21 214.48 315.21 214.75 314.88 215.25 C 314.54 215.75 314.15 216.19 314.00 217.25 C 313.85 218.31 313.71 219.46 314.00 221.62 C 314.29 223.79 315.50 227.08 315.75 230.25 C 316.00 233.42 315.71 236.92 315.50 240.62 C 315.29 244.33 314.96 248.46 314.50 252.50 C 314.04 256.54 313.38 261.15 312.75 264.88 C 312.12 268.60 311.56 273.08 310.75 274.88 C 309.94 276.67 308.06 275.35 307.88 275.62 C 307.69 275.90 309.35 275.90 309.62 276.50 C 309.90 277.10 309.67 278.48 309.50 279.25 C 309.33 280.02 308.81 280.27 308.62 281.12 C 308.44 281.98 308.54 283.65 308.38 284.38 C 308.21 285.10 307.79 284.77 307.62 285.50 C 307.46 286.23 307.54 287.98 307.38 288.75 C 307.21 289.52 306.75 289.38 306.62 290.12 C 306.50 290.88 307.40 290.12 306.62 293.25 C 305.85 296.38 302.71 306.08 302.00 308.88 C 301.29 311.67 298.19 309.81 302.38 310.00 C 306.56 310.19 322.60 310.08 327.12 310.00 C 331.65 309.92 327.69 314.02 329.50 309.50 C 331.31 304.98 336.15 287.44 338.00 282.88 C 339.85 278.31 340.25 282.31 340.62 282.12 C 341.00 281.94 340.44 281.73 340.25 281.75 C 340.06 281.77 339.83 282.23 339.50 282.25 C 339.17 282.27 338.29 281.98 338.25 281.88 C 338.21 281.77 339.06 282.17 339.25 281.62 C 339.44 281.08 339.23 279.27 339.38 278.62 C 339.52 277.98 339.96 278.33 340.12 277.75 C 340.29 277.17 340.21 275.73 340.38 275.12 C 340.54 274.52 340.98 274.71 341.12 274.12 C 341.27 273.54 341.08 272.27 341.25 271.62 C 341.42 270.98 341.98 270.92 342.12 270.25 C 342.27 269.58 340.35 272.65 342.12 267.62 C 343.90 262.60 350.98 245.69 352.75 240.12 C 354.52 234.56 352.94 235.71 352.75 234.25 C 352.56 232.79 352.65 232.79 351.62 231.38 C 350.60 229.96 348.35 227.33 346.62 225.75 C 344.90 224.17 343.00 222.98 341.25 221.88 C 339.50 220.77 338.10 220.08 336.12 219.12 C 334.15 218.17 331.60 216.94 329.38 216.12 C 327.15 215.31 324.38 214.62 322.75 214.25 Z" id="s-11-f-3"/>
<path d="M 316.00 214.25 C 315.58 214.48 315.21 214.75 314.88 215.25 C 314.54 215.75 314.15 216.19 314.00 217.25 C 313.85 218.31 313.71 219.44 314.00 221.62 C 314.29 223.81 315.46 228.15 315.75 230.38 C 316.04 232.60 315.92 231.65 315.75 235.00 C 315.58 238.35 315.17 246.10 314.75 250.50 C 314.33 254.90 313.10 259.48 313.25 261.38 C 313.40 263.27 310.48 261.81 315.62 261.88 C 320.77 261.94 339.29 261.83 344.12 261.75 C 348.96 261.67 343.19 264.96 344.62 261.38 C 346.06 257.79 351.40 244.77 352.75 240.25 C 354.10 235.73 352.94 235.71 352.75 234.25 C 352.56 232.79 352.06 232.33 351.62 231.50 C 351.19 230.67 351.10 230.33 350.12 229.25 C 349.15 228.17 347.23 226.23 345.75 225.00 C 344.27 223.77 342.85 222.85 341.25 221.88 C 339.65 220.90 338.10 220.08 336.12 219.12 C 334.15 218.17 331.67 216.96 329.38 216.12 C 327.08 215.29 324.38 214.50 322.38 214.12 C 320.38 213.75 318.44 213.85 317.38 213.88 C 316.31 213.90 316.42 214.02 316.00 214.25 Z" id="s-11-f-4"/>
</g>
</svg>