<?xml version="1.0" encoding="UTF-8"?>
<svg xmlns="http://www.w3.org/2000/svg" viewBox="0 0 500 500">
<defs>
<path d="M 33.00 132.88 C 31.94 132.92 31.90 133.06 31.38 133.38 C 30.85 133.69 30.27 134.12 29.88 134.75 C 29.48 135.38 29.17 136.35 29.00 137.12 C 28.83 137.90 28.83 138.69 28.88 139.38 C 28.92 140.06 28.77 140.19 29.25 141.25 C 29.73 142.31 31.00 143.71 31.75 145.75 C 32.50 147.79 33.23 150.85 33.75 153.50 C 34.27 156.15 34.56 158.42 34.88 161.62 C 35.19 164.83 35.50 163.00 35.62 172.75 C 35.75 182.50 35.81 205.25 35.62 220.12 C 35.44 235.00 34.96 252.31 34.50 262.00 C 34.04 271.69 33.50 273.52 32.88 278.25 C 32.25 282.98 31.56 286.38 30.75 290.38 C 29.94 294.38 28.62 299.23 28.00 302.25 C 27.38 305.27 27.17 306.50 27.00 308.50 C 26.83 310.50 26.67 311.96 27.00 314.25 C 27.33 316.54 28.00 319.19 29.00 322.25 C 30.00 325.31 31.58 329.79 33.00 332.62 C 34.42 335.46 36.29 337.75 37.50 339.25 C 38.71 340.75 39.44 341.19 40.25 341.62 C 41.06 342.06 41.83 341.96 42.38 341.88 C 42.92 341.79 42.96 341.71 43.50 341.12 C 44.04 340.54 44.75 340.12 45.62 338.38 C 46.50 336.62 47.73 335.52 48.75 330.62 C 49.77 325.73 50.75 322.85 51.75 309.00 C 52.75 295.15 54.21 262.25 54.75 247.50 C 55.29 232.75 54.83 227.19 55.00 220.50 C 55.17 213.81 55.60 216.40 55.75 207.38 C 55.90 198.35 55.69 175.58 55.88 166.38 C 56.06 157.17 57.85 156.83 56.88 152.12 C 55.90 147.42 51.98 140.94 50.00 138.12 C 48.02 135.31 46.40 135.94 45.00 135.25 C 43.60 134.56 42.83 134.35 41.62 134.00 C 40.42 133.65 39.19 133.31 37.75 133.12 C 36.31 132.94 34.06 132.83 33.00 132.88 Z" id="s-0-f-0"/>
<clipPath id="c-s-0"><use href="#s-0-f-0"/></clipPath>
<path d="M 112.25 122.88 C 110.92 123.02 109.65 123.19 107.12 124.00 C 104.60 124.81 101.10 126.46 97.12 127.75 C 93.15 129.04 88.62 130.42 83.25 131.75 C 77.88 133.08 70.44 134.71 64.88 135.75 C 59.31 136.79 52.42 137.44 49.88 138.00 C 47.33 138.56 49.54 138.83 49.62 139.12 C 49.71 139.42 49.38 137.65 50.38 139.75 C 51.38 141.85 54.54 149.56 55.62 151.75 C 56.71 153.94 55.94 152.71 56.88 152.88 C 57.81 153.04 59.79 153.06 61.25 152.75 C 62.71 152.44 62.60 151.79 65.62 151.00 C 68.65 150.21 75.62 148.67 79.38 148.00 C 83.12 147.33 85.46 147.17 88.12 147.00 C 90.79 146.83 92.17 146.81 95.38 147.00 C 98.58 147.19 104.81 147.60 107.38 148.12 C 109.94 148.65 109.90 149.19 110.75 150.12 C 111.60 151.06 111.98 148.94 112.50 153.75 C 113.02 158.56 113.48 166.65 113.88 179.00 C 114.27 191.35 114.77 214.19 114.88 227.88 C 114.98 241.56 114.85 251.27 114.50 261.12 C 114.15 270.98 113.27 281.31 112.75 287.00 C 112.23 292.69 112.04 292.25 111.38 295.25 C 110.71 298.25 109.52 302.71 108.75 305.00 C 107.98 307.29 109.02 305.83 106.75 309.00 C 104.48 312.17 97.08 321.27 95.12 324.00 C 93.17 326.73 94.23 323.81 95.00 325.38 C 95.77 326.94 97.60 329.21 99.75 333.38 C 101.90 337.54 105.94 346.98 107.88 350.38 C 109.81 353.77 110.38 353.17 111.38 353.75 C 112.38 354.33 112.96 354.02 113.88 353.88 C 114.79 353.73 115.94 353.33 116.88 352.88 C 117.81 352.42 118.46 351.98 119.50 351.12 C 120.54 350.27 121.73 349.25 123.12 347.75 C 124.52 346.25 126.27 344.90 127.88 342.12 C 129.48 339.35 131.46 335.02 132.75 331.12 C 134.04 327.23 135.08 336.12 135.62 318.75 C 136.17 301.38 135.71 250.35 136.00 226.88 C 136.29 203.40 136.90 188.98 137.38 177.88 C 137.85 166.77 137.83 164.71 138.88 160.25 C 139.92 155.79 142.79 153.21 143.62 151.12 C 144.46 149.04 144.04 149.00 143.88 147.75 C 143.71 146.50 143.04 144.62 142.62 143.62 C 142.21 142.62 142.67 143.08 141.38 141.75 C 140.08 140.42 137.38 137.50 134.88 135.62 C 132.38 133.75 129.02 132.27 126.38 130.50 C 123.73 128.73 120.88 126.23 119.00 125.00 C 117.12 123.77 116.25 123.48 115.12 123.12 C 114.00 122.77 113.58 122.73 112.25 122.88 Z" id="s-1-f-0"/>
<clipPath id="c-s-1"><use href="#s-1-f-0"/></clipPath>
<path d="M 115.25 212.25 C 114.21 209.65 112.00 211.19 109.00 211.00 C 106.00 210.81 102.56 210.00 97.25 211.12 C 91.94 212.25 83.90 215.75 77.12 217.75 C 70.35 219.75 60.40 222.04 56.62 223.12 C 52.85 224.21 54.85 222.19 54.50 224.25 C 54.15 226.31 53.71 233.40 54.50 235.50 C 55.29 237.60 57.58 236.69 59.25 236.88 C 60.92 237.06 62.50 236.94 64.50 236.62 C 66.50 236.31 66.88 235.67 71.25 235.00 C 75.62 234.33 83.81 233.65 90.75 232.62 C 97.69 231.60 108.79 229.88 112.88 228.88 C 116.96 227.88 114.85 229.40 115.25 226.62 C 115.65 223.85 116.29 214.85 115.25 212.25 Z" id="s-2-f-0"/>
<clipPath id="c-s-2"><use href="#s-2-f-0"/></clipPath>
<path d="M 107.12 309.25 C 108.46 306.29 104.98 307.81 103.25 307.12 C 101.52 306.44 98.88 305.48 96.75 305.12 C 94.62 304.77 94.98 304.06 90.50 305.00 C 86.02 305.94 76.50 309.27 69.88 310.75 C 63.25 312.23 54.10 312.90 50.75 313.88 C 47.40 314.85 50.12 314.19 49.75 316.62 C 49.38 319.06 48.10 326.31 48.50 328.50 C 48.90 330.69 49.65 329.54 52.12 329.75 C 54.60 329.96 56.19 330.56 63.38 329.75 C 70.56 328.94 87.96 328.29 95.25 324.88 C 102.54 321.46 105.79 312.21 107.12 309.25 Z" id="s-3-f-0"/>
<clipPath id="c-s-3"><use href="#s-3-f-0"/></clipPath>
<path d="M 176.12 157.00 C 175.52 156.79 174.98 157.06 174.50 157.25 C 174.02 157.44 173.67 157.58 173.25 158.12 C 172.83 158.67 172.75 157.81 172.00 160.50 C 171.25 163.19 169.79 170.25 168.75 174.25 C 167.71 178.25 168.21 177.23 165.75 184.50 C 163.29 191.77 156.27 210.67 154.00 217.88 C 151.73 225.08 152.46 223.88 152.12 227.75 C 151.79 231.62 151.69 237.19 152.00 241.12 C 152.31 245.06 152.90 248.73 154.00 251.38 C 155.10 254.02 157.44 255.77 158.62 257.00 C 159.81 258.23 160.23 258.29 161.12 258.75 C 162.02 259.21 162.77 259.58 164.00 259.75 C 165.23 259.92 167.38 259.98 168.50 259.75 C 169.62 259.52 170.06 258.96 170.75 258.38 C 171.44 257.79 171.62 257.75 172.62 256.25 C 173.62 254.75 175.73 251.27 176.75 249.38 C 177.77 247.48 177.94 247.08 178.75 244.88 C 179.56 242.67 180.46 240.40 181.62 236.12 C 182.79 231.85 184.73 223.94 185.75 219.25 C 186.77 214.56 187.23 212.35 187.75 208.00 C 188.27 203.65 188.71 196.83 188.88 193.12 C 189.04 189.42 188.94 187.79 188.75 185.75 C 188.56 183.71 188.42 183.27 187.75 180.88 C 187.08 178.48 185.90 174.42 184.75 171.38 C 183.60 168.33 181.98 164.77 180.88 162.62 C 179.77 160.48 178.92 159.44 178.12 158.50 C 177.33 157.56 176.73 157.21 176.12 157.00 Z" id="s-4-f-0"/>
<clipPath id="c-s-4"><use href="#s-4-f-0"/></clipPath>
<path d="M 232.50 153.00 C 227.42 152.17 231.98 154.40 231.88 156.25 C 231.77 158.10 229.75 160.35 231.88 164.12 C 234.00 167.90 241.06 175.12 244.62 178.88 C 248.19 182.62 250.10 184.15 253.25 186.62 C 256.40 189.10 261.12 192.58 263.50 193.75 C 265.88 194.92 266.52 193.79 267.50 193.62 C 268.48 193.46 268.62 193.29 269.38 192.75 C 270.12 192.21 271.25 191.17 272.00 190.38 C 272.75 189.58 273.44 188.75 273.88 188.00 C 274.31 187.25 274.27 188.52 274.62 185.88 C 274.98 183.23 275.83 174.88 276.00 172.12 C 276.17 169.38 276.08 170.23 275.62 169.38 C 275.17 168.52 274.62 168.04 273.25 167.00 C 271.88 165.96 269.19 164.08 267.38 163.12 C 265.56 162.17 268.19 162.94 262.38 161.25 C 256.56 159.56 237.58 153.83 232.50 153.00 Z" id="s-5-f-0"/>
<clipPath id="c-s-5"><use href="#s-5-f-0"/></clipPath>
<path d="M 204.62 52.88 C 203.48 52.98 202.65 53.31 201.88 53.75 C 201.10 54.19 200.48 54.81 200.00 55.50 C 199.52 56.19 199.19 56.92 199.00 57.88 C 198.81 58.83 198.25 58.79 198.88 61.25 C 199.50 63.71 201.77 69.38 202.75 72.62 C 203.73 75.88 203.92 75.88 204.75 80.75 C 205.58 85.62 207.06 95.62 207.75 101.88 C 208.44 108.12 208.54 110.35 208.88 118.25 C 209.21 126.15 209.60 137.58 209.75 149.25 C 209.90 160.92 209.92 171.65 209.75 188.25 C 209.58 204.85 209.27 230.38 208.75 248.88 C 208.23 267.38 207.46 283.83 206.62 299.25 C 205.79 314.67 204.73 328.81 203.75 341.38 C 202.77 353.94 201.85 364.85 200.75 374.62 C 199.65 384.40 197.75 393.69 197.12 400.00 C 196.50 406.31 196.69 408.98 197.00 412.50 C 197.31 416.02 197.83 417.29 199.00 421.12 C 200.17 424.96 202.50 431.98 204.00 435.50 C 205.50 439.02 206.77 440.54 208.00 442.25 C 209.23 443.96 210.46 445.17 211.38 445.75 C 212.29 446.33 212.54 446.17 213.50 445.75 C 214.46 445.33 215.75 444.79 217.12 443.25 C 218.50 441.71 220.35 439.21 221.75 436.50 C 223.15 433.79 224.50 430.29 225.50 427.00 C 226.50 423.71 227.23 431.40 227.75 416.75 C 228.27 402.10 228.44 366.65 228.62 339.12 C 228.81 311.60 228.67 273.12 228.88 251.62 C 229.08 230.12 229.31 224.81 229.88 210.12 C 230.44 195.44 231.90 173.33 232.25 163.50 C 232.60 153.67 231.92 154.29 232.00 151.12 C 232.08 147.96 232.60 147.31 232.75 144.50 C 232.90 141.69 232.67 138.77 232.88 134.25 C 233.08 129.73 233.42 123.83 234.00 117.38 C 234.58 110.92 235.71 100.67 236.38 95.50 C 237.04 90.33 237.44 88.75 238.00 86.38 C 238.56 84.00 239.44 82.88 239.75 81.25 C 240.06 79.62 240.06 78.08 239.88 76.62 C 239.69 75.17 239.31 73.83 238.62 72.50 C 237.94 71.17 237.48 70.23 235.75 68.62 C 234.02 67.02 231.88 65.15 228.25 62.88 C 224.62 60.60 217.25 56.62 214.00 55.00 C 210.75 53.38 210.31 53.48 208.75 53.12 C 207.19 52.77 205.77 52.77 204.62 52.88 Z" id="s-6-f-0"/>
<clipPath id="c-s-6"><use href="#s-6-f-0"/></clipPath>
<path d="M 440.88 106.62 C 440.73 106.00 440.52 105.67 439.88 104.88 C 439.23 104.08 438.10 102.85 437.00 101.88 C 435.90 100.90 435.00 100.15 433.25 99.00 C 431.50 97.85 429.79 96.48 426.50 95.00 C 423.21 93.52 416.50 90.96 413.50 90.12 C 410.50 89.29 412.19 89.23 408.50 90.00 C 404.81 90.77 401.23 92.46 391.38 94.75 C 381.52 97.04 364.10 100.75 349.38 103.75 C 334.65 106.75 317.65 110.02 303.00 112.75 C 288.35 115.48 268.52 118.60 261.50 120.12 C 254.48 121.65 260.79 121.19 260.88 121.88 C 260.96 122.56 261.56 123.60 262.00 124.25 C 262.44 124.90 262.44 125.02 263.50 125.75 C 264.56 126.48 266.46 127.65 268.38 128.62 C 270.29 129.60 272.33 130.62 275.00 131.62 C 277.67 132.62 281.73 134.08 284.38 134.62 C 287.02 135.17 283.56 136.31 290.88 134.88 C 298.19 133.44 317.19 128.48 328.25 126.00 C 339.31 123.52 346.38 121.67 357.25 120.00 C 368.12 118.33 381.06 117.10 393.50 116.00 C 405.94 114.90 424.52 114.08 431.88 113.38 C 439.23 112.67 436.42 112.19 437.62 111.75 C 438.83 111.31 438.60 111.27 439.12 110.75 C 439.65 110.23 440.46 109.31 440.75 108.62 C 441.04 107.94 441.02 107.25 440.88 106.62 Z" id="s-7-f-0"/>
<clipPath id="c-s-7"><use href="#s-7-f-0"/></clipPath>
<path d="M 276.38 169.88 C 275.21 169.96 275.69 168.54 275.38 170.50 C 275.06 172.46 273.96 178.65 274.50 181.62 C 275.04 184.60 277.42 186.06 278.62 188.38 C 279.83 190.69 280.94 193.38 281.75 195.50 C 282.56 197.62 282.83 198.27 283.50 201.12 C 284.17 203.98 284.90 207.23 285.75 212.62 C 286.60 218.02 287.75 225.58 288.62 233.50 C 289.50 241.42 289.73 248.02 291.00 260.12 C 292.27 272.23 294.92 296.94 296.25 306.12 C 297.58 315.31 298.04 312.81 299.00 315.25 C 299.96 317.69 300.83 319.33 302.00 320.75 C 303.17 322.17 304.77 323.25 306.00 323.75 C 307.23 324.25 308.58 323.90 309.38 323.75 C 310.17 323.60 310.19 323.42 310.75 322.88 C 311.31 322.33 312.08 321.65 312.75 320.50 C 313.42 319.35 314.21 319.58 314.75 316.00 C 315.29 312.42 316.29 309.67 316.00 299.00 C 315.71 288.33 313.52 261.15 313.00 252.00 C 312.48 242.85 313.69 252.58 312.88 244.12 C 312.06 235.67 308.96 210.10 308.12 201.25 C 307.29 192.40 308.56 194.54 307.88 191.00 C 307.19 187.46 304.81 182.15 304.00 180.00 C 303.19 177.85 303.40 178.65 303.00 178.12 C 302.60 177.60 302.33 177.38 301.62 176.88 C 300.92 176.38 300.81 176.04 298.75 175.12 C 296.69 174.21 291.98 172.23 289.25 171.38 C 286.52 170.52 284.52 170.25 282.38 170.00 C 280.23 169.75 277.54 169.79 276.38 169.88 Z" id="s-8-f-0"/>
<clipPath id="c-s-8"><use href="#s-8-f-0"/></clipPath>
<path d="M 302.88 178.00 C 297.81 178.90 302.44 178.79 302.50 179.12 C 302.56 179.46 303.06 179.48 303.25 180.00 C 303.44 180.52 303.44 181.77 303.62 182.25 C 303.81 182.73 304.21 182.46 304.38 182.88 C 304.54 183.29 304.46 184.27 304.62 184.75 C 304.79 185.23 305.21 185.23 305.38 185.75 C 305.54 186.27 305.46 187.40 305.62 187.88 C 305.79 188.35 306.10 187.96 306.38 188.62 C 306.65 189.29 306.58 191.35 307.25 191.88 C 307.92 192.40 308.50 192.23 310.38 191.75 C 312.25 191.27 314.15 190.00 318.50 189.00 C 322.85 188.00 329.71 187.08 336.50 185.75 C 343.29 184.42 351.12 182.27 359.25 181.00 C 367.38 179.73 379.83 178.62 385.25 178.12 C 390.67 177.62 389.98 177.85 391.75 178.00 C 393.52 178.15 394.75 178.46 395.88 179.00 C 397.00 179.54 397.85 180.27 398.50 181.25 C 399.15 182.23 399.69 177.54 399.75 184.88 C 399.81 192.21 399.19 216.90 398.88 225.25 C 398.56 233.60 398.06 232.10 397.88 235.00 C 397.69 237.90 398.27 234.79 397.75 242.62 C 397.23 250.46 395.73 272.12 394.75 282.00 C 393.77 291.88 392.33 297.62 391.88 301.88 C 391.42 306.12 391.79 306.08 392.00 307.50 C 392.21 308.92 392.44 309.08 393.12 310.38 C 393.81 311.67 395.21 314.00 396.12 315.25 C 397.04 316.50 397.94 317.29 398.62 317.88 C 399.31 318.46 399.25 318.62 400.25 318.75 C 401.25 318.88 403.48 318.81 404.62 318.62 C 405.77 318.44 406.00 318.29 407.12 317.62 C 408.25 316.96 410.15 315.67 411.38 314.62 C 412.60 313.58 413.81 312.25 414.50 311.38 C 415.19 310.50 414.50 313.04 415.50 309.38 C 416.50 305.71 417.81 301.35 420.50 289.38 C 423.19 277.40 428.71 252.15 431.62 237.50 C 434.54 222.85 436.56 208.92 438.00 201.50 C 439.44 194.08 439.31 195.71 440.25 193.00 C 441.19 190.29 442.90 187.12 443.62 185.25 C 444.35 183.38 444.42 183.08 444.62 181.75 C 444.83 180.42 445.33 178.58 444.88 177.25 C 444.42 175.92 442.96 174.77 441.88 173.75 C 440.79 172.73 441.94 173.25 438.38 171.12 C 434.81 169.00 425.00 163.31 420.50 161.00 C 416.00 158.69 413.90 157.92 411.38 157.25 C 408.85 156.58 415.79 154.75 405.38 157.00 C 394.96 159.25 360.96 167.96 348.88 170.75 C 336.79 173.54 340.54 172.54 332.88 173.75 C 325.21 174.96 307.94 177.10 302.88 178.00 Z" id="s-9-f-0"/>
<clipPath id="c-s-9"><use href="#s-9-f-0"/></clipPath>
<path d="M 399.25 226.25 C 398.96 224.79 398.33 225.35 397.38 225.00 C 396.42 224.65 395.75 224.46 393.50 224.12 C 391.25 223.79 386.44 223.19 383.88 223.00 C 381.31 222.81 382.04 222.21 378.12 223.00 C 374.21 223.79 366.17 226.31 360.38 227.75 C 354.58 229.19 350.46 230.17 343.38 231.62 C 336.29 233.08 323.19 235.56 317.88 236.50 C 312.56 237.44 312.54 236.19 311.50 237.25 C 310.46 238.31 311.46 241.02 311.62 242.88 C 311.79 244.73 312.29 247.38 312.50 248.38 C 312.71 249.38 311.96 248.65 312.88 248.88 C 313.79 249.10 314.58 249.62 318.00 249.75 C 321.42 249.88 327.06 250.15 333.38 249.62 C 339.69 249.10 348.46 247.73 355.88 246.62 C 363.29 245.52 371.15 243.96 377.88 243.00 C 384.60 242.04 392.85 241.42 396.25 240.88 C 399.65 240.33 397.77 240.94 398.25 239.75 C 398.73 238.56 398.96 236.00 399.12 233.75 C 399.29 231.50 399.54 227.71 399.25 226.25 Z" id="s-10-f-0"/>
<clipPath id="c-s-10"><use href="#s-10-f-0"/></clipPath>
<path d="M 394.25 289.25 C 393.75 286.94 391.88 287.81 390.12 287.12 C 388.38 286.44 385.92 285.48 383.75 285.12 C 381.58 284.77 384.19 283.42 377.12 285.00 C 370.06 286.58 349.19 292.67 341.38 294.62 C 333.56 296.58 334.52 296.06 330.25 296.75 C 325.98 297.44 318.35 297.38 315.75 298.75 C 313.15 300.12 314.83 302.71 314.62 305.00 C 314.42 307.29 314.19 311.04 314.50 312.50 C 314.81 313.96 315.52 313.38 316.50 313.75 C 317.48 314.12 317.88 314.60 320.38 314.75 C 322.88 314.90 322.23 315.90 331.50 314.62 C 340.77 313.35 365.92 308.73 376.00 307.12 C 386.08 305.52 389.15 306.02 392.00 305.00 C 394.85 303.98 392.75 303.62 393.12 301.00 C 393.50 298.38 394.75 291.56 394.25 289.25 Z" id="s-11-f-0"/>
<clipPath id="c-s-11"><use href="#s-11-f-0"/></clipPath>
<path d="M 471.88 372.12 C 471.71 371.10 471.40 369.98 470.62 368.75 C 469.85 367.52 468.58 366.00 467.25 364.75 C 465.92 363.50 464.58 362.54 462.62 361.25 C 460.67 359.96 459.73 358.69 455.50 357.00 C 451.27 355.31 441.04 352.29 437.25 351.12 C 433.46 349.96 434.06 350.19 432.75 350.00 C 431.44 349.81 433.17 349.21 429.38 350.00 C 425.58 350.79 416.92 353.29 410.00 354.75 C 403.08 356.21 394.27 357.73 387.88 358.75 C 381.48 359.77 379.75 360.00 371.62 360.88 C 363.50 361.75 349.35 362.79 339.12 364.00 C 328.90 365.21 317.23 367.00 310.25 368.12 C 303.27 369.25 300.90 370.15 297.25 370.75 C 293.60 371.35 295.08 371.38 288.38 371.75 C 281.67 372.12 263.21 372.48 257.00 373.00 C 250.79 373.52 252.42 374.23 251.12 374.88 C 249.83 375.52 249.62 376.10 249.25 376.88 C 248.88 377.65 248.71 378.71 248.88 379.50 C 249.04 380.29 249.33 380.75 250.25 381.62 C 251.17 382.50 252.48 383.58 254.38 384.75 C 256.27 385.92 258.92 387.33 261.62 388.62 C 264.33 389.92 266.94 391.17 270.62 392.50 C 274.31 393.83 280.52 395.92 283.75 396.62 C 286.98 397.33 285.56 397.83 290.00 396.75 C 294.44 395.67 304.83 391.75 310.38 390.12 C 315.92 388.50 318.27 388.02 323.25 387.00 C 328.23 385.98 332.90 385.00 340.25 384.00 C 347.60 383.00 357.71 381.83 367.38 381.00 C 377.04 380.17 389.88 379.33 398.25 379.00 C 406.62 378.67 409.40 378.69 417.62 379.00 C 425.85 379.31 440.79 380.60 447.62 380.88 C 454.46 381.15 455.88 380.83 458.62 380.62 C 461.38 380.42 462.42 380.10 464.12 379.62 C 465.83 379.15 467.62 378.54 468.88 377.75 C 470.12 376.96 471.12 375.81 471.62 374.88 C 472.12 373.94 472.04 373.15 471.88 372.12 Z" id="s-12-f-0"/>
<clipPath id="c-s-12"><use href="#s-12-f-0"/></clipPath>
</defs>
<g id="s-0" clip-path="url(#c-s-0)">
<use href="#s-0-f-0"/>
<path d="M 33.00 132.88 C 31.94 132.92 31.90 133.06 31.38 133.38 C 30.85 133.69 30.27 134.12 29.88 134.75 C 29.48 135.38 29.17 136.35 29.00 137.12 C 28.83 137.90 28.83 138.69 28.88 139.38 C 28.92 140.06 28.77 140.19 29.25 141.25 C 29.73 142.31 31.00 143.71 31.75 145.75 C 32.50 147.79 33.23 150.85 33.75 153.50 C 34.27 156.15 34.56 158.42 34.88 161.62 C 35.19 164.83 35.50 163.00 35.62 172.75 C 35.75 182.50 35.81 205.25 35.62 220.12 C 35.44 235.00 34.96 252.31 34.50 262.00 C 34.04 271.69 33.50 273.52 32.88 278.25 C 32.25 282.98 31.56 286.38 30.75 290.38 C 29.94 294.38 28.62 299.23 28.00 302.25 C 27.38 305.27 27.17 306.50 27.00 308.50 C 26.83 310.50 26.67 311.96 27.00 314.25 C 27.33 316.54 28.46 320.48 29.00 322.25 C 29.54 324.02 27.12 324.42 30.25 324.88 C 33.38 325.33 44.54 325.02 47.75 325.00 C 50.96 324.98 49.15 324.90 49.50 324.75 C 49.85 324.60 49.60 326.33 49.88 324.12 C 50.15 321.92 50.81 314.02 51.12 311.50 C 51.44 308.98 51.15 319.67 51.75 309.00 C 52.35 298.33 54.21 262.25 54.75 247.50 C 55.29 232.75 54.83 227.19 55.00 220.50 C 55.17 213.81 55.60 216.40 55.75 207.38 C 55.90 198.35 55.69 175.58 55.88 166.38 C 56.06 157.17 57.85 156.83 56.88 152.12 C 55.90 147.42 51.98 140.94 50.00 138.12 C 48.02 135.31 46.40 135.94 45.00 135.25 C 43.60 134.56 42.83 134.35 41.62 134.00 C 40.42 133.65 39.19 133.31 37.75 133.12 C 36.31 132.94 34.06 132.83 33.00 132.88 Z" id="s-0-f-1"/>
<path d="M 33.00 132.88 C 31.94 132.92 31.90 133.06 31.38 133.38 C 30.85 133.69 30.27 134.12 29.88 134.75 C 29.48 135.38 29.17 136.35 29.00 137.12 C 28.83 137.90 28.83 138.69 28.88 139.38 C 28.92 140.06 28.77 140.19 29.25 141.25 C 29.73 142.31 31.00 143.71 31.75 145.75 C 32.50 147.79 33.23 150.85 33.75 153.50 C 34.27 156.15 34.56 158.42 34.88 161.62 C 35.19 164.83 35.50 163.00 35.62 172.75 C 35.75 182.50 35.75 206.73 35.62 220.12 C 35.50 233.52 35.29 243.79 34.88 253.12 C 34.46 262.46 33.33 272.17 33.12 276.12 C 32.92 280.08 30.56 276.73 33.62 276.88 C 36.69 277.02 48.21 277.08 51.50 277.00 C 54.79 276.92 52.83 281.29 53.38 276.38 C 53.92 271.46 54.48 256.81 54.75 247.50 C 55.02 238.19 54.83 227.19 55.00 220.50 C 55.17 213.81 55.60 216.40 55.75 207.38 C 55.90 198.35 55.69 175.58 55.88 166.38 C 56.06 157.17 57.85 156.83 56.88 152.12 C 55.90 147.42 51.98 140.94 50.00 138.12 C 48.02 135.31 46.40 135.94 45.00 135.25 C 43.60 134.56 42.83 134.35 41.62 134.00 C 40.42 133.65 39.19 133.31 37.75 133.12 C 36.31 132.94 34.06 132.83 33.00 132.88 Z" id="s-0-f-2"/>
<path d="M 32.12 133.00 C 30.92 133.15 30.96 133.56 30.50 134.00 C 30.04 134.44 29.65 134.73 29.38 135.62 C 29.10 136.52 28.90 138.44 28.88 139.38 C 28.85 140.31 28.77 140.19 29.25 141.25 C 29.73 142.31 31.17 144.48 31.75 145.75 C 32.33 147.02 32.23 146.23 32.75 148.88 C 33.27 151.52 34.38 156.48 34.88 161.62 C 35.38 166.77 35.69 168.65 35.75 179.75 C 35.81 190.85 35.25 220.06 35.25 228.25 C 35.25 236.44 35.44 228.75 35.75 228.88 C 36.06 229.00 33.98 229.00 37.12 229.00 C 40.27 229.00 51.65 228.98 54.62 228.88 C 57.60 228.77 54.81 231.96 55.00 228.38 C 55.19 224.79 55.60 217.71 55.75 207.38 C 55.90 197.04 55.69 175.58 55.88 166.38 C 56.06 157.17 57.85 156.83 56.88 152.12 C 55.90 147.42 51.98 140.94 50.00 138.12 C 48.02 135.31 46.40 135.94 45.00 135.25 C 43.60 134.56 42.83 134.35 41.62 134.00 C 40.42 133.65 39.33 133.29 37.75 133.12 C 36.17 132.96 33.33 132.85 32.12 133.00 Z" id="s-0-f-3"/>
<path d="M 32.12 133.00 C 30.92 133.15 30.96 133.56 30.50 134.00 C 30.04 134.44 29.65 134.73 29.38 135.62 C 29.10 136.52 28.90 138.44 28.88 139.38 C 28.85 140.31 28.77 140.19 29.25 141.25 C 29.73 142.31 31.00 143.71 31.75 145.75 C 32.50 147.79 33.23 150.85 33.75 153.50 C 34.27 156.15 34.52 157.21 34.88 161.62 C 35.23 166.04 35.50 176.83 35.88 180.00 C 36.25 183.17 34.81 180.50 37.12 180.62 C 39.44 180.75 46.85 180.85 49.75 180.75 C 52.65 180.65 53.52 180.29 54.50 180.00 C 55.48 179.71 55.38 181.85 55.62 179.00 C 55.88 176.15 55.81 166.44 56.00 162.88 C 56.19 159.31 56.60 159.42 56.75 157.62 C 56.90 155.83 57.85 155.19 56.88 152.12 C 55.90 149.06 52.29 141.77 50.88 139.25 C 49.46 136.73 49.79 137.83 48.38 137.00 C 46.96 136.17 44.15 134.90 42.38 134.25 C 40.60 133.60 39.46 133.33 37.75 133.12 C 36.04 132.92 33.33 132.85 32.12 133.00 Z" id="s-0-f-4"/>
</g>
<g id="s-1" clip-path="url(#c-s-1)">
<use href="#s-1-f-0"/>
<path d="M 112.25 122.88 C 110.92 123.02 109.65 123.19 107.12 124.00 C 104.60 124.81 101.10 126.46 97.12 127.75 C 93.15 129.04 88.62 130.42 83.25 131.75 C 77.88 133.08 70.44 134.71 64.88 135.75 C 59.31 136.79 52.42 137.44 49.88 138.00 C 47.33 138.56 49.54 138.83 49.62 139.12 C 49.71 139.42 49.38 137.65 50.38 139.75 C 51.38 141.85 54.54 149.56 55.62 151.75 C 56.71 153.94 55.94 152.71 56.88 152.88 C 57.81 153.04 59.79 153.06 61.25 152.75 C 62.71 152.44 62.60 151.79 65.62 151.00 C 68.65 150.21 75.62 148.67 79.38 148.00 C 83.12 147.33 85.48 147.17 88.12 147.00 C 90.77 146.83 91.94 146.77 95.25 147.00 C 98.56 147.23 105.42 147.85 108.00 148.38 C 110.58 148.90 110.00 149.23 110.75 150.12 C 111.50 151.02 112.00 149.44 112.50 153.75 C 113.00 158.06 113.38 167.02 113.75 176.00 C 114.12 184.98 114.62 193.44 114.75 207.62 C 114.88 221.81 114.81 248.10 114.50 261.12 C 114.19 274.15 113.79 278.17 112.88 285.75 C 111.96 293.33 110.19 296.81 109.00 306.62 C 107.81 316.44 106.25 337.96 105.75 344.62 C 105.25 351.29 105.79 345.92 106.00 346.62 C 106.21 347.33 106.48 348.00 107.00 348.88 C 107.52 349.75 108.40 351.06 109.12 351.88 C 109.85 352.69 110.33 353.46 111.38 353.75 C 112.42 354.04 114.02 354.06 115.38 353.62 C 116.73 353.19 117.44 353.02 119.50 351.12 C 121.56 349.23 125.54 345.58 127.75 342.25 C 129.96 338.92 131.44 335.04 132.75 331.12 C 134.06 327.21 135.08 336.35 135.62 318.75 C 136.17 301.15 135.75 248.08 136.00 225.50 C 136.25 202.92 136.79 193.02 137.12 183.25 C 137.46 173.48 137.71 170.71 138.00 166.88 C 138.29 163.04 137.94 162.88 138.88 160.25 C 139.81 157.62 142.79 153.21 143.62 151.12 C 144.46 149.04 144.04 149.00 143.88 147.75 C 143.71 146.50 143.04 144.62 142.62 143.62 C 142.21 142.62 142.79 143.19 141.38 141.75 C 139.96 140.31 136.12 136.62 134.12 135.00 C 132.12 133.38 130.35 132.54 129.38 132.00 C 128.40 131.46 129.98 132.92 128.25 131.75 C 126.52 130.58 121.19 126.44 119.00 125.00 C 116.81 123.56 116.25 123.48 115.12 123.12 C 114.00 122.77 113.58 122.73 112.25 122.88 Z" id="s-1-f-1"/>
<path d="M 49.88 138.00 C 47.31 138.56 49.54 138.83 49.62 139.12 C 49.71 139.42 49.38 137.65 50.38 139.75 C 51.38 141.85 54.54 149.56 55.62 151.75 C 56.71 153.94 55.94 152.71 56.88 152.88 C 57.81 153.04 59.79 153.06 61.25 152.75 C 62.71 152.44 63.48 151.62 65.62 151.00 C 67.77 150.38 70.38 149.67 74.12 149.00 C 77.88 148.33 84.06 147.31 88.12 147.00 C 92.19 146.69 95.44 146.96 98.50 147.12 C 101.56 147.29 104.67 147.69 106.50 148.00 C 108.33 148.31 108.60 148.35 109.50 149.00 C 110.40 149.65 111.31 150.52 111.88 151.88 C 112.44 153.23 112.40 147.83 112.88 157.12 C 113.35 166.42 114.46 191.10 114.75 207.62 C 115.04 224.15 114.77 245.06 114.62 256.25 C 114.48 267.44 114.17 269.75 113.88 274.75 C 113.58 279.75 113.29 282.83 112.88 286.25 C 112.46 289.67 111.88 292.90 111.38 295.25 C 110.88 297.60 110.48 295.83 109.88 300.38 C 109.27 304.92 107.77 318.73 107.75 322.50 C 107.73 326.27 105.29 322.94 109.75 323.00 C 114.21 323.06 130.17 323.83 134.50 322.88 C 138.83 321.92 135.50 333.48 135.75 317.25 C 136.00 301.02 135.79 247.40 136.00 225.50 C 136.21 203.60 136.67 195.65 137.00 185.88 C 137.33 176.10 137.69 171.15 138.00 166.88 C 138.31 162.60 137.92 162.94 138.88 160.25 C 139.83 157.56 142.94 153.04 143.75 150.75 C 144.56 148.46 143.94 147.69 143.75 146.50 C 143.56 145.31 143.42 144.85 142.62 143.62 C 141.83 142.40 140.42 140.56 139.00 139.12 C 137.58 137.69 135.73 136.19 134.12 135.00 C 132.52 133.81 130.35 132.54 129.38 132.00 C 128.40 131.46 129.98 132.92 128.25 131.75 C 126.52 130.58 121.19 126.44 119.00 125.00 C 116.81 123.56 116.52 123.46 115.12 123.12 C 113.73 122.79 113.62 122.23 110.62 123.00 C 107.62 123.77 101.69 126.29 97.12 127.75 C 92.56 129.21 88.60 130.42 83.25 131.75 C 77.90 133.08 70.56 134.71 65.00 135.75 C 59.44 136.79 52.44 137.44 49.88 138.00 Z" id="s-1-f-2"/>
<path d="M 49.88 138.00 C 47.31 138.56 49.54 138.83 49.62 139.12 C 49.71 139.42 49.38 137.65 50.38 139.75 C 51.38 141.85 54.54 149.56 55.62 151.75 C 56.71 153.94 55.92 152.71 56.88 152.88 C 57.83 153.04 59.92 153.06 61.38 152.75 C 62.83 152.44 63.50 151.62 65.62 151.00 C 67.75 150.38 70.38 149.67 74.12 149.00 C 77.88 148.33 84.04 147.31 88.12 147.00 C 92.21 146.69 95.56 146.96 98.62 147.12 C 101.69 147.29 104.71 147.69 106.50 148.00 C 108.29 148.31 108.58 148.54 109.38 149.00 C 110.17 149.46 110.73 149.96 111.25 150.75 C 111.77 151.54 112.23 152.71 112.50 153.75 C 112.77 154.79 112.50 148.02 112.88 157.00 C 113.25 165.98 114.44 192.33 114.75 207.62 C 115.06 222.92 114.90 237.60 114.75 248.75 C 114.60 259.90 112.94 270.12 113.88 274.50 C 114.81 278.88 116.75 274.94 120.38 275.00 C 124.00 275.06 133.02 282.90 135.62 274.88 C 138.23 266.85 135.75 242.15 136.00 226.88 C 136.25 211.60 136.79 193.25 137.12 183.25 C 137.46 173.25 137.71 170.71 138.00 166.88 C 138.29 163.04 137.92 162.94 138.88 160.25 C 139.83 157.56 142.94 153.02 143.75 150.75 C 144.56 148.48 143.94 147.81 143.75 146.62 C 143.56 145.44 143.42 144.88 142.62 143.62 C 141.83 142.38 140.42 140.56 139.00 139.12 C 137.58 137.69 136.23 136.44 134.12 135.00 C 132.02 133.56 128.90 132.17 126.38 130.50 C 123.85 128.83 120.88 126.23 119.00 125.00 C 117.12 123.77 116.52 123.46 115.12 123.12 C 113.73 122.79 113.62 122.23 110.62 123.00 C 107.62 123.77 101.69 126.29 97.12 127.75 C 92.56 129.21 88.60 130.42 83.25 131.75 C 77.90 133.08 70.56 134.71 65.00 135.75 C 59.44 136.79 52.44 137.44 49.88 138.00 Z" id="s-1-f-3"/>
<path d="M 49.88 138.00 C 47.31 138.56 49.54 138.83 49.62 139.12 C 49.71 139.42 49.38 137.65 50.38 139.75 C 51.38 141.85 54.54 149.56 55.62 151.75 C 56.71 153.94 55.92 152.71 56.88 152.88 C 57.83 153.04 59.92 153.06 61.38 152.75 C 62.83 152.44 63.50 151.62 65.62 151.00 C 67.75 150.38 70.38 149.67 74.12 149.00 C 77.88 148.33 84.04 147.31 88.12 147.00 C 92.21 146.69 95.56 146.96 98.62 147.12 C 101.69 147.29 104.75 147.71 106.50 148.00 C 108.25 148.29 108.42 148.52 109.12 148.88 C 109.83 149.23 110.19 149.31 110.75 150.12 C 111.31 150.94 112.15 152.60 112.50 153.75 C 112.85 154.90 112.50 148.02 112.88 157.00 C 113.25 165.98 114.42 196.02 114.75 207.62 C 115.08 219.23 114.60 223.40 114.88 226.62 C 115.15 229.85 112.90 227.00 116.38 227.00 C 119.85 227.00 132.31 233.48 135.75 226.62 C 139.19 219.77 136.60 196.04 137.00 185.88 C 137.40 175.71 137.79 169.98 138.12 165.62 C 138.46 161.27 138.23 161.81 139.00 159.75 C 139.77 157.69 141.94 154.92 142.75 153.25 C 143.56 151.58 143.71 150.85 143.88 149.75 C 144.04 148.65 143.96 147.65 143.75 146.62 C 143.54 145.60 143.31 144.77 142.62 143.62 C 141.94 142.48 140.92 141.08 139.62 139.75 C 138.33 138.42 137.08 137.17 134.88 135.62 C 132.67 134.08 128.77 132.10 126.38 130.50 C 123.98 128.90 122.38 127.23 120.50 126.00 C 118.62 124.77 116.77 123.62 115.12 123.12 C 113.48 122.62 113.62 122.23 110.62 123.00 C 107.62 123.77 101.69 126.29 97.12 127.75 C 92.56 129.21 88.60 130.42 83.25 131.75 C 77.90 133.08 70.56 134.71 65.00 135.75 C 59.44 136.79 52.44 137.44 49.88 138.00 Z" id="s-1-f-4"/>
<path d="M 137.38 178.38 C 137.54 176.38 137.75 169.90 138.00 166.88 C 138.25 163.85 137.92 162.94 138.88 160.25 C 139.83 157.56 142.94 153.02 143.75 150.75 C 144.56 148.48 143.94 147.81 143.75 146.62 C 143.56 145.44 143.31 144.77 142.62 143.62 C 141.94 142.48 140.92 141.08 139.62 139.75 C 138.33 138.42 137.08 137.17 134.88 135.62 C 132.67 134.08 129.00 132.25 126.38 130.50 C 123.75 128.75 121.00 126.35 119.12 125.12 C 117.25 123.90 116.54 123.48 115.12 123.12 C 113.71 122.77 113.96 122.12 110.62 123.00 C 107.29 123.88 100.35 126.75 95.12 128.38 C 89.90 130.00 84.27 131.52 79.25 132.75 C 74.23 133.98 69.48 134.98 65.00 135.75 C 60.52 136.52 54.94 136.96 52.38 137.38 C 49.81 137.79 50.08 137.96 49.62 138.25 C 49.17 138.54 49.50 138.88 49.62 139.12 C 49.75 139.38 49.38 137.65 50.38 139.75 C 51.38 141.85 54.54 149.56 55.62 151.75 C 56.71 153.94 55.92 152.71 56.88 152.88 C 57.83 153.04 59.27 153.23 61.38 152.75 C 63.48 152.27 65.35 150.94 69.50 150.00 C 73.65 149.06 81.40 147.60 86.25 147.12 C 91.10 146.65 95.10 146.96 98.62 147.12 C 102.15 147.29 105.62 147.83 107.38 148.12 C 109.12 148.42 108.42 148.33 109.12 148.88 C 109.83 149.42 111.02 150.35 111.62 151.38 C 112.23 152.40 112.35 150.44 112.75 155.00 C 113.15 159.56 109.96 174.77 114.00 178.75 C 118.04 182.73 133.10 178.94 137.00 178.88 C 140.90 178.81 137.21 180.38 137.38 178.38 Z" id="s-1-f-5"/>
<path d="M 126.38 130.25 C 125.19 129.10 120.88 126.19 119.00 125.00 C 117.12 123.81 116.52 123.46 115.12 123.12 C 113.73 122.79 113.62 122.23 110.62 123.00 C 107.62 123.77 101.69 126.29 97.12 127.75 C 92.56 129.21 88.60 130.42 83.25 131.75 C 77.90 133.08 70.56 134.71 65.00 135.75 C 59.44 136.79 52.44 137.44 49.88 138.00 C 47.31 138.56 49.54 138.83 49.62 139.12 C 49.71 139.42 49.38 137.65 50.38 139.75 C 51.38 141.85 54.54 149.56 55.62 151.75 C 56.71 153.94 55.92 152.71 56.88 152.88 C 57.83 153.04 59.27 153.23 61.38 152.75 C 63.48 152.27 65.35 150.94 69.50 150.00 C 73.65 149.06 81.42 147.60 86.25 147.12 C 91.08 146.65 95.42 147.00 98.50 147.12 C 101.58 147.25 100.15 150.42 104.75 147.88 C 109.35 145.33 122.52 134.81 126.12 131.88 C 129.73 128.94 127.56 131.40 126.38 130.25 Z" id="s-1-f-6"/>
<path d="M 98.00 129.25 C 97.92 126.31 97.79 128.10 97.50 127.88 C 97.21 127.65 98.62 127.23 96.25 127.88 C 93.88 128.52 87.48 130.62 83.25 131.75 C 79.02 132.88 76.44 133.58 70.88 134.62 C 65.31 135.67 53.42 137.25 49.88 138.00 C 46.33 138.75 49.54 138.83 49.62 139.12 C 49.71 139.42 49.38 137.65 50.38 139.75 C 51.38 141.85 54.54 149.56 55.62 151.75 C 56.71 153.94 55.92 152.71 56.88 152.88 C 57.83 153.04 59.92 153.06 61.38 152.75 C 62.83 152.44 62.62 151.79 65.62 151.00 C 68.62 150.21 75.62 148.67 79.38 148.00 C 83.12 147.33 85.08 147.19 88.12 147.00 C 91.17 146.81 95.98 147.12 97.62 146.88 C 99.27 146.62 97.94 148.44 98.00 145.50 C 98.06 142.56 98.08 132.19 98.00 129.25 Z" id="s-1-f-7"/>
</g>
<g id="s-2" clip-path="url(#c-s-2)">
<use href="#s-2-f-0"/>
<path d="M 103.00 211.25 C 102.92 208.27 103.46 210.90 102.50 210.88 C 101.54 210.85 101.48 209.98 97.25 211.12 C 93.02 212.27 84.21 215.62 77.12 217.75 C 70.04 219.88 58.50 220.88 54.75 223.88 C 51.00 226.88 53.88 233.58 54.62 235.75 C 55.38 237.92 57.58 236.73 59.25 236.88 C 60.92 237.02 62.62 236.94 64.62 236.62 C 66.62 236.31 64.96 235.98 71.25 235.00 C 77.54 234.02 97.08 231.79 102.38 230.75 C 107.67 229.71 102.90 232.00 103.00 228.75 C 103.10 225.50 103.08 214.23 103.00 211.25 Z" id="s-2-f-1"/>
</g>
<g id="s-3" clip-path="url(#c-s-3)">
<use href="#s-3-f-0"/>
<path d="M 96.88 305.75 C 96.71 302.79 97.23 305.12 96.12 305.00 C 95.02 304.88 94.62 304.04 90.25 305.00 C 85.88 305.96 76.46 309.27 69.88 310.75 C 63.29 312.23 54.10 312.90 50.75 313.88 C 47.40 314.85 50.12 314.19 49.75 316.62 C 49.38 319.06 48.10 326.31 48.50 328.50 C 48.90 330.69 49.65 329.54 52.12 329.75 C 54.60 329.96 56.19 330.56 63.38 329.75 C 70.56 328.94 89.62 326.04 95.25 324.88 C 100.88 323.71 96.85 325.94 97.12 322.75 C 97.40 319.56 97.04 308.71 96.88 305.75 Z" id="s-3-f-1"/>
</g>
<g id="s-4" clip-path="url(#c-s-4)">
<use href="#s-4-f-0"/>
<path d="M 176.12 157.00 C 175.52 156.79 174.98 157.06 174.50 157.25 C 174.02 157.44 173.67 157.58 173.25 158.12 C 172.83 158.67 172.77 157.73 172.00 160.50 C 171.23 163.27 169.67 170.75 168.62 174.75 C 167.58 178.75 168.17 177.38 165.75 184.50 C 163.33 191.62 156.42 210.06 154.12 217.50 C 151.83 224.94 152.35 225.19 152.00 229.12 C 151.65 233.06 151.69 237.48 152.00 241.12 C 152.31 244.77 153.38 249.08 153.88 251.00 C 154.38 252.92 154.67 252.29 155.00 252.62 C 155.33 252.96 152.65 252.96 155.88 253.00 C 159.10 253.04 170.56 254.23 174.38 252.88 C 178.19 251.52 177.69 247.17 178.75 244.88 C 179.81 242.58 179.58 243.40 180.75 239.12 C 181.92 234.85 184.60 224.27 185.75 219.25 C 186.90 214.23 187.15 212.21 187.62 209.00 C 188.10 205.79 188.44 203.92 188.62 200.00 C 188.81 196.08 189.23 189.79 188.75 185.50 C 188.27 181.21 186.90 177.71 185.75 174.25 C 184.60 170.79 182.85 167.00 181.88 164.75 C 180.90 162.50 180.50 161.79 179.88 160.75 C 179.25 159.71 178.75 159.12 178.12 158.50 C 177.50 157.88 176.73 157.21 176.12 157.00 Z" id="s-4-f-1"/>
<path d="M 176.12 157.00 C 175.52 156.79 174.98 157.06 174.50 157.25 C 174.02 157.44 173.67 157.58 173.25 158.12 C 172.83 158.67 172.75 157.81 172.00 160.50 C 171.25 163.19 169.79 170.25 168.75 174.25 C 167.71 178.25 167.38 179.58 165.75 184.50 C 164.12 189.42 160.06 200.33 159.00 203.75 C 157.94 207.17 154.69 204.79 159.38 205.00 C 164.06 205.21 182.35 205.15 187.12 205.00 C 191.90 204.85 187.75 205.06 188.00 204.12 C 188.25 203.19 188.48 202.12 188.62 199.38 C 188.77 196.62 189.06 190.88 188.88 187.62 C 188.69 184.38 188.19 182.58 187.50 179.88 C 186.81 177.17 185.88 174.33 184.75 171.38 C 183.62 168.42 181.85 164.27 180.75 162.12 C 179.65 159.98 178.90 159.35 178.12 158.50 C 177.35 157.65 176.73 157.21 176.12 157.00 Z" id="s-4-f-2"/>
</g>
<g id="s-5" clip-path="url(#c-s-5)">
<use href="#s-5-f-0"/>
</g>
<g id="s-6" clip-path="url(#c-s-6)">
<use href="#s-6-f-0"/>
<path d="M 204.62 52.88 C 203.48 52.98 202.65 53.31 201.88 53.75 C 201.10 54.19 200.48 54.81 200.00 55.50 C 199.52 56.19 199.19 56.92 199.00 57.88 C 198.81 58.83 198.25 58.79 198.88 61.25 C 199.50 63.71 201.77 69.38 202.75 72.62 C 203.73 75.88 203.92 75.88 204.75 80.75 C 205.58 85.62 207.06 95.62 207.75 101.88 C 208.44 108.12 208.54 110.35 208.88 118.25 C 209.21 126.15 209.60 137.58 209.75 149.25 C 209.90 160.92 209.92 171.65 209.75 188.25 C 209.58 204.85 209.27 230.38 208.75 248.88 C 208.23 267.38 207.79 279.83 206.62 299.25 C 205.46 318.67 203.33 348.58 201.75 365.38 C 200.17 382.17 197.92 392.15 197.12 400.00 C 196.33 407.85 196.52 408.42 197.00 412.50 C 197.48 416.58 199.00 421.06 200.00 424.50 C 201.00 427.94 202.21 431.12 203.00 433.12 C 203.79 435.12 204.21 435.85 204.75 436.50 C 205.29 437.15 203.58 436.92 206.25 437.00 C 208.92 437.08 218.17 437.08 220.75 437.00 C 223.33 436.92 221.10 437.71 221.75 436.50 C 222.40 435.29 223.81 431.96 224.62 429.75 C 225.44 427.54 226.10 425.42 226.62 423.25 C 227.15 421.08 227.42 430.77 227.75 416.75 C 228.08 402.73 228.44 366.65 228.62 339.12 C 228.81 311.60 228.67 273.12 228.88 251.62 C 229.08 230.12 229.31 224.81 229.88 210.12 C 230.44 195.44 231.90 173.33 232.25 163.50 C 232.60 153.67 231.92 154.29 232.00 151.12 C 232.08 147.96 232.60 147.31 232.75 144.50 C 232.90 141.69 232.67 138.77 232.88 134.25 C 233.08 129.73 233.42 123.83 234.00 117.38 C 234.58 110.92 235.71 100.67 236.38 95.50 C 237.04 90.33 237.44 88.75 238.00 86.38 C 238.56 84.00 239.44 82.88 239.75 81.25 C 240.06 79.62 240.06 78.08 239.88 76.62 C 239.69 75.17 239.31 73.83 238.62 72.50 C 237.94 71.17 237.48 70.23 235.75 68.62 C 234.02 67.02 231.88 65.15 228.25 62.88 C 224.62 60.60 217.25 56.62 214.00 55.00 C 210.75 53.38 210.31 53.48 208.75 53.12 C 207.19 52.77 205.77 52.77 204.62 52.88 Z" id="s-6-f-1"/>
<path d="M 204.62 52.88 C 203.48 52.98 202.65 53.31 201.88 53.75 C 201.10 54.19 200.48 54.81 200.00 55.50 C 199.52 56.19 199.19 56.92 199.00 57.88 C 198.81 58.83 198.25 58.79 198.88 61.25 C 199.50 63.71 201.77 69.38 202.75 72.62 C 203.73 75.88 203.92 75.88 204.75 80.75 C 205.58 85.62 207.08 95.98 207.75 101.88 C 208.42 107.77 208.42 108.23 208.75 116.12 C 209.08 124.02 209.62 133.04 209.75 149.25 C 209.88 165.46 209.69 196.00 209.50 213.38 C 209.31 230.75 209.10 239.19 208.62 253.50 C 208.15 267.81 207.77 280.60 206.62 299.25 C 205.48 317.90 203.02 350.62 201.75 365.38 C 200.48 380.12 199.19 383.92 199.00 387.75 C 198.81 391.58 197.27 388.19 200.62 388.38 C 203.98 388.56 214.88 388.88 219.12 388.88 C 223.38 388.88 224.67 388.67 226.12 388.38 C 227.58 388.08 227.54 387.69 227.88 387.12 C 228.21 386.56 227.94 409.40 228.12 385.00 C 228.31 360.60 228.52 274.42 229.00 240.75 C 229.48 207.08 230.46 195.88 231.00 183.00 C 231.54 170.12 232.08 168.81 232.25 163.50 C 232.42 158.19 231.92 154.29 232.00 151.12 C 232.08 147.96 232.56 148.10 232.75 144.50 C 232.94 140.90 232.75 135.85 233.12 129.50 C 233.50 123.15 234.35 112.71 235.00 106.38 C 235.65 100.04 236.50 94.83 237.00 91.50 C 237.50 88.17 237.54 88.08 238.00 86.38 C 238.46 84.67 239.44 82.88 239.75 81.25 C 240.06 79.62 240.06 78.08 239.88 76.62 C 239.69 75.17 239.31 73.83 238.62 72.50 C 237.94 71.17 237.48 70.23 235.75 68.62 C 234.02 67.02 231.88 65.15 228.25 62.88 C 224.62 60.60 217.25 56.62 214.00 55.00 C 210.75 53.38 210.31 53.48 208.75 53.12 C 207.19 52.77 205.77 52.77 204.62 52.88 Z" id="s-6-f-2"/>
<path d="M 204.62 52.88 C 203.48 52.98 202.65 53.31 201.88 53.75 C 201.10 54.19 200.50 54.58 200.00 55.50 C 199.50 56.42 199.02 58.08 198.88 59.25 C 198.73 60.42 198.48 60.27 199.12 62.50 C 199.77 64.73 201.81 69.58 202.75 72.62 C 203.69 75.67 203.92 75.88 204.75 80.75 C 205.58 85.62 207.06 95.62 207.75 101.88 C 208.44 108.12 208.54 110.35 208.88 118.25 C 209.21 126.15 209.65 133.21 209.75 149.25 C 209.85 165.29 209.69 197.12 209.50 214.50 C 209.31 231.88 209.10 239.38 208.62 253.50 C 208.15 267.62 207.40 284.75 206.62 299.25 C 205.85 313.75 204.21 333.58 204.00 340.50 C 203.79 347.42 201.40 340.69 205.38 340.75 C 209.35 340.81 224.00 341.15 227.88 340.88 C 231.75 340.60 228.44 355.81 228.62 339.12 C 228.81 322.44 228.60 266.77 229.00 240.75 C 229.40 214.73 230.46 195.88 231.00 183.00 C 231.54 170.12 232.08 168.81 232.25 163.50 C 232.42 158.19 231.92 154.29 232.00 151.12 C 232.08 147.96 232.56 148.08 232.75 144.50 C 232.94 140.92 232.75 135.98 233.12 129.62 C 233.50 123.27 234.35 112.73 235.00 106.38 C 235.65 100.02 236.50 94.83 237.00 91.50 C 237.50 88.17 237.54 88.08 238.00 86.38 C 238.46 84.67 239.44 82.88 239.75 81.25 C 240.06 79.62 240.06 78.08 239.88 76.62 C 239.69 75.17 239.31 73.83 238.62 72.50 C 237.94 71.17 237.48 70.23 235.75 68.62 C 234.02 67.02 231.88 65.15 228.25 62.88 C 224.62 60.60 217.25 56.62 214.00 55.00 C 210.75 53.38 210.31 53.48 208.75 53.12 C 207.19 52.77 205.77 52.77 204.62 52.88 Z" id="s-6-f-3"/>
<path d="M 204.62 52.88 C 203.48 52.98 202.65 53.31 201.88 53.75 C 201.10 54.19 200.48 54.83 200.00 55.50 C 199.52 56.17 199.19 56.79 199.00 57.75 C 198.81 58.71 198.25 58.77 198.88 61.25 C 199.50 63.73 201.77 69.38 202.75 72.62 C 203.73 75.88 203.92 75.88 204.75 80.75 C 205.58 85.62 207.06 95.62 207.75 101.88 C 208.44 108.12 208.54 110.35 208.88 118.25 C 209.21 126.15 209.65 133.21 209.75 149.25 C 209.85 165.29 209.69 197.12 209.50 214.50 C 209.31 231.88 209.04 240.58 208.62 253.50 C 208.21 266.42 207.15 285.42 207.00 292.00 C 206.85 298.58 204.38 292.83 207.75 293.00 C 211.12 293.17 223.77 293.04 227.25 293.00 C 230.73 292.96 228.29 303.06 228.62 292.75 C 228.96 282.44 228.85 249.42 229.25 231.12 C 229.65 212.83 230.50 194.27 231.00 183.00 C 231.50 171.73 232.08 168.81 232.25 163.50 C 232.42 158.19 231.92 154.29 232.00 151.12 C 232.08 147.96 232.56 148.08 232.75 144.50 C 232.94 140.92 232.60 137.19 233.12 129.62 C 233.65 122.06 235.06 106.33 235.88 99.12 C 236.69 91.92 237.35 89.35 238.00 86.38 C 238.65 83.40 239.46 83.10 239.75 81.25 C 240.04 79.40 239.94 76.73 239.75 75.25 C 239.56 73.77 239.29 73.48 238.62 72.38 C 237.96 71.27 237.48 70.21 235.75 68.62 C 234.02 67.04 231.81 65.12 228.25 62.88 C 224.69 60.62 217.62 56.75 214.38 55.12 C 211.12 53.50 210.38 53.50 208.75 53.12 C 207.12 52.75 205.77 52.77 204.62 52.88 Z" id="s-6-f-4"/>
<path d="M 203.50 53.00 C 202.40 53.17 202.08 53.58 201.50 54.00 C 200.92 54.42 200.42 54.88 200.00 55.50 C 199.58 56.12 199.19 56.79 199.00 57.75 C 198.81 58.71 198.25 58.77 198.88 61.25 C 199.50 63.73 201.77 69.38 202.75 72.62 C 203.73 75.88 203.92 75.88 204.75 80.75 C 205.58 85.62 207.06 95.62 207.75 101.88 C 208.44 108.12 208.54 111.04 208.88 118.25 C 209.21 125.46 209.60 133.44 209.75 145.12 C 209.90 156.81 209.88 172.25 209.75 188.38 C 209.62 204.50 208.94 232.65 209.00 241.88 C 209.06 251.10 209.15 243.27 210.12 243.75 C 211.10 244.23 211.77 244.60 214.88 244.75 C 217.98 244.90 226.06 254.92 228.75 244.62 C 231.44 234.33 230.42 196.52 231.00 183.00 C 231.58 169.48 232.08 168.81 232.25 163.50 C 232.42 158.19 231.92 154.29 232.00 151.12 C 232.08 147.96 232.58 147.69 232.75 144.50 C 232.92 141.31 232.62 138.35 233.00 132.00 C 233.38 125.65 234.33 113.15 235.00 106.38 C 235.67 99.60 236.50 94.71 237.00 91.38 C 237.50 88.04 237.54 88.06 238.00 86.38 C 238.46 84.69 239.46 83.10 239.75 81.25 C 240.04 79.40 240.00 76.81 239.75 75.25 C 239.50 73.69 238.92 72.98 238.25 71.88 C 237.58 70.77 237.65 70.27 235.75 68.62 C 233.85 66.98 229.46 63.75 226.88 62.00 C 224.29 60.25 222.77 59.44 220.25 58.12 C 217.73 56.81 213.77 54.98 211.75 54.12 C 209.73 53.27 209.50 53.19 208.12 53.00 C 206.75 52.81 204.60 52.83 203.50 53.00 Z" id="s-6-f-5"/>
<path d="M 203.50 53.00 C 202.40 53.17 202.08 53.58 201.50 54.00 C 200.92 54.42 200.42 54.88 200.00 55.50 C 199.58 56.12 199.19 56.79 199.00 57.75 C 198.81 58.71 198.25 58.77 198.88 61.25 C 199.50 63.73 201.77 69.38 202.75 72.62 C 203.73 75.88 203.92 75.88 204.75 80.75 C 205.58 85.62 207.06 95.62 207.75 101.88 C 208.44 108.12 208.54 111.04 208.88 118.25 C 209.21 125.46 209.62 132.10 209.75 145.12 C 209.88 158.15 209.38 187.73 209.62 196.38 C 209.88 205.02 207.85 196.92 211.25 197.00 C 214.65 197.08 226.77 197.06 230.00 196.88 C 233.23 196.69 230.25 201.44 230.62 195.88 C 231.00 190.31 232.02 170.96 232.25 163.50 C 232.48 156.04 231.92 154.29 232.00 151.12 C 232.08 147.96 232.58 147.67 232.75 144.50 C 232.92 141.33 232.79 136.65 233.00 132.12 C 233.21 127.60 233.33 124.17 234.00 117.38 C 234.67 110.58 236.33 96.54 237.00 91.38 C 237.67 86.21 237.54 88.06 238.00 86.38 C 238.46 84.69 239.46 83.10 239.75 81.25 C 240.04 79.40 240.00 76.81 239.75 75.25 C 239.50 73.69 238.92 72.98 238.25 71.88 C 237.58 70.77 237.65 70.27 235.75 68.62 C 233.85 66.98 229.46 63.75 226.88 62.00 C 224.29 60.25 222.77 59.44 220.25 58.12 C 217.73 56.81 213.77 54.98 211.75 54.12 C 209.73 53.27 209.50 53.19 208.12 53.00 C 206.75 52.81 204.60 52.83 203.50 53.00 Z" id="s-6-f-6"/>
<path d="M 203.50 53.00 C 202.40 53.17 202.08 53.58 201.50 54.00 C 200.92 54.42 200.42 54.88 200.00 55.50 C 199.58 56.12 199.19 56.79 199.00 57.75 C 198.81 58.71 198.08 58.17 198.88 61.25 C 199.67 64.33 202.44 70.79 203.75 76.25 C 205.06 81.71 205.90 87.00 206.75 94.00 C 207.60 101.00 208.35 109.31 208.88 118.25 C 209.40 127.19 209.50 142.58 209.88 147.62 C 210.25 152.67 210.02 148.29 211.12 148.50 C 212.23 148.71 213.04 148.81 216.50 148.88 C 219.96 148.94 229.23 148.96 231.88 148.88 C 234.52 148.79 232.23 149.02 232.38 148.38 C 232.52 147.73 232.65 147.71 232.75 145.00 C 232.85 142.29 232.62 138.56 233.00 132.12 C 233.38 125.69 234.33 113.17 235.00 106.38 C 235.67 99.58 236.50 94.71 237.00 91.38 C 237.50 88.04 237.54 88.06 238.00 86.38 C 238.46 84.69 239.48 83.19 239.75 81.25 C 240.02 79.31 239.81 76.23 239.62 74.75 C 239.44 73.27 239.27 73.40 238.62 72.38 C 237.98 71.35 237.71 70.35 235.75 68.62 C 233.79 66.90 230.44 64.25 226.88 62.00 C 223.31 59.75 217.50 56.62 214.38 55.12 C 211.25 53.62 209.94 53.35 208.12 53.00 C 206.31 52.65 204.60 52.83 203.50 53.00 Z" id="s-6-f-7"/>
<path d="M 201.50 54.00 C 200.92 54.42 200.40 54.94 200.00 55.50 C 199.60 56.06 199.31 56.42 199.12 57.38 C 198.94 58.33 198.27 58.71 198.88 61.25 C 199.48 63.79 201.77 69.38 202.75 72.62 C 203.73 75.88 203.96 76.12 204.75 80.75 C 205.54 85.38 206.94 97.02 207.50 100.38 C 208.06 103.73 203.77 100.77 208.12 100.88 C 212.48 100.98 229.04 101.04 233.62 101.00 C 238.21 100.96 234.90 103.06 235.62 100.62 C 236.35 98.19 237.31 89.62 238.00 86.38 C 238.69 83.12 239.46 82.98 239.75 81.12 C 240.04 79.27 240.04 76.85 239.75 75.25 C 239.46 73.65 238.69 72.62 238.00 71.50 C 237.31 70.38 237.00 69.77 235.62 68.50 C 234.25 67.23 232.04 65.46 229.75 63.88 C 227.46 62.29 224.44 60.46 221.88 59.00 C 219.31 57.54 216.67 56.12 214.38 55.12 C 212.08 54.12 209.94 53.35 208.12 53.00 C 206.31 52.65 204.60 52.83 203.50 53.00 C 202.40 53.17 202.08 53.58 201.50 54.00 Z" id="s-6-f-8"/>
</g>
<g id="s-7" clip-path="url(#c-s-7)">
<use href="#s-7-f-0"/>
<path d="M 405.00 91.50 C 404.79 87.79 406.75 90.29 403.75 91.00 C 400.75 91.71 398.54 93.12 387.00 95.75 C 375.46 98.38 348.50 103.92 334.50 106.75 C 320.50 109.58 315.17 110.52 303.00 112.75 C 290.83 114.98 268.52 118.60 261.50 120.12 C 254.48 121.65 260.79 121.19 260.88 121.88 C 260.96 122.56 261.56 123.60 262.00 124.25 C 262.44 124.90 262.44 125.02 263.50 125.75 C 264.56 126.48 266.12 127.50 268.38 128.62 C 270.62 129.75 274.29 131.50 277.00 132.50 C 279.71 133.50 282.31 134.23 284.62 134.62 C 286.94 135.02 282.85 136.48 290.88 134.88 C 298.90 133.27 321.69 127.48 332.75 125.00 C 343.81 122.52 348.83 121.33 357.25 120.00 C 365.67 118.67 375.40 117.79 383.25 117.00 C 391.10 116.21 400.75 115.88 404.38 115.25 C 408.00 114.62 404.90 117.21 405.00 113.25 C 405.10 109.29 405.21 95.21 405.00 91.50 Z" id="s-7-f-1"/>
<path d="M 356.88 102.62 C 356.73 99.88 365.10 100.44 356.12 102.12 C 347.15 103.81 318.77 109.75 303.00 112.75 C 287.23 115.75 268.52 118.60 261.50 120.12 C 254.48 121.65 260.79 121.19 260.88 121.88 C 260.96 122.56 261.56 123.60 262.00 124.25 C 262.44 124.90 262.44 125.02 263.50 125.75 C 264.56 126.48 266.02 127.46 268.38 128.62 C 270.73 129.79 274.79 131.73 277.62 132.75 C 280.46 133.77 282.81 134.44 285.38 134.75 C 287.94 135.06 290.83 134.92 293.00 134.62 C 295.17 134.33 291.75 134.60 298.38 133.00 C 305.00 131.40 323.08 127.12 332.75 125.00 C 342.42 122.88 352.33 121.31 356.38 120.25 C 360.42 119.19 356.92 121.56 357.00 118.62 C 357.08 115.69 357.02 105.38 356.88 102.62 Z" id="s-7-f-2"/>
<path d="M 309.00 113.12 C 308.96 110.02 309.06 112.06 308.50 111.88 C 307.94 111.69 313.46 110.62 305.62 112.00 C 297.79 113.38 268.94 118.67 261.50 120.12 C 254.06 121.58 261.08 120.38 261.00 120.75 C 260.92 121.12 260.83 121.79 261.00 122.38 C 261.17 122.96 261.19 123.44 262.00 124.25 C 262.81 125.06 263.27 125.83 265.88 127.25 C 268.48 128.67 274.38 131.50 277.62 132.75 C 280.88 134.00 282.81 134.44 285.38 134.75 C 287.94 135.06 289.10 135.33 293.00 134.62 C 296.90 133.92 306.08 134.08 308.75 130.50 C 311.42 126.92 309.04 116.23 309.00 113.12 Z" id="s-7-f-3"/>
</g>
<g id="s-8" clip-path="url(#c-s-8)">
<use href="#s-8-f-0"/>
<path d="M 275.88 170.00 C 274.71 170.08 275.58 169.48 275.38 170.50 C 275.17 171.52 274.75 174.15 274.62 176.12 C 274.50 178.10 274.48 181.23 274.62 182.38 C 274.77 183.52 274.98 182.27 275.50 183.00 C 276.02 183.73 276.71 184.67 277.75 186.75 C 278.79 188.83 280.77 193.06 281.75 195.50 C 282.73 197.94 282.79 197.48 283.62 201.38 C 284.46 205.27 285.92 213.52 286.75 218.88 C 287.58 224.23 287.25 220.40 288.62 233.50 C 290.00 246.60 293.58 284.77 295.00 297.50 C 296.42 310.23 296.56 307.23 297.12 309.88 C 297.69 312.52 298.06 312.71 298.38 313.38 C 298.69 314.04 296.31 313.79 299.00 313.88 C 301.69 313.96 311.81 314.12 314.50 313.88 C 317.19 313.62 314.90 314.04 315.12 312.38 C 315.35 310.71 315.77 307.02 315.88 303.88 C 315.98 300.73 316.23 302.15 315.75 293.50 C 315.27 284.85 313.48 260.23 313.00 252.00 C 312.52 243.77 313.54 251.10 312.88 244.12 C 312.21 237.15 309.83 218.98 309.00 210.12 C 308.17 201.27 308.71 196.02 307.88 191.00 C 307.04 185.98 304.81 182.15 304.00 180.00 C 303.19 177.85 303.40 178.65 303.00 178.12 C 302.60 177.60 302.33 177.38 301.62 176.88 C 300.92 176.38 300.81 176.04 298.75 175.12 C 296.69 174.21 291.98 172.23 289.25 171.38 C 286.52 170.52 284.60 170.23 282.38 170.00 C 280.15 169.77 277.04 169.92 275.88 170.00 Z" id="s-8-f-1"/>
<path d="M 275.88 170.00 C 274.54 170.06 275.58 169.48 275.38 170.50 C 275.17 171.52 274.75 174.15 274.62 176.12 C 274.50 178.10 274.44 181.17 274.62 182.38 C 274.81 183.58 275.06 182.33 275.75 183.38 C 276.44 184.42 277.81 186.77 278.75 188.62 C 279.69 190.48 280.56 192.38 281.38 194.50 C 282.19 196.62 282.56 196.10 283.62 201.38 C 284.69 206.65 286.38 215.42 287.75 226.12 C 289.12 236.83 291.10 258.98 291.88 265.62 C 292.65 272.27 288.75 265.98 292.38 266.00 C 296.00 266.02 310.06 266.88 313.62 265.75 C 317.19 264.62 313.88 262.73 313.75 259.25 C 313.62 255.77 313.67 253.06 312.88 244.88 C 312.08 236.69 309.83 219.10 309.00 210.12 C 308.17 201.15 308.71 196.02 307.88 191.00 C 307.04 185.98 304.81 182.15 304.00 180.00 C 303.19 177.85 303.40 178.65 303.00 178.12 C 302.60 177.60 302.33 177.38 301.62 176.88 C 300.92 176.38 300.50 175.94 298.75 175.12 C 297.00 174.31 293.69 172.83 291.12 172.00 C 288.56 171.17 285.92 170.46 283.38 170.12 C 280.83 169.79 277.21 169.94 275.88 170.00 Z" id="s-8-f-2"/>
<path d="M 275.75 170.00 C 274.46 171.02 274.83 174.19 274.62 176.12 C 274.42 178.06 273.83 179.58 274.50 181.62 C 275.17 183.67 277.46 186.19 278.62 188.38 C 279.79 190.56 280.65 192.44 281.50 194.75 C 282.35 197.06 282.94 198.50 283.75 202.25 C 284.56 206.00 285.60 214.62 286.38 217.25 C 287.15 219.88 284.48 217.92 288.38 218.00 C 292.27 218.08 306.46 220.54 309.75 217.75 C 313.04 214.96 308.44 205.69 308.12 201.25 C 307.81 196.81 308.73 194.98 307.88 191.12 C 307.02 187.27 304.52 180.79 303.00 178.12 C 301.48 175.46 301.04 176.25 298.75 175.12 C 296.46 174.00 291.98 172.23 289.25 171.38 C 286.52 170.52 284.62 170.23 282.38 170.00 C 280.12 169.77 277.04 168.98 275.75 170.00 Z" id="s-8-f-3"/>
</g>
<g id="s-9" clip-path="url(#c-s-9)">
<use href="#s-9-f-0"/>
<path d="M 302.88 178.00 C 297.81 178.90 302.44 178.79 302.50 179.12 C 302.56 179.46 303.06 179.48 303.25 180.00 C 303.44 180.52 303.44 181.77 303.62 182.25 C 303.81 182.73 304.21 182.46 304.38 182.88 C 304.54 183.29 304.46 184.27 304.62 184.75 C 304.79 185.23 305.21 185.23 305.38 185.75 C 305.54 186.27 305.46 187.40 305.62 187.88 C 305.79 188.35 306.10 187.96 306.38 188.62 C 306.65 189.29 306.58 191.35 307.25 191.88 C 307.92 192.40 307.94 192.35 310.38 191.75 C 312.81 191.15 313.73 190.04 321.88 188.25 C 330.02 186.46 348.69 182.69 359.25 181.00 C 369.81 179.31 379.83 178.62 385.25 178.12 C 390.67 177.62 389.98 177.85 391.75 178.00 C 393.52 178.15 394.75 178.46 395.88 179.00 C 397.00 179.54 397.85 180.27 398.50 181.25 C 399.15 182.23 399.69 177.56 399.75 184.88 C 399.81 192.19 399.19 216.77 398.88 225.12 C 398.56 233.48 398.06 232.08 397.88 235.00 C 397.69 237.92 398.27 234.79 397.75 242.62 C 397.23 250.46 395.73 272.12 394.75 282.00 C 393.77 291.88 392.33 297.62 391.88 301.88 C 391.42 306.12 391.79 306.08 392.00 307.50 C 392.21 308.92 392.75 309.65 393.12 310.38 C 393.50 311.10 390.77 311.62 394.25 311.88 C 397.73 312.12 410.46 312.31 414.00 311.88 C 417.54 311.44 413.56 316.75 415.50 309.25 C 417.44 301.75 422.92 278.98 425.62 266.88 C 428.33 254.77 429.69 247.52 431.75 236.62 C 433.81 225.73 436.58 208.77 438.00 201.50 C 439.42 194.23 439.15 196.27 440.25 193.00 C 441.35 189.73 443.85 184.50 444.62 181.88 C 445.40 179.25 445.33 178.60 444.88 177.25 C 444.42 175.90 442.96 174.77 441.88 173.75 C 440.79 172.73 441.94 173.25 438.38 171.12 C 434.81 169.00 425.08 163.33 420.50 161.00 C 415.92 158.67 413.40 157.79 410.88 157.12 C 408.35 156.46 415.71 154.73 405.38 157.00 C 395.04 159.27 360.96 167.96 348.88 170.75 C 336.79 173.54 340.54 172.54 332.88 173.75 C 325.21 174.96 307.94 177.10 302.88 178.00 Z" id="s-9-f-1"/>
<path d="M 302.75 178.12 C 301.98 178.46 302.42 178.81 302.50 179.12 C 302.58 179.44 303.06 179.48 303.25 180.00 C 303.44 180.52 303.44 181.77 303.62 182.25 C 303.81 182.73 304.21 182.46 304.38 182.88 C 304.54 183.29 304.46 184.27 304.62 184.75 C 304.79 185.23 305.21 185.23 305.38 185.75 C 305.54 186.27 305.46 187.40 305.62 187.88 C 305.79 188.35 306.10 187.96 306.38 188.62 C 306.65 189.29 306.58 191.35 307.25 191.88 C 307.92 192.40 307.94 192.35 310.38 191.75 C 312.81 191.15 313.58 190.06 321.88 188.25 C 330.17 186.44 349.27 182.58 360.12 180.88 C 370.98 179.17 381.58 178.46 387.00 178.00 C 392.42 177.54 391.15 177.96 392.62 178.12 C 394.10 178.29 395.10 178.71 395.88 179.00 C 396.65 179.29 396.75 179.40 397.25 179.88 C 397.75 180.35 398.48 181.21 398.88 181.88 C 399.27 182.54 399.48 181.54 399.62 183.88 C 399.77 186.21 399.88 189.00 399.75 195.88 C 399.62 202.75 399.48 213.90 398.88 225.12 C 398.27 236.35 396.46 256.79 396.12 263.25 C 395.79 269.71 391.98 263.75 396.88 263.88 C 401.77 264.00 420.62 264.06 425.50 264.00 C 430.38 263.94 425.08 268.06 426.12 263.50 C 427.17 258.94 429.62 247.60 431.75 236.62 C 433.88 225.65 437.35 205.19 438.88 197.62 C 440.40 190.06 440.08 193.31 440.88 191.25 C 441.67 189.19 442.98 186.94 443.62 185.25 C 444.27 183.56 444.56 182.52 444.75 181.12 C 444.94 179.73 445.23 178.10 444.75 176.88 C 444.27 175.65 442.94 174.71 441.88 173.75 C 440.81 172.79 441.27 172.92 438.38 171.12 C 435.48 169.33 428.15 165.00 424.50 163.00 C 420.85 161.00 418.77 160.10 416.50 159.12 C 414.23 158.15 412.73 157.48 410.88 157.12 C 409.02 156.77 415.71 154.73 405.38 157.00 C 395.04 159.27 360.96 167.96 348.88 170.75 C 336.79 173.54 337.83 172.90 332.88 173.75 C 327.92 174.60 323.42 175.31 319.12 175.88 C 314.83 176.44 309.85 176.75 307.12 177.12 C 304.40 177.50 303.52 177.79 302.75 178.12 Z" id="s-9-f-2"/>
<path d="M 444.88 177.25 C 444.40 176.02 442.96 174.77 441.88 173.75 C 440.79 172.73 441.27 172.92 438.38 171.12 C 435.48 169.33 428.21 165.02 424.50 163.00 C 420.79 160.98 418.40 159.98 416.12 159.00 C 413.85 158.02 412.67 157.46 410.88 157.12 C 409.08 156.79 415.71 154.73 405.38 157.00 C 395.04 159.27 363.10 167.62 348.88 170.75 C 334.65 173.88 327.23 174.65 320.00 175.75 C 312.77 176.85 308.35 177.00 305.50 177.38 C 302.65 177.75 303.38 177.71 302.88 178.00 C 302.38 178.29 302.44 178.79 302.50 179.12 C 302.56 179.46 303.06 179.48 303.25 180.00 C 303.44 180.52 303.44 181.77 303.62 182.25 C 303.81 182.73 304.21 182.46 304.38 182.88 C 304.54 183.29 304.46 184.27 304.62 184.75 C 304.79 185.23 305.21 185.23 305.38 185.75 C 305.54 186.27 305.46 187.40 305.62 187.88 C 305.79 188.35 306.10 187.96 306.38 188.62 C 306.65 189.29 306.85 191.33 307.25 191.88 C 307.65 192.42 307.65 192.06 308.75 191.88 C 309.85 191.69 312.25 191.23 313.88 190.75 C 315.50 190.27 310.94 190.62 318.50 189.00 C 326.06 187.38 348.27 182.81 359.25 181.00 C 370.23 179.19 378.94 178.62 384.38 178.12 C 389.81 177.62 390.23 177.94 391.88 178.00 C 393.52 178.06 393.35 178.19 394.25 178.50 C 395.15 178.81 396.48 179.31 397.25 179.88 C 398.02 180.44 398.48 181.21 398.88 181.88 C 399.27 182.54 399.50 180.48 399.62 183.88 C 399.75 187.27 399.73 197.21 399.62 202.25 C 399.52 207.29 399.04 211.90 399.00 214.12 C 398.96 216.35 398.90 215.31 399.38 215.62 C 399.85 215.94 395.94 215.96 401.88 216.00 C 407.81 216.04 429.35 216.00 435.00 215.88 C 440.65 215.75 435.10 218.29 435.75 215.25 C 436.40 212.21 438.12 201.35 438.88 197.62 C 439.62 193.90 439.44 195.00 440.25 192.88 C 441.06 190.75 443.00 186.83 443.75 184.88 C 444.50 182.92 444.56 182.40 444.75 181.12 C 444.94 179.85 445.35 178.48 444.88 177.25 Z" id="s-9-f-3"/>
<path d="M 432.12 167.38 C 430.90 166.50 427.17 164.40 424.50 163.00 C 421.83 161.60 418.40 159.98 416.12 159.00 C 413.85 158.02 412.67 157.46 410.88 157.12 C 409.08 156.79 415.71 154.73 405.38 157.00 C 395.04 159.27 363.10 167.62 348.88 170.75 C 334.65 173.88 327.25 174.65 320.00 175.75 C 312.75 176.85 308.23 177.00 305.38 177.38 C 302.52 177.75 303.35 177.71 302.88 178.00 C 302.40 178.29 302.44 178.79 302.50 179.12 C 302.56 179.46 303.06 179.48 303.25 180.00 C 303.44 180.52 303.44 181.77 303.62 182.25 C 303.81 182.73 304.21 182.46 304.38 182.88 C 304.54 183.29 304.46 184.27 304.62 184.75 C 304.79 185.23 305.21 185.23 305.38 185.75 C 305.54 186.27 305.46 187.40 305.62 187.88 C 305.79 188.35 306.10 187.96 306.38 188.62 C 306.65 189.29 306.85 191.33 307.25 191.88 C 307.65 192.42 306.31 192.48 308.75 191.88 C 311.19 191.27 313.46 190.06 321.88 188.25 C 330.29 186.44 347.65 182.75 359.25 181.00 C 370.85 179.25 379.58 179.79 391.50 177.75 C 403.42 175.71 424.02 170.33 430.75 168.75 C 437.48 167.17 431.65 168.48 431.88 168.25 C 432.10 168.02 433.35 168.25 432.12 167.38 Z" id="s-9-f-4"/>
<path d="M 398.50 158.88 C 398.10 156.10 402.50 157.52 396.50 159.00 C 390.50 160.48 370.44 165.79 362.50 167.75 C 354.56 169.71 355.96 169.42 348.88 170.75 C 341.79 172.08 327.25 174.65 320.00 175.75 C 312.75 176.85 308.23 177.00 305.38 177.38 C 302.52 177.75 303.35 177.71 302.88 178.00 C 302.40 178.29 302.44 178.79 302.50 179.12 C 302.56 179.46 303.06 179.48 303.25 180.00 C 303.44 180.52 303.44 181.77 303.62 182.25 C 303.81 182.73 304.21 182.46 304.38 182.88 C 304.54 183.29 304.46 184.27 304.62 184.75 C 304.79 185.23 305.21 185.23 305.38 185.75 C 305.54 186.27 305.46 187.40 305.62 187.88 C 305.79 188.35 306.10 187.96 306.38 188.62 C 306.65 189.29 306.85 191.33 307.25 191.88 C 307.65 192.42 306.31 192.48 308.75 191.88 C 311.19 191.27 313.46 190.06 321.88 188.25 C 330.29 186.44 350.23 182.54 359.25 181.00 C 368.27 179.46 370.81 179.52 376.00 179.00 C 381.19 178.48 387.48 178.21 390.38 177.88 C 393.27 177.54 392.44 177.17 393.38 177.00 C 394.31 176.83 395.08 177.10 396.00 176.88 C 396.92 176.65 398.46 178.62 398.88 175.62 C 399.29 172.62 398.90 161.65 398.50 158.88 Z" id="s-9-f-5"/>
<path d="M 350.88 170.62 C 350.73 168.56 351.08 170.06 349.88 170.25 C 348.67 170.44 348.58 170.83 343.62 171.75 C 338.67 172.67 326.50 174.81 320.12 175.75 C 313.75 176.69 308.25 177.00 305.38 177.38 C 302.50 177.75 303.35 177.71 302.88 178.00 C 302.40 178.29 302.44 178.79 302.50 179.12 C 302.56 179.46 303.06 179.48 303.25 180.00 C 303.44 180.52 303.44 181.77 303.62 182.25 C 303.81 182.73 304.21 182.46 304.38 182.88 C 304.54 183.29 304.46 184.27 304.62 184.75 C 304.79 185.23 305.21 185.23 305.38 185.75 C 305.54 186.27 305.46 187.40 305.62 187.88 C 305.79 188.35 306.10 187.96 306.38 188.62 C 306.65 189.29 306.62 191.35 307.25 191.88 C 307.88 192.40 308.25 192.23 310.12 191.75 C 312.00 191.27 311.73 190.52 318.50 189.00 C 325.27 187.48 345.35 185.69 350.75 182.62 C 356.15 179.56 351.02 172.69 350.88 170.62 Z" id="s-9-f-6"/>
</g>
<g id="s-10" clip-path="url(#c-s-10)">
<use href="#s-10-f-0"/>
<path d="M 360.00 228.38 C 359.71 225.62 362.79 227.10 358.25 228.00 C 353.71 228.90 339.56 232.31 332.75 233.75 C 325.94 235.19 320.92 236.04 317.38 236.62 C 313.83 237.21 312.44 235.94 311.50 237.25 C 310.56 238.56 311.58 242.65 311.75 244.50 C 311.92 246.35 312.31 247.65 312.50 248.38 C 312.69 249.10 311.96 248.65 312.88 248.88 C 313.79 249.10 314.54 249.62 318.00 249.75 C 321.46 249.88 326.71 250.27 333.62 249.62 C 340.54 248.98 355.10 246.73 359.50 245.88 C 363.90 245.02 359.92 247.42 360.00 244.50 C 360.08 241.58 360.29 231.12 360.00 228.38 Z" id="s-10-f-1"/>
</g>
<g id="s-11" clip-path="url(#c-s-11)">
<use href="#s-11-f-0"/>
<path d="M 363.00 289.25 C 362.79 285.94 363.38 288.56 361.62 289.00 C 359.88 289.44 356.00 290.92 352.50 291.88 C 349.00 292.83 346.75 293.60 340.62 294.75 C 334.50 295.90 320.08 297.04 315.75 298.75 C 311.42 300.46 314.83 302.71 314.62 305.00 C 314.42 307.29 314.19 311.04 314.50 312.50 C 314.81 313.96 315.52 313.38 316.50 313.75 C 317.48 314.12 318.17 314.58 320.38 314.75 C 322.58 314.92 322.77 315.60 329.75 314.75 C 336.73 313.90 356.73 310.60 362.25 309.62 C 367.77 308.65 362.75 312.27 362.88 308.88 C 363.00 305.48 363.21 292.56 363.00 289.25 Z" id="s-11-f-1"/>
</g>
<g id="s-12" clip-path="url(#c-s-12)">
<use href="#s-12-f-0"/>
<path d="M 440.88 352.75 C 440.75 348.40 441.48 352.44 440.25 352.00 C 439.02 351.56 435.31 350.46 433.50 350.12 C 431.69 349.79 433.29 349.23 429.38 350.00 C 425.46 350.77 416.92 353.29 410.00 354.75 C 403.08 356.21 394.27 357.73 387.88 358.75 C 381.48 359.77 379.75 360.00 371.62 360.88 C 363.50 361.75 349.35 362.79 339.12 364.00 C 328.90 365.21 317.23 367.00 310.25 368.12 C 303.27 369.25 300.90 370.15 297.25 370.75 C 293.60 371.35 295.06 371.38 288.38 371.75 C 281.69 372.12 263.33 372.48 257.12 373.00 C 250.92 373.52 252.44 374.23 251.12 374.88 C 249.81 375.52 249.62 376.10 249.25 376.88 C 248.88 377.65 248.75 378.75 248.88 379.50 C 249.00 380.25 249.27 380.62 250.00 381.38 C 250.73 382.12 251.31 382.79 253.25 384.00 C 255.19 385.21 258.23 387.02 261.62 388.62 C 265.02 390.23 269.77 392.27 273.62 393.62 C 277.48 394.98 281.90 396.25 284.75 396.75 C 287.60 397.25 286.96 397.58 290.75 396.62 C 294.54 395.67 302.08 392.60 307.50 391.00 C 312.92 389.40 317.79 388.17 323.25 387.00 C 328.71 385.83 330.94 385.17 340.25 384.00 C 349.56 382.83 369.46 380.83 379.12 380.00 C 388.79 379.17 391.83 379.17 398.25 379.00 C 404.67 378.83 410.67 378.79 417.62 379.00 C 424.58 379.21 436.15 380.12 440.00 380.25 C 443.85 380.38 440.58 380.10 440.75 379.75 C 440.92 379.40 440.98 382.62 441.00 378.12 C 441.02 373.62 441.00 357.10 440.88 352.75 Z" id="s-12-f-1"/>
<path d="M 393.00 358.38 C 392.69 355.15 394.50 357.60 391.12 358.00 C 387.75 358.40 381.42 359.75 372.75 360.75 C 364.08 361.75 349.54 362.77 339.12 364.00 C 328.71 365.23 317.23 367.00 310.25 368.12 C 303.27 369.25 300.90 370.15 297.25 370.75 C 293.60 371.35 295.21 371.35 288.38 371.75 C 281.54 372.15 262.46 372.60 256.25 373.12 C 250.04 373.65 252.29 374.25 251.12 374.88 C 249.96 375.50 249.62 376.10 249.25 376.88 C 248.88 377.65 248.71 378.71 248.88 379.50 C 249.04 380.29 249.33 380.75 250.25 381.62 C 251.17 382.50 252.48 383.58 254.38 384.75 C 256.27 385.92 258.92 387.33 261.62 388.62 C 264.33 389.92 266.94 391.17 270.62 392.50 C 274.31 393.83 280.52 395.92 283.75 396.62 C 286.98 397.33 285.60 397.81 290.00 396.75 C 294.40 395.69 304.58 391.88 310.12 390.25 C 315.67 388.62 319.29 387.88 323.25 387.00 C 327.21 386.12 326.52 386.00 333.88 385.00 C 341.23 384.00 357.60 381.98 367.38 381.00 C 377.15 380.02 388.23 379.73 392.50 379.12 C 396.77 378.52 392.92 380.83 393.00 377.38 C 393.08 373.92 393.31 361.60 393.00 358.38 Z" id="s-12-f-2"/>
<path d="M 344.88 364.12 C 344.79 361.10 347.94 363.31 344.50 363.62 C 341.06 363.94 330.90 365.08 324.25 366.00 C 317.60 366.92 308.12 368.50 304.62 369.12 C 301.12 369.75 305.92 369.31 303.25 369.75 C 300.58 370.19 296.33 371.21 288.62 371.75 C 280.92 372.29 263.25 372.48 257.00 373.00 C 250.75 373.52 252.44 374.19 251.12 374.88 C 249.81 375.56 249.50 376.35 249.12 377.12 C 248.75 377.90 248.62 378.71 248.88 379.50 C 249.12 380.29 249.71 381.00 250.62 381.88 C 251.54 382.75 252.54 383.62 254.38 384.75 C 256.21 385.88 258.92 387.33 261.62 388.62 C 264.33 389.92 266.94 391.17 270.62 392.50 C 274.31 393.83 280.52 395.92 283.75 396.62 C 286.98 397.33 287.17 397.35 290.00 396.75 C 292.83 396.15 296.02 394.44 300.75 393.00 C 305.48 391.56 312.85 389.46 318.38 388.12 C 323.90 386.79 329.52 385.75 333.88 385.00 C 338.23 384.25 342.65 384.17 344.50 383.62 C 346.35 383.08 344.94 385.00 345.00 381.75 C 345.06 378.50 344.96 367.15 344.88 364.12 Z" id="s-12-f-3"/>
<path d="M 296.88 394.00 C 297.00 391.19 296.96 381.50 296.88 377.88 C 296.79 374.25 296.56 373.40 296.38 372.25 C 296.19 371.10 299.54 370.94 295.75 371.00 C 291.96 371.06 280.10 372.29 273.62 372.62 C 267.15 372.96 260.62 372.62 256.88 373.00 C 253.12 373.38 252.42 374.19 251.12 374.88 C 249.83 375.56 249.46 376.23 249.12 377.12 C 248.79 378.02 248.44 379.10 249.12 380.25 C 249.81 381.40 251.12 382.58 253.25 384.00 C 255.38 385.42 258.44 387.12 261.88 388.75 C 265.31 390.38 270.92 392.60 273.88 393.75 C 276.83 394.90 277.75 395.12 279.62 395.62 C 281.50 396.12 283.27 396.58 285.12 396.75 C 286.98 396.92 288.92 396.96 290.75 396.62 C 292.58 396.29 295.10 395.19 296.12 394.75 C 297.15 394.31 296.75 396.81 296.88 394.00 Z" id="s-12-f-4"/>
</g>
</svg>