<?xml version="1.0" encoding="UTF-8"?>
<svg xmlns="http://www.w3.org/2000/svg" viewBox="0 0 500 500">
<defs>
<path d="M 138.75 80.00 C 136.21 78.52 135.35 78.33 133.88 78.00 C 132.40 77.67 130.85 77.85 129.88 78.00 C 128.90 78.15 128.62 78.42 128.00 78.88 C 127.38 79.33 126.62 80.10 126.12 80.75 C 125.62 81.40 125.35 81.83 125.00 82.75 C 124.65 83.67 124.38 84.27 124.00 86.25 C 123.62 88.23 123.29 91.94 122.75 94.62 C 122.21 97.31 121.75 99.17 120.75 102.38 C 119.75 105.58 118.75 109.00 116.75 113.88 C 114.75 118.75 111.77 125.60 108.75 131.62 C 105.73 137.65 102.10 144.23 98.62 150.00 C 95.15 155.77 91.71 160.88 87.88 166.25 C 84.04 171.62 79.25 177.96 75.62 182.25 C 72.00 186.54 68.71 189.58 66.12 192.00 C 63.54 194.42 62.25 195.27 60.12 196.75 C 58.00 198.23 55.12 199.60 53.38 200.88 C 51.62 202.15 50.50 203.40 49.62 204.38 C 48.75 205.35 48.40 205.48 48.12 206.75 C 47.85 208.02 47.67 210.17 48.00 212.00 C 48.33 213.83 48.62 214.85 50.12 217.75 C 51.62 220.65 55.52 227.06 57.00 229.38 C 58.48 231.69 58.19 230.92 59.00 231.62 C 59.81 232.33 60.58 233.29 61.88 233.62 C 63.17 233.96 65.21 233.94 66.75 233.62 C 68.29 233.31 69.67 232.50 71.12 231.75 C 72.58 231.00 73.54 230.06 75.50 229.12 C 77.46 228.19 80.12 227.04 82.88 226.12 C 85.62 225.21 88.46 224.79 92.00 223.62 C 95.54 222.46 99.65 220.58 104.12 219.12 C 108.60 217.67 114.46 217.79 118.88 214.88 C 123.29 211.96 128.83 203.96 130.62 201.62 C 132.42 199.29 131.19 200.94 129.62 200.88 C 128.06 200.81 126.10 200.77 121.25 201.25 C 116.40 201.73 106.04 203.17 100.50 203.75 C 94.96 204.33 90.38 204.73 88.00 204.75 C 85.62 204.77 86.71 204.23 86.25 203.88 C 85.79 203.52 85.46 203.19 85.25 202.62 C 85.04 202.06 84.67 201.52 85.00 200.50 C 85.33 199.48 82.90 202.33 87.25 196.50 C 91.60 190.67 102.48 176.52 111.12 165.50 C 119.77 154.48 131.79 139.27 139.12 130.38 C 146.46 121.48 152.04 115.71 155.12 112.12 C 158.21 108.54 156.88 110.04 157.62 108.88 C 158.38 107.71 159.25 106.35 159.62 105.12 C 160.00 103.90 159.90 102.42 159.88 101.50 C 159.85 100.58 159.81 100.46 159.50 99.62 C 159.19 98.79 158.62 97.52 158.00 96.50 C 157.38 95.48 157.23 95.10 155.75 93.50 C 154.27 91.90 151.96 89.12 149.12 86.88 C 146.29 84.62 141.29 81.48 138.75 80.00 Z" id="s-0-f-0"/>
<clipPath id="c-s-0"><use href="#s-0-f-0"/></clipPath>
<path d="M 170.00 141.12 C 168.50 139.94 168.79 140.19 167.75 140.00 C 166.71 139.81 164.77 139.81 163.75 140.00 C 162.73 140.19 162.23 140.69 161.62 141.12 C 161.02 141.56 160.71 141.73 160.12 142.62 C 159.54 143.52 159.17 143.52 158.12 146.50 C 157.08 149.48 155.44 156.12 153.88 160.50 C 152.31 164.88 151.08 168.12 148.75 172.75 C 146.42 177.38 142.54 184.00 139.88 188.25 C 137.21 192.50 136.12 194.10 132.75 198.25 C 129.38 202.40 122.12 210.12 119.62 213.12 C 117.12 216.12 121.08 211.77 117.75 216.25 C 114.42 220.73 106.65 231.12 99.62 240.00 C 92.60 248.88 80.38 263.83 75.62 269.50 C 70.88 275.17 73.17 272.29 71.12 274.00 C 69.08 275.71 65.50 278.42 63.38 279.75 C 61.25 281.08 59.81 281.04 58.38 282.00 C 56.94 282.96 55.48 284.65 54.75 285.50 C 54.02 286.35 54.12 286.21 54.00 287.12 C 53.88 288.04 53.52 289.33 54.00 291.00 C 54.48 292.67 56.00 295.52 56.88 297.12 C 57.75 298.73 57.94 299.00 59.25 300.62 C 60.56 302.25 62.96 305.21 64.75 306.88 C 66.54 308.54 68.58 309.81 70.00 310.62 C 71.42 311.44 72.06 311.56 73.25 311.75 C 74.44 311.94 74.56 313.21 77.12 311.75 C 79.69 310.29 84.40 305.79 88.62 303.00 C 92.85 300.21 96.69 298.02 102.50 295.00 C 108.31 291.98 115.21 288.58 123.50 284.88 C 131.79 281.17 147.19 274.98 152.25 272.75 C 157.31 270.52 154.29 273.27 153.88 271.50 C 153.46 269.73 150.58 263.88 149.75 262.12 C 148.92 260.38 149.15 261.21 148.88 261.00 C 148.60 260.79 149.60 260.54 148.12 260.88 C 146.65 261.21 148.50 259.69 140.00 263.00 C 131.50 266.31 104.67 277.81 97.12 280.75 C 89.58 283.69 95.35 280.75 94.75 280.62 C 94.15 280.50 93.77 280.25 93.50 280.00 C 93.23 279.75 92.27 280.52 93.12 279.12 C 93.98 277.73 95.85 275.04 98.62 271.62 C 101.40 268.21 99.75 269.96 109.75 258.62 C 119.75 247.29 146.98 216.52 158.62 203.62 C 170.27 190.73 175.27 186.12 179.62 181.25 C 183.98 176.38 183.56 176.40 184.75 174.38 C 185.94 172.35 186.40 170.25 186.75 169.12 C 187.10 168.00 186.88 168.40 186.88 167.62 C 186.88 166.85 187.10 166.00 186.75 164.50 C 186.40 163.00 185.58 160.46 184.75 158.62 C 183.92 156.79 183.08 155.42 181.75 153.50 C 180.42 151.58 178.71 149.19 176.75 147.12 C 174.79 145.06 171.50 142.31 170.00 141.12 Z" id="s-1-f-0"/>
<clipPath id="c-s-1"><use href="#s-1-f-0"/></clipPath>
<path d="M 140.75 238.00 C 139.79 238.10 140.15 238.27 140.00 238.75 C 139.85 239.23 139.71 239.73 139.88 240.88 C 140.04 242.02 140.00 243.38 141.00 245.62 C 142.00 247.88 144.65 252.00 145.88 254.38 C 147.10 256.75 147.92 258.60 148.38 259.88 C 148.83 261.15 148.46 261.52 148.62 262.00 C 148.79 262.48 148.69 261.25 149.38 262.75 C 150.06 264.25 152.06 269.54 152.75 271.00 C 153.44 272.46 152.12 269.50 153.50 271.50 C 154.88 273.50 159.06 280.38 161.00 283.00 C 162.94 285.62 164.02 286.31 165.12 287.25 C 166.23 288.19 166.40 288.38 167.62 288.62 C 168.85 288.88 171.31 288.90 172.50 288.75 C 173.69 288.60 174.02 288.27 174.75 287.75 C 175.48 287.23 176.25 286.56 176.88 285.62 C 177.50 284.69 178.17 284.00 178.50 282.12 C 178.83 280.25 178.85 276.44 178.88 274.38 C 178.90 272.31 178.83 271.44 178.62 269.75 C 178.42 268.06 178.12 266.10 177.62 264.25 C 177.12 262.40 176.29 260.19 175.62 258.62 C 174.96 257.06 174.83 256.33 173.62 254.88 C 172.42 253.42 171.10 251.83 168.38 249.88 C 165.65 247.92 161.02 245.08 157.25 243.12 C 153.48 241.17 148.50 238.98 145.75 238.12 C 143.00 237.27 141.71 237.90 140.75 238.00 Z" id="s-2-f-0"/>
<clipPath id="c-s-2"><use href="#s-2-f-0"/></clipPath>
<path d="M 48.62 334.00 C 47.69 334.33 47.27 334.92 47.00 336.00 C 46.73 337.08 46.83 339.04 47.00 340.50 C 47.17 341.96 46.15 339.73 48.00 344.75 C 49.85 349.77 55.15 363.52 58.12 370.62 C 61.10 377.73 63.90 383.42 65.88 387.38 C 67.85 391.33 68.58 392.46 70.00 394.38 C 71.42 396.29 73.33 397.98 74.38 398.88 C 75.42 399.77 75.00 399.62 76.25 399.75 C 77.50 399.88 80.50 399.81 81.88 399.62 C 83.25 399.44 83.67 399.06 84.50 398.62 C 85.33 398.19 86.19 397.60 86.88 397.00 C 87.56 396.40 88.02 396.12 88.62 395.00 C 89.23 393.88 90.12 391.54 90.50 390.25 C 90.88 388.96 90.83 389.44 90.88 387.25 C 90.92 385.06 90.94 380.00 90.75 377.12 C 90.56 374.25 90.25 372.44 89.75 370.00 C 89.25 367.56 88.44 364.58 87.75 362.50 C 87.06 360.42 86.27 358.81 85.62 357.50 C 84.98 356.19 84.94 355.98 83.88 354.62 C 82.81 353.27 80.79 350.94 79.25 349.38 C 77.71 347.81 76.21 346.48 74.62 345.25 C 73.04 344.02 72.81 343.71 69.75 342.00 C 66.69 340.29 59.10 336.33 56.25 335.00 C 53.40 333.67 53.90 334.17 52.62 334.00 C 51.35 333.83 49.56 333.67 48.62 334.00 Z" id="s-3-f-0"/>
<clipPath id="c-s-3"><use href="#s-3-f-0"/></clipPath>
<path d="M 99.75 322.00 C 98.90 322.21 98.98 322.60 98.88 323.25 C 98.77 323.90 98.81 324.98 99.12 325.88 C 99.44 326.77 99.08 324.92 100.75 328.62 C 102.42 332.33 106.42 342.33 109.12 348.12 C 111.83 353.92 114.75 359.50 117.00 363.38 C 119.25 367.25 121.15 369.54 122.62 371.38 C 124.10 373.21 124.58 373.81 125.88 374.38 C 127.17 374.94 129.21 374.85 130.38 374.75 C 131.54 374.65 131.98 374.35 132.88 373.75 C 133.77 373.15 135.02 372.19 135.75 371.12 C 136.48 370.06 136.90 368.62 137.25 367.38 C 137.60 366.12 137.79 365.81 137.88 363.62 C 137.96 361.44 137.94 356.81 137.75 354.25 C 137.56 351.69 137.42 350.56 136.75 348.25 C 136.08 345.94 134.58 342.12 133.75 340.38 C 132.92 338.62 132.77 338.81 131.75 337.75 C 130.73 336.69 129.62 335.46 127.62 334.00 C 125.62 332.54 123.06 330.81 119.75 329.00 C 116.44 327.19 110.38 324.29 107.75 323.12 C 105.12 321.96 105.33 322.19 104.00 322.00 C 102.67 321.81 100.60 321.79 99.75 322.00 Z" id="s-4-f-0"/>
<clipPath id="c-s-4"><use href="#s-4-f-0"/></clipPath>
<path d="M 140.75 303.00 C 139.67 303.10 140.15 303.33 140.00 303.75 C 139.85 304.17 139.69 304.48 139.88 305.50 C 140.06 306.52 139.08 305.44 141.12 309.88 C 143.17 314.31 148.98 326.27 152.12 332.12 C 155.27 337.98 158.04 342.06 160.00 345.00 C 161.96 347.94 162.81 348.77 163.88 349.75 C 164.94 350.73 165.42 350.71 166.38 350.88 C 167.33 351.04 168.54 351.02 169.62 350.75 C 170.71 350.48 172.00 349.85 172.88 349.25 C 173.75 348.65 174.27 348.10 174.88 347.12 C 175.48 346.15 176.19 345.90 176.50 343.38 C 176.81 340.85 177.04 335.27 176.75 332.00 C 176.46 328.73 175.62 326.15 174.75 323.75 C 173.88 321.35 173.10 319.58 171.50 317.62 C 169.90 315.67 168.23 314.08 165.12 312.00 C 162.02 309.92 155.98 306.60 152.88 305.12 C 149.77 303.65 148.52 303.48 146.50 303.12 C 144.48 302.77 141.83 302.90 140.75 303.00 Z" id="s-5-f-0"/>
<clipPath id="c-s-5"><use href="#s-5-f-0"/></clipPath>
<path d="M 202.50 105.00 C 200.44 105.12 201.02 105.69 200.50 106.12 C 199.98 106.56 199.62 106.65 199.38 107.62 C 199.12 108.60 198.38 110.54 199.00 112.00 C 199.62 113.46 201.73 114.69 203.12 116.38 C 204.52 118.06 206.08 120.06 207.38 122.12 C 208.67 124.19 209.88 126.50 210.88 128.75 C 211.88 131.00 212.65 132.85 213.38 135.62 C 214.10 138.40 214.69 142.90 215.25 145.38 C 215.81 147.85 215.83 145.71 216.75 150.50 C 217.67 155.29 219.02 160.69 220.75 174.12 C 222.48 187.56 225.75 219.75 227.12 231.12 C 228.50 242.50 228.35 239.58 229.00 242.38 C 229.65 245.17 229.88 245.60 231.00 247.88 C 232.12 250.15 234.23 254.04 235.75 256.00 C 237.27 257.96 238.92 259.00 240.12 259.62 C 241.33 260.25 242.10 260.15 243.00 259.75 C 243.90 259.35 244.56 258.79 245.50 257.25 C 246.44 255.71 247.90 252.46 248.62 250.50 C 249.35 248.54 249.65 246.96 249.88 245.50 C 250.10 244.04 250.81 252.52 250.00 241.75 C 249.19 230.98 246.19 192.79 245.00 180.88 C 243.81 168.96 243.42 174.19 242.88 170.25 C 242.33 166.31 242.50 163.40 241.75 157.25 C 241.00 151.10 239.02 138.88 238.38 133.38 C 237.73 127.88 239.29 127.83 237.88 124.25 C 236.46 120.67 231.81 114.42 229.88 111.88 C 227.94 109.33 229.08 110.08 226.25 109.00 C 223.42 107.92 216.83 106.04 212.88 105.38 C 208.92 104.71 204.56 104.88 202.50 105.00 Z" id="s-6-f-0"/>
<clipPath id="c-s-6"><use href="#s-6-f-0"/></clipPath>
<path d="M 228.50 111.50 C 227.85 111.71 228.98 111.67 229.00 111.75 C 229.02 111.83 228.23 111.40 228.62 112.00 C 229.02 112.60 230.00 113.33 231.38 115.38 C 232.75 117.42 235.81 122.67 236.88 124.25 C 237.94 125.83 233.58 125.00 237.75 124.88 C 241.92 124.75 253.83 124.15 261.88 123.50 C 269.92 122.85 276.71 122.42 286.00 121.00 C 295.29 119.58 306.48 116.83 317.62 115.00 C 328.77 113.17 344.77 111.00 352.88 110.00 C 360.98 109.00 363.62 109.02 366.25 109.00 C 368.88 108.98 367.75 109.17 368.62 109.88 C 369.50 110.58 370.81 111.88 371.50 113.25 C 372.19 114.62 372.54 116.08 372.75 118.12 C 372.96 120.17 372.92 121.62 372.75 125.50 C 372.58 129.38 372.56 134.48 371.75 141.38 C 370.94 148.27 368.54 161.33 367.88 166.88 C 367.21 172.42 368.77 168.23 367.75 174.62 C 366.73 181.02 363.29 197.85 361.75 205.25 C 360.21 212.65 359.48 215.35 358.50 219.00 C 357.52 222.65 356.67 223.69 355.88 227.12 C 355.08 230.56 353.54 236.08 353.75 239.62 C 353.96 243.17 356.00 246.25 357.12 248.38 C 358.25 250.50 359.56 251.50 360.50 252.38 C 361.44 253.25 361.31 253.44 362.75 253.62 C 364.19 253.81 367.33 253.83 369.12 253.50 C 370.92 253.17 372.29 252.35 373.50 251.62 C 374.71 250.90 375.33 250.31 376.38 249.12 C 377.42 247.94 378.85 246.19 379.75 244.50 C 380.65 242.81 377.04 256.67 381.75 239.00 C 386.46 221.33 402.79 157.27 408.00 138.50 C 413.21 119.73 411.35 129.56 413.00 126.38 C 414.65 123.19 416.75 121.23 417.88 119.38 C 419.00 117.52 419.44 116.58 419.75 115.25 C 420.06 113.92 420.27 112.73 419.75 111.38 C 419.23 110.02 418.29 108.69 416.62 107.12 C 414.96 105.56 412.85 103.85 409.75 102.00 C 406.65 100.15 402.40 98.00 398.00 96.00 C 393.60 94.00 386.83 91.31 383.38 90.00 C 379.92 88.69 378.98 88.48 377.25 88.12 C 375.52 87.77 376.06 87.56 373.00 87.88 C 369.94 88.19 367.98 88.02 358.88 90.00 C 349.77 91.98 329.73 97.29 318.38 99.75 C 307.02 102.21 300.46 103.27 290.75 104.75 C 281.04 106.23 269.77 107.67 260.12 108.62 C 250.48 109.58 238.15 110.02 232.88 110.50 C 227.60 110.98 229.15 111.29 228.50 111.50 Z" id="s-7-f-0"/>
<clipPath id="c-s-7"><use href="#s-7-f-0"/></clipPath>
<path d="M 369.25 162.38 C 368.94 161.56 369.27 161.83 367.25 161.12 C 365.23 160.42 360.65 158.96 357.12 158.12 C 353.60 157.29 348.96 156.50 346.12 156.12 C 343.29 155.75 344.10 155.38 340.12 155.88 C 336.15 156.38 326.06 158.31 322.25 159.12 C 318.44 159.94 321.85 159.96 317.25 160.75 C 312.65 161.54 299.08 163.19 294.62 163.88 C 290.17 164.56 294.50 164.23 290.50 164.88 C 286.50 165.52 278.31 166.81 270.62 167.75 C 262.94 168.69 249.04 169.94 244.38 170.50 C 239.71 171.06 242.92 170.56 242.62 171.12 C 242.33 171.69 242.29 171.98 242.62 173.88 C 242.96 175.77 243.71 180.85 244.62 182.50 C 245.54 184.15 246.56 183.38 248.12 183.75 C 249.69 184.12 251.19 184.56 254.00 184.75 C 256.81 184.94 260.15 185.06 265.00 184.88 C 269.85 184.69 278.92 183.98 283.12 183.62 C 287.33 183.27 288.83 183.02 290.25 182.75 C 291.67 182.48 287.98 182.50 291.62 182.00 C 295.27 181.50 308.02 180.27 312.12 179.75 C 316.23 179.23 313.23 179.23 316.25 178.88 C 319.27 178.52 325.58 178.25 330.25 177.62 C 334.92 177.00 339.65 175.77 344.25 175.12 C 348.85 174.48 353.92 174.60 357.88 173.75 C 361.83 172.90 366.12 171.29 368.00 170.00 C 369.88 168.71 368.92 167.27 369.12 166.00 C 369.33 164.73 369.56 163.19 369.25 162.38 Z" id="s-8-f-0"/>
<clipPath id="c-s-8"><use href="#s-8-f-0"/></clipPath>
<path d="M 315.25 114.62 C 312.98 114.88 305.06 116.15 302.62 116.62 C 300.19 117.10 301.56 117.33 300.62 117.50 C 299.69 117.67 297.77 117.48 297.00 117.62 C 296.23 117.77 296.85 118.21 296.00 118.38 C 295.15 118.54 292.79 118.46 291.88 118.62 C 290.96 118.79 291.42 119.21 290.50 119.38 C 289.58 119.54 287.31 119.40 286.38 119.62 C 285.44 119.85 285.12 120.44 284.88 120.75 C 284.62 121.06 284.56 120.96 284.88 121.50 C 285.19 122.04 286.10 122.77 286.75 124.00 C 287.40 125.23 288.06 126.69 288.75 128.88 C 289.44 131.06 290.56 129.27 290.88 137.12 C 291.19 144.98 290.48 168.08 290.62 176.00 C 290.77 183.92 291.52 176.19 291.75 184.62 C 291.98 193.06 291.88 219.56 292.00 226.62 C 292.12 233.69 289.23 227.25 292.50 227.00 C 295.77 226.75 308.21 225.67 311.62 225.12 C 315.04 224.58 312.29 231.40 313.00 223.75 C 313.71 216.10 315.31 186.81 315.88 179.25 C 316.44 171.69 316.19 179.29 316.38 178.38 C 316.56 177.46 316.90 176.98 317.00 173.75 C 317.10 170.52 316.81 164.58 317.00 159.00 C 317.19 153.42 317.65 145.54 318.12 140.25 C 318.60 134.96 319.60 130.12 319.88 127.25 C 320.15 124.38 319.92 123.98 319.75 123.00 C 319.58 122.02 319.58 122.23 318.88 121.38 C 318.17 120.52 316.52 118.75 315.50 117.88 C 314.48 117.00 313.15 116.52 312.75 116.12 C 312.35 115.73 312.62 115.60 313.12 115.50 C 313.62 115.40 315.23 115.56 315.75 115.50 C 316.27 115.44 316.33 115.27 316.25 115.12 C 316.17 114.98 317.52 114.38 315.25 114.62 Z" id="s-9-f-0"/>
<clipPath id="c-s-9"><use href="#s-9-f-0"/></clipPath>
<path d="M 356.25 228.25 C 355.92 226.48 354.83 227.10 353.12 226.25 C 351.42 225.40 347.94 223.83 346.00 223.12 C 344.06 222.42 343.46 222.19 341.50 222.00 C 339.54 221.81 338.40 221.54 334.25 222.00 C 330.10 222.46 321.17 224.31 316.62 224.75 C 312.08 225.19 309.08 224.52 307.00 224.62 C 304.92 224.73 306.04 225.19 304.12 225.38 C 302.21 225.56 297.62 225.50 295.50 225.75 C 293.38 226.00 299.04 226.19 291.38 226.88 C 283.71 227.56 256.65 229.31 249.50 229.88 C 242.35 230.44 248.65 228.90 248.50 230.25 C 248.35 231.60 248.40 235.58 248.62 238.00 C 248.85 240.42 249.21 243.48 249.88 244.75 C 250.54 246.02 251.48 245.44 252.62 245.62 C 253.77 245.81 253.69 245.88 256.75 245.88 C 259.81 245.88 255.71 246.52 271.00 245.62 C 286.29 244.73 334.65 241.48 348.50 240.50 C 362.35 239.52 353.02 240.35 354.12 239.75 C 355.23 239.15 354.77 238.79 355.12 236.88 C 355.48 234.96 356.58 230.02 356.25 228.25 Z" id="s-10-f-0"/>
<clipPath id="c-s-10"><use href="#s-10-f-0"/></clipPath>
<path d="M 207.25 296.88 C 206.60 296.48 206.54 296.58 206.00 297.00 C 205.46 297.42 204.54 298.00 204.00 299.38 C 203.46 300.75 203.48 302.77 202.75 305.25 C 202.02 307.73 201.62 309.15 199.62 314.25 C 197.62 319.35 193.67 329.12 190.75 335.88 C 187.83 342.62 184.06 349.81 182.12 354.75 C 180.19 359.69 179.65 362.06 179.12 365.50 C 178.60 368.94 178.67 372.38 179.00 375.38 C 179.33 378.38 180.62 381.83 181.12 383.50 C 181.62 385.17 181.40 384.52 182.00 385.38 C 182.60 386.23 183.83 387.73 184.75 388.62 C 185.67 389.52 186.60 390.23 187.50 390.75 C 188.40 391.27 188.96 391.58 190.12 391.75 C 191.29 391.92 193.46 391.90 194.50 391.75 C 195.54 391.60 195.33 391.77 196.38 390.88 C 197.42 389.98 199.23 388.29 200.75 386.38 C 202.27 384.46 204.04 382.10 205.50 379.38 C 206.96 376.65 208.58 372.67 209.50 370.00 C 210.42 367.33 210.29 365.90 211.00 363.38 C 211.71 360.85 212.85 358.31 213.75 354.88 C 214.65 351.44 215.71 346.58 216.38 342.75 C 217.04 338.92 217.54 335.77 217.75 331.88 C 217.96 327.98 218.31 323.48 217.62 319.38 C 216.94 315.27 214.92 310.58 213.62 307.25 C 212.33 303.92 210.94 301.10 209.88 299.38 C 208.81 297.65 207.90 297.27 207.25 296.88 Z" id="s-11-f-0"/>
<clipPath id="c-s-11"><use href="#s-11-f-0"/></clipPath>
<path d="M 232.25 289.00 C 232.04 289.56 231.73 290.38 232.00 291.25 C 232.27 292.12 232.58 290.73 233.88 294.25 C 235.17 297.77 237.90 305.96 239.75 312.38 C 241.60 318.79 243.44 327.29 245.00 332.75 C 246.56 338.21 247.60 341.06 249.12 345.12 C 250.65 349.19 251.98 352.62 254.12 357.12 C 256.27 361.62 259.79 368.35 262.00 372.12 C 264.21 375.90 264.35 376.44 267.38 379.75 C 270.40 383.06 276.25 388.67 280.12 392.00 C 284.00 395.33 286.54 397.12 290.62 399.75 C 294.71 402.38 301.21 405.92 304.62 407.75 C 308.04 409.58 308.60 409.75 311.12 410.75 C 313.65 411.75 314.85 412.42 319.75 413.75 C 324.65 415.08 334.00 417.58 340.50 418.75 C 347.00 419.92 351.60 420.46 358.75 420.75 C 365.90 421.04 376.58 420.85 383.38 420.50 C 390.17 420.15 395.27 419.25 399.50 418.62 C 403.73 418.00 405.92 417.40 408.75 416.75 C 411.58 416.10 413.27 415.75 416.50 414.75 C 419.73 413.75 425.40 411.77 428.12 410.75 C 430.85 409.73 430.40 409.96 432.88 408.62 C 435.35 407.29 440.67 404.23 443.00 402.75 C 445.33 401.27 445.42 401.15 446.88 399.75 C 448.33 398.35 450.75 395.85 451.75 394.38 C 452.75 392.90 452.73 392.19 452.88 390.88 C 453.02 389.56 452.96 387.92 452.62 386.50 C 452.29 385.08 451.71 383.69 450.88 382.38 C 450.04 381.06 449.02 379.85 447.62 378.62 C 446.23 377.40 446.06 376.98 442.50 375.00 C 438.94 373.02 431.17 369.46 426.25 366.75 C 421.33 364.04 417.67 361.79 413.00 358.75 C 408.33 355.71 403.56 352.50 398.25 348.50 C 392.94 344.50 384.83 337.52 381.12 334.75 C 377.42 331.98 377.04 332.27 376.00 331.88 C 374.96 331.48 375.04 331.75 374.88 332.38 C 374.71 333.00 374.48 333.94 375.00 335.62 C 375.52 337.31 376.38 339.58 378.00 342.50 C 379.62 345.42 382.48 349.10 384.75 353.12 C 387.02 357.15 390.12 363.19 391.62 366.62 C 393.12 370.06 393.44 372.04 393.75 373.75 C 394.06 375.46 393.67 376.10 393.50 376.88 C 393.33 377.65 393.50 377.56 392.75 378.38 C 392.00 379.19 390.83 380.69 389.00 381.75 C 387.17 382.81 384.94 383.75 381.75 384.75 C 378.56 385.75 374.46 386.94 369.88 387.75 C 365.29 388.56 359.08 389.29 354.25 389.62 C 349.42 389.96 344.92 389.90 340.88 389.75 C 336.83 389.60 333.44 389.25 330.00 388.75 C 326.56 388.25 323.46 387.58 320.25 386.75 C 317.04 385.92 313.85 384.92 310.75 383.75 C 307.65 382.58 304.79 381.46 301.62 379.75 C 298.46 378.04 294.79 375.69 291.75 373.50 C 288.71 371.31 285.75 368.79 283.38 366.62 C 281.00 364.46 280.02 363.71 277.50 360.50 C 274.98 357.29 270.67 351.25 268.25 347.38 C 265.83 343.50 264.67 340.96 263.00 337.25 C 261.33 333.54 259.75 329.81 258.25 325.12 C 256.75 320.44 254.94 313.31 254.00 309.12 C 253.06 304.94 253.00 301.96 252.62 300.00 C 252.25 298.04 252.23 298.33 251.75 297.38 C 251.27 296.42 251.10 295.65 249.75 294.25 C 248.40 292.85 245.23 290.19 243.62 289.00 C 242.02 287.81 241.52 287.46 240.12 287.12 C 238.73 286.79 236.40 286.88 235.25 287.00 C 234.10 287.12 233.75 287.54 233.25 287.88 C 232.75 288.21 232.46 288.44 232.25 289.00 Z" id="s-12-f-0"/>
<clipPath id="c-s-12"><use href="#s-12-f-0"/></clipPath>
<path d="M 290.12 279.38 C 289.75 279.71 289.17 280.02 289.00 280.88 C 288.83 281.73 288.50 283.08 289.12 284.50 C 289.75 285.92 290.94 286.40 292.75 289.38 C 294.56 292.35 297.62 298.38 300.00 302.38 C 302.38 306.38 304.08 309.19 307.00 313.38 C 309.92 317.56 314.88 324.25 317.50 327.50 C 320.12 330.75 321.00 331.35 322.75 332.88 C 324.50 334.40 326.58 335.81 328.00 336.62 C 329.42 337.44 329.69 337.58 331.25 337.75 C 332.81 337.92 335.71 337.94 337.38 337.62 C 339.04 337.31 340.17 336.60 341.25 335.88 C 342.33 335.15 343.12 334.33 343.88 333.25 C 344.62 332.17 345.27 330.79 345.75 329.38 C 346.23 327.96 346.58 327.15 346.75 324.75 C 346.92 322.35 346.92 317.60 346.75 315.00 C 346.58 312.40 346.25 311.00 345.75 309.12 C 345.25 307.25 344.40 305.19 343.75 303.75 C 343.10 302.31 342.69 301.67 341.88 300.50 C 341.06 299.33 340.67 298.31 338.88 296.75 C 337.08 295.19 333.42 292.58 331.12 291.12 C 328.83 289.67 327.35 289.02 325.12 288.00 C 322.90 286.98 321.38 286.29 317.75 285.00 C 314.12 283.71 306.92 281.25 303.38 280.25 C 299.83 279.25 298.52 279.23 296.50 279.00 C 294.48 278.77 292.31 278.81 291.25 278.88 C 290.19 278.94 290.50 279.04 290.12 279.38 Z" id="s-13-f-0"/>
<clipPath id="c-s-13"><use href="#s-13-f-0"/></clipPath>
<path d="M 378.75 273.00 C 377.83 273.12 378.15 273.35 378.00 273.75 C 377.85 274.15 377.62 274.56 377.88 275.38 C 378.12 276.19 377.50 276.29 379.50 278.62 C 381.50 280.96 385.38 283.96 389.88 289.38 C 394.38 294.79 402.15 305.17 406.50 311.12 C 410.85 317.08 412.83 320.90 416.00 325.12 C 419.17 329.35 422.94 333.73 425.50 336.50 C 428.06 339.27 429.38 340.21 431.38 341.75 C 433.38 343.29 435.83 345.08 437.50 345.75 C 439.17 346.42 440.04 346.23 441.38 345.75 C 442.71 345.27 444.44 343.79 445.50 342.88 C 446.56 341.96 446.88 341.71 447.75 340.25 C 448.62 338.79 449.92 336.44 450.75 334.12 C 451.58 331.81 452.40 328.69 452.75 326.38 C 453.10 324.06 452.92 321.90 452.88 320.25 C 452.83 318.60 452.88 318.04 452.50 316.50 C 452.12 314.96 451.23 312.50 450.62 311.00 C 450.02 309.50 449.79 308.94 448.88 307.50 C 447.96 306.06 446.67 304.06 445.12 302.38 C 443.58 300.69 442.12 299.27 439.62 297.38 C 437.12 295.48 434.33 293.35 430.12 291.00 C 425.92 288.65 419.25 285.42 414.38 283.25 C 409.50 281.08 405.12 279.52 400.88 278.00 C 396.62 276.48 391.77 274.96 388.88 274.12 C 385.98 273.29 385.19 273.19 383.50 273.00 C 381.81 272.81 379.67 272.88 378.75 273.00 Z" id="s-14-f-0"/>
<clipPath id="c-s-14"><use href="#s-14-f-0"/></clipPath>
</defs>
<g id="s-0" clip-path="url(#c-s-0)">
<use href="#s-0-f-0"/>
<path d="M 138.75 80.00 C 136.21 78.52 135.35 78.33 133.88 78.00 C 132.40 77.67 130.85 77.85 129.88 78.00 C 128.90 78.15 128.62 78.42 128.00 78.88 C 127.38 79.33 126.62 80.10 126.12 80.75 C 125.62 81.40 125.35 81.83 125.00 82.75 C 124.65 83.67 124.38 84.27 124.00 86.25 C 123.62 88.23 123.29 91.94 122.75 94.62 C 122.21 97.31 121.75 99.17 120.75 102.38 C 119.75 105.58 118.75 109.00 116.75 113.88 C 114.75 118.75 111.77 125.60 108.75 131.62 C 105.73 137.65 102.10 144.23 98.62 150.00 C 95.15 155.77 91.71 160.88 87.88 166.25 C 84.04 171.62 79.25 177.96 75.62 182.25 C 72.00 186.54 68.71 189.58 66.12 192.00 C 63.54 194.42 62.25 195.27 60.12 196.75 C 58.00 198.23 55.12 199.60 53.38 200.88 C 51.62 202.15 50.50 203.40 49.62 204.38 C 48.75 205.35 48.40 205.48 48.12 206.75 C 47.85 208.02 47.67 210.17 48.00 212.00 C 48.33 213.83 48.62 214.85 50.12 217.75 C 51.62 220.65 55.52 227.06 57.00 229.38 C 58.48 231.69 58.19 230.92 59.00 231.62 C 59.81 232.33 60.58 233.29 61.88 233.62 C 63.17 233.96 65.21 233.94 66.75 233.62 C 68.29 233.31 69.67 232.50 71.12 231.75 C 72.58 231.00 73.54 230.06 75.50 229.12 C 77.46 228.19 80.12 227.04 82.88 226.12 C 85.62 225.21 88.46 224.79 92.00 223.62 C 95.54 222.46 101.08 220.12 104.12 219.12 C 107.17 218.12 108.94 218.06 110.25 217.62 C 111.56 217.19 111.75 218.96 112.00 216.50 C 112.25 214.04 112.04 205.21 111.75 202.88 C 111.46 200.54 114.21 202.19 110.25 202.50 C 106.29 202.81 92.00 204.52 88.00 204.75 C 84.00 204.98 86.71 204.23 86.25 203.88 C 85.79 203.52 85.46 203.19 85.25 202.62 C 85.04 202.06 84.67 201.52 85.00 200.50 C 85.33 199.48 82.90 202.33 87.25 196.50 C 91.60 190.67 102.48 176.52 111.12 165.50 C 119.77 154.48 131.79 139.27 139.12 130.38 C 146.46 121.48 152.04 115.71 155.12 112.12 C 158.21 108.54 156.88 110.04 157.62 108.88 C 158.38 107.71 159.25 106.35 159.62 105.12 C 160.00 103.90 159.90 102.42 159.88 101.50 C 159.85 100.58 159.81 100.46 159.50 99.62 C 159.19 98.79 158.62 97.52 158.00 96.50 C 157.38 95.48 157.23 95.10 155.75 93.50 C 154.27 91.90 151.96 89.12 149.12 86.88 C 146.29 84.62 141.29 81.48 138.75 80.00 Z" id="s-0-f-1"/>
<path d="M 138.75 80.00 C 136.21 78.52 135.35 78.33 133.88 78.00 C 132.40 77.67 130.85 77.85 129.88 78.00 C 128.90 78.15 128.62 78.42 128.00 78.88 C 127.38 79.33 126.62 80.10 126.12 80.75 C 125.62 81.40 125.35 81.83 125.00 82.75 C 124.65 83.67 124.38 84.27 124.00 86.25 C 123.62 88.23 123.29 91.94 122.75 94.62 C 122.21 97.31 121.75 99.17 120.75 102.38 C 119.75 105.58 118.75 109.00 116.75 113.88 C 114.75 118.75 111.77 125.60 108.75 131.62 C 105.73 137.65 102.10 144.23 98.62 150.00 C 95.15 155.77 91.71 160.88 87.88 166.25 C 84.04 171.62 79.25 177.96 75.62 182.25 C 72.00 186.54 68.71 189.58 66.12 192.00 C 63.54 194.42 62.25 195.27 60.12 196.75 C 58.00 198.23 55.12 199.60 53.38 200.88 C 51.62 202.15 50.50 203.40 49.62 204.38 C 48.75 205.35 48.40 205.48 48.12 206.75 C 47.85 208.02 47.67 210.17 48.00 212.00 C 48.33 213.83 48.62 214.85 50.12 217.75 C 51.62 220.65 55.52 227.06 57.00 229.38 C 58.48 231.69 58.15 230.90 59.00 231.62 C 59.85 232.35 61.38 233.38 62.12 233.75 C 62.88 234.12 63.06 233.98 63.50 233.88 C 63.94 233.77 61.50 238.04 64.75 233.12 C 68.00 228.21 79.25 210.48 83.00 204.38 C 86.75 198.27 79.15 207.29 87.25 196.50 C 95.35 185.71 120.15 153.90 131.62 139.62 C 143.10 125.35 151.46 116.62 156.12 110.88 C 160.79 105.12 159.00 106.69 159.62 105.12 C 160.25 103.56 159.90 102.42 159.88 101.50 C 159.85 100.58 159.81 100.46 159.50 99.62 C 159.19 98.79 158.62 97.52 158.00 96.50 C 157.38 95.48 157.23 95.10 155.75 93.50 C 154.27 91.90 151.96 89.12 149.12 86.88 C 146.29 84.62 141.29 81.48 138.75 80.00 Z" id="s-0-f-2"/>
<path d="M 143.50 82.88 C 141.35 81.35 140.35 80.81 138.75 80.00 C 137.15 79.19 135.46 78.31 133.88 78.00 C 132.29 77.69 130.58 77.60 129.25 78.12 C 127.92 78.65 126.75 79.77 125.88 81.12 C 125.00 82.48 124.52 84.00 124.00 86.25 C 123.48 88.50 123.29 91.94 122.75 94.62 C 122.21 97.31 121.75 99.17 120.75 102.38 C 119.75 105.58 118.75 109.00 116.75 113.88 C 114.75 118.75 111.77 125.60 108.75 131.62 C 105.73 137.65 102.10 144.23 98.62 150.00 C 95.15 155.77 91.71 160.88 87.88 166.25 C 84.04 171.62 79.25 177.96 75.62 182.25 C 72.00 186.54 68.71 189.58 66.12 192.00 C 63.54 194.42 62.25 195.27 60.12 196.75 C 58.00 198.23 55.12 199.60 53.38 200.88 C 51.62 202.15 50.50 203.40 49.62 204.38 C 48.75 205.35 48.40 205.48 48.12 206.75 C 47.85 208.02 47.67 210.17 48.00 212.00 C 48.33 213.83 49.31 216.10 50.12 217.75 C 50.94 219.40 49.50 221.17 52.88 221.88 C 56.25 222.58 67.19 222.06 70.38 222.00 C 73.56 221.94 69.90 224.44 72.00 221.50 C 74.10 218.56 80.46 208.54 83.00 204.38 C 85.54 200.21 79.15 207.29 87.25 196.50 C 95.35 185.71 119.90 154.23 131.62 139.62 C 143.35 125.02 152.96 114.62 157.62 108.88 C 162.29 103.12 159.27 106.48 159.62 105.12 C 159.98 103.77 159.90 101.98 159.75 100.75 C 159.60 99.52 159.42 98.96 158.75 97.75 C 158.08 96.54 156.94 94.94 155.75 93.50 C 154.56 92.06 153.67 90.90 151.62 89.12 C 149.58 87.35 145.65 84.40 143.50 82.88 Z" id="s-0-f-3"/>
<path d="M 148.00 86.00 C 145.46 84.08 141.10 81.33 138.75 80.00 C 136.40 78.67 135.46 78.31 133.88 78.00 C 132.29 77.69 130.54 77.67 129.25 78.12 C 127.96 78.58 126.83 79.98 126.12 80.75 C 125.42 81.52 125.35 81.83 125.00 82.75 C 124.65 83.67 124.38 84.27 124.00 86.25 C 123.62 88.23 123.29 91.94 122.75 94.62 C 122.21 97.31 121.75 99.17 120.75 102.38 C 119.75 105.58 118.29 109.92 116.75 113.88 C 115.21 117.83 114.52 120.10 111.50 126.12 C 108.48 132.15 101.62 144.67 98.62 150.00 C 95.62 155.33 96.12 154.31 93.50 158.12 C 90.88 161.94 84.62 170.25 82.88 172.88 C 81.12 175.50 79.62 173.71 83.00 173.88 C 86.38 174.04 99.44 173.98 103.12 173.88 C 106.81 173.77 99.12 180.50 105.12 173.25 C 111.12 166.00 130.38 141.10 139.12 130.38 C 147.88 119.65 154.21 113.08 157.62 108.88 C 161.04 104.67 159.27 106.48 159.62 105.12 C 159.98 103.77 159.90 101.98 159.75 100.75 C 159.60 99.52 159.71 99.29 158.75 97.75 C 157.79 96.21 155.79 93.46 154.00 91.50 C 152.21 89.54 150.54 87.92 148.00 86.00 Z" id="s-0-f-4"/>
<path d="M 158.00 96.50 C 157.02 94.83 155.48 93.10 154.00 91.50 C 152.52 89.90 151.38 88.62 149.12 86.88 C 146.88 85.12 143.04 82.48 140.50 81.00 C 137.96 79.52 135.65 78.50 133.88 78.00 C 132.10 77.50 130.85 77.85 129.88 78.00 C 128.90 78.15 128.62 78.42 128.00 78.88 C 127.38 79.33 126.62 80.10 126.12 80.75 C 125.62 81.40 125.35 81.83 125.00 82.75 C 124.65 83.67 124.38 84.27 124.00 86.25 C 123.62 88.23 123.29 91.94 122.75 94.62 C 122.21 97.31 121.75 99.17 120.75 102.38 C 119.75 105.58 118.23 110.15 116.75 113.88 C 115.27 117.60 112.69 122.77 111.88 124.75 C 111.06 126.73 106.69 125.58 111.88 125.75 C 117.06 125.92 135.98 127.79 143.00 125.75 C 150.02 123.71 151.38 116.65 154.00 113.50 C 156.62 110.35 157.81 108.27 158.75 106.88 C 159.69 105.48 159.44 106.02 159.62 105.12 C 159.81 104.23 160.15 102.94 159.88 101.50 C 159.60 100.06 158.98 98.17 158.00 96.50 Z" id="s-0-f-5"/>
</g>
<g id="s-1" clip-path="url(#c-s-1)">
<use href="#s-1-f-0"/>
<path d="M 170.00 141.12 C 168.50 139.94 168.79 140.19 167.75 140.00 C 166.71 139.81 164.77 139.81 163.75 140.00 C 162.73 140.19 162.23 140.69 161.62 141.12 C 161.02 141.56 160.71 141.73 160.12 142.62 C 159.54 143.52 159.17 143.52 158.12 146.50 C 157.08 149.48 155.44 156.12 153.88 160.50 C 152.31 164.88 151.08 168.12 148.75 172.75 C 146.42 177.38 142.92 183.52 139.88 188.25 C 136.83 192.98 132.27 198.92 130.50 201.12 C 128.73 203.33 129.58 201.17 129.25 201.50 C 128.92 201.83 130.10 201.19 128.50 203.12 C 126.90 205.06 121.42 210.94 119.62 213.12 C 117.83 215.31 121.08 211.77 117.75 216.25 C 114.42 220.73 106.65 231.12 99.62 240.00 C 92.60 248.88 80.38 263.83 75.62 269.50 C 70.88 275.17 73.17 272.29 71.12 274.00 C 69.08 275.71 65.50 278.42 63.38 279.75 C 61.25 281.08 59.81 281.04 58.38 282.00 C 56.94 282.96 55.48 284.65 54.75 285.50 C 54.02 286.35 54.12 286.21 54.00 287.12 C 53.88 288.04 53.52 289.33 54.00 291.00 C 54.48 292.67 56.00 295.52 56.88 297.12 C 57.75 298.73 57.94 299.00 59.25 300.62 C 60.56 302.25 62.96 305.21 64.75 306.88 C 66.54 308.54 68.58 309.81 70.00 310.62 C 71.42 311.44 72.06 311.56 73.25 311.75 C 74.44 311.94 75.25 312.73 77.12 311.75 C 79.00 310.77 82.06 307.67 84.50 305.88 C 86.94 304.08 88.75 302.81 91.75 301.00 C 94.75 299.19 97.44 297.54 102.50 295.00 C 107.56 292.46 118.56 287.50 122.12 285.75 C 125.69 284.00 123.56 287.02 123.88 284.50 C 124.19 281.98 124.10 273.04 124.00 270.62 C 123.90 268.21 127.73 268.31 123.25 270.00 C 118.77 271.69 101.88 278.98 97.12 280.75 C 92.38 282.52 95.35 280.75 94.75 280.62 C 94.15 280.50 93.77 280.29 93.50 280.00 C 93.23 279.71 92.27 280.27 93.12 278.88 C 93.98 277.48 95.85 275.00 98.62 271.62 C 101.40 268.25 99.75 269.96 109.75 258.62 C 119.75 247.29 146.98 216.52 158.62 203.62 C 170.27 190.73 175.27 186.12 179.62 181.25 C 183.98 176.38 183.56 176.40 184.75 174.38 C 185.94 172.35 186.40 170.25 186.75 169.12 C 187.10 168.00 186.88 168.40 186.88 167.62 C 186.88 166.85 187.10 166.00 186.75 164.50 C 186.40 163.00 185.58 160.46 184.75 158.62 C 183.92 156.79 183.08 155.42 181.75 153.50 C 180.42 151.58 178.71 149.19 176.75 147.12 C 174.79 145.06 171.50 142.31 170.00 141.12 Z" id="s-1-f-1"/>
<path d="M 170.00 141.12 C 168.50 139.94 168.79 140.19 167.75 140.00 C 166.71 139.81 164.77 139.81 163.75 140.00 C 162.73 140.19 162.23 140.69 161.62 141.12 C 161.02 141.56 160.71 141.73 160.12 142.62 C 159.54 143.52 159.17 143.52 158.12 146.50 C 157.08 149.48 155.44 156.12 153.88 160.50 C 152.31 164.88 151.08 168.12 148.75 172.75 C 146.42 177.38 142.54 184.00 139.88 188.25 C 137.21 192.50 136.12 194.10 132.75 198.25 C 129.38 202.40 122.12 210.12 119.62 213.12 C 117.12 216.12 121.08 211.77 117.75 216.25 C 114.42 220.73 106.42 231.38 99.62 240.00 C 92.83 248.62 82.08 262.04 77.00 268.00 C 71.92 273.96 71.40 273.79 69.12 275.75 C 66.85 277.71 65.29 278.62 63.38 279.75 C 61.46 280.88 59.06 281.54 57.62 282.50 C 56.19 283.46 55.35 284.73 54.75 285.50 C 54.15 286.27 54.12 286.21 54.00 287.12 C 53.88 288.04 53.52 289.33 54.00 291.00 C 54.48 292.67 56.00 295.52 56.88 297.12 C 57.75 298.73 57.94 299.00 59.25 300.62 C 60.56 302.25 62.96 305.21 64.75 306.88 C 66.54 308.54 68.38 309.79 70.00 310.62 C 71.62 311.46 73.42 311.79 74.50 311.88 C 75.58 311.96 73.60 316.17 76.50 311.12 C 79.40 306.08 89.12 287.04 91.88 281.62 C 94.62 276.21 92.42 279.67 93.00 278.62 C 93.58 277.58 84.44 287.88 95.38 275.38 C 106.31 262.88 144.58 219.31 158.62 203.62 C 172.67 187.94 175.27 186.12 179.62 181.25 C 183.98 176.38 183.56 176.40 184.75 174.38 C 185.94 172.35 186.40 170.25 186.75 169.12 C 187.10 168.00 186.88 168.40 186.88 167.62 C 186.88 166.85 187.10 166.00 186.75 164.50 C 186.40 163.00 185.58 160.46 184.75 158.62 C 183.92 156.79 183.08 155.42 181.75 153.50 C 180.42 151.58 178.71 149.19 176.75 147.12 C 174.79 145.06 171.50 142.31 170.00 141.12 Z" id="s-1-f-2"/>
<path d="M 171.38 142.00 C 169.88 140.81 168.83 140.35 167.75 140.00 C 166.67 139.65 165.73 139.79 164.88 139.88 C 164.02 139.96 163.42 140.04 162.62 140.50 C 161.83 140.96 160.88 141.62 160.12 142.62 C 159.38 143.62 159.17 143.52 158.12 146.50 C 157.08 149.48 155.44 156.12 153.88 160.50 C 152.31 164.88 151.08 168.12 148.75 172.75 C 146.42 177.38 142.54 184.00 139.88 188.25 C 137.21 192.50 136.12 194.10 132.75 198.25 C 129.38 202.40 122.48 209.65 119.62 213.12 C 116.77 216.60 118.96 214.65 115.62 219.12 C 112.29 223.60 106.06 231.85 99.62 240.00 C 93.19 248.15 82.08 262.04 77.00 268.00 C 71.92 273.96 71.40 273.79 69.12 275.75 C 66.85 277.71 65.17 278.71 63.38 279.75 C 61.58 280.79 59.50 281.40 58.38 282.00 C 57.25 282.60 56.90 283.08 56.62 283.38 C 56.35 283.67 51.48 283.65 56.75 283.75 C 62.02 283.85 82.58 284.04 88.25 284.00 C 93.92 283.96 89.90 284.50 90.75 283.50 C 91.60 282.50 91.25 280.96 93.38 278.00 C 95.50 275.04 92.62 278.15 103.50 265.75 C 114.38 253.35 145.48 218.25 158.62 203.62 C 171.77 189.00 178.00 182.92 182.38 178.00 C 186.75 173.08 184.15 175.60 184.88 174.12 C 185.60 172.65 186.44 170.73 186.75 169.12 C 187.06 167.52 186.90 165.77 186.75 164.50 C 186.60 163.23 186.40 162.81 185.88 161.50 C 185.35 160.19 184.65 158.42 183.62 156.62 C 182.60 154.83 180.90 152.33 179.75 150.75 C 178.60 149.17 178.15 148.58 176.75 147.12 C 175.35 145.67 172.88 143.19 171.38 142.00 Z" id="s-1-f-3"/>
<path d="M 171.50 142.12 C 170.06 140.96 169.23 140.50 168.12 140.12 C 167.02 139.75 165.79 139.81 164.88 139.88 C 163.96 139.94 163.42 140.04 162.62 140.50 C 161.83 140.96 160.88 141.62 160.12 142.62 C 159.38 143.62 158.85 144.44 158.12 146.50 C 157.40 148.56 156.81 151.77 155.75 155.00 C 154.69 158.23 152.92 162.92 151.75 165.88 C 150.58 168.83 150.08 170.06 148.75 172.75 C 147.42 175.44 145.23 179.42 143.75 182.00 C 142.27 184.58 141.92 185.25 139.88 188.25 C 137.83 191.25 133.35 197.62 131.50 200.00 C 129.65 202.38 130.73 200.31 128.75 202.50 C 126.77 204.69 121.52 210.75 119.62 213.12 C 117.73 215.50 120.12 213.00 117.38 216.75 C 114.62 220.50 102.46 232.42 103.12 235.62 C 103.79 238.83 116.81 236.00 121.38 236.00 C 125.94 236.00 124.29 241.02 130.50 235.62 C 136.71 230.23 149.92 213.31 158.62 203.62 C 167.33 193.94 178.38 182.42 182.75 177.50 C 187.12 172.58 184.21 175.52 184.88 174.12 C 185.54 172.73 186.42 170.56 186.75 169.12 C 187.08 167.69 187.02 166.77 186.88 165.50 C 186.73 164.23 186.42 162.98 185.88 161.50 C 185.33 160.02 184.65 158.42 183.62 156.62 C 182.60 154.83 180.90 152.33 179.75 150.75 C 178.60 149.17 178.12 148.56 176.75 147.12 C 175.38 145.69 172.94 143.29 171.50 142.12 Z" id="s-1-f-4"/>
<path d="M 170.00 141.12 C 168.92 140.35 168.79 140.19 167.75 140.00 C 166.71 139.81 164.85 139.75 163.75 140.00 C 162.65 140.25 161.92 140.79 161.12 141.50 C 160.33 142.21 159.94 141.85 159.00 144.25 C 158.06 146.65 156.71 152.27 155.50 155.88 C 154.29 159.48 153.21 162.42 151.75 165.88 C 150.29 169.33 148.67 173.06 146.75 176.62 C 144.83 180.19 141.31 185.40 140.25 187.25 C 139.19 189.10 134.90 187.67 140.38 187.75 C 145.85 187.83 166.69 188.71 173.12 187.75 C 179.56 186.79 177.23 183.96 179.00 182.00 C 180.77 180.04 182.65 177.58 183.75 176.00 C 184.85 174.42 185.12 173.65 185.62 172.50 C 186.12 171.35 186.54 170.29 186.75 169.12 C 186.96 167.96 187.04 166.83 186.88 165.50 C 186.71 164.17 186.29 162.60 185.75 161.12 C 185.21 159.65 184.62 158.35 183.62 156.62 C 182.62 154.90 181.31 152.75 179.75 150.75 C 178.19 148.75 175.88 146.23 174.25 144.62 C 172.62 143.02 171.08 141.90 170.00 141.12 Z" id="s-1-f-5"/>
</g>
<g id="s-2" clip-path="url(#c-s-2)">
<use href="#s-2-f-0"/>
<path d="M 140.75 238.00 C 139.73 238.08 140.15 238.27 140.00 238.75 C 139.85 239.23 139.71 239.73 139.88 240.88 C 140.04 242.02 140.00 243.38 141.00 245.62 C 142.00 247.88 144.65 252.00 145.88 254.38 C 147.10 256.75 147.92 258.60 148.38 259.88 C 148.83 261.15 148.46 261.52 148.62 262.00 C 148.79 262.48 148.69 261.25 149.38 262.75 C 150.06 264.25 152.06 269.54 152.75 271.00 C 153.44 272.46 152.12 269.50 153.50 271.50 C 154.88 273.50 159.29 280.60 161.00 283.00 C 162.71 285.40 161.17 285.40 163.75 285.88 C 166.33 286.35 174.17 286.15 176.50 285.88 C 178.83 285.60 177.38 285.08 177.75 284.25 C 178.12 283.42 178.60 283.29 178.75 280.88 C 178.90 278.46 178.96 272.96 178.62 269.75 C 178.29 266.54 177.58 264.10 176.75 261.62 C 175.92 259.15 175.02 256.83 173.62 254.88 C 172.23 252.92 171.10 251.83 168.38 249.88 C 165.65 247.92 160.96 245.06 157.25 243.12 C 153.54 241.19 148.88 239.10 146.12 238.25 C 143.38 237.40 141.77 237.92 140.75 238.00 Z" id="s-2-f-1"/>
</g>
<g id="s-3" clip-path="url(#c-s-3)">
<use href="#s-3-f-0"/>
<path d="M 48.62 334.00 C 47.44 334.27 47.27 334.92 47.00 336.00 C 46.73 337.08 46.83 339.04 47.00 340.50 C 47.17 341.96 46.15 339.73 48.00 344.75 C 49.85 349.77 55.60 364.50 58.12 370.62 C 60.65 376.75 61.90 379.60 63.12 381.50 C 64.35 383.40 60.92 381.94 65.50 382.00 C 70.08 382.06 86.44 382.94 90.62 381.88 C 94.81 380.81 90.81 377.83 90.62 375.62 C 90.44 373.42 89.98 370.81 89.50 368.62 C 89.02 366.44 88.58 364.67 87.75 362.50 C 86.92 360.33 85.77 357.67 84.50 355.62 C 83.23 353.58 81.85 352.04 80.12 350.25 C 78.40 348.46 77.04 346.92 74.12 344.88 C 71.21 342.83 65.96 339.75 62.62 338.00 C 59.29 336.25 56.46 335.04 54.12 334.38 C 51.79 333.71 49.81 333.73 48.62 334.00 Z" id="s-3-f-1"/>
</g>
<g id="s-4" clip-path="url(#c-s-4)">
<use href="#s-4-f-0"/>
<path d="M 99.75 322.00 C 98.77 322.19 98.98 322.60 98.88 323.25 C 98.77 323.90 98.81 324.98 99.12 325.88 C 99.44 326.77 99.60 326.06 100.75 328.62 C 101.90 331.19 103.96 336.69 106.00 341.25 C 108.04 345.81 111.17 352.31 113.00 356.00 C 114.83 359.69 115.69 361.17 117.00 363.38 C 118.31 365.58 120.02 368.15 120.88 369.25 C 121.73 370.35 119.60 369.90 122.12 370.00 C 124.65 370.10 133.56 370.04 136.00 369.88 C 138.44 369.71 136.46 369.77 136.75 369.00 C 137.04 368.23 137.58 367.71 137.75 365.25 C 137.92 362.79 137.94 357.19 137.75 354.25 C 137.56 351.31 137.12 349.58 136.62 347.62 C 136.12 345.67 135.40 343.96 134.75 342.50 C 134.10 341.04 133.94 340.29 132.75 338.88 C 131.56 337.46 130.38 335.96 127.62 334.00 C 124.88 332.04 120.06 329.10 116.25 327.12 C 112.44 325.15 107.50 322.98 104.75 322.12 C 102.00 321.27 100.73 321.81 99.75 322.00 Z" id="s-4-f-1"/>
</g>
<g id="s-5" clip-path="url(#c-s-5)">
<use href="#s-5-f-0"/>
</g>
<g id="s-6" clip-path="url(#c-s-6)">
<use href="#s-6-f-0"/>
<path d="M 202.50 105.00 C 200.67 105.17 201.02 105.69 200.50 106.12 C 199.98 106.56 199.65 107.08 199.38 107.62 C 199.10 108.17 198.94 108.65 198.88 109.38 C 198.81 110.10 198.29 110.83 199.00 112.00 C 199.71 113.17 201.73 114.69 203.12 116.38 C 204.52 118.06 206.08 120.06 207.38 122.12 C 208.67 124.19 209.85 126.42 210.88 128.75 C 211.90 131.08 212.77 133.35 213.50 136.12 C 214.23 138.90 214.71 142.98 215.25 145.38 C 215.79 147.77 215.83 145.71 216.75 150.50 C 217.67 155.29 219.02 160.69 220.75 174.12 C 222.48 187.56 225.73 219.67 227.12 231.12 C 228.52 242.58 228.48 240.08 229.12 242.88 C 229.77 245.67 230.50 246.88 231.00 247.88 C 231.50 248.88 229.19 248.71 232.12 248.88 C 235.06 249.04 245.67 249.42 248.62 248.88 C 251.58 248.33 249.65 246.81 249.88 245.62 C 250.10 244.44 250.38 247.83 250.00 241.75 C 249.62 235.67 248.46 219.27 247.62 209.12 C 246.79 198.98 245.79 187.35 245.00 180.88 C 244.21 174.40 243.58 175.54 242.88 170.25 C 242.17 164.96 241.40 154.33 240.75 149.12 C 240.10 143.92 239.48 143.15 239.00 139.00 C 238.52 134.85 239.40 128.77 237.88 124.25 C 236.35 119.73 231.81 114.42 229.88 111.88 C 227.94 109.33 228.35 109.94 226.25 109.00 C 224.15 108.06 219.71 106.90 217.25 106.25 C 214.79 105.60 213.96 105.33 211.50 105.12 C 209.04 104.92 204.33 104.83 202.50 105.00 Z" id="s-6-f-1"/>
<path d="M 201.88 105.25 C 201.31 105.46 200.94 105.69 200.50 106.12 C 200.06 106.56 199.50 106.90 199.25 107.88 C 199.00 108.85 198.35 110.58 199.00 112.00 C 199.65 113.42 201.69 114.62 203.12 116.38 C 204.56 118.12 206.33 120.44 207.62 122.50 C 208.92 124.56 209.85 126.31 210.88 128.75 C 211.90 131.19 212.44 131.73 213.75 137.12 C 215.06 142.52 217.06 150.58 218.75 161.12 C 220.44 171.67 221.85 193.73 223.88 200.38 C 225.90 207.02 227.15 200.94 230.88 201.00 C 234.60 201.06 243.62 201.15 246.25 200.75 C 248.88 200.35 246.83 201.38 246.62 198.62 C 246.42 195.88 245.25 187.08 245.00 184.25 C 244.75 181.42 245.46 183.81 245.12 181.62 C 244.79 179.44 243.56 175.19 243.00 171.12 C 242.44 167.06 242.71 165.19 241.75 157.25 C 240.79 149.31 239.25 131.10 237.25 123.50 C 235.25 115.90 231.58 114.04 229.75 111.62 C 227.92 109.21 228.33 109.90 226.25 109.00 C 224.17 108.10 219.71 106.90 217.25 106.25 C 214.79 105.60 213.73 105.35 211.50 105.12 C 209.27 104.90 205.48 104.85 203.88 104.88 C 202.27 104.90 202.44 105.04 201.88 105.25 Z" id="s-6-f-2"/>
<path d="M 200.50 106.12 C 199.92 106.71 199.25 107.52 199.00 108.50 C 198.75 109.48 198.23 110.60 199.00 112.00 C 199.77 113.40 202.23 115.19 203.62 116.88 C 205.02 118.56 206.17 120.15 207.38 122.12 C 208.58 124.10 209.83 126.38 210.88 128.75 C 211.92 131.12 212.60 132.42 213.62 136.38 C 214.65 140.33 216.10 149.73 217.00 152.50 C 217.90 155.27 216.21 152.94 219.00 153.00 C 221.79 153.06 230.33 153.00 233.75 152.88 C 237.17 152.75 238.33 152.48 239.50 152.25 C 240.67 152.02 241.04 156.00 240.75 151.50 C 240.46 147.00 238.42 130.06 237.75 125.25 C 237.08 120.44 238.08 124.90 236.75 122.62 C 235.42 120.35 231.50 113.90 229.75 111.62 C 228.00 109.35 228.50 109.94 226.25 109.00 C 224.00 108.06 218.90 106.67 216.25 106.00 C 213.60 105.33 212.44 105.19 210.38 105.00 C 208.31 104.81 205.19 104.88 203.88 104.88 C 202.56 104.88 203.06 104.79 202.50 105.00 C 201.94 105.21 201.08 105.54 200.50 106.12 Z" id="s-6-f-3"/>
</g>
<g id="s-7" clip-path="url(#c-s-7)">
<use href="#s-7-f-0"/>
<path d="M 228.50 111.50 C 227.85 111.71 228.98 111.67 229.00 111.75 C 229.02 111.83 228.23 111.40 228.62 112.00 C 229.02 112.60 230.00 113.33 231.38 115.38 C 232.75 117.42 235.81 122.67 236.88 124.25 C 237.94 125.83 233.81 124.98 237.75 124.88 C 241.69 124.77 252.46 124.27 260.50 123.62 C 268.54 122.98 276.48 122.44 286.00 121.00 C 295.52 119.56 306.48 116.83 317.62 115.00 C 328.77 113.17 344.77 111.00 352.88 110.00 C 360.98 109.00 363.62 109.02 366.25 109.00 C 368.88 108.98 367.75 109.17 368.62 109.88 C 369.50 110.58 370.81 111.88 371.50 113.25 C 372.19 114.62 372.54 116.08 372.75 118.12 C 372.96 120.17 372.92 121.62 372.75 125.50 C 372.58 129.38 372.56 134.48 371.75 141.38 C 370.94 148.27 368.54 161.33 367.88 166.88 C 367.21 172.42 368.77 168.23 367.75 174.62 C 366.73 181.02 363.29 197.85 361.75 205.25 C 360.21 212.65 359.48 215.35 358.50 219.00 C 357.52 222.65 356.67 223.69 355.88 227.12 C 355.08 230.56 353.98 237.21 353.75 239.62 C 353.52 242.04 354.02 241.23 354.50 241.62 C 354.98 242.02 352.58 241.94 356.62 242.00 C 360.67 242.06 374.71 242.08 378.75 242.00 C 382.79 241.92 376.88 255.31 380.88 241.50 C 384.88 227.69 398.50 175.44 402.75 159.12 C 407.00 142.81 405.29 147.69 406.38 143.62 C 407.46 139.56 408.25 137.42 409.25 134.75 C 410.25 132.08 410.94 130.19 412.38 127.62 C 413.81 125.06 416.65 121.44 417.88 119.38 C 419.10 117.31 419.44 116.58 419.75 115.25 C 420.06 113.92 420.27 112.73 419.75 111.38 C 419.23 110.02 418.29 108.69 416.62 107.12 C 414.96 105.56 412.85 103.85 409.75 102.00 C 406.65 100.15 402.40 98.00 398.00 96.00 C 393.60 94.00 386.83 91.31 383.38 90.00 C 379.92 88.69 378.98 88.48 377.25 88.12 C 375.52 87.77 376.17 87.54 373.00 87.88 C 369.83 88.21 367.35 88.15 358.25 90.12 C 349.15 92.10 329.62 97.31 318.38 99.75 C 307.12 102.19 300.48 103.27 290.75 104.75 C 281.02 106.23 269.65 107.67 260.00 108.62 C 250.35 109.58 238.12 110.02 232.88 110.50 C 227.62 110.98 229.15 111.29 228.50 111.50 Z" id="s-7-f-1"/>
<path d="M 419.88 114.12 C 420.19 112.79 419.94 112.15 419.75 111.38 C 419.56 110.60 419.48 110.40 418.75 109.50 C 418.02 108.60 416.88 107.25 415.38 106.00 C 413.88 104.75 411.90 103.33 409.75 102.00 C 407.60 100.67 406.83 99.98 402.50 98.00 C 398.17 96.02 388.25 91.81 383.75 90.12 C 379.25 88.44 377.73 88.23 375.50 87.88 C 373.27 87.52 373.15 87.65 370.38 88.00 C 367.60 88.35 367.54 88.04 358.88 90.00 C 350.21 91.96 329.73 97.29 318.38 99.75 C 307.02 102.21 300.46 103.27 290.75 104.75 C 281.04 106.23 270.31 107.60 260.12 108.62 C 249.94 109.65 234.90 110.40 229.62 110.88 C 224.35 111.35 227.29 109.27 228.50 111.50 C 229.71 113.73 235.33 122.02 236.88 124.25 C 238.42 126.48 233.58 125.00 237.75 124.88 C 241.92 124.75 253.83 124.15 261.88 123.50 C 269.92 122.85 276.69 122.42 286.00 121.00 C 295.31 119.58 306.58 116.83 317.75 115.00 C 328.92 113.17 344.92 111.00 353.00 110.00 C 361.08 109.00 363.65 109.02 366.25 109.00 C 368.85 108.98 367.85 109.35 368.62 109.88 C 369.40 110.40 370.23 111.00 370.88 112.12 C 371.52 113.25 372.23 113.50 372.50 116.62 C 372.77 119.75 372.79 125.38 372.50 130.88 C 372.21 136.38 371.52 143.60 370.75 149.62 C 369.98 155.65 368.38 162.83 367.88 167.00 C 367.38 171.17 368.40 170.23 367.75 174.62 C 367.10 179.02 363.15 190.17 364.00 193.38 C 364.85 196.58 368.35 193.77 372.88 193.88 C 377.40 193.98 387.67 194.06 391.12 194.00 C 394.58 193.94 390.81 202.75 393.62 193.50 C 396.44 184.25 404.88 149.48 408.00 138.50 C 411.12 127.52 410.73 130.81 412.38 127.62 C 414.02 124.44 416.62 121.62 417.88 119.38 C 419.12 117.12 419.56 115.46 419.88 114.12 Z" id="s-7-f-2"/>
<path d="M 419.88 114.00 C 419.88 113.35 420.17 112.40 419.75 111.38 C 419.33 110.35 418.31 108.94 417.38 107.88 C 416.44 106.81 415.67 106.15 414.12 105.00 C 412.58 103.85 410.06 102.17 408.12 101.00 C 406.19 99.83 406.56 99.81 402.50 98.00 C 398.44 96.19 388.27 91.81 383.75 90.12 C 379.23 88.44 377.60 88.23 375.38 87.88 C 373.15 87.52 373.12 87.65 370.38 88.00 C 367.62 88.35 367.54 88.04 358.88 90.00 C 350.21 91.96 329.73 97.29 318.38 99.75 C 307.02 102.21 300.50 103.27 290.75 104.75 C 281.00 106.23 269.92 107.62 259.88 108.62 C 249.83 109.62 235.73 110.27 230.50 110.75 C 225.27 111.23 227.44 109.25 228.50 111.50 C 229.56 113.75 235.33 122.02 236.88 124.25 C 238.42 126.48 233.58 125.00 237.75 124.88 C 241.92 124.75 253.83 124.15 261.88 123.50 C 269.92 122.85 277.79 122.23 286.00 121.00 C 294.21 119.77 303.79 117.44 311.12 116.12 C 318.46 114.81 323.02 114.15 330.00 113.12 C 336.98 112.10 346.96 110.69 353.00 110.00 C 359.04 109.31 363.65 109.02 366.25 109.00 C 368.85 108.98 367.85 109.35 368.62 109.88 C 369.40 110.40 370.35 111.52 370.88 112.12 C 371.40 112.73 371.48 112.75 371.75 113.50 C 372.02 114.25 372.38 113.65 372.50 116.62 C 372.62 119.60 372.73 126.58 372.50 131.38 C 372.27 136.17 371.25 142.96 371.12 145.38 C 371.00 147.79 366.35 145.77 371.75 145.88 C 377.15 145.98 397.81 146.04 403.50 146.00 C 409.19 145.96 404.94 147.48 405.88 145.62 C 406.81 143.77 407.94 138.08 409.12 134.88 C 410.31 131.67 411.54 128.96 413.00 126.38 C 414.46 123.79 416.75 121.23 417.88 119.38 C 419.00 117.52 419.42 116.15 419.75 115.25 C 420.08 114.35 419.88 114.65 419.88 114.00 Z" id="s-7-f-3"/>
<path d="M 401.00 97.88 C 400.98 97.58 403.31 98.31 400.38 97.00 C 397.44 95.69 387.33 91.50 383.38 90.00 C 379.42 88.50 378.79 88.33 376.62 88.00 C 374.46 87.67 374.23 87.48 370.38 88.00 C 366.52 88.52 362.19 89.17 353.50 91.12 C 344.81 93.08 328.71 97.48 318.25 99.75 C 307.79 102.02 300.44 103.27 290.75 104.75 C 281.06 106.23 270.29 107.60 260.12 108.62 C 249.96 109.65 235.02 110.40 229.75 110.88 C 224.48 111.35 227.88 110.21 228.50 111.50 C 229.12 112.79 232.50 117.06 233.50 118.62 C 234.50 120.19 233.79 119.83 234.50 120.88 C 235.21 121.92 233.69 124.40 237.75 124.88 C 241.81 125.35 250.83 124.40 258.88 123.75 C 266.92 123.10 276.21 122.46 286.00 121.00 C 295.79 119.54 306.73 116.81 317.62 115.00 C 328.52 113.19 343.42 111.15 351.38 110.12 C 359.33 109.10 360.62 109.75 365.38 108.88 C 370.12 108.00 374.44 106.50 379.88 104.88 C 385.31 103.25 394.56 100.15 398.00 99.12 C 401.44 98.10 400.00 98.96 400.50 98.75 C 401.00 98.54 401.02 98.17 401.00 97.88 Z" id="s-7-f-4"/>
<path d="M 373.00 89.50 C 372.96 86.67 373.08 88.62 372.75 88.38 C 372.42 88.12 372.46 87.90 371.00 88.00 C 369.54 88.10 368.25 88.17 364.00 89.00 C 359.75 89.83 350.21 91.88 345.50 93.00 C 340.79 94.12 340.29 94.62 335.75 95.75 C 331.21 96.88 325.60 98.27 318.25 99.75 C 310.90 101.23 301.31 103.15 291.62 104.62 C 281.94 106.10 270.46 107.58 260.12 108.62 C 249.79 109.67 234.90 110.40 229.62 110.88 C 224.35 111.35 228.60 111.38 228.50 111.50 C 228.40 111.62 228.98 111.54 229.00 111.62 C 229.02 111.71 227.88 110.83 228.62 112.00 C 229.38 113.17 232.52 117.15 233.50 118.62 C 234.48 120.10 233.79 119.83 234.50 120.88 C 235.21 121.92 233.69 124.40 237.75 124.88 C 241.81 125.35 250.83 124.40 258.88 123.75 C 266.92 123.10 276.21 122.46 286.00 121.00 C 295.79 119.54 306.73 116.81 317.62 115.00 C 328.52 113.19 343.29 111.17 351.38 110.12 C 359.46 109.08 362.62 109.27 366.12 108.75 C 369.62 108.23 371.23 107.56 372.38 107.00 C 373.52 106.44 372.90 108.29 373.00 105.38 C 373.10 102.46 373.04 92.33 373.00 89.50 Z" id="s-7-f-5"/>
<path d="M 324.88 98.62 C 324.69 96.79 324.96 98.06 323.88 98.25 C 322.79 98.44 321.90 99.00 318.38 99.75 C 314.85 100.50 309.75 101.58 302.75 102.75 C 295.75 103.92 285.62 105.58 276.38 106.75 C 267.12 107.92 255.04 109.06 247.25 109.75 C 239.46 110.44 232.75 110.58 229.62 110.88 C 226.50 111.17 228.60 111.38 228.50 111.50 C 228.40 111.62 228.98 111.54 229.00 111.62 C 229.02 111.71 227.88 110.83 228.62 112.00 C 229.38 113.17 232.52 117.15 233.50 118.62 C 234.48 120.10 233.79 119.83 234.50 120.88 C 235.21 121.92 233.42 124.42 237.75 124.88 C 242.08 125.33 252.44 124.27 260.50 123.62 C 268.56 122.98 275.46 122.60 286.12 121.00 C 296.79 119.40 318.02 115.96 324.50 114.00 C 330.98 112.04 324.94 111.81 325.00 109.25 C 325.06 106.69 325.06 100.46 324.88 98.62 Z" id="s-7-f-6"/>
<path d="M 276.88 121.50 C 277.62 119.67 277.00 113.77 277.00 111.50 C 277.00 109.23 276.98 108.67 276.88 107.88 C 276.77 107.08 281.52 106.42 276.38 106.75 C 271.23 107.08 252.85 109.29 246.00 109.88 C 239.15 110.46 237.98 110.08 235.25 110.25 C 232.52 110.42 230.75 110.67 229.62 110.88 C 228.50 111.08 227.85 110.21 228.50 111.50 C 229.15 112.79 232.50 117.06 233.50 118.62 C 234.50 120.19 233.79 119.83 234.50 120.88 C 235.21 121.92 233.19 124.44 237.75 124.88 C 242.31 125.31 256.08 123.90 261.88 123.50 C 267.67 123.10 270.00 122.83 272.50 122.50 C 275.00 122.17 276.12 123.33 276.88 121.50 Z" id="s-7-f-7"/>
</g>
<g id="s-8" clip-path="url(#c-s-8)">
<use href="#s-8-f-0"/>
<path d="M 338.88 156.62 C 338.73 153.40 340.77 155.71 338.00 156.12 C 335.23 156.54 325.71 158.35 322.25 159.12 C 318.79 159.90 319.69 160.29 317.25 160.75 C 314.81 161.21 313.04 161.04 307.62 161.88 C 302.21 162.71 290.92 164.77 284.75 165.75 C 278.58 166.73 277.33 166.96 270.62 167.75 C 263.92 168.54 249.19 169.90 244.50 170.50 C 239.81 171.10 242.62 169.83 242.50 171.38 C 242.38 172.92 243.35 177.85 243.75 179.75 C 244.15 181.65 243.52 181.96 244.88 182.75 C 246.23 183.54 249.98 184.15 251.88 184.50 C 253.77 184.85 253.23 184.83 256.25 184.88 C 259.27 184.92 264.46 185.08 270.00 184.75 C 275.54 184.42 285.90 183.33 289.50 182.88 C 293.10 182.42 283.83 183.04 291.62 182.00 C 299.42 180.96 328.38 177.71 336.25 176.62 C 344.12 175.54 338.44 178.83 338.88 175.50 C 339.31 172.17 339.02 159.85 338.88 156.62 Z" id="s-8-f-1"/>
<path d="M 290.25 166.00 C 289.88 165.17 291.90 164.71 288.62 165.00 C 285.35 165.29 277.60 166.90 270.62 167.75 C 263.65 168.60 251.35 169.60 246.75 170.12 C 242.15 170.65 243.71 170.67 243.00 170.88 C 242.29 171.08 242.56 170.88 242.50 171.38 C 242.44 171.88 242.29 172.06 242.62 173.88 C 242.96 175.69 244.12 180.77 244.50 182.25 C 244.88 183.73 243.52 182.35 244.88 182.75 C 246.23 183.15 248.44 184.29 252.62 184.62 C 256.81 184.96 263.73 185.06 270.00 184.75 C 276.27 184.44 286.75 183.44 290.25 182.75 C 293.75 182.06 290.90 182.75 291.00 180.62 C 291.10 178.50 291.00 172.44 290.88 170.00 C 290.75 167.56 290.62 166.83 290.25 166.00 Z" id="s-8-f-2"/>
</g>
<g id="s-9" clip-path="url(#c-s-9)">
<use href="#s-9-f-0"/>
<path d="M 315.25 114.62 C 312.98 114.88 305.06 116.15 302.62 116.62 C 300.19 117.10 301.56 117.33 300.62 117.50 C 299.69 117.67 297.77 117.48 297.00 117.62 C 296.23 117.77 296.85 118.21 296.00 118.38 C 295.15 118.54 292.79 118.46 291.88 118.62 C 290.96 118.79 291.42 119.21 290.50 119.38 C 289.58 119.54 287.31 119.40 286.38 119.62 C 285.44 119.85 285.10 120.38 284.88 120.75 C 284.65 121.12 284.69 121.33 285.00 121.88 C 285.31 122.42 286.12 122.83 286.75 124.00 C 287.38 125.17 288.06 126.69 288.75 128.88 C 289.44 131.06 290.56 129.27 290.88 137.12 C 291.19 144.98 290.48 168.23 290.62 176.00 C 290.77 183.77 291.54 178.10 291.75 183.75 C 291.96 189.40 291.77 205.17 291.88 209.88 C 291.98 214.58 288.79 211.67 292.38 212.00 C 295.96 212.33 309.79 212.02 313.38 211.88 C 316.96 211.73 313.46 216.56 313.88 211.12 C 314.29 205.69 315.46 184.71 315.88 179.25 C 316.29 173.79 316.19 179.29 316.38 178.38 C 316.56 177.46 316.90 176.98 317.00 173.75 C 317.10 170.52 316.81 164.58 317.00 159.00 C 317.19 153.42 317.65 145.54 318.12 140.25 C 318.60 134.96 319.60 130.12 319.88 127.25 C 320.15 124.38 319.94 124.02 319.75 123.00 C 319.56 121.98 319.46 121.98 318.75 121.12 C 318.04 120.27 316.50 118.71 315.50 117.88 C 314.50 117.04 313.15 116.52 312.75 116.12 C 312.35 115.73 312.62 115.60 313.12 115.50 C 313.62 115.40 315.23 115.56 315.75 115.50 C 316.27 115.44 316.33 115.27 316.25 115.12 C 316.17 114.98 317.52 114.38 315.25 114.62 Z" id="s-9-f-1"/>
<path d="M 316.12 114.88 C 315.85 114.75 315.90 114.50 314.50 114.62 C 313.10 114.75 309.15 115.33 307.75 115.62 C 306.35 115.92 306.98 116.21 306.12 116.38 C 305.27 116.54 303.42 116.46 302.62 116.62 C 301.83 116.79 302.31 117.21 301.38 117.38 C 300.44 117.54 298.00 117.44 297.00 117.62 C 296.00 117.81 297.15 118.17 295.38 118.50 C 293.60 118.83 288.10 119.29 286.38 119.62 C 284.65 119.96 285.23 120.12 285.00 120.50 C 284.77 120.88 284.71 121.29 285.00 121.88 C 285.29 122.46 286.12 122.83 286.75 124.00 C 287.38 125.17 288.08 126.83 288.75 128.88 C 289.42 130.92 290.40 130.56 290.75 136.25 C 291.10 141.94 290.79 158.38 290.88 163.00 C 290.96 167.62 287.00 163.79 291.25 164.00 C 295.50 164.21 312.06 164.27 316.38 164.25 C 320.69 164.23 317.02 164.69 317.12 163.88 C 317.23 163.06 316.83 163.31 317.00 159.38 C 317.17 155.44 317.79 144.79 318.12 140.25 C 318.46 135.71 318.73 133.94 319.00 132.12 C 319.27 130.31 319.60 130.73 319.75 129.38 C 319.90 128.02 319.92 125.17 319.88 124.00 C 319.83 122.83 319.88 123.06 319.50 122.38 C 319.12 121.69 318.75 120.92 317.62 119.88 C 316.50 118.83 313.50 116.85 312.75 116.12 C 312.00 115.40 312.56 115.62 313.12 115.50 C 313.69 115.38 315.62 115.48 316.12 115.38 C 316.62 115.27 316.40 115.00 316.12 114.88 Z" id="s-9-f-2"/>
</g>
<g id="s-10" clip-path="url(#c-s-10)">
<use href="#s-10-f-0"/>
<path d="M 344.75 223.12 C 344.19 220.10 343.25 222.19 341.50 222.00 C 339.75 221.81 338.40 221.54 334.25 222.00 C 330.10 222.46 321.17 224.31 316.62 224.75 C 312.08 225.19 309.08 224.52 307.00 224.62 C 304.92 224.73 306.04 225.19 304.12 225.38 C 302.21 225.56 297.62 225.50 295.50 225.75 C 293.38 226.00 299.04 226.19 291.38 226.88 C 283.71 227.56 256.65 229.31 249.50 229.88 C 242.35 230.44 248.58 228.35 248.50 230.25 C 248.42 232.15 248.71 238.79 249.00 241.25 C 249.29 243.71 249.50 244.25 250.25 245.00 C 251.00 245.75 251.40 245.60 253.50 245.75 C 255.60 245.90 247.75 246.71 262.88 245.88 C 278.00 245.04 330.58 241.71 344.25 240.75 C 357.92 239.79 344.79 243.06 344.88 240.12 C 344.96 237.19 345.31 226.15 344.75 223.12 Z" id="s-10-f-1"/>
<path d="M 296.88 226.25 C 296.67 223.44 296.67 225.52 295.75 225.62 C 294.83 225.73 295.85 226.35 291.38 226.88 C 286.90 227.40 274.58 228.38 268.88 228.75 C 263.17 229.12 260.50 228.90 257.12 229.12 C 253.75 229.35 250.04 228.65 248.62 230.12 C 247.21 231.60 248.48 235.58 248.62 238.00 C 248.77 240.42 248.71 243.33 249.50 244.62 C 250.29 245.92 251.10 245.54 253.38 245.75 C 255.65 245.96 255.96 246.19 263.12 245.88 C 270.29 245.56 290.73 244.44 296.38 243.88 C 302.02 243.31 296.92 245.44 297.00 242.50 C 297.08 239.56 297.08 229.06 296.88 226.25 Z" id="s-10-f-2"/>
</g>
<g id="s-11" clip-path="url(#c-s-11)">
<use href="#s-11-f-0"/>
<path d="M 207.62 297.00 C 207.00 296.65 206.60 296.60 206.00 297.00 C 205.40 297.40 204.54 298.00 204.00 299.38 C 203.46 300.75 203.44 302.88 202.75 305.25 C 202.06 307.62 202.50 307.10 199.88 313.62 C 197.25 320.15 185.83 339.15 187.00 344.38 C 188.17 349.60 202.06 344.96 206.88 345.00 C 211.69 345.04 214.06 346.81 215.88 344.62 C 217.69 342.44 217.46 336.06 217.75 331.88 C 218.04 327.69 218.31 323.60 217.62 319.50 C 216.94 315.40 214.94 310.65 213.62 307.25 C 212.31 303.85 210.75 300.83 209.75 299.12 C 208.75 297.42 208.25 297.35 207.62 297.00 Z" id="s-11-f-1"/>
</g>
<g id="s-12" clip-path="url(#c-s-12)">
<use href="#s-12-f-0"/>
<path d="M 232.25 289.00 C 232.04 289.56 231.73 290.38 232.00 291.25 C 232.27 292.12 232.58 290.73 233.88 294.25 C 235.17 297.77 237.90 305.96 239.75 312.38 C 241.60 318.79 243.44 327.29 245.00 332.75 C 246.56 338.21 247.60 341.06 249.12 345.12 C 250.65 349.19 251.98 352.62 254.12 357.12 C 256.27 361.62 259.79 368.35 262.00 372.12 C 264.21 375.90 264.35 376.44 267.38 379.75 C 270.40 383.06 276.25 388.67 280.12 392.00 C 284.00 395.33 286.54 397.12 290.62 399.75 C 294.71 402.38 301.21 405.92 304.62 407.75 C 308.04 409.58 308.60 409.75 311.12 410.75 C 313.65 411.75 314.85 412.42 319.75 413.75 C 324.65 415.08 334.00 417.58 340.50 418.75 C 347.00 419.92 351.60 420.46 358.75 420.75 C 365.90 421.04 376.58 420.85 383.38 420.50 C 390.17 420.15 395.27 419.25 399.50 418.62 C 403.73 418.00 405.92 417.40 408.75 416.75 C 411.58 416.10 413.27 415.75 416.50 414.75 C 419.73 413.75 425.40 411.77 428.12 410.75 C 430.85 409.73 430.40 409.96 432.88 408.62 C 435.35 407.29 440.67 404.23 443.00 402.75 C 445.33 401.27 445.42 401.15 446.88 399.75 C 448.33 398.35 450.75 395.85 451.75 394.38 C 452.75 392.90 452.73 392.19 452.88 390.88 C 453.02 389.56 452.96 387.92 452.62 386.50 C 452.29 385.08 451.71 383.69 450.88 382.38 C 450.04 381.06 449.02 379.85 447.62 378.62 C 446.23 377.40 446.06 376.98 442.50 375.00 C 438.94 373.02 431.17 369.46 426.25 366.75 C 421.33 364.04 417.67 361.79 413.00 358.75 C 408.33 355.71 403.29 352.29 398.25 348.50 C 393.21 344.71 386.40 338.12 382.75 336.00 C 379.10 333.88 377.60 335.67 376.38 335.75 C 375.15 335.83 375.10 335.38 375.38 336.50 C 375.65 337.62 376.44 339.73 378.00 342.50 C 379.56 345.27 382.96 350.12 384.75 353.12 C 386.54 356.12 387.42 357.77 388.75 360.50 C 390.08 363.23 391.92 367.29 392.75 369.50 C 393.58 371.71 393.58 372.65 393.75 373.75 C 393.92 374.85 393.92 375.35 393.75 376.12 C 393.58 376.90 393.54 377.44 392.75 378.38 C 391.96 379.31 390.83 380.69 389.00 381.75 C 387.17 382.81 384.94 383.75 381.75 384.75 C 378.56 385.75 374.46 386.94 369.88 387.75 C 365.29 388.56 359.08 389.29 354.25 389.62 C 349.42 389.96 344.92 389.90 340.88 389.75 C 336.83 389.60 333.44 389.25 330.00 388.75 C 326.56 388.25 323.46 387.58 320.25 386.75 C 317.04 385.92 313.85 384.92 310.75 383.75 C 307.65 382.58 304.79 381.46 301.62 379.75 C 298.46 378.04 294.79 375.69 291.75 373.50 C 288.71 371.31 285.75 368.79 283.38 366.62 C 281.00 364.46 280.02 363.71 277.50 360.50 C 274.98 357.29 270.67 351.25 268.25 347.38 C 265.83 343.50 264.67 340.96 263.00 337.25 C 261.33 333.54 259.75 329.81 258.25 325.12 C 256.75 320.44 254.94 313.31 254.00 309.12 C 253.06 304.94 253.00 301.96 252.62 300.00 C 252.25 298.04 252.23 298.33 251.75 297.38 C 251.27 296.42 251.10 295.65 249.75 294.25 C 248.40 292.85 245.23 290.19 243.62 289.00 C 242.02 287.81 241.52 287.46 240.12 287.12 C 238.73 286.79 236.40 286.88 235.25 287.00 C 234.10 287.12 233.75 287.54 233.25 287.88 C 232.75 288.21 232.46 288.44 232.25 289.00 Z" id="s-12-f-1"/>
<path d="M 232.25 289.00 C 232.04 289.56 231.73 290.38 232.00 291.25 C 232.27 292.12 232.94 291.90 233.88 294.25 C 234.81 296.60 235.77 298.96 237.62 305.38 C 239.48 311.79 243.08 326.12 245.00 332.75 C 246.92 339.38 247.60 341.06 249.12 345.12 C 250.65 349.19 251.98 352.62 254.12 357.12 C 256.27 361.62 259.98 368.56 262.00 372.12 C 264.02 375.69 263.67 375.56 266.25 378.50 C 268.83 381.44 273.44 386.21 277.50 389.75 C 281.56 393.29 286.10 396.75 290.62 399.75 C 295.15 402.75 301.21 405.92 304.62 407.75 C 308.04 409.58 308.60 409.75 311.12 410.75 C 313.65 411.75 316.48 412.75 319.75 413.75 C 323.02 414.75 327.29 415.92 330.75 416.75 C 334.21 417.58 335.81 418.08 340.50 418.75 C 345.19 419.42 351.73 420.46 358.88 420.75 C 366.02 421.04 376.60 420.85 383.38 420.50 C 390.15 420.15 395.27 419.25 399.50 418.62 C 403.73 418.00 405.92 417.40 408.75 416.75 C 411.58 416.10 413.27 415.75 416.50 414.75 C 419.73 413.75 425.40 411.77 428.12 410.75 C 430.85 409.73 430.40 409.96 432.88 408.62 C 435.35 407.29 440.35 404.52 443.00 402.75 C 445.65 400.98 447.29 399.40 448.75 398.00 C 450.21 396.60 451.08 395.38 451.75 394.38 C 452.42 393.38 452.56 393.00 452.75 392.00 C 452.94 391.00 453.06 389.77 452.88 388.38 C 452.69 386.98 452.50 385.25 451.62 383.62 C 450.75 382.00 448.88 379.90 447.62 378.62 C 446.38 377.35 445.38 376.79 444.12 376.00 C 442.88 375.21 441.38 374.21 440.12 373.88 C 438.88 373.54 444.92 372.67 436.62 374.00 C 428.33 375.33 400.71 379.75 390.38 381.88 C 380.04 384.00 379.08 385.60 374.62 386.75 C 370.17 387.90 367.04 388.27 363.62 388.75 C 360.21 389.23 358.50 389.48 354.12 389.62 C 349.75 389.77 342.33 389.94 337.38 389.62 C 332.42 389.31 328.81 388.73 324.38 387.75 C 319.94 386.77 314.54 385.08 310.75 383.75 C 306.96 382.42 305.00 381.60 301.62 379.75 C 298.25 377.90 293.46 374.73 290.50 372.62 C 287.54 370.52 286.38 369.56 283.88 367.12 C 281.38 364.69 278.10 361.29 275.50 358.00 C 272.90 354.71 270.33 350.83 268.25 347.38 C 266.17 343.92 264.67 340.96 263.00 337.25 C 261.33 333.54 259.75 329.81 258.25 325.12 C 256.75 320.44 254.94 313.31 254.00 309.12 C 253.06 304.94 253.00 301.96 252.62 300.00 C 252.25 298.04 252.23 298.33 251.75 297.38 C 251.27 296.42 251.04 295.60 249.75 294.25 C 248.46 292.90 245.60 290.44 244.00 289.25 C 242.40 288.06 241.58 287.50 240.12 287.12 C 238.67 286.75 236.40 286.88 235.25 287.00 C 234.10 287.12 233.75 287.54 233.25 287.88 C 232.75 288.21 232.46 288.44 232.25 289.00 Z" id="s-12-f-2"/>
<path d="M 232.25 289.00 C 232.04 289.56 231.73 290.38 232.00 291.25 C 232.27 292.12 232.94 291.90 233.88 294.25 C 234.81 296.60 235.44 297.90 237.62 305.38 C 239.81 312.85 244.77 331.69 247.00 339.12 C 249.23 346.56 249.17 345.71 251.00 350.00 C 252.83 354.29 255.67 360.42 258.00 364.88 C 260.33 369.33 263.17 373.98 265.00 376.75 C 266.83 379.52 266.92 379.33 269.00 381.50 C 271.08 383.67 273.90 386.71 277.50 389.75 C 281.10 392.79 286.44 396.92 290.62 399.75 C 294.81 402.58 298.77 404.75 302.62 406.75 C 306.48 408.75 309.06 410.08 313.75 411.75 C 318.44 413.42 325.17 415.42 330.75 416.75 C 336.33 418.08 341.81 419.06 347.25 419.75 C 352.69 420.44 357.96 420.71 363.38 420.88 C 368.79 421.04 375.06 420.94 379.75 420.75 C 384.44 420.56 386.67 420.42 391.50 419.75 C 396.33 419.08 404.58 417.58 408.75 416.75 C 412.92 415.92 414.00 415.52 416.50 414.75 C 419.00 413.98 422.52 418.44 423.75 412.12 C 424.98 405.81 423.92 382.79 423.88 376.88 C 423.83 370.96 429.08 375.79 423.50 376.62 C 417.92 377.46 398.52 380.19 390.38 381.88 C 382.23 383.56 379.08 385.60 374.62 386.75 C 370.17 387.90 367.02 388.27 363.62 388.75 C 360.23 389.23 357.98 389.46 354.25 389.62 C 350.52 389.79 345.29 389.90 341.25 389.75 C 337.21 389.60 334.10 389.42 330.00 388.75 C 325.90 388.08 319.83 386.58 316.62 385.75 C 313.42 384.92 313.25 384.75 310.75 383.75 C 308.25 382.75 304.50 381.25 301.62 379.75 C 298.75 378.25 296.21 376.62 293.50 374.75 C 290.79 372.88 288.04 370.88 285.38 368.50 C 282.71 366.12 279.58 362.85 277.50 360.50 C 275.42 358.15 274.75 357.17 272.88 354.38 C 271.00 351.58 268.08 347.04 266.25 343.75 C 264.42 340.46 263.21 337.75 261.88 334.62 C 260.54 331.50 259.56 329.25 258.25 325.00 C 256.94 320.75 254.94 313.29 254.00 309.12 C 253.06 304.96 253.00 301.96 252.62 300.00 C 252.25 298.04 252.23 298.33 251.75 297.38 C 251.27 296.42 250.96 295.54 249.75 294.25 C 248.54 292.96 246.08 290.81 244.50 289.62 C 242.92 288.44 241.79 287.56 240.25 287.12 C 238.71 286.69 236.42 286.88 235.25 287.00 C 234.08 287.12 233.75 287.54 233.25 287.88 C 232.75 288.21 232.46 288.44 232.25 289.00 Z" id="s-12-f-3"/>
<path d="M 232.88 288.25 C 232.35 288.65 232.27 288.88 232.12 289.38 C 231.98 289.88 231.71 290.44 232.00 291.25 C 232.29 292.06 232.58 290.73 233.88 294.25 C 235.17 297.77 237.88 305.90 239.75 312.38 C 241.62 318.85 243.25 326.85 245.12 333.12 C 247.00 339.40 249.19 345.35 251.00 350.00 C 252.81 354.65 254.00 357.06 256.00 361.00 C 258.00 364.94 261.29 370.71 263.00 373.62 C 264.71 376.54 264.35 376.29 266.25 378.50 C 268.15 380.71 271.46 384.15 274.38 386.88 C 277.29 389.60 279.94 392.04 283.75 394.88 C 287.56 397.71 293.06 401.40 297.25 403.88 C 301.44 406.35 305.65 408.27 308.88 409.75 C 312.10 411.23 312.98 411.58 316.62 412.75 C 320.27 413.92 325.65 415.58 330.75 416.75 C 335.85 417.92 342.58 419.08 347.25 419.75 C 351.92 420.42 354.00 420.60 358.75 420.75 C 363.50 420.90 372.88 425.92 375.75 420.62 C 378.62 415.33 376.04 394.67 376.00 389.00 C 375.96 383.33 377.56 386.67 375.50 386.62 C 373.44 386.58 367.17 388.25 363.62 388.75 C 360.08 389.25 358.62 389.48 354.25 389.62 C 349.88 389.77 341.42 389.77 337.38 389.62 C 333.33 389.48 332.85 389.23 330.00 388.75 C 327.15 388.27 323.46 387.58 320.25 386.75 C 317.04 385.92 313.85 384.92 310.75 383.75 C 307.65 382.58 304.50 381.25 301.62 379.75 C 298.75 378.25 296.21 376.62 293.50 374.75 C 290.79 372.88 288.04 370.88 285.38 368.50 C 282.71 366.12 279.58 362.85 277.50 360.50 C 275.42 358.15 274.79 357.23 272.88 354.38 C 270.96 351.52 267.83 346.67 266.00 343.38 C 264.17 340.08 263.17 337.69 261.88 334.62 C 260.58 331.56 259.56 329.23 258.25 325.00 C 256.94 320.77 254.94 313.42 254.00 309.25 C 253.06 305.08 253.00 301.98 252.62 300.00 C 252.25 298.02 252.23 298.33 251.75 297.38 C 251.27 296.42 251.10 295.65 249.75 294.25 C 248.40 292.85 245.21 290.19 243.62 289.00 C 242.04 287.81 241.65 287.46 240.25 287.12 C 238.85 286.79 236.48 286.81 235.25 287.00 C 234.02 287.19 233.40 287.85 232.88 288.25 Z" id="s-12-f-4"/>
<path d="M 233.25 287.88 C 232.75 288.21 232.46 288.44 232.25 289.00 C 232.04 289.56 231.73 290.38 232.00 291.25 C 232.27 292.12 232.58 290.73 233.88 294.25 C 235.17 297.77 237.88 305.90 239.75 312.38 C 241.62 318.85 243.56 327.67 245.12 333.12 C 246.69 338.58 247.31 340.46 249.12 345.12 C 250.94 349.79 253.85 356.62 256.00 361.12 C 258.15 365.62 260.29 369.23 262.00 372.12 C 263.71 375.02 264.73 376.56 266.25 378.50 C 267.77 380.44 268.81 381.50 271.12 383.75 C 273.44 386.00 277.38 389.67 280.12 392.00 C 282.88 394.33 284.77 395.77 287.62 397.75 C 290.48 399.73 293.33 401.71 297.25 403.88 C 301.17 406.04 306.23 408.77 311.12 410.75 C 316.02 412.73 323.83 414.94 326.62 415.75 C 329.42 416.56 327.65 419.81 327.88 415.62 C 328.10 411.44 328.04 395.17 328.00 390.62 C 327.96 386.08 329.52 389.19 327.62 388.38 C 325.73 387.56 319.44 386.52 316.62 385.75 C 313.81 384.98 313.25 384.75 310.75 383.75 C 308.25 382.75 305.02 381.62 301.62 379.75 C 298.23 377.88 293.08 374.38 290.38 372.50 C 287.67 370.62 287.52 370.50 285.38 368.50 C 283.23 366.50 280.35 364.02 277.50 360.50 C 274.65 356.98 270.85 351.69 268.25 347.38 C 265.65 343.06 263.54 338.35 261.88 334.62 C 260.21 330.90 259.23 327.88 258.25 325.00 C 257.27 322.12 256.88 320.79 256.00 317.38 C 255.12 313.96 253.56 307.40 253.00 304.50 C 252.44 301.60 252.98 301.44 252.62 300.00 C 252.27 298.56 251.40 296.88 250.88 295.88 C 250.35 294.88 250.56 295.04 249.50 294.00 C 248.44 292.96 246.04 290.77 244.50 289.62 C 242.96 288.48 241.79 287.56 240.25 287.12 C 238.71 286.69 236.42 286.88 235.25 287.00 C 234.08 287.12 233.75 287.54 233.25 287.88 Z" id="s-12-f-5"/>
<path d="M 234.38 287.25 C 233.15 287.58 232.65 288.33 232.25 289.00 C 231.85 289.67 231.73 290.38 232.00 291.25 C 232.27 292.12 232.58 290.73 233.88 294.25 C 235.17 297.77 237.73 305.40 239.75 312.38 C 241.77 319.35 243.79 329.08 246.00 336.12 C 248.21 343.17 250.81 349.48 253.00 354.62 C 255.19 359.77 256.92 363.02 259.12 367.00 C 261.33 370.98 263.71 375.19 266.25 378.50 C 268.79 381.81 272.15 384.75 274.38 386.88 C 276.60 389.00 278.69 390.85 279.62 391.25 C 280.56 391.65 279.96 393.92 280.00 389.25 C 280.04 384.58 280.88 368.79 279.88 363.25 C 278.88 357.71 275.83 358.48 274.00 356.00 C 272.17 353.52 270.38 350.79 268.88 348.38 C 267.38 345.96 266.17 343.79 265.00 341.50 C 263.83 339.21 263.38 338.62 261.88 334.62 C 260.38 330.62 257.48 322.52 256.00 317.50 C 254.52 312.48 253.56 307.42 253.00 304.50 C 252.44 301.58 252.83 301.19 252.62 300.00 C 252.42 298.81 252.27 298.38 251.75 297.38 C 251.23 296.38 251.10 295.56 249.50 294.00 C 247.90 292.44 243.77 289.17 242.12 288.00 C 240.48 286.83 240.92 287.12 239.62 287.00 C 238.33 286.88 235.60 286.92 234.38 287.25 Z" id="s-12-f-6"/>
</g>
<g id="s-13" clip-path="url(#c-s-13)">
<use href="#s-13-f-0"/>
<path d="M 290.12 279.38 C 289.75 279.71 289.17 280.02 289.00 280.88 C 288.83 281.73 288.50 283.08 289.12 284.50 C 289.75 285.92 290.94 286.40 292.75 289.38 C 294.56 292.35 297.62 298.38 300.00 302.38 C 302.38 306.38 304.46 309.65 307.00 313.38 C 309.54 317.10 312.75 321.62 315.25 324.75 C 317.75 327.88 320.08 330.27 322.00 332.12 C 323.92 333.98 325.21 334.94 326.75 335.88 C 328.29 336.81 329.60 337.46 331.25 337.75 C 332.90 338.04 335.67 338.17 336.62 337.62 C 337.58 337.08 336.98 341.60 337.00 334.50 C 337.02 327.40 337.52 302.10 336.75 295.00 C 335.98 287.90 334.31 293.04 332.38 291.88 C 330.44 290.71 327.98 289.29 325.12 288.00 C 322.27 286.71 318.88 285.42 315.25 284.12 C 311.62 282.83 306.23 281.06 303.38 280.25 C 300.52 279.44 300.15 279.48 298.12 279.25 C 296.10 279.02 292.58 278.85 291.25 278.88 C 289.92 278.90 290.50 279.04 290.12 279.38 Z" id="s-13-f-1"/>
</g>
<g id="s-14" clip-path="url(#c-s-14)">
<use href="#s-14-f-0"/>
<path d="M 378.75 273.00 C 377.67 273.10 378.15 273.35 378.00 273.75 C 377.85 274.15 377.62 274.56 377.88 275.38 C 378.12 276.19 377.56 276.35 379.50 278.62 C 381.44 280.90 385.46 284.23 389.50 289.00 C 393.54 293.77 399.33 301.23 403.75 307.25 C 408.17 313.27 412.98 320.90 416.00 325.12 C 419.02 329.35 420.33 330.77 421.88 332.62 C 423.42 334.48 424.60 335.67 425.25 336.25 C 425.90 336.83 425.65 343.98 425.75 336.12 C 425.85 328.27 426.08 297.15 425.88 289.12 C 425.67 281.10 426.48 289.00 424.50 288.00 C 422.52 287.00 418.42 284.96 414.00 283.12 C 409.58 281.29 402.92 278.67 398.00 277.00 C 393.08 275.33 387.71 273.79 384.50 273.12 C 381.29 272.46 379.83 272.90 378.75 273.00 Z" id="s-14-f-1"/>
</g>
</svg>