<?xml version="1.0" encoding="UTF-8"?>
<svg xmlns="http://www.w3.org/2000/svg" viewBox="0 0 500 500">
<defs>
<path d="M 233.75 177.38 C 233.46 176.25 232.69 175.38 232.00 174.50 C 231.31 173.62 230.54 172.88 229.62 172.12 C 228.71 171.38 227.71 170.67 226.50 170.00 C 225.29 169.33 225.10 169.08 222.38 168.12 C 219.65 167.17 213.40 164.94 210.12 164.25 C 206.85 163.56 205.08 163.71 202.75 164.00 C 200.42 164.29 198.19 165.21 196.12 166.00 C 194.06 166.79 193.35 167.62 190.38 168.75 C 187.40 169.88 180.67 172.06 178.25 172.75 C 175.83 173.44 179.90 172.04 175.88 172.88 C 171.85 173.71 158.23 176.90 154.12 177.75 C 150.02 178.60 154.31 177.33 151.25 178.00 C 148.19 178.67 141.62 180.46 135.75 181.75 C 129.88 183.04 122.21 184.58 116.00 185.75 C 109.79 186.92 105.58 187.69 98.50 188.75 C 91.42 189.81 78.19 191.29 73.50 192.12 C 68.81 192.96 70.98 193.15 70.38 193.75 C 69.77 194.35 69.77 194.98 69.88 195.75 C 69.98 196.52 70.25 197.31 71.00 198.38 C 71.75 199.44 73.29 201.06 74.38 202.12 C 75.46 203.19 76.25 203.98 77.50 204.75 C 78.75 205.52 79.42 206.12 81.88 206.75 C 84.33 207.38 89.38 208.15 92.25 208.50 C 95.12 208.85 95.94 208.83 99.12 208.88 C 102.31 208.92 107.40 208.96 111.38 208.75 C 115.35 208.54 115.62 208.60 123.00 207.62 C 130.38 206.65 147.10 204.33 155.62 202.88 C 164.15 201.42 170.75 199.67 174.12 198.88 C 177.50 198.08 172.19 198.81 175.88 198.12 C 179.56 197.44 189.31 196.15 196.25 194.75 C 203.19 193.35 212.17 191.25 217.50 189.75 C 222.83 188.25 225.96 186.71 228.25 185.75 C 230.54 184.79 230.33 184.75 231.25 184.00 C 232.17 183.25 233.33 182.35 233.75 181.25 C 234.17 180.15 234.04 178.50 233.75 177.38 Z" id="s-0-f-0"/>
<clipPath id="c-s-0"><use href="#s-0-f-0"/></clipPath>
<path d="M 150.75 42.88 C 149.48 42.88 149.29 42.75 148.25 43.12 C 147.21 43.50 145.38 44.48 144.50 45.12 C 143.62 45.77 143.44 46.00 143.00 47.00 C 142.56 48.00 142.04 49.88 141.88 51.12 C 141.71 52.38 141.79 53.00 142.00 54.50 C 142.21 56.00 142.62 58.08 143.12 60.12 C 143.62 62.17 144.40 64.98 145.00 66.75 C 145.60 68.52 146.12 68.83 146.75 70.75 C 147.38 72.67 147.92 74.04 148.75 78.25 C 149.58 82.46 151.08 90.38 151.75 96.00 C 152.42 101.62 152.42 102.65 152.75 112.00 C 153.08 121.35 153.62 137.27 153.75 152.12 C 153.88 166.98 153.48 191.83 153.50 201.12 C 153.52 210.42 153.98 195.79 153.88 207.88 C 153.77 219.96 153.21 260.17 152.88 273.62 C 152.54 287.08 152.40 275.71 151.88 288.62 C 151.35 301.54 150.60 334.67 149.75 351.12 C 148.90 367.58 147.58 379.56 146.75 387.38 C 145.92 395.19 145.54 395.58 144.75 398.00 C 143.96 400.42 142.96 400.98 142.00 401.88 C 141.04 402.77 140.29 403.06 139.00 403.38 C 137.71 403.69 136.44 403.85 134.25 403.75 C 132.06 403.65 131.33 403.73 125.88 402.75 C 120.42 401.77 105.85 398.67 101.50 397.88 C 97.15 397.08 100.17 397.85 99.75 398.00 C 99.33 398.15 99.15 398.35 99.00 398.75 C 98.85 399.15 98.71 399.73 98.88 400.38 C 99.04 401.02 98.77 401.48 100.00 402.62 C 101.23 403.77 104.02 405.35 106.25 407.25 C 108.48 409.15 110.48 411.02 113.38 414.00 C 116.27 416.98 118.54 418.98 123.62 425.12 C 128.71 431.27 139.90 446.00 143.88 450.88 C 147.85 455.75 146.19 453.40 147.50 454.38 C 148.81 455.35 150.60 456.33 151.75 456.75 C 152.90 457.17 153.67 456.98 154.38 456.88 C 155.08 456.77 155.02 456.96 156.00 456.12 C 156.98 455.29 158.96 453.35 160.25 451.88 C 161.54 450.40 162.33 449.38 163.75 447.25 C 165.17 445.12 167.27 441.81 168.75 439.12 C 170.23 436.44 171.65 433.44 172.62 431.12 C 173.60 428.81 173.96 427.90 174.62 425.25 C 175.29 422.60 176.27 421.69 176.62 415.25 C 176.98 408.81 177.02 397.31 176.75 386.62 C 176.48 375.94 175.29 372.44 175.00 351.12 C 174.71 329.81 174.69 284.23 175.00 258.75 C 175.31 233.27 176.35 209.85 176.88 198.25 C 177.40 186.65 177.94 193.85 178.12 189.12 C 178.31 184.40 177.71 180.06 178.00 169.88 C 178.29 159.69 179.21 137.62 179.88 128.00 C 180.54 118.38 180.96 117.90 182.00 112.12 C 183.04 106.35 184.94 97.94 186.12 93.38 C 187.31 88.81 187.88 87.56 189.12 84.75 C 190.38 81.94 192.69 78.42 193.62 76.50 C 194.56 74.58 194.54 74.23 194.75 73.25 C 194.96 72.27 195.04 71.73 194.88 70.62 C 194.71 69.52 194.38 67.90 193.75 66.62 C 193.12 65.35 192.02 64.06 191.12 63.00 C 190.23 61.94 190.02 61.58 188.38 60.25 C 186.73 58.92 184.12 56.83 181.25 55.00 C 178.38 53.17 174.25 50.90 171.12 49.25 C 168.00 47.60 165.04 46.15 162.50 45.12 C 159.96 44.10 157.83 43.50 155.88 43.12 C 153.92 42.75 152.02 42.88 150.75 42.88 Z" id="s-1-f-0"/>
<clipPath id="c-s-1"><use href="#s-1-f-0"/></clipPath>
<path d="M 225.75 242.12 C 225.35 241.33 224.40 240.35 223.50 240.00 C 222.60 239.65 222.17 239.50 220.38 240.00 C 218.58 240.50 216.12 241.50 212.75 243.00 C 209.38 244.50 206.08 245.88 200.12 249.00 C 194.17 252.12 181.44 259.46 177.00 261.75 C 172.56 264.04 176.71 261.27 173.50 262.75 C 170.29 264.23 161.48 268.62 157.75 270.62 C 154.02 272.62 160.10 270.25 151.12 274.75 C 142.15 279.25 119.02 290.62 103.88 297.62 C 88.73 304.62 69.27 313.06 60.25 316.75 C 51.23 320.44 52.94 319.04 49.75 319.75 C 46.56 320.46 42.92 320.48 41.12 321.00 C 39.33 321.52 39.33 321.94 39.00 322.88 C 38.67 323.81 38.31 324.77 39.12 326.62 C 39.94 328.48 42.06 331.75 43.88 334.00 C 45.69 336.25 47.77 338.17 50.00 340.12 C 52.23 342.08 55.21 344.31 57.25 345.75 C 59.29 347.19 60.65 347.92 62.25 348.75 C 63.85 349.58 65.44 350.25 66.88 350.75 C 68.31 351.25 69.44 351.60 70.88 351.75 C 72.31 351.90 74.42 351.79 75.50 351.62 C 76.58 351.46 76.02 351.81 77.38 350.75 C 78.73 349.69 72.23 353.54 83.62 345.25 C 95.02 336.96 134.79 308.60 145.75 301.00 C 156.71 293.40 148.38 300.10 149.38 299.62 C 150.38 299.15 151.19 298.38 151.75 298.12 C 152.31 297.88 152.33 298.31 152.75 298.12 C 153.17 297.94 153.96 297.31 154.25 297.00 C 154.54 296.69 154.31 296.38 154.50 296.25 C 154.69 296.12 152.33 298.27 155.38 296.25 C 158.42 294.23 169.62 286.46 172.75 284.12 C 175.88 281.79 173.83 282.50 174.12 282.25 C 174.42 282.00 174.15 282.83 174.50 282.62 C 174.85 282.42 173.46 282.81 176.25 281.00 C 179.04 279.19 185.08 275.79 191.25 271.75 C 197.42 267.71 208.21 260.29 213.25 256.75 C 218.29 253.21 219.56 252.12 221.50 250.50 C 223.44 248.88 224.15 247.96 224.88 247.00 C 225.60 246.04 225.73 245.56 225.88 244.75 C 226.02 243.94 226.15 242.92 225.75 242.12 Z" id="s-2-f-0"/>
<clipPath id="c-s-2"><use href="#s-2-f-0"/></clipPath>
<path d="M 421.12 176.00 C 419.04 175.52 422.29 174.79 416.38 176.25 C 410.46 177.71 392.00 183.12 385.62 184.75 C 379.25 186.38 379.65 185.67 378.12 186.00 C 376.60 186.33 377.25 186.58 376.50 186.75 C 375.75 186.92 374.38 186.83 373.62 187.00 C 372.88 187.17 373.58 187.42 372.00 187.75 C 370.42 188.08 367.40 188.33 364.12 189.00 C 360.85 189.67 354.81 191.27 352.38 191.75 C 349.94 192.23 357.38 190.54 349.50 191.88 C 341.62 193.21 316.92 197.77 305.12 199.75 C 293.33 201.73 286.25 202.73 278.75 203.75 C 271.25 204.77 266.67 205.31 260.12 205.88 C 253.58 206.44 243.35 206.77 239.50 207.12 C 235.65 207.48 237.60 207.62 237.00 208.00 C 236.40 208.38 235.83 208.69 235.88 209.38 C 235.92 210.06 236.44 211.08 237.25 212.12 C 238.06 213.17 239.21 214.33 240.75 215.62 C 242.29 216.92 244.50 218.54 246.50 219.88 C 248.50 221.21 250.46 222.50 252.75 223.62 C 255.04 224.75 258.40 225.96 260.25 226.62 C 262.10 227.29 262.73 227.42 263.88 227.62 C 265.02 227.83 265.35 227.88 267.12 227.88 C 268.90 227.88 272.48 227.83 274.50 227.62 C 276.52 227.42 275.08 227.73 279.25 226.62 C 283.42 225.52 293.31 222.60 299.50 221.00 C 305.69 219.40 311.42 218.04 316.38 217.00 C 321.33 215.96 324.38 215.75 329.25 214.75 C 334.12 213.75 342.42 211.67 345.62 211.00 C 348.83 210.33 347.71 210.92 348.50 210.75 C 349.29 210.58 345.21 210.79 350.38 210.00 C 355.54 209.21 372.25 206.83 379.50 206.00 C 386.75 205.17 390.48 205.15 393.88 205.00 C 397.27 204.85 398.21 204.98 399.88 205.12 C 401.54 205.27 402.38 205.38 403.88 205.88 C 405.38 206.38 407.60 207.31 408.88 208.12 C 410.15 208.94 410.85 209.96 411.50 210.75 C 412.15 211.54 412.40 211.96 412.75 212.88 C 413.10 213.79 413.44 215.06 413.62 216.25 C 413.81 217.44 414.02 214.81 413.88 220.00 C 413.73 225.19 413.44 237.85 412.75 247.38 C 412.06 256.90 410.92 267.40 409.75 277.12 C 408.58 286.85 407.29 296.15 405.75 305.75 C 404.21 315.35 402.33 325.65 400.50 334.75 C 398.67 343.85 396.69 352.77 394.75 360.38 C 392.81 367.98 390.54 375.29 388.88 380.38 C 387.21 385.46 386.10 387.90 384.75 390.88 C 383.40 393.85 381.79 396.52 380.75 398.25 C 379.71 399.98 379.40 400.25 378.50 401.25 C 377.60 402.25 376.48 403.50 375.38 404.25 C 374.27 405.00 373.27 405.54 371.88 405.75 C 370.48 405.96 369.73 406.00 367.00 405.50 C 364.27 405.00 359.88 404.04 355.50 402.75 C 351.12 401.46 345.21 399.38 340.75 397.75 C 336.29 396.12 331.21 393.73 328.75 393.00 C 326.29 392.27 326.44 393.15 326.00 393.38 C 325.56 393.60 324.62 392.33 326.12 394.38 C 327.62 396.42 331.52 400.94 335.00 405.62 C 338.48 410.31 344.04 418.21 347.00 422.50 C 349.96 426.79 350.17 427.04 352.75 431.38 C 355.33 435.71 360.23 444.96 362.50 448.50 C 364.77 452.04 365.04 451.58 366.38 452.62 C 367.71 453.67 368.92 454.40 370.50 454.75 C 372.08 455.10 374.00 455.10 375.88 454.75 C 377.75 454.40 379.08 454.10 381.75 452.62 C 384.42 451.15 389.15 447.98 391.88 445.88 C 394.60 443.77 396.31 441.94 398.12 440.00 C 399.94 438.06 400.85 437.04 402.75 434.25 C 404.65 431.46 407.69 426.52 409.50 423.25 C 411.31 419.98 412.25 417.79 413.62 414.62 C 415.00 411.46 416.06 409.17 417.75 404.25 C 419.44 399.33 421.92 391.96 423.75 385.12 C 425.58 378.29 426.42 376.08 428.75 363.25 C 431.08 350.42 435.21 325.31 437.75 308.12 C 440.29 290.94 442.46 270.96 444.00 260.12 C 445.54 249.29 445.81 248.35 447.00 243.12 C 448.19 237.90 449.33 233.42 451.12 228.75 C 452.92 224.08 456.31 218.38 457.75 215.12 C 459.19 211.88 459.42 210.98 459.75 209.25 C 460.08 207.52 459.92 205.92 459.75 204.75 C 459.58 203.58 459.52 203.52 458.75 202.25 C 457.98 200.98 456.48 198.73 455.12 197.12 C 453.77 195.52 453.00 194.62 450.62 192.62 C 448.25 190.62 444.50 187.38 440.88 185.12 C 437.25 182.88 432.17 180.65 428.88 179.12 C 425.58 177.60 423.21 176.48 421.12 176.00 Z" id="s-3-f-0"/>
<clipPath id="c-s-3"><use href="#s-3-f-0"/></clipPath>
<path d="M 354.38 55.12 C 352.38 54.31 350.48 53.48 348.50 53.12 C 346.52 52.77 343.85 52.85 342.50 53.00 C 341.15 53.15 341.10 53.27 340.38 54.00 C 339.65 54.73 338.52 56.02 338.12 57.38 C 337.73 58.73 337.90 60.29 338.00 62.12 C 338.10 63.96 338.62 64.23 338.75 68.38 C 338.88 72.52 338.92 81.29 338.75 87.00 C 338.58 92.71 338.58 94.79 337.75 102.62 C 336.92 110.46 335.08 125.02 333.75 134.00 C 332.42 142.98 331.75 146.02 329.75 156.50 C 327.75 166.98 323.17 190.06 321.75 196.88 C 320.33 203.69 321.27 197.23 321.25 197.38 C 321.23 197.52 321.62 197.60 321.62 197.75 C 321.62 197.90 321.46 198.19 321.25 198.25 C 321.04 198.31 320.52 197.60 320.38 198.12 C 320.23 198.65 320.50 200.65 320.38 201.38 C 320.25 202.10 319.79 201.83 319.62 202.50 C 319.46 203.17 319.54 204.71 319.38 205.38 C 319.21 206.04 318.79 205.83 318.62 206.50 C 318.46 207.17 318.54 208.71 318.38 209.38 C 318.21 210.04 317.81 209.77 317.62 210.50 C 317.44 211.23 317.42 213.08 317.25 213.75 C 317.08 214.42 316.73 213.94 316.62 214.50 C 316.52 215.06 317.60 212.83 316.62 217.12 C 315.65 221.42 312.94 232.27 310.75 240.25 C 308.56 248.23 306.35 256.52 303.50 265.00 C 300.65 273.48 297.10 282.56 293.62 291.12 C 290.15 299.69 285.50 310.04 282.62 316.38 C 279.75 322.71 278.88 324.35 276.38 329.12 C 273.88 333.90 270.35 340.35 267.62 345.00 C 264.90 349.65 261.81 353.96 260.00 357.00 C 258.19 360.04 259.10 359.35 256.75 363.25 C 254.40 367.15 248.83 375.90 245.88 380.38 C 242.92 384.85 242.65 385.17 239.00 390.12 C 235.35 395.08 229.60 402.96 224.00 410.12 C 218.40 417.29 208.52 429.06 205.38 433.12 C 202.23 437.19 204.94 434.06 205.12 434.50 C 205.31 434.94 205.52 435.54 206.50 435.75 C 207.48 435.96 209.38 436.08 211.00 435.75 C 212.62 435.42 212.73 435.56 216.25 433.75 C 219.77 431.94 227.40 428.15 232.12 424.88 C 236.85 421.60 240.71 417.81 244.62 414.12 C 248.54 410.44 252.48 406.19 255.62 402.75 C 258.77 399.31 259.81 398.23 263.50 393.50 C 267.19 388.77 273.71 380.08 277.75 374.38 C 281.79 368.67 284.92 363.75 287.75 359.25 C 290.58 354.75 291.44 353.52 294.75 347.38 C 298.06 341.23 303.12 332.00 307.62 322.38 C 312.12 312.75 317.90 299.46 321.75 289.62 C 325.60 279.79 326.73 276.44 330.75 263.38 C 334.77 250.31 343.25 220.08 345.88 211.25 C 348.50 202.42 345.85 210.54 346.50 210.38 C 347.15 210.21 349.35 210.38 349.75 210.25 C 350.15 210.12 349.10 209.62 348.88 209.62 C 348.65 209.62 348.79 210.19 348.38 210.25 C 347.96 210.31 346.56 210.12 346.38 210.00 C 346.19 209.88 347.10 209.83 347.25 209.50 C 347.40 209.17 347.10 208.50 347.25 208.00 C 347.40 207.50 347.94 207.12 348.12 206.50 C 348.31 205.88 348.21 204.79 348.38 204.25 C 348.54 203.71 348.96 203.79 349.12 203.25 C 349.29 202.71 349.21 201.52 349.38 201.00 C 349.54 200.48 349.96 200.62 350.12 200.12 C 350.29 199.62 350.21 198.52 350.38 198.00 C 350.54 197.48 350.85 197.71 351.12 197.00 C 351.40 196.29 351.83 194.73 352.00 193.75 C 352.17 192.77 351.35 194.40 352.12 191.12 C 352.90 187.85 354.88 181.42 356.62 174.12 C 358.38 166.83 360.40 158.02 362.62 147.38 C 364.85 136.73 368.27 118.40 370.00 110.25 C 371.73 102.10 371.92 102.17 373.00 98.50 C 374.08 94.83 375.73 90.83 376.50 88.25 C 377.27 85.67 377.42 85.40 377.62 83.00 C 377.83 80.60 377.90 75.81 377.75 73.88 C 377.60 71.94 377.17 72.12 376.75 71.38 C 376.33 70.62 376.85 70.96 375.25 69.38 C 373.65 67.79 369.58 63.77 367.12 61.88 C 364.67 59.98 362.62 59.12 360.50 58.00 C 358.38 56.88 356.38 55.94 354.38 55.12 Z" id="s-4-f-0"/>
<clipPath id="c-s-4"><use href="#s-4-f-0"/></clipPath>
</defs>
<g id="s-0" clip-path="url(#c-s-0)">
<use href="#s-0-f-0"/>
<path d="M 213.88 165.62 C 213.81 161.44 214.27 165.27 213.38 165.00 C 212.48 164.73 210.48 164.12 208.50 164.00 C 206.52 163.88 203.56 163.92 201.50 164.25 C 199.44 164.58 198.38 165.10 196.12 166.00 C 193.88 166.90 190.98 168.50 188.00 169.62 C 185.02 170.75 180.27 172.21 178.25 172.75 C 176.23 173.29 179.90 172.04 175.88 172.88 C 171.85 173.71 158.23 176.90 154.12 177.75 C 150.02 178.60 154.31 177.33 151.25 178.00 C 148.19 178.67 141.62 180.46 135.75 181.75 C 129.88 183.04 122.21 184.58 116.00 185.75 C 109.79 186.92 105.58 187.69 98.50 188.75 C 91.42 189.81 78.25 191.23 73.50 192.12 C 68.75 193.02 70.58 193.40 70.00 194.12 C 69.42 194.85 69.71 195.62 70.00 196.50 C 70.29 197.38 70.81 198.25 71.75 199.38 C 72.69 200.50 74.46 202.23 75.62 203.25 C 76.79 204.27 77.71 204.92 78.75 205.50 C 79.79 206.08 79.25 206.21 81.88 206.75 C 84.50 207.29 90.17 208.40 94.50 208.75 C 98.83 209.10 103.12 209.06 107.88 208.88 C 112.62 208.69 115.17 208.60 123.00 207.62 C 130.83 206.65 146.35 204.46 154.88 203.00 C 163.40 201.54 170.62 199.69 174.12 198.88 C 177.62 198.06 172.19 198.81 175.88 198.12 C 179.56 197.44 190.02 195.98 196.25 194.75 C 202.48 193.52 210.33 191.52 213.25 190.75 C 216.17 189.98 213.65 194.31 213.75 190.12 C 213.85 185.94 213.94 169.81 213.88 165.62 Z" id="s-0-f-1"/>
<path d="M 165.88 175.62 C 165.71 171.77 173.31 173.56 165.00 175.25 C 156.69 176.94 127.08 183.50 116.00 185.75 C 104.92 188.00 105.58 187.69 98.50 188.75 C 91.42 189.81 78.25 191.23 73.50 192.12 C 68.75 193.02 70.58 193.40 70.00 194.12 C 69.42 194.85 69.54 195.44 70.00 196.50 C 70.46 197.56 71.29 199.00 72.75 200.50 C 74.21 202.00 77.23 204.46 78.75 205.50 C 80.27 206.54 79.25 206.21 81.88 206.75 C 84.50 207.29 89.58 208.42 94.50 208.75 C 99.42 209.08 106.62 208.94 111.38 208.75 C 116.12 208.56 115.75 208.58 123.00 207.62 C 130.25 206.67 147.90 204.12 154.88 203.00 C 161.85 201.88 163.04 201.33 164.88 200.88 C 166.71 200.42 165.69 200.67 165.88 200.25 C 166.06 199.83 166.00 202.48 166.00 198.38 C 166.00 194.27 166.04 179.48 165.88 175.62 Z" id="s-0-f-2"/>
<path d="M 117.88 185.88 C 117.69 183.23 120.10 184.90 116.88 185.38 C 113.65 185.85 105.73 187.62 98.50 188.75 C 91.27 189.88 78.25 191.23 73.50 192.12 C 68.75 193.02 70.58 193.40 70.00 194.12 C 69.42 194.85 69.71 195.62 70.00 196.50 C 70.29 197.38 70.81 198.25 71.75 199.38 C 72.69 200.50 74.46 202.23 75.62 203.25 C 76.79 204.27 77.71 204.92 78.75 205.50 C 79.79 206.08 79.25 206.21 81.88 206.75 C 84.50 207.29 90.17 208.40 94.50 208.75 C 98.83 209.10 104.12 208.98 107.88 208.88 C 111.62 208.77 115.38 208.31 117.00 208.12 C 118.62 207.94 117.46 208.90 117.62 207.75 C 117.79 206.60 117.96 204.90 118.00 201.25 C 118.04 197.60 118.06 188.52 117.88 185.88 Z" id="s-0-f-3"/>
</g>
<g id="s-1" clip-path="url(#c-s-1)">
<use href="#s-1-f-0"/>
<path d="M 148.25 43.12 C 146.46 43.48 145.38 44.48 144.50 45.12 C 143.62 45.77 143.44 46.00 143.00 47.00 C 142.56 48.00 142.04 49.88 141.88 51.12 C 141.71 52.38 141.79 53.00 142.00 54.50 C 142.21 56.00 142.62 58.08 143.12 60.12 C 143.62 62.17 144.40 64.98 145.00 66.75 C 145.60 68.52 146.12 68.83 146.75 70.75 C 147.38 72.67 147.90 73.83 148.75 78.25 C 149.60 82.67 151.19 91.02 151.88 97.25 C 152.56 103.48 152.56 106.48 152.88 115.62 C 153.19 124.77 153.65 137.88 153.75 152.12 C 153.85 166.38 153.48 191.83 153.50 201.12 C 153.52 210.42 153.98 195.79 153.88 207.88 C 153.77 219.96 153.21 260.19 152.88 273.62 C 152.54 287.06 152.40 275.58 151.88 288.50 C 151.35 301.42 150.44 336.10 149.75 351.12 C 149.06 366.15 148.73 369.67 147.75 378.62 C 146.77 387.58 145.04 393.69 143.88 404.88 C 142.71 416.06 141.21 438.67 140.75 445.75 C 140.29 452.83 140.60 446.52 141.12 447.38 C 141.65 448.23 142.81 449.71 143.88 450.88 C 144.94 452.04 146.25 453.42 147.50 454.38 C 148.75 455.33 150.23 456.21 151.38 456.62 C 152.52 457.04 153.60 456.96 154.38 456.88 C 155.15 456.79 155.02 456.96 156.00 456.12 C 156.98 455.29 158.96 453.35 160.25 451.88 C 161.54 450.40 162.35 449.35 163.75 447.25 C 165.15 445.15 166.98 442.42 168.62 439.25 C 170.27 436.08 172.46 431.23 173.62 428.25 C 174.79 425.27 175.12 423.54 175.62 421.38 C 176.12 419.21 176.44 421.04 176.62 415.25 C 176.81 409.46 177.02 397.31 176.75 386.62 C 176.48 375.94 175.29 372.44 175.00 351.12 C 174.71 329.81 174.69 284.23 175.00 258.75 C 175.31 233.27 176.35 209.85 176.88 198.25 C 177.40 186.65 177.94 193.85 178.12 189.12 C 178.31 184.40 177.71 180.06 178.00 169.88 C 178.29 159.69 179.21 137.62 179.88 128.00 C 180.54 118.38 180.96 117.90 182.00 112.12 C 183.04 106.35 184.94 97.94 186.12 93.38 C 187.31 88.81 187.88 87.56 189.12 84.75 C 190.38 81.94 192.69 78.42 193.62 76.50 C 194.56 74.58 194.54 74.23 194.75 73.25 C 194.96 72.27 195.04 71.73 194.88 70.62 C 194.71 69.52 194.38 67.90 193.75 66.62 C 193.12 65.35 192.02 64.06 191.12 63.00 C 190.23 61.94 190.02 61.58 188.38 60.25 C 186.73 58.92 184.12 56.83 181.25 55.00 C 178.38 53.17 174.25 50.90 171.12 49.25 C 168.00 47.60 165.15 46.17 162.50 45.12 C 159.85 44.08 157.62 43.33 155.25 43.00 C 152.88 42.67 150.04 42.77 148.25 43.12 Z" id="s-1-f-1"/>
<path d="M 148.25 43.12 C 146.46 43.48 145.38 44.48 144.50 45.12 C 143.62 45.77 143.44 46.00 143.00 47.00 C 142.56 48.00 142.04 49.85 141.88 51.12 C 141.71 52.40 141.79 53.12 142.00 54.62 C 142.21 56.12 142.62 58.10 143.12 60.12 C 143.62 62.15 144.40 64.98 145.00 66.75 C 145.60 68.52 146.12 68.83 146.75 70.75 C 147.38 72.67 147.90 73.83 148.75 78.25 C 149.60 82.67 151.10 88.04 151.88 97.25 C 152.65 106.46 153.04 120.15 153.38 133.50 C 153.71 146.85 153.85 169.92 153.88 177.38 C 153.90 184.83 153.56 174.29 153.50 178.25 C 153.44 182.21 153.44 196.96 153.50 201.12 C 153.56 205.29 153.85 196.52 153.88 203.25 C 153.90 209.98 153.79 229.77 153.62 241.50 C 153.46 253.23 153.17 265.79 152.88 273.62 C 152.58 281.46 152.38 275.98 151.88 288.50 C 151.38 301.02 150.56 333.73 149.88 348.75 C 149.19 363.77 148.73 369.48 147.75 378.62 C 146.77 387.77 144.90 395.75 144.00 403.62 C 143.10 411.50 142.56 422.02 142.38 425.88 C 142.19 429.73 142.48 426.56 142.88 426.75 C 143.27 426.94 139.94 426.96 144.75 427.00 C 149.56 427.04 166.92 427.04 171.75 427.00 C 176.58 426.96 173.27 427.04 173.75 426.75 C 174.23 426.46 174.12 427.46 174.62 425.25 C 175.12 423.04 176.40 419.94 176.75 413.50 C 177.10 407.06 177.04 397.02 176.75 386.62 C 176.46 376.23 175.29 372.44 175.00 351.12 C 174.71 329.81 174.69 284.23 175.00 258.75 C 175.31 233.27 176.35 209.85 176.88 198.25 C 177.40 186.65 177.94 193.85 178.12 189.12 C 178.31 184.40 177.71 180.06 178.00 169.88 C 178.29 159.69 179.21 137.62 179.88 128.00 C 180.54 118.38 180.96 117.90 182.00 112.12 C 183.04 106.35 184.94 97.94 186.12 93.38 C 187.31 88.81 187.88 87.56 189.12 84.75 C 190.38 81.94 192.69 78.42 193.62 76.50 C 194.56 74.58 194.54 74.23 194.75 73.25 C 194.96 72.27 195.04 71.73 194.88 70.62 C 194.71 69.52 194.38 67.90 193.75 66.62 C 193.12 65.35 192.02 64.06 191.12 63.00 C 190.23 61.94 190.02 61.58 188.38 60.25 C 186.73 58.92 184.12 56.83 181.25 55.00 C 178.38 53.17 174.25 50.90 171.12 49.25 C 168.00 47.60 165.15 46.17 162.50 45.12 C 159.85 44.08 157.62 43.33 155.25 43.00 C 152.88 42.67 150.04 42.77 148.25 43.12 Z" id="s-1-f-2"/>
<path d="M 148.62 43.00 C 147.04 43.19 146.50 43.71 145.75 44.12 C 145.00 44.54 144.58 45.02 144.12 45.50 C 143.67 45.98 143.38 46.06 143.00 47.00 C 142.62 47.94 142.04 49.85 141.88 51.12 C 141.71 52.40 141.79 53.12 142.00 54.62 C 142.21 56.12 142.62 58.10 143.12 60.12 C 143.62 62.15 144.40 64.98 145.00 66.75 C 145.60 68.52 146.12 68.83 146.75 70.75 C 147.38 72.67 147.92 74.04 148.75 78.25 C 149.58 82.46 151.08 90.38 151.75 96.00 C 152.42 101.62 152.42 102.65 152.75 112.00 C 153.08 121.35 153.62 137.27 153.75 152.12 C 153.88 166.98 153.48 191.83 153.50 201.12 C 153.52 210.42 153.98 195.79 153.88 207.88 C 153.77 219.96 153.21 260.19 152.88 273.62 C 152.54 287.06 152.38 275.98 151.88 288.50 C 151.38 301.02 150.56 333.75 149.88 348.75 C 149.19 363.75 146.67 373.46 147.75 378.50 C 148.83 383.54 151.71 378.94 156.38 379.00 C 161.04 379.06 172.42 379.12 175.75 378.88 C 179.08 378.62 176.50 382.12 176.38 377.50 C 176.25 372.88 175.23 370.92 175.00 351.12 C 174.77 331.33 174.69 284.23 175.00 258.75 C 175.31 233.27 176.35 209.85 176.88 198.25 C 177.40 186.65 177.94 193.85 178.12 189.12 C 178.31 184.40 177.71 180.06 178.00 169.88 C 178.29 159.69 179.21 137.62 179.88 128.00 C 180.54 118.38 180.96 117.90 182.00 112.12 C 183.04 106.35 184.94 97.94 186.12 93.38 C 187.31 88.81 187.88 87.56 189.12 84.75 C 190.38 81.94 192.69 78.42 193.62 76.50 C 194.56 74.58 194.54 74.23 194.75 73.25 C 194.96 72.27 195.04 71.73 194.88 70.62 C 194.71 69.52 194.38 67.90 193.75 66.62 C 193.12 65.35 192.02 64.06 191.12 63.00 C 190.23 61.94 190.02 61.58 188.38 60.25 C 186.73 58.92 184.12 56.83 181.25 55.00 C 178.38 53.17 174.25 50.90 171.12 49.25 C 168.00 47.60 165.15 46.17 162.50 45.12 C 159.85 44.08 157.56 43.35 155.25 43.00 C 152.94 42.65 150.21 42.81 148.62 43.00 Z" id="s-1-f-3"/>
<path d="M 148.62 43.00 C 147.06 43.19 146.67 43.50 145.75 44.12 C 144.83 44.75 143.75 45.83 143.12 46.75 C 142.50 47.67 142.21 48.50 142.00 49.62 C 141.79 50.75 141.69 51.75 141.88 53.50 C 142.06 55.25 142.15 56.67 143.12 60.12 C 144.10 63.58 146.65 70.38 147.75 74.25 C 148.85 78.12 149.06 79.54 149.75 83.38 C 150.44 87.21 151.35 91.88 151.88 97.25 C 152.40 102.62 152.54 102.27 152.88 115.62 C 153.21 128.98 153.77 166.94 153.88 177.38 C 153.98 187.81 153.56 174.29 153.50 178.25 C 153.44 182.21 153.44 196.96 153.50 201.12 C 153.56 205.29 153.85 196.52 153.88 203.25 C 153.90 209.98 153.79 229.77 153.62 241.50 C 153.46 253.23 153.17 265.79 152.88 273.62 C 152.58 281.46 152.27 279.08 151.88 288.50 C 151.48 297.92 150.65 323.06 150.50 330.12 C 150.35 337.19 147.04 330.73 151.00 330.88 C 154.96 331.02 170.29 331.06 174.25 331.00 C 178.21 330.94 174.62 342.54 174.75 330.50 C 174.88 318.46 174.65 280.79 175.00 258.75 C 175.35 236.71 176.35 209.85 176.88 198.25 C 177.40 186.65 177.94 193.85 178.12 189.12 C 178.31 184.40 177.71 180.06 178.00 169.88 C 178.29 159.69 179.21 137.62 179.88 128.00 C 180.54 118.38 180.96 117.90 182.00 112.12 C 183.04 106.35 184.94 97.94 186.12 93.38 C 187.31 88.81 187.88 87.56 189.12 84.75 C 190.38 81.94 192.69 78.44 193.62 76.50 C 194.56 74.56 194.54 74.10 194.75 73.12 C 194.96 72.15 195.04 71.71 194.88 70.62 C 194.71 69.54 194.38 67.90 193.75 66.62 C 193.12 65.35 192.02 64.06 191.12 63.00 C 190.23 61.94 190.02 61.58 188.38 60.25 C 186.73 58.92 184.12 56.83 181.25 55.00 C 178.38 53.17 174.25 50.90 171.12 49.25 C 168.00 47.60 165.17 46.17 162.50 45.12 C 159.83 44.08 157.44 43.35 155.12 43.00 C 152.81 42.65 150.19 42.81 148.62 43.00 Z" id="s-1-f-4"/>
<path d="M 148.62 43.00 C 147.06 43.19 146.67 43.50 145.75 44.12 C 144.83 44.75 143.75 45.83 143.12 46.75 C 142.50 47.67 142.21 48.50 142.00 49.62 C 141.79 50.75 141.69 51.75 141.88 53.50 C 142.06 55.25 142.15 56.67 143.12 60.12 C 144.10 63.58 146.65 70.38 147.75 74.25 C 148.85 78.12 149.08 79.75 149.75 83.38 C 150.42 87.00 151.25 91.17 151.75 96.00 C 152.25 100.83 152.42 102.23 152.75 112.38 C 153.08 122.52 153.62 142.08 153.75 156.88 C 153.88 171.67 153.48 192.44 153.50 201.12 C 153.52 209.81 153.85 202.27 153.88 209.00 C 153.90 215.73 153.88 229.25 153.62 241.50 C 153.38 253.75 152.29 275.58 152.38 282.50 C 152.46 289.42 150.42 282.96 154.12 283.00 C 157.83 283.04 171.15 283.12 174.62 282.75 C 178.10 282.38 174.94 284.75 175.00 280.75 C 175.06 276.75 174.69 272.50 175.00 258.75 C 175.31 245.00 176.35 209.85 176.88 198.25 C 177.40 186.65 177.94 193.85 178.12 189.12 C 178.31 184.40 177.71 180.06 178.00 169.88 C 178.29 159.69 179.21 137.62 179.88 128.00 C 180.54 118.38 181.31 116.52 182.00 112.12 C 182.69 107.73 182.98 105.77 184.00 101.62 C 185.02 97.48 187.10 90.44 188.12 87.25 C 189.15 84.06 189.35 83.98 190.12 82.50 C 190.90 81.02 191.98 79.92 192.75 78.38 C 193.52 76.83 194.42 74.75 194.75 73.25 C 195.08 71.75 194.92 70.48 194.75 69.38 C 194.58 68.27 194.54 67.90 193.75 66.62 C 192.96 65.35 191.56 63.33 190.00 61.75 C 188.44 60.17 186.69 58.75 184.38 57.12 C 182.06 55.50 179.46 53.85 176.12 52.00 C 172.79 50.15 167.06 47.29 164.38 46.00 C 161.69 44.71 161.54 44.75 160.00 44.25 C 158.46 43.75 157.02 43.21 155.12 43.00 C 153.23 42.79 150.19 42.81 148.62 43.00 Z" id="s-1-f-5"/>
<path d="M 148.75 43.00 C 147.19 43.19 146.69 43.50 145.75 44.12 C 144.81 44.75 143.75 45.83 143.12 46.75 C 142.50 47.67 142.21 48.50 142.00 49.62 C 141.79 50.75 141.50 51.04 141.88 53.50 C 142.25 55.96 143.44 61.52 144.25 64.38 C 145.06 67.23 146.00 68.31 146.75 70.62 C 147.50 72.94 147.90 73.79 148.75 78.25 C 149.60 82.71 151.21 91.69 151.88 97.38 C 152.54 103.06 152.46 104.48 152.75 112.38 C 153.04 120.27 153.48 124.44 153.62 144.75 C 153.77 165.06 153.54 219.23 153.62 234.25 C 153.71 249.27 153.83 234.75 154.12 234.88 C 154.42 235.00 151.83 235.00 155.38 235.00 C 158.92 235.00 171.96 235.00 175.38 234.88 C 178.79 234.75 175.62 240.35 175.88 234.25 C 176.12 228.15 176.50 205.77 176.88 198.25 C 177.25 190.73 177.94 193.85 178.12 189.12 C 178.31 184.40 177.69 180.27 178.00 169.88 C 178.31 159.48 179.33 136.38 180.00 126.75 C 180.67 117.12 181.15 117.06 182.00 112.12 C 182.85 107.19 183.94 101.69 185.12 97.12 C 186.31 92.56 187.85 87.88 189.12 84.75 C 190.40 81.62 191.81 80.29 192.75 78.38 C 193.69 76.46 194.42 74.75 194.75 73.25 C 195.08 71.75 195.06 70.71 194.75 69.38 C 194.44 68.04 193.67 66.52 192.88 65.25 C 192.08 63.98 191.42 63.10 190.00 61.75 C 188.58 60.40 186.69 58.75 184.38 57.12 C 182.06 55.50 179.46 53.85 176.12 52.00 C 172.79 50.15 167.06 47.29 164.38 46.00 C 161.69 44.71 161.54 44.75 160.00 44.25 C 158.46 43.75 157.00 43.21 155.12 43.00 C 153.25 42.79 150.31 42.81 148.75 43.00 Z" id="s-1-f-6"/>
<path d="M 148.62 43.00 C 147.06 43.19 146.67 43.50 145.75 44.12 C 144.83 44.75 143.75 45.83 143.12 46.75 C 142.50 47.67 142.21 48.50 142.00 49.62 C 141.79 50.75 141.50 51.04 141.88 53.50 C 142.25 55.96 143.44 61.52 144.25 64.38 C 145.06 67.23 146.00 68.31 146.75 70.62 C 147.50 72.94 147.90 73.81 148.75 78.25 C 149.60 82.69 151.21 91.56 151.88 97.25 C 152.54 102.94 152.46 104.46 152.75 112.38 C 153.04 120.29 153.44 133.92 153.62 144.75 C 153.81 155.58 153.90 171.79 153.88 177.38 C 153.85 182.96 153.56 176.73 153.50 178.25 C 153.44 179.77 153.38 185.00 153.50 186.50 C 153.62 188.00 150.23 187.15 154.25 187.25 C 158.27 187.35 173.65 187.23 177.62 187.12 C 181.60 187.02 178.06 189.50 178.12 186.62 C 178.19 183.75 177.71 179.44 178.00 169.88 C 178.29 160.31 179.38 137.73 179.88 129.25 C 180.38 120.77 180.33 123.50 181.00 119.00 C 181.67 114.50 183.02 106.52 183.88 102.25 C 184.73 97.98 185.25 96.29 186.12 93.38 C 187.00 90.46 187.88 87.56 189.12 84.75 C 190.38 81.94 192.69 78.42 193.62 76.50 C 194.56 74.58 194.56 74.44 194.75 73.25 C 194.94 72.06 195.06 70.71 194.75 69.38 C 194.44 68.04 193.67 66.52 192.88 65.25 C 192.08 63.98 191.42 63.10 190.00 61.75 C 188.58 60.40 186.69 58.75 184.38 57.12 C 182.06 55.50 179.46 53.85 176.12 52.00 C 172.79 50.15 167.06 47.29 164.38 46.00 C 161.69 44.71 161.54 44.75 160.00 44.25 C 158.46 43.75 157.02 43.21 155.12 43.00 C 153.23 42.79 150.19 42.81 148.62 43.00 Z" id="s-1-f-7"/>
<path d="M 148.62 43.00 C 147.06 43.19 146.67 43.50 145.75 44.12 C 144.83 44.75 143.75 45.83 143.12 46.75 C 142.50 47.67 142.21 48.50 142.00 49.62 C 141.79 50.75 141.50 51.04 141.88 53.50 C 142.25 55.96 143.44 61.52 144.25 64.38 C 145.06 67.23 146.00 68.31 146.75 70.62 C 147.50 72.94 147.92 74.02 148.75 78.25 C 149.58 82.48 151.08 90.31 151.75 96.00 C 152.42 101.69 152.46 105.31 152.75 112.38 C 153.04 119.44 153.31 133.96 153.50 138.38 C 153.69 142.79 153.52 138.77 153.88 138.88 C 154.23 138.98 151.42 139.00 155.62 139.00 C 159.83 139.00 175.12 139.10 179.12 138.88 C 183.12 138.65 179.48 139.62 179.62 137.62 C 179.77 135.62 179.77 129.98 180.00 126.88 C 180.23 123.77 180.33 123.21 181.00 119.00 C 181.67 114.79 182.81 106.92 184.00 101.62 C 185.19 96.33 187.10 90.44 188.12 87.25 C 189.15 84.06 189.35 83.98 190.12 82.50 C 190.90 81.02 191.98 79.92 192.75 78.38 C 193.52 76.83 194.44 74.83 194.75 73.25 C 195.06 71.67 194.94 70.21 194.62 68.88 C 194.31 67.54 193.65 66.44 192.88 65.25 C 192.10 64.06 191.42 63.10 190.00 61.75 C 188.58 60.40 186.69 58.75 184.38 57.12 C 182.06 55.50 179.46 53.85 176.12 52.00 C 172.79 50.15 167.06 47.29 164.38 46.00 C 161.69 44.71 161.54 44.75 160.00 44.25 C 158.46 43.75 157.02 43.21 155.12 43.00 C 153.23 42.79 150.19 42.81 148.62 43.00 Z" id="s-1-f-8"/>
<path d="M 144.88 44.88 C 143.94 45.50 143.60 45.96 143.12 46.75 C 142.65 47.54 142.19 48.33 142.00 49.62 C 141.81 50.92 141.62 52.04 142.00 54.50 C 142.38 56.96 143.29 61.08 144.25 64.38 C 145.21 67.67 146.60 69.90 147.75 74.25 C 148.90 78.60 148.79 87.73 151.12 90.50 C 153.46 93.27 155.77 90.88 161.75 90.88 C 167.73 90.88 182.27 91.90 187.00 90.50 C 191.73 89.10 189.00 84.90 190.12 82.50 C 191.25 80.10 192.96 77.81 193.75 76.12 C 194.54 74.44 194.71 73.50 194.88 72.38 C 195.04 71.25 194.94 70.31 194.75 69.38 C 194.56 68.44 194.44 67.92 193.75 66.75 C 193.06 65.58 192.04 63.88 190.62 62.38 C 189.21 60.88 187.10 59.15 185.25 57.75 C 183.40 56.35 181.85 55.42 179.50 54.00 C 177.15 52.58 174.00 50.75 171.12 49.25 C 168.25 47.75 165.15 46.06 162.25 45.00 C 159.35 43.94 156.00 43.21 153.75 42.88 C 151.50 42.54 150.23 42.67 148.75 43.00 C 147.27 43.33 145.81 44.25 144.88 44.88 Z" id="s-1-f-9"/>
</g>
<g id="s-2" clip-path="url(#c-s-2)">
<use href="#s-2-f-0"/>
<path d="M 182.88 259.12 C 182.69 256.38 182.85 258.44 181.88 258.88 C 180.90 259.31 178.40 261.10 177.00 261.75 C 175.60 262.40 177.27 260.98 173.50 262.75 C 169.73 264.52 157.67 270.60 154.38 272.38 C 151.08 274.15 157.67 271.31 153.75 273.38 C 149.83 275.44 142.46 279.23 130.88 284.75 C 119.29 290.27 96.02 301.17 84.25 306.50 C 72.48 311.83 66.00 314.54 60.25 316.75 C 54.50 318.96 52.94 319.04 49.75 319.75 C 46.56 320.46 42.94 320.42 41.12 321.00 C 39.31 321.58 39.23 322.42 38.88 323.25 C 38.52 324.08 38.81 325.15 39.00 326.00 C 39.19 326.85 39.19 327.04 40.00 328.38 C 40.81 329.71 42.31 332.12 43.88 334.00 C 45.44 335.88 46.60 337.33 49.38 339.62 C 52.15 341.92 57.65 345.92 60.50 347.75 C 63.35 349.58 64.81 349.96 66.50 350.62 C 68.19 351.29 69.17 351.56 70.62 351.75 C 72.08 351.94 74.12 351.92 75.25 351.75 C 76.38 351.58 74.81 352.67 77.38 350.75 C 79.94 348.83 79.23 348.54 90.62 340.25 C 102.02 331.96 135.96 307.77 145.75 301.00 C 155.54 294.23 148.38 300.10 149.38 299.62 C 150.38 299.15 151.19 298.38 151.75 298.12 C 152.31 297.88 152.33 298.31 152.75 298.12 C 153.17 297.94 153.96 297.31 154.25 297.00 C 154.54 296.69 154.31 296.38 154.50 296.25 C 154.69 296.12 152.33 298.27 155.38 296.25 C 158.42 294.23 169.62 286.46 172.75 284.12 C 175.88 281.79 173.83 282.50 174.12 282.25 C 174.42 282.00 173.96 282.96 174.50 282.62 C 175.04 282.29 176.06 281.15 177.38 280.25 C 178.69 279.35 181.44 278.06 182.38 277.25 C 183.31 276.44 182.92 278.40 183.00 275.38 C 183.08 272.35 183.06 261.88 182.88 259.12 Z" id="s-2-f-1"/>
<path d="M 134.62 283.00 C 134.44 279.06 139.00 280.56 133.88 283.00 C 128.75 285.44 116.15 292.00 103.88 297.62 C 91.60 303.25 69.27 313.06 60.25 316.75 C 51.23 320.44 52.94 319.04 49.75 319.75 C 46.56 320.46 42.94 320.42 41.12 321.00 C 39.31 321.58 39.23 322.42 38.88 323.25 C 38.52 324.08 38.81 325.15 39.00 326.00 C 39.19 326.85 39.19 327.06 40.00 328.38 C 40.81 329.69 42.31 332.00 43.88 333.88 C 45.44 335.75 46.60 337.31 49.38 339.62 C 52.15 341.94 57.60 345.90 60.50 347.75 C 63.40 349.60 65.04 350.08 66.75 350.75 C 68.46 351.42 69.33 351.58 70.75 351.75 C 72.17 351.92 74.15 351.92 75.25 351.75 C 76.35 351.58 74.81 352.67 77.38 350.75 C 79.94 348.83 81.08 347.23 90.62 340.25 C 100.17 333.27 127.23 314.48 134.62 308.88 C 142.02 303.27 135.00 310.94 135.00 306.62 C 135.00 302.31 134.81 286.94 134.62 283.00 Z" id="s-2-f-2"/>
<path d="M 86.88 305.75 C 86.75 299.52 90.56 303.67 86.12 305.50 C 81.69 307.33 66.31 314.38 60.25 316.75 C 54.19 319.12 52.94 319.04 49.75 319.75 C 46.56 320.46 42.94 320.42 41.12 321.00 C 39.31 321.58 39.17 322.25 38.88 323.25 C 38.58 324.25 38.88 325.65 39.38 327.00 C 39.88 328.35 40.81 329.88 41.88 331.38 C 42.94 332.88 44.25 334.42 45.75 336.00 C 47.25 337.58 48.92 339.23 50.88 340.88 C 52.83 342.52 55.60 344.56 57.50 345.88 C 59.40 347.19 60.71 347.94 62.25 348.75 C 63.79 349.56 65.35 350.25 66.75 350.75 C 68.15 351.25 69.21 351.58 70.62 351.75 C 72.04 351.92 73.69 352.25 75.25 351.75 C 76.81 351.25 78.06 350.23 80.00 348.75 C 81.94 347.27 85.73 350.04 86.88 342.88 C 88.02 335.71 87.00 311.98 86.88 305.75 Z" id="s-2-f-3"/>
</g>
<g id="s-3" clip-path="url(#c-s-3)">
<use href="#s-3-f-0"/>
<path d="M 421.12 176.00 C 419.04 175.52 422.29 174.79 416.38 176.25 C 410.46 177.71 392.00 183.12 385.62 184.75 C 379.25 186.38 379.65 185.67 378.12 186.00 C 376.60 186.33 377.25 186.58 376.50 186.75 C 375.75 186.92 374.38 186.83 373.62 187.00 C 372.88 187.17 373.58 187.42 372.00 187.75 C 370.42 188.08 367.40 188.33 364.12 189.00 C 360.85 189.67 354.81 191.27 352.38 191.75 C 349.94 192.23 357.38 190.54 349.50 191.88 C 341.62 193.21 316.92 197.77 305.12 199.75 C 293.33 201.73 286.25 202.73 278.75 203.75 C 271.25 204.77 266.67 205.31 260.12 205.88 C 253.58 206.44 243.35 206.77 239.50 207.12 C 235.65 207.48 237.60 207.62 237.00 208.00 C 236.40 208.38 235.83 208.69 235.88 209.38 C 235.92 210.06 236.44 211.08 237.25 212.12 C 238.06 213.17 239.21 214.33 240.75 215.62 C 242.29 216.92 244.50 218.54 246.50 219.88 C 248.50 221.21 250.46 222.50 252.75 223.62 C 255.04 224.75 258.40 225.96 260.25 226.62 C 262.10 227.29 262.73 227.42 263.88 227.62 C 265.02 227.83 265.35 227.88 267.12 227.88 C 268.90 227.88 272.48 227.83 274.50 227.62 C 276.52 227.42 275.08 227.73 279.25 226.62 C 283.42 225.52 293.31 222.60 299.50 221.00 C 305.69 219.40 311.42 218.04 316.38 217.00 C 321.33 215.96 324.38 215.75 329.25 214.75 C 334.12 213.75 342.42 211.67 345.62 211.00 C 348.83 210.33 347.71 210.92 348.50 210.75 C 349.29 210.58 345.21 210.79 350.38 210.00 C 355.54 209.21 372.25 206.83 379.50 206.00 C 386.75 205.17 390.48 205.15 393.88 205.00 C 397.27 204.85 398.21 204.98 399.88 205.12 C 401.54 205.27 402.38 205.38 403.88 205.88 C 405.38 206.38 407.60 207.31 408.88 208.12 C 410.15 208.94 410.85 209.96 411.50 210.75 C 412.15 211.54 412.40 211.96 412.75 212.88 C 413.10 213.79 413.44 215.06 413.62 216.25 C 413.81 217.44 413.92 216.65 413.88 220.00 C 413.83 223.35 413.73 229.85 413.38 236.38 C 413.02 242.90 412.35 252.33 411.75 259.12 C 411.15 265.92 411.08 267.42 409.75 277.12 C 408.42 286.83 405.92 304.88 403.75 317.38 C 401.58 329.88 398.75 343.12 396.75 352.12 C 394.75 361.12 393.56 365.33 391.75 371.38 C 389.94 377.42 391.35 376.69 385.88 388.38 C 380.40 400.06 363.04 431.90 358.88 441.50 C 354.71 451.10 360.08 444.58 360.88 446.00 C 361.67 447.42 362.44 448.71 363.62 450.00 C 364.81 451.29 366.85 452.96 368.00 453.75 C 369.15 454.54 369.19 454.58 370.50 454.75 C 371.81 454.92 374.00 455.10 375.88 454.75 C 377.75 454.40 379.08 454.10 381.75 452.62 C 384.42 451.15 389.15 447.98 391.88 445.88 C 394.60 443.77 396.31 441.94 398.12 440.00 C 399.94 438.06 400.85 437.04 402.75 434.25 C 404.65 431.46 407.69 426.52 409.50 423.25 C 411.31 419.98 412.25 417.79 413.62 414.62 C 415.00 411.46 416.06 409.17 417.75 404.25 C 419.44 399.33 421.92 391.96 423.75 385.12 C 425.58 378.29 426.42 376.08 428.75 363.25 C 431.08 350.42 435.21 325.31 437.75 308.12 C 440.29 290.94 442.46 270.96 444.00 260.12 C 445.54 249.29 445.81 248.35 447.00 243.12 C 448.19 237.90 449.33 233.42 451.12 228.75 C 452.92 224.08 456.31 218.38 457.75 215.12 C 459.19 211.88 459.42 210.98 459.75 209.25 C 460.08 207.52 459.92 205.92 459.75 204.75 C 459.58 203.58 459.52 203.52 458.75 202.25 C 457.98 200.98 456.48 198.73 455.12 197.12 C 453.77 195.52 453.00 194.62 450.62 192.62 C 448.25 190.62 444.50 187.38 440.88 185.12 C 437.25 182.88 432.17 180.65 428.88 179.12 C 425.58 177.60 423.21 176.48 421.12 176.00 Z" id="s-3-f-1"/>
<path d="M 421.75 176.12 C 419.67 175.65 422.40 174.81 416.38 176.25 C 410.35 177.69 392.00 183.12 385.62 184.75 C 379.25 186.38 379.65 185.67 378.12 186.00 C 376.60 186.33 377.25 186.58 376.50 186.75 C 375.75 186.92 374.38 186.83 373.62 187.00 C 372.88 187.17 373.58 187.42 372.00 187.75 C 370.42 188.08 367.40 188.33 364.12 189.00 C 360.85 189.67 354.81 191.27 352.38 191.75 C 349.94 192.23 357.38 190.54 349.50 191.88 C 341.62 193.21 316.92 197.77 305.12 199.75 C 293.33 201.73 286.02 202.75 278.75 203.75 C 271.48 204.75 268.04 205.19 261.50 205.75 C 254.96 206.31 243.58 206.75 239.50 207.12 C 235.42 207.50 237.60 207.62 237.00 208.00 C 236.40 208.38 235.83 208.69 235.88 209.38 C 235.92 210.06 236.44 211.08 237.25 212.12 C 238.06 213.17 239.21 214.33 240.75 215.62 C 242.29 216.92 244.50 218.54 246.50 219.88 C 248.50 221.21 250.46 222.50 252.75 223.62 C 255.04 224.75 258.40 225.96 260.25 226.62 C 262.10 227.29 262.73 227.42 263.88 227.62 C 265.02 227.83 265.35 227.88 267.12 227.88 C 268.90 227.88 272.48 227.83 274.50 227.62 C 276.52 227.42 275.08 227.73 279.25 226.62 C 283.42 225.52 293.31 222.60 299.50 221.00 C 305.69 219.40 311.42 218.04 316.38 217.00 C 321.33 215.96 324.38 215.75 329.25 214.75 C 334.12 213.75 342.42 211.67 345.62 211.00 C 348.83 210.33 347.71 210.92 348.50 210.75 C 349.29 210.58 345.21 210.79 350.38 210.00 C 355.54 209.21 372.25 206.83 379.50 206.00 C 386.75 205.17 390.48 205.15 393.88 205.00 C 397.27 204.85 397.67 204.79 399.88 205.12 C 402.08 205.46 405.19 206.06 407.12 207.00 C 409.06 207.94 410.56 209.77 411.50 210.75 C 412.44 211.73 412.42 212.06 412.75 212.88 C 413.08 213.69 413.31 214.44 413.50 215.62 C 413.69 216.81 413.90 216.54 413.88 220.00 C 413.85 223.46 413.73 229.85 413.38 236.38 C 413.02 242.90 412.35 252.33 411.75 259.12 C 411.15 265.92 410.75 269.35 409.75 277.12 C 408.75 284.90 407.46 295.31 405.75 305.75 C 404.04 316.19 401.50 330.00 399.50 339.75 C 397.50 349.50 395.56 357.35 393.75 364.25 C 391.94 371.15 390.48 375.94 388.62 381.12 C 386.77 386.31 386.21 388.04 382.62 395.38 C 379.04 402.71 369.69 420.04 367.12 425.12 C 364.56 430.21 360.50 425.75 367.25 425.88 C 374.00 426.00 400.40 426.67 407.62 425.88 C 414.85 425.08 408.94 424.73 410.62 421.12 C 412.31 417.52 415.56 410.25 417.75 404.25 C 419.94 398.25 421.92 391.96 423.75 385.12 C 425.58 378.29 426.94 372.69 428.75 363.25 C 430.56 353.81 431.75 347.73 434.62 328.50 C 437.50 309.27 443.44 263.96 446.00 247.88 C 448.56 231.79 448.98 235.58 450.00 232.00 C 451.02 228.42 450.67 229.60 452.12 226.38 C 453.58 223.15 457.48 215.48 458.75 212.62 C 460.02 209.77 459.56 210.38 459.75 209.25 C 459.94 208.12 460.04 207.04 459.88 205.88 C 459.71 204.71 459.54 203.71 458.75 202.25 C 457.96 200.79 456.48 198.73 455.12 197.12 C 453.77 195.52 452.77 194.48 450.62 192.62 C 448.48 190.77 445.88 188.25 442.25 186.00 C 438.62 183.75 432.29 180.77 428.88 179.12 C 425.46 177.48 423.83 176.60 421.75 176.12 Z" id="s-3-f-2"/>
<path d="M 235.88 209.38 C 235.73 209.79 235.46 209.58 236.12 210.50 C 236.79 211.42 238.15 213.31 239.88 214.88 C 241.60 216.44 244.35 218.42 246.50 219.88 C 248.65 221.33 250.90 222.65 252.75 223.62 C 254.60 224.60 255.75 225.08 257.62 225.75 C 259.50 226.42 261.81 227.27 264.00 227.62 C 266.19 227.98 269.00 227.88 270.75 227.88 C 272.50 227.88 272.42 227.98 274.50 227.62 C 276.58 227.27 279.08 226.85 283.25 225.75 C 287.42 224.65 293.98 222.46 299.50 221.00 C 305.02 219.54 311.42 218.04 316.38 217.00 C 321.33 215.96 324.38 215.75 329.25 214.75 C 334.12 213.75 342.42 211.67 345.62 211.00 C 348.83 210.33 347.71 210.92 348.50 210.75 C 349.29 210.58 348.10 210.35 350.38 210.00 C 352.65 209.65 359.81 208.98 362.12 208.62 C 364.44 208.27 363.25 208.02 364.25 207.88 C 365.25 207.73 365.58 208.06 368.12 207.75 C 370.67 207.44 374.48 206.46 379.50 206.00 C 384.52 205.54 394.10 205.00 398.25 205.00 C 402.40 205.00 402.60 205.48 404.38 206.00 C 406.15 206.52 407.69 207.33 408.88 208.12 C 410.06 208.92 410.85 209.96 411.50 210.75 C 412.15 211.54 412.40 211.96 412.75 212.88 C 413.10 213.79 413.44 215.06 413.62 216.25 C 413.81 217.44 414.02 214.81 413.88 220.00 C 413.73 225.19 413.44 237.85 412.75 247.38 C 412.06 256.90 410.92 267.40 409.75 277.12 C 408.58 286.85 407.29 296.15 405.75 305.75 C 404.21 315.35 402.33 325.65 400.50 334.75 C 398.67 343.85 396.52 353.27 394.75 360.38 C 392.98 367.48 390.62 374.46 389.88 377.38 C 389.12 380.29 384.77 377.77 390.25 377.88 C 395.73 377.98 416.96 378.00 422.75 378.00 C 428.54 378.00 424.50 378.00 425.00 377.88 C 425.50 377.75 425.12 379.69 425.75 377.25 C 426.38 374.81 427.08 372.56 428.75 363.25 C 430.42 353.94 432.88 340.60 435.75 321.38 C 438.62 302.15 443.96 261.62 446.00 247.88 C 448.04 234.12 447.15 242.06 448.00 238.88 C 448.85 235.69 449.50 232.71 451.12 228.75 C 452.75 224.79 456.31 218.40 457.75 215.12 C 459.19 211.85 459.42 210.85 459.75 209.12 C 460.08 207.40 459.92 205.90 459.75 204.75 C 459.58 203.60 459.52 203.52 458.75 202.25 C 457.98 200.98 456.48 198.73 455.12 197.12 C 453.77 195.52 453.00 194.62 450.62 192.62 C 448.25 190.62 445.23 187.71 440.88 185.12 C 436.52 182.54 427.79 178.65 424.50 177.12 C 421.21 175.60 422.25 176.19 421.12 176.00 C 420.00 175.81 423.67 174.54 417.75 176.00 C 411.83 177.46 392.23 183.08 385.62 184.75 C 379.02 186.42 379.65 185.67 378.12 186.00 C 376.60 186.33 377.25 186.58 376.50 186.75 C 375.75 186.92 374.38 186.83 373.62 187.00 C 372.88 187.17 373.58 187.42 372.00 187.75 C 370.42 188.08 367.40 188.33 364.12 189.00 C 360.85 189.67 354.81 191.27 352.38 191.75 C 349.94 192.23 357.38 190.54 349.50 191.88 C 341.62 193.21 316.92 197.77 305.12 199.75 C 293.33 201.73 286.02 202.75 278.75 203.75 C 271.48 204.75 267.88 205.21 261.50 205.75 C 255.12 206.29 244.58 206.62 240.50 207.00 C 236.42 207.38 237.77 207.60 237.00 208.00 C 236.23 208.40 236.02 208.96 235.88 209.38 Z" id="s-3-f-3"/>
<path d="M 459.88 205.88 C 459.71 204.71 459.54 203.71 458.75 202.25 C 457.96 200.79 456.48 198.73 455.12 197.12 C 453.77 195.52 452.77 194.48 450.62 192.62 C 448.48 190.77 446.60 188.58 442.25 186.00 C 437.90 183.42 428.02 178.79 424.50 177.12 C 420.98 175.46 422.25 176.19 421.12 176.00 C 420.00 175.81 423.67 174.54 417.75 176.00 C 411.83 177.46 392.23 183.08 385.62 184.75 C 379.02 186.42 379.65 185.67 378.12 186.00 C 376.60 186.33 377.25 186.58 376.50 186.75 C 375.75 186.92 374.38 186.83 373.62 187.00 C 372.88 187.17 373.58 187.42 372.00 187.75 C 370.42 188.08 367.40 188.33 364.12 189.00 C 360.85 189.67 354.81 191.27 352.38 191.75 C 349.94 192.23 357.38 190.54 349.50 191.88 C 341.62 193.21 316.92 197.77 305.12 199.75 C 293.33 201.73 286.02 202.75 278.75 203.75 C 271.48 204.75 267.94 205.21 261.50 205.75 C 255.06 206.29 244.21 206.62 240.12 207.00 C 236.04 207.38 237.67 207.71 237.00 208.00 C 236.33 208.29 236.31 208.46 236.12 208.75 C 235.94 209.04 235.52 208.98 235.88 209.75 C 236.23 210.52 236.48 211.69 238.25 213.38 C 240.02 215.06 244.08 218.17 246.50 219.88 C 248.92 221.58 250.90 222.65 252.75 223.62 C 254.60 224.60 255.75 225.08 257.62 225.75 C 259.50 226.42 261.81 227.27 264.00 227.62 C 266.19 227.98 269.00 227.88 270.75 227.88 C 272.50 227.88 272.42 227.98 274.50 227.62 C 276.58 227.27 279.08 226.85 283.25 225.75 C 287.42 224.65 293.98 222.46 299.50 221.00 C 305.02 219.54 313.04 217.71 316.38 217.00 C 319.71 216.29 312.81 218.08 319.50 216.75 C 326.19 215.42 349.40 210.35 356.50 209.00 C 363.60 207.65 360.83 208.81 362.12 208.62 C 363.42 208.44 363.25 208.02 364.25 207.88 C 365.25 207.73 365.58 208.06 368.12 207.75 C 370.67 207.44 375.21 206.46 379.50 206.00 C 383.79 205.54 390.48 205.15 393.88 205.00 C 397.27 204.85 398.00 204.92 399.88 205.12 C 401.75 205.33 403.69 205.79 405.12 206.25 C 406.56 206.71 407.42 207.08 408.50 207.88 C 409.58 208.67 410.90 210.10 411.62 211.00 C 412.35 211.90 412.52 212.17 412.88 213.25 C 413.23 214.33 413.60 215.00 413.75 217.50 C 413.90 220.00 413.92 223.27 413.75 228.25 C 413.58 233.23 413.50 238.46 412.75 247.38 C 412.00 256.29 404.60 276.00 409.25 281.75 C 413.90 287.50 435.27 282.00 440.62 281.88 C 445.98 281.75 440.65 285.77 441.38 281.00 C 442.10 276.23 443.73 260.88 445.00 253.25 C 446.27 245.62 447.81 239.73 449.00 235.25 C 450.19 230.77 450.50 230.15 452.12 226.38 C 453.75 222.60 457.48 215.48 458.75 212.62 C 460.02 209.77 459.56 210.38 459.75 209.25 C 459.94 208.12 460.04 207.04 459.88 205.88 Z" id="s-3-f-4"/>
<path d="M 459.88 205.88 C 459.71 204.71 459.54 203.71 458.75 202.25 C 457.96 200.79 456.48 198.73 455.12 197.12 C 453.77 195.52 452.77 194.48 450.62 192.62 C 448.48 190.77 446.60 188.58 442.25 186.00 C 437.90 183.42 428.02 178.79 424.50 177.12 C 420.98 175.46 422.25 176.19 421.12 176.00 C 420.00 175.81 423.67 174.54 417.75 176.00 C 411.83 177.46 392.23 183.08 385.62 184.75 C 379.02 186.42 379.65 185.67 378.12 186.00 C 376.60 186.33 377.25 186.58 376.50 186.75 C 375.75 186.92 374.38 186.83 373.62 187.00 C 372.88 187.17 373.58 187.42 372.00 187.75 C 370.42 188.08 367.40 188.33 364.12 189.00 C 360.85 189.67 354.81 191.27 352.38 191.75 C 349.94 192.23 357.38 190.54 349.50 191.88 C 341.62 193.21 316.92 197.77 305.12 199.75 C 293.33 201.73 286.02 202.75 278.75 203.75 C 271.48 204.75 267.94 205.21 261.50 205.75 C 255.06 206.29 244.21 206.62 240.12 207.00 C 236.04 207.38 237.67 207.71 237.00 208.00 C 236.33 208.29 236.31 208.46 236.12 208.75 C 235.94 209.04 235.52 208.98 235.88 209.75 C 236.23 210.52 236.48 211.69 238.25 213.38 C 240.02 215.06 244.08 218.17 246.50 219.88 C 248.92 221.58 250.90 222.65 252.75 223.62 C 254.60 224.60 255.75 225.08 257.62 225.75 C 259.50 226.42 261.81 227.27 264.00 227.62 C 266.19 227.98 268.27 228.02 270.75 227.88 C 273.23 227.73 274.08 227.90 278.88 226.75 C 283.67 225.60 293.25 222.62 299.50 221.00 C 305.75 219.38 311.42 218.04 316.38 217.00 C 321.33 215.96 324.38 215.75 329.25 214.75 C 334.12 213.75 342.42 211.67 345.62 211.00 C 348.83 210.33 347.71 210.92 348.50 210.75 C 349.29 210.58 345.21 210.79 350.38 210.00 C 355.54 209.21 372.25 206.83 379.50 206.00 C 386.75 205.17 390.48 205.15 393.88 205.00 C 397.27 204.85 397.67 204.79 399.88 205.12 C 402.08 205.46 405.19 206.06 407.12 207.00 C 409.06 207.94 410.56 209.77 411.50 210.75 C 412.44 211.73 412.38 211.75 412.75 212.88 C 413.12 214.00 413.65 214.08 413.75 217.50 C 413.85 220.92 413.35 230.65 413.38 233.38 C 413.40 236.10 408.31 233.77 413.88 233.88 C 419.44 233.98 440.88 234.00 446.75 234.00 C 452.62 234.00 448.62 233.98 449.12 233.88 C 449.62 233.77 449.25 234.62 449.75 233.38 C 450.25 232.12 450.62 229.83 452.12 226.38 C 453.62 222.92 457.48 215.48 458.75 212.62 C 460.02 209.77 459.56 210.38 459.75 209.25 C 459.94 208.12 460.04 207.04 459.88 205.88 Z" id="s-3-f-5"/>
<path d="M 441.12 185.62 C 438.38 183.98 427.46 178.60 424.12 177.00 C 420.79 175.40 422.21 176.17 421.12 176.00 C 420.04 175.83 423.54 174.54 417.62 176.00 C 411.71 177.46 396.50 182.12 385.62 184.75 C 374.75 187.38 359.54 190.38 352.38 191.75 C 345.21 193.12 350.50 191.67 342.62 193.00 C 334.75 194.33 315.77 197.96 305.12 199.75 C 294.48 201.54 286.02 202.75 278.75 203.75 C 271.48 204.75 268.04 205.19 261.50 205.75 C 254.96 206.31 243.58 206.75 239.50 207.12 C 235.42 207.50 237.58 207.69 237.00 208.00 C 236.42 208.31 236.17 208.62 236.00 209.00 C 235.83 209.38 235.71 209.62 236.00 210.25 C 236.29 210.88 236.52 211.50 237.75 212.75 C 238.98 214.00 240.88 215.94 243.38 217.75 C 245.88 219.56 250.38 222.29 252.75 223.62 C 255.12 224.96 255.77 225.08 257.62 225.75 C 259.48 226.42 261.06 227.31 263.88 227.62 C 266.69 227.94 271.19 227.96 274.50 227.62 C 277.81 227.29 279.58 226.73 283.75 225.62 C 287.92 224.52 294.06 222.44 299.50 221.00 C 304.94 219.56 313.04 217.71 316.38 217.00 C 319.71 216.29 313.83 217.92 319.50 216.75 C 325.17 215.58 340.50 211.79 350.38 210.00 C 360.25 208.21 371.04 206.88 378.75 206.00 C 386.46 205.12 386.62 207.88 396.62 204.75 C 406.62 201.62 431.42 190.23 438.75 187.25 C 446.08 184.27 440.23 187.15 440.62 186.88 C 441.02 186.60 443.88 187.27 441.12 185.62 Z" id="s-3-f-6"/>
<path d="M 379.88 186.38 C 379.71 183.17 383.46 185.12 379.00 186.00 C 374.54 186.88 362.19 189.96 353.12 191.62 C 344.06 193.29 333.62 194.48 324.62 196.00 C 315.62 197.52 309.65 199.12 299.12 200.75 C 288.60 202.38 271.33 204.71 261.50 205.75 C 251.67 206.79 244.21 206.62 240.12 207.00 C 236.04 207.38 237.69 207.67 237.00 208.00 C 236.31 208.33 236.17 208.62 236.00 209.00 C 235.83 209.38 235.71 209.62 236.00 210.25 C 236.29 210.88 236.52 211.50 237.75 212.75 C 238.98 214.00 240.88 215.94 243.38 217.75 C 245.88 219.56 250.38 222.29 252.75 223.62 C 255.12 224.96 255.75 225.08 257.62 225.75 C 259.50 226.42 261.19 227.31 264.00 227.62 C 266.81 227.94 271.29 227.94 274.50 227.62 C 277.71 227.31 279.08 226.85 283.25 225.75 C 287.42 224.65 293.98 222.46 299.50 221.00 C 305.02 219.54 311.42 218.04 316.38 217.00 C 321.33 215.96 323.58 215.92 329.25 214.75 C 334.92 213.58 342.04 211.46 350.38 210.00 C 358.71 208.54 374.31 206.79 379.25 206.00 C 384.19 205.21 379.90 208.52 380.00 205.25 C 380.10 201.98 380.04 189.58 379.88 186.38 Z" id="s-3-f-7"/>
<path d="M 332.00 196.62 C 332.00 193.54 332.00 195.65 331.75 195.38 C 331.50 195.10 333.96 194.44 330.50 195.00 C 327.04 195.56 319.62 197.29 311.00 198.75 C 302.38 200.21 287.02 202.58 278.75 203.75 C 270.48 204.92 267.81 205.21 261.38 205.75 C 254.94 206.29 244.19 206.62 240.12 207.00 C 236.06 207.38 237.69 207.67 237.00 208.00 C 236.31 208.33 236.17 208.62 236.00 209.00 C 235.83 209.38 235.50 209.40 236.00 210.25 C 236.50 211.10 237.77 212.88 239.00 214.12 C 240.23 215.38 241.08 216.17 243.38 217.75 C 245.67 219.33 250.38 222.29 252.75 223.62 C 255.12 224.96 255.75 225.08 257.62 225.75 C 259.50 226.42 261.25 227.31 264.00 227.62 C 266.75 227.94 270.83 227.96 274.12 227.62 C 277.42 227.29 279.67 226.69 283.75 225.62 C 287.83 224.56 293.90 222.52 298.62 221.25 C 303.35 219.98 307.02 219.08 312.12 218.00 C 317.23 216.92 325.98 215.44 329.25 214.75 C 332.52 214.06 331.29 216.90 331.75 213.88 C 332.21 210.85 332.00 199.71 332.00 196.62 Z" id="s-3-f-8"/>
<path d="M 283.88 225.00 C 283.96 221.25 284.02 206.92 283.75 203.25 C 283.48 199.58 285.98 202.58 282.25 203.00 C 278.52 203.42 268.40 205.08 261.38 205.75 C 254.35 206.42 244.19 206.62 240.12 207.00 C 236.06 207.38 237.69 207.67 237.00 208.00 C 236.31 208.33 236.17 208.62 236.00 209.00 C 235.83 209.38 235.71 209.62 236.00 210.25 C 236.29 210.88 236.52 211.50 237.75 212.75 C 238.98 214.00 240.88 215.94 243.38 217.75 C 245.88 219.56 250.38 222.29 252.75 223.62 C 255.12 224.96 255.60 225.06 257.62 225.75 C 259.65 226.44 262.58 227.40 264.88 227.75 C 267.17 228.10 268.31 228.21 271.38 227.88 C 274.44 227.54 281.17 226.23 283.25 225.75 C 285.33 225.27 283.79 228.75 283.88 225.00 Z" id="s-3-f-9"/>
</g>
<g id="s-4" clip-path="url(#c-s-4)">
<use href="#s-4-f-0"/>
<path d="M 351.25 54.00 C 348.85 53.00 349.31 53.17 347.88 53.00 C 346.44 52.83 343.94 52.77 342.62 53.00 C 341.31 53.23 340.77 53.56 340.00 54.38 C 339.23 55.19 338.21 55.54 338.00 57.88 C 337.79 60.21 338.62 63.52 338.75 68.38 C 338.88 73.23 339.08 79.69 338.75 87.00 C 338.42 94.31 337.58 104.42 336.75 112.25 C 335.92 120.08 336.25 119.90 333.75 134.00 C 331.25 148.10 323.83 186.31 321.75 196.88 C 319.67 207.44 321.27 197.23 321.25 197.38 C 321.23 197.52 321.65 197.60 321.62 197.75 C 321.60 197.90 321.33 198.19 321.12 198.25 C 320.92 198.31 320.50 197.60 320.38 198.12 C 320.25 198.65 320.50 200.65 320.38 201.38 C 320.25 202.10 319.79 201.83 319.62 202.50 C 319.46 203.17 319.54 204.71 319.38 205.38 C 319.21 206.04 318.79 205.83 318.62 206.50 C 318.46 207.17 318.54 208.71 318.38 209.38 C 318.21 210.04 317.81 209.77 317.62 210.50 C 317.44 211.23 317.42 213.08 317.25 213.75 C 317.08 214.42 316.73 213.94 316.62 214.50 C 316.52 215.06 316.77 216.00 316.62 217.12 C 316.48 218.25 317.90 213.40 315.75 221.25 C 313.60 229.10 307.44 252.60 303.75 264.25 C 300.06 275.90 297.15 282.44 293.62 291.12 C 290.10 299.81 285.50 310.04 282.62 316.38 C 279.75 322.71 278.88 324.35 276.38 329.12 C 273.88 333.90 270.31 340.42 267.62 345.00 C 264.94 349.58 262.06 353.58 260.25 356.62 C 258.44 359.67 259.15 359.29 256.75 363.25 C 254.35 367.21 248.65 376.21 245.88 380.38 C 243.10 384.54 241.02 386.83 240.12 388.25 C 239.23 389.67 236.06 388.77 240.50 388.88 C 244.94 388.98 261.71 389.67 266.75 388.88 C 271.79 388.08 268.92 386.54 270.75 384.12 C 272.58 381.71 274.92 378.52 277.75 374.38 C 280.58 370.23 284.92 363.75 287.75 359.25 C 290.58 354.75 292.25 351.85 294.75 347.38 C 297.25 342.90 300.10 337.62 302.75 332.38 C 305.40 327.12 307.96 321.77 310.62 315.88 C 313.29 309.98 316.40 302.69 318.75 297.00 C 321.10 291.31 322.94 286.75 324.75 281.75 C 326.56 276.75 326.10 278.75 329.62 267.00 C 333.15 255.25 343.06 220.69 345.88 211.25 C 348.69 201.81 345.85 210.54 346.50 210.38 C 347.15 210.21 349.35 210.38 349.75 210.25 C 350.15 210.12 349.10 209.62 348.88 209.62 C 348.65 209.62 348.79 210.19 348.38 210.25 C 347.96 210.31 346.56 210.12 346.38 210.00 C 346.19 209.88 347.10 209.83 347.25 209.50 C 347.40 209.17 347.10 208.50 347.25 208.00 C 347.40 207.50 347.94 207.12 348.12 206.50 C 348.31 205.88 348.21 204.79 348.38 204.25 C 348.54 203.71 348.96 203.79 349.12 203.25 C 349.29 202.71 349.21 201.52 349.38 201.00 C 349.54 200.48 349.96 200.62 350.12 200.12 C 350.29 199.62 350.21 198.52 350.38 198.00 C 350.54 197.48 350.85 197.71 351.12 197.00 C 351.40 196.29 351.83 194.73 352.00 193.75 C 352.17 192.77 351.35 194.40 352.12 191.12 C 352.90 187.85 354.88 181.42 356.62 174.12 C 358.38 166.83 360.56 157.29 362.62 147.38 C 364.69 137.46 367.27 122.77 369.00 114.62 C 370.73 106.48 371.71 103.06 373.00 98.50 C 374.29 93.94 375.98 89.81 376.75 87.25 C 377.52 84.69 377.46 85.35 377.62 83.12 C 377.79 80.90 377.90 75.83 377.75 73.88 C 377.60 71.92 377.73 72.71 376.75 71.38 C 375.77 70.04 373.48 67.46 371.88 65.88 C 370.27 64.29 368.73 63.02 367.12 61.88 C 365.52 60.73 364.90 60.31 362.25 59.00 C 359.60 57.69 353.65 55.00 351.25 54.00 Z" id="s-4-f-1"/>
<path d="M 348.50 53.12 C 345.81 52.48 343.67 52.92 342.25 53.12 C 340.83 53.33 340.71 53.58 340.00 54.38 C 339.29 55.17 338.21 55.54 338.00 57.88 C 337.79 60.21 338.62 63.52 338.75 68.38 C 338.88 73.23 339.08 79.69 338.75 87.00 C 338.42 94.31 337.58 104.42 336.75 112.25 C 335.92 120.08 336.25 119.90 333.75 134.00 C 331.25 148.10 323.83 186.31 321.75 196.88 C 319.67 207.44 321.27 197.23 321.25 197.38 C 321.23 197.52 321.65 197.60 321.62 197.75 C 321.60 197.90 321.33 198.19 321.12 198.25 C 320.92 198.31 320.50 197.60 320.38 198.12 C 320.25 198.65 320.50 200.65 320.38 201.38 C 320.25 202.10 319.79 201.83 319.62 202.50 C 319.46 203.17 319.54 204.71 319.38 205.38 C 319.21 206.04 318.79 205.83 318.62 206.50 C 318.46 207.17 318.54 208.71 318.38 209.38 C 318.21 210.04 317.81 209.77 317.62 210.50 C 317.44 211.23 317.42 213.08 317.25 213.75 C 317.08 214.42 316.73 213.94 316.62 214.50 C 316.52 215.06 317.60 212.83 316.62 217.12 C 315.65 221.42 312.92 232.33 310.75 240.25 C 308.58 248.17 306.48 256.15 303.62 264.62 C 300.77 273.10 297.12 282.50 293.62 291.12 C 290.12 299.75 285.77 309.52 282.62 316.38 C 279.48 323.23 276.81 328.31 274.75 332.25 C 272.69 336.19 270.94 338.56 270.25 340.00 C 269.56 341.44 266.35 340.71 270.62 340.88 C 274.90 341.04 291.38 341.00 295.88 341.00 C 300.38 341.00 297.17 341.00 297.62 340.88 C 298.08 340.75 296.46 344.42 298.62 340.25 C 300.79 336.08 306.31 325.52 310.62 315.88 C 314.94 306.23 320.33 293.79 324.50 282.38 C 328.67 270.96 332.06 259.23 335.62 247.38 C 339.19 235.52 344.06 217.42 345.88 211.25 C 347.69 205.08 345.85 210.54 346.50 210.38 C 347.15 210.21 349.35 210.38 349.75 210.25 C 350.15 210.12 349.10 209.62 348.88 209.62 C 348.65 209.62 348.79 210.19 348.38 210.25 C 347.96 210.31 346.56 210.12 346.38 210.00 C 346.19 209.88 347.10 209.83 347.25 209.50 C 347.40 209.17 347.10 208.50 347.25 208.00 C 347.40 207.50 347.94 207.12 348.12 206.50 C 348.31 205.88 348.21 204.79 348.38 204.25 C 348.54 203.71 348.96 203.79 349.12 203.25 C 349.29 202.71 349.21 201.52 349.38 201.00 C 349.54 200.48 349.96 200.62 350.12 200.12 C 350.29 199.62 350.21 198.52 350.38 198.00 C 350.54 197.48 350.83 197.81 351.12 197.00 C 351.42 196.19 351.96 194.10 352.12 193.12 C 352.29 192.15 351.19 195.10 352.12 191.12 C 353.06 187.15 356.00 176.54 357.75 169.25 C 359.50 161.96 360.75 156.48 362.62 147.38 C 364.50 138.27 367.27 122.77 369.00 114.62 C 370.73 106.48 371.71 103.06 373.00 98.50 C 374.29 93.94 375.98 89.81 376.75 87.25 C 377.52 84.69 377.44 85.12 377.62 83.12 C 377.81 81.12 377.90 76.92 377.88 75.25 C 377.85 73.58 377.85 74.00 377.50 73.12 C 377.15 72.25 377.48 71.88 375.75 70.00 C 374.02 68.12 370.02 64.04 367.12 61.88 C 364.23 59.71 361.48 58.46 358.38 57.00 C 355.27 55.54 351.19 53.77 348.50 53.12 Z" id="s-4-f-2"/>
<path d="M 348.50 53.12 C 346.46 52.79 343.54 52.92 342.12 53.12 C 340.71 53.33 340.69 53.58 340.00 54.38 C 339.31 55.17 338.21 55.54 338.00 57.88 C 337.79 60.21 338.62 63.52 338.75 68.38 C 338.88 73.23 338.92 81.31 338.75 87.00 C 338.58 92.69 338.58 94.67 337.75 102.50 C 336.92 110.33 335.08 125.00 333.75 134.00 C 332.42 143.00 331.75 146.02 329.75 156.50 C 327.75 166.98 323.17 190.06 321.75 196.88 C 320.33 203.69 321.27 197.23 321.25 197.38 C 321.23 197.52 321.65 197.60 321.62 197.75 C 321.60 197.90 321.33 198.19 321.12 198.25 C 320.92 198.31 320.50 197.60 320.38 198.12 C 320.25 198.65 320.50 200.65 320.38 201.38 C 320.25 202.10 319.79 201.83 319.62 202.50 C 319.46 203.17 319.54 204.71 319.38 205.38 C 319.21 206.04 318.79 205.83 318.62 206.50 C 318.46 207.17 318.54 208.71 318.38 209.38 C 318.21 210.04 317.81 209.77 317.62 210.50 C 317.44 211.23 317.42 213.08 317.25 213.75 C 317.08 214.42 316.73 213.94 316.62 214.50 C 316.52 215.06 317.60 212.83 316.62 217.12 C 315.65 221.42 312.90 232.40 310.75 240.25 C 308.60 248.10 306.44 256.19 303.75 264.25 C 301.06 272.31 296.40 284.06 294.62 288.62 C 292.85 293.19 293.33 290.90 293.12 291.62 C 292.92 292.35 288.92 292.79 293.38 293.00 C 297.83 293.21 315.33 293.00 319.88 292.88 C 324.42 292.75 319.67 294.52 320.62 292.25 C 321.58 289.98 323.94 284.06 325.62 279.25 C 327.31 274.44 327.38 274.71 330.75 263.38 C 334.12 252.04 343.25 220.08 345.88 211.25 C 348.50 202.42 345.85 210.54 346.50 210.38 C 347.15 210.21 349.35 210.38 349.75 210.25 C 350.15 210.12 349.10 209.62 348.88 209.62 C 348.65 209.62 348.79 210.19 348.38 210.25 C 347.96 210.31 346.56 210.12 346.38 210.00 C 346.19 209.88 347.10 209.83 347.25 209.50 C 347.40 209.17 347.10 208.50 347.25 208.00 C 347.40 207.50 347.94 207.12 348.12 206.50 C 348.31 205.88 348.21 204.79 348.38 204.25 C 348.54 203.71 348.96 203.79 349.12 203.25 C 349.29 202.71 349.21 201.52 349.38 201.00 C 349.54 200.48 349.96 200.62 350.12 200.12 C 350.29 199.62 350.21 198.52 350.38 198.00 C 350.54 197.48 350.83 197.81 351.12 197.00 C 351.42 196.19 351.96 194.10 352.12 193.12 C 352.29 192.15 351.19 195.10 352.12 191.12 C 353.06 187.15 356.00 176.54 357.75 169.25 C 359.50 161.96 360.75 156.48 362.62 147.38 C 364.50 138.27 367.27 122.77 369.00 114.62 C 370.73 106.48 371.71 103.06 373.00 98.50 C 374.29 93.94 375.98 89.81 376.75 87.25 C 377.52 84.69 377.44 85.12 377.62 83.12 C 377.81 81.12 377.90 76.92 377.88 75.25 C 377.85 73.58 377.85 74.00 377.50 73.12 C 377.15 72.25 377.48 71.88 375.75 70.00 C 374.02 68.12 369.67 63.88 367.12 61.88 C 364.58 59.88 362.62 59.12 360.50 58.00 C 358.38 56.88 356.38 55.94 354.38 55.12 C 352.38 54.31 350.54 53.46 348.50 53.12 Z" id="s-4-f-3"/>
<path d="M 347.88 53.00 C 345.83 52.67 343.44 52.90 342.12 53.12 C 340.81 53.35 340.69 53.58 340.00 54.38 C 339.31 55.17 338.21 55.54 338.00 57.88 C 337.79 60.21 338.62 63.52 338.75 68.38 C 338.88 73.23 339.08 79.69 338.75 87.00 C 338.42 94.31 337.58 104.42 336.75 112.25 C 335.92 120.08 336.25 119.90 333.75 134.00 C 331.25 148.10 323.83 186.31 321.75 196.88 C 319.67 207.44 321.27 197.23 321.25 197.38 C 321.23 197.52 321.65 197.60 321.62 197.75 C 321.60 197.90 321.33 198.19 321.12 198.25 C 320.92 198.31 320.50 197.60 320.38 198.12 C 320.25 198.65 320.50 200.65 320.38 201.38 C 320.25 202.10 319.79 201.83 319.62 202.50 C 319.46 203.17 319.54 204.71 319.38 205.38 C 319.21 206.04 318.79 205.83 318.62 206.50 C 318.46 207.17 318.54 208.71 318.38 209.38 C 318.21 210.04 317.81 209.77 317.62 210.50 C 317.44 211.23 317.42 213.08 317.25 213.75 C 317.08 214.42 316.73 213.94 316.62 214.50 C 316.52 215.06 317.81 212.21 316.62 217.12 C 315.44 222.04 310.62 239.38 309.50 244.00 C 308.38 248.62 305.77 244.71 309.88 244.88 C 313.98 245.04 329.71 245.06 334.12 245.00 C 338.54 244.94 334.42 250.12 336.38 244.50 C 338.33 238.88 344.19 216.94 345.88 211.25 C 347.56 205.56 345.85 210.54 346.50 210.38 C 347.15 210.21 349.35 210.38 349.75 210.25 C 350.15 210.12 349.10 209.62 348.88 209.62 C 348.65 209.62 348.79 210.19 348.38 210.25 C 347.96 210.31 346.56 210.12 346.38 210.00 C 346.19 209.88 347.10 209.83 347.25 209.50 C 347.40 209.17 347.10 208.50 347.25 208.00 C 347.40 207.50 347.94 207.12 348.12 206.50 C 348.31 205.88 348.21 204.79 348.38 204.25 C 348.54 203.71 348.96 203.79 349.12 203.25 C 349.29 202.71 349.21 201.52 349.38 201.00 C 349.54 200.48 349.96 200.62 350.12 200.12 C 350.29 199.62 350.21 198.52 350.38 198.00 C 350.54 197.48 350.85 197.71 351.12 197.00 C 351.40 196.29 351.83 194.73 352.00 193.75 C 352.17 192.77 351.52 193.71 352.12 191.12 C 352.73 188.54 353.88 185.54 355.62 178.25 C 357.38 170.96 360.40 157.98 362.62 147.38 C 364.85 136.77 367.27 122.77 369.00 114.62 C 370.73 106.48 371.88 102.46 373.00 98.50 C 374.12 94.54 374.98 93.44 375.75 90.88 C 376.52 88.31 377.29 85.96 377.62 83.12 C 377.96 80.29 377.90 75.83 377.75 73.88 C 377.60 71.92 377.42 72.40 376.75 71.38 C 376.08 70.35 375.35 69.33 373.75 67.75 C 372.15 66.17 369.33 63.50 367.12 61.88 C 364.92 60.25 362.62 59.12 360.50 58.00 C 358.38 56.88 356.48 55.96 354.38 55.12 C 352.27 54.29 349.92 53.33 347.88 53.00 Z" id="s-4-f-4"/>
<path d="M 347.88 53.00 C 345.83 52.67 343.44 52.90 342.12 53.12 C 340.81 53.35 340.69 53.58 340.00 54.38 C 339.31 55.17 338.21 55.54 338.00 57.88 C 337.79 60.21 338.62 63.52 338.75 68.38 C 338.88 73.23 339.08 79.69 338.75 87.00 C 338.42 94.31 337.58 104.42 336.75 112.25 C 335.92 120.08 335.27 124.77 333.75 134.00 C 332.23 143.23 329.56 157.54 327.62 167.62 C 325.69 177.71 323.06 189.58 322.12 194.50 C 321.19 199.42 317.48 196.69 322.00 197.12 C 326.52 197.56 344.40 197.19 349.25 197.12 C 354.10 197.06 349.06 204.27 351.12 196.75 C 353.19 189.23 358.65 165.69 361.62 152.00 C 364.60 138.31 367.10 123.54 369.00 114.62 C 370.90 105.71 371.88 102.46 373.00 98.50 C 374.12 94.54 374.98 93.44 375.75 90.88 C 376.52 88.31 377.29 85.96 377.62 83.12 C 377.96 80.29 377.90 75.83 377.75 73.88 C 377.60 71.92 377.42 72.40 376.75 71.38 C 376.08 70.35 375.35 69.33 373.75 67.75 C 372.15 66.17 369.33 63.50 367.12 61.88 C 364.92 60.25 362.62 59.12 360.50 58.00 C 358.38 56.88 356.48 55.96 354.38 55.12 C 352.27 54.29 349.92 53.33 347.88 53.00 Z" id="s-4-f-5"/>
<path d="M 342.50 53.00 C 341.19 53.23 340.75 53.56 340.00 54.38 C 339.25 55.19 338.21 55.54 338.00 57.88 C 337.79 60.21 338.62 63.52 338.75 68.38 C 338.88 73.23 338.92 81.31 338.75 87.00 C 338.58 92.69 338.58 94.67 337.75 102.50 C 336.92 110.33 334.85 126.38 333.75 134.00 C 332.65 141.62 331.48 145.77 331.12 148.25 C 330.77 150.73 331.27 148.75 331.62 148.88 C 331.98 149.00 328.25 149.00 333.25 149.00 C 338.25 149.00 356.73 149.15 361.62 148.88 C 366.52 148.60 361.56 152.33 362.62 147.38 C 363.69 142.42 366.60 126.00 368.00 119.12 C 369.40 112.25 369.54 111.44 371.00 106.12 C 372.46 100.81 375.62 91.33 376.75 87.25 C 377.88 83.17 377.58 83.85 377.75 81.62 C 377.92 79.40 377.92 75.58 377.75 73.88 C 377.58 72.17 377.42 72.40 376.75 71.38 C 376.08 70.35 375.56 69.46 373.75 67.75 C 371.94 66.04 368.08 62.75 365.88 61.12 C 363.67 59.50 362.88 59.17 360.50 58.00 C 358.12 56.83 353.73 54.96 351.62 54.12 C 349.52 53.29 349.40 53.19 347.88 53.00 C 346.35 52.81 343.81 52.77 342.50 53.00 Z" id="s-4-f-6"/>
<path d="M 340.38 54.00 C 339.77 54.46 339.27 55.10 338.88 55.75 C 338.48 56.40 338.02 55.77 338.00 57.88 C 337.98 59.98 338.62 63.52 338.75 68.38 C 338.88 73.23 338.88 81.60 338.75 87.00 C 338.62 92.40 332.40 98.46 338.00 100.75 C 343.60 103.04 366.08 102.40 372.38 100.75 C 378.67 99.10 374.88 93.81 375.75 90.88 C 376.62 87.94 377.27 85.77 377.62 83.12 C 377.98 80.48 378.02 76.96 377.88 75.00 C 377.73 73.04 377.21 72.33 376.75 71.38 C 376.29 70.42 376.65 70.77 375.12 69.25 C 373.60 67.73 370.06 64.12 367.62 62.25 C 365.19 60.38 362.71 59.19 360.50 58.00 C 358.29 56.81 356.48 55.96 354.38 55.12 C 352.27 54.29 349.85 53.35 347.88 53.00 C 345.90 52.65 343.75 52.83 342.50 53.00 C 341.25 53.17 340.98 53.54 340.38 54.00 Z" id="s-4-f-7"/>
</g>
</svg>