<?xml version="1.0" encoding="UTF-8"?>
<svg xmlns="http://www.w3.org/2000/svg" viewBox="0 0 500 500">
<defs>
<path d="M 182.50 50.12 C 181.52 49.12 180.35 48.02 178.88 47.00 C 177.40 45.98 177.33 45.33 173.62 44.00 C 169.92 42.67 160.44 39.83 156.62 39.00 C 152.81 38.17 151.94 38.88 150.75 39.00 C 149.56 39.12 149.81 39.48 149.50 39.75 C 149.19 40.02 149.17 38.33 148.88 40.62 C 148.58 42.92 148.27 50.29 147.75 53.50 C 147.23 56.71 147.75 55.94 145.75 59.88 C 143.75 63.81 139.29 71.56 135.75 77.12 C 132.21 82.69 128.12 88.40 124.50 93.25 C 120.88 98.10 119.62 99.73 114.00 106.25 C 108.38 112.77 98.40 124.31 90.75 132.38 C 83.10 140.44 73.96 149.21 68.12 154.62 C 62.29 160.04 57.94 162.88 55.75 164.88 C 53.56 166.88 54.88 166.15 55.00 166.62 C 55.12 167.10 55.33 167.60 56.50 167.75 C 57.67 167.90 58.44 168.83 62.00 167.50 C 65.56 166.17 74.40 161.54 77.88 159.75 C 81.35 157.96 80.25 158.54 82.88 156.75 C 85.50 154.96 90.54 151.42 93.62 149.00 C 96.71 146.58 98.29 144.58 101.38 142.25 C 104.46 139.92 107.98 138.19 112.12 135.00 C 116.27 131.81 121.44 127.58 126.25 123.12 C 131.06 118.67 136.35 113.31 141.00 108.25 C 145.65 103.19 150.60 96.75 154.12 92.75 C 157.65 88.75 157.90 88.50 162.12 84.25 C 166.35 80.00 176.23 70.31 179.50 67.25 C 182.77 64.19 180.90 66.60 181.75 65.88 C 182.60 65.15 183.96 63.79 184.62 62.88 C 185.29 61.96 185.56 61.56 185.75 60.38 C 185.94 59.19 185.92 56.98 185.75 55.75 C 185.58 54.52 185.29 53.94 184.75 53.00 C 184.21 52.06 183.48 51.12 182.50 50.12 Z" id="s-0-f-0"/>
<clipPath id="c-s-0"><use href="#s-0-f-0"/></clipPath>
<path d="M 257.75 93.62 C 256.33 91.96 253.77 89.35 251.25 87.25 C 248.73 85.15 245.83 82.88 242.62 81.00 C 239.42 79.12 234.73 77.15 232.00 76.00 C 229.27 74.85 228.21 74.46 226.25 74.12 C 224.29 73.79 222.38 73.69 220.25 74.00 C 218.12 74.31 216.92 74.73 213.50 76.00 C 210.08 77.27 204.19 80.00 199.75 81.62 C 195.31 83.25 191.75 84.40 186.88 85.75 C 182.00 87.10 176.08 88.56 170.50 89.75 C 164.92 90.94 157.52 90.90 153.38 92.88 C 149.23 94.85 146.94 100.04 145.62 101.62 C 144.31 103.21 145.85 101.98 145.50 102.38 C 145.15 102.77 143.75 103.54 143.50 104.00 C 143.25 104.46 143.00 104.67 144.00 105.12 C 145.00 105.58 145.81 106.48 149.50 106.75 C 153.19 107.02 162.67 106.90 166.12 106.75 C 169.58 106.60 167.56 106.23 170.25 105.88 C 172.94 105.52 178.29 105.27 182.25 104.62 C 186.21 103.98 190.21 102.60 194.00 102.00 C 197.79 101.40 202.79 101.04 205.00 101.00 C 207.21 100.96 206.62 101.25 207.25 101.75 C 207.88 102.25 208.54 103.12 208.75 104.00 C 208.96 104.88 209.17 104.98 208.50 107.00 C 207.83 109.02 206.38 112.85 204.75 116.12 C 203.12 119.40 201.08 122.81 198.75 126.62 C 196.42 130.44 193.21 135.44 190.75 139.00 C 188.29 142.56 187.65 143.48 184.00 148.00 C 180.35 152.52 173.90 160.44 168.88 166.12 C 163.85 171.81 158.81 177.06 153.88 182.12 C 148.94 187.19 145.00 191.38 139.25 196.50 C 133.50 201.62 125.92 207.83 119.38 212.88 C 112.83 217.92 106.96 222.10 100.00 226.75 C 93.04 231.40 83.79 237.08 77.62 240.75 C 71.46 244.42 66.38 247.02 63.00 248.75 C 59.62 250.48 58.69 250.42 57.38 251.12 C 56.06 251.83 55.52 252.48 55.12 253.00 C 54.73 253.52 54.81 253.94 55.00 254.25 C 55.19 254.56 55.15 254.79 56.25 254.88 C 57.35 254.96 58.79 255.12 61.62 254.75 C 64.46 254.38 69.19 253.62 73.25 252.62 C 77.31 251.62 81.27 250.40 86.00 248.75 C 90.73 247.10 96.23 245.08 101.62 242.75 C 107.02 240.42 113.27 237.42 118.38 234.75 C 123.48 232.08 128.44 229.06 132.25 226.75 C 136.06 224.44 137.25 223.69 141.25 220.88 C 145.25 218.06 150.75 214.23 156.25 209.88 C 161.75 205.52 169.52 198.92 174.25 194.75 C 178.98 190.58 180.73 188.75 184.62 184.88 C 188.52 181.00 193.79 175.58 197.62 171.50 C 201.46 167.42 202.75 166.06 207.62 160.38 C 212.50 154.69 221.27 144.33 226.88 137.38 C 232.48 130.42 237.31 123.33 241.25 118.62 C 245.19 113.92 247.58 111.94 250.50 109.12 C 253.42 106.31 257.21 103.25 258.75 101.75 C 260.29 100.25 259.58 100.88 259.75 100.12 C 259.92 99.38 260.08 98.33 259.75 97.25 C 259.42 96.17 259.17 95.29 257.75 93.62 Z" id="s-1-f-0"/>
<clipPath id="c-s-1"><use href="#s-1-f-0"/></clipPath>
<path d="M 105.88 137.88 C 105.71 138.21 105.79 138.73 106.25 139.50 C 106.71 140.27 107.31 140.04 108.62 142.50 C 109.94 144.96 112.04 150.10 114.12 154.25 C 116.21 158.40 118.83 163.40 121.12 167.38 C 123.42 171.35 125.60 175.00 127.88 178.12 C 130.15 181.25 132.88 184.35 134.75 186.12 C 136.62 187.90 137.60 188.31 139.12 188.75 C 140.65 189.19 142.62 188.92 143.88 188.75 C 145.12 188.58 145.83 188.15 146.62 187.75 C 147.42 187.35 147.81 187.27 148.62 186.38 C 149.44 185.48 150.83 183.73 151.50 182.38 C 152.17 181.02 152.42 180.73 152.62 178.25 C 152.83 175.77 153.06 170.60 152.75 167.50 C 152.44 164.40 151.25 161.33 150.75 159.62 C 150.25 157.92 150.46 158.44 149.75 157.25 C 149.04 156.06 147.96 154.21 146.50 152.50 C 145.04 150.79 142.83 148.58 141.00 147.00 C 139.17 145.42 137.71 144.31 135.50 143.00 C 133.29 141.69 130.31 140.29 127.75 139.12 C 125.19 137.96 122.85 136.75 120.12 136.00 C 117.40 135.25 113.52 134.38 111.38 134.62 C 109.23 134.88 108.17 136.96 107.25 137.50 C 106.33 138.04 106.04 137.54 105.88 137.88 Z" id="s-2-f-0"/>
<clipPath id="c-s-2"><use href="#s-2-f-0"/></clipPath>
<path d="M 205.88 220.38 C 204.77 219.15 202.73 217.21 201.00 216.00 C 199.27 214.79 197.31 213.94 195.50 213.12 C 193.69 212.31 193.62 212.15 190.12 211.12 C 186.62 210.10 178.12 207.69 174.50 207.00 C 170.88 206.31 169.71 206.88 168.38 207.00 C 167.04 207.12 166.92 207.48 166.50 207.75 C 166.08 208.02 166.17 206.42 165.88 208.62 C 165.58 210.83 165.27 217.96 164.75 221.00 C 164.23 224.04 164.73 223.15 162.75 226.88 C 160.77 230.60 156.75 237.60 152.88 243.38 C 149.00 249.15 143.58 256.31 139.50 261.50 C 135.42 266.69 133.94 268.42 128.38 274.50 C 122.81 280.58 113.62 290.67 106.12 298.00 C 98.62 305.33 89.54 313.23 83.38 318.50 C 77.21 323.77 71.50 327.56 69.12 329.62 C 66.75 331.69 68.94 330.52 69.12 330.88 C 69.31 331.23 69.58 331.58 70.25 331.75 C 70.92 331.92 71.88 332.04 73.12 331.88 C 74.38 331.71 75.81 331.56 77.75 330.75 C 79.69 329.94 82.56 328.00 84.75 327.00 C 86.94 326.00 88.56 325.79 90.88 324.75 C 93.19 323.71 95.27 322.75 98.62 320.75 C 101.98 318.75 107.40 315.38 111.00 312.75 C 114.60 310.12 117.50 307.00 120.25 305.00 C 123.00 303.00 124.69 302.60 127.50 300.75 C 130.31 298.90 132.90 297.31 137.12 293.88 C 141.35 290.44 147.29 285.38 152.88 280.12 C 158.46 274.88 167.10 265.75 170.62 262.38 C 174.15 259.00 171.08 262.65 174.00 259.88 C 176.92 257.10 183.73 249.85 188.12 245.75 C 192.52 241.65 197.83 237.25 200.38 235.25 C 202.92 233.25 202.42 234.42 203.38 233.75 C 204.33 233.08 205.40 232.17 206.12 231.25 C 206.85 230.33 207.50 229.56 207.75 228.25 C 208.00 226.94 207.94 224.69 207.62 223.38 C 207.31 222.06 206.98 221.60 205.88 220.38 Z" id="s-3-f-0"/>
<clipPath id="c-s-3"><use href="#s-3-f-0"/></clipPath>
<path d="M 276.12 260.62 C 274.50 258.77 270.88 255.40 268.88 253.62 C 266.88 251.85 265.48 250.92 264.12 250.00 C 262.77 249.08 262.81 249.10 260.75 248.12 C 258.69 247.15 254.17 245.10 251.75 244.12 C 249.33 243.15 248.19 242.60 246.25 242.25 C 244.31 241.90 243.06 241.52 240.12 242.00 C 237.19 242.48 232.75 243.67 228.62 245.12 C 224.50 246.58 219.69 249.15 215.38 250.75 C 211.06 252.35 207.60 253.42 202.75 254.75 C 197.90 256.08 191.62 257.60 186.25 258.75 C 180.88 259.90 175.29 259.08 170.50 261.62 C 165.71 264.17 159.60 271.79 157.50 274.00 C 155.40 276.21 157.50 274.58 157.88 274.88 C 158.25 275.17 158.60 275.44 159.75 275.75 C 160.90 276.06 161.06 276.58 164.75 276.75 C 168.44 276.92 176.98 277.04 181.88 276.75 C 186.77 276.46 191.08 275.35 194.12 275.00 C 197.17 274.65 198.42 274.83 200.12 274.62 C 201.83 274.42 203.00 274.19 204.38 273.75 C 205.75 273.31 206.56 272.62 208.38 272.00 C 210.19 271.38 213.00 270.50 215.25 270.00 C 217.50 269.50 220.21 269.15 221.88 269.00 C 223.54 268.85 224.38 268.98 225.25 269.12 C 226.12 269.27 226.54 269.42 227.12 269.88 C 227.71 270.33 228.48 271.21 228.75 271.88 C 229.02 272.54 229.25 272.21 228.75 273.88 C 228.25 275.54 227.40 278.65 225.75 281.88 C 224.10 285.10 224.19 285.52 218.88 293.25 C 213.56 300.98 199.27 320.90 193.88 328.25 C 188.48 335.60 189.60 333.75 186.50 337.38 C 183.40 341.00 179.60 345.33 175.25 350.00 C 170.90 354.67 165.69 360.12 160.38 365.38 C 155.06 370.62 150.27 375.65 143.38 381.50 C 136.48 387.35 126.52 394.96 119.00 400.50 C 111.48 406.04 105.54 410.06 98.25 414.75 C 90.96 419.44 81.23 425.15 75.25 428.62 C 69.27 432.10 66.98 433.25 62.38 435.62 C 57.77 438.00 50.67 441.15 47.62 442.88 C 44.58 444.60 44.73 445.08 44.12 446.00 C 43.52 446.92 43.83 447.90 44.00 448.38 C 44.17 448.85 43.88 448.83 45.12 448.88 C 46.38 448.92 48.79 448.98 51.50 448.62 C 54.21 448.27 58.54 447.40 61.38 446.75 C 64.21 446.10 64.54 446.08 68.50 444.75 C 72.46 443.42 79.02 441.25 85.12 438.75 C 91.23 436.25 98.96 432.75 105.12 429.75 C 111.29 426.75 117.08 423.58 122.12 420.75 C 127.17 417.92 130.21 416.08 135.38 412.75 C 140.54 409.42 147.38 404.90 153.12 400.75 C 158.88 396.60 164.98 391.90 169.88 387.88 C 174.77 383.85 176.46 382.50 182.50 376.62 C 188.54 370.75 198.17 361.23 206.12 352.62 C 214.08 344.02 222.85 333.83 230.25 325.00 C 237.65 316.17 246.52 304.79 250.50 299.62 C 254.48 294.46 252.00 296.54 254.12 294.00 C 256.25 291.46 259.58 287.90 263.25 284.38 C 266.92 280.85 273.54 275.50 276.12 272.88 C 278.71 270.25 278.33 269.98 278.75 268.62 C 279.17 267.27 279.06 266.08 278.62 264.75 C 278.19 263.42 277.75 262.48 276.12 260.62 Z" id="s-4-f-0"/>
<clipPath id="c-s-4"><use href="#s-4-f-0"/></clipPath>
<path d="M 118.00 305.75 C 116.73 306.69 112.15 309.85 111.62 311.25 C 111.10 312.65 114.00 313.12 114.88 314.12 C 115.75 315.12 113.19 310.56 116.88 317.25 C 120.56 323.94 132.60 346.60 137.00 354.25 C 141.40 361.90 141.35 360.83 143.25 363.12 C 145.15 365.42 147.31 367.06 148.38 368.00 C 149.44 368.94 148.96 368.60 149.62 368.75 C 150.29 368.90 151.40 369.04 152.38 368.88 C 153.35 368.71 154.44 368.40 155.50 367.75 C 156.56 367.10 157.85 365.94 158.75 365.00 C 159.65 364.06 160.21 363.25 160.88 362.12 C 161.54 361.00 162.10 360.15 162.75 358.25 C 163.40 356.35 164.44 353.42 164.75 350.75 C 165.06 348.08 164.94 344.62 164.62 342.25 C 164.31 339.88 163.52 338.17 162.88 336.50 C 162.23 334.83 161.58 333.60 160.75 332.25 C 159.92 330.90 158.92 329.58 157.88 328.38 C 156.83 327.17 155.94 326.23 154.50 325.00 C 153.06 323.77 153.31 323.48 149.25 321.00 C 145.19 318.52 135.12 312.69 130.12 310.12 C 125.12 307.56 121.27 306.35 119.25 305.62 C 117.23 304.90 119.27 304.81 118.00 305.75 Z" id="s-5-f-0"/>
<clipPath id="c-s-5"><use href="#s-5-f-0"/></clipPath>
<path d="M 421.50 111.00 C 417.96 109.83 420.60 110.50 417.50 111.12 C 414.40 111.75 408.06 113.65 402.88 114.75 C 397.69 115.85 393.25 116.71 386.38 117.75 C 379.50 118.79 368.21 120.00 361.62 121.00 C 355.04 122.00 351.56 122.96 346.88 123.75 C 342.19 124.54 335.85 125.21 333.50 125.75 C 331.15 126.29 332.56 124.17 332.75 127.00 C 332.94 129.83 334.25 139.98 334.62 142.75 C 335.00 145.52 333.60 143.65 335.00 143.62 C 336.40 143.60 339.40 143.40 343.00 142.62 C 346.60 141.85 351.29 140.23 356.62 139.00 C 361.96 137.77 369.62 136.25 375.00 135.25 C 380.38 134.25 384.83 133.54 388.88 133.00 C 392.92 132.46 396.58 132.15 399.25 132.00 C 401.92 131.85 403.17 131.94 404.88 132.12 C 406.58 132.31 408.25 132.69 409.50 133.12 C 410.75 133.56 411.48 134.04 412.38 134.75 C 413.27 135.46 414.35 136.65 414.88 137.38 C 415.40 138.10 415.35 137.25 415.50 139.12 C 415.65 141.00 415.85 143.88 415.75 148.62 C 415.65 153.38 415.35 160.79 414.88 167.62 C 414.40 174.46 413.56 183.19 412.88 189.62 C 412.19 196.06 411.65 200.23 410.75 206.25 C 409.85 212.27 408.67 219.79 407.50 225.75 C 406.33 231.71 405.02 237.35 403.75 242.00 C 402.48 246.65 400.83 251.17 399.88 253.62 C 398.92 256.08 398.52 255.67 398.00 256.75 C 397.48 257.83 397.25 259.17 396.75 260.12 C 396.25 261.08 395.71 261.77 395.00 262.50 C 394.29 263.23 393.69 264.15 392.50 264.50 C 391.31 264.85 391.17 265.29 387.88 264.62 C 384.58 263.96 377.79 262.17 372.75 260.50 C 367.71 258.83 360.25 255.71 357.62 254.62 C 355.00 253.54 357.29 254.04 357.00 254.00 C 356.71 253.96 356.00 254.10 355.88 254.38 C 355.75 254.65 354.77 253.60 356.25 255.62 C 357.73 257.65 362.31 263.21 364.75 266.50 C 367.19 269.79 367.52 269.79 370.88 275.38 C 374.23 280.96 381.79 295.10 384.88 300.00 C 387.96 304.90 388.17 303.77 389.38 304.75 C 390.58 305.73 390.96 305.71 392.12 305.88 C 393.29 306.04 394.42 306.42 396.38 305.75 C 398.33 305.08 401.60 303.31 403.88 301.88 C 406.15 300.44 407.83 299.40 410.00 297.12 C 412.17 294.85 414.94 291.25 416.88 288.25 C 418.81 285.25 420.31 281.96 421.62 279.12 C 422.94 276.29 423.73 274.15 424.75 271.25 C 425.77 268.35 426.62 265.77 427.75 261.75 C 428.88 257.73 430.19 253.04 431.50 247.12 C 432.81 241.21 434.27 233.92 435.62 226.25 C 436.98 218.58 438.23 210.65 439.62 201.12 C 441.02 191.60 442.94 176.25 444.00 169.12 C 445.06 162.00 445.19 161.81 446.00 158.38 C 446.81 154.94 447.42 152.27 448.88 148.50 C 450.33 144.73 453.77 138.48 454.75 135.75 C 455.73 133.02 454.92 133.06 454.75 132.12 C 454.58 131.19 454.42 131.04 453.75 130.12 C 453.08 129.21 452.00 127.83 450.75 126.62 C 449.50 125.42 448.25 124.29 446.25 122.88 C 444.25 121.46 442.88 120.10 438.75 118.12 C 434.62 116.15 425.04 112.17 421.50 111.00 Z" id="s-6-f-0"/>
<clipPath id="c-s-6"><use href="#s-6-f-0"/></clipPath>
<path d="M 298.00 113.00 C 297.02 113.21 296.35 113.75 295.75 114.25 C 295.15 114.75 294.69 115.08 294.38 116.00 C 294.06 116.92 293.77 117.67 293.88 119.75 C 293.98 121.83 294.52 125.85 295.00 128.50 C 295.48 131.15 296.29 133.25 296.75 135.62 C 297.21 138.00 297.44 139.67 297.75 142.75 C 298.06 145.83 298.40 109.88 298.62 154.12 C 298.85 198.38 298.90 362.10 299.12 408.25 C 299.35 454.40 299.67 424.98 300.00 431.00 C 300.33 437.02 300.77 441.35 301.12 444.38 C 301.48 447.40 301.60 447.27 302.12 449.12 C 302.65 450.98 303.48 453.83 304.25 455.50 C 305.02 457.17 305.94 458.40 306.75 459.12 C 307.56 459.85 308.31 460.00 309.12 459.88 C 309.94 459.75 310.69 459.48 311.62 458.38 C 312.56 457.27 313.77 455.25 314.75 453.25 C 315.73 451.25 316.50 449.25 317.50 446.38 C 318.50 443.50 319.73 440.83 320.75 436.00 C 321.77 431.17 322.79 423.83 323.62 417.38 C 324.46 410.92 325.04 407.29 325.75 397.25 C 326.46 387.21 327.17 393.33 327.88 357.12 C 328.58 320.92 329.46 212.10 330.00 180.00 C 330.54 147.90 330.62 169.00 331.12 164.50 C 331.62 160.00 332.31 156.50 333.00 153.00 C 333.69 149.50 334.90 146.19 335.25 143.50 C 335.60 140.81 335.29 138.40 335.12 136.88 C 334.96 135.35 334.44 135.96 334.25 134.38 C 334.06 132.79 334.19 128.62 334.00 127.38 C 333.81 126.12 333.25 127.08 333.12 126.88 C 333.00 126.67 334.10 126.96 333.25 126.12 C 332.40 125.29 329.83 123.08 328.00 121.88 C 326.17 120.67 325.23 120.02 322.25 118.88 C 319.27 117.73 313.56 115.98 310.12 115.00 C 306.69 114.02 303.65 113.33 301.62 113.00 C 299.60 112.67 298.98 112.79 298.00 113.00 Z" id="s-7-f-0"/>
<clipPath id="c-s-7"><use href="#s-7-f-0"/></clipPath>
</defs>
<g id="s-0" clip-path="url(#c-s-0)">
<use href="#s-0-f-0"/>
<path d="M 183.62 51.38 C 182.65 50.38 180.54 48.23 178.88 47.00 C 177.21 45.77 177.33 45.33 173.62 44.00 C 169.92 42.67 160.44 39.83 156.62 39.00 C 152.81 38.17 151.94 38.88 150.75 39.00 C 149.56 39.12 149.81 39.48 149.50 39.75 C 149.19 40.02 149.15 38.48 148.88 40.62 C 148.60 42.77 148.25 49.77 147.88 52.62 C 147.50 55.48 148.65 53.67 146.62 57.75 C 144.60 61.83 139.08 71.69 135.75 77.12 C 132.42 82.56 129.27 86.71 126.62 90.38 C 123.98 94.04 126.19 91.75 119.88 99.12 C 113.56 106.50 93.67 128.65 88.75 134.62 C 83.83 140.60 86.44 134.98 90.38 135.00 C 94.31 135.02 106.40 136.73 112.38 134.75 C 118.35 132.77 121.48 127.54 126.25 123.12 C 131.02 118.71 136.35 113.31 141.00 108.25 C 145.65 103.19 150.60 96.75 154.12 92.75 C 157.65 88.75 157.90 88.50 162.12 84.25 C 166.35 80.00 176.23 70.31 179.50 67.25 C 182.77 64.19 180.90 66.60 181.75 65.88 C 182.60 65.15 183.96 63.79 184.62 62.88 C 185.29 61.96 185.54 61.38 185.75 60.38 C 185.96 59.38 186.04 58.10 185.88 56.88 C 185.71 55.65 185.12 53.92 184.75 53.00 C 184.38 52.08 184.60 52.38 183.62 51.38 Z" id="s-0-f-1"/>
<path d="M 184.75 53.00 C 183.85 51.73 182.23 49.62 180.38 48.12 C 178.52 46.62 177.58 45.52 173.62 44.00 C 169.67 42.48 160.19 39.85 156.62 39.00 C 153.06 38.15 153.35 38.81 152.25 38.88 C 151.15 38.94 150.56 39.08 150.00 39.38 C 149.44 39.67 149.25 38.27 148.88 40.62 C 148.50 42.98 148.27 50.29 147.75 53.50 C 147.23 56.71 147.58 56.21 145.75 59.88 C 143.92 63.54 139.48 71.06 136.75 75.50 C 134.02 79.94 130.25 84.58 129.38 86.50 C 128.50 88.42 126.44 86.94 131.50 87.00 C 136.56 87.06 152.92 89.04 159.75 86.88 C 166.58 84.71 168.35 78.00 172.50 74.00 C 176.65 70.00 182.40 65.38 184.62 62.88 C 186.85 60.38 185.69 60.19 185.88 59.00 C 186.06 57.81 185.94 56.75 185.75 55.75 C 185.56 54.75 185.65 54.27 184.75 53.00 Z" id="s-0-f-2"/>
</g>
<g id="s-1" clip-path="url(#c-s-1)">
<use href="#s-1-f-0"/>
<path d="M 257.38 93.12 C 255.96 91.46 253.71 89.27 251.25 87.25 C 248.79 85.23 246.31 83.04 242.62 81.00 C 238.94 78.96 231.85 76.15 229.12 75.00 C 226.40 73.85 227.73 74.29 226.25 74.12 C 224.77 73.96 222.38 73.69 220.25 74.00 C 218.12 74.31 216.92 74.73 213.50 76.00 C 210.08 77.27 204.19 80.00 199.75 81.62 C 195.31 83.25 191.75 84.40 186.88 85.75 C 182.00 87.10 175.58 88.69 170.50 89.75 C 165.42 90.81 159.33 91.52 156.38 92.12 C 153.42 92.73 154.54 91.79 152.75 93.38 C 150.96 94.96 146.83 100.12 145.62 101.62 C 144.42 103.12 145.85 101.98 145.50 102.38 C 145.15 102.77 143.75 103.54 143.50 104.00 C 143.25 104.46 143.00 104.67 144.00 105.12 C 145.00 105.58 145.81 106.48 149.50 106.75 C 153.19 107.02 162.67 106.90 166.12 106.75 C 169.58 106.60 167.56 106.23 170.25 105.88 C 172.94 105.52 178.31 105.27 182.25 104.62 C 186.19 103.98 190.08 102.60 193.88 102.00 C 197.67 101.40 202.77 101.04 205.00 101.00 C 207.23 100.96 206.62 101.25 207.25 101.75 C 207.88 102.25 208.52 103.21 208.75 104.00 C 208.98 104.79 208.81 105.52 208.62 106.50 C 208.44 107.48 208.44 107.96 207.62 109.88 C 206.81 111.79 206.58 113.10 203.75 118.00 C 200.92 122.90 194.60 133.38 190.62 139.25 C 186.65 145.12 183.23 149.08 179.88 153.25 C 176.52 157.42 174.83 159.44 170.50 164.25 C 166.17 169.06 159.25 176.58 153.88 182.12 C 148.50 187.67 144.00 192.38 138.25 197.50 C 132.50 202.62 126.19 207.71 119.38 212.88 C 112.56 218.04 104.85 223.56 97.38 228.50 C 89.90 233.44 78.02 240.08 74.50 242.50 C 70.98 244.92 71.73 242.96 76.25 243.00 C 80.77 243.04 94.27 244.31 101.62 242.75 C 108.98 241.19 114.75 236.62 120.38 233.62 C 126.00 230.62 130.73 227.71 135.38 224.75 C 140.02 221.79 143.98 218.98 148.25 215.88 C 152.52 212.77 156.52 209.77 161.00 206.12 C 165.48 202.48 169.02 199.77 175.12 194.00 C 181.23 188.23 190.35 179.27 197.62 171.50 C 204.90 163.73 211.48 156.19 218.75 147.38 C 226.02 138.56 235.96 125.00 241.25 118.62 C 246.54 112.25 247.58 111.94 250.50 109.12 C 253.42 106.31 257.21 103.25 258.75 101.75 C 260.29 100.25 259.58 100.88 259.75 100.12 C 259.92 99.38 260.15 98.42 259.75 97.25 C 259.35 96.08 258.79 94.79 257.38 93.12 Z" id="s-1-f-1"/>
<path d="M 257.38 93.12 C 255.96 91.46 253.71 89.27 251.25 87.25 C 248.79 85.23 246.31 83.04 242.62 81.00 C 238.94 78.96 231.85 76.15 229.12 75.00 C 226.40 73.85 227.73 74.29 226.25 74.12 C 224.77 73.96 222.38 73.69 220.25 74.00 C 218.12 74.31 216.92 74.73 213.50 76.00 C 210.08 77.27 204.19 80.00 199.75 81.62 C 195.31 83.25 191.75 84.40 186.88 85.75 C 182.00 87.10 175.58 88.69 170.50 89.75 C 165.42 90.81 159.33 91.52 156.38 92.12 C 153.42 92.73 154.54 91.79 152.75 93.38 C 150.96 94.96 146.83 100.12 145.62 101.62 C 144.42 103.12 145.85 101.98 145.50 102.38 C 145.15 102.77 143.75 103.54 143.50 104.00 C 143.25 104.46 143.00 104.67 144.00 105.12 C 145.00 105.58 145.85 106.48 149.50 106.75 C 153.15 107.02 160.42 107.10 165.88 106.75 C 171.33 106.40 177.58 105.42 182.25 104.62 C 186.92 103.83 190.08 102.60 193.88 102.00 C 197.67 101.40 202.77 101.04 205.00 101.00 C 207.23 100.96 206.71 101.44 207.25 101.75 C 207.79 102.06 208.00 102.19 208.25 102.88 C 208.50 103.56 208.85 104.71 208.75 105.88 C 208.65 107.04 208.46 107.85 207.62 109.88 C 206.79 111.90 205.73 114.42 203.75 118.00 C 201.77 121.58 198.56 127.00 195.75 131.38 C 192.94 135.75 189.52 140.60 186.88 144.25 C 184.23 147.90 182.88 149.60 179.88 153.25 C 176.88 156.90 173.21 161.31 168.88 166.12 C 164.54 170.94 158.08 177.81 153.88 182.12 C 149.67 186.44 145.69 189.90 143.62 192.00 C 141.56 194.10 136.44 194.27 141.50 194.75 C 146.56 195.23 165.75 197.60 174.00 194.88 C 182.25 192.15 185.52 183.98 191.00 178.38 C 196.48 172.77 200.90 168.08 206.88 161.25 C 212.85 154.42 221.15 144.48 226.88 137.38 C 232.60 130.27 237.31 123.33 241.25 118.62 C 245.19 113.92 247.58 111.94 250.50 109.12 C 253.42 106.31 257.21 103.25 258.75 101.75 C 260.29 100.25 259.58 100.88 259.75 100.12 C 259.92 99.38 260.15 98.42 259.75 97.25 C 259.35 96.08 258.79 94.79 257.38 93.12 Z" id="s-1-f-2"/>
<path d="M 259.88 98.38 C 259.71 97.54 259.48 96.33 258.75 95.12 C 258.02 93.92 256.65 92.35 255.50 91.12 C 254.35 89.90 253.75 89.27 251.88 87.75 C 250.00 86.23 247.56 83.96 244.25 82.00 C 240.94 80.04 235.00 77.31 232.00 76.00 C 229.00 74.69 228.21 74.46 226.25 74.12 C 224.29 73.79 222.38 73.69 220.25 74.00 C 218.12 74.31 216.92 74.73 213.50 76.00 C 210.08 77.27 204.19 80.00 199.75 81.62 C 195.31 83.25 191.75 84.40 186.88 85.75 C 182.00 87.10 176.08 88.56 170.50 89.75 C 164.92 90.94 157.88 90.44 153.38 92.88 C 148.88 95.31 144.83 102.23 143.50 104.38 C 142.17 106.52 144.38 105.35 145.38 105.75 C 146.38 106.15 146.56 106.56 149.50 106.75 C 152.44 106.94 157.54 107.23 163.00 106.88 C 168.46 106.52 177.10 105.44 182.25 104.62 C 187.40 103.81 190.73 102.58 193.88 102.00 C 197.02 101.42 199.27 101.29 201.12 101.12 C 202.98 100.96 203.98 100.90 205.00 101.00 C 206.02 101.10 206.65 101.31 207.25 101.75 C 207.85 102.19 208.38 102.94 208.62 103.62 C 208.88 104.31 208.92 104.83 208.75 105.88 C 208.58 106.92 208.29 108.17 207.62 109.88 C 206.96 111.58 206.73 112.54 204.75 116.12 C 202.77 119.71 199.02 126.33 195.75 131.38 C 192.48 136.42 186.54 143.81 185.12 146.38 C 183.71 148.94 181.67 146.67 187.25 146.75 C 192.83 146.83 213.21 147.00 218.62 146.88 C 224.04 146.75 215.98 150.71 219.75 146.00 C 223.52 141.29 236.12 124.77 241.25 118.62 C 246.38 112.48 247.58 111.94 250.50 109.12 C 253.42 106.31 257.21 103.25 258.75 101.75 C 260.29 100.25 259.56 100.69 259.75 100.12 C 259.94 99.56 260.04 99.21 259.88 98.38 Z" id="s-1-f-3"/>
<path d="M 259.88 97.75 C 259.77 97.10 259.48 96.23 258.75 95.12 C 258.02 94.02 256.65 92.35 255.50 91.12 C 254.35 89.90 253.75 89.27 251.88 87.75 C 250.00 86.23 247.56 83.96 244.25 82.00 C 240.94 80.04 235.00 77.31 232.00 76.00 C 229.00 74.69 228.21 74.46 226.25 74.12 C 224.29 73.79 222.38 73.69 220.25 74.00 C 218.12 74.31 216.85 74.75 213.50 76.00 C 210.15 77.25 204.56 79.88 200.12 81.50 C 195.69 83.12 191.81 84.38 186.88 85.75 C 181.94 87.12 176.08 88.56 170.50 89.75 C 164.92 90.94 157.85 90.44 153.38 92.88 C 148.90 95.31 144.94 102.25 143.62 104.38 C 142.31 106.50 144.42 105.25 145.50 105.62 C 146.58 106.00 147.12 106.44 150.12 106.62 C 153.12 106.81 158.38 107.08 163.50 106.75 C 168.62 106.42 175.88 105.42 180.88 104.62 C 185.88 103.83 190.10 102.60 193.50 102.00 C 196.90 101.40 192.38 101.38 201.25 101.00 C 210.12 100.62 237.06 100.08 246.75 99.75 C 256.44 99.42 257.19 99.33 259.38 99.00 C 261.56 98.67 259.98 98.40 259.88 97.75 Z" id="s-1-f-4"/>
<path d="M 239.88 80.25 C 239.73 77.10 240.92 80.12 239.12 79.25 C 237.33 78.38 231.71 75.90 229.12 75.00 C 226.54 74.10 225.19 74.02 223.62 73.88 C 222.06 73.73 221.92 73.60 219.75 74.12 C 217.58 74.65 214.54 75.54 210.62 77.00 C 206.71 78.46 200.21 81.42 196.25 82.88 C 192.29 84.33 191.17 84.60 186.88 85.75 C 182.58 86.90 176.08 88.56 170.50 89.75 C 164.92 90.94 157.85 90.44 153.38 92.88 C 148.90 95.31 144.94 102.25 143.62 104.38 C 142.31 106.50 144.42 105.25 145.50 105.62 C 146.58 106.00 147.12 106.44 150.12 106.62 C 153.12 106.81 158.38 107.08 163.50 106.75 C 168.62 106.42 175.88 105.42 180.88 104.62 C 185.88 103.83 190.10 102.60 193.50 102.00 C 196.90 101.40 193.60 101.35 201.25 101.00 C 208.90 100.65 232.92 100.35 239.38 99.88 C 245.83 99.40 239.92 101.40 240.00 98.12 C 240.08 94.85 240.02 83.40 239.88 80.25 Z" id="s-1-f-5"/>
<path d="M 191.88 84.75 C 191.69 82.04 192.17 84.08 190.88 84.38 C 189.58 84.67 187.52 85.60 184.12 86.50 C 180.73 87.40 175.62 88.69 170.50 89.75 C 165.38 90.81 157.85 90.44 153.38 92.88 C 148.90 95.31 144.94 102.25 143.62 104.38 C 142.31 106.50 144.42 105.25 145.50 105.62 C 146.58 106.00 147.60 106.42 150.12 106.62 C 152.65 106.83 155.50 107.21 160.62 106.88 C 165.75 106.54 175.75 105.33 180.88 104.62 C 186.00 103.92 189.52 103.29 191.38 102.62 C 193.23 101.96 191.92 103.60 192.00 100.62 C 192.08 97.65 192.06 87.46 191.88 84.75 Z" id="s-1-f-6"/>
</g>
<g id="s-2" clip-path="url(#c-s-2)">
<use href="#s-2-f-0"/>
<path d="M 105.75 138.00 C 105.58 138.33 105.77 138.75 106.25 139.50 C 106.73 140.25 107.31 140.04 108.62 142.50 C 109.94 144.96 112.04 150.10 114.12 154.25 C 116.21 158.40 118.96 163.58 121.12 167.38 C 123.29 171.17 125.38 174.46 127.12 177.00 C 128.88 179.54 130.58 181.62 131.62 182.62 C 132.67 183.62 130.21 182.94 133.38 183.00 C 136.54 183.06 147.60 183.10 150.62 183.00 C 153.65 182.90 151.12 183.48 151.50 182.38 C 151.88 181.27 152.67 178.85 152.88 176.38 C 153.08 173.90 152.94 169.81 152.75 167.50 C 152.56 165.19 152.42 164.48 151.75 162.50 C 151.08 160.52 150.10 157.79 148.75 155.62 C 147.40 153.46 145.83 151.60 143.62 149.50 C 141.42 147.40 138.15 144.73 135.50 143.00 C 132.85 141.27 130.31 140.29 127.75 139.12 C 125.19 137.96 122.85 136.75 120.12 136.00 C 117.40 135.25 113.52 134.38 111.38 134.62 C 109.23 134.88 108.19 136.94 107.25 137.50 C 106.31 138.06 105.92 137.67 105.75 138.00 Z" id="s-2-f-1"/>
</g>
<g id="s-3" clip-path="url(#c-s-3)">
<use href="#s-3-f-0"/>
<path d="M 206.12 220.62 C 205.00 219.33 202.77 217.25 201.00 216.00 C 199.23 214.75 197.29 213.94 195.50 213.12 C 193.71 212.31 193.75 212.15 190.25 211.12 C 186.75 210.10 178.15 207.69 174.50 207.00 C 170.85 206.31 169.71 206.88 168.38 207.00 C 167.04 207.12 166.92 207.48 166.50 207.75 C 166.08 208.02 166.04 207.31 165.88 208.62 C 165.71 209.94 165.69 213.56 165.50 215.62 C 165.31 217.69 165.06 219.44 164.75 221.00 C 164.44 222.56 164.96 222.29 163.62 225.00 C 162.29 227.71 159.10 233.35 156.75 237.25 C 154.40 241.15 152.38 244.33 149.50 248.38 C 146.62 252.42 142.81 257.38 139.50 261.50 C 136.19 265.62 134.92 267.31 129.62 273.12 C 124.33 278.94 112.38 291.60 107.75 296.38 C 103.12 301.15 102.90 300.69 101.88 301.75 C 100.85 302.81 97.98 302.56 101.62 302.75 C 105.27 302.94 119.44 303.21 123.75 302.88 C 128.06 302.54 125.27 302.25 127.50 300.75 C 129.73 299.25 132.92 297.29 137.12 293.88 C 141.33 290.46 144.40 288.15 152.75 280.25 C 161.10 272.35 179.31 254.00 187.25 246.50 C 195.19 239.00 197.69 237.38 200.38 235.25 C 203.06 233.12 202.42 234.42 203.38 233.75 C 204.33 233.08 205.38 232.31 206.12 231.25 C 206.88 230.19 207.60 228.62 207.88 227.38 C 208.15 226.12 208.04 224.88 207.75 223.75 C 207.46 222.62 207.25 221.92 206.12 220.62 Z" id="s-3-f-1"/>
<path d="M 205.25 219.62 C 204.10 218.38 203.19 217.27 200.75 215.88 C 198.31 214.48 194.98 212.73 190.62 211.25 C 186.27 209.77 178.33 207.71 174.62 207.00 C 170.92 206.29 169.73 206.88 168.38 207.00 C 167.02 207.12 166.92 207.48 166.50 207.75 C 166.08 208.02 166.02 207.44 165.88 208.62 C 165.73 209.81 165.81 212.81 165.62 214.88 C 165.44 216.94 165.08 219.31 164.75 221.00 C 164.42 222.69 165.46 221.50 163.62 225.00 C 161.79 228.50 156.81 237.17 153.75 242.00 C 150.69 246.83 146.69 251.88 145.25 254.00 C 143.81 256.12 139.94 254.58 145.12 254.75 C 150.31 254.92 170.75 255.02 176.38 255.00 C 182.00 254.98 175.71 257.25 178.88 254.62 C 182.04 252.00 191.79 242.48 195.38 239.25 C 198.96 236.02 199.04 236.17 200.38 235.25 C 201.71 234.33 202.42 234.42 203.38 233.75 C 204.33 233.08 205.38 232.31 206.12 231.25 C 206.88 230.19 207.62 228.69 207.88 227.38 C 208.12 226.06 208.06 224.67 207.62 223.38 C 207.19 222.08 206.40 220.88 205.25 219.62 Z" id="s-3-f-2"/>
</g>
<g id="s-4" clip-path="url(#c-s-4)">
<use href="#s-4-f-0"/>
<path d="M 276.12 260.62 C 274.77 259.04 272.56 256.77 270.38 254.88 C 268.19 252.98 266.10 251.04 263.00 249.25 C 259.90 247.46 254.54 245.29 251.75 244.12 C 248.96 242.96 248.19 242.60 246.25 242.25 C 244.31 241.90 243.06 241.52 240.12 242.00 C 237.19 242.48 232.75 243.67 228.62 245.12 C 224.50 246.58 219.69 249.15 215.38 250.75 C 211.06 252.35 207.60 253.42 202.75 254.75 C 197.90 256.08 191.62 257.60 186.25 258.75 C 180.88 259.90 175.29 259.08 170.50 261.62 C 165.71 264.17 159.62 271.81 157.50 274.00 C 155.38 276.19 157.38 274.46 157.75 274.75 C 158.12 275.04 158.58 275.42 159.75 275.75 C 160.92 276.08 161.06 276.58 164.75 276.75 C 168.44 276.92 176.98 277.04 181.88 276.75 C 186.77 276.46 191.08 275.35 194.12 275.00 C 197.17 274.65 198.42 274.83 200.12 274.62 C 201.83 274.42 203.00 274.19 204.38 273.75 C 205.75 273.31 206.56 272.62 208.38 272.00 C 210.19 271.38 213.00 270.50 215.25 270.00 C 217.50 269.50 220.21 269.15 221.88 269.00 C 223.54 268.85 224.38 268.98 225.25 269.12 C 226.12 269.27 226.54 269.42 227.12 269.88 C 227.71 270.33 228.48 271.21 228.75 271.88 C 229.02 272.54 229.25 272.21 228.75 273.88 C 228.25 275.54 227.73 278.12 225.75 281.88 C 223.77 285.62 222.19 288.65 216.88 296.38 C 211.56 304.10 200.15 320.04 193.88 328.25 C 187.60 336.46 184.31 339.96 179.25 345.62 C 174.19 351.29 169.48 356.27 163.50 362.25 C 157.52 368.23 149.23 376.29 143.38 381.50 C 137.52 386.71 133.60 389.50 128.38 393.50 C 123.15 397.50 115.88 402.77 112.00 405.50 C 108.12 408.23 106.33 409.00 105.12 409.88 C 103.92 410.75 99.25 410.58 104.75 410.75 C 110.25 410.92 130.06 412.54 138.12 410.88 C 146.19 409.21 147.40 404.96 153.12 400.75 C 158.85 396.54 167.10 390.12 172.50 385.62 C 177.90 381.12 179.90 379.25 185.50 373.75 C 191.10 368.25 200.52 358.56 206.12 352.62 C 211.73 346.69 214.33 343.67 219.12 338.12 C 223.92 332.58 229.65 325.79 234.88 319.38 C 240.10 312.96 247.29 303.85 250.50 299.62 C 253.71 295.40 252.00 296.54 254.12 294.00 C 256.25 291.46 259.58 287.90 263.25 284.38 C 266.92 280.85 273.73 275.10 276.12 272.88 C 278.52 270.65 277.17 271.92 277.62 271.00 C 278.08 270.08 278.73 268.48 278.88 267.38 C 279.02 266.27 278.96 265.50 278.50 264.38 C 278.04 263.25 277.48 262.21 276.12 260.62 Z" id="s-4-f-1"/>
<path d="M 275.88 260.25 C 274.48 258.54 272.56 256.73 270.38 254.88 C 268.19 253.02 265.85 250.92 262.75 249.12 C 259.65 247.33 254.50 245.27 251.75 244.12 C 249.00 242.98 248.19 242.60 246.25 242.25 C 244.31 241.90 243.06 241.52 240.12 242.00 C 237.19 242.48 232.75 243.67 228.62 245.12 C 224.50 246.58 219.69 249.15 215.38 250.75 C 211.06 252.35 207.60 253.42 202.75 254.75 C 197.90 256.08 191.62 257.60 186.25 258.75 C 180.88 259.90 175.29 259.08 170.50 261.62 C 165.71 264.17 159.62 271.81 157.50 274.00 C 155.38 276.19 157.38 274.46 157.75 274.75 C 158.12 275.04 158.58 275.42 159.75 275.75 C 160.92 276.08 161.06 276.58 164.75 276.75 C 168.44 276.92 176.98 277.04 181.88 276.75 C 186.77 276.46 191.08 275.35 194.12 275.00 C 197.17 274.65 198.42 274.83 200.12 274.62 C 201.83 274.42 203.00 274.19 204.38 273.75 C 205.75 273.31 206.56 272.62 208.38 272.00 C 210.19 271.38 213.00 270.50 215.25 270.00 C 217.50 269.50 220.21 269.15 221.88 269.00 C 223.54 268.85 224.38 268.98 225.25 269.12 C 226.12 269.27 226.54 269.42 227.12 269.88 C 227.71 270.33 228.48 271.21 228.75 271.88 C 229.02 272.54 229.08 272.54 228.75 273.88 C 228.42 275.21 227.75 277.65 226.75 279.88 C 225.75 282.10 224.40 284.50 222.75 287.25 C 221.10 290.00 220.54 291.06 216.88 296.38 C 213.21 301.69 205.81 312.29 200.75 319.12 C 195.69 325.96 190.75 332.23 186.50 337.38 C 182.25 342.52 179.06 345.90 175.25 350.00 C 171.44 354.10 165.60 359.88 163.62 362.00 C 161.65 364.12 157.94 362.60 163.38 362.75 C 168.81 362.90 187.85 365.96 196.25 362.88 C 204.65 359.79 208.29 350.31 213.75 344.25 C 219.21 338.19 222.88 333.94 229.00 326.50 C 235.12 319.06 246.31 305.04 250.50 299.62 C 254.69 294.21 252.00 296.54 254.12 294.00 C 256.25 291.46 259.85 287.60 263.25 284.38 C 266.65 281.15 272.17 276.77 274.50 274.62 C 276.83 272.48 276.54 272.52 277.25 271.50 C 277.96 270.48 278.50 269.56 278.75 268.50 C 279.00 267.44 279.23 266.50 278.75 265.12 C 278.27 263.75 277.27 261.96 275.88 260.25 Z" id="s-4-f-2"/>
<path d="M 278.88 265.88 C 278.88 265.04 279.00 265.31 278.50 264.38 C 278.00 263.44 277.23 261.83 275.88 260.25 C 274.52 258.67 272.56 256.73 270.38 254.88 C 268.19 253.02 265.90 250.94 262.75 249.12 C 259.60 247.31 254.25 245.15 251.50 244.00 C 248.75 242.85 248.15 242.58 246.25 242.25 C 244.35 241.92 243.06 241.52 240.12 242.00 C 237.19 242.48 232.75 243.67 228.62 245.12 C 224.50 246.58 219.69 249.15 215.38 250.75 C 211.06 252.35 207.58 253.42 202.75 254.75 C 197.92 256.08 191.75 257.60 186.38 258.75 C 181.00 259.90 175.31 259.04 170.50 261.62 C 165.69 264.21 159.35 271.92 157.50 274.25 C 155.65 276.58 158.17 275.21 159.38 275.62 C 160.58 276.04 161.00 276.56 164.75 276.75 C 168.50 276.94 176.98 277.04 181.88 276.75 C 186.77 276.46 191.08 275.35 194.12 275.00 C 197.17 274.65 198.42 274.83 200.12 274.62 C 201.83 274.42 203.00 274.19 204.38 273.75 C 205.75 273.31 206.56 272.62 208.38 272.00 C 210.19 271.38 213.15 270.48 215.25 270.00 C 217.35 269.52 219.48 269.29 221.00 269.12 C 222.52 268.96 223.35 268.88 224.38 269.00 C 225.40 269.12 226.40 269.40 227.12 269.88 C 227.85 270.35 228.48 271.21 228.75 271.88 C 229.02 272.54 229.25 272.21 228.75 273.88 C 228.25 275.54 227.73 278.12 225.75 281.88 C 223.77 285.62 220.50 290.94 216.88 296.38 C 213.25 301.81 204.44 311.40 204.00 314.50 C 203.56 317.60 208.54 314.94 214.25 315.00 C 219.96 315.06 231.08 318.96 238.25 314.88 C 245.42 310.79 252.71 295.94 257.25 290.50 C 261.79 285.06 262.35 285.19 265.50 282.25 C 268.65 279.31 273.96 275.02 276.12 272.88 C 278.29 270.73 278.04 270.54 278.50 269.38 C 278.96 268.21 278.88 266.71 278.88 265.88 Z" id="s-4-f-3"/>
<path d="M 278.88 265.75 C 278.67 265.10 278.10 263.65 277.62 262.75 C 277.15 261.85 277.21 261.69 276.00 260.38 C 274.79 259.06 272.48 256.69 270.38 254.88 C 268.27 253.06 265.69 250.96 263.38 249.50 C 261.06 248.04 259.35 247.33 256.50 246.12 C 253.65 244.92 248.98 242.94 246.25 242.25 C 243.52 241.56 243.06 241.52 240.12 242.00 C 237.19 242.48 232.75 243.67 228.62 245.12 C 224.50 246.58 219.69 249.15 215.38 250.75 C 211.06 252.35 207.60 253.42 202.75 254.75 C 197.90 256.08 191.62 257.60 186.25 258.75 C 180.88 259.90 175.27 259.04 170.50 261.62 C 165.73 264.21 159.38 271.92 157.62 274.25 C 155.88 276.58 158.60 275.21 160.00 275.62 C 161.40 276.04 162.23 276.60 166.00 276.75 C 169.77 276.90 176.44 276.98 182.62 276.50 C 188.81 276.02 198.35 274.79 203.12 273.88 C 207.90 272.96 208.42 271.79 211.25 271.00 C 214.08 270.21 209.00 269.77 220.12 269.12 C 231.25 268.48 268.21 267.54 278.00 267.12 C 287.79 266.71 278.73 266.85 278.88 266.62 C 279.02 266.40 279.08 266.40 278.88 265.75 Z" id="s-4-f-4"/>
<path d="M 253.88 245.62 C 253.50 241.92 253.02 244.69 251.75 244.12 C 250.48 243.56 248.33 242.58 246.25 242.25 C 244.17 241.92 242.19 241.65 239.25 242.12 C 236.31 242.60 232.60 243.69 228.62 245.12 C 224.65 246.56 219.69 249.15 215.38 250.75 C 211.06 252.35 207.60 253.42 202.75 254.75 C 197.90 256.08 191.56 257.62 186.25 258.75 C 180.94 259.88 175.65 258.92 170.88 261.50 C 166.10 264.08 159.50 271.92 157.62 274.25 C 155.75 276.58 158.23 275.08 159.62 275.50 C 161.02 275.92 162.48 276.56 166.00 276.75 C 169.52 276.94 174.44 277.12 180.75 276.62 C 187.06 276.12 198.79 274.69 203.88 273.75 C 208.96 272.81 208.54 271.77 211.25 271.00 C 213.96 270.23 213.10 269.62 220.12 269.12 C 227.15 268.62 247.75 268.25 253.38 268.00 C 259.00 267.75 253.77 267.90 253.88 267.62 C 253.98 267.35 254.00 270.04 254.00 266.38 C 254.00 262.71 254.25 249.33 253.88 245.62 Z" id="s-4-f-5"/>
<path d="M 205.50 255.12 C 205.27 252.02 207.71 253.40 204.50 254.00 C 201.29 254.60 191.92 257.48 186.25 258.75 C 180.58 260.02 175.27 259.04 170.50 261.62 C 165.73 264.21 159.50 271.96 157.62 274.25 C 155.75 276.54 157.85 274.96 159.25 275.38 C 160.65 275.79 163.38 276.50 166.00 276.75 C 168.62 277.00 171.06 277.04 175.00 276.88 C 178.94 276.71 184.77 276.29 189.62 275.75 C 194.48 275.21 201.42 274.15 204.12 273.62 C 206.83 273.10 205.65 275.71 205.88 272.62 C 206.10 269.54 205.73 258.23 205.50 255.12 Z" id="s-4-f-6"/>
</g>
<g id="s-5" clip-path="url(#c-s-5)">
<use href="#s-5-f-0"/>
<path d="M 111.62 311.00 C 111.75 311.77 114.00 313.08 114.88 314.12 C 115.75 315.17 113.85 311.73 116.88 317.25 C 119.90 322.77 129.67 341.19 133.00 347.25 C 136.33 353.31 135.88 352.50 136.88 353.62 C 137.88 354.75 134.56 353.94 139.00 354.00 C 143.44 354.06 159.33 354.08 163.50 354.00 C 167.67 353.92 163.79 354.04 164.00 353.50 C 164.21 352.96 164.62 352.50 164.75 350.75 C 164.88 349.00 165.06 345.38 164.75 343.00 C 164.44 340.62 163.83 338.73 162.88 336.50 C 161.92 334.27 160.62 331.73 159.00 329.62 C 157.38 327.52 155.02 325.48 153.12 323.88 C 151.23 322.27 150.46 321.77 147.62 320.00 C 144.79 318.23 139.04 314.90 136.12 313.25 C 133.21 311.60 132.94 311.40 130.12 310.12 C 127.31 308.85 121.27 306.35 119.25 305.62 C 117.23 304.90 118.85 305.10 118.00 305.75 C 117.15 306.40 115.19 308.62 114.12 309.50 C 113.06 310.38 111.50 310.23 111.62 311.00 Z" id="s-5-f-1"/>
</g>
<g id="s-6" clip-path="url(#c-s-6)">
<use href="#s-6-f-0"/>
<path d="M 421.50 111.00 C 417.96 109.83 422.19 110.19 417.50 111.12 C 412.81 112.06 402.69 114.98 393.38 116.62 C 384.06 118.27 369.38 119.81 361.62 121.00 C 353.88 122.19 351.56 122.96 346.88 123.75 C 342.19 124.54 335.85 125.21 333.50 125.75 C 331.15 126.29 332.56 124.17 332.75 127.00 C 332.94 129.83 334.25 139.98 334.62 142.75 C 335.00 145.52 334.81 143.46 335.00 143.62 C 335.19 143.79 335.17 143.75 335.75 143.75 C 336.33 143.75 335.02 144.42 338.50 143.62 C 341.98 142.83 350.33 140.44 356.62 139.00 C 362.92 137.56 370.88 136.00 376.25 135.00 C 381.62 134.00 385.04 133.50 388.88 133.00 C 392.71 132.50 396.52 132.15 399.25 132.00 C 401.98 131.85 403.54 131.94 405.25 132.12 C 406.96 132.31 408.12 132.52 409.50 133.12 C 410.88 133.73 412.60 135.04 413.50 135.75 C 414.40 136.46 414.52 136.77 414.88 137.38 C 415.23 137.98 415.48 137.50 415.62 139.38 C 415.77 141.25 415.88 143.90 415.75 148.62 C 415.62 153.35 415.54 159.25 414.88 167.75 C 414.21 176.25 412.77 191.06 411.75 199.62 C 410.73 208.19 409.75 213.38 408.75 219.12 C 407.75 224.88 406.92 229.23 405.75 234.12 C 404.58 239.02 402.77 245.15 401.75 248.50 C 400.73 251.85 400.27 252.75 399.62 254.25 C 398.98 255.75 398.29 256.27 397.88 257.50 C 397.46 258.73 397.98 253.67 397.12 261.62 C 396.27 269.58 393.35 297.88 392.75 305.25 C 392.15 312.62 392.88 305.83 393.50 305.88 C 394.12 305.92 395.00 306.02 396.50 305.50 C 398.00 304.98 400.54 303.88 402.50 302.75 C 404.46 301.62 406.81 299.88 408.25 298.75 C 409.69 297.62 409.88 297.46 411.12 296.00 C 412.38 294.54 414.00 292.81 415.75 290.00 C 417.50 287.19 420.12 282.25 421.62 279.12 C 423.12 276.00 423.56 274.75 424.75 271.25 C 425.94 267.75 427.60 262.25 428.75 258.12 C 429.90 254.00 430.48 251.81 431.62 246.50 C 432.77 241.19 434.29 233.81 435.62 226.25 C 436.96 218.69 438.23 210.65 439.62 201.12 C 441.02 191.60 442.94 176.25 444.00 169.12 C 445.06 162.00 445.19 161.81 446.00 158.38 C 446.81 154.94 447.42 152.27 448.88 148.50 C 450.33 144.73 453.77 138.46 454.75 135.75 C 455.73 133.04 454.92 133.19 454.75 132.25 C 454.58 131.31 454.25 130.90 453.75 130.12 C 453.25 129.35 453.00 128.83 451.75 127.62 C 450.50 126.42 448.42 124.46 446.25 122.88 C 444.08 121.29 442.88 120.10 438.75 118.12 C 434.62 116.15 425.04 112.17 421.50 111.00 Z" id="s-6-f-1"/>
<path d="M 421.50 111.00 C 417.96 109.83 422.19 110.19 417.50 111.12 C 412.81 112.06 402.67 114.98 393.38 116.62 C 384.08 118.27 369.50 119.81 361.75 121.00 C 354.00 122.19 351.58 122.96 346.88 123.75 C 342.17 124.54 335.85 125.21 333.50 125.75 C 331.15 126.29 332.56 124.17 332.75 127.00 C 332.94 129.83 334.25 139.98 334.62 142.75 C 335.00 145.52 334.81 143.46 335.00 143.62 C 335.19 143.79 335.17 143.75 335.75 143.75 C 336.33 143.75 335.02 144.42 338.50 143.62 C 341.98 142.83 350.31 140.44 356.62 139.00 C 362.94 137.56 371.00 136.00 376.38 135.00 C 381.75 134.00 385.06 133.50 388.88 133.00 C 392.69 132.50 396.52 132.15 399.25 132.00 C 401.98 131.85 403.54 131.94 405.25 132.12 C 406.96 132.31 408.27 132.67 409.50 133.12 C 410.73 133.58 411.73 134.17 412.62 134.88 C 413.52 135.58 414.35 136.40 414.88 137.38 C 415.40 138.35 415.65 137.69 415.75 140.75 C 415.85 143.81 415.69 150.69 415.50 155.75 C 415.31 160.81 415.25 163.81 414.62 171.12 C 414.00 178.44 412.73 191.62 411.75 199.62 C 410.77 207.62 409.75 213.38 408.75 219.12 C 407.75 224.88 406.92 229.23 405.75 234.12 C 404.58 239.02 402.77 245.15 401.75 248.50 C 400.73 251.85 400.27 252.75 399.62 254.25 C 398.98 255.75 398.31 256.23 397.88 257.50 C 397.44 258.77 397.06 260.98 397.00 261.88 C 396.94 262.77 392.85 262.69 397.50 262.88 C 402.15 263.06 419.98 263.00 424.88 263.00 C 429.77 263.00 426.42 263.02 426.88 262.88 C 427.33 262.73 426.83 264.85 427.62 262.12 C 428.42 259.40 430.29 252.48 431.62 246.50 C 432.96 240.52 434.29 233.79 435.62 226.25 C 436.96 218.71 438.23 210.77 439.62 201.25 C 441.02 191.73 442.94 176.27 444.00 169.12 C 445.06 161.98 445.19 161.81 446.00 158.38 C 446.81 154.94 447.42 152.25 448.88 148.50 C 450.33 144.75 453.77 138.58 454.75 135.88 C 455.73 133.17 454.92 133.21 454.75 132.25 C 454.58 131.29 454.25 130.90 453.75 130.12 C 453.25 129.35 453.00 128.83 451.75 127.62 C 450.50 126.42 448.42 124.46 446.25 122.88 C 444.08 121.29 442.88 120.10 438.75 118.12 C 434.62 116.15 425.04 112.17 421.50 111.00 Z" id="s-6-f-2"/>
<path d="M 333.12 126.00 C 332.54 126.44 332.48 124.85 332.75 127.75 C 333.02 130.65 334.25 140.71 334.75 143.38 C 335.25 146.04 334.38 143.88 335.75 143.75 C 337.12 143.62 338.75 143.58 343.00 142.62 C 347.25 141.67 353.60 139.60 361.25 138.00 C 368.90 136.40 381.83 134.00 388.88 133.00 C 395.92 132.00 400.12 132.00 403.50 132.00 C 406.88 132.00 407.60 132.52 409.12 133.00 C 410.65 133.48 411.67 134.15 412.62 134.88 C 413.58 135.60 414.38 136.56 414.88 137.38 C 415.38 138.19 415.50 137.15 415.62 139.75 C 415.75 142.35 415.94 146.08 415.62 153.00 C 415.31 159.92 414.40 173.48 413.75 181.25 C 413.10 189.02 412.48 194.10 411.75 199.62 C 411.02 205.15 409.69 211.83 409.38 214.38 C 409.06 216.92 405.58 214.77 409.88 214.88 C 414.17 214.98 430.54 215.06 435.12 215.00 C 439.71 214.94 435.90 222.15 437.38 214.50 C 438.85 206.85 442.56 178.48 444.00 169.12 C 445.44 159.77 445.29 161.54 446.00 158.38 C 446.71 155.21 446.98 153.38 448.25 150.12 C 449.52 146.88 452.52 141.44 453.62 138.88 C 454.73 136.31 454.69 135.88 454.88 134.75 C 455.06 133.62 454.94 132.90 454.75 132.12 C 454.56 131.35 454.98 131.52 453.75 130.12 C 452.52 128.73 449.88 125.75 447.38 123.75 C 444.88 121.75 442.96 120.23 438.75 118.12 C 434.54 116.02 425.38 112.33 422.12 111.12 C 418.88 109.92 424.21 109.94 419.25 110.88 C 414.29 111.81 401.96 115.06 392.38 116.75 C 382.79 118.44 369.33 119.83 361.75 121.00 C 354.17 122.17 351.12 123.06 346.88 123.75 C 342.62 124.44 338.54 124.75 336.25 125.12 C 333.96 125.50 333.71 125.56 333.12 126.00 Z" id="s-6-f-3"/>
<path d="M 454.88 133.00 C 454.83 132.25 454.85 132.08 454.50 131.38 C 454.15 130.67 453.94 130.02 452.75 128.75 C 451.56 127.48 449.71 125.52 447.38 123.75 C 445.04 121.98 442.12 119.92 438.75 118.12 C 435.38 116.33 430.17 114.21 427.12 113.00 C 424.08 111.79 422.10 111.19 420.50 110.88 C 418.90 110.56 422.02 110.17 417.50 111.12 C 412.98 112.08 402.67 114.98 393.38 116.62 C 384.08 118.27 369.50 119.81 361.75 121.00 C 354.00 122.19 351.58 122.96 346.88 123.75 C 342.17 124.54 335.85 125.21 333.50 125.75 C 331.15 126.29 332.56 124.17 332.75 127.00 C 332.94 129.83 334.25 139.98 334.62 142.75 C 335.00 145.52 333.60 143.65 335.00 143.62 C 336.40 143.60 338.83 143.52 343.00 142.62 C 347.17 141.73 352.35 139.85 360.00 138.25 C 367.65 136.65 381.62 134.04 388.88 133.00 C 396.12 131.96 400.12 132.00 403.50 132.00 C 406.88 132.00 407.85 132.69 409.12 133.00 C 410.40 133.31 410.29 133.29 411.12 133.88 C 411.96 134.46 413.38 135.58 414.12 136.50 C 414.88 137.42 415.38 136.56 415.62 139.38 C 415.88 142.19 415.73 148.88 415.62 153.38 C 415.52 157.88 411.77 164.10 415.00 166.38 C 418.23 168.65 430.10 166.96 435.00 167.00 C 439.90 167.04 442.17 169.44 444.38 166.62 C 446.58 163.81 446.52 155.25 448.25 150.12 C 449.98 145.00 453.65 138.73 454.75 135.88 C 455.85 133.02 454.92 133.75 454.88 133.00 Z" id="s-6-f-4"/>
<path d="M 439.12 118.75 C 439.10 118.46 441.33 119.27 438.50 118.00 C 435.67 116.73 425.31 112.31 422.12 111.12 C 418.94 109.94 424.33 109.94 419.38 110.88 C 414.42 111.81 401.98 115.06 392.38 116.75 C 382.77 118.44 371.40 119.54 361.75 121.00 C 352.10 122.46 339.27 124.67 334.50 125.50 C 329.73 126.33 333.42 125.65 333.12 126.00 C 332.83 126.35 332.48 124.73 332.75 127.62 C 333.02 130.52 334.33 140.69 334.75 143.38 C 335.17 146.06 334.62 143.71 335.25 143.75 C 335.88 143.79 334.94 144.42 338.50 143.62 C 342.06 142.83 350.33 140.44 356.62 139.00 C 362.92 137.56 370.88 136.00 376.25 135.00 C 381.62 134.00 384.58 133.54 388.88 133.00 C 393.17 132.46 393.71 133.96 402.00 131.75 C 410.29 129.54 432.44 121.92 438.62 119.75 C 444.81 117.58 439.15 119.04 439.12 118.75 Z" id="s-6-f-5"/>
<path d="M 428.88 114.25 C 428.56 112.75 428.25 113.52 427.12 113.00 C 426.00 112.48 423.60 111.46 422.12 111.12 C 420.65 110.79 423.04 110.08 418.25 111.00 C 413.46 111.92 402.79 114.96 393.38 116.62 C 383.96 118.29 371.73 119.48 361.75 121.00 C 351.77 122.52 338.31 124.85 333.50 125.75 C 328.69 126.65 333.00 126.06 332.88 126.38 C 332.75 126.69 332.44 124.79 332.75 127.62 C 333.06 130.46 334.33 140.69 334.75 143.38 C 335.17 146.06 334.65 143.71 335.25 143.75 C 335.85 143.79 334.81 144.42 338.38 143.62 C 341.94 142.83 350.31 140.44 356.62 139.00 C 362.94 137.56 370.88 136.00 376.25 135.00 C 381.62 134.00 384.73 133.52 388.88 133.00 C 393.02 132.48 398.42 132.23 401.12 131.88 C 403.83 131.52 400.54 132.38 405.12 130.88 C 409.71 129.38 424.65 124.35 428.62 122.88 C 432.60 121.40 428.96 123.44 429.00 122.00 C 429.04 120.56 429.19 115.75 428.88 114.25 Z" id="s-6-f-6"/>
<path d="M 380.75 119.00 C 380.60 116.65 382.12 118.46 380.12 118.62 C 378.12 118.79 376.52 118.81 368.75 120.00 C 360.98 121.19 339.48 124.67 333.50 125.75 C 327.52 126.83 333.00 126.17 332.88 126.50 C 332.75 126.83 332.46 125.04 332.75 127.75 C 333.04 130.46 334.12 140.10 334.62 142.75 C 335.12 145.40 335.12 143.48 335.75 143.62 C 336.38 143.77 334.33 144.52 338.38 143.62 C 342.42 142.73 353.06 139.75 360.00 138.25 C 366.94 136.75 376.54 135.33 380.00 134.62 C 383.46 133.92 380.58 134.31 380.75 134.00 C 380.92 133.69 381.00 135.25 381.00 132.75 C 381.00 130.25 380.90 121.35 380.75 119.00 Z" id="s-6-f-7"/>
</g>
<g id="s-7" clip-path="url(#c-s-7)">
<use href="#s-7-f-0"/>
<path d="M 298.00 113.00 C 296.90 113.19 296.35 113.75 295.75 114.25 C 295.15 114.75 294.69 115.08 294.38 116.00 C 294.06 116.92 293.77 117.67 293.88 119.75 C 293.98 121.83 294.52 125.85 295.00 128.50 C 295.48 131.15 296.29 133.25 296.75 135.62 C 297.21 138.00 297.44 139.67 297.75 142.75 C 298.06 145.83 298.44 112.73 298.62 154.12 C 298.81 195.52 298.65 345.00 298.88 391.12 C 299.10 437.25 299.67 422.29 300.00 430.88 C 300.33 439.46 300.54 439.71 300.88 442.62 C 301.21 445.54 301.52 447.31 302.00 448.38 C 302.48 449.44 301.60 448.90 303.75 449.00 C 305.90 449.10 312.71 449.12 314.88 449.00 C 317.04 448.88 315.75 450.52 316.75 448.25 C 317.75 445.98 319.71 440.69 320.88 435.38 C 322.04 430.06 322.79 424.79 323.75 416.38 C 324.71 407.96 325.96 393.71 326.62 384.88 C 327.29 376.04 327.40 376.88 327.75 363.38 C 328.10 349.88 328.38 334.42 328.75 303.88 C 329.12 273.33 329.60 203.35 330.00 180.12 C 330.40 156.90 330.62 169.02 331.12 164.50 C 331.62 159.98 332.31 156.50 333.00 153.00 C 333.69 149.50 334.90 146.19 335.25 143.50 C 335.60 140.81 335.29 138.40 335.12 136.88 C 334.96 135.35 334.44 135.96 334.25 134.38 C 334.06 132.79 334.19 128.62 334.00 127.38 C 333.81 126.12 333.25 127.08 333.12 126.88 C 333.00 126.67 334.04 126.92 333.25 126.12 C 332.46 125.33 330.10 123.29 328.38 122.12 C 326.65 120.96 325.35 120.15 322.88 119.12 C 320.40 118.10 316.92 117.00 313.50 116.00 C 310.08 115.00 304.96 113.62 302.38 113.12 C 299.79 112.62 299.10 112.81 298.00 113.00 Z" id="s-7-f-1"/>
<path d="M 298.00 113.00 C 296.90 113.19 296.35 113.75 295.75 114.25 C 295.15 114.75 294.69 115.08 294.38 116.00 C 294.06 116.92 293.77 117.67 293.88 119.75 C 293.98 121.83 294.52 125.85 295.00 128.50 C 295.48 131.15 296.29 133.25 296.75 135.62 C 297.21 138.00 297.44 139.67 297.75 142.75 C 298.06 145.83 298.42 111.29 298.62 154.12 C 298.83 196.96 298.90 358.65 299.00 399.75 C 299.10 440.85 298.88 400.54 299.25 400.75 C 299.62 400.96 297.02 400.98 301.25 401.00 C 305.48 401.02 320.60 401.00 324.62 400.88 C 328.65 400.75 324.85 406.50 325.38 400.25 C 325.90 394.00 326.98 400.06 327.75 363.38 C 328.52 326.69 329.44 213.27 330.00 180.12 C 330.56 146.98 330.62 169.02 331.12 164.50 C 331.62 159.98 332.31 156.50 333.00 153.00 C 333.69 149.50 334.90 146.19 335.25 143.50 C 335.60 140.81 335.29 138.40 335.12 136.88 C 334.96 135.35 334.44 135.96 334.25 134.38 C 334.06 132.79 334.19 128.62 334.00 127.38 C 333.81 126.12 333.25 127.06 333.12 126.88 C 333.00 126.69 334.04 127.04 333.25 126.25 C 332.46 125.46 330.10 123.31 328.38 122.12 C 326.65 120.94 325.35 120.15 322.88 119.12 C 320.40 118.10 316.92 117.00 313.50 116.00 C 310.08 115.00 304.96 113.62 302.38 113.12 C 299.79 112.62 299.10 112.81 298.00 113.00 Z" id="s-7-f-2"/>
<path d="M 298.00 113.00 C 297.02 113.21 296.35 113.75 295.75 114.25 C 295.15 114.75 294.69 115.08 294.38 116.00 C 294.06 116.92 293.77 117.67 293.88 119.75 C 293.98 121.83 294.52 125.85 295.00 128.50 C 295.48 131.15 296.29 133.25 296.75 135.62 C 297.21 138.00 297.44 139.67 297.75 142.75 C 298.06 145.83 298.42 119.21 298.62 154.12 C 298.83 189.04 298.88 319.10 299.00 352.25 C 299.12 385.40 294.65 352.88 299.38 353.00 C 304.10 353.12 322.62 353.17 327.38 353.00 C 332.12 352.83 327.65 360.19 327.88 352.00 C 328.10 343.81 328.40 332.52 328.75 303.88 C 329.10 275.23 329.60 203.35 330.00 180.12 C 330.40 156.90 330.62 169.02 331.12 164.50 C 331.62 159.98 332.31 156.50 333.00 153.00 C 333.69 149.50 334.90 146.19 335.25 143.50 C 335.60 140.81 335.29 138.40 335.12 136.88 C 334.96 135.35 334.42 135.88 334.25 134.38 C 334.08 132.88 334.31 129.12 334.12 127.88 C 333.94 126.62 333.31 127.21 333.12 126.88 C 332.94 126.54 333.50 126.46 333.00 125.88 C 332.50 125.29 331.81 124.50 330.12 123.38 C 328.44 122.25 326.71 120.67 322.88 119.12 C 319.04 117.58 310.67 115.15 307.12 114.12 C 303.58 113.10 303.15 113.19 301.62 113.00 C 300.10 112.81 298.98 112.79 298.00 113.00 Z" id="s-7-f-3"/>
<path d="M 298.00 113.00 C 297.02 113.21 296.35 113.75 295.75 114.25 C 295.15 114.75 294.69 115.08 294.38 116.00 C 294.06 116.92 293.77 117.67 293.88 119.75 C 293.98 121.83 294.52 125.85 295.00 128.50 C 295.48 131.15 296.29 133.25 296.75 135.62 C 297.21 138.00 297.44 139.67 297.75 142.75 C 298.06 145.83 298.42 127.17 298.62 154.12 C 298.83 181.08 298.88 279.35 299.00 304.50 C 299.12 329.65 294.54 304.94 299.38 305.00 C 304.21 305.06 323.10 305.06 328.00 304.88 C 332.90 304.69 328.42 324.60 328.75 303.88 C 329.08 283.15 329.62 203.58 330.00 180.50 C 330.38 157.42 330.50 169.96 331.00 165.38 C 331.50 160.79 332.29 156.65 333.00 153.00 C 333.71 149.35 334.90 146.19 335.25 143.50 C 335.60 140.81 335.29 138.40 335.12 136.88 C 334.96 135.35 334.42 135.88 334.25 134.38 C 334.08 132.88 334.31 129.12 334.12 127.88 C 333.94 126.62 333.31 127.21 333.12 126.88 C 332.94 126.54 333.50 126.46 333.00 125.88 C 332.50 125.29 331.81 124.50 330.12 123.38 C 328.44 122.25 326.81 120.69 322.88 119.12 C 318.94 117.56 310.04 115.02 306.50 114.00 C 302.96 112.98 303.04 113.17 301.62 113.00 C 300.21 112.83 298.98 112.79 298.00 113.00 Z" id="s-7-f-4"/>
<path d="M 298.00 113.00 C 297.04 113.21 296.35 113.75 295.75 114.25 C 295.15 114.75 294.69 115.08 294.38 116.00 C 294.06 116.92 293.77 117.67 293.88 119.75 C 293.98 121.83 294.52 125.85 295.00 128.50 C 295.48 131.15 296.29 133.25 296.75 135.62 C 297.21 138.00 297.44 139.67 297.75 142.75 C 298.06 145.83 298.44 135.17 298.62 154.12 C 298.81 173.08 297.31 239.35 298.88 256.50 C 300.44 273.65 303.02 256.98 308.00 257.00 C 312.98 257.02 325.21 258.08 328.75 256.62 C 332.29 255.17 329.02 261.46 329.25 248.25 C 329.48 235.04 329.83 191.19 330.12 177.38 C 330.42 163.56 330.69 168.50 331.00 165.38 C 331.31 162.25 331.29 162.27 332.00 158.62 C 332.71 154.98 334.73 147.12 335.25 143.50 C 335.77 139.88 335.29 138.40 335.12 136.88 C 334.96 135.35 334.42 135.88 334.25 134.38 C 334.08 132.88 334.31 129.12 334.12 127.88 C 333.94 126.62 333.31 127.21 333.12 126.88 C 332.94 126.54 333.50 126.46 333.00 125.88 C 332.50 125.29 331.81 124.50 330.12 123.38 C 328.44 122.25 326.81 120.69 322.88 119.12 C 318.94 117.56 310.06 115.02 306.50 114.00 C 302.94 112.98 302.92 113.17 301.50 113.00 C 300.08 112.83 298.96 112.79 298.00 113.00 Z" id="s-7-f-5"/>
<path d="M 297.50 113.12 C 296.54 113.33 296.31 113.73 295.75 114.25 C 295.19 114.77 294.44 115.33 294.12 116.25 C 293.81 117.17 293.73 117.71 293.88 119.75 C 294.02 121.79 294.52 125.85 295.00 128.50 C 295.48 131.15 296.17 131.73 296.75 135.62 C 297.33 139.52 298.10 139.73 298.50 151.88 C 298.90 164.02 297.52 198.98 299.12 208.50 C 300.73 218.02 303.10 208.94 308.12 209.00 C 313.15 209.06 325.65 209.00 329.25 208.88 C 332.85 208.75 329.58 214.17 329.75 208.25 C 329.92 202.33 329.88 181.65 330.25 173.38 C 330.62 165.10 331.17 163.60 332.00 158.62 C 332.83 153.65 334.73 147.12 335.25 143.50 C 335.77 139.88 335.29 138.40 335.12 136.88 C 334.96 135.35 334.44 135.96 334.25 134.38 C 334.06 132.79 334.19 128.62 334.00 127.38 C 333.81 126.12 333.29 127.12 333.12 126.88 C 332.96 126.62 333.50 126.46 333.00 125.88 C 332.50 125.29 331.92 124.54 330.12 123.38 C 328.33 122.21 326.19 120.44 322.25 118.88 C 318.31 117.31 309.96 114.98 306.50 114.00 C 303.04 113.02 303.00 113.15 301.50 113.00 C 300.00 112.85 298.46 112.92 297.50 113.12 Z" id="s-7-f-6"/>
<path d="M 295.75 114.25 C 295.10 114.83 294.42 115.31 294.12 116.50 C 293.83 117.69 293.40 117.00 294.00 121.38 C 294.60 125.75 296.92 136.40 297.75 142.75 C 298.58 149.10 298.48 156.56 299.00 159.50 C 299.52 162.44 299.25 160.15 300.88 160.38 C 302.50 160.60 303.65 160.79 308.75 160.88 C 313.85 160.96 327.08 163.79 331.50 160.88 C 335.92 157.96 334.65 147.38 335.25 143.38 C 335.85 139.38 335.29 138.38 335.12 136.88 C 334.96 135.38 334.42 135.88 334.25 134.38 C 334.08 132.88 334.31 129.12 334.12 127.88 C 333.94 126.62 333.31 127.21 333.12 126.88 C 332.94 126.54 334.12 126.88 333.00 125.88 C 331.88 124.88 328.06 122.00 326.38 120.88 C 324.69 119.75 324.48 119.77 322.88 119.12 C 321.27 118.48 320.31 118.02 316.75 117.00 C 313.19 115.98 304.62 113.67 301.50 113.00 C 298.38 112.33 298.96 112.79 298.00 113.00 C 297.04 113.21 296.40 113.67 295.75 114.25 Z" id="s-7-f-7"/>
</g>
</svg>