<?xml version="1.0" encoding="UTF-8"?>
<svg xmlns="http://www.w3.org/2000/svg" viewBox="0 0 500 500">
<defs>
<path d="M 35.75 186.25 C 34.67 186.60 34.27 187.12 34.00 188.12 C 33.73 189.12 31.79 185.67 34.12 192.25 C 36.46 198.83 44.31 218.81 48.00 227.62 C 51.69 236.44 54.25 241.44 56.25 245.12 C 58.25 248.81 58.90 248.67 60.00 249.75 C 61.10 250.83 61.50 251.29 62.88 251.62 C 64.25 251.96 66.71 251.92 68.25 251.75 C 69.79 251.58 70.98 251.17 72.12 250.62 C 73.27 250.08 74.33 249.21 75.12 248.50 C 75.92 247.79 76.33 247.38 76.88 246.38 C 77.42 245.38 78.04 243.75 78.38 242.50 C 78.71 241.25 78.83 241.35 78.88 238.88 C 78.92 236.40 78.81 230.48 78.62 227.62 C 78.44 224.77 78.23 223.94 77.75 221.75 C 77.27 219.56 76.58 216.81 75.75 214.50 C 74.92 212.19 74.33 210.15 72.75 207.88 C 71.17 205.60 68.88 203.19 66.25 200.88 C 63.62 198.56 60.71 196.31 57.00 194.00 C 53.29 191.69 46.75 188.33 44.00 187.00 C 41.25 185.67 41.88 186.12 40.50 186.00 C 39.12 185.88 36.83 185.90 35.75 186.25 Z" id="s-0-f-0"/>
<clipPath id="c-s-0"><use href="#s-0-f-0"/></clipPath>
<path d="M 177.88 158.00 C 175.88 156.06 174.23 154.67 171.75 153.00 C 169.27 151.33 164.90 149.00 163.00 148.00 C 161.10 147.00 161.29 147.17 160.38 147.00 C 159.46 146.83 158.21 146.83 157.50 147.00 C 156.79 147.17 156.69 147.33 156.12 148.00 C 155.56 148.67 155.52 148.12 154.12 151.00 C 152.73 153.88 149.62 161.50 147.75 165.25 C 145.88 169.00 144.85 170.46 142.88 173.50 C 140.90 176.54 137.90 180.42 135.88 183.50 C 133.85 186.58 132.75 189.15 130.75 192.00 C 128.75 194.85 125.04 197.04 123.88 200.62 C 122.71 204.21 123.71 211.17 123.75 213.50 C 123.79 215.83 118.88 218.06 124.12 214.62 C 129.38 211.19 146.29 199.33 155.25 192.88 C 164.21 186.42 173.60 179.17 177.88 175.88 C 182.15 172.58 180.08 173.96 180.88 173.12 C 181.67 172.29 182.17 171.65 182.62 170.88 C 183.08 170.10 183.44 169.54 183.62 168.50 C 183.81 167.46 184.71 166.38 183.75 164.62 C 182.79 162.88 179.88 159.94 177.88 158.00 Z" id="s-1-f-0"/>
<clipPath id="c-s-1"><use href="#s-1-f-0"/></clipPath>
<path d="M 107.25 50.12 C 104.23 49.29 103.31 49.19 100.88 49.00 C 98.44 48.81 94.38 48.85 92.62 49.00 C 90.88 49.15 91.00 49.50 90.38 49.88 C 89.75 50.25 89.29 50.56 88.88 51.25 C 88.46 51.94 88.00 53.04 87.88 54.00 C 87.75 54.96 87.50 55.12 88.12 57.00 C 88.75 58.88 90.52 61.94 91.62 65.25 C 92.73 68.56 93.77 69.96 94.75 76.88 C 95.73 83.79 96.85 97.94 97.50 106.75 C 98.15 115.56 98.42 114.62 98.62 129.75 C 98.83 144.88 98.90 181.50 98.75 197.50 C 98.60 213.50 98.25 217.06 97.75 225.75 C 97.25 234.44 96.58 241.88 95.75 249.62 C 94.92 257.38 94.10 263.85 92.75 272.25 C 91.40 280.65 89.50 291.52 87.62 300.00 C 85.75 308.48 83.15 317.46 81.50 323.12 C 79.85 328.79 79.40 329.69 77.75 334.00 C 76.10 338.31 73.62 344.48 71.62 349.00 C 69.62 353.52 67.88 357.06 65.75 361.12 C 63.62 365.19 62.06 368.23 58.88 373.38 C 55.69 378.52 50.12 386.92 46.62 392.00 C 43.12 397.08 41.96 398.62 37.88 403.88 C 33.79 409.12 24.77 420.00 22.12 423.50 C 19.48 427.00 21.79 424.48 22.00 424.88 C 22.21 425.27 22.71 425.73 23.38 425.88 C 24.04 426.02 25.06 425.94 26.00 425.75 C 26.94 425.56 27.48 425.44 29.00 424.75 C 30.52 424.06 30.92 424.33 35.12 421.62 C 39.33 418.92 48.83 413.04 54.25 408.50 C 59.67 403.96 63.85 398.65 67.62 394.38 C 71.40 390.10 74.19 386.42 76.88 382.88 C 79.56 379.33 81.10 377.33 83.75 373.12 C 86.40 368.92 90.29 362.42 92.75 357.62 C 95.21 352.83 96.67 349.08 98.50 344.38 C 100.33 339.67 101.02 338.75 103.75 329.38 C 106.48 320.00 112.04 300.88 114.88 288.12 C 117.71 275.38 119.44 261.88 120.75 252.88 C 122.06 243.88 122.17 240.69 122.75 234.12 C 123.33 227.56 124.02 219.38 124.25 213.50 C 124.48 207.62 124.02 202.40 124.12 198.88 C 124.23 195.35 124.54 206.60 124.88 192.38 C 125.21 178.15 125.42 130.83 126.12 113.50 C 126.83 96.17 128.31 94.02 129.12 88.38 C 129.94 82.73 130.25 82.33 131.00 79.62 C 131.75 76.92 133.15 74.15 133.62 72.12 C 134.10 70.10 134.02 68.92 133.88 67.50 C 133.73 66.08 133.67 65.06 132.75 63.62 C 131.83 62.19 130.67 60.48 128.38 58.88 C 126.08 57.27 122.52 55.46 119.00 54.00 C 115.48 52.54 110.27 50.96 107.25 50.12 Z" id="s-2-f-0"/>
<clipPath id="c-s-2"><use href="#s-2-f-0"/></clipPath>
<path d="M 114.62 287.00 C 114.21 287.25 113.81 287.98 113.62 288.62 C 113.44 289.27 113.83 289.65 113.50 290.88 C 113.17 292.10 111.88 294.73 111.62 296.00 C 111.38 297.27 110.50 296.35 112.00 298.50 C 113.50 300.65 116.65 303.44 120.62 308.88 C 124.60 314.31 132.19 326.04 135.88 331.12 C 139.56 336.21 141.00 337.46 142.75 339.38 C 144.50 341.29 145.00 341.58 146.38 342.62 C 147.75 343.67 149.77 345.08 151.00 345.62 C 152.23 346.17 152.88 345.98 153.75 345.88 C 154.62 345.77 155.50 345.44 156.25 345.00 C 157.00 344.56 157.52 344.10 158.25 343.25 C 158.98 342.40 160.02 340.96 160.62 339.88 C 161.23 338.79 161.50 338.04 161.88 336.75 C 162.25 335.46 162.73 333.88 162.88 332.12 C 163.02 330.38 162.94 327.94 162.75 326.25 C 162.56 324.56 162.29 323.52 161.75 322.00 C 161.21 320.48 160.62 319.06 159.50 317.12 C 158.38 315.19 156.56 312.29 155.00 310.38 C 153.44 308.46 152.75 307.71 150.12 305.62 C 147.50 303.54 144.92 300.96 139.25 297.88 C 133.58 294.79 120.23 288.94 116.12 287.12 C 112.02 285.31 115.04 286.75 114.62 287.00 Z" id="s-3-f-0"/>
<clipPath id="c-s-3"><use href="#s-3-f-0"/></clipPath>
<path d="M 435.88 82.62 C 436.02 81.79 436.12 80.83 435.75 79.62 C 435.38 78.42 434.56 76.73 433.62 75.38 C 432.69 74.02 431.42 72.75 430.12 71.50 C 428.83 70.25 427.54 69.15 425.88 67.88 C 424.21 66.60 422.52 65.35 420.12 63.88 C 417.73 62.40 414.33 60.48 411.50 59.00 C 408.67 57.52 405.62 56.02 403.12 55.00 C 400.62 53.98 398.35 53.19 396.50 52.88 C 394.65 52.56 393.90 52.65 392.00 53.12 C 390.10 53.60 390.79 54.17 385.12 55.75 C 379.46 57.33 369.19 60.12 358.00 62.62 C 346.81 65.12 326.98 69.06 318.00 70.75 C 309.02 72.44 309.73 72.08 304.12 72.75 C 298.52 73.42 291.02 74.21 284.38 74.75 C 277.73 75.29 268.08 75.60 264.25 76.00 C 260.42 76.40 262.10 76.60 261.38 77.12 C 260.65 77.65 260.10 78.44 259.88 79.12 C 259.65 79.81 259.69 80.50 260.00 81.25 C 260.31 82.00 260.58 82.54 261.75 83.62 C 262.92 84.71 264.06 85.94 267.00 87.75 C 269.94 89.56 276.65 93.17 279.38 94.50 C 282.10 95.83 282.21 95.52 283.38 95.75 C 284.54 95.98 285.42 95.92 286.38 95.88 C 287.33 95.83 283.60 96.98 289.12 95.50 C 294.65 94.02 309.83 89.56 319.50 87.00 C 329.17 84.44 338.69 81.98 347.12 80.12 C 355.56 78.27 364.65 76.73 370.12 75.88 C 375.60 75.02 377.85 74.98 380.00 75.00 C 382.15 75.02 382.23 75.42 383.00 76.00 C 383.77 76.58 384.33 77.65 384.62 78.50 C 384.92 79.35 385.23 79.54 384.75 81.12 C 384.27 82.71 383.60 84.92 381.75 88.00 C 379.90 91.08 378.71 92.92 373.62 99.62 C 368.54 106.33 355.00 123.33 351.25 128.25 C 347.50 133.17 349.56 127.71 351.12 129.12 C 352.69 130.54 358.46 135.79 360.62 136.75 C 362.79 137.71 358.54 139.15 364.12 134.88 C 369.71 130.60 387.71 116.10 394.12 111.12 C 400.54 106.15 398.88 107.52 402.62 105.00 C 406.38 102.48 411.88 98.83 416.62 96.00 C 421.38 93.17 428.08 89.90 431.12 88.00 C 434.17 86.10 434.08 85.52 434.88 84.62 C 435.67 83.73 435.73 83.46 435.88 82.62 Z" id="s-4-f-0"/>
<clipPath id="c-s-4"><use href="#s-4-f-0"/></clipPath>
<path d="M 305.00 116.75 C 304.85 117.27 304.54 117.71 305.38 119.00 C 306.21 120.29 307.71 121.44 310.00 124.50 C 312.29 127.56 315.92 133.10 319.12 137.38 C 322.33 141.65 325.69 145.98 329.25 150.12 C 332.81 154.27 337.06 158.94 340.50 162.25 C 343.94 165.56 346.17 169.06 349.88 170.00 C 353.58 170.94 360.17 168.35 362.75 167.88 C 365.33 167.40 364.77 167.40 365.38 167.12 C 365.98 166.85 366.00 166.90 366.38 166.25 C 366.75 165.60 367.38 164.12 367.62 163.25 C 367.88 162.38 367.85 162.62 367.88 161.00 C 367.90 159.38 367.94 155.62 367.75 153.50 C 367.56 151.38 367.44 150.38 366.75 148.25 C 366.06 146.12 364.67 142.81 363.62 140.75 C 362.58 138.69 362.52 137.88 360.50 135.88 C 358.48 133.88 356.33 131.23 351.50 128.75 C 346.67 126.27 336.96 122.94 331.50 121.00 C 326.04 119.06 321.69 117.92 318.75 117.12 C 315.81 116.33 315.96 116.46 313.88 116.25 C 311.79 116.04 307.73 115.79 306.25 115.88 C 304.77 115.96 305.15 116.23 305.00 116.75 Z" id="s-5-f-0"/>
<clipPath id="c-s-5"><use href="#s-5-f-0"/></clipPath>
<path d="M 268.00 167.88 C 266.96 167.88 267.12 167.85 266.62 168.12 C 266.12 168.40 265.44 168.92 265.00 169.50 C 264.56 170.08 264.19 170.81 264.00 171.62 C 263.81 172.44 263.83 173.60 263.88 174.38 C 263.92 175.15 263.77 175.19 264.25 176.25 C 264.73 177.31 266.00 179.02 266.75 180.75 C 267.50 182.48 268.08 183.79 268.75 186.62 C 269.42 189.46 270.25 193.08 270.75 197.75 C 271.25 202.42 271.60 205.33 271.75 214.62 C 271.90 223.92 271.77 242.67 271.62 253.50 C 271.48 264.33 271.19 272.75 270.88 279.62 C 270.56 286.50 270.27 289.54 269.75 294.75 C 269.23 299.96 268.71 304.94 267.75 310.88 C 266.79 316.81 264.62 326.19 264.00 330.38 C 263.38 334.56 263.67 333.71 264.00 336.00 C 264.33 338.29 265.00 341.06 266.00 344.12 C 267.00 347.19 268.50 351.54 270.00 354.38 C 271.50 357.21 273.58 359.56 275.00 361.12 C 276.42 362.69 277.69 363.31 278.50 363.75 C 279.31 364.19 279.31 363.98 279.88 363.75 C 280.44 363.52 280.90 363.88 281.88 362.38 C 282.85 360.88 284.79 357.77 285.75 354.75 C 286.71 351.73 287.15 347.79 287.62 344.25 C 288.10 340.71 288.06 342.71 288.62 333.50 C 289.19 324.29 290.44 304.56 291.00 289.00 C 291.56 273.44 291.85 254.54 292.00 240.12 C 292.15 225.71 291.71 210.75 291.88 202.50 C 292.04 194.25 293.27 194.75 293.00 190.62 C 292.73 186.50 290.92 180.19 290.25 177.75 C 289.58 175.31 290.15 176.96 289.00 176.00 C 287.85 175.04 284.98 173.00 283.38 172.00 C 281.77 171.00 281.12 170.65 279.38 170.00 C 277.62 169.35 274.77 168.48 272.88 168.12 C 270.98 167.77 269.04 167.88 268.00 167.88 Z" id="s-6-f-0"/>
<clipPath id="c-s-6"><use href="#s-6-f-0"/></clipPath>
<path d="M 289.88 177.00 C 289.08 177.21 289.54 176.96 289.50 177.38 C 289.46 177.79 289.48 178.81 289.62 179.50 C 289.77 180.19 290.04 179.83 290.38 181.50 C 290.71 183.17 291.25 187.77 291.62 189.50 C 292.00 191.23 290.67 191.96 292.62 191.88 C 294.58 191.79 295.69 190.31 303.38 189.00 C 311.06 187.69 329.52 185.19 338.75 184.00 C 347.98 182.81 354.15 182.42 358.75 181.88 C 363.35 181.33 364.65 181.08 366.38 180.75 C 368.10 180.42 362.42 180.33 369.12 179.88 C 375.83 179.42 399.73 178.12 406.62 178.00 C 413.52 177.88 409.48 178.58 410.50 179.12 C 411.52 179.67 412.21 180.42 412.75 181.25 C 413.29 182.08 413.40 182.29 413.75 184.12 C 414.10 185.96 414.35 178.56 414.88 192.25 C 415.40 205.94 416.73 247.06 416.88 266.25 C 417.02 285.44 416.15 297.62 415.75 307.38 C 415.35 317.12 414.98 320.08 414.50 324.75 C 414.02 329.42 413.29 333.35 412.88 335.38 C 412.46 337.40 412.19 336.31 412.00 336.88 C 411.81 337.44 412.23 337.88 411.75 338.75 C 411.27 339.62 410.10 341.29 409.12 342.12 C 408.15 342.96 407.40 343.69 405.88 343.75 C 404.35 343.81 403.67 343.69 400.00 342.50 C 396.33 341.31 387.52 338.04 383.88 336.62 C 380.23 335.21 379.44 334.38 378.12 334.00 C 376.81 333.62 376.38 333.98 376.00 334.38 C 375.62 334.77 375.73 335.62 375.88 336.38 C 376.02 337.12 376.35 337.94 376.88 338.88 C 377.40 339.81 376.23 338.58 379.00 342.00 C 381.77 345.42 389.31 354.10 393.50 359.38 C 397.69 364.65 401.42 369.83 404.12 373.62 C 406.83 377.42 408.50 380.42 409.75 382.12 C 411.00 383.83 410.85 383.42 411.62 383.88 C 412.40 384.33 413.52 384.73 414.38 384.88 C 415.23 385.02 415.77 385.06 416.75 384.75 C 417.73 384.44 418.58 384.38 420.25 383.00 C 421.92 381.62 424.83 378.77 426.75 376.50 C 428.67 374.23 430.25 372.12 431.75 369.38 C 433.25 366.62 434.58 363.75 435.75 360.00 C 436.92 356.25 438.08 350.96 438.75 346.88 C 439.42 342.79 439.56 340.58 439.75 335.50 C 439.94 330.42 440.15 328.00 439.88 316.38 C 439.60 304.75 438.46 280.02 438.12 265.75 C 437.79 251.48 437.85 238.54 437.88 230.75 C 437.90 222.96 438.02 223.15 438.25 219.00 C 438.48 214.85 438.79 209.77 439.25 205.88 C 439.71 201.98 440.38 198.44 441.00 195.62 C 441.62 192.81 442.19 190.88 443.00 189.00 C 443.81 187.12 445.08 185.83 445.88 184.38 C 446.67 182.92 447.42 181.46 447.75 180.25 C 448.08 179.04 448.02 178.06 447.88 177.12 C 447.73 176.19 447.56 175.67 446.88 174.62 C 446.19 173.58 445.73 172.62 443.75 170.88 C 441.77 169.12 438.44 166.42 435.00 164.12 C 431.56 161.83 425.94 158.65 423.12 157.12 C 420.31 155.60 419.48 155.35 418.12 155.00 C 416.77 154.65 420.58 153.71 415.00 155.00 C 409.42 156.29 392.52 160.83 384.62 162.75 C 376.73 164.67 371.19 165.85 367.62 166.50 C 364.06 167.15 364.31 166.48 363.25 166.62 C 362.19 166.77 363.06 167.04 361.25 167.38 C 359.44 167.71 354.46 168.21 352.38 168.62 C 350.29 169.04 358.44 168.62 348.75 169.88 C 339.06 171.12 304.06 174.94 294.25 176.12 C 284.44 177.31 290.67 176.79 289.88 177.00 Z" id="s-7-f-0"/>
<clipPath id="c-s-7"><use href="#s-7-f-0"/></clipPath>
<path d="M 416.25 219.25 C 415.98 217.69 416.29 218.81 414.50 218.12 C 412.71 217.44 408.85 215.98 405.50 215.12 C 402.15 214.27 397.08 213.35 394.38 213.00 C 391.67 212.65 391.75 212.54 389.25 213.00 C 386.75 213.46 382.69 214.94 379.38 215.75 C 376.06 216.56 374.56 217.00 369.38 217.88 C 364.19 218.75 354.75 219.85 348.25 221.00 C 341.75 222.15 336.62 223.62 330.38 224.75 C 324.12 225.88 316.58 227.00 310.75 227.75 C 304.92 228.50 298.54 228.75 295.38 229.25 C 292.21 229.75 292.40 230.42 291.75 230.75 C 291.10 231.08 291.54 229.96 291.50 231.25 C 291.46 232.54 291.02 237.00 291.50 238.50 C 291.98 240.00 292.50 239.58 294.38 240.25 C 296.25 240.92 298.88 242.08 302.75 242.50 C 306.62 242.92 311.79 243.17 317.62 242.75 C 323.46 242.33 333.65 240.48 337.75 240.00 C 341.85 239.52 338.69 240.25 342.25 239.88 C 345.81 239.50 350.46 239.04 359.12 237.75 C 367.79 236.46 386.06 233.29 394.25 232.12 C 402.44 230.96 405.25 231.15 408.25 230.75 C 411.25 230.35 411.00 230.19 412.25 229.75 C 413.50 229.31 415.10 228.50 415.75 228.12 C 416.40 227.75 416.04 228.98 416.12 227.50 C 416.21 226.02 416.52 220.81 416.25 219.25 Z" id="s-8-f-0"/>
<clipPath id="c-s-8"><use href="#s-8-f-0"/></clipPath>
<path d="M 417.25 272.25 C 416.83 271.06 416.23 270.94 414.38 269.88 C 412.52 268.81 409.44 266.83 406.12 265.88 C 402.81 264.92 397.69 264.44 394.50 264.12 C 391.31 263.81 391.17 263.40 387.00 264.00 C 382.83 264.60 374.00 266.94 369.50 267.75 C 365.00 268.56 365.17 267.85 360.00 268.88 C 354.83 269.90 348.23 272.06 338.50 273.88 C 328.77 275.69 308.79 278.71 301.62 279.75 C 294.46 280.79 297.33 279.75 295.50 280.12 C 293.67 280.50 291.46 280.60 290.62 282.00 C 289.79 283.40 290.23 287.21 290.50 288.50 C 290.77 289.79 290.85 289.21 292.25 289.75 C 293.65 290.29 296.50 291.23 298.88 291.75 C 301.25 292.27 302.88 292.73 306.50 292.88 C 310.12 293.02 314.52 292.98 320.62 292.62 C 326.73 292.27 334.48 291.75 343.12 290.75 C 351.77 289.75 364.06 287.92 372.50 286.62 C 380.94 285.33 388.15 283.81 393.75 283.00 C 399.35 282.19 403.02 282.31 406.12 281.75 C 409.23 281.19 410.58 280.42 412.38 279.62 C 414.17 278.83 416.06 278.23 416.88 277.00 C 417.69 275.77 417.67 273.44 417.25 272.25 Z" id="s-9-f-0"/>
<clipPath id="c-s-9"><use href="#s-9-f-0"/></clipPath>
<path d="M 363.38 180.50 C 362.35 180.46 358.92 180.48 357.75 180.62 C 356.58 180.77 357.71 181.21 356.38 181.38 C 355.04 181.54 351.25 181.44 349.75 181.62 C 348.25 181.81 348.71 182.33 347.38 182.50 C 346.04 182.67 342.98 182.42 341.75 182.62 C 340.52 182.83 340.31 177.10 340.00 183.75 C 339.69 190.40 340.08 215.08 339.88 222.50 C 339.67 229.92 338.98 226.04 338.75 228.25 C 338.52 230.46 338.48 233.71 338.50 235.75 C 338.52 237.79 338.81 234.21 338.88 240.50 C 338.94 246.79 338.94 267.85 338.88 273.50 C 338.81 279.15 338.52 270.96 338.50 274.38 C 338.48 277.79 338.85 287.71 338.75 294.00 C 338.65 300.29 338.00 306.06 337.88 312.12 C 337.75 318.19 337.79 324.46 338.00 330.38 C 338.21 336.29 338.79 343.67 339.12 347.62 C 339.46 351.58 339.21 351.21 340.00 354.12 C 340.79 357.04 342.92 362.83 343.88 365.12 C 344.83 367.42 345.17 367.25 345.75 367.88 C 346.33 368.50 346.81 368.73 347.38 368.88 C 347.94 369.02 348.42 369.21 349.12 368.75 C 349.83 368.29 350.85 367.21 351.62 366.12 C 352.40 365.04 353.08 363.73 353.75 362.25 C 354.42 360.77 354.65 360.50 355.62 357.25 C 356.60 354.00 358.65 347.52 359.62 342.75 C 360.60 337.98 361.12 337.71 361.50 328.62 C 361.88 319.54 361.75 295.10 361.88 288.25 C 362.00 281.40 362.19 290.52 362.25 287.50 C 362.31 284.48 362.31 273.50 362.25 270.12 C 362.19 266.75 361.77 272.62 361.88 267.25 C 361.98 261.88 362.65 243.00 362.88 237.88 C 363.10 232.75 363.23 240.52 363.25 236.50 C 363.27 232.48 362.90 223.02 363.00 213.75 C 363.10 204.48 363.81 186.42 363.88 180.88 C 363.94 175.33 364.40 180.54 363.38 180.50 Z" id="s-10-f-0"/>
<clipPath id="c-s-10"><use href="#s-10-f-0"/></clipPath>
<path d="M 180.75 92.50 C 180.25 92.79 180.00 93.02 179.88 93.62 C 179.75 94.23 179.31 94.12 180.00 96.12 C 180.69 98.12 182.50 102.58 184.00 105.62 C 185.50 108.67 185.83 109.27 189.00 114.38 C 192.17 119.48 199.19 130.81 203.00 136.25 C 206.81 141.69 209.58 144.54 211.88 147.00 C 214.17 149.46 215.42 150.08 216.75 151.00 C 218.08 151.92 219.02 152.19 219.88 152.50 C 220.73 152.81 220.75 152.83 221.88 152.88 C 223.00 152.92 225.23 152.94 226.62 152.75 C 228.02 152.56 228.94 152.40 230.25 151.75 C 231.56 151.10 233.40 149.90 234.50 148.88 C 235.60 147.85 236.19 147.08 236.88 145.62 C 237.56 144.17 238.31 142.67 238.62 140.12 C 238.94 137.58 239.06 133.31 238.75 130.38 C 238.44 127.44 237.58 124.83 236.75 122.50 C 235.92 120.17 234.75 118.08 233.75 116.38 C 232.75 114.67 232.00 113.60 230.75 112.25 C 229.50 110.90 228.04 109.62 226.25 108.25 C 224.46 106.88 223.35 105.85 220.00 104.00 C 216.65 102.15 209.88 98.79 206.12 97.12 C 202.38 95.46 200.27 94.83 197.50 94.00 C 194.73 93.17 191.94 92.48 189.50 92.12 C 187.06 91.77 184.33 91.81 182.88 91.88 C 181.42 91.94 181.25 92.21 180.75 92.50 Z" id="s-11-f-0"/>
<clipPath id="c-s-11"><use href="#s-11-f-0"/></clipPath>
<path d="M 226.12 192.12 C 223.94 191.15 222.12 190.48 220.50 190.12 C 218.88 189.77 220.42 187.90 216.38 190.00 C 212.33 192.10 201.15 199.79 196.25 202.75 C 191.35 205.71 191.17 205.73 187.00 207.75 C 182.83 209.77 175.96 213.00 171.25 214.88 C 166.54 216.75 161.46 217.83 158.75 219.00 C 156.04 220.17 155.58 221.00 155.00 221.88 C 154.42 222.75 154.65 223.42 155.25 224.25 C 155.85 225.08 156.94 225.96 158.62 226.88 C 160.31 227.79 163.48 229.10 165.38 229.75 C 167.27 230.40 167.73 230.58 170.00 230.75 C 172.27 230.92 176.79 230.92 179.00 230.75 C 181.21 230.58 181.15 230.42 183.25 229.75 C 185.35 229.08 189.44 227.69 191.62 226.75 C 193.81 225.81 195.06 224.75 196.38 224.12 C 197.69 223.50 198.52 223.17 199.50 223.00 C 200.48 222.83 201.35 222.88 202.25 223.12 C 203.15 223.38 204.31 224.06 204.88 224.50 C 205.44 224.94 205.48 225.27 205.62 225.75 C 205.77 226.23 206.33 225.38 205.75 227.38 C 205.17 229.38 204.08 230.90 202.12 237.75 C 200.17 244.60 195.31 263.17 194.00 268.50 C 192.69 273.83 193.48 269.50 194.25 269.75 C 195.02 270.00 196.17 270.04 198.62 270.00 C 201.08 269.96 206.40 270.94 209.00 269.50 C 211.60 268.06 211.23 265.73 214.25 261.38 C 217.27 257.02 223.15 248.69 227.12 243.38 C 231.10 238.06 234.81 233.46 238.12 229.50 C 241.44 225.54 245.06 221.92 247.00 219.62 C 248.94 217.33 249.12 216.83 249.75 215.75 C 250.38 214.67 250.56 214.08 250.75 213.12 C 250.94 212.17 251.00 210.90 250.88 210.00 C 250.75 209.10 250.35 208.40 250.00 207.75 C 249.65 207.10 249.56 206.90 248.75 206.12 C 247.94 205.35 247.65 204.81 245.12 203.12 C 242.60 201.44 236.79 197.83 233.62 196.00 C 230.46 194.17 228.31 193.10 226.12 192.12 Z" id="s-12-f-0"/>
<clipPath id="c-s-12"><use href="#s-12-f-0"/></clipPath>
<path d="M 194.25 269.62 C 191.83 270.06 193.88 271.33 194.00 272.12 C 194.12 272.92 194.04 273.17 195.00 274.38 C 195.96 275.58 197.62 276.02 199.75 279.38 C 201.88 282.73 205.44 289.54 207.75 294.50 C 210.06 299.46 212.29 305.48 213.62 309.12 C 214.96 312.77 215.06 313.56 215.75 316.38 C 216.44 319.19 217.25 322.54 217.75 326.00 C 218.25 329.46 218.60 333.85 218.75 337.12 C 218.90 340.40 218.77 343.08 218.62 345.62 C 218.48 348.17 218.31 350.73 217.88 352.38 C 217.44 354.02 216.15 354.88 216.00 355.50 C 215.85 356.12 215.42 355.88 217.00 356.12 C 218.58 356.38 223.54 357.48 225.50 357.00 C 227.46 356.52 227.23 355.40 228.75 353.25 C 230.27 351.10 233.15 346.94 234.62 344.12 C 236.10 341.31 236.96 338.48 237.62 336.38 C 238.29 334.27 238.44 334.54 238.62 331.50 C 238.81 328.46 238.92 321.58 238.75 318.12 C 238.58 314.67 238.12 313.06 237.62 310.75 C 237.12 308.44 236.40 306.19 235.75 304.25 C 235.10 302.31 234.58 300.92 233.75 299.12 C 232.92 297.33 231.85 295.29 230.75 293.50 C 229.65 291.71 229.21 290.79 227.12 288.38 C 225.04 285.96 220.94 281.60 218.25 279.00 C 215.56 276.40 212.62 274.33 211.00 272.75 C 209.38 271.17 211.29 270.02 208.50 269.50 C 205.71 268.98 196.67 269.19 194.25 269.62 Z" id="s-13-f-0"/>
<clipPath id="c-s-13"><use href="#s-13-f-0"/></clipPath>
<path d="M 154.88 359.62 C 154.60 360.35 154.79 361.54 155.00 362.50 C 155.21 363.46 155.35 364.12 156.12 365.38 C 156.90 366.62 157.40 367.73 159.62 370.00 C 161.85 372.27 167.42 377.21 169.50 379.00 C 171.58 380.79 171.02 380.17 172.12 380.75 C 173.23 381.33 174.56 382.17 176.12 382.50 C 177.69 382.83 180.25 382.88 181.50 382.75 C 182.75 382.62 182.69 382.40 183.62 381.75 C 184.56 381.10 185.48 379.81 187.12 378.88 C 188.77 377.94 191.08 376.92 193.50 376.12 C 195.92 375.33 199.27 374.60 201.62 374.12 C 203.98 373.65 204.90 373.44 207.62 373.25 C 210.35 373.06 215.04 372.85 218.00 373.00 C 220.96 373.15 223.04 373.62 225.38 374.12 C 227.71 374.62 229.52 375.17 232.00 376.00 C 234.48 376.83 234.85 376.77 240.25 379.12 C 245.65 381.48 256.40 386.33 264.38 390.12 C 272.35 393.92 279.04 397.23 288.12 401.88 C 297.21 406.52 308.50 412.35 318.88 418.00 C 329.25 423.65 342.79 431.65 350.38 435.75 C 357.96 439.85 359.88 440.62 364.38 442.62 C 368.88 444.62 373.98 446.56 377.38 447.75 C 380.77 448.94 382.40 449.42 384.75 449.75 C 387.10 450.08 388.40 450.25 391.50 449.75 C 394.60 449.25 397.10 448.92 403.38 446.75 C 409.65 444.58 419.00 441.10 429.12 436.75 C 439.25 432.40 456.94 424.12 464.12 420.62 C 471.31 417.12 470.27 417.15 472.25 415.75 C 474.23 414.35 475.23 413.15 476.00 412.25 C 476.77 411.35 476.75 410.90 476.88 410.38 C 477.00 409.85 476.98 409.52 476.75 409.12 C 476.52 408.73 476.38 408.35 475.50 408.00 C 474.62 407.65 477.67 407.38 471.50 407.00 C 465.33 406.62 451.88 406.46 438.50 405.75 C 425.12 405.04 403.81 403.75 391.25 402.75 C 378.69 401.75 370.06 400.58 363.12 399.75 C 356.19 398.92 354.44 398.58 349.62 397.75 C 344.81 396.92 340.12 396.10 334.25 394.75 C 328.38 393.40 320.23 391.31 314.38 389.62 C 308.52 387.94 307.23 387.65 299.12 384.62 C 291.02 381.60 274.83 375.27 265.75 371.50 C 256.67 367.73 250.12 364.23 244.62 362.00 C 239.12 359.77 236.54 359.17 232.75 358.12 C 228.96 357.08 224.44 356.19 221.88 355.75 C 219.31 355.31 220.12 355.46 217.38 355.50 C 214.62 355.54 210.90 355.62 205.38 356.00 C 199.85 356.38 192.38 357.40 184.25 357.75 C 176.12 358.10 161.52 357.81 156.62 358.12 C 151.73 358.44 155.15 358.90 154.88 359.62 Z" id="s-14-f-0"/>
<clipPath id="c-s-14"><use href="#s-14-f-0"/></clipPath>
</defs>
<g id="s-0" clip-path="url(#c-s-0)">
<use href="#s-0-f-0"/>
<path d="M 35.12 186.75 C 34.73 187.10 34.17 187.21 34.00 188.12 C 33.83 189.04 33.35 189.77 34.12 192.25 C 34.90 194.73 37.31 199.58 38.62 203.00 C 39.94 206.42 39.98 207.67 42.00 212.75 C 44.02 217.83 48.92 229.96 50.75 233.50 C 52.58 237.04 48.35 233.94 53.00 234.00 C 57.65 234.06 74.35 234.94 78.62 233.88 C 82.90 232.81 78.79 229.75 78.62 227.62 C 78.46 225.50 78.10 223.31 77.62 221.12 C 77.15 218.94 76.71 216.92 75.75 214.50 C 74.79 212.08 73.46 208.90 71.88 206.62 C 70.29 204.35 67.98 202.48 66.25 200.88 C 64.52 199.27 64.81 199.12 61.50 197.00 C 58.19 194.88 49.88 189.96 46.38 188.12 C 42.88 186.29 42.17 186.35 40.50 186.00 C 38.83 185.65 37.27 185.88 36.38 186.00 C 35.48 186.12 35.52 186.40 35.12 186.75 Z" id="s-0-f-1"/>
</g>
<g id="s-1" clip-path="url(#c-s-1)">
<use href="#s-1-f-0"/>
<path d="M 183.75 164.62 C 182.79 162.88 179.88 159.94 177.88 158.00 C 175.88 156.06 174.52 154.79 171.75 153.00 C 168.98 151.21 163.62 148.25 161.25 147.25 C 158.88 146.25 158.56 146.62 157.50 147.00 C 156.44 147.38 156.06 147.31 154.88 149.50 C 153.69 151.69 152.38 156.12 150.38 160.12 C 148.38 164.12 146.46 167.75 142.88 173.50 C 139.29 179.25 130.96 191.04 128.88 194.62 C 126.79 198.21 126.48 194.96 130.38 195.00 C 134.27 195.04 145.85 196.90 152.25 194.88 C 158.65 192.85 164.10 186.38 168.75 182.88 C 173.40 179.38 177.81 175.88 180.12 173.88 C 182.44 171.88 182.04 171.77 182.62 170.88 C 183.21 169.98 183.44 169.54 183.62 168.50 C 183.81 167.46 184.71 166.38 183.75 164.62 Z" id="s-1-f-1"/>
</g>
<g id="s-2" clip-path="url(#c-s-2)">
<use href="#s-2-f-0"/>
<path d="M 102.25 49.12 C 98.96 48.58 96.12 48.85 94.38 48.88 C 92.62 48.90 92.67 48.85 91.75 49.25 C 90.83 49.65 89.52 50.46 88.88 51.25 C 88.23 52.04 88.00 53.04 87.88 54.00 C 87.75 54.96 87.50 55.12 88.12 57.00 C 88.75 58.88 90.52 61.94 91.62 65.25 C 92.73 68.56 93.77 69.96 94.75 76.88 C 95.73 83.79 96.85 97.94 97.50 106.75 C 98.15 115.56 98.42 114.62 98.62 129.75 C 98.83 144.88 98.81 183.42 98.75 197.50 C 98.69 211.58 98.60 207.04 98.25 214.25 C 97.90 221.46 97.54 231.08 96.62 240.75 C 95.71 250.42 94.40 261.75 92.75 272.25 C 91.10 282.75 88.62 295.27 86.75 303.75 C 84.88 312.23 83.00 318.08 81.50 323.12 C 80.00 328.17 79.40 329.69 77.75 334.00 C 76.10 338.31 73.62 344.48 71.62 349.00 C 69.62 353.52 67.88 357.06 65.75 361.12 C 63.62 365.19 61.15 369.62 58.88 373.38 C 56.60 377.12 53.25 381.71 52.12 383.62 C 51.00 385.54 48.60 384.65 52.12 384.88 C 55.65 385.10 69.35 385.04 73.25 385.00 C 77.15 384.96 74.08 386.10 75.50 384.62 C 76.92 383.15 79.38 379.69 81.75 376.12 C 84.12 372.56 87.92 366.33 89.75 363.25 C 91.58 360.17 91.29 360.77 92.75 357.62 C 94.21 354.48 96.33 350.23 98.50 344.38 C 100.67 338.52 103.67 329.67 105.75 322.50 C 107.83 315.33 109.48 307.10 111.00 301.38 C 112.52 295.65 113.42 295.02 114.88 288.12 C 116.33 281.23 118.46 268.77 119.75 260.00 C 121.04 251.23 121.88 243.25 122.62 235.50 C 123.38 227.75 124.00 219.60 124.25 213.50 C 124.50 207.40 124.02 202.40 124.12 198.88 C 124.23 195.35 124.54 206.60 124.88 192.38 C 125.21 178.15 125.42 130.83 126.12 113.50 C 126.83 96.17 128.31 94.02 129.12 88.38 C 129.94 82.73 130.25 82.33 131.00 79.62 C 131.75 76.92 133.15 74.15 133.62 72.12 C 134.10 70.10 133.88 68.56 133.88 67.50 C 133.88 66.44 133.98 66.65 133.62 65.75 C 133.27 64.85 132.62 63.27 131.75 62.12 C 130.88 60.98 129.44 59.73 128.38 58.88 C 127.31 58.02 127.75 58.12 125.38 57.00 C 123.00 55.88 117.98 53.44 114.12 52.12 C 110.27 50.81 105.54 49.67 102.25 49.12 Z" id="s-2-f-1"/>
<path d="M 92.62 49.00 C 90.65 49.12 91.00 49.50 90.38 49.88 C 89.75 50.25 89.29 50.56 88.88 51.25 C 88.46 51.94 88.00 53.04 87.88 54.00 C 87.75 54.96 87.50 55.12 88.12 57.00 C 88.75 58.88 90.52 61.94 91.62 65.25 C 92.73 68.56 93.77 69.96 94.75 76.88 C 95.73 83.79 96.85 97.94 97.50 106.75 C 98.15 115.56 98.42 114.62 98.62 129.75 C 98.83 144.88 98.88 181.92 98.75 197.50 C 98.62 213.08 98.19 216.52 97.88 223.25 C 97.56 229.98 97.73 229.71 96.88 237.88 C 96.02 246.04 94.44 261.27 92.75 272.25 C 91.06 283.23 88.62 295.27 86.75 303.75 C 84.88 312.23 83.15 317.79 81.50 323.12 C 79.85 328.46 77.40 333.52 76.88 335.75 C 76.35 337.98 77.17 336.31 78.38 336.50 C 79.58 336.69 80.67 336.79 84.12 336.88 C 87.58 336.96 96.40 337.00 99.12 337.00 C 101.85 337.00 100.15 337.00 100.50 336.88 C 100.85 336.75 100.71 337.50 101.25 336.25 C 101.79 335.00 102.69 332.75 103.75 329.38 C 104.81 326.00 106.42 320.67 107.62 316.00 C 108.83 311.33 109.79 306.02 111.00 301.38 C 112.21 296.73 113.85 292.62 114.88 288.12 C 115.90 283.62 116.67 276.81 117.12 274.38 C 117.58 271.94 116.88 278.38 117.62 273.50 C 118.38 268.62 120.52 255.12 121.62 245.12 C 122.73 235.12 123.83 221.21 124.25 213.50 C 124.67 205.79 124.02 202.40 124.12 198.88 C 124.23 195.35 124.54 206.60 124.88 192.38 C 125.21 178.15 125.42 130.83 126.12 113.50 C 126.83 96.17 128.31 94.02 129.12 88.38 C 129.94 82.73 130.40 81.79 131.00 79.62 C 131.60 77.46 132.27 76.94 132.75 75.38 C 133.23 73.81 133.73 71.85 133.88 70.25 C 134.02 68.65 133.81 66.85 133.62 65.75 C 133.44 64.65 133.62 64.77 132.75 63.62 C 131.88 62.48 129.60 59.98 128.38 58.88 C 127.15 57.77 126.94 57.81 125.38 57.00 C 123.81 56.19 121.40 54.98 119.00 54.00 C 116.60 53.02 113.79 51.94 111.00 51.12 C 108.21 50.31 105.31 49.48 102.25 49.12 C 99.19 48.77 94.60 48.88 92.62 49.00 Z" id="s-2-f-2"/>
<path d="M 92.62 49.00 C 90.88 49.15 91.00 49.50 90.38 49.88 C 89.75 50.25 89.27 50.75 88.88 51.25 C 88.48 51.75 88.17 52.19 88.00 52.88 C 87.83 53.56 87.69 54.23 87.88 55.38 C 88.06 56.52 88.31 57.54 89.12 59.75 C 89.94 61.96 91.81 65.77 92.75 68.62 C 93.69 71.48 93.96 70.52 94.75 76.88 C 95.54 83.23 96.85 97.94 97.50 106.75 C 98.15 115.56 98.42 114.62 98.62 129.75 C 98.83 144.88 98.88 181.92 98.75 197.50 C 98.62 213.08 98.23 216.04 97.88 223.25 C 97.52 230.46 97.31 233.73 96.62 240.75 C 95.94 247.77 94.88 257.54 93.75 265.38 C 92.62 273.21 90.27 283.90 89.88 287.75 C 89.48 291.60 90.17 288.31 91.38 288.50 C 92.58 288.69 93.33 288.81 97.12 288.88 C 100.92 288.94 111.17 289.00 114.12 288.88 C 117.08 288.75 114.17 291.44 114.88 288.12 C 115.58 284.81 117.40 274.88 118.38 269.00 C 119.35 263.12 120.02 258.69 120.75 252.88 C 121.48 247.06 122.17 240.69 122.75 234.12 C 123.33 227.56 124.02 219.38 124.25 213.50 C 124.48 207.62 124.02 202.40 124.12 198.88 C 124.23 195.35 124.54 206.60 124.88 192.38 C 125.21 178.15 125.42 130.83 126.12 113.50 C 126.83 96.17 128.31 94.02 129.12 88.38 C 129.94 82.73 130.25 82.33 131.00 79.62 C 131.75 76.92 133.15 74.15 133.62 72.12 C 134.10 70.10 133.88 68.56 133.88 67.50 C 133.88 66.44 133.98 66.65 133.62 65.75 C 133.27 64.85 132.62 63.27 131.75 62.12 C 130.88 60.98 130.02 60.02 128.38 58.88 C 126.73 57.73 124.25 56.38 121.88 55.25 C 119.50 54.12 116.56 52.98 114.12 52.12 C 111.69 51.27 109.46 50.65 107.25 50.12 C 105.04 49.60 103.31 49.19 100.88 49.00 C 98.44 48.81 94.38 48.85 92.62 49.00 Z" id="s-2-f-3"/>
<path d="M 92.62 49.00 C 90.65 49.12 91.00 49.50 90.38 49.88 C 89.75 50.25 89.27 50.75 88.88 51.25 C 88.48 51.75 88.17 52.19 88.00 52.88 C 87.83 53.56 87.69 54.23 87.88 55.38 C 88.06 56.52 88.31 57.54 89.12 59.75 C 89.94 61.96 91.81 65.77 92.75 68.62 C 93.69 71.48 93.90 69.60 94.75 76.88 C 95.60 84.15 97.21 101.54 97.88 112.25 C 98.54 122.96 98.60 126.92 98.75 141.12 C 98.90 155.33 98.90 183.81 98.75 197.50 C 98.60 211.19 98.23 216.12 97.88 223.25 C 97.52 230.38 96.75 237.31 96.62 240.25 C 96.50 243.19 92.98 240.75 97.12 240.88 C 101.27 241.00 117.25 241.90 121.50 241.00 C 125.75 240.10 122.17 240.08 122.62 235.50 C 123.08 230.92 124.00 219.60 124.25 213.50 C 124.50 207.40 124.02 202.40 124.12 198.88 C 124.23 195.35 124.54 206.60 124.88 192.38 C 125.21 178.15 125.42 130.83 126.12 113.50 C 126.83 96.17 128.31 94.02 129.12 88.38 C 129.94 82.73 130.25 82.33 131.00 79.62 C 131.75 76.92 133.19 74.44 133.62 72.12 C 134.06 69.81 133.94 67.42 133.62 65.75 C 133.31 64.08 132.62 63.27 131.75 62.12 C 130.88 60.98 130.50 60.23 128.38 58.88 C 126.25 57.52 121.90 55.29 119.00 54.00 C 116.10 52.71 113.79 51.94 111.00 51.12 C 108.21 50.31 105.31 49.48 102.25 49.12 C 99.19 48.77 94.60 48.88 92.62 49.00 Z" id="s-2-f-4"/>
<path d="M 92.62 49.00 C 90.65 49.12 91.00 49.50 90.38 49.88 C 89.75 50.25 89.27 50.75 88.88 51.25 C 88.48 51.75 88.17 52.19 88.00 52.88 C 87.83 53.56 87.69 54.23 87.88 55.38 C 88.06 56.52 88.31 57.54 89.12 59.75 C 89.94 61.96 91.81 65.77 92.75 68.62 C 93.69 71.48 93.96 70.52 94.75 76.88 C 95.54 83.23 96.85 97.94 97.50 106.75 C 98.15 115.56 98.38 115.46 98.62 129.75 C 98.88 144.04 98.88 181.96 99.00 192.50 C 99.12 203.04 96.35 192.92 99.38 193.00 C 102.40 193.08 112.92 193.08 117.12 193.00 C 121.33 192.92 123.12 205.75 124.62 192.50 C 126.12 179.25 125.38 130.85 126.12 113.50 C 126.88 96.15 128.31 94.02 129.12 88.38 C 129.94 82.73 130.25 82.33 131.00 79.62 C 131.75 76.92 133.19 74.44 133.62 72.12 C 134.06 69.81 133.94 67.42 133.62 65.75 C 133.31 64.08 132.62 63.27 131.75 62.12 C 130.88 60.98 130.50 60.23 128.38 58.88 C 126.25 57.52 121.90 55.29 119.00 54.00 C 116.10 52.71 113.79 51.94 111.00 51.12 C 108.21 50.31 105.31 49.48 102.25 49.12 C 99.19 48.77 94.60 48.88 92.62 49.00 Z" id="s-2-f-5"/>
<path d="M 91.75 49.25 C 90.83 49.65 89.50 50.65 88.88 51.25 C 88.25 51.85 88.17 52.19 88.00 52.88 C 87.83 53.56 87.69 54.23 87.88 55.38 C 88.06 56.52 88.31 57.54 89.12 59.75 C 89.94 61.96 91.81 65.77 92.75 68.62 C 93.69 71.48 93.90 69.60 94.75 76.88 C 95.60 84.15 97.21 101.58 97.88 112.25 C 98.54 122.92 98.52 135.48 98.75 140.88 C 98.98 146.27 99.10 143.94 99.25 144.62 C 99.40 145.31 95.31 144.96 99.62 145.00 C 103.94 145.04 120.79 145.00 125.12 144.88 C 129.46 144.75 125.48 149.00 125.62 144.25 C 125.77 139.50 125.77 123.08 126.00 116.38 C 126.23 109.67 126.31 109.50 127.00 104.00 C 127.69 98.50 129.02 88.69 130.12 83.38 C 131.23 78.06 133.04 75.06 133.62 72.12 C 134.21 69.19 133.94 67.42 133.62 65.75 C 133.31 64.08 132.62 63.27 131.75 62.12 C 130.88 60.98 130.02 60.02 128.38 58.88 C 126.73 57.73 124.77 56.54 121.88 55.25 C 118.98 53.96 114.27 52.15 111.00 51.12 C 107.73 50.10 105.02 49.50 102.25 49.12 C 99.48 48.75 96.12 48.85 94.38 48.88 C 92.62 48.90 92.67 48.85 91.75 49.25 Z" id="s-2-f-6"/>
<path d="M 90.00 50.12 C 89.23 50.77 88.33 51.81 88.00 52.88 C 87.67 53.94 87.40 54.44 88.00 56.50 C 88.60 58.56 90.67 62.65 91.62 65.25 C 92.58 67.85 93.08 68.98 93.75 72.12 C 94.42 75.27 95.17 80.10 95.62 84.12 C 96.08 88.15 95.96 94.10 96.50 96.25 C 97.04 98.40 93.73 96.88 98.88 97.00 C 104.02 97.12 122.48 97.33 127.38 97.00 C 132.27 96.67 127.65 97.90 128.25 95.00 C 128.85 92.10 130.25 82.90 131.00 79.62 C 131.75 76.35 132.29 76.77 132.75 75.38 C 133.21 73.98 133.60 72.85 133.75 71.25 C 133.90 69.65 133.96 67.27 133.62 65.75 C 133.29 64.23 132.62 63.27 131.75 62.12 C 130.88 60.98 129.44 59.73 128.38 58.88 C 127.31 58.02 126.94 57.81 125.38 57.00 C 123.81 56.19 121.40 54.98 119.00 54.00 C 116.60 53.02 113.79 51.94 111.00 51.12 C 108.21 50.31 105.31 49.48 102.25 49.12 C 99.19 48.77 94.67 48.83 92.62 49.00 C 90.58 49.17 90.77 49.48 90.00 50.12 Z" id="s-2-f-7"/>
</g>
<g id="s-3" clip-path="url(#c-s-3)">
<use href="#s-3-f-0"/>
<path d="M 114.62 287.00 C 114.21 287.25 113.81 287.98 113.62 288.62 C 113.44 289.27 113.83 289.65 113.50 290.88 C 113.17 292.10 111.88 294.73 111.62 296.00 C 111.38 297.27 110.50 296.35 112.00 298.50 C 113.50 300.65 116.65 303.44 120.62 308.88 C 124.60 314.31 132.19 326.04 135.88 331.12 C 139.56 336.21 141.00 337.46 142.75 339.38 C 144.50 341.29 145.00 341.58 146.38 342.62 C 147.75 343.67 149.77 345.08 151.00 345.62 C 152.23 346.17 152.88 345.98 153.75 345.88 C 154.62 345.77 155.27 345.73 156.25 345.00 C 157.23 344.27 159.00 342.50 159.62 341.50 C 160.25 340.50 159.94 342.81 160.00 339.00 C 160.06 335.19 160.52 322.98 160.00 318.62 C 159.48 314.27 157.71 314.25 156.88 312.88 C 156.04 311.50 156.12 311.58 155.00 310.38 C 153.88 309.17 152.75 307.71 150.12 305.62 C 147.50 303.54 144.92 300.96 139.25 297.88 C 133.58 294.79 120.23 288.94 116.12 287.12 C 112.02 285.31 115.04 286.75 114.62 287.00 Z" id="s-3-f-1"/>
</g>
<g id="s-4" clip-path="url(#c-s-4)">
<use href="#s-4-f-0"/>
<path d="M 435.88 82.62 C 436.02 81.79 436.12 80.83 435.75 79.62 C 435.38 78.42 434.56 76.73 433.62 75.38 C 432.69 74.02 431.42 72.75 430.12 71.50 C 428.83 70.25 427.54 69.15 425.88 67.88 C 424.21 66.60 422.52 65.35 420.12 63.88 C 417.73 62.40 414.33 60.48 411.50 59.00 C 408.67 57.52 405.62 56.02 403.12 55.00 C 400.62 53.98 398.35 53.19 396.50 52.88 C 394.65 52.56 393.90 52.65 392.00 53.12 C 390.10 53.60 390.79 54.17 385.12 55.75 C 379.46 57.33 369.19 60.12 358.00 62.62 C 346.81 65.12 326.98 69.06 318.00 70.75 C 309.02 72.44 309.73 72.08 304.12 72.75 C 298.52 73.42 291.02 74.21 284.38 74.75 C 277.73 75.29 268.08 75.60 264.25 76.00 C 260.42 76.40 262.10 76.60 261.38 77.12 C 260.65 77.65 260.10 78.44 259.88 79.12 C 259.65 79.81 259.69 80.50 260.00 81.25 C 260.31 82.00 260.58 82.54 261.75 83.62 C 262.92 84.71 264.06 85.94 267.00 87.75 C 269.94 89.56 276.65 93.17 279.38 94.50 C 282.10 95.83 282.21 95.52 283.38 95.75 C 284.54 95.98 285.42 95.92 286.38 95.88 C 287.33 95.83 283.60 96.98 289.12 95.50 C 294.65 94.02 309.83 89.56 319.50 87.00 C 329.17 84.44 338.69 81.98 347.12 80.12 C 355.56 78.27 364.98 76.73 370.12 75.88 C 375.27 75.02 376.04 75.06 378.00 75.00 C 379.96 74.94 380.92 75.21 381.88 75.50 C 382.83 75.79 383.27 76.17 383.75 76.75 C 384.23 77.33 384.58 78.27 384.75 79.00 C 384.92 79.73 384.94 80.23 384.75 81.12 C 384.56 82.02 384.12 83.23 383.62 84.38 C 383.12 85.52 382.75 86.40 381.75 88.00 C 380.75 89.60 380.48 90.15 377.62 94.00 C 374.77 97.85 366.73 108.15 364.62 111.12 C 362.52 114.10 364.69 111.73 365.00 111.88 C 365.31 112.02 361.79 112.00 366.50 112.00 C 371.21 112.00 386.23 113.71 393.25 111.88 C 400.27 110.04 404.73 103.65 408.62 101.00 C 412.52 98.35 412.88 98.17 416.62 96.00 C 420.38 93.83 428.08 89.90 431.12 88.00 C 434.17 86.10 434.08 85.52 434.88 84.62 C 435.67 83.73 435.73 83.46 435.88 82.62 Z" id="s-4-f-1"/>
<path d="M 419.25 63.62 C 418.54 62.81 416.06 61.44 413.38 60.00 C 410.69 58.56 405.94 56.19 403.12 55.00 C 400.31 53.81 398.25 53.21 396.50 52.88 C 394.75 52.54 394.52 52.52 392.62 53.00 C 390.73 53.48 390.31 54.29 385.12 55.75 C 379.94 57.21 372.69 59.25 361.50 61.75 C 350.31 64.25 328.85 68.77 318.00 70.75 C 307.15 72.73 305.44 72.73 296.38 73.62 C 287.31 74.52 269.40 75.58 263.62 76.12 C 257.85 76.67 262.33 76.50 261.75 76.88 C 261.17 77.25 260.44 77.77 260.12 78.38 C 259.81 78.98 259.88 79.98 259.88 80.50 C 259.88 81.02 259.67 80.83 260.12 81.50 C 260.58 82.17 261.48 83.46 262.62 84.50 C 263.77 85.54 264.21 86.08 267.00 87.75 C 269.79 89.42 276.75 93.19 279.38 94.50 C 282.00 95.81 281.38 95.42 282.75 95.62 C 284.12 95.83 281.50 97.19 287.62 95.75 C 293.75 94.31 309.58 89.60 319.50 87.00 C 329.42 84.40 339.98 81.79 347.12 80.12 C 354.27 78.46 356.21 78.04 362.38 77.00 C 368.54 75.96 374.92 75.90 384.12 73.88 C 393.33 71.85 411.77 66.58 417.62 64.88 C 423.48 63.17 419.96 64.44 419.25 63.62 Z" id="s-4-f-2"/>
<path d="M 404.00 56.12 C 403.90 54.12 404.62 55.67 403.38 55.12 C 402.12 54.58 398.29 53.23 396.50 52.88 C 394.71 52.52 394.52 52.52 392.62 53.00 C 390.73 53.48 390.90 54.15 385.12 55.75 C 379.35 57.35 369.19 60.12 358.00 62.62 C 346.81 65.12 328.27 68.92 318.00 70.75 C 307.73 72.58 305.44 72.73 296.38 73.62 C 287.31 74.52 269.40 75.58 263.62 76.12 C 257.85 76.67 262.33 76.50 261.75 76.88 C 261.17 77.25 260.44 77.75 260.12 78.38 C 259.81 79.00 259.60 79.75 259.88 80.62 C 260.15 81.50 260.88 82.65 261.75 83.62 C 262.62 84.60 262.83 85.00 265.12 86.50 C 267.42 88.00 272.48 91.08 275.50 92.62 C 278.52 94.17 281.08 95.25 283.25 95.75 C 285.42 96.25 282.46 97.08 288.50 95.62 C 294.54 94.17 309.73 89.58 319.50 87.00 C 329.27 84.42 339.85 81.81 347.12 80.12 C 354.40 78.44 357.62 77.77 363.12 76.88 C 368.62 75.98 373.35 76.17 380.12 74.75 C 386.90 73.33 399.77 69.65 403.75 68.38 C 407.73 67.10 403.96 69.17 404.00 67.12 C 404.04 65.08 404.10 58.12 404.00 56.12 Z" id="s-4-f-3"/>
<path d="M 356.00 63.38 C 355.81 60.88 358.35 62.29 354.75 63.00 C 351.15 63.71 340.50 66.33 334.38 67.62 C 328.25 68.92 323.04 69.90 318.00 70.75 C 312.96 71.60 309.73 72.08 304.12 72.75 C 298.52 73.42 291.02 74.21 284.38 74.75 C 277.73 75.29 268.02 75.65 264.25 76.00 C 260.48 76.35 262.44 76.48 261.75 76.88 C 261.06 77.27 260.44 77.75 260.12 78.38 C 259.81 79.00 259.60 79.75 259.88 80.62 C 260.15 81.50 260.88 82.65 261.75 83.62 C 262.62 84.60 262.83 85.00 265.12 86.50 C 267.42 88.00 272.48 91.08 275.50 92.62 C 278.52 94.17 281.08 95.25 283.25 95.75 C 285.42 96.25 280.52 97.58 288.50 95.62 C 296.48 93.67 320.02 86.83 331.12 84.00 C 342.23 81.17 351.00 79.62 355.12 78.62 C 359.25 77.62 355.73 80.54 355.88 78.00 C 356.02 75.46 356.19 65.88 356.00 63.38 Z" id="s-4-f-4"/>
<path d="M 308.00 89.50 C 308.25 86.67 308.10 76.65 308.00 73.75 C 307.90 70.85 311.06 71.98 307.38 72.12 C 303.69 72.27 293.06 73.98 285.88 74.62 C 278.69 75.27 268.33 75.58 264.25 76.00 C 260.17 76.42 262.10 76.60 261.38 77.12 C 260.65 77.65 260.08 78.40 259.88 79.12 C 259.67 79.85 259.81 80.75 260.12 81.50 C 260.44 82.25 260.92 82.79 261.75 83.62 C 262.58 84.46 262.83 85.00 265.12 86.50 C 267.42 88.00 272.48 91.08 275.50 92.62 C 278.52 94.17 280.98 95.27 283.25 95.75 C 285.52 96.23 285.25 96.33 289.12 95.50 C 293.00 94.67 303.35 91.75 306.50 90.75 C 309.65 89.75 307.75 92.33 308.00 89.50 Z" id="s-4-f-5"/>
</g>
<g id="s-5" clip-path="url(#c-s-5)">
<use href="#s-5-f-0"/>
<path d="M 305.75 116.00 C 304.35 116.19 304.94 116.75 304.88 117.25 C 304.81 117.75 304.52 117.79 305.38 119.00 C 306.23 120.21 307.71 121.44 310.00 124.50 C 312.29 127.56 315.71 132.85 319.12 137.38 C 322.54 141.90 326.42 147.00 330.50 151.62 C 334.58 156.25 340.46 162.08 343.62 165.12 C 346.79 168.17 348.06 169.10 349.50 169.88 C 350.94 170.65 351.69 169.88 352.25 169.75 C 352.81 169.62 352.75 175.77 352.88 169.12 C 353.00 162.48 353.23 136.60 353.00 129.88 C 352.77 123.15 353.60 129.71 351.50 128.75 C 349.40 127.79 345.33 125.92 340.38 124.12 C 335.42 122.33 326.27 119.33 321.75 118.00 C 317.23 116.67 315.92 116.46 313.25 116.12 C 310.58 115.79 307.15 115.81 305.75 116.00 Z" id="s-5-f-1"/>
</g>
<g id="s-6" clip-path="url(#c-s-6)">
<use href="#s-6-f-0"/>
<path d="M 268.00 167.88 C 266.96 167.88 267.12 167.85 266.62 168.12 C 266.12 168.40 265.44 168.94 265.00 169.50 C 264.56 170.06 264.19 170.69 264.00 171.50 C 263.81 172.31 263.83 173.58 263.88 174.38 C 263.92 175.17 263.77 175.19 264.25 176.25 C 264.73 177.31 266.00 179.02 266.75 180.75 C 267.50 182.48 268.08 183.79 268.75 186.62 C 269.42 189.46 270.25 193.08 270.75 197.75 C 271.25 202.42 271.60 205.33 271.75 214.62 C 271.90 223.92 271.77 242.67 271.62 253.50 C 271.48 264.33 271.19 272.75 270.88 279.62 C 270.56 286.50 270.27 289.54 269.75 294.75 C 269.23 299.96 268.71 304.94 267.75 310.88 C 266.79 316.81 264.62 326.19 264.00 330.38 C 263.38 334.56 263.50 333.21 264.00 336.00 C 264.50 338.79 266.02 344.10 267.00 347.12 C 267.98 350.15 268.98 352.31 269.88 354.12 C 270.77 355.94 271.54 357.04 272.38 358.00 C 273.21 358.96 273.17 359.54 274.88 359.88 C 276.58 360.21 281.15 360.12 282.62 360.00 C 284.10 359.88 283.12 360.46 283.75 359.12 C 284.38 357.79 285.56 356.27 286.38 352.00 C 287.19 347.73 287.85 344.00 288.62 333.50 C 289.40 323.00 290.44 304.56 291.00 289.00 C 291.56 273.44 291.85 254.54 292.00 240.12 C 292.15 225.71 291.71 210.75 291.88 202.50 C 292.04 194.25 293.27 194.75 293.00 190.62 C 292.73 186.50 290.92 180.19 290.25 177.75 C 289.58 175.31 290.15 176.96 289.00 176.00 C 287.85 175.04 284.98 173.00 283.38 172.00 C 281.77 171.00 281.12 170.65 279.38 170.00 C 277.62 169.35 274.77 168.48 272.88 168.12 C 270.98 167.77 269.04 167.88 268.00 167.88 Z" id="s-6-f-1"/>
<path d="M 267.12 168.00 C 266.00 168.19 265.83 168.69 265.38 169.12 C 264.92 169.56 264.62 169.75 264.38 170.62 C 264.12 171.50 263.92 173.50 263.88 174.38 C 263.83 175.25 263.50 174.44 264.12 175.88 C 264.75 177.31 266.69 180.48 267.62 183.00 C 268.56 185.52 269.23 188.54 269.75 191.00 C 270.27 193.46 270.42 193.81 270.75 197.75 C 271.08 201.69 271.60 205.35 271.75 214.62 C 271.90 223.90 271.77 242.54 271.62 253.38 C 271.48 264.21 271.19 272.73 270.88 279.62 C 270.56 286.52 270.27 289.46 269.75 294.75 C 269.23 300.04 268.02 308.52 267.75 311.38 C 267.48 314.23 267.85 311.77 268.12 311.88 C 268.40 311.98 265.85 312.00 269.38 312.00 C 272.90 312.00 285.85 312.00 289.25 311.88 C 292.65 311.75 289.46 315.06 289.75 311.25 C 290.04 307.44 290.62 300.71 291.00 289.00 C 291.38 277.29 291.85 255.44 292.00 241.00 C 292.15 226.56 291.71 210.77 291.88 202.38 C 292.04 193.98 293.27 194.73 293.00 190.62 C 292.73 186.52 290.92 180.19 290.25 177.75 C 289.58 175.31 290.15 176.96 289.00 176.00 C 287.85 175.04 285.31 173.12 283.38 172.00 C 281.44 170.88 279.25 169.92 277.38 169.25 C 275.50 168.58 273.83 168.21 272.12 168.00 C 270.42 167.79 268.25 167.81 267.12 168.00 Z" id="s-6-f-2"/>
<path d="M 267.12 168.00 C 266.00 168.19 265.83 168.69 265.38 169.12 C 264.92 169.56 264.62 169.75 264.38 170.62 C 264.12 171.50 263.90 173.44 263.88 174.38 C 263.85 175.31 263.65 174.88 264.25 176.25 C 264.85 177.62 266.73 180.81 267.50 182.62 C 268.27 184.44 268.33 184.60 268.88 187.12 C 269.42 189.65 270.31 194.48 270.75 197.75 C 271.19 201.02 271.33 200.27 271.50 206.75 C 271.67 213.23 271.79 227.17 271.75 236.62 C 271.71 246.08 271.02 258.94 271.25 263.50 C 271.48 268.06 269.79 263.94 273.12 264.00 C 276.46 264.06 288.15 264.12 291.25 263.88 C 294.35 263.62 291.65 272.75 291.75 262.50 C 291.85 252.25 291.67 214.35 291.88 202.38 C 292.08 190.40 293.29 194.79 293.00 190.62 C 292.71 186.46 290.79 179.81 290.12 177.38 C 289.46 174.94 290.42 177.06 289.00 176.00 C 287.58 174.94 283.69 172.17 281.62 171.00 C 279.56 169.83 278.21 169.50 276.62 169.00 C 275.04 168.50 273.71 168.17 272.12 168.00 C 270.54 167.83 268.25 167.81 267.12 168.00 Z" id="s-6-f-3"/>
<path d="M 266.38 168.38 C 265.75 168.88 264.65 169.69 264.25 170.88 C 263.85 172.06 263.46 173.54 264.00 175.50 C 264.54 177.46 266.54 180.04 267.50 182.62 C 268.46 185.21 269.21 188.48 269.75 191.00 C 270.29 193.52 270.40 193.65 270.75 197.75 C 271.10 201.85 271.60 212.58 271.88 215.62 C 272.15 218.67 270.04 215.94 272.38 216.00 C 274.71 216.06 282.62 216.08 285.88 216.00 C 289.12 215.92 290.85 218.25 291.88 215.50 C 292.90 212.75 291.81 203.65 292.00 199.50 C 292.19 195.35 293.33 194.35 293.00 190.62 C 292.67 186.90 290.92 179.77 290.00 177.12 C 289.08 174.48 288.60 175.60 287.50 174.75 C 286.40 173.90 285.06 172.92 283.38 172.00 C 281.69 171.08 279.25 169.92 277.38 169.25 C 275.50 168.58 273.69 168.23 272.12 168.00 C 270.56 167.77 268.96 167.81 268.00 167.88 C 267.04 167.94 267.00 167.88 266.38 168.38 Z" id="s-6-f-4"/>
</g>
<g id="s-7" clip-path="url(#c-s-7)">
<use href="#s-7-f-0"/>
<path d="M 289.88 177.00 C 289.08 177.21 289.54 176.96 289.50 177.38 C 289.46 177.79 289.48 178.81 289.62 179.50 C 289.77 180.19 290.04 179.83 290.38 181.50 C 290.71 183.17 291.25 187.77 291.62 189.50 C 292.00 191.23 290.67 191.96 292.62 191.88 C 294.58 191.79 295.69 190.31 303.38 189.00 C 311.06 187.69 329.50 185.19 338.75 184.00 C 348.00 182.81 353.77 182.56 358.88 181.88 C 363.98 181.19 361.42 180.52 369.38 179.88 C 377.33 179.23 399.77 178.12 406.62 178.00 C 413.48 177.88 409.48 178.58 410.50 179.12 C 411.52 179.67 412.21 180.42 412.75 181.25 C 413.29 182.08 413.40 182.29 413.75 184.12 C 414.10 185.96 414.40 181.27 414.88 192.25 C 415.35 203.23 416.31 235.21 416.62 250.00 C 416.94 264.79 416.90 271.44 416.75 281.00 C 416.60 290.56 416.12 300.06 415.75 307.38 C 415.38 314.69 415.29 318.85 414.50 324.88 C 413.71 330.90 412.12 334.65 411.00 343.50 C 409.88 352.35 408.25 372.00 407.75 378.00 C 407.25 384.00 407.79 378.98 408.00 379.50 C 408.21 380.02 408.21 380.29 409.00 381.12 C 409.79 381.96 411.46 383.90 412.75 384.50 C 414.04 385.10 415.71 384.88 416.75 384.75 C 417.79 384.62 418.00 384.40 419.00 383.75 C 420.00 383.10 421.50 382.04 422.75 380.88 C 424.00 379.71 425.00 378.67 426.50 376.75 C 428.00 374.83 430.21 372.17 431.75 369.38 C 433.29 366.58 434.58 363.75 435.75 360.00 C 436.92 356.25 438.08 350.83 438.75 346.88 C 439.42 342.92 439.56 341.42 439.75 336.25 C 439.94 331.08 440.15 327.62 439.88 315.88 C 439.60 304.12 438.46 279.94 438.12 265.75 C 437.79 251.56 437.73 240.33 437.88 230.75 C 438.02 221.17 438.48 214.10 439.00 208.25 C 439.52 202.40 440.33 198.83 441.00 195.62 C 441.67 192.42 442.19 190.88 443.00 189.00 C 443.81 187.12 445.08 185.85 445.88 184.38 C 446.67 182.90 447.42 181.33 447.75 180.12 C 448.08 178.92 448.02 178.04 447.88 177.12 C 447.73 176.21 447.88 175.94 446.88 174.62 C 445.88 173.31 443.85 171.00 441.88 169.25 C 439.90 167.50 438.12 166.15 435.00 164.12 C 431.88 162.10 425.94 158.65 423.12 157.12 C 420.31 155.60 419.48 155.35 418.12 155.00 C 416.77 154.65 420.58 153.71 415.00 155.00 C 409.42 156.29 392.54 160.83 384.62 162.75 C 376.71 164.67 371.06 165.85 367.50 166.50 C 363.94 167.15 364.29 166.48 363.25 166.62 C 362.21 166.77 363.06 167.04 361.25 167.38 C 359.44 167.71 354.46 168.21 352.38 168.62 C 350.29 169.04 358.44 168.62 348.75 169.88 C 339.06 171.12 304.06 174.94 294.25 176.12 C 284.44 177.31 290.67 176.79 289.88 177.00 Z" id="s-7-f-1"/>
<path d="M 289.88 177.00 C 289.08 177.21 289.54 176.96 289.50 177.38 C 289.46 177.79 289.48 178.81 289.62 179.50 C 289.77 180.19 290.04 179.83 290.38 181.50 C 290.71 183.17 291.25 187.77 291.62 189.50 C 292.00 191.23 290.67 191.96 292.62 191.88 C 294.58 191.79 295.69 190.31 303.38 189.00 C 311.06 187.69 329.50 185.19 338.75 184.00 C 348.00 182.81 353.75 182.56 358.88 181.88 C 364.00 181.19 361.54 180.52 369.50 179.88 C 377.46 179.23 399.79 178.12 406.62 178.00 C 413.46 177.88 409.48 178.58 410.50 179.12 C 411.52 179.67 412.21 180.42 412.75 181.25 C 413.29 182.08 413.40 182.29 413.75 184.12 C 414.10 185.96 414.40 181.27 414.88 192.25 C 415.35 203.23 416.31 235.21 416.62 250.00 C 416.94 264.79 416.90 271.44 416.75 281.00 C 416.60 290.56 416.12 300.06 415.75 307.38 C 415.38 314.69 415.29 318.85 414.50 324.88 C 413.71 330.90 411.77 338.40 411.00 343.50 C 410.23 348.60 410.00 353.29 409.88 355.50 C 409.75 357.71 409.92 356.50 410.25 356.75 C 410.58 357.00 407.52 357.00 411.88 357.00 C 416.23 357.00 431.90 358.44 436.38 356.75 C 440.85 355.06 438.17 351.15 438.75 346.88 C 439.33 342.60 439.71 337.71 439.88 331.12 C 440.04 324.54 440.04 318.15 439.75 307.38 C 439.46 296.60 438.44 279.27 438.12 266.50 C 437.81 253.73 437.73 240.46 437.88 230.75 C 438.02 221.04 438.48 214.10 439.00 208.25 C 439.52 202.40 440.33 198.83 441.00 195.62 C 441.67 192.42 442.19 190.88 443.00 189.00 C 443.81 187.12 445.08 185.83 445.88 184.38 C 446.67 182.92 447.44 181.58 447.75 180.25 C 448.06 178.92 448.15 177.65 447.75 176.38 C 447.35 175.10 446.52 173.96 445.38 172.62 C 444.23 171.29 442.38 169.65 440.88 168.38 C 439.38 167.10 438.79 166.56 436.38 165.00 C 433.96 163.44 429.33 160.65 426.38 159.00 C 423.42 157.35 420.52 155.79 418.62 155.12 C 416.73 154.46 420.67 153.73 415.00 155.00 C 409.33 156.27 392.54 160.83 384.62 162.75 C 376.71 164.67 371.06 165.85 367.50 166.50 C 363.94 167.15 364.29 166.48 363.25 166.62 C 362.21 166.77 363.06 167.04 361.25 167.38 C 359.44 167.71 354.46 168.21 352.38 168.62 C 350.29 169.04 358.44 168.62 348.75 169.88 C 339.06 171.12 304.06 174.94 294.25 176.12 C 284.44 177.31 290.67 176.79 289.88 177.00 Z" id="s-7-f-2"/>
<path d="M 289.50 177.38 C 289.17 179.58 291.10 187.08 291.62 189.50 C 292.15 191.92 290.67 191.96 292.62 191.88 C 294.58 191.79 295.69 190.31 303.38 189.00 C 311.06 187.69 329.52 185.19 338.75 184.00 C 347.98 182.81 353.62 182.56 358.75 181.88 C 363.88 181.19 362.31 180.52 369.50 179.88 C 376.69 179.23 395.56 178.29 401.88 178.00 C 408.19 177.71 405.81 177.85 407.38 178.12 C 408.94 178.40 410.33 179.06 411.25 179.62 C 412.17 180.19 412.29 179.79 412.88 181.50 C 413.46 183.21 414.40 185.79 414.75 189.88 C 415.10 193.96 414.83 201.58 415.00 206.00 C 415.17 210.42 415.44 205.56 415.75 216.38 C 416.06 227.19 416.90 255.52 416.88 270.88 C 416.85 286.23 415.52 302.15 415.62 308.50 C 415.73 314.85 413.50 308.96 417.50 309.00 C 421.50 309.04 436.19 315.83 439.62 308.75 C 443.06 301.67 438.42 279.50 438.12 266.50 C 437.83 253.50 437.83 239.08 437.88 230.75 C 437.92 222.42 438.15 220.60 438.38 216.50 C 438.60 212.40 438.81 209.60 439.25 206.12 C 439.69 202.65 440.38 198.48 441.00 195.62 C 441.62 192.77 442.02 191.21 443.00 189.00 C 443.98 186.79 446.06 184.04 446.88 182.38 C 447.69 180.71 447.73 180.00 447.88 179.00 C 448.02 178.00 447.92 177.10 447.75 176.38 C 447.58 175.65 447.85 175.81 446.88 174.62 C 445.90 173.44 443.62 170.85 441.88 169.25 C 440.12 167.65 439.50 167.02 436.38 165.00 C 433.25 162.98 426.17 158.79 423.12 157.12 C 420.08 155.46 419.48 155.35 418.12 155.00 C 416.77 154.65 420.58 153.71 415.00 155.00 C 409.42 156.29 392.54 160.83 384.62 162.75 C 376.71 164.67 371.06 165.85 367.50 166.50 C 363.94 167.15 364.29 166.48 363.25 166.62 C 362.21 166.77 363.06 167.04 361.25 167.38 C 359.44 167.71 354.46 168.21 352.38 168.62 C 350.29 169.04 358.54 168.60 348.75 169.88 C 338.96 171.15 303.50 175.00 293.62 176.25 C 283.75 177.50 289.83 175.17 289.50 177.38 Z" id="s-7-f-3"/>
<path d="M 437.88 260.62 C 440.33 254.75 437.77 234.83 438.00 225.75 C 438.23 216.67 438.58 211.75 439.25 206.12 C 439.92 200.50 441.21 195.21 442.00 192.00 C 442.79 188.79 443.35 188.15 444.00 186.88 C 444.65 185.60 445.25 185.48 445.88 184.38 C 446.50 183.27 447.42 181.46 447.75 180.25 C 448.08 179.04 447.96 177.96 447.88 177.12 C 447.79 176.29 447.67 176.00 447.25 175.25 C 446.83 174.50 446.56 173.88 445.38 172.62 C 444.19 171.38 441.85 169.17 440.12 167.75 C 438.40 166.33 437.83 165.90 435.00 164.12 C 432.17 162.35 425.94 158.65 423.12 157.12 C 420.31 155.60 419.48 155.35 418.12 155.00 C 416.77 154.65 420.58 153.71 415.00 155.00 C 409.42 156.29 392.67 160.81 384.62 162.75 C 376.58 164.69 370.31 165.98 366.75 166.62 C 363.19 167.27 364.17 166.50 363.25 166.62 C 362.33 166.75 363.06 167.04 361.25 167.38 C 359.44 167.71 354.46 168.21 352.38 168.62 C 350.29 169.04 358.54 168.60 348.75 169.88 C 338.96 171.15 303.50 175.00 293.62 176.25 C 283.75 177.50 289.83 175.17 289.50 177.38 C 289.17 179.58 291.10 187.08 291.62 189.50 C 292.15 191.92 290.67 191.96 292.62 191.88 C 294.58 191.79 295.69 190.31 303.38 189.00 C 311.06 187.69 329.52 185.19 338.75 184.00 C 347.98 182.81 353.62 182.56 358.75 181.88 C 363.88 181.19 362.31 180.52 369.50 179.88 C 376.69 179.23 395.69 178.31 401.88 178.00 C 408.06 177.69 405.19 177.81 406.62 178.00 C 408.06 178.19 409.46 178.54 410.50 179.12 C 411.54 179.71 412.17 179.71 412.88 181.50 C 413.58 183.29 414.10 176.71 414.75 189.88 C 415.40 203.04 415.33 248.65 416.75 260.50 C 418.17 272.35 419.73 260.98 423.25 261.00 C 426.77 261.02 435.42 266.50 437.88 260.62 Z" id="s-7-f-4"/>
<path d="M 447.88 177.12 C 447.73 176.19 447.44 175.54 446.88 174.62 C 446.31 173.71 446.25 173.23 444.50 171.62 C 442.75 170.02 439.94 167.42 436.38 165.00 C 432.81 162.58 426.17 158.79 423.12 157.12 C 420.08 155.46 419.46 155.35 418.12 155.00 C 416.79 154.65 420.71 153.71 415.12 155.00 C 409.54 156.29 392.56 160.83 384.62 162.75 C 376.69 164.67 371.06 165.85 367.50 166.50 C 363.94 167.15 364.29 166.48 363.25 166.62 C 362.21 166.77 363.06 167.04 361.25 167.38 C 359.44 167.71 354.46 168.21 352.38 168.62 C 350.29 169.04 358.54 168.60 348.75 169.88 C 338.96 171.15 303.44 175.06 293.62 176.25 C 283.81 177.44 290.56 176.62 289.88 177.00 C 289.19 177.38 289.25 176.94 289.50 178.50 C 289.75 180.06 291.00 184.46 291.38 186.38 C 291.75 188.29 291.58 189.12 291.75 190.00 C 291.92 190.88 292.10 191.31 292.38 191.62 C 292.65 191.94 291.54 192.31 293.38 191.88 C 295.21 191.44 295.81 190.31 303.38 189.00 C 310.94 187.69 329.52 185.19 338.75 184.00 C 347.98 182.81 353.62 182.56 358.75 181.88 C 363.88 181.19 362.31 180.52 369.50 179.88 C 376.69 179.23 395.54 178.29 401.88 178.00 C 408.21 177.71 405.94 177.85 407.50 178.12 C 409.06 178.40 410.38 179.10 411.25 179.62 C 412.12 180.15 412.33 180.50 412.75 181.25 C 413.17 182.00 413.42 182.69 413.75 184.12 C 414.08 185.56 414.46 185.15 414.75 189.88 C 415.04 194.60 415.06 208.65 415.50 212.50 C 415.94 216.35 413.85 212.92 417.38 213.00 C 420.90 213.08 433.08 213.08 436.62 213.00 C 440.17 212.92 437.90 215.40 438.62 212.50 C 439.35 209.60 440.27 199.54 441.00 195.62 C 441.73 191.71 441.88 191.56 443.00 189.00 C 444.12 186.44 446.94 182.23 447.75 180.25 C 448.56 178.27 448.02 178.06 447.88 177.12 Z" id="s-7-f-5"/>
<path d="M 435.25 164.62 C 433.29 163.19 425.98 158.73 423.12 157.12 C 420.27 155.52 419.48 155.35 418.12 155.00 C 416.77 154.65 420.58 153.71 415.00 155.00 C 409.42 156.29 392.67 160.81 384.62 162.75 C 376.58 164.69 370.31 165.98 366.75 166.62 C 363.19 167.27 364.17 166.50 363.25 166.62 C 362.33 166.75 363.06 167.04 361.25 167.38 C 359.44 167.71 354.46 168.21 352.38 168.62 C 350.29 169.04 358.44 168.62 348.75 169.88 C 339.06 171.12 304.06 174.94 294.25 176.12 C 284.44 177.31 290.67 176.60 289.88 177.00 C 289.08 177.40 289.19 176.33 289.50 178.50 C 289.81 180.67 291.27 187.81 291.75 190.00 C 292.23 192.19 292.08 191.31 292.38 191.62 C 292.67 191.94 291.67 192.31 293.50 191.88 C 295.33 191.44 295.83 190.31 303.38 189.00 C 310.92 187.69 329.52 185.19 338.75 184.00 C 347.98 182.81 354.15 182.42 358.75 181.88 C 363.35 181.33 364.75 181.06 366.38 180.75 C 368.00 180.44 362.06 180.48 368.50 180.00 C 374.94 179.52 398.42 178.38 405.00 177.88 C 411.58 177.38 406.56 177.60 408.00 177.00 C 409.44 176.40 412.38 174.77 413.62 174.25 C 414.88 173.73 413.50 174.71 415.50 173.88 C 417.50 173.04 422.40 170.60 425.62 169.25 C 428.85 167.90 433.27 166.52 434.88 165.75 C 436.48 164.98 437.21 166.06 435.25 164.62 Z" id="s-7-f-6"/>
<path d="M 434.00 164.25 C 433.83 163.81 434.81 164.19 433.00 163.00 C 431.19 161.81 425.60 158.46 423.12 157.12 C 420.65 155.79 419.48 155.35 418.12 155.00 C 416.77 154.65 420.58 153.71 415.00 155.00 C 409.42 156.29 392.67 160.81 384.62 162.75 C 376.58 164.69 370.31 165.98 366.75 166.62 C 363.19 167.27 364.17 166.50 363.25 166.62 C 362.33 166.75 363.06 167.04 361.25 167.38 C 359.44 167.71 354.46 168.21 352.38 168.62 C 350.29 169.04 358.44 168.62 348.75 169.88 C 339.06 171.12 304.06 174.94 294.25 176.12 C 284.44 177.31 290.67 176.60 289.88 177.00 C 289.08 177.40 289.19 176.33 289.50 178.50 C 289.81 180.67 291.27 187.81 291.75 190.00 C 292.23 192.19 292.08 191.31 292.38 191.62 C 292.67 191.94 291.67 192.31 293.50 191.88 C 295.33 191.44 295.83 190.31 303.38 189.00 C 310.92 187.69 329.52 185.19 338.75 184.00 C 347.98 182.81 354.15 182.42 358.75 181.88 C 363.35 181.33 364.75 181.06 366.38 180.75 C 368.00 180.44 362.06 180.48 368.50 180.00 C 374.94 179.52 398.42 178.38 405.00 177.88 C 411.58 177.38 406.56 177.60 408.00 177.00 C 409.44 176.40 409.60 175.94 413.62 174.25 C 417.65 172.56 428.73 168.31 432.12 166.88 C 435.52 165.44 433.69 166.06 434.00 165.62 C 434.31 165.19 434.17 164.69 434.00 164.25 Z" id="s-7-f-7"/>
<path d="M 385.88 162.88 C 385.71 160.35 388.06 161.90 385.00 162.50 C 381.94 163.10 371.12 165.81 367.50 166.50 C 363.88 167.19 365.19 166.31 363.25 166.62 C 361.31 166.94 357.69 168.04 355.88 168.38 C 354.06 168.71 353.56 168.38 352.38 168.62 C 351.19 168.88 359.10 168.50 348.75 169.88 C 338.40 171.25 300.12 175.62 290.25 176.88 C 280.38 178.12 289.62 177.10 289.50 177.38 C 289.38 177.65 289.19 177.00 289.50 178.50 C 289.81 180.00 291.00 184.46 291.38 186.38 C 291.75 188.29 291.58 189.12 291.75 190.00 C 291.92 190.88 292.10 191.31 292.38 191.62 C 292.65 191.94 291.54 192.31 293.38 191.88 C 295.21 191.44 299.56 189.81 303.38 189.00 C 307.19 188.19 307.02 188.19 316.25 187.00 C 325.48 185.81 349.88 183.06 358.75 181.88 C 367.62 180.69 365.06 180.38 369.50 179.88 C 373.94 179.38 382.62 179.25 385.38 178.88 C 388.12 178.50 385.92 180.29 386.00 177.62 C 386.08 174.96 386.04 165.40 385.88 162.88 Z" id="s-7-f-8"/>
<path d="M 337.88 171.62 C 337.69 169.67 344.88 170.23 336.88 171.12 C 328.88 172.02 297.77 175.96 289.88 177.00 C 281.98 178.04 289.54 176.96 289.50 177.38 C 289.46 177.79 289.48 178.83 289.62 179.50 C 289.77 180.17 290.21 180.54 290.38 181.38 C 290.54 182.21 290.29 182.79 290.62 184.50 C 290.96 186.21 291.77 190.42 292.38 191.62 C 292.98 192.83 292.42 192.19 294.25 191.75 C 296.08 191.31 296.21 190.23 303.38 189.00 C 310.54 187.77 331.48 185.40 337.25 184.38 C 343.02 183.35 337.90 185.00 338.00 182.88 C 338.10 180.75 338.06 173.58 337.88 171.62 Z" id="s-7-f-9"/>
</g>
<g id="s-8" clip-path="url(#c-s-8)">
<use href="#s-8-f-0"/>
<path d="M 387.88 214.00 C 387.71 211.02 390.08 212.98 387.00 213.62 C 383.92 214.27 375.83 216.65 369.38 217.88 C 362.92 219.10 355.75 219.69 348.25 221.00 C 340.75 222.31 330.62 224.62 324.38 225.75 C 318.12 226.88 315.54 227.19 310.75 227.75 C 305.96 228.31 298.79 228.62 295.62 229.12 C 292.46 229.62 292.44 230.40 291.75 230.75 C 291.06 231.10 291.54 229.96 291.50 231.25 C 291.46 232.54 290.92 236.96 291.50 238.50 C 292.08 240.04 293.12 239.83 295.00 240.50 C 296.88 241.17 298.98 242.12 302.75 242.50 C 306.52 242.88 311.79 243.17 317.62 242.75 C 323.46 242.33 333.65 240.48 337.75 240.00 C 341.85 239.52 338.69 240.25 342.25 239.88 C 345.81 239.50 351.79 238.79 359.12 237.75 C 366.46 236.71 381.50 234.40 386.25 233.62 C 391.00 232.85 387.33 233.48 387.62 233.12 C 387.92 232.77 387.96 234.69 388.00 231.50 C 388.04 228.31 388.04 216.98 387.88 214.00 Z" id="s-8-f-1"/>
<path d="M 339.38 224.00 C 339.08 222.04 341.81 222.54 338.25 223.00 C 334.69 223.46 325.08 225.73 318.00 226.75 C 310.92 227.77 299.88 228.58 295.75 229.12 C 291.62 229.67 293.96 229.65 293.25 230.00 C 292.54 230.35 291.79 229.83 291.50 231.25 C 291.21 232.67 291.23 237.08 291.50 238.50 C 291.77 239.92 291.90 239.21 293.12 239.75 C 294.35 240.29 297.12 241.27 298.88 241.75 C 300.62 242.23 302.02 242.44 303.62 242.62 C 305.23 242.81 305.71 242.90 308.50 242.88 C 311.29 242.85 315.19 242.98 320.38 242.50 C 325.56 242.02 336.35 241.29 339.62 240.00 C 342.90 238.71 340.04 237.42 340.00 234.75 C 339.96 232.08 339.67 225.96 339.38 224.00 Z" id="s-8-f-2"/>
</g>
<g id="s-9" clip-path="url(#c-s-9)">
<use href="#s-9-f-0"/>
<path d="M 386.88 264.62 C 386.77 261.33 389.02 263.60 386.12 264.12 C 383.23 264.65 373.75 266.98 369.50 267.75 C 365.25 268.52 366.65 267.58 360.62 268.75 C 354.60 269.92 343.21 272.92 333.38 274.75 C 323.54 276.58 307.94 278.85 301.62 279.75 C 295.31 280.65 297.33 279.75 295.50 280.12 C 293.67 280.50 291.46 280.60 290.62 282.00 C 289.79 283.40 290.17 287.19 290.50 288.50 C 290.83 289.81 290.33 289.17 292.62 289.88 C 294.92 290.58 300.02 292.27 304.25 292.75 C 308.48 293.23 311.52 293.08 318.00 292.75 C 324.48 292.42 331.88 292.12 343.12 290.75 C 354.38 289.38 378.23 285.65 385.50 284.50 C 392.77 283.35 386.52 287.19 386.75 283.88 C 386.98 280.56 386.98 267.92 386.88 264.62 Z" id="s-9-f-1"/>
<path d="M 338.25 275.00 C 337.88 274.17 342.73 273.21 336.62 274.00 C 330.52 274.79 308.48 278.73 301.62 279.75 C 294.77 280.77 297.33 279.75 295.50 280.12 C 293.67 280.50 291.46 280.60 290.62 282.00 C 289.79 283.40 290.17 287.19 290.50 288.50 C 290.83 289.81 291.23 289.33 292.62 289.88 C 294.02 290.42 296.56 291.25 298.88 291.75 C 301.19 292.25 302.90 292.73 306.50 292.88 C 310.10 293.02 315.15 292.98 320.50 292.62 C 325.85 292.27 335.54 291.25 338.62 290.75 C 341.71 290.25 338.96 291.58 339.00 289.62 C 339.04 287.67 339.00 281.44 338.88 279.00 C 338.75 276.56 338.62 275.83 338.25 275.00 Z" id="s-9-f-2"/>
</g>
<g id="s-10" clip-path="url(#c-s-10)">
<use href="#s-10-f-0"/>
<path d="M 363.38 180.50 C 362.35 180.48 358.92 180.48 357.75 180.62 C 356.58 180.77 357.71 181.21 356.38 181.38 C 355.04 181.54 351.25 181.44 349.75 181.62 C 348.25 181.81 348.71 182.33 347.38 182.50 C 346.04 182.67 342.98 182.42 341.75 182.62 C 340.52 182.83 340.31 177.10 340.00 183.75 C 339.69 190.40 340.08 215.08 339.88 222.50 C 339.67 229.92 338.98 226.04 338.75 228.25 C 338.52 230.46 338.48 233.71 338.50 235.75 C 338.52 237.79 338.83 230.79 338.88 240.50 C 338.92 250.21 338.92 282.00 338.75 294.00 C 338.58 306.00 338.02 307.46 337.88 312.50 C 337.73 317.54 337.60 322.21 337.88 324.25 C 338.15 326.29 335.60 324.65 339.50 324.75 C 343.40 324.85 357.54 324.96 361.25 324.88 C 364.96 324.79 361.65 330.35 361.75 324.25 C 361.85 318.15 361.79 294.38 361.88 288.25 C 361.96 282.12 362.19 290.52 362.25 287.50 C 362.31 284.48 362.31 273.46 362.25 270.12 C 362.19 266.79 361.77 272.88 361.88 267.50 C 361.98 262.12 362.65 243.04 362.88 237.88 C 363.10 232.71 363.23 240.46 363.25 236.50 C 363.27 232.54 362.90 223.42 363.00 214.12 C 363.10 204.83 363.81 186.35 363.88 180.75 C 363.94 175.15 364.40 180.52 363.38 180.50 Z" id="s-10-f-1"/>
<path d="M 363.25 180.50 C 362.23 180.48 359.06 180.46 357.75 180.62 C 356.44 180.79 356.71 181.33 355.38 181.50 C 354.04 181.67 351.08 181.46 349.75 181.62 C 348.42 181.79 348.71 182.33 347.38 182.50 C 346.04 182.67 342.98 182.42 341.75 182.62 C 340.52 182.83 340.31 177.10 340.00 183.75 C 339.69 190.40 340.08 215.08 339.88 222.50 C 339.67 229.92 338.98 226.04 338.75 228.25 C 338.52 230.46 338.48 233.71 338.50 235.75 C 338.52 237.79 338.81 234.21 338.88 240.50 C 338.94 246.79 338.94 267.50 338.88 273.50 C 338.81 279.50 338.44 275.88 338.50 276.50 C 338.56 277.12 335.42 277.12 339.25 277.25 C 343.08 277.38 357.67 277.38 361.50 277.25 C 365.33 277.12 362.19 278.12 362.25 276.50 C 362.31 274.88 361.77 274.04 361.88 267.50 C 361.98 260.96 362.65 242.42 362.88 237.25 C 363.10 232.08 363.23 240.31 363.25 236.50 C 363.27 232.69 362.90 223.67 363.00 214.38 C 363.10 205.08 363.83 186.40 363.88 180.75 C 363.92 175.10 364.27 180.52 363.25 180.50 Z" id="s-10-f-2"/>
<path d="M 363.88 180.75 C 363.00 175.12 359.00 180.52 357.75 180.62 C 356.50 180.73 357.71 181.21 356.38 181.38 C 355.04 181.54 351.25 181.44 349.75 181.62 C 348.25 181.81 348.71 182.33 347.38 182.50 C 346.04 182.67 342.96 182.46 341.75 182.62 C 340.54 182.79 340.44 176.85 340.12 183.50 C 339.81 190.15 340.10 215.06 339.88 222.50 C 339.65 229.94 338.88 227.04 338.75 228.12 C 338.62 229.21 335.17 228.81 339.12 229.00 C 343.08 229.19 358.50 229.27 362.50 229.25 C 366.50 229.23 363.04 231.35 363.12 228.88 C 363.21 226.40 362.88 222.40 363.00 214.38 C 363.12 206.35 364.75 186.38 363.88 180.75 Z" id="s-10-f-3"/>
</g>
<g id="s-11" clip-path="url(#c-s-11)">
<use href="#s-11-f-0"/>
<path d="M 180.12 93.12 C 179.92 93.96 179.60 94.92 180.25 97.00 C 180.90 99.08 182.23 102.23 184.00 105.62 C 185.77 109.02 187.71 112.27 190.88 117.38 C 194.04 122.48 200.52 132.52 203.00 136.25 C 205.48 139.98 200.23 139.12 205.75 139.75 C 211.27 140.38 230.65 140.04 236.12 140.00 C 241.60 139.96 238.19 141.10 238.62 139.50 C 239.06 137.90 239.06 133.21 238.75 130.38 C 238.44 127.54 237.85 125.23 236.75 122.50 C 235.65 119.77 233.96 116.44 232.12 114.00 C 230.29 111.56 228.04 109.71 225.75 107.88 C 223.46 106.04 220.56 104.31 218.38 103.00 C 216.19 101.69 216.10 101.50 212.62 100.00 C 209.15 98.50 201.35 95.31 197.50 94.00 C 193.65 92.69 192.17 92.46 189.50 92.12 C 186.83 91.79 183.06 91.83 181.50 92.00 C 179.94 92.17 180.33 92.29 180.12 93.12 Z" id="s-11-f-1"/>
</g>
<g id="s-12" clip-path="url(#c-s-12)">
<use href="#s-12-f-0"/>
<path d="M 248.50 205.88 C 247.69 205.10 248.54 205.27 245.12 203.12 C 241.71 200.98 232.10 195.17 228.00 193.00 C 223.90 190.83 222.44 190.62 220.50 190.12 C 218.56 189.62 220.42 187.90 216.38 190.00 C 212.33 192.10 201.15 199.79 196.25 202.75 C 191.35 205.71 190.75 205.90 187.00 207.75 C 183.25 209.60 178.46 212.00 173.75 213.88 C 169.04 215.75 161.83 217.73 158.75 219.00 C 155.67 220.27 155.90 220.77 155.25 221.50 C 154.60 222.23 154.60 222.67 154.88 223.38 C 155.15 224.08 155.96 225.02 156.88 225.75 C 157.79 226.48 158.58 226.98 160.38 227.75 C 162.17 228.52 165.52 229.85 167.62 230.38 C 169.73 230.90 171.10 230.81 173.00 230.88 C 174.90 230.94 177.29 230.94 179.00 230.75 C 180.71 230.56 181.15 230.42 183.25 229.75 C 185.35 229.08 189.44 227.69 191.62 226.75 C 193.81 225.81 195.06 224.75 196.38 224.12 C 197.69 223.50 198.52 223.17 199.50 223.00 C 200.48 222.83 201.48 222.98 202.25 223.12 C 203.02 223.27 203.56 223.44 204.12 223.88 C 204.69 224.31 205.35 225.17 205.62 225.75 C 205.90 226.33 206.33 225.38 205.75 227.38 C 205.17 229.38 203.56 232.94 202.12 237.75 C 200.69 242.56 197.98 252.81 197.12 256.25 C 196.27 259.69 196.08 257.92 197.00 258.38 C 197.92 258.83 199.50 258.92 202.62 259.00 C 205.75 259.08 213.38 259.04 215.75 258.88 C 218.12 258.71 216.02 259.17 216.88 258.00 C 217.73 256.83 218.15 255.65 220.88 251.88 C 223.60 248.10 228.60 241.12 233.25 235.38 C 237.90 229.62 245.83 221.08 248.75 217.38 C 251.67 213.67 250.40 214.35 250.75 213.12 C 251.10 211.90 251.00 210.90 250.88 210.00 C 250.75 209.10 250.40 208.44 250.00 207.75 C 249.60 207.06 249.31 206.65 248.50 205.88 Z" id="s-12-f-1"/>
<path d="M 250.88 209.75 C 250.60 208.92 249.62 207.17 248.75 206.12 C 247.88 205.08 248.15 205.19 245.62 203.50 C 243.10 201.81 236.54 197.75 233.62 196.00 C 230.71 194.25 230.42 194.00 228.12 193.00 C 225.83 192.00 221.71 190.52 219.88 190.00 C 218.04 189.48 218.00 189.71 217.12 189.88 C 216.25 190.04 218.10 188.85 214.62 191.00 C 211.15 193.15 201.19 199.79 196.25 202.75 C 191.31 205.71 189.54 206.58 185.00 208.75 C 180.46 210.92 173.42 214.02 169.00 215.75 C 164.58 217.48 160.79 218.17 158.50 219.12 C 156.21 220.08 155.85 220.79 155.25 221.50 C 154.65 222.21 154.88 222.92 154.88 223.38 C 154.88 223.83 154.73 223.73 155.25 224.25 C 155.77 224.77 156.31 225.58 158.00 226.50 C 159.69 227.42 163.35 229.04 165.38 229.75 C 167.40 230.46 167.85 230.58 170.12 230.75 C 172.40 230.92 175.77 231.27 179.00 230.75 C 182.23 230.23 186.29 228.88 189.50 227.62 C 192.71 226.38 195.52 224.21 198.25 223.25 C 200.98 222.29 197.46 223.79 205.88 221.88 C 214.29 219.96 241.33 213.54 248.75 211.75 C 256.17 209.96 250.02 211.46 250.38 211.12 C 250.73 210.79 251.15 210.58 250.88 209.75 Z" id="s-12-f-2"/>
<path d="M 202.38 199.00 C 199.71 197.79 191.69 205.29 187.00 207.75 C 182.31 210.21 179.00 211.85 174.25 213.75 C 169.50 215.65 161.67 217.83 158.50 219.12 C 155.33 220.42 155.83 220.71 155.25 221.50 C 154.67 222.29 154.44 222.98 155.00 223.88 C 155.56 224.77 156.85 225.88 158.62 226.88 C 160.40 227.88 163.73 229.23 165.62 229.88 C 167.52 230.52 168.04 230.58 170.00 230.75 C 171.96 230.92 174.62 231.21 177.38 230.88 C 180.12 230.54 184.12 229.44 186.50 228.75 C 188.88 228.06 189.67 227.67 191.62 226.75 C 193.58 225.83 196.42 223.98 198.25 223.25 C 200.08 222.52 201.83 223.75 202.62 222.38 C 203.42 221.00 203.04 218.90 203.00 215.00 C 202.96 211.10 205.04 200.21 202.38 199.00 Z" id="s-12-f-3"/>
</g>
<g id="s-13" clip-path="url(#c-s-13)">
<use href="#s-13-f-0"/>
<path d="M 194.25 269.62 C 191.83 270.06 193.88 271.33 194.00 272.12 C 194.12 272.92 194.04 273.17 195.00 274.38 C 195.96 275.58 197.62 276.02 199.75 279.38 C 201.88 282.73 205.44 289.54 207.75 294.50 C 210.06 299.46 212.25 305.27 213.62 309.12 C 215.00 312.98 215.33 316.15 216.00 317.62 C 216.67 319.10 214.21 317.94 217.62 318.00 C 221.04 318.06 233.04 318.06 236.50 318.00 C 239.96 317.94 238.19 318.83 238.38 317.62 C 238.56 316.42 238.38 313.77 237.62 310.75 C 236.88 307.73 235.02 302.38 233.88 299.50 C 232.73 296.62 232.27 295.83 230.75 293.50 C 229.23 291.17 226.83 287.92 224.75 285.50 C 222.67 283.08 220.40 280.98 218.25 279.00 C 216.10 277.02 213.50 275.21 211.88 273.62 C 210.25 272.04 211.44 270.17 208.50 269.50 C 205.56 268.83 196.67 269.19 194.25 269.62 Z" id="s-13-f-1"/>
</g>
<g id="s-14" clip-path="url(#c-s-14)">
<use href="#s-14-f-0"/>
<path d="M 154.88 359.62 C 154.60 360.35 154.79 361.54 155.00 362.50 C 155.21 363.46 155.35 364.12 156.12 365.38 C 156.90 366.62 157.40 367.73 159.62 370.00 C 161.85 372.27 167.42 377.21 169.50 379.00 C 171.58 380.79 171.02 380.17 172.12 380.75 C 173.23 381.33 174.54 382.17 176.12 382.50 C 177.71 382.83 180.38 382.88 181.62 382.75 C 182.88 382.62 182.71 382.40 183.62 381.75 C 184.54 381.10 185.48 379.81 187.12 378.88 C 188.77 377.94 191.08 376.92 193.50 376.12 C 195.92 375.33 199.27 374.60 201.62 374.12 C 203.98 373.65 204.90 373.44 207.62 373.25 C 210.35 373.06 215.04 372.85 218.00 373.00 C 220.96 373.15 223.04 373.62 225.38 374.12 C 227.71 374.62 229.52 375.17 232.00 376.00 C 234.48 376.83 234.85 376.77 240.25 379.12 C 245.65 381.48 256.35 386.31 264.38 390.12 C 272.40 393.94 278.69 397.02 288.38 402.00 C 298.06 406.98 311.60 414.08 322.50 420.00 C 333.40 425.92 345.50 433.21 353.75 437.50 C 362.00 441.79 367.04 443.75 372.00 445.75 C 376.96 447.75 380.25 448.83 383.50 449.50 C 386.75 450.17 388.19 450.21 391.50 449.75 C 394.81 449.29 398.23 448.44 403.38 446.75 C 408.52 445.06 415.92 442.27 422.38 439.62 C 428.83 436.98 438.71 432.48 442.12 430.88 C 445.54 429.27 442.73 433.88 442.88 430.00 C 443.02 426.12 443.00 411.60 443.00 407.62 C 443.00 403.65 449.33 406.77 442.88 406.12 C 436.42 405.48 416.19 404.65 404.25 403.75 C 392.31 402.85 380.35 401.75 371.25 400.75 C 362.15 399.75 356.56 398.92 349.62 397.75 C 342.69 396.58 335.98 395.25 329.62 393.75 C 323.27 392.25 317.38 390.56 311.50 388.75 C 305.62 386.94 302.00 385.75 294.38 382.88 C 286.75 380.00 272.81 374.46 265.75 371.50 C 258.69 368.54 256.44 367.04 252.00 365.12 C 247.56 363.21 244.15 361.56 239.12 360.00 C 234.10 358.44 225.50 356.50 221.88 355.75 C 218.25 355.00 220.12 355.46 217.38 355.50 C 214.62 355.54 210.90 355.62 205.38 356.00 C 199.85 356.38 192.38 357.40 184.25 357.75 C 176.12 358.10 161.52 357.81 156.62 358.12 C 151.73 358.44 155.15 358.90 154.88 359.62 Z" id="s-14-f-1"/>
<path d="M 154.88 359.62 C 154.60 360.35 154.79 361.54 155.00 362.50 C 155.21 363.46 155.23 363.96 156.12 365.38 C 157.02 366.79 157.98 368.60 160.38 371.00 C 162.77 373.40 167.88 377.83 170.50 379.75 C 173.12 381.67 174.27 382.00 176.12 382.50 C 177.98 383.00 179.54 383.48 181.62 382.75 C 183.71 382.02 186.65 379.23 188.62 378.12 C 190.60 377.02 191.08 376.83 193.50 376.12 C 195.92 375.42 200.77 374.35 203.12 373.88 C 205.48 373.40 205.15 373.40 207.62 373.25 C 210.10 373.10 214.46 372.71 218.00 373.00 C 221.54 373.29 225.17 373.98 228.88 375.00 C 232.58 376.02 232.58 375.75 240.25 379.12 C 247.92 382.50 262.71 389.27 274.88 395.25 C 287.04 401.23 300.67 408.25 313.25 415.00 C 325.83 421.75 341.85 431.15 350.38 435.75 C 358.90 440.35 359.88 440.62 364.38 442.62 C 368.88 444.62 374.19 446.60 377.38 447.75 C 380.56 448.90 381.48 449.15 383.50 449.50 C 385.52 449.85 387.65 449.98 389.50 449.88 C 391.35 449.77 393.75 456.23 394.62 448.88 C 395.50 441.52 394.81 413.42 394.75 405.75 C 394.69 398.08 398.17 403.71 394.25 402.88 C 390.33 402.04 378.69 401.60 371.25 400.75 C 363.81 399.90 357.88 399.25 349.62 397.75 C 341.38 396.25 330.17 393.94 321.75 391.75 C 313.33 389.56 305.50 386.79 299.12 384.62 C 292.75 382.46 292.98 382.67 283.50 378.75 C 274.02 374.83 250.71 364.56 242.25 361.12 C 233.79 357.69 236.15 359.02 232.75 358.12 C 229.35 357.23 224.44 356.19 221.88 355.75 C 219.31 355.31 220.12 355.46 217.38 355.50 C 214.62 355.54 210.90 355.62 205.38 356.00 C 199.85 356.38 192.38 357.40 184.25 357.75 C 176.12 358.10 161.52 357.81 156.62 358.12 C 151.73 358.44 155.15 358.90 154.88 359.62 Z" id="s-14-f-2"/>
<path d="M 154.88 359.62 C 154.60 360.35 154.79 361.54 155.00 362.50 C 155.21 363.46 155.23 363.96 156.12 365.38 C 157.02 366.79 157.98 368.60 160.38 371.00 C 162.77 373.40 167.88 377.83 170.50 379.75 C 173.12 381.67 174.27 382.00 176.12 382.50 C 177.98 383.00 179.54 383.48 181.62 382.75 C 183.71 382.02 186.65 379.23 188.62 378.12 C 190.60 377.02 191.08 376.83 193.50 376.12 C 195.92 375.42 200.77 374.35 203.12 373.88 C 205.48 373.40 205.15 373.40 207.62 373.25 C 210.10 373.10 214.46 372.71 218.00 373.00 C 221.54 373.29 225.17 373.98 228.88 375.00 C 232.58 376.02 234.02 376.46 240.25 379.12 C 246.48 381.79 254.08 385.02 266.25 391.00 C 278.42 396.98 299.94 407.94 313.25 415.00 C 326.56 422.06 340.52 430.40 346.12 433.38 C 351.73 436.35 346.73 438.46 346.88 432.88 C 347.02 427.29 347.06 405.85 347.00 399.88 C 346.94 393.90 349.40 398.02 346.50 397.00 C 343.60 395.98 335.46 395.12 329.62 393.75 C 323.79 392.38 316.65 390.29 311.50 388.75 C 306.35 387.21 304.31 386.52 298.75 384.50 C 293.19 382.48 287.54 380.52 278.12 376.62 C 268.71 372.73 249.81 364.21 242.25 361.12 C 234.69 358.04 236.15 359.02 232.75 358.12 C 229.35 357.23 224.44 356.19 221.88 355.75 C 219.31 355.31 220.12 355.46 217.38 355.50 C 214.62 355.54 210.90 355.62 205.38 356.00 C 199.85 356.38 192.38 357.40 184.25 357.75 C 176.12 358.10 161.52 357.81 156.62 358.12 C 151.73 358.44 155.15 358.90 154.88 359.62 Z" id="s-14-f-3"/>
<path d="M 154.88 359.62 C 154.62 360.33 154.79 361.54 155.00 362.50 C 155.21 363.46 155.23 363.98 156.12 365.38 C 157.02 366.77 157.98 368.48 160.38 370.88 C 162.77 373.27 167.81 377.79 170.50 379.75 C 173.19 381.71 174.60 382.15 176.50 382.62 C 178.40 383.10 179.85 383.38 181.88 382.62 C 183.90 381.88 186.69 379.21 188.62 378.12 C 190.56 377.04 191.23 376.81 193.50 376.12 C 195.77 375.44 199.90 374.48 202.25 374.00 C 204.60 373.52 205.02 373.42 207.62 373.25 C 210.23 373.08 214.92 372.85 217.88 373.00 C 220.83 373.15 222.52 373.46 225.38 374.12 C 228.23 374.79 228.19 374.19 235.00 377.00 C 241.81 379.81 255.71 385.96 266.25 391.00 C 276.79 396.04 292.81 404.60 298.25 407.25 C 303.69 409.90 298.75 410.38 298.88 406.88 C 299.00 403.38 299.08 390.04 299.00 386.25 C 298.92 382.46 301.81 385.71 298.38 384.12 C 294.94 382.54 287.27 380.42 278.38 376.75 C 269.48 373.08 251.54 364.92 245.00 362.12 C 238.46 359.33 241.90 360.83 239.12 360.00 C 236.35 359.17 231.75 357.88 228.38 357.12 C 225.00 356.38 223.02 355.67 218.88 355.50 C 214.73 355.33 209.27 355.75 203.50 356.12 C 197.73 356.50 191.67 357.46 184.25 357.75 C 176.83 358.04 163.62 357.79 159.00 357.88 C 154.38 357.96 157.19 357.96 156.50 358.25 C 155.81 358.54 155.12 358.92 154.88 359.62 Z" id="s-14-f-4"/>
<path d="M 250.88 382.62 C 250.94 379.50 251.04 368.19 250.88 365.12 C 250.71 362.06 250.85 364.75 249.88 364.25 C 248.90 363.75 247.94 363.17 245.00 362.12 C 242.06 361.08 236.10 359.06 232.25 358.00 C 228.40 356.94 224.35 356.17 221.88 355.75 C 219.40 355.33 220.44 355.44 217.38 355.50 C 214.31 355.56 209.02 355.75 203.50 356.12 C 197.98 356.50 191.67 357.46 184.25 357.75 C 176.83 358.04 163.62 357.79 159.00 357.88 C 154.38 357.96 157.19 357.96 156.50 358.25 C 155.81 358.54 155.12 358.92 154.88 359.62 C 154.62 360.33 154.79 361.54 155.00 362.50 C 155.21 363.46 155.23 363.98 156.12 365.38 C 157.02 366.77 158.21 368.65 160.38 370.88 C 162.54 373.10 167.17 377.10 169.12 378.75 C 171.08 380.40 170.90 380.10 172.12 380.75 C 173.35 381.40 174.88 382.31 176.50 382.62 C 178.12 382.94 179.85 383.38 181.88 382.62 C 183.90 381.88 186.00 379.40 188.62 378.12 C 191.25 376.85 194.46 375.81 197.62 375.00 C 200.79 374.19 204.25 373.58 207.62 373.25 C 211.00 372.92 214.92 372.85 217.88 373.00 C 220.83 373.15 222.52 373.46 225.38 374.12 C 228.23 374.79 230.81 375.38 235.00 377.00 C 239.19 378.62 247.85 382.94 250.50 383.88 C 253.15 384.81 250.81 385.75 250.88 382.62 Z" id="s-14-f-5"/>
<path d="M 202.88 373.50 C 203.04 370.83 203.00 360.90 203.00 358.12 C 203.00 355.35 203.00 357.19 202.88 356.88 C 202.75 356.56 205.35 356.10 202.25 356.25 C 199.15 356.40 191.46 357.48 184.25 357.75 C 177.04 358.02 163.62 357.79 159.00 357.88 C 154.38 357.96 157.19 357.96 156.50 358.25 C 155.81 358.54 155.12 358.92 154.88 359.62 C 154.62 360.33 154.81 361.60 155.00 362.50 C 155.19 363.40 155.23 363.75 156.00 365.00 C 156.77 366.25 157.44 367.71 159.62 370.00 C 161.81 372.29 167.04 376.96 169.12 378.75 C 171.21 380.54 170.90 380.10 172.12 380.75 C 173.35 381.40 174.88 382.31 176.50 382.62 C 178.12 382.94 180.17 383.21 181.88 382.62 C 183.58 382.04 185.23 380.04 186.75 379.12 C 188.27 378.21 188.46 377.96 191.00 377.12 C 193.54 376.29 200.02 374.73 202.00 374.12 C 203.98 373.52 202.71 376.17 202.88 373.50 Z" id="s-14-f-6"/>
</g>
</svg>