<?xml version="1.0" encoding="UTF-8"?>
<svg xmlns="http://www.w3.org/2000/svg" viewBox="0 0 500 500">
<defs>
<path d="M 222.62 92.62 C 222.27 91.23 221.73 90.48 220.62 89.12 C 219.52 87.77 218.88 86.88 216.00 84.50 C 213.12 82.12 206.50 77.08 203.38 74.88 C 200.25 72.67 199.33 72.23 197.25 71.25 C 195.17 70.27 192.67 69.38 190.88 69.00 C 189.08 68.62 188.21 68.33 186.50 69.00 C 184.79 69.67 182.96 70.85 180.62 73.00 C 178.29 75.15 175.69 78.60 172.50 81.88 C 169.31 85.15 165.75 88.81 161.50 92.62 C 157.25 96.44 151.52 101.10 147.00 104.75 C 142.48 108.40 139.19 111.00 134.38 114.50 C 129.56 118.00 123.69 122.04 118.12 125.75 C 112.56 129.46 106.17 133.58 101.00 136.75 C 95.83 139.92 92.67 141.88 87.12 144.75 C 81.58 147.62 71.40 152.12 67.75 154.00 C 64.10 155.88 65.71 155.33 65.25 156.00 C 64.79 156.67 64.75 157.38 65.00 158.00 C 65.25 158.62 66.00 159.31 66.75 159.75 C 67.50 160.19 67.40 160.46 69.50 160.62 C 71.60 160.79 75.81 161.10 79.38 160.75 C 82.94 160.40 85.60 160.00 90.88 158.50 C 96.15 157.00 104.83 154.06 111.00 151.75 C 117.17 149.44 123.94 146.42 127.88 144.62 C 131.81 142.83 127.15 144.58 134.62 141.00 C 142.10 137.42 163.88 127.15 172.75 123.12 C 181.62 119.10 183.00 118.73 187.88 116.88 C 192.75 115.02 198.65 113.04 202.00 112.00 C 205.35 110.96 206.29 111.15 208.00 110.62 C 209.71 110.10 210.77 109.67 212.25 108.88 C 213.73 108.08 215.44 107.06 216.88 105.88 C 218.31 104.69 219.90 103.15 220.88 101.75 C 221.85 100.35 222.46 99.02 222.75 97.50 C 223.04 95.98 222.98 94.02 222.62 92.62 Z" id="s-0-f-0"/>
<clipPath id="c-s-0"><use href="#s-0-f-0"/></clipPath>
<path d="M 226.88 201.62 C 226.81 200.90 226.44 200.79 225.50 200.00 C 224.56 199.21 223.17 197.88 221.25 196.88 C 219.33 195.88 216.38 194.79 214.00 194.00 C 211.62 193.21 209.71 192.44 207.00 192.12 C 204.29 191.81 202.67 191.46 197.75 192.12 C 192.83 192.79 182.42 195.02 177.50 196.12 C 172.58 197.23 170.92 198.12 168.25 198.75 C 165.58 199.38 167.52 198.54 161.50 199.88 C 155.48 201.21 144.98 203.96 132.12 206.75 C 119.27 209.54 98.94 213.79 84.38 216.62 C 69.81 219.46 52.38 222.48 44.75 223.75 C 37.12 225.02 40.06 223.90 38.62 224.25 C 37.19 224.60 36.58 225.27 36.12 225.88 C 35.67 226.48 35.58 226.83 35.88 227.88 C 36.17 228.92 36.85 230.75 37.88 232.12 C 38.90 233.50 40.38 234.83 42.00 236.12 C 43.62 237.42 44.02 238.29 47.62 239.88 C 51.23 241.46 60.02 244.48 63.62 245.62 C 67.23 246.77 67.27 246.56 69.25 246.75 C 71.23 246.94 73.21 247.08 75.50 246.75 C 77.79 246.42 79.60 245.88 83.00 244.75 C 86.40 243.62 87.27 242.62 95.88 240.00 C 104.48 237.38 127.83 230.85 134.62 229.00 C 141.42 227.15 128.50 230.69 136.62 228.88 C 144.75 227.06 172.23 220.46 183.38 218.12 C 194.52 215.79 197.29 215.75 203.50 214.88 C 209.71 214.00 217.54 213.44 220.62 212.88 C 223.71 212.31 221.12 212.92 222.00 211.50 C 222.88 210.08 225.06 206.02 225.88 204.38 C 226.69 202.73 226.94 202.35 226.88 201.62 Z" id="s-1-f-0"/>
<clipPath id="c-s-1"><use href="#s-1-f-0"/></clipPath>
<path d="M 158.38 129.62 C 156.46 129.06 156.50 129.83 154.75 130.62 C 153.00 131.42 151.02 132.88 147.88 134.38 C 144.73 135.88 138.04 138.60 135.88 139.62 C 133.71 140.65 134.38 137.92 134.88 140.50 C 135.38 143.08 138.06 151.46 138.88 155.12 C 139.69 158.79 139.44 157.44 139.75 162.50 C 140.06 167.56 140.56 178.50 140.75 185.50 C 140.94 192.50 140.92 201.21 140.88 204.50 C 140.83 207.79 140.67 201.48 140.50 205.25 C 140.33 209.02 139.90 223.27 139.88 227.12 C 139.85 230.98 140.46 216.17 140.38 228.38 C 140.29 240.58 139.81 281.90 139.38 300.38 C 138.94 318.85 138.52 327.35 137.75 339.25 C 136.98 351.15 135.75 362.92 134.75 371.75 C 133.75 380.58 133.02 386.38 131.75 392.25 C 130.48 398.12 127.92 403.85 127.12 407.00 C 126.33 410.15 126.65 408.58 127.00 411.12 C 127.35 413.67 128.08 417.83 129.25 422.25 C 130.42 426.67 132.71 434.15 134.00 437.62 C 135.29 441.10 135.83 441.25 137.00 443.12 C 138.17 445.00 139.83 447.42 141.00 448.88 C 142.17 450.33 143.15 451.21 144.00 451.88 C 144.85 452.54 145.27 452.75 146.12 452.88 C 146.98 453.00 148.00 453.06 149.12 452.62 C 150.25 452.19 151.65 451.31 152.88 450.25 C 154.10 449.19 155.23 447.98 156.50 446.25 C 157.77 444.52 159.29 442.38 160.50 439.88 C 161.71 437.38 162.88 433.94 163.75 431.25 C 164.62 428.56 165.10 426.88 165.75 423.75 C 166.40 420.62 167.27 415.17 167.62 412.50 C 167.98 409.83 167.88 411.19 167.88 407.75 C 167.88 404.31 168.10 398.65 167.62 391.88 C 167.15 385.10 165.60 374.40 165.00 367.12 C 164.40 359.85 164.17 356.25 164.00 348.25 C 163.83 340.25 163.79 337.69 164.00 319.12 C 164.21 300.56 164.94 253.02 165.25 236.88 C 165.56 220.73 165.56 225.40 165.88 222.25 C 166.19 219.10 166.90 220.19 167.12 218.00 C 167.35 215.81 167.08 211.12 167.25 209.12 C 167.42 207.12 168.00 208.31 168.12 206.00 C 168.25 203.69 167.69 200.85 168.00 195.25 C 168.31 189.65 169.33 178.10 170.00 172.38 C 170.67 166.65 171.08 164.40 172.00 160.88 C 172.92 157.35 174.85 153.71 175.50 151.25 C 176.15 148.79 176.00 147.60 175.88 146.12 C 175.75 144.65 175.54 143.73 174.75 142.38 C 173.96 141.02 172.54 139.40 171.12 138.00 C 169.71 136.60 168.38 135.40 166.25 134.00 C 164.12 132.60 160.29 130.19 158.38 129.62 Z" id="s-2-f-0"/>
<clipPath id="c-s-2"><use href="#s-2-f-0"/></clipPath>
<path d="M 140.75 205.50 C 140.69 205.17 141.06 205.88 140.88 206.00 C 140.69 206.12 140.06 204.92 139.62 206.25 C 139.19 207.58 138.58 212.62 138.25 214.00 C 137.92 215.38 137.77 213.94 137.62 214.50 C 137.48 215.06 137.54 216.71 137.38 217.38 C 137.21 218.04 136.81 217.77 136.62 218.50 C 136.44 219.23 136.42 221.08 136.25 221.75 C 136.08 222.42 135.79 221.79 135.62 222.50 C 135.46 223.21 135.42 225.33 135.25 226.00 C 135.08 226.67 134.73 225.90 134.62 226.50 C 134.52 227.10 134.77 228.48 134.62 229.62 C 134.48 230.77 134.56 230.98 133.75 233.38 C 132.94 235.77 132.42 238.33 129.75 244.00 C 127.08 249.67 121.42 260.48 117.75 267.38 C 114.08 274.27 110.92 279.88 107.75 285.38 C 104.58 290.88 102.25 294.90 98.75 300.38 C 95.25 305.85 91.77 311.52 86.75 318.25 C 81.73 324.98 74.60 333.75 68.62 340.75 C 62.65 347.75 57.35 353.44 50.88 360.25 C 44.40 367.06 33.58 377.46 29.75 381.62 C 25.92 385.79 28.15 384.42 27.88 385.25 C 27.60 386.08 27.90 386.23 28.12 386.62 C 28.35 387.02 28.48 387.44 29.25 387.62 C 30.02 387.81 28.60 389.40 32.75 387.75 C 36.90 386.10 48.56 380.58 54.12 377.75 C 59.69 374.92 62.65 372.92 66.12 370.75 C 69.60 368.58 72.48 366.58 75.00 364.75 C 77.52 362.92 78.71 361.92 81.25 359.75 C 83.79 357.58 86.46 355.52 90.25 351.75 C 94.04 347.98 99.73 342.12 104.00 337.12 C 108.27 332.12 111.94 327.27 115.88 321.75 C 119.81 316.23 123.56 310.69 127.62 304.00 C 131.69 297.31 138.00 290.67 140.25 281.62 C 142.50 272.58 140.96 262.02 141.12 249.75 C 141.29 237.48 141.31 215.38 141.25 208.00 C 141.19 200.62 140.81 205.83 140.75 205.50 Z" id="s-3-f-0"/>
<clipPath id="c-s-3"><use href="#s-3-f-0"/></clipPath>
<path d="M 164.50 258.25 C 164.42 260.48 164.52 268.96 164.75 271.25 C 164.98 273.54 164.40 270.31 165.88 272.00 C 167.35 273.69 170.44 277.12 173.62 281.38 C 176.81 285.62 181.12 292.52 185.00 297.50 C 188.88 302.48 193.60 307.75 196.88 311.25 C 200.15 314.75 202.40 316.90 204.62 318.50 C 206.85 320.10 208.79 320.50 210.25 320.88 C 211.71 321.25 212.35 321.02 213.38 320.75 C 214.40 320.48 215.31 320.15 216.38 319.25 C 217.44 318.35 218.88 316.79 219.75 315.38 C 220.62 313.96 221.10 312.65 221.62 310.75 C 222.15 308.85 222.69 306.10 222.88 304.00 C 223.06 301.90 222.96 299.85 222.75 298.12 C 222.54 296.40 222.10 295.02 221.62 293.62 C 221.15 292.23 220.75 291.25 219.88 289.75 C 219.00 288.25 218.10 286.56 216.38 284.62 C 214.65 282.69 211.67 279.94 209.50 278.12 C 207.33 276.31 205.71 275.27 203.38 273.75 C 201.04 272.23 201.42 271.62 195.50 269.00 C 189.58 266.38 172.92 259.85 167.88 258.00 C 162.83 256.15 165.81 257.83 165.25 257.88 C 164.69 257.92 164.58 256.02 164.50 258.25 Z" id="s-4-f-0"/>
<clipPath id="c-s-4"><use href="#s-4-f-0"/></clipPath>
<path d="M 284.25 110.00 C 281.52 108.23 277.58 106.44 274.50 105.12 C 271.42 103.81 268.08 102.65 265.75 102.12 C 263.42 101.60 261.77 101.58 260.50 102.00 C 259.23 102.42 258.94 99.73 258.12 104.62 C 257.31 109.52 256.69 123.96 255.62 131.38 C 254.56 138.79 252.92 144.73 251.75 149.12 C 250.58 153.52 250.15 154.08 248.62 157.75 C 247.10 161.42 245.94 164.35 242.62 171.12 C 239.31 177.90 231.56 193.12 228.75 198.38 C 225.94 203.62 226.77 200.96 225.75 202.62 C 224.73 204.29 223.83 205.85 222.62 208.38 C 221.42 210.90 219.75 215.31 218.50 217.75 C 217.25 220.19 215.71 221.94 215.12 223.00 C 214.54 224.06 214.94 223.85 215.00 224.12 C 215.06 224.40 214.46 224.52 215.50 224.62 C 216.54 224.73 219.60 225.06 221.25 224.75 C 222.90 224.44 223.17 224.25 225.38 222.75 C 227.58 221.25 231.98 217.88 234.50 215.75 C 237.02 213.62 238.44 212.15 240.50 210.00 C 242.56 207.85 244.92 205.23 246.88 202.88 C 248.83 200.52 249.94 199.12 252.25 195.88 C 254.56 192.62 257.60 188.46 260.75 183.38 C 263.90 178.29 265.62 174.38 271.12 165.38 C 276.62 156.38 289.81 135.79 293.75 129.38 C 297.69 122.96 294.58 128.25 294.75 126.88 C 294.92 125.50 294.90 122.38 294.75 121.12 C 294.60 119.88 294.52 120.27 293.88 119.38 C 293.23 118.48 292.48 117.31 290.88 115.75 C 289.27 114.19 286.98 111.77 284.25 110.00 Z" id="s-5-f-0"/>
<clipPath id="c-s-5"><use href="#s-5-f-0"/></clipPath>
<path d="M 404.75 151.00 C 404.58 150.15 404.52 150.06 403.75 149.25 C 402.98 148.44 402.00 147.17 400.12 146.12 C 398.25 145.08 395.54 144.00 392.50 143.00 C 389.46 142.00 384.88 140.60 381.88 140.12 C 378.88 139.65 376.23 139.88 374.50 140.12 C 372.77 140.38 373.98 140.71 371.50 141.62 C 369.02 142.54 364.06 144.29 359.62 145.62 C 355.19 146.96 351.17 148.25 344.88 149.62 C 338.58 151.00 329.79 152.21 321.88 153.88 C 313.96 155.54 305.71 157.98 297.38 159.62 C 289.04 161.27 276.50 162.60 271.88 163.75 C 267.25 164.90 270.04 165.85 269.62 166.50 C 269.21 167.15 270.38 165.81 269.38 167.62 C 268.38 169.44 264.27 175.54 263.62 177.38 C 262.98 179.21 264.69 178.27 265.50 178.62 C 266.31 178.98 266.88 179.17 268.50 179.50 C 270.12 179.83 271.35 180.42 275.25 180.62 C 279.15 180.83 286.33 181.06 291.88 180.75 C 297.42 180.44 300.60 179.90 308.50 178.75 C 316.40 177.60 327.15 176.23 339.25 173.88 C 351.35 171.52 371.83 166.81 381.12 164.62 C 390.42 162.44 391.83 161.75 395.00 160.75 C 398.17 159.75 398.90 159.25 400.12 158.62 C 401.35 158.00 401.60 157.71 402.38 157.00 C 403.15 156.29 404.35 155.38 404.75 154.38 C 405.15 153.38 404.92 151.85 404.75 151.00 Z" id="s-6-f-0"/>
<clipPath id="c-s-6"><use href="#s-6-f-0"/></clipPath>
<path d="M 451.62 231.38 C 451.04 230.33 450.77 229.65 448.25 227.75 C 445.73 225.85 440.69 221.94 436.50 220.00 C 432.31 218.06 426.60 216.79 423.12 216.12 C 419.65 215.46 429.35 213.73 415.62 216.00 C 401.90 218.27 353.75 227.44 340.75 229.75 C 327.75 232.06 341.02 229.33 337.62 229.88 C 334.23 230.42 323.73 232.33 320.38 233.00 C 317.02 233.67 329.42 232.06 317.50 233.88 C 305.58 235.69 266.52 241.35 248.88 243.88 C 231.23 246.40 218.77 247.77 211.62 249.00 C 204.48 250.23 207.08 250.69 206.00 251.25 C 204.92 251.81 205.29 251.90 205.12 252.38 C 204.96 252.85 204.42 253.27 205.00 254.12 C 205.58 254.98 205.65 255.92 208.62 257.50 C 211.60 259.08 219.10 262.27 222.88 263.62 C 226.65 264.98 228.46 265.27 231.25 265.62 C 234.04 265.98 236.15 266.08 239.62 265.75 C 243.10 265.42 244.67 265.23 252.12 263.62 C 259.58 262.02 274.73 258.23 284.38 256.12 C 294.02 254.02 303.60 252.04 310.00 251.00 C 316.40 249.96 315.62 250.71 322.75 249.88 C 329.88 249.04 341.08 247.31 352.75 246.00 C 364.42 244.69 377.54 243.23 392.75 242.00 C 407.96 240.77 434.90 239.33 444.00 238.62 C 453.10 237.92 446.46 238.08 447.38 237.75 C 448.29 237.42 448.77 237.25 449.50 236.62 C 450.23 236.00 451.40 234.88 451.75 234.00 C 452.10 233.12 452.21 232.42 451.62 231.38 Z" id="s-7-f-0"/>
<clipPath id="c-s-7"><use href="#s-7-f-0"/></clipPath>
<path d="M 313.62 37.88 C 312.42 37.88 311.67 37.81 310.62 38.12 C 309.58 38.44 308.27 39.02 307.38 39.75 C 306.48 40.48 305.67 41.40 305.25 42.50 C 304.83 43.60 304.71 44.96 304.88 46.38 C 305.04 47.79 305.31 48.71 306.25 51.00 C 307.19 53.29 309.42 57.19 310.50 60.12 C 311.58 63.06 311.88 64.15 312.75 68.62 C 313.62 73.10 314.92 80.44 315.75 87.00 C 316.58 93.56 317.23 97.29 317.75 108.00 C 318.27 118.71 318.75 143.29 318.88 151.25 C 319.00 159.21 318.54 146.69 318.50 155.75 C 318.46 164.81 318.73 192.77 318.62 205.62 C 318.52 218.48 318.19 227.27 317.88 232.88 C 317.56 238.48 316.96 235.00 316.75 239.25 C 316.54 243.50 316.96 248.21 316.62 258.38 C 316.29 268.54 315.52 288.98 314.75 300.25 C 313.98 311.52 312.83 316.65 312.00 326.00 C 311.17 335.35 310.67 346.92 309.75 356.38 C 308.83 365.83 307.46 376.56 306.50 382.75 C 305.54 388.94 304.85 389.23 304.00 393.50 C 303.15 397.77 301.90 404.38 301.38 408.38 C 300.85 412.38 300.90 415.21 300.88 417.50 C 300.85 419.79 300.90 420.06 301.25 422.12 C 301.60 424.19 302.21 427.02 303.00 429.88 C 303.79 432.73 304.83 435.98 306.00 439.25 C 307.17 442.52 308.85 446.98 310.00 449.50 C 311.15 452.02 311.71 452.69 312.88 454.38 C 314.04 456.06 315.88 458.40 317.00 459.62 C 318.12 460.85 318.69 461.42 319.62 461.75 C 320.56 462.08 321.69 462.00 322.62 461.62 C 323.56 461.25 324.56 460.17 325.25 459.50 C 325.94 458.83 326.00 458.88 326.75 457.62 C 327.50 456.38 328.42 454.90 329.75 452.00 C 331.08 449.10 333.58 443.33 334.75 440.25 C 335.92 437.17 336.25 435.52 336.75 433.50 C 337.25 431.48 337.40 447.29 337.75 428.12 C 338.10 408.96 338.46 348.75 338.88 318.50 C 339.29 288.25 340.06 261.83 340.25 246.62 C 340.44 231.42 339.56 239.44 340.00 227.25 C 340.44 215.06 342.21 183.56 342.88 173.50 C 343.54 163.44 343.81 171.12 344.00 166.88 C 344.19 162.62 343.88 152.56 344.00 148.00 C 344.12 143.44 344.58 143.27 344.75 139.50 C 344.92 135.73 344.46 132.42 345.00 125.38 C 345.54 118.33 347.17 103.98 348.00 97.25 C 348.83 90.52 349.06 89.33 350.00 85.00 C 350.94 80.67 352.98 74.48 353.62 71.25 C 354.27 68.02 354.04 67.31 353.88 65.62 C 353.71 63.94 353.15 62.38 352.62 61.12 C 352.10 59.88 351.71 59.31 350.75 58.12 C 349.79 56.94 348.60 55.52 346.88 54.00 C 345.15 52.48 344.27 51.31 340.38 49.00 C 336.48 46.69 327.25 41.94 323.50 40.12 C 319.75 38.31 319.52 38.50 317.88 38.12 C 316.23 37.75 314.83 37.88 313.62 37.88 Z" id="s-8-f-0"/>
<clipPath id="c-s-8"><use href="#s-8-f-0"/></clipPath>
<path d="M 317.38 234.38 C 316.98 234.23 315.96 236.50 315.62 237.25 C 315.29 238.00 315.54 238.48 315.38 238.88 C 315.21 239.27 314.77 239.21 314.62 239.62 C 314.48 240.04 314.67 240.92 314.50 241.38 C 314.33 241.83 313.98 241.54 313.62 242.38 C 313.27 243.21 312.69 245.65 312.38 246.38 C 312.06 247.10 311.90 246.42 311.75 246.75 C 311.60 247.08 311.69 247.94 311.50 248.38 C 311.31 248.81 310.77 248.81 310.62 249.38 C 310.48 249.94 310.77 250.83 310.62 251.75 C 310.48 252.67 310.73 252.31 309.75 254.88 C 308.77 257.44 307.75 261.38 304.75 267.12 C 301.75 272.88 296.40 281.85 291.75 289.38 C 287.10 296.90 281.75 305.27 276.88 312.25 C 272.00 319.23 267.58 325.17 262.50 331.25 C 257.42 337.33 253.02 342.06 246.38 348.75 C 239.73 355.44 229.33 365.25 222.62 371.38 C 215.92 377.50 209.08 382.81 206.12 385.50 C 203.17 388.19 205.06 386.92 204.88 387.50 C 204.69 388.08 204.85 388.62 205.00 389.00 C 205.15 389.38 205.27 389.62 205.75 389.75 C 206.23 389.88 205.71 390.44 207.88 389.75 C 210.04 389.06 214.38 387.46 218.75 385.62 C 223.12 383.79 229.21 381.23 234.12 378.75 C 239.04 376.27 244.21 373.25 248.25 370.75 C 252.29 368.25 254.52 366.71 258.38 363.75 C 262.23 360.79 267.31 356.65 271.38 353.00 C 275.44 349.35 278.88 345.98 282.75 341.88 C 286.62 337.77 291.10 332.65 294.62 328.38 C 298.15 324.10 300.44 321.15 303.88 316.25 C 307.31 311.35 313.23 303.10 315.25 299.00 C 317.27 294.90 315.81 295.75 316.00 291.62 C 316.19 287.50 316.21 277.92 316.38 274.25 C 316.54 270.58 316.83 273.46 317.00 269.62 C 317.17 265.79 317.19 255.06 317.38 251.25 C 317.56 247.44 318.02 248.94 318.12 246.75 C 318.23 244.56 318.12 240.19 318.00 238.12 C 317.88 236.06 317.77 234.52 317.38 234.38 Z" id="s-9-f-0"/>
<clipPath id="c-s-9"><use href="#s-9-f-0"/></clipPath>
<path d="M 338.88 238.88 C 338.69 241.88 338.67 253.75 338.75 256.88 C 338.83 260.00 339.35 257.42 339.38 257.62 C 339.40 257.83 338.83 257.02 338.88 258.12 C 338.92 259.23 339.33 263.10 339.62 264.25 C 339.92 265.40 338.27 261.58 340.62 265.00 C 342.98 268.42 344.35 268.54 353.75 284.75 C 363.15 300.96 387.81 346.19 397.00 362.25 C 406.19 378.31 406.23 377.17 408.88 381.12 C 411.52 385.08 411.58 384.65 412.88 386.00 C 414.17 387.35 415.33 388.31 416.62 389.25 C 417.92 390.19 419.44 391.04 420.62 391.62 C 421.81 392.21 422.02 392.56 423.75 392.75 C 425.48 392.94 427.60 393.25 431.00 392.75 C 434.40 392.25 440.40 390.75 444.12 389.75 C 447.85 388.75 449.38 388.23 453.38 386.75 C 457.38 385.27 465.23 382.42 468.12 380.88 C 471.02 379.33 470.31 378.54 470.75 377.50 C 471.19 376.46 471.02 375.44 470.75 374.62 C 470.48 373.81 472.69 374.94 469.12 372.62 C 465.56 370.31 455.17 364.40 449.38 360.75 C 443.58 357.10 439.69 354.56 434.38 350.75 C 429.06 346.94 422.27 341.96 417.50 337.88 C 412.73 333.79 410.96 332.33 405.75 326.25 C 400.54 320.17 393.58 311.46 386.25 301.38 C 378.92 291.29 367.46 273.69 361.75 265.75 C 356.04 257.81 354.65 256.75 352.00 253.75 C 349.35 250.75 347.79 249.98 345.88 247.75 C 343.96 245.52 341.50 241.85 340.50 240.38 C 339.50 238.90 340.15 239.12 339.88 238.88 C 339.60 238.62 339.06 235.88 338.88 238.88 Z" id="s-10-f-0"/>
<clipPath id="c-s-10"><use href="#s-10-f-0"/></clipPath>
</defs>
<g id="s-0" clip-path="url(#c-s-0)">
<use href="#s-0-f-0"/>
<path d="M 221.88 91.00 C 221.50 90.19 221.60 90.21 220.62 89.12 C 219.65 88.04 218.88 86.88 216.00 84.50 C 213.12 82.12 206.50 77.08 203.38 74.88 C 200.25 72.67 199.33 72.23 197.25 71.25 C 195.17 70.27 192.67 69.38 190.88 69.00 C 189.08 68.62 188.21 68.33 186.50 69.00 C 184.79 69.67 182.96 70.85 180.62 73.00 C 178.29 75.15 175.69 78.60 172.50 81.88 C 169.31 85.15 165.75 88.81 161.50 92.62 C 157.25 96.44 151.52 101.10 147.00 104.75 C 142.48 108.40 139.19 111.00 134.38 114.50 C 129.56 118.00 123.69 122.04 118.12 125.75 C 112.56 129.46 106.17 133.58 101.00 136.75 C 95.83 139.92 90.58 142.88 87.12 144.75 C 83.67 146.62 81.48 147.19 80.25 148.00 C 79.02 148.81 79.81 147.60 79.75 149.62 C 79.69 151.65 79.73 158.29 79.88 160.12 C 80.02 161.96 78.79 160.90 80.62 160.62 C 82.46 160.35 85.81 159.98 90.88 158.50 C 95.94 157.02 104.83 154.06 111.00 151.75 C 117.17 149.44 123.94 146.42 127.88 144.62 C 131.81 142.83 127.15 144.58 134.62 141.00 C 142.10 137.42 163.00 127.46 172.75 123.12 C 182.50 118.79 188.25 116.85 193.12 115.00 C 198.00 113.15 199.15 112.85 202.00 112.00 C 204.85 111.15 207.77 110.90 210.25 109.88 C 212.73 108.85 215.10 107.23 216.88 105.88 C 218.65 104.52 219.90 103.15 220.88 101.75 C 221.85 100.35 222.42 98.79 222.75 97.50 C 223.08 96.21 223.02 95.08 222.88 94.00 C 222.73 92.92 222.25 91.81 221.88 91.00 Z" id="s-0-f-1"/>
<path d="M 221.75 90.75 C 220.62 89.31 219.06 87.15 216.00 84.50 C 212.94 81.85 206.23 76.94 203.38 74.88 C 200.52 72.81 200.96 73.10 198.88 72.12 C 196.79 71.15 192.81 69.54 190.88 69.00 C 188.94 68.46 188.25 68.73 187.25 68.88 C 186.25 69.02 185.98 69.19 184.88 69.88 C 183.77 70.56 182.69 71.00 180.62 73.00 C 178.56 75.00 175.69 78.60 172.50 81.88 C 169.31 85.15 165.75 88.81 161.50 92.62 C 157.25 96.44 152.60 100.33 147.00 104.75 C 141.40 109.17 131.06 112.60 127.88 119.12 C 124.69 125.65 127.73 139.71 127.88 143.88 C 128.02 148.04 123.42 146.60 128.75 144.12 C 134.08 141.65 151.75 132.83 159.88 129.00 C 168.00 125.17 171.96 123.46 177.50 121.12 C 183.04 118.79 189.04 116.52 193.12 115.00 C 197.21 113.48 199.52 112.73 202.00 112.00 C 204.48 111.27 206.29 111.15 208.00 110.62 C 209.71 110.10 210.46 109.94 212.25 108.88 C 214.04 107.81 217.19 105.65 218.75 104.25 C 220.31 102.85 220.94 101.85 221.62 100.50 C 222.31 99.15 222.69 97.35 222.88 96.12 C 223.06 94.90 222.94 94.02 222.75 93.12 C 222.56 92.23 222.88 92.19 221.75 90.75 Z" id="s-0-f-2"/>
<path d="M 220.62 89.12 C 219.50 87.69 218.65 86.71 216.00 84.50 C 213.35 82.29 208.21 78.23 204.75 75.88 C 201.29 73.52 197.56 71.52 195.25 70.38 C 192.94 69.23 192.21 69.25 190.88 69.00 C 189.54 68.75 188.25 68.73 187.25 68.88 C 186.25 69.02 185.83 69.31 184.88 69.88 C 183.92 70.44 182.98 70.88 181.50 72.25 C 180.02 73.62 176.96 77.00 176.00 78.12 C 175.04 79.25 175.79 71.79 175.75 79.00 C 175.71 86.21 175.60 114.25 175.75 121.38 C 175.90 128.50 173.73 122.81 176.62 121.75 C 179.52 120.69 188.90 116.62 193.12 115.00 C 197.35 113.38 199.15 112.85 202.00 112.00 C 204.85 111.15 208.00 110.73 210.25 109.88 C 212.50 109.02 213.92 107.98 215.50 106.88 C 217.08 105.77 218.56 104.71 219.75 103.25 C 220.94 101.79 222.12 99.81 222.62 98.12 C 223.12 96.44 223.08 94.62 222.75 93.12 C 222.42 91.62 221.75 90.56 220.62 89.12 Z" id="s-0-f-3"/>
</g>
<g id="s-1" clip-path="url(#c-s-1)">
<use href="#s-1-f-0"/>
<path d="M 180.00 196.50 C 179.60 192.79 179.58 195.75 177.62 196.12 C 175.67 196.50 170.27 198.27 168.25 198.75 C 166.23 199.23 169.62 198.15 165.50 199.00 C 161.38 199.85 148.27 202.75 143.50 203.88 C 138.73 205.00 146.73 203.62 136.88 205.75 C 127.02 207.88 99.73 213.62 84.38 216.62 C 69.02 219.62 52.38 222.48 44.75 223.75 C 37.12 225.02 40.08 223.90 38.62 224.25 C 37.17 224.60 36.44 225.12 36.00 225.88 C 35.56 226.62 35.69 227.71 36.00 228.75 C 36.31 229.79 37.10 231.10 37.88 232.12 C 38.65 233.15 39.00 233.58 40.62 234.88 C 42.25 236.17 43.79 238.08 47.62 239.88 C 51.46 241.67 60.02 244.48 63.62 245.62 C 67.23 246.77 67.12 246.58 69.25 246.75 C 71.38 246.92 73.54 247.15 76.38 246.62 C 79.21 246.10 83.21 244.67 86.25 243.62 C 89.29 242.58 86.65 242.79 94.62 240.38 C 102.60 237.96 120.00 232.69 134.12 229.12 C 148.25 225.56 171.73 220.79 179.38 219.00 C 187.02 217.21 179.90 222.12 180.00 218.38 C 180.10 214.62 180.40 200.21 180.00 196.50 Z" id="s-1-f-1"/>
<path d="M 132.00 207.25 C 131.77 204.56 134.56 206.12 130.62 206.88 C 126.69 207.62 119.75 209.44 108.38 211.75 C 97.00 214.06 72.98 218.75 62.38 220.75 C 51.77 222.75 48.71 223.17 44.75 223.75 C 40.79 224.33 40.08 223.90 38.62 224.25 C 37.17 224.60 36.44 225.12 36.00 225.88 C 35.56 226.62 35.69 227.71 36.00 228.75 C 36.31 229.79 37.10 231.10 37.88 232.12 C 38.65 233.15 39.00 233.58 40.62 234.88 C 42.25 236.17 43.79 238.08 47.62 239.88 C 51.46 241.67 60.02 244.48 63.62 245.62 C 67.23 246.77 67.12 246.58 69.25 246.75 C 71.38 246.92 73.54 247.15 76.38 246.62 C 79.21 246.10 83.21 244.67 86.25 243.62 C 89.29 242.58 87.08 242.67 94.62 240.38 C 102.17 238.08 125.27 232.77 131.50 229.88 C 137.73 226.98 131.92 226.77 132.00 223.00 C 132.08 219.23 132.23 209.94 132.00 207.25 Z" id="s-1-f-2"/>
<path d="M 83.88 243.75 C 84.00 239.46 84.06 223.38 84.00 218.88 C 83.94 214.38 90.04 215.94 83.50 216.75 C 76.96 217.56 52.02 222.54 44.75 223.75 C 37.48 224.96 41.17 223.79 39.88 224.00 C 38.58 224.21 37.65 224.69 37.00 225.00 C 36.35 225.31 36.17 225.25 36.00 225.88 C 35.83 226.50 35.83 227.92 36.00 228.75 C 36.17 229.58 36.23 229.85 37.00 230.88 C 37.77 231.90 38.90 233.40 40.62 234.88 C 42.35 236.35 44.96 238.42 47.38 239.75 C 49.79 241.08 52.42 241.90 55.12 242.88 C 57.83 243.85 60.98 244.96 63.62 245.62 C 66.27 246.29 68.88 246.71 71.00 246.88 C 73.12 247.04 74.33 247.00 76.38 246.62 C 78.42 246.25 82.00 245.10 83.25 244.62 C 84.50 244.15 83.75 248.04 83.88 243.75 Z" id="s-1-f-3"/>
</g>
<g id="s-2" clip-path="url(#c-s-2)">
<use href="#s-2-f-0"/>
<path d="M 158.38 129.62 C 156.46 129.06 156.50 129.83 154.75 130.62 C 153.00 131.42 151.02 132.88 147.88 134.38 C 144.73 135.88 138.04 138.60 135.88 139.62 C 133.71 140.65 134.38 137.92 134.88 140.50 C 135.38 143.08 138.06 151.46 138.88 155.12 C 139.69 158.79 139.44 157.44 139.75 162.50 C 140.06 167.56 140.56 178.50 140.75 185.50 C 140.94 192.50 140.92 201.21 140.88 204.50 C 140.83 207.79 140.67 201.48 140.50 205.25 C 140.33 209.02 139.90 223.27 139.88 227.12 C 139.85 230.98 140.40 218.06 140.38 228.38 C 140.35 238.69 140.17 270.88 139.75 289.00 C 139.33 307.12 138.52 325.02 137.88 337.12 C 137.23 349.23 136.90 352.44 135.88 361.62 C 134.85 370.81 133.23 384.58 131.75 392.25 C 130.27 399.92 127.77 404.35 127.00 407.62 C 126.23 410.90 126.96 410.31 127.12 411.88 C 127.29 413.44 127.73 416.00 128.00 417.00 C 128.27 418.00 122.31 417.77 128.75 417.88 C 135.19 417.98 160.15 418.52 166.62 417.62 C 173.10 416.73 167.46 416.79 167.62 412.50 C 167.79 408.21 168.06 399.44 167.62 391.88 C 167.19 384.31 165.60 374.40 165.00 367.12 C 164.40 359.85 164.17 356.25 164.00 348.25 C 163.83 340.25 163.79 337.69 164.00 319.12 C 164.21 300.56 164.94 253.02 165.25 236.88 C 165.56 220.73 165.56 225.40 165.88 222.25 C 166.19 219.10 166.90 220.19 167.12 218.00 C 167.35 215.81 167.08 211.12 167.25 209.12 C 167.42 207.12 168.00 208.31 168.12 206.00 C 168.25 203.69 167.69 200.85 168.00 195.25 C 168.31 189.65 169.33 178.10 170.00 172.38 C 170.67 166.65 171.08 164.40 172.00 160.88 C 172.92 157.35 174.85 153.71 175.50 151.25 C 176.15 148.79 176.00 147.60 175.88 146.12 C 175.75 144.65 175.54 143.73 174.75 142.38 C 173.96 141.02 172.54 139.40 171.12 138.00 C 169.71 136.60 168.38 135.40 166.25 134.00 C 164.12 132.60 160.29 130.19 158.38 129.62 Z" id="s-2-f-1"/>
<path d="M 158.38 129.62 C 156.46 129.06 156.50 129.83 154.75 130.62 C 153.00 131.42 151.02 132.88 147.88 134.38 C 144.73 135.88 138.04 138.60 135.88 139.62 C 133.71 140.65 134.40 138.06 134.88 140.50 C 135.35 142.94 137.94 150.58 138.75 154.25 C 139.56 157.92 139.40 154.98 139.75 162.50 C 140.10 170.02 140.88 189.12 140.88 199.38 C 140.88 209.62 139.92 219.38 139.75 224.00 C 139.58 228.62 139.77 226.40 139.88 227.12 C 139.98 227.85 140.40 218.06 140.38 228.38 C 140.35 238.69 140.17 270.88 139.75 289.00 C 139.33 307.12 138.38 326.40 137.88 337.12 C 137.38 347.85 137.23 348.29 136.75 353.38 C 136.27 358.46 135.21 364.85 135.00 367.62 C 134.79 370.40 130.54 369.62 135.50 370.00 C 140.46 370.38 159.79 370.00 164.75 369.88 C 169.71 369.75 165.38 372.85 165.25 369.25 C 165.12 365.65 164.21 356.60 164.00 348.25 C 163.79 339.90 163.88 329.08 164.00 319.12 C 164.12 309.17 164.58 300.56 164.75 288.50 C 164.92 276.44 164.81 257.79 165.00 246.75 C 165.19 235.71 165.52 227.04 165.88 222.25 C 166.23 217.46 166.90 220.19 167.12 218.00 C 167.35 215.81 167.08 211.12 167.25 209.12 C 167.42 207.12 168.00 208.31 168.12 206.00 C 168.25 203.69 167.69 200.85 168.00 195.25 C 168.31 189.65 169.33 178.10 170.00 172.38 C 170.67 166.65 171.08 164.40 172.00 160.88 C 172.92 157.35 174.85 153.71 175.50 151.25 C 176.15 148.79 176.00 147.60 175.88 146.12 C 175.75 144.65 175.40 143.60 174.75 142.38 C 174.10 141.15 173.42 140.15 172.00 138.75 C 170.58 137.35 168.52 135.52 166.25 134.00 C 163.98 132.48 160.29 130.19 158.38 129.62 Z" id="s-2-f-2"/>
<path d="M 158.38 129.62 C 156.42 129.02 156.50 129.83 154.75 130.62 C 153.00 131.42 151.02 132.88 147.88 134.38 C 144.73 135.88 138.04 138.60 135.88 139.62 C 133.71 140.65 134.38 137.92 134.88 140.50 C 135.38 143.08 138.06 151.46 138.88 155.12 C 139.69 158.79 139.44 157.44 139.75 162.50 C 140.06 167.56 140.56 178.50 140.75 185.50 C 140.94 192.50 140.92 201.21 140.88 204.50 C 140.83 207.79 140.67 201.48 140.50 205.25 C 140.33 209.02 139.90 223.27 139.88 227.12 C 139.85 230.98 140.40 218.06 140.38 228.38 C 140.35 238.69 140.02 273.98 139.75 289.00 C 139.48 304.02 138.85 313.02 138.75 318.50 C 138.65 323.98 136.21 321.29 139.12 321.88 C 142.04 322.46 152.15 322.04 156.25 322.00 C 160.35 321.96 162.46 321.77 163.75 321.62 C 165.04 321.48 163.79 329.67 164.00 321.12 C 164.21 312.58 164.83 282.77 165.00 270.38 C 165.17 257.98 164.85 254.77 165.00 246.75 C 165.15 238.73 165.52 227.04 165.88 222.25 C 166.23 217.46 166.90 220.19 167.12 218.00 C 167.35 215.81 167.08 211.12 167.25 209.12 C 167.42 207.12 168.00 208.31 168.12 206.00 C 168.25 203.69 167.69 200.85 168.00 195.25 C 168.31 189.65 169.33 178.10 170.00 172.38 C 170.67 166.65 171.08 164.40 172.00 160.88 C 172.92 157.35 174.85 153.71 175.50 151.25 C 176.15 148.79 176.00 147.60 175.88 146.12 C 175.75 144.65 175.40 143.60 174.75 142.38 C 174.10 141.15 173.38 140.10 172.00 138.75 C 170.62 137.40 168.77 135.77 166.50 134.25 C 164.23 132.73 160.33 130.23 158.38 129.62 Z" id="s-2-f-3"/>
<path d="M 158.38 129.62 C 156.35 128.98 156.50 129.83 154.75 130.62 C 153.00 131.42 151.02 132.88 147.88 134.38 C 144.73 135.88 138.04 138.60 135.88 139.62 C 133.71 140.65 134.40 138.06 134.88 140.50 C 135.35 142.94 137.94 150.58 138.75 154.25 C 139.56 157.92 139.48 159.10 139.75 162.50 C 140.02 165.90 140.19 167.62 140.38 174.62 C 140.56 181.62 140.85 199.40 140.88 204.50 C 140.90 209.60 140.67 201.48 140.50 205.25 C 140.33 209.02 139.90 223.27 139.88 227.12 C 139.85 230.98 140.40 220.67 140.38 228.38 C 140.35 236.08 139.79 265.79 139.75 273.38 C 139.71 280.96 136.02 273.77 140.12 273.88 C 144.23 273.98 160.25 274.06 164.38 274.00 C 168.50 273.94 164.73 279.69 164.88 273.50 C 165.02 267.31 165.08 245.42 165.25 236.88 C 165.42 228.33 165.56 225.40 165.88 222.25 C 166.19 219.10 166.90 220.19 167.12 218.00 C 167.35 215.81 167.08 211.12 167.25 209.12 C 167.42 207.12 167.98 208.65 168.12 206.00 C 168.27 203.35 167.65 200.02 168.12 193.25 C 168.60 186.48 170.19 171.31 171.00 165.38 C 171.81 159.44 172.25 159.98 173.00 157.62 C 173.75 155.27 175.02 153.17 175.50 151.25 C 175.98 149.33 176.00 147.60 175.88 146.12 C 175.75 144.65 175.40 143.60 174.75 142.38 C 174.10 141.15 173.31 140.06 172.00 138.75 C 170.69 137.44 169.15 136.02 166.88 134.50 C 164.60 132.98 160.40 130.27 158.38 129.62 Z" id="s-2-f-4"/>
<path d="M 158.38 129.62 C 156.42 129.02 156.85 129.67 154.75 130.62 C 152.65 131.58 148.90 133.88 145.75 135.38 C 142.60 136.88 137.69 138.75 135.88 139.62 C 134.06 140.50 134.40 138.19 134.88 140.62 C 135.35 143.06 137.94 150.60 138.75 154.25 C 139.56 157.90 139.40 154.98 139.75 162.50 C 140.10 170.02 140.88 188.96 140.88 199.38 C 140.88 209.79 139.73 220.52 139.75 225.00 C 139.77 229.48 136.88 226.12 141.00 226.25 C 145.12 226.38 160.35 225.92 164.50 225.75 C 168.65 225.58 165.65 225.83 165.88 225.25 C 166.10 224.67 165.67 223.46 165.88 222.25 C 166.08 221.04 166.90 219.96 167.12 218.00 C 167.35 216.04 167.08 212.50 167.25 210.50 C 167.42 208.50 168.00 208.54 168.12 206.00 C 168.25 203.46 167.69 200.85 168.00 195.25 C 168.31 189.65 169.33 178.10 170.00 172.38 C 170.67 166.65 171.08 164.38 172.00 160.88 C 172.92 157.38 174.85 153.83 175.50 151.38 C 176.15 148.92 176.00 147.62 175.88 146.12 C 175.75 144.62 175.40 143.60 174.75 142.38 C 174.10 141.15 173.38 140.10 172.00 138.75 C 170.62 137.40 168.77 135.77 166.50 134.25 C 164.23 132.73 160.33 130.23 158.38 129.62 Z" id="s-2-f-5"/>
<path d="M 159.38 129.88 C 157.77 129.06 158.02 129.50 157.25 129.62 C 156.48 129.75 156.67 129.67 154.75 130.62 C 152.83 131.58 148.90 133.88 145.75 135.38 C 142.60 136.88 137.69 138.75 135.88 139.62 C 134.06 140.50 134.40 138.19 134.88 140.62 C 135.35 143.06 137.94 150.60 138.75 154.25 C 139.56 157.90 139.48 158.65 139.75 162.50 C 140.02 166.35 140.17 174.81 140.38 177.38 C 140.58 179.94 136.54 177.77 141.00 177.88 C 145.46 177.98 162.35 178.06 167.12 178.00 C 171.90 177.94 169.08 178.90 169.62 177.50 C 170.17 176.10 170.00 172.31 170.38 169.62 C 170.75 166.94 171.00 164.52 171.88 161.38 C 172.75 158.23 174.98 153.52 175.62 150.75 C 176.27 147.98 175.90 146.15 175.75 144.75 C 175.60 143.35 175.38 143.38 174.75 142.38 C 174.12 141.38 173.31 140.06 172.00 138.75 C 170.69 137.44 168.98 135.98 166.88 134.50 C 164.77 133.02 160.98 130.69 159.38 129.88 Z" id="s-2-f-6"/>
</g>
<g id="s-3" clip-path="url(#c-s-3)">
<use href="#s-3-f-0"/>
<path d="M 140.75 205.50 C 140.69 205.17 141.06 205.88 140.88 206.00 C 140.69 206.12 140.06 204.92 139.62 206.25 C 139.19 207.58 138.58 212.62 138.25 214.00 C 137.92 215.38 137.77 213.94 137.62 214.50 C 137.48 215.06 137.54 216.71 137.38 217.38 C 137.21 218.04 136.81 217.77 136.62 218.50 C 136.44 219.23 136.42 221.08 136.25 221.75 C 136.08 222.42 135.79 221.79 135.62 222.50 C 135.46 223.21 135.42 225.33 135.25 226.00 C 135.08 226.67 134.73 225.90 134.62 226.50 C 134.52 227.10 134.77 228.48 134.62 229.62 C 134.48 230.77 134.25 231.71 133.75 233.38 C 133.25 235.04 132.48 237.46 131.62 239.62 C 130.77 241.79 130.94 241.75 128.62 246.38 C 126.31 251.00 121.23 260.88 117.75 267.38 C 114.27 273.88 110.92 279.88 107.75 285.38 C 104.58 290.88 101.75 295.60 98.75 300.38 C 95.75 305.15 93.46 308.83 89.75 314.00 C 86.04 319.17 80.35 326.52 76.50 331.38 C 72.65 336.23 69.08 340.33 66.62 343.12 C 64.17 345.92 62.54 347.21 61.75 348.12 C 60.96 349.04 56.71 348.50 61.88 348.62 C 67.04 348.75 85.25 351.35 92.75 348.88 C 100.25 346.40 103.12 338.12 106.88 333.75 C 110.62 329.38 111.79 327.58 115.25 322.62 C 118.71 317.67 123.69 310.48 127.62 304.00 C 131.56 297.52 136.81 287.31 138.88 283.75 C 140.94 280.19 139.62 288.29 140.00 282.62 C 140.38 276.96 140.92 262.19 141.12 249.75 C 141.33 237.31 141.31 215.38 141.25 208.00 C 141.19 200.62 140.81 205.83 140.75 205.50 Z" id="s-3-f-1"/>
<path d="M 140.75 205.50 C 140.69 205.17 141.06 205.88 140.88 206.00 C 140.69 206.12 140.06 204.92 139.62 206.25 C 139.19 207.58 138.58 212.62 138.25 214.00 C 137.92 215.38 137.77 213.94 137.62 214.50 C 137.48 215.06 137.54 216.71 137.38 217.38 C 137.21 218.04 136.81 217.77 136.62 218.50 C 136.44 219.23 136.42 221.08 136.25 221.75 C 136.08 222.42 135.79 221.79 135.62 222.50 C 135.46 223.21 135.42 225.33 135.25 226.00 C 135.08 226.67 134.73 225.90 134.62 226.50 C 134.52 227.10 134.77 228.48 134.62 229.62 C 134.48 230.77 134.27 231.65 133.75 233.38 C 133.23 235.10 133.83 234.96 131.50 240.00 C 129.17 245.04 123.71 256.06 119.75 263.62 C 115.79 271.19 111.21 279.38 107.75 285.38 C 104.29 291.38 100.50 297.08 99.00 299.62 C 97.50 302.17 98.73 300.42 98.75 300.62 C 98.77 300.83 94.04 300.85 99.12 300.88 C 104.21 300.90 123.46 302.00 129.25 300.75 C 135.04 299.50 132.27 296.21 133.88 293.38 C 135.48 290.54 137.85 285.54 138.88 283.75 C 139.90 281.96 139.62 288.29 140.00 282.62 C 140.38 276.96 140.92 262.19 141.12 249.75 C 141.33 237.31 141.31 215.38 141.25 208.00 C 141.19 200.62 140.81 205.83 140.75 205.50 Z" id="s-3-f-2"/>
<path d="M 141.00 206.00 C 140.79 198.35 139.90 205.81 139.62 206.38 C 139.35 206.94 139.54 208.69 139.38 209.38 C 139.21 210.06 138.81 209.73 138.62 210.50 C 138.44 211.27 138.42 213.33 138.25 214.00 C 138.08 214.67 137.77 213.94 137.62 214.50 C 137.48 215.06 137.54 216.71 137.38 217.38 C 137.21 218.04 136.81 217.77 136.62 218.50 C 136.44 219.23 136.42 221.08 136.25 221.75 C 136.08 222.42 135.79 221.79 135.62 222.50 C 135.46 223.21 135.42 225.33 135.25 226.00 C 135.08 226.67 134.73 225.90 134.62 226.50 C 134.52 227.10 134.94 227.96 134.62 229.62 C 134.31 231.29 133.58 234.06 132.75 236.50 C 131.92 238.94 130.85 241.62 129.62 244.25 C 128.40 246.88 126.02 250.81 125.38 252.25 C 124.73 253.69 123.46 252.75 125.75 252.88 C 128.04 253.00 136.69 253.00 139.12 253.00 C 141.56 253.00 140.08 253.00 140.38 252.88 C 140.67 252.75 140.77 260.06 140.88 252.25 C 140.98 244.44 141.21 213.65 141.00 206.00 Z" id="s-3-f-3"/>
</g>
<g id="s-4" clip-path="url(#c-s-4)">
<use href="#s-4-f-0"/>
<path d="M 164.50 258.25 C 164.42 260.48 163.83 268.17 164.75 271.25 C 165.67 274.33 167.67 273.90 170.00 276.75 C 172.33 279.60 176.50 285.23 178.75 288.38 C 181.00 291.52 180.48 291.81 183.50 295.62 C 186.52 299.44 193.35 307.44 196.88 311.25 C 200.40 315.06 202.62 316.94 204.62 318.50 C 206.62 320.06 207.58 320.27 208.88 320.62 C 210.17 320.98 211.69 321.06 212.38 320.62 C 213.06 320.19 212.92 324.56 213.00 318.00 C 213.08 311.44 214.00 288.29 212.88 281.25 C 211.75 274.21 209.15 277.79 206.25 275.75 C 203.35 273.71 201.90 271.96 195.50 269.00 C 189.10 266.04 172.92 259.85 167.88 258.00 C 162.83 256.15 165.81 257.83 165.25 257.88 C 164.69 257.92 164.58 256.02 164.50 258.25 Z" id="s-4-f-1"/>
</g>
<g id="s-5" clip-path="url(#c-s-5)">
<use href="#s-5-f-0"/>
<path d="M 284.25 110.00 C 281.75 108.46 277.58 106.44 274.50 105.12 C 271.42 103.81 268.08 102.65 265.75 102.12 C 263.42 101.60 261.67 101.75 260.50 102.00 C 259.33 102.25 259.19 103.00 258.75 103.62 C 258.31 104.25 258.40 101.12 257.88 105.75 C 257.35 110.38 256.65 124.15 255.62 131.38 C 254.60 138.60 252.92 144.73 251.75 149.12 C 250.58 153.52 249.83 154.75 248.62 157.75 C 247.42 160.75 246.48 162.90 244.50 167.12 C 242.52 171.35 239.31 178.12 236.75 183.12 C 234.19 188.12 230.38 194.69 229.12 197.12 C 227.88 199.56 225.69 197.62 229.25 197.75 C 232.81 197.88 245.90 199.29 250.50 197.88 C 255.10 196.46 254.50 192.73 256.88 189.25 C 259.25 185.77 262.38 180.98 264.75 177.00 C 267.12 173.02 266.29 173.31 271.12 165.38 C 275.96 157.44 289.81 135.79 293.75 129.38 C 297.69 122.96 294.56 128.12 294.75 126.88 C 294.94 125.62 295.02 123.12 294.88 121.88 C 294.73 120.62 294.77 120.62 293.88 119.38 C 292.98 118.12 291.10 115.94 289.50 114.38 C 287.90 112.81 286.75 111.54 284.25 110.00 Z" id="s-5-f-1"/>
<path d="M 260.50 102.00 C 259.33 102.48 258.81 99.98 258.00 104.88 C 257.19 109.77 256.65 123.94 255.62 131.38 C 254.60 138.81 252.19 146.40 251.88 149.50 C 251.56 152.60 249.00 149.94 253.75 150.00 C 258.50 150.06 275.79 150.02 280.38 149.88 C 284.96 149.73 279.02 152.54 281.25 149.12 C 283.48 145.71 291.50 133.08 293.75 129.38 C 296.00 125.67 294.58 128.25 294.75 126.88 C 294.92 125.50 294.90 122.38 294.75 121.12 C 294.60 119.88 294.52 120.27 293.88 119.38 C 293.23 118.48 292.73 117.46 290.88 115.75 C 289.02 114.04 286.38 111.23 282.75 109.12 C 279.12 107.02 272.08 104.31 269.12 103.12 C 266.17 101.94 266.44 102.19 265.00 102.00 C 263.56 101.81 261.67 101.52 260.50 102.00 Z" id="s-5-f-2"/>
</g>
<g id="s-6" clip-path="url(#c-s-6)">
<use href="#s-6-f-0"/>
<path d="M 359.88 146.00 C 359.77 142.40 361.88 145.02 359.38 145.62 C 356.88 146.23 351.12 148.25 344.88 149.62 C 338.62 151.00 329.79 152.21 321.88 153.88 C 313.96 155.54 305.71 157.98 297.38 159.62 C 289.04 161.27 276.50 162.60 271.88 163.75 C 267.25 164.90 270.04 165.85 269.62 166.50 C 269.21 167.15 270.38 165.81 269.38 167.62 C 268.38 169.44 264.27 175.54 263.62 177.38 C 262.98 179.21 264.69 178.27 265.50 178.62 C 266.31 178.98 266.88 179.17 268.50 179.50 C 270.12 179.83 271.06 180.44 275.25 180.62 C 279.44 180.81 283.81 181.60 293.62 180.62 C 303.44 179.65 323.27 176.58 334.12 174.75 C 344.98 172.92 354.46 170.60 358.75 169.62 C 363.04 168.65 359.67 169.27 359.88 168.88 C 360.08 168.48 360.00 171.06 360.00 167.25 C 360.00 163.44 359.98 149.60 359.88 146.00 Z" id="s-6-f-1"/>
<path d="M 311.88 157.00 C 311.67 153.58 314.19 156.00 310.75 156.62 C 307.31 157.25 297.73 159.56 291.25 160.75 C 284.77 161.94 275.48 162.79 271.88 163.75 C 268.27 164.71 270.04 165.85 269.62 166.50 C 269.21 167.15 270.38 165.81 269.38 167.62 C 268.38 169.44 264.27 175.54 263.62 177.38 C 262.98 179.21 264.58 178.25 265.50 178.62 C 266.42 179.00 267.50 179.29 269.12 179.62 C 270.75 179.96 273.17 180.42 275.25 180.62 C 277.33 180.83 278.56 180.88 281.62 180.88 C 284.69 180.88 288.67 181.08 293.62 180.62 C 298.58 180.17 308.31 178.71 311.38 178.12 C 314.44 177.54 311.92 180.65 312.00 177.12 C 312.08 173.60 312.08 160.42 311.88 157.00 Z" id="s-6-f-2"/>
</g>
<g id="s-7" clip-path="url(#c-s-7)">
<use href="#s-7-f-0"/>
<path d="M 444.88 225.38 C 443.46 222.54 440.12 221.54 436.50 220.00 C 432.88 218.46 426.60 216.79 423.12 216.12 C 419.65 215.46 429.35 213.73 415.62 216.00 C 401.90 218.27 353.75 227.44 340.75 229.75 C 327.75 232.06 341.02 229.33 337.62 229.88 C 334.23 230.42 323.73 232.33 320.38 233.00 C 317.02 233.67 329.42 232.06 317.50 233.88 C 305.58 235.69 266.52 241.35 248.88 243.88 C 231.23 246.40 218.77 247.77 211.62 249.00 C 204.48 250.23 207.08 250.69 206.00 251.25 C 204.92 251.81 205.29 251.90 205.12 252.38 C 204.96 252.85 204.56 253.38 205.00 254.12 C 205.44 254.88 206.79 256.12 207.75 256.88 C 208.71 257.62 208.17 257.48 210.75 258.62 C 213.33 259.77 219.65 262.56 223.25 263.75 C 226.85 264.94 229.44 265.44 232.38 265.75 C 235.31 266.06 237.58 265.98 240.88 265.62 C 244.17 265.27 244.88 265.21 252.12 263.62 C 259.38 262.04 274.73 258.23 284.38 256.12 C 294.02 254.02 303.60 252.04 310.00 251.00 C 316.40 249.96 315.62 250.71 322.75 249.88 C 329.88 249.04 341.08 247.31 352.75 246.00 C 364.42 244.69 377.50 243.23 392.75 242.00 C 408.00 240.77 435.54 239.46 444.25 238.62 C 452.96 237.79 444.90 239.21 445.00 237.00 C 445.10 234.79 446.29 228.21 444.88 225.38 Z" id="s-7-f-1"/>
<path d="M 397.00 221.50 C 396.88 218.10 405.62 218.25 396.25 219.62 C 386.88 221.00 350.52 228.04 340.75 229.75 C 330.98 231.46 341.02 229.33 337.62 229.88 C 334.23 230.42 323.73 232.33 320.38 233.00 C 317.02 233.67 329.42 232.06 317.50 233.88 C 305.58 235.69 265.75 241.50 248.88 243.88 C 232.00 246.25 222.46 247.27 216.25 248.12 C 210.04 248.98 213.33 248.48 211.62 249.00 C 209.92 249.52 207.08 250.69 206.00 251.25 C 204.92 251.81 205.29 251.90 205.12 252.38 C 204.96 252.85 204.42 253.27 205.00 254.12 C 205.58 254.98 205.71 255.94 208.62 257.50 C 211.54 259.06 218.73 262.15 222.50 263.50 C 226.27 264.85 228.71 265.23 231.25 265.62 C 233.79 266.02 234.27 266.21 237.75 265.88 C 241.23 265.54 244.35 265.25 252.12 263.62 C 259.90 262.00 274.73 258.23 284.38 256.12 C 294.02 254.02 303.60 252.04 310.00 251.00 C 316.40 249.96 315.62 250.71 322.75 249.88 C 329.88 249.04 340.42 247.40 352.75 246.00 C 365.08 244.60 389.38 242.50 396.75 241.50 C 404.12 240.50 396.96 243.33 397.00 240.00 C 397.04 236.67 397.12 224.90 397.00 221.50 Z" id="s-7-f-2"/>
<path d="M 348.88 228.62 C 348.71 225.85 349.35 227.94 348.00 228.12 C 346.65 228.31 342.48 229.46 340.75 229.75 C 339.02 230.04 341.02 229.33 337.62 229.88 C 334.23 230.42 323.73 232.33 320.38 233.00 C 317.02 233.67 334.85 231.35 317.50 233.88 C 300.15 236.40 233.90 245.60 216.25 248.12 C 198.60 250.65 213.33 248.48 211.62 249.00 C 209.92 249.52 207.08 250.69 206.00 251.25 C 204.92 251.81 205.29 251.90 205.12 252.38 C 204.96 252.85 204.42 253.27 205.00 254.12 C 205.58 254.98 205.65 255.92 208.62 257.50 C 211.60 259.08 219.10 262.27 222.88 263.62 C 226.65 264.98 228.77 265.25 231.25 265.62 C 233.73 266.00 234.38 266.19 237.75 265.88 C 241.12 265.56 243.73 265.38 251.50 263.75 C 259.27 262.12 274.62 258.25 284.38 256.12 C 294.12 254.00 305.06 251.88 310.00 251.00 C 314.94 250.12 307.65 251.58 314.00 250.88 C 320.35 250.17 342.31 247.54 348.12 246.75 C 353.94 245.96 348.73 246.46 348.88 246.12 C 349.02 245.79 349.00 247.67 349.00 244.75 C 349.00 241.83 349.04 231.40 348.88 228.62 Z" id="s-7-f-3"/>
<path d="M 300.88 236.88 C 300.77 234.12 314.88 234.25 300.12 236.25 C 285.38 238.25 228.06 246.38 212.38 248.88 C 196.69 251.38 207.21 250.67 206.00 251.25 C 204.79 251.83 205.29 251.90 205.12 252.38 C 204.96 252.85 204.56 253.38 205.00 254.12 C 205.44 254.88 206.75 256.10 207.75 256.88 C 208.75 257.65 207.85 257.44 211.00 258.75 C 214.15 260.06 223.08 263.58 226.62 264.75 C 230.17 265.92 230.38 265.56 232.25 265.75 C 234.12 265.94 235.46 266.06 237.88 265.88 C 240.29 265.69 236.27 266.81 246.75 264.62 C 257.23 262.44 291.73 257.38 300.75 252.75 C 309.77 248.12 300.98 239.62 300.88 236.88 Z" id="s-7-f-4"/>
<path d="M 252.88 243.62 C 252.71 240.56 258.75 242.25 252.00 243.12 C 245.25 244.00 220.04 247.52 212.38 248.88 C 204.71 250.23 207.21 250.67 206.00 251.25 C 204.79 251.83 205.29 251.90 205.12 252.38 C 204.96 252.85 204.56 253.38 205.00 254.12 C 205.44 254.88 206.75 256.10 207.75 256.88 C 208.75 257.65 207.85 257.44 211.00 258.75 C 214.15 260.06 223.10 263.58 226.62 264.75 C 230.15 265.92 230.27 265.56 232.12 265.75 C 233.98 265.94 234.52 266.21 237.75 265.88 C 240.98 265.54 248.98 264.25 251.50 263.75 C 254.02 263.25 252.62 263.25 252.88 262.88 C 253.12 262.50 253.00 264.71 253.00 261.50 C 253.00 258.29 253.04 246.69 252.88 243.62 Z" id="s-7-f-5"/>
</g>
<g id="s-8" clip-path="url(#c-s-8)">
<use href="#s-8-f-0"/>
<path d="M 311.38 38.00 C 309.90 38.17 309.25 38.50 308.38 39.00 C 307.50 39.50 306.69 40.27 306.12 41.00 C 305.56 41.73 305.21 42.48 305.00 43.38 C 304.79 44.27 304.71 45.21 304.88 46.38 C 305.04 47.54 305.06 48.08 306.00 50.38 C 306.94 52.67 309.21 56.25 310.50 60.12 C 311.79 64.00 312.71 67.79 313.75 73.62 C 314.79 79.46 316.06 89.04 316.75 95.12 C 317.44 101.21 317.56 103.94 317.88 110.12 C 318.19 116.31 318.50 116.33 318.62 132.25 C 318.75 148.17 318.75 188.85 318.62 205.62 C 318.50 222.40 318.21 226.81 317.88 232.88 C 317.54 238.94 316.83 237.75 316.62 242.00 C 316.42 246.25 316.94 248.67 316.62 258.38 C 316.31 268.08 315.52 288.98 314.75 300.25 C 313.98 311.52 313.04 314.58 312.00 326.00 C 310.96 337.42 309.42 359.29 308.50 368.75 C 307.58 378.21 307.42 377.79 306.50 382.75 C 305.58 387.71 303.88 394.10 303.00 398.50 C 302.12 402.90 301.58 405.52 301.25 409.12 C 300.92 412.73 300.96 418.02 301.00 420.12 C 301.04 422.23 301.00 421.44 301.50 421.75 C 302.00 422.06 298.06 421.96 304.00 422.00 C 309.94 422.04 331.46 423.08 337.12 422.00 C 342.79 420.92 337.71 432.77 338.00 415.50 C 338.29 398.23 338.50 346.52 338.88 318.38 C 339.25 290.23 340.06 261.81 340.25 246.62 C 340.44 231.44 339.56 239.44 340.00 227.25 C 340.44 215.06 342.21 183.56 342.88 173.50 C 343.54 163.44 343.81 171.12 344.00 166.88 C 344.19 162.62 343.88 152.58 344.00 148.00 C 344.12 143.42 344.58 143.15 344.75 139.38 C 344.92 135.60 344.44 132.52 345.00 125.38 C 345.56 118.23 347.29 103.23 348.12 96.50 C 348.96 89.77 349.08 89.21 350.00 85.00 C 350.92 80.79 352.98 74.48 353.62 71.25 C 354.27 68.02 354.04 67.31 353.88 65.62 C 353.71 63.94 353.15 62.38 352.62 61.12 C 352.10 59.88 351.71 59.31 350.75 58.12 C 349.79 56.94 348.60 55.52 346.88 54.00 C 345.15 52.48 344.27 51.31 340.38 49.00 C 336.48 46.69 327.35 41.96 323.50 40.12 C 319.65 38.29 319.27 38.35 317.25 38.00 C 315.23 37.65 312.85 37.83 311.38 38.00 Z" id="s-8-f-1"/>
<path d="M 311.38 38.00 C 309.90 38.17 309.25 38.50 308.38 39.00 C 307.50 39.50 306.69 40.27 306.12 41.00 C 305.56 41.73 305.21 42.48 305.00 43.38 C 304.79 44.27 304.71 45.21 304.88 46.38 C 305.04 47.54 305.06 48.08 306.00 50.38 C 306.94 52.67 309.21 56.25 310.50 60.12 C 311.79 64.00 312.71 67.79 313.75 73.62 C 314.79 79.46 316.06 89.04 316.75 95.12 C 317.44 101.21 317.56 103.94 317.88 110.12 C 318.19 116.31 318.48 118.31 318.62 132.25 C 318.77 146.19 318.88 176.98 318.75 193.75 C 318.62 210.52 318.21 225.29 317.88 232.88 C 317.54 240.46 316.96 235.00 316.75 239.25 C 316.54 243.50 316.96 248.19 316.62 258.38 C 316.29 268.56 315.52 289.10 314.75 300.38 C 313.98 311.65 312.83 316.67 312.00 326.00 C 311.17 335.33 310.42 348.56 309.75 356.38 C 309.08 364.19 308.02 370.04 308.00 372.88 C 307.98 375.71 308.12 373.21 309.62 373.38 C 311.12 373.54 312.29 373.79 317.00 373.88 C 321.71 373.96 334.29 373.96 337.88 373.88 C 341.46 373.79 338.33 382.62 338.50 373.38 C 338.67 364.12 338.58 339.50 338.88 318.38 C 339.17 297.25 340.06 261.81 340.25 246.62 C 340.44 231.44 339.56 239.44 340.00 227.25 C 340.44 215.06 342.21 183.56 342.88 173.50 C 343.54 163.44 343.81 171.12 344.00 166.88 C 344.19 162.62 343.88 152.56 344.00 148.00 C 344.12 143.44 344.60 142.98 344.75 139.50 C 344.90 136.02 344.31 134.29 344.88 127.12 C 345.44 119.96 347.27 103.52 348.12 96.50 C 348.98 89.48 349.08 89.21 350.00 85.00 C 350.92 80.79 352.98 74.48 353.62 71.25 C 354.27 68.02 354.04 67.31 353.88 65.62 C 353.71 63.94 353.15 62.38 352.62 61.12 C 352.10 59.88 351.71 59.31 350.75 58.12 C 349.79 56.94 348.60 55.52 346.88 54.00 C 345.15 52.48 344.27 51.31 340.38 49.00 C 336.48 46.69 327.35 41.96 323.50 40.12 C 319.65 38.29 319.27 38.35 317.25 38.00 C 315.23 37.65 312.85 37.83 311.38 38.00 Z" id="s-8-f-2"/>
<path d="M 311.38 38.00 C 309.90 38.17 309.29 38.44 308.38 39.00 C 307.46 39.56 306.44 40.65 305.88 41.38 C 305.31 42.10 305.17 42.54 305.00 43.38 C 304.83 44.21 304.71 45.21 304.88 46.38 C 305.04 47.54 305.06 48.08 306.00 50.38 C 306.94 52.67 309.21 56.25 310.50 60.12 C 311.79 64.00 312.88 69.15 313.75 73.62 C 314.62 78.10 315.06 80.92 315.75 87.00 C 316.44 93.08 317.35 99.42 317.88 110.12 C 318.40 120.83 318.77 143.65 318.88 151.25 C 318.98 158.85 318.54 146.69 318.50 155.75 C 318.46 164.81 318.73 192.77 318.62 205.62 C 318.52 218.48 318.19 227.27 317.88 232.88 C 317.56 238.48 316.96 235.00 316.75 239.25 C 316.54 243.50 316.96 248.19 316.62 258.38 C 316.29 268.56 315.50 289.21 314.75 300.38 C 314.00 311.54 312.48 321.12 312.12 325.38 C 311.77 329.62 312.27 325.77 312.62 325.88 C 312.98 325.98 309.92 326.00 314.25 326.00 C 318.58 326.00 334.29 339.10 338.62 325.88 C 342.96 312.65 340.02 263.06 340.25 246.62 C 340.48 230.19 339.56 239.44 340.00 227.25 C 340.44 215.06 342.21 183.56 342.88 173.50 C 343.54 163.44 343.81 171.12 344.00 166.88 C 344.19 162.62 343.88 152.56 344.00 148.00 C 344.12 143.44 344.60 142.98 344.75 139.50 C 344.90 136.02 344.33 134.15 344.88 127.12 C 345.42 120.10 347.15 104.40 348.00 97.38 C 348.85 90.35 349.06 89.35 350.00 85.00 C 350.94 80.65 353.00 74.71 353.62 71.25 C 354.25 67.79 353.92 65.94 353.75 64.25 C 353.58 62.56 353.12 62.15 352.62 61.12 C 352.12 60.10 351.71 59.31 350.75 58.12 C 349.79 56.94 348.60 55.52 346.88 54.00 C 345.15 52.48 344.27 51.31 340.38 49.00 C 336.48 46.69 327.35 41.96 323.50 40.12 C 319.65 38.29 319.27 38.35 317.25 38.00 C 315.23 37.65 312.85 37.83 311.38 38.00 Z" id="s-8-f-3"/>
<path d="M 311.38 38.00 C 309.90 38.17 309.29 38.44 308.38 39.00 C 307.46 39.56 306.44 40.65 305.88 41.38 C 305.31 42.10 305.17 42.54 305.00 43.38 C 304.83 44.21 304.71 45.21 304.88 46.38 C 305.04 47.54 305.02 47.96 306.00 50.38 C 306.98 52.79 309.62 57.83 310.75 60.88 C 311.88 63.92 311.90 64.10 312.75 68.62 C 313.60 73.15 315.02 81.10 315.88 88.00 C 316.73 94.90 317.38 99.46 317.88 110.00 C 318.38 120.54 318.77 143.62 318.88 151.25 C 318.98 158.88 318.54 146.69 318.50 155.75 C 318.46 164.81 318.73 192.77 318.62 205.62 C 318.52 218.48 318.21 226.81 317.88 232.88 C 317.54 238.94 316.81 238.46 316.62 242.00 C 316.44 245.54 316.90 248.21 316.75 254.12 C 316.60 260.04 315.65 273.52 315.75 277.50 C 315.85 281.48 313.46 277.94 317.38 278.00 C 321.29 278.06 335.52 278.06 339.25 277.88 C 342.98 277.69 339.58 282.08 339.75 276.88 C 339.92 271.67 340.21 254.90 340.25 246.62 C 340.29 238.35 339.56 239.44 340.00 227.25 C 340.44 215.06 342.21 183.56 342.88 173.50 C 343.54 163.44 343.81 171.12 344.00 166.88 C 344.19 162.62 343.88 152.56 344.00 148.00 C 344.12 143.44 344.60 142.98 344.75 139.50 C 344.90 136.02 344.33 134.15 344.88 127.12 C 345.42 120.10 347.15 104.40 348.00 97.38 C 348.85 90.35 349.06 89.35 350.00 85.00 C 350.94 80.65 353.00 74.71 353.62 71.25 C 354.25 67.79 353.92 65.94 353.75 64.25 C 353.58 62.56 353.12 62.15 352.62 61.12 C 352.12 60.10 351.71 59.31 350.75 58.12 C 349.79 56.94 348.60 55.52 346.88 54.00 C 345.15 52.48 344.27 51.31 340.38 49.00 C 336.48 46.69 327.35 41.96 323.50 40.12 C 319.65 38.29 319.27 38.35 317.25 38.00 C 315.23 37.65 312.85 37.83 311.38 38.00 Z" id="s-8-f-4"/>
<path d="M 311.38 38.00 C 309.90 38.17 309.29 38.44 308.38 39.00 C 307.46 39.56 306.44 40.65 305.88 41.38 C 305.31 42.10 305.17 42.54 305.00 43.38 C 304.83 44.21 304.71 45.21 304.88 46.38 C 305.04 47.54 305.04 48.02 306.00 50.38 C 306.96 52.73 309.50 57.46 310.62 60.50 C 311.75 63.54 311.90 64.21 312.75 68.62 C 313.60 73.04 314.94 80.85 315.75 87.00 C 316.56 93.15 317.10 94.79 317.62 105.50 C 318.15 116.21 318.73 142.88 318.88 151.25 C 319.02 159.62 318.54 146.62 318.50 155.75 C 318.46 164.88 318.73 193.73 318.62 206.00 C 318.52 218.27 317.77 225.38 317.88 229.38 C 317.98 233.38 315.71 229.88 319.25 230.00 C 322.79 230.12 335.71 230.15 339.12 230.12 C 342.54 230.10 339.12 239.31 339.75 229.88 C 340.38 220.44 342.17 184.00 342.88 173.50 C 343.58 163.00 343.81 171.12 344.00 166.88 C 344.19 162.62 343.88 152.56 344.00 148.00 C 344.12 143.44 344.58 143.27 344.75 139.50 C 344.92 135.73 344.44 132.54 345.00 125.38 C 345.56 118.21 347.29 103.23 348.12 96.50 C 348.96 89.77 349.08 89.21 350.00 85.00 C 350.92 80.79 353.00 74.71 353.62 71.25 C 354.25 67.79 353.92 65.94 353.75 64.25 C 353.58 62.56 353.12 62.15 352.62 61.12 C 352.12 60.10 351.71 59.31 350.75 58.12 C 349.79 56.94 348.60 55.52 346.88 54.00 C 345.15 52.48 344.27 51.31 340.38 49.00 C 336.48 46.69 327.35 41.96 323.50 40.12 C 319.65 38.29 319.27 38.35 317.25 38.00 C 315.23 37.65 312.85 37.83 311.38 38.00 Z" id="s-8-f-5"/>
<path d="M 310.62 38.12 C 309.15 38.29 309.17 38.46 308.38 39.00 C 307.58 39.54 306.44 40.65 305.88 41.38 C 305.31 42.10 305.17 42.54 305.00 43.38 C 304.83 44.21 304.67 45.10 304.88 46.38 C 305.08 47.65 305.42 48.98 306.25 51.00 C 307.08 53.02 308.96 56.25 309.88 58.50 C 310.79 60.75 311.10 61.98 311.75 64.50 C 312.40 67.02 312.92 68.52 313.75 73.62 C 314.58 78.73 316.06 89.06 316.75 95.12 C 317.44 101.19 317.56 103.81 317.88 110.00 C 318.19 116.19 318.46 124.83 318.62 132.25 C 318.79 139.67 318.90 150.58 318.88 154.50 C 318.85 158.42 318.56 152.08 318.50 155.75 C 318.44 159.42 318.33 172.12 318.50 176.50 C 318.67 180.88 315.56 181.10 319.50 182.00 C 323.44 182.90 338.27 182.12 342.12 181.88 C 345.98 181.62 342.50 181.94 342.62 180.50 C 342.75 179.06 342.65 175.52 342.88 173.25 C 343.10 170.98 343.81 171.08 344.00 166.88 C 344.19 162.67 343.88 152.54 344.00 148.00 C 344.12 143.46 344.60 143.10 344.75 139.62 C 344.90 136.15 344.33 134.17 344.88 127.12 C 345.42 120.08 347.15 104.40 348.00 97.38 C 348.85 90.35 349.04 89.48 350.00 85.00 C 350.96 80.52 353.12 73.96 353.75 70.50 C 354.38 67.04 354.08 66.08 353.75 64.25 C 353.42 62.42 352.52 60.83 351.75 59.50 C 350.98 58.17 351.02 58.00 349.12 56.25 C 347.23 54.50 343.31 51.04 340.38 49.00 C 337.44 46.96 334.77 45.65 331.50 44.00 C 328.23 42.35 323.12 40.12 320.75 39.12 C 318.38 38.12 318.94 38.17 317.25 38.00 C 315.56 37.83 312.10 37.96 310.62 38.12 Z" id="s-8-f-6"/>
<path d="M 310.25 38.25 C 309.02 38.44 309.10 38.48 308.38 39.00 C 307.65 39.52 306.44 40.65 305.88 41.38 C 305.31 42.10 305.17 42.54 305.00 43.38 C 304.83 44.21 304.71 45.21 304.88 46.38 C 305.04 47.54 305.02 47.96 306.00 50.38 C 306.98 52.79 309.46 57.00 310.75 60.88 C 312.04 64.75 312.75 67.92 313.75 73.62 C 314.75 79.33 316.10 89.81 316.75 95.12 C 317.40 100.44 317.29 99.08 317.62 105.50 C 317.96 111.92 318.25 128.88 318.75 133.62 C 319.25 138.38 316.35 133.96 320.62 134.00 C 324.90 134.04 339.81 139.98 344.38 133.88 C 348.94 127.77 347.06 105.52 348.00 97.38 C 348.94 89.23 349.06 89.35 350.00 85.00 C 350.94 80.65 353.02 74.79 353.62 71.25 C 354.23 67.71 353.94 65.71 353.62 63.75 C 353.31 61.79 352.50 60.75 351.75 59.50 C 351.00 58.25 351.02 58.00 349.12 56.25 C 347.23 54.50 343.31 51.04 340.38 49.00 C 337.44 46.96 334.77 45.65 331.50 44.00 C 328.23 42.35 323.38 40.15 320.75 39.12 C 318.12 38.10 317.50 38.02 315.75 37.88 C 314.00 37.73 311.48 38.06 310.25 38.25 Z" id="s-8-f-7"/>
<path d="M 307.38 39.75 C 306.46 40.54 305.52 41.62 305.12 42.88 C 304.73 44.12 304.85 46.00 305.00 47.25 C 305.15 48.50 305.19 48.50 306.00 50.38 C 306.81 52.25 308.92 56.15 309.88 58.50 C 310.83 60.85 311.10 61.98 311.75 64.50 C 312.40 67.02 313.17 70.17 313.75 73.62 C 314.33 77.08 314.90 83.21 315.25 85.25 C 315.60 87.29 310.12 85.79 315.88 85.88 C 321.62 85.96 343.46 88.19 349.75 85.75 C 356.04 83.31 352.94 74.06 353.62 71.25 C 354.31 68.44 353.88 70.12 353.88 68.88 C 353.88 67.62 353.98 65.31 353.62 63.75 C 353.27 62.19 352.88 61.12 351.75 59.50 C 350.62 57.88 348.77 55.75 346.88 54.00 C 344.98 52.25 342.94 50.67 340.38 49.00 C 337.81 47.33 334.38 45.50 331.50 44.00 C 328.62 42.50 325.75 41.02 323.12 40.00 C 320.50 38.98 317.83 38.19 315.75 37.88 C 313.67 37.56 312.02 37.81 310.62 38.12 C 309.23 38.44 308.29 38.96 307.38 39.75 Z" id="s-8-f-8"/>
</g>
<g id="s-9" clip-path="url(#c-s-9)">
<use href="#s-9-f-0"/>
<path d="M 317.38 234.38 C 316.98 234.23 315.96 236.50 315.62 237.25 C 315.29 238.00 315.54 238.48 315.38 238.88 C 315.21 239.27 314.77 239.21 314.62 239.62 C 314.48 240.04 314.67 240.92 314.50 241.38 C 314.33 241.83 313.98 241.54 313.62 242.38 C 313.27 243.21 312.69 245.65 312.38 246.38 C 312.06 247.10 311.90 246.42 311.75 246.75 C 311.60 247.08 311.69 247.94 311.50 248.38 C 311.31 248.81 310.77 248.81 310.62 249.38 C 310.48 249.94 310.77 250.83 310.62 251.75 C 310.48 252.67 310.73 252.31 309.75 254.88 C 308.77 257.44 307.75 261.38 304.75 267.12 C 301.75 272.88 296.29 282.00 291.75 289.38 C 287.21 296.75 281.71 305.21 277.50 311.38 C 273.29 317.54 270.50 321.40 266.50 326.38 C 262.50 331.35 258.46 335.94 253.50 341.25 C 248.54 346.56 243.00 352.29 236.75 358.25 C 230.50 364.21 219.46 373.73 216.00 377.00 C 212.54 380.27 212.69 377.75 216.00 377.88 C 219.31 378.00 231.60 378.27 235.88 377.75 C 240.15 377.23 239.00 376.29 241.62 374.75 C 244.25 373.21 248.17 370.85 251.62 368.50 C 255.08 366.15 258.00 364.23 262.38 360.62 C 266.75 357.02 273.27 351.31 277.88 346.88 C 282.48 342.44 285.67 339.10 290.00 334.00 C 294.33 328.90 299.67 322.08 303.88 316.25 C 308.08 310.42 313.23 303.10 315.25 299.00 C 317.27 294.90 315.81 295.75 316.00 291.62 C 316.19 287.50 316.21 277.92 316.38 274.25 C 316.54 270.58 316.83 273.46 317.00 269.62 C 317.17 265.79 317.19 255.06 317.38 251.25 C 317.56 247.44 318.02 248.94 318.12 246.75 C 318.23 244.56 318.12 240.19 318.00 238.12 C 317.88 236.06 317.77 234.52 317.38 234.38 Z" id="s-9-f-1"/>
<path d="M 317.38 234.38 C 316.98 234.23 315.96 236.50 315.62 237.25 C 315.29 238.00 315.54 238.48 315.38 238.88 C 315.21 239.27 314.77 239.21 314.62 239.62 C 314.48 240.04 314.67 240.92 314.50 241.38 C 314.33 241.83 313.98 241.54 313.62 242.38 C 313.27 243.21 312.69 245.65 312.38 246.38 C 312.06 247.10 311.90 246.42 311.75 246.75 C 311.60 247.08 311.69 247.94 311.50 248.38 C 311.31 248.81 310.77 248.81 310.62 249.38 C 310.48 249.94 310.77 250.83 310.62 251.75 C 310.48 252.67 310.73 252.31 309.75 254.88 C 308.77 257.44 307.25 262.19 304.75 267.12 C 302.25 272.06 298.06 278.96 294.75 284.50 C 291.44 290.04 287.85 295.75 284.88 300.38 C 281.90 305.00 280.38 307.44 276.88 312.25 C 273.38 317.06 266.02 326.33 263.88 329.25 C 261.73 332.17 259.48 329.62 264.00 329.75 C 268.52 329.88 286.10 330.02 291.00 330.00 C 295.90 329.98 291.23 331.92 293.38 329.62 C 295.52 327.33 300.58 320.92 303.88 316.25 C 307.17 311.58 311.25 304.44 313.12 301.62 C 315.00 298.81 314.65 301.04 315.12 299.38 C 315.60 297.71 315.62 299.65 316.00 291.62 C 316.38 283.60 317.02 258.73 317.38 251.25 C 317.73 243.77 318.02 248.94 318.12 246.75 C 318.23 244.56 318.12 240.19 318.00 238.12 C 317.88 236.06 317.77 234.52 317.38 234.38 Z" id="s-9-f-2"/>
<path d="M 317.38 234.38 C 316.98 234.23 315.96 236.50 315.62 237.25 C 315.29 238.00 315.54 238.48 315.38 238.88 C 315.21 239.27 314.77 239.21 314.62 239.62 C 314.48 240.04 314.67 240.92 314.50 241.38 C 314.33 241.83 313.98 241.54 313.62 242.38 C 313.27 243.21 312.69 245.65 312.38 246.38 C 312.06 247.10 311.90 246.42 311.75 246.75 C 311.60 247.08 311.69 247.94 311.50 248.38 C 311.31 248.81 310.77 248.81 310.62 249.38 C 310.48 249.94 311.27 249.52 310.62 251.75 C 309.98 253.98 307.73 260.19 306.75 262.75 C 305.77 265.31 306.46 264.04 304.75 267.12 C 303.04 270.21 297.81 278.79 296.50 281.25 C 295.19 283.71 293.81 281.75 296.88 281.88 C 299.94 282.00 311.65 282.06 314.88 282.00 C 318.10 281.94 315.83 286.62 316.25 281.50 C 316.67 276.38 317.06 257.04 317.38 251.25 C 317.69 245.46 318.02 248.94 318.12 246.75 C 318.23 244.56 318.12 240.19 318.00 238.12 C 317.88 236.06 317.77 234.52 317.38 234.38 Z" id="s-9-f-3"/>
</g>
<g id="s-10" clip-path="url(#c-s-10)">
<use href="#s-10-f-0"/>
<path d="M 338.88 238.88 C 338.69 241.88 338.67 253.75 338.75 256.88 C 338.83 260.00 339.35 257.42 339.38 257.62 C 339.40 257.83 338.83 257.02 338.88 258.12 C 338.92 259.23 339.33 263.10 339.62 264.25 C 339.92 265.40 339.44 263.42 340.62 265.00 C 341.81 266.58 344.06 269.62 346.75 273.75 C 349.44 277.88 350.38 278.48 356.75 289.75 C 363.12 301.02 376.96 327.12 385.00 341.38 C 393.04 355.62 401.02 368.62 405.00 375.25 C 408.98 381.88 407.56 379.33 408.88 381.12 C 410.19 382.92 411.19 384.40 412.88 386.00 C 414.56 387.60 417.00 389.60 419.00 390.75 C 421.00 391.90 422.88 392.54 424.88 392.88 C 426.88 393.21 429.38 392.92 431.00 392.75 C 432.62 392.58 433.98 398.81 434.62 391.88 C 435.27 384.94 437.73 360.12 434.88 351.12 C 432.02 342.12 421.52 341.15 417.50 337.88 C 413.48 334.60 413.12 333.92 410.75 331.50 C 408.38 329.08 407.33 328.40 403.25 323.38 C 399.17 318.35 393.17 310.98 386.25 301.38 C 379.33 291.77 367.46 273.69 361.75 265.75 C 356.04 257.81 354.65 256.75 352.00 253.75 C 349.35 250.75 347.79 249.98 345.88 247.75 C 343.96 245.52 341.50 241.85 340.50 240.38 C 339.50 238.90 340.15 239.12 339.88 238.88 C 339.60 238.62 339.06 235.88 338.88 238.88 Z" id="s-10-f-1"/>
<path d="M 339.12 238.75 C 338.92 238.94 338.69 236.98 338.62 240.00 C 338.56 243.02 338.62 253.94 338.75 256.88 C 338.88 259.81 339.35 257.42 339.38 257.62 C 339.40 257.83 338.83 257.02 338.88 258.12 C 338.92 259.23 339.33 263.10 339.62 264.25 C 339.92 265.40 339.44 263.42 340.62 265.00 C 341.81 266.58 344.06 269.62 346.75 273.75 C 349.44 277.88 350.21 278.19 356.75 289.75 C 363.29 301.31 381.02 334.19 386.00 343.12 C 390.98 352.06 386.46 343.77 386.62 343.38 C 386.79 342.98 386.96 347.62 387.00 340.75 C 387.04 333.88 388.71 311.08 386.88 302.12 C 385.04 293.17 380.19 293.06 376.00 287.00 C 371.81 280.94 365.75 271.29 361.75 265.75 C 357.75 260.21 354.65 256.75 352.00 253.75 C 349.35 250.75 347.79 249.98 345.88 247.75 C 343.96 245.52 341.50 241.85 340.50 240.38 C 339.50 238.90 340.10 239.15 339.88 238.88 C 339.65 238.60 339.33 238.56 339.12 238.75 Z" id="s-10-f-2"/>
</g>
</svg>