<?xml version="1.0" encoding="UTF-8"?>
<svg xmlns="http://www.w3.org/2000/svg" viewBox="0 0 500 500">
<defs>
<path d="M 162.50 62.12 C 160.02 60.46 158.50 59.85 156.50 59.00 C 154.50 58.15 152.27 57.33 150.50 57.00 C 148.73 56.67 147.10 56.67 145.88 57.00 C 144.65 57.33 143.77 58.23 143.12 59.00 C 142.48 59.77 142.25 59.52 142.00 61.62 C 141.75 63.73 142.00 67.75 141.62 71.62 C 141.25 75.50 140.44 81.12 139.75 84.88 C 139.06 88.62 138.33 91.17 137.50 94.12 C 136.67 97.08 135.75 99.81 134.75 102.62 C 133.75 105.44 133.17 107.19 131.50 111.00 C 129.83 114.81 127.88 119.25 124.75 125.50 C 121.62 131.75 117.06 140.85 112.75 148.50 C 108.44 156.15 102.88 165.08 98.88 171.38 C 94.88 177.67 93.69 179.48 88.75 186.25 C 83.81 193.02 76.27 203.15 69.25 212.00 C 62.23 220.85 51.73 233.29 46.62 239.38 C 41.52 245.46 43.23 243.54 38.62 248.50 C 34.02 253.46 22.25 265.58 19.00 269.12 C 15.75 272.67 18.25 269.69 19.12 269.75 C 20.00 269.81 22.27 270.00 24.25 269.50 C 26.23 269.00 28.65 267.88 31.00 266.75 C 33.35 265.62 35.27 264.62 38.38 262.75 C 41.48 260.88 45.81 258.21 49.62 255.50 C 53.44 252.79 57.44 249.62 61.25 246.50 C 65.06 243.38 68.79 240.21 72.50 236.75 C 76.21 233.29 78.15 231.56 83.50 225.75 C 88.85 219.94 98.90 208.69 104.62 201.88 C 110.35 195.06 113.83 190.29 117.88 184.88 C 121.92 179.46 123.73 177.10 128.88 169.38 C 134.02 161.65 143.10 147.65 148.75 138.50 C 154.40 129.35 159.54 120.15 162.75 114.50 C 165.96 108.85 166.46 107.27 168.00 104.62 C 169.54 101.98 170.19 101.00 172.00 98.62 C 173.81 96.25 177.42 92.33 178.88 90.38 C 180.33 88.42 180.46 88.27 180.75 86.88 C 181.04 85.48 181.00 83.62 180.62 82.00 C 180.25 80.38 179.15 78.35 178.50 77.12 C 177.85 75.90 177.94 75.98 176.75 74.62 C 175.56 73.27 173.75 71.08 171.38 69.00 C 169.00 66.92 164.98 63.79 162.50 62.12 Z" id="s-0-f-0"/>
<clipPath id="c-s-0"><use href="#s-0-f-0"/></clipPath>
<path d="M 106.12 198.50 C 105.40 198.46 107.08 198.04 105.00 200.50 C 102.92 202.96 95.19 209.31 93.62 213.25 C 92.06 217.19 95.10 220.33 95.62 224.12 C 96.15 227.92 96.60 226.69 96.75 236.00 C 96.90 245.31 96.85 264.60 96.50 280.00 C 96.15 295.40 95.25 316.75 94.62 328.38 C 94.00 340.00 93.42 343.58 92.75 349.75 C 92.08 355.92 92.25 357.40 90.62 365.38 C 89.00 373.35 84.25 391.38 83.00 397.62 C 81.75 403.88 82.79 400.90 83.12 402.88 C 83.46 404.85 83.33 405.17 85.00 409.50 C 86.67 413.83 91.31 424.73 93.12 428.88 C 94.94 433.02 94.94 432.79 95.88 434.38 C 96.81 435.96 97.83 437.29 98.75 438.38 C 99.67 439.46 100.50 440.29 101.38 440.88 C 102.25 441.46 103.21 441.73 104.00 441.88 C 104.79 442.02 105.21 442.38 106.12 441.75 C 107.04 441.12 108.73 439.12 109.50 438.12 C 110.27 437.12 109.71 438.42 110.75 435.75 C 111.79 433.08 114.44 426.40 115.75 422.12 C 117.06 417.85 118.08 430.29 118.62 410.12 C 119.17 389.96 118.79 325.23 119.00 301.12 C 119.21 277.02 119.52 274.69 119.88 265.50 C 120.23 256.31 120.77 250.35 121.12 246.00 C 121.48 241.65 121.38 242.67 122.00 239.38 C 122.62 236.08 124.42 229.00 124.88 226.25 C 125.33 223.50 124.94 223.88 124.75 222.88 C 124.56 221.88 124.58 221.77 123.75 220.25 C 122.92 218.73 122.15 217.00 119.75 213.75 C 117.35 210.50 111.65 203.29 109.38 200.75 C 107.10 198.21 106.85 198.54 106.12 198.50 Z" id="s-1-f-0"/>
<clipPath id="c-s-1"><use href="#s-1-f-0"/></clipPath>
<path d="M 222.62 124.00 C 220.67 124.15 220.79 124.52 220.00 125.00 C 219.21 125.48 218.54 125.94 217.88 126.88 C 217.21 127.81 216.33 129.48 216.00 130.62 C 215.67 131.77 215.73 132.77 215.88 133.75 C 216.02 134.73 215.94 134.81 216.88 136.50 C 217.81 138.19 220.40 141.71 221.50 143.88 C 222.60 146.04 222.79 146.02 223.50 149.50 C 224.21 152.98 225.19 160.19 225.75 164.75 C 226.31 169.31 226.54 172.29 226.88 176.88 C 227.21 181.46 227.38 167.94 227.75 192.25 C 228.12 216.56 228.77 295.00 229.12 322.75 C 229.48 350.50 229.67 352.56 229.88 358.75 C 230.08 364.94 226.62 361.12 230.38 359.88 C 234.12 358.62 248.65 352.81 252.38 351.25 C 256.10 349.69 252.35 364.35 252.75 350.50 C 253.15 336.65 254.35 292.96 254.75 268.12 C 255.15 243.29 254.42 217.67 255.12 201.50 C 255.83 185.33 258.02 178.15 259.00 171.12 C 259.98 164.10 260.50 161.94 261.00 159.38 C 261.50 156.81 261.04 157.71 262.00 155.75 C 262.96 153.79 265.94 149.33 266.75 147.62 C 267.56 145.92 267.04 146.52 266.88 145.50 C 266.71 144.48 266.29 142.69 265.75 141.50 C 265.21 140.31 264.44 139.31 263.62 138.38 C 262.81 137.44 262.06 136.77 260.88 135.88 C 259.69 134.98 258.62 134.15 256.50 133.00 C 254.38 131.85 250.83 130.15 248.12 129.00 C 245.42 127.85 242.98 126.94 240.25 126.12 C 237.52 125.31 234.69 124.48 231.75 124.12 C 228.81 123.77 224.58 123.85 222.62 124.00 Z" id="s-2-f-0"/>
<clipPath id="c-s-2"><use href="#s-2-f-0"/></clipPath>
<path d="M 309.88 244.00 C 309.69 243.25 309.27 242.25 308.62 241.38 C 307.98 240.50 307.85 240.15 306.00 238.75 C 304.15 237.35 301.00 234.60 297.50 233.00 C 294.00 231.40 287.67 229.79 285.00 229.12 C 282.33 228.46 286.54 227.38 281.50 229.00 C 276.46 230.62 259.25 234.96 254.75 238.88 C 250.25 242.79 254.06 250.04 254.50 252.50 C 254.94 254.96 255.92 253.27 257.38 253.62 C 258.83 253.98 260.35 254.44 263.25 254.62 C 266.15 254.81 271.88 255.02 274.75 254.75 C 277.62 254.48 275.73 253.85 280.50 253.00 C 285.27 252.15 299.12 250.33 303.38 249.62 C 307.62 248.92 305.12 249.17 306.00 248.75 C 306.88 248.33 308.00 247.60 308.62 247.12 C 309.25 246.65 309.54 246.40 309.75 245.88 C 309.96 245.35 310.06 244.75 309.88 244.00 Z" id="s-3-f-0"/>
<clipPath id="c-s-3"><use href="#s-3-f-0"/></clipPath>
<path d="M 165.88 228.88 C 164.54 229.00 163.69 229.31 162.88 229.75 C 162.06 230.19 161.48 230.83 161.00 231.50 C 160.52 232.17 160.15 232.52 160.00 233.75 C 159.85 234.98 159.48 236.62 160.12 238.88 C 160.77 241.12 162.92 244.50 163.88 247.25 C 164.83 250.00 164.50 234.67 165.88 255.38 C 167.25 276.08 170.96 350.67 172.12 371.50 C 173.29 392.33 172.60 378.81 172.88 380.38 C 173.15 381.94 170.52 381.90 173.75 380.88 C 176.98 379.85 189.08 375.50 192.25 374.25 C 195.42 373.00 192.60 392.75 192.75 373.38 C 192.90 354.00 192.94 278.46 193.12 258.00 C 193.31 237.54 193.60 252.38 193.88 250.62 C 194.15 248.88 194.58 248.94 194.75 247.50 C 194.92 246.06 194.92 243.19 194.88 242.00 C 194.83 240.81 194.85 241.04 194.50 240.38 C 194.15 239.71 193.92 239.06 192.75 238.00 C 191.58 236.94 190.27 235.33 187.50 234.00 C 184.73 232.67 178.90 230.83 176.12 230.00 C 173.35 229.17 172.58 229.19 170.88 229.00 C 169.17 228.81 167.21 228.75 165.88 228.88 Z" id="s-4-f-0"/>
<clipPath id="c-s-4"><use href="#s-4-f-0"/></clipPath>
<path d="M 303.75 335.12 C 303.40 334.27 302.46 333.35 301.50 333.00 C 300.54 332.65 301.15 332.17 298.00 333.00 C 294.85 333.83 289.96 335.10 282.62 338.00 C 275.29 340.90 259.17 348.27 254.00 350.38 C 248.83 352.48 253.88 349.79 251.62 350.62 C 249.38 351.46 243.50 354.21 240.50 355.38 C 237.50 356.54 234.92 357.12 233.62 357.62 C 232.33 358.12 233.12 358.23 232.75 358.38 C 232.38 358.52 231.81 358.29 231.38 358.50 C 230.94 358.71 236.42 357.10 230.12 359.62 C 223.83 362.15 200.04 371.31 193.62 373.62 C 187.21 375.94 192.62 373.21 191.62 373.50 C 190.62 373.79 188.60 375.02 187.62 375.38 C 186.65 375.73 186.25 375.46 185.75 375.62 C 185.25 375.79 186.06 375.88 184.62 376.38 C 183.19 376.88 178.54 378.12 177.12 378.62 C 175.71 379.12 176.62 379.21 176.12 379.38 C 175.62 379.54 174.62 379.42 174.12 379.62 C 173.62 379.83 176.54 379.27 173.12 380.62 C 169.71 381.98 158.08 386.25 153.62 387.75 C 149.17 389.25 149.40 389.08 146.38 389.62 C 143.35 390.17 137.58 390.50 135.50 391.00 C 133.42 391.50 134.12 391.94 133.88 392.62 C 133.62 393.31 133.65 394.04 134.00 395.12 C 134.35 396.21 134.85 397.46 136.00 399.12 C 137.15 400.79 139.48 403.56 140.88 405.12 C 142.27 406.69 142.81 407.23 144.38 408.50 C 145.94 409.77 148.10 411.38 150.25 412.75 C 152.40 414.12 155.29 415.75 157.25 416.75 C 159.21 417.75 160.60 418.25 162.00 418.75 C 163.40 419.25 164.06 419.62 165.62 419.75 C 167.19 419.88 164.69 423.12 171.38 419.50 C 178.06 415.88 194.94 404.46 205.75 398.00 C 216.56 391.54 223.21 388.46 236.25 380.75 C 249.29 373.04 273.10 358.52 284.00 351.75 C 294.90 344.98 298.35 342.40 301.62 340.12 C 304.90 337.85 303.27 338.96 303.62 338.12 C 303.98 337.29 304.10 335.98 303.75 335.12 Z" id="s-5-f-0"/>
<clipPath id="c-s-5"><use href="#s-5-f-0"/></clipPath>
<path d="M 449.88 220.88 C 449.52 220.15 449.65 220.06 448.75 219.12 C 447.85 218.19 445.79 216.27 444.50 215.25 C 443.21 214.23 442.58 213.85 441.00 213.00 C 439.42 212.15 439.42 211.62 435.00 210.12 C 430.58 208.62 418.94 205.02 414.50 204.00 C 410.06 202.98 409.71 203.88 408.38 204.00 C 407.04 204.12 406.92 204.48 406.50 204.75 C 406.08 205.02 406.02 204.79 405.88 205.62 C 405.73 206.46 405.96 208.19 405.62 209.75 C 405.29 211.31 405.42 212.54 403.88 215.00 C 402.33 217.46 399.02 221.48 396.38 224.50 C 393.73 227.52 391.17 230.12 388.00 233.12 C 384.83 236.12 382.00 238.73 377.38 242.50 C 372.75 246.27 365.69 251.81 360.25 255.75 C 354.81 259.69 347.50 262.85 344.75 266.12 C 342.00 269.40 343.69 273.77 343.75 275.38 C 343.81 276.98 344.17 275.88 345.12 275.75 C 346.08 275.62 346.35 275.62 349.50 274.62 C 352.65 273.62 357.96 272.06 364.00 269.75 C 370.04 267.44 379.67 263.42 385.75 260.75 C 391.83 258.08 393.50 257.52 400.50 253.75 C 407.50 249.98 421.88 241.40 427.75 238.12 C 433.62 234.85 432.33 235.67 435.75 234.12 C 439.17 232.58 445.75 230.19 448.25 228.88 C 450.75 227.56 450.31 227.15 450.75 226.25 C 451.19 225.35 451.02 224.40 450.88 223.50 C 450.73 222.60 450.23 221.60 449.88 220.88 Z" id="s-6-f-0"/>
<clipPath id="c-s-6"><use href="#s-6-f-0"/></clipPath>
<path d="M 315.75 89.88 C 315.04 90.33 314.29 90.83 314.00 91.75 C 313.71 92.67 313.21 92.35 314.00 95.38 C 314.79 98.40 317.60 105.54 318.75 109.88 C 319.90 114.21 320.38 117.04 320.88 121.38 C 321.38 125.71 321.62 122.23 321.75 135.88 C 321.88 149.52 321.92 176.90 321.62 203.25 C 321.33 229.60 320.27 270.17 320.00 294.00 C 319.73 317.83 319.65 334.48 320.00 346.25 C 320.35 358.02 321.44 360.12 322.12 364.62 C 322.81 369.12 323.29 370.29 324.12 373.25 C 324.96 376.21 325.98 379.52 327.12 382.38 C 328.27 385.23 329.75 388.10 331.00 390.38 C 332.25 392.65 333.17 394.10 334.62 396.00 C 336.08 397.90 338.25 400.27 339.75 401.75 C 341.25 403.23 341.96 403.73 343.62 404.88 C 345.29 406.02 347.62 407.52 349.75 408.62 C 351.88 409.73 354.19 410.67 356.38 411.50 C 358.56 412.33 360.33 412.94 362.88 413.62 C 365.42 414.31 367.08 414.94 371.62 415.62 C 376.17 416.31 382.65 417.44 390.12 417.75 C 397.60 418.06 410.67 417.69 416.50 417.50 C 422.33 417.31 421.92 417.08 425.12 416.62 C 428.33 416.17 432.60 415.42 435.75 414.75 C 438.90 414.08 440.83 413.65 444.00 412.62 C 447.17 411.60 451.35 410.10 454.75 408.62 C 458.15 407.15 461.33 405.60 464.38 403.75 C 467.42 401.90 470.77 399.42 473.00 397.50 C 475.23 395.58 476.67 393.77 477.75 392.25 C 478.83 390.73 479.15 389.42 479.50 388.38 C 479.85 387.33 479.83 387.25 479.88 386.00 C 479.92 384.75 479.96 382.58 479.75 380.88 C 479.54 379.17 479.15 377.60 478.62 375.75 C 478.10 373.90 477.58 372.08 476.62 369.75 C 475.67 367.42 474.15 365.33 472.88 361.75 C 471.60 358.17 470.12 352.75 469.00 348.25 C 467.88 343.75 467.19 341.04 466.12 334.75 C 465.06 328.46 463.46 315.04 462.62 310.50 C 461.79 305.96 461.67 308.08 461.12 307.50 C 460.58 306.92 459.77 306.98 459.38 307.00 C 458.98 307.02 459.12 306.71 458.75 307.62 C 458.38 308.54 457.96 307.02 457.12 312.50 C 456.29 317.98 454.98 333.46 453.75 340.50 C 452.52 347.54 450.94 351.17 449.75 354.75 C 448.56 358.33 447.96 359.44 446.62 362.00 C 445.29 364.56 443.42 367.81 441.75 370.12 C 440.08 372.44 438.08 374.44 436.62 375.88 C 435.17 377.31 434.33 377.94 433.00 378.75 C 431.67 379.56 430.54 380.08 428.62 380.75 C 426.71 381.42 425.04 382.12 421.50 382.75 C 417.96 383.38 412.56 384.17 407.38 384.50 C 402.19 384.83 395.42 384.90 390.38 384.75 C 385.33 384.60 380.85 384.12 377.12 383.62 C 373.40 383.12 370.54 382.42 368.00 381.75 C 365.46 381.08 363.58 380.31 361.88 379.62 C 360.17 378.94 358.94 378.31 357.75 377.62 C 356.56 376.94 355.73 376.38 354.75 375.50 C 353.77 374.62 352.83 373.77 351.88 372.38 C 350.92 370.98 349.79 368.79 349.00 367.12 C 348.21 365.46 347.77 364.50 347.12 362.38 C 346.48 360.25 345.81 359.00 345.12 354.38 C 344.44 349.75 343.33 343.10 343.00 334.62 C 342.67 326.15 342.98 313.21 343.12 303.50 C 343.27 293.79 343.54 281.79 343.88 276.38 C 344.21 270.96 344.94 273.25 345.12 271.00 C 345.31 268.75 344.50 273.79 345.00 262.88 C 345.50 251.96 346.94 223.40 348.12 205.50 C 349.31 187.60 350.81 168.40 352.12 155.50 C 353.44 142.60 355.19 133.44 356.00 128.12 C 356.81 122.81 356.21 126.12 357.00 123.62 C 357.79 121.12 360.12 115.52 360.75 113.12 C 361.38 110.73 361.06 110.58 360.75 109.25 C 360.44 107.92 359.92 106.58 358.88 105.12 C 357.83 103.67 355.79 101.69 354.50 100.50 C 353.21 99.31 353.33 99.25 351.12 98.00 C 348.92 96.75 344.29 94.31 341.25 93.00 C 338.21 91.69 335.25 90.79 332.88 90.12 C 330.50 89.46 329.44 89.19 327.00 89.00 C 324.56 88.81 320.12 88.85 318.25 89.00 C 316.38 89.15 316.46 89.42 315.75 89.88 Z" id="s-7-f-0"/>
<clipPath id="c-s-7"><use href="#s-7-f-0"/></clipPath>
</defs>
<g id="s-0" clip-path="url(#c-s-0)">
<use href="#s-0-f-0"/>
<path d="M 162.12 61.88 C 159.25 60.04 156.06 58.81 154.12 58.00 C 152.19 57.19 151.88 57.17 150.50 57.00 C 149.12 56.83 146.92 56.85 145.88 57.00 C 144.83 57.15 144.75 57.48 144.25 57.88 C 143.75 58.27 143.25 58.75 142.88 59.38 C 142.50 60.00 142.21 59.58 142.00 61.62 C 141.79 63.67 142.00 67.75 141.62 71.62 C 141.25 75.50 140.44 81.12 139.75 84.88 C 139.06 88.62 138.33 91.17 137.50 94.12 C 136.67 97.08 136.23 98.73 134.75 102.62 C 133.27 106.52 132.29 109.85 128.62 117.50 C 124.96 125.15 117.71 139.52 112.75 148.50 C 107.79 157.48 103.25 164.56 98.88 171.38 C 94.50 178.19 92.08 181.79 86.50 189.38 C 80.92 196.96 71.06 209.65 65.38 216.88 C 59.69 224.10 56.83 227.54 52.38 232.75 C 47.92 237.96 40.88 245.44 38.62 248.12 C 36.38 250.81 35.67 248.75 38.88 248.88 C 42.08 249.00 54.15 249.27 57.88 248.88 C 61.60 248.48 58.81 248.52 61.25 246.50 C 63.69 244.48 68.79 240.21 72.50 236.75 C 76.21 233.29 77.83 231.94 83.50 225.75 C 89.17 219.56 100.10 207.35 106.50 199.62 C 112.90 191.90 117.12 185.94 121.88 179.38 C 126.62 172.81 130.52 167.06 135.00 160.25 C 139.48 153.44 144.12 146.12 148.75 138.50 C 153.38 130.88 159.54 120.15 162.75 114.50 C 165.96 108.85 166.46 107.27 168.00 104.62 C 169.54 101.98 170.19 101.00 172.00 98.62 C 173.81 96.25 177.42 92.33 178.88 90.38 C 180.33 88.42 180.46 88.27 180.75 86.88 C 181.04 85.48 181.00 83.62 180.62 82.00 C 180.25 80.38 179.15 78.35 178.50 77.12 C 177.85 75.90 177.94 75.98 176.75 74.62 C 175.56 73.27 173.81 71.12 171.38 69.00 C 168.94 66.88 165.00 63.71 162.12 61.88 Z" id="s-0-f-1"/>
<path d="M 160.88 61.12 C 158.00 59.29 155.85 58.69 154.12 58.00 C 152.40 57.31 151.88 57.17 150.50 57.00 C 149.12 56.83 146.92 56.85 145.88 57.00 C 144.83 57.15 144.75 57.48 144.25 57.88 C 143.75 58.27 143.25 58.75 142.88 59.38 C 142.50 60.00 142.33 58.48 142.00 61.62 C 141.67 64.77 141.42 73.62 140.88 78.25 C 140.33 82.88 139.77 85.31 138.75 89.38 C 137.73 93.44 136.44 97.94 134.75 102.62 C 133.06 107.31 131.46 111.40 128.62 117.50 C 125.79 123.60 121.73 131.83 117.75 139.25 C 113.77 146.67 108.90 155.15 104.75 162.00 C 100.60 168.85 97.31 173.96 92.88 180.38 C 88.44 186.79 77.54 197.06 78.12 200.50 C 78.71 203.94 91.77 200.98 96.38 201.00 C 100.98 201.02 101.50 204.23 105.75 200.62 C 110.00 197.02 117.00 186.10 121.88 179.38 C 126.75 172.65 130.52 167.06 135.00 160.25 C 139.48 153.44 144.12 146.12 148.75 138.50 C 153.38 130.88 159.54 120.15 162.75 114.50 C 165.96 108.85 166.46 107.27 168.00 104.62 C 169.54 101.98 170.04 101.23 172.00 98.62 C 173.96 96.02 178.29 90.96 179.75 89.00 C 181.21 87.04 180.56 87.73 180.75 86.88 C 180.94 86.02 180.94 84.81 180.88 83.88 C 180.81 82.94 180.77 82.38 180.38 81.25 C 179.98 80.12 179.31 78.48 178.50 77.12 C 177.69 75.77 176.69 74.48 175.50 73.12 C 174.31 71.77 173.81 71.00 171.38 69.00 C 168.94 67.00 163.75 62.96 160.88 61.12 Z" id="s-0-f-2"/>
<path d="M 160.88 61.12 C 158.00 59.29 155.85 58.69 154.12 58.00 C 152.40 57.31 151.88 57.17 150.50 57.00 C 149.12 56.83 146.92 56.85 145.88 57.00 C 144.83 57.15 144.75 57.48 144.25 57.88 C 143.75 58.27 143.25 58.75 142.88 59.38 C 142.50 60.00 142.21 59.58 142.00 61.62 C 141.79 63.67 142.00 67.75 141.62 71.62 C 141.25 75.50 140.44 81.12 139.75 84.88 C 139.06 88.62 138.33 91.17 137.50 94.12 C 136.67 97.08 135.75 99.81 134.75 102.62 C 133.75 105.44 133.17 107.19 131.50 111.00 C 129.83 114.81 127.88 119.25 124.75 125.50 C 121.62 131.75 115.17 144.04 112.75 148.50 C 110.33 152.96 110.65 151.54 110.25 152.25 C 109.85 152.96 105.58 152.62 110.38 152.75 C 115.17 152.88 134.08 153.04 139.00 153.00 C 143.92 152.96 137.06 156.94 139.88 152.50 C 142.69 148.06 151.19 134.35 155.88 126.38 C 160.56 118.40 165.31 109.25 168.00 104.62 C 170.69 100.00 170.04 101.23 172.00 98.62 C 173.96 96.02 178.29 90.96 179.75 89.00 C 181.21 87.04 180.56 87.73 180.75 86.88 C 180.94 86.02 180.94 84.81 180.88 83.88 C 180.81 82.94 180.77 82.38 180.38 81.25 C 179.98 80.12 179.31 78.48 178.50 77.12 C 177.69 75.77 176.69 74.48 175.50 73.12 C 174.31 71.77 173.81 71.00 171.38 69.00 C 168.94 67.00 163.75 62.96 160.88 61.12 Z" id="s-0-f-3"/>
<path d="M 145.88 57.00 C 144.52 57.31 143.77 58.23 143.12 59.00 C 142.48 59.77 142.25 59.52 142.00 61.62 C 141.75 63.73 142.00 67.75 141.62 71.62 C 141.25 75.50 140.44 81.12 139.75 84.88 C 139.06 88.62 138.46 90.90 137.50 94.12 C 136.54 97.35 134.46 102.44 134.00 104.25 C 133.54 106.06 129.12 104.90 134.75 105.00 C 140.38 105.10 161.54 105.94 167.75 104.88 C 173.96 103.81 170.15 101.04 172.00 98.62 C 173.85 96.21 177.42 92.33 178.88 90.38 C 180.33 88.42 180.46 88.27 180.75 86.88 C 181.04 85.48 180.83 83.29 180.62 82.00 C 180.42 80.71 180.15 80.35 179.50 79.12 C 178.85 77.90 178.10 76.31 176.75 74.62 C 175.40 72.94 173.81 71.12 171.38 69.00 C 168.94 66.88 164.60 63.54 162.12 61.88 C 159.65 60.21 158.31 59.79 156.50 59.00 C 154.69 58.21 153.02 57.46 151.25 57.12 C 149.48 56.79 147.23 56.69 145.88 57.00 Z" id="s-0-f-4"/>
</g>
<g id="s-1" clip-path="url(#c-s-1)">
<use href="#s-1-f-0"/>
<path d="M 106.12 198.50 C 105.40 198.46 107.08 198.04 105.00 200.50 C 102.92 202.96 95.19 209.31 93.62 213.25 C 92.06 217.19 95.10 220.33 95.62 224.12 C 96.15 227.92 96.60 226.69 96.75 236.00 C 96.90 245.31 96.85 264.60 96.50 280.00 C 96.15 295.40 95.25 316.75 94.62 328.38 C 94.00 340.00 93.42 343.58 92.75 349.75 C 92.08 355.92 92.25 357.40 90.62 365.38 C 89.00 373.35 84.27 391.52 83.00 397.62 C 81.73 403.73 82.83 400.54 83.00 402.00 C 83.17 403.46 83.15 403.75 84.00 406.38 C 84.85 409.00 86.15 413.08 88.12 417.75 C 90.10 422.42 94.19 431.04 95.88 434.38 C 97.56 437.71 97.56 436.98 98.25 437.75 C 98.94 438.52 98.42 438.79 100.00 439.00 C 101.58 439.21 106.17 439.15 107.75 439.00 C 109.33 438.85 108.85 439.00 109.50 438.12 C 110.15 437.25 110.58 436.42 111.62 433.75 C 112.67 431.08 114.58 426.06 115.75 422.12 C 116.92 418.19 118.08 430.29 118.62 410.12 C 119.17 389.96 118.79 325.23 119.00 301.12 C 119.21 277.02 119.52 274.69 119.88 265.50 C 120.23 256.31 120.77 250.35 121.12 246.00 C 121.48 241.65 121.38 242.67 122.00 239.38 C 122.62 236.08 124.42 229.00 124.88 226.25 C 125.33 223.50 124.94 223.88 124.75 222.88 C 124.56 221.88 124.58 221.77 123.75 220.25 C 122.92 218.73 122.15 217.00 119.75 213.75 C 117.35 210.50 111.65 203.29 109.38 200.75 C 107.10 198.21 106.85 198.54 106.12 198.50 Z" id="s-1-f-1"/>
<path d="M 106.12 198.50 C 105.40 198.46 107.08 198.04 105.00 200.50 C 102.92 202.96 95.19 209.35 93.62 213.25 C 92.06 217.15 95.10 220.08 95.62 223.88 C 96.15 227.67 96.56 229.15 96.75 236.00 C 96.94 242.85 96.92 253.15 96.75 265.00 C 96.58 276.85 96.23 294.94 95.75 307.12 C 95.27 319.31 94.54 329.58 93.88 338.12 C 93.21 346.67 92.44 353.04 91.75 358.38 C 91.06 363.71 90.90 364.92 89.75 370.12 C 88.60 375.33 85.35 386.23 84.88 389.62 C 84.40 393.02 81.29 390.27 86.88 390.50 C 92.46 390.73 113.06 391.02 118.38 391.00 C 123.69 390.98 118.65 405.35 118.75 390.38 C 118.85 375.40 118.81 321.94 119.00 301.12 C 119.19 280.31 119.52 274.69 119.88 265.50 C 120.23 256.31 120.77 250.35 121.12 246.00 C 121.48 241.65 121.40 242.40 122.00 239.38 C 122.60 236.35 124.27 230.44 124.75 227.88 C 125.23 225.31 125.04 225.27 124.88 224.00 C 124.71 222.73 124.94 222.42 123.75 220.25 C 122.56 218.08 120.15 214.25 117.75 211.00 C 115.35 207.75 111.31 202.83 109.38 200.75 C 107.44 198.67 106.85 198.54 106.12 198.50 Z" id="s-1-f-2"/>
<path d="M 106.00 198.50 C 105.60 198.75 107.06 198.04 105.00 200.50 C 102.94 202.96 95.19 209.35 93.62 213.25 C 92.06 217.15 95.10 220.08 95.62 223.88 C 96.15 227.67 96.56 229.15 96.75 236.00 C 96.94 242.85 96.92 253.15 96.75 265.00 C 96.58 276.85 96.29 294.25 95.75 307.12 C 95.21 320.00 93.79 336.29 93.50 342.25 C 93.21 348.21 89.85 342.75 94.00 342.88 C 98.15 343.00 114.23 343.40 118.38 343.00 C 122.52 342.60 118.77 347.48 118.88 340.50 C 118.98 333.52 118.79 314.60 119.00 301.12 C 119.21 287.65 119.65 269.77 120.12 259.62 C 120.60 249.48 121.10 245.54 121.88 240.25 C 122.65 234.96 124.25 230.58 124.75 227.88 C 125.25 225.17 125.04 225.27 124.88 224.00 C 124.71 222.73 124.94 222.42 123.75 220.25 C 122.56 218.08 120.15 214.25 117.75 211.00 C 115.35 207.75 111.10 202.75 109.38 200.75 C 107.65 198.75 107.94 199.38 107.38 199.00 C 106.81 198.62 106.40 198.25 106.00 198.50 Z" id="s-1-f-3"/>
<path d="M 106.00 198.50 C 105.60 198.75 107.06 198.04 105.00 200.50 C 102.94 202.96 95.19 209.35 93.62 213.25 C 92.06 217.15 95.10 220.08 95.62 223.88 C 96.15 227.67 96.56 229.15 96.75 236.00 C 96.94 242.85 96.88 255.29 96.75 265.00 C 96.62 274.71 96.04 289.27 96.00 294.25 C 95.96 299.23 92.69 294.81 96.50 294.88 C 100.31 294.94 114.94 300.50 118.88 294.62 C 122.81 288.75 119.77 267.54 120.12 259.62 C 120.48 251.71 120.69 250.50 121.00 247.12 C 121.31 243.75 121.38 242.58 122.00 239.38 C 122.62 236.17 124.29 230.62 124.75 227.88 C 125.21 225.12 125.25 224.73 124.75 222.88 C 124.25 221.02 122.92 218.73 121.75 216.75 C 120.58 214.77 119.81 213.67 117.75 211.00 C 115.69 208.33 111.10 202.75 109.38 200.75 C 107.65 198.75 107.94 199.38 107.38 199.00 C 106.81 198.62 106.40 198.25 106.00 198.50 Z" id="s-1-f-4"/>
<path d="M 106.00 198.50 C 105.60 198.75 107.06 198.04 105.00 200.50 C 102.94 202.96 95.19 209.35 93.62 213.25 C 92.06 217.15 95.10 220.08 95.62 223.88 C 96.15 227.67 96.52 232.19 96.75 236.00 C 96.98 239.81 93.00 244.96 97.00 246.75 C 101.00 248.54 116.12 249.90 120.75 246.75 C 125.38 243.60 124.08 231.85 124.75 227.88 C 125.42 223.90 125.25 224.73 124.75 222.88 C 124.25 221.02 122.92 218.73 121.75 216.75 C 120.58 214.77 119.81 213.67 117.75 211.00 C 115.69 208.33 111.10 202.75 109.38 200.75 C 107.65 198.75 107.94 199.38 107.38 199.00 C 106.81 198.62 106.40 198.25 106.00 198.50 Z" id="s-1-f-5"/>
</g>
<g id="s-2" clip-path="url(#c-s-2)">
<use href="#s-2-f-0"/>
<path d="M 222.62 124.00 C 220.62 124.17 220.67 124.50 219.75 125.12 C 218.83 125.75 217.75 126.83 217.12 127.75 C 216.50 128.67 216.21 129.62 216.00 130.62 C 215.79 131.62 215.73 132.77 215.88 133.75 C 216.02 134.73 215.94 134.81 216.88 136.50 C 217.81 138.19 220.40 141.71 221.50 143.88 C 222.60 146.04 222.96 147.35 223.50 149.50 C 224.04 151.65 224.21 152.48 224.75 156.75 C 225.29 161.02 226.23 168.12 226.75 175.12 C 227.27 182.12 227.46 175.38 227.88 198.75 C 228.29 222.12 228.96 295.85 229.25 315.38 C 229.54 334.90 229.27 315.77 229.62 315.88 C 229.98 315.98 227.44 316.00 231.38 316.00 C 235.31 316.00 249.52 316.02 253.25 315.88 C 256.98 315.73 253.48 324.33 253.75 315.12 C 254.02 305.92 254.65 279.56 254.88 260.62 C 255.10 241.69 254.44 216.42 255.12 201.50 C 255.81 186.58 258.02 178.12 259.00 171.12 C 259.98 164.12 260.50 162.06 261.00 159.50 C 261.50 156.94 261.04 157.73 262.00 155.75 C 262.96 153.77 265.96 149.54 266.75 147.62 C 267.54 145.71 266.94 145.31 266.75 144.25 C 266.56 143.19 266.08 142.15 265.62 141.25 C 265.17 140.35 264.79 139.77 264.00 138.88 C 263.21 137.98 262.12 136.85 260.88 135.88 C 259.62 134.90 258.62 134.15 256.50 133.00 C 254.38 131.85 250.83 130.15 248.12 129.00 C 245.42 127.85 242.98 126.94 240.25 126.12 C 237.52 125.31 234.69 124.48 231.75 124.12 C 228.81 123.77 224.62 123.83 222.62 124.00 Z" id="s-2-f-1"/>
<path d="M 222.62 124.00 C 220.62 124.17 220.67 124.50 219.75 125.12 C 218.83 125.75 217.75 126.83 217.12 127.75 C 216.50 128.67 216.21 129.62 216.00 130.62 C 215.79 131.62 215.73 132.77 215.88 133.75 C 216.02 134.73 215.94 134.81 216.88 136.50 C 217.81 138.19 220.40 141.71 221.50 143.88 C 222.60 146.04 222.67 144.79 223.50 149.50 C 224.33 154.21 225.79 165.00 226.50 172.12 C 227.21 179.25 227.38 176.50 227.75 192.25 C 228.12 208.00 228.54 254.08 228.75 266.62 C 228.96 279.17 228.71 267.31 229.00 267.50 C 229.29 267.69 226.29 267.69 230.50 267.75 C 234.71 267.81 250.21 268.00 254.25 267.88 C 258.29 267.75 254.60 278.06 254.75 267.00 C 254.90 255.94 254.42 217.48 255.12 201.50 C 255.83 185.52 258.02 178.12 259.00 171.12 C 259.98 164.12 260.50 162.06 261.00 159.50 C 261.50 156.94 261.04 157.73 262.00 155.75 C 262.96 153.77 265.98 149.65 266.75 147.62 C 267.52 145.60 267.08 145.08 266.62 143.62 C 266.17 142.17 264.96 140.17 264.00 138.88 C 263.04 137.58 262.12 136.85 260.88 135.88 C 259.62 134.90 258.62 134.15 256.50 133.00 C 254.38 131.85 250.83 130.15 248.12 129.00 C 245.42 127.85 242.98 126.94 240.25 126.12 C 237.52 125.31 234.69 124.48 231.75 124.12 C 228.81 123.77 224.62 123.83 222.62 124.00 Z" id="s-2-f-2"/>
<path d="M 222.62 124.00 C 220.62 124.17 220.67 124.50 219.75 125.12 C 218.83 125.75 217.75 126.83 217.12 127.75 C 216.50 128.67 216.21 129.62 216.00 130.62 C 215.79 131.62 215.73 132.77 215.88 133.75 C 216.02 134.73 216.04 135.00 216.88 136.50 C 217.71 138.00 219.92 141.04 220.88 142.75 C 221.83 144.46 222.15 145.46 222.62 146.75 C 223.10 148.04 223.10 146.27 223.75 150.50 C 224.40 154.73 225.88 166.17 226.50 172.12 C 227.12 178.08 227.27 179.73 227.50 186.25 C 227.73 192.77 227.71 205.77 227.88 211.25 C 228.04 216.73 228.15 217.69 228.50 219.12 C 228.85 220.56 225.71 219.73 230.00 219.88 C 234.29 220.02 250.10 220.21 254.25 220.00 C 258.40 219.79 254.73 221.71 254.88 218.62 C 255.02 215.54 254.27 210.46 255.12 201.50 C 255.98 192.54 258.85 172.50 260.00 164.88 C 261.15 157.25 260.88 158.62 262.00 155.75 C 263.12 152.88 265.98 149.65 266.75 147.62 C 267.52 145.60 267.08 145.08 266.62 143.62 C 266.17 142.17 264.96 140.17 264.00 138.88 C 263.04 137.58 262.12 136.85 260.88 135.88 C 259.62 134.90 258.62 134.15 256.50 133.00 C 254.38 131.85 250.83 130.15 248.12 129.00 C 245.42 127.85 242.98 126.94 240.25 126.12 C 237.52 125.31 234.69 124.48 231.75 124.12 C 228.81 123.77 224.62 123.83 222.62 124.00 Z" id="s-2-f-3"/>
<path d="M 219.75 125.12 C 218.77 125.90 217.38 127.71 216.75 128.62 C 216.12 129.54 216.12 129.62 216.00 130.62 C 215.88 131.62 215.08 132.42 216.00 134.62 C 216.92 136.83 220.25 141.40 221.50 143.88 C 222.75 146.35 222.67 144.88 223.50 149.50 C 224.33 154.12 225.58 167.88 226.50 171.62 C 227.42 175.38 223.62 172.00 229.00 172.00 C 234.38 172.00 253.25 174.33 258.75 171.62 C 264.25 168.92 260.65 159.83 262.00 155.75 C 263.35 151.67 266.10 149.15 266.88 147.12 C 267.65 145.10 267.17 145.08 266.62 143.62 C 266.08 142.17 264.58 139.67 263.62 138.38 C 262.67 137.08 262.06 136.77 260.88 135.88 C 259.69 134.98 258.62 134.15 256.50 133.00 C 254.38 131.85 250.83 130.15 248.12 129.00 C 245.42 127.85 243.15 126.96 240.25 126.12 C 237.35 125.29 233.69 124.35 230.75 124.00 C 227.81 123.65 224.46 123.81 222.62 124.00 C 220.79 124.19 220.73 124.35 219.75 125.12 Z" id="s-2-f-4"/>
</g>
<g id="s-3" clip-path="url(#c-s-3)">
<use href="#s-3-f-0"/>
<path d="M 302.88 236.50 C 301.96 233.94 300.58 234.25 297.50 233.00 C 294.42 231.75 287.12 229.65 284.38 229.00 C 281.62 228.35 285.94 227.48 281.00 229.12 C 276.06 230.77 259.17 234.98 254.75 238.88 C 250.33 242.77 254.06 250.04 254.50 252.50 C 254.94 254.96 255.92 253.27 257.38 253.62 C 258.83 253.98 260.62 254.42 263.25 254.62 C 265.88 254.83 271.00 254.90 273.12 254.88 C 275.25 254.85 274.77 254.81 276.00 254.50 C 277.23 254.19 276.08 253.79 280.50 253.00 C 284.92 252.21 298.75 250.52 302.50 249.75 C 306.25 248.98 302.94 250.58 303.00 248.38 C 303.06 246.17 303.79 239.06 302.88 236.50 Z" id="s-3-f-1"/>
</g>
<g id="s-4" clip-path="url(#c-s-4)">
<use href="#s-4-f-0"/>
<path d="M 164.50 229.00 C 162.92 229.15 163.08 229.58 162.50 230.00 C 161.92 230.42 161.42 230.88 161.00 231.50 C 160.58 232.12 160.15 232.52 160.00 233.75 C 159.85 234.98 159.48 236.62 160.12 238.88 C 160.77 241.12 162.92 244.50 163.88 247.25 C 164.83 250.00 164.48 234.52 165.88 255.38 C 167.27 276.23 171.10 352.79 172.25 372.38 C 173.40 391.96 169.38 372.77 172.75 372.88 C 176.12 372.98 189.15 374.15 192.50 373.00 C 195.85 371.85 192.77 385.17 192.88 366.00 C 192.98 346.83 192.96 277.23 193.12 258.00 C 193.29 238.77 193.60 252.38 193.88 250.62 C 194.15 248.88 194.60 249.10 194.75 247.50 C 194.90 245.90 194.92 242.40 194.75 241.00 C 194.58 239.60 194.46 239.98 193.75 239.12 C 193.04 238.27 191.54 236.73 190.50 235.88 C 189.46 235.02 188.83 234.65 187.50 234.00 C 186.17 233.35 185.08 232.81 182.50 232.00 C 179.92 231.19 175.00 229.62 172.00 229.12 C 169.00 228.62 166.08 228.85 164.50 229.00 Z" id="s-4-f-1"/>
<path d="M 164.50 229.00 C 162.92 229.15 163.08 229.58 162.50 230.00 C 161.92 230.42 161.42 230.88 161.00 231.50 C 160.58 232.12 160.15 232.52 160.00 233.75 C 159.85 234.98 159.50 236.69 160.12 238.88 C 160.75 241.06 162.81 244.31 163.75 246.88 C 164.69 249.44 164.75 241.31 165.75 254.25 C 166.75 267.19 165.48 312.73 169.75 324.50 C 174.02 336.27 187.56 324.90 191.38 324.88 C 195.19 324.85 192.38 325.04 192.62 324.38 C 192.88 323.71 192.79 331.94 192.88 320.88 C 192.96 309.81 192.96 269.71 193.12 258.00 C 193.29 246.29 193.60 252.38 193.88 250.62 C 194.15 248.88 194.60 249.10 194.75 247.50 C 194.90 245.90 194.92 242.40 194.75 241.00 C 194.58 239.60 194.46 239.98 193.75 239.12 C 193.04 238.27 191.54 236.73 190.50 235.88 C 189.46 235.02 188.83 234.65 187.50 234.00 C 186.17 233.35 185.08 232.81 182.50 232.00 C 179.92 231.19 175.00 229.62 172.00 229.12 C 169.00 228.62 166.08 228.85 164.50 229.00 Z" id="s-4-f-2"/>
<path d="M 162.88 229.75 C 162.29 230.17 161.44 230.96 161.00 231.50 C 160.56 232.04 160.44 232.04 160.25 233.00 C 160.06 233.96 159.90 236.27 159.88 237.25 C 159.85 238.23 159.48 237.27 160.12 238.88 C 160.77 240.48 162.81 244.31 163.75 246.88 C 164.69 249.44 165.19 249.29 165.75 254.25 C 166.31 259.21 166.60 272.83 167.12 276.62 C 167.65 280.42 164.62 276.96 168.88 277.00 C 173.12 277.04 188.58 280.04 192.62 276.88 C 196.67 273.71 192.75 263.25 193.12 258.00 C 193.50 252.75 194.60 248.21 194.88 245.38 C 195.15 242.54 194.94 242.04 194.75 241.00 C 194.56 239.96 194.46 239.98 193.75 239.12 C 193.04 238.27 191.54 236.73 190.50 235.88 C 189.46 235.02 189.33 234.81 187.50 234.00 C 185.67 233.19 182.27 231.83 179.50 231.00 C 176.73 230.17 173.38 229.33 170.88 229.00 C 168.38 228.67 165.83 228.88 164.50 229.00 C 163.17 229.12 163.46 229.33 162.88 229.75 Z" id="s-4-f-3"/>
</g>
<g id="s-5" clip-path="url(#c-s-5)">
<use href="#s-5-f-0"/>
<path d="M 277.88 340.50 C 277.73 338.08 281.21 338.56 277.12 340.25 C 273.04 341.94 257.62 348.90 253.38 350.62 C 249.12 352.35 253.77 349.83 251.62 350.62 C 249.48 351.42 243.50 354.21 240.50 355.38 C 237.50 356.54 234.92 357.12 233.62 357.62 C 232.33 358.12 233.12 358.23 232.75 358.38 C 232.38 358.52 232.17 358.12 231.38 358.50 C 230.58 358.88 234.29 358.10 228.00 360.62 C 221.71 363.15 199.69 371.48 193.62 373.62 C 187.56 375.77 192.62 373.21 191.62 373.50 C 190.62 373.79 188.60 375.02 187.62 375.38 C 186.65 375.73 186.25 375.46 185.75 375.62 C 185.25 375.79 186.06 375.88 184.62 376.38 C 183.19 376.88 178.54 378.12 177.12 378.62 C 175.71 379.12 176.62 379.21 176.12 379.38 C 175.62 379.54 174.67 379.40 174.12 379.62 C 173.58 379.85 174.33 380.06 172.88 380.75 C 171.42 381.44 169.19 382.42 165.38 383.75 C 161.56 385.08 154.98 387.54 150.00 388.75 C 145.02 389.96 138.19 390.35 135.50 391.00 C 132.81 391.65 134.12 391.94 133.88 392.62 C 133.62 393.31 133.65 394.04 134.00 395.12 C 134.35 396.21 134.88 397.48 136.00 399.12 C 137.12 400.77 139.33 403.40 140.75 405.00 C 142.17 406.60 142.92 407.46 144.50 408.75 C 146.08 410.04 148.12 411.42 150.25 412.75 C 152.38 414.08 155.29 415.75 157.25 416.75 C 159.21 417.75 160.60 418.25 162.00 418.75 C 163.40 419.25 164.06 419.62 165.62 419.75 C 167.19 419.88 164.69 423.12 171.38 419.50 C 178.06 415.88 194.94 404.46 205.75 398.00 C 216.56 391.54 224.29 387.79 236.25 380.75 C 248.21 373.71 270.54 360.08 277.50 355.75 C 284.46 351.42 277.94 357.29 278.00 354.75 C 278.06 352.21 278.02 342.92 277.88 340.50 Z" id="s-5-f-1"/>
<path d="M 230.00 360.38 C 229.81 356.46 232.27 358.77 228.88 360.00 C 225.48 361.23 215.50 365.48 209.62 367.75 C 203.75 370.02 196.62 372.67 193.62 373.62 C 190.62 374.58 192.62 373.21 191.62 373.50 C 190.62 373.79 188.60 375.02 187.62 375.38 C 186.65 375.73 186.25 375.46 185.75 375.62 C 185.25 375.79 186.06 375.88 184.62 376.38 C 183.19 376.88 178.54 378.12 177.12 378.62 C 175.71 379.12 176.62 379.21 176.12 379.38 C 175.62 379.54 174.62 379.42 174.12 379.62 C 173.62 379.83 176.54 379.27 173.12 380.62 C 169.71 381.98 158.08 386.25 153.62 387.75 C 149.17 389.25 149.40 389.08 146.38 389.62 C 143.35 390.17 137.58 390.50 135.50 391.00 C 133.42 391.50 134.12 391.94 133.88 392.62 C 133.62 393.31 133.65 394.04 134.00 395.12 C 134.35 396.21 134.81 397.42 136.00 399.12 C 137.19 400.83 139.67 403.75 141.12 405.38 C 142.58 407.00 143.23 407.65 144.75 408.88 C 146.27 410.10 148.17 411.44 150.25 412.75 C 152.33 414.06 155.29 415.75 157.25 416.75 C 159.21 417.75 160.60 418.25 162.00 418.75 C 163.40 419.25 164.06 419.62 165.62 419.75 C 167.19 419.88 164.69 423.12 171.38 419.50 C 178.06 415.88 196.08 403.81 205.75 398.00 C 215.42 392.19 225.33 387.04 229.38 384.62 C 233.42 382.21 229.90 387.54 230.00 383.50 C 230.10 379.46 230.19 364.29 230.00 360.38 Z" id="s-5-f-2"/>
<path d="M 181.88 412.62 C 183.15 406.04 182.04 384.23 182.00 378.38 C 181.96 372.52 181.96 377.62 181.62 377.50 C 181.29 377.38 180.92 377.31 180.00 377.62 C 179.08 377.94 177.10 379.04 176.12 379.38 C 175.15 379.71 174.62 379.42 174.12 379.62 C 173.62 379.83 176.54 379.27 173.12 380.62 C 169.71 381.98 158.08 386.25 153.62 387.75 C 149.17 389.25 149.40 389.08 146.38 389.62 C 143.35 390.17 137.58 390.50 135.50 391.00 C 133.42 391.50 134.12 391.94 133.88 392.62 C 133.62 393.31 133.65 394.04 134.00 395.12 C 134.35 396.21 134.35 396.96 136.00 399.12 C 137.65 401.29 141.50 405.85 143.88 408.12 C 146.25 410.40 147.75 411.19 150.25 412.75 C 152.75 414.31 156.46 416.35 158.88 417.50 C 161.29 418.65 162.79 419.25 164.75 419.62 C 166.71 420.00 169.02 420.04 170.62 419.75 C 172.23 419.46 172.50 419.06 174.38 417.88 C 176.25 416.69 180.60 419.21 181.88 412.62 Z" id="s-5-f-3"/>
</g>
<g id="s-6" clip-path="url(#c-s-6)">
<use href="#s-6-f-0"/>
<path d="M 449.88 220.88 C 449.52 220.15 449.71 220.10 448.75 219.12 C 447.79 218.15 446.42 216.50 444.12 215.00 C 441.83 213.50 439.94 211.96 435.00 210.12 C 430.06 208.29 418.94 205.02 414.50 204.00 C 410.06 202.98 409.71 203.88 408.38 204.00 C 407.04 204.12 406.92 204.48 406.50 204.75 C 406.08 205.02 406.02 204.81 405.88 205.62 C 405.73 206.44 405.96 208.06 405.62 209.62 C 405.29 211.19 405.42 212.52 403.88 215.00 C 402.33 217.48 399.02 221.48 396.38 224.50 C 393.73 227.52 391.17 230.12 388.00 233.12 C 384.83 236.12 382.69 238.23 377.38 242.50 C 372.06 246.77 359.73 255.83 356.12 258.75 C 352.52 261.67 355.79 257.79 355.75 260.00 C 355.71 262.21 355.75 269.94 355.88 272.00 C 356.00 274.06 355.15 272.75 356.50 272.38 C 357.85 272.00 358.75 271.85 364.00 269.75 C 369.25 267.65 380.67 263.08 388.00 259.75 C 395.33 256.42 401.38 253.35 408.00 249.75 C 414.62 246.15 423.12 240.73 427.75 238.12 C 432.38 235.52 432.52 235.56 435.75 234.12 C 438.98 232.69 444.81 230.56 447.12 229.50 C 449.44 228.44 449.02 228.29 449.62 227.75 C 450.23 227.21 450.54 226.96 450.75 226.25 C 450.96 225.54 451.02 224.40 450.88 223.50 C 450.73 222.60 450.23 221.60 449.88 220.88 Z" id="s-6-f-1"/>
<path d="M 448.75 219.12 C 447.38 217.65 445.25 215.54 442.50 213.88 C 439.75 212.21 436.92 210.77 432.25 209.12 C 427.58 207.48 418.50 204.85 414.50 204.00 C 410.50 203.15 409.58 203.88 408.25 204.00 C 406.92 204.12 406.90 204.48 406.50 204.75 C 406.10 205.02 406.02 204.81 405.88 205.62 C 405.73 206.44 405.81 208.38 405.62 209.62 C 405.44 210.88 405.04 212.25 404.75 213.12 C 404.46 214.00 404.00 208.50 403.88 214.88 C 403.75 221.25 403.90 245.25 404.00 251.38 C 404.10 257.50 400.54 253.83 404.50 251.62 C 408.46 249.42 422.54 241.04 427.75 238.12 C 432.96 235.21 432.33 235.67 435.75 234.12 C 439.17 232.58 445.92 229.96 448.25 228.88 C 450.58 227.79 449.31 228.21 449.75 227.62 C 450.19 227.04 450.71 226.19 450.88 225.38 C 451.04 224.56 451.10 223.79 450.75 222.75 C 450.40 221.71 450.12 220.60 448.75 219.12 Z" id="s-6-f-2"/>
</g>
<g id="s-7" clip-path="url(#c-s-7)">
<use href="#s-7-f-0"/>
<path d="M 315.75 89.88 C 315.02 90.33 314.29 90.83 314.00 91.75 C 313.71 92.67 313.21 92.35 314.00 95.38 C 314.79 98.40 317.60 105.54 318.75 109.88 C 319.90 114.21 320.38 117.06 320.88 121.38 C 321.38 125.69 321.62 122.92 321.75 135.75 C 321.88 148.58 321.92 172.23 321.62 198.38 C 321.33 224.52 320.27 268.00 320.00 292.62 C 319.73 317.25 319.65 334.12 320.00 346.12 C 320.35 358.12 321.44 360.10 322.12 364.62 C 322.81 369.15 323.29 370.29 324.12 373.25 C 324.96 376.21 326.10 379.75 327.12 382.38 C 328.15 385.00 329.10 386.85 330.25 389.00 C 331.40 391.15 332.73 393.44 334.00 395.25 C 335.27 397.06 336.27 398.27 337.88 399.88 C 339.48 401.48 341.65 403.42 343.62 404.88 C 345.60 406.33 347.62 407.52 349.75 408.62 C 351.88 409.73 354.19 410.67 356.38 411.50 C 358.56 412.33 360.33 412.94 362.88 413.62 C 365.42 414.31 367.08 414.94 371.62 415.62 C 376.17 416.31 382.65 417.44 390.12 417.75 C 397.60 418.06 410.67 417.69 416.50 417.50 C 422.33 417.31 421.92 417.08 425.12 416.62 C 428.33 416.17 432.08 415.58 435.75 414.75 C 439.42 413.92 443.96 412.65 447.12 411.62 C 450.29 410.60 451.90 409.94 454.75 408.62 C 457.60 407.31 461.62 405.25 464.25 403.75 C 466.88 402.25 468.73 400.96 470.50 399.62 C 472.27 398.29 473.50 397.29 474.88 395.75 C 476.25 394.21 477.94 391.75 478.75 390.38 C 479.56 389.00 479.58 389.08 479.75 387.50 C 479.92 385.92 480.08 383.29 479.75 380.88 C 479.42 378.46 478.42 374.98 477.75 373.00 C 477.08 371.02 476.29 369.71 475.75 369.00 C 475.21 368.29 480.75 367.58 474.50 368.75 C 468.25 369.92 444.40 374.69 438.25 376.00 C 432.10 377.31 438.08 376.48 437.62 376.62 C 437.17 376.77 436.27 376.52 435.50 376.88 C 434.73 377.23 434.15 378.10 433.00 378.75 C 431.85 379.40 430.56 380.08 428.62 380.75 C 426.69 381.42 423.56 382.25 421.38 382.75 C 419.19 383.25 418.27 383.44 415.50 383.75 C 412.73 384.06 408.94 384.46 404.75 384.62 C 400.56 384.79 395.10 384.94 390.38 384.75 C 385.65 384.56 380.10 384.00 376.38 383.50 C 372.65 383.00 370.42 382.40 368.00 381.75 C 365.58 381.10 363.79 380.44 361.88 379.62 C 359.96 378.81 357.79 377.67 356.50 376.88 C 355.21 376.08 354.90 375.62 354.12 374.88 C 353.35 374.12 352.73 373.67 351.88 372.38 C 351.02 371.08 349.79 368.79 349.00 367.12 C 348.21 365.46 347.77 364.50 347.12 362.38 C 346.48 360.25 345.81 359.02 345.12 354.38 C 344.44 349.73 343.35 341.29 343.00 334.50 C 342.65 327.71 342.85 323.31 343.00 313.62 C 343.15 303.94 343.52 283.48 343.88 276.38 C 344.23 269.27 344.94 273.29 345.12 271.00 C 345.31 268.71 344.50 273.54 345.00 262.62 C 345.50 251.71 346.94 223.35 348.12 205.50 C 349.31 187.65 350.81 168.40 352.12 155.50 C 353.44 142.60 355.19 133.44 356.00 128.12 C 356.81 122.81 356.21 126.12 357.00 123.62 C 357.79 121.12 360.12 115.52 360.75 113.12 C 361.38 110.73 361.06 110.58 360.75 109.25 C 360.44 107.92 359.67 106.38 358.88 105.12 C 358.08 103.88 357.29 102.94 356.00 101.75 C 354.71 100.56 353.58 99.46 351.12 98.00 C 348.67 96.54 344.29 94.31 341.25 93.00 C 338.21 91.69 335.25 90.79 332.88 90.12 C 330.50 89.46 329.42 89.19 327.00 89.00 C 324.58 88.81 320.25 88.85 318.38 89.00 C 316.50 89.15 316.48 89.42 315.75 89.88 Z" id="s-7-f-1"/>
<path d="M 317.62 89.12 C 315.58 89.25 316.33 89.50 315.75 89.88 C 315.17 90.25 314.44 90.73 314.12 91.38 C 313.81 92.02 313.88 92.96 313.88 93.75 C 313.88 94.54 313.31 93.44 314.12 96.12 C 314.94 98.81 317.62 105.67 318.75 109.88 C 319.88 114.08 320.38 117.06 320.88 121.38 C 321.38 125.69 321.62 122.92 321.75 135.75 C 321.88 148.58 321.92 172.00 321.62 198.38 C 321.33 224.75 320.27 269.38 320.00 294.00 C 319.73 318.62 319.65 334.35 320.00 346.12 C 320.35 357.90 321.44 360.10 322.12 364.62 C 322.81 369.15 323.29 370.29 324.12 373.25 C 324.96 376.21 326.10 379.75 327.12 382.38 C 328.15 385.00 329.10 386.85 330.25 389.00 C 331.40 391.15 332.42 393.12 334.00 395.25 C 335.58 397.38 337.94 400.00 339.75 401.75 C 341.56 403.50 343.21 404.60 344.88 405.75 C 346.54 406.90 347.83 407.67 349.75 408.62 C 351.67 409.58 354.19 410.67 356.38 411.50 C 358.56 412.33 359.23 412.77 362.88 413.62 C 366.52 414.48 373.71 415.94 378.25 416.62 C 382.79 417.31 383.75 417.60 390.12 417.75 C 396.50 417.90 410.67 417.69 416.50 417.50 C 422.33 417.31 422.12 417.06 425.12 416.62 C 428.12 416.19 432.85 417.04 434.50 414.88 C 436.15 412.71 434.92 409.40 435.00 403.62 C 435.08 397.85 435.06 384.54 435.00 380.25 C 434.94 375.96 436.19 377.62 434.62 377.88 C 433.06 378.12 429.02 380.75 425.62 381.75 C 422.23 382.75 418.15 383.38 414.25 383.88 C 410.35 384.38 406.23 384.60 402.25 384.75 C 398.27 384.90 394.69 384.96 390.38 384.75 C 386.06 384.54 380.10 384.00 376.38 383.50 C 372.65 383.00 370.42 382.40 368.00 381.75 C 365.58 381.10 363.79 380.44 361.88 379.62 C 359.96 378.81 358.17 378.08 356.50 376.88 C 354.83 375.67 352.96 373.65 351.88 372.38 C 350.79 371.10 350.79 370.92 350.00 369.25 C 349.21 367.58 347.94 364.85 347.12 362.38 C 346.31 359.90 345.81 359.02 345.12 354.38 C 344.44 349.73 343.35 341.29 343.00 334.50 C 342.65 327.71 342.85 323.31 343.00 313.62 C 343.15 303.94 343.52 283.48 343.88 276.38 C 344.23 269.27 344.94 273.29 345.12 271.00 C 345.31 268.71 344.50 273.54 345.00 262.62 C 345.50 251.71 346.94 223.35 348.12 205.50 C 349.31 187.65 350.81 168.40 352.12 155.50 C 353.44 142.60 355.19 133.44 356.00 128.12 C 356.81 122.81 356.21 126.12 357.00 123.62 C 357.79 121.12 360.12 115.52 360.75 113.12 C 361.38 110.73 361.06 110.58 360.75 109.25 C 360.44 107.92 359.67 106.38 358.88 105.12 C 358.08 103.88 357.29 102.94 356.00 101.75 C 354.71 100.56 353.58 99.46 351.12 98.00 C 348.67 96.54 344.29 94.31 341.25 93.00 C 338.21 91.69 335.08 90.77 332.88 90.12 C 330.67 89.48 330.54 89.29 328.00 89.12 C 325.46 88.96 319.67 89.00 317.62 89.12 Z" id="s-7-f-2"/>
<path d="M 317.62 89.12 C 315.58 89.25 316.33 89.50 315.75 89.88 C 315.17 90.25 314.44 90.73 314.12 91.38 C 313.81 92.02 313.88 92.96 313.88 93.75 C 313.88 94.54 313.31 93.44 314.12 96.12 C 314.94 98.81 317.65 105.88 318.75 109.88 C 319.85 113.88 320.27 116.62 320.75 120.12 C 321.23 123.62 321.48 117.83 321.62 130.88 C 321.77 143.92 321.90 171.19 321.62 198.38 C 321.35 225.56 320.29 270.54 320.00 294.00 C 319.71 317.46 319.85 330.10 319.88 339.12 C 319.90 348.15 319.73 343.77 320.12 348.12 C 320.52 352.48 321.27 360.08 322.25 365.25 C 323.23 370.42 324.69 375.21 326.00 379.12 C 327.31 383.04 328.79 386.06 330.12 388.75 C 331.46 391.44 332.40 393.08 334.00 395.25 C 335.60 397.42 338.15 400.15 339.75 401.75 C 341.35 403.35 342.21 403.88 343.62 404.88 C 345.04 405.88 346.12 406.65 348.25 407.75 C 350.38 408.85 353.94 410.52 356.38 411.50 C 358.81 412.48 360.23 412.92 362.88 413.62 C 365.52 414.33 368.44 415.15 372.25 415.75 C 376.06 416.35 383.33 417.08 385.75 417.25 C 388.17 417.42 386.54 417.17 386.75 416.75 C 386.96 416.33 386.96 419.71 387.00 414.75 C 387.04 409.79 387.06 392.02 387.00 387.00 C 386.94 381.98 388.27 385.19 386.62 384.62 C 384.98 384.06 380.23 384.10 377.12 383.62 C 374.02 383.15 370.54 382.42 368.00 381.75 C 365.46 381.08 363.58 380.31 361.88 379.62 C 360.17 378.94 359.04 378.42 357.75 377.62 C 356.46 376.83 355.10 375.75 354.12 374.88 C 353.15 374.00 352.56 373.31 351.88 372.38 C 351.19 371.44 350.79 370.92 350.00 369.25 C 349.21 367.58 347.94 364.85 347.12 362.38 C 346.31 359.90 345.69 357.44 345.12 354.38 C 344.56 351.31 344.10 347.31 343.75 344.00 C 343.40 340.69 343.12 339.56 343.00 334.50 C 342.88 329.44 342.85 323.31 343.00 313.62 C 343.15 303.94 343.52 283.48 343.88 276.38 C 344.23 269.27 344.94 273.29 345.12 271.00 C 345.31 268.71 344.85 267.42 345.00 262.62 C 345.15 257.83 345.15 256.46 346.00 242.25 C 346.85 228.04 349.33 188.67 350.12 177.38 C 350.92 166.08 350.42 178.15 350.75 174.50 C 351.08 170.85 351.42 162.31 352.12 155.50 C 352.83 148.69 354.19 138.94 355.00 133.62 C 355.81 128.31 356.04 127.04 357.00 123.62 C 357.96 120.21 360.12 115.52 360.75 113.12 C 361.38 110.73 361.06 110.58 360.75 109.25 C 360.44 107.92 359.67 106.38 358.88 105.12 C 358.08 103.88 357.29 102.94 356.00 101.75 C 354.71 100.56 353.58 99.46 351.12 98.00 C 348.67 96.54 344.29 94.31 341.25 93.00 C 338.21 91.69 335.08 90.77 332.88 90.12 C 330.67 89.48 330.54 89.29 328.00 89.12 C 325.46 88.96 319.67 89.00 317.62 89.12 Z" id="s-7-f-3"/>
<path d="M 318.38 89.00 C 316.50 89.15 316.46 89.48 315.75 89.88 C 315.04 90.27 314.44 90.73 314.12 91.38 C 313.81 92.02 313.88 92.96 313.88 93.75 C 313.88 94.54 313.31 93.44 314.12 96.12 C 314.94 98.81 317.62 105.67 318.75 109.88 C 319.88 114.08 320.38 117.06 320.88 121.38 C 321.38 125.69 321.62 122.92 321.75 135.75 C 321.88 148.58 321.92 172.25 321.62 198.38 C 321.33 224.50 320.25 267.54 320.00 292.50 C 319.75 317.46 319.75 336.00 320.12 348.12 C 320.50 360.25 321.58 361.06 322.25 365.25 C 322.92 369.44 323.31 370.40 324.12 373.25 C 324.94 376.10 326.10 379.75 327.12 382.38 C 328.15 385.00 329.10 386.85 330.25 389.00 C 331.40 391.15 332.73 393.42 334.00 395.25 C 335.27 397.08 337.08 399.17 337.88 400.00 C 338.67 400.83 338.44 401.50 338.75 400.25 C 339.06 399.00 339.08 403.71 339.75 392.50 C 340.42 381.29 342.06 352.35 342.75 333.00 C 343.44 313.65 343.48 286.71 343.88 276.38 C 344.27 266.04 344.94 273.29 345.12 271.00 C 345.31 268.71 344.85 267.42 345.00 262.62 C 345.15 257.83 345.17 256.15 346.00 242.25 C 346.83 228.35 349.21 190.54 350.00 179.25 C 350.79 167.96 350.42 178.17 350.75 174.50 C 351.08 170.83 351.29 164.06 352.00 157.25 C 352.71 150.44 354.17 139.23 355.00 133.62 C 355.83 128.02 356.04 127.04 357.00 123.62 C 357.96 120.21 360.10 115.31 360.75 113.12 C 361.40 110.94 361.04 111.58 360.88 110.50 C 360.71 109.42 360.40 107.92 359.75 106.62 C 359.10 105.33 358.44 104.19 357.00 102.75 C 355.56 101.31 354.10 99.77 351.12 98.00 C 348.15 96.23 342.17 93.44 339.12 92.12 C 336.08 90.81 334.90 90.65 332.88 90.12 C 330.85 89.60 329.42 89.19 327.00 89.00 C 324.58 88.81 320.25 88.85 318.38 89.00 Z" id="s-7-f-4"/>
<path d="M 318.25 89.00 C 316.21 89.12 316.44 89.48 315.75 89.88 C 315.06 90.27 314.44 90.73 314.12 91.38 C 313.81 92.02 313.88 92.96 313.88 93.75 C 313.88 94.54 313.31 93.44 314.12 96.12 C 314.94 98.81 317.62 105.67 318.75 109.88 C 319.88 114.08 320.38 117.06 320.88 121.38 C 321.38 125.69 321.62 122.92 321.75 135.75 C 321.88 148.58 321.92 172.19 321.62 198.38 C 321.33 224.56 320.29 271.21 320.00 292.88 C 319.71 314.54 319.81 322.35 319.88 328.38 C 319.94 334.40 316.65 328.92 320.38 329.00 C 324.10 329.08 338.50 329.08 342.25 328.88 C 346.00 328.67 342.60 336.50 342.88 327.75 C 343.15 319.00 343.50 285.83 343.88 276.38 C 344.25 266.92 344.94 273.29 345.12 271.00 C 345.31 268.71 344.85 267.42 345.00 262.62 C 345.15 257.83 345.15 256.46 346.00 242.25 C 346.85 228.04 349.33 188.67 350.12 177.38 C 350.92 166.08 350.42 178.15 350.75 174.50 C 351.08 170.85 351.42 162.31 352.12 155.50 C 352.83 148.69 354.19 138.94 355.00 133.62 C 355.81 128.31 356.04 127.04 357.00 123.62 C 357.96 120.21 360.12 115.52 360.75 113.12 C 361.38 110.73 361.00 110.48 360.75 109.25 C 360.50 108.02 360.04 107.00 359.25 105.75 C 358.46 104.50 357.35 103.04 356.00 101.75 C 354.65 100.46 353.23 99.29 351.12 98.00 C 349.02 96.71 345.85 95.15 343.38 94.00 C 340.90 92.85 338.81 91.94 336.25 91.12 C 333.69 90.31 331.00 89.48 328.00 89.12 C 325.00 88.77 320.29 88.88 318.25 89.00 Z" id="s-7-f-5"/>
<path d="M 318.25 89.00 C 316.21 89.12 316.44 89.48 315.75 89.88 C 315.06 90.27 314.44 90.73 314.12 91.38 C 313.81 92.02 313.88 92.96 313.88 93.75 C 313.88 94.54 313.31 93.44 314.12 96.12 C 314.94 98.81 317.65 105.88 318.75 109.88 C 319.85 113.88 320.27 116.62 320.75 120.12 C 321.23 123.62 321.48 117.83 321.62 130.88 C 321.77 143.92 321.85 173.60 321.62 198.38 C 321.40 223.15 320.40 265.75 320.25 279.50 C 320.10 293.25 316.85 280.69 320.75 280.88 C 324.65 281.06 339.77 281.38 343.62 280.62 C 347.48 279.88 343.62 277.98 343.88 276.38 C 344.12 274.77 344.94 273.27 345.12 271.00 C 345.31 268.73 344.50 273.67 345.00 262.75 C 345.50 251.83 346.94 223.38 348.12 205.50 C 349.31 187.62 350.81 168.40 352.12 155.50 C 353.44 142.60 355.19 133.44 356.00 128.12 C 356.81 122.81 356.21 126.12 357.00 123.62 C 357.79 121.12 360.12 115.52 360.75 113.12 C 361.38 110.73 361.00 110.48 360.75 109.25 C 360.50 108.02 360.04 107.00 359.25 105.75 C 358.46 104.50 357.35 103.04 356.00 101.75 C 354.65 100.46 353.23 99.29 351.12 98.00 C 349.02 96.71 345.85 95.15 343.38 94.00 C 340.90 92.85 338.81 91.94 336.25 91.12 C 333.69 90.31 331.00 89.48 328.00 89.12 C 325.00 88.77 320.29 88.88 318.25 89.00 Z" id="s-7-f-6"/>
<path d="M 318.25 89.00 C 316.38 89.15 316.44 89.48 315.75 89.88 C 315.06 90.27 314.44 90.73 314.12 91.38 C 313.81 92.02 313.88 92.96 313.88 93.75 C 313.88 94.54 313.31 93.44 314.12 96.12 C 314.94 98.81 317.65 105.88 318.75 109.88 C 319.85 113.88 320.27 116.62 320.75 120.12 C 321.23 123.62 321.46 120.83 321.62 130.88 C 321.79 140.92 321.85 163.44 321.75 180.38 C 321.65 197.31 320.79 223.73 321.00 232.50 C 321.21 241.27 318.79 232.94 323.00 233.00 C 327.21 233.06 342.29 232.96 346.25 232.88 C 350.21 232.79 346.44 237.06 346.75 232.50 C 347.06 227.94 347.23 218.33 348.12 205.50 C 349.02 192.67 350.81 168.42 352.12 155.50 C 353.44 142.58 355.19 133.31 356.00 128.00 C 356.81 122.69 356.21 126.10 357.00 123.62 C 357.79 121.15 360.12 115.52 360.75 113.12 C 361.38 110.73 361.00 110.48 360.75 109.25 C 360.50 108.02 360.10 107.04 359.25 105.75 C 358.40 104.46 356.98 102.79 355.62 101.50 C 354.27 100.21 352.75 99.06 351.12 98.00 C 349.50 96.94 347.88 96.10 345.88 95.12 C 343.88 94.15 341.29 92.96 339.12 92.12 C 336.96 91.29 334.90 90.65 332.88 90.12 C 330.85 89.60 329.44 89.19 327.00 89.00 C 324.56 88.81 320.12 88.85 318.25 89.00 Z" id="s-7-f-7"/>
<path d="M 317.62 89.12 C 315.58 89.25 316.33 89.50 315.75 89.88 C 315.17 90.25 314.44 90.73 314.12 91.38 C 313.81 92.02 313.88 92.96 313.88 93.75 C 313.88 94.54 313.31 93.44 314.12 96.12 C 314.94 98.81 317.62 105.67 318.75 109.88 C 319.88 114.08 320.38 117.04 320.88 121.38 C 321.38 125.71 321.60 125.38 321.75 135.88 C 321.90 146.38 320.33 176.19 321.75 184.38 C 323.17 192.56 325.67 184.96 330.25 185.00 C 334.83 185.04 345.98 184.96 349.25 184.62 C 352.52 184.29 349.40 187.85 349.88 183.00 C 350.35 178.15 351.27 163.73 352.12 155.50 C 352.98 147.27 354.19 138.94 355.00 133.62 C 355.81 128.31 356.04 127.04 357.00 123.62 C 357.96 120.21 360.15 115.60 360.75 113.12 C 361.35 110.65 360.94 110.08 360.62 108.75 C 360.31 107.42 359.90 106.50 358.88 105.12 C 357.85 103.75 355.79 101.69 354.50 100.50 C 353.21 99.31 353.33 99.25 351.12 98.00 C 348.92 96.75 344.29 94.31 341.25 93.00 C 338.21 91.69 335.08 90.77 332.88 90.12 C 330.67 89.48 330.54 89.29 328.00 89.12 C 325.46 88.96 319.67 89.00 317.62 89.12 Z" id="s-7-f-8"/>
<path d="M 315.38 90.12 C 314.67 90.58 314.23 90.88 314.00 91.75 C 313.77 92.62 313.21 92.35 314.00 95.38 C 314.79 98.40 317.60 105.54 318.75 109.88 C 319.90 114.21 320.35 116.92 320.88 121.38 C 321.40 125.83 321.62 134.02 321.88 136.62 C 322.12 139.23 316.98 136.96 322.38 137.00 C 327.77 137.04 348.85 136.98 354.25 136.88 C 359.65 136.77 354.29 138.58 354.75 136.38 C 355.21 134.17 355.98 127.62 357.00 123.62 C 358.02 119.62 360.27 114.85 360.88 112.38 C 361.48 109.90 361.10 110.15 360.62 108.75 C 360.15 107.35 359.02 105.38 358.00 104.00 C 356.98 102.62 355.65 101.50 354.50 100.50 C 353.35 99.50 352.56 98.90 351.12 98.00 C 349.69 97.10 348.35 96.27 345.88 95.12 C 343.40 93.98 339.40 92.15 336.25 91.12 C 333.10 90.10 330.00 89.35 327.00 89.00 C 324.00 88.65 320.19 88.81 318.25 89.00 C 316.31 89.19 316.08 89.67 315.38 90.12 Z" id="s-7-f-9"/>
</g>
</svg>