<?xml version="1.0" encoding="UTF-8"?>
<svg xmlns="http://www.w3.org/2000/svg" viewBox="0 0 500 500">
<defs>
<path d="M 193.75 169.38 C 193.31 168.06 192.15 166.67 191.00 165.62 C 189.85 164.58 189.52 164.23 186.88 163.12 C 184.23 162.02 177.96 159.85 175.12 159.00 C 172.29 158.15 171.50 158.19 169.88 158.00 C 168.25 157.81 168.42 157.08 165.38 157.88 C 162.33 158.67 155.65 161.58 151.62 162.75 C 147.60 163.92 149.40 162.88 141.25 164.88 C 133.10 166.88 114.50 172.10 102.75 174.75 C 91.00 177.40 79.67 179.35 70.75 180.75 C 61.83 182.15 53.56 182.58 49.25 183.12 C 44.94 183.67 46.17 183.58 44.88 184.00 C 43.58 184.42 42.17 185.06 41.50 185.62 C 40.83 186.19 40.73 186.62 40.88 187.38 C 41.02 188.12 41.29 188.90 42.38 190.12 C 43.46 191.35 45.85 193.65 47.38 194.75 C 48.90 195.85 49.19 196.10 51.50 196.75 C 53.81 197.40 56.79 198.29 61.25 198.62 C 65.71 198.96 73.88 198.90 78.25 198.75 C 82.62 198.60 82.38 198.54 87.50 197.75 C 92.62 196.96 104.85 194.65 109.00 194.00 C 113.15 193.35 107.42 194.58 112.38 193.88 C 117.33 193.17 128.81 191.62 138.75 189.75 C 148.69 187.88 165.27 184.15 172.00 182.62 C 178.73 181.10 175.90 181.75 179.12 180.62 C 182.35 179.50 188.96 177.06 191.38 175.88 C 193.79 174.69 193.23 174.58 193.62 173.50 C 194.02 172.42 194.19 170.69 193.75 169.38 Z" id="s-0-f-0"/>
<clipPath id="c-s-0"><use href="#s-0-f-0"/></clipPath>
<path d="M 113.88 46.88 C 112.77 46.90 112.33 46.83 111.50 47.25 C 110.67 47.67 109.46 48.69 108.88 49.38 C 108.29 50.06 108.17 50.52 108.00 51.38 C 107.83 52.23 107.56 52.35 107.88 54.50 C 108.19 56.65 109.06 61.67 109.88 64.25 C 110.69 66.83 111.79 67.31 112.75 70.00 C 113.71 72.69 114.94 77.17 115.62 80.38 C 116.31 83.58 116.52 85.83 116.88 89.25 C 117.23 92.67 117.42 89.65 117.75 100.88 C 118.08 112.10 118.69 145.02 118.88 156.62 C 119.06 168.23 118.94 168.06 118.88 170.50 C 118.81 172.94 118.52 158.21 118.50 171.25 C 118.48 184.29 119.04 230.15 118.75 248.75 C 118.46 267.35 117.58 270.60 116.75 282.88 C 115.92 295.15 114.92 309.46 113.75 322.38 C 112.58 335.29 110.75 351.83 109.75 360.38 C 108.75 368.92 108.38 370.15 107.75 373.62 C 107.12 377.10 106.62 377.50 106.00 381.25 C 105.38 385.00 104.35 391.98 104.00 396.12 C 103.65 400.27 103.85 403.98 103.88 406.12 C 103.90 408.27 103.73 407.02 104.12 409.00 C 104.52 410.98 104.94 413.92 106.25 418.00 C 107.56 422.08 110.71 430.29 112.00 433.50 C 113.29 436.71 113.06 435.79 114.00 437.25 C 114.94 438.71 116.56 441.02 117.62 442.25 C 118.69 443.48 119.56 444.19 120.38 444.62 C 121.19 445.06 121.75 444.98 122.50 444.88 C 123.25 444.77 124.19 444.40 124.88 444.00 C 125.56 443.60 125.69 443.67 126.62 442.50 C 127.56 441.33 128.81 440.23 130.50 437.00 C 132.19 433.77 135.38 426.85 136.75 423.12 C 138.12 419.40 138.25 431.60 138.75 414.62 C 139.25 397.65 139.54 353.27 139.75 321.25 C 139.96 289.23 139.65 244.50 140.00 222.50 C 140.35 200.50 141.38 195.88 141.88 189.25 C 142.38 182.62 142.81 187.23 143.00 182.75 C 143.19 178.27 142.67 171.44 143.00 162.38 C 143.33 153.31 144.17 138.75 145.00 128.38 C 145.83 118.00 147.00 107.79 148.00 100.12 C 149.00 92.46 150.21 86.19 151.00 82.38 C 151.79 78.56 152.44 78.88 152.75 77.25 C 153.06 75.62 153.02 74.04 152.88 72.62 C 152.73 71.21 152.44 70.02 151.88 68.75 C 151.31 67.48 150.54 66.25 149.50 65.00 C 148.46 63.75 146.81 62.27 145.62 61.25 C 144.44 60.23 144.92 60.40 142.38 58.88 C 139.83 57.35 133.42 53.73 130.38 52.12 C 127.33 50.52 126.17 50.08 124.12 49.25 C 122.08 48.42 119.83 47.52 118.12 47.12 C 116.42 46.73 114.98 46.85 113.88 46.88 Z" id="s-1-f-0"/>
<clipPath id="c-s-1"><use href="#s-1-f-0"/></clipPath>
<path d="M 118.75 171.50 C 118.48 171.33 117.85 171.38 117.62 171.75 C 117.40 172.12 117.54 173.29 117.38 173.75 C 117.21 174.21 116.98 173.62 116.62 174.50 C 116.27 175.38 115.75 177.73 115.25 179.00 C 114.75 180.27 113.94 181.31 113.62 182.12 C 113.31 182.94 113.54 183.44 113.38 183.88 C 113.21 184.31 112.79 184.33 112.62 184.75 C 112.46 185.17 112.88 185.10 112.38 186.38 C 111.88 187.65 110.10 190.92 109.62 192.38 C 109.15 193.83 110.19 192.52 109.50 195.12 C 108.81 197.73 107.65 201.67 105.50 208.00 C 103.35 214.33 99.77 224.96 96.62 233.12 C 93.48 241.29 89.94 249.73 86.62 257.00 C 83.31 264.27 80.56 269.79 76.75 276.75 C 72.94 283.71 67.73 292.33 63.75 298.75 C 59.77 305.17 56.90 309.56 52.88 315.25 C 48.85 320.94 43.33 328.19 39.62 332.88 C 35.92 337.56 33.88 339.77 30.62 343.38 C 27.38 346.98 21.90 352.46 20.12 354.50 C 18.35 356.54 19.81 355.27 20.00 355.62 C 20.19 355.98 20.06 356.44 21.25 356.62 C 22.44 356.81 25.46 356.92 27.12 356.75 C 28.79 356.58 29.85 356.12 31.25 355.62 C 32.65 355.12 34.04 354.52 35.50 353.75 C 36.96 352.98 37.31 353.00 40.00 351.00 C 42.69 349.00 48.38 344.48 51.62 341.75 C 54.88 339.02 56.29 337.79 59.50 334.62 C 62.71 331.46 66.71 327.58 70.88 322.75 C 75.04 317.92 80.52 311.08 84.50 305.62 C 88.48 300.17 90.73 296.58 94.75 290.00 C 98.77 283.42 104.92 272.90 108.62 266.12 C 112.33 259.35 115.25 252.69 117.00 249.38 C 118.75 246.06 118.75 259.02 119.12 246.25 C 119.50 233.48 119.31 185.21 119.25 172.75 C 119.19 160.29 119.02 171.67 118.75 171.50 Z" id="s-2-f-0"/>
<clipPath id="c-s-2"><use href="#s-2-f-0"/></clipPath>
<path d="M 139.88 224.88 C 139.46 224.94 139.52 223.81 139.50 225.38 C 139.48 226.94 139.58 232.71 139.75 234.25 C 139.92 235.79 139.69 233.69 140.50 234.62 C 141.31 235.56 142.25 236.12 144.62 239.88 C 147.00 243.62 152.27 253.12 154.75 257.12 C 157.23 261.12 158.08 262.06 159.50 263.88 C 160.92 265.69 161.67 266.54 163.25 268.00 C 164.83 269.46 167.54 271.83 169.00 272.62 C 170.46 273.42 171.10 272.90 172.00 272.75 C 172.90 272.60 173.25 272.67 174.38 271.75 C 175.50 270.83 177.69 268.83 178.75 267.25 C 179.81 265.67 180.25 263.81 180.75 262.25 C 181.25 260.69 181.58 259.88 181.75 257.88 C 181.92 255.88 181.92 252.08 181.75 250.25 C 181.58 248.42 181.12 247.81 180.75 246.88 C 180.38 245.94 180.29 245.62 179.50 244.62 C 178.71 243.62 177.15 241.94 176.00 240.88 C 174.85 239.81 174.69 239.56 172.62 238.25 C 170.56 236.94 167.50 234.85 163.62 233.00 C 159.75 231.15 152.98 228.46 149.38 227.12 C 145.77 225.79 143.58 225.38 142.00 225.00 C 140.42 224.62 140.29 224.81 139.88 224.88 Z" id="s-3-f-0"/>
<clipPath id="c-s-3"><use href="#s-3-f-0"/></clipPath>
<path d="M 217.00 74.00 C 214.94 74.08 215.40 74.56 214.88 74.88 C 214.35 75.19 214.19 75.40 213.88 75.88 C 213.56 76.35 213.17 77.04 213.00 77.75 C 212.83 78.46 212.19 79.19 212.88 80.12 C 213.56 81.06 216.00 82.35 217.12 83.38 C 218.25 84.40 218.67 84.94 219.62 86.25 C 220.58 87.56 221.85 89.33 222.88 91.25 C 223.90 93.17 225.23 96.33 225.75 97.75 C 226.27 99.17 225.50 98.12 226.00 99.75 C 226.50 101.38 227.79 103.88 228.75 107.50 C 229.71 111.12 229.88 110.06 231.75 121.50 C 233.62 132.94 238.27 166.19 240.00 176.12 C 241.73 186.06 241.21 179.46 242.12 181.12 C 243.04 182.79 244.40 184.88 245.50 186.12 C 246.60 187.38 247.71 188.19 248.75 188.62 C 249.79 189.06 250.67 189.33 251.75 188.75 C 252.83 188.17 254.42 186.21 255.25 185.12 C 256.08 184.04 256.33 183.42 256.75 182.25 C 257.17 181.08 257.56 180.25 257.75 178.12 C 257.94 176.00 258.04 174.31 257.88 169.50 C 257.71 164.69 257.44 157.67 256.75 149.25 C 256.06 140.83 254.69 127.48 253.75 119.00 C 252.81 110.52 251.62 103.06 251.12 98.38 C 250.62 93.69 251.06 92.46 250.75 90.88 C 250.44 89.29 251.38 91.04 249.25 88.88 C 247.12 86.71 241.17 80.19 238.00 77.88 C 234.83 75.56 232.04 75.58 230.25 75.00 C 228.46 74.42 229.46 74.54 227.25 74.38 C 225.04 74.21 219.06 73.92 217.00 74.00 Z" id="s-4-f-0"/>
<clipPath id="c-s-4"><use href="#s-4-f-0"/></clipPath>
<path d="M 406.88 73.38 C 406.83 72.54 406.77 72.73 406.12 72.00 C 405.48 71.27 406.17 71.17 403.00 69.00 C 399.83 66.83 391.42 61.50 387.12 59.00 C 382.83 56.50 379.75 55.15 377.25 54.00 C 374.75 52.85 373.52 52.48 372.12 52.12 C 370.73 51.77 369.96 51.88 368.88 51.88 C 367.79 51.88 367.40 51.65 365.62 52.12 C 363.85 52.60 362.50 53.52 358.25 54.75 C 354.00 55.98 349.21 57.33 340.12 59.50 C 331.04 61.67 314.21 65.56 303.75 67.75 C 293.29 69.94 285.40 71.29 277.38 72.62 C 269.35 73.96 261.79 74.96 255.62 75.75 C 249.46 76.54 243.27 77.00 240.38 77.38 C 237.48 77.75 238.69 77.77 238.25 78.00 C 237.81 78.23 237.65 78.52 237.75 78.75 C 237.85 78.98 236.77 77.31 238.88 79.38 C 240.98 81.44 247.08 89.69 250.38 91.12 C 253.67 92.56 252.79 89.33 258.62 88.00 C 264.46 86.67 273.06 85.12 285.38 83.12 C 297.69 81.12 321.79 77.52 332.50 76.00 C 343.21 74.48 345.96 74.31 349.62 74.00 C 353.29 73.69 353.10 73.88 354.50 74.12 C 355.90 74.38 357.17 75.04 358.00 75.50 C 358.83 75.96 359.04 76.02 359.50 76.88 C 359.96 77.73 360.56 77.94 360.75 80.62 C 360.94 83.31 360.81 88.23 360.62 93.00 C 360.44 97.77 360.10 103.15 359.62 109.25 C 359.15 115.35 358.42 123.44 357.75 129.62 C 357.08 135.81 356.29 142.12 355.62 146.38 C 354.96 150.62 354.33 152.96 353.75 155.12 C 353.17 157.29 352.44 157.94 352.12 159.38 C 351.81 160.81 351.71 162.19 351.88 163.75 C 352.04 165.31 352.40 167.04 353.12 168.75 C 353.85 170.46 355.19 172.67 356.25 174.00 C 357.31 175.33 358.40 176.27 359.50 176.75 C 360.60 177.23 361.44 177.12 362.88 176.88 C 364.31 176.62 366.58 175.90 368.12 175.25 C 369.67 174.60 370.83 173.90 372.12 173.00 C 373.42 172.10 373.44 175.96 375.88 169.88 C 378.31 163.79 383.10 148.23 386.75 136.50 C 390.40 124.77 395.38 107.77 397.75 99.50 C 400.12 91.23 400.15 89.77 401.00 86.88 C 401.85 83.98 401.98 83.77 402.88 82.12 C 403.77 80.48 405.71 78.46 406.38 77.00 C 407.04 75.54 406.92 74.21 406.88 73.38 Z" id="s-5-f-0"/>
<clipPath id="c-s-5"><use href="#s-5-f-0"/></clipPath>
<path d="M 341.88 112.25 C 341.27 111.38 340.00 110.04 338.12 109.00 C 336.25 107.96 334.10 106.98 330.62 106.00 C 327.15 105.02 320.19 103.65 317.25 103.12 C 314.31 102.60 315.19 102.29 313.00 102.88 C 310.81 103.46 307.25 105.48 304.12 106.62 C 301.00 107.77 297.85 108.73 294.25 109.75 C 290.65 110.77 286.06 112.02 282.50 112.75 C 278.94 113.48 274.83 113.75 272.88 114.12 C 270.92 114.50 271.52 114.50 270.75 115.00 C 269.98 115.50 268.73 116.38 268.25 117.12 C 267.77 117.88 267.69 118.79 267.88 119.50 C 268.06 120.21 268.75 120.81 269.38 121.38 C 270.00 121.94 270.02 122.15 271.62 122.88 C 273.23 123.60 276.85 125.10 279.00 125.75 C 281.15 126.40 281.92 126.58 284.50 126.75 C 287.08 126.92 291.71 127.04 294.50 126.75 C 297.29 126.46 297.12 125.79 301.25 125.00 C 305.38 124.21 315.15 122.58 319.25 122.00 C 323.35 121.42 323.40 121.90 325.88 121.50 C 328.35 121.10 331.81 120.42 334.12 119.62 C 336.44 118.83 338.48 117.65 339.75 116.75 C 341.02 115.85 341.40 115.00 341.75 114.25 C 342.10 113.50 342.48 113.12 341.88 112.25 Z" id="s-6-f-0"/>
<clipPath id="c-s-6"><use href="#s-6-f-0"/></clipPath>
<path d="M 341.88 155.25 C 341.27 154.38 340.00 153.04 338.12 152.00 C 336.25 150.96 334.10 149.98 330.62 149.00 C 327.15 148.02 320.19 146.65 317.25 146.12 C 314.31 145.60 314.69 145.48 313.00 145.88 C 311.31 146.27 309.73 147.50 307.12 148.50 C 304.52 149.50 301.48 150.67 297.38 151.88 C 293.27 153.08 286.56 154.88 282.50 155.75 C 278.44 156.62 275.21 156.58 273.00 157.12 C 270.79 157.67 270.06 158.46 269.25 159.00 C 268.44 159.54 268.35 159.79 268.12 160.38 C 267.90 160.96 267.67 161.83 267.88 162.50 C 268.08 163.17 268.75 163.81 269.38 164.38 C 270.00 164.94 270.02 165.15 271.62 165.88 C 273.23 166.60 276.85 168.10 279.00 168.75 C 281.15 169.40 281.92 169.58 284.50 169.75 C 287.08 169.92 291.71 170.04 294.50 169.75 C 297.29 169.46 297.12 168.79 301.25 168.00 C 305.38 167.21 315.15 165.58 319.25 165.00 C 323.35 164.42 323.40 164.90 325.88 164.50 C 328.35 164.10 331.81 163.42 334.12 162.62 C 336.44 161.83 338.48 160.65 339.75 159.75 C 341.02 158.85 341.40 158.00 341.75 157.25 C 342.10 156.50 342.48 156.12 341.88 155.25 Z" id="s-7-f-0"/>
<clipPath id="c-s-7"><use href="#s-7-f-0"/></clipPath>
<path d="M 453.88 204.12 C 453.83 203.35 453.56 202.88 452.88 202.00 C 452.19 201.12 451.21 200.04 449.75 198.88 C 448.29 197.71 446.04 196.17 444.12 195.00 C 442.21 193.83 441.58 193.21 438.25 191.88 C 434.92 190.54 427.50 187.81 424.12 187.00 C 420.75 186.19 423.94 186.04 418.00 187.00 C 412.06 187.96 400.40 190.79 388.50 192.75 C 376.60 194.71 370.02 195.73 346.62 198.75 C 323.23 201.77 275.44 207.67 248.12 210.88 C 220.81 214.08 194.29 216.60 182.75 218.00 C 171.21 219.40 179.96 218.73 178.88 219.25 C 177.79 219.77 176.75 220.58 176.25 221.12 C 175.75 221.67 175.77 221.88 175.88 222.50 C 175.98 223.12 176.12 224.00 176.88 224.88 C 177.62 225.75 178.50 226.73 180.38 227.75 C 182.25 228.77 185.98 230.00 188.12 231.00 C 190.27 232.00 191.21 232.98 193.25 233.75 C 195.29 234.52 198.06 235.25 200.38 235.62 C 202.69 236.00 200.75 236.92 207.12 236.00 C 213.50 235.08 227.67 231.96 238.62 230.12 C 249.58 228.29 266.77 225.85 272.88 225.00 C 278.98 224.15 272.38 225.46 275.25 225.00 C 278.12 224.54 285.00 223.04 290.12 222.25 C 295.25 221.46 295.83 221.29 306.00 220.25 C 316.17 219.21 337.65 217.17 351.12 216.00 C 364.60 214.83 371.62 214.12 386.88 213.25 C 402.12 212.38 432.00 211.50 442.62 210.75 C 453.25 210.00 448.88 209.44 450.62 208.75 C 452.38 208.06 452.58 207.40 453.12 206.62 C 453.67 205.85 453.92 204.90 453.88 204.12 Z" id="s-8-f-0"/>
<clipPath id="c-s-8"><use href="#s-8-f-0"/></clipPath>
<path d="M 233.12 230.75 C 232.58 230.65 231.62 230.52 231.00 230.62 C 230.38 230.73 230.44 231.19 229.38 231.38 C 228.31 231.56 225.62 231.58 224.62 231.75 C 223.62 231.92 224.19 232.23 223.38 232.38 C 222.56 232.52 221.60 232.29 219.75 232.62 C 217.90 232.96 214.10 234.04 212.25 234.38 C 210.40 234.71 209.67 234.40 208.62 234.62 C 207.58 234.85 206.42 235.33 206.00 235.75 C 205.58 236.17 205.83 236.31 206.12 237.12 C 206.42 237.94 207.31 239.21 207.75 240.62 C 208.19 242.04 208.25 224.52 208.75 245.62 C 209.25 266.73 210.38 346.25 210.75 367.25 C 211.12 388.25 210.90 370.83 211.00 371.62 C 211.10 372.42 208.67 372.62 211.38 372.00 C 214.08 371.38 224.17 368.77 227.25 367.88 C 230.33 366.98 229.25 374.38 229.88 366.62 C 230.50 358.88 230.83 336.10 231.00 321.38 C 231.17 306.65 230.75 286.50 230.88 278.25 C 231.00 270.00 231.40 276.12 231.75 271.88 C 232.10 267.62 232.31 258.46 233.00 252.75 C 233.69 247.04 235.44 240.77 235.88 237.62 C 236.31 234.48 235.90 234.94 235.62 233.88 C 235.35 232.81 234.67 231.77 234.25 231.25 C 233.83 230.73 233.67 230.85 233.12 230.75 Z" id="s-9-f-0"/>
<clipPath id="c-s-9"><use href="#s-9-f-0"/></clipPath>
<path d="M 289.00 221.62 C 288.06 221.73 289.00 222.02 286.88 222.38 C 284.75 222.73 278.42 223.35 276.25 223.75 C 274.08 224.15 274.23 224.21 273.88 224.75 C 273.52 225.29 273.65 225.69 274.12 227.00 C 274.60 228.31 276.02 230.77 276.75 232.62 C 277.48 234.48 278.00 236.10 278.50 238.12 C 279.00 240.15 279.40 242.15 279.75 244.75 C 280.10 247.35 280.44 249.88 280.62 253.75 C 280.81 257.62 280.67 264.44 280.88 268.00 C 281.08 271.56 281.90 268.25 281.88 275.12 C 281.85 282.00 280.92 297.19 280.75 309.25 C 280.58 321.31 281.02 339.54 280.88 347.50 C 280.73 355.46 280.23 351.85 279.88 357.00 C 279.52 362.15 279.27 371.65 278.75 378.38 C 278.23 385.10 277.54 391.35 276.75 397.38 C 275.96 403.40 274.46 410.67 274.00 414.50 C 273.54 418.33 273.46 417.40 274.00 420.38 C 274.54 423.35 276.21 429.12 277.25 432.38 C 278.29 435.62 279.29 437.73 280.25 439.88 C 281.21 442.02 282.08 443.69 283.00 445.25 C 283.92 446.81 284.65 448.00 285.75 449.25 C 286.85 450.50 288.67 452.15 289.62 452.75 C 290.58 453.35 290.96 452.94 291.50 452.88 C 292.04 452.81 292.15 452.98 292.88 452.38 C 293.60 451.77 294.90 450.71 295.88 449.25 C 296.85 447.79 297.96 446.56 298.75 443.62 C 299.54 440.69 300.15 435.67 300.62 431.62 C 301.10 427.58 301.12 433.54 301.62 419.38 C 302.12 405.21 303.23 372.08 303.62 346.62 C 304.02 321.17 303.79 285.29 304.00 266.62 C 304.21 247.96 304.92 240.60 304.88 234.62 C 304.83 228.65 304.67 232.21 303.75 230.75 C 302.83 229.29 301.25 227.38 299.38 225.88 C 297.50 224.38 294.23 222.46 292.50 221.75 C 290.77 221.04 289.94 221.52 289.00 221.62 Z" id="s-10-f-0"/>
<clipPath id="c-s-10"><use href="#s-10-f-0"/></clipPath>
<path d="M 281.25 263.88 C 280.65 262.65 280.62 262.79 278.50 262.00 C 276.38 261.21 270.85 259.62 268.50 259.12 C 266.15 258.62 266.60 258.56 264.38 259.00 C 262.15 259.44 260.15 260.56 255.12 261.75 C 250.10 262.94 238.19 265.21 234.25 266.12 C 230.31 267.04 232.10 266.21 231.50 267.25 C 230.90 268.29 230.79 270.69 230.62 272.38 C 230.46 274.06 230.46 276.46 230.50 277.38 C 230.54 278.29 229.58 277.65 230.88 277.88 C 232.17 278.10 234.56 278.60 238.25 278.75 C 241.94 278.90 247.69 279.08 253.00 278.75 C 258.31 278.42 265.29 277.42 270.12 276.75 C 274.96 276.08 280.00 275.98 282.00 274.75 C 284.00 273.52 282.25 271.19 282.12 269.38 C 282.00 267.56 281.85 265.10 281.25 263.88 Z" id="s-11-f-0"/>
<clipPath id="c-s-11"><use href="#s-11-f-0"/></clipPath>
<path d="M 281.12 309.75 C 281.02 307.92 281.46 309.10 280.62 308.50 C 279.79 307.90 278.15 306.85 276.12 306.12 C 274.10 305.40 270.46 304.48 268.50 304.12 C 266.54 303.77 266.52 303.58 264.38 304.00 C 262.23 304.42 260.81 305.44 255.62 306.62 C 250.44 307.81 237.44 310.19 233.25 311.12 C 229.06 312.06 230.96 310.52 230.50 312.25 C 230.04 313.98 230.08 319.77 230.50 321.50 C 230.92 323.23 231.65 322.27 233.00 322.62 C 234.35 322.98 235.46 323.44 238.62 323.62 C 241.79 323.81 244.96 324.38 252.00 323.75 C 259.04 323.12 276.00 320.58 280.88 319.88 C 285.75 319.17 281.21 321.19 281.25 319.50 C 281.29 317.81 281.23 311.58 281.12 309.75 Z" id="s-12-f-0"/>
<clipPath id="c-s-12"><use href="#s-12-f-0"/></clipPath>
<path d="M 281.25 348.38 C 281.23 346.92 281.35 347.92 280.88 347.88 C 280.40 347.83 282.29 346.65 278.38 348.12 C 274.46 349.60 265.35 353.67 257.38 356.75 C 249.40 359.83 235.42 364.98 230.50 366.62 C 225.58 368.27 228.50 366.50 227.88 366.62 C 227.25 366.75 227.40 367.21 226.75 367.38 C 226.10 367.54 224.73 367.44 224.00 367.62 C 223.27 367.81 224.27 368.00 222.38 368.50 C 220.48 369.00 215.27 369.77 212.62 370.62 C 209.98 371.48 208.92 372.77 206.50 373.62 C 204.08 374.48 200.40 375.25 198.12 375.75 C 195.85 376.25 194.48 376.46 192.88 376.62 C 191.27 376.79 191.92 377.02 188.50 376.75 C 185.08 376.48 176.12 375.29 172.38 375.00 C 168.62 374.71 167.44 374.81 166.00 375.00 C 164.56 375.19 164.42 375.54 163.75 376.12 C 163.08 376.71 162.29 377.52 162.00 378.50 C 161.71 379.48 160.73 380.00 162.00 382.00 C 163.27 384.00 166.52 387.54 169.62 390.50 C 172.73 393.46 177.31 397.38 180.62 399.75 C 183.94 402.12 187.42 403.75 189.50 404.75 C 191.58 405.75 191.79 405.58 193.12 405.75 C 194.46 405.92 196.35 405.94 197.50 405.75 C 198.65 405.56 197.06 406.58 200.00 404.62 C 202.94 402.67 210.81 396.67 215.12 394.00 C 219.44 391.33 223.08 390.12 225.88 388.62 C 228.67 387.12 222.85 389.44 231.88 385.00 C 240.90 380.56 271.81 366.73 280.00 362.00 C 288.19 357.27 280.79 358.90 281.00 356.62 C 281.21 354.35 281.27 349.83 281.25 348.38 Z" id="s-13-f-0"/>
<clipPath id="c-s-13"><use href="#s-13-f-0"/></clipPath>
<path d="M 423.25 259.00 C 421.71 258.08 419.31 256.98 417.00 256.00 C 414.69 255.02 411.35 253.79 409.38 253.12 C 407.40 252.46 406.69 252.19 405.12 252.00 C 403.56 251.81 401.67 251.83 400.00 252.00 C 398.33 252.17 397.35 252.23 395.12 253.00 C 392.90 253.77 391.75 254.83 386.62 256.62 C 381.50 258.42 371.58 261.90 364.38 263.75 C 357.17 265.60 348.92 266.88 343.38 267.75 C 337.83 268.62 333.65 268.67 331.12 269.00 C 328.60 269.33 329.81 269.56 328.25 269.75 C 326.69 269.94 323.31 269.94 321.75 270.12 C 320.19 270.31 319.52 270.62 318.88 270.88 C 318.23 271.12 318.02 270.85 317.88 271.62 C 317.73 272.40 317.31 274.29 318.00 275.50 C 318.69 276.71 320.38 277.98 322.00 278.88 C 323.62 279.77 325.04 280.21 327.75 280.88 C 330.46 281.54 334.81 282.56 338.25 282.88 C 341.69 283.19 342.88 283.92 348.38 282.75 C 353.88 281.58 367.08 277.06 371.25 275.88 C 375.42 274.69 372.88 275.77 373.38 275.62 C 373.88 275.48 373.75 275.15 374.25 275.00 C 374.75 274.85 375.79 274.92 376.38 274.75 C 376.96 274.58 376.52 274.29 377.75 274.00 C 378.98 273.71 382.17 273.15 383.75 273.00 C 385.33 272.85 386.23 272.88 387.25 273.12 C 388.27 273.38 389.29 274.04 389.88 274.50 C 390.46 274.96 390.62 274.94 390.75 275.88 C 390.88 276.81 390.83 278.15 390.62 280.12 C 390.42 282.10 390.31 283.71 389.50 287.75 C 388.69 291.79 387.54 297.81 385.75 304.38 C 383.96 310.94 381.60 319.48 378.75 327.12 C 375.90 334.77 371.17 345.00 368.62 350.25 C 366.08 355.50 365.21 356.06 363.50 358.62 C 361.79 361.19 360.23 363.31 358.38 365.62 C 356.52 367.94 355.50 369.33 352.38 372.50 C 349.25 375.67 343.02 381.58 339.62 384.62 C 336.23 387.67 334.73 388.73 332.00 390.75 C 329.27 392.77 326.44 394.77 323.25 396.75 C 320.06 398.73 316.12 400.94 312.88 402.62 C 309.62 404.31 305.65 405.81 303.75 406.88 C 301.85 407.94 301.81 408.35 301.50 409.00 C 301.19 409.65 301.23 410.29 301.88 410.75 C 302.52 411.21 302.69 411.60 305.38 411.75 C 308.06 411.90 314.23 412.12 318.00 411.62 C 321.77 411.12 324.48 410.06 328.00 408.75 C 331.52 407.44 335.12 405.75 339.12 403.75 C 343.12 401.75 347.60 399.46 352.00 396.75 C 356.40 394.04 361.60 390.52 365.50 387.50 C 369.40 384.48 372.48 381.54 375.38 378.62 C 378.27 375.71 379.65 374.35 382.88 370.00 C 386.10 365.65 391.77 357.40 394.75 352.50 C 397.73 347.60 397.75 347.42 400.75 340.62 C 403.75 333.83 409.21 321.00 412.75 311.75 C 416.29 302.50 419.19 291.88 422.00 285.12 C 424.81 278.38 428.33 274.27 429.62 271.25 C 430.92 268.23 429.94 268.17 429.75 267.00 C 429.56 265.83 429.08 265.17 428.50 264.25 C 427.92 263.33 427.12 262.38 426.25 261.50 C 425.38 260.62 424.79 259.92 423.25 259.00 Z" id="s-14-f-0"/>
<clipPath id="c-s-14"><use href="#s-14-f-0"/></clipPath>
<path d="M 311.62 273.62 C 311.00 274.25 310.98 274.33 310.88 274.88 C 310.77 275.42 310.65 276.00 311.00 276.88 C 311.35 277.75 311.92 278.96 313.00 280.12 C 314.08 281.29 315.77 282.73 317.50 283.88 C 319.23 285.02 321.65 285.92 323.38 287.00 C 325.10 288.08 325.83 288.54 327.88 290.38 C 329.92 292.21 333.62 295.83 335.62 298.00 C 337.62 300.17 335.85 297.31 339.88 303.38 C 343.90 309.44 355.10 326.94 359.75 334.38 C 364.40 341.81 365.92 344.69 367.75 348.00 C 369.58 351.31 368.58 350.52 370.75 354.25 C 372.92 357.98 378.75 367.38 380.75 370.38 C 382.75 373.38 380.88 369.42 382.75 372.25 C 384.62 375.08 389.29 383.19 392.00 387.38 C 394.71 391.56 396.46 393.96 399.00 397.38 C 401.54 400.79 403.88 404.00 407.25 407.88 C 410.62 411.75 416.67 418.17 419.25 420.62 C 421.83 423.08 420.85 421.96 422.75 422.62 C 424.65 423.29 426.56 424.29 430.62 424.62 C 434.69 424.96 443.15 424.79 447.12 424.62 C 451.10 424.46 451.83 424.12 454.50 423.62 C 457.17 423.12 459.90 422.60 463.12 421.62 C 466.35 420.65 471.44 418.90 473.88 417.75 C 476.31 416.60 476.94 415.48 477.75 414.75 C 478.56 414.02 478.56 413.90 478.75 413.38 C 478.94 412.85 479.29 412.40 478.88 411.62 C 478.46 410.85 480.50 411.23 476.25 408.75 C 472.00 406.27 460.38 400.58 453.38 396.75 C 446.38 392.92 440.25 389.52 434.25 385.75 C 428.25 381.98 422.04 377.67 417.38 374.12 C 412.71 370.58 409.81 368.00 406.25 364.50 C 402.69 361.00 398.21 355.81 396.00 353.12 C 393.79 350.44 395.81 352.17 393.00 348.38 C 390.19 344.58 381.79 333.67 379.12 330.38 C 376.46 327.08 382.88 336.65 377.00 328.62 C 371.12 320.60 353.33 291.85 343.88 282.25 C 334.42 272.65 325.12 272.85 320.25 271.00 C 315.38 269.15 316.06 270.69 314.62 271.12 C 313.19 271.56 312.25 273.00 311.62 273.62 Z" id="s-15-f-0"/>
<clipPath id="c-s-15"><use href="#s-15-f-0"/></clipPath>
</defs>
<g id="s-0" clip-path="url(#c-s-0)">
<use href="#s-0-f-0"/>
<path d="M 184.88 163.00 C 184.73 160.56 185.75 162.79 184.12 162.12 C 182.50 161.46 177.50 159.69 175.12 159.00 C 172.75 158.31 171.65 158.17 169.88 158.00 C 168.10 157.83 167.54 157.21 164.50 158.00 C 161.46 158.79 155.50 161.60 151.62 162.75 C 147.75 163.90 149.40 162.88 141.25 164.88 C 133.10 166.88 114.50 172.10 102.75 174.75 C 91.00 177.40 79.67 179.35 70.75 180.75 C 61.83 182.15 53.56 182.58 49.25 183.12 C 44.94 183.67 46.17 183.58 44.88 184.00 C 43.58 184.42 42.17 185.06 41.50 185.62 C 40.83 186.19 40.73 186.62 40.88 187.38 C 41.02 188.12 41.54 189.10 42.38 190.12 C 43.21 191.15 44.79 192.58 45.88 193.50 C 46.96 194.42 47.46 194.96 48.88 195.62 C 50.29 196.29 52.02 196.98 54.38 197.50 C 56.73 198.02 59.02 198.54 63.00 198.75 C 66.98 198.96 74.17 198.92 78.25 198.75 C 82.33 198.58 82.38 198.54 87.50 197.75 C 92.62 196.96 104.85 194.65 109.00 194.00 C 113.15 193.35 107.42 194.58 112.38 193.88 C 117.33 193.17 129.44 191.46 138.75 189.75 C 148.06 188.04 161.58 185.12 168.25 183.62 C 174.92 182.12 176.06 181.58 178.75 180.75 C 181.44 179.92 183.33 179.29 184.38 178.62 C 185.42 177.96 184.92 179.35 185.00 176.75 C 185.08 174.15 185.02 165.44 184.88 163.00 Z" id="s-0-f-1"/>
<path d="M 136.88 166.62 C 136.69 163.00 140.83 165.19 135.88 166.38 C 130.92 167.56 115.94 171.69 107.12 173.75 C 98.31 175.81 93.38 177.04 83.00 178.75 C 72.62 180.46 51.79 182.85 44.88 184.00 C 37.96 185.15 42.17 185.06 41.50 185.62 C 40.83 186.19 40.73 186.62 40.88 187.38 C 41.02 188.12 41.54 189.10 42.38 190.12 C 43.21 191.15 44.79 192.58 45.88 193.50 C 46.96 194.42 47.46 194.96 48.88 195.62 C 50.29 196.29 52.02 196.98 54.38 197.50 C 56.73 198.02 59.02 198.54 63.00 198.75 C 66.98 198.96 74.17 198.92 78.25 198.75 C 82.33 198.58 82.38 198.54 87.50 197.75 C 92.62 196.96 104.71 194.67 109.00 194.00 C 113.29 193.33 108.69 194.42 113.25 193.75 C 117.81 193.08 132.44 190.69 136.38 190.00 C 140.31 189.31 136.77 189.94 136.88 189.62 C 136.98 189.31 137.00 191.96 137.00 188.12 C 137.00 184.29 137.06 170.25 136.88 166.62 Z" id="s-0-f-2"/>
<path d="M 88.88 197.00 C 89.12 193.92 89.06 182.46 89.00 179.25 C 88.94 176.04 91.54 177.50 88.50 177.75 C 85.46 178.00 77.29 179.85 70.75 180.75 C 64.21 181.65 54.00 182.42 49.25 183.12 C 44.50 183.83 43.65 184.42 42.25 185.00 C 40.85 185.58 41.04 186.06 40.88 186.62 C 40.71 187.19 41.00 187.79 41.25 188.38 C 41.50 188.96 41.35 189.06 42.38 190.12 C 43.40 191.19 45.85 193.65 47.38 194.75 C 48.90 195.85 50.33 196.29 51.50 196.75 C 52.67 197.21 52.46 197.17 54.38 197.50 C 56.29 197.83 59.67 198.52 63.00 198.75 C 66.33 198.98 70.29 199.04 74.38 198.88 C 78.46 198.71 85.08 198.06 87.50 197.75 C 89.92 197.44 88.62 200.08 88.88 197.00 Z" id="s-0-f-3"/>
</g>
<g id="s-1" clip-path="url(#c-s-1)">
<use href="#s-1-f-0"/>
<path d="M 113.88 46.88 C 112.77 46.90 112.33 46.83 111.50 47.25 C 110.67 47.67 109.46 48.69 108.88 49.38 C 108.29 50.06 108.17 50.52 108.00 51.38 C 107.83 52.23 107.56 52.35 107.88 54.50 C 108.19 56.65 109.06 61.67 109.88 64.25 C 110.69 66.83 111.79 67.31 112.75 70.00 C 113.71 72.69 114.94 77.17 115.62 80.38 C 116.31 83.58 116.52 85.83 116.88 89.25 C 117.23 92.67 117.42 89.65 117.75 100.88 C 118.08 112.10 118.69 145.02 118.88 156.62 C 119.06 168.23 118.94 168.06 118.88 170.50 C 118.81 172.94 118.52 158.21 118.50 171.25 C 118.48 184.29 119.04 230.15 118.75 248.75 C 118.46 267.35 117.58 270.60 116.75 282.88 C 115.92 295.15 114.92 309.46 113.75 322.38 C 112.58 335.29 110.75 351.83 109.75 360.38 C 108.75 368.92 108.38 370.15 107.75 373.62 C 107.12 377.10 106.62 377.50 106.00 381.25 C 105.38 385.00 104.35 391.98 104.00 396.12 C 103.65 400.27 103.85 403.98 103.88 406.12 C 103.90 408.27 103.73 407.02 104.12 409.00 C 104.52 410.98 105.44 415.15 106.25 418.00 C 107.06 420.85 108.17 423.98 109.00 426.12 C 109.83 428.27 107.52 430.06 111.25 430.88 C 114.98 431.69 127.73 431.00 131.38 431.00 C 135.02 431.00 132.54 431.38 133.12 430.88 C 133.71 430.38 134.17 429.65 134.88 428.00 C 135.58 426.35 136.73 423.23 137.38 421.00 C 138.02 418.77 138.35 431.25 138.75 414.62 C 139.15 398.00 139.54 353.27 139.75 321.25 C 139.96 289.23 139.65 244.50 140.00 222.50 C 140.35 200.50 141.38 195.88 141.88 189.25 C 142.38 182.62 142.81 187.23 143.00 182.75 C 143.19 178.27 142.69 171.19 143.00 162.38 C 143.31 153.56 144.02 140.44 144.88 129.88 C 145.73 119.31 147.10 106.92 148.12 99.00 C 149.15 91.08 150.23 86.00 151.00 82.38 C 151.77 78.75 152.44 78.88 152.75 77.25 C 153.06 75.62 153.02 74.04 152.88 72.62 C 152.73 71.21 152.44 70.02 151.88 68.75 C 151.31 67.48 150.54 66.25 149.50 65.00 C 148.46 63.75 146.81 62.27 145.62 61.25 C 144.44 60.23 144.92 60.40 142.38 58.88 C 139.83 57.35 133.42 53.73 130.38 52.12 C 127.33 50.52 126.17 50.08 124.12 49.25 C 122.08 48.42 119.83 47.52 118.12 47.12 C 116.42 46.73 114.98 46.85 113.88 46.88 Z" id="s-1-f-1"/>
<path d="M 113.88 46.88 C 112.77 46.90 112.33 46.83 111.50 47.25 C 110.67 47.67 109.46 48.69 108.88 49.38 C 108.29 50.06 108.17 50.52 108.00 51.38 C 107.83 52.23 107.56 52.35 107.88 54.50 C 108.19 56.65 109.06 61.67 109.88 64.25 C 110.69 66.83 111.79 67.31 112.75 70.00 C 113.71 72.69 114.94 77.17 115.62 80.38 C 116.31 83.58 116.52 85.83 116.88 89.25 C 117.23 92.67 117.42 89.65 117.75 100.88 C 118.08 112.10 118.69 145.02 118.88 156.62 C 119.06 168.23 118.94 168.06 118.88 170.50 C 118.81 172.94 118.52 158.21 118.50 171.25 C 118.48 184.29 119.04 230.15 118.75 248.75 C 118.46 267.35 117.75 268.85 116.75 282.88 C 115.75 296.90 113.92 319.96 112.75 332.88 C 111.58 345.79 110.88 352.15 109.75 360.38 C 108.62 368.60 106.56 378.48 106.00 382.25 C 105.44 386.02 101.29 382.90 106.38 383.00 C 111.46 383.10 131.17 382.96 136.50 382.88 C 141.83 382.79 137.94 383.02 138.38 382.50 C 138.81 381.98 138.85 406.42 139.12 379.75 C 139.40 353.08 139.54 254.25 140.00 222.50 C 140.46 190.75 141.38 195.88 141.88 189.25 C 142.38 182.62 142.81 187.23 143.00 182.75 C 143.19 178.27 142.69 171.19 143.00 162.38 C 143.31 153.56 144.21 138.83 144.88 129.88 C 145.54 120.92 146.15 115.71 147.00 108.62 C 147.85 101.54 149.33 91.75 150.00 87.38 C 150.67 83.00 150.54 84.06 151.00 82.38 C 151.46 80.69 152.44 78.88 152.75 77.25 C 153.06 75.62 153.02 74.04 152.88 72.62 C 152.73 71.21 152.44 70.02 151.88 68.75 C 151.31 67.48 150.54 66.25 149.50 65.00 C 148.46 63.75 146.81 62.27 145.62 61.25 C 144.44 60.23 144.92 60.40 142.38 58.88 C 139.83 57.35 133.42 53.73 130.38 52.12 C 127.33 50.52 126.17 50.08 124.12 49.25 C 122.08 48.42 119.83 47.52 118.12 47.12 C 116.42 46.73 114.98 46.85 113.88 46.88 Z" id="s-1-f-2"/>
<path d="M 112.38 47.00 C 111.19 47.15 110.96 47.48 110.38 47.88 C 109.79 48.27 109.27 48.79 108.88 49.38 C 108.48 49.96 108.17 50.52 108.00 51.38 C 107.83 52.23 107.56 52.35 107.88 54.50 C 108.19 56.65 109.06 61.67 109.88 64.25 C 110.69 66.83 111.94 67.92 112.75 70.00 C 113.56 72.08 114.06 73.54 114.75 76.75 C 115.44 79.96 116.27 82.10 116.88 89.25 C 117.48 96.40 118.04 106.08 118.38 119.62 C 118.71 133.17 118.85 161.90 118.88 170.50 C 118.90 179.10 118.52 158.21 118.50 171.25 C 118.48 184.29 119.04 230.15 118.75 248.75 C 118.46 267.35 117.77 268.62 116.75 282.88 C 115.73 297.12 113.25 325.58 112.62 334.25 C 112.00 342.92 112.67 334.75 113.00 334.88 C 113.33 335.00 110.29 335.00 114.62 335.00 C 118.96 335.00 134.85 334.98 139.00 334.88 C 143.15 334.77 139.33 353.10 139.50 334.38 C 139.67 315.65 139.60 246.69 140.00 222.50 C 140.40 198.31 141.38 195.88 141.88 189.25 C 142.38 182.62 142.81 187.23 143.00 182.75 C 143.19 178.27 142.69 171.19 143.00 162.38 C 143.31 153.56 144.21 138.83 144.88 129.88 C 145.54 120.92 146.15 115.71 147.00 108.62 C 147.85 101.54 149.33 91.75 150.00 87.38 C 150.67 83.00 150.54 84.06 151.00 82.38 C 151.46 80.69 152.46 79.10 152.75 77.25 C 153.04 75.40 152.92 72.71 152.75 71.25 C 152.58 69.79 152.29 69.54 151.75 68.50 C 151.21 67.46 150.52 66.21 149.50 65.00 C 148.48 63.79 147.33 62.60 145.62 61.25 C 143.92 59.90 142.94 58.92 139.25 56.88 C 135.56 54.83 127.12 50.65 123.50 49.00 C 119.88 47.35 119.35 47.33 117.50 47.00 C 115.65 46.67 113.56 46.85 112.38 47.00 Z" id="s-1-f-3"/>
<path d="M 112.50 47.00 C 111.21 47.12 110.98 47.48 110.38 47.88 C 109.77 48.27 109.27 48.79 108.88 49.38 C 108.48 49.96 108.17 50.52 108.00 51.38 C 107.83 52.23 107.56 52.35 107.88 54.50 C 108.19 56.65 109.06 61.67 109.88 64.25 C 110.69 66.83 111.79 67.31 112.75 70.00 C 113.71 72.69 114.94 77.17 115.62 80.38 C 116.31 83.58 116.50 85.33 116.88 89.25 C 117.25 93.17 117.54 90.33 117.88 103.88 C 118.21 117.42 118.77 159.27 118.88 170.50 C 118.98 181.73 118.52 158.21 118.50 171.25 C 118.48 184.29 119.08 229.56 118.75 248.75 C 118.42 267.94 116.79 280.02 116.50 286.38 C 116.21 292.73 116.69 286.77 117.00 286.88 C 117.31 286.98 114.67 287.00 118.38 287.00 C 122.08 287.00 135.71 286.94 139.25 286.88 C 142.79 286.81 139.50 297.35 139.62 286.62 C 139.75 275.90 139.62 238.73 140.00 222.50 C 140.38 206.27 141.38 195.88 141.88 189.25 C 142.38 182.62 142.81 187.23 143.00 182.75 C 143.19 178.27 142.67 171.42 143.00 162.38 C 143.33 153.33 144.15 139.06 145.00 128.50 C 145.85 117.94 147.12 106.69 148.12 99.00 C 149.12 91.31 150.23 86.00 151.00 82.38 C 151.77 78.75 152.46 79.10 152.75 77.25 C 153.04 75.40 152.92 72.71 152.75 71.25 C 152.58 69.79 152.29 69.54 151.75 68.50 C 151.21 67.46 150.52 66.21 149.50 65.00 C 148.48 63.79 147.33 62.60 145.62 61.25 C 143.92 59.90 142.94 58.92 139.25 56.88 C 135.56 54.83 127.02 50.62 123.50 49.00 C 119.98 47.38 119.96 47.46 118.12 47.12 C 116.29 46.79 113.79 46.88 112.50 47.00 Z" id="s-1-f-4"/>
<path d="M 112.50 47.00 C 111.21 47.12 110.98 47.48 110.38 47.88 C 109.77 48.27 109.27 48.79 108.88 49.38 C 108.48 49.96 108.17 50.52 108.00 51.38 C 107.83 52.23 107.56 52.35 107.88 54.50 C 108.19 56.65 109.06 61.67 109.88 64.25 C 110.69 66.83 111.79 67.31 112.75 70.00 C 113.71 72.69 114.94 77.17 115.62 80.38 C 116.31 83.58 116.52 85.83 116.88 89.25 C 117.23 92.67 117.42 89.65 117.75 100.88 C 118.08 112.10 118.69 145.02 118.88 156.62 C 119.06 168.23 118.94 168.06 118.88 170.50 C 118.81 172.94 118.50 159.90 118.50 171.25 C 118.50 182.60 118.58 227.33 118.88 238.62 C 119.17 249.92 116.85 238.94 120.25 239.00 C 123.65 239.06 135.98 239.08 139.25 239.00 C 142.52 238.92 139.75 241.25 139.88 238.50 C 140.00 235.75 139.67 230.71 140.00 222.50 C 140.33 214.29 141.38 195.88 141.88 189.25 C 142.38 182.62 142.81 187.23 143.00 182.75 C 143.19 178.27 142.67 171.42 143.00 162.38 C 143.33 153.33 144.15 139.06 145.00 128.50 C 145.85 117.94 147.12 106.69 148.12 99.00 C 149.12 91.31 150.23 86.00 151.00 82.38 C 151.77 78.75 152.46 79.10 152.75 77.25 C 153.04 75.40 152.92 72.71 152.75 71.25 C 152.58 69.79 152.29 69.54 151.75 68.50 C 151.21 67.46 150.52 66.21 149.50 65.00 C 148.48 63.79 147.33 62.60 145.62 61.25 C 143.92 59.90 142.94 58.92 139.25 56.88 C 135.56 54.83 127.02 50.62 123.50 49.00 C 119.98 47.38 119.96 47.46 118.12 47.12 C 116.29 46.79 113.79 46.88 112.50 47.00 Z" id="s-1-f-5"/>
<path d="M 112.38 47.00 C 111.19 47.15 110.96 47.48 110.38 47.88 C 109.79 48.27 109.27 48.79 108.88 49.38 C 108.48 49.96 108.17 50.52 108.00 51.38 C 107.83 52.23 107.56 52.35 107.88 54.50 C 108.19 56.65 109.06 61.67 109.88 64.25 C 110.69 66.83 111.94 67.92 112.75 70.00 C 113.56 72.08 114.06 73.54 114.75 76.75 C 115.44 79.96 116.38 85.23 116.88 89.25 C 117.38 93.27 117.46 94.00 117.75 100.88 C 118.04 107.75 118.44 118.90 118.62 130.50 C 118.81 142.10 118.90 163.71 118.88 170.50 C 118.85 177.29 118.56 167.92 118.50 171.25 C 118.44 174.58 118.38 187.17 118.50 190.50 C 118.62 193.83 115.42 191.19 119.25 191.25 C 123.08 191.31 137.54 192.29 141.50 190.88 C 145.46 189.46 142.75 187.50 143.00 182.75 C 143.25 178.00 142.67 171.42 143.00 162.38 C 143.33 153.33 144.15 139.06 145.00 128.50 C 145.85 117.94 147.12 106.69 148.12 99.00 C 149.12 91.31 150.23 86.00 151.00 82.38 C 151.77 78.75 152.46 79.10 152.75 77.25 C 153.04 75.40 152.92 72.71 152.75 71.25 C 152.58 69.79 152.29 69.54 151.75 68.50 C 151.21 67.46 150.52 66.21 149.50 65.00 C 148.48 63.79 147.02 62.42 145.62 61.25 C 144.23 60.08 143.38 59.38 141.12 58.00 C 138.88 56.62 135.06 54.50 132.12 53.00 C 129.19 51.50 125.94 50.00 123.50 49.00 C 121.06 48.00 119.35 47.33 117.50 47.00 C 115.65 46.67 113.56 46.85 112.38 47.00 Z" id="s-1-f-6"/>
<path d="M 111.50 47.25 C 110.25 47.48 110.29 47.83 109.75 48.38 C 109.21 48.92 108.56 49.48 108.25 50.50 C 107.94 51.52 107.60 52.21 107.88 54.50 C 108.15 56.79 109.06 61.67 109.88 64.25 C 110.69 66.83 111.94 67.92 112.75 70.00 C 113.56 72.08 114.08 73.73 114.75 76.75 C 115.42 79.77 116.25 84.10 116.75 88.12 C 117.25 92.15 117.38 91.88 117.75 100.88 C 118.12 109.88 118.56 135.15 119.00 142.12 C 119.44 149.10 116.27 142.62 120.38 142.75 C 124.48 142.88 139.62 143.08 143.62 142.88 C 147.62 142.67 144.15 143.90 144.38 141.50 C 144.60 139.10 144.38 135.58 145.00 128.50 C 145.62 121.42 147.12 106.69 148.12 99.00 C 149.12 91.31 150.23 86.00 151.00 82.38 C 151.77 78.75 152.48 79.19 152.75 77.25 C 153.02 75.31 153.17 72.79 152.62 70.75 C 152.08 68.71 150.67 66.58 149.50 65.00 C 148.33 63.42 147.33 62.60 145.62 61.25 C 143.92 59.90 141.79 58.40 139.25 56.88 C 136.71 55.35 133.35 53.56 130.38 52.12 C 127.40 50.69 123.56 49.10 121.38 48.25 C 119.19 47.40 118.90 47.17 117.25 47.00 C 115.60 46.83 112.75 47.02 111.50 47.25 Z" id="s-1-f-7"/>
<path d="M 109.75 48.38 C 109.00 49.10 108.29 50.19 108.00 51.38 C 107.71 52.56 107.69 53.35 108.00 55.50 C 108.31 57.65 109.08 61.83 109.88 64.25 C 110.67 66.67 111.79 67.31 112.75 70.00 C 113.71 72.69 114.88 76.29 115.62 80.38 C 116.38 84.46 116.56 92.06 117.25 94.50 C 117.94 96.94 114.52 94.96 119.75 95.00 C 124.98 95.04 143.42 96.85 148.62 94.75 C 153.83 92.65 150.33 85.19 151.00 82.38 C 151.67 79.56 152.31 78.96 152.62 77.88 C 152.94 76.79 152.88 77.06 152.88 75.88 C 152.88 74.69 153.19 72.56 152.62 70.75 C 152.06 68.94 150.67 66.58 149.50 65.00 C 148.33 63.42 147.33 62.60 145.62 61.25 C 143.92 59.90 142.83 58.88 139.25 56.88 C 135.67 54.88 127.79 50.90 124.12 49.25 C 120.46 47.60 119.19 47.38 117.25 47.00 C 115.31 46.62 113.75 46.77 112.50 47.00 C 111.25 47.23 110.50 47.65 109.75 48.38 Z" id="s-1-f-8"/>
</g>
<g id="s-2" clip-path="url(#c-s-2)">
<use href="#s-2-f-0"/>
<path d="M 118.75 171.50 C 118.48 171.33 117.85 171.38 117.62 171.75 C 117.40 172.12 117.54 173.29 117.38 173.75 C 117.21 174.21 116.98 173.62 116.62 174.50 C 116.27 175.38 115.75 177.73 115.25 179.00 C 114.75 180.27 113.94 181.31 113.62 182.12 C 113.31 182.94 113.54 183.44 113.38 183.88 C 113.21 184.31 112.79 184.33 112.62 184.75 C 112.46 185.17 112.88 185.10 112.38 186.38 C 111.88 187.65 110.10 190.92 109.62 192.38 C 109.15 193.83 110.85 190.54 109.50 195.12 C 108.15 199.71 103.48 213.96 101.50 219.88 C 99.52 225.79 99.90 224.90 97.62 230.62 C 95.35 236.35 91.35 246.56 87.88 254.25 C 84.40 261.94 80.77 269.33 76.75 276.75 C 72.73 284.17 67.65 292.50 63.75 298.75 C 59.85 305.00 55.06 311.56 53.38 314.25 C 51.69 316.94 49.96 314.75 53.62 314.88 C 57.29 315.00 71.44 315.00 75.38 315.00 C 79.31 315.00 76.79 315.02 77.25 314.88 C 77.71 314.73 76.35 316.48 78.12 314.12 C 79.90 311.77 84.44 305.85 87.88 300.75 C 91.31 295.65 95.29 289.27 98.75 283.50 C 102.21 277.73 105.58 271.81 108.62 266.12 C 111.67 260.44 115.25 252.69 117.00 249.38 C 118.75 246.06 118.75 259.02 119.12 246.25 C 119.50 233.48 119.31 185.21 119.25 172.75 C 119.19 160.29 119.02 171.67 118.75 171.50 Z" id="s-2-f-1"/>
<path d="M 118.75 171.50 C 118.48 171.33 117.85 171.38 117.62 171.75 C 117.40 172.12 117.54 173.29 117.38 173.75 C 117.21 174.21 116.98 173.62 116.62 174.50 C 116.27 175.38 115.75 177.73 115.25 179.00 C 114.75 180.27 113.94 181.31 113.62 182.12 C 113.31 182.94 113.54 183.44 113.38 183.88 C 113.21 184.31 112.79 184.33 112.62 184.75 C 112.46 185.17 112.88 185.10 112.38 186.38 C 111.88 187.65 110.10 190.92 109.62 192.38 C 109.15 193.83 110.19 192.52 109.50 195.12 C 108.81 197.73 107.48 202.08 105.50 208.00 C 103.52 213.92 100.08 224.00 97.62 230.62 C 95.17 237.25 93.35 241.85 90.75 247.75 C 88.15 253.65 83.42 262.79 82.00 266.00 C 80.58 269.21 77.96 266.85 82.25 267.00 C 86.54 267.15 103.35 267.02 107.75 266.88 C 112.15 266.73 107.08 269.04 108.62 266.12 C 110.17 263.21 115.25 252.69 117.00 249.38 C 118.75 246.06 118.75 259.02 119.12 246.25 C 119.50 233.48 119.31 185.21 119.25 172.75 C 119.19 160.29 119.02 171.67 118.75 171.50 Z" id="s-2-f-2"/>
<path d="M 118.75 171.50 C 118.48 171.33 117.83 171.35 117.62 171.75 C 117.42 172.15 117.67 173.42 117.50 173.88 C 117.33 174.33 117.00 173.65 116.62 174.50 C 116.25 175.35 115.75 177.73 115.25 179.00 C 114.75 180.27 113.94 181.31 113.62 182.12 C 113.31 182.94 113.54 183.44 113.38 183.88 C 113.21 184.31 112.79 184.33 112.62 184.75 C 112.46 185.17 112.88 185.10 112.38 186.38 C 111.88 187.65 110.10 190.92 109.62 192.38 C 109.15 193.83 110.77 190.73 109.50 195.12 C 108.23 199.52 100.44 214.77 102.00 218.75 C 103.56 222.73 116.00 219.04 118.88 219.00 C 121.75 218.96 119.19 226.21 119.25 218.50 C 119.31 210.79 119.33 180.58 119.25 172.75 C 119.17 164.92 119.02 171.67 118.75 171.50 Z" id="s-2-f-3"/>
</g>
<g id="s-3" clip-path="url(#c-s-3)">
<use href="#s-3-f-0"/>
</g>
<g id="s-4" clip-path="url(#c-s-4)">
<use href="#s-4-f-0"/>
<path d="M 215.88 74.38 C 215.19 74.71 214.35 75.31 213.88 75.88 C 213.40 76.44 213.17 77.04 213.00 77.75 C 212.83 78.46 212.19 79.19 212.88 80.12 C 213.56 81.06 216.00 82.35 217.12 83.38 C 218.25 84.40 218.67 84.94 219.62 86.25 C 220.58 87.56 221.85 89.33 222.88 91.25 C 223.90 93.17 225.23 96.33 225.75 97.75 C 226.27 99.17 225.33 97.46 226.00 99.75 C 226.67 102.04 228.62 106.83 229.75 111.50 C 230.88 116.17 231.23 118.08 232.75 127.75 C 234.27 137.42 237.60 162.46 238.88 169.50 C 240.15 176.54 237.27 169.94 240.38 170.00 C 243.48 170.06 254.62 171.33 257.50 169.88 C 260.38 168.42 257.75 164.69 257.62 161.25 C 257.50 157.81 257.40 156.29 256.75 149.25 C 256.10 142.21 254.69 127.48 253.75 119.00 C 252.81 110.52 251.62 103.06 251.12 98.38 C 250.62 93.69 252.79 94.19 250.75 90.88 C 248.71 87.56 241.17 80.75 238.88 78.50 C 236.58 76.25 238.44 77.96 237.00 77.38 C 235.56 76.79 232.15 75.54 230.25 75.00 C 228.35 74.46 227.67 74.31 225.62 74.12 C 223.58 73.94 219.62 73.83 218.00 73.88 C 216.38 73.92 216.56 74.04 215.88 74.38 Z" id="s-4-f-1"/>
<path d="M 214.88 74.88 C 214.04 75.52 213.33 76.88 213.00 77.75 C 212.67 78.62 212.23 79.23 212.88 80.12 C 213.52 81.02 215.75 82.10 216.88 83.12 C 218.00 84.15 218.35 84.33 219.62 86.25 C 220.90 88.17 222.98 91.08 224.50 94.62 C 226.02 98.17 227.56 103.04 228.75 107.50 C 229.94 111.96 231.02 118.96 231.62 121.38 C 232.23 123.79 229.00 121.90 232.38 122.00 C 235.75 122.10 248.33 122.06 251.88 122.00 C 255.42 121.94 253.31 122.15 253.62 121.62 C 253.94 121.10 253.83 119.77 253.75 118.88 C 253.67 117.98 253.56 119.67 253.12 116.25 C 252.69 112.83 251.50 102.44 251.12 98.38 C 250.75 94.31 251.00 93.25 250.88 91.88 C 250.75 90.50 252.38 92.35 250.38 90.12 C 248.38 87.90 241.10 80.62 238.88 78.50 C 236.65 76.38 238.44 77.96 237.00 77.38 C 235.56 76.79 232.31 75.56 230.25 75.00 C 228.19 74.44 226.67 74.19 224.62 74.00 C 222.58 73.81 219.62 73.73 218.00 73.88 C 216.38 74.02 215.71 74.23 214.88 74.88 Z" id="s-4-f-2"/>
</g>
<g id="s-5" clip-path="url(#c-s-5)">
<use href="#s-5-f-0"/>
<path d="M 406.88 73.38 C 406.83 72.54 406.77 72.73 406.12 72.00 C 405.48 71.27 406.17 71.17 403.00 69.00 C 399.83 66.83 391.42 61.50 387.12 59.00 C 382.83 56.50 379.75 55.15 377.25 54.00 C 374.75 52.85 373.52 52.48 372.12 52.12 C 370.73 51.77 369.96 51.88 368.88 51.88 C 367.79 51.88 367.40 51.65 365.62 52.12 C 363.85 52.60 362.50 53.52 358.25 54.75 C 354.00 55.98 349.21 57.33 340.12 59.50 C 331.04 61.67 314.21 65.56 303.75 67.75 C 293.29 69.94 285.40 71.29 277.38 72.62 C 269.35 73.96 261.79 74.96 255.62 75.75 C 249.46 76.54 243.27 77.00 240.38 77.38 C 237.48 77.75 238.69 77.77 238.25 78.00 C 237.81 78.23 237.65 78.52 237.75 78.75 C 237.85 78.98 236.77 77.31 238.88 79.38 C 240.98 81.44 247.08 89.69 250.38 91.12 C 253.67 92.56 253.69 89.19 258.62 88.00 C 263.56 86.81 269.98 85.67 280.00 84.00 C 290.02 82.33 307.15 79.67 318.75 78.00 C 330.35 76.33 343.79 74.67 349.62 74.00 C 355.46 73.33 352.44 73.81 353.75 74.00 C 355.06 74.19 356.54 74.65 357.50 75.12 C 358.46 75.60 358.96 75.96 359.50 76.88 C 360.04 77.79 360.56 77.94 360.75 80.62 C 360.94 83.31 360.81 88.23 360.62 93.00 C 360.44 97.77 360.10 103.15 359.62 109.25 C 359.15 115.35 358.42 123.44 357.75 129.62 C 357.08 135.81 356.29 142.12 355.62 146.38 C 354.96 150.62 354.33 152.96 353.75 155.12 C 353.17 157.29 352.00 158.56 352.12 159.38 C 352.25 160.19 350.08 159.90 354.50 160.00 C 358.92 160.10 374.46 160.12 378.62 160.00 C 382.79 159.88 378.15 163.17 379.50 159.25 C 380.85 155.33 383.71 146.46 386.75 136.50 C 389.79 126.54 395.38 107.77 397.75 99.50 C 400.12 91.23 400.15 89.77 401.00 86.88 C 401.85 83.98 401.98 83.77 402.88 82.12 C 403.77 80.48 405.71 78.46 406.38 77.00 C 407.04 75.54 406.92 74.21 406.88 73.38 Z" id="s-5-f-1"/>
<path d="M 406.88 73.38 C 406.83 72.54 406.77 72.73 406.12 72.00 C 405.48 71.27 406.17 71.17 403.00 69.00 C 399.83 66.83 391.42 61.50 387.12 59.00 C 382.83 56.50 379.75 55.15 377.25 54.00 C 374.75 52.85 373.52 52.48 372.12 52.12 C 370.73 51.77 369.96 51.88 368.88 51.88 C 367.79 51.88 367.40 51.65 365.62 52.12 C 363.85 52.60 362.50 53.52 358.25 54.75 C 354.00 55.98 349.21 57.33 340.12 59.50 C 331.04 61.67 314.21 65.56 303.75 67.75 C 293.29 69.94 285.40 71.29 277.38 72.62 C 269.35 73.96 261.79 74.96 255.62 75.75 C 249.46 76.54 243.27 77.00 240.38 77.38 C 237.48 77.75 238.69 77.77 238.25 78.00 C 237.81 78.23 237.65 78.52 237.75 78.75 C 237.85 78.98 236.77 77.31 238.88 79.38 C 240.98 81.44 247.00 89.71 250.38 91.12 C 253.75 92.54 254.19 89.06 259.12 87.88 C 264.06 86.69 266.58 86.15 280.00 84.00 C 293.42 81.85 328.02 76.67 339.62 75.00 C 351.23 73.33 347.15 74.15 349.62 74.00 C 352.10 73.85 353.23 73.96 354.50 74.12 C 355.77 74.29 356.56 74.69 357.25 75.00 C 357.94 75.31 358.06 75.27 358.62 76.00 C 359.19 76.73 360.29 76.54 360.62 79.38 C 360.96 82.21 360.83 87.65 360.62 93.00 C 360.42 98.35 359.15 108.33 359.38 111.50 C 359.60 114.67 356.29 111.96 362.00 112.00 C 367.71 112.04 388.23 111.98 393.62 111.75 C 399.02 111.52 393.15 114.77 394.38 110.62 C 395.60 106.48 399.58 91.62 401.00 86.88 C 402.42 82.12 401.98 83.77 402.88 82.12 C 403.77 80.48 405.71 78.46 406.38 77.00 C 407.04 75.54 406.92 74.21 406.88 73.38 Z" id="s-5-f-2"/>
<path d="M 394.25 63.62 C 394.25 63.42 395.04 63.77 393.88 63.00 C 392.71 62.23 389.92 60.46 387.25 59.00 C 384.58 57.54 380.50 55.42 377.88 54.25 C 375.25 53.08 373.42 52.38 371.50 52.00 C 369.58 51.62 369.73 51.23 366.38 52.00 C 363.02 52.77 360.19 54.33 351.38 56.62 C 342.56 58.92 325.83 63.08 313.50 65.75 C 301.17 68.42 287.02 70.96 277.38 72.62 C 267.73 74.29 261.79 74.96 255.62 75.75 C 249.46 76.54 243.27 77.00 240.38 77.38 C 237.48 77.75 238.69 77.77 238.25 78.00 C 237.81 78.23 237.65 78.52 237.75 78.75 C 237.85 78.98 236.77 77.31 238.88 79.38 C 240.98 81.44 247.00 89.71 250.38 91.12 C 253.75 92.54 254.19 89.06 259.12 87.88 C 264.06 86.69 267.77 85.98 280.00 84.00 C 292.23 82.02 320.27 77.71 332.50 76.00 C 344.73 74.29 343.42 75.60 353.38 73.75 C 363.33 71.90 385.50 66.46 392.25 64.88 C 399.00 63.29 393.54 64.46 393.88 64.25 C 394.21 64.04 394.25 63.83 394.25 63.62 Z" id="s-5-f-3"/>
<path d="M 381.88 56.62 C 381.48 54.77 381.25 55.75 379.62 55.00 C 378.00 54.25 374.33 52.62 372.12 52.12 C 369.92 51.62 369.83 51.25 366.38 52.00 C 362.92 52.75 360.19 54.33 351.38 56.62 C 342.56 58.92 325.83 63.08 313.50 65.75 C 301.17 68.42 287.02 70.96 277.38 72.62 C 267.73 74.29 261.79 74.96 255.62 75.75 C 249.46 76.54 243.27 77.00 240.38 77.38 C 237.48 77.75 238.69 77.77 238.25 78.00 C 237.81 78.23 237.65 78.52 237.75 78.75 C 237.85 78.98 236.77 77.31 238.88 79.38 C 240.98 81.44 247.00 89.71 250.38 91.12 C 253.75 92.54 254.19 89.06 259.12 87.88 C 264.06 86.69 267.77 85.98 280.00 84.00 C 292.23 82.02 320.27 77.71 332.50 76.00 C 344.73 74.29 345.48 75.12 353.38 73.75 C 361.27 72.38 375.15 68.88 379.88 67.75 C 384.60 66.62 381.40 67.27 381.75 67.00 C 382.10 66.73 381.98 67.85 382.00 66.12 C 382.02 64.40 382.27 58.48 381.88 56.62 Z" id="s-5-f-4"/>
<path d="M 334.00 61.38 C 333.75 58.96 335.94 60.27 332.50 61.00 C 329.06 61.73 319.85 64.29 313.38 65.75 C 306.90 67.21 302.02 68.25 293.62 69.75 C 285.23 71.25 271.88 73.48 263.00 74.75 C 254.12 76.02 244.50 76.83 240.38 77.38 C 236.25 77.92 238.69 77.77 238.25 78.00 C 237.81 78.23 237.65 78.52 237.75 78.75 C 237.85 78.98 236.83 77.35 238.88 79.38 C 240.92 81.40 248.04 88.94 250.00 90.88 C 251.96 92.81 249.21 91.48 250.62 91.00 C 252.04 90.52 253.73 89.15 258.50 88.00 C 263.27 86.85 266.73 86.15 279.25 84.12 C 291.77 82.10 324.50 77.31 333.62 75.88 C 342.75 74.44 333.94 77.92 334.00 75.50 C 334.06 73.08 334.25 63.79 334.00 61.38 Z" id="s-5-f-5"/>
<path d="M 285.88 71.38 C 285.71 69.54 286.42 70.79 285.00 71.00 C 283.58 71.21 281.04 72.00 277.38 72.62 C 273.71 73.25 269.17 73.96 263.00 74.75 C 256.83 75.54 244.50 76.83 240.38 77.38 C 236.25 77.92 238.69 77.77 238.25 78.00 C 237.81 78.23 237.65 78.52 237.75 78.75 C 237.85 78.98 236.83 77.35 238.88 79.38 C 240.92 81.40 248.04 88.94 250.00 90.88 C 251.96 92.81 249.21 91.48 250.62 91.00 C 252.04 90.52 252.73 89.29 258.50 88.00 C 264.27 86.71 280.67 84.25 285.25 83.25 C 289.83 82.25 285.90 83.98 286.00 82.00 C 286.10 80.02 286.04 73.21 285.88 71.38 Z" id="s-5-f-6"/>
</g>
<g id="s-6" clip-path="url(#c-s-6)">
<use href="#s-6-f-0"/>
<path d="M 315.88 103.50 C 315.58 100.44 314.85 102.96 314.25 102.88 C 313.65 102.79 313.44 102.56 312.25 103.00 C 311.06 103.44 310.12 104.38 307.12 105.50 C 304.12 106.62 298.38 108.54 294.25 109.75 C 290.12 110.96 285.94 112.02 282.38 112.75 C 278.81 113.48 275.12 113.52 272.88 114.12 C 270.62 114.73 269.69 115.77 268.88 116.38 C 268.06 116.98 268.15 117.17 268.00 117.75 C 267.85 118.33 267.69 119.21 268.00 119.88 C 268.31 120.54 269.04 121.12 269.88 121.75 C 270.71 122.38 271.48 122.96 273.00 123.62 C 274.52 124.29 277.12 125.23 279.00 125.75 C 280.88 126.27 281.67 126.58 284.25 126.75 C 286.83 126.92 291.65 127.04 294.50 126.75 C 297.35 126.46 297.85 125.67 301.38 125.00 C 304.90 124.33 313.19 123.38 315.62 122.75 C 318.06 122.12 315.96 124.46 316.00 121.25 C 316.04 118.04 316.17 106.56 315.88 103.50 Z" id="s-6-f-1"/>
</g>
<g id="s-7" clip-path="url(#c-s-7)">
<use href="#s-7-f-0"/>
<path d="M 315.88 146.50 C 315.58 143.46 314.85 145.96 314.25 145.88 C 313.65 145.79 313.17 145.67 312.25 146.00 C 311.33 146.33 311.23 146.90 308.75 147.88 C 306.27 148.85 301.77 150.56 297.38 151.88 C 292.98 153.19 286.44 154.88 282.38 155.75 C 278.31 156.62 275.15 156.62 273.00 157.12 C 270.85 157.62 270.29 158.25 269.50 158.75 C 268.71 159.25 268.50 159.44 268.25 160.12 C 268.00 160.81 267.73 162.10 268.00 162.88 C 268.27 163.65 269.04 164.12 269.88 164.75 C 270.71 165.38 271.48 165.96 273.00 166.62 C 274.52 167.29 277.12 168.23 279.00 168.75 C 280.88 169.27 281.67 169.58 284.25 169.75 C 286.83 169.92 291.65 170.04 294.50 169.75 C 297.35 169.46 297.85 168.67 301.38 168.00 C 304.90 167.33 313.19 166.40 315.62 165.75 C 318.06 165.10 315.96 167.33 316.00 164.12 C 316.04 160.92 316.17 149.54 315.88 146.50 Z" id="s-7-f-1"/>
</g>
<g id="s-8" clip-path="url(#c-s-8)">
<use href="#s-8-f-0"/>
<path d="M 415.88 188.12 C 415.77 184.42 416.15 187.65 415.38 187.62 C 414.60 187.60 415.73 187.15 411.25 188.00 C 406.77 188.85 403.15 190.46 388.50 192.75 C 373.85 195.04 348.04 198.58 323.38 201.75 C 298.71 204.92 263.94 209.04 240.50 211.75 C 217.06 214.46 193.27 216.62 182.75 218.00 C 172.23 219.38 178.52 219.35 177.38 220.00 C 176.23 220.65 176.10 221.31 175.88 221.88 C 175.65 222.44 175.83 222.88 176.00 223.38 C 176.17 223.88 176.15 224.15 176.88 224.88 C 177.60 225.60 178.50 226.73 180.38 227.75 C 182.25 228.77 185.98 230.00 188.12 231.00 C 190.27 232.00 191.21 232.98 193.25 233.75 C 195.29 234.52 198.06 235.25 200.38 235.62 C 202.69 236.00 200.58 236.94 207.12 236.00 C 213.67 235.06 228.67 231.83 239.62 230.00 C 250.58 228.17 266.94 225.83 272.88 225.00 C 278.81 224.17 270.83 225.67 275.25 225.00 C 279.67 224.33 284.44 222.69 299.38 221.00 C 314.31 219.31 345.48 216.46 364.88 214.88 C 384.27 213.29 407.23 212.33 415.75 211.50 C 424.27 210.67 415.98 213.77 416.00 209.88 C 416.02 205.98 415.98 191.83 415.88 188.12 Z" id="s-8-f-1"/>
<path d="M 367.75 197.00 C 367.65 194.17 367.96 196.17 367.38 196.00 C 366.79 195.83 367.71 195.54 364.25 196.00 C 360.79 196.46 358.75 197.12 346.62 198.75 C 334.50 200.38 309.19 203.58 291.50 205.75 C 273.81 207.92 258.62 209.71 240.50 211.75 C 222.38 213.79 193.02 216.75 182.75 218.00 C 172.48 219.25 179.96 218.73 178.88 219.25 C 177.79 219.77 176.75 220.58 176.25 221.12 C 175.75 221.67 175.77 221.88 175.88 222.50 C 175.98 223.12 176.12 224.00 176.88 224.88 C 177.62 225.75 178.50 226.73 180.38 227.75 C 182.25 228.77 186.12 230.06 188.12 231.00 C 190.12 231.94 190.46 232.62 192.38 233.38 C 194.29 234.12 197.17 235.06 199.62 235.50 C 202.08 235.94 200.46 236.92 207.12 236.00 C 213.79 235.08 228.67 231.83 239.62 230.00 C 250.58 228.17 266.94 225.83 272.88 225.00 C 278.81 224.17 271.94 225.52 275.25 225.00 C 278.56 224.48 287.23 222.71 292.75 221.88 C 298.27 221.04 296.02 221.17 308.38 220.00 C 320.73 218.83 356.98 215.79 366.88 214.88 C 376.77 213.96 367.56 214.81 367.75 214.50 C 367.94 214.19 368.00 215.92 368.00 213.00 C 368.00 210.08 367.85 199.83 367.75 197.00 Z" id="s-8-f-2"/>
<path d="M 319.88 202.50 C 319.50 199.79 329.71 200.85 317.75 202.25 C 305.79 203.65 270.52 208.27 248.12 210.88 C 225.73 213.48 194.92 216.48 183.38 217.88 C 171.83 219.27 180.06 218.71 178.88 219.25 C 177.69 219.79 176.75 220.58 176.25 221.12 C 175.75 221.67 175.77 221.88 175.88 222.50 C 175.98 223.12 176.38 224.17 176.88 224.88 C 177.38 225.58 178.00 226.10 178.88 226.75 C 179.75 227.40 180.58 228.04 182.12 228.75 C 183.67 229.46 186.67 230.33 188.12 231.00 C 189.58 231.67 189.56 232.12 190.88 232.75 C 192.19 233.38 194.54 234.29 196.00 234.75 C 197.46 235.21 197.77 235.29 199.62 235.50 C 201.48 235.71 200.46 236.92 207.12 236.00 C 213.79 235.08 228.67 231.83 239.62 230.00 C 250.58 228.17 266.94 225.83 272.88 225.00 C 278.81 224.17 272.38 225.46 275.25 225.00 C 278.12 224.54 282.75 223.25 290.12 222.25 C 297.50 221.25 314.52 219.62 319.50 219.00 C 324.48 218.38 319.94 221.25 320.00 218.50 C 320.06 215.75 320.25 205.21 319.88 202.50 Z" id="s-8-f-3"/>
<path d="M 271.88 208.38 C 271.60 205.77 275.60 207.44 270.38 208.00 C 265.15 208.56 255.00 210.10 240.50 211.75 C 226.00 213.40 193.90 216.50 183.38 217.88 C 172.85 219.25 178.62 219.33 177.38 220.00 C 176.12 220.67 176.10 221.31 175.88 221.88 C 175.65 222.44 175.83 222.88 176.00 223.38 C 176.17 223.88 176.15 224.15 176.88 224.88 C 177.60 225.60 178.50 226.73 180.38 227.75 C 182.25 228.77 185.98 230.00 188.12 231.00 C 190.27 232.00 191.21 232.98 193.25 233.75 C 195.29 234.52 198.06 235.25 200.38 235.62 C 202.69 236.00 200.58 236.94 207.12 236.00 C 213.67 235.06 228.94 231.77 239.62 230.00 C 250.31 228.23 265.88 226.23 271.25 225.38 C 276.62 224.52 271.75 225.17 271.88 224.88 C 272.00 224.58 272.00 226.38 272.00 223.62 C 272.00 220.88 272.15 210.98 271.88 208.38 Z" id="s-8-f-4"/>
<path d="M 223.88 214.00 C 223.79 211.08 224.56 213.62 223.50 213.62 C 222.44 213.62 224.31 213.27 217.50 214.00 C 210.69 214.73 189.31 217.00 182.62 218.00 C 175.94 219.00 178.50 219.35 177.38 220.00 C 176.25 220.65 176.10 221.31 175.88 221.88 C 175.65 222.44 175.62 222.67 176.00 223.38 C 176.38 224.08 177.12 225.25 178.12 226.12 C 179.12 227.00 180.33 227.81 182.00 228.62 C 183.67 229.44 186.25 230.15 188.12 231.00 C 190.00 231.85 191.33 233.00 193.25 233.75 C 195.17 234.50 197.31 235.12 199.62 235.50 C 201.94 235.88 203.17 236.42 207.12 236.00 C 211.08 235.58 220.58 233.56 223.38 233.00 C 226.17 232.44 223.77 232.94 223.88 232.62 C 223.98 232.31 224.00 234.23 224.00 231.12 C 224.00 228.02 223.96 216.92 223.88 214.00 Z" id="s-8-f-5"/>
</g>
<g id="s-9" clip-path="url(#c-s-9)">
<use href="#s-9-f-0"/>
<path d="M 233.88 230.75 C 233.10 230.21 231.75 230.52 231.00 230.62 C 230.25 230.73 230.44 231.19 229.38 231.38 C 228.31 231.56 225.62 231.58 224.62 231.75 C 223.62 231.92 224.19 232.23 223.38 232.38 C 222.56 232.52 221.60 232.29 219.75 232.62 C 217.90 232.96 214.10 234.04 212.25 234.38 C 210.40 234.71 209.67 234.40 208.62 234.62 C 207.58 234.85 206.42 235.33 206.00 235.75 C 205.58 236.17 205.83 236.31 206.12 237.12 C 206.42 237.94 207.31 239.21 207.75 240.62 C 208.19 242.04 208.38 231.46 208.75 245.62 C 209.12 259.79 209.71 312.08 210.00 325.62 C 210.29 339.17 207.29 326.65 210.50 326.88 C 213.71 327.10 225.90 327.00 229.25 327.00 C 232.60 327.00 230.35 326.98 230.62 326.88 C 230.90 326.77 230.83 334.48 230.88 326.38 C 230.92 318.27 230.73 287.33 230.88 278.25 C 231.02 269.17 231.40 276.12 231.75 271.88 C 232.10 267.62 232.31 258.46 233.00 252.75 C 233.69 247.04 235.44 240.77 235.88 237.62 C 236.31 234.48 235.96 235.02 235.62 233.88 C 235.29 232.73 234.65 231.29 233.88 230.75 Z" id="s-9-f-1"/>
<path d="M 233.88 230.75 C 233.10 230.21 231.75 230.52 231.00 230.62 C 230.25 230.73 230.44 231.19 229.38 231.38 C 228.31 231.56 225.62 231.58 224.62 231.75 C 223.62 231.92 224.19 232.23 223.38 232.38 C 222.56 232.52 221.60 232.29 219.75 232.62 C 217.90 232.96 214.10 234.04 212.25 234.38 C 210.40 234.71 209.67 234.40 208.62 234.62 C 207.58 234.85 206.42 235.33 206.00 235.75 C 205.58 236.17 205.83 236.31 206.12 237.12 C 206.42 237.94 207.31 239.21 207.75 240.62 C 208.19 242.04 208.52 239.40 208.75 245.62 C 208.98 251.85 208.96 272.46 209.12 278.00 C 209.29 283.54 206.15 278.75 209.75 278.88 C 213.35 279.00 227.08 279.92 230.75 278.75 C 234.42 277.58 231.38 276.21 231.75 271.88 C 232.12 267.54 232.31 258.46 233.00 252.75 C 233.69 247.04 235.44 240.77 235.88 237.62 C 236.31 234.48 235.96 235.02 235.62 233.88 C 235.29 232.73 234.65 231.29 233.88 230.75 Z" id="s-9-f-2"/>
</g>
<g id="s-10" clip-path="url(#c-s-10)">
<use href="#s-10-f-0"/>
<path d="M 289.00 221.62 C 288.06 221.73 289.00 222.02 286.88 222.38 C 284.75 222.73 278.42 223.35 276.25 223.75 C 274.08 224.15 274.23 224.21 273.88 224.75 C 273.52 225.29 273.48 225.17 274.12 227.00 C 274.77 228.83 276.81 232.79 277.75 235.75 C 278.69 238.71 279.27 241.65 279.75 244.75 C 280.23 247.85 280.44 250.50 280.62 254.38 C 280.81 258.25 280.67 264.54 280.88 268.00 C 281.08 271.46 281.90 268.25 281.88 275.12 C 281.85 282.00 280.92 297.19 280.75 309.25 C 280.58 321.31 281.38 334.23 280.88 347.50 C 280.38 360.77 278.85 377.96 277.75 388.88 C 276.65 399.79 274.73 408.83 274.25 413.00 C 273.77 417.17 270.62 413.71 274.88 413.88 C 279.12 414.04 295.33 414.00 299.75 414.00 C 304.17 414.00 301.02 413.98 301.38 413.88 C 301.73 413.77 301.50 424.58 301.88 413.38 C 302.25 402.17 303.27 370.98 303.62 346.62 C 303.98 322.27 303.79 285.92 304.00 267.25 C 304.21 248.58 304.92 240.71 304.88 234.62 C 304.83 228.54 304.42 231.98 303.75 230.75 C 303.08 229.52 302.10 228.38 300.88 227.25 C 299.65 226.12 297.62 224.77 296.38 224.00 C 295.12 223.23 294.02 223.00 293.38 222.62 C 292.73 222.25 293.23 221.92 292.50 221.75 C 291.77 221.58 289.94 221.52 289.00 221.62 Z" id="s-10-f-1"/>
<path d="M 289.00 221.62 C 288.06 221.73 289.00 222.02 286.88 222.38 C 284.75 222.73 278.42 223.35 276.25 223.75 C 274.08 224.15 274.23 224.21 273.88 224.75 C 273.52 225.29 273.48 225.17 274.12 227.00 C 274.77 228.83 276.81 232.79 277.75 235.75 C 278.69 238.71 279.27 241.65 279.75 244.75 C 280.23 247.85 280.44 250.50 280.62 254.38 C 280.81 258.25 280.67 264.54 280.88 268.00 C 281.08 271.46 281.90 268.25 281.88 275.12 C 281.85 282.00 280.92 297.19 280.75 309.25 C 280.58 321.31 281.02 339.65 280.88 347.50 C 280.73 355.35 280.08 353.38 279.88 356.38 C 279.67 359.38 279.35 363.90 279.62 365.50 C 279.90 367.10 277.88 365.94 281.50 366.00 C 285.12 366.06 297.77 365.98 301.38 365.88 C 304.98 365.77 302.69 381.81 303.12 365.38 C 303.56 348.94 303.71 289.04 304.00 267.25 C 304.29 245.46 304.92 240.71 304.88 234.62 C 304.83 228.54 304.67 232.21 303.75 230.75 C 302.83 229.29 301.25 227.38 299.38 225.88 C 297.50 224.38 294.23 222.46 292.50 221.75 C 290.77 221.04 289.94 221.52 289.00 221.62 Z" id="s-10-f-2"/>
<path d="M 276.25 223.75 C 274.10 224.12 274.40 224.25 274.00 224.62 C 273.60 225.00 273.25 224.15 273.88 226.00 C 274.50 227.85 276.77 232.62 277.75 235.75 C 278.73 238.88 279.27 241.65 279.75 244.75 C 280.23 247.85 280.44 250.50 280.62 254.38 C 280.81 258.25 280.67 264.54 280.88 268.00 C 281.08 271.46 281.90 268.27 281.88 275.12 C 281.85 281.98 280.92 302.04 280.75 309.12 C 280.58 316.21 280.58 316.15 280.88 317.62 C 281.17 319.10 278.75 317.96 282.50 318.00 C 286.25 318.04 299.81 318.00 303.38 317.88 C 306.94 317.75 303.77 325.69 303.88 317.25 C 303.98 308.81 303.85 279.02 304.00 267.25 C 304.15 255.48 304.65 252.38 304.75 246.62 C 304.85 240.88 304.96 235.67 304.62 232.75 C 304.29 229.83 303.62 230.27 302.75 229.12 C 301.88 227.98 300.92 226.94 299.38 225.88 C 297.83 224.81 294.65 223.44 293.50 222.75 C 292.35 222.06 293.25 221.94 292.50 221.75 C 291.75 221.56 289.94 221.52 289.00 221.62 C 288.06 221.73 289.00 222.02 286.88 222.38 C 284.75 222.73 278.40 223.38 276.25 223.75 Z" id="s-10-f-3"/>
<path d="M 274.00 224.62 C 273.62 225.10 273.54 225.29 274.00 226.62 C 274.46 227.96 276.02 230.77 276.75 232.62 C 277.48 234.48 277.88 235.73 278.38 237.75 C 278.88 239.77 279.38 242.04 279.75 244.75 C 280.12 247.46 280.44 250.12 280.62 254.00 C 280.81 257.88 280.71 265.35 280.88 268.00 C 281.04 270.65 277.81 269.60 281.62 269.88 C 285.44 270.15 299.88 275.50 303.75 269.62 C 307.62 263.75 304.73 240.77 304.88 234.62 C 305.02 228.48 304.98 233.67 304.62 232.75 C 304.27 231.83 303.62 230.27 302.75 229.12 C 301.88 227.98 301.08 227.10 299.38 225.88 C 297.67 224.65 294.23 222.46 292.50 221.75 C 290.77 221.04 289.94 221.52 289.00 221.62 C 288.06 221.73 289.00 222.02 286.88 222.38 C 284.75 222.73 278.40 223.38 276.25 223.75 C 274.10 224.12 274.38 224.15 274.00 224.62 Z" id="s-10-f-4"/>
</g>
<g id="s-11" clip-path="url(#c-s-11)">
<use href="#s-11-f-0"/>
<path d="M 279.00 263.00 C 278.85 260.98 279.88 262.52 278.12 261.88 C 276.38 261.23 270.79 259.60 268.50 259.12 C 266.21 258.65 266.60 258.56 264.38 259.00 C 262.15 259.44 260.15 260.56 255.12 261.75 C 250.10 262.94 238.19 265.21 234.25 266.12 C 230.31 267.04 232.10 266.25 231.50 267.25 C 230.90 268.25 230.79 270.44 230.62 272.12 C 230.46 273.81 230.46 276.42 230.50 277.38 C 230.54 278.33 229.58 277.65 230.88 277.88 C 232.17 278.10 234.56 278.60 238.25 278.75 C 241.94 278.90 246.33 279.29 253.00 278.75 C 259.67 278.21 273.92 276.29 278.25 275.50 C 282.58 274.71 278.88 276.08 279.00 274.00 C 279.12 271.92 279.15 265.02 279.00 263.00 Z" id="s-11-f-1"/>
</g>
<g id="s-12" clip-path="url(#c-s-12)">
<use href="#s-12-f-0"/>
<path d="M 279.00 308.00 C 278.85 305.98 279.88 307.52 278.12 306.88 C 276.38 306.23 270.79 304.60 268.50 304.12 C 266.21 303.65 266.52 303.58 264.38 304.00 C 262.23 304.42 260.90 305.42 255.62 306.62 C 250.35 307.83 236.94 310.31 232.75 311.25 C 228.56 312.19 230.88 310.54 230.50 312.25 C 230.12 313.96 230.08 319.77 230.50 321.50 C 230.92 323.23 231.65 322.27 233.00 322.62 C 234.35 322.98 235.46 323.44 238.62 323.62 C 241.79 323.81 245.38 324.31 252.00 323.75 C 258.62 323.19 273.88 321.04 278.38 320.25 C 282.88 319.46 278.90 321.04 279.00 319.00 C 279.10 316.96 279.15 310.02 279.00 308.00 Z" id="s-12-f-1"/>
</g>
<g id="s-13" clip-path="url(#c-s-13)">
<use href="#s-13-f-0"/>
<path d="M 257.88 357.12 C 257.65 354.79 261.19 355.29 256.62 356.88 C 252.06 358.46 235.29 365.00 230.50 366.62 C 225.71 368.25 228.50 366.50 227.88 366.62 C 227.25 366.75 227.40 367.21 226.75 367.38 C 226.10 367.54 224.73 367.44 224.00 367.62 C 223.27 367.81 224.27 368.00 222.38 368.50 C 220.48 369.00 215.27 369.77 212.62 370.62 C 209.98 371.48 209.02 372.75 206.50 373.62 C 203.98 374.50 200.50 375.35 197.50 375.88 C 194.50 376.40 192.73 376.90 188.50 376.75 C 184.27 376.60 175.88 375.29 172.12 375.00 C 168.38 374.71 167.40 374.81 166.00 375.00 C 164.60 375.19 164.42 375.54 163.75 376.12 C 163.08 376.71 162.29 377.52 162.00 378.50 C 161.71 379.48 161.50 380.77 162.00 382.00 C 162.50 383.23 163.75 384.48 165.00 385.88 C 166.25 387.27 167.52 388.54 169.50 390.38 C 171.48 392.21 174.77 395.15 176.88 396.88 C 178.98 398.60 180.44 399.62 182.12 400.75 C 183.81 401.88 185.31 402.81 187.00 403.62 C 188.69 404.44 190.44 405.29 192.25 405.62 C 194.06 405.96 196.33 405.96 197.88 405.62 C 199.42 405.29 199.67 404.90 201.50 403.62 C 203.33 402.35 206.40 399.73 208.88 398.00 C 211.35 396.27 211.21 396.08 216.38 393.25 C 221.54 390.42 233.02 384.42 239.88 381.00 C 246.73 377.58 254.48 374.44 257.50 372.75 C 260.52 371.06 257.94 373.48 258.00 370.88 C 258.06 368.27 258.10 359.46 257.88 357.12 Z" id="s-13-f-1"/>
<path d="M 209.88 397.38 C 211.29 392.48 210.06 378.42 210.00 374.25 C 209.94 370.08 210.15 372.46 209.50 372.38 C 208.85 372.29 207.83 373.23 206.12 373.75 C 204.42 374.27 201.67 375.00 199.25 375.50 C 196.83 376.00 196.15 376.83 191.62 376.75 C 187.10 376.67 176.40 375.29 172.12 375.00 C 167.85 374.71 167.40 374.81 166.00 375.00 C 164.60 375.19 164.42 375.54 163.75 376.12 C 163.08 376.71 162.31 377.62 162.00 378.50 C 161.69 379.38 161.77 380.62 161.88 381.38 C 161.98 382.12 161.33 381.48 162.62 383.00 C 163.92 384.52 166.52 387.65 169.62 390.50 C 172.73 393.35 177.94 397.75 181.25 400.12 C 184.56 402.50 187.33 403.79 189.50 404.75 C 191.67 405.71 192.81 405.75 194.25 405.88 C 195.69 406.00 196.92 405.88 198.12 405.50 C 199.33 405.12 199.54 404.98 201.50 403.62 C 203.46 402.27 208.46 402.27 209.88 397.38 Z" id="s-13-f-2"/>
</g>
<g id="s-14" clip-path="url(#c-s-14)">
<use href="#s-14-f-0"/>
<path d="M 423.25 259.00 C 421.71 258.08 419.31 256.98 417.00 256.00 C 414.69 255.02 411.35 253.79 409.38 253.12 C 407.40 252.46 406.71 252.19 405.12 252.00 C 403.54 251.81 401.54 251.83 399.88 252.00 C 398.21 252.17 397.33 252.23 395.12 253.00 C 392.92 253.77 391.75 254.83 386.62 256.62 C 381.50 258.42 371.58 261.90 364.38 263.75 C 357.17 265.60 348.92 266.88 343.38 267.75 C 337.83 268.62 333.67 268.67 331.12 269.00 C 328.58 269.33 329.69 269.56 328.12 269.75 C 326.56 269.94 323.44 269.83 321.75 270.12 C 320.06 270.42 318.62 270.60 318.00 271.50 C 317.38 272.40 317.60 274.44 318.00 275.50 C 318.40 276.56 319.65 277.29 320.38 277.88 C 321.10 278.46 320.42 278.33 322.38 279.00 C 324.33 279.67 329.19 281.21 332.12 281.88 C 335.06 282.54 337.29 282.85 340.00 283.00 C 342.71 283.15 343.17 283.94 348.38 282.75 C 353.58 281.56 367.08 277.06 371.25 275.88 C 375.42 274.69 372.88 275.77 373.38 275.62 C 373.88 275.48 373.75 275.15 374.25 275.00 C 374.75 274.85 375.79 274.92 376.38 274.75 C 376.96 274.58 376.52 274.29 377.75 274.00 C 378.98 273.71 382.19 273.15 383.75 273.00 C 385.31 272.85 386.23 272.98 387.12 273.12 C 388.02 273.27 388.52 273.40 389.12 273.88 C 389.73 274.35 390.50 274.88 390.75 276.00 C 391.00 277.12 391.12 277.27 390.62 280.62 C 390.12 283.98 388.56 292.17 387.75 296.12 C 386.94 300.08 387.25 299.21 385.75 304.38 C 384.25 309.54 381.60 319.48 378.75 327.12 C 375.90 334.77 371.17 345.00 368.62 350.25 C 366.08 355.50 365.06 356.31 363.50 358.62 C 361.94 360.94 359.92 363.06 359.25 364.12 C 358.58 365.19 355.00 364.88 359.50 365.00 C 364.00 365.12 380.40 366.92 386.25 364.88 C 392.10 362.83 392.06 357.10 394.62 352.75 C 397.19 348.40 398.60 345.58 401.62 338.75 C 404.65 331.92 409.33 320.73 412.75 311.75 C 416.17 302.77 419.29 291.69 422.12 284.88 C 424.96 278.06 428.48 273.85 429.75 270.88 C 431.02 267.90 429.96 268.10 429.75 267.00 C 429.54 265.90 429.08 265.17 428.50 264.25 C 427.92 263.33 427.12 262.38 426.25 261.50 C 425.38 260.62 424.79 259.92 423.25 259.00 Z" id="s-14-f-1"/>
<path d="M 429.88 268.00 C 429.88 267.21 429.98 267.31 429.62 266.50 C 429.27 265.69 428.35 264.00 427.75 263.12 C 427.15 262.25 427.00 262.08 426.00 261.25 C 425.00 260.42 424.52 259.48 421.75 258.12 C 418.98 256.77 412.15 254.15 409.38 253.12 C 406.60 252.10 406.48 252.21 405.12 252.00 C 403.77 251.79 402.92 251.71 401.25 251.88 C 399.58 252.04 397.56 252.21 395.12 253.00 C 392.69 253.79 391.75 254.83 386.62 256.62 C 381.50 258.42 371.58 261.90 364.38 263.75 C 357.17 265.60 350.58 266.67 343.38 267.75 C 336.17 268.83 325.35 269.62 321.12 270.25 C 316.90 270.88 318.56 270.85 318.00 271.50 C 317.44 272.15 317.75 273.46 317.75 274.12 C 317.75 274.79 317.62 274.92 318.00 275.50 C 318.38 276.08 318.92 276.90 320.00 277.62 C 321.08 278.35 322.48 279.17 324.50 279.88 C 326.52 280.58 330.21 281.50 332.12 281.88 C 334.04 282.25 334.98 281.96 336.00 282.12 C 337.02 282.29 336.19 282.77 338.25 282.88 C 340.31 282.98 341.71 284.25 348.38 282.75 C 355.04 281.25 372.33 275.50 378.25 273.88 C 384.17 272.25 382.40 273.12 383.88 273.00 C 385.35 272.88 386.25 272.98 387.12 273.12 C 388.00 273.27 388.52 273.40 389.12 273.88 C 389.73 274.35 390.50 274.85 390.75 276.00 C 391.00 277.15 390.79 279.02 390.62 280.75 C 390.46 282.48 390.56 282.44 389.75 286.38 C 388.94 290.31 387.04 299.35 385.75 304.38 C 384.46 309.40 382.29 314.40 382.00 316.50 C 381.71 318.60 379.27 316.94 384.00 317.00 C 388.73 317.06 405.79 317.23 410.38 316.88 C 414.96 316.52 409.75 319.71 411.50 314.88 C 413.25 310.04 418.77 293.56 420.88 287.88 C 422.98 282.19 422.67 283.52 424.12 280.75 C 425.58 277.98 428.67 273.38 429.62 271.25 C 430.58 269.12 429.88 268.79 429.88 268.00 Z" id="s-14-f-2"/>
<path d="M 429.75 267.00 C 429.50 266.02 428.38 264.08 427.75 263.12 C 427.12 262.17 427.00 262.08 426.00 261.25 C 425.00 260.42 424.52 259.48 421.75 258.12 C 418.98 256.77 412.15 254.15 409.38 253.12 C 406.60 252.10 406.48 252.21 405.12 252.00 C 403.77 251.79 402.92 251.71 401.25 251.88 C 399.58 252.04 398.48 251.90 395.12 253.00 C 391.77 254.10 386.25 256.71 381.12 258.50 C 376.00 260.29 370.67 262.21 364.38 263.75 C 358.08 265.29 350.92 266.56 343.38 267.75 C 335.83 268.94 323.35 270.21 319.12 270.88 C 314.90 271.54 318.23 271.17 318.00 271.75 C 317.77 272.33 317.44 273.46 317.75 274.38 C 318.06 275.29 318.58 276.31 319.88 277.25 C 321.17 278.19 323.38 279.25 325.50 280.00 C 327.62 280.75 329.54 281.25 332.62 281.75 C 335.71 282.25 341.40 282.85 344.00 283.00 C 346.60 283.15 342.08 284.25 348.25 282.62 C 354.42 281.00 368.29 275.40 381.00 273.25 C 393.71 271.10 416.46 270.46 424.50 269.75 C 432.54 269.04 428.38 269.46 429.25 269.00 C 430.12 268.54 430.00 267.98 429.75 267.00 Z" id="s-14-f-3"/>
<path d="M 408.88 253.50 C 408.75 250.56 408.88 253.12 408.25 252.88 C 407.62 252.62 406.67 252.12 405.12 252.00 C 403.58 251.88 400.73 251.94 399.00 252.12 C 397.27 252.31 397.73 252.06 394.75 253.12 C 391.77 254.19 386.19 256.73 381.12 258.50 C 376.06 260.27 370.67 262.21 364.38 263.75 C 358.08 265.29 350.92 266.56 343.38 267.75 C 335.83 268.94 323.38 270.15 319.12 270.88 C 314.88 271.60 318.08 271.44 317.88 272.12 C 317.67 272.81 317.54 274.15 317.88 275.00 C 318.21 275.85 318.69 276.44 319.88 277.25 C 321.06 278.06 322.88 279.12 325.00 279.88 C 327.12 280.62 329.46 281.23 332.62 281.75 C 335.79 282.27 341.40 282.85 344.00 283.00 C 346.60 283.15 342.06 284.25 348.25 282.62 C 354.44 281.00 371.08 275.19 381.12 273.25 C 391.17 271.31 403.85 271.46 408.50 271.00 C 413.15 270.54 408.94 273.42 409.00 270.50 C 409.06 267.58 409.00 256.44 408.88 253.50 Z" id="s-14-f-4"/>
<path d="M 360.88 265.00 C 360.71 262.67 362.79 264.17 359.88 264.62 C 356.96 265.08 350.17 266.71 343.38 267.75 C 336.58 268.79 323.35 270.21 319.12 270.88 C 314.90 271.54 318.23 271.12 318.00 271.75 C 317.77 272.38 317.58 273.83 317.75 274.62 C 317.92 275.42 318.50 275.96 319.00 276.50 C 319.50 277.04 319.75 277.31 320.75 277.88 C 321.75 278.44 323.71 279.38 325.00 279.88 C 326.29 280.38 325.69 280.35 328.50 280.88 C 331.31 281.40 338.58 282.71 341.88 283.00 C 345.17 283.29 345.40 283.19 348.25 282.62 C 351.10 282.06 356.90 280.29 359.00 279.62 C 361.10 278.96 360.56 281.06 360.88 278.62 C 361.19 276.19 361.04 267.33 360.88 265.00 Z" id="s-14-f-5"/>
</g>
<g id="s-15" clip-path="url(#c-s-15)">
<use href="#s-15-f-0"/>
<path d="M 313.50 271.75 C 312.88 272.38 311.27 273.94 310.88 274.88 C 310.48 275.81 310.90 276.65 311.12 277.38 C 311.35 278.10 311.46 278.35 312.25 279.25 C 313.04 280.15 314.02 281.46 315.88 282.75 C 317.73 284.04 321.38 285.73 323.38 287.00 C 325.38 288.27 325.83 288.54 327.88 290.38 C 329.92 292.21 333.62 295.83 335.62 298.00 C 337.62 300.17 335.85 297.31 339.88 303.38 C 343.90 309.44 355.10 326.94 359.75 334.38 C 364.40 341.81 366.10 345.00 367.75 348.00 C 369.40 351.00 367.46 348.65 369.62 352.38 C 371.79 356.10 378.56 367.06 380.75 370.38 C 382.94 373.69 381.21 369.92 382.75 372.25 C 384.29 374.58 387.29 380.19 390.00 384.38 C 392.71 388.56 395.73 393.00 399.00 397.38 C 402.27 401.75 406.25 406.75 409.62 410.62 C 413.00 414.50 417.06 418.62 419.25 420.62 C 421.44 422.62 421.69 422.12 422.75 422.62 C 423.81 423.12 423.73 423.25 425.62 423.62 C 427.52 424.00 430.85 424.69 434.12 424.88 C 437.40 425.06 441.88 424.96 445.25 424.75 C 448.62 424.54 452.75 424.10 454.38 423.62 C 456.00 423.15 454.94 426.25 455.00 421.88 C 455.06 417.50 457.06 402.71 454.75 397.38 C 452.44 392.04 446.35 393.00 441.12 389.88 C 435.90 386.75 427.81 381.62 423.38 378.62 C 418.94 375.62 417.56 374.44 414.50 371.88 C 411.44 369.31 408.08 366.38 405.00 363.25 C 401.92 360.12 398.00 355.60 396.00 353.12 C 394.00 350.65 395.81 352.17 393.00 348.38 C 390.19 344.58 381.98 333.92 379.12 330.38 C 376.27 326.83 381.75 335.15 375.88 327.12 C 370.00 319.10 352.85 291.50 343.88 282.25 C 334.90 273.00 326.06 273.52 322.00 271.62 C 317.94 269.73 320.73 270.96 319.50 270.88 C 318.27 270.79 315.62 270.98 314.62 271.12 C 313.62 271.27 314.12 271.12 313.50 271.75 Z" id="s-15-f-1"/>
<path d="M 313.50 271.75 C 312.88 272.38 311.27 273.94 310.88 274.88 C 310.48 275.81 310.90 276.65 311.12 277.38 C 311.35 278.10 311.46 278.35 312.25 279.25 C 313.04 280.15 314.02 281.46 315.88 282.75 C 317.73 284.04 321.38 285.73 323.38 287.00 C 325.38 288.27 325.83 288.54 327.88 290.38 C 329.92 292.21 333.62 295.83 335.62 298.00 C 337.62 300.17 335.85 297.31 339.88 303.38 C 343.90 309.44 355.10 326.94 359.75 334.38 C 364.40 341.81 366.10 345.00 367.75 348.00 C 369.40 351.00 367.46 348.65 369.62 352.38 C 371.79 356.10 378.56 367.06 380.75 370.38 C 382.94 373.69 381.21 369.92 382.75 372.25 C 384.29 374.58 387.29 380.19 390.00 384.38 C 392.71 388.56 396.38 393.75 399.00 397.38 C 401.62 401.00 404.48 404.58 405.75 406.12 C 407.02 407.67 406.42 406.98 406.62 406.62 C 406.83 406.27 406.94 410.81 407.00 404.00 C 407.06 397.19 407.06 372.27 407.00 365.75 C 406.94 359.23 408.46 366.98 406.62 364.88 C 404.79 362.77 398.27 355.88 396.00 353.12 C 393.73 350.38 395.81 352.17 393.00 348.38 C 390.19 344.58 381.81 333.69 379.12 330.38 C 376.44 327.06 382.71 336.48 376.88 328.50 C 371.04 320.52 353.27 291.98 344.12 282.50 C 334.98 273.02 326.10 273.56 322.00 271.62 C 317.90 269.69 320.73 270.96 319.50 270.88 C 318.27 270.79 315.62 270.98 314.62 271.12 C 313.62 271.27 314.12 271.12 313.50 271.75 Z" id="s-15-f-2"/>
<path d="M 313.50 271.75 C 312.88 272.40 311.27 274.06 310.88 275.00 C 310.48 275.94 310.90 276.67 311.12 277.38 C 311.35 278.08 311.46 278.35 312.25 279.25 C 313.04 280.15 314.02 281.46 315.88 282.75 C 317.73 284.04 321.50 285.83 323.38 287.00 C 325.25 288.17 325.15 287.98 327.12 289.75 C 329.10 291.52 332.75 294.81 335.25 297.62 C 337.75 300.44 338.33 300.90 342.12 306.62 C 345.92 312.35 355.25 327.73 358.00 332.00 C 360.75 336.27 358.46 332.52 358.62 332.25 C 358.79 331.98 358.96 335.19 359.00 330.38 C 359.04 325.56 361.35 311.35 358.88 303.38 C 356.40 295.40 350.27 287.79 344.12 282.50 C 337.98 277.21 326.46 273.56 322.00 271.62 C 317.54 269.69 318.60 270.96 317.38 270.88 C 316.15 270.79 315.27 270.98 314.62 271.12 C 313.98 271.27 314.12 271.10 313.50 271.75 Z" id="s-15-f-3"/>
</g>
</svg>