<?xml version="1.0" encoding="UTF-8"?>
<svg xmlns="http://www.w3.org/2000/svg" viewBox="0 0 500 500">
<defs>
<path d="M 145.38 60.88 C 142.98 59.08 140.52 57.42 138.00 56.12 C 135.48 54.83 132.44 53.65 130.25 53.12 C 128.06 52.60 126.23 52.69 124.88 53.00 C 123.52 53.31 122.77 54.23 122.12 55.00 C 121.48 55.77 121.23 56.04 121.00 57.62 C 120.77 59.21 120.96 62.04 120.75 64.50 C 120.54 66.96 120.42 69.23 119.75 72.38 C 119.08 75.52 118.27 79.19 116.75 83.38 C 115.23 87.56 113.62 91.40 110.62 97.50 C 107.62 103.60 101.88 114.38 98.75 120.00 C 95.62 125.62 95.56 125.83 91.88 131.25 C 88.19 136.67 81.35 146.29 76.62 152.50 C 71.90 158.71 68.44 162.71 63.50 168.50 C 58.56 174.29 49.69 184.02 47.00 187.25 C 44.31 190.48 46.54 187.83 47.38 187.88 C 48.21 187.92 49.48 188.35 52.00 187.50 C 54.52 186.65 58.33 185.02 62.50 182.75 C 66.67 180.48 72.69 176.73 77.00 173.88 C 81.31 171.02 85.00 168.25 88.38 165.62 C 91.75 163.00 94.19 160.88 97.25 158.12 C 100.31 155.38 102.15 154.10 106.75 149.12 C 111.35 144.15 119.83 134.40 124.88 128.25 C 129.92 122.10 132.29 118.71 137.00 112.25 C 141.71 105.79 149.33 94.54 153.12 89.50 C 156.92 84.46 158.67 83.98 159.75 82.00 C 160.83 80.02 159.96 79.06 159.62 77.62 C 159.29 76.19 158.96 75.17 157.75 73.38 C 156.54 71.58 154.44 68.96 152.38 66.88 C 150.31 64.79 147.77 62.67 145.38 60.88 Z" id="s-0-f-0"/>
<clipPath id="c-s-0"><use href="#s-0-f-0"/></clipPath>
<path d="M 153.62 170.50 C 151.71 168.44 151.90 168.42 148.38 167.00 C 144.85 165.58 136.12 163.02 132.50 162.00 C 128.88 160.98 128.44 161.04 126.62 160.88 C 124.81 160.71 122.83 160.83 121.62 161.00 C 120.42 161.17 119.83 161.58 119.38 161.88 C 118.92 162.17 119.15 159.92 118.88 162.75 C 118.60 165.58 118.27 174.88 117.75 178.88 C 117.23 182.88 117.58 182.21 115.75 186.75 C 113.92 191.29 110.06 199.69 106.75 206.12 C 103.44 212.56 100.69 217.69 95.88 225.38 C 91.06 233.06 84.06 243.46 77.88 252.25 C 71.69 261.04 64.17 271.08 58.75 278.12 C 53.33 285.17 48.71 290.54 45.38 294.50 C 42.04 298.46 42.15 298.29 38.75 301.88 C 35.35 305.46 28.08 312.94 25.00 316.00 C 21.92 319.06 21.04 319.25 20.25 320.25 C 19.46 321.25 20.06 321.58 20.25 322.00 C 20.44 322.42 20.58 322.62 21.38 322.75 C 22.17 322.88 23.96 322.92 25.00 322.75 C 26.04 322.58 26.48 322.33 27.62 321.75 C 28.77 321.17 30.58 320.17 31.88 319.25 C 33.17 318.33 33.50 317.38 35.38 316.25 C 37.25 315.12 40.58 313.96 43.12 312.50 C 45.67 311.04 47.83 309.60 50.62 307.50 C 53.42 305.40 55.42 303.92 59.88 299.88 C 64.33 295.83 71.65 288.94 77.38 283.25 C 83.10 277.56 88.50 272.04 94.25 265.75 C 100.00 259.46 105.38 253.88 111.88 245.50 C 118.38 237.12 128.38 222.17 133.25 215.50 C 138.12 208.83 137.02 210.10 141.12 205.50 C 145.23 200.90 154.79 191.50 157.88 187.88 C 160.96 184.25 159.29 185.17 159.62 183.75 C 159.96 182.33 160.88 181.58 159.88 179.38 C 158.88 177.17 155.54 172.56 153.62 170.50 Z" id="s-1-f-0"/>
<clipPath id="c-s-1"><use href="#s-1-f-0"/></clipPath>
<path d="M 112.12 243.50 C 110.98 242.96 113.08 243.02 111.00 245.50 C 108.92 247.98 101.00 253.75 99.62 258.38 C 98.25 263.00 102.08 269.19 102.75 273.25 C 103.42 277.31 103.48 276.58 103.62 282.75 C 103.77 288.92 103.83 301.27 103.62 310.25 C 103.42 319.23 103.04 328.27 102.38 336.62 C 101.71 344.98 100.42 354.77 99.62 360.38 C 98.83 365.98 98.29 367.48 97.62 370.25 C 96.96 373.02 96.73 374.02 95.62 377.00 C 94.52 379.98 92.27 384.79 91.00 388.12 C 89.73 391.46 88.48 394.44 88.00 397.00 C 87.52 399.56 87.79 401.25 88.12 403.50 C 88.46 405.75 88.52 406.33 90.00 410.50 C 91.48 414.67 95.31 424.56 97.00 428.50 C 98.69 432.44 99.15 432.56 100.12 434.12 C 101.10 435.69 101.94 436.77 102.88 437.88 C 103.81 438.98 104.85 440.08 105.75 440.75 C 106.65 441.42 107.48 441.71 108.25 441.88 C 109.02 442.04 109.79 441.92 110.38 441.75 C 110.96 441.58 111.27 441.29 111.75 440.88 C 112.23 440.46 112.73 440.02 113.25 439.25 C 113.77 438.48 113.79 439.10 114.88 436.25 C 115.96 433.40 118.44 426.60 119.75 422.12 C 121.06 417.65 121.75 420.60 122.75 409.38 C 123.75 398.15 125.19 369.81 125.75 354.75 C 126.31 339.69 125.92 329.44 126.12 319.00 C 126.33 308.56 126.69 298.21 127.00 292.12 C 127.31 286.04 127.56 284.85 128.00 282.50 C 128.44 280.15 129.15 279.69 129.62 278.00 C 130.10 276.31 130.69 273.71 130.88 272.38 C 131.06 271.04 130.94 270.88 130.75 270.00 C 130.56 269.12 130.73 269.06 129.75 267.12 C 128.77 265.19 126.85 261.44 124.88 258.38 C 122.90 255.31 120.00 251.23 117.88 248.75 C 115.75 246.27 113.27 244.04 112.12 243.50 Z" id="s-2-f-0"/>
<clipPath id="c-s-2"><use href="#s-2-f-0"/></clipPath>
<path d="M 306.88 112.62 C 306.88 111.90 307.06 112.08 306.75 111.38 C 306.44 110.67 306.21 109.60 305.00 108.38 C 303.79 107.15 302.54 105.73 299.50 104.00 C 296.46 102.27 289.98 99.33 286.75 98.00 C 283.52 96.67 281.96 96.35 280.12 96.00 C 278.29 95.65 276.98 95.83 275.75 95.88 C 274.52 95.92 274.29 95.88 272.75 96.25 C 271.21 96.62 269.06 97.19 266.50 98.12 C 263.94 99.06 260.38 100.77 257.38 101.88 C 254.38 102.98 252.00 103.77 248.50 104.75 C 245.00 105.73 238.90 107.23 236.38 107.75 C 233.85 108.27 238.65 107.06 233.38 107.88 C 228.10 108.69 215.06 111.27 204.75 112.62 C 194.44 113.98 177.27 115.25 171.50 116.00 C 165.73 116.75 170.40 116.79 170.12 117.12 C 169.85 117.46 169.56 117.48 169.88 118.00 C 170.19 118.52 170.23 118.94 172.00 120.25 C 173.77 121.56 178.62 124.79 180.50 125.88 C 182.38 126.96 181.85 126.58 183.25 126.75 C 184.65 126.92 184.06 127.21 188.88 126.88 C 193.69 126.54 205.25 125.60 212.12 124.75 C 219.00 123.90 226.40 122.52 230.12 121.75 C 233.85 120.98 230.65 120.92 234.50 120.12 C 238.35 119.33 248.04 117.69 253.25 117.00 C 258.46 116.31 262.90 116.10 265.75 116.00 C 268.60 115.90 269.33 116.12 270.38 116.38 C 271.42 116.62 271.60 117.04 272.00 117.50 C 272.40 117.96 272.65 117.92 272.75 119.12 C 272.85 120.33 272.81 122.65 272.62 124.75 C 272.44 126.85 272.27 128.67 271.62 131.75 C 270.98 134.83 270.19 139.02 268.75 143.25 C 267.31 147.48 263.92 154.69 263.00 157.12 C 262.08 159.56 263.02 157.73 263.25 157.88 C 263.48 158.02 261.54 158.33 264.38 158.00 C 267.21 157.67 276.81 156.44 280.25 155.88 C 283.69 155.31 282.85 158.33 285.00 154.62 C 287.15 150.92 291.27 138.00 293.12 133.62 C 294.98 129.25 295.29 129.67 296.12 128.38 C 296.96 127.08 296.52 127.60 298.12 125.88 C 299.73 124.15 304.31 119.69 305.75 118.00 C 307.19 116.31 306.56 116.65 306.75 115.75 C 306.94 114.85 306.88 113.35 306.88 112.62 Z" id="s-3-f-0"/>
<clipPath id="c-s-3"><use href="#s-3-f-0"/></clipPath>
<path d="M 225.25 38.12 C 222.08 37.62 217.62 37.98 215.62 38.12 C 213.62 38.27 214.02 38.46 213.25 39.00 C 212.48 39.54 211.38 40.50 211.00 41.38 C 210.62 42.25 210.42 42.33 211.00 44.25 C 211.58 46.17 213.71 50.69 214.50 52.88 C 215.29 55.06 215.38 55.17 215.75 57.38 C 216.12 59.58 216.62 63.21 216.75 66.12 C 216.88 69.04 217.17 68.98 216.50 74.88 C 215.83 80.77 213.69 95.42 212.75 101.50 C 211.81 107.58 211.29 109.54 210.88 111.38 C 210.46 113.21 210.29 112.29 210.25 112.50 C 210.21 112.71 210.73 112.52 210.62 112.62 C 210.52 112.73 209.83 112.04 209.62 113.12 C 209.42 114.21 209.54 117.88 209.38 119.12 C 209.21 120.38 208.77 119.38 208.62 120.62 C 208.48 121.88 208.92 124.00 208.50 126.62 C 208.08 129.25 207.38 130.29 206.12 136.38 C 204.88 142.46 201.85 158.42 201.00 163.12 C 200.15 167.83 200.92 164.31 201.00 164.62 C 201.08 164.94 198.25 165.27 201.50 165.00 C 204.75 164.73 217.17 163.58 220.50 163.00 C 223.83 162.42 219.52 168.23 221.50 161.50 C 223.48 154.77 230.29 129.54 232.38 122.62 C 234.46 115.71 233.67 121.10 234.00 120.00 C 234.33 118.90 234.19 116.85 234.38 116.00 C 234.56 115.15 234.96 115.58 235.12 114.88 C 235.29 114.17 235.21 112.46 235.38 111.75 C 235.54 111.04 236.00 111.31 236.12 110.62 C 236.25 109.94 235.38 110.71 236.12 107.62 C 236.88 104.54 239.17 97.54 240.62 92.12 C 242.08 86.71 243.65 79.12 244.88 75.12 C 246.10 71.12 246.50 70.69 248.00 68.12 C 249.50 65.56 252.92 61.62 253.88 59.75 C 254.83 57.88 254.06 57.92 253.75 56.88 C 253.44 55.83 253.25 55.00 252.00 53.50 C 250.75 52.00 248.10 49.44 246.25 47.88 C 244.40 46.31 242.81 45.25 240.88 44.12 C 238.94 43.00 237.23 42.12 234.62 41.12 C 232.02 40.12 228.42 38.62 225.25 38.12 Z" id="s-4-f-0"/>
<clipPath id="c-s-4"><use href="#s-4-f-0"/></clipPath>
<path d="M 337.75 166.88 C 337.62 166.29 337.90 166.35 337.00 165.38 C 336.10 164.40 334.65 162.73 332.38 161.00 C 330.10 159.27 326.35 156.50 323.38 155.00 C 320.40 153.50 316.65 152.67 314.50 152.00 C 312.35 151.33 311.71 151.19 310.50 151.00 C 309.29 150.81 309.62 150.69 307.25 150.88 C 304.88 151.06 299.73 151.62 296.25 152.12 C 292.77 152.62 288.25 153.48 286.38 153.88 C 284.50 154.27 286.02 154.35 285.00 154.50 C 283.98 154.65 281.29 154.60 280.25 154.75 C 279.21 154.90 279.83 155.23 278.75 155.38 C 277.67 155.52 275.02 155.46 273.75 155.62 C 272.48 155.79 272.54 156.15 271.12 156.38 C 269.71 156.60 266.31 156.96 265.25 157.00 C 264.19 157.04 265.23 156.48 264.75 156.62 C 264.27 156.77 266.31 157.29 262.38 157.88 C 258.44 158.46 247.83 159.31 241.12 160.12 C 234.42 160.94 226.35 162.33 222.12 162.75 C 217.90 163.17 217.52 162.50 215.75 162.62 C 213.98 162.75 213.17 163.33 211.50 163.50 C 209.83 163.67 207.60 163.40 205.75 163.62 C 203.90 163.85 203.54 164.35 200.38 164.88 C 197.21 165.40 193.98 165.90 186.75 166.75 C 179.52 167.60 162.48 169.27 157.00 170.00 C 151.52 170.73 154.44 170.81 153.88 171.12 C 153.31 171.44 153.52 171.65 153.62 171.88 C 153.73 172.10 153.67 171.29 154.50 172.50 C 155.33 173.71 157.35 177.60 158.62 179.12 C 159.90 180.65 160.17 180.69 162.12 181.62 C 164.08 182.56 168.17 184.06 170.38 184.75 C 172.58 185.44 173.60 185.56 175.38 185.75 C 177.15 185.94 178.08 186.04 181.00 185.88 C 183.92 185.71 184.98 185.71 192.88 184.75 C 200.77 183.79 218.71 181.27 228.38 180.12 C 238.04 178.98 240.23 178.69 250.88 177.88 C 261.52 177.06 279.06 175.96 292.25 175.25 C 305.44 174.54 323.15 174.04 330.00 173.62 C 336.85 173.21 332.46 173.08 333.38 172.75 C 334.29 172.42 334.77 172.27 335.50 171.62 C 336.23 170.98 337.38 169.67 337.75 168.88 C 338.12 168.08 337.88 167.46 337.75 166.88 Z" id="s-5-f-0"/>
<clipPath id="c-s-5"><use href="#s-5-f-0"/></clipPath>
<path d="M 164.38 207.25 C 162.38 207.56 162.58 208.23 162.25 209.00 C 161.92 209.77 161.69 211.02 162.38 211.88 C 163.06 212.73 165.02 213.06 166.38 214.12 C 167.73 215.19 169.10 216.10 170.50 218.25 C 171.90 220.40 173.02 221.46 174.75 227.00 C 176.48 232.54 179.50 245.54 180.88 251.50 C 182.25 257.46 182.15 259.92 183.00 262.75 C 183.85 265.58 185.17 267.15 186.00 268.50 C 186.83 269.85 187.44 270.33 188.00 270.88 C 188.56 271.42 188.67 271.60 189.38 271.75 C 190.08 271.90 191.48 272.02 192.25 271.75 C 193.02 271.48 193.42 271.00 194.00 270.12 C 194.58 269.25 195.25 269.04 195.75 266.50 C 196.25 263.96 196.83 257.77 197.00 254.88 C 197.17 251.98 197.25 253.65 196.75 249.12 C 196.25 244.60 194.50 232.15 194.00 227.75 C 193.50 223.35 196.06 225.88 193.75 222.75 C 191.44 219.62 183.38 211.60 180.12 209.00 C 176.88 206.40 176.88 207.42 174.25 207.12 C 171.62 206.83 166.38 206.94 164.38 207.25 Z" id="s-6-f-0"/>
<clipPath id="c-s-6"><use href="#s-6-f-0"/></clipPath>
<path d="M 310.88 217.38 C 311.08 216.65 311.27 216.27 310.62 215.12 C 309.98 213.98 309.06 212.38 307.00 210.50 C 304.94 208.62 301.40 205.94 298.25 203.88 C 295.10 201.81 291.44 199.75 288.12 198.12 C 284.81 196.50 280.33 194.83 278.38 194.12 C 276.42 193.42 277.31 193.88 276.38 193.88 C 275.44 193.88 274.75 193.65 272.75 194.12 C 270.75 194.60 266.58 196.15 264.38 196.75 C 262.17 197.35 266.79 196.71 259.50 197.75 C 252.21 198.79 231.48 201.33 220.62 203.00 C 209.77 204.67 201.00 206.77 194.38 207.75 C 187.75 208.73 183.31 208.60 180.88 208.88 C 178.44 209.15 179.92 209.19 179.75 209.38 C 179.58 209.56 179.69 209.83 179.88 210.00 C 180.06 210.17 178.67 208.21 180.88 210.38 C 183.08 212.54 190.69 220.94 193.12 223.00 C 195.56 225.06 194.56 223.08 195.50 222.75 C 196.44 222.42 196.98 221.60 198.75 221.00 C 200.52 220.40 200.77 220.12 206.12 219.12 C 211.48 218.12 223.31 216.02 230.88 215.00 C 238.44 213.98 246.85 213.31 251.50 213.00 C 256.15 212.69 256.79 212.96 258.75 213.12 C 260.71 213.29 261.92 213.50 263.25 214.00 C 264.58 214.50 266.00 215.46 266.75 216.12 C 267.50 216.79 267.58 217.44 267.75 218.00 C 267.92 218.56 268.88 215.40 267.75 219.50 C 266.62 223.60 261.73 238.56 261.00 242.62 C 260.27 246.69 260.10 242.98 263.38 243.88 C 266.65 244.77 277.42 247.58 280.62 248.00 C 283.83 248.42 280.50 248.94 282.62 246.38 C 284.75 243.81 290.85 235.71 293.38 232.62 C 295.90 229.54 296.25 229.31 297.75 227.88 C 299.25 226.44 300.44 225.40 302.38 224.00 C 304.31 222.60 307.96 220.60 309.38 219.50 C 310.79 218.40 310.67 218.10 310.88 217.38 Z" id="s-7-f-0"/>
<clipPath id="c-s-7"><use href="#s-7-f-0"/></clipPath>
<path d="M 288.88 255.00 C 288.50 253.96 287.83 252.56 286.38 251.25 C 284.92 249.94 281.79 247.94 280.12 247.12 C 278.46 246.31 277.23 246.62 276.38 246.38 C 275.52 246.12 275.67 245.79 275.00 245.62 C 274.33 245.46 273.04 245.54 272.38 245.38 C 271.71 245.21 271.67 244.79 271.00 244.62 C 270.33 244.46 269.04 244.54 268.38 244.38 C 267.71 244.21 267.67 243.79 267.00 243.62 C 266.33 243.46 265.02 243.54 264.38 243.38 C 263.73 243.21 263.62 242.75 263.12 242.62 C 262.62 242.50 264.38 242.23 261.38 242.62 C 258.38 243.02 251.12 243.98 245.12 245.00 C 239.12 246.02 233.44 247.60 225.38 248.75 C 217.31 249.90 201.69 250.52 196.75 251.88 C 191.81 253.23 195.96 254.77 195.75 256.88 C 195.54 258.98 195.50 263.15 195.50 264.50 C 195.50 265.85 195.15 264.79 195.75 265.00 C 196.35 265.21 196.58 265.62 199.12 265.75 C 201.67 265.88 202.15 266.42 211.00 265.75 C 219.85 265.08 243.21 262.71 252.25 261.75 C 261.29 260.79 259.38 260.52 265.25 260.00 C 271.12 259.48 283.60 259.04 287.50 258.62 C 291.40 258.21 288.40 258.10 288.62 257.50 C 288.85 256.90 289.25 256.04 288.88 255.00 Z" id="s-8-f-0"/>
<clipPath id="c-s-8"><use href="#s-8-f-0"/></clipPath>
<path d="M 315.88 290.00 C 315.69 289.10 315.02 287.58 314.50 286.75 C 313.98 285.92 313.56 285.62 312.75 285.00 C 311.94 284.38 311.90 284.00 309.62 283.00 C 307.35 282.00 301.62 279.83 299.12 279.00 C 296.62 278.17 296.21 278.19 294.62 278.00 C 293.04 277.81 291.81 277.71 289.62 277.88 C 287.44 278.04 285.54 278.19 281.50 279.00 C 277.46 279.81 272.19 281.46 265.38 282.75 C 258.56 284.04 250.58 285.40 240.62 286.75 C 230.67 288.10 218.46 289.62 205.62 290.88 C 192.79 292.12 171.38 293.56 163.62 294.25 C 155.88 294.94 160.33 294.71 159.12 295.00 C 157.92 295.29 156.90 295.44 156.38 296.00 C 155.85 296.56 155.71 297.46 156.00 298.38 C 156.29 299.29 157.35 300.62 158.12 301.50 C 158.90 302.38 159.31 302.77 160.62 303.62 C 161.94 304.48 164.50 305.96 166.00 306.62 C 167.50 307.29 167.60 307.27 169.62 307.62 C 171.65 307.98 173.50 308.58 178.12 308.75 C 182.75 308.92 190.23 308.94 197.38 308.62 C 204.52 308.31 213.33 307.65 221.00 306.88 C 228.67 306.10 238.00 304.54 243.38 304.00 C 248.75 303.46 244.90 304.50 253.25 303.62 C 261.60 302.75 284.85 299.92 293.50 298.75 C 302.15 297.58 302.04 297.29 305.12 296.62 C 308.21 295.96 310.56 295.21 312.00 294.75 C 313.44 294.29 313.15 294.31 313.75 293.88 C 314.35 293.44 315.27 292.77 315.62 292.12 C 315.98 291.48 316.06 290.90 315.88 290.00 Z" id="s-9-f-0"/>
<clipPath id="c-s-9"><use href="#s-9-f-0"/></clipPath>
<path d="M 165.25 342.00 C 163.79 342.15 163.75 342.54 163.25 342.88 C 162.75 343.21 162.48 343.27 162.25 344.00 C 162.02 344.73 161.29 345.06 161.88 347.25 C 162.46 349.44 164.94 354.67 165.75 357.12 C 166.56 359.58 166.44 359.94 166.75 362.00 C 167.06 364.06 167.46 366.27 167.62 369.50 C 167.79 372.73 167.88 378.56 167.75 381.38 C 167.62 384.19 167.21 385.08 166.88 386.38 C 166.54 387.67 166.50 387.69 165.75 389.12 C 165.00 390.56 163.33 393.50 162.38 395.00 C 161.42 396.50 160.40 396.79 160.00 398.12 C 159.60 399.46 159.67 401.00 160.00 403.00 C 160.33 405.00 161.00 407.56 162.00 410.12 C 163.00 412.69 164.81 416.31 166.00 418.38 C 167.19 420.44 168.31 421.60 169.12 422.50 C 169.94 423.40 170.31 423.52 170.88 423.75 C 171.44 423.98 171.69 424.40 172.50 423.88 C 173.31 423.35 174.54 422.56 175.75 420.62 C 176.96 418.69 178.75 414.67 179.75 412.25 C 180.75 409.83 181.10 408.67 181.75 406.12 C 182.40 403.58 183.12 399.98 183.62 397.00 C 184.12 394.02 184.40 392.10 184.75 388.25 C 185.10 384.40 185.54 380.27 185.75 373.88 C 185.96 367.48 186.02 354.10 186.00 349.88 C 185.98 345.65 186.40 349.31 185.62 348.50 C 184.85 347.69 182.79 345.90 181.38 345.00 C 179.96 344.10 178.69 343.62 177.12 343.12 C 175.56 342.62 173.98 342.19 172.00 342.00 C 170.02 341.81 166.71 341.85 165.25 342.00 Z" id="s-10-f-0"/>
<clipPath id="c-s-10"><use href="#s-10-f-0"/></clipPath>
<path d="M 318.88 349.00 C 318.73 348.17 318.58 347.52 317.88 346.50 C 317.17 345.48 315.75 343.98 314.62 342.88 C 313.50 341.77 312.50 340.85 311.12 339.88 C 309.75 338.90 308.52 338.17 306.38 337.00 C 304.23 335.83 300.38 333.85 298.25 332.88 C 296.12 331.90 295.50 331.44 293.62 331.12 C 291.75 330.81 289.17 330.85 287.00 331.00 C 284.83 331.15 282.60 331.54 280.62 332.00 C 278.65 332.46 281.10 332.46 275.12 333.75 C 269.15 335.04 250.35 338.73 244.75 339.75 C 239.15 340.77 245.54 339.19 241.50 339.88 C 237.46 340.56 229.69 342.40 220.50 343.88 C 211.31 345.35 192.21 347.83 186.38 348.75 C 180.54 349.67 185.65 347.27 185.50 349.38 C 185.35 351.48 185.44 359.29 185.50 361.38 C 185.56 363.46 185.60 361.81 185.88 361.88 C 186.15 361.94 185.52 362.23 187.12 361.75 C 188.73 361.27 192.38 359.79 195.50 359.00 C 198.62 358.21 199.90 357.85 205.88 357.00 C 211.85 356.15 225.12 354.73 231.38 353.88 C 237.62 353.02 236.98 352.52 243.38 351.88 C 249.77 351.23 263.83 350.31 269.75 350.00 C 275.67 349.69 276.46 349.73 278.88 350.00 C 281.29 350.27 283.12 351.02 284.25 351.62 C 285.38 352.23 285.27 352.65 285.62 353.62 C 285.98 354.60 286.19 354.54 286.38 357.50 C 286.56 360.46 286.85 367.33 286.75 371.38 C 286.65 375.42 286.08 379.27 285.75 381.75 C 285.42 384.23 285.23 384.77 284.75 386.25 C 284.27 387.73 283.46 389.54 282.88 390.62 C 282.29 391.71 281.88 392.21 281.25 392.75 C 280.62 393.29 279.98 393.56 279.12 393.88 C 278.27 394.19 277.40 394.48 276.12 394.62 C 274.85 394.77 273.81 394.90 271.50 394.75 C 269.19 394.60 264.42 394.06 262.25 393.75 C 260.08 393.44 259.48 393.02 258.50 392.88 C 257.52 392.73 256.81 392.79 256.38 392.88 C 255.94 392.96 255.77 392.81 255.88 393.38 C 255.98 393.94 255.65 394.54 257.00 396.25 C 258.35 397.96 262.00 401.27 264.00 403.62 C 266.00 405.98 267.42 408.04 269.00 410.38 C 270.58 412.71 272.19 415.31 273.50 417.62 C 274.81 419.94 275.94 422.90 276.88 424.25 C 277.81 425.60 277.92 425.50 279.12 425.75 C 280.33 426.00 282.25 426.10 284.12 425.75 C 286.00 425.40 287.69 425.00 290.38 423.62 C 293.06 422.25 298.17 418.98 300.25 417.50 C 302.33 416.02 301.96 416.00 302.88 414.75 C 303.79 413.50 304.94 411.75 305.75 410.00 C 306.56 408.25 307.27 406.00 307.75 404.25 C 308.23 402.50 308.42 401.79 308.62 399.50 C 308.83 397.21 308.67 394.38 309.00 390.50 C 309.33 386.62 310.29 379.92 310.62 376.25 C 310.96 372.58 310.77 370.79 311.00 368.50 C 311.23 366.21 311.62 364.02 312.00 362.50 C 312.38 360.98 312.29 360.85 313.25 359.38 C 314.21 357.90 316.83 354.94 317.75 353.62 C 318.67 352.31 318.56 352.27 318.75 351.50 C 318.94 350.73 319.02 349.83 318.88 349.00 Z" id="s-11-f-0"/>
<clipPath id="c-s-11"><use href="#s-11-f-0"/></clipPath>
<path d="M 239.00 303.62 C 237.48 303.73 238.23 304.15 235.25 304.50 C 232.27 304.85 224.02 305.33 221.12 305.75 C 218.23 306.17 218.10 305.15 217.88 307.00 C 217.65 308.85 219.27 313.19 219.75 316.88 C 220.23 320.56 220.62 322.85 220.75 329.12 C 220.88 335.40 220.46 337.67 220.50 354.50 C 220.54 371.33 220.75 415.62 221.00 430.12 C 221.25 444.62 221.50 437.81 222.00 441.50 C 222.50 445.19 223.33 449.67 224.00 452.25 C 224.67 454.83 225.29 455.90 226.00 457.00 C 226.71 458.10 227.62 458.62 228.25 458.88 C 228.88 459.12 229.35 458.71 229.75 458.50 C 230.15 458.29 229.98 459.04 230.62 457.62 C 231.27 456.21 232.73 453.02 233.62 450.00 C 234.52 446.98 235.21 442.33 236.00 439.50 C 236.79 436.67 237.60 435.71 238.38 433.00 C 239.15 430.29 240.06 426.50 240.62 423.25 C 241.19 420.00 241.38 425.33 241.75 413.50 C 242.12 401.67 242.48 363.29 242.88 352.25 C 243.27 341.21 243.90 351.31 244.12 347.25 C 244.35 343.19 244.10 331.90 244.25 327.88 C 244.40 323.85 244.58 324.85 245.00 323.12 C 245.42 321.40 245.96 318.92 246.75 317.50 C 247.54 316.08 249.08 315.40 249.75 314.62 C 250.42 313.85 250.60 313.48 250.75 312.88 C 250.90 312.27 250.85 311.67 250.62 311.00 C 250.40 310.33 250.42 310.06 249.38 308.88 C 248.33 307.69 246.10 304.75 244.38 303.88 C 242.65 303.00 240.52 303.52 239.00 303.62 Z" id="s-12-f-0"/>
<clipPath id="c-s-12"><use href="#s-12-f-0"/></clipPath>
<path d="M 448.62 117.12 C 448.27 116.02 447.81 115.19 446.62 114.00 C 445.44 112.81 443.50 111.17 441.50 110.00 C 439.50 108.83 436.79 107.83 434.62 107.00 C 432.46 106.17 430.33 105.50 428.50 105.00 C 426.67 104.50 425.15 104.19 423.62 104.00 C 422.10 103.81 424.75 102.42 419.38 103.88 C 414.00 105.33 399.83 110.44 391.38 112.75 C 382.92 115.06 375.75 116.35 368.62 117.75 C 361.50 119.15 352.65 120.29 348.62 121.12 C 344.60 121.96 345.27 122.06 344.50 122.75 C 343.73 123.44 343.77 124.35 344.00 125.25 C 344.23 126.15 344.92 127.00 345.88 128.12 C 346.83 129.25 348.75 131.10 349.75 132.00 C 350.75 132.90 351.02 133.06 351.88 133.50 C 352.73 133.94 353.65 134.27 354.88 134.62 C 356.10 134.98 356.88 135.27 359.25 135.62 C 361.62 135.98 364.98 136.56 369.12 136.75 C 373.27 136.94 380.10 136.94 384.12 136.75 C 388.15 136.56 387.94 136.48 393.25 135.62 C 398.56 134.77 408.77 133.10 416.00 131.62 C 423.23 130.15 431.56 128.21 436.62 126.75 C 441.69 125.29 444.35 123.90 446.38 122.88 C 448.40 121.85 448.38 121.58 448.75 120.62 C 449.12 119.67 448.98 118.23 448.62 117.12 Z" id="s-13-f-0"/>
<clipPath id="c-s-13"><use href="#s-13-f-0"/></clipPath>
<path d="M 478.88 198.88 C 478.73 198.08 478.54 197.52 477.75 196.50 C 476.96 195.48 476.40 194.50 474.12 192.75 C 471.85 191.00 466.67 187.58 464.12 186.00 C 461.58 184.42 461.92 184.56 458.88 183.25 C 455.83 181.94 448.83 179.00 445.88 178.12 C 442.92 177.25 444.92 177.23 441.12 178.00 C 437.33 178.77 430.75 180.96 423.12 182.75 C 415.50 184.54 411.48 185.54 395.38 188.75 C 379.27 191.96 338.62 199.60 326.50 202.00 C 314.38 204.40 323.79 202.67 322.62 203.12 C 321.46 203.58 320.10 204.38 319.50 204.75 C 318.90 205.12 319.08 204.98 319.00 205.38 C 318.92 205.77 318.48 206.27 319.00 207.12 C 319.52 207.98 321.06 209.56 322.12 210.50 C 323.19 211.44 323.17 211.58 325.38 212.75 C 327.58 213.92 332.60 216.35 335.38 217.50 C 338.15 218.65 340.00 219.10 342.00 219.62 C 344.00 220.15 345.33 220.42 347.38 220.62 C 349.42 220.83 352.08 221.15 354.25 220.88 C 356.42 220.60 357.81 219.65 360.38 219.00 C 362.94 218.35 366.69 217.50 369.62 217.00 C 372.56 216.50 372.02 217.00 378.00 216.00 C 383.98 215.00 400.60 212.02 405.50 211.00 C 410.40 209.98 402.10 210.56 407.38 209.88 C 412.65 209.19 427.33 207.56 437.12 206.88 C 446.92 206.19 460.19 206.10 466.12 205.75 C 472.06 205.40 470.90 205.23 472.75 204.75 C 474.60 204.27 476.27 203.46 477.25 202.88 C 478.23 202.29 478.35 201.92 478.62 201.25 C 478.90 200.58 479.02 199.67 478.88 198.88 Z" id="s-14-f-0"/>
<clipPath id="c-s-14"><use href="#s-14-f-0"/></clipPath>
<path d="M 405.12 210.50 C 404.04 210.29 402.67 210.48 401.88 210.62 C 401.08 210.77 401.42 211.19 400.38 211.38 C 399.33 211.56 396.62 211.58 395.62 211.75 C 394.62 211.92 395.19 212.23 394.38 212.38 C 393.56 212.52 392.60 212.29 390.75 212.62 C 388.90 212.96 385.10 214.04 383.25 214.38 C 381.40 214.71 380.58 214.46 379.62 214.62 C 378.67 214.79 377.96 215.12 377.50 215.38 C 377.04 215.62 376.33 213.60 376.88 216.12 C 377.42 218.65 379.60 225.35 380.75 230.50 C 381.90 235.65 382.90 240.85 383.75 247.00 C 384.60 253.15 385.38 260.67 385.88 267.38 C 386.38 274.08 386.62 276.00 386.75 287.25 C 386.88 298.50 386.81 320.54 386.62 334.88 C 386.44 349.21 386.10 362.96 385.62 373.25 C 385.15 383.54 384.40 391.19 383.75 396.62 C 383.10 402.06 382.54 403.44 381.75 405.88 C 380.96 408.31 379.90 409.92 379.00 411.25 C 378.10 412.58 377.19 413.29 376.38 413.88 C 375.56 414.46 374.88 414.60 374.12 414.75 C 373.38 414.90 373.81 415.08 371.88 414.75 C 369.94 414.42 367.33 414.21 362.50 412.75 C 357.67 411.29 346.96 407.29 342.88 406.00 C 338.79 404.71 339.69 405.17 338.00 405.00 C 336.31 404.83 333.77 404.77 332.75 405.00 C 331.73 405.23 332.00 405.81 331.88 406.38 C 331.75 406.94 331.65 407.50 332.00 408.38 C 332.35 409.25 331.27 408.85 334.00 411.62 C 336.73 414.40 344.52 421.21 348.38 425.00 C 352.23 428.79 354.04 430.79 357.12 434.38 C 360.21 437.96 364.42 443.17 366.88 446.50 C 369.33 449.83 370.08 452.19 371.88 454.38 C 373.67 456.56 376.02 458.54 377.62 459.62 C 379.23 460.71 380.06 460.71 381.50 460.88 C 382.94 461.04 384.44 461.12 386.25 460.62 C 388.06 460.12 390.65 458.85 392.38 457.88 C 394.10 456.90 394.42 456.83 396.62 454.75 C 398.83 452.67 403.65 447.85 405.62 445.38 C 407.60 442.90 407.65 441.96 408.50 439.88 C 409.35 437.79 410.06 435.77 410.75 432.88 C 411.44 429.98 412.15 425.79 412.62 422.50 C 413.10 419.21 413.44 421.40 413.62 413.12 C 413.81 404.85 413.90 383.90 413.75 372.88 C 413.60 361.85 413.21 355.71 412.75 347.00 C 412.29 338.29 411.46 331.00 411.00 320.62 C 410.54 310.25 410.17 296.04 410.00 284.75 C 409.83 273.46 409.83 260.12 410.00 252.88 C 410.17 245.62 410.38 245.54 411.00 241.25 C 411.62 236.96 413.27 230.48 413.75 227.12 C 414.23 223.77 413.92 222.54 413.88 221.12 C 413.83 219.71 413.83 219.60 413.50 218.62 C 413.17 217.65 412.73 216.38 411.88 215.25 C 411.02 214.12 409.50 212.67 408.38 211.88 C 407.25 211.08 406.21 210.71 405.12 210.50 Z" id="s-15-f-0"/>
<clipPath id="c-s-15"><use href="#s-15-f-0"/></clipPath>
</defs>
<g id="s-0" clip-path="url(#c-s-0)">
<use href="#s-0-f-0"/>
<path d="M 145.38 60.88 C 142.98 59.08 140.52 57.42 138.00 56.12 C 135.48 54.83 132.44 53.65 130.25 53.12 C 128.06 52.60 126.23 52.69 124.88 53.00 C 123.52 53.31 122.77 54.23 122.12 55.00 C 121.48 55.77 121.25 55.85 121.00 57.62 C 120.75 59.40 121.02 62.33 120.62 65.62 C 120.23 68.92 119.27 74.42 118.62 77.38 C 117.98 80.33 117.71 80.81 116.75 83.38 C 115.79 85.94 114.71 88.75 112.88 92.75 C 111.04 96.75 108.10 102.83 105.75 107.38 C 103.40 111.92 101.06 116.02 98.75 120.00 C 96.44 123.98 95.02 126.60 91.88 131.25 C 88.73 135.90 81.90 144.96 79.88 147.88 C 77.85 150.79 75.60 148.56 79.75 148.75 C 83.90 148.94 100.17 149.04 104.75 149.00 C 109.33 148.96 103.90 151.96 107.25 148.50 C 110.60 145.04 119.92 134.29 124.88 128.25 C 129.83 122.21 132.29 118.71 137.00 112.25 C 141.71 105.79 149.33 94.54 153.12 89.50 C 156.92 84.46 158.67 83.98 159.75 82.00 C 160.83 80.02 159.96 79.06 159.62 77.62 C 159.29 76.19 158.96 75.17 157.75 73.38 C 156.54 71.58 154.44 68.96 152.38 66.88 C 150.31 64.79 147.77 62.67 145.38 60.88 Z" id="s-0-f-1"/>
<path d="M 124.88 53.00 C 123.65 53.33 122.73 54.38 122.12 55.00 C 121.52 55.62 121.50 54.98 121.25 56.75 C 121.00 58.52 121.06 62.19 120.62 65.62 C 120.19 69.06 119.44 73.98 118.62 77.38 C 117.81 80.77 117.35 82.15 115.75 86.00 C 114.15 89.85 110.08 98.02 109.00 100.50 C 107.92 102.98 107.40 100.79 109.25 100.88 C 111.10 100.96 114.23 101.00 120.12 101.00 C 126.02 101.00 139.12 102.79 144.62 100.88 C 150.12 98.96 150.60 92.65 153.12 89.50 C 155.65 86.35 158.67 83.98 159.75 82.00 C 160.83 80.02 159.96 79.06 159.62 77.62 C 159.29 76.19 158.60 74.79 157.75 73.38 C 156.90 71.96 155.75 70.54 154.50 69.12 C 153.25 67.71 152.42 66.71 150.25 64.88 C 148.08 63.04 144.35 59.94 141.50 58.12 C 138.65 56.31 135.12 54.85 133.12 54.00 C 131.12 53.15 130.88 53.17 129.50 53.00 C 128.12 52.83 126.10 52.67 124.88 53.00 Z" id="s-0-f-2"/>
</g>
<g id="s-1" clip-path="url(#c-s-1)">
<use href="#s-1-f-0"/>
<path d="M 153.62 170.50 C 151.71 168.44 151.90 168.42 148.38 167.00 C 144.85 165.58 136.12 163.02 132.50 162.00 C 128.88 160.98 128.44 161.04 126.62 160.88 C 124.81 160.71 122.83 160.83 121.62 161.00 C 120.42 161.17 119.83 161.58 119.38 161.88 C 118.92 162.17 119.15 159.92 118.88 162.75 C 118.60 165.58 118.27 174.88 117.75 178.88 C 117.23 182.88 117.58 182.21 115.75 186.75 C 113.92 191.29 109.25 201.06 106.75 206.12 C 104.25 211.19 103.58 212.31 100.75 217.12 C 97.92 221.94 93.56 229.15 89.75 235.00 C 85.94 240.85 83.04 245.06 77.88 252.25 C 72.71 259.44 64.17 271.08 58.75 278.12 C 53.33 285.17 49.08 290.19 45.38 294.50 C 41.67 298.81 37.96 302.27 36.50 304.00 C 35.04 305.73 33.85 304.71 36.62 304.88 C 39.40 305.04 50.15 305.08 53.12 305.00 C 56.10 304.92 53.38 305.23 54.50 304.38 C 55.62 303.52 56.06 303.40 59.88 299.88 C 63.69 296.35 71.65 288.94 77.38 283.25 C 83.10 277.56 88.50 272.04 94.25 265.75 C 100.00 259.46 105.38 253.88 111.88 245.50 C 118.38 237.12 128.38 222.17 133.25 215.50 C 138.12 208.83 137.02 210.10 141.12 205.50 C 145.23 200.90 154.79 191.50 157.88 187.88 C 160.96 184.25 159.29 185.17 159.62 183.75 C 159.96 182.33 160.88 181.58 159.88 179.38 C 158.88 177.17 155.54 172.56 153.62 170.50 Z" id="s-1-f-1"/>
<path d="M 153.62 170.50 C 151.71 168.44 151.90 168.42 148.38 167.00 C 144.85 165.58 136.12 163.02 132.50 162.00 C 128.88 160.98 128.44 161.04 126.62 160.88 C 124.81 160.71 122.83 160.83 121.62 161.00 C 120.42 161.17 119.83 161.58 119.38 161.88 C 118.92 162.17 119.15 159.92 118.88 162.75 C 118.60 165.58 118.10 175.40 117.75 178.88 C 117.40 182.35 117.25 181.90 116.75 183.62 C 116.25 185.35 115.92 186.52 114.75 189.25 C 113.58 191.98 111.92 195.65 109.75 200.00 C 107.58 204.35 104.06 211.15 101.75 215.38 C 99.44 219.60 98.69 220.90 95.88 225.38 C 93.06 229.85 88.38 237.17 84.88 242.25 C 81.38 247.33 76.52 253.44 74.88 255.88 C 73.23 258.31 70.83 256.69 75.00 256.88 C 79.17 257.06 95.35 257.06 99.88 257.00 C 104.40 256.94 99.98 258.60 102.12 256.50 C 104.27 254.40 107.56 251.21 112.75 244.38 C 117.94 237.54 128.52 221.98 133.25 215.50 C 137.98 209.02 137.02 210.10 141.12 205.50 C 145.23 200.90 154.79 191.50 157.88 187.88 C 160.96 184.25 159.29 185.17 159.62 183.75 C 159.96 182.33 160.88 181.58 159.88 179.38 C 158.88 177.17 155.54 172.56 153.62 170.50 Z" id="s-1-f-2"/>
<path d="M 159.88 179.38 C 159.02 177.21 155.69 172.96 154.38 171.25 C 153.06 169.54 153.00 169.83 152.00 169.12 C 151.00 168.42 152.15 168.31 148.38 167.00 C 144.60 165.69 133.83 162.25 129.38 161.25 C 124.92 160.25 123.29 160.90 121.62 161.00 C 119.96 161.10 119.83 161.58 119.38 161.88 C 118.92 162.17 119.15 159.92 118.88 162.75 C 118.60 165.58 118.10 175.40 117.75 178.88 C 117.40 182.35 117.25 181.90 116.75 183.62 C 116.25 185.35 116.65 185.10 114.75 189.25 C 112.85 193.40 106.54 205.21 105.38 208.50 C 104.21 211.79 102.31 208.92 107.75 209.00 C 113.19 209.08 131.40 210.75 138.00 209.00 C 144.60 207.25 144.21 201.81 147.38 198.50 C 150.54 195.19 154.98 191.50 157.00 189.12 C 159.02 186.75 159.02 185.88 159.50 184.25 C 159.98 182.62 160.73 181.54 159.88 179.38 Z" id="s-1-f-3"/>
</g>
<g id="s-2" clip-path="url(#c-s-2)">
<use href="#s-2-f-0"/>
<path d="M 112.12 243.50 C 110.98 242.96 113.08 243.02 111.00 245.50 C 108.92 247.98 101.00 253.75 99.62 258.38 C 98.25 263.00 102.08 269.19 102.75 273.25 C 103.42 277.31 103.48 276.58 103.62 282.75 C 103.77 288.92 103.83 301.27 103.62 310.25 C 103.42 319.23 103.04 328.27 102.38 336.62 C 101.71 344.98 100.42 354.77 99.62 360.38 C 98.83 365.98 98.29 367.48 97.62 370.25 C 96.96 373.02 96.73 374.02 95.62 377.00 C 94.52 379.98 92.27 384.79 91.00 388.12 C 89.73 391.46 88.48 394.44 88.00 397.00 C 87.52 399.56 87.60 400.71 88.12 403.50 C 88.65 406.29 89.65 409.58 91.12 413.75 C 92.60 417.92 95.31 424.85 97.00 428.50 C 98.69 432.15 100.40 434.38 101.25 435.62 C 102.10 436.88 100.04 435.94 102.12 436.00 C 104.21 436.06 111.58 436.08 113.75 436.00 C 115.92 435.92 114.12 437.81 115.12 435.50 C 116.12 433.19 118.50 426.33 119.75 422.12 C 121.00 417.92 121.62 421.48 122.62 410.25 C 123.62 399.02 125.17 369.96 125.75 354.75 C 126.33 339.54 125.92 329.44 126.12 319.00 C 126.33 308.56 126.69 298.21 127.00 292.12 C 127.31 286.04 127.56 284.85 128.00 282.50 C 128.44 280.15 129.15 279.69 129.62 278.00 C 130.10 276.31 130.69 273.71 130.88 272.38 C 131.06 271.04 130.94 270.88 130.75 270.00 C 130.56 269.12 130.73 269.06 129.75 267.12 C 128.77 265.19 126.85 261.44 124.88 258.38 C 122.90 255.31 120.00 251.23 117.88 248.75 C 115.75 246.27 113.27 244.04 112.12 243.50 Z" id="s-2-f-1"/>
<path d="M 112.12 243.50 C 110.98 242.96 113.08 243.02 111.00 245.50 C 108.92 247.98 101.00 253.75 99.62 258.38 C 98.25 263.00 102.08 269.19 102.75 273.25 C 103.42 277.31 103.48 276.58 103.62 282.75 C 103.77 288.92 103.79 301.94 103.62 310.25 C 103.46 318.56 103.29 324.27 102.62 332.62 C 101.96 340.98 100.46 354.10 99.62 360.38 C 98.79 366.65 98.29 367.48 97.62 370.25 C 96.96 373.02 96.65 374.19 95.62 377.00 C 94.60 379.81 92.10 385.31 91.50 387.12 C 90.90 388.94 86.98 387.73 92.00 387.88 C 97.02 388.02 116.38 388.00 121.62 388.00 C 126.88 388.00 123.12 388.00 123.50 387.88 C 123.88 387.75 123.50 392.77 123.88 387.25 C 124.25 381.73 125.38 366.12 125.75 354.75 C 126.12 343.38 125.92 329.42 126.12 319.00 C 126.33 308.58 126.69 298.33 127.00 292.25 C 127.31 286.17 127.40 285.50 128.00 282.50 C 128.60 279.50 130.15 276.10 130.62 274.25 C 131.10 272.40 131.02 272.56 130.88 271.38 C 130.73 270.19 130.75 269.29 129.75 267.12 C 128.75 264.96 126.85 261.44 124.88 258.38 C 122.90 255.31 120.00 251.23 117.88 248.75 C 115.75 246.27 113.27 244.04 112.12 243.50 Z" id="s-2-f-2"/>
<path d="M 112.00 243.50 C 111.65 243.75 113.06 243.02 111.00 245.50 C 108.94 247.98 101.00 253.75 99.62 258.38 C 98.25 263.00 102.06 268.58 102.75 273.25 C 103.44 277.92 103.60 280.21 103.75 286.38 C 103.90 292.54 103.92 301.44 103.62 310.25 C 103.33 319.06 102.23 334.31 102.00 339.25 C 101.77 344.19 98.35 339.75 102.25 339.88 C 106.15 340.00 121.44 340.12 125.38 340.00 C 129.31 339.88 125.60 347.08 125.88 339.12 C 126.15 331.17 126.65 301.69 127.00 292.25 C 127.35 282.81 127.40 285.50 128.00 282.50 C 128.60 279.50 130.17 276.33 130.62 274.25 C 131.08 272.17 131.27 271.94 130.75 270.00 C 130.23 268.06 128.79 265.02 127.50 262.62 C 126.21 260.23 124.60 257.94 123.00 255.62 C 121.40 253.31 119.52 250.69 117.88 248.75 C 116.23 246.81 114.10 244.88 113.12 244.00 C 112.15 243.12 112.35 243.25 112.00 243.50 Z" id="s-2-f-3"/>
<path d="M 112.00 243.50 C 111.65 243.75 113.06 243.02 111.00 245.50 C 108.94 247.98 100.98 253.60 99.62 258.38 C 98.27 263.15 102.15 268.56 102.88 274.12 C 103.60 279.69 101.15 288.77 104.00 291.75 C 106.85 294.73 116.21 292.02 120.00 292.00 C 123.79 291.98 125.52 292.02 126.75 291.62 C 127.98 291.23 127.17 291.15 127.38 289.62 C 127.58 288.10 127.46 285.06 128.00 282.50 C 128.54 279.94 130.19 276.42 130.62 274.25 C 131.06 272.08 131.15 271.44 130.62 269.50 C 130.10 267.56 129.12 265.44 127.50 262.62 C 125.88 259.81 122.73 255.21 120.88 252.62 C 119.02 250.04 117.67 248.56 116.38 247.12 C 115.08 245.69 113.85 244.60 113.12 244.00 C 112.40 243.40 112.35 243.25 112.00 243.50 Z" id="s-2-f-4"/>
</g>
<g id="s-3" clip-path="url(#c-s-3)">
<use href="#s-3-f-0"/>
<path d="M 306.88 112.38 C 306.56 111.52 306.23 109.77 305.00 108.38 C 303.77 106.98 302.54 105.73 299.50 104.00 C 296.46 102.27 289.98 99.33 286.75 98.00 C 283.52 96.67 281.96 96.35 280.12 96.00 C 278.29 95.65 276.98 95.83 275.75 95.88 C 274.52 95.92 274.29 95.88 272.75 96.25 C 271.21 96.62 269.06 97.19 266.50 98.12 C 263.94 99.06 260.38 100.77 257.38 101.88 C 254.38 102.98 252.00 103.77 248.50 104.75 C 245.00 105.73 238.90 107.23 236.38 107.75 C 233.85 108.27 238.65 107.06 233.38 107.88 C 228.10 108.69 215.06 111.27 204.75 112.62 C 194.44 113.98 177.27 115.25 171.50 116.00 C 165.73 116.75 170.40 116.79 170.12 117.12 C 169.85 117.46 169.62 117.52 169.88 118.00 C 170.12 118.48 169.85 118.69 171.62 120.00 C 173.40 121.31 178.56 124.75 180.50 125.88 C 182.44 127.00 181.85 126.58 183.25 126.75 C 184.65 126.92 184.06 127.21 188.88 126.88 C 193.69 126.54 205.25 125.60 212.12 124.75 C 219.00 123.90 226.40 122.52 230.12 121.75 C 233.85 120.98 230.65 120.92 234.50 120.12 C 238.35 119.33 248.27 117.69 253.25 117.00 C 258.23 116.31 261.10 116.17 264.38 116.00 C 267.65 115.83 265.90 116.31 272.88 116.00 C 279.85 115.69 300.58 114.54 306.25 114.12 C 311.92 113.71 306.77 113.79 306.88 113.50 C 306.98 113.21 307.19 113.23 306.88 112.38 Z" id="s-3-f-1"/>
<path d="M 266.00 100.12 C 265.92 97.38 265.77 99.08 265.50 98.88 C 265.23 98.67 266.73 98.04 264.38 98.88 C 262.02 99.71 256.04 102.40 251.38 103.88 C 246.71 105.35 239.38 107.08 236.38 107.75 C 233.38 108.42 238.65 107.06 233.38 107.88 C 228.10 108.69 215.06 111.27 204.75 112.62 C 194.44 113.98 177.27 115.25 171.50 116.00 C 165.73 116.75 170.40 116.79 170.12 117.12 C 169.85 117.46 169.56 117.48 169.88 118.00 C 170.19 118.52 170.23 118.94 172.00 120.25 C 173.77 121.56 178.62 124.79 180.50 125.88 C 182.38 126.96 181.85 126.58 183.25 126.75 C 184.65 126.92 184.21 127.19 188.88 126.88 C 193.54 126.56 204.38 125.73 211.25 124.88 C 218.12 124.02 226.25 122.54 230.12 121.75 C 234.00 120.96 231.79 120.75 234.50 120.12 C 237.21 119.50 241.25 118.69 246.38 118.00 C 251.50 117.31 261.98 116.44 265.25 116.00 C 268.52 115.56 265.88 118.02 266.00 115.38 C 266.12 112.73 266.08 102.88 266.00 100.12 Z" id="s-3-f-2"/>
<path d="M 218.00 111.75 C 217.96 109.65 218.21 110.90 217.62 110.75 C 217.04 110.60 216.67 110.56 214.50 110.88 C 212.33 111.19 211.79 111.77 204.62 112.62 C 197.46 113.48 177.25 115.25 171.50 116.00 C 165.75 116.75 170.40 116.79 170.12 117.12 C 169.85 117.46 169.65 117.54 169.88 118.00 C 170.10 118.46 170.10 118.75 171.50 119.88 C 172.90 121.00 176.29 123.60 178.25 124.75 C 180.21 125.90 180.56 126.44 183.25 126.75 C 185.94 127.06 189.71 126.94 194.38 126.62 C 199.04 126.31 207.44 125.33 211.25 124.88 C 215.06 124.42 216.15 124.12 217.25 123.88 C 218.35 123.62 217.75 125.40 217.88 123.38 C 218.00 121.35 218.04 113.85 218.00 111.75 Z" id="s-3-f-3"/>
</g>
<g id="s-4" clip-path="url(#c-s-4)">
<use href="#s-4-f-0"/>
<path d="M 215.62 38.12 C 213.52 38.35 213.38 39.00 212.62 39.50 C 211.88 40.00 211.42 40.67 211.12 41.12 C 210.83 41.58 210.88 41.65 210.88 42.25 C 210.88 42.85 210.52 42.98 211.12 44.75 C 211.73 46.52 213.73 50.77 214.50 52.88 C 215.27 54.98 215.40 55.50 215.75 57.38 C 216.10 59.25 216.46 61.85 216.62 64.12 C 216.79 66.40 217.23 65.79 216.75 71.00 C 216.27 76.21 214.73 88.65 213.75 95.38 C 212.77 102.10 211.46 108.52 210.88 111.38 C 210.29 114.23 210.29 112.29 210.25 112.50 C 210.21 112.71 210.73 112.52 210.62 112.62 C 210.52 112.73 209.83 112.04 209.62 113.12 C 209.42 114.21 209.54 117.88 209.38 119.12 C 209.21 120.38 208.75 119.50 208.62 120.62 C 208.50 121.75 208.88 123.75 208.62 125.88 C 208.38 128.00 207.17 132.06 207.12 133.38 C 207.08 134.69 204.77 133.67 208.38 133.75 C 211.98 133.83 225.21 133.98 228.75 133.88 C 232.29 133.77 229.02 135.00 229.62 133.12 C 230.23 131.25 231.65 124.81 232.38 122.62 C 233.10 120.44 233.67 121.10 234.00 120.00 C 234.33 118.90 234.19 116.85 234.38 116.00 C 234.56 115.15 234.96 115.58 235.12 114.88 C 235.29 114.17 235.21 112.46 235.38 111.75 C 235.54 111.04 236.00 111.31 236.12 110.62 C 236.25 109.94 235.38 110.71 236.12 107.62 C 236.88 104.54 239.17 97.54 240.62 92.12 C 242.08 86.71 243.65 79.12 244.88 75.12 C 246.10 71.12 246.52 70.60 248.00 68.12 C 249.48 65.65 252.79 62.12 253.75 60.25 C 254.71 58.38 254.10 58.08 253.75 56.88 C 253.40 55.67 252.90 54.52 251.62 53.00 C 250.35 51.48 247.69 49.10 246.12 47.75 C 244.56 46.40 244.67 46.17 242.25 44.88 C 239.83 43.58 234.46 41.12 231.62 40.00 C 228.79 38.88 227.92 38.44 225.25 38.12 C 222.58 37.81 217.73 37.90 215.62 38.12 Z" id="s-4-f-1"/>
<path d="M 213.25 39.00 C 212.50 39.50 211.52 40.42 211.12 41.12 C 210.73 41.83 210.27 41.17 210.88 43.25 C 211.48 45.33 213.81 50.38 214.75 53.62 C 215.69 56.88 216.17 59.85 216.50 62.75 C 216.83 65.65 216.96 67.19 216.75 71.00 C 216.54 74.81 215.17 83.12 215.25 85.62 C 215.33 88.12 212.79 85.98 217.25 86.00 C 221.71 86.02 237.23 88.00 242.00 85.75 C 246.77 83.50 244.71 75.71 245.88 72.50 C 247.04 69.29 247.69 68.54 249.00 66.50 C 250.31 64.46 252.96 61.85 253.75 60.25 C 254.54 58.65 254.04 58.00 253.75 56.88 C 253.46 55.75 253.21 54.96 252.00 53.50 C 250.79 52.04 248.10 49.54 246.50 48.12 C 244.90 46.71 244.85 46.35 242.38 45.00 C 239.90 43.65 234.71 41.17 231.62 40.00 C 228.54 38.83 226.54 38.31 223.88 38.00 C 221.21 37.69 217.40 37.96 215.62 38.12 C 213.85 38.29 214.00 38.50 213.25 39.00 Z" id="s-4-f-2"/>
</g>
<g id="s-5" clip-path="url(#c-s-5)">
<use href="#s-5-f-0"/>
<path d="M 297.88 152.50 C 297.69 149.83 298.79 151.77 296.88 152.00 C 294.96 152.23 288.35 153.46 286.38 153.88 C 284.40 154.29 285.88 154.38 285.00 154.50 C 284.12 154.62 282.17 154.48 281.12 154.62 C 280.08 154.77 279.98 155.21 278.75 155.38 C 277.52 155.54 275.02 155.46 273.75 155.62 C 272.48 155.79 272.54 156.15 271.12 156.38 C 269.71 156.60 266.31 156.96 265.25 157.00 C 264.19 157.04 265.23 156.48 264.75 156.62 C 264.27 156.77 266.31 157.29 262.38 157.88 C 258.44 158.46 247.83 159.31 241.12 160.12 C 234.42 160.94 226.35 162.33 222.12 162.75 C 217.90 163.17 217.52 162.50 215.75 162.62 C 213.98 162.75 213.17 163.33 211.50 163.50 C 209.83 163.67 207.60 163.40 205.75 163.62 C 203.90 163.85 203.54 164.35 200.38 164.88 C 197.21 165.40 193.98 165.90 186.75 166.75 C 179.52 167.60 162.48 169.27 157.00 170.00 C 151.52 170.73 154.44 170.81 153.88 171.12 C 153.31 171.44 153.52 171.65 153.62 171.88 C 153.73 172.10 153.67 171.29 154.50 172.50 C 155.33 173.71 157.44 177.65 158.62 179.12 C 159.81 180.60 159.75 180.46 161.62 181.38 C 163.50 182.29 167.21 183.88 169.88 184.62 C 172.54 185.38 173.79 185.85 177.62 185.88 C 181.46 185.90 184.42 185.71 192.88 184.75 C 201.33 183.79 218.94 181.25 228.38 180.12 C 237.81 179.00 238.00 178.85 249.50 178.00 C 261.00 177.15 289.29 176.67 297.38 175.00 C 305.46 173.33 297.92 171.75 298.00 168.00 C 298.08 164.25 298.06 155.17 297.88 152.50 Z" id="s-5-f-1"/>
<path d="M 249.88 159.75 C 249.69 156.71 253.50 158.75 248.88 159.25 C 244.25 159.75 227.65 162.19 222.12 162.75 C 216.60 163.31 217.52 162.50 215.75 162.62 C 213.98 162.75 213.17 163.33 211.50 163.50 C 209.83 163.67 207.60 163.40 205.75 163.62 C 203.90 163.85 203.54 164.35 200.38 164.88 C 197.21 165.40 193.85 165.92 186.75 166.75 C 179.65 167.58 163.17 169.19 157.75 169.88 C 152.33 170.56 154.94 170.54 154.25 170.88 C 153.56 171.21 153.58 171.60 153.62 171.88 C 153.67 172.15 153.67 171.29 154.50 172.50 C 155.33 173.71 157.44 177.65 158.62 179.12 C 159.81 180.60 159.69 180.44 161.62 181.38 C 163.56 182.31 167.96 184.02 170.25 184.75 C 172.54 185.48 173.00 185.60 175.38 185.75 C 177.75 185.90 176.88 186.42 184.50 185.62 C 192.12 184.83 210.29 182.27 221.12 181.00 C 231.96 179.73 244.69 178.58 249.50 178.00 C 254.31 177.42 249.94 180.54 250.00 177.50 C 250.06 174.46 250.06 162.79 249.88 159.75 Z" id="s-5-f-2"/>
<path d="M 201.88 183.00 C 202.12 180.02 202.06 168.96 202.00 165.88 C 201.94 162.79 205.35 164.19 201.50 164.50 C 197.65 164.81 186.29 166.83 178.88 167.75 C 171.46 168.67 161.21 169.40 157.00 170.00 C 152.79 170.60 153.31 169.81 153.62 171.38 C 153.94 172.94 157.42 177.65 158.88 179.38 C 160.33 181.10 160.48 180.85 162.38 181.75 C 164.27 182.65 168.08 184.08 170.25 184.75 C 172.42 185.42 173.58 185.56 175.38 185.75 C 177.17 185.94 176.81 186.21 181.00 185.88 C 185.19 185.54 197.02 184.23 200.50 183.75 C 203.98 183.27 201.62 185.98 201.88 183.00 Z" id="s-5-f-3"/>
</g>
<g id="s-6" clip-path="url(#c-s-6)">
<use href="#s-6-f-0"/>
<path d="M 163.25 207.88 C 162.69 208.27 162.27 208.71 162.12 209.38 C 161.98 210.04 161.67 211.08 162.38 211.88 C 163.08 212.67 165.02 213.06 166.38 214.12 C 167.73 215.19 169.10 216.10 170.50 218.25 C 171.90 220.40 173.71 224.38 174.75 227.00 C 175.79 229.62 176.21 231.62 176.75 234.00 C 177.29 236.38 177.25 237.90 178.00 241.25 C 178.75 244.60 180.42 251.83 181.25 254.12 C 182.08 256.42 180.44 254.88 183.00 255.00 C 185.56 255.12 194.29 254.98 196.62 254.88 C 198.96 254.77 196.98 255.33 197.00 254.38 C 197.02 253.42 197.31 254.44 196.75 249.12 C 196.19 243.81 196.27 229.10 193.62 222.50 C 190.98 215.90 183.33 211.85 180.88 209.50 C 178.42 207.15 180.23 208.79 178.88 208.38 C 177.52 207.96 174.98 207.23 172.75 207.00 C 170.52 206.77 167.08 206.85 165.50 207.00 C 163.92 207.15 163.81 207.48 163.25 207.88 Z" id="s-6-f-1"/>
</g>
<g id="s-7" clip-path="url(#c-s-7)">
<use href="#s-7-f-0"/>
<path d="M 294.25 201.62 C 294.48 201.33 295.81 202.06 294.00 201.12 C 292.19 200.19 285.98 197.17 283.38 196.00 C 280.77 194.83 279.75 194.48 278.38 194.12 C 277.00 193.77 276.06 193.88 275.12 193.88 C 274.19 193.88 274.54 193.65 272.75 194.12 C 270.96 194.60 266.58 196.15 264.38 196.75 C 262.17 197.35 265.83 196.85 259.50 197.75 C 253.17 198.65 235.04 200.90 226.38 202.12 C 217.71 203.35 212.83 204.19 207.50 205.12 C 202.17 206.06 198.81 207.12 194.38 207.75 C 189.94 208.38 183.33 208.58 180.88 208.88 C 178.42 209.17 177.58 207.15 179.62 209.50 C 181.67 211.85 190.75 220.75 193.12 223.00 C 195.50 225.25 192.31 223.50 193.88 223.00 C 195.44 222.50 198.60 221.00 202.50 220.00 C 206.40 219.00 211.08 218.00 217.25 217.00 C 223.42 216.00 233.21 214.71 239.50 214.00 C 245.79 213.29 246.15 214.60 255.00 212.75 C 263.85 210.90 286.08 204.73 292.62 202.88 C 299.17 201.02 294.02 201.92 294.25 201.62 Z" id="s-7-f-1"/>
<path d="M 275.62 194.00 C 275.17 192.00 275.12 193.54 273.25 194.00 C 271.38 194.46 266.67 196.12 264.38 196.75 C 262.08 197.38 265.83 196.85 259.50 197.75 C 253.17 198.65 235.04 200.90 226.38 202.12 C 217.71 203.35 212.83 204.19 207.50 205.12 C 202.17 206.06 198.81 207.12 194.38 207.75 C 189.94 208.38 183.33 208.58 180.88 208.88 C 178.42 209.17 177.58 207.15 179.62 209.50 C 181.67 211.85 190.48 220.79 193.12 223.00 C 195.77 225.21 194.50 223.10 195.50 222.75 C 196.50 222.40 195.73 221.79 199.12 220.88 C 202.52 219.96 209.15 218.40 215.88 217.25 C 222.60 216.10 232.96 214.75 239.50 214.00 C 246.04 213.25 249.35 213.77 255.12 212.75 C 260.90 211.73 270.73 208.79 274.12 207.88 C 277.52 206.96 275.19 207.56 275.50 207.25 C 275.81 206.94 275.98 208.21 276.00 206.00 C 276.02 203.79 276.08 196.00 275.62 194.00 Z" id="s-7-f-2"/>
<path d="M 227.88 202.38 C 227.69 200.38 232.46 201.10 226.88 202.00 C 221.29 202.90 202.04 206.60 194.38 207.75 C 186.71 208.90 183.33 208.58 180.88 208.88 C 178.42 209.17 177.58 207.15 179.62 209.50 C 181.67 211.85 190.35 220.83 193.12 223.00 C 195.90 225.17 195.25 222.85 196.25 222.50 C 197.25 222.15 197.48 221.44 199.12 220.88 C 200.77 220.31 201.42 220.00 206.12 219.12 C 210.83 218.25 223.73 216.48 227.38 215.62 C 231.02 214.77 227.92 216.21 228.00 214.00 C 228.08 211.79 228.06 204.38 227.88 202.38 Z" id="s-7-f-3"/>
</g>
<g id="s-8" clip-path="url(#c-s-8)">
<use href="#s-8-f-0"/>
<path d="M 243.88 246.00 C 243.71 243.44 246.08 245.04 243.00 245.50 C 239.92 245.96 233.08 247.69 225.38 248.75 C 217.67 249.81 201.69 250.52 196.75 251.88 C 191.81 253.23 195.94 254.71 195.75 256.88 C 195.56 259.04 194.77 263.38 195.62 264.88 C 196.48 266.38 198.31 265.73 200.88 265.88 C 203.44 266.02 203.88 266.31 211.00 265.75 C 218.12 265.19 238.12 263.31 243.62 262.50 C 249.12 261.69 243.96 263.62 244.00 260.88 C 244.04 258.12 244.04 248.56 243.88 246.00 Z" id="s-8-f-1"/>
</g>
<g id="s-9" clip-path="url(#c-s-9)">
<use href="#s-9-f-0"/>
<path d="M 299.88 279.75 C 299.77 276.73 300.12 279.29 299.25 279.00 C 298.38 278.71 296.62 278.17 294.62 278.00 C 292.62 277.83 292.12 277.21 287.25 278.00 C 282.38 278.79 273.15 281.29 265.38 282.75 C 257.60 284.21 250.58 285.40 240.62 286.75 C 230.67 288.10 218.46 289.62 205.62 290.88 C 192.79 292.12 171.38 293.56 163.62 294.25 C 155.88 294.94 160.33 294.71 159.12 295.00 C 157.92 295.29 156.90 295.44 156.38 296.00 C 155.85 296.56 155.92 297.71 156.00 298.38 C 156.08 299.04 156.25 299.23 156.88 300.00 C 157.50 300.77 158.23 301.90 159.75 303.00 C 161.27 304.10 163.42 305.71 166.00 306.62 C 168.58 307.54 172.69 308.12 175.25 308.50 C 177.81 308.88 177.92 308.83 181.38 308.88 C 184.83 308.92 189.62 309.06 196.00 308.75 C 202.38 308.44 211.73 307.79 219.62 307.00 C 227.52 306.21 238.02 304.54 243.38 304.00 C 248.73 303.46 244.54 304.46 251.75 303.75 C 258.96 303.04 278.69 300.75 286.62 299.75 C 294.56 298.75 297.17 298.19 299.38 297.75 C 301.58 297.31 299.79 300.12 299.88 297.12 C 299.96 294.12 299.98 282.77 299.88 279.75 Z" id="s-9-f-1"/>
<path d="M 251.88 285.38 C 251.62 282.54 252.38 284.77 250.50 285.00 C 248.62 285.23 248.12 285.77 240.62 286.75 C 233.12 287.73 218.33 289.62 205.50 290.88 C 192.67 292.12 171.35 293.56 163.62 294.25 C 155.90 294.94 160.33 294.71 159.12 295.00 C 157.92 295.29 156.90 295.44 156.38 296.00 C 155.85 296.56 155.58 297.33 156.00 298.38 C 156.42 299.42 157.56 301.04 158.88 302.25 C 160.19 303.46 162.08 304.73 163.88 305.62 C 165.67 306.52 167.35 307.10 169.62 307.62 C 171.90 308.15 172.79 308.58 177.50 308.75 C 182.21 308.92 190.62 308.94 197.88 308.62 C 205.12 308.31 213.42 307.65 221.00 306.88 C 228.58 306.10 238.25 304.56 243.38 304.00 C 248.50 303.44 250.31 303.83 251.75 303.50 C 253.19 303.17 251.98 305.02 252.00 302.00 C 252.02 298.98 252.12 288.21 251.88 285.38 Z" id="s-9-f-2"/>
<path d="M 203.62 307.88 C 205.02 305.15 203.98 295.17 204.00 292.38 C 204.02 289.58 210.48 290.81 203.75 291.12 C 197.02 291.44 171.15 293.58 163.62 294.25 C 156.10 294.92 159.83 294.83 158.62 295.12 C 157.42 295.42 156.81 295.71 156.38 296.00 C 155.94 296.29 156.06 296.48 156.00 296.88 C 155.94 297.27 155.85 297.85 156.00 298.38 C 156.15 298.90 156.33 299.29 156.88 300.00 C 157.42 300.71 157.73 301.52 159.25 302.62 C 160.77 303.73 164.17 305.77 166.00 306.62 C 167.83 307.48 167.69 307.38 170.25 307.75 C 172.81 308.12 177.15 308.71 181.38 308.88 C 185.60 309.04 191.92 308.92 195.62 308.75 C 199.33 308.58 202.23 310.60 203.62 307.88 Z" id="s-9-f-3"/>
</g>
<g id="s-10" clip-path="url(#c-s-10)">
<use href="#s-10-f-0"/>
<path d="M 164.38 342.25 C 162.73 342.58 162.67 343.17 162.25 344.00 C 161.83 344.83 161.29 345.06 161.88 347.25 C 162.46 349.44 164.79 353.35 165.75 357.12 C 166.71 360.90 167.29 365.83 167.62 369.88 C 167.96 373.92 167.88 378.62 167.75 381.38 C 167.62 384.12 167.25 385.02 166.88 386.38 C 166.50 387.73 165.48 388.90 165.50 389.50 C 165.52 390.10 163.90 389.94 167.00 390.00 C 170.10 390.06 181.17 390.17 184.12 389.88 C 187.08 389.58 184.48 390.92 184.75 388.25 C 185.02 385.58 185.56 380.40 185.75 373.88 C 185.94 367.35 186.00 353.46 185.88 349.12 C 185.75 344.79 185.75 348.56 185.00 347.88 C 184.25 347.19 182.75 345.81 181.38 345.00 C 180.00 344.19 178.29 343.50 176.75 343.00 C 175.21 342.50 174.19 342.12 172.12 342.00 C 170.06 341.88 166.02 341.92 164.38 342.25 Z" id="s-10-f-1"/>
</g>
<g id="s-11" clip-path="url(#c-s-11)">
<use href="#s-11-f-0"/>
<path d="M 318.88 349.00 C 318.73 348.17 318.58 347.52 317.88 346.50 C 317.17 345.48 315.75 343.98 314.62 342.88 C 313.50 341.77 312.50 340.85 311.12 339.88 C 309.75 338.90 308.52 338.17 306.38 337.00 C 304.23 335.83 300.38 333.85 298.25 332.88 C 296.12 331.90 295.50 331.44 293.62 331.12 C 291.75 330.81 289.17 330.85 287.00 331.00 C 284.83 331.15 282.60 331.54 280.62 332.00 C 278.65 332.46 281.10 332.46 275.12 333.75 C 269.15 335.04 250.35 338.73 244.75 339.75 C 239.15 340.77 245.54 339.19 241.50 339.88 C 237.46 340.56 229.69 342.40 220.50 343.88 C 211.31 345.35 192.21 347.83 186.38 348.75 C 180.54 349.67 185.65 347.27 185.50 349.38 C 185.35 351.48 185.44 359.29 185.50 361.38 C 185.56 363.46 185.60 361.81 185.88 361.88 C 186.15 361.94 185.52 362.23 187.12 361.75 C 188.73 361.27 192.38 359.79 195.50 359.00 C 198.62 358.21 199.90 357.85 205.88 357.00 C 211.85 356.15 225.12 354.73 231.38 353.88 C 237.62 353.02 236.98 352.52 243.38 351.88 C 249.77 351.23 263.83 350.31 269.75 350.00 C 275.67 349.69 276.46 349.73 278.88 350.00 C 281.29 350.27 283.08 350.90 284.25 351.62 C 285.42 352.35 285.46 352.73 285.88 354.38 C 286.29 356.02 286.60 358.67 286.75 361.50 C 286.90 364.33 286.90 368.17 286.75 371.38 C 286.60 374.58 286.21 378.27 285.88 380.75 C 285.54 383.23 285.42 384.10 284.75 386.25 C 284.08 388.40 283.35 388.02 281.88 393.62 C 280.40 399.23 276.85 415.02 275.88 419.88 C 274.90 424.73 275.71 421.90 276.00 422.75 C 276.29 423.60 277.10 424.50 277.62 425.00 C 278.15 425.50 278.04 425.62 279.12 425.75 C 280.21 425.88 282.25 426.10 284.12 425.75 C 286.00 425.40 287.69 425.00 290.38 423.62 C 293.06 422.25 298.17 418.98 300.25 417.50 C 302.33 416.02 301.96 416.00 302.88 414.75 C 303.79 413.50 304.94 411.75 305.75 410.00 C 306.56 408.25 307.27 406.00 307.75 404.25 C 308.23 402.50 308.42 401.79 308.62 399.50 C 308.83 397.21 308.67 394.38 309.00 390.50 C 309.33 386.62 310.29 379.92 310.62 376.25 C 310.96 372.58 310.77 370.79 311.00 368.50 C 311.23 366.21 311.62 364.02 312.00 362.50 C 312.38 360.98 312.29 360.85 313.25 359.38 C 314.21 357.90 316.83 354.94 317.75 353.62 C 318.67 352.31 318.56 352.27 318.75 351.50 C 318.94 350.73 319.02 349.83 318.88 349.00 Z" id="s-11-f-1"/>
<path d="M 318.88 349.00 C 318.73 348.17 318.58 347.52 317.88 346.50 C 317.17 345.48 315.75 343.98 314.62 342.88 C 313.50 341.77 312.50 340.85 311.12 339.88 C 309.75 338.90 308.42 338.12 306.38 337.00 C 304.33 335.88 301.00 334.10 298.88 333.12 C 296.75 332.15 295.60 331.48 293.62 331.12 C 291.65 330.77 289.17 330.85 287.00 331.00 C 284.83 331.15 282.60 331.54 280.62 332.00 C 278.65 332.46 281.10 332.46 275.12 333.75 C 269.15 335.04 250.35 338.73 244.75 339.75 C 239.15 340.77 245.54 339.19 241.50 339.88 C 237.46 340.56 226.85 342.85 220.50 343.88 C 214.15 344.90 209.06 345.19 203.38 346.00 C 197.69 346.81 189.35 348.19 186.38 348.75 C 183.40 349.31 185.65 347.27 185.50 349.38 C 185.35 351.48 185.44 359.29 185.50 361.38 C 185.56 363.46 185.60 361.81 185.88 361.88 C 186.15 361.94 185.52 362.23 187.12 361.75 C 188.73 361.27 192.38 359.79 195.50 359.00 C 198.62 358.21 198.54 358.04 205.88 357.00 C 213.21 355.96 233.25 353.60 239.50 352.75 C 245.75 351.90 238.33 352.33 243.38 351.88 C 248.42 351.42 263.46 350.25 269.75 350.00 C 276.04 349.75 278.85 350.19 281.12 350.38 C 283.40 350.56 282.73 350.79 283.38 351.12 C 284.02 351.46 284.58 351.83 285.00 352.38 C 285.42 352.92 285.58 352.85 285.88 354.38 C 286.17 355.90 286.60 358.67 286.75 361.50 C 286.90 364.33 286.92 368.00 286.75 371.38 C 286.58 374.75 286.08 379.27 285.75 381.75 C 285.42 384.23 285.40 384.31 284.75 386.25 C 284.10 388.19 282.48 391.50 281.88 393.38 C 281.27 395.25 280.88 396.73 281.12 397.50 C 281.38 398.27 278.81 397.94 283.38 398.00 C 287.94 398.06 304.25 397.98 308.50 397.88 C 312.75 397.77 308.79 398.60 308.88 397.38 C 308.96 396.15 308.71 394.02 309.00 390.50 C 309.29 386.98 310.29 379.92 310.62 376.25 C 310.96 372.58 310.77 370.79 311.00 368.50 C 311.23 366.21 311.62 364.02 312.00 362.50 C 312.38 360.98 312.29 360.85 313.25 359.38 C 314.21 357.90 316.83 354.94 317.75 353.62 C 318.67 352.31 318.56 352.27 318.75 351.50 C 318.94 350.73 319.02 349.83 318.88 349.00 Z" id="s-11-f-2"/>
<path d="M 318.88 348.75 C 318.75 348.21 318.58 347.48 317.88 346.50 C 317.17 345.52 315.75 343.98 314.62 342.88 C 313.50 341.77 312.50 340.85 311.12 339.88 C 309.75 338.90 308.52 338.17 306.38 337.00 C 304.23 335.83 300.38 333.85 298.25 332.88 C 296.12 331.90 295.50 331.44 293.62 331.12 C 291.75 330.81 289.17 330.85 287.00 331.00 C 284.83 331.15 282.60 331.54 280.62 332.00 C 278.65 332.46 281.10 332.46 275.12 333.75 C 269.15 335.04 250.35 338.73 244.75 339.75 C 239.15 340.77 245.54 339.19 241.50 339.88 C 237.46 340.56 229.69 342.40 220.50 343.88 C 211.31 345.35 192.21 347.83 186.38 348.75 C 180.54 349.67 185.65 347.27 185.50 349.38 C 185.35 351.48 185.44 359.29 185.50 361.38 C 185.56 363.46 185.60 361.81 185.88 361.88 C 186.15 361.94 185.52 362.23 187.12 361.75 C 188.73 361.27 192.38 359.79 195.50 359.00 C 198.62 358.21 198.54 358.04 205.88 357.00 C 213.21 355.96 233.25 353.60 239.50 352.75 C 245.75 351.90 238.33 352.33 243.38 351.88 C 248.42 351.42 257.21 350.35 269.75 350.00 C 282.29 349.65 310.44 349.96 318.62 349.75 C 326.81 349.54 319.00 349.29 318.88 348.75 Z" id="s-11-f-3"/>
<path d="M 282.00 332.38 C 281.81 329.42 282.50 331.60 280.62 332.00 C 278.75 332.40 276.73 333.46 270.75 334.75 C 264.77 336.04 249.62 338.90 244.75 339.75 C 239.88 340.60 245.54 339.19 241.50 339.88 C 237.46 340.56 229.69 342.40 220.50 343.88 C 211.31 345.35 192.21 347.83 186.38 348.75 C 180.54 349.67 185.65 347.27 185.50 349.38 C 185.35 351.48 185.44 359.29 185.50 361.38 C 185.56 363.46 185.60 361.81 185.88 361.88 C 186.15 361.94 185.52 362.23 187.12 361.75 C 188.73 361.27 192.38 359.79 195.50 359.00 C 198.62 358.21 198.54 358.04 205.88 357.00 C 213.21 355.96 233.25 353.60 239.50 352.75 C 245.75 351.90 238.33 352.33 243.38 351.88 C 248.42 351.42 263.35 350.35 269.75 350.00 C 276.15 349.65 279.71 352.69 281.75 349.75 C 283.79 346.81 282.19 335.33 282.00 332.38 Z" id="s-11-f-4"/>
<path d="M 233.88 341.88 C 233.21 340.17 232.23 341.54 230.00 341.88 C 227.77 342.21 225.08 343.17 220.50 343.88 C 215.92 344.58 208.25 345.29 202.50 346.12 C 196.75 346.96 188.83 348.33 186.00 348.88 C 183.17 349.42 185.58 347.29 185.50 349.38 C 185.42 351.46 185.44 359.29 185.50 361.38 C 185.56 363.46 185.60 361.81 185.88 361.88 C 186.15 361.94 185.52 362.23 187.12 361.75 C 188.73 361.27 192.38 359.79 195.50 359.00 C 198.62 358.21 199.56 357.94 205.88 357.00 C 212.19 356.06 228.69 354.19 233.38 353.38 C 238.06 352.56 233.92 354.04 234.00 352.12 C 234.08 350.21 234.54 343.58 233.88 341.88 Z" id="s-11-f-5"/>
</g>
<g id="s-12" clip-path="url(#c-s-12)">
<use href="#s-12-f-0"/>
<path d="M 244.12 303.75 C 242.31 302.77 240.48 303.50 239.00 303.62 C 237.52 303.75 238.23 304.15 235.25 304.50 C 232.27 304.85 224.02 305.33 221.12 305.75 C 218.23 306.17 218.10 305.15 217.88 307.00 C 217.65 308.85 219.27 313.19 219.75 316.88 C 220.23 320.56 220.54 310.17 220.75 329.12 C 220.96 348.08 220.62 410.92 221.00 430.62 C 221.38 450.33 222.42 444.48 223.00 447.38 C 223.58 450.27 222.79 447.94 224.50 448.00 C 226.21 448.06 231.62 447.88 233.25 447.75 C 234.88 447.62 233.79 448.62 234.25 447.25 C 234.71 445.88 235.25 442.08 236.00 439.50 C 236.75 436.92 237.98 434.46 238.75 431.75 C 239.52 429.04 240.12 426.29 240.62 423.25 C 241.12 420.21 241.38 425.33 241.75 413.50 C 242.12 401.67 242.48 363.29 242.88 352.25 C 243.27 341.21 243.90 351.31 244.12 347.25 C 244.35 343.19 244.10 331.88 244.25 327.88 C 244.40 323.88 244.58 324.98 245.00 323.25 C 245.42 321.52 245.96 318.94 246.75 317.50 C 247.54 316.06 249.08 315.40 249.75 314.62 C 250.42 313.85 250.58 313.42 250.75 312.88 C 250.92 312.33 250.90 311.94 250.75 311.38 C 250.60 310.81 250.98 310.77 249.88 309.50 C 248.77 308.23 245.94 304.73 244.12 303.75 Z" id="s-12-f-1"/>
<path d="M 244.12 303.75 C 242.31 302.77 240.48 303.50 239.00 303.62 C 237.52 303.75 238.23 304.15 235.25 304.50 C 232.27 304.85 223.90 305.42 221.12 305.75 C 218.35 306.08 219.15 306.23 218.62 306.50 C 218.10 306.77 218.10 306.94 218.00 307.38 C 217.90 307.81 217.71 307.54 218.00 309.12 C 218.29 310.71 219.29 313.54 219.75 316.88 C 220.21 320.21 220.62 322.85 220.75 329.12 C 220.88 335.40 220.48 343.21 220.50 354.50 C 220.52 365.79 220.73 389.29 220.88 396.88 C 221.02 404.46 217.94 399.48 221.38 400.00 C 224.81 400.52 238.06 400.12 241.50 400.00 C 244.94 399.88 241.77 407.21 242.00 399.25 C 242.23 391.29 242.52 360.92 242.88 352.25 C 243.23 343.58 243.90 351.29 244.12 347.25 C 244.35 343.21 244.10 332.00 244.25 328.00 C 244.40 324.00 244.58 325.00 245.00 323.25 C 245.42 321.50 245.96 318.94 246.75 317.50 C 247.54 316.06 249.08 315.40 249.75 314.62 C 250.42 313.85 250.58 313.42 250.75 312.88 C 250.92 312.33 250.90 311.94 250.75 311.38 C 250.60 310.81 250.98 310.77 249.88 309.50 C 248.77 308.23 245.94 304.73 244.12 303.75 Z" id="s-12-f-2"/>
<path d="M 244.12 303.75 C 242.31 302.77 240.48 303.50 239.00 303.62 C 237.52 303.75 236.81 304.31 235.25 304.50 C 233.69 304.69 230.92 304.58 229.62 304.75 C 228.33 304.92 228.92 305.33 227.50 305.50 C 226.08 305.67 222.73 305.50 221.12 305.75 C 219.52 306.00 218.10 305.15 217.88 307.00 C 217.65 308.85 219.29 313.71 219.75 316.88 C 220.21 320.04 220.44 321.56 220.62 326.00 C 220.81 330.44 220.90 340.44 220.88 343.50 C 220.85 346.56 220.56 343.04 220.50 344.38 C 220.44 345.71 220.44 350.21 220.50 351.50 C 220.56 352.79 217.69 351.96 220.88 352.12 C 224.06 352.29 236.00 352.52 239.62 352.50 C 243.25 352.48 242.02 352.17 242.62 352.00 C 243.23 351.83 243.00 352.29 243.25 351.50 C 243.50 350.71 244.00 350.58 244.12 347.25 C 244.25 343.92 243.85 335.50 244.00 331.50 C 244.15 327.50 244.52 325.62 245.00 323.25 C 245.48 320.88 246.08 318.69 246.88 317.25 C 247.67 315.81 249.10 315.35 249.75 314.62 C 250.40 313.90 250.58 313.42 250.75 312.88 C 250.92 312.33 250.90 311.94 250.75 311.38 C 250.60 310.81 250.98 310.77 249.88 309.50 C 248.77 308.23 245.94 304.73 244.12 303.75 Z" id="s-12-f-3"/>
</g>
<g id="s-13" clip-path="url(#c-s-13)">
<use href="#s-13-f-0"/>
<path d="M 439.88 109.75 C 439.79 107.27 441.40 109.92 439.50 109.12 C 437.60 108.33 431.15 105.85 428.50 105.00 C 425.85 104.15 425.35 104.17 423.62 104.00 C 421.90 103.83 421.23 103.21 418.12 104.00 C 415.02 104.79 409.46 107.29 405.00 108.75 C 400.54 110.21 397.44 111.25 391.38 112.75 C 385.31 114.25 375.75 116.35 368.62 117.75 C 361.50 119.15 352.65 120.29 348.62 121.12 C 344.60 121.96 345.27 122.06 344.50 122.75 C 343.73 123.44 343.77 124.35 344.00 125.25 C 344.23 126.15 344.71 126.83 345.88 128.12 C 347.04 129.42 349.50 131.92 351.00 133.00 C 352.50 134.08 353.50 134.19 354.88 134.62 C 356.25 135.06 357.21 135.29 359.25 135.62 C 361.29 135.96 362.98 136.44 367.12 136.62 C 371.27 136.81 379.77 136.92 384.12 136.75 C 388.48 136.58 387.19 136.62 393.25 135.62 C 399.31 134.62 412.79 132.40 420.50 130.75 C 428.21 129.10 436.25 126.88 439.50 125.75 C 442.75 124.62 439.94 126.67 440.00 124.00 C 440.06 121.33 439.96 112.23 439.88 109.75 Z" id="s-13-f-1"/>
<path d="M 391.88 113.12 C 391.79 109.62 391.94 112.77 391.50 112.75 C 391.06 112.73 393.06 112.17 389.25 113.00 C 385.44 113.83 375.40 116.40 368.62 117.75 C 361.85 119.10 352.50 120.40 348.62 121.12 C 344.75 121.85 346.10 121.81 345.38 122.12 C 344.65 122.44 344.48 122.48 344.25 123.00 C 344.02 123.52 343.73 124.40 344.00 125.25 C 344.27 126.10 344.71 126.83 345.88 128.12 C 347.04 129.42 349.50 131.92 351.00 133.00 C 352.50 134.08 353.50 134.19 354.88 134.62 C 356.25 135.06 356.17 135.25 359.25 135.62 C 362.33 136.00 369.23 136.69 373.38 136.88 C 377.52 137.06 381.10 136.94 384.12 136.75 C 387.15 136.56 390.19 136.25 391.50 135.75 C 392.81 135.25 391.94 137.52 392.00 133.75 C 392.06 129.98 391.96 116.62 391.88 113.12 Z" id="s-13-f-2"/>
</g>
<g id="s-14" clip-path="url(#c-s-14)">
<use href="#s-14-f-0"/>
<path d="M 462.88 186.00 C 462.50 182.40 463.33 185.31 460.50 184.00 C 457.67 182.69 449.25 179.10 445.88 178.12 C 442.50 177.15 443.33 177.52 440.25 178.12 C 437.17 178.73 434.85 179.98 427.38 181.75 C 419.90 183.52 412.19 185.38 395.38 188.75 C 378.56 192.12 339.00 199.44 326.50 202.00 C 314.00 204.56 321.62 203.56 320.38 204.12 C 319.12 204.69 319.23 204.88 319.00 205.38 C 318.77 205.88 318.48 206.27 319.00 207.12 C 319.52 207.98 321.06 209.56 322.12 210.50 C 323.19 211.44 323.17 211.58 325.38 212.75 C 327.58 213.92 332.58 216.35 335.38 217.50 C 338.17 218.65 340.10 219.10 342.12 219.62 C 344.15 220.15 345.48 220.42 347.50 220.62 C 349.52 220.83 352.10 221.15 354.25 220.88 C 356.40 220.60 357.81 219.65 360.38 219.00 C 362.94 218.35 366.69 217.50 369.62 217.00 C 372.56 216.50 372.02 217.00 378.00 216.00 C 383.98 215.00 400.60 212.02 405.50 211.00 C 410.40 209.98 402.10 210.56 407.38 209.88 C 412.65 209.19 427.98 207.54 437.12 206.88 C 446.27 206.21 457.98 206.08 462.25 205.88 C 466.52 205.67 462.65 208.94 462.75 205.62 C 462.85 202.31 463.25 189.60 462.88 186.00 Z" id="s-14-f-1"/>
<path d="M 414.75 185.12 C 414.62 182.29 419.69 183.56 414.25 184.62 C 408.81 185.69 396.83 188.58 382.12 191.50 C 367.42 194.42 336.29 200.02 326.00 202.12 C 315.71 204.23 321.54 203.58 320.38 204.12 C 319.21 204.67 319.23 204.88 319.00 205.38 C 318.77 205.88 318.38 206.19 319.00 207.12 C 319.62 208.06 320.42 209.42 322.75 211.00 C 325.08 212.58 329.67 215.17 333.00 216.62 C 336.33 218.08 339.67 219.04 342.75 219.75 C 345.83 220.46 349.38 220.71 351.50 220.88 C 353.62 221.04 354.02 221.06 355.50 220.75 C 356.98 220.44 358.02 219.62 360.38 219.00 C 362.73 218.38 366.69 217.50 369.62 217.00 C 372.56 216.50 372.02 217.00 378.00 216.00 C 383.98 215.00 400.60 212.02 405.50 211.00 C 410.40 209.98 405.94 210.19 407.38 209.88 C 408.81 209.56 412.92 209.31 414.12 209.12 C 415.33 208.94 414.48 210.00 414.62 208.75 C 414.77 207.50 414.98 205.56 415.00 201.62 C 415.02 197.69 414.88 187.96 414.75 185.12 Z" id="s-14-f-2"/>
<path d="M 366.88 195.00 C 366.73 191.21 372.71 193.33 366.00 194.50 C 359.29 195.67 334.21 200.42 326.62 202.00 C 319.04 203.58 321.77 203.44 320.50 204.00 C 319.23 204.56 319.25 204.85 319.00 205.38 C 318.75 205.90 318.60 206.38 319.00 207.12 C 319.40 207.88 320.31 208.94 321.38 209.88 C 322.44 210.81 323.44 211.62 325.38 212.75 C 327.31 213.88 330.15 215.46 333.00 216.62 C 335.85 217.79 339.92 219.06 342.50 219.75 C 345.08 220.44 346.33 220.58 348.50 220.75 C 350.67 220.92 353.52 221.04 355.50 220.75 C 357.48 220.46 358.54 219.50 360.38 219.00 C 362.21 218.50 365.42 218.04 366.50 217.75 C 367.58 217.46 366.81 221.04 366.88 217.25 C 366.94 213.46 367.02 198.79 366.88 195.00 Z" id="s-14-f-3"/>
</g>
<g id="s-15" clip-path="url(#c-s-15)">
<use href="#s-15-f-0"/>
<path d="M 405.12 210.50 C 404.04 210.29 402.67 210.48 401.88 210.62 C 401.08 210.77 401.42 211.19 400.38 211.38 C 399.33 211.56 396.62 211.58 395.62 211.75 C 394.62 211.92 395.19 212.23 394.38 212.38 C 393.56 212.52 392.60 212.29 390.75 212.62 C 388.90 212.96 385.10 214.04 383.25 214.38 C 381.40 214.71 380.58 214.46 379.62 214.62 C 378.67 214.79 377.96 215.12 377.50 215.38 C 377.04 215.62 376.33 213.60 376.88 216.12 C 377.42 218.65 379.60 225.35 380.75 230.50 C 381.90 235.65 382.90 240.85 383.75 247.00 C 384.60 253.15 385.38 260.67 385.88 267.38 C 386.38 274.08 386.62 276.00 386.75 287.25 C 386.88 298.50 386.81 320.54 386.62 334.88 C 386.44 349.21 386.10 362.96 385.62 373.25 C 385.15 383.54 384.40 391.19 383.75 396.62 C 383.10 402.06 382.54 403.44 381.75 405.88 C 380.96 408.31 379.90 409.92 379.00 411.25 C 378.10 412.58 377.19 413.29 376.38 413.88 C 375.56 414.46 374.88 414.60 374.12 414.75 C 373.38 414.90 373.81 415.08 371.88 414.75 C 369.94 414.42 367.33 414.21 362.50 412.75 C 357.67 411.29 346.94 407.29 342.88 406.00 C 338.81 404.71 339.17 405.08 338.12 405.00 C 337.08 404.92 337.02 404.69 336.62 405.50 C 336.23 406.31 335.90 408.69 335.75 409.88 C 335.60 411.06 335.62 411.94 335.75 412.62 C 335.88 413.31 334.40 411.94 336.50 414.00 C 338.60 416.06 344.73 421.38 348.38 425.00 C 352.02 428.62 355.29 432.17 358.38 435.75 C 361.46 439.33 364.62 443.40 366.88 446.50 C 369.12 449.60 370.08 452.19 371.88 454.38 C 373.67 456.56 376.02 458.54 377.62 459.62 C 379.23 460.71 380.06 460.71 381.50 460.88 C 382.94 461.04 384.44 461.12 386.25 460.62 C 388.06 460.12 390.65 458.85 392.38 457.88 C 394.10 456.90 394.42 456.83 396.62 454.75 C 398.83 452.67 403.65 447.85 405.62 445.38 C 407.60 442.90 407.65 441.96 408.50 439.88 C 409.35 437.79 410.06 435.77 410.75 432.88 C 411.44 429.98 412.15 425.79 412.62 422.50 C 413.10 419.21 413.46 422.31 413.62 413.12 C 413.79 403.94 414.06 382.79 413.62 367.38 C 413.19 351.96 411.60 334.40 411.00 320.62 C 410.40 306.85 410.17 296.04 410.00 284.75 C 409.83 273.46 409.83 260.12 410.00 252.88 C 410.17 245.62 410.38 245.54 411.00 241.25 C 411.62 236.96 413.27 230.48 413.75 227.12 C 414.23 223.77 413.92 222.54 413.88 221.12 C 413.83 219.71 413.83 219.60 413.50 218.62 C 413.17 217.65 412.73 216.38 411.88 215.25 C 411.02 214.12 409.50 212.67 408.38 211.88 C 407.25 211.08 406.21 210.71 405.12 210.50 Z" id="s-15-f-1"/>
<path d="M 405.12 210.50 C 404.06 210.29 402.79 210.48 402.00 210.62 C 401.21 210.77 401.29 211.21 400.38 211.38 C 399.46 211.54 398.35 211.31 396.50 211.62 C 394.65 211.94 391.15 212.92 389.25 213.25 C 387.35 213.58 386.12 213.44 385.12 213.62 C 384.12 213.81 384.17 214.21 383.25 214.38 C 382.33 214.54 380.69 214.40 379.62 214.62 C 378.56 214.85 376.69 213.10 376.88 215.75 C 377.06 218.40 379.77 226.40 380.75 230.50 C 381.73 234.60 382.08 236.35 382.75 240.38 C 383.42 244.40 384.23 250.10 384.75 254.62 C 385.27 259.15 385.54 262.06 385.88 267.50 C 386.21 272.94 386.65 274.94 386.75 287.25 C 386.85 299.56 386.67 327.62 386.50 341.38 C 386.33 355.12 386.21 360.52 385.75 369.75 C 385.29 378.98 386.06 383.08 383.75 396.75 C 381.44 410.42 373.85 442.23 371.88 451.75 C 369.90 461.27 371.12 452.71 371.88 453.88 C 372.62 455.04 375.02 457.62 376.38 458.75 C 377.73 459.88 379.15 460.27 380.00 460.62 C 380.85 460.98 380.46 460.88 381.50 460.88 C 382.54 460.88 384.73 460.96 386.25 460.62 C 387.77 460.29 389.31 459.52 390.62 458.88 C 391.94 458.23 392.31 458.23 394.12 456.75 C 395.94 455.27 399.44 452.10 401.50 450.00 C 403.56 447.90 405.15 446.29 406.50 444.12 C 407.85 441.96 408.92 438.85 409.62 437.00 C 410.33 435.15 410.23 435.58 410.75 433.00 C 411.27 430.42 412.27 424.83 412.75 421.50 C 413.23 418.17 413.48 421.98 413.62 413.00 C 413.77 404.02 414.15 385.56 413.62 367.62 C 413.10 349.69 411.10 324.50 410.50 305.38 C 409.90 286.25 409.88 263.88 410.00 252.88 C 410.12 241.88 410.62 243.67 411.25 239.38 C 411.88 235.08 413.31 230.17 413.75 227.12 C 414.19 224.08 414.04 222.88 413.88 221.12 C 413.71 219.38 413.27 217.83 412.75 216.62 C 412.23 215.42 411.48 214.67 410.75 213.88 C 410.02 213.08 409.31 212.44 408.38 211.88 C 407.44 211.31 406.19 210.71 405.12 210.50 Z" id="s-15-f-2"/>
<path d="M 405.12 210.50 C 404.04 210.29 402.67 210.48 401.88 210.62 C 401.08 210.77 401.27 211.21 400.38 211.38 C 399.48 211.54 398.35 211.31 396.50 211.62 C 394.65 211.94 391.12 212.92 389.25 213.25 C 387.38 213.58 386.25 213.44 385.25 213.62 C 384.25 213.81 384.19 214.21 383.25 214.38 C 382.31 214.54 380.69 214.40 379.62 214.62 C 378.56 214.85 376.69 213.10 376.88 215.75 C 377.06 218.40 379.77 226.40 380.75 230.50 C 381.73 234.60 382.08 236.35 382.75 240.38 C 383.42 244.40 384.25 250.38 384.75 254.62 C 385.25 258.88 385.42 260.44 385.75 265.88 C 386.08 271.31 386.60 275.75 386.75 287.25 C 386.90 298.75 386.79 321.12 386.62 334.88 C 386.46 348.62 386.23 359.44 385.75 369.75 C 385.27 380.06 385.96 383.42 383.75 396.75 C 381.54 410.08 374.33 440.73 372.50 449.75 C 370.67 458.77 368.06 450.71 372.75 450.88 C 377.44 451.04 395.15 451.67 400.62 450.75 C 406.10 449.83 404.31 447.19 405.62 445.38 C 406.94 443.56 407.65 441.94 408.50 439.88 C 409.35 437.81 410.04 436.06 410.75 433.00 C 411.46 429.94 412.25 425.35 412.75 421.50 C 413.25 417.65 413.56 416.62 413.75 409.88 C 413.94 403.12 413.92 388.67 413.88 381.00 C 413.83 373.33 414.06 376.48 413.50 363.88 C 412.94 351.27 411.08 323.88 410.50 305.38 C 409.92 286.88 409.88 263.88 410.00 252.88 C 410.12 241.88 410.62 243.67 411.25 239.38 C 411.88 235.08 413.31 230.17 413.75 227.12 C 414.19 224.08 414.04 222.88 413.88 221.12 C 413.71 219.38 413.27 217.83 412.75 216.62 C 412.23 215.42 411.48 214.67 410.75 213.88 C 410.02 213.08 409.31 212.44 408.38 211.88 C 407.44 211.31 406.21 210.71 405.12 210.50 Z" id="s-15-f-3"/>
<path d="M 405.12 210.50 C 404.04 210.29 402.67 210.48 401.88 210.62 C 401.08 210.77 401.42 211.19 400.38 211.38 C 399.33 211.56 396.62 211.58 395.62 211.75 C 394.62 211.92 395.19 212.23 394.38 212.38 C 393.56 212.52 391.71 212.46 390.75 212.62 C 389.79 212.79 389.54 213.21 388.62 213.38 C 387.71 213.54 386.15 213.46 385.25 213.62 C 384.35 213.79 384.67 214.08 383.25 214.38 C 381.83 214.67 377.17 212.69 376.75 215.38 C 376.33 218.06 379.58 225.23 380.75 230.50 C 381.92 235.77 382.90 240.85 383.75 247.00 C 384.60 253.15 385.38 260.67 385.88 267.38 C 386.38 274.08 386.62 276.00 386.75 287.25 C 386.88 298.50 386.79 321.12 386.62 334.88 C 386.46 348.62 386.06 361.08 385.75 369.75 C 385.44 378.42 385.08 382.40 384.75 386.88 C 384.42 391.35 384.04 394.50 383.75 396.62 C 383.46 398.75 383.12 398.65 383.00 399.62 C 382.88 400.60 379.44 401.94 383.00 402.50 C 386.56 403.06 399.58 402.94 404.38 403.00 C 409.17 403.06 410.17 402.98 411.75 402.88 C 413.33 402.77 413.56 408.25 413.88 402.38 C 414.19 396.50 414.10 381.17 413.62 367.62 C 413.15 354.08 411.60 335.10 411.00 321.12 C 410.40 307.15 410.17 295.12 410.00 283.75 C 409.83 272.38 409.83 259.96 410.00 252.88 C 410.17 245.79 410.38 245.54 411.00 241.25 C 411.62 236.96 413.27 230.48 413.75 227.12 C 414.23 223.77 413.92 222.54 413.88 221.12 C 413.83 219.71 413.85 219.62 413.50 218.62 C 413.15 217.62 412.60 216.25 411.75 215.12 C 410.90 214.00 409.48 212.65 408.38 211.88 C 407.27 211.10 406.21 210.71 405.12 210.50 Z" id="s-15-f-4"/>
<path d="M 405.12 210.50 C 404.04 210.29 402.67 210.48 401.88 210.62 C 401.08 210.77 401.42 211.19 400.38 211.38 C 399.33 211.56 396.62 211.58 395.62 211.75 C 394.62 211.92 395.19 212.23 394.38 212.38 C 393.56 212.52 391.71 212.46 390.75 212.62 C 389.79 212.79 389.54 213.21 388.62 213.38 C 387.71 213.54 386.15 213.46 385.25 213.62 C 384.35 213.79 384.67 214.08 383.25 214.38 C 381.83 214.67 377.17 212.69 376.75 215.38 C 376.33 218.06 379.75 226.33 380.75 230.50 C 381.75 234.67 382.08 236.35 382.75 240.38 C 383.42 244.40 384.23 250.12 384.75 254.62 C 385.27 259.12 385.54 261.94 385.88 267.38 C 386.21 272.81 386.60 277.79 386.75 287.25 C 386.90 296.71 386.88 312.94 386.75 324.12 C 386.62 335.31 386.02 349.25 386.00 354.38 C 385.98 359.50 383.48 354.81 386.62 354.88 C 389.77 354.94 400.77 354.90 404.88 354.75 C 408.98 354.60 409.94 354.33 411.25 354.00 C 412.56 353.67 412.50 353.92 412.75 352.75 C 413.00 351.58 413.04 352.27 412.75 347.00 C 412.46 341.73 411.42 329.79 411.00 321.12 C 410.58 312.46 410.42 306.38 410.25 295.00 C 410.08 283.62 409.88 261.83 410.00 252.88 C 410.12 243.92 410.38 245.54 411.00 241.25 C 411.62 236.96 413.27 230.48 413.75 227.12 C 414.23 223.77 413.92 222.54 413.88 221.12 C 413.83 219.71 413.85 219.62 413.50 218.62 C 413.15 217.62 412.60 216.25 411.75 215.12 C 410.90 214.00 409.48 212.65 408.38 211.88 C 407.27 211.10 406.21 210.71 405.12 210.50 Z" id="s-15-f-5"/>
<path d="M 405.12 210.50 C 404.04 210.29 402.67 210.48 401.88 210.62 C 401.08 210.77 401.42 211.19 400.38 211.38 C 399.33 211.56 396.62 211.58 395.62 211.75 C 394.62 211.92 395.19 212.23 394.38 212.38 C 393.56 212.52 391.71 212.46 390.75 212.62 C 389.79 212.79 389.54 213.21 388.62 213.38 C 387.71 213.54 386.15 213.46 385.25 213.62 C 384.35 213.79 384.67 214.08 383.25 214.38 C 381.83 214.67 377.00 211.92 376.75 215.38 C 376.50 218.83 380.42 228.58 381.75 235.12 C 383.08 241.67 383.94 246.48 384.75 254.62 C 385.56 262.77 386.25 275.33 386.62 284.00 C 387.00 292.67 383.08 302.81 387.00 306.62 C 390.92 310.44 406.19 306.92 410.12 306.88 C 414.06 306.83 410.65 310.23 410.62 306.38 C 410.60 302.52 410.10 292.67 410.00 283.75 C 409.90 274.83 409.83 259.96 410.00 252.88 C 410.17 245.79 410.38 245.54 411.00 241.25 C 411.62 236.96 413.27 230.48 413.75 227.12 C 414.23 223.77 413.92 222.54 413.88 221.12 C 413.83 219.71 413.85 219.62 413.50 218.62 C 413.15 217.62 412.60 216.25 411.75 215.12 C 410.90 214.00 409.48 212.65 408.38 211.88 C 407.27 211.10 406.21 210.71 405.12 210.50 Z" id="s-15-f-6"/>
<path d="M 405.75 210.62 C 404.42 210.23 402.77 210.50 401.88 210.62 C 400.98 210.75 401.42 211.19 400.38 211.38 C 399.33 211.56 396.62 211.58 395.62 211.75 C 394.62 211.92 395.19 212.23 394.38 212.38 C 393.56 212.52 391.71 212.46 390.75 212.62 C 389.79 212.79 389.54 213.21 388.62 213.38 C 387.71 213.54 386.15 213.46 385.25 213.62 C 384.35 213.79 384.67 214.08 383.25 214.38 C 381.83 214.67 377.00 211.92 376.75 215.38 C 376.50 218.83 380.58 229.85 381.75 235.12 C 382.92 240.40 383.21 243.12 383.75 247.00 C 384.29 250.88 384.69 256.40 385.00 258.38 C 385.31 260.35 382.71 258.77 385.62 258.88 C 388.54 258.98 398.44 259.06 402.50 259.00 C 406.56 258.94 408.75 259.52 410.00 258.50 C 411.25 257.48 409.83 255.77 410.00 252.88 C 410.17 249.98 410.38 245.42 411.00 241.12 C 411.62 236.83 413.27 230.48 413.75 227.12 C 414.23 223.77 413.92 222.42 413.88 221.00 C 413.83 219.58 413.85 219.60 413.50 218.62 C 413.15 217.65 412.35 216.06 411.75 215.12 C 411.15 214.19 410.88 213.75 409.88 213.00 C 408.88 212.25 407.08 211.02 405.75 210.62 Z" id="s-15-f-7"/>
</g>
</svg>