<?xml version="1.0" encoding="UTF-8"?>
<svg xmlns="http://www.w3.org/2000/svg" viewBox="0 0 500 500">
<defs>
<path d="M 237.62 128.38 C 237.29 127.38 236.50 126.27 235.88 125.50 C 235.25 124.73 234.71 124.31 233.88 123.75 C 233.04 123.19 233.17 123.08 230.88 122.12 C 228.58 121.17 222.71 118.85 220.12 118.00 C 217.54 117.15 217.15 117.15 215.38 117.00 C 213.60 116.85 211.58 116.67 209.50 117.12 C 207.42 117.58 205.88 118.81 202.88 119.75 C 199.88 120.69 196.58 121.58 191.50 122.75 C 186.42 123.92 176.00 126.06 172.38 126.75 C 168.75 127.44 173.75 126.17 169.75 126.88 C 165.75 127.58 153.88 129.85 148.38 131.00 C 142.88 132.15 142.81 132.62 136.75 133.75 C 130.69 134.88 119.48 136.71 112.00 137.75 C 104.52 138.79 95.60 139.48 91.88 140.00 C 88.15 140.52 90.10 140.31 89.62 140.88 C 89.15 141.44 88.62 142.31 89.00 143.38 C 89.38 144.44 90.60 146.06 91.88 147.25 C 93.15 148.44 95.38 149.75 96.62 150.50 C 97.88 151.25 97.48 151.25 99.38 151.75 C 101.27 152.25 103.65 153.17 108.00 153.50 C 112.35 153.83 118.96 154.00 125.50 153.75 C 132.04 153.50 139.62 152.98 147.25 152.00 C 154.88 151.02 164.58 148.92 171.25 147.88 C 177.92 146.83 179.67 147.10 187.25 145.75 C 194.83 144.40 208.96 141.58 216.75 139.75 C 224.54 137.92 230.62 135.90 234.00 134.75 C 237.38 133.60 236.35 133.42 237.00 132.88 C 237.65 132.33 237.77 132.25 237.88 131.50 C 237.98 130.75 237.96 129.38 237.62 128.38 Z" id="s-0-f-0"/>
<clipPath id="c-s-0"><use href="#s-0-f-0"/></clipPath>
<path d="M 140.50 58.12 C 138.62 58.38 138.58 59.17 138.00 59.62 C 137.42 60.08 137.33 60.31 137.00 60.88 C 136.67 61.44 136.15 61.85 136.00 63.00 C 135.85 64.15 135.67 66.29 136.12 67.75 C 136.58 69.21 138.00 70.42 138.75 71.75 C 139.50 73.08 139.96 74.02 140.62 75.75 C 141.29 77.48 142.23 80.25 142.75 82.12 C 143.27 84.00 143.25 79.15 143.75 87.00 C 144.25 94.85 145.46 118.52 145.75 129.25 C 146.04 139.98 145.17 141.67 145.50 151.38 C 145.83 161.08 147.25 181.25 147.75 187.50 C 148.25 193.75 148.10 188.62 148.50 188.88 C 148.90 189.12 146.62 189.31 150.12 189.00 C 153.62 188.69 166.21 187.44 169.50 187.00 C 172.79 186.56 169.65 192.83 169.88 186.38 C 170.10 179.92 170.60 155.10 170.88 148.25 C 171.15 141.40 171.44 146.19 171.50 145.25 C 171.56 144.31 171.23 143.19 171.25 142.62 C 171.27 142.06 171.50 141.94 171.62 141.88 C 171.75 141.81 171.92 142.58 172.00 142.25 C 172.08 141.92 172.12 143.08 172.12 139.88 C 172.12 136.67 171.85 130.60 172.00 123.00 C 172.15 115.40 172.50 101.02 173.00 94.25 C 173.50 87.48 174.38 85.21 175.00 82.38 C 175.62 79.54 176.46 79.00 176.75 77.25 C 177.04 75.50 177.08 73.31 176.75 71.88 C 176.42 70.44 175.65 69.62 174.75 68.62 C 173.85 67.62 173.81 67.15 171.38 65.88 C 168.94 64.60 163.81 62.29 160.12 61.00 C 156.44 59.71 152.52 58.60 149.25 58.12 C 145.98 57.65 142.38 57.88 140.50 58.12 Z" id="s-1-f-0"/>
<clipPath id="c-s-1"><use href="#s-1-f-0"/></clipPath>
<path d="M 270.88 194.00 C 270.58 192.81 269.94 190.90 268.75 189.38 C 267.56 187.85 265.65 186.27 263.75 184.88 C 261.85 183.48 259.12 181.96 257.38 181.00 C 255.62 180.04 256.81 180.29 253.25 179.12 C 249.69 177.96 239.58 174.85 236.00 174.00 C 232.42 173.15 235.33 173.21 231.75 174.00 C 228.17 174.79 218.94 177.62 214.50 178.75 C 210.06 179.88 209.54 179.92 205.12 180.75 C 200.71 181.58 193.62 182.90 188.00 183.75 C 182.38 184.60 174.38 185.42 171.38 185.88 C 168.38 186.33 173.21 186.19 170.00 186.50 C 166.79 186.81 155.88 187.35 152.12 187.75 C 148.38 188.15 152.10 188.15 147.50 188.88 C 142.90 189.60 133.27 190.65 124.50 192.12 C 115.73 193.60 101.17 196.65 94.88 197.75 C 88.58 198.85 93.90 198.21 86.75 198.75 C 79.60 199.29 58.77 200.31 52.00 201.00 C 45.23 201.69 47.44 202.21 46.12 202.88 C 44.81 203.54 44.50 204.27 44.12 205.00 C 43.75 205.73 43.71 206.58 43.88 207.25 C 44.04 207.92 44.31 208.25 45.12 209.00 C 45.94 209.75 46.17 210.29 48.75 211.75 C 51.33 213.21 57.04 216.25 60.62 217.75 C 64.21 219.25 67.69 220.08 70.25 220.75 C 72.81 221.42 74.17 221.58 76.00 221.75 C 77.83 221.92 77.50 222.71 81.25 221.75 C 85.00 220.79 94.02 217.31 98.50 216.00 C 102.98 214.69 104.44 214.88 108.12 213.88 C 111.81 212.88 116.02 211.15 120.62 210.00 C 125.23 208.85 130.94 207.73 135.75 207.00 C 140.56 206.27 144.23 206.29 149.50 205.62 C 154.77 204.96 159.67 203.79 167.38 203.00 C 175.08 202.21 180.58 201.25 195.75 200.88 C 210.92 200.50 246.88 200.94 258.38 200.75 C 269.88 200.56 263.19 200.08 264.75 199.75 C 266.31 199.42 266.79 199.29 267.75 198.75 C 268.71 198.21 269.98 197.29 270.50 196.50 C 271.02 195.71 271.17 195.19 270.88 194.00 Z" id="s-2-f-0"/>
<clipPath id="c-s-2"><use href="#s-2-f-0"/></clipPath>
<path d="M 121.12 209.75 C 119.71 208.67 120.27 209.52 119.75 209.62 C 119.23 209.73 118.71 210.21 118.00 210.38 C 117.29 210.54 116.08 210.46 115.50 210.62 C 114.92 210.79 115.67 211.04 114.50 211.38 C 113.33 211.71 109.75 212.25 108.50 212.62 C 107.25 213.00 107.46 211.48 107.00 213.62 C 106.54 215.77 106.46 221.67 105.75 225.50 C 105.04 229.33 104.25 232.10 102.75 236.62 C 101.25 241.15 99.08 247.52 96.75 252.62 C 94.42 257.73 91.60 262.65 88.75 267.25 C 85.90 271.85 83.17 275.58 79.62 280.25 C 76.08 284.92 71.29 290.90 67.50 295.25 C 63.71 299.60 59.31 303.90 56.88 306.38 C 54.44 308.85 54.96 308.40 52.88 310.12 C 50.79 311.85 45.83 315.48 44.38 316.75 C 42.92 318.02 42.85 317.58 44.12 317.75 C 45.40 317.92 49.90 317.92 52.00 317.75 C 54.10 317.58 54.23 317.58 56.75 316.75 C 59.27 315.92 64.06 314.12 67.12 312.75 C 70.19 311.38 72.46 310.12 75.12 308.50 C 77.79 306.88 80.40 305.06 83.12 303.00 C 85.85 300.94 88.54 298.83 91.50 296.12 C 94.46 293.42 98.33 289.44 100.88 286.75 C 103.42 284.06 104.75 282.60 106.75 280.00 C 108.75 277.40 111.04 273.96 112.88 271.12 C 114.71 268.29 116.10 266.02 117.75 263.00 C 119.40 259.98 121.21 256.40 122.75 253.00 C 124.29 249.60 125.90 245.04 127.00 242.62 C 128.10 240.21 128.40 239.94 129.38 238.50 C 130.35 237.06 132.15 235.19 132.88 234.00 C 133.60 232.81 133.62 232.88 133.75 231.38 C 133.88 229.88 133.96 226.79 133.62 225.00 C 133.29 223.21 132.65 222.10 131.75 220.62 C 130.85 219.15 130.02 217.94 128.25 216.12 C 126.48 214.31 122.54 210.83 121.12 209.75 Z" id="s-3-f-0"/>
<clipPath id="c-s-3"><use href="#s-3-f-0"/></clipPath>
<path d="M 178.88 201.75 C 177.65 203.04 178.71 205.02 179.00 208.38 C 179.29 211.73 180.27 213.83 180.62 221.88 C 180.98 229.92 180.90 250.25 181.12 256.62 C 181.35 263.00 181.52 258.79 182.00 260.12 C 182.48 261.46 183.38 263.44 184.00 264.62 C 184.62 265.81 184.83 266.21 185.75 267.25 C 186.67 268.29 187.90 269.62 189.50 270.88 C 191.10 272.12 193.62 273.77 195.38 274.75 C 197.12 275.73 196.04 275.92 200.00 276.75 C 203.96 277.58 213.46 279.06 219.12 279.75 C 224.79 280.44 229.75 280.73 234.00 280.88 C 238.25 281.02 241.08 280.98 244.62 280.62 C 248.17 280.27 251.79 279.71 255.25 278.75 C 258.71 277.79 263.29 275.90 265.38 274.88 C 267.46 273.85 267.19 273.31 267.75 272.62 C 268.31 271.94 268.60 271.98 268.75 270.75 C 268.90 269.52 268.92 266.81 268.62 265.25 C 268.33 263.69 267.62 262.44 267.00 261.38 C 266.38 260.31 266.42 259.75 264.88 258.88 C 263.33 258.00 260.19 256.60 257.75 256.12 C 255.31 255.65 254.90 255.42 250.25 256.00 C 245.60 256.58 234.42 259.00 229.88 259.62 C 225.33 260.25 225.94 259.92 223.00 259.75 C 220.06 259.58 215.08 259.15 212.25 258.62 C 209.42 258.10 207.52 257.27 206.00 256.62 C 204.48 255.98 203.96 255.65 203.12 254.75 C 202.29 253.85 201.19 254.38 201.00 251.25 C 200.81 248.12 201.67 239.98 202.00 236.00 C 202.33 232.02 202.50 230.17 203.00 227.38 C 203.50 224.58 204.19 221.62 205.00 219.25 C 205.81 216.88 207.44 214.60 207.88 213.12 C 208.31 211.65 207.90 211.23 207.62 210.38 C 207.35 209.52 207.00 208.88 206.25 208.00 C 205.50 207.12 204.29 205.98 203.12 205.12 C 201.96 204.27 200.46 203.44 199.25 202.88 C 198.04 202.31 196.58 202.08 195.88 201.75 C 195.17 201.42 196.58 201.06 195.00 200.88 C 193.42 200.69 189.06 200.48 186.38 200.62 C 183.69 200.77 180.10 200.46 178.88 201.75 Z" id="s-4-f-0"/>
<clipPath id="c-s-4"><use href="#s-4-f-0"/></clipPath>
<path d="M 233.88 313.00 C 233.77 312.08 233.40 311.08 232.88 310.25 C 232.35 309.42 231.62 308.71 230.75 308.00 C 229.88 307.29 229.92 307.00 227.62 306.00 C 225.33 305.00 219.60 302.83 217.00 302.00 C 214.40 301.17 213.60 301.19 212.00 301.00 C 210.40 300.81 211.27 299.92 207.38 300.88 C 203.48 301.83 194.52 305.12 188.62 306.75 C 182.73 308.38 175.27 309.94 172.00 310.62 C 168.73 311.31 173.40 310.00 169.00 310.88 C 164.60 311.75 150.67 314.73 145.62 315.88 C 140.58 317.02 143.44 316.79 138.75 317.75 C 134.06 318.71 125.50 320.42 117.50 321.62 C 109.50 322.83 95.75 324.17 90.75 325.00 C 85.75 325.83 88.15 326.06 87.50 326.62 C 86.85 327.19 86.75 327.65 86.88 328.38 C 87.00 329.10 87.12 329.75 88.25 331.00 C 89.38 332.25 92.10 334.75 93.62 335.88 C 95.15 337.00 94.90 337.10 97.38 337.75 C 99.85 338.40 103.96 339.44 108.50 339.75 C 113.04 340.06 115.04 340.60 124.62 339.62 C 134.21 338.65 157.73 335.12 166.00 333.88 C 174.27 332.62 171.04 332.67 174.25 332.12 C 177.46 331.58 179.29 331.71 185.25 330.62 C 191.21 329.54 204.06 326.94 210.00 325.62 C 215.94 324.31 217.73 323.73 220.88 322.75 C 224.02 321.77 227.04 320.60 228.88 319.75 C 230.71 318.90 231.10 318.29 231.88 317.62 C 232.65 316.96 233.17 316.52 233.50 315.75 C 233.83 314.98 233.98 313.92 233.88 313.00 Z" id="s-5-f-0"/>
<clipPath id="c-s-5"><use href="#s-5-f-0"/></clipPath>
<path d="M 140.88 262.88 C 139.40 262.88 139.40 262.73 138.50 263.12 C 137.60 263.52 136.25 264.44 135.50 265.25 C 134.75 266.06 134.23 266.75 134.00 268.00 C 133.77 269.25 133.69 271.33 134.12 272.75 C 134.56 274.17 135.85 275.12 136.62 276.50 C 137.40 277.88 138.06 279.23 138.75 281.00 C 139.44 282.77 140.23 285.21 140.75 287.12 C 141.27 289.04 141.54 288.06 141.88 292.50 C 142.21 296.94 142.60 307.40 142.75 313.75 C 142.90 320.10 142.56 326.62 142.75 330.62 C 142.94 334.62 143.38 329.35 143.88 337.75 C 144.38 346.15 145.38 373.50 145.75 381.00 C 146.12 388.50 145.92 382.42 146.12 382.75 C 146.33 383.08 146.60 383.08 147.00 383.00 C 147.40 382.92 145.42 383.10 148.50 382.25 C 151.58 381.40 162.27 378.81 165.50 377.88 C 168.73 376.94 167.15 384.04 167.88 376.62 C 168.60 369.21 169.33 342.12 169.88 333.38 C 170.42 324.62 170.94 329.69 171.12 324.12 C 171.31 318.56 170.85 305.40 171.00 300.00 C 171.15 294.60 171.38 294.73 172.00 291.75 C 172.62 288.77 174.27 284.46 174.75 282.12 C 175.23 279.79 174.92 278.73 174.88 277.75 C 174.83 276.77 174.85 276.94 174.50 276.25 C 174.15 275.56 173.60 274.52 172.75 273.62 C 171.90 272.73 170.52 271.62 169.38 270.88 C 168.23 270.12 168.75 270.25 165.88 269.12 C 163.00 268.00 155.21 265.12 152.12 264.12 C 149.04 263.12 149.25 263.33 147.38 263.12 C 145.50 262.92 142.35 262.88 140.88 262.88 Z" id="s-6-f-0"/>
<clipPath id="c-s-6"><use href="#s-6-f-0"/></clipPath>
<path d="M 249.75 359.38 C 249.48 358.42 249.00 357.67 248.12 357.00 C 247.25 356.33 245.46 355.71 244.50 355.38 C 243.54 355.04 243.98 355.04 242.38 355.00 C 240.77 354.96 237.90 354.58 234.88 355.12 C 231.85 355.67 230.50 356.15 224.25 358.25 C 218.00 360.35 206.62 364.69 197.38 367.75 C 188.12 370.81 174.00 375.15 168.75 376.62 C 163.50 378.10 166.54 376.50 165.88 376.62 C 165.21 376.75 165.96 377.04 164.75 377.38 C 163.54 377.71 159.85 378.29 158.62 378.62 C 157.40 378.96 157.98 379.21 157.38 379.38 C 156.77 379.54 156.21 379.29 155.00 379.62 C 153.79 379.96 151.38 381.04 150.12 381.38 C 148.88 381.71 148.17 381.42 147.50 381.62 C 146.83 381.83 153.31 380.60 146.12 382.62 C 138.94 384.65 114.12 391.40 104.38 393.75 C 94.62 396.10 91.94 396.08 87.62 396.75 C 83.31 397.42 81.46 397.62 78.50 397.75 C 75.54 397.88 73.50 397.79 69.88 397.50 C 66.25 397.21 60.15 396.25 56.75 396.00 C 53.35 395.75 51.04 395.81 49.50 396.00 C 47.96 396.19 48.04 396.65 47.50 397.12 C 46.96 397.60 46.50 397.85 46.25 398.88 C 46.00 399.90 45.40 401.58 46.00 403.25 C 46.60 404.92 48.60 407.25 49.88 408.88 C 51.15 410.50 51.77 411.12 53.62 413.00 C 55.48 414.88 59.02 418.33 61.00 420.12 C 62.98 421.92 63.69 422.46 65.50 423.75 C 67.31 425.04 70.17 426.88 71.88 427.88 C 73.58 428.88 74.54 429.27 75.75 429.75 C 76.96 430.23 77.73 430.58 79.12 430.75 C 80.52 430.92 82.44 431.08 84.12 430.75 C 85.81 430.42 87.19 429.85 89.25 428.75 C 91.31 427.65 93.60 425.75 96.50 424.12 C 99.40 422.50 100.33 421.83 106.62 419.00 C 112.92 416.17 111.65 415.33 134.25 407.12 C 156.85 398.92 223.50 376.44 242.25 369.75 C 261.00 363.06 245.69 367.81 246.75 367.00 C 247.81 366.19 248.12 365.58 248.62 364.88 C 249.12 364.17 249.56 363.67 249.75 362.75 C 249.94 361.83 250.02 360.33 249.75 359.38 Z" id="s-7-f-0"/>
<clipPath id="c-s-7"><use href="#s-7-f-0"/></clipPath>
<path d="M 418.62 176.00 C 417.17 175.67 418.12 175.25 415.50 176.00 C 412.88 176.75 406.90 179.21 402.88 180.50 C 398.85 181.79 394.42 183.00 391.38 183.75 C 388.33 184.50 387.46 184.33 384.62 185.00 C 381.79 185.67 376.65 187.23 374.38 187.75 C 372.10 188.27 372.40 187.81 371.00 188.12 C 369.60 188.44 367.38 189.33 366.00 189.62 C 364.62 189.92 367.69 188.98 362.75 189.88 C 357.81 190.77 342.71 193.69 336.38 195.00 C 330.04 196.31 329.50 196.79 324.75 197.75 C 320.00 198.71 314.75 199.85 307.88 200.75 C 301.00 201.65 287.98 202.46 283.50 203.12 C 279.02 203.79 281.40 204.19 281.00 204.75 C 280.60 205.31 280.69 205.71 281.12 206.50 C 281.56 207.29 281.94 208.12 283.62 209.50 C 285.31 210.88 288.35 213.04 291.25 214.75 C 294.15 216.46 298.33 218.60 301.00 219.75 C 303.67 220.90 305.00 221.29 307.25 221.62 C 309.50 221.96 312.52 221.92 314.50 221.75 C 316.48 221.58 316.44 221.58 319.12 220.62 C 321.81 219.67 323.75 218.15 330.62 216.00 C 337.50 213.85 354.79 209.40 360.38 207.75 C 365.96 206.10 362.79 206.46 364.12 206.12 C 365.46 205.79 367.31 205.96 368.38 205.75 C 369.44 205.54 369.77 205.04 370.50 204.88 C 371.23 204.71 371.25 205.06 372.75 204.75 C 374.25 204.44 377.79 203.33 379.50 203.00 C 381.21 202.67 382.06 202.92 383.00 202.75 C 383.94 202.58 383.19 202.29 385.12 202.00 C 387.06 201.71 392.23 201.15 394.62 201.00 C 397.02 200.85 398.08 200.98 399.50 201.12 C 400.92 201.27 401.81 201.40 403.12 201.88 C 404.44 202.35 406.27 203.21 407.38 204.00 C 408.48 204.79 409.19 205.85 409.75 206.62 C 410.31 207.40 410.42 207.48 410.75 208.62 C 411.08 209.77 411.58 210.94 411.75 213.50 C 411.92 216.06 411.92 219.17 411.75 224.00 C 411.58 228.83 411.42 234.65 410.75 242.50 C 410.08 250.35 408.92 261.77 407.75 271.12 C 406.58 280.48 405.44 288.71 403.75 298.62 C 402.06 308.54 399.46 322.04 397.62 330.62 C 395.79 339.21 394.44 344.08 392.75 350.12 C 391.06 356.17 389.19 362.08 387.50 366.88 C 385.81 371.67 384.60 374.88 382.62 378.88 C 380.65 382.88 377.52 388.23 375.62 390.88 C 373.73 393.52 372.58 393.94 371.25 394.75 C 369.92 395.56 368.98 395.62 367.62 395.75 C 366.27 395.88 365.15 395.83 363.12 395.50 C 361.10 395.17 358.88 394.71 355.50 393.75 C 352.12 392.79 346.96 391.21 342.88 389.75 C 338.79 388.29 333.17 385.73 331.00 385.00 C 328.83 384.27 330.04 385.15 329.88 385.38 C 329.71 385.60 327.52 382.69 330.00 386.38 C 332.48 390.06 341.17 402.10 344.75 407.50 C 348.33 412.90 349.12 414.48 351.50 418.75 C 353.88 423.02 356.88 429.71 359.00 433.12 C 361.12 436.54 362.92 437.98 364.25 439.25 C 365.58 440.52 365.69 440.52 367.00 440.75 C 368.31 440.98 370.44 440.98 372.12 440.62 C 373.81 440.27 374.48 440.23 377.12 438.62 C 379.77 437.02 385.08 433.35 388.00 431.00 C 390.92 428.65 392.67 426.67 394.62 424.50 C 396.58 422.33 398.06 420.42 399.75 418.00 C 401.44 415.58 403.25 412.67 404.75 410.00 C 406.25 407.33 407.29 405.29 408.75 402.00 C 410.21 398.71 412.17 393.77 413.50 390.25 C 414.83 386.73 415.56 384.75 416.75 380.88 C 417.94 377.00 419.15 373.44 420.62 367.00 C 422.10 360.56 423.60 354.17 425.62 342.25 C 427.65 330.33 430.85 309.04 432.75 295.50 C 434.65 281.96 435.79 269.52 437.00 261.00 C 438.21 252.48 439.00 249.25 440.00 244.38 C 441.00 239.50 442.17 234.88 443.00 231.75 C 443.83 228.62 444.17 227.83 445.00 225.62 C 445.83 223.42 446.71 221.08 448.00 218.50 C 449.29 215.92 451.62 212.38 452.75 210.12 C 453.88 207.88 454.42 206.52 454.75 205.00 C 455.08 203.48 454.92 202.06 454.75 201.00 C 454.58 199.94 454.44 199.67 453.75 198.62 C 453.06 197.58 451.90 196.08 450.62 194.75 C 449.35 193.42 448.42 192.40 446.12 190.62 C 443.83 188.85 440.52 186.23 436.88 184.12 C 433.23 182.02 427.29 179.35 424.25 178.00 C 421.21 176.65 420.08 176.33 418.62 176.00 Z" id="s-8-f-0"/>
<clipPath id="c-s-8"><use href="#s-8-f-0"/></clipPath>
<path d="M 354.00 61.12 C 352.19 60.46 351.88 60.17 350.12 60.00 C 348.38 59.83 345.21 59.79 343.50 60.12 C 341.79 60.46 340.94 61.12 339.88 62.00 C 338.81 62.88 337.60 64.38 337.12 65.38 C 336.65 66.38 336.58 66.67 337.00 68.00 C 337.42 69.33 338.98 71.67 339.62 73.38 C 340.27 75.08 340.50 76.46 340.88 78.25 C 341.25 80.04 341.56 81.33 341.88 84.12 C 342.19 86.92 342.60 90.48 342.75 95.00 C 342.90 99.52 342.90 105.12 342.75 111.25 C 342.60 117.38 342.54 122.75 341.88 131.75 C 341.21 140.75 340.08 154.65 338.75 165.25 C 337.42 175.85 334.79 190.19 333.88 195.38 C 332.96 200.56 333.79 196.15 333.25 196.38 C 332.71 196.60 330.79 196.62 330.62 196.75 C 330.46 196.88 332.06 197.10 332.25 197.12 C 332.44 197.15 331.60 196.98 331.75 196.88 C 331.90 196.77 332.83 196.50 333.12 196.50 C 333.42 196.50 333.58 196.56 333.50 196.88 C 333.42 197.19 332.81 197.29 332.62 198.38 C 332.44 199.46 332.54 202.25 332.38 203.38 C 332.21 204.50 331.79 204.00 331.62 205.12 C 331.46 206.25 331.54 209.00 331.38 210.12 C 331.21 211.25 330.77 210.65 330.62 211.88 C 330.48 213.10 331.31 212.46 330.50 217.50 C 329.69 222.54 327.38 234.58 325.75 242.12 C 324.12 249.67 323.46 253.42 320.75 262.75 C 318.04 272.08 312.54 289.08 309.50 298.12 C 306.46 307.17 304.96 310.85 302.50 317.00 C 300.04 323.15 297.21 329.65 294.75 335.00 C 292.29 340.35 289.60 345.58 287.75 349.12 C 285.90 352.67 286.42 351.92 283.62 356.25 C 280.83 360.58 275.56 368.75 271.00 375.12 C 266.44 381.50 261.17 388.29 256.25 394.50 C 251.33 400.71 245.69 407.52 241.50 412.38 C 237.31 417.23 233.04 421.44 231.12 423.62 C 229.21 425.81 230.19 424.85 230.00 425.50 C 229.81 426.15 229.81 426.98 230.00 427.50 C 230.19 428.02 230.33 428.42 231.12 428.62 C 231.92 428.83 231.17 429.90 234.75 428.75 C 238.33 427.60 248.23 423.75 252.62 421.75 C 257.02 419.75 258.60 418.38 261.12 416.75 C 263.65 415.12 265.29 413.96 267.75 412.00 C 270.21 410.04 273.19 407.52 275.88 405.00 C 278.56 402.48 281.60 399.31 283.88 396.88 C 286.15 394.44 287.52 392.83 289.50 390.38 C 291.48 387.92 293.38 385.50 295.75 382.12 C 298.12 378.75 299.58 377.12 303.75 370.12 C 307.92 363.12 316.60 347.81 320.75 340.12 C 324.90 332.44 326.46 328.65 328.62 324.00 C 330.79 319.35 331.56 317.75 333.75 312.25 C 335.94 306.75 339.42 297.67 341.75 291.00 C 344.08 284.33 345.75 279.23 347.75 272.25 C 349.75 265.27 351.92 256.92 353.75 249.12 C 355.58 241.33 357.38 232.54 358.75 225.50 C 360.12 218.46 361.19 210.06 362.00 206.88 C 362.81 203.69 363.46 206.62 363.62 206.38 C 363.79 206.12 363.06 206.21 363.00 205.38 C 362.94 204.54 363.06 202.44 363.25 201.38 C 363.44 200.31 363.94 200.08 364.12 199.00 C 364.31 197.92 364.21 195.79 364.38 194.88 C 364.54 193.96 365.00 194.65 365.12 193.50 C 365.25 192.35 364.52 192.77 365.12 188.00 C 365.73 183.23 367.10 176.77 368.75 164.88 C 370.40 152.98 373.48 127.21 375.00 116.62 C 376.52 106.04 377.08 104.94 377.88 101.38 C 378.67 97.81 379.08 97.98 379.75 95.25 C 380.42 92.52 381.56 87.58 381.88 85.00 C 382.19 82.42 382.27 81.44 381.62 79.75 C 380.98 78.06 379.40 76.33 378.00 74.88 C 376.60 73.42 374.83 72.15 373.25 71.00 C 371.67 69.85 370.54 69.17 368.50 68.00 C 366.46 66.83 363.42 65.15 361.00 64.00 C 358.58 62.85 355.81 61.79 354.00 61.12 Z" id="s-9-f-0"/>
<clipPath id="c-s-9"><use href="#s-9-f-0"/></clipPath>
</defs>
<g id="s-0" clip-path="url(#c-s-0)">
<use href="#s-0-f-0"/>
<path d="M 233.00 124.38 C 232.92 122.44 234.12 123.90 232.50 123.00 C 230.88 122.10 226.10 120.00 223.25 119.00 C 220.40 118.00 217.54 117.33 215.38 117.00 C 213.21 116.67 212.12 116.60 210.25 117.00 C 208.38 117.40 207.25 118.42 204.12 119.38 C 201.00 120.33 196.79 121.52 191.50 122.75 C 186.21 123.98 176.00 126.06 172.38 126.75 C 168.75 127.44 173.75 126.17 169.75 126.88 C 165.75 127.58 153.88 129.85 148.38 131.00 C 142.88 132.15 142.81 132.62 136.75 133.75 C 130.69 134.88 119.48 136.71 112.00 137.75 C 104.52 138.79 95.60 139.48 91.88 140.00 C 88.15 140.52 90.10 140.31 89.62 140.88 C 89.15 141.44 88.62 142.31 89.00 143.38 C 89.38 144.44 90.60 146.06 91.88 147.25 C 93.15 148.44 95.38 149.75 96.62 150.50 C 97.88 151.25 97.48 151.25 99.38 151.75 C 101.27 152.25 103.65 153.17 108.00 153.50 C 112.35 153.83 118.77 154.02 125.50 153.75 C 132.23 153.48 136.15 153.56 148.38 151.88 C 160.60 150.19 187.48 145.65 198.88 143.62 C 210.27 141.60 211.40 141.06 216.75 139.75 C 222.10 138.44 228.29 136.60 231.00 135.75 C 233.71 134.90 232.67 136.52 233.00 134.62 C 233.33 132.73 233.08 126.31 233.00 124.38 Z" id="s-0-f-1"/>
<path d="M 184.88 124.62 C 184.69 121.23 184.88 123.96 183.75 124.12 C 182.62 124.29 181.33 125.00 178.12 125.62 C 174.92 126.25 173.27 126.19 164.50 127.88 C 155.73 129.56 137.60 133.73 125.50 135.75 C 113.40 137.77 97.85 139.15 91.88 140.00 C 85.90 140.85 90.10 140.31 89.62 140.88 C 89.15 141.44 88.62 142.31 89.00 143.38 C 89.38 144.44 90.56 146.04 91.88 147.25 C 93.19 148.46 94.94 149.71 96.88 150.62 C 98.81 151.54 101.25 152.23 103.50 152.75 C 105.75 153.27 106.21 153.60 110.38 153.75 C 114.54 153.90 122.35 153.92 128.50 153.62 C 134.65 153.33 140.12 152.96 147.25 152.00 C 154.38 151.04 165.02 148.88 171.25 147.88 C 177.48 146.88 182.35 146.56 184.62 146.00 C 186.90 145.44 184.83 148.06 184.88 144.50 C 184.92 140.94 185.06 128.02 184.88 124.62 Z" id="s-0-f-2"/>
<path d="M 136.88 152.38 C 136.96 149.40 136.83 138.06 136.75 135.00 C 136.67 131.94 136.79 134.17 136.38 134.00 C 135.96 133.83 138.31 133.38 134.25 134.00 C 130.19 134.62 118.31 136.88 112.00 137.75 C 105.69 138.62 99.79 138.85 96.38 139.25 C 92.96 139.65 92.62 139.85 91.50 140.12 C 90.38 140.40 90.02 140.58 89.62 140.88 C 89.23 141.17 89.23 141.46 89.12 141.88 C 89.02 142.29 88.88 142.85 89.00 143.38 C 89.12 143.90 89.27 144.25 89.88 145.00 C 90.48 145.75 91.10 146.77 92.62 147.88 C 94.15 148.98 97.19 150.81 99.00 151.62 C 100.81 152.44 101.60 152.40 103.50 152.75 C 105.40 153.10 107.29 153.56 110.38 153.75 C 113.46 153.94 117.69 154.02 122.00 153.88 C 126.31 153.73 133.77 153.12 136.25 152.88 C 138.73 152.62 136.79 155.35 136.88 152.38 Z" id="s-0-f-3"/>
</g>
<g id="s-1" clip-path="url(#c-s-1)">
<use href="#s-1-f-0"/>
<path d="M 140.50 58.12 C 138.62 58.38 138.58 59.17 138.00 59.62 C 137.42 60.08 137.33 60.31 137.00 60.88 C 136.67 61.44 136.15 61.85 136.00 63.00 C 135.85 64.15 135.67 66.29 136.12 67.75 C 136.58 69.21 138.00 70.42 138.75 71.75 C 139.50 73.08 139.96 74.02 140.62 75.75 C 141.29 77.48 142.23 80.25 142.75 82.12 C 143.27 84.00 143.25 79.15 143.75 87.00 C 144.25 94.85 145.46 118.52 145.75 129.25 C 146.04 139.98 145.48 147.33 145.50 151.38 C 145.52 155.42 145.50 153.06 145.88 153.50 C 146.25 153.94 143.67 153.94 147.75 154.00 C 151.83 154.06 166.42 155.33 170.38 153.88 C 174.33 152.42 171.35 147.12 171.50 145.25 C 171.65 143.38 171.23 143.19 171.25 142.62 C 171.27 142.06 171.50 141.94 171.62 141.88 C 171.75 141.81 171.92 142.58 172.00 142.25 C 172.08 141.92 172.12 143.08 172.12 139.88 C 172.12 136.67 171.85 130.60 172.00 123.00 C 172.15 115.40 172.50 101.02 173.00 94.25 C 173.50 87.48 174.38 85.21 175.00 82.38 C 175.62 79.54 176.46 79.00 176.75 77.25 C 177.04 75.50 177.08 73.31 176.75 71.88 C 176.42 70.44 175.65 69.62 174.75 68.62 C 173.85 67.62 173.81 67.15 171.38 65.88 C 168.94 64.60 163.81 62.29 160.12 61.00 C 156.44 59.71 152.52 58.60 149.25 58.12 C 145.98 57.65 142.38 57.88 140.50 58.12 Z" id="s-1-f-1"/>
<path d="M 138.00 59.62 C 137.27 60.35 136.46 61.21 136.12 62.50 C 135.79 63.79 135.25 65.17 136.00 67.38 C 136.75 69.58 139.50 73.29 140.62 75.75 C 141.75 78.21 142.23 80.25 142.75 82.12 C 143.27 84.00 143.40 83.06 143.75 87.00 C 144.10 90.94 140.08 102.62 144.88 105.75 C 149.67 108.88 167.75 108.27 172.50 105.75 C 177.25 103.23 172.96 94.52 173.38 90.62 C 173.79 86.73 174.46 84.50 175.00 82.38 C 175.54 80.25 176.33 79.62 176.62 77.88 C 176.92 76.12 176.94 73.27 176.75 71.88 C 176.56 70.48 176.40 70.50 175.50 69.50 C 174.60 68.50 172.65 66.77 171.38 65.88 C 170.10 64.98 170.75 65.25 167.88 64.12 C 165.00 63.00 157.23 60.12 154.12 59.12 C 151.02 58.12 151.00 58.33 149.25 58.12 C 147.50 57.92 145.08 57.88 143.62 57.88 C 142.17 57.88 141.44 57.83 140.50 58.12 C 139.56 58.42 138.73 58.90 138.00 59.62 Z" id="s-1-f-2"/>
</g>
<g id="s-2" clip-path="url(#c-s-2)">
<use href="#s-2-f-0"/>
<path d="M 235.88 174.50 C 235.77 170.10 236.23 174.06 235.38 174.00 C 234.52 173.94 234.23 173.33 230.75 174.12 C 227.27 174.92 221.62 177.15 214.50 178.75 C 207.38 180.35 194.42 182.69 188.00 183.75 C 181.58 184.81 179.00 184.67 176.00 185.12 C 173.00 185.58 173.98 186.06 170.00 186.50 C 166.02 186.94 155.88 187.35 152.12 187.75 C 148.38 188.15 152.10 188.15 147.50 188.88 C 142.90 189.60 133.27 190.65 124.50 192.12 C 115.73 193.60 103.04 196.48 94.88 197.75 C 86.71 199.02 82.65 199.21 75.50 199.75 C 68.35 200.29 56.90 200.48 52.00 201.00 C 47.10 201.52 47.44 202.21 46.12 202.88 C 44.81 203.54 44.50 204.27 44.12 205.00 C 43.75 205.73 43.71 206.58 43.88 207.25 C 44.04 207.92 44.31 208.25 45.12 209.00 C 45.94 209.75 46.17 210.29 48.75 211.75 C 51.33 213.21 57.04 216.25 60.62 217.75 C 64.21 219.25 67.69 220.08 70.25 220.75 C 72.81 221.42 74.17 221.58 76.00 221.75 C 77.83 221.92 77.50 222.71 81.25 221.75 C 85.00 220.79 94.02 217.31 98.50 216.00 C 102.98 214.69 104.44 214.88 108.12 213.88 C 111.81 212.88 116.02 211.15 120.62 210.00 C 125.23 208.85 126.29 208.33 135.75 207.00 C 145.21 205.67 167.38 203.02 177.38 202.00 C 187.38 200.98 186.06 201.08 195.75 200.88 C 205.44 200.67 228.79 200.83 235.50 200.75 C 242.21 200.67 235.94 204.75 236.00 200.38 C 236.06 196.00 235.98 178.90 235.88 174.50 Z" id="s-2-f-1"/>
<path d="M 187.38 184.88 C 187.19 184.04 187.27 184.15 186.75 184.00 C 186.23 183.85 186.81 183.69 184.25 184.00 C 181.69 184.31 173.75 185.46 171.38 185.88 C 169.00 186.29 173.21 186.19 170.00 186.50 C 166.79 186.81 155.88 187.35 152.12 187.75 C 148.38 188.15 152.10 188.15 147.50 188.88 C 142.90 189.60 133.27 190.65 124.50 192.12 C 115.73 193.60 101.17 196.65 94.88 197.75 C 88.58 198.85 93.90 198.21 86.75 198.75 C 79.60 199.29 58.77 200.31 52.00 201.00 C 45.23 201.69 47.44 202.21 46.12 202.88 C 44.81 203.54 44.50 204.27 44.12 205.00 C 43.75 205.73 43.71 206.58 43.88 207.25 C 44.04 207.92 44.31 208.25 45.12 209.00 C 45.94 209.75 46.17 210.29 48.75 211.75 C 51.33 213.21 57.04 216.25 60.62 217.75 C 64.21 219.25 67.69 220.08 70.25 220.75 C 72.81 221.42 74.17 221.58 76.00 221.75 C 77.83 221.92 77.50 222.71 81.25 221.75 C 85.00 220.79 94.02 217.31 98.50 216.00 C 102.98 214.69 104.44 214.88 108.12 213.88 C 111.81 212.88 117.02 210.98 120.62 210.00 C 124.23 209.02 122.33 209.12 129.75 208.00 C 137.17 206.88 155.52 204.33 165.12 203.25 C 174.73 202.17 183.56 202.08 187.38 201.50 C 191.19 200.92 187.92 201.83 188.00 199.75 C 188.08 197.67 187.98 191.48 187.88 189.00 C 187.77 186.52 187.56 185.71 187.38 184.88 Z" id="s-2-f-2"/>
<path d="M 140.00 190.75 C 139.96 188.23 140.02 190.25 139.75 190.12 C 139.48 190.00 142.79 189.33 138.38 190.00 C 133.96 190.67 120.50 192.83 113.25 194.12 C 106.00 195.42 99.29 196.98 94.88 197.75 C 90.46 198.52 93.90 198.21 86.75 198.75 C 79.60 199.29 58.77 200.31 52.00 201.00 C 45.23 201.69 47.44 202.21 46.12 202.88 C 44.81 203.54 44.50 204.27 44.12 205.00 C 43.75 205.73 43.71 206.58 43.88 207.25 C 44.04 207.92 44.31 208.25 45.12 209.00 C 45.94 209.75 46.17 210.29 48.75 211.75 C 51.33 213.21 57.04 216.25 60.62 217.75 C 64.21 219.25 67.85 220.10 70.25 220.75 C 72.65 221.40 73.04 221.48 75.00 221.62 C 76.96 221.77 78.08 222.56 82.00 221.62 C 85.92 220.69 94.15 217.29 98.50 216.00 C 102.85 214.71 104.44 214.88 108.12 213.88 C 111.81 212.88 115.38 211.25 120.62 210.00 C 125.88 208.75 136.40 207.17 139.62 206.38 C 142.85 205.58 139.94 207.85 140.00 205.25 C 140.06 202.65 140.04 193.27 140.00 190.75 Z" id="s-2-f-3"/>
<path d="M 91.88 217.88 C 92.00 214.56 92.10 202.06 92.00 198.75 C 91.90 195.44 94.00 197.83 91.25 198.00 C 88.50 198.17 82.04 199.25 75.50 199.75 C 68.96 200.25 56.90 200.48 52.00 201.00 C 47.10 201.52 47.46 202.15 46.12 202.88 C 44.79 203.60 44.31 204.50 44.00 205.38 C 43.69 206.25 43.19 206.90 44.25 208.12 C 45.31 209.35 47.65 211.15 50.38 212.75 C 53.10 214.35 57.31 216.42 60.62 217.75 C 63.94 219.08 67.69 220.08 70.25 220.75 C 72.81 221.42 74.17 221.58 76.00 221.75 C 77.83 221.92 78.71 222.27 81.25 221.75 C 83.79 221.23 89.48 219.27 91.25 218.62 C 93.02 217.98 91.75 221.19 91.88 217.88 Z" id="s-2-f-4"/>
</g>
<g id="s-3" clip-path="url(#c-s-3)">
<use href="#s-3-f-0"/>
<path d="M 121.12 209.75 C 119.71 208.67 120.27 209.52 119.75 209.62 C 119.23 209.73 118.71 210.21 118.00 210.38 C 117.29 210.54 116.08 210.46 115.50 210.62 C 114.92 210.79 115.67 211.04 114.50 211.38 C 113.33 211.71 109.75 212.25 108.50 212.62 C 107.25 213.00 107.46 211.48 107.00 213.62 C 106.54 215.77 106.29 222.17 105.75 225.50 C 105.21 228.83 104.94 229.88 103.75 233.62 C 102.56 237.38 100.33 243.77 98.62 248.00 C 96.92 252.23 95.46 255.31 93.50 259.00 C 91.54 262.69 89.19 266.58 86.88 270.12 C 84.56 273.67 82.85 276.06 79.62 280.25 C 76.40 284.44 71.08 291.12 67.50 295.25 C 63.92 299.38 59.69 303.23 58.12 305.00 C 56.56 306.77 54.60 305.75 58.12 305.88 C 61.65 306.00 74.33 306.83 79.25 305.75 C 84.17 304.67 85.21 301.33 87.62 299.38 C 90.04 297.42 90.75 297.00 93.75 294.00 C 96.75 291.00 102.79 284.65 105.62 281.38 C 108.46 278.10 108.73 277.44 110.75 274.38 C 112.77 271.31 115.75 266.56 117.75 263.00 C 119.75 259.44 121.21 256.40 122.75 253.00 C 124.29 249.60 125.90 245.04 127.00 242.62 C 128.10 240.21 128.40 239.94 129.38 238.50 C 130.35 237.06 132.15 235.19 132.88 234.00 C 133.60 232.81 133.62 232.88 133.75 231.38 C 133.88 229.88 133.96 226.79 133.62 225.00 C 133.29 223.21 132.65 222.10 131.75 220.62 C 130.85 219.15 130.02 217.94 128.25 216.12 C 126.48 214.31 122.54 210.83 121.12 209.75 Z" id="s-3-f-1"/>
<path d="M 121.12 209.75 C 119.71 208.67 120.27 209.52 119.75 209.62 C 119.23 209.73 118.71 210.21 118.00 210.38 C 117.29 210.54 116.08 210.46 115.50 210.62 C 114.92 210.79 115.67 211.04 114.50 211.38 C 113.33 211.71 109.75 212.25 108.50 212.62 C 107.25 213.00 107.33 212.31 107.00 213.62 C 106.67 214.94 106.90 217.67 106.50 220.50 C 106.10 223.33 106.25 225.27 104.62 230.62 C 103.00 235.98 98.50 248.19 96.75 252.62 C 95.00 257.06 94.50 256.35 94.12 257.25 C 93.75 258.15 90.25 257.88 94.50 258.00 C 98.75 258.12 115.27 258.10 119.62 258.00 C 123.98 257.90 119.40 259.94 120.62 257.38 C 121.85 254.81 125.54 245.77 127.00 242.62 C 128.46 239.48 128.40 239.94 129.38 238.50 C 130.35 237.06 132.12 235.52 132.88 234.00 C 133.62 232.48 133.75 230.88 133.88 229.38 C 134.00 227.88 133.98 226.46 133.62 225.00 C 133.27 223.54 132.65 222.10 131.75 220.62 C 130.85 219.15 130.02 217.94 128.25 216.12 C 126.48 214.31 122.54 210.83 121.12 209.75 Z" id="s-3-f-2"/>
</g>
<g id="s-4" clip-path="url(#c-s-4)">
<use href="#s-4-f-0"/>
<path d="M 179.12 201.50 C 177.90 202.79 178.75 204.88 179.00 208.38 C 179.25 211.88 180.27 214.46 180.62 222.50 C 180.98 230.54 180.73 249.92 181.12 256.62 C 181.52 263.33 182.23 260.98 183.00 262.75 C 183.77 264.52 184.67 265.90 185.75 267.25 C 186.83 268.60 188.19 269.79 189.50 270.88 C 190.81 271.96 191.88 272.77 193.62 273.75 C 195.38 274.73 195.75 275.75 200.00 276.75 C 204.25 277.75 214.00 279.08 219.12 279.75 C 224.25 280.42 226.77 280.58 230.75 280.75 C 234.73 280.92 240.10 280.88 243.00 280.75 C 245.90 280.62 247.15 280.21 248.12 280.00 C 249.10 279.79 248.73 283.19 248.88 279.50 C 249.02 275.81 249.08 261.75 249.00 257.88 C 248.92 254.00 251.56 255.96 248.38 256.25 C 245.19 256.54 234.10 259.04 229.88 259.62 C 225.65 260.21 225.83 259.90 223.00 259.75 C 220.17 259.60 215.23 259.08 212.88 258.75 C 210.52 258.42 210.06 258.12 208.88 257.75 C 207.69 257.38 206.77 257.06 205.75 256.50 C 204.73 255.94 203.54 255.25 202.75 254.38 C 201.96 253.50 201.12 254.31 201.00 251.25 C 200.88 248.19 201.67 239.98 202.00 236.00 C 202.33 232.02 202.50 230.17 203.00 227.38 C 203.50 224.58 204.19 221.62 205.00 219.25 C 205.81 216.88 207.44 214.60 207.88 213.12 C 208.31 211.65 207.90 211.23 207.62 210.38 C 207.35 209.52 207.00 208.88 206.25 208.00 C 205.50 207.12 204.29 205.98 203.12 205.12 C 201.96 204.27 200.46 203.44 199.25 202.88 C 198.04 202.31 196.58 202.08 195.88 201.75 C 195.17 201.42 196.58 201.06 195.00 200.88 C 193.42 200.69 189.02 200.52 186.38 200.62 C 183.73 200.73 180.35 200.21 179.12 201.50 Z" id="s-4-f-1"/>
<path d="M 179.12 201.50 C 177.90 202.79 178.75 204.88 179.00 208.38 C 179.25 211.88 180.29 214.83 180.62 222.50 C 180.96 230.17 180.79 248.17 181.00 254.38 C 181.21 260.58 181.38 258.04 181.88 259.75 C 182.38 261.46 183.35 263.38 184.00 264.62 C 184.65 265.88 184.96 266.31 185.75 267.25 C 186.54 268.19 187.44 269.17 188.75 270.25 C 190.06 271.33 191.73 272.67 193.62 273.75 C 195.52 274.83 198.92 276.38 200.12 276.75 C 201.33 277.12 200.73 280.83 200.88 276.00 C 201.02 271.17 200.67 255.71 201.00 247.75 C 201.33 239.79 202.21 233.00 202.88 228.25 C 203.54 223.50 204.17 221.77 205.00 219.25 C 205.83 216.73 207.42 214.54 207.88 213.12 C 208.33 211.71 208.02 211.60 207.75 210.75 C 207.48 209.90 207.02 208.94 206.25 208.00 C 205.48 207.06 204.29 205.98 203.12 205.12 C 201.96 204.27 200.46 203.44 199.25 202.88 C 198.04 202.31 196.58 202.08 195.88 201.75 C 195.17 201.42 196.58 201.06 195.00 200.88 C 193.42 200.69 189.02 200.52 186.38 200.62 C 183.73 200.73 180.35 200.21 179.12 201.50 Z" id="s-4-f-2"/>
<path d="M 179.12 201.50 C 177.90 202.79 178.75 204.88 179.00 208.38 C 179.25 211.88 180.29 215.77 180.62 222.50 C 180.96 229.23 177.69 244.35 181.00 248.75 C 184.31 253.15 197.17 248.96 200.50 248.88 C 203.83 248.79 200.58 251.83 201.00 248.25 C 201.42 244.67 202.33 232.21 203.00 227.38 C 203.67 222.54 204.19 221.62 205.00 219.25 C 205.81 216.88 207.44 214.60 207.88 213.12 C 208.31 211.65 207.90 211.23 207.62 210.38 C 207.35 209.52 207.00 208.88 206.25 208.00 C 205.50 207.12 204.29 205.98 203.12 205.12 C 201.96 204.27 200.46 203.44 199.25 202.88 C 198.04 202.31 196.58 202.08 195.88 201.75 C 195.17 201.42 196.58 201.06 195.00 200.88 C 193.42 200.69 189.02 200.52 186.38 200.62 C 183.73 200.73 180.35 200.21 179.12 201.50 Z" id="s-4-f-3"/>
</g>
<g id="s-5" clip-path="url(#c-s-5)">
<use href="#s-5-f-0"/>
<path d="M 231.00 309.12 C 230.90 307.33 230.69 308.15 230.12 307.62 C 229.56 307.10 229.29 306.77 227.62 306.00 C 225.96 305.23 222.56 303.81 220.12 303.00 C 217.69 302.19 215.12 301.48 213.00 301.12 C 210.88 300.77 211.44 299.94 207.38 300.88 C 203.31 301.81 194.52 305.12 188.62 306.75 C 182.73 308.38 175.27 309.94 172.00 310.62 C 168.73 311.31 173.40 310.00 169.00 310.88 C 164.60 311.75 150.67 314.73 145.62 315.88 C 140.58 317.02 143.44 316.79 138.75 317.75 C 134.06 318.71 125.50 320.42 117.50 321.62 C 109.50 322.83 95.75 324.17 90.75 325.00 C 85.75 325.83 88.15 326.06 87.50 326.62 C 86.85 327.19 86.65 327.52 86.88 328.38 C 87.10 329.23 87.54 330.38 88.88 331.75 C 90.21 333.12 92.92 335.48 94.88 336.62 C 96.83 337.77 98.58 338.12 100.62 338.62 C 102.67 339.12 103.40 339.44 107.12 339.62 C 110.85 339.81 117.06 340.19 123.00 339.75 C 128.94 339.31 138.83 337.48 142.75 337.00 C 146.67 336.52 137.77 338.25 146.50 336.88 C 155.23 335.50 184.54 330.62 195.12 328.75 C 205.71 326.88 205.71 326.62 210.00 325.62 C 214.29 324.62 218.10 323.56 220.88 322.75 C 223.65 321.94 224.98 321.48 226.62 320.75 C 228.27 320.02 230.02 320.31 230.75 318.38 C 231.48 316.44 231.10 310.92 231.00 309.12 Z" id="s-5-f-1"/>
<path d="M 182.88 308.50 C 182.65 304.79 183.44 307.77 181.62 308.12 C 179.81 308.48 174.10 310.17 172.00 310.62 C 169.90 311.08 176.10 309.38 169.00 310.88 C 161.90 312.38 139.29 317.65 129.38 319.62 C 119.46 321.60 115.94 321.85 109.50 322.75 C 103.06 323.65 94.29 324.46 90.75 325.00 C 87.21 325.54 88.85 325.67 88.25 326.00 C 87.65 326.33 87.33 326.48 87.12 327.00 C 86.92 327.52 86.75 328.38 87.00 329.12 C 87.25 329.88 87.90 330.67 88.62 331.50 C 89.35 332.33 89.98 333.10 91.38 334.12 C 92.77 335.15 94.38 336.71 97.00 337.62 C 99.62 338.54 104.33 339.25 107.12 339.62 C 109.92 340.00 110.83 339.88 113.75 339.88 C 116.67 339.88 119.79 340.10 124.62 339.62 C 129.46 339.15 139.10 337.46 142.75 337.00 C 146.40 336.54 139.90 337.88 146.50 336.88 C 153.10 335.88 176.29 332.08 182.38 331.00 C 188.46 329.92 182.92 334.12 183.00 330.38 C 183.08 326.62 183.10 312.21 182.88 308.50 Z" id="s-5-f-2"/>
<path d="M 134.88 319.00 C 134.69 316.02 136.77 318.19 133.88 318.62 C 130.98 319.06 124.69 320.56 117.50 321.62 C 110.31 322.69 95.62 324.27 90.75 325.00 C 85.88 325.73 88.85 325.67 88.25 326.00 C 87.65 326.33 87.33 326.48 87.12 327.00 C 86.92 327.52 86.56 328.19 87.00 329.12 C 87.44 330.06 88.65 331.50 89.75 332.62 C 90.85 333.75 92.42 335.04 93.62 335.88 C 94.83 336.71 95.73 337.15 97.00 337.62 C 98.27 338.10 99.35 338.40 101.25 338.75 C 103.15 339.10 105.15 339.56 108.38 339.75 C 111.60 339.94 116.31 340.12 120.62 339.88 C 124.94 339.62 131.85 338.81 134.25 338.25 C 136.65 337.69 134.90 339.71 135.00 336.50 C 135.10 333.29 135.06 321.98 134.88 319.00 Z" id="s-5-f-3"/>
</g>
<g id="s-6" clip-path="url(#c-s-6)">
<use href="#s-6-f-0"/>
<path d="M 138.50 263.12 C 136.77 263.27 137.46 263.54 136.88 264.00 C 136.29 264.46 135.48 265.21 135.00 265.88 C 134.52 266.54 134.15 266.85 134.00 268.00 C 133.85 269.15 133.67 271.29 134.12 272.75 C 134.58 274.21 135.98 275.38 136.75 276.75 C 137.52 278.12 138.08 279.27 138.75 281.00 C 139.42 282.73 140.23 285.21 140.75 287.12 C 141.27 289.04 141.54 288.06 141.88 292.50 C 142.21 296.94 142.62 307.79 142.75 313.75 C 142.88 319.71 142.44 324.25 142.62 328.25 C 142.81 332.25 143.52 332.75 143.88 337.75 C 144.23 342.75 144.48 354.71 144.75 358.25 C 145.02 361.79 141.56 358.90 145.50 359.00 C 149.44 359.10 164.48 359.19 168.38 358.88 C 172.27 358.56 168.62 361.38 168.88 357.12 C 169.12 352.88 169.50 338.88 169.88 333.38 C 170.25 327.88 170.92 329.98 171.12 324.12 C 171.33 318.27 170.98 303.65 171.12 298.25 C 171.27 292.85 171.40 294.44 172.00 291.75 C 172.60 289.06 174.29 284.60 174.75 282.12 C 175.21 279.65 175.08 278.29 174.75 276.88 C 174.42 275.46 173.65 274.62 172.75 273.62 C 171.85 272.62 171.31 271.96 169.38 270.88 C 167.44 269.79 164.00 268.25 161.12 267.12 C 158.25 266.00 154.44 264.79 152.12 264.12 C 149.81 263.46 149.52 263.29 147.25 263.12 C 144.98 262.96 140.23 262.98 138.50 263.12 Z" id="s-6-f-1"/>
<path d="M 136.88 264.00 C 136.19 264.48 135.46 265.27 135.00 265.88 C 134.54 266.48 134.31 266.69 134.12 267.62 C 133.94 268.56 133.88 270.65 133.88 271.50 C 133.88 272.35 133.65 271.88 134.12 272.75 C 134.60 273.62 135.98 275.38 136.75 276.75 C 137.52 278.12 138.08 279.27 138.75 281.00 C 139.42 282.73 140.23 285.21 140.75 287.12 C 141.27 289.04 141.58 288.62 141.88 292.50 C 142.17 296.38 142.08 307.29 142.50 310.38 C 142.92 313.46 139.73 310.85 144.38 311.00 C 149.02 311.15 165.98 311.33 170.38 311.25 C 174.77 311.17 170.62 312.67 170.75 310.50 C 170.88 308.33 170.92 301.38 171.12 298.25 C 171.33 295.12 171.38 294.65 172.00 291.75 C 172.62 288.85 174.42 283.35 174.88 280.88 C 175.33 278.40 174.98 277.94 174.75 276.88 C 174.52 275.81 174.40 275.50 173.50 274.50 C 172.60 273.50 170.65 271.77 169.38 270.88 C 168.10 269.98 168.75 270.25 165.88 269.12 C 163.00 268.00 155.75 265.17 152.12 264.12 C 148.50 263.08 146.29 263.06 144.12 262.88 C 141.96 262.69 140.33 262.81 139.12 263.00 C 137.92 263.19 137.56 263.52 136.88 264.00 Z" id="s-6-f-2"/>
</g>
<g id="s-7" clip-path="url(#c-s-7)">
<use href="#s-7-f-0"/>
<path d="M 237.38 355.00 C 237.12 352.33 237.38 354.71 236.38 354.88 C 235.38 355.04 237.88 353.85 231.38 356.00 C 224.88 358.15 207.81 364.31 197.38 367.75 C 186.94 371.19 174.00 375.15 168.75 376.62 C 163.50 378.10 166.54 376.50 165.88 376.62 C 165.21 376.75 165.96 377.04 164.75 377.38 C 163.54 377.71 159.85 378.29 158.62 378.62 C 157.40 378.96 157.98 379.21 157.38 379.38 C 156.77 379.54 156.21 379.29 155.00 379.62 C 153.79 379.96 151.38 381.04 150.12 381.38 C 148.88 381.71 148.17 381.42 147.50 381.62 C 146.83 381.83 153.31 380.60 146.12 382.62 C 138.94 384.65 114.12 391.40 104.38 393.75 C 94.62 396.10 91.94 396.08 87.62 396.75 C 83.31 397.42 81.46 397.62 78.50 397.75 C 75.54 397.88 73.50 397.79 69.88 397.50 C 66.25 397.21 60.15 396.25 56.75 396.00 C 53.35 395.75 51.04 395.81 49.50 396.00 C 47.96 396.19 48.04 396.65 47.50 397.12 C 46.96 397.60 46.50 397.85 46.25 398.88 C 46.00 399.90 45.40 401.58 46.00 403.25 C 46.60 404.92 48.60 407.25 49.88 408.88 C 51.15 410.50 51.77 411.12 53.62 413.00 C 55.48 414.88 59.02 418.33 61.00 420.12 C 62.98 421.92 63.69 422.46 65.50 423.75 C 67.31 425.04 70.17 426.88 71.88 427.88 C 73.58 428.88 74.54 429.27 75.75 429.75 C 76.96 430.23 77.73 430.58 79.12 430.75 C 80.52 430.92 82.46 431.08 84.12 430.75 C 85.79 430.42 87.06 429.85 89.12 428.75 C 91.19 427.65 93.58 425.75 96.50 424.12 C 99.42 422.50 100.33 421.83 106.62 419.00 C 112.92 416.17 112.50 415.02 134.25 407.12 C 156.00 399.23 219.85 377.67 237.12 371.62 C 254.40 365.58 237.83 373.65 237.88 370.88 C 237.92 368.10 237.62 357.67 237.38 355.00 Z" id="s-7-f-1"/>
<path d="M 189.88 370.50 C 189.71 367.77 192.52 369.10 189.00 370.12 C 185.48 371.15 172.60 375.54 168.75 376.62 C 164.90 377.71 166.54 376.50 165.88 376.62 C 165.21 376.75 165.96 377.04 164.75 377.38 C 163.54 377.71 159.85 378.29 158.62 378.62 C 157.40 378.96 157.98 379.21 157.38 379.38 C 156.77 379.54 156.21 379.29 155.00 379.62 C 153.79 379.96 151.38 381.04 150.12 381.38 C 148.88 381.71 148.17 381.42 147.50 381.62 C 146.83 381.83 153.31 380.60 146.12 382.62 C 138.94 384.65 113.06 391.56 104.38 393.75 C 95.69 395.94 98.31 395.08 94.00 395.75 C 89.69 396.42 82.52 397.46 78.50 397.75 C 74.48 398.04 73.50 397.79 69.88 397.50 C 66.25 397.21 60.15 396.25 56.75 396.00 C 53.35 395.75 51.04 395.81 49.50 396.00 C 47.96 396.19 48.04 396.65 47.50 397.12 C 46.96 397.60 46.50 397.85 46.25 398.88 C 46.00 399.90 45.40 401.58 46.00 403.25 C 46.60 404.92 48.48 407.12 49.88 408.88 C 51.27 410.62 51.77 411.27 54.38 413.75 C 56.98 416.23 62.58 421.40 65.50 423.75 C 68.42 426.10 70.17 426.88 71.88 427.88 C 73.58 428.88 74.54 429.27 75.75 429.75 C 76.96 430.23 77.73 430.58 79.12 430.75 C 80.52 430.92 82.46 431.08 84.12 430.75 C 85.79 430.42 86.73 430.04 89.12 428.75 C 91.52 427.46 95.58 424.62 98.50 423.00 C 101.42 421.38 102.29 421.00 106.62 419.00 C 110.96 417.00 119.38 413.17 124.50 411.00 C 129.62 408.83 126.52 409.85 137.38 406.00 C 148.23 402.15 180.85 391.12 189.62 387.88 C 198.40 384.62 189.96 389.40 190.00 386.50 C 190.04 383.60 190.04 373.23 189.88 370.50 Z" id="s-7-f-2"/>
<path d="M 142.00 384.38 C 141.79 381.25 147.02 382.44 140.75 384.00 C 134.48 385.56 113.23 391.62 104.38 393.75 C 95.52 395.88 91.94 396.08 87.62 396.75 C 83.31 397.42 80.85 397.58 78.50 397.75 C 76.15 397.92 77.12 398.04 73.50 397.75 C 69.88 397.46 60.75 396.29 56.75 396.00 C 52.75 395.71 51.04 395.81 49.50 396.00 C 47.96 396.19 48.04 396.65 47.50 397.12 C 46.96 397.60 46.50 397.85 46.25 398.88 C 46.00 399.90 45.40 401.58 46.00 403.25 C 46.60 404.92 48.48 407.12 49.88 408.88 C 51.27 410.62 51.77 411.27 54.38 413.75 C 56.98 416.23 62.58 421.40 65.50 423.75 C 68.42 426.10 70.17 426.88 71.88 427.88 C 73.58 428.88 74.54 429.27 75.75 429.75 C 76.96 430.23 77.73 430.58 79.12 430.75 C 80.52 430.92 82.46 431.08 84.12 430.75 C 85.79 430.42 86.73 430.04 89.12 428.75 C 91.52 427.46 94.21 425.27 98.50 423.00 C 102.79 420.73 108.92 417.77 114.88 415.12 C 120.83 412.48 129.79 408.88 134.25 407.12 C 138.71 405.38 140.33 405.35 141.62 404.62 C 142.92 403.90 141.94 406.12 142.00 402.75 C 142.06 399.38 142.21 387.50 142.00 384.38 Z" id="s-7-f-3"/>
<path d="M 46.75 398.00 C 46.31 398.52 46.12 398.62 46.00 399.50 C 45.88 400.38 45.35 401.69 46.00 403.25 C 46.65 404.81 47.38 406.06 49.88 408.88 C 52.38 411.69 58.40 417.65 61.00 420.12 C 63.60 422.60 63.69 422.46 65.50 423.75 C 67.31 425.04 69.71 426.73 71.88 427.88 C 74.04 429.02 76.67 430.12 78.50 430.62 C 80.33 431.12 81.44 431.02 82.88 430.88 C 84.31 430.73 85.33 430.56 87.12 429.75 C 88.92 428.94 92.48 427.02 93.62 426.00 C 94.77 424.98 93.96 427.15 94.00 423.62 C 94.04 420.10 93.98 409.21 93.88 404.88 C 93.77 400.54 93.54 399.10 93.38 397.62 C 93.21 396.15 95.08 396.00 92.88 396.00 C 90.67 396.00 83.35 397.33 80.12 397.62 C 76.90 397.92 77.15 398.00 73.50 397.75 C 69.85 397.50 62.02 396.44 58.25 396.12 C 54.48 395.81 52.48 395.83 50.88 395.88 C 49.27 395.92 49.31 396.02 48.62 396.38 C 47.94 396.73 47.19 397.48 46.75 398.00 Z" id="s-7-f-4"/>
</g>
<g id="s-8" clip-path="url(#c-s-8)">
<use href="#s-8-f-0"/>
<path d="M 419.25 176.12 C 417.79 175.79 418.23 175.27 415.50 176.00 C 412.77 176.73 406.90 179.21 402.88 180.50 C 398.85 181.79 394.42 183.00 391.38 183.75 C 388.33 184.50 387.46 184.33 384.62 185.00 C 381.79 185.67 376.65 187.23 374.38 187.75 C 372.10 188.27 372.40 187.81 371.00 188.12 C 369.60 188.44 367.38 189.33 366.00 189.62 C 364.62 189.92 367.69 188.98 362.75 189.88 C 357.81 190.77 342.71 193.69 336.38 195.00 C 330.04 196.31 329.50 196.79 324.75 197.75 C 320.00 198.71 314.75 199.85 307.88 200.75 C 301.00 201.65 287.98 202.46 283.50 203.12 C 279.02 203.79 281.40 204.19 281.00 204.75 C 280.60 205.31 280.69 205.71 281.12 206.50 C 281.56 207.29 281.94 208.12 283.62 209.50 C 285.31 210.88 288.35 213.04 291.25 214.75 C 294.15 216.46 297.94 218.56 301.00 219.75 C 304.06 220.94 307.38 221.54 309.62 221.88 C 311.88 222.21 312.92 221.96 314.50 221.75 C 316.08 221.54 316.44 221.58 319.12 220.62 C 321.81 219.67 323.75 218.15 330.62 216.00 C 337.50 213.85 354.79 209.40 360.38 207.75 C 365.96 206.10 362.81 206.46 364.12 206.12 C 365.44 205.79 367.21 205.96 368.25 205.75 C 369.29 205.54 369.62 205.04 370.38 204.88 C 371.12 204.71 372.06 204.90 372.75 204.75 C 373.44 204.60 372.79 204.33 374.50 204.00 C 376.21 203.67 381.23 203.08 383.00 202.75 C 384.77 202.42 383.19 202.29 385.12 202.00 C 387.06 201.71 392.23 201.15 394.62 201.00 C 397.02 200.85 398.02 200.96 399.50 201.12 C 400.98 201.29 402.19 201.52 403.50 202.00 C 404.81 202.48 406.33 203.23 407.38 204.00 C 408.42 204.77 409.19 205.85 409.75 206.62 C 410.31 207.40 410.42 207.48 410.75 208.62 C 411.08 209.77 411.58 210.94 411.75 213.50 C 411.92 216.06 412.06 217.50 411.75 224.00 C 411.44 230.50 410.71 243.40 409.88 252.50 C 409.04 261.60 408.27 268.17 406.75 278.62 C 405.23 289.08 401.85 308.90 400.75 315.25 C 399.65 321.60 400.65 314.19 400.12 316.75 C 399.60 319.31 398.85 325.06 397.62 330.62 C 396.40 336.19 394.75 343.25 392.75 350.12 C 390.75 357.00 387.48 366.75 385.62 371.88 C 383.77 377.00 383.15 377.90 381.62 380.88 C 380.10 383.85 377.98 387.60 376.50 389.75 C 375.02 391.90 373.67 392.90 372.75 393.75 C 371.83 394.60 371.90 394.48 371.00 394.88 C 370.10 395.27 368.06 395.77 367.38 396.12 C 366.69 396.48 366.81 392.46 366.88 397.00 C 366.94 401.54 367.52 418.75 367.75 423.38 C 367.98 428.00 363.85 424.50 368.25 424.75 C 372.65 425.00 389.50 425.17 394.12 424.88 C 398.75 424.58 394.73 424.62 396.00 423.00 C 397.27 421.38 400.15 417.56 401.75 415.12 C 403.35 412.69 403.98 411.69 405.62 408.38 C 407.27 405.06 409.44 400.94 411.62 395.25 C 413.81 389.56 416.92 380.46 418.75 374.25 C 420.58 368.04 421.48 363.33 422.62 358.00 C 423.77 352.67 423.94 352.67 425.62 342.25 C 427.31 331.83 430.85 309.04 432.75 295.50 C 434.65 281.96 435.79 269.52 437.00 261.00 C 438.21 252.48 439.00 249.25 440.00 244.38 C 441.00 239.50 442.17 234.88 443.00 231.75 C 443.83 228.62 444.17 227.83 445.00 225.62 C 445.83 223.42 446.54 221.44 448.00 218.50 C 449.46 215.56 452.62 210.27 453.75 208.00 C 454.88 205.73 454.58 206.04 454.75 204.88 C 454.92 203.71 454.92 202.04 454.75 201.00 C 454.58 199.96 454.44 199.67 453.75 198.62 C 453.06 197.58 451.90 196.08 450.62 194.75 C 449.35 193.42 448.42 192.40 446.12 190.62 C 443.83 188.85 440.52 186.23 436.88 184.12 C 433.23 182.02 427.19 179.33 424.25 178.00 C 421.31 176.67 420.71 176.46 419.25 176.12 Z" id="s-8-f-1"/>
<path d="M 418.62 176.00 C 417.08 175.69 417.62 175.38 415.00 176.12 C 412.38 176.88 406.81 179.23 402.88 180.50 C 398.94 181.77 394.42 183.00 391.38 183.75 C 388.33 184.50 387.46 184.33 384.62 185.00 C 381.79 185.67 376.65 187.23 374.38 187.75 C 372.10 188.27 372.40 187.81 371.00 188.12 C 369.60 188.44 367.38 189.33 366.00 189.62 C 364.62 189.92 367.58 189.00 362.75 189.88 C 357.92 190.75 343.33 193.56 337.00 194.88 C 330.67 196.19 329.60 196.77 324.75 197.75 C 319.90 198.73 314.75 199.85 307.88 200.75 C 301.00 201.65 287.92 202.56 283.50 203.12 C 279.08 203.69 281.79 203.85 281.38 204.12 C 280.96 204.40 281.04 204.35 281.00 204.75 C 280.96 205.15 280.69 205.71 281.12 206.50 C 281.56 207.29 281.94 208.12 283.62 209.50 C 285.31 210.88 288.35 213.04 291.25 214.75 C 294.15 216.46 297.94 218.56 301.00 219.75 C 304.06 220.94 307.38 221.54 309.62 221.88 C 311.88 222.21 312.92 221.96 314.50 221.75 C 316.08 221.54 316.44 221.58 319.12 220.62 C 321.81 219.67 323.75 218.15 330.62 216.00 C 337.50 213.85 354.79 209.40 360.38 207.75 C 365.96 206.10 362.81 206.46 364.12 206.12 C 365.44 205.79 367.21 205.96 368.25 205.75 C 369.29 205.54 369.62 205.04 370.38 204.88 C 371.12 204.71 372.06 204.90 372.75 204.75 C 373.44 204.60 372.79 204.33 374.50 204.00 C 376.21 203.67 381.23 203.08 383.00 202.75 C 384.77 202.42 383.19 202.29 385.12 202.00 C 387.06 201.71 392.23 201.15 394.62 201.00 C 397.02 200.85 397.65 200.79 399.50 201.12 C 401.35 201.46 404.44 202.52 405.75 203.00 C 407.06 203.48 406.71 203.40 407.38 204.00 C 408.04 204.60 409.17 205.79 409.75 206.62 C 410.33 207.46 410.54 207.85 410.88 209.00 C 411.21 210.15 411.60 211.00 411.75 213.50 C 411.90 216.00 411.90 219.48 411.75 224.00 C 411.60 228.52 411.54 232.77 410.88 240.62 C 410.21 248.48 408.73 263.19 407.75 271.12 C 406.77 279.06 405.50 284.71 405.00 288.25 C 404.50 291.79 405.46 287.88 404.75 292.38 C 404.04 296.88 402.42 306.90 400.75 315.25 C 399.08 323.60 396.75 334.50 394.75 342.50 C 392.75 350.50 390.58 357.71 388.75 363.25 C 386.92 368.79 384.54 373.48 383.75 375.75 C 382.96 378.02 378.73 376.67 384.00 376.88 C 389.27 377.08 409.73 377.06 415.38 377.00 C 421.02 376.94 417.00 378.17 417.88 376.50 C 418.75 374.83 419.83 370.10 420.62 367.00 C 421.42 363.90 421.44 364.10 422.62 357.88 C 423.81 351.65 426.06 340.02 427.75 329.62 C 429.44 319.23 431.21 306.94 432.75 295.50 C 434.29 284.06 435.79 269.52 437.00 261.00 C 438.21 252.48 439.00 249.25 440.00 244.38 C 441.00 239.50 442.17 234.88 443.00 231.75 C 443.83 228.62 444.17 227.83 445.00 225.62 C 445.83 223.42 446.54 221.44 448.00 218.50 C 449.46 215.56 452.62 210.27 453.75 208.00 C 454.88 205.73 454.58 206.04 454.75 204.88 C 454.92 203.71 454.92 202.04 454.75 201.00 C 454.58 199.96 454.44 199.67 453.75 198.62 C 453.06 197.58 452.00 196.17 450.62 194.75 C 449.25 193.33 447.79 191.90 445.50 190.12 C 443.21 188.35 440.42 186.15 436.88 184.12 C 433.33 182.10 427.29 179.35 424.25 178.00 C 421.21 176.65 420.17 176.31 418.62 176.00 Z" id="s-8-f-2"/>
<path d="M 281.50 204.12 C 280.96 204.42 281.08 204.40 281.00 204.75 C 280.92 205.10 280.71 205.60 281.00 206.25 C 281.29 206.90 281.90 207.75 282.75 208.62 C 283.60 209.50 284.71 210.48 286.12 211.50 C 287.54 212.52 289.17 213.54 291.25 214.75 C 293.33 215.96 296.58 217.77 298.62 218.75 C 300.67 219.73 301.92 220.12 303.50 220.62 C 305.08 221.12 306.65 221.54 308.12 221.75 C 309.60 221.96 310.54 222.06 312.38 221.88 C 314.21 221.69 316.08 221.60 319.12 220.62 C 322.17 219.65 323.75 218.15 330.62 216.00 C 337.50 213.85 354.79 209.40 360.38 207.75 C 365.96 206.10 362.71 206.48 364.12 206.12 C 365.54 205.77 367.83 205.83 368.88 205.62 C 369.92 205.42 369.73 205.02 370.38 204.88 C 371.02 204.73 371.23 205.06 372.75 204.75 C 374.27 204.44 377.79 203.33 379.50 203.00 C 381.21 202.67 382.06 202.92 383.00 202.75 C 383.94 202.58 382.60 202.29 385.12 202.00 C 387.65 201.71 395.06 201.00 398.12 201.00 C 401.19 201.00 401.96 201.50 403.50 202.00 C 405.04 202.50 406.33 203.23 407.38 204.00 C 408.42 204.77 409.04 205.29 409.75 206.62 C 410.46 207.96 411.29 209.10 411.62 212.00 C 411.96 214.90 411.90 218.92 411.75 224.00 C 411.60 229.08 411.42 234.65 410.75 242.50 C 410.08 250.35 408.71 263.50 407.75 271.12 C 406.79 278.75 405.50 284.71 405.00 288.25 C 404.50 291.79 405.46 287.88 404.75 292.38 C 404.04 296.88 401.88 309.33 400.75 315.25 C 399.62 321.17 398.33 325.58 398.00 327.88 C 397.67 330.17 394.17 328.81 398.75 329.00 C 403.33 329.19 420.69 329.06 425.50 329.00 C 430.31 328.94 426.42 334.21 427.62 328.62 C 428.83 323.04 431.19 306.77 432.75 295.50 C 434.31 284.23 435.79 269.52 437.00 261.00 C 438.21 252.48 439.00 249.25 440.00 244.38 C 441.00 239.50 442.17 234.88 443.00 231.75 C 443.83 228.62 444.17 227.83 445.00 225.62 C 445.83 223.42 446.54 221.44 448.00 218.50 C 449.46 215.56 452.62 210.27 453.75 208.00 C 454.88 205.73 454.58 206.04 454.75 204.88 C 454.92 203.71 454.92 202.04 454.75 201.00 C 454.58 199.96 454.44 199.67 453.75 198.62 C 453.06 197.58 451.90 196.08 450.62 194.75 C 449.35 193.42 448.42 192.40 446.12 190.62 C 443.83 188.85 439.79 185.90 436.88 184.12 C 433.96 182.35 431.56 181.33 428.62 180.00 C 425.69 178.67 421.27 176.81 419.25 176.12 C 417.23 175.44 419.23 175.15 416.50 175.88 C 413.77 176.60 407.06 179.19 402.88 180.50 C 398.69 181.81 394.42 183.00 391.38 183.75 C 388.33 184.50 387.46 184.33 384.62 185.00 C 381.79 185.67 376.65 187.23 374.38 187.75 C 372.10 188.27 372.40 187.81 371.00 188.12 C 369.60 188.44 369.98 188.83 366.00 189.62 C 362.02 190.42 355.83 191.19 347.12 192.88 C 338.42 194.56 321.73 198.25 313.75 199.75 C 305.77 201.25 304.17 201.33 299.25 201.88 C 294.33 202.42 287.21 202.62 284.25 203.00 C 281.29 203.38 282.04 203.83 281.50 204.12 Z" id="s-8-f-3"/>
<path d="M 454.88 201.88 C 454.71 200.83 454.46 199.81 453.75 198.62 C 453.04 197.44 452.00 196.17 450.62 194.75 C 449.25 193.33 447.52 191.73 445.50 190.12 C 443.48 188.52 442.04 187.15 438.50 185.12 C 434.96 183.10 427.46 179.50 424.25 178.00 C 421.04 176.50 420.54 176.48 419.25 176.12 C 417.96 175.77 419.23 175.15 416.50 175.88 C 413.77 176.60 407.06 179.19 402.88 180.50 C 398.69 181.81 394.42 183.00 391.38 183.75 C 388.33 184.50 387.46 184.33 384.62 185.00 C 381.79 185.67 376.65 187.23 374.38 187.75 C 372.10 188.27 372.40 187.81 371.00 188.12 C 369.60 188.44 367.38 189.33 366.00 189.62 C 364.62 189.92 367.58 189.00 362.75 189.88 C 357.92 190.75 343.33 193.56 337.00 194.88 C 330.67 196.19 329.60 196.77 324.75 197.75 C 319.90 198.73 314.75 199.85 307.88 200.75 C 301.00 201.65 287.96 202.50 283.50 203.12 C 279.04 203.75 281.54 203.98 281.12 204.50 C 280.71 205.02 280.73 205.56 281.00 206.25 C 281.27 206.94 281.90 207.75 282.75 208.62 C 283.60 209.50 283.48 209.81 286.12 211.50 C 288.77 213.19 295.17 217.08 298.62 218.75 C 302.08 220.42 304.58 220.98 306.88 221.50 C 309.17 222.02 310.33 222.02 312.38 221.88 C 314.42 221.73 316.08 221.60 319.12 220.62 C 322.17 219.65 323.75 218.15 330.62 216.00 C 337.50 213.85 354.79 209.40 360.38 207.75 C 365.96 206.10 362.71 206.48 364.12 206.12 C 365.54 205.77 367.15 205.98 368.88 205.62 C 370.60 205.27 372.15 204.48 374.50 204.00 C 376.85 203.52 381.23 203.08 383.00 202.75 C 384.77 202.42 383.19 202.29 385.12 202.00 C 387.06 201.71 392.23 201.15 394.62 201.00 C 397.02 200.85 397.65 200.79 399.50 201.12 C 401.35 201.46 404.44 202.52 405.75 203.00 C 407.06 203.48 406.71 203.40 407.38 204.00 C 408.04 204.60 409.17 205.79 409.75 206.62 C 410.33 207.46 410.54 207.85 410.88 209.00 C 411.21 210.15 411.60 211.00 411.75 213.50 C 411.90 216.00 411.92 219.17 411.75 224.00 C 411.58 228.83 411.42 234.65 410.75 242.50 C 410.08 250.35 408.48 264.85 407.75 271.12 C 407.02 277.40 406.52 278.52 406.38 280.12 C 406.23 281.73 406.50 280.60 406.88 280.75 C 407.25 280.90 404.08 280.98 408.62 281.00 C 413.17 281.02 429.77 281.10 434.12 280.88 C 438.48 280.65 434.27 282.94 434.75 279.62 C 435.23 276.31 436.31 265.94 437.00 261.00 C 437.69 256.06 437.88 254.85 438.88 250.00 C 439.88 245.15 441.65 236.77 443.00 231.88 C 444.35 226.98 445.21 224.60 447.00 220.62 C 448.79 216.65 452.46 210.62 453.75 208.00 C 455.04 205.38 454.56 205.90 454.75 204.88 C 454.94 203.85 455.04 202.92 454.88 201.88 Z" id="s-8-f-4"/>
<path d="M 454.88 201.88 C 454.71 200.83 454.46 199.81 453.75 198.62 C 453.04 197.44 452.00 196.17 450.62 194.75 C 449.25 193.33 447.52 191.73 445.50 190.12 C 443.48 188.52 442.04 187.15 438.50 185.12 C 434.96 183.10 427.46 179.50 424.25 178.00 C 421.04 176.50 420.54 176.48 419.25 176.12 C 417.96 175.77 419.23 175.15 416.50 175.88 C 413.77 176.60 407.06 179.19 402.88 180.50 C 398.69 181.81 394.42 183.00 391.38 183.75 C 388.33 184.50 387.46 184.33 384.62 185.00 C 381.79 185.67 376.65 187.23 374.38 187.75 C 372.10 188.27 372.40 187.81 371.00 188.12 C 369.60 188.44 369.98 188.83 366.00 189.62 C 362.02 190.42 355.67 191.21 347.12 192.88 C 338.58 194.54 322.71 198.12 314.75 199.62 C 306.79 201.12 304.58 201.29 299.38 201.88 C 294.17 202.46 286.54 202.69 283.50 203.12 C 280.46 203.56 281.54 203.98 281.12 204.50 C 280.71 205.02 280.73 205.56 281.00 206.25 C 281.27 206.94 281.90 207.75 282.75 208.62 C 283.60 209.50 283.83 209.98 286.12 211.50 C 288.42 213.02 293.56 216.21 296.50 217.75 C 299.44 219.29 301.81 220.08 303.75 220.75 C 305.69 221.42 306.19 221.60 308.12 221.75 C 310.06 221.90 313.52 221.81 315.38 221.62 C 317.23 221.44 316.71 221.56 319.25 220.62 C 321.79 219.69 323.77 218.15 330.62 216.00 C 337.48 213.85 354.71 209.42 360.38 207.75 C 366.04 206.08 363.29 206.33 364.62 206.00 C 365.96 205.67 367.42 205.94 368.38 205.75 C 369.33 205.56 369.65 205.04 370.38 204.88 C 371.10 204.71 372.06 204.90 372.75 204.75 C 373.44 204.60 372.79 204.33 374.50 204.00 C 376.21 203.67 381.23 203.08 383.00 202.75 C 384.77 202.42 383.19 202.29 385.12 202.00 C 387.06 201.71 392.23 201.15 394.62 201.00 C 397.02 200.85 397.96 200.94 399.50 201.12 C 401.04 201.31 402.56 201.65 403.88 202.12 C 405.19 202.60 406.40 203.25 407.38 204.00 C 408.35 204.75 409.19 205.85 409.75 206.62 C 410.31 207.40 410.42 207.48 410.75 208.62 C 411.08 209.77 411.67 209.81 411.75 213.50 C 411.83 217.19 411.27 227.54 411.25 230.75 C 411.23 233.96 407.94 232.38 411.62 232.75 C 415.31 233.12 428.17 233.04 433.38 233.00 C 438.58 232.96 440.60 234.56 442.88 232.50 C 445.15 230.44 445.19 224.71 447.00 220.62 C 448.81 216.54 452.46 210.62 453.75 208.00 C 455.04 205.38 454.56 205.90 454.75 204.88 C 454.94 203.85 455.04 202.92 454.88 201.88 Z" id="s-8-f-5"/>
<path d="M 437.12 184.62 C 437.17 184.31 438.83 185.08 436.75 184.00 C 434.67 182.92 427.54 179.44 424.62 178.12 C 421.71 176.81 420.77 176.48 419.25 176.12 C 417.73 175.77 418.23 175.27 415.50 176.00 C 412.77 176.73 408.92 178.71 402.88 180.50 C 396.83 182.29 385.50 185.21 379.25 186.75 C 373.00 188.29 368.12 189.23 365.38 189.75 C 362.62 190.27 367.52 189.02 362.75 189.88 C 357.98 190.73 342.27 193.73 336.75 194.88 C 331.23 196.02 333.29 195.96 329.62 196.75 C 325.96 197.54 319.62 198.79 314.75 199.62 C 309.88 200.46 305.58 201.17 300.38 201.75 C 295.17 202.33 286.71 202.69 283.50 203.12 C 280.29 203.56 281.54 203.85 281.12 204.38 C 280.71 204.90 280.73 205.54 281.00 206.25 C 281.27 206.96 281.83 207.71 282.75 208.62 C 283.67 209.54 283.92 210.08 286.50 211.75 C 289.08 213.42 295.46 217.15 298.25 218.62 C 301.04 220.10 301.75 220.12 303.25 220.62 C 304.75 221.12 305.23 221.46 307.25 221.62 C 309.27 221.79 312.96 221.94 315.38 221.62 C 317.79 221.31 319.21 220.69 321.75 219.75 C 324.29 218.81 328.88 216.65 330.62 216.00 C 332.38 215.35 327.38 217.23 332.25 215.88 C 337.12 214.52 354.54 209.50 359.88 207.88 C 365.21 206.25 360.12 207.10 364.25 206.12 C 368.38 205.15 379.17 202.90 384.62 202.00 C 390.08 201.10 390.00 202.88 397.00 200.75 C 404.00 198.62 420.04 191.73 426.62 189.25 C 433.21 186.77 434.75 186.65 436.50 185.88 C 438.25 185.10 437.08 184.94 437.12 184.62 Z" id="s-8-f-6"/>
<path d="M 424.88 178.88 C 424.75 177.02 425.19 178.46 424.25 178.00 C 423.31 177.54 420.71 176.46 419.25 176.12 C 417.79 175.79 418.38 175.23 415.50 176.00 C 412.62 176.77 408.04 178.96 402.00 180.75 C 395.96 182.54 393.96 183.58 379.25 186.75 C 364.54 189.92 326.90 197.25 313.75 199.75 C 300.60 202.25 305.42 201.19 300.38 201.75 C 295.33 202.31 286.71 202.69 283.50 203.12 C 280.29 203.56 281.54 203.85 281.12 204.38 C 280.71 204.90 280.73 205.54 281.00 206.25 C 281.27 206.96 281.83 207.71 282.75 208.62 C 283.67 209.54 283.92 210.08 286.50 211.75 C 289.08 213.42 295.46 217.15 298.25 218.62 C 301.04 220.10 301.75 220.12 303.25 220.62 C 304.75 221.12 305.23 221.46 307.25 221.62 C 309.27 221.79 312.96 221.94 315.38 221.62 C 317.79 221.31 319.21 220.69 321.75 219.75 C 324.29 218.81 328.88 216.65 330.62 216.00 C 332.38 215.35 327.38 217.23 332.25 215.88 C 337.12 214.52 354.54 209.50 359.88 207.88 C 365.21 206.25 360.10 207.10 364.25 206.12 C 368.40 205.15 379.29 202.90 384.75 202.00 C 390.21 201.10 390.35 202.73 397.00 200.75 C 403.65 198.77 419.96 192.06 424.62 190.12 C 429.29 188.19 424.96 191.00 425.00 189.12 C 425.04 187.25 425.00 180.73 424.88 178.88 Z" id="s-8-f-7"/>
<path d="M 377.00 188.25 C 376.92 185.75 378.44 187.00 376.50 187.25 C 374.56 187.50 367.67 189.31 365.38 189.75 C 363.08 190.19 367.48 189.02 362.75 189.88 C 358.02 190.73 343.33 193.56 337.00 194.88 C 330.67 196.19 329.60 196.77 324.75 197.75 C 319.90 198.73 314.75 199.85 307.88 200.75 C 301.00 201.65 287.96 202.52 283.50 203.12 C 279.04 203.73 281.54 203.85 281.12 204.38 C 280.71 204.90 280.73 205.54 281.00 206.25 C 281.27 206.96 281.90 207.75 282.75 208.62 C 283.60 209.50 283.54 209.83 286.12 211.50 C 288.71 213.17 294.73 216.94 298.25 218.62 C 301.77 220.31 304.42 221.12 307.25 221.62 C 310.08 222.12 312.83 221.94 315.25 221.62 C 317.67 221.31 319.19 220.69 321.75 219.75 C 324.31 218.81 324.27 217.98 330.62 216.00 C 336.98 214.02 354.27 209.52 359.88 207.88 C 365.48 206.23 361.50 206.81 364.25 206.12 C 367.00 205.44 374.25 204.40 376.38 203.75 C 378.50 203.10 376.90 204.83 377.00 202.25 C 377.10 199.67 377.08 190.75 377.00 188.25 Z" id="s-8-f-8"/>
<path d="M 328.88 216.50 C 330.08 212.77 329.10 200.62 329.00 197.38 C 328.90 194.12 331.77 196.44 328.25 197.00 C 324.73 197.56 313.85 199.81 307.88 200.75 C 301.90 201.69 296.31 202.25 292.38 202.62 C 288.44 203.00 286.08 202.75 284.25 203.00 C 282.42 203.25 281.92 203.83 281.38 204.12 C 280.83 204.42 281.06 204.40 281.00 204.75 C 280.94 205.10 280.71 205.60 281.00 206.25 C 281.29 206.90 281.58 207.54 282.75 208.62 C 283.92 209.71 285.42 211.08 288.00 212.75 C 290.58 214.42 295.02 217.15 298.25 218.62 C 301.48 220.10 304.54 221.12 307.38 221.62 C 310.21 222.12 312.85 221.94 315.25 221.62 C 317.65 221.31 319.48 220.60 321.75 219.75 C 324.02 218.90 327.67 220.23 328.88 216.50 Z" id="s-8-f-9"/>
</g>
<g id="s-9" clip-path="url(#c-s-9)">
<use href="#s-9-f-0"/>
<path d="M 350.75 60.12 C 347.96 59.46 345.83 59.85 344.25 60.00 C 342.67 60.15 342.23 60.44 341.25 61.00 C 340.27 61.56 339.08 62.52 338.38 63.38 C 337.67 64.23 337.23 65.35 337.00 66.12 C 336.77 66.90 336.56 66.79 337.00 68.00 C 337.44 69.21 339.00 71.77 339.62 73.38 C 340.25 74.98 340.25 74.58 340.75 77.62 C 341.25 80.67 342.29 86.02 342.62 91.62 C 342.96 97.23 343.08 101.79 342.75 111.25 C 342.42 120.71 341.27 139.50 340.62 148.38 C 339.98 157.25 339.85 157.35 338.88 164.50 C 337.90 171.65 335.62 185.98 334.75 191.25 C 333.88 196.52 334.31 195.21 333.62 196.12 C 332.94 197.04 330.85 196.58 330.62 196.75 C 330.40 196.92 332.06 197.10 332.25 197.12 C 332.44 197.15 331.60 196.98 331.75 196.88 C 331.90 196.77 332.83 196.50 333.12 196.50 C 333.42 196.50 333.58 196.56 333.50 196.88 C 333.42 197.19 332.81 197.29 332.62 198.38 C 332.44 199.46 332.54 202.25 332.38 203.38 C 332.21 204.50 331.79 204.00 331.62 205.12 C 331.46 206.25 331.54 209.00 331.38 210.12 C 331.21 211.25 330.77 210.65 330.62 211.88 C 330.48 213.10 331.62 211.04 330.50 217.50 C 329.38 223.96 325.52 242.98 323.88 250.62 C 322.23 258.27 322.15 258.08 320.62 263.38 C 319.10 268.67 317.27 274.77 314.75 282.38 C 312.23 289.98 308.52 300.94 305.50 309.00 C 302.48 317.06 299.08 325.02 296.62 330.75 C 294.17 336.48 293.54 338.12 290.75 343.38 C 287.96 348.62 283.56 356.42 279.88 362.25 C 276.19 368.08 272.69 372.83 268.62 378.38 C 264.56 383.92 257.62 392.58 255.50 395.50 C 253.38 398.42 251.04 395.81 255.88 395.88 C 260.71 395.94 278.90 396.79 284.50 395.88 C 290.10 394.96 287.67 392.60 289.50 390.38 C 291.33 388.15 293.27 385.65 295.50 382.50 C 297.73 379.35 299.83 376.42 302.88 371.50 C 305.92 366.58 309.94 359.90 313.75 353.00 C 317.56 346.10 321.94 338.10 325.75 330.12 C 329.56 322.15 332.98 314.69 336.62 305.12 C 340.27 295.56 344.44 283.56 347.62 272.75 C 350.81 261.94 353.38 251.15 355.75 240.25 C 358.12 229.35 360.75 213.00 361.88 207.38 C 363.00 201.75 362.21 206.67 362.50 206.50 C 362.79 206.33 363.54 206.56 363.62 206.38 C 363.71 206.19 363.06 206.21 363.00 205.38 C 362.94 204.54 363.06 202.44 363.25 201.38 C 363.44 200.31 363.94 200.08 364.12 199.00 C 364.31 197.92 364.21 195.79 364.38 194.88 C 364.54 193.96 365.00 194.56 365.12 193.50 C 365.25 192.44 364.35 194.50 365.12 188.50 C 365.90 182.50 368.12 169.35 369.75 157.50 C 371.38 145.65 373.52 126.73 374.88 117.38 C 376.23 108.02 377.06 105.06 377.88 101.38 C 378.69 97.69 379.08 97.98 379.75 95.25 C 380.42 92.52 381.54 87.52 381.88 85.00 C 382.21 82.48 381.94 81.27 381.75 80.12 C 381.56 78.98 381.38 79.00 380.75 78.12 C 380.12 77.25 379.06 75.92 378.00 74.88 C 376.94 73.83 375.96 73.02 374.38 71.88 C 372.79 70.73 370.73 69.31 368.50 68.00 C 366.27 66.69 363.96 65.31 361.00 64.00 C 358.04 62.69 353.54 60.79 350.75 60.12 Z" id="s-9-f-1"/>
<path d="M 350.75 60.12 C 347.96 59.46 345.83 59.85 344.25 60.00 C 342.67 60.15 342.23 60.44 341.25 61.00 C 340.27 61.56 339.08 62.52 338.38 63.38 C 337.67 64.23 337.23 65.35 337.00 66.12 C 336.77 66.90 336.56 66.79 337.00 68.00 C 337.44 69.21 339.00 71.77 339.62 73.38 C 340.25 74.98 340.25 74.58 340.75 77.62 C 341.25 80.67 342.29 86.02 342.62 91.62 C 342.96 97.23 342.90 104.23 342.75 111.25 C 342.60 118.27 342.40 124.88 341.75 133.75 C 341.10 142.62 339.88 155.85 338.88 164.50 C 337.88 173.15 336.62 180.35 335.75 185.62 C 334.88 190.90 334.48 194.27 333.62 196.12 C 332.77 197.98 330.85 196.58 330.62 196.75 C 330.40 196.92 332.06 197.10 332.25 197.12 C 332.44 197.15 331.60 196.98 331.75 196.88 C 331.90 196.77 332.83 196.50 333.12 196.50 C 333.42 196.50 333.58 196.56 333.50 196.88 C 333.42 197.19 332.81 197.29 332.62 198.38 C 332.44 199.46 332.54 202.25 332.38 203.38 C 332.21 204.50 331.79 204.00 331.62 205.12 C 331.46 206.25 331.54 209.00 331.38 210.12 C 331.21 211.25 330.79 210.50 330.62 211.88 C 330.46 213.25 331.19 213.33 330.38 218.38 C 329.56 223.42 327.38 234.62 325.75 242.12 C 324.12 249.62 323.33 254.04 320.62 263.38 C 317.92 272.71 312.50 289.25 309.50 298.12 C 306.50 307.00 304.75 311.21 302.62 316.62 C 300.50 322.04 299.08 325.48 296.75 330.62 C 294.42 335.77 289.90 344.62 288.62 347.50 C 287.35 350.38 284.52 347.81 289.12 347.88 C 293.73 347.94 310.65 349.79 316.25 347.88 C 321.85 345.96 319.83 342.31 322.75 336.38 C 325.67 330.44 331.10 318.33 333.75 312.25 C 336.40 306.17 336.31 306.46 338.62 299.88 C 340.94 293.29 345.10 281.21 347.62 272.75 C 350.15 264.29 351.90 257.00 353.75 249.12 C 355.60 241.25 357.40 232.46 358.75 225.50 C 360.10 218.54 361.25 210.54 361.88 207.38 C 362.50 204.21 362.21 206.67 362.50 206.50 C 362.79 206.33 363.54 206.56 363.62 206.38 C 363.71 206.19 363.06 206.21 363.00 205.38 C 362.94 204.54 363.06 202.44 363.25 201.38 C 363.44 200.31 363.94 200.08 364.12 199.00 C 364.31 197.92 364.21 195.79 364.38 194.88 C 364.54 193.96 365.00 194.56 365.12 193.50 C 365.25 192.44 364.35 194.50 365.12 188.50 C 365.90 182.50 368.12 169.35 369.75 157.50 C 371.38 145.65 373.52 126.73 374.88 117.38 C 376.23 108.02 376.77 106.31 377.88 101.38 C 378.98 96.44 380.83 91.10 381.50 87.75 C 382.17 84.40 381.85 82.58 381.88 81.25 C 381.90 79.92 381.96 80.48 381.62 79.75 C 381.29 79.02 381.27 78.33 379.88 76.88 C 378.48 75.42 376.40 73.15 373.25 71.00 C 370.10 68.85 364.75 65.81 361.00 64.00 C 357.25 62.19 353.54 60.79 350.75 60.12 Z" id="s-9-f-2"/>
<path d="M 350.12 60.00 C 347.33 59.33 345.73 59.83 344.25 60.00 C 342.77 60.17 342.23 60.44 341.25 61.00 C 340.27 61.56 339.06 62.65 338.38 63.38 C 337.69 64.10 337.35 64.60 337.12 65.38 C 336.90 66.15 336.54 66.54 337.00 68.00 C 337.46 69.46 339.10 71.71 339.88 74.12 C 340.65 76.54 341.17 79.58 341.62 82.50 C 342.08 85.42 342.42 88.81 342.62 91.62 C 342.83 94.44 343.00 92.69 342.88 99.38 C 342.75 106.06 342.54 120.90 341.88 131.75 C 341.21 142.60 339.75 156.40 338.88 164.50 C 338.00 172.60 337.46 175.23 336.62 180.38 C 335.79 185.52 334.44 192.71 333.88 195.38 C 333.31 198.04 333.79 196.15 333.25 196.38 C 332.71 196.60 330.79 196.62 330.62 196.75 C 330.46 196.88 332.06 197.10 332.25 197.12 C 332.44 197.15 331.60 196.98 331.75 196.88 C 331.90 196.77 332.83 196.50 333.12 196.50 C 333.42 196.50 333.58 196.56 333.50 196.88 C 333.42 197.19 332.81 197.29 332.62 198.38 C 332.44 199.46 332.54 202.25 332.38 203.38 C 332.21 204.50 331.79 204.00 331.62 205.12 C 331.46 206.25 331.54 209.00 331.38 210.12 C 331.21 211.25 330.79 210.50 330.62 211.88 C 330.46 213.25 331.19 213.33 330.38 218.38 C 329.56 223.42 327.38 234.62 325.75 242.12 C 324.12 249.62 322.46 256.67 320.62 263.38 C 318.79 270.08 316.69 276.46 314.75 282.38 C 312.81 288.29 309.83 295.94 309.00 298.88 C 308.17 301.81 304.90 299.83 309.75 300.00 C 314.60 300.17 333.29 299.98 338.12 299.88 C 342.96 299.77 337.65 302.35 338.75 299.38 C 339.85 296.40 342.77 288.27 344.75 282.00 C 346.73 275.73 348.62 269.50 350.62 261.75 C 352.62 254.00 354.88 244.56 356.75 235.50 C 358.62 226.44 360.92 212.21 361.88 207.38 C 362.83 202.54 362.21 206.67 362.50 206.50 C 362.79 206.33 363.54 206.56 363.62 206.38 C 363.71 206.19 363.06 206.21 363.00 205.38 C 362.94 204.54 363.06 202.44 363.25 201.38 C 363.44 200.31 363.94 200.08 364.12 199.00 C 364.31 197.92 364.21 195.79 364.38 194.88 C 364.54 193.96 365.00 194.56 365.12 193.50 C 365.25 192.44 364.35 194.50 365.12 188.50 C 365.90 182.50 368.12 169.35 369.75 157.50 C 371.38 145.65 373.52 126.73 374.88 117.38 C 376.23 108.02 376.77 106.31 377.88 101.38 C 378.98 96.44 380.83 91.10 381.50 87.75 C 382.17 84.40 381.85 82.58 381.88 81.25 C 381.90 79.92 381.96 80.48 381.62 79.75 C 381.29 79.02 381.27 78.33 379.88 76.88 C 378.48 75.42 376.40 73.15 373.25 71.00 C 370.10 68.85 364.85 65.83 361.00 64.00 C 357.15 62.17 352.92 60.67 350.12 60.00 Z" id="s-9-f-3"/>
<path d="M 350.12 60.00 C 347.33 59.33 345.73 59.83 344.25 60.00 C 342.77 60.17 342.23 60.44 341.25 61.00 C 340.27 61.56 339.08 62.52 338.38 63.38 C 337.67 64.23 337.23 65.35 337.00 66.12 C 336.77 66.90 336.56 66.79 337.00 68.00 C 337.44 69.21 339.00 71.77 339.62 73.38 C 340.25 74.98 340.25 74.56 340.75 77.62 C 341.25 80.69 342.29 86.15 342.62 91.75 C 342.96 97.35 342.92 103.92 342.75 111.25 C 342.58 118.58 342.27 126.88 341.62 135.75 C 340.98 144.62 340.02 155.25 338.88 164.50 C 337.73 173.75 335.62 185.98 334.75 191.25 C 333.88 196.52 334.31 195.21 333.62 196.12 C 332.94 197.04 330.85 196.58 330.62 196.75 C 330.40 196.92 332.06 197.10 332.25 197.12 C 332.44 197.15 331.60 196.98 331.75 196.88 C 331.90 196.77 332.83 196.50 333.12 196.50 C 333.42 196.50 333.58 196.56 333.50 196.88 C 333.42 197.19 332.81 197.29 332.62 198.38 C 332.44 199.46 332.54 202.25 332.38 203.38 C 332.21 204.50 331.79 204.00 331.62 205.12 C 331.46 206.25 331.54 209.00 331.38 210.12 C 331.21 211.25 330.77 210.65 330.62 211.88 C 330.48 213.10 331.67 210.96 330.50 217.50 C 329.33 224.04 324.69 245.40 323.62 251.12 C 322.56 256.85 319.29 251.75 324.12 251.88 C 328.96 252.00 347.71 252.25 352.62 251.88 C 357.54 251.50 352.60 254.02 353.62 249.62 C 354.65 245.23 357.38 232.54 358.75 225.50 C 360.12 218.46 361.25 210.54 361.88 207.38 C 362.50 204.21 362.21 206.67 362.50 206.50 C 362.79 206.33 363.54 206.56 363.62 206.38 C 363.71 206.19 363.06 206.21 363.00 205.38 C 362.94 204.54 363.06 202.44 363.25 201.38 C 363.44 200.31 363.94 200.08 364.12 199.00 C 364.31 197.92 364.21 195.79 364.38 194.88 C 364.54 193.96 365.00 194.56 365.12 193.50 C 365.25 192.44 364.54 193.12 365.12 188.50 C 365.71 183.88 367.00 177.60 368.62 165.75 C 370.25 153.90 373.33 128.10 374.88 117.38 C 376.42 106.65 376.73 106.58 377.88 101.38 C 379.02 96.17 381.15 89.77 381.75 86.12 C 382.35 82.48 382.00 81.25 381.50 79.50 C 381.00 77.75 379.94 76.90 378.75 75.62 C 377.56 74.35 376.08 73.15 374.38 71.88 C 372.67 70.60 370.73 69.31 368.50 68.00 C 366.27 66.69 364.06 65.33 361.00 64.00 C 357.94 62.67 352.92 60.67 350.12 60.00 Z" id="s-9-f-4"/>
<path d="M 350.12 60.00 C 347.33 59.33 345.73 59.83 344.25 60.00 C 342.77 60.17 342.23 60.44 341.25 61.00 C 340.27 61.56 339.08 62.52 338.38 63.38 C 337.67 64.23 337.21 65.29 337.00 66.12 C 336.79 66.96 336.65 67.04 337.12 68.38 C 337.60 69.71 339.08 71.50 339.88 74.12 C 340.67 76.75 341.40 80.71 341.88 84.12 C 342.35 87.54 342.60 90.10 342.75 94.62 C 342.90 99.15 343.08 102.58 342.75 111.25 C 342.42 119.92 341.65 135.96 340.75 146.62 C 339.85 157.29 338.52 167.12 337.38 175.25 C 336.23 183.38 334.56 191.85 333.88 195.38 C 333.19 198.90 333.79 196.15 333.25 196.38 C 332.71 196.60 330.79 196.62 330.62 196.75 C 330.46 196.88 332.06 197.10 332.25 197.12 C 332.44 197.15 331.60 196.98 331.75 196.88 C 331.90 196.77 332.83 196.50 333.12 196.50 C 333.42 196.50 333.58 196.56 333.50 196.88 C 333.42 197.19 332.81 197.21 332.62 198.38 C 332.44 199.54 332.29 202.90 332.38 203.88 C 332.46 204.85 328.52 204.19 333.12 204.25 C 337.73 204.31 355.08 204.29 360.00 204.25 C 364.92 204.21 361.94 204.88 362.62 204.00 C 363.31 203.12 363.83 200.52 364.12 199.00 C 364.42 197.48 364.21 195.79 364.38 194.88 C 364.54 193.96 364.96 194.90 365.12 193.50 C 365.29 192.10 364.79 191.12 365.38 186.50 C 365.96 181.88 367.04 177.27 368.62 165.75 C 370.21 154.23 373.33 128.10 374.88 117.38 C 376.42 106.65 376.73 106.58 377.88 101.38 C 379.02 96.17 381.15 89.77 381.75 86.12 C 382.35 82.48 382.00 81.25 381.50 79.50 C 381.00 77.75 379.94 76.90 378.75 75.62 C 377.56 74.35 376.08 73.15 374.38 71.88 C 372.67 70.60 370.73 69.31 368.50 68.00 C 366.27 66.69 364.06 65.33 361.00 64.00 C 357.94 62.67 352.92 60.67 350.12 60.00 Z" id="s-9-f-5"/>
<path d="M 343.50 60.12 C 341.92 60.27 342.06 60.50 341.25 61.00 C 340.44 61.50 339.33 62.27 338.62 63.12 C 337.92 63.98 337.27 65.31 337.00 66.12 C 336.73 66.94 336.56 66.79 337.00 68.00 C 337.44 69.21 339.00 71.77 339.62 73.38 C 340.25 74.98 340.38 75.83 340.75 77.62 C 341.12 79.42 341.54 81.29 341.88 84.12 C 342.21 86.96 342.60 90.10 342.75 94.62 C 342.90 99.15 342.90 105.06 342.75 111.25 C 342.60 117.44 342.35 124.42 341.88 131.75 C 341.40 139.08 339.90 151.25 339.88 155.25 C 339.85 159.25 336.81 155.65 341.75 155.75 C 346.69 155.85 364.69 156.69 369.50 155.88 C 374.31 155.06 369.54 158.42 370.62 150.88 C 371.71 143.33 374.79 118.88 376.00 110.62 C 377.21 102.38 376.94 105.25 377.88 101.38 C 378.81 97.50 380.98 90.94 381.62 87.38 C 382.27 83.81 382.23 81.96 381.75 80.00 C 381.27 78.04 379.98 76.98 378.75 75.62 C 377.52 74.27 376.08 73.15 374.38 71.88 C 372.67 70.60 370.73 69.31 368.50 68.00 C 366.27 66.69 363.96 65.31 361.00 64.00 C 358.04 62.69 353.67 60.77 350.75 60.12 C 347.83 59.48 345.08 59.98 343.50 60.12 Z" id="s-9-f-6"/>
<path d="M 339.88 62.00 C 338.81 62.88 337.60 64.38 337.12 65.38 C 336.65 66.38 336.54 66.54 337.00 68.00 C 337.46 69.46 339.10 71.77 339.88 74.12 C 340.65 76.48 341.17 79.25 341.62 82.12 C 342.08 85.00 342.40 87.12 342.62 91.38 C 342.85 95.62 342.56 104.85 343.00 107.62 C 343.44 110.40 339.67 107.98 345.25 108.00 C 350.83 108.02 370.42 111.33 376.50 107.75 C 382.58 104.17 380.88 91.12 381.75 86.50 C 382.62 81.88 382.06 81.60 381.75 80.00 C 381.44 78.40 381.10 78.23 379.88 76.88 C 378.65 75.52 376.31 73.38 374.38 71.88 C 372.44 70.38 371.25 69.52 368.25 67.88 C 365.25 66.23 359.29 63.29 356.38 62.00 C 353.46 60.71 352.04 60.48 350.75 60.12 C 349.46 59.77 349.83 59.88 348.62 59.88 C 347.42 59.88 344.96 59.77 343.50 60.12 C 342.04 60.48 340.94 61.12 339.88 62.00 Z" id="s-9-f-7"/>
</g>
</svg>