<?xml version="1.0" encoding="UTF-8"?>
<svg xmlns="http://www.w3.org/2000/svg" viewBox="0 0 500 500">
<defs>
<path d="M 238.62 106.38 C 238.21 105.35 237.67 104.31 236.38 103.12 C 235.08 101.94 232.75 100.27 230.88 99.25 C 229.00 98.23 227.27 97.69 225.12 97.00 C 222.98 96.31 220.40 95.46 218.00 95.12 C 215.60 94.79 214.08 94.42 210.75 95.00 C 207.42 95.58 200.73 97.96 198.00 98.62 C 195.27 99.29 198.08 98.29 194.38 99.00 C 190.67 99.71 179.19 102.08 175.75 102.88 C 172.31 103.67 176.04 103.27 173.75 103.75 C 171.46 104.23 165.79 105.21 162.00 105.75 C 158.21 106.29 158.33 105.83 151.00 107.00 C 143.67 108.17 124.15 111.77 118.00 112.75 C 111.85 113.73 117.73 112.35 114.12 112.88 C 110.52 113.40 102.52 115.17 96.38 115.88 C 90.23 116.58 83.21 116.60 77.25 117.12 C 71.29 117.65 64.17 118.52 60.62 119.00 C 57.08 119.48 57.23 119.65 56.00 120.00 C 54.77 120.35 53.75 120.56 53.25 121.12 C 52.75 121.69 52.69 122.48 53.00 123.38 C 53.31 124.27 54.04 125.42 55.12 126.50 C 56.21 127.58 58.19 129.02 59.50 129.88 C 60.81 130.73 61.71 131.15 63.00 131.62 C 64.29 132.10 64.58 132.38 67.25 132.75 C 69.92 133.12 75.04 133.71 79.00 133.88 C 82.96 134.04 86.88 133.92 91.00 133.75 C 95.12 133.58 94.15 133.88 103.75 132.88 C 113.35 131.88 138.02 129.04 148.62 127.75 C 159.23 126.46 163.19 125.60 167.38 125.12 C 171.56 124.65 170.08 125.27 173.75 124.88 C 177.42 124.48 182.85 123.79 189.38 122.75 C 195.90 121.71 206.77 119.81 212.88 118.62 C 218.98 117.44 222.67 116.48 226.00 115.62 C 229.33 114.77 230.88 114.33 232.88 113.50 C 234.88 112.67 237.00 111.33 238.00 110.62 C 239.00 109.92 238.77 109.96 238.88 109.25 C 238.98 108.54 239.04 107.40 238.62 106.38 Z" id="s-0-f-0"/>
<clipPath id="c-s-0"><use href="#s-0-f-0"/></clipPath>
<path d="M 89.12 58.00 C 87.38 58.21 87.19 58.79 86.50 59.38 C 85.81 59.96 85.23 60.10 85.00 61.50 C 84.77 62.90 84.77 65.21 85.12 67.75 C 85.48 70.29 86.02 72.60 87.12 76.75 C 88.23 80.90 90.17 86.29 91.75 92.62 C 93.33 98.96 95.81 110.29 96.62 114.75 C 97.44 119.21 96.48 118.29 96.62 119.38 C 96.77 120.46 97.17 119.38 97.50 121.25 C 97.83 123.12 98.23 128.60 98.62 130.62 C 99.02 132.65 98.65 127.17 99.88 133.38 C 101.10 139.58 104.65 161.10 106.00 167.88 C 107.35 174.65 107.21 172.12 108.00 174.00 C 108.79 175.88 109.81 177.77 110.75 179.12 C 111.69 180.48 112.94 181.52 113.62 182.12 C 114.31 182.73 114.42 182.65 114.88 182.75 C 115.33 182.85 115.71 183.19 116.38 182.75 C 117.04 182.31 118.12 181.35 118.88 180.12 C 119.62 178.90 120.52 178.44 120.88 175.38 C 121.23 172.31 121.31 168.77 121.00 161.75 C 120.69 154.73 119.31 139.33 119.00 133.25 C 118.69 127.17 119.25 127.04 119.12 125.25 C 119.00 123.46 118.42 123.98 118.25 122.50 C 118.08 121.02 118.31 117.79 118.12 116.38 C 117.94 114.96 117.46 116.67 117.12 114.00 C 116.79 111.33 116.35 108.02 116.12 100.38 C 115.90 92.73 116.21 74.08 115.75 68.12 C 115.29 62.17 114.15 65.50 113.38 64.62 C 112.60 63.75 112.21 63.48 111.12 62.88 C 110.04 62.27 109.23 61.79 106.88 61.00 C 104.52 60.21 99.96 58.62 97.00 58.12 C 94.04 57.62 90.88 57.79 89.12 58.00 Z" id="s-1-f-0"/>
<clipPath id="c-s-1"><use href="#s-1-f-0"/></clipPath>
<path d="M 174.62 40.00 C 173.06 40.12 173.00 40.50 172.38 40.88 C 171.75 41.25 171.29 41.56 170.88 42.25 C 170.46 42.94 170.02 44.19 169.88 45.00 C 169.73 45.81 169.71 46.23 170.00 47.12 C 170.29 48.02 171.15 49.00 171.62 50.38 C 172.10 51.75 172.52 53.27 172.88 55.38 C 173.23 57.48 173.60 59.58 173.75 63.00 C 173.90 66.42 173.90 69.21 173.75 75.88 C 173.60 82.54 173.21 97.83 172.88 103.00 C 172.54 108.17 171.98 105.00 171.75 106.88 C 171.52 108.75 171.69 112.40 171.50 114.25 C 171.31 116.10 170.75 115.19 170.62 118.00 C 170.50 120.81 171.02 125.52 170.75 131.12 C 170.48 136.73 168.94 148.00 169.00 151.62 C 169.06 155.25 168.23 151.98 171.12 152.88 C 174.02 153.77 183.65 156.75 186.38 157.00 C 189.10 157.25 186.56 159.42 187.50 154.38 C 188.44 149.33 191.04 132.29 192.00 126.75 C 192.96 121.21 192.92 122.23 193.25 121.12 C 193.58 120.02 193.81 121.08 194.00 120.12 C 194.19 119.17 194.19 116.38 194.38 115.38 C 194.56 114.38 194.96 115.04 195.12 114.12 C 195.29 113.21 195.21 110.83 195.38 109.88 C 195.54 108.92 195.98 109.31 196.12 108.38 C 196.27 107.44 196.08 105.23 196.25 104.25 C 196.42 103.27 196.98 103.56 197.12 102.50 C 197.27 101.44 196.69 100.54 197.12 97.88 C 197.56 95.21 199.10 89.75 199.75 86.50 C 200.40 83.25 200.42 81.12 201.00 78.38 C 201.58 75.62 202.12 72.92 203.25 70.00 C 204.38 67.08 206.98 62.75 207.75 60.88 C 208.52 59.00 208.17 59.81 207.88 58.75 C 207.58 57.69 207.06 55.98 206.00 54.50 C 204.94 53.02 203.48 51.44 201.50 49.88 C 199.52 48.31 196.40 46.42 194.12 45.12 C 191.85 43.83 189.94 42.96 187.88 42.12 C 185.81 41.29 183.96 40.48 181.75 40.12 C 179.54 39.77 176.19 39.88 174.62 40.00 Z" id="s-2-f-0"/>
<clipPath id="c-s-2"><use href="#s-2-f-0"/></clipPath>
<path d="M 193.88 164.12 C 193.42 162.94 191.96 161.17 190.62 159.75 C 189.29 158.33 187.21 156.35 185.88 155.62 C 184.54 154.90 183.38 155.54 182.62 155.38 C 181.88 155.21 181.96 154.79 181.38 154.62 C 180.79 154.46 179.67 154.54 179.12 154.38 C 178.58 154.21 179.33 153.96 178.12 153.62 C 176.92 153.29 173.10 152.71 171.88 152.38 C 170.65 152.04 171.71 151.69 170.75 151.62 C 169.79 151.56 168.67 151.60 166.12 152.00 C 163.58 152.40 159.65 153.04 155.50 154.00 C 151.35 154.96 147.00 156.60 141.25 157.75 C 135.50 158.90 124.46 160.29 121.00 160.88 C 117.54 161.46 120.58 158.98 120.50 161.25 C 120.42 163.52 120.35 172.23 120.50 174.50 C 120.65 176.77 119.21 174.83 121.38 174.88 C 123.54 174.92 126.25 175.44 133.50 174.75 C 140.75 174.06 157.98 171.71 164.88 170.75 C 171.77 169.79 170.46 169.48 174.88 169.00 C 179.29 168.52 188.29 168.23 191.38 167.88 C 194.46 167.52 192.96 167.50 193.38 166.88 C 193.79 166.25 194.33 165.31 193.88 164.12 Z" id="s-3-f-0"/>
<clipPath id="c-s-3"><use href="#s-3-f-0"/></clipPath>
<path d="M 269.88 196.25 C 269.69 195.50 269.31 194.56 268.62 193.62 C 267.94 192.69 268.10 192.40 265.75 190.62 C 263.40 188.85 258.60 184.92 254.50 183.00 C 250.40 181.08 244.33 179.79 241.12 179.12 C 237.92 178.46 237.38 178.83 235.25 179.00 C 233.12 179.17 232.67 179.17 228.38 180.12 C 224.08 181.08 223.33 182.00 209.50 184.75 C 195.67 187.50 165.46 193.12 145.38 196.62 C 125.29 200.12 107.67 202.88 89.00 205.75 C 70.33 208.62 43.65 212.17 33.38 213.88 C 23.10 215.58 28.56 215.46 27.38 216.00 C 26.19 216.54 26.50 216.69 26.25 217.12 C 26.00 217.56 25.67 217.96 25.88 218.62 C 26.08 219.29 26.71 220.27 27.50 221.12 C 28.29 221.98 28.44 222.50 30.62 223.75 C 32.81 225.00 37.90 227.46 40.62 228.62 C 43.35 229.79 45.19 230.25 47.00 230.75 C 48.81 231.25 49.58 231.46 51.50 231.62 C 53.42 231.79 49.90 233.50 58.50 231.75 C 67.10 230.00 90.69 223.92 103.12 221.12 C 115.56 218.33 122.31 216.85 133.12 215.00 C 143.94 213.15 156.33 211.50 168.00 210.00 C 179.67 208.50 191.52 207.17 203.12 206.00 C 214.73 204.83 227.67 203.73 237.62 203.00 C 247.58 202.27 258.06 202.00 262.88 201.62 C 267.69 201.25 265.54 201.10 266.50 200.75 C 267.46 200.40 268.08 199.94 268.62 199.50 C 269.17 199.06 269.54 198.67 269.75 198.12 C 269.96 197.58 270.06 197.00 269.88 196.25 Z" id="s-4-f-0"/>
<clipPath id="c-s-4"><use href="#s-4-f-0"/></clipPath>
<path d="M 63.00 249.00 C 61.25 249.12 61.40 249.56 60.88 249.88 C 60.35 250.19 60.19 250.44 59.88 250.88 C 59.56 251.31 59.12 251.75 59.00 252.50 C 58.88 253.25 57.83 253.50 59.12 255.38 C 60.42 257.25 65.15 261.85 66.75 263.75 C 68.35 265.65 67.92 265.10 68.75 266.75 C 69.58 268.40 70.42 268.92 71.75 273.62 C 73.08 278.33 74.58 283.25 76.75 295.00 C 78.92 306.75 83.38 335.15 84.75 344.12 C 86.12 353.10 84.79 347.38 85.00 348.88 C 85.21 350.38 85.48 351.58 86.00 353.12 C 86.52 354.67 87.08 356.17 88.12 358.12 C 89.17 360.08 91.15 363.44 92.25 364.88 C 93.35 366.31 93.88 366.48 94.75 366.75 C 95.62 367.02 96.52 366.98 97.50 366.50 C 98.48 366.02 99.71 365.02 100.62 363.88 C 101.54 362.73 102.44 362.77 103.00 359.62 C 103.56 356.48 104.06 351.06 104.00 345.00 C 103.94 338.94 103.12 328.73 102.62 323.25 C 102.12 317.77 101.29 314.92 101.00 312.12 C 100.71 309.33 101.10 309.25 100.88 306.50 C 100.65 303.75 100.27 299.77 99.62 295.62 C 98.98 291.48 97.62 286.56 97.00 281.62 C 96.38 276.69 97.04 269.75 95.88 266.00 C 94.71 262.25 92.15 261.46 90.00 259.12 C 87.85 256.79 84.50 253.21 83.00 252.00 C 81.50 250.79 82.10 252.19 81.00 251.88 C 79.90 251.56 77.98 250.58 76.38 250.12 C 74.77 249.67 73.60 249.31 71.38 249.12 C 69.15 248.94 64.75 248.88 63.00 249.00 Z" id="s-5-f-0"/>
<clipPath id="c-s-5"><use href="#s-5-f-0"/></clipPath>
<path d="M 219.75 351.62 C 220.96 350.02 219.25 358.73 222.62 346.12 C 226.00 333.52 236.46 289.42 240.00 276.00 C 243.54 262.58 242.44 268.75 243.88 265.62 C 245.31 262.50 247.81 259.27 248.62 257.25 C 249.44 255.23 248.88 254.48 248.75 253.50 C 248.62 252.52 248.31 252.12 247.88 251.38 C 247.44 250.62 247.33 250.21 246.12 249.00 C 244.92 247.79 242.60 245.65 240.62 244.12 C 238.65 242.60 236.83 241.38 234.25 239.88 C 231.67 238.38 228.62 236.75 225.12 235.12 C 221.62 233.50 215.85 231.00 213.25 230.12 C 210.65 229.25 212.29 229.56 209.50 229.88 C 206.71 230.19 200.65 231.15 196.50 232.00 C 192.35 232.85 188.02 234.04 184.62 235.00 C 181.23 235.96 184.48 235.79 176.12 237.75 C 167.77 239.71 144.96 244.75 134.50 246.75 C 124.04 248.75 121.60 248.92 113.38 249.75 C 105.15 250.58 90.25 251.31 85.12 251.75 C 80.00 252.19 81.73 250.92 82.62 252.38 C 83.52 253.83 88.46 258.27 90.50 260.50 C 92.54 262.73 94.00 264.83 94.88 265.75 C 95.75 266.67 93.75 266.00 95.75 266.00 C 97.75 266.00 102.92 265.98 106.88 265.75 C 110.83 265.52 115.27 265.15 119.50 264.62 C 123.73 264.10 128.98 263.23 132.25 262.62 C 135.52 262.02 137.42 261.29 139.12 261.00 C 140.83 260.71 138.58 261.42 142.50 260.88 C 146.42 260.33 154.08 259.23 162.62 257.75 C 171.17 256.27 186.94 253.15 193.75 252.00 C 200.56 250.85 201.40 250.94 203.50 250.88 C 205.60 250.81 205.52 251.02 206.38 251.62 C 207.23 252.23 208.12 253.52 208.62 254.50 C 209.12 255.48 209.17 256.29 209.38 257.50 C 209.58 258.71 209.81 259.88 209.88 261.75 C 209.94 263.62 209.98 265.19 209.75 268.75 C 209.52 272.31 209.00 278.73 208.50 283.12 C 208.00 287.52 207.04 292.40 206.75 295.12 C 206.46 297.85 207.42 294.98 206.75 299.50 C 206.08 304.02 203.92 316.31 202.75 322.25 C 201.58 328.19 200.08 330.40 199.75 335.12 C 199.42 339.85 200.38 347.73 200.75 350.62 C 201.12 353.52 201.23 351.65 202.00 352.50 C 202.77 353.35 204.23 355.02 205.38 355.75 C 206.52 356.48 207.69 356.71 208.88 356.88 C 210.06 357.04 211.42 356.94 212.50 356.75 C 213.58 356.56 214.17 356.60 215.38 355.75 C 216.58 354.90 218.54 353.23 219.75 351.62 Z" id="s-6-f-0"/>
<clipPath id="c-s-6"><use href="#s-6-f-0"/></clipPath>
<path d="M 208.25 289.25 C 207.71 288.10 206.15 287.71 204.75 287.00 C 203.35 286.29 202.75 285.65 199.88 285.00 C 197.00 284.35 190.60 283.48 187.50 283.12 C 184.40 282.77 184.38 282.48 181.25 282.88 C 178.12 283.27 171.65 285.02 168.75 285.50 C 165.85 285.98 168.19 284.83 163.88 285.75 C 159.56 286.67 146.54 290.02 142.88 291.00 C 139.21 291.98 143.56 291.21 141.88 291.62 C 140.19 292.04 139.54 292.44 132.75 293.50 C 125.96 294.56 106.67 297.12 101.12 298.00 C 95.58 298.88 99.75 297.58 99.50 298.75 C 99.25 299.92 99.48 303.10 99.62 305.00 C 99.77 306.90 100.19 309.15 100.38 310.12 C 100.56 311.10 99.88 310.60 100.75 310.88 C 101.62 311.15 102.85 311.60 105.62 311.75 C 108.40 311.90 112.31 312.21 117.38 311.75 C 122.44 311.29 131.67 309.46 136.00 309.00 C 140.33 308.54 138.67 309.69 143.38 309.00 C 148.08 308.31 155.67 306.27 164.25 304.88 C 172.83 303.48 188.38 301.65 194.88 300.62 C 201.38 299.60 201.19 299.38 203.25 298.75 C 205.31 298.12 206.46 297.69 207.25 296.88 C 208.04 296.06 207.83 295.15 208.00 293.88 C 208.17 292.60 208.79 290.40 208.25 289.25 Z" id="s-7-f-0"/>
<clipPath id="c-s-7"><use href="#s-7-f-0"/></clipPath>
<path d="M 161.25 210.75 C 159.65 209.90 158.58 210.52 157.50 210.62 C 156.42 210.73 155.90 211.21 154.75 211.38 C 153.60 211.54 151.71 211.46 150.62 211.62 C 149.54 211.79 150.50 212.04 148.25 212.38 C 146.00 212.71 139.52 213.23 137.12 213.62 C 134.73 214.02 134.40 214.29 133.88 214.75 C 133.35 215.21 133.50 215.27 134.00 216.38 C 134.50 217.48 136.08 219.17 136.88 221.38 C 137.67 223.58 138.27 225.85 138.75 229.62 C 139.23 233.40 139.62 238.88 139.75 244.00 C 139.88 249.12 139.33 253.10 139.50 260.38 C 139.67 267.65 140.56 280.52 140.75 287.62 C 140.94 294.73 140.44 299.31 140.62 303.00 C 140.81 306.69 141.52 304.21 141.88 309.75 C 142.23 315.29 142.44 331.38 142.75 336.25 C 143.06 341.12 140.94 339.06 143.75 339.00 C 146.56 338.94 156.44 336.60 159.62 335.88 C 162.81 335.15 162.17 339.71 162.88 334.62 C 163.58 329.54 163.50 311.50 163.88 305.38 C 164.25 299.25 164.94 301.83 165.12 297.88 C 165.31 293.92 164.88 288.31 165.00 281.62 C 165.12 274.94 165.52 262.94 165.88 257.75 C 166.23 252.56 166.92 254.44 167.12 250.50 C 167.33 246.56 166.85 238.48 167.12 234.12 C 167.40 229.77 168.46 226.85 168.75 224.38 C 169.04 221.90 168.90 220.31 168.88 219.25 C 168.85 218.19 168.92 218.58 168.62 218.00 C 168.33 217.42 168.35 216.96 167.12 215.75 C 165.90 214.54 162.85 211.60 161.25 210.75 Z" id="s-8-f-0"/>
<clipPath id="c-s-8"><use href="#s-8-f-0"/></clipPath>
<path d="M 200.00 334.75 C 199.19 331.88 198.08 333.73 196.38 333.12 C 194.67 332.52 192.12 331.48 189.75 331.12 C 187.38 330.77 186.44 330.38 182.12 331.00 C 177.81 331.62 167.52 334.27 163.88 334.88 C 160.23 335.48 161.17 334.54 160.25 334.62 C 159.33 334.71 160.15 335.02 158.38 335.38 C 156.60 335.73 151.29 336.42 149.62 336.75 C 147.96 337.08 149.29 337.21 148.38 337.38 C 147.46 337.54 145.10 337.50 144.12 337.75 C 143.15 338.00 144.23 338.38 142.50 338.88 C 140.77 339.38 140.19 339.75 133.75 340.75 C 127.31 341.75 109.04 343.29 103.88 344.88 C 98.71 346.46 102.98 347.81 102.75 350.25 C 102.52 352.69 101.90 357.75 102.50 359.50 C 103.10 361.25 103.67 360.56 106.38 360.75 C 109.08 360.94 107.62 361.81 118.75 360.62 C 129.88 359.44 162.52 355.06 173.12 353.62 C 183.73 352.19 177.79 352.48 182.38 352.00 C 186.96 351.52 197.48 351.02 200.62 350.75 C 203.77 350.48 201.35 353.04 201.25 350.38 C 201.15 347.71 200.81 337.62 200.00 334.75 Z" id="s-9-f-0"/>
<clipPath id="c-s-9"><use href="#s-9-f-0"/></clipPath>
<path d="M 139.75 390.75 C 138.98 389.54 138.06 388.02 136.12 386.38 C 134.19 384.73 132.02 382.58 128.12 380.88 C 124.23 379.17 116.00 376.96 112.75 376.12 C 109.50 375.29 109.85 375.85 108.62 375.88 C 107.40 375.90 106.17 375.96 105.38 376.25 C 104.58 376.54 104.19 376.42 103.88 377.62 C 103.56 378.83 103.81 381.60 103.50 383.50 C 103.19 385.40 103.12 386.56 102.00 389.00 C 100.88 391.44 98.85 394.88 96.75 398.12 C 94.65 401.38 91.88 405.27 89.38 408.50 C 86.88 411.73 85.85 413.02 81.75 417.50 C 77.65 421.98 69.48 430.71 64.75 435.38 C 60.02 440.04 56.56 442.88 53.38 445.50 C 50.19 448.12 47.02 449.94 45.62 451.12 C 44.23 452.31 44.85 452.19 45.00 452.62 C 45.15 453.06 45.31 453.56 46.50 453.75 C 47.69 453.94 49.58 454.27 52.12 453.75 C 54.67 453.23 58.42 451.98 61.75 450.62 C 65.08 449.27 68.88 447.40 72.12 445.62 C 75.38 443.85 79.54 440.98 81.25 440.00 C 82.96 439.02 80.75 440.62 82.38 439.75 C 84.00 438.88 87.21 437.23 91.00 434.75 C 94.79 432.27 100.06 428.79 105.12 424.88 C 110.19 420.96 117.46 414.40 121.38 411.25 C 125.29 408.10 125.69 407.94 128.62 406.00 C 131.56 404.06 136.96 401.12 139.00 399.62 C 141.04 398.12 140.58 398.00 140.88 397.00 C 141.17 396.00 140.94 394.67 140.75 393.62 C 140.56 392.58 140.52 391.96 139.75 390.75 Z" id="s-10-f-0"/>
<clipPath id="c-s-10"><use href="#s-10-f-0"/></clipPath>
<path d="M 176.75 372.00 C 175.90 372.10 176.15 372.35 176.00 372.75 C 175.85 373.15 175.73 373.71 175.88 374.38 C 176.02 375.04 175.38 374.88 176.88 376.75 C 178.38 378.62 182.23 382.33 184.88 385.62 C 187.52 388.92 188.40 390.10 192.75 396.50 C 197.10 402.90 206.65 417.71 211.00 424.00 C 215.35 430.29 216.44 431.44 218.88 434.25 C 221.31 437.06 223.52 439.12 225.62 440.88 C 227.73 442.62 229.94 444.10 231.50 444.75 C 233.06 445.40 233.94 444.98 235.00 444.75 C 236.06 444.52 236.79 444.23 237.88 443.38 C 238.96 442.52 240.52 441.04 241.50 439.62 C 242.48 438.21 243.21 436.52 243.75 434.88 C 244.29 433.23 244.58 431.79 244.75 429.75 C 244.92 427.71 244.92 424.77 244.75 422.62 C 244.58 420.48 244.29 418.85 243.75 416.88 C 243.21 414.90 242.21 412.38 241.50 410.75 C 240.79 409.12 240.29 408.29 239.50 407.12 C 238.71 405.96 238.19 405.27 236.75 403.75 C 235.31 402.23 234.12 400.65 230.88 398.00 C 227.62 395.35 220.69 390.21 217.25 387.88 C 213.81 385.54 213.50 385.62 210.25 384.00 C 207.00 382.38 201.10 379.60 197.75 378.12 C 194.40 376.65 192.90 376.12 190.12 375.12 C 187.35 374.12 183.35 372.65 181.12 372.12 C 178.90 371.60 177.60 371.90 176.75 372.00 Z" id="s-11-f-0"/>
<clipPath id="c-s-11"><use href="#s-11-f-0"/></clipPath>
<path d="M 363.75 44.75 C 361.94 43.33 359.08 40.77 355.50 39.00 C 351.92 37.23 345.25 35.12 342.25 34.12 C 339.25 33.12 338.88 33.21 337.50 33.00 C 336.12 32.79 334.85 32.88 334.00 32.88 C 333.15 32.88 333.06 32.73 332.38 33.00 C 331.69 33.27 330.44 34.00 329.88 34.50 C 329.31 35.00 329.35 33.90 329.00 36.00 C 328.65 38.10 328.67 42.98 327.75 47.12 C 326.83 51.27 324.85 57.04 323.50 60.88 C 322.15 64.71 322.10 64.75 319.62 70.12 C 317.15 75.50 311.60 87.21 308.62 93.12 C 305.65 99.04 304.19 101.44 301.75 105.62 C 299.31 109.81 295.27 116.06 294.00 118.25 C 292.73 120.44 292.58 118.48 294.12 118.75 C 295.67 119.02 300.94 119.69 303.25 119.88 C 305.56 120.06 305.56 121.56 308.00 119.88 C 310.44 118.19 313.02 115.06 317.88 109.75 C 322.73 104.44 331.25 94.92 337.12 88.00 C 343.00 81.08 349.58 72.46 353.12 68.25 C 356.67 64.04 356.10 64.92 358.38 62.75 C 360.65 60.58 365.19 56.81 366.75 55.25 C 368.31 53.69 367.58 54.25 367.75 53.38 C 367.92 52.50 367.98 50.98 367.75 50.00 C 367.52 49.02 367.04 48.38 366.38 47.50 C 365.71 46.62 365.56 46.17 363.75 44.75 Z" id="s-12-f-0"/>
<clipPath id="c-s-12"><use href="#s-12-f-0"/></clipPath>
<path d="M 274.50 115.00 C 272.79 115.19 272.46 115.69 271.75 116.12 C 271.04 116.56 270.54 116.69 270.25 117.62 C 269.96 118.56 269.08 119.25 270.00 121.75 C 270.92 124.25 274.31 129.31 275.75 132.62 C 277.19 135.94 277.96 138.42 278.62 141.62 C 279.29 144.83 279.56 148.21 279.75 151.88 C 279.94 155.54 279.88 157.83 279.75 163.62 C 279.62 169.42 279.19 176.62 279.00 186.62 C 278.81 196.62 278.81 214.73 278.62 223.62 C 278.44 232.52 278.52 232.35 277.88 240.00 C 277.23 247.65 275.73 262.56 274.75 269.50 C 273.77 276.44 272.46 278.96 272.00 281.62 C 271.54 284.29 271.81 284.08 272.00 285.50 C 272.19 286.92 272.29 287.81 273.12 290.12 C 273.96 292.44 275.46 296.79 277.00 299.38 C 278.54 301.96 280.94 304.25 282.38 305.62 C 283.81 307.00 284.62 307.25 285.62 307.62 C 286.62 308.00 287.48 308.02 288.38 307.88 C 289.27 307.73 289.85 307.48 291.00 306.75 C 292.15 306.02 294.42 304.23 295.25 303.50 C 296.08 302.77 295.56 305.21 296.00 302.38 C 296.44 299.54 297.25 292.65 297.88 286.50 C 298.50 280.35 299.38 275.12 299.75 265.50 C 300.12 255.88 299.92 237.52 300.12 228.75 C 300.33 219.98 300.88 218.29 301.00 212.88 C 301.12 207.46 300.71 203.38 300.88 196.25 C 301.04 189.12 301.81 176.81 302.00 170.12 C 302.19 163.44 301.88 159.42 302.00 156.12 C 302.12 152.83 302.60 152.52 302.75 150.38 C 302.90 148.23 302.56 145.44 302.88 143.25 C 303.19 141.06 304.29 139.00 304.62 137.25 C 304.96 135.50 306.33 135.46 304.88 132.75 C 303.42 130.04 297.92 123.46 295.88 121.00 C 293.83 118.54 294.06 118.81 292.62 118.00 C 291.19 117.19 289.02 116.62 287.25 116.12 C 285.48 115.62 284.12 115.19 282.00 115.00 C 279.88 114.81 276.21 114.81 274.50 115.00 Z" id="s-13-f-0"/>
<clipPath id="c-s-13"><use href="#s-13-f-0"/></clipPath>
<path d="M 293.88 119.12 C 293.62 119.33 292.00 117.42 293.75 119.75 C 295.50 122.08 300.58 131.12 304.38 133.12 C 308.17 135.12 312.69 132.31 316.50 131.75 C 320.31 131.19 320.94 131.21 327.25 129.75 C 333.56 128.29 346.60 124.81 354.38 123.00 C 362.15 121.19 369.21 119.71 373.88 118.88 C 378.54 118.04 380.54 118.00 382.38 118.00 C 384.21 118.00 384.17 118.50 384.88 118.88 C 385.58 119.25 386.15 119.75 386.62 120.25 C 387.10 120.75 387.40 120.90 387.75 121.88 C 388.10 122.85 388.58 124.33 388.75 126.12 C 388.92 127.92 388.90 129.83 388.75 132.62 C 388.60 135.42 388.35 139.17 387.88 142.88 C 387.40 146.58 386.23 152.06 385.88 154.88 C 385.52 157.69 386.44 155.21 385.75 159.75 C 385.06 164.29 382.73 177.38 381.75 182.12 C 380.77 186.88 380.21 186.62 379.88 188.25 C 379.54 189.88 379.58 189.04 379.75 191.88 C 379.92 194.71 380.50 202.67 380.88 205.25 C 381.25 207.83 381.40 206.54 382.00 207.38 C 382.60 208.21 383.69 209.52 384.50 210.25 C 385.31 210.98 385.42 211.54 386.88 211.75 C 388.33 211.96 391.54 211.83 393.25 211.50 C 394.96 211.17 395.75 210.75 397.12 209.75 C 398.50 208.75 400.25 207.12 401.50 205.50 C 402.75 203.88 401.02 210.94 404.62 200.00 C 408.23 189.06 419.38 151.29 423.12 139.88 C 426.88 128.46 425.88 133.67 427.12 131.50 C 428.38 129.33 429.83 128.25 430.62 126.88 C 431.42 125.50 431.69 124.33 431.88 123.25 C 432.06 122.17 432.19 121.44 431.75 120.38 C 431.31 119.31 430.65 118.29 429.25 116.88 C 427.85 115.46 425.35 113.35 423.38 111.88 C 421.40 110.40 421.33 109.81 417.38 108.00 C 413.42 106.19 403.75 102.50 399.62 101.00 C 395.50 99.50 394.58 99.33 392.62 99.00 C 390.67 98.67 389.56 98.81 387.88 99.00 C 386.19 99.19 385.56 99.27 382.50 100.12 C 379.44 100.98 373.85 102.67 369.50 104.12 C 365.15 105.58 361.44 107.27 356.38 108.88 C 351.31 110.48 344.23 112.44 339.12 113.75 C 334.02 115.06 330.77 115.77 325.75 116.75 C 320.73 117.73 313.00 119.31 309.00 119.62 C 305.00 119.94 304.04 118.81 301.75 118.62 C 299.46 118.44 296.56 118.42 295.25 118.50 C 293.94 118.58 294.12 118.92 293.88 119.12 Z" id="s-14-f-0"/>
<clipPath id="c-s-14"><use href="#s-14-f-0"/></clipPath>
<path d="M 387.25 150.25 C 386.94 149.40 386.08 149.25 385.25 148.88 C 384.42 148.50 384.69 148.46 382.25 148.00 C 379.81 147.54 373.58 146.46 370.62 146.12 C 367.67 145.79 368.77 145.23 364.50 146.00 C 360.23 146.77 350.69 149.46 345.00 150.75 C 339.31 152.04 337.58 152.56 330.38 153.75 C 323.17 154.94 306.56 155.15 301.75 157.88 C 296.94 160.60 301.46 167.98 301.50 170.12 C 301.54 172.27 300.65 170.62 302.00 170.75 C 303.35 170.88 306.02 171.06 309.62 170.88 C 313.23 170.69 316.23 170.75 323.62 169.62 C 331.02 168.50 348.21 165.10 354.00 164.12 C 359.79 163.15 354.31 164.60 358.38 163.75 C 362.44 162.90 374.10 159.88 378.38 159.00 C 382.65 158.12 382.69 158.73 384.00 158.50 C 385.31 158.27 385.73 158.38 386.25 157.62 C 386.77 156.88 386.96 155.23 387.12 154.00 C 387.29 152.77 387.56 151.10 387.25 150.25 Z" id="s-15-f-0"/>
<clipPath id="c-s-15"><use href="#s-15-f-0"/></clipPath>
<path d="M 380.12 189.00 C 378.85 187.52 375.81 187.33 373.50 187.00 C 371.19 186.67 372.81 185.88 366.25 187.00 C 359.69 188.12 345.00 191.77 334.12 193.75 C 323.25 195.73 306.60 197.96 301.00 198.88 C 295.40 199.79 300.58 196.81 300.50 199.25 C 300.42 201.69 300.44 211.06 300.50 213.50 C 300.56 215.94 299.83 213.85 300.88 213.88 C 301.92 213.90 304.38 213.94 306.75 213.62 C 309.12 213.31 307.33 212.98 315.12 212.00 C 322.92 211.02 345.40 208.75 353.50 207.75 C 361.60 206.75 359.12 206.54 363.75 206.00 C 368.38 205.46 378.35 206.19 381.25 204.50 C 384.15 202.81 381.31 198.46 381.12 195.88 C 380.94 193.29 381.40 190.48 380.12 189.00 Z" id="s-16-f-0"/>
<clipPath id="c-s-16"><use href="#s-16-f-0"/></clipPath>
<path d="M 408.88 235.12 C 408.79 234.56 408.88 234.52 408.25 233.88 C 407.62 233.23 406.88 232.23 405.12 231.25 C 403.38 230.27 401.02 228.85 397.75 228.00 C 394.48 227.15 388.83 226.46 385.50 226.12 C 382.17 225.79 380.44 225.56 377.75 226.00 C 375.06 226.44 375.60 227.12 369.38 228.75 C 363.15 230.38 348.65 233.92 340.38 235.75 C 332.10 237.58 326.52 238.56 319.75 239.75 C 312.98 240.94 303.12 240.08 299.75 242.88 C 296.38 245.67 299.42 254.17 299.50 256.50 C 299.58 258.83 298.48 256.81 300.25 256.88 C 302.02 256.94 306.48 257.08 310.12 256.88 C 313.77 256.67 313.56 256.85 322.12 255.62 C 330.69 254.40 351.38 251.27 361.50 249.50 C 371.62 247.73 376.15 246.31 382.88 245.00 C 389.60 243.69 398.00 242.48 401.88 241.62 C 405.75 240.77 404.98 240.60 406.12 239.88 C 407.27 239.15 408.29 238.04 408.75 237.25 C 409.21 236.46 408.96 235.69 408.88 235.12 Z" id="s-17-f-0"/>
<clipPath id="c-s-17"><use href="#s-17-f-0"/></clipPath>
<path d="M 298.25 274.12 C 297.79 273.19 297.75 274.12 297.62 275.62 C 297.50 277.12 297.85 279.15 297.50 283.12 C 297.15 287.10 295.83 296.29 295.50 299.50 C 295.17 302.71 295.35 301.83 295.50 302.38 C 295.65 302.92 294.88 303.31 296.38 302.75 C 297.88 302.19 300.79 300.29 304.50 299.00 C 308.21 297.71 310.85 296.67 318.62 295.00 C 326.40 293.33 342.15 290.48 351.12 289.00 C 360.10 287.52 366.33 286.81 372.50 286.12 C 378.67 285.44 380.48 285.23 388.12 284.88 C 395.77 284.52 412.52 284.00 418.38 284.00 C 424.23 284.00 422.04 284.54 423.25 284.88 C 424.46 285.21 424.75 285.42 425.62 286.00 C 426.50 286.58 427.81 287.67 428.50 288.38 C 429.19 289.08 429.23 288.94 429.75 290.25 C 430.27 291.56 431.29 293.98 431.62 296.25 C 431.96 298.52 432.04 295.67 431.75 303.88 C 431.46 312.08 430.54 334.52 429.88 345.50 C 429.21 356.48 428.44 363.81 427.75 369.75 C 427.06 375.69 426.58 377.35 425.75 381.12 C 424.92 384.90 423.62 389.42 422.75 392.38 C 421.88 395.33 421.69 396.15 420.50 398.88 C 419.31 401.60 417.44 405.79 415.62 408.75 C 413.81 411.71 411.35 414.62 409.62 416.62 C 407.90 418.62 406.58 419.73 405.25 420.75 C 403.92 421.77 402.65 422.44 401.62 422.75 C 400.60 423.06 401.27 423.12 399.12 422.62 C 396.98 422.12 395.48 422.02 388.75 419.75 C 382.02 417.48 364.06 410.75 358.75 409.00 C 353.44 407.25 357.35 408.88 356.88 409.25 C 356.40 409.62 356.00 410.56 355.88 411.25 C 355.75 411.94 352.31 408.33 356.12 413.38 C 359.94 418.42 373.62 434.83 378.75 441.50 C 383.88 448.17 384.19 450.04 386.88 453.38 C 389.56 456.71 392.79 459.58 394.88 461.50 C 396.96 463.42 398.17 464.15 399.38 464.88 C 400.58 465.60 401.02 465.75 402.12 465.88 C 403.23 466.00 403.98 466.29 406.00 465.62 C 408.02 464.96 411.88 463.19 414.25 461.88 C 416.62 460.56 418.29 459.25 420.25 457.75 C 422.21 456.25 423.58 455.31 426.00 452.88 C 428.42 450.44 432.81 445.42 434.75 443.12 C 436.69 440.83 436.31 441.29 437.62 439.12 C 438.94 436.96 440.94 433.83 442.62 430.12 C 444.31 426.42 446.23 421.58 447.75 416.88 C 449.27 412.17 450.44 407.94 451.75 401.88 C 453.06 395.81 454.46 388.42 455.62 380.50 C 456.79 372.58 457.88 363.60 458.75 354.38 C 459.62 345.15 460.33 331.40 460.88 325.12 C 461.42 318.85 461.31 320.19 462.00 316.75 C 462.69 313.31 464.19 307.33 465.00 304.50 C 465.81 301.67 465.75 302.12 466.88 299.75 C 468.00 297.38 470.77 292.42 471.75 290.25 C 472.73 288.08 472.58 288.00 472.75 286.75 C 472.92 285.50 473.02 283.75 472.75 282.75 C 472.48 281.75 472.02 281.56 471.12 280.75 C 470.23 279.94 469.75 279.31 467.38 277.88 C 465.00 276.44 461.35 274.25 456.88 272.12 C 452.40 270.00 444.56 266.67 440.50 265.12 C 436.44 263.58 436.88 262.79 432.50 262.88 C 428.12 262.96 423.35 264.58 414.25 265.62 C 405.15 266.67 387.38 268.04 377.88 269.12 C 368.38 270.21 365.33 270.79 357.25 272.12 C 349.17 273.46 338.33 275.35 329.38 277.12 C 320.42 278.90 308.02 281.81 303.50 282.75 C 298.98 283.69 302.77 283.00 302.25 282.75 C 301.73 282.50 301.04 282.69 300.38 281.25 C 299.71 279.81 298.71 275.06 298.25 274.12 Z" id="s-18-f-0"/>
<clipPath id="c-s-18"><use href="#s-18-f-0"/></clipPath>
<path d="M 274.25 327.00 C 273.79 326.92 273.40 326.81 272.88 327.25 C 272.35 327.69 272.00 327.46 271.12 329.62 C 270.25 331.79 269.02 336.67 267.62 340.25 C 266.23 343.83 265.17 346.19 262.75 351.12 C 260.33 356.06 255.06 365.60 253.12 369.88 C 251.19 374.15 251.48 373.81 251.12 376.75 C 250.77 379.69 250.69 384.21 251.00 387.50 C 251.31 390.79 252.33 394.50 253.00 396.50 C 253.67 398.50 254.29 398.62 255.00 399.50 C 255.71 400.38 256.21 401.04 257.25 401.75 C 258.29 402.46 259.85 403.42 261.25 403.75 C 262.65 404.08 264.60 403.90 265.62 403.75 C 266.65 403.60 266.79 403.27 267.38 402.88 C 267.96 402.48 267.90 402.79 269.12 401.38 C 270.35 399.96 273.19 396.71 274.75 394.38 C 276.31 392.04 277.17 390.56 278.50 387.38 C 279.83 384.19 281.73 378.44 282.75 375.25 C 283.77 372.06 284.10 371.23 284.62 368.25 C 285.15 365.27 285.69 360.25 285.88 357.38 C 286.06 354.50 285.96 352.90 285.75 351.00 C 285.54 349.10 285.27 348.06 284.62 346.00 C 283.98 343.94 283.02 341.23 281.88 338.62 C 280.73 336.02 278.79 332.19 277.75 330.38 C 276.71 328.56 276.21 328.31 275.62 327.75 C 275.04 327.19 274.71 327.08 274.25 327.00 Z" id="s-19-f-0"/>
<clipPath id="c-s-19"><use href="#s-19-f-0"/></clipPath>
<path d="M 294.25 329.12 C 293.65 329.35 293.90 329.56 293.88 330.38 C 293.85 331.19 293.10 330.85 294.12 334.00 C 295.15 337.15 298.17 344.73 300.00 349.25 C 301.83 353.77 302.98 356.73 305.12 361.12 C 307.27 365.52 311.06 372.52 312.88 375.62 C 314.69 378.73 315.08 378.77 316.00 379.75 C 316.92 380.73 317.31 381.15 318.38 381.50 C 319.44 381.85 321.08 381.98 322.38 381.88 C 323.67 381.77 325.06 381.42 326.12 380.88 C 327.19 380.33 328.00 379.71 328.75 378.62 C 329.50 377.54 330.27 376.52 330.62 374.38 C 330.98 372.23 331.04 368.73 330.88 365.75 C 330.71 362.77 330.15 358.98 329.62 356.50 C 329.10 354.02 328.42 352.52 327.75 350.88 C 327.08 349.23 326.98 348.23 325.62 346.62 C 324.27 345.02 321.98 343.02 319.62 341.25 C 317.27 339.48 313.98 337.42 311.50 336.00 C 309.02 334.58 306.62 333.77 304.75 332.75 C 302.88 331.73 301.46 330.50 300.25 329.88 C 299.04 329.25 298.50 329.12 297.50 329.00 C 296.50 328.88 294.85 328.90 294.25 329.12 Z" id="s-20-f-0"/>
<clipPath id="c-s-20"><use href="#s-20-f-0"/></clipPath>
<path d="M 333.38 324.00 C 332.33 324.06 333.06 323.94 333.00 324.50 C 332.94 325.06 332.83 326.35 333.00 327.38 C 333.17 328.40 332.00 326.73 334.00 330.62 C 336.00 334.52 342.15 345.90 345.00 350.75 C 347.85 355.60 349.25 357.27 351.12 359.75 C 353.00 362.23 354.85 364.31 356.25 365.62 C 357.65 366.94 358.04 367.27 359.50 367.62 C 360.96 367.98 363.46 368.04 365.00 367.75 C 366.54 367.46 367.79 366.58 368.75 365.88 C 369.71 365.17 370.27 364.29 370.75 363.50 C 371.23 362.71 371.46 363.10 371.62 361.12 C 371.79 359.15 372.06 354.48 371.75 351.62 C 371.44 348.77 370.62 346.19 369.75 344.00 C 368.88 341.81 368.08 340.33 366.50 338.50 C 364.92 336.67 362.85 334.75 360.25 333.00 C 357.65 331.25 354.38 329.48 350.88 328.00 C 347.38 326.52 342.17 324.79 339.25 324.12 C 336.33 323.46 334.42 323.94 333.38 324.00 Z" id="s-21-f-0"/>
<clipPath id="c-s-21"><use href="#s-21-f-0"/></clipPath>
<path d="M 374.75 314.00 C 373.75 314.12 374.12 314.27 374.00 314.75 C 373.88 315.23 372.67 313.92 374.00 316.88 C 375.33 319.83 379.54 327.96 382.00 332.50 C 384.46 337.04 386.62 340.77 388.75 344.12 C 390.88 347.48 392.31 349.67 394.75 352.62 C 397.19 355.58 401.58 360.19 403.38 361.88 C 405.17 363.56 404.50 362.60 405.50 362.75 C 406.50 362.90 408.27 362.92 409.38 362.75 C 410.48 362.58 411.42 362.12 412.12 361.75 C 412.83 361.38 413.04 361.21 413.62 360.50 C 414.21 359.79 415.12 358.58 415.62 357.50 C 416.12 356.42 416.42 355.12 416.62 354.00 C 416.83 352.88 416.88 352.62 416.88 350.75 C 416.88 348.88 416.98 345.15 416.62 342.75 C 416.27 340.35 415.40 338.10 414.75 336.38 C 414.10 334.65 413.67 333.75 412.75 332.38 C 411.83 331.00 410.44 329.31 409.25 328.12 C 408.06 326.94 407.08 326.27 405.62 325.25 C 404.17 324.23 402.40 323.06 400.50 322.00 C 398.60 320.94 396.83 320.02 394.25 318.88 C 391.67 317.73 387.38 315.94 385.00 315.12 C 382.62 314.31 381.71 314.19 380.00 314.00 C 378.29 313.81 375.75 313.88 374.75 314.00 Z" id="s-22-f-0"/>
<clipPath id="c-s-22"><use href="#s-22-f-0"/></clipPath>
</defs>
<g id="s-0" clip-path="url(#c-s-0)">
<use href="#s-0-f-0"/>
<path d="M 196.88 99.25 C 196.69 95.56 199.27 98.15 195.75 98.75 C 192.23 99.35 179.42 102.04 175.75 102.88 C 172.08 103.71 178.92 102.90 173.75 103.75 C 168.58 104.60 154.04 106.50 144.75 108.00 C 135.46 109.50 123.10 111.94 118.00 112.75 C 112.90 113.56 117.73 112.35 114.12 112.88 C 110.52 113.40 102.52 115.17 96.38 115.88 C 90.23 116.58 83.21 116.60 77.25 117.12 C 71.29 117.65 64.17 118.52 60.62 119.00 C 57.08 119.48 57.23 119.65 56.00 120.00 C 54.77 120.35 53.75 120.56 53.25 121.12 C 52.75 121.69 52.90 122.73 53.00 123.38 C 53.10 124.02 53.27 124.25 53.88 125.00 C 54.48 125.75 55.04 126.75 56.62 127.88 C 58.21 129.00 60.62 130.79 63.38 131.75 C 66.12 132.71 69.12 133.27 73.12 133.62 C 77.12 133.98 80.48 134.19 87.38 133.88 C 94.27 133.56 97.50 133.60 114.50 131.75 C 131.50 129.90 175.75 124.46 189.38 122.75 C 203.00 121.04 195.00 121.81 196.25 121.50 C 197.50 121.19 196.77 124.58 196.88 120.88 C 196.98 117.17 197.06 102.94 196.88 99.25 Z" id="s-0-f-1"/>
<path d="M 148.88 108.12 C 148.79 105.10 149.19 107.65 148.50 107.62 C 147.81 107.60 149.83 107.15 144.75 108.00 C 139.67 108.85 123.10 111.94 118.00 112.75 C 112.90 113.56 117.73 112.35 114.12 112.88 C 110.52 113.40 102.52 115.17 96.38 115.88 C 90.23 116.58 83.21 116.60 77.25 117.12 C 71.29 117.65 64.17 118.52 60.62 119.00 C 57.08 119.48 57.23 119.65 56.00 120.00 C 54.77 120.35 53.75 120.56 53.25 121.12 C 52.75 121.69 52.56 122.35 53.00 123.38 C 53.44 124.40 54.56 126.04 55.88 127.25 C 57.19 128.46 58.98 129.71 60.88 130.62 C 62.77 131.54 64.94 132.23 67.25 132.75 C 69.56 133.27 71.40 133.56 74.75 133.75 C 78.10 133.94 82.54 134.02 87.38 133.88 C 92.21 133.73 93.58 133.90 103.75 132.88 C 113.92 131.85 140.83 128.94 148.38 127.75 C 155.92 126.56 148.92 129.02 149.00 125.75 C 149.08 122.48 148.96 111.15 148.88 108.12 Z" id="s-0-f-2"/>
<path d="M 100.88 132.75 C 102.54 129.92 101.06 119.71 101.00 116.75 C 100.94 113.79 101.27 115.15 100.50 115.00 C 99.73 114.85 101.92 115.38 96.38 115.88 C 90.83 116.38 73.98 117.31 67.25 118.00 C 60.52 118.69 58.38 119.42 56.00 120.00 C 53.62 120.58 53.50 120.94 53.00 121.50 C 52.50 122.06 52.85 122.79 53.00 123.38 C 53.15 123.96 53.27 124.25 53.88 125.00 C 54.48 125.75 55.10 126.77 56.62 127.88 C 58.15 128.98 61.23 130.81 63.00 131.62 C 64.77 132.44 64.58 132.38 67.25 132.75 C 69.92 133.12 75.04 133.71 79.00 133.88 C 82.96 134.04 87.35 133.94 91.00 133.75 C 94.65 133.56 99.21 135.58 100.88 132.75 Z" id="s-0-f-3"/>
</g>
<g id="s-1" clip-path="url(#c-s-1)">
<use href="#s-1-f-0"/>
<path d="M 88.62 58.12 C 86.88 58.33 87.10 58.81 86.50 59.38 C 85.90 59.94 85.23 60.10 85.00 61.50 C 84.77 62.90 84.77 65.21 85.12 67.75 C 85.48 70.29 86.02 72.60 87.12 76.75 C 88.23 80.90 90.17 86.29 91.75 92.62 C 93.33 98.96 95.81 110.29 96.62 114.75 C 97.44 119.21 96.48 118.29 96.62 119.38 C 96.77 120.46 97.17 119.38 97.50 121.25 C 97.83 123.12 98.23 128.60 98.62 130.62 C 99.02 132.65 99.10 129.77 99.88 133.38 C 100.65 136.98 102.56 148.85 103.25 152.25 C 103.94 155.65 101.21 153.48 104.00 153.75 C 106.79 154.02 117.25 154.04 120.00 153.88 C 122.75 153.71 120.67 156.19 120.50 152.75 C 120.33 149.31 119.23 137.83 119.00 133.25 C 118.77 128.67 119.25 127.04 119.12 125.25 C 119.00 123.46 118.42 123.98 118.25 122.50 C 118.08 121.02 118.31 117.79 118.12 116.38 C 117.94 114.96 117.46 116.67 117.12 114.00 C 116.79 111.33 116.35 108.02 116.12 100.38 C 115.90 92.73 116.25 74.12 115.75 68.12 C 115.25 62.12 113.90 65.25 113.12 64.38 C 112.35 63.50 112.17 63.44 111.12 62.88 C 110.08 62.31 109.23 61.79 106.88 61.00 C 104.52 60.21 100.04 58.60 97.00 58.12 C 93.96 57.65 90.38 57.92 88.62 58.12 Z" id="s-1-f-1"/>
<path d="M 87.12 58.88 C 86.44 59.46 85.33 60.02 85.00 61.50 C 84.67 62.98 84.77 65.21 85.12 67.75 C 85.48 70.29 86.02 72.60 87.12 76.75 C 88.23 80.90 90.54 87.88 91.75 92.62 C 92.96 97.38 93.81 103.04 94.38 105.25 C 94.94 107.46 91.44 105.79 95.12 105.88 C 98.81 105.96 112.90 106.00 116.50 105.75 C 120.10 105.50 116.83 105.85 116.75 104.38 C 116.67 102.90 116.17 102.92 116.00 96.88 C 115.83 90.83 115.94 73.21 115.75 68.12 C 115.56 63.04 115.65 67.25 114.88 66.38 C 114.10 65.50 113.48 64.10 111.12 62.88 C 108.77 61.65 103.60 59.83 100.75 59.00 C 97.90 58.17 95.94 58.04 94.00 57.88 C 92.06 57.71 90.27 57.83 89.12 58.00 C 87.98 58.17 87.81 58.29 87.12 58.88 Z" id="s-1-f-2"/>
</g>
<g id="s-2" clip-path="url(#c-s-2)">
<use href="#s-2-f-0"/>
<path d="M 174.62 40.00 C 173.06 40.12 173.00 40.50 172.38 40.88 C 171.75 41.25 171.29 41.56 170.88 42.25 C 170.46 42.94 170.02 44.19 169.88 45.00 C 169.73 45.81 169.69 46.19 170.00 47.12 C 170.31 48.06 171.29 49.38 171.75 50.62 C 172.21 51.88 172.42 52.56 172.75 54.62 C 173.08 56.69 173.75 54.67 173.75 63.00 C 173.75 71.33 173.08 97.31 172.75 104.62 C 172.42 111.94 171.96 105.27 171.75 106.88 C 171.54 108.48 171.69 112.40 171.50 114.25 C 171.31 116.10 170.75 115.19 170.62 118.00 C 170.50 120.81 170.79 128.27 170.75 131.12 C 170.71 133.98 170.35 134.33 170.38 135.12 C 170.40 135.92 170.56 135.73 170.88 135.88 C 171.19 136.02 169.04 136.00 172.25 136.00 C 175.46 136.00 187.04 135.98 190.12 135.88 C 193.21 135.77 190.44 136.90 190.75 135.38 C 191.06 133.85 191.56 129.08 192.00 126.75 C 192.44 124.42 193.19 122.38 193.38 121.38 C 193.56 120.38 193.08 120.98 193.12 120.75 C 193.17 120.52 193.48 120.08 193.62 120.00 C 193.77 119.92 193.88 121.02 194.00 120.25 C 194.12 119.48 194.19 116.40 194.38 115.38 C 194.56 114.35 194.96 115.04 195.12 114.12 C 195.29 113.21 195.21 110.83 195.38 109.88 C 195.54 108.92 195.98 109.31 196.12 108.38 C 196.27 107.44 196.08 105.23 196.25 104.25 C 196.42 103.27 196.98 103.56 197.12 102.50 C 197.27 101.44 196.69 100.54 197.12 97.88 C 197.56 95.21 199.10 89.75 199.75 86.50 C 200.40 83.25 200.29 81.48 201.00 78.38 C 201.71 75.27 202.88 70.79 204.00 67.88 C 205.12 64.96 207.12 62.54 207.75 60.88 C 208.38 59.21 208.10 59.02 207.75 57.88 C 207.40 56.73 206.62 55.29 205.62 54.00 C 204.62 52.71 204.00 51.79 201.75 50.12 C 199.50 48.46 195.46 45.67 192.12 44.00 C 188.79 42.33 184.67 40.79 181.75 40.12 C 178.83 39.46 176.19 39.88 174.62 40.00 Z" id="s-2-f-1"/>
<path d="M 172.38 40.88 C 171.75 41.25 171.27 41.75 170.88 42.25 C 170.48 42.75 170.17 43.21 170.00 43.88 C 169.83 44.54 169.58 45.12 169.88 46.25 C 170.17 47.38 171.27 49.23 171.75 50.62 C 172.23 52.02 172.42 52.56 172.75 54.62 C 173.08 56.69 173.65 57.52 173.75 63.00 C 173.85 68.48 173.08 83.33 173.38 87.50 C 173.67 91.67 171.23 87.96 175.50 88.00 C 179.77 88.04 194.96 88.00 199.00 87.75 C 203.04 87.50 199.42 88.06 199.75 86.50 C 200.08 84.94 200.46 81.00 201.00 78.38 C 201.54 75.75 202.33 72.85 203.00 70.75 C 203.67 68.65 204.21 67.40 205.00 65.75 C 205.79 64.10 207.29 62.19 207.75 60.88 C 208.21 59.56 208.10 59.02 207.75 57.88 C 207.40 56.73 206.71 55.35 205.62 54.00 C 204.54 52.65 203.17 51.23 201.25 49.75 C 199.33 48.27 196.35 46.40 194.12 45.12 C 191.90 43.85 190.10 42.98 187.88 42.12 C 185.65 41.27 182.96 40.35 180.75 40.00 C 178.54 39.65 176.02 39.85 174.62 40.00 C 173.23 40.15 173.00 40.50 172.38 40.88 Z" id="s-2-f-2"/>
</g>
<g id="s-3" clip-path="url(#c-s-3)">
<use href="#s-3-f-0"/>
<path d="M 168.88 152.12 C 168.42 150.06 167.69 151.85 166.25 152.00 C 164.81 152.15 164.42 152.04 160.25 153.00 C 156.08 153.96 147.79 156.44 141.25 157.75 C 134.71 159.06 124.46 160.29 121.00 160.88 C 117.54 161.46 120.58 158.98 120.50 161.25 C 120.42 163.52 120.35 172.23 120.50 174.50 C 120.65 176.77 119.21 174.83 121.38 174.88 C 123.54 174.92 125.67 175.54 133.50 174.75 C 141.33 173.96 162.46 171.85 168.38 170.12 C 174.29 168.40 168.92 167.38 169.00 164.38 C 169.08 161.38 169.33 154.19 168.88 152.12 Z" id="s-3-f-1"/>
</g>
<g id="s-4" clip-path="url(#c-s-4)">
<use href="#s-4-f-0"/>
<path d="M 266.00 192.00 C 266.00 190.38 266.33 191.52 265.75 190.88 C 265.17 190.23 264.38 189.44 262.50 188.12 C 260.62 186.81 258.06 184.50 254.50 183.00 C 250.94 181.50 244.33 179.79 241.12 179.12 C 237.92 178.46 237.38 178.83 235.25 179.00 C 233.12 179.17 232.67 179.17 228.38 180.12 C 224.08 181.08 223.33 182.00 209.50 184.75 C 195.67 187.50 165.46 193.12 145.38 196.62 C 125.29 200.12 107.67 202.88 89.00 205.75 C 70.33 208.62 43.65 212.17 33.38 213.88 C 23.10 215.58 28.56 215.46 27.38 216.00 C 26.19 216.54 26.50 216.69 26.25 217.12 C 26.00 217.56 25.67 217.96 25.88 218.62 C 26.08 219.29 26.71 220.27 27.50 221.12 C 28.29 221.98 28.44 222.50 30.62 223.75 C 32.81 225.00 37.90 227.46 40.62 228.62 C 43.35 229.79 45.19 230.25 47.00 230.75 C 48.81 231.25 49.58 231.46 51.50 231.62 C 53.42 231.79 49.90 233.50 58.50 231.75 C 67.10 230.00 90.69 223.92 103.12 221.12 C 115.56 218.33 122.31 216.85 133.12 215.00 C 143.94 213.15 156.33 211.50 168.00 210.00 C 179.67 208.50 191.52 207.17 203.12 206.00 C 214.73 204.83 227.67 203.73 237.62 203.00 C 247.58 202.27 258.19 202.02 262.88 201.62 C 267.56 201.23 265.23 202.23 265.75 200.62 C 266.27 199.02 266.00 193.62 266.00 192.00 Z" id="s-4-f-1"/>
<path d="M 217.50 184.12 C 217.25 180.79 217.83 182.77 216.50 182.88 C 215.17 182.98 216.73 183.27 209.50 184.75 C 202.27 186.23 185.90 189.42 173.12 191.75 C 160.35 194.08 147.98 196.25 132.88 198.75 C 117.77 201.25 99.08 204.23 82.50 206.75 C 65.92 209.27 42.56 212.33 33.38 213.88 C 24.19 215.42 28.56 215.46 27.38 216.00 C 26.19 216.54 26.50 216.69 26.25 217.12 C 26.00 217.56 25.67 217.96 25.88 218.62 C 26.08 219.29 26.71 220.27 27.50 221.12 C 28.29 221.98 28.79 222.65 30.62 223.75 C 32.46 224.85 35.77 226.58 38.50 227.75 C 41.23 228.92 44.69 230.08 47.00 230.75 C 49.31 231.42 50.58 231.56 52.38 231.75 C 54.17 231.94 49.29 233.65 57.75 231.88 C 66.21 230.10 90.56 223.94 103.12 221.12 C 115.69 218.31 122.31 216.85 133.12 215.00 C 143.94 213.15 153.94 211.71 168.00 210.00 C 182.06 208.29 209.17 205.94 217.50 204.75 C 225.83 203.56 218.00 206.31 218.00 202.88 C 218.00 199.44 217.75 187.46 217.50 184.12 Z" id="s-4-f-2"/>
<path d="M 169.88 192.75 C 169.71 190.04 179.31 190.58 169.00 192.25 C 158.69 193.92 130.60 199.15 108.00 202.75 C 85.40 206.35 46.81 211.67 33.38 213.88 C 19.94 216.08 28.56 215.46 27.38 216.00 C 26.19 216.54 26.50 216.69 26.25 217.12 C 26.00 217.56 25.67 217.96 25.88 218.62 C 26.08 219.29 26.71 220.27 27.50 221.12 C 28.29 221.98 28.44 222.50 30.62 223.75 C 32.81 225.00 37.90 227.46 40.62 228.62 C 43.35 229.79 45.19 230.25 47.00 230.75 C 48.81 231.25 49.42 231.48 51.50 231.62 C 53.58 231.77 53.06 232.88 59.50 231.62 C 65.94 230.38 80.52 226.38 90.12 224.12 C 99.73 221.88 109.96 219.65 117.12 218.12 C 124.29 216.60 124.42 216.38 133.12 215.00 C 141.83 213.62 163.23 210.96 169.38 209.88 C 175.52 208.79 169.92 211.35 170.00 208.50 C 170.08 205.65 170.04 195.46 169.88 192.75 Z" id="s-4-f-3"/>
<path d="M 121.88 200.88 C 120.96 198.44 123.06 200.15 116.50 201.12 C 109.94 202.10 96.35 204.62 82.50 206.75 C 68.65 208.88 42.56 212.33 33.38 213.88 C 24.19 215.42 28.56 215.46 27.38 216.00 C 26.19 216.54 26.50 216.69 26.25 217.12 C 26.00 217.56 25.67 217.96 25.88 218.62 C 26.08 219.29 26.71 220.27 27.50 221.12 C 28.29 221.98 28.44 222.50 30.62 223.75 C 32.81 225.00 37.90 227.46 40.62 228.62 C 43.35 229.79 45.19 230.25 47.00 230.75 C 48.81 231.25 49.42 231.48 51.50 231.62 C 53.58 231.77 50.90 233.38 59.50 231.62 C 68.10 229.88 92.88 223.46 103.12 221.12 C 113.38 218.79 117.92 218.27 121.00 217.62 C 124.08 216.98 121.46 217.56 121.62 217.25 C 121.79 216.94 121.96 218.48 122.00 215.75 C 122.04 213.02 122.79 203.31 121.88 200.88 Z" id="s-4-f-4"/>
<path d="M 74.00 227.50 C 74.25 225.06 73.98 216.94 73.88 213.88 C 73.77 210.81 73.56 210.08 73.38 209.12 C 73.19 208.17 79.42 207.33 72.75 208.12 C 66.08 208.92 40.94 212.56 33.38 213.88 C 25.81 215.19 28.62 215.31 27.38 216.00 C 26.12 216.69 26.10 217.46 25.88 218.00 C 25.65 218.54 25.73 218.73 26.00 219.25 C 26.27 219.77 26.46 220.21 27.50 221.12 C 28.54 222.04 30.06 223.50 32.25 224.75 C 34.44 226.00 38.17 227.62 40.62 228.62 C 43.08 229.62 45.04 230.23 47.00 230.75 C 48.96 231.27 50.58 231.56 52.38 231.75 C 54.17 231.94 54.42 232.42 57.75 231.88 C 61.08 231.33 69.67 229.23 72.38 228.50 C 75.08 227.77 73.75 229.94 74.00 227.50 Z" id="s-4-f-5"/>
</g>
<g id="s-5" clip-path="url(#c-s-5)">
<use href="#s-5-f-0"/>
<path d="M 61.88 249.38 C 61.21 249.71 60.35 250.35 59.88 250.88 C 59.40 251.40 59.10 251.69 59.00 252.50 C 58.90 253.31 58.42 254.44 59.25 255.75 C 60.08 257.06 62.42 258.54 64.00 260.38 C 65.58 262.21 67.50 264.69 68.75 266.75 C 70.00 268.81 70.50 269.67 71.50 272.75 C 72.50 275.83 73.38 278.69 74.75 285.25 C 76.12 291.81 78.08 302.27 79.75 312.12 C 81.42 321.98 83.81 338.90 84.75 344.38 C 85.69 349.85 82.23 344.92 85.38 345.00 C 88.52 345.08 100.56 346.35 103.62 344.88 C 106.69 343.40 103.92 339.73 103.75 336.12 C 103.58 332.52 103.08 327.25 102.62 323.25 C 102.17 319.25 101.29 314.92 101.00 312.12 C 100.71 309.33 101.10 309.25 100.88 306.50 C 100.65 303.75 100.27 299.77 99.62 295.62 C 98.98 291.48 97.62 286.56 97.00 281.62 C 96.38 276.69 97.04 269.75 95.88 266.00 C 94.71 262.25 92.15 261.46 90.00 259.12 C 87.85 256.79 84.50 253.21 83.00 252.00 C 81.50 250.79 82.10 252.19 81.00 251.88 C 79.90 251.56 78.15 250.60 76.38 250.12 C 74.60 249.65 72.46 249.21 70.38 249.00 C 68.29 248.79 65.29 248.81 63.88 248.88 C 62.46 248.94 62.54 249.04 61.88 249.38 Z" id="s-5-f-1"/>
<path d="M 60.88 249.88 C 60.06 250.48 59.31 251.58 59.00 252.50 C 58.69 253.42 57.83 253.67 59.00 255.38 C 60.17 257.08 64.38 260.85 66.00 262.75 C 67.62 264.65 67.96 265.38 68.75 266.75 C 69.54 268.12 69.92 268.60 70.75 271.00 C 71.58 273.40 72.73 276.90 73.75 281.12 C 74.77 285.35 75.21 293.73 76.88 296.38 C 78.54 299.02 80.02 296.92 83.75 297.00 C 87.48 297.08 96.60 297.04 99.25 296.88 C 101.90 296.71 100.00 298.54 99.62 296.00 C 99.25 293.46 97.62 286.62 97.00 281.62 C 96.38 276.62 96.15 268.77 95.88 266.00 C 95.60 263.23 97.52 267.33 95.38 265.00 C 93.23 262.67 85.40 254.19 83.00 252.00 C 80.60 249.81 82.10 252.19 81.00 251.88 C 79.90 251.56 78.15 250.60 76.38 250.12 C 74.60 249.65 72.46 249.21 70.38 249.00 C 68.29 248.79 65.46 248.73 63.88 248.88 C 62.29 249.02 61.69 249.27 60.88 249.88 Z" id="s-5-f-2"/>
</g>
<g id="s-6" clip-path="url(#c-s-6)">
<use href="#s-6-f-0"/>
<path d="M 248.75 256.50 C 249.67 254.25 248.90 254.35 248.75 253.50 C 248.60 252.65 248.35 252.17 247.88 251.38 C 247.40 250.58 247.08 249.96 245.88 248.75 C 244.67 247.54 242.56 245.60 240.62 244.12 C 238.69 242.65 236.83 241.38 234.25 239.88 C 231.67 238.38 228.17 236.58 225.12 235.12 C 222.08 233.67 218.31 232.00 216.00 231.12 C 213.69 230.25 212.73 230.06 211.25 229.88 C 209.77 229.69 208.81 229.81 207.12 230.00 C 205.44 230.19 204.88 230.17 201.12 231.00 C 197.38 231.83 188.79 233.88 184.62 235.00 C 180.46 236.12 184.48 235.79 176.12 237.75 C 167.77 239.71 144.96 244.75 134.50 246.75 C 124.04 248.75 121.60 248.92 113.38 249.75 C 105.15 250.58 90.25 251.31 85.12 251.75 C 80.00 252.19 81.73 250.92 82.62 252.38 C 83.52 253.83 88.46 258.27 90.50 260.50 C 92.54 262.73 94.00 264.83 94.88 265.75 C 95.75 266.67 93.75 266.00 95.75 266.00 C 97.75 266.00 102.92 265.98 106.88 265.75 C 110.83 265.52 115.27 265.15 119.50 264.62 C 123.73 264.10 128.98 263.23 132.25 262.62 C 135.52 262.02 137.42 261.29 139.12 261.00 C 140.83 260.71 138.58 261.42 142.50 260.88 C 146.42 260.33 154.08 259.23 162.62 257.75 C 171.17 256.27 186.94 253.15 193.75 252.00 C 200.56 250.85 201.40 250.94 203.50 250.88 C 205.60 250.81 205.52 251.02 206.38 251.62 C 207.23 252.23 208.12 253.52 208.62 254.50 C 209.12 255.48 209.17 256.29 209.38 257.50 C 209.58 258.71 209.81 259.88 209.88 261.75 C 209.94 263.62 209.98 265.19 209.75 268.75 C 209.52 272.31 209.00 278.73 208.50 283.12 C 208.00 287.52 207.04 292.40 206.75 295.12 C 206.46 297.85 207.46 294.75 206.75 299.50 C 206.04 304.25 203.67 317.73 202.50 323.62 C 201.33 329.52 200.17 332.83 199.75 334.88 C 199.33 336.92 196.10 335.69 200.00 335.88 C 203.90 336.06 218.92 336.08 223.12 336.00 C 227.33 335.92 222.44 345.38 225.25 335.38 C 228.06 325.38 237.00 287.40 240.00 276.00 C 243.00 264.60 241.79 270.25 243.25 267.00 C 244.71 263.75 247.83 258.75 248.75 256.50 Z" id="s-6-f-1"/>
<path d="M 248.75 256.50 C 249.85 253.79 248.90 254.35 248.75 253.50 C 248.60 252.65 248.35 252.17 247.88 251.38 C 247.40 250.58 247.08 249.96 245.88 248.75 C 244.67 247.54 242.56 245.60 240.62 244.12 C 238.69 242.65 236.83 241.38 234.25 239.88 C 231.67 238.38 228.17 236.58 225.12 235.12 C 222.08 233.67 218.31 232.00 216.00 231.12 C 213.69 230.25 212.73 230.06 211.25 229.88 C 209.77 229.69 208.81 229.81 207.12 230.00 C 205.44 230.19 204.88 230.17 201.12 231.00 C 197.38 231.83 188.79 233.88 184.62 235.00 C 180.46 236.12 184.48 235.79 176.12 237.75 C 167.77 239.71 144.96 244.75 134.50 246.75 C 124.04 248.75 121.60 248.92 113.38 249.75 C 105.15 250.58 90.25 251.31 85.12 251.75 C 80.00 252.19 81.73 250.92 82.62 252.38 C 83.52 253.83 88.46 258.27 90.50 260.50 C 92.54 262.73 94.00 264.83 94.88 265.75 C 95.75 266.67 93.65 266.00 95.75 266.00 C 97.85 266.00 103.54 265.98 107.50 265.75 C 111.46 265.52 115.38 265.15 119.50 264.62 C 123.62 264.10 128.98 263.23 132.25 262.62 C 135.52 262.02 137.42 261.29 139.12 261.00 C 140.83 260.71 138.58 261.42 142.50 260.88 C 146.42 260.33 155.00 259.08 162.62 257.75 C 170.25 256.42 181.19 254.00 188.25 252.88 C 195.31 251.75 201.98 251.21 205.00 251.00 C 208.02 250.79 205.88 251.23 206.38 251.62 C 206.88 252.02 207.60 252.85 208.00 253.38 C 208.40 253.90 208.48 253.81 208.75 254.75 C 209.02 255.69 209.46 256.67 209.62 259.00 C 209.79 261.33 210.02 264.21 209.75 268.75 C 209.48 273.29 208.23 283.08 208.00 286.25 C 207.77 289.42 208.04 287.46 208.38 287.75 C 208.71 288.04 205.31 287.96 210.00 288.00 C 214.69 288.04 231.92 288.27 236.50 288.00 C 241.08 287.73 236.92 288.38 237.50 286.38 C 238.08 284.38 239.23 278.77 240.00 276.00 C 240.77 273.23 240.67 273.00 242.12 269.75 C 243.58 266.50 247.65 259.21 248.75 256.50 Z" id="s-6-f-2"/>
<path d="M 233.25 239.38 C 231.94 238.48 228.46 236.67 225.12 235.12 C 221.79 233.58 216.23 230.98 213.25 230.12 C 210.27 229.27 210.04 229.69 207.25 230.00 C 204.46 230.31 200.27 231.17 196.50 232.00 C 192.73 232.83 188.02 234.04 184.62 235.00 C 181.23 235.96 183.15 236.10 176.12 237.75 C 169.10 239.40 148.38 243.56 142.50 244.88 C 136.62 246.19 145.73 244.81 140.88 245.62 C 136.02 246.44 122.65 248.73 113.38 249.75 C 104.10 250.77 90.38 251.31 85.25 251.75 C 80.12 252.19 80.98 250.00 82.62 252.38 C 84.27 254.75 90.58 263.81 95.12 266.00 C 99.67 268.19 104.65 265.90 109.88 265.50 C 115.10 265.10 121.60 264.38 126.50 263.62 C 131.40 262.88 136.58 261.46 139.25 261.00 C 141.92 260.54 138.60 261.42 142.50 260.88 C 146.40 260.33 155.00 259.08 162.62 257.75 C 170.25 256.42 181.23 254.04 188.25 252.88 C 195.27 251.71 197.29 252.81 204.75 250.75 C 212.21 248.69 228.25 242.40 233.00 240.50 C 237.75 238.60 234.56 240.27 233.25 239.38 Z" id="s-6-f-3"/>
<path d="M 226.88 236.25 C 226.56 235.10 226.94 235.98 225.12 235.12 C 223.31 234.27 218.10 231.98 216.00 231.12 C 213.90 230.27 213.96 230.19 212.50 230.00 C 211.04 229.81 209.92 229.67 207.25 230.00 C 204.58 230.33 200.27 231.17 196.50 232.00 C 192.73 232.83 188.02 234.04 184.62 235.00 C 181.23 235.96 183.15 236.10 176.12 237.75 C 169.10 239.40 148.38 243.56 142.50 244.88 C 136.62 246.19 145.73 244.81 140.88 245.62 C 136.02 246.44 122.65 248.73 113.38 249.75 C 104.10 250.77 90.38 251.31 85.25 251.75 C 80.12 252.19 80.98 250.00 82.62 252.38 C 84.27 254.75 91.10 263.77 95.12 266.00 C 99.15 268.23 102.88 265.96 106.75 265.75 C 110.62 265.54 114.25 265.25 118.38 264.75 C 122.50 264.25 128.04 263.38 131.50 262.75 C 134.96 262.12 137.29 261.31 139.12 261.00 C 140.96 260.69 138.58 261.42 142.50 260.88 C 146.42 260.33 155.00 259.08 162.62 257.75 C 170.25 256.42 181.15 254.06 188.25 252.88 C 195.35 251.69 198.88 252.29 205.25 250.62 C 211.62 248.96 222.88 244.31 226.50 242.88 C 230.12 241.44 226.94 243.10 227.00 242.00 C 227.06 240.90 227.19 237.40 226.88 236.25 Z" id="s-6-f-4"/>
<path d="M 179.00 237.62 C 178.79 234.94 178.23 236.98 177.75 237.00 C 177.27 237.02 177.85 237.29 176.12 237.75 C 174.40 238.21 169.23 239.40 167.38 239.75 C 165.52 240.10 169.54 238.88 165.00 239.88 C 160.46 240.88 146.21 244.44 140.12 245.75 C 134.04 247.06 132.96 247.08 128.50 247.75 C 124.04 248.42 120.60 249.08 113.38 249.75 C 106.15 250.42 90.25 251.31 85.12 251.75 C 80.00 252.19 80.96 250.00 82.62 252.38 C 84.29 254.75 90.96 263.77 95.12 266.00 C 99.29 268.23 102.40 266.15 107.62 265.75 C 112.85 265.35 121.25 264.42 126.50 263.62 C 131.75 262.83 136.46 261.46 139.12 261.00 C 141.79 260.54 138.58 261.42 142.50 260.88 C 146.42 260.33 156.62 258.77 162.62 257.75 C 168.62 256.73 175.77 255.52 178.50 254.75 C 181.23 253.98 178.92 255.98 179.00 253.12 C 179.08 250.27 179.21 240.31 179.00 237.62 Z" id="s-6-f-5"/>
<path d="M 130.88 262.50 C 131.50 260.06 131.00 251.33 131.00 248.88 C 131.00 246.42 131.00 248.02 130.88 247.75 C 130.75 247.48 133.17 246.92 130.25 247.25 C 127.33 247.58 120.90 249.00 113.38 249.75 C 105.85 250.50 90.25 251.31 85.12 251.75 C 80.00 252.19 80.96 250.00 82.62 252.38 C 84.29 254.75 90.96 263.77 95.12 266.00 C 99.29 268.23 103.73 265.96 107.62 265.75 C 111.52 265.54 115.23 265.12 118.50 264.75 C 121.77 264.38 125.19 263.88 127.25 263.50 C 129.31 263.12 130.25 264.94 130.88 262.50 Z" id="s-6-f-6"/>
</g>
<g id="s-7" clip-path="url(#c-s-7)">
<use href="#s-7-f-0"/>
<path d="M 195.75 284.38 C 194.35 281.58 190.08 283.35 187.50 283.12 C 184.92 282.90 183.38 282.60 180.25 283.00 C 177.12 283.40 171.58 285.02 168.75 285.50 C 165.92 285.98 167.56 284.96 163.25 285.88 C 158.94 286.79 146.44 290.04 142.88 291.00 C 139.31 291.96 145.83 290.83 141.88 291.62 C 137.92 292.42 125.85 294.71 119.12 295.75 C 112.40 296.79 104.77 297.38 101.50 297.88 C 98.23 298.38 99.81 297.58 99.50 298.75 C 99.19 299.92 99.48 302.98 99.62 304.88 C 99.77 306.77 100.19 309.12 100.38 310.12 C 100.56 311.12 99.92 310.60 100.75 310.88 C 101.58 311.15 102.19 311.65 105.38 311.75 C 108.56 311.85 114.77 311.96 119.88 311.50 C 124.98 311.04 132.08 309.42 136.00 309.00 C 139.92 308.58 138.67 309.69 143.38 309.00 C 148.08 308.31 155.67 306.27 164.25 304.88 C 172.83 303.48 189.60 301.46 194.88 300.62 C 200.15 299.79 195.73 302.58 195.88 299.88 C 196.02 297.17 197.15 287.17 195.75 284.38 Z" id="s-7-f-1"/>
<path d="M 147.88 290.25 C 147.71 287.46 148.00 289.65 147.00 289.88 C 146.00 290.10 144.48 290.98 141.88 291.62 C 139.27 292.27 138.10 292.71 131.38 293.75 C 124.65 294.79 106.79 297.06 101.50 297.88 C 96.21 298.69 99.94 297.46 99.62 298.62 C 99.31 299.79 99.48 302.90 99.62 304.88 C 99.77 306.85 99.54 309.35 100.50 310.50 C 101.46 311.65 102.54 311.54 105.38 311.75 C 108.21 311.96 112.40 312.21 117.50 311.75 C 122.60 311.29 131.69 309.46 136.00 309.00 C 140.31 308.54 141.44 309.17 143.38 309.00 C 145.31 308.83 146.85 308.40 147.62 308.00 C 148.40 307.60 147.96 309.58 148.00 306.62 C 148.04 303.67 148.04 293.04 147.88 290.25 Z" id="s-7-f-2"/>
</g>
<g id="s-8" clip-path="url(#c-s-8)">
<use href="#s-8-f-0"/>
<path d="M 161.25 210.75 C 159.65 209.90 158.58 210.52 157.50 210.62 C 156.42 210.73 155.90 211.21 154.75 211.38 C 153.60 211.54 151.71 211.46 150.62 211.62 C 149.54 211.79 150.50 212.04 148.25 212.38 C 146.00 212.71 139.52 213.23 137.12 213.62 C 134.73 214.02 134.40 214.29 133.88 214.75 C 133.35 215.21 133.50 215.27 134.00 216.38 C 134.50 217.48 136.08 219.17 136.88 221.38 C 137.67 223.58 138.27 225.85 138.75 229.62 C 139.23 233.40 139.62 238.88 139.75 244.00 C 139.88 249.12 139.33 253.10 139.50 260.38 C 139.67 267.65 140.56 280.52 140.75 287.62 C 140.94 294.73 140.52 299.81 140.62 303.00 C 140.73 306.19 141.10 306.04 141.38 306.75 C 141.65 307.46 138.58 307.21 142.25 307.25 C 145.92 307.29 159.77 307.12 163.38 307.00 C 166.98 306.88 163.58 308.02 163.88 306.50 C 164.17 304.98 164.94 302.02 165.12 297.88 C 165.31 293.73 164.88 288.40 165.00 281.62 C 165.12 274.85 165.52 262.44 165.88 257.25 C 166.23 252.06 166.94 253.90 167.12 250.50 C 167.31 247.10 166.88 240.65 167.00 236.88 C 167.12 233.10 167.58 229.94 167.88 227.88 C 168.17 225.81 168.58 225.98 168.75 224.50 C 168.92 223.02 169.15 220.46 168.88 219.00 C 168.60 217.54 168.40 217.12 167.12 215.75 C 165.85 214.38 162.85 211.60 161.25 210.75 Z" id="s-8-f-1"/>
<path d="M 161.25 210.75 C 159.65 209.90 158.58 210.52 157.50 210.62 C 156.42 210.73 155.90 211.21 154.75 211.38 C 153.60 211.54 152.81 211.29 150.62 211.62 C 148.44 211.96 143.88 213.04 141.62 213.38 C 139.38 213.71 138.42 213.40 137.12 213.62 C 135.83 213.85 134.40 214.29 133.88 214.75 C 133.35 215.21 133.50 215.27 134.00 216.38 C 134.50 217.48 136.08 219.17 136.88 221.38 C 137.67 223.58 138.27 225.85 138.75 229.62 C 139.23 233.40 139.62 239.19 139.75 244.00 C 139.88 248.81 139.48 255.98 139.50 258.50 C 139.52 261.02 137.96 258.98 139.88 259.12 C 141.79 259.27 146.73 259.40 151.00 259.38 C 155.27 259.35 163.02 259.15 165.50 259.00 C 167.98 258.85 165.62 259.56 165.88 258.50 C 166.12 257.44 166.81 256.23 167.00 252.62 C 167.19 249.02 166.85 240.98 167.00 236.88 C 167.15 232.77 167.58 230.06 167.88 228.00 C 168.17 225.94 168.58 226.00 168.75 224.50 C 168.92 223.00 169.15 220.46 168.88 219.00 C 168.60 217.54 168.40 217.12 167.12 215.75 C 165.85 214.38 162.85 211.60 161.25 210.75 Z" id="s-8-f-2"/>
</g>
<g id="s-9" clip-path="url(#c-s-9)">
<use href="#s-9-f-0"/>
<path d="M 198.75 334.50 C 198.35 331.60 197.88 333.69 196.38 333.12 C 194.88 332.56 192.12 331.48 189.75 331.12 C 187.38 330.77 186.44 330.38 182.12 331.00 C 177.81 331.62 167.52 334.27 163.88 334.88 C 160.23 335.48 162.85 334.21 160.25 334.62 C 157.65 335.04 150.96 336.85 148.25 337.38 C 145.54 337.90 144.96 337.50 144.00 337.75 C 143.04 338.00 144.21 338.38 142.50 338.88 C 140.79 339.38 140.19 339.75 133.75 340.75 C 127.31 341.75 109.04 343.29 103.88 344.88 C 98.71 346.46 102.98 347.81 102.75 350.25 C 102.52 352.69 101.90 357.75 102.50 359.50 C 103.10 361.25 103.67 360.56 106.38 360.75 C 109.08 360.94 107.62 361.81 118.75 360.62 C 129.88 359.44 162.52 355.06 173.12 353.62 C 183.73 352.19 178.10 352.52 182.38 352.00 C 186.65 351.48 196.02 353.42 198.75 350.50 C 201.48 347.58 199.15 337.40 198.75 334.50 Z" id="s-9-f-1"/>
<path d="M 150.75 337.12 C 150.54 334.12 150.29 336.56 149.75 336.62 C 149.21 336.69 148.46 337.31 147.50 337.50 C 146.54 337.69 144.83 337.52 144.00 337.75 C 143.17 337.98 145.17 338.21 142.50 338.88 C 139.83 339.54 134.44 340.75 128.00 341.75 C 121.56 342.75 108.08 343.46 103.88 344.88 C 99.67 346.29 102.98 347.81 102.75 350.25 C 102.52 352.69 101.90 357.75 102.50 359.50 C 103.10 361.25 103.67 360.56 106.38 360.75 C 109.08 360.94 111.42 361.33 118.75 360.62 C 126.08 359.92 145.00 357.50 150.38 356.50 C 155.75 355.50 150.94 357.85 151.00 354.62 C 151.06 351.40 150.96 340.12 150.75 337.12 Z" id="s-9-f-2"/>
</g>
<g id="s-10" clip-path="url(#c-s-10)">
<use href="#s-10-f-0"/>
<path d="M 139.75 390.75 C 138.98 389.54 138.06 388.02 136.12 386.38 C 134.19 384.73 132.02 382.58 128.12 380.88 C 124.23 379.17 116.00 376.96 112.75 376.12 C 109.50 375.29 109.85 375.85 108.62 375.88 C 107.40 375.90 106.17 375.96 105.38 376.25 C 104.58 376.54 104.17 376.58 103.88 377.62 C 103.58 378.67 103.83 380.83 103.62 382.50 C 103.42 384.17 103.77 385.02 102.62 387.62 C 101.48 390.23 98.94 394.67 96.75 398.12 C 94.56 401.58 92.92 404.10 89.50 408.38 C 86.08 412.65 73.44 421.17 76.25 423.75 C 79.06 426.33 98.85 425.96 106.38 423.88 C 113.90 421.79 117.67 414.23 121.38 411.25 C 125.08 408.27 125.71 407.92 128.62 406.00 C 131.54 404.08 136.83 401.25 138.88 399.75 C 140.92 398.25 140.56 398.02 140.88 397.00 C 141.19 395.98 140.94 394.67 140.75 393.62 C 140.56 392.58 140.52 391.96 139.75 390.75 Z" id="s-10-f-1"/>
</g>
<g id="s-11" clip-path="url(#c-s-11)">
<use href="#s-11-f-0"/>
<path d="M 176.00 372.75 C 175.79 373.31 175.85 374.58 176.00 375.25 C 176.15 375.92 175.40 375.02 176.88 376.75 C 178.35 378.48 179.58 378.44 184.88 385.62 C 190.17 392.81 199.17 414.15 208.62 419.88 C 218.08 425.60 235.75 420.06 241.62 420.00 C 247.50 419.94 243.52 420.02 243.88 419.50 C 244.23 418.98 244.15 418.33 243.75 416.88 C 243.35 415.42 242.54 412.79 241.50 410.75 C 240.46 408.71 239.27 406.75 237.50 404.62 C 235.73 402.50 234.25 400.79 230.88 398.00 C 227.50 395.21 221.35 390.54 217.25 387.88 C 213.15 385.21 210.77 384.12 206.25 382.00 C 201.73 379.88 194.31 376.77 190.12 375.12 C 185.94 373.48 183.27 372.67 181.12 372.12 C 178.98 371.58 178.10 371.77 177.25 371.88 C 176.40 371.98 176.21 372.19 176.00 372.75 Z" id="s-11-f-1"/>
</g>
<g id="s-12" clip-path="url(#c-s-12)">
<use href="#s-12-f-0"/>
<path d="M 366.75 48.00 C 366.08 47.15 364.79 45.73 363.75 44.75 C 362.71 43.77 361.88 43.08 360.50 42.12 C 359.12 41.17 358.54 40.33 355.50 39.00 C 352.46 37.67 345.25 35.12 342.25 34.12 C 339.25 33.12 339.15 33.19 337.50 33.00 C 335.85 32.81 333.56 32.83 332.38 33.00 C 331.19 33.17 330.94 33.48 330.38 34.00 C 329.81 34.52 329.44 33.94 329.00 36.12 C 328.56 38.31 328.67 43.00 327.75 47.12 C 326.83 51.25 325.65 55.31 323.50 60.88 C 321.35 66.44 314.92 77.15 314.88 80.50 C 314.83 83.85 318.65 80.98 323.25 81.00 C 327.85 81.02 339.10 80.81 342.50 80.62 C 345.90 80.44 341.42 82.42 343.62 79.88 C 345.83 77.33 351.90 69.48 355.75 65.38 C 359.60 61.27 364.73 57.46 366.75 55.25 C 368.77 53.04 367.71 53.02 367.88 52.12 C 368.04 51.23 367.94 50.56 367.75 49.88 C 367.56 49.19 367.42 48.85 366.75 48.00 Z" id="s-12-f-1"/>
</g>
<g id="s-13" clip-path="url(#c-s-13)">
<use href="#s-13-f-0"/>
<path d="M 274.50 115.00 C 272.79 115.19 272.46 115.69 271.75 116.12 C 271.04 116.56 270.54 116.69 270.25 117.62 C 269.96 118.56 269.08 119.25 270.00 121.75 C 270.92 124.25 274.31 129.31 275.75 132.62 C 277.19 135.94 277.96 138.42 278.62 141.62 C 279.29 144.83 279.56 148.21 279.75 151.88 C 279.94 155.54 279.88 157.83 279.75 163.62 C 279.62 169.42 279.19 176.62 279.00 186.62 C 278.81 196.62 278.81 214.73 278.62 223.62 C 278.44 232.52 278.52 232.35 277.88 240.00 C 277.23 247.65 275.73 262.56 274.75 269.50 C 273.77 276.44 272.46 278.96 272.00 281.62 C 271.54 284.29 271.65 283.62 272.00 285.50 C 272.35 287.38 273.29 290.56 274.12 292.88 C 274.96 295.19 276.21 297.88 277.00 299.38 C 277.79 300.88 277.71 300.65 278.88 301.88 C 280.04 303.10 282.27 305.90 284.00 306.75 C 285.73 307.60 288.08 307.00 289.25 307.00 C 290.42 307.00 290.00 307.33 291.00 306.75 C 292.00 306.17 294.42 304.23 295.25 303.50 C 296.08 302.77 295.27 308.40 296.00 302.38 C 296.73 296.35 298.94 279.65 299.62 267.38 C 300.31 255.10 299.90 237.83 300.12 228.75 C 300.35 219.67 300.88 218.29 301.00 212.88 C 301.12 207.46 300.71 203.38 300.88 196.25 C 301.04 189.12 301.81 176.81 302.00 170.12 C 302.19 163.44 301.88 159.42 302.00 156.12 C 302.12 152.83 302.60 152.52 302.75 150.38 C 302.90 148.23 302.56 145.44 302.88 143.25 C 303.19 141.06 304.29 139.00 304.62 137.25 C 304.96 135.50 306.33 135.46 304.88 132.75 C 303.42 130.04 297.92 123.46 295.88 121.00 C 293.83 118.54 294.06 118.81 292.62 118.00 C 291.19 117.19 289.02 116.62 287.25 116.12 C 285.48 115.62 284.12 115.19 282.00 115.00 C 279.88 114.81 276.21 114.81 274.50 115.00 Z" id="s-13-f-1"/>
<path d="M 274.50 115.00 C 272.79 115.19 272.46 115.69 271.75 116.12 C 271.04 116.56 270.54 116.69 270.25 117.62 C 269.96 118.56 268.92 118.85 270.00 121.75 C 271.08 124.65 275.29 131.58 276.75 135.00 C 278.21 138.42 278.25 139.44 278.75 142.25 C 279.25 145.06 279.77 138.31 279.75 151.88 C 279.73 165.44 278.98 208.33 278.62 223.62 C 278.27 238.92 278.04 237.94 277.62 243.62 C 277.21 249.31 276.29 255.23 276.12 257.75 C 275.96 260.27 276.31 258.54 276.62 258.75 C 276.94 258.96 274.19 258.96 278.00 259.00 C 281.81 259.04 295.83 259.50 299.50 259.00 C 303.17 258.50 299.90 261.04 300.00 256.00 C 300.10 250.96 299.96 235.94 300.12 228.75 C 300.29 221.56 300.88 218.31 301.00 212.88 C 301.12 207.44 300.71 203.25 300.88 196.12 C 301.04 189.00 301.81 176.79 302.00 170.12 C 302.19 163.46 301.88 159.42 302.00 156.12 C 302.12 152.83 302.60 152.54 302.75 150.38 C 302.90 148.21 302.56 145.31 302.88 143.12 C 303.19 140.94 304.29 138.96 304.62 137.25 C 304.96 135.54 306.33 135.58 304.88 132.88 C 303.42 130.17 297.92 123.48 295.88 121.00 C 293.83 118.52 294.06 118.81 292.62 118.00 C 291.19 117.19 289.02 116.62 287.25 116.12 C 285.48 115.62 284.12 115.19 282.00 115.00 C 279.88 114.81 276.21 114.81 274.50 115.00 Z" id="s-13-f-2"/>
<path d="M 273.88 115.12 C 272.10 115.35 271.98 115.96 271.38 116.38 C 270.77 116.79 270.50 116.94 270.25 117.62 C 270.00 118.31 269.75 119.40 269.88 120.50 C 270.00 121.60 270.35 122.90 271.00 124.25 C 271.65 125.60 272.79 126.83 273.75 128.62 C 274.71 130.42 275.94 132.83 276.75 135.00 C 277.56 137.17 278.17 139.56 278.62 141.62 C 279.08 143.69 279.31 144.12 279.50 147.38 C 279.69 150.62 279.85 150.62 279.75 161.12 C 279.65 171.62 278.98 202.08 278.88 210.38 C 278.77 218.67 278.85 210.77 279.12 210.88 C 279.40 210.98 276.92 211.00 280.50 211.00 C 284.08 211.00 297.21 211.06 300.62 210.88 C 304.04 210.69 300.96 212.31 301.00 209.88 C 301.04 207.44 300.71 202.90 300.88 196.25 C 301.04 189.60 301.81 176.69 302.00 170.00 C 302.19 163.31 301.88 159.38 302.00 156.12 C 302.12 152.88 302.60 152.67 302.75 150.50 C 302.90 148.33 302.56 145.33 302.88 143.12 C 303.19 140.92 304.31 139.06 304.62 137.25 C 304.94 135.44 306.42 135.21 304.75 132.25 C 303.08 129.29 296.65 121.88 294.62 119.50 C 292.60 117.12 293.85 118.56 292.62 118.00 C 291.40 117.44 289.02 116.62 287.25 116.12 C 285.48 115.62 284.23 115.17 282.00 115.00 C 279.77 114.83 275.65 114.90 273.88 115.12 Z" id="s-13-f-3"/>
<path d="M 271.75 116.12 C 271.00 116.67 270.29 117.31 270.00 118.25 C 269.71 119.19 269.04 119.35 270.00 121.75 C 270.96 124.15 274.46 129.92 275.75 132.62 C 277.04 135.33 277.12 135.54 277.75 138.00 C 278.38 140.46 279.12 143.27 279.50 147.38 C 279.88 151.48 276.31 160.04 280.00 162.62 C 283.69 165.21 297.96 162.94 301.62 162.88 C 305.29 162.81 301.94 163.38 302.00 162.25 C 302.06 161.12 301.88 158.04 302.00 156.12 C 302.12 154.21 302.60 152.90 302.75 150.75 C 302.90 148.60 302.56 145.50 302.88 143.25 C 303.19 141.00 304.31 139.08 304.62 137.25 C 304.94 135.42 306.42 135.21 304.75 132.25 C 303.08 129.29 296.65 121.88 294.62 119.50 C 292.60 117.12 293.85 118.56 292.62 118.00 C 291.40 117.44 289.02 116.62 287.25 116.12 C 285.48 115.62 284.12 115.19 282.00 115.00 C 279.88 114.81 276.21 114.81 274.50 115.00 C 272.79 115.19 272.50 115.58 271.75 116.12 Z" id="s-13-f-4"/>
</g>
<g id="s-14" clip-path="url(#c-s-14)">
<use href="#s-14-f-0"/>
<path d="M 294.12 118.88 C 293.90 119.08 292.04 117.38 293.75 119.75 C 295.46 122.12 300.58 131.12 304.38 133.12 C 308.17 135.12 312.69 132.31 316.50 131.75 C 320.31 131.19 320.96 131.21 327.25 129.75 C 333.54 128.29 346.48 124.81 354.25 123.00 C 362.02 121.19 369.19 119.71 373.88 118.88 C 378.56 118.04 380.54 118.00 382.38 118.00 C 384.21 118.00 384.17 118.50 384.88 118.88 C 385.58 119.25 386.15 119.75 386.62 120.25 C 387.10 120.75 387.40 120.90 387.75 121.88 C 388.10 122.85 388.58 124.33 388.75 126.12 C 388.92 127.92 388.90 129.83 388.75 132.62 C 388.60 135.42 388.71 136.29 387.88 142.88 C 387.04 149.46 384.77 165.58 383.75 172.12 C 382.73 178.67 382.42 179.27 381.75 182.12 C 381.08 184.98 379.94 185.75 379.75 189.25 C 379.56 192.75 380.42 200.69 380.62 203.12 C 380.83 205.56 377.65 203.73 381.00 203.88 C 384.35 204.02 397.10 204.08 400.75 204.00 C 404.40 203.92 402.04 204.58 402.88 203.38 C 403.71 202.17 402.38 207.33 405.75 196.75 C 409.12 186.17 419.56 150.77 423.12 139.88 C 426.69 128.98 425.88 133.54 427.12 131.38 C 428.38 129.21 429.83 128.21 430.62 126.88 C 431.42 125.54 431.69 124.46 431.88 123.38 C 432.06 122.29 432.00 121.25 431.75 120.38 C 431.50 119.50 431.77 119.54 430.38 118.12 C 428.98 116.71 425.54 113.56 423.38 111.88 C 421.21 110.19 421.33 109.81 417.38 108.00 C 413.42 106.19 403.75 102.50 399.62 101.00 C 395.50 99.50 394.58 99.33 392.62 99.00 C 390.67 98.67 389.56 98.81 387.88 99.00 C 386.19 99.19 385.56 99.27 382.50 100.12 C 379.44 100.98 373.85 102.67 369.50 104.12 C 365.15 105.58 361.44 107.27 356.38 108.88 C 351.31 110.48 344.23 112.44 339.12 113.75 C 334.02 115.06 330.77 115.77 325.75 116.75 C 320.73 117.73 313.00 119.31 309.00 119.62 C 305.00 119.94 304.06 118.81 301.75 118.62 C 299.44 118.44 296.40 118.46 295.12 118.50 C 293.85 118.54 294.35 118.67 294.12 118.88 Z" id="s-14-f-1"/>
<path d="M 431.88 123.38 C 432.08 122.27 432.00 121.25 431.75 120.38 C 431.50 119.50 431.77 119.54 430.38 118.12 C 428.98 116.71 425.54 113.56 423.38 111.88 C 421.21 110.19 421.33 109.81 417.38 108.00 C 413.42 106.19 403.75 102.50 399.62 101.00 C 395.50 99.50 394.58 99.33 392.62 99.00 C 390.67 98.67 389.56 98.81 387.88 99.00 C 386.19 99.19 385.56 99.27 382.50 100.12 C 379.44 100.98 373.85 102.67 369.50 104.12 C 365.15 105.58 361.44 107.27 356.38 108.88 C 351.31 110.48 344.23 112.44 339.12 113.75 C 334.02 115.06 330.77 115.77 325.75 116.75 C 320.73 117.73 313.00 119.31 309.00 119.62 C 305.00 119.94 304.06 118.81 301.75 118.62 C 299.44 118.44 296.40 118.46 295.12 118.50 C 293.85 118.54 294.35 118.67 294.12 118.88 C 293.90 119.08 292.00 117.40 293.75 119.75 C 295.50 122.10 300.83 131.00 304.62 133.00 C 308.42 135.00 312.73 132.29 316.50 131.75 C 320.27 131.21 322.48 130.85 327.25 129.75 C 332.02 128.65 337.48 126.92 345.12 125.12 C 352.77 123.33 367.31 120.19 373.12 119.00 C 378.94 117.81 378.27 118.12 380.00 118.00 C 381.73 117.88 382.35 117.83 383.50 118.25 C 384.65 118.67 386.17 119.90 386.88 120.50 C 387.58 121.10 387.46 121.12 387.75 121.88 C 388.04 122.62 388.46 123.12 388.62 125.00 C 388.79 126.88 388.88 130.15 388.75 133.12 C 388.62 136.10 388.35 139.29 387.88 142.88 C 387.40 146.46 386.15 152.46 385.88 154.62 C 385.60 156.79 380.88 155.69 386.25 155.88 C 391.62 156.06 411.98 158.42 418.12 155.75 C 424.27 153.08 421.62 143.92 423.12 139.88 C 424.62 135.83 425.90 133.65 427.12 131.50 C 428.35 129.35 429.71 128.35 430.50 127.00 C 431.29 125.65 431.67 124.48 431.88 123.38 Z" id="s-14-f-2"/>
<path d="M 416.00 107.50 C 412.83 106.04 400.42 101.42 396.50 100.00 C 392.58 98.58 393.96 99.17 392.50 99.00 C 391.04 98.83 390.56 98.48 387.75 99.00 C 384.94 99.52 381.35 100.33 375.62 102.12 C 369.90 103.92 359.46 107.81 353.38 109.75 C 347.29 111.69 343.73 112.58 339.12 113.75 C 334.52 114.92 330.77 115.77 325.75 116.75 C 320.73 117.73 313.00 119.31 309.00 119.62 C 305.00 119.94 304.04 118.81 301.75 118.62 C 299.46 118.44 296.52 118.46 295.25 118.50 C 293.98 118.54 294.38 118.67 294.12 118.88 C 293.88 119.08 292.06 117.40 293.75 119.75 C 295.44 122.10 301.79 130.83 304.25 133.00 C 306.71 135.17 304.69 133.29 308.50 132.75 C 312.31 132.21 317.33 131.85 327.12 129.75 C 336.92 127.65 357.44 122.27 367.25 120.12 C 377.06 117.98 379.10 118.52 386.00 116.88 C 392.90 115.23 403.71 111.60 408.62 110.25 C 413.54 108.90 414.27 109.21 415.50 108.75 C 416.73 108.29 419.17 108.96 416.00 107.50 Z" id="s-14-f-3"/>
<path d="M 389.88 99.50 C 389.73 96.98 389.50 99.08 389.12 99.00 C 388.75 98.92 388.73 98.81 387.62 99.00 C 386.52 99.19 388.21 98.33 382.50 100.12 C 376.79 101.92 360.60 107.48 353.38 109.75 C 346.15 112.02 343.73 112.58 339.12 113.75 C 334.52 114.92 330.77 115.77 325.75 116.75 C 320.73 117.73 313.00 119.31 309.00 119.62 C 305.00 119.94 304.04 118.81 301.75 118.62 C 299.46 118.44 296.50 118.48 295.25 118.50 C 294.00 118.52 294.50 118.54 294.25 118.75 C 294.00 118.96 292.08 117.38 293.75 119.75 C 295.42 122.12 300.46 131.00 304.25 133.00 C 308.04 135.00 312.69 132.29 316.50 131.75 C 320.31 131.21 320.08 131.38 327.12 129.75 C 334.17 128.12 351.08 123.79 358.75 122.00 C 366.42 120.21 369.35 119.69 373.12 119.00 C 376.90 118.31 378.67 118.40 381.38 117.88 C 384.08 117.35 387.94 116.50 389.38 115.88 C 390.81 115.25 389.92 116.85 390.00 114.12 C 390.08 111.40 390.02 102.02 389.88 99.50 Z" id="s-14-f-4"/>
<path d="M 342.00 125.50 C 342.25 123.46 342.10 116.33 342.00 114.25 C 341.90 112.17 344.08 112.58 341.38 113.00 C 338.67 113.42 331.15 115.65 325.75 116.75 C 320.35 117.85 313.00 119.31 309.00 119.62 C 305.00 119.94 304.04 118.81 301.75 118.62 C 299.46 118.44 296.52 118.46 295.25 118.50 C 293.98 118.54 294.38 118.67 294.12 118.88 C 293.88 119.08 292.06 117.40 293.75 119.75 C 295.44 122.10 299.52 131.17 304.25 133.00 C 308.98 134.83 316.08 131.83 322.12 130.75 C 328.17 129.67 337.19 127.38 340.50 126.50 C 343.81 125.62 341.75 127.54 342.00 125.50 Z" id="s-14-f-5"/>
</g>
<g id="s-15" clip-path="url(#c-s-15)">
<use href="#s-15-f-0"/>
<path d="M 349.75 150.00 C 349.65 147.62 352.48 149.00 349.25 149.62 C 346.02 150.25 338.29 152.38 330.38 153.75 C 322.46 155.12 306.54 155.08 301.75 157.88 C 296.96 160.67 301.29 168.33 301.62 170.50 C 301.96 172.67 301.48 170.85 303.75 170.88 C 306.02 170.90 310.92 170.98 315.25 170.62 C 319.58 170.27 324.06 169.69 329.75 168.75 C 335.44 167.81 346.02 165.81 349.38 165.00 C 352.73 164.19 349.81 166.38 349.88 163.88 C 349.94 161.38 349.85 152.38 349.75 150.00 Z" id="s-15-f-1"/>
</g>
<g id="s-16" clip-path="url(#c-s-16)">
<use href="#s-16-f-0"/>
<path d="M 348.62 191.00 C 348.19 189.04 350.54 190.21 346.25 191.00 C 341.96 191.79 330.42 194.44 322.88 195.75 C 315.33 197.06 304.73 198.29 301.00 198.88 C 297.27 199.46 300.58 196.81 300.50 199.25 C 300.42 201.69 300.44 211.06 300.50 213.50 C 300.56 215.94 299.73 213.88 300.88 213.88 C 302.02 213.88 304.83 213.83 307.38 213.50 C 309.92 213.17 309.29 212.77 316.12 211.88 C 322.96 210.98 342.92 209.65 348.38 208.12 C 353.83 206.60 348.83 205.60 348.88 202.75 C 348.92 199.90 349.06 192.96 348.62 191.00 Z" id="s-16-f-1"/>
</g>
<g id="s-17" clip-path="url(#c-s-17)">
<use href="#s-17-f-0"/>
<path d="M 395.62 227.88 C 395.23 225.44 395.19 227.42 393.50 227.12 C 391.81 226.83 388.00 226.33 385.50 226.12 C 383.00 225.92 383.69 224.79 378.50 225.88 C 373.31 226.96 361.50 230.81 354.38 232.62 C 347.25 234.44 344.85 235.04 335.75 236.75 C 326.65 238.46 305.79 239.58 299.75 242.88 C 293.71 246.17 299.42 254.17 299.50 256.50 C 299.58 258.83 298.56 256.81 300.25 256.88 C 301.94 256.94 305.81 257.10 309.62 256.88 C 313.44 256.65 314.50 256.73 323.12 255.50 C 331.75 254.27 349.33 251.60 361.38 249.50 C 373.42 247.40 389.62 244.17 395.38 242.88 C 401.12 241.58 395.83 244.25 395.88 241.75 C 395.92 239.25 396.02 230.31 395.62 227.88 Z" id="s-17-f-1"/>
<path d="M 347.88 234.38 C 347.71 231.73 349.75 233.46 347.00 234.00 C 344.25 234.54 339.25 236.15 331.38 237.62 C 323.50 239.10 305.06 239.73 299.75 242.88 C 294.44 246.02 299.42 254.17 299.50 256.50 C 299.58 258.83 297.75 256.85 300.25 256.88 C 302.75 256.90 306.65 257.48 314.50 256.62 C 322.35 255.77 341.79 252.88 347.38 251.75 C 352.96 250.62 347.92 252.77 348.00 249.88 C 348.08 246.98 348.04 237.02 347.88 234.38 Z" id="s-17-f-2"/>
</g>
<g id="s-18" clip-path="url(#c-s-18)">
<use href="#s-18-f-0"/>
<path d="M 298.25 274.12 C 297.79 273.19 297.75 274.12 297.62 275.62 C 297.50 277.12 297.85 279.15 297.50 283.12 C 297.15 287.10 295.83 296.29 295.50 299.50 C 295.17 302.71 295.35 301.83 295.50 302.38 C 295.65 302.92 294.88 303.31 296.38 302.75 C 297.88 302.19 300.79 300.29 304.50 299.00 C 308.21 297.71 310.85 296.67 318.62 295.00 C 326.40 293.33 342.15 290.48 351.12 289.00 C 360.10 287.52 366.33 286.81 372.50 286.12 C 378.67 285.44 380.48 285.23 388.12 284.88 C 395.77 284.52 412.52 284.00 418.38 284.00 C 424.23 284.00 422.04 284.54 423.25 284.88 C 424.46 285.21 424.75 285.42 425.62 286.00 C 426.50 286.58 427.81 287.67 428.50 288.38 C 429.19 289.08 429.23 288.94 429.75 290.25 C 430.27 291.56 431.29 293.98 431.62 296.25 C 431.96 298.52 432.04 295.67 431.75 303.88 C 431.46 312.08 430.52 334.71 429.88 345.50 C 429.23 356.29 428.56 362.69 427.88 368.62 C 427.19 374.56 426.44 377.71 425.75 381.12 C 425.06 384.54 424.62 386.17 423.75 389.12 C 422.88 392.08 421.85 395.60 420.50 398.88 C 419.15 402.15 417.44 405.79 415.62 408.75 C 413.81 411.71 411.35 414.62 409.62 416.62 C 407.90 418.62 406.58 419.73 405.25 420.75 C 403.92 421.77 402.65 422.44 401.62 422.75 C 400.60 423.06 401.27 423.12 399.12 422.62 C 396.98 422.12 394.15 421.54 388.75 419.75 C 383.35 417.96 370.52 413.17 366.75 411.88 C 362.98 410.58 366.25 409.75 366.12 412.00 C 366.00 414.25 363.40 419.79 366.00 425.38 C 368.60 430.96 378.27 440.83 381.75 445.50 C 385.23 450.17 385.19 451.19 386.88 453.38 C 388.56 455.56 390.08 456.90 391.88 458.62 C 393.67 460.35 395.92 462.54 397.62 463.75 C 399.33 464.96 400.73 465.56 402.12 465.88 C 403.52 466.19 403.98 466.29 406.00 465.62 C 408.02 464.96 411.88 463.19 414.25 461.88 C 416.62 460.56 418.29 459.25 420.25 457.75 C 422.21 456.25 423.58 455.31 426.00 452.88 C 428.42 450.44 432.81 445.42 434.75 443.12 C 436.69 440.83 436.31 441.29 437.62 439.12 C 438.94 436.96 440.94 433.83 442.62 430.12 C 444.31 426.42 446.23 421.58 447.75 416.88 C 449.27 412.17 450.44 407.94 451.75 401.88 C 453.06 395.81 454.46 388.42 455.62 380.50 C 456.79 372.58 457.88 363.60 458.75 354.38 C 459.62 345.15 460.33 331.40 460.88 325.12 C 461.42 318.85 461.31 320.19 462.00 316.75 C 462.69 313.31 464.19 307.33 465.00 304.50 C 465.81 301.67 465.75 302.12 466.88 299.75 C 468.00 297.38 470.77 292.42 471.75 290.25 C 472.73 288.08 472.58 288.00 472.75 286.75 C 472.92 285.50 473.02 283.75 472.75 282.75 C 472.48 281.75 472.02 281.56 471.12 280.75 C 470.23 279.94 469.75 279.31 467.38 277.88 C 465.00 276.44 461.35 274.25 456.88 272.12 C 452.40 270.00 444.56 266.67 440.50 265.12 C 436.44 263.58 436.88 262.79 432.50 262.88 C 428.12 262.96 423.35 264.58 414.25 265.62 C 405.15 266.67 387.38 268.04 377.88 269.12 C 368.38 270.21 365.33 270.79 357.25 272.12 C 349.17 273.46 338.33 275.35 329.38 277.12 C 320.42 278.90 308.02 281.81 303.50 282.75 C 298.98 283.69 302.77 283.00 302.25 282.75 C 301.73 282.50 301.04 282.69 300.38 281.25 C 299.71 279.81 298.71 275.06 298.25 274.12 Z" id="s-18-f-1"/>
<path d="M 298.38 274.12 C 297.94 273.02 297.90 273.12 297.75 274.62 C 297.60 276.12 297.69 280.94 297.50 283.12 C 297.31 285.31 296.83 285.69 296.62 287.75 C 296.42 289.81 296.42 293.85 296.25 295.50 C 296.08 297.15 295.75 296.48 295.62 297.62 C 295.50 298.77 295.44 301.52 295.50 302.38 C 295.56 303.23 294.50 303.31 296.00 302.75 C 297.50 302.19 300.73 300.29 304.50 299.00 C 308.27 297.71 310.85 296.67 318.62 295.00 C 326.40 293.33 341.81 290.50 351.12 289.00 C 360.44 287.50 368.33 286.69 374.50 286.00 C 380.67 285.31 380.81 285.21 388.12 284.88 C 395.44 284.54 412.52 284.00 418.38 284.00 C 424.23 284.00 422.04 284.54 423.25 284.88 C 424.46 285.21 424.75 285.42 425.62 286.00 C 426.50 286.58 427.65 287.29 428.50 288.38 C 429.35 289.46 430.21 290.94 430.75 292.50 C 431.29 294.06 431.90 288.92 431.75 297.75 C 431.60 306.58 430.54 333.50 429.88 345.50 C 429.21 357.50 428.44 363.81 427.75 369.75 C 427.06 375.69 426.42 377.90 425.75 381.12 C 425.08 384.35 424.62 386.17 423.75 389.12 C 422.88 392.08 421.85 395.60 420.50 398.88 C 419.15 402.15 417.58 405.46 415.62 408.75 C 413.67 412.04 413.52 411.38 408.75 418.62 C 403.98 425.88 390.60 446.48 387.00 452.25 C 383.40 458.02 385.81 451.71 387.12 453.25 C 388.44 454.79 393.12 459.75 394.88 461.50 C 396.62 463.25 396.60 463.06 397.62 463.75 C 398.65 464.44 399.60 465.31 401.00 465.62 C 402.40 465.94 403.79 466.25 406.00 465.62 C 408.21 465.00 411.88 463.19 414.25 461.88 C 416.62 460.56 418.29 459.25 420.25 457.75 C 422.21 456.25 423.58 455.31 426.00 452.88 C 428.42 450.44 432.44 446.04 434.75 443.12 C 437.06 440.21 438.56 437.54 439.88 435.38 C 441.19 433.21 441.31 433.21 442.62 430.12 C 443.94 427.04 446.23 421.58 447.75 416.88 C 449.27 412.17 450.29 409.00 451.75 401.88 C 453.21 394.75 455.19 383.52 456.50 374.12 C 457.81 364.73 458.90 353.67 459.62 345.50 C 460.35 337.33 460.48 329.92 460.88 325.12 C 461.27 320.33 461.31 320.19 462.00 316.75 C 462.69 313.31 464.19 307.33 465.00 304.50 C 465.81 301.67 465.75 302.12 466.88 299.75 C 468.00 297.38 470.77 292.42 471.75 290.25 C 472.73 288.08 472.58 288.00 472.75 286.75 C 472.92 285.50 473.02 283.75 472.75 282.75 C 472.48 281.75 472.02 281.56 471.12 280.75 C 470.23 279.94 469.75 279.31 467.38 277.88 C 465.00 276.44 461.35 274.25 456.88 272.12 C 452.40 270.00 444.56 266.67 440.50 265.12 C 436.44 263.58 437.06 262.77 432.50 262.88 C 427.94 262.98 422.23 264.71 413.12 265.75 C 404.02 266.79 387.19 268.06 377.88 269.12 C 368.56 270.19 365.31 270.79 357.25 272.12 C 349.19 273.46 338.46 275.35 329.50 277.12 C 320.54 278.90 308.04 281.81 303.50 282.75 C 298.96 283.69 302.77 283.00 302.25 282.75 C 301.73 282.50 301.02 282.69 300.38 281.25 C 299.73 279.81 298.81 275.23 298.38 274.12 Z" id="s-18-f-2"/>
<path d="M 298.25 274.12 C 297.79 273.19 297.75 274.12 297.62 275.62 C 297.50 277.12 297.67 281.10 297.50 283.12 C 297.33 285.15 296.83 285.73 296.62 287.75 C 296.42 289.77 296.42 293.60 296.25 295.25 C 296.08 296.90 295.75 296.44 295.62 297.62 C 295.50 298.81 295.44 301.52 295.50 302.38 C 295.56 303.23 294.50 303.31 296.00 302.75 C 297.50 302.19 300.73 300.29 304.50 299.00 C 308.27 297.71 310.85 296.67 318.62 295.00 C 326.40 293.33 342.21 290.46 351.12 289.00 C 360.04 287.54 365.96 286.94 372.12 286.25 C 378.29 285.56 380.42 285.25 388.12 284.88 C 395.83 284.50 412.40 283.96 418.38 284.00 C 424.35 284.04 422.31 284.40 424.00 285.12 C 425.69 285.85 427.38 287.15 428.50 288.38 C 429.62 289.60 430.25 291.29 430.75 292.50 C 431.25 293.71 431.33 293.73 431.50 295.62 C 431.67 297.52 432.04 295.25 431.75 303.88 C 431.46 312.50 430.40 336.58 429.75 347.38 C 429.10 358.17 428.38 363.83 427.88 368.62 C 427.38 373.42 427.44 372.71 426.75 376.12 C 426.06 379.54 425.08 384.69 423.75 389.12 C 422.42 393.56 420.10 399.48 418.75 402.75 C 417.40 406.02 418.23 404.65 415.62 408.75 C 413.02 412.85 405.12 424.19 403.12 427.38 C 401.12 430.56 396.90 427.81 403.62 427.88 C 410.35 427.94 436.50 428.54 443.50 427.75 C 450.50 426.96 444.77 425.40 445.62 423.12 C 446.48 420.85 447.29 419.23 448.62 414.12 C 449.96 409.02 452.10 400.85 453.62 392.50 C 455.15 384.15 456.75 371.83 457.75 364.00 C 458.75 356.17 459.10 351.98 459.62 345.50 C 460.15 339.02 460.48 329.92 460.88 325.12 C 461.27 320.33 461.31 320.19 462.00 316.75 C 462.69 313.31 464.19 307.33 465.00 304.50 C 465.81 301.67 465.94 301.69 466.88 299.75 C 467.81 297.81 469.67 294.96 470.62 292.88 C 471.58 290.79 472.25 288.83 472.62 287.25 C 473.00 285.67 473.02 284.35 472.88 283.38 C 472.73 282.40 473.17 282.60 471.75 281.38 C 470.33 280.15 466.85 277.54 464.38 276.00 C 461.90 274.46 460.85 273.94 456.88 272.12 C 452.90 270.31 444.56 266.67 440.50 265.12 C 436.44 263.58 437.06 262.77 432.50 262.88 C 427.94 262.98 422.23 264.71 413.12 265.75 C 404.02 266.79 387.19 268.06 377.88 269.12 C 368.56 270.19 365.31 270.79 357.25 272.12 C 349.19 273.46 338.46 275.35 329.50 277.12 C 320.54 278.90 308.04 281.81 303.50 282.75 C 298.96 283.69 302.77 283.00 302.25 282.75 C 301.73 282.50 301.04 282.69 300.38 281.25 C 299.71 279.81 298.71 275.06 298.25 274.12 Z" id="s-18-f-3"/>
<path d="M 472.88 283.38 C 472.71 282.48 472.19 281.94 471.75 281.38 C 471.31 280.81 471.77 281.06 470.25 280.00 C 468.73 278.94 466.81 277.17 462.62 275.00 C 458.44 272.83 449.35 268.83 445.12 267.00 C 440.90 265.17 439.38 264.69 437.25 264.00 C 435.12 263.31 436.21 262.60 432.38 262.88 C 428.54 263.15 423.33 264.58 414.25 265.62 C 405.17 266.67 387.38 268.04 377.88 269.12 C 368.38 270.21 365.33 270.79 357.25 272.12 C 349.17 273.46 338.33 275.35 329.38 277.12 C 320.42 278.90 308.12 281.85 303.50 282.75 C 298.88 283.65 302.15 282.75 301.62 282.50 C 301.10 282.25 300.94 282.65 300.38 281.25 C 299.81 279.85 298.71 275.06 298.25 274.12 C 297.79 273.19 297.75 274.06 297.62 275.62 C 297.50 277.19 297.67 281.48 297.50 283.50 C 297.33 285.52 296.96 284.60 296.62 287.75 C 296.29 290.90 295.50 299.88 295.50 302.38 C 295.50 304.88 295.12 303.31 296.62 302.75 C 298.12 302.19 300.83 300.29 304.50 299.00 C 308.17 297.71 309.71 296.83 318.62 295.00 C 327.54 293.17 346.42 289.69 358.00 288.00 C 369.58 286.31 378.06 285.54 388.12 284.88 C 398.19 284.21 412.40 283.96 418.38 284.00 C 424.35 284.04 422.50 284.58 424.00 285.12 C 425.50 285.67 426.42 286.40 427.38 287.25 C 428.33 288.10 429.19 289.38 429.75 290.25 C 430.31 291.12 430.42 291.25 430.75 292.50 C 431.08 293.75 431.73 291.90 431.75 297.75 C 431.77 303.60 431.25 318.75 430.88 327.62 C 430.50 336.50 430.02 343.98 429.50 351.00 C 428.98 358.02 428.33 365.02 427.75 369.75 C 427.17 374.48 426.23 377.67 426.00 379.38 C 425.77 381.08 421.56 379.92 426.38 380.00 C 431.19 380.08 449.98 380.02 454.88 379.88 C 459.77 379.73 455.29 381.56 455.75 379.12 C 456.21 376.69 456.98 370.85 457.62 365.25 C 458.27 359.65 459.06 352.38 459.62 345.50 C 460.19 338.62 460.60 328.79 461.00 324.00 C 461.40 319.21 461.33 320.00 462.00 316.75 C 462.67 313.50 464.19 307.33 465.00 304.50 C 465.81 301.67 465.75 302.12 466.88 299.75 C 468.00 297.38 470.77 292.42 471.75 290.25 C 472.73 288.08 472.56 287.90 472.75 286.75 C 472.94 285.60 473.04 284.27 472.88 283.38 Z" id="s-18-f-4"/>
<path d="M 472.88 283.38 C 472.46 282.25 471.96 281.40 470.25 280.00 C 468.54 278.60 466.81 277.17 462.62 275.00 C 458.44 272.83 449.35 268.83 445.12 267.00 C 440.90 265.17 439.38 264.69 437.25 264.00 C 435.12 263.31 436.40 262.58 432.38 262.88 C 428.35 263.17 422.00 264.73 413.12 265.75 C 404.25 266.77 388.44 267.94 379.12 269.00 C 369.81 270.06 365.54 270.77 357.25 272.12 C 348.96 273.48 338.33 275.35 329.38 277.12 C 320.42 278.90 308.12 281.85 303.50 282.75 C 298.88 283.65 302.15 282.75 301.62 282.50 C 301.10 282.25 300.94 282.65 300.38 281.25 C 299.81 279.85 298.71 275.06 298.25 274.12 C 297.79 273.19 297.75 274.06 297.62 275.62 C 297.50 277.19 297.67 281.48 297.50 283.50 C 297.33 285.52 296.96 284.60 296.62 287.75 C 296.29 290.90 295.50 299.88 295.50 302.38 C 295.50 304.88 295.12 303.31 296.62 302.75 C 298.12 302.19 300.83 300.29 304.50 299.00 C 308.17 297.71 309.71 296.83 318.62 295.00 C 327.54 293.17 346.77 289.67 358.00 288.00 C 369.23 286.33 377.42 285.67 386.00 285.00 C 394.58 284.33 403.71 284.12 409.50 284.00 C 415.29 283.88 418.33 284.06 420.75 284.25 C 423.17 284.44 422.71 284.44 424.00 285.12 C 425.29 285.81 427.38 287.15 428.50 288.38 C 429.62 289.60 430.23 291.19 430.75 292.50 C 431.27 293.81 431.60 289.73 431.62 296.25 C 431.65 302.77 430.67 325.67 430.88 331.62 C 431.08 337.58 428.06 331.96 432.88 332.00 C 437.69 332.04 455.12 332.04 459.75 331.88 C 464.38 331.71 460.25 333.52 460.62 331.00 C 461.00 328.48 461.44 320.67 462.00 316.75 C 462.56 312.83 463.19 310.33 464.00 307.50 C 464.81 304.67 465.58 302.62 466.88 299.75 C 468.17 296.88 470.77 292.42 471.75 290.25 C 472.73 288.08 472.56 287.90 472.75 286.75 C 472.94 285.60 473.29 284.50 472.88 283.38 Z" id="s-18-f-5"/>
<path d="M 472.75 282.75 C 472.58 282.27 472.27 281.81 471.38 281.00 C 470.48 280.19 469.12 279.02 467.38 277.88 C 465.62 276.73 464.94 276.08 460.88 274.12 C 456.81 272.17 447.52 267.98 443.00 266.12 C 438.48 264.27 435.96 263.52 433.75 263.00 C 431.54 262.48 431.92 262.71 429.75 263.00 C 427.58 263.29 424.90 264.12 420.75 264.75 C 416.60 265.38 412.02 266.02 404.88 266.75 C 397.73 267.48 385.81 268.23 377.88 269.12 C 369.94 270.02 365.33 270.79 357.25 272.12 C 349.17 273.46 338.33 275.35 329.38 277.12 C 320.42 278.90 308.12 281.85 303.50 282.75 C 298.88 283.65 302.15 282.75 301.62 282.50 C 301.10 282.25 300.94 282.65 300.38 281.25 C 299.81 279.85 298.71 275.06 298.25 274.12 C 297.79 273.19 297.75 274.06 297.62 275.62 C 297.50 277.19 297.67 281.48 297.50 283.50 C 297.33 285.52 296.96 284.60 296.62 287.75 C 296.29 290.90 295.50 299.88 295.50 302.38 C 295.50 304.88 295.12 303.31 296.62 302.75 C 298.12 302.19 300.83 300.29 304.50 299.00 C 308.17 297.71 310.85 296.67 318.62 295.00 C 326.40 293.33 341.83 290.50 351.12 289.00 C 360.42 287.50 365.15 286.83 374.38 286.00 C 383.60 285.17 390.17 284.35 406.50 284.00 C 422.83 283.65 461.33 284.08 472.38 283.88 C 483.42 283.67 472.92 283.23 472.75 282.75 Z" id="s-18-f-6"/>
<path d="M 439.88 265.25 C 439.02 262.04 436.31 263.65 434.88 263.25 C 433.44 262.85 433.60 262.62 431.25 262.88 C 428.90 263.12 425.15 264.10 420.75 264.75 C 416.35 265.40 412.02 266.02 404.88 266.75 C 397.73 267.48 385.81 268.23 377.88 269.12 C 369.94 270.02 365.33 270.79 357.25 272.12 C 349.17 273.46 338.33 275.35 329.38 277.12 C 320.42 278.90 308.12 281.85 303.50 282.75 C 298.88 283.65 302.15 282.75 301.62 282.50 C 301.10 282.25 300.94 282.65 300.38 281.25 C 299.81 279.85 298.71 275.06 298.25 274.12 C 297.79 273.19 297.75 274.06 297.62 275.62 C 297.50 277.19 297.67 281.48 297.50 283.50 C 297.33 285.52 296.96 284.60 296.62 287.75 C 296.29 290.90 295.50 299.88 295.50 302.38 C 295.50 304.88 295.12 303.31 296.62 302.75 C 298.12 302.19 300.83 300.29 304.50 299.00 C 308.17 297.71 311.02 296.65 318.62 295.00 C 326.23 293.35 342.31 290.46 350.12 289.12 C 357.94 287.79 359.88 287.67 365.50 287.00 C 371.12 286.33 377.04 285.62 383.88 285.12 C 390.71 284.62 397.21 284.21 406.50 284.00 C 415.79 283.79 434.04 284.12 439.62 283.88 C 445.21 283.62 439.96 285.60 440.00 282.50 C 440.04 279.40 440.73 268.46 439.88 265.25 Z" id="s-18-f-7"/>
<path d="M 391.62 269.00 C 391.46 266.48 391.92 268.25 391.00 268.12 C 390.08 268.00 391.85 267.56 386.12 268.25 C 380.40 268.94 366.08 270.77 356.62 272.25 C 347.17 273.73 338.23 275.38 329.38 277.12 C 320.52 278.88 308.12 281.85 303.50 282.75 C 298.88 283.65 302.17 282.77 301.62 282.50 C 301.08 282.23 300.81 282.52 300.25 281.12 C 299.69 279.73 298.69 275.04 298.25 274.12 C 297.81 273.21 297.75 274.06 297.62 275.62 C 297.50 277.19 297.67 281.48 297.50 283.50 C 297.33 285.52 296.96 284.60 296.62 287.75 C 296.29 290.90 295.50 299.88 295.50 302.38 C 295.50 304.88 295.67 303.10 296.62 302.75 C 297.58 302.40 299.00 301.19 301.25 300.25 C 303.50 299.31 307.23 298.00 310.12 297.12 C 313.02 296.25 313.75 296.02 318.62 295.00 C 323.50 293.98 331.56 292.33 339.38 291.00 C 347.19 289.67 356.83 288.04 365.50 287.00 C 374.17 285.96 386.96 285.38 391.38 284.75 C 395.79 284.12 391.96 285.88 392.00 283.25 C 392.04 280.62 391.79 271.52 391.62 269.00 Z" id="s-18-f-8"/>
<path d="M 295.50 302.38 C 295.50 304.88 295.12 303.31 296.62 302.75 C 298.12 302.19 300.83 300.29 304.50 299.00 C 308.17 297.71 312.17 296.42 318.62 295.00 C 325.08 293.58 339.02 291.54 343.25 290.50 C 347.48 289.46 343.92 291.19 344.00 288.75 C 344.08 286.31 343.85 278.17 343.75 275.88 C 343.65 273.58 343.81 275.15 343.38 275.00 C 342.94 274.85 347.98 273.71 341.12 275.00 C 334.27 276.29 309.06 281.73 302.25 282.75 C 295.44 283.77 300.92 282.56 300.25 281.12 C 299.58 279.69 298.69 275.04 298.25 274.12 C 297.81 273.21 297.75 274.06 297.62 275.62 C 297.50 277.19 297.67 281.48 297.50 283.50 C 297.33 285.52 296.96 284.60 296.62 287.75 C 296.29 290.90 295.50 299.88 295.50 302.38 Z" id="s-18-f-9"/>
</g>
<g id="s-19" clip-path="url(#c-s-19)">
<use href="#s-19-f-0"/>
<path d="M 274.62 327.00 C 273.81 326.48 273.46 326.81 272.88 327.25 C 272.29 327.69 271.98 327.52 271.12 329.62 C 270.27 331.73 268.83 336.96 267.75 339.88 C 266.67 342.79 267.10 342.02 264.62 347.12 C 262.15 352.23 254.98 366.15 252.88 370.50 C 250.77 374.85 252.12 372.56 252.00 373.25 C 251.88 373.94 247.04 374.35 252.12 374.62 C 257.21 374.90 277.08 375.94 282.50 374.88 C 287.92 373.81 284.10 370.38 284.62 368.25 C 285.15 366.12 285.46 365.17 285.62 362.12 C 285.79 359.08 285.92 353.08 285.62 350.00 C 285.33 346.92 284.50 345.54 283.88 343.62 C 283.25 341.71 282.90 340.71 281.88 338.50 C 280.85 336.29 278.96 332.29 277.75 330.38 C 276.54 328.46 275.44 327.52 274.62 327.00 Z" id="s-19-f-1"/>
</g>
<g id="s-20" clip-path="url(#c-s-20)">
<use href="#s-20-f-0"/>
<path d="M 294.25 329.12 C 293.65 329.35 293.90 329.56 293.88 330.38 C 293.85 331.19 293.10 330.85 294.12 334.00 C 295.15 337.15 298.17 344.73 300.00 349.25 C 301.83 353.77 302.98 356.73 305.12 361.12 C 307.27 365.52 311.42 373.02 312.88 375.62 C 314.33 378.23 313.48 376.52 313.88 376.75 C 314.27 376.98 312.65 376.98 315.25 377.00 C 317.85 377.02 326.92 377.46 329.50 376.88 C 332.08 376.29 330.54 375.77 330.75 373.50 C 330.96 371.23 331.08 366.58 330.75 363.25 C 330.42 359.92 329.60 356.27 328.75 353.50 C 327.90 350.73 327.15 348.67 325.62 346.62 C 324.10 344.58 321.98 343.02 319.62 341.25 C 317.27 339.48 313.98 337.42 311.50 336.00 C 309.02 334.58 306.62 333.77 304.75 332.75 C 302.88 331.73 301.46 330.50 300.25 329.88 C 299.04 329.25 298.50 329.12 297.50 329.00 C 296.50 328.88 294.85 328.90 294.25 329.12 Z" id="s-20-f-1"/>
</g>
<g id="s-21" clip-path="url(#c-s-21)">
<use href="#s-21-f-0"/>
</g>
<g id="s-22" clip-path="url(#c-s-22)">
<use href="#s-22-f-0"/>
<path d="M 374.75 314.00 C 373.58 314.10 374.12 314.27 374.00 314.75 C 373.88 315.23 372.67 313.92 374.00 316.88 C 375.33 319.83 379.54 327.96 382.00 332.50 C 384.46 337.04 386.62 340.77 388.75 344.12 C 390.88 347.48 392.35 349.71 394.75 352.62 C 397.15 355.54 401.40 360.06 403.12 361.62 C 404.85 363.19 403.62 361.98 405.12 362.00 C 406.62 362.02 410.52 362.23 412.12 361.75 C 413.73 361.27 414.15 359.90 414.75 359.12 C 415.35 358.35 415.42 358.10 415.75 357.12 C 416.08 356.15 416.56 355.12 416.75 353.25 C 416.94 351.38 417.06 348.29 416.88 345.88 C 416.69 343.46 416.31 341.00 415.62 338.75 C 414.94 336.50 413.88 334.21 412.75 332.38 C 411.62 330.54 410.38 329.15 408.88 327.75 C 407.38 326.35 406.83 325.77 403.75 324.00 C 400.67 322.23 394.17 318.77 390.38 317.12 C 386.58 315.48 383.60 314.65 381.00 314.12 C 378.40 313.60 375.92 313.90 374.75 314.00 Z" id="s-22-f-1"/>
</g>
</svg>