<?xml version="1.0" encoding="UTF-8"?>
<svg xmlns="http://www.w3.org/2000/svg" viewBox="0 0 500 500">
<defs>
<path d="M 246.50 50.88 C 246.19 49.73 245.73 49.42 244.88 48.38 C 244.02 47.33 243.65 46.54 241.38 44.62 C 239.10 42.71 233.48 38.48 231.25 36.88 C 229.02 35.27 229.33 35.62 228.00 35.00 C 226.67 34.38 224.92 33.44 223.25 33.12 C 221.58 32.81 219.58 32.67 218.00 33.12 C 216.42 33.58 215.77 34.06 213.75 35.88 C 211.73 37.69 208.75 41.21 205.88 44.00 C 203.00 46.79 200.00 49.69 196.50 52.62 C 193.00 55.56 188.79 58.77 184.88 61.62 C 180.96 64.48 180.06 65.40 173.00 69.75 C 165.94 74.10 150.58 83.25 142.50 87.75 C 134.42 92.25 129.31 94.52 124.50 96.75 C 119.69 98.98 115.85 100.08 113.62 101.12 C 111.40 102.17 111.56 102.46 111.12 103.00 C 110.69 103.54 110.48 103.92 111.00 104.38 C 111.52 104.83 112.23 105.52 114.25 105.75 C 116.27 105.98 119.35 106.25 123.12 105.75 C 126.90 105.25 132.54 103.92 136.88 102.75 C 141.21 101.58 144.56 100.40 149.12 98.75 C 153.69 97.10 160.52 94.50 164.25 92.88 C 167.98 91.25 170.12 89.65 171.50 89.00 C 172.88 88.35 169.15 90.48 172.50 89.00 C 175.85 87.52 186.00 82.60 191.62 80.12 C 197.25 77.65 200.54 76.25 206.25 74.12 C 211.96 72.00 220.79 68.94 225.88 67.38 C 230.96 65.81 234.23 65.54 236.75 64.75 C 239.27 63.96 239.65 63.56 241.00 62.62 C 242.35 61.69 243.92 60.35 244.88 59.12 C 245.83 57.90 246.48 56.62 246.75 55.25 C 247.02 53.88 246.81 52.02 246.50 50.88 Z" id="s-0-f-0"/>
<clipPath id="c-s-0"><use href="#s-0-f-0"/></clipPath>
<path d="M 262.88 131.25 C 262.71 130.33 262.27 129.67 261.75 128.88 C 261.23 128.08 261.23 127.62 259.75 126.50 C 258.27 125.38 255.48 123.35 252.88 122.12 C 250.27 120.90 246.98 119.62 244.12 119.12 C 241.27 118.62 241.50 118.29 235.75 119.12 C 230.00 119.96 215.54 122.85 209.62 124.12 C 203.71 125.40 205.27 125.77 200.25 126.75 C 195.23 127.73 185.21 129.00 179.50 130.00 C 173.79 131.00 176.38 130.96 166.00 132.75 C 155.62 134.54 133.44 138.31 117.25 140.75 C 101.06 143.19 77.31 146.17 68.88 147.38 C 60.44 148.58 67.44 147.58 66.62 148.00 C 65.81 148.42 64.46 149.25 64.00 149.88 C 63.54 150.50 63.83 151.19 63.88 151.75 C 63.92 152.31 63.77 152.44 64.25 153.25 C 64.73 154.06 65.19 155.19 66.75 156.62 C 68.31 158.06 70.21 160.19 73.62 161.88 C 77.04 163.56 84.23 165.77 87.25 166.75 C 90.27 167.73 89.96 167.58 91.75 167.75 C 93.54 167.92 96.00 167.94 98.00 167.75 C 100.00 167.56 95.98 168.58 103.75 166.62 C 111.52 164.67 130.58 159.29 144.62 156.00 C 158.67 152.71 178.96 148.85 188.00 146.88 C 197.04 144.90 192.65 145.27 198.88 144.12 C 205.10 142.98 215.33 141.25 225.38 140.00 C 235.42 138.75 253.12 137.33 259.12 136.62 C 265.12 135.92 260.77 136.12 261.38 135.75 C 261.98 135.38 262.50 135.12 262.75 134.38 C 263.00 133.62 263.04 132.17 262.88 131.25 Z" id="s-1-f-0"/>
<clipPath id="c-s-1"><use href="#s-1-f-0"/></clipPath>
<path d="M 189.88 80.75 C 188.40 80.38 187.21 81.35 186.50 81.62 C 185.79 81.90 186.75 81.88 185.62 82.38 C 184.50 82.88 180.94 84.08 179.75 84.62 C 178.56 85.17 178.88 85.46 178.50 85.62 C 178.12 85.79 177.81 85.50 177.50 85.62 C 177.19 85.75 177.38 86.04 176.62 86.38 C 175.88 86.71 173.81 87.21 173.00 87.62 C 172.19 88.04 171.77 88.27 171.75 88.88 C 171.73 89.48 172.40 89.71 172.88 91.25 C 173.35 92.79 174.00 93.75 174.62 98.12 C 175.25 102.50 176.25 102.96 176.62 117.50 C 177.00 132.04 177.06 170.35 176.88 185.38 C 176.69 200.40 176.19 200.27 175.50 207.62 C 174.81 214.98 173.48 224.85 172.75 229.50 C 172.02 234.15 171.42 233.42 171.12 235.50 C 170.83 237.58 170.65 239.44 171.00 242.00 C 171.35 244.56 171.92 247.17 173.25 250.88 C 174.58 254.58 177.54 261.23 179.00 264.25 C 180.46 267.27 181.06 267.71 182.00 269.00 C 182.94 270.29 183.58 271.19 184.62 272.00 C 185.67 272.81 187.38 273.58 188.25 273.88 C 189.12 274.17 189.27 274.04 189.88 273.75 C 190.48 273.46 190.73 273.67 191.88 272.12 C 193.02 270.58 195.79 266.75 196.75 264.50 C 197.71 262.25 197.31 261.94 197.62 258.62 C 197.94 255.31 198.23 259.29 198.62 244.62 C 199.02 229.96 199.79 187.35 200.00 170.62 C 200.21 153.90 199.83 148.79 199.88 144.25 C 199.92 139.71 200.27 148.33 200.25 143.38 C 200.23 138.42 199.77 121.42 199.75 114.50 C 199.73 107.58 199.94 105.00 200.12 101.88 C 200.31 98.75 200.77 97.52 200.88 95.75 C 200.98 93.98 201.10 92.67 200.75 91.25 C 200.40 89.83 199.65 88.48 198.75 87.25 C 197.85 86.02 196.85 84.96 195.38 83.88 C 193.90 82.79 191.35 81.12 189.88 80.75 Z" id="s-2-f-0"/>
<clipPath id="c-s-2"><use href="#s-2-f-0"/></clipPath>
<path d="M 176.62 131.25 C 176.38 131.02 175.98 131.10 175.75 131.50 C 175.52 131.90 175.44 133.21 175.25 133.62 C 175.06 134.04 174.77 133.69 174.62 134.00 C 174.48 134.31 174.54 135.12 174.38 135.50 C 174.21 135.88 173.75 135.88 173.62 136.25 C 173.50 136.62 173.79 137.40 173.62 137.75 C 173.46 138.10 172.83 138.02 172.62 138.38 C 172.42 138.73 172.71 139.12 172.38 139.88 C 172.04 140.62 171.10 141.79 170.62 142.88 C 170.15 143.96 170.00 145.25 169.50 146.38 C 169.00 147.50 167.96 148.81 167.62 149.62 C 167.29 150.44 168.15 149.85 167.50 151.25 C 166.85 152.65 166.10 154.21 163.75 158.00 C 161.40 161.79 156.92 168.94 153.38 174.00 C 149.83 179.06 146.04 184.06 142.50 188.38 C 138.96 192.69 137.19 194.75 132.12 199.88 C 127.06 205.00 118.62 213.33 112.12 219.12 C 105.62 224.92 98.21 230.71 93.12 234.62 C 88.04 238.54 85.40 240.17 81.62 242.62 C 77.85 245.08 72.44 248.08 70.50 249.38 C 68.56 250.67 69.96 250.04 70.00 250.38 C 70.04 250.71 70.48 251.15 70.75 251.38 C 71.02 251.60 70.31 251.71 71.62 251.75 C 72.94 251.79 75.71 252.12 78.62 251.62 C 81.54 251.12 85.33 250.08 89.12 248.75 C 92.92 247.42 98.04 245.12 101.38 243.62 C 104.71 242.12 105.62 241.71 109.12 239.75 C 112.62 237.79 118.50 234.38 122.38 231.88 C 126.25 229.38 128.46 227.83 132.38 224.75 C 136.29 221.67 140.31 218.56 145.88 213.38 C 151.44 208.19 160.56 198.98 165.75 193.62 C 170.94 188.27 175.08 191.38 177.00 181.25 C 178.92 171.12 177.31 141.21 177.25 132.88 C 177.19 124.54 176.88 131.48 176.62 131.25 Z" id="s-3-f-0"/>
<clipPath id="c-s-3"><use href="#s-3-f-0"/></clipPath>
<path d="M 199.62 161.12 C 199.48 162.79 198.10 167.96 199.62 170.88 C 201.15 173.79 204.35 174.31 208.75 178.62 C 213.15 182.94 222.06 192.73 226.00 196.75 C 229.94 200.77 230.33 201.08 232.38 202.75 C 234.42 204.42 236.44 205.77 238.25 206.75 C 240.06 207.73 241.56 208.31 243.25 208.62 C 244.94 208.94 246.88 209.08 248.38 208.62 C 249.88 208.17 251.40 206.75 252.25 205.88 C 253.10 205.00 253.10 204.52 253.50 203.38 C 253.90 202.23 254.42 201.12 254.62 199.00 C 254.83 196.88 255.06 193.00 254.75 190.62 C 254.44 188.25 253.56 186.38 252.75 184.75 C 251.94 183.12 251.54 182.31 249.88 180.88 C 248.21 179.44 246.12 177.94 242.75 176.12 C 239.38 174.31 234.75 172.02 229.62 170.00 C 224.50 167.98 216.85 165.52 212.00 164.00 C 207.15 162.48 202.56 161.35 200.50 160.88 C 198.44 160.40 199.77 159.46 199.62 161.12 Z" id="s-4-f-0"/>
<clipPath id="c-s-4"><use href="#s-4-f-0"/></clipPath>
<path d="M 266.62 106.12 C 265.25 106.35 265.25 106.94 265.00 107.50 C 264.75 108.06 263.27 104.83 265.12 109.50 C 266.98 114.17 273.17 128.98 276.12 135.50 C 279.08 142.02 281.02 145.38 282.88 148.62 C 284.73 151.88 286.02 153.52 287.25 155.00 C 288.48 156.48 289.56 157.02 290.25 157.50 C 290.94 157.98 290.60 157.83 291.38 157.88 C 292.15 157.92 293.75 157.96 294.88 157.75 C 296.00 157.54 297.19 157.15 298.12 156.62 C 299.06 156.10 299.75 155.48 300.50 154.62 C 301.25 153.77 302.06 152.98 302.62 151.50 C 303.19 150.02 303.71 148.40 303.88 145.75 C 304.04 143.10 303.83 138.17 303.62 135.62 C 303.42 133.08 303.27 132.54 302.62 130.50 C 301.98 128.46 300.98 125.46 299.75 123.38 C 298.52 121.29 297.62 120.06 295.25 118.00 C 292.88 115.94 288.12 112.67 285.50 111.00 C 282.88 109.33 281.54 108.81 279.50 108.00 C 277.46 107.19 275.40 106.44 273.25 106.12 C 271.10 105.81 268.00 105.90 266.62 106.12 Z" id="s-5-f-0"/>
<clipPath id="c-s-5"><use href="#s-5-f-0"/></clipPath>
<path d="M 428.88 93.50 C 427.85 92.04 426.21 90.21 424.62 88.62 C 423.04 87.04 422.08 86.10 419.38 84.00 C 416.67 81.90 410.98 77.67 408.38 76.00 C 405.77 74.33 405.08 74.33 403.75 74.00 C 402.42 73.67 401.19 73.88 400.38 74.00 C 399.56 74.12 399.60 74.15 398.88 74.75 C 398.15 75.35 398.08 74.25 396.00 77.62 C 393.92 81.00 389.40 90.10 386.38 95.00 C 383.35 99.90 381.69 102.44 377.88 107.00 C 374.06 111.56 367.23 118.60 363.50 122.38 C 359.77 126.15 357.94 127.54 355.50 129.62 C 353.06 131.71 350.31 132.90 348.88 134.88 C 347.44 136.85 347.19 140.21 346.88 141.50 C 346.56 142.79 346.83 142.42 347.00 142.62 C 347.17 142.83 345.54 143.56 347.88 142.75 C 350.21 141.94 352.50 141.71 361.00 137.75 C 369.50 133.79 390.69 122.94 398.88 119.00 C 407.06 115.06 405.92 115.81 410.12 114.12 C 414.33 112.44 421.19 110.19 424.12 108.88 C 427.06 107.56 426.65 107.35 427.75 106.25 C 428.85 105.15 430.25 103.73 430.75 102.25 C 431.25 100.77 431.06 98.83 430.75 97.38 C 430.44 95.92 429.90 94.96 428.88 93.50 Z" id="s-6-f-0"/>
<clipPath id="c-s-6"><use href="#s-6-f-0"/></clipPath>
<path d="M 349.12 37.88 C 347.10 36.96 343.65 35.79 341.12 35.00 C 338.60 34.21 336.42 33.62 334.00 33.12 C 331.58 32.62 329.31 32.17 326.62 32.00 C 323.94 31.83 319.75 31.90 317.88 32.12 C 316.00 32.35 315.98 32.96 315.38 33.38 C 314.77 33.79 314.48 33.92 314.25 34.62 C 314.02 35.33 313.29 36.31 314.00 37.62 C 314.71 38.94 317.38 40.50 318.50 42.50 C 319.62 44.50 319.88 45.60 320.75 49.62 C 321.62 53.65 323.10 62.02 323.75 66.62 C 324.40 71.23 324.46 69.23 324.62 77.25 C 324.79 85.27 324.88 106.12 324.75 114.75 C 324.62 123.38 324.38 124.12 323.88 129.00 C 323.38 133.88 322.62 139.27 321.75 144.00 C 320.88 148.73 319.83 152.88 318.62 157.38 C 317.42 161.88 315.81 167.17 314.50 171.00 C 313.19 174.83 312.25 177.17 310.75 180.38 C 309.25 183.58 307.58 186.88 305.50 190.25 C 303.42 193.62 301.06 197.06 298.25 200.62 C 295.44 204.19 291.58 208.50 288.62 211.62 C 285.67 214.75 284.58 215.88 280.50 219.38 C 276.42 222.88 269.04 228.90 264.12 232.62 C 259.21 236.35 253.19 240.02 251.00 241.75 C 248.81 243.48 250.88 242.67 251.00 243.00 C 251.12 243.33 250.94 243.62 251.75 243.75 C 252.56 243.88 254.04 244.06 255.88 243.75 C 257.71 243.44 258.90 243.21 262.75 241.88 C 266.60 240.54 273.75 238.10 279.00 235.75 C 284.25 233.40 290.17 230.10 294.25 227.75 C 298.33 225.40 300.31 223.96 303.50 221.62 C 306.69 219.29 310.12 216.79 313.38 213.75 C 316.62 210.71 320.10 206.94 323.00 203.38 C 325.90 199.81 328.67 195.79 330.75 192.38 C 332.83 188.96 333.50 187.56 335.50 182.88 C 337.50 178.19 341.06 169.19 342.75 164.25 C 344.44 159.31 344.94 156.73 345.62 153.25 C 346.31 149.77 346.29 146.08 346.88 143.38 C 347.46 140.67 348.77 138.75 349.12 137.00 C 349.48 135.25 348.90 134.54 349.00 132.88 C 349.10 131.21 349.58 130.19 349.75 127.00 C 349.92 123.81 349.62 122.25 350.00 113.75 C 350.38 105.25 351.33 83.88 352.00 76.00 C 352.67 68.12 353.46 68.71 354.00 66.50 C 354.54 64.29 354.31 64.96 355.25 62.75 C 356.19 60.54 358.85 55.17 359.62 53.25 C 360.40 51.33 359.90 52.17 359.88 51.25 C 359.85 50.33 359.92 48.92 359.50 47.75 C 359.08 46.58 358.42 45.46 357.38 44.25 C 356.33 43.04 354.62 41.56 353.25 40.50 C 351.88 39.44 351.15 38.79 349.12 37.88 Z" id="s-7-f-0"/>
<clipPath id="c-s-7"><use href="#s-7-f-0"/></clipPath>
<path d="M 342.25 163.12 C 341.96 163.33 341.73 163.73 341.62 164.12 C 341.52 164.52 341.79 165.04 341.62 165.50 C 341.46 165.96 341.02 165.81 340.62 166.88 C 340.23 167.94 339.58 170.94 339.25 171.88 C 338.92 172.81 338.73 172.17 338.62 172.50 C 338.52 172.83 335.29 170.29 338.62 173.88 C 341.96 177.46 351.79 186.94 358.62 194.00 C 365.46 201.06 373.42 209.50 379.62 216.25 C 385.83 223.00 390.17 227.73 395.88 234.50 C 401.58 241.27 410.50 252.83 413.88 256.88 C 417.25 260.92 415.42 258.29 416.12 258.75 C 416.83 259.21 417.12 259.44 418.12 259.62 C 419.12 259.81 421.08 259.88 422.12 259.88 C 423.17 259.88 423.58 259.83 424.38 259.62 C 425.17 259.42 425.98 259.17 426.88 258.62 C 427.77 258.08 428.96 257.17 429.75 256.38 C 430.54 255.58 430.96 255.17 431.62 253.88 C 432.29 252.58 433.23 250.40 433.75 248.62 C 434.27 246.85 434.56 245.40 434.75 243.25 C 434.94 241.10 434.90 237.31 434.88 235.75 C 434.85 234.19 434.98 235.02 434.62 233.88 C 434.27 232.73 434.04 231.08 432.75 228.88 C 431.46 226.67 429.81 223.83 426.88 220.62 C 423.94 217.42 419.73 213.42 415.12 209.62 C 410.52 205.83 405.71 202.31 399.25 197.88 C 392.79 193.44 385.69 188.83 376.38 183.00 C 367.06 177.17 349.06 166.19 343.38 162.88 C 337.69 159.56 342.54 162.92 342.25 163.12 Z" id="s-8-f-0"/>
<clipPath id="c-s-8"><use href="#s-8-f-0"/></clipPath>
<path d="M 146.12 291.00 C 144.06 291.15 144.62 291.73 144.12 292.25 C 143.62 292.77 143.31 293.25 143.12 294.12 C 142.94 295.00 141.56 295.23 143.00 297.50 C 144.44 299.77 149.96 305.40 151.75 307.75 C 153.54 310.10 153.08 309.98 153.75 311.62 C 154.42 313.27 154.75 313.60 155.75 317.62 C 156.75 321.65 158.38 327.92 159.75 335.75 C 161.12 343.58 162.96 358.06 164.00 364.62 C 165.04 371.19 165.17 372.15 166.00 375.12 C 166.83 378.10 167.71 380.00 169.00 382.50 C 170.29 385.00 172.42 388.44 173.75 390.12 C 175.08 391.81 176.00 392.19 177.00 392.62 C 178.00 393.06 178.96 392.96 179.75 392.75 C 180.54 392.54 181.10 392.17 181.75 391.38 C 182.40 390.58 182.96 389.48 183.62 388.00 C 184.29 386.52 185.19 384.54 185.75 382.50 C 186.31 380.46 187.17 382.77 187.00 375.75 C 186.83 368.73 185.79 351.35 184.75 340.38 C 183.71 329.40 183.35 317.12 180.75 309.88 C 178.15 302.62 171.58 299.50 169.12 296.88 C 166.67 294.25 167.48 294.92 166.00 294.12 C 164.52 293.33 161.83 292.58 160.25 292.12 C 158.67 291.67 158.85 291.56 156.50 291.38 C 154.15 291.19 148.19 290.85 146.12 291.00 Z" id="s-9-f-0"/>
<clipPath id="c-s-9"><use href="#s-9-f-0"/></clipPath>
<path d="M 401.88 294.25 C 401.71 293.31 401.15 292.19 400.62 291.38 C 400.10 290.56 399.81 290.29 398.75 289.38 C 397.69 288.46 395.79 286.94 394.25 285.88 C 392.71 284.81 393.02 284.79 389.50 283.00 C 385.98 281.21 377.31 276.96 373.12 275.12 C 368.94 273.29 366.52 272.52 364.38 272.00 C 362.23 271.48 368.54 270.88 360.25 272.00 C 351.96 273.12 327.33 276.96 314.62 278.75 C 301.92 280.54 290.02 282.04 284.00 282.75 C 277.98 283.46 285.67 282.17 278.50 283.00 C 271.33 283.83 258.54 285.92 241.00 287.75 C 223.46 289.58 185.50 292.81 173.25 294.00 C 161.00 295.19 168.60 294.58 167.50 294.88 C 166.40 295.17 165.60 294.50 166.62 295.75 C 167.65 297.00 171.38 300.00 173.62 302.38 C 175.88 304.75 177.62 308.81 180.12 310.00 C 182.62 311.19 177.21 310.83 188.62 309.50 C 200.04 308.17 237.71 303.27 248.62 302.00 C 259.54 300.73 248.46 302.40 254.12 301.88 C 259.79 301.35 276.65 299.40 282.62 298.88 C 288.60 298.35 287.73 298.92 290.00 298.75 C 292.27 298.58 288.00 298.50 296.25 297.88 C 304.50 297.25 330.79 295.44 339.50 295.00 C 348.21 294.56 346.60 295.08 348.50 295.25 C 350.40 295.42 350.21 295.62 350.88 296.00 C 351.54 296.38 352.19 296.62 352.50 297.50 C 352.81 298.38 352.88 298.83 352.75 301.25 C 352.62 303.67 352.54 305.65 351.75 312.00 C 350.96 318.35 348.65 334.10 348.00 339.38 C 347.35 344.65 347.60 342.71 347.88 343.62 C 348.15 344.54 346.75 343.77 349.62 344.88 C 352.50 345.98 362.42 349.25 365.12 350.25 C 367.83 351.25 365.58 350.77 365.88 350.88 C 366.17 350.98 366.42 351.19 366.88 350.88 C 367.33 350.56 364.79 355.42 368.62 349.00 C 372.46 342.58 385.38 319.81 389.88 312.38 C 394.38 304.94 393.83 306.60 395.62 304.38 C 397.42 302.15 399.62 300.23 400.62 299.00 C 401.62 297.77 401.42 297.79 401.62 297.00 C 401.83 296.21 402.04 295.19 401.88 294.25 Z" id="s-10-f-0"/>
<clipPath id="c-s-10"><use href="#s-10-f-0"/></clipPath>
<path d="M 374.88 359.00 C 374.73 358.25 374.29 357.42 373.88 356.75 C 373.46 356.08 373.75 356.19 372.38 355.00 C 371.00 353.81 367.50 350.73 365.62 349.62 C 363.75 348.52 362.02 348.71 361.12 348.38 C 360.23 348.04 362.12 348.31 360.25 347.62 C 358.38 346.94 351.71 344.92 349.88 344.25 C 348.04 343.58 350.83 343.67 349.25 343.62 C 347.67 343.58 346.21 343.40 340.38 344.00 C 334.54 344.60 324.00 345.79 314.25 347.25 C 304.50 348.71 288.10 351.81 281.88 352.75 C 275.65 353.69 285.62 352.04 276.88 352.88 C 268.12 353.71 244.35 356.44 229.38 357.75 C 214.40 359.06 194.31 360.17 187.00 360.75 C 179.69 361.33 185.73 359.96 185.50 361.25 C 185.27 362.54 185.42 366.06 185.62 368.50 C 185.83 370.94 186.00 374.50 186.75 375.88 C 187.50 377.25 186.54 376.62 190.12 376.75 C 193.71 376.88 197.35 377.27 208.25 376.62 C 219.15 375.98 236.85 374.67 255.50 372.88 C 274.15 371.08 304.75 367.31 320.12 365.88 C 335.50 364.44 339.35 364.60 347.75 364.25 C 356.15 363.90 366.23 364.00 370.50 363.75 C 374.77 363.50 372.67 363.17 373.38 362.75 C 374.08 362.33 374.50 361.88 374.75 361.25 C 375.00 360.62 375.02 359.75 374.88 359.00 Z" id="s-11-f-0"/>
<clipPath id="c-s-11"><use href="#s-11-f-0"/></clipPath>
<path d="M 249.50 247.88 C 247.88 247.92 247.06 247.92 245.88 248.25 C 244.69 248.58 243.33 249.06 242.38 249.88 C 241.42 250.69 240.54 252.00 240.12 253.12 C 239.71 254.25 239.73 255.46 239.88 256.62 C 240.02 257.79 239.85 257.96 241.00 260.12 C 242.15 262.29 245.44 267.12 246.75 269.62 C 248.06 272.12 248.35 273.33 248.88 275.12 C 249.40 276.92 249.77 276.00 249.88 280.38 C 249.98 284.75 249.50 297.67 249.50 301.38 C 249.50 305.08 249.67 294.79 249.88 302.62 C 250.08 310.46 250.62 337.77 250.75 348.38 C 250.88 358.98 250.44 361.94 250.62 366.25 C 250.81 370.56 251.52 365.50 251.88 374.25 C 252.23 383.00 252.48 410.69 252.75 418.75 C 253.02 426.81 253.19 421.92 253.50 422.62 C 253.81 423.33 250.46 423.44 254.62 423.00 C 258.79 422.56 274.46 420.60 278.50 420.00 C 282.54 419.40 278.65 427.67 278.88 419.38 C 279.10 411.08 279.50 379.52 279.88 370.25 C 280.25 360.98 280.94 367.90 281.12 363.75 C 281.31 359.60 280.88 356.12 281.00 345.38 C 281.12 334.62 281.52 307.88 281.88 299.25 C 282.23 290.62 282.92 296.60 283.12 293.62 C 283.33 290.65 282.81 284.88 283.12 281.38 C 283.44 277.88 284.42 274.79 285.00 272.62 C 285.58 270.46 286.31 269.94 286.62 268.38 C 286.94 266.81 286.88 264.38 286.88 263.25 C 286.88 262.12 287.04 262.42 286.62 261.62 C 286.21 260.83 285.33 259.44 284.38 258.50 C 283.42 257.56 282.12 256.73 280.88 256.00 C 279.62 255.27 280.02 255.27 276.88 254.12 C 273.73 252.98 265.54 250.15 262.00 249.12 C 258.46 248.10 257.71 248.21 255.62 248.00 C 253.54 247.79 251.12 247.83 249.50 247.88 Z" id="s-12-f-0"/>
<clipPath id="c-s-12"><use href="#s-12-f-0"/></clipPath>
<path d="M 373.62 421.50 C 372.33 419.38 366.54 411.98 364.88 409.88 C 363.21 407.77 364.02 409.04 363.62 408.88 C 363.23 408.71 363.21 408.73 362.50 408.88 C 361.79 409.02 363.56 409.10 359.38 409.75 C 355.19 410.40 350.58 411.08 337.38 412.75 C 324.17 414.42 290.69 418.60 280.12 419.75 C 269.56 420.90 275.60 419.50 274.00 419.62 C 272.40 419.75 273.48 420.15 270.50 420.50 C 267.52 420.85 259.15 421.35 256.12 421.75 C 253.10 422.15 264.50 421.54 252.38 422.88 C 240.25 424.21 201.83 428.27 183.38 429.75 C 164.92 431.23 150.02 431.62 141.62 431.75 C 133.23 431.88 136.19 431.10 133.00 430.50 C 129.81 429.90 125.40 428.54 122.50 428.12 C 119.60 427.71 117.15 427.88 115.62 428.00 C 114.10 428.12 114.00 428.50 113.38 428.88 C 112.75 429.25 112.27 429.75 111.88 430.25 C 111.48 430.75 111.12 430.96 111.00 431.88 C 110.88 432.79 110.79 434.52 111.12 435.75 C 111.46 436.98 112.23 438.06 113.00 439.25 C 113.77 440.44 113.67 440.46 115.75 442.88 C 117.83 445.29 122.40 450.75 125.50 453.75 C 128.60 456.75 131.85 459.06 134.38 460.88 C 136.90 462.69 138.54 463.65 140.62 464.62 C 142.71 465.60 145.02 466.38 146.88 466.75 C 148.73 467.12 149.58 467.04 151.75 466.88 C 153.92 466.71 152.71 467.56 159.88 465.75 C 167.04 463.94 184.50 458.62 194.75 456.00 C 205.00 453.38 191.73 455.56 221.38 450.00 C 251.02 444.44 347.25 427.38 372.62 422.62 C 398.00 417.88 374.92 423.62 373.62 421.50 Z" id="s-13-f-0"/>
<clipPath id="c-s-13"><use href="#s-13-f-0"/></clipPath>
<path d="M 343.75 379.00 C 342.71 379.08 343.15 379.35 343.00 379.75 C 342.85 380.15 342.73 380.60 342.88 381.38 C 343.02 382.15 343.25 383.27 343.88 384.38 C 344.50 385.48 345.00 386.17 346.62 388.00 C 348.25 389.83 350.83 392.00 353.62 395.38 C 356.42 398.75 361.52 405.65 363.38 408.25 C 365.23 410.85 363.21 408.85 364.75 411.00 C 366.29 413.15 371.15 419.33 372.62 421.12 C 374.10 422.92 372.92 420.88 373.62 421.75 C 374.33 422.62 375.83 424.62 376.88 426.38 C 377.92 428.12 378.35 429.77 379.88 432.25 C 381.40 434.73 383.62 438.02 386.00 441.25 C 388.38 444.48 391.40 448.48 394.12 451.62 C 396.85 454.77 399.77 457.79 402.38 460.12 C 404.98 462.46 408.08 464.52 409.75 465.62 C 411.42 466.73 411.50 466.54 412.38 466.75 C 413.25 466.96 414.33 466.88 415.00 466.88 C 415.67 466.88 415.69 466.98 416.38 466.75 C 417.06 466.52 418.06 466.40 419.12 465.50 C 420.19 464.60 421.65 463.25 422.75 461.38 C 423.85 459.50 425.08 456.19 425.75 454.25 C 426.42 452.31 426.56 451.60 426.75 449.75 C 426.94 447.90 427.06 445.69 426.88 443.12 C 426.69 440.56 426.15 436.81 425.62 434.38 C 425.10 431.94 424.54 430.46 423.75 428.50 C 422.96 426.54 421.83 424.25 420.88 422.62 C 419.92 421.00 420.15 421.02 418.00 418.75 C 415.85 416.48 412.15 412.48 408.00 409.00 C 403.85 405.52 398.98 401.35 393.12 397.88 C 387.27 394.40 378.62 390.77 372.88 388.12 C 367.12 385.48 362.56 383.48 358.62 382.00 C 354.69 380.52 351.73 379.75 349.25 379.25 C 346.77 378.75 344.79 378.92 343.75 379.00 Z" id="s-14-f-0"/>
<clipPath id="c-s-14"><use href="#s-14-f-0"/></clipPath>
</defs>
<g id="s-0" clip-path="url(#c-s-0)">
<use href="#s-0-f-0"/>
<path d="M 246.50 50.88 C 246.19 49.73 245.73 49.42 244.88 48.38 C 244.02 47.33 243.65 46.54 241.38 44.62 C 239.10 42.71 233.48 38.48 231.25 36.88 C 229.02 35.27 229.33 35.62 228.00 35.00 C 226.67 34.38 224.92 33.44 223.25 33.12 C 221.58 32.81 219.58 32.67 218.00 33.12 C 216.42 33.58 215.77 34.06 213.75 35.88 C 211.73 37.69 208.75 41.21 205.88 44.00 C 203.00 46.79 200.00 49.69 196.50 52.62 C 193.00 55.56 188.79 58.77 184.88 61.62 C 180.96 64.48 178.42 66.38 173.00 69.75 C 167.58 73.12 155.92 79.54 152.38 81.88 C 148.83 84.21 151.83 81.23 151.75 83.75 C 151.67 86.27 151.73 94.73 151.88 97.00 C 152.02 99.27 150.56 98.06 152.62 97.38 C 154.69 96.69 161.10 94.27 164.25 92.88 C 167.40 91.48 170.12 89.65 171.50 89.00 C 172.88 88.35 169.15 90.48 172.50 89.00 C 175.85 87.52 186.00 82.60 191.62 80.12 C 197.25 77.65 200.33 76.31 206.25 74.12 C 212.17 71.94 222.54 68.42 227.12 67.00 C 231.71 65.58 231.77 66.17 233.75 65.62 C 235.73 65.08 237.56 64.42 239.00 63.75 C 240.44 63.08 241.27 62.58 242.38 61.62 C 243.48 60.67 244.90 59.06 245.62 58.00 C 246.35 56.94 246.60 56.44 246.75 55.25 C 246.90 54.06 246.81 52.02 246.50 50.88 Z" id="s-0-f-1"/>
<path d="M 246.38 50.62 C 245.79 49.17 244.58 47.94 243.25 46.50 C 241.92 45.06 240.92 43.92 238.38 42.00 C 235.83 40.08 230.65 36.50 228.00 35.00 C 225.35 33.50 224.10 33.33 222.50 33.00 C 220.90 32.67 219.83 32.52 218.38 33.00 C 216.92 33.48 216.83 33.12 213.75 35.88 C 210.67 38.62 202.19 42.75 199.88 49.50 C 197.56 56.25 199.75 71.85 199.88 76.38 C 200.00 80.90 197.69 77.69 200.62 76.62 C 203.56 75.56 213.08 71.60 217.50 70.00 C 221.92 68.40 224.42 67.73 227.12 67.00 C 229.83 66.27 231.77 66.17 233.75 65.62 C 235.73 65.08 237.56 64.42 239.00 63.75 C 240.44 63.08 241.27 62.58 242.38 61.62 C 243.48 60.67 244.90 59.06 245.62 58.00 C 246.35 56.94 246.62 56.48 246.75 55.25 C 246.88 54.02 246.96 52.08 246.38 50.62 Z" id="s-0-f-2"/>
</g>
<g id="s-1" clip-path="url(#c-s-1)">
<use href="#s-1-f-0"/>
<path d="M 256.00 125.00 C 255.96 123.04 255.98 124.33 255.75 124.00 C 255.52 123.67 255.98 123.67 254.62 123.00 C 253.27 122.33 249.52 120.67 247.62 120.00 C 245.73 119.33 245.23 119.15 243.25 119.00 C 241.27 118.85 241.35 118.27 235.75 119.12 C 230.15 119.98 215.54 122.85 209.62 124.12 C 203.71 125.40 205.27 125.77 200.25 126.75 C 195.23 127.73 185.21 129.00 179.50 130.00 C 173.79 131.00 176.38 130.96 166.00 132.75 C 155.62 134.54 133.44 138.31 117.25 140.75 C 101.06 143.19 77.31 146.17 68.88 147.38 C 60.44 148.58 67.44 147.58 66.62 148.00 C 65.81 148.42 64.46 149.25 64.00 149.88 C 63.54 150.50 63.83 151.19 63.88 151.75 C 63.92 152.31 63.77 152.44 64.25 153.25 C 64.73 154.06 65.19 155.19 66.75 156.62 C 68.31 158.06 70.21 160.19 73.62 161.88 C 77.04 163.56 84.23 165.77 87.25 166.75 C 90.27 167.73 89.96 167.58 91.75 167.75 C 93.54 167.92 96.00 167.94 98.00 167.75 C 100.00 167.56 95.98 168.58 103.75 166.62 C 111.52 164.67 130.58 159.29 144.62 156.00 C 158.67 152.71 178.96 148.85 188.00 146.88 C 197.04 144.90 192.62 145.27 198.88 144.12 C 205.12 142.98 216.08 141.21 225.50 140.00 C 234.92 138.79 250.29 137.58 255.38 136.88 C 260.46 136.17 255.90 137.73 256.00 135.75 C 256.10 133.77 256.04 126.96 256.00 125.00 Z" id="s-1-f-1"/>
<path d="M 207.50 125.00 C 207.29 122.08 207.83 124.58 206.62 124.88 C 205.42 125.17 201.77 126.42 200.25 126.75 C 198.73 127.08 202.25 126.04 197.50 126.88 C 192.75 127.71 182.88 129.79 171.75 131.75 C 160.62 133.71 143.25 136.62 130.75 138.62 C 118.25 140.62 106.73 142.35 96.75 143.75 C 86.77 145.15 75.90 146.29 70.88 147.00 C 65.85 147.71 67.77 147.52 66.62 148.00 C 65.48 148.48 64.44 149.12 64.00 149.88 C 63.56 150.62 63.46 151.29 64.00 152.50 C 64.54 153.71 66.15 155.90 67.25 157.12 C 68.35 158.35 69.29 158.96 70.62 159.88 C 71.96 160.79 71.94 161.35 75.25 162.62 C 78.56 163.90 86.69 166.65 90.50 167.50 C 94.31 168.35 89.10 169.67 98.12 167.75 C 107.15 165.83 129.65 159.48 144.62 156.00 C 159.60 152.52 178.96 148.85 188.00 146.88 C 197.04 144.90 195.67 144.81 198.88 144.12 C 202.08 143.44 205.75 143.04 207.25 142.75 C 208.75 142.46 207.83 145.33 207.88 142.38 C 207.92 139.42 207.71 127.92 207.50 125.00 Z" id="s-1-f-2"/>
<path d="M 160.00 135.38 C 159.90 132.52 159.83 134.23 159.38 134.00 C 158.92 133.77 166.35 132.56 157.25 134.00 C 148.15 135.44 119.15 140.46 104.75 142.62 C 90.35 144.79 77.48 145.96 70.88 147.00 C 64.27 148.04 66.27 148.40 65.12 148.88 C 63.98 149.35 64.19 149.27 64.00 149.88 C 63.81 150.48 63.46 151.29 64.00 152.50 C 64.54 153.71 66.15 155.90 67.25 157.12 C 68.35 158.35 69.29 158.96 70.62 159.88 C 71.96 160.79 72.56 161.50 75.25 162.62 C 77.94 163.75 84.06 165.77 86.75 166.62 C 89.44 167.48 89.35 167.58 91.38 167.75 C 93.40 167.92 90.00 169.58 98.88 167.62 C 107.75 165.67 134.50 158.48 144.62 156.00 C 154.75 153.52 157.06 153.56 159.62 152.75 C 162.19 151.94 159.94 154.02 160.00 151.12 C 160.06 148.23 160.10 138.23 160.00 135.38 Z" id="s-1-f-3"/>
<path d="M 111.88 163.75 C 112.00 160.21 112.00 147.02 112.00 143.38 C 112.00 139.73 111.98 142.17 111.88 141.88 C 111.77 141.58 118.21 140.77 111.38 141.62 C 104.54 142.48 78.23 145.96 70.88 147.00 C 63.52 148.04 68.40 147.40 67.25 147.88 C 66.10 148.35 64.50 148.98 64.00 149.88 C 63.50 150.77 63.85 152.19 64.25 153.25 C 64.65 154.31 65.46 155.25 66.38 156.25 C 67.29 157.25 68.27 158.19 69.75 159.25 C 71.23 160.31 72.42 161.40 75.25 162.62 C 78.08 163.85 84.06 165.77 86.75 166.62 C 89.44 167.48 89.50 167.56 91.38 167.75 C 93.25 167.94 94.69 168.27 98.00 167.75 C 101.31 167.23 108.94 165.29 111.25 164.62 C 113.56 163.96 111.75 167.29 111.88 163.75 Z" id="s-1-f-4"/>
</g>
<g id="s-2" clip-path="url(#c-s-2)">
<use href="#s-2-f-0"/>
<path d="M 189.88 80.75 C 188.40 80.38 187.21 81.35 186.50 81.62 C 185.79 81.90 186.75 81.88 185.62 82.38 C 184.50 82.88 180.94 84.08 179.75 84.62 C 178.56 85.17 178.88 85.46 178.50 85.62 C 178.12 85.79 177.81 85.50 177.50 85.62 C 177.19 85.75 177.38 86.04 176.62 86.38 C 175.88 86.71 173.81 87.21 173.00 87.62 C 172.19 88.04 171.77 88.27 171.75 88.88 C 171.73 89.48 172.40 89.71 172.88 91.25 C 173.35 92.79 174.00 93.75 174.62 98.12 C 175.25 102.50 176.25 102.96 176.62 117.50 C 177.00 132.04 177.06 170.35 176.88 185.38 C 176.69 200.40 176.19 200.27 175.50 207.62 C 174.81 214.98 173.48 224.85 172.75 229.50 C 172.02 234.15 171.42 233.42 171.12 235.50 C 170.83 237.58 170.65 239.44 171.00 242.00 C 171.35 244.56 171.92 247.17 173.25 250.88 C 174.58 254.58 177.42 261.06 179.00 264.25 C 180.58 267.44 181.69 268.60 182.75 270.00 C 183.81 271.40 184.69 272.12 185.38 272.62 C 186.06 273.12 185.96 272.96 186.88 273.00 C 187.79 273.04 189.83 273.29 190.88 272.88 C 191.92 272.46 192.15 271.90 193.12 270.50 C 194.10 269.10 196.00 266.48 196.75 264.50 C 197.50 262.52 197.27 263.08 197.62 258.62 C 197.98 254.17 198.48 252.42 198.88 237.75 C 199.27 223.08 199.77 189.04 200.00 170.62 C 200.23 152.21 200.29 136.60 200.25 127.25 C 200.21 117.90 199.65 120.33 199.75 114.50 C 199.85 108.67 200.88 96.54 200.88 92.25 C 200.88 87.96 200.25 89.75 199.75 88.75 C 199.25 87.75 198.60 87.06 197.88 86.25 C 197.15 85.44 196.71 84.79 195.38 83.88 C 194.04 82.96 191.35 81.12 189.88 80.75 Z" id="s-2-f-1"/>
<path d="M 189.88 80.75 C 188.40 80.38 187.21 81.35 186.50 81.62 C 185.79 81.90 186.75 81.88 185.62 82.38 C 184.50 82.88 180.94 84.08 179.75 84.62 C 178.56 85.17 178.88 85.46 178.50 85.62 C 178.12 85.79 177.81 85.50 177.50 85.62 C 177.19 85.75 177.38 86.04 176.62 86.38 C 175.88 86.71 173.81 87.21 173.00 87.62 C 172.19 88.04 171.77 88.27 171.75 88.88 C 171.73 89.48 172.40 89.71 172.88 91.25 C 173.35 92.79 174.12 95.35 174.62 98.12 C 175.12 100.90 175.52 103.54 175.88 107.88 C 176.23 112.21 176.60 110.29 176.75 124.12 C 176.90 137.96 176.96 176.96 176.75 190.88 C 176.54 204.79 176.06 202.08 175.50 207.62 C 174.94 213.17 173.62 221.25 173.38 224.12 C 173.12 227.00 171.00 224.75 174.00 224.88 C 177.00 225.00 187.21 225.02 191.38 224.88 C 195.54 224.73 197.56 233.04 199.00 224.00 C 200.44 214.96 199.85 183.92 200.00 170.62 C 200.15 157.33 199.83 148.79 199.88 144.25 C 199.92 139.71 200.27 148.33 200.25 143.38 C 200.23 138.42 199.65 123.02 199.75 114.50 C 199.85 105.98 200.88 96.54 200.88 92.25 C 200.88 87.96 200.25 89.75 199.75 88.75 C 199.25 87.75 198.60 87.06 197.88 86.25 C 197.15 85.44 196.71 84.79 195.38 83.88 C 194.04 82.96 191.35 81.12 189.88 80.75 Z" id="s-2-f-2"/>
<path d="M 189.88 80.75 C 188.40 80.38 187.21 81.35 186.50 81.62 C 185.79 81.90 186.75 81.88 185.62 82.38 C 184.50 82.88 180.94 84.08 179.75 84.62 C 178.56 85.17 178.88 85.46 178.50 85.62 C 178.12 85.79 177.81 85.50 177.50 85.62 C 177.19 85.75 177.38 86.04 176.62 86.38 C 175.88 86.71 173.81 87.21 173.00 87.62 C 172.19 88.04 171.77 88.27 171.75 88.88 C 171.73 89.48 172.40 89.71 172.88 91.25 C 173.35 92.79 174.00 93.75 174.62 98.12 C 175.25 102.50 176.27 104.52 176.62 117.50 C 176.98 130.48 176.67 166.10 176.75 176.00 C 176.83 185.90 173.52 176.75 177.12 176.88 C 180.73 177.00 194.58 176.85 198.38 176.75 C 202.17 176.65 199.56 184.50 199.88 176.25 C 200.19 168.00 200.27 137.54 200.25 127.25 C 200.23 116.96 199.65 120.33 199.75 114.50 C 199.85 108.67 200.88 96.54 200.88 92.25 C 200.88 87.96 200.25 89.75 199.75 88.75 C 199.25 87.75 198.60 87.06 197.88 86.25 C 197.15 85.44 196.71 84.79 195.38 83.88 C 194.04 82.96 191.35 81.12 189.88 80.75 Z" id="s-2-f-3"/>
<path d="M 189.00 80.75 C 186.04 81.83 175.88 86.27 173.00 87.62 C 170.12 88.98 171.77 88.27 171.75 88.88 C 171.73 89.48 172.42 89.79 172.88 91.25 C 173.33 92.71 174.02 95.10 174.50 97.62 C 174.98 100.15 175.33 101.35 175.75 106.38 C 176.17 111.40 176.73 124.02 177.00 127.75 C 177.27 131.48 177.21 128.54 177.38 128.75 C 177.54 128.96 174.31 128.92 178.00 129.00 C 181.69 129.08 195.79 129.31 199.50 129.25 C 203.21 129.19 200.21 131.10 200.25 128.62 C 200.29 126.15 199.79 118.46 199.75 114.38 C 199.71 110.29 199.81 107.23 200.00 104.12 C 200.19 101.02 200.75 97.90 200.88 95.75 C 201.00 93.60 201.10 92.67 200.75 91.25 C 200.40 89.83 199.50 88.35 198.75 87.25 C 198.00 86.15 197.58 85.65 196.25 84.62 C 194.92 83.60 191.96 81.77 190.75 81.12 C 189.54 80.48 191.96 79.67 189.00 80.75 Z" id="s-2-f-4"/>
</g>
<g id="s-3" clip-path="url(#c-s-3)">
<use href="#s-3-f-0"/>
<path d="M 176.62 131.25 C 176.38 131.02 175.98 131.10 175.75 131.50 C 175.52 131.90 175.44 133.21 175.25 133.62 C 175.06 134.04 174.77 133.69 174.62 134.00 C 174.48 134.31 174.54 135.12 174.38 135.50 C 174.21 135.88 173.75 135.88 173.62 136.25 C 173.50 136.62 173.79 137.40 173.62 137.75 C 173.46 138.10 172.83 138.02 172.62 138.38 C 172.42 138.73 172.71 139.12 172.38 139.88 C 172.04 140.62 171.10 141.79 170.62 142.88 C 170.15 143.96 170.00 145.25 169.50 146.38 C 169.00 147.50 167.96 148.81 167.62 149.62 C 167.29 150.44 168.15 149.85 167.50 151.25 C 166.85 152.65 165.42 155.21 163.75 158.00 C 162.08 160.79 160.42 163.73 157.50 168.00 C 154.58 172.27 150.48 178.31 146.25 183.62 C 142.02 188.94 137.81 193.96 132.12 199.88 C 126.44 205.79 117.96 213.83 112.12 219.12 C 106.29 224.42 102.15 227.77 97.12 231.62 C 92.10 235.48 84.54 239.10 82.00 242.25 C 79.46 245.40 81.73 249.08 81.88 250.50 C 82.02 251.92 81.67 251.04 82.88 250.75 C 84.08 250.46 86.04 249.94 89.12 248.75 C 92.21 247.56 98.04 245.12 101.38 243.62 C 104.71 242.12 105.62 241.71 109.12 239.75 C 112.62 237.79 118.50 234.38 122.38 231.88 C 126.25 229.38 128.98 227.38 132.38 224.75 C 135.77 222.12 139.31 219.15 142.75 216.12 C 146.19 213.10 149.17 210.38 153.00 206.62 C 156.83 202.88 161.75 197.85 165.75 193.62 C 169.75 189.40 175.08 191.38 177.00 181.25 C 178.92 171.12 177.31 141.21 177.25 132.88 C 177.19 124.54 176.88 131.48 176.62 131.25 Z" id="s-3-f-1"/>
<path d="M 176.62 131.25 C 176.38 131.02 175.98 131.10 175.75 131.50 C 175.52 131.90 175.44 133.21 175.25 133.62 C 175.06 134.04 174.77 133.69 174.62 134.00 C 174.48 134.31 174.54 135.12 174.38 135.50 C 174.21 135.88 173.75 135.88 173.62 136.25 C 173.50 136.62 173.79 137.40 173.62 137.75 C 173.46 138.10 172.83 138.02 172.62 138.38 C 172.42 138.73 172.71 139.12 172.38 139.88 C 172.04 140.62 171.29 141.38 170.62 142.88 C 169.96 144.38 168.88 147.75 168.38 148.88 C 167.88 150.00 167.77 149.23 167.62 149.62 C 167.48 150.02 169.19 148.19 167.50 151.25 C 165.81 154.31 161.71 161.77 157.50 168.00 C 153.29 174.23 146.85 182.92 142.25 188.62 C 137.65 194.33 131.96 196.29 129.88 202.25 C 127.79 208.21 129.71 220.42 129.75 224.38 C 129.79 228.33 129.69 225.94 130.12 226.00 C 130.56 226.06 130.44 226.25 132.38 224.75 C 134.31 223.25 138.31 220.02 141.75 217.00 C 145.19 213.98 149.00 210.52 153.00 206.62 C 157.00 202.73 161.73 197.90 165.75 193.62 C 169.77 189.35 175.21 191.12 177.12 181.00 C 179.04 170.88 177.33 141.17 177.25 132.88 C 177.17 124.58 176.88 131.48 176.62 131.25 Z" id="s-3-f-2"/>
</g>
<g id="s-4" clip-path="url(#c-s-4)">
<use href="#s-4-f-0"/>
<path d="M 199.62 161.12 C 199.48 162.79 198.10 167.96 199.62 170.88 C 201.15 173.79 204.35 174.31 208.75 178.62 C 213.15 182.94 222.06 192.73 226.00 196.75 C 229.94 200.77 230.33 201.08 232.38 202.75 C 234.42 204.42 236.44 205.77 238.25 206.75 C 240.06 207.73 241.77 208.27 243.25 208.62 C 244.73 208.98 246.35 208.92 247.12 208.88 C 247.90 208.83 247.73 212.92 247.88 208.38 C 248.02 203.83 248.06 186.52 248.00 181.62 C 247.94 176.73 249.46 180.46 247.50 179.00 C 245.54 177.54 239.67 174.54 236.25 172.88 C 232.83 171.21 231.04 170.48 227.00 169.00 C 222.96 167.52 216.42 165.35 212.00 164.00 C 207.58 162.65 202.56 161.35 200.50 160.88 C 198.44 160.40 199.77 159.46 199.62 161.12 Z" id="s-4-f-1"/>
</g>
<g id="s-5" clip-path="url(#c-s-5)">
<use href="#s-5-f-0"/>
<path d="M 265.00 107.50 C 264.69 108.08 263.77 105.96 265.12 109.50 C 266.48 113.04 270.50 122.81 273.12 128.75 C 275.75 134.69 278.75 141.04 280.88 145.12 C 283.00 149.21 284.83 151.77 285.88 153.25 C 286.92 154.73 284.60 153.92 287.12 154.00 C 289.65 154.08 298.42 154.17 301.00 153.75 C 303.58 153.33 302.19 152.46 302.62 151.50 C 303.06 150.54 303.46 150.65 303.62 148.00 C 303.79 145.35 303.94 138.98 303.62 135.62 C 303.31 132.27 302.40 129.92 301.75 127.88 C 301.10 125.83 300.40 124.56 299.75 123.38 C 299.10 122.19 298.62 121.65 297.88 120.75 C 297.12 119.85 296.50 119.10 295.25 118.00 C 294.00 116.90 292.00 115.29 290.38 114.12 C 288.75 112.96 287.31 112.02 285.50 111.00 C 283.69 109.98 281.67 108.83 279.50 108.00 C 277.33 107.17 274.58 106.33 272.50 106.00 C 270.42 105.67 268.25 105.75 267.00 106.00 C 265.75 106.25 265.31 106.92 265.00 107.50 Z" id="s-5-f-1"/>
</g>
<g id="s-6" clip-path="url(#c-s-6)">
<use href="#s-6-f-0"/>
<path d="M 406.25 75.00 C 404.31 73.85 404.73 74.17 403.75 74.00 C 402.77 73.83 401.54 73.56 400.38 74.00 C 399.21 74.44 397.96 75.19 396.75 76.62 C 395.54 78.06 394.29 80.48 393.12 82.62 C 391.96 84.77 391.27 86.88 389.75 89.50 C 388.23 92.12 385.00 92.56 384.00 98.38 C 383.00 104.19 383.71 119.75 383.75 124.38 C 383.79 129.00 380.67 127.50 384.25 126.12 C 387.83 124.75 398.92 118.83 405.25 116.12 C 411.58 113.42 418.50 111.52 422.25 109.88 C 426.00 108.23 426.33 107.52 427.75 106.25 C 429.17 104.98 430.27 103.79 430.75 102.25 C 431.23 100.71 430.94 98.46 430.62 97.00 C 430.31 95.54 430.17 95.17 428.88 93.50 C 427.58 91.83 425.12 89.10 422.88 87.00 C 420.62 84.90 418.15 82.88 415.38 80.88 C 412.60 78.88 408.19 76.15 406.25 75.00 Z" id="s-6-f-1"/>
</g>
<g id="s-7" clip-path="url(#c-s-7)">
<use href="#s-7-f-0"/>
<path d="M 349.12 37.88 C 347.10 36.96 343.65 35.79 341.12 35.00 C 338.60 34.21 336.42 33.62 334.00 33.12 C 331.58 32.62 329.31 32.17 326.62 32.00 C 323.94 31.83 319.75 31.90 317.88 32.12 C 316.00 32.35 316.02 32.85 315.38 33.38 C 314.73 33.90 314.23 34.54 314.00 35.25 C 313.77 35.96 313.25 36.42 314.00 37.62 C 314.75 38.83 317.42 40.67 318.50 42.50 C 319.58 44.33 319.62 44.60 320.50 48.62 C 321.38 52.65 323.06 61.85 323.75 66.62 C 324.44 71.40 324.48 68.56 324.62 77.25 C 324.77 85.94 324.77 109.88 324.62 118.75 C 324.48 127.62 324.23 126.29 323.75 130.50 C 323.27 134.71 322.60 139.52 321.75 144.00 C 320.90 148.48 319.83 152.88 318.62 157.38 C 317.42 161.88 315.81 167.17 314.50 171.00 C 313.19 174.83 312.25 177.17 310.75 180.38 C 309.25 183.58 307.15 187.46 305.50 190.25 C 303.85 193.04 302.88 194.44 300.88 197.12 C 298.88 199.81 296.48 203.04 293.50 206.38 C 290.52 209.71 285.88 214.38 283.00 217.12 C 280.12 219.88 277.40 221.75 276.25 222.88 C 275.10 224.00 272.19 223.71 276.12 223.88 C 280.06 224.04 294.19 225.12 299.88 223.88 C 305.56 222.62 307.50 218.54 310.25 216.38 C 313.00 214.21 313.77 213.65 316.38 210.88 C 318.98 208.10 323.48 202.83 325.88 199.75 C 328.27 196.67 329.60 194.25 330.75 192.38 C 331.90 190.50 331.25 191.81 332.75 188.50 C 334.25 185.19 337.92 177.10 339.75 172.50 C 341.58 167.90 342.77 164.08 343.75 160.88 C 344.73 157.67 345.10 156.17 345.62 153.25 C 346.15 150.33 346.27 146.21 346.88 143.38 C 347.48 140.54 348.90 138.00 349.25 136.25 C 349.60 134.50 348.92 134.42 349.00 132.88 C 349.08 131.33 349.58 130.19 349.75 127.00 C 349.92 123.81 349.58 122.52 350.00 113.75 C 350.42 104.98 351.58 82.25 352.25 74.38 C 352.92 66.50 353.50 68.44 354.00 66.50 C 354.50 64.56 354.31 64.96 355.25 62.75 C 356.19 60.54 358.85 55.17 359.62 53.25 C 360.40 51.33 359.90 52.17 359.88 51.25 C 359.85 50.33 359.92 48.92 359.50 47.75 C 359.08 46.58 358.42 45.46 357.38 44.25 C 356.33 43.04 354.62 41.56 353.25 40.50 C 351.88 39.44 351.15 38.79 349.12 37.88 Z" id="s-7-f-1"/>
<path d="M 318.50 32.00 C 316.56 32.29 315.75 33.21 315.00 33.75 C 314.25 34.29 314.19 34.71 314.00 35.25 C 313.81 35.79 313.06 35.67 313.88 37.00 C 314.69 38.33 317.73 41.15 318.88 43.25 C 320.02 45.35 319.94 45.73 320.75 49.62 C 321.56 53.52 323.08 61.21 323.75 66.62 C 324.42 72.04 324.60 73.44 324.75 82.12 C 324.90 90.81 324.79 110.69 324.62 118.75 C 324.46 126.81 324.23 126.29 323.75 130.50 C 323.27 134.71 322.60 139.52 321.75 144.00 C 320.90 148.48 320.10 152.12 318.62 157.38 C 317.15 162.62 313.65 172.40 312.88 175.50 C 312.10 178.60 309.88 175.92 314.00 176.00 C 318.12 176.08 333.50 176.19 337.62 176.00 C 341.75 175.81 337.73 177.40 338.75 174.88 C 339.77 172.35 342.60 164.48 343.75 160.88 C 344.90 157.27 345.10 156.17 345.62 153.25 C 346.15 150.33 346.29 146.08 346.88 143.38 C 347.46 140.67 348.77 138.75 349.12 137.00 C 349.48 135.25 348.90 134.54 349.00 132.88 C 349.10 131.21 349.58 130.19 349.75 127.00 C 349.92 123.81 349.62 122.25 350.00 113.75 C 350.38 105.25 351.50 83.25 352.00 76.00 C 352.50 68.75 352.46 72.46 353.00 70.25 C 353.54 68.04 354.15 65.58 355.25 62.75 C 356.35 59.92 358.88 55.60 359.62 53.25 C 360.38 50.90 359.90 49.81 359.75 48.62 C 359.60 47.44 359.15 46.85 358.75 46.12 C 358.35 45.40 358.29 45.19 357.38 44.25 C 356.46 43.31 354.62 41.56 353.25 40.50 C 351.88 39.44 351.15 38.79 349.12 37.88 C 347.10 36.96 343.65 35.79 341.12 35.00 C 338.60 34.21 336.42 33.62 334.00 33.12 C 331.58 32.62 329.21 32.19 326.62 32.00 C 324.04 31.81 320.44 31.71 318.50 32.00 Z" id="s-7-f-2"/>
<path d="M 317.88 32.12 C 316.00 32.35 315.98 32.96 315.38 33.38 C 314.77 33.79 314.50 34.02 314.25 34.62 C 314.00 35.23 313.10 35.56 313.88 37.00 C 314.65 38.44 317.73 41.15 318.88 43.25 C 320.02 45.35 319.94 45.73 320.75 49.62 C 321.56 53.52 323.08 61.21 323.75 66.62 C 324.42 72.04 324.58 74.10 324.75 82.12 C 324.92 90.15 324.88 107.54 324.75 114.75 C 324.62 121.96 324.08 123.21 324.00 125.38 C 323.92 127.54 320.06 127.33 324.25 127.75 C 328.44 128.17 344.88 128.04 349.12 127.88 C 353.38 127.71 349.60 129.10 349.75 126.75 C 349.90 124.40 349.62 122.21 350.00 113.75 C 350.38 105.29 351.50 83.25 352.00 76.00 C 352.50 68.75 352.46 72.46 353.00 70.25 C 353.54 68.04 354.15 65.58 355.25 62.75 C 356.35 59.92 358.85 55.44 359.62 53.25 C 360.40 51.06 359.90 50.54 359.88 49.62 C 359.85 48.71 359.92 48.65 359.50 47.75 C 359.08 46.85 358.23 45.31 357.38 44.25 C 356.52 43.19 355.71 42.42 354.38 41.38 C 353.04 40.33 350.60 38.73 349.38 38.00 C 348.15 37.27 349.56 37.81 347.00 37.00 C 344.44 36.19 337.40 33.96 334.00 33.12 C 330.60 32.29 329.31 32.17 326.62 32.00 C 323.94 31.83 319.75 31.90 317.88 32.12 Z" id="s-7-f-3"/>
<path d="M 315.38 33.38 C 314.73 33.90 314.23 34.54 314.00 35.25 C 313.77 35.96 313.25 36.42 314.00 37.62 C 314.75 38.83 317.42 40.67 318.50 42.50 C 319.58 44.33 319.62 44.60 320.50 48.62 C 321.38 52.65 323.04 61.48 323.75 66.62 C 324.46 71.77 324.38 77.27 324.75 79.50 C 325.12 81.73 321.52 79.96 326.00 80.00 C 330.48 80.04 347.23 80.81 351.62 79.75 C 356.02 78.69 351.98 75.83 352.38 73.62 C 352.77 71.42 352.77 70.02 354.00 66.50 C 355.23 62.98 358.83 55.62 359.75 52.50 C 360.67 49.38 359.90 49.12 359.50 47.75 C 359.10 46.38 358.42 45.46 357.38 44.25 C 356.33 43.04 354.62 41.56 353.25 40.50 C 351.88 39.44 351.15 38.79 349.12 37.88 C 347.10 36.96 343.65 35.79 341.12 35.00 C 338.60 34.21 336.42 33.62 334.00 33.12 C 331.58 32.62 329.31 32.17 326.62 32.00 C 323.94 31.83 319.75 31.90 317.88 32.12 C 316.00 32.35 316.02 32.85 315.38 33.38 Z" id="s-7-f-4"/>
</g>
<g id="s-8" clip-path="url(#c-s-8)">
<use href="#s-8-f-0"/>
<path d="M 342.25 163.12 C 341.96 163.33 341.73 163.73 341.62 164.12 C 341.52 164.52 341.79 165.04 341.62 165.50 C 341.46 165.96 341.02 165.81 340.62 166.88 C 340.23 167.94 339.58 170.94 339.25 171.88 C 338.92 172.81 338.73 172.17 338.62 172.50 C 338.52 172.83 335.29 170.29 338.62 173.88 C 341.96 177.46 350.79 185.79 358.62 194.00 C 366.46 202.21 380.94 218.17 385.62 223.12 C 390.31 228.08 386.54 229.25 386.75 223.75 C 386.96 218.25 388.60 196.92 386.88 190.12 C 385.15 183.33 383.62 187.54 376.38 183.00 C 369.12 178.46 349.06 166.19 343.38 162.88 C 337.69 159.56 342.54 162.92 342.25 163.12 Z" id="s-8-f-1"/>
</g>
<g id="s-9" clip-path="url(#c-s-9)">
<use href="#s-9-f-0"/>
<path d="M 145.75 291.12 C 144.77 291.35 144.56 291.75 144.12 292.25 C 143.69 292.75 143.31 293.25 143.12 294.12 C 142.94 295.00 141.56 295.23 143.00 297.50 C 144.44 299.77 149.96 305.40 151.75 307.75 C 153.54 310.10 153.08 309.98 153.75 311.62 C 154.42 313.27 154.75 313.60 155.75 317.62 C 156.75 321.65 158.19 326.77 159.75 335.75 C 161.31 344.73 163.92 364.48 165.12 371.50 C 166.33 378.52 166.35 376.04 167.00 377.88 C 167.65 379.71 168.19 381.02 169.00 382.50 C 169.81 383.98 169.44 386.02 171.88 386.75 C 174.31 387.48 181.54 386.98 183.62 386.88 C 185.71 386.77 184.02 386.85 184.38 386.12 C 184.73 385.40 185.33 384.06 185.75 382.50 C 186.17 380.94 186.67 378.33 186.88 376.75 C 187.08 375.17 187.35 379.06 187.00 373.00 C 186.65 366.94 185.79 350.90 184.75 340.38 C 183.71 329.85 183.35 317.12 180.75 309.88 C 178.15 302.62 171.58 299.50 169.12 296.88 C 166.67 294.25 167.48 294.92 166.00 294.12 C 164.52 293.33 161.83 292.58 160.25 292.12 C 158.67 291.67 158.21 291.58 156.50 291.38 C 154.79 291.17 151.79 290.92 150.00 290.88 C 148.21 290.83 146.73 290.90 145.75 291.12 Z" id="s-9-f-1"/>
<path d="M 144.25 292.12 C 143.73 292.71 143.19 293.54 143.00 294.50 C 142.81 295.46 142.02 296.15 143.12 297.88 C 144.23 299.60 148.19 303.23 149.62 304.88 C 151.06 306.52 151.06 306.62 151.75 307.75 C 152.44 308.88 152.75 308.71 153.75 311.62 C 154.75 314.54 156.71 320.77 157.75 325.25 C 158.79 329.73 159.25 336.21 160.00 338.50 C 160.75 340.79 158.23 338.96 162.25 339.00 C 166.27 339.04 180.42 338.96 184.12 338.75 C 187.83 338.54 185.04 342.44 184.50 337.75 C 183.96 333.06 181.75 315.62 180.88 310.62 C 180.00 305.62 181.21 310.04 179.25 307.75 C 177.29 305.46 171.38 299.17 169.12 296.88 C 166.88 294.58 167.23 294.79 165.75 294.00 C 164.27 293.21 162.25 292.62 160.25 292.12 C 158.25 291.62 156.10 291.19 153.75 291.00 C 151.40 290.81 147.71 290.81 146.12 291.00 C 144.54 291.19 144.77 291.54 144.25 292.12 Z" id="s-9-f-2"/>
</g>
<g id="s-10" clip-path="url(#c-s-10)">
<use href="#s-10-f-0"/>
<path d="M 401.88 294.00 C 401.71 293.06 401.29 292.27 400.62 291.38 C 399.96 290.48 399.73 290.02 397.88 288.62 C 396.02 287.23 393.62 285.25 389.50 283.00 C 385.38 280.75 377.31 276.96 373.12 275.12 C 368.94 273.29 366.52 272.52 364.38 272.00 C 362.23 271.48 368.54 270.88 360.25 272.00 C 351.96 273.12 327.33 276.96 314.62 278.75 C 301.92 280.54 290.02 282.04 284.00 282.75 C 277.98 283.46 285.67 282.17 278.50 283.00 C 271.33 283.83 259.42 285.79 241.00 287.75 C 222.58 289.71 180.40 293.42 168.00 294.75 C 155.60 296.08 165.67 294.46 166.62 295.75 C 167.58 297.04 171.54 300.17 173.75 302.50 C 175.96 304.83 178.69 308.50 179.88 309.75 C 181.06 311.00 179.25 310.06 180.88 310.00 C 182.50 309.94 178.33 310.71 189.62 309.38 C 200.92 308.04 237.88 303.25 248.62 302.00 C 259.38 300.75 248.52 302.40 254.12 301.88 C 259.73 301.35 276.29 299.40 282.25 298.88 C 288.21 298.35 287.81 298.90 289.88 298.75 C 291.94 298.60 287.10 298.58 294.62 298.00 C 302.15 297.42 326.12 295.73 335.00 295.25 C 343.88 294.77 345.23 295.00 347.88 295.12 C 350.52 295.25 350.06 295.48 350.88 296.00 C 351.69 296.52 352.60 295.58 352.75 298.25 C 352.90 300.92 352.31 306.62 351.75 312.00 C 351.19 317.38 349.40 327.33 349.38 330.50 C 349.35 333.67 346.75 330.94 351.62 331.00 C 356.50 331.06 373.94 331.08 378.62 330.88 C 383.31 330.67 377.88 332.83 379.75 329.75 C 381.62 326.67 387.21 316.62 389.88 312.38 C 392.54 308.12 393.96 306.48 395.75 304.25 C 397.54 302.02 399.65 300.21 400.62 299.00 C 401.60 297.79 401.42 297.83 401.62 297.00 C 401.83 296.17 402.04 294.94 401.88 294.00 Z" id="s-10-f-1"/>
<path d="M 388.00 282.38 C 385.54 281.00 377.06 276.85 373.12 275.12 C 369.19 273.40 366.52 272.52 364.38 272.00 C 362.23 271.48 368.54 270.88 360.25 272.00 C 351.96 273.12 327.33 276.96 314.62 278.75 C 301.92 280.54 290.02 282.04 284.00 282.75 C 277.98 283.46 285.65 282.17 278.50 283.00 C 271.35 283.83 258.65 285.92 241.12 287.75 C 223.60 289.58 185.65 292.81 173.38 294.00 C 161.10 295.19 168.62 294.58 167.50 294.88 C 166.38 295.17 165.58 294.48 166.62 295.75 C 167.67 297.02 171.50 300.12 173.75 302.50 C 176.00 304.88 178.10 308.79 180.12 310.00 C 182.15 311.21 174.46 311.08 185.88 309.75 C 197.29 308.42 237.02 303.33 248.62 302.00 C 260.23 300.67 249.90 302.27 255.50 301.75 C 261.10 301.23 276.52 299.38 282.25 298.88 C 287.98 298.38 285.58 299.06 289.88 298.75 C 294.17 298.44 298.62 297.67 308.00 297.00 C 317.38 296.33 332.81 297.02 346.12 294.75 C 359.44 292.48 380.90 285.44 387.88 283.38 C 394.85 281.31 390.46 283.75 388.00 282.38 Z" id="s-10-f-2"/>
<path d="M 358.88 272.88 C 358.71 269.77 365.25 271.27 357.88 272.25 C 350.50 273.23 326.94 277.00 314.62 278.75 C 302.31 280.50 289.83 282.06 284.00 282.75 C 278.17 283.44 284.67 282.33 279.62 282.88 C 274.58 283.42 258.77 285.33 253.75 286.00 C 248.73 286.67 262.90 285.54 249.50 286.88 C 236.10 288.21 187.04 292.67 173.38 294.00 C 159.71 295.33 168.62 294.58 167.50 294.88 C 166.38 295.17 165.58 294.48 166.62 295.75 C 167.67 297.02 171.54 300.17 173.75 302.50 C 175.96 304.83 178.69 308.50 179.88 309.75 C 181.06 311.00 179.42 310.04 180.88 310.00 C 182.33 309.96 177.33 310.83 188.62 309.50 C 199.92 308.17 237.71 303.27 248.62 302.00 C 259.54 300.73 248.52 302.40 254.12 301.88 C 259.73 301.35 276.29 299.40 282.25 298.88 C 288.21 298.35 287.52 298.92 289.88 298.75 C 292.23 298.58 291.00 298.33 296.38 297.88 C 301.75 297.42 314.00 296.50 322.12 296.00 C 330.25 295.50 339.25 295.56 345.12 294.88 C 351.00 294.19 355.08 292.54 357.38 291.88 C 359.67 291.21 358.62 294.04 358.88 290.88 C 359.12 287.71 359.04 275.98 358.88 272.88 Z" id="s-10-f-3"/>
<path d="M 311.00 280.75 C 310.94 278.04 310.83 279.52 310.62 279.25 C 310.42 278.98 314.19 278.54 309.75 279.12 C 305.31 279.71 289.02 282.12 284.00 282.75 C 278.98 283.38 284.67 282.33 279.62 282.88 C 274.58 283.42 258.77 285.33 253.75 286.00 C 248.73 286.67 263.21 285.50 249.50 286.88 C 235.79 288.25 185.17 292.92 171.50 294.25 C 157.83 295.58 168.31 294.62 167.50 294.88 C 166.69 295.12 165.58 294.48 166.62 295.75 C 167.67 297.02 171.50 300.12 173.75 302.50 C 176.00 304.88 177.75 308.81 180.12 310.00 C 182.50 311.19 176.58 310.96 188.00 309.62 C 199.42 308.29 237.60 303.29 248.62 302.00 C 259.65 300.71 248.52 302.40 254.12 301.88 C 259.73 301.35 276.35 299.40 282.25 298.88 C 288.15 298.35 284.81 299.08 289.50 298.75 C 294.19 298.42 306.79 297.42 310.38 296.88 C 313.96 296.33 310.90 298.19 311.00 295.50 C 311.10 292.81 311.06 283.46 311.00 280.75 Z" id="s-10-f-4"/>
<path d="M 262.88 285.38 C 262.69 282.96 265.50 284.60 261.88 285.00 C 258.25 285.40 256.17 286.21 241.12 287.75 C 226.08 289.29 183.90 293.06 171.62 294.25 C 159.35 295.44 168.33 294.62 167.50 294.88 C 166.67 295.12 165.58 294.48 166.62 295.75 C 167.67 297.02 171.50 300.12 173.75 302.50 C 176.00 304.88 177.56 308.83 180.12 310.00 C 182.69 311.17 177.71 310.83 189.12 309.50 C 200.54 308.17 236.44 303.42 248.62 302.00 C 260.81 300.58 259.88 301.23 262.25 301.00 C 264.62 300.77 262.75 300.88 262.88 300.62 C 263.00 300.38 263.00 302.04 263.00 299.50 C 263.00 296.96 263.06 287.79 262.88 285.38 Z" id="s-10-f-5"/>
<path d="M 214.88 305.62 C 215.00 303.23 215.00 294.35 215.00 291.88 C 215.00 289.40 215.00 291.02 214.88 290.75 C 214.75 290.48 221.50 289.67 214.25 290.25 C 207.00 290.83 179.17 293.48 171.38 294.25 C 163.58 295.02 168.31 294.65 167.50 294.88 C 166.69 295.10 165.46 294.35 166.50 295.62 C 167.54 296.90 171.48 300.10 173.75 302.50 C 176.02 304.90 177.83 308.81 180.12 310.00 C 182.42 311.19 181.81 310.25 187.50 309.62 C 193.19 309.00 209.69 306.92 214.25 306.25 C 218.81 305.58 214.75 308.02 214.88 305.62 Z" id="s-10-f-6"/>
</g>
<g id="s-11" clip-path="url(#c-s-11)">
<use href="#s-11-f-0"/>
<path d="M 329.88 345.75 C 329.65 342.71 331.23 345.00 328.62 345.25 C 326.02 345.50 322.04 346.00 314.25 347.25 C 306.46 348.50 288.10 351.81 281.88 352.75 C 275.65 353.69 285.62 352.04 276.88 352.88 C 268.12 353.71 244.48 356.42 229.38 357.75 C 214.27 359.08 193.56 360.29 186.25 360.88 C 178.94 361.46 185.58 359.65 185.50 361.25 C 185.42 362.85 185.54 368.06 185.75 370.50 C 185.96 372.94 186.02 374.83 186.75 375.88 C 187.48 376.92 186.15 376.65 190.12 376.75 C 194.10 376.85 199.73 377.15 210.62 376.50 C 221.52 375.85 243.88 373.98 255.50 372.88 C 267.12 371.77 268.06 371.15 280.38 369.88 C 292.69 368.60 321.10 366.31 329.38 365.25 C 337.65 364.19 329.92 366.75 330.00 363.50 C 330.08 360.25 330.10 348.79 329.88 345.75 Z" id="s-11-f-1"/>
<path d="M 281.62 353.88 C 281.50 351.27 282.06 352.92 281.25 352.75 C 280.44 352.58 283.50 352.21 276.75 352.88 C 270.00 353.54 255.83 355.42 240.75 356.75 C 225.67 358.08 195.46 360.12 186.25 360.88 C 177.04 361.62 185.58 359.65 185.50 361.25 C 185.42 362.85 185.54 368.06 185.75 370.50 C 185.96 372.94 186.04 374.83 186.75 375.88 C 187.46 376.92 186.50 376.60 190.00 376.75 C 193.50 376.90 196.83 377.40 207.75 376.75 C 218.67 376.10 243.23 374.04 255.50 372.88 C 267.77 371.71 276.96 370.50 281.38 369.75 C 285.79 369.00 281.96 371.02 282.00 368.38 C 282.04 365.73 281.75 356.48 281.62 353.88 Z" id="s-11-f-2"/>
<path d="M 233.88 357.75 C 233.65 355.12 240.56 356.73 232.62 357.25 C 224.69 357.77 194.10 360.21 186.25 360.88 C 178.40 361.54 185.58 359.65 185.50 361.25 C 185.42 362.85 185.56 368.10 185.75 370.50 C 185.94 372.90 185.92 374.58 186.62 375.62 C 187.33 376.67 186.71 376.56 190.00 376.75 C 193.29 376.94 199.10 377.12 206.38 376.75 C 213.65 376.38 229.02 375.12 233.62 374.50 C 238.23 373.88 233.96 375.79 234.00 373.00 C 234.04 370.21 234.10 360.38 233.88 357.75 Z" id="s-11-f-3"/>
</g>
<g id="s-12" clip-path="url(#c-s-12)">
<use href="#s-12-f-0"/>
<path d="M 246.38 248.12 C 244.12 248.33 244.06 248.75 243.12 249.38 C 242.19 250.00 241.27 251.15 240.75 251.88 C 240.23 252.60 240.12 252.77 240.00 253.75 C 239.88 254.73 238.88 255.10 240.00 257.75 C 241.12 260.40 245.27 266.73 246.75 269.62 C 248.23 272.52 248.35 273.33 248.88 275.12 C 249.40 276.92 249.77 276.00 249.88 280.38 C 249.98 284.75 249.50 297.56 249.50 301.38 C 249.50 305.19 249.67 295.42 249.88 303.25 C 250.08 311.08 250.65 338.92 250.75 348.38 C 250.85 357.83 250.50 356.73 250.50 360.00 C 250.50 363.27 250.52 365.62 250.75 368.00 C 250.98 370.38 251.67 370.40 251.88 374.25 C 252.08 378.10 251.88 388.19 252.00 391.12 C 252.12 394.06 252.23 391.73 252.62 391.88 C 253.02 392.02 249.96 392.00 254.38 392.00 C 258.79 392.00 274.90 392.52 279.12 391.88 C 283.35 391.23 279.62 391.73 279.75 388.12 C 279.88 384.52 279.65 374.31 279.88 370.25 C 280.10 366.19 280.94 367.90 281.12 363.75 C 281.31 359.60 280.88 356.12 281.00 345.38 C 281.12 334.62 281.52 307.88 281.88 299.25 C 282.23 290.62 282.92 296.60 283.12 293.62 C 283.33 290.65 282.81 284.88 283.12 281.38 C 283.44 277.88 284.42 274.79 285.00 272.62 C 285.58 270.46 286.33 270.17 286.62 268.38 C 286.92 266.58 287.00 263.40 286.75 261.88 C 286.50 260.35 286.10 260.23 285.12 259.25 C 284.15 258.27 283.54 257.33 280.88 256.00 C 278.21 254.67 272.27 252.40 269.12 251.25 C 265.98 250.10 264.08 249.65 262.00 249.12 C 259.92 248.60 259.23 248.29 256.62 248.12 C 254.02 247.96 248.62 247.92 246.38 248.12 Z" id="s-12-f-1"/>
<path d="M 243.75 249.00 C 242.90 249.31 242.88 249.40 242.38 249.88 C 241.88 250.35 241.15 251.25 240.75 251.88 C 240.35 252.50 240.15 252.83 240.00 253.62 C 239.85 254.42 239.71 255.54 239.88 256.62 C 240.04 257.71 239.85 257.96 241.00 260.12 C 242.15 262.29 245.44 267.12 246.75 269.62 C 248.06 272.12 248.38 273.56 248.88 275.12 C 249.38 276.69 249.65 274.62 249.75 279.00 C 249.85 283.38 249.48 297.44 249.50 301.38 C 249.52 305.31 249.67 295.58 249.88 302.62 C 250.08 309.67 250.25 336.73 250.75 343.62 C 251.25 350.52 247.88 344.00 252.88 344.00 C 257.88 344.00 276.04 343.77 280.75 343.62 C 285.46 343.48 280.94 350.52 281.12 343.12 C 281.31 335.73 281.54 307.50 281.88 299.25 C 282.21 291.00 282.92 296.60 283.12 293.62 C 283.33 290.65 282.81 284.88 283.12 281.38 C 283.44 277.88 284.42 274.79 285.00 272.62 C 285.58 270.46 286.33 270.17 286.62 268.38 C 286.92 266.58 287.00 263.40 286.75 261.88 C 286.50 260.35 286.10 260.23 285.12 259.25 C 284.15 258.27 283.60 257.35 280.88 256.00 C 278.15 254.65 271.90 252.27 268.75 251.12 C 265.60 249.98 264.19 249.65 262.00 249.12 C 259.81 248.60 258.04 248.19 255.62 248.00 C 253.21 247.81 249.48 247.83 247.50 248.00 C 245.52 248.17 244.60 248.69 243.75 249.00 Z" id="s-12-f-2"/>
<path d="M 242.25 250.00 C 241.27 250.88 240.38 252.19 240.00 253.50 C 239.62 254.81 238.88 255.19 240.00 257.88 C 241.12 260.56 245.27 266.75 246.75 269.62 C 248.23 272.50 248.35 273.33 248.88 275.12 C 249.40 276.92 249.75 276.92 249.88 280.38 C 250.00 283.83 249.56 293.23 249.62 295.88 C 249.69 298.52 244.90 296.19 250.25 296.25 C 255.60 296.31 276.35 296.33 281.75 296.25 C 287.15 296.17 282.40 296.19 282.62 295.75 C 282.85 295.31 283.04 296.02 283.12 293.62 C 283.21 291.23 282.50 285.92 283.12 281.38 C 283.75 276.83 286.27 269.62 286.88 266.38 C 287.48 263.12 287.04 263.06 286.75 261.88 C 286.46 260.69 286.10 260.23 285.12 259.25 C 284.15 258.27 282.29 256.88 280.88 256.00 C 279.46 255.12 278.62 254.81 276.62 254.00 C 274.62 253.19 271.44 251.96 268.88 251.12 C 266.31 250.29 263.46 249.52 261.25 249.00 C 259.04 248.48 257.58 248.19 255.62 248.00 C 253.67 247.81 251.12 247.83 249.50 247.88 C 247.88 247.92 247.08 247.90 245.88 248.25 C 244.67 248.60 243.23 249.12 242.25 250.00 Z" id="s-12-f-3"/>
</g>
<g id="s-13" clip-path="url(#c-s-13)">
<use href="#s-13-f-0"/>
<path d="M 351.00 412.12 C 350.96 409.81 351.15 411.31 350.75 411.12 C 350.35 410.94 360.21 409.58 348.62 411.00 C 337.04 412.42 293.69 418.19 281.25 419.62 C 268.81 421.06 275.81 419.48 274.00 419.62 C 272.19 419.77 273.35 420.15 270.38 420.50 C 267.40 420.85 259.12 421.35 256.12 421.75 C 253.12 422.15 264.79 421.52 252.38 422.88 C 239.96 424.23 200.08 428.40 181.62 429.88 C 163.17 431.35 149.67 431.62 141.62 431.75 C 133.58 431.88 136.56 431.23 133.38 430.62 C 130.19 430.02 125.46 428.56 122.50 428.12 C 119.54 427.69 117.15 427.88 115.62 428.00 C 114.10 428.12 114.00 428.50 113.38 428.88 C 112.75 429.25 112.27 429.75 111.88 430.25 C 111.48 430.75 111.12 430.96 111.00 431.88 C 110.88 432.79 110.79 434.52 111.12 435.75 C 111.46 436.98 111.56 437.27 113.00 439.25 C 114.44 441.23 117.58 445.12 119.75 447.62 C 121.92 450.12 123.79 452.21 126.00 454.25 C 128.21 456.29 130.56 458.15 133.00 459.88 C 135.44 461.60 138.31 463.48 140.62 464.62 C 142.94 465.77 144.69 466.40 146.88 466.75 C 149.06 467.10 150.81 467.10 153.75 466.75 C 156.69 466.40 160.90 465.56 164.50 464.62 C 168.10 463.69 169.75 462.71 175.38 461.12 C 181.00 459.54 189.92 457.12 198.25 455.12 C 206.58 453.12 200.02 453.85 225.38 449.12 C 250.73 444.40 329.44 430.77 350.38 426.75 C 371.31 422.73 350.90 427.44 351.00 425.00 C 351.10 422.56 351.04 414.44 351.00 412.12 Z" id="s-13-f-1"/>
<path d="M 302.88 422.38 C 302.77 419.79 302.56 419.00 302.38 418.12 C 302.19 417.25 305.48 416.85 301.75 417.12 C 298.02 417.40 284.62 419.33 280.00 419.75 C 275.38 420.17 275.44 419.52 274.00 419.62 C 272.56 419.73 274.35 420.02 271.38 420.38 C 268.40 420.73 259.29 421.33 256.12 421.75 C 252.96 422.17 264.50 421.54 252.38 422.88 C 240.25 424.21 197.75 428.42 183.38 429.75 C 169.00 431.08 173.08 430.54 166.12 430.88 C 159.17 431.21 147.08 431.79 141.62 431.75 C 136.17 431.71 136.56 431.23 133.38 430.62 C 130.19 430.02 125.19 428.58 122.50 428.12 C 119.81 427.67 118.54 427.85 117.25 427.88 C 115.96 427.90 115.65 427.85 114.75 428.25 C 113.85 428.65 112.50 429.65 111.88 430.25 C 111.25 430.85 111.12 430.96 111.00 431.88 C 110.88 432.79 110.79 434.52 111.12 435.75 C 111.46 436.98 111.81 437.56 113.00 439.25 C 114.19 440.94 116.08 443.38 118.25 445.88 C 120.42 448.38 123.54 451.92 126.00 454.25 C 128.46 456.58 130.56 458.15 133.00 459.88 C 135.44 461.60 138.31 463.48 140.62 464.62 C 142.94 465.77 144.60 466.40 146.88 466.75 C 149.15 467.10 151.31 467.10 154.25 466.75 C 157.19 466.40 160.98 465.56 164.50 464.62 C 168.02 463.69 170.33 462.56 175.38 461.12 C 180.42 459.69 186.42 458.00 194.75 456.00 C 203.08 454.00 207.44 452.56 225.38 449.12 C 243.31 445.69 289.44 437.96 302.38 435.38 C 315.31 432.79 302.92 435.79 303.00 433.62 C 303.08 431.46 302.98 424.96 302.88 422.38 Z" id="s-13-f-2"/>
<path d="M 254.88 422.75 C 254.67 419.17 253.79 422.35 253.38 422.38 C 252.96 422.40 264.04 421.65 252.38 422.88 C 240.71 424.10 200.98 428.27 183.38 429.75 C 165.77 431.23 153.92 431.44 146.75 431.75 C 139.58 432.06 142.60 431.81 140.38 431.62 C 138.15 431.44 136.35 431.21 133.38 430.62 C 130.40 430.04 125.19 428.58 122.50 428.12 C 119.81 427.67 118.54 427.85 117.25 427.88 C 115.96 427.90 115.65 427.85 114.75 428.25 C 113.85 428.65 112.50 429.65 111.88 430.25 C 111.25 430.85 111.12 430.96 111.00 431.88 C 110.88 432.79 110.79 434.52 111.12 435.75 C 111.46 436.98 111.81 437.56 113.00 439.25 C 114.19 440.94 116.08 443.38 118.25 445.88 C 120.42 448.38 123.54 451.92 126.00 454.25 C 128.46 456.58 130.56 458.15 133.00 459.88 C 135.44 461.60 138.31 463.48 140.62 464.62 C 142.94 465.77 144.56 466.40 146.88 466.75 C 149.19 467.10 151.56 467.10 154.50 466.75 C 157.44 466.40 159.73 465.92 164.50 464.62 C 169.27 463.33 175.96 460.94 183.12 459.00 C 190.29 457.06 200.46 454.65 207.50 453.00 C 214.54 451.35 217.52 450.65 225.38 449.12 C 233.23 447.60 249.71 448.27 254.62 443.88 C 259.54 439.48 255.08 426.33 254.88 422.75 Z" id="s-13-f-3"/>
<path d="M 206.88 452.88 C 207.00 448.88 207.00 433.67 207.00 429.50 C 207.00 425.33 207.00 428.23 206.88 427.88 C 206.75 427.52 210.17 427.06 206.25 427.38 C 202.33 427.69 193.29 429.02 183.38 429.75 C 173.46 430.48 154.23 431.48 146.75 431.75 C 139.27 432.02 142.54 431.98 138.50 431.38 C 134.46 430.77 126.29 428.69 122.50 428.12 C 118.71 427.56 117.27 427.88 115.75 428.00 C 114.23 428.12 114.02 428.50 113.38 428.88 C 112.73 429.25 112.27 429.75 111.88 430.25 C 111.48 430.75 111.15 431.02 111.00 431.88 C 110.85 432.73 110.67 434.15 111.00 435.38 C 111.33 436.60 111.83 437.54 113.00 439.25 C 114.17 440.96 115.83 443.12 118.00 445.62 C 120.17 448.12 123.04 451.56 126.00 454.25 C 128.96 456.94 133.31 460.02 135.75 461.75 C 138.19 463.48 138.88 463.81 140.62 464.62 C 142.38 465.44 143.94 466.27 146.25 466.62 C 148.56 466.98 152.12 466.92 154.50 466.75 C 156.88 466.58 155.08 467.08 160.50 465.62 C 165.92 464.17 179.38 460.02 187.00 458.00 C 194.62 455.98 202.94 454.35 206.25 453.50 C 209.56 452.65 206.75 456.88 206.88 452.88 Z" id="s-13-f-4"/>
<path d="M 111.88 430.25 C 111.25 430.85 111.15 431.02 111.00 431.88 C 110.85 432.73 110.54 433.98 111.00 435.38 C 111.46 436.77 112.31 438.23 113.75 440.25 C 115.19 442.27 117.67 445.25 119.62 447.50 C 121.58 449.75 123.27 451.69 125.50 453.75 C 127.73 455.81 130.50 458.08 133.00 459.88 C 135.50 461.67 138.29 463.38 140.50 464.50 C 142.71 465.62 143.90 466.25 146.25 466.62 C 148.60 467.00 152.54 466.92 154.62 466.75 C 156.71 466.58 158.04 471.46 158.75 465.62 C 159.46 459.79 158.94 437.48 158.88 431.75 C 158.81 426.02 161.25 431.25 158.38 431.25 C 155.50 431.25 145.79 431.85 141.62 431.75 C 137.46 431.65 137.02 431.27 133.38 430.62 C 129.73 429.98 122.85 428.27 119.75 427.88 C 116.65 427.48 116.06 427.85 114.75 428.25 C 113.44 428.65 112.50 429.65 111.88 430.25 Z" id="s-13-f-5"/>
</g>
<g id="s-14" clip-path="url(#c-s-14)">
<use href="#s-14-f-0"/>
<path d="M 343.00 379.75 C 342.77 380.33 342.75 381.46 343.00 382.38 C 343.25 383.29 342.98 383.40 344.50 385.25 C 346.02 387.10 348.98 389.67 352.12 393.50 C 355.27 397.33 361.40 405.50 363.38 408.25 C 365.35 411.00 362.46 407.85 364.00 410.00 C 365.54 412.15 371.02 419.17 372.62 421.12 C 374.23 423.08 372.85 420.79 373.62 421.75 C 374.40 422.71 369.08 426.06 377.25 426.88 C 385.42 427.69 415.35 427.33 422.62 426.62 C 429.90 425.92 421.54 423.81 420.88 422.62 C 420.21 421.44 420.25 421.33 418.62 419.50 C 417.00 417.67 413.81 414.12 411.12 411.62 C 408.44 409.12 405.50 406.79 402.50 404.50 C 399.50 402.21 398.06 400.60 393.12 397.88 C 388.19 395.15 378.62 390.77 372.88 388.12 C 367.12 385.48 362.77 383.52 358.62 382.00 C 354.48 380.48 350.38 379.52 348.00 379.00 C 345.62 378.48 345.21 378.75 344.38 378.88 C 343.54 379.00 343.23 379.17 343.00 379.75 Z" id="s-14-f-1"/>
</g>
</svg>