<?xml version="1.0" encoding="UTF-8"?>
<svg xmlns="http://www.w3.org/2000/svg" viewBox="0 0 500 500">
<defs>
<path d="M 101.62 57.12 C 99.96 56.44 97.25 55.35 95.38 55.00 C 93.50 54.65 91.54 54.85 90.38 55.00 C 89.21 55.15 89.10 55.31 88.38 55.88 C 87.65 56.44 86.56 57.46 86.00 58.38 C 85.44 59.29 85.29 58.00 85.00 61.38 C 84.71 64.75 84.62 73.96 84.25 78.62 C 83.88 83.29 84.21 83.81 82.75 89.38 C 81.29 94.94 78.19 104.58 75.50 112.00 C 72.81 119.42 69.75 126.73 66.62 133.88 C 63.50 141.02 60.10 148.31 56.75 154.88 C 53.40 161.44 49.44 168.40 46.50 173.25 C 43.56 178.10 40.40 181.81 39.12 184.00 C 37.85 186.19 38.77 185.75 38.88 186.38 C 38.98 187.00 39.06 187.54 39.75 187.75 C 40.44 187.96 41.31 188.27 43.00 187.62 C 44.69 186.98 47.62 185.35 49.88 183.88 C 52.12 182.40 54.12 180.75 56.50 178.75 C 58.88 176.75 61.40 174.54 64.12 171.88 C 66.85 169.21 70.25 165.67 72.88 162.75 C 75.50 159.83 77.71 157.12 79.88 154.38 C 82.04 151.62 83.21 150.10 85.88 146.25 C 88.54 142.40 91.92 138.10 95.88 131.25 C 99.83 124.40 105.50 113.62 109.62 105.12 C 113.75 96.62 118.75 85.00 120.62 80.25 C 122.50 75.50 121.17 77.92 120.88 76.62 C 120.58 75.33 119.92 74.00 118.88 72.50 C 117.83 71.00 116.88 69.85 114.62 67.62 C 112.38 65.40 107.54 60.88 105.38 59.12 C 103.21 57.38 103.29 57.81 101.62 57.12 Z" id="s-0-f-0"/>
<clipPath id="c-s-0"><use href="#s-0-f-0"/></clipPath>
<path d="M 179.50 96.25 C 178.50 95.48 179.25 95.52 176.00 94.00 C 172.75 92.48 163.31 88.46 160.00 87.12 C 156.69 85.79 157.31 86.19 156.12 86.00 C 154.94 85.81 154.67 85.33 152.88 86.00 C 151.08 86.67 148.94 87.69 145.38 90.00 C 141.81 92.31 134.85 97.58 131.50 99.88 C 128.15 102.17 128.10 102.25 125.25 103.75 C 122.40 105.25 117.75 107.50 114.38 108.88 C 111.00 110.25 106.96 110.79 105.00 112.00 C 103.04 113.21 103.06 115.21 102.62 116.12 C 102.19 117.04 102.54 117.17 102.38 117.50 C 102.21 117.83 102.12 117.12 101.62 118.12 C 101.12 119.12 100.19 121.92 99.38 123.50 C 98.56 125.08 97.21 126.81 96.75 127.62 C 96.29 128.44 96.56 128.19 96.62 128.38 C 96.69 128.56 95.88 128.69 97.12 128.75 C 98.38 128.81 102.48 128.92 104.12 128.75 C 105.77 128.58 104.48 128.94 107.00 127.75 C 109.52 126.56 115.73 123.58 119.25 121.62 C 122.77 119.67 126.42 116.94 128.12 116.00 C 129.83 115.06 129.00 115.88 129.50 116.00 C 130.00 116.12 130.75 116.38 131.12 116.75 C 131.50 117.12 132.48 115.54 131.75 118.25 C 131.02 120.96 128.75 127.50 126.75 133.00 C 124.75 138.50 122.42 144.60 119.75 151.25 C 117.08 157.90 113.88 165.71 110.75 172.88 C 107.62 180.04 102.56 190.58 101.00 194.25 C 99.44 197.92 98.06 195.92 101.38 194.88 C 104.69 193.83 116.62 190.29 120.88 188.00 C 125.12 185.71 121.00 189.35 126.88 181.12 C 132.75 172.90 148.83 148.71 156.12 138.62 C 163.42 128.54 167.56 124.31 170.62 120.62 C 173.69 116.94 172.83 118.08 174.50 116.50 C 176.17 114.92 179.27 112.48 180.62 111.12 C 181.98 109.77 182.10 109.23 182.62 108.38 C 183.15 107.52 183.56 107.10 183.75 106.00 C 183.94 104.90 184.04 102.98 183.75 101.75 C 183.46 100.52 182.71 99.54 182.00 98.62 C 181.29 97.71 180.50 97.02 179.50 96.25 Z" id="s-1-f-0"/>
<clipPath id="c-s-1"><use href="#s-1-f-0"/></clipPath>
<path d="M 36.38 198.00 C 34.25 198.15 34.90 198.58 34.38 199.00 C 33.85 199.42 33.48 199.75 33.25 200.50 C 33.02 201.25 32.52 202.33 33.00 203.50 C 33.48 204.67 35.15 206.00 36.12 207.50 C 37.10 209.00 37.94 210.46 38.88 212.50 C 39.81 214.54 40.94 217.29 41.75 219.75 C 42.56 222.21 42.75 221.17 43.75 227.25 C 44.75 233.33 46.19 243.23 47.75 256.25 C 49.31 269.27 51.88 296.02 53.12 305.38 C 54.38 314.73 54.08 309.81 55.25 312.38 C 56.42 314.94 58.96 319.06 60.12 320.75 C 61.29 322.44 61.42 322.17 62.25 322.50 C 63.08 322.83 64.35 322.88 65.12 322.75 C 65.90 322.62 66.10 322.48 66.88 321.75 C 67.65 321.02 69.15 319.31 69.75 318.38 C 70.35 317.44 70.12 319.40 70.50 316.12 C 70.88 312.85 71.90 304.96 72.00 298.75 C 72.10 292.54 71.29 287.56 71.12 278.88 C 70.96 270.19 71.08 253.77 71.00 246.62 C 70.92 239.48 70.79 238.52 70.62 236.00 C 70.46 233.48 70.12 235.04 70.00 231.50 C 69.88 227.96 71.23 219.54 69.88 214.75 C 68.52 209.96 63.40 204.90 61.88 202.75 C 60.35 200.60 62.27 202.48 60.75 201.88 C 59.23 201.27 55.02 199.75 52.75 199.12 C 50.48 198.50 49.85 198.31 47.12 198.12 C 44.40 197.94 38.50 197.85 36.38 198.00 Z" id="s-2-f-0"/>
<clipPath id="c-s-2"><use href="#s-2-f-0"/></clipPath>
<path d="M 60.75 202.25 C 61.83 204.31 67.15 212.02 68.62 214.12 C 70.10 216.23 65.77 215.23 69.62 214.88 C 73.48 214.52 81.50 213.98 91.75 212.00 C 102.00 210.02 123.10 204.67 131.12 203.00 C 139.15 201.33 138.10 201.98 139.88 202.00 C 141.65 202.02 141.15 202.33 141.75 203.12 C 142.35 203.92 143.17 205.71 143.50 206.75 C 143.83 207.79 143.85 204.60 143.75 209.38 C 143.65 214.15 143.38 229.02 142.88 235.38 C 142.38 241.73 141.08 244.75 140.75 247.50 C 140.42 250.25 141.04 249.08 140.88 251.88 C 140.71 254.67 140.27 259.60 139.75 264.25 C 139.23 268.90 138.44 275.38 137.75 279.75 C 137.06 284.12 136.12 286.71 135.62 290.50 C 135.12 294.29 134.35 299.23 134.75 302.50 C 135.15 305.77 137.00 308.35 138.00 310.12 C 139.00 311.90 139.85 312.38 140.75 313.12 C 141.65 313.88 141.94 314.38 143.38 314.62 C 144.81 314.88 147.88 314.83 149.38 314.62 C 150.88 314.42 151.48 313.88 152.38 313.38 C 153.27 312.88 153.85 312.50 154.75 311.62 C 155.65 310.75 157.08 309.02 157.75 308.12 C 158.42 307.23 158.27 307.56 158.75 306.25 C 159.23 304.94 158.73 309.56 160.62 300.25 C 162.52 290.94 167.73 262.40 170.12 250.38 C 172.52 238.35 173.54 233.73 175.00 228.12 C 176.46 222.52 177.42 220.27 178.88 216.75 C 180.33 213.23 182.96 209.35 183.75 207.00 C 184.54 204.65 184.06 203.96 183.62 202.62 C 183.19 201.29 182.98 200.77 181.12 199.00 C 179.27 197.23 176.00 194.31 172.50 192.00 C 169.00 189.69 164.19 187.10 160.12 185.12 C 156.06 183.15 150.98 180.98 148.12 180.12 C 145.27 179.27 145.21 179.67 143.00 180.00 C 140.79 180.33 137.52 181.29 134.88 182.12 C 132.23 182.96 128.88 184.23 127.12 185.00 C 125.38 185.77 125.31 186.31 124.38 186.75 C 123.44 187.19 122.33 187.48 121.50 187.62 C 120.67 187.77 120.35 187.33 119.38 187.62 C 118.40 187.92 116.56 189.04 115.62 189.38 C 114.69 189.71 114.25 189.46 113.75 189.62 C 113.25 189.79 114.10 189.85 112.62 190.38 C 111.15 190.90 106.79 192.02 104.88 192.75 C 102.96 193.48 102.90 194.08 101.12 194.75 C 99.35 195.42 97.69 195.92 94.25 196.75 C 90.81 197.58 85.85 198.92 80.50 199.75 C 75.15 200.58 65.42 201.33 62.12 201.75 C 58.83 202.17 59.67 200.19 60.75 202.25 Z" id="s-3-f-0"/>
<clipPath id="c-s-3"><use href="#s-3-f-0"/></clipPath>
<path d="M 143.25 236.25 C 143.02 233.98 141.15 235.23 140.00 234.88 C 138.85 234.52 138.56 234.44 136.38 234.12 C 134.19 233.81 129.40 233.19 126.88 233.00 C 124.35 232.81 126.90 231.54 121.25 233.00 C 115.60 234.46 101.31 239.62 93.00 241.75 C 84.69 243.88 75.12 245.00 71.38 245.75 C 67.62 246.50 70.62 243.96 70.50 246.25 C 70.38 248.54 70.15 257.23 70.62 259.50 C 71.10 261.77 70.98 259.85 73.38 259.88 C 75.77 259.90 81.88 259.94 85.00 259.62 C 88.12 259.31 90.33 258.29 92.12 258.00 C 93.92 257.71 90.85 258.60 95.75 257.88 C 100.65 257.15 114.25 254.96 121.50 253.62 C 128.75 252.29 135.94 250.73 139.25 249.88 C 142.56 249.02 140.71 250.77 141.38 248.50 C 142.04 246.23 143.48 238.52 143.25 236.25 Z" id="s-4-f-0"/>
<clipPath id="c-s-4"><use href="#s-4-f-0"/></clipPath>
<path d="M 112.75 206.75 C 112.27 202.10 110.60 206.52 110.00 206.62 C 109.40 206.73 110.65 207.04 109.12 207.38 C 107.60 207.71 102.50 208.27 100.88 208.62 C 99.25 208.98 100.10 209.33 99.38 209.50 C 98.65 209.67 97.17 209.48 96.50 209.62 C 95.83 209.77 96.12 210.19 95.38 210.38 C 94.62 210.56 92.75 210.52 92.00 210.75 C 91.25 210.98 90.90 210.19 90.88 211.75 C 90.85 213.31 91.54 215.54 91.88 220.12 C 92.21 224.71 92.77 235.54 92.88 239.25 C 92.98 242.96 92.52 237.17 92.50 242.38 C 92.48 247.58 92.83 263.44 92.75 270.50 C 92.67 277.56 92.12 281.27 92.00 284.75 C 91.88 288.23 91.94 290.17 92.00 291.38 C 92.06 292.58 88.98 292.71 92.38 292.00 C 95.77 291.29 108.96 288.04 112.38 287.12 C 115.79 286.21 112.73 294.98 112.88 286.50 C 113.02 278.02 113.25 244.92 113.25 236.25 C 113.25 227.58 112.96 239.42 112.88 234.50 C 112.79 229.58 113.23 211.40 112.75 206.75 Z" id="s-5-f-0"/>
<clipPath id="c-s-5"><use href="#s-5-f-0"/></clipPath>
<path d="M 136.25 290.38 C 135.96 288.77 136.06 289.73 134.25 289.00 C 132.44 288.27 128.04 286.50 125.38 286.00 C 122.71 285.50 120.12 285.88 118.25 286.00 C 116.38 286.12 115.27 286.67 114.12 286.75 C 112.98 286.83 112.19 286.40 111.38 286.50 C 110.56 286.60 111.46 286.85 109.25 287.38 C 107.04 287.90 100.15 289.15 98.12 289.62 C 96.10 290.10 97.96 290.06 97.12 290.25 C 96.29 290.44 93.85 290.56 93.12 290.75 C 92.40 290.94 93.38 291.10 92.75 291.38 C 92.12 291.65 92.85 291.65 89.38 292.38 C 85.90 293.10 74.98 294.27 71.88 295.75 C 68.77 297.23 70.98 298.79 70.75 301.25 C 70.52 303.71 70.46 308.90 70.50 310.50 C 70.54 312.10 69.67 310.83 71.00 310.88 C 72.33 310.92 75.81 311.06 78.50 310.75 C 81.19 310.44 80.35 310.12 87.12 309.00 C 93.90 307.88 112.54 304.98 119.12 304.00 C 125.71 303.02 124.00 303.31 126.62 303.12 C 129.25 302.94 133.31 303.62 134.88 302.88 C 136.44 302.12 135.77 300.71 136.00 298.62 C 136.23 296.54 136.54 291.98 136.25 290.38 Z" id="s-6-f-0"/>
<clipPath id="c-s-6"><use href="#s-6-f-0"/></clipPath>
<path d="M 45.50 338.00 C 44.88 337.56 44.56 337.69 44.00 338.00 C 43.44 338.31 43.02 337.62 42.12 339.88 C 41.23 342.12 40.85 345.83 38.62 351.50 C 36.40 357.17 31.65 367.69 28.75 373.88 C 25.85 380.06 22.85 384.81 21.25 388.62 C 19.65 392.44 19.48 393.38 19.12 396.75 C 18.77 400.12 18.79 405.58 19.12 408.88 C 19.46 412.17 20.65 414.92 21.12 416.50 C 21.60 418.08 21.23 417.38 22.00 418.38 C 22.77 419.38 24.60 421.44 25.75 422.50 C 26.90 423.56 27.85 424.21 28.88 424.75 C 29.90 425.29 30.73 425.56 31.88 425.75 C 33.02 425.94 34.65 426.08 35.75 425.88 C 36.85 425.67 37.48 425.29 38.50 424.50 C 39.52 423.71 40.69 422.65 41.88 421.12 C 43.06 419.60 44.48 417.67 45.62 415.38 C 46.77 413.08 48.02 409.85 48.75 407.38 C 49.48 404.90 49.19 403.27 50.00 400.50 C 50.81 397.73 52.52 394.79 53.62 390.75 C 54.73 386.71 56.08 380.40 56.62 376.25 C 57.17 372.10 57.04 368.71 56.88 365.88 C 56.71 363.04 56.31 361.67 55.62 359.25 C 54.94 356.83 53.85 353.88 52.75 351.38 C 51.65 348.88 49.83 346.04 49.00 344.25 C 48.17 342.46 48.33 341.67 47.75 340.62 C 47.17 339.58 46.12 338.44 45.50 338.00 Z" id="s-7-f-0"/>
<clipPath id="c-s-7"><use href="#s-7-f-0"/></clipPath>
<path d="M 67.88 344.00 C 66.71 344.25 66.27 344.73 66.00 345.62 C 65.73 346.52 64.92 344.62 66.25 349.38 C 67.58 354.12 71.69 367.38 74.00 374.12 C 76.31 380.88 78.46 385.92 80.12 389.88 C 81.79 393.83 82.96 396.08 84.00 397.88 C 85.04 399.67 85.23 400.15 86.38 400.62 C 87.52 401.10 89.71 400.88 90.88 400.75 C 92.04 400.62 92.48 400.38 93.38 399.88 C 94.27 399.38 95.52 398.44 96.25 397.75 C 96.98 397.06 97.17 397.12 97.75 395.75 C 98.33 394.38 99.44 392.62 99.75 389.50 C 100.06 386.38 99.81 380.00 99.62 377.00 C 99.44 374.00 99.10 373.38 98.62 371.50 C 98.15 369.62 97.40 367.33 96.75 365.75 C 96.10 364.17 95.81 363.60 94.75 362.00 C 93.69 360.40 92.31 358.15 90.38 356.12 C 88.44 354.10 86.02 351.88 83.12 349.88 C 80.23 347.88 75.54 345.10 73.00 344.12 C 70.46 343.15 69.04 343.75 67.88 344.00 Z" id="s-8-f-0"/>
<clipPath id="c-s-8"><use href="#s-8-f-0"/></clipPath>
<path d="M 102.25 338.12 C 101.33 338.29 101.46 338.42 101.25 339.12 C 101.04 339.83 100.88 341.27 101.00 342.38 C 101.12 343.48 100.48 341.79 102.00 345.75 C 103.52 349.71 107.60 360.25 110.12 366.12 C 112.65 372.00 115.38 377.60 117.12 381.00 C 118.88 384.40 119.81 385.04 120.62 386.50 C 121.44 387.96 121.50 388.88 122.00 389.75 C 122.50 390.62 122.90 391.23 123.62 391.75 C 124.35 392.27 125.44 392.71 126.38 392.88 C 127.31 393.04 128.40 392.94 129.25 392.75 C 130.10 392.56 130.73 392.33 131.50 391.75 C 132.27 391.17 133.23 390.31 133.88 389.25 C 134.52 388.19 135.04 387.67 135.38 385.38 C 135.71 383.08 135.98 378.90 135.88 375.50 C 135.77 372.10 135.50 368.31 134.75 365.00 C 134.00 361.69 132.56 357.92 131.38 355.62 C 130.19 353.33 129.17 352.73 127.62 351.25 C 126.08 349.77 124.52 348.48 122.12 346.75 C 119.73 345.02 115.81 342.31 113.25 340.88 C 110.69 339.44 108.58 338.58 106.75 338.12 C 104.92 337.67 103.17 337.96 102.25 338.12 Z" id="s-9-f-0"/>
<clipPath id="c-s-9"><use href="#s-9-f-0"/></clipPath>
<path d="M 135.38 332.00 C 134.81 332.17 134.92 332.42 134.88 333.25 C 134.83 334.08 132.10 328.44 135.12 337.00 C 138.15 345.56 149.71 376.10 153.00 384.62 C 156.29 393.15 154.15 387.10 154.88 388.12 C 155.60 389.15 156.46 390.31 157.38 390.75 C 158.29 391.19 159.42 390.92 160.38 390.75 C 161.33 390.58 161.90 390.67 163.12 389.75 C 164.35 388.83 166.65 386.96 167.75 385.25 C 168.85 383.54 169.25 381.29 169.75 379.50 C 170.25 377.71 170.60 377.21 170.75 374.50 C 170.90 371.79 170.96 366.29 170.62 363.25 C 170.29 360.21 169.88 358.60 168.75 356.25 C 167.62 353.90 166.00 351.48 163.88 349.12 C 161.75 346.77 160.27 344.94 156.00 342.12 C 151.73 339.31 141.69 333.94 138.25 332.25 C 134.81 330.56 135.94 331.83 135.38 332.00 Z" id="s-10-f-0"/>
<clipPath id="c-s-10"><use href="#s-10-f-0"/></clipPath>
<path d="M 207.00 118.00 C 205.85 118.23 205.48 118.90 205.12 119.50 C 204.77 120.10 204.88 120.96 204.88 121.62 C 204.88 122.29 204.65 122.00 205.12 123.50 C 205.60 125.00 207.15 128.31 207.75 130.62 C 208.35 132.94 208.58 135.31 208.75 137.38 C 208.92 139.44 208.92 140.17 208.75 143.00 C 208.58 145.83 208.25 150.54 207.75 154.38 C 207.25 158.21 206.42 162.79 205.75 166.00 C 205.08 169.21 205.52 168.52 203.75 173.62 C 201.98 178.73 196.58 191.92 195.12 196.62 C 193.67 201.33 194.50 199.75 195.00 201.88 C 195.50 204.00 196.83 206.85 198.12 209.38 C 199.42 211.90 201.50 215.25 202.75 217.00 C 204.00 218.75 204.85 219.25 205.62 219.88 C 206.40 220.50 206.73 220.60 207.38 220.75 C 208.02 220.90 207.67 222.00 209.50 220.75 C 211.33 219.50 215.73 215.19 218.38 213.25 C 221.02 211.31 220.94 211.17 225.38 209.12 C 229.81 207.08 239.17 203.17 245.00 201.00 C 250.83 198.83 257.71 197.12 260.38 196.12 C 263.04 195.12 260.90 195.62 261.00 195.00 C 261.10 194.38 261.15 193.94 261.00 192.38 C 260.85 190.81 260.44 186.85 260.12 185.62 C 259.81 184.40 262.27 184.58 259.12 185.00 C 255.98 185.42 246.67 187.00 241.25 188.12 C 235.83 189.25 229.54 191.17 226.62 191.75 C 223.71 192.33 224.46 191.81 223.75 191.62 C 223.04 191.44 222.67 191.10 222.38 190.62 C 222.08 190.15 221.90 190.44 222.00 188.75 C 222.10 187.06 222.06 185.48 223.00 180.50 C 223.94 175.52 226.19 166.38 227.62 158.88 C 229.06 151.38 230.94 140.02 231.62 135.50 C 232.31 130.98 232.40 133.19 231.75 131.75 C 231.10 130.31 229.25 128.33 227.75 126.88 C 226.25 125.42 224.52 124.15 222.75 123.00 C 220.98 121.85 218.92 120.81 217.12 120.00 C 215.33 119.19 213.69 118.46 212.00 118.12 C 210.31 117.79 208.15 117.77 207.00 118.00 Z" id="s-11-f-0"/>
<clipPath id="c-s-11"><use href="#s-11-f-0"/></clipPath>
<path d="M 255.62 56.88 C 254.46 56.98 253.65 57.31 252.88 57.75 C 252.10 58.19 251.48 58.77 251.00 59.50 C 250.52 60.23 250.17 61.02 250.00 62.12 C 249.83 63.23 249.67 64.02 250.00 66.12 C 250.33 68.23 251.21 72.15 252.00 74.75 C 252.79 77.35 253.96 79.15 254.75 81.75 C 255.54 84.35 256.08 86.60 256.75 90.38 C 257.42 94.15 258.23 99.31 258.75 104.38 C 259.27 109.44 259.54 113.02 259.88 120.75 C 260.21 128.48 260.58 140.12 260.75 150.75 C 260.92 161.38 260.92 178.60 260.88 184.50 C 260.83 190.40 260.52 181.33 260.50 186.12 C 260.48 190.92 260.88 198.83 260.75 213.25 C 260.62 227.67 261.08 248.08 259.75 272.62 C 258.42 297.17 254.69 340.17 252.75 360.50 C 250.81 380.83 248.92 387.10 248.12 394.62 C 247.33 402.15 247.65 402.19 248.00 405.62 C 248.35 409.06 248.90 411.21 250.25 415.25 C 251.60 419.29 254.44 426.21 256.12 429.88 C 257.81 433.54 259.27 435.62 260.38 437.25 C 261.48 438.88 262.06 439.19 262.75 439.62 C 263.44 440.06 264.04 439.88 264.50 439.88 C 264.96 439.88 264.88 440.04 265.50 439.62 C 266.12 439.21 267.04 438.90 268.25 437.38 C 269.46 435.85 271.33 433.33 272.75 430.50 C 274.17 427.67 275.75 423.54 276.75 420.38 C 277.75 417.21 278.40 439.79 278.75 411.50 C 279.10 383.21 278.69 283.60 278.88 250.62 C 279.06 217.65 279.02 232.81 279.88 213.62 C 280.73 194.44 282.48 156.04 284.00 135.50 C 285.52 114.96 287.88 98.71 289.00 90.38 C 290.12 82.04 290.48 87.40 290.75 85.50 C 291.02 83.60 290.94 80.67 290.62 79.00 C 290.31 77.33 290.08 76.98 288.88 75.50 C 287.67 74.02 286.44 72.38 283.38 70.12 C 280.31 67.88 273.56 63.83 270.50 62.00 C 267.44 60.17 266.77 59.94 265.00 59.12 C 263.23 58.31 261.44 57.50 259.88 57.12 C 258.31 56.75 256.79 56.77 255.62 56.88 Z" id="s-12-f-0"/>
<clipPath id="c-s-12"><use href="#s-12-f-0"/></clipPath>
<path d="M 260.12 255.25 C 259.75 252.50 259.40 254.54 258.00 254.00 C 256.60 253.46 253.44 252.33 251.75 252.00 C 250.06 251.67 249.19 251.83 247.88 252.00 C 246.56 252.17 247.60 251.52 243.88 253.00 C 240.15 254.48 230.48 258.90 225.50 260.88 C 220.52 262.85 217.71 263.73 214.00 264.88 C 210.29 266.02 207.04 266.90 203.25 267.75 C 199.46 268.60 193.62 269.25 191.25 270.00 C 188.88 270.75 189.38 271.35 189.00 272.25 C 188.62 273.15 188.54 274.12 189.00 275.38 C 189.46 276.62 190.90 278.69 191.75 279.75 C 192.60 280.81 192.85 281.10 194.12 281.75 C 195.40 282.40 197.33 283.27 199.38 283.62 C 201.42 283.98 204.06 284.00 206.38 283.88 C 208.69 283.75 208.08 284.17 213.25 282.88 C 218.42 281.58 232.02 277.50 237.38 276.12 C 242.73 274.75 242.67 275.29 245.38 274.62 C 248.08 273.96 251.62 272.62 253.62 272.12 C 255.62 271.62 256.27 271.90 257.38 271.62 C 258.48 271.35 259.79 273.23 260.25 270.50 C 260.71 267.77 260.50 258.00 260.12 255.25 Z" id="s-13-f-0"/>
<clipPath id="c-s-13"><use href="#s-13-f-0"/></clipPath>
<path d="M 231.00 277.75 C 230.21 277.19 229.54 277.52 229.00 277.62 C 228.46 277.73 228.48 278.19 227.75 278.38 C 227.02 278.56 225.25 278.58 224.62 278.75 C 224.00 278.92 225.83 278.90 224.00 279.38 C 222.17 279.85 215.62 281.10 213.62 281.62 C 211.62 282.15 212.46 280.19 212.00 282.50 C 211.54 284.81 211.42 291.33 210.88 295.50 C 210.33 299.67 209.77 302.90 208.75 307.50 C 207.73 312.10 206.42 317.38 204.75 323.12 C 203.08 328.88 201.42 334.71 198.75 342.00 C 196.08 349.29 191.25 361.08 188.75 366.88 C 186.25 372.67 185.29 373.94 183.75 376.75 C 182.21 379.56 180.98 381.62 179.50 383.75 C 178.02 385.88 175.81 388.15 174.88 389.50 C 173.94 390.85 174.00 391.33 173.88 391.88 C 173.75 392.42 173.12 392.60 174.12 392.75 C 175.12 392.90 178.19 393.08 179.88 392.75 C 181.56 392.42 182.44 391.90 184.25 390.75 C 186.06 389.60 188.60 387.71 190.75 385.88 C 192.90 384.04 195.27 381.67 197.12 379.75 C 198.98 377.83 200.08 376.67 201.88 374.38 C 203.67 372.08 205.42 370.08 207.88 366.00 C 210.33 361.92 213.98 355.79 216.62 349.88 C 219.27 343.96 221.75 336.44 223.75 330.50 C 225.75 324.56 227.52 318.23 228.62 314.25 C 229.73 310.27 229.52 309.31 230.38 306.62 C 231.23 303.94 232.85 300.75 233.75 298.12 C 234.65 295.50 235.44 293.15 235.75 290.88 C 236.06 288.60 235.96 286.15 235.62 284.50 C 235.29 282.85 234.52 282.12 233.75 281.00 C 232.98 279.88 231.79 278.31 231.00 277.75 Z" id="s-14-f-0"/>
<clipPath id="c-s-14"><use href="#s-14-f-0"/></clipPath>
<path d="M 383.38 59.88 C 381.58 58.44 380.00 57.17 377.12 55.88 C 374.25 54.58 369.02 52.96 366.12 52.12 C 363.23 51.29 361.54 51.06 359.75 50.88 C 357.96 50.69 356.42 50.85 355.38 51.00 C 354.33 51.15 353.92 51.46 353.50 51.75 C 353.08 52.04 353.04 51.25 352.88 52.75 C 352.71 54.25 352.75 58.23 352.50 60.75 C 352.25 63.27 352.54 64.08 351.38 67.88 C 350.21 71.67 347.29 79.17 345.50 83.50 C 343.71 87.83 342.75 89.83 340.62 93.88 C 338.50 97.92 336.38 101.88 332.75 107.75 C 329.12 113.62 323.42 122.52 318.88 129.12 C 314.33 135.73 309.23 142.56 305.50 147.38 C 301.77 152.19 298.08 156.02 296.50 158.00 C 294.92 159.98 296.04 158.92 296.00 159.25 C 295.96 159.58 295.83 159.73 296.25 160.00 C 296.67 160.27 297.46 160.77 298.50 160.88 C 299.54 160.98 301.19 160.96 302.50 160.62 C 303.81 160.29 305.33 159.48 306.38 158.88 C 307.42 158.27 307.42 157.83 308.75 157.00 C 310.08 156.17 311.96 155.52 314.38 153.88 C 316.79 152.23 317.81 151.94 323.25 147.12 C 328.69 142.31 340.50 131.69 347.00 125.00 C 353.50 118.31 358.71 111.44 362.25 107.00 C 365.79 102.56 365.75 101.65 368.25 98.38 C 370.75 95.10 373.81 91.21 377.25 87.38 C 380.69 83.54 386.77 77.92 388.88 75.38 C 390.98 72.83 389.77 73.42 389.88 72.12 C 389.98 70.83 389.83 68.90 389.50 67.62 C 389.17 66.35 388.90 65.79 387.88 64.50 C 386.85 63.21 385.17 61.31 383.38 59.88 Z" id="s-15-f-0"/>
<clipPath id="c-s-15"><use href="#s-15-f-0"/></clipPath>
<path d="M 456.62 112.38 C 455.08 110.58 451.54 107.58 449.62 106.00 C 447.71 104.42 446.85 103.88 445.12 102.88 C 443.40 101.88 442.04 101.12 439.25 100.00 C 436.46 98.88 431.19 96.79 428.38 96.12 C 425.56 95.46 426.75 94.90 422.38 96.00 C 418.00 97.10 407.96 100.96 402.12 102.75 C 396.29 104.54 395.06 105.04 387.38 106.75 C 379.69 108.46 362.79 110.08 356.00 113.00 C 349.21 115.92 348.38 122.25 346.62 124.25 C 344.88 126.25 345.62 124.73 345.50 125.00 C 345.38 125.27 345.50 125.58 345.88 125.88 C 346.25 126.17 345.42 126.58 347.75 126.75 C 350.08 126.92 355.88 127.04 359.88 126.88 C 363.88 126.71 369.19 126.08 371.75 125.75 C 374.31 125.42 372.92 125.23 375.25 124.88 C 377.58 124.52 381.40 124.60 385.75 123.62 C 390.10 122.65 397.56 119.94 401.38 119.00 C 405.19 118.06 407.00 118.17 408.62 118.00 C 410.25 117.83 410.50 117.92 411.12 118.00 C 411.75 118.08 411.94 118.12 412.38 118.50 C 412.81 118.88 413.52 119.69 413.75 120.25 C 413.98 120.81 413.94 120.96 413.75 121.88 C 413.56 122.79 413.29 124.04 412.62 125.75 C 411.96 127.46 412.08 127.88 409.75 132.12 C 407.42 136.38 402.00 146.04 398.62 151.25 C 395.25 156.46 392.73 159.29 389.50 163.38 C 386.27 167.46 384.40 170.00 379.25 175.75 C 374.10 181.50 363.77 192.56 358.62 197.88 C 353.48 203.19 352.98 203.65 348.38 207.62 C 343.77 211.60 337.31 217.06 331.00 221.75 C 324.69 226.44 317.58 231.35 310.50 235.75 C 303.42 240.15 292.44 245.83 288.50 248.12 C 284.56 250.42 287.10 248.98 286.88 249.50 C 286.65 250.02 286.88 250.85 287.12 251.25 C 287.38 251.65 287.46 251.79 288.38 251.88 C 289.29 251.96 290.29 252.10 292.62 251.75 C 294.96 251.40 298.81 250.75 302.38 249.75 C 305.94 248.75 309.33 247.60 314.00 245.75 C 318.67 243.90 326.02 240.62 330.38 238.62 C 334.73 236.62 336.50 235.73 340.12 233.75 C 343.75 231.77 347.94 229.42 352.12 226.75 C 356.31 224.08 361.54 220.44 365.25 217.75 C 368.96 215.06 370.65 213.73 374.38 210.62 C 378.10 207.52 382.02 204.52 387.62 199.12 C 393.23 193.73 402.12 184.67 408.00 178.25 C 413.88 171.83 417.48 167.38 422.88 160.62 C 428.27 153.88 436.92 142.19 440.38 137.75 C 443.83 133.31 440.75 136.88 443.62 134.00 C 446.50 131.12 455.10 123.00 457.62 120.50 C 460.15 118.00 458.54 119.62 458.75 119.00 C 458.96 118.38 459.23 117.85 458.88 116.75 C 458.52 115.65 458.17 114.17 456.62 112.38 Z" id="s-16-f-0"/>
<clipPath id="c-s-16"><use href="#s-16-f-0"/></clipPath>
<path d="M 338.38 139.00 C 337.27 139.40 337.79 140.62 337.88 141.50 C 337.96 142.38 336.69 140.83 338.88 144.25 C 341.06 147.67 347.48 157.19 351.00 162.00 C 354.52 166.81 358.00 170.81 360.00 173.12 C 362.00 175.44 361.88 175.10 363.00 175.88 C 364.12 176.65 365.33 177.44 366.75 177.75 C 368.17 178.06 370.17 178.04 371.50 177.75 C 372.83 177.46 373.90 176.73 374.75 176.00 C 375.60 175.27 376.17 174.19 376.62 173.38 C 377.08 172.56 377.31 173.04 377.50 171.12 C 377.69 169.21 378.02 164.48 377.75 161.88 C 377.48 159.27 376.71 157.35 375.88 155.50 C 375.04 153.65 374.15 152.17 372.75 150.75 C 371.35 149.33 370.35 148.44 367.50 147.00 C 364.65 145.56 359.46 143.44 355.62 142.12 C 351.79 140.81 347.38 139.65 344.50 139.12 C 341.62 138.60 339.48 138.60 338.38 139.00 Z" id="s-17-f-0"/>
<clipPath id="c-s-17"><use href="#s-17-f-0"/></clipPath>
<path d="M 300.62 170.38 C 300.21 170.62 299.98 170.96 299.88 171.38 C 299.77 171.79 299.12 171.08 300.00 172.88 C 300.88 174.67 302.79 178.12 305.12 182.12 C 307.46 186.12 311.38 192.90 314.00 196.88 C 316.62 200.85 319.21 204.00 320.88 206.00 C 322.54 208.00 322.85 208.08 324.00 208.88 C 325.15 209.67 326.33 210.44 327.75 210.75 C 329.17 211.06 331.23 210.96 332.50 210.75 C 333.77 210.54 334.52 210.15 335.38 209.50 C 336.23 208.85 337.08 207.75 337.62 206.88 C 338.17 206.00 338.44 206.19 338.62 204.25 C 338.81 202.31 339.06 197.96 338.75 195.25 C 338.44 192.54 337.65 190.15 336.75 188.00 C 335.85 185.85 334.44 183.71 333.38 182.38 C 332.31 181.04 331.77 180.90 330.38 180.00 C 328.98 179.10 327.77 178.33 325.00 177.00 C 322.23 175.67 316.83 173.17 313.75 172.00 C 310.67 170.83 308.40 170.35 306.50 170.00 C 304.60 169.65 303.35 169.81 302.38 169.88 C 301.40 169.94 301.04 170.12 300.62 170.38 Z" id="s-18-f-0"/>
<clipPath id="c-s-18"><use href="#s-18-f-0"/></clipPath>
<path d="M 479.88 267.25 C 479.73 266.54 479.56 265.90 478.88 265.00 C 478.19 264.10 477.12 262.98 475.75 261.88 C 474.38 260.77 472.48 259.50 470.62 258.38 C 468.77 257.25 467.98 256.52 464.62 255.12 C 461.27 253.73 453.40 250.88 450.50 250.00 C 447.60 249.12 451.58 249.19 447.25 249.88 C 442.92 250.56 430.00 252.98 424.50 254.12 C 419.00 255.27 419.40 255.94 414.25 256.75 C 409.10 257.56 404.81 257.33 393.62 259.00 C 382.44 260.67 363.77 264.25 347.12 266.75 C 330.48 269.25 303.52 272.48 293.75 274.00 C 283.98 275.52 289.60 275.35 288.50 275.88 C 287.40 276.40 287.40 276.69 287.12 277.12 C 286.85 277.56 286.77 277.98 286.88 278.50 C 286.98 279.02 287.21 279.60 287.75 280.25 C 288.29 280.90 289.35 281.79 290.12 282.38 C 290.90 282.96 290.46 282.88 292.38 283.75 C 294.29 284.62 299.02 286.62 301.62 287.62 C 304.23 288.62 306.04 289.23 308.00 289.75 C 309.96 290.27 311.60 290.56 313.38 290.75 C 315.15 290.94 315.40 291.33 318.62 290.88 C 321.85 290.42 325.48 289.31 332.75 288.00 C 340.02 286.69 352.75 284.50 362.25 283.00 C 371.75 281.50 382.25 279.85 389.75 279.00 C 397.25 278.15 399.58 278.54 407.25 277.88 C 414.92 277.21 425.38 275.69 435.75 275.00 C 446.12 274.31 462.92 274.15 469.50 273.75 C 476.08 273.35 473.98 272.96 475.25 272.62 C 476.52 272.29 476.38 272.31 477.12 271.75 C 477.88 271.19 479.29 270.00 479.75 269.25 C 480.21 268.50 480.02 267.96 479.88 267.25 Z" id="s-19-f-0"/>
<clipPath id="c-s-19"><use href="#s-19-f-0"/></clipPath>
<path d="M 387.25 208.88 C 385.88 208.88 386.29 208.83 385.62 209.12 C 384.96 209.42 383.85 210.06 383.25 210.62 C 382.65 211.19 382.23 211.65 382.00 212.50 C 381.77 213.35 381.71 214.27 381.88 215.75 C 382.04 217.23 382.35 219.23 383.00 221.38 C 383.65 223.52 384.79 224.46 385.75 228.62 C 386.71 232.79 388.08 241.48 388.75 246.38 C 389.42 251.27 389.58 253.52 389.75 258.00 C 389.92 262.48 389.56 269.65 389.75 273.25 C 389.94 276.85 390.56 277.15 390.88 279.62 C 391.19 282.10 391.48 279.21 391.62 288.12 C 391.77 297.04 391.88 318.48 391.75 333.12 C 391.62 347.77 391.19 366.12 390.88 376.00 C 390.56 385.88 390.23 388.77 389.88 392.38 C 389.52 395.98 389.31 395.96 388.75 397.62 C 388.19 399.29 387.48 401.19 386.50 402.38 C 385.52 403.56 385.44 404.54 382.88 404.75 C 380.31 404.96 377.04 404.58 371.12 403.62 C 365.21 402.67 352.17 399.77 347.38 399.00 C 342.58 398.23 343.27 398.92 342.38 399.00 C 341.48 399.08 342.06 398.98 342.00 399.50 C 341.94 400.02 341.58 401.06 342.00 402.12 C 342.42 403.19 341.92 403.38 344.50 405.88 C 347.08 408.38 353.73 413.71 357.50 417.12 C 361.27 420.54 364.25 423.50 367.12 426.38 C 370.00 429.25 372.12 431.35 374.75 434.38 C 377.38 437.40 381.10 442.44 382.88 444.50 C 384.65 446.56 384.62 446.23 385.38 446.75 C 386.12 447.27 386.44 447.44 387.38 447.62 C 388.31 447.81 389.75 448.04 391.00 447.88 C 392.25 447.71 393.50 447.35 394.88 446.62 C 396.25 445.90 397.96 444.60 399.25 443.50 C 400.54 442.40 401.21 441.69 402.62 440.00 C 404.04 438.31 406.23 435.85 407.75 433.38 C 409.27 430.90 410.77 427.67 411.75 425.12 C 412.73 422.58 413.12 420.40 413.62 418.12 C 414.12 415.85 414.38 414.92 414.75 411.50 C 415.12 408.08 415.69 404.19 415.88 397.62 C 416.06 391.06 416.17 387.48 415.88 372.12 C 415.58 356.77 414.46 321.29 414.12 305.50 C 413.79 289.71 413.85 282.35 413.88 277.38 C 413.90 272.40 414.19 278.98 414.25 275.62 C 414.31 272.27 414.31 261.10 414.25 257.25 C 414.19 253.40 413.77 255.54 413.88 252.50 C 413.98 249.46 414.42 242.77 414.88 239.00 C 415.33 235.23 416.29 232.52 416.62 229.88 C 416.96 227.23 417.02 224.98 416.88 223.12 C 416.73 221.27 416.23 219.83 415.75 218.75 C 415.27 217.67 414.69 217.25 414.00 216.62 C 413.31 216.00 414.25 216.08 411.62 215.00 C 409.00 213.92 401.21 211.10 398.25 210.12 C 395.29 209.15 395.71 209.33 393.88 209.12 C 392.04 208.92 388.62 208.88 387.25 208.88 Z" id="s-20-f-0"/>
<clipPath id="c-s-20"><use href="#s-20-f-0"/></clipPath>
<path d="M 312.00 314.50 C 311.69 315.02 311.38 315.15 312.00 316.12 C 312.62 317.10 314.08 317.83 315.75 320.38 C 317.42 322.92 319.65 327.52 322.00 331.38 C 324.35 335.23 326.94 339.42 329.88 343.50 C 332.81 347.58 337.17 352.96 339.62 355.88 C 342.08 358.79 343.12 359.71 344.62 361.00 C 346.12 362.29 347.08 363.17 348.62 363.62 C 350.17 364.08 352.25 364.08 353.88 363.75 C 355.50 363.42 357.25 362.42 358.38 361.62 C 359.50 360.83 359.94 360.23 360.62 359.00 C 361.31 357.77 362.12 356.42 362.50 354.25 C 362.88 352.08 363.00 348.67 362.88 346.00 C 362.75 343.33 362.27 340.31 361.75 338.25 C 361.23 336.19 360.54 335.02 359.75 333.62 C 358.96 332.23 358.67 331.48 357.00 329.88 C 355.33 328.27 352.73 325.81 349.75 324.00 C 346.77 322.19 344.00 320.81 339.12 319.00 C 334.25 317.19 324.71 314.12 320.50 313.12 C 316.29 312.12 315.29 312.77 313.88 313.00 C 312.46 313.23 312.31 313.98 312.00 314.50 Z" id="s-21-f-0"/>
<clipPath id="c-s-21"><use href="#s-21-f-0"/></clipPath>
</defs>
<g id="s-0" clip-path="url(#c-s-0)">
<use href="#s-0-f-0"/>
<path d="M 101.62 57.12 C 99.96 56.44 97.25 55.35 95.38 55.00 C 93.50 54.65 91.54 54.85 90.38 55.00 C 89.21 55.15 89.10 55.31 88.38 55.88 C 87.65 56.44 86.56 57.46 86.00 58.38 C 85.44 59.29 85.29 58.00 85.00 61.38 C 84.71 64.75 84.62 73.96 84.25 78.62 C 83.88 83.29 83.69 85.33 82.75 89.38 C 81.81 93.42 80.31 97.83 78.62 102.88 C 76.94 107.92 74.94 113.75 72.62 119.62 C 70.31 125.50 67.02 133.02 64.75 138.12 C 62.48 143.23 59.75 148.17 59.00 150.25 C 58.25 152.33 56.46 150.50 60.25 150.62 C 64.04 150.75 78.00 151.04 81.75 151.00 C 85.50 150.96 80.40 153.67 82.75 150.38 C 85.10 147.08 91.40 138.79 95.88 131.25 C 100.35 123.71 105.50 113.62 109.62 105.12 C 113.75 96.62 118.75 85.00 120.62 80.25 C 122.50 75.50 121.17 77.92 120.88 76.62 C 120.58 75.33 119.92 74.00 118.88 72.50 C 117.83 71.00 116.88 69.85 114.62 67.62 C 112.38 65.40 107.54 60.88 105.38 59.12 C 103.21 57.38 103.29 57.81 101.62 57.12 Z" id="s-0-f-1"/>
<path d="M 89.50 55.25 C 87.94 55.81 86.75 57.35 86.00 58.38 C 85.25 59.40 85.21 59.10 85.00 61.38 C 84.79 63.65 84.98 68.12 84.75 72.00 C 84.52 75.88 83.96 81.73 83.62 84.62 C 83.29 87.52 83.50 86.75 82.75 89.38 C 82.00 92.00 79.75 98.21 79.12 100.38 C 78.50 102.54 77.46 101.94 79.00 102.38 C 80.54 102.81 83.12 102.92 88.38 103.00 C 93.62 103.08 105.12 106.67 110.50 102.88 C 115.88 99.08 118.90 84.62 120.62 80.25 C 122.35 75.88 120.90 77.44 120.88 76.62 C 120.85 75.81 121.17 76.48 120.50 75.38 C 119.83 74.27 118.48 71.92 116.88 70.00 C 115.27 68.08 112.79 65.69 110.88 63.88 C 108.96 62.06 106.92 60.25 105.38 59.12 C 103.83 58.00 103.29 57.81 101.62 57.12 C 99.96 56.44 97.40 55.31 95.38 55.00 C 93.35 54.69 91.06 54.69 89.50 55.25 Z" id="s-0-f-2"/>
</g>
<g id="s-1" clip-path="url(#c-s-1)">
<use href="#s-1-f-0"/>
<path d="M 182.00 98.62 C 181.21 97.65 180.00 96.65 179.00 95.88 C 178.00 95.10 178.31 95.12 176.00 94.00 C 173.69 92.88 168.33 90.44 165.12 89.12 C 161.92 87.81 158.88 86.62 156.75 86.12 C 154.62 85.62 154.27 85.48 152.38 86.12 C 150.48 86.77 148.77 87.75 145.38 90.00 C 141.98 92.25 135.35 97.33 132.00 99.62 C 128.65 101.92 128.19 102.21 125.25 103.75 C 122.31 105.29 117.69 107.56 114.38 108.88 C 111.06 110.19 107.15 110.75 105.38 111.62 C 103.60 112.50 104.08 113.46 103.75 114.12 C 103.42 114.79 103.56 115.29 103.38 115.62 C 103.19 115.96 102.77 115.85 102.62 116.12 C 102.48 116.40 102.67 116.92 102.50 117.25 C 102.33 117.58 102.15 117.08 101.62 118.12 C 101.10 119.17 100.21 121.79 99.38 123.50 C 98.54 125.21 96.81 127.48 96.62 128.38 C 96.44 129.27 97.21 128.79 98.25 128.88 C 99.29 128.96 101.42 129.06 102.88 128.88 C 104.33 128.69 104.27 128.96 107.00 127.75 C 109.73 126.54 115.73 123.58 119.25 121.62 C 122.77 119.67 126.33 116.92 128.12 116.00 C 129.92 115.08 129.40 115.88 130.00 116.12 C 130.60 116.38 131.46 117.15 131.75 117.50 C 132.04 117.85 132.60 115.58 131.75 118.25 C 130.90 120.92 128.62 127.96 126.62 133.50 C 124.62 139.04 120.58 148.42 119.75 151.50 C 118.92 154.58 117.17 151.96 121.62 152.00 C 126.08 152.04 139.33 155.81 146.50 151.75 C 153.67 147.69 160.17 133.29 164.62 127.62 C 169.08 121.96 170.46 120.65 173.25 117.75 C 176.04 114.85 179.77 111.88 181.38 110.25 C 182.98 108.62 182.46 108.90 182.88 108.00 C 183.29 107.10 183.73 105.92 183.88 104.88 C 184.02 103.83 184.06 102.79 183.75 101.75 C 183.44 100.71 182.79 99.60 182.00 98.62 Z" id="s-1-f-1"/>
<path d="M 183.75 101.75 C 183.46 100.90 182.79 99.60 182.00 98.62 C 181.21 97.65 180.00 96.65 179.00 95.88 C 178.00 95.10 179.17 95.46 176.00 94.00 C 172.83 92.54 163.31 88.46 160.00 87.12 C 156.69 85.79 157.40 86.17 156.12 86.00 C 154.85 85.83 154.17 85.46 152.38 86.12 C 150.58 86.79 148.77 87.75 145.38 90.00 C 141.98 92.25 135.65 97.17 132.00 99.62 C 128.35 102.08 126.31 103.25 123.50 104.75 C 120.69 106.25 118.15 107.42 115.12 108.62 C 112.10 109.83 108.46 108.71 105.38 112.00 C 102.29 115.29 97.83 125.56 96.62 128.38 C 95.42 131.19 96.92 128.83 98.12 128.88 C 99.33 128.92 102.06 128.98 103.88 128.62 C 105.69 128.27 106.52 127.90 109.00 126.75 C 111.48 125.60 115.54 123.56 118.75 121.75 C 121.96 119.94 117.77 118.71 128.25 115.88 C 138.73 113.04 172.38 106.77 181.62 104.75 C 190.88 102.73 183.40 104.25 183.75 103.75 C 184.10 103.25 184.04 102.60 183.75 101.75 Z" id="s-1-f-2"/>
<path d="M 144.88 91.12 C 144.73 87.81 146.27 89.46 144.12 90.88 C 141.98 92.29 135.44 97.31 132.00 99.62 C 128.56 101.94 126.31 103.25 123.50 104.75 C 120.69 106.25 118.15 107.42 115.12 108.62 C 112.10 109.83 108.46 108.71 105.38 112.00 C 102.29 115.29 97.83 125.56 96.62 128.38 C 95.42 131.19 96.83 128.85 98.12 128.88 C 99.42 128.90 102.19 129.02 104.38 128.50 C 106.56 127.98 108.85 126.88 111.25 125.75 C 113.65 124.62 116.04 123.35 118.75 121.75 C 121.46 120.15 123.25 117.62 127.50 116.12 C 131.75 114.62 141.33 113.65 144.25 112.75 C 147.17 111.85 144.90 114.35 145.00 110.75 C 145.10 107.15 145.02 94.44 144.88 91.12 Z" id="s-1-f-3"/>
</g>
<g id="s-2" clip-path="url(#c-s-2)">
<use href="#s-2-f-0"/>
<path d="M 36.38 198.00 C 34.25 198.15 34.90 198.58 34.38 199.00 C 33.85 199.42 33.48 199.75 33.25 200.50 C 33.02 201.25 32.52 202.33 33.00 203.50 C 33.48 204.67 35.15 206.00 36.12 207.50 C 37.10 209.00 37.77 209.94 38.88 212.50 C 39.98 215.06 41.94 220.42 42.75 222.88 C 43.56 225.33 43.08 223.06 43.75 227.25 C 44.42 231.44 45.35 236.94 46.75 248.00 C 48.15 259.06 50.21 285.96 52.12 293.62 C 54.04 301.29 55.19 294.02 58.25 294.00 C 61.31 293.98 68.27 293.79 70.50 293.50 C 72.73 293.21 71.42 293.06 71.62 292.25 C 71.83 291.44 71.83 290.67 71.75 288.62 C 71.67 286.58 71.25 287.00 71.12 280.00 C 71.00 273.00 71.08 253.96 71.00 246.62 C 70.92 239.29 70.79 238.52 70.62 236.00 C 70.46 233.48 70.12 235.04 70.00 231.50 C 69.88 227.96 71.04 219.27 69.88 214.75 C 68.71 210.23 64.52 206.52 63.00 204.38 C 61.48 202.23 62.46 202.75 60.75 201.88 C 59.04 201.00 55.02 199.75 52.75 199.12 C 50.48 198.50 49.85 198.31 47.12 198.12 C 44.40 197.94 38.50 197.85 36.38 198.00 Z" id="s-2-f-1"/>
<path d="M 34.38 199.00 C 33.81 199.52 33.23 200.38 33.00 201.12 C 32.77 201.88 32.48 202.44 33.00 203.50 C 33.52 204.56 35.21 206.12 36.12 207.50 C 37.04 208.88 37.40 209.19 38.50 211.75 C 39.60 214.31 41.69 219.12 42.75 222.88 C 43.81 226.62 44.29 230.50 44.88 234.25 C 45.46 238.00 45.92 243.44 46.25 245.38 C 46.58 247.31 46.50 245.77 46.88 245.88 C 47.25 245.98 44.56 246.00 48.50 246.00 C 52.44 246.00 66.77 246.58 70.50 245.88 C 74.23 245.17 70.96 244.15 70.88 241.75 C 70.79 239.35 70.17 236.00 70.00 231.50 C 69.83 227.00 71.25 219.56 69.88 214.75 C 68.50 209.94 64.19 205.10 61.75 202.62 C 59.31 200.15 57.69 200.62 55.25 199.88 C 52.81 199.12 50.27 198.44 47.12 198.12 C 43.98 197.81 38.50 197.85 36.38 198.00 C 34.25 198.15 34.94 198.48 34.38 199.00 Z" id="s-2-f-2"/>
</g>
<g id="s-3" clip-path="url(#c-s-3)">
<use href="#s-3-f-0"/>
<path d="M 60.75 202.25 C 61.83 204.31 67.15 212.02 68.62 214.12 C 70.10 216.23 65.77 215.23 69.62 214.88 C 73.48 214.52 81.50 213.98 91.75 212.00 C 102.00 210.02 123.10 204.67 131.12 203.00 C 139.15 201.33 138.12 202.00 139.88 202.00 C 141.62 202.00 141.12 202.52 141.62 203.00 C 142.12 203.48 142.52 203.81 142.88 204.88 C 143.23 205.94 143.75 204.29 143.75 209.38 C 143.75 214.46 143.38 229.02 142.88 235.38 C 142.38 241.73 141.08 244.75 140.75 247.50 C 140.42 250.25 141.04 249.08 140.88 251.88 C 140.71 254.67 140.44 258.65 139.75 264.25 C 139.06 269.85 135.92 281.88 136.75 285.50 C 137.58 289.12 140.69 285.92 144.75 286.00 C 148.81 286.08 158.00 286.12 161.12 286.00 C 164.25 285.88 161.67 292.85 163.50 285.25 C 165.33 277.65 170.21 249.90 172.12 240.38 C 174.04 230.85 174.02 231.71 175.00 228.12 C 175.98 224.54 176.69 222.02 178.00 218.88 C 179.31 215.73 181.90 211.38 182.88 209.25 C 183.85 207.12 183.73 207.17 183.88 206.12 C 184.02 205.08 183.94 203.83 183.75 203.00 C 183.56 202.17 183.25 201.85 182.75 201.12 C 182.25 200.40 181.94 199.79 180.75 198.62 C 179.56 197.46 177.52 195.56 175.62 194.12 C 173.73 192.69 173.10 192.02 169.38 190.00 C 165.65 187.98 156.79 183.65 153.25 182.00 C 149.71 180.35 149.81 180.46 148.12 180.12 C 146.44 179.79 145.33 179.67 143.12 180.00 C 140.92 180.33 137.54 181.29 134.88 182.12 C 132.21 182.96 128.88 184.23 127.12 185.00 C 125.38 185.77 125.31 186.31 124.38 186.75 C 123.44 187.19 122.33 187.48 121.50 187.62 C 120.67 187.77 120.35 187.33 119.38 187.62 C 118.40 187.92 116.56 189.04 115.62 189.38 C 114.69 189.71 114.25 189.46 113.75 189.62 C 113.25 189.79 114.10 189.85 112.62 190.38 C 111.15 190.90 106.79 192.02 104.88 192.75 C 102.96 193.48 102.90 194.08 101.12 194.75 C 99.35 195.42 97.69 195.92 94.25 196.75 C 90.81 197.58 85.85 198.92 80.50 199.75 C 75.15 200.58 65.42 201.33 62.12 201.75 C 58.83 202.17 59.67 200.19 60.75 202.25 Z" id="s-3-f-1"/>
<path d="M 183.88 206.12 C 184.98 203.10 183.94 203.96 183.75 203.12 C 183.56 202.29 183.25 201.88 182.75 201.12 C 182.25 200.38 181.94 199.79 180.75 198.62 C 179.56 197.46 178.06 195.85 175.62 194.12 C 173.19 192.40 169.85 190.27 166.12 188.25 C 162.40 186.23 156.38 183.38 153.25 182.00 C 150.12 180.62 149.06 180.33 147.38 180.00 C 145.69 179.67 145.15 179.67 143.12 180.00 C 141.10 180.33 137.92 181.17 135.25 182.00 C 132.58 182.83 128.94 184.21 127.12 185.00 C 125.31 185.79 125.31 186.31 124.38 186.75 C 123.44 187.19 122.33 187.48 121.50 187.62 C 120.67 187.77 120.35 187.33 119.38 187.62 C 118.40 187.92 116.56 189.04 115.62 189.38 C 114.69 189.71 114.25 189.46 113.75 189.62 C 113.25 189.79 114.10 189.85 112.62 190.38 C 111.15 190.90 106.79 192.02 104.88 192.75 C 102.96 193.48 103.46 193.94 101.12 194.75 C 98.79 195.56 94.31 196.79 90.88 197.62 C 87.44 198.46 85.29 199.06 80.50 199.75 C 75.71 200.44 65.42 201.33 62.12 201.75 C 58.83 202.17 59.67 200.19 60.75 202.25 C 61.83 204.31 67.15 212.02 68.62 214.12 C 70.10 216.23 65.77 215.23 69.62 214.88 C 73.48 214.52 81.75 213.94 91.75 212.00 C 101.75 210.06 121.60 204.92 129.62 203.25 C 137.65 201.58 137.75 201.90 139.88 202.00 C 142.00 202.10 141.77 203.08 142.38 203.88 C 142.98 204.67 143.29 203.60 143.50 206.75 C 143.71 209.90 143.77 217.73 143.62 222.75 C 143.48 227.77 142.73 234.38 142.62 236.88 C 142.52 239.38 142.62 237.56 143.00 237.75 C 143.38 237.94 139.92 238.02 144.88 238.00 C 149.83 237.98 167.38 240.42 172.75 237.62 C 178.12 234.83 175.27 226.50 177.12 221.25 C 178.98 216.00 182.77 209.15 183.88 206.12 Z" id="s-3-f-2"/>
<path d="M 168.25 189.38 C 165.46 187.83 154.85 182.81 151.38 181.25 C 147.90 179.69 148.75 180.21 147.38 180.00 C 146.00 179.79 145.21 179.65 143.12 180.00 C 141.04 180.35 137.54 181.29 134.88 182.12 C 132.21 182.96 128.88 184.23 127.12 185.00 C 125.38 185.77 125.31 186.31 124.38 186.75 C 123.44 187.19 122.33 187.48 121.50 187.62 C 120.67 187.77 120.35 187.33 119.38 187.62 C 118.40 187.92 116.56 189.04 115.62 189.38 C 114.69 189.71 114.25 189.46 113.75 189.62 C 113.25 189.79 114.10 189.85 112.62 190.38 C 111.15 190.90 106.79 192.02 104.88 192.75 C 102.96 193.48 102.90 194.08 101.12 194.75 C 99.35 195.42 97.69 195.92 94.25 196.75 C 90.81 197.58 85.85 198.92 80.50 199.75 C 75.15 200.58 65.42 201.33 62.12 201.75 C 58.83 202.17 59.67 200.19 60.75 202.25 C 61.83 204.31 67.15 212.02 68.62 214.12 C 70.10 216.23 68.96 214.77 69.62 214.88 C 70.29 214.98 68.85 215.25 72.62 214.75 C 76.40 214.25 82.67 213.81 92.25 211.88 C 101.83 209.94 122.21 204.81 130.12 203.12 C 138.04 201.44 133.42 203.85 139.75 201.75 C 146.08 199.65 163.38 192.56 168.12 190.50 C 172.88 188.44 171.04 190.92 168.25 189.38 Z" id="s-3-f-3"/>
<path d="M 157.00 184.88 C 156.88 182.98 157.60 184.17 156.12 183.38 C 154.65 182.58 150.54 180.65 148.12 180.12 C 145.71 179.60 144.71 179.60 141.62 180.25 C 138.54 180.90 132.50 182.92 129.62 184.00 C 126.75 185.08 125.73 186.15 124.38 186.75 C 123.02 187.35 122.33 187.48 121.50 187.62 C 120.67 187.77 120.35 187.33 119.38 187.62 C 118.40 187.92 116.56 189.04 115.62 189.38 C 114.69 189.71 114.25 189.46 113.75 189.62 C 113.25 189.79 114.10 189.85 112.62 190.38 C 111.15 190.90 106.79 192.02 104.88 192.75 C 102.96 193.48 102.90 194.08 101.12 194.75 C 99.35 195.42 97.69 195.92 94.25 196.75 C 90.81 197.58 85.85 198.92 80.50 199.75 C 75.15 200.58 65.42 201.33 62.12 201.75 C 58.83 202.17 59.67 200.19 60.75 202.25 C 61.83 204.31 67.15 212.02 68.62 214.12 C 70.10 216.23 67.62 214.94 69.62 214.88 C 71.62 214.81 76.85 214.25 80.62 213.75 C 84.40 213.25 84.00 213.65 92.25 211.88 C 100.50 210.10 122.21 204.81 130.12 203.12 C 138.04 201.44 135.62 202.96 139.75 201.75 C 143.88 200.54 152.02 197.04 154.88 195.88 C 157.73 194.71 156.52 196.58 156.88 194.75 C 157.23 192.92 157.12 186.77 157.00 184.88 Z" id="s-3-f-4"/>
<path d="M 108.88 192.00 C 108.67 189.50 108.06 191.56 107.75 191.62 C 107.44 191.69 107.42 192.21 107.00 192.38 C 106.58 192.54 106.23 192.23 105.25 192.62 C 104.27 193.02 104.19 193.77 101.12 194.75 C 98.06 195.73 90.31 197.67 86.88 198.50 C 83.44 199.33 84.62 199.21 80.50 199.75 C 76.38 200.29 65.42 201.33 62.12 201.75 C 58.83 202.17 59.67 200.19 60.75 202.25 C 61.83 204.31 67.15 212.02 68.62 214.12 C 70.10 216.23 67.62 214.94 69.62 214.88 C 71.62 214.81 76.83 214.25 80.62 213.75 C 84.42 213.25 87.71 212.83 92.38 211.88 C 97.04 210.92 105.85 208.88 108.62 208.00 C 111.40 207.12 108.96 209.29 109.00 206.62 C 109.04 203.96 109.08 194.50 108.88 192.00 Z" id="s-3-f-5"/>
</g>
<g id="s-4" clip-path="url(#c-s-4)">
<use href="#s-4-f-0"/>
<path d="M 118.88 234.38 C 118.67 231.12 122.15 232.75 117.75 234.00 C 113.35 235.25 100.29 239.90 92.50 241.88 C 84.71 243.85 74.67 245.15 71.00 245.88 C 67.33 246.60 70.56 243.98 70.50 246.25 C 70.44 248.52 70.10 257.23 70.62 259.50 C 71.15 261.77 71.50 259.83 73.62 259.88 C 75.75 259.92 80.29 260.06 83.38 259.75 C 86.46 259.44 88.81 258.50 92.12 258.00 C 95.44 257.50 98.85 257.42 103.25 256.75 C 107.65 256.08 115.88 254.54 118.50 254.00 C 121.12 253.46 118.94 256.77 119.00 253.50 C 119.06 250.23 119.08 237.62 118.88 234.38 Z" id="s-4-f-1"/>
</g>
<g id="s-5" clip-path="url(#c-s-5)">
<use href="#s-5-f-0"/>
<path d="M 112.75 206.75 C 112.21 198.79 110.60 206.52 110.00 206.62 C 109.40 206.73 110.65 207.04 109.12 207.38 C 107.60 207.71 102.42 208.29 100.88 208.62 C 99.33 208.96 100.60 209.21 99.88 209.38 C 99.15 209.54 97.25 209.46 96.50 209.62 C 95.75 209.79 96.12 210.19 95.38 210.38 C 94.62 210.56 92.73 210.58 92.00 210.75 C 91.27 210.92 90.88 207.56 91.00 211.38 C 91.12 215.19 92.50 226.44 92.75 233.62 C 93.00 240.81 92.48 250.92 92.50 254.50 C 92.52 258.08 89.54 255.04 92.88 255.12 C 96.21 255.21 109.10 255.12 112.50 255.00 C 115.90 254.88 113.21 262.42 113.25 254.38 C 113.29 246.33 113.29 214.71 112.75 206.75 Z" id="s-5-f-1"/>
</g>
<g id="s-6" clip-path="url(#c-s-6)">
<use href="#s-6-f-0"/>
<path d="M 118.88 286.50 C 118.73 283.52 118.67 285.96 117.88 286.00 C 117.08 286.04 115.33 286.65 114.12 286.75 C 112.92 286.85 111.44 286.52 110.62 286.62 C 109.81 286.73 109.94 287.21 109.25 287.38 C 108.56 287.54 107.90 287.29 106.50 287.62 C 105.10 287.96 103.12 288.85 100.88 289.38 C 98.62 289.90 94.46 290.38 93.00 290.75 C 91.54 291.12 95.65 290.79 92.12 291.62 C 88.60 292.46 75.44 294.15 71.88 295.75 C 68.31 297.35 70.98 298.79 70.75 301.25 C 70.52 303.71 70.25 308.90 70.50 310.50 C 70.75 312.10 70.75 310.85 72.25 310.88 C 73.75 310.90 77.02 310.94 79.50 310.62 C 81.98 310.31 80.67 310.06 87.12 309.00 C 93.58 307.94 112.98 305.10 118.25 304.25 C 123.52 303.40 118.65 306.83 118.75 303.88 C 118.85 300.92 119.02 289.48 118.88 286.50 Z" id="s-6-f-1"/>
</g>
<g id="s-7" clip-path="url(#c-s-7)">
<use href="#s-7-f-0"/>
<path d="M 45.50 338.00 C 44.90 337.60 44.56 337.69 44.00 338.00 C 43.44 338.31 43.02 337.62 42.12 339.88 C 41.23 342.12 40.85 345.83 38.62 351.50 C 36.40 357.17 31.35 368.29 28.75 373.88 C 26.15 379.46 23.90 382.98 23.00 385.00 C 22.10 387.02 19.67 385.83 23.38 386.00 C 27.08 386.17 40.00 386.08 45.25 386.00 C 50.50 385.92 52.96 387.29 54.88 385.50 C 56.79 383.71 56.46 378.98 56.75 375.25 C 57.04 371.52 57.29 367.10 56.62 363.12 C 55.96 359.15 54.02 354.52 52.75 351.38 C 51.48 348.23 49.85 346.08 49.00 344.25 C 48.15 342.42 48.21 341.42 47.62 340.38 C 47.04 339.33 46.10 338.40 45.50 338.00 Z" id="s-7-f-1"/>
</g>
<g id="s-8" clip-path="url(#c-s-8)">
<use href="#s-8-f-0"/>
<path d="M 67.38 344.25 C 66.85 344.54 66.23 344.94 66.00 345.62 C 65.77 346.31 64.50 343.15 66.00 348.38 C 67.50 353.60 72.50 369.81 75.00 377.00 C 77.50 384.19 79.69 389.00 81.00 391.50 C 82.31 394.00 79.94 391.92 82.88 392.00 C 85.81 392.08 95.88 392.10 98.62 392.00 C 101.38 391.90 99.19 391.79 99.38 391.38 C 99.56 390.96 99.71 391.90 99.75 389.50 C 99.79 387.10 99.96 380.50 99.62 377.00 C 99.29 373.50 98.56 371.00 97.75 368.50 C 96.94 366.00 95.85 363.92 94.75 362.00 C 93.65 360.08 92.50 358.58 91.12 357.00 C 89.75 355.42 88.04 353.83 86.50 352.50 C 84.96 351.17 84.12 350.40 81.88 349.00 C 79.62 347.60 75.12 344.98 73.00 344.12 C 70.88 343.27 70.06 343.85 69.12 343.88 C 68.19 343.90 67.90 343.96 67.38 344.25 Z" id="s-8-f-1"/>
</g>
<g id="s-9" clip-path="url(#c-s-9)">
<use href="#s-9-f-0"/>
<path d="M 101.88 338.38 C 101.50 338.62 101.27 338.71 101.12 339.38 C 100.98 340.04 100.85 341.31 101.00 342.38 C 101.15 343.44 100.33 341.46 102.00 345.75 C 103.67 350.04 108.17 361.71 111.00 368.12 C 113.83 374.54 117.44 381.29 119.00 384.25 C 120.56 387.21 117.77 385.58 120.38 385.88 C 122.98 386.17 132.12 386.08 134.62 386.00 C 137.12 385.92 135.19 385.79 135.38 385.38 C 135.56 384.96 135.71 385.92 135.75 383.50 C 135.79 381.08 135.79 373.96 135.62 370.88 C 135.46 367.79 135.10 366.71 134.75 365.00 C 134.40 363.29 134.21 362.42 133.50 360.62 C 132.79 358.83 131.48 355.81 130.50 354.25 C 129.52 352.69 129.02 352.50 127.62 351.25 C 126.23 350.00 124.71 348.58 122.12 346.75 C 119.54 344.92 114.69 341.69 112.12 340.25 C 109.56 338.81 108.21 338.52 106.75 338.12 C 105.29 337.73 104.19 337.83 103.38 337.88 C 102.56 337.92 102.25 338.12 101.88 338.38 Z" id="s-9-f-1"/>
</g>
<g id="s-10" clip-path="url(#c-s-10)">
<use href="#s-10-f-0"/>
<path d="M 135.38 332.00 C 134.81 332.17 134.92 332.42 134.88 333.25 C 134.83 334.08 132.42 329.25 135.12 337.00 C 137.83 344.75 145.42 372.62 151.12 379.75 C 156.83 386.88 166.10 380.65 169.38 379.75 C 172.65 378.85 170.54 377.12 170.75 374.38 C 170.96 371.62 170.96 366.27 170.62 363.25 C 170.29 360.23 169.52 358.17 168.75 356.25 C 167.98 354.33 167.38 353.50 166.00 351.75 C 164.62 350.00 162.17 347.35 160.50 345.75 C 158.83 344.15 159.71 344.38 156.00 342.12 C 152.29 339.88 141.69 333.94 138.25 332.25 C 134.81 330.56 135.94 331.83 135.38 332.00 Z" id="s-10-f-1"/>
</g>
<g id="s-11" clip-path="url(#c-s-11)">
<use href="#s-11-f-0"/>
<path d="M 207.00 118.00 C 205.85 118.23 205.48 118.90 205.12 119.50 C 204.77 120.10 204.88 120.96 204.88 121.62 C 204.88 122.29 204.65 122.00 205.12 123.50 C 205.60 125.00 207.15 128.31 207.75 130.62 C 208.35 132.94 208.58 135.31 208.75 137.38 C 208.92 139.44 208.92 140.17 208.75 143.00 C 208.58 145.83 208.25 150.54 207.75 154.38 C 207.25 158.21 206.46 162.65 205.75 166.00 C 205.04 169.35 205.27 169.40 203.50 174.50 C 201.73 179.60 196.54 192.06 195.12 196.62 C 193.71 201.19 194.50 199.75 195.00 201.88 C 195.50 204.00 196.83 206.85 198.12 209.38 C 199.42 211.90 201.31 215.15 202.75 217.00 C 204.19 218.85 205.62 219.88 206.75 220.50 C 207.88 221.12 208.60 221.04 209.50 220.75 C 210.40 220.46 211.40 219.54 212.12 218.75 C 212.85 217.96 212.27 220.56 213.88 216.00 C 215.48 211.44 220.23 197.27 221.75 191.38 C 223.27 185.48 222.00 186.17 223.00 180.62 C 224.00 175.08 226.31 165.65 227.75 158.12 C 229.19 150.60 230.96 139.90 231.62 135.50 C 232.29 131.10 232.40 133.19 231.75 131.75 C 231.10 130.31 229.25 128.33 227.75 126.88 C 226.25 125.42 224.52 124.15 222.75 123.00 C 220.98 121.85 218.92 120.81 217.12 120.00 C 215.33 119.19 213.69 118.46 212.00 118.12 C 210.31 117.79 208.15 117.77 207.00 118.00 Z" id="s-11-f-1"/>
<path d="M 211.25 118.00 C 209.50 117.69 207.60 117.94 206.62 118.12 C 205.65 118.31 205.67 118.77 205.38 119.12 C 205.08 119.48 204.92 119.52 204.88 120.25 C 204.83 120.98 204.65 121.77 205.12 123.50 C 205.60 125.23 207.15 128.31 207.75 130.62 C 208.35 132.94 208.73 133.56 208.75 137.38 C 208.77 141.19 208.38 148.73 207.88 153.50 C 207.38 158.27 206.48 162.50 205.75 166.00 C 205.02 169.50 205.12 169.88 203.50 174.50 C 201.88 179.12 197.42 189.92 196.00 193.75 C 194.58 197.58 195.17 196.15 195.00 197.50 C 194.83 198.85 194.81 200.56 195.00 201.88 C 195.19 203.19 195.29 203.56 196.12 205.38 C 196.96 207.19 199.17 211.33 200.00 212.75 C 200.83 214.17 198.94 213.67 201.12 213.88 C 203.31 214.08 210.92 214.02 213.12 214.00 C 215.33 213.98 212.94 217.52 214.38 213.75 C 215.81 209.98 220.31 196.90 221.75 191.38 C 223.19 185.85 222.17 185.25 223.00 180.62 C 223.83 176.00 225.29 171.29 226.75 163.62 C 228.21 155.96 230.94 140.00 231.75 134.62 C 232.56 129.25 232.29 132.67 231.62 131.38 C 230.96 130.08 228.92 128.06 227.75 126.88 C 226.58 125.69 226.40 125.40 224.62 124.25 C 222.85 123.10 219.35 121.04 217.12 120.00 C 214.90 118.96 213.00 118.31 211.25 118.00 Z" id="s-11-f-2"/>
<path d="M 206.62 118.12 C 205.48 118.35 205.42 118.94 205.12 119.50 C 204.83 120.06 204.88 120.83 204.88 121.50 C 204.88 122.17 204.62 121.88 205.12 123.50 C 205.62 125.12 207.29 129.25 207.88 131.25 C 208.46 133.25 208.48 133.54 208.62 135.50 C 208.77 137.46 208.88 140.00 208.75 143.00 C 208.62 146.00 208.33 149.83 207.88 153.50 C 207.42 157.17 206.12 163.00 206.00 165.00 C 205.88 167.00 206.15 165.35 207.12 165.50 C 208.10 165.65 208.79 165.81 211.88 165.88 C 214.96 165.94 223.21 166.02 225.62 165.88 C 228.04 165.73 225.35 170.19 226.38 165.00 C 227.40 159.81 230.85 140.31 231.75 134.75 C 232.65 129.19 232.42 132.94 231.75 131.62 C 231.08 130.31 229.02 128.17 227.75 126.88 C 226.48 125.58 225.52 124.83 224.12 123.88 C 222.73 122.92 221.40 122.08 219.38 121.12 C 217.35 120.17 214.12 118.62 212.00 118.12 C 209.88 117.62 207.77 117.90 206.62 118.12 Z" id="s-11-f-3"/>
</g>
<g id="s-12" clip-path="url(#c-s-12)">
<use href="#s-12-f-0"/>
<path d="M 257.12 56.88 C 256.17 56.83 255.27 56.81 254.50 57.00 C 253.73 57.19 253.08 57.58 252.50 58.00 C 251.92 58.42 251.42 58.83 251.00 59.50 C 250.58 60.17 250.17 60.90 250.00 62.00 C 249.83 63.10 249.83 64.62 250.00 66.12 C 250.17 67.62 250.04 67.77 251.00 71.00 C 251.96 74.23 254.46 79.94 255.75 85.50 C 257.04 91.06 258.10 99.38 258.75 104.38 C 259.40 109.38 259.31 109.10 259.62 115.50 C 259.94 121.90 260.42 132.71 260.62 142.75 C 260.83 152.79 261.02 154.10 260.88 175.75 C 260.73 197.40 261.10 241.83 259.75 272.62 C 258.40 303.42 254.60 340.65 252.75 360.50 C 250.90 380.35 249.23 386.35 248.62 391.75 C 248.02 397.15 248.75 392.67 249.12 392.88 C 249.50 393.08 249.40 393.00 250.88 393.00 C 252.35 393.00 254.83 393.17 258.00 392.88 C 261.17 392.58 266.69 392.71 269.88 391.25 C 273.06 389.79 275.65 387.23 277.12 384.12 C 278.60 381.02 278.46 394.88 278.75 372.62 C 279.04 350.38 278.67 277.67 278.88 250.62 C 279.08 223.58 279.15 229.56 280.00 210.38 C 280.85 191.19 282.50 155.50 284.00 135.50 C 285.50 115.50 287.90 98.65 289.00 90.38 C 290.10 82.10 290.33 87.67 290.62 85.88 C 290.92 84.08 290.92 81.17 290.75 79.62 C 290.58 78.08 290.23 77.65 289.62 76.62 C 289.02 75.60 288.17 74.58 287.12 73.50 C 286.08 72.42 286.15 72.04 283.38 70.12 C 280.60 68.21 273.52 63.81 270.50 62.00 C 267.48 60.19 266.96 60.04 265.25 59.25 C 263.54 58.46 261.60 57.65 260.25 57.25 C 258.90 56.85 258.08 56.92 257.12 56.88 Z" id="s-12-f-1"/>
<path d="M 255.62 56.88 C 254.46 56.98 253.65 57.31 252.88 57.75 C 252.10 58.19 251.48 58.79 251.00 59.50 C 250.52 60.21 250.17 60.90 250.00 62.00 C 249.83 63.10 249.67 64.00 250.00 66.12 C 250.33 68.25 251.21 72.15 252.00 74.75 C 252.79 77.35 253.96 79.15 254.75 81.75 C 255.54 84.35 256.08 86.60 256.75 90.38 C 257.42 94.15 258.27 100.19 258.75 104.38 C 259.23 108.56 259.29 107.77 259.62 115.50 C 259.96 123.23 260.56 134.46 260.75 150.75 C 260.94 167.04 260.92 192.94 260.75 213.25 C 260.58 233.56 260.88 250.83 259.75 272.62 C 258.62 294.42 254.88 331.98 254.00 344.00 C 253.12 356.02 254.19 344.58 254.50 344.75 C 254.81 344.92 251.90 344.96 255.88 345.00 C 259.85 345.04 274.54 345.08 278.38 345.00 C 282.21 344.92 278.79 360.23 278.88 344.50 C 278.96 328.77 278.65 274.00 278.88 250.62 C 279.10 227.25 279.40 223.44 280.25 204.25 C 281.10 185.06 282.54 154.48 284.00 135.50 C 285.46 116.52 287.88 98.75 289.00 90.38 C 290.12 82.00 290.48 87.15 290.75 85.25 C 291.02 83.35 290.94 80.62 290.62 79.00 C 290.31 77.38 290.08 76.98 288.88 75.50 C 287.67 74.02 286.21 72.23 283.38 70.12 C 280.54 68.02 274.94 64.71 271.88 62.88 C 268.81 61.04 267.00 60.08 265.00 59.12 C 263.00 58.17 261.44 57.50 259.88 57.12 C 258.31 56.75 256.79 56.77 255.62 56.88 Z" id="s-12-f-2"/>
<path d="M 255.62 56.88 C 254.48 56.98 253.65 57.31 252.88 57.75 C 252.10 58.19 251.48 58.79 251.00 59.50 C 250.52 60.21 250.17 60.90 250.00 62.00 C 249.83 63.10 249.67 64.00 250.00 66.12 C 250.33 68.25 251.21 72.15 252.00 74.75 C 252.79 77.35 253.96 79.12 254.75 81.75 C 255.54 84.38 256.08 86.73 256.75 90.50 C 257.42 94.27 258.23 99.33 258.75 104.38 C 259.27 109.42 259.54 113.02 259.88 120.75 C 260.21 128.48 260.60 135.33 260.75 150.75 C 260.90 166.17 260.92 192.94 260.75 213.25 C 260.58 233.56 260.23 258.75 259.75 272.62 C 259.27 286.50 257.15 292.44 257.88 296.50 C 258.60 300.56 260.71 296.92 264.12 297.00 C 267.54 297.08 275.92 297.46 278.38 297.00 C 280.83 296.54 278.73 304.67 278.88 294.25 C 279.02 283.83 278.75 255.00 279.25 234.50 C 279.75 214.00 281.08 187.75 281.88 171.25 C 282.67 154.75 283.29 145.15 284.00 135.50 C 284.71 125.85 285.31 120.77 286.12 113.38 C 286.94 105.98 288.10 95.81 288.88 91.12 C 289.65 86.44 290.44 87.17 290.75 85.25 C 291.06 83.33 290.94 81.06 290.75 79.62 C 290.56 78.19 290.06 77.46 289.62 76.62 C 289.19 75.79 288.92 75.50 288.12 74.62 C 287.33 73.75 285.98 72.33 284.88 71.38 C 283.77 70.42 284.81 70.92 281.50 68.88 C 278.19 66.83 268.62 61.08 265.00 59.12 C 261.38 57.17 261.31 57.50 259.75 57.12 C 258.19 56.75 256.77 56.77 255.62 56.88 Z" id="s-12-f-3"/>
<path d="M 254.50 57.00 C 253.27 57.15 253.10 57.54 252.50 58.00 C 251.90 58.46 251.29 59.08 250.88 59.75 C 250.46 60.42 250.15 60.94 250.00 62.00 C 249.85 63.06 249.67 64.00 250.00 66.12 C 250.33 68.25 251.21 72.15 252.00 74.75 C 252.79 77.35 253.96 79.15 254.75 81.75 C 255.54 84.35 256.08 86.60 256.75 90.38 C 257.42 94.15 258.27 100.19 258.75 104.38 C 259.23 108.56 259.31 109.10 259.62 115.50 C 259.94 121.90 260.42 132.71 260.62 142.75 C 260.83 152.79 260.96 158.75 260.88 175.75 C 260.79 192.75 260.08 232.85 260.12 244.75 C 260.17 256.65 260.19 246.48 261.12 247.12 C 262.06 247.77 263.75 248.33 265.75 248.62 C 267.75 248.92 271.12 248.90 273.12 248.88 C 275.12 248.85 276.79 248.67 277.75 248.50 C 278.71 248.33 278.46 255.27 278.88 247.88 C 279.29 240.48 279.40 222.85 280.25 204.12 C 281.10 185.40 282.54 154.46 284.00 135.50 C 285.46 116.54 287.88 98.75 289.00 90.38 C 290.12 82.00 290.46 87.04 290.75 85.25 C 291.04 83.46 290.94 81.06 290.75 79.62 C 290.56 78.19 290.23 77.65 289.62 76.62 C 289.02 75.60 288.17 74.58 287.12 73.50 C 286.08 72.42 287.06 72.52 283.38 70.12 C 279.69 67.73 268.92 61.29 265.00 59.12 C 261.08 56.96 261.62 57.48 259.88 57.12 C 258.12 56.77 255.73 56.85 254.50 57.00 Z" id="s-12-f-4"/>
<path d="M 254.50 57.00 C 253.27 57.15 253.10 57.54 252.50 58.00 C 251.90 58.46 251.29 59.08 250.88 59.75 C 250.46 60.42 250.15 60.94 250.00 62.00 C 249.85 63.06 249.67 64.00 250.00 66.12 C 250.33 68.25 251.38 72.69 252.00 74.75 C 252.62 76.81 253.12 76.71 253.75 78.50 C 254.38 80.29 254.92 81.19 255.75 85.50 C 256.58 89.81 257.94 94.96 258.75 104.38 C 259.56 113.79 260.27 128.65 260.62 142.00 C 260.98 155.35 260.90 177.15 260.88 184.50 C 260.85 191.85 260.56 184.29 260.50 186.12 C 260.44 187.96 260.40 193.04 260.50 195.50 C 260.60 197.96 260.81 199.96 261.12 200.88 C 261.44 201.79 259.25 201.00 262.38 201.00 C 265.50 201.00 276.85 201.00 279.88 200.88 C 282.90 200.75 279.81 211.15 280.50 200.25 C 281.19 189.35 282.58 153.81 284.00 135.50 C 285.42 117.19 287.88 98.75 289.00 90.38 C 290.12 82.00 290.46 87.04 290.75 85.25 C 291.04 83.46 290.94 81.06 290.75 79.62 C 290.56 78.19 290.23 77.65 289.62 76.62 C 289.02 75.60 288.17 74.58 287.12 73.50 C 286.08 72.42 287.06 72.52 283.38 70.12 C 279.69 67.73 268.92 61.29 265.00 59.12 C 261.08 56.96 261.62 57.48 259.88 57.12 C 258.12 56.77 255.73 56.85 254.50 57.00 Z" id="s-12-f-5"/>
<path d="M 254.50 57.00 C 253.21 57.12 253.10 57.54 252.50 58.00 C 251.90 58.46 251.29 59.08 250.88 59.75 C 250.46 60.42 250.15 60.94 250.00 62.00 C 249.85 63.06 249.67 64.00 250.00 66.12 C 250.33 68.25 251.38 72.69 252.00 74.75 C 252.62 76.81 253.12 76.71 253.75 78.50 C 254.38 80.29 254.94 81.42 255.75 85.50 C 256.56 89.58 257.94 97.12 258.62 103.00 C 259.31 108.88 259.52 112.56 259.88 120.75 C 260.23 128.94 260.56 146.81 260.75 152.12 C 260.94 157.44 259.90 152.48 261.00 152.62 C 262.10 152.77 263.79 152.94 267.38 153.00 C 270.96 153.06 279.90 153.10 282.50 153.00 C 285.10 152.90 282.73 155.54 283.00 152.38 C 283.27 149.21 283.46 141.77 284.12 134.00 C 284.79 126.23 286.19 113.02 287.00 105.75 C 287.81 98.48 288.38 93.79 289.00 90.38 C 289.62 86.96 290.48 87.15 290.75 85.25 C 291.02 83.35 290.94 80.62 290.62 79.00 C 290.31 77.38 289.83 76.77 288.88 75.50 C 287.92 74.23 287.71 73.48 284.88 71.38 C 282.04 69.27 275.19 64.92 271.88 62.88 C 268.56 60.83 266.94 60.06 265.00 59.12 C 263.06 58.19 262.00 57.60 260.25 57.25 C 258.50 56.90 255.79 56.88 254.50 57.00 Z" id="s-12-f-6"/>
<path d="M 252.50 58.00 C 251.92 58.42 251.40 58.94 251.00 59.50 C 250.60 60.06 250.29 60.27 250.12 61.38 C 249.96 62.48 249.69 63.90 250.00 66.12 C 250.31 68.35 251.38 72.69 252.00 74.75 C 252.62 76.81 253.12 76.71 253.75 78.50 C 254.38 80.29 254.92 81.17 255.75 85.50 C 256.58 89.83 256.81 101.25 258.75 104.50 C 260.69 107.75 263.00 104.92 267.38 105.00 C 271.75 105.08 281.69 105.10 285.00 105.00 C 288.31 104.90 286.58 106.81 287.25 104.38 C 287.92 101.94 288.44 93.46 289.00 90.38 C 289.56 87.29 290.33 87.67 290.62 85.88 C 290.92 84.08 291.04 81.35 290.75 79.62 C 290.46 77.90 290.10 77.08 288.88 75.50 C 287.65 73.92 286.21 72.23 283.38 70.12 C 280.54 68.02 275.00 64.73 271.88 62.88 C 268.75 61.02 266.75 59.98 264.62 59.00 C 262.50 58.02 260.81 57.33 259.12 57.00 C 257.44 56.67 255.60 56.83 254.50 57.00 C 253.40 57.17 253.08 57.58 252.50 58.00 Z" id="s-12-f-7"/>
</g>
<g id="s-13" clip-path="url(#c-s-13)">
<use href="#s-13-f-0"/>
<path d="M 236.88 256.38 C 236.75 253.27 238.04 255.29 236.25 256.00 C 234.46 256.71 229.77 259.17 226.12 260.62 C 222.48 262.08 218.19 263.56 214.38 264.75 C 210.56 265.94 207.12 266.88 203.25 267.75 C 199.38 268.62 193.50 269.27 191.12 270.00 C 188.75 270.73 189.33 271.17 189.00 272.12 C 188.67 273.08 188.67 274.48 189.12 275.75 C 189.58 277.02 190.92 278.75 191.75 279.75 C 192.58 280.75 192.81 281.10 194.12 281.75 C 195.44 282.40 197.23 283.29 199.62 283.62 C 202.02 283.96 206.23 283.88 208.50 283.75 C 210.77 283.62 208.65 284.04 213.25 282.88 C 217.85 281.71 232.19 277.90 236.12 276.75 C 240.06 275.60 236.73 276.35 236.88 276.00 C 237.02 275.65 237.00 277.90 237.00 274.62 C 237.00 271.35 237.00 259.48 236.88 256.38 Z" id="s-13-f-1"/>
</g>
<g id="s-14" clip-path="url(#c-s-14)">
<use href="#s-14-f-0"/>
<path d="M 231.00 277.75 C 230.21 277.19 229.54 277.52 229.00 277.62 C 228.46 277.73 228.48 278.19 227.75 278.38 C 227.02 278.56 225.25 278.58 224.62 278.75 C 224.00 278.92 225.83 278.90 224.00 279.38 C 222.17 279.85 215.62 281.10 213.62 281.62 C 211.62 282.15 212.46 280.19 212.00 282.50 C 211.54 284.81 211.25 292.19 210.88 295.50 C 210.50 298.81 210.81 297.62 209.75 302.38 C 208.69 307.12 206.33 317.40 204.50 324.00 C 202.67 330.60 201.23 335.19 198.75 342.00 C 196.27 348.81 191.85 359.69 189.62 364.88 C 187.40 370.06 186.02 371.62 185.38 373.12 C 184.73 374.62 183.21 373.73 185.75 373.88 C 188.29 374.02 197.83 374.06 200.62 374.00 C 203.42 373.94 201.46 374.58 202.50 373.50 C 203.54 372.42 205.31 369.85 206.88 367.50 C 208.44 365.15 210.25 362.31 211.88 359.38 C 213.50 356.44 214.65 354.69 216.62 349.88 C 218.60 345.06 221.75 336.44 223.75 330.50 C 225.75 324.56 227.52 318.23 228.62 314.25 C 229.73 310.27 229.52 309.31 230.38 306.62 C 231.23 303.94 232.85 300.75 233.75 298.12 C 234.65 295.50 235.44 293.15 235.75 290.88 C 236.06 288.60 235.96 286.15 235.62 284.50 C 235.29 282.85 234.52 282.12 233.75 281.00 C 232.98 279.88 231.79 278.31 231.00 277.75 Z" id="s-14-f-1"/>
<path d="M 231.25 277.88 C 230.46 277.31 229.58 277.54 229.00 277.62 C 228.42 277.71 228.48 278.19 227.75 278.38 C 227.02 278.56 225.25 278.58 224.62 278.75 C 224.00 278.92 225.83 278.90 224.00 279.38 C 222.17 279.85 215.62 281.10 213.62 281.62 C 211.62 282.15 212.46 280.19 212.00 282.50 C 211.54 284.81 211.25 292.19 210.88 295.50 C 210.50 298.81 210.44 299.00 209.75 302.38 C 209.06 305.75 207.71 312.02 206.75 315.75 C 205.79 319.48 204.40 323.04 204.00 324.75 C 203.60 326.46 201.10 325.81 204.38 326.00 C 207.65 326.19 220.15 325.98 223.62 325.88 C 227.10 325.77 224.42 327.31 225.25 325.38 C 226.08 323.44 227.77 317.38 228.62 314.25 C 229.48 311.12 229.52 309.31 230.38 306.62 C 231.23 303.94 232.85 300.75 233.75 298.12 C 234.65 295.50 235.44 293.12 235.75 290.88 C 236.06 288.62 235.96 286.27 235.62 284.62 C 235.29 282.98 234.48 282.12 233.75 281.00 C 233.02 279.88 232.04 278.44 231.25 277.88 Z" id="s-14-f-2"/>
</g>
<g id="s-15" clip-path="url(#c-s-15)">
<use href="#s-15-f-0"/>
<path d="M 383.38 59.88 C 381.58 58.44 380.00 57.17 377.12 55.88 C 374.25 54.58 369.02 52.96 366.12 52.12 C 363.23 51.29 361.54 51.06 359.75 50.88 C 357.96 50.69 356.42 50.85 355.38 51.00 C 354.33 51.15 353.92 51.46 353.50 51.75 C 353.08 52.04 353.04 51.25 352.88 52.75 C 352.71 54.25 352.83 57.96 352.50 60.75 C 352.17 63.54 352.04 65.71 350.88 69.50 C 349.71 73.29 347.21 79.44 345.50 83.50 C 343.79 87.56 342.77 89.79 340.62 93.88 C 338.48 97.96 336.25 102.12 332.62 108.00 C 329.00 113.88 323.25 122.77 318.88 129.12 C 314.50 135.48 308.44 143.15 306.38 146.12 C 304.31 149.10 303.67 146.90 306.50 147.00 C 309.33 147.10 316.62 150.42 323.38 146.75 C 330.12 143.08 340.27 131.94 347.00 125.00 C 353.73 118.06 360.21 109.56 363.75 105.12 C 367.29 100.69 366.00 101.33 368.25 98.38 C 370.50 95.42 373.81 91.21 377.25 87.38 C 380.69 83.54 386.77 77.92 388.88 75.38 C 390.98 72.83 389.77 73.42 389.88 72.12 C 389.98 70.83 389.83 68.90 389.50 67.62 C 389.17 66.35 388.90 65.79 387.88 64.50 C 386.85 63.21 385.17 61.31 383.38 59.88 Z" id="s-15-f-1"/>
<path d="M 387.88 64.50 C 386.69 63.08 384.48 60.69 382.38 59.12 C 380.27 57.56 378.73 56.48 375.25 55.12 C 371.77 53.77 364.81 51.69 361.50 51.00 C 358.19 50.31 356.71 50.88 355.38 51.00 C 354.04 51.12 353.92 51.46 353.50 51.75 C 353.08 52.04 353.04 51.25 352.88 52.75 C 352.71 54.25 352.83 57.98 352.50 60.75 C 352.17 63.52 352.02 65.62 350.88 69.38 C 349.73 73.12 347.31 79.21 345.62 83.25 C 343.94 87.29 342.02 91.15 340.75 93.62 C 339.48 96.10 338.44 97.27 338.00 98.12 C 337.56 98.98 333.50 98.60 338.12 98.75 C 342.75 98.90 360.75 99.02 365.75 99.00 C 370.75 98.98 366.19 100.60 368.12 98.62 C 370.06 96.65 373.94 90.98 377.38 87.12 C 380.81 83.27 386.69 77.79 388.75 75.50 C 390.81 73.21 389.56 74.33 389.75 73.38 C 389.94 72.42 389.92 70.71 389.88 69.75 C 389.83 68.79 389.83 68.50 389.50 67.62 C 389.17 66.75 389.06 65.92 387.88 64.50 Z" id="s-15-f-2"/>
</g>
<g id="s-16" clip-path="url(#c-s-16)">
<use href="#s-16-f-0"/>
<path d="M 456.62 112.38 C 455.08 110.58 451.54 107.58 449.62 106.00 C 447.71 104.42 446.85 103.88 445.12 102.88 C 443.40 101.88 442.04 101.12 439.25 100.00 C 436.46 98.88 431.19 96.79 428.38 96.12 C 425.56 95.46 426.75 94.90 422.38 96.00 C 418.00 97.10 407.96 100.96 402.12 102.75 C 396.29 104.54 395.06 105.04 387.38 106.75 C 379.69 108.46 362.79 110.08 356.00 113.00 C 349.21 115.92 348.38 122.25 346.62 124.25 C 344.88 126.25 345.62 124.73 345.50 125.00 C 345.38 125.27 345.50 125.58 345.88 125.88 C 346.25 126.17 345.42 126.58 347.75 126.75 C 350.08 126.92 355.88 127.04 359.88 126.88 C 363.88 126.71 369.19 126.08 371.75 125.75 C 374.31 125.42 372.92 125.23 375.25 124.88 C 377.58 124.52 381.40 124.60 385.75 123.62 C 390.10 122.65 397.56 119.94 401.38 119.00 C 405.19 118.06 407.00 118.17 408.62 118.00 C 410.25 117.83 410.50 117.92 411.12 118.00 C 411.75 118.08 411.94 118.12 412.38 118.50 C 412.81 118.88 413.52 119.69 413.75 120.25 C 413.98 120.81 413.94 120.96 413.75 121.88 C 413.56 122.79 413.29 124.04 412.62 125.75 C 411.96 127.46 412.08 127.88 409.75 132.12 C 407.42 136.38 402.00 146.04 398.62 151.25 C 395.25 156.46 392.73 159.29 389.50 163.38 C 386.27 167.46 382.83 171.60 379.25 175.75 C 375.67 179.90 372.96 183.10 368.00 188.25 C 363.04 193.40 354.33 202.06 349.50 206.62 C 344.67 211.19 342.08 213.10 339.00 215.62 C 335.92 218.15 334.83 218.98 331.00 221.75 C 327.17 224.52 318.50 228.46 316.00 232.25 C 313.50 236.04 315.88 242.44 316.00 244.50 C 316.12 246.56 314.04 245.75 316.75 244.62 C 319.46 243.50 328.35 239.56 332.25 237.75 C 336.15 235.94 336.81 235.58 340.12 233.75 C 343.44 231.92 347.23 229.96 352.12 226.75 C 357.02 223.54 363.58 219.10 369.50 214.50 C 375.42 209.90 382.62 203.65 387.62 199.12 C 392.62 194.60 394.90 192.25 399.50 187.38 C 404.10 182.50 407.90 178.77 415.25 169.88 C 422.60 160.98 436.56 142.23 443.62 134.00 C 450.69 125.77 455.10 123.00 457.62 120.50 C 460.15 118.00 458.54 119.62 458.75 119.00 C 458.96 118.38 459.23 117.85 458.88 116.75 C 458.52 115.65 458.17 114.17 456.62 112.38 Z" id="s-16-f-1"/>
<path d="M 451.25 107.25 C 449.33 105.67 447.94 104.42 445.12 102.88 C 442.31 101.33 437.17 99.12 434.38 98.00 C 431.58 96.88 430.38 96.46 428.38 96.12 C 426.38 95.79 427.21 94.75 422.38 96.00 C 417.54 97.25 405.21 101.83 399.38 103.62 C 393.54 105.42 391.65 105.73 387.38 106.75 C 383.10 107.77 378.94 108.73 373.75 109.75 C 368.56 110.77 360.17 111.12 356.25 112.88 C 352.33 114.62 352.04 118.23 350.25 120.25 C 348.46 122.27 346.12 124.04 345.50 125.00 C 344.88 125.96 345.94 125.71 346.50 126.00 C 347.06 126.29 345.81 126.67 348.88 126.75 C 351.94 126.83 358.83 127.00 364.88 126.50 C 370.92 126.00 381.02 124.38 385.12 123.75 C 389.23 123.12 387.48 123.38 389.50 122.75 C 391.52 122.12 394.06 120.79 397.25 120.00 C 400.44 119.21 406.17 118.29 408.62 118.00 C 411.08 117.71 411.15 117.88 412.00 118.25 C 412.85 118.62 413.48 119.54 413.75 120.25 C 414.02 120.96 413.81 121.58 413.62 122.50 C 413.44 123.42 413.27 124.15 412.62 125.75 C 411.98 127.35 412.12 127.83 409.75 132.12 C 407.38 136.42 401.75 146.29 398.38 151.50 C 395.00 156.71 392.71 159.31 389.50 163.38 C 386.29 167.44 383.35 171.06 379.12 175.88 C 374.90 180.69 366.69 189.15 364.12 192.25 C 361.56 195.35 363.81 190.50 363.75 194.50 C 363.69 198.50 363.69 212.31 363.75 216.25 C 363.81 220.19 363.94 217.83 364.12 218.12 C 364.31 218.42 362.04 220.19 364.88 218.00 C 367.71 215.81 375.35 210.10 381.12 205.00 C 386.90 199.90 395.00 191.85 399.50 187.38 C 404.00 182.90 404.56 182.17 408.12 178.12 C 411.69 174.08 415.73 169.58 420.88 163.12 C 426.02 156.67 435.21 144.23 439.00 139.38 C 442.79 134.52 440.52 137.15 443.62 134.00 C 446.73 130.85 455.10 123.00 457.62 120.50 C 460.15 118.00 458.60 119.85 458.75 119.00 C 458.90 118.15 458.85 116.48 458.50 115.38 C 458.15 114.27 457.83 113.73 456.62 112.38 C 455.42 111.02 453.17 108.83 451.25 107.25 Z" id="s-16-f-2"/>
<path d="M 458.88 116.75 C 458.52 115.65 457.90 113.96 456.62 112.38 C 455.35 110.79 453.17 108.83 451.25 107.25 C 449.33 105.67 448.33 104.56 445.12 102.88 C 441.92 101.19 434.96 98.27 432.00 97.12 C 429.04 95.98 428.98 96.19 427.38 96.00 C 425.77 95.81 427.04 94.73 422.38 96.00 C 417.71 97.27 405.21 101.83 399.38 103.62 C 393.54 105.42 391.65 105.73 387.38 106.75 C 383.10 107.77 378.94 108.73 373.75 109.75 C 368.56 110.77 360.96 110.29 356.25 112.88 C 351.54 115.46 347.00 123.00 345.50 125.25 C 344.00 127.50 346.33 126.10 347.25 126.38 C 348.17 126.65 348.85 126.81 351.00 126.88 C 353.15 126.94 356.92 126.94 360.12 126.75 C 363.33 126.56 365.46 126.42 370.25 125.75 C 375.04 125.08 383.75 123.88 388.88 122.75 C 394.00 121.62 397.79 119.79 401.00 119.00 C 404.21 118.21 406.27 118.12 408.12 118.00 C 409.98 117.88 411.19 117.88 412.12 118.25 C 413.06 118.62 413.50 119.54 413.75 120.25 C 414.00 120.96 413.94 121.33 413.62 122.50 C 413.31 123.67 412.19 119.31 411.88 127.25 C 411.56 135.19 411.75 162.56 411.75 170.12 C 411.75 177.69 411.77 172.15 411.88 172.62 C 411.98 173.10 410.04 175.62 412.38 173.00 C 414.71 170.38 421.23 162.73 425.88 156.88 C 430.52 151.02 437.12 141.88 440.25 137.88 C 443.38 133.88 441.69 135.81 444.62 132.88 C 447.56 129.94 455.52 122.56 457.88 120.25 C 460.23 117.94 458.58 119.58 458.75 119.00 C 458.92 118.42 459.23 117.85 458.88 116.75 Z" id="s-16-f-3"/>
<path d="M 458.88 116.75 C 458.75 116.12 458.35 114.98 457.75 114.00 C 457.15 113.02 456.33 112.00 455.25 110.88 C 454.17 109.75 452.94 108.58 451.25 107.25 C 449.56 105.92 448.33 104.56 445.12 102.88 C 441.92 101.19 434.96 98.27 432.00 97.12 C 429.04 95.98 428.98 96.19 427.38 96.00 C 425.77 95.81 427.04 94.73 422.38 96.00 C 417.71 97.27 405.21 101.83 399.38 103.62 C 393.54 105.42 391.65 105.73 387.38 106.75 C 383.10 107.77 378.94 108.73 373.75 109.75 C 368.56 110.77 360.96 110.29 356.25 112.88 C 351.54 115.46 346.75 122.94 345.50 125.25 C 344.25 127.56 346.31 126.50 348.75 126.75 C 351.19 127.00 354.17 127.27 360.12 126.75 C 366.08 126.23 379.71 124.29 384.50 123.62 C 389.29 122.96 386.12 123.52 388.88 122.75 C 391.62 121.98 398.04 119.77 401.00 119.00 C 403.96 118.23 397.04 118.33 406.62 118.12 C 416.21 117.92 449.79 117.98 458.50 117.75 C 467.21 117.52 459.00 117.38 458.88 116.75 Z" id="s-16-f-4"/>
<path d="M 441.88 101.75 C 441.73 99.10 442.77 101.65 441.12 100.88 C 439.48 100.10 434.29 97.94 432.00 97.12 C 429.71 96.31 428.98 96.19 427.38 96.00 C 425.77 95.81 427.04 94.73 422.38 96.00 C 417.71 97.27 405.21 101.83 399.38 103.62 C 393.54 105.42 391.65 105.73 387.38 106.75 C 383.10 107.77 378.94 108.73 373.75 109.75 C 368.56 110.77 360.96 110.29 356.25 112.88 C 351.54 115.46 346.73 122.94 345.50 125.25 C 344.27 127.56 346.42 126.50 348.88 126.75 C 351.33 127.00 354.31 127.27 360.25 126.75 C 366.19 126.23 379.73 124.29 384.50 123.62 C 389.27 122.96 386.12 123.52 388.88 122.75 C 391.62 121.98 398.04 119.77 401.00 119.00 C 403.96 118.23 399.85 118.31 406.62 118.12 C 413.40 117.94 435.73 118.10 441.62 117.88 C 447.52 117.65 441.96 119.44 442.00 116.75 C 442.04 114.06 442.02 104.40 441.88 101.75 Z" id="s-16-f-5"/>
<path d="M 393.88 105.38 C 393.71 103.08 394.08 104.77 393.00 105.00 C 391.92 105.23 390.58 105.96 387.38 106.75 C 384.17 107.54 378.94 108.73 373.75 109.75 C 368.56 110.77 360.96 110.29 356.25 112.88 C 351.54 115.46 347.00 123.00 345.50 125.25 C 344.00 127.50 346.69 126.12 347.25 126.38 C 347.81 126.62 346.42 126.71 348.88 126.75 C 351.33 126.79 356.06 127.15 362.00 126.62 C 367.94 126.10 379.35 124.50 384.50 123.62 C 389.65 122.75 391.35 121.83 392.88 121.38 C 394.40 120.92 393.44 121.31 393.62 120.88 C 393.81 120.44 393.96 121.33 394.00 118.75 C 394.04 116.17 394.04 107.67 393.88 105.38 Z" id="s-16-f-6"/>
</g>
<g id="s-17" clip-path="url(#c-s-17)">
<use href="#s-17-f-0"/>
</g>
<g id="s-18" clip-path="url(#c-s-18)">
<use href="#s-18-f-0"/>
</g>
<g id="s-19" clip-path="url(#c-s-19)">
<use href="#s-19-f-0"/>
<path d="M 478.75 264.88 C 478.21 263.62 477.19 263.02 475.75 261.88 C 474.31 260.73 471.98 259.12 470.12 258.00 C 468.27 256.88 467.90 256.46 464.62 255.12 C 461.35 253.79 453.40 250.88 450.50 250.00 C 447.60 249.12 451.58 249.19 447.25 249.88 C 442.92 250.56 430.00 252.98 424.50 254.12 C 419.00 255.27 419.40 255.94 414.25 256.75 C 409.10 257.56 404.81 257.33 393.62 259.00 C 382.44 260.67 363.77 264.25 347.12 266.75 C 330.48 269.25 303.52 272.48 293.75 274.00 C 283.98 275.52 289.60 275.35 288.50 275.88 C 287.40 276.40 287.40 276.69 287.12 277.12 C 286.85 277.56 286.77 277.98 286.88 278.50 C 286.98 279.02 287.21 279.60 287.75 280.25 C 288.29 280.90 289.35 281.79 290.12 282.38 C 290.90 282.96 290.46 282.88 292.38 283.75 C 294.29 284.62 299.02 286.62 301.62 287.62 C 304.23 288.62 306.04 289.23 308.00 289.75 C 309.96 290.27 311.60 290.56 313.38 290.75 C 315.15 290.94 315.40 291.33 318.62 290.88 C 321.85 290.42 325.48 289.31 332.75 288.00 C 340.02 286.69 352.75 284.50 362.25 283.00 C 371.75 281.50 382.25 279.85 389.75 279.00 C 397.25 278.15 399.58 278.54 407.25 277.88 C 414.92 277.21 425.35 275.69 435.75 275.00 C 446.15 274.31 463.04 274.15 469.62 273.75 C 476.21 273.35 473.79 273.10 475.25 272.62 C 476.71 272.15 477.75 271.42 478.38 270.88 C 479.00 270.33 478.94 270.38 479.00 269.38 C 479.06 268.38 479.29 266.12 478.75 264.88 Z" id="s-19-f-1"/>
<path d="M 431.00 254.62 C 430.96 251.29 431.02 253.62 430.75 253.38 C 430.48 253.12 432.12 252.56 429.38 253.12 C 426.62 253.69 420.21 255.77 414.25 256.75 C 408.29 257.73 404.81 257.33 393.62 259.00 C 382.44 260.67 362.83 264.42 347.12 266.75 C 331.42 269.08 308.92 271.58 299.38 273.00 C 289.83 274.42 291.92 274.54 289.88 275.25 C 287.83 275.96 287.62 276.71 287.12 277.25 C 286.62 277.79 286.77 278.00 286.88 278.50 C 286.98 279.00 287.12 279.54 287.75 280.25 C 288.38 280.96 288.31 281.52 290.62 282.75 C 292.94 283.98 298.73 286.46 301.62 287.62 C 304.52 288.79 306.17 289.25 308.00 289.75 C 309.83 290.25 310.81 290.44 312.62 290.62 C 314.44 290.81 315.52 291.31 318.88 290.88 C 322.23 290.44 320.94 289.98 332.75 288.00 C 344.56 286.02 377.33 280.69 389.75 279.00 C 402.17 277.31 400.52 278.44 407.25 277.88 C 413.98 277.31 426.21 276.08 430.12 275.62 C 434.04 275.17 430.60 275.50 430.75 275.12 C 430.90 274.75 430.96 276.79 431.00 273.38 C 431.04 269.96 431.04 257.96 431.00 254.62 Z" id="s-19-f-2"/>
<path d="M 382.88 261.38 C 382.67 258.42 387.46 260.10 381.50 261.00 C 375.54 261.90 361.65 264.60 347.12 266.75 C 332.60 268.90 304.19 272.31 294.38 273.88 C 284.56 275.44 289.46 275.56 288.25 276.12 C 287.04 276.69 287.35 276.85 287.12 277.25 C 286.90 277.65 286.56 277.79 286.88 278.50 C 287.19 279.21 287.71 280.46 289.00 281.50 C 290.29 282.54 291.46 283.38 294.62 284.75 C 297.79 286.12 304.50 288.73 308.00 289.75 C 311.50 290.77 313.33 290.75 315.62 290.88 C 317.92 291.00 318.90 290.98 321.75 290.50 C 324.60 290.02 322.62 289.75 332.75 288.00 C 342.88 286.25 374.17 281.54 382.50 280.00 C 390.83 278.46 382.69 281.85 382.75 278.75 C 382.81 275.65 383.08 264.33 382.88 261.38 Z" id="s-19-f-3"/>
<path d="M 335.00 270.12 C 334.98 267.04 334.98 269.27 334.75 269.00 C 334.52 268.73 340.35 267.69 333.62 268.50 C 326.90 269.31 301.90 272.65 294.38 273.88 C 286.85 275.10 289.71 275.31 288.50 275.88 C 287.29 276.44 287.40 276.81 287.12 277.25 C 286.85 277.69 286.56 277.79 286.88 278.50 C 287.19 279.21 288.08 280.62 289.00 281.50 C 289.92 282.38 289.90 282.58 292.38 283.75 C 294.85 284.92 300.38 287.33 303.88 288.50 C 307.38 289.67 310.40 290.42 313.38 290.75 C 316.35 291.08 318.17 291.04 321.75 290.50 C 325.33 289.96 332.67 290.90 334.88 287.50 C 337.08 284.10 335.02 273.21 335.00 270.12 Z" id="s-19-f-4"/>
</g>
<g id="s-20" clip-path="url(#c-s-20)">
<use href="#s-20-f-0"/>
<path d="M 387.25 208.88 C 385.88 208.88 386.29 208.83 385.62 209.12 C 384.96 209.42 383.85 210.06 383.25 210.62 C 382.65 211.19 382.23 211.65 382.00 212.50 C 381.77 213.35 381.71 214.27 381.88 215.75 C 382.04 217.23 382.35 219.23 383.00 221.38 C 383.65 223.52 384.79 224.46 385.75 228.62 C 386.71 232.79 388.08 241.48 388.75 246.38 C 389.42 251.27 389.58 253.52 389.75 258.00 C 389.92 262.48 389.56 269.65 389.75 273.25 C 389.94 276.85 390.56 277.15 390.88 279.62 C 391.19 282.10 391.48 279.21 391.62 288.12 C 391.77 297.04 391.88 318.48 391.75 333.12 C 391.62 347.77 391.19 366.12 390.88 376.00 C 390.56 385.88 390.23 388.77 389.88 392.38 C 389.52 395.98 389.31 395.96 388.75 397.62 C 388.19 399.29 387.48 401.19 386.50 402.38 C 385.52 403.56 385.44 404.54 382.88 404.75 C 380.31 404.96 377.04 404.58 371.12 403.62 C 365.21 402.67 352.04 399.77 347.38 399.00 C 342.71 398.23 343.90 398.92 343.12 399.00 C 342.35 399.08 342.77 398.67 342.75 399.50 C 342.73 400.33 342.71 402.94 343.00 404.00 C 343.29 405.06 341.56 403.21 344.50 405.88 C 347.44 408.54 355.58 415.25 360.62 420.00 C 365.67 424.75 371.04 430.29 374.75 434.38 C 378.46 438.46 381.10 442.44 382.88 444.50 C 384.65 446.56 384.62 446.23 385.38 446.75 C 386.12 447.27 386.44 447.44 387.38 447.62 C 388.31 447.81 389.75 448.04 391.00 447.88 C 392.25 447.71 393.50 447.35 394.88 446.62 C 396.25 445.90 397.96 444.60 399.25 443.50 C 400.54 442.40 401.21 441.69 402.62 440.00 C 404.04 438.31 406.23 435.85 407.75 433.38 C 409.27 430.90 410.77 427.67 411.75 425.12 C 412.73 422.58 413.12 420.40 413.62 418.12 C 414.12 415.85 414.38 414.92 414.75 411.50 C 415.12 408.08 415.69 404.19 415.88 397.62 C 416.06 391.06 416.17 387.48 415.88 372.12 C 415.58 356.77 414.46 321.29 414.12 305.50 C 413.79 289.71 413.85 282.35 413.88 277.38 C 413.90 272.40 414.19 278.98 414.25 275.62 C 414.31 272.27 414.31 261.10 414.25 257.25 C 414.19 253.40 413.77 255.54 413.88 252.50 C 413.98 249.46 414.42 242.77 414.88 239.00 C 415.33 235.23 416.29 232.52 416.62 229.88 C 416.96 227.23 417.02 224.98 416.88 223.12 C 416.73 221.27 416.23 219.83 415.75 218.75 C 415.27 217.67 414.69 217.25 414.00 216.62 C 413.31 216.00 414.25 216.08 411.62 215.00 C 409.00 213.92 401.21 211.10 398.25 210.12 C 395.29 209.15 395.71 209.33 393.88 209.12 C 392.04 208.92 388.62 208.88 387.25 208.88 Z" id="s-20-f-1"/>
<path d="M 387.25 208.88 C 385.90 208.88 386.42 208.83 385.75 209.12 C 385.08 209.42 383.88 210.06 383.25 210.62 C 382.62 211.19 382.23 211.65 382.00 212.50 C 381.77 213.35 381.71 214.27 381.88 215.75 C 382.04 217.23 382.35 219.25 383.00 221.38 C 383.65 223.50 384.79 224.33 385.75 228.50 C 386.71 232.67 388.08 241.46 388.75 246.38 C 389.42 251.29 389.58 253.52 389.75 258.00 C 389.92 262.48 389.56 269.65 389.75 273.25 C 389.94 276.85 390.56 277.15 390.88 279.62 C 391.19 282.10 391.48 279.21 391.62 288.12 C 391.77 297.04 391.88 318.50 391.75 333.12 C 391.62 347.75 391.21 365.81 390.88 375.88 C 390.54 385.94 390.25 389.23 389.75 393.50 C 389.25 397.77 389.25 394.10 387.88 401.50 C 386.50 408.90 382.67 431.56 381.50 437.88 C 380.33 444.19 380.98 438.69 380.88 439.38 C 380.77 440.06 380.12 440.77 380.88 442.00 C 381.62 443.23 384.21 445.79 385.38 446.75 C 386.54 447.71 386.94 447.56 387.88 447.75 C 388.81 447.94 389.92 448.02 391.00 447.88 C 392.08 447.73 393.27 447.38 394.38 446.88 C 395.48 446.38 396.25 446.02 397.62 444.88 C 399.00 443.73 400.94 441.92 402.62 440.00 C 404.31 438.08 406.23 435.88 407.75 433.38 C 409.27 430.88 410.75 427.65 411.75 425.00 C 412.75 422.35 413.25 419.75 413.75 417.50 C 414.25 415.25 414.40 414.88 414.75 411.50 C 415.10 408.12 415.69 403.83 415.88 397.25 C 416.06 390.67 416.17 387.29 415.88 372.00 C 415.58 356.71 414.46 321.27 414.12 305.50 C 413.79 289.73 413.85 282.35 413.88 277.38 C 413.90 272.40 414.19 278.98 414.25 275.62 C 414.31 272.27 414.31 261.10 414.25 257.25 C 414.19 253.40 413.77 255.54 413.88 252.50 C 413.98 249.46 414.40 242.98 414.88 239.00 C 415.35 235.02 416.42 231.29 416.75 228.62 C 417.08 225.96 417.04 224.65 416.88 223.00 C 416.71 221.35 416.23 219.81 415.75 218.75 C 415.27 217.69 414.69 217.25 414.00 216.62 C 413.31 216.00 414.25 216.08 411.62 215.00 C 409.00 213.92 401.21 211.10 398.25 210.12 C 395.29 209.15 395.71 209.33 393.88 209.12 C 392.04 208.92 388.60 208.88 387.25 208.88 Z" id="s-20-f-2"/>
<path d="M 386.12 209.00 C 384.60 209.23 384.17 209.83 383.50 210.38 C 382.83 210.92 382.40 211.35 382.12 212.25 C 381.85 213.15 381.73 214.23 381.88 215.75 C 382.02 217.27 382.35 219.25 383.00 221.38 C 383.65 223.50 384.79 224.33 385.75 228.50 C 386.71 232.67 388.08 241.46 388.75 246.38 C 389.42 251.29 389.58 253.52 389.75 258.00 C 389.92 262.48 389.56 269.65 389.75 273.25 C 389.94 276.85 390.54 276.56 390.88 279.62 C 391.21 282.69 391.60 282.71 391.75 291.62 C 391.90 300.54 391.92 318.35 391.75 333.12 C 391.58 347.90 391.08 370.19 390.75 380.25 C 390.42 390.31 390.15 390.15 389.75 393.50 C 389.35 396.85 388.29 399.12 388.38 400.38 C 388.46 401.62 385.77 400.92 390.25 401.00 C 394.73 401.08 411.00 400.98 415.25 400.88 C 419.50 400.77 415.65 400.94 415.75 400.38 C 415.85 399.81 415.88 404.23 415.88 397.50 C 415.88 390.77 416.04 375.33 415.75 360.00 C 415.46 344.67 414.44 319.27 414.12 305.50 C 413.81 291.73 413.85 282.35 413.88 277.38 C 413.90 272.40 414.19 278.98 414.25 275.62 C 414.31 272.27 414.31 261.12 414.25 257.25 C 414.19 253.38 413.77 255.42 413.88 252.38 C 413.98 249.33 414.40 242.96 414.88 239.00 C 415.35 235.04 416.44 231.52 416.75 228.62 C 417.06 225.73 416.92 223.27 416.75 221.62 C 416.58 219.98 416.35 219.71 415.75 218.75 C 415.15 217.79 414.10 216.62 413.12 215.88 C 412.15 215.12 412.35 215.21 409.88 214.25 C 407.40 213.29 401.12 211.00 398.25 210.12 C 395.38 209.25 394.65 209.19 392.62 209.00 C 390.60 208.81 387.65 208.77 386.12 209.00 Z" id="s-20-f-3"/>
<path d="M 386.12 209.00 C 384.60 209.23 384.17 209.83 383.50 210.38 C 382.83 210.92 382.40 211.35 382.12 212.25 C 381.85 213.15 381.73 214.23 381.88 215.75 C 382.02 217.27 382.35 219.25 383.00 221.38 C 383.65 223.50 384.79 224.33 385.75 228.50 C 386.71 232.67 388.08 241.46 388.75 246.38 C 389.42 251.29 389.60 253.85 389.75 258.00 C 389.90 262.15 389.44 267.67 389.62 271.25 C 389.81 274.83 390.52 276.10 390.88 279.50 C 391.23 282.90 391.65 279.46 391.75 291.62 C 391.85 303.79 391.21 342.27 391.50 352.50 C 391.79 362.73 389.56 352.94 393.50 353.00 C 397.44 353.06 411.44 352.98 415.12 352.88 C 418.81 352.77 415.79 360.27 415.62 352.38 C 415.46 344.48 414.42 318.00 414.12 305.50 C 413.83 293.00 413.85 282.35 413.88 277.38 C 413.90 272.40 414.19 278.98 414.25 275.62 C 414.31 272.27 414.31 261.12 414.25 257.25 C 414.19 253.38 413.77 255.42 413.88 252.38 C 413.98 249.33 414.40 242.96 414.88 239.00 C 415.35 235.04 416.44 231.52 416.75 228.62 C 417.06 225.73 416.92 223.27 416.75 221.62 C 416.58 219.98 416.35 219.71 415.75 218.75 C 415.15 217.79 414.10 216.62 413.12 215.88 C 412.15 215.12 412.35 215.21 409.88 214.25 C 407.40 213.29 401.12 211.00 398.25 210.12 C 395.38 209.25 394.65 209.19 392.62 209.00 C 390.60 208.81 387.65 208.77 386.12 209.00 Z" id="s-20-f-4"/>
<path d="M 386.12 209.00 C 384.44 209.21 384.17 209.83 383.50 210.38 C 382.83 210.92 382.40 211.35 382.12 212.25 C 381.85 213.15 381.73 214.23 381.88 215.75 C 382.02 217.27 382.35 219.25 383.00 221.38 C 383.65 223.50 384.79 224.33 385.75 228.50 C 386.71 232.67 388.08 241.46 388.75 246.38 C 389.42 251.29 389.60 253.85 389.75 258.00 C 389.90 262.15 389.31 266.23 389.62 271.25 C 389.94 276.27 391.23 282.67 391.62 288.12 C 392.02 293.58 391.73 301.23 392.00 304.00 C 392.27 306.77 389.65 304.60 393.25 304.75 C 396.85 304.90 410.15 304.96 413.62 304.88 C 417.10 304.79 414.08 308.83 414.12 304.25 C 414.17 299.67 413.85 282.15 413.88 277.38 C 413.90 272.60 414.19 278.98 414.25 275.62 C 414.31 272.27 414.31 261.12 414.25 257.25 C 414.19 253.38 413.77 255.44 413.88 252.38 C 413.98 249.31 414.40 242.83 414.88 238.88 C 415.35 234.92 416.48 231.69 416.75 228.62 C 417.02 225.56 416.71 222.21 416.50 220.50 C 416.29 218.79 416.06 219.15 415.50 218.38 C 414.94 217.60 415.02 216.94 413.12 215.88 C 411.23 214.81 407.38 213.12 404.12 212.00 C 400.88 210.88 396.62 209.62 393.62 209.12 C 390.62 208.62 387.81 208.79 386.12 209.00 Z" id="s-20-f-5"/>
<path d="M 384.12 209.88 C 383.44 210.46 382.35 211.23 382.00 212.50 C 381.65 213.77 381.38 214.83 382.00 217.50 C 382.62 220.17 384.62 223.69 385.75 228.50 C 386.88 233.31 388.08 241.69 388.75 246.38 C 389.42 251.06 388.85 254.85 389.75 256.62 C 390.65 258.40 390.27 256.96 394.12 257.00 C 397.98 257.04 409.62 257.02 412.88 256.88 C 416.12 256.73 413.29 259.12 413.62 256.12 C 413.96 253.12 414.35 243.46 414.88 238.88 C 415.40 234.29 416.44 231.50 416.75 228.62 C 417.06 225.75 416.92 223.27 416.75 221.62 C 416.58 219.98 416.21 219.58 415.75 218.75 C 415.29 217.92 414.69 217.25 414.00 216.62 C 413.31 216.00 414.25 216.08 411.62 215.00 C 409.00 213.92 401.79 211.15 398.25 210.12 C 394.71 209.10 392.40 209.06 390.38 208.88 C 388.35 208.69 387.17 208.83 386.12 209.00 C 385.08 209.17 384.81 209.29 384.12 209.88 Z" id="s-20-f-6"/>
</g>
<g id="s-21" clip-path="url(#c-s-21)">
<use href="#s-21-f-0"/>
<path d="M 312.38 314.00 C 312.10 314.50 311.44 315.06 312.00 316.12 C 312.56 317.19 313.77 317.33 315.75 320.38 C 317.73 323.42 321.21 330.08 323.88 334.38 C 326.54 338.67 329.12 342.54 331.75 346.12 C 334.38 349.71 337.48 353.40 339.62 355.88 C 341.77 358.35 343.12 359.71 344.62 361.00 C 346.12 362.29 347.08 363.17 348.62 363.62 C 350.17 364.08 352.25 364.08 353.88 363.75 C 355.50 363.42 357.40 362.25 358.38 361.62 C 359.35 361.00 359.48 360.46 359.75 360.00 C 360.02 359.54 359.98 363.19 360.00 358.88 C 360.02 354.56 360.42 339.00 359.88 334.12 C 359.33 329.25 358.40 331.29 356.75 329.62 C 355.10 327.96 352.94 325.90 350.00 324.12 C 347.06 322.35 344.04 320.83 339.12 319.00 C 334.21 317.17 324.50 314.15 320.50 313.12 C 316.50 312.10 316.27 312.88 315.12 312.88 C 313.98 312.88 314.08 312.94 313.62 313.12 C 313.17 313.31 312.65 313.50 312.38 314.00 Z" id="s-21-f-1"/>
</g>
</svg>