<?xml version="1.0" encoding="UTF-8"?>
<svg xmlns="http://www.w3.org/2000/svg" viewBox="0 0 500 500">
<defs>
<path d="M 158.12 42.88 C 156.17 41.67 155.71 41.65 153.88 41.00 C 152.04 40.35 149.08 39.33 147.12 39.00 C 145.17 38.67 143.29 38.75 142.12 39.00 C 140.96 39.25 140.65 39.83 140.12 40.50 C 139.60 41.17 139.38 40.06 139.00 43.00 C 138.62 45.94 138.44 53.92 137.88 58.12 C 137.31 62.33 137.19 63.27 135.62 68.25 C 134.06 73.23 131.31 80.85 128.50 88.00 C 125.69 95.15 121.71 104.58 118.75 111.12 C 115.79 117.67 113.92 121.40 110.75 127.25 C 107.58 133.10 103.56 140.08 99.75 146.25 C 95.94 152.42 91.08 159.56 87.88 164.25 C 84.67 168.94 83.02 171.12 80.50 174.38 C 77.98 177.62 74.50 181.52 72.75 183.75 C 71.00 185.98 70.42 186.92 70.00 187.75 C 69.58 188.58 69.65 188.58 70.25 188.75 C 70.85 188.92 72.67 188.92 73.62 188.75 C 74.58 188.58 73.69 189.08 76.00 187.75 C 78.31 186.42 83.54 183.52 87.50 180.75 C 91.46 177.98 95.98 174.38 99.75 171.12 C 103.52 167.88 107.17 164.23 110.12 161.25 C 113.08 158.27 114.90 156.29 117.50 153.25 C 120.10 150.21 123.06 146.56 125.75 143.00 C 128.44 139.44 130.10 137.12 133.62 131.88 C 137.15 126.62 142.02 119.42 146.88 111.50 C 151.73 103.58 159.40 90.40 162.75 84.38 C 166.10 78.35 165.38 78.08 167.00 75.38 C 168.62 72.67 171.21 70.04 172.50 68.12 C 173.79 66.21 174.38 65.27 174.75 63.88 C 175.12 62.48 174.92 60.88 174.75 59.75 C 174.58 58.62 174.25 58.04 173.75 57.12 C 173.25 56.21 173.10 55.73 171.75 54.25 C 170.40 52.77 167.90 50.15 165.62 48.25 C 163.35 46.35 160.08 44.08 158.12 42.88 Z" id="s-0-f-0"/>
<clipPath id="c-s-0"><use href="#s-0-f-0"/></clipPath>
<path d="M 243.88 94.00 C 243.81 93.38 244.00 93.58 243.38 92.88 C 242.75 92.17 241.81 90.92 240.12 89.75 C 238.44 88.58 236.08 86.98 233.25 85.88 C 230.42 84.77 225.44 83.60 223.12 83.12 C 220.81 82.65 222.02 82.52 219.38 83.00 C 216.73 83.48 212.77 84.40 207.25 86.00 C 201.73 87.60 195.31 90.17 186.25 92.62 C 177.19 95.08 158.65 99.23 152.88 100.75 C 147.10 102.27 153.17 99.31 151.62 101.75 C 150.08 104.19 144.17 112.88 143.62 115.38 C 143.08 117.88 145.00 116.56 148.38 116.75 C 151.75 116.94 150.54 118.33 163.88 116.50 C 177.21 114.67 216.12 108.06 228.38 105.75 C 240.62 103.44 235.40 103.44 237.38 102.62 C 239.35 101.81 239.31 101.62 240.25 100.88 C 241.19 100.12 242.42 98.83 243.00 98.12 C 243.58 97.42 243.60 97.31 243.75 96.62 C 243.90 95.94 243.94 94.62 243.88 94.00 Z" id="s-1-f-0"/>
<clipPath id="c-s-1"><use href="#s-1-f-0"/></clipPath>
<path d="M 149.50 130.75 C 149.08 131.23 148.23 132.21 148.00 132.88 C 147.77 133.54 147.50 133.69 148.12 134.75 C 148.75 135.81 150.44 137.29 151.75 139.25 C 153.06 141.21 153.98 143.33 156.00 146.50 C 158.02 149.67 161.56 155.02 163.88 158.25 C 166.19 161.48 167.88 163.60 169.88 165.88 C 171.88 168.15 174.06 170.42 175.88 171.88 C 177.69 173.33 179.15 174.12 180.75 174.62 C 182.35 175.12 183.96 175.00 185.50 174.88 C 187.04 174.75 188.73 174.40 190.00 173.88 C 191.27 173.35 192.21 172.67 193.12 171.75 C 194.04 170.83 194.92 169.54 195.50 168.38 C 196.08 167.21 196.44 167.06 196.62 164.75 C 196.81 162.44 196.94 157.15 196.62 154.50 C 196.31 151.85 195.38 150.31 194.75 148.88 C 194.12 147.44 193.67 146.88 192.88 145.88 C 192.08 144.88 191.21 143.85 190.00 142.88 C 188.79 141.90 187.42 140.98 185.62 140.00 C 183.83 139.02 181.77 137.98 179.25 137.00 C 176.73 136.02 173.08 134.88 170.50 134.12 C 167.92 133.38 165.38 133.00 163.75 132.50 C 162.12 132.00 162.44 131.56 160.75 131.12 C 159.06 130.69 155.33 130.06 153.62 129.88 C 151.92 129.69 151.19 129.85 150.50 130.00 C 149.81 130.15 149.92 130.27 149.50 130.75 Z" id="s-2-f-0"/>
<clipPath id="c-s-2"><use href="#s-2-f-0"/></clipPath>
<path d="M 304.38 33.00 C 301.58 31.31 299.58 30.69 297.62 30.00 C 295.67 29.31 294.08 29.04 292.62 28.88 C 291.17 28.71 289.77 28.83 288.88 29.00 C 287.98 29.17 287.75 29.48 287.25 29.88 C 286.75 30.27 286.25 30.75 285.88 31.38 C 285.50 32.00 285.35 30.69 285.00 33.62 C 284.65 36.56 284.33 44.75 283.75 49.00 C 283.17 53.25 283.85 51.94 281.50 59.12 C 279.15 66.31 273.08 83.29 269.62 92.12 C 266.17 100.96 263.06 107.21 260.75 112.12 C 258.44 117.04 258.40 116.94 255.75 121.62 C 253.10 126.31 248.50 134.40 244.88 140.25 C 241.25 146.10 235.79 153.83 234.00 156.75 C 232.21 159.67 233.38 157.65 234.12 157.75 C 234.88 157.85 236.44 158.25 238.50 157.38 C 240.56 156.50 242.73 155.31 246.50 152.50 C 250.27 149.69 257.75 143.40 261.12 140.50 C 264.50 137.60 264.48 137.48 266.75 135.12 C 269.02 132.77 271.38 130.35 274.75 126.38 C 278.12 122.40 283.65 115.67 287.00 111.25 C 290.35 106.83 292.25 103.85 294.88 99.88 C 297.50 95.90 299.88 92.60 302.75 87.38 C 305.62 82.15 309.75 72.96 312.12 68.50 C 314.50 64.04 315.58 62.71 317.00 60.62 C 318.42 58.54 319.83 57.15 320.62 56.00 C 321.42 54.85 321.56 54.83 321.75 53.75 C 321.94 52.67 322.17 50.94 321.75 49.50 C 321.33 48.06 320.48 46.69 319.25 45.12 C 318.02 43.56 316.85 42.15 314.38 40.12 C 311.90 38.10 307.17 34.69 304.38 33.00 Z" id="s-3-f-0"/>
<clipPath id="c-s-3"><use href="#s-3-f-0"/></clipPath>
<path d="M 409.88 80.25 C 409.75 79.58 409.60 79.12 409.00 78.38 C 408.40 77.62 407.96 76.96 406.25 75.75 C 404.54 74.54 401.92 72.40 398.75 71.12 C 395.58 69.85 390.00 68.62 387.25 68.12 C 384.50 67.62 396.31 65.02 382.25 68.12 C 368.19 71.23 316.31 83.48 302.88 86.75 C 289.44 90.02 303.17 85.46 301.62 87.75 C 300.08 90.04 294.60 98.19 293.62 100.50 C 292.65 102.81 294.27 101.25 295.75 101.62 C 297.23 102.00 298.33 102.58 302.50 102.75 C 306.67 102.92 315.06 102.96 320.75 102.62 C 326.44 102.29 329.79 101.81 336.62 100.75 C 343.46 99.69 352.60 97.75 361.75 96.25 C 370.90 94.75 385.27 92.83 391.50 91.75 C 397.73 90.67 396.75 90.58 399.12 89.75 C 401.50 88.92 404.10 87.75 405.75 86.75 C 407.40 85.75 408.33 84.48 409.00 83.75 C 409.67 83.02 409.60 82.96 409.75 82.38 C 409.90 81.79 410.00 80.92 409.88 80.25 Z" id="s-4-f-0"/>
<clipPath id="c-s-4"><use href="#s-4-f-0"/></clipPath>
<path d="M 300.25 122.75 C 299.88 123.44 299.42 123.96 300.12 125.12 C 300.83 126.29 301.35 125.60 304.50 129.75 C 307.65 133.90 315.17 144.96 319.00 150.00 C 322.83 155.04 324.88 157.21 327.50 160.00 C 330.12 162.79 332.77 165.15 334.75 166.75 C 336.73 168.35 338.10 168.98 339.38 169.62 C 340.65 170.27 341.02 170.42 342.38 170.62 C 343.73 170.83 345.90 171.02 347.50 170.88 C 349.10 170.73 350.60 170.48 352.00 169.75 C 353.40 169.02 354.94 167.58 355.88 166.50 C 356.81 165.42 357.15 164.58 357.62 163.25 C 358.10 161.92 358.58 160.92 358.75 158.50 C 358.92 156.08 358.81 151.10 358.62 148.75 C 358.44 146.40 358.10 145.79 357.62 144.38 C 357.15 142.96 356.40 141.42 355.75 140.25 C 355.10 139.08 354.65 138.40 353.75 137.38 C 352.85 136.35 351.81 135.17 350.38 134.12 C 348.94 133.08 347.12 132.10 345.12 131.12 C 343.12 130.15 342.35 129.60 338.38 128.25 C 334.40 126.90 326.40 124.23 321.25 123.00 C 316.10 121.77 310.65 121.21 307.50 120.88 C 304.35 120.54 303.58 120.69 302.38 121.00 C 301.17 121.31 300.62 122.06 300.25 122.75 Z" id="s-5-f-0"/>
<clipPath id="c-s-5"><use href="#s-5-f-0"/></clipPath>
<path d="M 190.25 192.00 C 187.58 190.23 184.69 189.15 181.88 188.00 C 179.06 186.85 175.92 185.56 173.38 185.12 C 170.83 184.69 168.12 185.00 166.62 185.38 C 165.12 185.75 165.38 183.04 164.38 187.38 C 163.38 191.71 161.58 206.00 160.62 211.38 C 159.67 216.75 159.79 215.98 158.62 219.62 C 157.46 223.27 156.46 227.31 153.62 233.25 C 150.79 239.19 145.44 248.73 141.62 255.25 C 137.81 261.77 135.21 265.62 130.75 272.38 C 126.29 279.12 117.48 291.71 114.88 295.75 C 112.27 299.79 114.90 296.31 115.12 296.62 C 115.35 296.94 115.17 297.46 116.25 297.62 C 117.33 297.79 120.08 297.94 121.62 297.62 C 123.17 297.31 122.75 297.46 125.50 295.75 C 128.25 294.04 134.25 290.31 138.12 287.38 C 142.00 284.44 145.92 280.88 148.75 278.12 C 151.58 275.38 152.38 274.25 155.12 270.88 C 157.88 267.50 162.29 261.88 165.25 257.88 C 168.21 253.88 170.52 250.65 172.88 246.88 C 175.23 243.10 175.04 241.38 179.38 235.25 C 183.71 229.12 195.31 214.94 198.88 210.12 C 202.44 205.31 200.48 207.65 200.75 206.38 C 201.02 205.10 200.98 203.79 200.50 202.50 C 200.02 201.21 199.58 200.38 197.88 198.62 C 196.17 196.88 192.92 193.77 190.25 192.00 Z" id="s-6-f-0"/>
<clipPath id="c-s-6"><use href="#s-6-f-0"/></clipPath>
<path d="M 349.88 228.62 C 349.62 227.77 348.92 226.54 348.12 225.62 C 347.33 224.71 347.08 224.21 345.12 223.12 C 343.17 222.04 339.48 220.29 336.38 219.12 C 333.27 217.96 329.35 216.65 326.50 216.12 C 323.65 215.60 323.52 215.23 319.25 216.00 C 314.98 216.77 308.69 219.15 300.88 220.75 C 293.06 222.35 279.19 224.60 272.38 225.62 C 265.56 226.65 267.35 225.88 260.00 226.88 C 252.65 227.88 236.38 230.50 228.25 231.62 C 220.12 232.75 219.44 232.94 211.25 233.62 C 203.06 234.31 184.71 235.25 179.12 235.75 C 173.54 236.25 179.00 234.69 177.75 236.62 C 176.50 238.56 172.40 245.38 171.62 247.38 C 170.85 249.38 172.27 248.25 173.12 248.62 C 173.98 249.00 174.69 249.27 176.75 249.62 C 178.81 249.98 182.52 250.54 185.50 250.75 C 188.48 250.96 191.17 250.88 194.62 250.88 C 198.08 250.88 199.35 251.06 206.25 250.75 C 213.15 250.44 227.33 249.67 236.00 249.00 C 244.67 248.33 247.23 247.98 258.25 246.75 C 269.27 245.52 290.44 243.17 302.12 241.62 C 313.81 240.08 322.40 238.60 328.38 237.50 C 334.35 236.40 335.88 235.48 338.00 235.00 C 340.12 234.52 339.58 235.00 341.12 234.62 C 342.67 234.25 345.83 233.40 347.25 232.75 C 348.67 232.10 349.19 231.44 349.62 230.75 C 350.06 230.06 350.12 229.48 349.88 228.62 Z" id="s-7-f-0"/>
<clipPath id="c-s-7"><use href="#s-7-f-0"/></clipPath>
<path d="M 434.88 302.12 C 434.56 300.81 433.94 299.71 432.88 298.38 C 431.81 297.04 430.56 295.69 428.50 294.12 C 426.44 292.56 423.38 290.52 420.50 289.00 C 417.62 287.48 414.15 286.15 411.25 285.00 C 408.35 283.85 405.27 282.79 403.12 282.12 C 400.98 281.46 400.10 281.19 398.38 281.00 C 396.65 280.81 400.62 280.21 392.75 281.00 C 384.88 281.79 370.19 283.96 351.12 285.75 C 332.06 287.54 292.17 290.71 278.38 291.75 C 264.58 292.79 271.02 291.83 268.38 292.00 C 265.73 292.17 267.04 292.42 262.50 292.75 C 257.96 293.08 259.00 292.42 241.12 294.00 C 223.25 295.58 176.21 300.12 155.25 302.25 C 134.29 304.38 126.44 305.71 115.38 306.75 C 104.31 307.79 96.31 308.12 88.88 308.50 C 81.44 308.88 74.44 308.75 70.75 309.00 C 67.06 309.25 67.67 309.67 66.75 310.00 C 65.83 310.33 65.71 310.58 65.25 311.00 C 64.79 311.42 64.23 311.94 64.00 312.50 C 63.77 313.06 63.75 313.75 63.88 314.38 C 64.00 315.00 63.77 315.17 64.75 316.25 C 65.73 317.33 66.54 318.62 69.75 320.88 C 72.96 323.12 80.69 327.81 84.00 329.75 C 87.31 331.69 87.73 331.71 89.62 332.50 C 91.52 333.29 93.52 334.10 95.38 334.50 C 97.23 334.90 96.33 335.35 100.75 334.88 C 105.17 334.40 113.77 333.10 121.88 331.62 C 129.98 330.15 140.29 327.60 149.38 326.00 C 158.46 324.40 167.56 323.17 176.38 322.00 C 185.19 320.83 192.58 320.00 202.25 319.00 C 211.92 318.00 225.96 316.69 234.38 316.00 C 242.79 315.31 248.42 315.23 252.75 314.88 C 257.08 314.52 250.40 314.54 260.38 313.88 C 270.35 313.21 297.98 311.52 312.62 310.88 C 327.27 310.23 337.42 310.12 348.25 310.00 C 359.08 309.88 367.40 309.83 377.62 310.12 C 387.85 310.42 401.29 311.48 409.62 311.75 C 417.96 312.02 424.04 311.92 427.62 311.75 C 431.21 311.58 430.12 311.29 431.12 310.75 C 432.12 310.21 433.02 309.25 433.62 308.50 C 434.23 307.75 434.54 307.31 434.75 306.25 C 434.96 305.19 435.19 303.44 434.88 302.12 Z" id="s-8-f-0"/>
<clipPath id="c-s-8"><use href="#s-8-f-0"/></clipPath>
<path d="M 228.62 164.00 C 227.04 164.19 226.35 164.79 225.75 165.12 C 225.15 165.46 225.15 165.46 225.00 166.00 C 224.85 166.54 224.54 166.79 224.88 168.38 C 225.21 169.96 226.35 173.90 227.00 175.50 C 227.65 177.10 228.15 176.52 228.75 178.00 C 229.35 179.48 229.98 180.48 230.62 184.38 C 231.27 188.27 232.08 194.10 232.62 201.38 C 233.17 208.65 233.73 220.15 233.88 228.00 C 234.02 235.85 233.50 244.88 233.50 248.50 C 233.50 252.12 233.67 243.12 233.88 249.75 C 234.08 256.38 234.62 278.62 234.75 288.25 C 234.88 297.88 234.62 303.88 234.62 307.50 C 234.62 311.12 234.62 309.48 234.75 310.00 C 234.88 310.52 235.33 310.46 235.38 310.62 C 235.42 310.79 234.92 310.02 235.00 311.00 C 235.08 311.98 235.69 312.08 235.88 316.50 C 236.06 320.92 235.77 331.12 236.12 337.50 C 236.48 343.88 237.54 351.54 238.00 354.75 C 238.46 357.96 238.38 356.38 238.88 356.75 C 239.38 357.12 239.23 357.12 241.00 357.00 C 242.77 356.88 247.94 356.31 249.50 356.00 C 251.06 355.69 250.00 355.77 250.38 355.12 C 250.75 354.48 250.85 354.96 251.75 352.12 C 252.65 349.29 254.31 344.71 255.75 338.12 C 257.19 331.54 259.54 317.48 260.38 312.62 C 261.21 307.77 260.75 309.77 260.75 309.00 C 260.75 308.23 260.33 308.15 260.38 308.00 C 260.42 307.85 260.88 312.17 261.00 308.12 C 261.12 304.08 260.81 294.06 261.12 283.75 C 261.44 273.44 262.52 252.65 262.88 246.25 C 263.23 239.85 263.23 248.79 263.25 245.38 C 263.27 241.96 262.92 229.67 263.00 225.75 C 263.08 221.83 263.54 225.12 263.75 221.88 C 263.96 218.62 264.04 210.10 264.25 206.25 C 264.46 202.40 264.69 200.81 265.00 198.75 C 265.31 196.69 265.54 195.60 266.12 193.88 C 266.71 192.15 268.04 190.06 268.50 188.38 C 268.96 186.69 269.00 185.08 268.88 183.75 C 268.75 182.42 268.31 181.40 267.75 180.38 C 267.19 179.35 266.56 178.69 265.50 177.62 C 264.44 176.56 262.88 175.10 261.38 174.00 C 259.88 172.90 258.50 172.00 256.50 171.00 C 254.50 170.00 252.08 169.00 249.38 168.00 C 246.67 167.00 242.60 165.67 240.25 165.00 C 237.90 164.33 237.19 164.17 235.25 164.00 C 233.31 163.83 230.21 163.81 228.62 164.00 Z" id="s-9-f-0"/>
<clipPath id="c-s-9"><use href="#s-9-f-0"/></clipPath>
<path d="M 152.50 359.12 C 150.81 359.42 150.58 360.17 150.00 360.62 C 149.42 361.08 149.33 361.31 149.00 361.88 C 148.67 362.44 148.19 363.23 148.00 364.00 C 147.81 364.77 147.69 365.88 147.88 366.50 C 148.06 367.12 148.40 367.27 149.12 367.75 C 149.85 368.23 150.65 367.88 152.25 369.38 C 153.85 370.88 157.21 374.69 158.75 376.75 C 160.29 378.81 160.52 379.42 161.50 381.75 C 162.48 384.08 163.44 386.31 164.62 390.75 C 165.81 395.19 167.73 403.69 168.62 408.38 C 169.52 413.06 168.94 412.42 170.00 418.88 C 171.06 425.33 173.83 441.23 175.00 447.12 C 176.17 453.02 176.33 452.38 177.00 454.25 C 177.67 456.12 177.69 456.31 179.00 458.38 C 180.31 460.44 183.29 464.77 184.88 466.62 C 186.46 468.48 187.65 468.96 188.50 469.50 C 189.35 470.04 189.40 469.85 190.00 469.88 C 190.60 469.90 191.48 469.90 192.12 469.62 C 192.77 469.35 193.23 469.21 193.88 468.25 C 194.52 467.29 195.35 465.00 196.00 463.88 C 196.65 462.75 197.25 462.69 197.75 461.50 C 198.25 460.31 198.83 460.83 199.00 456.75 C 199.17 452.67 199.77 449.48 198.75 437.00 C 197.73 424.52 195.71 393.94 192.88 381.88 C 190.04 369.81 183.81 367.67 181.75 364.62 C 179.69 361.58 182.56 364.40 180.50 363.62 C 178.44 362.85 172.77 360.79 169.38 360.00 C 165.98 359.21 162.94 359.02 160.12 358.88 C 157.31 358.73 154.19 358.83 152.50 359.12 Z" id="s-10-f-0"/>
<clipPath id="c-s-10"><use href="#s-10-f-0"/></clipPath>
<path d="M 358.88 375.00 C 358.92 374.17 358.98 372.98 358.62 372.00 C 358.27 371.02 357.71 370.23 356.75 369.12 C 355.79 368.02 354.50 366.75 352.88 365.38 C 351.25 364.00 349.25 362.44 347.00 360.88 C 344.75 359.31 342.00 357.48 339.38 356.00 C 336.75 354.52 334.10 353.29 331.25 352.00 C 328.40 350.71 324.50 349.08 322.25 348.25 C 320.00 347.42 319.19 347.21 317.75 347.00 C 316.31 346.79 315.29 346.83 313.62 347.00 C 311.96 347.17 309.60 347.54 307.75 348.00 C 305.90 348.46 305.15 349.12 302.50 349.75 C 299.85 350.38 300.40 350.75 291.88 351.75 C 283.35 352.75 259.33 355.10 251.38 355.75 C 243.42 356.40 248.31 355.15 244.12 355.62 C 239.94 356.10 233.10 357.60 226.25 358.62 C 219.40 359.65 209.88 360.98 203.00 361.75 C 196.12 362.52 188.73 362.81 185.00 363.25 C 181.27 363.69 179.40 361.23 180.62 364.38 C 181.85 367.52 189.94 379.23 192.38 382.12 C 194.81 385.02 194.10 382.12 195.25 381.75 C 196.40 381.38 195.83 380.67 199.25 379.88 C 202.67 379.08 209.06 377.98 215.75 377.00 C 222.44 376.02 233.48 374.67 239.38 374.00 C 245.27 373.33 243.21 373.50 251.12 373.00 C 259.04 372.50 279.42 371.31 286.88 371.00 C 294.33 370.69 293.60 370.98 295.88 371.12 C 298.15 371.27 299.27 371.58 300.50 371.88 C 301.73 372.17 302.40 372.42 303.25 372.88 C 304.10 373.33 305.06 374.02 305.62 374.62 C 306.19 375.23 306.44 375.58 306.62 376.50 C 306.81 377.42 307.25 376.15 306.75 380.12 C 306.25 384.10 305.06 392.65 303.62 400.38 C 302.19 408.10 299.06 421.58 298.12 426.50 C 297.19 431.42 297.38 429.15 298.00 429.88 C 298.62 430.60 297.96 430.19 301.88 430.88 C 305.79 431.56 317.98 433.50 321.50 434.00 C 325.02 434.50 322.29 434.48 323.00 433.88 C 323.71 433.27 323.90 434.12 325.75 430.38 C 327.60 426.62 331.54 416.69 334.12 411.38 C 336.71 406.06 339.08 401.98 341.25 398.50 C 343.42 395.02 344.52 393.62 347.12 390.50 C 349.73 387.38 355.00 382.00 356.88 379.75 C 358.75 377.50 358.04 377.79 358.38 377.00 C 358.71 376.21 358.83 375.83 358.88 375.00 Z" id="s-11-f-0"/>
<clipPath id="c-s-11"><use href="#s-11-f-0"/></clipPath>
<path d="M 334.88 445.75 C 334.69 445.04 334.25 443.79 333.75 442.88 C 333.25 441.96 333.19 441.58 331.88 440.25 C 330.56 438.92 327.75 436.12 325.88 434.88 C 324.00 433.62 322.35 433.17 320.62 432.75 C 318.90 432.33 316.67 432.56 315.50 432.38 C 314.33 432.19 314.62 431.79 313.62 431.62 C 312.62 431.46 310.44 431.52 309.50 431.38 C 308.56 431.23 309.85 431.06 308.00 430.75 C 306.15 430.44 303.42 429.17 298.38 429.50 C 293.33 429.83 285.33 431.71 277.75 432.75 C 270.17 433.79 262.73 434.75 252.88 435.75 C 243.02 436.75 227.62 438.06 218.62 438.75 C 209.62 439.44 202.23 439.60 198.88 439.88 C 195.52 440.15 198.56 437.50 198.50 440.38 C 198.44 443.25 198.40 454.25 198.50 457.12 C 198.60 460.00 198.60 457.50 199.12 457.62 C 199.65 457.75 198.40 457.85 201.62 457.88 C 204.85 457.90 212.94 457.94 218.50 457.75 C 224.06 457.56 221.58 457.88 235.00 456.75 C 248.42 455.62 283.15 452.15 299.00 451.00 C 314.85 449.85 324.29 450.31 330.12 449.88 C 335.96 449.44 333.21 448.83 334.00 448.38 C 334.79 447.92 334.73 447.56 334.88 447.12 C 335.02 446.69 335.06 446.46 334.88 445.75 Z" id="s-12-f-0"/>
<clipPath id="c-s-12"><use href="#s-12-f-0"/></clipPath>
</defs>
<g id="s-0" clip-path="url(#c-s-0)">
<use href="#s-0-f-0"/>
<path d="M 158.12 42.88 C 156.17 41.67 155.71 41.65 153.88 41.00 C 152.04 40.35 149.08 39.33 147.12 39.00 C 145.17 38.67 143.29 38.75 142.12 39.00 C 140.96 39.25 140.65 39.83 140.12 40.50 C 139.60 41.17 139.38 40.06 139.00 43.00 C 138.62 45.94 138.44 53.92 137.88 58.12 C 137.31 62.33 137.19 63.27 135.62 68.25 C 134.06 73.23 131.31 80.85 128.50 88.00 C 125.69 95.15 121.71 104.58 118.75 111.12 C 115.79 117.67 113.92 121.40 110.75 127.25 C 107.58 133.10 103.56 140.08 99.75 146.25 C 95.94 152.42 92.15 158.19 87.88 164.25 C 83.60 170.31 76.02 179.50 74.12 182.62 C 72.23 185.75 74.79 182.98 76.50 183.00 C 78.21 183.02 82.12 183.42 84.38 182.75 C 86.62 182.08 87.44 180.94 90.00 179.00 C 92.56 177.06 96.60 173.88 99.75 171.12 C 102.90 168.38 105.92 165.48 108.88 162.50 C 111.83 159.52 114.69 156.50 117.50 153.25 C 120.31 150.00 123.06 146.56 125.75 143.00 C 128.44 139.44 130.10 137.12 133.62 131.88 C 137.15 126.62 142.02 119.42 146.88 111.50 C 151.73 103.58 159.40 90.40 162.75 84.38 C 166.10 78.35 165.38 78.08 167.00 75.38 C 168.62 72.67 171.21 70.04 172.50 68.12 C 173.79 66.21 174.38 65.27 174.75 63.88 C 175.12 62.48 174.92 60.88 174.75 59.75 C 174.58 58.62 174.25 58.04 173.75 57.12 C 173.25 56.21 173.10 55.73 171.75 54.25 C 170.40 52.77 167.90 50.15 165.62 48.25 C 163.35 46.35 160.08 44.08 158.12 42.88 Z" id="s-0-f-1"/>
<path d="M 158.12 42.88 C 156.17 41.67 155.71 41.65 153.88 41.00 C 152.04 40.35 149.08 39.33 147.12 39.00 C 145.17 38.67 143.29 38.75 142.12 39.00 C 140.96 39.25 140.65 39.83 140.12 40.50 C 139.60 41.17 139.40 39.92 139.00 43.00 C 138.60 46.08 138.31 54.79 137.75 59.00 C 137.19 63.21 136.33 65.58 135.62 68.25 C 134.92 70.92 135.48 69.75 133.50 75.00 C 131.52 80.25 126.21 93.73 123.75 99.75 C 121.29 105.77 120.92 106.54 118.75 111.12 C 116.58 115.71 112.71 123.50 110.75 127.25 C 108.79 131.00 107.65 132.38 107.00 133.62 C 106.35 134.88 104.10 134.52 106.88 134.75 C 109.65 134.98 119.48 135.04 123.62 135.00 C 127.77 134.96 127.38 139.25 131.75 134.50 C 136.12 129.75 144.71 114.85 149.88 106.50 C 155.04 98.15 159.90 89.56 162.75 84.38 C 165.60 79.19 165.17 78.42 167.00 75.38 C 168.83 72.33 172.46 68.04 173.75 66.12 C 175.04 64.21 174.56 64.79 174.75 63.88 C 174.94 62.96 175.04 61.75 174.88 60.62 C 174.71 59.50 174.12 58.00 173.75 57.12 C 173.38 56.25 173.98 56.85 172.62 55.38 C 171.27 53.90 168.04 50.33 165.62 48.25 C 163.21 46.17 160.08 44.08 158.12 42.88 Z" id="s-0-f-2"/>
<path d="M 142.12 39.00 C 140.85 39.23 140.62 39.92 140.12 40.50 C 139.62 41.08 139.40 40.44 139.12 42.50 C 138.85 44.56 138.90 49.31 138.50 52.88 C 138.10 56.44 137.58 60.19 136.75 63.88 C 135.92 67.56 134.79 71.23 133.50 75.00 C 132.21 78.77 129.40 84.50 129.00 86.50 C 128.60 88.50 125.83 86.94 131.12 87.00 C 136.42 87.06 155.48 87.31 160.75 86.88 C 166.02 86.44 161.71 86.29 162.75 84.38 C 163.79 82.46 165.38 78.08 167.00 75.38 C 168.62 72.67 171.23 69.98 172.50 68.12 C 173.77 66.27 174.23 65.50 174.62 64.25 C 175.02 63.00 175.02 61.81 174.88 60.62 C 174.73 59.44 174.27 58.19 173.75 57.12 C 173.23 56.06 173.10 55.73 171.75 54.25 C 170.40 52.77 167.90 50.15 165.62 48.25 C 163.35 46.35 160.08 44.08 158.12 42.88 C 156.17 41.67 155.60 41.62 153.88 41.00 C 152.15 40.38 149.71 39.46 147.75 39.12 C 145.79 38.79 143.40 38.77 142.12 39.00 Z" id="s-0-f-3"/>
</g>
<g id="s-1" clip-path="url(#c-s-1)">
<use href="#s-1-f-0"/>
<path d="M 239.88 89.88 C 239.50 87.73 238.60 88.67 237.50 88.00 C 236.40 87.33 235.77 86.71 233.25 85.88 C 230.73 85.04 224.69 83.48 222.38 83.00 C 220.06 82.52 221.90 82.50 219.38 83.00 C 216.85 83.50 212.77 84.40 207.25 86.00 C 201.73 87.60 195.31 90.17 186.25 92.62 C 177.19 95.08 158.65 99.23 152.88 100.75 C 147.10 102.27 153.17 99.31 151.62 101.75 C 150.08 104.19 144.17 112.88 143.62 115.38 C 143.08 117.88 145.00 116.56 148.38 116.75 C 151.75 116.94 150.46 118.35 163.88 116.50 C 177.29 114.65 216.62 107.94 228.88 105.62 C 241.12 103.31 235.56 103.42 237.38 102.62 C 239.19 101.83 239.33 103.00 239.75 100.88 C 240.17 98.75 240.25 92.02 239.88 89.88 Z" id="s-1-f-1"/>
<path d="M 191.88 91.38 C 191.67 88.23 191.69 90.79 190.75 91.00 C 189.81 91.21 192.65 90.96 186.25 92.62 C 179.85 94.29 159.19 97.65 152.38 101.00 C 145.56 104.35 146.81 110.46 145.38 112.75 C 143.94 115.04 144.02 114.27 143.75 114.75 C 143.48 115.23 142.98 115.29 143.75 115.62 C 144.52 115.96 145.44 116.56 148.38 116.75 C 151.31 116.94 157.69 116.94 161.38 116.75 C 165.06 116.56 167.85 116.08 170.50 115.62 C 173.15 115.17 173.79 114.67 177.25 114.00 C 180.71 113.33 188.79 112.31 191.25 111.62 C 193.71 110.94 191.90 113.25 192.00 109.88 C 192.10 106.50 192.08 94.52 191.88 91.38 Z" id="s-1-f-2"/>
</g>
<g id="s-2" clip-path="url(#c-s-2)">
<use href="#s-2-f-0"/>
<path d="M 149.50 130.75 C 149.08 131.23 148.23 132.21 148.00 132.88 C 147.77 133.54 147.50 133.69 148.12 134.75 C 148.75 135.81 150.44 137.29 151.75 139.25 C 153.06 141.21 153.98 143.33 156.00 146.50 C 158.02 149.67 161.56 155.02 163.88 158.25 C 166.19 161.48 167.88 163.60 169.88 165.88 C 171.88 168.15 174.06 170.42 175.88 171.88 C 177.69 173.33 179.15 174.12 180.75 174.62 C 182.35 175.12 183.96 175.00 185.50 174.88 C 187.04 174.75 188.73 174.40 190.00 173.88 C 191.27 173.35 192.17 172.77 193.12 171.75 C 194.08 170.73 195.27 170.88 195.75 167.75 C 196.23 164.62 196.00 155.75 196.00 153.00 C 196.00 150.25 196.12 152.23 195.75 151.25 C 195.38 150.27 194.71 148.52 193.75 147.12 C 192.79 145.73 191.35 144.06 190.00 142.88 C 188.65 141.69 187.42 140.98 185.62 140.00 C 183.83 139.02 181.77 137.98 179.25 137.00 C 176.73 136.02 173.08 134.88 170.50 134.12 C 167.92 133.38 165.38 133.00 163.75 132.50 C 162.12 132.00 162.44 131.56 160.75 131.12 C 159.06 130.69 155.33 130.06 153.62 129.88 C 151.92 129.69 151.19 129.85 150.50 130.00 C 149.81 130.15 149.92 130.27 149.50 130.75 Z" id="s-2-f-1"/>
</g>
<g id="s-3" clip-path="url(#c-s-3)">
<use href="#s-3-f-0"/>
<path d="M 302.75 32.12 C 299.96 30.44 299.31 30.54 297.62 30.00 C 295.94 29.46 294.08 29.04 292.62 28.88 C 291.17 28.71 289.77 28.83 288.88 29.00 C 287.98 29.17 287.75 29.48 287.25 29.88 C 286.75 30.27 286.25 30.75 285.88 31.38 C 285.50 32.00 285.25 31.48 285.00 33.62 C 284.75 35.77 284.65 41.31 284.38 44.25 C 284.10 47.19 283.85 48.77 283.38 51.25 C 282.90 53.73 282.27 56.46 281.50 59.12 C 280.73 61.79 281.06 60.96 278.75 67.25 C 276.44 73.54 270.62 89.40 267.62 96.88 C 264.62 104.35 262.85 107.88 260.75 112.12 C 258.65 116.38 256.08 120.27 255.00 122.38 C 253.92 124.48 250.85 124.33 254.25 124.75 C 257.65 125.17 271.60 125.06 275.38 124.88 C 279.15 124.69 274.94 125.90 276.88 123.62 C 278.81 121.35 284.00 115.21 287.00 111.25 C 290.00 107.29 292.25 103.85 294.88 99.88 C 297.50 95.90 299.88 92.60 302.75 87.38 C 305.62 82.15 308.98 74.04 312.12 68.50 C 315.27 62.96 320.02 57.29 321.62 54.12 C 323.23 50.96 322.15 51.00 321.75 49.50 C 321.35 48.00 320.48 46.69 319.25 45.12 C 318.02 43.56 317.12 42.29 314.38 40.12 C 311.62 37.96 305.54 33.81 302.75 32.12 Z" id="s-3-f-1"/>
<path d="M 288.88 29.00 C 287.48 29.31 286.77 30.23 286.12 31.00 C 285.48 31.77 285.29 31.42 285.00 33.62 C 284.71 35.83 284.65 41.31 284.38 44.25 C 284.10 47.19 283.85 48.77 283.38 51.25 C 282.90 53.73 282.81 54.92 281.50 59.12 C 280.19 63.33 276.08 73.52 275.50 76.50 C 274.92 79.48 272.60 77.00 278.00 77.00 C 283.40 77.00 302.75 76.73 307.88 76.50 C 313.00 76.27 308.21 76.65 308.75 75.62 C 309.29 74.60 310.10 72.33 311.12 70.38 C 312.15 68.42 313.12 66.58 314.88 63.88 C 316.62 61.17 320.50 56.58 321.62 54.12 C 322.75 51.67 322.02 50.62 321.62 49.12 C 321.23 47.62 320.21 46.40 319.25 45.12 C 318.29 43.85 317.35 42.85 315.88 41.50 C 314.40 40.15 312.29 38.42 310.38 37.00 C 308.46 35.58 306.06 34.00 304.38 33.00 C 302.69 32.00 301.90 31.65 300.25 31.00 C 298.60 30.35 296.40 29.46 294.50 29.12 C 292.60 28.79 290.27 28.69 288.88 29.00 Z" id="s-3-f-2"/>
</g>
<g id="s-4" clip-path="url(#c-s-4)">
<use href="#s-4-f-0"/>
<path d="M 389.88 69.12 C 389.29 66.31 387.77 68.17 386.50 68.00 C 385.23 67.83 396.19 65.00 382.25 68.12 C 368.31 71.25 316.31 83.48 302.88 86.75 C 289.44 90.02 303.17 85.46 301.62 87.75 C 300.08 90.04 294.60 98.19 293.62 100.50 C 292.65 102.81 294.27 101.25 295.75 101.62 C 297.23 102.00 298.33 102.58 302.50 102.75 C 306.67 102.92 315.06 102.96 320.75 102.62 C 326.44 102.29 329.79 101.81 336.62 100.75 C 343.46 99.69 352.96 97.71 361.75 96.25 C 370.54 94.79 384.69 92.98 389.38 92.00 C 394.06 91.02 389.77 91.56 389.88 90.38 C 389.98 89.19 390.00 88.42 390.00 84.88 C 390.00 81.33 390.46 71.94 389.88 69.12 Z" id="s-4-f-1"/>
<path d="M 341.75 78.25 C 341.58 74.90 347.48 76.46 341.00 77.88 C 334.52 79.29 309.44 85.10 302.88 86.75 C 296.31 88.40 303.17 85.46 301.62 87.75 C 300.08 90.04 294.60 98.19 293.62 100.50 C 292.65 102.81 294.27 101.25 295.75 101.62 C 297.23 102.00 299.29 102.54 302.50 102.75 C 305.71 102.96 310.50 103.04 315.00 102.88 C 319.50 102.71 325.06 102.27 329.50 101.75 C 333.94 101.23 339.54 100.38 341.62 99.75 C 343.71 99.12 341.98 101.58 342.00 98.00 C 342.02 94.42 341.92 81.60 341.75 78.25 Z" id="s-4-f-2"/>
</g>
<g id="s-5" clip-path="url(#c-s-5)">
<use href="#s-5-f-0"/>
<path d="M 301.62 121.38 C 301.08 121.77 300.25 122.62 300.00 123.25 C 299.75 123.88 299.38 124.04 300.12 125.12 C 300.88 126.21 301.35 125.60 304.50 129.75 C 307.65 133.90 315.17 144.96 319.00 150.00 C 322.83 155.04 324.88 157.21 327.50 160.00 C 330.12 162.79 332.77 165.15 334.75 166.75 C 336.73 168.35 338.02 168.96 339.38 169.62 C 340.73 170.29 341.50 170.56 342.88 170.75 C 344.25 170.94 346.77 171.19 347.62 170.75 C 348.48 170.31 347.96 174.42 348.00 168.12 C 348.04 161.83 348.35 139.17 347.88 133.00 C 347.40 126.83 346.71 131.92 345.12 131.12 C 343.54 130.33 342.35 129.60 338.38 128.25 C 334.40 126.90 326.02 124.21 321.25 123.00 C 316.48 121.79 312.75 121.35 309.75 121.00 C 306.75 120.65 304.60 120.81 303.25 120.88 C 301.90 120.94 302.17 120.98 301.62 121.38 Z" id="s-5-f-1"/>
</g>
<g id="s-6" clip-path="url(#c-s-6)">
<use href="#s-6-f-0"/>
<path d="M 190.25 192.00 C 187.83 190.48 184.69 189.15 181.88 188.00 C 179.06 186.85 175.54 185.62 173.38 185.12 C 171.21 184.62 170.00 184.96 168.88 185.00 C 167.75 185.04 167.27 185.12 166.62 185.38 C 165.98 185.62 165.46 185.96 165.00 186.50 C 164.54 187.04 164.25 186.56 163.88 188.62 C 163.50 190.69 163.29 195.08 162.75 198.88 C 162.21 202.67 161.31 207.92 160.62 211.38 C 159.94 214.83 159.46 216.77 158.62 219.62 C 157.79 222.48 156.94 225.25 155.62 228.50 C 154.31 231.75 152.71 235.29 150.75 239.12 C 148.79 242.96 147.21 245.96 143.88 251.50 C 140.54 257.04 133.85 267.58 130.75 272.38 C 127.65 277.17 126.12 278.83 125.25 280.25 C 124.38 281.67 122.04 280.79 125.50 280.88 C 128.96 280.96 141.17 282.29 146.00 280.75 C 150.83 279.21 151.29 275.44 154.50 271.62 C 157.71 267.81 162.19 262.00 165.25 257.88 C 168.31 253.75 170.52 250.65 172.88 246.88 C 175.23 243.10 175.04 241.38 179.38 235.25 C 183.71 229.12 195.33 214.85 198.88 210.12 C 202.42 205.40 200.29 207.90 200.62 206.88 C 200.96 205.85 201.00 204.92 200.88 204.00 C 200.75 203.08 200.62 202.52 199.88 201.38 C 199.12 200.23 197.98 198.69 196.38 197.12 C 194.77 195.56 192.67 193.52 190.25 192.00 Z" id="s-6-f-1"/>
<path d="M 166.62 185.38 C 165.98 185.62 165.44 186.06 165.00 186.50 C 164.56 186.94 164.38 185.94 164.00 188.00 C 163.62 190.06 163.31 194.98 162.75 198.88 C 162.19 202.77 161.31 207.92 160.62 211.38 C 159.94 214.83 159.71 216.19 158.62 219.62 C 157.54 223.06 154.62 229.85 154.12 232.00 C 153.62 234.15 154.31 232.35 155.62 232.50 C 156.94 232.65 157.77 232.81 162.00 232.88 C 166.23 232.94 174.85 236.67 181.00 232.88 C 187.15 229.08 195.60 214.46 198.88 210.12 C 202.15 205.79 200.31 208.02 200.62 206.88 C 200.94 205.73 201.21 204.62 200.75 203.25 C 200.29 201.88 198.96 199.98 197.88 198.62 C 196.79 197.27 195.73 196.35 194.25 195.12 C 192.77 193.90 191.48 192.60 189.00 191.25 C 186.52 189.90 181.90 188.00 179.38 187.00 C 176.85 186.00 175.62 185.58 173.88 185.25 C 172.12 184.92 170.08 184.98 168.88 185.00 C 167.67 185.02 167.27 185.12 166.62 185.38 Z" id="s-6-f-2"/>
</g>
<g id="s-7" clip-path="url(#c-s-7)">
<use href="#s-7-f-0"/>
<path d="M 316.00 217.38 C 315.85 213.69 317.52 216.44 315.00 217.00 C 312.48 217.56 306.96 219.46 300.88 220.75 C 294.79 222.04 287.77 223.40 278.50 224.75 C 269.23 226.10 253.62 227.73 245.25 228.88 C 236.88 230.02 235.77 230.67 228.25 231.62 C 220.73 232.58 208.31 233.94 200.12 234.62 C 191.94 235.31 182.85 235.42 179.12 235.75 C 175.40 236.08 179.00 234.69 177.75 236.62 C 176.50 238.56 172.31 245.35 171.62 247.38 C 170.94 249.40 172.85 248.40 173.62 248.75 C 174.40 249.10 174.50 249.19 176.25 249.50 C 178.00 249.81 178.25 250.46 184.12 250.62 C 190.00 250.79 200.94 250.96 211.50 250.50 C 222.06 250.04 235.29 249.00 247.50 247.88 C 259.71 246.75 273.46 245.10 284.75 243.75 C 296.04 242.40 310.06 240.52 315.25 239.75 C 320.44 238.98 315.75 242.85 315.88 239.12 C 316.00 235.40 316.15 221.06 316.00 217.38 Z" id="s-7-f-1"/>
<path d="M 267.88 226.50 C 267.62 223.56 267.15 226.08 266.50 226.12 C 265.85 226.17 265.08 226.62 264.00 226.75 C 262.92 226.88 265.08 226.19 260.00 226.88 C 254.92 227.56 241.90 229.73 233.50 230.88 C 225.10 232.02 218.69 232.94 209.62 233.75 C 200.56 234.56 184.44 235.27 179.12 235.75 C 173.81 236.23 179.00 234.69 177.75 236.62 C 176.50 238.56 172.31 245.35 171.62 247.38 C 170.94 249.40 172.85 248.40 173.62 248.75 C 174.40 249.10 174.50 249.19 176.25 249.50 C 178.00 249.81 179.12 250.42 184.12 250.62 C 189.12 250.83 197.31 251.04 206.25 250.75 C 215.19 250.46 227.54 249.75 237.75 248.88 C 247.96 248.00 262.46 246.35 267.50 245.50 C 272.54 244.65 267.94 246.92 268.00 243.75 C 268.06 240.58 268.12 229.44 267.88 226.50 Z" id="s-7-f-2"/>
<path d="M 219.75 233.12 C 219.48 231.15 221.96 232.48 218.38 232.75 C 214.79 233.02 204.88 234.23 198.25 234.75 C 191.62 235.27 182.04 235.56 178.62 235.88 C 175.21 236.19 178.92 234.71 177.75 236.62 C 176.58 238.54 172.31 245.35 171.62 247.38 C 170.94 249.40 172.92 248.42 173.62 248.75 C 174.33 249.08 173.85 249.04 175.88 249.38 C 177.90 249.71 180.69 250.52 185.75 250.75 C 190.81 250.98 200.58 250.94 206.25 250.75 C 211.92 250.56 217.46 250.65 219.75 249.62 C 222.04 248.60 220.00 247.38 220.00 244.62 C 220.00 241.88 220.02 235.10 219.75 233.12 Z" id="s-7-f-3"/>
</g>
<g id="s-8" clip-path="url(#c-s-8)">
<use href="#s-8-f-0"/>
<path d="M 399.88 281.75 C 399.77 277.12 399.62 281.25 399.38 281.12 C 399.12 281.00 399.75 281.00 398.38 281.00 C 397.00 281.00 399.00 280.33 391.12 281.12 C 383.25 281.92 369.92 283.98 351.12 285.75 C 332.33 287.52 292.17 290.71 278.38 291.75 C 264.58 292.79 271.02 291.83 268.38 292.00 C 265.73 292.17 267.04 292.42 262.50 292.75 C 257.96 293.08 259.00 292.42 241.12 294.00 C 223.25 295.58 176.46 300.10 155.25 302.25 C 134.04 304.40 124.79 305.83 113.88 306.88 C 102.96 307.92 96.94 308.15 89.75 308.50 C 82.56 308.85 74.58 308.75 70.75 309.00 C 66.92 309.25 67.67 309.67 66.75 310.00 C 65.83 310.33 65.71 310.58 65.25 311.00 C 64.79 311.42 64.23 311.94 64.00 312.50 C 63.77 313.06 63.75 313.75 63.88 314.38 C 64.00 315.00 63.77 315.17 64.75 316.25 C 65.73 317.33 66.54 318.62 69.75 320.88 C 72.96 323.12 80.69 327.81 84.00 329.75 C 87.31 331.69 87.73 331.71 89.62 332.50 C 91.52 333.29 93.52 334.10 95.38 334.50 C 97.23 334.90 96.33 335.35 100.75 334.88 C 105.17 334.40 113.77 333.10 121.88 331.62 C 129.98 330.15 140.29 327.60 149.38 326.00 C 158.46 324.40 167.56 323.17 176.38 322.00 C 185.19 320.83 192.58 320.00 202.25 319.00 C 211.92 318.00 225.96 316.69 234.38 316.00 C 242.79 315.31 248.69 315.21 252.75 314.88 C 256.81 314.54 248.77 314.67 258.75 314.00 C 268.73 313.33 299.27 311.52 312.62 310.88 C 325.98 310.23 329.25 310.27 338.88 310.12 C 348.50 309.98 360.23 309.88 370.38 310.00 C 380.52 310.12 394.81 311.06 399.75 310.88 C 404.69 310.69 399.98 313.73 400.00 308.88 C 400.02 304.02 399.98 286.38 399.88 281.75 Z" id="s-8-f-1"/>
<path d="M 351.88 286.12 C 351.77 282.19 363.62 284.81 351.38 285.75 C 339.12 286.69 292.21 290.71 278.38 291.75 C 264.54 292.79 271.02 291.83 268.38 292.00 C 265.73 292.17 267.04 292.42 262.50 292.75 C 257.96 293.08 259.00 292.42 241.12 294.00 C 223.25 295.58 176.21 300.12 155.25 302.25 C 134.29 304.38 126.38 305.71 115.38 306.75 C 104.38 307.79 96.69 308.12 89.25 308.50 C 81.81 308.88 74.50 308.75 70.75 309.00 C 67.00 309.25 67.67 309.67 66.75 310.00 C 65.83 310.33 65.71 310.58 65.25 311.00 C 64.79 311.42 64.23 311.92 64.00 312.50 C 63.77 313.08 63.48 313.58 63.88 314.50 C 64.27 315.42 65.40 316.94 66.38 318.00 C 67.35 319.06 66.54 318.77 69.75 320.88 C 72.96 322.98 81.35 328.35 85.62 330.62 C 89.90 332.90 92.56 333.81 95.38 334.50 C 98.19 335.19 98.08 335.23 102.50 334.75 C 106.92 334.27 115.90 332.75 121.88 331.62 C 127.85 330.50 132.79 329.10 138.38 328.00 C 143.96 326.90 144.73 326.50 155.38 325.00 C 166.02 323.50 189.08 320.50 202.25 319.00 C 215.42 317.50 225.96 316.69 234.38 316.00 C 242.79 315.31 248.69 315.21 252.75 314.88 C 256.81 314.54 252.65 314.48 258.75 314.00 C 264.85 313.52 273.90 312.69 289.38 312.00 C 304.85 311.31 341.19 310.31 351.62 309.88 C 362.06 309.44 351.96 313.33 352.00 309.38 C 352.04 305.42 351.98 290.06 351.88 286.12 Z" id="s-8-f-2"/>
<path d="M 304.00 291.38 C 303.96 288.12 304.10 290.15 303.75 289.88 C 303.40 289.60 306.10 289.44 301.88 289.75 C 297.65 290.06 286.06 291.23 278.38 291.75 C 270.69 292.27 276.27 291.12 255.75 292.88 C 235.23 294.62 178.65 299.94 155.25 302.25 C 131.85 304.56 124.46 305.81 115.38 306.75 C 106.29 307.69 108.19 307.50 100.75 307.88 C 93.31 308.25 76.42 308.65 70.75 309.00 C 65.08 309.35 67.67 309.67 66.75 310.00 C 65.83 310.33 65.71 310.58 65.25 311.00 C 64.79 311.42 64.23 311.92 64.00 312.50 C 63.77 313.08 63.48 313.58 63.88 314.50 C 64.27 315.42 65.40 316.94 66.38 318.00 C 67.35 319.06 66.54 318.77 69.75 320.88 C 72.96 322.98 81.35 328.35 85.62 330.62 C 89.90 332.90 92.56 333.81 95.38 334.50 C 98.19 335.19 98.08 335.23 102.50 334.75 C 106.92 334.27 114.06 333.08 121.88 331.62 C 129.69 330.17 138.96 327.77 149.38 326.00 C 159.79 324.23 170.21 322.67 184.38 321.00 C 198.54 319.33 222.98 317.02 234.38 316.00 C 245.77 314.98 248.69 315.21 252.75 314.88 C 256.81 314.54 250.31 314.56 258.75 314.00 C 267.19 313.44 295.83 312.27 303.38 311.50 C 310.92 310.73 303.90 312.73 304.00 309.38 C 304.10 306.02 304.04 294.62 304.00 291.38 Z" id="s-8-f-3"/>
<path d="M 255.88 293.38 C 255.56 290.10 270.90 291.52 254.12 293.00 C 237.35 294.48 178.38 299.96 155.25 302.25 C 132.12 304.54 124.46 305.81 115.38 306.75 C 106.29 307.69 108.19 307.50 100.75 307.88 C 93.31 308.25 76.42 308.65 70.75 309.00 C 65.08 309.35 67.67 309.67 66.75 310.00 C 65.83 310.33 65.71 310.58 65.25 311.00 C 64.79 311.42 64.23 311.92 64.00 312.50 C 63.77 313.08 63.48 313.58 63.88 314.50 C 64.27 315.42 65.40 316.94 66.38 318.00 C 67.35 319.06 66.54 318.77 69.75 320.88 C 72.96 322.98 81.35 328.35 85.62 330.62 C 89.90 332.90 92.56 333.81 95.38 334.50 C 98.19 335.19 98.08 335.23 102.50 334.75 C 106.92 334.27 114.06 333.08 121.88 331.62 C 129.69 330.17 140.29 327.60 149.38 326.00 C 158.46 324.40 164.04 323.50 176.38 322.00 C 188.71 320.50 210.27 318.23 223.38 317.00 C 236.48 315.77 249.60 315.08 255.00 314.62 C 260.40 314.17 255.58 314.58 255.75 314.25 C 255.92 313.92 255.98 316.10 256.00 312.62 C 256.02 309.15 256.19 296.65 255.88 293.38 Z" id="s-8-f-4"/>
<path d="M 207.88 297.88 C 207.67 294.67 213.35 296.85 206.75 297.38 C 200.15 297.90 183.48 299.44 168.25 301.00 C 153.02 302.56 126.62 305.60 115.38 306.75 C 104.12 307.90 108.19 307.50 100.75 307.88 C 93.31 308.25 76.42 308.65 70.75 309.00 C 65.08 309.35 67.67 309.67 66.75 310.00 C 65.83 310.33 65.71 310.58 65.25 311.00 C 64.79 311.42 64.23 311.92 64.00 312.50 C 63.77 313.08 63.48 313.58 63.88 314.50 C 64.27 315.42 65.40 316.94 66.38 318.00 C 67.35 319.06 66.54 318.77 69.75 320.88 C 72.96 322.98 81.35 328.35 85.62 330.62 C 89.90 332.90 92.56 333.81 95.38 334.50 C 98.19 335.19 98.08 335.23 102.50 334.75 C 106.92 334.27 115.90 332.75 121.88 331.62 C 127.85 330.50 132.79 329.10 138.38 328.00 C 143.96 326.90 147.71 326.17 155.38 325.00 C 163.04 323.83 175.73 322.04 184.38 321.00 C 193.02 319.96 203.33 319.23 207.25 318.75 C 211.17 318.27 207.75 318.48 207.88 318.12 C 208.00 317.77 208.00 320.00 208.00 316.62 C 208.00 313.25 208.08 301.08 207.88 297.88 Z" id="s-8-f-5"/>
<path d="M 160.00 303.62 C 159.98 300.02 160.12 302.65 159.75 302.38 C 159.38 302.10 165.15 301.27 157.75 302.00 C 150.35 302.73 124.90 305.77 115.38 306.75 C 105.85 307.73 108.06 307.50 100.62 307.88 C 93.19 308.25 76.40 308.65 70.75 309.00 C 65.10 309.35 67.67 309.67 66.75 310.00 C 65.83 310.33 65.71 310.58 65.25 311.00 C 64.79 311.42 64.23 311.92 64.00 312.50 C 63.77 313.08 63.50 313.60 63.88 314.50 C 64.25 315.40 65.27 316.81 66.25 317.88 C 67.23 318.94 66.52 318.75 69.75 320.88 C 72.98 323.00 81.35 328.35 85.62 330.62 C 89.90 332.90 92.56 333.81 95.38 334.50 C 98.19 335.19 97.19 335.40 102.50 334.75 C 107.81 334.10 122.10 331.58 127.25 330.62 C 132.40 329.67 129.85 329.75 133.38 329.00 C 136.90 328.25 144.04 326.88 148.38 326.12 C 152.71 325.38 157.46 324.85 159.38 324.50 C 161.29 324.15 159.77 327.48 159.88 324.00 C 159.98 320.52 160.02 307.23 160.00 303.62 Z" id="s-8-f-6"/>
<path d="M 111.88 332.62 C 111.96 328.25 118.60 311.06 111.75 307.12 C 104.90 303.19 78.25 308.52 70.75 309.00 C 63.25 309.48 67.88 309.42 66.75 310.00 C 65.62 310.58 64.46 311.62 64.00 312.50 C 63.54 313.38 63.21 313.98 64.00 315.25 C 64.79 316.52 65.71 317.88 68.75 320.12 C 71.79 322.38 78.77 326.69 82.25 328.75 C 85.73 330.81 87.19 331.50 89.62 332.50 C 92.06 333.50 94.75 334.38 96.88 334.75 C 99.00 335.12 99.98 334.98 102.38 334.75 C 104.77 334.52 109.67 333.73 111.25 333.38 C 112.83 333.02 111.79 337.00 111.88 332.62 Z" id="s-8-f-7"/>
</g>
<g id="s-9" clip-path="url(#c-s-9)">
<use href="#s-9-f-0"/>
<path d="M 228.50 164.00 C 226.96 164.15 226.58 164.54 226.00 164.88 C 225.42 165.21 225.19 165.42 225.00 166.00 C 224.81 166.58 224.54 166.79 224.88 168.38 C 225.21 169.96 226.35 173.90 227.00 175.50 C 227.65 177.10 228.15 176.52 228.75 178.00 C 229.35 179.48 229.94 179.88 230.62 184.38 C 231.31 188.88 232.33 197.73 232.88 205.00 C 233.42 212.27 233.77 220.75 233.88 228.00 C 233.98 235.25 233.50 244.88 233.50 248.50 C 233.50 252.12 233.69 244.08 233.88 249.75 C 234.06 255.42 234.48 272.46 234.62 282.50 C 234.77 292.54 234.62 305.31 234.75 310.00 C 234.88 314.69 235.33 310.46 235.38 310.62 C 235.42 310.79 234.92 310.02 235.00 311.00 C 235.08 311.98 235.69 312.06 235.88 316.50 C 236.06 320.94 235.94 332.52 236.12 337.62 C 236.31 342.73 236.65 344.15 237.00 347.12 C 237.35 350.10 237.88 354.02 238.25 355.50 C 238.62 356.98 237.38 355.92 239.25 356.00 C 241.12 356.08 247.65 356.15 249.50 356.00 C 251.35 355.85 250.00 355.77 250.38 355.12 C 250.75 354.48 250.85 354.96 251.75 352.12 C 252.65 349.29 254.31 344.71 255.75 338.12 C 257.19 331.54 259.54 317.48 260.38 312.62 C 261.21 307.77 260.75 309.77 260.75 309.00 C 260.75 308.23 260.33 308.15 260.38 308.00 C 260.42 307.85 260.88 312.17 261.00 308.12 C 261.12 304.08 260.81 294.06 261.12 283.75 C 261.44 273.44 262.52 252.65 262.88 246.25 C 263.23 239.85 263.23 248.79 263.25 245.38 C 263.27 241.96 262.92 229.67 263.00 225.75 C 263.08 221.83 263.56 224.79 263.75 221.88 C 263.94 218.96 263.94 211.96 264.12 208.25 C 264.31 204.54 264.56 201.96 264.88 199.62 C 265.19 197.29 265.40 196.12 266.00 194.25 C 266.60 192.38 268.02 190.12 268.50 188.38 C 268.98 186.62 269.00 185.08 268.88 183.75 C 268.75 182.42 268.31 181.40 267.75 180.38 C 267.19 179.35 266.56 178.69 265.50 177.62 C 264.44 176.56 262.88 175.10 261.38 174.00 C 259.88 172.90 258.50 172.00 256.50 171.00 C 254.50 170.00 252.08 169.00 249.38 168.00 C 246.67 167.00 242.60 165.67 240.25 165.00 C 237.90 164.33 237.21 164.17 235.25 164.00 C 233.29 163.83 230.04 163.85 228.50 164.00 Z" id="s-9-f-1"/>
<path d="M 227.62 164.12 C 225.88 164.25 226.44 164.56 226.00 164.88 C 225.56 165.19 225.19 165.42 225.00 166.00 C 224.81 166.58 224.54 166.79 224.88 168.38 C 225.21 169.96 226.35 173.90 227.00 175.50 C 227.65 177.10 228.15 176.52 228.75 178.00 C 229.35 179.48 229.98 180.48 230.62 184.38 C 231.27 188.27 232.10 195.19 232.62 201.38 C 233.15 207.56 233.60 213.65 233.75 221.50 C 233.90 229.35 233.48 243.79 233.50 248.50 C 233.52 253.21 233.67 242.98 233.88 249.75 C 234.08 256.52 234.60 279.48 234.75 289.12 C 234.90 298.77 234.50 304.44 234.75 307.62 C 235.00 310.81 231.98 308.17 236.25 308.25 C 240.52 308.33 256.25 308.23 260.38 308.12 C 264.50 308.02 260.88 308.02 261.00 307.62 C 261.12 307.23 261.12 309.15 261.12 305.75 C 261.12 302.35 260.71 297.17 261.00 287.25 C 261.29 277.33 262.50 253.23 262.88 246.25 C 263.25 239.27 263.23 248.79 263.25 245.38 C 263.27 241.96 262.92 229.62 263.00 225.75 C 263.08 221.88 263.54 225.38 263.75 222.12 C 263.96 218.88 264.04 210.15 264.25 206.25 C 264.46 202.35 264.71 200.75 265.00 198.75 C 265.29 196.75 265.38 196.15 266.00 194.25 C 266.62 192.35 268.29 189.29 268.75 187.38 C 269.21 185.46 269.08 184.15 268.75 182.75 C 268.42 181.35 267.73 180.25 266.75 179.00 C 265.77 177.75 264.85 176.71 262.88 175.25 C 260.90 173.79 257.58 171.62 254.88 170.25 C 252.17 168.88 249.69 168.02 246.62 167.00 C 243.56 165.98 239.67 164.60 236.50 164.12 C 233.33 163.65 229.38 164.00 227.62 164.12 Z" id="s-9-f-2"/>
<path d="M 227.25 164.25 C 225.33 164.56 225.38 165.12 225.00 166.00 C 224.62 166.88 224.67 167.92 225.00 169.50 C 225.33 171.08 226.38 174.08 227.00 175.50 C 227.62 176.92 228.15 176.52 228.75 178.00 C 229.35 179.48 229.98 180.48 230.62 184.38 C 231.27 188.27 232.10 195.19 232.62 201.38 C 233.15 207.56 233.60 213.65 233.75 221.50 C 233.90 229.35 233.44 242.17 233.50 248.50 C 233.56 254.83 233.69 257.58 234.12 259.50 C 234.56 261.42 231.50 259.94 236.12 260.00 C 240.75 260.06 257.48 260.00 261.88 259.88 C 266.27 259.75 262.33 261.52 262.50 259.25 C 262.67 256.98 262.75 248.56 262.88 246.25 C 263.00 243.94 263.23 248.79 263.25 245.38 C 263.27 241.96 262.92 229.67 263.00 225.75 C 263.08 221.83 263.54 225.12 263.75 221.88 C 263.96 218.62 264.04 210.12 264.25 206.25 C 264.46 202.38 264.71 200.62 265.00 198.62 C 265.29 196.62 265.38 196.12 266.00 194.25 C 266.62 192.38 268.31 189.35 268.75 187.38 C 269.19 185.40 268.96 183.77 268.62 182.38 C 268.29 180.98 267.71 180.19 266.75 179.00 C 265.79 177.81 264.85 176.71 262.88 175.25 C 260.90 173.79 257.58 171.62 254.88 170.25 C 252.17 168.88 249.69 168.02 246.62 167.00 C 243.56 165.98 239.73 164.58 236.50 164.12 C 233.27 163.67 229.17 163.94 227.25 164.25 Z" id="s-9-f-3"/>
<path d="M 226.00 164.88 C 225.40 165.21 225.17 165.23 225.00 166.00 C 224.83 166.77 224.67 167.92 225.00 169.50 C 225.33 171.08 226.35 174.00 227.00 175.50 C 227.65 177.00 228.27 177.02 228.88 178.50 C 229.48 179.98 230.00 180.56 230.62 184.38 C 231.25 188.19 232.19 196.83 232.62 201.38 C 233.06 205.92 232.73 209.85 233.25 211.62 C 233.77 213.40 230.67 212.00 235.75 212.00 C 240.83 212.00 258.88 213.83 263.75 211.62 C 268.62 209.42 264.62 201.65 265.00 198.75 C 265.38 195.85 265.42 195.98 266.00 194.25 C 266.58 192.52 268.02 189.75 268.50 188.38 C 268.98 187.00 268.85 187.00 268.88 186.00 C 268.90 185.00 269.08 183.67 268.62 182.38 C 268.17 181.08 267.29 179.62 266.12 178.25 C 264.96 176.88 263.23 175.33 261.62 174.12 C 260.02 172.92 259.00 172.19 256.50 171.00 C 254.00 169.81 249.96 168.15 246.62 167.00 C 243.29 165.85 239.50 164.62 236.50 164.12 C 233.50 163.62 230.38 163.88 228.62 164.00 C 226.88 164.12 226.60 164.54 226.00 164.88 Z" id="s-9-f-4"/>
</g>
<g id="s-10" clip-path="url(#c-s-10)">
<use href="#s-10-f-0"/>
<path d="M 152.50 359.12 C 150.81 359.42 150.58 360.17 150.00 360.62 C 149.42 361.08 149.33 361.31 149.00 361.88 C 148.67 362.44 148.19 363.23 148.00 364.00 C 147.81 364.77 147.69 365.88 147.88 366.50 C 148.06 367.12 148.40 367.27 149.12 367.75 C 149.85 368.23 150.65 367.88 152.25 369.38 C 153.85 370.88 157.21 374.69 158.75 376.75 C 160.29 378.81 160.52 379.42 161.50 381.75 C 162.48 384.08 163.44 386.31 164.62 390.75 C 165.81 395.19 167.73 403.69 168.62 408.38 C 169.52 413.06 168.94 412.42 170.00 418.88 C 171.06 425.33 173.83 441.23 175.00 447.12 C 176.17 453.02 176.50 452.94 177.00 454.25 C 177.50 455.56 174.40 454.90 178.00 455.00 C 181.60 455.10 195.12 455.08 198.62 454.88 C 202.12 454.67 198.98 456.73 199.00 453.75 C 199.02 450.77 199.50 446.92 198.75 437.00 C 198.00 427.08 195.54 403.58 194.50 394.25 C 193.46 384.92 194.62 385.94 192.50 381.00 C 190.38 376.06 183.75 367.52 181.75 364.62 C 179.75 361.73 182.56 364.40 180.50 363.62 C 178.44 362.85 172.77 360.79 169.38 360.00 C 165.98 359.21 162.94 359.02 160.12 358.88 C 157.31 358.73 154.19 358.83 152.50 359.12 Z" id="s-10-f-1"/>
<path d="M 150.00 360.62 C 149.17 361.38 148.48 362.52 148.12 363.50 C 147.77 364.48 147.71 365.79 147.88 366.50 C 148.04 367.21 148.50 367.35 149.12 367.75 C 149.75 368.15 150.58 368.08 151.62 368.88 C 152.67 369.67 154.19 371.19 155.38 372.50 C 156.56 373.81 157.85 375.46 158.75 376.75 C 159.65 378.04 159.58 377.25 160.75 380.25 C 161.92 383.25 164.52 390.38 165.75 394.75 C 166.98 399.12 167.33 404.46 168.12 406.50 C 168.92 408.54 166.02 406.94 170.50 407.00 C 174.98 407.06 190.83 407.21 195.00 406.88 C 199.17 406.54 195.85 409.17 195.50 405.00 C 195.15 400.83 195.17 388.60 192.88 381.88 C 190.58 375.15 184.02 367.77 181.75 364.62 C 179.48 361.48 181.21 363.75 179.25 363.00 C 177.29 362.25 172.62 360.77 170.00 360.12 C 167.38 359.48 166.31 359.31 163.50 359.12 C 160.69 358.94 155.38 358.75 153.12 359.00 C 150.88 359.25 150.83 359.88 150.00 360.62 Z" id="s-10-f-2"/>
</g>
<g id="s-11" clip-path="url(#c-s-11)">
<use href="#s-11-f-0"/>
<path d="M 358.88 374.88 C 358.94 374.10 359.10 373.33 358.75 372.38 C 358.40 371.42 357.73 370.29 356.75 369.12 C 355.77 367.96 354.44 366.71 352.88 365.38 C 351.31 364.04 349.65 362.71 347.38 361.12 C 345.10 359.54 341.94 357.40 339.25 355.88 C 336.56 354.35 334.08 353.27 331.25 352.00 C 328.42 350.73 324.50 349.08 322.25 348.25 C 320.00 347.42 319.35 347.19 317.75 347.00 C 316.15 346.81 314.29 346.96 312.62 347.12 C 310.96 347.29 309.44 347.56 307.75 348.00 C 306.06 348.44 305.15 349.12 302.50 349.75 C 299.85 350.38 300.40 350.75 291.88 351.75 C 283.35 352.75 259.33 355.10 251.38 355.75 C 243.42 356.40 248.31 355.15 244.12 355.62 C 239.94 356.10 233.10 357.60 226.25 358.62 C 219.40 359.65 209.69 361.00 203.00 361.75 C 196.31 362.50 189.65 362.79 186.12 363.12 C 182.60 363.46 182.79 363.54 181.88 363.75 C 180.96 363.96 178.88 361.31 180.62 364.38 C 182.38 367.44 189.94 379.23 192.38 382.12 C 194.81 385.02 194.10 382.12 195.25 381.75 C 196.40 381.38 197.00 380.48 199.25 379.88 C 201.50 379.27 202.06 379.10 208.75 378.12 C 215.44 377.15 229.54 375.04 239.38 374.00 C 249.21 372.96 259.83 372.38 267.75 371.88 C 275.67 371.38 282.44 371.15 286.88 371.00 C 291.31 370.85 291.92 370.81 294.38 371.00 C 296.83 371.19 299.83 371.58 301.62 372.12 C 303.42 372.67 304.27 373.42 305.12 374.25 C 305.98 375.08 306.65 374.83 306.75 377.12 C 306.85 379.42 306.38 383.81 305.75 388.00 C 305.12 392.19 303.42 399.58 303.00 402.25 C 302.58 404.92 297.42 403.75 303.25 404.00 C 309.08 404.25 331.50 404.92 338.00 403.75 C 344.50 402.58 340.73 399.21 342.25 397.00 C 343.77 394.79 344.69 393.38 347.12 390.50 C 349.56 387.62 355.00 382.00 356.88 379.75 C 358.75 377.50 358.04 377.81 358.38 377.00 C 358.71 376.19 358.81 375.65 358.88 374.88 Z" id="s-11-f-1"/>
<path d="M 338.00 355.38 C 336.65 354.44 332.00 352.31 329.38 351.12 C 326.75 349.94 324.19 348.94 322.25 348.25 C 320.31 347.56 319.19 347.21 317.75 347.00 C 316.31 346.79 315.29 346.83 313.62 347.00 C 311.96 347.17 310.35 347.38 307.75 348.00 C 305.15 348.62 300.65 350.12 298.00 350.75 C 295.35 351.38 299.65 350.92 291.88 351.75 C 284.10 352.58 259.33 355.10 251.38 355.75 C 243.42 356.40 248.31 355.15 244.12 355.62 C 239.94 356.10 233.10 357.60 226.25 358.62 C 219.40 359.65 209.69 361.00 203.00 361.75 C 196.31 362.50 189.65 362.79 186.12 363.12 C 182.60 363.46 182.79 363.54 181.88 363.75 C 180.96 363.96 178.88 361.31 180.62 364.38 C 182.38 367.44 189.94 379.23 192.38 382.12 C 194.81 385.02 194.19 382.10 195.25 381.75 C 196.31 381.40 194.19 380.96 198.75 380.00 C 203.31 379.04 215.85 377.00 222.62 376.00 C 229.40 375.00 232.56 374.65 239.38 374.00 C 246.19 373.35 254.73 372.67 263.50 372.12 C 272.27 371.58 279.67 373.31 292.00 370.75 C 304.33 368.19 329.83 359.31 337.50 356.75 C 345.17 354.19 339.35 356.31 338.00 355.38 Z" id="s-11-f-2"/>
<path d="M 325.00 350.62 C 324.92 348.92 325.71 349.73 324.50 349.12 C 323.29 348.52 319.56 347.35 317.75 347.00 C 315.94 346.65 315.29 346.83 313.62 347.00 C 311.96 347.17 310.35 347.38 307.75 348.00 C 305.15 348.62 300.65 350.12 298.00 350.75 C 295.35 351.38 299.65 350.92 291.88 351.75 C 284.10 352.58 259.33 355.10 251.38 355.75 C 243.42 356.40 248.31 355.15 244.12 355.62 C 239.94 356.10 233.10 357.60 226.25 358.62 C 219.40 359.65 209.69 361.00 203.00 361.75 C 196.31 362.50 189.65 362.79 186.12 363.12 C 182.60 363.46 182.79 363.54 181.88 363.75 C 180.96 363.96 178.88 361.31 180.62 364.38 C 182.38 367.44 189.94 379.23 192.38 382.12 C 194.81 385.02 194.19 382.10 195.25 381.75 C 196.31 381.40 194.19 380.96 198.75 380.00 C 203.31 379.04 215.85 377.00 222.62 376.00 C 229.40 375.00 232.56 374.65 239.38 374.00 C 246.19 373.35 254.73 372.67 263.50 372.12 C 272.27 371.58 281.85 372.65 292.00 370.75 C 302.15 368.85 318.88 362.65 324.38 360.75 C 329.88 358.85 324.90 361.06 325.00 359.38 C 325.10 357.69 325.08 352.33 325.00 350.62 Z" id="s-11-f-3"/>
<path d="M 277.00 354.75 C 276.94 352.02 276.88 353.52 276.62 353.25 C 276.38 352.98 279.71 352.71 275.50 353.12 C 271.29 353.54 256.60 355.33 251.38 355.75 C 246.15 356.17 248.31 355.15 244.12 355.62 C 239.94 356.10 233.10 357.60 226.25 358.62 C 219.40 359.65 209.69 361.00 203.00 361.75 C 196.31 362.50 189.65 362.79 186.12 363.12 C 182.60 363.46 182.79 363.54 181.88 363.75 C 180.96 363.96 178.88 361.31 180.62 364.38 C 182.38 367.44 189.92 379.23 192.38 382.12 C 194.83 385.02 194.23 382.12 195.38 381.75 C 196.52 381.38 194.71 380.83 199.25 379.88 C 203.79 378.92 213.96 377.15 222.62 376.00 C 231.29 374.85 242.29 373.75 251.25 373.00 C 260.21 372.25 272.08 372.06 276.38 371.50 C 280.67 370.94 276.90 372.42 277.00 369.62 C 277.10 366.83 277.06 357.48 277.00 354.75 Z" id="s-11-f-4"/>
<path d="M 228.88 374.88 C 229.02 372.23 229.02 362.33 229.00 359.62 C 228.98 356.92 228.92 358.88 228.75 358.62 C 228.58 358.38 232.29 357.60 228.00 358.12 C 223.71 358.65 209.98 360.92 203.00 361.75 C 196.02 362.58 189.65 362.79 186.12 363.12 C 182.60 363.46 182.79 363.54 181.88 363.75 C 180.96 363.96 178.88 361.31 180.62 364.38 C 182.38 367.44 189.92 379.23 192.38 382.12 C 194.83 385.02 194.23 382.12 195.38 381.75 C 196.52 381.38 195.83 380.67 199.25 379.88 C 202.67 379.08 211.06 377.73 215.88 377.00 C 220.69 376.27 225.96 375.85 228.12 375.50 C 230.29 375.15 228.73 377.52 228.88 374.88 Z" id="s-11-f-5"/>
</g>
<g id="s-12" clip-path="url(#c-s-12)">
<use href="#s-12-f-0"/>
<path d="M 294.88 430.75 C 294.67 427.54 297.69 429.77 293.75 430.25 C 289.81 430.73 279.67 432.54 271.25 433.62 C 262.83 434.71 255.31 435.71 243.25 436.75 C 231.19 437.79 206.33 439.27 198.88 439.88 C 191.42 440.48 198.56 437.50 198.50 440.38 C 198.44 443.25 198.40 454.25 198.50 457.12 C 198.60 460.00 198.60 457.50 199.12 457.62 C 199.65 457.75 198.06 457.88 201.62 457.88 C 205.19 457.88 214.83 457.81 220.50 457.62 C 226.17 457.44 223.33 457.75 235.62 456.75 C 247.92 455.75 284.38 452.58 294.25 451.62 C 304.12 450.67 294.75 451.35 294.88 451.00 C 295.00 450.65 295.00 452.88 295.00 449.50 C 295.00 446.12 295.08 433.96 294.88 430.75 Z" id="s-12-f-1"/>
<path d="M 246.88 436.75 C 246.58 433.83 249.96 436.04 245.25 436.38 C 240.54 436.71 226.35 438.17 218.62 438.75 C 210.90 439.33 202.23 439.60 198.88 439.88 C 195.52 440.15 198.54 437.44 198.50 440.38 C 198.46 443.31 198.10 454.58 198.62 457.50 C 199.15 460.42 198.21 457.83 201.62 457.88 C 205.04 457.92 211.65 458.12 219.12 457.75 C 226.60 457.38 241.85 456.27 246.50 455.62 C 251.15 454.98 246.94 457.02 247.00 453.88 C 247.06 450.73 247.17 439.67 246.88 436.75 Z" id="s-12-f-2"/>
</g>
</svg>