<?xml version="1.0" encoding="UTF-8"?>
<svg xmlns="http://www.w3.org/2000/svg" viewBox="0 0 500 500">
<defs>
<path d="M 257.50 47.75 C 256.94 48.27 256.23 49.17 256.00 50.00 C 255.77 50.83 254.29 49.19 256.12 52.75 C 257.96 56.31 263.73 65.96 267.00 71.38 C 270.27 76.79 273.23 81.46 275.75 85.25 C 278.27 89.04 279.50 90.88 282.12 94.12 C 284.75 97.38 289.69 102.94 291.50 104.75 C 293.31 106.56 289.60 105.65 293.00 105.00 C 296.40 104.35 308.44 102.06 311.88 100.88 C 315.31 99.69 313.15 99.19 313.62 97.88 C 314.10 96.56 314.54 95.10 314.75 93.00 C 314.96 90.90 315.04 87.79 314.88 85.25 C 314.71 82.71 314.29 79.90 313.75 77.75 C 313.21 75.60 312.27 73.77 311.62 72.38 C 310.98 70.98 310.92 70.75 309.88 69.38 C 308.83 68.00 307.15 65.69 305.38 64.12 C 303.60 62.56 301.21 61.19 299.25 60.00 C 297.29 58.81 296.12 58.17 293.62 57.00 C 291.12 55.83 287.62 54.31 284.25 53.00 C 280.88 51.69 276.69 50.12 273.38 49.12 C 270.06 48.12 266.71 47.38 264.38 47.00 C 262.04 46.62 260.52 46.75 259.38 46.88 C 258.23 47.00 258.06 47.23 257.50 47.75 Z" id="s-0-f-0"/>
<clipPath id="c-s-0"><use href="#s-0-f-0"/></clipPath>
<path d="M 415.88 109.00 C 415.75 108.19 415.56 107.50 414.88 106.50 C 414.19 105.50 413.21 104.29 411.75 103.00 C 410.29 101.71 408.33 100.25 406.12 98.75 C 403.92 97.25 402.33 95.77 398.50 94.00 C 394.67 92.23 386.58 89.12 383.12 88.12 C 379.67 87.12 381.35 87.50 377.75 88.00 C 374.15 88.50 366.54 90.00 361.50 91.12 C 356.46 92.25 355.50 93.17 347.50 94.75 C 339.50 96.33 319.88 99.65 313.50 100.62 C 307.12 101.60 311.94 100.17 309.25 100.62 C 306.56 101.08 299.90 102.88 297.38 103.38 C 294.85 103.88 295.15 103.38 294.12 103.62 C 293.10 103.88 303.71 102.71 291.25 104.88 C 278.79 107.04 243.65 112.94 219.38 116.62 C 195.10 120.31 158.94 124.94 145.62 127.00 C 132.31 129.06 140.75 128.48 139.50 129.00 C 138.25 129.52 138.40 129.67 138.12 130.12 C 137.85 130.58 137.69 131.02 137.88 131.75 C 138.06 132.48 138.31 133.48 139.25 134.50 C 140.19 135.52 140.98 136.48 143.50 137.88 C 146.02 139.27 151.21 142.04 154.38 142.88 C 157.54 143.71 155.10 143.19 162.50 142.88 C 169.90 142.56 184.25 142.98 198.75 141.00 C 213.25 139.02 236.88 133.31 249.50 131.00 C 262.12 128.69 264.90 128.46 274.50 127.12 C 284.10 125.79 293.27 124.52 307.12 123.00 C 320.98 121.48 341.33 119.23 357.62 118.00 C 373.92 116.77 395.67 116.33 404.88 115.62 C 414.08 114.92 411.08 114.46 412.88 113.75 C 414.67 113.04 415.12 112.17 415.62 111.38 C 416.12 110.58 416.00 109.81 415.88 109.00 Z" id="s-1-f-0"/>
<clipPath id="c-s-1"><use href="#s-1-f-0"/></clipPath>
<path d="M 198.38 140.50 C 196.00 139.88 189.85 140.46 186.50 140.62 C 183.15 140.79 181.92 141.33 178.25 141.50 C 174.58 141.67 168.38 141.42 164.50 141.62 C 160.62 141.83 156.58 142.42 155.00 142.75 C 153.42 143.08 154.56 142.69 155.00 143.62 C 155.44 144.56 156.85 146.62 157.62 148.38 C 158.40 150.12 158.96 151.31 159.62 154.12 C 160.29 156.94 161.27 160.69 161.62 165.25 C 161.98 169.81 161.90 175.27 161.75 181.50 C 161.60 187.73 161.29 194.92 160.75 202.62 C 160.21 210.33 159.50 219.12 158.50 227.75 C 157.50 236.38 156.21 245.58 154.75 254.38 C 153.29 263.17 151.75 271.69 149.75 280.50 C 147.75 289.31 144.75 300.29 142.75 307.25 C 140.75 314.21 139.77 316.71 137.75 322.25 C 135.73 327.79 133.15 334.54 130.62 340.50 C 128.10 346.46 125.44 352.21 122.62 358.00 C 119.81 363.79 118.23 367.35 113.75 375.25 C 109.27 383.15 101.27 396.83 95.75 405.38 C 90.23 413.92 85.92 419.67 80.62 426.50 C 75.33 433.33 66.96 442.77 64.00 446.38 C 61.04 449.98 63.06 447.62 62.88 448.12 C 62.69 448.62 62.79 449.08 62.88 449.38 C 62.96 449.67 62.69 449.81 63.38 449.88 C 64.06 449.94 65.75 449.96 67.00 449.75 C 68.25 449.54 67.69 450.54 70.88 448.62 C 74.06 446.71 80.85 442.23 86.12 438.25 C 91.40 434.27 96.90 429.92 102.50 424.75 C 108.10 419.58 114.88 412.50 119.75 407.25 C 124.62 402.00 129.08 396.65 131.75 393.25 C 134.42 389.85 133.44 390.90 135.75 386.88 C 138.06 382.85 142.46 375.31 145.62 369.12 C 148.79 362.94 151.90 356.29 154.75 349.75 C 157.60 343.21 160.08 337.17 162.75 329.88 C 165.42 322.58 168.27 314.02 170.75 306.00 C 173.23 297.98 175.48 290.10 177.62 281.75 C 179.77 273.40 181.46 266.52 183.62 255.88 C 185.79 245.23 188.77 229.06 190.62 217.88 C 192.48 206.69 193.52 198.50 194.75 188.75 C 195.98 179.00 196.98 166.29 198.00 159.38 C 199.02 152.46 200.42 149.75 200.88 147.25 C 201.33 144.75 201.17 145.50 200.75 144.38 C 200.33 143.25 200.75 141.12 198.38 140.50 Z" id="s-2-f-0"/>
<clipPath id="c-s-2"><use href="#s-2-f-0"/></clipPath>
<path d="M 65.00 168.12 C 64.67 169.04 64.48 170.12 65.12 171.50 C 65.77 172.88 66.88 173.46 68.88 176.38 C 70.88 179.29 73.42 183.83 77.12 189.00 C 80.83 194.17 87.10 202.58 91.12 207.38 C 95.15 212.17 98.73 215.33 101.25 217.75 C 103.77 220.17 104.85 220.88 106.25 221.88 C 107.65 222.88 108.54 223.27 109.62 223.75 C 110.71 224.23 111.19 224.60 112.75 224.75 C 114.31 224.90 117.44 224.81 119.00 224.62 C 120.56 224.44 121.19 224.12 122.12 223.62 C 123.06 223.12 123.85 222.44 124.62 221.62 C 125.40 220.81 126.10 220.15 126.75 218.75 C 127.40 217.35 128.17 216.08 128.50 213.25 C 128.83 210.42 129.04 205.02 128.75 201.75 C 128.46 198.48 127.56 195.85 126.75 193.62 C 125.94 191.40 125.08 190.10 123.88 188.38 C 122.67 186.65 121.42 184.81 119.50 183.25 C 117.58 181.69 114.77 180.21 112.38 179.00 C 109.98 177.79 107.77 177.00 105.12 176.00 C 102.48 175.00 99.92 174.04 96.50 173.00 C 93.08 171.96 87.71 170.73 84.62 169.75 C 81.54 168.77 79.94 167.75 78.00 167.12 C 76.06 166.50 74.29 166.21 73.00 166.00 C 71.71 165.79 71.23 165.88 70.25 165.88 C 69.27 165.88 68.00 165.62 67.12 166.00 C 66.25 166.38 65.33 167.21 65.00 168.12 Z" id="s-3-f-0"/>
<clipPath id="c-s-3"><use href="#s-3-f-0"/></clipPath>
<path d="M 142.50 249.75 C 142.15 248.73 141.21 248.29 140.50 248.00 C 139.79 247.71 140.44 246.83 138.25 248.00 C 136.06 249.17 135.92 248.90 127.38 255.00 C 118.83 261.10 97.00 277.50 87.00 284.62 C 77.00 291.75 73.10 294.06 67.38 297.75 C 61.65 301.44 55.90 304.92 52.62 306.75 C 49.35 308.58 49.46 308.19 47.75 308.75 C 46.04 309.31 43.52 309.56 42.38 310.12 C 41.23 310.69 41.10 311.31 40.88 312.12 C 40.65 312.94 40.50 313.62 41.00 315.00 C 41.50 316.38 42.23 318.19 43.88 320.38 C 45.52 322.56 48.10 325.73 50.88 328.12 C 53.65 330.52 57.56 333.00 60.50 334.75 C 63.44 336.50 66.48 337.79 68.50 338.62 C 70.52 339.46 71.21 339.58 72.62 339.75 C 74.04 339.92 75.96 339.94 77.00 339.62 C 78.04 339.31 78.35 338.56 78.88 337.88 C 79.40 337.19 75.23 342.08 80.12 335.50 C 85.02 328.92 101.29 307.25 108.25 298.38 C 115.21 289.50 117.29 287.96 121.88 282.25 C 126.46 276.54 132.29 268.81 135.75 264.12 C 139.21 259.44 141.50 256.52 142.62 254.12 C 143.75 251.73 142.85 250.77 142.50 249.75 Z" id="s-4-f-0"/>
<clipPath id="c-s-4"><use href="#s-4-f-0"/></clipPath>
<path d="M 456.75 237.50 C 456.54 236.62 456.35 236.17 455.50 235.12 C 454.65 234.08 453.29 232.60 451.62 231.25 C 449.96 229.90 447.69 228.38 445.50 227.00 C 443.31 225.62 442.35 224.65 438.50 223.00 C 434.65 221.35 426.08 218.12 422.38 217.12 C 418.67 216.12 418.42 216.83 416.25 217.00 C 414.08 217.17 414.54 217.00 409.38 218.12 C 404.21 219.25 392.73 222.27 385.25 223.75 C 377.77 225.23 375.75 225.00 364.50 227.00 C 353.25 229.00 337.33 232.44 317.75 235.75 C 298.17 239.06 265.06 244.17 247.00 246.88 C 228.94 249.58 216.75 250.81 209.38 252.00 C 202.00 253.19 204.15 253.46 202.75 254.00 C 201.35 254.54 201.31 254.77 201.00 255.25 C 200.69 255.73 200.69 256.17 200.88 256.88 C 201.06 257.58 201.52 258.67 202.12 259.50 C 202.73 260.33 203.35 261.02 204.50 261.88 C 205.65 262.73 207.23 263.77 209.00 264.62 C 210.77 265.48 213.31 266.17 215.12 267.00 C 216.94 267.83 217.60 268.67 219.88 269.62 C 222.15 270.58 226.46 272.06 228.75 272.75 C 231.04 273.44 231.79 273.56 233.62 273.75 C 235.46 273.94 233.12 275.15 239.75 273.88 C 246.38 272.60 263.54 268.27 273.38 266.12 C 283.21 263.98 288.19 262.88 298.75 261.00 C 309.31 259.12 329.29 256.02 336.75 254.88 C 344.21 253.73 340.54 254.29 343.50 254.12 C 346.46 253.96 347.67 254.56 354.50 253.88 C 361.33 253.19 375.98 250.98 384.50 250.00 C 393.02 249.02 395.12 248.73 405.62 248.00 C 416.12 247.27 439.71 246.23 447.50 245.62 C 455.29 245.02 451.08 244.88 452.38 244.38 C 453.67 243.88 454.52 243.29 455.25 242.62 C 455.98 241.96 456.50 241.23 456.75 240.38 C 457.00 239.52 456.96 238.38 456.75 237.50 Z" id="s-5-f-0"/>
<clipPath id="c-s-5"><use href="#s-5-f-0"/></clipPath>
<path d="M 346.75 158.88 C 345.50 158.92 344.96 158.81 344.00 159.25 C 343.04 159.69 341.67 160.79 341.00 161.50 C 340.33 162.21 340.19 162.69 340.00 163.50 C 339.81 164.31 339.35 163.67 339.88 166.38 C 340.40 169.08 342.15 176.19 343.12 179.75 C 344.10 183.31 345.00 184.96 345.75 187.75 C 346.50 190.54 346.96 192.19 347.62 196.50 C 348.29 200.81 349.35 209.25 349.75 213.62 C 350.15 218.00 349.83 220.31 350.00 222.75 C 350.17 225.19 350.67 223.29 350.75 228.25 C 350.83 233.21 350.33 244.38 350.50 252.50 C 350.67 260.62 351.65 261.19 351.75 277.00 C 351.85 292.81 351.44 331.25 351.12 347.38 C 350.81 363.50 350.27 367.33 349.88 373.75 C 349.48 380.17 349.10 382.92 348.75 385.88 C 348.40 388.83 348.27 389.50 347.75 391.50 C 347.23 393.50 346.25 396.48 345.62 397.88 C 345.00 399.27 344.54 399.40 344.00 399.88 C 343.46 400.35 343.06 400.62 342.38 400.75 C 341.69 400.88 341.71 400.96 339.88 400.62 C 338.04 400.29 337.00 400.33 331.38 398.75 C 325.75 397.17 311.06 392.42 306.12 391.12 C 301.19 389.83 302.60 390.90 301.75 391.00 C 300.90 391.10 301.12 391.46 301.00 391.75 C 300.88 392.04 295.71 386.31 301.00 392.75 C 306.29 399.19 326.17 422.44 332.75 430.38 C 339.33 438.31 338.58 437.65 340.50 440.38 C 342.42 443.10 343.15 445.19 344.25 446.75 C 345.35 448.31 345.96 448.92 347.12 449.75 C 348.29 450.58 349.98 451.40 351.25 451.75 C 352.52 452.10 353.67 452.02 354.75 451.88 C 355.83 451.73 356.75 451.38 357.75 450.88 C 358.75 450.38 359.40 450.04 360.75 448.88 C 362.10 447.71 364.21 445.71 365.88 443.88 C 367.54 442.04 369.44 439.75 370.75 437.88 C 372.06 436.00 372.94 434.25 373.75 432.62 C 374.56 431.00 374.98 430.04 375.62 428.12 C 376.27 426.21 377.12 423.29 377.62 421.12 C 378.12 418.96 378.44 421.33 378.62 415.12 C 378.81 408.92 378.88 391.83 378.75 383.88 C 378.62 375.92 378.17 376.27 377.88 367.38 C 377.58 358.48 377.17 349.83 377.00 330.50 C 376.83 311.17 376.71 265.17 376.88 251.38 C 377.04 237.58 377.79 249.96 378.00 247.75 C 378.21 245.54 377.96 240.29 378.12 238.12 C 378.29 235.96 378.85 237.75 379.00 234.75 C 379.15 231.75 378.83 224.19 379.00 220.12 C 379.17 216.06 379.21 214.71 380.00 210.38 C 380.79 206.04 382.96 197.94 383.75 194.12 C 384.54 190.31 384.56 189.67 384.75 187.50 C 384.94 185.33 385.06 182.75 384.88 181.12 C 384.69 179.50 384.15 178.71 383.62 177.75 C 383.10 176.79 382.81 176.46 381.75 175.38 C 380.69 174.29 379.19 172.77 377.25 171.25 C 375.31 169.73 372.38 167.62 370.12 166.25 C 367.88 164.88 366.06 164.02 363.75 163.00 C 361.44 161.98 358.29 160.79 356.25 160.12 C 354.21 159.46 353.08 159.21 351.50 159.00 C 349.92 158.79 348.00 158.83 346.75 158.88 Z" id="s-6-f-0"/>
<clipPath id="c-s-6"><use href="#s-6-f-0"/></clipPath>
<path d="M 233.00 303.12 C 232.65 304.04 232.50 304.79 233.00 306.50 C 233.50 308.21 232.88 307.79 236.00 313.38 C 239.12 318.96 247.96 333.90 251.75 340.00 C 255.54 346.10 256.56 347.15 258.75 350.00 C 260.94 352.85 263.27 355.35 264.88 357.12 C 266.48 358.90 266.94 359.52 268.38 360.62 C 269.81 361.73 271.52 363.25 273.50 363.75 C 275.48 364.25 278.67 363.79 280.25 363.62 C 281.83 363.46 281.92 363.27 283.00 362.75 C 284.08 362.23 285.62 361.46 286.75 360.50 C 287.88 359.54 288.92 358.38 289.75 357.00 C 290.58 355.62 291.25 353.83 291.75 352.25 C 292.25 350.67 292.56 349.92 292.75 347.50 C 292.94 345.08 293.06 340.54 292.88 337.75 C 292.69 334.96 292.15 332.77 291.62 330.75 C 291.10 328.73 290.71 327.44 289.75 325.62 C 288.79 323.81 286.96 321.27 285.88 319.88 C 284.79 318.48 284.48 318.23 283.25 317.25 C 282.02 316.27 280.65 315.21 278.50 314.00 C 276.35 312.79 273.00 311.17 270.38 310.00 C 267.75 308.83 267.23 308.44 262.75 307.00 C 258.27 305.56 248.10 302.38 243.50 301.38 C 238.90 300.38 236.88 300.71 235.12 301.00 C 233.38 301.29 233.35 302.21 233.00 303.12 Z" id="s-7-f-0"/>
<clipPath id="c-s-7"><use href="#s-7-f-0"/></clipPath>
</defs>
<g id="s-0" clip-path="url(#c-s-0)">
<use href="#s-0-f-0"/>
<path d="M 256.75 48.62 C 256.33 49.12 256.12 49.38 256.00 50.00 C 255.88 50.62 253.35 47.50 256.00 52.38 C 258.65 57.25 267.44 72.21 271.88 79.25 C 276.31 86.29 280.44 92.00 282.62 94.62 C 284.81 97.25 280.12 94.94 285.00 95.00 C 289.88 95.06 306.98 95.10 311.88 95.00 C 316.77 94.90 313.88 96.00 314.38 94.38 C 314.88 92.75 314.98 88.02 314.88 85.25 C 314.77 82.48 314.10 79.50 313.75 77.75 C 313.40 76.00 313.40 76.15 312.75 74.75 C 312.10 73.35 311.10 71.15 309.88 69.38 C 308.65 67.60 307.15 65.69 305.38 64.12 C 303.60 62.56 301.21 61.19 299.25 60.00 C 297.29 58.81 296.12 58.17 293.62 57.00 C 291.12 55.83 287.69 54.33 284.25 53.00 C 280.81 51.67 275.96 49.94 273.00 49.00 C 270.04 48.06 268.38 47.73 266.50 47.38 C 264.62 47.02 263.08 46.94 261.75 46.88 C 260.42 46.81 259.33 46.71 258.50 47.00 C 257.67 47.29 257.17 48.12 256.75 48.62 Z" id="s-0-f-1"/>
</g>
<g id="s-1" clip-path="url(#c-s-1)">
<use href="#s-1-f-0"/>
<path d="M 377.88 88.50 C 377.69 84.04 378.06 87.90 376.88 88.00 C 375.69 88.10 375.65 88.00 370.75 89.12 C 365.85 90.25 357.04 92.83 347.50 94.75 C 337.96 96.67 319.88 99.65 313.50 100.62 C 307.12 101.60 311.94 100.17 309.25 100.62 C 306.56 101.08 299.90 102.88 297.38 103.38 C 294.85 103.88 295.15 103.38 294.12 103.62 C 293.10 103.88 296.44 103.85 291.25 104.88 C 286.06 105.90 274.98 107.79 263.00 109.75 C 251.02 111.71 238.94 113.75 219.38 116.62 C 199.81 119.50 158.94 124.94 145.62 127.00 C 132.31 129.06 140.75 128.48 139.50 129.00 C 138.25 129.52 138.40 129.67 138.12 130.12 C 137.85 130.58 137.69 131.02 137.88 131.75 C 138.06 132.48 138.31 133.48 139.25 134.50 C 140.19 135.52 140.98 136.48 143.50 137.88 C 146.02 139.27 151.21 142.04 154.38 142.88 C 157.54 143.71 155.40 143.17 162.50 142.88 C 169.60 142.58 190.54 141.50 197.00 141.12 C 203.46 140.75 197.81 141.31 201.25 140.62 C 204.69 139.94 209.58 138.60 217.62 137.00 C 225.67 135.40 240.02 132.65 249.50 131.00 C 258.98 129.35 262.19 128.77 274.50 127.12 C 286.81 125.48 309.52 122.65 323.38 121.12 C 337.23 119.60 348.67 118.71 357.62 118.00 C 366.58 117.29 373.75 117.15 377.12 116.88 C 380.50 116.60 377.73 116.73 377.88 116.38 C 378.02 116.02 378.00 119.40 378.00 114.75 C 378.00 110.10 378.06 92.96 377.88 88.50 Z" id="s-1-f-1"/>
<path d="M 330.00 98.38 C 329.71 94.92 330.88 97.62 328.12 98.00 C 325.38 98.38 316.65 100.19 313.50 100.62 C 310.35 101.06 311.94 100.17 309.25 100.62 C 306.56 101.08 299.90 102.88 297.38 103.38 C 294.85 103.88 295.15 103.38 294.12 103.62 C 293.10 103.88 303.71 102.71 291.25 104.88 C 278.79 107.04 243.75 112.92 219.38 116.62 C 195.00 120.33 158.31 125.06 145.00 127.12 C 131.69 129.19 140.65 128.50 139.50 129.00 C 138.35 129.50 138.40 129.67 138.12 130.12 C 137.85 130.58 137.69 131.02 137.88 131.75 C 138.06 132.48 138.31 133.48 139.25 134.50 C 140.19 135.52 140.98 136.48 143.50 137.88 C 146.02 139.27 147.17 142.23 154.38 142.88 C 161.58 143.52 178.94 142.12 186.75 141.75 C 194.56 141.38 193.65 141.90 201.25 140.62 C 208.85 139.35 221.19 136.23 232.38 134.12 C 243.56 132.02 252.27 130.25 268.38 128.00 C 284.48 125.75 318.79 121.94 329.00 120.62 C 339.21 119.31 329.48 120.44 329.62 120.12 C 329.77 119.81 329.81 122.38 329.88 118.75 C 329.94 115.12 330.29 101.83 330.00 98.38 Z" id="s-1-f-2"/>
<path d="M 281.88 107.12 C 281.77 104.15 291.79 105.04 281.38 106.62 C 270.96 108.21 242.10 113.21 219.38 116.62 C 196.65 120.04 158.31 125.06 145.00 127.12 C 131.69 129.19 140.65 128.50 139.50 129.00 C 138.35 129.50 138.40 129.67 138.12 130.12 C 137.85 130.58 137.69 131.02 137.88 131.75 C 138.06 132.48 138.31 133.48 139.25 134.50 C 140.19 135.52 140.98 136.48 143.50 137.88 C 146.02 139.27 147.56 142.21 154.38 142.88 C 161.19 143.54 176.56 142.25 184.38 141.88 C 192.19 141.50 195.71 141.44 201.25 140.62 C 206.79 139.81 209.58 138.60 217.62 137.00 C 225.67 135.40 238.88 132.77 249.50 131.00 C 260.12 129.23 275.98 127.23 281.38 126.38 C 286.77 125.52 281.77 126.19 281.88 125.88 C 281.98 125.56 282.00 127.62 282.00 124.50 C 282.00 121.38 281.98 110.10 281.88 107.12 Z" id="s-1-f-3"/>
<path d="M 233.88 114.75 C 233.71 112.44 237.69 113.60 233.00 114.25 C 228.31 114.90 220.31 116.50 205.75 118.62 C 191.19 120.75 156.67 125.27 145.62 127.00 C 134.58 128.73 140.75 128.48 139.50 129.00 C 138.25 129.52 138.40 129.67 138.12 130.12 C 137.85 130.58 137.69 131.02 137.88 131.75 C 138.06 132.48 138.31 133.48 139.25 134.50 C 140.19 135.52 140.98 136.48 143.50 137.88 C 146.02 139.27 147.56 142.21 154.38 142.88 C 161.19 143.54 176.56 142.25 184.38 141.88 C 192.19 141.50 193.06 141.94 201.25 140.62 C 209.44 139.31 228.04 136.08 233.50 134.00 C 238.96 131.92 233.94 131.33 234.00 128.12 C 234.06 124.92 234.04 117.06 233.88 114.75 Z" id="s-1-f-4"/>
<path d="M 185.88 121.88 C 185.67 118.83 191.56 120.62 184.75 121.50 C 177.94 122.38 152.54 125.88 145.00 127.12 C 137.46 128.38 140.67 128.46 139.50 129.00 C 138.33 129.54 138.25 129.81 138.00 130.38 C 137.75 130.94 137.79 131.69 138.00 132.38 C 138.21 133.06 138.33 133.58 139.25 134.50 C 140.17 135.42 140.98 136.48 143.50 137.88 C 146.02 139.27 147.44 142.23 154.38 142.88 C 161.31 143.52 179.88 142.02 185.12 141.75 C 190.38 141.48 185.73 141.58 185.88 141.25 C 186.02 140.92 186.00 142.98 186.00 139.75 C 186.00 136.52 186.08 124.92 185.88 121.88 Z" id="s-1-f-5"/>
</g>
<g id="s-2" clip-path="url(#c-s-2)">
<use href="#s-2-f-0"/>
<path d="M 198.38 140.50 C 196.00 139.88 189.85 140.46 186.50 140.62 C 183.15 140.79 181.92 141.33 178.25 141.50 C 174.58 141.67 168.38 141.42 164.50 141.62 C 160.62 141.83 156.58 142.42 155.00 142.75 C 153.42 143.08 154.56 142.69 155.00 143.62 C 155.44 144.56 156.85 146.62 157.62 148.38 C 158.40 150.12 158.96 151.31 159.62 154.12 C 160.29 156.94 161.27 160.69 161.62 165.25 C 161.98 169.81 161.88 175.58 161.75 181.50 C 161.62 187.42 161.42 193.04 160.88 200.75 C 160.33 208.46 159.52 218.81 158.50 227.75 C 157.48 236.69 156.21 245.58 154.75 254.38 C 153.29 263.17 151.25 273.44 149.75 280.50 C 148.25 287.56 146.92 292.29 145.75 296.75 C 144.58 301.21 144.40 302.15 142.75 307.25 C 141.10 312.35 138.40 320.67 135.88 327.38 C 133.35 334.08 130.31 341.42 127.62 347.50 C 124.94 353.58 122.23 358.96 119.75 363.88 C 117.27 368.79 116.62 370.27 112.75 377.00 C 108.88 383.73 102.10 395.65 96.50 404.25 C 90.90 412.85 79.00 424.50 79.12 428.62 C 79.25 432.75 92.83 430.15 97.25 429.00 C 101.67 427.85 101.88 425.38 105.62 421.75 C 109.38 418.12 115.40 412.00 119.75 407.25 C 124.10 402.50 128.73 397.23 131.75 393.25 C 134.77 389.27 135.23 388.06 137.88 383.38 C 140.52 378.69 144.15 372.31 147.62 365.12 C 151.10 357.94 155.58 347.96 158.75 340.25 C 161.92 332.54 164.00 326.71 166.62 318.88 C 169.25 311.04 172.17 301.48 174.50 293.25 C 176.83 285.02 178.92 276.67 180.62 269.50 C 182.33 262.33 183.40 257.02 184.75 250.25 C 186.10 243.48 187.44 236.50 188.75 228.88 C 190.06 221.25 191.08 216.08 192.62 204.50 C 194.17 192.92 196.62 168.92 198.00 159.38 C 199.38 149.83 200.42 149.75 200.88 147.25 C 201.33 144.75 201.17 145.50 200.75 144.38 C 200.33 143.25 200.75 141.12 198.38 140.50 Z" id="s-2-f-1"/>
<path d="M 198.38 140.50 C 196.00 139.88 189.85 140.46 186.50 140.62 C 183.15 140.79 181.92 141.33 178.25 141.50 C 174.58 141.67 168.38 141.42 164.50 141.62 C 160.62 141.83 156.58 142.42 155.00 142.75 C 153.42 143.08 154.42 142.29 155.00 143.62 C 155.58 144.96 157.54 148.19 158.50 150.75 C 159.46 153.31 160.21 156.33 160.75 159.00 C 161.29 161.67 161.58 163.00 161.75 166.75 C 161.92 170.50 161.92 175.52 161.75 181.50 C 161.58 187.48 161.23 195.48 160.75 202.62 C 160.27 209.77 159.54 217.94 158.88 224.38 C 158.21 230.81 157.77 234.35 156.75 241.25 C 155.73 248.15 153.92 259.21 152.75 265.75 C 151.58 272.29 150.92 275.33 149.75 280.50 C 148.58 285.67 147.75 289.79 145.75 296.75 C 143.75 303.71 140.94 313.42 137.75 322.25 C 134.56 331.08 130.12 341.85 126.62 349.75 C 123.12 357.65 119.38 364.62 116.75 369.62 C 114.12 374.62 111.85 377.94 110.88 379.75 C 109.90 381.56 107.67 380.29 110.88 380.50 C 114.08 380.71 125.44 380.96 130.12 381.00 C 134.81 381.04 137.06 381.52 139.00 380.75 C 140.94 379.98 140.00 379.62 141.75 376.38 C 143.50 373.12 147.02 366.42 149.50 361.25 C 151.98 356.08 154.42 350.60 156.62 345.38 C 158.83 340.15 160.90 334.85 162.75 329.88 C 164.60 324.90 165.60 322.27 167.75 315.50 C 169.90 308.73 173.48 296.92 175.62 289.25 C 177.77 281.58 178.77 277.69 180.62 269.50 C 182.48 261.31 184.75 250.96 186.75 240.12 C 188.75 229.29 190.75 217.96 192.62 204.50 C 194.50 191.04 196.62 168.92 198.00 159.38 C 199.38 149.83 200.42 149.75 200.88 147.25 C 201.33 144.75 201.17 145.50 200.75 144.38 C 200.33 143.25 200.75 141.12 198.38 140.50 Z" id="s-2-f-2"/>
<path d="M 198.38 140.50 C 196.00 139.88 189.85 140.46 186.50 140.62 C 183.15 140.79 181.92 141.33 178.25 141.50 C 174.58 141.67 168.38 141.42 164.50 141.62 C 160.62 141.83 156.58 142.42 155.00 142.75 C 153.42 143.08 154.56 142.69 155.00 143.62 C 155.44 144.56 156.85 146.62 157.62 148.38 C 158.40 150.12 158.94 151.06 159.62 154.12 C 160.31 157.19 161.40 162.19 161.75 166.75 C 162.10 171.31 161.90 175.85 161.75 181.50 C 161.60 187.15 161.35 193.48 160.88 200.62 C 160.40 207.77 159.90 215.42 158.88 224.38 C 157.85 233.33 156.27 245.02 154.75 254.38 C 153.23 263.73 151.75 271.69 149.75 280.50 C 147.75 289.31 144.75 300.29 142.75 307.25 C 140.75 314.21 139.23 318.17 137.75 322.25 C 136.27 326.33 134.50 330.04 133.88 331.75 C 133.25 333.46 132.65 332.29 134.00 332.50 C 135.35 332.71 137.46 332.94 142.00 333.00 C 146.54 333.06 157.79 333.40 161.25 332.88 C 164.71 332.35 161.02 334.83 162.75 329.88 C 164.48 324.92 169.15 311.15 171.62 303.12 C 174.10 295.10 175.79 288.85 177.62 281.75 C 179.46 274.65 181.10 267.44 182.62 260.50 C 184.15 253.56 185.08 249.46 186.75 240.12 C 188.42 230.79 190.75 217.96 192.62 204.50 C 194.50 191.04 196.62 168.90 198.00 159.38 C 199.38 149.85 200.42 149.88 200.88 147.38 C 201.33 144.88 201.17 145.52 200.75 144.38 C 200.33 143.23 200.75 141.12 198.38 140.50 Z" id="s-2-f-3"/>
<path d="M 198.38 140.50 C 196.00 139.88 189.85 140.46 186.50 140.62 C 183.15 140.79 181.92 141.33 178.25 141.50 C 174.58 141.67 168.38 141.42 164.50 141.62 C 160.62 141.83 156.58 142.42 155.00 142.75 C 153.42 143.08 154.42 142.29 155.00 143.62 C 155.58 144.96 157.54 148.19 158.50 150.75 C 159.46 153.31 160.21 156.33 160.75 159.00 C 161.29 161.67 161.58 163.00 161.75 166.75 C 161.92 170.50 161.92 175.52 161.75 181.50 C 161.58 187.48 161.29 194.92 160.75 202.62 C 160.21 210.33 159.50 219.12 158.50 227.75 C 157.50 236.38 156.04 246.40 154.75 254.38 C 153.46 262.35 151.71 270.94 150.75 275.62 C 149.79 280.31 149.29 281.04 149.00 282.50 C 148.71 283.96 148.73 284.00 149.00 284.38 C 149.27 284.75 146.38 284.65 150.62 284.75 C 154.88 284.85 170.15 285.04 174.50 285.00 C 178.85 284.96 175.23 289.35 176.75 284.50 C 178.27 279.65 181.31 266.98 183.62 255.88 C 185.94 244.77 188.60 230.38 190.62 217.88 C 192.65 205.38 194.52 190.62 195.75 180.88 C 196.98 171.12 197.15 164.96 198.00 159.38 C 198.85 153.79 200.42 149.88 200.88 147.38 C 201.33 144.88 201.17 145.52 200.75 144.38 C 200.33 143.23 200.75 141.12 198.38 140.50 Z" id="s-2-f-4"/>
<path d="M 198.38 140.50 C 196.00 139.88 189.85 140.46 186.50 140.62 C 183.15 140.79 181.92 141.33 178.25 141.50 C 174.58 141.67 168.38 141.42 164.50 141.62 C 160.62 141.83 156.58 142.42 155.00 142.75 C 153.42 143.08 154.56 142.69 155.00 143.62 C 155.44 144.56 156.85 146.62 157.62 148.38 C 158.40 150.12 158.94 151.06 159.62 154.12 C 160.31 157.19 161.40 162.19 161.75 166.75 C 162.10 171.31 161.90 175.85 161.75 181.50 C 161.60 187.15 161.35 193.48 160.88 200.62 C 160.40 207.77 159.48 218.52 158.88 224.38 C 158.27 230.23 157.44 233.67 157.25 235.75 C 157.06 237.83 153.12 236.67 157.75 236.88 C 162.38 237.08 180.19 237.00 185.00 237.00 C 189.81 237.00 186.23 237.00 186.62 236.88 C 187.02 236.75 186.38 241.65 187.38 236.25 C 188.38 230.85 190.85 217.31 192.62 204.50 C 194.40 191.69 196.62 168.90 198.00 159.38 C 199.38 149.85 200.42 149.88 200.88 147.38 C 201.33 144.88 201.17 145.52 200.75 144.38 C 200.33 143.23 200.75 141.12 198.38 140.50 Z" id="s-2-f-5"/>
<path d="M 198.88 140.75 C 196.50 140.12 189.94 140.50 186.50 140.62 C 183.06 140.75 181.92 141.33 178.25 141.50 C 174.58 141.67 168.38 141.42 164.50 141.62 C 160.62 141.83 156.58 142.42 155.00 142.75 C 153.42 143.08 154.42 142.29 155.00 143.62 C 155.58 144.96 157.52 148.04 158.50 150.75 C 159.48 153.46 160.33 157.21 160.88 159.88 C 161.42 162.54 161.65 161.96 161.75 166.75 C 161.85 171.54 161.12 184.92 161.50 188.62 C 161.88 192.33 158.88 188.94 164.00 189.00 C 169.12 189.06 187.15 189.06 192.25 189.00 C 197.35 188.94 193.67 193.56 194.62 188.62 C 195.58 183.69 196.96 166.25 198.00 159.38 C 199.04 152.50 200.42 149.88 200.88 147.38 C 201.33 144.88 201.08 145.48 200.75 144.38 C 200.42 143.27 201.25 141.38 198.88 140.75 Z" id="s-2-f-6"/>
</g>
<g id="s-3" clip-path="url(#c-s-3)">
<use href="#s-3-f-0"/>
<path d="M 65.25 167.75 C 64.88 168.29 64.90 168.62 64.88 169.25 C 64.85 169.88 64.46 170.31 65.12 171.50 C 65.79 172.69 66.88 173.46 68.88 176.38 C 70.88 179.29 73.96 184.48 77.12 189.00 C 80.29 193.52 84.54 199.40 87.88 203.50 C 91.21 207.60 95.46 211.88 97.12 213.62 C 98.79 215.38 92.75 213.96 97.88 214.00 C 103.00 214.04 122.77 214.00 127.88 213.88 C 132.98 213.75 128.33 214.88 128.50 213.25 C 128.67 211.62 129.00 206.88 128.88 204.12 C 128.75 201.38 128.10 198.50 127.75 196.75 C 127.40 195.00 127.40 195.02 126.75 193.62 C 126.10 192.23 125.08 190.10 123.88 188.38 C 122.67 186.65 121.42 184.81 119.50 183.25 C 117.58 181.69 114.77 180.21 112.38 179.00 C 109.98 177.79 107.77 177.00 105.12 176.00 C 102.48 175.00 99.92 174.04 96.50 173.00 C 93.08 171.96 87.71 170.73 84.62 169.75 C 81.54 168.77 79.94 167.75 78.00 167.12 C 76.06 166.50 74.62 166.21 73.00 166.00 C 71.38 165.79 69.23 165.88 68.25 165.88 C 67.27 165.88 67.62 165.69 67.12 166.00 C 66.62 166.31 65.62 167.21 65.25 167.75 Z" id="s-3-f-1"/>
</g>
<g id="s-4" clip-path="url(#c-s-4)">
<use href="#s-4-f-0"/>
<path d="M 136.75 249.12 C 136.62 246.88 137.56 248.15 136.00 249.12 C 134.44 250.10 135.54 249.08 127.38 255.00 C 119.21 260.92 97.00 277.50 87.00 284.62 C 77.00 291.75 73.10 294.06 67.38 297.75 C 61.65 301.44 55.90 304.92 52.62 306.75 C 49.35 308.58 49.46 308.19 47.75 308.75 C 46.04 309.31 43.52 309.56 42.38 310.12 C 41.23 310.69 41.10 311.31 40.88 312.12 C 40.65 312.94 40.50 313.62 41.00 315.00 C 41.50 316.38 42.23 318.19 43.88 320.38 C 45.52 322.56 48.10 325.73 50.88 328.12 C 53.65 330.52 57.56 333.00 60.50 334.75 C 63.44 336.50 66.48 337.79 68.50 338.62 C 70.52 339.46 71.21 339.58 72.62 339.75 C 74.04 339.92 75.96 339.94 77.00 339.62 C 78.04 339.31 78.35 338.56 78.88 337.88 C 79.40 337.19 75.23 342.08 80.12 335.50 C 85.02 328.92 100.81 307.85 108.25 298.38 C 115.69 288.90 120.00 284.58 124.75 278.62 C 129.50 272.67 134.75 267.54 136.75 262.62 C 138.75 257.71 136.88 251.38 136.75 249.12 Z" id="s-4-f-1"/>
<path d="M 88.62 283.50 C 85.02 285.44 73.33 293.90 67.38 297.75 C 61.42 301.60 56.15 304.79 52.88 306.62 C 49.60 308.46 49.44 308.21 47.75 308.75 C 46.06 309.29 43.85 309.44 42.75 309.88 C 41.65 310.31 41.42 310.52 41.12 311.38 C 40.83 312.23 40.69 313.71 41.00 315.00 C 41.31 316.29 42.21 317.83 43.00 319.12 C 43.79 320.42 44.44 321.25 45.75 322.75 C 47.06 324.25 48.42 326.12 50.88 328.12 C 53.33 330.12 57.56 333.00 60.50 334.75 C 63.44 336.50 66.48 337.79 68.50 338.62 C 70.52 339.46 71.21 339.58 72.62 339.75 C 74.04 339.92 75.96 339.94 77.00 339.62 C 78.04 339.31 78.35 338.56 78.88 337.88 C 79.40 337.19 78.46 337.85 80.12 335.50 C 81.79 333.15 87.40 331.98 88.88 323.75 C 90.35 315.52 89.04 292.83 89.00 286.12 C 88.96 279.42 92.23 281.56 88.62 283.50 Z" id="s-4-f-2"/>
</g>
<g id="s-5" clip-path="url(#c-s-5)">
<use href="#s-5-f-0"/>
<path d="M 441.00 225.12 C 440.94 221.62 441.04 224.73 440.62 224.38 C 440.21 224.02 441.04 224.06 438.50 223.00 C 435.96 221.94 428.15 219.00 425.38 218.00 C 422.60 217.00 423.40 217.17 421.88 217.00 C 420.35 216.83 418.33 216.81 416.25 217.00 C 414.17 217.19 414.54 217.00 409.38 218.12 C 404.21 219.25 392.73 222.27 385.25 223.75 C 377.77 225.23 375.75 225.00 364.50 227.00 C 353.25 229.00 337.33 232.44 317.75 235.75 C 298.17 239.06 265.06 244.17 247.00 246.88 C 228.94 249.58 216.75 250.81 209.38 252.00 C 202.00 253.19 204.15 253.46 202.75 254.00 C 201.35 254.54 201.31 254.77 201.00 255.25 C 200.69 255.73 200.73 256.23 200.88 256.88 C 201.02 257.52 201.38 258.38 201.88 259.12 C 202.38 259.88 202.96 260.60 203.88 261.38 C 204.79 262.15 204.27 262.19 207.38 263.75 C 210.48 265.31 219.10 269.29 222.50 270.75 C 225.90 272.21 225.90 272.00 227.75 272.50 C 229.60 273.00 231.46 273.54 233.62 273.75 C 235.79 273.96 234.12 275.02 240.75 273.75 C 247.38 272.48 263.71 268.25 273.38 266.12 C 283.04 264.00 288.19 262.88 298.75 261.00 C 309.31 259.12 329.29 256.02 336.75 254.88 C 344.21 253.73 340.54 254.29 343.50 254.12 C 346.46 253.96 347.67 254.56 354.50 253.88 C 361.33 253.19 375.98 250.98 384.50 250.00 C 393.02 249.02 396.31 248.69 405.62 248.00 C 414.94 247.31 434.48 246.31 440.38 245.88 C 446.27 245.44 440.90 248.83 441.00 245.38 C 441.10 241.92 441.06 228.62 441.00 225.12 Z" id="s-5-f-1"/>
<path d="M 392.88 222.50 C 392.69 218.33 392.27 222.08 391.88 222.12 C 391.48 222.17 392.52 222.31 390.50 222.75 C 388.48 223.19 382.06 224.40 379.75 224.75 C 377.44 225.10 381.02 224.17 376.62 224.88 C 372.23 225.58 359.25 227.88 353.38 229.00 C 347.50 230.12 351.21 229.85 341.38 231.62 C 331.54 233.40 310.10 237.08 294.38 239.62 C 278.65 242.17 261.17 244.81 247.00 246.88 C 232.83 248.94 216.42 250.94 209.38 252.00 C 202.33 253.06 206.02 252.81 204.75 253.25 C 203.48 253.69 202.40 254.25 201.75 254.62 C 201.10 255.00 201.00 255.00 200.88 255.50 C 200.75 256.00 200.56 256.71 201.00 257.62 C 201.44 258.54 202.44 259.98 203.50 261.00 C 204.56 262.02 205.42 262.75 207.38 263.75 C 209.33 264.75 212.73 265.83 215.25 267.00 C 217.77 268.17 220.42 269.83 222.50 270.75 C 224.58 271.67 225.90 272.00 227.75 272.50 C 229.60 273.00 231.62 273.52 233.62 273.75 C 235.62 273.98 233.12 275.15 239.75 273.88 C 246.38 272.60 260.69 268.77 273.38 266.12 C 286.06 263.48 304.19 260.00 315.88 258.00 C 327.56 256.00 337.06 254.81 343.50 254.12 C 349.94 253.44 346.40 254.67 354.50 253.88 C 362.60 253.08 385.75 250.19 392.12 249.38 C 398.50 248.56 392.60 249.38 392.75 249.00 C 392.90 248.62 392.98 251.54 393.00 247.12 C 393.02 242.71 393.06 226.67 392.88 222.50 Z" id="s-5-f-2"/>
<path d="M 345.00 231.62 C 345.00 227.85 345.04 231.23 344.75 231.12 C 344.46 231.02 347.75 230.23 343.25 231.00 C 338.75 231.77 328.00 233.98 317.75 235.75 C 307.50 237.52 299.81 238.92 281.75 241.62 C 263.69 244.33 222.21 250.06 209.38 252.00 C 196.54 253.94 206.02 252.81 204.75 253.25 C 203.48 253.69 202.40 254.25 201.75 254.62 C 201.10 255.00 201.00 255.00 200.88 255.50 C 200.75 256.00 200.56 256.71 201.00 257.62 C 201.44 258.54 202.44 259.98 203.50 261.00 C 204.56 262.02 204.21 262.12 207.38 263.75 C 210.54 265.38 218.25 269.10 222.50 270.75 C 226.75 272.40 229.69 273.15 232.88 273.62 C 236.06 274.10 237.92 274.21 241.62 273.62 C 245.33 273.04 245.56 272.23 255.12 270.12 C 264.69 268.02 287.85 263.19 299.00 261.00 C 310.15 258.81 314.48 258.12 322.00 257.00 C 329.52 255.88 340.33 254.79 344.12 254.25 C 347.92 253.71 344.60 257.52 344.75 253.75 C 344.90 249.98 345.00 235.40 345.00 231.62 Z" id="s-5-f-3"/>
<path d="M 296.88 239.50 C 296.69 236.10 304.19 237.90 295.88 239.12 C 287.56 240.35 261.42 244.73 247.00 246.88 C 232.58 249.02 216.42 250.94 209.38 252.00 C 202.33 253.06 206.02 252.81 204.75 253.25 C 203.48 253.69 202.40 254.25 201.75 254.62 C 201.10 255.00 201.00 255.00 200.88 255.50 C 200.75 256.00 200.56 256.71 201.00 257.62 C 201.44 258.54 202.44 259.98 203.50 261.00 C 204.56 262.02 204.21 262.12 207.38 263.75 C 210.54 265.38 219.12 269.29 222.50 270.75 C 225.88 272.21 225.90 272.02 227.62 272.50 C 229.35 272.98 230.54 273.44 232.88 273.62 C 235.21 273.81 234.88 274.88 241.62 273.62 C 248.38 272.38 264.23 268.12 273.38 266.12 C 282.52 264.12 292.56 262.73 296.50 261.62 C 300.44 260.52 296.94 263.19 297.00 259.50 C 297.06 255.81 297.06 242.90 296.88 239.50 Z" id="s-5-f-4"/>
<path d="M 248.88 271.50 C 250.42 267.29 249.06 252.77 249.00 248.62 C 248.94 244.48 255.10 246.06 248.50 246.62 C 241.90 247.19 217.00 250.77 209.38 252.00 C 201.75 253.23 204.17 253.42 202.75 254.00 C 201.33 254.58 201.15 254.85 200.88 255.50 C 200.60 256.15 200.52 256.81 201.12 257.88 C 201.73 258.94 203.19 260.75 204.50 261.88 C 205.81 263.00 205.60 263.00 209.00 264.62 C 212.40 266.25 220.90 270.12 224.88 271.62 C 228.85 273.12 230.40 273.25 232.88 273.62 C 235.35 274.00 237.08 274.23 239.75 273.88 C 242.42 273.52 247.33 275.71 248.88 271.50 Z" id="s-5-f-5"/>
</g>
<g id="s-6" clip-path="url(#c-s-6)">
<use href="#s-6-f-0"/>
<path d="M 346.75 158.88 C 345.50 158.92 344.96 158.81 344.00 159.25 C 343.04 159.69 341.67 160.79 341.00 161.50 C 340.33 162.21 340.19 162.69 340.00 163.50 C 339.81 164.31 339.35 163.67 339.88 166.38 C 340.40 169.08 342.15 176.19 343.12 179.75 C 344.10 183.31 345.00 184.96 345.75 187.75 C 346.50 190.54 346.96 192.19 347.62 196.50 C 348.29 200.81 349.35 209.25 349.75 213.62 C 350.15 218.00 349.83 220.31 350.00 222.75 C 350.17 225.19 350.67 223.29 350.75 228.25 C 350.83 233.21 350.35 245.56 350.50 252.50 C 350.65 259.44 351.42 260.02 351.62 269.88 C 351.83 279.73 351.88 297.60 351.75 311.62 C 351.62 325.65 351.21 343.31 350.88 354.00 C 350.54 364.69 350.10 370.44 349.75 375.75 C 349.40 381.06 349.08 383.25 348.75 385.88 C 348.42 388.50 348.23 389.58 347.75 391.50 C 347.27 393.42 346.50 395.98 345.88 397.38 C 345.25 398.77 344.58 399.31 344.00 399.88 C 343.42 400.44 343.06 400.62 342.38 400.75 C 341.69 400.88 341.71 400.96 339.88 400.62 C 338.04 400.29 335.17 399.83 331.38 398.75 C 327.58 397.67 321.10 395.31 317.12 394.12 C 313.15 392.94 309.23 391.90 307.50 391.62 C 305.77 391.35 306.88 391.27 306.75 392.50 C 306.62 393.73 306.58 397.58 306.75 399.00 C 306.92 400.42 303.42 395.77 307.75 401.00 C 312.08 406.23 327.29 423.81 332.75 430.38 C 338.21 436.94 338.58 437.65 340.50 440.38 C 342.42 443.10 343.15 445.19 344.25 446.75 C 345.35 448.31 345.96 448.92 347.12 449.75 C 348.29 450.58 349.98 451.40 351.25 451.75 C 352.52 452.10 353.67 452.02 354.75 451.88 C 355.83 451.73 356.75 451.38 357.75 450.88 C 358.75 450.38 359.40 450.04 360.75 448.88 C 362.10 447.71 364.21 445.71 365.88 443.88 C 367.54 442.04 369.44 439.75 370.75 437.88 C 372.06 436.00 372.94 434.25 373.75 432.62 C 374.56 431.00 374.98 430.04 375.62 428.12 C 376.27 426.21 377.12 423.29 377.62 421.12 C 378.12 418.96 378.44 421.33 378.62 415.12 C 378.81 408.92 378.88 391.83 378.75 383.88 C 378.62 375.92 378.17 376.27 377.88 367.38 C 377.58 358.48 377.17 349.83 377.00 330.50 C 376.83 311.17 376.71 265.17 376.88 251.38 C 377.04 237.58 377.79 249.96 378.00 247.75 C 378.21 245.54 377.96 240.29 378.12 238.12 C 378.29 235.96 378.85 237.75 379.00 234.75 C 379.15 231.75 378.83 224.19 379.00 220.12 C 379.17 216.06 379.21 214.71 380.00 210.38 C 380.79 206.04 382.96 197.94 383.75 194.12 C 384.54 190.31 384.56 189.67 384.75 187.50 C 384.94 185.33 385.06 182.75 384.88 181.12 C 384.69 179.50 384.15 178.71 383.62 177.75 C 383.10 176.79 382.81 176.46 381.75 175.38 C 380.69 174.29 379.19 172.77 377.25 171.25 C 375.31 169.73 372.38 167.62 370.12 166.25 C 367.88 164.88 366.06 164.02 363.75 163.00 C 361.44 161.98 358.29 160.79 356.25 160.12 C 354.21 159.46 353.08 159.21 351.50 159.00 C 349.92 158.79 348.00 158.83 346.75 158.88 Z" id="s-6-f-1"/>
<path d="M 346.38 158.88 C 345.10 158.92 344.90 158.81 344.00 159.25 C 343.10 159.69 341.67 160.79 341.00 161.50 C 340.33 162.21 340.19 162.69 340.00 163.50 C 339.81 164.31 339.35 163.67 339.88 166.38 C 340.40 169.08 342.15 176.19 343.12 179.75 C 344.10 183.31 344.98 184.79 345.75 187.75 C 346.52 190.71 347.08 193.19 347.75 197.50 C 348.42 201.81 349.38 209.42 349.75 213.62 C 350.12 217.83 349.83 220.31 350.00 222.75 C 350.17 225.19 350.67 223.29 350.75 228.25 C 350.83 233.21 350.35 245.56 350.50 252.50 C 350.65 259.44 351.42 260.02 351.62 269.88 C 351.83 279.73 351.88 297.56 351.75 311.62 C 351.62 325.69 351.21 343.56 350.88 354.25 C 350.54 364.94 350.06 371.19 349.75 375.75 C 349.44 380.31 349.15 379.15 349.00 381.62 C 348.85 384.10 348.21 379.96 348.88 390.62 C 349.54 401.29 352.19 435.50 353.00 445.62 C 353.81 455.75 353.40 450.33 353.75 451.38 C 354.10 452.42 354.42 451.98 355.12 451.88 C 355.83 451.77 356.88 451.42 358.00 450.75 C 359.12 450.08 360.56 449.02 361.88 447.88 C 363.19 446.73 364.42 445.52 365.88 443.88 C 367.33 442.23 369.31 439.88 370.62 438.00 C 371.94 436.12 372.92 434.27 373.75 432.62 C 374.58 430.98 374.98 430.04 375.62 428.12 C 376.27 426.21 377.12 423.29 377.62 421.12 C 378.12 418.96 378.44 421.35 378.62 415.12 C 378.81 408.90 378.85 391.08 378.75 383.75 C 378.65 376.42 378.29 380.00 378.00 371.12 C 377.71 362.25 377.19 350.46 377.00 330.50 C 376.81 310.54 376.71 265.17 376.88 251.38 C 377.04 237.58 377.79 249.96 378.00 247.75 C 378.21 245.54 377.94 240.58 378.12 238.12 C 378.31 235.67 378.94 236.54 379.12 233.00 C 379.31 229.46 379.10 220.65 379.25 216.88 C 379.40 213.10 379.25 214.17 380.00 210.38 C 380.75 206.58 382.96 197.96 383.75 194.12 C 384.54 190.29 384.56 189.56 384.75 187.38 C 384.94 185.19 385.06 182.60 384.88 181.00 C 384.69 179.40 384.17 178.71 383.62 177.75 C 383.08 176.79 382.69 176.33 381.62 175.25 C 380.56 174.17 379.17 172.75 377.25 171.25 C 375.33 169.75 372.38 167.62 370.12 166.25 C 367.88 164.88 366.06 164.02 363.75 163.00 C 361.44 161.98 358.27 160.79 356.25 160.12 C 354.23 159.46 353.27 159.21 351.62 159.00 C 349.98 158.79 347.65 158.83 346.38 158.88 Z" id="s-6-f-2"/>
<path d="M 346.38 158.88 C 345.10 158.92 344.90 158.81 344.00 159.25 C 343.10 159.69 341.67 160.79 341.00 161.50 C 340.33 162.21 340.19 162.69 340.00 163.50 C 339.81 164.31 339.35 163.67 339.88 166.38 C 340.40 169.08 342.15 176.19 343.12 179.75 C 344.10 183.31 345.00 184.96 345.75 187.75 C 346.50 190.54 346.96 192.19 347.62 196.50 C 348.29 200.81 349.33 208.94 349.75 213.62 C 350.17 218.31 349.96 222.19 350.12 224.62 C 350.29 227.06 350.69 223.60 350.75 228.25 C 350.81 232.90 350.35 245.56 350.50 252.50 C 350.65 259.44 351.42 260.02 351.62 269.88 C 351.83 279.73 351.88 297.56 351.75 311.62 C 351.62 325.69 351.21 343.56 350.88 354.25 C 350.54 364.94 350.06 371.19 349.75 375.75 C 349.44 380.31 349.15 379.15 349.00 381.62 C 348.85 384.10 348.21 379.96 348.88 390.62 C 349.54 401.29 352.10 436.23 353.00 445.62 C 353.90 455.02 352.73 446.77 354.25 447.00 C 355.77 447.23 360.67 447.04 362.12 447.00 C 363.58 446.96 361.73 448.04 363.00 446.75 C 364.27 445.46 367.96 441.60 369.75 439.25 C 371.54 436.90 372.60 434.98 373.75 432.62 C 374.90 430.27 375.81 428.04 376.62 425.12 C 377.44 422.21 378.27 422.02 378.62 415.12 C 378.98 408.23 378.85 391.08 378.75 383.75 C 378.65 376.42 378.29 380.00 378.00 371.12 C 377.71 362.25 377.19 350.46 377.00 330.50 C 376.81 310.54 376.71 265.17 376.88 251.38 C 377.04 237.58 377.79 249.96 378.00 247.75 C 378.21 245.54 377.96 240.29 378.12 238.12 C 378.29 235.96 378.85 237.75 379.00 234.75 C 379.15 231.75 378.83 224.19 379.00 220.12 C 379.17 216.06 379.21 214.71 380.00 210.38 C 380.79 206.04 382.96 197.96 383.75 194.12 C 384.54 190.29 384.56 189.56 384.75 187.38 C 384.94 185.19 385.06 182.60 384.88 181.00 C 384.69 179.40 384.17 178.71 383.62 177.75 C 383.08 176.79 382.69 176.33 381.62 175.25 C 380.56 174.17 379.17 172.75 377.25 171.25 C 375.33 169.75 372.38 167.62 370.12 166.25 C 367.88 164.88 366.06 164.02 363.75 163.00 C 361.44 161.98 358.27 160.79 356.25 160.12 C 354.23 159.46 353.27 159.21 351.62 159.00 C 349.98 158.79 347.65 158.83 346.38 158.88 Z" id="s-6-f-3"/>
<path d="M 344.75 159.00 C 343.25 159.17 343.17 159.52 342.50 160.00 C 341.83 160.48 341.17 161.29 340.75 161.88 C 340.33 162.46 340.15 162.75 340.00 163.50 C 339.85 164.25 339.35 163.67 339.88 166.38 C 340.40 169.08 342.15 176.19 343.12 179.75 C 344.10 183.31 345.00 184.96 345.75 187.75 C 346.50 190.54 346.96 192.19 347.62 196.50 C 348.29 200.81 349.33 208.94 349.75 213.62 C 350.17 218.31 349.96 222.19 350.12 224.62 C 350.29 227.06 350.69 223.60 350.75 228.25 C 350.81 232.90 350.35 245.56 350.50 252.50 C 350.65 259.44 351.42 260.02 351.62 269.88 C 351.83 279.73 351.88 297.56 351.75 311.62 C 351.62 325.69 351.35 342.12 350.88 354.25 C 350.40 366.38 349.21 378.31 348.88 384.38 C 348.54 390.44 348.73 388.27 348.88 390.62 C 349.02 392.98 349.27 397.10 349.75 398.50 C 350.23 399.90 346.98 398.92 351.75 399.00 C 356.52 399.08 373.85 399.10 378.38 399.00 C 382.90 398.90 378.81 400.92 378.88 398.38 C 378.94 395.83 378.90 388.29 378.75 383.75 C 378.60 379.21 378.29 380.00 378.00 371.12 C 377.71 362.25 377.19 350.46 377.00 330.50 C 376.81 310.54 376.71 265.17 376.88 251.38 C 377.04 237.58 377.79 249.96 378.00 247.75 C 378.21 245.54 377.96 240.29 378.12 238.12 C 378.29 235.96 378.85 237.75 379.00 234.75 C 379.15 231.75 378.83 224.19 379.00 220.12 C 379.17 216.06 379.21 214.71 380.00 210.38 C 380.79 206.04 382.96 197.96 383.75 194.12 C 384.54 190.29 384.56 189.56 384.75 187.38 C 384.94 185.19 385.06 182.60 384.88 181.00 C 384.69 179.40 384.17 178.71 383.62 177.75 C 383.08 176.79 382.69 176.33 381.62 175.25 C 380.56 174.17 379.17 172.75 377.25 171.25 C 375.33 169.75 372.38 167.62 370.12 166.25 C 367.88 164.88 366.06 164.02 363.75 163.00 C 361.44 161.98 358.29 160.79 356.25 160.12 C 354.21 159.46 353.42 159.19 351.50 159.00 C 349.58 158.81 346.25 158.83 344.75 159.00 Z" id="s-6-f-4"/>
<path d="M 344.75 159.00 C 343.12 159.15 343.12 159.58 342.50 160.00 C 341.88 160.42 341.42 160.92 341.00 161.50 C 340.58 162.08 340.19 162.71 340.00 163.50 C 339.81 164.29 339.35 163.54 339.88 166.25 C 340.40 168.96 342.15 176.17 343.12 179.75 C 344.10 183.33 345.00 184.96 345.75 187.75 C 346.50 190.54 346.96 192.19 347.62 196.50 C 348.29 200.81 349.33 208.94 349.75 213.62 C 350.17 218.31 349.96 222.19 350.12 224.62 C 350.29 227.06 350.69 223.60 350.75 228.25 C 350.81 232.90 350.33 244.38 350.50 252.50 C 350.67 260.62 351.65 260.65 351.75 277.00 C 351.85 293.35 350.94 338.29 351.12 350.62 C 351.31 362.96 348.56 350.98 352.88 351.00 C 357.19 351.02 372.90 350.85 377.00 350.75 C 381.10 350.65 377.50 353.75 377.50 350.38 C 377.50 347.00 377.10 347.00 377.00 330.50 C 376.90 314.00 376.71 265.17 376.88 251.38 C 377.04 237.58 377.79 249.96 378.00 247.75 C 378.21 245.54 377.94 240.58 378.12 238.12 C 378.31 235.67 378.98 236.00 379.12 233.00 C 379.27 230.00 378.85 223.90 379.00 220.12 C 379.15 216.35 379.38 213.88 380.00 210.38 C 380.62 206.88 381.98 202.77 382.75 199.12 C 383.52 195.48 384.29 191.67 384.62 188.50 C 384.96 185.33 385.15 182.23 384.75 180.12 C 384.35 178.02 383.50 177.35 382.25 175.88 C 381.00 174.40 379.10 172.75 377.25 171.25 C 375.40 169.75 372.98 168.06 371.12 166.88 C 369.27 165.69 368.08 165.08 366.12 164.12 C 364.17 163.17 361.69 161.96 359.38 161.12 C 357.06 160.29 354.69 159.48 352.25 159.12 C 349.81 158.77 346.38 158.85 344.75 159.00 Z" id="s-6-f-5"/>
<path d="M 344.75 159.00 C 343.15 159.12 343.38 159.46 342.75 159.88 C 342.12 160.29 341.46 160.90 341.00 161.50 C 340.54 162.10 340.19 162.71 340.00 163.50 C 339.81 164.29 338.75 161.46 339.88 166.25 C 341.00 171.04 345.29 186.12 346.75 192.25 C 348.21 198.38 348.12 199.44 348.62 203.00 C 349.12 206.56 349.50 210.02 349.75 213.62 C 350.00 217.23 349.96 222.19 350.12 224.62 C 350.29 227.06 350.69 223.60 350.75 228.25 C 350.81 232.90 350.35 245.75 350.50 252.50 C 350.65 259.25 351.42 260.42 351.62 268.75 C 351.83 277.08 351.42 296.79 351.75 302.50 C 352.08 308.21 349.56 302.92 353.62 303.00 C 357.69 303.08 372.27 303.08 376.12 303.00 C 379.98 302.92 376.62 311.10 376.75 302.50 C 376.88 293.90 376.67 260.50 376.88 251.38 C 377.08 242.25 377.79 249.96 378.00 247.75 C 378.21 245.54 377.94 240.58 378.12 238.12 C 378.31 235.67 378.96 236.35 379.12 233.00 C 379.29 229.65 378.98 221.77 379.12 218.00 C 379.27 214.23 379.40 213.52 380.00 210.38 C 380.60 207.23 381.98 202.77 382.75 199.12 C 383.52 195.48 384.29 191.67 384.62 188.50 C 384.96 185.33 385.15 182.23 384.75 180.12 C 384.35 178.02 383.50 177.35 382.25 175.88 C 381.00 174.40 379.10 172.75 377.25 171.25 C 375.40 169.75 372.98 168.06 371.12 166.88 C 369.27 165.69 368.08 165.08 366.12 164.12 C 364.17 163.17 361.67 161.96 359.38 161.12 C 357.08 160.29 354.81 159.48 352.38 159.12 C 349.94 158.77 346.35 158.88 344.75 159.00 Z" id="s-6-f-6"/>
<path d="M 344.75 159.00 C 343.15 159.12 343.38 159.46 342.75 159.88 C 342.12 160.29 341.46 160.90 341.00 161.50 C 340.54 162.10 340.19 162.71 340.00 163.50 C 339.81 164.29 339.35 163.54 339.88 166.25 C 340.40 168.96 342.15 176.17 343.12 179.75 C 344.10 183.33 344.83 183.88 345.75 187.75 C 346.67 191.62 347.79 196.25 348.62 203.00 C 349.46 209.75 350.42 219.81 350.75 228.25 C 351.08 236.69 350.54 249.19 350.62 253.62 C 350.71 258.06 346.98 254.65 351.25 254.88 C 355.52 255.10 371.98 255.15 376.25 255.00 C 380.52 254.85 376.73 254.88 376.88 254.00 C 377.02 253.12 376.94 250.79 377.12 249.75 C 377.31 248.71 377.83 249.83 378.00 247.75 C 378.17 245.67 377.94 239.71 378.12 237.25 C 378.31 234.79 378.96 236.21 379.12 233.00 C 379.29 229.79 378.98 221.77 379.12 218.00 C 379.27 214.23 379.40 213.52 380.00 210.38 C 380.60 207.23 381.98 202.77 382.75 199.12 C 383.52 195.48 384.29 191.67 384.62 188.50 C 384.96 185.33 385.15 182.23 384.75 180.12 C 384.35 178.02 383.21 177.10 382.25 175.88 C 381.29 174.65 380.85 174.25 379.00 172.75 C 377.15 171.25 373.27 168.31 371.12 166.88 C 368.98 165.44 368.08 165.08 366.12 164.12 C 364.17 163.17 361.67 161.96 359.38 161.12 C 357.08 160.29 354.81 159.48 352.38 159.12 C 349.94 158.77 346.35 158.88 344.75 159.00 Z" id="s-6-f-7"/>
<path d="M 342.38 160.12 C 341.75 160.54 341.40 160.94 341.00 161.50 C 340.60 162.06 340.17 162.54 340.00 163.50 C 339.83 164.46 339.33 164.02 340.00 167.25 C 340.67 170.48 343.04 179.46 344.00 182.88 C 344.96 186.29 345.17 185.58 345.75 187.75 C 346.33 189.92 346.96 192.73 347.50 195.88 C 348.04 199.02 348.38 204.77 349.00 206.62 C 349.62 208.48 346.00 206.96 351.25 207.00 C 356.50 207.04 375.25 208.19 380.50 206.88 C 385.75 205.56 382.04 202.35 382.75 199.12 C 383.46 195.90 384.42 190.67 384.75 187.50 C 385.08 184.33 385.17 182.06 384.75 180.12 C 384.33 178.19 383.50 177.35 382.25 175.88 C 381.00 174.40 379.10 172.75 377.25 171.25 C 375.40 169.75 374.10 168.56 371.12 166.88 C 368.15 165.19 362.50 162.42 359.38 161.12 C 356.25 159.83 354.81 159.48 352.38 159.12 C 349.94 158.77 346.42 158.83 344.75 159.00 C 343.08 159.17 343.00 159.71 342.38 160.12 Z" id="s-6-f-8"/>
</g>
<g id="s-7" clip-path="url(#c-s-7)">
<use href="#s-7-f-0"/>
<path d="M 234.75 301.25 C 234.21 301.62 233.27 302.12 233.00 303.12 C 232.73 304.12 232.79 305.85 233.12 307.25 C 233.46 308.65 233.19 308.12 235.00 311.50 C 236.81 314.88 241.21 322.75 244.00 327.50 C 246.79 332.25 249.42 336.42 251.75 340.00 C 254.08 343.58 255.46 345.77 258.00 349.00 C 260.54 352.23 264.96 357.21 267.00 359.38 C 269.04 361.54 269.17 361.27 270.25 362.00 C 271.33 362.73 271.81 363.50 273.50 363.75 C 275.19 364.00 279.15 363.67 280.38 363.50 C 281.60 363.33 280.81 370.71 280.88 362.75 C 280.94 354.79 281.15 323.88 280.75 315.75 C 280.35 307.62 279.81 314.77 278.50 314.00 C 277.19 313.23 275.96 312.44 272.88 311.12 C 269.79 309.81 264.31 307.62 260.00 306.12 C 255.69 304.62 249.96 302.96 247.00 302.12 C 244.04 301.29 244.04 301.33 242.25 301.12 C 240.46 300.92 237.50 300.85 236.25 300.88 C 235.00 300.90 235.29 300.88 234.75 301.25 Z" id="s-7-f-1"/>
</g>
</svg>