<?xml version="1.0" encoding="UTF-8"?>
<svg xmlns="http://www.w3.org/2000/svg" viewBox="0 0 500 500">
<defs>
<path d="M 193.75 168.88 C 193.56 167.92 193.23 167.73 192.62 167.00 C 192.02 166.27 191.38 165.33 190.12 164.50 C 188.88 163.67 187.56 162.92 185.12 162.00 C 182.69 161.08 177.88 159.65 175.50 159.00 C 173.12 158.35 172.56 158.31 170.88 158.12 C 169.19 157.94 166.92 157.73 165.38 157.88 C 163.83 158.02 164.10 158.02 161.62 159.00 C 159.15 159.98 157.79 161.44 150.50 163.75 C 143.21 166.06 123.48 171.23 117.88 172.88 C 112.27 174.52 123.12 172.17 116.88 173.62 C 110.62 175.08 89.40 179.77 80.38 181.62 C 71.35 183.48 67.35 184.02 62.75 184.75 C 58.15 185.48 54.96 185.52 52.75 186.00 C 50.54 186.48 50.15 187.08 49.50 187.62 C 48.85 188.17 48.67 188.46 48.88 189.25 C 49.08 190.04 49.48 191.10 50.75 192.38 C 52.02 193.65 54.88 195.81 56.50 196.88 C 58.12 197.94 59.35 198.31 60.50 198.75 C 61.65 199.19 61.48 199.17 63.38 199.50 C 65.27 199.83 69.52 200.52 71.88 200.75 C 74.23 200.98 75.02 200.88 77.50 200.88 C 79.98 200.88 83.65 200.96 86.75 200.75 C 89.85 200.54 91.40 200.42 96.12 199.62 C 100.85 198.83 111.65 196.60 115.12 196.00 C 118.60 195.40 113.50 196.69 117.00 196.00 C 120.50 195.31 132.65 192.69 136.12 191.88 C 139.60 191.06 136.94 191.31 137.88 191.12 C 138.81 190.94 140.81 190.94 141.75 190.75 C 142.69 190.56 141.04 190.52 143.50 190.00 C 145.96 189.48 152.06 188.52 156.50 187.62 C 160.94 186.73 166.19 185.60 170.12 184.62 C 174.06 183.65 177.21 182.73 180.12 181.75 C 183.04 180.77 185.65 179.77 187.62 178.75 C 189.60 177.73 190.98 176.62 192.00 175.62 C 193.02 174.62 193.46 173.88 193.75 172.75 C 194.04 171.62 193.94 169.83 193.75 168.88 Z" id="s-0-f-0"/>
<clipPath id="c-s-0"><use href="#s-0-f-0"/></clipPath>
<path d="M 112.75 49.88 C 111.54 49.88 111.29 49.75 110.25 50.12 C 109.21 50.50 107.38 51.48 106.50 52.12 C 105.62 52.77 105.44 53.00 105.00 54.00 C 104.56 55.00 104.04 56.92 103.88 58.12 C 103.71 59.33 103.79 59.94 104.00 61.25 C 104.21 62.56 104.50 64.10 105.12 66.00 C 105.75 67.90 106.98 70.31 107.75 72.62 C 108.52 74.94 109.08 76.60 109.75 79.88 C 110.42 83.15 111.06 85.96 111.75 92.25 C 112.44 98.54 113.21 104.88 113.88 117.62 C 114.54 130.38 115.44 151.23 115.75 168.75 C 116.06 186.27 115.90 206.40 115.75 222.75 C 115.60 239.10 115.19 256.98 114.88 266.88 C 114.56 276.77 114.06 277.33 113.88 282.12 C 113.69 286.92 113.94 289.85 113.75 295.62 C 113.56 301.40 113.40 306.04 112.75 316.75 C 112.10 327.46 110.88 348.54 109.88 359.88 C 108.88 371.21 107.65 379.23 106.75 384.75 C 105.85 390.27 105.19 391.17 104.50 393.00 C 103.81 394.83 103.42 395.02 102.62 395.75 C 101.83 396.48 101.44 397.06 99.75 397.38 C 98.06 397.69 98.23 398.54 92.50 397.62 C 86.77 396.71 70.17 392.81 65.38 391.88 C 60.58 390.94 64.15 391.85 63.75 392.00 C 63.35 392.15 63.15 392.38 63.00 392.75 C 62.85 393.12 62.58 393.52 62.88 394.25 C 63.17 394.98 62.48 394.79 64.75 397.12 C 67.02 399.46 73.15 404.85 76.50 408.25 C 79.85 411.65 82.15 414.29 84.88 417.50 C 87.60 420.71 89.56 423.04 92.88 427.50 C 96.19 431.96 102.25 440.88 104.75 444.25 C 107.25 447.62 106.65 446.67 107.88 447.75 C 109.10 448.83 110.98 450.23 112.12 450.75 C 113.27 451.27 113.85 451.08 114.75 450.88 C 115.65 450.67 116.50 450.25 117.50 449.50 C 118.50 448.75 119.54 447.77 120.75 446.38 C 121.96 444.98 122.75 444.17 124.75 441.12 C 126.75 438.08 130.77 431.92 132.75 428.12 C 134.73 424.33 135.62 421.75 136.62 418.38 C 137.62 415.00 138.40 415.31 138.75 407.88 C 139.10 400.44 138.88 382.54 138.75 373.75 C 138.62 364.96 138.15 376.10 138.00 355.12 C 137.85 334.15 137.73 275.17 137.88 247.88 C 138.02 220.58 138.50 202.42 138.88 191.38 C 139.25 180.33 139.94 186.02 140.12 181.62 C 140.31 177.23 139.35 175.04 140.00 165.00 C 140.65 154.96 143.00 130.77 144.00 121.38 C 145.00 111.98 145.00 113.12 146.00 108.62 C 147.00 104.12 149.00 97.54 150.00 94.38 C 151.00 91.21 151.02 91.50 152.00 89.62 C 152.98 87.75 155.08 84.58 155.88 83.12 C 156.67 81.67 156.58 81.65 156.75 80.88 C 156.92 80.10 157.06 79.65 156.88 78.50 C 156.69 77.35 156.25 75.38 155.62 74.00 C 155.00 72.62 154.46 71.75 153.12 70.25 C 151.79 68.75 149.27 66.38 147.62 65.00 C 145.98 63.62 145.79 63.50 143.25 62.00 C 140.71 60.50 135.67 57.67 132.38 56.00 C 129.08 54.33 125.98 52.98 123.50 52.00 C 121.02 51.02 119.29 50.48 117.50 50.12 C 115.71 49.77 113.96 49.88 112.75 49.88 Z" id="s-1-f-0"/>
<clipPath id="c-s-1"><use href="#s-1-f-0"/></clipPath>
<path d="M 173.75 242.12 C 173.46 241.33 172.56 240.62 172.00 240.25 C 171.44 239.88 171.10 239.90 170.38 239.88 C 169.65 239.85 168.90 239.77 167.62 240.12 C 166.35 240.48 165.31 240.85 162.75 242.00 C 160.19 243.15 156.27 244.77 152.25 247.00 C 148.23 249.23 141.25 253.92 138.62 255.38 C 136.00 256.83 138.25 254.90 136.50 255.75 C 134.75 256.60 129.79 259.71 128.12 260.50 C 126.46 261.29 126.83 260.33 126.50 260.50 C 126.17 260.67 127.60 260.65 126.12 261.50 C 124.65 262.35 119.35 264.65 117.62 265.62 C 115.90 266.60 124.71 262.85 115.75 267.38 C 106.79 271.90 76.88 286.69 63.88 292.75 C 50.88 298.81 43.38 301.58 37.75 303.75 C 32.12 305.92 32.77 305.19 30.12 305.75 C 27.48 306.31 23.58 306.52 21.88 307.12 C 20.17 307.73 20.19 308.56 19.88 309.38 C 19.56 310.19 19.81 311.17 20.00 312.00 C 20.19 312.83 20.52 313.48 21.00 314.38 C 21.48 315.27 21.90 316.08 22.88 317.38 C 23.85 318.67 25.56 320.71 26.88 322.12 C 28.19 323.54 29.19 324.60 30.75 325.88 C 32.31 327.15 33.46 328.12 36.25 329.75 C 39.04 331.38 44.92 334.46 47.50 335.62 C 50.08 336.79 50.19 336.58 51.75 336.75 C 53.31 336.92 55.46 337.00 56.88 336.62 C 58.29 336.25 56.17 337.75 60.25 334.50 C 64.33 331.25 72.54 324.10 81.38 317.12 C 90.21 310.15 107.44 296.98 113.25 292.62 C 119.06 288.27 112.69 293.44 116.25 291.00 C 119.81 288.56 131.17 280.60 134.62 278.00 C 138.08 275.40 136.52 275.77 137.00 275.38 C 137.48 274.98 134.52 277.88 137.50 275.62 C 140.48 273.38 148.98 266.79 154.88 261.88 C 160.77 256.96 169.73 248.94 172.88 246.12 C 176.02 243.31 173.60 245.67 173.75 245.00 C 173.90 244.33 174.04 242.92 173.75 242.12 Z" id="s-2-f-0"/>
<clipPath id="c-s-2"><use href="#s-2-f-0"/></clipPath>
<path d="M 285.88 88.00 C 285.75 87.19 285.40 86.40 284.88 85.75 C 284.35 85.10 283.65 84.56 282.75 84.12 C 281.85 83.69 281.08 83.33 279.50 83.12 C 277.92 82.92 275.23 82.73 273.25 82.88 C 271.27 83.02 269.79 83.35 267.62 84.00 C 265.46 84.65 263.23 85.94 260.25 86.75 C 257.27 87.56 255.10 87.54 249.75 88.88 C 244.40 90.21 234.00 93.27 228.12 94.75 C 222.25 96.23 219.25 97.08 214.50 97.75 C 209.75 98.42 204.42 98.88 199.62 98.75 C 194.83 98.62 189.10 97.29 185.75 97.00 C 182.40 96.71 180.94 96.65 179.50 97.00 C 178.06 97.35 177.56 98.38 177.12 99.12 C 176.69 99.88 176.73 100.65 176.88 101.50 C 177.02 102.35 177.08 102.90 178.00 104.25 C 178.92 105.60 180.73 107.79 182.38 109.62 C 184.02 111.46 186.06 113.58 187.88 115.25 C 189.69 116.92 190.98 118.08 193.25 119.62 C 195.52 121.17 199.62 123.50 201.50 124.50 C 203.38 125.50 203.29 125.40 204.50 125.62 C 205.71 125.85 207.15 126.23 208.75 125.88 C 210.35 125.52 211.62 124.81 214.12 123.50 C 216.62 122.19 218.94 120.38 223.75 118.00 C 228.56 115.62 238.60 111.10 243.00 109.25 C 247.40 107.40 243.62 109.44 250.12 106.88 C 256.62 104.31 276.08 96.58 282.00 93.88 C 287.92 91.17 284.98 91.60 285.62 90.62 C 286.27 89.65 286.00 88.81 285.88 88.00 Z" id="s-3-f-0"/>
<clipPath id="c-s-3"><use href="#s-3-f-0"/></clipPath>
<path d="M 226.50 42.00 C 224.83 42.17 225.04 42.65 224.50 43.12 C 223.96 43.60 223.50 43.77 223.25 44.88 C 223.00 45.98 221.92 46.75 223.00 49.75 C 224.08 52.75 228.12 59.33 229.75 62.88 C 231.38 66.42 231.27 66.31 232.75 71.00 C 234.23 75.69 237.65 87.17 238.62 91.00 C 239.60 94.83 238.50 93.33 238.62 94.00 C 238.75 94.67 239.21 94.42 239.38 95.00 C 239.54 95.58 239.46 96.92 239.62 97.50 C 239.79 98.08 240.04 97.40 240.38 98.50 C 240.71 99.60 241.29 103.04 241.62 104.12 C 241.96 105.21 242.21 104.44 242.38 105.00 C 242.54 105.56 242.46 107.02 242.62 107.50 C 242.79 107.98 242.85 106.69 243.38 107.88 C 243.90 109.06 245.15 112.27 245.75 114.62 C 246.35 116.98 246.44 119.79 247.00 122.00 C 247.56 124.21 248.46 126.27 249.12 127.88 C 249.79 129.48 250.31 130.50 251.00 131.62 C 251.69 132.75 252.65 133.96 253.25 134.62 C 253.85 135.29 253.98 135.44 254.62 135.62 C 255.27 135.81 256.33 135.94 257.12 135.75 C 257.92 135.56 258.62 135.12 259.38 134.50 C 260.12 133.88 261.06 132.75 261.62 132.00 C 262.19 131.25 262.38 130.98 262.75 130.00 C 263.12 129.02 264.00 130.52 263.88 126.12 C 263.75 121.73 262.29 108.48 262.00 103.62 C 261.71 98.77 262.23 98.38 262.12 97.00 C 262.02 95.62 261.56 96.67 261.38 95.38 C 261.19 94.08 261.23 90.73 261.00 89.25 C 260.77 87.77 260.31 88.75 260.00 86.50 C 259.69 84.25 259.33 81.40 259.12 75.75 C 258.92 70.10 259.42 57.12 258.75 52.62 C 258.08 48.12 256.58 49.85 255.12 48.75 C 253.67 47.65 251.83 46.77 250.00 46.00 C 248.17 45.23 246.71 44.77 244.12 44.12 C 241.54 43.48 237.44 42.48 234.50 42.12 C 231.56 41.77 228.17 41.83 226.50 42.00 Z" id="s-4-f-0"/>
<clipPath id="c-s-4"><use href="#s-4-f-0"/></clipPath>
<path d="M 419.88 79.38 C 419.75 78.69 419.62 78.25 419.00 77.50 C 418.38 76.75 417.98 76.10 416.12 74.88 C 414.27 73.65 411.35 71.77 407.88 70.12 C 404.40 68.48 398.00 66.02 395.25 65.00 C 392.50 63.98 392.62 64.17 391.38 64.00 C 390.12 63.83 391.44 63.21 387.75 64.00 C 384.06 64.79 374.23 67.58 369.25 68.75 C 364.27 69.92 363.73 69.50 357.88 71.00 C 352.02 72.50 340.52 76.12 334.12 77.75 C 327.73 79.38 325.21 79.71 319.50 80.75 C 313.79 81.79 303.29 83.33 299.88 84.00 C 296.46 84.67 299.15 84.42 299.00 84.75 C 298.85 85.08 298.58 85.31 299.00 86.00 C 299.42 86.69 300.42 87.92 301.50 88.88 C 302.58 89.83 303.56 90.60 305.50 91.75 C 307.44 92.90 310.69 94.60 313.12 95.75 C 315.56 96.90 318.21 98.12 320.12 98.62 C 322.04 99.12 322.90 99.00 324.62 98.75 C 326.35 98.50 326.46 97.94 330.50 97.12 C 334.54 96.31 344.65 94.71 348.88 93.88 C 353.10 93.04 353.83 92.48 355.88 92.12 C 357.92 91.77 358.65 92.08 361.12 91.75 C 363.60 91.42 367.17 90.56 370.75 90.12 C 374.33 89.69 377.25 89.38 382.62 89.12 C 388.00 88.88 398.58 88.85 403.00 88.62 C 407.42 88.40 407.08 88.21 409.12 87.75 C 411.17 87.29 413.85 86.42 415.25 85.88 C 416.65 85.33 416.75 85.21 417.50 84.50 C 418.25 83.79 419.35 82.48 419.75 81.62 C 420.15 80.77 420.00 80.06 419.88 79.38 Z" id="s-5-f-0"/>
<clipPath id="c-s-5"><use href="#s-5-f-0"/></clipPath>
<path d="M 346.38 29.25 C 344.00 28.75 341.25 28.90 339.75 29.00 C 338.25 29.10 338.17 29.31 337.38 29.88 C 336.58 30.44 335.56 31.65 335.00 32.38 C 334.44 33.10 334.17 33.65 334.00 34.25 C 333.83 34.85 333.71 34.83 334.00 36.00 C 334.29 37.17 335.29 39.52 335.75 41.25 C 336.21 42.98 336.73 42.77 336.75 46.38 C 336.77 49.98 336.35 57.71 335.88 62.88 C 335.40 68.04 334.42 74.48 333.88 77.38 C 333.33 80.27 333.04 77.92 332.62 80.25 C 332.21 82.58 331.71 89.23 331.38 91.38 C 331.04 93.52 330.75 92.02 330.62 93.12 C 330.50 94.23 331.90 91.15 330.62 98.00 C 329.35 104.85 324.27 127.75 323.00 134.25 C 321.73 140.75 322.79 136.40 323.00 137.00 C 323.21 137.60 323.83 137.75 324.25 137.88 C 324.67 138.00 325.04 137.96 325.50 137.75 C 325.96 137.54 326.10 137.56 327.00 136.62 C 327.90 135.69 329.21 134.35 330.88 132.12 C 332.54 129.90 335.19 126.10 337.00 123.25 C 338.81 120.40 340.12 118.04 341.75 115.00 C 343.38 111.96 345.21 108.35 346.75 105.00 C 348.29 101.65 349.94 97.04 351.00 94.88 C 352.06 92.71 352.73 92.83 353.12 92.00 C 353.52 91.17 353.21 90.38 353.38 89.88 C 353.54 89.38 353.96 89.48 354.12 89.00 C 354.29 88.52 354.21 87.46 354.38 87.00 C 354.54 86.54 354.62 87.60 355.12 86.25 C 355.62 84.90 356.88 80.25 357.38 78.88 C 357.88 77.50 357.96 78.48 358.12 78.00 C 358.29 77.52 358.21 76.46 358.38 76.00 C 358.54 75.54 358.96 75.67 359.12 75.25 C 359.29 74.83 359.21 73.98 359.38 73.50 C 359.54 73.02 359.96 72.98 360.12 72.38 C 360.29 71.77 359.94 71.15 360.38 69.88 C 360.81 68.60 361.98 66.77 362.75 64.75 C 363.52 62.73 363.83 60.33 365.00 57.75 C 366.17 55.17 368.96 51.23 369.75 49.25 C 370.54 47.27 369.94 46.83 369.75 45.88 C 369.56 44.92 369.69 44.83 368.62 43.50 C 367.56 42.17 365.81 39.79 363.38 37.88 C 360.94 35.96 356.83 33.44 354.00 32.00 C 351.17 30.56 348.75 29.75 346.38 29.25 Z" id="s-6-f-0"/>
<clipPath id="c-s-6"><use href="#s-6-f-0"/></clipPath>
<path d="M 250.00 150.12 C 248.42 149.00 247.21 148.25 244.50 147.25 C 241.79 146.25 236.42 144.67 233.75 144.12 C 231.08 143.58 229.60 143.83 228.50 144.00 C 227.40 144.17 227.58 142.62 227.12 145.12 C 226.67 147.62 226.67 154.85 225.75 159.00 C 224.83 163.15 223.29 166.12 221.62 170.00 C 219.96 173.88 217.56 178.67 215.75 182.25 C 213.94 185.83 213.56 186.67 210.75 191.50 C 207.94 196.33 202.44 205.73 198.88 211.25 C 195.31 216.77 192.48 220.62 189.38 224.62 C 186.27 228.62 181.81 233.25 180.25 235.25 C 178.69 237.25 179.62 236.19 180.00 236.62 C 180.38 237.06 181.52 237.71 182.50 237.88 C 183.48 238.04 184.92 237.90 185.88 237.62 C 186.83 237.35 187.50 236.81 188.25 236.25 C 189.00 235.69 189.21 234.98 190.38 234.25 C 191.54 233.52 193.96 232.60 195.25 231.88 C 196.54 231.15 195.38 232.50 198.12 229.88 C 200.88 227.25 208.79 218.92 211.75 216.12 C 214.71 213.33 213.83 215.15 215.88 213.12 C 217.92 211.10 219.19 210.29 224.00 204.00 C 228.81 197.71 239.50 182.23 244.75 175.38 C 250.00 168.52 253.65 165.67 255.50 162.88 C 257.35 160.08 255.92 159.73 255.88 158.62 C 255.83 157.52 255.56 157.02 255.25 156.25 C 254.94 155.48 254.88 155.02 254.00 154.00 C 253.12 152.98 251.58 151.25 250.00 150.12 Z" id="s-7-f-0"/>
<clipPath id="c-s-7"><use href="#s-7-f-0"/></clipPath>
<path d="M 301.00 178.62 C 299.21 177.17 296.23 175.15 294.25 173.88 C 292.27 172.60 291.52 172.15 289.12 171.00 C 286.73 169.85 282.12 167.65 279.88 167.00 C 277.62 166.35 279.04 165.98 275.62 167.12 C 272.21 168.27 263.88 172.27 259.38 173.88 C 254.88 175.48 251.38 176.12 248.62 176.75 C 245.88 177.38 244.04 177.31 242.88 177.62 C 241.71 177.94 242.73 177.21 241.62 178.62 C 240.52 180.04 237.58 184.44 236.25 186.12 C 234.92 187.81 234.04 188.12 233.62 188.75 C 233.21 189.38 233.33 189.54 233.75 189.88 C 234.17 190.21 234.21 190.58 236.12 190.75 C 238.04 190.92 240.58 191.17 245.25 190.88 C 249.92 190.58 260.71 189.08 264.12 189.00 C 267.54 188.92 265.54 189.54 265.75 190.38 C 265.96 191.21 265.88 192.08 265.38 194.00 C 264.88 195.92 264.02 198.69 262.75 201.88 C 261.48 205.06 260.56 207.23 257.75 213.12 C 254.94 219.02 248.19 232.79 245.88 237.25 C 243.56 241.71 246.27 236.02 243.88 239.88 C 241.48 243.73 235.33 254.29 231.50 260.38 C 227.67 266.46 224.96 271.00 220.88 276.38 C 216.79 281.75 211.00 288.10 207.00 292.62 C 203.00 297.15 201.33 299.02 196.88 303.50 C 192.42 307.98 184.85 315.27 180.25 319.50 C 175.65 323.73 173.40 325.54 169.25 328.88 C 165.10 332.21 158.33 337.33 155.38 339.50 C 152.42 341.67 152.25 341.21 151.50 341.88 C 150.75 342.54 150.83 343.02 150.88 343.50 C 150.92 343.98 150.56 344.58 151.75 344.75 C 152.94 344.92 155.31 345.04 158.00 344.50 C 160.69 343.96 164.85 342.62 167.88 341.50 C 170.90 340.38 171.60 340.21 176.12 337.75 C 180.65 335.29 190.19 329.75 195.00 326.75 C 199.81 323.75 202.15 321.88 205.00 319.75 C 207.85 317.62 209.25 316.50 212.12 314.00 C 215.00 311.50 219.10 307.83 222.25 304.75 C 225.40 301.67 227.19 299.79 231.00 295.50 C 234.81 291.21 240.17 285.23 245.12 279.00 C 250.08 272.77 255.83 265.10 260.75 258.12 C 265.67 251.15 270.29 243.94 274.62 237.12 C 278.96 230.31 284.19 221.69 286.75 217.25 C 289.31 212.81 289.12 212.12 290.00 210.50 C 290.88 208.88 289.52 210.52 292.00 207.50 C 294.48 204.48 302.42 195.52 304.88 192.38 C 307.33 189.23 306.44 189.79 306.75 188.62 C 307.06 187.46 307.04 186.38 306.75 185.38 C 306.46 184.38 305.96 183.75 305.00 182.62 C 304.04 181.50 302.79 180.08 301.00 178.62 Z" id="s-8-f-0"/>
<clipPath id="c-s-8"><use href="#s-8-f-0"/></clipPath>
<path d="M 211.75 215.00 C 211.54 215.25 211.54 215.44 211.88 216.00 C 212.21 216.56 211.71 215.12 213.75 218.38 C 215.79 221.62 221.08 230.98 224.12 235.50 C 227.17 240.02 230.02 243.44 232.00 245.50 C 233.98 247.56 234.96 247.50 236.00 247.88 C 237.04 248.25 237.54 247.92 238.25 247.75 C 238.96 247.58 239.08 248.33 240.25 246.88 C 241.42 245.42 244.52 241.31 245.25 239.00 C 245.98 236.69 244.88 234.54 244.62 233.00 C 244.38 231.46 244.35 231.08 243.75 229.75 C 243.15 228.42 242.40 226.65 241.00 225.00 C 239.60 223.35 237.48 221.35 235.38 219.88 C 233.27 218.40 231.02 217.27 228.38 216.12 C 225.73 214.98 221.71 213.58 219.50 213.00 C 217.29 212.42 216.19 212.38 215.12 212.62 C 214.06 212.88 213.69 214.10 213.12 214.50 C 212.56 214.90 211.96 214.75 211.75 215.00 Z" id="s-9-f-0"/>
<clipPath id="c-s-9"><use href="#s-9-f-0"/></clipPath>
<path d="M 178.12 253.00 C 177.62 253.50 176.60 253.94 178.00 256.00 C 179.40 258.06 182.83 260.31 186.50 265.38 C 190.17 270.44 197.19 282.27 200.00 286.38 C 202.81 290.48 202.25 288.92 203.38 290.00 C 204.50 291.08 206.04 292.35 206.75 292.88 C 207.46 293.40 207.19 293.52 207.62 293.12 C 208.06 292.73 207.29 292.96 209.38 290.50 C 211.46 288.04 218.56 281.19 220.12 278.38 C 221.69 275.56 219.27 275.02 218.75 273.62 C 218.23 272.23 218.10 271.29 217.00 270.00 C 215.90 268.71 214.54 267.54 212.12 265.88 C 209.71 264.21 206.88 261.98 202.50 260.00 C 198.12 258.02 189.46 255.17 185.88 254.00 C 182.29 252.83 182.29 253.17 181.00 253.00 C 179.71 252.83 178.62 252.50 178.12 253.00 Z" id="s-10-f-0"/>
<clipPath id="c-s-10"><use href="#s-10-f-0"/></clipPath>
<path d="M 388.12 132.25 C 386.56 131.92 386.83 131.10 383.75 132.00 C 380.67 132.90 373.52 136.17 369.62 137.62 C 365.73 139.08 362.25 140.19 360.38 140.75 C 358.50 141.31 359.40 140.67 358.38 141.00 C 357.35 141.33 357.69 141.96 354.25 142.75 C 350.81 143.54 343.92 144.88 337.75 145.75 C 331.58 146.62 320.96 147.50 317.25 148.00 C 313.54 148.50 315.90 148.48 315.50 148.75 C 315.10 149.02 314.94 149.19 314.88 149.62 C 314.81 150.06 314.23 150.23 315.12 151.38 C 316.02 152.52 318.33 154.94 320.25 156.50 C 322.17 158.06 324.56 159.54 326.62 160.75 C 328.69 161.96 331.10 163.27 332.62 163.75 C 334.15 164.23 331.85 165.08 335.75 163.62 C 339.65 162.17 352.35 156.48 356.00 155.00 C 359.65 153.52 355.75 155.44 357.62 154.75 C 359.50 154.06 364.29 151.67 367.25 150.88 C 370.21 150.08 373.44 149.90 375.38 150.00 C 377.31 150.10 378.15 151.00 378.88 151.50 C 379.60 152.00 379.60 152.48 379.75 153.00 C 379.90 153.52 379.92 153.90 379.75 154.62 C 379.58 155.35 379.21 156.46 378.75 157.38 C 378.29 158.29 378.02 157.88 377.00 160.12 C 375.98 162.38 374.19 167.33 372.62 170.88 C 371.06 174.42 370.40 176.12 367.62 181.38 C 364.85 186.62 357.77 198.60 356.00 202.38 C 354.23 206.15 355.58 202.75 357.00 204.00 C 358.42 205.25 362.96 208.96 364.50 209.88 C 366.04 210.79 362.79 213.06 366.25 209.50 C 369.71 205.94 381.00 193.08 385.25 188.50 C 389.50 183.92 388.21 185.21 391.75 182.00 C 395.29 178.79 402.46 172.52 406.50 169.25 C 410.54 165.98 413.94 164.02 416.00 162.38 C 418.06 160.73 418.25 160.19 418.88 159.38 C 419.50 158.56 419.60 158.44 419.75 157.50 C 419.90 156.56 419.92 154.79 419.75 153.75 C 419.58 152.71 419.23 152.08 418.75 151.25 C 418.27 150.42 417.92 149.85 416.88 148.75 C 415.83 147.65 414.29 146.04 412.50 144.62 C 410.71 143.21 409.35 142.02 406.12 140.25 C 402.90 138.48 396.12 135.33 393.12 134.00 C 390.12 132.67 389.69 132.58 388.12 132.25 Z" id="s-11-f-0"/>
<clipPath id="c-s-11"><use href="#s-11-f-0"/></clipPath>
<path d="M 315.25 190.62 C 314.73 191.50 314.69 192.52 314.88 193.38 C 315.06 194.23 315.46 195.12 316.38 195.75 C 317.29 196.38 318.56 196.25 320.38 197.12 C 322.19 198.00 325.02 199.56 327.25 201.00 C 329.48 202.44 331.67 204.08 333.75 205.75 C 335.83 207.42 336.65 207.94 339.75 211.00 C 342.85 214.06 345.67 216.73 352.38 224.12 C 359.08 231.52 373.04 247.62 380.00 255.38 C 386.96 263.12 389.75 266.04 394.12 270.62 C 398.50 275.21 402.81 279.71 406.25 282.88 C 409.69 286.04 412.21 287.98 414.75 289.62 C 417.29 291.27 419.73 292.06 421.50 292.75 C 423.27 293.44 423.40 293.58 425.38 293.75 C 427.35 293.92 431.02 293.92 433.38 293.75 C 435.73 293.58 435.52 293.75 439.50 292.75 C 443.48 291.75 451.50 289.60 457.25 287.75 C 463.00 285.90 470.75 282.94 474.00 281.62 C 477.25 280.31 475.98 280.60 476.75 279.88 C 477.52 279.15 478.27 278.15 478.62 277.25 C 478.98 276.35 479.08 275.23 478.88 274.50 C 478.67 273.77 481.00 274.33 477.38 272.88 C 473.75 271.42 463.50 268.10 457.12 265.75 C 450.75 263.40 444.52 260.94 439.12 258.75 C 433.73 256.56 429.15 254.62 424.75 252.62 C 420.35 250.62 416.31 248.77 412.75 246.75 C 409.19 244.73 407.27 243.31 403.38 240.50 C 399.48 237.69 396.96 236.02 389.38 229.88 C 381.79 223.73 363.54 208.21 357.88 203.62 C 352.21 199.04 357.33 203.81 355.38 202.38 C 353.42 200.94 349.00 197.04 346.12 195.00 C 343.25 192.96 340.73 191.44 338.12 190.12 C 335.52 188.81 332.71 187.67 330.50 187.12 C 328.29 186.58 326.42 186.88 324.88 186.88 C 323.33 186.88 322.40 186.92 321.25 187.12 C 320.10 187.33 319.00 187.54 318.00 188.12 C 317.00 188.71 315.77 189.75 315.25 190.62 Z" id="s-12-f-0"/>
<clipPath id="c-s-12"><use href="#s-12-f-0"/></clipPath>
<path d="M 359.88 265.75 C 359.79 265.10 359.69 264.65 359.12 263.88 C 358.56 263.10 358.56 262.42 356.50 261.12 C 354.44 259.83 349.96 257.46 346.75 256.12 C 343.54 254.79 339.81 253.60 337.25 253.12 C 334.69 252.65 332.79 252.96 331.38 253.25 C 329.96 253.54 330.79 254.15 328.75 254.88 C 326.71 255.60 325.31 256.17 319.12 257.62 C 312.94 259.08 299.15 262.10 291.62 263.62 C 284.10 265.15 278.73 266.00 274.00 266.75 C 269.27 267.50 265.52 267.75 263.25 268.12 C 260.98 268.50 261.06 268.65 260.38 269.00 C 259.69 269.35 259.38 269.85 259.12 270.25 C 258.88 270.65 258.75 270.77 258.88 271.38 C 259.00 271.98 259.06 272.75 259.88 273.88 C 260.69 275.00 262.25 276.98 263.75 278.12 C 265.25 279.27 265.98 279.98 268.88 280.75 C 271.77 281.52 276.88 282.42 281.12 282.75 C 285.38 283.08 288.73 283.25 294.38 282.75 C 300.02 282.25 305.77 281.44 315.00 279.75 C 324.23 278.06 342.69 274.27 349.75 272.62 C 356.81 270.98 355.73 270.69 357.38 269.88 C 359.02 269.06 359.21 268.44 359.62 267.75 C 360.04 267.06 359.96 266.40 359.88 265.75 Z" id="s-13-f-0"/>
<clipPath id="c-s-13"><use href="#s-13-f-0"/></clipPath>
<path d="M 404.88 322.62 C 404.75 321.94 404.52 321.58 403.88 320.75 C 403.23 319.92 402.25 318.77 401.00 317.62 C 399.75 316.48 398.12 315.15 396.38 313.88 C 394.62 312.60 393.65 311.31 390.50 310.00 C 387.35 308.69 380.15 306.69 377.50 306.00 C 374.85 305.31 376.44 305.71 374.62 305.88 C 372.81 306.04 370.79 306.21 366.62 307.00 C 362.46 307.79 360.60 308.69 349.62 310.62 C 338.65 312.56 322.42 315.38 300.75 318.62 C 279.08 321.88 233.71 328.08 219.62 330.12 C 205.54 332.17 216.88 330.54 216.25 330.88 C 215.62 331.21 215.71 331.52 215.88 332.12 C 216.04 332.73 216.62 333.73 217.25 334.50 C 217.88 335.27 217.56 335.54 219.62 336.75 C 221.69 337.96 227.08 340.60 229.62 341.75 C 232.17 342.90 233.23 343.15 234.88 343.62 C 236.52 344.10 237.50 344.44 239.50 344.62 C 241.50 344.81 243.46 345.17 246.88 344.75 C 250.29 344.33 251.06 343.44 260.00 342.12 C 268.94 340.81 290.96 338.25 300.50 336.88 C 310.04 335.50 308.27 334.85 317.25 333.88 C 326.23 332.90 341.65 331.69 354.38 331.00 C 367.10 330.31 385.75 330.29 393.62 329.75 C 401.50 329.21 400.04 328.25 401.62 327.75 C 403.21 327.25 402.62 327.23 403.12 326.75 C 403.62 326.27 404.33 325.56 404.62 324.88 C 404.92 324.19 405.00 323.31 404.88 322.62 Z" id="s-14-f-0"/>
<clipPath id="c-s-14"><use href="#s-14-f-0"/></clipPath>
<path d="M 305.75 335.50 C 303.46 335.08 302.62 335.46 301.38 335.62 C 300.12 335.79 299.58 336.31 298.25 336.50 C 296.92 336.69 294.54 336.58 293.38 336.75 C 292.21 336.92 292.42 337.33 291.25 337.50 C 290.08 337.67 287.58 337.52 286.38 337.75 C 285.17 337.98 284.23 338.29 284.00 338.88 C 283.77 339.46 284.06 339.81 285.00 341.25 C 285.94 342.69 288.38 345.50 289.62 347.50 C 290.88 349.50 291.48 350.62 292.50 353.25 C 293.52 355.88 294.88 360.02 295.75 363.25 C 296.62 366.48 297.25 369.12 297.75 372.62 C 298.25 376.12 298.62 379.69 298.75 384.25 C 298.88 388.81 298.83 394.83 298.50 400.00 C 298.17 405.17 297.42 411.54 296.75 415.25 C 296.08 418.96 295.42 420.38 294.50 422.25 C 293.58 424.12 292.10 425.58 291.25 426.50 C 290.40 427.42 290.35 427.38 289.38 427.75 C 288.40 428.12 286.46 428.58 285.38 428.75 C 284.29 428.92 284.10 428.92 282.88 428.75 C 281.65 428.58 281.02 428.71 278.00 427.75 C 274.98 426.79 267.52 423.79 264.75 423.00 C 261.98 422.21 262.19 422.73 261.38 423.00 C 260.56 423.27 260.08 424.06 259.88 424.62 C 259.67 425.19 258.96 424.71 260.12 426.38 C 261.29 428.04 264.31 431.17 266.88 434.62 C 269.44 438.08 272.77 442.77 275.50 447.12 C 278.23 451.48 280.94 457.31 283.25 460.75 C 285.56 464.19 287.83 466.25 289.38 467.75 C 290.92 469.25 291.25 469.44 292.50 469.75 C 293.75 470.06 295.42 469.96 296.88 469.62 C 298.33 469.29 299.54 468.83 301.25 467.75 C 302.96 466.67 305.19 464.94 307.12 463.12 C 309.06 461.31 311.12 459.04 312.88 456.88 C 314.62 454.71 316.33 452.31 317.62 450.12 C 318.92 447.94 319.79 445.85 320.62 443.75 C 321.46 441.65 322.10 439.67 322.62 437.50 C 323.15 435.33 323.56 434.15 323.75 430.75 C 323.94 427.35 324.04 421.44 323.75 417.12 C 323.46 412.81 322.62 410.48 322.00 404.88 C 321.38 399.27 320.33 388.40 320.00 383.50 C 319.67 378.60 319.85 379.02 320.00 375.50 C 320.15 371.98 320.38 366.15 320.88 362.38 C 321.38 358.60 322.52 354.69 323.00 352.88 C 323.48 351.06 323.62 352.38 323.75 351.50 C 323.88 350.62 324.06 349.02 323.75 347.62 C 323.44 346.23 322.71 344.40 321.88 343.12 C 321.04 341.85 319.88 340.83 318.75 340.00 C 317.62 339.17 317.29 338.88 315.12 338.12 C 312.96 337.38 308.04 335.92 305.75 335.50 Z" id="s-15-f-0"/>
<clipPath id="c-s-15"><use href="#s-15-f-0"/></clipPath>
<path d="M 260.88 377.50 C 259.96 376.27 259.56 375.65 257.25 373.88 C 254.94 372.10 249.71 368.35 247.00 366.88 C 244.29 365.40 242.79 365.33 241.00 365.00 C 239.21 364.67 237.29 364.83 236.25 364.88 C 235.21 364.92 235.29 364.88 234.75 365.25 C 234.21 365.62 233.35 366.19 233.00 367.12 C 232.65 368.06 233.17 368.92 232.62 370.88 C 232.08 372.83 230.71 376.62 229.75 378.88 C 228.79 381.12 229.25 380.81 226.88 384.38 C 224.50 387.94 218.90 395.75 215.50 400.25 C 212.10 404.75 210.04 407.27 206.50 411.38 C 202.96 415.48 198.00 420.98 194.25 424.88 C 190.50 428.77 185.71 432.96 184.00 434.75 C 182.29 436.54 183.75 435.29 184.00 435.62 C 184.25 435.96 184.44 436.58 185.50 436.75 C 186.56 436.92 187.02 437.46 190.38 436.62 C 193.73 435.79 200.65 433.71 205.62 431.75 C 210.60 429.79 216.10 427.23 220.25 424.88 C 224.40 422.52 227.04 420.29 230.50 417.62 C 233.96 414.96 237.23 412.65 241.00 408.88 C 244.77 405.10 249.58 398.83 253.12 395.00 C 256.67 391.17 260.62 387.62 262.25 385.88 C 263.88 384.12 262.79 385.27 262.88 384.50 C 262.96 383.73 263.08 382.42 262.75 381.25 C 262.42 380.08 261.79 378.73 260.88 377.50 Z" id="s-16-f-0"/>
<clipPath id="c-s-16"><use href="#s-16-f-0"/></clipPath>
<path d="M 350.00 365.75 C 349.88 366.19 349.79 367.02 350.00 367.62 C 350.21 368.23 349.71 367.94 351.25 369.38 C 352.79 370.81 356.33 373.40 359.25 376.25 C 362.17 379.10 363.75 380.42 368.75 386.50 C 373.75 392.58 384.90 407.29 389.25 412.75 C 393.60 418.21 392.81 417.06 394.88 419.25 C 396.94 421.44 399.60 424.12 401.62 425.88 C 403.65 427.62 405.10 428.60 407.00 429.75 C 408.90 430.90 411.29 432.29 413.00 432.75 C 414.71 433.21 415.96 433.02 417.25 432.50 C 418.54 431.98 419.83 430.73 420.75 429.62 C 421.67 428.52 422.25 427.21 422.75 425.88 C 423.25 424.54 423.60 424.00 423.75 421.62 C 423.90 419.25 424.00 414.48 423.62 411.62 C 423.25 408.77 422.29 406.52 421.50 404.50 C 420.71 402.48 419.83 401.02 418.88 399.50 C 417.92 397.98 416.85 396.62 415.75 395.38 C 414.65 394.12 414.40 393.73 412.25 392.00 C 410.10 390.27 405.85 387.02 402.88 385.00 C 399.90 382.98 398.48 382.00 394.38 379.88 C 390.27 377.75 382.27 374.04 378.25 372.25 C 374.23 370.46 373.31 370.17 370.25 369.12 C 367.19 368.08 362.79 366.71 359.88 366.00 C 356.96 365.29 354.27 365.04 352.75 364.88 C 351.23 364.71 351.21 364.85 350.75 365.00 C 350.29 365.15 350.12 365.31 350.00 365.75 Z" id="s-17-f-0"/>
<clipPath id="c-s-17"><use href="#s-17-f-0"/></clipPath>
</defs>
<g id="s-0" clip-path="url(#c-s-0)">
<use href="#s-0-f-0"/>
<path d="M 192.88 167.50 C 192.27 166.00 191.15 165.08 189.38 164.00 C 187.60 162.92 185.33 161.98 182.25 161.00 C 179.17 160.02 173.83 158.62 170.88 158.12 C 167.92 157.62 167.90 157.06 164.50 158.00 C 161.10 158.94 158.27 161.27 150.50 163.75 C 142.73 166.23 123.48 171.23 117.88 172.88 C 112.27 174.52 123.12 172.17 116.88 173.62 C 110.62 175.08 89.40 179.77 80.38 181.62 C 71.35 183.48 67.35 184.02 62.75 184.75 C 58.15 185.48 54.96 185.52 52.75 186.00 C 50.54 186.48 50.15 187.08 49.50 187.62 C 48.85 188.17 48.67 188.46 48.88 189.25 C 49.08 190.04 49.48 191.10 50.75 192.38 C 52.02 193.65 54.88 195.81 56.50 196.88 C 58.12 197.94 59.35 198.31 60.50 198.75 C 61.65 199.19 61.48 199.17 63.38 199.50 C 65.27 199.83 69.52 200.52 71.88 200.75 C 74.23 200.98 75.02 200.88 77.50 200.88 C 79.98 200.88 83.65 200.96 86.75 200.75 C 89.85 200.54 91.40 200.42 96.12 199.62 C 100.85 198.83 111.65 196.60 115.12 196.00 C 118.60 195.40 113.50 196.69 117.00 196.00 C 120.50 195.31 132.65 192.69 136.12 191.88 C 139.60 191.06 136.94 191.31 137.88 191.12 C 138.81 190.94 140.81 190.94 141.75 190.75 C 142.69 190.56 141.04 190.52 143.50 190.00 C 145.96 189.48 152.06 188.52 156.50 187.62 C 160.94 186.73 166.19 185.60 170.12 184.62 C 174.06 183.65 177.21 182.73 180.12 181.75 C 183.04 180.77 185.60 179.81 187.62 178.75 C 189.65 177.69 191.35 176.33 192.25 175.38 C 193.15 174.42 192.90 174.31 193.00 173.00 C 193.10 171.69 193.48 169.00 192.88 167.50 Z" id="s-0-f-1"/>
<path d="M 144.75 166.12 C 144.67 162.12 145.29 165.50 144.25 165.62 C 143.21 165.75 142.90 165.67 138.50 166.88 C 134.10 168.08 121.48 171.75 117.88 172.88 C 114.27 174.00 120.00 172.81 116.88 173.62 C 113.75 174.44 107.04 176.08 99.12 177.75 C 91.21 179.42 77.10 182.25 69.38 183.62 C 61.65 185.00 56.06 185.33 52.75 186.00 C 49.44 186.67 50.15 187.08 49.50 187.62 C 48.85 188.17 48.90 188.75 48.88 189.25 C 48.85 189.75 48.90 189.94 49.38 190.62 C 49.85 191.31 50.56 192.33 51.75 193.38 C 52.94 194.42 55.04 195.98 56.50 196.88 C 57.96 197.77 58.12 198.12 60.50 198.75 C 62.88 199.38 66.38 200.29 70.75 200.62 C 75.12 200.96 82.52 200.92 86.75 200.75 C 90.98 200.58 91.40 200.42 96.12 199.62 C 100.85 198.83 111.65 196.60 115.12 196.00 C 118.60 195.40 113.50 196.69 117.00 196.00 C 120.50 195.31 132.65 192.69 136.12 191.88 C 139.60 191.06 136.94 191.31 137.88 191.12 C 138.81 190.94 140.60 191.00 141.75 190.75 C 142.90 190.50 144.25 193.73 144.75 189.62 C 145.25 185.52 144.83 170.12 144.75 166.12 Z" id="s-0-f-2"/>
<path d="M 96.88 178.62 C 96.73 175.40 99.90 177.44 96.12 178.12 C 92.35 178.81 81.48 181.44 74.25 182.75 C 67.02 184.06 56.88 185.19 52.75 186.00 C 48.62 186.81 50.15 187.08 49.50 187.62 C 48.85 188.17 48.67 188.46 48.88 189.25 C 49.08 190.04 49.48 191.10 50.75 192.38 C 52.02 193.65 54.88 195.81 56.50 196.88 C 58.12 197.94 59.35 198.31 60.50 198.75 C 61.65 199.19 61.48 199.17 63.38 199.50 C 65.27 199.83 69.52 200.52 71.88 200.75 C 74.23 200.98 75.02 200.88 77.50 200.88 C 79.98 200.88 83.69 200.96 86.75 200.75 C 89.81 200.54 94.19 199.92 95.88 199.62 C 97.56 199.33 96.69 199.35 96.88 199.00 C 97.06 198.65 97.00 200.90 97.00 197.50 C 97.00 194.10 97.02 181.85 96.88 178.62 Z" id="s-0-f-3"/>
</g>
<g id="s-1" clip-path="url(#c-s-1)">
<use href="#s-1-f-0"/>
<path d="M 112.75 49.88 C 111.54 49.88 111.29 49.75 110.25 50.12 C 109.21 50.50 107.38 51.48 106.50 52.12 C 105.62 52.77 105.44 52.98 105.00 54.00 C 104.56 55.02 104.04 57.04 103.88 58.25 C 103.71 59.46 103.79 59.96 104.00 61.25 C 104.21 62.54 104.50 64.10 105.12 66.00 C 105.75 67.90 106.98 70.31 107.75 72.62 C 108.52 74.94 109.08 76.60 109.75 79.88 C 110.42 83.15 111.23 88.38 111.75 92.25 C 112.27 96.12 112.38 95.88 112.88 103.12 C 113.38 110.38 114.27 124.81 114.75 135.75 C 115.23 146.69 115.58 154.25 115.75 168.75 C 115.92 183.25 115.90 206.40 115.75 222.75 C 115.60 239.10 115.52 248.94 114.88 266.88 C 114.23 284.81 112.71 314.88 111.88 330.38 C 111.04 345.88 110.44 352.73 109.88 359.88 C 109.31 367.02 109.02 369.10 108.50 373.25 C 107.98 377.40 107.33 381.83 106.75 384.75 C 106.17 387.67 105.44 388.42 105.00 390.75 C 104.56 393.08 104.67 390.71 104.12 398.75 C 103.58 406.79 102.10 432.08 101.75 439.00 C 101.40 445.92 101.60 439.52 102.00 440.25 C 102.40 440.98 103.15 442.12 104.12 443.38 C 105.10 444.62 106.54 446.52 107.88 447.75 C 109.21 448.98 110.98 450.23 112.12 450.75 C 113.27 451.27 113.85 451.08 114.75 450.88 C 115.65 450.67 116.50 450.25 117.50 449.50 C 118.50 448.75 119.54 447.77 120.75 446.38 C 121.96 444.98 122.75 444.17 124.75 441.12 C 126.75 438.08 130.77 431.92 132.75 428.12 C 134.73 424.33 135.62 421.75 136.62 418.38 C 137.62 415.00 138.40 415.31 138.75 407.88 C 139.10 400.44 138.88 382.54 138.75 373.75 C 138.62 364.96 138.15 376.12 138.00 355.12 C 137.85 334.12 137.73 275.04 137.88 247.75 C 138.02 220.46 138.50 202.40 138.88 191.38 C 139.25 180.35 139.94 186.02 140.12 181.62 C 140.31 177.23 139.35 175.04 140.00 165.00 C 140.65 154.96 143.00 130.77 144.00 121.38 C 145.00 111.98 145.00 113.12 146.00 108.62 C 147.00 104.12 149.00 97.54 150.00 94.38 C 151.00 91.21 151.02 91.50 152.00 89.62 C 152.98 87.75 155.08 84.58 155.88 83.12 C 156.67 81.67 156.58 81.65 156.75 80.88 C 156.92 80.10 157.06 79.65 156.88 78.50 C 156.69 77.35 156.25 75.38 155.62 74.00 C 155.00 72.62 154.46 71.75 153.12 70.25 C 151.79 68.75 149.27 66.38 147.62 65.00 C 145.98 63.62 145.79 63.50 143.25 62.00 C 140.71 60.50 135.67 57.67 132.38 56.00 C 129.08 54.33 125.98 52.98 123.50 52.00 C 121.02 51.02 119.29 50.48 117.50 50.12 C 115.71 49.77 113.96 49.88 112.75 49.88 Z" id="s-1-f-1"/>
<path d="M 112.75 49.88 C 111.54 49.88 111.29 49.75 110.25 50.12 C 109.21 50.50 107.38 51.48 106.50 52.12 C 105.62 52.77 105.44 53.00 105.00 54.00 C 104.56 55.00 104.04 56.92 103.88 58.12 C 103.71 59.33 103.79 59.94 104.00 61.25 C 104.21 62.56 104.50 64.10 105.12 66.00 C 105.75 67.90 106.98 70.31 107.75 72.62 C 108.52 74.94 109.08 76.60 109.75 79.88 C 110.42 83.15 111.23 88.38 111.75 92.25 C 112.27 96.12 112.38 95.88 112.88 103.12 C 113.38 110.38 114.27 124.81 114.75 135.75 C 115.23 146.69 115.58 154.25 115.75 168.75 C 115.92 183.25 115.90 206.40 115.75 222.75 C 115.60 239.10 115.52 248.94 114.88 266.88 C 114.23 284.81 112.71 314.88 111.88 330.38 C 111.04 345.88 110.44 352.73 109.88 359.88 C 109.31 367.02 109.02 369.10 108.50 373.25 C 107.98 377.40 107.33 381.83 106.75 384.75 C 106.17 387.67 105.81 382.65 105.00 390.75 C 104.19 398.85 102.31 426.19 101.88 433.38 C 101.44 440.56 97.90 433.77 102.38 433.88 C 106.85 433.98 124.19 434.08 128.75 434.00 C 133.31 433.92 128.77 435.02 129.75 433.38 C 130.73 431.73 133.31 427.23 134.62 424.12 C 135.94 421.02 136.92 417.65 137.62 414.75 C 138.33 411.85 138.69 413.58 138.88 406.75 C 139.06 399.92 138.90 382.35 138.75 373.75 C 138.60 365.15 138.12 378.77 138.00 355.12 C 137.88 331.48 137.85 259.17 138.00 231.88 C 138.15 204.58 138.54 199.23 138.88 191.38 C 139.21 183.52 139.81 189.15 140.00 184.75 C 140.19 180.35 139.83 170.62 140.00 165.00 C 140.17 159.38 140.33 158.27 141.00 151.00 C 141.67 143.73 143.17 128.44 144.00 121.38 C 144.83 114.31 145.00 113.12 146.00 108.62 C 147.00 104.12 149.00 97.54 150.00 94.38 C 151.00 91.21 151.02 91.50 152.00 89.62 C 152.98 87.75 155.08 84.58 155.88 83.12 C 156.67 81.67 156.58 81.65 156.75 80.88 C 156.92 80.10 157.06 79.65 156.88 78.50 C 156.69 77.35 156.25 75.38 155.62 74.00 C 155.00 72.62 154.46 71.75 153.12 70.25 C 151.79 68.75 149.27 66.38 147.62 65.00 C 145.98 63.62 145.79 63.50 143.25 62.00 C 140.71 60.50 135.67 57.67 132.38 56.00 C 129.08 54.33 125.98 52.98 123.50 52.00 C 121.02 51.02 119.29 50.48 117.50 50.12 C 115.71 49.77 113.96 49.88 112.75 49.88 Z" id="s-1-f-2"/>
<path d="M 110.62 50.00 C 109.12 50.19 108.67 50.50 107.75 51.12 C 106.83 51.75 105.75 52.83 105.12 53.75 C 104.50 54.67 104.21 55.52 104.00 56.62 C 103.79 57.73 103.69 58.81 103.88 60.38 C 104.06 61.94 104.48 63.96 105.12 66.00 C 105.77 68.04 106.98 70.31 107.75 72.62 C 108.52 74.94 109.08 76.60 109.75 79.88 C 110.42 83.15 111.23 88.38 111.75 92.25 C 112.27 96.12 112.38 95.88 112.88 103.12 C 113.38 110.38 114.27 124.81 114.75 135.75 C 115.23 146.69 115.58 154.25 115.75 168.75 C 115.92 183.25 115.90 206.40 115.75 222.75 C 115.60 239.10 115.19 256.98 114.88 266.88 C 114.56 276.77 114.06 277.33 113.88 282.12 C 113.69 286.92 113.94 289.85 113.75 295.62 C 113.56 301.40 113.42 305.79 112.75 316.75 C 112.08 327.71 110.77 349.92 109.75 361.38 C 108.73 372.83 106.75 381.40 106.62 385.50 C 106.50 389.60 104.02 385.94 109.00 386.00 C 113.98 386.06 131.60 386.02 136.50 385.88 C 141.40 385.73 138.00 386.58 138.38 385.12 C 138.75 383.67 138.81 382.12 138.75 377.12 C 138.69 372.12 138.15 376.67 138.00 355.12 C 137.85 333.58 137.73 275.17 137.88 247.88 C 138.02 220.58 138.50 202.42 138.88 191.38 C 139.25 180.33 139.94 186.02 140.12 181.62 C 140.31 177.23 139.35 175.04 140.00 165.00 C 140.65 154.96 143.00 130.77 144.00 121.38 C 145.00 111.98 145.00 113.12 146.00 108.62 C 147.00 104.12 149.00 97.54 150.00 94.38 C 151.00 91.21 151.02 91.50 152.00 89.62 C 152.98 87.75 155.08 84.58 155.88 83.12 C 156.67 81.67 156.58 81.65 156.75 80.88 C 156.92 80.10 157.06 79.65 156.88 78.50 C 156.69 77.35 156.25 75.38 155.62 74.00 C 155.00 72.62 154.46 71.75 153.12 70.25 C 151.79 68.75 149.27 66.38 147.62 65.00 C 145.98 63.62 145.79 63.50 143.25 62.00 C 140.71 60.50 135.67 57.67 132.38 56.00 C 129.08 54.33 126.10 53.00 123.50 52.00 C 120.90 51.00 118.90 50.33 116.75 50.00 C 114.60 49.67 112.12 49.81 110.62 50.00 Z" id="s-1-f-3"/>
<path d="M 110.62 50.00 C 109.12 50.19 108.67 50.50 107.75 51.12 C 106.83 51.75 105.75 52.83 105.12 53.75 C 104.50 54.67 104.21 55.52 104.00 56.62 C 103.79 57.73 103.69 58.81 103.88 60.38 C 104.06 61.94 104.29 63.35 105.12 66.00 C 105.96 68.65 107.77 71.88 108.88 76.25 C 109.98 80.62 110.92 85.35 111.75 92.25 C 112.58 99.15 113.21 104.88 113.88 117.62 C 114.54 130.38 115.44 151.23 115.75 168.75 C 116.06 186.27 115.90 206.40 115.75 222.75 C 115.60 239.10 115.19 256.98 114.88 266.88 C 114.56 276.77 114.06 277.33 113.88 282.12 C 113.69 286.92 113.94 289.85 113.75 295.62 C 113.56 301.40 113.17 309.79 112.75 316.75 C 112.33 323.71 111.42 333.85 111.25 337.38 C 111.08 340.90 111.40 337.77 111.75 337.88 C 112.10 337.98 109.08 338.00 113.38 338.00 C 117.67 338.00 133.42 338.56 137.50 337.88 C 141.58 337.19 137.77 352.94 137.88 333.88 C 137.98 314.81 137.96 247.25 138.12 223.50 C 138.29 199.75 138.56 197.83 138.88 191.38 C 139.19 184.92 139.81 189.15 140.00 184.75 C 140.19 180.35 139.83 170.62 140.00 165.00 C 140.17 159.38 140.33 158.27 141.00 151.00 C 141.67 143.73 143.17 128.44 144.00 121.38 C 144.83 114.31 144.96 113.25 146.00 108.62 C 147.04 104.00 149.25 96.79 150.25 93.62 C 151.25 90.46 151.10 91.27 152.00 89.62 C 152.90 87.98 154.83 85.21 155.62 83.75 C 156.42 82.29 156.54 81.75 156.75 80.88 C 156.96 80.00 157.06 79.65 156.88 78.50 C 156.69 77.35 156.25 75.38 155.62 74.00 C 155.00 72.62 154.46 71.75 153.12 70.25 C 151.79 68.75 149.27 66.38 147.62 65.00 C 145.98 63.62 145.79 63.50 143.25 62.00 C 140.71 60.50 135.67 57.67 132.38 56.00 C 129.08 54.33 126.10 53.00 123.50 52.00 C 120.90 51.00 118.90 50.33 116.75 50.00 C 114.60 49.67 112.12 49.81 110.62 50.00 Z" id="s-1-f-4"/>
<path d="M 110.62 50.00 C 109.12 50.19 108.67 50.50 107.75 51.12 C 106.83 51.75 105.75 52.83 105.12 53.75 C 104.50 54.67 104.21 55.52 104.00 56.62 C 103.79 57.73 103.69 58.81 103.88 60.38 C 104.06 61.94 104.29 63.35 105.12 66.00 C 105.96 68.65 107.94 73.04 108.88 76.25 C 109.81 79.46 110.08 80.77 110.75 85.25 C 111.42 89.73 112.21 94.71 112.88 103.12 C 113.54 111.54 114.27 124.81 114.75 135.75 C 115.23 146.69 115.58 154.25 115.75 168.75 C 115.92 183.25 115.90 206.40 115.75 222.75 C 115.60 239.10 115.21 255.75 114.88 266.88 C 114.54 278.00 113.62 285.65 113.75 289.50 C 113.88 293.35 111.69 289.92 115.62 290.00 C 119.56 290.08 133.67 290.21 137.38 290.00 C 141.08 289.79 137.77 298.44 137.88 288.75 C 137.98 279.06 137.83 248.10 138.00 231.88 C 138.17 215.65 138.54 199.23 138.88 191.38 C 139.21 183.52 139.81 189.15 140.00 184.75 C 140.19 180.35 139.83 170.62 140.00 165.00 C 140.17 159.38 140.33 158.27 141.00 151.00 C 141.67 143.73 143.17 128.44 144.00 121.38 C 144.83 114.31 144.98 113.19 146.00 108.62 C 147.02 104.06 148.33 98.62 150.12 94.00 C 151.92 89.38 155.65 83.67 156.75 80.88 C 157.85 78.08 156.94 78.40 156.75 77.25 C 156.56 76.10 156.23 75.17 155.62 74.00 C 155.02 72.83 154.46 71.75 153.12 70.25 C 151.79 68.75 149.56 66.54 147.62 65.00 C 145.69 63.46 144.04 62.50 141.50 61.00 C 138.96 59.50 135.38 57.50 132.38 56.00 C 129.38 54.50 126.10 53.00 123.50 52.00 C 120.90 51.00 118.90 50.33 116.75 50.00 C 114.60 49.67 112.12 49.81 110.62 50.00 Z" id="s-1-f-5"/>
<path d="M 110.75 50.00 C 109.25 50.19 108.69 50.50 107.75 51.12 C 106.81 51.75 105.75 52.83 105.12 53.75 C 104.50 54.67 104.21 55.52 104.00 56.62 C 103.79 57.73 103.69 58.81 103.88 60.38 C 104.06 61.94 104.29 63.35 105.12 66.00 C 105.96 68.65 107.98 73.31 108.88 76.25 C 109.77 79.19 109.90 79.81 110.50 83.62 C 111.10 87.44 111.96 93.83 112.50 99.12 C 113.04 104.42 113.21 103.77 113.75 115.38 C 114.29 126.98 115.46 155.42 115.75 168.75 C 116.04 182.08 115.48 190.79 115.50 195.38 C 115.52 199.96 115.92 188.58 115.88 196.25 C 115.83 203.92 115.00 233.75 115.25 241.38 C 115.50 249.00 113.62 241.96 117.38 242.00 C 121.12 242.04 134.17 250.08 137.75 241.62 C 141.33 233.17 138.48 201.25 138.88 191.25 C 139.27 181.25 139.94 186.00 140.12 181.62 C 140.31 177.25 139.83 170.42 140.00 165.00 C 140.17 159.58 140.44 156.60 141.12 149.12 C 141.81 141.65 143.31 126.88 144.12 120.12 C 144.94 113.38 145.35 111.90 146.00 108.62 C 146.65 105.35 147.00 103.67 148.00 100.50 C 149.00 97.33 150.88 92.15 152.00 89.62 C 153.12 87.10 153.96 86.83 154.75 85.38 C 155.54 83.92 156.42 82.21 156.75 80.88 C 157.08 79.54 157.08 78.79 156.75 77.38 C 156.42 75.96 155.35 73.56 154.75 72.38 C 154.15 71.19 154.31 71.48 153.12 70.25 C 151.94 69.02 149.56 66.54 147.62 65.00 C 145.69 63.46 143.73 62.33 141.50 61.00 C 139.27 59.67 137.25 58.50 134.25 57.00 C 131.25 55.50 126.42 53.17 123.50 52.00 C 120.58 50.83 118.88 50.33 116.75 50.00 C 114.62 49.67 112.25 49.81 110.75 50.00 Z" id="s-1-f-6"/>
<path d="M 110.75 50.00 C 109.25 50.19 108.69 50.50 107.75 51.12 C 106.81 51.75 105.75 52.83 105.12 53.75 C 104.50 54.67 104.21 55.52 104.00 56.62 C 103.79 57.73 103.69 58.81 103.88 60.38 C 104.06 61.94 104.48 63.96 105.12 66.00 C 105.77 68.04 107.00 70.44 107.75 72.62 C 108.50 74.81 108.79 74.29 109.62 79.12 C 110.46 83.96 111.90 92.19 112.75 101.62 C 113.60 111.06 114.29 126.17 114.75 135.75 C 115.21 145.33 115.38 149.50 115.50 159.12 C 115.62 168.75 115.33 187.65 115.50 193.50 C 115.67 199.35 112.69 194.17 116.50 194.25 C 120.31 194.33 134.65 194.12 138.38 194.00 C 142.10 193.88 138.60 195.04 138.88 193.50 C 139.15 191.96 139.81 189.50 140.00 184.75 C 140.19 180.00 139.81 170.94 140.00 165.00 C 140.19 159.06 140.29 157.58 141.12 149.12 C 141.96 140.67 144.02 121.73 145.00 114.25 C 145.98 106.77 146.33 107.08 147.00 104.25 C 147.67 101.42 148.17 99.69 149.00 97.25 C 149.83 94.81 150.85 91.98 152.00 89.62 C 153.15 87.27 155.06 84.71 155.88 83.12 C 156.69 81.54 156.73 81.08 156.88 80.12 C 157.02 79.17 157.10 78.67 156.75 77.38 C 156.40 76.08 155.35 73.56 154.75 72.38 C 154.15 71.19 154.31 71.48 153.12 70.25 C 151.94 69.02 149.56 66.54 147.62 65.00 C 145.69 63.46 143.73 62.33 141.50 61.00 C 139.27 59.67 137.25 58.50 134.25 57.00 C 131.25 55.50 126.42 53.17 123.50 52.00 C 120.58 50.83 118.88 50.33 116.75 50.00 C 114.62 49.67 112.25 49.81 110.75 50.00 Z" id="s-1-f-7"/>
<path d="M 110.62 50.00 C 109.12 50.19 108.67 50.50 107.75 51.12 C 106.83 51.75 105.75 52.83 105.12 53.75 C 104.50 54.67 104.21 55.52 104.00 56.62 C 103.79 57.73 103.69 58.81 103.88 60.38 C 104.06 61.94 104.48 63.96 105.12 66.00 C 105.77 68.04 107.00 70.44 107.75 72.62 C 108.50 74.81 108.96 75.85 109.62 79.12 C 110.29 82.40 111.06 86.21 111.75 92.25 C 112.44 98.29 113.19 106.48 113.75 115.38 C 114.31 124.27 110.56 140.54 115.12 145.62 C 119.69 150.71 136.69 145.94 141.12 145.88 C 145.56 145.81 141.25 149.54 141.75 145.25 C 142.25 140.96 143.42 126.23 144.12 120.12 C 144.83 114.02 145.00 112.98 146.00 108.62 C 147.00 104.27 148.33 98.62 150.12 94.00 C 151.92 89.38 155.67 83.75 156.75 80.88 C 157.83 78.00 156.96 78.17 156.62 76.75 C 156.29 75.33 155.67 73.81 154.75 72.38 C 153.83 70.94 152.31 69.35 151.12 68.12 C 149.94 66.90 149.23 66.19 147.62 65.00 C 146.02 63.81 143.73 62.33 141.50 61.00 C 139.27 59.67 137.25 58.50 134.25 57.00 C 131.25 55.50 126.42 53.17 123.50 52.00 C 120.58 50.83 118.90 50.33 116.75 50.00 C 114.60 49.67 112.12 49.81 110.62 50.00 Z" id="s-1-f-8"/>
<path d="M 106.88 51.88 C 105.94 52.50 105.58 53.02 105.12 53.75 C 104.67 54.48 104.33 55.15 104.12 56.25 C 103.92 57.35 103.71 58.75 103.88 60.38 C 104.04 62.00 104.48 63.96 105.12 66.00 C 105.77 68.04 107.00 70.44 107.75 72.62 C 108.50 74.81 108.88 74.96 109.62 79.12 C 110.38 83.29 111.35 94.48 112.25 97.62 C 113.15 100.77 108.90 98.00 115.00 98.00 C 121.10 98.00 142.71 99.02 148.88 97.62 C 155.04 96.23 150.88 91.94 152.00 89.62 C 153.12 87.31 154.81 85.33 155.62 83.75 C 156.44 82.17 156.69 81.19 156.88 80.12 C 157.06 79.06 156.92 78.27 156.75 77.38 C 156.58 76.48 156.48 75.94 155.88 74.75 C 155.27 73.56 154.50 71.88 153.12 70.25 C 151.75 68.62 149.29 66.38 147.62 65.00 C 145.96 63.62 145.35 63.33 143.12 62.00 C 140.90 60.67 137.52 58.67 134.25 57.00 C 130.98 55.33 126.60 53.19 123.50 52.00 C 120.40 50.81 117.75 50.21 115.62 49.88 C 113.50 49.54 112.21 49.67 110.75 50.00 C 109.29 50.33 107.81 51.25 106.88 51.88 Z" id="s-1-f-9"/>
</g>
<g id="s-2" clip-path="url(#c-s-2)">
<use href="#s-2-f-0"/>
<path d="M 163.62 242.00 C 163.42 240.17 164.65 241.17 162.75 242.00 C 160.85 242.83 156.27 244.77 152.25 247.00 C 148.23 249.23 141.25 253.92 138.62 255.38 C 136.00 256.83 138.25 254.90 136.50 255.75 C 134.75 256.60 129.79 259.71 128.12 260.50 C 126.46 261.29 126.83 260.33 126.50 260.50 C 126.17 260.67 126.77 261.02 126.12 261.50 C 125.48 261.98 123.44 263.02 122.62 263.38 C 121.81 263.73 121.85 263.31 121.25 263.62 C 120.65 263.94 119.60 264.92 119.00 265.25 C 118.40 265.58 118.17 265.27 117.62 265.62 C 117.08 265.98 124.71 262.85 115.75 267.38 C 106.79 271.90 76.88 286.69 63.88 292.75 C 50.88 298.81 43.38 301.58 37.75 303.75 C 32.12 305.92 32.81 305.17 30.12 305.75 C 27.44 306.33 23.33 306.65 21.62 307.25 C 19.92 307.85 20.15 308.58 19.88 309.38 C 19.60 310.17 19.81 311.17 20.00 312.00 C 20.19 312.83 20.19 313.06 21.00 314.38 C 21.81 315.69 23.25 317.96 24.88 319.88 C 26.50 321.79 28.29 323.90 30.75 325.88 C 33.21 327.85 37.29 330.31 39.62 331.75 C 41.96 333.19 42.85 333.69 44.75 334.50 C 46.65 335.31 49.04 336.25 51.00 336.62 C 52.96 337.00 55.23 336.90 56.50 336.75 C 57.77 336.60 53.00 340.19 58.62 335.75 C 64.25 331.31 81.15 317.31 90.25 310.12 C 99.35 302.94 108.92 295.81 113.25 292.62 C 117.58 289.44 112.69 293.44 116.25 291.00 C 119.81 288.56 131.17 280.60 134.62 278.00 C 138.08 275.40 136.52 275.77 137.00 275.38 C 137.48 274.98 133.12 279.04 137.50 275.62 C 141.88 272.21 158.83 258.65 163.25 254.88 C 167.67 251.10 163.94 255.15 164.00 253.00 C 164.06 250.85 163.83 243.83 163.62 242.00 Z" id="s-2-f-1"/>
<path d="M 116.25 268.00 C 116.17 264.02 116.75 266.62 115.25 267.25 C 113.75 267.88 113.67 268.50 107.25 271.75 C 100.83 275.00 87.38 281.77 76.75 286.75 C 66.12 291.73 50.50 298.65 43.50 301.62 C 36.50 304.60 38.35 303.71 34.75 304.62 C 31.15 305.54 24.35 306.33 21.88 307.12 C 19.40 307.92 20.19 308.56 19.88 309.38 C 19.56 310.19 19.81 311.17 20.00 312.00 C 20.19 312.83 20.52 313.48 21.00 314.38 C 21.48 315.27 21.90 316.08 22.88 317.38 C 23.85 318.67 25.56 320.71 26.88 322.12 C 28.19 323.54 29.19 324.60 30.75 325.88 C 32.31 327.15 33.46 328.12 36.25 329.75 C 39.04 331.38 44.94 334.46 47.50 335.62 C 50.06 336.79 50.06 336.58 51.62 336.75 C 53.19 336.92 55.44 337.00 56.88 336.62 C 58.31 336.25 54.69 338.92 60.25 334.50 C 65.81 330.08 81.00 317.35 90.25 310.12 C 99.50 302.90 111.42 298.15 115.75 291.12 C 120.08 284.10 116.33 271.98 116.25 268.00 Z" id="s-2-f-2"/>
<path d="M 68.00 291.38 C 67.85 285.25 69.52 289.96 67.00 291.00 C 64.48 292.04 57.75 295.50 52.88 297.62 C 48.00 299.75 41.54 302.40 37.75 303.75 C 33.96 305.10 32.77 305.19 30.12 305.75 C 27.48 306.31 23.56 306.60 21.88 307.12 C 20.19 307.65 20.29 307.98 20.00 308.88 C 19.71 309.77 19.62 311.04 20.12 312.50 C 20.62 313.96 21.88 316.02 23.00 317.62 C 24.12 319.23 25.58 320.75 26.88 322.12 C 28.17 323.50 29.19 324.60 30.75 325.88 C 32.31 327.15 34.50 328.60 36.25 329.75 C 38.00 330.90 39.38 331.77 41.25 332.75 C 43.12 333.73 45.77 334.96 47.50 335.62 C 49.23 336.29 50.06 336.58 51.62 336.75 C 53.19 336.92 55.44 337.00 56.88 336.62 C 58.31 336.25 58.50 335.83 60.25 334.50 C 62.00 333.17 66.10 329.75 67.38 328.62 C 68.65 327.50 67.77 333.96 67.88 327.75 C 67.98 321.54 68.15 297.50 68.00 291.38 Z" id="s-2-f-3"/>
</g>
<g id="s-3" clip-path="url(#c-s-3)">
<use href="#s-3-f-0"/>
<path d="M 272.62 83.25 C 272.44 81.08 272.71 82.88 271.88 83.00 C 271.04 83.12 269.56 83.38 267.62 84.00 C 265.69 84.62 263.23 85.94 260.25 86.75 C 257.27 87.56 255.10 87.54 249.75 88.88 C 244.40 90.21 234.00 93.27 228.12 94.75 C 222.25 96.23 219.25 97.08 214.50 97.75 C 209.75 98.42 204.33 98.88 199.62 98.75 C 194.92 98.62 189.60 97.29 186.25 97.00 C 182.90 96.71 180.85 96.85 179.50 97.00 C 178.15 97.15 178.54 97.48 178.12 97.88 C 177.71 98.27 177.19 98.65 177.00 99.38 C 176.81 100.10 176.83 101.44 177.00 102.25 C 177.17 103.06 177.10 103.02 178.00 104.25 C 178.90 105.48 180.73 107.79 182.38 109.62 C 184.02 111.46 186.02 113.54 187.88 115.25 C 189.73 116.96 191.17 118.31 193.50 119.88 C 195.83 121.44 200.04 123.67 201.88 124.62 C 203.71 125.58 203.35 125.42 204.50 125.62 C 205.65 125.83 207.15 126.23 208.75 125.88 C 210.35 125.52 211.62 124.81 214.12 123.50 C 216.62 122.19 218.94 120.38 223.75 118.00 C 228.56 115.62 238.60 111.10 243.00 109.25 C 247.40 107.40 245.19 108.81 250.12 106.88 C 255.06 104.94 268.81 99.44 272.62 97.62 C 276.44 95.81 273.00 98.40 273.00 96.00 C 273.00 93.60 272.81 85.42 272.62 83.25 Z" id="s-3-f-1"/>
<path d="M 224.88 117.38 C 227.40 112.67 225.06 101.00 225.00 97.38 C 224.94 93.75 226.25 95.56 224.50 95.62 C 222.75 95.69 217.88 97.23 214.50 97.75 C 211.12 98.27 206.73 98.58 204.25 98.75 C 201.77 98.92 202.65 99.04 199.62 98.75 C 196.60 98.46 189.23 97.31 186.12 97.00 C 183.02 96.69 182.21 96.81 181.00 96.88 C 179.79 96.94 179.54 96.96 178.88 97.38 C 178.21 97.79 177.31 98.56 177.00 99.38 C 176.69 100.19 176.83 101.44 177.00 102.25 C 177.17 103.06 176.56 102.46 178.00 104.25 C 179.44 106.04 183.04 110.40 185.62 113.00 C 188.21 115.60 190.75 117.92 193.50 119.88 C 196.25 121.83 200.17 123.77 202.12 124.75 C 204.08 125.73 203.96 125.60 205.25 125.75 C 206.54 125.90 206.60 127.02 209.88 125.62 C 213.15 124.23 222.35 122.08 224.88 117.38 Z" id="s-3-f-2"/>
</g>
<g id="s-4" clip-path="url(#c-s-4)">
<use href="#s-4-f-0"/>
<path d="M 225.00 42.75 C 224.19 43.35 223.33 44.33 223.00 45.50 C 222.67 46.67 222.21 47.56 223.00 49.75 C 223.79 51.94 226.46 56.00 227.75 58.62 C 229.04 61.25 229.42 61.83 230.75 65.50 C 232.08 69.17 234.54 76.65 235.75 80.62 C 236.96 84.60 237.44 87.81 238.00 89.38 C 238.56 90.94 237.67 89.85 239.12 90.00 C 240.58 90.15 243.15 90.25 246.75 90.25 C 250.35 90.25 258.38 90.21 260.75 90.00 C 263.12 89.79 261.12 89.58 261.00 89.00 C 260.88 88.42 260.21 88.06 260.00 86.50 C 259.79 84.94 259.90 81.40 259.75 79.62 C 259.60 77.85 259.27 80.10 259.12 75.88 C 258.98 71.65 259.00 58.23 258.88 54.25 C 258.75 50.27 258.90 52.83 258.38 52.00 C 257.85 51.17 256.75 50.08 255.75 49.25 C 254.75 48.42 254.31 47.85 252.38 47.00 C 250.44 46.15 247.25 44.96 244.12 44.12 C 241.00 43.29 236.33 42.38 233.62 42.00 C 230.92 41.62 229.31 41.75 227.88 41.88 C 226.44 42.00 225.81 42.15 225.00 42.75 Z" id="s-4-f-1"/>
</g>
<g id="s-5" clip-path="url(#c-s-5)">
<use href="#s-5-f-0"/>
<path d="M 394.88 65.25 C 394.27 61.40 392.67 64.19 391.38 64.00 C 390.08 63.81 390.81 63.33 387.12 64.12 C 383.44 64.92 374.12 67.60 369.25 68.75 C 364.38 69.90 363.73 69.50 357.88 71.00 C 352.02 72.50 340.52 76.12 334.12 77.75 C 327.73 79.38 325.21 79.71 319.50 80.75 C 313.79 81.79 303.29 83.33 299.88 84.00 C 296.46 84.67 299.15 84.42 299.00 84.75 C 298.85 85.08 298.58 85.31 299.00 86.00 C 299.42 86.69 300.12 87.75 301.50 88.88 C 302.88 90.00 304.65 91.29 307.25 92.75 C 309.85 94.21 314.88 96.62 317.12 97.62 C 319.38 98.62 319.50 98.56 320.75 98.75 C 322.00 98.94 322.98 99.04 324.62 98.75 C 326.27 98.46 326.58 97.81 330.62 97.00 C 334.67 96.19 344.67 94.69 348.88 93.88 C 353.08 93.06 353.77 92.48 355.88 92.12 C 357.98 91.77 358.60 92.12 361.50 91.75 C 364.40 91.38 367.73 90.38 373.25 89.88 C 378.77 89.38 391.00 89.21 394.62 88.75 C 398.25 88.29 394.96 91.04 395.00 87.12 C 395.04 83.21 395.48 69.10 394.88 65.25 Z" id="s-5-f-1"/>
<path d="M 346.88 74.62 C 346.71 71.42 348.00 73.85 345.88 74.38 C 343.75 74.90 338.52 76.69 334.12 77.75 C 329.73 78.81 325.21 79.71 319.50 80.75 C 313.79 81.79 303.29 83.33 299.88 84.00 C 296.46 84.67 299.15 84.42 299.00 84.75 C 298.85 85.08 298.58 85.31 299.00 86.00 C 299.42 86.69 300.12 87.75 301.50 88.88 C 302.88 90.00 304.10 91.10 307.25 92.75 C 310.40 94.40 317.46 97.75 320.38 98.75 C 323.29 99.75 323.06 99.02 324.75 98.75 C 326.44 98.48 327.27 97.79 330.50 97.12 C 333.73 96.46 341.40 95.33 344.12 94.75 C 346.85 94.17 346.42 96.98 346.88 93.62 C 347.33 90.27 347.04 77.83 346.88 74.62 Z" id="s-5-f-2"/>
</g>
<g id="s-6" clip-path="url(#c-s-6)">
<use href="#s-6-f-0"/>
<path d="M 346.38 29.25 C 343.92 28.77 340.85 28.94 339.25 29.12 C 337.65 29.31 337.62 29.54 336.75 30.38 C 335.88 31.21 334.46 33.19 334.00 34.12 C 333.54 35.06 333.71 34.81 334.00 36.00 C 334.29 37.19 335.29 39.52 335.75 41.25 C 336.21 42.98 336.73 42.77 336.75 46.38 C 336.77 49.98 336.35 57.71 335.88 62.88 C 335.40 68.04 334.42 74.48 333.88 77.38 C 333.33 80.27 333.04 77.92 332.62 80.25 C 332.21 82.58 331.71 89.23 331.38 91.38 C 331.04 93.52 330.75 92.02 330.62 93.12 C 330.50 94.23 331.52 92.88 330.62 98.00 C 329.73 103.12 326.08 119.40 325.25 123.88 C 324.42 128.35 323.92 124.73 325.62 124.88 C 327.33 125.02 333.60 125.02 335.50 124.75 C 337.40 124.48 336.29 124.27 337.00 123.25 C 337.71 122.23 338.12 121.67 339.75 118.62 C 341.38 115.58 344.81 109.08 346.75 105.00 C 348.69 100.92 350.31 96.29 351.38 94.12 C 352.44 91.96 352.79 92.71 353.12 92.00 C 353.46 91.29 353.21 90.38 353.38 89.88 C 353.54 89.38 353.96 89.48 354.12 89.00 C 354.29 88.52 354.21 87.46 354.38 87.00 C 354.54 86.54 354.62 87.60 355.12 86.25 C 355.62 84.90 356.88 80.25 357.38 78.88 C 357.88 77.50 357.96 78.48 358.12 78.00 C 358.29 77.52 358.21 76.46 358.38 76.00 C 358.54 75.54 358.96 75.67 359.12 75.25 C 359.29 74.83 359.21 73.98 359.38 73.50 C 359.54 73.02 359.96 72.98 360.12 72.38 C 360.29 71.77 359.94 71.15 360.38 69.88 C 360.81 68.60 361.98 66.77 362.75 64.75 C 363.52 62.73 363.83 60.33 365.00 57.75 C 366.17 55.17 368.96 51.23 369.75 49.25 C 370.54 47.27 369.94 46.83 369.75 45.88 C 369.56 44.92 369.69 44.83 368.62 43.50 C 367.56 42.17 365.81 39.79 363.38 37.88 C 360.94 35.96 356.83 33.44 354.00 32.00 C 351.17 30.56 348.83 29.73 346.38 29.25 Z" id="s-6-f-1"/>
<path d="M 339.25 29.12 C 337.75 29.33 337.62 29.54 336.75 30.38 C 335.88 31.21 334.46 33.19 334.00 34.12 C 333.54 35.06 333.71 34.81 334.00 36.00 C 334.29 37.19 335.29 39.52 335.75 41.25 C 336.21 42.98 336.60 44.19 336.75 46.38 C 336.90 48.56 337.06 49.31 336.62 54.38 C 336.19 59.44 334.08 72.94 334.12 76.75 C 334.17 80.56 332.92 77.19 336.88 77.25 C 340.83 77.31 354.17 77.46 357.88 77.12 C 361.58 76.79 358.88 75.88 359.12 75.25 C 359.38 74.62 359.21 73.83 359.38 73.38 C 359.54 72.92 359.96 73.08 360.12 72.50 C 360.29 71.92 359.94 71.17 360.38 69.88 C 360.81 68.58 361.98 66.77 362.75 64.75 C 363.52 62.73 363.83 60.33 365.00 57.75 C 366.17 55.17 368.98 51.29 369.75 49.25 C 370.52 47.21 369.94 46.65 369.62 45.50 C 369.31 44.35 368.73 43.48 367.88 42.38 C 367.02 41.27 366.46 40.42 364.50 38.88 C 362.54 37.33 358.58 34.56 356.12 33.12 C 353.67 31.69 351.48 30.92 349.75 30.25 C 348.02 29.58 347.50 29.31 345.75 29.12 C 344.00 28.94 340.75 28.92 339.25 29.12 Z" id="s-6-f-2"/>
</g>
<g id="s-7" clip-path="url(#c-s-7)">
<use href="#s-7-f-0"/>
<path d="M 253.25 153.12 C 252.46 152.31 251.46 151.10 250.00 150.12 C 248.54 149.15 247.21 148.25 244.50 147.25 C 241.79 146.25 236.23 144.69 233.75 144.12 C 231.27 143.56 230.62 143.81 229.62 143.88 C 228.62 143.94 228.21 144.21 227.75 144.50 C 227.29 144.79 227.10 143.88 226.88 145.62 C 226.65 147.38 226.75 152.19 226.38 155.00 C 226.00 157.81 225.73 159.31 224.62 162.50 C 223.52 165.69 222.04 169.29 219.75 174.12 C 217.46 178.96 209.90 188.52 210.88 191.50 C 211.85 194.48 221.96 192.00 225.62 192.00 C 229.29 192.00 229.15 194.96 232.88 191.50 C 236.60 188.04 244.35 175.79 248.00 171.25 C 251.65 166.71 253.50 165.65 254.75 164.25 C 256.00 162.85 255.33 164.00 255.50 162.88 C 255.67 161.75 255.88 158.81 255.75 157.50 C 255.62 156.19 255.17 155.73 254.75 155.00 C 254.33 154.27 254.04 153.94 253.25 153.12 Z" id="s-7-f-1"/>
</g>
<g id="s-8" clip-path="url(#c-s-8)">
<use href="#s-8-f-0"/>
<path d="M 301.00 178.62 C 299.21 177.17 296.23 175.15 294.25 173.88 C 292.27 172.60 291.52 172.15 289.12 171.00 C 286.73 169.85 282.12 167.65 279.88 167.00 C 277.62 166.35 278.94 166.02 275.62 167.12 C 272.31 168.23 264.50 172.02 260.00 173.62 C 255.50 175.23 251.48 176.08 248.62 176.75 C 245.77 177.42 244.04 177.31 242.88 177.62 C 241.71 177.94 242.73 177.21 241.62 178.62 C 240.52 180.04 237.58 184.44 236.25 186.12 C 234.92 187.81 234.04 188.12 233.62 188.75 C 233.21 189.38 233.33 189.54 233.75 189.88 C 234.17 190.21 234.21 190.58 236.12 190.75 C 238.04 190.92 240.58 191.17 245.25 190.88 C 249.92 190.58 260.71 189.08 264.12 189.00 C 267.54 188.92 265.54 189.54 265.75 190.38 C 265.96 191.21 265.88 192.08 265.38 194.00 C 264.88 195.92 266.00 194.67 262.75 201.88 C 259.50 209.08 249.69 229.85 245.88 237.25 C 242.06 244.65 241.23 244.06 239.88 246.25 C 238.52 248.44 240.98 245.27 237.75 250.38 C 234.52 255.48 225.62 269.83 220.50 276.88 C 215.38 283.92 210.94 288.19 207.00 292.62 C 203.06 297.06 201.15 299.19 196.88 303.50 C 192.60 307.81 186.25 314.10 181.38 318.50 C 176.50 322.90 169.94 327.81 167.62 329.88 C 165.31 331.94 164.23 330.69 167.50 330.88 C 170.77 331.06 183.50 331.19 187.25 331.00 C 191.00 330.81 188.00 330.94 190.00 329.75 C 192.00 328.56 195.56 326.50 199.25 323.88 C 202.94 321.25 208.29 317.19 212.12 314.00 C 215.96 310.81 218.52 308.48 222.25 304.75 C 225.98 301.02 230.69 295.92 234.50 291.62 C 238.31 287.33 240.75 284.58 245.12 279.00 C 249.50 273.42 255.83 265.10 260.75 258.12 C 265.67 251.15 270.29 243.94 274.62 237.12 C 278.96 230.31 284.19 221.69 286.75 217.25 C 289.31 212.81 289.12 212.12 290.00 210.50 C 290.88 208.88 289.52 210.52 292.00 207.50 C 294.48 204.48 302.42 195.52 304.88 192.38 C 307.33 189.23 306.44 189.79 306.75 188.62 C 307.06 187.46 307.04 186.38 306.75 185.38 C 306.46 184.38 305.96 183.75 305.00 182.62 C 304.04 181.50 302.79 180.08 301.00 178.62 Z" id="s-8-f-1"/>
<path d="M 300.25 178.00 C 298.60 176.71 296.77 175.38 294.25 173.88 C 291.73 172.38 287.52 170.15 285.12 169.00 C 282.73 167.85 281.33 167.33 279.88 167.00 C 278.42 166.67 278.04 166.62 276.38 167.00 C 274.71 167.38 272.60 168.15 269.88 169.25 C 267.15 170.35 263.54 172.38 260.00 173.62 C 256.46 174.88 251.48 176.08 248.62 176.75 C 245.77 177.42 244.04 177.31 242.88 177.62 C 241.71 177.94 242.73 177.21 241.62 178.62 C 240.52 180.04 237.58 184.44 236.25 186.12 C 234.92 187.81 234.04 188.12 233.62 188.75 C 233.21 189.38 233.33 189.54 233.75 189.88 C 234.17 190.21 234.21 190.58 236.12 190.75 C 238.04 190.92 240.58 191.17 245.25 190.88 C 249.92 190.58 260.71 189.08 264.12 189.00 C 267.54 188.92 265.54 189.54 265.75 190.38 C 265.96 191.21 266.23 191.27 265.38 194.00 C 264.52 196.73 263.88 199.54 260.62 206.75 C 257.38 213.96 249.33 230.67 245.88 237.25 C 242.42 243.83 242.58 241.92 239.88 246.25 C 237.17 250.58 232.79 258.23 229.62 263.25 C 226.46 268.27 223.17 273.21 220.88 276.38 C 218.58 279.54 215.44 281.17 215.88 282.25 C 216.31 283.33 219.25 282.77 223.50 282.88 C 227.75 282.98 237.77 283.52 241.38 282.88 C 244.98 282.23 241.90 283.12 245.12 279.00 C 248.35 274.88 256.60 263.92 260.75 258.12 C 264.90 252.33 265.50 251.35 270.00 244.25 C 274.50 237.15 284.08 221.62 287.75 215.50 C 291.42 209.38 290.62 209.69 292.00 207.50 C 293.38 205.31 294.19 204.44 296.00 202.38 C 297.81 200.31 301.25 197.04 302.88 195.12 C 304.50 193.21 305.10 191.96 305.75 190.88 C 306.40 189.79 306.62 189.65 306.75 188.62 C 306.88 187.60 306.94 185.92 306.50 184.75 C 306.06 183.58 305.17 182.75 304.12 181.62 C 303.08 180.50 301.90 179.29 300.25 178.00 Z" id="s-8-f-2"/>
<path d="M 304.12 181.62 C 303.04 180.40 301.90 179.29 300.25 178.00 C 298.60 176.71 296.77 175.38 294.25 173.88 C 291.73 172.38 287.52 170.15 285.12 169.00 C 282.73 167.85 281.46 167.31 279.88 167.00 C 278.29 166.69 279.06 165.98 275.62 167.12 C 272.19 168.27 263.04 172.44 259.25 173.88 C 255.46 175.31 255.73 175.06 252.88 175.75 C 250.02 176.44 244.90 176.27 242.12 178.00 C 239.35 179.73 237.67 184.33 236.25 186.12 C 234.83 187.92 234.02 188.12 233.62 188.75 C 233.23 189.38 233.46 189.54 233.88 189.88 C 234.29 190.21 234.23 190.58 236.12 190.75 C 238.02 190.92 240.58 191.17 245.25 190.88 C 249.92 190.58 260.71 189.08 264.12 189.00 C 267.54 188.92 265.54 189.52 265.75 190.38 C 265.96 191.23 265.88 192.21 265.38 194.12 C 264.88 196.04 264.04 198.67 262.75 201.88 C 261.46 205.08 260.23 207.92 257.62 213.38 C 255.02 218.83 248.48 231.02 247.12 234.62 C 245.77 238.23 244.75 234.96 249.50 235.00 C 254.25 235.04 269.25 238.12 275.62 234.88 C 282.00 231.62 285.35 219.56 287.75 215.50 C 290.15 211.44 288.62 212.69 290.00 210.50 C 291.38 208.31 293.71 205.12 296.00 202.38 C 298.29 199.62 302.12 195.92 303.75 194.00 C 305.38 192.08 305.25 191.77 305.75 190.88 C 306.25 189.98 306.58 189.54 306.75 188.62 C 306.92 187.71 307.19 186.54 306.75 185.38 C 306.31 184.21 305.21 182.85 304.12 181.62 Z" id="s-8-f-3"/>
<path d="M 306.88 185.88 C 306.71 185.33 306.27 184.27 305.62 183.38 C 304.98 182.48 304.90 182.08 303.00 180.50 C 301.10 178.92 297.56 175.94 294.25 173.88 C 290.94 171.81 285.52 169.27 283.12 168.12 C 280.73 166.98 281.00 167.19 279.88 167.00 C 278.75 166.81 278.04 166.62 276.38 167.00 C 274.71 167.38 272.71 168.10 269.88 169.25 C 267.04 170.40 264.00 172.42 259.38 173.88 C 254.75 175.33 246.42 175.42 242.12 178.00 C 237.83 180.58 234.56 187.27 233.62 189.38 C 232.69 191.48 234.85 190.38 236.50 190.62 C 238.15 190.88 239.40 191.15 243.50 190.88 C 247.60 190.60 255.83 189.35 261.12 189.00 C 266.42 188.65 267.90 189.06 275.25 188.75 C 282.60 188.44 300.02 187.48 305.25 187.12 C 310.48 186.77 306.35 186.83 306.62 186.62 C 306.90 186.42 307.04 186.42 306.88 185.88 Z" id="s-8-f-4"/>
<path d="M 281.88 168.25 C 281.52 164.98 280.92 167.19 279.88 167.00 C 278.83 166.81 279.04 165.98 275.62 167.12 C 272.21 168.27 263.88 172.27 259.38 173.88 C 254.88 175.48 251.42 176.10 248.62 176.75 C 245.83 177.40 245.12 175.65 242.62 177.75 C 240.12 179.85 234.65 187.23 233.62 189.38 C 232.60 191.52 234.85 190.38 236.50 190.62 C 238.15 190.88 239.40 191.15 243.50 190.88 C 247.60 190.60 255.83 189.35 261.12 189.00 C 266.42 188.65 271.85 188.90 275.25 188.75 C 278.65 188.60 280.38 188.48 281.50 188.12 C 282.62 187.77 281.94 189.94 282.00 186.62 C 282.06 183.31 282.23 171.52 281.88 168.25 Z" id="s-8-f-5"/>
</g>
<g id="s-9" clip-path="url(#c-s-9)">
<use href="#s-9-f-0"/>
</g>
<g id="s-10" clip-path="url(#c-s-10)">
<use href="#s-10-f-0"/>
</g>
<g id="s-11" clip-path="url(#c-s-11)">
<use href="#s-11-f-0"/>
<path d="M 419.88 156.75 C 420.04 155.79 419.94 154.67 419.75 153.75 C 419.56 152.83 419.23 152.08 418.75 151.25 C 418.27 150.42 418.04 149.94 416.88 148.75 C 415.71 147.56 413.54 145.54 411.75 144.12 C 409.96 142.71 409.23 141.94 406.12 140.25 C 403.02 138.56 396.35 135.38 393.12 134.00 C 389.90 132.62 388.40 132.31 386.75 132.00 C 385.10 131.69 384.79 131.67 383.25 132.12 C 381.71 132.58 380.79 133.48 377.50 134.75 C 374.21 136.02 366.69 138.71 363.50 139.75 C 360.31 140.79 359.92 140.50 358.38 141.00 C 356.83 141.50 357.69 141.96 354.25 142.75 C 350.81 143.54 344.02 144.85 337.75 145.75 C 331.48 146.65 320.44 147.48 316.62 148.12 C 312.81 148.77 315.12 149.08 314.88 149.62 C 314.62 150.17 314.23 150.23 315.12 151.38 C 316.02 152.52 318.33 154.94 320.25 156.50 C 322.17 158.06 324.56 159.54 326.62 160.75 C 328.69 161.96 331.10 163.27 332.62 163.75 C 334.15 164.23 331.85 165.08 335.75 163.62 C 339.65 162.17 352.35 156.48 356.00 155.00 C 359.65 153.52 355.75 155.44 357.62 154.75 C 359.50 154.06 364.69 151.67 367.25 150.88 C 369.81 150.08 371.50 150.12 373.00 150.00 C 374.50 149.88 375.40 149.98 376.25 150.12 C 377.10 150.27 377.56 150.44 378.12 150.88 C 378.69 151.31 379.40 151.98 379.62 152.75 C 379.85 153.52 379.94 154.27 379.50 155.50 C 379.06 156.73 378.46 156.90 377.00 160.12 C 375.54 163.35 372.92 170.25 370.75 174.88 C 368.58 179.50 365.10 185.58 364.00 187.88 C 362.90 190.17 363.92 188.46 364.12 188.62 C 364.33 188.79 361.77 188.85 365.25 188.88 C 368.73 188.90 379.40 190.98 385.00 188.75 C 390.60 186.52 393.54 180.04 398.88 175.50 C 404.21 170.96 413.69 164.17 417.00 161.50 C 420.31 158.83 418.27 160.29 418.75 159.50 C 419.23 158.71 419.71 157.71 419.88 156.75 Z" id="s-11-f-1"/>
<path d="M 406.12 140.38 C 403.98 139.17 396.12 135.35 393.12 134.00 C 390.12 132.65 389.69 132.58 388.12 132.25 C 386.56 131.92 386.83 131.10 383.75 132.00 C 380.67 132.90 374.54 135.83 369.62 137.62 C 364.71 139.42 359.56 141.40 354.25 142.75 C 348.94 144.10 343.92 144.88 337.75 145.75 C 331.58 146.62 320.96 147.50 317.25 148.00 C 313.54 148.50 315.90 148.33 315.50 148.75 C 315.10 149.17 314.58 149.65 314.88 150.50 C 315.17 151.35 315.83 152.50 317.25 153.88 C 318.67 155.25 320.94 157.15 323.38 158.75 C 325.81 160.35 329.88 162.67 331.88 163.50 C 333.88 164.33 329.60 165.83 335.38 163.75 C 341.15 161.67 359.21 153.48 366.50 151.00 C 373.79 148.52 372.69 150.42 379.12 148.88 C 385.56 147.33 400.65 143.02 405.12 141.75 C 409.60 140.48 405.83 141.48 406.00 141.25 C 406.17 141.02 408.27 141.58 406.12 140.38 Z" id="s-11-f-2"/>
<path d="M 363.00 140.62 C 362.81 138.77 363.33 139.65 361.88 140.00 C 360.42 140.35 358.27 141.79 354.25 142.75 C 350.23 143.71 343.96 144.88 337.75 145.75 C 331.54 146.62 320.71 147.50 317.00 148.00 C 313.29 148.50 315.85 148.33 315.50 148.75 C 315.15 149.17 314.81 149.90 314.88 150.50 C 314.94 151.10 315.33 151.67 315.88 152.38 C 316.42 153.08 316.85 153.67 318.12 154.75 C 319.40 155.83 321.15 157.40 323.50 158.88 C 325.85 160.35 330.29 162.81 332.25 163.62 C 334.21 164.44 331.35 165.17 335.25 163.75 C 339.15 162.33 351.10 156.96 355.62 155.12 C 360.15 153.29 361.15 153.42 362.38 152.75 C 363.60 152.08 362.90 153.15 363.00 151.12 C 363.10 149.10 363.19 142.48 363.00 140.62 Z" id="s-11-f-3"/>
</g>
<g id="s-12" clip-path="url(#c-s-12)">
<use href="#s-12-f-0"/>
<path d="M 315.25 190.62 C 314.73 191.50 314.69 192.52 314.88 193.38 C 315.06 194.23 315.46 195.12 316.38 195.75 C 317.29 196.38 318.56 196.25 320.38 197.12 C 322.19 198.00 325.02 199.56 327.25 201.00 C 329.48 202.44 331.67 204.08 333.75 205.75 C 335.83 207.42 336.65 207.94 339.75 211.00 C 342.85 214.06 343.71 214.60 352.38 224.12 C 361.04 233.65 382.77 258.33 391.75 268.12 C 400.73 277.92 402.92 279.62 406.25 282.88 C 409.58 286.12 409.98 286.31 411.75 287.62 C 413.52 288.94 415.25 289.90 416.88 290.75 C 418.50 291.60 420.08 292.25 421.50 292.75 C 422.92 293.25 423.75 293.56 425.38 293.75 C 427.00 293.94 428.17 294.21 431.25 293.88 C 434.33 293.54 439.31 292.90 443.88 291.75 C 448.44 290.60 456.10 290.94 458.62 287.00 C 461.15 283.06 459.04 271.62 459.00 268.12 C 458.96 264.62 462.58 267.94 458.38 266.00 C 454.17 264.06 441.35 259.71 433.75 256.50 C 426.15 253.29 417.81 249.42 412.75 246.75 C 407.69 244.08 407.27 243.31 403.38 240.50 C 399.48 237.69 396.96 236.02 389.38 229.88 C 381.79 223.73 363.54 208.21 357.88 203.62 C 352.21 199.04 357.33 203.81 355.38 202.38 C 353.42 200.94 349.00 197.04 346.12 195.00 C 343.25 192.96 340.73 191.44 338.12 190.12 C 335.52 188.81 332.71 187.67 330.50 187.12 C 328.29 186.58 326.42 186.88 324.88 186.88 C 323.33 186.88 322.40 186.92 321.25 187.12 C 320.10 187.33 319.00 187.54 318.00 188.12 C 317.00 188.71 315.77 189.75 315.25 190.62 Z" id="s-12-f-1"/>
<path d="M 316.62 189.00 C 315.62 189.58 315.54 190.08 315.25 190.62 C 314.96 191.17 314.92 191.67 314.88 192.25 C 314.83 192.83 314.75 193.54 315.00 194.12 C 315.25 194.71 315.48 195.25 316.38 195.75 C 317.27 196.25 318.56 196.25 320.38 197.12 C 322.19 198.00 324.17 198.85 327.25 201.00 C 330.33 203.15 334.69 206.15 338.88 210.00 C 343.06 213.85 343.56 214.44 352.38 224.12 C 361.19 233.81 382.77 258.33 391.75 268.12 C 400.73 277.92 403.10 279.83 406.25 282.88 C 409.40 285.92 409.83 286.23 410.62 286.38 C 411.42 286.52 410.98 290.58 411.00 283.75 C 411.02 276.92 412.02 252.58 410.75 245.38 C 409.48 238.17 407.44 243.48 403.38 240.50 C 399.31 237.52 393.96 233.65 386.38 227.50 C 378.79 221.35 363.04 207.81 357.88 203.62 C 352.71 199.44 357.33 203.81 355.38 202.38 C 353.42 200.94 348.48 196.75 346.12 195.00 C 343.77 193.25 342.98 192.88 341.25 191.88 C 339.52 190.88 337.69 189.81 335.75 189.00 C 333.81 188.19 332.04 187.31 329.62 187.00 C 327.21 186.69 323.42 186.79 321.25 187.12 C 319.08 187.46 317.62 188.42 316.62 189.00 Z" id="s-12-f-2"/>
<path d="M 315.88 189.75 C 315.38 190.27 315.17 190.65 315.00 191.25 C 314.83 191.85 314.65 192.62 314.88 193.38 C 315.10 194.12 314.81 194.79 316.38 195.75 C 317.94 196.71 320.92 197.10 324.25 199.12 C 327.58 201.15 332.56 204.65 336.38 207.88 C 340.19 211.10 342.85 213.94 347.12 218.50 C 351.40 223.06 359.42 232.44 362.00 235.25 C 364.58 238.06 362.44 239.77 362.62 235.38 C 362.81 230.98 363.10 213.50 363.12 208.88 C 363.15 204.25 366.08 210.27 362.75 207.62 C 359.42 204.98 348.04 196.27 343.12 193.00 C 338.21 189.73 335.52 189.00 333.25 188.00 C 330.98 187.00 331.50 187.15 329.50 187.00 C 327.50 186.85 323.17 186.94 321.25 187.12 C 319.33 187.31 318.90 187.69 318.00 188.12 C 317.10 188.56 316.38 189.23 315.88 189.75 Z" id="s-12-f-3"/>
</g>
<g id="s-13" clip-path="url(#c-s-13)">
<use href="#s-13-f-0"/>
<path d="M 355.00 261.25 C 354.94 259.56 356.31 261.02 354.50 260.00 C 352.69 258.98 347.10 256.29 344.12 255.12 C 341.15 253.96 338.75 253.31 336.62 253.00 C 334.50 252.69 332.69 252.94 331.38 253.25 C 330.06 253.56 330.79 254.15 328.75 254.88 C 326.71 255.60 325.31 256.17 319.12 257.62 C 312.94 259.08 299.15 262.10 291.62 263.62 C 284.10 265.15 278.73 266.00 274.00 266.75 C 269.27 267.50 265.62 267.67 263.25 268.12 C 260.88 268.58 260.46 268.81 259.75 269.50 C 259.04 270.19 258.85 271.35 259.00 272.25 C 259.15 273.15 259.83 273.90 260.62 274.88 C 261.42 275.85 262.38 277.15 263.75 278.12 C 265.12 279.10 266.00 279.98 268.88 280.75 C 271.75 281.52 276.40 282.44 281.00 282.75 C 285.60 283.06 288.94 283.48 296.50 282.62 C 304.06 281.77 316.92 279.46 326.38 277.62 C 335.83 275.79 348.58 272.71 353.25 271.62 C 357.92 270.54 354.10 271.38 354.38 271.12 C 354.65 270.88 354.77 271.77 354.88 270.12 C 354.98 268.48 355.06 262.94 355.00 261.25 Z" id="s-13-f-1"/>
<path d="M 306.88 260.62 C 306.77 257.19 309.25 259.58 305.88 260.25 C 302.50 260.92 293.73 263.31 286.62 264.62 C 279.52 265.94 267.73 267.31 263.25 268.12 C 258.77 268.94 260.46 268.81 259.75 269.50 C 259.04 270.19 258.75 271.23 259.00 272.25 C 259.25 273.27 260.38 274.58 261.25 275.62 C 262.12 276.67 263.04 277.67 264.25 278.50 C 265.46 279.33 267.02 280.08 268.50 280.62 C 269.98 281.17 271.10 281.40 273.12 281.75 C 275.15 282.10 277.40 282.56 280.62 282.75 C 283.85 282.94 288.44 283.10 292.50 282.88 C 296.56 282.65 302.67 281.71 305.00 281.38 C 307.33 281.04 306.19 284.33 306.50 280.88 C 306.81 277.42 306.98 264.06 306.88 260.62 Z" id="s-13-f-2"/>
</g>
<g id="s-14" clip-path="url(#c-s-14)">
<use href="#s-14-f-0"/>
<path d="M 359.88 309.12 C 359.77 305.73 364.17 307.98 359.38 308.75 C 354.58 309.52 344.23 311.60 331.12 313.75 C 318.02 315.90 299.33 318.90 280.75 321.62 C 262.17 324.35 230.38 328.58 219.62 330.12 C 208.88 331.67 216.88 330.54 216.25 330.88 C 215.62 331.21 215.58 331.38 215.88 332.12 C 216.17 332.88 217.12 334.44 218.00 335.38 C 218.88 336.31 219.19 336.69 221.12 337.75 C 223.06 338.81 227.33 340.77 229.62 341.75 C 231.92 342.73 233.23 343.15 234.88 343.62 C 236.52 344.10 237.50 344.44 239.50 344.62 C 241.50 344.81 244.40 345.02 246.88 344.75 C 249.35 344.48 245.44 344.31 254.38 343.00 C 263.31 341.69 290.40 338.35 300.50 336.88 C 310.60 335.40 308.94 334.92 315.00 334.12 C 321.06 333.33 329.48 332.67 336.88 332.12 C 344.27 331.58 355.52 331.38 359.38 330.88 C 363.23 330.38 359.92 332.75 360.00 329.12 C 360.08 325.50 359.98 312.52 359.88 309.12 Z" id="s-14-f-1"/>
<path d="M 311.75 318.00 C 311.67 315.94 318.96 315.92 311.38 316.88 C 303.79 317.83 281.54 321.54 266.25 323.75 C 250.96 325.96 227.96 328.94 219.62 330.12 C 211.29 331.31 216.88 330.54 216.25 330.88 C 215.62 331.21 215.58 331.38 215.88 332.12 C 216.17 332.88 217.12 334.44 218.00 335.38 C 218.88 336.31 219.19 336.69 221.12 337.75 C 223.06 338.81 227.33 340.77 229.62 341.75 C 231.92 342.73 233.19 343.15 234.88 343.62 C 236.56 344.10 237.56 344.46 239.75 344.62 C 241.94 344.79 244.62 345.04 248.00 344.62 C 251.38 344.21 253.62 343.08 260.00 342.12 C 266.38 341.17 277.69 340.08 286.25 338.88 C 294.81 337.67 307.10 336.48 311.38 334.88 C 315.65 333.27 311.81 332.06 311.88 329.25 C 311.94 326.44 311.83 320.06 311.75 318.00 Z" id="s-14-f-2"/>
<path d="M 263.88 341.25 C 264.08 338.54 264.06 328.50 264.00 325.62 C 263.94 322.75 271.42 323.15 263.50 324.00 C 255.58 324.85 224.44 329.52 216.50 330.75 C 208.56 331.98 215.94 331.02 215.88 331.38 C 215.81 331.73 215.90 332.35 216.12 332.88 C 216.35 333.40 216.42 333.69 217.25 334.50 C 218.08 335.31 219.06 336.54 221.12 337.75 C 223.19 338.96 227.25 340.75 229.62 341.75 C 232.00 342.75 233.54 343.25 235.38 343.75 C 237.21 344.25 238.71 344.58 240.62 344.75 C 242.54 344.92 244.58 345.04 246.88 344.75 C 249.17 344.46 251.73 343.48 254.38 343.00 C 257.02 342.52 261.17 342.17 262.75 341.88 C 264.33 341.58 263.67 343.96 263.88 341.25 Z" id="s-14-f-3"/>
</g>
<g id="s-15" clip-path="url(#c-s-15)">
<use href="#s-15-f-0"/>
<path d="M 305.75 335.50 C 303.46 335.08 302.62 335.46 301.38 335.62 C 300.12 335.79 299.58 336.31 298.25 336.50 C 296.92 336.69 294.54 336.58 293.38 336.75 C 292.21 336.92 292.42 337.33 291.25 337.50 C 290.08 337.67 287.58 337.52 286.38 337.75 C 285.17 337.98 284.23 338.29 284.00 338.88 C 283.77 339.46 283.88 339.48 285.00 341.25 C 286.12 343.02 289.29 346.96 290.75 349.50 C 292.21 352.04 292.75 353.50 293.75 356.50 C 294.75 359.50 295.96 363.77 296.75 367.50 C 297.54 371.23 298.21 373.40 298.50 378.88 C 298.79 384.35 298.79 394.31 298.50 400.38 C 298.21 406.44 297.38 411.71 296.75 415.25 C 296.12 418.79 295.56 419.67 294.75 421.62 C 293.94 423.58 293.85 420.77 291.88 427.00 C 289.90 433.23 284.35 453.44 282.88 459.00 C 281.40 464.56 282.50 459.52 283.00 460.38 C 283.50 461.23 284.81 462.90 285.88 464.12 C 286.94 465.35 288.19 466.79 289.38 467.75 C 290.56 468.71 291.75 469.56 293.00 469.88 C 294.25 470.19 295.48 469.98 296.88 469.62 C 298.27 469.27 299.67 468.83 301.38 467.75 C 303.08 466.67 305.21 464.94 307.12 463.12 C 309.04 461.31 311.27 458.81 312.88 456.88 C 314.48 454.94 315.46 453.69 316.75 451.50 C 318.04 449.31 319.65 446.08 320.62 443.75 C 321.60 441.42 322.10 439.54 322.62 437.50 C 323.15 435.46 323.56 434.88 323.75 431.50 C 323.94 428.12 324.04 421.67 323.75 417.25 C 323.46 412.83 322.62 410.62 322.00 405.00 C 321.38 399.38 320.33 388.35 320.00 383.50 C 319.67 378.65 319.85 379.40 320.00 375.88 C 320.15 372.35 320.38 366.21 320.88 362.38 C 321.38 358.54 322.52 354.69 323.00 352.88 C 323.48 351.06 323.62 352.38 323.75 351.50 C 323.88 350.62 323.94 348.81 323.75 347.62 C 323.56 346.44 323.15 345.38 322.62 344.38 C 322.10 343.38 321.27 342.35 320.62 341.62 C 319.98 340.90 319.67 340.58 318.75 340.00 C 317.83 339.42 317.29 338.88 315.12 338.12 C 312.96 337.38 308.04 335.92 305.75 335.50 Z" id="s-15-f-1"/>
<path d="M 284.38 338.50 C 284.00 338.83 283.25 338.25 284.12 339.75 C 285.00 341.25 288.02 344.71 289.62 347.50 C 291.23 350.29 292.56 353.17 293.75 356.50 C 294.94 359.83 295.96 363.77 296.75 367.50 C 297.54 371.23 298.17 374.38 298.50 378.88 C 298.83 383.38 298.92 389.17 298.75 394.50 C 298.58 399.83 298.00 406.79 297.50 410.88 C 297.00 414.96 296.67 416.38 295.75 419.00 C 294.83 421.62 292.83 424.54 292.00 426.62 C 291.17 428.71 290.56 430.60 290.75 431.50 C 290.94 432.40 287.71 431.94 293.12 432.00 C 298.54 432.06 318.15 432.00 323.25 431.88 C 328.35 431.75 323.65 431.65 323.75 431.25 C 323.85 430.85 323.88 431.85 323.88 429.50 C 323.88 427.15 324.06 421.21 323.75 417.12 C 323.44 413.04 322.62 410.60 322.00 405.00 C 321.38 399.40 320.33 388.35 320.00 383.50 C 319.67 378.65 319.83 379.58 320.00 375.88 C 320.17 372.17 320.35 365.46 321.00 361.25 C 321.65 357.04 323.42 352.90 323.88 350.62 C 324.33 348.35 323.94 348.62 323.75 347.62 C 323.56 346.62 323.27 345.62 322.75 344.62 C 322.23 343.62 321.56 342.56 320.62 341.62 C 319.69 340.69 319.60 340.02 317.12 339.00 C 314.65 337.98 309.58 335.90 305.75 335.50 C 301.92 335.10 296.40 336.31 294.12 336.62 C 291.85 336.94 293.42 337.19 292.12 337.38 C 290.83 337.56 287.67 337.56 286.38 337.75 C 285.08 337.94 284.75 338.17 284.38 338.50 Z" id="s-15-f-2"/>
<path d="M 284.38 338.50 C 284.00 338.83 283.25 338.25 284.12 339.75 C 285.00 341.25 288.02 344.71 289.62 347.50 C 291.23 350.29 292.44 352.54 293.75 356.50 C 295.06 360.46 296.67 366.75 297.50 371.25 C 298.33 375.75 296.08 381.40 298.75 383.50 C 301.42 385.60 310.21 383.90 313.50 383.88 C 316.79 383.85 317.46 383.79 318.50 383.38 C 319.54 382.96 319.33 385.06 319.75 381.38 C 320.17 377.69 320.31 366.35 321.00 361.25 C 321.69 356.15 323.46 353.19 323.88 350.75 C 324.29 348.31 323.90 347.98 323.50 346.62 C 323.10 345.27 322.56 343.90 321.50 342.62 C 320.44 341.35 319.75 340.19 317.12 339.00 C 314.50 337.81 309.58 335.90 305.75 335.50 C 301.92 335.10 296.42 336.31 294.12 336.62 C 291.83 336.94 293.29 337.19 292.00 337.38 C 290.71 337.56 287.65 337.56 286.38 337.75 C 285.10 337.94 284.75 338.17 284.38 338.50 Z" id="s-15-f-3"/>
</g>
<g id="s-16" clip-path="url(#c-s-16)">
<use href="#s-16-f-0"/>
<path d="M 261.75 378.88 C 260.81 377.46 259.71 375.88 257.25 373.88 C 254.79 371.88 249.69 368.35 247.00 366.88 C 244.31 365.40 243.17 365.27 241.12 365.00 C 239.08 364.73 236.10 364.90 234.75 365.25 C 233.40 365.60 233.48 365.77 233.00 367.12 C 232.52 368.48 232.42 371.42 231.88 373.38 C 231.33 375.33 230.58 377.04 229.75 378.88 C 228.92 380.71 229.25 380.81 226.88 384.38 C 224.50 387.94 219.04 395.54 215.50 400.25 C 211.96 404.96 206.94 410.50 205.62 412.62 C 204.31 414.75 202.50 412.98 207.62 413.00 C 212.75 413.02 230.71 413.52 236.38 412.75 C 242.04 411.98 238.83 411.33 241.62 408.38 C 244.42 405.42 249.60 398.88 253.12 395.00 C 256.65 391.12 261.12 387.23 262.75 385.12 C 264.38 383.02 263.04 383.42 262.88 382.38 C 262.71 381.33 262.69 380.29 261.75 378.88 Z" id="s-16-f-1"/>
</g>
<g id="s-17" clip-path="url(#c-s-17)">
<use href="#s-17-f-0"/>
<path d="M 350.75 365.00 C 349.65 365.17 349.90 365.65 349.88 366.25 C 349.85 366.85 349.06 366.96 350.62 368.62 C 352.19 370.29 356.23 373.27 359.25 376.25 C 362.27 379.23 364.62 381.48 368.75 386.50 C 372.88 391.52 379.98 401.29 384.00 406.38 C 388.02 411.46 390.60 414.44 392.88 417.00 C 395.15 419.56 396.77 421.38 397.62 421.75 C 398.48 422.12 397.98 425.85 398.00 419.25 C 398.02 412.65 399.60 389.31 397.75 382.12 C 395.90 374.94 391.46 378.29 386.88 376.12 C 382.29 373.96 374.08 370.65 370.25 369.12 C 366.42 367.60 366.17 367.65 363.88 367.00 C 361.58 366.35 358.69 365.58 356.50 365.25 C 354.31 364.92 351.85 364.83 350.75 365.00 Z" id="s-17-f-1"/>
</g>
</svg>