<?xml version="1.0" encoding="UTF-8"?>
<svg xmlns="http://www.w3.org/2000/svg" viewBox="0 0 500 500">
<defs>
<path d="M 136.25 55.00 C 134.60 54.17 134.56 54.17 133.50 54.00 C 132.44 53.83 130.88 53.79 129.88 54.00 C 128.88 54.21 128.17 54.67 127.50 55.25 C 126.83 55.83 126.31 56.33 125.88 57.50 C 125.44 58.67 125.08 59.67 124.88 62.25 C 124.67 64.83 124.83 69.33 124.62 73.00 C 124.42 76.67 124.27 80.06 123.62 84.25 C 122.98 88.44 122.42 92.19 120.75 98.12 C 119.08 104.06 115.67 113.96 113.62 119.88 C 111.58 125.79 111.65 126.12 108.50 133.62 C 105.35 141.12 99.90 154.15 94.75 164.88 C 89.60 175.60 82.77 188.42 77.62 198.00 C 72.48 207.58 67.50 216.17 63.88 222.38 C 60.25 228.58 58.69 230.96 55.88 235.25 C 53.06 239.54 50.96 242.98 47.00 248.12 C 43.04 253.27 34.65 262.92 32.12 266.12 C 29.60 269.33 31.69 266.94 31.88 267.38 C 32.06 267.81 32.38 268.52 33.25 268.75 C 34.12 268.98 36.02 268.92 37.12 268.75 C 38.23 268.58 37.83 268.92 39.88 267.75 C 41.92 266.58 46.29 264.08 49.38 261.75 C 52.46 259.42 53.73 258.31 58.38 253.75 C 63.02 249.19 72.17 239.94 77.25 234.38 C 82.33 228.81 85.46 224.75 88.88 220.38 C 92.29 216.00 94.27 213.31 97.75 208.12 C 101.23 202.94 105.92 195.62 109.75 189.25 C 113.58 182.88 114.25 183.48 120.75 169.88 C 127.25 156.27 142.69 121.71 148.75 107.62 C 154.81 93.54 155.29 89.98 157.12 85.38 C 158.96 80.77 159.31 81.58 159.75 80.00 C 160.19 78.42 160.06 77.17 159.75 75.88 C 159.44 74.58 158.54 73.29 157.88 72.25 C 157.21 71.21 157.08 71.00 155.75 69.62 C 154.42 68.25 151.94 65.77 149.88 64.00 C 147.81 62.23 145.65 60.50 143.38 59.00 C 141.10 57.50 137.90 55.83 136.25 55.00 Z" id="s-0-f-0"/>
<clipPath id="c-s-0"><use href="#s-0-f-0"/></clipPath>
<path d="M 207.50 139.38 C 207.06 138.17 205.83 137.12 205.12 136.38 C 204.42 135.62 204.23 135.44 203.25 134.88 C 202.27 134.31 201.33 133.79 199.25 133.00 C 197.17 132.21 193.02 130.60 190.75 130.12 C 188.48 129.65 187.92 129.19 185.62 130.12 C 183.33 131.06 180.52 133.83 177.00 135.75 C 173.48 137.67 168.31 140.00 164.50 141.62 C 160.69 143.25 160.31 143.44 154.12 145.50 C 147.94 147.56 133.12 149.85 127.38 154.00 C 121.62 158.15 120.60 167.56 119.62 170.38 C 118.65 173.19 119.48 170.79 121.50 170.88 C 123.52 170.96 128.65 171.06 131.75 170.88 C 134.85 170.69 135.19 170.79 140.12 169.75 C 145.06 168.71 154.04 166.65 161.38 164.62 C 168.71 162.60 178.33 159.60 184.12 157.62 C 189.92 155.65 192.62 154.46 196.12 152.75 C 199.62 151.04 203.19 148.90 205.12 147.38 C 207.06 145.85 207.35 144.96 207.75 143.62 C 208.15 142.29 207.94 140.58 207.50 139.38 Z" id="s-1-f-0"/>
<clipPath id="c-s-1"><use href="#s-1-f-0"/></clipPath>
<path d="M 206.88 214.62 C 206.71 213.77 206.40 213.06 205.75 212.25 C 205.10 211.44 204.79 210.79 203.00 209.75 C 201.21 208.71 197.98 207.10 195.00 206.00 C 192.02 204.90 187.71 203.62 185.12 203.12 C 182.54 202.62 182.58 202.08 179.50 203.00 C 176.42 203.92 174.94 205.85 166.62 208.62 C 158.31 211.40 138.67 217.12 129.62 219.62 C 120.58 222.12 118.65 222.40 112.38 223.62 C 106.10 224.85 95.88 226.10 92.00 227.00 C 88.12 227.90 89.65 228.44 89.12 229.00 C 88.60 229.56 88.79 229.85 88.88 230.38 C 88.96 230.90 89.10 231.38 89.62 232.12 C 90.15 232.88 91.08 233.98 92.00 234.88 C 92.92 235.77 93.96 236.71 95.12 237.50 C 96.29 238.29 96.77 238.94 99.00 239.62 C 101.23 240.31 104.81 241.25 108.50 241.62 C 112.19 242.00 114.71 242.50 121.12 241.88 C 127.54 241.25 139.65 239.23 147.00 237.88 C 154.35 236.52 158.38 235.46 165.25 233.75 C 172.12 232.04 183.08 229.12 188.25 227.62 C 193.42 226.12 193.88 225.73 196.25 224.75 C 198.62 223.77 200.90 222.73 202.50 221.75 C 204.10 220.77 205.17 219.60 205.88 218.88 C 206.58 218.15 206.58 218.08 206.75 217.38 C 206.92 216.67 207.04 215.48 206.88 214.62 Z" id="s-2-f-0"/>
<clipPath id="c-s-2"><use href="#s-2-f-0"/></clipPath>
<path d="M 221.88 293.38 C 221.29 292.44 220.40 291.23 218.38 290.00 C 216.35 288.77 214.40 287.48 209.75 286.00 C 205.10 284.52 194.58 281.96 190.50 281.12 C 186.42 280.29 190.15 280.06 185.25 281.00 C 180.35 281.94 166.27 285.60 161.12 286.75 C 155.98 287.90 160.50 286.23 154.38 287.88 C 148.25 289.52 134.90 293.81 124.38 296.62 C 113.85 299.44 100.15 302.73 91.25 304.75 C 82.35 306.77 77.15 307.69 71.00 308.75 C 64.85 309.81 57.48 310.52 54.38 311.12 C 51.27 311.73 52.79 311.83 52.38 312.38 C 51.96 312.92 51.90 313.88 51.88 314.38 C 51.85 314.88 51.79 314.83 52.25 315.38 C 52.71 315.92 53.54 316.92 54.62 317.62 C 55.71 318.33 57.04 318.94 58.75 319.62 C 60.46 320.31 62.08 321.06 64.88 321.75 C 67.67 322.44 72.40 323.42 75.50 323.75 C 78.60 324.08 76.38 325.04 83.50 323.75 C 90.62 322.46 110.38 317.62 118.25 316.00 C 126.12 314.38 128.10 314.35 130.75 314.00 C 133.40 313.65 129.65 314.67 134.12 313.88 C 138.60 313.08 149.15 310.73 157.62 309.25 C 166.10 307.77 175.48 306.25 185.00 305.00 C 194.52 303.75 209.33 302.46 214.75 301.75 C 220.17 301.04 216.50 301.38 217.50 300.75 C 218.50 300.12 220.02 298.85 220.75 298.00 C 221.48 297.15 221.69 296.40 221.88 295.62 C 222.06 294.85 222.46 294.31 221.88 293.38 Z" id="s-3-f-0"/>
<clipPath id="c-s-3"><use href="#s-3-f-0"/></clipPath>
<path d="M 147.00 237.62 C 145.21 237.08 143.79 237.50 142.62 237.62 C 141.46 237.75 141.29 238.19 140.00 238.38 C 138.71 238.56 135.98 238.58 134.88 238.75 C 133.77 238.92 135.50 239.06 133.38 239.38 C 131.25 239.69 124.52 240.19 122.12 240.62 C 119.73 241.06 118.44 240.15 119.00 242.00 C 119.56 243.85 124.04 249.02 125.50 251.75 C 126.96 254.48 127.21 256.38 127.75 258.38 C 128.29 260.38 128.25 258.56 128.75 263.75 C 129.25 268.94 130.44 282.42 130.75 289.50 C 131.06 296.58 130.54 302.38 130.62 306.25 C 130.71 310.12 131.04 311.38 131.25 312.75 C 131.46 314.12 131.79 311.77 131.88 314.50 C 131.96 317.23 132.33 316.88 131.75 329.12 C 131.17 341.38 129.08 376.90 128.38 388.00 C 127.67 399.10 127.94 393.15 127.50 395.75 C 127.06 398.35 126.40 401.38 125.75 403.62 C 125.10 405.88 124.25 407.94 123.62 409.25 C 123.00 410.56 122.44 410.71 122.00 411.50 C 121.56 412.29 121.17 412.73 121.00 414.00 C 120.83 415.27 120.81 417.44 121.00 419.12 C 121.19 420.81 121.62 422.44 122.12 424.12 C 122.62 425.81 123.00 427.04 124.00 429.25 C 125.00 431.46 126.54 435.12 128.12 437.38 C 129.71 439.62 131.79 441.50 133.50 442.75 C 135.21 444.00 137.17 444.54 138.38 444.88 C 139.58 445.21 140.12 444.90 140.75 444.75 C 141.38 444.60 140.65 445.25 142.12 444.00 C 143.60 442.75 144.08 442.73 149.62 437.25 C 155.17 431.77 164.17 422.12 175.38 411.12 C 186.58 400.12 209.79 378.23 216.88 371.25 C 223.96 364.27 217.73 369.83 217.88 369.25 C 218.02 368.67 218.00 368.15 217.75 367.75 C 217.50 367.35 217.06 367.00 216.38 366.88 C 215.69 366.75 214.62 366.79 213.62 367.00 C 212.62 367.21 220.60 363.35 210.38 368.12 C 200.15 372.90 162.29 391.06 152.25 395.62 C 142.21 400.19 150.79 395.83 150.12 395.50 C 149.46 395.17 148.60 394.60 148.25 393.62 C 147.90 392.65 147.88 393.31 148.00 389.62 C 148.12 385.94 148.73 375.12 149.00 371.50 C 149.27 367.88 149.48 370.17 149.62 367.88 C 149.77 365.58 149.48 364.31 149.88 357.75 C 150.27 351.19 151.31 336.65 152.00 328.50 C 152.69 320.35 153.48 312.69 154.00 308.88 C 154.52 305.06 154.92 307.38 155.12 305.62 C 155.33 303.88 155.08 300.21 155.25 298.38 C 155.42 296.54 156.00 296.58 156.12 294.62 C 156.25 292.67 155.42 293.23 156.00 286.62 C 156.58 280.02 159.00 261.33 159.62 255.00 C 160.25 248.67 159.90 250.10 159.75 248.62 C 159.60 247.15 159.31 247.02 158.75 246.12 C 158.19 245.23 157.27 244.12 156.38 243.25 C 155.48 242.38 154.94 241.81 153.38 240.88 C 151.81 239.94 148.79 238.17 147.00 237.62 Z" id="s-4-f-0"/>
<clipPath id="c-s-4"><use href="#s-4-f-0"/></clipPath>
<path d="M 241.12 101.00 C 239.56 101.23 239.52 101.81 239.00 102.38 C 238.48 102.94 238.19 103.58 238.00 104.38 C 237.81 105.17 237.06 105.79 237.88 107.12 C 238.69 108.46 241.42 110.56 242.88 112.38 C 244.33 114.19 245.48 116.08 246.62 118.00 C 247.77 119.92 248.77 121.69 249.75 123.88 C 250.73 126.06 251.50 127.88 252.50 131.12 C 253.50 134.38 254.71 138.17 255.75 143.38 C 256.79 148.58 257.88 155.56 258.75 162.38 C 259.62 169.19 259.62 173.65 261.00 184.25 C 262.38 194.85 265.81 218.23 267.00 226.00 C 268.19 233.77 267.46 228.88 268.12 230.88 C 268.79 232.88 269.90 235.81 271.00 238.00 C 272.10 240.19 273.65 242.52 274.75 244.00 C 275.85 245.48 276.85 246.25 277.62 246.88 C 278.40 247.50 278.73 247.60 279.38 247.75 C 280.02 247.90 280.77 248.08 281.50 247.75 C 282.23 247.42 282.90 246.92 283.75 245.75 C 284.60 244.58 285.81 242.81 286.62 240.75 C 287.44 238.69 288.23 235.50 288.62 233.38 C 289.02 231.25 289.48 235.00 289.00 228.00 C 288.52 221.00 286.71 200.23 285.75 191.38 C 284.79 182.52 283.96 180.83 283.25 174.88 C 282.54 168.92 282.38 161.69 281.50 155.62 C 280.62 149.56 278.79 144.29 278.00 138.50 C 277.21 132.71 277.94 125.75 276.75 120.88 C 275.56 116.00 272.15 111.50 270.88 109.25 C 269.60 107.00 271.81 108.58 269.12 107.38 C 266.44 106.17 258.21 103.06 254.75 102.00 C 251.29 100.94 250.65 101.17 248.38 101.00 C 246.10 100.83 242.69 100.77 241.12 101.00 Z" id="s-5-f-0"/>
<clipPath id="c-s-5"><use href="#s-5-f-0"/></clipPath>
<path d="M 269.75 108.12 C 268.81 108.44 269.52 108.75 269.62 109.00 C 269.73 109.25 269.35 107.62 270.38 109.62 C 271.40 111.62 274.69 118.96 275.75 121.00 C 276.81 123.04 275.75 121.75 276.75 121.88 C 277.75 122.00 279.08 121.94 281.75 121.75 C 284.42 121.56 288.56 121.27 292.75 120.75 C 296.94 120.23 297.06 120.75 306.88 118.62 C 316.69 116.50 339.23 110.77 351.62 108.00 C 364.02 105.23 375.04 103.17 381.25 102.00 C 387.46 100.83 387.21 101.17 388.88 101.00 C 390.54 100.83 390.46 100.85 391.25 101.00 C 392.04 101.15 392.71 101.10 393.62 101.88 C 394.54 102.65 396.06 104.19 396.75 105.62 C 397.44 107.06 397.73 106.12 397.75 110.50 C 397.77 114.88 397.52 124.42 396.88 131.88 C 396.23 139.33 394.42 150.02 393.88 155.25 C 393.33 160.48 394.46 155.56 393.62 163.25 C 392.79 170.94 390.35 192.12 388.88 201.38 C 387.40 210.62 385.23 214.90 384.75 218.75 C 384.27 222.60 385.46 222.73 386.00 224.50 C 386.54 226.27 387.38 228.08 388.00 229.38 C 388.62 230.67 389.02 231.33 389.75 232.25 C 390.48 233.17 391.65 234.29 392.38 234.88 C 393.10 235.46 392.96 235.62 394.12 235.75 C 395.29 235.88 397.83 235.94 399.38 235.62 C 400.92 235.31 402.25 234.56 403.38 233.88 C 404.50 233.19 405.06 232.88 406.12 231.50 C 407.19 230.12 408.85 227.54 409.75 225.62 C 410.65 223.71 408.94 231.71 411.50 220.00 C 414.06 208.29 422.04 169.62 425.12 155.38 C 428.21 141.12 428.54 139.98 430.00 134.50 C 431.46 129.02 432.88 125.33 433.88 122.50 C 434.88 119.67 435.04 119.42 436.00 117.50 C 436.96 115.58 438.83 112.65 439.62 111.00 C 440.42 109.35 440.58 108.96 440.75 107.62 C 440.92 106.29 440.77 104.04 440.62 103.00 C 440.48 101.96 440.46 102.17 439.88 101.38 C 439.29 100.58 439.25 99.98 437.12 98.25 C 435.00 96.52 430.42 93.02 427.12 91.00 C 423.83 88.98 421.52 87.94 417.38 86.12 C 413.23 84.31 405.79 81.15 402.25 80.12 C 398.71 79.10 398.21 79.83 396.12 80.00 C 394.04 80.17 392.67 80.46 389.75 81.12 C 386.83 81.79 385.31 81.90 378.62 84.00 C 371.94 86.10 358.33 91.12 349.62 93.75 C 340.92 96.38 334.83 97.92 326.38 99.75 C 317.92 101.58 305.88 103.60 298.88 104.75 C 291.88 105.90 288.31 106.23 284.38 106.62 C 280.44 107.02 277.69 106.88 275.25 107.12 C 272.81 107.38 270.69 107.81 269.75 108.12 Z" id="s-6-f-0"/>
<clipPath id="c-s-6"><use href="#s-6-f-0"/></clipPath>
<path d="M 395.25 149.25 C 394.25 147.90 392.42 146.75 389.12 145.88 C 385.83 145.00 378.85 144.31 375.50 144.00 C 372.15 143.69 371.83 143.67 369.00 144.00 C 366.17 144.33 362.60 145.04 358.50 146.00 C 354.40 146.96 349.77 148.46 344.38 149.75 C 338.98 151.04 333.96 152.25 326.12 153.75 C 318.29 155.25 304.44 157.67 297.38 158.75 C 290.31 159.83 286.40 159.83 283.75 160.25 C 281.10 160.67 281.83 160.04 281.50 161.25 C 281.17 162.46 281.56 165.73 281.75 167.50 C 281.94 169.27 282.29 171.02 282.62 171.88 C 282.96 172.73 283.02 172.31 283.75 172.62 C 284.48 172.94 285.08 173.38 287.00 173.75 C 288.92 174.12 291.67 174.75 295.25 174.88 C 298.83 175.00 298.81 175.73 308.50 174.50 C 318.19 173.27 344.06 169.08 353.38 167.50 C 362.69 165.92 359.52 165.81 364.38 165.00 C 369.23 164.19 378.17 163.33 382.50 162.62 C 386.83 161.92 388.42 161.42 390.38 160.75 C 392.33 160.08 393.46 159.75 394.25 158.62 C 395.04 157.50 394.96 155.56 395.12 154.00 C 395.29 152.44 396.25 150.60 395.25 149.25 Z" id="s-7-f-0"/>
<clipPath id="c-s-7"><use href="#s-7-f-0"/></clipPath>
<path d="M 389.62 201.38 C 389.48 200.96 389.94 202.02 388.25 201.62 C 386.56 201.23 382.15 199.44 379.50 199.00 C 376.85 198.56 376.52 198.33 372.38 199.00 C 368.23 199.67 360.60 201.54 354.62 203.00 C 348.65 204.46 341.94 206.46 336.50 207.75 C 331.06 209.04 330.10 209.40 322.00 210.75 C 313.90 212.10 293.62 214.96 287.88 215.88 C 282.12 216.79 287.50 214.48 287.50 216.25 C 287.50 218.02 287.71 224.54 287.88 226.50 C 288.04 228.46 288.42 227.38 288.50 228.00 C 288.58 228.62 288.35 229.77 288.38 230.25 C 288.40 230.73 288.19 230.62 288.62 230.88 C 289.06 231.12 288.71 231.62 291.00 231.75 C 293.29 231.88 298.04 231.96 302.38 231.62 C 306.71 231.29 305.35 231.65 317.00 229.75 C 328.65 227.85 360.92 222.06 372.25 220.25 C 383.58 218.44 382.69 219.44 385.00 218.88 C 387.31 218.31 385.90 217.69 386.12 216.88 C 386.35 216.06 386.21 214.71 386.38 214.00 C 386.54 213.29 386.96 213.35 387.12 212.62 C 387.29 211.90 387.23 210.23 387.38 209.62 C 387.52 209.02 387.83 209.71 388.00 209.00 C 388.17 208.29 388.19 206.19 388.38 205.38 C 388.56 204.56 388.92 204.79 389.12 204.12 C 389.33 203.46 389.77 201.79 389.62 201.38 Z" id="s-8-f-0"/>
<clipPath id="c-s-8"><use href="#s-8-f-0"/></clipPath>
<path d="M 229.50 273.00 C 227.79 273.19 228.02 273.69 227.50 274.12 C 226.98 274.56 226.65 275.08 226.38 275.62 C 226.10 276.17 225.94 276.73 225.88 277.38 C 225.81 278.02 225.52 278.58 226.00 279.50 C 226.48 280.42 227.62 281.21 228.75 282.88 C 229.88 284.54 231.42 286.96 232.75 289.50 C 234.08 292.04 235.58 295.15 236.75 298.12 C 237.92 301.10 238.60 302.90 239.75 307.38 C 240.90 311.85 242.60 319.27 243.62 325.00 C 244.65 330.73 245.08 334.33 245.88 341.75 C 246.67 349.17 247.15 357.60 248.38 369.50 C 249.60 381.40 251.98 404.56 253.25 413.12 C 254.52 421.69 254.60 418.06 256.00 420.88 C 257.40 423.69 260.08 428.02 261.62 430.00 C 263.17 431.98 264.15 432.29 265.25 432.75 C 266.35 433.21 267.46 432.98 268.25 432.75 C 269.04 432.52 269.46 431.98 270.00 431.38 C 270.54 430.77 270.88 430.58 271.50 429.12 C 272.12 427.67 273.35 428.44 273.75 422.62 C 274.15 416.81 274.08 403.12 273.88 394.25 C 273.67 385.38 272.98 375.62 272.50 369.38 C 272.02 363.12 271.25 359.42 271.00 356.75 C 270.75 354.08 271.35 355.94 271.00 353.38 C 270.65 350.81 269.42 345.81 268.88 341.38 C 268.33 336.94 268.38 332.85 267.75 326.75 C 267.12 320.65 265.58 309.75 265.12 304.75 C 264.67 299.75 265.65 300.44 265.00 296.75 C 264.35 293.06 261.98 285.17 261.25 282.62 C 260.52 280.08 261.12 281.98 260.62 281.50 C 260.12 281.02 259.58 280.50 258.25 279.75 C 256.92 279.00 255.04 277.96 252.62 277.00 C 250.21 276.04 246.23 274.67 243.75 274.00 C 241.27 273.33 240.12 273.17 237.75 273.00 C 235.38 272.83 231.21 272.81 229.50 273.00 Z" id="s-9-f-0"/>
<clipPath id="c-s-9"><use href="#s-9-f-0"/></clipPath>
<path d="M 260.62 282.38 C 260.52 282.73 260.50 283.50 260.62 284.00 C 260.75 284.50 260.88 283.38 261.38 285.38 C 261.88 287.38 263.06 293.92 263.62 296.00 C 264.19 298.08 262.02 297.58 264.75 297.88 C 267.48 298.17 274.33 297.96 280.00 297.75 C 285.67 297.54 292.56 297.15 298.75 296.62 C 304.94 296.10 306.17 296.23 317.12 294.62 C 328.08 293.02 350.81 289.10 364.50 287.00 C 378.19 284.90 391.29 283.00 399.25 282.00 C 407.21 281.00 409.50 280.92 412.25 281.00 C 415.00 281.08 414.83 281.79 415.75 282.50 C 416.67 283.21 417.25 284.02 417.75 285.25 C 418.25 286.48 418.58 287.27 418.75 289.88 C 418.92 292.48 418.92 296.27 418.75 300.88 C 418.58 305.48 418.23 311.75 417.75 317.50 C 417.27 323.25 416.21 331.33 415.88 335.38 C 415.54 339.42 416.04 339.40 415.75 341.75 C 415.46 344.10 414.79 344.90 414.12 349.50 C 413.46 354.10 412.79 362.04 411.75 369.38 C 410.71 376.71 409.21 387.27 407.88 393.50 C 406.54 399.73 404.42 403.69 403.75 406.75 C 403.08 409.81 403.31 409.48 403.88 411.88 C 404.44 414.27 406.10 418.98 407.12 421.12 C 408.15 423.27 409.06 423.83 410.00 424.75 C 410.94 425.67 411.33 426.29 412.75 426.62 C 414.17 426.96 417.00 426.90 418.50 426.75 C 420.00 426.60 420.65 426.23 421.75 425.75 C 422.85 425.27 423.98 424.75 425.12 423.88 C 426.27 423.00 427.52 421.94 428.62 420.50 C 429.73 419.06 430.94 416.98 431.75 415.25 C 432.56 413.52 429.29 428.04 433.50 410.12 C 437.71 392.21 452.56 326.27 457.00 307.75 C 461.44 289.23 458.83 301.85 460.12 299.00 C 461.42 296.15 463.81 292.52 464.75 290.62 C 465.69 288.73 465.58 288.94 465.75 287.62 C 465.92 286.31 466.08 284.27 465.75 282.75 C 465.42 281.23 465.31 280.46 463.75 278.50 C 462.19 276.54 458.98 273.21 456.38 271.00 C 453.77 268.79 452.38 267.73 448.12 265.25 C 443.88 262.77 435.02 258.15 430.88 256.12 C 426.73 254.10 425.48 253.65 423.25 253.12 C 421.02 252.60 421.67 252.33 417.50 253.00 C 413.33 253.67 407.75 254.67 398.25 257.12 C 388.75 259.58 371.56 264.98 360.50 267.75 C 349.44 270.52 342.38 271.92 331.88 273.75 C 321.38 275.58 309.27 277.40 297.50 278.75 C 285.73 280.10 267.40 281.27 261.25 281.88 C 255.10 282.48 260.73 282.02 260.62 282.38 Z" id="s-10-f-0"/>
<clipPath id="c-s-10"><use href="#s-10-f-0"/></clipPath>
<path d="M 417.88 326.38 C 417.92 326.12 417.69 326.06 417.50 326.12 C 417.31 326.19 417.15 326.79 416.75 326.75 C 416.35 326.71 416.27 326.17 415.12 325.88 C 413.98 325.58 412.75 325.33 409.88 325.00 C 407.00 324.67 402.17 323.85 397.88 323.88 C 393.58 323.90 391.38 324.00 384.12 325.12 C 376.88 326.25 363.83 329.02 354.38 330.62 C 344.92 332.23 335.56 333.58 327.38 334.75 C 319.19 335.92 314.54 336.58 305.25 337.62 C 295.96 338.67 277.73 340.25 271.62 341.00 C 265.52 341.75 269.12 341.42 268.62 342.12 C 268.12 342.83 268.31 343.15 268.62 345.25 C 268.94 347.35 269.06 352.85 270.50 354.75 C 271.94 356.65 273.42 356.29 277.25 356.62 C 281.08 356.96 285.56 357.23 293.50 356.75 C 301.44 356.27 312.65 355.25 324.88 353.75 C 337.10 352.25 357.65 349.21 366.88 347.75 C 376.10 346.29 375.71 345.69 380.25 345.00 C 384.79 344.31 388.46 344.35 394.12 343.62 C 399.79 342.90 410.58 341.27 414.25 340.62 C 417.92 339.98 415.65 340.90 416.12 339.75 C 416.60 338.60 416.94 335.77 417.12 333.75 C 417.31 331.73 417.12 328.85 417.25 327.62 C 417.38 326.40 417.83 326.62 417.88 326.38 Z" id="s-11-f-0"/>
<clipPath id="c-s-11"><use href="#s-11-f-0"/></clipPath>
<path d="M 408.12 394.50 C 407.71 393.29 407.08 393.23 404.62 392.00 C 402.17 390.77 396.02 388.12 393.38 387.12 C 390.73 386.12 390.75 386.19 388.75 386.00 C 386.75 385.81 384.79 385.65 381.38 386.00 C 377.96 386.35 373.33 387.17 368.25 388.12 C 363.17 389.08 357.85 390.50 350.88 391.75 C 343.90 393.00 334.96 394.46 326.38 395.62 C 317.79 396.79 308.12 397.88 299.38 398.75 C 290.62 399.62 278.19 400.44 273.88 400.88 C 269.56 401.31 273.56 398.44 273.50 401.38 C 273.44 404.31 273.38 415.58 273.50 418.50 C 273.62 421.42 271.08 418.85 274.25 418.88 C 277.42 418.90 277.96 419.83 292.50 418.62 C 307.04 417.42 346.69 413.23 361.50 411.62 C 376.31 410.02 374.35 409.62 381.38 409.00 C 388.40 408.38 399.67 408.33 403.62 407.88 C 407.58 407.42 404.83 406.94 405.12 406.25 C 405.42 405.56 405.21 404.35 405.38 403.75 C 405.54 403.15 405.96 403.21 406.12 402.62 C 406.29 402.04 406.21 400.81 406.38 400.25 C 406.54 399.69 406.83 400.21 407.12 399.25 C 407.42 398.29 408.54 395.71 408.12 394.50 Z" id="s-12-f-0"/>
<clipPath id="c-s-12"><use href="#s-12-f-0"/></clipPath>
</defs>
<g id="s-0" clip-path="url(#c-s-0)">
<use href="#s-0-f-0"/>
<path d="M 136.25 55.00 C 134.60 54.17 134.56 54.17 133.50 54.00 C 132.44 53.83 130.88 53.79 129.88 54.00 C 128.88 54.21 128.12 54.77 127.50 55.25 C 126.88 55.73 126.52 56.15 126.12 56.88 C 125.73 57.60 125.38 56.94 125.12 59.62 C 124.88 62.31 124.85 69.06 124.62 73.00 C 124.40 76.94 124.23 79.69 123.75 83.25 C 123.27 86.81 123.44 88.27 121.75 94.38 C 120.06 100.48 116.15 112.56 113.62 119.88 C 111.10 127.19 109.77 130.75 106.62 138.25 C 103.48 145.75 99.58 154.92 94.75 164.88 C 89.92 174.83 82.77 188.42 77.62 198.00 C 72.48 207.58 67.50 216.17 63.88 222.38 C 60.25 228.58 58.35 231.48 55.88 235.25 C 53.40 239.02 50.12 243.23 49.00 245.00 C 47.88 246.77 46.25 245.75 49.12 245.88 C 52.00 246.00 61.56 247.67 66.25 245.75 C 70.94 243.83 73.48 238.60 77.25 234.38 C 81.02 230.15 84.60 226.04 88.88 220.38 C 93.15 214.71 98.73 206.69 102.88 200.38 C 107.02 194.06 111.06 187.17 113.75 182.50 C 116.44 177.83 117.83 174.48 119.00 172.38 C 120.17 170.27 120.04 171.31 120.75 169.88 C 121.46 168.44 122.23 165.92 123.25 163.75 C 124.27 161.58 125.73 159.38 126.88 156.88 C 128.02 154.38 128.12 153.17 130.12 148.75 C 132.12 144.33 135.81 137.12 138.88 130.38 C 141.94 123.62 145.00 116.81 148.50 108.25 C 152.00 99.69 158.00 84.40 159.88 79.00 C 161.75 73.60 160.08 77.00 159.75 75.88 C 159.42 74.75 158.54 73.29 157.88 72.25 C 157.21 71.21 157.08 71.00 155.75 69.62 C 154.42 68.25 151.94 65.77 149.88 64.00 C 147.81 62.23 145.65 60.50 143.38 59.00 C 141.10 57.50 137.90 55.83 136.25 55.00 Z" id="s-0-f-1"/>
<path d="M 134.12 54.12 C 131.79 53.31 130.48 53.94 129.38 54.12 C 128.27 54.31 128.08 54.69 127.50 55.25 C 126.92 55.81 126.27 56.77 125.88 57.50 C 125.48 58.23 125.42 55.96 125.12 59.62 C 124.83 63.29 124.58 74.19 124.12 79.50 C 123.67 84.81 123.10 87.85 122.38 91.50 C 121.65 95.15 121.21 96.65 119.75 101.38 C 118.29 106.10 115.81 113.73 113.62 119.88 C 111.44 126.02 109.29 131.77 106.62 138.25 C 103.96 144.73 102.40 148.90 97.62 158.75 C 92.85 168.60 80.02 190.85 78.00 197.38 C 75.98 203.90 81.23 197.77 85.50 197.88 C 89.77 197.98 100.40 198.12 103.62 198.00 C 106.85 197.88 102.02 201.81 104.88 197.12 C 107.73 192.44 117.69 175.44 120.75 169.88 C 123.81 164.31 122.23 165.92 123.25 163.75 C 124.27 161.58 125.73 159.38 126.88 156.88 C 128.02 154.38 128.12 153.17 130.12 148.75 C 132.12 144.33 135.81 137.12 138.88 130.38 C 141.94 123.62 145.50 115.65 148.50 108.25 C 151.50 100.85 155.02 90.65 156.88 86.00 C 158.73 81.35 159.15 82.06 159.62 80.38 C 160.10 78.69 160.04 77.23 159.75 75.88 C 159.46 74.52 158.54 73.29 157.88 72.25 C 157.21 71.21 157.08 71.00 155.75 69.62 C 154.42 68.25 151.94 65.77 149.88 64.00 C 147.81 62.23 146.00 60.65 143.38 59.00 C 140.75 57.35 136.46 54.94 134.12 54.12 Z" id="s-0-f-2"/>
<path d="M 134.12 54.12 C 131.88 53.29 130.79 53.94 129.88 54.00 C 128.96 54.06 129.25 54.02 128.62 54.50 C 128.00 54.98 126.71 56.02 126.12 56.88 C 125.54 57.73 125.46 55.85 125.12 59.62 C 124.79 63.40 124.69 73.71 124.12 79.50 C 123.56 85.29 123.50 87.65 121.75 94.38 C 120.00 101.10 115.83 113.33 113.62 119.88 C 111.42 126.42 110.46 128.79 108.50 133.62 C 106.54 138.46 102.96 146.17 101.88 148.88 C 100.79 151.58 97.71 149.69 102.00 149.88 C 106.29 150.06 123.00 150.04 127.62 150.00 C 132.25 149.96 126.23 156.69 129.75 149.62 C 133.27 142.56 144.19 118.33 148.75 107.62 C 153.31 96.92 155.31 89.92 157.12 85.38 C 158.94 80.83 159.19 81.96 159.62 80.38 C 160.06 78.79 160.04 77.23 159.75 75.88 C 159.46 74.52 158.54 73.29 157.88 72.25 C 157.21 71.21 157.08 71.00 155.75 69.62 C 154.42 68.25 151.94 65.77 149.88 64.00 C 147.81 62.23 146.00 60.65 143.38 59.00 C 140.75 57.35 136.38 54.96 134.12 54.12 Z" id="s-0-f-3"/>
<path d="M 129.38 54.12 C 128.10 54.50 127.21 55.46 126.50 56.38 C 125.79 57.29 125.44 56.85 125.12 59.62 C 124.81 62.40 124.88 68.90 124.62 73.00 C 124.38 77.10 124.10 80.69 123.62 84.25 C 123.15 87.81 122.40 91.54 121.75 94.38 C 121.10 97.21 120.02 100.02 119.75 101.25 C 119.48 102.48 119.77 101.62 120.12 101.75 C 120.48 101.88 116.79 101.98 121.88 102.00 C 126.96 102.02 144.75 104.65 150.62 101.88 C 156.50 99.10 155.62 88.96 157.12 85.38 C 158.62 81.79 159.19 81.96 159.62 80.38 C 160.06 78.79 160.04 77.23 159.75 75.88 C 159.46 74.52 158.54 73.29 157.88 72.25 C 157.21 71.21 157.08 71.00 155.75 69.62 C 154.42 68.25 151.94 65.77 149.88 64.00 C 147.81 62.23 146.00 60.65 143.38 59.00 C 140.75 57.35 136.46 54.94 134.12 54.12 C 131.79 53.31 130.65 53.75 129.38 54.12 Z" id="s-0-f-4"/>
</g>
<g id="s-1" clip-path="url(#c-s-1)">
<use href="#s-1-f-0"/>
<path d="M 167.75 140.38 C 167.60 136.96 169.40 139.40 167.12 140.25 C 164.85 141.10 160.75 143.21 154.12 145.50 C 147.50 147.79 132.29 151.73 127.38 154.00 C 122.46 156.27 125.56 157.08 124.62 159.12 C 123.69 161.17 122.56 164.52 121.75 166.25 C 120.94 167.98 120.08 168.77 119.75 169.50 C 119.42 170.23 117.19 170.44 119.75 170.62 C 122.31 170.81 130.21 171.10 135.12 170.62 C 140.04 170.15 143.85 169.06 149.25 167.75 C 154.65 166.44 164.38 163.92 167.50 162.75 C 170.62 161.58 167.96 164.48 168.00 160.75 C 168.04 157.02 167.90 143.79 167.75 140.38 Z" id="s-1-f-1"/>
</g>
<g id="s-2" clip-path="url(#c-s-2)">
<use href="#s-2-f-0"/>
<path d="M 184.88 203.75 C 184.75 199.56 185.12 203.10 184.12 203.00 C 183.12 202.90 180.21 202.83 178.88 203.12 C 177.54 203.42 178.17 203.83 176.12 204.75 C 174.08 205.67 174.38 206.15 166.62 208.62 C 158.88 211.10 138.67 217.12 129.62 219.62 C 120.58 222.12 118.65 222.40 112.38 223.62 C 106.10 224.85 95.88 226.10 92.00 227.00 C 88.12 227.90 89.65 228.44 89.12 229.00 C 88.60 229.56 88.79 229.85 88.88 230.38 C 88.96 230.90 89.10 231.38 89.62 232.12 C 90.15 232.88 91.08 233.98 92.00 234.88 C 92.92 235.77 93.96 236.71 95.12 237.50 C 96.29 238.29 96.77 238.94 99.00 239.62 C 101.23 240.31 104.81 241.25 108.50 241.62 C 112.19 242.00 115.65 242.33 121.12 241.88 C 126.60 241.42 135.44 239.90 141.38 238.88 C 147.31 237.85 150.69 237.12 156.75 235.75 C 162.81 234.38 173.12 231.81 177.75 230.62 C 182.38 229.44 183.31 229.04 184.50 228.62 C 185.69 228.21 184.81 232.27 184.88 228.12 C 184.94 223.98 185.00 207.94 184.88 203.75 Z" id="s-2-f-1"/>
<path d="M 136.75 218.12 C 136.62 214.81 137.31 217.50 136.12 217.75 C 134.94 218.00 133.58 218.65 129.62 219.62 C 125.67 220.60 118.65 222.40 112.38 223.62 C 106.10 224.85 95.88 226.10 92.00 227.00 C 88.12 227.90 89.65 228.44 89.12 229.00 C 88.60 229.56 88.79 229.85 88.88 230.38 C 88.96 230.90 89.15 231.42 89.62 232.12 C 90.10 232.83 90.83 233.73 91.75 234.62 C 92.67 235.52 93.92 236.67 95.12 237.50 C 96.33 238.33 97.69 239.08 99.00 239.62 C 100.31 240.17 101.17 240.40 103.00 240.75 C 104.83 241.10 106.98 241.56 110.00 241.75 C 113.02 241.94 116.77 242.23 121.12 241.88 C 125.48 241.52 133.52 240.10 136.12 239.62 C 138.73 239.15 136.62 239.33 136.75 239.00 C 136.88 238.67 136.88 241.10 136.88 237.62 C 136.88 234.15 136.88 221.44 136.75 218.12 Z" id="s-2-f-2"/>
</g>
<g id="s-3" clip-path="url(#c-s-3)">
<use href="#s-3-f-0"/>
<path d="M 195.88 282.88 C 195.67 279.52 196.10 282.33 194.75 282.00 C 193.40 281.67 190.27 280.85 187.75 280.88 C 185.23 280.90 184.06 281.15 179.62 282.12 C 175.19 283.10 165.33 285.79 161.12 286.75 C 156.92 287.71 160.50 286.23 154.38 287.88 C 148.25 289.52 134.90 293.81 124.38 296.62 C 113.85 299.44 99.77 302.79 91.25 304.75 C 82.73 306.71 79.40 307.31 73.25 308.38 C 67.10 309.44 57.85 310.46 54.38 311.12 C 50.90 311.79 52.79 311.83 52.38 312.38 C 51.96 312.92 51.90 313.88 51.88 314.38 C 51.85 314.88 51.79 314.83 52.25 315.38 C 52.71 315.92 53.06 316.73 54.62 317.62 C 56.19 318.52 58.50 319.77 61.62 320.75 C 64.75 321.73 69.96 322.98 73.38 323.50 C 76.79 324.02 73.71 325.29 82.12 323.88 C 90.54 322.46 115.21 316.67 123.88 315.00 C 132.54 313.33 126.25 315.21 134.12 313.88 C 142.00 312.54 160.94 308.67 171.12 307.00 C 181.31 305.33 191.10 304.69 195.25 303.88 C 199.40 303.06 195.90 305.62 196.00 302.12 C 196.10 298.62 196.08 286.23 195.88 282.88 Z" id="s-3-f-1"/>
<path d="M 147.88 290.25 C 147.71 286.98 147.38 289.81 147.00 289.88 C 146.62 289.94 147.38 290.12 145.62 290.62 C 143.88 291.12 140.04 291.88 136.50 292.88 C 132.96 293.88 131.92 294.65 124.38 296.62 C 116.83 298.60 99.77 302.79 91.25 304.75 C 82.73 306.71 79.40 307.31 73.25 308.38 C 67.10 309.44 57.85 310.46 54.38 311.12 C 50.90 311.79 52.79 311.83 52.38 312.38 C 51.96 312.92 51.90 313.88 51.88 314.38 C 51.85 314.88 51.79 314.83 52.25 315.38 C 52.71 315.92 53.06 316.73 54.62 317.62 C 56.19 318.52 59.44 319.94 61.62 320.75 C 63.81 321.56 65.69 322.02 67.75 322.50 C 69.81 322.98 71.60 323.40 74.00 323.62 C 76.40 323.85 74.75 325.15 82.12 323.88 C 89.50 322.60 110.15 317.65 118.25 316.00 C 126.35 314.35 128.23 314.33 130.75 314.00 C 133.27 313.67 130.88 314.38 133.38 314.00 C 135.88 313.62 143.38 312.23 145.75 311.75 C 148.12 311.27 147.25 311.50 147.62 311.12 C 148.00 310.75 147.96 312.98 148.00 309.50 C 148.04 306.02 148.04 293.52 147.88 290.25 Z" id="s-3-f-2"/>
<path d="M 99.75 303.88 C 99.65 301.12 99.73 303.15 99.38 303.00 C 99.02 302.85 101.44 302.21 97.62 303.00 C 93.81 303.79 82.81 306.48 76.50 307.75 C 70.19 309.02 63.44 310.06 59.75 310.62 C 56.06 311.19 55.65 310.77 54.38 311.12 C 53.10 311.48 52.52 312.10 52.12 312.75 C 51.73 313.40 51.58 314.19 52.00 315.00 C 52.42 315.81 53.02 316.67 54.62 317.62 C 56.23 318.58 59.25 319.90 61.62 320.75 C 64.00 321.60 66.79 322.27 68.88 322.75 C 70.96 323.23 71.69 323.46 74.12 323.62 C 76.56 323.79 79.48 324.27 83.50 323.75 C 87.52 323.23 95.50 321.21 98.25 320.50 C 101.00 319.79 99.75 322.27 100.00 319.50 C 100.25 316.73 99.85 306.62 99.75 303.88 Z" id="s-3-f-3"/>
</g>
<g id="s-4" clip-path="url(#c-s-4)">
<use href="#s-4-f-0"/>
<path d="M 147.00 237.62 C 145.23 237.10 143.79 237.50 142.62 237.62 C 141.46 237.75 141.29 238.19 140.00 238.38 C 138.71 238.56 135.98 238.58 134.88 238.75 C 133.77 238.92 135.50 239.06 133.38 239.38 C 131.25 239.69 124.52 240.21 122.12 240.62 C 119.73 241.04 118.44 240.02 119.00 241.88 C 119.56 243.73 124.04 249.00 125.50 251.75 C 126.96 254.50 127.21 256.38 127.75 258.38 C 128.29 260.38 128.25 258.56 128.75 263.75 C 129.25 268.94 130.44 282.42 130.75 289.50 C 131.06 296.58 130.54 302.38 130.62 306.25 C 130.71 310.12 131.04 311.38 131.25 312.75 C 131.46 314.12 131.79 311.77 131.88 314.50 C 131.96 317.23 131.94 323.23 131.75 329.12 C 131.56 335.02 131.40 339.23 130.75 349.88 C 130.10 360.52 128.71 384.04 127.88 393.00 C 127.04 401.96 126.46 400.92 125.75 403.62 C 125.04 406.33 124.40 407.60 123.62 409.25 C 122.85 410.90 121.56 411.85 121.12 413.50 C 120.69 415.15 120.52 416.50 121.00 419.12 C 121.48 421.75 122.81 426.21 124.00 429.25 C 125.19 432.29 126.54 435.12 128.12 437.38 C 129.71 439.62 131.79 441.50 133.50 442.75 C 135.21 444.00 137.17 444.54 138.38 444.88 C 139.58 445.21 140.12 444.90 140.75 444.75 C 141.38 444.60 140.65 445.25 142.12 444.00 C 143.60 442.75 144.08 442.73 149.62 437.25 C 155.17 431.77 169.02 417.48 175.38 411.12 C 181.73 404.77 185.65 401.42 187.75 399.12 C 189.85 396.83 187.96 400.48 188.00 397.38 C 188.04 394.27 188.08 383.56 188.00 380.50 C 187.92 377.44 193.46 376.48 187.50 379.00 C 181.54 381.52 158.48 392.88 152.25 395.62 C 146.02 398.38 150.81 395.90 150.12 395.50 C 149.44 395.10 148.31 397.25 148.12 393.25 C 147.94 389.25 148.75 375.73 149.00 371.50 C 149.25 367.27 149.56 368.77 149.62 367.88 C 149.69 366.98 148.98 372.69 149.38 366.12 C 149.77 359.56 151.23 338.04 152.00 328.50 C 152.77 318.96 153.48 312.69 154.00 308.88 C 154.52 305.06 154.92 307.38 155.12 305.62 C 155.33 303.88 155.08 300.21 155.25 298.38 C 155.42 296.54 156.00 296.58 156.12 294.62 C 156.25 292.67 155.42 293.23 156.00 286.62 C 156.58 280.02 159.00 261.33 159.62 255.00 C 160.25 248.67 159.90 250.10 159.75 248.62 C 159.60 247.15 159.31 247.02 158.75 246.12 C 158.19 245.23 157.29 244.15 156.38 243.25 C 155.46 242.35 154.81 241.69 153.25 240.75 C 151.69 239.81 148.77 238.15 147.00 237.62 Z" id="s-4-f-1"/>
<path d="M 147.00 237.62 C 145.23 237.10 143.79 237.50 142.62 237.62 C 141.46 237.75 141.29 238.19 140.00 238.38 C 138.71 238.56 135.98 238.58 134.88 238.75 C 133.77 238.92 135.50 239.06 133.38 239.38 C 131.25 239.69 124.52 240.21 122.12 240.62 C 119.73 241.04 118.44 240.02 119.00 241.88 C 119.56 243.73 124.04 249.00 125.50 251.75 C 126.96 254.50 127.21 256.38 127.75 258.38 C 128.29 260.38 128.25 258.56 128.75 263.75 C 129.25 268.94 130.44 282.42 130.75 289.50 C 131.06 296.58 130.52 302.25 130.62 306.25 C 130.73 310.25 131.17 312.12 131.38 313.50 C 131.58 314.88 131.81 311.90 131.88 314.50 C 131.94 317.10 132.33 316.88 131.75 329.12 C 131.17 341.38 129.08 376.90 128.38 388.00 C 127.67 399.10 127.94 393.15 127.50 395.75 C 127.06 398.35 126.40 401.38 125.75 403.62 C 125.10 405.88 124.40 407.60 123.62 409.25 C 122.85 410.90 121.56 411.88 121.12 413.50 C 120.69 415.12 120.83 417.25 121.00 419.00 C 121.17 420.75 121.62 422.29 122.12 424.00 C 122.62 425.71 123.00 427.02 124.00 429.25 C 125.00 431.48 126.54 435.12 128.12 437.38 C 129.71 439.62 131.79 441.50 133.50 442.75 C 135.21 444.00 137.29 444.58 138.38 444.88 C 139.46 445.17 139.60 445.02 140.00 444.50 C 140.40 443.98 139.46 449.94 140.75 441.75 C 142.04 433.56 145.88 414.25 147.75 395.38 C 149.62 376.50 150.96 342.90 152.00 328.50 C 153.04 314.10 153.50 312.60 154.00 309.00 C 154.50 305.40 154.79 308.65 155.00 306.88 C 155.21 305.10 155.06 300.42 155.25 298.38 C 155.44 296.33 156.00 296.58 156.12 294.62 C 156.25 292.67 155.40 293.48 156.00 286.62 C 156.60 279.77 159.12 259.83 159.75 253.50 C 160.38 247.17 160.06 250.06 159.75 248.62 C 159.44 247.19 158.96 246.19 157.88 244.88 C 156.79 243.56 155.06 241.96 153.25 240.75 C 151.44 239.54 148.77 238.15 147.00 237.62 Z" id="s-4-f-2"/>
<path d="M 147.00 237.62 C 145.23 237.10 143.79 237.50 142.62 237.62 C 141.46 237.75 141.29 238.19 140.00 238.38 C 138.71 238.56 135.98 238.58 134.88 238.75 C 133.77 238.92 135.50 239.06 133.38 239.38 C 131.25 239.69 124.52 240.21 122.12 240.62 C 119.73 241.04 118.44 240.02 119.00 241.88 C 119.56 243.73 124.04 249.00 125.50 251.75 C 126.96 254.50 127.21 256.38 127.75 258.38 C 128.29 260.38 128.25 258.56 128.75 263.75 C 129.25 268.94 130.44 282.42 130.75 289.50 C 131.06 296.58 130.52 302.25 130.62 306.25 C 130.73 310.25 131.17 312.12 131.38 313.50 C 131.58 314.88 131.81 311.90 131.88 314.50 C 131.94 317.10 132.25 317.77 131.75 329.12 C 131.25 340.48 129.52 372.02 128.88 382.62 C 128.23 393.23 128.40 389.25 127.88 392.75 C 127.35 396.25 126.46 400.88 125.75 403.62 C 125.04 406.38 124.42 407.50 123.62 409.25 C 122.83 411.00 121.42 412.29 121.00 414.12 C 120.58 415.96 120.62 417.73 121.12 420.25 C 121.62 422.77 123.38 427.65 124.00 429.25 C 124.62 430.85 122.08 429.75 124.88 429.88 C 127.67 430.00 137.83 430.06 140.75 430.00 C 143.67 429.94 141.21 435.27 142.38 429.50 C 143.54 423.73 146.15 412.21 147.75 395.38 C 149.35 378.54 150.98 342.65 152.00 328.50 C 153.02 314.35 153.48 313.67 153.88 310.50 C 154.27 307.33 154.35 309.77 154.38 309.50 C 154.40 309.23 153.88 309.52 154.00 308.88 C 154.12 308.23 154.92 307.38 155.12 305.62 C 155.33 303.88 155.08 300.21 155.25 298.38 C 155.42 296.54 156.00 296.58 156.12 294.62 C 156.25 292.67 155.42 293.21 156.00 286.62 C 156.58 280.04 159.00 261.46 159.62 255.12 C 160.25 248.79 159.90 250.12 159.75 248.62 C 159.60 247.12 159.31 247.02 158.75 246.12 C 158.19 245.23 157.29 244.15 156.38 243.25 C 155.46 242.35 154.81 241.69 153.25 240.75 C 151.69 239.81 148.77 238.15 147.00 237.62 Z" id="s-4-f-3"/>
<path d="M 147.00 237.62 C 145.23 237.10 143.79 237.50 142.62 237.62 C 141.46 237.75 141.29 238.19 140.00 238.38 C 138.71 238.56 135.98 238.58 134.88 238.75 C 133.77 238.92 135.50 239.06 133.38 239.38 C 131.25 239.69 124.52 240.21 122.12 240.62 C 119.73 241.04 118.56 240.25 119.00 241.88 C 119.44 243.50 123.48 248.27 124.75 250.38 C 126.02 252.48 125.96 252.27 126.62 254.50 C 127.29 256.73 128.06 257.92 128.75 263.75 C 129.44 269.58 130.44 282.42 130.75 289.50 C 131.06 296.58 130.54 302.38 130.62 306.25 C 130.71 310.12 131.04 311.38 131.25 312.75 C 131.46 314.12 131.98 307.75 131.88 314.50 C 131.77 321.25 131.12 342.10 130.62 353.25 C 130.12 364.40 129.08 376.58 128.88 381.38 C 128.67 386.17 126.40 381.90 129.38 382.00 C 132.35 382.10 143.56 382.10 146.75 382.00 C 149.94 381.90 147.62 390.29 148.50 381.38 C 149.38 372.46 151.10 340.31 152.00 328.50 C 152.90 316.69 153.48 313.67 153.88 310.50 C 154.27 307.33 154.35 309.77 154.38 309.50 C 154.40 309.23 153.88 309.52 154.00 308.88 C 154.12 308.23 154.92 307.38 155.12 305.62 C 155.33 303.88 155.08 300.21 155.25 298.38 C 155.42 296.54 156.00 296.58 156.12 294.62 C 156.25 292.67 155.40 293.48 156.00 286.62 C 156.60 279.77 159.12 259.83 159.75 253.50 C 160.38 247.17 159.92 249.85 159.75 248.62 C 159.58 247.40 159.31 247.02 158.75 246.12 C 158.19 245.23 157.29 244.15 156.38 243.25 C 155.46 242.35 154.81 241.69 153.25 240.75 C 151.69 239.81 148.77 238.15 147.00 237.62 Z" id="s-4-f-4"/>
<path d="M 147.00 237.62 C 145.23 237.10 143.79 237.50 142.62 237.62 C 141.46 237.75 141.29 238.19 140.00 238.38 C 138.71 238.56 135.98 238.58 134.88 238.75 C 133.77 238.92 135.50 239.06 133.38 239.38 C 131.25 239.69 124.52 240.21 122.12 240.62 C 119.73 241.04 118.42 239.98 119.00 241.88 C 119.58 243.77 124.17 249.25 125.62 252.00 C 127.08 254.75 127.23 256.42 127.75 258.38 C 128.27 260.33 128.27 259.00 128.75 263.75 C 129.23 268.50 130.31 279.79 130.62 286.88 C 130.94 293.96 130.52 301.90 130.62 306.25 C 130.73 310.60 131.04 311.62 131.25 313.00 C 131.46 314.38 131.83 311.10 131.88 314.50 C 131.92 317.90 131.46 330.15 131.50 333.38 C 131.54 336.60 129.02 333.77 132.12 333.88 C 135.23 333.98 146.90 334.00 150.12 334.00 C 153.35 334.00 150.81 337.94 151.50 333.88 C 152.19 329.81 153.83 313.79 154.25 309.62 C 154.67 305.46 153.85 309.54 154.00 308.88 C 154.15 308.21 154.92 307.38 155.12 305.62 C 155.33 303.88 155.08 300.21 155.25 298.38 C 155.42 296.54 156.00 296.58 156.12 294.62 C 156.25 292.67 155.38 293.92 156.00 286.62 C 156.62 279.33 159.25 257.21 159.88 250.88 C 160.50 244.54 159.94 249.42 159.75 248.62 C 159.56 247.83 159.31 247.02 158.75 246.12 C 158.19 245.23 157.29 244.15 156.38 243.25 C 155.46 242.35 154.81 241.69 153.25 240.75 C 151.69 239.81 148.77 238.15 147.00 237.62 Z" id="s-4-f-5"/>
<path d="M 147.38 237.75 C 145.42 237.23 142.85 237.65 141.62 237.75 C 140.40 237.85 141.12 238.21 140.00 238.38 C 138.88 238.54 135.98 238.58 134.88 238.75 C 133.77 238.92 135.62 239.04 133.38 239.38 C 131.12 239.71 123.77 240.33 121.38 240.75 C 118.98 241.17 118.29 240.00 119.00 241.88 C 119.71 243.75 124.17 249.25 125.62 252.00 C 127.08 254.75 127.21 256.25 127.75 258.38 C 128.29 260.50 128.42 260.25 128.88 264.75 C 129.33 269.25 130.12 281.85 130.50 285.38 C 130.88 288.90 127.19 285.77 131.12 285.88 C 135.06 285.98 149.94 286.08 154.12 286.00 C 158.31 285.92 155.29 290.94 156.25 285.38 C 157.21 279.81 159.29 258.75 159.88 252.62 C 160.46 246.50 159.94 249.71 159.75 248.62 C 159.56 247.54 159.31 247.02 158.75 246.12 C 158.19 245.23 157.27 244.12 156.38 243.25 C 155.48 242.38 154.88 241.79 153.38 240.88 C 151.88 239.96 149.33 238.27 147.38 237.75 Z" id="s-4-f-6"/>
</g>
<g id="s-5" clip-path="url(#c-s-5)">
<use href="#s-5-f-0"/>
<path d="M 241.12 101.00 C 239.65 101.15 239.98 101.42 239.50 101.88 C 239.02 102.33 238.52 102.88 238.25 103.75 C 237.98 104.62 237.10 105.69 237.88 107.12 C 238.65 108.56 241.42 110.56 242.88 112.38 C 244.33 114.19 245.48 116.08 246.62 118.00 C 247.77 119.92 248.77 121.69 249.75 123.88 C 250.73 126.06 251.50 127.88 252.50 131.12 C 253.50 134.38 254.71 138.17 255.75 143.38 C 256.79 148.58 257.88 155.56 258.75 162.38 C 259.62 169.19 259.62 173.65 261.00 184.25 C 262.38 194.85 265.81 218.23 267.00 226.00 C 268.19 233.77 267.46 228.88 268.12 230.88 C 268.79 232.88 269.81 235.71 271.00 238.00 C 272.19 240.29 274.29 243.46 275.25 244.62 C 276.21 245.79 275.31 244.96 276.75 245.00 C 278.19 245.04 282.54 244.98 283.88 244.88 C 285.21 244.77 284.12 245.54 284.75 244.38 C 285.38 243.21 286.92 240.15 287.62 237.88 C 288.33 235.60 288.79 232.90 289.00 230.75 C 289.21 228.60 289.25 230.08 288.88 225.00 C 288.50 219.92 287.69 208.60 286.75 200.25 C 285.81 191.90 284.10 182.17 283.25 174.88 C 282.40 167.58 282.10 160.88 281.62 156.50 C 281.15 152.12 280.98 151.62 280.38 148.62 C 279.77 145.62 278.60 143.12 278.00 138.50 C 277.40 133.88 277.94 125.75 276.75 120.88 C 275.56 116.00 272.15 111.50 270.88 109.25 C 269.60 107.00 271.81 108.58 269.12 107.38 C 266.44 106.17 258.21 103.06 254.75 102.00 C 251.29 100.94 250.65 101.17 248.38 101.00 C 246.10 100.83 242.60 100.85 241.12 101.00 Z" id="s-5-f-1"/>
<path d="M 240.75 101.12 C 239.19 101.35 239.42 101.94 239.00 102.38 C 238.58 102.81 238.44 102.96 238.25 103.75 C 238.06 104.54 237.10 105.69 237.88 107.12 C 238.65 108.56 241.42 110.56 242.88 112.38 C 244.33 114.19 245.48 116.08 246.62 118.00 C 247.77 119.92 248.73 121.54 249.75 123.88 C 250.77 126.21 251.75 128.75 252.75 132.00 C 253.75 135.25 254.92 139.58 255.75 143.38 C 256.58 147.17 256.88 147.94 257.75 154.75 C 258.62 161.56 260.15 177.31 261.00 184.25 C 261.85 191.19 262.48 194.27 262.88 196.38 C 263.27 198.48 263.06 196.77 263.38 196.88 C 263.69 196.98 261.04 197.00 264.75 197.00 C 268.46 197.00 282.06 196.98 285.62 196.88 C 289.19 196.77 286.10 197.29 286.12 196.38 C 286.15 195.46 286.23 194.96 285.75 191.38 C 285.27 187.79 283.94 180.69 283.25 174.88 C 282.56 169.06 282.10 160.88 281.62 156.50 C 281.15 152.12 280.98 151.60 280.38 148.62 C 279.77 145.65 278.60 143.25 278.00 138.62 C 277.40 134.00 277.94 125.77 276.75 120.88 C 275.56 115.98 272.15 111.50 270.88 109.25 C 269.60 107.00 271.81 108.58 269.12 107.38 C 266.44 106.17 258.21 103.06 254.75 102.00 C 251.29 100.94 250.71 101.15 248.38 101.00 C 246.04 100.85 242.31 100.90 240.75 101.12 Z" id="s-5-f-2"/>
<path d="M 239.50 101.88 C 238.98 102.44 238.27 103.50 238.00 104.38 C 237.73 105.25 237.06 105.79 237.88 107.12 C 238.69 108.46 241.42 110.56 242.88 112.38 C 244.33 114.19 245.48 116.08 246.62 118.00 C 247.77 119.92 248.56 120.98 249.75 123.88 C 250.94 126.77 252.60 131.29 253.75 135.38 C 254.90 139.46 254.94 146.10 256.62 148.38 C 258.31 150.65 260.02 148.92 263.88 149.00 C 267.73 149.08 277.04 149.06 279.75 148.88 C 282.46 148.69 280.42 149.58 280.12 147.88 C 279.83 146.17 278.54 143.04 278.00 138.62 C 277.46 134.21 278.12 126.38 276.88 121.38 C 275.62 116.38 271.79 110.96 270.50 108.62 C 269.21 106.29 269.79 107.79 269.12 107.38 C 268.46 106.96 268.90 107.02 266.50 106.12 C 264.10 105.23 258.29 102.88 254.75 102.00 C 251.21 101.12 247.52 101.04 245.25 100.88 C 242.98 100.71 242.08 100.83 241.12 101.00 C 240.17 101.17 240.02 101.31 239.50 101.88 Z" id="s-5-f-3"/>
</g>
<g id="s-6" clip-path="url(#c-s-6)">
<use href="#s-6-f-0"/>
<path d="M 269.75 108.12 C 268.81 108.44 269.52 108.75 269.62 109.00 C 269.73 109.25 269.35 107.62 270.38 109.62 C 271.40 111.62 274.69 118.96 275.75 121.00 C 276.81 123.04 275.75 121.75 276.75 121.88 C 277.75 122.00 279.08 121.94 281.75 121.75 C 284.42 121.56 288.56 121.27 292.75 120.75 C 296.94 120.23 297.06 120.75 306.88 118.62 C 316.69 116.50 339.23 110.77 351.62 108.00 C 364.02 105.23 375.04 103.17 381.25 102.00 C 387.46 100.83 387.21 101.17 388.88 101.00 C 390.54 100.83 390.46 100.85 391.25 101.00 C 392.04 101.15 392.71 101.10 393.62 101.88 C 394.54 102.65 396.06 104.19 396.75 105.62 C 397.44 107.06 397.73 106.12 397.75 110.50 C 397.77 114.88 397.52 124.42 396.88 131.88 C 396.23 139.33 394.42 150.02 393.88 155.25 C 393.33 160.48 394.46 155.56 393.62 163.25 C 392.79 170.94 390.35 192.12 388.88 201.38 C 387.40 210.62 385.40 215.46 384.75 218.75 C 384.10 222.04 384.62 219.71 385.00 221.12 C 385.38 222.54 386.21 225.40 387.00 227.25 C 387.79 229.10 389.06 231.17 389.75 232.25 C 390.44 233.33 388.88 233.48 391.12 233.75 C 393.38 234.02 400.75 234.25 403.25 233.88 C 405.75 233.50 405.04 232.88 406.12 231.50 C 407.21 230.12 408.85 227.54 409.75 225.62 C 410.65 223.71 408.94 231.71 411.50 220.00 C 414.06 208.29 422.04 169.62 425.12 155.38 C 428.21 141.12 428.54 139.98 430.00 134.50 C 431.46 129.02 432.88 125.33 433.88 122.50 C 434.88 119.67 435.04 119.42 436.00 117.50 C 436.96 115.58 438.83 112.65 439.62 111.00 C 440.42 109.35 440.58 108.96 440.75 107.62 C 440.92 106.29 440.77 104.04 440.62 103.00 C 440.48 101.96 440.46 102.17 439.88 101.38 C 439.29 100.58 439.25 99.98 437.12 98.25 C 435.00 96.52 430.42 93.02 427.12 91.00 C 423.83 88.98 421.52 87.94 417.38 86.12 C 413.23 84.31 405.79 81.15 402.25 80.12 C 398.71 79.10 398.21 79.83 396.12 80.00 C 394.04 80.17 392.67 80.46 389.75 81.12 C 386.83 81.79 385.31 81.90 378.62 84.00 C 371.94 86.10 358.33 91.12 349.62 93.75 C 340.92 96.38 334.83 97.92 326.38 99.75 C 317.92 101.58 305.88 103.60 298.88 104.75 C 291.88 105.90 288.31 106.23 284.38 106.62 C 280.44 107.02 277.69 106.88 275.25 107.12 C 272.81 107.38 270.69 107.81 269.75 108.12 Z" id="s-6-f-1"/>
<path d="M 440.88 104.12 C 440.73 103.08 440.58 102.44 439.88 101.38 C 439.17 100.31 438.75 99.48 436.62 97.75 C 434.50 96.02 431.83 93.58 427.12 91.00 C 422.42 88.42 412.52 84.06 408.38 82.25 C 404.23 80.44 403.90 80.52 402.25 80.12 C 400.60 79.73 400.58 79.71 398.50 79.88 C 396.42 80.04 393.06 80.44 389.75 81.12 C 386.44 81.81 385.31 81.90 378.62 84.00 C 371.94 86.10 358.33 91.12 349.62 93.75 C 340.92 96.38 334.83 97.92 326.38 99.75 C 317.92 101.58 308.12 103.42 298.88 104.75 C 289.62 106.08 275.73 107.19 270.88 107.75 C 266.02 108.31 269.96 107.92 269.75 108.12 C 269.54 108.33 269.52 108.75 269.62 109.00 C 269.73 109.25 269.35 107.62 270.38 109.62 C 271.40 111.62 274.69 118.96 275.75 121.00 C 276.81 123.04 275.75 121.75 276.75 121.88 C 277.75 122.00 279.08 121.94 281.75 121.75 C 284.42 121.56 288.56 121.27 292.75 120.75 C 296.94 120.23 297.06 120.75 306.88 118.62 C 316.69 116.50 339.23 110.77 351.62 108.00 C 364.02 105.23 375.04 103.17 381.25 102.00 C 387.46 100.83 387.21 101.17 388.88 101.00 C 390.54 100.83 390.46 100.85 391.25 101.00 C 392.04 101.15 392.71 101.10 393.62 101.88 C 394.54 102.65 396.06 104.19 396.75 105.62 C 397.44 107.06 397.58 108.44 397.75 110.50 C 397.92 112.56 397.92 114.19 397.75 118.00 C 397.58 121.81 397.38 127.35 396.75 133.38 C 396.12 139.40 394.50 149.35 394.00 154.12 C 393.50 158.90 394.27 156.77 393.75 162.00 C 393.23 167.23 391.23 181.50 390.88 185.50 C 390.52 189.50 387.02 185.94 391.62 186.00 C 396.23 186.06 413.96 185.98 418.50 185.88 C 423.04 185.77 416.96 193.94 418.88 185.38 C 420.79 176.81 427.29 145.50 430.00 134.50 C 432.71 123.50 433.52 123.29 435.12 119.38 C 436.73 115.46 438.69 112.96 439.62 111.00 C 440.56 109.04 440.54 108.77 440.75 107.62 C 440.96 106.48 441.02 105.17 440.88 104.12 Z" id="s-6-f-2"/>
<path d="M 440.88 104.12 C 440.75 103.00 440.33 102.19 439.88 101.38 C 439.42 100.56 439.19 100.27 438.12 99.25 C 437.06 98.23 435.33 96.62 433.50 95.25 C 431.67 93.88 429.81 92.52 427.12 91.00 C 424.44 89.48 420.60 87.62 417.38 86.12 C 414.15 84.62 410.27 83.00 407.75 82.00 C 405.23 81.00 403.77 80.48 402.25 80.12 C 400.73 79.77 399.94 79.85 398.62 79.88 C 397.31 79.90 397.21 79.71 394.38 80.25 C 391.54 80.79 389.08 80.88 381.62 83.12 C 374.17 85.38 358.83 90.98 349.62 93.75 C 340.42 96.52 334.83 97.92 326.38 99.75 C 317.92 101.58 308.12 103.42 298.88 104.75 C 289.62 106.08 275.73 107.19 270.88 107.75 C 266.02 108.31 269.96 107.92 269.75 108.12 C 269.54 108.33 269.52 108.75 269.62 109.00 C 269.73 109.25 269.35 107.62 270.38 109.62 C 271.40 111.62 274.69 118.96 275.75 121.00 C 276.81 123.04 275.75 121.75 276.75 121.88 C 277.75 122.00 279.08 121.94 281.75 121.75 C 284.42 121.56 288.67 121.25 292.75 120.75 C 296.83 120.25 302.42 119.42 306.25 118.75 C 310.08 118.08 311.85 117.71 315.75 116.75 C 319.65 115.79 320.52 115.12 329.62 113.00 C 338.73 110.88 361.77 105.83 370.38 104.00 C 378.98 102.17 377.77 102.50 381.25 102.00 C 384.73 101.50 389.19 101.02 391.25 101.00 C 393.31 100.98 392.88 101.40 393.62 101.88 C 394.38 102.35 395.23 103.25 395.75 103.88 C 396.27 104.50 396.44 104.71 396.75 105.62 C 397.06 106.54 397.48 106.79 397.62 109.38 C 397.77 111.96 397.88 116.56 397.62 121.12 C 397.38 125.69 396.33 134.00 396.12 136.75 C 395.92 139.50 395.94 137.42 396.38 137.62 C 396.81 137.83 393.33 137.96 398.75 138.00 C 404.17 138.04 423.73 138.02 428.88 137.88 C 434.02 137.73 429.44 137.69 429.62 137.12 C 429.81 136.56 429.44 136.54 430.00 134.50 C 430.56 132.46 432.15 127.40 433.00 124.88 C 433.85 122.35 433.85 122.17 435.12 119.38 C 436.40 116.58 439.67 110.67 440.62 108.12 C 441.58 105.58 441.00 105.25 440.88 104.12 Z" id="s-6-f-3"/>
<path d="M 424.00 89.38 C 420.88 87.77 408.92 82.58 405.00 81.00 C 401.08 79.42 402.15 80.02 400.50 79.88 C 398.85 79.73 398.27 79.58 395.12 80.12 C 391.98 80.67 389.21 80.85 381.62 83.12 C 374.04 85.40 358.83 90.98 349.62 93.75 C 340.42 96.52 334.83 97.92 326.38 99.75 C 317.92 101.58 308.12 103.42 298.88 104.75 C 289.62 106.08 275.73 107.19 270.88 107.75 C 266.02 108.31 269.96 107.92 269.75 108.12 C 269.54 108.33 269.52 108.75 269.62 109.00 C 269.73 109.25 269.35 107.62 270.38 109.62 C 271.40 111.62 274.73 118.98 275.75 121.00 C 276.77 123.02 275.19 121.65 276.50 121.75 C 277.81 121.85 280.92 121.79 283.62 121.62 C 286.33 121.46 288.17 121.40 292.75 120.75 C 297.33 120.10 304.25 119.21 311.12 117.75 C 318.00 116.29 324.10 114.29 334.00 112.00 C 343.90 109.71 361.00 105.88 370.50 104.00 C 380.00 102.12 382.12 102.98 391.00 100.75 C 399.88 98.52 418.25 92.52 423.75 90.62 C 429.25 88.73 427.12 90.98 424.00 89.38 Z" id="s-6-f-4"/>
<path d="M 414.00 85.75 C 413.83 84.35 414.96 85.19 413.00 84.25 C 411.04 83.31 405.23 80.81 402.25 80.12 C 399.27 79.44 399.73 79.29 395.12 80.12 C 390.52 80.96 380.62 83.35 374.62 85.12 C 368.62 86.90 365.71 88.65 359.12 90.75 C 352.54 92.85 341.33 96.08 335.12 97.75 C 328.92 99.42 326.83 99.75 321.88 100.75 C 316.92 101.75 310.46 102.92 305.38 103.75 C 300.29 104.58 297.12 105.08 291.38 105.75 C 285.62 106.42 274.48 107.35 270.88 107.75 C 267.27 108.15 269.96 107.92 269.75 108.12 C 269.54 108.33 269.52 108.75 269.62 109.00 C 269.73 109.25 269.35 107.62 270.38 109.62 C 271.40 111.62 274.69 118.96 275.75 121.00 C 276.81 123.04 275.44 121.77 276.75 121.88 C 278.06 121.98 279.54 122.00 283.62 121.62 C 287.71 121.25 295.90 120.44 301.25 119.62 C 306.60 118.81 311.73 117.69 315.75 116.75 C 319.77 115.81 317.04 115.96 325.38 114.00 C 333.71 112.04 354.27 107.35 365.75 105.00 C 377.23 102.65 386.27 101.75 394.25 99.88 C 402.23 98.00 410.33 94.96 413.62 93.75 C 416.92 92.54 413.94 93.96 414.00 92.62 C 414.06 91.29 414.17 87.15 414.00 85.75 Z" id="s-6-f-5"/>
<path d="M 366.00 90.00 C 365.96 88.17 365.94 89.23 365.75 89.00 C 365.56 88.77 368.15 87.67 364.88 88.62 C 361.60 89.58 353.29 92.73 346.12 94.75 C 338.96 96.77 329.75 99.08 321.88 100.75 C 314.00 102.42 305.12 103.77 298.88 104.75 C 292.62 105.73 289.04 106.12 284.38 106.62 C 279.71 107.12 273.31 107.50 270.88 107.75 C 268.44 108.00 269.96 107.92 269.75 108.12 C 269.54 108.33 269.52 108.75 269.62 109.00 C 269.73 109.25 269.35 107.62 270.38 109.62 C 271.40 111.62 274.69 118.96 275.75 121.00 C 276.81 123.04 273.73 121.94 276.75 121.88 C 279.77 121.81 288.15 121.31 293.88 120.62 C 299.60 119.94 305.17 119.02 311.12 117.75 C 317.08 116.48 320.58 115.10 329.62 113.00 C 338.67 110.90 359.31 107.29 365.38 105.12 C 371.44 102.96 365.90 102.52 366.00 100.00 C 366.10 97.48 366.04 91.83 366.00 90.00 Z" id="s-6-f-6"/>
<path d="M 317.88 102.00 C 317.73 99.62 321.17 101.00 316.75 101.62 C 312.33 102.25 299.12 104.71 291.38 105.75 C 283.62 106.79 273.88 107.46 270.25 107.88 C 266.62 108.29 269.73 108.06 269.62 108.25 C 269.52 108.44 269.50 108.77 269.62 109.00 C 269.75 109.23 269.35 107.62 270.38 109.62 C 271.40 111.62 274.69 118.96 275.75 121.00 C 276.81 123.04 275.25 121.79 276.75 121.88 C 278.25 121.96 280.52 121.90 284.75 121.50 C 288.98 121.10 297.00 120.29 302.12 119.50 C 307.25 118.71 312.92 117.35 315.50 116.75 C 318.08 116.15 317.23 118.33 317.62 115.88 C 318.02 113.42 318.02 104.38 317.88 102.00 Z" id="s-6-f-7"/>
</g>
<g id="s-7" clip-path="url(#c-s-7)">
<use href="#s-7-f-0"/>
<path d="M 377.88 144.88 C 377.75 141.98 378.73 144.40 377.25 144.25 C 375.77 144.10 372.12 143.71 369.00 144.00 C 365.88 144.29 362.60 145.04 358.50 146.00 C 354.40 146.96 349.77 148.46 344.38 149.75 C 338.98 151.04 333.96 152.25 326.12 153.75 C 318.29 155.25 304.44 157.67 297.38 158.75 C 290.31 159.83 286.40 159.83 283.75 160.25 C 281.10 160.67 281.85 160.19 281.50 161.25 C 281.15 162.31 281.44 164.85 281.62 166.62 C 281.81 168.40 281.73 170.69 282.62 171.88 C 283.52 173.06 285.27 173.27 287.00 173.75 C 288.73 174.23 289.88 174.58 293.00 174.75 C 296.12 174.92 295.81 175.94 305.75 174.75 C 315.69 173.56 342.85 169.25 352.62 167.62 C 362.40 166.00 360.27 165.71 364.38 165.00 C 368.48 164.29 374.98 163.94 377.25 163.38 C 379.52 162.81 377.90 164.71 378.00 161.62 C 378.10 158.54 378.00 147.77 377.88 144.88 Z" id="s-7-f-1"/>
<path d="M 330.00 153.38 C 329.62 150.62 331.10 152.56 327.75 153.12 C 324.40 153.69 316.06 155.65 309.88 156.75 C 303.69 157.85 294.90 159.19 290.62 159.75 C 286.35 160.31 285.77 159.88 284.25 160.12 C 282.73 160.38 281.94 160.17 281.50 161.25 C 281.06 162.33 281.44 164.85 281.62 166.62 C 281.81 168.40 281.73 170.69 282.62 171.88 C 283.52 173.06 285.71 173.33 287.00 173.75 C 288.29 174.17 287.79 174.19 290.38 174.38 C 292.96 174.56 299.48 174.85 302.50 174.88 C 305.52 174.90 304.02 175.10 308.50 174.50 C 312.98 173.90 325.79 172.06 329.38 171.25 C 332.96 170.44 329.90 172.60 330.00 169.62 C 330.10 166.65 330.38 156.12 330.00 153.38 Z" id="s-7-f-2"/>
</g>
<g id="s-8" clip-path="url(#c-s-8)">
<use href="#s-8-f-0"/>
<path d="M 383.88 200.50 C 383.79 197.71 384.23 200.25 383.50 200.00 C 382.77 199.75 381.35 199.17 379.50 199.00 C 377.65 198.83 376.62 198.31 372.38 199.00 C 368.12 199.69 359.98 201.67 354.00 203.12 C 348.02 204.58 341.83 206.48 336.50 207.75 C 331.17 209.02 330.10 209.40 322.00 210.75 C 313.90 212.10 293.62 214.96 287.88 215.88 C 282.12 216.79 287.54 214.98 287.50 216.25 C 287.46 217.52 287.44 221.06 287.62 223.50 C 287.81 225.94 288.04 229.50 288.62 230.88 C 289.21 232.25 289.60 231.58 291.12 231.75 C 292.65 231.92 294.67 232.04 297.75 231.88 C 300.83 231.71 297.21 232.69 309.62 230.75 C 322.04 228.81 359.94 222.21 372.25 220.25 C 384.56 218.29 381.54 219.58 383.50 219.00 C 385.46 218.42 383.94 219.83 384.00 216.75 C 384.06 213.67 383.96 203.29 383.88 200.50 Z" id="s-8-f-1"/>
<path d="M 336.00 208.50 C 335.73 205.48 338.52 207.29 334.25 208.00 C 329.98 208.71 318.10 211.44 310.38 212.75 C 302.65 214.06 291.69 215.29 287.88 215.88 C 284.06 216.46 287.54 214.98 287.50 216.25 C 287.46 217.52 287.44 221.10 287.62 223.50 C 287.81 225.90 288.04 229.25 288.62 230.62 C 289.21 232.00 288.85 231.58 291.12 231.75 C 293.40 231.92 294.92 232.46 302.25 231.62 C 309.58 230.79 329.52 227.67 335.12 226.75 C 340.73 225.83 335.73 229.17 335.88 226.12 C 336.02 223.08 336.27 211.52 336.00 208.50 Z" id="s-8-f-2"/>
</g>
<g id="s-9" clip-path="url(#c-s-9)">
<use href="#s-9-f-0"/>
<path d="M 229.50 273.00 C 227.79 273.19 228.02 273.69 227.50 274.12 C 226.98 274.56 226.65 275.08 226.38 275.62 C 226.10 276.17 225.94 276.73 225.88 277.38 C 225.81 278.02 225.52 278.58 226.00 279.50 C 226.48 280.42 227.62 281.21 228.75 282.88 C 229.88 284.54 231.42 286.96 232.75 289.50 C 234.08 292.04 235.58 295.15 236.75 298.12 C 237.92 301.10 238.60 302.90 239.75 307.38 C 240.90 311.85 242.60 319.27 243.62 325.00 C 244.65 330.73 244.46 328.40 245.88 341.75 C 247.29 355.10 250.77 392.77 252.12 405.12 C 253.48 417.48 253.60 413.96 254.00 415.88 C 254.40 417.79 254.12 416.44 254.50 416.62 C 254.88 416.81 253.06 416.96 256.25 417.00 C 259.44 417.04 270.67 417.10 273.62 416.88 C 276.58 416.65 273.96 419.40 274.00 415.62 C 274.04 411.85 274.12 401.96 273.88 394.25 C 273.62 386.54 272.98 375.62 272.50 369.38 C 272.02 363.12 271.25 359.42 271.00 356.75 C 270.75 354.08 271.35 355.92 271.00 353.38 C 270.65 350.83 269.42 345.94 268.88 341.50 C 268.33 337.06 268.38 332.88 267.75 326.75 C 267.12 320.62 265.58 309.75 265.12 304.75 C 264.67 299.75 265.54 300.12 265.00 296.75 C 264.46 293.38 262.58 287.02 261.88 284.50 C 261.17 281.98 261.31 282.40 260.75 281.62 C 260.19 280.85 259.46 280.48 258.50 279.88 C 257.54 279.27 256.90 278.81 255.00 278.00 C 253.10 277.19 250.00 275.83 247.12 275.00 C 244.25 274.17 240.69 273.33 237.75 273.00 C 234.81 272.67 231.21 272.81 229.50 273.00 Z" id="s-9-f-1"/>
<path d="M 228.88 273.25 C 228.31 273.46 227.94 273.69 227.50 274.12 C 227.06 274.56 226.50 274.98 226.25 275.88 C 226.00 276.77 225.42 278.08 226.00 279.50 C 226.58 280.92 228.62 282.71 229.75 284.38 C 230.88 286.04 231.58 287.21 232.75 289.50 C 233.92 291.79 235.73 295.69 236.75 298.12 C 237.77 300.56 237.88 300.48 238.88 304.12 C 239.88 307.77 241.58 313.73 242.75 320.00 C 243.92 326.27 244.94 333.69 245.88 341.75 C 246.81 349.81 247.88 363.85 248.38 368.38 C 248.88 372.90 248.52 368.77 248.88 368.88 C 249.23 368.98 246.67 369.00 250.50 369.00 C 254.33 369.00 268.25 369.12 271.88 368.88 C 275.50 368.62 272.40 370.10 272.25 367.50 C 272.10 364.90 271.56 357.58 271.00 353.25 C 270.44 348.92 269.42 345.85 268.88 341.50 C 268.33 337.15 268.35 333.06 267.75 327.12 C 267.15 321.19 265.71 310.94 265.25 305.88 C 264.79 300.81 265.67 300.62 265.00 296.75 C 264.33 292.88 262.10 285.27 261.25 282.62 C 260.40 279.98 260.92 281.65 259.88 280.88 C 258.83 280.10 257.69 279.15 255.00 278.00 C 252.31 276.85 246.65 274.83 243.75 274.00 C 240.85 273.17 239.77 273.19 237.62 273.00 C 235.48 272.81 232.33 272.83 230.88 272.88 C 229.42 272.92 229.44 273.04 228.88 273.25 Z" id="s-9-f-2"/>
<path d="M 227.50 274.12 C 226.92 274.71 226.25 275.60 226.00 276.50 C 225.75 277.40 225.38 278.19 226.00 279.50 C 226.62 280.81 228.62 282.71 229.75 284.38 C 230.88 286.04 231.58 287.21 232.75 289.50 C 233.92 291.79 235.73 295.69 236.75 298.12 C 237.77 300.56 237.85 300.38 238.88 304.12 C 239.90 307.88 241.92 317.81 242.88 320.62 C 243.83 323.44 240.67 320.96 244.62 321.00 C 248.58 321.04 262.92 321.15 266.62 320.88 C 270.33 320.60 267.15 322.42 266.88 319.38 C 266.60 316.33 265.31 306.40 265.00 302.62 C 264.69 298.85 265.52 299.77 265.00 296.75 C 264.48 293.73 262.58 287.00 261.88 284.50 C 261.17 282.00 261.31 282.52 260.75 281.75 C 260.19 280.98 259.46 280.50 258.50 279.88 C 257.54 279.25 257.46 278.98 255.00 278.00 C 252.54 277.02 246.65 274.83 243.75 274.00 C 240.85 273.17 239.77 273.19 237.62 273.00 C 235.48 272.81 232.23 272.88 230.88 272.88 C 229.52 272.88 230.06 272.79 229.50 273.00 C 228.94 273.21 228.08 273.54 227.50 274.12 Z" id="s-9-f-3"/>
</g>
<g id="s-10" clip-path="url(#c-s-10)">
<use href="#s-10-f-0"/>
<path d="M 433.62 409.38 C 436.75 396.44 448.06 347.94 451.62 332.25 C 455.19 316.56 454.10 319.33 455.00 315.25 C 455.90 311.17 456.15 310.46 457.00 307.75 C 457.85 305.04 458.83 301.85 460.12 299.00 C 461.42 296.15 463.81 292.52 464.75 290.62 C 465.69 288.73 465.58 288.94 465.75 287.62 C 465.92 286.31 466.08 284.27 465.75 282.75 C 465.42 281.23 465.31 280.46 463.75 278.50 C 462.19 276.54 458.98 273.21 456.38 271.00 C 453.77 268.79 452.38 267.73 448.12 265.25 C 443.88 262.77 435.02 258.15 430.88 256.12 C 426.73 254.10 425.48 253.65 423.25 253.12 C 421.02 252.60 421.67 252.33 417.50 253.00 C 413.33 253.67 407.75 254.67 398.25 257.12 C 388.75 259.58 371.56 264.98 360.50 267.75 C 349.44 270.52 342.38 271.92 331.88 273.75 C 321.38 275.58 309.27 277.40 297.50 278.75 C 285.73 280.10 267.40 281.27 261.25 281.88 C 255.10 282.48 260.73 282.02 260.62 282.38 C 260.52 282.73 260.50 283.50 260.62 284.00 C 260.75 284.50 260.88 283.38 261.38 285.38 C 261.88 287.38 263.06 293.92 263.62 296.00 C 264.19 298.08 262.02 297.58 264.75 297.88 C 267.48 298.17 274.33 297.96 280.00 297.75 C 285.67 297.54 292.56 297.15 298.75 296.62 C 304.94 296.10 306.17 296.23 317.12 294.62 C 328.08 293.02 350.81 289.10 364.50 287.00 C 378.19 284.90 391.29 283.00 399.25 282.00 C 407.21 281.00 409.50 280.92 412.25 281.00 C 415.00 281.08 414.83 281.79 415.75 282.50 C 416.67 283.21 417.25 284.02 417.75 285.25 C 418.25 286.48 418.62 286.50 418.75 289.88 C 418.88 293.25 418.98 297.92 418.50 305.50 C 418.02 313.08 416.33 329.33 415.88 335.38 C 415.42 341.42 416.04 339.40 415.75 341.75 C 415.46 344.10 414.79 344.90 414.12 349.50 C 413.46 354.10 412.79 362.04 411.75 369.38 C 410.71 376.71 409.21 387.27 407.88 393.50 C 406.54 399.73 404.42 404.08 403.75 406.75 C 403.08 409.42 403.77 408.96 403.88 409.50 C 403.98 410.04 399.54 409.94 404.38 410.00 C 409.21 410.06 428.00 409.98 432.88 409.88 C 437.75 409.77 430.50 422.31 433.62 409.38 Z" id="s-10-f-1"/>
<path d="M 465.88 286.00 C 466.04 284.69 466.10 284.00 465.75 282.75 C 465.40 281.50 465.31 280.46 463.75 278.50 C 462.19 276.54 458.77 273.08 456.38 271.00 C 453.98 268.92 452.02 267.67 449.38 266.00 C 446.73 264.33 443.58 262.65 440.50 261.00 C 437.42 259.35 433.90 257.46 430.88 256.12 C 427.85 254.79 424.81 253.50 422.38 253.00 C 419.94 252.50 418.92 252.77 416.25 253.12 C 413.58 253.48 415.58 252.71 406.38 255.12 C 397.17 257.54 373.42 264.52 361.00 267.62 C 348.58 270.73 342.46 271.90 331.88 273.75 C 321.29 275.60 309.12 277.42 297.50 278.75 C 285.88 280.08 268.29 281.10 262.12 281.75 C 255.96 282.40 260.58 281.58 260.50 282.62 C 260.42 283.67 261.31 286.88 261.62 288.00 C 261.94 289.12 262.21 288.71 262.38 289.38 C 262.54 290.04 262.46 291.33 262.62 292.00 C 262.79 292.67 263.21 292.71 263.38 293.38 C 263.54 294.04 263.40 295.25 263.62 296.00 C 263.85 296.75 263.27 297.56 264.75 297.88 C 266.23 298.19 266.83 298.08 272.50 297.88 C 278.17 297.67 291.31 297.17 298.75 296.62 C 306.19 296.08 306.17 296.23 317.12 294.62 C 328.08 293.02 350.81 289.10 364.50 287.00 C 378.19 284.90 392.40 282.88 399.25 282.00 C 406.10 281.12 403.85 281.92 405.62 281.75 C 407.40 281.58 408.77 281.12 409.88 281.00 C 410.98 280.88 411.40 280.83 412.25 281.00 C 413.10 281.17 414.10 281.33 415.00 282.00 C 415.90 282.67 417.04 284.04 417.62 285.00 C 418.21 285.96 418.31 285.10 418.50 287.75 C 418.69 290.40 418.88 295.92 418.75 300.88 C 418.62 305.83 418.23 311.75 417.75 317.50 C 417.27 323.25 416.21 331.33 415.88 335.38 C 415.54 339.42 416.04 339.40 415.75 341.75 C 415.46 344.10 414.60 346.48 414.12 349.50 C 413.65 352.52 413.06 357.90 412.88 359.88 C 412.69 361.85 412.69 361.06 413.00 361.38 C 413.31 361.69 409.90 361.65 414.75 361.75 C 419.60 361.85 437.12 362.04 442.12 362.00 C 447.12 361.96 442.27 370.54 444.75 361.50 C 447.23 352.46 454.44 318.17 457.00 307.75 C 459.56 297.33 458.83 301.85 460.12 299.00 C 461.42 296.15 463.79 292.79 464.75 290.62 C 465.71 288.46 465.71 287.31 465.88 286.00 Z" id="s-10-f-2"/>
<path d="M 465.88 286.00 C 466.04 284.69 466.10 284.00 465.75 282.75 C 465.40 281.50 465.31 280.46 463.75 278.50 C 462.19 276.54 458.77 273.08 456.38 271.00 C 453.98 268.92 453.73 268.52 449.38 266.00 C 445.02 263.48 434.75 258.04 430.25 255.88 C 425.75 253.71 424.71 253.46 422.38 253.00 C 420.04 252.54 418.92 252.77 416.25 253.12 C 413.58 253.48 415.58 252.71 406.38 255.12 C 397.17 257.54 373.42 264.52 361.00 267.62 C 348.58 270.73 342.62 271.88 331.88 273.75 C 321.12 275.62 308.27 277.52 296.50 278.88 C 284.73 280.23 267.25 281.25 261.25 281.88 C 255.25 282.50 260.44 281.60 260.50 282.62 C 260.56 283.65 261.31 286.88 261.62 288.00 C 261.94 289.12 262.21 288.71 262.38 289.38 C 262.54 290.04 262.46 291.33 262.62 292.00 C 262.79 292.67 263.21 292.71 263.38 293.38 C 263.54 294.04 263.40 295.25 263.62 296.00 C 263.85 296.75 263.42 297.56 264.75 297.88 C 266.08 298.19 265.98 298.08 271.62 297.88 C 277.27 297.67 291.04 297.17 298.62 296.62 C 306.21 296.08 302.98 296.71 317.12 294.62 C 331.27 292.54 369.81 286.23 383.50 284.12 C 397.19 282.02 394.46 282.52 399.25 282.00 C 404.04 281.48 409.62 281.00 412.25 281.00 C 414.88 281.00 414.29 281.60 415.00 282.00 C 415.71 282.40 416.04 282.83 416.50 283.38 C 416.96 283.92 417.44 284.58 417.75 285.25 C 418.06 285.92 418.21 284.77 418.38 287.38 C 418.54 289.98 418.81 296.79 418.75 300.88 C 418.69 304.96 418.06 309.73 418.00 311.88 C 417.94 314.02 417.96 313.40 418.38 313.75 C 418.79 314.10 414.33 314.00 420.50 314.00 C 426.67 314.00 448.94 315.81 455.38 313.75 C 461.81 311.69 458.21 304.33 459.12 301.62 C 460.04 298.92 459.94 299.33 460.88 297.50 C 461.81 295.67 463.92 292.54 464.75 290.62 C 465.58 288.71 465.71 287.31 465.88 286.00 Z" id="s-10-f-3"/>
<path d="M 448.25 265.38 C 447.02 264.42 444.21 262.88 440.50 261.00 C 436.79 259.12 429.02 255.46 426.00 254.12 C 422.98 252.79 423.79 253.19 422.38 253.00 C 420.96 252.81 420.17 252.65 417.50 253.00 C 414.83 253.35 410.75 254.12 406.38 255.12 C 402.00 256.12 396.96 257.40 391.25 259.00 C 385.54 260.60 380.27 262.62 372.12 264.75 C 363.98 266.88 350.96 269.94 342.38 271.75 C 333.79 273.56 328.10 274.46 320.62 275.62 C 313.15 276.79 307.25 277.73 297.50 278.75 C 287.75 279.77 268.23 281.19 262.12 281.75 C 256.02 282.31 261.15 281.85 260.88 282.12 C 260.60 282.40 260.25 282.17 260.50 283.38 C 260.75 284.58 262.02 287.94 262.38 289.38 C 262.73 290.81 262.46 291.33 262.62 292.00 C 262.79 292.67 263.21 292.71 263.38 293.38 C 263.54 294.04 263.40 295.25 263.62 296.00 C 263.85 296.75 261.56 297.58 264.75 297.88 C 267.94 298.17 276.90 297.98 282.75 297.75 C 288.60 297.52 294.12 297.02 299.88 296.50 C 305.62 295.98 303.12 296.71 317.25 294.62 C 331.38 292.54 368.88 286.31 384.62 284.00 C 400.38 281.69 401.58 283.54 411.75 280.75 C 421.92 277.96 439.60 269.58 445.62 267.25 C 451.65 264.92 447.44 267.06 447.88 266.75 C 448.31 266.44 449.48 266.33 448.25 265.38 Z" id="s-10-f-4"/>
<path d="M 404.75 257.38 C 404.65 253.50 404.71 256.23 404.38 256.00 C 404.04 255.77 409.98 254.06 402.75 256.00 C 395.52 257.94 372.81 264.67 361.00 267.62 C 349.19 270.58 342.62 271.88 331.88 273.75 C 321.12 275.62 308.12 277.54 296.50 278.88 C 284.88 280.21 268.06 281.21 262.12 281.75 C 256.19 282.29 261.15 281.85 260.88 282.12 C 260.60 282.40 260.25 282.17 260.50 283.38 C 260.75 284.58 262.02 287.94 262.38 289.38 C 262.73 290.81 262.46 291.33 262.62 292.00 C 262.79 292.67 263.21 292.71 263.38 293.38 C 263.54 294.04 263.40 295.25 263.62 296.00 C 263.85 296.75 263.21 297.56 264.75 297.88 C 266.29 298.19 267.25 298.08 272.88 297.88 C 278.50 297.67 291.31 297.15 298.50 296.62 C 305.69 296.10 302.77 296.69 316.00 294.75 C 329.23 292.81 363.33 287.17 377.88 285.00 C 392.42 282.83 398.77 282.38 403.25 281.75 C 407.73 281.12 404.46 281.67 404.75 281.25 C 405.04 280.83 405.00 283.23 405.00 279.25 C 405.00 275.27 404.85 261.25 404.75 257.38 Z" id="s-10-f-5"/>
<path d="M 356.88 269.12 C 356.77 266.17 356.85 268.77 356.38 268.75 C 355.90 268.73 358.08 268.17 354.00 269.00 C 349.92 269.83 338.69 272.46 331.88 273.75 C 325.06 275.04 320.67 275.73 313.12 276.75 C 305.58 277.77 295.35 278.98 286.62 279.88 C 277.90 280.77 265.10 281.54 260.75 282.12 C 256.40 282.71 260.23 282.17 260.50 283.38 C 260.77 284.58 262.02 287.94 262.38 289.38 C 262.73 290.81 262.46 291.33 262.62 292.00 C 262.79 292.67 263.21 292.71 263.38 293.38 C 263.54 294.04 263.40 295.25 263.62 296.00 C 263.85 296.75 261.96 297.58 264.75 297.88 C 267.54 298.17 274.77 297.96 280.38 297.75 C 285.98 297.54 292.44 297.12 298.38 296.62 C 304.31 296.12 306.33 296.10 316.00 294.75 C 325.67 293.40 349.54 289.88 356.38 288.50 C 363.21 287.12 356.92 289.73 357.00 286.50 C 357.08 283.27 356.98 272.08 356.88 269.12 Z" id="s-10-f-6"/>
<path d="M 308.88 277.75 C 308.67 275.02 311.46 276.90 307.75 277.25 C 304.04 277.60 294.38 279.10 286.62 279.88 C 278.88 280.65 265.60 281.44 261.25 281.88 C 256.90 282.31 260.62 282.25 260.50 282.50 C 260.38 282.75 260.19 282.23 260.50 283.38 C 260.81 284.52 262.02 287.94 262.38 289.38 C 262.73 290.81 262.46 291.33 262.62 292.00 C 262.79 292.67 263.21 292.71 263.38 293.38 C 263.54 294.04 263.40 295.25 263.62 296.00 C 263.85 296.75 261.46 297.60 264.75 297.88 C 268.04 298.15 276.12 298.00 283.38 297.62 C 290.62 297.25 304.00 296.08 308.25 295.62 C 312.50 295.17 308.75 295.21 308.88 294.88 C 309.00 294.54 309.00 296.48 309.00 293.62 C 309.00 290.77 309.08 280.48 308.88 277.75 Z" id="s-10-f-7"/>
</g>
<g id="s-11" clip-path="url(#c-s-11)">
<use href="#s-11-f-0"/>
<path d="M 412.88 326.00 C 412.75 323.65 414.29 325.71 412.25 325.38 C 410.21 325.04 403.75 324.23 400.62 324.00 C 397.50 323.77 396.25 323.81 393.50 324.00 C 390.75 324.19 390.65 324.02 384.12 325.12 C 377.60 326.23 363.83 329.02 354.38 330.62 C 344.92 332.23 335.56 333.58 327.38 334.75 C 319.19 335.92 314.60 336.56 305.25 337.62 C 295.90 338.69 277.35 340.38 271.25 341.12 C 265.15 341.88 269.06 341.44 268.62 342.12 C 268.19 342.81 268.31 343.15 268.62 345.25 C 268.94 347.35 269.85 353.02 270.50 354.75 C 271.15 356.48 271.17 355.29 272.50 355.62 C 273.83 355.96 274.67 356.58 278.50 356.75 C 282.33 356.92 287.77 357.12 295.50 356.62 C 303.23 356.12 312.98 355.23 324.88 353.75 C 336.77 352.27 357.62 349.21 366.88 347.75 C 376.12 346.29 375.71 345.71 380.38 345.00 C 385.04 344.29 389.54 344.19 394.88 343.50 C 400.21 342.81 409.35 341.54 412.38 340.88 C 415.40 340.21 412.92 341.98 413.00 339.50 C 413.08 337.02 413.00 328.35 412.88 326.00 Z" id="s-11-f-1"/>
<path d="M 364.75 329.12 C 364.62 325.98 366.96 328.33 364.12 328.75 C 361.29 329.17 354.98 330.48 347.75 331.62 C 340.52 332.77 333.50 334.04 320.75 335.62 C 308.00 337.21 279.96 340.00 271.25 341.12 C 262.54 342.25 268.75 340.52 268.50 342.38 C 268.25 344.23 269.40 350.17 269.75 352.25 C 270.10 354.33 269.56 354.19 270.62 354.88 C 271.69 355.56 274.40 356.04 276.12 356.38 C 277.85 356.71 278.12 356.81 281.00 356.88 C 283.88 356.94 286.10 357.27 293.38 356.75 C 300.65 356.23 313.17 355.12 324.62 353.75 C 336.08 352.38 355.42 349.52 362.12 348.50 C 368.83 347.48 364.44 350.85 364.88 347.62 C 365.31 344.40 364.88 332.27 364.75 329.12 Z" id="s-11-f-2"/>
<path d="M 316.00 336.12 C 312.75 335.62 304.73 337.69 297.38 338.50 C 290.02 339.31 276.62 340.44 271.88 341.00 C 267.12 341.56 269.44 341.65 268.88 341.88 C 268.31 342.10 268.54 341.81 268.50 342.38 C 268.46 342.94 268.31 343.23 268.62 345.25 C 268.94 347.27 269.65 352.75 270.38 354.50 C 271.10 356.25 271.21 355.35 273.00 355.75 C 274.79 356.15 277.33 356.73 281.12 356.88 C 284.92 357.02 289.88 357.00 295.75 356.62 C 301.62 356.25 312.83 355.29 316.38 354.62 C 319.92 353.96 316.92 354.81 317.00 352.62 C 317.08 350.44 317.04 344.25 316.88 341.50 C 316.71 338.75 319.25 336.62 316.00 336.12 Z" id="s-11-f-3"/>
</g>
<g id="s-12" clip-path="url(#c-s-12)">
<use href="#s-12-f-0"/>
<path d="M 369.75 388.25 C 369.54 384.56 370.83 387.58 368.62 388.00 C 366.42 388.42 361.42 389.79 356.50 390.75 C 351.58 391.71 345.58 392.75 339.12 393.75 C 332.67 394.75 328.62 395.56 317.75 396.75 C 306.88 397.94 281.25 400.10 273.88 400.88 C 266.50 401.65 273.56 398.44 273.50 401.38 C 273.44 404.31 273.38 415.58 273.50 418.50 C 273.62 421.42 271.08 418.85 274.25 418.88 C 277.42 418.90 276.69 419.98 292.50 418.62 C 308.31 417.27 356.23 412.17 369.12 410.75 C 382.02 409.33 369.77 413.88 369.88 410.12 C 369.98 406.38 369.96 391.94 369.75 388.25 Z" id="s-12-f-1"/>
<path d="M 321.88 396.62 C 321.62 393.71 324.25 395.77 320.50 396.12 C 316.75 396.48 307.15 397.96 299.38 398.75 C 291.60 399.54 278.19 400.44 273.88 400.88 C 269.56 401.31 273.56 398.44 273.50 401.38 C 273.44 404.31 273.35 415.58 273.50 418.50 C 273.65 421.42 271.23 418.85 274.38 418.88 C 277.52 418.90 284.52 419.17 292.38 418.62 C 300.23 418.08 316.56 416.46 321.50 415.62 C 326.44 414.79 321.94 416.79 322.00 413.62 C 322.06 410.46 322.12 399.54 321.88 396.62 Z" id="s-12-f-2"/>
</g>
</svg>