<?xml version="1.0" encoding="UTF-8"?>
<svg xmlns="http://www.w3.org/2000/svg" viewBox="0 0 500 500">
<defs>
<path d="M 318.25 120.62 C 318.21 119.58 318.10 119.56 317.38 118.62 C 316.65 117.69 314.94 115.92 313.88 115.00 C 312.81 114.08 312.27 113.79 311.00 113.12 C 309.73 112.46 308.52 111.79 306.25 111.00 C 303.98 110.21 300.21 108.85 297.38 108.38 C 294.54 107.90 292.92 107.85 289.25 108.12 C 285.58 108.40 280.65 108.88 275.38 110.00 C 270.10 111.12 260.96 114.04 257.62 114.88 C 254.29 115.71 255.96 114.88 255.38 115.00 C 254.79 115.12 258.71 114.56 254.12 115.62 C 249.54 116.69 244.60 118.81 227.88 121.38 C 211.15 123.94 166.52 129.23 153.75 131.00 C 140.98 132.77 151.94 131.62 151.25 132.00 C 150.56 132.38 150.00 132.85 149.62 133.25 C 149.25 133.65 149.10 133.88 149.00 134.38 C 148.90 134.88 148.77 135.58 149.00 136.25 C 149.23 136.92 149.52 137.50 150.38 138.38 C 151.23 139.25 152.44 140.42 154.12 141.50 C 155.81 142.58 158.50 144.00 160.50 144.88 C 162.50 145.75 163.21 146.10 166.12 146.75 C 169.04 147.40 172.62 148.42 178.00 148.75 C 183.38 149.08 191.81 149.23 198.38 148.75 C 204.94 148.27 211.73 146.56 217.38 145.88 C 223.02 145.19 226.23 145.48 232.25 144.62 C 238.27 143.77 248.96 141.67 253.50 140.75 C 258.04 139.83 249.79 141.15 259.50 139.12 C 269.21 137.10 302.54 130.52 311.75 128.62 C 320.96 126.73 313.77 128.38 314.75 127.75 C 315.73 127.12 317.04 126.06 317.62 124.88 C 318.21 123.69 318.29 121.67 318.25 120.62 Z" id="s-0-f-0"/>
<clipPath id="c-s-0"><use href="#s-0-f-0"/></clipPath>
<path d="M 221.00 19.00 C 219.35 19.15 219.15 19.44 218.25 20.00 C 217.35 20.56 216.38 21.58 215.62 22.38 C 214.88 23.17 214.08 23.90 213.75 24.75 C 213.42 25.60 213.58 26.56 213.62 27.50 C 213.67 28.44 213.77 29.46 214.00 30.38 C 214.23 31.29 214.02 31.33 215.00 33.00 C 215.98 34.67 218.42 37.92 219.88 40.38 C 221.33 42.83 222.77 45.54 223.75 47.75 C 224.73 49.96 225.29 51.56 225.75 53.62 C 226.21 55.69 226.10 48.85 226.50 60.12 C 226.90 71.40 227.96 110.85 228.12 121.25 C 228.29 131.65 227.58 120.52 227.50 122.50 C 227.42 124.48 227.48 131.40 227.62 133.12 C 227.77 134.85 228.19 132.81 228.38 132.88 C 228.56 132.94 228.73 131.56 228.75 133.50 C 228.77 135.44 228.48 142.50 228.50 144.50 C 228.52 146.50 229.10 135.54 228.88 145.50 C 228.65 155.46 227.27 193.94 227.12 204.25 C 226.98 214.56 227.56 206.46 228.00 207.38 C 228.44 208.29 229.17 209.12 229.75 209.75 C 230.33 210.38 230.90 210.77 231.50 211.12 C 232.10 211.48 232.38 211.73 233.38 211.88 C 234.38 212.02 236.08 212.17 237.50 212.00 C 238.92 211.83 240.48 211.58 241.88 210.88 C 243.27 210.17 244.71 209.04 245.88 207.75 C 247.04 206.46 248.25 204.50 248.88 203.12 C 249.50 201.75 249.12 205.48 249.62 199.50 C 250.12 193.52 251.15 175.98 251.88 167.25 C 252.60 158.52 253.44 151.75 254.00 147.12 C 254.56 142.50 255.04 141.31 255.25 139.50 C 255.46 137.69 255.15 136.92 255.25 136.25 C 255.35 135.58 255.71 137.67 255.88 135.50 C 256.04 133.33 256.08 125.42 256.25 123.25 C 256.42 121.08 256.73 122.90 256.88 122.50 C 257.02 122.10 257.12 122.46 257.12 120.88 C 257.12 119.29 256.58 117.73 256.88 113.00 C 257.17 108.27 258.02 99.23 258.88 92.50 C 259.73 85.77 261.15 77.65 262.00 72.62 C 262.85 67.60 263.06 66.46 264.00 62.38 C 264.94 58.29 266.94 51.23 267.62 48.12 C 268.31 45.02 268.12 44.96 268.12 43.75 C 268.12 42.54 267.92 41.71 267.62 40.88 C 267.33 40.04 267.40 39.92 266.38 38.75 C 265.35 37.58 263.23 35.31 261.50 33.88 C 259.77 32.44 258.98 31.75 256.00 30.12 C 253.02 28.50 247.06 25.65 243.62 24.12 C 240.19 22.60 237.96 21.83 235.38 21.00 C 232.79 20.17 230.52 19.46 228.12 19.12 C 225.73 18.79 222.65 18.85 221.00 19.00 Z" id="s-1-f-0"/>
<clipPath id="c-s-1"><use href="#s-1-f-0"/></clipPath>
<path d="M 461.62 194.75 C 461.29 193.33 460.42 192.38 459.75 191.38 C 459.08 190.38 458.60 189.75 457.62 188.75 C 456.65 187.75 456.23 187.00 453.88 185.38 C 451.52 183.75 446.62 180.71 443.50 179.00 C 440.38 177.29 437.98 176.29 435.12 175.12 C 432.27 173.96 429.31 172.83 426.38 172.00 C 423.44 171.17 420.21 170.50 417.50 170.12 C 414.79 169.75 413.31 169.75 410.12 169.75 C 406.94 169.75 402.17 169.62 398.38 170.12 C 394.58 170.62 396.35 170.92 387.38 172.75 C 378.40 174.58 355.10 178.96 344.50 181.12 C 333.90 183.29 333.71 183.79 323.75 185.75 C 313.79 187.71 291.52 191.56 284.75 192.88 C 277.98 194.19 285.52 193.25 283.12 193.62 C 280.73 194.00 275.46 194.38 270.38 195.12 C 265.29 195.88 255.83 197.52 252.62 198.12 C 249.42 198.73 252.12 198.67 251.12 198.75 C 250.12 198.83 247.60 198.50 246.62 198.62 C 245.65 198.75 246.23 199.33 245.25 199.50 C 244.27 199.67 241.71 199.46 240.75 199.62 C 239.79 199.79 240.52 200.33 239.50 200.50 C 238.48 200.67 235.69 200.46 234.62 200.62 C 233.56 200.79 234.10 201.35 233.12 201.50 C 232.15 201.65 229.85 201.29 228.75 201.50 C 227.65 201.71 256.69 198.15 226.50 202.75 C 196.31 207.35 78.04 224.58 47.62 229.12 C 17.21 233.67 44.85 229.71 44.00 230.00 C 43.15 230.29 43.00 230.46 42.50 230.88 C 42.00 231.29 41.27 231.88 41.00 232.50 C 40.73 233.12 40.71 233.83 40.88 234.62 C 41.04 235.42 41.15 236.06 42.00 237.25 C 42.85 238.44 44.23 240.19 46.00 241.75 C 47.77 243.31 50.50 245.29 52.62 246.62 C 54.75 247.96 56.48 248.88 58.75 249.75 C 61.02 250.62 64.04 251.44 66.25 251.88 C 68.46 252.31 69.77 252.33 72.00 252.38 C 74.23 252.42 77.21 252.40 79.62 252.12 C 82.04 251.85 81.48 252.10 86.50 250.75 C 91.52 249.40 99.04 246.79 109.75 244.00 C 120.46 241.21 138.81 236.69 150.75 234.00 C 162.69 231.31 171.48 229.71 181.38 227.88 C 191.27 226.04 198.77 224.65 210.12 223.00 C 221.48 221.35 236.83 219.35 249.50 218.00 C 262.17 216.65 277.33 215.71 286.12 214.88 C 294.92 214.04 290.42 213.71 302.25 213.00 C 314.08 212.29 346.62 211.15 357.12 210.62 C 367.62 210.10 355.10 210.38 365.25 209.88 C 375.40 209.38 403.54 208.33 418.00 207.62 C 432.46 206.92 445.60 206.12 452.00 205.62 C 458.40 205.12 455.06 205.15 456.38 204.62 C 457.69 204.10 458.98 203.29 459.88 202.50 C 460.77 201.71 461.46 201.17 461.75 199.88 C 462.04 198.58 461.96 196.17 461.62 194.75 Z" id="s-2-f-0"/>
<clipPath id="c-s-2"><use href="#s-2-f-0"/></clipPath>
<path d="M 367.50 60.00 C 365.21 57.83 363.83 57.10 362.12 56.12 C 360.42 55.15 359.02 54.58 357.25 54.12 C 355.48 53.67 352.94 53.40 351.50 53.38 C 350.06 53.35 349.42 53.65 348.62 54.00 C 347.83 54.35 347.29 54.77 346.75 55.50 C 346.21 56.23 345.65 57.46 345.38 58.38 C 345.10 59.29 345.02 58.98 345.12 61.00 C 345.23 63.02 345.60 67.94 346.00 70.50 C 346.40 73.06 347.38 73.96 347.50 76.38 C 347.62 78.79 347.54 81.33 346.75 85.00 C 345.96 88.67 344.92 92.92 342.75 98.38 C 340.58 103.83 337.96 109.96 333.75 117.75 C 329.54 125.54 323.98 135.04 317.50 145.12 C 311.02 155.21 300.31 170.54 294.88 178.25 C 289.44 185.96 288.35 187.23 284.88 191.38 C 281.40 195.52 276.06 200.67 274.00 203.12 C 271.94 205.58 272.98 205.54 272.50 206.12 C 272.02 206.71 272.04 205.79 271.12 206.62 C 270.21 207.46 268.75 209.02 267.00 211.12 C 265.25 213.23 268.04 211.33 260.62 219.25 C 253.21 227.17 233.46 247.60 222.50 258.62 C 211.54 269.65 202.06 278.56 194.88 285.38 C 187.69 292.19 184.96 294.58 179.38 299.50 C 173.79 304.42 170.21 307.65 161.38 314.88 C 152.54 322.10 138.38 333.60 126.38 342.88 C 114.38 352.15 100.27 362.58 89.38 370.50 C 78.48 378.42 66.06 386.65 61.00 390.38 C 55.94 394.10 59.44 392.08 59.00 392.88 C 58.56 393.67 58.44 394.46 58.38 395.12 C 58.31 395.79 58.46 396.42 58.62 396.88 C 58.79 397.33 58.52 397.67 59.38 397.88 C 60.23 398.08 62.42 398.15 63.75 398.12 C 65.08 398.10 65.65 398.15 67.38 397.75 C 69.10 397.35 71.35 396.75 74.12 395.75 C 76.90 394.75 80.65 393.25 84.00 391.75 C 87.35 390.25 88.52 389.92 94.25 386.75 C 99.98 383.58 108.92 378.71 118.38 372.75 C 127.83 366.79 135.77 362.52 151.00 351.00 C 166.23 339.48 197.73 313.60 209.75 303.62 C 221.77 293.65 215.98 297.98 223.12 291.12 C 230.27 284.27 242.81 272.46 252.62 262.50 C 262.44 252.54 274.60 239.42 282.00 231.38 C 289.40 223.33 293.98 217.54 297.00 214.25 C 300.02 210.96 299.21 212.62 300.12 211.62 C 301.04 210.62 301.52 209.42 302.50 208.25 C 303.48 207.08 305.15 205.67 306.00 204.62 C 306.85 203.58 306.62 203.17 307.62 202.00 C 308.62 200.83 311.02 198.75 312.00 197.62 C 312.98 196.50 312.38 196.58 313.50 195.25 C 314.62 193.92 316.69 192.25 318.75 189.62 C 320.81 187.00 319.79 187.54 325.88 179.50 C 331.96 171.46 347.00 151.92 355.25 141.38 C 363.50 130.83 370.27 122.38 375.38 116.25 C 380.48 110.12 383.83 107.04 385.88 104.62 C 387.92 102.21 387.15 102.88 387.62 101.75 C 388.10 100.62 388.62 99.27 388.75 97.88 C 388.88 96.48 388.54 94.54 388.38 93.38 C 388.21 92.21 388.52 92.79 387.75 90.88 C 386.98 88.96 385.08 84.58 383.75 81.88 C 382.42 79.17 381.06 76.75 379.75 74.62 C 378.44 72.50 377.92 71.56 375.88 69.12 C 373.83 66.69 369.79 62.17 367.50 60.00 Z" id="s-3-f-0"/>
<clipPath id="c-s-3"><use href="#s-3-f-0"/></clipPath>
<path d="M 382.75 277.88 C 382.35 276.56 381.33 275.02 379.88 273.25 C 378.42 271.48 375.44 268.62 374.00 267.25 C 372.56 265.88 373.33 266.38 371.25 265.00 C 369.17 263.62 364.10 260.50 361.50 259.00 C 358.90 257.50 357.88 256.98 355.62 256.00 C 353.38 255.02 350.40 253.81 348.00 253.12 C 345.60 252.44 343.00 252.04 341.25 251.88 C 339.50 251.71 338.54 251.69 337.50 252.12 C 336.46 252.56 335.65 253.12 335.00 254.50 C 334.35 255.88 334.31 258.56 333.62 260.38 C 332.94 262.19 332.10 263.67 330.88 265.38 C 329.65 267.08 328.69 268.38 326.25 270.62 C 323.81 272.88 320.83 275.69 316.25 278.88 C 311.67 282.06 305.21 286.12 298.75 289.75 C 292.29 293.38 283.98 297.46 277.50 300.62 C 271.02 303.79 265.00 306.52 259.88 308.75 C 254.75 310.98 249.08 313.00 246.75 314.00 C 244.42 315.00 247.56 314.02 245.88 314.75 C 244.19 315.48 238.69 317.67 236.62 318.38 C 234.56 319.08 234.17 318.77 233.50 319.00 C 232.83 319.23 233.75 319.27 232.62 319.75 C 231.50 320.23 228.67 320.71 226.75 321.88 C 224.83 323.04 222.10 325.40 221.12 326.75 C 220.15 328.10 220.65 329.19 220.88 330.00 C 221.10 330.81 221.83 331.27 222.50 331.62 C 223.17 331.98 223.71 332.04 224.88 332.12 C 226.04 332.21 226.75 332.38 229.50 332.12 C 232.25 331.88 235.08 331.71 241.38 330.62 C 247.67 329.54 258.83 327.60 267.25 325.62 C 275.67 323.65 282.15 321.92 291.88 318.75 C 301.60 315.58 316.44 310.15 325.62 306.62 C 334.81 303.10 340.46 300.52 347.00 297.62 C 353.54 294.73 359.62 291.40 364.88 289.25 C 370.12 287.10 375.94 285.71 378.50 284.75 C 381.06 283.79 379.62 284.10 380.25 283.50 C 380.88 282.90 381.83 282.06 382.25 281.12 C 382.67 280.19 383.15 279.19 382.75 277.88 Z" id="s-4-f-0"/>
<clipPath id="c-s-4"><use href="#s-4-f-0"/></clipPath>
<path d="M 203.62 258.00 C 203.17 258.71 203.10 259.48 203.00 260.38 C 202.90 261.27 202.54 261.00 203.00 263.38 C 203.46 265.75 205.33 272.25 205.75 274.62 C 206.17 277.00 205.50 276.71 205.50 277.62 C 205.50 278.54 205.58 279.52 205.75 280.12 C 205.92 280.73 206.35 279.75 206.50 281.25 C 206.65 282.75 206.50 287.88 206.62 289.12 C 206.75 290.38 207.06 288.67 207.25 288.75 C 207.44 288.83 207.69 288.33 207.75 289.62 C 207.81 290.92 207.50 295.06 207.62 296.50 C 207.75 297.94 208.33 297.10 208.50 298.25 C 208.67 299.40 208.50 302.02 208.62 303.38 C 208.75 304.73 209.35 300.60 209.25 306.38 C 209.15 312.15 208.21 328.62 208.00 338.00 C 207.79 347.38 207.83 355.54 208.00 362.62 C 208.17 369.71 208.65 376.04 209.00 380.50 C 209.35 384.96 209.46 386.10 210.12 389.38 C 210.79 392.65 211.83 397.00 213.00 400.12 C 214.17 403.25 215.83 406.02 217.12 408.12 C 218.42 410.23 219.12 410.96 220.75 412.75 C 222.38 414.54 224.92 417.19 226.88 418.88 C 228.83 420.56 230.44 421.56 232.50 422.88 C 234.56 424.19 236.19 425.29 239.25 426.75 C 242.31 428.21 246.75 430.15 250.88 431.62 C 255.00 433.10 259.94 434.60 264.00 435.62 C 268.06 436.65 270.88 437.15 275.25 437.75 C 279.62 438.35 285.25 438.96 290.25 439.25 C 295.25 439.54 298.04 439.77 305.25 439.50 C 312.46 439.23 325.38 438.42 333.50 437.62 C 341.62 436.83 347.94 435.90 354.00 434.75 C 360.06 433.60 365.38 432.08 369.88 430.75 C 374.38 429.42 377.33 428.25 381.00 426.75 C 384.67 425.25 388.52 423.42 391.88 421.75 C 395.23 420.08 397.73 418.79 401.12 416.75 C 404.52 414.71 409.85 411.33 412.25 409.50 C 414.65 407.67 414.75 406.77 415.50 405.75 C 416.25 404.73 416.38 404.42 416.75 403.38 C 417.12 402.33 417.58 400.67 417.75 399.50 C 417.92 398.33 417.92 397.65 417.75 396.38 C 417.58 395.10 417.42 393.62 416.75 391.88 C 416.08 390.12 415.21 388.23 413.75 385.88 C 412.29 383.52 409.79 380.58 408.00 377.75 C 406.21 374.92 405.52 373.83 403.00 368.88 C 400.48 363.92 394.94 352.69 392.88 348.00 C 390.81 343.31 391.62 342.62 390.62 340.75 C 389.62 338.88 387.81 337.38 386.88 336.75 C 385.94 336.12 385.65 336.40 385.00 337.00 C 384.35 337.60 383.52 338.85 383.00 340.38 C 382.48 341.90 383.29 341.52 381.88 346.12 C 380.46 350.73 376.69 362.02 374.50 368.00 C 372.31 373.98 370.35 378.44 368.75 382.00 C 367.15 385.56 366.46 387.21 364.88 389.38 C 363.29 391.54 360.98 393.60 359.25 395.00 C 357.52 396.40 356.46 396.79 354.50 397.75 C 352.54 398.71 351.08 399.58 347.50 400.75 C 343.92 401.92 338.02 403.58 333.00 404.75 C 327.98 405.92 321.81 407.06 317.38 407.75 C 312.94 408.44 309.85 408.62 306.38 408.88 C 302.90 409.12 299.81 409.25 296.50 409.25 C 293.19 409.25 290.52 409.29 286.50 408.88 C 282.48 408.46 276.06 407.42 272.38 406.75 C 268.69 406.08 268.06 406.06 264.38 404.88 C 260.69 403.69 253.69 401.17 250.25 399.62 C 246.81 398.08 245.58 397.00 243.75 395.62 C 241.92 394.25 240.54 393.02 239.25 391.38 C 237.96 389.73 236.90 387.56 236.00 385.75 C 235.10 383.94 234.56 382.71 233.88 380.50 C 233.19 378.29 232.46 376.73 231.88 372.50 C 231.29 368.27 230.62 359.73 230.38 355.12 C 230.12 350.52 230.23 348.83 230.38 344.88 C 230.52 340.92 231.15 334.17 231.25 331.38 C 231.35 328.58 230.96 328.73 231.00 328.12 C 231.04 327.52 231.31 327.75 231.50 327.75 C 231.69 327.75 232.00 330.10 232.12 328.12 C 232.25 326.15 231.23 324.46 232.25 315.88 C 233.27 307.29 237.10 283.48 238.25 276.62 C 239.40 269.77 238.98 275.90 239.12 274.75 C 239.27 273.60 239.31 271.02 239.12 269.75 C 238.94 268.48 238.77 268.15 238.00 267.12 C 237.23 266.10 235.23 264.21 234.50 263.62 C 233.77 263.04 234.65 264.12 233.62 263.62 C 232.60 263.12 229.94 261.31 228.38 260.62 C 226.81 259.94 225.10 259.81 224.25 259.50 C 223.40 259.19 223.75 258.90 223.25 258.75 C 222.75 258.60 222.48 259.08 221.25 258.62 C 220.02 258.17 218.00 256.52 215.88 256.00 C 213.75 255.48 210.19 255.48 208.50 255.50 C 206.81 255.52 206.56 255.71 205.75 256.12 C 204.94 256.54 204.08 257.29 203.62 258.00 Z" id="s-5-f-0"/>
<clipPath id="c-s-5"><use href="#s-5-f-0"/></clipPath>
</defs>
<g id="s-0" clip-path="url(#c-s-0)">
<use href="#s-0-f-0"/>
<path d="M 300.88 122.00 C 300.71 119.81 300.52 119.17 299.88 117.12 C 299.23 115.08 297.85 111.25 297.00 109.75 C 296.15 108.25 296.04 108.40 294.75 108.12 C 293.46 107.85 292.48 107.81 289.25 108.12 C 286.02 108.44 280.65 108.88 275.38 110.00 C 270.10 111.12 260.96 114.04 257.62 114.88 C 254.29 115.71 255.96 114.88 255.38 115.00 C 254.79 115.12 258.71 114.56 254.12 115.62 C 249.54 116.69 244.60 118.81 227.88 121.38 C 211.15 123.94 166.52 129.23 153.75 131.00 C 140.98 132.77 151.94 131.62 151.25 132.00 C 150.56 132.38 150.00 132.85 149.62 133.25 C 149.25 133.65 149.10 133.88 149.00 134.38 C 148.90 134.88 148.77 135.58 149.00 136.25 C 149.23 136.92 149.52 137.50 150.38 138.38 C 151.23 139.25 152.44 140.42 154.12 141.50 C 155.81 142.58 158.50 144.00 160.50 144.88 C 162.50 145.75 163.21 146.10 166.12 146.75 C 169.04 147.40 172.62 148.42 178.00 148.75 C 183.38 149.08 191.81 149.23 198.38 148.75 C 204.94 148.27 211.73 146.56 217.38 145.88 C 223.02 145.19 226.23 145.48 232.25 144.62 C 238.27 143.77 247.25 142.02 253.50 140.75 C 259.75 139.48 262.31 138.52 269.75 137.00 C 277.19 135.48 292.94 132.75 298.12 131.62 C 303.31 130.50 300.42 131.85 300.88 130.25 C 301.33 128.65 301.04 124.19 300.88 122.00 Z" id="s-0-f-1"/>
<path d="M 277.88 124.75 C 277.52 121.94 276.75 119.75 275.88 117.50 C 275.00 115.25 273.42 112.33 272.62 111.25 C 271.83 110.17 273.62 110.40 271.12 111.00 C 268.62 111.60 260.25 114.21 257.62 114.88 C 255.00 115.54 255.96 114.88 255.38 115.00 C 254.79 115.12 258.71 114.56 254.12 115.62 C 249.54 116.69 244.60 118.81 227.88 121.38 C 211.15 123.94 166.52 129.23 153.75 131.00 C 140.98 132.77 151.94 131.62 151.25 132.00 C 150.56 132.38 150.00 132.85 149.62 133.25 C 149.25 133.65 149.10 133.88 149.00 134.38 C 148.90 134.88 148.77 135.58 149.00 136.25 C 149.23 136.92 149.52 137.50 150.38 138.38 C 151.23 139.25 152.44 140.42 154.12 141.50 C 155.81 142.58 158.50 144.00 160.50 144.88 C 162.50 145.75 163.21 146.10 166.12 146.75 C 169.04 147.40 172.62 148.42 178.00 148.75 C 183.38 149.08 191.81 149.23 198.38 148.75 C 204.94 148.27 212.10 146.50 217.38 145.88 C 222.65 145.25 223.98 145.85 230.00 145.00 C 236.02 144.15 249.27 141.58 253.50 140.75 C 257.73 139.92 251.48 140.83 255.38 140.00 C 259.27 139.17 273.10 136.69 276.88 135.75 C 280.65 134.81 277.83 136.21 278.00 134.38 C 278.17 132.54 278.23 127.56 277.88 124.75 Z" id="s-0-f-2"/>
<path d="M 254.62 131.38 C 254.38 128.65 253.50 125.00 252.75 122.62 C 252.00 120.25 250.92 118.10 250.12 117.12 C 249.33 116.15 252.08 115.98 248.00 116.75 C 243.92 117.52 241.33 119.38 225.62 121.75 C 209.92 124.12 166.15 129.29 153.75 131.00 C 141.35 132.71 151.94 131.62 151.25 132.00 C 150.56 132.38 150.00 132.85 149.62 133.25 C 149.25 133.65 149.10 133.88 149.00 134.38 C 148.90 134.88 148.77 135.58 149.00 136.25 C 149.23 136.92 149.52 137.50 150.38 138.38 C 151.23 139.25 152.44 140.42 154.12 141.50 C 155.81 142.58 158.50 144.00 160.50 144.88 C 162.50 145.75 163.21 146.10 166.12 146.75 C 169.04 147.40 172.62 148.42 178.00 148.75 C 183.38 149.08 191.81 149.23 198.38 148.75 C 204.94 148.27 212.10 146.50 217.38 145.88 C 222.65 145.25 224.04 145.85 230.00 145.00 C 235.96 144.15 249.15 141.54 253.12 140.75 C 257.10 139.96 253.69 140.54 253.88 140.25 C 254.06 139.96 254.12 140.48 254.25 139.00 C 254.38 137.52 254.88 134.10 254.62 131.38 Z" id="s-0-f-3"/>
<path d="M 232.88 139.25 C 233.00 137.88 233.04 137.31 232.88 135.62 C 232.71 133.94 232.38 131.23 231.88 129.12 C 231.38 127.02 230.42 124.29 229.88 123.00 C 229.33 121.71 240.42 120.21 228.62 121.38 C 216.83 122.54 171.94 128.27 159.12 130.00 C 146.31 131.73 153.31 131.23 151.75 131.75 C 150.19 132.27 150.21 132.69 149.75 133.12 C 149.29 133.56 149.12 133.85 149.00 134.38 C 148.88 134.90 148.77 135.58 149.00 136.25 C 149.23 136.92 149.52 137.50 150.38 138.38 C 151.23 139.25 152.44 140.42 154.12 141.50 C 155.81 142.58 158.50 144.00 160.50 144.88 C 162.50 145.75 163.21 146.10 166.12 146.75 C 169.04 147.40 172.62 148.42 178.00 148.75 C 183.38 149.08 191.81 149.23 198.38 148.75 C 204.94 148.27 211.92 146.52 217.38 145.88 C 222.83 145.23 228.67 145.21 231.12 144.88 C 233.58 144.54 231.83 144.81 232.12 143.88 C 232.42 142.94 232.75 140.62 232.88 139.25 Z" id="s-0-f-4"/>
<path d="M 222.88 143.75 C 223.12 142.17 223.19 138.38 223.12 136.12 C 223.06 133.88 222.88 132.12 222.50 130.25 C 222.12 128.38 221.42 126.15 220.88 124.88 C 220.33 123.60 229.79 121.73 219.25 122.62 C 208.71 123.52 168.88 128.73 157.62 130.25 C 146.38 131.77 153.06 131.27 151.75 131.75 C 150.44 132.23 150.21 132.69 149.75 133.12 C 149.29 133.56 149.12 133.85 149.00 134.38 C 148.88 134.90 148.77 135.58 149.00 136.25 C 149.23 136.92 149.17 137.29 150.38 138.38 C 151.58 139.46 154.56 141.67 156.25 142.75 C 157.94 143.83 158.85 144.21 160.50 144.88 C 162.15 145.54 163.48 146.12 166.12 146.75 C 168.77 147.38 173.46 148.25 176.38 148.62 C 179.29 149.00 179.96 148.98 183.62 149.00 C 187.29 149.02 192.92 149.25 198.38 148.75 C 203.83 148.25 212.50 146.52 216.38 146.00 C 220.25 145.48 220.54 146.00 221.62 145.62 C 222.71 145.25 222.62 145.33 222.88 143.75 Z" id="s-0-f-5"/>
<path d="M 207.75 140.38 C 207.88 138.79 207.92 138.00 207.75 136.25 C 207.58 134.50 207.19 131.69 206.75 129.88 C 206.31 128.06 205.62 126.25 205.12 125.38 C 204.62 124.50 211.67 123.81 203.75 124.62 C 195.83 125.44 166.29 129.06 157.62 130.25 C 148.96 131.44 153.06 131.27 151.75 131.75 C 150.44 132.23 150.21 132.69 149.75 133.12 C 149.29 133.56 149.12 133.85 149.00 134.38 C 148.88 134.90 148.77 135.58 149.00 136.25 C 149.23 136.92 149.17 137.29 150.38 138.38 C 151.58 139.46 154.56 141.67 156.25 142.75 C 157.94 143.83 158.85 144.21 160.50 144.88 C 162.15 145.54 163.48 146.12 166.12 146.75 C 168.77 147.38 171.69 148.27 176.38 148.62 C 181.06 148.98 189.38 149.02 194.25 148.88 C 199.12 148.73 203.50 148.27 205.62 147.75 C 207.75 147.23 206.65 146.98 207.00 145.75 C 207.35 144.52 207.62 141.96 207.75 140.38 Z" id="s-0-f-6"/>
<path d="M 197.88 138.25 C 197.98 135.90 197.69 132.98 197.50 131.25 C 197.31 129.52 197.10 128.77 196.75 127.88 C 196.40 126.98 201.90 125.48 195.38 125.88 C 188.85 126.27 164.90 129.27 157.62 130.25 C 150.35 131.23 153.06 131.27 151.75 131.75 C 150.44 132.23 150.21 132.69 149.75 133.12 C 149.29 133.56 149.12 133.85 149.00 134.38 C 148.88 134.90 148.77 135.58 149.00 136.25 C 149.23 136.92 149.17 137.29 150.38 138.38 C 151.58 139.46 154.56 141.67 156.25 142.75 C 157.94 143.83 158.85 144.21 160.50 144.88 C 162.15 145.54 163.48 146.12 166.12 146.75 C 168.77 147.38 173.46 148.25 176.38 148.62 C 179.29 149.00 180.44 149.00 183.62 149.00 C 186.81 149.00 193.29 149.23 195.50 148.62 C 197.71 148.02 196.48 147.10 196.88 145.38 C 197.27 143.65 197.77 140.60 197.88 138.25 Z" id="s-0-f-7"/>
<path d="M 192.75 129.75 C 192.58 127.54 192.27 127.46 191.88 126.88 C 191.48 126.29 195.83 125.73 190.38 126.25 C 184.92 126.77 165.23 129.21 159.12 130.00 C 153.02 130.79 155.06 130.67 153.75 131.00 C 152.44 131.33 151.98 131.56 151.25 132.00 C 150.52 132.44 149.75 132.92 149.38 133.62 C 149.00 134.33 148.83 135.46 149.00 136.25 C 149.17 137.04 149.52 137.50 150.38 138.38 C 151.23 139.25 152.44 140.42 154.12 141.50 C 155.81 142.58 158.50 144.00 160.50 144.88 C 162.50 145.75 163.48 146.12 166.12 146.75 C 168.77 147.38 172.42 148.29 176.38 148.62 C 180.33 148.96 187.48 148.81 189.88 148.75 C 192.27 148.69 190.25 149.69 190.75 148.25 C 191.25 146.81 192.54 143.21 192.88 140.12 C 193.21 137.04 192.92 131.96 192.75 129.75 Z" id="s-0-f-8"/>
<path d="M 191.88 128.00 C 191.60 126.31 191.19 126.79 190.88 126.50 C 190.56 126.21 195.54 125.62 190.00 126.25 C 184.46 126.88 163.67 129.46 157.62 130.25 C 151.58 131.04 154.88 130.67 153.75 131.00 C 152.62 131.33 151.67 131.69 150.88 132.25 C 150.08 132.81 149.31 133.71 149.00 134.38 C 148.69 135.04 148.77 135.58 149.00 136.25 C 149.23 136.92 149.52 137.50 150.38 138.38 C 151.23 139.25 152.04 140.27 154.12 141.50 C 156.21 142.73 159.17 144.56 162.88 145.75 C 166.58 146.94 171.92 148.12 176.38 148.62 C 180.83 149.12 187.04 149.75 189.62 148.75 C 192.21 147.75 191.40 144.65 191.88 142.62 C 192.35 140.60 192.50 139.06 192.50 136.62 C 192.50 134.19 192.15 129.69 191.88 128.00 Z" id="s-0-f-9"/>
</g>
<g id="s-1" clip-path="url(#c-s-1)">
<use href="#s-1-f-0"/>
<path d="M 221.00 19.00 C 219.35 19.15 219.15 19.44 218.25 20.00 C 217.35 20.56 216.38 21.58 215.62 22.38 C 214.88 23.17 214.08 23.90 213.75 24.75 C 213.42 25.60 213.58 26.56 213.62 27.50 C 213.67 28.44 213.77 29.46 214.00 30.38 C 214.23 31.29 214.02 31.33 215.00 33.00 C 215.98 34.67 218.42 37.92 219.88 40.38 C 221.33 42.83 222.77 45.54 223.75 47.75 C 224.73 49.96 225.29 51.56 225.75 53.62 C 226.21 55.69 226.10 48.85 226.50 60.12 C 226.90 71.40 227.96 110.85 228.12 121.25 C 228.29 131.65 227.58 120.52 227.50 122.50 C 227.42 124.48 227.48 131.40 227.62 133.12 C 227.77 134.85 228.19 132.81 228.38 132.88 C 228.56 132.94 228.81 124.00 228.75 133.50 C 228.69 143.00 227.94 180.33 228.00 189.88 C 228.06 199.42 227.21 190.25 229.12 190.75 C 231.04 191.25 237.12 192.54 239.50 192.88 C 241.88 193.21 241.85 192.92 243.38 192.75 C 244.90 192.58 247.50 192.27 248.62 191.88 C 249.75 191.48 249.40 196.29 250.12 190.38 C 250.85 184.46 252.15 164.85 253.00 156.38 C 253.85 147.90 254.88 142.85 255.25 139.50 C 255.62 136.15 255.15 136.92 255.25 136.25 C 255.35 135.58 255.71 137.67 255.88 135.50 C 256.04 133.33 256.08 125.42 256.25 123.25 C 256.42 121.08 256.73 122.90 256.88 122.50 C 257.02 122.10 257.12 122.46 257.12 120.88 C 257.12 119.29 256.58 117.73 256.88 113.00 C 257.17 108.27 258.02 99.23 258.88 92.50 C 259.73 85.77 261.15 77.65 262.00 72.62 C 262.85 67.60 263.06 66.46 264.00 62.38 C 264.94 58.29 266.94 51.23 267.62 48.12 C 268.31 45.02 268.12 44.96 268.12 43.75 C 268.12 42.54 267.92 41.71 267.62 40.88 C 267.33 40.04 267.40 39.92 266.38 38.75 C 265.35 37.58 263.23 35.31 261.50 33.88 C 259.77 32.44 258.98 31.75 256.00 30.12 C 253.02 28.50 247.06 25.65 243.62 24.12 C 240.19 22.60 237.96 21.83 235.38 21.00 C 232.79 20.17 230.52 19.46 228.12 19.12 C 225.73 18.79 222.65 18.85 221.00 19.00 Z" id="s-1-f-1"/>
<path d="M 220.25 19.12 C 218.69 19.42 218.33 19.81 217.25 20.75 C 216.17 21.69 214.35 23.62 213.75 24.75 C 213.15 25.88 213.58 26.56 213.62 27.50 C 213.67 28.44 213.77 29.46 214.00 30.38 C 214.23 31.29 214.02 31.33 215.00 33.00 C 215.98 34.67 218.42 37.92 219.88 40.38 C 221.33 42.83 222.77 45.54 223.75 47.75 C 224.73 49.96 225.31 51.79 225.75 53.62 C 226.19 55.46 225.98 47.48 226.38 58.75 C 226.77 70.02 227.94 110.62 228.12 121.25 C 228.31 131.88 227.58 120.52 227.50 122.50 C 227.42 124.48 227.48 131.40 227.62 133.12 C 227.77 134.85 228.19 132.81 228.38 132.88 C 228.56 132.94 228.75 128.06 228.75 133.50 C 228.75 138.94 228.33 159.94 228.38 165.50 C 228.42 171.06 227.73 166.31 229.00 166.88 C 230.27 167.44 234.12 168.46 236.00 168.88 C 237.88 169.29 238.08 169.38 240.25 169.38 C 242.42 169.38 247.08 169.17 249.00 168.88 C 250.92 168.58 251.15 168.71 251.75 167.62 C 252.35 166.54 252.25 165.79 252.62 162.38 C 253.00 158.96 253.56 150.94 254.00 147.12 C 254.44 143.31 255.04 141.31 255.25 139.50 C 255.46 137.69 255.15 136.92 255.25 136.25 C 255.35 135.58 255.71 137.67 255.88 135.50 C 256.04 133.33 256.08 125.42 256.25 123.25 C 256.42 121.08 256.73 122.90 256.88 122.50 C 257.02 122.10 257.12 122.46 257.12 120.88 C 257.12 119.29 256.58 117.73 256.88 113.00 C 257.17 108.27 257.85 100.10 258.88 92.50 C 259.90 84.90 261.52 74.88 263.00 67.38 C 264.48 59.88 266.90 51.29 267.75 47.50 C 268.60 43.71 268.12 45.67 268.12 44.62 C 268.12 43.58 268.04 42.23 267.75 41.25 C 267.46 40.27 267.83 40.31 266.38 38.75 C 264.92 37.19 262.04 33.98 259.00 31.88 C 255.96 29.77 251.12 27.60 248.12 26.12 C 245.12 24.65 243.62 24.00 241.00 23.00 C 238.38 22.00 234.77 20.79 232.38 20.12 C 229.98 19.46 228.65 19.17 226.62 19.00 C 224.60 18.83 221.81 18.83 220.25 19.12 Z" id="s-1-f-2"/>
<path d="M 220.25 19.12 C 218.69 19.42 218.33 19.81 217.25 20.75 C 216.17 21.69 214.35 23.62 213.75 24.75 C 213.15 25.88 213.58 26.56 213.62 27.50 C 213.67 28.44 213.77 29.46 214.00 30.38 C 214.23 31.29 214.02 31.33 215.00 33.00 C 215.98 34.67 218.60 38.29 219.88 40.38 C 221.15 42.46 221.62 43.19 222.62 45.50 C 223.62 47.81 225.23 51.81 225.88 54.25 C 226.52 56.69 226.19 53.71 226.50 60.12 C 226.81 66.54 227.46 82.85 227.75 92.75 C 228.04 102.65 228.29 114.54 228.25 119.50 C 228.21 124.46 227.60 120.23 227.50 122.50 C 227.40 124.77 227.48 131.40 227.62 133.12 C 227.77 134.85 228.19 132.81 228.38 132.88 C 228.56 132.94 228.67 132.12 228.75 133.50 C 228.83 134.88 228.58 139.69 228.88 141.12 C 229.17 142.56 229.85 141.92 230.50 142.12 C 231.15 142.33 232.27 142.23 232.75 142.38 C 233.23 142.52 232.15 142.75 233.38 143.00 C 234.60 143.25 238.17 143.73 240.12 143.88 C 242.08 144.02 243.06 144.06 245.12 143.88 C 247.19 143.69 250.90 143.17 252.50 142.75 C 254.10 142.33 254.29 141.92 254.75 141.38 C 255.21 140.83 255.17 140.35 255.25 139.50 C 255.33 138.65 255.12 137.02 255.25 136.25 C 255.38 135.48 255.83 137.04 256.00 134.88 C 256.17 132.71 256.10 125.31 256.25 123.25 C 256.40 121.19 256.73 122.90 256.88 122.50 C 257.02 122.10 257.12 122.46 257.12 120.88 C 257.12 119.29 256.58 117.73 256.88 113.00 C 257.17 108.27 257.85 100.10 258.88 92.50 C 259.90 84.90 261.52 74.88 263.00 67.38 C 264.48 59.88 266.90 51.29 267.75 47.50 C 268.60 43.71 268.12 45.67 268.12 44.62 C 268.12 43.58 268.04 42.23 267.75 41.25 C 267.46 40.27 267.83 40.31 266.38 38.75 C 264.92 37.19 262.04 33.98 259.00 31.88 C 255.96 29.77 251.12 27.60 248.12 26.12 C 245.12 24.65 243.62 24.00 241.00 23.00 C 238.38 22.00 234.77 20.79 232.38 20.12 C 229.98 19.46 228.65 19.17 226.62 19.00 C 224.60 18.83 221.81 18.83 220.25 19.12 Z" id="s-1-f-3"/>
<path d="M 219.50 19.38 C 217.94 19.67 218.17 19.92 217.25 20.75 C 216.33 21.58 214.60 23.25 214.00 24.38 C 213.40 25.50 213.62 26.50 213.62 27.50 C 213.62 28.50 213.77 29.46 214.00 30.38 C 214.23 31.29 214.02 31.33 215.00 33.00 C 215.98 34.67 218.60 38.29 219.88 40.38 C 221.15 42.46 221.62 43.19 222.62 45.50 C 223.62 47.81 225.19 50.79 225.88 54.25 C 226.56 57.71 226.35 56.21 226.75 66.25 C 227.15 76.29 227.75 106.27 228.25 114.50 C 228.75 122.73 228.94 115.23 229.75 115.62 C 230.56 116.02 231.33 116.46 233.12 116.88 C 234.92 117.29 238.98 117.75 240.50 118.12 C 242.02 118.50 241.15 118.96 242.25 119.12 C 243.35 119.29 246.38 119.17 247.12 119.12 C 247.88 119.08 246.75 119.06 246.75 118.88 C 246.75 118.69 246.35 118.12 247.12 118.00 C 247.90 117.88 249.85 118.27 251.38 118.12 C 252.90 117.98 255.29 117.40 256.25 117.12 C 257.21 116.85 257.02 117.19 257.12 116.50 C 257.23 115.81 256.75 115.54 256.88 113.00 C 257.00 110.46 257.35 106.02 257.88 101.25 C 258.40 96.48 258.98 90.85 260.00 84.38 C 261.02 77.90 262.71 68.52 264.00 62.38 C 265.29 56.23 267.06 50.60 267.75 47.50 C 268.44 44.40 268.15 44.85 268.12 43.75 C 268.10 42.65 267.92 41.71 267.62 40.88 C 267.33 40.04 267.81 40.25 266.38 38.75 C 264.94 37.25 262.04 33.98 259.00 31.88 C 255.96 29.77 251.12 27.60 248.12 26.12 C 245.12 24.65 243.62 24.00 241.00 23.00 C 238.38 22.00 234.77 20.79 232.38 20.12 C 229.98 19.46 228.77 19.12 226.62 19.00 C 224.48 18.88 221.06 19.08 219.50 19.38 Z" id="s-1-f-4"/>
<path d="M 218.25 20.00 C 217.04 20.96 214.48 23.15 213.75 24.75 C 213.02 26.35 213.50 27.94 213.88 29.62 C 214.25 31.31 215.00 33.08 216.00 34.88 C 217.00 36.67 218.58 38.23 219.88 40.38 C 221.17 42.52 222.77 45.54 223.75 47.75 C 224.73 49.96 225.29 51.56 225.75 53.62 C 226.21 55.69 226.25 55.12 226.50 60.12 C 226.75 65.12 227.00 78.46 227.25 83.62 C 227.50 88.79 227.40 89.58 228.00 91.12 C 228.60 92.67 229.48 92.25 230.88 92.88 C 232.27 93.50 234.40 94.38 236.38 94.88 C 238.35 95.38 240.38 95.73 242.75 95.88 C 245.12 96.02 248.08 96.12 250.62 95.75 C 253.17 95.38 256.62 94.15 258.00 93.62 C 259.38 93.10 258.04 97.00 258.88 92.62 C 259.71 88.25 261.52 74.90 263.00 67.38 C 264.48 59.85 266.90 51.44 267.75 47.50 C 268.60 43.56 268.12 44.79 268.12 43.75 C 268.12 42.71 267.96 41.98 267.75 41.25 C 267.54 40.52 267.67 40.38 266.88 39.38 C 266.08 38.38 264.31 36.50 263.00 35.25 C 261.69 34.00 261.48 33.40 259.00 31.88 C 256.52 30.35 251.12 27.60 248.12 26.12 C 245.12 24.65 244.33 24.17 241.00 23.00 C 237.67 21.83 231.46 19.79 228.12 19.12 C 224.79 18.46 222.65 18.85 221.00 19.00 C 219.35 19.15 219.46 19.04 218.25 20.00 Z" id="s-1-f-5"/>
<path d="M 218.25 20.00 C 217.04 20.96 214.48 23.15 213.75 24.75 C 213.02 26.35 213.50 27.94 213.88 29.62 C 214.25 31.31 215.00 33.08 216.00 34.88 C 217.00 36.67 218.58 38.23 219.88 40.38 C 221.17 42.52 222.77 45.54 223.75 47.75 C 224.73 49.96 225.15 48.65 225.75 53.62 C 226.35 58.60 226.71 73.42 227.38 77.62 C 228.04 81.83 228.60 78.50 229.75 78.88 C 230.90 79.25 231.60 79.71 234.25 79.88 C 236.90 80.04 242.98 80.04 245.62 79.88 C 248.27 79.71 248.38 79.40 250.12 78.88 C 251.88 78.35 254.19 77.75 256.12 76.75 C 258.06 75.75 260.69 73.79 261.75 72.88 C 262.81 71.96 262.12 73.00 262.50 71.25 C 262.88 69.50 263.12 66.33 264.00 62.38 C 264.88 58.42 267.06 50.60 267.75 47.50 C 268.44 44.40 268.12 44.79 268.12 43.75 C 268.12 42.71 267.96 41.98 267.75 41.25 C 267.54 40.52 267.67 40.38 266.88 39.38 C 266.08 38.38 264.31 36.50 263.00 35.25 C 261.69 34.00 261.48 33.40 259.00 31.88 C 256.52 30.35 251.12 27.60 248.12 26.12 C 245.12 24.65 244.33 24.17 241.00 23.00 C 237.67 21.83 231.46 19.79 228.12 19.12 C 224.79 18.46 222.65 18.85 221.00 19.00 C 219.35 19.15 219.46 19.04 218.25 20.00 Z" id="s-1-f-6"/>
<path d="M 218.25 20.00 C 217.04 20.96 214.46 23.02 213.75 24.75 C 213.04 26.48 213.62 28.69 214.00 30.38 C 214.38 32.06 215.02 33.21 216.00 34.88 C 216.98 36.54 218.77 38.60 219.88 40.38 C 220.98 42.15 221.65 43.29 222.62 45.50 C 223.60 47.71 225.10 51.19 225.75 53.62 C 226.40 56.06 226.31 57.31 226.50 60.12 C 226.69 62.94 226.73 68.58 226.88 70.50 C 227.02 72.42 226.50 71.40 227.38 71.62 C 228.25 71.85 229.73 72.17 232.12 71.88 C 234.52 71.58 239.38 70.52 241.75 69.88 C 244.12 69.23 244.96 68.69 246.38 68.00 C 247.79 67.31 248.48 67.08 250.25 65.75 C 252.02 64.42 254.92 62.27 257.00 60.00 C 259.08 57.73 261.27 54.83 262.75 52.12 C 264.23 49.42 265.25 45.71 265.88 43.75 C 266.50 41.79 266.50 41.29 266.50 40.38 C 266.50 39.46 267.12 39.67 265.88 38.25 C 264.62 36.83 261.96 33.90 259.00 31.88 C 256.04 29.85 251.12 27.60 248.12 26.12 C 245.12 24.65 244.33 24.17 241.00 23.00 C 237.67 21.83 231.46 19.79 228.12 19.12 C 224.79 18.46 222.65 18.85 221.00 19.00 C 219.35 19.15 219.46 19.04 218.25 20.00 Z" id="s-1-f-7"/>
<path d="M 221.00 19.00 C 219.19 19.27 218.46 19.79 217.25 20.75 C 216.04 21.71 214.29 23.15 213.75 24.75 C 213.21 26.35 213.62 28.69 214.00 30.38 C 214.38 32.06 215.02 33.21 216.00 34.88 C 216.98 36.54 218.58 38.23 219.88 40.38 C 221.17 42.52 222.75 45.44 223.75 47.75 C 224.75 50.06 225.38 51.21 225.88 54.25 C 226.38 57.29 226.44 63.94 226.75 66.00 C 227.06 68.06 226.25 66.81 227.75 66.62 C 229.25 66.44 233.56 65.52 235.75 64.88 C 237.94 64.23 239.27 63.56 240.88 62.75 C 242.48 61.94 244.19 60.81 245.38 60.00 C 246.56 59.19 246.54 59.31 248.00 57.88 C 249.46 56.44 252.65 53.21 254.12 51.38 C 255.60 49.54 256.08 48.40 256.88 46.88 C 257.67 45.35 258.23 44.38 258.88 42.25 C 259.52 40.12 260.73 35.85 260.75 34.12 C 260.77 32.40 261.10 33.21 259.00 31.88 C 256.90 30.54 251.56 27.77 248.12 26.12 C 244.69 24.48 241.71 23.17 238.38 22.00 C 235.04 20.83 231.02 19.62 228.12 19.12 C 225.23 18.62 222.81 18.73 221.00 19.00 Z" id="s-1-f-8"/>
<path d="M 221.00 19.00 C 219.19 19.27 218.42 19.85 217.25 20.75 C 216.08 21.65 214.60 23.62 214.00 24.38 C 213.40 25.12 213.65 24.38 213.62 25.25 C 213.60 26.12 213.48 28.02 213.88 29.62 C 214.27 31.23 215.00 33.08 216.00 34.88 C 217.00 36.67 218.58 38.23 219.88 40.38 C 221.17 42.52 222.75 45.44 223.75 47.75 C 224.75 50.06 225.40 51.58 225.88 54.25 C 226.35 56.92 226.35 62.04 226.62 63.75 C 226.90 65.46 226.23 64.65 227.50 64.50 C 228.77 64.35 232.29 63.50 234.25 62.88 C 236.21 62.25 237.48 61.73 239.25 60.75 C 241.02 59.77 243.25 58.27 244.88 57.00 C 246.50 55.73 247.69 54.56 249.00 53.12 C 250.31 51.69 251.60 50.04 252.75 48.38 C 253.90 46.71 255.04 44.94 255.88 43.12 C 256.71 41.31 257.29 39.27 257.75 37.50 C 258.21 35.73 258.67 33.58 258.62 32.50 C 258.58 31.42 259.25 32.06 257.50 31.00 C 255.75 29.94 251.31 27.62 248.12 26.12 C 244.94 24.62 241.71 23.17 238.38 22.00 C 235.04 20.83 231.02 19.62 228.12 19.12 C 225.23 18.62 222.81 18.73 221.00 19.00 Z" id="s-1-f-9"/>
</g>
<g id="s-2" clip-path="url(#c-s-2)">
<use href="#s-2-f-0"/>
<path d="M 425.88 186.62 C 425.54 183.85 424.71 180.92 423.88 178.50 C 423.04 176.08 421.60 173.42 420.88 172.12 C 420.15 170.83 420.25 171.10 419.50 170.75 C 418.75 170.40 417.94 170.17 416.38 170.00 C 414.81 169.83 413.12 169.73 410.12 169.75 C 407.12 169.77 402.17 169.62 398.38 170.12 C 394.58 170.62 396.35 170.92 387.38 172.75 C 378.40 174.58 355.10 178.96 344.50 181.12 C 333.90 183.29 333.71 183.79 323.75 185.75 C 313.79 187.71 291.52 191.56 284.75 192.88 C 277.98 194.19 285.52 193.25 283.12 193.62 C 280.73 194.00 275.46 194.38 270.38 195.12 C 265.29 195.88 255.83 197.52 252.62 198.12 C 249.42 198.73 252.12 198.67 251.12 198.75 C 250.12 198.83 247.60 198.50 246.62 198.62 C 245.65 198.75 246.23 199.33 245.25 199.50 C 244.27 199.67 241.71 199.46 240.75 199.62 C 239.79 199.79 240.52 200.33 239.50 200.50 C 238.48 200.67 235.69 200.46 234.62 200.62 C 233.56 200.79 234.10 201.35 233.12 201.50 C 232.15 201.65 229.85 201.29 228.75 201.50 C 227.65 201.71 256.69 198.15 226.50 202.75 C 196.31 207.35 78.04 224.58 47.62 229.12 C 17.21 233.67 44.85 229.71 44.00 230.00 C 43.15 230.29 43.00 230.46 42.50 230.88 C 42.00 231.29 41.27 231.88 41.00 232.50 C 40.73 233.12 40.71 233.83 40.88 234.62 C 41.04 235.42 41.15 236.06 42.00 237.25 C 42.85 238.44 44.23 240.19 46.00 241.75 C 47.77 243.31 50.50 245.29 52.62 246.62 C 54.75 247.96 56.48 248.88 58.75 249.75 C 61.02 250.62 64.04 251.44 66.25 251.88 C 68.46 252.31 69.77 252.33 72.00 252.38 C 74.23 252.42 77.21 252.40 79.62 252.12 C 82.04 251.85 81.48 252.10 86.50 250.75 C 91.52 249.40 99.04 246.79 109.75 244.00 C 120.46 241.21 137.10 237.00 150.75 234.00 C 164.40 231.00 178.08 228.33 191.62 226.00 C 205.17 223.67 213.56 222.17 232.00 220.00 C 250.44 217.83 270.77 215.10 302.25 213.00 C 333.73 210.90 400.79 208.52 420.88 207.38 C 440.96 206.23 422.08 207.27 422.75 206.12 C 423.42 204.98 424.35 202.33 424.88 200.50 C 425.40 198.67 425.71 197.44 425.88 195.12 C 426.04 192.81 426.21 189.40 425.88 186.62 Z" id="s-2-f-1"/>
<path d="M 380.88 191.75 C 380.58 188.73 379.67 186.42 379.00 184.38 C 378.33 182.33 377.65 180.92 376.88 179.50 C 376.10 178.08 375.04 176.54 374.38 175.88 C 373.71 175.21 381.31 173.85 372.88 175.50 C 364.44 177.15 338.44 182.85 323.75 185.75 C 309.06 188.65 291.52 191.56 284.75 192.88 C 277.98 194.19 285.52 193.25 283.12 193.62 C 280.73 194.00 275.46 194.38 270.38 195.12 C 265.29 195.88 255.83 197.52 252.62 198.12 C 249.42 198.73 252.12 198.67 251.12 198.75 C 250.12 198.83 247.60 198.50 246.62 198.62 C 245.65 198.75 246.23 199.33 245.25 199.50 C 244.27 199.67 241.71 199.46 240.75 199.62 C 239.79 199.79 240.52 200.33 239.50 200.50 C 238.48 200.67 235.69 200.46 234.62 200.62 C 233.56 200.79 234.10 201.35 233.12 201.50 C 232.15 201.65 229.85 201.29 228.75 201.50 C 227.65 201.71 256.69 198.15 226.50 202.75 C 196.31 207.35 78.04 224.58 47.62 229.12 C 17.21 233.67 44.85 229.71 44.00 230.00 C 43.15 230.29 43.00 230.46 42.50 230.88 C 42.00 231.29 41.27 231.88 41.00 232.50 C 40.73 233.12 40.71 233.83 40.88 234.62 C 41.04 235.42 41.15 236.06 42.00 237.25 C 42.85 238.44 44.23 240.19 46.00 241.75 C 47.77 243.31 50.50 245.29 52.62 246.62 C 54.75 247.96 56.48 248.88 58.75 249.75 C 61.02 250.62 64.04 251.44 66.25 251.88 C 68.46 252.31 69.77 252.33 72.00 252.38 C 74.23 252.42 77.21 252.40 79.62 252.12 C 82.04 251.85 81.48 252.10 86.50 250.75 C 91.52 249.40 99.04 246.79 109.75 244.00 C 120.46 241.21 138.81 236.69 150.75 234.00 C 162.69 231.31 171.48 229.71 181.38 227.88 C 191.27 226.04 198.77 224.65 210.12 223.00 C 221.48 221.35 236.83 219.35 249.50 218.00 C 262.17 216.65 277.33 215.71 286.12 214.88 C 294.92 214.04 287.00 213.92 302.25 213.00 C 317.50 212.08 364.85 210.08 377.62 209.38 C 390.40 208.67 378.52 209.17 378.88 208.75 C 379.23 208.33 379.44 207.92 379.75 206.88 C 380.06 205.83 380.56 205.02 380.75 202.50 C 380.94 199.98 381.17 194.77 380.88 191.75 Z" id="s-2-f-2"/>
<path d="M 327.62 200.00 C 327.35 197.46 326.54 193.75 325.88 191.50 C 325.21 189.25 324.19 187.42 323.62 186.50 C 323.06 185.58 323.06 186.06 322.50 186.00 C 321.94 185.94 326.54 184.98 320.25 186.12 C 313.96 187.27 290.94 191.62 284.75 192.88 C 278.56 194.12 285.52 193.25 283.12 193.62 C 280.73 194.00 275.46 194.38 270.38 195.12 C 265.29 195.88 255.83 197.52 252.62 198.12 C 249.42 198.73 252.12 198.67 251.12 198.75 C 250.12 198.83 247.60 198.50 246.62 198.62 C 245.65 198.75 246.23 199.33 245.25 199.50 C 244.27 199.67 241.71 199.46 240.75 199.62 C 239.79 199.79 240.52 200.33 239.50 200.50 C 238.48 200.67 235.69 200.46 234.62 200.62 C 233.56 200.79 234.10 201.35 233.12 201.50 C 232.15 201.65 229.98 201.27 228.75 201.50 C 227.52 201.73 255.94 198.27 225.75 202.88 C 195.56 207.48 77.92 224.60 47.62 229.12 C 17.33 233.65 44.85 229.71 44.00 230.00 C 43.15 230.29 43.00 230.46 42.50 230.88 C 42.00 231.29 41.27 231.88 41.00 232.50 C 40.73 233.12 40.71 233.83 40.88 234.62 C 41.04 235.42 41.15 236.06 42.00 237.25 C 42.85 238.44 44.23 240.19 46.00 241.75 C 47.77 243.31 50.50 245.29 52.62 246.62 C 54.75 247.96 56.48 248.88 58.75 249.75 C 61.02 250.62 64.04 251.44 66.25 251.88 C 68.46 252.31 69.77 252.33 72.00 252.38 C 74.23 252.42 77.21 252.40 79.62 252.12 C 82.04 251.85 81.48 252.10 86.50 250.75 C 91.52 249.40 99.04 246.79 109.75 244.00 C 120.46 241.21 136.10 237.17 150.75 234.00 C 165.40 230.83 184.08 227.33 197.62 225.00 C 211.17 222.67 221.54 221.35 232.00 220.00 C 242.46 218.65 254.96 217.40 260.38 216.88 C 265.79 216.35 257.52 217.52 264.50 216.88 C 271.48 216.23 291.98 213.83 302.25 213.00 C 312.52 212.17 322.02 212.17 326.12 211.88 C 330.23 211.58 326.65 212.10 326.88 211.25 C 327.10 210.40 327.38 208.62 327.50 206.75 C 327.62 204.88 327.90 202.54 327.62 200.00 Z" id="s-2-f-3"/>
<path d="M 250.88 206.12 C 250.52 203.31 249.40 200.71 249.00 199.50 C 248.60 198.29 248.92 199.02 248.50 198.88 C 248.08 198.73 247.04 198.52 246.50 198.62 C 245.96 198.73 246.21 199.33 245.25 199.50 C 244.29 199.67 241.71 199.46 240.75 199.62 C 239.79 199.79 240.52 200.33 239.50 200.50 C 238.48 200.67 235.69 200.46 234.62 200.62 C 233.56 200.79 234.10 201.35 233.12 201.50 C 232.15 201.65 229.85 201.29 228.75 201.50 C 227.65 201.71 256.69 198.15 226.50 202.75 C 196.31 207.35 78.04 224.58 47.62 229.12 C 17.21 233.67 44.85 229.71 44.00 230.00 C 43.15 230.29 43.00 230.46 42.50 230.88 C 42.00 231.29 41.27 231.88 41.00 232.50 C 40.73 233.12 40.71 233.83 40.88 234.62 C 41.04 235.42 41.15 236.06 42.00 237.25 C 42.85 238.44 44.23 240.19 46.00 241.75 C 47.77 243.31 50.50 245.29 52.62 246.62 C 54.75 247.96 56.48 248.88 58.75 249.75 C 61.02 250.62 64.04 251.44 66.25 251.88 C 68.46 252.31 69.77 252.33 72.00 252.38 C 74.23 252.42 77.21 252.40 79.62 252.12 C 82.04 251.85 81.48 252.10 86.50 250.75 C 91.52 249.40 102.60 245.96 109.75 244.00 C 116.90 242.04 119.31 241.33 129.38 239.00 C 139.44 236.67 156.67 232.67 170.12 230.00 C 183.58 227.33 196.75 225.00 210.12 223.00 C 223.50 221.00 243.54 219.10 250.38 218.00 C 257.21 216.90 251.04 218.35 251.12 216.38 C 251.21 214.40 251.23 208.94 250.88 206.12 Z" id="s-2-f-4"/>
<path d="M 197.88 219.12 C 197.71 217.42 197.38 215.94 196.88 214.12 C 196.38 212.31 195.40 209.33 194.88 208.25 C 194.35 207.17 194.65 207.67 193.75 207.62 C 192.85 207.58 209.71 204.98 189.50 208.00 C 169.29 211.02 96.15 222.23 72.50 225.75 C 48.85 229.27 52.38 228.42 47.62 229.12 C 42.88 229.83 44.85 229.71 44.00 230.00 C 43.15 230.29 43.00 230.46 42.50 230.88 C 42.00 231.29 41.27 231.88 41.00 232.50 C 40.73 233.12 40.71 233.83 40.88 234.62 C 41.04 235.42 41.15 236.06 42.00 237.25 C 42.85 238.44 44.23 240.19 46.00 241.75 C 47.77 243.31 50.50 245.29 52.62 246.62 C 54.75 247.96 56.48 248.88 58.75 249.75 C 61.02 250.62 64.04 251.44 66.25 251.88 C 68.46 252.31 69.77 252.33 72.00 252.38 C 74.23 252.42 77.21 252.40 79.62 252.12 C 82.04 251.85 81.48 252.10 86.50 250.75 C 91.52 249.40 99.04 246.79 109.75 244.00 C 120.46 241.21 138.81 236.69 150.75 234.00 C 162.69 231.31 173.79 229.29 181.38 227.88 C 188.96 226.46 193.50 226.08 196.25 225.50 C 199.00 224.92 197.60 225.44 197.88 224.38 C 198.15 223.31 198.04 220.83 197.88 219.12 Z" id="s-2-f-5"/>
<path d="M 152.62 229.75 C 152.52 228.19 152.33 225.83 151.88 223.75 C 151.42 221.67 150.44 218.73 149.88 217.25 C 149.31 215.77 149.04 215.33 148.50 214.88 C 147.96 214.42 163.44 212.12 146.62 214.50 C 129.81 216.88 64.73 226.54 47.62 229.12 C 30.52 231.71 44.85 229.71 44.00 230.00 C 43.15 230.29 43.00 230.46 42.50 230.88 C 42.00 231.29 41.27 231.88 41.00 232.50 C 40.73 233.12 40.71 233.83 40.88 234.62 C 41.04 235.42 41.15 236.06 42.00 237.25 C 42.85 238.44 44.23 240.19 46.00 241.75 C 47.77 243.31 50.50 245.29 52.62 246.62 C 54.75 247.96 56.62 248.90 58.75 249.75 C 60.88 250.60 62.40 251.31 65.38 251.75 C 68.35 252.19 73.10 252.54 76.62 252.38 C 80.15 252.21 80.98 252.15 86.50 250.75 C 92.02 249.35 101.21 246.29 109.75 244.00 C 118.29 241.71 131.15 238.56 137.75 237.00 C 144.35 235.44 146.92 235.27 149.38 234.62 C 151.83 233.98 151.96 233.94 152.50 233.12 C 153.04 232.31 152.73 231.31 152.62 229.75 Z" id="s-2-f-6"/>
<path d="M 109.00 243.38 C 109.25 242.38 109.31 240.73 109.25 238.75 C 109.19 236.77 109.21 234.12 108.62 231.50 C 108.04 228.88 106.40 224.69 105.75 223.00 C 105.10 221.31 105.08 221.71 104.75 221.38 C 104.42 221.04 113.27 219.71 103.75 221.00 C 94.23 222.29 57.67 227.58 47.62 229.12 C 37.58 230.67 44.50 229.83 43.50 230.25 C 42.50 230.67 42.06 231.15 41.62 231.62 C 41.19 232.10 40.98 232.52 40.88 233.12 C 40.77 233.73 40.81 234.56 41.00 235.25 C 41.19 235.94 41.52 236.52 42.00 237.25 C 42.48 237.98 42.83 238.58 43.88 239.62 C 44.92 240.67 46.79 242.33 48.25 243.50 C 49.71 244.67 50.88 245.58 52.62 246.62 C 54.38 247.67 56.62 248.90 58.75 249.75 C 60.88 250.60 63.17 251.31 65.38 251.75 C 67.58 252.19 69.19 252.38 72.00 252.38 C 74.81 252.38 76.29 253.02 82.25 251.75 C 88.21 250.48 103.29 246.15 107.75 244.75 C 112.21 243.35 108.75 244.38 109.00 243.38 Z" id="s-2-f-7"/>
<path d="M 90.62 237.25 C 90.77 234.04 90.08 230.31 89.75 228.25 C 89.42 226.19 89.02 225.67 88.62 224.88 C 88.23 224.08 94.21 222.79 87.38 223.50 C 80.54 224.21 54.94 228.00 47.62 229.12 C 40.31 230.25 44.50 229.83 43.50 230.25 C 42.50 230.67 42.06 231.15 41.62 231.62 C 41.19 232.10 40.94 232.42 40.88 233.12 C 40.81 233.83 40.75 234.79 41.25 235.88 C 41.75 236.96 43.08 238.65 43.88 239.62 C 44.67 240.60 44.54 240.58 46.00 241.75 C 47.46 242.92 50.50 245.29 52.62 246.62 C 54.75 247.96 56.62 248.90 58.75 249.75 C 60.88 250.60 63.17 251.31 65.38 251.75 C 67.58 252.19 69.62 252.31 72.00 252.38 C 74.38 252.44 77.17 252.42 79.62 252.12 C 82.08 251.83 85.38 251.04 86.75 250.62 C 88.12 250.21 87.52 250.15 87.88 249.62 C 88.23 249.10 88.42 249.56 88.88 247.50 C 89.33 245.44 90.48 240.46 90.62 237.25 Z" id="s-2-f-8"/>
<path d="M 82.88 228.50 C 82.75 226.15 82.29 227.79 82.12 227.25 C 81.96 226.71 82.25 225.71 81.88 225.25 C 81.50 224.79 85.58 223.85 79.88 224.50 C 74.17 225.15 53.60 228.21 47.62 229.12 C 41.65 230.04 44.85 229.71 44.00 230.00 C 43.15 230.29 43.00 230.46 42.50 230.88 C 42.00 231.29 41.27 231.88 41.00 232.50 C 40.73 233.12 40.71 233.83 40.88 234.62 C 41.04 235.42 41.15 236.06 42.00 237.25 C 42.85 238.44 44.23 240.19 46.00 241.75 C 47.77 243.31 50.50 245.29 52.62 246.62 C 54.75 247.96 56.48 248.88 58.75 249.75 C 61.02 250.62 64.04 251.44 66.25 251.88 C 68.46 252.31 70.00 252.31 72.00 252.38 C 74.00 252.44 76.98 252.48 78.25 252.25 C 79.52 252.02 79.19 251.62 79.62 251.00 C 80.06 250.38 80.33 250.10 80.88 248.50 C 81.42 246.90 82.54 244.71 82.88 241.38 C 83.21 238.04 83.00 230.85 82.88 228.50 Z" id="s-2-f-9"/>
</g>
<g id="s-3" clip-path="url(#c-s-3)">
<use href="#s-3-f-0"/>
<path d="M 366.62 59.25 C 364.40 57.17 363.69 56.98 362.12 56.12 C 360.56 55.27 359.02 54.58 357.25 54.12 C 355.48 53.67 352.94 53.40 351.50 53.38 C 350.06 53.35 349.42 53.65 348.62 54.00 C 347.83 54.35 347.29 54.77 346.75 55.50 C 346.21 56.23 345.65 57.33 345.38 58.38 C 345.10 59.42 345.02 59.73 345.12 61.75 C 345.23 63.77 345.60 68.06 346.00 70.50 C 346.40 72.94 347.35 74.06 347.50 76.38 C 347.65 78.69 347.50 81.17 346.88 84.38 C 346.25 87.58 345.27 91.38 343.75 95.62 C 342.23 99.88 340.25 104.69 337.75 109.88 C 335.25 115.06 332.12 120.88 328.75 126.75 C 325.38 132.62 323.15 136.54 317.50 145.12 C 311.85 153.71 300.31 170.54 294.88 178.25 C 289.44 185.96 288.35 187.23 284.88 191.38 C 281.40 195.52 276.06 200.67 274.00 203.12 C 271.94 205.58 272.98 205.54 272.50 206.12 C 272.02 206.71 273.10 204.44 271.12 206.62 C 269.15 208.81 268.73 210.58 260.62 219.25 C 252.52 227.92 234.38 246.75 222.50 258.62 C 210.62 270.50 198.88 281.71 189.38 290.50 C 179.88 299.29 173.23 304.81 165.50 311.38 C 157.77 317.94 151.19 323.35 143.00 329.88 C 134.81 336.40 125.54 343.58 116.38 350.50 C 107.21 357.42 92.75 367.65 88.00 371.38 C 83.25 375.10 87.38 371.65 87.88 372.88 C 88.38 374.10 89.62 376.75 91.00 378.75 C 92.38 380.75 94.94 383.90 96.12 384.88 C 97.31 385.85 94.96 386.31 98.12 384.62 C 101.29 382.94 106.85 379.94 115.12 374.75 C 123.40 369.56 131.98 365.35 147.75 353.50 C 163.52 341.65 195.06 316.02 209.75 303.62 C 224.44 291.23 228.27 286.46 235.88 279.12 C 243.48 271.79 247.69 267.58 255.38 259.62 C 263.06 251.67 275.06 238.94 282.00 231.38 C 288.94 223.81 293.98 217.54 297.00 214.25 C 300.02 210.96 299.21 212.62 300.12 211.62 C 301.04 210.62 301.52 209.42 302.50 208.25 C 303.48 207.08 305.15 205.67 306.00 204.62 C 306.85 203.58 306.62 203.17 307.62 202.00 C 308.62 200.83 311.02 198.75 312.00 197.62 C 312.98 196.50 312.38 196.58 313.50 195.25 C 314.62 193.92 316.69 192.25 318.75 189.62 C 320.81 187.00 319.79 187.54 325.88 179.50 C 331.96 171.46 347.00 151.92 355.25 141.38 C 363.50 130.83 370.27 122.38 375.38 116.25 C 380.48 110.12 383.83 107.04 385.88 104.62 C 387.92 102.21 387.15 102.88 387.62 101.75 C 388.10 100.62 388.62 99.27 388.75 97.88 C 388.88 96.48 388.54 94.54 388.38 93.38 C 388.21 92.21 388.52 92.79 387.75 90.88 C 386.98 88.96 385.08 84.58 383.75 81.88 C 382.42 79.17 381.12 76.83 379.75 74.62 C 378.38 72.42 377.69 71.19 375.50 68.62 C 373.31 66.06 368.85 61.33 366.62 59.25 Z" id="s-3-f-1"/>
<path d="M 366.62 59.25 C 364.50 57.29 363.69 56.98 362.12 56.12 C 360.56 55.27 359.02 54.58 357.25 54.12 C 355.48 53.67 352.94 53.40 351.50 53.38 C 350.06 53.35 349.42 53.65 348.62 54.00 C 347.83 54.35 347.29 54.77 346.75 55.50 C 346.21 56.23 345.65 57.33 345.38 58.38 C 345.10 59.42 345.02 59.73 345.12 61.75 C 345.23 63.77 345.60 68.06 346.00 70.50 C 346.40 72.94 347.35 74.06 347.50 76.38 C 347.65 78.69 347.50 81.17 346.88 84.38 C 346.25 87.58 345.27 91.38 343.75 95.62 C 342.23 99.88 340.25 104.69 337.75 109.88 C 335.25 115.06 332.12 120.88 328.75 126.75 C 325.38 132.62 323.15 136.54 317.50 145.12 C 311.85 153.71 300.31 170.54 294.88 178.25 C 289.44 185.96 288.35 187.23 284.88 191.38 C 281.40 195.52 276.06 200.67 274.00 203.12 C 271.94 205.58 272.98 205.54 272.50 206.12 C 272.02 206.71 273.10 204.44 271.12 206.62 C 269.15 208.81 267.50 211.81 260.62 219.25 C 253.75 226.69 239.15 241.85 229.88 251.25 C 220.60 260.65 213.42 267.58 205.00 275.62 C 196.58 283.67 186.65 292.96 179.38 299.50 C 172.10 306.04 168.10 309.31 161.38 314.88 C 154.65 320.44 142.77 329.56 139.00 332.88 C 135.23 336.19 138.44 333.75 138.75 334.75 C 139.06 335.75 139.85 337.31 140.88 338.88 C 141.90 340.44 143.15 342.33 144.88 344.12 C 146.60 345.92 150.00 348.69 151.25 349.62 C 152.50 350.56 142.62 357.42 152.38 349.75 C 162.12 342.08 195.83 315.40 209.75 303.62 C 223.67 291.85 228.73 285.98 235.88 279.12 C 243.02 272.27 244.94 270.46 252.62 262.50 C 260.31 254.54 274.60 239.42 282.00 231.38 C 289.40 223.33 293.98 217.54 297.00 214.25 C 300.02 210.96 299.21 212.62 300.12 211.62 C 301.04 210.62 301.52 209.42 302.50 208.25 C 303.48 207.08 305.15 205.67 306.00 204.62 C 306.85 203.58 306.62 203.17 307.62 202.00 C 308.62 200.83 311.02 198.75 312.00 197.62 C 312.98 196.50 312.38 196.58 313.50 195.25 C 314.62 193.92 316.29 192.77 318.75 189.62 C 321.21 186.48 320.90 186.02 328.25 176.38 C 335.60 166.73 354.60 142.27 362.88 131.75 C 371.15 121.23 374.04 117.77 377.88 113.25 C 381.71 108.73 384.25 106.54 385.88 104.62 C 387.50 102.71 387.15 102.88 387.62 101.75 C 388.10 100.62 388.62 99.27 388.75 97.88 C 388.88 96.48 388.71 94.94 388.38 93.38 C 388.04 91.81 388.19 91.62 386.75 88.50 C 385.31 85.38 381.73 78.06 379.75 74.62 C 377.77 71.19 377.06 70.44 374.88 67.88 C 372.69 65.31 368.75 61.21 366.62 59.25 Z" id="s-3-f-2"/>
<path d="M 362.12 56.12 C 360.42 55.15 359.02 54.58 357.25 54.12 C 355.48 53.67 352.94 53.40 351.50 53.38 C 350.06 53.35 349.42 53.65 348.62 54.00 C 347.83 54.35 347.29 54.77 346.75 55.50 C 346.21 56.23 345.65 57.33 345.38 58.38 C 345.10 59.42 345.02 59.73 345.12 61.75 C 345.23 63.77 345.62 68.19 346.00 70.50 C 346.38 72.81 347.12 74.31 347.38 75.62 C 347.62 76.94 347.58 76.92 347.50 78.38 C 347.42 79.83 347.17 82.58 346.88 84.38 C 346.58 86.17 346.60 86.38 345.75 89.12 C 344.90 91.88 343.75 96.10 341.75 100.88 C 339.75 105.65 336.75 112.04 333.75 117.75 C 330.75 123.46 327.56 128.88 323.75 135.12 C 319.94 141.38 316.02 147.60 310.88 155.25 C 305.73 162.90 297.21 174.98 292.88 181.00 C 288.54 187.02 288.02 187.69 284.88 191.38 C 281.73 195.06 276.06 200.67 274.00 203.12 C 271.94 205.58 272.98 205.54 272.50 206.12 C 272.02 206.71 273.10 204.44 271.12 206.62 C 269.15 208.81 268.73 210.58 260.62 219.25 C 252.52 227.92 233.46 247.60 222.50 258.62 C 211.54 269.65 201.48 279.10 194.88 285.38 C 188.27 291.65 184.88 294.19 182.88 296.25 C 180.88 298.31 182.25 296.46 182.88 297.75 C 183.50 299.04 185.33 302.25 186.62 304.00 C 187.92 305.75 188.94 306.75 190.62 308.25 C 192.31 309.75 195.48 312.23 196.75 313.00 C 198.02 313.77 196.08 314.44 198.25 312.88 C 200.42 311.31 203.48 309.25 209.75 303.62 C 216.02 298.00 228.27 286.46 235.88 279.12 C 243.48 271.79 247.69 267.58 255.38 259.62 C 263.06 251.67 275.06 238.94 282.00 231.38 C 288.94 223.81 293.98 217.54 297.00 214.25 C 300.02 210.96 299.21 212.62 300.12 211.62 C 301.04 210.62 301.52 209.42 302.50 208.25 C 303.48 207.08 305.15 205.67 306.00 204.62 C 306.85 203.58 306.62 203.17 307.62 202.00 C 308.62 200.83 311.02 198.75 312.00 197.62 C 312.98 196.50 312.38 196.58 313.50 195.25 C 314.62 193.92 316.29 192.77 318.75 189.62 C 321.21 186.48 319.50 187.77 328.25 176.38 C 337.00 164.98 361.54 133.35 371.25 121.25 C 380.96 109.15 383.60 107.48 386.50 103.75 C 389.40 100.02 388.27 100.38 388.62 98.88 C 388.98 97.38 388.77 96.08 388.62 94.75 C 388.48 93.42 388.56 93.02 387.75 90.88 C 386.94 88.73 385.08 84.58 383.75 81.88 C 382.42 79.17 381.23 76.96 379.75 74.62 C 378.27 72.29 376.92 70.31 374.88 67.88 C 372.83 65.44 369.62 61.96 367.50 60.00 C 365.38 58.04 363.83 57.10 362.12 56.12 Z" id="s-3-f-3"/>
<path d="M 362.12 56.12 C 360.42 55.15 358.79 54.58 357.25 54.12 C 355.71 53.67 354.31 53.40 352.88 53.38 C 351.44 53.35 349.65 53.65 348.62 54.00 C 347.60 54.35 347.29 54.77 346.75 55.50 C 346.21 56.23 345.65 57.46 345.38 58.38 C 345.10 59.29 345.02 58.98 345.12 61.00 C 345.23 63.02 345.60 67.94 346.00 70.50 C 346.40 73.06 347.35 74.06 347.50 76.38 C 347.65 78.69 347.17 82.25 346.88 84.38 C 346.58 86.50 346.44 86.79 345.75 89.12 C 345.06 91.46 344.08 94.92 342.75 98.38 C 341.42 101.83 340.08 105.15 337.75 109.88 C 335.42 114.60 333.23 119.19 328.75 126.75 C 324.27 134.31 316.52 146.67 310.88 155.25 C 305.23 163.83 298.94 172.56 294.88 178.25 C 290.81 183.94 289.98 185.23 286.50 189.38 C 283.02 193.52 276.33 200.33 274.00 203.12 C 271.67 205.92 272.98 205.54 272.50 206.12 C 272.02 206.71 273.10 204.44 271.12 206.62 C 269.15 208.81 265.56 213.81 260.62 219.25 C 255.69 224.69 244.73 235.67 241.50 239.25 C 238.27 242.83 241.04 240.04 241.25 240.75 C 241.46 241.46 241.75 242.15 242.75 243.50 C 243.75 244.85 245.56 247.19 247.25 248.88 C 248.94 250.56 251.31 252.44 252.88 253.62 C 254.44 254.81 255.75 255.58 256.62 256.00 C 257.50 256.42 257.62 256.27 258.12 256.12 C 258.62 255.98 255.65 259.25 259.62 255.12 C 263.60 251.00 275.77 238.19 282.00 231.38 C 288.23 224.56 293.98 217.54 297.00 214.25 C 300.02 210.96 299.21 212.62 300.12 211.62 C 301.04 210.62 301.52 209.42 302.50 208.25 C 303.48 207.08 305.15 205.67 306.00 204.62 C 306.85 203.58 306.62 203.17 307.62 202.00 C 308.62 200.83 311.02 198.75 312.00 197.62 C 312.98 196.50 312.38 196.58 313.50 195.25 C 314.62 193.92 316.69 192.25 318.75 189.62 C 320.81 187.00 319.79 187.54 325.88 179.50 C 331.96 171.46 347.00 151.92 355.25 141.38 C 363.50 130.83 370.27 122.38 375.38 116.25 C 380.48 110.12 383.83 107.04 385.88 104.62 C 387.92 102.21 387.15 102.88 387.62 101.75 C 388.10 100.62 388.58 99.04 388.75 97.88 C 388.92 96.71 388.79 95.92 388.62 94.75 C 388.46 93.58 389.06 93.94 387.75 90.88 C 386.44 87.81 382.90 80.21 380.75 76.38 C 378.60 72.54 377.08 70.60 374.88 67.88 C 372.67 65.15 369.62 61.96 367.50 60.00 C 365.38 58.04 363.83 57.10 362.12 56.12 Z" id="s-3-f-4"/>
<path d="M 357.25 54.12 C 355.48 53.67 352.94 53.40 351.50 53.38 C 350.06 53.35 349.42 53.65 348.62 54.00 C 347.83 54.35 347.29 54.77 346.75 55.50 C 346.21 56.23 345.65 57.33 345.38 58.38 C 345.10 59.42 345.02 59.73 345.12 61.75 C 345.23 63.77 345.60 68.06 346.00 70.50 C 346.40 72.94 347.35 74.06 347.50 76.38 C 347.65 78.69 347.50 81.17 346.88 84.38 C 346.25 87.58 345.27 91.38 343.75 95.62 C 342.23 99.88 340.25 104.69 337.75 109.88 C 335.25 115.06 332.90 119.69 328.75 126.75 C 324.60 133.81 318.85 143.21 312.88 152.25 C 306.90 161.29 297.54 174.48 292.88 181.00 C 288.21 187.52 286.88 189.00 284.88 191.38 C 282.88 193.75 281.58 194.44 280.88 195.25 C 280.17 196.06 280.81 195.96 280.62 196.25 C 280.44 196.54 279.90 196.58 279.75 197.00 C 279.60 197.42 279.60 198.33 279.75 198.75 C 279.90 199.17 280.48 199.25 280.62 199.50 C 280.77 199.75 280.46 199.90 280.62 200.25 C 280.79 200.60 280.71 200.67 281.62 201.62 C 282.54 202.58 284.50 204.73 286.12 206.00 C 287.75 207.27 290.15 208.40 291.38 209.25 C 292.60 210.10 292.83 210.79 293.50 211.12 C 294.17 211.46 294.96 211.10 295.38 211.25 C 295.79 211.40 295.54 211.77 296.00 212.00 C 296.46 212.23 297.44 212.69 298.12 212.62 C 298.81 212.56 299.40 212.35 300.12 211.62 C 300.85 210.90 301.52 209.42 302.50 208.25 C 303.48 207.08 305.15 205.67 306.00 204.62 C 306.85 203.58 306.62 203.17 307.62 202.00 C 308.62 200.83 311.02 198.75 312.00 197.62 C 312.98 196.50 312.38 196.58 313.50 195.25 C 314.62 193.92 316.69 192.25 318.75 189.62 C 320.81 187.00 319.79 187.54 325.88 179.50 C 331.96 171.46 347.00 151.92 355.25 141.38 C 363.50 130.83 370.27 122.38 375.38 116.25 C 380.48 110.12 383.83 107.04 385.88 104.62 C 387.92 102.21 387.15 102.88 387.62 101.75 C 388.10 100.62 388.58 99.04 388.75 97.88 C 388.92 96.71 388.79 95.92 388.62 94.75 C 388.46 93.58 388.56 93.02 387.75 90.88 C 386.94 88.73 385.08 84.58 383.75 81.88 C 382.42 79.17 381.23 76.96 379.75 74.62 C 378.27 72.29 376.92 70.31 374.88 67.88 C 372.83 65.44 369.62 61.96 367.50 60.00 C 365.38 58.04 363.83 57.10 362.12 56.12 C 360.42 55.15 359.02 54.58 357.25 54.12 Z" id="s-3-f-5"/>
<path d="M 352.88 53.38 C 351.31 53.31 349.65 53.65 348.62 54.00 C 347.60 54.35 347.29 54.77 346.75 55.50 C 346.21 56.23 345.62 57.04 345.38 58.38 C 345.12 59.71 344.90 60.17 345.25 63.50 C 345.60 66.83 347.25 74.79 347.50 78.38 C 347.75 81.96 347.54 81.67 346.75 85.00 C 345.96 88.33 344.92 92.92 342.75 98.38 C 340.58 103.83 337.96 109.94 333.75 117.75 C 329.54 125.56 320.19 140.52 317.50 145.25 C 314.81 149.98 317.02 145.27 317.62 146.12 C 318.23 146.98 319.46 148.79 321.12 150.38 C 322.79 151.96 325.52 154.21 327.62 155.62 C 329.73 157.04 331.75 158.08 333.75 158.88 C 335.75 159.67 338.38 160.23 339.62 160.38 C 340.88 160.52 335.98 166.27 341.25 159.75 C 346.52 153.23 364.56 129.67 371.25 121.25 C 377.94 112.83 378.94 112.02 381.38 109.25 C 383.81 106.48 384.83 105.88 385.88 104.62 C 386.92 103.38 387.15 102.88 387.62 101.75 C 388.10 100.62 388.58 99.04 388.75 97.88 C 388.92 96.71 388.79 95.92 388.62 94.75 C 388.46 93.58 388.42 92.71 387.75 90.88 C 387.08 89.04 385.96 86.46 384.62 83.75 C 383.29 81.04 381.27 77.15 379.75 74.62 C 378.23 72.10 377.54 71.06 375.50 68.62 C 373.46 66.19 369.54 61.96 367.50 60.00 C 365.46 58.04 364.83 57.81 363.25 56.88 C 361.67 55.94 359.73 54.96 358.00 54.38 C 356.27 53.79 354.44 53.44 352.88 53.38 Z" id="s-3-f-6"/>
<path d="M 351.50 53.38 C 350.06 53.35 349.42 53.65 348.62 54.00 C 347.83 54.35 347.29 54.77 346.75 55.50 C 346.21 56.23 345.65 57.33 345.38 58.38 C 345.10 59.42 345.02 59.73 345.12 61.75 C 345.23 63.77 345.60 68.06 346.00 70.50 C 346.40 72.94 347.35 74.06 347.50 76.38 C 347.65 78.69 347.50 81.17 346.88 84.38 C 346.25 87.58 344.98 92.02 343.75 95.62 C 342.52 99.23 340.79 103.12 339.50 106.00 C 338.21 108.88 336.60 111.42 336.00 112.88 C 335.40 114.33 334.85 113.23 335.88 114.75 C 336.90 116.27 340.33 120.23 342.12 122.00 C 343.92 123.77 344.71 124.21 346.62 125.38 C 348.54 126.54 351.42 128.10 353.62 129.00 C 355.83 129.90 358.31 130.42 359.88 130.75 C 361.44 131.08 362.10 131.29 363.00 131.00 C 363.90 130.71 362.77 131.96 365.25 129.00 C 367.73 126.04 374.33 117.46 377.88 113.25 C 381.42 109.04 384.71 106.15 386.50 103.75 C 388.29 101.35 388.27 100.38 388.62 98.88 C 388.98 97.38 388.77 96.08 388.62 94.75 C 388.48 93.42 388.56 93.02 387.75 90.88 C 386.94 88.73 385.08 84.58 383.75 81.88 C 382.42 79.17 381.23 76.96 379.75 74.62 C 378.27 72.29 376.92 70.31 374.88 67.88 C 372.83 65.44 369.62 61.96 367.50 60.00 C 365.38 58.04 363.83 57.10 362.12 56.12 C 360.42 55.15 359.02 54.58 357.25 54.12 C 355.48 53.67 352.94 53.40 351.50 53.38 Z" id="s-3-f-7"/>
<path d="M 348.62 54.00 C 347.60 54.35 347.31 54.62 346.75 55.50 C 346.19 56.38 345.38 56.75 345.25 59.25 C 345.12 61.75 345.65 67.77 346.00 70.50 C 346.35 73.23 347.12 74.31 347.38 75.62 C 347.62 76.94 347.60 76.81 347.50 78.38 C 347.40 79.94 347.38 82.12 346.75 85.00 C 346.12 87.88 344.54 93.19 343.75 95.62 C 342.96 98.06 342.27 98.67 342.00 99.62 C 341.73 100.58 340.98 100.67 342.12 101.38 C 343.27 102.08 346.46 103.31 348.88 103.88 C 351.29 104.44 354.02 104.77 356.62 104.75 C 359.23 104.73 361.83 104.40 364.50 103.75 C 367.17 103.10 370.67 101.69 372.62 100.88 C 374.58 100.06 374.81 99.85 376.25 98.88 C 377.69 97.90 379.85 96.21 381.25 95.00 C 382.65 93.79 383.75 92.65 384.62 91.62 C 385.50 90.60 386.19 89.48 386.50 88.88 C 386.81 88.27 386.96 89.17 386.50 88.00 C 386.04 86.83 384.88 84.10 383.75 81.88 C 382.62 79.65 381.12 76.83 379.75 74.62 C 378.38 72.42 377.46 70.98 375.50 68.62 C 373.54 66.27 370.23 62.58 368.00 60.50 C 365.77 58.42 363.92 57.19 362.12 56.12 C 360.33 55.06 358.79 54.58 357.25 54.12 C 355.71 53.67 354.31 53.40 352.88 53.38 C 351.44 53.35 349.65 53.65 348.62 54.00 Z" id="s-3-f-8"/>
<path d="M 351.50 53.38 C 350.06 53.35 349.42 53.65 348.62 54.00 C 347.83 54.35 347.29 54.77 346.75 55.50 C 346.21 56.23 345.62 57.04 345.38 58.38 C 345.12 59.71 344.90 60.17 345.25 63.50 C 345.60 66.83 347.25 74.79 347.50 78.38 C 347.75 81.96 347.42 81.98 346.75 85.00 C 346.08 88.02 343.29 94.35 343.50 96.50 C 343.71 98.65 345.79 97.65 348.00 97.88 C 350.21 98.10 353.92 98.23 356.75 97.88 C 359.58 97.52 362.38 96.75 365.00 95.75 C 367.62 94.75 370.06 93.56 372.50 91.88 C 374.94 90.19 377.90 87.40 379.62 85.62 C 381.35 83.85 382.33 82.12 382.88 81.25 C 383.42 80.38 383.40 81.48 382.88 80.38 C 382.35 79.27 380.98 76.58 379.75 74.62 C 378.52 72.67 377.54 71.06 375.50 68.62 C 373.46 66.19 369.73 62.08 367.50 60.00 C 365.27 57.92 363.83 57.10 362.12 56.12 C 360.42 55.15 359.02 54.58 357.25 54.12 C 355.48 53.67 352.94 53.40 351.50 53.38 Z" id="s-3-f-9"/>
</g>
<g id="s-4" clip-path="url(#c-s-4)">
<use href="#s-4-f-0"/>
<path d="M 382.75 277.88 C 382.35 276.56 381.33 275.02 379.88 273.25 C 378.42 271.48 375.44 268.62 374.00 267.25 C 372.56 265.88 373.33 266.38 371.25 265.00 C 369.17 263.62 364.10 260.50 361.50 259.00 C 358.90 257.50 357.88 256.98 355.62 256.00 C 353.38 255.02 350.40 253.81 348.00 253.12 C 345.60 252.44 343.00 252.04 341.25 251.88 C 339.50 251.71 338.54 251.69 337.50 252.12 C 336.46 252.56 335.65 253.12 335.00 254.50 C 334.35 255.88 334.31 258.56 333.62 260.38 C 332.94 262.19 332.10 263.67 330.88 265.38 C 329.65 267.08 328.40 268.58 326.25 270.62 C 324.10 272.67 322.00 274.77 318.00 277.62 C 314.00 280.48 307.60 284.60 302.25 287.75 C 296.90 290.90 292.94 293.00 285.88 296.50 C 278.81 300.00 268.08 305.12 259.88 308.75 C 251.67 312.38 240.65 316.52 236.62 318.25 C 232.60 319.98 235.92 318.81 235.75 319.12 C 235.58 319.44 235.44 319.04 235.62 320.12 C 235.81 321.21 236.35 323.98 236.88 325.62 C 237.40 327.27 238.23 329.17 238.75 330.00 C 239.27 330.83 239.56 330.52 240.00 330.62 C 240.44 330.73 236.83 331.46 241.38 330.62 C 245.92 329.79 258.83 327.60 267.25 325.62 C 275.67 323.65 282.15 321.92 291.88 318.75 C 301.60 315.58 316.44 310.15 325.62 306.62 C 334.81 303.10 340.46 300.52 347.00 297.62 C 353.54 294.73 359.62 291.40 364.88 289.25 C 370.12 287.10 375.94 285.71 378.50 284.75 C 381.06 283.79 379.62 284.10 380.25 283.50 C 380.88 282.90 381.83 282.06 382.25 281.12 C 382.67 280.19 383.15 279.19 382.75 277.88 Z" id="s-4-f-1"/>
<path d="M 382.75 277.88 C 382.35 276.56 381.33 275.02 379.88 273.25 C 378.42 271.48 375.44 268.62 374.00 267.25 C 372.56 265.88 373.33 266.38 371.25 265.00 C 369.17 263.62 364.10 260.50 361.50 259.00 C 358.90 257.50 357.88 256.98 355.62 256.00 C 353.38 255.02 350.40 253.81 348.00 253.12 C 345.60 252.44 343.00 252.04 341.25 251.88 C 339.50 251.71 338.54 251.69 337.50 252.12 C 336.46 252.56 335.65 253.12 335.00 254.50 C 334.35 255.88 334.31 258.56 333.62 260.38 C 332.94 262.19 332.10 263.67 330.88 265.38 C 329.65 267.08 328.40 268.58 326.25 270.62 C 324.10 272.67 321.17 275.27 318.00 277.62 C 314.83 279.98 311.38 282.23 307.25 284.75 C 303.12 287.27 298.21 290.10 293.25 292.75 C 288.29 295.40 283.56 297.75 277.50 300.62 C 271.44 303.50 260.42 308.10 256.88 310.00 C 253.33 311.90 256.08 310.52 256.25 312.00 C 256.42 313.48 257.08 316.67 257.88 318.88 C 258.67 321.08 260.33 324.02 261.00 325.25 C 261.67 326.48 261.52 326.04 261.88 326.25 C 262.23 326.46 260.40 327.08 263.12 326.50 C 265.85 325.92 273.46 324.04 278.25 322.75 C 283.04 321.46 283.98 321.44 291.88 318.75 C 299.77 316.06 316.44 310.15 325.62 306.62 C 334.81 303.10 340.46 300.52 347.00 297.62 C 353.54 294.73 359.62 291.40 364.88 289.25 C 370.12 287.10 375.94 285.71 378.50 284.75 C 381.06 283.79 379.62 284.10 380.25 283.50 C 380.88 282.90 381.83 282.06 382.25 281.12 C 382.67 280.19 383.15 279.19 382.75 277.88 Z" id="s-4-f-2"/>
<path d="M 382.75 277.88 C 382.35 276.56 381.33 275.02 379.88 273.25 C 378.42 271.48 375.44 268.62 374.00 267.25 C 372.56 265.88 373.33 266.38 371.25 265.00 C 369.17 263.62 364.10 260.50 361.50 259.00 C 358.90 257.50 357.88 256.98 355.62 256.00 C 353.38 255.02 350.40 253.81 348.00 253.12 C 345.60 252.44 343.00 252.04 341.25 251.88 C 339.50 251.71 338.54 251.69 337.50 252.12 C 336.46 252.56 335.65 253.12 335.00 254.50 C 334.35 255.88 334.31 258.56 333.62 260.38 C 332.94 262.19 331.81 263.96 330.88 265.38 C 329.94 266.79 329.35 267.48 328.00 268.88 C 326.65 270.27 324.71 272.08 322.75 273.75 C 320.79 275.42 319.67 276.54 316.25 278.88 C 312.83 281.21 306.77 285.08 302.25 287.75 C 297.73 290.42 293.12 292.83 289.12 294.88 C 285.12 296.92 280.15 298.94 278.25 300.00 C 276.35 301.06 277.77 300.54 277.75 301.25 C 277.73 301.96 277.60 302.38 278.12 304.25 C 278.65 306.12 279.88 310.25 280.88 312.50 C 281.88 314.75 283.21 316.50 284.12 317.75 C 285.04 319.00 285.56 319.69 286.38 320.00 C 287.19 320.31 286.08 320.50 289.00 319.62 C 291.92 318.75 298.25 316.73 303.88 314.75 C 309.50 312.77 315.56 310.60 322.75 307.75 C 329.94 304.90 339.98 300.71 347.00 297.62 C 354.02 294.54 359.62 291.40 364.88 289.25 C 370.12 287.10 375.94 285.71 378.50 284.75 C 381.06 283.79 379.62 284.10 380.25 283.50 C 380.88 282.90 381.83 282.06 382.25 281.12 C 382.67 280.19 383.15 279.19 382.75 277.88 Z" id="s-4-f-3"/>
<path d="M 382.75 277.88 C 382.35 276.56 381.33 275.02 379.88 273.25 C 378.42 271.48 375.44 268.62 374.00 267.25 C 372.56 265.88 373.04 266.21 371.25 265.00 C 369.46 263.79 365.85 261.50 363.25 260.00 C 360.65 258.50 358.17 257.15 355.62 256.00 C 353.08 254.85 349.98 253.77 348.00 253.12 C 346.02 252.48 345.42 252.31 343.75 252.12 C 342.08 251.94 339.21 251.90 338.00 252.00 C 336.79 252.10 337.00 252.33 336.50 252.75 C 336.00 253.17 335.46 253.29 335.00 254.50 C 334.54 255.71 334.44 258.19 333.75 260.00 C 333.06 261.81 332.12 263.60 330.88 265.38 C 329.62 267.15 328.69 268.38 326.25 270.62 C 323.81 272.88 319.42 276.52 316.25 278.88 C 313.08 281.23 310.29 282.90 307.25 284.75 C 304.21 286.60 299.62 289.02 298.00 290.00 C 296.38 290.98 297.58 290.25 297.50 290.62 C 297.42 291.00 297.10 290.69 297.50 292.25 C 297.90 293.81 298.98 297.79 299.88 300.00 C 300.77 302.21 301.52 303.58 302.88 305.50 C 304.23 307.42 306.77 310.35 308.00 311.50 C 309.23 312.65 306.06 313.69 310.25 312.38 C 314.44 311.06 324.02 307.48 333.12 303.62 C 342.23 299.77 357.31 292.40 364.88 289.25 C 372.44 286.10 375.94 285.71 378.50 284.75 C 381.06 283.79 379.62 284.10 380.25 283.50 C 380.88 282.90 381.83 282.06 382.25 281.12 C 382.67 280.19 383.15 279.19 382.75 277.88 Z" id="s-4-f-4"/>
<path d="M 381.75 275.88 C 381.04 274.85 379.96 273.33 378.50 271.75 C 377.04 270.17 375.83 268.50 373.00 266.38 C 370.17 264.25 364.40 260.73 361.50 259.00 C 358.60 257.27 357.88 256.98 355.62 256.00 C 353.38 255.02 349.98 253.77 348.00 253.12 C 346.02 252.48 345.42 252.31 343.75 252.12 C 342.08 251.94 339.21 251.90 338.00 252.00 C 336.79 252.10 337.00 252.33 336.50 252.75 C 336.00 253.17 335.60 252.96 335.00 254.50 C 334.40 256.04 333.56 260.19 332.88 262.00 C 332.19 263.81 331.69 264.23 330.88 265.38 C 330.06 266.52 330.15 266.83 328.00 268.88 C 325.85 270.92 321.60 274.94 318.00 277.62 C 314.40 280.31 308.42 283.48 306.38 285.00 C 304.33 286.52 305.48 285.27 305.75 286.75 C 306.02 288.23 307.15 291.79 308.00 293.88 C 308.85 295.96 309.27 297.06 310.88 299.25 C 312.48 301.44 316.25 305.52 317.62 307.00 C 319.00 308.48 318.60 307.90 319.12 308.12 C 319.65 308.35 316.92 309.77 320.75 308.38 C 324.58 306.98 334.77 302.94 342.12 299.75 C 349.48 296.56 358.81 291.75 364.88 289.25 C 370.94 286.75 375.75 285.90 378.50 284.75 C 381.25 283.60 380.71 283.08 381.38 282.38 C 382.04 281.67 382.27 281.25 382.50 280.50 C 382.73 279.75 382.88 278.65 382.75 277.88 C 382.62 277.10 382.46 276.90 381.75 275.88 Z" id="s-4-f-5"/>
<path d="M 381.75 275.88 C 381.04 274.85 379.96 273.33 378.50 271.75 C 377.04 270.17 375.83 268.50 373.00 266.38 C 370.17 264.25 364.40 260.73 361.50 259.00 C 358.60 257.27 357.88 256.98 355.62 256.00 C 353.38 255.02 349.98 253.77 348.00 253.12 C 346.02 252.48 345.42 252.31 343.75 252.12 C 342.08 251.94 339.21 251.90 338.00 252.00 C 336.79 252.10 337.00 252.33 336.50 252.75 C 336.00 253.17 335.48 253.23 335.00 254.50 C 334.52 255.77 334.31 258.56 333.62 260.38 C 332.94 262.19 331.81 263.96 330.88 265.38 C 329.94 266.79 329.69 267.15 328.00 268.88 C 326.31 270.60 321.94 273.50 320.75 275.75 C 319.56 278.00 320.69 280.62 320.88 282.38 C 321.06 284.12 321.21 284.40 321.88 286.25 C 322.54 288.10 323.88 291.50 324.88 293.50 C 325.88 295.50 326.60 296.65 327.88 298.25 C 329.15 299.85 331.54 302.29 332.50 303.12 C 333.46 303.96 331.21 304.17 333.62 303.25 C 336.04 302.33 341.79 299.96 347.00 297.62 C 352.21 295.29 359.62 291.40 364.88 289.25 C 370.12 287.10 375.75 285.90 378.50 284.75 C 381.25 283.60 380.71 283.08 381.38 282.38 C 382.04 281.67 382.27 281.25 382.50 280.50 C 382.73 279.75 382.88 278.65 382.75 277.88 C 382.62 277.10 382.46 276.90 381.75 275.88 Z" id="s-4-f-6"/>
<path d="M 333.88 265.62 C 333.04 268.35 332.19 272.98 331.88 275.50 C 331.56 278.02 331.83 278.94 332.00 280.75 C 332.17 282.56 332.23 284.08 332.88 286.38 C 333.52 288.67 334.83 292.33 335.88 294.50 C 336.92 296.67 338.40 298.44 339.12 299.38 C 339.85 300.31 338.94 300.42 340.25 300.12 C 341.56 299.83 342.90 299.44 347.00 297.62 C 351.10 295.81 359.62 291.40 364.88 289.25 C 370.12 287.10 375.75 285.90 378.50 284.75 C 381.25 283.60 380.69 283.15 381.38 282.38 C 382.06 281.60 382.40 280.88 382.62 280.12 C 382.85 279.38 383.21 279.02 382.75 277.88 C 382.29 276.73 381.79 275.40 379.88 273.25 C 377.96 271.10 374.58 267.52 371.25 265.00 C 367.92 262.48 363.75 260.10 359.88 258.12 C 356.00 256.15 350.67 254.12 348.00 253.12 C 345.33 252.12 344.96 252.17 343.88 252.12 C 342.79 252.08 342.67 251.71 341.50 252.88 C 340.33 254.04 338.15 257.00 336.88 259.12 C 335.60 261.25 334.71 262.90 333.88 265.62 Z" id="s-4-f-7"/>
<path d="M 349.12 253.75 C 347.81 253.40 348.12 253.73 347.75 253.88 C 347.38 254.02 347.69 253.56 346.88 254.62 C 346.06 255.69 344.04 258.25 342.88 260.25 C 341.71 262.25 340.69 263.83 339.88 266.62 C 339.06 269.42 338.15 273.62 338.00 277.00 C 337.85 280.38 338.35 283.94 339.00 286.88 C 339.65 289.81 341.02 292.73 341.88 294.62 C 342.73 296.52 343.27 297.75 344.12 298.25 C 344.98 298.75 343.44 299.17 347.00 297.62 C 350.56 296.08 360.25 291.15 365.50 289.00 C 370.75 286.85 375.85 285.85 378.50 284.75 C 381.15 283.65 380.67 283.23 381.38 282.38 C 382.08 281.52 382.52 280.38 382.75 279.62 C 382.98 278.88 383.23 278.94 382.75 277.88 C 382.27 276.81 381.79 275.40 379.88 273.25 C 377.96 271.10 374.58 267.52 371.25 265.00 C 367.92 262.48 362.48 259.62 359.88 258.12 C 357.27 256.62 357.42 256.73 355.62 256.00 C 353.83 255.27 350.44 254.10 349.12 253.75 Z" id="s-4-f-8"/>
<path d="M 350.38 254.00 C 349.27 253.69 349.50 253.85 349.00 254.12 C 348.50 254.40 348.23 254.52 347.38 255.62 C 346.52 256.73 344.94 258.79 343.88 260.75 C 342.81 262.71 341.69 265.33 341.00 267.38 C 340.31 269.42 340.04 271.08 339.75 273.00 C 339.46 274.92 339.23 276.77 339.25 278.88 C 339.27 280.98 339.29 283.04 339.88 285.62 C 340.46 288.21 341.85 292.31 342.75 294.38 C 343.65 296.44 342.69 298.29 345.25 298.00 C 347.81 297.71 354.75 294.12 358.12 292.62 C 361.50 291.12 362.10 290.31 365.50 289.00 C 368.90 287.69 375.85 285.85 378.50 284.75 C 381.15 283.65 380.67 283.23 381.38 282.38 C 382.08 281.52 382.52 280.38 382.75 279.62 C 382.98 278.88 383.23 278.94 382.75 277.88 C 382.27 276.81 381.50 275.17 379.88 273.25 C 378.25 271.33 376.06 268.75 373.00 266.38 C 369.94 264.00 364.40 260.73 361.50 259.00 C 358.60 257.27 357.48 256.83 355.62 256.00 C 353.77 255.17 351.48 254.31 350.38 254.00 Z" id="s-4-f-9"/>
</g>
<g id="s-5" clip-path="url(#c-s-5)">
<use href="#s-5-f-0"/>
<path d="M 203.62 258.00 C 203.17 258.71 203.10 259.48 203.00 260.38 C 202.90 261.27 202.54 261.00 203.00 263.38 C 203.46 265.75 205.33 272.25 205.75 274.62 C 206.17 277.00 205.50 276.71 205.50 277.62 C 205.50 278.54 205.58 279.52 205.75 280.12 C 205.92 280.73 206.35 279.75 206.50 281.25 C 206.65 282.75 206.50 287.88 206.62 289.12 C 206.75 290.38 207.06 288.67 207.25 288.75 C 207.44 288.83 207.69 288.33 207.75 289.62 C 207.81 290.92 207.50 295.06 207.62 296.50 C 207.75 297.94 208.33 297.10 208.50 298.25 C 208.67 299.40 208.50 302.02 208.62 303.38 C 208.75 304.73 209.35 300.60 209.25 306.38 C 209.15 312.15 208.21 328.62 208.00 338.00 C 207.79 347.38 207.83 355.54 208.00 362.62 C 208.17 369.71 208.65 376.04 209.00 380.50 C 209.35 384.96 209.46 386.10 210.12 389.38 C 210.79 392.65 211.83 397.00 213.00 400.12 C 214.17 403.25 215.83 406.02 217.12 408.12 C 218.42 410.23 219.12 410.96 220.75 412.75 C 222.38 414.54 224.92 417.19 226.88 418.88 C 228.83 420.56 230.44 421.56 232.50 422.88 C 234.56 424.19 236.19 425.29 239.25 426.75 C 242.31 428.21 246.75 430.15 250.88 431.62 C 255.00 433.10 259.94 434.60 264.00 435.62 C 268.06 436.65 270.88 437.15 275.25 437.75 C 279.62 438.35 285.25 438.96 290.25 439.25 C 295.25 439.54 298.04 439.77 305.25 439.50 C 312.46 439.23 325.38 438.42 333.50 437.62 C 341.62 436.83 347.94 435.90 354.00 434.75 C 360.06 433.60 365.38 432.08 369.88 430.75 C 374.38 429.42 377.33 428.25 381.00 426.75 C 384.67 425.25 388.52 423.42 391.88 421.75 C 395.23 420.08 397.73 418.79 401.12 416.75 C 404.52 414.71 409.85 411.33 412.25 409.50 C 414.65 407.67 414.75 406.77 415.50 405.75 C 416.25 404.73 416.38 404.42 416.75 403.38 C 417.12 402.33 417.58 400.67 417.75 399.50 C 417.92 398.33 417.92 397.65 417.75 396.38 C 417.58 395.10 417.42 393.62 416.75 391.88 C 416.08 390.12 414.73 387.48 413.75 385.88 C 412.77 384.27 412.25 384.35 410.88 382.25 C 409.50 380.15 406.65 375.02 405.50 373.25 C 404.35 371.48 404.96 372.38 404.00 371.62 C 403.04 370.88 401.50 369.69 399.75 368.75 C 398.00 367.81 396.27 366.77 393.50 366.00 C 390.73 365.23 386.02 364.33 383.12 364.12 C 380.23 363.92 377.44 364.52 376.12 364.75 C 374.81 364.98 375.83 364.15 375.25 365.50 C 374.67 366.85 374.04 369.46 372.62 372.88 C 371.21 376.29 368.25 382.98 366.75 386.00 C 365.25 389.02 364.88 389.50 363.62 391.00 C 362.38 392.50 360.77 393.88 359.25 395.00 C 357.73 396.12 356.46 396.79 354.50 397.75 C 352.54 398.71 351.81 399.42 347.50 400.75 C 343.19 402.08 333.65 404.58 328.62 405.75 C 323.60 406.92 321.08 407.23 317.38 407.75 C 313.67 408.27 309.98 408.62 306.38 408.88 C 302.77 409.12 299.35 409.27 295.75 409.25 C 292.15 409.23 288.65 409.17 284.75 408.75 C 280.85 408.33 275.77 407.40 272.38 406.75 C 268.98 406.10 268.06 406.06 264.38 404.88 C 260.69 403.69 253.69 401.17 250.25 399.62 C 246.81 398.08 245.58 397.00 243.75 395.62 C 241.92 394.25 240.54 393.02 239.25 391.38 C 237.96 389.73 236.90 387.56 236.00 385.75 C 235.10 383.94 234.56 382.71 233.88 380.50 C 233.19 378.29 232.46 376.73 231.88 372.50 C 231.29 368.27 230.62 359.73 230.38 355.12 C 230.12 350.52 230.23 348.83 230.38 344.88 C 230.52 340.92 231.15 334.17 231.25 331.38 C 231.35 328.58 230.96 328.73 231.00 328.12 C 231.04 327.52 231.31 327.75 231.50 327.75 C 231.69 327.75 232.00 330.10 232.12 328.12 C 232.25 326.15 231.23 324.46 232.25 315.88 C 233.27 307.29 237.10 283.48 238.25 276.62 C 239.40 269.77 238.98 275.90 239.12 274.75 C 239.27 273.60 239.31 271.02 239.12 269.75 C 238.94 268.48 238.77 268.15 238.00 267.12 C 237.23 266.10 235.23 264.21 234.50 263.62 C 233.77 263.04 234.65 264.12 233.62 263.62 C 232.60 263.12 229.94 261.31 228.38 260.62 C 226.81 259.94 225.10 259.81 224.25 259.50 C 223.40 259.19 223.75 258.90 223.25 258.75 C 222.75 258.60 222.48 259.08 221.25 258.62 C 220.02 258.17 218.00 256.52 215.88 256.00 C 213.75 255.48 210.19 255.48 208.50 255.50 C 206.81 255.52 206.56 255.71 205.75 256.12 C 204.94 256.54 204.08 257.29 203.62 258.00 Z" id="s-5-f-1"/>
<path d="M 203.62 258.00 C 203.17 258.71 203.10 259.48 203.00 260.38 C 202.90 261.27 202.54 261.00 203.00 263.38 C 203.46 265.75 205.33 272.25 205.75 274.62 C 206.17 277.00 205.50 276.71 205.50 277.62 C 205.50 278.54 205.58 279.52 205.75 280.12 C 205.92 280.73 206.35 279.75 206.50 281.25 C 206.65 282.75 206.50 287.88 206.62 289.12 C 206.75 290.38 207.06 288.67 207.25 288.75 C 207.44 288.83 207.69 288.33 207.75 289.62 C 207.81 290.92 207.50 295.06 207.62 296.50 C 207.75 297.94 208.33 297.10 208.50 298.25 C 208.67 299.40 208.50 302.02 208.62 303.38 C 208.75 304.73 209.35 300.60 209.25 306.38 C 209.15 312.15 208.21 328.62 208.00 338.00 C 207.79 347.38 207.83 355.54 208.00 362.62 C 208.17 369.71 208.65 376.04 209.00 380.50 C 209.35 384.96 209.46 386.10 210.12 389.38 C 210.79 392.65 212.02 397.29 213.00 400.12 C 213.98 402.96 214.71 404.27 216.00 406.38 C 217.29 408.48 218.94 410.67 220.75 412.75 C 222.56 414.83 224.92 417.19 226.88 418.88 C 228.83 420.56 230.44 421.56 232.50 422.88 C 234.56 424.19 237.06 425.62 239.25 426.75 C 241.44 427.88 242.73 428.48 245.62 429.62 C 248.52 430.77 253.48 432.60 256.62 433.62 C 259.77 434.65 261.40 435.06 264.50 435.75 C 267.60 436.44 270.96 437.17 275.25 437.75 C 279.54 438.33 284.02 439.00 290.25 439.25 C 296.48 439.50 303.94 439.69 312.62 439.25 C 321.31 438.81 335.48 437.38 342.38 436.62 C 349.27 435.88 349.42 435.73 354.00 434.75 C 358.58 433.77 365.85 431.96 369.88 430.75 C 373.90 429.54 376.60 428.33 378.12 427.50 C 379.65 426.67 378.77 427.33 379.00 425.75 C 379.23 424.17 379.69 420.88 379.50 418.00 C 379.31 415.12 378.65 411.23 377.88 408.50 C 377.10 405.77 375.85 403.48 374.88 401.62 C 373.90 399.77 373.35 399.02 372.00 397.38 C 370.65 395.73 367.94 392.92 366.75 391.75 C 365.56 390.58 365.40 390.52 364.88 390.38 C 364.35 390.23 364.56 390.10 363.62 390.88 C 362.69 391.65 360.77 393.85 359.25 395.00 C 357.73 396.15 356.46 396.79 354.50 397.75 C 352.54 398.71 349.77 399.92 347.50 400.75 C 345.23 401.58 344.02 401.92 340.88 402.75 C 337.73 403.58 332.54 404.92 328.62 405.75 C 324.71 406.58 321.08 407.23 317.38 407.75 C 313.67 408.27 309.85 408.62 306.38 408.88 C 302.90 409.12 300.10 409.27 296.50 409.25 C 292.90 409.23 288.77 409.17 284.75 408.75 C 280.73 408.33 275.77 407.40 272.38 406.75 C 268.98 406.10 267.25 405.71 264.38 404.88 C 261.50 404.04 257.75 402.75 255.12 401.75 C 252.50 400.75 250.75 400.08 248.62 398.88 C 246.50 397.67 243.94 395.75 242.38 394.50 C 240.81 393.25 239.98 392.23 239.25 391.38 C 238.52 390.52 238.90 391.19 238.00 389.38 C 237.10 387.56 234.90 383.31 233.88 380.50 C 232.85 377.69 232.46 376.73 231.88 372.50 C 231.29 368.27 230.62 359.73 230.38 355.12 C 230.12 350.52 230.23 348.83 230.38 344.88 C 230.52 340.92 231.15 334.17 231.25 331.38 C 231.35 328.58 230.96 328.73 231.00 328.12 C 231.04 327.52 231.31 327.75 231.50 327.75 C 231.69 327.75 232.00 330.10 232.12 328.12 C 232.25 326.15 231.23 324.46 232.25 315.88 C 233.27 307.29 237.10 283.48 238.25 276.62 C 239.40 269.77 238.98 275.90 239.12 274.75 C 239.27 273.60 239.31 271.02 239.12 269.75 C 238.94 268.48 238.77 268.15 238.00 267.12 C 237.23 266.10 235.23 264.21 234.50 263.62 C 233.77 263.04 234.65 264.12 233.62 263.62 C 232.60 263.12 229.94 261.31 228.38 260.62 C 226.81 259.94 225.10 259.81 224.25 259.50 C 223.40 259.19 223.75 258.90 223.25 258.75 C 222.75 258.60 222.48 259.08 221.25 258.62 C 220.02 258.17 218.00 256.52 215.88 256.00 C 213.75 255.48 210.19 255.48 208.50 255.50 C 206.81 255.52 206.56 255.71 205.75 256.12 C 204.94 256.54 204.08 257.29 203.62 258.00 Z" id="s-5-f-2"/>
<path d="M 205.12 256.50 C 204.04 257.06 203.60 257.60 203.25 258.75 C 202.90 259.90 202.58 260.73 203.00 263.38 C 203.42 266.02 205.33 272.25 205.75 274.62 C 206.17 277.00 205.50 276.71 205.50 277.62 C 205.50 278.54 205.58 279.52 205.75 280.12 C 205.92 280.73 206.35 279.75 206.50 281.25 C 206.65 282.75 206.50 287.88 206.62 289.12 C 206.75 290.38 207.06 288.67 207.25 288.75 C 207.44 288.83 207.69 288.33 207.75 289.62 C 207.81 290.92 207.50 295.06 207.62 296.50 C 207.75 297.94 208.33 297.10 208.50 298.25 C 208.67 299.40 208.50 302.02 208.62 303.38 C 208.75 304.73 209.35 300.60 209.25 306.38 C 209.15 312.15 208.21 328.62 208.00 338.00 C 207.79 347.38 207.83 355.54 208.00 362.62 C 208.17 369.71 208.48 375.23 209.00 380.50 C 209.52 385.77 210.27 390.52 211.12 394.25 C 211.98 397.98 213.17 400.62 214.12 402.88 C 215.08 405.12 215.77 406.10 216.88 407.75 C 217.98 409.40 219.08 410.90 220.75 412.75 C 222.42 414.60 224.92 417.19 226.88 418.88 C 228.83 420.56 229.71 421.23 232.50 422.88 C 235.29 424.52 239.60 426.96 243.62 428.75 C 247.65 430.54 252.46 432.31 256.62 433.62 C 260.79 434.94 263.33 435.71 268.62 436.62 C 273.92 437.54 282.27 438.65 288.38 439.12 C 294.48 439.60 299.42 439.60 305.25 439.50 C 311.08 439.40 320.15 438.88 323.38 438.50 C 326.60 438.12 324.21 437.96 324.62 437.25 C 325.04 436.54 325.38 436.33 325.88 434.25 C 326.38 432.17 327.46 427.77 327.62 424.75 C 327.79 421.73 327.19 418.27 326.88 416.12 C 326.56 413.98 326.33 413.38 325.75 411.88 C 325.17 410.38 324.06 407.96 323.38 407.12 C 322.69 406.29 322.62 406.77 321.62 406.88 C 320.62 406.98 319.92 407.42 317.38 407.75 C 314.83 408.08 309.98 408.62 306.38 408.88 C 302.77 409.12 299.35 409.27 295.75 409.25 C 292.15 409.23 288.65 409.17 284.75 408.75 C 280.85 408.33 275.77 407.40 272.38 406.75 C 268.98 406.10 267.25 405.71 264.38 404.88 C 261.50 404.04 257.75 402.75 255.12 401.75 C 252.50 400.75 250.52 399.90 248.62 398.88 C 246.73 397.85 245.31 396.88 243.75 395.62 C 242.19 394.38 240.54 393.02 239.25 391.38 C 237.96 389.73 237.04 388.04 236.00 385.75 C 234.96 383.46 233.83 380.96 233.00 377.62 C 232.17 374.29 231.44 369.50 231.00 365.75 C 230.56 362.00 230.48 358.60 230.38 355.12 C 230.27 351.65 230.23 348.83 230.38 344.88 C 230.52 340.92 231.15 334.17 231.25 331.38 C 231.35 328.58 230.96 328.73 231.00 328.12 C 231.04 327.52 231.31 327.75 231.50 327.75 C 231.69 327.75 232.00 330.10 232.12 328.12 C 232.25 326.15 231.23 324.46 232.25 315.88 C 233.27 307.29 237.10 283.48 238.25 276.62 C 239.40 269.77 238.98 275.90 239.12 274.75 C 239.27 273.60 239.31 271.02 239.12 269.75 C 238.94 268.48 238.77 268.15 238.00 267.12 C 237.23 266.10 235.23 264.21 234.50 263.62 C 233.77 263.04 234.65 264.12 233.62 263.62 C 232.60 263.12 229.94 261.31 228.38 260.62 C 226.81 259.94 225.10 259.81 224.25 259.50 C 223.40 259.19 223.75 258.90 223.25 258.75 C 222.75 258.60 222.48 259.08 221.25 258.62 C 220.02 258.17 217.79 256.54 215.88 256.00 C 213.96 255.46 211.54 255.29 209.75 255.38 C 207.96 255.46 206.21 255.94 205.12 256.50 Z" id="s-5-f-3"/>
<path d="M 206.50 255.88 C 205.67 256.06 205.67 256.02 205.12 256.50 C 204.58 256.98 203.60 257.60 203.25 258.75 C 202.90 259.90 202.58 260.73 203.00 263.38 C 203.42 266.02 205.33 272.25 205.75 274.62 C 206.17 277.00 205.50 276.71 205.50 277.62 C 205.50 278.54 205.58 279.52 205.75 280.12 C 205.92 280.73 206.35 279.75 206.50 281.25 C 206.65 282.75 206.50 287.88 206.62 289.12 C 206.75 290.38 207.06 288.67 207.25 288.75 C 207.44 288.83 207.69 288.33 207.75 289.62 C 207.81 290.92 207.50 295.06 207.62 296.50 C 207.75 297.94 208.33 297.10 208.50 298.25 C 208.67 299.40 208.52 302.35 208.62 303.38 C 208.73 304.40 209.23 298.60 209.12 304.38 C 209.02 310.15 208.19 328.29 208.00 338.00 C 207.81 347.71 207.83 355.54 208.00 362.62 C 208.17 369.71 208.65 376.04 209.00 380.50 C 209.35 384.96 209.62 386.60 210.12 389.38 C 210.62 392.15 211.33 394.88 212.00 397.12 C 212.67 399.38 213.27 401.04 214.12 402.88 C 214.98 404.71 216.02 406.48 217.12 408.12 C 218.23 409.77 219.12 410.96 220.75 412.75 C 222.38 414.54 224.92 417.19 226.88 418.88 C 228.83 420.56 229.71 421.23 232.50 422.88 C 235.29 424.52 239.60 426.96 243.62 428.75 C 247.65 430.54 253.29 432.56 256.62 433.62 C 259.96 434.69 262.04 435.21 263.62 435.12 C 265.21 435.04 265.12 434.23 266.12 433.12 C 267.12 432.02 268.48 430.29 269.62 428.50 C 270.77 426.71 272.10 424.60 273.00 422.38 C 273.90 420.15 274.58 417.08 275.00 415.12 C 275.42 413.17 275.46 411.90 275.50 410.62 C 275.54 409.35 275.40 408.10 275.25 407.50 C 275.10 406.90 276.44 407.44 274.62 407.00 C 272.81 406.56 267.62 405.75 264.38 404.88 C 261.12 404.00 257.75 402.75 255.12 401.75 C 252.50 400.75 250.52 399.90 248.62 398.88 C 246.73 397.85 245.31 396.88 243.75 395.62 C 242.19 394.38 240.54 393.02 239.25 391.38 C 237.96 389.73 236.90 387.56 236.00 385.75 C 235.10 383.94 234.56 382.71 233.88 380.50 C 233.19 378.29 232.46 376.73 231.88 372.50 C 231.29 368.27 230.62 359.73 230.38 355.12 C 230.12 350.52 230.23 348.83 230.38 344.88 C 230.52 340.92 231.15 334.17 231.25 331.38 C 231.35 328.58 230.96 328.73 231.00 328.12 C 231.04 327.52 231.31 327.75 231.50 327.75 C 231.69 327.75 232.00 330.10 232.12 328.12 C 232.25 326.15 231.23 324.46 232.25 315.88 C 233.27 307.29 237.10 283.48 238.25 276.62 C 239.40 269.77 238.98 275.90 239.12 274.75 C 239.27 273.60 239.31 271.02 239.12 269.75 C 238.94 268.48 238.77 268.15 238.00 267.12 C 237.23 266.10 235.23 264.21 234.50 263.62 C 233.77 263.04 234.65 264.12 233.62 263.62 C 232.60 263.12 229.94 261.31 228.38 260.62 C 226.81 259.94 225.10 259.81 224.25 259.50 C 223.40 259.19 223.75 258.90 223.25 258.75 C 222.75 258.60 222.48 259.08 221.25 258.62 C 220.02 258.17 217.73 256.54 215.88 256.00 C 214.02 255.46 211.69 255.40 210.12 255.38 C 208.56 255.35 207.33 255.69 206.50 255.88 Z" id="s-5-f-4"/>
<path d="M 209.75 255.38 C 207.96 255.46 206.15 256.06 205.12 256.50 C 204.10 256.94 203.98 257.35 203.62 258.00 C 203.27 258.65 203.08 259.31 203.00 260.38 C 202.92 261.44 202.67 262.00 203.12 264.38 C 203.58 266.75 205.35 272.42 205.75 274.62 C 206.15 276.83 205.50 276.71 205.50 277.62 C 205.50 278.54 205.58 279.52 205.75 280.12 C 205.92 280.73 206.35 279.75 206.50 281.25 C 206.65 282.75 206.50 287.88 206.62 289.12 C 206.75 290.38 207.06 288.67 207.25 288.75 C 207.44 288.83 207.69 288.33 207.75 289.62 C 207.81 290.92 207.50 295.06 207.62 296.50 C 207.75 297.94 208.33 297.10 208.50 298.25 C 208.67 299.40 208.50 302.02 208.62 303.38 C 208.75 304.73 209.35 300.60 209.25 306.38 C 209.15 312.15 208.21 328.62 208.00 338.00 C 207.79 347.38 207.83 355.54 208.00 362.62 C 208.17 369.71 208.65 376.04 209.00 380.50 C 209.35 384.96 209.77 387.08 210.12 389.38 C 210.48 391.67 210.73 392.81 211.12 394.25 C 211.52 395.69 212.10 397.21 212.50 398.00 C 212.90 398.79 211.81 398.71 213.50 399.00 C 215.19 399.29 219.19 400.10 222.62 399.75 C 226.06 399.40 231.19 397.94 234.12 396.88 C 237.06 395.81 239.25 394.17 240.25 393.38 C 241.25 392.58 240.29 392.46 240.12 392.12 C 239.96 391.79 239.94 392.44 239.25 391.38 C 238.56 390.31 237.04 388.04 236.00 385.75 C 234.96 383.46 233.83 380.96 233.00 377.62 C 232.17 374.29 231.44 369.50 231.00 365.75 C 230.56 362.00 230.48 358.60 230.38 355.12 C 230.27 351.65 230.23 348.83 230.38 344.88 C 230.52 340.92 231.15 334.17 231.25 331.38 C 231.35 328.58 230.96 328.73 231.00 328.12 C 231.04 327.52 231.31 327.75 231.50 327.75 C 231.69 327.75 232.00 330.10 232.12 328.12 C 232.25 326.15 231.23 324.46 232.25 315.88 C 233.27 307.29 237.10 283.48 238.25 276.62 C 239.40 269.77 238.98 275.90 239.12 274.75 C 239.27 273.60 239.31 271.02 239.12 269.75 C 238.94 268.48 238.77 268.15 238.00 267.12 C 237.23 266.10 235.23 264.21 234.50 263.62 C 233.77 263.04 234.65 264.12 233.62 263.62 C 232.60 263.12 229.94 261.31 228.38 260.62 C 226.81 259.94 225.10 259.81 224.25 259.50 C 223.40 259.19 223.75 258.90 223.25 258.75 C 222.75 258.60 222.48 259.08 221.25 258.62 C 220.02 258.17 217.79 256.54 215.88 256.00 C 213.96 255.46 211.54 255.29 209.75 255.38 Z" id="s-5-f-5"/>
<path d="M 205.75 256.12 C 204.67 256.56 204.08 257.29 203.62 258.00 C 203.17 258.71 203.10 259.48 203.00 260.38 C 202.90 261.27 202.54 261.00 203.00 263.38 C 203.46 265.75 205.33 272.25 205.75 274.62 C 206.17 277.00 205.50 276.71 205.50 277.62 C 205.50 278.54 205.58 279.52 205.75 280.12 C 205.92 280.73 206.35 279.75 206.50 281.25 C 206.65 282.75 206.50 287.88 206.62 289.12 C 206.75 290.38 207.06 288.67 207.25 288.75 C 207.44 288.83 207.69 288.33 207.75 289.62 C 207.81 290.92 207.50 295.06 207.62 296.50 C 207.75 297.94 208.33 297.10 208.50 298.25 C 208.67 299.40 208.50 302.02 208.62 303.38 C 208.75 304.73 209.35 300.60 209.25 306.38 C 209.15 312.15 208.17 330.19 208.00 338.00 C 207.83 345.81 208.15 350.58 208.25 353.25 C 208.35 355.92 208.25 353.73 208.62 354.00 C 209.00 354.27 209.44 354.58 210.50 354.88 C 211.56 355.17 212.35 355.60 215.00 355.75 C 217.65 355.90 223.94 355.90 226.38 355.75 C 228.81 355.60 228.96 355.27 229.62 354.88 C 230.29 354.48 230.19 356.65 230.38 353.38 C 230.56 350.10 230.60 338.92 230.75 335.25 C 230.90 331.58 231.21 332.56 231.25 331.38 C 231.29 330.19 230.96 328.73 231.00 328.12 C 231.04 327.52 231.31 327.75 231.50 327.75 C 231.69 327.75 232.00 330.10 232.12 328.12 C 232.25 326.15 231.23 324.46 232.25 315.88 C 233.27 307.29 237.10 283.48 238.25 276.62 C 239.40 269.77 238.98 275.90 239.12 274.75 C 239.27 273.60 239.31 271.02 239.12 269.75 C 238.94 268.48 238.77 268.15 238.00 267.12 C 237.23 266.10 235.23 264.21 234.50 263.62 C 233.77 263.04 234.65 264.12 233.62 263.62 C 232.60 263.12 229.94 261.31 228.38 260.62 C 226.81 259.94 225.10 259.81 224.25 259.50 C 223.40 259.19 223.75 258.90 223.25 258.75 C 222.75 258.60 222.48 259.08 221.25 258.62 C 220.02 258.17 217.73 256.54 215.88 256.00 C 214.02 255.46 211.81 255.35 210.12 255.38 C 208.44 255.40 206.83 255.69 205.75 256.12 Z" id="s-5-f-6"/>
<path d="M 205.75 256.12 C 204.67 256.69 203.71 257.54 203.25 258.75 C 202.79 259.96 202.58 260.73 203.00 263.38 C 203.42 266.02 205.33 272.25 205.75 274.62 C 206.17 277.00 205.50 276.71 205.50 277.62 C 205.50 278.54 205.58 279.52 205.75 280.12 C 205.92 280.73 206.35 279.75 206.50 281.25 C 206.65 282.75 206.50 287.88 206.62 289.12 C 206.75 290.38 207.06 288.67 207.25 288.75 C 207.44 288.83 207.69 288.33 207.75 289.62 C 207.81 290.92 207.50 295.06 207.62 296.50 C 207.75 297.94 208.33 297.10 208.50 298.25 C 208.67 299.40 208.50 302.02 208.62 303.38 C 208.75 304.73 209.23 303.52 209.25 306.38 C 209.27 309.23 208.52 317.92 208.75 320.50 C 208.98 323.08 208.73 321.33 210.62 321.88 C 212.52 322.42 216.77 323.58 220.12 323.75 C 223.48 323.92 228.73 323.27 230.75 322.88 C 232.77 322.48 232.04 322.12 232.25 321.38 C 232.46 320.62 231.71 321.44 232.00 318.38 C 232.29 315.31 232.96 309.96 234.00 303.00 C 235.04 296.04 237.40 281.33 238.25 276.62 C 239.10 271.92 239.00 275.96 239.12 274.75 C 239.25 273.54 239.12 270.38 239.00 269.38 C 238.88 268.38 238.54 269.12 238.38 268.75 C 238.21 268.38 238.65 267.98 238.00 267.12 C 237.35 266.27 235.23 264.21 234.50 263.62 C 233.77 263.04 234.65 264.12 233.62 263.62 C 232.60 263.12 229.94 261.31 228.38 260.62 C 226.81 259.94 225.10 259.81 224.25 259.50 C 223.40 259.19 223.75 258.90 223.25 258.75 C 222.75 258.60 222.48 259.08 221.25 258.62 C 220.02 258.17 217.79 256.54 215.88 256.00 C 213.96 255.46 211.44 255.35 209.75 255.38 C 208.06 255.40 206.83 255.56 205.75 256.12 Z" id="s-5-f-7"/>
<path d="M 205.75 256.12 C 204.67 256.69 203.71 257.54 203.25 258.75 C 202.79 259.96 202.58 260.73 203.00 263.38 C 203.42 266.02 205.31 271.94 205.75 274.62 C 206.19 277.31 205.50 278.40 205.62 279.50 C 205.75 280.60 206.33 279.65 206.50 281.25 C 206.67 282.85 206.50 287.88 206.62 289.12 C 206.75 290.38 207.06 288.67 207.25 288.75 C 207.44 288.83 207.69 288.33 207.75 289.62 C 207.81 290.92 207.50 295.06 207.62 296.50 C 207.75 297.94 208.33 297.10 208.50 298.25 C 208.67 299.40 208.33 302.40 208.62 303.38 C 208.92 304.35 209.19 303.90 210.25 304.12 C 211.31 304.35 213.02 304.77 215.00 304.75 C 216.98 304.73 219.77 304.48 222.12 304.00 C 224.48 303.52 227.31 302.56 229.12 301.88 C 230.94 301.19 232.08 300.48 233.00 299.88 C 233.92 299.27 234.23 299.02 234.62 298.25 C 235.02 297.48 234.77 298.85 235.38 295.25 C 235.98 291.65 237.62 280.04 238.25 276.62 C 238.88 273.21 238.98 275.90 239.12 274.75 C 239.27 273.60 239.31 271.02 239.12 269.75 C 238.94 268.48 238.77 268.15 238.00 267.12 C 237.23 266.10 235.23 264.21 234.50 263.62 C 233.77 263.04 234.65 264.12 233.62 263.62 C 232.60 263.12 229.94 261.31 228.38 260.62 C 226.81 259.94 225.10 259.81 224.25 259.50 C 223.40 259.19 223.75 258.90 223.25 258.75 C 222.75 258.60 222.48 259.08 221.25 258.62 C 220.02 258.17 217.79 256.54 215.88 256.00 C 213.96 255.46 211.44 255.35 209.75 255.38 C 208.06 255.40 206.83 255.56 205.75 256.12 Z" id="s-5-f-8"/>
<path d="M 210.12 255.38 C 208.33 255.46 206.21 256.06 205.12 256.50 C 204.04 256.94 203.98 257.35 203.62 258.00 C 203.27 258.65 203.08 259.31 203.00 260.38 C 202.92 261.44 202.67 262.00 203.12 264.38 C 203.58 266.75 205.35 272.42 205.75 274.62 C 206.15 276.83 205.50 276.71 205.50 277.62 C 205.50 278.54 205.58 279.52 205.75 280.12 C 205.92 280.73 206.35 279.75 206.50 281.25 C 206.65 282.75 206.50 287.88 206.62 289.12 C 206.75 290.38 207.06 288.67 207.25 288.75 C 207.44 288.83 207.69 288.31 207.75 289.62 C 207.81 290.94 207.40 295.06 207.62 296.62 C 207.85 298.19 208.67 298.73 209.12 299.00 C 209.58 299.27 209.15 298.44 210.38 298.25 C 211.60 298.06 214.38 298.29 216.50 297.88 C 218.62 297.46 221.12 296.58 223.12 295.75 C 225.12 294.92 226.56 294.17 228.50 292.88 C 230.44 291.58 233.35 289.25 234.75 288.00 C 236.15 286.75 236.29 287.27 236.88 285.38 C 237.46 283.48 237.85 278.60 238.25 276.62 C 238.65 274.65 239.10 274.65 239.25 273.50 C 239.40 272.35 239.33 270.81 239.12 269.75 C 238.92 268.69 238.77 268.15 238.00 267.12 C 237.23 266.10 235.23 264.21 234.50 263.62 C 233.77 263.04 234.65 264.12 233.62 263.62 C 232.60 263.12 229.94 261.31 228.38 260.62 C 226.81 259.94 225.10 259.81 224.25 259.50 C 223.40 259.19 223.75 258.90 223.25 258.75 C 222.75 258.60 222.48 259.08 221.25 258.62 C 220.02 258.17 217.73 256.54 215.88 256.00 C 214.02 255.46 211.92 255.29 210.12 255.38 Z" id="s-5-f-9"/>
</g>
</svg>