<?xml version="1.0" encoding="UTF-8"?>
<svg xmlns="http://www.w3.org/2000/svg" viewBox="0 0 500 500">
<defs>
<path d="M 249.88 52.38 C 248.15 50.50 246.12 48.50 243.50 46.25 C 240.88 44.00 237.15 40.90 234.12 38.88 C 231.10 36.85 227.50 35.10 225.38 34.12 C 223.25 33.15 222.83 33.17 221.38 33.00 C 219.92 32.83 218.02 32.81 216.62 33.12 C 215.23 33.44 213.98 34.15 213.00 34.88 C 212.02 35.60 211.40 36.35 210.75 37.50 C 210.10 38.65 209.48 38.88 209.12 41.75 C 208.77 44.62 209.02 50.19 208.62 54.75 C 208.23 59.31 207.40 65.44 206.75 69.12 C 206.10 72.81 205.75 73.85 204.75 76.88 C 203.75 79.90 202.96 82.85 200.75 87.25 C 198.54 91.65 194.48 98.40 191.50 103.25 C 188.52 108.10 185.88 112.02 182.88 116.38 C 179.88 120.73 177.04 124.69 173.50 129.38 C 169.96 134.06 167.31 137.85 161.62 144.50 C 155.94 151.15 146.35 161.77 139.38 169.25 C 132.40 176.73 128.42 180.81 119.75 189.38 C 111.08 197.94 96.85 211.96 87.38 220.62 C 77.90 229.29 70.23 235.50 62.88 241.38 C 55.52 247.25 49.48 251.58 43.25 255.88 C 37.02 260.17 28.69 265.04 25.50 267.12 C 22.31 269.21 24.35 267.96 24.12 268.38 C 23.90 268.79 23.90 269.23 24.12 269.62 C 24.35 270.02 24.48 270.54 25.50 270.75 C 26.52 270.96 27.79 271.21 30.25 270.88 C 32.71 270.54 36.04 270.10 40.25 268.75 C 44.46 267.40 50.00 265.25 55.50 262.75 C 61.00 260.25 64.94 258.42 73.25 253.75 C 81.56 249.08 97.88 239.38 105.38 234.75 C 112.88 230.12 114.08 228.98 118.25 226.00 C 122.42 223.02 126.23 220.19 130.38 216.88 C 134.52 213.56 139.23 209.54 143.12 206.12 C 147.02 202.71 148.48 201.62 153.75 196.38 C 159.02 191.12 167.06 183.15 174.75 174.62 C 182.44 166.10 192.83 153.67 199.88 145.25 C 206.92 136.83 210.67 132.31 217.00 124.12 C 223.33 115.94 234.17 101.42 237.88 96.12 C 241.58 90.83 238.40 93.79 239.25 92.38 C 240.10 90.96 240.75 90.90 243.00 87.62 C 245.25 84.35 250.65 76.23 252.75 72.75 C 254.85 69.27 255.10 68.42 255.62 66.75 C 256.15 65.08 255.90 63.73 255.88 62.75 C 255.85 61.77 255.83 61.75 255.50 60.88 C 255.17 60.00 254.81 58.92 253.88 57.50 C 252.94 56.08 251.60 54.25 249.88 52.38 Z" id="s-0-f-0"/>
<clipPath id="c-s-0"><use href="#s-0-f-0"/></clipPath>
<path d="M 249.62 75.62 C 248.94 76.67 247.81 79.08 246.50 81.12 C 245.19 83.17 242.50 86.52 241.75 87.88 C 241.00 89.23 239.65 86.90 242.00 89.25 C 244.35 91.60 251.12 97.25 255.88 102.00 C 260.62 106.75 266.00 112.65 270.50 117.75 C 275.00 122.85 275.54 123.42 282.88 132.62 C 290.21 141.83 304.38 160.27 314.50 173.00 C 324.62 185.73 335.33 199.04 343.62 209.00 C 351.92 218.96 359.25 227.33 364.25 232.75 C 369.25 238.17 371.21 239.50 373.62 241.50 C 376.04 243.50 376.35 243.56 378.75 244.75 C 381.15 245.94 385.67 247.81 388.00 248.62 C 390.33 249.44 389.85 249.44 392.75 249.62 C 395.65 249.81 400.15 250.08 405.38 249.75 C 410.60 249.42 414.48 249.15 424.12 247.62 C 433.77 246.10 455.56 242.10 463.25 240.62 C 470.94 239.15 468.73 239.25 470.25 238.75 C 471.77 238.25 471.67 238.15 472.38 237.62 C 473.08 237.10 474.10 236.42 474.50 235.62 C 474.90 234.83 474.92 233.60 474.75 232.88 C 474.58 232.15 474.23 231.88 473.50 231.25 C 472.77 230.62 476.33 231.75 470.38 229.12 C 464.42 226.50 447.83 219.90 437.75 215.50 C 427.67 211.10 418.75 207.04 409.88 202.75 C 401.00 198.46 391.56 193.60 384.50 189.75 C 377.44 185.90 373.38 183.69 367.50 179.62 C 361.62 175.56 355.35 170.44 349.25 165.38 C 343.15 160.31 338.02 155.79 330.88 149.25 C 323.73 142.71 315.46 134.98 306.38 126.12 C 297.29 117.27 282.77 102.38 276.38 96.12 C 269.98 89.88 272.15 92.15 268.00 88.62 C 263.85 85.10 254.40 77.29 251.50 75.00 C 248.60 72.71 250.94 74.77 250.62 74.88 C 250.31 74.98 250.31 74.58 249.62 75.62 Z" id="s-1-f-0"/>
<clipPath id="c-s-1"><use href="#s-1-f-0"/></clipPath>
<path d="M 410.88 299.75 C 410.75 298.79 410.40 297.67 409.88 296.62 C 409.35 295.58 408.92 294.79 407.75 293.50 C 406.58 292.21 404.94 290.46 402.88 288.88 C 400.81 287.29 397.67 285.31 395.38 284.00 C 393.08 282.69 393.98 282.81 389.12 281.00 C 384.27 279.19 370.58 274.48 366.25 273.12 C 361.92 271.77 364.23 272.85 363.12 272.88 C 362.02 272.90 361.73 272.77 359.62 273.25 C 357.52 273.73 356.58 274.50 350.50 275.75 C 344.42 277.00 336.17 278.77 323.12 280.75 C 310.08 282.73 284.21 286.27 272.25 287.62 C 260.29 288.98 258.73 288.31 251.38 288.88 C 244.02 289.44 237.92 289.96 228.12 291.00 C 218.33 292.04 205.25 293.50 192.62 295.12 C 180.00 296.75 163.85 299.48 152.38 300.75 C 140.90 302.02 134.44 302.21 123.75 302.75 C 113.06 303.29 94.81 303.62 88.25 304.00 C 81.69 304.38 85.60 304.48 84.38 305.00 C 83.15 305.52 81.75 306.38 80.88 307.12 C 80.00 307.88 79.46 308.62 79.12 309.50 C 78.79 310.38 78.73 311.52 78.88 312.38 C 79.02 313.23 79.23 313.71 80.00 314.62 C 80.77 315.54 81.90 316.71 83.50 317.88 C 85.10 319.04 87.56 320.50 89.62 321.62 C 91.69 322.75 93.52 323.62 95.88 324.62 C 98.23 325.62 100.77 326.62 103.75 327.62 C 106.73 328.62 111.33 329.96 113.75 330.62 C 116.17 331.29 116.50 331.42 118.25 331.62 C 120.00 331.83 116.29 333.48 124.25 331.88 C 132.21 330.27 154.46 324.46 166.00 322.00 C 177.54 319.54 186.27 318.27 193.50 317.12 C 200.73 315.98 203.56 315.69 209.38 315.12 C 215.19 314.56 220.71 314.46 228.38 313.75 C 236.04 313.04 245.75 311.69 255.38 310.88 C 265.00 310.06 276.44 309.35 286.12 308.88 C 295.81 308.40 295.17 308.21 313.50 308.00 C 331.83 307.79 381.25 307.85 396.12 307.62 C 411.00 307.40 400.75 307.10 402.75 306.62 C 404.75 306.15 406.81 305.46 408.12 304.75 C 409.44 304.04 410.17 303.21 410.62 302.38 C 411.08 301.54 411.00 300.71 410.88 299.75 Z" id="s-2-f-0"/>
<clipPath id="c-s-2"><use href="#s-2-f-0"/></clipPath>
<path d="M 224.00 181.00 C 222.98 181.17 222.17 181.48 221.25 182.00 C 220.33 182.52 219.19 183.40 218.50 184.12 C 217.81 184.85 217.40 185.75 217.12 186.38 C 216.85 187.00 216.88 187.06 216.88 187.88 C 216.88 188.69 216.65 189.62 217.12 191.25 C 217.60 192.88 218.98 194.29 219.75 197.62 C 220.52 200.96 221.25 206.21 221.75 211.25 C 222.25 216.29 222.62 210.83 222.75 227.88 C 222.88 244.92 222.48 299.06 222.50 313.50 C 222.52 327.94 222.75 296.04 222.88 314.50 C 223.00 332.96 222.92 402.10 223.25 424.25 C 223.58 446.40 224.25 442.12 224.88 447.38 C 225.50 452.62 226.29 453.48 227.00 455.75 C 227.71 458.02 228.42 459.62 229.12 461.00 C 229.83 462.38 230.56 463.25 231.25 464.00 C 231.94 464.75 232.52 465.21 233.25 465.50 C 233.98 465.79 234.85 466.02 235.62 465.75 C 236.40 465.48 237.02 465.06 237.88 463.88 C 238.73 462.69 239.46 461.94 240.75 458.62 C 242.04 455.31 244.15 449.58 245.62 444.00 C 247.10 438.42 248.60 430.85 249.62 425.12 C 250.65 419.40 251.06 416.75 251.75 409.62 C 252.44 402.50 253.23 398.75 253.75 382.38 C 254.27 366.00 254.48 324.65 254.88 311.38 C 255.27 298.10 255.96 313.02 256.12 302.75 C 256.29 292.48 255.85 261.02 255.88 249.75 C 255.90 238.48 256.06 238.62 256.25 235.12 C 256.44 231.62 256.54 231.40 257.00 228.75 C 257.46 226.10 258.33 221.94 259.00 219.25 C 259.67 216.56 260.21 214.73 261.00 212.62 C 261.79 210.52 263.27 208.15 263.75 206.62 C 264.23 205.10 264.04 204.62 263.88 203.50 C 263.71 202.38 263.42 201.12 262.75 199.88 C 262.08 198.62 261.10 197.29 259.88 196.00 C 258.65 194.71 256.96 193.29 255.38 192.12 C 253.79 190.96 252.79 190.19 250.38 189.00 C 247.96 187.81 243.94 186.15 240.88 185.00 C 237.81 183.85 234.25 182.79 232.00 182.12 C 229.75 181.46 228.71 181.19 227.38 181.00 C 226.04 180.81 225.02 180.83 224.00 181.00 Z" id="s-3-f-0"/>
<clipPath id="c-s-3"><use href="#s-3-f-0"/></clipPath>
</defs>
<g id="s-0" clip-path="url(#c-s-0)">
<use href="#s-0-f-0"/>
<path d="M 243.50 46.25 C 240.67 43.77 237.21 40.92 234.12 38.88 C 231.04 36.83 227.27 35.00 225.00 34.00 C 222.73 33.00 221.90 33.02 220.50 32.88 C 219.10 32.73 217.67 32.94 216.62 33.12 C 215.58 33.31 215.02 33.54 214.25 34.00 C 213.48 34.46 212.71 35.04 212.00 35.88 C 211.29 36.71 210.48 38.02 210.00 39.00 C 209.52 39.98 209.35 39.12 209.12 41.75 C 208.90 44.38 208.85 51.19 208.62 54.75 C 208.40 58.31 208.23 60.02 207.75 63.12 C 207.27 66.23 206.42 70.58 205.75 73.38 C 205.08 76.17 204.92 76.92 203.75 79.88 C 202.58 82.83 200.90 87.06 198.75 91.12 C 196.60 95.19 193.52 100.04 190.88 104.25 C 188.23 108.46 186.85 110.79 182.88 116.38 C 178.90 121.96 172.56 130.75 167.00 137.75 C 161.44 144.75 159.12 148.02 149.50 158.38 C 139.88 168.73 119.33 189.75 109.25 199.88 C 99.17 210.00 93.35 215.10 89.00 219.12 C 84.65 223.15 84.12 223.06 83.12 224.00 C 82.12 224.94 76.85 224.62 83.00 224.75 C 89.15 224.88 112.10 226.06 120.00 224.75 C 127.90 223.44 125.35 221.04 130.38 216.88 C 135.40 212.71 144.15 205.27 150.12 199.75 C 156.10 194.23 162.15 187.94 166.25 183.75 C 170.35 179.56 169.15 181.04 174.75 174.62 C 180.35 168.21 191.04 156.00 199.88 145.25 C 208.71 134.50 221.42 118.31 227.75 110.12 C 234.08 101.94 235.85 99.25 237.88 96.12 C 239.90 93.00 239.02 92.79 239.88 91.38 C 240.73 89.96 240.67 91.04 243.00 87.62 C 245.33 84.21 251.75 74.44 253.88 70.88 C 256.00 67.31 255.48 67.92 255.75 66.25 C 256.02 64.58 255.81 62.33 255.50 60.88 C 255.19 59.42 254.60 58.69 253.88 57.50 C 253.15 56.31 252.85 55.62 251.12 53.75 C 249.40 51.88 246.33 48.73 243.50 46.25 Z" id="s-0-f-1"/>
<path d="M 243.50 46.25 C 240.17 43.46 234.15 39.02 231.12 37.00 C 228.10 34.98 226.90 34.77 225.38 34.12 C 223.85 33.48 223.46 33.29 222.00 33.12 C 220.54 32.96 218.04 32.90 216.62 33.12 C 215.21 33.35 214.42 33.88 213.50 34.50 C 212.58 35.12 211.85 35.67 211.12 36.88 C 210.40 38.08 209.54 38.77 209.12 41.75 C 208.71 44.73 209.02 50.19 208.62 54.75 C 208.23 59.31 207.56 64.94 206.75 69.12 C 205.94 73.31 205.08 76.21 203.75 79.88 C 202.42 83.54 201.75 85.75 198.75 91.12 C 195.75 96.50 190.56 104.96 185.75 112.12 C 180.94 119.29 174.58 127.92 169.88 134.12 C 165.17 140.33 162.58 143.52 157.50 149.38 C 152.42 155.23 143.54 164.83 139.38 169.25 C 135.21 173.67 133.69 174.62 132.50 175.88 C 131.31 177.12 125.67 176.56 132.25 176.75 C 138.83 176.94 164.92 177.35 172.00 177.00 C 179.08 176.65 171.88 177.81 174.75 174.62 C 177.62 171.44 182.21 166.29 189.25 157.88 C 196.29 149.46 210.23 132.56 217.00 124.12 C 223.77 115.69 226.40 111.92 229.88 107.25 C 233.35 102.58 236.31 98.60 237.88 96.12 C 239.44 93.65 238.40 93.79 239.25 92.38 C 240.10 90.96 240.42 91.50 243.00 87.62 C 245.58 83.75 252.60 72.90 254.75 69.12 C 256.90 65.35 255.71 66.25 255.88 65.00 C 256.04 63.75 255.94 62.60 255.75 61.62 C 255.56 60.65 255.52 60.44 254.75 59.12 C 253.98 57.81 253.00 55.90 251.12 53.75 C 249.25 51.60 246.83 49.04 243.50 46.25 Z" id="s-0-f-2"/>
<path d="M 234.12 38.88 C 231.10 36.85 227.65 35.12 225.38 34.12 C 223.10 33.12 221.96 33.04 220.50 32.88 C 219.04 32.71 217.62 32.96 216.62 33.12 C 215.62 33.29 215.42 33.25 214.50 33.88 C 213.58 34.50 212.02 35.56 211.12 36.88 C 210.23 38.19 209.54 38.77 209.12 41.75 C 208.71 44.73 209.02 50.19 208.62 54.75 C 208.23 59.31 207.75 64.44 206.75 69.12 C 205.75 73.81 203.96 79.21 202.62 82.88 C 201.29 86.54 200.60 87.73 198.75 91.12 C 196.90 94.52 194.38 98.71 191.50 103.25 C 188.62 107.79 184.40 114.23 181.50 118.38 C 178.60 122.52 175.33 126.40 174.12 128.12 C 172.92 129.85 168.23 128.60 174.25 128.75 C 180.27 128.90 203.77 129.02 210.25 129.00 C 216.73 128.98 210.21 131.77 213.12 128.62 C 216.04 125.48 223.62 115.54 227.75 110.12 C 231.88 104.71 235.85 99.25 237.88 96.12 C 239.90 93.00 239.02 92.79 239.88 91.38 C 240.73 89.96 240.67 91.04 243.00 87.62 C 245.33 84.21 251.75 74.44 253.88 70.88 C 256.00 67.31 255.42 67.60 255.75 66.25 C 256.08 64.90 255.92 63.65 255.88 62.75 C 255.83 61.85 255.83 61.75 255.50 60.88 C 255.17 60.00 254.81 58.92 253.88 57.50 C 252.94 56.08 251.60 54.25 249.88 52.38 C 248.15 50.50 246.12 48.50 243.50 46.25 C 240.88 44.00 237.15 40.90 234.12 38.88 Z" id="s-0-f-3"/>
<path d="M 213.50 34.50 C 212.58 35.12 211.85 35.67 211.12 36.88 C 210.40 38.08 209.54 38.77 209.12 41.75 C 208.71 44.73 209.02 50.19 208.62 54.75 C 208.23 59.31 207.58 64.94 206.75 69.12 C 205.92 73.31 204.12 77.94 203.62 79.88 C 203.12 81.81 196.52 80.58 203.75 80.75 C 210.98 80.92 238.65 82.52 247.00 80.88 C 255.35 79.23 252.42 73.31 253.88 70.88 C 255.33 68.44 255.44 67.79 255.75 66.25 C 256.06 64.71 256.23 63.33 255.75 61.62 C 255.27 59.92 253.85 57.54 252.88 56.00 C 251.90 54.46 251.44 54.00 249.88 52.38 C 248.31 50.75 246.62 48.81 243.50 46.25 C 240.38 43.69 234.15 39.02 231.12 37.00 C 228.10 34.98 227.15 34.81 225.38 34.12 C 223.60 33.44 221.96 33.04 220.50 32.88 C 219.04 32.71 217.79 32.85 216.62 33.12 C 215.46 33.40 214.42 33.88 213.50 34.50 Z" id="s-0-f-4"/>
</g>
<g id="s-1" clip-path="url(#c-s-1)">
<use href="#s-1-f-0"/>
<path d="M 249.62 75.62 C 248.94 76.67 247.81 79.08 246.50 81.12 C 245.19 83.17 242.50 86.52 241.75 87.88 C 241.00 89.23 239.65 86.90 242.00 89.25 C 244.35 91.60 251.12 97.25 255.88 102.00 C 260.62 106.75 266.00 112.65 270.50 117.75 C 275.00 122.85 275.54 123.42 282.88 132.62 C 290.21 141.83 304.38 160.27 314.50 173.00 C 324.62 185.73 335.81 199.56 343.62 209.00 C 351.44 218.44 356.96 224.69 361.38 229.62 C 365.79 234.56 368.08 236.65 370.12 238.62 C 372.17 240.60 372.19 240.48 373.62 241.50 C 375.06 242.52 376.35 243.56 378.75 244.75 C 381.15 245.94 385.67 247.81 388.00 248.62 C 390.33 249.44 389.56 249.46 392.75 249.62 C 395.94 249.79 401.90 249.96 407.12 249.62 C 412.35 249.29 419.69 248.29 424.12 247.62 C 428.56 246.96 432.10 249.62 433.75 245.62 C 435.40 241.62 434.04 228.98 434.00 223.62 C 433.96 218.27 437.52 216.98 433.50 213.50 C 429.48 210.02 417.42 206.38 409.88 202.75 C 402.33 199.12 394.48 195.08 388.25 191.75 C 382.02 188.42 376.77 185.38 372.50 182.75 C 368.23 180.12 366.50 178.90 362.62 176.00 C 358.75 173.10 355.77 170.96 349.25 165.38 C 342.73 159.79 330.65 149.04 323.50 142.50 C 316.35 135.96 314.23 133.85 306.38 126.12 C 298.52 118.40 282.77 102.38 276.38 96.12 C 269.98 89.88 272.15 92.15 268.00 88.62 C 263.85 85.10 254.40 77.29 251.50 75.00 C 248.60 72.71 250.94 74.77 250.62 74.88 C 250.31 74.98 250.31 74.58 249.62 75.62 Z" id="s-1-f-1"/>
<path d="M 250.25 75.00 C 248.62 77.15 243.12 85.50 241.75 87.88 C 240.38 90.25 239.65 86.90 242.00 89.25 C 244.35 91.60 251.12 97.25 255.88 102.00 C 260.62 106.75 266.00 112.65 270.50 117.75 C 275.00 122.85 272.81 120.02 282.88 132.62 C 292.94 145.23 319.90 179.62 330.88 193.38 C 341.85 207.12 342.73 208.08 348.75 215.12 C 354.77 222.17 362.85 231.23 367.00 235.62 C 371.15 240.02 371.67 239.98 373.62 241.50 C 375.58 243.02 376.85 243.73 378.75 244.75 C 380.65 245.77 383.83 247.17 385.00 247.62 C 386.17 248.08 385.60 257.00 385.75 247.50 C 385.90 238.00 385.96 200.23 385.88 190.62 C 385.79 181.02 388.31 191.71 385.25 189.88 C 382.19 188.04 373.90 184.04 367.50 179.62 C 361.10 175.21 354.21 169.56 346.88 163.38 C 339.54 157.19 330.25 148.71 323.50 142.50 C 316.75 136.29 314.23 133.85 306.38 126.12 C 298.52 118.40 283.94 103.38 276.38 96.12 C 268.81 88.88 265.15 86.15 261.00 82.62 C 256.85 79.10 253.29 76.27 251.50 75.00 C 249.71 73.73 251.88 72.85 250.25 75.00 Z" id="s-1-f-2"/>
<path d="M 250.25 75.00 C 248.62 77.15 243.12 85.50 241.75 87.88 C 240.38 90.25 239.65 86.90 242.00 89.25 C 244.35 91.60 251.12 97.25 255.88 102.00 C 260.62 106.75 266.00 112.65 270.50 117.75 C 275.00 122.85 271.81 118.79 282.88 132.62 C 293.94 146.46 327.75 189.33 336.88 200.75 C 346.00 212.17 337.44 201.56 337.62 201.12 C 337.81 200.69 337.98 205.75 338.00 198.12 C 338.02 190.50 343.02 167.38 337.75 155.38 C 332.48 143.38 316.60 136.00 306.38 126.12 C 296.15 116.25 283.94 103.38 276.38 96.12 C 268.81 88.88 265.15 86.15 261.00 82.62 C 256.85 79.10 253.29 76.27 251.50 75.00 C 249.71 73.73 251.88 72.85 250.25 75.00 Z" id="s-1-f-3"/>
<path d="M 250.25 75.00 C 248.62 77.15 243.12 85.50 241.75 87.88 C 240.38 90.25 240.83 88.04 242.00 89.25 C 243.17 90.46 245.50 92.04 248.75 95.12 C 252.00 98.21 256.81 102.73 261.50 107.75 C 266.19 112.77 272.29 119.77 276.88 125.25 C 281.46 130.73 286.88 138.02 289.00 140.62 C 291.12 143.23 289.46 141.17 289.62 140.88 C 289.79 140.58 289.96 144.04 290.00 138.88 C 290.04 133.71 292.15 117.00 289.88 109.88 C 287.60 102.75 280.02 99.67 276.38 96.12 C 272.73 92.58 272.15 92.15 268.00 88.62 C 263.85 85.10 254.46 77.27 251.50 75.00 C 248.54 72.73 251.88 72.85 250.25 75.00 Z" id="s-1-f-4"/>
</g>
<g id="s-2" clip-path="url(#c-s-2)">
<use href="#s-2-f-0"/>
<path d="M 366.88 273.88 C 366.79 268.19 366.73 273.40 366.50 273.25 C 366.27 273.10 366.54 273.02 365.50 273.00 C 364.46 272.98 362.75 272.67 360.25 273.12 C 357.75 273.58 354.69 274.81 350.50 275.75 C 346.31 276.69 344.29 277.25 335.12 278.75 C 325.96 280.25 306.19 283.25 295.50 284.75 C 284.81 286.25 276.44 287.21 271.00 287.75 C 265.56 288.29 270.02 287.46 262.88 288.00 C 255.73 288.54 239.83 289.81 228.12 291.00 C 216.42 292.19 205.25 293.50 192.62 295.12 C 180.00 296.75 163.85 299.48 152.38 300.75 C 140.90 302.02 134.44 302.21 123.75 302.75 C 113.06 303.29 94.81 303.62 88.25 304.00 C 81.69 304.38 85.60 304.48 84.38 305.00 C 83.15 305.52 81.75 306.38 80.88 307.12 C 80.00 307.88 79.46 308.62 79.12 309.50 C 78.79 310.38 78.73 311.52 78.88 312.38 C 79.02 313.23 79.23 313.71 80.00 314.62 C 80.77 315.54 81.90 316.71 83.50 317.88 C 85.10 319.04 87.56 320.50 89.62 321.62 C 91.69 322.75 93.52 323.62 95.88 324.62 C 98.23 325.62 100.77 326.62 103.75 327.62 C 106.73 328.62 111.33 329.96 113.75 330.62 C 116.17 331.29 116.50 331.42 118.25 331.62 C 120.00 331.83 122.25 332.02 124.25 331.88 C 126.25 331.73 127.73 331.40 130.25 330.75 C 132.77 330.10 134.98 329.12 139.38 328.00 C 143.77 326.88 149.54 325.50 156.62 324.00 C 163.71 322.50 174.31 320.33 181.88 319.00 C 189.44 317.67 195.75 316.81 202.00 316.00 C 208.25 315.19 215.21 314.48 219.38 314.12 C 223.54 313.77 221.00 314.42 227.00 313.88 C 233.00 313.33 245.52 311.71 255.38 310.88 C 265.23 310.04 276.46 309.35 286.12 308.88 C 295.79 308.40 299.98 308.19 313.38 308.00 C 326.77 307.81 357.56 307.85 366.50 307.75 C 375.44 307.65 366.94 313.02 367.00 307.38 C 367.06 301.73 366.96 279.56 366.88 273.88 Z" id="s-2-f-1"/>
<path d="M 319.00 283.50 C 318.96 279.25 318.94 282.23 318.75 281.88 C 318.56 281.52 325.62 280.42 317.88 281.38 C 310.12 282.33 281.42 286.52 272.25 287.62 C 263.08 288.73 270.02 287.46 262.88 288.00 C 255.73 288.54 240.92 289.71 229.38 290.88 C 217.83 292.04 206.46 293.35 193.62 295.00 C 180.79 296.65 164.02 299.46 152.38 300.75 C 140.73 302.04 134.44 302.21 123.75 302.75 C 113.06 303.29 94.81 303.62 88.25 304.00 C 81.69 304.38 85.60 304.48 84.38 305.00 C 83.15 305.52 81.75 306.38 80.88 307.12 C 80.00 307.88 79.46 308.62 79.12 309.50 C 78.79 310.38 78.73 311.52 78.88 312.38 C 79.02 313.23 79.23 313.71 80.00 314.62 C 80.77 315.54 81.90 316.71 83.50 317.88 C 85.10 319.04 87.56 320.50 89.62 321.62 C 91.69 322.75 93.52 323.62 95.88 324.62 C 98.23 325.62 100.69 326.60 103.75 327.62 C 106.81 328.65 111.60 330.06 114.25 330.75 C 116.90 331.44 117.69 331.58 119.62 331.75 C 121.56 331.92 122.58 332.38 125.88 331.75 C 129.17 331.12 133.50 329.46 139.38 328.00 C 145.25 326.54 154.04 324.50 161.12 323.00 C 168.21 321.50 175.06 320.17 181.88 319.00 C 188.69 317.83 187.79 317.50 202.00 316.00 C 216.21 314.50 253.10 311.19 267.12 310.00 C 281.15 308.81 277.60 309.23 286.12 308.88 C 294.65 308.52 312.77 308.12 318.25 307.88 C 323.73 307.62 318.88 311.44 319.00 307.38 C 319.12 303.31 319.04 287.75 319.00 283.50 Z" id="s-2-f-2"/>
<path d="M 270.38 289.25 C 270.12 288.17 270.62 288.21 269.38 288.00 C 268.12 287.79 269.54 287.52 262.88 288.00 C 256.21 288.48 241.08 289.69 229.38 290.88 C 217.67 292.06 205.27 293.50 192.62 295.12 C 179.98 296.75 162.21 299.52 153.50 300.62 C 144.79 301.73 151.25 301.19 140.38 301.75 C 129.50 302.31 97.58 303.46 88.25 304.00 C 78.92 304.54 85.60 304.48 84.38 305.00 C 83.15 305.52 81.75 306.38 80.88 307.12 C 80.00 307.88 79.46 308.62 79.12 309.50 C 78.79 310.38 78.73 311.52 78.88 312.38 C 79.02 313.23 79.23 313.71 80.00 314.62 C 80.77 315.54 81.90 316.71 83.50 317.88 C 85.10 319.04 87.56 320.50 89.62 321.62 C 91.69 322.75 93.52 323.62 95.88 324.62 C 98.23 325.62 100.79 326.62 103.75 327.62 C 106.71 328.62 111.21 329.96 113.62 330.62 C 116.04 331.29 116.21 331.44 118.25 331.62 C 120.29 331.81 122.35 332.35 125.88 331.75 C 129.40 331.15 133.50 329.46 139.38 328.00 C 145.25 326.54 152.10 324.81 161.12 323.00 C 170.15 321.19 183.79 318.60 193.50 317.12 C 203.21 315.65 213.79 314.67 219.38 314.12 C 224.96 313.58 221.00 314.42 227.00 313.88 C 233.00 313.33 248.17 311.54 255.38 310.88 C 262.58 310.21 267.67 310.12 270.25 309.88 C 272.83 309.62 270.75 309.67 270.88 309.38 C 271.00 309.08 271.00 310.60 271.00 308.12 C 271.00 305.65 270.98 297.65 270.88 294.50 C 270.77 291.35 270.62 290.33 270.38 289.25 Z" id="s-2-f-3"/>
<path d="M 222.12 293.25 C 221.81 292.19 221.46 292.31 220.88 292.12 C 220.29 291.94 223.33 291.62 218.62 292.12 C 213.92 292.62 203.48 293.71 192.62 295.12 C 181.77 296.54 162.21 299.52 153.50 300.62 C 144.79 301.73 151.25 301.19 140.38 301.75 C 129.50 302.31 97.58 303.46 88.25 304.00 C 78.92 304.54 85.60 304.48 84.38 305.00 C 83.15 305.52 81.75 306.38 80.88 307.12 C 80.00 307.88 79.46 308.62 79.12 309.50 C 78.79 310.38 78.73 311.52 78.88 312.38 C 79.02 313.23 79.23 313.71 80.00 314.62 C 80.77 315.54 81.90 316.71 83.50 317.88 C 85.10 319.04 87.56 320.50 89.62 321.62 C 91.69 322.75 93.52 323.62 95.88 324.62 C 98.23 325.62 100.79 326.62 103.75 327.62 C 106.71 328.62 111.21 329.96 113.62 330.62 C 116.04 331.29 116.21 331.44 118.25 331.62 C 120.29 331.81 122.35 332.35 125.88 331.75 C 129.40 331.15 134.25 329.29 139.38 328.00 C 144.50 326.71 149.54 325.50 156.62 324.00 C 163.71 322.50 174.31 320.33 181.88 319.00 C 189.44 317.67 195.19 316.88 202.00 316.00 C 208.81 315.12 219.29 316.67 222.75 313.75 C 226.21 310.83 222.85 301.92 222.75 298.50 C 222.65 295.08 222.44 294.31 222.12 293.25 Z" id="s-2-f-4"/>
<path d="M 174.38 299.25 C 174.21 298.17 177.35 297.77 173.88 298.00 C 170.40 298.23 159.08 300.00 153.50 300.62 C 147.92 301.25 151.25 301.19 140.38 301.75 C 129.50 302.31 97.58 303.46 88.25 304.00 C 78.92 304.54 85.60 304.48 84.38 305.00 C 83.15 305.52 81.75 306.38 80.88 307.12 C 80.00 307.88 79.46 308.62 79.12 309.50 C 78.79 310.38 78.73 311.52 78.88 312.38 C 79.02 313.23 79.23 313.71 80.00 314.62 C 80.77 315.54 81.90 316.71 83.50 317.88 C 85.10 319.04 87.56 320.50 89.62 321.62 C 91.69 322.75 93.52 323.62 95.88 324.62 C 98.23 325.62 100.79 326.62 103.75 327.62 C 106.71 328.62 111.21 329.96 113.62 330.62 C 116.04 331.29 116.21 331.44 118.25 331.62 C 120.29 331.81 120.21 332.85 125.88 331.75 C 131.54 330.65 144.17 326.85 152.25 325.00 C 160.33 323.15 170.58 321.71 174.38 320.62 C 178.17 319.54 174.92 321.19 175.00 318.50 C 175.08 315.81 174.98 307.71 174.88 304.50 C 174.77 301.29 174.54 300.33 174.38 299.25 Z" id="s-2-f-5"/>
<path d="M 126.88 330.88 C 126.98 326.40 127.04 309.44 127.00 304.75 C 126.96 300.06 133.08 302.88 126.62 302.75 C 120.17 302.62 95.62 303.48 88.25 304.00 C 80.88 304.52 83.90 304.96 82.38 305.88 C 80.85 306.79 79.69 308.27 79.12 309.50 C 78.56 310.73 78.71 312.23 79.00 313.25 C 79.29 314.27 80.12 314.85 80.88 315.62 C 81.62 316.40 82.29 317.02 83.50 317.88 C 84.71 318.73 86.06 319.62 88.12 320.75 C 90.19 321.88 92.77 323.31 95.88 324.62 C 98.98 325.94 103.12 327.48 106.75 328.62 C 110.38 329.77 114.69 330.96 117.62 331.50 C 120.56 332.04 122.92 331.85 124.38 331.88 C 125.83 331.90 125.96 331.79 126.38 331.62 C 126.79 331.46 126.77 335.35 126.88 330.88 Z" id="s-2-f-6"/>
</g>
<g id="s-3" clip-path="url(#c-s-3)">
<use href="#s-3-f-0"/>
<path d="M 224.00 181.00 C 222.98 181.17 222.17 181.48 221.25 182.00 C 220.33 182.52 219.19 183.40 218.50 184.12 C 217.81 184.85 217.40 185.75 217.12 186.38 C 216.85 187.00 216.88 187.06 216.88 187.88 C 216.88 188.69 216.65 189.62 217.12 191.25 C 217.60 192.88 218.98 194.31 219.75 197.62 C 220.52 200.94 221.25 206.08 221.75 211.12 C 222.25 216.17 222.62 210.81 222.75 227.88 C 222.88 244.94 222.48 299.06 222.50 313.50 C 222.52 327.94 222.77 296.83 222.88 314.50 C 222.98 332.17 223.00 401.77 223.12 419.50 C 223.25 437.23 219.19 420.69 223.62 420.88 C 228.06 421.06 245.29 420.83 249.75 420.62 C 254.21 420.42 250.04 421.46 250.38 419.62 C 250.71 417.79 251.19 415.83 251.75 409.62 C 252.31 403.42 253.23 398.75 253.75 382.38 C 254.27 366.00 254.48 324.65 254.88 311.38 C 255.27 298.10 255.96 313.02 256.12 302.75 C 256.29 292.48 255.85 261.02 255.88 249.75 C 255.90 238.48 256.06 238.62 256.25 235.12 C 256.44 231.62 256.54 231.40 257.00 228.75 C 257.46 226.10 258.33 221.94 259.00 219.25 C 259.67 216.56 260.21 214.73 261.00 212.62 C 261.79 210.52 263.27 208.15 263.75 206.62 C 264.23 205.10 264.04 204.62 263.88 203.50 C 263.71 202.38 263.42 201.12 262.75 199.88 C 262.08 198.62 261.10 197.29 259.88 196.00 C 258.65 194.71 256.96 193.29 255.38 192.12 C 253.79 190.96 252.79 190.19 250.38 189.00 C 247.96 187.81 243.94 186.15 240.88 185.00 C 237.81 183.85 234.25 182.79 232.00 182.12 C 229.75 181.46 228.71 181.19 227.38 181.00 C 226.04 180.81 225.02 180.83 224.00 181.00 Z" id="s-3-f-1"/>
<path d="M 224.00 181.00 C 222.98 181.17 222.17 181.48 221.25 182.00 C 220.33 182.52 219.19 183.40 218.50 184.12 C 217.81 184.85 217.40 185.75 217.12 186.38 C 216.85 187.00 216.88 187.06 216.88 187.88 C 216.88 188.69 216.65 189.62 217.12 191.25 C 217.60 192.88 218.98 194.31 219.75 197.62 C 220.52 200.94 221.25 206.08 221.75 211.12 C 222.25 216.17 222.62 210.81 222.75 227.88 C 222.88 244.94 222.48 299.06 222.50 313.50 C 222.52 327.94 222.77 304.60 222.88 314.50 C 222.98 324.40 219.50 363.19 223.12 372.88 C 226.75 382.56 239.81 372.92 244.62 372.62 C 249.44 372.33 250.48 371.77 252.00 371.12 C 253.52 370.48 253.33 372.69 253.75 368.75 C 254.17 364.81 254.31 357.06 254.50 347.50 C 254.69 337.94 254.60 318.83 254.88 311.38 C 255.15 303.92 255.96 313.02 256.12 302.75 C 256.29 292.48 255.85 261.02 255.88 249.75 C 255.90 238.48 256.06 238.62 256.25 235.12 C 256.44 231.62 256.54 231.40 257.00 228.75 C 257.46 226.10 258.33 221.94 259.00 219.25 C 259.67 216.56 260.21 214.73 261.00 212.62 C 261.79 210.52 263.27 208.15 263.75 206.62 C 264.23 205.10 264.04 204.62 263.88 203.50 C 263.71 202.38 263.42 201.12 262.75 199.88 C 262.08 198.62 261.10 197.29 259.88 196.00 C 258.65 194.71 256.96 193.29 255.38 192.12 C 253.79 190.96 252.79 190.19 250.38 189.00 C 247.96 187.81 243.94 186.15 240.88 185.00 C 237.81 183.85 234.25 182.79 232.00 182.12 C 229.75 181.46 228.71 181.19 227.38 181.00 C 226.04 180.81 225.02 180.83 224.00 181.00 Z" id="s-3-f-2"/>
<path d="M 224.00 181.00 C 222.98 181.17 222.17 181.48 221.25 182.00 C 220.33 182.52 219.19 183.40 218.50 184.12 C 217.81 184.85 217.40 185.75 217.12 186.38 C 216.85 187.00 216.88 187.06 216.88 187.88 C 216.88 188.69 216.65 189.62 217.12 191.25 C 217.60 192.88 219.15 195.62 219.75 197.62 C 220.35 199.62 220.27 198.79 220.75 203.25 C 221.23 207.71 222.27 209.67 222.62 224.38 C 222.98 239.08 222.90 280.17 222.88 291.50 C 222.85 302.83 222.56 288.71 222.50 292.38 C 222.44 296.04 222.44 309.81 222.50 313.50 C 222.56 317.19 222.79 312.65 222.88 314.50 C 222.96 316.35 222.94 322.88 223.00 324.62 C 223.06 326.38 218.04 324.96 223.25 325.00 C 228.46 325.04 248.98 325.00 254.25 324.88 C 259.52 324.75 254.77 326.50 254.88 324.25 C 254.98 322.00 254.67 314.96 254.88 311.38 C 255.08 307.79 255.96 313.02 256.12 302.75 C 256.29 292.48 255.85 261.02 255.88 249.75 C 255.90 238.48 256.06 238.62 256.25 235.12 C 256.44 231.62 256.54 231.40 257.00 228.75 C 257.46 226.10 258.33 221.94 259.00 219.25 C 259.67 216.56 260.21 214.73 261.00 212.62 C 261.79 210.52 263.29 208.33 263.75 206.62 C 264.21 204.92 264.06 203.75 263.75 202.38 C 263.44 201.00 262.67 199.58 261.88 198.38 C 261.08 197.17 260.35 196.35 259.00 195.12 C 257.65 193.90 255.46 192.17 253.75 191.00 C 252.04 189.83 252.38 189.60 248.75 188.12 C 245.12 186.65 235.56 183.31 232.00 182.12 C 228.44 180.94 228.71 181.19 227.38 181.00 C 226.04 180.81 225.02 180.83 224.00 181.00 Z" id="s-3-f-3"/>
<path d="M 223.50 181.12 C 222.48 181.29 222.15 181.42 221.25 182.00 C 220.35 182.58 218.85 183.65 218.12 184.62 C 217.40 185.60 217.04 186.77 216.88 187.88 C 216.71 188.98 216.62 189.54 217.12 191.25 C 217.62 192.96 219.08 194.54 219.88 198.12 C 220.67 201.71 221.40 207.79 221.88 212.75 C 222.35 217.71 222.56 217.23 222.75 227.88 C 222.94 238.52 222.90 268.44 223.00 276.62 C 223.10 284.81 218.23 277.00 223.38 277.00 C 228.52 277.00 248.50 276.90 253.88 276.62 C 259.25 276.35 255.27 281.38 255.62 275.38 C 255.98 269.38 255.77 248.40 256.00 240.62 C 256.23 232.85 256.33 232.88 257.00 228.75 C 257.67 224.62 258.88 219.56 260.00 215.88 C 261.12 212.19 263.15 208.96 263.75 206.62 C 264.35 204.29 263.94 203.25 263.62 201.88 C 263.31 200.50 262.69 199.54 261.88 198.38 C 261.06 197.21 260.10 196.10 258.75 194.88 C 257.40 193.65 255.42 192.12 253.75 191.00 C 252.08 189.88 252.35 189.60 248.75 188.12 C 245.15 186.65 235.69 183.31 232.12 182.12 C 228.56 180.94 228.81 181.17 227.38 181.00 C 225.94 180.83 224.52 180.96 223.50 181.12 Z" id="s-3-f-4"/>
<path d="M 219.38 183.38 C 218.31 184.25 217.54 185.33 217.12 186.38 C 216.71 187.42 216.88 188.81 216.88 189.62 C 216.88 190.44 216.65 189.92 217.12 191.25 C 217.60 192.58 218.98 194.31 219.75 197.62 C 220.52 200.94 221.25 206.00 221.75 211.12 C 222.25 216.25 220.85 225.42 222.75 228.38 C 224.65 231.33 227.42 228.85 233.12 228.88 C 238.83 228.90 252.52 230.67 257.00 228.50 C 261.48 226.33 258.85 219.62 260.00 215.88 C 261.15 212.12 263.27 208.33 263.88 206.00 C 264.48 203.67 263.96 203.15 263.62 201.88 C 263.29 200.60 262.69 199.54 261.88 198.38 C 261.06 197.21 260.10 196.10 258.75 194.88 C 257.40 193.65 255.42 192.12 253.75 191.00 C 252.08 189.88 250.90 189.12 248.75 188.12 C 246.60 187.12 244.44 186.19 240.88 185.00 C 237.31 183.81 230.27 181.65 227.38 181.00 C 224.48 180.35 224.83 180.73 223.50 181.12 C 222.17 181.52 220.44 182.50 219.38 183.38 Z" id="s-3-f-5"/>
</g>
</svg>