<?xml version="1.0" encoding="UTF-8"?>
<svg xmlns="http://www.w3.org/2000/svg" viewBox="0 0 500 500">
<defs>
<path d="M 96.38 55.00 C 95.10 55.12 94.46 55.56 93.88 55.88 C 93.29 56.19 93.21 56.25 92.88 56.88 C 92.54 57.50 91.98 58.23 91.88 59.62 C 91.77 61.02 91.77 62.96 92.25 65.25 C 92.73 67.54 94.06 70.71 94.75 73.38 C 95.44 76.04 95.88 77.00 96.38 81.25 C 96.88 85.50 97.52 93.12 97.75 98.88 C 97.98 104.62 97.92 109.35 97.75 115.75 C 97.58 122.15 97.42 128.38 96.75 137.25 C 96.08 146.12 95.25 156.85 93.75 169.00 C 92.25 181.15 89.04 202.23 87.75 210.12 C 86.46 218.02 86.54 213.60 86.00 216.38 C 85.46 219.15 85.19 222.88 84.50 226.75 C 83.81 230.62 82.33 237.02 81.88 239.62 C 81.42 242.23 82.77 237.62 81.75 242.38 C 80.73 247.12 77.23 262.06 75.75 268.12 C 74.27 274.19 73.65 276.33 72.88 278.75 C 72.10 281.17 71.75 280.81 71.12 282.62 C 70.50 284.44 69.46 287.35 69.12 289.62 C 68.79 291.90 68.83 294.62 69.12 296.25 C 69.42 297.88 69.65 297.94 70.88 299.38 C 72.10 300.81 71.94 301.23 76.50 304.88 C 81.06 308.52 91.69 315.90 98.25 321.25 C 104.81 326.60 109.02 330.17 115.88 337.00 C 122.73 343.83 133.94 356.15 139.38 362.25 C 144.81 368.35 145.06 369.06 148.50 373.62 C 151.94 378.19 157.27 386.08 160.00 389.62 C 162.73 393.17 163.44 393.54 164.88 394.88 C 166.31 396.21 167.58 397.00 168.62 397.62 C 169.67 398.25 169.81 398.44 171.12 398.62 C 172.44 398.81 174.96 399.06 176.50 398.75 C 178.04 398.44 179.33 397.54 180.38 396.75 C 181.42 395.96 182.06 395.08 182.75 394.00 C 183.44 392.92 183.98 392.29 184.50 390.25 C 185.02 388.21 185.67 384.50 185.88 381.75 C 186.08 379.00 185.94 375.88 185.75 373.75 C 185.56 371.62 185.27 370.69 184.75 369.00 C 184.23 367.31 183.77 365.73 182.62 363.62 C 181.48 361.52 179.65 358.67 177.88 356.38 C 176.10 354.08 173.96 351.81 172.00 349.88 C 170.04 347.94 170.38 348.21 166.12 344.75 C 161.88 341.29 155.02 335.08 146.50 329.12 C 137.98 323.17 123.19 314.06 115.00 309.00 C 106.81 303.94 101.02 301.00 97.38 298.75 C 93.73 296.50 94.15 296.40 93.12 295.50 C 92.10 294.60 91.77 294.17 91.25 293.38 C 90.73 292.58 90.04 292.71 90.00 290.75 C 89.96 288.79 90.33 285.52 91.00 281.62 C 91.67 277.73 91.69 275.73 94.00 267.38 C 96.31 259.02 102.23 240.81 104.88 231.50 C 107.52 222.19 108.85 215.98 109.88 211.50 C 110.90 207.02 108.71 215.25 111.00 204.62 C 113.29 194.00 120.62 161.79 123.62 147.75 C 126.62 133.71 127.50 126.88 129.00 120.38 C 130.50 113.88 131.62 112.40 132.62 108.75 C 133.62 105.10 134.15 101.48 135.00 98.50 C 135.85 95.52 137.10 93.02 137.75 90.88 C 138.40 88.73 138.75 87.19 138.88 85.62 C 139.00 84.06 138.88 82.96 138.50 81.50 C 138.12 80.04 137.52 78.33 136.62 76.88 C 135.73 75.42 134.48 74.04 133.12 72.75 C 131.77 71.46 130.83 70.73 128.50 69.12 C 126.17 67.52 122.21 64.94 119.12 63.12 C 116.04 61.31 112.94 59.58 110.00 58.25 C 107.06 56.92 103.77 55.67 101.50 55.12 C 99.23 54.58 97.65 54.88 96.38 55.00 Z" id="s-0-f-0"/>
<clipPath id="c-s-0"><use href="#s-0-f-0"/></clipPath>
<path d="M 181.38 167.00 C 178.40 165.48 172.56 163.15 169.62 162.12 C 166.69 161.10 165.42 161.06 163.75 160.88 C 162.08 160.69 160.79 160.81 159.62 161.00 C 158.46 161.19 157.62 161.50 156.75 162.00 C 155.88 162.50 155.00 163.29 154.38 164.00 C 153.75 164.71 153.21 165.35 153.00 166.25 C 152.79 167.15 152.52 167.29 153.12 169.38 C 153.73 171.46 155.85 176.44 156.62 178.75 C 157.40 181.06 157.42 181.33 157.75 183.25 C 158.08 185.17 158.46 188.02 158.62 190.25 C 158.79 192.48 158.90 194.98 158.75 196.62 C 158.60 198.27 158.04 198.29 157.75 200.12 C 157.46 201.96 157.17 204.75 157.00 207.62 C 156.83 210.50 156.94 214.19 156.75 217.38 C 156.56 220.56 156.54 222.12 155.88 226.75 C 155.21 231.38 154.44 237.79 152.75 245.12 C 151.06 252.46 147.75 263.94 145.75 270.75 C 143.75 277.56 142.46 281.12 140.75 286.00 C 139.04 290.88 137.35 295.46 135.50 300.00 C 133.65 304.54 130.96 310.56 129.62 313.25 C 128.29 315.94 128.15 315.42 127.50 316.12 C 126.85 316.83 127.42 314.67 125.75 317.50 C 124.08 320.33 119.02 330.38 117.50 333.12 C 115.98 335.88 117.06 333.12 116.62 334.00 C 116.19 334.88 117.00 335.19 114.88 338.38 C 112.75 341.56 106.94 349.33 103.88 353.12 C 100.81 356.92 99.21 358.35 96.50 361.12 C 93.79 363.90 91.44 366.38 87.62 369.75 C 83.81 373.12 78.62 377.44 73.62 381.38 C 68.62 385.31 64.31 388.60 57.62 393.38 C 50.94 398.15 37.77 406.94 33.50 410.00 C 29.23 413.06 32.04 411.15 32.00 411.75 C 31.96 412.35 32.48 413.27 33.25 413.62 C 34.02 413.98 32.88 414.52 36.62 413.88 C 40.38 413.23 51.19 410.94 55.75 409.75 C 60.31 408.56 60.21 408.42 64.00 406.75 C 67.79 405.08 73.60 402.56 78.50 399.75 C 83.40 396.94 88.79 393.31 93.38 389.88 C 97.96 386.44 102.02 382.85 106.00 379.12 C 109.98 375.40 113.48 371.77 117.25 367.50 C 121.02 363.23 126.31 356.23 128.62 353.50 C 130.94 350.77 128.25 355.04 131.12 351.12 C 134.00 347.21 143.35 333.81 145.88 330.00 C 148.40 326.19 145.12 330.40 146.25 328.25 C 147.38 326.10 150.88 320.48 152.62 317.12 C 154.38 313.77 154.42 314.10 156.75 308.12 C 159.08 302.15 163.98 289.06 166.62 281.25 C 169.27 273.44 170.77 267.88 172.62 261.25 C 174.48 254.62 175.33 251.83 177.75 241.50 C 180.17 231.17 185.23 207.42 187.12 199.25 C 189.02 191.08 188.02 195.58 189.12 192.50 C 190.23 189.42 193.02 183.21 193.75 180.75 C 194.48 178.29 193.98 178.83 193.50 177.75 C 193.02 176.67 191.88 175.33 190.88 174.25 C 189.88 173.17 189.08 172.46 187.50 171.25 C 185.92 170.04 184.35 168.52 181.38 167.00 Z" id="s-1-f-0"/>
<clipPath id="c-s-1"><use href="#s-1-f-0"/></clipPath>
<path d="M 191.88 193.88 C 191.81 193.42 192.08 193.21 191.25 193.00 C 190.42 192.79 187.77 192.56 186.88 192.62 C 185.98 192.69 186.60 193.21 185.88 193.38 C 185.15 193.54 183.29 193.46 182.50 193.62 C 181.71 193.79 181.88 194.21 181.12 194.38 C 180.38 194.54 178.75 194.46 178.00 194.62 C 177.25 194.79 177.38 195.21 176.62 195.38 C 175.88 195.54 174.25 195.46 173.50 195.62 C 172.75 195.79 172.96 196.21 172.12 196.38 C 171.29 196.54 169.35 196.44 168.50 196.62 C 167.65 196.81 167.71 197.33 167.00 197.50 C 166.29 197.67 164.96 197.48 164.25 197.62 C 163.54 197.77 163.56 198.19 162.75 198.38 C 161.94 198.56 160.04 198.54 159.38 198.75 C 158.71 198.96 160.25 199.12 158.75 199.62 C 157.25 200.12 158.33 200.08 150.38 201.75 C 142.42 203.42 118.35 208.31 111.00 209.62 C 103.65 210.94 107.38 209.48 106.25 209.62 C 105.12 209.77 106.19 210.17 104.25 210.50 C 102.31 210.83 96.58 211.29 94.62 211.62 C 92.67 211.96 93.54 212.31 92.50 212.50 C 91.46 212.69 89.19 212.92 88.38 212.75 C 87.56 212.58 87.83 211.35 87.62 211.50 C 87.42 211.65 88.60 212.92 87.12 213.62 C 85.65 214.33 84.40 214.90 78.75 215.75 C 73.10 216.60 59.77 218.40 53.25 218.75 C 46.73 219.10 44.25 218.00 39.62 217.88 C 35.00 217.75 28.21 217.81 25.50 218.00 C 22.79 218.19 23.92 218.58 23.38 219.00 C 22.83 219.42 22.48 219.58 22.25 220.50 C 22.02 221.42 21.56 222.98 22.00 224.50 C 22.44 226.02 23.79 228.02 24.88 229.62 C 25.96 231.23 26.71 232.10 28.50 234.12 C 30.29 236.15 33.77 239.96 35.62 241.75 C 37.48 243.54 37.67 243.52 39.62 244.88 C 41.58 246.23 45.35 248.71 47.38 249.88 C 49.40 251.04 50.52 251.40 51.75 251.88 C 52.98 252.35 53.46 252.62 54.75 252.75 C 56.04 252.88 57.94 252.96 59.50 252.62 C 61.06 252.29 62.60 251.52 64.12 250.75 C 65.65 249.98 66.02 249.31 68.62 248.00 C 71.23 246.69 77.27 243.85 79.75 242.88 C 82.23 241.90 82.73 242.38 83.50 242.12 C 84.27 241.88 83.92 241.54 84.38 241.38 C 84.83 241.21 85.81 241.29 86.25 241.12 C 86.69 240.96 86.54 240.54 87.00 240.38 C 87.46 240.21 88.52 240.29 89.00 240.12 C 89.48 239.96 89.42 239.54 89.88 239.38 C 90.33 239.21 90.83 239.46 91.75 239.12 C 92.67 238.79 94.46 237.71 95.38 237.38 C 96.29 237.04 96.81 237.29 97.25 237.12 C 97.69 236.96 97.54 236.54 98.00 236.38 C 98.46 236.21 99.46 236.31 100.00 236.12 C 100.54 235.94 100.69 235.27 101.25 235.25 C 101.81 235.23 102.94 236.21 103.38 236.00 C 103.81 235.79 95.08 237.31 103.88 234.00 C 112.67 230.69 147.08 219.10 156.12 216.12 C 165.17 213.15 157.71 216.23 158.12 216.12 C 158.54 216.02 157.94 215.83 158.62 215.50 C 159.31 215.17 160.85 214.81 162.25 214.12 C 163.65 213.44 165.98 211.88 167.00 211.38 C 168.02 210.88 167.98 211.31 168.38 211.12 C 168.77 210.94 169.02 210.42 169.38 210.25 C 169.73 210.08 169.52 210.60 170.50 210.12 C 171.48 209.65 174.23 207.88 175.25 207.38 C 176.27 206.88 175.94 207.46 176.62 207.12 C 177.31 206.79 178.69 205.71 179.38 205.38 C 180.06 205.04 179.79 205.54 180.75 205.12 C 181.71 204.71 183.77 203.75 185.12 202.88 C 186.48 202.00 187.79 201.06 188.88 199.88 C 189.96 198.69 191.12 196.75 191.62 195.75 C 192.12 194.75 191.94 194.33 191.88 193.88 Z" id="s-2-f-0"/>
<clipPath id="c-s-2"><use href="#s-2-f-0"/></clipPath>
<path d="M 236.50 75.00 C 234.54 75.10 235.40 75.44 234.88 75.88 C 234.35 76.31 233.71 77.04 233.38 77.62 C 233.04 78.21 232.94 78.77 232.88 79.38 C 232.81 79.98 232.29 80.62 233.00 81.25 C 233.71 81.88 235.19 81.56 237.12 83.12 C 239.06 84.69 242.88 88.58 244.62 90.62 C 246.38 92.67 246.62 93.31 247.62 95.38 C 248.62 97.44 249.44 99.38 250.62 103.00 C 251.81 106.62 253.08 109.94 254.75 117.12 C 256.42 124.31 259.42 139.79 260.62 146.12 C 261.83 152.46 261.27 151.98 262.00 155.12 C 262.73 158.27 264.02 162.48 265.00 165.00 C 265.98 167.52 266.81 168.62 267.88 170.25 C 268.94 171.88 270.27 173.67 271.38 174.75 C 272.48 175.83 273.50 176.44 274.50 176.75 C 275.50 177.06 276.65 176.88 277.38 176.62 C 278.10 176.38 278.31 176.12 278.88 175.25 C 279.44 174.38 280.25 172.21 280.75 171.38 C 281.25 170.54 281.33 173.17 281.88 170.25 C 282.42 167.33 283.85 158.33 284.00 153.88 C 284.15 149.42 283.33 147.25 282.75 143.50 C 282.17 139.75 281.83 137.67 280.50 131.38 C 279.17 125.08 276.10 111.35 274.75 105.75 C 273.40 100.15 272.88 99.81 272.38 97.75 C 271.88 95.69 273.98 96.40 271.75 93.38 C 269.52 90.35 261.46 82.17 259.00 79.62 C 256.54 77.08 258.38 78.73 257.00 78.12 C 255.62 77.52 252.48 76.48 250.75 76.00 C 249.02 75.52 249.00 75.42 246.62 75.25 C 244.25 75.08 238.46 74.90 236.50 75.00 Z" id="s-3-f-0"/>
<clipPath id="c-s-3"><use href="#s-3-f-0"/></clipPath>
<path d="M 398.88 83.38 C 399.00 82.71 399.23 82.35 398.75 81.38 C 398.27 80.40 397.27 78.92 396.00 77.50 C 394.73 76.08 393.31 74.60 391.12 72.88 C 388.94 71.15 385.25 68.58 382.88 67.12 C 380.50 65.67 379.35 65.15 376.88 64.12 C 374.40 63.10 370.38 61.50 368.00 61.00 C 365.62 60.50 365.58 60.50 362.62 61.12 C 359.67 61.75 356.96 63.17 350.25 64.75 C 343.54 66.33 332.88 68.77 322.38 70.62 C 311.88 72.48 297.79 74.50 287.25 75.88 C 276.71 77.25 264.06 78.27 259.12 78.88 C 254.19 79.48 255.94 77.40 257.62 79.50 C 259.31 81.60 267.00 89.08 269.25 91.50 C 271.50 93.92 264.62 94.92 271.12 94.00 C 277.62 93.08 296.85 88.15 308.25 86.00 C 319.65 83.85 332.98 81.96 339.50 81.12 C 346.02 80.29 344.94 80.81 347.38 81.00 C 349.81 81.19 352.60 81.77 354.12 82.25 C 355.65 82.73 355.92 83.31 356.50 83.88 C 357.08 84.44 357.44 84.29 357.62 85.62 C 357.81 86.96 358.27 86.27 357.62 91.88 C 356.98 97.48 354.73 113.08 353.75 119.25 C 352.77 125.42 352.71 124.98 351.75 128.88 C 350.79 132.77 348.52 140.25 348.00 142.62 C 347.48 145.00 344.77 142.56 348.62 143.12 C 352.48 143.69 367.15 145.52 371.12 146.00 C 375.10 146.48 371.94 146.44 372.50 146.00 C 373.06 145.56 373.08 147.90 374.50 143.38 C 375.92 138.85 378.73 126.33 381.00 118.88 C 383.27 111.42 386.48 102.85 388.12 98.62 C 389.77 94.40 389.23 95.71 390.88 93.50 C 392.52 91.29 396.67 87.06 398.00 85.38 C 399.33 83.69 398.75 84.04 398.88 83.38 Z" id="s-4-f-0"/>
<clipPath id="c-s-4"><use href="#s-4-f-0"/></clipPath>
<path d="M 382.88 156.25 C 382.75 155.33 382.25 154.23 381.75 153.38 C 381.25 152.52 380.94 152.19 379.88 151.12 C 378.81 150.06 376.67 147.98 375.38 147.00 C 374.08 146.02 375.62 145.88 372.12 145.25 C 368.62 144.62 357.69 143.69 354.38 143.25 C 351.06 142.81 353.29 142.73 352.25 142.62 C 351.21 142.52 350.92 142.23 348.12 142.62 C 345.33 143.02 339.27 144.15 335.50 145.00 C 331.73 145.85 329.69 146.79 325.50 147.75 C 321.31 148.71 317.31 149.73 310.38 150.75 C 303.44 151.77 288.48 152.85 283.88 153.88 C 279.27 154.90 283.15 154.25 282.75 156.88 C 282.35 159.50 281.06 167.31 281.50 169.62 C 281.94 171.94 283.06 170.56 285.38 170.75 C 287.69 170.94 283.50 172.21 295.38 170.75 C 307.25 169.29 342.46 163.65 356.62 162.00 C 370.79 160.35 376.06 161.40 380.38 160.88 C 384.69 160.35 382.08 159.65 382.50 158.88 C 382.92 158.10 383.00 157.17 382.88 156.25 Z" id="s-5-f-0"/>
<clipPath id="c-s-5"><use href="#s-5-f-0"/></clipPath>
<path d="M 226.12 162.50 C 225.54 163.08 225.19 163.25 225.00 164.50 C 224.81 165.75 224.38 166.88 225.00 170.00 C 225.62 173.12 227.94 179.90 228.75 183.25 C 229.56 186.60 229.56 187.38 229.88 190.12 C 230.19 192.88 230.50 194.81 230.62 199.75 C 230.75 204.69 230.77 215.33 230.62 219.75 C 230.48 224.17 230.02 224.90 229.75 226.25 C 229.48 227.60 229.12 227.10 229.00 227.88 C 228.88 228.65 228.81 229.83 229.00 230.88 C 229.19 231.92 229.48 232.83 230.12 234.12 C 230.77 235.42 231.92 237.27 232.88 238.62 C 233.83 239.98 234.71 241.04 235.88 242.25 C 237.04 243.46 238.94 245.12 239.88 245.88 C 240.81 246.62 240.79 246.58 241.50 246.75 C 242.21 246.92 242.52 247.04 244.12 246.88 C 245.73 246.71 248.29 246.44 251.12 245.75 C 253.96 245.06 256.40 244.38 261.12 242.75 C 265.85 241.12 272.29 238.12 279.50 236.00 C 286.71 233.88 295.44 231.83 304.38 230.00 C 313.31 228.17 323.71 226.50 333.12 225.00 C 342.54 223.50 355.54 221.60 360.88 221.00 C 366.21 220.40 364.19 221.21 365.12 221.38 C 366.06 221.54 365.90 221.52 366.50 222.00 C 367.10 222.48 368.23 223.48 368.75 224.25 C 369.27 225.02 369.46 225.65 369.62 226.62 C 369.79 227.60 370.06 226.65 369.75 230.12 C 369.44 233.60 369.04 238.58 367.75 247.50 C 366.46 256.42 362.67 277.54 362.00 283.62 C 361.33 289.71 360.10 284.29 363.75 284.00 C 367.40 283.71 379.52 282.44 383.88 281.88 C 388.23 281.31 388.48 282.56 389.88 280.62 C 391.27 278.69 391.21 274.15 392.25 270.25 C 393.29 266.35 394.46 261.92 396.12 257.25 C 397.79 252.58 400.17 246.81 402.25 242.25 C 404.33 237.69 407.21 232.79 408.62 229.88 C 410.04 226.96 410.40 226.17 410.75 224.75 C 411.10 223.33 410.96 222.29 410.75 221.38 C 410.54 220.46 410.90 220.67 409.50 219.25 C 408.10 217.83 404.58 214.60 402.38 212.88 C 400.17 211.15 398.83 210.35 396.25 208.88 C 393.67 207.40 389.71 205.29 386.88 204.00 C 384.04 202.71 381.17 201.65 379.25 201.12 C 377.33 200.60 378.02 200.44 375.38 200.88 C 372.73 201.31 380.40 200.44 363.38 203.75 C 346.35 207.06 290.96 217.58 273.25 220.75 C 255.54 223.92 260.17 222.69 257.12 222.75 C 254.08 222.81 255.50 221.83 255.00 221.12 C 254.50 220.42 254.29 219.42 254.12 218.50 C 253.96 217.58 253.56 217.92 254.00 215.62 C 254.44 213.33 255.75 209.23 256.75 204.75 C 257.75 200.27 259.17 191.96 260.00 188.75 C 260.83 185.54 261.46 186.71 261.75 185.50 C 262.04 184.29 261.94 182.60 261.75 181.50 C 261.56 180.40 261.17 179.79 260.62 178.88 C 260.08 177.96 259.58 177.15 258.50 176.00 C 257.42 174.85 256.33 173.67 254.12 172.00 C 251.92 170.33 247.69 167.50 245.25 166.00 C 242.81 164.50 241.60 163.85 239.50 163.00 C 237.40 162.15 234.46 161.21 232.62 160.88 C 230.79 160.54 229.58 160.73 228.50 161.00 C 227.42 161.27 226.71 161.92 226.12 162.50 Z" id="s-6-f-0"/>
<clipPath id="c-s-6"><use href="#s-6-f-0"/></clipPath>
<path d="M 476.75 294.00 C 476.58 292.94 476.40 292.29 475.62 291.12 C 474.85 289.96 473.42 288.27 472.12 287.00 C 470.83 285.73 469.81 284.83 467.88 283.50 C 465.94 282.17 464.81 280.75 460.50 279.00 C 456.19 277.25 445.79 274.17 442.00 273.00 C 438.21 271.83 439.19 272.17 437.75 272.00 C 436.31 271.83 435.92 271.67 433.38 272.00 C 430.83 272.33 425.21 273.38 422.50 274.00 C 419.79 274.62 419.52 275.12 417.12 275.75 C 414.73 276.38 412.44 276.94 408.12 277.75 C 403.81 278.56 395.08 280.15 391.25 280.62 C 387.42 281.10 386.65 280.50 385.12 280.62 C 383.60 280.75 385.42 281.02 382.12 281.38 C 378.83 281.73 368.83 282.33 365.38 282.75 C 361.92 283.17 363.21 283.52 361.38 283.88 C 359.54 284.23 359.08 284.48 354.38 284.88 C 349.67 285.27 342.98 285.40 333.12 286.25 C 323.27 287.10 306.42 288.71 295.25 290.00 C 284.08 291.29 272.33 293.04 266.12 294.00 C 259.92 294.96 262.10 295.12 258.00 295.75 C 253.90 296.38 251.73 297.02 241.50 297.75 C 231.27 298.48 204.50 299.58 196.62 300.12 C 188.75 300.67 194.96 300.56 194.25 301.00 C 193.54 301.44 192.77 302.02 192.38 302.75 C 191.98 303.48 191.81 304.65 191.88 305.38 C 191.94 306.10 191.92 306.23 192.75 307.12 C 193.58 308.02 194.48 309.15 196.88 310.75 C 199.27 312.35 203.23 315.10 207.12 316.75 C 211.02 318.40 217.04 319.79 220.25 320.62 C 223.46 321.46 224.42 321.54 226.38 321.75 C 228.33 321.96 228.69 322.21 232.00 321.88 C 235.31 321.54 240.92 320.90 246.25 319.75 C 251.58 318.60 257.94 316.46 264.00 315.00 C 270.06 313.54 276.54 312.17 282.62 311.00 C 288.71 309.83 294.71 308.83 300.50 308.00 C 306.29 307.17 307.23 306.83 317.38 306.00 C 327.52 305.17 350.46 303.65 361.38 303.00 C 372.29 302.35 373.42 302.29 382.88 302.12 C 392.33 301.96 408.40 301.90 418.12 302.00 C 427.85 302.10 433.73 302.62 441.25 302.75 C 448.77 302.88 458.50 302.92 463.25 302.75 C 468.00 302.58 467.88 302.25 469.75 301.75 C 471.62 301.25 473.35 300.46 474.50 299.75 C 475.65 299.04 476.25 298.46 476.62 297.50 C 477.00 296.54 476.92 295.06 476.75 294.00 Z" id="s-7-f-0"/>
<clipPath id="c-s-7"><use href="#s-7-f-0"/></clipPath>
<path d="M 291.50 352.12 C 290.48 351.10 289.12 349.90 287.62 348.88 C 286.12 347.85 285.31 347.15 282.50 346.00 C 279.69 344.85 273.73 342.85 270.75 342.00 C 267.77 341.15 266.35 341.04 264.62 340.88 C 262.90 340.71 261.40 340.85 260.38 341.00 C 259.35 341.15 258.92 341.46 258.50 341.75 C 258.08 342.04 258.15 340.71 257.88 342.75 C 257.60 344.79 257.25 351.42 256.88 354.00 C 256.50 356.58 256.81 355.42 255.62 358.25 C 254.44 361.08 251.71 367.17 249.75 371.00 C 247.79 374.83 246.08 377.69 243.88 381.25 C 241.67 384.81 240.75 386.48 236.50 392.38 C 232.25 398.27 223.02 410.62 218.38 416.62 C 213.73 422.62 211.92 424.67 208.62 428.38 C 205.33 432.08 200.40 436.83 198.62 438.88 C 196.85 440.92 197.85 440.15 198.00 440.62 C 198.15 441.10 198.56 441.56 199.50 441.75 C 200.44 441.94 202.31 442.06 203.62 441.75 C 204.94 441.44 206.35 440.50 207.38 439.88 C 208.40 439.25 208.21 438.85 209.75 438.00 C 211.29 437.15 213.77 436.44 216.62 434.75 C 219.48 433.06 221.23 432.21 226.88 427.88 C 232.52 423.54 244.25 414.27 250.50 408.75 C 256.75 403.23 259.48 400.04 264.38 394.75 C 269.27 389.46 274.98 382.10 279.88 377.00 C 284.77 371.90 291.27 366.67 293.75 364.12 C 296.23 361.58 294.58 362.83 294.75 361.75 C 294.92 360.67 294.92 358.75 294.75 357.62 C 294.58 356.50 294.29 355.92 293.75 355.00 C 293.21 354.08 292.52 353.15 291.50 352.12 Z" id="s-8-f-0"/>
<clipPath id="c-s-8"><use href="#s-8-f-0"/></clipPath>
<path d="M 334.12 337.00 C 333.60 337.54 333.85 339.42 334.00 340.25 C 334.15 341.08 334.23 341.04 335.00 342.00 C 335.77 342.96 337.06 344.54 338.62 346.00 C 340.19 347.46 342.23 348.79 344.38 350.75 C 346.52 352.71 348.83 355.00 351.50 357.75 C 354.17 360.50 356.38 362.65 360.38 367.25 C 364.38 371.85 369.44 377.73 375.50 385.38 C 381.56 393.02 391.48 406.50 396.75 413.12 C 402.02 419.75 403.54 421.40 407.12 425.12 C 410.71 428.85 415.17 432.90 418.25 435.50 C 421.33 438.10 423.33 439.38 425.62 440.75 C 427.92 442.12 430.38 443.25 432.00 443.75 C 433.62 444.25 434.52 443.90 435.38 443.75 C 436.23 443.60 436.40 443.58 437.12 442.88 C 437.85 442.17 438.98 441.10 439.75 439.50 C 440.52 437.90 441.42 435.94 441.75 433.25 C 442.08 430.56 441.94 426.29 441.75 423.38 C 441.56 420.46 441.12 418.19 440.62 415.75 C 440.12 413.31 439.75 411.56 438.75 408.75 C 437.75 405.94 435.77 401.25 434.62 398.88 C 433.48 396.50 433.56 396.65 431.88 394.50 C 430.19 392.35 426.94 388.56 424.50 386.00 C 422.06 383.44 420.06 381.58 417.25 379.12 C 414.44 376.67 411.15 373.96 407.62 371.25 C 404.10 368.54 399.71 365.23 396.12 362.88 C 392.54 360.52 390.81 359.60 386.12 357.12 C 381.44 354.65 373.69 350.67 368.00 348.00 C 362.31 345.33 356.33 342.79 352.00 341.12 C 347.67 339.46 344.48 338.69 342.00 338.00 C 339.52 337.31 338.44 337.17 337.12 337.00 C 335.81 336.83 334.65 336.46 334.12 337.00 Z" id="s-9-f-0"/>
<clipPath id="c-s-9"><use href="#s-9-f-0"/></clipPath>
</defs>
<g id="s-0" clip-path="url(#c-s-0)">
<use href="#s-0-f-0"/>
<path d="M 96.38 55.00 C 95.10 55.12 94.46 55.56 93.88 55.88 C 93.29 56.19 93.21 56.25 92.88 56.88 C 92.54 57.50 91.98 58.23 91.88 59.62 C 91.77 61.02 91.77 62.96 92.25 65.25 C 92.73 67.54 94.06 70.71 94.75 73.38 C 95.44 76.04 95.88 77.00 96.38 81.25 C 96.88 85.50 97.52 93.12 97.75 98.88 C 97.98 104.62 97.92 109.35 97.75 115.75 C 97.58 122.15 97.42 128.38 96.75 137.25 C 96.08 146.12 95.25 156.85 93.75 169.00 C 92.25 181.15 89.04 202.23 87.75 210.12 C 86.46 218.02 86.54 213.60 86.00 216.38 C 85.46 219.15 85.19 222.88 84.50 226.75 C 83.81 230.62 82.33 237.02 81.88 239.62 C 81.42 242.23 82.77 237.62 81.75 242.38 C 80.73 247.12 77.23 262.06 75.75 268.12 C 74.27 274.19 73.65 276.33 72.88 278.75 C 72.10 281.17 71.75 280.81 71.12 282.62 C 70.50 284.44 69.46 287.35 69.12 289.62 C 68.79 291.90 68.83 294.62 69.12 296.25 C 69.42 297.88 69.65 297.94 70.88 299.38 C 72.10 300.81 71.94 301.23 76.50 304.88 C 81.06 308.52 91.69 315.90 98.25 321.25 C 104.81 326.60 109.02 330.17 115.88 337.00 C 122.73 343.83 133.94 356.15 139.38 362.25 C 144.81 368.35 145.06 369.06 148.50 373.62 C 151.94 378.19 157.27 386.08 160.00 389.62 C 162.73 393.17 163.44 393.54 164.88 394.88 C 166.31 396.21 167.58 397.00 168.62 397.62 C 169.67 398.25 169.83 398.44 171.12 398.62 C 172.42 398.81 175.40 398.98 176.38 398.75 C 177.35 398.52 176.92 404.48 177.00 397.25 C 177.08 390.02 177.71 363.27 176.88 355.38 C 176.04 347.48 174.92 352.60 172.00 349.88 C 169.08 347.15 163.62 342.46 159.38 339.00 C 155.12 335.54 153.90 334.12 146.50 329.12 C 139.10 324.12 123.19 314.06 115.00 309.00 C 106.81 303.94 101.02 301.00 97.38 298.75 C 93.73 296.50 94.15 296.40 93.12 295.50 C 92.10 294.60 91.77 294.17 91.25 293.38 C 90.73 292.58 90.04 292.71 90.00 290.75 C 89.96 288.79 90.33 285.52 91.00 281.62 C 91.67 277.73 91.69 275.73 94.00 267.38 C 96.31 259.02 102.23 240.81 104.88 231.50 C 107.52 222.19 108.85 215.98 109.88 211.50 C 110.90 207.02 108.71 215.25 111.00 204.62 C 113.29 194.00 120.62 161.79 123.62 147.75 C 126.62 133.71 127.50 126.88 129.00 120.38 C 130.50 113.88 131.62 112.40 132.62 108.75 C 133.62 105.10 134.15 101.48 135.00 98.50 C 135.85 95.52 137.10 93.02 137.75 90.88 C 138.40 88.73 138.75 87.19 138.88 85.62 C 139.00 84.06 138.88 82.96 138.50 81.50 C 138.12 80.04 137.52 78.33 136.62 76.88 C 135.73 75.42 134.48 74.04 133.12 72.75 C 131.77 71.46 130.83 70.73 128.50 69.12 C 126.17 67.52 122.21 64.94 119.12 63.12 C 116.04 61.31 112.94 59.58 110.00 58.25 C 107.06 56.92 103.77 55.67 101.50 55.12 C 99.23 54.58 97.65 54.88 96.38 55.00 Z" id="s-0-f-1"/>
<path d="M 96.38 55.00 C 95.10 55.12 94.46 55.56 93.88 55.88 C 93.29 56.19 93.21 56.25 92.88 56.88 C 92.54 57.50 91.98 58.23 91.88 59.62 C 91.77 61.02 91.77 62.96 92.25 65.25 C 92.73 67.54 94.06 70.71 94.75 73.38 C 95.44 76.04 95.88 77.00 96.38 81.25 C 96.88 85.50 97.52 93.12 97.75 98.88 C 97.98 104.62 97.92 109.35 97.75 115.75 C 97.58 122.15 97.42 128.38 96.75 137.25 C 96.08 146.12 95.25 156.85 93.75 169.00 C 92.25 181.15 89.04 202.23 87.75 210.12 C 86.46 218.02 86.54 213.60 86.00 216.38 C 85.46 219.15 85.19 222.88 84.50 226.75 C 83.81 230.62 82.33 237.02 81.88 239.62 C 81.42 242.23 82.77 237.62 81.75 242.38 C 80.73 247.12 77.23 262.06 75.75 268.12 C 74.27 274.19 73.83 275.77 72.88 278.75 C 71.92 281.73 70.65 284.06 70.00 286.00 C 69.35 287.94 69.15 288.67 69.00 290.38 C 68.85 292.08 68.81 294.75 69.12 296.25 C 69.44 297.75 69.81 298.08 70.88 299.38 C 71.94 300.67 72.29 301.44 75.50 304.00 C 78.71 306.56 84.75 310.52 90.12 314.75 C 95.50 318.98 103.46 325.67 107.75 329.38 C 112.04 333.08 112.44 333.48 115.88 337.00 C 119.31 340.52 126.21 348.31 128.38 350.50 C 130.54 352.69 128.77 350.40 128.88 350.12 C 128.98 349.85 129.00 354.23 129.00 348.88 C 129.00 343.52 131.21 324.65 128.88 318.00 C 126.54 311.35 120.46 312.35 115.00 309.00 C 109.54 305.65 100.08 300.48 96.12 297.88 C 92.17 295.27 92.27 294.56 91.25 293.38 C 90.23 292.19 90.21 291.58 90.00 290.75 C 89.79 289.92 89.33 292.27 90.00 288.38 C 90.67 284.48 91.52 276.85 94.00 267.38 C 96.48 257.90 102.23 240.81 104.88 231.50 C 107.52 222.19 108.85 215.98 109.88 211.50 C 110.90 207.02 108.71 215.25 111.00 204.62 C 113.29 194.00 120.62 161.79 123.62 147.75 C 126.62 133.71 127.50 126.88 129.00 120.38 C 130.50 113.88 131.62 112.40 132.62 108.75 C 133.62 105.10 134.00 102.00 135.00 98.50 C 136.00 95.00 137.98 90.25 138.62 87.75 C 139.27 85.25 139.04 85.02 138.88 83.50 C 138.71 81.98 138.17 79.96 137.62 78.62 C 137.08 77.29 136.56 76.65 135.62 75.50 C 134.69 74.35 133.46 73.00 132.00 71.75 C 130.54 70.50 129.02 69.44 126.88 68.00 C 124.73 66.56 122.08 64.81 119.12 63.12 C 116.17 61.44 112.06 59.21 109.12 57.88 C 106.19 56.54 103.62 55.60 101.50 55.12 C 99.38 54.65 97.65 54.88 96.38 55.00 Z" id="s-0-f-2"/>
<path d="M 99.62 54.88 C 98.21 54.69 97.33 54.83 96.38 55.00 C 95.42 55.17 94.46 55.56 93.88 55.88 C 93.29 56.19 93.21 56.25 92.88 56.88 C 92.54 57.50 91.98 58.23 91.88 59.62 C 91.77 61.02 91.77 62.96 92.25 65.25 C 92.73 67.54 94.06 70.71 94.75 73.38 C 95.44 76.04 95.88 77.00 96.38 81.25 C 96.88 85.50 97.52 93.12 97.75 98.88 C 97.98 104.62 97.92 109.35 97.75 115.75 C 97.58 122.15 97.58 127.04 96.75 137.25 C 95.92 147.46 94.25 164.85 92.75 177.00 C 91.25 189.15 88.88 203.56 87.75 210.12 C 86.62 216.69 86.54 213.60 86.00 216.38 C 85.46 219.15 85.19 222.88 84.50 226.75 C 83.81 230.62 82.33 237.02 81.88 239.62 C 81.42 242.23 82.77 237.62 81.75 242.38 C 80.73 247.12 77.23 262.06 75.75 268.12 C 74.27 274.19 73.65 276.33 72.88 278.75 C 72.10 281.17 71.77 280.69 71.12 282.62 C 70.48 284.56 69.33 288.10 69.00 290.38 C 68.67 292.65 68.81 294.75 69.12 296.25 C 69.44 297.75 69.65 297.94 70.88 299.38 C 72.10 300.81 74.88 303.48 76.50 304.88 C 78.12 306.27 79.75 307.40 80.62 307.75 C 81.50 308.10 80.23 309.88 81.75 307.00 C 83.27 304.12 88.21 294.73 89.75 290.50 C 91.29 286.27 90.29 285.48 91.00 281.62 C 91.71 277.77 91.69 275.73 94.00 267.38 C 96.31 259.02 102.23 240.81 104.88 231.50 C 107.52 222.19 108.85 215.98 109.88 211.50 C 110.90 207.02 108.71 215.25 111.00 204.62 C 113.29 194.00 120.62 161.79 123.62 147.75 C 126.62 133.71 127.50 126.88 129.00 120.38 C 130.50 113.88 131.62 112.40 132.62 108.75 C 133.62 105.10 134.15 101.48 135.00 98.50 C 135.85 95.52 137.10 93.02 137.75 90.88 C 138.40 88.73 138.71 86.98 138.88 85.62 C 139.04 84.27 138.96 83.92 138.75 82.75 C 138.54 81.58 138.15 79.83 137.62 78.62 C 137.10 77.42 136.56 76.65 135.62 75.50 C 134.69 74.35 134.75 73.81 132.00 71.75 C 129.25 69.69 122.46 65.21 119.12 63.12 C 115.79 61.04 114.38 60.42 112.00 59.25 C 109.62 58.08 106.94 56.85 104.88 56.12 C 102.81 55.40 101.04 55.06 99.62 54.88 Z" id="s-0-f-3"/>
<path d="M 100.75 55.00 C 99.33 54.81 97.52 54.85 96.38 55.00 C 95.23 55.15 94.46 55.56 93.88 55.88 C 93.29 56.19 93.21 56.25 92.88 56.88 C 92.54 57.50 91.98 58.23 91.88 59.62 C 91.77 61.02 91.77 62.96 92.25 65.25 C 92.73 67.54 94.06 70.71 94.75 73.38 C 95.44 76.04 95.90 77.62 96.38 81.25 C 96.85 84.88 97.42 88.75 97.62 95.12 C 97.83 101.50 97.94 110.40 97.62 119.50 C 97.31 128.60 96.56 140.17 95.75 149.75 C 94.94 159.33 94.08 166.94 92.75 177.00 C 91.42 187.06 88.88 203.56 87.75 210.12 C 86.62 216.69 86.54 213.60 86.00 216.38 C 85.46 219.15 85.19 222.88 84.50 226.75 C 83.81 230.62 82.33 237.02 81.88 239.62 C 81.42 242.23 82.77 237.62 81.75 242.38 C 80.73 247.12 77.23 262.06 75.75 268.12 C 74.27 274.19 73.83 275.77 72.88 278.75 C 71.92 281.73 70.65 284.06 70.00 286.00 C 69.35 287.94 69.15 288.94 69.00 290.38 C 68.85 291.81 66.06 293.88 69.12 294.62 C 72.19 295.38 83.94 295.56 87.38 294.88 C 90.81 294.19 89.15 292.71 89.75 290.50 C 90.35 288.29 90.29 285.48 91.00 281.62 C 91.71 277.77 91.69 275.73 94.00 267.38 C 96.31 259.02 102.23 240.81 104.88 231.50 C 107.52 222.19 108.85 215.98 109.88 211.50 C 110.90 207.02 108.71 215.25 111.00 204.62 C 113.29 194.00 120.62 161.79 123.62 147.75 C 126.62 133.71 127.50 126.88 129.00 120.38 C 130.50 113.88 131.62 112.40 132.62 108.75 C 133.62 105.10 134.00 102.00 135.00 98.50 C 136.00 95.00 137.98 90.25 138.62 87.75 C 139.27 85.25 139.04 85.02 138.88 83.50 C 138.71 81.98 138.17 79.96 137.62 78.62 C 137.08 77.29 136.56 76.65 135.62 75.50 C 134.69 74.35 134.75 73.81 132.00 71.75 C 129.25 69.69 122.46 65.21 119.12 63.12 C 115.79 61.04 114.38 60.42 112.00 59.25 C 109.62 58.08 106.75 56.83 104.88 56.12 C 103.00 55.42 102.17 55.19 100.75 55.00 Z" id="s-0-f-4"/>
<path d="M 99.62 54.88 C 98.21 54.69 97.33 54.83 96.38 55.00 C 95.42 55.17 94.46 55.56 93.88 55.88 C 93.29 56.19 93.21 56.25 92.88 56.88 C 92.54 57.50 92.02 58.44 91.88 59.62 C 91.73 60.81 91.35 61.00 92.00 64.00 C 92.65 67.00 94.94 74.15 95.75 77.62 C 96.56 81.10 96.54 81.33 96.88 84.88 C 97.21 88.42 97.60 93.73 97.75 98.88 C 97.90 104.02 98.08 107.27 97.75 115.75 C 97.42 124.23 96.58 139.54 95.75 149.75 C 94.92 159.96 94.08 166.94 92.75 177.00 C 91.42 187.06 88.88 203.56 87.75 210.12 C 86.62 216.69 86.54 213.60 86.00 216.38 C 85.46 219.15 85.19 222.88 84.50 226.75 C 83.81 230.62 82.33 237.02 81.88 239.62 C 81.42 242.23 81.92 241.44 81.75 242.38 C 81.58 243.31 80.83 244.58 80.88 245.25 C 80.92 245.92 81.04 246.10 82.00 246.38 C 82.96 246.65 83.88 246.77 86.62 246.88 C 89.38 246.98 96.25 247.02 98.50 247.00 C 100.75 246.98 99.77 246.90 100.12 246.75 C 100.48 246.60 99.83 248.67 100.62 246.12 C 101.42 243.58 103.33 237.27 104.88 231.50 C 106.42 225.73 108.85 215.98 109.88 211.50 C 110.90 207.02 108.71 215.25 111.00 204.62 C 113.29 194.00 120.62 161.79 123.62 147.75 C 126.62 133.71 127.50 126.88 129.00 120.38 C 130.50 113.88 131.62 112.40 132.62 108.75 C 133.62 105.10 134.15 101.48 135.00 98.50 C 135.85 95.52 137.10 93.02 137.75 90.88 C 138.40 88.73 138.71 86.98 138.88 85.62 C 139.04 84.27 138.96 83.92 138.75 82.75 C 138.54 81.58 138.15 79.83 137.62 78.62 C 137.10 77.42 136.56 76.65 135.62 75.50 C 134.69 74.35 134.75 73.81 132.00 71.75 C 129.25 69.69 122.46 65.21 119.12 63.12 C 115.79 61.04 114.38 60.42 112.00 59.25 C 109.62 58.08 106.94 56.85 104.88 56.12 C 102.81 55.40 101.04 55.06 99.62 54.88 Z" id="s-0-f-5"/>
<path d="M 96.38 55.00 C 95.10 55.12 94.46 55.56 93.88 55.88 C 93.29 56.19 93.19 56.38 92.88 56.88 C 92.56 57.38 92.17 58.02 92.00 58.88 C 91.83 59.73 91.83 60.94 91.88 62.00 C 91.92 63.06 91.60 62.65 92.25 65.25 C 92.90 67.85 94.98 74.35 95.75 77.62 C 96.52 80.90 96.54 81.33 96.88 84.88 C 97.21 88.42 97.62 93.10 97.75 98.88 C 97.88 104.65 97.79 113.10 97.62 119.50 C 97.46 125.90 97.23 130.50 96.75 137.25 C 96.27 144.00 95.94 149.79 94.75 160.00 C 93.56 170.21 90.19 192.00 89.62 198.50 C 89.06 205.00 87.67 198.94 91.38 199.00 C 95.08 199.06 108.31 199.06 111.88 198.88 C 115.44 198.69 111.62 202.44 112.75 197.88 C 113.88 193.31 115.92 184.42 118.62 171.50 C 121.33 158.58 126.67 130.83 129.00 120.38 C 131.33 109.92 131.62 112.40 132.62 108.75 C 133.62 105.10 134.00 102.00 135.00 98.50 C 136.00 95.00 137.98 90.25 138.62 87.75 C 139.27 85.25 139.04 85.02 138.88 83.50 C 138.71 81.98 138.17 79.96 137.62 78.62 C 137.08 77.29 136.56 76.65 135.62 75.50 C 134.69 74.35 133.46 73.00 132.00 71.75 C 130.54 70.50 129.02 69.44 126.88 68.00 C 124.73 66.56 122.08 64.81 119.12 63.12 C 116.17 61.44 112.06 59.21 109.12 57.88 C 106.19 56.54 103.62 55.60 101.50 55.12 C 99.38 54.65 97.65 54.88 96.38 55.00 Z" id="s-0-f-6"/>
<path d="M 94.88 55.38 C 93.92 55.54 94.29 55.46 93.88 55.88 C 93.46 56.29 92.71 56.85 92.38 57.88 C 92.04 58.90 91.90 60.77 91.88 62.00 C 91.85 63.23 91.60 62.65 92.25 65.25 C 92.90 67.85 94.98 74.35 95.75 77.62 C 96.52 80.90 96.56 81.96 96.88 84.88 C 97.19 87.79 97.50 89.35 97.62 95.12 C 97.75 100.90 97.96 110.27 97.62 119.50 C 97.29 128.73 95.60 145.25 95.62 150.50 C 95.65 155.75 93.25 150.98 97.75 151.00 C 102.25 151.02 118.31 151.17 122.62 150.62 C 126.94 150.08 122.56 152.79 123.62 147.75 C 124.69 142.71 127.50 126.88 129.00 120.38 C 130.50 113.88 131.62 112.40 132.62 108.75 C 133.62 105.10 134.00 102.00 135.00 98.50 C 136.00 95.00 137.98 90.25 138.62 87.75 C 139.27 85.25 138.96 84.77 138.88 83.50 C 138.79 82.23 138.50 81.23 138.12 80.12 C 137.75 79.02 137.46 78.10 136.62 76.88 C 135.79 75.65 134.75 74.23 133.12 72.75 C 131.50 71.27 129.21 69.60 126.88 68.00 C 124.54 66.40 121.94 64.75 119.12 63.12 C 116.31 61.50 112.44 59.44 110.00 58.25 C 107.56 57.06 106.23 56.56 104.50 56.00 C 102.77 55.44 101.23 54.98 99.62 54.88 C 98.02 54.77 95.83 55.21 94.88 55.38 Z" id="s-0-f-7"/>
<path d="M 93.88 55.88 C 93.29 56.19 93.19 56.38 92.88 56.88 C 92.56 57.38 92.15 57.69 92.00 58.88 C 91.85 60.06 91.54 61.58 92.00 64.00 C 92.46 66.42 94.02 70.50 94.75 73.38 C 95.48 76.25 95.98 78.92 96.38 81.25 C 96.77 83.58 96.90 84.08 97.12 87.38 C 97.35 90.67 97.56 98.44 97.75 101.00 C 97.94 103.56 92.31 102.42 98.25 102.75 C 104.19 103.08 127.42 103.04 133.38 103.00 C 139.33 102.96 133.27 104.52 134.00 102.50 C 134.73 100.48 136.94 93.69 137.75 90.88 C 138.56 88.06 138.71 86.98 138.88 85.62 C 139.04 84.27 138.96 83.92 138.75 82.75 C 138.54 81.58 138.27 79.98 137.62 78.62 C 136.98 77.27 135.81 75.77 134.88 74.62 C 133.94 73.48 133.33 72.85 132.00 71.75 C 130.67 70.65 129.02 69.44 126.88 68.00 C 124.73 66.56 121.94 64.75 119.12 63.12 C 116.31 61.50 113.06 59.60 110.00 58.25 C 106.94 56.90 103.02 55.54 100.75 55.00 C 98.48 54.46 97.52 54.85 96.38 55.00 C 95.23 55.15 94.46 55.56 93.88 55.88 Z" id="s-0-f-8"/>
</g>
<g id="s-1" clip-path="url(#c-s-1)">
<use href="#s-1-f-0"/>
<path d="M 181.38 167.00 C 178.33 165.46 172.19 163.02 169.25 162.00 C 166.31 160.98 165.35 161.04 163.75 160.88 C 162.15 160.71 160.81 160.81 159.62 161.00 C 158.44 161.19 157.50 161.50 156.62 162.00 C 155.75 162.50 154.98 163.29 154.38 164.00 C 153.77 164.71 153.21 165.35 153.00 166.25 C 152.79 167.15 152.52 167.29 153.12 169.38 C 153.73 171.46 155.85 176.44 156.62 178.75 C 157.40 181.06 157.40 180.94 157.75 183.25 C 158.10 185.56 158.58 190.40 158.75 192.62 C 158.92 194.85 158.94 195.21 158.75 196.62 C 158.56 198.04 157.96 197.67 157.62 201.12 C 157.29 204.58 157.23 211.75 156.75 217.38 C 156.27 223.00 155.75 228.85 154.75 234.88 C 153.75 240.90 152.25 247.52 150.75 253.50 C 149.25 259.48 148.25 263.10 145.75 270.75 C 143.25 278.40 138.44 292.29 135.75 299.38 C 133.06 306.46 131.00 310.46 129.62 313.25 C 128.25 316.04 128.15 315.42 127.50 316.12 C 126.85 316.83 127.42 314.67 125.75 317.50 C 124.08 320.33 119.02 330.38 117.50 333.12 C 115.98 335.88 117.06 333.12 116.62 334.00 C 116.19 334.88 116.35 335.98 114.88 338.38 C 113.40 340.77 110.46 344.96 107.75 348.38 C 105.04 351.79 101.98 355.31 98.62 358.88 C 95.27 362.44 90.62 366.96 87.62 369.75 C 84.62 372.54 85.65 371.67 80.62 375.62 C 75.60 379.58 62.94 389.46 57.50 393.50 C 52.06 397.54 49.65 398.67 48.00 399.88 C 46.35 401.08 42.96 400.58 47.62 400.75 C 52.29 400.92 69.27 402.04 76.00 400.88 C 82.73 399.71 83.69 396.75 88.00 393.75 C 92.31 390.75 97.19 387.02 101.88 382.88 C 106.56 378.73 112.06 373.29 116.12 368.88 C 120.19 364.46 123.75 359.33 126.25 356.38 C 128.75 353.42 127.85 355.52 131.12 351.12 C 134.40 346.73 143.35 333.81 145.88 330.00 C 148.40 326.19 145.12 330.40 146.25 328.25 C 147.38 326.10 150.88 320.48 152.62 317.12 C 154.38 313.77 154.42 314.10 156.75 308.12 C 159.08 302.15 163.98 289.06 166.62 281.25 C 169.27 273.44 170.79 267.77 172.62 261.25 C 174.46 254.73 175.21 252.46 177.62 242.12 C 180.04 231.79 185.21 207.52 187.12 199.25 C 189.04 190.98 188.02 195.58 189.12 192.50 C 190.23 189.42 193.02 183.21 193.75 180.75 C 194.48 178.29 193.98 178.83 193.50 177.75 C 193.02 176.67 191.88 175.33 190.88 174.25 C 189.88 173.17 189.08 172.46 187.50 171.25 C 185.92 170.04 184.42 168.54 181.38 167.00 Z" id="s-1-f-1"/>
<path d="M 169.25 162.00 C 166.58 161.12 165.52 161.00 163.75 160.88 C 161.98 160.75 159.81 161.06 158.62 161.25 C 157.44 161.44 157.21 161.67 156.62 162.00 C 156.04 162.33 155.73 162.54 155.12 163.25 C 154.52 163.96 153.33 165.23 153.00 166.25 C 152.67 167.27 152.52 167.29 153.12 169.38 C 153.73 171.46 155.85 176.44 156.62 178.75 C 157.40 181.06 157.42 181.33 157.75 183.25 C 158.08 185.17 158.46 188.02 158.62 190.25 C 158.79 192.48 158.92 194.81 158.75 196.62 C 158.58 198.44 157.96 197.67 157.62 201.12 C 157.29 204.58 157.23 211.75 156.75 217.38 C 156.27 223.00 155.75 228.85 154.75 234.88 C 153.75 240.90 153.08 244.98 150.75 253.50 C 148.42 262.02 143.29 278.25 140.75 286.00 C 138.21 293.75 137.46 295.29 135.50 300.00 C 133.54 304.71 130.62 311.33 129.00 314.25 C 127.38 317.17 127.67 314.35 125.75 317.50 C 123.83 320.65 119.02 330.38 117.50 333.12 C 115.98 335.88 117.06 333.12 116.62 334.00 C 116.19 334.88 116.35 335.98 114.88 338.38 C 113.40 340.77 109.48 346.08 107.75 348.38 C 106.02 350.67 105.00 351.38 104.50 352.12 C 104.00 352.88 100.81 352.73 104.75 352.88 C 108.69 353.02 124.04 353.02 128.12 353.00 C 132.21 352.98 128.75 353.06 129.25 352.75 C 129.75 352.44 128.35 354.92 131.12 351.12 C 133.90 347.33 143.35 333.81 145.88 330.00 C 148.40 326.19 145.60 329.48 146.25 328.25 C 146.90 327.02 147.83 326.38 149.75 322.62 C 151.67 318.88 155.27 311.65 157.75 305.75 C 160.23 299.85 162.15 294.67 164.62 287.25 C 167.10 279.83 170.46 268.77 172.62 261.25 C 174.79 253.73 175.21 252.46 177.62 242.12 C 180.04 231.79 185.21 207.52 187.12 199.25 C 189.04 190.98 188.02 195.58 189.12 192.50 C 190.23 189.42 192.98 183.08 193.75 180.75 C 194.52 178.42 193.94 179.23 193.75 178.50 C 193.56 177.77 193.67 177.58 192.62 176.38 C 191.58 175.17 189.65 172.96 187.50 171.25 C 185.35 169.54 182.79 167.67 179.75 166.12 C 176.71 164.58 171.92 162.88 169.25 162.00 Z" id="s-1-f-2"/>
<path d="M 165.50 161.00 C 162.98 160.50 161.10 160.83 159.62 161.00 C 158.15 161.17 157.50 161.50 156.62 162.00 C 155.75 162.50 154.98 163.29 154.38 164.00 C 153.77 164.71 153.21 165.35 153.00 166.25 C 152.79 167.15 152.52 167.29 153.12 169.38 C 153.73 171.46 155.85 176.44 156.62 178.75 C 157.40 181.06 157.40 180.94 157.75 183.25 C 158.10 185.56 158.58 190.40 158.75 192.62 C 158.92 194.85 158.92 195.38 158.75 196.62 C 158.58 197.88 158.04 198.29 157.75 200.12 C 157.46 201.96 157.17 204.75 157.00 207.62 C 156.83 210.50 156.96 214.02 156.75 217.38 C 156.54 220.73 156.25 223.96 155.75 227.75 C 155.25 231.54 154.58 235.83 153.75 240.12 C 152.92 244.42 152.92 245.85 150.75 253.50 C 148.58 261.15 143.60 277.58 140.75 286.00 C 137.90 294.42 134.75 300.85 133.62 304.00 C 132.50 307.15 130.06 304.71 134.00 304.88 C 137.94 305.04 153.17 305.17 157.25 305.00 C 161.33 304.83 157.08 307.38 158.50 303.88 C 159.92 300.38 163.40 291.10 165.75 284.00 C 168.10 276.90 170.29 269.71 172.62 261.25 C 174.96 252.79 177.52 242.88 179.75 233.25 C 181.98 223.62 184.44 210.29 186.00 203.50 C 187.56 196.71 187.83 196.29 189.12 192.50 C 190.42 188.71 193.00 183.15 193.75 180.75 C 194.50 178.35 193.94 179.02 193.62 178.12 C 193.31 177.23 193.44 176.92 191.88 175.38 C 190.31 173.83 186.27 170.42 184.25 168.88 C 182.23 167.33 181.33 166.94 179.75 166.12 C 178.17 165.31 177.12 164.85 174.75 164.00 C 172.38 163.15 168.02 161.50 165.50 161.00 Z" id="s-1-f-3"/>
<path d="M 159.62 161.00 C 157.98 161.12 157.31 161.69 156.62 162.00 C 155.94 162.31 156.10 162.17 155.50 162.88 C 154.90 163.58 153.40 165.17 153.00 166.25 C 152.60 167.33 152.52 167.29 153.12 169.38 C 153.73 171.46 155.85 176.44 156.62 178.75 C 157.40 181.06 157.42 181.33 157.75 183.25 C 158.08 185.17 158.46 188.02 158.62 190.25 C 158.79 192.48 158.92 194.81 158.75 196.62 C 158.58 198.44 157.96 197.67 157.62 201.12 C 157.29 204.58 157.23 211.75 156.75 217.38 C 156.27 223.00 155.42 230.25 154.75 234.88 C 154.08 239.50 153.56 241.65 152.75 245.12 C 151.94 248.60 150.12 253.85 149.88 255.75 C 149.62 257.65 150.06 256.31 151.25 256.50 C 152.44 256.69 153.29 256.81 157.00 256.88 C 160.71 256.94 169.71 260.81 173.50 256.88 C 177.29 252.94 177.67 242.15 179.75 233.25 C 181.83 224.35 184.44 210.29 186.00 203.50 C 187.56 196.71 187.83 196.27 189.12 192.50 C 190.42 188.73 192.96 183.12 193.75 180.88 C 194.54 178.62 194.06 179.75 193.88 179.00 C 193.69 178.25 193.19 177.23 192.62 176.38 C 192.06 175.52 191.46 174.81 190.50 173.88 C 189.54 172.94 188.67 172.04 186.88 170.75 C 185.08 169.46 183.15 167.71 179.75 166.12 C 176.35 164.54 169.85 162.10 166.50 161.25 C 163.15 160.40 161.27 160.88 159.62 161.00 Z" id="s-1-f-4"/>
<path d="M 156.75 162.00 C 155.79 162.60 154.50 163.92 153.88 164.62 C 153.25 165.33 153.15 165.56 153.00 166.25 C 152.85 166.94 152.38 166.60 153.00 168.75 C 153.62 170.90 155.81 175.54 156.75 179.12 C 157.69 182.71 158.29 187.33 158.62 190.25 C 158.96 193.17 158.90 194.98 158.75 196.62 C 158.60 198.27 158.04 198.15 157.75 200.12 C 157.46 202.10 156.75 207.02 157.00 208.50 C 157.25 209.98 154.67 208.92 159.25 209.00 C 163.83 209.08 180.08 209.54 184.50 209.00 C 188.92 208.46 185.50 206.67 185.75 205.75 C 186.00 204.83 185.44 205.71 186.00 203.50 C 186.56 201.29 187.83 196.27 189.12 192.50 C 190.42 188.73 192.96 183.12 193.75 180.88 C 194.54 178.62 194.00 179.67 193.88 179.00 C 193.75 178.33 193.56 177.73 193.00 176.88 C 192.44 176.02 191.96 175.21 190.50 173.88 C 189.04 172.54 186.04 170.17 184.25 168.88 C 182.46 167.58 181.31 166.94 179.75 166.12 C 178.19 165.31 177.25 164.85 174.88 164.00 C 172.50 163.15 168.04 161.50 165.50 161.00 C 162.96 160.50 161.08 160.83 159.62 161.00 C 158.17 161.17 157.71 161.40 156.75 162.00 Z" id="s-1-f-5"/>
</g>
<g id="s-2" clip-path="url(#c-s-2)">
<use href="#s-2-f-0"/>
<path d="M 166.12 197.88 C 165.77 195.58 164.65 197.54 164.12 197.62 C 163.60 197.71 163.79 198.19 163.00 198.38 C 162.21 198.56 160.08 198.54 159.38 198.75 C 158.67 198.96 160.25 199.12 158.75 199.62 C 157.25 200.12 158.33 200.08 150.38 201.75 C 142.42 203.42 118.35 208.31 111.00 209.62 C 103.65 210.94 107.29 209.50 106.25 209.62 C 105.21 209.75 105.88 210.19 104.75 210.38 C 103.62 210.56 100.50 210.58 99.50 210.75 C 98.50 210.92 99.54 211.23 98.75 211.38 C 97.96 211.52 95.79 211.44 94.75 211.62 C 93.71 211.81 93.56 212.31 92.50 212.50 C 91.44 212.69 89.19 212.92 88.38 212.75 C 87.56 212.58 87.83 211.35 87.62 211.50 C 87.42 211.65 88.60 212.92 87.12 213.62 C 85.65 214.33 84.40 214.90 78.75 215.75 C 73.10 216.60 59.83 218.40 53.25 218.75 C 46.67 219.10 43.88 218.00 39.25 217.88 C 34.62 217.75 28.15 217.81 25.50 218.00 C 22.85 218.19 23.92 218.58 23.38 219.00 C 22.83 219.42 22.48 219.58 22.25 220.50 C 22.02 221.42 21.56 222.98 22.00 224.50 C 22.44 226.02 23.40 227.56 24.88 229.62 C 26.35 231.69 29.08 234.85 30.88 236.88 C 32.67 238.90 34.17 240.42 35.62 241.75 C 37.08 243.08 37.67 243.52 39.62 244.88 C 41.58 246.23 45.35 248.71 47.38 249.88 C 49.40 251.04 50.52 251.40 51.75 251.88 C 52.98 252.35 53.46 252.62 54.75 252.75 C 56.04 252.88 57.94 252.96 59.50 252.62 C 61.06 252.29 62.60 251.52 64.12 250.75 C 65.65 249.98 66.02 249.31 68.62 248.00 C 71.23 246.69 77.27 243.85 79.75 242.88 C 82.23 241.90 82.73 242.38 83.50 242.12 C 84.27 241.88 83.92 241.54 84.38 241.38 C 84.83 241.21 85.81 241.29 86.25 241.12 C 86.69 240.96 86.54 240.54 87.00 240.38 C 87.46 240.21 88.52 240.29 89.00 240.12 C 89.48 239.96 89.42 239.54 89.88 239.38 C 90.33 239.21 91.29 239.29 91.75 239.12 C 92.21 238.96 92.17 238.54 92.62 238.38 C 93.08 238.21 94.04 238.29 94.50 238.12 C 94.96 237.96 94.92 237.54 95.38 237.38 C 95.83 237.21 96.81 237.29 97.25 237.12 C 97.69 236.96 97.54 236.54 98.00 236.38 C 98.46 236.21 99.46 236.31 100.00 236.12 C 100.54 235.94 100.69 235.27 101.25 235.25 C 101.81 235.23 102.94 236.21 103.38 236.00 C 103.81 235.79 95.08 237.31 103.88 234.00 C 112.67 230.69 147.08 219.10 156.12 216.12 C 165.17 213.15 157.67 216.25 158.12 216.12 C 158.58 216.00 157.85 215.88 158.88 215.38 C 159.90 214.88 163.08 213.67 164.25 213.12 C 165.42 212.58 165.54 212.42 165.88 212.12 C 166.21 211.83 166.21 213.75 166.25 211.38 C 166.29 209.00 166.48 200.17 166.12 197.88 Z" id="s-2-f-1"/>
<path d="M 117.88 208.75 C 117.73 206.33 118.27 208.10 117.12 208.25 C 115.98 208.40 112.81 209.40 111.00 209.62 C 109.19 209.85 107.29 209.50 106.25 209.62 C 105.21 209.75 105.88 210.19 104.75 210.38 C 103.62 210.56 100.50 210.58 99.50 210.75 C 98.50 210.92 99.54 211.23 98.75 211.38 C 97.96 211.52 95.79 211.44 94.75 211.62 C 93.71 211.81 93.56 212.31 92.50 212.50 C 91.44 212.69 89.17 212.92 88.38 212.75 C 87.58 212.58 87.94 211.62 87.75 211.50 C 87.56 211.38 87.35 211.65 87.25 212.00 C 87.15 212.35 87.79 213.17 87.12 213.62 C 86.46 214.08 85.81 214.23 83.25 214.75 C 80.69 215.27 75.96 216.15 71.75 216.75 C 67.54 217.35 61.71 218.04 58.00 218.38 C 54.29 218.71 52.62 218.83 49.50 218.75 C 46.38 218.67 43.25 218.00 39.25 217.88 C 35.25 217.75 28.15 217.81 25.50 218.00 C 22.85 218.19 23.92 218.58 23.38 219.00 C 22.83 219.42 22.48 219.58 22.25 220.50 C 22.02 221.42 21.27 222.60 22.00 224.50 C 22.73 226.40 24.21 228.88 26.62 231.88 C 29.04 234.88 33.83 239.98 36.50 242.50 C 39.17 245.02 40.58 245.65 42.62 247.00 C 44.67 248.35 46.88 249.69 48.75 250.62 C 50.62 251.56 52.21 252.27 53.88 252.62 C 55.54 252.98 57.40 252.90 58.75 252.75 C 60.10 252.60 60.35 252.54 62.00 251.75 C 63.65 250.96 65.33 249.60 68.62 248.00 C 71.92 246.40 79.27 243.10 81.75 242.12 C 84.23 241.15 83.06 242.25 83.50 242.12 C 83.94 242.00 83.92 241.54 84.38 241.38 C 84.83 241.21 85.81 241.29 86.25 241.12 C 86.69 240.96 86.54 240.54 87.00 240.38 C 87.46 240.21 88.52 240.29 89.00 240.12 C 89.48 239.96 89.42 239.54 89.88 239.38 C 90.33 239.21 91.29 239.29 91.75 239.12 C 92.21 238.96 92.17 238.54 92.62 238.38 C 93.08 238.21 94.04 238.29 94.50 238.12 C 94.96 237.96 94.92 237.54 95.38 237.38 C 95.83 237.21 96.81 237.29 97.25 237.12 C 97.69 236.96 97.54 236.54 98.00 236.38 C 98.46 236.21 99.46 236.31 100.00 236.12 C 100.54 235.94 100.69 235.27 101.25 235.25 C 101.81 235.23 102.94 236.21 103.38 236.00 C 103.81 235.79 101.50 235.19 103.88 234.00 C 106.25 232.81 115.27 230.75 117.62 228.88 C 119.98 227.00 117.96 226.10 118.00 222.75 C 118.04 219.40 118.02 211.17 117.88 208.75 Z" id="s-2-f-2"/>
<path d="M 69.75 247.50 C 70.71 243.38 69.94 230.79 69.88 226.00 C 69.81 221.21 69.56 220.23 69.38 218.75 C 69.19 217.27 71.44 217.12 68.75 217.12 C 66.06 217.12 58.06 218.62 53.25 218.75 C 48.44 218.88 44.52 218.00 39.88 217.88 C 35.23 217.75 28.12 217.81 25.38 218.00 C 22.62 218.19 23.90 218.58 23.38 219.00 C 22.85 219.42 22.50 219.94 22.25 220.50 C 22.00 221.06 21.88 221.58 21.88 222.38 C 21.88 223.17 21.75 224.04 22.25 225.25 C 22.75 226.46 23.83 228.15 24.88 229.62 C 25.92 231.10 26.56 231.98 28.50 234.12 C 30.44 236.27 33.35 239.88 36.50 242.50 C 39.65 245.12 44.56 248.21 47.38 249.88 C 50.19 251.54 51.48 252.02 53.38 252.50 C 55.27 252.98 56.96 253.04 58.75 252.75 C 60.54 252.46 62.29 251.62 64.12 250.75 C 65.96 249.88 68.79 251.62 69.75 247.50 Z" id="s-2-f-3"/>
</g>
<g id="s-3" clip-path="url(#c-s-3)">
<use href="#s-3-f-0"/>
<path d="M 235.62 75.38 C 234.96 75.71 234.31 76.35 233.88 76.88 C 233.44 77.40 233.12 77.73 233.00 78.50 C 232.88 79.27 232.44 80.73 233.12 81.50 C 233.81 82.27 235.21 81.60 237.12 83.12 C 239.04 84.65 242.88 88.58 244.62 90.62 C 246.38 92.67 246.44 92.75 247.62 95.38 C 248.81 98.00 250.23 101.23 251.75 106.38 C 253.27 111.52 255.00 117.92 256.75 126.25 C 258.50 134.58 260.88 149.92 262.25 156.38 C 263.62 162.83 264.06 162.69 265.00 165.00 C 265.94 167.31 267.25 169.27 267.88 170.25 C 268.50 171.23 266.52 170.77 268.75 170.88 C 270.98 170.98 279.02 171.15 281.25 170.88 C 283.48 170.60 281.69 171.58 282.12 169.25 C 282.56 166.92 283.62 160.08 283.88 156.88 C 284.12 153.67 284.19 154.25 283.62 150.00 C 283.06 145.75 281.81 138.06 280.50 131.38 C 279.19 124.69 277.12 115.58 275.75 109.88 C 274.38 104.17 272.92 99.88 272.25 97.12 C 271.58 94.38 273.96 96.29 271.75 93.38 C 269.54 90.46 261.50 82.19 259.00 79.62 C 256.50 77.06 258.04 78.58 256.75 78.00 C 255.46 77.42 253.08 76.60 251.25 76.12 C 249.42 75.65 247.98 75.33 245.75 75.12 C 243.52 74.92 239.56 74.83 237.88 74.88 C 236.19 74.92 236.29 75.04 235.62 75.38 Z" id="s-3-f-1"/>
<path d="M 234.88 75.88 C 234.29 76.46 233.31 77.60 233.00 78.50 C 232.69 79.40 232.31 80.48 233.00 81.25 C 233.69 82.02 235.98 82.42 237.12 83.12 C 238.27 83.83 238.62 84.25 239.88 85.50 C 241.12 86.75 243.33 88.98 244.62 90.62 C 245.92 92.27 246.27 92.23 247.62 95.38 C 248.98 98.52 251.38 104.98 252.75 109.50 C 254.12 114.02 255.19 120.25 255.88 122.50 C 256.56 124.75 253.19 122.94 256.88 123.00 C 260.56 123.06 274.40 123.10 278.00 122.88 C 281.60 122.65 279.58 126.60 278.50 121.62 C 277.42 116.65 274.75 100.00 271.50 93.00 C 268.25 86.00 261.46 82.12 259.00 79.62 C 256.54 77.12 258.12 78.60 256.75 78.00 C 255.38 77.40 252.77 76.50 250.75 76.00 C 248.73 75.50 246.77 75.19 244.62 75.00 C 242.48 74.81 239.23 74.88 237.88 74.88 C 236.52 74.88 237.00 74.83 236.50 75.00 C 236.00 75.17 235.46 75.29 234.88 75.88 Z" id="s-3-f-2"/>
</g>
<g id="s-4" clip-path="url(#c-s-4)">
<use href="#s-4-f-0"/>
<path d="M 398.88 83.38 C 399.00 82.71 399.23 82.35 398.75 81.38 C 398.27 80.40 397.12 78.79 396.00 77.50 C 394.88 76.21 394.19 75.35 392.00 73.62 C 389.81 71.90 385.40 68.71 382.88 67.12 C 380.35 65.54 379.35 65.15 376.88 64.12 C 374.40 63.10 370.38 61.50 368.00 61.00 C 365.62 60.50 364.90 60.67 362.62 61.12 C 360.35 61.58 357.90 62.81 354.38 63.75 C 350.85 64.69 348.94 65.25 341.50 66.75 C 334.06 68.25 319.98 71.08 309.75 72.75 C 299.52 74.42 288.56 75.73 280.12 76.75 C 271.69 77.77 262.88 78.42 259.12 78.88 C 255.38 79.33 255.58 76.96 257.62 79.50 C 259.67 82.04 262.94 93.04 271.38 94.12 C 279.81 95.21 297.98 88.02 308.25 86.00 C 318.52 83.98 327.65 82.81 333.00 82.00 C 338.35 81.19 337.98 81.29 340.38 81.12 C 342.77 80.96 345.08 80.81 347.38 81.00 C 349.67 81.19 352.56 81.73 354.12 82.25 C 355.69 82.77 356.15 83.46 356.75 84.12 C 357.35 84.79 357.75 83.60 357.75 86.25 C 357.75 88.90 357.31 95.27 356.75 100.00 C 356.19 104.73 354.71 111.98 354.38 114.62 C 354.04 117.27 350.15 115.71 354.75 115.88 C 359.35 116.04 376.62 118.02 382.00 115.62 C 387.38 113.23 385.67 104.98 387.00 101.50 C 388.33 98.02 388.17 97.44 390.00 94.75 C 391.83 92.06 396.52 87.27 398.00 85.38 C 399.48 83.48 398.75 84.04 398.88 83.38 Z" id="s-4-f-1"/>
<path d="M 383.12 67.50 C 382.08 66.81 378.79 65.04 376.88 64.12 C 374.96 63.21 373.10 62.52 371.62 62.00 C 370.15 61.48 369.38 61.17 368.00 61.00 C 366.62 60.83 366.94 60.23 363.38 61.00 C 359.81 61.77 353.60 64.00 346.62 65.62 C 339.65 67.25 332.33 68.92 321.50 70.75 C 310.67 72.58 292.02 75.27 281.62 76.62 C 271.23 77.98 263.08 78.44 259.12 78.88 C 255.17 79.31 258.12 79.08 257.88 79.25 C 257.62 79.42 257.38 79.56 257.62 79.88 C 257.88 80.19 257.12 78.77 259.38 81.12 C 261.62 83.48 262.98 93.19 271.12 94.00 C 279.27 94.81 297.94 88.00 308.25 86.00 C 318.56 84.00 326.88 82.88 333.00 82.00 C 339.12 81.12 337.62 82.73 345.00 80.75 C 352.38 78.77 371.04 72.10 377.25 70.12 C 383.46 68.15 381.27 69.19 382.25 68.88 C 383.23 68.56 382.98 68.48 383.12 68.25 C 383.27 68.02 384.17 68.19 383.12 67.50 Z" id="s-4-f-2"/>
<path d="M 354.00 65.00 C 353.92 62.73 357.04 63.38 353.38 64.00 C 349.71 64.62 339.29 67.29 332.00 68.75 C 324.71 70.21 318.27 71.42 309.62 72.75 C 300.98 74.08 288.54 75.73 280.12 76.75 C 271.71 77.77 262.83 78.46 259.12 78.88 C 255.42 79.29 258.12 79.08 257.88 79.25 C 257.62 79.42 257.38 79.56 257.62 79.88 C 257.88 80.19 257.12 78.77 259.38 81.12 C 261.62 83.48 262.98 93.19 271.12 94.00 C 279.27 94.81 297.94 88.00 308.25 86.00 C 318.56 84.00 327.00 82.85 333.00 82.00 C 339.00 81.15 341.15 81.42 344.25 80.88 C 347.35 80.33 350.02 79.29 351.62 78.75 C 353.23 78.21 353.48 79.92 353.88 77.62 C 354.27 75.33 354.08 67.27 354.00 65.00 Z" id="s-4-f-3"/>
<path d="M 306.00 85.25 C 306.08 83.23 306.15 76.62 306.00 74.62 C 305.85 72.62 309.17 72.92 305.12 73.25 C 301.08 73.58 289.42 75.69 281.75 76.62 C 274.08 77.56 263.15 78.40 259.12 78.88 C 255.10 79.35 255.58 76.96 257.62 79.50 C 259.67 82.04 263.40 92.92 271.38 94.12 C 279.35 95.33 299.73 88.23 305.50 86.75 C 311.27 85.27 305.92 87.27 306.00 85.25 Z" id="s-4-f-4"/>
</g>
<g id="s-5" clip-path="url(#c-s-5)">
<use href="#s-5-f-0"/>
<path d="M 378.00 149.75 C 377.56 147.54 376.35 147.75 375.38 147.00 C 374.40 146.25 375.48 145.85 372.12 145.25 C 368.77 144.65 358.56 143.81 355.25 143.38 C 351.94 142.94 353.44 142.75 352.25 142.62 C 351.06 142.50 350.92 142.23 348.12 142.62 C 345.33 143.02 339.27 144.15 335.50 145.00 C 331.73 145.85 329.69 146.79 325.50 147.75 C 321.31 148.71 317.31 149.73 310.38 150.75 C 303.44 151.77 288.48 152.85 283.88 153.88 C 279.27 154.90 283.15 154.25 282.75 156.88 C 282.35 159.50 281.08 167.31 281.50 169.62 C 281.92 171.94 282.94 170.56 285.25 170.75 C 287.56 170.94 283.48 172.21 295.38 170.75 C 307.27 169.29 343.06 163.67 356.62 162.00 C 370.19 160.33 373.19 161.04 376.75 160.75 C 380.31 160.46 377.79 162.08 378.00 160.25 C 378.21 158.42 378.44 151.96 378.00 149.75 Z" id="s-5-f-1"/>
<path d="M 329.88 147.12 C 329.79 144.21 332.75 146.15 329.50 146.75 C 326.25 147.35 317.98 149.56 310.38 150.75 C 302.77 151.94 288.38 153.27 283.88 153.88 C 279.38 154.48 283.58 153.73 283.38 154.38 C 283.17 155.02 282.94 155.21 282.62 157.75 C 282.31 160.29 281.06 167.46 281.50 169.62 C 281.94 171.79 282.92 170.56 285.25 170.75 C 287.58 170.94 288.10 171.58 295.50 170.75 C 302.90 169.92 323.88 166.83 329.62 165.75 C 335.38 164.67 329.96 167.35 330.00 164.25 C 330.04 161.15 329.96 150.04 329.88 147.12 Z" id="s-5-f-2"/>
</g>
<g id="s-6" clip-path="url(#c-s-6)">
<use href="#s-6-f-0"/>
<path d="M 225.38 163.62 C 225.02 164.27 224.94 164.56 224.88 165.62 C 224.81 166.69 224.35 167.06 225.00 170.00 C 225.65 172.94 227.96 180.06 228.75 183.25 C 229.54 186.44 229.44 186.38 229.75 189.12 C 230.06 191.88 230.48 194.65 230.62 199.75 C 230.77 204.85 230.77 215.33 230.62 219.75 C 230.48 224.17 230.02 224.90 229.75 226.25 C 229.48 227.60 229.12 227.10 229.00 227.88 C 228.88 228.65 228.81 229.83 229.00 230.88 C 229.19 231.92 229.25 232.52 230.12 234.12 C 231.00 235.73 232.83 238.71 234.25 240.50 C 235.67 242.29 237.42 243.83 238.62 244.88 C 239.83 245.92 240.08 246.46 241.50 246.75 C 242.92 247.04 244.90 246.96 247.12 246.62 C 249.35 246.29 249.96 246.38 254.88 244.75 C 259.79 243.12 269.17 239.17 276.62 236.88 C 284.08 234.58 290.21 232.98 299.62 231.00 C 309.04 229.02 322.92 226.67 333.12 225.00 C 343.33 223.33 355.54 221.60 360.88 221.00 C 366.21 220.40 364.00 221.06 365.12 221.38 C 366.25 221.69 367.00 222.35 367.62 222.88 C 368.25 223.40 368.52 223.75 368.88 224.50 C 369.23 225.25 369.67 225.60 369.75 227.38 C 369.83 229.15 369.96 230.25 369.38 235.12 C 368.79 240.00 366.42 252.98 366.25 256.62 C 366.08 260.27 363.42 256.96 368.38 257.00 C 373.33 257.04 391.27 257.00 396.00 256.88 C 400.73 256.75 395.71 258.69 396.75 256.25 C 397.79 253.81 399.92 247.48 402.25 242.25 C 404.58 237.02 409.33 228.35 410.75 224.88 C 412.17 221.40 410.92 222.25 410.75 221.38 C 410.58 220.50 410.38 220.44 409.75 219.62 C 409.12 218.81 408.23 217.62 407.00 216.50 C 405.77 215.38 405.31 214.77 402.38 212.88 C 399.44 210.98 392.73 206.92 389.38 205.12 C 386.02 203.33 384.29 202.83 382.25 202.12 C 380.21 201.42 378.42 201.06 377.12 200.88 C 375.83 200.69 378.46 200.19 374.50 201.00 C 370.54 201.81 369.31 202.62 353.38 205.75 C 337.44 208.88 293.44 217.06 278.88 219.75 C 264.31 222.44 269.62 221.38 266.00 221.88 C 262.38 222.38 258.96 222.88 257.12 222.75 C 255.29 222.62 255.50 221.83 255.00 221.12 C 254.50 220.42 254.29 219.42 254.12 218.50 C 253.96 217.58 253.56 217.92 254.00 215.62 C 254.44 213.33 255.75 209.23 256.75 204.75 C 257.75 200.27 259.17 191.96 260.00 188.75 C 260.83 185.54 261.46 186.71 261.75 185.50 C 262.04 184.29 261.94 182.60 261.75 181.50 C 261.56 180.40 261.17 179.79 260.62 178.88 C 260.08 177.96 259.58 177.15 258.50 176.00 C 257.42 174.85 256.33 173.67 254.12 172.00 C 251.92 170.33 247.69 167.50 245.25 166.00 C 242.81 164.50 241.33 163.81 239.50 163.00 C 237.67 162.19 235.85 161.48 234.25 161.12 C 232.65 160.77 231.08 160.77 229.88 160.88 C 228.67 160.98 227.75 161.29 227.00 161.75 C 226.25 162.21 225.73 162.98 225.38 163.62 Z" id="s-6-f-1"/>
<path d="M 225.00 164.50 C 224.75 165.81 224.38 166.88 225.00 170.00 C 225.62 173.12 227.96 180.06 228.75 183.25 C 229.54 186.44 229.44 186.38 229.75 189.12 C 230.06 191.88 230.48 194.65 230.62 199.75 C 230.77 204.85 230.75 215.44 230.62 219.75 C 230.50 224.06 230.15 224.27 229.88 225.62 C 229.60 226.98 229.15 227.00 229.00 227.88 C 228.85 228.75 228.81 229.83 229.00 230.88 C 229.19 231.92 229.25 232.52 230.12 234.12 C 231.00 235.73 232.83 238.71 234.25 240.50 C 235.67 242.29 237.42 243.83 238.62 244.88 C 239.83 245.92 240.08 246.46 241.50 246.75 C 242.92 247.04 245.40 246.81 247.12 246.62 C 248.85 246.44 249.52 246.27 251.88 245.62 C 254.23 244.98 257.19 244.19 261.25 242.75 C 265.31 241.31 272.02 238.46 276.25 237.00 C 280.48 235.54 282.73 235.00 286.62 234.00 C 290.52 233.00 292.92 232.33 299.62 231.00 C 306.33 229.67 316.42 227.69 326.88 226.00 C 337.33 224.31 351.15 223.56 362.38 220.88 C 373.60 218.19 388.79 211.83 394.25 209.88 C 399.71 207.92 395.00 209.42 395.12 209.12 C 395.25 208.83 396.75 209.15 395.00 208.12 C 393.25 207.10 387.25 204.17 384.62 203.00 C 382.00 201.83 380.79 201.48 379.25 201.12 C 377.71 200.77 378.02 200.44 375.38 200.88 C 372.73 201.31 380.40 200.44 363.38 203.75 C 346.35 207.06 290.96 217.58 273.25 220.75 C 255.54 223.92 260.17 222.69 257.12 222.75 C 254.08 222.81 255.50 221.83 255.00 221.12 C 254.50 220.42 254.29 219.42 254.12 218.50 C 253.96 217.58 253.56 217.92 254.00 215.62 C 254.44 213.33 255.75 209.23 256.75 204.75 C 257.75 200.27 259.17 191.96 260.00 188.75 C 260.83 185.54 261.46 186.71 261.75 185.50 C 262.04 184.29 261.94 182.60 261.75 181.50 C 261.56 180.40 261.17 179.79 260.62 178.88 C 260.08 177.96 259.42 177.02 258.50 176.00 C 257.58 174.98 257.33 174.42 255.12 172.75 C 252.92 171.08 247.85 167.62 245.25 166.00 C 242.65 164.38 241.44 163.83 239.50 163.00 C 237.56 162.17 235.46 161.33 233.62 161.00 C 231.79 160.67 229.69 160.81 228.50 161.00 C 227.31 161.19 227.08 161.54 226.50 162.12 C 225.92 162.71 225.25 163.19 225.00 164.50 Z" id="s-6-f-2"/>
<path d="M 225.00 164.50 C 224.75 165.81 224.38 166.88 225.00 170.00 C 225.62 173.12 227.96 180.06 228.75 183.25 C 229.54 186.44 229.44 186.38 229.75 189.12 C 230.06 191.88 230.48 194.65 230.62 199.75 C 230.77 204.85 230.75 215.44 230.62 219.75 C 230.50 224.06 230.15 224.27 229.88 225.62 C 229.60 226.98 229.15 227.00 229.00 227.88 C 228.85 228.75 228.81 229.83 229.00 230.88 C 229.19 231.92 229.25 232.52 230.12 234.12 C 231.00 235.73 232.83 238.71 234.25 240.50 C 235.67 242.29 237.42 243.83 238.62 244.88 C 239.83 245.92 240.08 246.46 241.50 246.75 C 242.92 247.04 245.40 246.81 247.12 246.62 C 248.85 246.44 249.52 246.27 251.88 245.62 C 254.23 244.98 257.19 244.19 261.25 242.75 C 265.31 241.31 272.02 238.46 276.25 237.00 C 280.48 235.54 282.73 235.00 286.62 234.00 C 290.52 233.00 292.92 232.33 299.62 231.00 C 306.33 229.67 316.42 227.69 326.88 226.00 C 337.33 224.31 352.52 223.08 362.38 220.88 C 372.23 218.67 381.90 214.33 386.00 212.75 C 390.10 211.17 386.83 212.62 387.00 211.38 C 387.17 210.12 387.08 206.48 387.00 205.25 C 386.92 204.02 387.79 204.69 386.50 204.00 C 385.21 203.31 381.10 201.65 379.25 201.12 C 377.40 200.60 378.02 200.44 375.38 200.88 C 372.73 201.31 380.40 200.44 363.38 203.75 C 346.35 207.06 290.96 217.58 273.25 220.75 C 255.54 223.92 260.17 222.69 257.12 222.75 C 254.08 222.81 255.50 221.83 255.00 221.12 C 254.50 220.42 254.29 219.42 254.12 218.50 C 253.96 217.58 253.56 217.92 254.00 215.62 C 254.44 213.33 255.75 209.23 256.75 204.75 C 257.75 200.27 259.17 191.96 260.00 188.75 C 260.83 185.54 261.46 186.71 261.75 185.50 C 262.04 184.29 261.94 182.60 261.75 181.50 C 261.56 180.40 261.17 179.79 260.62 178.88 C 260.08 177.96 259.42 177.02 258.50 176.00 C 257.58 174.98 257.33 174.42 255.12 172.75 C 252.92 171.08 247.85 167.62 245.25 166.00 C 242.65 164.38 241.44 163.83 239.50 163.00 C 237.56 162.17 235.46 161.33 233.62 161.00 C 231.79 160.67 229.69 160.81 228.50 161.00 C 227.31 161.19 227.08 161.54 226.50 162.12 C 225.92 162.71 225.25 163.19 225.00 164.50 Z" id="s-6-f-3"/>
<path d="M 225.38 163.62 C 225.02 164.27 224.94 164.56 224.88 165.62 C 224.81 166.69 224.35 167.06 225.00 170.00 C 225.65 172.94 227.96 180.06 228.75 183.25 C 229.54 186.44 229.44 186.38 229.75 189.12 C 230.06 191.88 230.48 194.65 230.62 199.75 C 230.77 204.85 230.75 215.44 230.62 219.75 C 230.50 224.06 230.15 224.27 229.88 225.62 C 229.60 226.98 229.15 227.00 229.00 227.88 C 228.85 228.75 228.81 229.83 229.00 230.88 C 229.19 231.92 229.40 232.71 230.12 234.12 C 230.85 235.54 232.33 237.92 233.38 239.38 C 234.42 240.83 235.08 241.67 236.38 242.88 C 237.67 244.08 239.23 246.02 241.12 246.62 C 243.02 247.23 245.46 246.81 247.75 246.50 C 250.04 246.19 250.06 246.35 254.88 244.75 C 259.69 243.15 270.65 238.83 276.62 236.88 C 282.60 234.92 284.35 234.48 290.75 233.00 C 297.15 231.52 307.08 229.42 315.00 228.00 C 322.92 226.58 334.27 225.19 338.25 224.50 C 342.23 223.81 338.75 226.29 338.88 223.88 C 339.00 221.46 339.06 212.54 339.00 210.00 C 338.94 207.46 349.46 206.83 338.50 208.62 C 327.54 210.42 286.48 218.40 273.25 220.75 C 260.02 223.10 261.90 222.44 259.12 222.75 C 256.35 223.06 257.31 222.90 256.62 222.62 C 255.94 222.35 255.42 221.81 255.00 221.12 C 254.58 220.44 254.29 219.42 254.12 218.50 C 253.96 217.58 253.56 217.92 254.00 215.62 C 254.44 213.33 255.75 209.23 256.75 204.75 C 257.75 200.27 259.17 191.96 260.00 188.75 C 260.83 185.54 261.46 186.71 261.75 185.50 C 262.04 184.29 261.94 182.60 261.75 181.50 C 261.56 180.40 261.17 179.79 260.62 178.88 C 260.08 177.96 259.42 177.02 258.50 176.00 C 257.58 174.98 257.33 174.42 255.12 172.75 C 252.92 171.08 247.85 167.62 245.25 166.00 C 242.65 164.38 241.33 163.81 239.50 163.00 C 237.67 162.19 235.85 161.48 234.25 161.12 C 232.65 160.77 231.08 160.77 229.88 160.88 C 228.67 160.98 227.75 161.29 227.00 161.75 C 226.25 162.21 225.73 162.98 225.38 163.62 Z" id="s-6-f-4"/>
<path d="M 227.00 161.75 C 226.42 162.33 225.33 163.12 225.00 164.50 C 224.67 165.88 224.38 166.88 225.00 170.00 C 225.62 173.12 227.94 179.88 228.75 183.25 C 229.56 186.62 229.54 186.88 229.88 190.25 C 230.21 193.62 230.65 198.25 230.75 203.50 C 230.85 208.75 230.67 217.96 230.50 221.75 C 230.33 225.54 230.00 225.23 229.75 226.25 C 229.50 227.27 229.12 227.10 229.00 227.88 C 228.88 228.65 228.52 229.31 229.00 230.88 C 229.48 232.44 230.92 235.54 231.88 237.25 C 232.83 238.96 233.21 239.56 234.75 241.12 C 236.29 242.69 238.96 245.73 241.12 246.62 C 243.29 247.52 244.90 246.98 247.75 246.50 C 250.60 246.02 253.44 245.35 258.25 243.75 C 263.06 242.15 271.25 238.65 276.62 236.88 C 282.00 235.10 288.10 234.56 290.50 233.12 C 292.90 231.69 290.92 230.60 291.00 228.25 C 291.08 225.90 291.08 220.77 291.00 219.00 C 290.92 217.23 295.81 217.00 290.50 217.62 C 285.19 218.25 264.77 221.92 259.12 222.75 C 253.48 223.58 257.31 222.90 256.62 222.62 C 255.94 222.35 255.42 221.81 255.00 221.12 C 254.58 220.44 254.29 219.42 254.12 218.50 C 253.96 217.58 253.56 217.92 254.00 215.62 C 254.44 213.33 255.75 209.23 256.75 204.75 C 257.75 200.27 259.17 191.96 260.00 188.75 C 260.83 185.54 261.46 186.71 261.75 185.50 C 262.04 184.29 261.92 182.56 261.75 181.50 C 261.58 180.44 261.17 179.90 260.75 179.12 C 260.33 178.35 260.19 177.94 259.25 176.88 C 258.31 175.81 257.75 174.73 255.12 172.75 C 252.50 170.77 246.10 166.62 243.50 165.00 C 240.90 163.38 241.15 163.67 239.50 163.00 C 237.85 162.33 235.46 161.33 233.62 161.00 C 231.79 160.67 229.60 160.88 228.50 161.00 C 227.40 161.12 227.58 161.17 227.00 161.75 Z" id="s-6-f-5"/>
<path d="M 228.50 161.00 C 227.54 161.17 227.42 161.40 226.88 161.88 C 226.33 162.35 225.58 162.83 225.25 163.88 C 224.92 164.92 224.90 166.96 224.88 168.12 C 224.85 169.29 224.48 168.35 225.12 170.88 C 225.77 173.40 227.98 180.21 228.75 183.25 C 229.52 186.29 229.44 186.38 229.75 189.12 C 230.06 191.88 230.48 194.65 230.62 199.75 C 230.77 204.85 230.77 215.33 230.62 219.75 C 230.48 224.17 230.02 224.88 229.75 226.25 C 229.48 227.62 229.12 227.23 229.00 228.00 C 228.88 228.77 228.52 229.33 229.00 230.88 C 229.48 232.42 230.92 235.54 231.88 237.25 C 232.83 238.96 233.42 239.69 234.75 241.12 C 236.08 242.56 238.81 244.96 239.88 245.88 C 240.94 246.79 240.69 246.48 241.12 246.62 C 241.56 246.77 242.06 246.92 242.50 246.75 C 242.94 246.58 242.29 249.50 243.75 245.62 C 245.21 241.75 249.71 227.85 251.25 223.50 C 252.79 219.15 251.54 225.29 253.00 219.50 C 254.46 213.71 258.54 194.40 260.00 188.75 C 261.46 183.10 261.46 186.81 261.75 185.62 C 262.04 184.44 262.06 182.96 261.75 181.62 C 261.44 180.29 260.75 178.90 259.88 177.62 C 259.00 176.35 258.94 175.94 256.50 174.00 C 254.06 172.06 248.08 167.83 245.25 166.00 C 242.42 164.17 241.21 163.77 239.50 163.00 C 237.79 162.23 236.15 161.73 235.00 161.38 C 233.85 161.02 233.71 160.94 232.62 160.88 C 231.54 160.81 229.46 160.83 228.50 161.00 Z" id="s-6-f-6"/>
<path d="M 227.62 161.38 C 226.96 161.71 226.31 162.35 225.88 162.88 C 225.44 163.40 225.15 163.31 225.00 164.50 C 224.85 165.69 224.38 166.88 225.00 170.00 C 225.62 173.12 227.96 180.06 228.75 183.25 C 229.54 186.44 229.38 184.88 229.75 189.12 C 230.12 193.38 226.73 205.48 231.00 208.75 C 235.27 212.02 250.54 212.08 255.38 208.75 C 260.21 205.42 258.94 192.60 260.00 188.75 C 261.06 184.90 261.46 186.83 261.75 185.62 C 262.04 184.42 261.96 182.67 261.75 181.50 C 261.54 180.33 261.60 180.08 260.50 178.62 C 259.40 177.17 257.96 175.02 255.12 172.75 C 252.29 170.48 246.10 166.62 243.50 165.00 C 240.90 163.38 241.15 163.67 239.50 163.00 C 237.85 162.33 235.23 161.35 233.62 161.00 C 232.02 160.65 230.88 160.81 229.88 160.88 C 228.88 160.94 228.29 161.04 227.62 161.38 Z" id="s-6-f-7"/>
</g>
<g id="s-7" clip-path="url(#c-s-7)">
<use href="#s-7-f-0"/>
<path d="M 431.88 272.88 C 431.69 268.12 431.65 272.35 430.88 272.38 C 430.10 272.40 431.04 272.10 427.25 273.00 C 423.46 273.90 414.12 276.48 408.12 277.75 C 402.12 279.02 395.08 280.15 391.25 280.62 C 387.42 281.10 386.65 280.50 385.12 280.62 C 383.60 280.75 385.42 281.02 382.12 281.38 C 378.83 281.73 368.83 282.33 365.38 282.75 C 361.92 283.17 363.21 283.52 361.38 283.88 C 359.54 284.23 359.08 284.48 354.38 284.88 C 349.67 285.27 342.98 285.40 333.12 286.25 C 323.27 287.10 306.42 288.71 295.25 290.00 C 284.08 291.29 272.33 293.04 266.12 294.00 C 259.92 294.96 262.10 295.12 258.00 295.75 C 253.90 296.38 251.73 297.02 241.50 297.75 C 231.27 298.48 204.50 299.58 196.62 300.12 C 188.75 300.67 194.96 300.56 194.25 301.00 C 193.54 301.44 192.77 302.02 192.38 302.75 C 191.98 303.48 191.81 304.65 191.88 305.38 C 191.94 306.10 192.19 306.44 192.75 307.12 C 193.31 307.81 193.79 308.40 195.25 309.50 C 196.71 310.60 199.52 312.54 201.50 313.75 C 203.48 314.96 204.00 315.60 207.12 316.75 C 210.25 317.90 217.04 319.79 220.25 320.62 C 223.46 321.46 224.38 321.54 226.38 321.75 C 228.38 321.96 228.94 322.21 232.25 321.88 C 235.56 321.54 240.96 320.90 246.25 319.75 C 251.54 318.60 257.94 316.46 264.00 315.00 C 270.06 313.54 276.54 312.17 282.62 311.00 C 288.71 309.83 294.71 308.83 300.50 308.00 C 306.29 307.17 307.21 306.83 317.38 306.00 C 327.54 305.17 350.58 303.65 361.50 303.00 C 372.42 302.35 371.25 302.23 382.88 302.12 C 394.50 302.02 423.08 302.42 431.25 302.38 C 439.42 302.33 431.75 302.12 431.88 301.88 C 432.00 301.62 432.00 305.71 432.00 300.88 C 432.00 296.04 432.06 277.62 431.88 272.88 Z" id="s-7-f-1"/>
<path d="M 383.88 281.75 C 383.79 278.54 384.85 281.15 383.50 281.12 C 382.15 281.10 377.77 281.40 375.75 281.62 C 373.73 281.85 373.10 282.31 371.38 282.50 C 369.65 282.69 367.04 282.52 365.38 282.75 C 363.71 282.98 363.21 283.52 361.38 283.88 C 359.54 284.23 359.08 284.48 354.38 284.88 C 349.67 285.27 342.98 285.40 333.12 286.25 C 323.27 287.10 306.42 288.71 295.25 290.00 C 284.08 291.29 272.35 293.04 266.12 294.00 C 259.90 294.96 261.98 295.12 257.88 295.75 C 253.77 296.38 251.71 297.02 241.50 297.75 C 231.29 298.48 204.50 299.58 196.62 300.12 C 188.75 300.67 194.96 300.56 194.25 301.00 C 193.54 301.44 192.77 302.02 192.38 302.75 C 191.98 303.48 191.81 304.65 191.88 305.38 C 191.94 306.10 192.19 306.44 192.75 307.12 C 193.31 307.81 193.79 308.40 195.25 309.50 C 196.71 310.60 199.52 312.54 201.50 313.75 C 203.48 314.96 204.67 315.77 207.12 316.75 C 209.58 317.73 213.19 318.81 216.25 319.62 C 219.31 320.44 222.29 321.29 225.50 321.62 C 228.71 321.96 232.04 321.94 235.50 321.62 C 238.96 321.31 241.50 320.85 246.25 319.75 C 251.00 318.65 257.94 316.46 264.00 315.00 C 270.06 313.54 276.54 312.17 282.62 311.00 C 288.71 309.83 292.52 309.00 300.50 308.00 C 308.48 307.00 316.69 305.98 330.50 305.00 C 344.31 304.02 374.46 302.90 383.38 302.12 C 392.29 301.35 383.92 303.77 384.00 300.38 C 384.08 296.98 383.96 284.96 383.88 281.75 Z" id="s-7-f-2"/>
<path d="M 335.88 286.62 C 335.60 283.67 342.48 285.40 334.38 286.12 C 326.27 286.85 298.62 289.69 287.25 291.00 C 275.88 292.31 271.02 293.21 266.12 294.00 C 261.23 294.79 261.98 295.12 257.88 295.75 C 253.77 296.38 246.79 297.23 241.50 297.75 C 236.21 298.27 233.46 298.50 226.12 298.88 C 218.79 299.25 202.92 299.56 197.50 300.00 C 192.08 300.44 194.54 300.94 193.62 301.50 C 192.71 302.06 192.29 302.73 192.00 303.38 C 191.71 304.02 191.75 304.75 191.88 305.38 C 192.00 306.00 191.92 306.23 192.75 307.12 C 193.58 308.02 194.48 309.15 196.88 310.75 C 199.27 312.35 203.90 315.27 207.12 316.75 C 210.35 318.23 213.19 318.81 216.25 319.62 C 219.31 320.44 222.29 321.29 225.50 321.62 C 228.71 321.96 232.04 321.94 235.50 321.62 C 238.96 321.31 240.75 321.02 246.25 319.75 C 251.75 318.48 260.65 315.77 268.50 314.00 C 276.35 312.23 285.19 310.46 293.38 309.12 C 301.56 307.79 310.58 306.75 317.62 306.00 C 324.67 305.25 332.56 304.98 335.62 304.62 C 338.69 304.27 335.96 306.88 336.00 303.88 C 336.04 300.88 336.15 289.58 335.88 286.62 Z" id="s-7-f-3"/>
<path d="M 287.88 291.50 C 287.69 288.58 290.50 290.58 286.88 291.00 C 283.25 291.42 270.96 293.21 266.12 294.00 C 261.29 294.79 261.98 295.12 257.88 295.75 C 253.77 296.38 251.71 297.02 241.50 297.75 C 231.29 298.48 204.50 299.58 196.62 300.12 C 188.75 300.67 194.96 300.56 194.25 301.00 C 193.54 301.44 192.77 302.02 192.38 302.75 C 191.98 303.48 191.81 304.65 191.88 305.38 C 191.94 306.10 192.12 306.40 192.75 307.12 C 193.38 307.85 193.23 308.15 195.62 309.75 C 198.02 311.35 203.69 315.10 207.12 316.75 C 210.56 318.40 213.19 318.81 216.25 319.62 C 219.31 320.44 222.29 321.29 225.50 321.62 C 228.71 321.96 232.04 321.94 235.50 321.62 C 238.96 321.31 241.50 320.85 246.25 319.75 C 251.00 318.65 257.15 316.58 264.00 315.00 C 270.85 313.42 283.38 311.33 287.38 310.25 C 291.38 309.17 287.92 311.62 288.00 308.50 C 288.08 305.38 288.06 294.42 287.88 291.50 Z" id="s-7-f-4"/>
<path d="M 239.75 320.62 C 240.73 316.71 240.06 302.04 240.00 298.25 C 239.94 294.46 241.69 297.77 239.38 297.88 C 237.06 297.98 233.10 298.52 226.12 298.88 C 219.15 299.23 202.81 299.65 197.50 300.00 C 192.19 300.35 195.17 300.44 194.25 301.00 C 193.33 301.56 192.38 302.54 192.00 303.38 C 191.62 304.21 191.65 305.15 192.00 306.00 C 192.35 306.85 192.83 307.40 194.12 308.50 C 195.42 309.60 197.58 311.25 199.75 312.62 C 201.92 314.00 204.38 315.58 207.12 316.75 C 209.88 317.92 213.19 318.81 216.25 319.62 C 219.31 320.44 222.52 321.27 225.50 321.62 C 228.48 321.98 231.75 321.92 234.12 321.75 C 236.50 321.58 238.77 324.54 239.75 320.62 Z" id="s-7-f-5"/>
</g>
<g id="s-8" clip-path="url(#c-s-8)">
<use href="#s-8-f-0"/>
<path d="M 291.50 352.12 C 290.48 351.10 289.12 349.90 287.62 348.88 C 286.12 347.85 285.31 347.15 282.50 346.00 C 279.69 344.85 273.73 342.85 270.75 342.00 C 267.77 341.15 266.35 341.04 264.62 340.88 C 262.90 340.71 261.40 340.85 260.38 341.00 C 259.35 341.15 258.92 341.46 258.50 341.75 C 258.08 342.04 258.15 340.71 257.88 342.75 C 257.60 344.79 257.25 351.42 256.88 354.00 C 256.50 356.58 256.81 355.42 255.62 358.25 C 254.44 361.08 251.71 367.17 249.75 371.00 C 247.79 374.83 246.08 377.69 243.88 381.25 C 241.67 384.81 240.19 387.21 236.50 392.38 C 232.81 397.54 226.40 406.25 221.75 412.25 C 217.10 418.25 212.08 424.38 208.62 428.38 C 205.17 432.38 202.25 434.85 201.00 436.25 C 199.75 437.65 199.27 436.65 201.12 436.75 C 202.98 436.85 209.79 437.06 212.12 436.88 C 214.46 436.69 212.67 437.12 215.12 435.62 C 217.58 434.12 220.98 432.35 226.88 427.88 C 232.77 423.40 244.25 414.27 250.50 408.75 C 256.75 403.23 259.48 400.04 264.38 394.75 C 269.27 389.46 274.98 382.10 279.88 377.00 C 284.77 371.90 291.27 366.67 293.75 364.12 C 296.23 361.58 294.58 362.83 294.75 361.75 C 294.92 360.67 294.92 358.75 294.75 357.62 C 294.58 356.50 294.29 355.92 293.75 355.00 C 293.21 354.08 292.52 353.15 291.50 352.12 Z" id="s-8-f-1"/>
<path d="M 293.75 355.00 C 292.81 353.73 291.31 351.50 289.12 349.88 C 286.94 348.25 284.40 346.73 280.62 345.25 C 276.85 343.77 269.88 341.71 266.50 341.00 C 263.12 340.29 261.71 340.88 260.38 341.00 C 259.04 341.12 258.92 341.46 258.50 341.75 C 258.08 342.04 258.15 340.71 257.88 342.75 C 257.60 344.79 257.25 351.42 256.88 354.00 C 256.50 356.58 256.81 355.42 255.62 358.25 C 254.44 361.08 251.62 367.31 249.75 371.00 C 247.88 374.69 246.17 377.46 244.38 380.38 C 242.58 383.29 239.62 387.06 239.00 388.50 C 238.38 389.94 235.58 388.94 240.62 389.00 C 245.67 389.06 262.62 390.96 269.25 388.88 C 275.88 386.79 276.29 380.62 280.38 376.50 C 284.46 372.38 291.33 366.73 293.75 364.12 C 296.17 361.52 294.71 361.98 294.88 360.88 C 295.04 359.77 294.94 358.48 294.75 357.50 C 294.56 356.52 294.69 356.27 293.75 355.00 Z" id="s-8-f-2"/>
</g>
<g id="s-9" clip-path="url(#c-s-9)">
<use href="#s-9-f-0"/>
<path d="M 334.00 337.12 C 333.48 337.67 333.83 339.44 334.00 340.25 C 334.17 341.06 334.23 341.04 335.00 342.00 C 335.77 342.96 336.85 344.35 338.62 346.00 C 340.40 347.65 342.00 348.33 345.62 351.88 C 349.25 355.42 355.40 361.67 360.38 367.25 C 365.35 372.83 369.25 377.50 375.50 385.38 C 381.75 393.25 392.60 407.88 397.88 414.50 C 403.15 421.12 404.23 422.08 407.12 425.12 C 410.02 428.17 413.54 431.44 415.25 432.75 C 416.96 434.06 413.31 432.96 417.38 433.00 C 421.44 433.04 435.56 433.08 439.62 433.00 C 443.69 432.92 441.40 434.10 441.75 432.50 C 442.10 430.90 441.94 426.17 441.75 423.38 C 441.56 420.58 441.12 418.19 440.62 415.75 C 440.12 413.31 439.75 411.56 438.75 408.75 C 437.75 405.94 435.77 401.25 434.62 398.88 C 433.48 396.50 433.12 396.19 431.88 394.50 C 430.62 392.81 429.06 390.88 427.12 388.75 C 425.19 386.62 422.85 384.17 420.25 381.75 C 417.65 379.33 415.52 377.40 411.50 374.25 C 407.48 371.10 401.33 366.25 396.12 362.88 C 390.92 359.50 385.25 356.62 380.25 354.00 C 375.25 351.38 370.83 349.27 366.12 347.12 C 361.42 344.98 356.02 342.65 352.00 341.12 C 347.98 339.60 344.48 338.69 342.00 338.00 C 339.52 337.31 338.46 337.15 337.12 337.00 C 335.79 336.85 334.52 336.58 334.00 337.12 Z" id="s-9-f-1"/>
<path d="M 334.00 337.12 C 333.48 337.67 333.62 339.19 334.00 340.25 C 334.38 341.31 333.90 341.15 336.25 343.50 C 338.60 345.85 344.94 351.33 348.12 354.38 C 351.31 357.42 350.88 356.71 355.38 361.75 C 359.88 366.79 370.67 380.75 375.12 384.62 C 379.58 388.50 374.19 384.98 382.12 385.00 C 390.06 385.02 415.96 384.88 422.75 384.75 C 429.54 384.62 423.52 384.96 422.88 384.25 C 422.23 383.54 421.42 382.67 418.88 380.50 C 416.33 378.33 411.42 374.19 407.62 371.25 C 403.83 368.31 399.71 365.23 396.12 362.88 C 392.54 360.52 390.81 359.60 386.12 357.12 C 381.44 354.65 373.69 350.67 368.00 348.00 C 362.31 345.33 356.33 342.79 352.00 341.12 C 347.67 339.46 344.48 338.69 342.00 338.00 C 339.52 337.31 338.46 337.15 337.12 337.00 C 335.79 336.85 334.52 336.58 334.00 337.12 Z" id="s-9-f-2"/>
</g>
</svg>