<?xml version="1.0" encoding="UTF-8"?>
<svg xmlns="http://www.w3.org/2000/svg" viewBox="0 0 500 500">
<defs>
<path d="M 248.88 145.62 C 248.62 144.71 247.88 143.54 247.25 142.75 C 246.62 141.96 247.08 142.00 245.12 140.88 C 243.17 139.75 238.50 137.29 235.50 136.00 C 232.50 134.71 229.50 133.62 227.12 133.12 C 224.75 132.62 223.10 132.56 221.25 133.00 C 219.40 133.44 218.19 134.81 216.00 135.75 C 213.81 136.69 212.40 137.31 208.12 138.62 C 203.85 139.94 194.54 142.58 190.38 143.62 C 186.21 144.67 188.23 143.71 183.12 144.88 C 178.02 146.04 166.29 149.15 159.75 150.62 C 153.21 152.10 150.65 152.56 143.88 153.75 C 137.10 154.94 127.67 156.52 119.12 157.75 C 110.58 158.98 97.46 160.42 92.62 161.12 C 87.79 161.83 90.90 161.52 90.12 162.00 C 89.35 162.48 88.38 163.44 88.00 164.00 C 87.62 164.56 87.65 164.69 87.88 165.38 C 88.10 166.06 88.27 166.90 89.38 168.12 C 90.48 169.35 92.92 171.71 94.50 172.75 C 96.08 173.79 96.83 173.90 98.88 174.38 C 100.92 174.85 102.44 175.40 106.75 175.62 C 111.06 175.85 120.08 175.90 124.75 175.75 C 129.42 175.60 129.38 175.52 134.75 174.75 C 140.12 173.98 152.56 171.77 157.00 171.12 C 161.44 170.48 156.81 171.58 161.38 170.88 C 165.94 170.17 179.90 167.58 184.38 166.88 C 188.85 166.17 181.92 167.85 188.25 166.62 C 194.58 165.40 215.12 161.12 222.38 159.50 C 229.62 157.88 228.27 158.00 231.75 156.88 C 235.23 155.75 240.85 153.73 243.25 152.75 C 245.65 151.77 245.21 151.75 246.12 151.00 C 247.04 150.25 248.29 149.15 248.75 148.25 C 249.21 147.35 249.12 146.54 248.88 145.62 Z" id="s-0-f-0"/>
<clipPath id="c-s-0"><use href="#s-0-f-0"/></clipPath>
<path d="M 155.88 52.88 C 154.42 52.88 154.40 52.73 153.50 53.12 C 152.60 53.52 151.23 54.52 150.50 55.25 C 149.77 55.98 149.40 56.46 149.12 57.50 C 148.85 58.54 148.73 60.35 148.88 61.50 C 149.02 62.65 149.52 63.50 150.00 64.38 C 150.48 65.25 150.96 65.19 151.75 66.75 C 152.54 68.31 153.90 70.98 154.75 73.75 C 155.60 76.52 156.21 71.23 156.88 83.38 C 157.54 95.52 158.48 132.12 158.75 146.62 C 159.02 161.12 158.48 166.23 158.50 170.38 C 158.52 174.52 158.50 163.35 158.88 171.50 C 159.25 179.65 160.33 211.04 160.75 219.25 C 161.17 227.46 161.17 220.46 161.38 220.75 C 161.58 221.04 158.50 221.60 162.00 221.00 C 165.50 220.40 178.90 217.90 182.38 217.12 C 185.85 216.35 182.62 224.67 182.88 216.38 C 183.12 208.08 183.50 177.06 183.88 167.38 C 184.25 157.69 184.94 163.19 185.12 158.25 C 185.31 153.31 184.85 149.31 185.00 137.75 C 185.15 126.19 185.52 98.98 186.00 88.88 C 186.48 78.77 187.25 79.92 187.88 77.12 C 188.50 74.33 189.42 73.67 189.75 72.12 C 190.08 70.58 190.04 69.08 189.88 67.88 C 189.71 66.67 189.19 65.67 188.75 64.88 C 188.31 64.08 188.02 63.81 187.25 63.12 C 186.48 62.44 185.19 61.42 184.12 60.75 C 183.06 60.08 183.71 60.23 180.88 59.12 C 178.04 58.02 170.23 55.12 167.12 54.12 C 164.02 53.12 164.12 53.33 162.25 53.12 C 160.38 52.92 157.33 52.88 155.88 52.88 Z" id="s-1-f-0"/>
<clipPath id="c-s-1"><use href="#s-1-f-0"/></clipPath>
<path d="M 269.75 216.88 C 269.48 215.81 268.75 214.83 268.12 214.00 C 267.50 213.17 266.75 212.52 266.00 211.88 C 265.25 211.23 264.83 210.77 263.62 210.12 C 262.42 209.48 260.92 208.69 258.75 208.00 C 256.58 207.31 253.48 206.31 250.62 206.00 C 247.77 205.69 248.38 205.29 241.62 206.12 C 234.88 206.96 219.67 209.25 210.12 211.00 C 200.58 212.75 189.42 215.69 184.38 216.62 C 179.33 217.56 180.92 216.50 179.88 216.62 C 178.83 216.75 180.94 216.85 178.12 217.38 C 175.31 217.90 165.85 219.19 163.00 219.75 C 160.15 220.31 173.08 218.42 161.00 220.75 C 148.92 223.08 107.40 230.75 90.50 233.75 C 73.60 236.75 69.12 237.35 59.62 238.75 C 50.12 240.15 38.85 241.25 33.50 242.12 C 28.15 243.00 28.73 243.46 27.50 244.00 C 26.27 244.54 26.40 244.79 26.12 245.38 C 25.85 245.96 25.88 246.96 25.88 247.50 C 25.88 248.04 25.71 247.92 26.12 248.62 C 26.54 249.33 26.83 250.23 28.38 251.75 C 29.92 253.27 31.88 255.92 35.38 257.75 C 38.88 259.58 46.29 261.75 49.38 262.75 C 52.46 263.75 52.08 263.58 53.88 263.75 C 55.67 263.92 57.44 264.10 60.12 263.75 C 62.81 263.40 65.94 262.75 70.00 261.62 C 74.06 260.50 76.79 259.10 84.50 257.00 C 92.21 254.90 109.90 250.52 116.25 249.00 C 122.60 247.48 117.77 249.02 122.62 247.88 C 127.48 246.73 136.58 244.08 145.38 242.12 C 154.17 240.17 164.02 238.17 175.38 236.12 C 186.73 234.08 198.88 231.83 213.50 229.88 C 228.12 227.92 254.10 225.56 263.12 224.38 C 272.15 223.19 266.52 223.42 267.62 222.75 C 268.73 222.08 269.40 221.35 269.75 220.38 C 270.10 219.40 270.02 217.94 269.75 216.88 Z" id="s-2-f-0"/>
<clipPath id="c-s-2"><use href="#s-2-f-0"/></clipPath>
<path d="M 141.50 242.62 C 140.73 242.27 140.29 242.50 139.75 242.62 C 139.21 242.75 138.96 243.21 138.25 243.38 C 137.54 243.54 136.17 243.46 135.50 243.62 C 134.83 243.79 135.04 244.19 134.25 244.38 C 133.46 244.56 131.44 244.58 130.75 244.75 C 130.06 244.92 131.42 245.06 130.12 245.38 C 128.83 245.69 124.42 246.27 123.00 246.62 C 121.58 246.98 122.31 247.33 121.62 247.50 C 120.94 247.67 119.67 247.42 118.88 247.62 C 118.08 247.83 117.19 248.25 116.88 248.75 C 116.56 249.25 116.69 249.79 117.00 250.62 C 117.31 251.46 118.12 252.33 118.75 253.75 C 119.38 255.17 120.06 256.42 120.75 259.12 C 121.44 261.83 122.38 266.27 122.88 270.00 C 123.38 273.73 123.60 277.50 123.75 281.50 C 123.90 285.50 123.92 288.81 123.75 294.00 C 123.58 299.19 123.25 307.08 122.75 312.62 C 122.25 318.17 121.92 321.21 120.75 327.25 C 119.58 333.29 117.40 342.71 115.75 348.88 C 114.10 355.04 113.00 358.54 110.88 364.25 C 108.75 369.96 104.48 379.40 103.00 383.12 C 101.52 386.85 102.19 385.42 102.00 386.62 C 101.81 387.83 101.69 388.10 101.88 390.38 C 102.06 392.65 102.58 397.52 103.12 400.25 C 103.67 402.98 104.31 404.52 105.12 406.75 C 105.94 408.98 106.83 411.35 108.00 413.62 C 109.17 415.90 111.04 418.85 112.12 420.38 C 113.21 421.90 113.69 422.17 114.50 422.75 C 115.31 423.33 116.15 423.73 117.00 423.88 C 117.85 424.02 118.52 424.23 119.62 423.62 C 120.73 423.02 122.42 421.67 123.62 420.25 C 124.83 418.83 125.88 416.98 126.88 415.12 C 127.88 413.27 128.65 411.52 129.62 409.12 C 130.60 406.73 131.73 403.81 132.75 400.75 C 133.77 397.69 134.77 394.62 135.75 390.75 C 136.73 386.88 137.79 382.00 138.62 377.50 C 139.46 373.00 140.06 368.92 140.75 363.75 C 141.44 358.58 142.10 353.35 142.75 346.50 C 143.40 339.65 144.02 334.96 144.62 322.62 C 145.23 310.29 145.98 282.06 146.38 272.50 C 146.77 262.94 146.60 267.79 147.00 265.25 C 147.40 262.71 148.46 259.52 148.75 257.25 C 149.04 254.98 148.94 253.06 148.75 251.62 C 148.56 250.19 148.35 249.77 147.62 248.62 C 146.90 247.48 145.40 245.75 144.38 244.75 C 143.35 243.75 142.27 242.98 141.50 242.62 Z" id="s-3-f-0"/>
<clipPath id="c-s-3"><use href="#s-3-f-0"/></clipPath>
<path d="M 209.50 229.62 C 208.58 229.71 208.62 230.19 207.50 230.38 C 206.38 230.56 203.73 230.58 202.75 230.75 C 201.77 230.92 204.73 230.88 201.62 231.38 C 198.52 231.88 187.42 233.17 184.12 233.75 C 180.83 234.33 182.23 234.27 181.88 234.88 C 181.52 235.48 181.35 234.54 182.00 237.38 C 182.65 240.21 184.81 247.52 185.75 251.88 C 186.69 256.23 187.25 260.54 187.62 263.50 C 188.00 266.46 187.83 268.15 188.00 269.62 C 188.17 271.10 188.33 268.56 188.62 272.38 C 188.92 276.19 189.56 281.58 189.75 292.50 C 189.94 303.42 189.92 323.19 189.75 337.88 C 189.58 352.56 189.08 371.52 188.75 380.62 C 188.42 389.73 188.25 389.42 187.75 392.50 C 187.25 395.58 186.29 397.67 185.75 399.12 C 185.21 400.58 184.98 400.67 184.50 401.25 C 184.02 401.83 183.54 402.38 182.88 402.62 C 182.21 402.88 182.52 403.04 180.50 402.75 C 178.48 402.46 175.15 402.00 170.75 400.88 C 166.35 399.75 157.75 396.98 154.12 396.00 C 150.50 395.02 150.65 395.19 149.00 395.00 C 147.35 394.81 145.27 394.67 144.25 394.88 C 143.23 395.08 143.08 395.67 142.88 396.25 C 142.67 396.83 142.67 397.54 143.00 398.38 C 143.33 399.21 143.50 399.94 144.88 401.25 C 146.25 402.56 147.69 402.83 151.25 406.25 C 154.81 409.67 162.60 417.81 166.25 421.75 C 169.90 425.69 170.56 426.62 173.12 429.88 C 175.69 433.12 179.54 438.77 181.62 441.25 C 183.71 443.73 184.40 443.98 185.62 444.75 C 186.85 445.52 187.90 445.73 189.00 445.88 C 190.10 446.02 190.94 446.12 192.25 445.62 C 193.56 445.12 195.25 444.21 196.88 442.88 C 198.50 441.54 200.35 439.54 202.00 437.62 C 203.65 435.71 205.46 433.73 206.75 431.38 C 208.04 429.02 208.94 426.42 209.75 423.50 C 210.56 420.58 211.10 418.35 211.62 413.88 C 212.15 409.40 212.67 403.75 212.88 396.62 C 213.08 389.50 213.19 387.71 212.88 371.12 C 212.56 354.54 211.31 314.65 211.00 297.12 C 210.69 279.60 210.85 273.06 211.00 266.00 C 211.15 258.94 211.42 257.90 211.88 254.75 C 212.33 251.60 213.25 249.88 213.75 247.12 C 214.25 244.38 214.73 240.54 214.88 238.25 C 215.02 235.96 214.94 234.77 214.62 233.38 C 214.31 231.98 213.85 230.50 213.00 229.88 C 212.15 229.25 210.42 229.54 209.50 229.62 Z" id="s-4-f-0"/>
<clipPath id="c-s-4"><use href="#s-4-f-0"/></clipPath>
<path d="M 103.62 291.25 C 102.00 290.02 100.12 288.85 98.25 288.00 C 96.38 287.15 94.50 286.46 92.38 286.12 C 90.25 285.79 86.88 285.83 85.50 286.00 C 84.12 286.17 84.58 285.40 84.12 287.12 C 83.67 288.85 83.65 293.04 82.75 296.38 C 81.85 299.71 80.92 302.31 78.75 307.12 C 76.58 311.94 72.90 319.40 69.75 325.25 C 66.60 331.10 62.96 337.29 59.88 342.25 C 56.79 347.21 54.00 351.23 51.25 355.00 C 48.50 358.77 44.69 363.08 43.38 364.88 C 42.06 366.67 42.52 365.60 43.38 365.75 C 44.23 365.90 45.88 366.56 48.50 365.75 C 51.12 364.94 56.19 362.40 59.12 360.88 C 62.06 359.35 63.52 358.40 66.12 356.62 C 68.73 354.85 72.12 352.48 74.75 350.25 C 77.38 348.02 79.50 345.79 81.88 343.25 C 84.25 340.71 87.02 337.40 89.00 335.00 C 90.98 332.60 91.27 332.52 93.75 328.88 C 96.23 325.23 101.81 316.71 103.88 313.12 C 105.94 309.54 105.15 309.19 106.12 307.38 C 107.10 305.56 109.17 303.73 109.75 302.25 C 110.33 300.77 109.92 299.65 109.62 298.50 C 109.33 297.35 109.00 296.58 108.00 295.38 C 107.00 294.17 105.25 292.48 103.62 291.25 Z" id="s-5-f-0"/>
<clipPath id="c-s-5"><use href="#s-5-f-0"/></clipPath>
<path d="M 210.88 285.88 C 209.27 285.60 210.54 285.21 210.50 286.38 C 210.46 287.54 209.92 291.27 210.62 292.88 C 211.33 294.48 212.77 293.92 214.75 296.00 C 216.73 298.08 218.08 299.62 222.50 305.38 C 226.92 311.12 236.85 324.81 241.25 330.50 C 245.65 336.19 246.65 337.10 248.88 339.50 C 251.10 341.90 252.79 343.52 254.62 344.88 C 256.46 346.23 258.25 347.15 259.88 347.62 C 261.50 348.10 263.06 348.08 264.38 347.75 C 265.69 347.42 266.83 346.56 267.75 345.62 C 268.67 344.69 269.23 343.56 269.88 342.12 C 270.52 340.69 271.31 339.33 271.62 337.00 C 271.94 334.67 271.90 330.42 271.75 328.12 C 271.60 325.83 271.42 325.19 270.75 323.25 C 270.08 321.31 268.79 318.23 267.75 316.50 C 266.71 314.77 267.06 315.15 264.50 312.88 C 261.94 310.60 255.98 305.50 252.38 302.88 C 248.77 300.25 247.25 299.27 242.88 297.12 C 238.50 294.98 229.92 291.52 226.12 290.00 C 222.33 288.48 222.67 288.69 220.12 288.00 C 217.58 287.31 212.48 286.15 210.88 285.88 Z" id="s-6-f-0"/>
<clipPath id="c-s-6"><use href="#s-6-f-0"/></clipPath>
<path d="M 277.50 200.00 C 275.56 200.19 276.02 200.69 275.50 201.12 C 274.98 201.56 274.65 201.90 274.38 202.62 C 274.10 203.35 273.17 204.27 273.88 205.50 C 274.58 206.73 277.15 208.35 278.62 210.00 C 280.10 211.65 281.56 213.42 282.75 215.38 C 283.94 217.33 284.92 219.50 285.75 221.75 C 286.58 224.00 286.92 225.33 287.75 228.88 C 288.58 232.42 289.21 233.12 290.75 243.00 C 292.29 252.88 295.79 279.88 297.00 288.12 C 298.21 296.38 297.33 290.54 298.00 292.50 C 298.67 294.46 300.17 298.06 301.00 299.88 C 301.83 301.69 302.33 302.40 303.00 303.38 C 303.67 304.35 304.08 304.90 305.00 305.75 C 305.92 306.60 307.29 308.00 308.50 308.50 C 309.71 309.00 311.21 309.10 312.25 308.75 C 313.29 308.40 313.85 307.62 314.75 306.38 C 315.65 305.12 316.92 304.71 317.62 301.25 C 318.33 297.79 318.98 291.48 319.00 285.62 C 319.02 279.77 318.58 275.21 317.75 266.12 C 316.92 257.04 314.67 238.12 314.00 231.12 C 313.33 224.12 314.77 227.90 313.75 224.12 C 312.73 220.35 309.19 211.50 307.88 208.50 C 306.56 205.50 307.58 207.21 305.88 206.12 C 304.17 205.04 299.58 202.85 297.62 202.00 C 295.67 201.15 295.88 201.33 294.12 201.00 C 292.38 200.67 289.90 200.17 287.12 200.00 C 284.35 199.83 279.44 199.81 277.50 200.00 Z" id="s-7-f-0"/>
<clipPath id="c-s-7"><use href="#s-7-f-0"/></clipPath>
<path d="M 464.75 219.38 C 464.94 218.19 464.94 216.35 464.75 215.25 C 464.56 214.15 464.40 213.88 463.62 212.75 C 462.85 211.62 461.67 210.12 460.12 208.50 C 458.58 206.88 456.19 204.58 454.38 203.00 C 452.56 201.42 451.12 200.31 449.25 199.00 C 447.38 197.69 445.12 196.29 443.12 195.12 C 441.12 193.96 439.10 192.85 437.25 192.00 C 435.40 191.15 433.77 190.31 432.00 190.00 C 430.23 189.69 428.31 189.96 426.62 190.12 C 424.94 190.29 423.48 190.56 421.88 191.00 C 420.27 191.44 418.73 192.31 417.00 192.75 C 415.27 193.19 413.73 193.40 411.50 193.62 C 409.27 193.85 408.88 193.44 403.62 194.12 C 398.38 194.81 388.00 196.79 380.00 197.75 C 372.00 198.71 364.67 198.71 355.62 199.88 C 346.58 201.04 333.10 203.71 325.75 204.75 C 318.40 205.79 314.60 205.77 311.50 206.12 C 308.40 206.48 307.96 206.58 307.12 206.88 C 306.29 207.17 306.46 207.54 306.50 207.88 C 306.54 208.21 307.19 208.42 307.38 208.88 C 307.56 209.33 307.12 209.31 307.62 210.62 C 308.12 211.94 309.54 214.60 310.38 216.75 C 311.21 218.90 312.06 222.15 312.62 223.50 C 313.19 224.85 312.83 224.67 313.75 224.88 C 314.67 225.08 316.52 225.06 318.12 224.75 C 319.73 224.44 313.33 224.65 323.38 223.00 C 333.42 221.35 365.06 216.54 378.38 214.88 C 391.69 213.21 397.77 213.31 403.25 213.00 C 408.73 212.69 408.96 212.81 411.25 213.00 C 413.54 213.19 415.42 213.46 417.00 214.12 C 418.58 214.79 419.96 216.08 420.75 217.00 C 421.54 217.92 421.58 218.75 421.75 219.62 C 421.92 220.50 423.08 215.75 421.75 222.25 C 420.42 228.75 415.71 250.56 413.75 258.62 C 411.79 266.69 410.06 268.42 410.00 270.62 C 409.94 272.83 410.10 271.15 413.38 271.88 C 416.65 272.60 426.69 274.52 429.62 275.00 C 432.56 275.48 430.48 275.17 431.00 274.75 C 431.52 274.33 432.25 273.50 432.75 272.50 C 433.25 271.50 432.50 271.75 434.00 268.75 C 435.50 265.75 439.92 258.15 441.75 254.50 C 443.58 250.85 443.96 249.04 445.00 246.88 C 446.04 244.71 446.52 243.73 448.00 241.50 C 449.48 239.27 451.58 236.23 453.88 233.50 C 456.17 230.77 460.12 226.98 461.75 225.12 C 463.38 223.27 463.12 223.33 463.62 222.38 C 464.12 221.42 464.56 220.56 464.75 219.38 Z" id="s-8-f-0"/>
<clipPath id="c-s-8"><use href="#s-8-f-0"/></clipPath>
<path d="M 441.88 284.88 C 441.77 284.04 441.31 283.12 440.88 282.38 C 440.44 281.62 440.00 281.12 439.25 280.38 C 438.50 279.62 437.83 278.88 436.38 277.88 C 434.92 276.88 431.85 275.08 430.50 274.38 C 429.15 273.67 429.25 273.81 428.25 273.62 C 427.25 273.44 425.31 273.42 424.50 273.25 C 423.69 273.08 424.10 272.75 423.38 272.62 C 422.65 272.50 421.06 272.67 420.12 272.50 C 419.19 272.33 418.73 271.81 417.75 271.62 C 416.77 271.44 415.08 271.54 414.25 271.38 C 413.42 271.21 414.54 270.67 412.75 270.62 C 410.96 270.58 409.31 270.27 403.50 271.12 C 397.69 271.98 382.92 274.94 377.88 275.75 C 372.83 276.56 377.98 275.31 373.25 276.00 C 368.52 276.69 358.58 278.71 349.50 279.88 C 340.42 281.04 324.04 281.58 318.75 283.00 C 313.46 284.42 317.96 285.96 317.75 288.38 C 317.54 290.79 316.96 295.79 317.50 297.50 C 318.04 299.21 319.77 298.40 321.00 298.62 C 322.23 298.85 322.02 298.85 324.88 298.88 C 327.73 298.90 333.35 298.92 338.12 298.75 C 342.90 298.58 347.77 298.38 353.50 297.88 C 359.23 297.38 366.81 296.54 372.50 295.75 C 378.19 294.96 384.06 293.62 387.62 293.12 C 391.19 292.62 389.50 293.27 393.88 292.75 C 398.25 292.23 406.27 290.67 413.88 290.00 C 421.48 289.33 434.90 289.19 439.50 288.75 C 444.10 288.31 441.10 288.02 441.50 287.38 C 441.90 286.73 441.98 285.71 441.88 284.88 Z" id="s-9-f-0"/>
<clipPath id="c-s-9"><use href="#s-9-f-0"/></clipPath>
<path d="M 344.12 74.88 C 342.08 75.02 340.81 75.40 339.62 76.00 C 338.44 76.60 337.60 77.65 337.00 78.50 C 336.40 79.35 336.17 80.02 336.00 81.12 C 335.83 82.23 334.88 82.40 336.00 85.12 C 337.12 87.85 341.29 94.33 342.75 97.50 C 344.21 100.67 344.29 102.23 344.75 104.12 C 345.21 106.02 345.29 106.48 345.50 108.88 C 345.71 111.27 345.62 114.75 346.00 118.50 C 346.38 122.25 347.19 125.56 347.75 131.38 C 348.31 137.19 349.02 141.85 349.38 153.38 C 349.73 164.90 349.85 192.52 349.88 200.50 C 349.90 208.48 349.48 172.90 349.50 201.25 C 349.52 229.60 349.75 342.33 350.00 370.62 C 350.25 398.92 346.77 371.92 351.00 371.00 C 355.23 370.08 371.25 366.23 375.38 365.12 C 379.50 364.02 375.50 376.02 375.75 364.38 C 376.00 352.73 376.62 307.02 376.88 295.25 C 377.12 283.48 377.23 298.25 377.25 293.75 C 377.27 289.25 376.90 281.33 377.00 268.25 C 377.10 255.17 377.54 224.94 377.88 215.25 C 378.21 205.56 378.77 212.31 379.00 210.12 C 379.23 207.94 379.23 208.58 379.25 202.12 C 379.27 195.67 378.50 183.08 379.12 171.38 C 379.75 159.67 382.04 140.88 383.00 131.88 C 383.96 122.88 384.38 120.75 384.88 117.38 C 385.38 114.00 385.04 114.33 386.00 111.62 C 386.96 108.92 389.83 103.54 390.62 101.12 C 391.42 98.71 391.06 98.58 390.75 97.12 C 390.44 95.67 389.65 93.77 388.75 92.38 C 387.85 90.98 387.19 90.12 385.38 88.75 C 383.56 87.38 380.65 85.58 377.88 84.12 C 375.10 82.67 371.67 81.19 368.75 80.00 C 365.83 78.81 363.19 77.81 360.38 77.00 C 357.56 76.19 354.58 75.48 351.88 75.12 C 349.17 74.77 346.17 74.73 344.12 74.88 Z" id="s-10-f-0"/>
<clipPath id="c-s-10"><use href="#s-10-f-0"/></clipPath>
<path d="M 423.88 361.38 C 423.46 360.04 420.71 356.00 419.75 354.75 C 418.79 353.50 419.35 353.71 418.12 353.88 C 416.90 354.04 416.48 354.73 412.38 355.75 C 408.27 356.77 399.44 358.52 393.50 360.00 C 387.56 361.48 380.08 363.85 376.75 364.62 C 373.42 365.40 374.25 364.50 373.50 364.62 C 372.75 364.75 372.94 365.21 372.25 365.38 C 371.56 365.54 370.83 365.29 369.38 365.62 C 367.92 365.96 364.98 367.04 363.50 367.38 C 362.02 367.71 361.21 367.46 360.50 367.62 C 359.79 367.79 360.65 368.04 359.25 368.38 C 357.85 368.71 354.31 369.06 352.12 369.62 C 349.94 370.19 352.35 370.23 346.12 371.75 C 339.90 373.27 324.85 376.58 314.75 378.75 C 304.65 380.92 292.38 383.44 285.50 384.75 C 278.62 386.06 277.98 386.06 273.50 386.62 C 269.02 387.19 261.21 387.77 258.62 388.12 C 256.04 388.48 258.10 388.27 258.00 388.75 C 257.90 389.23 257.67 389.98 258.00 391.00 C 258.33 392.02 259.17 393.60 260.00 394.88 C 260.83 396.15 261.35 396.96 263.00 398.62 C 264.65 400.29 267.60 403.02 269.88 404.88 C 272.15 406.73 274.19 408.27 276.62 409.75 C 279.06 411.23 282.54 412.92 284.50 413.75 C 286.46 414.58 286.83 414.58 288.38 414.75 C 289.92 414.92 287.67 417.04 293.75 414.75 C 299.83 412.46 315.40 405.08 324.88 401.00 C 334.35 396.92 338.58 394.96 350.62 390.25 C 362.67 385.54 385.19 377.33 397.12 372.75 C 409.06 368.17 417.79 364.65 422.25 362.75 C 426.71 360.85 424.29 362.71 423.88 361.38 Z" id="s-11-f-0"/>
<clipPath id="c-s-11"><use href="#s-11-f-0"/></clipPath>
<path d="M 399.75 317.00 C 398.90 317.10 399.15 317.33 399.00 317.75 C 398.85 318.17 398.69 318.56 398.88 319.50 C 399.06 320.44 399.02 321.56 400.12 323.38 C 401.23 325.19 403.73 327.83 405.50 330.38 C 407.27 332.92 408.60 334.85 410.75 338.62 C 412.90 342.40 417.04 350.31 418.38 353.00 C 419.71 355.69 418.04 353.42 418.75 354.75 C 419.46 356.08 421.73 359.71 422.62 361.00 C 423.52 362.29 423.54 361.46 424.12 362.50 C 424.71 363.54 423.98 362.92 426.12 367.25 C 428.27 371.58 433.52 382.17 437.00 388.50 C 440.48 394.83 444.31 401.25 447.00 405.25 C 449.69 409.25 451.31 410.58 453.12 412.50 C 454.94 414.42 456.48 416.04 457.88 416.75 C 459.27 417.46 460.44 416.92 461.50 416.75 C 462.56 416.58 463.25 416.44 464.25 415.75 C 465.25 415.06 466.42 414.23 467.50 412.62 C 468.58 411.02 469.88 408.42 470.75 406.12 C 471.62 403.83 472.44 402.04 472.75 398.88 C 473.06 395.71 472.98 390.88 472.62 387.12 C 472.27 383.38 471.46 379.58 470.62 376.38 C 469.79 373.17 468.92 370.67 467.62 367.88 C 466.33 365.08 464.35 361.90 462.88 359.62 C 461.40 357.35 460.75 356.52 458.75 354.25 C 456.75 351.98 453.48 348.56 450.88 346.00 C 448.27 343.44 445.58 340.90 443.12 338.88 C 440.67 336.85 439.42 336.04 436.12 333.88 C 432.83 331.71 427.29 328.19 423.38 325.88 C 419.46 323.56 415.83 321.46 412.62 320.00 C 409.42 318.54 406.27 317.62 404.12 317.12 C 401.98 316.62 400.60 316.90 399.75 317.00 Z" id="s-12-f-0"/>
<clipPath id="c-s-12"><use href="#s-12-f-0"/></clipPath>
</defs>
<g id="s-0" clip-path="url(#c-s-0)">
<use href="#s-0-f-0"/>
<path d="M 231.88 135.12 C 231.62 131.38 231.17 134.33 230.38 134.00 C 229.58 133.67 228.65 133.29 227.12 133.12 C 225.60 132.96 223.10 132.56 221.25 133.00 C 219.40 133.44 218.19 134.81 216.00 135.75 C 213.81 136.69 212.40 137.31 208.12 138.62 C 203.85 139.94 194.54 142.58 190.38 143.62 C 186.21 144.67 188.23 143.71 183.12 144.88 C 178.02 146.04 166.29 149.15 159.75 150.62 C 153.21 152.10 150.65 152.56 143.88 153.75 C 137.10 154.94 127.67 156.52 119.12 157.75 C 110.58 158.98 97.46 160.42 92.62 161.12 C 87.79 161.83 90.90 161.52 90.12 162.00 C 89.35 162.48 88.38 163.44 88.00 164.00 C 87.62 164.56 87.65 164.69 87.88 165.38 C 88.10 166.06 88.62 167.17 89.38 168.12 C 90.12 169.08 91.17 170.19 92.38 171.12 C 93.58 172.06 94.23 173.00 96.62 173.75 C 99.02 174.50 102.71 175.27 106.75 175.62 C 110.79 175.98 116.21 176.02 120.88 175.88 C 125.54 175.73 128.73 175.54 134.75 174.75 C 140.77 173.96 152.56 171.77 157.00 171.12 C 161.44 170.48 156.81 171.58 161.38 170.88 C 165.94 170.17 179.90 167.58 184.38 166.88 C 188.85 166.17 184.19 167.33 188.25 166.62 C 192.31 165.92 202.58 163.94 208.75 162.62 C 214.92 161.31 221.40 159.77 225.25 158.75 C 229.10 157.73 230.77 160.44 231.88 156.50 C 232.98 152.56 232.12 138.88 231.88 135.12 Z" id="s-0-f-1"/>
<path d="M 183.88 145.38 C 183.69 141.75 183.21 144.83 182.75 144.88 C 182.29 144.92 183.96 144.96 181.12 145.62 C 178.29 146.29 169.31 148.04 165.75 148.88 C 162.19 149.71 163.40 149.81 159.75 150.62 C 156.10 151.44 150.65 152.56 143.88 153.75 C 137.10 154.94 127.67 156.52 119.12 157.75 C 110.58 158.98 97.46 160.42 92.62 161.12 C 87.79 161.83 90.90 161.52 90.12 162.00 C 89.35 162.48 88.38 163.44 88.00 164.00 C 87.62 164.56 87.65 164.69 87.88 165.38 C 88.10 166.06 88.27 166.90 89.38 168.12 C 90.48 169.35 92.92 171.71 94.50 172.75 C 96.08 173.79 96.54 173.88 98.88 174.38 C 101.21 174.88 104.19 175.52 108.50 175.75 C 112.81 175.98 120.38 175.92 124.75 175.75 C 129.12 175.58 125.40 176.08 134.75 174.75 C 144.10 173.42 172.69 169.10 180.88 167.75 C 189.06 166.40 183.38 170.35 183.88 166.62 C 184.38 162.90 184.06 149.00 183.88 145.38 Z" id="s-0-f-2"/>
<path d="M 135.88 155.50 C 135.71 152.56 137.79 154.62 135.00 155.00 C 132.21 155.38 126.19 156.73 119.12 157.75 C 112.06 158.77 97.46 160.42 92.62 161.12 C 87.79 161.83 90.90 161.52 90.12 162.00 C 89.35 162.48 88.38 163.44 88.00 164.00 C 87.62 164.56 87.65 164.69 87.88 165.38 C 88.10 166.06 88.27 166.90 89.38 168.12 C 90.48 169.35 92.92 171.71 94.50 172.75 C 96.08 173.79 96.83 173.90 98.88 174.38 C 100.92 174.85 102.44 175.40 106.75 175.62 C 111.06 175.85 120.10 175.90 124.75 175.75 C 129.40 175.60 132.79 175.00 134.62 174.75 C 136.46 174.50 135.52 174.60 135.75 174.25 C 135.98 173.90 135.98 175.75 136.00 172.62 C 136.02 169.50 136.04 158.44 135.88 155.50 Z" id="s-0-f-3"/>
</g>
<g id="s-1" clip-path="url(#c-s-1)">
<use href="#s-1-f-0"/>
<path d="M 153.50 53.12 C 151.77 53.27 152.46 53.54 151.88 54.00 C 151.29 54.46 150.48 55.21 150.00 55.88 C 149.52 56.54 149.19 57.06 149.00 58.00 C 148.81 58.94 148.71 60.44 148.88 61.50 C 149.04 62.56 149.52 63.50 150.00 64.38 C 150.48 65.25 150.96 65.19 151.75 66.75 C 152.54 68.31 153.90 70.98 154.75 73.75 C 155.60 76.52 156.21 71.23 156.88 83.38 C 157.54 95.52 158.48 132.12 158.75 146.62 C 159.02 161.12 158.31 162.08 158.50 170.38 C 158.69 178.67 159.58 191.96 159.88 196.38 C 160.17 200.79 156.42 196.81 160.25 196.88 C 164.08 196.94 179.00 197.04 182.88 196.75 C 186.75 196.46 183.33 200.00 183.50 195.12 C 183.67 190.25 183.60 173.65 183.88 167.50 C 184.15 161.35 184.94 163.21 185.12 158.25 C 185.31 153.29 184.85 149.31 185.00 137.75 C 185.15 126.19 185.52 98.98 186.00 88.88 C 186.48 78.77 187.25 79.92 187.88 77.12 C 188.50 74.33 189.44 73.83 189.75 72.12 C 190.06 70.42 190.08 68.29 189.75 66.88 C 189.42 65.46 188.69 64.65 187.75 63.62 C 186.81 62.60 186.56 62.02 184.12 60.75 C 181.69 59.48 176.77 57.27 173.12 56.00 C 169.48 54.73 165.52 53.60 162.25 53.12 C 158.98 52.65 155.23 52.98 153.50 53.12 Z" id="s-1-f-1"/>
<path d="M 153.50 53.12 C 151.77 53.27 152.46 53.54 151.88 54.00 C 151.29 54.46 150.48 55.21 150.00 55.88 C 149.52 56.54 149.15 56.85 149.00 58.00 C 148.85 59.15 148.67 61.29 149.12 62.75 C 149.58 64.21 151.00 65.42 151.75 66.75 C 152.50 68.08 152.96 69.02 153.62 70.75 C 154.29 72.48 155.23 75.25 155.75 77.12 C 156.27 79.00 156.25 70.12 156.75 82.00 C 157.25 93.88 158.31 137.21 158.75 148.38 C 159.19 159.54 155.08 148.85 159.38 149.00 C 163.67 149.15 180.19 149.40 184.50 149.25 C 188.81 149.10 185.17 150.04 185.25 148.12 C 185.33 146.21 184.88 147.62 185.00 137.75 C 185.12 127.88 185.52 98.98 186.00 88.88 C 186.48 78.77 187.25 79.92 187.88 77.12 C 188.50 74.33 189.44 73.83 189.75 72.12 C 190.06 70.42 190.08 68.29 189.75 66.88 C 189.42 65.46 188.69 64.65 187.75 63.62 C 186.81 62.60 186.56 62.02 184.12 60.75 C 181.69 59.48 176.77 57.27 173.12 56.00 C 169.48 54.73 165.52 53.60 162.25 53.12 C 158.98 52.65 155.23 52.98 153.50 53.12 Z" id="s-1-f-2"/>
<path d="M 151.88 54.00 C 151.19 54.48 150.46 55.29 150.00 55.88 C 149.54 56.46 149.31 56.56 149.12 57.50 C 148.94 58.44 148.88 60.62 148.88 61.50 C 148.88 62.38 148.65 61.88 149.12 62.75 C 149.60 63.62 151.00 65.42 151.75 66.75 C 152.50 68.08 152.94 68.92 153.62 70.75 C 154.31 72.58 155.33 75.60 155.88 77.75 C 156.42 79.90 156.65 79.83 156.88 83.62 C 157.10 87.42 156.79 97.60 157.25 100.50 C 157.71 103.40 154.90 100.96 159.62 101.00 C 164.35 101.04 181.17 103.29 185.62 100.75 C 190.08 98.21 185.98 89.79 186.38 85.75 C 186.77 81.71 187.46 78.69 188.00 76.50 C 188.54 74.31 189.33 74.23 189.62 72.62 C 189.92 71.02 189.94 68.23 189.75 66.88 C 189.56 65.52 189.67 65.65 188.50 64.50 C 187.33 63.35 185.31 61.42 182.75 60.00 C 180.19 58.58 175.73 56.98 173.12 56.00 C 170.52 55.02 169.46 54.65 167.12 54.12 C 164.79 53.60 161.29 53.06 159.12 52.88 C 156.96 52.69 155.33 52.81 154.12 53.00 C 152.92 53.19 152.56 53.52 151.88 54.00 Z" id="s-1-f-3"/>
</g>
<g id="s-2" clip-path="url(#c-s-2)">
<use href="#s-2-f-0"/>
<path d="M 265.88 212.12 C 265.50 210.00 264.40 210.65 263.62 210.12 C 262.85 209.60 263.23 209.67 261.25 209.00 C 259.27 208.33 254.83 206.62 251.75 206.12 C 248.67 205.62 249.69 205.19 242.75 206.00 C 235.81 206.81 219.85 209.23 210.12 211.00 C 200.40 212.77 189.42 215.69 184.38 216.62 C 179.33 217.56 180.92 216.50 179.88 216.62 C 178.83 216.75 180.83 216.88 178.12 217.38 C 175.42 217.88 166.48 219.06 163.62 219.62 C 160.77 220.19 171.27 218.73 161.00 220.75 C 150.73 222.77 118.90 228.75 102.00 231.75 C 85.10 234.75 71.04 237.02 59.62 238.75 C 48.21 240.48 38.85 241.25 33.50 242.12 C 28.15 243.00 28.73 243.46 27.50 244.00 C 26.27 244.54 26.38 244.65 26.12 245.38 C 25.88 246.10 25.62 247.31 26.00 248.38 C 26.38 249.44 26.81 250.19 28.38 251.75 C 29.94 253.31 31.88 255.92 35.38 257.75 C 38.88 259.58 46.29 261.75 49.38 262.75 C 52.46 263.75 52.08 263.58 53.88 263.75 C 55.67 263.92 57.44 264.10 60.12 263.75 C 62.81 263.40 65.94 262.75 70.00 261.62 C 74.06 260.50 76.79 259.10 84.50 257.00 C 92.21 254.90 109.90 250.52 116.25 249.00 C 122.60 247.48 117.77 249.02 122.62 247.88 C 127.48 246.73 136.58 244.08 145.38 242.12 C 154.17 240.17 164.02 238.17 175.38 236.12 C 186.73 234.08 198.88 231.83 213.50 229.88 C 228.12 227.92 254.56 225.38 263.12 224.38 C 271.69 223.38 264.42 224.12 264.88 223.88 C 265.33 223.62 265.71 224.83 265.88 222.88 C 266.04 220.92 266.25 214.25 265.88 212.12 Z" id="s-2-f-1"/>
<path d="M 218.00 210.38 C 217.71 207.21 217.44 209.90 216.12 210.00 C 214.81 210.10 215.42 209.90 210.12 211.00 C 204.83 212.10 189.42 215.69 184.38 216.62 C 179.33 217.56 180.92 216.50 179.88 216.62 C 178.83 216.75 180.94 216.85 178.12 217.38 C 175.31 217.90 165.85 219.19 163.00 219.75 C 160.15 220.31 173.08 218.42 161.00 220.75 C 148.92 223.08 107.42 230.75 90.50 233.75 C 73.58 236.75 69.00 237.35 59.50 238.75 C 50.00 240.15 38.83 241.25 33.50 242.12 C 28.17 243.00 28.73 243.46 27.50 244.00 C 26.27 244.54 26.38 244.65 26.12 245.38 C 25.88 246.10 25.62 247.31 26.00 248.38 C 26.38 249.44 27.58 250.79 28.38 251.75 C 29.17 252.71 29.58 253.12 30.75 254.12 C 31.92 255.12 32.92 256.50 35.38 257.75 C 37.83 259.00 42.52 260.65 45.50 261.62 C 48.48 262.60 51.10 263.25 53.25 263.62 C 55.40 264.00 56.85 263.92 58.38 263.88 C 59.90 263.83 59.90 263.90 62.38 263.38 C 64.85 262.85 68.94 261.98 73.25 260.75 C 77.56 259.52 76.23 259.10 88.25 256.00 C 100.27 252.90 129.98 245.60 145.38 242.12 C 160.77 238.65 168.62 237.23 180.62 235.12 C 192.62 233.02 211.17 230.52 217.38 229.50 C 223.58 228.48 217.77 232.19 217.88 229.00 C 217.98 225.81 218.29 213.54 218.00 210.38 Z" id="s-2-f-2"/>
<path d="M 169.88 219.12 C 169.79 216.29 169.71 218.71 169.50 218.62 C 169.29 218.54 169.02 218.50 168.62 218.62 C 168.23 218.75 168.06 219.19 167.12 219.38 C 166.19 219.56 164.02 219.52 163.00 219.75 C 161.98 219.98 173.08 218.42 161.00 220.75 C 148.92 223.08 107.21 230.77 90.50 233.75 C 73.79 236.73 70.35 237.21 60.75 238.62 C 51.15 240.04 38.46 241.31 32.88 242.25 C 27.29 243.19 28.40 243.67 27.25 244.25 C 26.10 244.83 26.21 245.06 26.00 245.75 C 25.79 246.44 25.60 247.38 26.00 248.38 C 26.40 249.38 27.42 250.65 28.38 251.75 C 29.33 252.85 30.58 254.00 31.75 255.00 C 32.92 256.00 34.02 256.98 35.38 257.75 C 36.73 258.52 37.62 258.81 39.88 259.62 C 42.12 260.44 46.52 261.94 48.88 262.62 C 51.23 263.31 52.12 263.56 54.00 263.75 C 55.88 263.94 58.21 263.92 60.12 263.75 C 62.04 263.58 60.83 264.04 65.50 262.75 C 70.17 261.46 79.67 258.29 88.12 256.00 C 96.58 253.71 111.21 250.19 116.25 249.00 C 121.29 247.81 113.52 250.02 118.38 248.88 C 123.23 247.73 136.90 244.00 145.38 242.12 C 153.85 240.25 165.17 238.50 169.25 237.62 C 173.33 236.75 169.75 237.21 169.88 236.88 C 170.00 236.54 170.00 238.58 170.00 235.62 C 170.00 232.67 169.96 221.96 169.88 219.12 Z" id="s-2-f-3"/>
<path d="M 122.00 229.88 C 122.00 226.67 121.96 228.92 121.75 228.62 C 121.54 228.33 124.04 227.60 120.75 228.12 C 117.46 228.65 112.00 230.00 102.00 231.75 C 92.00 233.50 72.17 236.90 60.75 238.62 C 49.33 240.35 38.71 241.38 33.50 242.12 C 28.29 242.88 30.54 242.77 29.50 243.12 C 28.46 243.48 27.83 243.81 27.25 244.25 C 26.67 244.69 26.23 245.17 26.00 245.75 C 25.77 246.33 25.56 246.85 25.88 247.75 C 26.19 248.65 27.06 250.06 27.88 251.12 C 28.69 252.19 29.50 253.02 30.75 254.12 C 32.00 255.23 32.92 256.50 35.38 257.75 C 37.83 259.00 42.52 260.65 45.50 261.62 C 48.48 262.60 51.10 263.25 53.25 263.62 C 55.40 264.00 56.85 263.92 58.38 263.88 C 59.90 263.83 59.90 263.90 62.38 263.38 C 64.85 262.85 68.96 261.98 73.25 260.75 C 77.54 259.52 80.04 258.15 88.12 256.00 C 96.21 253.85 116.10 252.23 121.75 247.88 C 127.40 243.52 122.00 233.08 122.00 229.88 Z" id="s-2-f-4"/>
<path d="M 73.88 260.00 C 74.00 256.29 74.00 242.35 74.00 238.50 C 74.00 234.65 73.98 237.21 73.88 236.88 C 73.77 236.54 75.56 236.21 73.38 236.50 C 71.19 236.79 67.40 237.69 60.75 238.62 C 54.10 239.56 38.98 241.25 33.50 242.12 C 28.02 243.00 29.12 243.27 27.88 243.88 C 26.62 244.48 26.29 244.96 26.00 245.75 C 25.71 246.54 25.73 247.62 26.12 248.62 C 26.52 249.62 27.44 250.69 28.38 251.75 C 29.31 252.81 30.58 254.00 31.75 255.00 C 32.92 256.00 33.08 256.65 35.38 257.75 C 37.67 258.85 42.52 260.65 45.50 261.62 C 48.48 262.60 51.10 263.25 53.25 263.62 C 55.40 264.00 56.33 264.02 58.38 263.88 C 60.42 263.73 63.02 263.27 65.50 262.75 C 67.98 262.23 71.85 261.21 73.25 260.75 C 74.65 260.29 73.75 263.71 73.88 260.00 Z" id="s-2-f-5"/>
</g>
<g id="s-3" clip-path="url(#c-s-3)">
<use href="#s-3-f-0"/>
<path d="M 141.50 242.62 C 140.73 242.27 140.29 242.50 139.75 242.62 C 139.21 242.75 138.96 243.21 138.25 243.38 C 137.54 243.54 136.17 243.46 135.50 243.62 C 134.83 243.79 135.04 244.19 134.25 244.38 C 133.46 244.56 131.44 244.58 130.75 244.75 C 130.06 244.92 131.42 245.06 130.12 245.38 C 128.83 245.69 124.42 246.27 123.00 246.62 C 121.58 246.98 122.31 247.33 121.62 247.50 C 120.94 247.67 119.67 247.42 118.88 247.62 C 118.08 247.83 117.19 248.25 116.88 248.75 C 116.56 249.25 116.69 249.79 117.00 250.62 C 117.31 251.46 118.12 252.33 118.75 253.75 C 119.38 255.17 120.06 256.42 120.75 259.12 C 121.44 261.83 122.38 266.27 122.88 270.00 C 123.38 273.73 123.60 277.50 123.75 281.50 C 123.90 285.50 123.92 288.81 123.75 294.00 C 123.58 299.19 123.25 307.08 122.75 312.62 C 122.25 318.17 121.92 321.21 120.75 327.25 C 119.58 333.29 117.40 342.71 115.75 348.88 C 114.10 355.04 113.00 358.54 110.88 364.25 C 108.75 369.96 104.46 379.50 103.00 383.12 C 101.54 386.75 102.19 385.38 102.12 386.00 C 102.06 386.62 97.33 386.71 102.62 386.88 C 107.92 387.04 128.29 387.00 133.88 387.00 C 139.46 387.00 135.65 386.98 136.12 386.88 C 136.60 386.77 136.17 388.92 136.75 386.38 C 137.33 383.83 138.62 378.27 139.62 371.62 C 140.62 364.98 141.75 358.00 142.75 346.50 C 143.75 335.00 145.08 314.08 145.62 302.62 C 146.17 291.17 145.77 283.98 146.00 277.75 C 146.23 271.52 146.54 268.67 147.00 265.25 C 147.46 261.83 148.46 259.52 148.75 257.25 C 149.04 254.98 148.94 253.06 148.75 251.62 C 148.56 250.19 148.35 249.77 147.62 248.62 C 146.90 247.48 145.40 245.75 144.38 244.75 C 143.35 243.75 142.27 242.98 141.50 242.62 Z" id="s-3-f-1"/>
<path d="M 141.50 242.62 C 140.73 242.27 140.29 242.50 139.75 242.62 C 139.21 242.75 138.96 243.21 138.25 243.38 C 137.54 243.54 136.17 243.46 135.50 243.62 C 134.83 243.79 135.04 244.19 134.25 244.38 C 133.46 244.56 131.44 244.58 130.75 244.75 C 130.06 244.92 131.42 245.06 130.12 245.38 C 128.83 245.69 124.42 246.27 123.00 246.62 C 121.58 246.98 122.31 247.33 121.62 247.50 C 120.94 247.67 119.67 247.42 118.88 247.62 C 118.08 247.83 117.19 248.25 116.88 248.75 C 116.56 249.25 116.52 249.40 117.00 250.62 C 117.48 251.85 118.96 254.04 119.75 256.12 C 120.54 258.21 121.23 260.81 121.75 263.12 C 122.27 265.44 122.54 266.94 122.88 270.00 C 123.21 273.06 123.62 276.71 123.75 281.50 C 123.88 286.29 123.79 293.56 123.62 298.75 C 123.46 303.94 123.23 307.92 122.75 312.62 C 122.27 317.33 121.42 322.98 120.75 327.00 C 120.08 331.02 119.19 334.94 118.75 336.75 C 118.31 338.56 118.17 337.52 118.12 337.88 C 118.08 338.23 114.65 338.69 118.50 338.88 C 122.35 339.06 137.15 339.04 141.25 339.00 C 145.35 338.96 142.75 338.77 143.12 338.62 C 143.50 338.48 143.08 344.12 143.50 338.12 C 143.92 332.12 145.19 312.98 145.62 302.62 C 146.06 292.27 145.90 282.23 146.12 276.00 C 146.35 269.77 146.56 268.35 147.00 265.25 C 147.44 262.15 148.44 259.46 148.75 257.38 C 149.06 255.29 148.92 253.85 148.88 252.75 C 148.83 251.65 148.88 251.67 148.50 250.75 C 148.12 249.83 147.31 248.25 146.62 247.25 C 145.94 246.25 145.23 245.52 144.38 244.75 C 143.52 243.98 142.27 242.98 141.50 242.62 Z" id="s-3-f-2"/>
<path d="M 142.25 242.88 C 140.94 241.88 140.42 242.54 139.75 242.62 C 139.08 242.71 138.96 243.21 138.25 243.38 C 137.54 243.54 136.17 243.46 135.50 243.62 C 134.83 243.79 135.04 244.19 134.25 244.38 C 133.46 244.56 131.44 244.58 130.75 244.75 C 130.06 244.92 131.42 245.06 130.12 245.38 C 128.83 245.69 124.42 246.27 123.00 246.62 C 121.58 246.98 122.31 247.33 121.62 247.50 C 120.94 247.67 119.67 247.42 118.88 247.62 C 118.08 247.83 117.19 248.25 116.88 248.75 C 116.56 249.25 116.52 249.40 117.00 250.62 C 117.48 251.85 118.96 254.04 119.75 256.12 C 120.54 258.21 121.23 260.81 121.75 263.12 C 122.27 265.44 122.50 265.85 122.88 270.00 C 123.25 274.15 123.71 284.50 124.00 288.00 C 124.29 291.50 121.23 290.54 124.62 291.00 C 128.02 291.46 140.83 290.88 144.38 290.75 C 147.92 290.62 145.56 293.15 145.88 290.25 C 146.19 287.35 146.06 277.54 146.25 273.38 C 146.44 269.21 146.60 267.79 147.00 265.25 C 147.40 262.71 148.31 260.21 148.62 258.12 C 148.94 256.04 149.04 254.33 148.88 252.75 C 148.71 251.17 148.73 250.27 147.62 248.62 C 146.52 246.98 143.56 243.88 142.25 242.88 Z" id="s-3-f-3"/>
</g>
<g id="s-4" clip-path="url(#c-s-4)">
<use href="#s-4-f-0"/>
<path d="M 209.50 229.62 C 208.58 229.71 208.62 230.19 207.50 230.38 C 206.38 230.56 203.73 230.58 202.75 230.75 C 201.77 230.92 204.73 230.88 201.62 231.38 C 198.52 231.88 187.42 233.17 184.12 233.75 C 180.83 234.33 182.23 234.27 181.88 234.88 C 181.52 235.48 181.54 235.46 182.00 237.38 C 182.46 239.29 183.69 242.02 184.62 246.38 C 185.56 250.73 186.92 258.60 187.62 263.50 C 188.33 268.40 188.52 270.92 188.88 275.75 C 189.23 280.58 189.62 280.42 189.75 292.50 C 189.88 304.58 189.79 333.56 189.62 348.25 C 189.46 362.94 189.04 373.52 188.75 380.62 C 188.46 387.73 188.04 387.83 187.88 390.88 C 187.71 393.92 187.44 389.79 187.75 398.88 C 188.06 407.96 189.31 437.54 189.75 445.38 C 190.19 453.21 189.67 445.96 190.38 445.88 C 191.08 445.79 192.92 445.38 194.00 444.88 C 195.08 444.38 195.54 444.08 196.88 442.88 C 198.21 441.67 200.35 439.54 202.00 437.62 C 203.65 435.71 205.46 433.73 206.75 431.38 C 208.04 429.02 208.94 426.42 209.75 423.50 C 210.56 420.58 211.12 417.60 211.62 413.88 C 212.12 410.15 212.54 408.25 212.75 401.12 C 212.96 394.00 213.17 388.46 212.88 371.12 C 212.58 353.79 211.31 314.65 211.00 297.12 C 210.69 279.60 210.85 273.06 211.00 266.00 C 211.15 258.94 211.42 257.90 211.88 254.75 C 212.33 251.60 213.25 249.88 213.75 247.12 C 214.25 244.38 214.73 240.54 214.88 238.25 C 215.02 235.96 214.94 234.77 214.62 233.38 C 214.31 231.98 213.85 230.50 213.00 229.88 C 212.15 229.25 210.42 229.54 209.50 229.62 Z" id="s-4-f-1"/>
<path d="M 209.50 229.62 C 208.58 229.71 208.62 230.19 207.50 230.38 C 206.38 230.56 203.73 230.58 202.75 230.75 C 201.77 230.92 204.73 230.88 201.62 231.38 C 198.52 231.88 187.42 233.17 184.12 233.75 C 180.83 234.33 182.23 234.27 181.88 234.88 C 181.52 235.48 181.54 235.46 182.00 237.38 C 182.46 239.29 183.69 242.02 184.62 246.38 C 185.56 250.73 186.92 258.60 187.62 263.50 C 188.33 268.40 188.52 270.92 188.88 275.75 C 189.23 280.58 189.62 280.42 189.75 292.50 C 189.88 304.58 189.79 333.56 189.62 348.25 C 189.46 362.94 189.06 372.85 188.75 380.62 C 188.44 388.40 187.75 388.10 187.75 394.88 C 187.75 401.65 188.52 416.75 188.75 421.25 C 188.98 425.75 185.65 421.77 189.12 421.88 C 192.60 421.98 206.04 422.23 209.62 421.88 C 213.21 421.52 210.29 421.08 210.62 419.75 C 210.96 418.42 211.27 416.96 211.62 413.88 C 211.98 410.79 212.54 408.38 212.75 401.25 C 212.96 394.12 213.17 388.48 212.88 371.12 C 212.58 353.77 211.31 314.65 211.00 297.12 C 210.69 279.60 210.85 273.06 211.00 266.00 C 211.15 258.94 211.42 257.90 211.88 254.75 C 212.33 251.60 213.25 249.83 213.75 247.12 C 214.25 244.42 214.73 240.79 214.88 238.50 C 215.02 236.21 214.94 234.81 214.62 233.38 C 214.31 231.94 213.85 230.50 213.00 229.88 C 212.15 229.25 210.42 229.54 209.50 229.62 Z" id="s-4-f-2"/>
<path d="M 209.50 229.62 C 208.58 229.71 208.62 230.19 207.50 230.38 C 206.38 230.56 203.73 230.58 202.75 230.75 C 201.77 230.92 204.73 230.88 201.62 231.38 C 198.52 231.88 187.42 233.17 184.12 233.75 C 180.83 234.33 182.23 234.27 181.88 234.88 C 181.52 235.48 181.54 235.46 182.00 237.38 C 182.46 239.29 183.83 243.00 184.62 246.38 C 185.42 249.75 186.04 252.73 186.75 257.62 C 187.46 262.52 188.38 269.79 188.88 275.75 C 189.38 281.71 189.60 283.15 189.75 293.38 C 189.90 303.60 189.85 324.04 189.75 337.12 C 189.65 350.21 189.00 365.81 189.12 371.88 C 189.25 377.94 186.62 373.17 190.50 373.50 C 194.38 373.83 208.69 373.96 212.38 373.88 C 216.06 373.79 212.56 375.50 212.62 373.00 C 212.69 370.50 213.02 371.52 212.75 358.88 C 212.48 346.23 211.29 312.58 211.00 297.12 C 210.71 281.67 210.83 273.31 211.00 266.12 C 211.17 258.94 211.54 257.17 212.00 254.00 C 212.46 250.83 213.29 249.33 213.75 247.12 C 214.21 244.92 214.56 242.77 214.75 240.75 C 214.94 238.73 215.04 236.60 214.88 235.00 C 214.71 233.40 214.06 231.98 213.75 231.12 C 213.44 230.27 213.71 230.12 213.00 229.88 C 212.29 229.62 210.42 229.54 209.50 229.62 Z" id="s-4-f-3"/>
<path d="M 212.75 229.75 C 211.88 229.04 210.38 229.52 209.50 229.62 C 208.62 229.73 208.62 230.19 207.50 230.38 C 206.38 230.56 203.73 230.58 202.75 230.75 C 201.77 230.92 204.60 230.90 201.62 231.38 C 198.65 231.85 188.17 233.04 184.88 233.62 C 181.58 234.21 182.35 234.25 181.88 234.88 C 181.40 235.50 181.54 235.46 182.00 237.38 C 182.46 239.29 183.85 243.21 184.62 246.38 C 185.40 249.54 185.96 252.04 186.62 256.38 C 187.29 260.71 188.10 266.17 188.62 272.38 C 189.15 278.58 189.56 284.77 189.75 293.62 C 189.94 302.48 189.65 320.10 189.75 325.50 C 189.85 330.90 186.73 325.96 190.38 326.00 C 194.02 326.04 208.06 327.71 211.62 325.75 C 215.19 323.79 211.88 320.94 211.75 314.25 C 211.62 307.56 210.98 293.96 210.88 285.62 C 210.77 277.29 210.94 269.52 211.12 264.25 C 211.31 258.98 211.56 256.85 212.00 254.00 C 212.44 251.15 213.27 249.73 213.75 247.12 C 214.23 244.52 214.71 240.58 214.88 238.38 C 215.04 236.17 215.10 235.31 214.75 233.88 C 214.40 232.44 213.62 230.46 212.75 229.75 Z" id="s-4-f-4"/>
<path d="M 212.75 229.75 C 211.88 229.04 210.38 229.52 209.50 229.62 C 208.62 229.73 208.62 230.19 207.50 230.38 C 206.38 230.56 203.88 230.54 202.75 230.75 C 201.62 230.96 201.60 231.48 200.75 231.62 C 199.90 231.77 198.67 231.48 197.62 231.62 C 196.58 231.77 196.62 232.17 194.50 232.50 C 192.38 232.83 186.98 233.23 184.88 233.62 C 182.77 234.02 182.35 234.25 181.88 234.88 C 181.40 235.50 181.54 235.46 182.00 237.38 C 182.46 239.29 183.85 243.21 184.62 246.38 C 185.40 249.54 185.88 251.19 186.62 256.38 C 187.38 261.56 187.65 273.90 189.12 277.50 C 190.60 281.10 191.96 277.92 195.50 278.00 C 199.04 278.08 207.83 278.06 210.38 278.00 C 212.92 277.94 210.50 281.48 210.75 277.62 C 211.00 273.77 211.48 259.75 211.88 254.88 C 212.27 250.00 212.81 249.67 213.12 248.38 C 213.44 247.08 213.46 248.79 213.75 247.12 C 214.04 245.46 214.71 240.58 214.88 238.38 C 215.04 236.17 215.10 235.31 214.75 233.88 C 214.40 232.44 213.62 230.46 212.75 229.75 Z" id="s-4-f-5"/>
</g>
<g id="s-5" clip-path="url(#c-s-5)">
<use href="#s-5-f-0"/>
<path d="M 108.00 295.38 C 106.90 294.08 104.98 292.12 103.00 290.75 C 101.02 289.38 98.31 287.94 96.12 287.12 C 93.94 286.31 91.65 286.06 89.88 285.88 C 88.10 285.69 86.50 285.73 85.50 286.00 C 84.50 286.27 84.33 285.77 83.88 287.50 C 83.42 289.23 83.44 293.50 82.75 296.38 C 82.06 299.25 81.92 299.94 79.75 304.75 C 77.58 309.56 72.19 320.44 69.75 325.25 C 67.31 330.06 65.83 332.17 65.12 333.62 C 64.42 335.08 61.73 333.94 65.50 334.00 C 69.27 334.06 83.73 334.04 87.75 334.00 C 91.77 333.96 89.12 333.94 89.62 333.75 C 90.12 333.56 88.38 336.31 90.75 332.88 C 93.12 329.44 101.31 317.38 103.88 313.12 C 106.44 308.88 105.15 309.19 106.12 307.38 C 107.10 305.56 109.17 303.73 109.75 302.25 C 110.33 300.77 109.92 299.65 109.62 298.50 C 109.33 297.35 109.10 296.67 108.00 295.38 Z" id="s-5-f-1"/>
</g>
<g id="s-6" clip-path="url(#c-s-6)">
<use href="#s-6-f-0"/>
<path d="M 210.88 285.88 C 208.75 285.44 210.54 285.21 210.50 286.38 C 210.46 287.54 209.92 291.27 210.62 292.88 C 211.33 294.48 212.77 293.92 214.75 296.00 C 216.73 298.08 217.31 298.67 222.50 305.38 C 227.69 312.08 240.52 329.67 245.88 336.25 C 251.23 342.83 252.62 343.12 254.62 344.88 C 256.62 346.62 257.21 346.44 257.88 346.75 C 258.54 347.06 258.44 347.17 258.62 346.75 C 258.81 346.33 258.98 350.71 259.00 344.25 C 259.02 337.79 259.85 314.90 258.75 308.00 C 257.65 301.10 254.44 304.38 252.38 302.88 C 250.31 301.38 248.62 300.29 246.38 299.00 C 244.12 297.71 242.73 296.79 238.88 295.12 C 235.02 293.46 227.92 290.54 223.25 289.00 C 218.58 287.46 213.00 286.31 210.88 285.88 Z" id="s-6-f-1"/>
</g>
<g id="s-7" clip-path="url(#c-s-7)">
<use href="#s-7-f-0"/>
<path d="M 276.88 200.25 C 276.31 200.46 275.92 200.73 275.50 201.12 C 275.08 201.52 274.65 201.90 274.38 202.62 C 274.10 203.35 273.00 204.08 273.88 205.50 C 274.75 206.92 277.98 209.19 279.62 211.12 C 281.27 213.06 282.73 215.35 283.75 217.12 C 284.77 218.90 284.92 219.12 285.75 221.75 C 286.58 224.38 287.75 228.29 288.75 232.88 C 289.75 237.46 290.38 240.04 291.75 249.25 C 293.12 258.46 295.75 280.38 297.00 288.12 C 298.25 295.88 298.58 294.44 299.25 295.75 C 299.92 297.06 297.92 295.98 301.00 296.00 C 304.08 296.02 314.79 296.92 317.75 295.88 C 320.71 294.83 318.54 291.90 318.75 289.75 C 318.96 287.60 319.33 288.77 319.00 283.00 C 318.67 277.23 317.58 263.77 316.75 255.12 C 315.92 246.48 314.48 236.15 314.00 231.12 C 313.52 226.10 314.90 228.77 313.88 225.00 C 312.85 221.23 309.21 211.65 307.88 208.50 C 306.54 205.35 306.83 206.88 305.88 206.12 C 304.92 205.38 303.92 204.81 302.12 204.00 C 300.33 203.19 297.62 201.92 295.12 201.25 C 292.62 200.58 289.83 200.23 287.12 200.00 C 284.42 199.77 280.58 199.83 278.88 199.88 C 277.17 199.92 277.44 200.04 276.88 200.25 Z" id="s-7-f-1"/>
<path d="M 275.50 201.12 C 274.92 201.71 274.27 202.77 274.00 203.50 C 273.73 204.23 273.35 204.71 273.88 205.50 C 274.40 206.29 275.98 207.08 277.12 208.25 C 278.27 209.42 279.65 211.02 280.75 212.50 C 281.85 213.98 282.92 215.58 283.75 217.12 C 284.58 218.67 284.92 219.12 285.75 221.75 C 286.58 224.38 287.81 228.58 288.75 232.88 C 289.69 237.17 290.58 244.98 291.38 247.50 C 292.17 250.02 290.65 247.94 293.50 248.00 C 296.35 248.06 304.81 248.06 308.50 247.88 C 312.19 247.69 314.71 249.67 315.62 246.88 C 316.54 244.08 314.31 234.92 314.00 231.12 C 313.69 227.33 314.92 228.15 313.75 224.12 C 312.58 220.10 308.90 210.33 307.00 207.00 C 305.10 203.67 304.52 205.12 302.38 204.12 C 300.23 203.12 296.42 201.67 294.12 201.00 C 291.83 200.33 291.40 200.29 288.62 200.12 C 285.85 199.96 279.69 199.83 277.50 200.00 C 275.31 200.17 276.08 200.54 275.50 201.12 Z" id="s-7-f-2"/>
</g>
<g id="s-8" clip-path="url(#c-s-8)">
<use href="#s-8-f-0"/>
<path d="M 464.88 218.12 C 464.88 217.23 464.96 215.71 464.62 214.62 C 464.29 213.54 464.58 213.56 462.88 211.62 C 461.17 209.69 456.92 205.29 454.38 203.00 C 451.83 200.71 449.79 199.35 447.62 197.88 C 445.46 196.40 443.81 195.40 441.38 194.12 C 438.94 192.85 434.79 190.96 433.00 190.25 C 431.21 189.54 432.48 189.75 430.62 189.88 C 428.77 190.00 424.15 190.52 421.88 191.00 C 419.60 191.48 418.73 192.31 417.00 192.75 C 415.27 193.19 413.73 193.40 411.50 193.62 C 409.27 193.85 408.88 193.44 403.62 194.12 C 398.38 194.81 388.00 196.79 380.00 197.75 C 372.00 198.71 364.67 198.71 355.62 199.88 C 346.58 201.04 333.23 203.69 325.75 204.75 C 318.27 205.81 313.88 205.88 310.75 206.25 C 307.62 206.62 307.71 206.77 307.00 207.00 C 306.29 207.23 306.44 207.31 306.50 207.62 C 306.56 207.94 307.19 208.35 307.38 208.88 C 307.56 209.40 307.46 210.29 307.62 210.75 C 307.79 211.21 308.21 211.19 308.38 211.62 C 308.54 212.06 308.29 212.52 308.62 213.38 C 308.96 214.23 309.88 215.46 310.38 216.75 C 310.88 218.04 311.06 219.77 311.62 221.12 C 312.19 222.48 312.67 224.27 313.75 224.88 C 314.83 225.48 316.42 225.08 318.12 224.75 C 319.83 224.42 313.96 224.52 324.00 222.88 C 334.04 221.23 365.17 216.52 378.38 214.88 C 391.58 213.23 397.77 213.31 403.25 213.00 C 408.73 212.69 409.00 212.83 411.25 213.00 C 413.50 213.17 415.42 213.58 416.75 214.00 C 418.08 214.42 418.56 214.96 419.25 215.50 C 419.94 216.04 420.46 216.56 420.88 217.25 C 421.29 217.94 421.77 217.79 421.75 219.62 C 421.73 221.46 421.65 223.77 420.75 228.25 C 419.85 232.73 417.00 243.40 416.38 246.50 C 415.75 249.60 412.56 246.79 417.00 246.88 C 421.44 246.96 438.31 247.04 443.00 247.00 C 447.69 246.96 443.81 248.23 445.12 246.62 C 446.44 245.02 449.21 239.81 450.88 237.38 C 452.54 234.94 453.12 234.29 455.12 232.00 C 457.12 229.71 461.29 225.62 462.88 223.62 C 464.46 221.62 464.29 220.92 464.62 220.00 C 464.96 219.08 464.88 219.02 464.88 218.12 Z" id="s-8-f-1"/>
<path d="M 448.25 198.25 C 447.12 197.40 443.60 195.33 441.38 194.12 C 439.15 192.92 436.44 191.69 434.88 191.00 C 433.31 190.31 433.19 190.17 432.00 190.00 C 430.81 189.83 429.44 189.83 427.75 190.00 C 426.06 190.17 423.75 190.52 421.88 191.00 C 420.00 191.48 418.23 192.44 416.50 192.88 C 414.77 193.31 413.65 193.42 411.50 193.62 C 409.35 193.83 408.88 193.44 403.62 194.12 C 398.38 194.81 387.98 196.79 380.00 197.75 C 372.02 198.71 364.79 198.71 355.75 199.88 C 346.71 201.04 333.25 203.69 325.75 204.75 C 318.25 205.81 313.90 205.88 310.75 206.25 C 307.60 206.62 307.58 206.73 306.88 207.00 C 306.17 207.27 306.42 207.56 306.50 207.88 C 306.58 208.19 307.19 208.40 307.38 208.88 C 307.56 209.35 307.46 210.29 307.62 210.75 C 307.79 211.21 308.21 211.19 308.38 211.62 C 308.54 212.06 308.29 212.52 308.62 213.38 C 308.96 214.23 309.71 215.06 310.38 216.75 C 311.04 218.44 312.04 222.15 312.62 223.50 C 313.21 224.85 313.17 224.65 313.88 224.88 C 314.58 225.10 314.46 225.33 316.88 224.88 C 319.29 224.42 318.12 223.79 328.38 222.12 C 338.62 220.46 364.79 216.44 378.38 214.88 C 391.96 213.31 398.35 215.27 409.88 212.75 C 421.40 210.23 441.12 202.00 447.50 199.75 C 453.88 197.50 448.00 199.50 448.12 199.25 C 448.25 199.00 449.38 199.10 448.25 198.25 Z" id="s-8-f-2"/>
<path d="M 403.00 196.12 C 402.96 194.06 402.98 195.27 402.75 195.00 C 402.52 194.73 405.42 194.04 401.62 194.50 C 397.83 194.96 384.44 197.19 380.00 197.75 C 375.56 198.31 379.23 197.50 375.00 197.88 C 370.77 198.25 362.83 198.85 354.62 200.00 C 346.42 201.15 333.67 203.60 325.75 204.75 C 317.83 205.90 310.33 206.35 307.12 206.88 C 303.92 207.40 306.46 207.54 306.50 207.88 C 306.54 208.21 307.19 208.40 307.38 208.88 C 307.56 209.35 307.46 210.29 307.62 210.75 C 307.79 211.21 308.21 211.19 308.38 211.62 C 308.54 212.06 308.29 212.52 308.62 213.38 C 308.96 214.23 309.71 215.06 310.38 216.75 C 311.04 218.44 312.04 222.15 312.62 223.50 C 313.21 224.85 312.94 224.67 313.88 224.88 C 314.81 225.08 316.67 225.06 318.25 224.75 C 319.83 224.44 313.35 224.65 323.38 223.00 C 333.40 221.35 365.19 216.54 378.38 214.88 C 391.56 213.21 398.40 214.25 402.50 213.00 C 406.60 211.75 402.92 210.19 403.00 207.38 C 403.08 204.56 403.04 198.19 403.00 196.12 Z" id="s-8-f-3"/>
<path d="M 354.88 218.00 C 355.12 215.19 355.06 204.85 355.00 201.88 C 354.94 198.90 357.90 199.94 354.50 200.12 C 351.10 200.31 339.42 202.23 334.62 203.00 C 329.83 203.77 329.75 204.21 325.75 204.75 C 321.75 205.29 313.73 205.90 310.62 206.25 C 307.52 206.60 307.81 206.65 307.12 206.88 C 306.44 207.10 306.46 207.29 306.50 207.62 C 306.54 207.96 307.19 208.35 307.38 208.88 C 307.56 209.40 307.46 210.29 307.62 210.75 C 307.79 211.21 308.21 211.19 308.38 211.62 C 308.54 212.06 308.29 212.52 308.62 213.38 C 308.96 214.23 309.71 215.06 310.38 216.75 C 311.04 218.44 312.04 222.15 312.62 223.50 C 313.21 224.85 312.90 224.67 313.88 224.88 C 314.85 225.08 316.92 225.06 318.50 224.75 C 320.08 224.44 318.33 223.96 323.38 223.00 C 328.42 222.04 343.73 219.71 348.75 219.00 C 353.77 218.29 352.48 218.92 353.50 218.75 C 354.52 218.58 354.62 220.81 354.88 218.00 Z" id="s-8-f-4"/>
</g>
<g id="s-9" clip-path="url(#c-s-9)">
<use href="#s-9-f-0"/>
<path d="M 414.00 271.50 C 413.85 269.19 413.52 270.92 413.12 270.75 C 412.73 270.58 413.23 270.44 411.62 270.50 C 410.02 270.56 409.12 270.25 403.50 271.12 C 397.88 272.00 382.92 274.94 377.88 275.75 C 372.83 276.56 377.98 275.31 373.25 276.00 C 368.52 276.69 358.58 278.71 349.50 279.88 C 340.42 281.04 324.04 281.60 318.75 283.00 C 313.46 284.40 317.96 285.83 317.75 288.25 C 317.54 290.67 316.98 295.77 317.50 297.50 C 318.02 299.23 319.65 298.40 320.88 298.62 C 322.10 298.85 321.92 298.85 324.88 298.88 C 327.83 298.90 334.75 298.92 338.62 298.75 C 342.50 298.58 345.65 298.02 348.12 297.88 C 350.60 297.73 349.44 298.23 353.50 297.88 C 357.56 297.52 366.62 296.56 372.50 295.75 C 378.38 294.94 385.19 293.50 388.75 293.00 C 392.31 292.50 389.73 293.27 393.88 292.75 C 398.02 292.23 410.27 291.23 413.62 289.88 C 416.98 288.52 413.94 287.69 414.00 284.62 C 414.06 281.56 414.15 273.81 414.00 271.50 Z" id="s-9-f-1"/>
<path d="M 365.88 277.75 C 364.98 274.94 364.54 277.38 360.62 277.88 C 356.71 278.38 349.35 279.90 342.38 280.75 C 335.40 281.60 322.85 281.75 318.75 283.00 C 314.65 284.25 317.96 285.83 317.75 288.25 C 317.54 290.67 316.77 295.75 317.50 297.50 C 318.23 299.25 318.60 298.54 322.12 298.75 C 325.65 298.96 333.42 298.90 338.62 298.75 C 343.83 298.60 348.92 298.27 353.38 297.88 C 357.83 297.48 363.27 296.90 365.38 296.38 C 367.48 295.85 365.92 297.85 366.00 294.75 C 366.08 291.65 366.77 280.56 365.88 277.75 Z" id="s-9-f-2"/>
</g>
<g id="s-10" clip-path="url(#c-s-10)">
<use href="#s-10-f-0"/>
<path d="M 342.50 75.00 C 340.65 75.17 340.54 75.42 339.62 76.00 C 338.71 76.58 337.60 77.65 337.00 78.50 C 336.40 79.35 336.17 80.02 336.00 81.12 C 335.83 82.23 334.88 82.40 336.00 85.12 C 337.12 87.85 341.29 94.33 342.75 97.50 C 344.21 100.67 344.29 102.19 344.75 104.12 C 345.21 106.06 345.29 106.71 345.50 109.12 C 345.71 111.54 345.62 114.92 346.00 118.62 C 346.38 122.33 347.19 125.58 347.75 131.38 C 348.31 137.17 349.02 141.85 349.38 153.38 C 349.73 164.90 349.85 192.52 349.88 200.50 C 349.90 208.48 349.50 194.25 349.50 201.25 C 349.50 208.25 349.88 226.48 349.88 242.50 C 349.88 258.52 349.50 288.08 349.50 297.38 C 349.50 306.67 349.79 287.42 349.88 298.25 C 349.96 309.08 349.92 351.58 350.00 362.38 C 350.08 373.17 346.17 362.90 350.38 363.00 C 354.58 363.10 371.00 363.12 375.25 363.00 C 379.50 362.88 375.67 366.73 375.88 362.25 C 376.08 357.77 376.17 360.62 376.50 336.12 C 376.83 311.62 377.56 235.54 377.88 215.25 C 378.19 194.96 378.17 215.46 378.38 214.38 C 378.58 213.29 379.00 215.92 379.12 208.75 C 379.25 201.58 378.48 184.19 379.12 171.38 C 379.77 158.56 382.04 140.88 383.00 131.88 C 383.96 122.88 384.38 120.75 384.88 117.38 C 385.38 114.00 385.04 114.33 386.00 111.62 C 386.96 108.92 389.83 103.54 390.62 101.12 C 391.42 98.71 391.06 98.58 390.75 97.12 C 390.44 95.67 389.73 93.83 388.75 92.38 C 387.77 90.92 386.08 89.44 384.88 88.38 C 383.67 87.31 383.42 87.06 381.50 86.00 C 379.58 84.94 376.33 83.31 373.38 82.00 C 370.42 80.69 366.46 79.10 363.75 78.12 C 361.04 77.15 359.29 76.65 357.12 76.12 C 354.96 75.60 353.19 75.19 350.75 75.00 C 348.31 74.81 344.35 74.83 342.50 75.00 Z" id="s-10-f-1"/>
<path d="M 342.50 75.00 C 340.65 75.17 340.54 75.42 339.62 76.00 C 338.71 76.58 337.60 77.65 337.00 78.50 C 336.40 79.35 336.17 80.02 336.00 81.12 C 335.83 82.23 334.88 82.40 336.00 85.12 C 337.12 87.85 341.29 94.33 342.75 97.50 C 344.21 100.67 343.73 96.33 344.75 104.12 C 345.77 111.92 348.04 134.12 348.88 144.25 C 349.71 154.38 349.58 142.33 349.75 164.88 C 349.92 187.42 349.92 260.25 349.88 279.50 C 349.83 298.75 349.56 277.40 349.50 280.38 C 349.44 283.35 349.44 294.40 349.50 297.38 C 349.56 300.35 349.81 295.52 349.88 298.25 C 349.94 300.98 349.79 310.96 349.88 313.75 C 349.96 316.54 346.23 314.81 350.38 315.00 C 354.52 315.19 370.44 314.98 374.75 314.88 C 379.06 314.77 375.90 315.38 376.25 314.38 C 376.60 313.38 376.60 325.40 376.88 308.88 C 377.15 292.35 377.52 231.62 377.88 215.25 C 378.23 198.88 378.77 212.81 379.00 210.62 C 379.23 208.44 379.23 208.67 379.25 202.12 C 379.27 195.58 378.50 183.08 379.12 171.38 C 379.75 159.67 382.02 141.00 383.00 131.88 C 383.98 122.75 384.50 120.00 385.00 116.62 C 385.50 113.25 385.06 114.21 386.00 111.62 C 386.94 109.04 389.83 103.54 390.62 101.12 C 391.42 98.71 391.06 98.58 390.75 97.12 C 390.44 95.67 389.73 93.83 388.75 92.38 C 387.77 90.92 386.08 89.44 384.88 88.38 C 383.67 87.31 383.42 87.06 381.50 86.00 C 379.58 84.94 376.33 83.31 373.38 82.00 C 370.42 80.69 366.46 79.10 363.75 78.12 C 361.04 77.15 359.29 76.65 357.12 76.12 C 354.96 75.60 353.19 75.19 350.75 75.00 C 348.31 74.81 344.35 74.83 342.50 75.00 Z" id="s-10-f-2"/>
<path d="M 342.62 75.00 C 340.77 75.17 340.56 75.42 339.62 76.00 C 338.69 76.58 337.60 77.67 337.00 78.50 C 336.40 79.33 336.19 80.04 336.00 81.00 C 335.81 81.96 335.71 83.17 335.88 84.25 C 336.04 85.33 335.85 85.29 337.00 87.50 C 338.15 89.71 341.46 94.73 342.75 97.50 C 344.04 100.27 343.75 96.65 344.75 104.12 C 345.75 111.60 347.92 132.25 348.75 142.38 C 349.58 152.50 349.62 152.19 349.75 164.88 C 349.88 177.56 349.46 201.54 349.50 218.50 C 349.54 235.46 349.85 258.54 350.00 266.62 C 350.15 274.71 345.92 267.00 350.38 267.00 C 354.83 267.00 372.19 270.98 376.75 266.62 C 381.31 262.27 377.56 249.44 377.75 240.88 C 377.94 232.31 377.77 219.67 377.88 215.25 C 377.98 210.83 378.17 215.46 378.38 214.38 C 378.58 213.29 379.00 216.06 379.12 208.75 C 379.25 201.44 378.46 183.54 379.12 170.50 C 379.79 157.46 382.17 139.35 383.12 130.50 C 384.08 121.65 384.40 120.52 384.88 117.38 C 385.35 114.23 385.02 114.40 386.00 111.62 C 386.98 108.85 389.96 103.19 390.75 100.75 C 391.54 98.31 391.08 98.38 390.75 97.00 C 390.42 95.62 389.67 93.88 388.75 92.50 C 387.83 91.12 386.50 89.85 385.25 88.75 C 384.00 87.65 383.60 87.17 381.25 85.88 C 378.90 84.58 374.52 82.46 371.12 81.00 C 367.73 79.54 364.27 78.12 360.88 77.12 C 357.48 76.12 353.79 75.35 350.75 75.00 C 347.71 74.65 344.48 74.83 342.62 75.00 Z" id="s-10-f-3"/>
<path d="M 342.00 75.12 C 340.12 75.33 340.21 75.67 339.38 76.25 C 338.54 76.83 337.56 77.83 337.00 78.62 C 336.44 79.42 336.19 80.06 336.00 81.00 C 335.81 81.94 335.71 83.17 335.88 84.25 C 336.04 85.33 335.85 85.29 337.00 87.50 C 338.15 89.71 341.46 94.73 342.75 97.50 C 344.04 100.27 344.29 102.19 344.75 104.12 C 345.21 106.06 345.29 106.73 345.50 109.12 C 345.71 111.52 345.46 112.96 346.00 118.50 C 346.54 124.04 348.15 135.67 348.75 142.38 C 349.35 149.08 349.44 149.06 349.62 158.75 C 349.81 168.44 349.90 193.42 349.88 200.50 C 349.85 207.58 349.56 198.27 349.50 201.25 C 349.44 204.23 349.40 215.44 349.50 218.38 C 349.60 221.31 349.75 218.77 350.12 218.88 C 350.50 218.98 347.17 219.00 351.75 219.00 C 356.33 219.00 373.06 220.58 377.62 218.88 C 382.19 217.17 378.88 216.81 379.12 208.75 C 379.38 200.69 378.46 183.54 379.12 170.50 C 379.79 157.46 381.98 140.31 383.12 130.50 C 384.27 120.69 384.73 116.58 386.00 111.62 C 387.27 106.67 389.96 103.19 390.75 100.75 C 391.54 98.31 391.08 98.38 390.75 97.00 C 390.42 95.62 389.67 93.88 388.75 92.50 C 387.83 91.12 386.50 89.85 385.25 88.75 C 384.00 87.65 383.60 87.17 381.25 85.88 C 378.90 84.58 374.52 82.46 371.12 81.00 C 367.73 79.54 364.29 78.12 360.88 77.12 C 357.46 76.12 353.77 75.33 350.62 75.00 C 347.48 74.67 343.88 74.92 342.00 75.12 Z" id="s-10-f-4"/>
<path d="M 341.62 75.25 C 340.81 75.48 340.15 75.69 339.38 76.25 C 338.60 76.81 337.56 77.83 337.00 78.62 C 336.44 79.42 336.19 80.06 336.00 81.00 C 335.81 81.94 335.71 83.17 335.88 84.25 C 336.04 85.33 335.83 85.21 337.00 87.50 C 338.17 89.79 341.58 95.23 342.88 98.00 C 344.17 100.77 343.77 96.73 344.75 104.12 C 345.73 111.52 347.88 131.29 348.75 142.38 C 349.62 153.46 349.73 165.85 350.00 170.62 C 350.27 175.40 345.60 170.98 350.38 171.00 C 355.15 171.02 373.81 170.85 378.62 170.75 C 383.44 170.65 378.83 173.94 379.25 170.38 C 379.67 166.81 380.17 158.33 381.12 149.38 C 382.08 140.42 384.19 122.92 385.00 116.62 C 385.81 110.33 385.21 113.79 386.00 111.62 C 386.79 109.46 388.94 105.56 389.75 103.62 C 390.56 101.69 390.71 101.10 390.88 100.00 C 391.04 98.90 390.92 97.92 390.75 97.00 C 390.58 96.08 390.44 95.54 389.88 94.50 C 389.31 93.46 388.54 92.02 387.38 90.75 C 386.21 89.48 385.98 88.67 382.88 86.88 C 379.77 85.08 372.42 81.62 368.75 80.00 C 365.08 78.38 363.69 77.94 360.88 77.12 C 358.06 76.31 354.65 75.50 351.88 75.12 C 349.10 74.75 345.96 74.85 344.25 74.88 C 342.54 74.90 342.44 75.02 341.62 75.25 Z" id="s-10-f-5"/>
<path d="M 337.50 77.88 C 336.88 78.71 336.25 79.77 336.00 81.00 C 335.75 82.23 335.21 83.15 336.00 85.25 C 336.79 87.35 339.46 91.08 340.75 93.62 C 342.04 96.17 342.96 97.92 343.75 100.50 C 344.54 103.08 345.12 106.12 345.50 109.12 C 345.88 112.12 345.79 116.27 346.00 118.50 C 346.21 120.73 344.75 121.75 346.75 122.50 C 348.75 123.25 352.21 122.92 358.00 123.00 C 363.79 123.08 377.23 123.04 381.50 123.00 C 385.77 122.96 383.17 122.88 383.62 122.75 C 384.08 122.62 383.85 124.10 384.25 122.25 C 384.65 120.40 385.08 114.73 386.00 111.62 C 386.92 108.52 388.94 105.56 389.75 103.62 C 390.56 101.69 390.71 101.10 390.88 100.00 C 391.04 98.90 390.92 97.92 390.75 97.00 C 390.58 96.08 390.54 95.65 389.88 94.50 C 389.21 93.35 387.92 91.40 386.75 90.12 C 385.58 88.85 384.71 88.04 382.88 86.88 C 381.04 85.71 378.52 84.44 375.75 83.12 C 372.98 81.81 369.46 80.19 366.25 79.00 C 363.04 77.81 359.08 76.67 356.50 76.00 C 353.92 75.33 353.06 75.17 350.75 75.00 C 348.44 74.83 344.46 74.83 342.62 75.00 C 340.79 75.17 340.60 75.52 339.75 76.00 C 338.90 76.48 338.12 77.04 337.50 77.88 Z" id="s-10-f-6"/>
</g>
<g id="s-11" clip-path="url(#c-s-11)">
<use href="#s-11-f-0"/>
<path d="M 401.88 358.62 C 401.73 356.54 405.06 357.25 400.88 358.25 C 396.69 359.25 381.31 363.56 376.75 364.62 C 372.19 365.69 374.25 364.50 373.50 364.62 C 372.75 364.75 372.94 365.21 372.25 365.38 C 371.56 365.54 370.83 365.29 369.38 365.62 C 367.92 365.96 364.98 367.04 363.50 367.38 C 362.02 367.71 361.21 367.46 360.50 367.62 C 359.79 367.79 360.65 368.04 359.25 368.38 C 357.85 368.71 354.31 369.06 352.12 369.62 C 349.94 370.19 353.96 369.90 346.12 371.75 C 338.29 373.60 316.27 378.42 305.12 380.75 C 293.98 383.08 287.00 384.52 279.25 385.75 C 271.50 386.98 262.17 387.62 258.62 388.12 C 255.08 388.62 258.10 388.27 258.00 388.75 C 257.90 389.23 257.58 389.85 258.00 391.00 C 258.42 392.15 259.56 394.25 260.50 395.62 C 261.44 397.00 262.31 397.92 263.62 399.25 C 264.94 400.58 266.38 401.98 268.38 403.62 C 270.38 405.27 273.42 407.62 275.62 409.12 C 277.83 410.62 279.50 411.69 281.62 412.62 C 283.75 413.56 286.35 414.40 288.38 414.75 C 290.40 415.10 286.21 417.67 293.75 414.75 C 301.29 411.83 322.88 401.85 333.62 397.25 C 344.38 392.65 346.90 391.54 358.25 387.12 C 369.60 382.71 394.48 375.50 401.75 370.75 C 409.02 366.00 402.02 360.71 401.88 358.62 Z" id="s-11-f-1"/>
<path d="M 354.00 370.12 C 353.98 367.12 354.06 369.71 353.75 369.62 C 353.44 369.54 353.40 369.27 352.12 369.62 C 350.85 369.98 357.23 369.23 346.12 371.75 C 335.02 374.27 297.60 382.27 285.50 384.75 C 273.40 387.23 278.00 386.06 273.50 386.62 C 269.00 387.19 261.10 387.69 258.50 388.12 C 255.90 388.56 257.96 388.77 257.88 389.25 C 257.79 389.73 257.56 389.94 258.00 391.00 C 258.44 392.06 259.56 394.25 260.50 395.62 C 261.44 397.00 262.06 397.71 263.62 399.25 C 265.19 400.79 267.71 403.12 269.88 404.88 C 272.04 406.62 274.19 408.27 276.62 409.75 C 279.06 411.23 282.52 412.92 284.50 413.75 C 286.48 414.58 286.94 414.58 288.50 414.75 C 290.06 414.92 286.69 417.52 293.88 414.75 C 301.06 411.98 321.73 402.35 331.62 398.12 C 341.52 393.90 349.54 391.12 353.25 389.38 C 356.96 387.62 353.75 390.83 353.88 387.62 C 354.00 384.42 354.02 373.12 354.00 370.12 Z" id="s-11-f-2"/>
<path d="M 305.88 409.00 C 306.00 404.50 306.10 387.48 306.00 382.75 C 305.90 378.02 308.67 380.29 305.25 380.62 C 301.83 380.96 290.79 383.75 285.50 384.75 C 280.21 385.75 277.88 386.08 273.50 386.62 C 269.12 387.17 261.83 387.67 259.25 388.00 C 256.67 388.33 258.21 388.12 258.00 388.62 C 257.79 389.12 257.83 390.23 258.00 391.00 C 258.17 391.77 258.06 391.88 259.00 393.25 C 259.94 394.62 261.19 396.83 263.62 399.25 C 266.06 401.67 270.60 405.52 273.62 407.75 C 276.65 409.98 279.25 411.46 281.75 412.62 C 284.25 413.79 286.58 414.40 288.62 414.75 C 290.67 415.10 291.23 415.58 294.00 414.75 C 296.77 413.92 303.27 410.71 305.25 409.75 C 307.23 408.79 305.75 413.50 305.88 409.00 Z" id="s-11-f-3"/>
</g>
<g id="s-12" clip-path="url(#c-s-12)">
<use href="#s-12-f-0"/>
<path d="M 399.75 317.00 C 398.92 317.10 399.15 317.33 399.00 317.75 C 398.85 318.17 398.69 318.56 398.88 319.50 C 399.06 320.44 398.79 321.23 400.12 323.38 C 401.46 325.52 405.10 329.83 406.88 332.38 C 408.65 334.92 408.83 335.19 410.75 338.62 C 412.67 342.06 417.04 350.31 418.38 353.00 C 419.71 355.69 418.04 353.42 418.75 354.75 C 419.46 356.08 421.73 359.71 422.62 361.00 C 423.52 362.29 423.40 361.17 424.12 362.50 C 424.85 363.83 424.69 364.35 427.00 369.00 C 429.31 373.65 434.67 384.33 438.00 390.38 C 441.33 396.42 444.42 401.52 447.00 405.25 C 449.58 408.98 450.38 411.46 453.50 412.75 C 456.62 414.04 463.44 413.02 465.75 413.00 C 468.06 412.98 466.54 413.75 467.38 412.62 C 468.21 411.50 469.90 408.33 470.75 406.25 C 471.60 404.17 472.17 403.15 472.50 400.12 C 472.83 397.10 472.88 391.31 472.75 388.12 C 472.62 384.94 472.42 383.92 471.75 381.00 C 471.08 378.08 469.77 373.46 468.75 370.62 C 467.73 367.79 466.62 365.85 465.62 364.00 C 464.62 362.15 463.90 361.12 462.75 359.50 C 461.60 357.88 460.96 356.73 458.75 354.25 C 456.54 351.77 452.10 347.19 449.50 344.62 C 446.90 342.06 445.35 340.67 443.12 338.88 C 440.90 337.08 439.42 336.04 436.12 333.88 C 432.83 331.71 427.29 328.19 423.38 325.88 C 419.46 323.56 415.85 321.46 412.62 320.00 C 409.40 318.54 406.15 317.62 404.00 317.12 C 401.85 316.62 400.58 316.90 399.75 317.00 Z" id="s-12-f-1"/>
<path d="M 399.00 317.75 C 398.77 318.35 398.81 319.56 399.00 320.50 C 399.19 321.44 398.50 320.92 400.12 323.38 C 401.75 325.83 405.83 330.56 408.75 335.25 C 411.67 339.94 415.96 348.23 417.62 351.50 C 419.29 354.77 417.46 352.65 418.75 354.88 C 420.04 357.10 417.56 363.23 425.38 364.88 C 433.19 366.52 458.90 364.88 465.62 364.75 C 472.35 364.62 466.23 365.00 465.75 364.12 C 465.27 363.25 464.00 361.23 462.75 359.50 C 461.50 357.77 460.06 355.85 458.25 353.75 C 456.44 351.65 454.58 349.50 451.88 346.88 C 449.17 344.25 445.92 341.00 442.00 338.00 C 438.08 335.00 433.27 331.88 428.38 328.88 C 423.48 325.88 416.79 321.98 412.62 320.00 C 408.46 318.02 405.42 317.52 403.38 317.00 C 401.33 316.48 401.10 316.75 400.38 316.88 C 399.65 317.00 399.23 317.15 399.00 317.75 Z" id="s-12-f-2"/>
</g>
</svg>