<?xml version="1.0" encoding="UTF-8"?>
<svg xmlns="http://www.w3.org/2000/svg" viewBox="0 0 500 500">
<defs>
<path d="M 188.75 174.62 C 188.40 173.48 187.40 172.02 186.62 171.12 C 185.85 170.23 185.38 169.94 184.12 169.25 C 182.88 168.56 181.33 167.85 179.12 167.00 C 176.92 166.15 172.98 164.77 170.88 164.12 C 168.77 163.48 168.33 163.31 166.50 163.12 C 164.67 162.94 163.60 162.06 159.88 163.00 C 156.15 163.94 147.02 167.77 144.12 168.75 C 141.23 169.73 146.06 167.85 142.50 168.88 C 138.94 169.90 126.31 173.73 122.75 174.88 C 119.19 176.02 122.31 175.54 121.12 175.75 C 119.94 175.96 118.94 175.46 115.62 176.12 C 112.31 176.79 108.50 178.17 101.25 179.75 C 94.00 181.33 80.73 184.08 72.12 185.62 C 63.52 187.17 53.92 188.15 49.62 189.00 C 45.33 189.85 47.00 190.19 46.38 190.75 C 45.75 191.31 45.83 191.81 45.88 192.38 C 45.92 192.94 46.15 193.42 46.62 194.12 C 47.10 194.83 47.79 195.69 48.75 196.62 C 49.71 197.56 51.08 198.92 52.38 199.75 C 53.67 200.58 55.15 201.15 56.50 201.62 C 57.85 202.10 58.44 202.27 60.50 202.62 C 62.56 202.98 66.54 203.54 68.88 203.75 C 71.21 203.96 72.02 203.88 74.50 203.88 C 76.98 203.88 80.67 203.94 83.75 203.75 C 86.83 203.56 87.81 203.54 93.00 202.75 C 98.19 201.96 110.69 199.65 114.88 199.00 C 119.06 198.35 117.21 199.02 118.12 198.88 C 119.04 198.73 116.67 198.81 120.38 198.12 C 124.08 197.44 132.25 196.50 140.38 194.75 C 148.50 193.00 163.40 189.12 169.12 187.62 C 174.85 186.12 172.21 186.75 174.75 185.75 C 177.29 184.75 182.25 182.67 184.38 181.62 C 186.50 180.58 186.77 180.10 187.50 179.50 C 188.23 178.90 188.54 178.81 188.75 178.00 C 188.96 177.19 189.10 175.77 188.75 174.62 Z" id="s-0-f-0"/>
<clipPath id="c-s-0"><use href="#s-0-f-0"/></clipPath>
<path d="M 113.50 44.12 C 112.08 44.46 111.35 45.27 110.62 46.00 C 109.90 46.73 109.42 47.44 109.12 48.50 C 108.83 49.56 108.58 50.08 108.88 52.38 C 109.17 54.67 110.06 59.65 110.88 62.25 C 111.69 64.85 112.77 65.17 113.75 68.00 C 114.73 70.83 115.92 74.90 116.75 79.25 C 117.58 83.60 118.25 89.19 118.75 94.12 C 119.25 99.06 119.44 101.98 119.75 108.88 C 120.06 115.77 120.44 124.40 120.62 135.50 C 120.81 146.60 121.04 166.35 120.88 175.50 C 120.71 184.65 119.79 185.46 119.62 190.38 C 119.46 195.29 120.02 193.04 119.88 205.00 C 119.73 216.96 119.27 245.83 118.75 262.12 C 118.23 278.42 117.75 288.06 116.75 302.75 C 115.75 317.44 113.92 337.65 112.75 350.25 C 111.58 362.85 111.04 368.96 109.75 378.38 C 108.46 387.79 105.81 400.69 105.00 406.75 C 104.19 412.81 104.52 411.54 104.88 414.75 C 105.23 417.96 105.77 421.38 107.12 426.00 C 108.48 430.62 111.48 438.90 113.00 442.50 C 114.52 446.10 115.27 446.25 116.25 447.62 C 117.23 449.00 118.00 449.90 118.88 450.75 C 119.75 451.60 120.67 452.40 121.50 452.75 C 122.33 453.10 123.12 453.00 123.88 452.88 C 124.62 452.75 125.29 452.44 126.00 452.00 C 126.71 451.56 127.00 451.67 128.12 450.25 C 129.25 448.83 131.17 446.50 132.75 443.50 C 134.33 440.50 136.46 435.62 137.62 432.25 C 138.79 428.88 139.23 441.29 139.75 423.25 C 140.27 405.21 140.56 353.25 140.75 324.00 C 140.94 294.75 140.52 269.38 140.88 247.75 C 141.23 226.12 142.44 203.46 142.88 194.25 C 143.31 185.04 143.31 193.62 143.50 192.50 C 143.69 191.38 143.92 191.90 144.00 187.50 C 144.08 183.10 143.69 175.90 144.00 166.12 C 144.31 156.35 145.04 140.19 145.88 128.88 C 146.71 117.56 148.00 106.40 149.00 98.25 C 150.00 90.10 151.10 83.90 151.88 80.00 C 152.65 76.10 153.29 76.60 153.62 74.88 C 153.96 73.15 154.00 71.15 153.88 69.62 C 153.75 68.10 153.42 66.98 152.88 65.75 C 152.33 64.52 151.71 63.54 150.62 62.25 C 149.54 60.96 147.79 59.21 146.38 58.00 C 144.96 56.79 145.69 56.98 142.12 55.00 C 138.56 53.02 128.83 47.96 125.00 46.12 C 121.17 44.29 121.04 44.33 119.12 44.00 C 117.21 43.67 114.92 43.79 113.50 44.12 Z" id="s-1-f-0"/>
<clipPath id="c-s-1"><use href="#s-1-f-0"/></clipPath>
<path d="M 120.88 176.38 C 120.67 172.75 119.96 176.44 119.88 176.50 C 119.79 176.56 120.42 176.52 120.38 176.75 C 120.33 176.98 119.96 176.42 119.62 177.88 C 119.29 179.33 118.71 184.00 118.38 185.50 C 118.04 187.00 117.79 186.10 117.62 186.88 C 117.46 187.65 117.54 189.35 117.38 190.12 C 117.21 190.90 116.79 190.71 116.62 191.50 C 116.46 192.29 116.54 194.12 116.38 194.88 C 116.21 195.62 115.75 195.21 115.62 196.00 C 115.50 196.79 117.10 194.90 115.62 199.62 C 114.15 204.35 110.23 215.50 106.75 224.38 C 103.27 233.25 98.42 244.83 94.75 252.88 C 91.08 260.92 88.08 266.52 84.75 272.62 C 81.42 278.73 79.10 282.69 74.75 289.50 C 70.40 296.31 64.00 306.15 58.62 313.50 C 53.25 320.85 46.71 328.62 42.50 333.62 C 38.29 338.62 36.62 340.15 33.38 343.50 C 30.12 346.85 24.73 351.90 23.00 353.75 C 21.27 355.60 22.79 354.31 23.00 354.62 C 23.21 354.94 22.98 355.46 24.25 355.62 C 25.52 355.79 28.96 355.81 30.62 355.62 C 32.29 355.44 32.81 355.12 34.25 354.50 C 35.69 353.88 36.23 353.83 39.25 351.88 C 42.27 349.92 48.33 345.77 52.38 342.75 C 56.42 339.73 59.77 337.06 63.50 333.75 C 67.23 330.44 70.98 326.81 74.75 322.88 C 78.52 318.94 82.67 314.33 86.12 310.12 C 89.58 305.92 92.40 302.10 95.50 297.62 C 98.60 293.15 102.21 287.33 104.75 283.25 C 107.29 279.17 108.54 277.10 110.75 273.12 C 112.96 269.15 116.60 261.83 118.00 259.38 C 119.40 256.92 118.81 260.54 119.12 258.38 C 119.44 256.21 119.69 253.50 119.88 246.38 C 120.06 239.25 120.04 223.65 120.25 215.62 C 120.46 207.60 121.02 204.79 121.12 198.25 C 121.23 191.71 121.08 180.00 120.88 176.38 Z" id="s-2-f-0"/>
<clipPath id="c-s-2"><use href="#s-2-f-0"/></clipPath>
<path d="M 140.75 252.12 C 140.44 254.02 140.58 261.40 140.75 263.38 C 140.92 265.35 140.42 262.46 141.75 264.00 C 143.08 265.54 145.38 268.23 148.75 272.62 C 152.12 277.02 158.85 286.31 162.00 290.38 C 165.15 294.44 165.83 295.15 167.62 297.00 C 169.42 298.85 171.42 300.54 172.75 301.50 C 174.08 302.46 174.46 302.56 175.62 302.75 C 176.79 302.94 178.69 302.85 179.75 302.62 C 180.81 302.40 181.33 301.92 182.00 301.38 C 182.67 300.83 182.96 301.15 183.75 299.38 C 184.54 297.60 186.23 292.96 186.75 290.75 C 187.27 288.54 186.94 287.48 186.88 286.12 C 186.81 284.77 186.75 284.06 186.38 282.62 C 186.00 281.19 185.54 279.23 184.62 277.50 C 183.71 275.77 182.25 273.81 180.88 272.25 C 179.50 270.69 178.94 270.00 176.38 268.12 C 173.81 266.25 171.12 263.69 165.50 261.00 C 159.88 258.31 146.75 253.48 142.62 252.00 C 138.50 250.52 141.06 250.23 140.75 252.12 Z" id="s-3-f-0"/>
<clipPath id="c-s-3"><use href="#s-3-f-0"/></clipPath>
<path d="M 194.75 132.00 C 192.65 132.17 192.60 132.69 192.00 133.00 C 191.40 133.31 191.29 133.23 191.12 133.88 C 190.96 134.52 190.85 135.96 191.00 136.88 C 191.15 137.79 191.04 137.73 192.00 139.38 C 192.96 141.02 195.46 144.17 196.75 146.75 C 198.04 149.33 198.90 151.62 199.75 154.88 C 200.60 158.12 201.38 162.12 201.88 166.25 C 202.38 170.38 202.60 170.90 202.75 179.62 C 202.90 188.35 202.92 205.27 202.75 218.62 C 202.58 231.98 202.08 249.92 201.75 259.75 C 201.42 269.58 201.25 270.88 200.75 277.62 C 200.25 284.38 199.71 292.35 198.75 300.25 C 197.79 308.15 195.62 319.10 195.00 325.00 C 194.38 330.90 194.81 332.88 195.00 335.62 C 195.19 338.38 195.60 339.58 196.12 341.50 C 196.65 343.42 196.81 344.40 198.12 347.12 C 199.44 349.85 202.56 355.50 204.00 357.88 C 205.44 360.25 205.96 360.52 206.75 361.38 C 207.54 362.23 208.17 362.60 208.75 363.00 C 209.33 363.40 209.50 363.65 210.25 363.75 C 211.00 363.85 212.35 364.15 213.25 363.62 C 214.15 363.10 214.88 362.31 215.62 360.62 C 216.38 358.94 217.23 356.17 217.75 353.50 C 218.27 350.83 218.29 351.29 218.75 344.62 C 219.21 337.96 219.83 328.31 220.50 313.50 C 221.17 298.69 222.19 283.27 222.75 255.75 C 223.31 228.23 225.02 168.35 223.88 148.38 C 222.73 128.40 217.54 138.23 215.88 135.88 C 214.21 133.52 214.81 134.73 213.88 134.25 C 212.94 133.77 211.79 133.38 210.25 133.00 C 208.71 132.62 207.21 132.17 204.62 132.00 C 202.04 131.83 196.85 131.83 194.75 132.00 Z" id="s-4-f-0"/>
<clipPath id="c-s-4"><use href="#s-4-f-0"/></clipPath>
<path d="M 263.88 120.00 C 262.08 120.60 258.54 122.48 255.50 123.62 C 252.46 124.77 250.83 125.35 245.62 126.88 C 240.42 128.40 229.08 131.52 224.25 132.75 C 219.42 133.98 218.23 133.81 216.62 134.25 C 215.02 134.69 213.62 133.08 214.62 135.38 C 215.62 137.67 221.12 145.75 222.62 148.00 C 224.12 150.25 223.12 148.75 223.62 148.88 C 224.12 149.00 224.85 148.94 225.62 148.75 C 226.40 148.56 226.75 148.54 228.25 147.75 C 229.75 146.96 231.79 145.31 234.62 144.00 C 237.46 142.69 242.62 140.71 245.25 139.88 C 247.88 139.04 249.10 139.15 250.38 139.00 C 251.65 138.85 251.88 138.83 252.88 139.00 C 253.88 139.17 255.27 139.38 256.38 140.00 C 257.48 140.62 258.75 141.88 259.50 142.75 C 260.25 143.62 260.48 143.83 260.88 145.25 C 261.27 146.67 261.46 146.56 261.88 151.25 C 262.29 155.94 262.90 161.54 263.38 173.38 C 263.85 185.21 264.50 195.54 264.75 222.25 C 265.00 248.96 265.04 312.71 264.88 333.62 C 264.71 354.54 264.06 344.98 263.75 347.75 C 263.44 350.52 263.12 348.65 263.00 350.25 C 262.88 351.85 262.67 355.04 263.00 357.38 C 263.33 359.71 264.12 362.06 265.00 364.25 C 265.88 366.44 266.77 368.58 268.25 370.50 C 269.73 372.42 272.67 374.85 273.88 375.75 C 275.08 376.65 274.85 376.02 275.50 375.88 C 276.15 375.73 277.00 375.40 277.75 374.88 C 278.50 374.35 278.85 374.25 280.00 372.75 C 281.15 371.25 283.33 368.25 284.62 365.88 C 285.92 363.50 287.06 360.65 287.75 358.50 C 288.44 356.35 288.58 358.04 288.75 353.00 C 288.92 347.96 288.90 335.73 288.75 328.25 C 288.60 320.77 288.15 318.12 287.88 308.12 C 287.60 298.12 287.27 287.40 287.12 268.25 C 286.98 249.10 286.85 209.92 287.00 193.25 C 287.15 176.58 287.27 175.73 288.00 168.25 C 288.73 160.77 290.73 153.08 291.38 148.38 C 292.02 143.67 291.83 141.62 291.88 140.00 C 291.92 138.38 291.96 139.38 291.62 138.62 C 291.29 137.88 291.29 137.12 289.88 135.50 C 288.46 133.88 286.56 131.27 283.12 128.88 C 279.69 126.48 272.06 122.60 269.25 121.12 C 266.44 119.65 267.15 120.19 266.25 120.00 C 265.35 119.81 265.67 119.40 263.88 120.00 Z" id="s-5-f-0"/>
<clipPath id="c-s-5"><use href="#s-5-f-0"/></clipPath>
<path d="M 265.25 229.25 C 264.69 227.52 263.00 227.62 261.88 227.12 C 260.75 226.62 260.58 226.60 258.50 226.25 C 256.42 225.90 251.65 225.21 249.38 225.00 C 247.10 224.79 246.08 224.71 244.88 225.00 C 243.67 225.29 245.83 225.44 242.12 226.75 C 238.42 228.06 225.90 230.08 222.62 232.88 C 219.35 235.67 222.02 241.52 222.50 243.50 C 222.98 245.48 223.85 244.54 225.50 244.75 C 227.15 244.96 228.04 245.54 232.38 244.75 C 236.71 243.96 246.44 241.02 251.50 240.00 C 256.56 238.98 260.46 239.04 262.75 238.62 C 265.04 238.21 264.83 239.06 265.25 237.50 C 265.67 235.94 265.81 230.98 265.25 229.25 Z" id="s-6-f-0"/>
<clipPath id="c-s-6"><use href="#s-6-f-0"/></clipPath>
<path d="M 265.25 334.25 C 264.94 332.79 264.42 333.52 263.12 333.00 C 261.83 332.48 259.19 331.48 257.50 331.12 C 255.81 330.77 259.46 329.92 253.00 330.88 C 246.54 331.83 224.62 334.98 218.75 336.88 C 212.88 338.77 217.94 339.81 217.75 342.25 C 217.56 344.69 217.33 349.90 217.62 351.50 C 217.92 353.10 217.85 351.83 219.50 351.88 C 221.15 351.92 220.08 352.58 227.50 351.75 C 234.92 350.92 257.75 348.54 264.00 346.88 C 270.25 345.21 264.79 343.85 265.00 341.75 C 265.21 339.65 265.56 335.71 265.25 334.25 Z" id="s-7-f-0"/>
<clipPath id="c-s-7"><use href="#s-7-f-0"/></clipPath>
<path d="M 434.88 139.62 C 434.73 138.92 434.31 138.15 433.88 137.50 C 433.44 136.85 433.29 136.50 432.25 135.75 C 431.21 135.00 430.19 134.10 427.62 133.00 C 425.06 131.90 419.54 129.96 416.88 129.12 C 414.21 128.29 413.25 128.21 411.62 128.00 C 410.00 127.79 408.77 127.71 407.12 127.88 C 405.48 128.04 404.56 128.19 401.75 129.00 C 398.94 129.81 392.58 132.10 390.25 132.75 C 387.92 133.40 391.62 132.19 387.75 132.88 C 383.88 133.56 373.90 135.42 367.00 136.88 C 360.10 138.33 353.46 140.44 346.38 141.62 C 339.29 142.81 328.98 143.40 324.50 144.00 C 320.02 144.60 320.52 144.94 319.50 145.25 C 318.48 145.56 318.65 145.52 318.38 145.88 C 318.10 146.23 317.77 146.73 317.88 147.38 C 317.98 148.02 317.96 148.56 319.00 149.75 C 320.04 150.94 322.33 153.35 324.12 154.50 C 325.92 155.65 327.29 156.08 329.75 156.62 C 332.21 157.17 332.94 157.52 338.88 157.75 C 344.81 157.98 356.98 158.65 365.38 158.00 C 373.77 157.35 384.54 154.58 389.25 153.88 C 393.96 153.17 388.62 154.62 393.62 153.75 C 398.62 152.88 412.67 150.31 419.25 148.62 C 425.83 146.94 430.54 144.77 433.12 143.62 C 435.71 142.48 434.46 142.42 434.75 141.75 C 435.04 141.08 435.02 140.33 434.88 139.62 Z" id="s-8-f-0"/>
<clipPath id="c-s-8"><use href="#s-8-f-0"/></clipPath>
<path d="M 359.50 38.12 C 357.67 38.50 357.23 39.52 356.50 40.25 C 355.77 40.98 355.38 41.31 355.12 42.50 C 354.88 43.69 354.27 45.29 355.00 47.38 C 355.73 49.46 358.38 52.67 359.50 55.00 C 360.62 57.33 361.21 59.50 361.75 61.38 C 362.29 63.25 362.40 53.96 362.75 66.25 C 363.10 78.54 363.75 123.04 363.88 135.12 C 364.00 147.21 363.56 135.04 363.50 138.75 C 363.44 142.46 363.44 154.00 363.50 157.38 C 363.56 160.75 363.67 152.48 363.88 159.00 C 364.08 165.52 364.50 189.73 364.75 196.50 C 365.00 203.27 365.10 199.04 365.38 199.62 C 365.65 200.21 362.90 200.42 366.38 200.00 C 369.85 199.58 382.83 197.79 386.25 197.12 C 389.67 196.46 386.44 203.15 386.88 196.00 C 387.31 188.85 388.44 161.71 388.88 154.25 C 389.31 146.79 389.44 152.19 389.50 151.25 C 389.56 150.31 389.23 149.19 389.25 148.62 C 389.27 148.06 389.50 147.94 389.62 147.88 C 389.75 147.81 389.92 148.52 390.00 148.25 C 390.08 147.98 390.12 149.48 390.12 146.25 C 390.12 143.02 389.69 141.02 390.00 128.88 C 390.31 116.73 391.33 84.58 392.00 73.38 C 392.67 62.17 393.38 64.42 394.00 61.62 C 394.62 58.83 395.44 58.21 395.75 56.62 C 396.06 55.04 396.02 53.29 395.88 52.12 C 395.73 50.96 395.38 50.42 394.88 49.62 C 394.38 48.83 394.27 48.48 392.88 47.38 C 391.48 46.27 389.62 44.38 386.50 43.00 C 383.38 41.62 377.29 39.96 374.12 39.12 C 370.96 38.29 369.94 38.17 367.50 38.00 C 365.06 37.83 361.33 37.75 359.50 38.12 Z" id="s-9-f-0"/>
<clipPath id="c-s-9"><use href="#s-9-f-0"/></clipPath>
<path d="M 475.88 203.12 C 475.77 202.33 475.52 201.75 474.88 200.88 C 474.23 200.00 473.10 198.85 472.00 197.88 C 470.90 196.90 470.00 196.15 468.25 195.00 C 466.50 193.85 464.71 192.48 461.50 191.00 C 458.29 189.52 451.65 186.98 449.00 186.12 C 446.35 185.27 447.52 185.73 445.62 185.88 C 443.73 186.02 440.98 186.35 437.62 187.00 C 434.27 187.65 433.83 188.12 425.50 189.75 C 417.17 191.38 394.69 195.60 387.62 196.75 C 380.56 197.90 384.27 196.52 383.12 196.62 C 381.98 196.73 383.21 197.04 380.75 197.38 C 378.29 197.71 371.10 198.21 368.38 198.62 C 365.65 199.04 370.10 198.85 364.38 199.88 C 358.65 200.90 344.96 203.10 334.00 204.75 C 323.04 206.40 305.38 208.88 298.62 209.75 C 291.88 210.62 294.71 209.81 293.50 210.00 C 292.29 210.19 291.81 210.46 291.38 210.88 C 290.94 211.29 290.88 212.00 290.88 212.50 C 290.88 213.00 290.79 213.17 291.38 213.88 C 291.96 214.58 292.17 215.44 294.38 216.75 C 296.58 218.06 302.04 220.60 304.62 221.75 C 307.21 222.90 308.23 223.15 309.88 223.62 C 311.52 224.10 312.77 224.42 314.50 224.62 C 316.23 224.83 316.94 225.31 320.25 224.88 C 323.56 224.44 322.96 223.81 334.38 222.00 C 345.79 220.19 376.10 215.52 388.75 214.00 C 401.40 212.48 403.17 213.38 410.25 212.88 C 417.33 212.38 422.19 211.52 431.25 211.00 C 440.31 210.48 458.10 210.12 464.62 209.75 C 471.15 209.38 468.98 209.08 470.38 208.75 C 471.77 208.42 472.15 208.27 473.00 207.75 C 473.85 207.23 475.02 206.40 475.50 205.62 C 475.98 204.85 475.98 203.92 475.88 203.12 Z" id="s-10-f-0"/>
<clipPath id="c-s-10"><use href="#s-10-f-0"/></clipPath>
<path d="M 465.88 269.50 C 465.75 268.83 465.92 268.46 465.00 267.38 C 464.08 266.29 462.65 264.73 460.38 263.00 C 458.10 261.27 454.88 258.62 451.38 257.00 C 447.88 255.38 442.29 253.92 439.38 253.25 C 436.46 252.58 436.44 252.75 433.88 253.00 C 431.31 253.25 426.06 254.46 424.00 254.75 C 421.94 255.04 426.58 253.77 421.50 254.75 C 416.42 255.73 412.60 257.25 393.50 260.62 C 374.40 264.00 321.46 272.48 306.88 275.00 C 292.29 277.52 306.15 275.38 306.00 275.75 C 305.85 276.12 305.23 276.25 306.00 277.25 C 306.77 278.25 307.85 280.00 310.62 281.75 C 313.40 283.50 319.50 286.44 322.62 287.75 C 325.75 289.06 327.21 289.27 329.38 289.62 C 331.54 289.98 334.15 289.90 335.62 289.88 C 337.10 289.85 337.12 289.81 338.25 289.50 C 339.38 289.19 337.88 288.92 342.38 288.00 C 346.88 287.08 358.96 285.00 365.25 284.00 C 371.54 283.00 375.44 282.52 380.12 282.00 C 384.81 281.48 390.52 281.21 393.38 280.88 C 396.23 280.54 395.52 280.17 397.25 280.00 C 398.98 279.83 399.40 280.23 403.75 279.88 C 408.10 279.52 414.17 278.58 423.38 277.88 C 432.58 277.17 452.27 276.29 459.00 275.62 C 465.73 274.96 462.62 274.58 463.75 273.88 C 464.88 273.17 465.40 272.10 465.75 271.38 C 466.10 270.65 466.00 270.17 465.88 269.50 Z" id="s-11-f-0"/>
<clipPath id="c-s-11"><use href="#s-11-f-0"/></clipPath>
<path d="M 420.62 211.62 C 418.69 211.21 414.58 211.50 412.38 211.62 C 410.17 211.75 410.23 212.19 407.38 212.38 C 404.52 212.56 398.17 212.52 395.25 212.75 C 392.33 212.98 389.96 210.12 389.88 213.75 C 389.79 217.38 393.60 228.94 394.75 234.50 C 395.90 240.06 396.25 243.19 396.75 247.12 C 397.25 251.06 397.60 253.96 397.75 258.12 C 397.90 262.29 397.31 266.81 397.62 272.12 C 397.94 277.44 399.27 278.48 399.62 290.00 C 399.98 301.52 399.88 325.35 399.75 341.25 C 399.62 357.15 399.19 375.33 398.88 385.38 C 398.56 395.42 398.23 397.88 397.88 401.50 C 397.52 405.12 397.31 405.33 396.75 407.12 C 396.19 408.92 395.21 411.15 394.50 412.25 C 393.79 413.35 393.58 413.54 392.50 413.75 C 391.42 413.96 390.29 413.83 388.00 413.50 C 385.71 413.17 383.00 412.71 378.75 411.75 C 374.50 410.79 366.08 408.71 362.50 407.75 C 358.92 406.79 358.71 406.29 357.25 406.00 C 355.79 405.71 354.48 405.79 353.75 406.00 C 353.02 406.21 353.00 406.69 352.88 407.25 C 352.75 407.81 352.83 408.71 353.00 409.38 C 353.17 410.04 351.21 408.40 353.88 411.25 C 356.54 414.10 365.27 422.60 369.00 426.50 C 372.73 430.40 373.46 431.29 376.25 434.62 C 379.04 437.96 383.31 443.23 385.75 446.50 C 388.19 449.77 388.96 452.06 390.88 454.25 C 392.79 456.44 395.81 458.54 397.25 459.62 C 398.69 460.71 398.23 460.60 399.50 460.75 C 400.77 460.90 403.19 461.02 404.88 460.50 C 406.56 459.98 408.06 458.88 409.62 457.62 C 411.19 456.38 412.54 455.08 414.25 453.00 C 415.96 450.92 418.65 447.06 419.88 445.12 C 421.10 443.19 420.98 443.15 421.62 441.38 C 422.27 439.60 423.08 437.46 423.75 434.50 C 424.42 431.54 425.15 427.10 425.62 423.62 C 426.10 420.15 426.44 422.29 426.62 413.62 C 426.81 404.96 427.21 388.81 426.75 371.62 C 426.29 354.44 424.50 325.44 423.88 310.50 C 423.25 295.56 423.15 291.58 423.00 282.00 C 422.85 272.42 422.79 259.83 423.00 253.00 C 423.21 246.17 423.65 245.06 424.25 241.00 C 424.85 236.94 426.19 231.94 426.62 228.62 C 427.06 225.31 426.88 222.79 426.88 221.12 C 426.88 219.46 426.81 219.42 426.62 218.62 C 426.44 217.83 426.19 217.12 425.75 216.38 C 425.31 215.62 424.85 214.92 424.00 214.12 C 423.15 213.33 422.56 212.04 420.62 211.62 Z" id="s-12-f-0"/>
<clipPath id="c-s-12"><use href="#s-12-f-0"/></clipPath>
<path d="M 328.00 317.12 C 327.67 318.06 325.67 316.12 328.12 320.62 C 330.58 325.12 339.48 339.04 342.75 344.12 C 346.02 349.21 345.85 348.73 347.75 351.12 C 349.65 353.52 352.62 356.90 354.12 358.50 C 355.62 360.10 355.75 360.19 356.75 360.75 C 357.75 361.31 358.71 361.75 360.12 361.88 C 361.54 362.00 363.62 361.98 365.25 361.50 C 366.88 361.02 368.62 360.00 369.88 359.00 C 371.12 358.00 372.10 356.48 372.75 355.50 C 373.40 354.52 373.40 354.62 373.75 353.12 C 374.10 351.62 374.71 348.75 374.88 346.50 C 375.04 344.25 374.94 341.42 374.75 339.62 C 374.56 337.83 374.08 336.79 373.75 335.75 C 373.42 334.71 373.38 334.40 372.75 333.38 C 372.12 332.35 370.81 330.60 370.00 329.62 C 369.19 328.65 368.88 328.29 367.88 327.50 C 366.88 326.71 366.77 326.27 364.00 324.88 C 361.23 323.48 355.71 320.75 351.25 319.12 C 346.79 317.50 340.77 315.81 337.25 315.12 C 333.73 314.44 331.67 314.67 330.12 315.00 C 328.58 315.33 328.33 316.19 328.00 317.12 Z" id="s-13-f-0"/>
<clipPath id="c-s-13"><use href="#s-13-f-0"/></clipPath>
</defs>
<g id="s-0" clip-path="url(#c-s-0)">
<use href="#s-0-f-0"/>
<path d="M 141.88 169.88 C 141.79 166.04 141.94 169.50 141.50 169.50 C 141.06 169.50 142.38 168.98 139.25 169.88 C 136.12 170.77 125.77 173.90 122.75 174.88 C 119.73 175.85 122.31 175.54 121.12 175.75 C 119.94 175.96 118.94 175.46 115.62 176.12 C 112.31 176.79 108.50 178.17 101.25 179.75 C 94.00 181.33 80.73 184.08 72.12 185.62 C 63.52 187.17 53.92 188.15 49.62 189.00 C 45.33 189.85 47.00 190.19 46.38 190.75 C 45.75 191.31 45.83 191.81 45.88 192.38 C 45.92 192.94 46.15 193.42 46.62 194.12 C 47.10 194.83 47.88 195.75 48.75 196.62 C 49.62 197.50 50.96 198.69 51.88 199.38 C 52.79 200.06 52.81 200.21 54.25 200.75 C 55.69 201.29 58.06 202.12 60.50 202.62 C 62.94 203.12 65.00 203.56 68.88 203.75 C 72.75 203.94 79.73 203.92 83.75 203.75 C 87.77 203.58 87.81 203.54 93.00 202.75 C 98.19 201.96 110.69 199.65 114.88 199.00 C 119.06 198.35 117.21 199.02 118.12 198.88 C 119.04 198.73 116.67 198.81 120.38 198.12 C 124.08 197.44 136.79 195.44 140.38 194.75 C 143.96 194.06 141.60 194.38 141.88 194.00 C 142.15 193.62 142.00 196.52 142.00 192.50 C 142.00 188.48 141.96 173.71 141.88 169.88 Z" id="s-0-f-1"/>
<path d="M 93.88 181.62 C 93.69 178.40 96.50 180.58 92.88 181.25 C 89.25 181.92 79.33 184.33 72.12 185.62 C 64.92 186.92 53.92 188.15 49.62 189.00 C 45.33 189.85 47.00 190.19 46.38 190.75 C 45.75 191.31 45.83 191.81 45.88 192.38 C 45.92 192.94 46.15 193.42 46.62 194.12 C 47.10 194.83 47.79 195.69 48.75 196.62 C 49.71 197.56 51.08 198.92 52.38 199.75 C 53.67 200.58 55.15 201.15 56.50 201.62 C 57.85 202.10 58.44 202.27 60.50 202.62 C 62.56 202.98 66.54 203.54 68.88 203.75 C 71.21 203.96 72.02 203.88 74.50 203.88 C 76.98 203.88 80.65 203.94 83.75 203.75 C 86.85 203.56 91.44 203.02 93.12 202.75 C 94.81 202.48 93.73 202.48 93.88 202.12 C 94.02 201.77 94.00 204.04 94.00 200.62 C 94.00 197.21 94.06 184.85 93.88 181.62 Z" id="s-0-f-2"/>
</g>
<g id="s-1" clip-path="url(#c-s-1)">
<use href="#s-1-f-0"/>
<path d="M 113.50 44.12 C 112.08 44.46 111.35 45.27 110.62 46.00 C 109.90 46.73 109.42 47.44 109.12 48.50 C 108.83 49.56 108.58 50.08 108.88 52.38 C 109.17 54.67 110.06 59.65 110.88 62.25 C 111.69 64.85 112.77 65.17 113.75 68.00 C 114.73 70.83 115.92 74.90 116.75 79.25 C 117.58 83.60 118.25 89.19 118.75 94.12 C 119.25 99.06 119.44 101.98 119.75 108.88 C 120.06 115.77 120.44 124.40 120.62 135.50 C 120.81 146.60 121.04 166.35 120.88 175.50 C 120.71 184.65 119.79 185.46 119.62 190.38 C 119.46 195.29 120.02 193.04 119.88 205.00 C 119.73 216.96 119.27 245.83 118.75 262.12 C 118.23 278.42 117.75 288.06 116.75 302.75 C 115.75 317.44 113.92 337.67 112.75 350.25 C 111.58 362.83 111.04 368.83 109.75 378.25 C 108.46 387.67 105.81 400.67 105.00 406.75 C 104.19 412.83 104.52 411.54 104.88 414.75 C 105.23 417.96 106.56 423.83 107.12 426.00 C 107.69 428.17 103.08 427.44 108.25 427.75 C 113.42 428.06 133.02 427.96 138.12 427.88 C 143.23 427.79 138.58 428.50 138.88 427.25 C 139.17 426.00 139.52 451.67 139.88 420.38 C 140.23 389.08 140.50 277.19 141.00 239.50 C 141.50 201.81 142.46 202.08 142.88 194.25 C 143.29 186.42 143.29 194.12 143.50 192.50 C 143.71 190.88 144.04 188.90 144.12 184.50 C 144.21 180.10 143.71 175.40 144.00 166.12 C 144.29 156.85 145.38 137.17 145.88 128.88 C 146.38 120.58 146.31 122.71 147.00 116.38 C 147.69 110.04 149.17 97.04 150.00 90.88 C 150.83 84.71 151.40 82.04 152.00 79.38 C 152.60 76.71 153.31 76.50 153.62 74.88 C 153.94 73.25 154.00 71.15 153.88 69.62 C 153.75 68.10 153.42 66.98 152.88 65.75 C 152.33 64.52 151.71 63.54 150.62 62.25 C 149.54 60.96 147.79 59.21 146.38 58.00 C 144.96 56.79 145.69 56.98 142.12 55.00 C 138.56 53.02 128.83 47.96 125.00 46.12 C 121.17 44.29 121.04 44.33 119.12 44.00 C 117.21 43.67 114.92 43.79 113.50 44.12 Z" id="s-1-f-1"/>
<path d="M 113.50 44.12 C 112.08 44.46 111.35 45.27 110.62 46.00 C 109.90 46.73 109.42 47.44 109.12 48.50 C 108.83 49.56 108.58 50.08 108.88 52.38 C 109.17 54.67 110.06 59.65 110.88 62.25 C 111.69 64.85 112.94 65.92 113.75 68.00 C 114.56 70.08 114.92 70.40 115.75 74.75 C 116.58 79.10 118.08 88.44 118.75 94.12 C 119.42 99.81 119.44 101.98 119.75 108.88 C 120.06 115.77 120.44 124.40 120.62 135.50 C 120.81 146.60 121.02 167.08 120.88 175.50 C 120.73 183.92 119.96 177.77 119.75 186.00 C 119.54 194.23 119.98 207.67 119.62 224.88 C 119.27 242.08 118.77 268.35 117.62 289.25 C 116.48 310.15 114.10 335.23 112.75 350.25 C 111.40 365.27 109.98 374.44 109.50 379.38 C 109.02 384.31 109.48 379.77 109.88 379.88 C 110.27 379.98 107.21 380.00 111.88 380.00 C 116.54 380.00 133.25 379.94 137.88 379.88 C 142.50 379.81 139.23 379.96 139.62 379.62 C 140.02 379.29 140.02 401.23 140.25 377.88 C 140.48 354.52 140.56 270.10 141.00 239.50 C 141.44 208.90 142.38 202.92 142.88 194.25 C 143.38 185.58 143.81 192.19 144.00 187.50 C 144.19 182.81 143.67 176.12 144.00 166.12 C 144.33 156.12 145.19 138.65 146.00 127.50 C 146.81 116.35 147.90 107.17 148.88 99.25 C 149.85 91.33 151.08 84.06 151.88 80.00 C 152.67 75.94 153.29 76.60 153.62 74.88 C 153.96 73.15 154.00 71.15 153.88 69.62 C 153.75 68.10 153.42 66.98 152.88 65.75 C 152.33 64.52 151.71 63.54 150.62 62.25 C 149.54 60.96 147.79 59.21 146.38 58.00 C 144.96 56.79 145.69 56.98 142.12 55.00 C 138.56 53.02 128.83 47.96 125.00 46.12 C 121.17 44.29 121.04 44.33 119.12 44.00 C 117.21 43.67 114.92 43.79 113.50 44.12 Z" id="s-1-f-2"/>
<path d="M 114.00 44.00 C 112.65 44.27 111.67 45.15 111.00 45.62 C 110.33 46.10 110.33 46.31 110.00 46.88 C 109.67 47.44 109.19 48.08 109.00 49.00 C 108.81 49.92 108.56 50.17 108.88 52.38 C 109.19 54.58 110.06 59.65 110.88 62.25 C 111.69 64.85 112.94 65.92 113.75 68.00 C 114.56 70.08 114.92 70.40 115.75 74.75 C 116.58 79.10 118.08 88.44 118.75 94.12 C 119.42 99.81 119.44 101.98 119.75 108.88 C 120.06 115.77 120.44 124.40 120.62 135.50 C 120.81 146.60 121.04 166.35 120.88 175.50 C 120.71 184.65 119.83 182.15 119.62 190.38 C 119.42 198.60 119.92 209.31 119.62 224.88 C 119.33 240.44 118.52 268.58 117.88 283.75 C 117.23 298.92 116.38 307.96 115.75 315.88 C 115.12 323.79 114.17 328.56 114.12 331.25 C 114.08 333.94 111.38 331.88 115.50 332.00 C 119.62 332.12 134.75 332.04 138.88 332.00 C 143.00 331.96 139.96 331.98 140.25 331.75 C 140.54 331.52 140.50 346.00 140.62 330.62 C 140.75 315.25 140.62 262.23 141.00 239.50 C 141.38 216.77 142.38 202.92 142.88 194.25 C 143.38 185.58 143.81 192.19 144.00 187.50 C 144.19 182.81 143.67 176.12 144.00 166.12 C 144.33 156.12 145.00 140.04 146.00 127.50 C 147.00 114.96 149.00 98.90 150.00 90.88 C 151.00 82.85 151.40 82.04 152.00 79.38 C 152.60 76.71 153.31 76.50 153.62 74.88 C 153.94 73.25 154.00 71.15 153.88 69.62 C 153.75 68.10 153.42 66.98 152.88 65.75 C 152.33 64.52 151.71 63.54 150.62 62.25 C 149.54 60.96 147.79 59.21 146.38 58.00 C 144.96 56.79 144.67 56.50 142.12 55.00 C 139.58 53.50 134.46 50.67 131.12 49.00 C 127.79 47.33 124.12 45.83 122.12 45.00 C 120.12 44.17 120.48 44.17 119.12 44.00 C 117.77 43.83 115.35 43.73 114.00 44.00 Z" id="s-1-f-3"/>
<path d="M 114.00 44.00 C 112.65 44.27 111.67 45.15 111.00 45.62 C 110.33 46.10 110.33 46.31 110.00 46.88 C 109.67 47.44 109.19 48.08 109.00 49.00 C 108.81 49.92 108.56 50.17 108.88 52.38 C 109.19 54.58 110.06 59.65 110.88 62.25 C 111.69 64.85 112.77 65.17 113.75 68.00 C 114.73 70.83 115.92 74.90 116.75 79.25 C 117.58 83.60 118.23 88.71 118.75 94.12 C 119.27 99.54 119.56 104.85 119.88 111.75 C 120.19 118.65 120.46 124.88 120.62 135.50 C 120.79 146.12 121.04 166.35 120.88 175.50 C 120.71 184.65 119.83 182.15 119.62 190.38 C 119.42 198.60 119.92 209.38 119.62 224.88 C 119.33 240.38 118.12 273.54 117.88 283.38 C 117.62 293.21 117.83 283.77 118.12 283.88 C 118.42 283.98 115.92 284.00 119.62 284.00 C 123.33 284.00 136.83 284.00 140.38 283.88 C 143.92 283.75 140.73 291.98 140.88 283.25 C 141.02 274.52 140.92 246.33 141.25 231.50 C 141.58 216.67 142.42 201.58 142.88 194.25 C 143.33 186.92 143.81 192.19 144.00 187.50 C 144.19 182.81 143.67 176.12 144.00 166.12 C 144.33 156.12 145.17 138.81 146.00 127.50 C 146.83 116.19 148.02 106.17 149.00 98.25 C 149.98 90.33 151.08 84.02 151.88 80.00 C 152.67 75.98 153.44 76.08 153.75 74.12 C 154.06 72.17 153.94 69.73 153.75 68.25 C 153.56 66.77 153.15 66.25 152.62 65.25 C 152.10 64.25 151.67 63.46 150.62 62.25 C 149.58 61.04 147.79 59.21 146.38 58.00 C 144.96 56.79 144.67 56.50 142.12 55.00 C 139.58 53.50 134.46 50.67 131.12 49.00 C 127.79 47.33 124.12 45.83 122.12 45.00 C 120.12 44.17 120.48 44.17 119.12 44.00 C 117.77 43.83 115.35 43.73 114.00 44.00 Z" id="s-1-f-4"/>
<path d="M 114.00 44.00 C 112.65 44.27 111.67 45.15 111.00 45.62 C 110.33 46.10 110.33 46.31 110.00 46.88 C 109.67 47.44 109.19 48.08 109.00 49.00 C 108.81 49.92 108.56 50.17 108.88 52.38 C 109.19 54.58 110.06 59.65 110.88 62.25 C 111.69 64.85 112.77 65.17 113.75 68.00 C 114.73 70.83 115.92 74.90 116.75 79.25 C 117.58 83.60 118.25 89.19 118.75 94.12 C 119.25 99.06 119.44 101.98 119.75 108.88 C 120.06 115.77 120.44 124.40 120.62 135.50 C 120.81 146.60 121.04 166.35 120.88 175.50 C 120.71 184.65 119.79 185.33 119.62 190.38 C 119.46 195.42 119.94 198.31 119.88 205.75 C 119.81 213.19 119.29 229.98 119.25 235.00 C 119.21 240.02 116.02 235.77 119.62 235.88 C 123.23 235.98 137.23 236.52 140.88 235.62 C 144.52 234.73 141.17 237.40 141.50 230.50 C 141.83 223.60 142.46 201.42 142.88 194.25 C 143.29 187.08 143.81 192.19 144.00 187.50 C 144.19 182.81 143.67 176.12 144.00 166.12 C 144.33 156.12 145.17 138.81 146.00 127.50 C 146.83 116.19 148.00 106.27 149.00 98.25 C 150.00 90.23 151.21 83.40 152.00 79.38 C 152.79 75.35 153.46 75.98 153.75 74.12 C 154.04 72.27 153.94 69.73 153.75 68.25 C 153.56 66.77 153.15 66.25 152.62 65.25 C 152.10 64.25 151.67 63.46 150.62 62.25 C 149.58 61.04 148.10 59.40 146.38 58.00 C 144.65 56.60 142.79 55.38 140.25 53.88 C 137.71 52.38 134.15 50.48 131.12 49.00 C 128.10 47.52 124.12 45.83 122.12 45.00 C 120.12 44.17 120.48 44.17 119.12 44.00 C 117.77 43.83 115.35 43.73 114.00 44.00 Z" id="s-1-f-5"/>
<path d="M 114.00 44.00 C 112.65 44.27 111.67 45.15 111.00 45.62 C 110.33 46.10 110.33 46.31 110.00 46.88 C 109.67 47.44 109.19 48.08 109.00 49.00 C 108.81 49.92 108.56 50.17 108.88 52.38 C 109.19 54.58 110.06 59.65 110.88 62.25 C 111.69 64.85 112.94 65.92 113.75 68.00 C 114.56 70.08 114.92 70.40 115.75 74.75 C 116.58 79.10 118.06 87.96 118.75 94.12 C 119.44 100.29 119.54 103.44 119.88 111.75 C 120.21 120.06 120.58 133.38 120.75 144.00 C 120.92 154.62 121.04 168.33 120.88 175.50 C 120.71 182.67 119.88 184.94 119.75 187.00 C 119.62 189.06 119.92 187.67 120.12 187.88 C 120.33 188.08 117.12 188.21 121.00 188.25 C 124.88 188.29 139.54 188.29 143.38 188.12 C 147.21 187.96 143.88 187.85 144.00 187.25 C 144.12 186.65 144.12 188.02 144.12 184.50 C 144.12 180.98 143.69 175.62 144.00 166.12 C 144.31 156.62 145.00 140.04 146.00 127.50 C 147.00 114.96 149.00 98.90 150.00 90.88 C 151.00 82.85 151.38 82.17 152.00 79.38 C 152.62 76.58 153.48 76.10 153.75 74.12 C 154.02 72.15 153.88 69.08 153.62 67.50 C 153.38 65.92 152.94 65.71 152.25 64.62 C 151.56 63.54 150.52 62.12 149.50 61.00 C 148.48 59.88 147.67 59.06 146.12 57.88 C 144.58 56.69 142.75 55.35 140.25 53.88 C 137.75 52.40 134.15 50.48 131.12 49.00 C 128.10 47.52 124.12 45.83 122.12 45.00 C 120.12 44.17 120.48 44.17 119.12 44.00 C 117.77 43.83 115.35 43.73 114.00 44.00 Z" id="s-1-f-6"/>
<path d="M 113.50 44.12 C 112.15 44.40 111.58 45.17 111.00 45.62 C 110.42 46.08 110.33 46.31 110.00 46.88 C 109.67 47.44 109.19 48.08 109.00 49.00 C 108.81 49.92 108.56 50.19 108.88 52.38 C 109.19 54.56 110.06 59.52 110.88 62.12 C 111.69 64.73 113.00 66.15 113.75 68.00 C 114.50 69.85 114.71 70.29 115.38 73.25 C 116.04 76.21 117.02 79.75 117.75 85.75 C 118.48 91.75 119.27 100.29 119.75 109.25 C 120.23 118.21 120.17 134.38 120.62 139.50 C 121.08 144.62 118.44 139.94 122.50 140.00 C 126.56 140.06 141.17 139.98 145.00 139.88 C 148.83 139.77 145.33 141.44 145.50 139.38 C 145.67 137.31 145.42 134.38 146.00 127.50 C 146.58 120.62 148.00 106.15 149.00 98.12 C 150.00 90.10 151.21 83.38 152.00 79.38 C 152.79 75.38 153.48 76.10 153.75 74.12 C 154.02 72.15 153.83 69.02 153.62 67.50 C 153.42 65.98 153.19 66.08 152.50 65.00 C 151.81 63.92 150.56 62.19 149.50 61.00 C 148.44 59.81 147.67 59.06 146.12 57.88 C 144.58 56.69 142.75 55.35 140.25 53.88 C 137.75 52.40 134.15 50.48 131.12 49.00 C 128.10 47.52 124.12 45.83 122.12 45.00 C 120.12 44.17 120.56 44.15 119.12 44.00 C 117.69 43.85 114.85 43.85 113.50 44.12 Z" id="s-1-f-7"/>
<path d="M 111.00 45.62 C 110.27 46.35 109.46 47.19 109.12 48.50 C 108.79 49.81 108.71 51.23 109.00 53.50 C 109.29 55.77 110.10 59.75 110.88 62.12 C 111.65 64.50 112.81 65.65 113.62 67.75 C 114.44 69.85 115.06 71.75 115.75 74.75 C 116.44 77.75 117.33 82.98 117.75 85.75 C 118.17 88.52 118.08 90.35 118.25 91.38 C 118.42 92.40 118.31 91.77 118.75 91.88 C 119.19 91.98 115.75 92.00 120.88 92.00 C 126.00 92.00 144.65 92.00 149.50 91.88 C 154.35 91.75 149.58 93.33 150.00 91.25 C 150.42 89.17 151.40 82.10 152.00 79.38 C 152.60 76.65 153.31 75.98 153.62 74.88 C 153.94 73.77 153.88 73.98 153.88 72.75 C 153.88 71.52 154.17 69.25 153.62 67.50 C 153.08 65.75 151.88 63.85 150.62 62.25 C 149.38 60.65 147.85 59.27 146.12 57.88 C 144.40 56.48 143.77 55.83 140.25 53.88 C 136.73 51.92 128.75 47.79 125.00 46.12 C 121.25 44.46 119.67 44.21 117.75 43.88 C 115.83 43.54 114.62 43.83 113.50 44.12 C 112.38 44.42 111.73 44.90 111.00 45.62 Z" id="s-1-f-8"/>
</g>
<g id="s-2" clip-path="url(#c-s-2)">
<use href="#s-2-f-0"/>
<path d="M 120.88 176.38 C 120.67 172.75 119.96 176.44 119.88 176.50 C 119.79 176.56 120.42 176.52 120.38 176.75 C 120.33 176.98 119.96 176.42 119.62 177.88 C 119.29 179.33 118.71 184.00 118.38 185.50 C 118.04 187.00 117.79 186.10 117.62 186.88 C 117.46 187.65 117.54 189.35 117.38 190.12 C 117.21 190.90 116.79 190.71 116.62 191.50 C 116.46 192.29 116.54 194.12 116.38 194.88 C 116.21 195.62 115.77 195.15 115.62 196.00 C 115.48 196.85 117.02 195.15 115.50 200.00 C 113.98 204.85 109.67 216.94 106.50 225.12 C 103.33 233.31 99.62 242.15 96.50 249.12 C 93.38 256.10 90.85 261.10 87.75 267.00 C 84.65 272.90 81.88 277.96 77.88 284.50 C 73.88 291.04 67.69 300.52 63.75 306.25 C 59.81 311.98 55.85 316.65 54.25 318.88 C 52.65 321.10 53.65 319.44 54.12 319.62 C 54.60 319.81 53.23 319.98 57.12 320.00 C 61.02 320.02 72.40 321.73 77.50 319.75 C 82.60 317.77 84.04 312.85 87.75 308.12 C 91.46 303.40 95.92 297.21 99.75 291.38 C 103.58 285.54 107.71 278.46 110.75 273.12 C 113.79 267.79 116.60 261.83 118.00 259.38 C 119.40 256.92 118.81 260.54 119.12 258.38 C 119.44 256.21 119.69 253.50 119.88 246.38 C 120.06 239.25 120.04 223.65 120.25 215.62 C 120.46 207.60 121.02 204.79 121.12 198.25 C 121.23 191.71 121.08 180.00 120.88 176.38 Z" id="s-2-f-1"/>
<path d="M 120.88 176.38 C 120.67 172.75 119.96 176.44 119.88 176.50 C 119.79 176.56 120.42 176.52 120.38 176.75 C 120.33 176.98 119.96 176.42 119.62 177.88 C 119.29 179.33 118.71 184.00 118.38 185.50 C 118.04 187.00 117.79 186.10 117.62 186.88 C 117.46 187.65 117.54 189.35 117.38 190.12 C 117.21 190.90 116.79 190.71 116.62 191.50 C 116.46 192.29 116.54 194.12 116.38 194.88 C 116.21 195.62 115.75 195.21 115.62 196.00 C 115.50 196.79 116.46 196.62 115.62 199.62 C 114.79 202.62 113.62 206.19 110.62 214.00 C 107.62 221.81 100.96 238.60 97.62 246.50 C 94.29 254.40 92.67 257.27 90.62 261.38 C 88.58 265.48 86.21 269.38 85.38 271.12 C 84.54 272.88 81.35 271.75 85.62 271.88 C 89.90 272.00 106.67 271.94 111.00 271.88 C 115.33 271.81 110.46 273.58 111.62 271.50 C 112.79 269.42 116.75 261.56 118.00 259.38 C 119.25 257.19 118.77 261.60 119.12 258.38 C 119.48 255.15 119.94 247.12 120.12 240.00 C 120.31 232.88 120.08 222.58 120.25 215.62 C 120.42 208.67 121.02 204.79 121.12 198.25 C 121.23 191.71 121.08 180.00 120.88 176.38 Z" id="s-2-f-2"/>
<path d="M 120.88 176.38 C 120.67 172.75 119.96 176.44 119.88 176.50 C 119.79 176.56 120.42 176.52 120.38 176.75 C 120.33 176.98 119.96 176.42 119.62 177.88 C 119.29 179.33 118.71 184.00 118.38 185.50 C 118.04 187.00 117.79 186.10 117.62 186.88 C 117.46 187.65 117.54 189.35 117.38 190.12 C 117.21 190.90 116.79 190.71 116.62 191.50 C 116.46 192.29 116.54 194.12 116.38 194.88 C 116.21 195.62 115.75 195.21 115.62 196.00 C 115.50 196.79 116.42 196.73 115.62 199.62 C 114.83 202.52 112.31 209.50 110.88 213.38 C 109.44 217.25 107.58 221.12 107.00 222.88 C 106.42 224.62 105.35 223.69 107.38 223.88 C 109.40 224.06 117.04 224.04 119.12 224.00 C 121.21 223.96 119.54 227.92 119.88 223.62 C 120.21 219.33 120.96 206.12 121.12 198.25 C 121.29 190.38 121.08 180.00 120.88 176.38 Z" id="s-2-f-3"/>
</g>
<g id="s-3" clip-path="url(#c-s-3)">
<use href="#s-3-f-0"/>
</g>
<g id="s-4" clip-path="url(#c-s-4)">
<use href="#s-4-f-0"/>
<path d="M 194.75 132.00 C 192.69 132.15 192.88 132.56 192.25 132.88 C 191.62 133.19 191.21 133.21 191.00 133.88 C 190.79 134.54 190.83 135.96 191.00 136.88 C 191.17 137.79 191.04 137.73 192.00 139.38 C 192.96 141.02 195.46 144.17 196.75 146.75 C 198.04 149.33 198.90 151.62 199.75 154.88 C 200.60 158.12 201.38 162.12 201.88 166.25 C 202.38 170.38 202.60 170.90 202.75 179.62 C 202.90 188.35 202.92 205.27 202.75 218.62 C 202.58 231.98 202.08 249.92 201.75 259.75 C 201.42 269.58 201.25 270.88 200.75 277.62 C 200.25 284.38 199.67 292.62 198.75 300.25 C 197.83 307.88 195.75 319.44 195.25 323.38 C 194.75 327.31 195.40 323.77 195.75 323.88 C 196.10 323.98 193.40 324.00 197.38 324.00 C 201.35 324.00 215.73 326.46 219.62 323.88 C 223.52 321.29 220.23 319.85 220.75 308.50 C 221.27 297.15 222.23 282.44 222.75 255.75 C 223.27 229.06 225.04 168.40 223.88 148.38 C 222.71 128.35 217.42 137.98 215.75 135.62 C 214.08 133.27 214.79 134.69 213.88 134.25 C 212.96 133.81 211.79 133.38 210.25 133.00 C 208.71 132.62 207.21 132.17 204.62 132.00 C 202.04 131.83 196.81 131.85 194.75 132.00 Z" id="s-4-f-1"/>
<path d="M 194.00 132.12 C 191.73 132.44 191.50 133.08 191.00 133.88 C 190.50 134.67 190.83 135.96 191.00 136.88 C 191.17 137.79 191.04 137.73 192.00 139.38 C 192.96 141.02 195.46 144.17 196.75 146.75 C 198.04 149.33 198.94 151.96 199.75 154.88 C 200.56 157.79 201.15 160.88 201.62 164.25 C 202.10 167.62 202.46 164.69 202.62 175.12 C 202.79 185.56 202.73 213.83 202.62 226.88 C 202.52 239.92 202.29 245.29 202.00 253.38 C 201.71 261.46 200.98 271.60 200.88 275.38 C 200.77 279.15 197.92 275.96 201.38 276.00 C 204.83 276.04 218.02 281.06 221.62 275.62 C 225.23 270.19 222.75 256.96 223.00 243.38 C 223.25 229.79 222.98 209.96 223.12 194.12 C 223.27 178.29 225.10 158.12 223.88 148.38 C 222.65 138.62 217.42 137.98 215.75 135.62 C 214.08 133.27 214.79 134.69 213.88 134.25 C 212.96 133.81 211.79 133.38 210.25 133.00 C 208.71 132.62 207.33 132.15 204.62 132.00 C 201.92 131.85 196.27 131.81 194.00 132.12 Z" id="s-4-f-2"/>
<path d="M 194.00 132.12 C 191.73 132.44 191.50 133.08 191.00 133.88 C 190.50 134.67 190.83 135.96 191.00 136.88 C 191.17 137.79 191.21 138.06 192.00 139.38 C 192.79 140.69 194.60 142.62 195.75 144.75 C 196.90 146.88 198.02 149.65 198.88 152.12 C 199.73 154.60 200.29 156.35 200.88 159.62 C 201.46 162.90 202.06 168.42 202.38 171.75 C 202.69 175.08 202.73 170.35 202.75 179.62 C 202.77 188.90 202.48 219.33 202.50 227.38 C 202.52 235.42 199.60 227.77 202.88 227.88 C 206.15 227.98 218.77 229.27 222.12 228.00 C 225.48 226.73 222.71 233.52 223.00 220.25 C 223.29 206.98 225.08 162.48 223.88 148.38 C 222.67 134.27 217.42 137.98 215.75 135.62 C 214.08 133.27 214.79 134.69 213.88 134.25 C 212.96 133.81 211.79 133.38 210.25 133.00 C 208.71 132.62 207.33 132.15 204.62 132.00 C 201.92 131.85 196.27 131.81 194.00 132.12 Z" id="s-4-f-3"/>
<path d="M 192.00 133.00 C 191.35 133.38 191.02 133.54 190.88 134.25 C 190.73 134.96 190.00 134.85 191.12 137.25 C 192.25 139.65 196.06 145.19 197.62 148.62 C 199.19 152.06 199.79 154.94 200.50 157.88 C 201.21 160.81 201.46 162.60 201.88 166.25 C 202.29 169.90 199.48 177.48 203.00 179.75 C 206.52 182.02 219.56 180.06 223.00 179.88 C 226.44 179.69 223.48 183.88 223.62 178.62 C 223.77 173.38 225.15 155.48 223.88 148.38 C 222.60 141.27 217.77 138.40 216.00 136.00 C 214.23 133.60 214.98 134.65 213.25 134.00 C 211.52 133.35 208.71 132.46 205.62 132.12 C 202.54 131.79 197.02 131.85 194.75 132.00 C 192.48 132.15 192.65 132.62 192.00 133.00 Z" id="s-4-f-4"/>
</g>
<g id="s-5" clip-path="url(#c-s-5)">
<use href="#s-5-f-0"/>
<path d="M 263.88 120.00 C 262.08 120.60 258.54 122.48 255.50 123.62 C 252.46 124.77 250.83 125.35 245.62 126.88 C 240.42 128.40 229.08 131.52 224.25 132.75 C 219.42 133.98 218.23 133.81 216.62 134.25 C 215.02 134.69 213.62 133.08 214.62 135.38 C 215.62 137.67 221.12 145.75 222.62 148.00 C 224.12 150.25 223.12 148.75 223.62 148.88 C 224.12 149.00 224.85 148.94 225.62 148.75 C 226.40 148.56 226.75 148.54 228.25 147.75 C 229.75 146.96 231.79 145.31 234.62 144.00 C 237.46 142.69 242.62 140.71 245.25 139.88 C 247.88 139.04 249.10 139.15 250.38 139.00 C 251.65 138.85 251.88 138.83 252.88 139.00 C 253.88 139.17 255.27 139.38 256.38 140.00 C 257.48 140.62 258.75 141.88 259.50 142.75 C 260.25 143.62 260.48 143.83 260.88 145.25 C 261.27 146.67 261.46 146.56 261.88 151.25 C 262.29 155.94 262.90 161.54 263.38 173.38 C 263.85 185.21 264.50 195.54 264.75 222.25 C 265.00 248.96 265.04 312.71 264.88 333.62 C 264.71 354.54 264.06 344.98 263.75 347.75 C 263.44 350.52 263.12 348.65 263.00 350.25 C 262.88 351.85 262.67 355.04 263.00 357.38 C 263.33 359.71 264.25 362.33 265.00 364.25 C 265.75 366.17 264.75 368.08 267.50 368.88 C 270.25 369.67 278.94 369.04 281.50 369.00 C 284.06 368.96 282.06 369.75 282.88 368.62 C 283.69 367.50 285.56 363.94 286.38 362.25 C 287.19 360.56 287.35 360.04 287.75 358.50 C 288.15 356.96 288.58 358.04 288.75 353.00 C 288.92 347.96 288.90 335.73 288.75 328.25 C 288.60 320.77 288.15 318.12 287.88 308.12 C 287.60 298.12 287.27 287.40 287.12 268.25 C 286.98 249.10 286.85 209.92 287.00 193.25 C 287.15 176.58 287.27 175.73 288.00 168.25 C 288.73 160.77 290.73 153.08 291.38 148.38 C 292.02 143.67 291.83 141.62 291.88 140.00 C 291.92 138.38 291.96 139.38 291.62 138.62 C 291.29 137.88 291.29 137.12 289.88 135.50 C 288.46 133.88 286.56 131.27 283.12 128.88 C 279.69 126.48 272.06 122.60 269.25 121.12 C 266.44 119.65 267.15 120.19 266.25 120.00 C 265.35 119.81 265.67 119.40 263.88 120.00 Z" id="s-5-f-1"/>
<path d="M 263.88 120.00 C 262.08 120.60 258.54 122.48 255.50 123.62 C 252.46 124.77 250.83 125.35 245.62 126.88 C 240.42 128.40 229.12 131.50 224.25 132.75 C 219.38 134.00 217.98 133.92 216.38 134.38 C 214.77 134.83 213.58 133.23 214.62 135.50 C 215.67 137.77 221.12 145.77 222.62 148.00 C 224.12 150.23 223.12 148.75 223.62 148.88 C 224.12 149.00 224.85 148.94 225.62 148.75 C 226.40 148.56 226.75 148.54 228.25 147.75 C 229.75 146.96 231.79 145.31 234.62 144.00 C 237.46 142.69 242.83 140.69 245.25 139.88 C 247.67 139.06 247.85 139.27 249.12 139.12 C 250.40 138.98 251.67 138.85 252.88 139.00 C 254.08 139.15 255.27 139.38 256.38 140.00 C 257.48 140.62 258.77 141.94 259.50 142.75 C 260.23 143.56 260.35 143.46 260.75 144.88 C 261.15 146.29 261.52 148.04 261.88 151.25 C 262.23 154.46 262.46 155.10 262.88 164.12 C 263.29 173.15 264.04 193.02 264.38 205.38 C 264.71 217.73 264.77 219.08 264.88 238.25 C 264.98 257.42 264.92 306.58 265.00 320.38 C 265.08 334.17 261.56 320.92 265.38 321.00 C 269.19 321.08 284.02 321.04 287.88 320.88 C 291.73 320.71 288.62 328.77 288.50 320.00 C 288.38 311.23 287.38 289.38 287.12 268.25 C 286.88 247.12 286.85 209.92 287.00 193.25 C 287.15 176.58 287.27 175.73 288.00 168.25 C 288.73 160.77 290.75 153.25 291.38 148.38 C 292.00 143.50 292.17 141.35 291.75 139.00 C 291.33 136.65 290.54 136.08 288.88 134.25 C 287.21 132.42 285.02 130.19 281.75 128.00 C 278.48 125.81 271.83 122.46 269.25 121.12 C 266.67 119.79 267.15 120.19 266.25 120.00 C 265.35 119.81 265.67 119.40 263.88 120.00 Z" id="s-5-f-2"/>
<path d="M 215.50 134.75 C 211.98 135.69 214.75 135.15 214.62 135.38 C 214.50 135.60 214.29 135.46 214.75 136.12 C 215.21 136.79 216.06 137.40 217.38 139.38 C 218.69 141.35 221.58 146.42 222.62 148.00 C 223.67 149.58 223.12 148.75 223.62 148.88 C 224.12 149.00 224.85 148.94 225.62 148.75 C 226.40 148.56 226.75 148.54 228.25 147.75 C 229.75 146.96 231.79 145.31 234.62 144.00 C 237.46 142.69 242.83 140.69 245.25 139.88 C 247.67 139.06 247.85 139.27 249.12 139.12 C 250.40 138.98 251.67 138.85 252.88 139.00 C 254.08 139.15 255.27 139.38 256.38 140.00 C 257.48 140.62 258.79 141.98 259.50 142.75 C 260.21 143.52 260.27 143.54 260.62 144.62 C 260.98 145.71 261.33 147.21 261.62 149.25 C 261.92 151.29 262.00 150.75 262.38 156.88 C 262.75 163.00 263.48 175.10 263.88 186.00 C 264.27 196.90 264.56 207.81 264.75 222.25 C 264.94 236.69 264.90 264.17 265.00 272.62 C 265.10 281.08 261.73 272.96 265.38 273.00 C 269.02 273.04 283.21 272.98 286.88 272.88 C 290.54 272.77 287.35 275.52 287.38 272.38 C 287.40 269.23 287.00 269.31 287.00 254.00 C 287.00 238.69 287.21 194.79 287.38 180.50 C 287.54 166.21 287.27 174.10 288.00 168.25 C 288.73 162.40 291.15 150.31 291.75 145.38 C 292.35 140.44 292.10 140.48 291.62 138.62 C 291.15 136.77 290.25 135.83 288.88 134.25 C 287.50 132.67 286.00 130.98 283.38 129.12 C 280.75 127.27 275.98 124.65 273.12 123.12 C 270.27 121.60 267.79 120.52 266.25 120.00 C 264.71 119.48 266.06 119.25 263.88 120.00 C 261.69 120.75 257.81 122.88 253.12 124.50 C 248.44 126.12 242.02 128.04 235.75 129.75 C 229.48 131.46 219.02 133.81 215.50 134.75 Z" id="s-5-f-3"/>
<path d="M 214.88 135.12 C 214.60 135.42 214.33 135.42 214.75 136.12 C 215.17 136.83 216.06 137.40 217.38 139.38 C 218.69 141.35 221.58 146.42 222.62 148.00 C 223.67 149.58 223.12 148.75 223.62 148.88 C 224.12 149.00 224.85 148.94 225.62 148.75 C 226.40 148.56 226.75 148.54 228.25 147.75 C 229.75 146.96 231.79 145.31 234.62 144.00 C 237.46 142.69 242.83 140.69 245.25 139.88 C 247.67 139.06 247.85 139.27 249.12 139.12 C 250.40 138.98 251.67 138.85 252.88 139.00 C 254.08 139.15 255.27 139.38 256.38 140.00 C 257.48 140.62 258.75 141.88 259.50 142.75 C 260.25 143.62 260.52 144.17 260.88 145.25 C 261.23 146.33 261.31 146.44 261.62 149.25 C 261.94 152.06 262.38 156.00 262.75 162.12 C 263.12 168.25 263.54 175.65 263.88 186.00 C 264.21 196.35 264.35 217.79 264.75 224.25 C 265.15 230.71 262.60 224.65 266.25 224.75 C 269.90 224.85 283.17 230.12 286.62 224.88 C 290.08 219.62 286.77 202.69 287.00 193.25 C 287.23 183.81 287.19 176.52 288.00 168.25 C 288.81 159.98 291.25 148.50 291.88 143.62 C 292.50 138.75 292.15 140.44 291.75 139.00 C 291.35 137.56 290.40 136.21 289.50 135.00 C 288.60 133.79 287.67 132.92 286.38 131.75 C 285.08 130.58 284.60 129.77 281.75 128.00 C 278.90 126.23 271.83 122.46 269.25 121.12 C 266.67 119.79 267.15 120.19 266.25 120.00 C 265.35 119.81 265.67 119.40 263.88 120.00 C 262.08 120.60 258.54 122.48 255.50 123.62 C 252.46 124.77 250.83 125.35 245.62 126.88 C 240.42 128.40 229.12 131.50 224.25 132.75 C 219.38 134.00 217.94 133.98 216.38 134.38 C 214.81 134.77 215.15 134.83 214.88 135.12 Z" id="s-5-f-4"/>
<path d="M 214.62 135.38 C 215.67 137.65 221.12 145.75 222.62 148.00 C 224.12 150.25 223.12 148.75 223.62 148.88 C 224.12 149.00 224.85 148.94 225.62 148.75 C 226.40 148.56 226.75 148.54 228.25 147.75 C 229.75 146.96 231.79 145.31 234.62 144.00 C 237.46 142.69 242.21 140.71 245.25 139.88 C 248.29 139.04 251.02 138.98 252.88 139.00 C 254.73 139.02 255.27 139.38 256.38 140.00 C 257.48 140.62 258.75 141.88 259.50 142.75 C 260.25 143.62 260.40 142.90 260.88 145.25 C 261.35 147.60 261.94 151.67 262.38 156.88 C 262.81 162.08 262.98 173.15 263.50 176.50 C 264.02 179.85 261.81 176.92 265.50 177.00 C 269.19 177.08 281.94 177.06 285.62 177.00 C 289.31 176.94 287.21 178.25 287.62 176.62 C 288.04 175.00 287.44 172.46 288.12 167.25 C 288.81 162.04 291.15 150.08 291.75 145.38 C 292.35 140.67 292.06 140.65 291.75 139.00 C 291.44 137.35 290.77 136.71 289.88 135.50 C 288.98 134.29 287.73 133.00 286.38 131.75 C 285.02 130.50 285.02 129.94 281.75 128.00 C 278.48 126.06 269.73 121.46 266.75 120.12 C 263.77 118.79 265.75 119.42 263.88 120.00 C 262.00 120.58 258.54 122.48 255.50 123.62 C 252.46 124.77 250.83 125.35 245.62 126.88 C 240.42 128.40 229.12 131.50 224.25 132.75 C 219.38 134.00 217.98 133.94 216.38 134.38 C 214.77 134.81 213.58 133.10 214.62 135.38 Z" id="s-5-f-5"/>
<path d="M 282.12 128.38 C 280.02 126.96 271.90 122.52 269.25 121.12 C 266.60 119.73 267.15 120.19 266.25 120.00 C 265.35 119.81 265.67 119.40 263.88 120.00 C 262.08 120.60 258.54 122.48 255.50 123.62 C 252.46 124.77 250.83 125.35 245.62 126.88 C 240.42 128.40 229.08 131.52 224.25 132.75 C 219.42 133.98 218.23 133.81 216.62 134.25 C 215.02 134.69 213.62 133.08 214.62 135.38 C 215.62 137.67 221.12 145.75 222.62 148.00 C 224.12 150.25 222.69 148.92 223.62 148.88 C 224.56 148.83 226.42 148.56 228.25 147.75 C 230.08 146.94 231.79 145.31 234.62 144.00 C 237.46 142.69 241.65 140.90 245.25 139.88 C 248.85 138.85 250.15 139.58 256.25 137.88 C 262.35 136.17 277.56 131.21 281.88 129.62 C 286.19 128.04 284.23 129.79 282.12 128.38 Z" id="s-5-f-6"/>
<path d="M 262.75 121.00 C 262.56 118.79 263.48 120.17 261.88 120.75 C 260.27 121.33 257.48 123.00 253.12 124.50 C 248.77 126.00 241.88 128.10 235.75 129.75 C 229.62 131.40 219.90 133.44 216.38 134.38 C 212.85 135.31 214.90 135.08 214.62 135.38 C 214.35 135.67 214.29 135.46 214.75 136.12 C 215.21 136.79 216.00 137.31 217.38 139.38 C 218.75 141.44 221.96 146.92 223.00 148.50 C 224.04 150.08 223.19 148.83 223.62 148.88 C 224.06 148.92 224.81 148.96 225.62 148.75 C 226.44 148.54 227.00 148.42 228.50 147.62 C 230.00 146.83 231.83 145.29 234.62 144.00 C 237.42 142.71 242.12 140.77 245.25 139.88 C 248.38 138.98 250.50 139.31 253.38 138.62 C 256.25 137.94 260.90 136.52 262.50 135.75 C 264.10 134.98 262.96 136.46 263.00 134.00 C 263.04 131.54 262.94 123.21 262.75 121.00 Z" id="s-5-f-7"/>
</g>
<g id="s-6" clip-path="url(#c-s-6)">
<use href="#s-6-f-0"/>
</g>
<g id="s-7" clip-path="url(#c-s-7)">
<use href="#s-7-f-0"/>
</g>
<g id="s-8" clip-path="url(#c-s-8)">
<use href="#s-8-f-0"/>
<path d="M 413.88 129.12 C 413.79 125.62 413.75 128.69 413.38 128.50 C 413.00 128.31 412.96 128.08 411.62 128.00 C 410.29 127.92 408.94 127.21 405.38 128.00 C 401.81 128.79 393.19 131.94 390.25 132.75 C 387.31 133.56 391.62 132.19 387.75 132.88 C 383.88 133.56 373.17 135.56 367.00 136.88 C 360.83 138.19 355.54 139.77 350.75 140.75 C 345.96 141.73 342.62 142.21 338.25 142.75 C 333.88 143.29 327.54 143.62 324.50 144.00 C 321.46 144.38 321.02 144.69 320.00 145.00 C 318.98 145.31 318.73 145.60 318.38 145.88 C 318.02 146.15 317.94 146.25 317.88 146.62 C 317.81 147.00 317.52 147.29 318.00 148.12 C 318.48 148.96 319.62 150.50 320.75 151.62 C 321.88 152.75 323.25 154.04 324.75 154.88 C 326.25 155.71 327.46 156.15 329.75 156.62 C 332.04 157.10 332.56 157.52 338.50 157.75 C 344.44 157.98 356.92 158.65 365.38 158.00 C 373.83 157.35 384.54 154.58 389.25 153.88 C 393.96 153.17 390.92 154.10 393.62 153.75 C 396.33 153.40 402.12 152.46 405.50 151.75 C 408.88 151.04 412.48 153.27 413.88 149.50 C 415.27 145.73 413.96 132.62 413.88 129.12 Z" id="s-8-f-1"/>
<path d="M 365.88 137.75 C 365.67 134.62 368.17 136.83 364.75 137.50 C 361.33 138.17 352.08 140.67 345.38 141.75 C 338.67 142.83 328.73 143.46 324.50 144.00 C 320.27 144.54 321.02 144.69 320.00 145.00 C 318.98 145.31 318.73 145.60 318.38 145.88 C 318.02 146.15 317.94 146.25 317.88 146.62 C 317.81 147.00 317.75 147.54 318.00 148.12 C 318.25 148.71 318.35 149.06 319.38 150.12 C 320.40 151.19 322.40 153.42 324.12 154.50 C 325.85 155.58 327.33 156.08 329.75 156.62 C 332.17 157.17 332.69 157.52 338.62 157.75 C 344.56 157.98 360.81 158.25 365.38 158.00 C 369.94 157.75 365.92 159.62 366.00 156.25 C 366.08 152.88 366.08 140.88 365.88 137.75 Z" id="s-8-f-2"/>
</g>
<g id="s-9" clip-path="url(#c-s-9)">
<use href="#s-9-f-0"/>
<path d="M 360.12 38.00 C 358.25 38.12 358.56 38.52 357.88 39.00 C 357.19 39.48 356.48 40.21 356.00 40.88 C 355.52 41.54 355.19 42.08 355.00 43.00 C 354.81 43.92 354.88 45.62 354.88 46.38 C 354.88 47.12 354.52 46.60 355.00 47.50 C 355.48 48.40 356.77 49.92 357.75 51.75 C 358.73 53.58 360.02 55.92 360.88 58.50 C 361.73 61.08 362.38 54.48 362.88 67.25 C 363.38 80.02 363.77 123.21 363.88 135.12 C 363.98 147.04 363.56 135.04 363.50 138.75 C 363.44 142.46 363.44 154.00 363.50 157.38 C 363.56 160.75 363.73 155.00 363.88 159.00 C 364.02 163.00 364.23 177.56 364.38 181.38 C 364.52 185.19 364.42 181.77 364.75 181.88 C 365.08 181.98 362.65 182.00 366.38 182.00 C 370.10 182.00 383.56 182.00 387.12 181.88 C 390.69 181.75 387.46 185.85 387.75 181.25 C 388.04 176.65 388.58 159.25 388.88 154.25 C 389.17 149.25 389.44 152.19 389.50 151.25 C 389.56 150.31 389.23 149.19 389.25 148.62 C 389.27 148.06 389.50 147.94 389.62 147.88 C 389.75 147.81 389.92 148.52 390.00 148.25 C 390.08 147.98 390.12 149.48 390.12 146.25 C 390.12 143.02 389.69 141.02 390.00 128.88 C 390.31 116.73 391.33 84.58 392.00 73.38 C 392.67 62.17 393.38 64.42 394.00 61.62 C 394.62 58.83 395.46 58.35 395.75 56.62 C 396.04 54.90 395.94 52.48 395.75 51.25 C 395.56 50.02 395.31 50.08 394.62 49.25 C 393.94 48.42 392.98 47.29 391.62 46.25 C 390.27 45.21 388.75 44.02 386.50 43.00 C 384.25 41.98 381.02 40.92 378.12 40.12 C 375.23 39.33 372.12 38.60 369.12 38.25 C 366.12 37.90 362.00 37.88 360.12 38.00 Z" id="s-9-f-1"/>
<path d="M 359.50 38.12 C 357.58 38.38 357.58 39.17 357.00 39.62 C 356.42 40.08 356.33 40.31 356.00 40.88 C 355.67 41.44 355.19 42.08 355.00 43.00 C 354.81 43.92 354.88 45.62 354.88 46.38 C 354.88 47.12 354.38 46.33 355.00 47.50 C 355.62 48.67 357.65 51.54 358.62 53.38 C 359.60 55.21 360.17 56.19 360.88 58.50 C 361.58 60.81 362.38 54.75 362.88 67.25 C 363.38 79.75 363.62 122.38 363.88 133.50 C 364.12 144.62 360.10 133.88 364.38 134.00 C 368.65 134.12 385.19 134.35 389.50 134.25 C 393.81 134.15 390.17 134.27 390.25 133.38 C 390.33 132.48 389.71 138.88 390.00 128.88 C 390.29 118.88 391.33 84.58 392.00 73.38 C 392.67 62.17 393.38 64.42 394.00 61.62 C 394.62 58.83 395.46 58.35 395.75 56.62 C 396.04 54.90 396.00 52.56 395.75 51.25 C 395.50 49.94 394.98 49.62 394.25 48.75 C 393.52 47.88 393.04 47.10 391.38 46.00 C 389.71 44.90 386.46 43.10 384.25 42.12 C 382.04 41.15 380.75 40.79 378.12 40.12 C 375.50 39.46 371.60 38.46 368.50 38.12 C 365.40 37.79 361.42 37.88 359.50 38.12 Z" id="s-9-f-2"/>
<path d="M 357.00 39.62 C 356.27 40.35 355.46 41.19 355.12 42.50 C 354.79 43.81 354.23 45.31 355.00 47.50 C 355.77 49.69 358.62 53.31 359.75 55.62 C 360.88 57.94 361.23 59.44 361.75 61.38 C 362.27 63.31 362.65 63.21 362.88 67.25 C 363.10 71.29 362.65 82.50 363.12 85.62 C 363.60 88.75 361.40 85.94 365.75 86.00 C 370.10 86.06 384.96 86.06 389.25 86.00 C 393.54 85.94 391.02 87.92 391.50 85.62 C 391.98 83.33 391.71 76.25 392.12 72.25 C 392.54 68.25 393.38 64.40 394.00 61.62 C 394.62 58.85 395.58 57.35 395.88 55.62 C 396.17 53.90 395.96 52.31 395.75 51.25 C 395.54 50.19 395.31 50.08 394.62 49.25 C 393.94 48.42 392.98 47.29 391.62 46.25 C 390.27 45.21 388.75 44.02 386.50 43.00 C 384.25 41.98 381.67 40.98 378.12 40.12 C 374.58 39.27 368.35 38.21 365.25 37.88 C 362.15 37.54 360.88 37.83 359.50 38.12 C 358.12 38.42 357.73 38.90 357.00 39.62 Z" id="s-9-f-3"/>
</g>
<g id="s-10" clip-path="url(#c-s-10)">
<use href="#s-10-f-0"/>
<path d="M 434.50 188.00 C 434.29 184.23 441.44 186.42 433.62 187.88 C 425.81 189.33 396.04 195.29 387.62 196.75 C 379.21 198.21 384.27 196.52 383.12 196.62 C 381.98 196.73 383.21 197.04 380.75 197.38 C 378.29 197.71 371.10 198.21 368.38 198.62 C 365.65 199.04 370.12 198.85 364.38 199.88 C 358.62 200.90 344.83 203.10 333.88 204.75 C 322.92 206.40 305.35 208.88 298.62 209.75 C 291.90 210.62 294.71 209.81 293.50 210.00 C 292.29 210.19 291.81 210.46 291.38 210.88 C 290.94 211.29 290.88 212.00 290.88 212.50 C 290.88 213.00 290.79 213.17 291.38 213.88 C 291.96 214.58 292.17 215.44 294.38 216.75 C 296.58 218.06 302.04 220.60 304.62 221.75 C 307.21 222.90 308.23 223.15 309.88 223.62 C 311.52 224.10 312.77 224.42 314.50 224.62 C 316.23 224.83 316.94 225.31 320.25 224.88 C 323.56 224.44 322.96 223.81 334.38 222.00 C 345.79 220.19 376.10 215.52 388.75 214.00 C 401.40 212.48 402.65 213.40 410.25 212.88 C 417.85 212.35 430.27 211.27 434.38 210.88 C 438.48 210.48 434.85 214.31 434.88 210.50 C 434.90 206.69 434.71 191.77 434.50 188.00 Z" id="s-10-f-1"/>
<path d="M 386.75 197.00 C 386.62 194.08 386.73 196.56 386.12 196.50 C 385.52 196.44 384.02 196.48 383.12 196.62 C 382.23 196.77 383.21 197.04 380.75 197.38 C 378.29 197.71 371.08 198.21 368.38 198.62 C 365.67 199.04 370.25 198.85 364.50 199.88 C 358.75 200.90 344.83 203.10 333.88 204.75 C 322.92 206.40 305.48 208.88 298.75 209.75 C 292.02 210.62 294.73 209.81 293.50 210.00 C 292.27 210.19 291.81 210.46 291.38 210.88 C 290.94 211.29 290.88 212.00 290.88 212.50 C 290.88 213.00 290.79 213.17 291.38 213.88 C 291.96 214.58 292.60 215.62 294.38 216.75 C 296.15 217.88 299.42 219.48 302.00 220.62 C 304.58 221.77 307.23 222.92 309.88 223.62 C 312.52 224.33 315.94 224.69 317.88 224.88 C 319.81 225.06 319.75 225.06 321.50 224.75 C 323.25 224.44 322.12 224.08 328.38 223.00 C 334.62 221.92 349.35 219.65 359.00 218.25 C 368.65 216.85 381.60 215.33 386.25 214.62 C 390.90 213.92 386.79 216.94 386.88 214.00 C 386.96 211.06 386.88 199.92 386.75 197.00 Z" id="s-10-f-2"/>
<path d="M 339.00 204.50 C 338.75 201.62 343.96 203.12 337.25 204.00 C 330.54 204.88 306.04 208.75 298.75 209.75 C 291.46 210.75 294.71 209.83 293.50 210.00 C 292.29 210.17 291.94 210.48 291.50 210.75 C 291.06 211.02 290.96 211.21 290.88 211.62 C 290.79 212.04 290.50 212.46 291.00 213.25 C 291.50 214.04 293.08 215.65 293.88 216.38 C 294.67 217.10 293.58 216.58 295.75 217.62 C 297.92 218.67 303.60 221.44 306.88 222.62 C 310.15 223.81 312.94 224.40 315.38 224.75 C 317.81 225.10 319.33 225.04 321.50 224.75 C 323.67 224.46 325.50 223.58 328.38 223.00 C 331.25 222.42 336.98 224.33 338.75 221.25 C 340.52 218.17 339.25 207.38 339.00 204.50 Z" id="s-10-f-3"/>
</g>
<g id="s-11" clip-path="url(#c-s-11)">
<use href="#s-11-f-0"/>
<path d="M 449.88 257.00 C 449.79 253.92 451.12 256.75 449.38 256.12 C 447.62 255.50 442.19 253.75 439.38 253.25 C 436.56 252.75 435.06 252.88 432.50 253.12 C 429.94 253.38 425.83 254.48 424.00 254.75 C 422.17 255.02 426.58 253.77 421.50 254.75 C 416.42 255.73 412.60 257.25 393.50 260.62 C 374.40 264.00 321.46 272.48 306.88 275.00 C 292.29 277.52 306.15 275.38 306.00 275.75 C 305.85 276.12 305.23 276.25 306.00 277.25 C 306.77 278.25 307.85 280.00 310.62 281.75 C 313.40 283.50 319.50 286.44 322.62 287.75 C 325.75 289.06 327.23 289.27 329.38 289.62 C 331.52 289.98 332.48 290.31 335.50 289.88 C 338.52 289.44 341.46 288.15 347.50 287.00 C 353.54 285.85 364.10 284.02 371.75 283.00 C 379.40 281.98 389.12 281.38 393.38 280.88 C 397.62 280.38 395.52 280.17 397.25 280.00 C 398.98 279.83 399.40 280.23 403.75 279.88 C 408.10 279.52 415.79 278.48 423.38 277.88 C 430.96 277.27 444.83 276.79 449.25 276.25 C 453.67 275.71 449.77 277.83 449.88 274.62 C 449.98 271.42 449.96 260.08 449.88 257.00 Z" id="s-11-f-1"/>
<path d="M 402.00 260.50 C 401.98 257.10 401.98 259.52 401.75 259.25 C 401.52 258.98 401.98 258.65 400.62 258.88 C 399.27 259.10 409.25 257.94 393.62 260.62 C 378.00 263.31 321.48 272.48 306.88 275.00 C 292.27 277.52 306.15 275.38 306.00 275.75 C 305.85 276.12 305.23 276.25 306.00 277.25 C 306.77 278.25 308.29 280.19 310.62 281.75 C 312.96 283.31 317.50 285.46 320.00 286.62 C 322.50 287.79 324.06 288.25 325.62 288.75 C 327.19 289.25 327.48 289.46 329.38 289.62 C 331.27 289.79 334.83 290.02 337.00 289.75 C 339.17 289.48 336.58 289.12 342.38 288.00 C 348.17 286.88 363.25 284.19 371.75 283.00 C 380.25 281.81 389.15 281.38 393.38 280.88 C 397.60 280.38 395.81 280.15 397.12 280.00 C 398.44 279.85 400.46 280.06 401.25 280.00 C 402.04 279.94 401.75 282.88 401.88 279.62 C 402.00 276.38 402.02 263.90 402.00 260.50 Z" id="s-11-f-2"/>
<path d="M 354.00 268.75 C 353.96 265.94 353.96 267.90 353.75 267.62 C 353.54 267.35 360.56 265.90 352.75 267.12 C 344.94 268.35 314.67 273.56 306.88 275.00 C 299.08 276.44 306.15 275.38 306.00 275.75 C 305.85 276.12 305.54 276.48 306.00 277.25 C 306.46 278.02 307.98 279.62 308.75 280.38 C 309.52 281.12 308.31 280.52 310.62 281.75 C 312.94 282.98 319.33 286.42 322.62 287.75 C 325.92 289.08 327.98 289.42 330.38 289.75 C 332.77 290.08 335.00 290.04 337.00 289.75 C 339.00 289.46 339.60 288.65 342.38 288.00 C 345.15 287.35 351.69 286.46 353.62 285.88 C 355.56 285.29 353.94 287.35 354.00 284.50 C 354.06 281.65 354.04 271.56 354.00 268.75 Z" id="s-11-f-3"/>
</g>
<g id="s-12" clip-path="url(#c-s-12)">
<use href="#s-12-f-0"/>
<path d="M 395.25 212.75 C 390.06 213.10 390.42 211.83 389.88 213.75 C 389.33 215.67 391.19 220.77 392.00 224.25 C 392.81 227.73 393.94 230.65 394.75 234.62 C 395.56 238.60 396.38 244.21 396.88 248.12 C 397.38 252.04 397.62 254.12 397.75 258.12 C 397.88 262.12 397.44 268.38 397.62 272.12 C 397.81 275.88 398.52 276.62 398.88 280.62 C 399.23 284.62 399.60 286.02 399.75 296.12 C 399.90 306.23 399.94 325.29 399.75 341.25 C 399.56 357.21 398.98 381.46 398.62 391.88 C 398.27 402.29 398.06 400.31 397.62 403.75 C 397.19 407.19 397.15 404.31 396.00 412.50 C 394.85 420.69 391.58 445.94 390.75 452.88 C 389.92 459.81 390.35 453.31 391.00 454.12 C 391.65 454.94 393.21 456.65 394.62 457.75 C 396.04 458.85 398.44 460.23 399.50 460.75 C 400.56 461.27 400.21 460.88 401.00 460.88 C 401.79 460.88 403.31 460.94 404.25 460.75 C 405.19 460.56 405.73 460.27 406.62 459.75 C 407.52 459.23 408.35 458.75 409.62 457.62 C 410.90 456.50 412.54 455.08 414.25 453.00 C 415.96 450.92 418.46 447.62 419.88 445.12 C 421.29 442.62 421.96 440.44 422.75 438.00 C 423.54 435.56 423.98 434.54 424.62 430.50 C 425.27 426.46 426.29 424.44 426.62 413.75 C 426.96 403.06 427.06 383.00 426.62 366.38 C 426.19 349.75 424.60 328.06 424.00 314.00 C 423.40 299.94 423.17 292.17 423.00 282.00 C 422.83 271.83 422.79 259.81 423.00 253.00 C 423.21 246.19 423.65 245.19 424.25 241.12 C 424.85 237.06 426.19 231.94 426.62 228.62 C 427.06 225.31 426.88 222.92 426.88 221.25 C 426.88 219.58 426.98 219.69 426.62 218.62 C 426.27 217.56 425.69 216.04 424.75 214.88 C 423.81 213.71 425.92 211.98 421.00 211.62 C 416.08 211.27 400.44 212.40 395.25 212.75 Z" id="s-12-f-1"/>
<path d="M 421.00 211.62 C 418.92 211.08 414.54 211.50 412.25 211.62 C 409.96 211.75 410.08 212.19 407.25 212.38 C 404.42 212.56 398.15 212.52 395.25 212.75 C 392.35 212.98 390.42 211.83 389.88 213.75 C 389.33 215.67 391.19 220.77 392.00 224.25 C 392.81 227.73 393.94 230.65 394.75 234.62 C 395.56 238.60 396.38 244.21 396.88 248.12 C 397.38 252.04 397.62 254.12 397.75 258.12 C 397.88 262.12 397.44 268.38 397.62 272.12 C 397.81 275.88 398.52 276.62 398.88 280.62 C 399.23 284.62 399.60 286.02 399.75 296.12 C 399.90 306.23 399.94 325.29 399.75 341.25 C 399.56 357.21 398.98 381.46 398.62 391.88 C 398.27 402.29 398.06 400.31 397.62 403.75 C 397.19 407.19 396.50 408.94 396.00 412.50 C 395.50 416.06 395.48 418.77 394.62 425.12 C 393.77 431.48 391.44 446.17 390.88 450.62 C 390.31 455.08 387.23 451.69 391.25 451.88 C 395.27 452.06 410.23 452.88 415.00 451.75 C 419.77 450.62 418.75 446.92 419.88 445.12 C 421.00 443.33 420.96 443.44 421.75 441.00 C 422.54 438.56 423.96 433.56 424.62 430.50 C 425.29 427.44 425.38 426.60 425.75 422.62 C 426.12 418.65 426.71 414.90 426.88 406.62 C 427.04 398.35 427.06 384.25 426.75 373.00 C 426.44 361.75 425.60 353.52 425.00 339.12 C 424.40 324.73 423.46 300.98 423.12 286.62 C 422.79 272.27 422.81 260.58 423.00 253.00 C 423.19 245.42 423.65 245.19 424.25 241.12 C 424.85 237.06 426.19 231.94 426.62 228.62 C 427.06 225.31 426.88 222.92 426.88 221.25 C 426.88 219.58 426.81 219.44 426.62 218.62 C 426.44 217.81 426.06 217.00 425.75 216.38 C 425.44 215.75 425.54 215.67 424.75 214.88 C 423.96 214.08 423.08 212.17 421.00 211.62 Z" id="s-12-f-2"/>
<path d="M 420.62 211.62 C 418.69 211.21 414.58 211.50 412.38 211.62 C 410.17 211.75 410.23 212.19 407.38 212.38 C 404.52 212.56 398.17 212.52 395.25 212.75 C 392.33 212.98 389.96 210.12 389.88 213.75 C 389.79 217.38 393.60 228.94 394.75 234.50 C 395.90 240.06 396.25 243.19 396.75 247.12 C 397.25 251.06 397.60 253.96 397.75 258.12 C 397.90 262.29 397.31 266.81 397.62 272.12 C 397.94 277.44 399.27 278.48 399.62 290.00 C 399.98 301.52 399.90 324.73 399.75 341.25 C 399.60 357.77 399.10 378.85 398.75 389.12 C 398.40 399.40 397.73 400.42 397.62 402.88 C 397.52 405.33 393.60 403.69 398.12 403.88 C 402.65 404.06 420.04 404.00 424.75 404.00 C 429.46 404.00 426.02 404.00 426.38 403.88 C 426.73 403.75 426.83 409.50 426.88 403.25 C 426.92 397.00 426.94 377.06 426.62 366.38 C 426.31 355.69 425.60 353.19 425.00 339.12 C 424.40 325.06 423.33 296.35 423.00 282.00 C 422.67 267.65 422.81 259.67 423.00 253.00 C 423.19 246.33 423.52 246.06 424.12 242.00 C 424.73 237.94 426.17 232.10 426.62 228.62 C 427.08 225.15 426.88 222.79 426.88 221.12 C 426.88 219.46 426.81 219.42 426.62 218.62 C 426.44 217.83 426.19 217.12 425.75 216.38 C 425.31 215.62 424.85 214.92 424.00 214.12 C 423.15 213.33 422.56 212.04 420.62 211.62 Z" id="s-12-f-3"/>
<path d="M 420.62 211.62 C 418.69 211.21 414.58 211.50 412.38 211.62 C 410.17 211.75 410.23 212.19 407.38 212.38 C 404.52 212.56 398.17 212.52 395.25 212.75 C 392.33 212.98 389.79 209.21 389.88 213.75 C 389.96 218.29 394.44 232.60 395.75 240.00 C 397.06 247.40 397.44 252.77 397.75 258.12 C 398.06 263.48 397.31 266.81 397.62 272.12 C 397.94 277.44 399.31 276.15 399.62 290.00 C 399.94 303.85 399.44 344.27 399.50 355.25 C 399.56 366.23 395.69 355.75 400.00 355.88 C 404.31 356.00 421.06 356.10 425.38 356.00 C 429.69 355.90 426.25 366.75 425.88 355.25 C 425.50 343.75 423.60 304.04 423.12 287.00 C 422.65 269.96 422.83 260.50 423.00 253.00 C 423.17 245.50 423.52 246.06 424.12 242.00 C 424.73 237.94 426.17 232.10 426.62 228.62 C 427.08 225.15 426.88 222.79 426.88 221.12 C 426.88 219.46 426.81 219.40 426.62 218.62 C 426.44 217.85 426.19 217.25 425.75 216.50 C 425.31 215.75 424.85 214.94 424.00 214.12 C 423.15 213.31 422.56 212.04 420.62 211.62 Z" id="s-12-f-4"/>
<path d="M 420.62 211.62 C 418.69 211.21 414.58 211.50 412.38 211.62 C 410.17 211.75 410.23 212.19 407.38 212.38 C 404.52 212.56 398.17 212.52 395.25 212.75 C 392.33 212.98 390.40 211.75 389.88 213.75 C 389.35 215.75 391.31 221.29 392.12 224.75 C 392.94 228.21 393.96 230.60 394.75 234.50 C 395.54 238.40 396.38 244.21 396.88 248.12 C 397.38 252.04 397.62 254.00 397.75 258.00 C 397.88 262.00 397.33 267.15 397.62 272.12 C 397.92 277.10 399.12 282.10 399.50 287.88 C 399.88 293.65 399.75 303.42 399.88 306.75 C 400.00 310.08 396.54 307.67 400.25 307.88 C 403.96 308.08 418.19 308.06 422.12 308.00 C 426.06 307.94 423.75 312.21 423.88 307.50 C 424.00 302.79 422.98 284.88 422.88 279.75 C 422.77 274.62 423.23 281.21 423.25 276.75 C 423.27 272.29 422.85 258.79 423.00 253.00 C 423.15 247.21 423.52 246.06 424.12 242.00 C 424.73 237.94 426.17 232.10 426.62 228.62 C 427.08 225.15 426.88 222.79 426.88 221.12 C 426.88 219.46 426.81 219.42 426.62 218.62 C 426.44 217.83 426.19 217.12 425.75 216.38 C 425.31 215.62 424.85 214.92 424.00 214.12 C 423.15 213.33 422.56 212.04 420.62 211.62 Z" id="s-12-f-5"/>
<path d="M 421.00 211.62 C 419.00 211.15 414.65 211.50 412.38 211.62 C 410.10 211.75 410.23 212.19 407.38 212.38 C 404.52 212.56 398.17 212.52 395.25 212.75 C 392.33 212.98 389.81 209.35 389.88 213.75 C 389.94 218.15 394.29 231.44 395.62 239.12 C 396.96 246.81 397.44 256.35 397.88 259.88 C 398.31 263.40 394.15 260.19 398.25 260.25 C 402.35 260.31 418.35 260.31 422.50 260.25 C 426.65 260.19 423.04 261.08 423.12 259.88 C 423.21 258.67 422.81 256.12 423.00 253.00 C 423.19 249.88 423.65 245.19 424.25 241.12 C 424.85 237.06 426.19 232.00 426.62 228.62 C 427.06 225.25 427.02 222.92 426.88 220.88 C 426.73 218.83 426.17 217.44 425.75 216.38 C 425.33 215.31 425.17 215.29 424.38 214.50 C 423.58 213.71 423.00 212.10 421.00 211.62 Z" id="s-12-f-6"/>
</g>
<g id="s-13" clip-path="url(#c-s-13)">
<use href="#s-13-f-0"/>
</g>
</svg>